<?xml version="1.0" encoding="UTF-8" standalone="no"?>
<!DOCTYPE svg PUBLIC "-//W3C//DTD SVG 1.1//EN"
 "http://www.w3.org/Graphics/SVG/1.1/DTD/svg11.dtd">
<!-- Generated by graphviz version 2.36.0 (20140111.2315)
 -->
<!-- Title: hpp::debug::Logging Pages: 1 -->
<svg width="418pt" height="198pt"
 viewBox="0.00 0.00 418.00 198.00" xmlns="http://www.w3.org/2000/svg" xmlns:xlink="http://www.w3.org/1999/xlink">
<g id="graph0" class="graph" transform="scale(1 1) rotate(0) translate(4 194)">
<title>hpp::debug::Logging</title>
<polygon fill="white" stroke="none" points="-4,4 -4,-194 414,-194 414,4 -4,4"/>
<!-- Node1 -->
<g id="node1" class="node"><title>Node1</title>
<polygon fill="#bfbfbf" stroke="black" points="168,-0.5 168,-19.5 272,-19.5 272,-0.5 168,-0.5"/>
<text text-anchor="middle" x="220" y="-7.5" font-family="Helvetica,sans-Serif" font-size="10.00">hpp::debug::Logging</text>
</g>
<!-- Node2 -->
<g id="node2" class="node"><title>Node2</title>
<g id="a_node2"><a xlink:href="a00002.html" target="_top" xlink:title="Logging in console (std::cerr). ">
<polygon fill="white" stroke="black" points="0,-112.5 0,-131.5 136,-131.5 136,-112.5 0,-112.5"/>
<text text-anchor="middle" x="68" y="-119.5" font-family="Helvetica,sans-Serif" font-size="10.00">hpp::debug::ConsoleOutput</text>
</a>
</g>
</g>
<!-- Node2&#45;&gt;Node1 -->
<g id="edge1" class="edge"><title>Node2&#45;&gt;Node1</title>
<path fill="none" stroke="#9a32cd" stroke-dasharray="5,2" d="M87.3455,-105.983C109.293,-89.0774 146.288,-60.9703 179,-38 188.067,-31.6328 198.499,-24.7697 206.57,-19.5563"/>
<polygon fill="#9a32cd" stroke="#9a32cd" points="84.9552,-103.407 79.1816,-112.291 89.2349,-108.947 84.9552,-103.407"/>
<text text-anchor="middle" x="197.5" y="-63.5" font-family="Helvetica,sans-Serif" font-size="10.00"> console</text>
</g>
<!-- Node3 -->
<g id="node3" class="node"><title>Node3</title>
<g id="a_node3"><a xlink:href="a00008.html" target="_top" xlink:title="Debugging output. ">
<polygon fill="white" stroke="black" points="109,-170.5 109,-189.5 209,-189.5 209,-170.5 109,-170.5"/>
<text text-anchor="middle" x="159" y="-177.5" font-family="Helvetica,sans-Serif" font-size="10.00">hpp::debug::Output</text>
</a>
</g>
</g>
<!-- Node3&#45;&gt;Node2 -->
<g id="edge2" class="edge"><title>Node3&#45;&gt;Node2</title>
<path fill="none" stroke="midnightblue" d="M136.383,-165.082C119.313,-154.577 96.4329,-140.497 81.951,-131.585"/>
<polygon fill="midnightblue" stroke="midnightblue" points="134.828,-168.235 145.179,-170.495 138.497,-162.273 134.828,-168.235"/>
</g>
<!-- Node4 -->
<g id="node4" class="node"><title>Node4</title>
<g id="a_node4"><a xlink:href="a00005.html" target="_top" xlink:title="Logging in journal file in the logging directory. ">
<polygon fill="white" stroke="black" points="154.5,-112.5 154.5,-131.5 285.5,-131.5 285.5,-112.5 154.5,-112.5"/>
<text text-anchor="middle" x="220" y="-119.5" font-family="Helvetica,sans-Serif" font-size="10.00">hpp::debug::JournalOutput</text>
</a>
</g>
</g>
<!-- Node3&#45;&gt;Node4 -->
<g id="edge4" class="edge"><title>Node3&#45;&gt;Node4</title>
<path fill="none" stroke="midnightblue" d="M175.774,-163.601C187.011,-153.285 201.39,-140.085 210.648,-131.585"/>
<polygon fill="midnightblue" stroke="midnightblue" points="173.264,-161.154 168.265,-170.495 177.998,-166.31 173.264,-161.154"/>
</g>
<!-- Node4&#45;&gt;Node1 -->
<g id="edge3" class="edge"><title>Node4&#45;&gt;Node1</title>
<path fill="none" stroke="#9a32cd" stroke-dasharray="5,2" d="M220,-102.348C220,-78.2538 220,-37.3079 220,-19.5914"/>
<polygon fill="#9a32cd" stroke="#9a32cd" points="216.5,-102.368 220,-112.368 223.5,-102.369 216.5,-102.368"/>
<text text-anchor="middle" x="261.5" y="-69" font-family="Helvetica,sans-Serif" font-size="10.00"> benchmarkJournal</text>
<text text-anchor="middle" x="261.5" y="-58" font-family="Helvetica,sans-Serif" font-size="10.00">journal</text>
</g>
<!-- Node5 -->
<g id="node5" class="node"><title>Node5</title>
<g id="a_node5"><a xlink:href="a00001.html" target="_top" xlink:title="Receive debugging information. ">
<polygon fill="white" stroke="black" points="303.5,-112.5 303.5,-131.5 410.5,-131.5 410.5,-112.5 303.5,-112.5"/>
<text text-anchor="middle" x="357" y="-119.5" font-family="Helvetica,sans-Serif" font-size="10.00">hpp::debug::Channel</text>
</a>
</g>
</g>
<!-- Node5&#45;&gt;Node1 -->
<g id="edge5" class="edge"><title>Node5&#45;&gt;Node1</title>
<path fill="none" stroke="#9a32cd" stroke-dasharray="5,2" d="M350.533,-102.77C342.939,-83.9138 328.572,-54.9076 307,-38 296.046,-29.415 282.343,-23.5417 269.075,-19.5303"/>
<polygon fill="#9a32cd" stroke="#9a32cd" points="347.326,-104.184 354.142,-112.296 353.872,-101.704 347.326,-104.184"/>
<text text-anchor="middle" x="371.5" y="-85.5" font-family="Helvetica,sans-Serif" font-size="10.00"> error</text>
<text text-anchor="middle" x="371.5" y="-74.5" font-family="Helvetica,sans-Serif" font-size="10.00">notice</text>
<text text-anchor="middle" x="371.5" y="-63.5" font-family="Helvetica,sans-Serif" font-size="10.00">benchmark</text>
<text text-anchor="middle" x="371.5" y="-52.5" font-family="Helvetica,sans-Serif" font-size="10.00">warning</text>
<text text-anchor="middle" x="371.5" y="-41.5" font-family="Helvetica,sans-Serif" font-size="10.00">info</text>
</g>
</g>
</svg>
