<?xml version="1.0" encoding="UTF-8" standalone="no"?>
<!DOCTYPE svg PUBLIC "-//W3C//DTD SVG 1.1//EN"
 "http://www.w3.org/Graphics/SVG/1.1/DTD/svg11.dtd">
<!-- Generated by graphviz version 2.36.0 (20140111.2315)
 -->
<!-- Title: util.hh Pages: 1 -->
<svg width="666pt" height="264pt"
 viewBox="0.00 0.00 666.00 264.00" xmlns="http://www.w3.org/2000/svg" xmlns:xlink="http://www.w3.org/1999/xlink">
<g id="graph0" class="graph" transform="scale(1 1) rotate(0) translate(4 260)">
<title>util.hh</title>
<polygon fill="white" stroke="none" points="-4,4 -4,-260 662,-260 662,4 -4,4"/>
<!-- Node1 -->
<g id="node1" class="node"><title>Node1</title>
<polygon fill="#bfbfbf" stroke="black" points="236.5,-236.5 236.5,-255.5 279.5,-255.5 279.5,-236.5 236.5,-236.5"/>
<text text-anchor="middle" x="258" y="-243.5" font-family="Helvetica,sans-Serif" font-size="10.00">util.hh</text>
</g>
<!-- Node2 -->
<g id="node2" class="node"><title>Node2</title>
<g id="a_node2"><a xlink:href="a00015.html" target="_top" xlink:title="hpp/util/debug.hh">
<polygon fill="white" stroke="black" points="223.5,-118.5 223.5,-137.5 314.5,-137.5 314.5,-118.5 223.5,-118.5"/>
<text text-anchor="middle" x="269" y="-125.5" font-family="Helvetica,sans-Serif" font-size="10.00">hpp/util/debug.hh</text>
</a>
</g>
</g>
<!-- Node1&#45;&gt;Node2 -->
<g id="edge1" class="edge"><title>Node1&#45;&gt;Node2</title>
<path fill="none" stroke="midnightblue" d="M241.196,-236.372C221.146,-224.819 191.663,-203.088 203,-180 210.958,-163.793 226.821,-151.275 241.001,-142.697"/>
<polygon fill="midnightblue" stroke="midnightblue" points="242.989,-145.594 249.976,-137.63 239.547,-139.499 242.989,-145.594"/>
</g>
<!-- Node9 -->
<g id="node9" class="node"><title>Node9</title>
<g id="a_node9"><a xlink:href="a00021.html" target="_top" xlink:title="hpp/util/indent.hh">
<polygon fill="white" stroke="black" points="-0.5,-56.5 -0.5,-75.5 90.5,-75.5 90.5,-56.5 -0.5,-56.5"/>
<text text-anchor="middle" x="45" y="-63.5" font-family="Helvetica,sans-Serif" font-size="10.00">hpp/util/indent.hh</text>
</a>
</g>
</g>
<!-- Node1&#45;&gt;Node9 -->
<g id="edge11" class="edge"><title>Node1&#45;&gt;Node9</title>
<path fill="none" stroke="midnightblue" d="M245.622,-236.328C233.135,-227.474 213.41,-213.194 197,-200 146.48,-159.379 89.6556,-108.065 61.9802,-82.6877"/>
<polygon fill="midnightblue" stroke="midnightblue" points="64.0961,-79.8785 54.3664,-75.6851 59.3574,-85.0307 64.0961,-79.8785"/>
</g>
<!-- Node11 -->
<g id="node11" class="node"><title>Node11</title>
<polygon fill="white" stroke="#bfbfbf" points="211.5,-180.5 211.5,-199.5 304.5,-199.5 304.5,-180.5 211.5,-180.5"/>
<text text-anchor="middle" x="258" y="-187.5" font-family="Helvetica,sans-Serif" font-size="10.00">hpp/util/kitelab.hh</text>
</g>
<!-- Node1&#45;&gt;Node11 -->
<g id="edge12" class="edge"><title>Node1&#45;&gt;Node11</title>
<path fill="none" stroke="midnightblue" d="M258,-236.083C258,-229.006 258,-218.861 258,-209.986"/>
<polygon fill="midnightblue" stroke="midnightblue" points="261.5,-209.751 258,-199.751 254.5,-209.751 261.5,-209.751"/>
</g>
<!-- Node12 -->
<g id="node12" class="node"><title>Node12</title>
<g id="a_node12"><a xlink:href="a00025.html" target="_top" xlink:title="hpp/util/portability.hh">
<polygon fill="white" stroke="black" points="322.5,-180.5 322.5,-199.5 429.5,-199.5 429.5,-180.5 322.5,-180.5"/>
<text text-anchor="middle" x="376" y="-187.5" font-family="Helvetica,sans-Serif" font-size="10.00">hpp/util/portability.hh</text>
</a>
</g>
</g>
<!-- Node1&#45;&gt;Node12 -->
<g id="edge13" class="edge"><title>Node1&#45;&gt;Node12</title>
<path fill="none" stroke="midnightblue" d="M276.697,-236.444C295.944,-227.636 326.152,-213.812 348.2,-203.722"/>
<polygon fill="midnightblue" stroke="midnightblue" points="349.753,-206.86 357.39,-199.516 346.84,-200.495 349.753,-206.86"/>
</g>
<!-- Node13 -->
<g id="node13" class="node"><title>Node13</title>
<g id="a_node13"><a xlink:href="a00029.html" target="_top" xlink:title="hpp/util/timer.hh">
<polygon fill="white" stroke="black" points="448,-180.5 448,-199.5 534,-199.5 534,-180.5 448,-180.5"/>
<text text-anchor="middle" x="491" y="-187.5" font-family="Helvetica,sans-Serif" font-size="10.00">hpp/util/timer.hh</text>
</a>
</g>
</g>
<!-- Node1&#45;&gt;Node13 -->
<g id="edge14" class="edge"><title>Node1&#45;&gt;Node13</title>
<path fill="none" stroke="midnightblue" d="M279.502,-240.017C316.708,-231.394 393.91,-213.502 444.032,-201.885"/>
<polygon fill="midnightblue" stroke="midnightblue" points="445.032,-205.246 453.984,-199.579 443.452,-198.427 445.032,-205.246"/>
</g>
<!-- Node3 -->
<g id="node3" class="node"><title>Node3</title>
<polygon fill="white" stroke="#bfbfbf" points="347.5,-56.5 347.5,-75.5 392.5,-75.5 392.5,-56.5 347.5,-56.5"/>
<text text-anchor="middle" x="370" y="-63.5" font-family="Helvetica,sans-Serif" font-size="10.00">cstdlib</text>
</g>
<!-- Node2&#45;&gt;Node3 -->
<g id="edge2" class="edge"><title>Node2&#45;&gt;Node3</title>
<path fill="none" stroke="midnightblue" d="M283.471,-118.403C300.046,-108.557 327.426,-92.2915 346.947,-80.6949"/>
<polygon fill="midnightblue" stroke="midnightblue" points="348.746,-83.6971 355.556,-75.5806 345.171,-77.6789 348.746,-83.6971"/>
</g>
<!-- Node4 -->
<g id="node4" class="node"><title>Node4</title>
<polygon fill="white" stroke="#bfbfbf" points="411,-56.5 411,-75.5 463,-75.5 463,-56.5 411,-56.5"/>
<text text-anchor="middle" x="437" y="-63.5" font-family="Helvetica,sans-Serif" font-size="10.00">ostream</text>
</g>
<!-- Node2&#45;&gt;Node4 -->
<g id="edge3" class="edge"><title>Node2&#45;&gt;Node4</title>
<path fill="none" stroke="midnightblue" d="M293.07,-118.403C322.013,-108.067 370.762,-90.6564 403.402,-78.9994"/>
<polygon fill="midnightblue" stroke="midnightblue" points="404.734,-82.2401 412.974,-75.5806 402.38,-75.6479 404.734,-82.2401"/>
</g>
<!-- Node5 -->
<g id="node5" class="node"><title>Node5</title>
<polygon fill="white" stroke="#bfbfbf" points="109,-56.5 109,-75.5 159,-75.5 159,-56.5 109,-56.5"/>
<text text-anchor="middle" x="134" y="-63.5" font-family="Helvetica,sans-Serif" font-size="10.00">fstream</text>
</g>
<!-- Node2&#45;&gt;Node5 -->
<g id="edge4" class="edge"><title>Node2&#45;&gt;Node5</title>
<path fill="none" stroke="midnightblue" d="M249.658,-118.403C226.901,-108.29 188.908,-91.4036 162.712,-79.761"/>
<polygon fill="midnightblue" stroke="midnightblue" points="163.866,-76.4437 153.306,-75.5806 161.023,-82.8404 163.866,-76.4437"/>
</g>
<!-- Node6 -->
<g id="node6" class="node"><title>Node6</title>
<polygon fill="white" stroke="#bfbfbf" points="177,-56.5 177,-75.5 229,-75.5 229,-56.5 177,-56.5"/>
<text text-anchor="middle" x="203" y="-63.5" font-family="Helvetica,sans-Serif" font-size="10.00">sstream</text>
</g>
<!-- Node2&#45;&gt;Node6 -->
<g id="edge5" class="edge"><title>Node2&#45;&gt;Node6</title>
<path fill="none" stroke="midnightblue" d="M259.544,-118.403C249.252,-109.047 232.584,-93.8948 220.006,-82.4599"/>
<polygon fill="midnightblue" stroke="midnightblue" points="222.192,-79.7176 212.439,-75.5806 217.484,-84.8971 222.192,-79.7176"/>
</g>
<!-- Node7 -->
<g id="node7" class="node"><title>Node7</title>
<polygon fill="white" stroke="#bfbfbf" points="247,-56.5 247,-75.5 291,-75.5 291,-56.5 247,-56.5"/>
<text text-anchor="middle" x="269" y="-63.5" font-family="Helvetica,sans-Serif" font-size="10.00">vector</text>
</g>
<!-- Node2&#45;&gt;Node7 -->
<g id="edge6" class="edge"><title>Node2&#45;&gt;Node7</title>
<path fill="none" stroke="midnightblue" d="M269,-118.403C269,-109.938 269,-96.7283 269,-85.8199"/>
<polygon fill="midnightblue" stroke="midnightblue" points="272.5,-85.5806 269,-75.5806 265.5,-85.5806 272.5,-85.5806"/>
</g>
<!-- Node8 -->
<g id="node8" class="node"><title>Node8</title>
<polygon fill="white" stroke="#bfbfbf" points="273.5,-0.5 273.5,-19.5 364.5,-19.5 364.5,-0.5 273.5,-0.5"/>
<text text-anchor="middle" x="319" y="-7.5" font-family="Helvetica,sans-Serif" font-size="10.00">hpp/util/config.hh</text>
</g>
<!-- Node2&#45;&gt;Node8 -->
<g id="edge7" class="edge"><title>Node2&#45;&gt;Node8</title>
<path fill="none" stroke="midnightblue" d="M274.967,-118.308C281.55,-108.416 292.123,-91.604 299,-76 305.696,-60.8067 311.071,-42.6916 314.555,-29.4493"/>
<polygon fill="midnightblue" stroke="midnightblue" points="317.976,-30.1949 317.025,-19.6429 311.188,-28.4852 317.976,-30.1949"/>
</g>
<!-- Node2&#45;&gt;Node9 -->
<g id="edge8" class="edge"><title>Node2&#45;&gt;Node9</title>
<path fill="none" stroke="midnightblue" d="M236.906,-118.403C197.401,-107.822 130.221,-89.8269 86.7394,-78.1802"/>
<polygon fill="midnightblue" stroke="midnightblue" points="87.5993,-74.7872 77.0342,-75.5806 85.7881,-81.5488 87.5993,-74.7872"/>
</g>
<!-- Node9&#45;&gt;Node8 -->
<g id="edge10" class="edge"><title>Node9&#45;&gt;Node8</title>
<path fill="none" stroke="midnightblue" d="M88.4161,-56.4435C136.515,-46.9641 214.095,-31.6747 265.806,-21.4835"/>
<polygon fill="midnightblue" stroke="midnightblue" points="266.653,-24.8841 275.787,-19.5164 265.299,-18.0162 266.653,-24.8841"/>
</g>
<!-- Node10 -->
<g id="node10" class="node"><title>Node10</title>
<polygon fill="white" stroke="#bfbfbf" points="22.5,-0.5 22.5,-19.5 67.5,-19.5 67.5,-0.5 22.5,-0.5"/>
<text text-anchor="middle" x="45" y="-7.5" font-family="Helvetica,sans-Serif" font-size="10.00">iosfwd</text>
</g>
<!-- Node9&#45;&gt;Node10 -->
<g id="edge9" class="edge"><title>Node9&#45;&gt;Node10</title>
<path fill="none" stroke="midnightblue" d="M45,-56.083C45,-49.0059 45,-38.8611 45,-29.9865"/>
<polygon fill="midnightblue" stroke="midnightblue" points="48.5001,-29.751 45,-19.7511 41.5001,-29.7511 48.5001,-29.751"/>
</g>
<!-- Node13&#45;&gt;Node2 -->
<g id="edge17" class="edge"><title>Node13&#45;&gt;Node2</title>
<path fill="none" stroke="midnightblue" d="M459.193,-180.403C420.123,-169.844 353.74,-151.903 310.639,-140.254"/>
<polygon fill="midnightblue" stroke="midnightblue" points="311.315,-136.811 300.748,-137.581 309.489,-143.569 311.315,-136.811"/>
</g>
<!-- Node13&#45;&gt;Node8 -->
<g id="edge16" class="edge"><title>Node13&#45;&gt;Node8</title>
<path fill="none" stroke="midnightblue" d="M492.651,-180.26C496.517,-156.935 503.593,-92.5106 472,-56 448.029,-28.2975 407.965,-17.21 374.848,-12.9629"/>
<polygon fill="midnightblue" stroke="midnightblue" points="375.143,-9.47427 364.818,-11.8536 374.373,-16.4318 375.143,-9.47427"/>
</g>
<!-- Node14 -->
<g id="node14" class="node"><title>Node14</title>
<polygon fill="white" stroke="#bfbfbf" points="519.5,-113 519.5,-143 658.5,-143 658.5,-113 519.5,-113"/>
<text text-anchor="start" x="527.5" y="-131" font-family="Helvetica,sans-Serif" font-size="10.00">boost/date_time/posix</text>
<text text-anchor="middle" x="589" y="-120" font-family="Helvetica,sans-Serif" font-size="10.00">_time/posix_time_types.hpp</text>
</g>
<!-- Node13&#45;&gt;Node14 -->
<g id="edge15" class="edge"><title>Node13&#45;&gt;Node14</title>
<path fill="none" stroke="midnightblue" d="M505.041,-180.403C518.562,-172.125 539.493,-159.311 557.073,-148.547"/>
<polygon fill="midnightblue" stroke="midnightblue" points="559.202,-151.347 565.903,-143.141 555.547,-145.377 559.202,-151.347"/>
</g>
</g>
</svg>
