<?xml version="1.0" encoding="UTF-8" standalone="no"?>
<!DOCTYPE svg PUBLIC "-//W3C//DTD SVG 1.1//EN"
 "http://www.w3.org/Graphics/SVG/1.1/DTD/svg11.dtd">
<!-- Generated by graphviz version 2.36.0 (20140111.2315)
 -->
<!-- Title: sequence.hh Pages: 1 -->
<svg width="409pt" height="140pt"
 viewBox="0.00 0.00 409.00 140.00" xmlns="http://www.w3.org/2000/svg" xmlns:xlink="http://www.w3.org/1999/xlink">
<g id="graph0" class="graph" transform="scale(1 1) rotate(0) translate(4 136)">
<title>sequence.hh</title>
<polygon fill="white" stroke="none" points="-4,4 -4,-136 405,-136 405,4 -4,4"/>
<!-- Node1 -->
<g id="node1" class="node"><title>Node1</title>
<polygon fill="#bfbfbf" stroke="black" points="160,-112.5 160,-131.5 232,-131.5 232,-112.5 160,-112.5"/>
<text text-anchor="middle" x="196" y="-119.5" font-family="Helvetica,sans-Serif" font-size="10.00">sequence.hh</text>
</g>
<!-- Node2 -->
<g id="node2" class="node"><title>Node2</title>
<g id="a_node2"><a xlink:href="a00023.html" target="_top" xlink:title="hpp/util/parser.hh">
<polygon fill="white" stroke="black" points="107,-56.5 107,-75.5 199,-75.5 199,-56.5 107,-56.5"/>
<text text-anchor="middle" x="153" y="-63.5" font-family="Helvetica,sans-Serif" font-size="10.00">hpp/util/parser.hh</text>
</a>
</g>
</g>
<!-- Node1&#45;&gt;Node2 -->
<g id="edge1" class="edge"><title>Node1&#45;&gt;Node2</title>
<path fill="none" stroke="midnightblue" d="M188.899,-112.083C182.763,-104.377 173.73,-93.0333 166.261,-83.6531"/>
<polygon fill="midnightblue" stroke="midnightblue" points="168.936,-81.3936 159.968,-75.7511 163.46,-85.7542 168.936,-81.3936"/>
</g>
<!-- Node9 -->
<g id="node9" class="node"><title>Node9</title>
<polygon fill="white" stroke="#bfbfbf" points="217,-56.5 217,-75.5 261,-75.5 261,-56.5 217,-56.5"/>
<text text-anchor="middle" x="239" y="-63.5" font-family="Helvetica,sans-Serif" font-size="10.00">vector</text>
</g>
<!-- Node1&#45;&gt;Node9 -->
<g id="edge8" class="edge"><title>Node1&#45;&gt;Node9</title>
<path fill="none" stroke="midnightblue" d="M203.101,-112.083C209.237,-104.377 218.27,-93.0333 225.739,-83.6531"/>
<polygon fill="midnightblue" stroke="midnightblue" points="228.54,-85.7542 232.032,-75.7511 223.064,-81.3936 228.54,-85.7542"/>
</g>
<!-- Node3 -->
<g id="node3" class="node"><title>Node3</title>
<polygon fill="white" stroke="#bfbfbf" points="-0.5,-0.5 -0.5,-19.5 34.5,-19.5 34.5,-0.5 -0.5,-0.5"/>
<text text-anchor="middle" x="17" y="-7.5" font-family="Helvetica,sans-Serif" font-size="10.00">map</text>
</g>
<!-- Node2&#45;&gt;Node3 -->
<g id="edge2" class="edge"><title>Node2&#45;&gt;Node3</title>
<path fill="none" stroke="midnightblue" d="M131.45,-56.4435C107.779,-47.0445 69.7217,-31.9336 44.0586,-21.7438"/>
<polygon fill="midnightblue" stroke="midnightblue" points="45.1423,-18.4084 34.5565,-17.971 42.5591,-24.9143 45.1423,-18.4084"/>
</g>
<!-- Node4 -->
<g id="node4" class="node"><title>Node4</title>
<polygon fill="white" stroke="#bfbfbf" points="52.5,-0.5 52.5,-19.5 81.5,-19.5 81.5,-0.5 52.5,-0.5"/>
<text text-anchor="middle" x="67" y="-7.5" font-family="Helvetica,sans-Serif" font-size="10.00">list</text>
</g>
<!-- Node2&#45;&gt;Node4 -->
<g id="edge3" class="edge"><title>Node2&#45;&gt;Node4</title>
<path fill="none" stroke="midnightblue" d="M139.183,-56.324C125.767,-47.9002 105.176,-34.9709 89.4144,-25.0741"/>
<polygon fill="midnightblue" stroke="midnightblue" points="91.1132,-22.0081 80.7831,-19.6545 87.3908,-27.9364 91.1132,-22.0081"/>
</g>
<!-- Node5 -->
<g id="node5" class="node"><title>Node5</title>
<polygon fill="white" stroke="#bfbfbf" points="99.5,-0.5 99.5,-19.5 140.5,-19.5 140.5,-0.5 99.5,-0.5"/>
<text text-anchor="middle" x="120" y="-7.5" font-family="Helvetica,sans-Serif" font-size="10.00">string</text>
</g>
<!-- Node2&#45;&gt;Node5 -->
<g id="edge4" class="edge"><title>Node2&#45;&gt;Node5</title>
<path fill="none" stroke="midnightblue" d="M147.551,-56.083C142.986,-48.6127 136.332,-37.7244 130.707,-28.5199"/>
<polygon fill="midnightblue" stroke="midnightblue" points="133.549,-26.4588 125.348,-19.7511 127.576,-30.109 133.549,-26.4588"/>
</g>
<!-- Node6 -->
<g id="node6" class="node"><title>Node6</title>
<polygon fill="white" stroke="#bfbfbf" points="159,-0.5 159,-19.5 213,-19.5 213,-0.5 159,-0.5"/>
<text text-anchor="middle" x="186" y="-7.5" font-family="Helvetica,sans-Serif" font-size="10.00">iostream</text>
</g>
<!-- Node2&#45;&gt;Node6 -->
<g id="edge5" class="edge"><title>Node2&#45;&gt;Node6</title>
<path fill="none" stroke="midnightblue" d="M158.449,-56.083C163.014,-48.6127 169.668,-37.7244 175.293,-28.5199"/>
<polygon fill="midnightblue" stroke="midnightblue" points="178.424,-30.109 180.652,-19.7511 172.451,-26.4588 178.424,-30.109"/>
</g>
<!-- Node7 -->
<g id="node7" class="node"><title>Node7</title>
<polygon fill="white" stroke="#bfbfbf" points="231,-0.5 231,-19.5 287,-19.5 287,-0.5 231,-0.5"/>
<text text-anchor="middle" x="259" y="-7.5" font-family="Helvetica,sans-Serif" font-size="10.00">tinyxml.h</text>
</g>
<!-- Node2&#45;&gt;Node7 -->
<g id="edge6" class="edge"><title>Node2&#45;&gt;Node7</title>
<path fill="none" stroke="midnightblue" d="M170.031,-56.324C187.03,-47.6641 213.376,-34.2424 232.993,-24.249"/>
<polygon fill="midnightblue" stroke="midnightblue" points="234.69,-27.3125 242.012,-19.6545 231.512,-21.0752 234.69,-27.3125"/>
</g>
<!-- Node8 -->
<g id="node8" class="node"><title>Node8</title>
<polygon fill="white" stroke="#bfbfbf" points="304.5,-0.5 304.5,-19.5 401.5,-19.5 401.5,-0.5 304.5,-0.5"/>
<text text-anchor="middle" x="353" y="-7.5" font-family="Helvetica,sans-Serif" font-size="10.00">boost/function.hpp</text>
</g>
<!-- Node2&#45;&gt;Node8 -->
<g id="edge7" class="edge"><title>Node2&#45;&gt;Node8</title>
<path fill="none" stroke="midnightblue" d="M184.691,-56.4435C219.068,-47.1616 274.077,-32.3093 311.789,-22.127"/>
<polygon fill="midnightblue" stroke="midnightblue" points="312.716,-25.5022 321.458,-19.5164 310.891,-18.7442 312.716,-25.5022"/>
</g>
</g>
</svg>
