<?xml version="1.0" encoding="UTF-8" standalone="no"?>
<!DOCTYPE svg PUBLIC "-//W3C//DTD SVG 1.1//EN"
 "http://www.w3.org/Graphics/SVG/1.1/DTD/svg11.dtd">
<!-- Generated by graphviz version 2.36.0 (20140111.2315)
 -->
<!-- Title: indent.hh Pages: 1 -->
<svg width="228pt" height="196pt"
 viewBox="0.00 0.00 228.00 196.00" xmlns="http://www.w3.org/2000/svg" xmlns:xlink="http://www.w3.org/1999/xlink">
<g id="graph0" class="graph" transform="scale(1 1) rotate(0) translate(4 192)">
<title>indent.hh</title>
<polygon fill="white" stroke="none" points="-4,4 -4,-192 224,-192 224,4 -4,4"/>
<!-- Node1 -->
<g id="node1" class="node"><title>Node1</title>
<polygon fill="#bfbfbf" stroke="black" points="81,-168.5 81,-187.5 137,-187.5 137,-168.5 81,-168.5"/>
<text text-anchor="middle" x="109" y="-175.5" font-family="Helvetica,sans-Serif" font-size="10.00">indent.hh</text>
</g>
<!-- Node2 -->
<g id="node2" class="node"><title>Node2</title>
<g id="a_node2"><a xlink:href="a00010.html" target="_top" xlink:title="debug.hh">
<polygon fill="white" stroke="black" points="53,-112.5 53,-131.5 109,-131.5 109,-112.5 53,-112.5"/>
<text text-anchor="middle" x="81" y="-119.5" font-family="Helvetica,sans-Serif" font-size="10.00">debug.hh</text>
</a>
</g>
</g>
<!-- Node1&#45;&gt;Node2 -->
<g id="edge1" class="edge"><title>Node1&#45;&gt;Node2</title>
<path fill="none" stroke="midnightblue" d="M99.6577,-158.983C94.905,-149.817 89.3441,-139.092 85.5376,-131.751"/>
<polygon fill="midnightblue" stroke="midnightblue" points="96.666,-160.817 104.376,-168.083 102.88,-157.594 96.666,-160.817"/>
</g>
<!-- Node4 -->
<g id="node4" class="node"><title>Node4</title>
<g id="a_node4"><a xlink:href="a00020.html" target="_top" xlink:title="util.hh">
<polygon fill="white" stroke="black" points="-0.5,-0.5 -0.5,-19.5 42.5,-19.5 42.5,-0.5 -0.5,-0.5"/>
<text text-anchor="middle" x="21" y="-7.5" font-family="Helvetica,sans-Serif" font-size="10.00">util.hh</text>
</a>
</g>
</g>
<!-- Node1&#45;&gt;Node4 -->
<g id="edge7" class="edge"><title>Node1&#45;&gt;Node4</title>
<path fill="none" stroke="midnightblue" d="M79.9931,-163.428C67.0495,-155.932 52.771,-145.399 44,-132 20.2259,-95.6817 19.6936,-40.8772 20.4923,-19.7414"/>
<polygon fill="midnightblue" stroke="midnightblue" points="78.6235,-166.667 89.0842,-168.347 81.9549,-160.51 78.6235,-166.667"/>
</g>
<!-- Node6 -->
<g id="node6" class="node"><title>Node6</title>
<g id="a_node6"><a xlink:href="a00009.html" target="_top" xlink:title="debug.cc">
<polygon fill="white" stroke="black" points="125,-56.5 125,-75.5 181,-75.5 181,-56.5 125,-56.5"/>
<text text-anchor="middle" x="153" y="-63.5" font-family="Helvetica,sans-Serif" font-size="10.00">debug.cc</text>
</a>
</g>
</g>
<!-- Node1&#45;&gt;Node6 -->
<g id="edge8" class="edge"><title>Node1&#45;&gt;Node6</title>
<path fill="none" stroke="midnightblue" d="M116.201,-158.998C125.801,-134.997 142.413,-93.4683 149.563,-75.5914"/>
<polygon fill="midnightblue" stroke="midnightblue" points="112.917,-157.784 112.453,-168.368 119.416,-160.384 112.917,-157.784"/>
</g>
<!-- Node7 -->
<g id="node7" class="node"><title>Node7</title>
<g id="a_node7"><a xlink:href="a00014.html" target="_top" xlink:title="indent.cc">
<polygon fill="white" stroke="black" points="165,-112.5 165,-131.5 221,-131.5 221,-112.5 165,-112.5"/>
<text text-anchor="middle" x="193" y="-119.5" font-family="Helvetica,sans-Serif" font-size="10.00">indent.cc</text>
</a>
</g>
</g>
<!-- Node1&#45;&gt;Node7 -->
<g id="edge9" class="edge"><title>Node1&#45;&gt;Node7</title>
<path fill="none" stroke="midnightblue" d="M130.932,-162.901C146.335,-152.999 166.446,-140.071 179.537,-131.655"/>
<polygon fill="midnightblue" stroke="midnightblue" points="129.015,-159.972 122.496,-168.324 132.801,-165.86 129.015,-159.972"/>
</g>
<!-- Node3 -->
<g id="node3" class="node"><title>Node3</title>
<g id="a_node3"><a xlink:href="a00019.html" target="_top" xlink:title="timer.hh">
<polygon fill="white" stroke="black" points="55,-56.5 55,-75.5 107,-75.5 107,-56.5 55,-56.5"/>
<text text-anchor="middle" x="81" y="-63.5" font-family="Helvetica,sans-Serif" font-size="10.00">timer.hh</text>
</a>
</g>
</g>
<!-- Node2&#45;&gt;Node3 -->
<g id="edge2" class="edge"><title>Node2&#45;&gt;Node3</title>
<path fill="none" stroke="midnightblue" d="M81,-101.805C81,-92.9102 81,-82.7798 81,-75.7511"/>
<polygon fill="midnightblue" stroke="midnightblue" points="77.5001,-102.083 81,-112.083 84.5001,-102.083 77.5001,-102.083"/>
</g>
<!-- Node2&#45;&gt;Node4 -->
<g id="edge5" class="edge"><title>Node2&#45;&gt;Node4</title>
<path fill="none" stroke="midnightblue" d="M66.3324,-104.58C59.53,-96.3956 51.7074,-86.1059 46,-76 35.2978,-57.0502 27.286,-32.6135 23.4721,-19.7744"/>
<polygon fill="midnightblue" stroke="midnightblue" points="63.7501,-106.945 72.9205,-112.252 69.0606,-102.385 63.7501,-106.945"/>
</g>
<!-- Node2&#45;&gt;Node6 -->
<g id="edge6" class="edge"><title>Node2&#45;&gt;Node6</title>
<path fill="none" stroke="midnightblue" d="M100.866,-106.101C113.823,-96.3824 130.297,-84.0269 141.221,-75.8339"/>
<polygon fill="midnightblue" stroke="midnightblue" points="98.4681,-103.524 92.568,-112.324 102.668,-109.124 98.4681,-103.524"/>
</g>
<!-- Node3&#45;&gt;Node4 -->
<g id="edge3" class="edge"><title>Node3&#45;&gt;Node4</title>
<path fill="none" stroke="midnightblue" d="M63.8191,-49.5372C53.1208,-39.9087 39.7437,-27.8694 30.8154,-19.8339"/>
<polygon fill="midnightblue" stroke="midnightblue" points="61.5856,-52.2358 71.36,-56.324 66.2684,-47.0327 61.5856,-52.2358"/>
</g>
<!-- Node5 -->
<g id="node5" class="node"><title>Node5</title>
<g id="a_node5"><a xlink:href="a00018.html" target="_top" xlink:title="timer.cc">
<polygon fill="white" stroke="black" points="61,-0.5 61,-19.5 113,-19.5 113,-0.5 61,-0.5"/>
<text text-anchor="middle" x="87" y="-7.5" font-family="Helvetica,sans-Serif" font-size="10.00">timer.cc</text>
</a>
</g>
</g>
<!-- Node3&#45;&gt;Node5 -->
<g id="edge4" class="edge"><title>Node3&#45;&gt;Node5</title>
<path fill="none" stroke="midnightblue" d="M83.0999,-46.1005C84.096,-37.1357 85.238,-26.8579 86.0277,-19.7511"/>
<polygon fill="midnightblue" stroke="midnightblue" points="79.6166,-45.7576 81.9908,-56.083 86.5738,-46.5307 79.6166,-45.7576"/>
</g>
</g>
</svg>
