<?xml version="1.0" encoding="UTF-8" standalone="no"?>
<!DOCTYPE svg PUBLIC "-//W3C//DTD SVG 1.1//EN"
 "http://www.w3.org/Graphics/SVG/1.1/DTD/svg11.dtd">
<!-- Generated by graphviz version 2.36.0 (20140111.2315)
 -->
<!-- Title: timer.cc Pages: 1 -->
<svg width="854pt" height="276pt"
 viewBox="0.00 0.00 854.00 276.00" xmlns="http://www.w3.org/2000/svg" xmlns:xlink="http://www.w3.org/1999/xlink">
<g id="graph0" class="graph" transform="scale(1 1) rotate(0) translate(4 272)">
<title>timer.cc</title>
<polygon fill="white" stroke="none" points="-4,4 -4,-272 850,-272 850,4 -4,4"/>
<!-- Node1 -->
<g id="node1" class="node"><title>Node1</title>
<polygon fill="#bfbfbf" stroke="black" points="163,-248.5 163,-267.5 215,-267.5 215,-248.5 163,-248.5"/>
<text text-anchor="middle" x="189" y="-255.5" font-family="Helvetica,sans-Serif" font-size="10.00">timer.cc</text>
</g>
<!-- Node2 -->
<g id="node2" class="node"><title>Node2</title>
<polygon fill="white" stroke="#bfbfbf" points="0,-186.5 0,-205.5 54,-205.5 54,-186.5 0,-186.5"/>
<text text-anchor="middle" x="27" y="-193.5" font-family="Helvetica,sans-Serif" font-size="10.00">iostream</text>
</g>
<!-- Node1&#45;&gt;Node2 -->
<g id="edge1" class="edge"><title>Node1&#45;&gt;Node2</title>
<path fill="none" stroke="midnightblue" d="M163.757,-248.416C138.217,-239.629 97.6648,-225.402 63,-212 60.8962,-211.187 58.7304,-210.331 56.5542,-209.458"/>
<polygon fill="midnightblue" stroke="midnightblue" points="57.6891,-206.141 47.1083,-205.594 55.039,-212.62 57.6891,-206.141"/>
</g>
<!-- Node3 -->
<g id="node3" class="node"><title>Node3</title>
<polygon fill="white" stroke="#bfbfbf" points="72.5,-181 72.5,-211 185.5,-211 185.5,-181 72.5,-181"/>
<text text-anchor="start" x="80.5" y="-199" font-family="Helvetica,sans-Serif" font-size="10.00">boost/date_time/posix</text>
<text text-anchor="middle" x="129" y="-188" font-family="Helvetica,sans-Serif" font-size="10.00">_time/posix_time.hpp</text>
</g>
<!-- Node1&#45;&gt;Node3 -->
<g id="edge2" class="edge"><title>Node1&#45;&gt;Node3</title>
<path fill="none" stroke="midnightblue" d="M180.403,-248.403C172.581,-240.581 160.708,-228.708 150.342,-218.342"/>
<polygon fill="midnightblue" stroke="midnightblue" points="152.687,-215.737 143.141,-211.141 147.737,-220.687 152.687,-215.737"/>
</g>
<!-- Node4 -->
<g id="node4" class="node"><title>Node4</title>
<polygon fill="white" stroke="#bfbfbf" points="204,-186.5 204,-205.5 294,-205.5 294,-186.5 204,-186.5"/>
<text text-anchor="middle" x="249" y="-193.5" font-family="Helvetica,sans-Serif" font-size="10.00">boost/format.hpp</text>
</g>
<!-- Node1&#45;&gt;Node4 -->
<g id="edge3" class="edge"><title>Node1&#45;&gt;Node4</title>
<path fill="none" stroke="midnightblue" d="M197.597,-248.403C206.864,-239.136 221.817,-224.183 233.212,-212.788"/>
<polygon fill="midnightblue" stroke="midnightblue" points="235.823,-215.127 240.419,-205.581 230.873,-210.177 235.823,-215.127"/>
</g>
<!-- Node5 -->
<g id="node5" class="node"><title>Node5</title>
<g id="a_node5"><a xlink:href="a00029.html" target="_top" xlink:title="hpp/util/timer.hh">
<polygon fill="white" stroke="black" points="312,-186.5 312,-205.5 398,-205.5 398,-186.5 312,-186.5"/>
<text text-anchor="middle" x="355" y="-193.5" font-family="Helvetica,sans-Serif" font-size="10.00">hpp/util/timer.hh</text>
</a>
</g>
</g>
<!-- Node1&#45;&gt;Node5 -->
<g id="edge4" class="edge"><title>Node1&#45;&gt;Node5</title>
<path fill="none" stroke="midnightblue" d="M212.784,-248.403C241.382,-238.067 289.551,-220.656 321.802,-208.999"/>
<polygon fill="midnightblue" stroke="midnightblue" points="323.046,-212.271 331.26,-205.581 320.666,-205.688 323.046,-212.271"/>
</g>
<!-- Node6 -->
<g id="node6" class="node"><title>Node6</title>
<polygon fill="white" stroke="#bfbfbf" points="187.5,-113 187.5,-143 326.5,-143 326.5,-113 187.5,-113"/>
<text text-anchor="start" x="195.5" y="-131" font-family="Helvetica,sans-Serif" font-size="10.00">boost/date_time/posix</text>
<text text-anchor="middle" x="257" y="-120" font-family="Helvetica,sans-Serif" font-size="10.00">_time/posix_time_types.hpp</text>
</g>
<!-- Node5&#45;&gt;Node6 -->
<g id="edge5" class="edge"><title>Node5&#45;&gt;Node6</title>
<path fill="none" stroke="midnightblue" d="M342.188,-186.372C328.124,-176.9 305.074,-161.376 286.495,-148.864"/>
<polygon fill="midnightblue" stroke="midnightblue" points="288.307,-145.864 278.057,-143.181 284.397,-151.671 288.307,-145.864"/>
</g>
<!-- Node7 -->
<g id="node7" class="node"><title>Node7</title>
<polygon fill="white" stroke="#bfbfbf" points="347.5,-0.5 347.5,-19.5 438.5,-19.5 438.5,-0.5 347.5,-0.5"/>
<text text-anchor="middle" x="393" y="-7.5" font-family="Helvetica,sans-Serif" font-size="10.00">hpp/util/config.hh</text>
</g>
<!-- Node5&#45;&gt;Node7 -->
<g id="edge6" class="edge"><title>Node5&#45;&gt;Node7</title>
<path fill="none" stroke="midnightblue" d="M356.833,-186.125C362.689,-157.769 381.036,-68.9299 389.115,-29.8108"/>
<polygon fill="midnightblue" stroke="midnightblue" points="392.591,-30.2869 391.186,-19.7857 385.735,-28.8711 392.591,-30.2869"/>
</g>
<!-- Node8 -->
<g id="node8" class="node"><title>Node8</title>
<g id="a_node8"><a xlink:href="a00015.html" target="_top" xlink:title="hpp/util/debug.hh">
<polygon fill="white" stroke="black" points="499.5,-118.5 499.5,-137.5 590.5,-137.5 590.5,-118.5 499.5,-118.5"/>
<text text-anchor="middle" x="545" y="-125.5" font-family="Helvetica,sans-Serif" font-size="10.00">hpp/util/debug.hh</text>
</a>
</g>
</g>
<!-- Node5&#45;&gt;Node8 -->
<g id="edge7" class="edge"><title>Node5&#45;&gt;Node8</title>
<path fill="none" stroke="midnightblue" d="M379.839,-186.372C413.358,-174.728 473.205,-153.939 510.912,-140.841"/>
<polygon fill="midnightblue" stroke="midnightblue" points="512.158,-144.114 520.456,-137.526 509.861,-137.501 512.158,-144.114"/>
</g>
<!-- Node8&#45;&gt;Node7 -->
<g id="edge13" class="edge"><title>Node8&#45;&gt;Node7</title>
<path fill="none" stroke="midnightblue" d="M499.43,-120.118C470.636,-113.487 434.706,-100.643 412,-76 400.433,-63.4466 395.875,-44.2253 394.096,-29.937"/>
<polygon fill="midnightblue" stroke="midnightblue" points="397.563,-29.4053 393.185,-19.7573 390.591,-30.0297 397.563,-29.4053"/>
</g>
<!-- Node9 -->
<g id="node9" class="node"><title>Node9</title>
<polygon fill="white" stroke="#bfbfbf" points="421.5,-56.5 421.5,-75.5 466.5,-75.5 466.5,-56.5 421.5,-56.5"/>
<text text-anchor="middle" x="444" y="-63.5" font-family="Helvetica,sans-Serif" font-size="10.00">cstdlib</text>
</g>
<!-- Node8&#45;&gt;Node9 -->
<g id="edge8" class="edge"><title>Node8&#45;&gt;Node9</title>
<path fill="none" stroke="midnightblue" d="M530.529,-118.403C513.954,-108.557 486.574,-92.2915 467.053,-80.6949"/>
<polygon fill="midnightblue" stroke="midnightblue" points="468.829,-77.6789 458.444,-75.5806 465.254,-83.6971 468.829,-77.6789"/>
</g>
<!-- Node10 -->
<g id="node10" class="node"><title>Node10</title>
<polygon fill="white" stroke="#bfbfbf" points="485,-56.5 485,-75.5 537,-75.5 537,-56.5 485,-56.5"/>
<text text-anchor="middle" x="511" y="-63.5" font-family="Helvetica,sans-Serif" font-size="10.00">ostream</text>
</g>
<!-- Node8&#45;&gt;Node10 -->
<g id="edge9" class="edge"><title>Node8&#45;&gt;Node10</title>
<path fill="none" stroke="midnightblue" d="M540.129,-118.403C535.13,-109.582 527.211,-95.6075 520.891,-84.4548"/>
<polygon fill="midnightblue" stroke="midnightblue" points="523.838,-82.5553 515.862,-75.5806 517.747,-86.0064 523.838,-82.5553"/>
</g>
<!-- Node11 -->
<g id="node11" class="node"><title>Node11</title>
<polygon fill="white" stroke="#bfbfbf" points="555,-56.5 555,-75.5 605,-75.5 605,-56.5 555,-56.5"/>
<text text-anchor="middle" x="580" y="-63.5" font-family="Helvetica,sans-Serif" font-size="10.00">fstream</text>
</g>
<!-- Node8&#45;&gt;Node11 -->
<g id="edge10" class="edge"><title>Node8&#45;&gt;Node11</title>
<path fill="none" stroke="midnightblue" d="M550.015,-118.403C555.161,-109.582 563.312,-95.6075 569.818,-84.4548"/>
<polygon fill="midnightblue" stroke="midnightblue" points="572.979,-85.982 574.995,-75.5806 566.933,-82.4548 572.979,-85.982"/>
</g>
<!-- Node12 -->
<g id="node12" class="node"><title>Node12</title>
<polygon fill="white" stroke="#bfbfbf" points="623,-56.5 623,-75.5 675,-75.5 675,-56.5 623,-56.5"/>
<text text-anchor="middle" x="649" y="-63.5" font-family="Helvetica,sans-Serif" font-size="10.00">sstream</text>
</g>
<!-- Node8&#45;&gt;Node12 -->
<g id="edge11" class="edge"><title>Node8&#45;&gt;Node12</title>
<path fill="none" stroke="midnightblue" d="M559.901,-118.403C576.968,-108.557 605.161,-92.2915 625.262,-80.6949"/>
<polygon fill="midnightblue" stroke="midnightblue" points="627.214,-83.6095 634.127,-75.5806 623.716,-77.5462 627.214,-83.6095"/>
</g>
<!-- Node13 -->
<g id="node13" class="node"><title>Node13</title>
<polygon fill="white" stroke="#bfbfbf" points="693,-56.5 693,-75.5 737,-75.5 737,-56.5 693,-56.5"/>
<text text-anchor="middle" x="715" y="-63.5" font-family="Helvetica,sans-Serif" font-size="10.00">vector</text>
</g>
<!-- Node8&#45;&gt;Node13 -->
<g id="edge12" class="edge"><title>Node8&#45;&gt;Node13</title>
<path fill="none" stroke="midnightblue" d="M569.357,-118.403C599.31,-107.832 650.226,-89.8614 683.228,-78.2136"/>
<polygon fill="midnightblue" stroke="midnightblue" points="684.587,-81.4458 692.852,-74.817 682.257,-74.8448 684.587,-81.4458"/>
</g>
<!-- Node14 -->
<g id="node14" class="node"><title>Node14</title>
<g id="a_node14"><a xlink:href="a00021.html" target="_top" xlink:title="hpp/util/indent.hh">
<polygon fill="white" stroke="black" points="755.5,-56.5 755.5,-75.5 846.5,-75.5 846.5,-56.5 755.5,-56.5"/>
<text text-anchor="middle" x="801" y="-63.5" font-family="Helvetica,sans-Serif" font-size="10.00">hpp/util/indent.hh</text>
</a>
</g>
</g>
<!-- Node8&#45;&gt;Node14 -->
<g id="edge14" class="edge"><title>Node8&#45;&gt;Node14</title>
<path fill="none" stroke="midnightblue" d="M581.407,-118.467C626.994,-107.783 705.133,-89.4687 754.865,-77.8129"/>
<polygon fill="midnightblue" stroke="midnightblue" points="755.781,-81.193 764.719,-75.5034 754.184,-74.3777 755.781,-81.193"/>
</g>
<!-- Node14&#45;&gt;Node7 -->
<g id="edge16" class="edge"><title>Node14&#45;&gt;Node7</title>
<path fill="none" stroke="midnightblue" d="M755.481,-57.5587C751.936,-57.0177 748.411,-56.492 745,-56 640.6,-40.9414 518.4,-25.8972 448.906,-17.5836"/>
<polygon fill="midnightblue" stroke="midnightblue" points="448.974,-14.067 438.629,-16.3574 448.144,-21.0177 448.974,-14.067"/>
</g>
<!-- Node15 -->
<g id="node15" class="node"><title>Node15</title>
<polygon fill="white" stroke="#bfbfbf" points="778.5,-0.5 778.5,-19.5 823.5,-19.5 823.5,-0.5 778.5,-0.5"/>
<text text-anchor="middle" x="801" y="-7.5" font-family="Helvetica,sans-Serif" font-size="10.00">iosfwd</text>
</g>
<!-- Node14&#45;&gt;Node15 -->
<g id="edge15" class="edge"><title>Node14&#45;&gt;Node15</title>
<path fill="none" stroke="midnightblue" d="M801,-56.083C801,-49.0059 801,-38.8611 801,-29.9865"/>
<polygon fill="midnightblue" stroke="midnightblue" points="804.5,-29.751 801,-19.7511 797.5,-29.7511 804.5,-29.751"/>
</g>
</g>
</svg>
