<?xml version="1.0" encoding="UTF-8" standalone="no"?>
<!DOCTYPE svg PUBLIC "-//W3C//DTD SVG 1.1//EN"
 "http://www.w3.org/Graphics/SVG/1.1/DTD/svg11.dtd">
<!-- Generated by graphviz version 2.36.0 (20140111.2315)
 -->
<!-- Title: hpp::util::parser::SequenceFactory&lt; ValueType &gt; Pages: 1 -->
<svg width="164pt" height="108pt"
 viewBox="0.00 0.00 164.00 108.00" xmlns="http://www.w3.org/2000/svg" xmlns:xlink="http://www.w3.org/1999/xlink">
<g id="graph0" class="graph" transform="scale(1 1) rotate(0) translate(4 104)">
<title>hpp::util::parser::SequenceFactory&lt; ValueType &gt;</title>
<polygon fill="white" stroke="none" points="-4,4 -4,-104 160,-104 160,4 -4,4"/>
<!-- Node1 -->
<g id="node1" class="node"><title>Node1</title>
<polygon fill="#bfbfbf" stroke="black" points="-1,-1 -1,-31 157,-31 157,-1 -1,-1"/>
<text text-anchor="start" x="7" y="-19" font-family="Helvetica,sans-Serif" font-size="10.00">hpp::util::parser::</text>
<text text-anchor="middle" x="78" y="-8" font-family="Helvetica,sans-Serif" font-size="10.00">SequenceFactory&lt; ValueType &gt;</text>
</g>
<!-- Node2 -->
<g id="node2" class="node"><title>Node2</title>
<g id="a_node2"><a xlink:href="a00007.html" target="_top" xlink:title="Class that catch XML Parser events for a specific tag and build the corresponding Object...">
<polygon fill="white" stroke="black" points="33,-69 33,-99 123,-99 123,-69 33,-69"/>
<text text-anchor="start" x="41" y="-87" font-family="Helvetica,sans-Serif" font-size="10.00">hpp::util::parser::</text>
<text text-anchor="middle" x="78" y="-76" font-family="Helvetica,sans-Serif" font-size="10.00">ObjectFactory</text>
</a>
</g>
</g>
<!-- Node2&#45;&gt;Node1 -->
<g id="edge1" class="edge"><title>Node2&#45;&gt;Node1</title>
<path fill="none" stroke="midnightblue" d="M78,-58.5322C78,-49.3606 78,-39.2449 78,-31.2931"/>
<polygon fill="midnightblue" stroke="midnightblue" points="74.5001,-58.6789 78,-68.679 81.5001,-58.679 74.5001,-58.6789"/>
</g>
</g>
</svg>
