<?xml version="1.0" encoding="UTF-8" standalone="no"?>
<!DOCTYPE svg PUBLIC "-//W3C//DTD SVG 1.1//EN"
 "http://www.w3.org/Graphics/SVG/1.1/DTD/svg11.dtd">
<!-- Generated by graphviz version 2.36.0 (20140111.2315)
 -->
<!-- Title: debug.cc Pages: 1 -->
<svg width="878pt" height="196pt"
 viewBox="0.00 0.00 878.00 196.00" xmlns="http://www.w3.org/2000/svg" xmlns:xlink="http://www.w3.org/1999/xlink">
<g id="graph0" class="graph" transform="scale(1 1) rotate(0) translate(4 192)">
<title>debug.cc</title>
<polygon fill="white" stroke="none" points="-4,4 -4,-192 874,-192 874,4 -4,4"/>
<!-- Node1 -->
<g id="node1" class="node"><title>Node1</title>
<polygon fill="#bfbfbf" stroke="black" points="275,-168.5 275,-187.5 331,-187.5 331,-168.5 275,-168.5"/>
<text text-anchor="middle" x="303" y="-175.5" font-family="Helvetica,sans-Serif" font-size="10.00">debug.cc</text>
</g>
<!-- Node2 -->
<g id="node2" class="node"><title>Node2</title>
<polygon fill="white" stroke="#bfbfbf" points="-0.5,-112.5 -0.5,-131.5 50.5,-131.5 50.5,-112.5 -0.5,-112.5"/>
<text text-anchor="middle" x="25" y="-119.5" font-family="Helvetica,sans-Serif" font-size="10.00">config.h</text>
</g>
<!-- Node1&#45;&gt;Node2 -->
<g id="edge1" class="edge"><title>Node1&#45;&gt;Node2</title>
<path fill="none" stroke="midnightblue" d="M274.728,-171.98C230.083,-163.979 140.563,-147.64 65,-132 63.5624,-131.702 62.0968,-131.394 60.617,-131.08"/>
<polygon fill="midnightblue" stroke="midnightblue" points="61.3082,-127.648 50.7925,-128.94 59.8189,-134.488 61.3082,-127.648"/>
</g>
<!-- Node3 -->
<g id="node3" class="node"><title>Node3</title>
<polygon fill="white" stroke="#bfbfbf" points="5.5,-56.5 5.5,-75.5 50.5,-75.5 50.5,-56.5 5.5,-56.5"/>
<text text-anchor="middle" x="28" y="-63.5" font-family="Helvetica,sans-Serif" font-size="10.00">cstdlib</text>
</g>
<!-- Node1&#45;&gt;Node3 -->
<g id="edge2" class="edge"><title>Node1&#45;&gt;Node3</title>
<path fill="none" stroke="midnightblue" d="M274.72,-172.36C239.897,-166.031 179.419,-153.011 131,-132 99.8809,-118.496 67.3144,-96.3902 47.3358,-81.767"/>
<polygon fill="midnightblue" stroke="midnightblue" points="49.2046,-78.7949 39.0927,-75.6326 45.0255,-84.4106 49.2046,-78.7949"/>
</g>
<!-- Node4 -->
<g id="node4" class="node"><title>Node4</title>
<polygon fill="white" stroke="#bfbfbf" points="331,-112.5 331,-131.5 385,-131.5 385,-112.5 331,-112.5"/>
<text text-anchor="middle" x="358" y="-119.5" font-family="Helvetica,sans-Serif" font-size="10.00">iostream</text>
</g>
<!-- Node1&#45;&gt;Node4 -->
<g id="edge3" class="edge"><title>Node1&#45;&gt;Node4</title>
<path fill="none" stroke="midnightblue" d="M312.082,-168.083C320.171,-160.141 332.195,-148.335 341.91,-138.797"/>
<polygon fill="midnightblue" stroke="midnightblue" points="344.403,-141.254 349.087,-131.751 339.499,-136.26 344.403,-141.254"/>
</g>
<!-- Node5 -->
<g id="node5" class="node"><title>Node5</title>
<polygon fill="white" stroke="#bfbfbf" points="69,-56.5 69,-75.5 119,-75.5 119,-56.5 69,-56.5"/>
<text text-anchor="middle" x="94" y="-63.5" font-family="Helvetica,sans-Serif" font-size="10.00">fstream</text>
</g>
<!-- Node1&#45;&gt;Node5 -->
<g id="edge4" class="edge"><title>Node1&#45;&gt;Node5</title>
<path fill="none" stroke="midnightblue" d="M274.997,-172.115C245.153,-166.028 197.297,-153.687 161,-132 139.601,-119.215 119.73,-98.328 107.275,-83.6907"/>
<polygon fill="midnightblue" stroke="midnightblue" points="109.91,-81.3849 100.844,-75.9031 104.513,-85.8424 109.91,-81.3849"/>
</g>
<!-- Node6 -->
<g id="node6" class="node"><title>Node6</title>
<polygon fill="white" stroke="#bfbfbf" points="137,-56.5 137,-75.5 189,-75.5 189,-56.5 137,-56.5"/>
<text text-anchor="middle" x="163" y="-63.5" font-family="Helvetica,sans-Serif" font-size="10.00">sstream</text>
</g>
<!-- Node1&#45;&gt;Node6 -->
<g id="edge5" class="edge"><title>Node1&#45;&gt;Node6</title>
<path fill="none" stroke="midnightblue" d="M274.991,-175.287C245.263,-171.889 199.178,-161.808 174,-132 163.277,-119.306 161.179,-100.103 161.372,-85.8577"/>
<polygon fill="midnightblue" stroke="midnightblue" points="164.875,-85.8824 161.896,-75.7149 157.884,-85.5208 164.875,-85.8824"/>
</g>
<!-- Node7 -->
<g id="node7" class="node"><title>Node7</title>
<polygon fill="white" stroke="#bfbfbf" points="403,-112.5 403,-131.5 523,-131.5 523,-112.5 403,-112.5"/>
<text text-anchor="middle" x="463" y="-119.5" font-family="Helvetica,sans-Serif" font-size="10.00">boost/assign/list_of.hpp</text>
</g>
<!-- Node1&#45;&gt;Node7 -->
<g id="edge6" class="edge"><title>Node1&#45;&gt;Node7</title>
<path fill="none" stroke="midnightblue" d="M328.352,-168.444C355.269,-159.359 397.996,-144.939 428.087,-134.783"/>
<polygon fill="midnightblue" stroke="midnightblue" points="429.41,-138.031 437.766,-131.516 427.172,-131.398 429.41,-138.031"/>
</g>
<!-- Node8 -->
<g id="node8" class="node"><title>Node8</title>
<polygon fill="white" stroke="#bfbfbf" points="541.5,-112.5 541.5,-131.5 648.5,-131.5 648.5,-112.5 541.5,-112.5"/>
<text text-anchor="middle" x="595" y="-119.5" font-family="Helvetica,sans-Serif" font-size="10.00">boost/filesystem.hpp</text>
</g>
<!-- Node1&#45;&gt;Node8 -->
<g id="edge7" class="edge"><title>Node1&#45;&gt;Node8</title>
<path fill="none" stroke="midnightblue" d="M331.264,-171.773C379.055,-162.935 476.684,-144.88 538.819,-133.39"/>
<polygon fill="midnightblue" stroke="midnightblue" points="539.654,-136.795 548.851,-131.534 538.381,-129.911 539.654,-136.795"/>
</g>
<!-- Node9 -->
<g id="node9" class="node"><title>Node9</title>
<polygon fill="white" stroke="#bfbfbf" points="666.5,-112.5 666.5,-131.5 761.5,-131.5 761.5,-112.5 666.5,-112.5"/>
<text text-anchor="middle" x="714" y="-119.5" font-family="Helvetica,sans-Serif" font-size="10.00">boost/foreach.hpp</text>
</g>
<!-- Node1&#45;&gt;Node9 -->
<g id="edge8" class="edge"><title>Node1&#45;&gt;Node9</title>
<path fill="none" stroke="midnightblue" d="M331.032,-173.728C389.42,-166.85 528.562,-150.136 656.459,-132.038"/>
<polygon fill="midnightblue" stroke="midnightblue" points="657.022,-135.493 666.43,-130.621 656.037,-128.563 657.022,-135.493"/>
</g>
<!-- Node10 -->
<g id="node10" class="node"><title>Node10</title>
<polygon fill="white" stroke="#bfbfbf" points="780,-112.5 780,-131.5 870,-131.5 870,-112.5 780,-112.5"/>
<text text-anchor="middle" x="825" y="-119.5" font-family="Helvetica,sans-Serif" font-size="10.00">boost/format.hpp</text>
</g>
<!-- Node1&#45;&gt;Node10 -->
<g id="edge9" class="edge"><title>Node1&#45;&gt;Node10</title>
<path fill="none" stroke="midnightblue" d="M331.236,-174.934C402.686,-169.566 596.636,-154.131 769.662,-131.953"/>
<polygon fill="midnightblue" stroke="midnightblue" points="770.245,-135.407 779.714,-130.654 769.348,-128.465 770.245,-135.407"/>
</g>
<!-- Node11 -->
<g id="node11" class="node"><title>Node11</title>
<g id="a_node11"><a xlink:href="a00021.html" target="_top" xlink:title="hpp/util/indent.hh">
<polygon fill="white" stroke="black" points="377.5,-56.5 377.5,-75.5 468.5,-75.5 468.5,-56.5 377.5,-56.5"/>
<text text-anchor="middle" x="423" y="-63.5" font-family="Helvetica,sans-Serif" font-size="10.00">hpp/util/indent.hh</text>
</a>
</g>
</g>
<!-- Node1&#45;&gt;Node11 -->
<g id="edge10" class="edge"><title>Node1&#45;&gt;Node11</title>
<path fill="none" stroke="midnightblue" d="M303.286,-168.333C304.179,-154.743 307.768,-128.292 322,-112 335.766,-96.2419 356.119,-85.7447 374.955,-78.8853"/>
<polygon fill="midnightblue" stroke="midnightblue" points="376.269,-82.136 384.624,-75.6213 374.03,-75.5037 376.269,-82.136"/>
</g>
<!-- Node14 -->
<g id="node14" class="node"><title>Node14</title>
<g id="a_node14"><a xlink:href="a00015.html" target="_top" xlink:title="hpp/util/debug.hh">
<polygon fill="white" stroke="black" points="183.5,-112.5 183.5,-131.5 274.5,-131.5 274.5,-112.5 183.5,-112.5"/>
<text text-anchor="middle" x="229" y="-119.5" font-family="Helvetica,sans-Serif" font-size="10.00">hpp/util/debug.hh</text>
</a>
</g>
</g>
<!-- Node1&#45;&gt;Node14 -->
<g id="edge13" class="edge"><title>Node1&#45;&gt;Node14</title>
<path fill="none" stroke="midnightblue" d="M291.111,-168.324C279.85,-160.107 262.713,-147.602 249.291,-137.807"/>
<polygon fill="midnightblue" stroke="midnightblue" points="251.247,-134.901 241.106,-131.834 247.12,-140.556 251.247,-134.901"/>
</g>
<!-- Node12 -->
<g id="node12" class="node"><title>Node12</title>
<polygon fill="white" stroke="#bfbfbf" points="400.5,-0.5 400.5,-19.5 445.5,-19.5 445.5,-0.5 400.5,-0.5"/>
<text text-anchor="middle" x="423" y="-7.5" font-family="Helvetica,sans-Serif" font-size="10.00">iosfwd</text>
</g>
<!-- Node11&#45;&gt;Node12 -->
<g id="edge11" class="edge"><title>Node11&#45;&gt;Node12</title>
<path fill="none" stroke="midnightblue" d="M423,-56.083C423,-49.0059 423,-38.8611 423,-29.9865"/>
<polygon fill="midnightblue" stroke="midnightblue" points="426.5,-29.751 423,-19.7511 419.5,-29.7511 426.5,-29.751"/>
</g>
<!-- Node13 -->
<g id="node13" class="node"><title>Node13</title>
<polygon fill="white" stroke="#bfbfbf" points="262.5,-0.5 262.5,-19.5 353.5,-19.5 353.5,-0.5 262.5,-0.5"/>
<text text-anchor="middle" x="308" y="-7.5" font-family="Helvetica,sans-Serif" font-size="10.00">hpp/util/config.hh</text>
</g>
<!-- Node11&#45;&gt;Node13 -->
<g id="edge12" class="edge"><title>Node11&#45;&gt;Node13</title>
<path fill="none" stroke="midnightblue" d="M404.778,-56.4435C386.104,-47.6751 356.844,-33.9355 335.383,-23.8579"/>
<polygon fill="midnightblue" stroke="midnightblue" points="336.676,-20.5988 326.137,-19.5164 333.701,-26.935 336.676,-20.5988"/>
</g>
<!-- Node14&#45;&gt;Node3 -->
<g id="edge14" class="edge"><title>Node14&#45;&gt;Node3</title>
<path fill="none" stroke="midnightblue" d="M196.25,-112.424C164.173,-103.993 113.655,-90.6295 60.6393,-76.147"/>
<polygon fill="midnightblue" stroke="midnightblue" points="61.284,-72.6948 50.7148,-73.4307 59.436,-79.4465 61.284,-72.6948"/>
</g>
<!-- Node14&#45;&gt;Node5 -->
<g id="edge16" class="edge"><title>Node14&#45;&gt;Node5</title>
<path fill="none" stroke="midnightblue" d="M207.609,-112.444C185.293,-103.517 150.097,-89.4387 124.792,-79.3168"/>
<polygon fill="midnightblue" stroke="midnightblue" points="125.876,-75.9807 115.291,-75.5164 123.276,-82.4801 125.876,-75.9807"/>
</g>
<!-- Node14&#45;&gt;Node6 -->
<g id="edge17" class="edge"><title>Node14&#45;&gt;Node6</title>
<path fill="none" stroke="midnightblue" d="M218.396,-112.324C208.544,-104.263 193.649,-92.0765 181.785,-82.3695"/>
<polygon fill="midnightblue" stroke="midnightblue" points="183.753,-79.4575 173.797,-75.8339 179.32,-84.8752 183.753,-79.4575"/>
</g>
<!-- Node14&#45;&gt;Node11 -->
<g id="edge20" class="edge"><title>Node14&#45;&gt;Node11</title>
<path fill="none" stroke="midnightblue" d="M259.74,-112.444C292.944,-103.201 345.991,-88.4356 382.557,-78.2572"/>
<polygon fill="midnightblue" stroke="midnightblue" points="383.709,-81.5699 392.404,-75.5164 381.832,-74.8262 383.709,-81.5699"/>
</g>
<!-- Node14&#45;&gt;Node13 -->
<g id="edge19" class="edge"><title>Node14&#45;&gt;Node13</title>
<path fill="none" stroke="midnightblue" d="M235.199,-112.368C248.236,-94.2153 278.697,-51.8015 295.798,-27.9902"/>
<polygon fill="midnightblue" stroke="midnightblue" points="298.839,-29.7555 301.83,-19.5914 293.154,-25.6721 298.839,-29.7555"/>
</g>
<!-- Node15 -->
<g id="node15" class="node"><title>Node15</title>
<polygon fill="white" stroke="#bfbfbf" points="307,-56.5 307,-75.5 359,-75.5 359,-56.5 307,-56.5"/>
<text text-anchor="middle" x="333" y="-63.5" font-family="Helvetica,sans-Serif" font-size="10.00">ostream</text>
</g>
<!-- Node14&#45;&gt;Node15 -->
<g id="edge15" class="edge"><title>Node14&#45;&gt;Node15</title>
<path fill="none" stroke="midnightblue" d="M245.709,-112.324C262.312,-103.703 288.002,-90.3643 307.22,-80.3855"/>
<polygon fill="midnightblue" stroke="midnightblue" points="309.07,-83.3689 316.332,-75.6545 305.844,-77.1565 309.07,-83.3689"/>
</g>
<!-- Node16 -->
<g id="node16" class="node"><title>Node16</title>
<polygon fill="white" stroke="#bfbfbf" points="207,-56.5 207,-75.5 251,-75.5 251,-56.5 207,-56.5"/>
<text text-anchor="middle" x="229" y="-63.5" font-family="Helvetica,sans-Serif" font-size="10.00">vector</text>
</g>
<!-- Node14&#45;&gt;Node16 -->
<g id="edge18" class="edge"><title>Node14&#45;&gt;Node16</title>
<path fill="none" stroke="midnightblue" d="M229,-112.083C229,-105.006 229,-94.8611 229,-85.9865"/>
<polygon fill="midnightblue" stroke="midnightblue" points="232.5,-85.751 229,-75.7511 225.5,-85.7511 232.5,-85.751"/>
</g>
</g>
</svg>
