<?xml version="1.0" encoding="UTF-8" standalone="no"?>
<!DOCTYPE svg PUBLIC "-//W3C//DTD SVG 1.1//EN"
 "http://www.w3.org/Graphics/SVG/1.1/DTD/svg11.dtd">
<!-- Generated by graphviz version 2.36.0 (20140111.2315)
 -->
<!-- Title: gcommon.idl Pages: 1 -->
<svg width="143pt" height="84pt"
 viewBox="0.00 0.00 143.00 84.00" xmlns="http://www.w3.org/2000/svg" xmlns:xlink="http://www.w3.org/1999/xlink">
<g id="graph0" class="graph" transform="scale(1 1) rotate(0) translate(4 80)">
<title>gcommon.idl</title>
<polygon fill="white" stroke="none" points="-4,4 -4,-80 139,-80 139,4 -4,4"/>
<!-- Node1 -->
<g id="node1" class="node"><title>Node1</title>
<polygon fill="#bfbfbf" stroke="black" points="28,-56.5 28,-75.5 100,-75.5 100,-56.5 28,-56.5"/>
<text text-anchor="middle" x="64" y="-63.5" font-family="Helvetica,sans-Serif" font-size="10.00">gcommon.idl</text>
</g>
<!-- Node2 -->
<g id="node2" class="node"><title>Node2</title>
<g id="a_node2"><a xlink:href="a00023.html" target="_top" xlink:title="graph.idl">
<polygon fill="white" stroke="black" points="-0.5,-0.5 -0.5,-19.5 52.5,-19.5 52.5,-0.5 -0.5,-0.5"/>
<text text-anchor="middle" x="26" y="-7.5" font-family="Helvetica,sans-Serif" font-size="10.00">graph.idl</text>
</a>
</g>
</g>
<!-- Node1&#45;&gt;Node2 -->
<g id="edge1" class="edge"><title>Node1&#45;&gt;Node2</title>
<path fill="none" stroke="midnightblue" d="M51.9353,-47.8554C45.3553,-38.5048 37.489,-27.3265 32.1582,-19.7511"/>
<polygon fill="midnightblue" stroke="midnightblue" points="49.1078,-49.9192 57.7251,-56.083 54.8324,-45.8907 49.1078,-49.9192"/>
</g>
<!-- Node3 -->
<g id="node3" class="node"><title>Node3</title>
<g id="a_node3"><a xlink:href="a00024.html" target="_top" xlink:title="problem.idl">
<polygon fill="white" stroke="black" points="71,-0.5 71,-19.5 135,-19.5 135,-0.5 71,-0.5"/>
<text text-anchor="middle" x="103" y="-7.5" font-family="Helvetica,sans-Serif" font-size="10.00">problem.idl</text>
</a>
</g>
</g>
<!-- Node1&#45;&gt;Node3 -->
<g id="edge2" class="edge"><title>Node1&#45;&gt;Node3</title>
<path fill="none" stroke="midnightblue" d="M76.3822,-47.8554C83.1354,-38.5048 91.2086,-27.3265 96.6798,-19.7511"/>
<polygon fill="midnightblue" stroke="midnightblue" points="73.4576,-45.927 70.4401,-56.083 79.1324,-50.0254 73.4576,-45.927"/>
</g>
</g>
</svg>
