<?xml version="1.0" encoding="UTF-8" standalone="no"?>
<!DOCTYPE svg PUBLIC "-//W3C//DTD SVG 1.1//EN"
 "http://www.w3.org/Graphics/SVG/1.1/DTD/svg11.dtd">
<!-- Generated by graphviz version 2.36.0 (20140111.2315)
 -->
<!-- Title: server.hh Pages: 1 -->
<svg width="432pt" height="152pt"
 viewBox="0.00 0.00 432.00 152.00" xmlns="http://www.w3.org/2000/svg" xmlns:xlink="http://www.w3.org/1999/xlink">
<g id="graph0" class="graph" transform="scale(1 1) rotate(0) translate(4 148)">
<title>server.hh</title>
<polygon fill="white" stroke="none" points="-4,4 -4,-148 428,-148 428,4 -4,4"/>
<!-- Node1 -->
<g id="node1" class="node"><title>Node1</title>
<polygon fill="#bfbfbf" stroke="black" points="161.5,-124.5 161.5,-143.5 218.5,-143.5 218.5,-124.5 161.5,-124.5"/>
<text text-anchor="middle" x="190" y="-131.5" font-family="Helvetica,sans-Serif" font-size="10.00">server.hh</text>
</g>
<!-- Node2 -->
<g id="node2" class="node"><title>Node2</title>
<polygon fill="white" stroke="#bfbfbf" points="0,-57 0,-87 100,-87 100,-57 0,-57"/>
<text text-anchor="start" x="8" y="-75" font-family="Helvetica,sans-Serif" font-size="10.00">hpp/corba/template</text>
<text text-anchor="middle" x="50" y="-64" font-family="Helvetica,sans-Serif" font-size="10.00">/server.hh</text>
</g>
<!-- Node1&#45;&gt;Node2 -->
<g id="edge1" class="edge"><title>Node1&#45;&gt;Node2</title>
<path fill="none" stroke="midnightblue" d="M169.941,-124.403C149.673,-115.717 117.747,-102.035 91.9287,-90.9694"/>
<polygon fill="midnightblue" stroke="midnightblue" points="93.2959,-87.7476 82.7257,-87.0253 90.5385,-94.1816 93.2959,-87.7476"/>
</g>
<!-- Node3 -->
<g id="node3" class="node"><title>Node3</title>
<g id="a_node3"><a xlink:href="a00001.html" target="_top" xlink:title="hpp/corbaserver/manipulation\l/fwd.hh">
<polygon fill="white" stroke="black" points="118,-57 118,-87 262,-87 262,-57 118,-57"/>
<text text-anchor="start" x="126" y="-75" font-family="Helvetica,sans-Serif" font-size="10.00">hpp/corbaserver/manipulation</text>
<text text-anchor="middle" x="190" y="-64" font-family="Helvetica,sans-Serif" font-size="10.00">/fwd.hh</text>
</a>
</g>
</g>
<!-- Node1&#45;&gt;Node3 -->
<g id="edge2" class="edge"><title>Node1&#45;&gt;Node3</title>
<path fill="none" stroke="midnightblue" d="M190,-124.403C190,-117.341 190,-106.975 190,-97.399"/>
<polygon fill="midnightblue" stroke="midnightblue" points="193.5,-97.1408 190,-87.1408 186.5,-97.1408 193.5,-97.1408"/>
</g>
<!-- Node5 -->
<g id="node5" class="node"><title>Node5</title>
<g id="a_node5"><a xlink:href="a00003.html" target="_top" xlink:title="hpp/corbaserver/manipulation\l/config.hh">
<polygon fill="white" stroke="black" points="280,-57 280,-87 424,-87 424,-57 280,-57"/>
<text text-anchor="start" x="288" y="-75" font-family="Helvetica,sans-Serif" font-size="10.00">hpp/corbaserver/manipulation</text>
<text text-anchor="middle" x="352" y="-64" font-family="Helvetica,sans-Serif" font-size="10.00">/config.hh</text>
</a>
</g>
</g>
<!-- Node1&#45;&gt;Node5 -->
<g id="edge4" class="edge"><title>Node1&#45;&gt;Node5</title>
<path fill="none" stroke="midnightblue" d="M213.211,-124.403C236.973,-115.603 274.581,-101.674 304.658,-90.534"/>
<polygon fill="midnightblue" stroke="midnightblue" points="305.97,-93.7806 314.132,-87.0253 303.539,-87.2164 305.97,-93.7806"/>
</g>
<!-- Node4 -->
<g id="node4" class="node"><title>Node4</title>
<g id="a_node4"><a doxygen="https://jmirabel.github.io/hpp-doc/api/hpp-manipulation/doxygen-html/hpp-manipulation.doxytag:https://jmirabel.github.io/hpp-doc/api/hpp-manipulation/doxygen-html/" xlink:href="https://jmirabel.github.io/hpp-doc/api/hpp-manipulation/doxygen-html/a00001.html" target="_top" xlink:title="hpp/manipulation/fwd.hh">
<polygon fill="white" stroke="black" points="129,-0.5 129,-19.5 251,-19.5 251,-0.5 129,-0.5"/>
<text text-anchor="middle" x="190" y="-7.5" font-family="Helvetica,sans-Serif" font-size="10.00">hpp/manipulation/fwd.hh</text>
</a>
</g>
</g>
<!-- Node3&#45;&gt;Node4 -->
<g id="edge3" class="edge"><title>Node3&#45;&gt;Node4</title>
<path fill="none" stroke="midnightblue" d="M190,-56.7808C190,-48.7812 190,-38.6887 190,-30.0168"/>
<polygon fill="midnightblue" stroke="midnightblue" points="193.5,-29.7305 190,-19.7305 186.5,-29.7306 193.5,-29.7305"/>
</g>
</g>
</svg>
