<?xml version="1.0" encoding="UTF-8" standalone="no"?>
<!DOCTYPE svg PUBLIC "-//W3C//DTD SVG 1.1//EN"
 "http://www.w3.org/Graphics/SVG/1.1/DTD/svg11.dtd">
<!-- Generated by graphviz version 2.36.0 (20140111.2315)
 -->
<!-- Title: server.hh Pages: 1 -->
<svg width="450pt" height="208pt"
 viewBox="0.00 0.00 450.00 208.00" xmlns="http://www.w3.org/2000/svg" xmlns:xlink="http://www.w3.org/1999/xlink">
<g id="graph0" class="graph" transform="scale(1 1) rotate(0) translate(4 204)">
<title>server.hh</title>
<polygon fill="white" stroke="none" points="-4,4 -4,-204 446,-204 446,4 -4,4"/>
<!-- Node1 -->
<g id="node1" class="node"><title>Node1</title>
<polygon fill="#bfbfbf" stroke="black" points="144.5,-180.5 144.5,-199.5 201.5,-199.5 201.5,-180.5 144.5,-180.5"/>
<text text-anchor="middle" x="173" y="-187.5" font-family="Helvetica,sans-Serif" font-size="10.00">server.hh</text>
</g>
<!-- Node2 -->
<g id="node2" class="node"><title>Node2</title>
<polygon fill="white" stroke="#bfbfbf" points="0,-113 0,-143 100,-143 100,-113 0,-113"/>
<text text-anchor="start" x="8" y="-131" font-family="Helvetica,sans-Serif" font-size="10.00">hpp/corba/template</text>
<text text-anchor="middle" x="50" y="-120" font-family="Helvetica,sans-Serif" font-size="10.00">/server.hh</text>
</g>
<!-- Node1&#45;&gt;Node2 -->
<g id="edge1" class="edge"><title>Node1&#45;&gt;Node2</title>
<path fill="none" stroke="midnightblue" d="M155.377,-180.403C137.94,-171.898 110.684,-158.602 88.2602,-147.663"/>
<polygon fill="midnightblue" stroke="midnightblue" points="89.5109,-144.379 78.9887,-143.141 86.4419,-150.671 89.5109,-144.379"/>
</g>
<!-- Node3 -->
<g id="node3" class="node"><title>Node3</title>
<g id="a_node3"><a doxygen="https://jmirabel.github.io/hpp-doc/api/hpp-corbaserver/doxygen-html/hpp-corbaserver.doxytag:https://jmirabel.github.io/hpp-doc/api/hpp-corbaserver/doxygen-html/" xlink:href="https://jmirabel.github.io/hpp-doc/api/hpp-corbaserver/doxygen-html/a00022.html" target="_top" xlink:title="hpp/corbaserver/problem\l&#45;solver&#45;map.hh">
<polygon fill="white" stroke="black" points="156,-113 156,-143 280,-143 280,-113 156,-113"/>
<text text-anchor="start" x="164" y="-131" font-family="Helvetica,sans-Serif" font-size="10.00">hpp/corbaserver/problem</text>
<text text-anchor="middle" x="218" y="-120" font-family="Helvetica,sans-Serif" font-size="10.00">&#45;solver&#45;map.hh</text>
</a>
</g>
</g>
<!-- Node1&#45;&gt;Node3 -->
<g id="edge2" class="edge"><title>Node1&#45;&gt;Node3</title>
<path fill="none" stroke="midnightblue" d="M179.447,-180.403C185.143,-172.809 193.703,-161.396 201.311,-151.252"/>
<polygon fill="midnightblue" stroke="midnightblue" points="204.194,-153.241 207.394,-143.141 198.594,-149.041 204.194,-153.241"/>
</g>
<!-- Node4 -->
<g id="node4" class="node"><title>Node4</title>
<g id="a_node4"><a xlink:href="a00001.html" target="_top" xlink:title="hpp/corbaserver/fwd.hh">
<polygon fill="white" stroke="black" points="44.5,-56.5 44.5,-75.5 163.5,-75.5 163.5,-56.5 44.5,-56.5"/>
<text text-anchor="middle" x="104" y="-63.5" font-family="Helvetica,sans-Serif" font-size="10.00">hpp/corbaserver/fwd.hh</text>
</a>
</g>
</g>
<!-- Node1&#45;&gt;Node4 -->
<g id="edge7" class="edge"><title>Node1&#45;&gt;Node4</title>
<path fill="none" stroke="midnightblue" d="M167.978,-180.395C162.714,-171.354 154.22,-156.709 147,-144 135.461,-123.687 122.402,-100.235 113.734,-84.6015"/>
<polygon fill="midnightblue" stroke="midnightblue" points="116.638,-82.6213 108.732,-75.5687 110.514,-86.0125 116.638,-82.6213"/>
</g>
<!-- Node8 -->
<g id="node8" class="node"><title>Node8</title>
<g id="a_node8"><a xlink:href="a00003.html" target="_top" xlink:title="hpp/corbaserver/manipulation\l/config.hh">
<polygon fill="white" stroke="black" points="298,-113 298,-143 442,-143 442,-113 298,-113"/>
<text text-anchor="start" x="306" y="-131" font-family="Helvetica,sans-Serif" font-size="10.00">hpp/corbaserver/manipulation</text>
<text text-anchor="middle" x="370" y="-120" font-family="Helvetica,sans-Serif" font-size="10.00">/config.hh</text>
</a>
</g>
</g>
<!-- Node1&#45;&gt;Node8 -->
<g id="edge8" class="edge"><title>Node1&#45;&gt;Node8</title>
<path fill="none" stroke="midnightblue" d="M201.225,-180.403C230.622,-171.45 277.444,-157.19 314.322,-145.958"/>
<polygon fill="midnightblue" stroke="midnightblue" points="315.404,-149.287 323.95,-143.025 313.364,-142.591 315.404,-149.287"/>
</g>
<!-- Node3&#45;&gt;Node4 -->
<g id="edge3" class="edge"><title>Node3&#45;&gt;Node4</title>
<path fill="none" stroke="midnightblue" d="M191.272,-112.933C172.554,-103.081 147.701,-90.0004 129.305,-80.3182"/>
<polygon fill="midnightblue" stroke="midnightblue" points="130.819,-77.1603 120.34,-75.6 127.559,-83.3548 130.819,-77.1603"/>
</g>
<!-- Node6 -->
<g id="node6" class="node"><title>Node6</title>
<g id="a_node6"><a doxygen="https://jmirabel.github.io/hpp-doc/api/hpp-core/doxygen-html/hpp-core.doxytag:https://jmirabel.github.io/hpp-doc/api/hpp-core/doxygen-html/" xlink:href="https://jmirabel.github.io/hpp-doc/api/hpp-core/doxygen-html/a00001.html" target="_top" xlink:title="hpp/corbaserver/fwd.hh">
<polygon fill="white" stroke="black" points="181.5,-56.5 181.5,-75.5 300.5,-75.5 300.5,-56.5 181.5,-56.5"/>
<text text-anchor="middle" x="241" y="-63.5" font-family="Helvetica,sans-Serif" font-size="10.00">hpp/corbaserver/fwd.hh</text>
</a>
</g>
</g>
<!-- Node3&#45;&gt;Node6 -->
<g id="edge5" class="edge"><title>Node3&#45;&gt;Node6</title>
<path fill="none" stroke="midnightblue" d="M223.451,-112.781C226.621,-104.512 230.648,-94.006 234.044,-85.1448"/>
<polygon fill="midnightblue" stroke="midnightblue" points="237.342,-86.3208 237.653,-75.7305 230.806,-83.8152 237.342,-86.3208"/>
</g>
<!-- Node7 -->
<g id="node7" class="node"><title>Node7</title>
<g id="a_node7"><a doxygen="https://jmirabel.github.io/hpp-doc/api/hpp-corbaserver/doxygen-html/hpp-corbaserver.doxytag:https://jmirabel.github.io/hpp-doc/api/hpp-corbaserver/doxygen-html/" xlink:href="https://jmirabel.github.io/hpp-doc/api/hpp-corbaserver/doxygen-html/a00001.html" target="_top" xlink:title="hpp/corbaserver/fwd.hh">
<polygon fill="white" stroke="black" points="318.5,-56.5 318.5,-75.5 437.5,-75.5 437.5,-56.5 318.5,-56.5"/>
<text text-anchor="middle" x="378" y="-63.5" font-family="Helvetica,sans-Serif" font-size="10.00">hpp/corbaserver/fwd.hh</text>
</a>
</g>
</g>
<!-- Node3&#45;&gt;Node7 -->
<g id="edge6" class="edge"><title>Node3&#45;&gt;Node7</title>
<path fill="none" stroke="midnightblue" d="M255.513,-112.933C282.868,-102.674 319.561,-88.9148 345.635,-79.1369"/>
<polygon fill="midnightblue" stroke="midnightblue" points="346.932,-82.3885 355.067,-75.6 344.474,-75.8342 346.932,-82.3885"/>
</g>
<!-- Node5 -->
<g id="node5" class="node"><title>Node5</title>
<g id="a_node5"><a doxygen="https://jmirabel.github.io/hpp-doc/api/hpp-manipulation/doxygen-html/hpp-manipulation.doxytag:https://jmirabel.github.io/hpp-doc/api/hpp-manipulation/doxygen-html/" xlink:href="https://jmirabel.github.io/hpp-doc/api/hpp-manipulation/doxygen-html/a00001.html" target="_top" xlink:title="hpp/manipulation/fwd.hh">
<polygon fill="white" stroke="black" points="43,-0.5 43,-19.5 165,-19.5 165,-0.5 43,-0.5"/>
<text text-anchor="middle" x="104" y="-7.5" font-family="Helvetica,sans-Serif" font-size="10.00">hpp/manipulation/fwd.hh</text>
</a>
</g>
</g>
<!-- Node4&#45;&gt;Node5 -->
<g id="edge4" class="edge"><title>Node4&#45;&gt;Node5</title>
<path fill="none" stroke="midnightblue" d="M104,-56.083C104,-49.0059 104,-38.8611 104,-29.9865"/>
<polygon fill="midnightblue" stroke="midnightblue" points="107.5,-29.751 104,-19.7511 100.5,-29.7511 107.5,-29.751"/>
</g>
</g>
</svg>
