<?xml version="1.0" encoding="UTF-8" standalone="no"?>
<!DOCTYPE svg PUBLIC "-//W3C//DTD SVG 1.1//EN"
 "http://www.w3.org/Graphics/SVG/1.1/DTD/svg11.dtd">
<!-- Generated by graphviz version 2.36.0 (20140111.2315)
 -->
<!-- Title: graph.idl Pages: 1 -->
<svg width="310pt" height="96pt"
 viewBox="0.00 0.00 310.00 96.00" xmlns="http://www.w3.org/2000/svg" xmlns:xlink="http://www.w3.org/1999/xlink">
<g id="graph0" class="graph" transform="scale(1 1) rotate(0) translate(4 92)">
<title>graph.idl</title>
<polygon fill="white" stroke="none" points="-4,4 -4,-92 306,-92 306,4 -4,4"/>
<!-- Node1 -->
<g id="node1" class="node"><title>Node1</title>
<polygon fill="#bfbfbf" stroke="black" points="125.5,-68.5 125.5,-87.5 178.5,-87.5 178.5,-68.5 125.5,-68.5"/>
<text text-anchor="middle" x="152" y="-75.5" font-family="Helvetica,sans-Serif" font-size="10.00">graph.idl</text>
</g>
<!-- Node2 -->
<g id="node2" class="node"><title>Node2</title>
<g id="a_node2"><a xlink:href="a00022.html" target="_top" xlink:title="hpp/corbaserver/manipulation\l/gcommon.idl">
<polygon fill="white" stroke="black" points="0,-1 0,-31 144,-31 144,-1 0,-1"/>
<text text-anchor="start" x="8" y="-19" font-family="Helvetica,sans-Serif" font-size="10.00">hpp/corbaserver/manipulation</text>
<text text-anchor="middle" x="72" y="-8" font-family="Helvetica,sans-Serif" font-size="10.00">/gcommon.idl</text>
</a>
</g>
</g>
<!-- Node1&#45;&gt;Node2 -->
<g id="edge1" class="edge"><title>Node1&#45;&gt;Node2</title>
<path fill="none" stroke="midnightblue" d="M140.538,-68.4035C129.703,-60.2773 113.039,-47.7794 98.8559,-37.1419"/>
<polygon fill="midnightblue" stroke="midnightblue" points="100.954,-34.3408 90.8544,-31.1408 96.7544,-39.9409 100.954,-34.3408"/>
</g>
<!-- Node3 -->
<g id="node3" class="node"><title>Node3</title>
<g id="a_node3"><a doxygen="https://jmirabel.github.io/hpp-doc/api/hpp-corbaserver/doxygen-html/hpp-corbaserver.doxytag:https://jmirabel.github.io/hpp-doc/api/hpp-corbaserver/doxygen-html/" xlink:href="https://jmirabel.github.io/hpp-doc/api/hpp-corbaserver/doxygen-html/a00017.html" target="_top" xlink:title="hpp/corbaserver/common.idl">
<polygon fill="white" stroke="black" points="162,-6.5 162,-25.5 302,-25.5 302,-6.5 162,-6.5"/>
<text text-anchor="middle" x="232" y="-13.5" font-family="Helvetica,sans-Serif" font-size="10.00">hpp/corbaserver/common.idl</text>
</a>
</g>
</g>
<!-- Node1&#45;&gt;Node3 -->
<g id="edge2" class="edge"><title>Node1&#45;&gt;Node3</title>
<path fill="none" stroke="midnightblue" d="M163.462,-68.4035C176.175,-58.8688 196.913,-43.3154 212.253,-31.8106"/>
<polygon fill="midnightblue" stroke="midnightblue" points="214.659,-34.3806 220.559,-25.5806 210.459,-28.7806 214.659,-34.3806"/>
</g>
</g>
</svg>
