<?xml version="1.0" encoding="UTF-8" standalone="no"?>
<!DOCTYPE svg PUBLIC "-//W3C//DTD SVG 1.1//EN"
 "http://www.w3.org/Graphics/SVG/1.1/DTD/svg11.dtd">
<!-- Generated by graphviz version 2.36.0 (20140111.2315)
 -->
<!-- Title: config.hh Pages: 1 -->
<svg width="135pt" height="84pt"
 viewBox="0.00 0.00 135.00 84.00" xmlns="http://www.w3.org/2000/svg" xmlns:xlink="http://www.w3.org/1999/xlink">
<g id="graph0" class="graph" transform="scale(1 1) rotate(0) translate(4 80)">
<title>config.hh</title>
<polygon fill="white" stroke="none" points="-4,4 -4,-80 131,-80 131,4 -4,4"/>
<!-- Node1 -->
<g id="node1" class="node"><title>Node1</title>
<polygon fill="#bfbfbf" stroke="black" points="34,-56.5 34,-75.5 90,-75.5 90,-56.5 34,-56.5"/>
<text text-anchor="middle" x="62" y="-63.5" font-family="Helvetica,sans-Serif" font-size="10.00">config.hh</text>
</g>
<!-- Node2 -->
<g id="node2" class="node"><title>Node2</title>
<g id="a_node2"><a xlink:href="a00018.html" target="_top" xlink:title="client.hh">
<polygon fill="white" stroke="black" points="-0.5,-0.5 -0.5,-19.5 52.5,-19.5 52.5,-0.5 -0.5,-0.5"/>
<text text-anchor="middle" x="26" y="-7.5" font-family="Helvetica,sans-Serif" font-size="10.00">client.hh</text>
</a>
</g>
</g>
<!-- Node1&#45;&gt;Node2 -->
<g id="edge1" class="edge"><title>Node1&#45;&gt;Node2</title>
<path fill="none" stroke="midnightblue" d="M50.3771,-47.5656C44.1832,-38.2747 36.8323,-27.2484 31.8341,-19.7511"/>
<polygon fill="midnightblue" stroke="midnightblue" points="47.5961,-49.7039 56.0553,-56.083 53.4205,-45.821 47.5961,-49.7039"/>
</g>
<!-- Node3 -->
<g id="node3" class="node"><title>Node3</title>
<g id="a_node3"><a xlink:href="a00002.html" target="_top" xlink:title="server.hh">
<polygon fill="white" stroke="black" points="70.5,-0.5 70.5,-19.5 127.5,-19.5 127.5,-0.5 70.5,-0.5"/>
<text text-anchor="middle" x="99" y="-7.5" font-family="Helvetica,sans-Serif" font-size="10.00">server.hh</text>
</a>
</g>
</g>
<!-- Node1&#45;&gt;Node3 -->
<g id="edge2" class="edge"><title>Node1&#45;&gt;Node3</title>
<path fill="none" stroke="midnightblue" d="M73.9458,-47.5656C80.3117,-38.2747 87.8668,-27.2484 93.0039,-19.7511"/>
<polygon fill="midnightblue" stroke="midnightblue" points="70.8749,-45.8553 68.1098,-56.083 76.6494,-49.812 70.8749,-45.8553"/>
</g>
</g>
</svg>
