<?xml version="1.0" encoding="UTF-8" standalone="no"?>
<!DOCTYPE svg PUBLIC "-//W3C//DTD SVG 1.1//EN"
 "http://www.w3.org/Graphics/SVG/1.1/DTD/svg11.dtd">
<!-- Generated by graphviz version 2.36.0 (20140111.2315)
 -->
<!-- Title: hpp Pages: 1 -->
<svg width="196pt" height="159pt"
 viewBox="0.00 0.00 196.00 159.00" xmlns="http://www.w3.org/2000/svg" xmlns:xlink="http://www.w3.org/1999/xlink">
<g id="graph0" class="graph" transform="scale(1 1) rotate(0) translate(4 155)">
<title>hpp</title>
<polygon fill="white" stroke="none" points="-4,4 -4,-155 192,-155 192,4 -4,4"/>
<g id="clust1" class="cluster"><title>clusterdir_d44c64559bbebec7f509842c48db8b23</title>
<g id="a_clust1"><a xlink:href="dir_d44c64559bbebec7f509842c48db8b23.html" target="_top" xlink:title="include">
<polygon fill="#ddddee" stroke="black" points="8,-56 8,-143 180,-143 180,-56 8,-56"/>
<text text-anchor="middle" x="94" y="-131" font-family="Helvetica,sans-Serif" font-size="10.00">include</text>
</a>
</g>
</g>
<g id="clust2" class="cluster"><title>clusterdir_766a2b2ecef16448f861b8cf84e3a157</title>
<g id="a_clust2"><a xlink:href="dir_766a2b2ecef16448f861b8cf84e3a157.html" target="_top">
<polygon fill="#eeeeff" stroke="black" points="16,-64 16,-116 172,-116 172,-64 16,-64"/>
</a>
</g>
</g>
<!-- dir_766a2b2ecef16448f861b8cf84e3a157 -->
<g id="node1" class="node"><title>dir_766a2b2ecef16448f861b8cf84e3a157</title>
<text text-anchor="middle" x="137" y="-87.5" font-family="Helvetica,sans-Serif" font-size="10.00">hpp</text>
</g>
<!-- dir_b4d1a845b7d187eff587f84b36cf4f45 -->
<g id="node2" class="node"><title>dir_b4d1a845b7d187eff587f84b36cf4f45</title>
<g id="a_node2"><a xlink:href="dir_b4d1a845b7d187eff587f84b36cf4f45.html" target="_top" xlink:title="corbaserver">
<polygon fill="white" stroke="red" points="92,-108 24,-108 24,-72 92,-72 92,-108"/>
<text text-anchor="middle" x="58" y="-87.5" font-family="Helvetica,sans-Serif" font-size="10.00">corbaserver</text>
</a>
</g>
</g>
<!-- dir_95dd6a66316a33732dfb9f95216a9394 -->
<g id="node3" class="node"><title>dir_95dd6a66316a33732dfb9f95216a9394</title>
<g id="a_node3"><a xlink:href="dir_95dd6a66316a33732dfb9f95216a9394.html" target="_top" xlink:title="build&#45;rel">
<polygon fill="white" stroke="red" points="85,-36 31,-36 31,-0 85,-0 85,-36"/>
<text text-anchor="middle" x="58" y="-15.5" font-family="Helvetica,sans-Serif" font-size="10.00">build&#45;rel</text>
</a>
</g>
</g>
<!-- dir_b4d1a845b7d187eff587f84b36cf4f45&#45;&gt;dir_95dd6a66316a33732dfb9f95216a9394 -->
<g id="edge1" class="edge"><title>dir_b4d1a845b7d187eff587f84b36cf4f45&#45;&gt;dir_95dd6a66316a33732dfb9f95216a9394</title>
<path fill="none" stroke="black" d="M58,-71.6966C58,-63.9827 58,-54.7125 58,-46.1124"/>
<polygon fill="black" stroke="black" points="61.5001,-46.1043 58,-36.1043 54.5001,-46.1044 61.5001,-46.1043"/>
<g id="a_edge1&#45;headlabel"><a xlink:href="dir_000002_000004.html" target="_top" xlink:title="2">
<text text-anchor="middle" x="64.3393" y="-47.199" font-family="Helvetica,sans-Serif" font-size="10.00">2</text>
</a>
</g>
</g>
</g>
</svg>
