<?xml version="1.0" encoding="UTF-8" standalone="no"?>
<!DOCTYPE svg PUBLIC "-//W3C//DTD SVG 1.1//EN"
 "http://www.w3.org/Graphics/SVG/1.1/DTD/svg11.dtd">
<!-- Generated by graphviz version 2.36.0 (20140111.2315)
 -->
<!-- Title: manipulation Pages: 1 -->
<svg width="112pt" height="151pt"
 viewBox="0.00 0.00 112.00 151.00" xmlns="http://www.w3.org/2000/svg" xmlns:xlink="http://www.w3.org/1999/xlink">
<g id="graph0" class="graph" transform="scale(1 1) rotate(0) translate(4 147)">
<title>manipulation</title>
<polygon fill="white" stroke="none" points="-4,4 -4,-147 108,-147 108,4 -4,4"/>
<g id="clust1" class="cluster"><title>clusterdir_b4d1a845b7d187eff587f84b36cf4f45</title>
<g id="a_clust1"><a xlink:href="dir_b4d1a845b7d187eff587f84b36cf4f45.html" target="_top" xlink:title="corbaserver">
<polygon fill="#ddddee" stroke="black" points="8,-64 8,-135 96,-135 96,-64 8,-64"/>
<text text-anchor="middle" x="52" y="-123" font-family="Helvetica,sans-Serif" font-size="10.00">corbaserver</text>
</a>
</g>
</g>
<!-- dir_586fae9859b8f60d97ce3dfdbfc57744 -->
<g id="node1" class="node"><title>dir_586fae9859b8f60d97ce3dfdbfc57744</title>
<g id="a_node1"><a xlink:href="dir_586fae9859b8f60d97ce3dfdbfc57744.html" target="_top" xlink:title="manipulation">
<polygon fill="#eeeeff" stroke="black" points="87.25,-108 16.75,-108 16.75,-72 87.25,-72 87.25,-108"/>
<text text-anchor="middle" x="52" y="-87.5" font-family="Helvetica,sans-Serif" font-size="10.00">manipulation</text>
</a>
</g>
</g>
<!-- dir_95dd6a66316a33732dfb9f95216a9394 -->
<g id="node2" class="node"><title>dir_95dd6a66316a33732dfb9f95216a9394</title>
<g id="a_node2"><a xlink:href="dir_95dd6a66316a33732dfb9f95216a9394.html" target="_top" xlink:title="build&#45;rel">
<polygon fill="white" stroke="red" points="79,-36 25,-36 25,-0 79,-0 79,-36"/>
<text text-anchor="middle" x="52" y="-15.5" font-family="Helvetica,sans-Serif" font-size="10.00">build&#45;rel</text>
</a>
</g>
</g>
<!-- dir_586fae9859b8f60d97ce3dfdbfc57744&#45;&gt;dir_95dd6a66316a33732dfb9f95216a9394 -->
<g id="edge1" class="edge"><title>dir_586fae9859b8f60d97ce3dfdbfc57744&#45;&gt;dir_95dd6a66316a33732dfb9f95216a9394</title>
<path fill="none" stroke="black" d="M52,-71.6966C52,-63.9827 52,-54.7125 52,-46.1124"/>
<polygon fill="black" stroke="black" points="55.5001,-46.1043 52,-36.1043 48.5001,-46.1044 55.5001,-46.1043"/>
<g id="a_edge1&#45;headlabel"><a xlink:href="dir_000003_000004.html" target="_top" xlink:title="2">
<text text-anchor="middle" x="58.3393" y="-47.199" font-family="Helvetica,sans-Serif" font-size="10.00">2</text>
</a>
</g>
</g>
</g>
</svg>
