<?xml version="1.0" encoding="UTF-8" standalone="no"?>
<!DOCTYPE svg PUBLIC "-//W3C//DTD SVG 1.1//EN"
 "http://www.w3.org/Graphics/SVG/1.1/DTD/svg11.dtd">
<!-- Generated by graphviz version 2.36.0 (20140111.2315)
 -->
<!-- Title: Graphical Class Hierarchy Pages: 1 -->
<svg width="442pt" height="180pt"
 viewBox="0.00 0.00 442.00 180.00" xmlns="http://www.w3.org/2000/svg" xmlns:xlink="http://www.w3.org/1999/xlink">
<g id="graph0" class="graph" transform="scale(1 1) rotate(0) translate(4 176)">
<title>Graphical Class Hierarchy</title>
<polygon fill="white" stroke="none" points="-4,4 -4,-176 438,-176 438,4 -4,4"/>
<!-- Node1 -->
<g id="node1" class="node"><title>Node1</title>
<polygon fill="white" stroke="#bfbfbf" points="0.5,-73.5 0.5,-92.5 43.5,-92.5 43.5,-73.5 0.5,-73.5"/>
<text text-anchor="middle" x="22" y="-80.5" font-family="Helvetica,sans-Serif" font-size="10.00">object</text>
</g>
<!-- Node2 -->
<g id="node2" class="node"><title>Node2</title>
<g id="a_node2"><a xlink:href="a00006.html" target="_top" xlink:title="Association of a numerical constraint with the associated passive joints. ">
<polygon fill="white" stroke="black" points="80.5,-142 80.5,-172 253.5,-172 253.5,-142 80.5,-142"/>
<text text-anchor="start" x="88.5" y="-160" font-family="Helvetica,sans-Serif" font-size="10.00">manipulation.constraint</text>
<text text-anchor="middle" x="167" y="-149" font-family="Helvetica,sans-Serif" font-size="10.00">_graph.ConstraintAndPassiveJoints</text>
</a>
</g>
</g>
<!-- Node1&#45;&gt;Node2 -->
<g id="edge1" class="edge"><title>Node1&#45;&gt;Node2</title>
<path fill="none" stroke="midnightblue" d="M39.0518,-100.133C49.7559,-110.66 64.639,-123.678 80,-132 86.9724,-135.777 94.5799,-139.042 102.293,-141.848"/>
<polygon fill="midnightblue" stroke="midnightblue" points="41.2454,-97.3713 31.7421,-92.6875 36.2503,-102.275 41.2454,-97.3713"/>
</g>
<!-- Node3 -->
<g id="node3" class="node"><title>Node3</title>
<g id="a_node3"><a xlink:href="a00007.html" target="_top" xlink:title="This class wraps the Corba client to the server implemented by libhpp&#45;manipulation&#45;corba.so. ">
<polygon fill="white" stroke="black" points="107,-93 107,-123 227,-123 227,-93 107,-93"/>
<text text-anchor="start" x="115" y="-111" font-family="Helvetica,sans-Serif" font-size="10.00">manipulation.constraint</text>
<text text-anchor="middle" x="167" y="-100" font-family="Helvetica,sans-Serif" font-size="10.00">_graph.ConstraintGraph</text>
</a>
</g>
</g>
<!-- Node1&#45;&gt;Node3 -->
<g id="edge2" class="edge"><title>Node1&#45;&gt;Node3</title>
<path fill="none" stroke="midnightblue" d="M53.8477,-88.393C69.3376,-91.101 88.6396,-94.4755 106.841,-97.6576"/>
<polygon fill="midnightblue" stroke="midnightblue" points="54.2468,-84.9097 43.7934,-86.6352 53.0413,-91.8051 54.2468,-84.9097"/>
</g>
<!-- Node4 -->
<g id="node4" class="node"><title>Node4</title>
<g id="a_node4"><a xlink:href="a00016.html" target="_top" xlink:title="Definition of a manipulation planning problem. ">
<polygon fill="white" stroke="black" points="109.5,-44 109.5,-74 224.5,-74 224.5,-44 109.5,-44"/>
<text text-anchor="start" x="117.5" y="-62" font-family="Helvetica,sans-Serif" font-size="10.00">manipulation.problem</text>
<text text-anchor="middle" x="167" y="-51" font-family="Helvetica,sans-Serif" font-size="10.00">_solver.ProblemSolver</text>
</a>
</g>
</g>
<!-- Node1&#45;&gt;Node4 -->
<g id="edge3" class="edge"><title>Node1&#45;&gt;Node4</title>
<path fill="none" stroke="midnightblue" d="M53.7851,-77.8333C69.9978,-75.1123 90.3995,-71.6882 109.346,-68.5083"/>
<polygon fill="midnightblue" stroke="midnightblue" points="53.0762,-74.4032 43.7934,-79.5102 54.2348,-81.3067 53.0762,-74.4032"/>
</g>
<!-- Node5 -->
<g id="node5" class="node"><title>Node5</title>
<g id="a_node5"><a xlink:href="a00018.html" target="_top" xlink:title="Load and handle a composite robot for manipulation planning. ">
<polygon fill="white" stroke="black" points="104.5,-5.5 104.5,-24.5 229.5,-24.5 229.5,-5.5 104.5,-5.5"/>
<text text-anchor="middle" x="167" y="-12.5" font-family="Helvetica,sans-Serif" font-size="10.00">manipulation.robot.Robot</text>
</a>
</g>
</g>
<!-- Node1&#45;&gt;Node5 -->
<g id="edge4" class="edge"><title>Node1&#45;&gt;Node5</title>
<path fill="none" stroke="midnightblue" d="M38.9658,-65.9452C49.6357,-55.525 64.513,-42.7541 80,-35 88.6354,-30.6764 98.2288,-27.2696 107.786,-24.5902"/>
<polygon fill="midnightblue" stroke="midnightblue" points="36.2116,-63.7535 31.6861,-73.3332 41.1978,-68.6666 36.2116,-63.7535"/>
</g>
<!-- Node6 -->
<g id="node6" class="node"><title>Node6</title>
<g id="a_node6"><a xlink:href="a00014.html" target="_top" xlink:title="manipulation.robot.Humanoid\lRobot">
<polygon fill="white" stroke="black" points="290.5,-0 290.5,-30 433.5,-30 433.5,-0 290.5,-0"/>
<text text-anchor="start" x="298.5" y="-18" font-family="Helvetica,sans-Serif" font-size="10.00">manipulation.robot.Humanoid</text>
<text text-anchor="middle" x="362" y="-7" font-family="Helvetica,sans-Serif" font-size="10.00">Robot</text>
</a>
</g>
</g>
<!-- Node5&#45;&gt;Node6 -->
<g id="edge5" class="edge"><title>Node5&#45;&gt;Node6</title>
<path fill="none" stroke="midnightblue" d="M239.723,-15C256.233,-15 273.78,-15 290.248,-15"/>
<polygon fill="midnightblue" stroke="midnightblue" points="239.597,-11.5001 229.597,-15 239.597,-18.5001 239.597,-11.5001"/>
</g>
</g>
</svg>
