<?xml version="1.0" encoding="UTF-8" standalone="no"?>
<!DOCTYPE svg PUBLIC "-//W3C//DTD SVG 1.1//EN"
 "http://www.w3.org/Graphics/SVG/1.1/DTD/svg11.dtd">
<!-- Generated by graphviz version 2.36.0 (20140111.2315)
 -->
<!-- Title: path&#45;vector.hh Pages: 1 -->
<svg width="867pt" height="320pt"
 viewBox="0.00 0.00 867.00 320.00" xmlns="http://www.w3.org/2000/svg" xmlns:xlink="http://www.w3.org/1999/xlink">
<g id="graph0" class="graph" transform="scale(1 1) rotate(0) translate(4 316)">
<title>path&#45;vector.hh</title>
<polygon fill="white" stroke="none" points="-4,4 -4,-316 863,-316 863,4 -4,4"/>
<!-- Node1 -->
<g id="node1" class="node"><title>Node1</title>
<polygon fill="#bfbfbf" stroke="black" points="417.5,-292.5 417.5,-311.5 496.5,-311.5 496.5,-292.5 417.5,-292.5"/>
<text text-anchor="middle" x="457" y="-299.5" font-family="Helvetica,sans-Serif" font-size="10.00">path&#45;vector.hh</text>
</g>
<!-- Node2 -->
<g id="node2" class="node"><title>Node2</title>
<g id="a_node2"><a doxygen="https://jmirabel.github.io/hpp-doc/api/hpp-model/doxygen-html/hpp-model.doxytag:https://jmirabel.github.io/hpp-doc/api/hpp-model/doxygen-html/" xlink:href="https://jmirabel.github.io/hpp-doc/api/hpp-model/doxygen-html/a00031.html" target="_top" xlink:title="hpp/model/device.hh">
<polygon fill="white" stroke="black" points="245.5,-236.5 245.5,-255.5 352.5,-255.5 352.5,-236.5 245.5,-236.5"/>
<text text-anchor="middle" x="299" y="-243.5" font-family="Helvetica,sans-Serif" font-size="10.00">hpp/model/device.hh</text>
</a>
</g>
</g>
<!-- Node1&#45;&gt;Node2 -->
<g id="edge1" class="edge"><title>Node1&#45;&gt;Node2</title>
<path fill="none" stroke="midnightblue" d="M431.964,-292.444C405.384,-283.359 363.191,-268.939 333.477,-258.783"/>
<polygon fill="midnightblue" stroke="midnightblue" points="334.513,-255.439 323.918,-255.516 332.249,-262.062 334.513,-255.439"/>
</g>
<!-- Node7 -->
<g id="node7" class="node"><title>Node7</title>
<g id="a_node7"><a xlink:href="a00001.html" target="_top" xlink:title="hpp/core/fwd.hh">
<polygon fill="white" stroke="black" points="416,-56.5 416,-75.5 502,-75.5 502,-56.5 416,-56.5"/>
<text text-anchor="middle" x="459" y="-63.5" font-family="Helvetica,sans-Serif" font-size="10.00">hpp/core/fwd.hh</text>
</a>
</g>
</g>
<!-- Node1&#45;&gt;Node7 -->
<g id="edge9" class="edge"><title>Node1&#45;&gt;Node7</title>
<path fill="none" stroke="midnightblue" d="M457.074,-292.394C457.363,-258.573 458.425,-134.281 458.836,-86.1838"/>
<polygon fill="midnightblue" stroke="midnightblue" points="462.338,-85.9635 458.924,-75.9339 455.338,-85.9036 462.338,-85.9635"/>
</g>
<!-- Node14 -->
<g id="node14" class="node"><title>Node14</title>
<g id="a_node14"><a xlink:href="a00091.html" target="_top" xlink:title="hpp/core/path.hh">
<polygon fill="white" stroke="black" points="550.5,-236.5 550.5,-255.5 639.5,-255.5 639.5,-236.5 550.5,-236.5"/>
<text text-anchor="middle" x="595" y="-243.5" font-family="Helvetica,sans-Serif" font-size="10.00">hpp/core/path.hh</text>
</a>
</g>
</g>
<!-- Node1&#45;&gt;Node14 -->
<g id="edge16" class="edge"><title>Node1&#45;&gt;Node14</title>
<path fill="none" stroke="midnightblue" d="M478.867,-292.444C501.779,-283.478 537.975,-269.314 563.866,-259.183"/>
<polygon fill="midnightblue" stroke="midnightblue" points="565.199,-262.42 573.236,-255.516 562.648,-255.901 565.199,-262.42"/>
</g>
<!-- Node3 -->
<g id="node3" class="node"><title>Node3</title>
<g id="a_node3"><a doxygen="https://jmirabel.github.io/hpp-doc/api/hpp-model/doxygen-html/hpp-model.doxytag:https://jmirabel.github.io/hpp-doc/api/hpp-model/doxygen-html/" xlink:href="https://jmirabel.github.io/hpp-doc/api/hpp-model/doxygen-html/a00035.html" target="_top" xlink:title="hpp/model/fwd.hh">
<polygon fill="white" stroke="black" points="203,-112.5 203,-131.5 297,-131.5 297,-112.5 203,-112.5"/>
<text text-anchor="middle" x="250" y="-119.5" font-family="Helvetica,sans-Serif" font-size="10.00">hpp/model/fwd.hh</text>
</a>
</g>
</g>
<!-- Node2&#45;&gt;Node3 -->
<g id="edge2" class="edge"><title>Node2&#45;&gt;Node3</title>
<path fill="none" stroke="midnightblue" d="M297.646,-236.154C295.2,-221.514 289.318,-191.527 279,-168 274.715,-158.229 268.441,-148.172 262.824,-140.051"/>
<polygon fill="midnightblue" stroke="midnightblue" points="265.585,-137.894 256.903,-131.822 259.903,-141.983 265.585,-137.894"/>
</g>
<!-- Node4 -->
<g id="node4" class="node"><title>Node4</title>
<g id="a_node4"><a doxygen="https://jmirabel.github.io/hpp-doc/api/hpp-model/doxygen-html/hpp-model.doxytag:https://jmirabel.github.io/hpp-doc/api/hpp-model/doxygen-html/" xlink:href="https://jmirabel.github.io/hpp-doc/api/hpp-model/doxygen-html/a00032.html" target="_top" xlink:title="hpp/model/distance\l&#45;result.hh">
<polygon fill="white" stroke="black" points="327.5,-169 327.5,-199 428.5,-199 428.5,-169 327.5,-169"/>
<text text-anchor="start" x="335.5" y="-187" font-family="Helvetica,sans-Serif" font-size="10.00">hpp/model/distance</text>
<text text-anchor="middle" x="378" y="-176" font-family="Helvetica,sans-Serif" font-size="10.00">&#45;result.hh</text>
</a>
</g>
</g>
<!-- Node2&#45;&gt;Node4 -->
<g id="edge3" class="edge"><title>Node2&#45;&gt;Node4</title>
<path fill="none" stroke="midnightblue" d="M310.319,-236.403C320.918,-228.353 337.167,-216.013 351.086,-205.441"/>
<polygon fill="midnightblue" stroke="midnightblue" points="353.535,-207.976 359.381,-199.141 349.301,-202.402 353.535,-207.976"/>
</g>
<!-- Node5 -->
<g id="node5" class="node"><title>Node5</title>
<g id="a_node5"><a doxygen="https://jmirabel.github.io/hpp-doc/api/hpp-model/doxygen-html/hpp-model.doxytag:https://jmirabel.github.io/hpp-doc/api/hpp-model/doxygen-html/" xlink:href="https://jmirabel.github.io/hpp-doc/api/hpp-model/doxygen-html/a00033.html" target="_top" xlink:title="hpp/model/extra&#45;config\l&#45;space.hh">
<polygon fill="white" stroke="black" points="-1,-169 -1,-199 115,-199 115,-169 -1,-169"/>
<text text-anchor="start" x="7" y="-187" font-family="Helvetica,sans-Serif" font-size="10.00">hpp/model/extra&#45;config</text>
<text text-anchor="middle" x="57" y="-176" font-family="Helvetica,sans-Serif" font-size="10.00">&#45;space.hh</text>
</a>
</g>
</g>
<!-- Node2&#45;&gt;Node5 -->
<g id="edge5" class="edge"><title>Node2&#45;&gt;Node5</title>
<path fill="none" stroke="midnightblue" d="M264.584,-236.467C227.991,-227.395 169.212,-212.821 123.526,-201.494"/>
<polygon fill="midnightblue" stroke="midnightblue" points="124.243,-198.066 113.695,-199.057 122.559,-204.86 124.243,-198.066"/>
</g>
<!-- Node6 -->
<g id="node6" class="node"><title>Node6</title>
<g id="a_node6"><a doxygen="https://jmirabel.github.io/hpp-doc/api/hpp-model/doxygen-html/hpp-model.doxytag:https://jmirabel.github.io/hpp-doc/api/hpp-model/doxygen-html/" xlink:href="https://jmirabel.github.io/hpp-doc/api/hpp-model/doxygen-html/a00042.html" target="_top" xlink:title="hpp/model/object&#45;iterator.hh">
<polygon fill="white" stroke="black" points="133.5,-174.5 133.5,-193.5 270.5,-193.5 270.5,-174.5 133.5,-174.5"/>
<text text-anchor="middle" x="202" y="-181.5" font-family="Helvetica,sans-Serif" font-size="10.00">hpp/model/object&#45;iterator.hh</text>
</a>
</g>
</g>
<!-- Node2&#45;&gt;Node6 -->
<g id="edge7" class="edge"><title>Node2&#45;&gt;Node6</title>
<path fill="none" stroke="midnightblue" d="M285.102,-236.403C269.256,-226.601 243.126,-210.439 224.395,-198.853"/>
<polygon fill="midnightblue" stroke="midnightblue" points="226.218,-195.865 215.872,-193.581 222.535,-201.818 226.218,-195.865"/>
</g>
<!-- Node4&#45;&gt;Node3 -->
<g id="edge4" class="edge"><title>Node4&#45;&gt;Node3</title>
<path fill="none" stroke="midnightblue" d="M347.99,-168.933C326.684,-158.946 298.298,-145.64 277.564,-135.92"/>
<polygon fill="midnightblue" stroke="midnightblue" points="278.887,-132.675 268.347,-131.6 275.916,-139.014 278.887,-132.675"/>
</g>
<!-- Node5&#45;&gt;Node3 -->
<g id="edge6" class="edge"><title>Node5&#45;&gt;Node3</title>
<path fill="none" stroke="midnightblue" d="M102.25,-168.933C135.929,-158.462 181.342,-144.345 212.893,-134.536"/>
<polygon fill="midnightblue" stroke="midnightblue" points="214.107,-137.824 222.618,-131.513 212.029,-131.139 214.107,-137.824"/>
</g>
<!-- Node6&#45;&gt;Node3 -->
<g id="edge8" class="edge"><title>Node6&#45;&gt;Node3</title>
<path fill="none" stroke="midnightblue" d="M208.877,-174.403C216.149,-165.314 227.795,-150.756 236.841,-139.449"/>
<polygon fill="midnightblue" stroke="midnightblue" points="239.622,-141.576 243.136,-131.581 234.155,-137.203 239.622,-141.576"/>
</g>
<!-- Node8 -->
<g id="node8" class="node"><title>Node8</title>
<polygon fill="white" stroke="#bfbfbf" points="535,-0.5 535,-19.5 579,-19.5 579,-0.5 535,-0.5"/>
<text text-anchor="middle" x="557" y="-7.5" font-family="Helvetica,sans-Serif" font-size="10.00">vector</text>
</g>
<!-- Node7&#45;&gt;Node8 -->
<g id="edge10" class="edge"><title>Node7&#45;&gt;Node8</title>
<path fill="none" stroke="midnightblue" d="M474.745,-56.324C490.319,-47.7428 514.377,-34.486 532.459,-24.5224"/>
<polygon fill="midnightblue" stroke="midnightblue" points="534.224,-27.546 541.294,-19.6545 530.846,-21.4152 534.224,-27.546"/>
</g>
<!-- Node9 -->
<g id="node9" class="node"><title>Node9</title>
<polygon fill="white" stroke="#bfbfbf" points="597.5,-0.5 597.5,-19.5 640.5,-19.5 640.5,-0.5 597.5,-0.5"/>
<text text-anchor="middle" x="619" y="-7.5" font-family="Helvetica,sans-Serif" font-size="10.00">deque</text>
</g>
<!-- Node7&#45;&gt;Node9 -->
<g id="edge11" class="edge"><title>Node7&#45;&gt;Node9</title>
<path fill="none" stroke="midnightblue" d="M484.352,-56.4435C512.378,-46.985 557.542,-31.7421 587.738,-21.551"/>
<polygon fill="midnightblue" stroke="midnightblue" points="589.002,-24.8183 597.358,-18.3042 586.764,-18.1858 589.002,-24.8183"/>
</g>
<!-- Node10 -->
<g id="node10" class="node"><title>Node10</title>
<polygon fill="white" stroke="#bfbfbf" points="193.5,-0.5 193.5,-19.5 222.5,-19.5 222.5,-0.5 193.5,-0.5"/>
<text text-anchor="middle" x="208" y="-7.5" font-family="Helvetica,sans-Serif" font-size="10.00">list</text>
</g>
<!-- Node7&#45;&gt;Node10 -->
<g id="edge12" class="edge"><title>Node7&#45;&gt;Node10</title>
<path fill="none" stroke="midnightblue" d="M415.83,-58.5949C371.861,-51.5955 301.65,-39.1105 232.364,-19.6919"/>
<polygon fill="midnightblue" stroke="midnightblue" points="233.173,-16.2831 222.597,-16.9056 231.253,-23.0146 233.173,-16.2831"/>
</g>
<!-- Node11 -->
<g id="node11" class="node"><title>Node11</title>
<polygon fill="white" stroke="#bfbfbf" points="241,-0.5 241,-19.5 271,-19.5 271,-0.5 241,-0.5"/>
<text text-anchor="middle" x="256" y="-7.5" font-family="Helvetica,sans-Serif" font-size="10.00">set</text>
</g>
<!-- Node7&#45;&gt;Node11 -->
<g id="edge13" class="edge"><title>Node7&#45;&gt;Node11</title>
<path fill="none" stroke="midnightblue" d="M419.538,-56.4236C385.099,-48.6403 333.651,-36.2965 280.697,-19.9594"/>
<polygon fill="midnightblue" stroke="midnightblue" points="281.735,-16.6168 271.146,-16.9737 279.646,-23.298 281.735,-16.6168"/>
</g>
<!-- Node12 -->
<g id="node12" class="node"><title>Node12</title>
<polygon fill="white" stroke="#bfbfbf" points="289,-0.5 289,-19.5 383,-19.5 383,-0.5 289,-0.5"/>
<text text-anchor="middle" x="336" y="-7.5" font-family="Helvetica,sans-Serif" font-size="10.00">hpp/util/pointer.hh</text>
</g>
<!-- Node7&#45;&gt;Node12 -->
<g id="edge14" class="edge"><title>Node7&#45;&gt;Node12</title>
<path fill="none" stroke="midnightblue" d="M439.51,-56.4435C419.358,-47.5961 387.677,-33.6875 364.669,-23.5865"/>
<polygon fill="midnightblue" stroke="midnightblue" points="365.962,-20.3316 355.399,-19.5164 363.148,-26.7411 365.962,-20.3316"/>
</g>
<!-- Node13 -->
<g id="node13" class="node"><title>Node13</title>
<g id="a_node13"><a doxygen="https://jmirabel.github.io/hpp-doc/api/hpp-constraints/doxygen-html/hpp-constraints.doxytag:https://jmirabel.github.io/hpp-doc/api/hpp-constraints/doxygen-html/" xlink:href="https://jmirabel.github.io/hpp-doc/api/hpp-constraints/doxygen-html/a00001.html" target="_top" xlink:title="hpp/constraints/fwd.hh">
<polygon fill="white" stroke="black" points="401,-0.5 401,-19.5 517,-19.5 517,-0.5 401,-0.5"/>
<text text-anchor="middle" x="459" y="-7.5" font-family="Helvetica,sans-Serif" font-size="10.00">hpp/constraints/fwd.hh</text>
</a>
</g>
</g>
<!-- Node7&#45;&gt;Node13 -->
<g id="edge15" class="edge"><title>Node7&#45;&gt;Node13</title>
<path fill="none" stroke="midnightblue" d="M459,-56.083C459,-49.0059 459,-38.8611 459,-29.9865"/>
<polygon fill="midnightblue" stroke="midnightblue" points="462.5,-29.751 459,-19.7511 455.5,-29.7511 462.5,-29.751"/>
</g>
<!-- Node14&#45;&gt;Node7 -->
<g id="edge18" class="edge"><title>Node14&#45;&gt;Node7</title>
<path fill="none" stroke="midnightblue" d="M580.609,-236.352C567.799,-228.149 549.111,-214.889 536,-200 503.933,-163.585 478.568,-111.789 466.565,-84.8418"/>
<polygon fill="midnightblue" stroke="midnightblue" points="469.707,-83.2908 462.508,-75.5183 463.289,-86.0843 469.707,-83.2908"/>
</g>
<!-- Node15 -->
<g id="node15" class="node"><title>Node15</title>
<polygon fill="white" stroke="#bfbfbf" points="731,-174.5 731,-193.5 859,-193.5 859,-174.5 731,-174.5"/>
<text text-anchor="middle" x="795" y="-181.5" font-family="Helvetica,sans-Serif" font-size="10.00">boost/concept_check.hpp</text>
</g>
<!-- Node14&#45;&gt;Node15 -->
<g id="edge17" class="edge"><title>Node14&#45;&gt;Node15</title>
<path fill="none" stroke="midnightblue" d="M623.655,-236.403C658.556,-225.933 717.65,-208.205 756.5,-196.55"/>
<polygon fill="midnightblue" stroke="midnightblue" points="757.826,-199.807 766.398,-193.581 755.814,-193.102 757.826,-199.807"/>
</g>
<!-- Node16 -->
<g id="node16" class="node"><title>Node16</title>
<polygon fill="white" stroke="#bfbfbf" points="654.5,-56.5 654.5,-75.5 751.5,-75.5 751.5,-56.5 654.5,-56.5"/>
<text text-anchor="middle" x="703" y="-63.5" font-family="Helvetica,sans-Serif" font-size="10.00">hpp/core/config.hh</text>
</g>
<!-- Node14&#45;&gt;Node16 -->
<g id="edge19" class="edge"><title>Node14&#45;&gt;Node16</title>
<path fill="none" stroke="midnightblue" d="M610.347,-236.406C623.431,-228.421 641.976,-215.455 654,-200 681.236,-164.992 694.41,-113.346 699.822,-85.8478"/>
<polygon fill="midnightblue" stroke="midnightblue" points="703.329,-86.1265 701.685,-75.66 696.443,-84.8675 703.329,-86.1265"/>
</g>
<!-- Node17 -->
<g id="node17" class="node"><title>Node17</title>
<g id="a_node17"><a xlink:href="a00066.html" target="_top" xlink:title="hpp/core/constraint\l&#45;set.hh">
<polygon fill="white" stroke="black" points="545,-169 545,-199 645,-199 645,-169 545,-169"/>
<text text-anchor="start" x="553" y="-187" font-family="Helvetica,sans-Serif" font-size="10.00">hpp/core/constraint</text>
<text text-anchor="middle" x="595" y="-176" font-family="Helvetica,sans-Serif" font-size="10.00">&#45;set.hh</text>
</a>
</g>
</g>
<!-- Node14&#45;&gt;Node17 -->
<g id="edge20" class="edge"><title>Node14&#45;&gt;Node17</title>
<path fill="none" stroke="midnightblue" d="M595,-236.403C595,-229.341 595,-218.975 595,-209.399"/>
<polygon fill="midnightblue" stroke="midnightblue" points="598.5,-209.141 595,-199.141 591.5,-209.141 598.5,-209.141"/>
</g>
<!-- Node17&#45;&gt;Node9 -->
<g id="edge21" class="edge"><title>Node17&#45;&gt;Node9</title>
<path fill="none" stroke="midnightblue" d="M578.2,-168.802C568.514,-159.47 557.246,-146.359 552,-132 548.95,-123.651 550.279,-120.721 552,-112 557.21,-85.6028 560.211,-78.4776 575,-56 582.173,-45.0978 592.23,-34.5733 600.919,-26.4471"/>
<polygon fill="midnightblue" stroke="midnightblue" points="603.304,-29.0096 608.392,-19.7166 598.619,-23.8082 603.304,-29.0096"/>
</g>
<!-- Node18 -->
<g id="node18" class="node"><title>Node18</title>
<g id="a_node18"><a xlink:href="a00067.html" target="_top" xlink:title="hpp/core/constraint.hh">
<polygon fill="white" stroke="black" points="561.5,-112.5 561.5,-131.5 674.5,-131.5 674.5,-112.5 561.5,-112.5"/>
<text text-anchor="middle" x="618" y="-119.5" font-family="Helvetica,sans-Serif" font-size="10.00">hpp/core/constraint.hh</text>
</a>
</g>
</g>
<!-- Node17&#45;&gt;Node18 -->
<g id="edge22" class="edge"><title>Node17&#45;&gt;Node18</title>
<path fill="none" stroke="midnightblue" d="M600.451,-168.781C603.621,-160.512 607.648,-150.006 611.044,-141.145"/>
<polygon fill="midnightblue" stroke="midnightblue" points="614.342,-142.321 614.653,-131.731 607.806,-139.815 614.342,-142.321"/>
</g>
<!-- Node18&#45;&gt;Node7 -->
<g id="edge25" class="edge"><title>Node18&#45;&gt;Node7</title>
<path fill="none" stroke="midnightblue" d="M592.806,-112.444C566.057,-103.359 523.597,-88.9388 493.695,-78.7831"/>
<polygon fill="midnightblue" stroke="midnightblue" points="494.671,-75.4182 484.076,-75.5164 492.419,-82.0464 494.671,-75.4182"/>
</g>
<!-- Node18&#45;&gt;Node16 -->
<g id="edge24" class="edge"><title>Node18&#45;&gt;Node16</title>
<path fill="none" stroke="midnightblue" d="M631.657,-112.324C644.916,-103.9 665.268,-90.9709 680.846,-81.0741"/>
<polygon fill="midnightblue" stroke="midnightblue" points="682.813,-83.9711 689.377,-75.6545 679.06,-78.0626 682.813,-83.9711"/>
</g>
<!-- Node19 -->
<g id="node19" class="node"><title>Node19</title>
<polygon fill="white" stroke="#bfbfbf" points="584,-56.5 584,-75.5 636,-75.5 636,-56.5 584,-56.5"/>
<text text-anchor="middle" x="610" y="-63.5" font-family="Helvetica,sans-Serif" font-size="10.00">ostream</text>
</g>
<!-- Node18&#45;&gt;Node19 -->
<g id="edge23" class="edge"><title>Node18&#45;&gt;Node19</title>
<path fill="none" stroke="midnightblue" d="M616.679,-112.083C615.619,-104.927 614.094,-94.6353 612.769,-85.6911"/>
<polygon fill="midnightblue" stroke="midnightblue" points="616.224,-85.1302 611.296,-75.7511 609.3,-86.1561 616.224,-85.1302"/>
</g>
</g>
</svg>
