<?xml version="1.0" encoding="UTF-8" standalone="no"?>
<!DOCTYPE svg PUBLIC "-//W3C//DTD SVG 1.1//EN"
 "http://www.w3.org/Graphics/SVG/1.1/DTD/svg11.dtd">
<!-- Generated by graphviz version 2.36.0 (20140111.2315)
 -->
<!-- Title: validation&#45;report.hh Pages: 1 -->
<svg width="637pt" height="220pt"
 viewBox="0.00 0.00 637.00 220.00" xmlns="http://www.w3.org/2000/svg" xmlns:xlink="http://www.w3.org/1999/xlink">
<g id="graph0" class="graph" transform="scale(1 1) rotate(0) translate(4 216)">
<title>validation&#45;report.hh</title>
<polygon fill="white" stroke="none" points="-4,4 -4,-216 633,-216 633,4 -4,4"/>
<!-- Node1 -->
<g id="node1" class="node"><title>Node1</title>
<polygon fill="#bfbfbf" stroke="black" points="257.5,-192.5 257.5,-211.5 356.5,-211.5 356.5,-192.5 257.5,-192.5"/>
<text text-anchor="middle" x="307" y="-199.5" font-family="Helvetica,sans-Serif" font-size="10.00">validation&#45;report.hh</text>
</g>
<!-- Node2 -->
<g id="node2" class="node"><title>Node2</title>
<g id="a_node2"><a xlink:href="a00088.html" target="_top" xlink:title="path&#45;validation&#45;report.hh">
<polygon fill="white" stroke="black" points="117.5,-130.5 117.5,-149.5 238.5,-149.5 238.5,-130.5 117.5,-130.5"/>
<text text-anchor="middle" x="178" y="-137.5" font-family="Helvetica,sans-Serif" font-size="10.00">path&#45;validation&#45;report.hh</text>
</a>
</g>
</g>
<!-- Node1&#45;&gt;Node2 -->
<g id="edge1" class="edge"><title>Node1&#45;&gt;Node2</title>
<path fill="none" stroke="midnightblue" d="M279.193,-188.066C254.161,-176.424 218.082,-159.643 196.448,-149.581"/>
<polygon fill="midnightblue" stroke="midnightblue" points="277.974,-191.36 288.517,-192.403 280.926,-185.013 277.974,-191.36"/>
</g>
<!-- Node7 -->
<g id="node7" class="node"><title>Node7</title>
<g id="a_node7"><a xlink:href="a00058.html" target="_top" xlink:title="collision&#45;validation\l&#45;report.hh">
<polygon fill="white" stroke="black" points="259,-125 259,-155 355,-155 355,-125 259,-125"/>
<text text-anchor="start" x="267" y="-143" font-family="Helvetica,sans-Serif" font-size="10.00">collision&#45;validation</text>
<text text-anchor="middle" x="307" y="-132" font-family="Helvetica,sans-Serif" font-size="10.00">&#45;report.hh</text>
</a>
</g>
</g>
<!-- Node1&#45;&gt;Node7 -->
<g id="edge6" class="edge"><title>Node1&#45;&gt;Node7</title>
<path fill="none" stroke="midnightblue" d="M307,-182.371C307,-173.585 307,-163.272 307,-155.141"/>
<polygon fill="midnightblue" stroke="midnightblue" points="303.5,-182.403 307,-192.403 310.5,-182.403 303.5,-182.403"/>
</g>
<!-- Node9 -->
<g id="node9" class="node"><title>Node9</title>
<g id="a_node9"><a xlink:href="a00062.html" target="_top" xlink:title="config&#45;validation.hh">
<polygon fill="white" stroke="black" points="380.5,-130.5 380.5,-149.5 481.5,-149.5 481.5,-130.5 380.5,-130.5"/>
<text text-anchor="middle" x="431" y="-137.5" font-family="Helvetica,sans-Serif" font-size="10.00">config&#45;validation.hh</text>
</a>
</g>
</g>
<!-- Node1&#45;&gt;Node9 -->
<g id="edge9" class="edge"><title>Node1&#45;&gt;Node9</title>
<path fill="none" stroke="midnightblue" d="M334.049,-187.912C358.097,-176.276 392.563,-159.598 413.267,-149.581"/>
<polygon fill="midnightblue" stroke="midnightblue" points="332.243,-184.897 324.766,-192.403 335.292,-191.198 332.243,-184.897"/>
</g>
<!-- Node3 -->
<g id="node3" class="node"><title>Node3</title>
<g id="a_node3"><a xlink:href="a00057.html" target="_top" xlink:title="collision&#45;path&#45;validation\l&#45;report.hh">
<polygon fill="white" stroke="black" points="119,-57 119,-87 237,-87 237,-57 119,-57"/>
<text text-anchor="start" x="127" y="-75" font-family="Helvetica,sans-Serif" font-size="10.00">collision&#45;path&#45;validation</text>
<text text-anchor="middle" x="178" y="-64" font-family="Helvetica,sans-Serif" font-size="10.00">&#45;report.hh</text>
</a>
</g>
</g>
<!-- Node2&#45;&gt;Node3 -->
<g id="edge2" class="edge"><title>Node2&#45;&gt;Node3</title>
<path fill="none" stroke="midnightblue" d="M178,-120.174C178,-109.678 178,-96.8209 178,-87.1815"/>
<polygon fill="midnightblue" stroke="midnightblue" points="174.5,-120.372 178,-130.372 181.5,-120.372 174.5,-120.372"/>
</g>
<!-- Node6 -->
<g id="node6" class="node"><title>Node6</title>
<g id="a_node6"><a xlink:href="a00072.html" target="_top" xlink:title="discretized&#45;collision\l&#45;checking.hh">
<polygon fill="white" stroke="black" points="-1,-57 -1,-87 101,-87 101,-57 -1,-57"/>
<text text-anchor="start" x="7" y="-75" font-family="Helvetica,sans-Serif" font-size="10.00">discretized&#45;collision</text>
<text text-anchor="middle" x="50" y="-64" font-family="Helvetica,sans-Serif" font-size="10.00">&#45;checking.hh</text>
</a>
</g>
</g>
<!-- Node2&#45;&gt;Node6 -->
<g id="edge5" class="edge"><title>Node2&#45;&gt;Node6</title>
<path fill="none" stroke="midnightblue" d="M152.311,-125.754C130.634,-114.577 99.6785,-98.6155 77.5034,-87.1815"/>
<polygon fill="midnightblue" stroke="midnightblue" points="150.774,-128.9 161.266,-130.372 153.982,-122.678 150.774,-128.9"/>
</g>
<!-- Node4 -->
<g id="node4" class="node"><title>Node4</title>
<g id="a_node4"><a xlink:href="a00069.html" target="_top" xlink:title="dichotomy.hh">
<polygon fill="white" stroke="black" points="92.5,-0.5 92.5,-19.5 167.5,-19.5 167.5,-0.5 92.5,-0.5"/>
<text text-anchor="middle" x="130" y="-7.5" font-family="Helvetica,sans-Serif" font-size="10.00">dichotomy.hh</text>
</a>
</g>
</g>
<!-- Node3&#45;&gt;Node4 -->
<g id="edge3" class="edge"><title>Node3&#45;&gt;Node4</title>
<path fill="none" stroke="midnightblue" d="M160.175,-48.7186C152.113,-38.6414 143.054,-27.3175 136.984,-19.7305"/>
<polygon fill="midnightblue" stroke="midnightblue" points="157.645,-51.1586 166.625,-56.7808 163.111,-46.7857 157.645,-51.1586"/>
</g>
<!-- Node5 -->
<g id="node5" class="node"><title>Node5</title>
<g id="a_node5"><a xlink:href="a00095.html" target="_top" xlink:title="progressive.hh">
<polygon fill="white" stroke="black" points="186,-0.5 186,-19.5 266,-19.5 266,-0.5 186,-0.5"/>
<text text-anchor="middle" x="226" y="-7.5" font-family="Helvetica,sans-Serif" font-size="10.00">progressive.hh</text>
</a>
</g>
</g>
<!-- Node3&#45;&gt;Node5 -->
<g id="edge4" class="edge"><title>Node3&#45;&gt;Node5</title>
<path fill="none" stroke="midnightblue" d="M195.825,-48.7186C203.887,-38.6414 212.946,-27.3175 219.016,-19.7305"/>
<polygon fill="midnightblue" stroke="midnightblue" points="192.889,-46.7857 189.375,-56.7808 198.355,-51.1586 192.889,-46.7857"/>
</g>
<!-- Node7&#45;&gt;Node3 -->
<g id="edge7" class="edge"><title>Node7&#45;&gt;Node3</title>
<path fill="none" stroke="midnightblue" d="M270.248,-120.197C249.693,-109.68 224.492,-96.7868 205.628,-87.1352"/>
<polygon fill="midnightblue" stroke="midnightblue" points="268.83,-123.402 279.326,-124.841 272.018,-117.171 268.83,-123.402"/>
</g>
<!-- Node8 -->
<g id="node8" class="node"><title>Node8</title>
<g id="a_node8"><a xlink:href="a00059.html" target="_top" xlink:title="collision&#45;validation.hh">
<polygon fill="white" stroke="black" points="255,-62.5 255,-81.5 365,-81.5 365,-62.5 255,-62.5"/>
<text text-anchor="middle" x="310" y="-69.5" font-family="Helvetica,sans-Serif" font-size="10.00">collision&#45;validation.hh</text>
</a>
</g>
</g>
<!-- Node7&#45;&gt;Node8 -->
<g id="edge8" class="edge"><title>Node7&#45;&gt;Node8</title>
<path fill="none" stroke="midnightblue" d="M308.119,-114.376C308.638,-102.971 309.221,-90.1364 309.599,-81.8283"/>
<polygon fill="midnightblue" stroke="midnightblue" points="304.609,-114.53 307.651,-124.679 311.602,-114.848 304.609,-114.53"/>
</g>
<!-- Node9&#45;&gt;Node8 -->
<g id="edge10" class="edge"><title>Node9&#45;&gt;Node8</title>
<path fill="none" stroke="midnightblue" d="M406.277,-125.515C382.191,-112.377 346.297,-92.7981 325.823,-81.6305"/>
<polygon fill="midnightblue" stroke="midnightblue" points="404.726,-128.656 415.181,-130.372 408.078,-122.51 404.726,-128.656"/>
</g>
<!-- Node10 -->
<g id="node10" class="node"><title>Node10</title>
<g id="a_node10"><a xlink:href="a00063.html" target="_top" xlink:title="config&#45;validations.hh">
<polygon fill="white" stroke="black" points="383,-62.5 383,-81.5 489,-81.5 489,-62.5 383,-62.5"/>
<text text-anchor="middle" x="436" y="-69.5" font-family="Helvetica,sans-Serif" font-size="10.00">config&#45;validations.hh</text>
</a>
</g>
</g>
<!-- Node9&#45;&gt;Node10 -->
<g id="edge11" class="edge"><title>Node9&#45;&gt;Node10</title>
<path fill="none" stroke="midnightblue" d="M432.436,-120.041C433.388,-107.472 434.594,-91.5631 435.33,-81.8411"/>
<polygon fill="midnightblue" stroke="midnightblue" points="428.919,-120.136 431.654,-130.372 435.899,-120.665 428.919,-120.136"/>
</g>
<!-- Node11 -->
<g id="node11" class="node"><title>Node11</title>
<g id="a_node11"><a xlink:href="a00078.html" target="_top" xlink:title="joint&#45;bound&#45;validation.hh">
<polygon fill="white" stroke="black" points="507,-62.5 507,-81.5 629,-81.5 629,-62.5 507,-62.5"/>
<text text-anchor="middle" x="568" y="-69.5" font-family="Helvetica,sans-Serif" font-size="10.00">joint&#45;bound&#45;validation.hh</text>
</a>
</g>
</g>
<!-- Node9&#45;&gt;Node11 -->
<g id="edge12" class="edge"><title>Node9&#45;&gt;Node11</title>
<path fill="none" stroke="midnightblue" d="M458.271,-125.862C485.543,-112.724 526.699,-92.8969 550.085,-81.6305"/>
<polygon fill="midnightblue" stroke="midnightblue" points="456.4,-122.878 448.91,-130.372 459.438,-129.185 456.4,-122.878"/>
</g>
</g>
</svg>
