<?xml version="1.0" encoding="UTF-8" standalone="no"?>
<!DOCTYPE svg PUBLIC "-//W3C//DTD SVG 1.1//EN"
 "http://www.w3.org/Graphics/SVG/1.1/DTD/svg11.dtd">
<!-- Generated by graphviz version 2.36.0 (20140111.2315)
 -->
<!-- Title: config&#45;projector.hh Pages: 1 -->
<svg width="636pt" height="332pt"
 viewBox="0.00 0.00 636.00 332.00" xmlns="http://www.w3.org/2000/svg" xmlns:xlink="http://www.w3.org/1999/xlink">
<g id="graph0" class="graph" transform="scale(1 1) rotate(0) translate(4 328)">
<title>config&#45;projector.hh</title>
<polygon fill="white" stroke="none" points="-4,4 -4,-328 632,-328 632,4 -4,4"/>
<!-- Node1 -->
<g id="node1" class="node"><title>Node1</title>
<polygon fill="#bfbfbf" stroke="black" points="167.5,-304.5 167.5,-323.5 264.5,-323.5 264.5,-304.5 167.5,-304.5"/>
<text text-anchor="middle" x="216" y="-311.5" font-family="Helvetica,sans-Serif" font-size="10.00">config&#45;projector.hh</text>
</g>
<!-- Node2 -->
<g id="node2" class="node"><title>Node2</title>
<polygon fill="white" stroke="#bfbfbf" points="-0.5,-242.5 -0.5,-261.5 64.5,-261.5 64.5,-242.5 -0.5,-242.5"/>
<text text-anchor="middle" x="32" y="-249.5" font-family="Helvetica,sans-Serif" font-size="10.00">Eigen/SVD</text>
</g>
<!-- Node1&#45;&gt;Node2 -->
<g id="edge1" class="edge"><title>Node1&#45;&gt;Node2</title>
<path fill="none" stroke="midnightblue" d="M189.637,-304.403C157.665,-293.978 103.624,-276.356 67.8775,-264.699"/>
<polygon fill="midnightblue" stroke="midnightblue" points="68.9062,-261.353 58.3138,-261.581 66.736,-268.008 68.9062,-261.353"/>
</g>
<!-- Node3 -->
<g id="node3" class="node"><title>Node3</title>
<polygon fill="white" stroke="#bfbfbf" points="185.5,-56.5 185.5,-75.5 282.5,-75.5 282.5,-56.5 185.5,-56.5"/>
<text text-anchor="middle" x="234" y="-63.5" font-family="Helvetica,sans-Serif" font-size="10.00">hpp/core/config.hh</text>
</g>
<!-- Node1&#45;&gt;Node3 -->
<g id="edge2" class="edge"><title>Node1&#45;&gt;Node3</title>
<path fill="none" stroke="midnightblue" d="M204.725,-304.109C169.262,-275.066 65.111,-180.904 113,-112 122.021,-99.02 157.836,-86.6821 188.18,-78.2193"/>
<polygon fill="midnightblue" stroke="midnightblue" points="189.476,-81.4944 198.214,-75.5025 187.647,-74.7377 189.476,-81.4944"/>
</g>
<!-- Node4 -->
<g id="node4" class="node"><title>Node4</title>
<g id="a_node4"><a xlink:href="a00100.html" target="_top" xlink:title="hpp/core/constraint.hh">
<polygon fill="white" stroke="black" points="121.5,-118.5 121.5,-137.5 234.5,-137.5 234.5,-118.5 121.5,-118.5"/>
<text text-anchor="middle" x="178" y="-125.5" font-family="Helvetica,sans-Serif" font-size="10.00">hpp/core/constraint.hh</text>
</a>
</g>
</g>
<!-- Node1&#45;&gt;Node4 -->
<g id="edge3" class="edge"><title>Node1&#45;&gt;Node4</title>
<path fill="none" stroke="midnightblue" d="M212.979,-304.466C209.885,-295.484 205.103,-280.886 202,-268 191.762,-225.484 184.129,-174.647 180.449,-147.786"/>
<polygon fill="midnightblue" stroke="midnightblue" points="183.873,-146.989 179.079,-137.541 176.935,-147.916 183.873,-146.989"/>
</g>
<!-- Node13 -->
<g id="node13" class="node"><title>Node13</title>
<g id="a_node13"><a xlink:href="a00092.html" target="_top" xlink:title="hpp/core/comparison\l&#45;type.hh">
<polygon fill="white" stroke="black" points="252.5,-113 252.5,-143 359.5,-143 359.5,-113 252.5,-113"/>
<text text-anchor="start" x="260.5" y="-131" font-family="Helvetica,sans-Serif" font-size="10.00">hpp/core/comparison</text>
<text text-anchor="middle" x="306" y="-120" font-family="Helvetica,sans-Serif" font-size="10.00">&#45;type.hh</text>
</a>
</g>
</g>
<!-- Node1&#45;&gt;Node13 -->
<g id="edge13" class="edge"><title>Node1&#45;&gt;Node13</title>
<path fill="none" stroke="midnightblue" d="M217.336,-304.146C219.756,-289.494 225.602,-259.491 236,-236 249.916,-204.562 272.614,-172.001 288.375,-151.182"/>
<polygon fill="midnightblue" stroke="midnightblue" points="291.335,-153.075 294.659,-143.015 285.787,-148.806 291.335,-153.075"/>
</g>
<!-- Node14 -->
<g id="node14" class="node"><title>Node14</title>
<g id="a_node14"><a xlink:href="a00124.html" target="_top" xlink:title="hpp/core/numerical\l&#45;constraint.hh">
<polygon fill="white" stroke="black" points="244.5,-237 244.5,-267 343.5,-267 343.5,-237 244.5,-237"/>
<text text-anchor="start" x="252.5" y="-255" font-family="Helvetica,sans-Serif" font-size="10.00">hpp/core/numerical</text>
<text text-anchor="middle" x="294" y="-244" font-family="Helvetica,sans-Serif" font-size="10.00">&#45;constraint.hh</text>
</a>
</g>
</g>
<!-- Node1&#45;&gt;Node14 -->
<g id="edge16" class="edge"><title>Node1&#45;&gt;Node14</title>
<path fill="none" stroke="midnightblue" d="M227.175,-304.403C237.641,-296.353 253.684,-284.013 267.427,-273.441"/>
<polygon fill="midnightblue" stroke="midnightblue" points="269.825,-276.012 275.617,-267.141 265.557,-270.464 269.825,-276.012"/>
</g>
<!-- Node16 -->
<g id="node16" class="node"><title>Node16</title>
<polygon fill="white" stroke="#bfbfbf" points="361.5,-242.5 361.5,-261.5 480.5,-261.5 480.5,-242.5 361.5,-242.5"/>
<text text-anchor="middle" x="421" y="-249.5" font-family="Helvetica,sans-Serif" font-size="10.00">hpp/core/deprecated.hh</text>
</g>
<!-- Node1&#45;&gt;Node16 -->
<g id="edge21" class="edge"><title>Node1&#45;&gt;Node16</title>
<path fill="none" stroke="midnightblue" d="M245.372,-304.403C281.297,-293.889 342.232,-276.054 382.044,-264.402"/>
<polygon fill="midnightblue" stroke="midnightblue" points="383.069,-267.749 391.683,-261.581 381.102,-261.031 383.069,-267.749"/>
</g>
<!-- Node17 -->
<g id="node17" class="node"><title>Node17</title>
<polygon fill="white" stroke="#bfbfbf" points="498.5,-237 498.5,-267 613.5,-267 613.5,-237 498.5,-237"/>
<text text-anchor="start" x="506.5" y="-255" font-family="Helvetica,sans-Serif" font-size="10.00">hpp/statistics/success</text>
<text text-anchor="middle" x="556" y="-244" font-family="Helvetica,sans-Serif" font-size="10.00">&#45;bin.hh</text>
</g>
<!-- Node1&#45;&gt;Node17 -->
<g id="edge22" class="edge"><title>Node1&#45;&gt;Node17</title>
<path fill="none" stroke="midnightblue" d="M264.972,-305.787C317.639,-297.837 404.063,-284.241 488.306,-268.069"/>
<polygon fill="midnightblue" stroke="midnightblue" points="489.147,-271.472 498.3,-266.137 487.817,-264.599 489.147,-271.472"/>
</g>
<!-- Node4&#45;&gt;Node3 -->
<g id="edge5" class="edge"><title>Node4&#45;&gt;Node3</title>
<path fill="none" stroke="midnightblue" d="M186.023,-118.403C194.59,-109.225 208.361,-94.4699 218.957,-83.1173"/>
<polygon fill="midnightblue" stroke="midnightblue" points="221.727,-85.2793 225.991,-75.5806 216.61,-80.503 221.727,-85.2793"/>
</g>
<!-- Node5 -->
<g id="node5" class="node"><title>Node5</title>
<polygon fill="white" stroke="#bfbfbf" points="115,-56.5 115,-75.5 167,-75.5 167,-56.5 115,-56.5"/>
<text text-anchor="middle" x="141" y="-63.5" font-family="Helvetica,sans-Serif" font-size="10.00">ostream</text>
</g>
<!-- Node4&#45;&gt;Node5 -->
<g id="edge4" class="edge"><title>Node4&#45;&gt;Node5</title>
<path fill="none" stroke="midnightblue" d="M172.699,-118.403C167.204,-109.493 158.467,-95.3247 151.556,-84.1177"/>
<polygon fill="midnightblue" stroke="midnightblue" points="154.519,-82.2552 146.291,-75.5806 148.561,-85.9294 154.519,-82.2552"/>
</g>
<!-- Node6 -->
<g id="node6" class="node"><title>Node6</title>
<g id="a_node6"><a xlink:href="a00001.html" target="_top" xlink:title="hpp/core/fwd.hh">
<polygon fill="white" stroke="black" points="301,-56.5 301,-75.5 387,-75.5 387,-56.5 301,-56.5"/>
<text text-anchor="middle" x="344" y="-63.5" font-family="Helvetica,sans-Serif" font-size="10.00">hpp/core/fwd.hh</text>
</a>
</g>
</g>
<!-- Node4&#45;&gt;Node6 -->
<g id="edge6" class="edge"><title>Node4&#45;&gt;Node6</title>
<path fill="none" stroke="midnightblue" d="M201.784,-118.403C230.382,-108.067 278.551,-90.6564 310.802,-78.9994"/>
<polygon fill="midnightblue" stroke="midnightblue" points="312.046,-82.2715 320.26,-75.5806 309.666,-75.6883 312.046,-82.2715"/>
</g>
<!-- Node7 -->
<g id="node7" class="node"><title>Node7</title>
<polygon fill="white" stroke="#bfbfbf" points="182,-0.5 182,-19.5 226,-19.5 226,-0.5 182,-0.5"/>
<text text-anchor="middle" x="204" y="-7.5" font-family="Helvetica,sans-Serif" font-size="10.00">vector</text>
</g>
<!-- Node6&#45;&gt;Node7 -->
<g id="edge7" class="edge"><title>Node6&#45;&gt;Node7</title>
<path fill="none" stroke="midnightblue" d="M321.817,-56.4435C298.572,-47.4776 261.851,-33.314 235.585,-23.1827"/>
<polygon fill="midnightblue" stroke="midnightblue" points="236.669,-19.8497 226.08,-19.5164 234.15,-26.3807 236.669,-19.8497"/>
</g>
<!-- Node8 -->
<g id="node8" class="node"><title>Node8</title>
<polygon fill="white" stroke="#bfbfbf" points="244.5,-0.5 244.5,-19.5 287.5,-19.5 287.5,-0.5 244.5,-0.5"/>
<text text-anchor="middle" x="266" y="-7.5" font-family="Helvetica,sans-Serif" font-size="10.00">deque</text>
</g>
<!-- Node6&#45;&gt;Node8 -->
<g id="edge8" class="edge"><title>Node6&#45;&gt;Node8</title>
<path fill="none" stroke="midnightblue" d="M331.468,-56.324C319.414,-47.979 300.973,-35.2122 286.731,-25.3524"/>
<polygon fill="midnightblue" stroke="midnightblue" points="288.715,-22.469 278.501,-19.6545 284.731,-28.2243 288.715,-22.469"/>
</g>
<!-- Node9 -->
<g id="node9" class="node"><title>Node9</title>
<polygon fill="white" stroke="#bfbfbf" points="305.5,-0.5 305.5,-19.5 334.5,-19.5 334.5,-0.5 305.5,-0.5"/>
<text text-anchor="middle" x="320" y="-7.5" font-family="Helvetica,sans-Serif" font-size="10.00">list</text>
</g>
<!-- Node6&#45;&gt;Node9 -->
<g id="edge9" class="edge"><title>Node6&#45;&gt;Node9</title>
<path fill="none" stroke="midnightblue" d="M340.037,-56.083C336.787,-48.77 332.081,-38.1814 328.046,-29.1034"/>
<polygon fill="midnightblue" stroke="midnightblue" points="331.149,-27.4677 323.889,-19.7511 324.752,-30.3107 331.149,-27.4677"/>
</g>
<!-- Node10 -->
<g id="node10" class="node"><title>Node10</title>
<polygon fill="white" stroke="#bfbfbf" points="353,-0.5 353,-19.5 383,-19.5 383,-0.5 353,-0.5"/>
<text text-anchor="middle" x="368" y="-7.5" font-family="Helvetica,sans-Serif" font-size="10.00">set</text>
</g>
<!-- Node6&#45;&gt;Node10 -->
<g id="edge10" class="edge"><title>Node6&#45;&gt;Node10</title>
<path fill="none" stroke="midnightblue" d="M347.963,-56.083C351.213,-48.77 355.919,-38.1814 359.954,-29.1034"/>
<polygon fill="midnightblue" stroke="midnightblue" points="363.248,-30.3107 364.111,-19.7511 356.851,-27.4677 363.248,-30.3107"/>
</g>
<!-- Node11 -->
<g id="node11" class="node"><title>Node11</title>
<polygon fill="white" stroke="#bfbfbf" points="401,-0.5 401,-19.5 495,-19.5 495,-0.5 401,-0.5"/>
<text text-anchor="middle" x="448" y="-7.5" font-family="Helvetica,sans-Serif" font-size="10.00">hpp/util/pointer.hh</text>
</g>
<!-- Node6&#45;&gt;Node11 -->
<g id="edge11" class="edge"><title>Node6&#45;&gt;Node11</title>
<path fill="none" stroke="midnightblue" d="M360.709,-56.324C377.312,-47.7034 403.002,-34.3643 422.22,-24.3855"/>
<polygon fill="midnightblue" stroke="midnightblue" points="424.07,-27.3689 431.332,-19.6545 420.844,-21.1565 424.07,-27.3689"/>
</g>
<!-- Node12 -->
<g id="node12" class="node"><title>Node12</title>
<g id="a_node12"><a doxygen="https://jmirabel.github.io/hpp-doc/api/hpp-constraints/doxygen-html/hpp-constraints.doxytag:https://jmirabel.github.io/hpp-doc/api/hpp-constraints/doxygen-html/" xlink:href="https://jmirabel.github.io/hpp-doc/api/hpp-constraints/doxygen-html/a00001.html" target="_top" xlink:title="hpp/constraints/fwd.hh">
<polygon fill="white" stroke="black" points="513,-0.5 513,-19.5 629,-19.5 629,-0.5 513,-0.5"/>
<text text-anchor="middle" x="571" y="-7.5" font-family="Helvetica,sans-Serif" font-size="10.00">hpp/constraints/fwd.hh</text>
</a>
</g>
</g>
<!-- Node6&#45;&gt;Node12 -->
<g id="edge12" class="edge"><title>Node6&#45;&gt;Node12</title>
<path fill="none" stroke="midnightblue" d="M379.969,-56.4435C419.319,-47.0826 482.487,-32.0561 525.314,-21.868"/>
<polygon fill="midnightblue" stroke="midnightblue" points="526.281,-25.2358 535.199,-19.5164 524.661,-18.4258 526.281,-25.2358"/>
</g>
<!-- Node13&#45;&gt;Node3 -->
<g id="edge15" class="edge"><title>Node13&#45;&gt;Node3</title>
<path fill="none" stroke="midnightblue" d="M288.937,-112.781C277.935,-103.613 263.635,-91.6957 252.382,-82.3186"/>
<polygon fill="midnightblue" stroke="midnightblue" points="254.4,-79.4436 244.477,-75.7305 249.918,-84.8212 254.4,-79.4436"/>
</g>
<!-- Node13&#45;&gt;Node6 -->
<g id="edge14" class="edge"><title>Node13&#45;&gt;Node6</title>
<path fill="none" stroke="midnightblue" d="M315.005,-112.781C320.413,-104.242 327.332,-93.3184 333.054,-84.2834"/>
<polygon fill="midnightblue" stroke="midnightblue" points="336.077,-86.0514 338.471,-75.7305 330.163,-82.306 336.077,-86.0514"/>
</g>
<!-- Node15 -->
<g id="node15" class="node"><title>Node15</title>
<g id="a_node15"><a xlink:href="a00111.html" target="_top" xlink:title="hpp/core/equation.hh">
<polygon fill="white" stroke="black" points="293.5,-180.5 293.5,-199.5 400.5,-199.5 400.5,-180.5 293.5,-180.5"/>
<text text-anchor="middle" x="347" y="-187.5" font-family="Helvetica,sans-Serif" font-size="10.00">hpp/core/equation.hh</text>
</a>
</g>
</g>
<!-- Node14&#45;&gt;Node15 -->
<g id="edge17" class="edge"><title>Node14&#45;&gt;Node15</title>
<path fill="none" stroke="midnightblue" d="M306.56,-236.781C314.341,-227.972 324.364,-216.626 332.484,-207.433"/>
<polygon fill="midnightblue" stroke="midnightblue" points="335.291,-209.542 339.288,-199.731 330.044,-204.908 335.291,-209.542"/>
</g>
<!-- Node15&#45;&gt;Node3 -->
<g id="edge19" class="edge"><title>Node15&#45;&gt;Node3</title>
<path fill="none" stroke="midnightblue" d="M353.877,-180.064C364.754,-164.762 383.208,-133.15 368,-112 358.035,-98.1416 319.332,-86.0568 286.067,-77.9102"/>
<polygon fill="midnightblue" stroke="midnightblue" points="286.493,-74.4143 275.955,-75.5108 284.877,-81.2252 286.493,-74.4143"/>
</g>
<!-- Node15&#45;&gt;Node6 -->
<g id="edge18" class="edge"><title>Node15&#45;&gt;Node6</title>
<path fill="none" stroke="midnightblue" d="M364.198,-180.386C377.251,-172.794 394.234,-160.389 402,-144 408.09,-131.148 408.256,-124.772 402,-112 395.477,-98.6839 382.904,-88.177 371.127,-80.6761"/>
<polygon fill="midnightblue" stroke="midnightblue" points="372.782,-77.5891 362.389,-75.5294 369.229,-83.6205 372.782,-77.5891"/>
</g>
<!-- Node15&#45;&gt;Node13 -->
<g id="edge20" class="edge"><title>Node15&#45;&gt;Node13</title>
<path fill="none" stroke="midnightblue" d="M341.126,-180.403C335.988,-172.885 328.293,-161.624 321.414,-151.556"/>
<polygon fill="midnightblue" stroke="midnightblue" points="324.195,-149.423 315.663,-143.141 318.415,-153.372 324.195,-149.423"/>
</g>
</g>
</svg>
