<?xml version="1.0" encoding="UTF-8" standalone="no"?>
<!DOCTYPE svg PUBLIC "-//W3C//DTD SVG 1.1//EN"
 "http://www.w3.org/Graphics/SVG/1.1/DTD/svg11.dtd">
<!-- Generated by graphviz version 2.36.0 (20140111.2315)
 -->
<!-- Title: constraint.hh Pages: 1 -->
<svg width="535pt" height="308pt"
 viewBox="0.00 0.00 535.00 308.00" xmlns="http://www.w3.org/2000/svg" xmlns:xlink="http://www.w3.org/1999/xlink">
<g id="graph0" class="graph" transform="scale(1 1) rotate(0) translate(4 304)">
<title>constraint.hh</title>
<polygon fill="white" stroke="none" points="-4,4 -4,-304 531,-304 531,4 -4,4"/>
<!-- Node1 -->
<g id="node1" class="node"><title>Node1</title>
<polygon fill="#bfbfbf" stroke="black" points="336.5,-280.5 336.5,-299.5 409.5,-299.5 409.5,-280.5 336.5,-280.5"/>
<text text-anchor="middle" x="373" y="-287.5" font-family="Helvetica,sans-Serif" font-size="10.00">constraint.hh</text>
</g>
<!-- Node2 -->
<g id="node2" class="node"><title>Node2</title>
<g id="a_node2"><a xlink:href="a00061.html" target="_top" xlink:title="config&#45;projector.hh">
<polygon fill="white" stroke="black" points="429.5,-168.5 429.5,-187.5 526.5,-187.5 526.5,-168.5 429.5,-168.5"/>
<text text-anchor="middle" x="478" y="-175.5" font-family="Helvetica,sans-Serif" font-size="10.00">config&#45;projector.hh</text>
</a>
</g>
</g>
<!-- Node1&#45;&gt;Node2 -->
<g id="edge1" class="edge"><title>Node1&#45;&gt;Node2</title>
<path fill="none" stroke="midnightblue" d="M388.371,-272.897C410.945,-249.249 452.276,-205.949 469.799,-187.591"/>
<polygon fill="midnightblue" stroke="midnightblue" points="385.612,-270.718 381.239,-280.368 390.676,-275.552 385.612,-270.718"/>
</g>
<!-- Node4 -->
<g id="node4" class="node"><title>Node4</title>
<g id="a_node4"><a xlink:href="a00066.html" target="_top" xlink:title="constraint&#45;set.hh">
<polygon fill="white" stroke="black" points="290.5,-224.5 290.5,-243.5 379.5,-243.5 379.5,-224.5 290.5,-224.5"/>
<text text-anchor="middle" x="335" y="-231.5" font-family="Helvetica,sans-Serif" font-size="10.00">constraint&#45;set.hh</text>
</a>
</g>
</g>
<!-- Node1&#45;&gt;Node4 -->
<g id="edge3" class="edge"><title>Node1&#45;&gt;Node4</title>
<path fill="none" stroke="midnightblue" d="M360.935,-271.855C354.355,-262.505 346.489,-251.327 341.158,-243.751"/>
<polygon fill="midnightblue" stroke="midnightblue" points="358.108,-273.919 366.725,-280.083 363.832,-269.891 358.108,-273.919"/>
</g>
<!-- Node3 -->
<g id="node3" class="node"><title>Node3</title>
<g id="a_node3"><a xlink:href="a00093.html" target="_top" xlink:title="problem&#45;solver.hh">
<polygon fill="white" stroke="black" points="379,-0.5 379,-19.5 473,-19.5 473,-0.5 379,-0.5"/>
<text text-anchor="middle" x="426" y="-7.5" font-family="Helvetica,sans-Serif" font-size="10.00">problem&#45;solver.hh</text>
</a>
</g>
</g>
<!-- Node2&#45;&gt;Node3 -->
<g id="edge2" class="edge"><title>Node2&#45;&gt;Node3</title>
<path fill="none" stroke="midnightblue" d="M487.726,-159.548C500.039,-134.905 517.544,-89.2146 499,-56 489.057,-38.1908 468.85,-26.5554 452.211,-19.5863"/>
<polygon fill="midnightblue" stroke="midnightblue" points="484.603,-157.969 483.041,-168.448 490.796,-161.23 484.603,-157.969"/>
</g>
<!-- Node5 -->
<g id="node5" class="node"><title>Node5</title>
<g id="a_node5"><a xlink:href="a00091.html" target="_top" xlink:title="path.hh">
<polygon fill="white" stroke="black" points="301.5,-168.5 301.5,-187.5 350.5,-187.5 350.5,-168.5 301.5,-168.5"/>
<text text-anchor="middle" x="326" y="-175.5" font-family="Helvetica,sans-Serif" font-size="10.00">path.hh</text>
</a>
</g>
</g>
<!-- Node4&#45;&gt;Node5 -->
<g id="edge4" class="edge"><title>Node4&#45;&gt;Node5</title>
<path fill="none" stroke="midnightblue" d="M331.85,-214.101C330.356,-205.136 328.643,-194.858 327.459,-187.751"/>
<polygon fill="midnightblue" stroke="midnightblue" points="328.417,-214.794 333.514,-224.083 335.322,-213.644 328.417,-214.794"/>
</g>
<!-- Node6 -->
<g id="node6" class="node"><title>Node6</title>
<g id="a_node6"><a xlink:href="a00083.html" target="_top" xlink:title="partial&#45;spline&#45;path.hh">
<polygon fill="white" stroke="black" points="383.5,-56.5 383.5,-75.5 490.5,-75.5 490.5,-56.5 383.5,-56.5"/>
<text text-anchor="middle" x="437" y="-63.5" font-family="Helvetica,sans-Serif" font-size="10.00">partial&#45;spline&#45;path.hh</text>
</a>
</g>
</g>
<!-- Node5&#45;&gt;Node6 -->
<g id="edge5" class="edge"><title>Node5&#45;&gt;Node6</title>
<path fill="none" stroke="midnightblue" d="M360.894,-173.671C387.746,-169.068 423.181,-158.107 441,-132 452.6,-115.004 445.685,-89.3213 440.717,-75.8934"/>
<polygon fill="midnightblue" stroke="midnightblue" points="360.09,-170.252 350.715,-175.188 361.122,-177.175 360.09,-170.252"/>
</g>
<!-- Node7 -->
<g id="node7" class="node"><title>Node7</title>
<g id="a_node7"><a xlink:href="a00090.html" target="_top" xlink:title="path&#45;vector.hh">
<polygon fill="white" stroke="black" points="353.5,-112.5 353.5,-131.5 432.5,-131.5 432.5,-112.5 353.5,-112.5"/>
<text text-anchor="middle" x="393" y="-119.5" font-family="Helvetica,sans-Serif" font-size="10.00">path&#45;vector.hh</text>
</a>
</g>
</g>
<!-- Node5&#45;&gt;Node7 -->
<g id="edge6" class="edge"><title>Node5&#45;&gt;Node7</title>
<path fill="none" stroke="midnightblue" d="M344.835,-161.82C356.838,-152.145 371.972,-139.948 382.039,-131.834"/>
<polygon fill="midnightblue" stroke="midnightblue" points="342.354,-159.324 336.765,-168.324 346.747,-164.774 342.354,-159.324"/>
</g>
<!-- Node8 -->
<g id="node8" class="node"><title>Node8</title>
<g id="a_node8"><a xlink:href="a00087.html" target="_top" xlink:title="path&#45;projector.hh">
<polygon fill="white" stroke="black" points="40.5,-56.5 40.5,-75.5 129.5,-75.5 129.5,-56.5 40.5,-56.5"/>
<text text-anchor="middle" x="85" y="-63.5" font-family="Helvetica,sans-Serif" font-size="10.00">path&#45;projector.hh</text>
</a>
</g>
</g>
<!-- Node5&#45;&gt;Node8 -->
<g id="edge8" class="edge"><title>Node5&#45;&gt;Node8</title>
<path fill="none" stroke="midnightblue" d="M291.438,-177.327C248.333,-176.062 174.209,-168.209 124,-132 104.146,-117.682 92.5547,-89.857 87.6999,-75.7105"/>
<polygon fill="midnightblue" stroke="midnightblue" points="291.372,-180.826 301.437,-177.517 291.505,-173.827 291.372,-180.826"/>
</g>
<!-- Node11 -->
<g id="node11" class="node"><title>Node11</title>
<g id="a_node11"><a xlink:href="a00101.html" target="_top" xlink:title="straight&#45;path.hh">
<polygon fill="white" stroke="black" points="133,-112.5 133,-131.5 217,-131.5 217,-112.5 133,-112.5"/>
<text text-anchor="middle" x="175" y="-119.5" font-family="Helvetica,sans-Serif" font-size="10.00">straight&#45;path.hh</text>
</a>
</g>
</g>
<!-- Node5&#45;&gt;Node11 -->
<g id="edge11" class="edge"><title>Node5&#45;&gt;Node11</title>
<path fill="none" stroke="midnightblue" d="M292.554,-165.039C264.142,-154.879 224.063,-140.546 198.814,-131.516"/>
<polygon fill="midnightblue" stroke="midnightblue" points="291.479,-168.372 302.074,-168.444 293.836,-161.781 291.479,-168.372"/>
</g>
<!-- Node13 -->
<g id="node13" class="node"><title>Node13</title>
<g id="a_node13"><a xlink:href="a00100.html" target="_top" xlink:title="steering&#45;method.hh">
<polygon fill="white" stroke="black" points="235,-112.5 235,-131.5 335,-131.5 335,-112.5 235,-112.5"/>
<text text-anchor="middle" x="285" y="-119.5" font-family="Helvetica,sans-Serif" font-size="10.00">steering&#45;method.hh</text>
</a>
</g>
</g>
<!-- Node5&#45;&gt;Node13 -->
<g id="edge14" class="edge"><title>Node5&#45;&gt;Node13</title>
<path fill="none" stroke="midnightblue" d="M312.983,-159.855C305.883,-150.505 297.396,-139.327 291.644,-131.751"/>
<polygon fill="midnightblue" stroke="midnightblue" points="310.395,-162.235 319.23,-168.083 315.97,-158.002 310.395,-162.235"/>
</g>
<!-- Node7&#45;&gt;Node6 -->
<g id="edge7" class="edge"><title>Node7&#45;&gt;Node6</title>
<path fill="none" stroke="midnightblue" d="M406.735,-104.144C414.401,-94.7357 423.633,-83.4046 429.869,-75.7511"/>
<polygon fill="midnightblue" stroke="midnightblue" points="403.869,-102.12 400.266,-112.083 409.296,-106.541 403.869,-102.12"/>
</g>
<!-- Node9 -->
<g id="node9" class="node"><title>Node9</title>
<g id="a_node9"><a xlink:href="a00070.html" target="_top" xlink:title="dichotomy.hh">
<polygon fill="white" stroke="black" points="-0.5,-0.5 -0.5,-19.5 74.5,-19.5 74.5,-0.5 -0.5,-0.5"/>
<text text-anchor="middle" x="37" y="-7.5" font-family="Helvetica,sans-Serif" font-size="10.00">dichotomy.hh</text>
</a>
</g>
</g>
<!-- Node8&#45;&gt;Node9 -->
<g id="edge9" class="edge"><title>Node8&#45;&gt;Node9</title>
<path fill="none" stroke="midnightblue" d="M70.2723,-48.4314C61.8599,-38.9673 51.6513,-27.4827 44.7787,-19.7511"/>
<polygon fill="midnightblue" stroke="midnightblue" points="67.8142,-50.9342 77.0738,-56.083 73.046,-46.2836 67.8142,-50.9342"/>
</g>
<!-- Node10 -->
<g id="node10" class="node"><title>Node10</title>
<g id="a_node10"><a xlink:href="a00096.html" target="_top" xlink:title="progressive.hh">
<polygon fill="white" stroke="black" points="93,-0.5 93,-19.5 173,-19.5 173,-0.5 93,-0.5"/>
<text text-anchor="middle" x="133" y="-7.5" font-family="Helvetica,sans-Serif" font-size="10.00">progressive.hh</text>
</a>
</g>
</g>
<!-- Node8&#45;&gt;Node10 -->
<g id="edge10" class="edge"><title>Node8&#45;&gt;Node10</title>
<path fill="none" stroke="midnightblue" d="M99.7277,-48.4314C108.14,-38.9673 118.349,-27.4827 125.221,-19.7511"/>
<polygon fill="midnightblue" stroke="midnightblue" points="96.954,-46.2836 92.9262,-56.083 102.186,-50.9342 96.954,-46.2836"/>
</g>
<!-- Node11&#45;&gt;Node8 -->
<g id="edge12" class="edge"><title>Node11&#45;&gt;Node8</title>
<path fill="none" stroke="midnightblue" d="M151.962,-107.177C135.401,-97.2407 113.582,-84.1492 99.4242,-75.6545"/>
<polygon fill="midnightblue" stroke="midnightblue" points="150.164,-110.18 160.54,-112.324 153.766,-104.178 150.164,-110.18"/>
</g>
<!-- Node12 -->
<g id="node12" class="node"><title>Node12</title>
<g id="a_node12"><a xlink:href="a00099.html" target="_top" xlink:title="steering&#45;method&#45;straight.hh">
<polygon fill="white" stroke="black" points="147.5,-56.5 147.5,-75.5 282.5,-75.5 282.5,-56.5 147.5,-56.5"/>
<text text-anchor="middle" x="215" y="-63.5" font-family="Helvetica,sans-Serif" font-size="10.00">steering&#45;method&#45;straight.hh</text>
</a>
</g>
</g>
<!-- Node11&#45;&gt;Node12 -->
<g id="edge13" class="edge"><title>Node11&#45;&gt;Node12</title>
<path fill="none" stroke="midnightblue" d="M187.7,-103.855C194.626,-94.5048 202.906,-83.3265 208.518,-75.7511"/>
<polygon fill="midnightblue" stroke="midnightblue" points="184.745,-101.964 181.605,-112.083 190.37,-106.131 184.745,-101.964"/>
</g>
<!-- Node13&#45;&gt;Node12 -->
<g id="edge17" class="edge"><title>Node13&#45;&gt;Node12</title>
<path fill="none" stroke="midnightblue" d="M265.686,-106.101C253.088,-96.3824 237.072,-84.0269 226.451,-75.8339"/>
<polygon fill="midnightblue" stroke="midnightblue" points="263.698,-108.987 273.753,-112.324 267.973,-103.445 263.698,-108.987"/>
</g>
<!-- Node14 -->
<g id="node14" class="node"><title>Node14</title>
<g id="a_node14"><a xlink:href="a00094.html" target="_top" xlink:title="problem.hh">
<polygon fill="white" stroke="black" points="300.5,-56.5 300.5,-75.5 365.5,-75.5 365.5,-56.5 300.5,-56.5"/>
<text text-anchor="middle" x="333" y="-63.5" font-family="Helvetica,sans-Serif" font-size="10.00">problem.hh</text>
</a>
</g>
</g>
<!-- Node13&#45;&gt;Node14 -->
<g id="edge15" class="edge"><title>Node13&#45;&gt;Node14</title>
<path fill="none" stroke="midnightblue" d="M299.728,-104.431C308.14,-94.9673 318.349,-83.4827 325.221,-75.7511"/>
<polygon fill="midnightblue" stroke="midnightblue" points="296.954,-102.284 292.926,-112.083 302.186,-106.934 296.954,-102.284"/>
</g>
<!-- Node14&#45;&gt;Node3 -->
<g id="edge16" class="edge"><title>Node14&#45;&gt;Node3</title>
<path fill="none" stroke="midnightblue" d="M356.806,-51.1774C373.919,-41.2407 396.465,-28.1492 411.095,-19.6545"/>
<polygon fill="midnightblue" stroke="midnightblue" points="354.832,-48.2758 347.942,-56.324 358.347,-54.3293 354.832,-48.2758"/>
</g>
</g>
</svg>
