<?xml version="1.0" encoding="UTF-8" standalone="no"?>
<!DOCTYPE svg PUBLIC "-//W3C//DTD SVG 1.1//EN"
 "http://www.w3.org/Graphics/SVG/1.1/DTD/svg11.dtd">
<!-- Generated by graphviz version 2.36.0 (20140111.2315)
 -->
<!-- Title: fwd.hh Pages: 1 -->
<svg width="2212pt" height="388pt"
 viewBox="0.00 0.00 2212.00 388.00" xmlns="http://www.w3.org/2000/svg" xmlns:xlink="http://www.w3.org/1999/xlink">
<g id="graph0" class="graph" transform="scale(1 1) rotate(0) translate(4 384)">
<title>fwd.hh</title>
<polygon fill="white" stroke="none" points="-4,4 -4,-384 2208,-384 2208,4 -4,4"/>
<!-- Node1 -->
<g id="node1" class="node"><title>Node1</title>
<polygon fill="#bfbfbf" stroke="black" points="1261,-360.5 1261,-379.5 1307,-379.5 1307,-360.5 1261,-360.5"/>
<text text-anchor="middle" x="1284" y="-367.5" font-family="Helvetica,sans-Serif" font-size="10.00">fwd.hh</text>
</g>
<!-- Node2 -->
<g id="node2" class="node"><title>Node2</title>
<g id="a_node2"><a xlink:href="a00064.html" target="_top" xlink:title="configuration&#45;shooter.hh">
<polygon fill="white" stroke="black" points="169.5,-304.5 169.5,-323.5 290.5,-323.5 290.5,-304.5 169.5,-304.5"/>
<text text-anchor="middle" x="230" y="-311.5" font-family="Helvetica,sans-Serif" font-size="10.00">configuration&#45;shooter.hh</text>
</a>
</g>
</g>
<!-- Node1&#45;&gt;Node2 -->
<g id="edge1" class="edge"><title>Node1&#45;&gt;Node2</title>
<path fill="none" stroke="midnightblue" d="M1250.5,-367.284C1100.23,-359.585 487.104,-328.172 290.781,-318.114"/>
<polygon fill="midnightblue" stroke="midnightblue" points="1250.34,-370.78 1260.51,-367.796 1250.7,-363.789 1250.34,-370.78"/>
</g>
<!-- Node4 -->
<g id="node4" class="node"><title>Node4</title>
<g id="a_node4"><a xlink:href="a00102.html" target="_top" xlink:title="validation&#45;report.hh">
<polygon fill="white" stroke="black" points="425.5,-304.5 425.5,-323.5 524.5,-323.5 524.5,-304.5 425.5,-304.5"/>
<text text-anchor="middle" x="475" y="-311.5" font-family="Helvetica,sans-Serif" font-size="10.00">validation&#45;report.hh</text>
</a>
</g>
</g>
<!-- Node1&#45;&gt;Node4 -->
<g id="edge3" class="edge"><title>Node1&#45;&gt;Node4</title>
<path fill="none" stroke="midnightblue" d="M1250.43,-366.759C1123.89,-358.313 675.302,-328.37 524.711,-318.318"/>
<polygon fill="midnightblue" stroke="midnightblue" points="1250.45,-370.268 1260.66,-367.442 1250.92,-363.284 1250.45,-370.268"/>
</g>
<!-- Node15 -->
<g id="node15" class="node"><title>Node15</title>
<g id="a_node15"><a xlink:href="a00060.html" target="_top" xlink:title="comparison&#45;type.hh">
<polygon fill="white" stroke="black" points="875,-304.5 875,-323.5 977,-323.5 977,-304.5 875,-304.5"/>
<text text-anchor="middle" x="926" y="-311.5" font-family="Helvetica,sans-Serif" font-size="10.00">comparison&#45;type.hh</text>
</a>
</g>
</g>
<!-- Node1&#45;&gt;Node15 -->
<g id="edge16" class="edge"><title>Node1&#45;&gt;Node15</title>
<path fill="none" stroke="midnightblue" d="M1250.64,-363.968C1187.79,-354.487 1051.46,-333.923 977.019,-322.696"/>
<polygon fill="midnightblue" stroke="midnightblue" points="1250.38,-367.468 1260.79,-365.499 1251.42,-360.546 1250.38,-367.468"/>
</g>
<!-- Node17 -->
<g id="node17" class="node"><title>Node17</title>
<g id="a_node17"><a xlink:href="a00093.html" target="_top" xlink:title="problem&#45;solver.hh">
<polygon fill="white" stroke="black" points="763,-0.5 763,-19.5 857,-19.5 857,-0.5 763,-0.5"/>
<text text-anchor="middle" x="810" y="-7.5" font-family="Helvetica,sans-Serif" font-size="10.00">problem&#45;solver.hh</text>
</a>
</g>
</g>
<!-- Node1&#45;&gt;Node17 -->
<g id="edge66" class="edge"><title>Node1&#45;&gt;Node17</title>
<path fill="none" stroke="midnightblue" d="M1250.66,-369.133C1131.39,-368.725 733,-359.398 733,-253 733,-253 733,-253 733,-121 733,-76.0095 776.765,-36.335 798.305,-19.5325"/>
<polygon fill="midnightblue" stroke="midnightblue" points="1250.67,-372.633 1260.68,-369.148 1250.68,-365.633 1250.67,-372.633"/>
</g>
<!-- Node18 -->
<g id="node18" class="node"><title>Node18</title>
<g id="a_node18"><a xlink:href="a00076.html" target="_top" xlink:title="equation.hh">
<polygon fill="white" stroke="black" points="907.5,-242.5 907.5,-261.5 974.5,-261.5 974.5,-242.5 907.5,-242.5"/>
<text text-anchor="middle" x="941" y="-249.5" font-family="Helvetica,sans-Serif" font-size="10.00">equation.hh</text>
</a>
</g>
</g>
<!-- Node1&#45;&gt;Node18 -->
<g id="edge40" class="edge"><title>Node1&#45;&gt;Node18</title>
<path fill="none" stroke="midnightblue" d="M1250.41,-368.356C1200.09,-366.25 1103.15,-357.72 1029,-324 995.048,-308.561 963.019,-276.929 948.761,-261.646"/>
<polygon fill="midnightblue" stroke="midnightblue" points="1250.58,-371.864 1260.7,-368.723 1250.83,-364.869 1250.58,-371.864"/>
</g>
<!-- Node21 -->
<g id="node21" class="node"><title>Node21</title>
<g id="a_node21"><a xlink:href="a00067.html" target="_top" xlink:title="constraint.hh">
<polygon fill="white" stroke="black" points="1117.5,-304.5 1117.5,-323.5 1190.5,-323.5 1190.5,-304.5 1117.5,-304.5"/>
<text text-anchor="middle" x="1154" y="-311.5" font-family="Helvetica,sans-Serif" font-size="10.00">constraint.hh</text>
</a>
</g>
</g>
<!-- Node1&#45;&gt;Node21 -->
<g id="edge23" class="edge"><title>Node1&#45;&gt;Node21</title>
<path fill="none" stroke="midnightblue" d="M1253.91,-356.503C1229.54,-346.38 1195.86,-332.388 1174.5,-323.516"/>
<polygon fill="midnightblue" stroke="midnightblue" points="1252.82,-359.84 1263.4,-360.444 1255.51,-353.375 1252.82,-359.84"/>
</g>
<!-- Node23 -->
<g id="node23" class="node"><title>Node23</title>
<g id="a_node23"><a xlink:href="a00091.html" target="_top" xlink:title="path.hh">
<polygon fill="white" stroke="black" points="1129.5,-174.5 1129.5,-193.5 1178.5,-193.5 1178.5,-174.5 1129.5,-174.5"/>
<text text-anchor="middle" x="1154" y="-181.5" font-family="Helvetica,sans-Serif" font-size="10.00">path.hh</text>
</a>
</g>
</g>
<!-- Node1&#45;&gt;Node23 -->
<g id="edge62" class="edge"><title>Node1&#45;&gt;Node23</title>
<path fill="none" stroke="midnightblue" d="M1275.71,-351.219C1262.94,-324.744 1236.78,-274.006 1207,-236 1194.08,-219.517 1175.96,-203.222 1164.61,-193.639"/>
<polygon fill="midnightblue" stroke="midnightblue" points="1272.62,-352.861 1280.07,-360.393 1278.94,-349.859 1272.62,-352.861"/>
</g>
<!-- Node25 -->
<g id="node25" class="node"><title>Node25</title>
<g id="a_node25"><a xlink:href="a00090.html" target="_top" xlink:title="path&#45;vector.hh">
<polygon fill="white" stroke="black" points="876.5,-112.5 876.5,-131.5 955.5,-131.5 955.5,-112.5 876.5,-112.5"/>
<text text-anchor="middle" x="916" y="-119.5" font-family="Helvetica,sans-Serif" font-size="10.00">path&#45;vector.hh</text>
</a>
</g>
</g>
<!-- Node1&#45;&gt;Node25 -->
<g id="edge63" class="edge"><title>Node1&#45;&gt;Node25</title>
<path fill="none" stroke="midnightblue" d="M1250.83,-368.281C1212.63,-365.837 1149.79,-356.672 1108,-324 1045.97,-275.497 1082.37,-220.854 1024,-168 1003.9,-149.799 975.392,-138.344 952.713,-131.548"/>
<polygon fill="midnightblue" stroke="midnightblue" points="1250.75,-371.781 1260.91,-368.806 1251.11,-364.79 1250.75,-371.781"/>
</g>
<!-- Node26 -->
<g id="node26" class="node"><title>Node26</title>
<g id="a_node26"><a xlink:href="a00087.html" target="_top" xlink:title="path&#45;projector.hh">
<polygon fill="white" stroke="black" points="1289.5,-56.5 1289.5,-75.5 1378.5,-75.5 1378.5,-56.5 1289.5,-56.5"/>
<text text-anchor="middle" x="1334" y="-63.5" font-family="Helvetica,sans-Serif" font-size="10.00">path&#45;projector.hh</text>
</a>
</g>
</g>
<!-- Node1&#45;&gt;Node26 -->
<g id="edge64" class="edge"><title>Node1&#45;&gt;Node26</title>
<path fill="none" stroke="midnightblue" d="M1294.9,-351.604C1299.82,-343.393 1305.53,-333.362 1310,-324 1349.44,-241.49 1367.27,-221.909 1384,-132 1385.63,-123.261 1387.62,-120.12 1384,-112 1376.87,-95.9975 1360.93,-83.2984 1348.95,-75.5256"/>
<polygon fill="midnightblue" stroke="midnightblue" points="1291.84,-349.901 1289.6,-360.257 1297.81,-353.558 1291.84,-349.901"/>
</g>
<!-- Node29 -->
<g id="node29" class="node"><title>Node29</title>
<g id="a_node29"><a xlink:href="a00101.html" target="_top" xlink:title="straight&#45;path.hh">
<polygon fill="white" stroke="black" points="1292,-112.5 1292,-131.5 1376,-131.5 1376,-112.5 1292,-112.5"/>
<text text-anchor="middle" x="1334" y="-119.5" font-family="Helvetica,sans-Serif" font-size="10.00">straight&#45;path.hh</text>
</a>
</g>
</g>
<!-- Node1&#45;&gt;Node29 -->
<g id="edge65" class="edge"><title>Node1&#45;&gt;Node29</title>
<path fill="none" stroke="midnightblue" d="M1287.81,-350.25C1297.91,-300.572 1325.07,-166.95 1332.24,-131.65"/>
<polygon fill="midnightblue" stroke="midnightblue" points="1284.34,-349.748 1285.78,-360.245 1291.2,-351.142 1284.34,-349.748"/>
</g>
<!-- Node33 -->
<g id="node33" class="node"><title>Node33</title>
<g id="a_node33"><a xlink:href="a00065.html" target="_top" xlink:title="connected&#45;component.hh">
<polygon fill="white" stroke="black" points="1369,-242.5 1369,-261.5 1495,-261.5 1495,-242.5 1369,-242.5"/>
<text text-anchor="middle" x="1432" y="-249.5" font-family="Helvetica,sans-Serif" font-size="10.00">connected&#45;component.hh</text>
</a>
</g>
</g>
<!-- Node1&#45;&gt;Node33 -->
<g id="edge41" class="edge"><title>Node1&#45;&gt;Node33</title>
<path fill="none" stroke="midnightblue" d="M1307.86,-355.349C1321.99,-346.91 1340,-335.52 1355,-324 1381.54,-303.622 1409.7,-275.858 1423.45,-261.854"/>
<polygon fill="midnightblue" stroke="midnightblue" points="1306.05,-352.352 1299.21,-360.44 1309.6,-358.385 1306.05,-352.352"/>
</g>
<!-- Node34 -->
<g id="node34" class="node"><title>Node34</title>
<g id="a_node34"><a xlink:href="a00080.html" target="_top" xlink:title="node.hh">
<polygon fill="white" stroke="black" points="1407.5,-304.5 1407.5,-323.5 1458.5,-323.5 1458.5,-304.5 1407.5,-304.5"/>
<text text-anchor="middle" x="1433" y="-311.5" font-family="Helvetica,sans-Serif" font-size="10.00">node.hh</text>
</a>
</g>
</g>
<!-- Node1&#45;&gt;Node34 -->
<g id="edge42" class="edge"><title>Node1&#45;&gt;Node34</title>
<path fill="none" stroke="midnightblue" d="M1317.03,-357.03C1345.02,-346.885 1384.48,-332.585 1409.39,-323.556"/>
<polygon fill="midnightblue" stroke="midnightblue" points="1315.49,-353.865 1307.28,-360.562 1317.88,-360.446 1315.49,-353.865"/>
</g>
<!-- Node35 -->
<g id="node35" class="node"><title>Node35</title>
<g id="a_node35"><a xlink:href="a00089.html" target="_top" xlink:title="path&#45;validation.hh">
<polygon fill="white" stroke="black" points="611.5,-242.5 611.5,-261.5 704.5,-261.5 704.5,-242.5 611.5,-242.5"/>
<text text-anchor="middle" x="658" y="-249.5" font-family="Helvetica,sans-Serif" font-size="10.00">path&#45;validation.hh</text>
</a>
</g>
</g>
<!-- Node1&#45;&gt;Node35 -->
<g id="edge44" class="edge"><title>Node1&#45;&gt;Node35</title>
<path fill="none" stroke="midnightblue" d="M1250.45,-367.813C1136.14,-363.564 766.376,-348.08 719,-324 691.33,-309.936 670.993,-277.336 662.449,-261.687"/>
<polygon fill="midnightblue" stroke="midnightblue" points="1250.57,-371.319 1260.69,-368.189 1250.83,-364.324 1250.57,-371.319"/>
</g>
<!-- Node36 -->
<g id="node36" class="node"><title>Node36</title>
<g id="a_node36"><a xlink:href="a00086.html" target="_top" xlink:title="path&#45;planner.hh">
<polygon fill="white" stroke="black" points="1491.5,-304.5 1491.5,-323.5 1574.5,-323.5 1574.5,-304.5 1491.5,-304.5"/>
<text text-anchor="middle" x="1533" y="-311.5" font-family="Helvetica,sans-Serif" font-size="10.00">path&#45;planner.hh</text>
</a>
</g>
</g>
<!-- Node1&#45;&gt;Node36 -->
<g id="edge48" class="edge"><title>Node1&#45;&gt;Node36</title>
<path fill="none" stroke="midnightblue" d="M1317.41,-361.754C1363.12,-351.842 1444.98,-334.088 1493.61,-323.542"/>
<polygon fill="midnightblue" stroke="midnightblue" points="1316.46,-358.38 1307.43,-363.92 1317.94,-365.221 1316.46,-358.38"/>
</g>
<!-- Node40 -->
<g id="node40" class="node"><title>Node40</title>
<g id="a_node40"><a xlink:href="a00073.html" target="_top" xlink:title="distance&#45;between&#45;objects.hh">
<polygon fill="white" stroke="black" points="1592.5,-304.5 1592.5,-323.5 1733.5,-323.5 1733.5,-304.5 1592.5,-304.5"/>
<text text-anchor="middle" x="1663" y="-311.5" font-family="Helvetica,sans-Serif" font-size="10.00">distance&#45;between&#45;objects.hh</text>
</a>
</g>
</g>
<!-- Node1&#45;&gt;Node40 -->
<g id="edge52" class="edge"><title>Node1&#45;&gt;Node40</title>
<path fill="none" stroke="midnightblue" d="M1317.07,-364.288C1381,-355.179 1522.35,-335.04 1603.18,-323.523"/>
<polygon fill="midnightblue" stroke="midnightblue" points="1316.54,-360.828 1307.14,-365.703 1317.53,-367.758 1316.54,-360.828"/>
</g>
<!-- Node41 -->
<g id="node41" class="node"><title>Node41</title>
<g id="a_node41"><a xlink:href="a00074.html" target="_top" xlink:title="distance.hh">
<polygon fill="white" stroke="black" points="1202.5,-174.5 1202.5,-193.5 1269.5,-193.5 1269.5,-174.5 1202.5,-174.5"/>
<text text-anchor="middle" x="1236" y="-181.5" font-family="Helvetica,sans-Serif" font-size="10.00">distance.hh</text>
</a>
</g>
</g>
<!-- Node1&#45;&gt;Node41 -->
<g id="edge53" class="edge"><title>Node1&#45;&gt;Node41</title>
<path fill="none" stroke="midnightblue" d="M1279.13,-350.318C1268.93,-311.224 1245.67,-222.075 1238.29,-193.786"/>
<polygon fill="midnightblue" stroke="midnightblue" points="1275.77,-351.333 1281.68,-360.125 1282.55,-349.566 1275.77,-351.333"/>
</g>
<!-- Node43 -->
<g id="node43" class="node"><title>Node43</title>
<g id="a_node43"><a xlink:href="a00075.html" target="_top" xlink:title="edge.hh">
<polygon fill="white" stroke="black" points="1751.5,-304.5 1751.5,-323.5 1802.5,-323.5 1802.5,-304.5 1751.5,-304.5"/>
<text text-anchor="middle" x="1777" y="-311.5" font-family="Helvetica,sans-Serif" font-size="10.00">edge.hh</text>
</a>
</g>
</g>
<!-- Node1&#45;&gt;Node43 -->
<g id="edge56" class="edge"><title>Node1&#45;&gt;Node43</title>
<path fill="none" stroke="midnightblue" d="M1317.39,-367.481C1393.32,-363.643 1584.52,-351.814 1742,-324 1745.09,-323.454 1748.31,-322.779 1751.48,-322.044"/>
<polygon fill="midnightblue" stroke="midnightblue" points="1316.86,-364.003 1307.04,-367.99 1317.2,-370.994 1316.86,-364.003"/>
</g>
<!-- Node44 -->
<g id="node44" class="node"><title>Node44</title>
<g id="a_node44"><a xlink:href="a00068.html" target="_top" xlink:title="cost.hh">
<polygon fill="white" stroke="black" points="1850.5,-304.5 1850.5,-323.5 1899.5,-323.5 1899.5,-304.5 1850.5,-304.5"/>
<text text-anchor="middle" x="1875" y="-311.5" font-family="Helvetica,sans-Serif" font-size="10.00">cost.hh</text>
</a>
</g>
</g>
<!-- Node1&#45;&gt;Node44 -->
<g id="edge57" class="edge"><title>Node1&#45;&gt;Node44</title>
<path fill="none" stroke="midnightblue" d="M1317.29,-366.791C1400.61,-361.123 1624.81,-345.025 1811,-324 1824.05,-322.527 1838.53,-320.52 1850.42,-318.776"/>
<polygon fill="midnightblue" stroke="midnightblue" points="1316.9,-363.309 1307.16,-367.475 1317.37,-370.293 1316.9,-363.309"/>
</g>
<!-- Node46 -->
<g id="node46" class="node"><title>Node46</title>
<g id="a_node46"><a xlink:href="a00085.html" target="_top" xlink:title="path&#45;optimizer.hh">
<polygon fill="white" stroke="black" points="1977,-304.5 1977,-323.5 2069,-323.5 2069,-304.5 1977,-304.5"/>
<text text-anchor="middle" x="2023" y="-311.5" font-family="Helvetica,sans-Serif" font-size="10.00">path&#45;optimizer.hh</text>
</a>
</g>
</g>
<!-- Node1&#45;&gt;Node46 -->
<g id="edge59" class="edge"><title>Node1&#45;&gt;Node46</title>
<path fill="none" stroke="midnightblue" d="M1317.48,-366.658C1410.92,-360.106 1682.44,-340.959 1908,-324 1930.67,-322.296 1955.84,-320.334 1976.84,-318.677"/>
<polygon fill="midnightblue" stroke="midnightblue" points="1316.97,-363.185 1307.24,-367.376 1317.46,-370.168 1316.97,-363.185"/>
</g>
<!-- Node49 -->
<g id="node49" class="node"><title>Node49</title>
<g id="a_node49"><a xlink:href="a00098.html" target="_top" xlink:title="roadmap.hh">
<polygon fill="white" stroke="black" points="2087,-304.5 2087,-323.5 2155,-323.5 2155,-304.5 2087,-304.5"/>
<text text-anchor="middle" x="2121" y="-311.5" font-family="Helvetica,sans-Serif" font-size="10.00">roadmap.hh</text>
</a>
</g>
</g>
<!-- Node1&#45;&gt;Node49 -->
<g id="edge67" class="edge"><title>Node1&#45;&gt;Node49</title>
<path fill="none" stroke="midnightblue" d="M1317.27,-368.893C1426.65,-368.161 1784.92,-362.755 2078,-324 2080.87,-323.62 2083.84,-323.155 2086.81,-322.637"/>
<polygon fill="midnightblue" stroke="midnightblue" points="1317.16,-365.393 1307.18,-368.951 1317.2,-372.393 1317.16,-365.393"/>
</g>
<!-- Node3 -->
<g id="node3" class="node"><title>Node3</title>
<g id="a_node3"><a xlink:href="a00056.html" target="_top" xlink:title="basic&#45;configuration\l&#45;shooter.hh">
<polygon fill="white" stroke="black" points="122,-237 122,-267 220,-267 220,-237 122,-237"/>
<text text-anchor="start" x="130" y="-255" font-family="Helvetica,sans-Serif" font-size="10.00">basic&#45;configuration</text>
<text text-anchor="middle" x="171" y="-244" font-family="Helvetica,sans-Serif" font-size="10.00">&#45;shooter.hh</text>
</a>
</g>
</g>
<!-- Node2&#45;&gt;Node3 -->
<g id="edge2" class="edge"><title>Node2&#45;&gt;Node3</title>
<path fill="none" stroke="midnightblue" d="M214.5,-297.238C205.322,-287.904 193.789,-276.176 184.905,-267.141"/>
<polygon fill="midnightblue" stroke="midnightblue" points="212.04,-299.727 221.547,-304.403 217.031,-294.819 212.04,-299.727"/>
</g>
<!-- Node5 -->
<g id="node5" class="node"><title>Node5</title>
<g id="a_node5"><a xlink:href="a00088.html" target="_top" xlink:title="path&#45;validation&#45;report.hh">
<polygon fill="white" stroke="black" points="472.5,-242.5 472.5,-261.5 593.5,-261.5 593.5,-242.5 472.5,-242.5"/>
<text text-anchor="middle" x="533" y="-249.5" font-family="Helvetica,sans-Serif" font-size="10.00">path&#45;validation&#45;report.hh</text>
</a>
</g>
</g>
<!-- Node4&#45;&gt;Node5 -->
<g id="edge4" class="edge"><title>Node4&#45;&gt;Node5</title>
<path fill="none" stroke="midnightblue" d="M490.28,-297.193C501.3,-285.793 515.753,-270.841 524.705,-261.581"/>
<polygon fill="midnightblue" stroke="midnightblue" points="487.744,-294.781 483.31,-304.403 492.777,-299.646 487.744,-294.781"/>
</g>
<!-- Node10 -->
<g id="node10" class="node"><title>Node10</title>
<g id="a_node10"><a xlink:href="a00058.html" target="_top" xlink:title="collision&#45;validation\l&#45;report.hh">
<polygon fill="white" stroke="black" points="358,-237 358,-267 454,-267 454,-237 358,-237"/>
<text text-anchor="start" x="366" y="-255" font-family="Helvetica,sans-Serif" font-size="10.00">collision&#45;validation</text>
<text text-anchor="middle" x="406" y="-244" font-family="Helvetica,sans-Serif" font-size="10.00">&#45;report.hh</text>
</a>
</g>
</g>
<!-- Node4&#45;&gt;Node10 -->
<g id="edge9" class="edge"><title>Node4&#45;&gt;Node10</title>
<path fill="none" stroke="midnightblue" d="M457.514,-297.795C446.68,-288.374 432.86,-276.356 422.262,-267.141"/>
<polygon fill="midnightblue" stroke="midnightblue" points="455.271,-300.483 465.114,-304.403 459.865,-295.201 455.271,-300.483"/>
</g>
<!-- Node12 -->
<g id="node12" class="node"><title>Node12</title>
<g id="a_node12"><a xlink:href="a00062.html" target="_top" xlink:title="config&#45;validation.hh">
<polygon fill="white" stroke="black" points="238.5,-242.5 238.5,-261.5 339.5,-261.5 339.5,-242.5 238.5,-242.5"/>
<text text-anchor="middle" x="289" y="-249.5" font-family="Helvetica,sans-Serif" font-size="10.00">config&#45;validation.hh</text>
</a>
</g>
</g>
<!-- Node4&#45;&gt;Node12 -->
<g id="edge12" class="edge"><title>Node4&#45;&gt;Node12</title>
<path fill="none" stroke="midnightblue" d="M438.677,-301.283C402.523,-289.62 347.897,-271.999 315.6,-261.581"/>
<polygon fill="midnightblue" stroke="midnightblue" points="437.759,-304.664 448.351,-304.403 439.908,-298.002 437.759,-304.664"/>
</g>
<!-- Node6 -->
<g id="node6" class="node"><title>Node6</title>
<g id="a_node6"><a xlink:href="a00057.html" target="_top" xlink:title="collision&#45;path&#45;validation\l&#45;report.hh">
<polygon fill="white" stroke="black" points="391,-169 391,-199 509,-199 509,-169 391,-169"/>
<text text-anchor="start" x="399" y="-187" font-family="Helvetica,sans-Serif" font-size="10.00">collision&#45;path&#45;validation</text>
<text text-anchor="middle" x="450" y="-176" font-family="Helvetica,sans-Serif" font-size="10.00">&#45;report.hh</text>
</a>
</g>
</g>
<!-- Node5&#45;&gt;Node6 -->
<g id="edge5" class="edge"><title>Node5&#45;&gt;Node6</title>
<path fill="none" stroke="midnightblue" d="M514.22,-236.066C500.32,-225.013 481.504,-210.051 467.834,-199.181"/>
<polygon fill="midnightblue" stroke="midnightblue" points="512.144,-238.887 522.149,-242.372 516.501,-233.408 512.144,-238.887"/>
</g>
<!-- Node9 -->
<g id="node9" class="node"><title>Node9</title>
<g id="a_node9"><a xlink:href="a00072.html" target="_top" xlink:title="discretized&#45;collision\l&#45;checking.hh">
<polygon fill="white" stroke="black" points="527,-169 527,-199 629,-199 629,-169 527,-169"/>
<text text-anchor="start" x="535" y="-187" font-family="Helvetica,sans-Serif" font-size="10.00">discretized&#45;collision</text>
<text text-anchor="middle" x="578" y="-176" font-family="Helvetica,sans-Serif" font-size="10.00">&#45;checking.hh</text>
</a>
</g>
</g>
<!-- Node5&#45;&gt;Node9 -->
<g id="edge8" class="edge"><title>Node5&#45;&gt;Node9</title>
<path fill="none" stroke="midnightblue" d="M544.708,-233.828C552.053,-223.055 561.409,-209.334 568.331,-199.181"/>
<polygon fill="midnightblue" stroke="midnightblue" points="541.625,-232.138 538.883,-242.372 547.408,-236.081 541.625,-232.138"/>
</g>
<!-- Node7 -->
<g id="node7" class="node"><title>Node7</title>
<g id="a_node7"><a xlink:href="a00069.html" target="_top" xlink:title="dichotomy.hh">
<polygon fill="white" stroke="black" points="442.5,-112.5 442.5,-131.5 517.5,-131.5 517.5,-112.5 442.5,-112.5"/>
<text text-anchor="middle" x="480" y="-119.5" font-family="Helvetica,sans-Serif" font-size="10.00">dichotomy.hh</text>
</a>
</g>
</g>
<!-- Node6&#45;&gt;Node7 -->
<g id="edge6" class="edge"><title>Node6&#45;&gt;Node7</title>
<path fill="none" stroke="midnightblue" d="M461.596,-159.808C466.517,-149.965 471.955,-139.09 475.635,-131.731"/>
<polygon fill="midnightblue" stroke="midnightblue" points="458.451,-158.271 457.11,-168.781 464.712,-161.402 458.451,-158.271"/>
</g>
<!-- Node8 -->
<g id="node8" class="node"><title>Node8</title>
<g id="a_node8"><a xlink:href="a00095.html" target="_top" xlink:title="progressive.hh">
<polygon fill="white" stroke="black" points="595,-112.5 595,-131.5 675,-131.5 675,-112.5 595,-112.5"/>
<text text-anchor="middle" x="635" y="-119.5" font-family="Helvetica,sans-Serif" font-size="10.00">progressive.hh</text>
</a>
</g>
</g>
<!-- Node6&#45;&gt;Node8 -->
<g id="edge7" class="edge"><title>Node6&#45;&gt;Node8</title>
<path fill="none" stroke="midnightblue" d="M503.328,-165.705C537.904,-154.491 581.438,-140.372 608.753,-131.513"/>
<polygon fill="midnightblue" stroke="midnightblue" points="501.807,-162.518 493.374,-168.933 503.966,-169.177 501.807,-162.518"/>
</g>
<!-- Node10&#45;&gt;Node6 -->
<g id="edge10" class="edge"><title>Node10&#45;&gt;Node6</title>
<path fill="none" stroke="midnightblue" d="M421.124,-228.314C427.541,-218.689 434.824,-207.763 440.471,-199.293"/>
<polygon fill="midnightblue" stroke="midnightblue" points="418.182,-226.417 415.547,-236.679 424.007,-230.3 418.182,-226.417"/>
</g>
<!-- Node11 -->
<g id="node11" class="node"><title>Node11</title>
<g id="a_node11"><a xlink:href="a00059.html" target="_top" xlink:title="collision&#45;validation.hh">
<polygon fill="white" stroke="black" points="263,-174.5 263,-193.5 373,-193.5 373,-174.5 263,-174.5"/>
<text text-anchor="middle" x="318" y="-181.5" font-family="Helvetica,sans-Serif" font-size="10.00">collision&#45;validation.hh</text>
</a>
</g>
</g>
<!-- Node10&#45;&gt;Node11 -->
<g id="edge11" class="edge"><title>Node10&#45;&gt;Node11</title>
<path fill="none" stroke="midnightblue" d="M378.66,-230.495C362.135,-218.101 341.932,-202.949 329.517,-193.638"/>
<polygon fill="midnightblue" stroke="midnightblue" points="376.805,-233.479 386.905,-236.679 381.005,-227.879 376.805,-233.479"/>
</g>
<!-- Node12&#45;&gt;Node11 -->
<g id="edge13" class="edge"><title>Node12&#45;&gt;Node11</title>
<path fill="none" stroke="midnightblue" d="M296.827,-233.186C302.422,-220.452 309.713,-203.861 314.115,-193.841"/>
<polygon fill="midnightblue" stroke="midnightblue" points="293.61,-231.808 292.791,-242.372 300.018,-234.624 293.61,-231.808"/>
</g>
<!-- Node13 -->
<g id="node13" class="node"><title>Node13</title>
<g id="a_node13"><a xlink:href="a00063.html" target="_top" xlink:title="config&#45;validations.hh">
<polygon fill="white" stroke="black" points="-1,-174.5 -1,-193.5 105,-193.5 105,-174.5 -1,-174.5"/>
<text text-anchor="middle" x="52" y="-181.5" font-family="Helvetica,sans-Serif" font-size="10.00">config&#45;validations.hh</text>
</a>
</g>
</g>
<!-- Node12&#45;&gt;Node13 -->
<g id="edge14" class="edge"><title>Node12&#45;&gt;Node13</title>
<path fill="none" stroke="midnightblue" d="M248.154,-239.625C201.098,-226.521 124.852,-205.288 82.6157,-193.526"/>
<polygon fill="midnightblue" stroke="midnightblue" points="247.444,-243.061 258.016,-242.372 249.322,-236.317 247.444,-243.061"/>
</g>
<!-- Node14 -->
<g id="node14" class="node"><title>Node14</title>
<g id="a_node14"><a xlink:href="a00078.html" target="_top" xlink:title="joint&#45;bound&#45;validation.hh">
<polygon fill="white" stroke="black" points="123,-174.5 123,-193.5 245,-193.5 245,-174.5 123,-174.5"/>
<text text-anchor="middle" x="184" y="-181.5" font-family="Helvetica,sans-Serif" font-size="10.00">joint&#45;bound&#45;validation.hh</text>
</a>
</g>
</g>
<!-- Node12&#45;&gt;Node14 -->
<g id="edge15" class="edge"><title>Node12&#45;&gt;Node14</title>
<path fill="none" stroke="midnightblue" d="M266.709,-236.988C245.82,-223.858 215.261,-204.65 197.73,-193.63"/>
<polygon fill="midnightblue" stroke="midnightblue" points="264.944,-240.013 275.273,-242.372 268.669,-234.087 264.944,-240.013"/>
</g>
<!-- Node16 -->
<g id="node16" class="node"><title>Node16</title>
<g id="a_node16"><a xlink:href="a00061.html" target="_top" xlink:title="config&#45;projector.hh">
<polygon fill="white" stroke="black" points="761.5,-112.5 761.5,-131.5 858.5,-131.5 858.5,-112.5 761.5,-112.5"/>
<text text-anchor="middle" x="810" y="-119.5" font-family="Helvetica,sans-Serif" font-size="10.00">config&#45;projector.hh</text>
</a>
</g>
</g>
<!-- Node15&#45;&gt;Node16 -->
<g id="edge17" class="edge"><title>Node15&#45;&gt;Node16</title>
<path fill="none" stroke="midnightblue" d="M898.415,-299.65C865.557,-282.02 812.314,-247.552 790,-200 779.087,-176.744 794.59,-146.634 803.884,-131.906"/>
<polygon fill="midnightblue" stroke="midnightblue" points="897.013,-302.866 907.5,-304.376 900.243,-296.656 897.013,-302.866"/>
</g>
<!-- Node15&#45;&gt;Node18 -->
<g id="edge19" class="edge"><title>Node15&#45;&gt;Node18</title>
<path fill="none" stroke="midnightblue" d="M930.624,-294.503C933.368,-283.527 936.718,-270.129 938.855,-261.581"/>
<polygon fill="midnightblue" stroke="midnightblue" points="927.179,-293.853 928.149,-304.403 933.97,-295.551 927.179,-293.853"/>
</g>
<!-- Node16&#45;&gt;Node17 -->
<g id="edge18" class="edge"><title>Node16&#45;&gt;Node17</title>
<path fill="none" stroke="midnightblue" d="M810,-102.348C810,-78.2538 810,-37.3079 810,-19.5914"/>
<polygon fill="midnightblue" stroke="midnightblue" points="806.5,-102.368 810,-112.368 813.5,-102.369 806.5,-102.368"/>
</g>
<!-- Node19 -->
<g id="node19" class="node"><title>Node19</title>
<g id="a_node19"><a xlink:href="a00081.html" target="_top" xlink:title="numerical&#45;constraint.hh">
<polygon fill="white" stroke="black" points="897,-174.5 897,-193.5 1015,-193.5 1015,-174.5 897,-174.5"/>
<text text-anchor="middle" x="956" y="-181.5" font-family="Helvetica,sans-Serif" font-size="10.00">numerical&#45;constraint.hh</text>
</a>
</g>
</g>
<!-- Node18&#45;&gt;Node19 -->
<g id="edge20" class="edge"><title>Node18&#45;&gt;Node19</title>
<path fill="none" stroke="midnightblue" d="M945.222,-232.425C948.091,-219.798 951.759,-203.662 953.991,-193.841"/>
<polygon fill="midnightblue" stroke="midnightblue" points="941.764,-231.845 942.961,-242.372 948.59,-233.396 941.764,-231.845"/>
</g>
<!-- Node20 -->
<g id="node20" class="node"><title>Node20</title>
<g id="a_node20"><a xlink:href="a00079.html" target="_top" xlink:title="locked&#45;joint.hh">
<polygon fill="white" stroke="black" points="799,-174.5 799,-193.5 879,-193.5 879,-174.5 799,-174.5"/>
<text text-anchor="middle" x="839" y="-181.5" font-family="Helvetica,sans-Serif" font-size="10.00">locked&#45;joint.hh</text>
</a>
</g>
</g>
<!-- Node18&#45;&gt;Node20 -->
<g id="edge22" class="edge"><title>Node18&#45;&gt;Node20</title>
<path fill="none" stroke="midnightblue" d="M919.072,-236.811C898.788,-223.686 869.292,-204.6 852.338,-193.63"/>
<polygon fill="midnightblue" stroke="midnightblue" points="917.368,-239.878 927.665,-242.372 921.171,-234.001 917.368,-239.878"/>
</g>
<!-- Node19&#45;&gt;Node16 -->
<g id="edge21" class="edge"><title>Node19&#45;&gt;Node16</title>
<path fill="none" stroke="midnightblue" d="M925.65,-170.527C897.285,-158.871 855.689,-141.776 830.879,-131.581"/>
<polygon fill="midnightblue" stroke="midnightblue" points="924.502,-173.84 935.082,-174.403 927.163,-167.365 924.502,-173.84"/>
</g>
<!-- Node21&#45;&gt;Node16 -->
<g id="edge24" class="edge"><title>Node21&#45;&gt;Node16</title>
<path fill="none" stroke="midnightblue" d="M1134.35,-297.973C1123.97,-289.631 1111.28,-278.784 1101,-268 1062.29,-227.4 1071.5,-197.841 1024,-168 1010.1,-159.265 917.255,-141.785 858.514,-131.369"/>
<polygon fill="midnightblue" stroke="midnightblue" points="1132.41,-300.896 1142.43,-304.334 1136.74,-295.397 1132.41,-300.896"/>
</g>
<!-- Node22 -->
<g id="node22" class="node"><title>Node22</title>
<g id="a_node22"><a xlink:href="a00066.html" target="_top" xlink:title="constraint&#45;set.hh">
<polygon fill="white" stroke="black" points="1109.5,-242.5 1109.5,-261.5 1198.5,-261.5 1198.5,-242.5 1109.5,-242.5"/>
<text text-anchor="middle" x="1154" y="-249.5" font-family="Helvetica,sans-Serif" font-size="10.00">constraint&#45;set.hh</text>
</a>
</g>
</g>
<!-- Node21&#45;&gt;Node22 -->
<g id="edge25" class="edge"><title>Node21&#45;&gt;Node22</title>
<path fill="none" stroke="midnightblue" d="M1154,-294.16C1154,-283.248 1154,-270.04 1154,-261.581"/>
<polygon fill="midnightblue" stroke="midnightblue" points="1150.5,-294.403 1154,-304.403 1157.5,-294.403 1150.5,-294.403"/>
</g>
<!-- Node22&#45;&gt;Node23 -->
<g id="edge26" class="edge"><title>Node22&#45;&gt;Node23</title>
<path fill="none" stroke="midnightblue" d="M1154,-232.041C1154,-219.472 1154,-203.563 1154,-193.841"/>
<polygon fill="midnightblue" stroke="midnightblue" points="1150.5,-232.372 1154,-242.372 1157.5,-232.372 1150.5,-232.372"/>
</g>
<!-- Node24 -->
<g id="node24" class="node"><title>Node24</title>
<g id="a_node24"><a xlink:href="a00083.html" target="_top" xlink:title="partial&#45;spline&#45;path.hh">
<polygon fill="white" stroke="black" points="872.5,-56.5 872.5,-75.5 979.5,-75.5 979.5,-56.5 872.5,-56.5"/>
<text text-anchor="middle" x="926" y="-63.5" font-family="Helvetica,sans-Serif" font-size="10.00">partial&#45;spline&#45;path.hh</text>
</a>
</g>
</g>
<!-- Node23&#45;&gt;Node24 -->
<g id="edge27" class="edge"><title>Node23&#45;&gt;Node24</title>
<path fill="none" stroke="midnightblue" d="M1119.6,-173.016C1081.62,-161.709 1023.19,-143.384 1003,-132 974.96,-116.19 947.449,-89.5279 934.192,-75.7809"/>
<polygon fill="midnightblue" stroke="midnightblue" points="1118.66,-176.389 1129.24,-175.869 1120.65,-169.677 1118.66,-176.389"/>
</g>
<!-- Node23&#45;&gt;Node25 -->
<g id="edge28" class="edge"><title>Node23&#45;&gt;Node25</title>
<path fill="none" stroke="midnightblue" d="M1119.48,-174.208C1111.45,-172.166 1102.93,-170.004 1095,-168 1044.52,-155.237 986,-140.546 949.989,-131.516"/>
<polygon fill="midnightblue" stroke="midnightblue" points="1118.76,-177.636 1129.32,-176.709 1120.49,-170.852 1118.76,-177.636"/>
</g>
<!-- Node23&#45;&gt;Node26 -->
<g id="edge30" class="edge"><title>Node23&#45;&gt;Node26</title>
<path fill="none" stroke="midnightblue" d="M1179.13,-169.726C1197.42,-159.83 1222.63,-145.711 1244,-132 1273.36,-113.159 1306.19,-88.4675 1322.91,-75.6167"/>
<polygon fill="midnightblue" stroke="midnightblue" points="1177.4,-166.679 1170.25,-174.492 1180.71,-172.847 1177.4,-166.679"/>
</g>
<!-- Node23&#45;&gt;Node29 -->
<g id="edge33" class="edge"><title>Node23&#45;&gt;Node29</title>
<path fill="none" stroke="midnightblue" d="M1185.2,-170.816C1187.83,-169.844 1190.46,-168.894 1193,-168 1231.66,-154.407 1276.88,-140.284 1305.48,-131.568"/>
<polygon fill="midnightblue" stroke="midnightblue" points="1183.9,-167.563 1175.78,-174.365 1186.37,-174.114 1183.9,-167.563"/>
</g>
<!-- Node31 -->
<g id="node31" class="node"><title>Node31</title>
<g id="a_node31"><a xlink:href="a00100.html" target="_top" xlink:title="steering&#45;method.hh">
<polygon fill="white" stroke="black" points="1012,-112.5 1012,-131.5 1112,-131.5 1112,-112.5 1012,-112.5"/>
<text text-anchor="middle" x="1062" y="-119.5" font-family="Helvetica,sans-Serif" font-size="10.00">steering&#45;method.hh</text>
</a>
</g>
</g>
<!-- Node23&#45;&gt;Node31 -->
<g id="edge36" class="edge"><title>Node23&#45;&gt;Node31</title>
<path fill="none" stroke="midnightblue" d="M1132.24,-168.811C1114.51,-157.244 1090.04,-141.287 1075.16,-131.581"/>
<polygon fill="midnightblue" stroke="midnightblue" points="1130.53,-171.872 1140.82,-174.403 1134.35,-166.009 1130.53,-171.872"/>
</g>
<!-- Node25&#45;&gt;Node24 -->
<g id="edge29" class="edge"><title>Node25&#45;&gt;Node24</title>
<path fill="none" stroke="midnightblue" d="M919.5,-102.101C921.16,-93.1357 923.063,-82.8579 924.379,-75.7511"/>
<polygon fill="midnightblue" stroke="midnightblue" points="916.031,-101.613 917.651,-112.083 922.914,-102.888 916.031,-101.613"/>
</g>
<!-- Node27 -->
<g id="node27" class="node"><title>Node27</title>
<g id="a_node27"><a xlink:href="a00070.html" target="_top" xlink:title="dichotomy.hh">
<polygon fill="white" stroke="black" points="1248.5,-0.5 1248.5,-19.5 1323.5,-19.5 1323.5,-0.5 1248.5,-0.5"/>
<text text-anchor="middle" x="1286" y="-7.5" font-family="Helvetica,sans-Serif" font-size="10.00">dichotomy.hh</text>
</a>
</g>
</g>
<!-- Node26&#45;&gt;Node27 -->
<g id="edge31" class="edge"><title>Node26&#45;&gt;Node27</title>
<path fill="none" stroke="midnightblue" d="M1319.27,-48.4314C1310.86,-38.9673 1300.65,-27.4827 1293.78,-19.7511"/>
<polygon fill="midnightblue" stroke="midnightblue" points="1316.81,-50.9342 1326.07,-56.083 1322.05,-46.2836 1316.81,-50.9342"/>
</g>
<!-- Node28 -->
<g id="node28" class="node"><title>Node28</title>
<g id="a_node28"><a xlink:href="a00096.html" target="_top" xlink:title="progressive.hh">
<polygon fill="white" stroke="black" points="1342,-0.5 1342,-19.5 1422,-19.5 1422,-0.5 1342,-0.5"/>
<text text-anchor="middle" x="1382" y="-7.5" font-family="Helvetica,sans-Serif" font-size="10.00">progressive.hh</text>
</a>
</g>
</g>
<!-- Node26&#45;&gt;Node28 -->
<g id="edge32" class="edge"><title>Node26&#45;&gt;Node28</title>
<path fill="none" stroke="midnightblue" d="M1348.73,-48.4314C1357.14,-38.9673 1367.35,-27.4827 1374.22,-19.7511"/>
<polygon fill="midnightblue" stroke="midnightblue" points="1345.95,-46.2836 1341.93,-56.083 1351.19,-50.9342 1345.95,-46.2836"/>
</g>
<!-- Node29&#45;&gt;Node26 -->
<g id="edge34" class="edge"><title>Node29&#45;&gt;Node26</title>
<path fill="none" stroke="midnightblue" d="M1334,-101.805C1334,-92.9102 1334,-82.7798 1334,-75.7511"/>
<polygon fill="midnightblue" stroke="midnightblue" points="1330.5,-102.083 1334,-112.083 1337.5,-102.083 1330.5,-102.083"/>
</g>
<!-- Node30 -->
<g id="node30" class="node"><title>Node30</title>
<g id="a_node30"><a xlink:href="a00099.html" target="_top" xlink:title="steering&#45;method&#45;straight.hh">
<polygon fill="white" stroke="black" points="1115.5,-56.5 1115.5,-75.5 1250.5,-75.5 1250.5,-56.5 1115.5,-56.5"/>
<text text-anchor="middle" x="1183" y="-63.5" font-family="Helvetica,sans-Serif" font-size="10.00">steering&#45;method&#45;straight.hh</text>
</a>
</g>
</g>
<!-- Node29&#45;&gt;Node30 -->
<g id="edge35" class="edge"><title>Node29&#45;&gt;Node30</title>
<path fill="none" stroke="midnightblue" d="M1300.55,-109.039C1272.14,-98.8786 1232.06,-84.5457 1206.81,-75.5164"/>
<polygon fill="midnightblue" stroke="midnightblue" points="1299.48,-112.372 1310.07,-112.444 1301.84,-105.781 1299.48,-112.372"/>
</g>
<!-- Node31&#45;&gt;Node30 -->
<g id="edge39" class="edge"><title>Node31&#45;&gt;Node30</title>
<path fill="none" stroke="midnightblue" d="M1090.31,-108.368C1112.97,-98.2553 1144.13,-84.3486 1163.92,-75.5164"/>
<polygon fill="midnightblue" stroke="midnightblue" points="1088.88,-105.172 1081.17,-112.444 1091.73,-111.564 1088.88,-105.172"/>
</g>
<!-- Node32 -->
<g id="node32" class="node"><title>Node32</title>
<g id="a_node32"><a xlink:href="a00094.html" target="_top" xlink:title="problem.hh">
<polygon fill="white" stroke="black" points="1018.5,-56.5 1018.5,-75.5 1083.5,-75.5 1083.5,-56.5 1018.5,-56.5"/>
<text text-anchor="middle" x="1051" y="-63.5" font-family="Helvetica,sans-Serif" font-size="10.00">problem.hh</text>
</a>
</g>
</g>
<!-- Node31&#45;&gt;Node32 -->
<g id="edge37" class="edge"><title>Node31&#45;&gt;Node32</title>
<path fill="none" stroke="midnightblue" d="M1058.15,-102.101C1056.32,-93.1357 1054.23,-82.8579 1052.78,-75.7511"/>
<polygon fill="midnightblue" stroke="midnightblue" points="1054.76,-102.983 1060.18,-112.083 1061.62,-101.586 1054.76,-102.983"/>
</g>
<!-- Node32&#45;&gt;Node17 -->
<g id="edge38" class="edge"><title>Node32&#45;&gt;Node17</title>
<path fill="none" stroke="midnightblue" d="M1008.68,-55.5181C963.359,-45.3625 892.066,-29.3883 848.337,-19.59"/>
<polygon fill="midnightblue" stroke="midnightblue" points="1007.97,-58.9461 1018.5,-57.7173 1009.5,-52.1155 1007.97,-58.9461"/>
</g>
<!-- Node34&#45;&gt;Node33 -->
<g id="edge43" class="edge"><title>Node34&#45;&gt;Node33</title>
<path fill="none" stroke="midnightblue" d="M1432.69,-294.16C1432.5,-283.248 1432.28,-270.04 1432.14,-261.581"/>
<polygon fill="midnightblue" stroke="midnightblue" points="1429.19,-294.463 1432.86,-304.403 1436.19,-294.346 1429.19,-294.463"/>
</g>
<!-- Node35&#45;&gt;Node7 -->
<g id="edge45" class="edge"><title>Node35&#45;&gt;Node7</title>
<path fill="none" stroke="midnightblue" d="M658.347,-232.173C657.649,-213.461 653.619,-185.148 637,-168 605.822,-135.829 553.325,-126.228 517.701,-123.591"/>
<polygon fill="midnightblue" stroke="midnightblue" points="654.849,-232.427 658.433,-242.397 661.848,-232.368 654.849,-232.427"/>
</g>
<!-- Node35&#45;&gt;Node8 -->
<g id="edge46" class="edge"><title>Node35&#45;&gt;Node8</title>
<path fill="none" stroke="midnightblue" d="M665.886,-232.625C672.082,-215.49 678.516,-189.428 671,-168 665.9,-153.461 653.908,-140.13 645.162,-131.815"/>
<polygon fill="midnightblue" stroke="midnightblue" points="662.594,-231.432 662.186,-242.019 669.107,-233.998 662.594,-231.432"/>
</g>
<!-- Node35&#45;&gt;Node9 -->
<g id="edge47" class="edge"><title>Node35&#45;&gt;Node9</title>
<path fill="none" stroke="midnightblue" d="M639.518,-235.752C626.159,-224.731 608.241,-209.949 595.19,-199.181"/>
<polygon fill="midnightblue" stroke="midnightblue" points="637.6,-238.708 647.541,-242.372 642.055,-233.308 637.6,-238.708"/>
</g>
<!-- Node37 -->
<g id="node37" class="node"><title>Node37</title>
<g id="a_node37"><a xlink:href="a00071.html" target="_top" xlink:title="diffusing&#45;planner.hh">
<polygon fill="white" stroke="black" points="1775.5,-242.5 1775.5,-261.5 1876.5,-261.5 1876.5,-242.5 1775.5,-242.5"/>
<text text-anchor="middle" x="1826" y="-249.5" font-family="Helvetica,sans-Serif" font-size="10.00">diffusing&#45;planner.hh</text>
</a>
</g>
</g>
<!-- Node36&#45;&gt;Node37 -->
<g id="edge49" class="edge"><title>Node36&#45;&gt;Node37</title>
<path fill="none" stroke="midnightblue" d="M1584.77,-303.34C1642.51,-292.506 1732.23,-275.477 1766,-268 1774.81,-266.05 1784.29,-263.765 1793.07,-261.575"/>
<polygon fill="midnightblue" stroke="midnightblue" points="1583.92,-299.938 1574.74,-305.22 1585.21,-306.818 1583.92,-299.938"/>
</g>
<!-- Node38 -->
<g id="node38" class="node"><title>Node38</title>
<g id="a_node38"><a xlink:href="a00092.html" target="_top" xlink:title="plan&#45;and&#45;optimize.hh">
<polygon fill="white" stroke="black" points="1513.5,-242.5 1513.5,-261.5 1620.5,-261.5 1620.5,-242.5 1513.5,-242.5"/>
<text text-anchor="middle" x="1567" y="-249.5" font-family="Helvetica,sans-Serif" font-size="10.00">plan&#45;and&#45;optimize.hh</text>
</a>
</g>
</g>
<!-- Node36&#45;&gt;Node38 -->
<g id="edge50" class="edge"><title>Node36&#45;&gt;Node38</title>
<path fill="none" stroke="midnightblue" d="M1542.9,-295.525C1549.22,-284.369 1557.14,-270.396 1562.14,-261.581"/>
<polygon fill="midnightblue" stroke="midnightblue" points="1539.76,-293.978 1537.87,-304.403 1545.85,-297.429 1539.76,-293.978"/>
</g>
<!-- Node39 -->
<g id="node39" class="node"><title>Node39</title>
<g id="a_node39"><a xlink:href="a00103.html" target="_top" xlink:title="visibility&#45;prm&#45;planner.hh">
<polygon fill="white" stroke="black" points="1638.5,-242.5 1638.5,-261.5 1757.5,-261.5 1757.5,-242.5 1638.5,-242.5"/>
<text text-anchor="middle" x="1698" y="-249.5" font-family="Helvetica,sans-Serif" font-size="10.00">visibility&#45;prm&#45;planner.hh</text>
</a>
</g>
</g>
<!-- Node36&#45;&gt;Node39 -->
<g id="edge51" class="edge"><title>Node36&#45;&gt;Node39</title>
<path fill="none" stroke="midnightblue" d="M1566.05,-300.983C1598.12,-289.32 1646,-271.91 1674.4,-261.581"/>
<polygon fill="midnightblue" stroke="midnightblue" points="1564.84,-297.697 1556.64,-304.403 1567.23,-304.275 1564.84,-297.697"/>
</g>
<!-- Node42 -->
<g id="node42" class="node"><title>Node42</title>
<g id="a_node42"><a xlink:href="a00104.html" target="_top" xlink:title="weighed&#45;distance.hh">
<polygon fill="white" stroke="black" points="1130,-112.5 1130,-131.5 1236,-131.5 1236,-112.5 1130,-112.5"/>
<text text-anchor="middle" x="1183" y="-119.5" font-family="Helvetica,sans-Serif" font-size="10.00">weighed&#45;distance.hh</text>
</a>
</g>
</g>
<!-- Node41&#45;&gt;Node42 -->
<g id="edge54" class="edge"><title>Node41&#45;&gt;Node42</title>
<path fill="none" stroke="midnightblue" d="M1221.75,-166.863C1211.71,-155.506 1198.68,-140.752 1190.58,-131.581"/>
<polygon fill="midnightblue" stroke="midnightblue" points="1219.16,-169.226 1228.41,-174.403 1224.41,-164.592 1219.16,-169.226"/>
</g>
<!-- Node42&#45;&gt;Node30 -->
<g id="edge55" class="edge"><title>Node42&#45;&gt;Node30</title>
<path fill="none" stroke="midnightblue" d="M1183,-101.805C1183,-92.9102 1183,-82.7798 1183,-75.7511"/>
<polygon fill="midnightblue" stroke="midnightblue" points="1179.5,-102.083 1183,-112.083 1186.5,-102.083 1179.5,-102.083"/>
</g>
<!-- Node45 -->
<g id="node45" class="node"><title>Node45</title>
<g id="a_node45"><a xlink:href="a00084.html" target="_top" xlink:title="path&#45;length.hh">
<polygon fill="white" stroke="black" points="1895,-242.5 1895,-261.5 1973,-261.5 1973,-242.5 1895,-242.5"/>
<text text-anchor="middle" x="1934" y="-249.5" font-family="Helvetica,sans-Serif" font-size="10.00">path&#45;length.hh</text>
</a>
</g>
</g>
<!-- Node44&#45;&gt;Node45 -->
<g id="edge58" class="edge"><title>Node44&#45;&gt;Node45</title>
<path fill="none" stroke="midnightblue" d="M1890.54,-297.193C1901.75,-285.793 1916.46,-270.841 1925.56,-261.581"/>
<polygon fill="midnightblue" stroke="midnightblue" points="1887.97,-294.819 1883.45,-304.403 1892.96,-299.727 1887.97,-294.819"/>
</g>
<!-- Node47 -->
<g id="node47" class="node"><title>Node47</title>
<g id="a_node47"><a xlink:href="a00077.html" target="_top" xlink:title="gradient&#45;based.hh">
<polygon fill="white" stroke="black" points="1991,-242.5 1991,-261.5 2085,-261.5 2085,-242.5 1991,-242.5"/>
<text text-anchor="middle" x="2038" y="-249.5" font-family="Helvetica,sans-Serif" font-size="10.00">gradient&#45;based.hh</text>
</a>
</g>
</g>
<!-- Node46&#45;&gt;Node47 -->
<g id="edge60" class="edge"><title>Node46&#45;&gt;Node47</title>
<path fill="none" stroke="midnightblue" d="M2027.62,-294.503C2030.37,-283.527 2033.72,-270.129 2035.85,-261.581"/>
<polygon fill="midnightblue" stroke="midnightblue" points="2024.18,-293.853 2025.15,-304.403 2030.97,-295.551 2024.18,-293.853"/>
</g>
<!-- Node48 -->
<g id="node48" class="node"><title>Node48</title>
<g id="a_node48"><a xlink:href="a00097.html" target="_top" xlink:title="random&#45;shortcut.hh">
<polygon fill="white" stroke="black" points="2103.5,-242.5 2103.5,-261.5 2204.5,-261.5 2204.5,-242.5 2103.5,-242.5"/>
<text text-anchor="middle" x="2154" y="-249.5" font-family="Helvetica,sans-Serif" font-size="10.00">random&#45;shortcut.hh</text>
</a>
</g>
</g>
<!-- Node46&#45;&gt;Node48 -->
<g id="edge61" class="edge"><title>Node46&#45;&gt;Node48</title>
<path fill="none" stroke="midnightblue" d="M2050.9,-300.221C2076.33,-288.573 2113.2,-271.687 2135.27,-261.581"/>
<polygon fill="midnightblue" stroke="midnightblue" points="2049.4,-297.057 2041.77,-304.403 2052.32,-303.421 2049.4,-297.057"/>
</g>
</g>
</svg>
