<?xml version="1.0" encoding="UTF-8" standalone="no"?>
<!DOCTYPE svg PUBLIC "-//W3C//DTD SVG 1.1//EN"
 "http://www.w3.org/Graphics/SVG/1.1/DTD/svg11.dtd">
<!-- Generated by graphviz version 2.36.0 (20140111.2315)
 -->
<!-- Title: collision&#45;validation.hh Pages: 1 -->
<svg width="587pt" height="276pt"
 viewBox="0.00 0.00 587.00 276.00" xmlns="http://www.w3.org/2000/svg" xmlns:xlink="http://www.w3.org/1999/xlink">
<g id="graph0" class="graph" transform="scale(1 1) rotate(0) translate(4 272)">
<title>collision&#45;validation.hh</title>
<polygon fill="white" stroke="none" points="-4,4 -4,-272 583,-272 583,4 -4,4"/>
<!-- Node1 -->
<g id="node1" class="node"><title>Node1</title>
<polygon fill="#bfbfbf" stroke="black" points="116,-248.5 116,-267.5 226,-267.5 226,-248.5 116,-248.5"/>
<text text-anchor="middle" x="171" y="-255.5" font-family="Helvetica,sans-Serif" font-size="10.00">collision&#45;validation.hh</text>
</g>
<!-- Node2 -->
<g id="node2" class="node"><title>Node2</title>
<g id="a_node2"><a xlink:href="a00078.html" target="_top" xlink:title="hpp/core/collision\l&#45;validation&#45;report.hh">
<polygon fill="white" stroke="black" points="120,-181 120,-211 222,-211 222,-181 120,-181"/>
<text text-anchor="start" x="128" y="-199" font-family="Helvetica,sans-Serif" font-size="10.00">hpp/core/collision</text>
<text text-anchor="middle" x="171" y="-188" font-family="Helvetica,sans-Serif" font-size="10.00">&#45;validation&#45;report.hh</text>
</a>
</g>
</g>
<!-- Node1&#45;&gt;Node2 -->
<g id="edge1" class="edge"><title>Node1&#45;&gt;Node2</title>
<path fill="none" stroke="midnightblue" d="M171,-248.403C171,-241.341 171,-230.975 171,-221.399"/>
<polygon fill="midnightblue" stroke="midnightblue" points="174.5,-221.141 171,-211.141 167.5,-221.141 174.5,-221.141"/>
</g>
<!-- Node14 -->
<g id="node14" class="node"><title>Node14</title>
<polygon fill="white" stroke="#bfbfbf" points="-1,-118.5 -1,-137.5 115,-137.5 115,-118.5 -1,-118.5"/>
<text text-anchor="middle" x="57" y="-125.5" font-family="Helvetica,sans-Serif" font-size="10.00">hpp/fcl/collision_data.h</text>
</g>
<!-- Node1&#45;&gt;Node14 -->
<g id="edge17" class="edge"><title>Node1&#45;&gt;Node14</title>
<path fill="none" stroke="midnightblue" d="M156.539,-248.235C143.628,-239.954 124.698,-226.644 111,-212 92.2494,-191.955 75.8826,-164.628 66.2198,-146.899"/>
<polygon fill="midnightblue" stroke="midnightblue" points="69.1165,-144.891 61.3378,-137.698 62.9329,-148.172 69.1165,-144.891"/>
</g>
<!-- Node15 -->
<g id="node15" class="node"><title>Node15</title>
<g id="a_node15"><a xlink:href="a00083.html" target="_top" xlink:title="hpp/core/config&#45;validation.hh">
<polygon fill="white" stroke="black" points="240.5,-186.5 240.5,-205.5 381.5,-205.5 381.5,-186.5 240.5,-186.5"/>
<text text-anchor="middle" x="311" y="-193.5" font-family="Helvetica,sans-Serif" font-size="10.00">hpp/core/config&#45;validation.hh</text>
</a>
</g>
</g>
<!-- Node1&#45;&gt;Node15 -->
<g id="edge14" class="edge"><title>Node1&#45;&gt;Node15</title>
<path fill="none" stroke="midnightblue" d="M191.059,-248.403C214.762,-238.245 254.406,-221.255 281.583,-209.607"/>
<polygon fill="midnightblue" stroke="midnightblue" points="283.166,-212.737 290.979,-205.581 280.408,-206.303 283.166,-212.737"/>
</g>
<!-- Node3 -->
<g id="node3" class="node"><title>Node3</title>
<g id="a_node3"><a doxygen="https://jmirabel.github.io/hpp-doc/api/hpp-model/doxygen-html/hpp-model.doxytag:https://jmirabel.github.io/hpp-doc/api/hpp-model/doxygen-html/" xlink:href="https://jmirabel.github.io/hpp-doc/api/hpp-model/doxygen-html/a00030.html" target="_top" xlink:title="hpp/model/collision\l&#45;object.hh">
<polygon fill="white" stroke="black" points="133,-113 133,-143 233,-143 233,-113 133,-113"/>
<text text-anchor="start" x="141" y="-131" font-family="Helvetica,sans-Serif" font-size="10.00">hpp/model/collision</text>
<text text-anchor="middle" x="183" y="-120" font-family="Helvetica,sans-Serif" font-size="10.00">&#45;object.hh</text>
</a>
</g>
</g>
<!-- Node2&#45;&gt;Node3 -->
<g id="edge2" class="edge"><title>Node2&#45;&gt;Node3</title>
<path fill="none" stroke="midnightblue" d="M173.604,-180.679C175.066,-172.636 176.93,-162.385 178.611,-153.137"/>
<polygon fill="midnightblue" stroke="midnightblue" points="182.056,-153.758 180.401,-143.293 175.169,-152.506 182.056,-153.758"/>
</g>
<!-- Node5 -->
<g id="node5" class="node"><title>Node5</title>
<g id="a_node5"><a xlink:href="a00136.html" target="_top" xlink:title="hpp/core/validation\l&#45;report.hh">
<polygon fill="white" stroke="black" points="251,-113 251,-143 349,-143 349,-113 251,-113"/>
<text text-anchor="start" x="259" y="-131" font-family="Helvetica,sans-Serif" font-size="10.00">hpp/core/validation</text>
<text text-anchor="middle" x="300" y="-120" font-family="Helvetica,sans-Serif" font-size="10.00">&#45;report.hh</text>
</a>
</g>
</g>
<!-- Node2&#45;&gt;Node5 -->
<g id="edge4" class="edge"><title>Node2&#45;&gt;Node5</title>
<path fill="none" stroke="midnightblue" d="M198.674,-180.841C217.548,-171.185 242.75,-158.29 263.298,-147.778"/>
<polygon fill="midnightblue" stroke="midnightblue" points="265.064,-150.806 272.372,-143.135 261.875,-144.574 265.064,-150.806"/>
</g>
<!-- Node2&#45;&gt;Node14 -->
<g id="edge13" class="edge"><title>Node2&#45;&gt;Node14</title>
<path fill="none" stroke="midnightblue" d="M146.544,-180.841C127.091,-169.579 100.032,-153.913 80.7624,-142.757"/>
<polygon fill="midnightblue" stroke="midnightblue" points="82.4039,-139.663 71.996,-137.682 78.8966,-145.721 82.4039,-139.663"/>
</g>
<!-- Node4 -->
<g id="node4" class="node"><title>Node4</title>
<g id="a_node4"><a doxygen="https://jmirabel.github.io/hpp-doc/api/hpp-model/doxygen-html/hpp-model.doxytag:https://jmirabel.github.io/hpp-doc/api/hpp-model/doxygen-html/" xlink:href="https://jmirabel.github.io/hpp-doc/api/hpp-model/doxygen-html/a00037.html" target="_top" xlink:title="hpp/model/fwd.hh">
<polygon fill="white" stroke="black" points="136,-56.5 136,-75.5 230,-75.5 230,-56.5 136,-56.5"/>
<text text-anchor="middle" x="183" y="-63.5" font-family="Helvetica,sans-Serif" font-size="10.00">hpp/model/fwd.hh</text>
</a>
</g>
</g>
<!-- Node3&#45;&gt;Node4 -->
<g id="edge3" class="edge"><title>Node3&#45;&gt;Node4</title>
<path fill="none" stroke="midnightblue" d="M183,-112.781C183,-104.781 183,-94.6887 183,-86.0168"/>
<polygon fill="midnightblue" stroke="midnightblue" points="186.5,-85.7305 183,-75.7305 179.5,-85.7306 186.5,-85.7305"/>
</g>
<!-- Node6 -->
<g id="node6" class="node"><title>Node6</title>
<polygon fill="white" stroke="#bfbfbf" points="356.5,-56.5 356.5,-75.5 453.5,-75.5 453.5,-56.5 356.5,-56.5"/>
<text text-anchor="middle" x="405" y="-63.5" font-family="Helvetica,sans-Serif" font-size="10.00">hpp/core/config.hh</text>
</g>
<!-- Node5&#45;&gt;Node6 -->
<g id="edge5" class="edge"><title>Node5&#45;&gt;Node6</title>
<path fill="none" stroke="midnightblue" d="M324.618,-112.933C341.7,-103.171 364.33,-90.2401 381.225,-80.5856"/>
<polygon fill="midnightblue" stroke="midnightblue" points="383.004,-83.6003 389.95,-75.6 379.531,-77.5226 383.004,-83.6003"/>
</g>
<!-- Node7 -->
<g id="node7" class="node"><title>Node7</title>
<g id="a_node7"><a xlink:href="a00001.html" target="_top" xlink:title="hpp/core/fwd.hh">
<polygon fill="white" stroke="black" points="252,-56.5 252,-75.5 338,-75.5 338,-56.5 252,-56.5"/>
<text text-anchor="middle" x="295" y="-63.5" font-family="Helvetica,sans-Serif" font-size="10.00">hpp/core/fwd.hh</text>
</a>
</g>
</g>
<!-- Node5&#45;&gt;Node7 -->
<g id="edge6" class="edge"><title>Node5&#45;&gt;Node7</title>
<path fill="none" stroke="midnightblue" d="M298.815,-112.781C298.141,-104.691 297.288,-94.4617 296.56,-85.725"/>
<polygon fill="midnightblue" stroke="midnightblue" points="300.046,-85.4053 295.728,-75.7305 293.07,-85.9867 300.046,-85.4053"/>
</g>
<!-- Node8 -->
<g id="node8" class="node"><title>Node8</title>
<polygon fill="white" stroke="#bfbfbf" points="133,-0.5 133,-19.5 177,-19.5 177,-0.5 133,-0.5"/>
<text text-anchor="middle" x="155" y="-7.5" font-family="Helvetica,sans-Serif" font-size="10.00">vector</text>
</g>
<!-- Node7&#45;&gt;Node8 -->
<g id="edge7" class="edge"><title>Node7&#45;&gt;Node8</title>
<path fill="none" stroke="midnightblue" d="M272.817,-56.4435C249.572,-47.4776 212.851,-33.314 186.585,-23.1827"/>
<polygon fill="midnightblue" stroke="midnightblue" points="187.669,-19.8497 177.08,-19.5164 185.15,-26.3807 187.669,-19.8497"/>
</g>
<!-- Node9 -->
<g id="node9" class="node"><title>Node9</title>
<polygon fill="white" stroke="#bfbfbf" points="195.5,-0.5 195.5,-19.5 238.5,-19.5 238.5,-0.5 195.5,-0.5"/>
<text text-anchor="middle" x="217" y="-7.5" font-family="Helvetica,sans-Serif" font-size="10.00">deque</text>
</g>
<!-- Node7&#45;&gt;Node9 -->
<g id="edge8" class="edge"><title>Node7&#45;&gt;Node9</title>
<path fill="none" stroke="midnightblue" d="M282.468,-56.324C270.414,-47.979 251.973,-35.2122 237.731,-25.3524"/>
<polygon fill="midnightblue" stroke="midnightblue" points="239.715,-22.469 229.501,-19.6545 235.731,-28.2243 239.715,-22.469"/>
</g>
<!-- Node10 -->
<g id="node10" class="node"><title>Node10</title>
<polygon fill="white" stroke="#bfbfbf" points="256.5,-0.5 256.5,-19.5 285.5,-19.5 285.5,-0.5 256.5,-0.5"/>
<text text-anchor="middle" x="271" y="-7.5" font-family="Helvetica,sans-Serif" font-size="10.00">list</text>
</g>
<!-- Node7&#45;&gt;Node10 -->
<g id="edge9" class="edge"><title>Node7&#45;&gt;Node10</title>
<path fill="none" stroke="midnightblue" d="M291.037,-56.083C287.787,-48.77 283.081,-38.1814 279.046,-29.1034"/>
<polygon fill="midnightblue" stroke="midnightblue" points="282.149,-27.4677 274.889,-19.7511 275.752,-30.3107 282.149,-27.4677"/>
</g>
<!-- Node11 -->
<g id="node11" class="node"><title>Node11</title>
<polygon fill="white" stroke="#bfbfbf" points="304,-0.5 304,-19.5 334,-19.5 334,-0.5 304,-0.5"/>
<text text-anchor="middle" x="319" y="-7.5" font-family="Helvetica,sans-Serif" font-size="10.00">set</text>
</g>
<!-- Node7&#45;&gt;Node11 -->
<g id="edge10" class="edge"><title>Node7&#45;&gt;Node11</title>
<path fill="none" stroke="midnightblue" d="M298.963,-56.083C302.213,-48.77 306.919,-38.1814 310.954,-29.1034"/>
<polygon fill="midnightblue" stroke="midnightblue" points="314.248,-30.3107 315.111,-19.7511 307.851,-27.4677 314.248,-30.3107"/>
</g>
<!-- Node12 -->
<g id="node12" class="node"><title>Node12</title>
<polygon fill="white" stroke="#bfbfbf" points="352,-0.5 352,-19.5 446,-19.5 446,-0.5 352,-0.5"/>
<text text-anchor="middle" x="399" y="-7.5" font-family="Helvetica,sans-Serif" font-size="10.00">hpp/util/pointer.hh</text>
</g>
<!-- Node7&#45;&gt;Node12 -->
<g id="edge11" class="edge"><title>Node7&#45;&gt;Node12</title>
<path fill="none" stroke="midnightblue" d="M311.709,-56.324C328.312,-47.7034 354.002,-34.3643 373.22,-24.3855"/>
<polygon fill="midnightblue" stroke="midnightblue" points="375.07,-27.3689 382.332,-19.6545 371.844,-21.1565 375.07,-27.3689"/>
</g>
<!-- Node13 -->
<g id="node13" class="node"><title>Node13</title>
<g id="a_node13"><a doxygen="https://jmirabel.github.io/hpp-doc/api/hpp-constraints/doxygen-html/hpp-constraints.doxytag:https://jmirabel.github.io/hpp-doc/api/hpp-constraints/doxygen-html/" xlink:href="https://jmirabel.github.io/hpp-doc/api/hpp-constraints/doxygen-html/a00001.html" target="_top" xlink:title="hpp/constraints/fwd.hh">
<polygon fill="white" stroke="black" points="464,-0.5 464,-19.5 580,-19.5 580,-0.5 464,-0.5"/>
<text text-anchor="middle" x="522" y="-7.5" font-family="Helvetica,sans-Serif" font-size="10.00">hpp/constraints/fwd.hh</text>
</a>
</g>
</g>
<!-- Node7&#45;&gt;Node13 -->
<g id="edge12" class="edge"><title>Node7&#45;&gt;Node13</title>
<path fill="none" stroke="midnightblue" d="M330.969,-56.4435C370.319,-47.0826 433.487,-32.0561 476.314,-21.868"/>
<polygon fill="midnightblue" stroke="midnightblue" points="477.281,-25.2358 486.199,-19.5164 475.661,-18.4258 477.281,-25.2358"/>
</g>
<!-- Node15&#45;&gt;Node5 -->
<g id="edge15" class="edge"><title>Node15&#45;&gt;Node5</title>
<path fill="none" stroke="midnightblue" d="M309.562,-186.372C308.162,-177.971 305.969,-164.811 304.035,-153.213"/>
<polygon fill="midnightblue" stroke="midnightblue" points="307.46,-152.47 302.364,-143.181 300.555,-153.621 307.46,-152.47"/>
</g>
<!-- Node16 -->
<g id="node16" class="node"><title>Node16</title>
<polygon fill="white" stroke="#bfbfbf" points="367.5,-118.5 367.5,-137.5 486.5,-137.5 486.5,-118.5 367.5,-118.5"/>
<text text-anchor="middle" x="427" y="-125.5" font-family="Helvetica,sans-Serif" font-size="10.00">hpp/core/deprecated.hh</text>
</g>
<!-- Node15&#45;&gt;Node16 -->
<g id="edge16" class="edge"><title>Node15&#45;&gt;Node16</title>
<path fill="none" stroke="midnightblue" d="M326.165,-186.372C345.704,-175.254 379.898,-155.8 402.987,-142.662"/>
<polygon fill="midnightblue" stroke="midnightblue" points="404.871,-145.618 411.831,-137.63 401.409,-139.534 404.871,-145.618"/>
</g>
</g>
</svg>
