<?xml version="1.0" encoding="UTF-8" standalone="no"?>
<!DOCTYPE svg PUBLIC "-//W3C//DTD SVG 1.1//EN"
 "http://www.w3.org/Graphics/SVG/1.1/DTD/svg11.dtd">
<!-- Generated by graphviz version 2.36.0 (20140111.2315)
 -->
<!-- Title: comparison&#45;type.hh Pages: 1 -->
<svg width="452pt" height="320pt"
 viewBox="0.00 0.00 452.00 320.00" xmlns="http://www.w3.org/2000/svg" xmlns:xlink="http://www.w3.org/1999/xlink">
<g id="graph0" class="graph" transform="scale(1 1) rotate(0) translate(4 316)">
<title>comparison&#45;type.hh</title>
<polygon fill="white" stroke="none" points="-4,4 -4,-316 448,-316 448,4 -4,4"/>
<!-- Node1 -->
<g id="node1" class="node"><title>Node1</title>
<polygon fill="#bfbfbf" stroke="black" points="192,-292.5 192,-311.5 294,-311.5 294,-292.5 192,-292.5"/>
<text text-anchor="middle" x="243" y="-299.5" font-family="Helvetica,sans-Serif" font-size="10.00">comparison&#45;type.hh</text>
</g>
<!-- Node2 -->
<g id="node2" class="node"><title>Node2</title>
<g id="a_node2"><a xlink:href="a00094.html" target="_top" xlink:title="config&#45;projector.hh">
<polygon fill="white" stroke="black" points="151.5,-118.5 151.5,-137.5 248.5,-137.5 248.5,-118.5 151.5,-118.5"/>
<text text-anchor="middle" x="200" y="-125.5" font-family="Helvetica,sans-Serif" font-size="10.00">config&#45;projector.hh</text>
</a>
</g>
</g>
<!-- Node1&#45;&gt;Node2 -->
<g id="edge1" class="edge"><title>Node1&#45;&gt;Node2</title>
<path fill="none" stroke="midnightblue" d="M238.319,-282.278C229.067,-245.269 208.761,-164.042 202.136,-137.544"/>
<polygon fill="midnightblue" stroke="midnightblue" points="234.988,-283.382 240.809,-292.234 241.779,-281.684 234.988,-283.382"/>
</g>
<!-- Node6 -->
<g id="node6" class="node"><title>Node6</title>
<g id="a_node6"><a xlink:href="a00111.html" target="_top" xlink:title="equation.hh">
<polygon fill="white" stroke="black" points="253.5,-236.5 253.5,-255.5 320.5,-255.5 320.5,-236.5 253.5,-236.5"/>
<text text-anchor="middle" x="287" y="-243.5" font-family="Helvetica,sans-Serif" font-size="10.00">equation.hh</text>
</a>
</g>
</g>
<!-- Node1&#45;&gt;Node6 -->
<g id="edge5" class="edge"><title>Node1&#45;&gt;Node6</title>
<path fill="none" stroke="midnightblue" d="M256.735,-284.144C264.401,-274.736 273.633,-263.405 279.869,-255.751"/>
<polygon fill="midnightblue" stroke="midnightblue" points="253.869,-282.12 250.266,-292.083 259.296,-286.541 253.869,-282.12"/>
</g>
<!-- Node3 -->
<g id="node3" class="node"><title>Node3</title>
<g id="a_node3"><a xlink:href="a00150.html" target="_top" xlink:title="steering&#45;method&#45;straight.hh">
<polygon fill="white" stroke="black" points="-0.5,-56.5 -0.5,-75.5 134.5,-75.5 134.5,-56.5 -0.5,-56.5"/>
<text text-anchor="middle" x="67" y="-63.5" font-family="Helvetica,sans-Serif" font-size="10.00">steering&#45;method&#45;straight.hh</text>
</a>
</g>
</g>
<!-- Node2&#45;&gt;Node3 -->
<g id="edge2" class="edge"><title>Node2&#45;&gt;Node3</title>
<path fill="none" stroke="midnightblue" d="M171.673,-114.221C145.853,-102.573 108.424,-85.6874 86.0203,-75.5806"/>
<polygon fill="midnightblue" stroke="midnightblue" points="170.39,-117.482 180.944,-118.403 173.268,-111.101 170.39,-117.482"/>
</g>
<!-- Node5 -->
<g id="node5" class="node"><title>Node5</title>
<g id="a_node5"><a xlink:href="a00138.html" target="_top" xlink:title="problem&#45;solver.hh">
<polygon fill="white" stroke="black" points="153,-56.5 153,-75.5 247,-75.5 247,-56.5 153,-56.5"/>
<text text-anchor="middle" x="200" y="-63.5" font-family="Helvetica,sans-Serif" font-size="10.00">problem&#45;solver.hh</text>
</a>
</g>
</g>
<!-- Node2&#45;&gt;Node5 -->
<g id="edge4" class="edge"><title>Node2&#45;&gt;Node5</title>
<path fill="none" stroke="midnightblue" d="M200,-108.16C200,-97.2482 200,-84.04 200,-75.5806"/>
<polygon fill="midnightblue" stroke="midnightblue" points="196.5,-108.403 200,-118.403 203.5,-108.403 196.5,-108.403"/>
</g>
<!-- Node4 -->
<g id="node4" class="node"><title>Node4</title>
<g id="a_node4"><a xlink:href="a00116.html" target="_top" xlink:title="gradient&#45;based.hh">
<polygon fill="white" stroke="black" points="20,-0.5 20,-19.5 114,-19.5 114,-0.5 20,-0.5"/>
<text text-anchor="middle" x="67" y="-7.5" font-family="Helvetica,sans-Serif" font-size="10.00">gradient&#45;based.hh</text>
</a>
</g>
</g>
<!-- Node3&#45;&gt;Node4 -->
<g id="edge3" class="edge"><title>Node3&#45;&gt;Node4</title>
<path fill="none" stroke="midnightblue" d="M67,-45.8045C67,-36.9102 67,-26.7798 67,-19.7511"/>
<polygon fill="midnightblue" stroke="midnightblue" points="63.5001,-46.083 67,-56.083 70.5001,-46.083 63.5001,-46.083"/>
</g>
<!-- Node7 -->
<g id="node7" class="node"><title>Node7</title>
<g id="a_node7"><a xlink:href="a00124.html" target="_top" xlink:title="numerical&#45;constraint.hh">
<polygon fill="white" stroke="black" points="228,-180.5 228,-199.5 346,-199.5 346,-180.5 228,-180.5"/>
<text text-anchor="middle" x="287" y="-187.5" font-family="Helvetica,sans-Serif" font-size="10.00">numerical&#45;constraint.hh</text>
</a>
</g>
</g>
<!-- Node6&#45;&gt;Node7 -->
<g id="edge6" class="edge"><title>Node6&#45;&gt;Node7</title>
<path fill="none" stroke="midnightblue" d="M287,-225.805C287,-216.91 287,-206.78 287,-199.751"/>
<polygon fill="midnightblue" stroke="midnightblue" points="283.5,-226.083 287,-236.083 290.5,-226.083 283.5,-226.083"/>
</g>
<!-- Node10 -->
<g id="node10" class="node"><title>Node10</title>
<g id="a_node10"><a xlink:href="a00120.html" target="_top" xlink:title="locked&#45;joint.hh">
<polygon fill="white" stroke="black" points="364,-180.5 364,-199.5 444,-199.5 444,-180.5 364,-180.5"/>
<text text-anchor="middle" x="404" y="-187.5" font-family="Helvetica,sans-Serif" font-size="10.00">locked&#45;joint.hh</text>
</a>
</g>
</g>
<!-- Node6&#45;&gt;Node10 -->
<g id="edge10" class="edge"><title>Node6&#45;&gt;Node10</title>
<path fill="none" stroke="midnightblue" d="M314.664,-232.232C336.549,-222.131 366.497,-208.309 385.548,-199.516"/>
<polygon fill="midnightblue" stroke="midnightblue" points="313.152,-229.075 305.539,-236.444 316.085,-235.431 313.152,-229.075"/>
</g>
<!-- Node7&#45;&gt;Node2 -->
<g id="edge7" class="edge"><title>Node7&#45;&gt;Node2</title>
<path fill="none" stroke="midnightblue" d="M265.963,-174.492C249.23,-162.952 226.387,-147.198 212.442,-137.581"/>
<polygon fill="midnightblue" stroke="midnightblue" points="264.316,-177.607 274.535,-180.403 268.29,-171.845 264.316,-177.607"/>
</g>
<!-- Node8 -->
<g id="node8" class="node"><title>Node8</title>
<g id="a_node8"><a xlink:href="a00112.html" target="_top" xlink:title="explicit&#45;numerical\l&#45;constraint.hh">
<polygon fill="white" stroke="black" points="283,-113 283,-143 375,-143 375,-113 283,-113"/>
<text text-anchor="start" x="291" y="-131" font-family="Helvetica,sans-Serif" font-size="10.00">explicit&#45;numerical</text>
<text text-anchor="middle" x="329" y="-120" font-family="Helvetica,sans-Serif" font-size="10.00">&#45;constraint.hh</text>
</a>
</g>
</g>
<!-- Node7&#45;&gt;Node8 -->
<g id="edge8" class="edge"><title>Node7&#45;&gt;Node8</title>
<path fill="none" stroke="midnightblue" d="M298.826,-172.106C305.221,-162.97 313.03,-151.814 319.101,-143.141"/>
<polygon fill="midnightblue" stroke="midnightblue" points="295.885,-170.204 293.018,-180.403 301.62,-174.218 295.885,-170.204"/>
</g>
<!-- Node9 -->
<g id="node9" class="node"><title>Node9</title>
<g id="a_node9"><a xlink:href="a00113.html" target="_top" xlink:title="explicit&#45;relative&#45;transformation.hh">
<polygon fill="white" stroke="black" points="265.5,-56.5 265.5,-75.5 426.5,-75.5 426.5,-56.5 265.5,-56.5"/>
<text text-anchor="middle" x="346" y="-63.5" font-family="Helvetica,sans-Serif" font-size="10.00">explicit&#45;relative&#45;transformation.hh</text>
</a>
</g>
</g>
<!-- Node8&#45;&gt;Node9 -->
<g id="edge9" class="edge"><title>Node8&#45;&gt;Node9</title>
<path fill="none" stroke="midnightblue" d="M335.831,-102.892C338.549,-93.2959 341.506,-82.8622 343.526,-75.7305"/>
<polygon fill="midnightblue" stroke="midnightblue" points="332.387,-102.205 333.029,-112.781 339.122,-104.114 332.387,-102.205"/>
</g>
</g>
</svg>
