<?xml version="1.0" encoding="UTF-8" standalone="no"?>
<!DOCTYPE svg PUBLIC "-//W3C//DTD SVG 1.1//EN"
 "http://www.w3.org/Graphics/SVG/1.1/DTD/svg11.dtd">
<!-- Generated by graphviz version 2.36.0 (20140111.2315)
 -->
<!-- Title: config&#45;optimization.hh Pages: 1 -->
<svg width="1221pt" height="376pt"
 viewBox="0.00 0.00 1221.00 376.00" xmlns="http://www.w3.org/2000/svg" xmlns:xlink="http://www.w3.org/1999/xlink">
<g id="graph0" class="graph" transform="scale(1 1) rotate(0) translate(4 372)">
<title>config&#45;optimization.hh</title>
<polygon fill="white" stroke="none" points="-4,4 -4,-372 1217,-372 1217,4 -4,4"/>
<!-- Node1 -->
<g id="node1" class="node"><title>Node1</title>
<polygon fill="#bfbfbf" stroke="black" points="296,-348.5 296,-367.5 408,-367.5 408,-348.5 296,-348.5"/>
<text text-anchor="middle" x="352" y="-355.5" font-family="Helvetica,sans-Serif" font-size="10.00">config&#45;optimization.hh</text>
</g>
<!-- Node2 -->
<g id="node2" class="node"><title>Node2</title>
<g id="a_node2"><a xlink:href="a00129.html" target="_top" xlink:title="hpp/core/path&#45;optimizer.hh">
<polygon fill="white" stroke="black" points="0,-112.5 0,-131.5 132,-131.5 132,-112.5 0,-112.5"/>
<text text-anchor="middle" x="66" y="-119.5" font-family="Helvetica,sans-Serif" font-size="10.00">hpp/core/path&#45;optimizer.hh</text>
</a>
</g>
</g>
<!-- Node1&#45;&gt;Node2 -->
<g id="edge1" class="edge"><title>Node1&#45;&gt;Node2</title>
<path fill="none" stroke="midnightblue" d="M341.482,-348.394C298.913,-313.565 139.081,-182.794 84.4452,-138.092"/>
<polygon fill="midnightblue" stroke="midnightblue" points="86.5697,-135.308 76.6137,-131.684 82.137,-140.725 86.5697,-135.308"/>
</g>
<!-- Node11 -->
<g id="node11" class="node"><title>Node11</title>
<g id="a_node11"><a xlink:href="a00134.html" target="_top" xlink:title="hpp/core/path&#45;vector.hh">
<polygon fill="white" stroke="black" points="522.5,-292.5 522.5,-311.5 641.5,-311.5 641.5,-292.5 522.5,-292.5"/>
<text text-anchor="middle" x="582" y="-299.5" font-family="Helvetica,sans-Serif" font-size="10.00">hpp/core/path&#45;vector.hh</text>
</a>
</g>
</g>
<!-- Node1&#45;&gt;Node11 -->
<g id="edge10" class="edge"><title>Node1&#45;&gt;Node11</title>
<path fill="none" stroke="midnightblue" d="M388.444,-348.444C428.399,-339.063 492.587,-323.993 535.985,-313.804"/>
<polygon fill="midnightblue" stroke="midnightblue" points="536.791,-317.21 545.726,-311.516 535.191,-310.395 536.791,-317.21"/>
</g>
<!-- Node3 -->
<g id="node3" class="node"><title>Node3</title>
<polygon fill="white" stroke="#bfbfbf" points="111.5,-56.5 111.5,-75.5 208.5,-75.5 208.5,-56.5 111.5,-56.5"/>
<text text-anchor="middle" x="160" y="-63.5" font-family="Helvetica,sans-Serif" font-size="10.00">hpp/core/config.hh</text>
</g>
<!-- Node2&#45;&gt;Node3 -->
<g id="edge2" class="edge"><title>Node2&#45;&gt;Node3</title>
<path fill="none" stroke="midnightblue" d="M81.1027,-112.324C95.9033,-103.822 118.694,-90.7288 135.982,-80.7975"/>
<polygon fill="midnightblue" stroke="midnightblue" points="138.007,-83.6707 144.935,-75.6545 134.52,-77.6009 138.007,-83.6707"/>
</g>
<!-- Node4 -->
<g id="node4" class="node"><title>Node4</title>
<g id="a_node4"><a xlink:href="a00001.html" target="_top" xlink:title="hpp/core/fwd.hh">
<polygon fill="white" stroke="black" points="390,-56.5 390,-75.5 476,-75.5 476,-56.5 390,-56.5"/>
<text text-anchor="middle" x="433" y="-63.5" font-family="Helvetica,sans-Serif" font-size="10.00">hpp/core/fwd.hh</text>
</a>
</g>
</g>
<!-- Node2&#45;&gt;Node4 -->
<g id="edge3" class="edge"><title>Node2&#45;&gt;Node4</title>
<path fill="none" stroke="midnightblue" d="M124.152,-112.444C194.419,-102.105 311.658,-84.8542 379.683,-74.845"/>
<polygon fill="midnightblue" stroke="midnightblue" points="380.373,-78.2813 389.757,-73.3627 379.354,-71.3558 380.373,-78.2813"/>
</g>
<!-- Node5 -->
<g id="node5" class="node"><title>Node5</title>
<polygon fill="white" stroke="#bfbfbf" points="411,-0.5 411,-19.5 455,-19.5 455,-0.5 411,-0.5"/>
<text text-anchor="middle" x="433" y="-7.5" font-family="Helvetica,sans-Serif" font-size="10.00">vector</text>
</g>
<!-- Node4&#45;&gt;Node5 -->
<g id="edge4" class="edge"><title>Node4&#45;&gt;Node5</title>
<path fill="none" stroke="midnightblue" d="M433,-56.083C433,-49.0059 433,-38.8611 433,-29.9865"/>
<polygon fill="midnightblue" stroke="midnightblue" points="436.5,-29.751 433,-19.7511 429.5,-29.7511 436.5,-29.751"/>
</g>
<!-- Node6 -->
<g id="node6" class="node"><title>Node6</title>
<polygon fill="white" stroke="#bfbfbf" points="585.5,-0.5 585.5,-19.5 628.5,-19.5 628.5,-0.5 585.5,-0.5"/>
<text text-anchor="middle" x="607" y="-7.5" font-family="Helvetica,sans-Serif" font-size="10.00">deque</text>
</g>
<!-- Node4&#45;&gt;Node6 -->
<g id="edge5" class="edge"><title>Node4&#45;&gt;Node6</title>
<path fill="none" stroke="midnightblue" d="M460.571,-56.4435C491.786,-46.7561 542.553,-31.0008 575.358,-20.8199"/>
<polygon fill="midnightblue" stroke="midnightblue" points="576.817,-24.0319 585.33,-17.7251 574.742,-17.3464 576.817,-24.0319"/>
</g>
<!-- Node7 -->
<g id="node7" class="node"><title>Node7</title>
<polygon fill="white" stroke="#bfbfbf" points="472.5,-0.5 472.5,-19.5 501.5,-19.5 501.5,-0.5 472.5,-0.5"/>
<text text-anchor="middle" x="487" y="-7.5" font-family="Helvetica,sans-Serif" font-size="10.00">list</text>
</g>
<!-- Node4&#45;&gt;Node7 -->
<g id="edge6" class="edge"><title>Node4&#45;&gt;Node7</title>
<path fill="none" stroke="midnightblue" d="M441.917,-56.083C449.78,-48.2195 461.431,-36.5688 470.919,-27.0813"/>
<polygon fill="midnightblue" stroke="midnightblue" points="473.653,-29.2971 478.249,-19.7511 468.703,-24.3473 473.653,-29.2971"/>
</g>
<!-- Node8 -->
<g id="node8" class="node"><title>Node8</title>
<polygon fill="white" stroke="#bfbfbf" points="520,-0.5 520,-19.5 550,-19.5 550,-0.5 520,-0.5"/>
<text text-anchor="middle" x="535" y="-7.5" font-family="Helvetica,sans-Serif" font-size="10.00">set</text>
</g>
<!-- Node4&#45;&gt;Node8 -->
<g id="edge7" class="edge"><title>Node4&#45;&gt;Node8</title>
<path fill="none" stroke="midnightblue" d="M449.388,-56.324C466.057,-47.4994 492.065,-33.7302 511.044,-23.6827"/>
<polygon fill="midnightblue" stroke="midnightblue" points="512.782,-26.7228 519.982,-18.9507 509.507,-20.5363 512.782,-26.7228"/>
</g>
<!-- Node9 -->
<g id="node9" class="node"><title>Node9</title>
<polygon fill="white" stroke="#bfbfbf" points="165,-0.5 165,-19.5 259,-19.5 259,-0.5 165,-0.5"/>
<text text-anchor="middle" x="212" y="-7.5" font-family="Helvetica,sans-Serif" font-size="10.00">hpp/util/pointer.hh</text>
</g>
<!-- Node4&#45;&gt;Node9 -->
<g id="edge8" class="edge"><title>Node4&#45;&gt;Node9</title>
<path fill="none" stroke="midnightblue" d="M397.982,-56.4435C359.752,-47.1024 298.433,-32.1194 256.743,-21.9326"/>
<polygon fill="midnightblue" stroke="midnightblue" points="257.399,-18.4901 246.854,-19.5164 255.738,-25.2901 257.399,-18.4901"/>
</g>
<!-- Node10 -->
<g id="node10" class="node"><title>Node10</title>
<g id="a_node10"><a doxygen="https://jmirabel.github.io/hpp-doc/api/hpp-constraints/doxygen-html/hpp-constraints.doxytag:https://jmirabel.github.io/hpp-doc/api/hpp-constraints/doxygen-html/" xlink:href="https://jmirabel.github.io/hpp-doc/api/hpp-constraints/doxygen-html/a00001.html" target="_top" xlink:title="hpp/constraints/fwd.hh">
<polygon fill="white" stroke="black" points="277,-0.5 277,-19.5 393,-19.5 393,-0.5 277,-0.5"/>
<text text-anchor="middle" x="335" y="-7.5" font-family="Helvetica,sans-Serif" font-size="10.00">hpp/constraints/fwd.hh</text>
</a>
</g>
</g>
<!-- Node4&#45;&gt;Node10 -->
<g id="edge9" class="edge"><title>Node4&#45;&gt;Node10</title>
<path fill="none" stroke="midnightblue" d="M417.255,-56.324C401.681,-47.7428 377.623,-34.486 359.541,-24.5224"/>
<polygon fill="midnightblue" stroke="midnightblue" points="361.154,-21.4152 350.706,-19.6545 357.776,-27.546 361.154,-21.4152"/>
</g>
<!-- Node11&#45;&gt;Node4 -->
<g id="edge19" class="edge"><title>Node11&#45;&gt;Node4</title>
<path fill="none" stroke="midnightblue" d="M608.589,-292.38C662.892,-273.36 778.079,-224.935 737,-168 707.298,-126.834 565.369,-93.019 486.376,-77.0047"/>
<polygon fill="midnightblue" stroke="midnightblue" points="486.624,-73.4852 476.132,-74.9563 485.252,-80.3493 486.624,-73.4852"/>
</g>
<!-- Node12 -->
<g id="node12" class="node"><title>Node12</title>
<g id="a_node12"><a doxygen="https://jmirabel.github.io/hpp-doc/api/hpp-model/doxygen-html/hpp-model.doxytag:https://jmirabel.github.io/hpp-doc/api/hpp-model/doxygen-html/" xlink:href="https://jmirabel.github.io/hpp-doc/api/hpp-model/doxygen-html/a00033.html" target="_top" xlink:title="hpp/model/device.hh">
<polygon fill="white" stroke="black" points="933.5,-236.5 933.5,-255.5 1040.5,-255.5 1040.5,-236.5 933.5,-236.5"/>
<text text-anchor="middle" x="987" y="-243.5" font-family="Helvetica,sans-Serif" font-size="10.00">hpp/model/device.hh</text>
</a>
</g>
</g>
<!-- Node11&#45;&gt;Node12 -->
<g id="edge11" class="edge"><title>Node11&#45;&gt;Node12</title>
<path fill="none" stroke="midnightblue" d="M641.759,-293.032C717.147,-282.98 846.236,-265.769 923.398,-255.48"/>
<polygon fill="midnightblue" stroke="midnightblue" points="924.018,-258.929 933.467,-254.138 923.092,-251.99 924.018,-258.929"/>
</g>
<!-- Node17 -->
<g id="node17" class="node"><title>Node17</title>
<g id="a_node17"><a xlink:href="a00135.html" target="_top" xlink:title="hpp/core/path.hh">
<polygon fill="white" stroke="black" points="363.5,-236.5 363.5,-255.5 452.5,-255.5 452.5,-236.5 363.5,-236.5"/>
<text text-anchor="middle" x="408" y="-243.5" font-family="Helvetica,sans-Serif" font-size="10.00">hpp/core/path.hh</text>
</a>
</g>
</g>
<!-- Node11&#45;&gt;Node17 -->
<g id="edge20" class="edge"><title>Node11&#45;&gt;Node17</title>
<path fill="none" stroke="midnightblue" d="M554.429,-292.444C524.903,-283.28 477.882,-268.688 445.117,-258.519"/>
<polygon fill="midnightblue" stroke="midnightblue" points="446.03,-255.138 435.442,-255.516 443.955,-261.823 446.03,-255.138"/>
</g>
<!-- Node13 -->
<g id="node13" class="node"><title>Node13</title>
<g id="a_node13"><a doxygen="https://jmirabel.github.io/hpp-doc/api/hpp-model/doxygen-html/hpp-model.doxytag:https://jmirabel.github.io/hpp-doc/api/hpp-model/doxygen-html/" xlink:href="https://jmirabel.github.io/hpp-doc/api/hpp-model/doxygen-html/a00037.html" target="_top" xlink:title="hpp/model/fwd.hh">
<polygon fill="white" stroke="black" points="988,-112.5 988,-131.5 1082,-131.5 1082,-112.5 988,-112.5"/>
<text text-anchor="middle" x="1035" y="-119.5" font-family="Helvetica,sans-Serif" font-size="10.00">hpp/model/fwd.hh</text>
</a>
</g>
</g>
<!-- Node12&#45;&gt;Node13 -->
<g id="edge12" class="edge"><title>Node12&#45;&gt;Node13</title>
<path fill="none" stroke="midnightblue" d="M1015.37,-236.495C1032.75,-229.653 1053.6,-218.13 1064,-200 1075.16,-180.556 1061.74,-156.014 1049.68,-139.932"/>
<polygon fill="midnightblue" stroke="midnightblue" points="1052.27,-137.568 1043.29,-131.954 1046.81,-141.946 1052.27,-137.568"/>
</g>
<!-- Node14 -->
<g id="node14" class="node"><title>Node14</title>
<g id="a_node14"><a doxygen="https://jmirabel.github.io/hpp-doc/api/hpp-model/doxygen-html/hpp-model.doxytag:https://jmirabel.github.io/hpp-doc/api/hpp-model/doxygen-html/" xlink:href="https://jmirabel.github.io/hpp-doc/api/hpp-model/doxygen-html/a00034.html" target="_top" xlink:title="hpp/model/distance\l&#45;result.hh">
<polygon fill="white" stroke="black" points="1112.5,-169 1112.5,-199 1213.5,-199 1213.5,-169 1112.5,-169"/>
<text text-anchor="start" x="1120.5" y="-187" font-family="Helvetica,sans-Serif" font-size="10.00">hpp/model/distance</text>
<text text-anchor="middle" x="1163" y="-176" font-family="Helvetica,sans-Serif" font-size="10.00">&#45;result.hh</text>
</a>
</g>
</g>
<!-- Node12&#45;&gt;Node14 -->
<g id="edge13" class="edge"><title>Node12&#45;&gt;Node14</title>
<path fill="none" stroke="midnightblue" d="M1012.22,-236.403C1038.14,-227.564 1079.24,-213.553 1111.99,-202.39"/>
<polygon fill="midnightblue" stroke="midnightblue" points="1113.52,-205.565 1121.86,-199.025 1111.26,-198.939 1113.52,-205.565"/>
</g>
<!-- Node15 -->
<g id="node15" class="node"><title>Node15</title>
<g id="a_node15"><a doxygen="https://jmirabel.github.io/hpp-doc/api/hpp-model/doxygen-html/hpp-model.doxytag:https://jmirabel.github.io/hpp-doc/api/hpp-model/doxygen-html/" xlink:href="https://jmirabel.github.io/hpp-doc/api/hpp-model/doxygen-html/a00035.html" target="_top" xlink:title="hpp/model/extra&#45;config\l&#45;space.hh">
<polygon fill="white" stroke="black" points="784,-169 784,-199 900,-199 900,-169 784,-169"/>
<text text-anchor="start" x="792" y="-187" font-family="Helvetica,sans-Serif" font-size="10.00">hpp/model/extra&#45;config</text>
<text text-anchor="middle" x="842" y="-176" font-family="Helvetica,sans-Serif" font-size="10.00">&#45;space.hh</text>
</a>
</g>
</g>
<!-- Node12&#45;&gt;Node15 -->
<g id="edge15" class="edge"><title>Node12&#45;&gt;Node15</title>
<path fill="none" stroke="midnightblue" d="M966.225,-236.403C945.232,-227.717 912.167,-214.035 885.426,-202.969"/>
<polygon fill="midnightblue" stroke="midnightblue" points="886.473,-199.615 875.895,-199.025 883.796,-206.083 886.473,-199.615"/>
</g>
<!-- Node16 -->
<g id="node16" class="node"><title>Node16</title>
<g id="a_node16"><a doxygen="https://jmirabel.github.io/hpp-doc/api/hpp-model/doxygen-html/hpp-model.doxytag:https://jmirabel.github.io/hpp-doc/api/hpp-model/doxygen-html/" xlink:href="https://jmirabel.github.io/hpp-doc/api/hpp-model/doxygen-html/a00044.html" target="_top" xlink:title="hpp/model/object&#45;iterator.hh">
<polygon fill="white" stroke="black" points="918.5,-174.5 918.5,-193.5 1055.5,-193.5 1055.5,-174.5 918.5,-174.5"/>
<text text-anchor="middle" x="987" y="-181.5" font-family="Helvetica,sans-Serif" font-size="10.00">hpp/model/object&#45;iterator.hh</text>
</a>
</g>
</g>
<!-- Node12&#45;&gt;Node16 -->
<g id="edge17" class="edge"><title>Node12&#45;&gt;Node16</title>
<path fill="none" stroke="midnightblue" d="M987,-236.403C987,-227.938 987,-214.728 987,-203.82"/>
<polygon fill="midnightblue" stroke="midnightblue" points="990.5,-203.581 987,-193.581 983.5,-203.581 990.5,-203.581"/>
</g>
<!-- Node14&#45;&gt;Node13 -->
<g id="edge14" class="edge"><title>Node14&#45;&gt;Node13</title>
<path fill="none" stroke="midnightblue" d="M1132.99,-168.933C1111.68,-158.946 1083.3,-145.64 1062.56,-135.92"/>
<polygon fill="midnightblue" stroke="midnightblue" points="1063.89,-132.675 1053.35,-131.6 1060.92,-139.014 1063.89,-132.675"/>
</g>
<!-- Node15&#45;&gt;Node13 -->
<g id="edge16" class="edge"><title>Node15&#45;&gt;Node13</title>
<path fill="none" stroke="midnightblue" d="M887.25,-168.933C920.929,-158.462 966.342,-144.345 997.893,-134.536"/>
<polygon fill="midnightblue" stroke="midnightblue" points="999.107,-137.824 1007.62,-131.513 997.029,-131.139 999.107,-137.824"/>
</g>
<!-- Node16&#45;&gt;Node13 -->
<g id="edge18" class="edge"><title>Node16&#45;&gt;Node13</title>
<path fill="none" stroke="midnightblue" d="M993.877,-174.403C1001.15,-165.314 1012.8,-150.756 1021.84,-139.449"/>
<polygon fill="midnightblue" stroke="midnightblue" points="1024.62,-141.576 1028.14,-131.581 1019.16,-137.203 1024.62,-141.576"/>
</g>
<!-- Node17&#45;&gt;Node3 -->
<g id="edge23" class="edge"><title>Node17&#45;&gt;Node3</title>
<path fill="none" stroke="midnightblue" d="M363.378,-239.899C311.962,-233.184 231.633,-219.855 209,-200 175.032,-170.202 164.583,-114.723 161.39,-85.7354"/>
<polygon fill="midnightblue" stroke="midnightblue" points="164.869,-85.3495 160.464,-75.714 157.899,-85.9937 164.869,-85.3495"/>
</g>
<!-- Node17&#45;&gt;Node4 -->
<g id="edge22" class="edge"><title>Node17&#45;&gt;Node4</title>
<path fill="none" stroke="midnightblue" d="M363.456,-240.812C312.844,-235.024 234.923,-222.636 217,-200 208.171,-188.85 214.573,-182.014 217,-168 221.511,-141.959 217.249,-129.56 237,-112 257.871,-93.4447 329.199,-80.507 379.77,-73.4121"/>
<polygon fill="midnightblue" stroke="midnightblue" points="380.469,-76.8493 389.903,-72.029 379.522,-69.9136 380.469,-76.8493"/>
</g>
<!-- Node18 -->
<g id="node18" class="node"><title>Node18</title>
<polygon fill="white" stroke="#bfbfbf" points="344,-174.5 344,-193.5 472,-193.5 472,-174.5 344,-174.5"/>
<text text-anchor="middle" x="408" y="-181.5" font-family="Helvetica,sans-Serif" font-size="10.00">boost/concept_check.hpp</text>
</g>
<!-- Node17&#45;&gt;Node18 -->
<g id="edge21" class="edge"><title>Node17&#45;&gt;Node18</title>
<path fill="none" stroke="midnightblue" d="M408,-236.403C408,-227.938 408,-214.728 408,-203.82"/>
<polygon fill="midnightblue" stroke="midnightblue" points="411.5,-203.581 408,-193.581 404.5,-203.581 411.5,-203.581"/>
</g>
<!-- Node19 -->
<g id="node19" class="node"><title>Node19</title>
<g id="a_node19"><a xlink:href="a00099.html" target="_top" xlink:title="hpp/core/constraint\l&#45;set.hh">
<polygon fill="white" stroke="black" points="628,-169 628,-199 728,-199 728,-169 628,-169"/>
<text text-anchor="start" x="636" y="-187" font-family="Helvetica,sans-Serif" font-size="10.00">hpp/core/constraint</text>
<text text-anchor="middle" x="678" y="-176" font-family="Helvetica,sans-Serif" font-size="10.00">&#45;set.hh</text>
</a>
</g>
</g>
<!-- Node17&#45;&gt;Node19 -->
<g id="edge24" class="edge"><title>Node17&#45;&gt;Node19</title>
<path fill="none" stroke="midnightblue" d="M449.929,-236.451C492.384,-227.693 559.887,-213.486 618,-200 618.101,-199.976 618.203,-199.953 618.304,-199.929"/>
<polygon fill="midnightblue" stroke="midnightblue" points="619.015,-203.358 627.94,-197.65 617.403,-196.546 619.015,-203.358"/>
</g>
<!-- Node22 -->
<g id="node22" class="node"><title>Node22</title>
<polygon fill="white" stroke="#bfbfbf" points="490.5,-174.5 490.5,-193.5 609.5,-193.5 609.5,-174.5 490.5,-174.5"/>
<text text-anchor="middle" x="550" y="-181.5" font-family="Helvetica,sans-Serif" font-size="10.00">hpp/core/deprecated.hh</text>
</g>
<!-- Node17&#45;&gt;Node22 -->
<g id="edge30" class="edge"><title>Node17&#45;&gt;Node22</title>
<path fill="none" stroke="midnightblue" d="M428.345,-236.403C452.387,-226.245 492.597,-209.255 520.163,-197.607"/>
<polygon fill="midnightblue" stroke="midnightblue" points="521.843,-200.697 529.693,-193.581 519.119,-194.249 521.843,-200.697"/>
</g>
<!-- Node23 -->
<g id="node23" class="node"><title>Node23</title>
<g id="a_node23"><a xlink:href="a00143.html" target="_top" xlink:title="hpp/core/projection\l&#45;error.hh">
<polygon fill="white" stroke="black" points="226.5,-169 226.5,-199 325.5,-199 325.5,-169 226.5,-169"/>
<text text-anchor="start" x="234.5" y="-187" font-family="Helvetica,sans-Serif" font-size="10.00">hpp/core/projection</text>
<text text-anchor="middle" x="276" y="-176" font-family="Helvetica,sans-Serif" font-size="10.00">&#45;error.hh</text>
</a>
</g>
</g>
<!-- Node17&#45;&gt;Node23 -->
<g id="edge31" class="edge"><title>Node17&#45;&gt;Node23</title>
<path fill="none" stroke="midnightblue" d="M389.088,-236.403C370.145,-227.793 340.403,-214.274 316.175,-203.261"/>
<polygon fill="midnightblue" stroke="midnightblue" points="317.408,-199.977 306.856,-199.025 314.511,-206.35 317.408,-199.977"/>
</g>
<!-- Node19&#45;&gt;Node6 -->
<g id="edge25" class="edge"><title>Node19&#45;&gt;Node6</title>
<path fill="none" stroke="midnightblue" d="M672.19,-168.925C659.344,-137.805 628.548,-63.2012 614.372,-28.8577"/>
<polygon fill="midnightblue" stroke="midnightblue" points="617.595,-27.4926 610.544,-19.5847 611.124,-30.1636 617.595,-27.4926"/>
</g>
<!-- Node20 -->
<g id="node20" class="node"><title>Node20</title>
<g id="a_node20"><a xlink:href="a00100.html" target="_top" xlink:title="hpp/core/constraint.hh">
<polygon fill="white" stroke="black" points="429.5,-112.5 429.5,-131.5 542.5,-131.5 542.5,-112.5 429.5,-112.5"/>
<text text-anchor="middle" x="486" y="-119.5" font-family="Helvetica,sans-Serif" font-size="10.00">hpp/core/constraint.hh</text>
</a>
</g>
</g>
<!-- Node19&#45;&gt;Node20 -->
<g id="edge26" class="edge"><title>Node19&#45;&gt;Node20</title>
<path fill="none" stroke="midnightblue" d="M632.985,-168.933C599.48,-158.462 554.303,-144.345 522.915,-134.536"/>
<polygon fill="midnightblue" stroke="midnightblue" points="523.829,-131.155 513.241,-131.513 521.741,-137.836 523.829,-131.155"/>
</g>
<!-- Node20&#45;&gt;Node3 -->
<g id="edge28" class="edge"><title>Node20&#45;&gt;Node3</title>
<path fill="none" stroke="midnightblue" d="M434.344,-112.444C375.67,-102.725 280.126,-86.8981 218.684,-76.7206"/>
<polygon fill="midnightblue" stroke="midnightblue" points="219.189,-73.2568 208.752,-75.0755 218.045,-80.1627 219.189,-73.2568"/>
</g>
<!-- Node20&#45;&gt;Node4 -->
<g id="edge29" class="edge"><title>Node20&#45;&gt;Node4</title>
<path fill="none" stroke="midnightblue" d="M477.248,-112.083C469.53,-104.22 458.095,-92.5688 448.783,-83.0813"/>
<polygon fill="midnightblue" stroke="midnightblue" points="451.092,-80.4363 441.589,-75.7511 446.096,-85.3396 451.092,-80.4363"/>
</g>
<!-- Node21 -->
<g id="node21" class="node"><title>Node21</title>
<polygon fill="white" stroke="#bfbfbf" points="494,-56.5 494,-75.5 546,-75.5 546,-56.5 494,-56.5"/>
<text text-anchor="middle" x="520" y="-63.5" font-family="Helvetica,sans-Serif" font-size="10.00">ostream</text>
</g>
<!-- Node20&#45;&gt;Node21 -->
<g id="edge27" class="edge"><title>Node20&#45;&gt;Node21</title>
<path fill="none" stroke="midnightblue" d="M491.614,-112.083C496.367,-104.534 503.318,-93.4948 509.152,-84.2298"/>
<polygon fill="midnightblue" stroke="midnightblue" points="512.124,-86.0783 514.49,-75.7511 506.2,-82.3486 512.124,-86.0783"/>
</g>
<!-- Node24 -->
<g id="node24" class="node"><title>Node24</title>
<polygon fill="white" stroke="#bfbfbf" points="246.5,-112.5 246.5,-131.5 305.5,-131.5 305.5,-112.5 246.5,-112.5"/>
<text text-anchor="middle" x="276" y="-119.5" font-family="Helvetica,sans-Serif" font-size="10.00">exception</text>
</g>
<!-- Node23&#45;&gt;Node24 -->
<g id="edge32" class="edge"><title>Node23&#45;&gt;Node24</title>
<path fill="none" stroke="midnightblue" d="M276,-168.781C276,-160.781 276,-150.689 276,-142.017"/>
<polygon fill="midnightblue" stroke="midnightblue" points="279.5,-141.73 276,-131.731 272.5,-141.731 279.5,-141.73"/>
</g>
</g>
</svg>
