<?xml version="1.0" encoding="UTF-8" standalone="no"?>
<!DOCTYPE svg PUBLIC "-//W3C//DTD SVG 1.1//EN"
 "http://www.w3.org/Graphics/SVG/1.1/DTD/svg11.dtd">
<!-- Generated by graphviz version 2.36.0 (20140111.2315)
 -->
<!-- Title: comparison&#45;type.hh Pages: 1 -->
<svg width="300pt" height="264pt"
 viewBox="0.00 0.00 300.00 264.00" xmlns="http://www.w3.org/2000/svg" xmlns:xlink="http://www.w3.org/1999/xlink">
<g id="graph0" class="graph" transform="scale(1 1) rotate(0) translate(4 260)">
<title>comparison&#45;type.hh</title>
<polygon fill="white" stroke="none" points="-4,4 -4,-260 296,-260 296,4 -4,4"/>
<!-- Node1 -->
<g id="node1" class="node"><title>Node1</title>
<polygon fill="#bfbfbf" stroke="black" points="40,-236.5 40,-255.5 142,-255.5 142,-236.5 40,-236.5"/>
<text text-anchor="middle" x="91" y="-243.5" font-family="Helvetica,sans-Serif" font-size="10.00">comparison&#45;type.hh</text>
</g>
<!-- Node2 -->
<g id="node2" class="node"><title>Node2</title>
<g id="a_node2"><a xlink:href="a00069.html" target="_top" xlink:title="config&#45;projector.hh">
<polygon fill="white" stroke="black" points="-0.5,-62.5 -0.5,-81.5 96.5,-81.5 96.5,-62.5 -0.5,-62.5"/>
<text text-anchor="middle" x="48" y="-69.5" font-family="Helvetica,sans-Serif" font-size="10.00">config&#45;projector.hh</text>
</a>
</g>
</g>
<!-- Node1&#45;&gt;Node2 -->
<g id="edge1" class="edge"><title>Node1&#45;&gt;Node2</title>
<path fill="none" stroke="midnightblue" d="M86.3194,-226.278C77.0673,-189.269 56.7606,-108.042 50.1361,-81.5442"/>
<polygon fill="midnightblue" stroke="midnightblue" points="82.9876,-227.382 88.8085,-236.234 89.7786,-225.684 82.9876,-227.382"/>
</g>
<!-- Node4 -->
<g id="node4" class="node"><title>Node4</title>
<g id="a_node4"><a xlink:href="a00084.html" target="_top" xlink:title="equation.hh">
<polygon fill="white" stroke="black" points="101.5,-180.5 101.5,-199.5 168.5,-199.5 168.5,-180.5 101.5,-180.5"/>
<text text-anchor="middle" x="135" y="-187.5" font-family="Helvetica,sans-Serif" font-size="10.00">equation.hh</text>
</a>
</g>
</g>
<!-- Node1&#45;&gt;Node4 -->
<g id="edge3" class="edge"><title>Node1&#45;&gt;Node4</title>
<path fill="none" stroke="midnightblue" d="M104.735,-228.144C112.401,-218.736 121.633,-207.405 127.869,-199.751"/>
<polygon fill="midnightblue" stroke="midnightblue" points="101.869,-226.12 98.2657,-236.083 107.296,-230.541 101.869,-226.12"/>
</g>
<!-- Node3 -->
<g id="node3" class="node"><title>Node3</title>
<g id="a_node3"><a xlink:href="a00105.html" target="_top" xlink:title="problem&#45;solver.hh">
<polygon fill="white" stroke="black" points="1,-0.5 1,-19.5 95,-19.5 95,-0.5 1,-0.5"/>
<text text-anchor="middle" x="48" y="-7.5" font-family="Helvetica,sans-Serif" font-size="10.00">problem&#45;solver.hh</text>
</a>
</g>
</g>
<!-- Node2&#45;&gt;Node3 -->
<g id="edge2" class="edge"><title>Node2&#45;&gt;Node3</title>
<path fill="none" stroke="midnightblue" d="M48,-52.1595C48,-41.2482 48,-28.04 48,-19.5806"/>
<polygon fill="midnightblue" stroke="midnightblue" points="44.5001,-52.4034 48,-62.4035 51.5001,-52.4035 44.5001,-52.4034"/>
</g>
<!-- Node5 -->
<g id="node5" class="node"><title>Node5</title>
<g id="a_node5"><a xlink:href="a00092.html" target="_top" xlink:title="numerical&#45;constraint.hh">
<polygon fill="white" stroke="black" points="76,-124.5 76,-143.5 194,-143.5 194,-124.5 76,-124.5"/>
<text text-anchor="middle" x="135" y="-131.5" font-family="Helvetica,sans-Serif" font-size="10.00">numerical&#45;constraint.hh</text>
</a>
</g>
</g>
<!-- Node4&#45;&gt;Node5 -->
<g id="edge4" class="edge"><title>Node4&#45;&gt;Node5</title>
<path fill="none" stroke="midnightblue" d="M135,-169.805C135,-160.91 135,-150.78 135,-143.751"/>
<polygon fill="midnightblue" stroke="midnightblue" points="131.5,-170.083 135,-180.083 138.5,-170.083 131.5,-170.083"/>
</g>
<!-- Node7 -->
<g id="node7" class="node"><title>Node7</title>
<g id="a_node7"><a xlink:href="a00088.html" target="_top" xlink:title="locked&#45;joint.hh">
<polygon fill="white" stroke="black" points="212,-124.5 212,-143.5 292,-143.5 292,-124.5 212,-124.5"/>
<text text-anchor="middle" x="252" y="-131.5" font-family="Helvetica,sans-Serif" font-size="10.00">locked&#45;joint.hh</text>
</a>
</g>
</g>
<!-- Node4&#45;&gt;Node7 -->
<g id="edge7" class="edge"><title>Node4&#45;&gt;Node7</title>
<path fill="none" stroke="midnightblue" d="M162.664,-176.232C184.549,-166.131 214.497,-152.309 233.548,-143.516"/>
<polygon fill="midnightblue" stroke="midnightblue" points="161.152,-173.075 153.539,-180.444 164.085,-179.431 161.152,-173.075"/>
</g>
<!-- Node5&#45;&gt;Node2 -->
<g id="edge5" class="edge"><title>Node5&#45;&gt;Node2</title>
<path fill="none" stroke="midnightblue" d="M113.963,-118.492C97.2304,-106.952 74.3865,-91.1976 60.4419,-81.5806"/>
<polygon fill="midnightblue" stroke="midnightblue" points="112.316,-121.607 122.535,-124.403 116.29,-115.845 112.316,-121.607"/>
</g>
<!-- Node6 -->
<g id="node6" class="node"><title>Node6</title>
<g id="a_node6"><a xlink:href="a00085.html" target="_top" xlink:title="explicit&#45;numerical\l&#45;constraint.hh">
<polygon fill="white" stroke="black" points="115,-57 115,-87 207,-87 207,-57 115,-57"/>
<text text-anchor="start" x="123" y="-75" font-family="Helvetica,sans-Serif" font-size="10.00">explicit&#45;numerical</text>
<text text-anchor="middle" x="161" y="-64" font-family="Helvetica,sans-Serif" font-size="10.00">&#45;constraint.hh</text>
</a>
</g>
</g>
<!-- Node5&#45;&gt;Node6 -->
<g id="edge6" class="edge"><title>Node5&#45;&gt;Node6</title>
<path fill="none" stroke="midnightblue" d="M142.82,-114.954C146.681,-106.044 151.27,-95.4528 154.872,-87.1408"/>
<polygon fill="midnightblue" stroke="midnightblue" points="139.49,-113.836 138.725,-124.403 145.913,-116.62 139.49,-113.836"/>
</g>
</g>
</svg>
