<?xml version="1.0" encoding="UTF-8" standalone="no"?>
<!DOCTYPE svg PUBLIC "-//W3C//DTD SVG 1.1//EN"
 "http://www.w3.org/Graphics/SVG/1.1/DTD/svg11.dtd">
<!-- Generated by graphviz version 2.36.0 (20140111.2315)
 -->
<!-- Title: collision&#45;path&#45;validation&#45;report.hh Pages: 1 -->
<svg width="181pt" height="96pt"
 viewBox="0.00 0.00 181.00 96.00" xmlns="http://www.w3.org/2000/svg" xmlns:xlink="http://www.w3.org/1999/xlink">
<g id="graph0" class="graph" transform="scale(1 1) rotate(0) translate(4 92)">
<title>collision&#45;path&#45;validation&#45;report.hh</title>
<polygon fill="white" stroke="none" points="-4,4 -4,-92 177,-92 177,4 -4,4"/>
<!-- Node1 -->
<g id="node1" class="node"><title>Node1</title>
<polygon fill="#bfbfbf" stroke="black" points="26,-57 26,-87 144,-87 144,-57 26,-57"/>
<text text-anchor="start" x="34" y="-75" font-family="Helvetica,sans-Serif" font-size="10.00">collision&#45;path&#45;validation</text>
<text text-anchor="middle" x="85" y="-64" font-family="Helvetica,sans-Serif" font-size="10.00">&#45;report.hh</text>
</g>
<!-- Node2 -->
<g id="node2" class="node"><title>Node2</title>
<g id="a_node2"><a xlink:href="a00094.html" target="_top" xlink:title="dichotomy.hh">
<polygon fill="white" stroke="black" points="-0.5,-0.5 -0.5,-19.5 74.5,-19.5 74.5,-0.5 -0.5,-0.5"/>
<text text-anchor="middle" x="37" y="-7.5" font-family="Helvetica,sans-Serif" font-size="10.00">dichotomy.hh</text>
</a>
</g>
</g>
<!-- Node1&#45;&gt;Node2 -->
<g id="edge1" class="edge"><title>Node1&#45;&gt;Node2</title>
<path fill="none" stroke="midnightblue" d="M67.1749,-48.7186C59.1131,-38.6414 50.054,-27.3175 43.9844,-19.7305"/>
<polygon fill="midnightblue" stroke="midnightblue" points="64.6446,-51.1586 73.6247,-56.7808 70.1107,-46.7857 64.6446,-51.1586"/>
</g>
<!-- Node3 -->
<g id="node3" class="node"><title>Node3</title>
<g id="a_node3"><a xlink:href="a00132.html" target="_top" xlink:title="progressive.hh">
<polygon fill="white" stroke="black" points="93,-0.5 93,-19.5 173,-19.5 173,-0.5 93,-0.5"/>
<text text-anchor="middle" x="133" y="-7.5" font-family="Helvetica,sans-Serif" font-size="10.00">progressive.hh</text>
</a>
</g>
</g>
<!-- Node1&#45;&gt;Node3 -->
<g id="edge2" class="edge"><title>Node1&#45;&gt;Node3</title>
<path fill="none" stroke="midnightblue" d="M102.825,-48.7186C110.887,-38.6414 119.946,-27.3175 126.016,-19.7305"/>
<polygon fill="midnightblue" stroke="midnightblue" points="99.8893,-46.7857 96.3753,-56.7808 105.355,-51.1586 99.8893,-46.7857"/>
</g>
</g>
</svg>
