<?xml version="1.0" encoding="UTF-8" standalone="no"?>
<!DOCTYPE svg PUBLIC "-//W3C//DTD SVG 1.1//EN"
 "http://www.w3.org/Graphics/SVG/1.1/DTD/svg11.dtd">
<!-- Generated by graphviz version 2.36.0 (20140111.2315)
 -->
<!-- Title: comparison&#45;type.hh Pages: 1 -->
<svg width="259pt" height="252pt"
 viewBox="0.00 0.00 259.00 252.00" xmlns="http://www.w3.org/2000/svg" xmlns:xlink="http://www.w3.org/1999/xlink">
<g id="graph0" class="graph" transform="scale(1 1) rotate(0) translate(4 248)">
<title>comparison&#45;type.hh</title>
<polygon fill="white" stroke="none" points="-4,4 -4,-248 255,-248 255,4 -4,4"/>
<!-- Node1 -->
<g id="node1" class="node"><title>Node1</title>
<polygon fill="#bfbfbf" stroke="black" points="-1,-224.5 -1,-243.5 101,-243.5 101,-224.5 -1,-224.5"/>
<text text-anchor="middle" x="50" y="-231.5" font-family="Helvetica,sans-Serif" font-size="10.00">comparison&#45;type.hh</text>
</g>
<!-- Node2 -->
<g id="node2" class="node"><title>Node2</title>
<g id="a_node2"><a xlink:href="a00063.html" target="_top" xlink:title="config&#45;projector.hh">
<polygon fill="white" stroke="black" points="1.5,-56.5 1.5,-75.5 98.5,-75.5 98.5,-56.5 1.5,-56.5"/>
<text text-anchor="middle" x="50" y="-63.5" font-family="Helvetica,sans-Serif" font-size="10.00">config&#45;projector.hh</text>
</a>
</g>
</g>
<!-- Node1&#45;&gt;Node2 -->
<g id="edge1" class="edge"><title>Node1&#45;&gt;Node2</title>
<path fill="none" stroke="midnightblue" d="M41.5979,-215.281C31.478,-191.596 16.9055,-148.378 26,-112 29.393,-98.4281 37.7398,-84.4676 43.6332,-75.768"/>
<polygon fill="midnightblue" stroke="midnightblue" points="38.4162,-216.74 45.7069,-224.427 44.8014,-213.871 38.4162,-216.74"/>
</g>
<!-- Node4 -->
<g id="node4" class="node"><title>Node4</title>
<g id="a_node4"><a xlink:href="a00078.html" target="_top" xlink:title="equation.hh">
<polygon fill="white" stroke="black" points="60.5,-168.5 60.5,-187.5 127.5,-187.5 127.5,-168.5 60.5,-168.5"/>
<text text-anchor="middle" x="94" y="-175.5" font-family="Helvetica,sans-Serif" font-size="10.00">equation.hh</text>
</a>
</g>
</g>
<!-- Node1&#45;&gt;Node4 -->
<g id="edge3" class="edge"><title>Node1&#45;&gt;Node4</title>
<path fill="none" stroke="midnightblue" d="M63.7345,-216.144C71.4005,-206.736 80.6333,-195.405 86.8695,-187.751"/>
<polygon fill="midnightblue" stroke="midnightblue" points="60.8691,-214.12 57.2657,-224.083 66.2958,-218.541 60.8691,-214.12"/>
</g>
<!-- Node3 -->
<g id="node3" class="node"><title>Node3</title>
<g id="a_node3"><a xlink:href="a00097.html" target="_top" xlink:title="problem&#45;solver.hh">
<polygon fill="white" stroke="black" points="3,-0.5 3,-19.5 97,-19.5 97,-0.5 3,-0.5"/>
<text text-anchor="middle" x="50" y="-7.5" font-family="Helvetica,sans-Serif" font-size="10.00">problem&#45;solver.hh</text>
</a>
</g>
</g>
<!-- Node2&#45;&gt;Node3 -->
<g id="edge2" class="edge"><title>Node2&#45;&gt;Node3</title>
<path fill="none" stroke="midnightblue" d="M50,-45.8045C50,-36.9102 50,-26.7798 50,-19.7511"/>
<polygon fill="midnightblue" stroke="midnightblue" points="46.5001,-46.083 50,-56.083 53.5001,-46.083 46.5001,-46.083"/>
</g>
<!-- Node5 -->
<g id="node5" class="node"><title>Node5</title>
<g id="a_node5"><a xlink:href="a00085.html" target="_top" xlink:title="numerical&#45;constraint.hh">
<polygon fill="white" stroke="black" points="35,-112.5 35,-131.5 153,-131.5 153,-112.5 35,-112.5"/>
<text text-anchor="middle" x="94" y="-119.5" font-family="Helvetica,sans-Serif" font-size="10.00">numerical&#45;constraint.hh</text>
</a>
</g>
</g>
<!-- Node4&#45;&gt;Node5 -->
<g id="edge4" class="edge"><title>Node4&#45;&gt;Node5</title>
<path fill="none" stroke="midnightblue" d="M94,-157.805C94,-148.91 94,-138.78 94,-131.751"/>
<polygon fill="midnightblue" stroke="midnightblue" points="90.5001,-158.083 94,-168.083 97.5001,-158.083 90.5001,-158.083"/>
</g>
<!-- Node6 -->
<g id="node6" class="node"><title>Node6</title>
<g id="a_node6"><a xlink:href="a00081.html" target="_top" xlink:title="locked&#45;joint.hh">
<polygon fill="white" stroke="black" points="171,-112.5 171,-131.5 251,-131.5 251,-112.5 171,-112.5"/>
<text text-anchor="middle" x="211" y="-119.5" font-family="Helvetica,sans-Serif" font-size="10.00">locked&#45;joint.hh</text>
</a>
</g>
</g>
<!-- Node4&#45;&gt;Node6 -->
<g id="edge6" class="edge"><title>Node4&#45;&gt;Node6</title>
<path fill="none" stroke="midnightblue" d="M121.664,-164.232C143.549,-154.131 173.497,-140.309 192.548,-131.516"/>
<polygon fill="midnightblue" stroke="midnightblue" points="120.152,-161.075 112.539,-168.444 123.085,-167.431 120.152,-161.075"/>
</g>
<!-- Node5&#45;&gt;Node2 -->
<g id="edge5" class="edge"><title>Node5&#45;&gt;Node2</title>
<path fill="none" stroke="midnightblue" d="M80.2655,-104.144C72.5995,-94.7357 63.3667,-83.4046 57.1305,-75.7511"/>
<polygon fill="midnightblue" stroke="midnightblue" points="77.7042,-106.541 86.7343,-112.083 83.1309,-102.12 77.7042,-106.541"/>
</g>
</g>
</svg>
