<?xml version="1.0" encoding="UTF-8" standalone="no"?>
<!DOCTYPE svg PUBLIC "-//W3C//DTD SVG 1.1//EN"
 "http://www.w3.org/Graphics/SVG/1.1/DTD/svg11.dtd">
<!-- Generated by graphviz version 2.36.0 (20140111.2315)
 -->
<!-- Title: straight&#45;path.hh Pages: 1 -->
<svg width="580pt" height="320pt"
 viewBox="0.00 0.00 580.00 320.00" xmlns="http://www.w3.org/2000/svg" xmlns:xlink="http://www.w3.org/1999/xlink">
<g id="graph0" class="graph" transform="scale(1 1) rotate(0) translate(4 316)">
<title>straight&#45;path.hh</title>
<polygon fill="white" stroke="none" points="-4,4 -4,-316 576,-316 576,4 -4,4"/>
<!-- Node1 -->
<g id="node1" class="node"><title>Node1</title>
<polygon fill="#bfbfbf" stroke="black" points="324,-292.5 324,-311.5 408,-311.5 408,-292.5 324,-292.5"/>
<text text-anchor="middle" x="366" y="-299.5" font-family="Helvetica,sans-Serif" font-size="10.00">straight&#45;path.hh</text>
</g>
<!-- Node2 -->
<g id="node2" class="node"><title>Node2</title>
<g id="a_node2"><a xlink:href="a00001.html" target="_top" xlink:title="hpp/core/fwd.hh">
<polygon fill="white" stroke="black" points="160,-56.5 160,-75.5 246,-75.5 246,-56.5 160,-56.5"/>
<text text-anchor="middle" x="203" y="-63.5" font-family="Helvetica,sans-Serif" font-size="10.00">hpp/core/fwd.hh</text>
</a>
</g>
</g>
<!-- Node1&#45;&gt;Node2 -->
<g id="edge1" class="edge"><title>Node1&#45;&gt;Node2</title>
<path fill="none" stroke="midnightblue" d="M344.124,-292.475C311.11,-278.431 249.019,-247.197 217,-200 193.504,-165.368 196.155,-113.569 199.78,-85.9466"/>
<polygon fill="midnightblue" stroke="midnightblue" points="203.294,-86.1187 201.321,-75.7092 196.372,-85.0772 203.294,-86.1187"/>
</g>
<!-- Node9 -->
<g id="node9" class="node"><title>Node9</title>
<polygon fill="white" stroke="#bfbfbf" points="475.5,-56.5 475.5,-75.5 572.5,-75.5 572.5,-56.5 475.5,-56.5"/>
<text text-anchor="middle" x="524" y="-63.5" font-family="Helvetica,sans-Serif" font-size="10.00">hpp/core/config.hh</text>
</g>
<!-- Node1&#45;&gt;Node9 -->
<g id="edge8" class="edge"><title>Node1&#45;&gt;Node9</title>
<path fill="none" stroke="midnightblue" d="M391.099,-292.418C427.092,-278.76 492.79,-248.551 527,-200 549.853,-167.567 549.503,-150.959 542,-112 540.21,-102.705 536.517,-92.8887 532.939,-84.8048"/>
<polygon fill="midnightblue" stroke="midnightblue" points="536.056,-83.2089 528.621,-75.6611 529.727,-86.1981 536.056,-83.2089"/>
</g>
<!-- Node10 -->
<g id="node10" class="node"><title>Node10</title>
<g id="a_node10"><a xlink:href="a00091.html" target="_top" xlink:title="hpp/core/path.hh">
<polygon fill="white" stroke="black" points="321.5,-236.5 321.5,-255.5 410.5,-255.5 410.5,-236.5 321.5,-236.5"/>
<text text-anchor="middle" x="366" y="-243.5" font-family="Helvetica,sans-Serif" font-size="10.00">hpp/core/path.hh</text>
</a>
</g>
</g>
<!-- Node1&#45;&gt;Node10 -->
<g id="edge9" class="edge"><title>Node1&#45;&gt;Node10</title>
<path fill="none" stroke="midnightblue" d="M366,-292.083C366,-285.006 366,-274.861 366,-265.986"/>
<polygon fill="midnightblue" stroke="midnightblue" points="369.5,-265.751 366,-255.751 362.5,-265.751 369.5,-265.751"/>
</g>
<!-- Node3 -->
<g id="node3" class="node"><title>Node3</title>
<polygon fill="white" stroke="#bfbfbf" points="-1,-0.5 -1,-19.5 43,-19.5 43,-0.5 -1,-0.5"/>
<text text-anchor="middle" x="21" y="-7.5" font-family="Helvetica,sans-Serif" font-size="10.00">vector</text>
</g>
<!-- Node2&#45;&gt;Node3 -->
<g id="edge2" class="edge"><title>Node2&#45;&gt;Node3</title>
<path fill="none" stroke="midnightblue" d="M174.162,-56.4435C141.188,-46.6602 87.3573,-30.6884 53.0839,-20.5194"/>
<polygon fill="midnightblue" stroke="midnightblue" points="53.7024,-17.0522 43.1199,-17.5631 51.7113,-23.763 53.7024,-17.0522"/>
</g>
<!-- Node4 -->
<g id="node4" class="node"><title>Node4</title>
<polygon fill="white" stroke="#bfbfbf" points="402.5,-0.5 402.5,-19.5 445.5,-19.5 445.5,-0.5 402.5,-0.5"/>
<text text-anchor="middle" x="424" y="-7.5" font-family="Helvetica,sans-Serif" font-size="10.00">deque</text>
</g>
<!-- Node2&#45;&gt;Node4 -->
<g id="edge3" class="edge"><title>Node2&#45;&gt;Node4</title>
<path fill="none" stroke="midnightblue" d="M240.763,-56.4817C278.994,-47.747 339.763,-33.5585 392,-20 392.209,-19.9456 392.42,-19.8909 392.631,-19.8359"/>
<polygon fill="midnightblue" stroke="midnightblue" points="393.598,-23.2 402.343,-17.2188 391.777,-16.4411 393.598,-23.2"/>
</g>
<!-- Node5 -->
<g id="node5" class="node"><title>Node5</title>
<polygon fill="white" stroke="#bfbfbf" points="60.5,-0.5 60.5,-19.5 89.5,-19.5 89.5,-0.5 60.5,-0.5"/>
<text text-anchor="middle" x="75" y="-7.5" font-family="Helvetica,sans-Serif" font-size="10.00">list</text>
</g>
<!-- Node2&#45;&gt;Node5 -->
<g id="edge4" class="edge"><title>Node2&#45;&gt;Node5</title>
<path fill="none" stroke="midnightblue" d="M182.718,-56.4435C160.019,-46.8675 123.266,-31.3623 99.1146,-21.1733"/>
<polygon fill="midnightblue" stroke="midnightblue" points="100.187,-17.8272 89.6131,-17.1649 97.4663,-24.2767 100.187,-17.8272"/>
</g>
<!-- Node6 -->
<g id="node6" class="node"><title>Node6</title>
<polygon fill="white" stroke="#bfbfbf" points="108,-0.5 108,-19.5 138,-19.5 138,-0.5 108,-0.5"/>
<text text-anchor="middle" x="123" y="-7.5" font-family="Helvetica,sans-Serif" font-size="10.00">set</text>
</g>
<!-- Node2&#45;&gt;Node6 -->
<g id="edge5" class="edge"><title>Node2&#45;&gt;Node6</title>
<path fill="none" stroke="midnightblue" d="M190.147,-56.324C177.784,-47.979 158.87,-35.2122 144.263,-25.3524"/>
<polygon fill="midnightblue" stroke="midnightblue" points="146.068,-22.3483 135.821,-19.6545 142.152,-28.1503 146.068,-22.3483"/>
</g>
<!-- Node7 -->
<g id="node7" class="node"><title>Node7</title>
<polygon fill="white" stroke="#bfbfbf" points="156,-0.5 156,-19.5 250,-19.5 250,-0.5 156,-0.5"/>
<text text-anchor="middle" x="203" y="-7.5" font-family="Helvetica,sans-Serif" font-size="10.00">hpp/util/pointer.hh</text>
</g>
<!-- Node2&#45;&gt;Node7 -->
<g id="edge6" class="edge"><title>Node2&#45;&gt;Node7</title>
<path fill="none" stroke="midnightblue" d="M203,-56.083C203,-49.0059 203,-38.8611 203,-29.9865"/>
<polygon fill="midnightblue" stroke="midnightblue" points="206.5,-29.751 203,-19.7511 199.5,-29.7511 206.5,-29.751"/>
</g>
<!-- Node8 -->
<g id="node8" class="node"><title>Node8</title>
<g id="a_node8"><a doxygen="https://jmirabel.github.io/hpp-doc/api/hpp-constraints/doxygen-html/hpp-constraints.doxytag:https://jmirabel.github.io/hpp-doc/api/hpp-constraints/doxygen-html/" xlink:href="https://jmirabel.github.io/hpp-doc/api/hpp-constraints/doxygen-html/a00001.html" target="_top" xlink:title="hpp/constraints/fwd.hh">
<polygon fill="white" stroke="black" points="268,-0.5 268,-19.5 384,-19.5 384,-0.5 268,-0.5"/>
<text text-anchor="middle" x="326" y="-7.5" font-family="Helvetica,sans-Serif" font-size="10.00">hpp/constraints/fwd.hh</text>
</a>
</g>
</g>
<!-- Node2&#45;&gt;Node8 -->
<g id="edge7" class="edge"><title>Node2&#45;&gt;Node8</title>
<path fill="none" stroke="midnightblue" d="M222.49,-56.4435C242.642,-47.5961 274.323,-33.6875 297.331,-23.5865"/>
<polygon fill="midnightblue" stroke="midnightblue" points="298.852,-26.7411 306.601,-19.5164 296.038,-20.3316 298.852,-26.7411"/>
</g>
<!-- Node10&#45;&gt;Node2 -->
<g id="edge11" class="edge"><title>Node10&#45;&gt;Node2</title>
<path fill="none" stroke="midnightblue" d="M321.367,-239.273C294.623,-233.594 261.871,-222.324 241,-200 211.163,-168.085 204.542,-114.359 203.209,-85.9426"/>
<polygon fill="midnightblue" stroke="midnightblue" points="206.702,-85.6553 202.912,-75.7616 199.705,-85.8594 206.702,-85.6553"/>
</g>
<!-- Node10&#45;&gt;Node9 -->
<g id="edge12" class="edge"><title>Node10&#45;&gt;Node9</title>
<path fill="none" stroke="midnightblue" d="M410.673,-242.524C441.855,-238.308 481.884,-227.456 505,-200 532.331,-167.538 530.411,-114.043 527.012,-85.8052"/>
<polygon fill="midnightblue" stroke="midnightblue" points="530.449,-85.1109 525.596,-75.6932 523.517,-86.082 530.449,-85.1109"/>
</g>
<!-- Node11 -->
<g id="node11" class="node"><title>Node11</title>
<polygon fill="white" stroke="#bfbfbf" points="368,-174.5 368,-193.5 496,-193.5 496,-174.5 368,-174.5"/>
<text text-anchor="middle" x="432" y="-181.5" font-family="Helvetica,sans-Serif" font-size="10.00">boost/concept_check.hpp</text>
</g>
<!-- Node10&#45;&gt;Node11 -->
<g id="edge10" class="edge"><title>Node10&#45;&gt;Node11</title>
<path fill="none" stroke="midnightblue" d="M375.456,-236.403C385.748,-227.047 402.416,-211.895 414.994,-200.46"/>
<polygon fill="midnightblue" stroke="midnightblue" points="417.516,-202.897 422.561,-193.581 412.808,-197.718 417.516,-202.897"/>
</g>
<!-- Node12 -->
<g id="node12" class="node"><title>Node12</title>
<g id="a_node12"><a xlink:href="a00066.html" target="_top" xlink:title="hpp/core/constraint\l&#45;set.hh">
<polygon fill="white" stroke="black" points="250,-169 250,-199 350,-199 350,-169 250,-169"/>
<text text-anchor="start" x="258" y="-187" font-family="Helvetica,sans-Serif" font-size="10.00">hpp/core/constraint</text>
<text text-anchor="middle" x="300" y="-176" font-family="Helvetica,sans-Serif" font-size="10.00">&#45;set.hh</text>
</a>
</g>
</g>
<!-- Node10&#45;&gt;Node12 -->
<g id="edge13" class="edge"><title>Node10&#45;&gt;Node12</title>
<path fill="none" stroke="midnightblue" d="M356.544,-236.403C347.856,-228.505 334.624,-216.477 323.145,-206.041"/>
<polygon fill="midnightblue" stroke="midnightblue" points="325.309,-203.278 315.555,-199.141 320.6,-208.457 325.309,-203.278"/>
</g>
<!-- Node12&#45;&gt;Node4 -->
<g id="edge14" class="edge"><title>Node12&#45;&gt;Node4</title>
<path fill="none" stroke="midnightblue" d="M301.971,-168.91C306.25,-143.275 318.656,-88.6488 350,-56 362.728,-42.7424 380.171,-31.8864 394.925,-24.1609"/>
<polygon fill="midnightblue" stroke="midnightblue" points="396.778,-27.147 404.155,-19.5424 393.646,-20.8869 396.778,-27.147"/>
</g>
<!-- Node13 -->
<g id="node13" class="node"><title>Node13</title>
<g id="a_node13"><a xlink:href="a00067.html" target="_top" xlink:title="hpp/core/constraint.hh">
<polygon fill="white" stroke="black" points="328.5,-112.5 328.5,-131.5 441.5,-131.5 441.5,-112.5 328.5,-112.5"/>
<text text-anchor="middle" x="385" y="-119.5" font-family="Helvetica,sans-Serif" font-size="10.00">hpp/core/constraint.hh</text>
</a>
</g>
</g>
<!-- Node12&#45;&gt;Node13 -->
<g id="edge15" class="edge"><title>Node12&#45;&gt;Node13</title>
<path fill="none" stroke="midnightblue" d="M320.144,-168.781C333.595,-159.286 351.222,-146.843 364.704,-137.327"/>
<polygon fill="midnightblue" stroke="midnightblue" points="366.728,-140.182 372.879,-131.556 362.691,-134.463 366.728,-140.182"/>
</g>
<!-- Node13&#45;&gt;Node2 -->
<g id="edge18" class="edge"><title>Node13&#45;&gt;Node2</title>
<path fill="none" stroke="midnightblue" d="M356.162,-112.444C325.144,-103.241 275.671,-88.5617 241.382,-78.3879"/>
<polygon fill="midnightblue" stroke="midnightblue" points="242.286,-75.0055 231.704,-75.5164 240.295,-81.7164 242.286,-75.0055"/>
</g>
<!-- Node13&#45;&gt;Node9 -->
<g id="edge17" class="edge"><title>Node13&#45;&gt;Node9</title>
<path fill="none" stroke="midnightblue" d="M407.025,-112.444C430.104,-103.478 466.562,-89.314 492.641,-79.1827"/>
<polygon fill="midnightblue" stroke="midnightblue" points="494.024,-82.4002 502.078,-75.5164 491.489,-75.8753 494.024,-82.4002"/>
</g>
<!-- Node14 -->
<g id="node14" class="node"><title>Node14</title>
<polygon fill="white" stroke="#bfbfbf" points="359,-56.5 359,-75.5 411,-75.5 411,-56.5 359,-56.5"/>
<text text-anchor="middle" x="385" y="-63.5" font-family="Helvetica,sans-Serif" font-size="10.00">ostream</text>
</g>
<!-- Node13&#45;&gt;Node14 -->
<g id="edge16" class="edge"><title>Node13&#45;&gt;Node14</title>
<path fill="none" stroke="midnightblue" d="M385,-112.083C385,-105.006 385,-94.8611 385,-85.9865"/>
<polygon fill="midnightblue" stroke="midnightblue" points="388.5,-85.751 385,-75.7511 381.5,-85.7511 388.5,-85.751"/>
</g>
</g>
</svg>
