<?xml version="1.0" encoding="UTF-8" standalone="no"?>
<!DOCTYPE svg PUBLIC "-//W3C//DTD SVG 1.1//EN"
 "http://www.w3.org/Graphics/SVG/1.1/DTD/svg11.dtd">
<!-- Generated by graphviz version 2.36.0 (20140111.2315)
 -->
<!-- Title: steering&#45;method&#45;straight.hh Pages: 1 -->
<svg width="597pt" height="376pt"
 viewBox="0.00 0.00 597.00 376.00" xmlns="http://www.w3.org/2000/svg" xmlns:xlink="http://www.w3.org/1999/xlink">
<g id="graph0" class="graph" transform="scale(1 1) rotate(0) translate(4 372)">
<title>steering&#45;method&#45;straight.hh</title>
<polygon fill="white" stroke="none" points="-4,4 -4,-372 593,-372 593,4 -4,4"/>
<!-- Node1 -->
<g id="node1" class="node"><title>Node1</title>
<polygon fill="#bfbfbf" stroke="black" points="330.5,-348.5 330.5,-367.5 465.5,-367.5 465.5,-348.5 330.5,-348.5"/>
<text text-anchor="middle" x="398" y="-355.5" font-family="Helvetica,sans-Serif" font-size="10.00">steering&#45;method&#45;straight.hh</text>
</g>
<!-- Node2 -->
<g id="node2" class="node"><title>Node2</title>
<g id="a_node2"><a xlink:href="a00100.html" target="_top" xlink:title="hpp/core/steering&#45;method.hh">
<polygon fill="white" stroke="black" points="177,-292.5 177,-311.5 317,-311.5 317,-292.5 177,-292.5"/>
<text text-anchor="middle" x="247" y="-299.5" font-family="Helvetica,sans-Serif" font-size="10.00">hpp/core/steering&#45;method.hh</text>
</a>
</g>
</g>
<!-- Node1&#45;&gt;Node2 -->
<g id="edge1" class="edge"><title>Node1&#45;&gt;Node2</title>
<path fill="none" stroke="midnightblue" d="M374.074,-348.444C348.781,-339.399 308.698,-325.064 280.32,-314.916"/>
<polygon fill="midnightblue" stroke="midnightblue" points="281.409,-311.588 270.814,-311.516 279.052,-318.179 281.409,-311.588"/>
</g>
<!-- Node16 -->
<g id="node16" class="node"><title>Node16</title>
<g id="a_node16"><a xlink:href="a00101.html" target="_top" xlink:title="hpp/core/straight&#45;path.hh">
<polygon fill="white" stroke="black" points="335.5,-292.5 335.5,-311.5 460.5,-311.5 460.5,-292.5 335.5,-292.5"/>
<text text-anchor="middle" x="398" y="-299.5" font-family="Helvetica,sans-Serif" font-size="10.00">hpp/core/straight&#45;path.hh</text>
</a>
</g>
</g>
<!-- Node1&#45;&gt;Node16 -->
<g id="edge18" class="edge"><title>Node1&#45;&gt;Node16</title>
<path fill="none" stroke="midnightblue" d="M398,-348.083C398,-341.006 398,-330.861 398,-321.986"/>
<polygon fill="midnightblue" stroke="midnightblue" points="401.5,-321.751 398,-311.751 394.5,-321.751 401.5,-321.751"/>
</g>
<!-- Node17 -->
<g id="node17" class="node"><title>Node17</title>
<g id="a_node17"><a xlink:href="a00104.html" target="_top" xlink:title="hpp/core/weighed&#45;distance.hh">
<polygon fill="white" stroke="black" points="443,-236.5 443,-255.5 589,-255.5 589,-236.5 443,-236.5"/>
<text text-anchor="middle" x="516" y="-243.5" font-family="Helvetica,sans-Serif" font-size="10.00">hpp/core/weighed&#45;distance.hh</text>
</a>
</g>
</g>
<!-- Node1&#45;&gt;Node17 -->
<g id="edge22" class="edge"><title>Node1&#45;&gt;Node17</title>
<path fill="none" stroke="midnightblue" d="M415.334,-348.438C430.552,-340.384 452.736,-327.299 469,-312 484,-297.891 497.353,-278.393 505.957,-264.44"/>
<polygon fill="midnightblue" stroke="midnightblue" points="508.994,-266.181 511.116,-255.801 502.984,-262.592 508.994,-266.181"/>
</g>
<!-- Node3 -->
<g id="node3" class="node"><title>Node3</title>
<g id="a_node3"><a xlink:href="a00091.html" target="_top" xlink:title="hpp/core/path.hh">
<polygon fill="white" stroke="black" points="202.5,-236.5 202.5,-255.5 291.5,-255.5 291.5,-236.5 202.5,-236.5"/>
<text text-anchor="middle" x="247" y="-243.5" font-family="Helvetica,sans-Serif" font-size="10.00">hpp/core/path.hh</text>
</a>
</g>
</g>
<!-- Node2&#45;&gt;Node3 -->
<g id="edge2" class="edge"><title>Node2&#45;&gt;Node3</title>
<path fill="none" stroke="midnightblue" d="M247,-292.083C247,-285.006 247,-274.861 247,-265.986"/>
<polygon fill="midnightblue" stroke="midnightblue" points="250.5,-265.751 247,-255.751 243.5,-265.751 250.5,-265.751"/>
</g>
<!-- Node4 -->
<g id="node4" class="node"><title>Node4</title>
<polygon fill="white" stroke="#bfbfbf" points="183,-174.5 183,-193.5 311,-193.5 311,-174.5 183,-174.5"/>
<text text-anchor="middle" x="247" y="-181.5" font-family="Helvetica,sans-Serif" font-size="10.00">boost/concept_check.hpp</text>
</g>
<!-- Node3&#45;&gt;Node4 -->
<g id="edge3" class="edge"><title>Node3&#45;&gt;Node4</title>
<path fill="none" stroke="midnightblue" d="M247,-236.403C247,-227.938 247,-214.728 247,-203.82"/>
<polygon fill="midnightblue" stroke="midnightblue" points="250.5,-203.581 247,-193.581 243.5,-203.581 250.5,-203.581"/>
</g>
<!-- Node5 -->
<g id="node5" class="node"><title>Node5</title>
<g id="a_node5"><a xlink:href="a00001.html" target="_top" xlink:title="hpp/core/fwd.hh">
<polygon fill="white" stroke="black" points="296,-56.5 296,-75.5 382,-75.5 382,-56.5 296,-56.5"/>
<text text-anchor="middle" x="339" y="-63.5" font-family="Helvetica,sans-Serif" font-size="10.00">hpp/core/fwd.hh</text>
</a>
</g>
</g>
<!-- Node3&#45;&gt;Node5 -->
<g id="edge4" class="edge"><title>Node3&#45;&gt;Node5</title>
<path fill="none" stroke="midnightblue" d="M271.345,-236.393C287.814,-229.257 308.575,-217.433 320,-200 343.045,-164.836 343.058,-113.254 341.047,-85.8069"/>
<polygon fill="midnightblue" stroke="midnightblue" points="344.514,-85.2817 340.123,-75.6397 337.543,-85.9155 344.514,-85.2817"/>
</g>
<!-- Node12 -->
<g id="node12" class="node"><title>Node12</title>
<polygon fill="white" stroke="#bfbfbf" points="170.5,-56.5 170.5,-75.5 267.5,-75.5 267.5,-56.5 170.5,-56.5"/>
<text text-anchor="middle" x="219" y="-63.5" font-family="Helvetica,sans-Serif" font-size="10.00">hpp/core/config.hh</text>
</g>
<!-- Node3&#45;&gt;Node12 -->
<g id="edge11" class="edge"><title>Node3&#45;&gt;Node12</title>
<path fill="none" stroke="midnightblue" d="M220.789,-236.414C204.15,-229.445 183.943,-217.809 174,-200 152.21,-160.97 184.728,-109.611 204.93,-83.6137"/>
<polygon fill="midnightblue" stroke="midnightblue" points="207.893,-85.516 211.453,-75.5374 202.447,-81.1177 207.893,-85.516"/>
</g>
<!-- Node13 -->
<g id="node13" class="node"><title>Node13</title>
<g id="a_node13"><a xlink:href="a00066.html" target="_top" xlink:title="hpp/core/constraint\l&#45;set.hh">
<polygon fill="white" stroke="black" points="27,-169 27,-199 127,-199 127,-169 27,-169"/>
<text text-anchor="start" x="35" y="-187" font-family="Helvetica,sans-Serif" font-size="10.00">hpp/core/constraint</text>
<text text-anchor="middle" x="77" y="-176" font-family="Helvetica,sans-Serif" font-size="10.00">&#45;set.hh</text>
</a>
</g>
</g>
<!-- Node3&#45;&gt;Node13 -->
<g id="edge12" class="edge"><title>Node3&#45;&gt;Node13</title>
<path fill="none" stroke="midnightblue" d="M222.643,-236.403C197.599,-227.564 157.9,-213.553 126.27,-202.39"/>
<polygon fill="midnightblue" stroke="midnightblue" points="127.333,-199.053 116.738,-199.025 125.003,-205.654 127.333,-199.053"/>
</g>
<!-- Node6 -->
<g id="node6" class="node"><title>Node6</title>
<polygon fill="white" stroke="#bfbfbf" points="317,-0.5 317,-19.5 361,-19.5 361,-0.5 317,-0.5"/>
<text text-anchor="middle" x="339" y="-7.5" font-family="Helvetica,sans-Serif" font-size="10.00">vector</text>
</g>
<!-- Node5&#45;&gt;Node6 -->
<g id="edge5" class="edge"><title>Node5&#45;&gt;Node6</title>
<path fill="none" stroke="midnightblue" d="M339,-56.083C339,-49.0059 339,-38.8611 339,-29.9865"/>
<polygon fill="midnightblue" stroke="midnightblue" points="342.5,-29.751 339,-19.7511 335.5,-29.7511 342.5,-29.751"/>
</g>
<!-- Node7 -->
<g id="node7" class="node"><title>Node7</title>
<polygon fill="white" stroke="#bfbfbf" points="-0.5,-0.5 -0.5,-19.5 42.5,-19.5 42.5,-0.5 -0.5,-0.5"/>
<text text-anchor="middle" x="21" y="-7.5" font-family="Helvetica,sans-Serif" font-size="10.00">deque</text>
</g>
<!-- Node5&#45;&gt;Node7 -->
<g id="edge6" class="edge"><title>Node5&#45;&gt;Node7</title>
<path fill="none" stroke="midnightblue" d="M295.689,-58.7184C241.061,-50.6223 144.314,-35.7083 62,-20 58.9488,-19.4177 55.7769,-18.7798 52.6093,-18.121"/>
<polygon fill="midnightblue" stroke="midnightblue" points="53.1694,-14.6616 42.6579,-15.9876 51.702,-21.5061 53.1694,-14.6616"/>
</g>
<!-- Node8 -->
<g id="node8" class="node"><title>Node8</title>
<polygon fill="white" stroke="#bfbfbf" points="378.5,-0.5 378.5,-19.5 407.5,-19.5 407.5,-0.5 378.5,-0.5"/>
<text text-anchor="middle" x="393" y="-7.5" font-family="Helvetica,sans-Serif" font-size="10.00">list</text>
</g>
<!-- Node5&#45;&gt;Node8 -->
<g id="edge7" class="edge"><title>Node5&#45;&gt;Node8</title>
<path fill="none" stroke="midnightblue" d="M347.917,-56.083C355.78,-48.2195 367.431,-36.5688 376.919,-27.0813"/>
<polygon fill="midnightblue" stroke="midnightblue" points="379.653,-29.2971 384.249,-19.7511 374.703,-24.3473 379.653,-29.2971"/>
</g>
<!-- Node9 -->
<g id="node9" class="node"><title>Node9</title>
<polygon fill="white" stroke="#bfbfbf" points="426,-0.5 426,-19.5 456,-19.5 456,-0.5 426,-0.5"/>
<text text-anchor="middle" x="441" y="-7.5" font-family="Helvetica,sans-Serif" font-size="10.00">set</text>
</g>
<!-- Node5&#45;&gt;Node9 -->
<g id="edge8" class="edge"><title>Node5&#45;&gt;Node9</title>
<path fill="none" stroke="midnightblue" d="M355.388,-56.324C372.057,-47.4994 398.065,-33.7302 417.044,-23.6827"/>
<polygon fill="midnightblue" stroke="midnightblue" points="418.782,-26.7228 425.982,-18.9507 415.507,-20.5363 418.782,-26.7228"/>
</g>
<!-- Node10 -->
<g id="node10" class="node"><title>Node10</title>
<polygon fill="white" stroke="#bfbfbf" points="71,-0.5 71,-19.5 165,-19.5 165,-0.5 71,-0.5"/>
<text text-anchor="middle" x="118" y="-7.5" font-family="Helvetica,sans-Serif" font-size="10.00">hpp/util/pointer.hh</text>
</g>
<!-- Node5&#45;&gt;Node10 -->
<g id="edge9" class="edge"><title>Node5&#45;&gt;Node10</title>
<path fill="none" stroke="midnightblue" d="M303.982,-56.4435C265.752,-47.1024 204.433,-32.1194 162.743,-21.9326"/>
<polygon fill="midnightblue" stroke="midnightblue" points="163.399,-18.4901 152.854,-19.5164 161.738,-25.2901 163.399,-18.4901"/>
</g>
<!-- Node11 -->
<g id="node11" class="node"><title>Node11</title>
<g id="a_node11"><a doxygen="https://jmirabel.github.io/hpp-doc/api/hpp-constraints/doxygen-html/hpp-constraints.doxytag:https://jmirabel.github.io/hpp-doc/api/hpp-constraints/doxygen-html/" xlink:href="https://jmirabel.github.io/hpp-doc/api/hpp-constraints/doxygen-html/a00001.html" target="_top" xlink:title="hpp/constraints/fwd.hh">
<polygon fill="white" stroke="black" points="183,-0.5 183,-19.5 299,-19.5 299,-0.5 183,-0.5"/>
<text text-anchor="middle" x="241" y="-7.5" font-family="Helvetica,sans-Serif" font-size="10.00">hpp/constraints/fwd.hh</text>
</a>
</g>
</g>
<!-- Node5&#45;&gt;Node11 -->
<g id="edge10" class="edge"><title>Node5&#45;&gt;Node11</title>
<path fill="none" stroke="midnightblue" d="M323.255,-56.324C307.681,-47.7428 283.623,-34.486 265.541,-24.5224"/>
<polygon fill="midnightblue" stroke="midnightblue" points="267.154,-21.4152 256.706,-19.6545 263.776,-27.546 267.154,-21.4152"/>
</g>
<!-- Node13&#45;&gt;Node7 -->
<g id="edge13" class="edge"><title>Node13&#45;&gt;Node7</title>
<path fill="none" stroke="midnightblue" d="M53.8133,-168.838C41.5842,-159.947 27.7494,-147.276 21,-132 6.12808,-98.3409 11.6088,-54.0908 16.5523,-29.5037"/>
<polygon fill="midnightblue" stroke="midnightblue" points="19.9788,-30.2179 18.7108,-19.6992 13.1425,-28.7128 19.9788,-30.2179"/>
</g>
<!-- Node14 -->
<g id="node14" class="node"><title>Node14</title>
<g id="a_node14"><a xlink:href="a00067.html" target="_top" xlink:title="hpp/core/constraint.hh">
<polygon fill="white" stroke="black" points="30.5,-112.5 30.5,-131.5 143.5,-131.5 143.5,-112.5 30.5,-112.5"/>
<text text-anchor="middle" x="87" y="-119.5" font-family="Helvetica,sans-Serif" font-size="10.00">hpp/core/constraint.hh</text>
</a>
</g>
</g>
<!-- Node13&#45;&gt;Node14 -->
<g id="edge14" class="edge"><title>Node13&#45;&gt;Node14</title>
<path fill="none" stroke="midnightblue" d="M79.3699,-168.781C80.7181,-160.691 82.4231,-150.462 83.8792,-141.725"/>
<polygon fill="midnightblue" stroke="midnightblue" points="87.3532,-142.17 85.5449,-131.731 80.4485,-141.019 87.3532,-142.17"/>
</g>
<!-- Node14&#45;&gt;Node5 -->
<g id="edge17" class="edge"><title>Node14&#45;&gt;Node5</title>
<path fill="none" stroke="midnightblue" d="M126.93,-112.444C170.891,-103.023 241.627,-87.8656 289.183,-77.6752"/>
<polygon fill="midnightblue" stroke="midnightblue" points="290.212,-81.0341 299.257,-75.5164 288.745,-74.1895 290.212,-81.0341"/>
</g>
<!-- Node14&#45;&gt;Node12 -->
<g id="edge16" class="edge"><title>Node14&#45;&gt;Node12</title>
<path fill="none" stroke="midnightblue" d="M107.916,-112.444C129.736,-103.517 164.15,-89.4387 188.892,-79.3168"/>
<polygon fill="midnightblue" stroke="midnightblue" points="190.252,-82.5422 198.182,-75.5164 187.601,-76.0634 190.252,-82.5422"/>
</g>
<!-- Node15 -->
<g id="node15" class="node"><title>Node15</title>
<polygon fill="white" stroke="#bfbfbf" points="61,-56.5 61,-75.5 113,-75.5 113,-56.5 61,-56.5"/>
<text text-anchor="middle" x="87" y="-63.5" font-family="Helvetica,sans-Serif" font-size="10.00">ostream</text>
</g>
<!-- Node14&#45;&gt;Node15 -->
<g id="edge15" class="edge"><title>Node14&#45;&gt;Node15</title>
<path fill="none" stroke="midnightblue" d="M87,-112.083C87,-105.006 87,-94.8611 87,-85.9865"/>
<polygon fill="midnightblue" stroke="midnightblue" points="90.5001,-85.751 87,-75.7511 83.5001,-85.7511 90.5001,-85.751"/>
</g>
<!-- Node16&#45;&gt;Node3 -->
<g id="edge21" class="edge"><title>Node16&#45;&gt;Node3</title>
<path fill="none" stroke="midnightblue" d="M374.074,-292.444C348.781,-283.399 308.698,-269.064 280.32,-258.916"/>
<polygon fill="midnightblue" stroke="midnightblue" points="281.409,-255.588 270.814,-255.516 279.052,-262.179 281.409,-255.588"/>
</g>
<!-- Node16&#45;&gt;Node5 -->
<g id="edge19" class="edge"><title>Node16&#45;&gt;Node5</title>
<path fill="none" stroke="midnightblue" d="M398.775,-292.403C400.446,-270.955 403.31,-213.535 391,-168 382.464,-136.422 363.161,-103.367 350.626,-84.003"/>
<polygon fill="midnightblue" stroke="midnightblue" points="353.538,-82.0614 345.093,-75.6637 347.705,-85.9314 353.538,-82.0614"/>
</g>
<!-- Node16&#45;&gt;Node12 -->
<g id="edge20" class="edge"><title>Node16&#45;&gt;Node12</title>
<path fill="none" stroke="midnightblue" d="M393.941,-292.438C383.387,-270.587 353.554,-211.421 320,-168 294.299,-134.741 258.354,-101.247 236.998,-82.4094"/>
<polygon fill="midnightblue" stroke="midnightblue" points="239.16,-79.6509 229.323,-75.7174 234.56,-84.9272 239.16,-79.6509"/>
</g>
<!-- Node18 -->
<g id="node18" class="node"><title>Node18</title>
<g id="a_node18"><a xlink:href="a00074.html" target="_top" xlink:title="hpp/core/distance.hh">
<polygon fill="white" stroke="black" points="443.5,-112.5 443.5,-131.5 550.5,-131.5 550.5,-112.5 443.5,-112.5"/>
<text text-anchor="middle" x="497" y="-119.5" font-family="Helvetica,sans-Serif" font-size="10.00">hpp/core/distance.hh</text>
</a>
</g>
</g>
<!-- Node17&#45;&gt;Node18 -->
<g id="edge23" class="edge"><title>Node17&#45;&gt;Node18</title>
<path fill="none" stroke="midnightblue" d="M514.634,-236.226C511.566,-216.53 504.076,-168.437 499.912,-141.7"/>
<polygon fill="midnightblue" stroke="midnightblue" points="503.351,-141.037 498.354,-131.694 496.435,-142.114 503.351,-141.037"/>
</g>
<!-- Node18&#45;&gt;Node5 -->
<g id="edge25" class="edge"><title>Node18&#45;&gt;Node5</title>
<path fill="none" stroke="midnightblue" d="M471.964,-112.444C445.384,-103.359 403.191,-88.9388 373.477,-78.7831"/>
<polygon fill="midnightblue" stroke="midnightblue" points="374.513,-75.4386 363.918,-75.5164 372.249,-82.0625 374.513,-75.4386"/>
</g>
<!-- Node18&#45;&gt;Node12 -->
<g id="edge26" class="edge"><title>Node18&#45;&gt;Node12</title>
<path fill="none" stroke="midnightblue" d="M452.95,-112.444C404.149,-102.964 325.437,-87.6747 272.97,-77.4835"/>
<polygon fill="midnightblue" stroke="midnightblue" points="273.328,-73.9875 262.844,-75.5164 271.993,-80.8591 273.328,-73.9875"/>
</g>
<!-- Node19 -->
<g id="node19" class="node"><title>Node19</title>
<g id="a_node19"><a doxygen="https://jmirabel.github.io/hpp-doc/api/hpp-model/doxygen-html/hpp-model.doxytag:https://jmirabel.github.io/hpp-doc/api/hpp-model/doxygen-html/" xlink:href="https://jmirabel.github.io/hpp-doc/api/hpp-model/doxygen-html/a00035.html" target="_top" xlink:title="hpp/model/fwd.hh">
<polygon fill="white" stroke="black" points="450,-56.5 450,-75.5 544,-75.5 544,-56.5 450,-56.5"/>
<text text-anchor="middle" x="497" y="-63.5" font-family="Helvetica,sans-Serif" font-size="10.00">hpp/model/fwd.hh</text>
</a>
</g>
</g>
<!-- Node18&#45;&gt;Node19 -->
<g id="edge24" class="edge"><title>Node18&#45;&gt;Node19</title>
<path fill="none" stroke="midnightblue" d="M497,-112.083C497,-105.006 497,-94.8611 497,-85.9865"/>
<polygon fill="midnightblue" stroke="midnightblue" points="500.5,-85.751 497,-75.7511 493.5,-85.7511 500.5,-85.751"/>
</g>
</g>
</svg>
