<?xml version="1.0" encoding="UTF-8" standalone="no"?>
<!DOCTYPE svg PUBLIC "-//W3C//DTD SVG 1.1//EN"
 "http://www.w3.org/Graphics/SVG/1.1/DTD/svg11.dtd">
<!-- Generated by graphviz version 2.36.0 (20140111.2315)
 -->
<!-- Title: interpolated&#45;steering&#45;method.hh Pages: 1 -->
<svg width="899pt" height="400pt"
 viewBox="0.00 0.00 899.00 400.00" xmlns="http://www.w3.org/2000/svg" xmlns:xlink="http://www.w3.org/1999/xlink">
<g id="graph0" class="graph" transform="scale(1 1) rotate(0) translate(4 396)">
<title>interpolated&#45;steering&#45;method.hh</title>
<polygon fill="white" stroke="none" points="-4,4 -4,-396 895.004,-396 895.004,4 -4,4"/>
<!-- Node1 -->
<g id="node1" class="node"><title>Node1</title>
<polygon fill="#bfbfbf" stroke="black" points="559.004,-361 559.004,-391 663.004,-391 663.004,-361 559.004,-361"/>
<text text-anchor="start" x="567.004" y="-379" font-family="Helvetica,sans-Serif" font-size="10.00">interpolated&#45;steering</text>
<text text-anchor="middle" x="611.004" y="-368" font-family="Helvetica,sans-Serif" font-size="10.00">&#45;method.hh</text>
</g>
<!-- Node2 -->
<g id="node2" class="node"><title>Node2</title>
<g id="a_node2"><a xlink:href="a00151.html" target="_top" xlink:title="hpp/core/steering&#45;method.hh">
<polygon fill="white" stroke="black" points="311.004,-298.5 311.004,-317.5 451.004,-317.5 451.004,-298.5 311.004,-298.5"/>
<text text-anchor="middle" x="381.004" y="-305.5" font-family="Helvetica,sans-Serif" font-size="10.00">hpp/core/steering&#45;method.hh</text>
</a>
</g>
</g>
<!-- Node1&#45;&gt;Node2 -->
<g id="edge1" class="edge"><title>Node1&#45;&gt;Node2</title>
<path fill="none" stroke="midnightblue" d="M561.945,-360.922C519.71,-348.803 459.552,-331.54 420.396,-320.304"/>
<polygon fill="midnightblue" stroke="midnightblue" points="421.251,-316.908 410.673,-317.514 419.32,-323.636 421.251,-316.908"/>
</g>
<!-- Node19 -->
<g id="node19" class="node"><title>Node19</title>
<g id="a_node19"><a xlink:href="a00117.html" target="_top" xlink:title="hpp/core/interpolated\l&#45;path.hh">
<polygon fill="white" stroke="black" points="557.504,-293 557.504,-323 664.504,-323 664.504,-293 557.504,-293"/>
<text text-anchor="start" x="565.504" y="-311" font-family="Helvetica,sans-Serif" font-size="10.00">hpp/core/interpolated</text>
<text text-anchor="middle" x="611.004" y="-300" font-family="Helvetica,sans-Serif" font-size="10.00">&#45;path.hh</text>
</a>
</g>
</g>
<!-- Node1&#45;&gt;Node19 -->
<g id="edge22" class="edge"><title>Node1&#45;&gt;Node19</title>
<path fill="none" stroke="midnightblue" d="M611.004,-360.679C611.004,-352.722 611.004,-342.605 611.004,-333.436"/>
<polygon fill="midnightblue" stroke="midnightblue" points="614.504,-333.293 611.004,-323.293 607.504,-333.293 614.504,-333.293"/>
</g>
<!-- Node20 -->
<g id="node20" class="node"><title>Node20</title>
<g id="a_node20"><a xlink:href="a00156.html" target="_top" xlink:title="hpp/core/weighed&#45;distance.hh">
<polygon fill="white" stroke="black" points="683.004,-298.5 683.004,-317.5 829.004,-317.5 829.004,-298.5 683.004,-298.5"/>
<text text-anchor="middle" x="756.004" y="-305.5" font-family="Helvetica,sans-Serif" font-size="10.00">hpp/core/weighed&#45;distance.hh</text>
</a>
</g>
</g>
<!-- Node1&#45;&gt;Node20 -->
<g id="edge26" class="edge"><title>Node1&#45;&gt;Node20</title>
<path fill="none" stroke="midnightblue" d="M642.11,-360.841C667.528,-349.272 703.155,-333.055 727.763,-321.855"/>
<polygon fill="midnightblue" stroke="midnightblue" points="729.279,-325.01 736.93,-317.682 726.379,-318.639 729.279,-325.01"/>
</g>
<!-- Node3 -->
<g id="node3" class="node"><title>Node3</title>
<g id="a_node3"><a xlink:href="a00001.html" target="_top" xlink:title="hpp/core/fwd.hh">
<polygon fill="white" stroke="black" points="201.004,-56.5 201.004,-75.5 287.004,-75.5 287.004,-56.5 201.004,-56.5"/>
<text text-anchor="middle" x="244.004" y="-63.5" font-family="Helvetica,sans-Serif" font-size="10.00">hpp/core/fwd.hh</text>
</a>
</g>
</g>
<!-- Node2&#45;&gt;Node3 -->
<g id="edge2" class="edge"><title>Node2&#45;&gt;Node3</title>
<path fill="none" stroke="midnightblue" d="M320.98,-298.489C225.869,-283.637 47.4341,-249.751 10.0041,-200 -15.6082,-165.957 12.8466,-136.06 48.0041,-112 70.916,-96.3204 141.009,-82.7546 190.816,-74.7279"/>
<polygon fill="midnightblue" stroke="midnightblue" points="191.468,-78.1683 200.799,-73.149 190.375,-71.2542 191.468,-78.1683"/>
</g>
<!-- Node10 -->
<g id="node10" class="node"><title>Node10</title>
<g id="a_node10"><a xlink:href="a00135.html" target="_top" xlink:title="hpp/core/path.hh">
<polygon fill="white" stroke="black" points="336.504,-236.5 336.504,-255.5 425.504,-255.5 425.504,-236.5 336.504,-236.5"/>
<text text-anchor="middle" x="381.004" y="-243.5" font-family="Helvetica,sans-Serif" font-size="10.00">hpp/core/path.hh</text>
</a>
</g>
</g>
<!-- Node2&#45;&gt;Node10 -->
<g id="edge9" class="edge"><title>Node2&#45;&gt;Node10</title>
<path fill="none" stroke="midnightblue" d="M381.004,-298.403C381.004,-289.938 381.004,-276.728 381.004,-265.82"/>
<polygon fill="midnightblue" stroke="midnightblue" points="384.504,-265.581 381.004,-255.581 377.504,-265.581 384.504,-265.581"/>
</g>
<!-- Node4 -->
<g id="node4" class="node"><title>Node4</title>
<polygon fill="white" stroke="#bfbfbf" points="363.004,-0.5 363.004,-19.5 407.004,-19.5 407.004,-0.5 363.004,-0.5"/>
<text text-anchor="middle" x="385.004" y="-7.5" font-family="Helvetica,sans-Serif" font-size="10.00">vector</text>
</g>
<!-- Node3&#45;&gt;Node4 -->
<g id="edge3" class="edge"><title>Node3&#45;&gt;Node4</title>
<path fill="none" stroke="midnightblue" d="M266.346,-56.4435C289.757,-47.4776 326.74,-33.314 353.194,-23.1827"/>
<polygon fill="midnightblue" stroke="midnightblue" points="354.68,-26.3615 362.767,-19.5164 352.176,-19.8245 354.68,-26.3615"/>
</g>
<!-- Node5 -->
<g id="node5" class="node"><title>Node5</title>
<polygon fill="white" stroke="#bfbfbf" points="7.50406,-0.5 7.50406,-19.5 50.5041,-19.5 50.5041,-0.5 7.50406,-0.5"/>
<text text-anchor="middle" x="29.0041" y="-7.5" font-family="Helvetica,sans-Serif" font-size="10.00">deque</text>
</g>
<!-- Node3&#45;&gt;Node5 -->
<g id="edge4" class="edge"><title>Node3&#45;&gt;Node5</title>
<path fill="none" stroke="midnightblue" d="M207.23,-56.4943C172.039,-48.2464 117.242,-35.123 60.5129,-20.0478"/>
<polygon fill="midnightblue" stroke="midnightblue" points="61.2159,-16.6129 50.6513,-17.4124 59.4086,-23.3756 61.2159,-16.6129"/>
</g>
<!-- Node6 -->
<g id="node6" class="node"><title>Node6</title>
<polygon fill="white" stroke="#bfbfbf" points="424.504,-0.5 424.504,-19.5 453.504,-19.5 453.504,-0.5 424.504,-0.5"/>
<text text-anchor="middle" x="439.004" y="-7.5" font-family="Helvetica,sans-Serif" font-size="10.00">list</text>
</g>
<!-- Node3&#45;&gt;Node6 -->
<g id="edge5" class="edge"><title>Node3&#45;&gt;Node6</title>
<path fill="none" stroke="midnightblue" d="M280.672,-56.492C313.469,-48.63 362.993,-36.1393 414.689,-19.8456"/>
<polygon fill="midnightblue" stroke="midnightblue" points="415.9,-23.133 424.363,-16.7592 413.773,-16.4641 415.9,-23.133"/>
</g>
<!-- Node7 -->
<g id="node7" class="node"><title>Node7</title>
<polygon fill="white" stroke="#bfbfbf" points="69.0041,-0.5 69.0041,-19.5 99.0041,-19.5 99.0041,-0.5 69.0041,-0.5"/>
<text text-anchor="middle" x="84.0041" y="-7.5" font-family="Helvetica,sans-Serif" font-size="10.00">set</text>
</g>
<!-- Node3&#45;&gt;Node7 -->
<g id="edge6" class="edge"><title>Node3&#45;&gt;Node7</title>
<path fill="none" stroke="midnightblue" d="M217.061,-56.4294C191.427,-48.2 151.572,-35.2116 108.69,-20.1511"/>
<polygon fill="midnightblue" stroke="midnightblue" points="109.801,-16.8317 99.2066,-16.8035 107.471,-23.4325 109.801,-16.8317"/>
</g>
<!-- Node8 -->
<g id="node8" class="node"><title>Node8</title>
<polygon fill="white" stroke="#bfbfbf" points="117.004,-0.5 117.004,-19.5 211.004,-19.5 211.004,-0.5 117.004,-0.5"/>
<text text-anchor="middle" x="164.004" y="-7.5" font-family="Helvetica,sans-Serif" font-size="10.00">hpp/util/pointer.hh</text>
</g>
<!-- Node3&#45;&gt;Node8 -->
<g id="edge7" class="edge"><title>Node3&#45;&gt;Node8</title>
<path fill="none" stroke="midnightblue" d="M231.151,-56.324C218.788,-47.979 199.874,-35.2122 185.267,-25.3524"/>
<polygon fill="midnightblue" stroke="midnightblue" points="187.072,-22.3483 176.826,-19.6545 183.156,-28.1503 187.072,-22.3483"/>
</g>
<!-- Node9 -->
<g id="node9" class="node"><title>Node9</title>
<g id="a_node9"><a doxygen="https://jmirabel.github.io/hpp-doc/api/hpp-constraints/doxygen-html/hpp-constraints.doxytag:https://jmirabel.github.io/hpp-doc/api/hpp-constraints/doxygen-html/" xlink:href="https://jmirabel.github.io/hpp-doc/api/hpp-constraints/doxygen-html/a00001.html" target="_top" xlink:title="hpp/constraints/fwd.hh">
<polygon fill="white" stroke="black" points="229.004,-0.5 229.004,-19.5 345.004,-19.5 345.004,-0.5 229.004,-0.5"/>
<text text-anchor="middle" x="287.004" y="-7.5" font-family="Helvetica,sans-Serif" font-size="10.00">hpp/constraints/fwd.hh</text>
</a>
</g>
</g>
<!-- Node3&#45;&gt;Node9 -->
<g id="edge8" class="edge"><title>Node3&#45;&gt;Node9</title>
<path fill="none" stroke="midnightblue" d="M251.105,-56.083C257.241,-48.3768 266.274,-37.0333 273.743,-27.6531"/>
<polygon fill="midnightblue" stroke="midnightblue" points="276.544,-29.7542 280.036,-19.7511 271.068,-25.3936 276.544,-29.7542"/>
</g>
<!-- Node10&#45;&gt;Node3 -->
<g id="edge11" class="edge"><title>Node10&#45;&gt;Node3</title>
<path fill="none" stroke="midnightblue" d="M336.371,-242.114C279.788,-237.418 187.044,-225.899 166.004,-200 157.037,-188.961 161.412,-181.46 166.004,-168 177.898,-133.14 207.239,-100.962 226.351,-82.6838"/>
<polygon fill="midnightblue" stroke="midnightblue" points="228.888,-85.1036 233.834,-75.734 224.125,-79.9742 228.888,-85.1036"/>
</g>
<!-- Node11 -->
<g id="node11" class="node"><title>Node11</title>
<polygon fill="white" stroke="#bfbfbf" points="175.004,-174.5 175.004,-193.5 303.004,-193.5 303.004,-174.5 175.004,-174.5"/>
<text text-anchor="middle" x="239.004" y="-181.5" font-family="Helvetica,sans-Serif" font-size="10.00">boost/concept_check.hpp</text>
</g>
<!-- Node10&#45;&gt;Node11 -->
<g id="edge10" class="edge"><title>Node10&#45;&gt;Node11</title>
<path fill="none" stroke="midnightblue" d="M360.659,-236.403C336.617,-226.245 296.407,-209.255 268.842,-197.607"/>
<polygon fill="midnightblue" stroke="midnightblue" points="269.885,-194.249 259.311,-193.581 267.161,-200.697 269.885,-194.249"/>
</g>
<!-- Node12 -->
<g id="node12" class="node"><title>Node12</title>
<polygon fill="white" stroke="#bfbfbf" points="608.504,-56.5 608.504,-75.5 705.504,-75.5 705.504,-56.5 608.504,-56.5"/>
<text text-anchor="middle" x="657.004" y="-63.5" font-family="Helvetica,sans-Serif" font-size="10.00">hpp/core/config.hh</text>
</g>
<!-- Node10&#45;&gt;Node12 -->
<g id="edge12" class="edge"><title>Node10&#45;&gt;Node12</title>
<path fill="none" stroke="midnightblue" d="M425.763,-243.043C465.685,-239.345 524.126,-228.939 566.004,-200 608.643,-170.535 637.224,-114.069 649.765,-85.1089"/>
<polygon fill="midnightblue" stroke="midnightblue" points="653.034,-86.3613 653.655,-75.7847 646.574,-83.6655 653.034,-86.3613"/>
</g>
<!-- Node13 -->
<g id="node13" class="node"><title>Node13</title>
<g id="a_node13"><a xlink:href="a00099.html" target="_top" xlink:title="hpp/core/constraint\l&#45;set.hh">
<polygon fill="white" stroke="black" points="19.0041,-169 19.0041,-199 119.004,-199 119.004,-169 19.0041,-169"/>
<text text-anchor="start" x="27.0041" y="-187" font-family="Helvetica,sans-Serif" font-size="10.00">hpp/core/constraint</text>
<text text-anchor="middle" x="69.0041" y="-176" font-family="Helvetica,sans-Serif" font-size="10.00">&#45;set.hh</text>
</a>
</g>
</g>
<!-- Node10&#45;&gt;Node13 -->
<g id="edge13" class="edge"><title>Node10&#45;&gt;Node13</title>
<path fill="none" stroke="midnightblue" d="M336.07,-237.552C286.286,-229.136 203.696,-214.688 133.004,-200 131.747,-199.739 130.477,-199.472 129.197,-199.199"/>
<polygon fill="midnightblue" stroke="midnightblue" points="129.775,-195.743 119.259,-197.032 128.284,-202.583 129.775,-195.743"/>
</g>
<!-- Node16 -->
<g id="node16" class="node"><title>Node16</title>
<polygon fill="white" stroke="#bfbfbf" points="321.504,-174.5 321.504,-193.5 440.504,-193.5 440.504,-174.5 321.504,-174.5"/>
<text text-anchor="middle" x="381.004" y="-181.5" font-family="Helvetica,sans-Serif" font-size="10.00">hpp/core/deprecated.hh</text>
</g>
<!-- Node10&#45;&gt;Node16 -->
<g id="edge19" class="edge"><title>Node10&#45;&gt;Node16</title>
<path fill="none" stroke="midnightblue" d="M381.004,-236.403C381.004,-227.938 381.004,-214.728 381.004,-203.82"/>
<polygon fill="midnightblue" stroke="midnightblue" points="384.504,-203.581 381.004,-193.581 377.504,-203.581 384.504,-203.581"/>
</g>
<!-- Node17 -->
<g id="node17" class="node"><title>Node17</title>
<g id="a_node17"><a xlink:href="a00143.html" target="_top" xlink:title="hpp/core/projection\l&#45;error.hh">
<polygon fill="white" stroke="black" points="458.504,-169 458.504,-199 557.504,-199 557.504,-169 458.504,-169"/>
<text text-anchor="start" x="466.504" y="-187" font-family="Helvetica,sans-Serif" font-size="10.00">hpp/core/projection</text>
<text text-anchor="middle" x="508.004" y="-176" font-family="Helvetica,sans-Serif" font-size="10.00">&#45;error.hh</text>
</a>
</g>
</g>
<!-- Node10&#45;&gt;Node17 -->
<g id="edge20" class="edge"><title>Node10&#45;&gt;Node17</title>
<path fill="none" stroke="midnightblue" d="M399.2,-236.403C417.285,-227.86 445.598,-214.483 468.809,-203.517"/>
<polygon fill="midnightblue" stroke="midnightblue" points="470.526,-206.577 478.073,-199.141 467.536,-200.248 470.526,-206.577"/>
</g>
<!-- Node13&#45;&gt;Node5 -->
<g id="edge14" class="edge"><title>Node13&#45;&gt;Node5</title>
<path fill="none" stroke="midnightblue" d="M62.0044,-168.592C57.393,-158.55 51.5691,-144.724 48.0041,-132 38.0943,-96.6312 32.9073,-53.9034 30.5815,-29.8501"/>
<polygon fill="midnightblue" stroke="midnightblue" points="34.0463,-29.3012 29.6614,-19.6564 27.0746,-29.9305 34.0463,-29.3012"/>
</g>
<!-- Node14 -->
<g id="node14" class="node"><title>Node14</title>
<g id="a_node14"><a xlink:href="a00100.html" target="_top" xlink:title="hpp/core/constraint.hh">
<polygon fill="white" stroke="black" points="57.5041,-112.5 57.5041,-131.5 170.504,-131.5 170.504,-112.5 57.5041,-112.5"/>
<text text-anchor="middle" x="114.004" y="-119.5" font-family="Helvetica,sans-Serif" font-size="10.00">hpp/core/constraint.hh</text>
</a>
</g>
</g>
<!-- Node13&#45;&gt;Node14 -->
<g id="edge15" class="edge"><title>Node13&#45;&gt;Node14</title>
<path fill="none" stroke="midnightblue" d="M79.6684,-168.781C86.1401,-160.152 94.4379,-149.088 101.255,-139.999"/>
<polygon fill="midnightblue" stroke="midnightblue" points="104.256,-141.831 107.456,-131.731 98.6561,-137.631 104.256,-141.831"/>
</g>
<!-- Node14&#45;&gt;Node3 -->
<g id="edge18" class="edge"><title>Node14&#45;&gt;Node3</title>
<path fill="none" stroke="midnightblue" d="M134.603,-112.444C155.997,-103.557 189.685,-89.5632 214.028,-79.4514"/>
<polygon fill="midnightblue" stroke="midnightblue" points="215.609,-82.5848 223.502,-75.5164 212.924,-76.1203 215.609,-82.5848"/>
</g>
<!-- Node14&#45;&gt;Node12 -->
<g id="edge17" class="edge"><title>Node14&#45;&gt;Node12</title>
<path fill="none" stroke="midnightblue" d="M170.578,-115.374C274.152,-105.074 493.241,-83.2859 598.344,-72.8336"/>
<polygon fill="midnightblue" stroke="midnightblue" points="598.852,-76.3005 608.456,-71.8279 598.159,-69.3348 598.852,-76.3005"/>
</g>
<!-- Node15 -->
<g id="node15" class="node"><title>Node15</title>
<polygon fill="white" stroke="#bfbfbf" points="88.0041,-56.5 88.0041,-75.5 140.004,-75.5 140.004,-56.5 88.0041,-56.5"/>
<text text-anchor="middle" x="114.004" y="-63.5" font-family="Helvetica,sans-Serif" font-size="10.00">ostream</text>
</g>
<!-- Node14&#45;&gt;Node15 -->
<g id="edge16" class="edge"><title>Node14&#45;&gt;Node15</title>
<path fill="none" stroke="midnightblue" d="M114.004,-112.083C114.004,-105.006 114.004,-94.8611 114.004,-85.9865"/>
<polygon fill="midnightblue" stroke="midnightblue" points="117.504,-85.751 114.004,-75.7511 110.504,-85.7511 117.504,-85.751"/>
</g>
<!-- Node18 -->
<g id="node18" class="node"><title>Node18</title>
<polygon fill="white" stroke="#bfbfbf" points="478.504,-112.5 478.504,-131.5 537.504,-131.5 537.504,-112.5 478.504,-112.5"/>
<text text-anchor="middle" x="508.004" y="-119.5" font-family="Helvetica,sans-Serif" font-size="10.00">exception</text>
</g>
<!-- Node17&#45;&gt;Node18 -->
<g id="edge21" class="edge"><title>Node17&#45;&gt;Node18</title>
<path fill="none" stroke="midnightblue" d="M508.004,-168.781C508.004,-160.781 508.004,-150.689 508.004,-142.017"/>
<polygon fill="midnightblue" stroke="midnightblue" points="511.504,-141.73 508.004,-131.731 504.504,-141.731 511.504,-141.73"/>
</g>
<!-- Node19&#45;&gt;Node3 -->
<g id="edge23" class="edge"><title>Node19&#45;&gt;Node3</title>
<path fill="none" stroke="midnightblue" d="M611.034,-292.931C610.279,-256.498 602.801,-158.671 546.004,-112 509.039,-81.6254 374.052,-71.7125 297.656,-68.5075"/>
<polygon fill="midnightblue" stroke="midnightblue" points="297.411,-64.9952 287.281,-68.0984 297.135,-71.9898 297.411,-64.9952"/>
</g>
<!-- Node19&#45;&gt;Node10 -->
<g id="edge25" class="edge"><title>Node19&#45;&gt;Node10</title>
<path fill="none" stroke="midnightblue" d="M557.37,-293.008C516.723,-282.405 461.612,-268.028 423.876,-258.184"/>
<polygon fill="midnightblue" stroke="midnightblue" points="424.28,-254.672 413.72,-255.535 422.513,-261.446 424.28,-254.672"/>
</g>
<!-- Node19&#45;&gt;Node12 -->
<g id="edge24" class="edge"><title>Node19&#45;&gt;Node12</title>
<path fill="none" stroke="midnightblue" d="M620.375,-292.917C626.47,-283.02 634.004,-269.234 638.004,-256 656.185,-195.853 657.828,-120.542 657.479,-85.9575"/>
<polygon fill="midnightblue" stroke="midnightblue" points="660.971,-85.4519 657.296,-75.5146 653.972,-85.5743 660.971,-85.4519"/>
</g>
<!-- Node21 -->
<g id="node21" class="node"><title>Node21</title>
<g id="a_node21"><a xlink:href="a00109.html" target="_top" xlink:title="hpp/core/distance.hh">
<polygon fill="white" stroke="black" points="702.504,-174.5 702.504,-193.5 809.504,-193.5 809.504,-174.5 702.504,-174.5"/>
<text text-anchor="middle" x="756.004" y="-181.5" font-family="Helvetica,sans-Serif" font-size="10.00">hpp/core/distance.hh</text>
</a>
</g>
</g>
<!-- Node20&#45;&gt;Node21 -->
<g id="edge27" class="edge"><title>Node20&#45;&gt;Node21</title>
<path fill="none" stroke="midnightblue" d="M756.004,-298.226C756.004,-278.53 756.004,-230.437 756.004,-203.7"/>
<polygon fill="midnightblue" stroke="midnightblue" points="759.504,-203.694 756.004,-193.694 752.504,-203.694 759.504,-203.694"/>
</g>
<!-- Node21&#45;&gt;Node3 -->
<g id="edge29" class="edge"><title>Node21&#45;&gt;Node3</title>
<path fill="none" stroke="midnightblue" d="M740.048,-174.406C711.066,-159.204 647.453,-127.699 590.004,-112 488.71,-84.3203 365.946,-73.4933 297.235,-69.3874"/>
<polygon fill="midnightblue" stroke="midnightblue" points="297.275,-65.884 287.091,-68.8068 296.875,-72.8726 297.275,-65.884"/>
</g>
<!-- Node21&#45;&gt;Node12 -->
<g id="edge30" class="edge"><title>Node21&#45;&gt;Node12</title>
<path fill="none" stroke="midnightblue" d="M751.203,-174.158C743.385,-160.17 726.961,-132.429 709.004,-112 699.275,-100.931 686.838,-90.0744 676.567,-81.7986"/>
<polygon fill="midnightblue" stroke="midnightblue" points="678.582,-78.9305 668.556,-75.5059 674.258,-84.4354 678.582,-78.9305"/>
</g>
<!-- Node22 -->
<g id="node22" class="node"><title>Node22</title>
<g id="a_node22"><a doxygen="https://jmirabel.github.io/hpp-doc/api/hpp-model/doxygen-html/hpp-model.doxytag:https://jmirabel.github.io/hpp-doc/api/hpp-model/doxygen-html/" xlink:href="https://jmirabel.github.io/hpp-doc/api/hpp-model/doxygen-html/a00037.html" target="_top" xlink:title="hpp/model/fwd.hh">
<polygon fill="white" stroke="black" points="797.004,-56.5 797.004,-75.5 891.004,-75.5 891.004,-56.5 797.004,-56.5"/>
<text text-anchor="middle" x="844.004" y="-63.5" font-family="Helvetica,sans-Serif" font-size="10.00">hpp/model/fwd.hh</text>
</a>
</g>
</g>
<!-- Node21&#45;&gt;Node22 -->
<g id="edge28" class="edge"><title>Node21&#45;&gt;Node22</title>
<path fill="none" stroke="midnightblue" d="M797.494,-174.433C820.761,-167.277 847.875,-154.477 862.004,-132 871.219,-117.34 863.782,-97.9284 855.856,-84.1458"/>
<polygon fill="midnightblue" stroke="midnightblue" points="858.783,-82.2246 850.49,-75.6309 852.861,-85.9571 858.783,-82.2246"/>
</g>
<!-- Node23 -->
<g id="node23" class="node"><title>Node23</title>
<g id="a_node23"><a xlink:href="a00123.html" target="_top" xlink:title="hpp/core/node.hh">
<polygon fill="white" stroke="black" points="761.004,-112.5 761.004,-131.5 853.004,-131.5 853.004,-112.5 761.004,-112.5"/>
<text text-anchor="middle" x="807.004" y="-119.5" font-family="Helvetica,sans-Serif" font-size="10.00">hpp/core/node.hh</text>
</a>
</g>
</g>
<!-- Node21&#45;&gt;Node23 -->
<g id="edge31" class="edge"><title>Node21&#45;&gt;Node23</title>
<path fill="none" stroke="midnightblue" d="M763.311,-174.403C771.037,-165.314 783.412,-150.756 793.023,-139.449"/>
<polygon fill="midnightblue" stroke="midnightblue" points="795.901,-141.467 799.711,-131.581 790.567,-136.933 795.901,-141.467"/>
</g>
<!-- Node23&#45;&gt;Node3 -->
<g id="edge33" class="edge"><title>Node23&#45;&gt;Node3</title>
<path fill="none" stroke="midnightblue" d="M760.931,-116.581C657.513,-106.662 407.382,-82.6704 297.401,-72.1216"/>
<polygon fill="midnightblue" stroke="midnightblue" points="297.494,-68.6145 287.205,-71.1436 296.825,-75.5825 297.494,-68.6145"/>
</g>
<!-- Node23&#45;&gt;Node12 -->
<g id="edge34" class="edge"><title>Node23&#45;&gt;Node12</title>
<path fill="none" stroke="midnightblue" d="M783.236,-112.444C758.111,-103.399 718.293,-89.064 690.104,-78.9158"/>
<polygon fill="midnightblue" stroke="midnightblue" points="691.255,-75.6106 680.661,-75.5164 688.884,-82.1968 691.255,-75.6106"/>
</g>
<!-- Node23&#45;&gt;Node22 -->
<g id="edge32" class="edge"><title>Node23&#45;&gt;Node22</title>
<path fill="none" stroke="midnightblue" d="M813.114,-112.083C818.286,-104.534 825.85,-93.4948 832.198,-84.2298"/>
<polygon fill="midnightblue" stroke="midnightblue" points="835.243,-85.9787 838.008,-75.7511 829.468,-82.0221 835.243,-85.9787"/>
</g>
</g>
</svg>
