<?xml version="1.0" encoding="UTF-8" standalone="no"?>
<!DOCTYPE svg PUBLIC "-//W3C//DTD SVG 1.1//EN"
 "http://www.w3.org/Graphics/SVG/1.1/DTD/svg11.dtd">
<!-- Generated by graphviz version 2.36.0 (20140111.2315)
 -->
<!-- Title: relative&#45;motion.hh Pages: 1 -->
<svg width="530pt" height="140pt"
 viewBox="0.00 0.00 530.00 140.00" xmlns="http://www.w3.org/2000/svg" xmlns:xlink="http://www.w3.org/1999/xlink">
<g id="graph0" class="graph" transform="scale(1 1) rotate(0) translate(4 136)">
<title>relative&#45;motion.hh</title>
<polygon fill="white" stroke="none" points="-4,4 -4,-136 526,-136 526,4 -4,4"/>
<!-- Node1 -->
<g id="node1" class="node"><title>Node1</title>
<polygon fill="#bfbfbf" stroke="black" points="83,-112.5 83,-131.5 177,-131.5 177,-112.5 83,-112.5"/>
<text text-anchor="middle" x="130" y="-119.5" font-family="Helvetica,sans-Serif" font-size="10.00">relative&#45;motion.hh</text>
</g>
<!-- Node2 -->
<g id="node2" class="node"><title>Node2</title>
<polygon fill="white" stroke="#bfbfbf" points="-0.5,-56.5 -0.5,-75.5 64.5,-75.5 64.5,-56.5 -0.5,-56.5"/>
<text text-anchor="middle" x="32" y="-63.5" font-family="Helvetica,sans-Serif" font-size="10.00">Eigen/Core</text>
</g>
<!-- Node1&#45;&gt;Node2 -->
<g id="edge1" class="edge"><title>Node1&#45;&gt;Node2</title>
<path fill="none" stroke="midnightblue" d="M114.255,-112.324C98.6813,-103.743 74.6227,-90.486 56.5407,-80.5224"/>
<polygon fill="midnightblue" stroke="midnightblue" points="58.1539,-77.4152 47.7063,-75.6545 54.7756,-83.546 58.1539,-77.4152"/>
</g>
<!-- Node3 -->
<g id="node3" class="node"><title>Node3</title>
<g id="a_node3"><a doxygen="https://jmirabel.github.io/hpp-doc/api/hpp-model/doxygen-html/hpp-model.doxytag:https://jmirabel.github.io/hpp-doc/api/hpp-model/doxygen-html/" xlink:href="https://jmirabel.github.io/hpp-doc/api/hpp-model/doxygen-html/a00037.html" target="_top" xlink:title="hpp/model/fwd.hh">
<polygon fill="white" stroke="black" points="83,-56.5 83,-75.5 177,-75.5 177,-56.5 83,-56.5"/>
<text text-anchor="middle" x="130" y="-63.5" font-family="Helvetica,sans-Serif" font-size="10.00">hpp/model/fwd.hh</text>
</a>
</g>
</g>
<!-- Node1&#45;&gt;Node3 -->
<g id="edge2" class="edge"><title>Node1&#45;&gt;Node3</title>
<path fill="none" stroke="midnightblue" d="M130,-112.083C130,-105.006 130,-94.8611 130,-85.9865"/>
<polygon fill="midnightblue" stroke="midnightblue" points="133.5,-85.751 130,-75.7511 126.5,-85.7511 133.5,-85.751"/>
</g>
<!-- Node4 -->
<g id="node4" class="node"><title>Node4</title>
<g id="a_node4"><a xlink:href="a00001.html" target="_top" xlink:title="hpp/core/fwd.hh">
<polygon fill="white" stroke="black" points="195,-56.5 195,-75.5 281,-75.5 281,-56.5 195,-56.5"/>
<text text-anchor="middle" x="238" y="-63.5" font-family="Helvetica,sans-Serif" font-size="10.00">hpp/core/fwd.hh</text>
</a>
</g>
</g>
<!-- Node1&#45;&gt;Node4 -->
<g id="edge3" class="edge"><title>Node1&#45;&gt;Node4</title>
<path fill="none" stroke="midnightblue" d="M147.352,-112.324C164.672,-103.664 191.515,-90.2424 211.502,-80.249"/>
<polygon fill="midnightblue" stroke="midnightblue" points="213.312,-83.2572 220.691,-75.6545 210.181,-76.9962 213.312,-83.2572"/>
</g>
<!-- Node5 -->
<g id="node5" class="node"><title>Node5</title>
<polygon fill="white" stroke="#bfbfbf" points="76,-0.5 76,-19.5 120,-19.5 120,-0.5 76,-0.5"/>
<text text-anchor="middle" x="98" y="-7.5" font-family="Helvetica,sans-Serif" font-size="10.00">vector</text>
</g>
<!-- Node4&#45;&gt;Node5 -->
<g id="edge4" class="edge"><title>Node4&#45;&gt;Node5</title>
<path fill="none" stroke="midnightblue" d="M215.817,-56.4435C192.572,-47.4776 155.851,-33.314 129.585,-23.1827"/>
<polygon fill="midnightblue" stroke="midnightblue" points="130.669,-19.8497 120.08,-19.5164 128.15,-26.3807 130.669,-19.8497"/>
</g>
<!-- Node6 -->
<g id="node6" class="node"><title>Node6</title>
<polygon fill="white" stroke="#bfbfbf" points="138.5,-0.5 138.5,-19.5 181.5,-19.5 181.5,-0.5 138.5,-0.5"/>
<text text-anchor="middle" x="160" y="-7.5" font-family="Helvetica,sans-Serif" font-size="10.00">deque</text>
</g>
<!-- Node4&#45;&gt;Node6 -->
<g id="edge5" class="edge"><title>Node4&#45;&gt;Node6</title>
<path fill="none" stroke="midnightblue" d="M225.468,-56.324C213.414,-47.979 194.973,-35.2122 180.731,-25.3524"/>
<polygon fill="midnightblue" stroke="midnightblue" points="182.715,-22.469 172.501,-19.6545 178.731,-28.2243 182.715,-22.469"/>
</g>
<!-- Node7 -->
<g id="node7" class="node"><title>Node7</title>
<polygon fill="white" stroke="#bfbfbf" points="199.5,-0.5 199.5,-19.5 228.5,-19.5 228.5,-0.5 199.5,-0.5"/>
<text text-anchor="middle" x="214" y="-7.5" font-family="Helvetica,sans-Serif" font-size="10.00">list</text>
</g>
<!-- Node4&#45;&gt;Node7 -->
<g id="edge6" class="edge"><title>Node4&#45;&gt;Node7</title>
<path fill="none" stroke="midnightblue" d="M234.037,-56.083C230.787,-48.77 226.081,-38.1814 222.046,-29.1034"/>
<polygon fill="midnightblue" stroke="midnightblue" points="225.149,-27.4677 217.889,-19.7511 218.752,-30.3107 225.149,-27.4677"/>
</g>
<!-- Node8 -->
<g id="node8" class="node"><title>Node8</title>
<polygon fill="white" stroke="#bfbfbf" points="247,-0.5 247,-19.5 277,-19.5 277,-0.5 247,-0.5"/>
<text text-anchor="middle" x="262" y="-7.5" font-family="Helvetica,sans-Serif" font-size="10.00">set</text>
</g>
<!-- Node4&#45;&gt;Node8 -->
<g id="edge7" class="edge"><title>Node4&#45;&gt;Node8</title>
<path fill="none" stroke="midnightblue" d="M241.963,-56.083C245.213,-48.77 249.919,-38.1814 253.954,-29.1034"/>
<polygon fill="midnightblue" stroke="midnightblue" points="257.248,-30.3107 258.111,-19.7511 250.851,-27.4677 257.248,-30.3107"/>
</g>
<!-- Node9 -->
<g id="node9" class="node"><title>Node9</title>
<polygon fill="white" stroke="#bfbfbf" points="295,-0.5 295,-19.5 389,-19.5 389,-0.5 295,-0.5"/>
<text text-anchor="middle" x="342" y="-7.5" font-family="Helvetica,sans-Serif" font-size="10.00">hpp/util/pointer.hh</text>
</g>
<!-- Node4&#45;&gt;Node9 -->
<g id="edge8" class="edge"><title>Node4&#45;&gt;Node9</title>
<path fill="none" stroke="midnightblue" d="M254.709,-56.324C271.312,-47.7034 297.002,-34.3643 316.22,-24.3855"/>
<polygon fill="midnightblue" stroke="midnightblue" points="318.07,-27.3689 325.332,-19.6545 314.844,-21.1565 318.07,-27.3689"/>
</g>
<!-- Node10 -->
<g id="node10" class="node"><title>Node10</title>
<g id="a_node10"><a doxygen="https://jmirabel.github.io/hpp-doc/api/hpp-constraints/doxygen-html/hpp-constraints.doxytag:https://jmirabel.github.io/hpp-doc/api/hpp-constraints/doxygen-html/" xlink:href="https://jmirabel.github.io/hpp-doc/api/hpp-constraints/doxygen-html/a00001.html" target="_top" xlink:title="hpp/constraints/fwd.hh">
<polygon fill="white" stroke="black" points="407,-0.5 407,-19.5 523,-19.5 523,-0.5 407,-0.5"/>
<text text-anchor="middle" x="465" y="-7.5" font-family="Helvetica,sans-Serif" font-size="10.00">hpp/constraints/fwd.hh</text>
</a>
</g>
</g>
<!-- Node4&#45;&gt;Node10 -->
<g id="edge9" class="edge"><title>Node4&#45;&gt;Node10</title>
<path fill="none" stroke="midnightblue" d="M273.969,-56.4435C313.319,-47.0826 376.487,-32.0561 419.314,-21.868"/>
<polygon fill="midnightblue" stroke="midnightblue" points="420.281,-25.2358 429.199,-19.5164 418.661,-18.4258 420.281,-25.2358"/>
</g>
</g>
</svg>
