<?xml version="1.0" encoding="UTF-8" standalone="no"?>
<!DOCTYPE svg PUBLIC "-//W3C//DTD SVG 1.1//EN"
 "http://www.w3.org/Graphics/SVG/1.1/DTD/svg11.dtd">
<!-- Generated by graphviz version 2.36.0 (20140111.2315)
 -->
<!-- Title: partial&#45;spline&#45;path.hh Pages: 1 -->
<svg width="1160pt" height="388pt"
 viewBox="0.00 0.00 1160.00 388.00" xmlns="http://www.w3.org/2000/svg" xmlns:xlink="http://www.w3.org/1999/xlink">
<g id="graph0" class="graph" transform="scale(1 1) rotate(0) translate(4 384)">
<title>partial&#45;spline&#45;path.hh</title>
<polygon fill="white" stroke="none" points="-4,4 -4,-384 1156,-384 1156,4 -4,4"/>
<!-- Node1 -->
<g id="node1" class="node"><title>Node1</title>
<polygon fill="#bfbfbf" stroke="black" points="403.5,-360.5 403.5,-379.5 510.5,-379.5 510.5,-360.5 403.5,-360.5"/>
<text text-anchor="middle" x="457" y="-367.5" font-family="Helvetica,sans-Serif" font-size="10.00">partial&#45;spline&#45;path.hh</text>
</g>
<!-- Node2 -->
<g id="node2" class="node"><title>Node2</title>
<polygon fill="white" stroke="#bfbfbf" points="243,-293 243,-323 341,-323 341,-293 243,-293"/>
<text text-anchor="start" x="251" y="-311" font-family="Helvetica,sans-Serif" font-size="10.00">roboptim/trajectory</text>
<text text-anchor="middle" x="292" y="-300" font-family="Helvetica,sans-Serif" font-size="10.00">/fwd.hh</text>
</g>
<!-- Node1&#45;&gt;Node2 -->
<g id="edge1" class="edge"><title>Node1&#45;&gt;Node2</title>
<path fill="none" stroke="midnightblue" d="M433.36,-360.403C409.157,-351.603 370.853,-337.674 340.219,-326.534"/>
<polygon fill="midnightblue" stroke="midnightblue" points="341.164,-323.154 330.57,-323.025 338.771,-329.732 341.164,-323.154"/>
</g>
<!-- Node3 -->
<g id="node3" class="node"><title>Node3</title>
<g id="a_node3"><a doxygen="https://jmirabel.github.io/hpp-doc/api/hpp-model/doxygen-html/hpp-model.doxytag:https://jmirabel.github.io/hpp-doc/api/hpp-model/doxygen-html/" xlink:href="https://jmirabel.github.io/hpp-doc/api/hpp-model/doxygen-html/a00033.html" target="_top" xlink:title="hpp/model/device.hh">
<polygon fill="white" stroke="black" points="280.5,-236.5 280.5,-255.5 387.5,-255.5 387.5,-236.5 280.5,-236.5"/>
<text text-anchor="middle" x="334" y="-243.5" font-family="Helvetica,sans-Serif" font-size="10.00">hpp/model/device.hh</text>
</a>
</g>
</g>
<!-- Node1&#45;&gt;Node3 -->
<g id="edge2" class="edge"><title>Node1&#45;&gt;Node3</title>
<path fill="none" stroke="midnightblue" d="M440.688,-360.471C426.109,-352.348 404.688,-339.138 389,-324 370.422,-306.072 353.926,-281.138 343.957,-264.555"/>
<polygon fill="midnightblue" stroke="midnightblue" points="346.948,-262.735 338.876,-255.873 340.907,-266.271 346.948,-262.735"/>
</g>
<!-- Node8 -->
<g id="node8" class="node"><title>Node8</title>
<g id="a_node8"><a xlink:href="a00135.html" target="_top" xlink:title="hpp/core/path.hh">
<polygon fill="white" stroke="black" points="693.5,-236.5 693.5,-255.5 782.5,-255.5 782.5,-236.5 693.5,-236.5"/>
<text text-anchor="middle" x="738" y="-243.5" font-family="Helvetica,sans-Serif" font-size="10.00">hpp/core/path.hh</text>
</a>
</g>
</g>
<!-- Node1&#45;&gt;Node8 -->
<g id="edge10" class="edge"><title>Node1&#45;&gt;Node8</title>
<path fill="none" stroke="midnightblue" d="M470.793,-360.389C484.708,-351.582 506.693,-337.338 525,-324 543.401,-310.593 544.647,-302.201 565,-292 602.246,-273.332 648.004,-261.868 683.103,-255.186"/>
<polygon fill="midnightblue" stroke="midnightblue" points="683.96,-258.588 693.167,-253.345 682.7,-251.702 683.96,-258.588"/>
</g>
<!-- Node24 -->
<g id="node24" class="node"><title>Node24</title>
<g id="a_node24"><a xlink:href="a00134.html" target="_top" xlink:title="hpp/core/path&#45;vector.hh">
<polygon fill="white" stroke="black" points="397.5,-298.5 397.5,-317.5 516.5,-317.5 516.5,-298.5 397.5,-298.5"/>
<text text-anchor="middle" x="457" y="-305.5" font-family="Helvetica,sans-Serif" font-size="10.00">hpp/core/path&#45;vector.hh</text>
</a>
</g>
</g>
<!-- Node1&#45;&gt;Node24 -->
<g id="edge29" class="edge"><title>Node1&#45;&gt;Node24</title>
<path fill="none" stroke="midnightblue" d="M457,-360.403C457,-351.938 457,-338.728 457,-327.82"/>
<polygon fill="midnightblue" stroke="midnightblue" points="460.5,-327.581 457,-317.581 453.5,-327.581 460.5,-327.581"/>
</g>
<!-- Node25 -->
<g id="node25" class="node"><title>Node25</title>
<polygon fill="white" stroke="#bfbfbf" points="573.5,-298.5 573.5,-317.5 694.5,-317.5 694.5,-298.5 573.5,-298.5"/>
<text text-anchor="middle" x="634" y="-305.5" font-family="Helvetica,sans-Serif" font-size="10.00">boost/make_shared.hpp</text>
</g>
<!-- Node1&#45;&gt;Node25 -->
<g id="edge33" class="edge"><title>Node1&#45;&gt;Node25</title>
<path fill="none" stroke="midnightblue" d="M482.36,-360.403C512.984,-350.022 564.657,-332.506 599.046,-320.849"/>
<polygon fill="midnightblue" stroke="midnightblue" points="600.34,-324.106 608.687,-317.581 598.093,-317.476 600.34,-324.106"/>
</g>
<!-- Node4 -->
<g id="node4" class="node"><title>Node4</title>
<g id="a_node4"><a doxygen="https://jmirabel.github.io/hpp-doc/api/hpp-model/doxygen-html/hpp-model.doxytag:https://jmirabel.github.io/hpp-doc/api/hpp-model/doxygen-html/" xlink:href="https://jmirabel.github.io/hpp-doc/api/hpp-model/doxygen-html/a00037.html" target="_top" xlink:title="hpp/model/fwd.hh">
<polygon fill="white" stroke="black" points="203,-112.5 203,-131.5 297,-131.5 297,-112.5 203,-112.5"/>
<text text-anchor="middle" x="250" y="-119.5" font-family="Helvetica,sans-Serif" font-size="10.00">hpp/model/fwd.hh</text>
</a>
</g>
</g>
<!-- Node3&#45;&gt;Node4 -->
<g id="edge3" class="edge"><title>Node3&#45;&gt;Node4</title>
<path fill="none" stroke="midnightblue" d="M327.959,-236.226C314.095,-216.09 279.797,-166.276 261.665,-139.943"/>
<polygon fill="midnightblue" stroke="midnightblue" points="264.54,-137.946 255.986,-131.694 258.775,-141.916 264.54,-137.946"/>
</g>
<!-- Node5 -->
<g id="node5" class="node"><title>Node5</title>
<g id="a_node5"><a doxygen="https://jmirabel.github.io/hpp-doc/api/hpp-model/doxygen-html/hpp-model.doxytag:https://jmirabel.github.io/hpp-doc/api/hpp-model/doxygen-html/" xlink:href="https://jmirabel.github.io/hpp-doc/api/hpp-model/doxygen-html/a00034.html" target="_top" xlink:title="hpp/model/distance\l&#45;result.hh">
<polygon fill="white" stroke="black" points="327.5,-169 327.5,-199 428.5,-199 428.5,-169 327.5,-169"/>
<text text-anchor="start" x="335.5" y="-187" font-family="Helvetica,sans-Serif" font-size="10.00">hpp/model/distance</text>
<text text-anchor="middle" x="378" y="-176" font-family="Helvetica,sans-Serif" font-size="10.00">&#45;result.hh</text>
</a>
</g>
</g>
<!-- Node3&#45;&gt;Node5 -->
<g id="edge4" class="edge"><title>Node3&#45;&gt;Node5</title>
<path fill="none" stroke="midnightblue" d="M340.304,-236.403C345.873,-228.809 354.243,-217.396 361.682,-207.252"/>
<polygon fill="midnightblue" stroke="midnightblue" points="364.539,-209.275 367.63,-199.141 358.894,-205.135 364.539,-209.275"/>
</g>
<!-- Node6 -->
<g id="node6" class="node"><title>Node6</title>
<g id="a_node6"><a doxygen="https://jmirabel.github.io/hpp-doc/api/hpp-model/doxygen-html/hpp-model.doxytag:https://jmirabel.github.io/hpp-doc/api/hpp-model/doxygen-html/" xlink:href="https://jmirabel.github.io/hpp-doc/api/hpp-model/doxygen-html/a00035.html" target="_top" xlink:title="hpp/model/extra&#45;config\l&#45;space.hh">
<polygon fill="white" stroke="black" points="-1,-169 -1,-199 115,-199 115,-169 -1,-169"/>
<text text-anchor="start" x="7" y="-187" font-family="Helvetica,sans-Serif" font-size="10.00">hpp/model/extra&#45;config</text>
<text text-anchor="middle" x="57" y="-176" font-family="Helvetica,sans-Serif" font-size="10.00">&#45;space.hh</text>
</a>
</g>
</g>
<!-- Node3&#45;&gt;Node6 -->
<g id="edge6" class="edge"><title>Node3&#45;&gt;Node6</title>
<path fill="none" stroke="midnightblue" d="M293.718,-236.483C253.491,-227.951 189.623,-214.338 125.045,-200.219"/>
<polygon fill="midnightblue" stroke="midnightblue" points="125.615,-196.761 115.097,-198.041 124.118,-203.599 125.615,-196.761"/>
</g>
<!-- Node7 -->
<g id="node7" class="node"><title>Node7</title>
<g id="a_node7"><a doxygen="https://jmirabel.github.io/hpp-doc/api/hpp-model/doxygen-html/hpp-model.doxytag:https://jmirabel.github.io/hpp-doc/api/hpp-model/doxygen-html/" xlink:href="https://jmirabel.github.io/hpp-doc/api/hpp-model/doxygen-html/a00044.html" target="_top" xlink:title="hpp/model/object&#45;iterator.hh">
<polygon fill="white" stroke="black" points="133.5,-174.5 133.5,-193.5 270.5,-193.5 270.5,-174.5 133.5,-174.5"/>
<text text-anchor="middle" x="202" y="-181.5" font-family="Helvetica,sans-Serif" font-size="10.00">hpp/model/object&#45;iterator.hh</text>
</a>
</g>
</g>
<!-- Node3&#45;&gt;Node7 -->
<g id="edge8" class="edge"><title>Node3&#45;&gt;Node7</title>
<path fill="none" stroke="midnightblue" d="M315.088,-236.403C292.837,-226.29 255.688,-209.404 230.074,-197.761"/>
<polygon fill="midnightblue" stroke="midnightblue" points="231.429,-194.532 220.877,-193.581 228.533,-200.905 231.429,-194.532"/>
</g>
<!-- Node5&#45;&gt;Node4 -->
<g id="edge5" class="edge"><title>Node5&#45;&gt;Node4</title>
<path fill="none" stroke="midnightblue" d="M347.99,-168.933C326.684,-158.946 298.298,-145.64 277.564,-135.92"/>
<polygon fill="midnightblue" stroke="midnightblue" points="278.887,-132.675 268.347,-131.6 275.916,-139.014 278.887,-132.675"/>
</g>
<!-- Node6&#45;&gt;Node4 -->
<g id="edge7" class="edge"><title>Node6&#45;&gt;Node4</title>
<path fill="none" stroke="midnightblue" d="M102.25,-168.933C135.929,-158.462 181.342,-144.345 212.893,-134.536"/>
<polygon fill="midnightblue" stroke="midnightblue" points="214.107,-137.824 222.618,-131.513 212.029,-131.139 214.107,-137.824"/>
</g>
<!-- Node7&#45;&gt;Node4 -->
<g id="edge9" class="edge"><title>Node7&#45;&gt;Node4</title>
<path fill="none" stroke="midnightblue" d="M208.877,-174.403C216.149,-165.314 227.795,-150.756 236.841,-139.449"/>
<polygon fill="midnightblue" stroke="midnightblue" points="239.622,-141.576 243.136,-131.581 234.155,-137.203 239.622,-141.576"/>
</g>
<!-- Node9 -->
<g id="node9" class="node"><title>Node9</title>
<polygon fill="white" stroke="#bfbfbf" points="740,-174.5 740,-193.5 868,-193.5 868,-174.5 740,-174.5"/>
<text text-anchor="middle" x="804" y="-181.5" font-family="Helvetica,sans-Serif" font-size="10.00">boost/concept_check.hpp</text>
</g>
<!-- Node8&#45;&gt;Node9 -->
<g id="edge11" class="edge"><title>Node8&#45;&gt;Node9</title>
<path fill="none" stroke="midnightblue" d="M747.456,-236.403C757.748,-227.047 774.416,-211.895 786.994,-200.46"/>
<polygon fill="midnightblue" stroke="midnightblue" points="789.516,-202.897 794.561,-193.581 784.808,-197.718 789.516,-202.897"/>
</g>
<!-- Node10 -->
<g id="node10" class="node"><title>Node10</title>
<g id="a_node10"><a xlink:href="a00001.html" target="_top" xlink:title="hpp/core/fwd.hh">
<polygon fill="white" stroke="black" points="776,-56.5 776,-75.5 862,-75.5 862,-56.5 776,-56.5"/>
<text text-anchor="middle" x="819" y="-63.5" font-family="Helvetica,sans-Serif" font-size="10.00">hpp/core/fwd.hh</text>
</a>
</g>
</g>
<!-- Node8&#45;&gt;Node10 -->
<g id="edge12" class="edge"><title>Node8&#45;&gt;Node10</title>
<path fill="none" stroke="midnightblue" d="M782.533,-243.621C814.507,-240.011 855.59,-229.436 877,-200 904.528,-162.154 861.556,-109.193 835.911,-82.9876"/>
<polygon fill="midnightblue" stroke="midnightblue" points="838.176,-80.3051 828.605,-75.7601 833.252,-85.2813 838.176,-80.3051"/>
</g>
<!-- Node17 -->
<g id="node17" class="node"><title>Node17</title>
<polygon fill="white" stroke="#bfbfbf" points="1055.5,-56.5 1055.5,-75.5 1152.5,-75.5 1152.5,-56.5 1055.5,-56.5"/>
<text text-anchor="middle" x="1104" y="-63.5" font-family="Helvetica,sans-Serif" font-size="10.00">hpp/core/config.hh</text>
</g>
<!-- Node8&#45;&gt;Node17 -->
<g id="edge19" class="edge"><title>Node8&#45;&gt;Node17</title>
<path fill="none" stroke="midnightblue" d="M782.545,-242.317C854.294,-237.321 991.603,-224.777 1033,-200 1074.82,-174.969 1093.37,-115.983 1100.37,-85.683"/>
<polygon fill="midnightblue" stroke="midnightblue" points="1103.86,-86.1146 1102.52,-75.6052 1097.01,-84.6581 1103.86,-86.1146"/>
</g>
<!-- Node18 -->
<g id="node18" class="node"><title>Node18</title>
<g id="a_node18"><a xlink:href="a00099.html" target="_top" xlink:title="hpp/core/constraint\l&#45;set.hh">
<polygon fill="white" stroke="black" points="924,-169 924,-199 1024,-199 1024,-169 924,-169"/>
<text text-anchor="start" x="932" y="-187" font-family="Helvetica,sans-Serif" font-size="10.00">hpp/core/constraint</text>
<text text-anchor="middle" x="974" y="-176" font-family="Helvetica,sans-Serif" font-size="10.00">&#45;set.hh</text>
</a>
</g>
</g>
<!-- Node8&#45;&gt;Node18 -->
<g id="edge20" class="edge"><title>Node8&#45;&gt;Node18</title>
<path fill="none" stroke="midnightblue" d="M771.562,-236.467C808.475,-227.083 868.537,-211.813 913.671,-200.338"/>
<polygon fill="midnightblue" stroke="midnightblue" points="914.81,-203.66 923.639,-197.804 913.085,-196.876 914.81,-203.66"/>
</g>
<!-- Node21 -->
<g id="node21" class="node"><title>Node21</title>
<polygon fill="white" stroke="#bfbfbf" points="485.5,-174.5 485.5,-193.5 604.5,-193.5 604.5,-174.5 485.5,-174.5"/>
<text text-anchor="middle" x="545" y="-181.5" font-family="Helvetica,sans-Serif" font-size="10.00">hpp/core/deprecated.hh</text>
</g>
<!-- Node8&#45;&gt;Node21 -->
<g id="edge26" class="edge"><title>Node8&#45;&gt;Node21</title>
<path fill="none" stroke="midnightblue" d="M710.348,-236.403C676.668,-225.933 619.643,-208.205 582.153,-196.55"/>
<polygon fill="midnightblue" stroke="midnightblue" points="583.189,-193.207 572.601,-193.581 581.111,-199.892 583.189,-193.207"/>
</g>
<!-- Node22 -->
<g id="node22" class="node"><title>Node22</title>
<g id="a_node22"><a xlink:href="a00143.html" target="_top" xlink:title="hpp/core/projection\l&#45;error.hh">
<polygon fill="white" stroke="black" points="622.5,-169 622.5,-199 721.5,-199 721.5,-169 622.5,-169"/>
<text text-anchor="start" x="630.5" y="-187" font-family="Helvetica,sans-Serif" font-size="10.00">hpp/core/projection</text>
<text text-anchor="middle" x="672" y="-176" font-family="Helvetica,sans-Serif" font-size="10.00">&#45;error.hh</text>
</a>
</g>
</g>
<!-- Node8&#45;&gt;Node22 -->
<g id="edge27" class="edge"><title>Node8&#45;&gt;Node22</title>
<path fill="none" stroke="midnightblue" d="M728.544,-236.403C719.856,-228.505 706.624,-216.477 695.145,-206.041"/>
<polygon fill="midnightblue" stroke="midnightblue" points="697.309,-203.278 687.555,-199.141 692.6,-208.457 697.309,-203.278"/>
</g>
<!-- Node11 -->
<g id="node11" class="node"><title>Node11</title>
<polygon fill="white" stroke="#bfbfbf" points="895,-0.5 895,-19.5 939,-19.5 939,-0.5 895,-0.5"/>
<text text-anchor="middle" x="917" y="-7.5" font-family="Helvetica,sans-Serif" font-size="10.00">vector</text>
</g>
<!-- Node10&#45;&gt;Node11 -->
<g id="edge13" class="edge"><title>Node10&#45;&gt;Node11</title>
<path fill="none" stroke="midnightblue" d="M834.745,-56.324C850.319,-47.7428 874.377,-34.486 892.459,-24.5224"/>
<polygon fill="midnightblue" stroke="midnightblue" points="894.224,-27.546 901.294,-19.6545 890.846,-21.4152 894.224,-27.546"/>
</g>
<!-- Node12 -->
<g id="node12" class="node"><title>Node12</title>
<polygon fill="white" stroke="#bfbfbf" points="957.5,-0.5 957.5,-19.5 1000.5,-19.5 1000.5,-0.5 957.5,-0.5"/>
<text text-anchor="middle" x="979" y="-7.5" font-family="Helvetica,sans-Serif" font-size="10.00">deque</text>
</g>
<!-- Node10&#45;&gt;Node12 -->
<g id="edge14" class="edge"><title>Node10&#45;&gt;Node12</title>
<path fill="none" stroke="midnightblue" d="M844.352,-56.4435C872.378,-46.985 917.542,-31.7421 947.738,-21.551"/>
<polygon fill="midnightblue" stroke="midnightblue" points="949.002,-24.8183 957.358,-18.3042 946.764,-18.1858 949.002,-24.8183"/>
</g>
<!-- Node13 -->
<g id="node13" class="node"><title>Node13</title>
<polygon fill="white" stroke="#bfbfbf" points="553.5,-0.5 553.5,-19.5 582.5,-19.5 582.5,-0.5 553.5,-0.5"/>
<text text-anchor="middle" x="568" y="-7.5" font-family="Helvetica,sans-Serif" font-size="10.00">list</text>
</g>
<!-- Node10&#45;&gt;Node13 -->
<g id="edge15" class="edge"><title>Node10&#45;&gt;Node13</title>
<path fill="none" stroke="midnightblue" d="M775.83,-58.5949C731.861,-51.5955 661.65,-39.1105 592.364,-19.6919"/>
<polygon fill="midnightblue" stroke="midnightblue" points="593.173,-16.2831 582.597,-16.9056 591.253,-23.0146 593.173,-16.2831"/>
</g>
<!-- Node14 -->
<g id="node14" class="node"><title>Node14</title>
<polygon fill="white" stroke="#bfbfbf" points="601,-0.5 601,-19.5 631,-19.5 631,-0.5 601,-0.5"/>
<text text-anchor="middle" x="616" y="-7.5" font-family="Helvetica,sans-Serif" font-size="10.00">set</text>
</g>
<!-- Node10&#45;&gt;Node14 -->
<g id="edge16" class="edge"><title>Node10&#45;&gt;Node14</title>
<path fill="none" stroke="midnightblue" d="M779.538,-56.4236C745.099,-48.6403 693.651,-36.2965 640.697,-19.9594"/>
<polygon fill="midnightblue" stroke="midnightblue" points="641.735,-16.6168 631.146,-16.9737 639.646,-23.298 641.735,-16.6168"/>
</g>
<!-- Node15 -->
<g id="node15" class="node"><title>Node15</title>
<polygon fill="white" stroke="#bfbfbf" points="649,-0.5 649,-19.5 743,-19.5 743,-0.5 649,-0.5"/>
<text text-anchor="middle" x="696" y="-7.5" font-family="Helvetica,sans-Serif" font-size="10.00">hpp/util/pointer.hh</text>
</g>
<!-- Node10&#45;&gt;Node15 -->
<g id="edge17" class="edge"><title>Node10&#45;&gt;Node15</title>
<path fill="none" stroke="midnightblue" d="M799.51,-56.4435C779.358,-47.5961 747.677,-33.6875 724.669,-23.5865"/>
<polygon fill="midnightblue" stroke="midnightblue" points="725.962,-20.3316 715.399,-19.5164 723.148,-26.7411 725.962,-20.3316"/>
</g>
<!-- Node16 -->
<g id="node16" class="node"><title>Node16</title>
<g id="a_node16"><a doxygen="https://jmirabel.github.io/hpp-doc/api/hpp-constraints/doxygen-html/hpp-constraints.doxytag:https://jmirabel.github.io/hpp-doc/api/hpp-constraints/doxygen-html/" xlink:href="https://jmirabel.github.io/hpp-doc/api/hpp-constraints/doxygen-html/a00001.html" target="_top" xlink:title="hpp/constraints/fwd.hh">
<polygon fill="white" stroke="black" points="761,-0.5 761,-19.5 877,-19.5 877,-0.5 761,-0.5"/>
<text text-anchor="middle" x="819" y="-7.5" font-family="Helvetica,sans-Serif" font-size="10.00">hpp/constraints/fwd.hh</text>
</a>
</g>
</g>
<!-- Node10&#45;&gt;Node16 -->
<g id="edge18" class="edge"><title>Node10&#45;&gt;Node16</title>
<path fill="none" stroke="midnightblue" d="M819,-56.083C819,-49.0059 819,-38.8611 819,-29.9865"/>
<polygon fill="midnightblue" stroke="midnightblue" points="822.5,-29.751 819,-19.7511 815.5,-29.7511 822.5,-29.751"/>
</g>
<!-- Node18&#45;&gt;Node12 -->
<g id="edge21" class="edge"><title>Node18&#45;&gt;Node12</title>
<path fill="none" stroke="midnightblue" d="M966.724,-168.702C962.06,-158.709 956.438,-144.896 954,-132 947.088,-95.4442 961.017,-52.8826 970.72,-29.2319"/>
<polygon fill="midnightblue" stroke="midnightblue" points="974.047,-30.3542 974.79,-19.7855 967.619,-27.584 974.047,-30.3542"/>
</g>
<!-- Node19 -->
<g id="node19" class="node"><title>Node19</title>
<g id="a_node19"><a xlink:href="a00100.html" target="_top" xlink:title="hpp/core/constraint.hh">
<polygon fill="white" stroke="black" points="962.5,-112.5 962.5,-131.5 1075.5,-131.5 1075.5,-112.5 962.5,-112.5"/>
<text text-anchor="middle" x="1019" y="-119.5" font-family="Helvetica,sans-Serif" font-size="10.00">hpp/core/constraint.hh</text>
</a>
</g>
</g>
<!-- Node18&#45;&gt;Node19 -->
<g id="edge22" class="edge"><title>Node18&#45;&gt;Node19</title>
<path fill="none" stroke="midnightblue" d="M984.664,-168.781C991.136,-160.152 999.434,-149.088 1006.25,-139.999"/>
<polygon fill="midnightblue" stroke="midnightblue" points="1009.25,-141.831 1012.45,-131.731 1003.65,-137.631 1009.25,-141.831"/>
</g>
<!-- Node19&#45;&gt;Node10 -->
<g id="edge25" class="edge"><title>Node19&#45;&gt;Node10</title>
<path fill="none" stroke="midnightblue" d="M987.309,-112.444C952.932,-103.162 897.923,-88.3093 860.211,-78.127"/>
<polygon fill="midnightblue" stroke="midnightblue" points="861.109,-74.7442 850.542,-75.5164 859.284,-81.5022 861.109,-74.7442"/>
</g>
<!-- Node19&#45;&gt;Node17 -->
<g id="edge24" class="edge"><title>Node19&#45;&gt;Node17</title>
<path fill="none" stroke="midnightblue" d="M1032.66,-112.324C1045.92,-103.9 1066.27,-90.9709 1081.85,-81.0741"/>
<polygon fill="midnightblue" stroke="midnightblue" points="1083.81,-83.9711 1090.38,-75.6545 1080.06,-78.0626 1083.81,-83.9711"/>
</g>
<!-- Node20 -->
<g id="node20" class="node"><title>Node20</title>
<polygon fill="white" stroke="#bfbfbf" points="985,-56.5 985,-75.5 1037,-75.5 1037,-56.5 985,-56.5"/>
<text text-anchor="middle" x="1011" y="-63.5" font-family="Helvetica,sans-Serif" font-size="10.00">ostream</text>
</g>
<!-- Node19&#45;&gt;Node20 -->
<g id="edge23" class="edge"><title>Node19&#45;&gt;Node20</title>
<path fill="none" stroke="midnightblue" d="M1017.68,-112.083C1016.62,-104.927 1015.09,-94.6353 1013.77,-85.6911"/>
<polygon fill="midnightblue" stroke="midnightblue" points="1017.22,-85.1302 1012.3,-75.7511 1010.3,-86.1561 1017.22,-85.1302"/>
</g>
<!-- Node23 -->
<g id="node23" class="node"><title>Node23</title>
<polygon fill="white" stroke="#bfbfbf" points="642.5,-112.5 642.5,-131.5 701.5,-131.5 701.5,-112.5 642.5,-112.5"/>
<text text-anchor="middle" x="672" y="-119.5" font-family="Helvetica,sans-Serif" font-size="10.00">exception</text>
</g>
<!-- Node22&#45;&gt;Node23 -->
<g id="edge28" class="edge"><title>Node22&#45;&gt;Node23</title>
<path fill="none" stroke="midnightblue" d="M672,-168.781C672,-160.781 672,-150.689 672,-142.017"/>
<polygon fill="midnightblue" stroke="midnightblue" points="675.5,-141.73 672,-131.731 668.5,-141.731 675.5,-141.73"/>
</g>
<!-- Node24&#45;&gt;Node3 -->
<g id="edge30" class="edge"><title>Node24&#45;&gt;Node3</title>
<path fill="none" stroke="midnightblue" d="M439.377,-298.403C418.826,-288.379 384.636,-271.701 360.793,-260.07"/>
<polygon fill="midnightblue" stroke="midnightblue" points="362.112,-256.819 351.59,-255.581 359.043,-263.111 362.112,-256.819"/>
</g>
<!-- Node24&#45;&gt;Node8 -->
<g id="edge32" class="edge"><title>Node24&#45;&gt;Node8</title>
<path fill="none" stroke="midnightblue" d="M496.962,-298.467C547.315,-287.716 633.847,-269.239 688.381,-257.595"/>
<polygon fill="midnightblue" stroke="midnightblue" points="689.127,-261.014 698.176,-255.503 687.665,-254.169 689.127,-261.014"/>
</g>
<!-- Node24&#45;&gt;Node10 -->
<g id="edge31" class="edge"><title>Node24&#45;&gt;Node10</title>
<path fill="none" stroke="midnightblue" d="M455.46,-298.312C451.758,-274.482 444.895,-207.255 477,-168 513.665,-123.17 679.404,-89.9207 765.972,-75.2695"/>
<polygon fill="midnightblue" stroke="midnightblue" points="766.583,-78.7162 775.87,-73.6171 765.43,-71.8117 766.583,-78.7162"/>
</g>
</g>
</svg>
