<?xml version="1.0" encoding="UTF-8" standalone="no"?>
<!DOCTYPE svg PUBLIC "-//W3C//DTD SVG 1.1//EN"
 "http://www.w3.org/Graphics/SVG/1.1/DTD/svg11.dtd">
<!-- Generated by graphviz version 2.36.0 (20140111.2315)
 -->
<!-- Title: distance.hh Pages: 1 -->
<svg width="453pt" height="196pt"
 viewBox="0.00 0.00 453.00 196.00" xmlns="http://www.w3.org/2000/svg" xmlns:xlink="http://www.w3.org/1999/xlink">
<g id="graph0" class="graph" transform="scale(1 1) rotate(0) translate(4 192)">
<title>distance.hh</title>
<polygon fill="white" stroke="none" points="-4,4 -4,-192 449,-192 449,4 -4,4"/>
<!-- Node1 -->
<g id="node1" class="node"><title>Node1</title>
<polygon fill="#bfbfbf" stroke="black" points="142.5,-168.5 142.5,-187.5 209.5,-187.5 209.5,-168.5 142.5,-168.5"/>
<text text-anchor="middle" x="176" y="-175.5" font-family="Helvetica,sans-Serif" font-size="10.00">distance.hh</text>
</g>
<!-- Node2 -->
<g id="node2" class="node"><title>Node2</title>
<g id="a_node2"><a doxygen="https://jmirabel.github.io/hpp-doc/api/hpp-model/doxygen-html/hpp-model.doxytag:https://jmirabel.github.io/hpp-doc/api/hpp-model/doxygen-html/" xlink:href="https://jmirabel.github.io/hpp-doc/api/hpp-model/doxygen-html/a00037.html" target="_top" xlink:title="hpp/model/fwd.hh">
<polygon fill="white" stroke="black" points="6,-56.5 6,-75.5 100,-75.5 100,-56.5 6,-56.5"/>
<text text-anchor="middle" x="53" y="-63.5" font-family="Helvetica,sans-Serif" font-size="10.00">hpp/model/fwd.hh</text>
</a>
</g>
</g>
<!-- Node1&#45;&gt;Node2 -->
<g id="edge1" class="edge"><title>Node1&#45;&gt;Node2</title>
<path fill="none" stroke="midnightblue" d="M146.812,-168.398C127.018,-161.32 101.389,-149.562 84,-132 71.1019,-118.974 62.8092,-99.546 58.0776,-85.3231"/>
<polygon fill="midnightblue" stroke="midnightblue" points="61.395,-84.202 55.1361,-75.6535 54.698,-86.2392 61.395,-84.202"/>
</g>
<!-- Node3 -->
<g id="node3" class="node"><title>Node3</title>
<g id="a_node3"><a xlink:href="a00001.html" target="_top" xlink:title="hpp/core/fwd.hh">
<polygon fill="white" stroke="black" points="118,-56.5 118,-75.5 204,-75.5 204,-56.5 118,-56.5"/>
<text text-anchor="middle" x="161" y="-63.5" font-family="Helvetica,sans-Serif" font-size="10.00">hpp/core/fwd.hh</text>
</a>
</g>
</g>
<!-- Node1&#45;&gt;Node3 -->
<g id="edge2" class="edge"><title>Node1&#45;&gt;Node3</title>
<path fill="none" stroke="midnightblue" d="M181.801,-168.091C189.249,-155.496 200.485,-131.808 194,-112 190.51,-101.34 183.427,-91.1174 176.714,-83.1175"/>
<polygon fill="midnightblue" stroke="midnightblue" points="179.305,-80.7633 170.02,-75.66 174.096,-85.4395 179.305,-80.7633"/>
</g>
<!-- Node10 -->
<g id="node10" class="node"><title>Node10</title>
<polygon fill="white" stroke="#bfbfbf" points="222.5,-56.5 222.5,-75.5 319.5,-75.5 319.5,-56.5 222.5,-56.5"/>
<text text-anchor="middle" x="271" y="-63.5" font-family="Helvetica,sans-Serif" font-size="10.00">hpp/core/config.hh</text>
</g>
<!-- Node1&#45;&gt;Node10 -->
<g id="edge9" class="edge"><title>Node1&#45;&gt;Node10</title>
<path fill="none" stroke="midnightblue" d="M183.454,-168.368C199.271,-150.055 236.412,-107.049 256.869,-83.3624"/>
<polygon fill="midnightblue" stroke="midnightblue" points="259.693,-85.4474 263.58,-75.5914 254.395,-80.872 259.693,-85.4474"/>
</g>
<!-- Node11 -->
<g id="node11" class="node"><title>Node11</title>
<g id="a_node11"><a xlink:href="a00123.html" target="_top" xlink:title="hpp/core/node.hh">
<polygon fill="white" stroke="black" points="93,-112.5 93,-131.5 185,-131.5 185,-112.5 93,-112.5"/>
<text text-anchor="middle" x="139" y="-119.5" font-family="Helvetica,sans-Serif" font-size="10.00">hpp/core/node.hh</text>
</a>
</g>
</g>
<!-- Node1&#45;&gt;Node11 -->
<g id="edge10" class="edge"><title>Node1&#45;&gt;Node11</title>
<path fill="none" stroke="midnightblue" d="M169.89,-168.083C164.718,-160.534 157.154,-149.495 150.806,-140.23"/>
<polygon fill="midnightblue" stroke="midnightblue" points="153.536,-138.022 144.996,-131.751 147.761,-141.979 153.536,-138.022"/>
</g>
<!-- Node4 -->
<g id="node4" class="node"><title>Node4</title>
<polygon fill="white" stroke="#bfbfbf" points="-1,-0.5 -1,-19.5 43,-19.5 43,-0.5 -1,-0.5"/>
<text text-anchor="middle" x="21" y="-7.5" font-family="Helvetica,sans-Serif" font-size="10.00">vector</text>
</g>
<!-- Node3&#45;&gt;Node4 -->
<g id="edge3" class="edge"><title>Node3&#45;&gt;Node4</title>
<path fill="none" stroke="midnightblue" d="M138.817,-56.4435C115.572,-47.4776 78.8512,-33.314 52.5848,-23.1827"/>
<polygon fill="midnightblue" stroke="midnightblue" points="53.6692,-19.8497 43.0796,-19.5164 51.1501,-26.3807 53.6692,-19.8497"/>
</g>
<!-- Node5 -->
<g id="node5" class="node"><title>Node5</title>
<polygon fill="white" stroke="#bfbfbf" points="61.5,-0.5 61.5,-19.5 104.5,-19.5 104.5,-0.5 61.5,-0.5"/>
<text text-anchor="middle" x="83" y="-7.5" font-family="Helvetica,sans-Serif" font-size="10.00">deque</text>
</g>
<!-- Node3&#45;&gt;Node5 -->
<g id="edge4" class="edge"><title>Node3&#45;&gt;Node5</title>
<path fill="none" stroke="midnightblue" d="M148.468,-56.324C136.414,-47.979 117.973,-35.2122 103.731,-25.3524"/>
<polygon fill="midnightblue" stroke="midnightblue" points="105.715,-22.469 95.5009,-19.6545 101.731,-28.2243 105.715,-22.469"/>
</g>
<!-- Node6 -->
<g id="node6" class="node"><title>Node6</title>
<polygon fill="white" stroke="#bfbfbf" points="122.5,-0.5 122.5,-19.5 151.5,-19.5 151.5,-0.5 122.5,-0.5"/>
<text text-anchor="middle" x="137" y="-7.5" font-family="Helvetica,sans-Serif" font-size="10.00">list</text>
</g>
<!-- Node3&#45;&gt;Node6 -->
<g id="edge5" class="edge"><title>Node3&#45;&gt;Node6</title>
<path fill="none" stroke="midnightblue" d="M157.037,-56.083C153.787,-48.77 149.081,-38.1814 145.046,-29.1034"/>
<polygon fill="midnightblue" stroke="midnightblue" points="148.149,-27.4677 140.889,-19.7511 141.752,-30.3107 148.149,-27.4677"/>
</g>
<!-- Node7 -->
<g id="node7" class="node"><title>Node7</title>
<polygon fill="white" stroke="#bfbfbf" points="170,-0.5 170,-19.5 200,-19.5 200,-0.5 170,-0.5"/>
<text text-anchor="middle" x="185" y="-7.5" font-family="Helvetica,sans-Serif" font-size="10.00">set</text>
</g>
<!-- Node3&#45;&gt;Node7 -->
<g id="edge6" class="edge"><title>Node3&#45;&gt;Node7</title>
<path fill="none" stroke="midnightblue" d="M164.963,-56.083C168.213,-48.77 172.919,-38.1814 176.954,-29.1034"/>
<polygon fill="midnightblue" stroke="midnightblue" points="180.248,-30.3107 181.111,-19.7511 173.851,-27.4677 180.248,-30.3107"/>
</g>
<!-- Node8 -->
<g id="node8" class="node"><title>Node8</title>
<polygon fill="white" stroke="#bfbfbf" points="218,-0.5 218,-19.5 312,-19.5 312,-0.5 218,-0.5"/>
<text text-anchor="middle" x="265" y="-7.5" font-family="Helvetica,sans-Serif" font-size="10.00">hpp/util/pointer.hh</text>
</g>
<!-- Node3&#45;&gt;Node8 -->
<g id="edge7" class="edge"><title>Node3&#45;&gt;Node8</title>
<path fill="none" stroke="midnightblue" d="M177.709,-56.324C194.312,-47.7034 220.002,-34.3643 239.22,-24.3855"/>
<polygon fill="midnightblue" stroke="midnightblue" points="241.07,-27.3689 248.332,-19.6545 237.844,-21.1565 241.07,-27.3689"/>
</g>
<!-- Node9 -->
<g id="node9" class="node"><title>Node9</title>
<g id="a_node9"><a doxygen="https://jmirabel.github.io/hpp-doc/api/hpp-constraints/doxygen-html/hpp-constraints.doxytag:https://jmirabel.github.io/hpp-doc/api/hpp-constraints/doxygen-html/" xlink:href="https://jmirabel.github.io/hpp-doc/api/hpp-constraints/doxygen-html/a00001.html" target="_top" xlink:title="hpp/constraints/fwd.hh">
<polygon fill="white" stroke="black" points="330,-0.5 330,-19.5 446,-19.5 446,-0.5 330,-0.5"/>
<text text-anchor="middle" x="388" y="-7.5" font-family="Helvetica,sans-Serif" font-size="10.00">hpp/constraints/fwd.hh</text>
</a>
</g>
</g>
<!-- Node3&#45;&gt;Node9 -->
<g id="edge8" class="edge"><title>Node3&#45;&gt;Node9</title>
<path fill="none" stroke="midnightblue" d="M196.969,-56.4435C236.319,-47.0826 299.487,-32.0561 342.314,-21.868"/>
<polygon fill="midnightblue" stroke="midnightblue" points="343.281,-25.2358 352.199,-19.5164 341.661,-18.4258 343.281,-25.2358"/>
</g>
<!-- Node11&#45;&gt;Node2 -->
<g id="edge11" class="edge"><title>Node11&#45;&gt;Node2</title>
<path fill="none" stroke="midnightblue" d="M125.183,-112.324C111.767,-103.9 91.1759,-90.9709 75.4144,-81.0741"/>
<polygon fill="midnightblue" stroke="midnightblue" points="77.1132,-78.0081 66.7831,-75.6545 73.3908,-83.9364 77.1132,-78.0081"/>
</g>
<!-- Node11&#45;&gt;Node3 -->
<g id="edge12" class="edge"><title>Node11&#45;&gt;Node3</title>
<path fill="none" stroke="midnightblue" d="M142.633,-112.083C145.612,-104.77 149.926,-94.1814 153.625,-85.1034"/>
<polygon fill="midnightblue" stroke="midnightblue" points="156.903,-86.3326 157.435,-75.7511 150.42,-83.6914 156.903,-86.3326"/>
</g>
<!-- Node11&#45;&gt;Node10 -->
<g id="edge13" class="edge"><title>Node11&#45;&gt;Node10</title>
<path fill="none" stroke="midnightblue" d="M159.916,-112.444C181.736,-103.517 216.15,-89.4387 240.892,-79.3168"/>
<polygon fill="midnightblue" stroke="midnightblue" points="242.252,-82.5422 250.182,-75.5164 239.601,-76.0634 242.252,-82.5422"/>
</g>
</g>
</svg>
