<?xml version="1.0" encoding="UTF-8" standalone="no"?>
<!DOCTYPE svg PUBLIC "-//W3C//DTD SVG 1.1//EN"
 "http://www.w3.org/Graphics/SVG/1.1/DTD/svg11.dtd">
<!-- Generated by graphviz version 2.36.0 (20140111.2315)
 -->
<!-- Title: container.hh Pages: 1 -->
<svg width="255pt" height="196pt"
 viewBox="0.00 0.00 255.00 196.00" xmlns="http://www.w3.org/2000/svg" xmlns:xlink="http://www.w3.org/1999/xlink">
<g id="graph0" class="graph" transform="scale(1 1) rotate(0) translate(4 192)">
<title>container.hh</title>
<polygon fill="white" stroke="none" points="-4,4 -4,-192 251,-192 251,4 -4,4"/>
<!-- Node1 -->
<g id="node1" class="node"><title>Node1</title>
<polygon fill="#bfbfbf" stroke="black" points="134,-168.5 134,-187.5 204,-187.5 204,-168.5 134,-168.5"/>
<text text-anchor="middle" x="169" y="-175.5" font-family="Helvetica,sans-Serif" font-size="10.00">container.hh</text>
</g>
<!-- Node2 -->
<g id="node2" class="node"><title>Node2</title>
<g id="a_node2"><a xlink:href="a00140.html" target="_top" xlink:title="problem.hh">
<polygon fill="white" stroke="black" points="106.5,-112.5 106.5,-131.5 171.5,-131.5 171.5,-112.5 106.5,-112.5"/>
<text text-anchor="middle" x="139" y="-119.5" font-family="Helvetica,sans-Serif" font-size="10.00">problem.hh</text>
</a>
</g>
</g>
<!-- Node1&#45;&gt;Node2 -->
<g id="edge1" class="edge"><title>Node1&#45;&gt;Node2</title>
<path fill="none" stroke="midnightblue" d="M159.153,-159.275C154.025,-150.045 147.984,-139.17 143.862,-131.751"/>
<polygon fill="midnightblue" stroke="midnightblue" points="156.13,-161.041 164.046,-168.083 162.249,-157.642 156.13,-161.041"/>
</g>
<!-- Node5 -->
<g id="node5" class="node"><title>Node5</title>
<g id="a_node5"><a xlink:href="a00138.html" target="_top" xlink:title="problem&#45;solver.hh">
<polygon fill="white" stroke="black" points="153,-56.5 153,-75.5 247,-75.5 247,-56.5 153,-56.5"/>
<text text-anchor="middle" x="200" y="-63.5" font-family="Helvetica,sans-Serif" font-size="10.00">problem&#45;solver.hh</text>
</a>
</g>
</g>
<!-- Node1&#45;&gt;Node5 -->
<g id="edge5" class="edge"><title>Node1&#45;&gt;Node5</title>
<path fill="none" stroke="midnightblue" d="M174.165,-158.674C180.942,-134.625 192.563,-93.3881 197.579,-75.5914"/>
<polygon fill="midnightblue" stroke="midnightblue" points="170.776,-157.794 171.433,-168.368 177.514,-159.693 170.776,-157.794"/>
</g>
<!-- Node3 -->
<g id="node3" class="node"><title>Node3</title>
<g id="a_node3"><a xlink:href="a00150.html" target="_top" xlink:title="steering&#45;method&#45;straight.hh">
<polygon fill="white" stroke="black" points="-0.5,-56.5 -0.5,-75.5 134.5,-75.5 134.5,-56.5 -0.5,-56.5"/>
<text text-anchor="middle" x="67" y="-63.5" font-family="Helvetica,sans-Serif" font-size="10.00">steering&#45;method&#45;straight.hh</text>
</a>
</g>
</g>
<!-- Node2&#45;&gt;Node3 -->
<g id="edge2" class="edge"><title>Node2&#45;&gt;Node3</title>
<path fill="none" stroke="midnightblue" d="M119.134,-106.101C106.177,-96.3824 89.7026,-84.0269 78.7785,-75.8339"/>
<polygon fill="midnightblue" stroke="midnightblue" points="117.332,-109.124 127.432,-112.324 121.532,-103.524 117.332,-109.124"/>
</g>
<!-- Node2&#45;&gt;Node5 -->
<g id="edge4" class="edge"><title>Node2&#45;&gt;Node5</title>
<path fill="none" stroke="midnightblue" d="M156.467,-105.537C167.344,-95.9087 180.944,-83.8694 190.021,-75.8339"/>
<polygon fill="midnightblue" stroke="midnightblue" points="153.968,-103.075 148.801,-112.324 158.608,-108.316 153.968,-103.075"/>
</g>
<!-- Node4 -->
<g id="node4" class="node"><title>Node4</title>
<g id="a_node4"><a xlink:href="a00116.html" target="_top" xlink:title="gradient&#45;based.hh">
<polygon fill="white" stroke="black" points="20,-0.5 20,-19.5 114,-19.5 114,-0.5 20,-0.5"/>
<text text-anchor="middle" x="67" y="-7.5" font-family="Helvetica,sans-Serif" font-size="10.00">gradient&#45;based.hh</text>
</a>
</g>
</g>
<!-- Node3&#45;&gt;Node4 -->
<g id="edge3" class="edge"><title>Node3&#45;&gt;Node4</title>
<path fill="none" stroke="midnightblue" d="M67,-45.8045C67,-36.9102 67,-26.7798 67,-19.7511"/>
<polygon fill="midnightblue" stroke="midnightblue" points="63.5001,-46.083 67,-56.083 70.5001,-46.083 63.5001,-46.083"/>
</g>
</g>
</svg>
