<?xml version="1.0" encoding="UTF-8" standalone="no"?>
<!DOCTYPE svg PUBLIC "-//W3C//DTD SVG 1.1//EN"
 "http://www.w3.org/Graphics/SVG/1.1/DTD/svg11.dtd">
<!-- Generated by graphviz version 2.36.0 (20140111.2315)
 -->
<!-- Title: reeds&#45;shepp.hh Pages: 1 -->
<svg width="1399pt" height="388pt"
 viewBox="0.00 0.00 1399.00 388.00" xmlns="http://www.w3.org/2000/svg" xmlns:xlink="http://www.w3.org/1999/xlink">
<g id="graph0" class="graph" transform="scale(1 1) rotate(0) translate(4 384)">
<title>reeds&#45;shepp.hh</title>
<polygon fill="white" stroke="none" points="-4,4 -4,-384 1395,-384 1395,4 -4,4"/>
<!-- Node1 -->
<g id="node1" class="node"><title>Node1</title>
<polygon fill="#bfbfbf" stroke="black" points="254.5,-360.5 254.5,-379.5 337.5,-379.5 337.5,-360.5 254.5,-360.5"/>
<text text-anchor="middle" x="296" y="-367.5" font-family="Helvetica,sans-Serif" font-size="10.00">reeds&#45;shepp.hh</text>
</g>
<!-- Node2 -->
<g id="node2" class="node"><title>Node2</title>
<polygon fill="white" stroke="#bfbfbf" points="-0.5,-298.5 -0.5,-317.5 90.5,-317.5 90.5,-298.5 -0.5,-298.5"/>
<text text-anchor="middle" x="45" y="-305.5" font-family="Helvetica,sans-Serif" font-size="10.00">hpp/util/debug.hh</text>
</g>
<!-- Node1&#45;&gt;Node2 -->
<g id="edge1" class="edge"><title>Node1&#45;&gt;Node2</title>
<path fill="none" stroke="midnightblue" d="M258.992,-360.438C220.488,-351.493 158.466,-336.981 105,-324 99.7177,-322.718 94.1782,-321.356 88.6898,-319.996"/>
<polygon fill="midnightblue" stroke="midnightblue" points="89.4817,-316.586 78.9325,-317.569 87.7917,-323.379 89.4817,-316.586"/>
</g>
<!-- Node3 -->
<g id="node3" class="node"><title>Node3</title>
<polygon fill="white" stroke="#bfbfbf" points="72,-0.5 72,-19.5 166,-19.5 166,-0.5 72,-0.5"/>
<text text-anchor="middle" x="119" y="-7.5" font-family="Helvetica,sans-Serif" font-size="10.00">hpp/util/pointer.hh</text>
</g>
<!-- Node1&#45;&gt;Node3 -->
<g id="edge2" class="edge"><title>Node1&#45;&gt;Node3</title>
<path fill="none" stroke="midnightblue" d="M256.718,-360.426C204.572,-346.464 119,-313.432 119,-247 119,-247 119,-247 119,-121 119,-88.948 119,-51.6426 119,-29.7489"/>
<polygon fill="midnightblue" stroke="midnightblue" points="122.5,-29.5577 119,-19.5578 115.5,-29.5578 122.5,-29.5577"/>
</g>
<!-- Node4 -->
<g id="node4" class="node"><title>Node4</title>
<g id="a_node4"><a doxygen="https://jmirabel.github.io/hpp-doc/api/hpp-model/doxygen-html/hpp-model.doxytag:https://jmirabel.github.io/hpp-doc/api/hpp-model/doxygen-html/" xlink:href="https://jmirabel.github.io/hpp-doc/api/hpp-model/doxygen-html/a00041.html" target="_top" xlink:title="hpp/model/joint.hh">
<polygon fill="white" stroke="black" points="1162,-236.5 1162,-255.5 1258,-255.5 1258,-236.5 1162,-236.5"/>
<text text-anchor="middle" x="1210" y="-243.5" font-family="Helvetica,sans-Serif" font-size="10.00">hpp/model/joint.hh</text>
</a>
</g>
</g>
<!-- Node1&#45;&gt;Node4 -->
<g id="edge3" class="edge"><title>Node1&#45;&gt;Node4</title>
<path fill="none" stroke="midnightblue" d="M337.648,-363.441C484.895,-343.786 981.224,-277.537 1151.83,-254.764"/>
<polygon fill="midnightblue" stroke="midnightblue" points="1152.43,-258.216 1161.87,-253.424 1151.5,-251.278 1152.43,-258.216"/>
</g>
<!-- Node6 -->
<g id="node6" class="node"><title>Node6</title>
<g id="a_node6"><a xlink:href="a00001.html" target="_top" xlink:title="hpp/core/fwd.hh">
<polygon fill="white" stroke="black" points="247,-56.5 247,-75.5 333,-75.5 333,-56.5 247,-56.5"/>
<text text-anchor="middle" x="290" y="-63.5" font-family="Helvetica,sans-Serif" font-size="10.00">hpp/core/fwd.hh</text>
</a>
</g>
</g>
<!-- Node1&#45;&gt;Node6 -->
<g id="edge5" class="edge"><title>Node1&#45;&gt;Node6</title>
<path fill="none" stroke="midnightblue" d="M271.47,-360.401C231.565,-344.664 157,-307.204 157,-247 157,-247 157,-247 157,-183 157,-130.605 216.348,-96.4479 255.755,-79.5426"/>
<polygon fill="midnightblue" stroke="midnightblue" points="257.38,-82.6585 265.295,-75.6158 254.716,-76.1853 257.38,-82.6585"/>
</g>
<!-- Node12 -->
<g id="node12" class="node"><title>Node12</title>
<polygon fill="white" stroke="#bfbfbf" points="799.5,-56.5 799.5,-75.5 896.5,-75.5 896.5,-56.5 799.5,-56.5"/>
<text text-anchor="middle" x="848" y="-63.5" font-family="Helvetica,sans-Serif" font-size="10.00">hpp/core/config.hh</text>
</g>
<!-- Node1&#45;&gt;Node12 -->
<g id="edge12" class="edge"><title>Node1&#45;&gt;Node12</title>
<path fill="none" stroke="midnightblue" d="M337.588,-368.819C537.603,-367.411 1391,-355.073 1391,-247 1391,-247 1391,-247 1391,-183 1391,-84.8411 1047.36,-69.4461 906.826,-67.2544"/>
<polygon fill="midnightblue" stroke="midnightblue" points="906.713,-63.7526 896.665,-67.1136 906.616,-70.7519 906.713,-63.7526"/>
</g>
<!-- Node13 -->
<g id="node13" class="node"><title>Node13</title>
<g id="a_node13"><a xlink:href="a00151.html" target="_top" xlink:title="hpp/core/steering&#45;method.hh">
<polygon fill="white" stroke="black" points="226,-298.5 226,-317.5 366,-317.5 366,-298.5 226,-298.5"/>
<text text-anchor="middle" x="296" y="-305.5" font-family="Helvetica,sans-Serif" font-size="10.00">hpp/core/steering&#45;method.hh</text>
</a>
</g>
</g>
<!-- Node1&#45;&gt;Node13 -->
<g id="edge13" class="edge"><title>Node1&#45;&gt;Node13</title>
<path fill="none" stroke="midnightblue" d="M296,-360.403C296,-351.938 296,-338.728 296,-327.82"/>
<polygon fill="midnightblue" stroke="midnightblue" points="299.5,-327.581 296,-317.581 292.5,-327.581 299.5,-327.581"/>
</g>
<!-- Node22 -->
<g id="node22" class="node"><title>Node22</title>
<g id="a_node22"><a xlink:href="a00145.html" target="_top" xlink:title="hpp/core/reeds&#45;shepp\l&#45;path.hh">
<polygon fill="white" stroke="black" points="426,-293 426,-323 536,-323 536,-293 426,-293"/>
<text text-anchor="start" x="434" y="-311" font-family="Helvetica,sans-Serif" font-size="10.00">hpp/core/reeds&#45;shepp</text>
<text text-anchor="middle" x="481" y="-300" font-family="Helvetica,sans-Serif" font-size="10.00">&#45;path.hh</text>
</a>
</g>
</g>
<!-- Node1&#45;&gt;Node22 -->
<g id="edge28" class="edge"><title>Node1&#45;&gt;Node22</title>
<path fill="none" stroke="midnightblue" d="M322.506,-360.403C349.877,-351.526 393.334,-337.432 427.827,-326.245"/>
<polygon fill="midnightblue" stroke="midnightblue" points="429.323,-329.44 437.755,-323.025 427.163,-322.781 429.323,-329.44"/>
</g>
<!-- Node5 -->
<g id="node5" class="node"><title>Node5</title>
<g id="a_node5"><a doxygen="https://jmirabel.github.io/hpp-doc/api/hpp-model/doxygen-html/hpp-model.doxytag:https://jmirabel.github.io/hpp-doc/api/hpp-model/doxygen-html/" xlink:href="https://jmirabel.github.io/hpp-doc/api/hpp-model/doxygen-html/a00037.html" target="_top" xlink:title="hpp/model/fwd.hh">
<polygon fill="white" stroke="black" points="1064,-112.5 1064,-131.5 1158,-131.5 1158,-112.5 1064,-112.5"/>
<text text-anchor="middle" x="1111" y="-119.5" font-family="Helvetica,sans-Serif" font-size="10.00">hpp/model/fwd.hh</text>
</a>
</g>
</g>
<!-- Node4&#45;&gt;Node5 -->
<g id="edge4" class="edge"><title>Node4&#45;&gt;Node5</title>
<path fill="none" stroke="midnightblue" d="M1258.06,-240.575C1284.85,-235.367 1316.13,-224.135 1333,-200 1341.15,-188.343 1342,-179.01 1333,-168 1312.57,-143.014 1227.07,-131.569 1168.34,-126.572"/>
<polygon fill="midnightblue" stroke="midnightblue" points="1168.32,-123.059 1158.07,-125.741 1167.76,-130.037 1168.32,-123.059"/>
</g>
<!-- Node6&#45;&gt;Node3 -->
<g id="edge10" class="edge"><title>Node6&#45;&gt;Node3</title>
<path fill="none" stroke="midnightblue" d="M262.905,-56.4435C234.012,-47.3196 188.075,-32.8133 155.895,-22.6509"/>
<polygon fill="midnightblue" stroke="midnightblue" points="156.559,-19.1903 145.969,-19.5164 154.451,-25.8654 156.559,-19.1903"/>
</g>
<!-- Node7 -->
<g id="node7" class="node"><title>Node7</title>
<polygon fill="white" stroke="#bfbfbf" points="366,-0.5 366,-19.5 410,-19.5 410,-0.5 366,-0.5"/>
<text text-anchor="middle" x="388" y="-7.5" font-family="Helvetica,sans-Serif" font-size="10.00">vector</text>
</g>
<!-- Node6&#45;&gt;Node7 -->
<g id="edge6" class="edge"><title>Node6&#45;&gt;Node7</title>
<path fill="none" stroke="midnightblue" d="M305.745,-56.324C321.319,-47.7428 345.377,-34.486 363.459,-24.5224"/>
<polygon fill="midnightblue" stroke="midnightblue" points="365.224,-27.546 372.294,-19.6545 361.846,-21.4152 365.224,-27.546"/>
</g>
<!-- Node8 -->
<g id="node8" class="node"><title>Node8</title>
<polygon fill="white" stroke="#bfbfbf" points="601.5,-0.5 601.5,-19.5 644.5,-19.5 644.5,-0.5 601.5,-0.5"/>
<text text-anchor="middle" x="623" y="-7.5" font-family="Helvetica,sans-Serif" font-size="10.00">deque</text>
</g>
<!-- Node6&#45;&gt;Node8 -->
<g id="edge7" class="edge"><title>Node6&#45;&gt;Node8</title>
<path fill="none" stroke="midnightblue" d="M333.193,-57.9958C401.092,-46.9852 531.233,-25.8811 591.249,-16.1489"/>
<polygon fill="midnightblue" stroke="midnightblue" points="591.961,-19.5791 601.272,-14.5235 590.841,-12.6694 591.961,-19.5791"/>
</g>
<!-- Node9 -->
<g id="node9" class="node"><title>Node9</title>
<polygon fill="white" stroke="#bfbfbf" points="427.5,-0.5 427.5,-19.5 456.5,-19.5 456.5,-0.5 427.5,-0.5"/>
<text text-anchor="middle" x="442" y="-7.5" font-family="Helvetica,sans-Serif" font-size="10.00">list</text>
</g>
<!-- Node6&#45;&gt;Node9 -->
<g id="edge8" class="edge"><title>Node6&#45;&gt;Node9</title>
<path fill="none" stroke="midnightblue" d="M315.072,-56.3575C339.1,-48.0375 376.604,-34.9541 417.871,-19.9945"/>
<polygon fill="midnightblue" stroke="midnightblue" points="419.092,-23.275 427.295,-16.5694 416.701,-16.6961 419.092,-23.275"/>
</g>
<!-- Node10 -->
<g id="node10" class="node"><title>Node10</title>
<polygon fill="white" stroke="#bfbfbf" points="184,-0.5 184,-19.5 214,-19.5 214,-0.5 184,-0.5"/>
<text text-anchor="middle" x="199" y="-7.5" font-family="Helvetica,sans-Serif" font-size="10.00">set</text>
</g>
<!-- Node6&#45;&gt;Node10 -->
<g id="edge9" class="edge"><title>Node6&#45;&gt;Node10</title>
<path fill="none" stroke="midnightblue" d="M275.379,-56.324C261.051,-47.8215 238.987,-34.7288 222.251,-24.7975"/>
<polygon fill="midnightblue" stroke="midnightblue" points="223.97,-21.7478 213.584,-19.6545 220.398,-27.7677 223.97,-21.7478"/>
</g>
<!-- Node11 -->
<g id="node11" class="node"><title>Node11</title>
<g id="a_node11"><a doxygen="https://jmirabel.github.io/hpp-doc/api/hpp-constraints/doxygen-html/hpp-constraints.doxytag:https://jmirabel.github.io/hpp-doc/api/hpp-constraints/doxygen-html/" xlink:href="https://jmirabel.github.io/hpp-doc/api/hpp-constraints/doxygen-html/a00001.html" target="_top" xlink:title="hpp/constraints/fwd.hh">
<polygon fill="white" stroke="black" points="232,-0.5 232,-19.5 348,-19.5 348,-0.5 232,-0.5"/>
<text text-anchor="middle" x="290" y="-7.5" font-family="Helvetica,sans-Serif" font-size="10.00">hpp/constraints/fwd.hh</text>
</a>
</g>
</g>
<!-- Node6&#45;&gt;Node11 -->
<g id="edge11" class="edge"><title>Node6&#45;&gt;Node11</title>
<path fill="none" stroke="midnightblue" d="M290,-56.083C290,-49.0059 290,-38.8611 290,-29.9865"/>
<polygon fill="midnightblue" stroke="midnightblue" points="293.5,-29.751 290,-19.7511 286.5,-29.7511 293.5,-29.751"/>
</g>
<!-- Node13&#45;&gt;Node6 -->
<g id="edge14" class="edge"><title>Node13&#45;&gt;Node6</title>
<path fill="none" stroke="midnightblue" d="M272.075,-298.429C253.887,-290.499 230.153,-276.765 219,-256 188.716,-199.618 188.151,-168.075 219,-112 226.887,-97.6632 241.486,-87.2525 255.403,-80.0792"/>
<polygon fill="midnightblue" stroke="midnightblue" points="257.292,-83.0578 264.839,-75.6217 254.302,-76.7285 257.292,-83.0578"/>
</g>
<!-- Node14 -->
<g id="node14" class="node"><title>Node14</title>
<g id="a_node14"><a xlink:href="a00135.html" target="_top" xlink:title="hpp/core/path.hh">
<polygon fill="white" stroke="black" points="436.5,-236.5 436.5,-255.5 525.5,-255.5 525.5,-236.5 436.5,-236.5"/>
<text text-anchor="middle" x="481" y="-243.5" font-family="Helvetica,sans-Serif" font-size="10.00">hpp/core/path.hh</text>
</a>
</g>
</g>
<!-- Node13&#45;&gt;Node14 -->
<g id="edge15" class="edge"><title>Node13&#45;&gt;Node14</title>
<path fill="none" stroke="midnightblue" d="M322.506,-298.403C354.652,-287.978 408.987,-270.356 444.927,-258.699"/>
<polygon fill="midnightblue" stroke="midnightblue" points="446.111,-261.995 454.543,-255.581 443.951,-255.336 446.111,-261.995"/>
</g>
<!-- Node14&#45;&gt;Node6 -->
<g id="edge17" class="edge"><title>Node14&#45;&gt;Node6</title>
<path fill="none" stroke="midnightblue" d="M462.406,-236.367C446.685,-228.445 424.197,-215.59 408,-200 374.074,-167.346 381.266,-146.296 349,-112 338.027,-100.336 323.798,-89.3891 312.063,-81.2129"/>
<polygon fill="midnightblue" stroke="midnightblue" points="313.915,-78.2398 303.671,-75.5347 309.992,-84.0374 313.915,-78.2398"/>
</g>
<!-- Node14&#45;&gt;Node12 -->
<g id="edge18" class="edge"><title>Node14&#45;&gt;Node12</title>
<path fill="none" stroke="midnightblue" d="M525.5,-244.75C605.309,-243.382 768.345,-236.11 810,-200 843.319,-171.116 848.391,-115.24 848.595,-85.9545"/>
<polygon fill="midnightblue" stroke="midnightblue" points="852.093,-85.7805 848.474,-75.8232 845.094,-85.8644 852.093,-85.7805"/>
</g>
<!-- Node15 -->
<g id="node15" class="node"><title>Node15</title>
<polygon fill="white" stroke="#bfbfbf" points="417,-174.5 417,-193.5 545,-193.5 545,-174.5 417,-174.5"/>
<text text-anchor="middle" x="481" y="-181.5" font-family="Helvetica,sans-Serif" font-size="10.00">boost/concept_check.hpp</text>
</g>
<!-- Node14&#45;&gt;Node15 -->
<g id="edge16" class="edge"><title>Node14&#45;&gt;Node15</title>
<path fill="none" stroke="midnightblue" d="M481,-236.403C481,-227.938 481,-214.728 481,-203.82"/>
<polygon fill="midnightblue" stroke="midnightblue" points="484.5,-203.581 481,-193.581 477.5,-203.581 484.5,-203.581"/>
</g>
<!-- Node16 -->
<g id="node16" class="node"><title>Node16</title>
<g id="a_node16"><a xlink:href="a00099.html" target="_top" xlink:title="hpp/core/constraint\l&#45;set.hh">
<polygon fill="white" stroke="black" points="701,-169 701,-199 801,-199 801,-169 701,-169"/>
<text text-anchor="start" x="709" y="-187" font-family="Helvetica,sans-Serif" font-size="10.00">hpp/core/constraint</text>
<text text-anchor="middle" x="751" y="-176" font-family="Helvetica,sans-Serif" font-size="10.00">&#45;set.hh</text>
</a>
</g>
</g>
<!-- Node14&#45;&gt;Node16 -->
<g id="edge19" class="edge"><title>Node14&#45;&gt;Node16</title>
<path fill="none" stroke="midnightblue" d="M522.929,-236.451C565.384,-227.693 632.887,-213.486 691,-200 691.101,-199.976 691.203,-199.953 691.304,-199.929"/>
<polygon fill="midnightblue" stroke="midnightblue" points="692.015,-203.358 700.94,-197.65 690.403,-196.546 692.015,-203.358"/>
</g>
<!-- Node19 -->
<g id="node19" class="node"><title>Node19</title>
<polygon fill="white" stroke="#bfbfbf" points="563.5,-174.5 563.5,-193.5 682.5,-193.5 682.5,-174.5 563.5,-174.5"/>
<text text-anchor="middle" x="623" y="-181.5" font-family="Helvetica,sans-Serif" font-size="10.00">hpp/core/deprecated.hh</text>
</g>
<!-- Node14&#45;&gt;Node19 -->
<g id="edge25" class="edge"><title>Node14&#45;&gt;Node19</title>
<path fill="none" stroke="midnightblue" d="M501.345,-236.403C525.387,-226.245 565.597,-209.255 593.163,-197.607"/>
<polygon fill="midnightblue" stroke="midnightblue" points="594.843,-200.697 602.693,-193.581 592.119,-194.249 594.843,-200.697"/>
</g>
<!-- Node20 -->
<g id="node20" class="node"><title>Node20</title>
<g id="a_node20"><a xlink:href="a00143.html" target="_top" xlink:title="hpp/core/projection\l&#45;error.hh">
<polygon fill="white" stroke="black" points="261.5,-169 261.5,-199 360.5,-199 360.5,-169 261.5,-169"/>
<text text-anchor="start" x="269.5" y="-187" font-family="Helvetica,sans-Serif" font-size="10.00">hpp/core/projection</text>
<text text-anchor="middle" x="311" y="-176" font-family="Helvetica,sans-Serif" font-size="10.00">&#45;error.hh</text>
</a>
</g>
</g>
<!-- Node14&#45;&gt;Node20 -->
<g id="edge26" class="edge"><title>Node14&#45;&gt;Node20</title>
<path fill="none" stroke="midnightblue" d="M456.643,-236.403C431.599,-227.564 391.9,-213.553 360.27,-202.39"/>
<polygon fill="midnightblue" stroke="midnightblue" points="361.333,-199.053 350.738,-199.025 359.003,-205.654 361.333,-199.053"/>
</g>
<!-- Node16&#45;&gt;Node8 -->
<g id="edge20" class="edge"><title>Node16&#45;&gt;Node8</title>
<path fill="none" stroke="midnightblue" d="M749.058,-168.881C744.827,-143.201 732.496,-88.5026 701,-56 687.756,-42.3326 669.47,-31.488 653.932,-23.8721"/>
<polygon fill="midnightblue" stroke="midnightblue" points="655.224,-20.6125 644.682,-19.551 652.261,-26.9546 655.224,-20.6125"/>
</g>
<!-- Node17 -->
<g id="node17" class="node"><title>Node17</title>
<g id="a_node17"><a xlink:href="a00100.html" target="_top" xlink:title="hpp/core/constraint.hh">
<polygon fill="white" stroke="black" points="609.5,-112.5 609.5,-131.5 722.5,-131.5 722.5,-112.5 609.5,-112.5"/>
<text text-anchor="middle" x="666" y="-119.5" font-family="Helvetica,sans-Serif" font-size="10.00">hpp/core/constraint.hh</text>
</a>
</g>
</g>
<!-- Node16&#45;&gt;Node17 -->
<g id="edge21" class="edge"><title>Node16&#45;&gt;Node17</title>
<path fill="none" stroke="midnightblue" d="M730.856,-168.781C717.405,-159.286 699.778,-146.843 686.296,-137.327"/>
<polygon fill="midnightblue" stroke="midnightblue" points="688.309,-134.463 678.121,-131.556 684.272,-140.182 688.309,-134.463"/>
</g>
<!-- Node17&#45;&gt;Node6 -->
<g id="edge24" class="edge"><title>Node17&#45;&gt;Node6</title>
<path fill="none" stroke="midnightblue" d="M609.302,-112.857C537.148,-102.495 413.457,-84.7305 343.078,-74.623"/>
<polygon fill="midnightblue" stroke="midnightblue" points="343.49,-71.1463 333.094,-73.189 342.495,-78.0752 343.49,-71.1463"/>
</g>
<!-- Node17&#45;&gt;Node12 -->
<g id="edge23" class="edge"><title>Node17&#45;&gt;Node12</title>
<path fill="none" stroke="midnightblue" d="M694.838,-112.444C725.856,-103.241 775.329,-88.5617 809.618,-78.3879"/>
<polygon fill="midnightblue" stroke="midnightblue" points="810.705,-81.7164 819.296,-75.5164 808.714,-75.0055 810.705,-81.7164"/>
</g>
<!-- Node18 -->
<g id="node18" class="node"><title>Node18</title>
<polygon fill="white" stroke="#bfbfbf" points="640,-56.5 640,-75.5 692,-75.5 692,-56.5 640,-56.5"/>
<text text-anchor="middle" x="666" y="-63.5" font-family="Helvetica,sans-Serif" font-size="10.00">ostream</text>
</g>
<!-- Node17&#45;&gt;Node18 -->
<g id="edge22" class="edge"><title>Node17&#45;&gt;Node18</title>
<path fill="none" stroke="midnightblue" d="M666,-112.083C666,-105.006 666,-94.8611 666,-85.9865"/>
<polygon fill="midnightblue" stroke="midnightblue" points="669.5,-85.751 666,-75.7511 662.5,-85.7511 669.5,-85.751"/>
</g>
<!-- Node21 -->
<g id="node21" class="node"><title>Node21</title>
<polygon fill="white" stroke="#bfbfbf" points="281.5,-112.5 281.5,-131.5 340.5,-131.5 340.5,-112.5 281.5,-112.5"/>
<text text-anchor="middle" x="311" y="-119.5" font-family="Helvetica,sans-Serif" font-size="10.00">exception</text>
</g>
<!-- Node20&#45;&gt;Node21 -->
<g id="edge27" class="edge"><title>Node20&#45;&gt;Node21</title>
<path fill="none" stroke="midnightblue" d="M311,-168.781C311,-160.781 311,-150.689 311,-142.017"/>
<polygon fill="midnightblue" stroke="midnightblue" points="314.5,-141.73 311,-131.731 307.5,-141.731 314.5,-141.73"/>
</g>
<!-- Node22&#45;&gt;Node6 -->
<g id="edge37" class="edge"><title>Node22&#45;&gt;Node6</title>
<path fill="none" stroke="midnightblue" d="M425.959,-298.334C371.448,-286.505 290.811,-259.512 253,-200 229.431,-162.903 258.613,-110.708 277.067,-84.0804"/>
<polygon fill="midnightblue" stroke="midnightblue" points="280.032,-85.9528 283.043,-75.7948 274.354,-81.8581 280.032,-85.9528"/>
</g>
<!-- Node22&#45;&gt;Node12 -->
<g id="edge38" class="edge"><title>Node22&#45;&gt;Node12</title>
<path fill="none" stroke="midnightblue" d="M536.267,-297.077C624.989,-280.072 793.463,-243.007 835,-200 864.596,-169.357 858.423,-114.245 852.567,-85.5328"/>
<polygon fill="midnightblue" stroke="midnightblue" points="855.945,-84.6014 850.336,-75.6131 849.116,-86.1373 855.945,-84.6014"/>
</g>
<!-- Node22&#45;&gt;Node14 -->
<g id="edge39" class="edge"><title>Node22&#45;&gt;Node14</title>
<path fill="none" stroke="midnightblue" d="M481,-292.781C481,-284.781 481,-274.689 481,-266.017"/>
<polygon fill="midnightblue" stroke="midnightblue" points="484.5,-265.73 481,-255.731 477.5,-265.731 484.5,-265.73"/>
</g>
<!-- Node23 -->
<g id="node23" class="node"><title>Node23</title>
<g id="a_node23"><a doxygen="https://jmirabel.github.io/hpp-doc/api/hpp-model/doxygen-html/hpp-model.doxytag:https://jmirabel.github.io/hpp-doc/api/hpp-model/doxygen-html/" xlink:href="https://jmirabel.github.io/hpp-doc/api/hpp-model/doxygen-html/a00033.html" target="_top" xlink:title="hpp/model/device.hh">
<polygon fill="white" stroke="black" points="930.5,-236.5 930.5,-255.5 1037.5,-255.5 1037.5,-236.5 930.5,-236.5"/>
<text text-anchor="middle" x="984" y="-243.5" font-family="Helvetica,sans-Serif" font-size="10.00">hpp/model/device.hh</text>
</a>
</g>
</g>
<!-- Node22&#45;&gt;Node23 -->
<g id="edge29" class="edge"><title>Node22&#45;&gt;Node23</title>
<path fill="none" stroke="midnightblue" d="M536.269,-300.407C630.179,-289.205 820.372,-266.518 919.941,-254.641"/>
<polygon fill="midnightblue" stroke="midnightblue" points="920.649,-258.082 930.164,-253.422 919.819,-251.131 920.649,-258.082"/>
</g>
<!-- Node23&#45;&gt;Node5 -->
<g id="edge30" class="edge"><title>Node23&#45;&gt;Node5</title>
<path fill="none" stroke="midnightblue" d="M965.016,-236.398C951.114,-228.954 933.286,-216.741 925,-200 918.691,-187.254 916.205,-179.177 925,-168 940.824,-147.891 1004.95,-135.688 1053.52,-129.159"/>
<polygon fill="midnightblue" stroke="midnightblue" points="1054.16,-132.606 1063.63,-127.851 1053.26,-125.663 1054.16,-132.606"/>
</g>
<!-- Node24 -->
<g id="node24" class="node"><title>Node24</title>
<g id="a_node24"><a doxygen="https://jmirabel.github.io/hpp-doc/api/hpp-model/doxygen-html/hpp-model.doxytag:https://jmirabel.github.io/hpp-doc/api/hpp-model/doxygen-html/" xlink:href="https://jmirabel.github.io/hpp-doc/api/hpp-model/doxygen-html/a00034.html" target="_top" xlink:title="hpp/model/distance\l&#45;result.hh">
<polygon fill="white" stroke="black" points="933.5,-169 933.5,-199 1034.5,-199 1034.5,-169 933.5,-169"/>
<text text-anchor="start" x="941.5" y="-187" font-family="Helvetica,sans-Serif" font-size="10.00">hpp/model/distance</text>
<text text-anchor="middle" x="984" y="-176" font-family="Helvetica,sans-Serif" font-size="10.00">&#45;result.hh</text>
</a>
</g>
</g>
<!-- Node23&#45;&gt;Node24 -->
<g id="edge31" class="edge"><title>Node23&#45;&gt;Node24</title>
<path fill="none" stroke="midnightblue" d="M984,-236.403C984,-229.341 984,-218.975 984,-209.399"/>
<polygon fill="midnightblue" stroke="midnightblue" points="987.5,-209.141 984,-199.141 980.5,-209.141 987.5,-209.141"/>
</g>
<!-- Node25 -->
<g id="node25" class="node"><title>Node25</title>
<g id="a_node25"><a doxygen="https://jmirabel.github.io/hpp-doc/api/hpp-model/doxygen-html/hpp-model.doxytag:https://jmirabel.github.io/hpp-doc/api/hpp-model/doxygen-html/" xlink:href="https://jmirabel.github.io/hpp-doc/api/hpp-model/doxygen-html/a00035.html" target="_top" xlink:title="hpp/model/extra&#45;config\l&#45;space.hh">
<polygon fill="white" stroke="black" points="1053,-169 1053,-199 1169,-199 1169,-169 1053,-169"/>
<text text-anchor="start" x="1061" y="-187" font-family="Helvetica,sans-Serif" font-size="10.00">hpp/model/extra&#45;config</text>
<text text-anchor="middle" x="1111" y="-176" font-family="Helvetica,sans-Serif" font-size="10.00">&#45;space.hh</text>
</a>
</g>
</g>
<!-- Node23&#45;&gt;Node25 -->
<g id="edge33" class="edge"><title>Node23&#45;&gt;Node25</title>
<path fill="none" stroke="midnightblue" d="M1002.2,-236.403C1020.28,-227.86 1048.59,-214.483 1071.81,-203.517"/>
<polygon fill="midnightblue" stroke="midnightblue" points="1073.52,-206.577 1081.07,-199.141 1070.53,-200.248 1073.52,-206.577"/>
</g>
<!-- Node26 -->
<g id="node26" class="node"><title>Node26</title>
<g id="a_node26"><a doxygen="https://jmirabel.github.io/hpp-doc/api/hpp-model/doxygen-html/hpp-model.doxytag:https://jmirabel.github.io/hpp-doc/api/hpp-model/doxygen-html/" xlink:href="https://jmirabel.github.io/hpp-doc/api/hpp-model/doxygen-html/a00044.html" target="_top" xlink:title="hpp/model/object&#45;iterator.hh">
<polygon fill="white" stroke="black" points="1187.5,-174.5 1187.5,-193.5 1324.5,-193.5 1324.5,-174.5 1187.5,-174.5"/>
<text text-anchor="middle" x="1256" y="-181.5" font-family="Helvetica,sans-Serif" font-size="10.00">hpp/model/object&#45;iterator.hh</text>
</a>
</g>
</g>
<!-- Node23&#45;&gt;Node26 -->
<g id="edge35" class="edge"><title>Node23&#45;&gt;Node26</title>
<path fill="none" stroke="midnightblue" d="M1022.68,-236.467C1071.32,-225.738 1154.84,-207.316 1207.64,-195.667"/>
<polygon fill="midnightblue" stroke="midnightblue" points="1208.44,-199.075 1217.45,-193.503 1206.93,-192.24 1208.44,-199.075"/>
</g>
<!-- Node24&#45;&gt;Node5 -->
<g id="edge32" class="edge"><title>Node24&#45;&gt;Node5</title>
<path fill="none" stroke="midnightblue" d="M1013.78,-168.933C1034.92,-158.946 1063.08,-145.64 1083.65,-135.92"/>
<polygon fill="midnightblue" stroke="midnightblue" points="1085.25,-139.036 1092.8,-131.6 1082.26,-132.707 1085.25,-139.036"/>
</g>
<!-- Node25&#45;&gt;Node5 -->
<g id="edge34" class="edge"><title>Node25&#45;&gt;Node5</title>
<path fill="none" stroke="midnightblue" d="M1111,-168.781C1111,-160.781 1111,-150.689 1111,-142.017"/>
<polygon fill="midnightblue" stroke="midnightblue" points="1114.5,-141.73 1111,-131.731 1107.5,-141.731 1114.5,-141.73"/>
</g>
<!-- Node26&#45;&gt;Node5 -->
<g id="edge36" class="edge"><title>Node26&#45;&gt;Node5</title>
<path fill="none" stroke="midnightblue" d="M1235.23,-174.403C1210.57,-164.2 1169.25,-147.105 1141.1,-135.454"/>
<polygon fill="midnightblue" stroke="midnightblue" points="1142.31,-132.17 1131.74,-131.581 1139.64,-138.638 1142.31,-132.17"/>
</g>
</g>
</svg>
