<?xml version="1.0" encoding="UTF-8" standalone="no"?>
<!DOCTYPE svg PUBLIC "-//W3C//DTD SVG 1.1//EN"
 "http://www.w3.org/Graphics/SVG/1.1/DTD/svg11.dtd">
<!-- Generated by graphviz version 2.36.0 (20140111.2315)
 -->
<!-- Title: diffusing&#45;planner.hh Pages: 1 -->
<svg width="453pt" height="196pt"
 viewBox="0.00 0.00 453.00 196.00" xmlns="http://www.w3.org/2000/svg" xmlns:xlink="http://www.w3.org/1999/xlink">
<g id="graph0" class="graph" transform="scale(1 1) rotate(0) translate(4 192)">
<title>diffusing&#45;planner.hh</title>
<polygon fill="white" stroke="none" points="-4,4 -4,-192 449,-192 449,4 -4,4"/>
<!-- Node1 -->
<g id="node1" class="node"><title>Node1</title>
<polygon fill="#bfbfbf" stroke="black" points="165.5,-168.5 165.5,-187.5 266.5,-187.5 266.5,-168.5 165.5,-168.5"/>
<text text-anchor="middle" x="216" y="-175.5" font-family="Helvetica,sans-Serif" font-size="10.00">diffusing&#45;planner.hh</text>
</g>
<!-- Node2 -->
<g id="node2" class="node"><title>Node2</title>
<g id="a_node2"><a xlink:href="a00130.html" target="_top" xlink:title="hpp/core/path&#45;planner.hh">
<polygon fill="white" stroke="black" points="154,-112.5 154,-131.5 278,-131.5 278,-112.5 154,-112.5"/>
<text text-anchor="middle" x="216" y="-119.5" font-family="Helvetica,sans-Serif" font-size="10.00">hpp/core/path&#45;planner.hh</text>
</a>
</g>
</g>
<!-- Node1&#45;&gt;Node2 -->
<g id="edge1" class="edge"><title>Node1&#45;&gt;Node2</title>
<path fill="none" stroke="midnightblue" d="M216,-168.083C216,-161.006 216,-150.861 216,-141.986"/>
<polygon fill="midnightblue" stroke="midnightblue" points="219.5,-141.751 216,-131.751 212.5,-141.751 219.5,-141.751"/>
</g>
<!-- Node3 -->
<g id="node3" class="node"><title>Node3</title>
<g id="a_node3"><a xlink:href="a00001.html" target="_top" xlink:title="hpp/core/fwd.hh">
<polygon fill="white" stroke="black" points="118,-56.5 118,-75.5 204,-75.5 204,-56.5 118,-56.5"/>
<text text-anchor="middle" x="161" y="-63.5" font-family="Helvetica,sans-Serif" font-size="10.00">hpp/core/fwd.hh</text>
</a>
</g>
</g>
<!-- Node2&#45;&gt;Node3 -->
<g id="edge2" class="edge"><title>Node2&#45;&gt;Node3</title>
<path fill="none" stroke="midnightblue" d="M206.918,-112.083C198.829,-104.141 186.805,-92.3354 177.09,-82.7973"/>
<polygon fill="midnightblue" stroke="midnightblue" points="179.501,-80.2595 169.913,-75.7511 174.597,-85.2545 179.501,-80.2595"/>
</g>
<!-- Node10 -->
<g id="node10" class="node"><title>Node10</title>
<polygon fill="white" stroke="#bfbfbf" points="222.5,-56.5 222.5,-75.5 319.5,-75.5 319.5,-56.5 222.5,-56.5"/>
<text text-anchor="middle" x="271" y="-63.5" font-family="Helvetica,sans-Serif" font-size="10.00">hpp/core/config.hh</text>
</g>
<!-- Node2&#45;&gt;Node10 -->
<g id="edge9" class="edge"><title>Node2&#45;&gt;Node10</title>
<path fill="none" stroke="midnightblue" d="M225.082,-112.083C233.171,-104.141 245.195,-92.3354 254.91,-82.7973"/>
<polygon fill="midnightblue" stroke="midnightblue" points="257.403,-85.2545 262.087,-75.7511 252.499,-80.2595 257.403,-85.2545"/>
</g>
<!-- Node4 -->
<g id="node4" class="node"><title>Node4</title>
<polygon fill="white" stroke="#bfbfbf" points="-1,-0.5 -1,-19.5 43,-19.5 43,-0.5 -1,-0.5"/>
<text text-anchor="middle" x="21" y="-7.5" font-family="Helvetica,sans-Serif" font-size="10.00">vector</text>
</g>
<!-- Node3&#45;&gt;Node4 -->
<g id="edge3" class="edge"><title>Node3&#45;&gt;Node4</title>
<path fill="none" stroke="midnightblue" d="M138.817,-56.4435C115.572,-47.4776 78.8512,-33.314 52.5848,-23.1827"/>
<polygon fill="midnightblue" stroke="midnightblue" points="53.6692,-19.8497 43.0796,-19.5164 51.1501,-26.3807 53.6692,-19.8497"/>
</g>
<!-- Node5 -->
<g id="node5" class="node"><title>Node5</title>
<polygon fill="white" stroke="#bfbfbf" points="61.5,-0.5 61.5,-19.5 104.5,-19.5 104.5,-0.5 61.5,-0.5"/>
<text text-anchor="middle" x="83" y="-7.5" font-family="Helvetica,sans-Serif" font-size="10.00">deque</text>
</g>
<!-- Node3&#45;&gt;Node5 -->
<g id="edge4" class="edge"><title>Node3&#45;&gt;Node5</title>
<path fill="none" stroke="midnightblue" d="M148.468,-56.324C136.414,-47.979 117.973,-35.2122 103.731,-25.3524"/>
<polygon fill="midnightblue" stroke="midnightblue" points="105.715,-22.469 95.5009,-19.6545 101.731,-28.2243 105.715,-22.469"/>
</g>
<!-- Node6 -->
<g id="node6" class="node"><title>Node6</title>
<polygon fill="white" stroke="#bfbfbf" points="122.5,-0.5 122.5,-19.5 151.5,-19.5 151.5,-0.5 122.5,-0.5"/>
<text text-anchor="middle" x="137" y="-7.5" font-family="Helvetica,sans-Serif" font-size="10.00">list</text>
</g>
<!-- Node3&#45;&gt;Node6 -->
<g id="edge5" class="edge"><title>Node3&#45;&gt;Node6</title>
<path fill="none" stroke="midnightblue" d="M157.037,-56.083C153.787,-48.77 149.081,-38.1814 145.046,-29.1034"/>
<polygon fill="midnightblue" stroke="midnightblue" points="148.149,-27.4677 140.889,-19.7511 141.752,-30.3107 148.149,-27.4677"/>
</g>
<!-- Node7 -->
<g id="node7" class="node"><title>Node7</title>
<polygon fill="white" stroke="#bfbfbf" points="170,-0.5 170,-19.5 200,-19.5 200,-0.5 170,-0.5"/>
<text text-anchor="middle" x="185" y="-7.5" font-family="Helvetica,sans-Serif" font-size="10.00">set</text>
</g>
<!-- Node3&#45;&gt;Node7 -->
<g id="edge6" class="edge"><title>Node3&#45;&gt;Node7</title>
<path fill="none" stroke="midnightblue" d="M164.963,-56.083C168.213,-48.77 172.919,-38.1814 176.954,-29.1034"/>
<polygon fill="midnightblue" stroke="midnightblue" points="180.248,-30.3107 181.111,-19.7511 173.851,-27.4677 180.248,-30.3107"/>
</g>
<!-- Node8 -->
<g id="node8" class="node"><title>Node8</title>
<polygon fill="white" stroke="#bfbfbf" points="218,-0.5 218,-19.5 312,-19.5 312,-0.5 218,-0.5"/>
<text text-anchor="middle" x="265" y="-7.5" font-family="Helvetica,sans-Serif" font-size="10.00">hpp/util/pointer.hh</text>
</g>
<!-- Node3&#45;&gt;Node8 -->
<g id="edge7" class="edge"><title>Node3&#45;&gt;Node8</title>
<path fill="none" stroke="midnightblue" d="M177.709,-56.324C194.312,-47.7034 220.002,-34.3643 239.22,-24.3855"/>
<polygon fill="midnightblue" stroke="midnightblue" points="241.07,-27.3689 248.332,-19.6545 237.844,-21.1565 241.07,-27.3689"/>
</g>
<!-- Node9 -->
<g id="node9" class="node"><title>Node9</title>
<g id="a_node9"><a doxygen="https://jmirabel.github.io/hpp-doc/api/hpp-constraints/doxygen-html/hpp-constraints.doxytag:https://jmirabel.github.io/hpp-doc/api/hpp-constraints/doxygen-html/" xlink:href="https://jmirabel.github.io/hpp-doc/api/hpp-constraints/doxygen-html/a00001.html" target="_top" xlink:title="hpp/constraints/fwd.hh">
<polygon fill="white" stroke="black" points="330,-0.5 330,-19.5 446,-19.5 446,-0.5 330,-0.5"/>
<text text-anchor="middle" x="388" y="-7.5" font-family="Helvetica,sans-Serif" font-size="10.00">hpp/constraints/fwd.hh</text>
</a>
</g>
</g>
<!-- Node3&#45;&gt;Node9 -->
<g id="edge8" class="edge"><title>Node3&#45;&gt;Node9</title>
<path fill="none" stroke="midnightblue" d="M196.969,-56.4435C236.319,-47.0826 299.487,-32.0561 342.314,-21.868"/>
<polygon fill="midnightblue" stroke="midnightblue" points="343.281,-25.2358 352.199,-19.5164 341.661,-18.4258 343.281,-25.2358"/>
</g>
</g>
</svg>
