<?xml version="1.0" encoding="UTF-8" standalone="no"?>
<!DOCTYPE svg PUBLIC "-//W3C//DTD SVG 1.1//EN"
 "http://www.w3.org/Graphics/SVG/1.1/DTD/svg11.dtd">
<!-- Generated by graphviz version 2.36.0 (20140111.2315)
 -->
<!-- Title: container.hh Pages: 1 -->
<svg width="1266pt" height="96pt"
 viewBox="0.00 0.00 1266.00 96.00" xmlns="http://www.w3.org/2000/svg" xmlns:xlink="http://www.w3.org/1999/xlink">
<g id="graph0" class="graph" transform="scale(1 1) rotate(0) translate(4 92)">
<title>container.hh</title>
<polygon fill="white" stroke="none" points="-4,4 -4,-92 1262,-92 1262,4 -4,4"/>
<!-- Node1 -->
<g id="node1" class="node"><title>Node1</title>
<polygon fill="#bfbfbf" stroke="black" points="529,-68.5 529,-87.5 599,-87.5 599,-68.5 529,-68.5"/>
<text text-anchor="middle" x="564" y="-75.5" font-family="Helvetica,sans-Serif" font-size="10.00">container.hh</text>
</g>
<!-- Node2 -->
<g id="node2" class="node"><title>Node2</title>
<polygon fill="white" stroke="#bfbfbf" points="-0.5,-6.5 -0.5,-25.5 34.5,-25.5 34.5,-6.5 -0.5,-6.5"/>
<text text-anchor="middle" x="17" y="-13.5" font-family="Helvetica,sans-Serif" font-size="10.00">map</text>
</g>
<!-- Node1&#45;&gt;Node2 -->
<g id="edge1" class="edge"><title>Node1&#45;&gt;Node2</title>
<path fill="none" stroke="midnightblue" d="M528.841,-75.8706C427.308,-72.308 135.097,-59.8516 44,-32 42.343,-31.4934 40.6742,-30.8757 39.0229,-30.1831"/>
<polygon fill="midnightblue" stroke="midnightblue" points="40.4705,-26.9937 29.9615,-25.6475 37.3372,-33.2534 40.4705,-26.9937"/>
</g>
<!-- Node3 -->
<g id="node3" class="node"><title>Node3</title>
<polygon fill="white" stroke="#bfbfbf" points="52.5,-6.5 52.5,-25.5 81.5,-25.5 81.5,-6.5 52.5,-6.5"/>
<text text-anchor="middle" x="67" y="-13.5" font-family="Helvetica,sans-Serif" font-size="10.00">list</text>
</g>
<!-- Node1&#45;&gt;Node3 -->
<g id="edge2" class="edge"><title>Node1&#45;&gt;Node3</title>
<path fill="none" stroke="midnightblue" d="M528.816,-75.839C433.346,-72.3448 171.153,-60.3674 90,-32 88.965,-31.6382 87.9302,-31.2203 86.9042,-30.7594"/>
<polygon fill="midnightblue" stroke="midnightblue" points="88.5543,-27.6717 78.1263,-25.7988 85.1103,-33.7659 88.5543,-27.6717"/>
</g>
<!-- Node4 -->
<g id="node4" class="node"><title>Node4</title>
<polygon fill="white" stroke="#bfbfbf" points="99.5,-1 99.5,-31 216.5,-31 216.5,-1 99.5,-1"/>
<text text-anchor="start" x="107.5" y="-19" font-family="Helvetica,sans-Serif" font-size="10.00">boost/smart_ptr/shared</text>
<text text-anchor="middle" x="158" y="-8" font-family="Helvetica,sans-Serif" font-size="10.00">_ptr.hpp</text>
</g>
<!-- Node1&#45;&gt;Node4 -->
<g id="edge3" class="edge"><title>Node1&#45;&gt;Node4</title>
<path fill="none" stroke="midnightblue" d="M528.704,-73.3537C468.653,-66.9252 342.587,-52.4575 226.858,-32.2466"/>
<polygon fill="midnightblue" stroke="midnightblue" points="227.223,-28.7571 216.767,-30.4648 226.006,-35.6504 227.223,-28.7571"/>
</g>
<!-- Node5 -->
<g id="node5" class="node"><title>Node5</title>
<polygon fill="white" stroke="#bfbfbf" points="234.5,-6.5 234.5,-25.5 377.5,-25.5 377.5,-6.5 234.5,-6.5"/>
<text text-anchor="middle" x="306" y="-13.5" font-family="Helvetica,sans-Serif" font-size="10.00">boost/mpl/inherit_linearly.hpp</text>
</g>
<!-- Node1&#45;&gt;Node5 -->
<g id="edge4" class="edge"><title>Node1&#45;&gt;Node5</title>
<path fill="none" stroke="midnightblue" d="M528.936,-68.8457C483.307,-58.2342 403.43,-39.6581 352.702,-27.861"/>
<polygon fill="midnightblue" stroke="midnightblue" points="353.187,-24.3803 342.654,-25.5241 351.601,-31.1984 353.187,-24.3803"/>
</g>
<!-- Node6 -->
<g id="node6" class="node"><title>Node6</title>
<polygon fill="white" stroke="#bfbfbf" points="395.5,-6.5 395.5,-25.5 492.5,-25.5 492.5,-6.5 395.5,-6.5"/>
<text text-anchor="middle" x="444" y="-13.5" font-family="Helvetica,sans-Serif" font-size="10.00">boost/mpl/fold.hpp</text>
</g>
<!-- Node1&#45;&gt;Node6 -->
<g id="edge5" class="edge"><title>Node1&#45;&gt;Node6</title>
<path fill="none" stroke="midnightblue" d="M546.807,-68.4035C526.757,-58.3787 493.401,-41.7006 470.14,-30.0699"/>
<polygon fill="midnightblue" stroke="midnightblue" points="471.671,-26.9223 461.161,-25.5806 468.54,-33.1833 471.671,-26.9223"/>
</g>
<!-- Node7 -->
<g id="node7" class="node"><title>Node7</title>
<polygon fill="white" stroke="#bfbfbf" points="510.5,-6.5 510.5,-25.5 617.5,-25.5 617.5,-6.5 510.5,-6.5"/>
<text text-anchor="middle" x="564" y="-13.5" font-family="Helvetica,sans-Serif" font-size="10.00">boost/mpl/inherit.hpp</text>
</g>
<!-- Node1&#45;&gt;Node7 -->
<g id="edge6" class="edge"><title>Node1&#45;&gt;Node7</title>
<path fill="none" stroke="midnightblue" d="M564,-68.4035C564,-59.9381 564,-46.7283 564,-35.8199"/>
<polygon fill="midnightblue" stroke="midnightblue" points="567.5,-35.5806 564,-25.5806 560.5,-35.5806 567.5,-35.5806"/>
</g>
<!-- Node8 -->
<g id="node8" class="node"><title>Node8</title>
<polygon fill="white" stroke="#bfbfbf" points="636,-6.5 636,-25.5 744,-25.5 744,-6.5 636,-6.5"/>
<text text-anchor="middle" x="690" y="-13.5" font-family="Helvetica,sans-Serif" font-size="10.00">boost/mpl/vector.hpp</text>
</g>
<!-- Node1&#45;&gt;Node8 -->
<g id="edge7" class="edge"><title>Node1&#45;&gt;Node8</title>
<path fill="none" stroke="midnightblue" d="M582.053,-68.4035C603.198,-58.3341 638.44,-41.5522 662.878,-29.9151"/>
<polygon fill="midnightblue" stroke="midnightblue" points="664.457,-33.04 671.981,-25.5806 661.447,-26.72 664.457,-33.04"/>
</g>
<!-- Node9 -->
<g id="node9" class="node"><title>Node9</title>
<polygon fill="white" stroke="#bfbfbf" points="762.5,-6.5 762.5,-25.5 881.5,-25.5 881.5,-6.5 762.5,-6.5"/>
<text text-anchor="middle" x="822" y="-13.5" font-family="Helvetica,sans-Serif" font-size="10.00">boost/mpl/for_each.hpp</text>
</g>
<!-- Node1&#45;&gt;Node9 -->
<g id="edge8" class="edge"><title>Node1&#45;&gt;Node9</title>
<path fill="none" stroke="midnightblue" d="M599.064,-68.8457C644.693,-58.2342 724.57,-39.6581 775.298,-27.861"/>
<polygon fill="midnightblue" stroke="midnightblue" points="776.399,-31.1984 785.346,-25.5241 774.813,-24.3803 776.399,-31.1984"/>
</g>
<!-- Node10 -->
<g id="node10" class="node"><title>Node10</title>
<polygon fill="white" stroke="#bfbfbf" points="900,-1 900,-31 1000,-31 1000,-1 900,-1"/>
<text text-anchor="start" x="908" y="-19" font-family="Helvetica,sans-Serif" font-size="10.00">boost/type_traits/is</text>
<text text-anchor="middle" x="950" y="-8" font-family="Helvetica,sans-Serif" font-size="10.00">_pointer.hpp</text>
</g>
<!-- Node1&#45;&gt;Node10 -->
<g id="edge9" class="edge"><title>Node1&#45;&gt;Node10</title>
<path fill="none" stroke="midnightblue" d="M599.421,-73.377C659.506,-66.9491 785.104,-52.2905 890,-32 890.102,-31.9802 890.204,-31.9604 890.307,-31.9405"/>
<polygon fill="midnightblue" stroke="midnightblue" points="890.92,-35.388 900,-29.9285 889.497,-28.5341 890.92,-35.388"/>
</g>
<!-- Node11 -->
<g id="node11" class="node"><title>Node11</title>
<polygon fill="white" stroke="#bfbfbf" points="1018.5,-1 1018.5,-31 1143.5,-31 1143.5,-1 1018.5,-1"/>
<text text-anchor="start" x="1026.5" y="-19" font-family="Helvetica,sans-Serif" font-size="10.00">boost/type_traits/remove</text>
<text text-anchor="middle" x="1081" y="-8" font-family="Helvetica,sans-Serif" font-size="10.00">_pointer.hpp</text>
</g>
<!-- Node1&#45;&gt;Node11 -->
<g id="edge10" class="edge"><title>Node1&#45;&gt;Node11</title>
<path fill="none" stroke="midnightblue" d="M599.062,-74.7077C672.863,-69.6139 849.787,-55.9899 1008.31,-31.9985"/>
<polygon fill="midnightblue" stroke="midnightblue" points="1008.89,-35.451 1018.24,-30.4779 1007.83,-28.5317 1008.89,-35.451"/>
</g>
<!-- Node12 -->
<g id="node12" class="node"><title>Node12</title>
<polygon fill="white" stroke="#bfbfbf" points="1161.5,-6.5 1161.5,-25.5 1258.5,-25.5 1258.5,-6.5 1161.5,-6.5"/>
<text text-anchor="middle" x="1210" y="-13.5" font-family="Helvetica,sans-Serif" font-size="10.00">hpp/core/config.hh</text>
</g>
<!-- Node1&#45;&gt;Node12 -->
<g id="edge11" class="edge"><title>Node1&#45;&gt;Node12</title>
<path fill="none" stroke="midnightblue" d="M599.053,-76.472C690.603,-74.6288 944.201,-66.5435 1152,-32 1158.26,-30.9591 1164.83,-29.5619 1171.21,-28.0376"/>
<polygon fill="midnightblue" stroke="midnightblue" points="1172.16,-31.4074 1181.01,-25.5704 1170.45,-24.6195 1172.16,-31.4074"/>
</g>
</g>
</svg>
