<?xml version="1.0" encoding="UTF-8" standalone="no"?>
<!DOCTYPE svg PUBLIC "-//W3C//DTD SVG 1.1//EN"
 "http://www.w3.org/Graphics/SVG/1.1/DTD/svg11.dtd">
<!-- Generated by graphviz version 2.36.0 (20140111.2315)
 -->
<!-- Title: steering&#45;method.hh Pages: 1 -->
<svg width="715pt" height="320pt"
 viewBox="0.00 0.00 715.00 320.00" xmlns="http://www.w3.org/2000/svg" xmlns:xlink="http://www.w3.org/1999/xlink">
<g id="graph0" class="graph" transform="scale(1 1) rotate(0) translate(4 316)">
<title>steering&#45;method.hh</title>
<polygon fill="white" stroke="none" points="-4,4 -4,-316 711,-316 711,4 -4,4"/>
<!-- Node1 -->
<g id="node1" class="node"><title>Node1</title>
<polygon fill="#bfbfbf" stroke="black" points="188,-292.5 188,-311.5 288,-311.5 288,-292.5 188,-292.5"/>
<text text-anchor="middle" x="238" y="-299.5" font-family="Helvetica,sans-Serif" font-size="10.00">steering&#45;method.hh</text>
</g>
<!-- Node2 -->
<g id="node2" class="node"><title>Node2</title>
<g id="a_node2"><a xlink:href="a00001.html" target="_top" xlink:title="hpp/core/fwd.hh">
<polygon fill="white" stroke="black" points="174,-56.5 174,-75.5 260,-75.5 260,-56.5 174,-56.5"/>
<text text-anchor="middle" x="217" y="-63.5" font-family="Helvetica,sans-Serif" font-size="10.00">hpp/core/fwd.hh</text>
</a>
</g>
</g>
<!-- Node1&#45;&gt;Node2 -->
<g id="edge1" class="edge"><title>Node1&#45;&gt;Node2</title>
<path fill="none" stroke="midnightblue" d="M225.719,-292.457C204.618,-276.933 162.186,-241.804 146,-200 131.748,-163.19 136.86,-145.335 158,-112 166.192,-99.0826 179.476,-88.4673 191.368,-80.7974"/>
<polygon fill="midnightblue" stroke="midnightblue" points="193.344,-83.6927 200.082,-75.517 189.716,-77.706 193.344,-83.6927"/>
</g>
<!-- Node9 -->
<g id="node9" class="node"><title>Node9</title>
<g id="a_node9"><a xlink:href="a00135.html" target="_top" xlink:title="hpp/core/path.hh">
<polygon fill="white" stroke="black" points="329.5,-236.5 329.5,-255.5 418.5,-255.5 418.5,-236.5 329.5,-236.5"/>
<text text-anchor="middle" x="374" y="-243.5" font-family="Helvetica,sans-Serif" font-size="10.00">hpp/core/path.hh</text>
</a>
</g>
</g>
<!-- Node1&#45;&gt;Node9 -->
<g id="edge8" class="edge"><title>Node1&#45;&gt;Node9</title>
<path fill="none" stroke="midnightblue" d="M259.55,-292.444C282.031,-283.517 317.488,-269.439 342.98,-259.317"/>
<polygon fill="midnightblue" stroke="midnightblue" points="344.549,-262.46 352.551,-255.516 341.965,-255.954 344.549,-262.46"/>
</g>
<!-- Node3 -->
<g id="node3" class="node"><title>Node3</title>
<polygon fill="white" stroke="#bfbfbf" points="293,-0.5 293,-19.5 337,-19.5 337,-0.5 293,-0.5"/>
<text text-anchor="middle" x="315" y="-7.5" font-family="Helvetica,sans-Serif" font-size="10.00">vector</text>
</g>
<!-- Node2&#45;&gt;Node3 -->
<g id="edge2" class="edge"><title>Node2&#45;&gt;Node3</title>
<path fill="none" stroke="midnightblue" d="M232.745,-56.324C248.319,-47.7428 272.377,-34.486 290.459,-24.5224"/>
<polygon fill="midnightblue" stroke="midnightblue" points="292.224,-27.546 299.294,-19.6545 288.846,-21.4152 292.224,-27.546"/>
</g>
<!-- Node4 -->
<g id="node4" class="node"><title>Node4</title>
<polygon fill="white" stroke="#bfbfbf" points="556.5,-0.5 556.5,-19.5 599.5,-19.5 599.5,-0.5 556.5,-0.5"/>
<text text-anchor="middle" x="578" y="-7.5" font-family="Helvetica,sans-Serif" font-size="10.00">deque</text>
</g>
<!-- Node2&#45;&gt;Node4 -->
<g id="edge3" class="edge"><title>Node2&#45;&gt;Node4</title>
<path fill="none" stroke="midnightblue" d="M260.186,-58.54C333.758,-47.5348 481.711,-25.4034 546.452,-15.7191"/>
<polygon fill="midnightblue" stroke="midnightblue" points="547.092,-19.1624 556.464,-14.2215 546.056,-12.2394 547.092,-19.1624"/>
</g>
<!-- Node5 -->
<g id="node5" class="node"><title>Node5</title>
<polygon fill="white" stroke="#bfbfbf" points="354.5,-0.5 354.5,-19.5 383.5,-19.5 383.5,-0.5 354.5,-0.5"/>
<text text-anchor="middle" x="369" y="-7.5" font-family="Helvetica,sans-Serif" font-size="10.00">list</text>
</g>
<!-- Node2&#45;&gt;Node5 -->
<g id="edge4" class="edge"><title>Node2&#45;&gt;Node5</title>
<path fill="none" stroke="midnightblue" d="M242.072,-56.3575C266.1,-48.0375 303.604,-34.9541 344.871,-19.9945"/>
<polygon fill="midnightblue" stroke="midnightblue" points="346.092,-23.275 354.295,-16.5694 343.701,-16.6961 346.092,-23.275"/>
</g>
<!-- Node6 -->
<g id="node6" class="node"><title>Node6</title>
<polygon fill="white" stroke="#bfbfbf" points="-1,-0.5 -1,-19.5 29,-19.5 29,-0.5 -1,-0.5"/>
<text text-anchor="middle" x="14" y="-7.5" font-family="Helvetica,sans-Serif" font-size="10.00">set</text>
</g>
<!-- Node2&#45;&gt;Node6 -->
<g id="edge5" class="edge"><title>Node2&#45;&gt;Node6</title>
<path fill="none" stroke="midnightblue" d="M177.538,-56.4236C143.099,-48.6403 91.6509,-36.2965 38.6972,-19.9594"/>
<polygon fill="midnightblue" stroke="midnightblue" points="39.7349,-16.6168 29.146,-16.9737 37.6462,-23.298 39.7349,-16.6168"/>
</g>
<!-- Node7 -->
<g id="node7" class="node"><title>Node7</title>
<polygon fill="white" stroke="#bfbfbf" points="47,-0.5 47,-19.5 141,-19.5 141,-0.5 47,-0.5"/>
<text text-anchor="middle" x="94" y="-7.5" font-family="Helvetica,sans-Serif" font-size="10.00">hpp/util/pointer.hh</text>
</g>
<!-- Node2&#45;&gt;Node7 -->
<g id="edge6" class="edge"><title>Node2&#45;&gt;Node7</title>
<path fill="none" stroke="midnightblue" d="M197.51,-56.4435C177.358,-47.5961 145.677,-33.6875 122.669,-23.5865"/>
<polygon fill="midnightblue" stroke="midnightblue" points="123.962,-20.3316 113.399,-19.5164 121.148,-26.7411 123.962,-20.3316"/>
</g>
<!-- Node8 -->
<g id="node8" class="node"><title>Node8</title>
<g id="a_node8"><a doxygen="https://jmirabel.github.io/hpp-doc/api/hpp-constraints/doxygen-html/hpp-constraints.doxytag:https://jmirabel.github.io/hpp-doc/api/hpp-constraints/doxygen-html/" xlink:href="https://jmirabel.github.io/hpp-doc/api/hpp-constraints/doxygen-html/a00001.html" target="_top" xlink:title="hpp/constraints/fwd.hh">
<polygon fill="white" stroke="black" points="159,-0.5 159,-19.5 275,-19.5 275,-0.5 159,-0.5"/>
<text text-anchor="middle" x="217" y="-7.5" font-family="Helvetica,sans-Serif" font-size="10.00">hpp/constraints/fwd.hh</text>
</a>
</g>
</g>
<!-- Node2&#45;&gt;Node8 -->
<g id="edge7" class="edge"><title>Node2&#45;&gt;Node8</title>
<path fill="none" stroke="midnightblue" d="M217,-56.083C217,-49.0059 217,-38.8611 217,-29.9865"/>
<polygon fill="midnightblue" stroke="midnightblue" points="220.5,-29.751 217,-19.7511 213.5,-29.7511 220.5,-29.751"/>
</g>
<!-- Node9&#45;&gt;Node2 -->
<g id="edge10" class="edge"><title>Node9&#45;&gt;Node2</title>
<path fill="none" stroke="midnightblue" d="M329.367,-242.114C272.784,-237.418 180.04,-225.899 159,-200 129.348,-163.499 173.788,-109.505 200.026,-82.9425"/>
<polygon fill="midnightblue" stroke="midnightblue" points="202.794,-85.1304 207.482,-75.6295 197.892,-80.1329 202.794,-85.1304"/>
</g>
<!-- Node10 -->
<g id="node10" class="node"><title>Node10</title>
<polygon fill="white" stroke="#bfbfbf" points="168,-174.5 168,-193.5 296,-193.5 296,-174.5 168,-174.5"/>
<text text-anchor="middle" x="232" y="-181.5" font-family="Helvetica,sans-Serif" font-size="10.00">boost/concept_check.hpp</text>
</g>
<!-- Node9&#45;&gt;Node10 -->
<g id="edge9" class="edge"><title>Node9&#45;&gt;Node10</title>
<path fill="none" stroke="midnightblue" d="M353.655,-236.403C329.613,-226.245 289.403,-209.255 261.837,-197.607"/>
<polygon fill="midnightblue" stroke="midnightblue" points="262.881,-194.249 252.307,-193.581 260.157,-200.697 262.881,-194.249"/>
</g>
<!-- Node11 -->
<g id="node11" class="node"><title>Node11</title>
<polygon fill="white" stroke="#bfbfbf" points="530.5,-56.5 530.5,-75.5 627.5,-75.5 627.5,-56.5 530.5,-56.5"/>
<text text-anchor="middle" x="579" y="-63.5" font-family="Helvetica,sans-Serif" font-size="10.00">hpp/core/config.hh</text>
</g>
<!-- Node9&#45;&gt;Node11 -->
<g id="edge11" class="edge"><title>Node9&#45;&gt;Node11</title>
<path fill="none" stroke="midnightblue" d="M418.779,-239.851C467.322,-233.312 540.375,-220.369 559,-200 587.667,-168.65 585.689,-114.686 582.145,-86.0843"/>
<polygon fill="midnightblue" stroke="midnightblue" points="585.558,-85.2304 580.667,-75.8322 578.63,-86.2293 585.558,-85.2304"/>
</g>
<!-- Node12 -->
<g id="node12" class="node"><title>Node12</title>
<g id="a_node12"><a xlink:href="a00099.html" target="_top" xlink:title="hpp/core/constraint\l&#45;set.hh">
<polygon fill="white" stroke="black" points="607,-169 607,-199 707,-199 707,-169 607,-169"/>
<text text-anchor="start" x="615" y="-187" font-family="Helvetica,sans-Serif" font-size="10.00">hpp/core/constraint</text>
<text text-anchor="middle" x="657" y="-176" font-family="Helvetica,sans-Serif" font-size="10.00">&#45;set.hh</text>
</a>
</g>
</g>
<!-- Node9&#45;&gt;Node12 -->
<g id="edge12" class="edge"><title>Node9&#45;&gt;Node12</title>
<path fill="none" stroke="midnightblue" d="M417.29,-236.471C461.522,-227.67 532.155,-213.379 593,-200 594.254,-199.724 595.521,-199.444 596.798,-199.16"/>
<polygon fill="midnightblue" stroke="midnightblue" points="597.736,-202.536 606.721,-196.922 596.196,-195.708 597.736,-202.536"/>
</g>
<!-- Node15 -->
<g id="node15" class="node"><title>Node15</title>
<polygon fill="white" stroke="#bfbfbf" points="314.5,-174.5 314.5,-193.5 433.5,-193.5 433.5,-174.5 314.5,-174.5"/>
<text text-anchor="middle" x="374" y="-181.5" font-family="Helvetica,sans-Serif" font-size="10.00">hpp/core/deprecated.hh</text>
</g>
<!-- Node9&#45;&gt;Node15 -->
<g id="edge18" class="edge"><title>Node9&#45;&gt;Node15</title>
<path fill="none" stroke="midnightblue" d="M374,-236.403C374,-227.938 374,-214.728 374,-203.82"/>
<polygon fill="midnightblue" stroke="midnightblue" points="377.5,-203.581 374,-193.581 370.5,-203.581 377.5,-203.581"/>
</g>
<!-- Node16 -->
<g id="node16" class="node"><title>Node16</title>
<g id="a_node16"><a xlink:href="a00143.html" target="_top" xlink:title="hpp/core/projection\l&#45;error.hh">
<polygon fill="white" stroke="black" points="451.5,-169 451.5,-199 550.5,-199 550.5,-169 451.5,-169"/>
<text text-anchor="start" x="459.5" y="-187" font-family="Helvetica,sans-Serif" font-size="10.00">hpp/core/projection</text>
<text text-anchor="middle" x="501" y="-176" font-family="Helvetica,sans-Serif" font-size="10.00">&#45;error.hh</text>
</a>
</g>
</g>
<!-- Node9&#45;&gt;Node16 -->
<g id="edge19" class="edge"><title>Node9&#45;&gt;Node16</title>
<path fill="none" stroke="midnightblue" d="M392.196,-236.403C410.281,-227.86 438.594,-214.483 461.805,-203.517"/>
<polygon fill="midnightblue" stroke="midnightblue" points="463.522,-206.577 471.069,-199.141 460.532,-200.248 463.522,-206.577"/>
</g>
<!-- Node12&#45;&gt;Node4 -->
<g id="edge13" class="edge"><title>Node12&#45;&gt;Node4</title>
<path fill="none" stroke="midnightblue" d="M657.881,-168.912C658.764,-144.215 657.622,-92.2838 636,-56 628.306,-43.0879 615.391,-32.5221 603.699,-24.8812"/>
<polygon fill="midnightblue" stroke="midnightblue" points="605.459,-21.855 595.103,-19.6179 601.803,-27.8248 605.459,-21.855"/>
</g>
<!-- Node13 -->
<g id="node13" class="node"><title>Node13</title>
<g id="a_node13"><a xlink:href="a00100.html" target="_top" xlink:title="hpp/core/constraint.hh">
<polygon fill="white" stroke="black" points="437.5,-112.5 437.5,-131.5 550.5,-131.5 550.5,-112.5 437.5,-112.5"/>
<text text-anchor="middle" x="494" y="-119.5" font-family="Helvetica,sans-Serif" font-size="10.00">hpp/core/constraint.hh</text>
</a>
</g>
</g>
<!-- Node12&#45;&gt;Node13 -->
<g id="edge14" class="edge"><title>Node12&#45;&gt;Node13</title>
<path fill="none" stroke="midnightblue" d="M618.784,-168.933C590.915,-158.674 553.535,-144.915 526.972,-135.137"/>
<polygon fill="midnightblue" stroke="midnightblue" points="527.957,-131.77 517.363,-131.6 525.539,-138.339 527.957,-131.77"/>
</g>
<!-- Node13&#45;&gt;Node2 -->
<g id="edge17" class="edge"><title>Node13&#45;&gt;Node2</title>
<path fill="none" stroke="midnightblue" d="M450.109,-112.444C401.34,-102.936 322.592,-87.5847 270.316,-77.3937"/>
<polygon fill="midnightblue" stroke="midnightblue" points="270.715,-73.9057 260.23,-75.4275 269.376,-80.7764 270.715,-73.9057"/>
</g>
<!-- Node13&#45;&gt;Node11 -->
<g id="edge16" class="edge"><title>Node13&#45;&gt;Node11</title>
<path fill="none" stroke="midnightblue" d="M507.657,-112.324C520.916,-103.9 541.268,-90.9709 556.846,-81.0741"/>
<polygon fill="midnightblue" stroke="midnightblue" points="558.813,-83.9711 565.377,-75.6545 555.06,-78.0626 558.813,-83.9711"/>
</g>
<!-- Node14 -->
<g id="node14" class="node"><title>Node14</title>
<polygon fill="white" stroke="#bfbfbf" points="460,-56.5 460,-75.5 512,-75.5 512,-56.5 460,-56.5"/>
<text text-anchor="middle" x="486" y="-63.5" font-family="Helvetica,sans-Serif" font-size="10.00">ostream</text>
</g>
<!-- Node13&#45;&gt;Node14 -->
<g id="edge15" class="edge"><title>Node13&#45;&gt;Node14</title>
<path fill="none" stroke="midnightblue" d="M492.679,-112.083C491.619,-104.927 490.094,-94.6353 488.769,-85.6911"/>
<polygon fill="midnightblue" stroke="midnightblue" points="492.224,-85.1302 487.296,-75.7511 485.3,-86.1561 492.224,-85.1302"/>
</g>
<!-- Node17 -->
<g id="node17" class="node"><title>Node17</title>
<polygon fill="white" stroke="#bfbfbf" points="360.5,-112.5 360.5,-131.5 419.5,-131.5 419.5,-112.5 360.5,-112.5"/>
<text text-anchor="middle" x="390" y="-119.5" font-family="Helvetica,sans-Serif" font-size="10.00">exception</text>
</g>
<!-- Node16&#45;&gt;Node17 -->
<g id="edge20" class="edge"><title>Node16&#45;&gt;Node17</title>
<path fill="none" stroke="midnightblue" d="M474.975,-168.933C456.917,-159.171 432.994,-146.24 415.133,-136.586"/>
<polygon fill="midnightblue" stroke="midnightblue" points="416.371,-133.276 405.91,-131.6 413.043,-139.434 416.371,-133.276"/>
</g>
</g>
</svg>
