<?xml version="1.0" encoding="UTF-8" standalone="no"?>
<!DOCTYPE svg PUBLIC "-//W3C//DTD SVG 1.1//EN"
 "http://www.w3.org/Graphics/SVG/1.1/DTD/svg11.dtd">
<!-- Generated by graphviz version 2.36.0 (20140111.2315)
 -->
<!-- Title: path&#45;validation.hh Pages: 1 -->
<svg width="453pt" height="196pt"
 viewBox="0.00 0.00 453.00 196.00" xmlns="http://www.w3.org/2000/svg" xmlns:xlink="http://www.w3.org/1999/xlink">
<g id="graph0" class="graph" transform="scale(1 1) rotate(0) translate(4 192)">
<title>path&#45;validation.hh</title>
<polygon fill="white" stroke="none" points="-4,4 -4,-192 449,-192 449,4 -4,4"/>
<!-- Node1 -->
<g id="node1" class="node"><title>Node1</title>
<polygon fill="#bfbfbf" stroke="black" points="114.5,-168.5 114.5,-187.5 207.5,-187.5 207.5,-168.5 114.5,-168.5"/>
<text text-anchor="middle" x="161" y="-175.5" font-family="Helvetica,sans-Serif" font-size="10.00">path&#45;validation.hh</text>
</g>
<!-- Node2 -->
<g id="node2" class="node"><title>Node2</title>
<polygon fill="white" stroke="#bfbfbf" points="35.5,-112.5 35.5,-131.5 132.5,-131.5 132.5,-112.5 35.5,-112.5"/>
<text text-anchor="middle" x="84" y="-119.5" font-family="Helvetica,sans-Serif" font-size="10.00">hpp/core/config.hh</text>
</g>
<!-- Node1&#45;&gt;Node2 -->
<g id="edge1" class="edge"><title>Node1&#45;&gt;Node2</title>
<path fill="none" stroke="midnightblue" d="M148.629,-168.324C136.842,-160.058 118.868,-147.453 104.864,-137.632"/>
<polygon fill="midnightblue" stroke="midnightblue" points="106.538,-134.531 96.3407,-131.655 102.518,-140.262 106.538,-134.531"/>
</g>
<!-- Node3 -->
<g id="node3" class="node"><title>Node3</title>
<g id="a_node3"><a xlink:href="a00001.html" target="_top" xlink:title="hpp/core/fwd.hh">
<polygon fill="white" stroke="black" points="118,-56.5 118,-75.5 204,-75.5 204,-56.5 118,-56.5"/>
<text text-anchor="middle" x="161" y="-63.5" font-family="Helvetica,sans-Serif" font-size="10.00">hpp/core/fwd.hh</text>
</a>
</g>
</g>
<!-- Node1&#45;&gt;Node3 -->
<g id="edge2" class="edge"><title>Node1&#45;&gt;Node3</title>
<path fill="none" stroke="midnightblue" d="M161,-168.368C161,-150.617 161,-109.666 161,-85.5974"/>
<polygon fill="midnightblue" stroke="midnightblue" points="164.5,-85.5914 161,-75.5914 157.5,-85.5915 164.5,-85.5914"/>
</g>
<!-- Node10 -->
<g id="node10" class="node"><title>Node10</title>
<g id="a_node10"><a xlink:href="a00147.html" target="_top" xlink:title="hpp/core/relative&#45;motion.hh">
<polygon fill="white" stroke="black" points="189,-112.5 189,-131.5 323,-131.5 323,-112.5 189,-112.5"/>
<text text-anchor="middle" x="256" y="-119.5" font-family="Helvetica,sans-Serif" font-size="10.00">hpp/core/relative&#45;motion.hh</text>
</a>
</g>
</g>
<!-- Node1&#45;&gt;Node10 -->
<g id="edge9" class="edge"><title>Node1&#45;&gt;Node10</title>
<path fill="none" stroke="midnightblue" d="M176.263,-168.324C191.221,-159.822 214.255,-146.729 231.727,-136.797"/>
<polygon fill="midnightblue" stroke="midnightblue" points="233.81,-139.639 240.774,-131.655 230.351,-133.553 233.81,-139.639"/>
</g>
<!-- Node4 -->
<g id="node4" class="node"><title>Node4</title>
<polygon fill="white" stroke="#bfbfbf" points="-1,-0.5 -1,-19.5 43,-19.5 43,-0.5 -1,-0.5"/>
<text text-anchor="middle" x="21" y="-7.5" font-family="Helvetica,sans-Serif" font-size="10.00">vector</text>
</g>
<!-- Node3&#45;&gt;Node4 -->
<g id="edge3" class="edge"><title>Node3&#45;&gt;Node4</title>
<path fill="none" stroke="midnightblue" d="M138.817,-56.4435C115.572,-47.4776 78.8512,-33.314 52.5848,-23.1827"/>
<polygon fill="midnightblue" stroke="midnightblue" points="53.6692,-19.8497 43.0796,-19.5164 51.1501,-26.3807 53.6692,-19.8497"/>
</g>
<!-- Node5 -->
<g id="node5" class="node"><title>Node5</title>
<polygon fill="white" stroke="#bfbfbf" points="61.5,-0.5 61.5,-19.5 104.5,-19.5 104.5,-0.5 61.5,-0.5"/>
<text text-anchor="middle" x="83" y="-7.5" font-family="Helvetica,sans-Serif" font-size="10.00">deque</text>
</g>
<!-- Node3&#45;&gt;Node5 -->
<g id="edge4" class="edge"><title>Node3&#45;&gt;Node5</title>
<path fill="none" stroke="midnightblue" d="M148.468,-56.324C136.414,-47.979 117.973,-35.2122 103.731,-25.3524"/>
<polygon fill="midnightblue" stroke="midnightblue" points="105.715,-22.469 95.5009,-19.6545 101.731,-28.2243 105.715,-22.469"/>
</g>
<!-- Node6 -->
<g id="node6" class="node"><title>Node6</title>
<polygon fill="white" stroke="#bfbfbf" points="122.5,-0.5 122.5,-19.5 151.5,-19.5 151.5,-0.5 122.5,-0.5"/>
<text text-anchor="middle" x="137" y="-7.5" font-family="Helvetica,sans-Serif" font-size="10.00">list</text>
</g>
<!-- Node3&#45;&gt;Node6 -->
<g id="edge5" class="edge"><title>Node3&#45;&gt;Node6</title>
<path fill="none" stroke="midnightblue" d="M157.037,-56.083C153.787,-48.77 149.081,-38.1814 145.046,-29.1034"/>
<polygon fill="midnightblue" stroke="midnightblue" points="148.149,-27.4677 140.889,-19.7511 141.752,-30.3107 148.149,-27.4677"/>
</g>
<!-- Node7 -->
<g id="node7" class="node"><title>Node7</title>
<polygon fill="white" stroke="#bfbfbf" points="170,-0.5 170,-19.5 200,-19.5 200,-0.5 170,-0.5"/>
<text text-anchor="middle" x="185" y="-7.5" font-family="Helvetica,sans-Serif" font-size="10.00">set</text>
</g>
<!-- Node3&#45;&gt;Node7 -->
<g id="edge6" class="edge"><title>Node3&#45;&gt;Node7</title>
<path fill="none" stroke="midnightblue" d="M164.963,-56.083C168.213,-48.77 172.919,-38.1814 176.954,-29.1034"/>
<polygon fill="midnightblue" stroke="midnightblue" points="180.248,-30.3107 181.111,-19.7511 173.851,-27.4677 180.248,-30.3107"/>
</g>
<!-- Node8 -->
<g id="node8" class="node"><title>Node8</title>
<polygon fill="white" stroke="#bfbfbf" points="218,-0.5 218,-19.5 312,-19.5 312,-0.5 218,-0.5"/>
<text text-anchor="middle" x="265" y="-7.5" font-family="Helvetica,sans-Serif" font-size="10.00">hpp/util/pointer.hh</text>
</g>
<!-- Node3&#45;&gt;Node8 -->
<g id="edge7" class="edge"><title>Node3&#45;&gt;Node8</title>
<path fill="none" stroke="midnightblue" d="M177.709,-56.324C194.312,-47.7034 220.002,-34.3643 239.22,-24.3855"/>
<polygon fill="midnightblue" stroke="midnightblue" points="241.07,-27.3689 248.332,-19.6545 237.844,-21.1565 241.07,-27.3689"/>
</g>
<!-- Node9 -->
<g id="node9" class="node"><title>Node9</title>
<g id="a_node9"><a doxygen="https://jmirabel.github.io/hpp-doc/api/hpp-constraints/doxygen-html/hpp-constraints.doxytag:https://jmirabel.github.io/hpp-doc/api/hpp-constraints/doxygen-html/" xlink:href="https://jmirabel.github.io/hpp-doc/api/hpp-constraints/doxygen-html/a00001.html" target="_top" xlink:title="hpp/constraints/fwd.hh">
<polygon fill="white" stroke="black" points="330,-0.5 330,-19.5 446,-19.5 446,-0.5 330,-0.5"/>
<text text-anchor="middle" x="388" y="-7.5" font-family="Helvetica,sans-Serif" font-size="10.00">hpp/constraints/fwd.hh</text>
</a>
</g>
</g>
<!-- Node3&#45;&gt;Node9 -->
<g id="edge8" class="edge"><title>Node3&#45;&gt;Node9</title>
<path fill="none" stroke="midnightblue" d="M196.969,-56.4435C236.319,-47.0826 299.487,-32.0561 342.314,-21.868"/>
<polygon fill="midnightblue" stroke="midnightblue" points="343.281,-25.2358 352.199,-19.5164 341.661,-18.4258 343.281,-25.2358"/>
</g>
<!-- Node10&#45;&gt;Node3 -->
<g id="edge12" class="edge"><title>Node10&#45;&gt;Node3</title>
<path fill="none" stroke="midnightblue" d="M240.737,-112.324C225.779,-103.822 202.745,-90.7288 185.273,-80.7975"/>
<polygon fill="midnightblue" stroke="midnightblue" points="186.649,-77.5534 176.226,-75.6545 183.19,-83.639 186.649,-77.5534"/>
</g>
<!-- Node11 -->
<g id="node11" class="node"><title>Node11</title>
<polygon fill="white" stroke="#bfbfbf" points="222.5,-56.5 222.5,-75.5 287.5,-75.5 287.5,-56.5 222.5,-56.5"/>
<text text-anchor="middle" x="255" y="-63.5" font-family="Helvetica,sans-Serif" font-size="10.00">Eigen/Core</text>
</g>
<!-- Node10&#45;&gt;Node11 -->
<g id="edge10" class="edge"><title>Node10&#45;&gt;Node11</title>
<path fill="none" stroke="midnightblue" d="M255.835,-112.083C255.704,-105.006 255.516,-94.8611 255.352,-85.9865"/>
<polygon fill="midnightblue" stroke="midnightblue" points="258.847,-85.6845 255.162,-75.7511 251.848,-85.8142 258.847,-85.6845"/>
</g>
<!-- Node12 -->
<g id="node12" class="node"><title>Node12</title>
<g id="a_node12"><a doxygen="https://jmirabel.github.io/hpp-doc/api/hpp-model/doxygen-html/hpp-model.doxytag:https://jmirabel.github.io/hpp-doc/api/hpp-model/doxygen-html/" xlink:href="https://jmirabel.github.io/hpp-doc/api/hpp-model/doxygen-html/a00037.html" target="_top" xlink:title="hpp/model/fwd.hh">
<polygon fill="white" stroke="black" points="306,-56.5 306,-75.5 400,-75.5 400,-56.5 306,-56.5"/>
<text text-anchor="middle" x="353" y="-63.5" font-family="Helvetica,sans-Serif" font-size="10.00">hpp/model/fwd.hh</text>
</a>
</g>
</g>
<!-- Node10&#45;&gt;Node12 -->
<g id="edge11" class="edge"><title>Node10&#45;&gt;Node12</title>
<path fill="none" stroke="midnightblue" d="M271.585,-112.324C286.999,-103.743 310.812,-90.486 328.71,-80.5224"/>
<polygon fill="midnightblue" stroke="midnightblue" points="330.419,-83.5767 337.454,-75.6545 327.014,-77.4606 330.419,-83.5767"/>
</g>
</g>
</svg>
