<?xml version="1.0" encoding="UTF-8" standalone="no"?>
<!DOCTYPE svg PUBLIC "-//W3C//DTD SVG 1.1//EN"
 "http://www.w3.org/Graphics/SVG/1.1/DTD/svg11.dtd">
<!-- Generated by graphviz version 2.36.0 (20140111.2315)
 -->
<!-- Title: constraint&#45;set.hh Pages: 1 -->
<svg width="966pt" height="320pt"
 viewBox="0.00 0.00 966.00 320.00" xmlns="http://www.w3.org/2000/svg" xmlns:xlink="http://www.w3.org/1999/xlink">
<g id="graph0" class="graph" transform="scale(1 1) rotate(0) translate(4 316)">
<title>constraint&#45;set.hh</title>
<polygon fill="white" stroke="none" points="-4,4 -4,-316 962,-316 962,4 -4,4"/>
<!-- Node1 -->
<g id="node1" class="node"><title>Node1</title>
<polygon fill="#bfbfbf" stroke="black" points="495.5,-292.5 495.5,-311.5 584.5,-311.5 584.5,-292.5 495.5,-292.5"/>
<text text-anchor="middle" x="540" y="-299.5" font-family="Helvetica,sans-Serif" font-size="10.00">constraint&#45;set.hh</text>
</g>
<!-- Node2 -->
<g id="node2" class="node"><title>Node2</title>
<g id="a_node2"><a xlink:href="a00135.html" target="_top" xlink:title="path.hh">
<polygon fill="white" stroke="black" points="515.5,-236.5 515.5,-255.5 564.5,-255.5 564.5,-236.5 515.5,-236.5"/>
<text text-anchor="middle" x="540" y="-243.5" font-family="Helvetica,sans-Serif" font-size="10.00">path.hh</text>
</a>
</g>
</g>
<!-- Node1&#45;&gt;Node2 -->
<g id="edge1" class="edge"><title>Node1&#45;&gt;Node2</title>
<path fill="none" stroke="midnightblue" d="M540,-281.805C540,-272.91 540,-262.78 540,-255.751"/>
<polygon fill="midnightblue" stroke="midnightblue" points="536.5,-282.083 540,-292.083 543.5,-282.083 536.5,-282.083"/>
</g>
<!-- Node3 -->
<g id="node3" class="node"><title>Node3</title>
<g id="a_node3"><a xlink:href="a00117.html" target="_top" xlink:title="interpolated&#45;path.hh">
<polygon fill="white" stroke="black" points="378,-180.5 378,-199.5 480,-199.5 480,-180.5 378,-180.5"/>
<text text-anchor="middle" x="429" y="-187.5" font-family="Helvetica,sans-Serif" font-size="10.00">interpolated&#45;path.hh</text>
</a>
</g>
</g>
<!-- Node2&#45;&gt;Node3 -->
<g id="edge2" class="edge"><title>Node2&#45;&gt;Node3</title>
<path fill="none" stroke="midnightblue" d="M512.995,-231.862C492.412,-221.849 464.655,-208.346 446.79,-199.655"/>
<polygon fill="midnightblue" stroke="midnightblue" points="511.642,-235.097 522.166,-236.324 514.705,-228.802 511.642,-235.097"/>
</g>
<!-- Node6 -->
<g id="node6" class="node"><title>Node6</title>
<g id="a_node6"><a xlink:href="a00134.html" target="_top" xlink:title="path&#45;vector.hh">
<polygon fill="white" stroke="black" points="140.5,-180.5 140.5,-199.5 219.5,-199.5 219.5,-180.5 140.5,-180.5"/>
<text text-anchor="middle" x="180" y="-187.5" font-family="Helvetica,sans-Serif" font-size="10.00">path&#45;vector.hh</text>
</a>
</g>
</g>
<!-- Node2&#45;&gt;Node6 -->
<g id="edge5" class="edge"><title>Node2&#45;&gt;Node6</title>
<path fill="none" stroke="midnightblue" d="M505.179,-239.777C437.965,-229.695 290.729,-207.609 219.777,-196.967"/>
<polygon fill="midnightblue" stroke="midnightblue" points="504.847,-243.266 515.256,-241.288 505.886,-236.344 504.847,-243.266"/>
</g>
<!-- Node9 -->
<g id="node9" class="node"><title>Node9</title>
<g id="a_node9"><a xlink:href="a00127.html" target="_top" xlink:title="partial&#45;spline&#45;path.hh">
<polygon fill="white" stroke="black" points="167.5,-118.5 167.5,-137.5 274.5,-137.5 274.5,-118.5 167.5,-118.5"/>
<text text-anchor="middle" x="221" y="-125.5" font-family="Helvetica,sans-Serif" font-size="10.00">partial&#45;spline&#45;path.hh</text>
</a>
</g>
</g>
<!-- Node2&#45;&gt;Node9 -->
<g id="edge24" class="edge"><title>Node2&#45;&gt;Node9</title>
<path fill="none" stroke="midnightblue" d="M505.312,-237.905C470.34,-230.282 415.087,-216.944 369,-200 318.982,-181.611 263.067,-152.203 236.558,-137.686"/>
<polygon fill="midnightblue" stroke="midnightblue" points="504.971,-241.412 515.482,-240.085 506.438,-234.567 504.971,-241.412"/>
</g>
<!-- Node10 -->
<g id="node10" class="node"><title>Node10</title>
<g id="a_node10"><a xlink:href="a00151.html" target="_top" xlink:title="steering&#45;method.hh">
<polygon fill="white" stroke="black" points="600,-180.5 600,-199.5 700,-199.5 700,-180.5 600,-180.5"/>
<text text-anchor="middle" x="650" y="-187.5" font-family="Helvetica,sans-Serif" font-size="10.00">steering&#45;method.hh</text>
</a>
</g>
</g>
<!-- Node2&#45;&gt;Node10 -->
<g id="edge9" class="edge"><title>Node2&#45;&gt;Node10</title>
<path fill="none" stroke="midnightblue" d="M566.762,-231.862C587.159,-221.849 614.666,-208.346 632.37,-199.655"/>
<polygon fill="midnightblue" stroke="midnightblue" points="565.108,-228.775 557.673,-236.324 568.192,-235.059 565.108,-228.775"/>
</g>
<!-- Node15 -->
<g id="node15" class="node"><title>Node15</title>
<g id="a_node15"><a xlink:href="a00152.html" target="_top" xlink:title="straight&#45;path.hh">
<polygon fill="white" stroke="black" points="498,-180.5 498,-199.5 582,-199.5 582,-180.5 498,-180.5"/>
<text text-anchor="middle" x="540" y="-187.5" font-family="Helvetica,sans-Serif" font-size="10.00">straight&#45;path.hh</text>
</a>
</g>
</g>
<!-- Node2&#45;&gt;Node15 -->
<g id="edge17" class="edge"><title>Node2&#45;&gt;Node15</title>
<path fill="none" stroke="midnightblue" d="M540,-225.805C540,-216.91 540,-206.78 540,-199.751"/>
<polygon fill="midnightblue" stroke="midnightblue" points="536.5,-226.083 540,-236.083 543.5,-226.083 536.5,-226.083"/>
</g>
<!-- Node16 -->
<g id="node16" class="node"><title>Node16</title>
<g id="a_node16"><a xlink:href="a00131.html" target="_top" xlink:title="path&#45;projector.hh">
<polygon fill="white" stroke="black" points="700.5,-118.5 700.5,-137.5 789.5,-137.5 789.5,-118.5 700.5,-118.5"/>
<text text-anchor="middle" x="745" y="-125.5" font-family="Helvetica,sans-Serif" font-size="10.00">path&#45;projector.hh</text>
</a>
</g>
</g>
<!-- Node2&#45;&gt;Node16 -->
<g id="edge25" class="edge"><title>Node2&#45;&gt;Node16</title>
<path fill="none" stroke="midnightblue" d="M574.917,-243.877C611.955,-240.977 670.349,-231.312 709,-200 729.189,-183.645 739.14,-153.02 743.003,-137.905"/>
<polygon fill="midnightblue" stroke="midnightblue" points="574.362,-240.406 564.612,-244.553 574.82,-247.391 574.362,-240.406"/>
</g>
<!-- Node20 -->
<g id="node20" class="node"><title>Node20</title>
<g id="a_node20"><a xlink:href="a00145.html" target="_top" xlink:title="reeds&#45;shepp&#45;path.hh">
<polygon fill="white" stroke="black" points="784.5,-180.5 784.5,-199.5 889.5,-199.5 889.5,-180.5 784.5,-180.5"/>
<text text-anchor="middle" x="837" y="-187.5" font-family="Helvetica,sans-Serif" font-size="10.00">reeds&#45;shepp&#45;path.hh</text>
</a>
</g>
</g>
<!-- Node2&#45;&gt;Node20 -->
<g id="edge26" class="edge"><title>Node2&#45;&gt;Node20</title>
<path fill="none" stroke="midnightblue" d="M574.529,-238.722C627.794,-229.037 730.103,-210.436 790.046,-199.537"/>
<polygon fill="midnightblue" stroke="midnightblue" points="573.77,-235.303 564.557,-240.535 575.022,-242.19 573.77,-235.303"/>
</g>
<!-- Node4 -->
<g id="node4" class="node"><title>Node4</title>
<g id="a_node4"><a xlink:href="a00118.html" target="_top" xlink:title="interpolated&#45;steering\l&#45;method.hh">
<polygon fill="white" stroke="black" points="419,-113 419,-143 523,-143 523,-113 419,-113"/>
<text text-anchor="start" x="427" y="-131" font-family="Helvetica,sans-Serif" font-size="10.00">interpolated&#45;steering</text>
<text text-anchor="middle" x="471" y="-120" font-family="Helvetica,sans-Serif" font-size="10.00">&#45;method.hh</text>
</a>
</g>
</g>
<!-- Node3&#45;&gt;Node4 -->
<g id="edge3" class="edge"><title>Node3&#45;&gt;Node4</title>
<path fill="none" stroke="midnightblue" d="M440.826,-172.106C447.221,-162.97 455.03,-151.814 461.101,-143.141"/>
<polygon fill="midnightblue" stroke="midnightblue" points="437.885,-170.204 435.018,-180.403 443.62,-174.218 437.885,-170.204"/>
</g>
<!-- Node5 -->
<g id="node5" class="node"><title>Node5</title>
<g id="a_node5"><a xlink:href="a00088.html" target="_top" xlink:title="body&#45;pair&#45;collision.hh">
<polygon fill="white" stroke="black" points="293,-118.5 293,-137.5 401,-137.5 401,-118.5 293,-118.5"/>
<text text-anchor="middle" x="347" y="-125.5" font-family="Helvetica,sans-Serif" font-size="10.00">body&#45;pair&#45;collision.hh</text>
</a>
</g>
</g>
<!-- Node3&#45;&gt;Node5 -->
<g id="edge4" class="edge"><title>Node3&#45;&gt;Node5</title>
<path fill="none" stroke="midnightblue" d="M409.172,-174.492C393.401,-162.952 371.87,-147.198 358.727,-137.581"/>
<polygon fill="midnightblue" stroke="midnightblue" points="407.114,-177.323 417.251,-180.403 411.248,-171.674 407.114,-177.323"/>
</g>
<!-- Node7 -->
<g id="node7" class="node"><title>Node7</title>
<g id="a_node7"><a xlink:href="a00093.html" target="_top" xlink:title="config&#45;optimization.hh">
<polygon fill="white" stroke="black" points="-1,-118.5 -1,-137.5 111,-137.5 111,-118.5 -1,-118.5"/>
<text text-anchor="middle" x="55" y="-125.5" font-family="Helvetica,sans-Serif" font-size="10.00">config&#45;optimization.hh</text>
</a>
</g>
</g>
<!-- Node6&#45;&gt;Node7 -->
<g id="edge6" class="edge"><title>Node6&#45;&gt;Node7</title>
<path fill="none" stroke="midnightblue" d="M153.055,-176.066C128.8,-164.424 93.8393,-147.643 72.8762,-137.581"/>
<polygon fill="midnightblue" stroke="midnightblue" points="151.561,-179.231 162.091,-180.403 154.59,-172.921 151.561,-179.231"/>
</g>
<!-- Node8 -->
<g id="node8" class="node"><title>Node8</title>
<g id="a_node8"><a xlink:href="a00116.html" target="_top" xlink:title="gradient&#45;based.hh">
<polygon fill="white" stroke="black" points="279,-0.5 279,-19.5 373,-19.5 373,-0.5 279,-0.5"/>
<text text-anchor="middle" x="326" y="-7.5" font-family="Helvetica,sans-Serif" font-size="10.00">gradient&#45;based.hh</text>
</a>
</g>
</g>
<!-- Node6&#45;&gt;Node8 -->
<g id="edge7" class="edge"><title>Node6&#45;&gt;Node8</title>
<path fill="none" stroke="midnightblue" d="M168.242,-171.91C158.655,-155.666 148.304,-130.968 159,-112 188.041,-60.4975 255.085,-32.2793 294.829,-19.5323"/>
<polygon fill="midnightblue" stroke="midnightblue" points="165.315,-173.83 173.634,-180.391 171.222,-170.074 165.315,-173.83"/>
</g>
<!-- Node6&#45;&gt;Node9 -->
<g id="edge8" class="edge"><title>Node6&#45;&gt;Node9</title>
<path fill="none" stroke="midnightblue" d="M191.711,-171.862C199.371,-160.652 209.052,-146.485 215.137,-137.581"/>
<polygon fill="midnightblue" stroke="midnightblue" points="188.626,-170.172 185.874,-180.403 194.406,-174.122 188.626,-170.172"/>
</g>
<!-- Node10&#45;&gt;Node4 -->
<g id="edge15" class="edge"><title>Node10&#45;&gt;Node4</title>
<path fill="none" stroke="midnightblue" d="M614.558,-177.12C585.303,-167.314 543.728,-153.378 512.842,-143.025"/>
<polygon fill="midnightblue" stroke="midnightblue" points="613.76,-180.544 624.354,-180.403 615.985,-173.907 613.76,-180.544"/>
</g>
<!-- Node11 -->
<g id="node11" class="node"><title>Node11</title>
<g id="a_node11"><a xlink:href="a00140.html" target="_top" xlink:title="problem.hh">
<polygon fill="white" stroke="black" points="617.5,-118.5 617.5,-137.5 682.5,-137.5 682.5,-118.5 617.5,-118.5"/>
<text text-anchor="middle" x="650" y="-125.5" font-family="Helvetica,sans-Serif" font-size="10.00">problem.hh</text>
</a>
</g>
</g>
<!-- Node10&#45;&gt;Node11 -->
<g id="edge10" class="edge"><title>Node10&#45;&gt;Node11</title>
<path fill="none" stroke="midnightblue" d="M650,-170.16C650,-159.248 650,-146.04 650,-137.581"/>
<polygon fill="midnightblue" stroke="midnightblue" points="646.5,-170.403 650,-180.403 653.5,-170.403 646.5,-170.403"/>
</g>
<!-- Node12 -->
<g id="node12" class="node"><title>Node12</title>
<g id="a_node12"><a xlink:href="a00150.html" target="_top" xlink:title="steering&#45;method&#45;straight.hh">
<polygon fill="white" stroke="black" points="445.5,-56.5 445.5,-75.5 580.5,-75.5 580.5,-56.5 445.5,-56.5"/>
<text text-anchor="middle" x="513" y="-63.5" font-family="Helvetica,sans-Serif" font-size="10.00">steering&#45;method&#45;straight.hh</text>
</a>
</g>
</g>
<!-- Node10&#45;&gt;Node12 -->
<g id="edge14" class="edge"><title>Node10&#45;&gt;Node12</title>
<path fill="none" stroke="midnightblue" d="M632.386,-173.315C603.181,-147.307 545.68,-96.1023 522.763,-75.6944"/>
<polygon fill="midnightblue" stroke="midnightblue" points="630.352,-176.189 640.147,-180.226 635.007,-170.962 630.352,-176.189"/>
</g>
<!-- Node14 -->
<g id="node14" class="node"><title>Node14</title>
<g id="a_node14"><a xlink:href="a00146.html" target="_top" xlink:title="reeds&#45;shepp.hh">
<polygon fill="white" stroke="black" points="807.5,-118.5 807.5,-137.5 890.5,-137.5 890.5,-118.5 807.5,-118.5"/>
<text text-anchor="middle" x="849" y="-125.5" font-family="Helvetica,sans-Serif" font-size="10.00">reeds&#45;shepp.hh</text>
</a>
</g>
</g>
<!-- Node10&#45;&gt;Node14 -->
<g id="edge16" class="edge"><title>Node10&#45;&gt;Node14</title>
<path fill="none" stroke="midnightblue" d="M688.367,-177.432C727.042,-165.771 785.839,-148.044 820.541,-137.581"/>
<polygon fill="midnightblue" stroke="midnightblue" points="687.076,-174.166 678.512,-180.403 689.097,-180.868 687.076,-174.166"/>
</g>
<!-- Node11&#45;&gt;Node12 -->
<g id="edge11" class="edge"><title>Node11&#45;&gt;Node12</title>
<path fill="none" stroke="midnightblue" d="M621.171,-114.374C594.564,-102.721 555.771,-85.7319 532.592,-75.5806"/>
<polygon fill="midnightblue" stroke="midnightblue" points="619.807,-117.598 630.371,-118.403 622.615,-111.186 619.807,-117.598"/>
</g>
<!-- Node13 -->
<g id="node13" class="node"><title>Node13</title>
<g id="a_node13"><a xlink:href="a00138.html" target="_top" xlink:title="problem&#45;solver.hh">
<polygon fill="white" stroke="black" points="599,-56.5 599,-75.5 693,-75.5 693,-56.5 599,-56.5"/>
<text text-anchor="middle" x="646" y="-63.5" font-family="Helvetica,sans-Serif" font-size="10.00">problem&#45;solver.hh</text>
</a>
</g>
</g>
<!-- Node11&#45;&gt;Node13 -->
<g id="edge13" class="edge"><title>Node11&#45;&gt;Node13</title>
<path fill="none" stroke="midnightblue" d="M648.744,-108.16C648.017,-97.2482 647.136,-84.04 646.572,-75.5806"/>
<polygon fill="midnightblue" stroke="midnightblue" points="645.269,-108.658 649.427,-118.403 652.254,-108.193 645.269,-108.658"/>
</g>
<!-- Node12&#45;&gt;Node8 -->
<g id="edge12" class="edge"><title>Node12&#45;&gt;Node8</title>
<path fill="none" stroke="midnightblue" d="M473.41,-53.5677C438.134,-43.381 387.306,-28.7034 355.492,-19.5164"/>
<polygon fill="midnightblue" stroke="midnightblue" points="472.791,-57.0317 483.369,-56.4435 474.733,-50.3065 472.791,-57.0317"/>
</g>
<!-- Node15&#45;&gt;Node5 -->
<g id="edge23" class="edge"><title>Node15&#45;&gt;Node5</title>
<path fill="none" stroke="midnightblue" d="M502.79,-177.432C465.28,-165.771 408.257,-148.044 374.601,-137.581"/>
<polygon fill="midnightblue" stroke="midnightblue" points="501.76,-180.777 512.348,-180.403 503.838,-174.093 501.76,-180.777"/>
</g>
<!-- Node15&#45;&gt;Node12 -->
<g id="edge18" class="edge"><title>Node15&#45;&gt;Node12</title>
<path fill="none" stroke="midnightblue" d="M539.597,-170.267C538.893,-154.505 537.006,-131.483 532,-112 528.623,-98.8584 522.045,-84.5657 517.587,-75.6942"/>
<polygon fill="midnightblue" stroke="midnightblue" points="536.1,-170.429 539.928,-180.308 543.097,-170.198 536.1,-170.429"/>
</g>
<!-- Node15&#45;&gt;Node16 -->
<g id="edge19" class="edge"><title>Node15&#45;&gt;Node16</title>
<path fill="none" stroke="midnightblue" d="M579.016,-177.581C618.849,-165.922 679.782,-148.088 715.683,-137.581"/>
<polygon fill="midnightblue" stroke="midnightblue" points="577.986,-174.235 569.372,-180.403 579.952,-180.953 577.986,-174.235"/>
</g>
<!-- Node17 -->
<g id="node17" class="node"><title>Node17</title>
<g id="a_node17"><a xlink:href="a00104.html" target="_top" xlink:title="dichotomy.hh">
<polygon fill="white" stroke="black" points="711.5,-56.5 711.5,-75.5 786.5,-75.5 786.5,-56.5 711.5,-56.5"/>
<text text-anchor="middle" x="749" y="-63.5" font-family="Helvetica,sans-Serif" font-size="10.00">dichotomy.hh</text>
</a>
</g>
</g>
<!-- Node16&#45;&gt;Node17 -->
<g id="edge20" class="edge"><title>Node16&#45;&gt;Node17</title>
<path fill="none" stroke="midnightblue" d="M746.256,-108.16C746.983,-97.2482 747.864,-84.04 748.428,-75.5806"/>
<polygon fill="midnightblue" stroke="midnightblue" points="742.746,-108.193 745.573,-118.403 749.731,-108.658 742.746,-108.193"/>
</g>
<!-- Node18 -->
<g id="node18" class="node"><title>Node18</title>
<g id="a_node18"><a xlink:href="a00114.html" target="_top" xlink:title="global.hh">
<polygon fill="white" stroke="black" points="804,-56.5 804,-75.5 860,-75.5 860,-56.5 804,-56.5"/>
<text text-anchor="middle" x="832" y="-63.5" font-family="Helvetica,sans-Serif" font-size="10.00">global.hh</text>
</a>
</g>
</g>
<!-- Node16&#45;&gt;Node18 -->
<g id="edge21" class="edge"><title>Node16&#45;&gt;Node18</title>
<path fill="none" stroke="midnightblue" d="M766.037,-112.492C782.77,-100.952 805.613,-85.1976 819.558,-75.5806"/>
<polygon fill="midnightblue" stroke="midnightblue" points="763.71,-109.845 757.465,-118.403 767.684,-115.607 763.71,-109.845"/>
</g>
<!-- Node19 -->
<g id="node19" class="node"><title>Node19</title>
<g id="a_node19"><a xlink:href="a00142.html" target="_top" xlink:title="progressive.hh">
<polygon fill="white" stroke="black" points="878,-56.5 878,-75.5 958,-75.5 958,-56.5 878,-56.5"/>
<text text-anchor="middle" x="918" y="-63.5" font-family="Helvetica,sans-Serif" font-size="10.00">progressive.hh</text>
</a>
</g>
</g>
<!-- Node16&#45;&gt;Node19 -->
<g id="edge22" class="edge"><title>Node16&#45;&gt;Node19</title>
<path fill="none" stroke="midnightblue" d="M779.65,-114.983C813.278,-103.32 863.476,-85.91 893.259,-75.5806"/>
<polygon fill="midnightblue" stroke="midnightblue" points="778.088,-111.82 769.787,-118.403 780.381,-118.433 778.088,-111.82"/>
</g>
<!-- Node20&#45;&gt;Node14 -->
<g id="edge27" class="edge"><title>Node20&#45;&gt;Node14</title>
<path fill="none" stroke="midnightblue" d="M840.699,-170.503C842.895,-159.527 845.574,-146.129 847.284,-137.581"/>
<polygon fill="midnightblue" stroke="midnightblue" points="837.249,-169.911 838.719,-180.403 844.113,-171.284 837.249,-169.911"/>
</g>
</g>
</svg>
