<?xml version="1.0" encoding="UTF-8" standalone="no"?>
<!DOCTYPE svg PUBLIC "-//W3C//DTD SVG 1.1//EN"
 "http://www.w3.org/Graphics/SVG/1.1/DTD/svg11.dtd">
<!-- Generated by graphviz version 2.36.0 (20140111.2315)
 -->
<!-- Title: discretized&#45;collision&#45;checking.hh Pages: 1 -->
<svg width="484pt" height="344pt"
 viewBox="0.00 0.00 484.00 344.00" xmlns="http://www.w3.org/2000/svg" xmlns:xlink="http://www.w3.org/1999/xlink">
<g id="graph0" class="graph" transform="scale(1 1) rotate(0) translate(4 340)">
<title>discretized&#45;collision&#45;checking.hh</title>
<polygon fill="white" stroke="none" points="-4,4 -4,-340 480,-340 480,4 -4,4"/>
<!-- Node1 -->
<g id="node1" class="node"><title>Node1</title>
<polygon fill="#bfbfbf" stroke="black" points="74,-305 74,-335 176,-335 176,-305 74,-305"/>
<text text-anchor="start" x="82" y="-323" font-family="Helvetica,sans-Serif" font-size="10.00">discretized&#45;collision</text>
<text text-anchor="middle" x="125" y="-312" font-family="Helvetica,sans-Serif" font-size="10.00">&#45;checking.hh</text>
</g>
<!-- Node2 -->
<g id="node2" class="node"><title>Node2</title>
<g id="a_node2"><a xlink:href="a00132.html" target="_top" xlink:title="hpp/core/path&#45;validation\l&#45;report.hh">
<polygon fill="white" stroke="black" points="-1,-237 -1,-267 119,-267 119,-237 -1,-237"/>
<text text-anchor="start" x="7" y="-255" font-family="Helvetica,sans-Serif" font-size="10.00">hpp/core/path&#45;validation</text>
<text text-anchor="middle" x="59" y="-244" font-family="Helvetica,sans-Serif" font-size="10.00">&#45;report.hh</text>
</a>
</g>
</g>
<!-- Node1&#45;&gt;Node2 -->
<g id="edge1" class="edge"><title>Node1&#45;&gt;Node2</title>
<path fill="none" stroke="midnightblue" d="M110.679,-304.679C101.857,-295.857 90.3801,-284.38 80.4831,-274.483"/>
<polygon fill="midnightblue" stroke="midnightblue" points="82.839,-271.889 73.2931,-267.293 77.8893,-276.839 82.839,-271.889"/>
</g>
<!-- Node12 -->
<g id="node12" class="node"><title>Node12</title>
<g id="a_node12"><a xlink:href="a00107.html" target="_top" xlink:title="hpp/core/discretized\l&#45;path&#45;validation.hh">
<polygon fill="white" stroke="black" points="139,-237 139,-267 243,-267 243,-237 139,-237"/>
<text text-anchor="start" x="147" y="-255" font-family="Helvetica,sans-Serif" font-size="10.00">hpp/core/discretized</text>
<text text-anchor="middle" x="191" y="-244" font-family="Helvetica,sans-Serif" font-size="10.00">&#45;path&#45;validation.hh</text>
</a>
</g>
</g>
<!-- Node1&#45;&gt;Node12 -->
<g id="edge11" class="edge"><title>Node1&#45;&gt;Node12</title>
<path fill="none" stroke="midnightblue" d="M139.321,-304.679C148.143,-295.857 159.62,-284.38 169.517,-274.483"/>
<polygon fill="midnightblue" stroke="midnightblue" points="172.111,-276.839 176.707,-267.293 167.161,-271.889 172.111,-276.839"/>
</g>
<!-- Node3 -->
<g id="node3" class="node"><title>Node3</title>
<g id="a_node3"><a xlink:href="a00154.html" target="_top" xlink:title="hpp/core/validation\l&#45;report.hh">
<polygon fill="white" stroke="black" points="9,-169 9,-199 107,-199 107,-169 9,-169"/>
<text text-anchor="start" x="17" y="-187" font-family="Helvetica,sans-Serif" font-size="10.00">hpp/core/validation</text>
<text text-anchor="middle" x="58" y="-176" font-family="Helvetica,sans-Serif" font-size="10.00">&#45;report.hh</text>
</a>
</g>
</g>
<!-- Node2&#45;&gt;Node3 -->
<g id="edge2" class="edge"><title>Node2&#45;&gt;Node3</title>
<path fill="none" stroke="midnightblue" d="M58.783,-236.679C58.6625,-228.722 58.5092,-218.605 58.3702,-209.436"/>
<polygon fill="midnightblue" stroke="midnightblue" points="61.8678,-209.239 58.2166,-199.293 54.8686,-209.345 61.8678,-209.239"/>
</g>
<!-- Node4 -->
<g id="node4" class="node"><title>Node4</title>
<polygon fill="white" stroke="#bfbfbf" points="66.5,-112.5 66.5,-131.5 163.5,-131.5 163.5,-112.5 66.5,-112.5"/>
<text text-anchor="middle" x="115" y="-119.5" font-family="Helvetica,sans-Serif" font-size="10.00">hpp/core/config.hh</text>
</g>
<!-- Node3&#45;&gt;Node4 -->
<g id="edge3" class="edge"><title>Node3&#45;&gt;Node4</title>
<path fill="none" stroke="midnightblue" d="M71.5082,-168.781C79.9618,-159.882 90.8754,-148.394 99.6552,-139.152"/>
<polygon fill="midnightblue" stroke="midnightblue" points="102.356,-141.391 106.706,-131.731 97.281,-136.57 102.356,-141.391"/>
</g>
<!-- Node5 -->
<g id="node5" class="node"><title>Node5</title>
<g id="a_node5"><a xlink:href="a00001.html" target="_top" xlink:title="hpp/core/fwd.hh">
<polygon fill="white" stroke="black" points="149,-56.5 149,-75.5 235,-75.5 235,-56.5 149,-56.5"/>
<text text-anchor="middle" x="192" y="-63.5" font-family="Helvetica,sans-Serif" font-size="10.00">hpp/core/fwd.hh</text>
</a>
</g>
</g>
<!-- Node3&#45;&gt;Node5 -->
<g id="edge4" class="edge"><title>Node3&#45;&gt;Node5</title>
<path fill="none" stroke="midnightblue" d="M53.499,-168.723C49.5585,-153.234 46.1263,-128.513 58,-112 76.3267,-86.513 109.795,-75.2611 138.698,-70.3819"/>
<polygon fill="midnightblue" stroke="midnightblue" points="139.315,-73.8288 148.699,-68.9089 138.295,-66.9036 139.315,-73.8288"/>
</g>
<!-- Node6 -->
<g id="node6" class="node"><title>Node6</title>
<polygon fill="white" stroke="#bfbfbf" points="30,-0.5 30,-19.5 74,-19.5 74,-0.5 30,-0.5"/>
<text text-anchor="middle" x="52" y="-7.5" font-family="Helvetica,sans-Serif" font-size="10.00">vector</text>
</g>
<!-- Node5&#45;&gt;Node6 -->
<g id="edge5" class="edge"><title>Node5&#45;&gt;Node6</title>
<path fill="none" stroke="midnightblue" d="M169.817,-56.4435C146.572,-47.4776 109.851,-33.314 83.5848,-23.1827"/>
<polygon fill="midnightblue" stroke="midnightblue" points="84.6692,-19.8497 74.0796,-19.5164 82.1501,-26.3807 84.6692,-19.8497"/>
</g>
<!-- Node7 -->
<g id="node7" class="node"><title>Node7</title>
<polygon fill="white" stroke="#bfbfbf" points="92.5,-0.5 92.5,-19.5 135.5,-19.5 135.5,-0.5 92.5,-0.5"/>
<text text-anchor="middle" x="114" y="-7.5" font-family="Helvetica,sans-Serif" font-size="10.00">deque</text>
</g>
<!-- Node5&#45;&gt;Node7 -->
<g id="edge6" class="edge"><title>Node5&#45;&gt;Node7</title>
<path fill="none" stroke="midnightblue" d="M179.468,-56.324C167.414,-47.979 148.973,-35.2122 134.731,-25.3524"/>
<polygon fill="midnightblue" stroke="midnightblue" points="136.715,-22.469 126.501,-19.6545 132.731,-28.2243 136.715,-22.469"/>
</g>
<!-- Node8 -->
<g id="node8" class="node"><title>Node8</title>
<polygon fill="white" stroke="#bfbfbf" points="153.5,-0.5 153.5,-19.5 182.5,-19.5 182.5,-0.5 153.5,-0.5"/>
<text text-anchor="middle" x="168" y="-7.5" font-family="Helvetica,sans-Serif" font-size="10.00">list</text>
</g>
<!-- Node5&#45;&gt;Node8 -->
<g id="edge7" class="edge"><title>Node5&#45;&gt;Node8</title>
<path fill="none" stroke="midnightblue" d="M188.037,-56.083C184.787,-48.77 180.081,-38.1814 176.046,-29.1034"/>
<polygon fill="midnightblue" stroke="midnightblue" points="179.149,-27.4677 171.889,-19.7511 172.752,-30.3107 179.149,-27.4677"/>
</g>
<!-- Node9 -->
<g id="node9" class="node"><title>Node9</title>
<polygon fill="white" stroke="#bfbfbf" points="201,-0.5 201,-19.5 231,-19.5 231,-0.5 201,-0.5"/>
<text text-anchor="middle" x="216" y="-7.5" font-family="Helvetica,sans-Serif" font-size="10.00">set</text>
</g>
<!-- Node5&#45;&gt;Node9 -->
<g id="edge8" class="edge"><title>Node5&#45;&gt;Node9</title>
<path fill="none" stroke="midnightblue" d="M195.963,-56.083C199.213,-48.77 203.919,-38.1814 207.954,-29.1034"/>
<polygon fill="midnightblue" stroke="midnightblue" points="211.248,-30.3107 212.111,-19.7511 204.851,-27.4677 211.248,-30.3107"/>
</g>
<!-- Node10 -->
<g id="node10" class="node"><title>Node10</title>
<polygon fill="white" stroke="#bfbfbf" points="249,-0.5 249,-19.5 343,-19.5 343,-0.5 249,-0.5"/>
<text text-anchor="middle" x="296" y="-7.5" font-family="Helvetica,sans-Serif" font-size="10.00">hpp/util/pointer.hh</text>
</g>
<!-- Node5&#45;&gt;Node10 -->
<g id="edge9" class="edge"><title>Node5&#45;&gt;Node10</title>
<path fill="none" stroke="midnightblue" d="M208.709,-56.324C225.312,-47.7034 251.002,-34.3643 270.22,-24.3855"/>
<polygon fill="midnightblue" stroke="midnightblue" points="272.07,-27.3689 279.332,-19.6545 268.844,-21.1565 272.07,-27.3689"/>
</g>
<!-- Node11 -->
<g id="node11" class="node"><title>Node11</title>
<g id="a_node11"><a doxygen="https://jmirabel.github.io/hpp-doc/api/hpp-constraints/doxygen-html/hpp-constraints.doxytag:https://jmirabel.github.io/hpp-doc/api/hpp-constraints/doxygen-html/" xlink:href="https://jmirabel.github.io/hpp-doc/api/hpp-constraints/doxygen-html/a00001.html" target="_top" xlink:title="hpp/constraints/fwd.hh">
<polygon fill="white" stroke="black" points="361,-0.5 361,-19.5 477,-19.5 477,-0.5 361,-0.5"/>
<text text-anchor="middle" x="419" y="-7.5" font-family="Helvetica,sans-Serif" font-size="10.00">hpp/constraints/fwd.hh</text>
</a>
</g>
</g>
<!-- Node5&#45;&gt;Node11 -->
<g id="edge10" class="edge"><title>Node5&#45;&gt;Node11</title>
<path fill="none" stroke="midnightblue" d="M227.969,-56.4435C267.319,-47.0826 330.487,-32.0561 373.314,-21.868"/>
<polygon fill="midnightblue" stroke="midnightblue" points="374.281,-25.2358 383.199,-19.5164 372.661,-18.4258 374.281,-25.2358"/>
</g>
<!-- Node13 -->
<g id="node13" class="node"><title>Node13</title>
<g id="a_node13"><a xlink:href="a00133.html" target="_top" xlink:title="hpp/core/path&#45;validation.hh">
<polygon fill="white" stroke="black" points="125,-174.5 125,-193.5 259,-193.5 259,-174.5 125,-174.5"/>
<text text-anchor="middle" x="192" y="-181.5" font-family="Helvetica,sans-Serif" font-size="10.00">hpp/core/path&#45;validation.hh</text>
</a>
</g>
</g>
<!-- Node12&#45;&gt;Node13 -->
<g id="edge12" class="edge"><title>Node12&#45;&gt;Node13</title>
<path fill="none" stroke="midnightblue" d="M191.217,-236.679C191.362,-227.101 191.555,-214.394 191.712,-203.977"/>
<polygon fill="midnightblue" stroke="midnightblue" points="195.214,-203.88 191.866,-193.828 188.215,-203.774 195.214,-203.88"/>
</g>
<!-- Node13&#45;&gt;Node4 -->
<g id="edge13" class="edge"><title>Node13&#45;&gt;Node4</title>
<path fill="none" stroke="midnightblue" d="M180.968,-174.403C168.732,-164.869 148.771,-149.315 134.007,-137.811"/>
<polygon fill="midnightblue" stroke="midnightblue" points="136.051,-134.966 126.012,-131.581 131.748,-140.488 136.051,-134.966"/>
</g>
<!-- Node13&#45;&gt;Node5 -->
<g id="edge14" class="edge"><title>Node13&#45;&gt;Node5</title>
<path fill="none" stroke="midnightblue" d="M192,-174.281C192,-155.547 192,-111.098 192,-85.6822"/>
<polygon fill="midnightblue" stroke="midnightblue" points="195.5,-85.5047 192,-75.5048 188.5,-85.5048 195.5,-85.5047"/>
</g>
<!-- Node14 -->
<g id="node14" class="node"><title>Node14</title>
<g id="a_node14"><a xlink:href="a00147.html" target="_top" xlink:title="hpp/core/relative&#45;motion.hh">
<polygon fill="white" stroke="black" points="220,-112.5 220,-131.5 354,-131.5 354,-112.5 220,-112.5"/>
<text text-anchor="middle" x="287" y="-119.5" font-family="Helvetica,sans-Serif" font-size="10.00">hpp/core/relative&#45;motion.hh</text>
</a>
</g>
</g>
<!-- Node13&#45;&gt;Node14 -->
<g id="edge15" class="edge"><title>Node13&#45;&gt;Node14</title>
<path fill="none" stroke="midnightblue" d="M205.611,-174.403C221.061,-164.646 246.49,-148.585 264.816,-137.011"/>
<polygon fill="midnightblue" stroke="midnightblue" points="266.828,-139.88 273.414,-131.581 263.09,-133.961 266.828,-139.88"/>
</g>
<!-- Node14&#45;&gt;Node5 -->
<g id="edge18" class="edge"><title>Node14&#45;&gt;Node5</title>
<path fill="none" stroke="midnightblue" d="M271.737,-112.324C256.779,-103.822 233.745,-90.7288 216.273,-80.7975"/>
<polygon fill="midnightblue" stroke="midnightblue" points="217.649,-77.5534 207.226,-75.6545 214.19,-83.639 217.649,-77.5534"/>
</g>
<!-- Node15 -->
<g id="node15" class="node"><title>Node15</title>
<polygon fill="white" stroke="#bfbfbf" points="253.5,-56.5 253.5,-75.5 318.5,-75.5 318.5,-56.5 253.5,-56.5"/>
<text text-anchor="middle" x="286" y="-63.5" font-family="Helvetica,sans-Serif" font-size="10.00">Eigen/Core</text>
</g>
<!-- Node14&#45;&gt;Node15 -->
<g id="edge16" class="edge"><title>Node14&#45;&gt;Node15</title>
<path fill="none" stroke="midnightblue" d="M286.835,-112.083C286.704,-105.006 286.516,-94.8611 286.352,-85.9865"/>
<polygon fill="midnightblue" stroke="midnightblue" points="289.847,-85.6845 286.162,-75.7511 282.848,-85.8142 289.847,-85.6845"/>
</g>
<!-- Node16 -->
<g id="node16" class="node"><title>Node16</title>
<g id="a_node16"><a doxygen="https://jmirabel.github.io/hpp-doc/api/hpp-model/doxygen-html/hpp-model.doxytag:https://jmirabel.github.io/hpp-doc/api/hpp-model/doxygen-html/" xlink:href="https://jmirabel.github.io/hpp-doc/api/hpp-model/doxygen-html/a00037.html" target="_top" xlink:title="hpp/model/fwd.hh">
<polygon fill="white" stroke="black" points="337,-56.5 337,-75.5 431,-75.5 431,-56.5 337,-56.5"/>
<text text-anchor="middle" x="384" y="-63.5" font-family="Helvetica,sans-Serif" font-size="10.00">hpp/model/fwd.hh</text>
</a>
</g>
</g>
<!-- Node14&#45;&gt;Node16 -->
<g id="edge17" class="edge"><title>Node14&#45;&gt;Node16</title>
<path fill="none" stroke="midnightblue" d="M302.585,-112.324C317.999,-103.743 341.812,-90.486 359.71,-80.5224"/>
<polygon fill="midnightblue" stroke="midnightblue" points="361.419,-83.5767 368.454,-75.6545 358.014,-77.4606 361.419,-83.5767"/>
</g>
</g>
</svg>
