<?xml version="1.0" encoding="UTF-8" standalone="no"?>
<!DOCTYPE svg PUBLIC "-//W3C//DTD SVG 1.1//EN"
 "http://www.w3.org/Graphics/SVG/1.1/DTD/svg11.dtd">
<!-- Generated by graphviz version 2.36.0 (20140111.2315)
 -->
<!-- Title: straight&#45;path.hh Pages: 1 -->
<svg width="404pt" height="140pt"
 viewBox="0.00 0.00 404.00 140.00" xmlns="http://www.w3.org/2000/svg" xmlns:xlink="http://www.w3.org/1999/xlink">
<g id="graph0" class="graph" transform="scale(1 1) rotate(0) translate(4 136)">
<title>straight&#45;path.hh</title>
<polygon fill="white" stroke="none" points="-4,4 -4,-136 400,-136 400,4 -4,4"/>
<!-- Node1 -->
<g id="node1" class="node"><title>Node1</title>
<polygon fill="#bfbfbf" stroke="black" points="183,-112.5 183,-131.5 267,-131.5 267,-112.5 183,-112.5"/>
<text text-anchor="middle" x="225" y="-119.5" font-family="Helvetica,sans-Serif" font-size="10.00">straight&#45;path.hh</text>
</g>
<!-- Node2 -->
<g id="node2" class="node"><title>Node2</title>
<g id="a_node2"><a xlink:href="a00150.html" target="_top" xlink:title="steering&#45;method&#45;straight.hh">
<polygon fill="white" stroke="black" points="-0.5,-56.5 -0.5,-75.5 134.5,-75.5 134.5,-56.5 -0.5,-56.5"/>
<text text-anchor="middle" x="67" y="-63.5" font-family="Helvetica,sans-Serif" font-size="10.00">steering&#45;method&#45;straight.hh</text>
</a>
</g>
</g>
<!-- Node1&#45;&gt;Node2 -->
<g id="edge1" class="edge"><title>Node1&#45;&gt;Node2</title>
<path fill="none" stroke="midnightblue" d="M190.392,-109.172C160.641,-99.0039 118.453,-84.5852 91.9184,-75.5164"/>
<polygon fill="midnightblue" stroke="midnightblue" points="189.37,-112.521 199.964,-112.444 191.634,-105.898 189.37,-112.521"/>
</g>
<!-- Node4 -->
<g id="node4" class="node"><title>Node4</title>
<g id="a_node4"><a xlink:href="a00131.html" target="_top" xlink:title="path&#45;projector.hh">
<polygon fill="white" stroke="black" points="180.5,-56.5 180.5,-75.5 269.5,-75.5 269.5,-56.5 180.5,-56.5"/>
<text text-anchor="middle" x="225" y="-63.5" font-family="Helvetica,sans-Serif" font-size="10.00">path&#45;projector.hh</text>
</a>
</g>
</g>
<!-- Node1&#45;&gt;Node4 -->
<g id="edge3" class="edge"><title>Node1&#45;&gt;Node4</title>
<path fill="none" stroke="midnightblue" d="M225,-101.805C225,-92.9102 225,-82.7798 225,-75.7511"/>
<polygon fill="midnightblue" stroke="midnightblue" points="221.5,-102.083 225,-112.083 228.5,-102.083 221.5,-102.083"/>
</g>
<!-- Node8 -->
<g id="node8" class="node"><title>Node8</title>
<g id="a_node8"><a xlink:href="a00088.html" target="_top" xlink:title="body&#45;pair&#45;collision.hh">
<polygon fill="white" stroke="black" points="288,-56.5 288,-75.5 396,-75.5 396,-56.5 288,-56.5"/>
<text text-anchor="middle" x="342" y="-63.5" font-family="Helvetica,sans-Serif" font-size="10.00">body&#45;pair&#45;collision.hh</text>
</a>
</g>
</g>
<!-- Node1&#45;&gt;Node8 -->
<g id="edge7" class="edge"><title>Node1&#45;&gt;Node8</title>
<path fill="none" stroke="midnightblue" d="M252.664,-108.232C274.549,-98.1312 304.497,-84.3091 323.548,-75.5164"/>
<polygon fill="midnightblue" stroke="midnightblue" points="251.152,-105.075 243.539,-112.444 254.085,-111.431 251.152,-105.075"/>
</g>
<!-- Node3 -->
<g id="node3" class="node"><title>Node3</title>
<g id="a_node3"><a xlink:href="a00116.html" target="_top" xlink:title="gradient&#45;based.hh">
<polygon fill="white" stroke="black" points="6,-0.5 6,-19.5 100,-19.5 100,-0.5 6,-0.5"/>
<text text-anchor="middle" x="53" y="-7.5" font-family="Helvetica,sans-Serif" font-size="10.00">gradient&#45;based.hh</text>
</a>
</g>
</g>
<!-- Node2&#45;&gt;Node3 -->
<g id="edge2" class="edge"><title>Node2&#45;&gt;Node3</title>
<path fill="none" stroke="midnightblue" d="M62.1766,-46.3956C59.8346,-37.362 57.1316,-26.936 55.2688,-19.7511"/>
<polygon fill="midnightblue" stroke="midnightblue" points="58.7905,-47.2814 64.6882,-56.083 65.5665,-45.5246 58.7905,-47.2814"/>
</g>
<!-- Node5 -->
<g id="node5" class="node"><title>Node5</title>
<g id="a_node5"><a xlink:href="a00104.html" target="_top" xlink:title="dichotomy.hh">
<polygon fill="white" stroke="black" points="118.5,-0.5 118.5,-19.5 193.5,-19.5 193.5,-0.5 118.5,-0.5"/>
<text text-anchor="middle" x="156" y="-7.5" font-family="Helvetica,sans-Serif" font-size="10.00">dichotomy.hh</text>
</a>
</g>
</g>
<!-- Node4&#45;&gt;Node5 -->
<g id="edge4" class="edge"><title>Node4&#45;&gt;Node5</title>
<path fill="none" stroke="midnightblue" d="M205.962,-50.1008C193.544,-40.3824 177.757,-28.0269 167.288,-19.8339"/>
<polygon fill="midnightblue" stroke="midnightblue" points="203.882,-52.9171 213.914,-56.324 208.196,-47.4046 203.882,-52.9171"/>
</g>
<!-- Node6 -->
<g id="node6" class="node"><title>Node6</title>
<g id="a_node6"><a xlink:href="a00114.html" target="_top" xlink:title="global.hh">
<polygon fill="white" stroke="black" points="211,-0.5 211,-19.5 267,-19.5 267,-0.5 211,-0.5"/>
<text text-anchor="middle" x="239" y="-7.5" font-family="Helvetica,sans-Serif" font-size="10.00">global.hh</text>
</a>
</g>
</g>
<!-- Node4&#45;&gt;Node6 -->
<g id="edge5" class="edge"><title>Node4&#45;&gt;Node6</title>
<path fill="none" stroke="midnightblue" d="M229.823,-46.3956C232.165,-37.362 234.868,-26.936 236.731,-19.7511"/>
<polygon fill="midnightblue" stroke="midnightblue" points="226.434,-45.5246 227.312,-56.083 233.21,-47.2814 226.434,-45.5246"/>
</g>
<!-- Node7 -->
<g id="node7" class="node"><title>Node7</title>
<g id="a_node7"><a xlink:href="a00142.html" target="_top" xlink:title="progressive.hh">
<polygon fill="white" stroke="black" points="285,-0.5 285,-19.5 365,-19.5 365,-0.5 285,-0.5"/>
<text text-anchor="middle" x="325" y="-7.5" font-family="Helvetica,sans-Serif" font-size="10.00">progressive.hh</text>
</a>
</g>
</g>
<!-- Node4&#45;&gt;Node7 -->
<g id="edge6" class="edge"><title>Node4&#45;&gt;Node7</title>
<path fill="none" stroke="midnightblue" d="M250.088,-51.4526C268.549,-41.4835 293.097,-28.2279 308.973,-19.6545"/>
<polygon fill="midnightblue" stroke="midnightblue" points="248.203,-48.4928 241.067,-56.324 251.529,-54.6521 248.203,-48.4928"/>
</g>
</g>
</svg>
