<?xml version="1.0" encoding="UTF-8" standalone="no"?>
<!DOCTYPE svg PUBLIC "-//W3C//DTD SVG 1.1//EN"
 "http://www.w3.org/Graphics/SVG/1.1/DTD/svg11.dtd">
<!-- Generated by graphviz version 2.36.0 (20140111.2315)
 -->
<!-- Title: hpp::core::CollisionPathValidationReport Pages: 1 -->
<svg width="142pt" height="164pt"
 viewBox="0.00 0.00 142.00 164.00" xmlns="http://www.w3.org/2000/svg" xmlns:xlink="http://www.w3.org/1999/xlink">
<g id="graph0" class="graph" transform="scale(1 1) rotate(0) translate(4 160)">
<title>hpp::core::CollisionPathValidationReport</title>
<polygon fill="white" stroke="none" points="-4,4 -4,-160 138,-160 138,4 -4,4"/>
<!-- Node1 -->
<g id="node1" class="node"><title>Node1</title>
<polygon fill="#bfbfbf" stroke="black" points="6.5,-1 6.5,-31 127.5,-31 127.5,-1 6.5,-1"/>
<text text-anchor="start" x="14.5" y="-19" font-family="Helvetica,sans-Serif" font-size="10.00">hpp::core::CollisionPath</text>
<text text-anchor="middle" x="67" y="-8" font-family="Helvetica,sans-Serif" font-size="10.00">ValidationReport</text>
</g>
<!-- Node2 -->
<g id="node2" class="node"><title>Node2</title>
<g id="a_node2"><a xlink:href="a00063.html" target="_top" xlink:title="Abstraction of path validation report. ">
<polygon fill="white" stroke="black" points="4,-69 4,-99 130,-99 130,-69 4,-69"/>
<text text-anchor="start" x="12" y="-87" font-family="Helvetica,sans-Serif" font-size="10.00">hpp::core::PathValidation</text>
<text text-anchor="middle" x="67" y="-76" font-family="Helvetica,sans-Serif" font-size="10.00">Report</text>
</a>
</g>
</g>
<!-- Node2&#45;&gt;Node1 -->
<g id="edge1" class="edge"><title>Node2&#45;&gt;Node1</title>
<path fill="none" stroke="midnightblue" d="M67,-58.5322C67,-49.3606 67,-39.2449 67,-31.2931"/>
<polygon fill="midnightblue" stroke="midnightblue" points="63.5001,-58.6789 67,-68.679 70.5001,-58.679 63.5001,-58.6789"/>
</g>
<!-- Node3 -->
<g id="node3" class="node"><title>Node3</title>
<g id="a_node3"><a xlink:href="a00084.html" target="_top" xlink:title="Abstraction of validation report for paths and configurations. ">
<polygon fill="white" stroke="black" points="-0.5,-136.5 -0.5,-155.5 134.5,-155.5 134.5,-136.5 -0.5,-136.5"/>
<text text-anchor="middle" x="67" y="-143.5" font-family="Helvetica,sans-Serif" font-size="10.00">hpp::core::ValidationReport</text>
</a>
</g>
</g>
<!-- Node3&#45;&gt;Node2 -->
<g id="edge2" class="edge"><title>Node3&#45;&gt;Node2</title>
<path fill="none" stroke="midnightblue" d="M67,-126.371C67,-117.585 67,-107.272 67,-99.1408"/>
<polygon fill="midnightblue" stroke="midnightblue" points="63.5001,-126.403 67,-136.403 70.5001,-126.403 63.5001,-126.403"/>
</g>
</g>
</svg>
