<?xml version="1.0" encoding="UTF-8" standalone="no"?>
<!DOCTYPE svg PUBLIC "-//W3C//DTD SVG 1.1//EN"
 "http://www.w3.org/Graphics/SVG/1.1/DTD/svg11.dtd">
<!-- Generated by graphviz version 2.36.0 (20140111.2315)
 -->
<!-- Title: relative&#45;motion.hh Pages: 1 -->
<svg width="735pt" height="208pt"
 viewBox="0.00 0.00 735.00 208.00" xmlns="http://www.w3.org/2000/svg" xmlns:xlink="http://www.w3.org/1999/xlink">
<g id="graph0" class="graph" transform="scale(1 1) rotate(0) translate(4 204)">
<title>relative&#45;motion.hh</title>
<polygon fill="white" stroke="none" points="-4,4 -4,-204 731,-204 731,4 -4,4"/>
<!-- Node1 -->
<g id="node1" class="node"><title>Node1</title>
<polygon fill="#bfbfbf" stroke="black" points="348,-180.5 348,-199.5 442,-199.5 442,-180.5 348,-180.5"/>
<text text-anchor="middle" x="395" y="-187.5" font-family="Helvetica,sans-Serif" font-size="10.00">relative&#45;motion.hh</text>
</g>
<!-- Node2 -->
<g id="node2" class="node"><title>Node2</title>
<g id="a_node2"><a xlink:href="a00095.html" target="_top" xlink:title="config&#45;validation.hh">
<polygon fill="white" stroke="black" points="196.5,-124.5 196.5,-143.5 297.5,-143.5 297.5,-124.5 196.5,-124.5"/>
<text text-anchor="middle" x="247" y="-131.5" font-family="Helvetica,sans-Serif" font-size="10.00">config&#45;validation.hh</text>
</a>
</g>
</g>
<!-- Node1&#45;&gt;Node2 -->
<g id="edge1" class="edge"><title>Node1&#45;&gt;Node2</title>
<path fill="none" stroke="midnightblue" d="M361.853,-176.906C334.028,-166.754 294.98,-152.506 270.341,-143.516"/>
<polygon fill="midnightblue" stroke="midnightblue" points="360.955,-180.304 371.549,-180.444 363.354,-173.728 360.955,-180.304"/>
</g>
<!-- Node6 -->
<g id="node6" class="node"><title>Node6</title>
<g id="a_node6"><a xlink:href="a00133.html" target="_top" xlink:title="path&#45;validation.hh">
<polygon fill="white" stroke="black" points="431.5,-124.5 431.5,-143.5 524.5,-143.5 524.5,-124.5 431.5,-124.5"/>
<text text-anchor="middle" x="478" y="-131.5" font-family="Helvetica,sans-Serif" font-size="10.00">path&#45;validation.hh</text>
</a>
</g>
</g>
<!-- Node1&#45;&gt;Node6 -->
<g id="edge5" class="edge"><title>Node1&#45;&gt;Node6</title>
<path fill="none" stroke="midnightblue" d="M417.099,-174.622C432.262,-164.757 451.883,-151.992 464.698,-143.655"/>
<polygon fill="midnightblue" stroke="midnightblue" points="414.809,-171.937 408.335,-180.324 418.626,-177.804 414.809,-171.937"/>
</g>
<!-- Node3 -->
<g id="node3" class="node"><title>Node3</title>
<g id="a_node3"><a xlink:href="a00091.html" target="_top" xlink:title="collision&#45;validation.hh">
<polygon fill="white" stroke="black" points="0,-68.5 0,-87.5 110,-87.5 110,-68.5 0,-68.5"/>
<text text-anchor="middle" x="55" y="-75.5" font-family="Helvetica,sans-Serif" font-size="10.00">collision&#45;validation.hh</text>
</a>
</g>
</g>
<!-- Node2&#45;&gt;Node3 -->
<g id="edge2" class="edge"><title>Node2&#45;&gt;Node3</title>
<path fill="none" stroke="midnightblue" d="M206.817,-121.699C170.581,-111.507 118.086,-96.7429 85.2806,-87.5164"/>
<polygon fill="midnightblue" stroke="midnightblue" points="206.003,-125.105 216.577,-124.444 207.898,-118.367 206.003,-125.105"/>
</g>
<!-- Node4 -->
<g id="node4" class="node"><title>Node4</title>
<g id="a_node4"><a xlink:href="a00096.html" target="_top" xlink:title="config&#45;validations.hh">
<polygon fill="white" stroke="black" points="128,-68.5 128,-87.5 234,-87.5 234,-68.5 128,-68.5"/>
<text text-anchor="middle" x="181" y="-75.5" font-family="Helvetica,sans-Serif" font-size="10.00">config&#45;validations.hh</text>
</a>
</g>
</g>
<!-- Node2&#45;&gt;Node4 -->
<g id="edge3" class="edge"><title>Node2&#45;&gt;Node4</title>
<path fill="none" stroke="midnightblue" d="M228.446,-117.82C216.622,-108.145 201.714,-95.9481 191.797,-87.8339"/>
<polygon fill="midnightblue" stroke="midnightblue" points="226.44,-120.7 236.396,-124.324 230.873,-115.283 226.44,-120.7"/>
</g>
<!-- Node5 -->
<g id="node5" class="node"><title>Node5</title>
<g id="a_node5"><a xlink:href="a00119.html" target="_top" xlink:title="joint&#45;bound&#45;validation.hh">
<polygon fill="white" stroke="black" points="252,-68.5 252,-87.5 374,-87.5 374,-68.5 252,-68.5"/>
<text text-anchor="middle" x="313" y="-75.5" font-family="Helvetica,sans-Serif" font-size="10.00">joint&#45;bound&#45;validation.hh</text>
</a>
</g>
</g>
<!-- Node2&#45;&gt;Node5 -->
<g id="edge4" class="edge"><title>Node2&#45;&gt;Node5</title>
<path fill="none" stroke="midnightblue" d="M265.554,-117.82C277.378,-108.145 292.286,-95.9481 302.203,-87.8339"/>
<polygon fill="midnightblue" stroke="midnightblue" points="263.127,-115.283 257.604,-124.324 267.56,-120.7 263.127,-115.283"/>
</g>
<!-- Node7 -->
<g id="node7" class="node"><title>Node7</title>
<g id="a_node7"><a xlink:href="a00103.html" target="_top" xlink:title="dichotomy.hh">
<polygon fill="white" stroke="black" points="392.5,-68.5 392.5,-87.5 467.5,-87.5 467.5,-68.5 392.5,-68.5"/>
<text text-anchor="middle" x="430" y="-75.5" font-family="Helvetica,sans-Serif" font-size="10.00">dichotomy.hh</text>
</a>
</g>
</g>
<!-- Node6&#45;&gt;Node7 -->
<g id="edge6" class="edge"><title>Node6&#45;&gt;Node7</title>
<path fill="none" stroke="midnightblue" d="M463.272,-116.431C454.86,-106.967 444.651,-95.4827 437.779,-87.7511"/>
<polygon fill="midnightblue" stroke="midnightblue" points="460.814,-118.934 470.074,-124.083 466.046,-114.284 460.814,-118.934"/>
</g>
<!-- Node8 -->
<g id="node8" class="node"><title>Node8</title>
<g id="a_node8"><a xlink:href="a00141.html" target="_top" xlink:title="progressive.hh">
<polygon fill="white" stroke="black" points="486,-68.5 486,-87.5 566,-87.5 566,-68.5 486,-68.5"/>
<text text-anchor="middle" x="526" y="-75.5" font-family="Helvetica,sans-Serif" font-size="10.00">progressive.hh</text>
</a>
</g>
</g>
<!-- Node6&#45;&gt;Node8 -->
<g id="edge7" class="edge"><title>Node6&#45;&gt;Node8</title>
<path fill="none" stroke="midnightblue" d="M492.728,-116.431C501.14,-106.967 511.349,-95.4827 518.221,-87.7511"/>
<polygon fill="midnightblue" stroke="midnightblue" points="489.954,-114.284 485.926,-124.083 495.186,-118.934 489.954,-114.284"/>
</g>
<!-- Node9 -->
<g id="node9" class="node"><title>Node9</title>
<g id="a_node9"><a xlink:href="a00107.html" target="_top" xlink:title="discretized&#45;path&#45;validation.hh">
<polygon fill="white" stroke="black" points="584.5,-68.5 584.5,-87.5 727.5,-87.5 727.5,-68.5 584.5,-68.5"/>
<text text-anchor="middle" x="656" y="-75.5" font-family="Helvetica,sans-Serif" font-size="10.00">discretized&#45;path&#45;validation.hh</text>
</a>
</g>
</g>
<!-- Node6&#45;&gt;Node9 -->
<g id="edge8" class="edge"><title>Node6&#45;&gt;Node9</title>
<path fill="none" stroke="midnightblue" d="M516.117,-121.436C549.678,-111.255 597.774,-96.664 627.927,-87.5164"/>
<polygon fill="midnightblue" stroke="midnightblue" points="514.758,-118.191 506.205,-124.444 516.79,-124.89 514.758,-118.191"/>
</g>
<!-- Node10 -->
<g id="node10" class="node"><title>Node10</title>
<g id="a_node10"><a xlink:href="a00106.html" target="_top" xlink:title="discretized&#45;collision\l&#45;checking.hh">
<polygon fill="white" stroke="black" points="605,-1 605,-31 707,-31 707,-1 605,-1"/>
<text text-anchor="start" x="613" y="-19" font-family="Helvetica,sans-Serif" font-size="10.00">discretized&#45;collision</text>
<text text-anchor="middle" x="656" y="-8" font-family="Helvetica,sans-Serif" font-size="10.00">&#45;checking.hh</text>
</a>
</g>
</g>
<!-- Node9&#45;&gt;Node10 -->
<g id="edge9" class="edge"><title>Node9&#45;&gt;Node10</title>
<path fill="none" stroke="midnightblue" d="M656,-58.3707C656,-49.5849 656,-39.2721 656,-31.1408"/>
<polygon fill="midnightblue" stroke="midnightblue" points="652.5,-58.4034 656,-68.4035 659.5,-58.4035 652.5,-58.4034"/>
</g>
</g>
</svg>
