<?xml version="1.0" encoding="UTF-8" standalone="no"?>
<!DOCTYPE svg PUBLIC "-//W3C//DTD SVG 1.1//EN"
 "http://www.w3.org/Graphics/SVG/1.1/DTD/svg11.dtd">
<!-- Generated by graphviz version 2.36.0 (20140111.2315)
 -->
<!-- Title: explicit&#45;relative&#45;transformation.hh Pages: 1 -->
<svg width="533pt" height="412pt"
 viewBox="0.00 0.00 532.89 412.00" xmlns="http://www.w3.org/2000/svg" xmlns:xlink="http://www.w3.org/1999/xlink">
<g id="graph0" class="graph" transform="scale(1 1) rotate(0) translate(4 408)">
<title>explicit&#45;relative&#45;transformation.hh</title>
<polygon fill="white" stroke="none" points="-4,4 -4,-408 528.887,-408 528.887,4 -4,4"/>
<!-- Node1 -->
<g id="node1" class="node"><title>Node1</title>
<polygon fill="#bfbfbf" stroke="black" points="92.3867,-384.5 92.3867,-403.5 253.387,-403.5 253.387,-384.5 92.3867,-384.5"/>
<text text-anchor="middle" x="172.887" y="-391.5" font-family="Helvetica,sans-Serif" font-size="10.00">explicit&#45;relative&#45;transformation.hh</text>
</g>
<!-- Node2 -->
<g id="node2" class="node"><title>Node2</title>
<polygon fill="white" stroke="#bfbfbf" points="21.3867,-322.5 21.3867,-341.5 144.387,-341.5 144.387,-322.5 21.3867,-322.5"/>
<text text-anchor="middle" x="82.8867" y="-329.5" font-family="Helvetica,sans-Serif" font-size="10.00">hpp/fcl/math/transform.h</text>
</g>
<!-- Node1&#45;&gt;Node2 -->
<g id="edge1" class="edge"><title>Node1&#45;&gt;Node2</title>
<path fill="none" stroke="midnightblue" d="M159.992,-384.403C145.423,-374.691 121.485,-358.732 104.141,-347.17"/>
<polygon fill="midnightblue" stroke="midnightblue" points="106.02,-344.215 95.7576,-341.581 102.137,-350.04 106.02,-344.215"/>
</g>
<!-- Node3 -->
<g id="node3" class="node"><title>Node3</title>
<g id="a_node3"><a doxygen="https://jmirabel.github.io/hpp-doc/api/hpp-constraints/doxygen-html/hpp-constraints.doxytag:https://jmirabel.github.io/hpp-doc/api/hpp-constraints/doxygen-html/" xlink:href="https://jmirabel.github.io/hpp-doc/api/hpp-constraints/doxygen-html/a00059.html" target="_top" xlink:title="hpp/constraints/relative\l&#45;transformation.hh">
<polygon fill="white" stroke="black" points="80.8867,-249 80.8867,-279 198.887,-279 198.887,-249 80.8867,-249"/>
<text text-anchor="start" x="88.8867" y="-267" font-family="Helvetica,sans-Serif" font-size="10.00">hpp/constraints/relative</text>
<text text-anchor="middle" x="139.887" y="-256" font-family="Helvetica,sans-Serif" font-size="10.00">&#45;transformation.hh</text>
</a>
</g>
</g>
<!-- Node1&#45;&gt;Node3 -->
<g id="edge2" class="edge"><title>Node1&#45;&gt;Node3</title>
<path fill="none" stroke="midnightblue" d="M170.619,-384.202C165.612,-364.785 153.474,-317.701 146.038,-288.859"/>
<polygon fill="midnightblue" stroke="midnightblue" points="149.419,-287.953 143.533,-279.143 142.64,-289.7 149.419,-287.953"/>
</g>
<!-- Node14 -->
<g id="node14" class="node"><title>Node14</title>
<g id="a_node14"><a xlink:href="a00112.html" target="_top" xlink:title="hpp/core/explicit&#45;numerical\l&#45;constraint.hh">
<polygon fill="white" stroke="black" points="233.387,-317 233.387,-347 366.387,-347 366.387,-317 233.387,-317"/>
<text text-anchor="start" x="241.387" y="-335" font-family="Helvetica,sans-Serif" font-size="10.00">hpp/core/explicit&#45;numerical</text>
<text text-anchor="middle" x="299.887" y="-324" font-family="Helvetica,sans-Serif" font-size="10.00">&#45;constraint.hh</text>
</a>
</g>
</g>
<!-- Node1&#45;&gt;Node14 -->
<g id="edge20" class="edge"><title>Node1&#45;&gt;Node14</title>
<path fill="none" stroke="midnightblue" d="M191.083,-384.403C209.167,-375.86 237.481,-362.483 260.692,-351.517"/>
<polygon fill="midnightblue" stroke="midnightblue" points="262.409,-354.577 269.955,-347.141 259.419,-348.248 262.409,-354.577"/>
</g>
<!-- Node4 -->
<g id="node4" class="node"><title>Node4</title>
<g id="a_node4"><a doxygen="https://jmirabel.github.io/hpp-doc/api/hpp-constraints/doxygen-html/hpp-constraints.doxytag:https://jmirabel.github.io/hpp-doc/api/hpp-constraints/doxygen-html/" xlink:href="https://jmirabel.github.io/hpp-doc/api/hpp-constraints/doxygen-html/a00047.html" target="_top" xlink:title="hpp/constraints/differentiable\l&#45;function.hh">
<polygon fill="white" stroke="black" points="29.8867,-113 29.8867,-143 171.887,-143 171.887,-113 29.8867,-113"/>
<text text-anchor="start" x="37.8867" y="-131" font-family="Helvetica,sans-Serif" font-size="10.00">hpp/constraints/differentiable</text>
<text text-anchor="middle" x="100.887" y="-120" font-family="Helvetica,sans-Serif" font-size="10.00">&#45;function.hh</text>
</a>
</g>
</g>
<!-- Node3&#45;&gt;Node4 -->
<g id="edge3" class="edge"><title>Node3&#45;&gt;Node4</title>
<path fill="none" stroke="midnightblue" d="M80.6282,-251.542C58.6595,-244.111 35.9381,-231.927 22.8867,-212 15.0942,-200.103 16.12,-192.509 22.8867,-180 30.2046,-166.472 42.8433,-155.958 55.842,-148.086"/>
<polygon fill="midnightblue" stroke="midnightblue" points="57.8195,-150.99 64.8377,-143.053 54.4017,-144.881 57.8195,-150.99"/>
</g>
<!-- Node5 -->
<g id="node5" class="node"><title>Node5</title>
<g id="a_node5"><a xlink:href="a00001.html" target="_top" xlink:title="hpp/constraints/fwd.hh">
<polygon fill="white" stroke="black" points="255.887,-56.5 255.887,-75.5 371.887,-75.5 371.887,-56.5 255.887,-56.5"/>
<text text-anchor="middle" x="313.887" y="-63.5" font-family="Helvetica,sans-Serif" font-size="10.00">hpp/constraints/fwd.hh</text>
</a>
</g>
</g>
<!-- Node3&#45;&gt;Node5 -->
<g id="edge18" class="edge"><title>Node3&#45;&gt;Node5</title>
<path fill="none" stroke="midnightblue" d="M199.27,-258.581C232.404,-252.877 271.58,-240.147 294.887,-212 324.895,-175.76 321.413,-116.001 317.203,-85.7663"/>
<polygon fill="midnightblue" stroke="midnightblue" points="320.637,-85.0683 315.623,-75.735 313.722,-86.158 320.637,-85.0683"/>
</g>
<!-- Node11 -->
<g id="node11" class="node"><title>Node11</title>
<g id="a_node11"><a doxygen="https://jmirabel.github.io/hpp-doc/api/hpp-constraints/doxygen-html/hpp-constraints.doxytag:https://jmirabel.github.io/hpp-doc/api/hpp-constraints/doxygen-html/" xlink:href="https://jmirabel.github.io/hpp-doc/api/hpp-constraints/doxygen-html/a00001.html" target="_top" xlink:title="hpp/constraints/fwd.hh">
<polygon fill="white" stroke="black" points="42.8867,-0.5 42.8867,-19.5 158.887,-19.5 158.887,-0.5 42.8867,-0.5"/>
<text text-anchor="middle" x="100.887" y="-7.5" font-family="Helvetica,sans-Serif" font-size="10.00">hpp/constraints/fwd.hh</text>
</a>
</g>
</g>
<!-- Node3&#45;&gt;Node11 -->
<g id="edge19" class="edge"><title>Node3&#45;&gt;Node11</title>
<path fill="none" stroke="midnightblue" d="M80.6734,-254.23C55.3725,-247.227 28.19,-234.636 12.8867,-212 -29.7583,-148.92 47.8385,-61.8077 83.9073,-26.6476"/>
<polygon fill="midnightblue" stroke="midnightblue" points="86.4838,-29.027 91.3084,-19.5944 81.6546,-23.9596 86.4838,-29.027"/>
</g>
<!-- Node12 -->
<g id="node12" class="node"><title>Node12</title>
<g id="a_node12"><a doxygen="https://jmirabel.github.io/hpp-doc/api/hpp-constraints/doxygen-html/hpp-constraints.doxytag:https://jmirabel.github.io/hpp-doc/api/hpp-constraints/doxygen-html/" xlink:href="https://jmirabel.github.io/hpp-doc/api/hpp-constraints/doxygen-html/a00057.html" target="_top" xlink:title="hpp/constraints/relative\l&#45;orientation.hh">
<polygon fill="white" stroke="black" points="31.8867,-181 31.8867,-211 149.887,-211 149.887,-181 31.8867,-181"/>
<text text-anchor="start" x="39.8867" y="-199" font-family="Helvetica,sans-Serif" font-size="10.00">hpp/constraints/relative</text>
<text text-anchor="middle" x="90.8867" y="-188" font-family="Helvetica,sans-Serif" font-size="10.00">&#45;orientation.hh</text>
</a>
</g>
</g>
<!-- Node3&#45;&gt;Node12 -->
<g id="edge12" class="edge"><title>Node3&#45;&gt;Node12</title>
<path fill="none" stroke="midnightblue" d="M129.254,-248.679C122.898,-240.117 114.684,-229.053 107.488,-219.36"/>
<polygon fill="midnightblue" stroke="midnightblue" points="110.269,-217.236 101.498,-211.293 104.649,-221.409 110.269,-217.236"/>
</g>
<!-- Node13 -->
<g id="node13" class="node"><title>Node13</title>
<g id="a_node13"><a doxygen="https://jmirabel.github.io/hpp-doc/api/hpp-constraints/doxygen-html/hpp-constraints.doxytag:https://jmirabel.github.io/hpp-doc/api/hpp-constraints/doxygen-html/" xlink:href="https://jmirabel.github.io/hpp-doc/api/hpp-constraints/doxygen-html/a00058.html" target="_top" xlink:title="hpp/constraints/relative\l&#45;position.hh">
<polygon fill="white" stroke="black" points="167.887,-181 167.887,-211 285.887,-211 285.887,-181 167.887,-181"/>
<text text-anchor="start" x="175.887" y="-199" font-family="Helvetica,sans-Serif" font-size="10.00">hpp/constraints/relative</text>
<text text-anchor="middle" x="226.887" y="-188" font-family="Helvetica,sans-Serif" font-size="10.00">&#45;position.hh</text>
</a>
</g>
</g>
<!-- Node3&#45;&gt;Node13 -->
<g id="edge14" class="edge"><title>Node3&#45;&gt;Node13</title>
<path fill="none" stroke="midnightblue" d="M158.764,-248.679C170.932,-239.449 186.932,-227.311 200.367,-217.118"/>
<polygon fill="midnightblue" stroke="midnightblue" points="202.493,-219.899 208.345,-211.066 198.262,-214.322 202.493,-219.899"/>
</g>
<!-- Node4&#45;&gt;Node5 -->
<g id="edge4" class="edge"><title>Node4&#45;&gt;Node5</title>
<path fill="none" stroke="midnightblue" d="M150.826,-112.933C188.317,-102.372 238.982,-88.0998 273.836,-78.282"/>
<polygon fill="midnightblue" stroke="midnightblue" points="274.99,-81.593 283.667,-75.5127 273.092,-74.8553 274.99,-81.593"/>
</g>
<!-- Node4&#45;&gt;Node11 -->
<g id="edge11" class="edge"><title>Node4&#45;&gt;Node11</title>
<path fill="none" stroke="midnightblue" d="M100.887,-112.776C100.887,-91.9707 100.887,-53.1981 100.887,-29.9809"/>
<polygon fill="midnightblue" stroke="midnightblue" points="104.387,-29.7069 100.887,-19.707 97.3868,-29.707 104.387,-29.7069"/>
</g>
<!-- Node6 -->
<g id="node6" class="node"><title>Node6</title>
<polygon fill="white" stroke="#bfbfbf" points="336.887,-0.5 336.887,-19.5 380.887,-19.5 380.887,-0.5 336.887,-0.5"/>
<text text-anchor="middle" x="358.887" y="-7.5" font-family="Helvetica,sans-Serif" font-size="10.00">vector</text>
</g>
<!-- Node5&#45;&gt;Node6 -->
<g id="edge5" class="edge"><title>Node5&#45;&gt;Node6</title>
<path fill="none" stroke="midnightblue" d="M321.318,-56.083C327.739,-48.3768 337.192,-37.0333 345.009,-27.6531"/>
<polygon fill="midnightblue" stroke="midnightblue" points="347.881,-29.674 351.594,-19.7511 342.504,-25.1927 347.881,-29.674"/>
</g>
<!-- Node7 -->
<g id="node7" class="node"><title>Node7</title>
<polygon fill="white" stroke="#bfbfbf" points="399.387,-0.5 399.387,-19.5 442.387,-19.5 442.387,-0.5 399.387,-0.5"/>
<text text-anchor="middle" x="420.887" y="-7.5" font-family="Helvetica,sans-Serif" font-size="10.00">deque</text>
</g>
<!-- Node5&#45;&gt;Node7 -->
<g id="edge6" class="edge"><title>Node5&#45;&gt;Node7</title>
<path fill="none" stroke="midnightblue" d="M331.078,-56.324C348.238,-47.6641 374.832,-34.2424 394.634,-24.249"/>
<polygon fill="midnightblue" stroke="midnightblue" points="396.387,-27.2847 403.738,-19.6545 393.234,-21.0354 396.387,-27.2847"/>
</g>
<!-- Node8 -->
<g id="node8" class="node"><title>Node8</title>
<polygon fill="white" stroke="#bfbfbf" points="460.387,-0.5 460.387,-19.5 489.387,-19.5 489.387,-0.5 460.387,-0.5"/>
<text text-anchor="middle" x="474.887" y="-7.5" font-family="Helvetica,sans-Serif" font-size="10.00">list</text>
</g>
<!-- Node5&#45;&gt;Node8 -->
<g id="edge7" class="edge"><title>Node5&#45;&gt;Node8</title>
<path fill="none" stroke="midnightblue" d="M341.033,-56.449C366.859,-48.2339 407.011,-35.2567 450.561,-20.0097"/>
<polygon fill="midnightblue" stroke="midnightblue" points="451.928,-23.2393 460.199,-16.6178 449.604,-16.6364 451.928,-23.2393"/>
</g>
<!-- Node9 -->
<g id="node9" class="node"><title>Node9</title>
<polygon fill="white" stroke="#bfbfbf" points="176.887,-0.5 176.887,-19.5 206.887,-19.5 206.887,-0.5 176.887,-0.5"/>
<text text-anchor="middle" x="191.887" y="-7.5" font-family="Helvetica,sans-Serif" font-size="10.00">set</text>
</g>
<!-- Node5&#45;&gt;Node9 -->
<g id="edge8" class="edge"><title>Node5&#45;&gt;Node9</title>
<path fill="none" stroke="midnightblue" d="M294.555,-56.4435C273.368,-47.0657 239.335,-32.0016 216.315,-21.8127"/>
<polygon fill="midnightblue" stroke="midnightblue" points="217.458,-18.4909 206.897,-17.6439 214.625,-24.8919 217.458,-18.4909"/>
</g>
<!-- Node10 -->
<g id="node10" class="node"><title>Node10</title>
<polygon fill="white" stroke="#bfbfbf" points="224.887,-0.5 224.887,-19.5 318.887,-19.5 318.887,-0.5 224.887,-0.5"/>
<text text-anchor="middle" x="271.887" y="-7.5" font-family="Helvetica,sans-Serif" font-size="10.00">hpp/util/pointer.hh</text>
</g>
<!-- Node5&#45;&gt;Node10 -->
<g id="edge9" class="edge"><title>Node5&#45;&gt;Node10</title>
<path fill="none" stroke="midnightblue" d="M306.951,-56.083C300.958,-48.3768 292.135,-37.0333 284.839,-27.6531"/>
<polygon fill="midnightblue" stroke="midnightblue" points="287.595,-25.4958 278.693,-19.7511 282.07,-29.7934 287.595,-25.4958"/>
</g>
<!-- Node5&#45;&gt;Node11 -->
<g id="edge10" class="edge"><title>Node5&#45;&gt;Node11</title>
<path fill="none" stroke="midnightblue" d="M280.136,-56.4435C243.368,-47.1221 184.441,-32.1828 144.265,-21.9972"/>
<polygon fill="midnightblue" stroke="midnightblue" points="145.033,-18.5813 134.479,-19.5164 143.313,-25.3666 145.033,-18.5813"/>
</g>
<!-- Node12&#45;&gt;Node4 -->
<g id="edge13" class="edge"><title>Node12&#45;&gt;Node4</title>
<path fill="none" stroke="midnightblue" d="M93.0566,-180.679C94.2622,-172.722 95.7951,-162.605 97.1844,-153.436"/>
<polygon fill="midnightblue" stroke="midnightblue" points="100.683,-153.705 98.7211,-143.293 93.7625,-152.656 100.683,-153.705"/>
</g>
<!-- Node13&#45;&gt;Node4 -->
<g id="edge15" class="edge"><title>Node13&#45;&gt;Node4</title>
<path fill="none" stroke="midnightblue" d="M199.857,-180.841C181.421,-171.185 156.805,-158.29 136.735,-147.778"/>
<polygon fill="midnightblue" stroke="midnightblue" points="138.355,-144.675 127.872,-143.135 135.106,-150.876 138.355,-144.675"/>
</g>
<!-- Node13&#45;&gt;Node5 -->
<g id="edge16" class="edge"><title>Node13&#45;&gt;Node5</title>
<path fill="none" stroke="midnightblue" d="M236.53,-180.813C252.685,-157.044 285.144,-109.288 302.434,-83.8502"/>
<polygon fill="midnightblue" stroke="midnightblue" points="305.333,-85.8118 308.059,-75.5738 299.543,-81.8768 305.333,-85.8118"/>
</g>
<!-- Node13&#45;&gt;Node11 -->
<g id="edge17" class="edge"><title>Node13&#45;&gt;Node11</title>
<path fill="none" stroke="midnightblue" d="M219.911,-180.784C211.431,-163.918 196.33,-135.167 180.887,-112 159.919,-80.5467 131.772,-46.6073 115.062,-27.1704"/>
<polygon fill="midnightblue" stroke="midnightblue" points="117.65,-24.8126 108.455,-19.5492 112.361,-29.3979 117.65,-24.8126"/>
</g>
<!-- Node15 -->
<g id="node15" class="node"><title>Node15</title>
<g id="a_node15"><a xlink:href="a00124.html" target="_top" xlink:title="hpp/core/numerical\l&#45;constraint.hh">
<polygon fill="white" stroke="black" points="315.387,-249 315.387,-279 414.387,-279 414.387,-249 315.387,-249"/>
<text text-anchor="start" x="323.387" y="-267" font-family="Helvetica,sans-Serif" font-size="10.00">hpp/core/numerical</text>
<text text-anchor="middle" x="364.887" y="-256" font-family="Helvetica,sans-Serif" font-size="10.00">&#45;constraint.hh</text>
</a>
</g>
</g>
<!-- Node14&#45;&gt;Node15 -->
<g id="edge21" class="edge"><title>Node14&#45;&gt;Node15</title>
<path fill="none" stroke="midnightblue" d="M313.991,-316.679C322.679,-307.857 333.982,-296.38 343.729,-286.483"/>
<polygon fill="midnightblue" stroke="midnightblue" points="346.287,-288.874 350.81,-279.293 341.3,-283.962 346.287,-288.874"/>
</g>
<!-- Node16 -->
<g id="node16" class="node"><title>Node16</title>
<g id="a_node16"><a xlink:href="a00111.html" target="_top" xlink:title="hpp/core/equation.hh">
<polygon fill="white" stroke="black" points="361.387,-186.5 361.387,-205.5 468.387,-205.5 468.387,-186.5 361.387,-186.5"/>
<text text-anchor="middle" x="414.887" y="-193.5" font-family="Helvetica,sans-Serif" font-size="10.00">hpp/core/equation.hh</text>
</a>
</g>
</g>
<!-- Node15&#45;&gt;Node16 -->
<g id="edge22" class="edge"><title>Node15&#45;&gt;Node16</title>
<path fill="none" stroke="midnightblue" d="M375.736,-248.679C383.455,-238.49 393.857,-224.759 401.999,-214.011"/>
<polygon fill="midnightblue" stroke="midnightblue" points="404.95,-215.913 408.199,-205.828 399.37,-211.686 404.95,-215.913"/>
</g>
<!-- Node16&#45;&gt;Node5 -->
<g id="edge23" class="edge"><title>Node16&#45;&gt;Node5</title>
<path fill="none" stroke="midnightblue" d="M407.436,-186.457C398.744,-176.423 384.015,-159.214 371.887,-144 355.666,-123.652 337.753,-99.6172 326.188,-83.8797"/>
<polygon fill="midnightblue" stroke="midnightblue" points="328.904,-81.6644 320.172,-75.6632 323.255,-85.7995 328.904,-81.6644"/>
</g>
<!-- Node17 -->
<g id="node17" class="node"><title>Node17</title>
<polygon fill="white" stroke="#bfbfbf" points="428.387,-56.5 428.387,-75.5 525.387,-75.5 525.387,-56.5 428.387,-56.5"/>
<text text-anchor="middle" x="476.887" y="-63.5" font-family="Helvetica,sans-Serif" font-size="10.00">hpp/core/config.hh</text>
</g>
<!-- Node16&#45;&gt;Node17 -->
<g id="edge24" class="edge"><title>Node16&#45;&gt;Node17</title>
<path fill="none" stroke="midnightblue" d="M440.797,-186.448C459.802,-178.655 484.241,-165.095 495.887,-144 506.247,-125.233 496.979,-100.814 488.125,-84.5586"/>
<polygon fill="midnightblue" stroke="midnightblue" points="490.943,-82.4471 482.844,-75.6156 484.915,-86.0062 490.943,-82.4471"/>
</g>
<!-- Node18 -->
<g id="node18" class="node"><title>Node18</title>
<g id="a_node18"><a xlink:href="a00092.html" target="_top" xlink:title="hpp/core/comparison\l&#45;type.hh">
<polygon fill="white" stroke="black" points="380.387,-113 380.387,-143 487.387,-143 487.387,-113 380.387,-113"/>
<text text-anchor="start" x="388.387" y="-131" font-family="Helvetica,sans-Serif" font-size="10.00">hpp/core/comparison</text>
<text text-anchor="middle" x="433.887" y="-120" font-family="Helvetica,sans-Serif" font-size="10.00">&#45;type.hh</text>
</a>
</g>
</g>
<!-- Node16&#45;&gt;Node18 -->
<g id="edge25" class="edge"><title>Node16&#45;&gt;Node18</title>
<path fill="none" stroke="midnightblue" d="M417.371,-186.372C419.814,-177.886 423.655,-164.542 427.019,-152.858"/>
<polygon fill="midnightblue" stroke="midnightblue" points="430.401,-153.759 429.804,-143.181 423.674,-151.823 430.401,-153.759"/>
</g>
<!-- Node18&#45;&gt;Node5 -->
<g id="edge26" class="edge"><title>Node18&#45;&gt;Node5</title>
<path fill="none" stroke="midnightblue" d="M405.752,-112.933C385.959,-103.036 359.647,-89.8803 340.257,-80.1852"/>
<polygon fill="midnightblue" stroke="midnightblue" points="341.596,-76.9417 331.087,-75.6 338.466,-83.2027 341.596,-76.9417"/>
</g>
<!-- Node18&#45;&gt;Node17 -->
<g id="edge27" class="edge"><title>Node18&#45;&gt;Node17</title>
<path fill="none" stroke="midnightblue" d="M444.077,-112.781C450.261,-104.152 458.19,-93.0882 464.704,-83.9987"/>
<polygon fill="midnightblue" stroke="midnightblue" points="467.649,-85.8976 470.63,-75.7305 461.96,-81.8199 467.649,-85.8976"/>
</g>
</g>
</svg>
