<?xml version="1.0" encoding="UTF-8" standalone="no"?>
<!DOCTYPE svg PUBLIC "-//W3C//DTD SVG 1.1//EN"
 "http://www.w3.org/Graphics/SVG/1.1/DTD/svg11.dtd">
<!-- Generated by graphviz version 2.36.0 (20140111.2315)
 -->
<!-- Title: problem.hh Pages: 1 -->
<svg width="2209pt" height="400pt"
 viewBox="0.00 0.00 2209.34 400.00" xmlns="http://www.w3.org/2000/svg" xmlns:xlink="http://www.w3.org/1999/xlink">
<g id="graph0" class="graph" transform="scale(1 1) rotate(0) translate(4 396)">
<title>problem.hh</title>
<polygon fill="white" stroke="none" points="-4,4 -4,-396 2205.34,-396 2205.34,4 -4,4"/>
<!-- Node1 -->
<g id="node1" class="node"><title>Node1</title>
<polygon fill="#bfbfbf" stroke="black" points="452.839,-372.5 452.839,-391.5 517.839,-391.5 517.839,-372.5 452.839,-372.5"/>
<text text-anchor="middle" x="485.339" y="-379.5" font-family="Helvetica,sans-Serif" font-size="10.00">problem.hh</text>
</g>
<!-- Node2 -->
<g id="node2" class="node"><title>Node2</title>
<polygon fill="white" stroke="#bfbfbf" points="117.339,-316.5 117.339,-335.5 195.339,-335.5 195.339,-316.5 117.339,-316.5"/>
<text text-anchor="middle" x="156.339" y="-323.5" font-family="Helvetica,sans-Serif" font-size="10.00">boost/any.hpp</text>
</g>
<!-- Node1&#45;&gt;Node2 -->
<g id="edge1" class="edge"><title>Node1&#45;&gt;Node2</title>
<path fill="none" stroke="midnightblue" d="M452.538,-375.971C400.207,-367.893 294.618,-351.371 205.339,-336 205.238,-335.983 205.137,-335.965 205.035,-335.948"/>
<polygon fill="midnightblue" stroke="midnightblue" points="205.829,-332.534 195.374,-334.251 204.618,-339.428 205.829,-332.534"/>
</g>
<!-- Node3 -->
<g id="node3" class="node"><title>Node3</title>
<g id="a_node3"><a doxygen="https://jmirabel.github.io/hpp-doc/api/hpp-model/doxygen-html/hpp-model.doxytag:https://jmirabel.github.io/hpp-doc/api/hpp-model/doxygen-html/" xlink:href="https://jmirabel.github.io/hpp-doc/api/hpp-model/doxygen-html/a00033.html" target="_top" xlink:title="hpp/model/device.hh">
<polygon fill="white" stroke="black" points="213.839,-316.5 213.839,-335.5 320.839,-335.5 320.839,-316.5 213.839,-316.5"/>
<text text-anchor="middle" x="267.339" y="-323.5" font-family="Helvetica,sans-Serif" font-size="10.00">hpp/model/device.hh</text>
</a>
</g>
</g>
<!-- Node1&#45;&gt;Node3 -->
<g id="edge2" class="edge"><title>Node1&#45;&gt;Node3</title>
<path fill="none" stroke="midnightblue" d="M452.702,-372.916C415.284,-363.647 353.738,-348.401 311.92,-338.043"/>
<polygon fill="midnightblue" stroke="midnightblue" points="312.551,-334.594 302.003,-335.587 310.868,-341.388 312.551,-334.594"/>
</g>
<!-- Node8 -->
<g id="node8" class="node"><title>Node8</title>
<polygon fill="white" stroke="#bfbfbf" points="478.339,-0.5 478.339,-19.5 572.339,-19.5 572.339,-0.5 478.339,-0.5"/>
<text text-anchor="middle" x="525.339" y="-7.5" font-family="Helvetica,sans-Serif" font-size="10.00">hpp/util/pointer.hh</text>
</g>
<!-- Node1&#45;&gt;Node8 -->
<g id="edge10" class="edge"><title>Node1&#45;&gt;Node8</title>
<path fill="none" stroke="midnightblue" d="M478.204,-372.208C471.447,-363.49 461.452,-349.517 455.339,-336 441.878,-306.237 436.339,-297.666 436.339,-265 436.339,-265 436.339,-265 436.339,-133 436.339,-87.068 478.022,-46.8658 504.335,-26.0629"/>
<polygon fill="midnightblue" stroke="midnightblue" points="506.757,-28.6177 512.588,-19.7714 502.513,-23.051 506.757,-28.6177"/>
</g>
<!-- Node9 -->
<g id="node9" class="node"><title>Node9</title>
<polygon fill="white" stroke="#bfbfbf" points="950.839,-62.5 950.839,-81.5 1047.84,-81.5 1047.84,-62.5 950.839,-62.5"/>
<text text-anchor="middle" x="999.339" y="-69.5" font-family="Helvetica,sans-Serif" font-size="10.00">hpp/core/config.hh</text>
</g>
<!-- Node1&#45;&gt;Node9 -->
<g id="edge11" class="edge"><title>Node1&#45;&gt;Node9</title>
<path fill="none" stroke="midnightblue" d="M517.957,-378.425C646.144,-367.879 1108.34,-325.648 1108.34,-265 1108.34,-265 1108.34,-265 1108.34,-195 1108.34,-145.108 1057.02,-106.243 1024.81,-86.7635"/>
<polygon fill="midnightblue" stroke="midnightblue" points="1026.3,-83.5806 1015.89,-81.5696 1022.77,-89.6286 1026.3,-83.5806"/>
</g>
<!-- Node10 -->
<g id="node10" class="node"><title>Node10</title>
<g id="a_node10"><a xlink:href="a00151.html" target="_top" xlink:title="hpp/core/steering&#45;method.hh">
<polygon fill="white" stroke="black" points="464.339,-316.5 464.339,-335.5 604.339,-335.5 604.339,-316.5 464.339,-316.5"/>
<text text-anchor="middle" x="534.339" y="-323.5" font-family="Helvetica,sans-Serif" font-size="10.00">hpp/core/steering&#45;method.hh</text>
</a>
</g>
</g>
<!-- Node1&#45;&gt;Node10 -->
<g id="edge12" class="edge"><title>Node1&#45;&gt;Node10</title>
<path fill="none" stroke="midnightblue" d="M493.43,-372.083C500.494,-364.298 510.927,-352.801 519.488,-343.367"/>
<polygon fill="midnightblue" stroke="midnightblue" points="522.27,-345.509 526.398,-335.751 517.086,-340.805 522.27,-345.509"/>
</g>
<!-- Node25 -->
<g id="node25" class="node"><title>Node25</title>
<g id="a_node25"><a xlink:href="a00101.html" target="_top" xlink:title="hpp/core/container.hh">
<polygon fill="white" stroke="black" points="1378.34,-124.5 1378.34,-143.5 1488.34,-143.5 1488.34,-124.5 1378.34,-124.5"/>
<text text-anchor="middle" x="1433.34" y="-131.5" font-family="Helvetica,sans-Serif" font-size="10.00">hpp/core/container.hh</text>
</a>
</g>
</g>
<!-- Node1&#45;&gt;Node25 -->
<g id="edge33" class="edge"><title>Node1&#45;&gt;Node25</title>
<path fill="none" stroke="midnightblue" d="M518.025,-380.83C631.618,-379.91 1008.5,-373.997 1122.34,-336 1247.8,-294.124 1372.47,-189.733 1416.59,-150.358"/>
<polygon fill="midnightblue" stroke="midnightblue" points="1419.01,-152.886 1424.1,-143.589 1414.33,-147.688 1419.01,-152.886"/>
</g>
<!-- Node4 -->
<g id="node4" class="node"><title>Node4</title>
<g id="a_node4"><a doxygen="https://jmirabel.github.io/hpp-doc/api/hpp-model/doxygen-html/hpp-model.doxytag:https://jmirabel.github.io/hpp-doc/api/hpp-model/doxygen-html/" xlink:href="https://jmirabel.github.io/hpp-doc/api/hpp-model/doxygen-html/a00037.html" target="_top" xlink:title="hpp/model/fwd.hh">
<polygon fill="white" stroke="black" points="83.3391,-186.5 83.3391,-205.5 177.339,-205.5 177.339,-186.5 83.3391,-186.5"/>
<text text-anchor="middle" x="130.339" y="-193.5" font-family="Helvetica,sans-Serif" font-size="10.00">hpp/model/fwd.hh</text>
</a>
</g>
</g>
<!-- Node3&#45;&gt;Node4 -->
<g id="edge3" class="edge"><title>Node3&#45;&gt;Node4</title>
<path fill="none" stroke="midnightblue" d="M213.703,-316.598C138.557,-304.703 10.6672,-283.954 7.33906,-280 -20.2499,-247.226 39.9085,-222.007 85.4547,-208.358"/>
<polygon fill="midnightblue" stroke="midnightblue" points="86.5682,-211.68 95.2042,-205.542 84.6256,-204.955 86.5682,-211.68"/>
</g>
<!-- Node5 -->
<g id="node5" class="node"><title>Node5</title>
<g id="a_node5"><a doxygen="https://jmirabel.github.io/hpp-doc/api/hpp-model/doxygen-html/hpp-model.doxytag:https://jmirabel.github.io/hpp-doc/api/hpp-model/doxygen-html/" xlink:href="https://jmirabel.github.io/hpp-doc/api/hpp-model/doxygen-html/a00034.html" target="_top" xlink:title="hpp/model/distance\l&#45;result.hh">
<polygon fill="white" stroke="black" points="16.8391,-249 16.8391,-279 117.839,-279 117.839,-249 16.8391,-249"/>
<text text-anchor="start" x="24.8391" y="-267" font-family="Helvetica,sans-Serif" font-size="10.00">hpp/model/distance</text>
<text text-anchor="middle" x="67.3391" y="-256" font-family="Helvetica,sans-Serif" font-size="10.00">&#45;result.hh</text>
</a>
</g>
</g>
<!-- Node3&#45;&gt;Node5 -->
<g id="edge4" class="edge"><title>Node3&#45;&gt;Node5</title>
<path fill="none" stroke="midnightblue" d="M238.684,-316.403C208.839,-307.45 161.305,-293.19 123.865,-281.958"/>
<polygon fill="midnightblue" stroke="midnightblue" points="124.674,-278.546 114.09,-279.025 122.663,-285.251 124.674,-278.546"/>
</g>
<!-- Node6 -->
<g id="node6" class="node"><title>Node6</title>
<g id="a_node6"><a doxygen="https://jmirabel.github.io/hpp-doc/api/hpp-model/doxygen-html/hpp-model.doxytag:https://jmirabel.github.io/hpp-doc/api/hpp-model/doxygen-html/" xlink:href="https://jmirabel.github.io/hpp-doc/api/hpp-model/doxygen-html/a00035.html" target="_top" xlink:title="hpp/model/extra&#45;config\l&#45;space.hh">
<polygon fill="white" stroke="black" points="136.339,-249 136.339,-279 252.339,-279 252.339,-249 136.339,-249"/>
<text text-anchor="start" x="144.339" y="-267" font-family="Helvetica,sans-Serif" font-size="10.00">hpp/model/extra&#45;config</text>
<text text-anchor="middle" x="194.339" y="-256" font-family="Helvetica,sans-Serif" font-size="10.00">&#45;space.hh</text>
</a>
</g>
</g>
<!-- Node3&#45;&gt;Node6 -->
<g id="edge6" class="edge"><title>Node3&#45;&gt;Node6</title>
<path fill="none" stroke="midnightblue" d="M256.88,-316.403C247.178,-308.429 232.354,-296.245 219.573,-285.74"/>
<polygon fill="midnightblue" stroke="midnightblue" points="221.492,-282.787 211.544,-279.141 217.047,-288.194 221.492,-282.787"/>
</g>
<!-- Node7 -->
<g id="node7" class="node"><title>Node7</title>
<g id="a_node7"><a doxygen="https://jmirabel.github.io/hpp-doc/api/hpp-model/doxygen-html/hpp-model.doxytag:https://jmirabel.github.io/hpp-doc/api/hpp-model/doxygen-html/" xlink:href="https://jmirabel.github.io/hpp-doc/api/hpp-model/doxygen-html/a00044.html" target="_top" xlink:title="hpp/model/object&#45;iterator.hh">
<polygon fill="white" stroke="black" points="270.839,-254.5 270.839,-273.5 407.839,-273.5 407.839,-254.5 270.839,-254.5"/>
<text text-anchor="middle" x="339.339" y="-261.5" font-family="Helvetica,sans-Serif" font-size="10.00">hpp/model/object&#45;iterator.hh</text>
</a>
</g>
</g>
<!-- Node3&#45;&gt;Node7 -->
<g id="edge8" class="edge"><title>Node3&#45;&gt;Node7</title>
<path fill="none" stroke="midnightblue" d="M277.655,-316.403C288.99,-306.958 307.412,-291.606 321.178,-280.134"/>
<polygon fill="midnightblue" stroke="midnightblue" points="323.601,-282.671 329.042,-273.581 319.119,-277.294 323.601,-282.671"/>
</g>
<!-- Node5&#45;&gt;Node4 -->
<g id="edge5" class="edge"><title>Node5&#45;&gt;Node4</title>
<path fill="none" stroke="midnightblue" d="M81.0091,-248.679C90.9295,-238.286 104.368,-224.208 114.713,-213.37"/>
<polygon fill="midnightblue" stroke="midnightblue" points="117.539,-215.479 121.912,-205.828 112.476,-210.645 117.539,-215.479"/>
</g>
<!-- Node6&#45;&gt;Node4 -->
<g id="edge7" class="edge"><title>Node6&#45;&gt;Node4</title>
<path fill="none" stroke="midnightblue" d="M180.452,-248.679C170.275,-238.184 156.455,-223.932 145.905,-213.052"/>
<polygon fill="midnightblue" stroke="midnightblue" points="148.374,-210.571 138.9,-205.828 143.349,-215.444 148.374,-210.571"/>
</g>
<!-- Node7&#45;&gt;Node4 -->
<g id="edge9" class="edge"><title>Node7&#45;&gt;Node4</title>
<path fill="none" stroke="midnightblue" d="M312.016,-254.372C274.91,-242.654 208.472,-221.674 167.045,-208.591"/>
<polygon fill="midnightblue" stroke="midnightblue" points="167.927,-205.2 157.338,-205.526 165.82,-211.875 167.927,-205.2"/>
</g>
<!-- Node11 -->
<g id="node11" class="node"><title>Node11</title>
<g id="a_node11"><a xlink:href="a00001.html" target="_top" xlink:title="hpp/core/fwd.hh">
<polygon fill="white" stroke="black" points="775.339,-62.5 775.339,-81.5 861.339,-81.5 861.339,-62.5 775.339,-62.5"/>
<text text-anchor="middle" x="818.339" y="-69.5" font-family="Helvetica,sans-Serif" font-size="10.00">hpp/core/fwd.hh</text>
</a>
</g>
</g>
<!-- Node10&#45;&gt;Node11 -->
<g id="edge13" class="edge"><title>Node10&#45;&gt;Node11</title>
<path fill="none" stroke="midnightblue" d="M527.191,-316.268C508.444,-292.254 461.441,-224.084 493.339,-180 555.781,-93.7027 690.204,-75.8019 765.133,-72.821"/>
<polygon fill="midnightblue" stroke="midnightblue" points="765.415,-76.3138 775.297,-72.4938 765.19,-69.3174 765.415,-76.3138"/>
</g>
<!-- Node17 -->
<g id="node17" class="node"><title>Node17</title>
<g id="a_node17"><a xlink:href="a00135.html" target="_top" xlink:title="hpp/core/path.hh">
<polygon fill="white" stroke="black" points="781.839,-254.5 781.839,-273.5 870.839,-273.5 870.839,-254.5 781.839,-254.5"/>
<text text-anchor="middle" x="826.339" y="-261.5" font-family="Helvetica,sans-Serif" font-size="10.00">hpp/core/path.hh</text>
</a>
</g>
</g>
<!-- Node10&#45;&gt;Node17 -->
<g id="edge20" class="edge"><title>Node10&#45;&gt;Node17</title>
<path fill="none" stroke="midnightblue" d="M575.865,-316.467C628.298,-305.693 718.482,-287.162 775.13,-275.522"/>
<polygon fill="midnightblue" stroke="midnightblue" points="775.865,-278.945 784.956,-273.503 774.456,-272.088 775.865,-278.945"/>
</g>
<!-- Node11&#45;&gt;Node8 -->
<g id="edge18" class="edge"><title>Node11&#45;&gt;Node8</title>
<path fill="none" stroke="midnightblue" d="M776.67,-62.4672C724.058,-51.6933 633.565,-33.1623 576.723,-21.5223"/>
<polygon fill="midnightblue" stroke="midnightblue" points="577.363,-18.0808 566.864,-19.5034 575.958,-24.9385 577.363,-18.0808"/>
</g>
<!-- Node12 -->
<g id="node12" class="node"><title>Node12</title>
<polygon fill="white" stroke="#bfbfbf" points="741.339,-0.5 741.339,-19.5 785.339,-19.5 785.339,-0.5 741.339,-0.5"/>
<text text-anchor="middle" x="763.339" y="-7.5" font-family="Helvetica,sans-Serif" font-size="10.00">vector</text>
</g>
<!-- Node11&#45;&gt;Node12 -->
<g id="edge14" class="edge"><title>Node11&#45;&gt;Node12</title>
<path fill="none" stroke="midnightblue" d="M810.459,-62.4035C802.045,-53.2252 788.52,-38.4699 778.113,-27.1173"/>
<polygon fill="midnightblue" stroke="midnightblue" points="780.542,-24.5871 771.205,-19.5806 775.382,-29.3172 780.542,-24.5871"/>
</g>
<!-- Node13 -->
<g id="node13" class="node"><title>Node13</title>
<polygon fill="white" stroke="#bfbfbf" points="679.839,-0.5 679.839,-19.5 722.839,-19.5 722.839,-0.5 679.839,-0.5"/>
<text text-anchor="middle" x="701.339" y="-7.5" font-family="Helvetica,sans-Serif" font-size="10.00">deque</text>
</g>
<!-- Node11&#45;&gt;Node13 -->
<g id="edge15" class="edge"><title>Node11&#45;&gt;Node13</title>
<path fill="none" stroke="midnightblue" d="M801.576,-62.4035C782.114,-52.4232 749.794,-35.8487 727.128,-24.2253"/>
<polygon fill="midnightblue" stroke="midnightblue" points="728.567,-21.0294 718.071,-19.5806 725.372,-27.2582 728.567,-21.0294"/>
</g>
<!-- Node14 -->
<g id="node14" class="node"><title>Node14</title>
<polygon fill="white" stroke="#bfbfbf" points="1022.84,-0.5 1022.84,-19.5 1051.84,-19.5 1051.84,-0.5 1022.84,-0.5"/>
<text text-anchor="middle" x="1037.34" y="-7.5" font-family="Helvetica,sans-Serif" font-size="10.00">list</text>
</g>
<!-- Node11&#45;&gt;Node14 -->
<g id="edge16" class="edge"><title>Node11&#45;&gt;Node14</title>
<path fill="none" stroke="midnightblue" d="M848.314,-62.454C855.827,-60.3291 863.874,-58.068 871.339,-56 921.494,-42.1049 980.303,-26.2708 1012.73,-17.5791"/>
<polygon fill="midnightblue" stroke="midnightblue" points="1013.91,-20.8861 1022.67,-14.9185 1012.1,-14.1244 1013.91,-20.8861"/>
</g>
<!-- Node15 -->
<g id="node15" class="node"><title>Node15</title>
<polygon fill="white" stroke="#bfbfbf" points="803.339,-0.5 803.339,-19.5 833.339,-19.5 833.339,-0.5 803.339,-0.5"/>
<text text-anchor="middle" x="818.339" y="-7.5" font-family="Helvetica,sans-Serif" font-size="10.00">set</text>
</g>
<!-- Node11&#45;&gt;Node15 -->
<g id="edge17" class="edge"><title>Node11&#45;&gt;Node15</title>
<path fill="none" stroke="midnightblue" d="M818.339,-62.4035C818.339,-53.9381 818.339,-40.7283 818.339,-29.8199"/>
<polygon fill="midnightblue" stroke="midnightblue" points="821.839,-29.5806 818.339,-19.5806 814.839,-29.5806 821.839,-29.5806"/>
</g>
<!-- Node16 -->
<g id="node16" class="node"><title>Node16</title>
<g id="a_node16"><a doxygen="https://jmirabel.github.io/hpp-doc/api/hpp-constraints/doxygen-html/hpp-constraints.doxytag:https://jmirabel.github.io/hpp-doc/api/hpp-constraints/doxygen-html/" xlink:href="https://jmirabel.github.io/hpp-doc/api/hpp-constraints/doxygen-html/a00001.html" target="_top" xlink:title="hpp/constraints/fwd.hh">
<polygon fill="white" stroke="black" points="851.339,-0.5 851.339,-19.5 967.339,-19.5 967.339,-0.5 851.339,-0.5"/>
<text text-anchor="middle" x="909.339" y="-7.5" font-family="Helvetica,sans-Serif" font-size="10.00">hpp/constraints/fwd.hh</text>
</a>
</g>
</g>
<!-- Node11&#45;&gt;Node16 -->
<g id="edge19" class="edge"><title>Node11&#45;&gt;Node16</title>
<path fill="none" stroke="midnightblue" d="M831.377,-62.4035C846.108,-52.6905 870.312,-36.7319 887.848,-25.1697"/>
<polygon fill="midnightblue" stroke="midnightblue" points="889.903,-28.0072 896.325,-19.5806 886.05,-22.1632 889.903,-28.0072"/>
</g>
<!-- Node17&#45;&gt;Node9 -->
<g id="edge23" class="edge"><title>Node17&#45;&gt;Node9</title>
<path fill="none" stroke="midnightblue" d="M870.879,-259.31C929.67,-253.409 1028.32,-239.591 1050.34,-212 1055.54,-205.48 1056.86,-141.949 1049.34,-124 1043.31,-109.6 1031.11,-97.0286 1020.28,-87.9698"/>
<polygon fill="midnightblue" stroke="midnightblue" points="1022.41,-85.1895 1012.38,-81.7551 1018.08,-90.6902 1022.41,-85.1895"/>
</g>
<!-- Node17&#45;&gt;Node11 -->
<g id="edge22" class="edge"><title>Node17&#45;&gt;Node11</title>
<path fill="none" stroke="midnightblue" d="M846.244,-254.358C862.506,-246.093 884.374,-231.931 894.339,-212 900.699,-199.279 900.996,-192.568 894.339,-180 881.011,-154.836 858.429,-166.777 841.339,-144 829.813,-128.639 823.924,-107.265 821.008,-91.9898"/>
<polygon fill="midnightblue" stroke="midnightblue" points="824.391,-90.9971 819.313,-81.6986 817.484,-92.1344 824.391,-90.9971"/>
</g>
<!-- Node18 -->
<g id="node18" class="node"><title>Node18</title>
<polygon fill="white" stroke="#bfbfbf" points="502.339,-186.5 502.339,-205.5 630.339,-205.5 630.339,-186.5 502.339,-186.5"/>
<text text-anchor="middle" x="566.339" y="-193.5" font-family="Helvetica,sans-Serif" font-size="10.00">boost/concept_check.hpp</text>
</g>
<!-- Node17&#45;&gt;Node18 -->
<g id="edge21" class="edge"><title>Node17&#45;&gt;Node18</title>
<path fill="none" stroke="midnightblue" d="M792.615,-254.439C745.856,-242.57 661.289,-221.103 609.832,-208.041"/>
<polygon fill="midnightblue" stroke="midnightblue" points="610.557,-204.614 600.003,-205.546 608.835,-211.398 610.557,-204.614"/>
</g>
<!-- Node19 -->
<g id="node19" class="node"><title>Node19</title>
<g id="a_node19"><a xlink:href="a00099.html" target="_top" xlink:title="hpp/core/constraint\l&#45;set.hh">
<polygon fill="white" stroke="black" points="648.339,-181 648.339,-211 748.339,-211 748.339,-181 648.339,-181"/>
<text text-anchor="start" x="656.339" y="-199" font-family="Helvetica,sans-Serif" font-size="10.00">hpp/core/constraint</text>
<text text-anchor="middle" x="698.339" y="-188" font-family="Helvetica,sans-Serif" font-size="10.00">&#45;set.hh</text>
</a>
</g>
</g>
<!-- Node17&#45;&gt;Node19 -->
<g id="edge24" class="edge"><title>Node17&#45;&gt;Node19</title>
<path fill="none" stroke="midnightblue" d="M809.605,-254.372C790.737,-244.643 759.486,-228.529 734.899,-215.851"/>
<polygon fill="midnightblue" stroke="midnightblue" points="736.335,-212.654 725.842,-211.181 733.126,-218.875 736.335,-212.654"/>
</g>
<!-- Node22 -->
<g id="node22" class="node"><title>Node22</title>
<polygon fill="white" stroke="#bfbfbf" points="766.839,-186.5 766.839,-205.5 885.839,-205.5 885.839,-186.5 766.839,-186.5"/>
<text text-anchor="middle" x="826.339" y="-193.5" font-family="Helvetica,sans-Serif" font-size="10.00">hpp/core/deprecated.hh</text>
</g>
<!-- Node17&#45;&gt;Node22 -->
<g id="edge30" class="edge"><title>Node17&#45;&gt;Node22</title>
<path fill="none" stroke="midnightblue" d="M826.339,-254.372C826.339,-244.643 826.339,-228.528 826.339,-215.85"/>
<polygon fill="midnightblue" stroke="midnightblue" points="829.839,-215.841 826.339,-205.841 822.839,-215.841 829.839,-215.841"/>
</g>
<!-- Node23 -->
<g id="node23" class="node"><title>Node23</title>
<g id="a_node23"><a xlink:href="a00143.html" target="_top" xlink:title="hpp/core/projection\l&#45;error.hh">
<polygon fill="white" stroke="black" points="942.839,-181 942.839,-211 1041.84,-211 1041.84,-181 942.839,-181"/>
<text text-anchor="start" x="950.839" y="-199" font-family="Helvetica,sans-Serif" font-size="10.00">hpp/core/projection</text>
<text text-anchor="middle" x="992.339" y="-188" font-family="Helvetica,sans-Serif" font-size="10.00">&#45;error.hh</text>
</a>
</g>
</g>
<!-- Node17&#45;&gt;Node23 -->
<g id="edge31" class="edge"><title>Node17&#45;&gt;Node23</title>
<path fill="none" stroke="midnightblue" d="M848.041,-254.372C873.129,-244.397 915.099,-227.71 947.326,-214.897"/>
<polygon fill="midnightblue" stroke="midnightblue" points="948.986,-218.003 956.986,-211.056 946.4,-211.499 948.986,-218.003"/>
</g>
<!-- Node19&#45;&gt;Node13 -->
<g id="edge25" class="edge"><title>Node19&#45;&gt;Node13</title>
<path fill="none" stroke="midnightblue" d="M698.569,-180.867C699.102,-148.216 700.418,-67.4974 701.024,-30.3169"/>
<polygon fill="midnightblue" stroke="midnightblue" points="704.531,-29.947 701.194,-19.8912 697.531,-29.8328 704.531,-29.947"/>
</g>
<!-- Node20 -->
<g id="node20" class="node"><title>Node20</title>
<g id="a_node20"><a xlink:href="a00100.html" target="_top" xlink:title="hpp/core/constraint.hh">
<polygon fill="white" stroke="black" points="850.839,-124.5 850.839,-143.5 963.839,-143.5 963.839,-124.5 850.839,-124.5"/>
<text text-anchor="middle" x="907.339" y="-131.5" font-family="Helvetica,sans-Serif" font-size="10.00">hpp/core/constraint.hh</text>
</a>
</g>
</g>
<!-- Node19&#45;&gt;Node20 -->
<g id="edge26" class="edge"><title>Node19&#45;&gt;Node20</title>
<path fill="none" stroke="midnightblue" d="M747.34,-180.933C784.128,-170.372 833.841,-156.1 868.04,-146.282"/>
<polygon fill="midnightblue" stroke="midnightblue" points="869.041,-149.636 877.687,-143.513 867.109,-142.908 869.041,-149.636"/>
</g>
<!-- Node20&#45;&gt;Node9 -->
<g id="edge28" class="edge"><title>Node20&#45;&gt;Node9</title>
<path fill="none" stroke="midnightblue" d="M920.52,-124.403C935.414,-114.691 959.883,-98.7319 977.612,-87.1697"/>
<polygon fill="midnightblue" stroke="midnightblue" points="979.718,-89.975 986.182,-81.5806 975.894,-84.1117 979.718,-89.975"/>
</g>
<!-- Node20&#45;&gt;Node11 -->
<g id="edge29" class="edge"><title>Node20&#45;&gt;Node11</title>
<path fill="none" stroke="midnightblue" d="M894.588,-124.403C880.312,-114.78 856.942,-99.0242 839.831,-87.4891"/>
<polygon fill="midnightblue" stroke="midnightblue" points="841.315,-84.2684 831.067,-81.5806 837.402,-90.0727 841.315,-84.2684"/>
</g>
<!-- Node21 -->
<g id="node21" class="node"><title>Node21</title>
<polygon fill="white" stroke="#bfbfbf" points="880.339,-62.5 880.339,-81.5 932.339,-81.5 932.339,-62.5 880.339,-62.5"/>
<text text-anchor="middle" x="906.339" y="-69.5" font-family="Helvetica,sans-Serif" font-size="10.00">ostream</text>
</g>
<!-- Node20&#45;&gt;Node21 -->
<g id="edge27" class="edge"><title>Node20&#45;&gt;Node21</title>
<path fill="none" stroke="midnightblue" d="M907.196,-124.403C907.055,-115.938 906.835,-102.728 906.653,-91.8199"/>
<polygon fill="midnightblue" stroke="midnightblue" points="910.148,-91.5208 906.482,-81.5806 903.149,-91.6376 910.148,-91.5208"/>
</g>
<!-- Node24 -->
<g id="node24" class="node"><title>Node24</title>
<polygon fill="white" stroke="#bfbfbf" points="981.839,-124.5 981.839,-143.5 1040.84,-143.5 1040.84,-124.5 981.839,-124.5"/>
<text text-anchor="middle" x="1011.34" y="-131.5" font-family="Helvetica,sans-Serif" font-size="10.00">exception</text>
</g>
<!-- Node23&#45;&gt;Node24 -->
<g id="edge32" class="edge"><title>Node23&#45;&gt;Node24</title>
<path fill="none" stroke="midnightblue" d="M996.842,-180.781C999.432,-172.601 1002.71,-162.234 1005.5,-153.434"/>
<polygon fill="midnightblue" stroke="midnightblue" points="1008.89,-154.321 1008.57,-143.731 1002.22,-152.207 1008.89,-154.321"/>
</g>
<!-- Node25&#45;&gt;Node9 -->
<g id="edge44" class="edge"><title>Node25&#45;&gt;Node9</title>
<path fill="none" stroke="midnightblue" d="M1378.05,-128.262C1305.3,-121.578 1173.62,-107.932 1062.34,-88 1055.72,-86.8147 1048.76,-85.3648 1041.97,-83.8384"/>
<polygon fill="midnightblue" stroke="midnightblue" points="1042.75,-80.4258 1032.22,-81.5695 1041.16,-87.2439 1042.75,-80.4258"/>
</g>
<!-- Node25&#45;&gt;Node14 -->
<g id="edge35" class="edge"><title>Node25&#45;&gt;Node14</title>
<path fill="none" stroke="midnightblue" d="M1378.31,-130.793C1295.15,-126.61 1142.17,-115.364 1095.34,-88 1071.93,-74.322 1054.92,-47.1205 1045.59,-28.9885"/>
<polygon fill="midnightblue" stroke="midnightblue" points="1048.73,-27.4453 1041.2,-19.9917 1042.44,-30.514 1048.73,-27.4453"/>
</g>
<!-- Node26 -->
<g id="node26" class="node"><title>Node26</title>
<polygon fill="white" stroke="#bfbfbf" points="1104.84,-62.5 1104.84,-81.5 1139.84,-81.5 1139.84,-62.5 1104.84,-62.5"/>
<text text-anchor="middle" x="1122.34" y="-69.5" font-family="Helvetica,sans-Serif" font-size="10.00">map</text>
</g>
<!-- Node25&#45;&gt;Node26 -->
<g id="edge34" class="edge"><title>Node25&#45;&gt;Node26</title>
<path fill="none" stroke="midnightblue" d="M1378.31,-130.277C1319.81,-126.024 1225.32,-115.225 1148.34,-88 1146.93,-87.5004 1145.5,-86.9239 1144.09,-86.294"/>
<polygon fill="midnightblue" stroke="midnightblue" points="1145.6,-83.1337 1135.11,-81.6125 1142.36,-89.3402 1145.6,-83.1337"/>
</g>
<!-- Node27 -->
<g id="node27" class="node"><title>Node27</title>
<polygon fill="white" stroke="#bfbfbf" points="1157.84,-57 1157.84,-87 1274.84,-87 1274.84,-57 1157.84,-57"/>
<text text-anchor="start" x="1165.84" y="-75" font-family="Helvetica,sans-Serif" font-size="10.00">boost/smart_ptr/shared</text>
<text text-anchor="middle" x="1216.34" y="-64" font-family="Helvetica,sans-Serif" font-size="10.00">_ptr.hpp</text>
</g>
<!-- Node25&#45;&gt;Node27 -->
<g id="edge36" class="edge"><title>Node25&#45;&gt;Node27</title>
<path fill="none" stroke="midnightblue" d="M1402.25,-124.403C1369.66,-115.393 1317.63,-101.007 1276.89,-89.7432"/>
<polygon fill="midnightblue" stroke="midnightblue" points="1277.64,-86.3169 1267.06,-87.0253 1275.77,-93.0638 1277.64,-86.3169"/>
</g>
<!-- Node28 -->
<g id="node28" class="node"><title>Node28</title>
<polygon fill="white" stroke="#bfbfbf" points="1292.84,-62.5 1292.84,-81.5 1435.84,-81.5 1435.84,-62.5 1292.84,-62.5"/>
<text text-anchor="middle" x="1364.34" y="-69.5" font-family="Helvetica,sans-Serif" font-size="10.00">boost/mpl/inherit_linearly.hpp</text>
</g>
<!-- Node25&#45;&gt;Node28 -->
<g id="edge37" class="edge"><title>Node25&#45;&gt;Node28</title>
<path fill="none" stroke="midnightblue" d="M1423.45,-124.403C1412.69,-115.047 1395.27,-99.8948 1382.12,-88.4599"/>
<polygon fill="midnightblue" stroke="midnightblue" points="1384.05,-85.5013 1374.21,-81.5806 1379.46,-90.7835 1384.05,-85.5013"/>
</g>
<!-- Node29 -->
<g id="node29" class="node"><title>Node29</title>
<polygon fill="white" stroke="#bfbfbf" points="1453.84,-62.5 1453.84,-81.5 1550.84,-81.5 1550.84,-62.5 1453.84,-62.5"/>
<text text-anchor="middle" x="1502.34" y="-69.5" font-family="Helvetica,sans-Serif" font-size="10.00">boost/mpl/fold.hpp</text>
</g>
<!-- Node25&#45;&gt;Node29 -->
<g id="edge38" class="edge"><title>Node25&#45;&gt;Node29</title>
<path fill="none" stroke="midnightblue" d="M1443.23,-124.403C1453.99,-115.047 1471.41,-99.8948 1484.56,-88.4599"/>
<polygon fill="midnightblue" stroke="midnightblue" points="1487.22,-90.7835 1492.47,-81.5806 1482.63,-85.5013 1487.22,-90.7835"/>
</g>
<!-- Node30 -->
<g id="node30" class="node"><title>Node30</title>
<polygon fill="white" stroke="#bfbfbf" points="1568.84,-62.5 1568.84,-81.5 1675.84,-81.5 1675.84,-62.5 1568.84,-62.5"/>
<text text-anchor="middle" x="1622.34" y="-69.5" font-family="Helvetica,sans-Serif" font-size="10.00">boost/mpl/inherit.hpp</text>
</g>
<!-- Node25&#45;&gt;Node30 -->
<g id="edge39" class="edge"><title>Node25&#45;&gt;Node30</title>
<path fill="none" stroke="midnightblue" d="M1460.42,-124.403C1493.26,-113.978 1548.77,-96.3557 1585.49,-84.6992"/>
<polygon fill="midnightblue" stroke="midnightblue" points="1586.84,-87.9424 1595.31,-81.5806 1584.72,-81.2705 1586.84,-87.9424"/>
</g>
<!-- Node31 -->
<g id="node31" class="node"><title>Node31</title>
<polygon fill="white" stroke="#bfbfbf" points="1694.34,-62.5 1694.34,-81.5 1802.34,-81.5 1802.34,-62.5 1694.34,-62.5"/>
<text text-anchor="middle" x="1748.34" y="-69.5" font-family="Helvetica,sans-Serif" font-size="10.00">boost/mpl/vector.hpp</text>
</g>
<!-- Node25&#45;&gt;Node31 -->
<g id="edge40" class="edge"><title>Node25&#45;&gt;Node31</title>
<path fill="none" stroke="midnightblue" d="M1485.41,-124.49C1536.28,-115.981 1615.84,-102.158 1684.34,-88 1690.57,-86.7115 1697.13,-85.2724 1703.57,-83.8094"/>
<polygon fill="midnightblue" stroke="midnightblue" points="1704.58,-87.1686 1713.54,-81.5091 1703.01,-80.348 1704.58,-87.1686"/>
</g>
<!-- Node32 -->
<g id="node32" class="node"><title>Node32</title>
<polygon fill="white" stroke="#bfbfbf" points="1820.84,-62.5 1820.84,-81.5 1939.84,-81.5 1939.84,-62.5 1820.84,-62.5"/>
<text text-anchor="middle" x="1880.34" y="-69.5" font-family="Helvetica,sans-Serif" font-size="10.00">boost/mpl/for_each.hpp</text>
</g>
<!-- Node25&#45;&gt;Node32 -->
<g id="edge41" class="edge"><title>Node25&#45;&gt;Node32</title>
<path fill="none" stroke="midnightblue" d="M1488.35,-128.114C1562.14,-121.182 1697.12,-107.169 1811.34,-88 1818.82,-86.7444 1826.72,-85.2193 1834.39,-83.6285"/>
<polygon fill="midnightblue" stroke="midnightblue" points="1835.25,-87.0248 1844.3,-81.5163 1833.79,-80.1787 1835.25,-87.0248"/>
</g>
<!-- Node33 -->
<g id="node33" class="node"><title>Node33</title>
<polygon fill="white" stroke="#bfbfbf" points="1958.34,-57 1958.34,-87 2058.34,-87 2058.34,-57 1958.34,-57"/>
<text text-anchor="start" x="1966.34" y="-75" font-family="Helvetica,sans-Serif" font-size="10.00">boost/type_traits/is</text>
<text text-anchor="middle" x="2008.34" y="-64" font-family="Helvetica,sans-Serif" font-size="10.00">_pointer.hpp</text>
</g>
<!-- Node25&#45;&gt;Node33 -->
<g id="edge42" class="edge"><title>Node25&#45;&gt;Node33</title>
<path fill="none" stroke="midnightblue" d="M1488.58,-131.034C1581.45,-127.103 1774.83,-116.242 1947.98,-87.8582"/>
<polygon fill="midnightblue" stroke="midnightblue" points="1948.76,-91.2783 1958.05,-86.1853 1947.61,-84.3731 1948.76,-91.2783"/>
</g>
<!-- Node34 -->
<g id="node34" class="node"><title>Node34</title>
<polygon fill="white" stroke="#bfbfbf" points="2076.84,-57 2076.84,-87 2201.84,-87 2201.84,-57 2076.84,-57"/>
<text text-anchor="start" x="2084.84" y="-75" font-family="Helvetica,sans-Serif" font-size="10.00">boost/type_traits/remove</text>
<text text-anchor="middle" x="2139.34" y="-64" font-family="Helvetica,sans-Serif" font-size="10.00">_pointer.hpp</text>
</g>
<!-- Node25&#45;&gt;Node34 -->
<g id="edge43" class="edge"><title>Node25&#45;&gt;Node34</title>
<path fill="none" stroke="midnightblue" d="M1488.72,-131.573C1597.56,-128.226 1847.06,-117.871 2066.5,-87.9817"/>
<polygon fill="midnightblue" stroke="midnightblue" points="2067.17,-91.4228 2076.6,-86.5896 2066.21,-84.4884 2067.17,-91.4228"/>
</g>
</g>
</svg>
