<?xml version="1.0" encoding="UTF-8" standalone="no"?>
<!DOCTYPE svg PUBLIC "-//W3C//DTD SVG 1.1//EN"
 "http://www.w3.org/Graphics/SVG/1.1/DTD/svg11.dtd">
<!-- Generated by graphviz version 2.36.0 (20140111.2315)
 -->
<!-- Title: path&#45;vector.hh Pages: 1 -->
<svg width="1070pt" height="320pt"
 viewBox="0.00 0.00 1070.00 320.00" xmlns="http://www.w3.org/2000/svg" xmlns:xlink="http://www.w3.org/1999/xlink">
<g id="graph0" class="graph" transform="scale(1 1) rotate(0) translate(4 316)">
<title>path&#45;vector.hh</title>
<polygon fill="white" stroke="none" points="-4,4 -4,-316 1066,-316 1066,4 -4,4"/>
<!-- Node1 -->
<g id="node1" class="node"><title>Node1</title>
<polygon fill="#bfbfbf" stroke="black" points="417.5,-292.5 417.5,-311.5 496.5,-311.5 496.5,-292.5 417.5,-292.5"/>
<text text-anchor="middle" x="457" y="-299.5" font-family="Helvetica,sans-Serif" font-size="10.00">path&#45;vector.hh</text>
</g>
<!-- Node2 -->
<g id="node2" class="node"><title>Node2</title>
<g id="a_node2"><a doxygen="https://jmirabel.github.io/hpp-doc/api/hpp-model/doxygen-html/hpp-model.doxytag:https://jmirabel.github.io/hpp-doc/api/hpp-model/doxygen-html/" xlink:href="https://jmirabel.github.io/hpp-doc/api/hpp-model/doxygen-html/a00033.html" target="_top" xlink:title="hpp/model/device.hh">
<polygon fill="white" stroke="black" points="245.5,-236.5 245.5,-255.5 352.5,-255.5 352.5,-236.5 245.5,-236.5"/>
<text text-anchor="middle" x="299" y="-243.5" font-family="Helvetica,sans-Serif" font-size="10.00">hpp/model/device.hh</text>
</a>
</g>
</g>
<!-- Node1&#45;&gt;Node2 -->
<g id="edge1" class="edge"><title>Node1&#45;&gt;Node2</title>
<path fill="none" stroke="midnightblue" d="M431.964,-292.444C405.384,-283.359 363.191,-268.939 333.477,-258.783"/>
<polygon fill="midnightblue" stroke="midnightblue" points="334.513,-255.439 323.918,-255.516 332.249,-262.062 334.513,-255.439"/>
</g>
<!-- Node7 -->
<g id="node7" class="node"><title>Node7</title>
<g id="a_node7"><a xlink:href="a00001.html" target="_top" xlink:title="hpp/core/fwd.hh">
<polygon fill="white" stroke="black" points="529,-56.5 529,-75.5 615,-75.5 615,-56.5 529,-56.5"/>
<text text-anchor="middle" x="572" y="-63.5" font-family="Helvetica,sans-Serif" font-size="10.00">hpp/core/fwd.hh</text>
</a>
</g>
</g>
<!-- Node1&#45;&gt;Node7 -->
<g id="edge9" class="edge"><title>Node1&#45;&gt;Node7</title>
<path fill="none" stroke="midnightblue" d="M457.67,-292.276C460.227,-263.856 471.428,-172.294 513,-112 521.741,-99.3228 535.182,-88.6734 547.028,-80.922"/>
<polygon fill="midnightblue" stroke="midnightblue" points="549.01,-83.8118 555.672,-75.5738 545.327,-77.859 549.01,-83.8118"/>
</g>
<!-- Node14 -->
<g id="node14" class="node"><title>Node14</title>
<g id="a_node14"><a xlink:href="a00135.html" target="_top" xlink:title="hpp/core/path.hh">
<polygon fill="white" stroke="black" points="684.5,-236.5 684.5,-255.5 773.5,-255.5 773.5,-236.5 684.5,-236.5"/>
<text text-anchor="middle" x="729" y="-243.5" font-family="Helvetica,sans-Serif" font-size="10.00">hpp/core/path.hh</text>
</a>
</g>
</g>
<!-- Node1&#45;&gt;Node14 -->
<g id="edge16" class="edge"><title>Node1&#45;&gt;Node14</title>
<path fill="none" stroke="midnightblue" d="M496.551,-293.148C543.891,-283.75 623.352,-267.974 675.979,-257.526"/>
<polygon fill="midnightblue" stroke="midnightblue" points="676.678,-260.956 685.805,-255.576 675.314,-254.09 676.678,-260.956"/>
</g>
<!-- Node3 -->
<g id="node3" class="node"><title>Node3</title>
<g id="a_node3"><a doxygen="https://jmirabel.github.io/hpp-doc/api/hpp-model/doxygen-html/hpp-model.doxytag:https://jmirabel.github.io/hpp-doc/api/hpp-model/doxygen-html/" xlink:href="https://jmirabel.github.io/hpp-doc/api/hpp-model/doxygen-html/a00037.html" target="_top" xlink:title="hpp/model/fwd.hh">
<polygon fill="white" stroke="black" points="203,-112.5 203,-131.5 297,-131.5 297,-112.5 203,-112.5"/>
<text text-anchor="middle" x="250" y="-119.5" font-family="Helvetica,sans-Serif" font-size="10.00">hpp/model/fwd.hh</text>
</a>
</g>
</g>
<!-- Node2&#45;&gt;Node3 -->
<g id="edge2" class="edge"><title>Node2&#45;&gt;Node3</title>
<path fill="none" stroke="midnightblue" d="M297.646,-236.154C295.2,-221.514 289.318,-191.527 279,-168 274.715,-158.229 268.441,-148.172 262.824,-140.051"/>
<polygon fill="midnightblue" stroke="midnightblue" points="265.585,-137.894 256.903,-131.822 259.903,-141.983 265.585,-137.894"/>
</g>
<!-- Node4 -->
<g id="node4" class="node"><title>Node4</title>
<g id="a_node4"><a doxygen="https://jmirabel.github.io/hpp-doc/api/hpp-model/doxygen-html/hpp-model.doxytag:https://jmirabel.github.io/hpp-doc/api/hpp-model/doxygen-html/" xlink:href="https://jmirabel.github.io/hpp-doc/api/hpp-model/doxygen-html/a00034.html" target="_top" xlink:title="hpp/model/distance\l&#45;result.hh">
<polygon fill="white" stroke="black" points="327.5,-169 327.5,-199 428.5,-199 428.5,-169 327.5,-169"/>
<text text-anchor="start" x="335.5" y="-187" font-family="Helvetica,sans-Serif" font-size="10.00">hpp/model/distance</text>
<text text-anchor="middle" x="378" y="-176" font-family="Helvetica,sans-Serif" font-size="10.00">&#45;result.hh</text>
</a>
</g>
</g>
<!-- Node2&#45;&gt;Node4 -->
<g id="edge3" class="edge"><title>Node2&#45;&gt;Node4</title>
<path fill="none" stroke="midnightblue" d="M310.319,-236.403C320.918,-228.353 337.167,-216.013 351.086,-205.441"/>
<polygon fill="midnightblue" stroke="midnightblue" points="353.535,-207.976 359.381,-199.141 349.301,-202.402 353.535,-207.976"/>
</g>
<!-- Node5 -->
<g id="node5" class="node"><title>Node5</title>
<g id="a_node5"><a doxygen="https://jmirabel.github.io/hpp-doc/api/hpp-model/doxygen-html/hpp-model.doxytag:https://jmirabel.github.io/hpp-doc/api/hpp-model/doxygen-html/" xlink:href="https://jmirabel.github.io/hpp-doc/api/hpp-model/doxygen-html/a00035.html" target="_top" xlink:title="hpp/model/extra&#45;config\l&#45;space.hh">
<polygon fill="white" stroke="black" points="-1,-169 -1,-199 115,-199 115,-169 -1,-169"/>
<text text-anchor="start" x="7" y="-187" font-family="Helvetica,sans-Serif" font-size="10.00">hpp/model/extra&#45;config</text>
<text text-anchor="middle" x="57" y="-176" font-family="Helvetica,sans-Serif" font-size="10.00">&#45;space.hh</text>
</a>
</g>
</g>
<!-- Node2&#45;&gt;Node5 -->
<g id="edge5" class="edge"><title>Node2&#45;&gt;Node5</title>
<path fill="none" stroke="midnightblue" d="M264.584,-236.467C227.991,-227.395 169.212,-212.821 123.526,-201.494"/>
<polygon fill="midnightblue" stroke="midnightblue" points="124.243,-198.066 113.695,-199.057 122.559,-204.86 124.243,-198.066"/>
</g>
<!-- Node6 -->
<g id="node6" class="node"><title>Node6</title>
<g id="a_node6"><a doxygen="https://jmirabel.github.io/hpp-doc/api/hpp-model/doxygen-html/hpp-model.doxytag:https://jmirabel.github.io/hpp-doc/api/hpp-model/doxygen-html/" xlink:href="https://jmirabel.github.io/hpp-doc/api/hpp-model/doxygen-html/a00044.html" target="_top" xlink:title="hpp/model/object&#45;iterator.hh">
<polygon fill="white" stroke="black" points="133.5,-174.5 133.5,-193.5 270.5,-193.5 270.5,-174.5 133.5,-174.5"/>
<text text-anchor="middle" x="202" y="-181.5" font-family="Helvetica,sans-Serif" font-size="10.00">hpp/model/object&#45;iterator.hh</text>
</a>
</g>
</g>
<!-- Node2&#45;&gt;Node6 -->
<g id="edge7" class="edge"><title>Node2&#45;&gt;Node6</title>
<path fill="none" stroke="midnightblue" d="M285.102,-236.403C269.256,-226.601 243.126,-210.439 224.395,-198.853"/>
<polygon fill="midnightblue" stroke="midnightblue" points="226.218,-195.865 215.872,-193.581 222.535,-201.818 226.218,-195.865"/>
</g>
<!-- Node4&#45;&gt;Node3 -->
<g id="edge4" class="edge"><title>Node4&#45;&gt;Node3</title>
<path fill="none" stroke="midnightblue" d="M347.99,-168.933C326.684,-158.946 298.298,-145.64 277.564,-135.92"/>
<polygon fill="midnightblue" stroke="midnightblue" points="278.887,-132.675 268.347,-131.6 275.916,-139.014 278.887,-132.675"/>
</g>
<!-- Node5&#45;&gt;Node3 -->
<g id="edge6" class="edge"><title>Node5&#45;&gt;Node3</title>
<path fill="none" stroke="midnightblue" d="M102.25,-168.933C135.929,-158.462 181.342,-144.345 212.893,-134.536"/>
<polygon fill="midnightblue" stroke="midnightblue" points="214.107,-137.824 222.618,-131.513 212.029,-131.139 214.107,-137.824"/>
</g>
<!-- Node6&#45;&gt;Node3 -->
<g id="edge8" class="edge"><title>Node6&#45;&gt;Node3</title>
<path fill="none" stroke="midnightblue" d="M208.877,-174.403C216.149,-165.314 227.795,-150.756 236.841,-139.449"/>
<polygon fill="midnightblue" stroke="midnightblue" points="239.622,-141.576 243.136,-131.581 234.155,-137.203 239.622,-141.576"/>
</g>
<!-- Node8 -->
<g id="node8" class="node"><title>Node8</title>
<polygon fill="white" stroke="#bfbfbf" points="648,-0.5 648,-19.5 692,-19.5 692,-0.5 648,-0.5"/>
<text text-anchor="middle" x="670" y="-7.5" font-family="Helvetica,sans-Serif" font-size="10.00">vector</text>
</g>
<!-- Node7&#45;&gt;Node8 -->
<g id="edge10" class="edge"><title>Node7&#45;&gt;Node8</title>
<path fill="none" stroke="midnightblue" d="M587.745,-56.324C603.319,-47.7428 627.377,-34.486 645.459,-24.5224"/>
<polygon fill="midnightblue" stroke="midnightblue" points="647.224,-27.546 654.294,-19.6545 643.846,-21.4152 647.224,-27.546"/>
</g>
<!-- Node9 -->
<g id="node9" class="node"><title>Node9</title>
<polygon fill="white" stroke="#bfbfbf" points="911.5,-0.5 911.5,-19.5 954.5,-19.5 954.5,-0.5 911.5,-0.5"/>
<text text-anchor="middle" x="933" y="-7.5" font-family="Helvetica,sans-Serif" font-size="10.00">deque</text>
</g>
<!-- Node7&#45;&gt;Node9 -->
<g id="edge11" class="edge"><title>Node7&#45;&gt;Node9</title>
<path fill="none" stroke="midnightblue" d="M615.186,-58.54C688.758,-47.5348 836.711,-25.4034 901.452,-15.7191"/>
<polygon fill="midnightblue" stroke="midnightblue" points="902.092,-19.1624 911.464,-14.2215 901.056,-12.2394 902.092,-19.1624"/>
</g>
<!-- Node10 -->
<g id="node10" class="node"><title>Node10</title>
<polygon fill="white" stroke="#bfbfbf" points="709.5,-0.5 709.5,-19.5 738.5,-19.5 738.5,-0.5 709.5,-0.5"/>
<text text-anchor="middle" x="724" y="-7.5" font-family="Helvetica,sans-Serif" font-size="10.00">list</text>
</g>
<!-- Node7&#45;&gt;Node10 -->
<g id="edge12" class="edge"><title>Node7&#45;&gt;Node10</title>
<path fill="none" stroke="midnightblue" d="M597.072,-56.3575C621.1,-48.0375 658.604,-34.9541 699.871,-19.9945"/>
<polygon fill="midnightblue" stroke="midnightblue" points="701.092,-23.275 709.295,-16.5694 698.701,-16.6961 701.092,-23.275"/>
</g>
<!-- Node11 -->
<g id="node11" class="node"><title>Node11</title>
<polygon fill="white" stroke="#bfbfbf" points="354,-0.5 354,-19.5 384,-19.5 384,-0.5 354,-0.5"/>
<text text-anchor="middle" x="369" y="-7.5" font-family="Helvetica,sans-Serif" font-size="10.00">set</text>
</g>
<!-- Node7&#45;&gt;Node11 -->
<g id="edge13" class="edge"><title>Node7&#45;&gt;Node11</title>
<path fill="none" stroke="midnightblue" d="M532.538,-56.4236C498.099,-48.6403 446.651,-36.2965 393.697,-19.9594"/>
<polygon fill="midnightblue" stroke="midnightblue" points="394.735,-16.6168 384.146,-16.9737 392.646,-23.298 394.735,-16.6168"/>
</g>
<!-- Node12 -->
<g id="node12" class="node"><title>Node12</title>
<polygon fill="white" stroke="#bfbfbf" points="402,-0.5 402,-19.5 496,-19.5 496,-0.5 402,-0.5"/>
<text text-anchor="middle" x="449" y="-7.5" font-family="Helvetica,sans-Serif" font-size="10.00">hpp/util/pointer.hh</text>
</g>
<!-- Node7&#45;&gt;Node12 -->
<g id="edge14" class="edge"><title>Node7&#45;&gt;Node12</title>
<path fill="none" stroke="midnightblue" d="M552.51,-56.4435C532.358,-47.5961 500.677,-33.6875 477.669,-23.5865"/>
<polygon fill="midnightblue" stroke="midnightblue" points="478.962,-20.3316 468.399,-19.5164 476.148,-26.7411 478.962,-20.3316"/>
</g>
<!-- Node13 -->
<g id="node13" class="node"><title>Node13</title>
<g id="a_node13"><a doxygen="https://jmirabel.github.io/hpp-doc/api/hpp-constraints/doxygen-html/hpp-constraints.doxytag:https://jmirabel.github.io/hpp-doc/api/hpp-constraints/doxygen-html/" xlink:href="https://jmirabel.github.io/hpp-doc/api/hpp-constraints/doxygen-html/a00001.html" target="_top" xlink:title="hpp/constraints/fwd.hh">
<polygon fill="white" stroke="black" points="514,-0.5 514,-19.5 630,-19.5 630,-0.5 514,-0.5"/>
<text text-anchor="middle" x="572" y="-7.5" font-family="Helvetica,sans-Serif" font-size="10.00">hpp/constraints/fwd.hh</text>
</a>
</g>
</g>
<!-- Node7&#45;&gt;Node13 -->
<g id="edge15" class="edge"><title>Node7&#45;&gt;Node13</title>
<path fill="none" stroke="midnightblue" d="M572,-56.083C572,-49.0059 572,-38.8611 572,-29.9865"/>
<polygon fill="midnightblue" stroke="midnightblue" points="575.5,-29.751 572,-19.7511 568.5,-29.7511 575.5,-29.751"/>
</g>
<!-- Node14&#45;&gt;Node7 -->
<g id="edge18" class="edge"><title>Node14&#45;&gt;Node7</title>
<path fill="none" stroke="midnightblue" d="M684.367,-242.114C627.784,-237.418 535.04,-225.899 514,-200 484.348,-163.499 528.788,-109.505 555.026,-82.9425"/>
<polygon fill="midnightblue" stroke="midnightblue" points="557.794,-85.1304 562.482,-75.6295 552.892,-80.1329 557.794,-85.1304"/>
</g>
<!-- Node15 -->
<g id="node15" class="node"><title>Node15</title>
<polygon fill="white" stroke="#bfbfbf" points="523,-174.5 523,-193.5 651,-193.5 651,-174.5 523,-174.5"/>
<text text-anchor="middle" x="587" y="-181.5" font-family="Helvetica,sans-Serif" font-size="10.00">boost/concept_check.hpp</text>
</g>
<!-- Node14&#45;&gt;Node15 -->
<g id="edge17" class="edge"><title>Node14&#45;&gt;Node15</title>
<path fill="none" stroke="midnightblue" d="M708.655,-236.403C684.613,-226.245 644.403,-209.255 616.837,-197.607"/>
<polygon fill="midnightblue" stroke="midnightblue" points="617.881,-194.249 607.307,-193.581 615.157,-200.697 617.881,-194.249"/>
</g>
<!-- Node16 -->
<g id="node16" class="node"><title>Node16</title>
<polygon fill="white" stroke="#bfbfbf" points="885.5,-56.5 885.5,-75.5 982.5,-75.5 982.5,-56.5 885.5,-56.5"/>
<text text-anchor="middle" x="934" y="-63.5" font-family="Helvetica,sans-Serif" font-size="10.00">hpp/core/config.hh</text>
</g>
<!-- Node14&#45;&gt;Node16 -->
<g id="edge19" class="edge"><title>Node14&#45;&gt;Node16</title>
<path fill="none" stroke="midnightblue" d="M773.779,-239.851C822.322,-233.312 895.375,-220.369 914,-200 942.667,-168.65 940.689,-114.686 937.145,-86.0843"/>
<polygon fill="midnightblue" stroke="midnightblue" points="940.558,-85.2304 935.667,-75.8322 933.63,-86.2293 940.558,-85.2304"/>
</g>
<!-- Node17 -->
<g id="node17" class="node"><title>Node17</title>
<g id="a_node17"><a xlink:href="a00099.html" target="_top" xlink:title="hpp/core/constraint\l&#45;set.hh">
<polygon fill="white" stroke="black" points="962,-169 962,-199 1062,-199 1062,-169 962,-169"/>
<text text-anchor="start" x="970" y="-187" font-family="Helvetica,sans-Serif" font-size="10.00">hpp/core/constraint</text>
<text text-anchor="middle" x="1012" y="-176" font-family="Helvetica,sans-Serif" font-size="10.00">&#45;set.hh</text>
</a>
</g>
</g>
<!-- Node14&#45;&gt;Node17 -->
<g id="edge20" class="edge"><title>Node14&#45;&gt;Node17</title>
<path fill="none" stroke="midnightblue" d="M772.29,-236.471C816.522,-227.67 887.155,-213.379 948,-200 949.254,-199.724 950.521,-199.444 951.798,-199.16"/>
<polygon fill="midnightblue" stroke="midnightblue" points="952.736,-202.536 961.721,-196.922 951.196,-195.708 952.736,-202.536"/>
</g>
<!-- Node20 -->
<g id="node20" class="node"><title>Node20</title>
<polygon fill="white" stroke="#bfbfbf" points="669.5,-174.5 669.5,-193.5 788.5,-193.5 788.5,-174.5 669.5,-174.5"/>
<text text-anchor="middle" x="729" y="-181.5" font-family="Helvetica,sans-Serif" font-size="10.00">hpp/core/deprecated.hh</text>
</g>
<!-- Node14&#45;&gt;Node20 -->
<g id="edge26" class="edge"><title>Node14&#45;&gt;Node20</title>
<path fill="none" stroke="midnightblue" d="M729,-236.403C729,-227.938 729,-214.728 729,-203.82"/>
<polygon fill="midnightblue" stroke="midnightblue" points="732.5,-203.581 729,-193.581 725.5,-203.581 732.5,-203.581"/>
</g>
<!-- Node21 -->
<g id="node21" class="node"><title>Node21</title>
<g id="a_node21"><a xlink:href="a00143.html" target="_top" xlink:title="hpp/core/projection\l&#45;error.hh">
<polygon fill="white" stroke="black" points="806.5,-169 806.5,-199 905.5,-199 905.5,-169 806.5,-169"/>
<text text-anchor="start" x="814.5" y="-187" font-family="Helvetica,sans-Serif" font-size="10.00">hpp/core/projection</text>
<text text-anchor="middle" x="856" y="-176" font-family="Helvetica,sans-Serif" font-size="10.00">&#45;error.hh</text>
</a>
</g>
</g>
<!-- Node14&#45;&gt;Node21 -->
<g id="edge27" class="edge"><title>Node14&#45;&gt;Node21</title>
<path fill="none" stroke="midnightblue" d="M747.196,-236.403C765.281,-227.86 793.594,-214.483 816.805,-203.517"/>
<polygon fill="midnightblue" stroke="midnightblue" points="818.522,-206.577 826.069,-199.141 815.532,-200.248 818.522,-206.577"/>
</g>
<!-- Node17&#45;&gt;Node9 -->
<g id="edge21" class="edge"><title>Node17&#45;&gt;Node9</title>
<path fill="none" stroke="midnightblue" d="M1012.88,-168.912C1013.76,-144.215 1012.62,-92.2838 991,-56 983.306,-43.0879 970.391,-32.5221 958.699,-24.8812"/>
<polygon fill="midnightblue" stroke="midnightblue" points="960.459,-21.855 950.103,-19.6179 956.803,-27.8248 960.459,-21.855"/>
</g>
<!-- Node18 -->
<g id="node18" class="node"><title>Node18</title>
<g id="a_node18"><a xlink:href="a00100.html" target="_top" xlink:title="hpp/core/constraint.hh">
<polygon fill="white" stroke="black" points="792.5,-112.5 792.5,-131.5 905.5,-131.5 905.5,-112.5 792.5,-112.5"/>
<text text-anchor="middle" x="849" y="-119.5" font-family="Helvetica,sans-Serif" font-size="10.00">hpp/core/constraint.hh</text>
</a>
</g>
</g>
<!-- Node17&#45;&gt;Node18 -->
<g id="edge22" class="edge"><title>Node17&#45;&gt;Node18</title>
<path fill="none" stroke="midnightblue" d="M973.784,-168.933C945.915,-158.674 908.535,-144.915 881.972,-135.137"/>
<polygon fill="midnightblue" stroke="midnightblue" points="882.957,-131.77 872.363,-131.6 880.539,-138.339 882.957,-131.77"/>
</g>
<!-- Node18&#45;&gt;Node7 -->
<g id="edge25" class="edge"><title>Node18&#45;&gt;Node7</title>
<path fill="none" stroke="midnightblue" d="M805.109,-112.444C756.34,-102.936 677.592,-87.5847 625.316,-77.3937"/>
<polygon fill="midnightblue" stroke="midnightblue" points="625.715,-73.9057 615.23,-75.4275 624.376,-80.7764 625.715,-73.9057"/>
</g>
<!-- Node18&#45;&gt;Node16 -->
<g id="edge24" class="edge"><title>Node18&#45;&gt;Node16</title>
<path fill="none" stroke="midnightblue" d="M862.657,-112.324C875.916,-103.9 896.268,-90.9709 911.846,-81.0741"/>
<polygon fill="midnightblue" stroke="midnightblue" points="913.813,-83.9711 920.377,-75.6545 910.06,-78.0626 913.813,-83.9711"/>
</g>
<!-- Node19 -->
<g id="node19" class="node"><title>Node19</title>
<polygon fill="white" stroke="#bfbfbf" points="815,-56.5 815,-75.5 867,-75.5 867,-56.5 815,-56.5"/>
<text text-anchor="middle" x="841" y="-63.5" font-family="Helvetica,sans-Serif" font-size="10.00">ostream</text>
</g>
<!-- Node18&#45;&gt;Node19 -->
<g id="edge23" class="edge"><title>Node18&#45;&gt;Node19</title>
<path fill="none" stroke="midnightblue" d="M847.679,-112.083C846.619,-104.927 845.094,-94.6353 843.769,-85.6911"/>
<polygon fill="midnightblue" stroke="midnightblue" points="847.224,-85.1302 842.296,-75.7511 840.3,-86.1561 847.224,-85.1302"/>
</g>
<!-- Node22 -->
<g id="node22" class="node"><title>Node22</title>
<polygon fill="white" stroke="#bfbfbf" points="715.5,-112.5 715.5,-131.5 774.5,-131.5 774.5,-112.5 715.5,-112.5"/>
<text text-anchor="middle" x="745" y="-119.5" font-family="Helvetica,sans-Serif" font-size="10.00">exception</text>
</g>
<!-- Node21&#45;&gt;Node22 -->
<g id="edge28" class="edge"><title>Node21&#45;&gt;Node22</title>
<path fill="none" stroke="midnightblue" d="M829.975,-168.933C811.917,-159.171 787.994,-146.24 770.133,-136.586"/>
<polygon fill="midnightblue" stroke="midnightblue" points="771.371,-133.276 760.91,-131.6 768.043,-139.434 771.371,-133.276"/>
</g>
</g>
</svg>
