<?xml version="1.0" encoding="UTF-8" standalone="no"?>
<!DOCTYPE svg PUBLIC "-//W3C//DTD SVG 1.1//EN"
 "http://www.w3.org/Graphics/SVG/1.1/DTD/svg11.dtd">
<!-- Generated by graphviz version 2.36.0 (20140111.2315)
 -->
<!-- Title: equation.hh Pages: 1 -->
<svg width="434pt" height="264pt"
 viewBox="0.00 0.00 434.00 264.00" xmlns="http://www.w3.org/2000/svg" xmlns:xlink="http://www.w3.org/1999/xlink">
<g id="graph0" class="graph" transform="scale(1 1) rotate(0) translate(4 260)">
<title>equation.hh</title>
<polygon fill="white" stroke="none" points="-4,4 -4,-260 430,-260 430,4 -4,4"/>
<!-- Node1 -->
<g id="node1" class="node"><title>Node1</title>
<polygon fill="#bfbfbf" stroke="black" points="288.5,-236.5 288.5,-255.5 355.5,-255.5 355.5,-236.5 288.5,-236.5"/>
<text text-anchor="middle" x="322" y="-243.5" font-family="Helvetica,sans-Serif" font-size="10.00">equation.hh</text>
</g>
<!-- Node2 -->
<g id="node2" class="node"><title>Node2</title>
<g id="a_node2"><a xlink:href="a00124.html" target="_top" xlink:title="numerical&#45;constraint.hh">
<polygon fill="white" stroke="black" points="205,-180.5 205,-199.5 323,-199.5 323,-180.5 205,-180.5"/>
<text text-anchor="middle" x="264" y="-187.5" font-family="Helvetica,sans-Serif" font-size="10.00">numerical&#45;constraint.hh</text>
</a>
</g>
</g>
<!-- Node1&#45;&gt;Node2 -->
<g id="edge1" class="edge"><title>Node1&#45;&gt;Node2</title>
<path fill="none" stroke="midnightblue" d="M305.087,-229.253C294.797,-219.673 282.034,-207.791 273.488,-199.834"/>
<polygon fill="midnightblue" stroke="midnightblue" points="302.977,-232.071 312.681,-236.324 307.747,-226.948 302.977,-232.071"/>
</g>
<!-- Node9 -->
<g id="node9" class="node"><title>Node9</title>
<g id="a_node9"><a xlink:href="a00120.html" target="_top" xlink:title="locked&#45;joint.hh">
<polygon fill="white" stroke="black" points="341,-180.5 341,-199.5 421,-199.5 421,-180.5 341,-180.5"/>
<text text-anchor="middle" x="381" y="-187.5" font-family="Helvetica,sans-Serif" font-size="10.00">locked&#45;joint.hh</text>
</a>
</g>
</g>
<!-- Node1&#45;&gt;Node9 -->
<g id="edge8" class="edge"><title>Node1&#45;&gt;Node9</title>
<path fill="none" stroke="midnightblue" d="M338.895,-229.537C349.415,-219.909 362.569,-207.869 371.348,-199.834"/>
<polygon fill="midnightblue" stroke="midnightblue" points="336.493,-226.99 331.479,-236.324 341.219,-232.154 336.493,-226.99"/>
</g>
<!-- Node3 -->
<g id="node3" class="node"><title>Node3</title>
<g id="a_node3"><a xlink:href="a00094.html" target="_top" xlink:title="config&#45;projector.hh">
<polygon fill="white" stroke="black" points="151.5,-118.5 151.5,-137.5 248.5,-137.5 248.5,-118.5 151.5,-118.5"/>
<text text-anchor="middle" x="200" y="-125.5" font-family="Helvetica,sans-Serif" font-size="10.00">config&#45;projector.hh</text>
</a>
</g>
</g>
<!-- Node2&#45;&gt;Node3 -->
<g id="edge2" class="edge"><title>Node2&#45;&gt;Node3</title>
<path fill="none" stroke="midnightblue" d="M247.489,-173.521C235.287,-162.082 219.126,-146.93 209.153,-137.581"/>
<polygon fill="midnightblue" stroke="midnightblue" points="245.141,-176.117 254.83,-180.403 249.929,-171.011 245.141,-176.117"/>
</g>
<!-- Node7 -->
<g id="node7" class="node"><title>Node7</title>
<g id="a_node7"><a xlink:href="a00112.html" target="_top" xlink:title="explicit&#45;numerical\l&#45;constraint.hh">
<polygon fill="white" stroke="black" points="283,-113 283,-143 375,-143 375,-113 283,-113"/>
<text text-anchor="start" x="291" y="-131" font-family="Helvetica,sans-Serif" font-size="10.00">explicit&#45;numerical</text>
<text text-anchor="middle" x="329" y="-120" font-family="Helvetica,sans-Serif" font-size="10.00">&#45;constraint.hh</text>
</a>
</g>
</g>
<!-- Node2&#45;&gt;Node7 -->
<g id="edge6" class="edge"><title>Node2&#45;&gt;Node7</title>
<path fill="none" stroke="midnightblue" d="M280.773,-173.517C290.933,-164.138 303.795,-152.266 313.681,-143.141"/>
<polygon fill="midnightblue" stroke="midnightblue" points="278.287,-171.049 273.313,-180.403 283.035,-176.192 278.287,-171.049"/>
</g>
<!-- Node4 -->
<g id="node4" class="node"><title>Node4</title>
<g id="a_node4"><a xlink:href="a00150.html" target="_top" xlink:title="steering&#45;method&#45;straight.hh">
<polygon fill="white" stroke="black" points="-0.5,-56.5 -0.5,-75.5 134.5,-75.5 134.5,-56.5 -0.5,-56.5"/>
<text text-anchor="middle" x="67" y="-63.5" font-family="Helvetica,sans-Serif" font-size="10.00">steering&#45;method&#45;straight.hh</text>
</a>
</g>
</g>
<!-- Node3&#45;&gt;Node4 -->
<g id="edge3" class="edge"><title>Node3&#45;&gt;Node4</title>
<path fill="none" stroke="midnightblue" d="M171.673,-114.221C145.853,-102.573 108.424,-85.6874 86.0203,-75.5806"/>
<polygon fill="midnightblue" stroke="midnightblue" points="170.39,-117.482 180.944,-118.403 173.268,-111.101 170.39,-117.482"/>
</g>
<!-- Node6 -->
<g id="node6" class="node"><title>Node6</title>
<g id="a_node6"><a xlink:href="a00138.html" target="_top" xlink:title="problem&#45;solver.hh">
<polygon fill="white" stroke="black" points="153,-56.5 153,-75.5 247,-75.5 247,-56.5 153,-56.5"/>
<text text-anchor="middle" x="200" y="-63.5" font-family="Helvetica,sans-Serif" font-size="10.00">problem&#45;solver.hh</text>
</a>
</g>
</g>
<!-- Node3&#45;&gt;Node6 -->
<g id="edge5" class="edge"><title>Node3&#45;&gt;Node6</title>
<path fill="none" stroke="midnightblue" d="M200,-108.16C200,-97.2482 200,-84.04 200,-75.5806"/>
<polygon fill="midnightblue" stroke="midnightblue" points="196.5,-108.403 200,-118.403 203.5,-108.403 196.5,-108.403"/>
</g>
<!-- Node5 -->
<g id="node5" class="node"><title>Node5</title>
<g id="a_node5"><a xlink:href="a00116.html" target="_top" xlink:title="gradient&#45;based.hh">
<polygon fill="white" stroke="black" points="20,-0.5 20,-19.5 114,-19.5 114,-0.5 20,-0.5"/>
<text text-anchor="middle" x="67" y="-7.5" font-family="Helvetica,sans-Serif" font-size="10.00">gradient&#45;based.hh</text>
</a>
</g>
</g>
<!-- Node4&#45;&gt;Node5 -->
<g id="edge4" class="edge"><title>Node4&#45;&gt;Node5</title>
<path fill="none" stroke="midnightblue" d="M67,-45.8045C67,-36.9102 67,-26.7798 67,-19.7511"/>
<polygon fill="midnightblue" stroke="midnightblue" points="63.5001,-46.083 67,-56.083 70.5001,-46.083 63.5001,-46.083"/>
</g>
<!-- Node8 -->
<g id="node8" class="node"><title>Node8</title>
<g id="a_node8"><a xlink:href="a00113.html" target="_top" xlink:title="explicit&#45;relative&#45;transformation.hh">
<polygon fill="white" stroke="black" points="265.5,-56.5 265.5,-75.5 426.5,-75.5 426.5,-56.5 265.5,-56.5"/>
<text text-anchor="middle" x="346" y="-63.5" font-family="Helvetica,sans-Serif" font-size="10.00">explicit&#45;relative&#45;transformation.hh</text>
</a>
</g>
</g>
<!-- Node7&#45;&gt;Node8 -->
<g id="edge7" class="edge"><title>Node7&#45;&gt;Node8</title>
<path fill="none" stroke="midnightblue" d="M335.831,-102.892C338.549,-93.2959 341.506,-82.8622 343.526,-75.7305"/>
<polygon fill="midnightblue" stroke="midnightblue" points="332.387,-102.205 333.029,-112.781 339.122,-104.114 332.387,-102.205"/>
</g>
</g>
</svg>
