<?xml version="1.0" encoding="UTF-8" standalone="no"?>
<!DOCTYPE svg PUBLIC "-//W3C//DTD SVG 1.1//EN"
 "http://www.w3.org/Graphics/SVG/1.1/DTD/svg11.dtd">
<!-- Generated by graphviz version 2.36.0 (20140111.2315)
 -->
<!-- Title: path&#45;validation.hh Pages: 1 -->
<svg width="342pt" height="152pt"
 viewBox="0.00 0.00 342.00 152.00" xmlns="http://www.w3.org/2000/svg" xmlns:xlink="http://www.w3.org/1999/xlink">
<g id="graph0" class="graph" transform="scale(1 1) rotate(0) translate(4 148)">
<title>path&#45;validation.hh</title>
<polygon fill="white" stroke="none" points="-4,4 -4,-148 338,-148 338,4 -4,4"/>
<!-- Node1 -->
<g id="node1" class="node"><title>Node1</title>
<polygon fill="#bfbfbf" stroke="black" points="86.5,-124.5 86.5,-143.5 179.5,-143.5 179.5,-124.5 86.5,-124.5"/>
<text text-anchor="middle" x="133" y="-131.5" font-family="Helvetica,sans-Serif" font-size="10.00">path&#45;validation.hh</text>
</g>
<!-- Node2 -->
<g id="node2" class="node"><title>Node2</title>
<g id="a_node2"><a xlink:href="a00103.html" target="_top" xlink:title="dichotomy.hh">
<polygon fill="white" stroke="black" points="-0.5,-68.5 -0.5,-87.5 74.5,-87.5 74.5,-68.5 -0.5,-68.5"/>
<text text-anchor="middle" x="37" y="-75.5" font-family="Helvetica,sans-Serif" font-size="10.00">dichotomy.hh</text>
</a>
</g>
</g>
<!-- Node1&#45;&gt;Node2 -->
<g id="edge1" class="edge"><title>Node1&#45;&gt;Node2</title>
<path fill="none" stroke="midnightblue" d="M108.426,-119.177C90.7612,-109.241 67.4875,-96.1492 52.3858,-87.6545"/>
<polygon fill="midnightblue" stroke="midnightblue" points="107.144,-122.472 117.576,-124.324 110.576,-116.371 107.144,-122.472"/>
</g>
<!-- Node3 -->
<g id="node3" class="node"><title>Node3</title>
<g id="a_node3"><a xlink:href="a00141.html" target="_top" xlink:title="progressive.hh">
<polygon fill="white" stroke="black" points="93,-68.5 93,-87.5 173,-87.5 173,-68.5 93,-68.5"/>
<text text-anchor="middle" x="133" y="-75.5" font-family="Helvetica,sans-Serif" font-size="10.00">progressive.hh</text>
</a>
</g>
</g>
<!-- Node1&#45;&gt;Node3 -->
<g id="edge2" class="edge"><title>Node1&#45;&gt;Node3</title>
<path fill="none" stroke="midnightblue" d="M133,-113.805C133,-104.91 133,-94.7798 133,-87.7511"/>
<polygon fill="midnightblue" stroke="midnightblue" points="129.5,-114.083 133,-124.083 136.5,-114.083 129.5,-114.083"/>
</g>
<!-- Node4 -->
<g id="node4" class="node"><title>Node4</title>
<g id="a_node4"><a xlink:href="a00107.html" target="_top" xlink:title="discretized&#45;path&#45;validation.hh">
<polygon fill="white" stroke="black" points="191.5,-68.5 191.5,-87.5 334.5,-87.5 334.5,-68.5 191.5,-68.5"/>
<text text-anchor="middle" x="263" y="-75.5" font-family="Helvetica,sans-Serif" font-size="10.00">discretized&#45;path&#45;validation.hh</text>
</a>
</g>
</g>
<!-- Node1&#45;&gt;Node4 -->
<g id="edge3" class="edge"><title>Node1&#45;&gt;Node4</title>
<path fill="none" stroke="midnightblue" d="M163.085,-120.503C187.457,-110.38 221.14,-96.388 242.497,-87.5164"/>
<polygon fill="midnightblue" stroke="midnightblue" points="161.491,-117.375 153.599,-124.444 164.177,-123.84 161.491,-117.375"/>
</g>
<!-- Node5 -->
<g id="node5" class="node"><title>Node5</title>
<g id="a_node5"><a xlink:href="a00106.html" target="_top" xlink:title="discretized&#45;collision\l&#45;checking.hh">
<polygon fill="white" stroke="black" points="212,-1 212,-31 314,-31 314,-1 212,-1"/>
<text text-anchor="start" x="220" y="-19" font-family="Helvetica,sans-Serif" font-size="10.00">discretized&#45;collision</text>
<text text-anchor="middle" x="263" y="-8" font-family="Helvetica,sans-Serif" font-size="10.00">&#45;checking.hh</text>
</a>
</g>
</g>
<!-- Node4&#45;&gt;Node5 -->
<g id="edge4" class="edge"><title>Node4&#45;&gt;Node5</title>
<path fill="none" stroke="midnightblue" d="M263,-58.3707C263,-49.5849 263,-39.2721 263,-31.1408"/>
<polygon fill="midnightblue" stroke="midnightblue" points="259.5,-58.4034 263,-68.4035 266.5,-58.4035 259.5,-58.4034"/>
</g>
</g>
</svg>
