<?xml version="1.0" encoding="UTF-8" standalone="no"?>
<!DOCTYPE svg PUBLIC "-//W3C//DTD SVG 1.1//EN"
 "http://www.w3.org/Graphics/SVG/1.1/DTD/svg11.dtd">
<!-- Generated by graphviz version 2.36.0 (20140111.2315)
 -->
<!-- Title: problem&#45;target.hh Pages: 1 -->
<svg width="214pt" height="84pt"
 viewBox="0.00 0.00 214.00 84.00" xmlns="http://www.w3.org/2000/svg" xmlns:xlink="http://www.w3.org/1999/xlink">
<g id="graph0" class="graph" transform="scale(1 1) rotate(0) translate(4 80)">
<title>problem&#45;target.hh</title>
<polygon fill="white" stroke="none" points="-4,4 -4,-80 210,-80 210,4 -4,4"/>
<!-- Node1 -->
<g id="node1" class="node"><title>Node1</title>
<polygon fill="#bfbfbf" stroke="black" points="65,-56.5 65,-75.5 157,-75.5 157,-56.5 65,-56.5"/>
<text text-anchor="middle" x="111" y="-63.5" font-family="Helvetica,sans-Serif" font-size="10.00">problem&#45;target.hh</text>
</g>
<!-- Node2 -->
<g id="node2" class="node"><title>Node2</title>
<g id="a_node2"><a xlink:href="a00115.html" target="_top" xlink:title="goal&#45;configurations.hh">
<polygon fill="white" stroke="black" points="-1,-0.5 -1,-19.5 111,-19.5 111,-0.5 -1,-0.5"/>
<text text-anchor="middle" x="55" y="-7.5" font-family="Helvetica,sans-Serif" font-size="10.00">goal&#45;configurations.hh</text>
</a>
</g>
</g>
<!-- Node1&#45;&gt;Node2 -->
<g id="edge1" class="edge"><title>Node1&#45;&gt;Node2</title>
<path fill="none" stroke="midnightblue" d="M94.6701,-49.2533C84.735,-39.6731 72.4125,-27.7906 64.1611,-19.8339"/>
<polygon fill="midnightblue" stroke="midnightblue" points="92.3747,-51.902 102.003,-56.324 97.2336,-46.8631 92.3747,-51.902"/>
</g>
<!-- Node3 -->
<g id="node3" class="node"><title>Node3</title>
<g id="a_node3"><a xlink:href="a00153.html" target="_top" xlink:title="task&#45;target.hh">
<polygon fill="white" stroke="black" points="129.5,-0.5 129.5,-19.5 206.5,-19.5 206.5,-0.5 129.5,-0.5"/>
<text text-anchor="middle" x="168" y="-7.5" font-family="Helvetica,sans-Serif" font-size="10.00">task&#45;target.hh</text>
</a>
</g>
</g>
<!-- Node1&#45;&gt;Node3 -->
<g id="edge2" class="edge"><title>Node1&#45;&gt;Node3</title>
<path fill="none" stroke="midnightblue" d="M127.621,-49.2533C137.734,-39.6731 150.277,-27.7906 158.675,-19.8339"/>
<polygon fill="midnightblue" stroke="midnightblue" points="125.01,-46.9056 120.158,-56.324 129.825,-51.9873 125.01,-46.9056"/>
</g>
</g>
</svg>
