<?xml version="1.0" encoding="UTF-8" standalone="no"?>
<!DOCTYPE svg PUBLIC "-//W3C//DTD SVG 1.1//EN"
 "http://www.w3.org/Graphics/SVG/1.1/DTD/svg11.dtd">
<!-- Generated by graphviz version 2.36.0 (20140111.2315)
 -->
<!-- Title: reeds&#45;shepp&#45;path.hh Pages: 1 -->
<svg width="1137pt" height="320pt"
 viewBox="0.00 0.00 1137.40 320.00" xmlns="http://www.w3.org/2000/svg" xmlns:xlink="http://www.w3.org/1999/xlink">
<g id="graph0" class="graph" transform="scale(1 1) rotate(0) translate(4 316)">
<title>reeds&#45;shepp&#45;path.hh</title>
<polygon fill="white" stroke="none" points="-4,4 -4,-316 1133.4,-316 1133.4,4 -4,4"/>
<!-- Node1 -->
<g id="node1" class="node"><title>Node1</title>
<polygon fill="#bfbfbf" stroke="black" points="505.897,-292.5 505.897,-311.5 610.897,-311.5 610.897,-292.5 505.897,-292.5"/>
<text text-anchor="middle" x="558.397" y="-299.5" font-family="Helvetica,sans-Serif" font-size="10.00">reeds&#45;shepp&#45;path.hh</text>
</g>
<!-- Node2 -->
<g id="node2" class="node"><title>Node2</title>
<g id="a_node2"><a doxygen="https://jmirabel.github.io/hpp-doc/api/hpp-model/doxygen-html/hpp-model.doxytag:https://jmirabel.github.io/hpp-doc/api/hpp-model/doxygen-html/" xlink:href="https://jmirabel.github.io/hpp-doc/api/hpp-model/doxygen-html/a00033.html" target="_top" xlink:title="hpp/model/device.hh">
<polygon fill="white" stroke="black" points="139.897,-236.5 139.897,-255.5 246.897,-255.5 246.897,-236.5 139.897,-236.5"/>
<text text-anchor="middle" x="193.397" y="-243.5" font-family="Helvetica,sans-Serif" font-size="10.00">hpp/model/device.hh</text>
</a>
</g>
</g>
<!-- Node1&#45;&gt;Node2 -->
<g id="edge1" class="edge"><title>Node1&#45;&gt;Node2</title>
<path fill="none" stroke="midnightblue" d="M505.713,-293.206C439.948,-283.476 327.554,-266.848 257.045,-256.416"/>
<polygon fill="midnightblue" stroke="midnightblue" points="257.361,-252.925 246.957,-254.924 256.337,-259.85 257.361,-252.925"/>
</g>
<!-- Node7 -->
<g id="node7" class="node"><title>Node7</title>
<g id="a_node7"><a xlink:href="a00001.html" target="_top" xlink:title="hpp/core/fwd.hh">
<polygon fill="white" stroke="black" points="394.397,-56.5 394.397,-75.5 480.397,-75.5 480.397,-56.5 394.397,-56.5"/>
<text text-anchor="middle" x="437.397" y="-63.5" font-family="Helvetica,sans-Serif" font-size="10.00">hpp/core/fwd.hh</text>
</a>
</g>
</g>
<!-- Node1&#45;&gt;Node7 -->
<g id="edge9" class="edge"><title>Node1&#45;&gt;Node7</title>
<path fill="none" stroke="midnightblue" d="M552.1,-292.265C534.825,-267.963 486.069,-197.058 457.397,-132 450.701,-116.807 445.327,-98.6916 441.842,-85.4493"/>
<polygon fill="midnightblue" stroke="midnightblue" points="445.209,-84.4852 439.372,-75.6429 438.421,-86.1949 445.209,-84.4852"/>
</g>
<!-- Node14 -->
<g id="node14" class="node"><title>Node14</title>
<polygon fill="white" stroke="#bfbfbf" points="636.897,-56.5 636.897,-75.5 733.897,-75.5 733.897,-56.5 636.897,-56.5"/>
<text text-anchor="middle" x="685.397" y="-63.5" font-family="Helvetica,sans-Serif" font-size="10.00">hpp/core/config.hh</text>
</g>
<!-- Node1&#45;&gt;Node14 -->
<g id="edge16" class="edge"><title>Node1&#45;&gt;Node14</title>
<path fill="none" stroke="midnightblue" d="M570.051,-292.434C590.682,-276.611 633.514,-240.68 655.397,-200 675.421,-162.775 682.107,-112.767 684.319,-85.9233"/>
<polygon fill="midnightblue" stroke="midnightblue" points="687.832,-85.8637 685.037,-75.6443 680.849,-85.3765 687.832,-85.8637"/>
</g>
<!-- Node15 -->
<g id="node15" class="node"><title>Node15</title>
<g id="a_node15"><a xlink:href="a00135.html" target="_top" xlink:title="hpp/core/path.hh">
<polygon fill="white" stroke="black" points="709.897,-236.5 709.897,-255.5 798.897,-255.5 798.897,-236.5 709.897,-236.5"/>
<text text-anchor="middle" x="754.397" y="-243.5" font-family="Helvetica,sans-Serif" font-size="10.00">hpp/core/path.hh</text>
</a>
</g>
</g>
<!-- Node1&#45;&gt;Node15 -->
<g id="edge17" class="edge"><title>Node1&#45;&gt;Node15</title>
<path fill="none" stroke="midnightblue" d="M589.454,-292.444C623,-283.201 676.594,-268.436 713.538,-258.257"/>
<polygon fill="midnightblue" stroke="midnightblue" points="714.774,-261.547 723.486,-255.516 712.915,-254.798 714.774,-261.547"/>
</g>
<!-- Node3 -->
<g id="node3" class="node"><title>Node3</title>
<g id="a_node3"><a doxygen="https://jmirabel.github.io/hpp-doc/api/hpp-model/doxygen-html/hpp-model.doxytag:https://jmirabel.github.io/hpp-doc/api/hpp-model/doxygen-html/" xlink:href="https://jmirabel.github.io/hpp-doc/api/hpp-model/doxygen-html/a00037.html" target="_top" xlink:title="hpp/model/fwd.hh">
<polygon fill="white" stroke="black" points="82.397,-112.5 82.397,-131.5 176.397,-131.5 176.397,-112.5 82.397,-112.5"/>
<text text-anchor="middle" x="129.397" y="-119.5" font-family="Helvetica,sans-Serif" font-size="10.00">hpp/model/fwd.hh</text>
</a>
</g>
</g>
<!-- Node2&#45;&gt;Node3 -->
<g id="edge2" class="edge"><title>Node2&#45;&gt;Node3</title>
<path fill="none" stroke="midnightblue" d="M139.81,-239.435C90.5559,-233.083 22.7747,-220.786 6.39704,-200 -2.40488,-188.829 -1.75081,-179.657 6.39704,-168 21.3956,-146.542 47.783,-135.283 72.2811,-129.39"/>
<polygon fill="midnightblue" stroke="midnightblue" points="73.2219,-132.767 82.2646,-127.246 71.7527,-125.923 73.2219,-132.767"/>
</g>
<!-- Node4 -->
<g id="node4" class="node"><title>Node4</title>
<g id="a_node4"><a doxygen="https://jmirabel.github.io/hpp-doc/api/hpp-model/doxygen-html/hpp-model.doxytag:https://jmirabel.github.io/hpp-doc/api/hpp-model/doxygen-html/" xlink:href="https://jmirabel.github.io/hpp-doc/api/hpp-model/doxygen-html/a00034.html" target="_top" xlink:title="hpp/model/distance\l&#45;result.hh">
<polygon fill="white" stroke="black" points="15.897,-169 15.897,-199 116.897,-199 116.897,-169 15.897,-169"/>
<text text-anchor="start" x="23.897" y="-187" font-family="Helvetica,sans-Serif" font-size="10.00">hpp/model/distance</text>
<text text-anchor="middle" x="66.397" y="-176" font-family="Helvetica,sans-Serif" font-size="10.00">&#45;result.hh</text>
</a>
</g>
</g>
<!-- Node2&#45;&gt;Node4 -->
<g id="edge3" class="edge"><title>Node2&#45;&gt;Node4</title>
<path fill="none" stroke="midnightblue" d="M175.201,-236.403C157.117,-227.86 128.803,-214.483 105.592,-203.517"/>
<polygon fill="midnightblue" stroke="midnightblue" points="106.865,-200.248 96.3284,-199.141 103.875,-206.577 106.865,-200.248"/>
</g>
<!-- Node5 -->
<g id="node5" class="node"><title>Node5</title>
<g id="a_node5"><a doxygen="https://jmirabel.github.io/hpp-doc/api/hpp-model/doxygen-html/hpp-model.doxytag:https://jmirabel.github.io/hpp-doc/api/hpp-model/doxygen-html/" xlink:href="https://jmirabel.github.io/hpp-doc/api/hpp-model/doxygen-html/a00035.html" target="_top" xlink:title="hpp/model/extra&#45;config\l&#45;space.hh">
<polygon fill="white" stroke="black" points="135.397,-169 135.397,-199 251.397,-199 251.397,-169 135.397,-169"/>
<text text-anchor="start" x="143.397" y="-187" font-family="Helvetica,sans-Serif" font-size="10.00">hpp/model/extra&#45;config</text>
<text text-anchor="middle" x="193.397" y="-176" font-family="Helvetica,sans-Serif" font-size="10.00">&#45;space.hh</text>
</a>
</g>
</g>
<!-- Node2&#45;&gt;Node5 -->
<g id="edge5" class="edge"><title>Node2&#45;&gt;Node5</title>
<path fill="none" stroke="midnightblue" d="M193.397,-236.403C193.397,-229.341 193.397,-218.975 193.397,-209.399"/>
<polygon fill="midnightblue" stroke="midnightblue" points="196.897,-209.141 193.397,-199.141 189.897,-209.141 196.897,-209.141"/>
</g>
<!-- Node6 -->
<g id="node6" class="node"><title>Node6</title>
<g id="a_node6"><a doxygen="https://jmirabel.github.io/hpp-doc/api/hpp-model/doxygen-html/hpp-model.doxytag:https://jmirabel.github.io/hpp-doc/api/hpp-model/doxygen-html/" xlink:href="https://jmirabel.github.io/hpp-doc/api/hpp-model/doxygen-html/a00044.html" target="_top" xlink:title="hpp/model/object&#45;iterator.hh">
<polygon fill="white" stroke="black" points="269.897,-174.5 269.897,-193.5 406.897,-193.5 406.897,-174.5 269.897,-174.5"/>
<text text-anchor="middle" x="338.397" y="-181.5" font-family="Helvetica,sans-Serif" font-size="10.00">hpp/model/object&#45;iterator.hh</text>
</a>
</g>
</g>
<!-- Node2&#45;&gt;Node6 -->
<g id="edge7" class="edge"><title>Node2&#45;&gt;Node6</title>
<path fill="none" stroke="midnightblue" d="M214.172,-236.403C238.829,-226.2 280.142,-209.105 308.299,-197.454"/>
<polygon fill="midnightblue" stroke="midnightblue" points="309.759,-200.638 317.661,-193.581 307.082,-194.17 309.759,-200.638"/>
</g>
<!-- Node4&#45;&gt;Node3 -->
<g id="edge4" class="edge"><title>Node4&#45;&gt;Node3</title>
<path fill="none" stroke="midnightblue" d="M81.3272,-168.781C90.7649,-159.792 102.977,-148.162 112.73,-138.873"/>
<polygon fill="midnightblue" stroke="midnightblue" points="115.402,-141.162 120.23,-131.731 110.575,-136.093 115.402,-141.162"/>
</g>
<!-- Node5&#45;&gt;Node3 -->
<g id="edge6" class="edge"><title>Node5&#45;&gt;Node3</title>
<path fill="none" stroke="midnightblue" d="M178.23,-168.781C168.546,-159.703 155.988,-147.929 146.032,-138.595"/>
<polygon fill="midnightblue" stroke="midnightblue" points="148.399,-136.017 138.71,-131.731 143.611,-141.123 148.399,-136.017"/>
</g>
<!-- Node6&#45;&gt;Node3 -->
<g id="edge8" class="edge"><title>Node6&#45;&gt;Node3</title>
<path fill="none" stroke="midnightblue" d="M308.452,-174.403C271.826,-163.889 209.702,-146.054 169.113,-134.402"/>
<polygon fill="midnightblue" stroke="midnightblue" points="169.864,-130.976 159.286,-131.581 167.932,-137.704 169.864,-130.976"/>
</g>
<!-- Node8 -->
<g id="node8" class="node"><title>Node8</title>
<polygon fill="white" stroke="#bfbfbf" points="415.397,-0.5 415.397,-19.5 459.397,-19.5 459.397,-0.5 415.397,-0.5"/>
<text text-anchor="middle" x="437.397" y="-7.5" font-family="Helvetica,sans-Serif" font-size="10.00">vector</text>
</g>
<!-- Node7&#45;&gt;Node8 -->
<g id="edge10" class="edge"><title>Node7&#45;&gt;Node8</title>
<path fill="none" stroke="midnightblue" d="M437.397,-56.083C437.397,-49.0059 437.397,-38.8611 437.397,-29.9865"/>
<polygon fill="midnightblue" stroke="midnightblue" points="440.897,-29.751 437.397,-19.7511 433.897,-29.7511 440.897,-29.751"/>
</g>
<!-- Node9 -->
<g id="node9" class="node"><title>Node9</title>
<polygon fill="white" stroke="#bfbfbf" points="523.897,-0.5 523.897,-19.5 566.897,-19.5 566.897,-0.5 523.897,-0.5"/>
<text text-anchor="middle" x="545.397" y="-7.5" font-family="Helvetica,sans-Serif" font-size="10.00">deque</text>
</g>
<!-- Node7&#45;&gt;Node9 -->
<g id="edge11" class="edge"><title>Node7&#45;&gt;Node9</title>
<path fill="none" stroke="midnightblue" d="M454.749,-56.324C472.069,-47.6641 498.912,-34.2424 518.899,-24.249"/>
<polygon fill="midnightblue" stroke="midnightblue" points="520.709,-27.2572 528.088,-19.6545 517.578,-20.9962 520.709,-27.2572"/>
</g>
<!-- Node10 -->
<g id="node10" class="node"><title>Node10</title>
<polygon fill="white" stroke="#bfbfbf" points="476.897,-0.5 476.897,-19.5 505.897,-19.5 505.897,-0.5 476.897,-0.5"/>
<text text-anchor="middle" x="491.397" y="-7.5" font-family="Helvetica,sans-Serif" font-size="10.00">list</text>
</g>
<!-- Node7&#45;&gt;Node10 -->
<g id="edge12" class="edge"><title>Node7&#45;&gt;Node10</title>
<path fill="none" stroke="midnightblue" d="M446.314,-56.083C454.178,-48.2195 465.828,-36.5688 475.316,-27.0813"/>
<polygon fill="midnightblue" stroke="midnightblue" points="478.05,-29.2971 482.646,-19.7511 473.1,-24.3473 478.05,-29.2971"/>
</g>
<!-- Node11 -->
<g id="node11" class="node"><title>Node11</title>
<polygon fill="white" stroke="#bfbfbf" points="121.397,-0.5 121.397,-19.5 151.397,-19.5 151.397,-0.5 121.397,-0.5"/>
<text text-anchor="middle" x="136.397" y="-7.5" font-family="Helvetica,sans-Serif" font-size="10.00">set</text>
</g>
<!-- Node7&#45;&gt;Node11 -->
<g id="edge13" class="edge"><title>Node7&#45;&gt;Node11</title>
<path fill="none" stroke="midnightblue" d="M394.135,-60.6542C341.138,-54.7432 248.61,-42.5236 161.282,-19.7769"/>
<polygon fill="midnightblue" stroke="midnightblue" points="162.049,-16.3592 151.485,-17.1741 160.251,-23.1245 162.049,-16.3592"/>
</g>
<!-- Node12 -->
<g id="node12" class="node"><title>Node12</title>
<polygon fill="white" stroke="#bfbfbf" points="169.397,-0.5 169.397,-19.5 263.397,-19.5 263.397,-0.5 169.397,-0.5"/>
<text text-anchor="middle" x="216.397" y="-7.5" font-family="Helvetica,sans-Serif" font-size="10.00">hpp/util/pointer.hh</text>
</g>
<!-- Node7&#45;&gt;Node12 -->
<g id="edge14" class="edge"><title>Node7&#45;&gt;Node12</title>
<path fill="none" stroke="midnightblue" d="M402.379,-56.4435C364.149,-47.1024 302.83,-32.1194 261.14,-21.9326"/>
<polygon fill="midnightblue" stroke="midnightblue" points="261.796,-18.4901 251.251,-19.5164 260.135,-25.2901 261.796,-18.4901"/>
</g>
<!-- Node13 -->
<g id="node13" class="node"><title>Node13</title>
<g id="a_node13"><a doxygen="https://jmirabel.github.io/hpp-doc/api/hpp-constraints/doxygen-html/hpp-constraints.doxytag:https://jmirabel.github.io/hpp-doc/api/hpp-constraints/doxygen-html/" xlink:href="https://jmirabel.github.io/hpp-doc/api/hpp-constraints/doxygen-html/a00001.html" target="_top" xlink:title="hpp/constraints/fwd.hh">
<polygon fill="white" stroke="black" points="281.397,-0.5 281.397,-19.5 397.397,-19.5 397.397,-0.5 281.397,-0.5"/>
<text text-anchor="middle" x="339.397" y="-7.5" font-family="Helvetica,sans-Serif" font-size="10.00">hpp/constraints/fwd.hh</text>
</a>
</g>
</g>
<!-- Node7&#45;&gt;Node13 -->
<g id="edge15" class="edge"><title>Node7&#45;&gt;Node13</title>
<path fill="none" stroke="midnightblue" d="M421.652,-56.324C406.078,-47.7428 382.02,-34.486 363.938,-24.5224"/>
<polygon fill="midnightblue" stroke="midnightblue" points="365.551,-21.4152 355.103,-19.6545 362.173,-27.546 365.551,-21.4152"/>
</g>
<!-- Node15&#45;&gt;Node7 -->
<g id="edge19" class="edge"><title>Node15&#45;&gt;Node7</title>
<path fill="none" stroke="midnightblue" d="M709.829,-244.779C663.398,-242.595 590.193,-233.49 537.397,-200 491.988,-171.196 459.745,-113.963 445.529,-84.8722"/>
<polygon fill="midnightblue" stroke="midnightblue" points="448.552,-83.0788 441.116,-75.5325 442.223,-86.0693 448.552,-83.0788"/>
</g>
<!-- Node15&#45;&gt;Node14 -->
<g id="edge20" class="edge"><title>Node15&#45;&gt;Node14</title>
<path fill="none" stroke="midnightblue" d="M751.069,-236.415C740.484,-209.11 707.427,-123.832 692.655,-85.7237"/>
<polygon fill="midnightblue" stroke="midnightblue" points="695.732,-83.9774 688.854,-75.9185 689.205,-86.5075 695.732,-83.9774"/>
</g>
<!-- Node16 -->
<g id="node16" class="node"><title>Node16</title>
<polygon fill="white" stroke="#bfbfbf" points="747.397,-174.5 747.397,-193.5 875.397,-193.5 875.397,-174.5 747.397,-174.5"/>
<text text-anchor="middle" x="811.397" y="-181.5" font-family="Helvetica,sans-Serif" font-size="10.00">boost/concept_check.hpp</text>
</g>
<!-- Node15&#45;&gt;Node16 -->
<g id="edge18" class="edge"><title>Node15&#45;&gt;Node16</title>
<path fill="none" stroke="midnightblue" d="M762.564,-236.403C771.283,-227.225 785.301,-212.47 796.086,-201.117"/>
<polygon fill="midnightblue" stroke="midnightblue" points="798.895,-203.241 803.245,-193.581 793.82,-198.42 798.895,-203.241"/>
</g>
<!-- Node17 -->
<g id="node17" class="node"><title>Node17</title>
<g id="a_node17"><a xlink:href="a00099.html" target="_top" xlink:title="hpp/core/constraint\l&#45;set.hh">
<polygon fill="white" stroke="black" points="546.397,-169 546.397,-199 646.397,-199 646.397,-169 546.397,-169"/>
<text text-anchor="start" x="554.397" y="-187" font-family="Helvetica,sans-Serif" font-size="10.00">hpp/core/constraint</text>
<text text-anchor="middle" x="596.397" y="-176" font-family="Helvetica,sans-Serif" font-size="10.00">&#45;set.hh</text>
</a>
</g>
</g>
<!-- Node15&#45;&gt;Node17 -->
<g id="edge21" class="edge"><title>Node15&#45;&gt;Node17</title>
<path fill="none" stroke="midnightblue" d="M731.759,-236.403C708.684,-227.641 672.222,-213.794 642.951,-202.679"/>
<polygon fill="midnightblue" stroke="midnightblue" points="643.922,-199.303 633.33,-199.025 641.436,-205.848 643.922,-199.303"/>
</g>
<!-- Node20 -->
<g id="node20" class="node"><title>Node20</title>
<polygon fill="white" stroke="#bfbfbf" points="893.897,-174.5 893.897,-193.5 1012.9,-193.5 1012.9,-174.5 893.897,-174.5"/>
<text text-anchor="middle" x="953.397" y="-181.5" font-family="Helvetica,sans-Serif" font-size="10.00">hpp/core/deprecated.hh</text>
</g>
<!-- Node15&#45;&gt;Node20 -->
<g id="edge27" class="edge"><title>Node15&#45;&gt;Node20</title>
<path fill="none" stroke="midnightblue" d="M782.909,-236.403C817.636,-225.933 876.434,-208.205 915.089,-196.55"/>
<polygon fill="midnightblue" stroke="midnightblue" points="916.374,-199.818 924.938,-193.581 914.353,-193.116 916.374,-199.818"/>
</g>
<!-- Node21 -->
<g id="node21" class="node"><title>Node21</title>
<g id="a_node21"><a xlink:href="a00143.html" target="_top" xlink:title="hpp/core/projection\l&#45;error.hh">
<polygon fill="white" stroke="black" points="1030.9,-169 1030.9,-199 1129.9,-199 1129.9,-169 1030.9,-169"/>
<text text-anchor="start" x="1038.9" y="-187" font-family="Helvetica,sans-Serif" font-size="10.00">hpp/core/projection</text>
<text text-anchor="middle" x="1080.4" y="-176" font-family="Helvetica,sans-Serif" font-size="10.00">&#45;error.hh</text>
</a>
</g>
</g>
<!-- Node15&#45;&gt;Node21 -->
<g id="edge28" class="edge"><title>Node15&#45;&gt;Node21</title>
<path fill="none" stroke="midnightblue" d="M799.016,-238.624C850.178,-231.06 936.754,-217.487 1020.91,-199.996"/>
<polygon fill="midnightblue" stroke="midnightblue" points="1021.82,-203.38 1030.89,-197.9 1020.39,-196.529 1021.82,-203.38"/>
</g>
<!-- Node17&#45;&gt;Node9 -->
<g id="edge22" class="edge"><title>Node17&#45;&gt;Node9</title>
<path fill="none" stroke="midnightblue" d="M567.821,-168.952C553.79,-160.386 538.248,-147.988 530.397,-132 513.98,-98.5663 527.218,-53.9277 537.101,-29.2832"/>
<polygon fill="midnightblue" stroke="midnightblue" points="540.46,-30.3286 541.161,-19.757 534.02,-27.5841 540.46,-30.3286"/>
</g>
<!-- Node18 -->
<g id="node18" class="node"><title>Node18</title>
<g id="a_node18"><a xlink:href="a00100.html" target="_top" xlink:title="hpp/core/constraint.hh">
<polygon fill="white" stroke="black" points="539.897,-112.5 539.897,-131.5 652.897,-131.5 652.897,-112.5 539.897,-112.5"/>
<text text-anchor="middle" x="596.397" y="-119.5" font-family="Helvetica,sans-Serif" font-size="10.00">hpp/core/constraint.hh</text>
</a>
</g>
</g>
<!-- Node17&#45;&gt;Node18 -->
<g id="edge23" class="edge"><title>Node17&#45;&gt;Node18</title>
<path fill="none" stroke="midnightblue" d="M596.397,-168.781C596.397,-160.781 596.397,-150.689 596.397,-142.017"/>
<polygon fill="midnightblue" stroke="midnightblue" points="599.897,-141.73 596.397,-131.731 592.897,-141.731 599.897,-141.73"/>
</g>
<!-- Node18&#45;&gt;Node7 -->
<g id="edge26" class="edge"><title>Node18&#45;&gt;Node7</title>
<path fill="none" stroke="midnightblue" d="M571.203,-112.444C544.454,-103.359 501.994,-88.9388 472.092,-78.7831"/>
<polygon fill="midnightblue" stroke="midnightblue" points="473.068,-75.4182 462.473,-75.5164 470.816,-82.0464 473.068,-75.4182"/>
</g>
<!-- Node18&#45;&gt;Node14 -->
<g id="edge25" class="edge"><title>Node18&#45;&gt;Node14</title>
<path fill="none" stroke="midnightblue" d="M610.696,-112.324C624.58,-103.9 645.889,-90.9709 662.201,-81.0741"/>
<polygon fill="midnightblue" stroke="midnightblue" points="664.399,-83.8341 671.133,-75.6545 660.768,-77.8495 664.399,-83.8341"/>
</g>
<!-- Node19 -->
<g id="node19" class="node"><title>Node19</title>
<polygon fill="white" stroke="#bfbfbf" points="566.397,-56.5 566.397,-75.5 618.397,-75.5 618.397,-56.5 566.397,-56.5"/>
<text text-anchor="middle" x="592.397" y="-63.5" font-family="Helvetica,sans-Serif" font-size="10.00">ostream</text>
</g>
<!-- Node18&#45;&gt;Node19 -->
<g id="edge24" class="edge"><title>Node18&#45;&gt;Node19</title>
<path fill="none" stroke="midnightblue" d="M595.737,-112.083C595.212,-105.006 594.461,-94.8611 593.803,-85.9865"/>
<polygon fill="midnightblue" stroke="midnightblue" points="597.275,-85.4652 593.045,-75.7511 590.294,-85.9823 597.275,-85.4652"/>
</g>
<!-- Node22 -->
<g id="node22" class="node"><title>Node22</title>
<polygon fill="white" stroke="#bfbfbf" points="1050.9,-112.5 1050.9,-131.5 1109.9,-131.5 1109.9,-112.5 1050.9,-112.5"/>
<text text-anchor="middle" x="1080.4" y="-119.5" font-family="Helvetica,sans-Serif" font-size="10.00">exception</text>
</g>
<!-- Node21&#45;&gt;Node22 -->
<g id="edge29" class="edge"><title>Node21&#45;&gt;Node22</title>
<path fill="none" stroke="midnightblue" d="M1080.4,-168.781C1080.4,-160.781 1080.4,-150.689 1080.4,-142.017"/>
<polygon fill="midnightblue" stroke="midnightblue" points="1083.9,-141.73 1080.4,-131.731 1076.9,-141.731 1083.9,-141.73"/>
</g>
</g>
</svg>
