<?xml version="1.0" encoding="UTF-8" standalone="no"?>
<!DOCTYPE svg PUBLIC "-//W3C//DTD SVG 1.1//EN"
 "http://www.w3.org/Graphics/SVG/1.1/DTD/svg11.dtd">
<!-- Generated by graphviz version 2.36.0 (20140111.2315)
 -->
<!-- Title: constraint.hh Pages: 1 -->
<svg width="990pt" height="376pt"
 viewBox="0.00 0.00 990.16 376.00" xmlns="http://www.w3.org/2000/svg" xmlns:xlink="http://www.w3.org/1999/xlink">
<g id="graph0" class="graph" transform="scale(1 1) rotate(0) translate(4 372)">
<title>constraint.hh</title>
<polygon fill="white" stroke="none" points="-4,4 -4,-372 986.157,-372 986.157,4 -4,4"/>
<!-- Node1 -->
<g id="node1" class="node"><title>Node1</title>
<polygon fill="#bfbfbf" stroke="black" points="138.5,-348.5 138.5,-367.5 211.5,-367.5 211.5,-348.5 138.5,-348.5"/>
<text text-anchor="middle" x="175" y="-355.5" font-family="Helvetica,sans-Serif" font-size="10.00">constraint.hh</text>
</g>
<!-- Node2 -->
<g id="node2" class="node"><title>Node2</title>
<g id="a_node2"><a xlink:href="a00094.html" target="_top" xlink:title="config&#45;projector.hh">
<polygon fill="white" stroke="black" points="-0.5,-118.5 -0.5,-137.5 96.5,-137.5 96.5,-118.5 -0.5,-118.5"/>
<text text-anchor="middle" x="48" y="-125.5" font-family="Helvetica,sans-Serif" font-size="10.00">config&#45;projector.hh</text>
</a>
</g>
</g>
<!-- Node1&#45;&gt;Node2 -->
<g id="edge1" class="edge"><title>Node1&#45;&gt;Node2</title>
<path fill="none" stroke="midnightblue" d="M165.288,-339.565C139.784,-293.778 71.5786,-171.33 52.8283,-137.668"/>
<polygon fill="midnightblue" stroke="midnightblue" points="162.253,-341.308 170.177,-348.341 168.368,-337.901 162.253,-341.308"/>
</g>
<!-- Node6 -->
<g id="node6" class="node"><title>Node6</title>
<g id="a_node6"><a xlink:href="a00099.html" target="_top" xlink:title="constraint&#45;set.hh">
<polygon fill="white" stroke="black" points="243.5,-292.5 243.5,-311.5 332.5,-311.5 332.5,-292.5 243.5,-292.5"/>
<text text-anchor="middle" x="288" y="-299.5" font-family="Helvetica,sans-Serif" font-size="10.00">constraint&#45;set.hh</text>
</a>
</g>
</g>
<!-- Node1&#45;&gt;Node6 -->
<g id="edge5" class="edge"><title>Node1&#45;&gt;Node6</title>
<path fill="none" stroke="midnightblue" d="M202.003,-344.096C223.114,-334.007 251.862,-320.27 270.179,-311.516"/>
<polygon fill="midnightblue" stroke="midnightblue" points="200.419,-340.974 192.905,-348.444 203.437,-347.29 200.419,-340.974"/>
</g>
<!-- Node3 -->
<g id="node3" class="node"><title>Node3</title>
<g id="a_node3"><a xlink:href="a00150.html" target="_top" xlink:title="steering&#45;method&#45;straight.hh">
<polygon fill="white" stroke="black" points="241.5,-56.5 241.5,-75.5 376.5,-75.5 376.5,-56.5 241.5,-56.5"/>
<text text-anchor="middle" x="309" y="-63.5" font-family="Helvetica,sans-Serif" font-size="10.00">steering&#45;method&#45;straight.hh</text>
</a>
</g>
</g>
<!-- Node2&#45;&gt;Node3 -->
<g id="edge2" class="edge"><title>Node2&#45;&gt;Node3</title>
<path fill="none" stroke="midnightblue" d="M89.4868,-115.875C94.7017,-114.537 99.9694,-113.216 105,-112 161.228,-98.4059 226.581,-84.2829 267.861,-75.5671"/>
<polygon fill="midnightblue" stroke="midnightblue" points="88.399,-112.541 79.6,-118.442 90.1587,-119.316 88.399,-112.541"/>
</g>
<!-- Node5 -->
<g id="node5" class="node"><title>Node5</title>
<g id="a_node5"><a xlink:href="a00138.html" target="_top" xlink:title="problem&#45;solver.hh">
<polygon fill="white" stroke="black" points="65,-56.5 65,-75.5 159,-75.5 159,-56.5 65,-56.5"/>
<text text-anchor="middle" x="112" y="-63.5" font-family="Helvetica,sans-Serif" font-size="10.00">problem&#45;solver.hh</text>
</a>
</g>
</g>
<!-- Node2&#45;&gt;Node5 -->
<g id="edge4" class="edge"><title>Node2&#45;&gt;Node5</title>
<path fill="none" stroke="midnightblue" d="M64.5113,-111.521C76.713,-100.082 92.8742,-84.9305 102.847,-75.5806"/>
<polygon fill="midnightblue" stroke="midnightblue" points="62.0712,-109.011 57.1696,-118.403 66.8588,-114.117 62.0712,-109.011"/>
</g>
<!-- Node4 -->
<g id="node4" class="node"><title>Node4</title>
<g id="a_node4"><a xlink:href="a00116.html" target="_top" xlink:title="gradient&#45;based.hh">
<polygon fill="white" stroke="black" points="605,-0.5 605,-19.5 699,-19.5 699,-0.5 605,-0.5"/>
<text text-anchor="middle" x="652" y="-7.5" font-family="Helvetica,sans-Serif" font-size="10.00">gradient&#45;based.hh</text>
</a>
</g>
</g>
<!-- Node3&#45;&gt;Node4 -->
<g id="edge3" class="edge"><title>Node3&#45;&gt;Node4</title>
<path fill="none" stroke="midnightblue" d="M373.415,-54.8588C440.731,-44.261 544.74,-27.8864 604.802,-18.4307"/>
<polygon fill="midnightblue" stroke="midnightblue" points="372.683,-51.4309 363.349,-56.4435 373.772,-58.3457 372.683,-51.4309"/>
</g>
<!-- Node7 -->
<g id="node7" class="node"><title>Node7</title>
<g id="a_node7"><a xlink:href="a00135.html" target="_top" xlink:title="path.hh">
<polygon fill="white" stroke="black" points="514.5,-236.5 514.5,-255.5 563.5,-255.5 563.5,-236.5 514.5,-236.5"/>
<text text-anchor="middle" x="539" y="-243.5" font-family="Helvetica,sans-Serif" font-size="10.00">path.hh</text>
</a>
</g>
</g>
<!-- Node6&#45;&gt;Node7 -->
<g id="edge6" class="edge"><title>Node6&#45;&gt;Node7</title>
<path fill="none" stroke="midnightblue" d="M337.689,-290.31C390.957,-278.85 473.367,-261.12 514.251,-252.325"/>
<polygon fill="midnightblue" stroke="midnightblue" points="336.812,-286.918 327.772,-292.444 338.284,-293.762 336.812,-286.918"/>
</g>
<!-- Node8 -->
<g id="node8" class="node"><title>Node8</title>
<g id="a_node8"><a xlink:href="a00117.html" target="_top" xlink:title="interpolated&#45;path.hh">
<polygon fill="white" stroke="black" points="433,-180.5 433,-199.5 535,-199.5 535,-180.5 433,-180.5"/>
<text text-anchor="middle" x="484" y="-187.5" font-family="Helvetica,sans-Serif" font-size="10.00">interpolated&#45;path.hh</text>
</a>
</g>
</g>
<!-- Node7&#45;&gt;Node8 -->
<g id="edge7" class="edge"><title>Node7&#45;&gt;Node8</title>
<path fill="none" stroke="midnightblue" d="M522.706,-229.002C512.959,-219.433 500.947,-207.639 492.913,-199.751"/>
<polygon fill="midnightblue" stroke="midnightblue" points="520.33,-231.575 529.918,-236.083 525.234,-226.58 520.33,-231.575"/>
</g>
<!-- Node11 -->
<g id="node11" class="node"><title>Node11</title>
<g id="a_node11"><a xlink:href="a00134.html" target="_top" xlink:title="path&#45;vector.hh">
<polygon fill="white" stroke="black" points="780.5,-180.5 780.5,-199.5 859.5,-199.5 859.5,-180.5 780.5,-180.5"/>
<text text-anchor="middle" x="820" y="-187.5" font-family="Helvetica,sans-Serif" font-size="10.00">path&#45;vector.hh</text>
</a>
</g>
</g>
<!-- Node7&#45;&gt;Node11 -->
<g id="edge10" class="edge"><title>Node7&#45;&gt;Node11</title>
<path fill="none" stroke="midnightblue" d="M573.779,-238.316C626.233,-228.236 725.301,-209.198 780.438,-198.603"/>
<polygon fill="midnightblue" stroke="midnightblue" points="573.097,-234.883 563.937,-240.208 574.418,-241.758 573.097,-234.883"/>
</g>
<!-- Node13 -->
<g id="node13" class="node"><title>Node13</title>
<g id="a_node13"><a xlink:href="a00127.html" target="_top" xlink:title="partial&#45;spline&#45;path.hh">
<polygon fill="white" stroke="black" points="730.5,-118.5 730.5,-137.5 837.5,-137.5 837.5,-118.5 730.5,-118.5"/>
<text text-anchor="middle" x="784" y="-125.5" font-family="Helvetica,sans-Serif" font-size="10.00">partial&#45;spline&#45;path.hh</text>
</a>
</g>
</g>
<!-- Node7&#45;&gt;Node13 -->
<g id="edge28" class="edge"><title>Node7&#45;&gt;Node13</title>
<path fill="none" stroke="midnightblue" d="M573.406,-234.718C599.152,-226.547 634.951,-214.164 665,-200 705.693,-180.818 750.433,-151.775 771.594,-137.513"/>
<polygon fill="midnightblue" stroke="midnightblue" points="572.222,-231.421 563.721,-237.744 574.31,-238.102 572.222,-231.421"/>
</g>
<!-- Node14 -->
<g id="node14" class="node"><title>Node14</title>
<g id="a_node14"><a xlink:href="a00151.html" target="_top" xlink:title="steering&#45;method.hh">
<polygon fill="white" stroke="black" points="259,-180.5 259,-199.5 359,-199.5 359,-180.5 259,-180.5"/>
<text text-anchor="middle" x="309" y="-187.5" font-family="Helvetica,sans-Serif" font-size="10.00">steering&#45;method.hh</text>
</a>
</g>
</g>
<!-- Node7&#45;&gt;Node14 -->
<g id="edge14" class="edge"><title>Node7&#45;&gt;Node14</title>
<path fill="none" stroke="midnightblue" d="M504.445,-236.887C461.67,-226.844 389.143,-209.816 345.492,-199.568"/>
<polygon fill="midnightblue" stroke="midnightblue" points="503.851,-240.343 514.386,-239.221 505.451,-233.528 503.851,-240.343"/>
</g>
<!-- Node17 -->
<g id="node17" class="node"><title>Node17</title>
<g id="a_node17"><a xlink:href="a00152.html" target="_top" xlink:title="straight&#45;path.hh">
<polygon fill="white" stroke="black" points="553,-180.5 553,-199.5 637,-199.5 637,-180.5 553,-180.5"/>
<text text-anchor="middle" x="595" y="-187.5" font-family="Helvetica,sans-Serif" font-size="10.00">straight&#45;path.hh</text>
</a>
</g>
</g>
<!-- Node7&#45;&gt;Node17 -->
<g id="edge21" class="edge"><title>Node7&#45;&gt;Node17</title>
<path fill="none" stroke="midnightblue" d="M555.33,-229.253C565.265,-219.673 577.588,-207.791 585.839,-199.834"/>
<polygon fill="midnightblue" stroke="midnightblue" points="552.766,-226.863 547.997,-236.324 557.625,-231.902 552.766,-226.863"/>
</g>
<!-- Node18 -->
<g id="node18" class="node"><title>Node18</title>
<g id="a_node18"><a xlink:href="a00131.html" target="_top" xlink:title="path&#45;projector.hh">
<polygon fill="white" stroke="black" points="623.5,-118.5 623.5,-137.5 712.5,-137.5 712.5,-118.5 623.5,-118.5"/>
<text text-anchor="middle" x="668" y="-125.5" font-family="Helvetica,sans-Serif" font-size="10.00">path&#45;projector.hh</text>
</a>
</g>
</g>
<!-- Node7&#45;&gt;Node18 -->
<g id="edge29" class="edge"><title>Node7&#45;&gt;Node18</title>
<path fill="none" stroke="midnightblue" d="M573.674,-238.171C596.809,-231.92 626.302,-220.424 645,-200 661.448,-182.033 666.142,-152.164 667.475,-137.564"/>
<polygon fill="midnightblue" stroke="midnightblue" points="572.734,-234.798 563.877,-240.613 574.427,-241.59 572.734,-234.798"/>
</g>
<!-- Node22 -->
<g id="node22" class="node"><title>Node22</title>
<g id="a_node22"><a xlink:href="a00145.html" target="_top" xlink:title="reeds&#45;shepp&#45;path.hh">
<polygon fill="white" stroke="black" points="120.5,-180.5 120.5,-199.5 225.5,-199.5 225.5,-180.5 120.5,-180.5"/>
<text text-anchor="middle" x="173" y="-187.5" font-family="Helvetica,sans-Serif" font-size="10.00">reeds&#45;shepp&#45;path.hh</text>
</a>
</g>
</g>
<!-- Node7&#45;&gt;Node22 -->
<g id="edge30" class="edge"><title>Node7&#45;&gt;Node22</title>
<path fill="none" stroke="midnightblue" d="M504.39,-239.894C440.092,-230.407 301.856,-210.012 225.814,-198.792"/>
<polygon fill="midnightblue" stroke="midnightblue" points="504.014,-243.376 514.417,-241.373 505.035,-236.451 504.014,-243.376"/>
</g>
<!-- Node9 -->
<g id="node9" class="node"><title>Node9</title>
<g id="a_node9"><a xlink:href="a00118.html" target="_top" xlink:title="interpolated&#45;steering\l&#45;method.hh">
<polygon fill="white" stroke="black" points="337,-113 337,-143 441,-143 441,-113 337,-113"/>
<text text-anchor="start" x="345" y="-131" font-family="Helvetica,sans-Serif" font-size="10.00">interpolated&#45;steering</text>
<text text-anchor="middle" x="389" y="-120" font-family="Helvetica,sans-Serif" font-size="10.00">&#45;method.hh</text>
</a>
</g>
</g>
<!-- Node8&#45;&gt;Node9 -->
<g id="edge8" class="edge"><title>Node8&#45;&gt;Node9</title>
<path fill="none" stroke="midnightblue" d="M461.66,-174.891C446.508,-165.321 426.553,-152.718 411.39,-143.141"/>
<polygon fill="midnightblue" stroke="midnightblue" points="460.065,-178.023 470.389,-180.403 463.803,-172.104 460.065,-178.023"/>
</g>
<!-- Node10 -->
<g id="node10" class="node"><title>Node10</title>
<g id="a_node10"><a xlink:href="a00088.html" target="_top" xlink:title="body&#45;pair&#45;collision.hh">
<polygon fill="white" stroke="black" points="459,-118.5 459,-137.5 567,-137.5 567,-118.5 459,-118.5"/>
<text text-anchor="middle" x="513" y="-125.5" font-family="Helvetica,sans-Serif" font-size="10.00">body&#45;pair&#45;collision.hh</text>
</a>
</g>
</g>
<!-- Node8&#45;&gt;Node10 -->
<g id="edge9" class="edge"><title>Node8&#45;&gt;Node10</title>
<path fill="none" stroke="midnightblue" d="M492.61,-171.186C497.975,-160.087 504.635,-146.307 508.853,-137.581"/>
<polygon fill="midnightblue" stroke="midnightblue" points="489.356,-169.877 488.155,-180.403 495.658,-172.923 489.356,-169.877"/>
</g>
<!-- Node11&#45;&gt;Node4 -->
<g id="edge12" class="edge"><title>Node11&#45;&gt;Node4</title>
<path fill="none" stroke="midnightblue" d="M870.114,-182.842C926.175,-173.816 1005.41,-153.367 975,-112 941.985,-67.0856 780.458,-33.2645 699.066,-18.7675"/>
<polygon fill="midnightblue" stroke="midnightblue" points="869.303,-179.425 859.947,-184.396 870.361,-186.344 869.303,-179.425"/>
</g>
<!-- Node12 -->
<g id="node12" class="node"><title>Node12</title>
<g id="a_node12"><a xlink:href="a00093.html" target="_top" xlink:title="config&#45;optimization.hh">
<polygon fill="white" stroke="black" points="855,-118.5 855,-137.5 967,-137.5 967,-118.5 855,-118.5"/>
<text text-anchor="middle" x="911" y="-125.5" font-family="Helvetica,sans-Serif" font-size="10.00">config&#45;optimization.hh</text>
</a>
</g>
</g>
<!-- Node11&#45;&gt;Node12 -->
<g id="edge11" class="edge"><title>Node11&#45;&gt;Node12</title>
<path fill="none" stroke="midnightblue" d="M841.52,-174.811C859.063,-163.244 883.265,-147.287 897.986,-137.581"/>
<polygon fill="midnightblue" stroke="midnightblue" points="839.46,-171.977 833.038,-180.403 843.313,-177.821 839.46,-171.977"/>
</g>
<!-- Node11&#45;&gt;Node13 -->
<g id="edge13" class="edge"><title>Node11&#45;&gt;Node13</title>
<path fill="none" stroke="midnightblue" d="M809.515,-171.525C802.821,-160.369 794.438,-146.396 789.148,-137.581"/>
<polygon fill="midnightblue" stroke="midnightblue" points="806.696,-173.629 814.842,-180.403 812.698,-170.028 806.696,-173.629"/>
</g>
<!-- Node14&#45;&gt;Node3 -->
<g id="edge18" class="edge"><title>Node14&#45;&gt;Node3</title>
<path fill="none" stroke="midnightblue" d="M309,-170.191C309,-143.397 309,-95.314 309,-75.6944"/>
<polygon fill="midnightblue" stroke="midnightblue" points="305.5,-170.226 309,-180.226 312.5,-170.226 305.5,-170.226"/>
</g>
<!-- Node14&#45;&gt;Node9 -->
<g id="edge19" class="edge"><title>Node14&#45;&gt;Node9</title>
<path fill="none" stroke="midnightblue" d="M328.539,-174.346C341.205,-164.846 357.617,-152.537 370.146,-143.141"/>
<polygon fill="midnightblue" stroke="midnightblue" points="326.362,-171.603 320.462,-180.403 330.562,-177.203 326.362,-171.603"/>
</g>
<!-- Node15 -->
<g id="node15" class="node"><title>Node15</title>
<g id="a_node15"><a xlink:href="a00140.html" target="_top" xlink:title="problem.hh">
<polygon fill="white" stroke="black" points="215.5,-118.5 215.5,-137.5 280.5,-137.5 280.5,-118.5 215.5,-118.5"/>
<text text-anchor="middle" x="248" y="-125.5" font-family="Helvetica,sans-Serif" font-size="10.00">problem.hh</text>
</a>
</g>
</g>
<!-- Node14&#45;&gt;Node15 -->
<g id="edge15" class="edge"><title>Node14&#45;&gt;Node15</title>
<path fill="none" stroke="midnightblue" d="M292.929,-173.193C281.34,-161.793 266.139,-146.841 256.724,-137.581"/>
<polygon fill="midnightblue" stroke="midnightblue" points="290.677,-175.886 300.26,-180.403 295.585,-170.896 290.677,-175.886"/>
</g>
<!-- Node16 -->
<g id="node16" class="node"><title>Node16</title>
<g id="a_node16"><a xlink:href="a00146.html" target="_top" xlink:title="reeds&#45;shepp.hh">
<polygon fill="white" stroke="black" points="114.5,-118.5 114.5,-137.5 197.5,-137.5 197.5,-118.5 114.5,-118.5"/>
<text text-anchor="middle" x="156" y="-125.5" font-family="Helvetica,sans-Serif" font-size="10.00">reeds&#45;shepp.hh</text>
</a>
</g>
</g>
<!-- Node14&#45;&gt;Node16 -->
<g id="edge20" class="edge"><title>Node14&#45;&gt;Node16</title>
<path fill="none" stroke="midnightblue" d="M277.583,-176.68C247.851,-165.02 203.993,-147.821 177.881,-137.581"/>
<polygon fill="midnightblue" stroke="midnightblue" points="276.491,-180.011 287.079,-180.403 279.047,-173.494 276.491,-180.011"/>
</g>
<!-- Node15&#45;&gt;Node3 -->
<g id="edge16" class="edge"><title>Node15&#45;&gt;Node3</title>
<path fill="none" stroke="midnightblue" d="M264.071,-111.193C275.66,-99.7935 290.861,-84.8414 300.276,-75.5806"/>
<polygon fill="midnightblue" stroke="midnightblue" points="261.415,-108.896 256.74,-118.403 266.323,-113.886 261.415,-108.896"/>
</g>
<!-- Node15&#45;&gt;Node5 -->
<g id="edge17" class="edge"><title>Node15&#45;&gt;Node5</title>
<path fill="none" stroke="midnightblue" d="M219.034,-114.221C192.631,-102.573 154.358,-85.6874 131.449,-75.5806"/>
<polygon fill="midnightblue" stroke="midnightblue" points="217.953,-117.569 228.515,-118.403 220.778,-111.165 217.953,-117.569"/>
</g>
<!-- Node17&#45;&gt;Node3 -->
<g id="edge22" class="edge"><title>Node17&#45;&gt;Node3</title>
<path fill="none" stroke="midnightblue" d="M595.787,-170.125C595.426,-152.495 591.898,-126.749 576,-112 547.741,-85.7839 446.112,-74.6891 376.716,-70.1006"/>
<polygon fill="midnightblue" stroke="midnightblue" points="592.285,-170.299 595.665,-180.34 599.284,-170.382 592.285,-170.299"/>
</g>
<!-- Node17&#45;&gt;Node10 -->
<g id="edge27" class="edge"><title>Node17&#45;&gt;Node10</title>
<path fill="none" stroke="midnightblue" d="M575.172,-174.492C559.401,-162.952 537.87,-147.198 524.727,-137.581"/>
<polygon fill="midnightblue" stroke="midnightblue" points="573.114,-177.323 583.251,-180.403 577.248,-171.674 573.114,-177.323"/>
</g>
<!-- Node17&#45;&gt;Node18 -->
<g id="edge23" class="edge"><title>Node17&#45;&gt;Node18</title>
<path fill="none" stroke="midnightblue" d="M613.437,-173.846C627.399,-162.371 646.076,-147.02 657.56,-137.581"/>
<polygon fill="midnightblue" stroke="midnightblue" points="610.962,-171.35 605.459,-180.403 615.407,-176.758 610.962,-171.35"/>
</g>
<!-- Node19 -->
<g id="node19" class="node"><title>Node19</title>
<g id="a_node19"><a xlink:href="a00104.html" target="_top" xlink:title="dichotomy.hh">
<polygon fill="white" stroke="black" points="630.5,-56.5 630.5,-75.5 705.5,-75.5 705.5,-56.5 630.5,-56.5"/>
<text text-anchor="middle" x="668" y="-63.5" font-family="Helvetica,sans-Serif" font-size="10.00">dichotomy.hh</text>
</a>
</g>
</g>
<!-- Node18&#45;&gt;Node19 -->
<g id="edge24" class="edge"><title>Node18&#45;&gt;Node19</title>
<path fill="none" stroke="midnightblue" d="M668,-108.16C668,-97.2482 668,-84.04 668,-75.5806"/>
<polygon fill="midnightblue" stroke="midnightblue" points="664.5,-108.403 668,-118.403 671.5,-108.403 664.5,-108.403"/>
</g>
<!-- Node20 -->
<g id="node20" class="node"><title>Node20</title>
<g id="a_node20"><a xlink:href="a00114.html" target="_top" xlink:title="global.hh">
<polygon fill="white" stroke="black" points="723,-56.5 723,-75.5 779,-75.5 779,-56.5 723,-56.5"/>
<text text-anchor="middle" x="751" y="-63.5" font-family="Helvetica,sans-Serif" font-size="10.00">global.hh</text>
</a>
</g>
</g>
<!-- Node18&#45;&gt;Node20 -->
<g id="edge25" class="edge"><title>Node18&#45;&gt;Node20</title>
<path fill="none" stroke="midnightblue" d="M688.07,-112.492C704.033,-100.952 725.827,-85.1976 739.13,-75.5806"/>
<polygon fill="midnightblue" stroke="midnightblue" points="685.946,-109.708 679.892,-118.403 690.047,-115.381 685.946,-109.708"/>
</g>
<!-- Node21 -->
<g id="node21" class="node"><title>Node21</title>
<g id="a_node21"><a xlink:href="a00142.html" target="_top" xlink:title="progressive.hh">
<polygon fill="white" stroke="black" points="532,-56.5 532,-75.5 612,-75.5 612,-56.5 532,-56.5"/>
<text text-anchor="middle" x="572" y="-63.5" font-family="Helvetica,sans-Serif" font-size="10.00">progressive.hh</text>
</a>
</g>
</g>
<!-- Node18&#45;&gt;Node21 -->
<g id="edge26" class="edge"><title>Node18&#45;&gt;Node21</title>
<path fill="none" stroke="midnightblue" d="M645.552,-112.97C627.025,-101.391 601.33,-85.3312 585.729,-75.5806"/>
<polygon fill="midnightblue" stroke="midnightblue" points="643.911,-116.071 654.246,-118.403 647.621,-110.135 643.911,-116.071"/>
</g>
<!-- Node22&#45;&gt;Node16 -->
<g id="edge31" class="edge"><title>Node22&#45;&gt;Node16</title>
<path fill="none" stroke="midnightblue" d="M167.759,-170.503C164.649,-159.527 160.853,-146.129 158.431,-137.581"/>
<polygon fill="midnightblue" stroke="midnightblue" points="164.471,-171.736 170.564,-180.403 171.206,-169.828 164.471,-171.736"/>
</g>
</g>
</svg>
