<?xml version="1.0" encoding="UTF-8" standalone="no"?>
<!DOCTYPE svg PUBLIC "-//W3C//DTD SVG 1.1//EN"
 "http://www.w3.org/Graphics/SVG/1.1/DTD/svg11.dtd">
<!-- Generated by graphviz version 2.36.0 (20140111.2315)
 -->
<!-- Title: global.hh Pages: 1 -->
<svg width="718pt" height="432pt"
 viewBox="0.00 0.00 718.00 432.00" xmlns="http://www.w3.org/2000/svg" xmlns:xlink="http://www.w3.org/1999/xlink">
<g id="graph0" class="graph" transform="scale(1 1) rotate(0) translate(4 428)">
<title>global.hh</title>
<polygon fill="white" stroke="none" points="-4,4 -4,-428 714,-428 714,4 -4,4"/>
<!-- Node1 -->
<g id="node1" class="node"><title>Node1</title>
<polygon fill="#bfbfbf" stroke="black" points="328,-404.5 328,-423.5 384,-423.5 384,-404.5 328,-404.5"/>
<text text-anchor="middle" x="356" y="-411.5" font-family="Helvetica,sans-Serif" font-size="10.00">global.hh</text>
</g>
<!-- Node2 -->
<g id="node2" class="node"><title>Node2</title>
<g id="a_node2"><a xlink:href="a00131.html" target="_top" xlink:title="hpp/core/path&#45;projector.hh">
<polygon fill="white" stroke="black" points="291,-348.5 291,-367.5 421,-367.5 421,-348.5 291,-348.5"/>
<text text-anchor="middle" x="356" y="-355.5" font-family="Helvetica,sans-Serif" font-size="10.00">hpp/core/path&#45;projector.hh</text>
</a>
</g>
</g>
<!-- Node1&#45;&gt;Node2 -->
<g id="edge1" class="edge"><title>Node1&#45;&gt;Node2</title>
<path fill="none" stroke="midnightblue" d="M356,-404.083C356,-397.006 356,-386.861 356,-377.986"/>
<polygon fill="midnightblue" stroke="midnightblue" points="359.5,-377.751 356,-367.751 352.5,-377.751 359.5,-377.751"/>
</g>
<!-- Node3 -->
<g id="node3" class="node"><title>Node3</title>
<polygon fill="white" stroke="#bfbfbf" points="8.5,-56.5 8.5,-75.5 105.5,-75.5 105.5,-56.5 8.5,-56.5"/>
<text text-anchor="middle" x="57" y="-63.5" font-family="Helvetica,sans-Serif" font-size="10.00">hpp/core/config.hh</text>
</g>
<!-- Node2&#45;&gt;Node3 -->
<g id="edge2" class="edge"><title>Node2&#45;&gt;Node3</title>
<path fill="none" stroke="midnightblue" d="M290.704,-350.319C187.93,-337.969 0,-307.161 0,-247 0,-247 0,-247 0,-183 0,-144.148 26.0743,-104.788 42.9524,-83.3787"/>
<polygon fill="midnightblue" stroke="midnightblue" points="45.6921,-85.5574 49.3127,-75.6004 40.2731,-81.1263 45.6921,-85.5574"/>
</g>
<!-- Node4 -->
<g id="node4" class="node"><title>Node4</title>
<g id="a_node4"><a xlink:href="a00001.html" target="_top" xlink:title="hpp/core/fwd.hh">
<polygon fill="white" stroke="black" points="473,-56.5 473,-75.5 559,-75.5 559,-56.5 473,-56.5"/>
<text text-anchor="middle" x="516" y="-63.5" font-family="Helvetica,sans-Serif" font-size="10.00">hpp/core/fwd.hh</text>
</a>
</g>
</g>
<!-- Node2&#45;&gt;Node4 -->
<g id="edge3" class="edge"><title>Node2&#45;&gt;Node4</title>
<path fill="none" stroke="midnightblue" d="M421.342,-350.199C523.628,-337.717 710,-306.772 710,-247 710,-247 710,-247 710,-183 710,-117.105 626.533,-87.7468 569.096,-75.3451"/>
<polygon fill="midnightblue" stroke="midnightblue" points="569.554,-71.8663 559.055,-73.2904 568.15,-78.7242 569.554,-71.8663"/>
</g>
<!-- Node11 -->
<g id="node11" class="node"><title>Node11</title>
<g id="a_node11"><a xlink:href="a00135.html" target="_top" xlink:title="hpp/core/path.hh">
<polygon fill="white" stroke="black" points="312.5,-236.5 312.5,-255.5 401.5,-255.5 401.5,-236.5 312.5,-236.5"/>
<text text-anchor="middle" x="357" y="-243.5" font-family="Helvetica,sans-Serif" font-size="10.00">hpp/core/path.hh</text>
</a>
</g>
</g>
<!-- Node2&#45;&gt;Node11 -->
<g id="edge10" class="edge"><title>Node2&#45;&gt;Node11</title>
<path fill="none" stroke="midnightblue" d="M362.89,-348.319C369.269,-339.684 378.308,-325.77 382,-312 386.485,-295.273 378.125,-276.915 369.89,-263.988"/>
<polygon fill="midnightblue" stroke="midnightblue" points="372.674,-261.861 364.101,-255.636 366.921,-265.849 372.674,-261.861"/>
</g>
<!-- Node19 -->
<g id="node19" class="node"><title>Node19</title>
<g id="a_node19"><a xlink:href="a00152.html" target="_top" xlink:title="hpp/core/straight&#45;path.hh">
<polygon fill="white" stroke="black" points="248.5,-292.5 248.5,-311.5 373.5,-311.5 373.5,-292.5 248.5,-292.5"/>
<text text-anchor="middle" x="311" y="-299.5" font-family="Helvetica,sans-Serif" font-size="10.00">hpp/core/straight&#45;path.hh</text>
</a>
</g>
</g>
<!-- Node2&#45;&gt;Node19 -->
<g id="edge23" class="edge"><title>Node2&#45;&gt;Node19</title>
<path fill="none" stroke="midnightblue" d="M348.569,-348.083C342.147,-340.377 332.694,-329.033 324.878,-319.653"/>
<polygon fill="midnightblue" stroke="midnightblue" points="327.383,-317.193 318.293,-311.751 322.006,-321.674 327.383,-317.193"/>
</g>
<!-- Node5 -->
<g id="node5" class="node"><title>Node5</title>
<polygon fill="white" stroke="#bfbfbf" points="440,-0.5 440,-19.5 484,-19.5 484,-0.5 440,-0.5"/>
<text text-anchor="middle" x="462" y="-7.5" font-family="Helvetica,sans-Serif" font-size="10.00">vector</text>
</g>
<!-- Node4&#45;&gt;Node5 -->
<g id="edge4" class="edge"><title>Node4&#45;&gt;Node5</title>
<path fill="none" stroke="midnightblue" d="M507.083,-56.083C499.22,-48.2195 487.569,-36.5688 478.081,-27.0813"/>
<polygon fill="midnightblue" stroke="midnightblue" points="480.297,-24.3473 470.751,-19.7511 475.347,-29.2971 480.297,-24.3473"/>
</g>
<!-- Node6 -->
<g id="node6" class="node"><title>Node6</title>
<polygon fill="white" stroke="#bfbfbf" points="188.5,-0.5 188.5,-19.5 231.5,-19.5 231.5,-0.5 188.5,-0.5"/>
<text text-anchor="middle" x="210" y="-7.5" font-family="Helvetica,sans-Serif" font-size="10.00">deque</text>
</g>
<!-- Node4&#45;&gt;Node6 -->
<g id="edge5" class="edge"><title>Node4&#45;&gt;Node6</title>
<path fill="none" stroke="midnightblue" d="M472.807,-57.3776C410.435,-46.3708 296.605,-26.2832 241.523,-16.5629"/>
<polygon fill="midnightblue" stroke="midnightblue" points="242.091,-13.109 231.634,-14.8178 240.874,-20.0025 242.091,-13.109"/>
</g>
<!-- Node7 -->
<g id="node7" class="node"><title>Node7</title>
<polygon fill="white" stroke="#bfbfbf" points="501.5,-0.5 501.5,-19.5 530.5,-19.5 530.5,-0.5 501.5,-0.5"/>
<text text-anchor="middle" x="516" y="-7.5" font-family="Helvetica,sans-Serif" font-size="10.00">list</text>
</g>
<!-- Node4&#45;&gt;Node7 -->
<g id="edge6" class="edge"><title>Node4&#45;&gt;Node7</title>
<path fill="none" stroke="midnightblue" d="M516,-56.083C516,-49.0059 516,-38.8611 516,-29.9865"/>
<polygon fill="midnightblue" stroke="midnightblue" points="519.5,-29.751 516,-19.7511 512.5,-29.7511 519.5,-29.751"/>
</g>
<!-- Node8 -->
<g id="node8" class="node"><title>Node8</title>
<polygon fill="white" stroke="#bfbfbf" points="549,-0.5 549,-19.5 579,-19.5 579,-0.5 549,-0.5"/>
<text text-anchor="middle" x="564" y="-7.5" font-family="Helvetica,sans-Serif" font-size="10.00">set</text>
</g>
<!-- Node4&#45;&gt;Node8 -->
<g id="edge7" class="edge"><title>Node4&#45;&gt;Node8</title>
<path fill="none" stroke="midnightblue" d="M523.926,-56.083C530.846,-48.2982 541.065,-36.8015 549.452,-27.3665"/>
<polygon fill="midnightblue" stroke="midnightblue" points="552.194,-29.5505 556.221,-19.7511 546.962,-24.8999 552.194,-29.5505"/>
</g>
<!-- Node9 -->
<g id="node9" class="node"><title>Node9</title>
<polygon fill="white" stroke="#bfbfbf" points="597,-0.5 597,-19.5 691,-19.5 691,-0.5 597,-0.5"/>
<text text-anchor="middle" x="644" y="-7.5" font-family="Helvetica,sans-Serif" font-size="10.00">hpp/util/pointer.hh</text>
</g>
<!-- Node4&#45;&gt;Node9 -->
<g id="edge8" class="edge"><title>Node4&#45;&gt;Node9</title>
<path fill="none" stroke="midnightblue" d="M536.282,-56.4435C557.347,-47.5566 590.517,-33.5632 614.486,-23.4514"/>
<polygon fill="midnightblue" stroke="midnightblue" points="615.96,-26.6283 623.813,-19.5164 613.239,-20.1787 615.96,-26.6283"/>
</g>
<!-- Node10 -->
<g id="node10" class="node"><title>Node10</title>
<g id="a_node10"><a doxygen="https://jmirabel.github.io/hpp-doc/api/hpp-constraints/doxygen-html/hpp-constraints.doxytag:https://jmirabel.github.io/hpp-doc/api/hpp-constraints/doxygen-html/" xlink:href="https://jmirabel.github.io/hpp-doc/api/hpp-constraints/doxygen-html/a00001.html" target="_top" xlink:title="hpp/constraints/fwd.hh">
<polygon fill="white" stroke="black" points="306,-0.5 306,-19.5 422,-19.5 422,-0.5 306,-0.5"/>
<text text-anchor="middle" x="364" y="-7.5" font-family="Helvetica,sans-Serif" font-size="10.00">hpp/constraints/fwd.hh</text>
</a>
</g>
</g>
<!-- Node4&#45;&gt;Node10 -->
<g id="edge9" class="edge"><title>Node4&#45;&gt;Node10</title>
<path fill="none" stroke="midnightblue" d="M491.915,-56.4435C466.455,-47.3986 426.106,-33.064 397.541,-22.9158"/>
<polygon fill="midnightblue" stroke="midnightblue" points="398.567,-19.5661 387.972,-19.5164 396.223,-26.1622 398.567,-19.5661"/>
</g>
<!-- Node11&#45;&gt;Node3 -->
<g id="edge13" class="edge"><title>Node11&#45;&gt;Node3</title>
<path fill="none" stroke="midnightblue" d="M312.362,-242.957C246.151,-239.02 126.346,-228.125 95,-200 62.1788,-170.551 56.891,-114.92 56.5244,-85.819"/>
<polygon fill="midnightblue" stroke="midnightblue" points="60.0247,-85.7768 56.5857,-75.7557 53.0248,-85.7342 60.0247,-85.7768"/>
</g>
<!-- Node11&#45;&gt;Node4 -->
<g id="edge12" class="edge"><title>Node11&#45;&gt;Node4</title>
<path fill="none" stroke="midnightblue" d="M401.612,-242.473C432.765,-238.232 472.783,-227.371 496,-200 523.48,-167.604 522.002,-114.081 518.847,-85.8217"/>
<polygon fill="midnightblue" stroke="midnightblue" points="522.291,-85.1608 517.519,-75.7014 515.35,-86.0719 522.291,-85.1608"/>
</g>
<!-- Node12 -->
<g id="node12" class="node"><title>Node12</title>
<polygon fill="white" stroke="#bfbfbf" points="222,-174.5 222,-193.5 350,-193.5 350,-174.5 222,-174.5"/>
<text text-anchor="middle" x="286" y="-181.5" font-family="Helvetica,sans-Serif" font-size="10.00">boost/concept_check.hpp</text>
</g>
<!-- Node11&#45;&gt;Node12 -->
<g id="edge11" class="edge"><title>Node11&#45;&gt;Node12</title>
<path fill="none" stroke="midnightblue" d="M346.827,-236.403C335.65,-226.958 317.483,-211.606 303.909,-200.134"/>
<polygon fill="midnightblue" stroke="midnightblue" points="306.051,-197.362 296.154,-193.581 301.533,-202.709 306.051,-197.362"/>
</g>
<!-- Node13 -->
<g id="node13" class="node"><title>Node13</title>
<g id="a_node13"><a xlink:href="a00099.html" target="_top" xlink:title="hpp/core/constraint\l&#45;set.hh">
<polygon fill="white" stroke="black" points="104,-169 104,-199 204,-199 204,-169 104,-169"/>
<text text-anchor="start" x="112" y="-187" font-family="Helvetica,sans-Serif" font-size="10.00">hpp/core/constraint</text>
<text text-anchor="middle" x="154" y="-176" font-family="Helvetica,sans-Serif" font-size="10.00">&#45;set.hh</text>
</a>
</g>
</g>
<!-- Node11&#45;&gt;Node13 -->
<g id="edge14" class="edge"><title>Node11&#45;&gt;Node13</title>
<path fill="none" stroke="midnightblue" d="M327.915,-236.403C297.623,-227.45 249.375,-213.19 211.374,-201.958"/>
<polygon fill="midnightblue" stroke="midnightblue" points="212.034,-198.503 201.452,-199.025 210.05,-205.216 212.034,-198.503"/>
</g>
<!-- Node16 -->
<g id="node16" class="node"><title>Node16</title>
<polygon fill="white" stroke="#bfbfbf" points="368.5,-174.5 368.5,-193.5 487.5,-193.5 487.5,-174.5 368.5,-174.5"/>
<text text-anchor="middle" x="428" y="-181.5" font-family="Helvetica,sans-Serif" font-size="10.00">hpp/core/deprecated.hh</text>
</g>
<!-- Node11&#45;&gt;Node16 -->
<g id="edge20" class="edge"><title>Node11&#45;&gt;Node16</title>
<path fill="none" stroke="midnightblue" d="M367.173,-236.403C378.35,-226.958 396.517,-211.606 410.091,-200.134"/>
<polygon fill="midnightblue" stroke="midnightblue" points="412.467,-202.709 417.846,-193.581 407.949,-197.362 412.467,-202.709"/>
</g>
<!-- Node17 -->
<g id="node17" class="node"><title>Node17</title>
<g id="a_node17"><a xlink:href="a00143.html" target="_top" xlink:title="hpp/core/projection\l&#45;error.hh">
<polygon fill="white" stroke="black" points="544.5,-169 544.5,-199 643.5,-199 643.5,-169 544.5,-169"/>
<text text-anchor="start" x="552.5" y="-187" font-family="Helvetica,sans-Serif" font-size="10.00">hpp/core/projection</text>
<text text-anchor="middle" x="594" y="-176" font-family="Helvetica,sans-Serif" font-size="10.00">&#45;error.hh</text>
</a>
</g>
</g>
<!-- Node11&#45;&gt;Node17 -->
<g id="edge21" class="edge"><title>Node11&#45;&gt;Node17</title>
<path fill="none" stroke="midnightblue" d="M390.705,-236.467C428.089,-227.003 489.12,-211.552 534.571,-200.045"/>
<polygon fill="midnightblue" stroke="midnightblue" points="535.474,-203.427 544.309,-197.58 533.756,-196.641 535.474,-203.427"/>
</g>
<!-- Node13&#45;&gt;Node6 -->
<g id="edge15" class="edge"><title>Node13&#45;&gt;Node6</title>
<path fill="none" stroke="midnightblue" d="M157.414,-168.747C160.961,-154.334 166.844,-131.466 173,-112 182.308,-82.5696 195.021,-49.0375 202.862,-28.97"/>
<polygon fill="midnightblue" stroke="midnightblue" points="206.161,-30.1439 206.569,-19.5569 199.648,-27.5787 206.161,-30.1439"/>
</g>
<!-- Node14 -->
<g id="node14" class="node"><title>Node14</title>
<g id="a_node14"><a xlink:href="a00100.html" target="_top" xlink:title="hpp/core/constraint.hh">
<polygon fill="white" stroke="black" points="182.5,-112.5 182.5,-131.5 295.5,-131.5 295.5,-112.5 182.5,-112.5"/>
<text text-anchor="middle" x="239" y="-119.5" font-family="Helvetica,sans-Serif" font-size="10.00">hpp/core/constraint.hh</text>
</a>
</g>
</g>
<!-- Node13&#45;&gt;Node14 -->
<g id="edge16" class="edge"><title>Node13&#45;&gt;Node14</title>
<path fill="none" stroke="midnightblue" d="M174.144,-168.781C187.595,-159.286 205.222,-146.843 218.704,-137.327"/>
<polygon fill="midnightblue" stroke="midnightblue" points="220.728,-140.182 226.879,-131.556 216.691,-134.463 220.728,-140.182"/>
</g>
<!-- Node14&#45;&gt;Node3 -->
<g id="edge18" class="edge"><title>Node14&#45;&gt;Node3</title>
<path fill="none" stroke="midnightblue" d="M210.162,-112.444C179.144,-103.241 129.671,-88.5617 95.3816,-78.3879"/>
<polygon fill="midnightblue" stroke="midnightblue" points="96.286,-75.0055 85.7035,-75.5164 94.2949,-81.7164 96.286,-75.0055"/>
</g>
<!-- Node14&#45;&gt;Node4 -->
<g id="edge19" class="edge"><title>Node14&#45;&gt;Node4</title>
<path fill="none" stroke="midnightblue" d="M282.891,-112.444C331.66,-102.936 410.408,-87.5847 462.684,-77.3937"/>
<polygon fill="midnightblue" stroke="midnightblue" points="463.624,-80.7764 472.77,-75.4275 462.285,-73.9057 463.624,-80.7764"/>
</g>
<!-- Node15 -->
<g id="node15" class="node"><title>Node15</title>
<polygon fill="white" stroke="#bfbfbf" points="213,-56.5 213,-75.5 265,-75.5 265,-56.5 213,-56.5"/>
<text text-anchor="middle" x="239" y="-63.5" font-family="Helvetica,sans-Serif" font-size="10.00">ostream</text>
</g>
<!-- Node14&#45;&gt;Node15 -->
<g id="edge17" class="edge"><title>Node14&#45;&gt;Node15</title>
<path fill="none" stroke="midnightblue" d="M239,-112.083C239,-105.006 239,-94.8611 239,-85.9865"/>
<polygon fill="midnightblue" stroke="midnightblue" points="242.5,-85.751 239,-75.7511 235.5,-85.7511 242.5,-85.751"/>
</g>
<!-- Node18 -->
<g id="node18" class="node"><title>Node18</title>
<polygon fill="white" stroke="#bfbfbf" points="564.5,-112.5 564.5,-131.5 623.5,-131.5 623.5,-112.5 564.5,-112.5"/>
<text text-anchor="middle" x="594" y="-119.5" font-family="Helvetica,sans-Serif" font-size="10.00">exception</text>
</g>
<!-- Node17&#45;&gt;Node18 -->
<g id="edge22" class="edge"><title>Node17&#45;&gt;Node18</title>
<path fill="none" stroke="midnightblue" d="M594,-168.781C594,-160.781 594,-150.689 594,-142.017"/>
<polygon fill="midnightblue" stroke="midnightblue" points="597.5,-141.73 594,-131.731 590.5,-141.731 597.5,-141.73"/>
</g>
<!-- Node19&#45;&gt;Node3 -->
<g id="edge25" class="edge"><title>Node19&#45;&gt;Node3</title>
<path fill="none" stroke="midnightblue" d="M252.662,-292.495C196.98,-281.215 114.962,-255.775 69,-200 42.1761,-167.449 47.4178,-113.991 52.6962,-85.7827"/>
<polygon fill="midnightblue" stroke="midnightblue" points="56.1873,-86.1851 54.7962,-75.682 49.3338,-84.7601 56.1873,-86.1851"/>
</g>
<!-- Node19&#45;&gt;Node4 -->
<g id="edge24" class="edge"><title>Node19&#45;&gt;Node4</title>
<path fill="none" stroke="midnightblue" d="M367.967,-292.445C455.843,-277.954 617.92,-245.638 652,-200 675.998,-167.863 659.975,-140.742 632,-112 615.211,-94.7508 591.059,-83.9919 569.135,-77.3413"/>
<polygon fill="midnightblue" stroke="midnightblue" points="569.827,-73.9003 559.253,-74.5662 567.934,-80.6396 569.827,-73.9003"/>
</g>
<!-- Node19&#45;&gt;Node11 -->
<g id="edge26" class="edge"><title>Node19&#45;&gt;Node11</title>
<path fill="none" stroke="midnightblue" d="M318.596,-292.083C325.227,-284.298 335.021,-272.801 343.058,-263.367"/>
<polygon fill="midnightblue" stroke="midnightblue" points="345.725,-265.633 349.545,-255.751 340.396,-261.094 345.725,-265.633"/>
</g>
</g>
</svg>
