<?xml version="1.0" encoding="UTF-8" standalone="no"?>
<!DOCTYPE svg PUBLIC "-//W3C//DTD SVG 1.1//EN"
 "http://www.w3.org/Graphics/SVG/1.1/DTD/svg11.dtd">
<!-- Generated by graphviz version 2.36.0 (20140111.2315)
 -->
<!-- Title: problem&#45;solver.hh Pages: 1 -->
<svg width="2544pt" height="456pt"
 viewBox="0.00 0.00 2544.26 456.00" xmlns="http://www.w3.org/2000/svg" xmlns:xlink="http://www.w3.org/1999/xlink">
<g id="graph0" class="graph" transform="scale(1 1) rotate(0) translate(4 452)">
<title>problem&#45;solver.hh</title>
<polygon fill="white" stroke="none" points="-4,4 -4,-452 2540.26,-452 2540.26,4 -4,4"/>
<!-- Node1 -->
<g id="node1" class="node"><title>Node1</title>
<polygon fill="#bfbfbf" stroke="black" points="1500.26,-428.5 1500.26,-447.5 1594.26,-447.5 1594.26,-428.5 1500.26,-428.5"/>
<text text-anchor="middle" x="1547.26" y="-435.5" font-family="Helvetica,sans-Serif" font-size="10.00">problem&#45;solver.hh</text>
</g>
<!-- Node2 -->
<g id="node2" class="node"><title>Node2</title>
<polygon fill="white" stroke="#bfbfbf" points="952.758,-372.5 952.758,-391.5 1011.76,-391.5 1011.76,-372.5 952.758,-372.5"/>
<text text-anchor="middle" x="982.258" y="-379.5" font-family="Helvetica,sans-Serif" font-size="10.00">stdexcept</text>
</g>
<!-- Node1&#45;&gt;Node2 -->
<g id="edge1" class="edge"><title>Node1&#45;&gt;Node2</title>
<path fill="none" stroke="midnightblue" d="M1499.99,-434.751C1408.27,-429.983 1199.89,-417.17 1026.26,-392 1024.81,-391.79 1023.34,-391.563 1021.86,-391.322"/>
<polygon fill="midnightblue" stroke="midnightblue" points="1022.46,-387.874 1012,-389.568 1021.23,-394.766 1022.46,-387.874"/>
</g>
<!-- Node3 -->
<g id="node3" class="node"><title>Node3</title>
<g id="a_node3"><a doxygen="https://jmirabel.github.io/hpp-doc/api/hpp-model/doxygen-html/hpp-model.doxytag:https://jmirabel.github.io/hpp-doc/api/hpp-model/doxygen-html/" xlink:href="https://jmirabel.github.io/hpp-doc/api/hpp-model/doxygen-html/a00037.html" target="_top" xlink:title="hpp/model/fwd.hh">
<polygon fill="white" stroke="black" points="1292.26,-186.5 1292.26,-205.5 1386.26,-205.5 1386.26,-186.5 1292.26,-186.5"/>
<text text-anchor="middle" x="1339.26" y="-193.5" font-family="Helvetica,sans-Serif" font-size="10.00">hpp/model/fwd.hh</text>
</a>
</g>
</g>
<!-- Node1&#45;&gt;Node3 -->
<g id="edge2" class="edge"><title>Node1&#45;&gt;Node3</title>
<path fill="none" stroke="midnightblue" d="M1503.28,-428.494C1435.21,-412.697 1306.43,-371.717 1251.26,-280 1243.93,-267.813 1244.16,-260.323 1251.26,-248 1261.84,-229.63 1281.86,-217.273 1300.13,-209.329"/>
<polygon fill="midnightblue" stroke="midnightblue" points="1301.5,-212.551 1309.46,-205.569 1298.88,-206.058 1301.5,-212.551"/>
</g>
<!-- Node4 -->
<g id="node4" class="node"><title>Node4</title>
<polygon fill="white" stroke="#bfbfbf" points="1068.76,-372.5 1068.76,-391.5 1165.76,-391.5 1165.76,-372.5 1068.76,-372.5"/>
<text text-anchor="middle" x="1117.26" y="-379.5" font-family="Helvetica,sans-Serif" font-size="10.00">boost/function.hpp</text>
</g>
<!-- Node1&#45;&gt;Node4 -->
<g id="edge3" class="edge"><title>Node1&#45;&gt;Node4</title>
<path fill="none" stroke="midnightblue" d="M1500,-431.51C1430.08,-423.318 1294.96,-407.223 1180.26,-392 1178.96,-391.828 1177.66,-391.653 1176.34,-391.476"/>
<polygon fill="midnightblue" stroke="midnightblue" points="1176.47,-387.961 1166.08,-390.073 1175.52,-394.896 1176.47,-387.961"/>
</g>
<!-- Node5 -->
<g id="node5" class="node"><title>Node5</title>
<polygon fill="white" stroke="#bfbfbf" points="1976.76,-186.5 1976.76,-205.5 2095.76,-205.5 2095.76,-186.5 1976.76,-186.5"/>
<text text-anchor="middle" x="2036.26" y="-193.5" font-family="Helvetica,sans-Serif" font-size="10.00">hpp/core/deprecated.hh</text>
</g>
<!-- Node1&#45;&gt;Node5 -->
<g id="edge4" class="edge"><title>Node1&#45;&gt;Node5</title>
<path fill="none" stroke="midnightblue" d="M1594.46,-436.619C1683.68,-435.065 1872.91,-427.543 1926.26,-392 1990.58,-349.149 2021.34,-255.223 2031.88,-215.415"/>
<polygon fill="midnightblue" stroke="midnightblue" points="2035.32,-216.061 2034.37,-205.509 2028.53,-214.352 2035.32,-216.061"/>
</g>
<!-- Node6 -->
<g id="node6" class="node"><title>Node6</title>
<g id="a_node6"><a xlink:href="a00140.html" target="_top" xlink:title="hpp/core/problem.hh">
<polygon fill="white" stroke="black" points="1494.76,-372.5 1494.76,-391.5 1599.76,-391.5 1599.76,-372.5 1494.76,-372.5"/>
<text text-anchor="middle" x="1547.26" y="-379.5" font-family="Helvetica,sans-Serif" font-size="10.00">hpp/core/problem.hh</text>
</a>
</g>
</g>
<!-- Node1&#45;&gt;Node6 -->
<g id="edge5" class="edge"><title>Node1&#45;&gt;Node6</title>
<path fill="none" stroke="midnightblue" d="M1547.26,-428.083C1547.26,-421.006 1547.26,-410.861 1547.26,-401.986"/>
<polygon fill="midnightblue" stroke="midnightblue" points="1550.76,-401.751 1547.26,-391.751 1543.76,-401.751 1550.76,-401.751"/>
</g>
<!-- Node13 -->
<g id="node13" class="node"><title>Node13</title>
<polygon fill="white" stroke="#bfbfbf" points="1782.76,-56.5 1782.76,-75.5 1879.76,-75.5 1879.76,-56.5 1782.76,-56.5"/>
<text text-anchor="middle" x="1831.26" y="-63.5" font-family="Helvetica,sans-Serif" font-size="10.00">hpp/core/config.hh</text>
</g>
<!-- Node1&#45;&gt;Node13 -->
<g id="edge51" class="edge"><title>Node1&#45;&gt;Node13</title>
<path fill="none" stroke="midnightblue" d="M1594.56,-430.231C1680.61,-416.844 1857.22,-384.063 1893.26,-336 1915.73,-306.031 1956.69,-413.312 1853.26,-180 1845.66,-162.858 1836.34,-162.05 1831.26,-144 1825.84,-124.74 1826.76,-101.68 1828.45,-85.8478"/>
<polygon fill="midnightblue" stroke="midnightblue" points="1831.95,-86.1181 1829.75,-75.7542 1825,-85.2279 1831.95,-86.1181"/>
</g>
<!-- Node15 -->
<g id="node15" class="node"><title>Node15</title>
<g id="a_node15"><a xlink:href="a00001.html" target="_top" xlink:title="hpp/core/fwd.hh">
<polygon fill="white" stroke="black" points="1996.26,-56.5 1996.26,-75.5 2082.26,-75.5 2082.26,-56.5 1996.26,-56.5"/>
<text text-anchor="middle" x="2039.26" y="-63.5" font-family="Helvetica,sans-Serif" font-size="10.00">hpp/core/fwd.hh</text>
</a>
</g>
</g>
<!-- Node1&#45;&gt;Node15 -->
<g id="edge50" class="edge"><title>Node1&#45;&gt;Node15</title>
<path fill="none" stroke="midnightblue" d="M1594.29,-436.774C1790.84,-435.218 2536.26,-422.99 2536.26,-327 2536.26,-327 2536.26,-327 2536.26,-195 2536.26,-104.128 2220.73,-76.8042 2092.49,-69.4515"/>
<polygon fill="midnightblue" stroke="midnightblue" points="2092.67,-65.9563 2082.49,-68.8972 2092.29,-72.9455 2092.67,-65.9563"/>
</g>
<!-- Node28 -->
<g id="node28" class="node"><title>Node28</title>
<g id="a_node28"><a xlink:href="a00101.html" target="_top" xlink:title="hpp/core/container.hh">
<polygon fill="white" stroke="black" points="661.258,-316.5 661.258,-335.5 771.258,-335.5 771.258,-316.5 661.258,-316.5"/>
<text text-anchor="middle" x="716.258" y="-323.5" font-family="Helvetica,sans-Serif" font-size="10.00">hpp/core/container.hh</text>
</a>
</g>
</g>
<!-- Node1&#45;&gt;Node28 -->
<g id="edge66" class="edge"><title>Node1&#45;&gt;Node28</title>
<path fill="none" stroke="midnightblue" d="M1500.06,-434.865C1394.48,-429.728 1142.11,-415.351 1060.26,-392 1041.14,-386.547 1039.22,-377.974 1020.26,-372 940.363,-346.821 844.118,-335.6 781.632,-330.687"/>
<polygon fill="midnightblue" stroke="midnightblue" points="781.753,-327.187 771.518,-329.924 781.226,-334.167 781.753,-327.187"/>
</g>
<!-- Node38 -->
<g id="node38" class="node"><title>Node38</title>
<g id="a_node38"><a xlink:href="a00094.html" target="_top" xlink:title="hpp/core/config&#45;projector.hh">
<polygon fill="white" stroke="black" points="2146.76,-316.5 2146.76,-335.5 2283.76,-335.5 2283.76,-316.5 2146.76,-316.5"/>
<text text-anchor="middle" x="2215.26" y="-323.5" font-family="Helvetica,sans-Serif" font-size="10.00">hpp/core/config&#45;projector.hh</text>
</a>
</g>
</g>
<!-- Node1&#45;&gt;Node38 -->
<g id="edge52" class="edge"><title>Node1&#45;&gt;Node38</title>
<path fill="none" stroke="midnightblue" d="M1594.44,-434.965C1675.7,-430.845 1847.07,-419.457 1989.26,-392 2058.62,-378.607 2137.46,-353.626 2181.28,-338.839"/>
<polygon fill="midnightblue" stroke="midnightblue" points="2182.52,-342.113 2190.86,-335.579 2180.27,-335.486 2182.52,-342.113"/>
</g>
<!-- Node7 -->
<g id="node7" class="node"><title>Node7</title>
<polygon fill="white" stroke="#bfbfbf" points="1563.26,-316.5 1563.26,-335.5 1641.26,-335.5 1641.26,-316.5 1563.26,-316.5"/>
<text text-anchor="middle" x="1602.26" y="-323.5" font-family="Helvetica,sans-Serif" font-size="10.00">boost/any.hpp</text>
</g>
<!-- Node6&#45;&gt;Node7 -->
<g id="edge6" class="edge"><title>Node6&#45;&gt;Node7</title>
<path fill="none" stroke="midnightblue" d="M1556.34,-372.083C1564.43,-364.141 1576.45,-352.335 1586.17,-342.797"/>
<polygon fill="midnightblue" stroke="midnightblue" points="1588.66,-345.254 1593.35,-335.751 1583.76,-340.26 1588.66,-345.254"/>
</g>
<!-- Node8 -->
<g id="node8" class="node"><title>Node8</title>
<g id="a_node8"><a doxygen="https://jmirabel.github.io/hpp-doc/api/hpp-model/doxygen-html/hpp-model.doxytag:https://jmirabel.github.io/hpp-doc/api/hpp-model/doxygen-html/" xlink:href="https://jmirabel.github.io/hpp-doc/api/hpp-model/doxygen-html/a00033.html" target="_top" xlink:title="hpp/model/device.hh">
<polygon fill="white" stroke="black" points="1437.76,-316.5 1437.76,-335.5 1544.76,-335.5 1544.76,-316.5 1437.76,-316.5"/>
<text text-anchor="middle" x="1491.26" y="-323.5" font-family="Helvetica,sans-Serif" font-size="10.00">hpp/model/device.hh</text>
</a>
</g>
</g>
<!-- Node6&#45;&gt;Node8 -->
<g id="edge7" class="edge"><title>Node6&#45;&gt;Node8</title>
<path fill="none" stroke="midnightblue" d="M1538.26,-372.324C1530.06,-364.42 1517.75,-352.548 1507.79,-342.938"/>
<polygon fill="midnightblue" stroke="midnightblue" points="1510.05,-340.256 1500.42,-335.834 1505.19,-345.295 1510.05,-340.256"/>
</g>
<!-- Node12 -->
<g id="node12" class="node"><title>Node12</title>
<polygon fill="white" stroke="#bfbfbf" points="1403.26,-0.5 1403.26,-19.5 1497.26,-19.5 1497.26,-0.5 1403.26,-0.5"/>
<text text-anchor="middle" x="1450.26" y="-7.5" font-family="Helvetica,sans-Serif" font-size="10.00">hpp/util/pointer.hh</text>
</g>
<!-- Node6&#45;&gt;Node12 -->
<g id="edge15" class="edge"><title>Node6&#45;&gt;Node12</title>
<path fill="none" stroke="midnightblue" d="M1494.53,-372.762C1404.86,-357.249 1232.26,-320.218 1232.26,-265 1232.26,-265 1232.26,-265 1232.26,-127 1232.26,-54.0548 1328.56,-26.8316 1393.15,-16.7764"/>
<polygon fill="midnightblue" stroke="midnightblue" points="1393.83,-20.2136 1403.22,-15.3056 1392.82,-13.287 1393.83,-20.2136"/>
</g>
<!-- Node6&#45;&gt;Node13 -->
<g id="edge16" class="edge"><title>Node6&#45;&gt;Node13</title>
<path fill="none" stroke="midnightblue" d="M1582.22,-372.349C1603.96,-365.491 1631.3,-354.006 1650.26,-336 1680.02,-307.739 1705.09,-279.06 1678.26,-248 1606.31,-164.712 1505.2,-295.288 1433.26,-212 1413.89,-189.583 1441.05,-122.319 1453.26,-112 1500.21,-72.3234 1678.53,-66.5481 1772.5,-66.3552"/>
<polygon fill="midnightblue" stroke="midnightblue" points="1772.7,-69.8551 1782.7,-66.3556 1772.7,-62.8551 1772.7,-69.8551"/>
</g>
<!-- Node14 -->
<g id="node14" class="node"><title>Node14</title>
<g id="a_node14"><a xlink:href="a00151.html" target="_top" xlink:title="hpp/core/steering&#45;method.hh">
<polygon fill="white" stroke="black" points="1744.26,-316.5 1744.26,-335.5 1884.26,-335.5 1884.26,-316.5 1744.26,-316.5"/>
<text text-anchor="middle" x="1814.26" y="-323.5" font-family="Helvetica,sans-Serif" font-size="10.00">hpp/core/steering&#45;method.hh</text>
</a>
</g>
</g>
<!-- Node6&#45;&gt;Node14 -->
<g id="edge17" class="edge"><title>Node6&#45;&gt;Node14</title>
<path fill="none" stroke="midnightblue" d="M1589.57,-372.444C1636.34,-362.984 1711.72,-347.738 1762.11,-337.547"/>
<polygon fill="midnightblue" stroke="midnightblue" points="1763.04,-340.929 1772.15,-335.516 1761.65,-334.068 1763.04,-340.929"/>
</g>
<!-- Node6&#45;&gt;Node28 -->
<g id="edge38" class="edge"><title>Node6&#45;&gt;Node28</title>
<path fill="none" stroke="midnightblue" d="M1494.65,-377.581C1349.06,-368.121 941.144,-341.613 781.493,-331.239"/>
<polygon fill="midnightblue" stroke="midnightblue" points="781.548,-327.735 771.342,-330.579 781.094,-334.721 781.548,-327.735"/>
</g>
<!-- Node8&#45;&gt;Node3 -->
<g id="edge8" class="edge"><title>Node8&#45;&gt;Node3</title>
<path fill="none" stroke="midnightblue" d="M1533.84,-316.465C1581.29,-306.525 1652.44,-290.171 1660.26,-280 1668.92,-268.724 1669.6,-258.724 1660.26,-248 1621.95,-204.018 1457.54,-222.979 1400.26,-212 1394.07,-210.815 1387.57,-209.401 1381.22,-207.922"/>
<polygon fill="midnightblue" stroke="midnightblue" points="1381.95,-204.499 1371.41,-205.567 1380.32,-211.305 1381.95,-204.499"/>
</g>
<!-- Node9 -->
<g id="node9" class="node"><title>Node9</title>
<g id="a_node9"><a doxygen="https://jmirabel.github.io/hpp-doc/api/hpp-model/doxygen-html/hpp-model.doxytag:https://jmirabel.github.io/hpp-doc/api/hpp-model/doxygen-html/" xlink:href="https://jmirabel.github.io/hpp-doc/api/hpp-model/doxygen-html/a00034.html" target="_top" xlink:title="hpp/model/distance\l&#45;result.hh">
<polygon fill="white" stroke="black" points="1260.76,-249 1260.76,-279 1361.76,-279 1361.76,-249 1260.76,-249"/>
<text text-anchor="start" x="1268.76" y="-267" font-family="Helvetica,sans-Serif" font-size="10.00">hpp/model/distance</text>
<text text-anchor="middle" x="1311.26" y="-256" font-family="Helvetica,sans-Serif" font-size="10.00">&#45;result.hh</text>
</a>
</g>
</g>
<!-- Node8&#45;&gt;Node9 -->
<g id="edge9" class="edge"><title>Node8&#45;&gt;Node9</title>
<path fill="none" stroke="midnightblue" d="M1465.47,-316.403C1438.84,-307.526 1396.55,-293.432 1362.99,-282.245"/>
<polygon fill="midnightblue" stroke="midnightblue" points="1363.93,-278.867 1353.33,-279.025 1361.71,-285.508 1363.93,-278.867"/>
</g>
<!-- Node10 -->
<g id="node10" class="node"><title>Node10</title>
<g id="a_node10"><a doxygen="https://jmirabel.github.io/hpp-doc/api/hpp-model/doxygen-html/hpp-model.doxytag:https://jmirabel.github.io/hpp-doc/api/hpp-model/doxygen-html/" xlink:href="https://jmirabel.github.io/hpp-doc/api/hpp-model/doxygen-html/a00035.html" target="_top" xlink:title="hpp/model/extra&#45;config\l&#45;space.hh">
<polygon fill="white" stroke="black" points="1380.26,-249 1380.26,-279 1496.26,-279 1496.26,-249 1380.26,-249"/>
<text text-anchor="start" x="1388.26" y="-267" font-family="Helvetica,sans-Serif" font-size="10.00">hpp/model/extra&#45;config</text>
<text text-anchor="middle" x="1438.26" y="-256" font-family="Helvetica,sans-Serif" font-size="10.00">&#45;space.hh</text>
</a>
</g>
</g>
<!-- Node8&#45;&gt;Node10 -->
<g id="edge11" class="edge"><title>Node8&#45;&gt;Node10</title>
<path fill="none" stroke="midnightblue" d="M1483.66,-316.403C1476.82,-308.657 1466.47,-296.938 1457.38,-286.645"/>
<polygon fill="midnightblue" stroke="midnightblue" points="1459.99,-284.318 1450.75,-279.141 1454.75,-288.953 1459.99,-284.318"/>
</g>
<!-- Node11 -->
<g id="node11" class="node"><title>Node11</title>
<g id="a_node11"><a doxygen="https://jmirabel.github.io/hpp-doc/api/hpp-model/doxygen-html/hpp-model.doxytag:https://jmirabel.github.io/hpp-doc/api/hpp-model/doxygen-html/" xlink:href="https://jmirabel.github.io/hpp-doc/api/hpp-model/doxygen-html/a00044.html" target="_top" xlink:title="hpp/model/object&#45;iterator.hh">
<polygon fill="white" stroke="black" points="1514.76,-254.5 1514.76,-273.5 1651.76,-273.5 1651.76,-254.5 1514.76,-254.5"/>
<text text-anchor="middle" x="1583.26" y="-261.5" font-family="Helvetica,sans-Serif" font-size="10.00">hpp/model/object&#45;iterator.hh</text>
</a>
</g>
</g>
<!-- Node8&#45;&gt;Node11 -->
<g id="edge13" class="edge"><title>Node8&#45;&gt;Node11</title>
<path fill="none" stroke="midnightblue" d="M1504.44,-316.403C1519.33,-306.691 1543.8,-290.732 1561.53,-279.17"/>
<polygon fill="midnightblue" stroke="midnightblue" points="1563.64,-281.975 1570.1,-273.581 1559.81,-276.112 1563.64,-281.975"/>
</g>
<!-- Node9&#45;&gt;Node3 -->
<g id="edge10" class="edge"><title>Node9&#45;&gt;Node3</title>
<path fill="none" stroke="midnightblue" d="M1317.33,-248.679C1321.48,-238.898 1327.02,-225.852 1331.49,-215.315"/>
<polygon fill="midnightblue" stroke="midnightblue" points="1334.83,-216.401 1335.51,-205.828 1328.39,-213.667 1334.83,-216.401"/>
</g>
<!-- Node10&#45;&gt;Node3 -->
<g id="edge12" class="edge"><title>Node10&#45;&gt;Node3</title>
<path fill="none" stroke="midnightblue" d="M1416.78,-248.679C1400.17,-237.611 1377.3,-222.363 1360.71,-211.3"/>
<polygon fill="midnightblue" stroke="midnightblue" points="1362.48,-208.273 1352.22,-205.638 1358.59,-214.097 1362.48,-208.273"/>
</g>
<!-- Node11&#45;&gt;Node3 -->
<g id="edge14" class="edge"><title>Node11&#45;&gt;Node3</title>
<path fill="none" stroke="midnightblue" d="M1551.36,-254.372C1507.58,-242.53 1428.83,-221.229 1380.59,-208.179"/>
<polygon fill="midnightblue" stroke="midnightblue" points="1381.35,-204.758 1370.78,-205.526 1379.52,-211.516 1381.35,-204.758"/>
</g>
<!-- Node14&#45;&gt;Node15 -->
<g id="edge18" class="edge"><title>Node14&#45;&gt;Node15</title>
<path fill="none" stroke="midnightblue" d="M1821.79,-316.207C1842.83,-292.037 1904.8,-223.504 1967.26,-180 1996.94,-159.325 2021.16,-174.72 2040.26,-144 2051.04,-126.658 2048.6,-102.597 2044.88,-86.0098"/>
<polygon fill="midnightblue" stroke="midnightblue" points="2048.15,-84.6888 2042.24,-75.8945 2041.38,-86.4539 2048.15,-84.6888"/>
</g>
<!-- Node21 -->
<g id="node21" class="node"><title>Node21</title>
<g id="a_node21"><a xlink:href="a00135.html" target="_top" xlink:title="hpp/core/path.hh">
<polygon fill="white" stroke="black" points="1749.76,-254.5 1749.76,-273.5 1838.76,-273.5 1838.76,-254.5 1749.76,-254.5"/>
<text text-anchor="middle" x="1794.26" y="-261.5" font-family="Helvetica,sans-Serif" font-size="10.00">hpp/core/path.hh</text>
</a>
</g>
</g>
<!-- Node14&#45;&gt;Node21 -->
<g id="edge25" class="edge"><title>Node14&#45;&gt;Node21</title>
<path fill="none" stroke="midnightblue" d="M1811.39,-316.403C1808.51,-307.76 1803.98,-294.17 1800.3,-283.134"/>
<polygon fill="midnightblue" stroke="midnightblue" points="1803.6,-281.961 1797.12,-273.581 1796.96,-284.174 1803.6,-281.961"/>
</g>
<!-- Node15&#45;&gt;Node12 -->
<g id="edge23" class="edge"><title>Node15&#45;&gt;Node12</title>
<path fill="none" stroke="midnightblue" d="M1996.17,-57.2429C1993.16,-56.793 1990.17,-56.3728 1987.26,-56 1813.16,-33.6832 1605.83,-19.9079 1507.48,-14.1406"/>
<polygon fill="midnightblue" stroke="midnightblue" points="1507.64,-10.6441 1497.45,-13.5584 1507.23,-17.6323 1507.64,-10.6441"/>
</g>
<!-- Node16 -->
<g id="node16" class="node"><title>Node16</title>
<polygon fill="white" stroke="#bfbfbf" points="1962.26,-0.5 1962.26,-19.5 2006.26,-19.5 2006.26,-0.5 1962.26,-0.5"/>
<text text-anchor="middle" x="1984.26" y="-7.5" font-family="Helvetica,sans-Serif" font-size="10.00">vector</text>
</g>
<!-- Node15&#45;&gt;Node16 -->
<g id="edge19" class="edge"><title>Node15&#45;&gt;Node16</title>
<path fill="none" stroke="midnightblue" d="M2030.18,-56.083C2022.09,-48.1409 2010.06,-36.3354 2000.35,-26.7973"/>
<polygon fill="midnightblue" stroke="midnightblue" points="2002.76,-24.2595 1993.17,-19.7511 1997.85,-29.2545 2002.76,-24.2595"/>
</g>
<!-- Node17 -->
<g id="node17" class="node"><title>Node17</title>
<polygon fill="white" stroke="#bfbfbf" points="1816.76,-0.5 1816.76,-19.5 1859.76,-19.5 1859.76,-0.5 1816.76,-0.5"/>
<text text-anchor="middle" x="1838.26" y="-7.5" font-family="Helvetica,sans-Serif" font-size="10.00">deque</text>
</g>
<!-- Node15&#45;&gt;Node17 -->
<g id="edge20" class="edge"><title>Node15&#45;&gt;Node17</title>
<path fill="none" stroke="midnightblue" d="M2007.41,-56.4435C1969.67,-46.3041 1907.18,-29.5173 1869.65,-19.4324"/>
<polygon fill="midnightblue" stroke="midnightblue" points="1870.33,-15.9912 1859.76,-16.7767 1868.51,-22.7515 1870.33,-15.9912"/>
</g>
<!-- Node18 -->
<g id="node18" class="node"><title>Node18</title>
<polygon fill="white" stroke="#bfbfbf" points="479.758,-0.5 479.758,-19.5 508.758,-19.5 508.758,-0.5 479.758,-0.5"/>
<text text-anchor="middle" x="494.258" y="-7.5" font-family="Helvetica,sans-Serif" font-size="10.00">list</text>
</g>
<!-- Node15&#45;&gt;Node18 -->
<g id="edge21" class="edge"><title>Node15&#45;&gt;Node18</title>
<path fill="none" stroke="midnightblue" d="M1996.19,-57.0641C1993.18,-56.6567 1990.18,-56.2949 1987.26,-56 1685.72,-25.515 690.101,-13.1833 519.302,-11.2699"/>
<polygon fill="midnightblue" stroke="midnightblue" points="519.095,-7.76747 509.056,-11.1566 519.017,-14.767 519.095,-7.76747"/>
</g>
<!-- Node19 -->
<g id="node19" class="node"><title>Node19</title>
<polygon fill="white" stroke="#bfbfbf" points="2024.26,-0.5 2024.26,-19.5 2054.26,-19.5 2054.26,-0.5 2024.26,-0.5"/>
<text text-anchor="middle" x="2039.26" y="-7.5" font-family="Helvetica,sans-Serif" font-size="10.00">set</text>
</g>
<!-- Node15&#45;&gt;Node19 -->
<g id="edge22" class="edge"><title>Node15&#45;&gt;Node19</title>
<path fill="none" stroke="midnightblue" d="M2039.26,-56.083C2039.26,-49.0059 2039.26,-38.8611 2039.26,-29.9865"/>
<polygon fill="midnightblue" stroke="midnightblue" points="2042.76,-29.751 2039.26,-19.7511 2035.76,-29.7511 2042.76,-29.751"/>
</g>
<!-- Node20 -->
<g id="node20" class="node"><title>Node20</title>
<g id="a_node20"><a doxygen="https://jmirabel.github.io/hpp-doc/api/hpp-constraints/doxygen-html/hpp-constraints.doxytag:https://jmirabel.github.io/hpp-doc/api/hpp-constraints/doxygen-html/" xlink:href="https://jmirabel.github.io/hpp-doc/api/hpp-constraints/doxygen-html/a00001.html" target="_top" xlink:title="hpp/constraints/fwd.hh">
<polygon fill="white" stroke="black" points="2072.26,-0.5 2072.26,-19.5 2188.26,-19.5 2188.26,-0.5 2072.26,-0.5"/>
<text text-anchor="middle" x="2130.26" y="-7.5" font-family="Helvetica,sans-Serif" font-size="10.00">hpp/constraints/fwd.hh</text>
</a>
</g>
</g>
<!-- Node15&#45;&gt;Node20 -->
<g id="edge24" class="edge"><title>Node15&#45;&gt;Node20</title>
<path fill="none" stroke="midnightblue" d="M2053.88,-56.324C2068.21,-47.8215 2090.27,-34.7288 2107.01,-24.7975"/>
<polygon fill="midnightblue" stroke="midnightblue" points="2108.86,-27.7677 2115.67,-19.6545 2105.29,-21.7478 2108.86,-27.7677"/>
</g>
<!-- Node21&#45;&gt;Node5 -->
<g id="edge35" class="edge"><title>Node21&#45;&gt;Node5</title>
<path fill="none" stroke="midnightblue" d="M1825.9,-254.372C1869.31,-242.53 1947.42,-221.229 1995.27,-208.179"/>
<polygon fill="midnightblue" stroke="midnightblue" points="1996.27,-211.534 2005,-205.526 1994.43,-204.78 1996.27,-211.534"/>
</g>
<!-- Node21&#45;&gt;Node13 -->
<g id="edge28" class="edge"><title>Node21&#45;&gt;Node13</title>
<path fill="none" stroke="midnightblue" d="M1778.03,-254.36C1763.78,-245.755 1743.99,-231.084 1735.26,-212 1729.34,-199.067 1731.3,-193.661 1735.26,-180 1747.56,-137.534 1786.56,-101.187 1810.91,-81.8625"/>
<polygon fill="midnightblue" stroke="midnightblue" points="1813.05,-84.6296 1818.84,-75.755 1808.78,-79.0836 1813.05,-84.6296"/>
</g>
<!-- Node21&#45;&gt;Node15 -->
<g id="edge27" class="edge"><title>Node21&#45;&gt;Node15</title>
<path fill="none" stroke="midnightblue" d="M1807.45,-254.392C1831.89,-238.615 1886.14,-204.443 1934.26,-180 1970.47,-161.604 1991.6,-174.641 2018.26,-144 2032.3,-127.863 2037.04,-103.188 2038.6,-86.1399"/>
<polygon fill="midnightblue" stroke="midnightblue" points="2042.11,-85.9513 2039.24,-75.7547 2035.13,-85.5202 2042.11,-85.9513"/>
</g>
<!-- Node22 -->
<g id="node22" class="node"><title>Node22</title>
<polygon fill="white" stroke="#bfbfbf" points="1560.26,-186.5 1560.26,-205.5 1688.26,-205.5 1688.26,-186.5 1560.26,-186.5"/>
<text text-anchor="middle" x="1624.26" y="-193.5" font-family="Helvetica,sans-Serif" font-size="10.00">boost/concept_check.hpp</text>
</g>
<!-- Node21&#45;&gt;Node22 -->
<g id="edge26" class="edge"><title>Node21&#45;&gt;Node22</title>
<path fill="none" stroke="midnightblue" d="M1772.03,-254.372C1742.3,-242.827 1689.41,-222.293 1655.62,-209.177"/>
<polygon fill="midnightblue" stroke="midnightblue" points="1656.81,-205.882 1646.22,-205.526 1654.27,-212.408 1656.81,-205.882"/>
</g>
<!-- Node23 -->
<g id="node23" class="node"><title>Node23</title>
<g id="a_node23"><a xlink:href="a00099.html" target="_top" xlink:title="hpp/core/constraint\l&#45;set.hh">
<polygon fill="white" stroke="black" points="1744.26,-181 1744.26,-211 1844.26,-211 1844.26,-181 1744.26,-181"/>
<text text-anchor="start" x="1752.26" y="-199" font-family="Helvetica,sans-Serif" font-size="10.00">hpp/core/constraint</text>
<text text-anchor="middle" x="1794.26" y="-188" font-family="Helvetica,sans-Serif" font-size="10.00">&#45;set.hh</text>
</a>
</g>
</g>
<!-- Node21&#45;&gt;Node23 -->
<g id="edge29" class="edge"><title>Node21&#45;&gt;Node23</title>
<path fill="none" stroke="midnightblue" d="M1794.26,-254.372C1794.26,-245.971 1794.26,-232.811 1794.26,-221.213"/>
<polygon fill="midnightblue" stroke="midnightblue" points="1797.76,-221.181 1794.26,-211.181 1790.76,-221.181 1797.76,-221.181"/>
</g>
<!-- Node26 -->
<g id="node26" class="node"><title>Node26</title>
<g id="a_node26"><a xlink:href="a00143.html" target="_top" xlink:title="hpp/core/projection\l&#45;error.hh">
<polygon fill="white" stroke="black" points="1442.76,-181 1442.76,-211 1541.76,-211 1541.76,-181 1442.76,-181"/>
<text text-anchor="start" x="1450.76" y="-199" font-family="Helvetica,sans-Serif" font-size="10.00">hpp/core/projection</text>
<text text-anchor="middle" x="1492.26" y="-188" font-family="Helvetica,sans-Serif" font-size="10.00">&#45;error.hh</text>
</a>
</g>
</g>
<!-- Node21&#45;&gt;Node26 -->
<g id="edge36" class="edge"><title>Node21&#45;&gt;Node26</title>
<path fill="none" stroke="midnightblue" d="M1760.21,-254.496C1751.14,-252.305 1741.34,-250.002 1732.26,-248 1655.29,-231.042 1632.98,-230.157 1551.97,-212.085"/>
<polygon fill="midnightblue" stroke="midnightblue" points="1552.31,-208.575 1541.79,-209.793 1550.77,-215.404 1552.31,-208.575"/>
</g>
<!-- Node23&#45;&gt;Node17 -->
<g id="edge30" class="edge"><title>Node23&#45;&gt;Node17</title>
<path fill="none" stroke="midnightblue" d="M1786.89,-180.66C1774.49,-154.361 1752.8,-97.3262 1774.26,-56 1781.41,-42.2262 1794.93,-31.783 1807.71,-24.4413"/>
<polygon fill="midnightblue" stroke="midnightblue" points="1809.57,-27.412 1816.78,-19.6403 1806.3,-21.2252 1809.57,-27.412"/>
</g>
<!-- Node24 -->
<g id="node24" class="node"><title>Node24</title>
<g id="a_node24"><a xlink:href="a00100.html" target="_top" xlink:title="hpp/core/constraint.hh">
<polygon fill="white" stroke="black" points="1896.76,-118.5 1896.76,-137.5 2009.76,-137.5 2009.76,-118.5 1896.76,-118.5"/>
<text text-anchor="middle" x="1953.26" y="-125.5" font-family="Helvetica,sans-Serif" font-size="10.00">hpp/core/constraint.hh</text>
</a>
</g>
</g>
<!-- Node23&#45;&gt;Node24 -->
<g id="edge31" class="edge"><title>Node23&#45;&gt;Node24</title>
<path fill="none" stroke="midnightblue" d="M1828.37,-180.841C1856.49,-169.169 1896,-152.768 1923,-141.558"/>
<polygon fill="midnightblue" stroke="midnightblue" points="1924.45,-144.748 1932.34,-137.682 1921.76,-138.283 1924.45,-144.748"/>
</g>
<!-- Node24&#45;&gt;Node13 -->
<g id="edge33" class="edge"><title>Node24&#45;&gt;Node13</title>
<path fill="none" stroke="midnightblue" d="M1935.78,-118.403C1915.39,-108.379 1881.48,-91.7006 1857.83,-80.0699"/>
<polygon fill="midnightblue" stroke="midnightblue" points="1859.22,-76.8531 1848.71,-75.5806 1856.13,-83.1346 1859.22,-76.8531"/>
</g>
<!-- Node24&#45;&gt;Node15 -->
<g id="edge34" class="edge"><title>Node24&#45;&gt;Node15</title>
<path fill="none" stroke="midnightblue" d="M1965.58,-118.403C1979.37,-108.78 2001.96,-93.0242 2018.49,-81.4891"/>
<polygon fill="midnightblue" stroke="midnightblue" points="2020.76,-84.1729 2026.96,-75.5806 2016.76,-78.432 2020.76,-84.1729"/>
</g>
<!-- Node25 -->
<g id="node25" class="node"><title>Node25</title>
<polygon fill="white" stroke="#bfbfbf" points="1926.26,-56.5 1926.26,-75.5 1978.26,-75.5 1978.26,-56.5 1926.26,-56.5"/>
<text text-anchor="middle" x="1952.26" y="-63.5" font-family="Helvetica,sans-Serif" font-size="10.00">ostream</text>
</g>
<!-- Node24&#45;&gt;Node25 -->
<g id="edge32" class="edge"><title>Node24&#45;&gt;Node25</title>
<path fill="none" stroke="midnightblue" d="M1953.11,-118.403C1952.97,-109.938 1952.75,-96.7283 1952.57,-85.8199"/>
<polygon fill="midnightblue" stroke="midnightblue" points="1956.07,-85.5208 1952.4,-75.5806 1949.07,-85.6376 1956.07,-85.5208"/>
</g>
<!-- Node27 -->
<g id="node27" class="node"><title>Node27</title>
<polygon fill="white" stroke="#bfbfbf" points="1462.76,-118.5 1462.76,-137.5 1521.76,-137.5 1521.76,-118.5 1462.76,-118.5"/>
<text text-anchor="middle" x="1492.26" y="-125.5" font-family="Helvetica,sans-Serif" font-size="10.00">exception</text>
</g>
<!-- Node26&#45;&gt;Node27 -->
<g id="edge37" class="edge"><title>Node26&#45;&gt;Node27</title>
<path fill="none" stroke="midnightblue" d="M1492.26,-180.679C1492.26,-171.101 1492.26,-158.394 1492.26,-147.977"/>
<polygon fill="midnightblue" stroke="midnightblue" points="1495.76,-147.828 1492.26,-137.828 1488.76,-147.828 1495.76,-147.828"/>
</g>
<!-- Node28&#45;&gt;Node13 -->
<g id="edge49" class="edge"><title>Node28&#45;&gt;Node13</title>
<path fill="none" stroke="midnightblue" d="M771.41,-322.42C869.607,-317.278 1070.61,-304.118 1136.26,-280 1266.8,-232.043 1268.04,-155.122 1400.26,-112 1467.94,-89.927 1671.1,-75.8967 1772.44,-70.0807"/>
<polygon fill="midnightblue" stroke="midnightblue" points="1772.72,-73.5703 1782.51,-69.5106 1772.33,-66.5815 1772.72,-73.5703"/>
</g>
<!-- Node28&#45;&gt;Node18 -->
<g id="edge40" class="edge"><title>Node28&#45;&gt;Node18</title>
<path fill="none" stroke="midnightblue" d="M661.231,-325.116C505.652,-324.939 70.7009,-320.765 22.2582,-280 -6.77463,-255.569 2.25821,-234.945 2.25821,-197 2.25821,-197 2.25821,-197 2.25821,-127 2.25821,-29.9356 369.612,-14.0044 469.465,-11.4669"/>
<polygon fill="midnightblue" stroke="midnightblue" points="469.617,-14.9644 479.534,-11.2344 469.455,-7.96626 469.617,-14.9644"/>
</g>
<!-- Node29 -->
<g id="node29" class="node"><title>Node29</title>
<polygon fill="white" stroke="#bfbfbf" points="796.758,-254.5 796.758,-273.5 831.758,-273.5 831.758,-254.5 796.758,-254.5"/>
<text text-anchor="middle" x="814.258" y="-261.5" font-family="Helvetica,sans-Serif" font-size="10.00">map</text>
</g>
<!-- Node28&#45;&gt;Node29 -->
<g id="edge39" class="edge"><title>Node28&#45;&gt;Node29</title>
<path fill="none" stroke="midnightblue" d="M730.299,-316.403C746.309,-306.601 772.709,-290.439 791.632,-278.853"/>
<polygon fill="midnightblue" stroke="midnightblue" points="793.542,-281.787 800.243,-273.581 789.887,-275.817 793.542,-281.787"/>
</g>
<!-- Node30 -->
<g id="node30" class="node"><title>Node30</title>
<polygon fill="white" stroke="#bfbfbf" points="849.758,-249 849.758,-279 966.758,-279 966.758,-249 849.758,-249"/>
<text text-anchor="start" x="857.758" y="-267" font-family="Helvetica,sans-Serif" font-size="10.00">boost/smart_ptr/shared</text>
<text text-anchor="middle" x="908.258" y="-256" font-family="Helvetica,sans-Serif" font-size="10.00">_ptr.hpp</text>
</g>
<!-- Node28&#45;&gt;Node30 -->
<g id="edge41" class="edge"><title>Node28&#45;&gt;Node30</title>
<path fill="none" stroke="midnightblue" d="M743.767,-316.403C772.296,-307.488 817.663,-293.311 853.534,-282.101"/>
<polygon fill="midnightblue" stroke="midnightblue" points="854.876,-285.349 863.377,-279.025 852.788,-278.667 854.876,-285.349"/>
</g>
<!-- Node31 -->
<g id="node31" class="node"><title>Node31</title>
<polygon fill="white" stroke="#bfbfbf" points="984.758,-254.5 984.758,-273.5 1127.76,-273.5 1127.76,-254.5 984.758,-254.5"/>
<text text-anchor="middle" x="1056.26" y="-261.5" font-family="Helvetica,sans-Serif" font-size="10.00">boost/mpl/inherit_linearly.hpp</text>
</g>
<!-- Node28&#45;&gt;Node31 -->
<g id="edge42" class="edge"><title>Node28&#45;&gt;Node31</title>
<path fill="none" stroke="midnightblue" d="M766.423,-316.454C818.62,-307.521 902.71,-293.019 975.258,-280 983.453,-278.529 992.11,-276.952 1000.6,-275.392"/>
<polygon fill="midnightblue" stroke="midnightblue" points="1001.24,-278.832 1010.44,-273.577 999.97,-271.948 1001.24,-278.832"/>
</g>
<!-- Node32 -->
<g id="node32" class="node"><title>Node32</title>
<polygon fill="white" stroke="#bfbfbf" points="30.7582,-254.5 30.7582,-273.5 127.758,-273.5 127.758,-254.5 30.7582,-254.5"/>
<text text-anchor="middle" x="79.2582" y="-261.5" font-family="Helvetica,sans-Serif" font-size="10.00">boost/mpl/fold.hpp</text>
</g>
<!-- Node28&#45;&gt;Node32 -->
<g id="edge43" class="edge"><title>Node28&#45;&gt;Node32</title>
<path fill="none" stroke="midnightblue" d="M661.188,-323.931C557.818,-321.217 327.952,-311.816 137.258,-280 130.997,-278.955 124.425,-277.556 118.046,-276.031"/>
<polygon fill="midnightblue" stroke="midnightblue" points="118.805,-272.613 108.252,-273.563 117.094,-279.401 118.805,-272.613"/>
</g>
<!-- Node33 -->
<g id="node33" class="node"><title>Node33</title>
<polygon fill="white" stroke="#bfbfbf" points="145.758,-254.5 145.758,-273.5 252.758,-273.5 252.758,-254.5 145.758,-254.5"/>
<text text-anchor="middle" x="199.258" y="-261.5" font-family="Helvetica,sans-Serif" font-size="10.00">boost/mpl/inherit.hpp</text>
</g>
<!-- Node28&#45;&gt;Node33 -->
<g id="edge44" class="edge"><title>Node28&#45;&gt;Node33</title>
<path fill="none" stroke="midnightblue" d="M661.082,-321.94C575.312,-316.642 405.01,-303.957 262.258,-280 255.479,-278.862 248.344,-277.412 241.411,-275.864"/>
<polygon fill="midnightblue" stroke="midnightblue" points="241.994,-272.407 231.461,-273.551 240.408,-279.225 241.994,-272.407"/>
</g>
<!-- Node34 -->
<g id="node34" class="node"><title>Node34</title>
<polygon fill="white" stroke="#bfbfbf" points="271.258,-254.5 271.258,-273.5 379.258,-273.5 379.258,-254.5 271.258,-254.5"/>
<text text-anchor="middle" x="325.258" y="-261.5" font-family="Helvetica,sans-Serif" font-size="10.00">boost/mpl/vector.hpp</text>
</g>
<!-- Node28&#45;&gt;Node34 -->
<g id="edge45" class="edge"><title>Node28&#45;&gt;Node34</title>
<path fill="none" stroke="midnightblue" d="M661.152,-319.1C595.766,-311.718 483.596,-297.846 388.258,-280 381.876,-278.805 375.167,-277.386 368.604,-275.905"/>
<polygon fill="midnightblue" stroke="midnightblue" points="369.011,-272.406 358.478,-273.549 367.425,-279.224 369.011,-272.406"/>
</g>
<!-- Node35 -->
<g id="node35" class="node"><title>Node35</title>
<polygon fill="white" stroke="#bfbfbf" points="397.758,-254.5 397.758,-273.5 516.758,-273.5 516.758,-254.5 397.758,-254.5"/>
<text text-anchor="middle" x="457.258" y="-261.5" font-family="Helvetica,sans-Serif" font-size="10.00">boost/mpl/for_each.hpp</text>
</g>
<!-- Node28&#45;&gt;Node35 -->
<g id="edge46" class="edge"><title>Node28&#45;&gt;Node35</title>
<path fill="none" stroke="midnightblue" d="M679.425,-316.467C633.303,-305.783 554.248,-287.469 503.934,-275.813"/>
<polygon fill="midnightblue" stroke="midnightblue" points="504.496,-272.351 493.964,-273.503 502.917,-279.17 504.496,-272.351"/>
</g>
<!-- Node36 -->
<g id="node36" class="node"><title>Node36</title>
<polygon fill="white" stroke="#bfbfbf" points="535.258,-249 535.258,-279 635.258,-279 635.258,-249 535.258,-249"/>
<text text-anchor="start" x="543.258" y="-267" font-family="Helvetica,sans-Serif" font-size="10.00">boost/type_traits/is</text>
<text text-anchor="middle" x="585.258" y="-256" font-family="Helvetica,sans-Serif" font-size="10.00">_pointer.hpp</text>
</g>
<!-- Node28&#45;&gt;Node36 -->
<g id="edge47" class="edge"><title>Node28&#45;&gt;Node36</title>
<path fill="none" stroke="midnightblue" d="M697.489,-316.403C678.69,-307.793 649.174,-294.274 625.129,-283.261"/>
<polygon fill="midnightblue" stroke="midnightblue" points="626.429,-280.007 615.88,-279.025 623.514,-286.372 626.429,-280.007"/>
</g>
<!-- Node37 -->
<g id="node37" class="node"><title>Node37</title>
<polygon fill="white" stroke="#bfbfbf" points="653.758,-249 653.758,-279 778.758,-279 778.758,-249 653.758,-249"/>
<text text-anchor="start" x="661.758" y="-267" font-family="Helvetica,sans-Serif" font-size="10.00">boost/type_traits/remove</text>
<text text-anchor="middle" x="716.258" y="-256" font-family="Helvetica,sans-Serif" font-size="10.00">_pointer.hpp</text>
</g>
<!-- Node28&#45;&gt;Node37 -->
<g id="edge48" class="edge"><title>Node28&#45;&gt;Node37</title>
<path fill="none" stroke="midnightblue" d="M716.258,-316.403C716.258,-309.341 716.258,-298.975 716.258,-289.399"/>
<polygon fill="midnightblue" stroke="midnightblue" points="719.758,-289.141 716.258,-279.141 712.758,-289.141 719.758,-289.141"/>
</g>
<!-- Node38&#45;&gt;Node5 -->
<g id="edge64" class="edge"><title>Node38&#45;&gt;Node5</title>
<path fill="none" stroke="midnightblue" d="M2150.8,-316.451C2124.2,-310.126 2094.66,-299.125 2073.26,-280 2054.27,-263.033 2044.52,-234.465 2039.9,-215.67"/>
<polygon fill="midnightblue" stroke="midnightblue" points="2043.27,-214.675 2037.7,-205.659 2036.43,-216.177 2043.27,-214.675"/>
</g>
<!-- Node38&#45;&gt;Node13 -->
<g id="edge54" class="edge"><title>Node38&#45;&gt;Node13</title>
<path fill="none" stroke="midnightblue" d="M2164.56,-316.428C2143.24,-310.082 2120.39,-299.072 2107.26,-280 2082.04,-243.377 2133.89,-213.15 2104.26,-180 2028.86,-95.6513 1937.07,-218.874 1852.26,-144 1835.82,-129.488 1831.68,-103.494 1830.92,-85.7588"/>
<polygon fill="midnightblue" stroke="midnightblue" points="1834.41,-85.6891 1830.8,-75.73 1827.42,-85.7696 1834.41,-85.6891"/>
</g>
<!-- Node38&#45;&gt;Node24 -->
<g id="edge55" class="edge"><title>Node38&#45;&gt;Node24</title>
<path fill="none" stroke="midnightblue" d="M2283.89,-322.958C2353.34,-319.275 2453.84,-308.948 2478.26,-280 2487.43,-269.128 2486.62,-259.502 2478.26,-248 2420.55,-168.661 2363.62,-203.018 2268.26,-180 2183.53,-159.55 2083.97,-144.973 2019.81,-136.774"/>
<polygon fill="midnightblue" stroke="midnightblue" points="2020.18,-133.294 2009.82,-135.513 2019.3,-140.239 2020.18,-133.294"/>
</g>
<!-- Node39 -->
<g id="node39" class="node"><title>Node39</title>
<polygon fill="white" stroke="#bfbfbf" points="2232.76,-254.5 2232.76,-273.5 2297.76,-273.5 2297.76,-254.5 2232.76,-254.5"/>
<text text-anchor="middle" x="2265.26" y="-261.5" font-family="Helvetica,sans-Serif" font-size="10.00">Eigen/SVD</text>
</g>
<!-- Node38&#45;&gt;Node39 -->
<g id="edge53" class="edge"><title>Node38&#45;&gt;Node39</title>
<path fill="none" stroke="midnightblue" d="M2222.42,-316.403C2230,-307.314 2242.13,-292.756 2251.55,-281.449"/>
<polygon fill="midnightblue" stroke="midnightblue" points="2254.39,-283.503 2258.11,-273.581 2249.02,-279.022 2254.39,-283.503"/>
</g>
<!-- Node40 -->
<g id="node40" class="node"><title>Node40</title>
<g id="a_node40"><a xlink:href="a00092.html" target="_top" xlink:title="hpp/core/comparison\l&#45;type.hh">
<polygon fill="white" stroke="black" points="2104.76,-113 2104.76,-143 2211.76,-143 2211.76,-113 2104.76,-113"/>
<text text-anchor="start" x="2112.76" y="-131" font-family="Helvetica,sans-Serif" font-size="10.00">hpp/core/comparison</text>
<text text-anchor="middle" x="2158.26" y="-120" font-family="Helvetica,sans-Serif" font-size="10.00">&#45;type.hh</text>
</a>
</g>
</g>
<!-- Node38&#45;&gt;Node40 -->
<g id="edge56" class="edge"><title>Node38&#45;&gt;Node40</title>
<path fill="none" stroke="midnightblue" d="M2253.23,-316.411C2272.67,-309.883 2294.63,-298.715 2306.26,-280 2313.76,-267.918 2309.84,-261.763 2306.26,-248 2297.53,-214.497 2293.64,-203.54 2268.26,-180 2252.87,-165.736 2232.8,-154.848 2214.01,-146.87"/>
<polygon fill="midnightblue" stroke="midnightblue" points="2215.21,-143.581 2204.63,-143.074 2212.59,-150.07 2215.21,-143.581"/>
</g>
<!-- Node41 -->
<g id="node41" class="node"><title>Node41</title>
<g id="a_node41"><a xlink:href="a00124.html" target="_top" xlink:title="hpp/core/numerical\l&#45;constraint.hh">
<polygon fill="white" stroke="black" points="2115.76,-249 2115.76,-279 2214.76,-279 2214.76,-249 2115.76,-249"/>
<text text-anchor="start" x="2123.76" y="-267" font-family="Helvetica,sans-Serif" font-size="10.00">hpp/core/numerical</text>
<text text-anchor="middle" x="2165.26" y="-256" font-family="Helvetica,sans-Serif" font-size="10.00">&#45;constraint.hh</text>
</a>
</g>
</g>
<!-- Node38&#45;&gt;Node41 -->
<g id="edge59" class="edge"><title>Node38&#45;&gt;Node41</title>
<path fill="none" stroke="midnightblue" d="M2208.09,-316.403C2201.7,-308.733 2192.06,-297.167 2183.55,-286.948"/>
<polygon fill="midnightblue" stroke="midnightblue" points="2186.13,-284.582 2177.04,-279.141 2180.76,-289.064 2186.13,-284.582"/>
</g>
<!-- Node43 -->
<g id="node43" class="node"><title>Node43</title>
<polygon fill="white" stroke="#bfbfbf" points="2354.76,-249 2354.76,-279 2469.76,-279 2469.76,-249 2354.76,-249"/>
<text text-anchor="start" x="2362.76" y="-267" font-family="Helvetica,sans-Serif" font-size="10.00">hpp/statistics/success</text>
<text text-anchor="middle" x="2412.26" y="-256" font-family="Helvetica,sans-Serif" font-size="10.00">&#45;bin.hh</text>
</g>
<!-- Node38&#45;&gt;Node43 -->
<g id="edge65" class="edge"><title>Node38&#45;&gt;Node43</title>
<path fill="none" stroke="midnightblue" d="M2243.48,-316.403C2272.88,-307.45 2319.7,-293.19 2356.58,-281.958"/>
<polygon fill="midnightblue" stroke="midnightblue" points="2357.66,-285.287 2366.21,-279.025 2355.62,-278.591 2357.66,-285.287"/>
</g>
<!-- Node40&#45;&gt;Node13 -->
<g id="edge58" class="edge"><title>Node40&#45;&gt;Node13</title>
<path fill="none" stroke="midnightblue" d="M2104.63,-117.159C2044.94,-106.207 1948.88,-88.5822 1887.97,-77.4061"/>
<polygon fill="midnightblue" stroke="midnightblue" points="1888.23,-73.896 1877.77,-75.5337 1886.97,-80.7811 1888.23,-73.896"/>
</g>
<!-- Node40&#45;&gt;Node15 -->
<g id="edge57" class="edge"><title>Node40&#45;&gt;Node15</title>
<path fill="none" stroke="midnightblue" d="M2130.36,-112.933C2110.73,-103.036 2084.64,-89.8803 2065.41,-80.1852"/>
<polygon fill="midnightblue" stroke="midnightblue" points="2066.82,-76.977 2056.31,-75.6 2063.67,-83.2274 2066.82,-76.977"/>
</g>
<!-- Node42 -->
<g id="node42" class="node"><title>Node42</title>
<g id="a_node42"><a xlink:href="a00111.html" target="_top" xlink:title="hpp/core/equation.hh">
<polygon fill="white" stroke="black" points="2152.76,-186.5 2152.76,-205.5 2259.76,-205.5 2259.76,-186.5 2152.76,-186.5"/>
<text text-anchor="middle" x="2206.26" y="-193.5" font-family="Helvetica,sans-Serif" font-size="10.00">hpp/core/equation.hh</text>
</a>
</g>
</g>
<!-- Node41&#45;&gt;Node42 -->
<g id="edge60" class="edge"><title>Node41&#45;&gt;Node42</title>
<path fill="none" stroke="midnightblue" d="M2174.15,-248.679C2180.42,-238.592 2188.84,-225.033 2195.49,-214.335"/>
<polygon fill="midnightblue" stroke="midnightblue" points="2198.47,-216.17 2200.77,-205.828 2192.52,-212.476 2198.47,-216.17"/>
</g>
<!-- Node42&#45;&gt;Node13 -->
<g id="edge62" class="edge"><title>Node42&#45;&gt;Node13</title>
<path fill="none" stroke="midnightblue" d="M2170.01,-186.479C2159.77,-184.216 2148.61,-181.881 2138.26,-180 2027.38,-159.848 1983.79,-202.157 1887.26,-144 1864.43,-130.245 1848.14,-103.268 1839.21,-85.1834"/>
<polygon fill="midnightblue" stroke="midnightblue" points="1842.31,-83.5449 1834.91,-75.9604 1835.96,-86.5028 1842.31,-83.5449"/>
</g>
<!-- Node42&#45;&gt;Node15 -->
<g id="edge61" class="edge"><title>Node42&#45;&gt;Node15</title>
<path fill="none" stroke="midnightblue" d="M2211.69,-186.176C2221.02,-169.739 2237.54,-134.104 2220.26,-112 2204.6,-91.9776 2140.09,-79.5899 2092.52,-73.0025"/>
<polygon fill="midnightblue" stroke="midnightblue" points="2092.73,-69.4988 2082.35,-71.6454 2091.8,-76.4373 2092.73,-69.4988"/>
</g>
<!-- Node42&#45;&gt;Node40 -->
<g id="edge63" class="edge"><title>Node42&#45;&gt;Node40</title>
<path fill="none" stroke="midnightblue" d="M2199.98,-186.372C2193.56,-177.543 2183.32,-163.456 2174.59,-151.45"/>
<polygon fill="midnightblue" stroke="midnightblue" points="2177.28,-149.21 2168.57,-143.181 2171.62,-153.327 2177.28,-149.21"/>
</g>
</g>
</svg>
