<?xml version="1.0" encoding="UTF-8" standalone="no"?>
<!DOCTYPE svg PUBLIC "-//W3C//DTD SVG 1.1//EN"
 "http://www.w3.org/Graphics/SVG/1.1/DTD/svg11.dtd">
<!-- Generated by graphviz version 2.36.0 (20140111.2315)
 -->
<!-- Title: interpolated&#45;path.hh Pages: 1 -->
<svg width="718pt" height="320pt"
 viewBox="0.00 0.00 718.47 320.00" xmlns="http://www.w3.org/2000/svg" xmlns:xlink="http://www.w3.org/1999/xlink">
<g id="graph0" class="graph" transform="scale(1 1) rotate(0) translate(4 316)">
<title>interpolated&#45;path.hh</title>
<polygon fill="white" stroke="none" points="-4,4 -4,-316 714.475,-316 714.475,4 -4,4"/>
<!-- Node1 -->
<g id="node1" class="node"><title>Node1</title>
<polygon fill="#bfbfbf" stroke="black" points="334,-292.5 334,-311.5 436,-311.5 436,-292.5 334,-292.5"/>
<text text-anchor="middle" x="385" y="-299.5" font-family="Helvetica,sans-Serif" font-size="10.00">interpolated&#45;path.hh</text>
</g>
<!-- Node2 -->
<g id="node2" class="node"><title>Node2</title>
<g id="a_node2"><a xlink:href="a00001.html" target="_top" xlink:title="hpp/core/fwd.hh">
<polygon fill="white" stroke="black" points="272,-56.5 272,-75.5 358,-75.5 358,-56.5 272,-56.5"/>
<text text-anchor="middle" x="315" y="-63.5" font-family="Helvetica,sans-Serif" font-size="10.00">hpp/core/fwd.hh</text>
</a>
</g>
</g>
<!-- Node1&#45;&gt;Node2 -->
<g id="edge1" class="edge"><title>Node1&#45;&gt;Node2</title>
<path fill="none" stroke="midnightblue" d="M435.675,-292.482C517.718,-277.544 673.73,-243.984 706,-200 714.413,-188.533 708.427,-182.014 706,-168 701.489,-141.959 706.646,-128.499 686,-112 638.111,-73.7286 458.774,-67.4384 368.14,-66.7682"/>
<polygon fill="midnightblue" stroke="midnightblue" points="368.087,-63.268 358.069,-66.7143 368.05,-70.2679 368.087,-63.268"/>
</g>
<!-- Node9 -->
<g id="node9" class="node"><title>Node9</title>
<polygon fill="white" stroke="#bfbfbf" points="81.5,-56.5 81.5,-75.5 178.5,-75.5 178.5,-56.5 81.5,-56.5"/>
<text text-anchor="middle" x="130" y="-63.5" font-family="Helvetica,sans-Serif" font-size="10.00">hpp/core/config.hh</text>
</g>
<!-- Node1&#45;&gt;Node9 -->
<g id="edge8" class="edge"><title>Node1&#45;&gt;Node9</title>
<path fill="none" stroke="midnightblue" d="M333.899,-296.401C274.16,-288.079 177.214,-264.81 128,-200 102.479,-166.391 114.413,-112.993 123.333,-85.1839"/>
<polygon fill="midnightblue" stroke="midnightblue" points="126.697,-86.163 126.631,-75.5683 120.076,-83.8918 126.697,-86.163"/>
</g>
<!-- Node10 -->
<g id="node10" class="node"><title>Node10</title>
<g id="a_node10"><a xlink:href="a00135.html" target="_top" xlink:title="hpp/core/path.hh">
<polygon fill="white" stroke="black" points="340.5,-236.5 340.5,-255.5 429.5,-255.5 429.5,-236.5 340.5,-236.5"/>
<text text-anchor="middle" x="385" y="-243.5" font-family="Helvetica,sans-Serif" font-size="10.00">hpp/core/path.hh</text>
</a>
</g>
</g>
<!-- Node1&#45;&gt;Node10 -->
<g id="edge9" class="edge"><title>Node1&#45;&gt;Node10</title>
<path fill="none" stroke="midnightblue" d="M385,-292.083C385,-285.006 385,-274.861 385,-265.986"/>
<polygon fill="midnightblue" stroke="midnightblue" points="388.5,-265.751 385,-255.751 381.5,-265.751 388.5,-265.751"/>
</g>
<!-- Node3 -->
<g id="node3" class="node"><title>Node3</title>
<polygon fill="white" stroke="#bfbfbf" points="293,-0.5 293,-19.5 337,-19.5 337,-0.5 293,-0.5"/>
<text text-anchor="middle" x="315" y="-7.5" font-family="Helvetica,sans-Serif" font-size="10.00">vector</text>
</g>
<!-- Node2&#45;&gt;Node3 -->
<g id="edge2" class="edge"><title>Node2&#45;&gt;Node3</title>
<path fill="none" stroke="midnightblue" d="M315,-56.083C315,-49.0059 315,-38.8611 315,-29.9865"/>
<polygon fill="midnightblue" stroke="midnightblue" points="318.5,-29.751 315,-19.7511 311.5,-29.7511 318.5,-29.751"/>
</g>
<!-- Node4 -->
<g id="node4" class="node"><title>Node4</title>
<polygon fill="white" stroke="#bfbfbf" points="401.5,-0.5 401.5,-19.5 444.5,-19.5 444.5,-0.5 401.5,-0.5"/>
<text text-anchor="middle" x="423" y="-7.5" font-family="Helvetica,sans-Serif" font-size="10.00">deque</text>
</g>
<!-- Node2&#45;&gt;Node4 -->
<g id="edge3" class="edge"><title>Node2&#45;&gt;Node4</title>
<path fill="none" stroke="midnightblue" d="M332.352,-56.324C349.672,-47.6641 376.515,-34.2424 396.502,-24.249"/>
<polygon fill="midnightblue" stroke="midnightblue" points="398.312,-27.2572 405.691,-19.6545 395.181,-20.9962 398.312,-27.2572"/>
</g>
<!-- Node5 -->
<g id="node5" class="node"><title>Node5</title>
<polygon fill="white" stroke="#bfbfbf" points="354.5,-0.5 354.5,-19.5 383.5,-19.5 383.5,-0.5 354.5,-0.5"/>
<text text-anchor="middle" x="369" y="-7.5" font-family="Helvetica,sans-Serif" font-size="10.00">list</text>
</g>
<!-- Node2&#45;&gt;Node5 -->
<g id="edge4" class="edge"><title>Node2&#45;&gt;Node5</title>
<path fill="none" stroke="midnightblue" d="M323.917,-56.083C331.78,-48.2195 343.431,-36.5688 352.919,-27.0813"/>
<polygon fill="midnightblue" stroke="midnightblue" points="355.653,-29.2971 360.249,-19.7511 350.703,-24.3473 355.653,-29.2971"/>
</g>
<!-- Node6 -->
<g id="node6" class="node"><title>Node6</title>
<polygon fill="white" stroke="#bfbfbf" points="-1,-0.5 -1,-19.5 29,-19.5 29,-0.5 -1,-0.5"/>
<text text-anchor="middle" x="14" y="-7.5" font-family="Helvetica,sans-Serif" font-size="10.00">set</text>
</g>
<!-- Node2&#45;&gt;Node6 -->
<g id="edge5" class="edge"><title>Node2&#45;&gt;Node6</title>
<path fill="none" stroke="midnightblue" d="M271.877,-57.4929C268.874,-56.9834 265.892,-56.4816 263,-56 166.226,-39.884 137.673,-45.5226 38.8719,-19.7716"/>
<polygon fill="midnightblue" stroke="midnightblue" points="39.6495,-16.3569 29.0866,-17.1798 37.8571,-23.1236 39.6495,-16.3569"/>
</g>
<!-- Node7 -->
<g id="node7" class="node"><title>Node7</title>
<polygon fill="white" stroke="#bfbfbf" points="47,-0.5 47,-19.5 141,-19.5 141,-0.5 47,-0.5"/>
<text text-anchor="middle" x="94" y="-7.5" font-family="Helvetica,sans-Serif" font-size="10.00">hpp/util/pointer.hh</text>
</g>
<!-- Node2&#45;&gt;Node7 -->
<g id="edge6" class="edge"><title>Node2&#45;&gt;Node7</title>
<path fill="none" stroke="midnightblue" d="M279.982,-56.4435C241.752,-47.1024 180.433,-32.1194 138.743,-21.9326"/>
<polygon fill="midnightblue" stroke="midnightblue" points="139.399,-18.4901 128.854,-19.5164 137.738,-25.2901 139.399,-18.4901"/>
</g>
<!-- Node8 -->
<g id="node8" class="node"><title>Node8</title>
<g id="a_node8"><a doxygen="https://jmirabel.github.io/hpp-doc/api/hpp-constraints/doxygen-html/hpp-constraints.doxytag:https://jmirabel.github.io/hpp-doc/api/hpp-constraints/doxygen-html/" xlink:href="https://jmirabel.github.io/hpp-doc/api/hpp-constraints/doxygen-html/a00001.html" target="_top" xlink:title="hpp/constraints/fwd.hh">
<polygon fill="white" stroke="black" points="159,-0.5 159,-19.5 275,-19.5 275,-0.5 159,-0.5"/>
<text text-anchor="middle" x="217" y="-7.5" font-family="Helvetica,sans-Serif" font-size="10.00">hpp/constraints/fwd.hh</text>
</a>
</g>
</g>
<!-- Node2&#45;&gt;Node8 -->
<g id="edge7" class="edge"><title>Node2&#45;&gt;Node8</title>
<path fill="none" stroke="midnightblue" d="M299.255,-56.324C283.681,-47.7428 259.623,-34.486 241.541,-24.5224"/>
<polygon fill="midnightblue" stroke="midnightblue" points="243.154,-21.4152 232.706,-19.6545 239.776,-27.546 243.154,-21.4152"/>
</g>
<!-- Node10&#45;&gt;Node2 -->
<g id="edge11" class="edge"><title>Node10&#45;&gt;Node2</title>
<path fill="none" stroke="midnightblue" d="M390.719,-236.262C399.443,-221.777 414.144,-192.007 405,-168 391.051,-131.379 357.053,-99.5903 335.066,-81.8911"/>
<polygon fill="midnightblue" stroke="midnightblue" points="337.057,-79.0045 327.02,-75.6092 332.749,-84.522 337.057,-79.0045"/>
</g>
<!-- Node10&#45;&gt;Node9 -->
<g id="edge12" class="edge"><title>Node10&#45;&gt;Node9</title>
<path fill="none" stroke="midnightblue" d="M340.276,-242.528C279.301,-238.182 174.704,-226.928 149,-200 119.427,-169.018 122.503,-114.054 126.606,-85.4516"/>
<polygon fill="midnightblue" stroke="midnightblue" points="130.062,-86.0062 128.22,-75.5726 123.153,-84.8773 130.062,-86.0062"/>
</g>
<!-- Node11 -->
<g id="node11" class="node"><title>Node11</title>
<polygon fill="white" stroke="#bfbfbf" points="452,-174.5 452,-193.5 580,-193.5 580,-174.5 452,-174.5"/>
<text text-anchor="middle" x="516" y="-181.5" font-family="Helvetica,sans-Serif" font-size="10.00">boost/concept_check.hpp</text>
</g>
<!-- Node10&#45;&gt;Node11 -->
<g id="edge10" class="edge"><title>Node10&#45;&gt;Node11</title>
<path fill="none" stroke="midnightblue" d="M403.769,-236.403C425.851,-226.29 462.719,-209.404 488.139,-197.761"/>
<polygon fill="midnightblue" stroke="midnightblue" points="489.631,-200.927 497.266,-193.581 486.716,-194.563 489.631,-200.927"/>
</g>
<!-- Node12 -->
<g id="node12" class="node"><title>Node12</title>
<g id="a_node12"><a xlink:href="a00099.html" target="_top" xlink:title="hpp/core/constraint\l&#45;set.hh">
<polygon fill="white" stroke="black" points="296,-169 296,-199 396,-199 396,-169 296,-169"/>
<text text-anchor="start" x="304" y="-187" font-family="Helvetica,sans-Serif" font-size="10.00">hpp/core/constraint</text>
<text text-anchor="middle" x="346" y="-176" font-family="Helvetica,sans-Serif" font-size="10.00">&#45;set.hh</text>
</a>
</g>
</g>
<!-- Node10&#45;&gt;Node12 -->
<g id="edge13" class="edge"><title>Node10&#45;&gt;Node12</title>
<path fill="none" stroke="midnightblue" d="M379.412,-236.403C374.525,-228.885 367.205,-217.624 360.662,-207.556"/>
<polygon fill="midnightblue" stroke="midnightblue" points="363.576,-205.618 355.192,-199.141 357.707,-209.433 363.576,-205.618"/>
</g>
<!-- Node15 -->
<g id="node15" class="node"><title>Node15</title>
<polygon fill="white" stroke="#bfbfbf" points="158.5,-174.5 158.5,-193.5 277.5,-193.5 277.5,-174.5 158.5,-174.5"/>
<text text-anchor="middle" x="218" y="-181.5" font-family="Helvetica,sans-Serif" font-size="10.00">hpp/core/deprecated.hh</text>
</g>
<!-- Node10&#45;&gt;Node15 -->
<g id="edge19" class="edge"><title>Node10&#45;&gt;Node15</title>
<path fill="none" stroke="midnightblue" d="M361.073,-236.403C332.303,-226.067 283.844,-208.656 251.398,-196.999"/>
<polygon fill="midnightblue" stroke="midnightblue" points="252.477,-193.668 241.883,-193.581 250.11,-200.256 252.477,-193.668"/>
</g>
<!-- Node16 -->
<g id="node16" class="node"><title>Node16</title>
<g id="a_node16"><a xlink:href="a00143.html" target="_top" xlink:title="hpp/core/projection\l&#45;error.hh">
<polygon fill="white" stroke="black" points="598.5,-169 598.5,-199 697.5,-199 697.5,-169 598.5,-169"/>
<text text-anchor="start" x="606.5" y="-187" font-family="Helvetica,sans-Serif" font-size="10.00">hpp/core/projection</text>
<text text-anchor="middle" x="648" y="-176" font-family="Helvetica,sans-Serif" font-size="10.00">&#45;error.hh</text>
</a>
</g>
</g>
<!-- Node10&#45;&gt;Node16 -->
<g id="edge20" class="edge"><title>Node10&#45;&gt;Node16</title>
<path fill="none" stroke="midnightblue" d="M425.342,-236.497C464.464,-228.164 525.743,-214.878 588.391,-200.102"/>
<polygon fill="midnightblue" stroke="midnightblue" points="589.53,-203.429 598.454,-197.718 587.916,-196.618 589.53,-203.429"/>
</g>
<!-- Node12&#45;&gt;Node4 -->
<g id="edge14" class="edge"><title>Node12&#45;&gt;Node4</title>
<path fill="none" stroke="midnightblue" d="M352.301,-168.925C366.233,-137.805 399.631,-63.2012 415.006,-28.8577"/>
<polygon fill="midnightblue" stroke="midnightblue" points="418.265,-30.1419 419.157,-19.5847 411.876,-27.2817 418.265,-30.1419"/>
</g>
<!-- Node13 -->
<g id="node13" class="node"><title>Node13</title>
<g id="a_node13"><a xlink:href="a00100.html" target="_top" xlink:title="hpp/core/constraint.hh">
<polygon fill="white" stroke="black" points="207.5,-112.5 207.5,-131.5 320.5,-131.5 320.5,-112.5 207.5,-112.5"/>
<text text-anchor="middle" x="264" y="-119.5" font-family="Helvetica,sans-Serif" font-size="10.00">hpp/core/constraint.hh</text>
</a>
</g>
</g>
<!-- Node12&#45;&gt;Node13 -->
<g id="edge15" class="edge"><title>Node12&#45;&gt;Node13</title>
<path fill="none" stroke="midnightblue" d="M326.567,-168.781C313.792,-159.433 297.111,-147.227 284.186,-137.77"/>
<polygon fill="midnightblue" stroke="midnightblue" points="286.069,-134.811 275.932,-131.731 281.935,-140.46 286.069,-134.811"/>
</g>
<!-- Node13&#45;&gt;Node2 -->
<g id="edge18" class="edge"><title>Node13&#45;&gt;Node2</title>
<path fill="none" stroke="midnightblue" d="M272.422,-112.083C279.848,-104.22 290.852,-92.5688 299.812,-83.0813"/>
<polygon fill="midnightblue" stroke="midnightblue" points="302.413,-85.4244 306.735,-75.7511 297.324,-80.618 302.413,-85.4244"/>
</g>
<!-- Node13&#45;&gt;Node9 -->
<g id="edge17" class="edge"><title>Node13&#45;&gt;Node9</title>
<path fill="none" stroke="midnightblue" d="M242.767,-112.444C220.616,-103.517 185.681,-89.4387 160.564,-79.3168"/>
<polygon fill="midnightblue" stroke="midnightblue" points="161.717,-76.0079 151.133,-75.5164 159.1,-82.5006 161.717,-76.0079"/>
</g>
<!-- Node14 -->
<g id="node14" class="node"><title>Node14</title>
<polygon fill="white" stroke="#bfbfbf" points="202,-56.5 202,-75.5 254,-75.5 254,-56.5 202,-56.5"/>
<text text-anchor="middle" x="228" y="-63.5" font-family="Helvetica,sans-Serif" font-size="10.00">ostream</text>
</g>
<!-- Node13&#45;&gt;Node14 -->
<g id="edge16" class="edge"><title>Node13&#45;&gt;Node14</title>
<path fill="none" stroke="midnightblue" d="M258.055,-112.083C253.023,-104.534 245.663,-93.4948 239.487,-84.2298"/>
<polygon fill="midnightblue" stroke="midnightblue" points="242.293,-82.1301 233.834,-75.7511 236.469,-86.0131 242.293,-82.1301"/>
</g>
<!-- Node17 -->
<g id="node17" class="node"><title>Node17</title>
<polygon fill="white" stroke="#bfbfbf" points="618.5,-112.5 618.5,-131.5 677.5,-131.5 677.5,-112.5 618.5,-112.5"/>
<text text-anchor="middle" x="648" y="-119.5" font-family="Helvetica,sans-Serif" font-size="10.00">exception</text>
</g>
<!-- Node16&#45;&gt;Node17 -->
<g id="edge21" class="edge"><title>Node16&#45;&gt;Node17</title>
<path fill="none" stroke="midnightblue" d="M648,-168.781C648,-160.781 648,-150.689 648,-142.017"/>
<polygon fill="midnightblue" stroke="midnightblue" points="651.5,-141.73 648,-131.731 644.5,-141.731 651.5,-141.73"/>
</g>
</g>
</svg>
