<?xml version="1.0" encoding="UTF-8" standalone="no"?>
<!DOCTYPE svg PUBLIC "-//W3C//DTD SVG 1.1//EN"
 "http://www.w3.org/Graphics/SVG/1.1/DTD/svg11.dtd">
<!-- Generated by graphviz version 2.36.0 (20140111.2315)
 -->
<!-- Title: path&#45;length.hh Pages: 1 -->
<svg width="478pt" height="276pt"
 viewBox="0.00 0.00 478.00 276.00" xmlns="http://www.w3.org/2000/svg" xmlns:xlink="http://www.w3.org/1999/xlink">
<g id="graph0" class="graph" transform="scale(1 1) rotate(0) translate(4 272)">
<title>path&#45;length.hh</title>
<polygon fill="white" stroke="none" points="-4,4 -4,-272 474,-272 474,4 -4,4"/>
<!-- Node1 -->
<g id="node1" class="node"><title>Node1</title>
<polygon fill="#bfbfbf" stroke="black" points="245,-248.5 245,-267.5 323,-267.5 323,-248.5 245,-248.5"/>
<text text-anchor="middle" x="284" y="-255.5" font-family="Helvetica,sans-Serif" font-size="10.00">path&#45;length.hh</text>
</g>
<!-- Node2 -->
<g id="node2" class="node"><title>Node2</title>
<g id="a_node2"><a xlink:href="a00102.html" target="_top" xlink:title="hpp/core/path&#45;optimization\l/cost.hh">
<polygon fill="white" stroke="black" points="218.5,-181 218.5,-211 349.5,-211 349.5,-181 218.5,-181"/>
<text text-anchor="start" x="226.5" y="-199" font-family="Helvetica,sans-Serif" font-size="10.00">hpp/core/path&#45;optimization</text>
<text text-anchor="middle" x="284" y="-188" font-family="Helvetica,sans-Serif" font-size="10.00">/cost.hh</text>
</a>
</g>
</g>
<!-- Node1&#45;&gt;Node2 -->
<g id="edge1" class="edge"><title>Node1&#45;&gt;Node2</title>
<path fill="none" stroke="midnightblue" d="M284,-248.403C284,-241.341 284,-230.975 284,-221.399"/>
<polygon fill="midnightblue" stroke="midnightblue" points="287.5,-221.141 284,-211.141 280.5,-221.141 287.5,-221.141"/>
</g>
<!-- Node3 -->
<g id="node3" class="node"><title>Node3</title>
<g id="a_node3"><a doxygen="https://jmirabel.github.io/hpp-doc/api/hpp-constraints/doxygen-html/hpp-constraints.doxytag:https://jmirabel.github.io/hpp-doc/api/hpp-constraints/doxygen-html/" xlink:href="https://jmirabel.github.io/hpp-doc/api/hpp-constraints/doxygen-html/a00047.html" target="_top" xlink:title="hpp/constraints/differentiable\l&#45;function.hh">
<polygon fill="white" stroke="black" points="213,-113 213,-143 355,-143 355,-113 213,-113"/>
<text text-anchor="start" x="221" y="-131" font-family="Helvetica,sans-Serif" font-size="10.00">hpp/constraints/differentiable</text>
<text text-anchor="middle" x="284" y="-120" font-family="Helvetica,sans-Serif" font-size="10.00">&#45;function.hh</text>
</a>
</g>
</g>
<!-- Node2&#45;&gt;Node3 -->
<g id="edge2" class="edge"><title>Node2&#45;&gt;Node3</title>
<path fill="none" stroke="midnightblue" d="M284,-180.679C284,-172.722 284,-162.605 284,-153.436"/>
<polygon fill="midnightblue" stroke="midnightblue" points="287.5,-153.293 284,-143.293 280.5,-153.293 287.5,-153.293"/>
</g>
<!-- Node4 -->
<g id="node4" class="node"><title>Node4</title>
<g id="a_node4"><a xlink:href="a00001.html" target="_top" xlink:title="hpp/constraints/fwd.hh">
<polygon fill="white" stroke="black" points="127,-56.5 127,-75.5 243,-75.5 243,-56.5 127,-56.5"/>
<text text-anchor="middle" x="185" y="-63.5" font-family="Helvetica,sans-Serif" font-size="10.00">hpp/constraints/fwd.hh</text>
</a>
</g>
</g>
<!-- Node2&#45;&gt;Node4 -->
<g id="edge11" class="edge"><title>Node2&#45;&gt;Node4</title>
<path fill="none" stroke="midnightblue" d="M250.418,-180.918C234.13,-172.47 215.622,-160.191 204,-144 191.735,-126.914 187.342,-102.804 185.794,-86.1347"/>
<polygon fill="midnightblue" stroke="midnightblue" points="189.273,-85.7057 185.114,-75.9612 182.289,-86.1722 189.273,-85.7057"/>
</g>
<!-- Node11 -->
<g id="node11" class="node"><title>Node11</title>
<polygon fill="white" stroke="#bfbfbf" points="373.5,-118.5 373.5,-137.5 470.5,-137.5 470.5,-118.5 373.5,-118.5"/>
<text text-anchor="middle" x="422" y="-125.5" font-family="Helvetica,sans-Serif" font-size="10.00">hpp/core/config.hh</text>
</g>
<!-- Node2&#45;&gt;Node11 -->
<g id="edge12" class="edge"><title>Node2&#45;&gt;Node11</title>
<path fill="none" stroke="midnightblue" d="M313.604,-180.841C337.688,-169.323 371.402,-153.199 394.811,-142.004"/>
<polygon fill="midnightblue" stroke="midnightblue" points="396.336,-145.154 403.847,-137.682 393.316,-138.839 396.336,-145.154"/>
</g>
<!-- Node3&#45;&gt;Node4 -->
<g id="edge3" class="edge"><title>Node3&#45;&gt;Node4</title>
<path fill="none" stroke="midnightblue" d="M260.789,-112.933C244.832,-103.262 223.741,-90.4793 207.86,-80.8546"/>
<polygon fill="midnightblue" stroke="midnightblue" points="209.556,-77.7899 199.19,-75.6 205.928,-83.7763 209.556,-77.7899"/>
</g>
<!-- Node10 -->
<g id="node10" class="node"><title>Node10</title>
<g id="a_node10"><a doxygen="https://jmirabel.github.io/hpp-doc/api/hpp-constraints/doxygen-html/hpp-constraints.doxytag:https://jmirabel.github.io/hpp-doc/api/hpp-constraints/doxygen-html/" xlink:href="https://jmirabel.github.io/hpp-doc/api/hpp-constraints/doxygen-html/a00001.html" target="_top" xlink:title="hpp/constraints/fwd.hh">
<polygon fill="white" stroke="black" points="330,-0.5 330,-19.5 446,-19.5 446,-0.5 330,-0.5"/>
<text text-anchor="middle" x="388" y="-7.5" font-family="Helvetica,sans-Serif" font-size="10.00">hpp/constraints/fwd.hh</text>
</a>
</g>
</g>
<!-- Node3&#45;&gt;Node10 -->
<g id="edge10" class="edge"><title>Node3&#45;&gt;Node10</title>
<path fill="none" stroke="midnightblue" d="M296.752,-112.776C316.172,-91.1157 353.052,-49.9809 373.476,-27.1996"/>
<polygon fill="midnightblue" stroke="midnightblue" points="376.124,-29.4891 380.194,-19.707 370.912,-24.8163 376.124,-29.4891"/>
</g>
<!-- Node5 -->
<g id="node5" class="node"><title>Node5</title>
<polygon fill="white" stroke="#bfbfbf" points="-1,-0.5 -1,-19.5 43,-19.5 43,-0.5 -1,-0.5"/>
<text text-anchor="middle" x="21" y="-7.5" font-family="Helvetica,sans-Serif" font-size="10.00">vector</text>
</g>
<!-- Node4&#45;&gt;Node5 -->
<g id="edge4" class="edge"><title>Node4&#45;&gt;Node5</title>
<path fill="none" stroke="midnightblue" d="M159.014,-56.4435C130.288,-46.985 83.9947,-31.7421 53.0437,-21.551"/>
<polygon fill="midnightblue" stroke="midnightblue" points="53.7761,-18.1073 43.183,-18.3042 51.5868,-24.7562 53.7761,-18.1073"/>
</g>
<!-- Node6 -->
<g id="node6" class="node"><title>Node6</title>
<polygon fill="white" stroke="#bfbfbf" points="61.5,-0.5 61.5,-19.5 104.5,-19.5 104.5,-0.5 61.5,-0.5"/>
<text text-anchor="middle" x="83" y="-7.5" font-family="Helvetica,sans-Serif" font-size="10.00">deque</text>
</g>
<!-- Node4&#45;&gt;Node6 -->
<g id="edge5" class="edge"><title>Node4&#45;&gt;Node6</title>
<path fill="none" stroke="midnightblue" d="M168.612,-56.324C152.329,-47.7034 127.133,-34.3643 108.284,-24.3855"/>
<polygon fill="midnightblue" stroke="midnightblue" points="109.823,-21.2402 99.3474,-19.6545 106.548,-27.4267 109.823,-21.2402"/>
</g>
<!-- Node7 -->
<g id="node7" class="node"><title>Node7</title>
<polygon fill="white" stroke="#bfbfbf" points="122.5,-0.5 122.5,-19.5 151.5,-19.5 151.5,-0.5 122.5,-0.5"/>
<text text-anchor="middle" x="137" y="-7.5" font-family="Helvetica,sans-Serif" font-size="10.00">list</text>
</g>
<!-- Node4&#45;&gt;Node7 -->
<g id="edge6" class="edge"><title>Node4&#45;&gt;Node7</title>
<path fill="none" stroke="midnightblue" d="M177.074,-56.083C170.154,-48.2982 159.935,-36.8015 151.548,-27.3665"/>
<polygon fill="midnightblue" stroke="midnightblue" points="154.038,-24.8999 144.779,-19.7511 148.806,-29.5505 154.038,-24.8999"/>
</g>
<!-- Node8 -->
<g id="node8" class="node"><title>Node8</title>
<polygon fill="white" stroke="#bfbfbf" points="170,-0.5 170,-19.5 200,-19.5 200,-0.5 170,-0.5"/>
<text text-anchor="middle" x="185" y="-7.5" font-family="Helvetica,sans-Serif" font-size="10.00">set</text>
</g>
<!-- Node4&#45;&gt;Node8 -->
<g id="edge7" class="edge"><title>Node4&#45;&gt;Node8</title>
<path fill="none" stroke="midnightblue" d="M185,-56.083C185,-49.0059 185,-38.8611 185,-29.9865"/>
<polygon fill="midnightblue" stroke="midnightblue" points="188.5,-29.751 185,-19.7511 181.5,-29.7511 188.5,-29.751"/>
</g>
<!-- Node9 -->
<g id="node9" class="node"><title>Node9</title>
<polygon fill="white" stroke="#bfbfbf" points="218,-0.5 218,-19.5 312,-19.5 312,-0.5 218,-0.5"/>
<text text-anchor="middle" x="265" y="-7.5" font-family="Helvetica,sans-Serif" font-size="10.00">hpp/util/pointer.hh</text>
</g>
<!-- Node4&#45;&gt;Node9 -->
<g id="edge8" class="edge"><title>Node4&#45;&gt;Node9</title>
<path fill="none" stroke="midnightblue" d="M197.853,-56.324C210.216,-47.979 229.13,-35.2122 243.737,-25.3524"/>
<polygon fill="midnightblue" stroke="midnightblue" points="245.848,-28.1503 252.179,-19.6545 241.932,-22.3483 245.848,-28.1503"/>
</g>
<!-- Node4&#45;&gt;Node10 -->
<g id="edge9" class="edge"><title>Node4&#45;&gt;Node10</title>
<path fill="none" stroke="midnightblue" d="M217.166,-56.4435C252.059,-47.1616 307.893,-32.3093 346.171,-22.127"/>
<polygon fill="midnightblue" stroke="midnightblue" points="347.22,-25.4696 355.985,-19.5164 345.421,-18.7048 347.22,-25.4696"/>
</g>
</g>
</svg>
