<?xml version="1.0" encoding="UTF-8" standalone="no"?>
<!DOCTYPE svg PUBLIC "-//W3C//DTD SVG 1.1//EN"
 "http://www.w3.org/Graphics/SVG/1.1/DTD/svg11.dtd">
<!-- Generated by graphviz version 2.36.0 (20140111.2315)
 -->
<!-- Title: hpp::core::Constraint Pages: 1 -->
<svg width="279pt" height="84pt"
 viewBox="0.00 0.00 279.00 84.00" xmlns="http://www.w3.org/2000/svg" xmlns:xlink="http://www.w3.org/1999/xlink">
<g id="graph0" class="graph" transform="scale(1 1) rotate(0) translate(4 80)">
<title>hpp::core::Constraint</title>
<polygon fill="white" stroke="none" points="-4,4 -4,-80 275,-80 275,4 -4,4"/>
<!-- Node1 -->
<g id="node1" class="node"><title>Node1</title>
<polygon fill="#bfbfbf" stroke="black" points="83,-56.5 83,-75.5 191,-75.5 191,-56.5 83,-56.5"/>
<text text-anchor="middle" x="137" y="-63.5" font-family="Helvetica,sans-Serif" font-size="10.00">hpp::core::Constraint</text>
</g>
<!-- Node2 -->
<g id="node2" class="node"><title>Node2</title>
<g id="a_node2"><a xlink:href="a00014.html" target="_top" xlink:title="Implicit non&#45;linear constraint. ">
<polygon fill="white" stroke="black" points="-0.5,-0.5 -0.5,-19.5 130.5,-19.5 130.5,-0.5 -0.5,-0.5"/>
<text text-anchor="middle" x="65" y="-7.5" font-family="Helvetica,sans-Serif" font-size="10.00">hpp::core::ConfigProjector</text>
</a>
</g>
</g>
<!-- Node1&#45;&gt;Node2 -->
<g id="edge1" class="edge"><title>Node1&#45;&gt;Node2</title>
<path fill="none" stroke="midnightblue" d="M117.134,-50.1008C104.177,-40.3824 87.7026,-28.0269 76.7785,-19.8339"/>
<polygon fill="midnightblue" stroke="midnightblue" points="115.332,-53.1239 125.432,-56.324 119.532,-47.5239 115.332,-53.1239"/>
</g>
<!-- Node3 -->
<g id="node3" class="node"><title>Node3</title>
<g id="a_node3"><a xlink:href="a00020.html" target="_top" xlink:title="Set of constraints applicable to a robot configuration. ">
<polygon fill="white" stroke="black" points="148.5,-0.5 148.5,-19.5 271.5,-19.5 271.5,-0.5 148.5,-0.5"/>
<text text-anchor="middle" x="210" y="-7.5" font-family="Helvetica,sans-Serif" font-size="10.00">hpp::core::ConstraintSet</text>
</a>
</g>
</g>
<!-- Node1&#45;&gt;Node3 -->
<g id="edge2" class="edge"><title>Node1&#45;&gt;Node3</title>
<path fill="none" stroke="midnightblue" d="M157.142,-50.1008C170.279,-40.3824 186.982,-28.0269 198.058,-19.8339"/>
<polygon fill="midnightblue" stroke="midnightblue" points="154.687,-47.5631 148.729,-56.324 158.85,-53.1907 154.687,-47.5631"/>
</g>
</g>
</svg>
