<?xml version="1.0" encoding="UTF-8" standalone="no"?>
<!DOCTYPE svg PUBLIC "-//W3C//DTD SVG 1.1//EN"
 "http://www.w3.org/Graphics/SVG/1.1/DTD/svg11.dtd">
<!-- Generated by graphviz version 2.36.0 (20140111.2315)
 -->
<!-- Title: hpp::core::JointBoundException Pages: 1 -->
<svg width="254pt" height="164pt"
 viewBox="0.00 0.00 254.00 164.00" xmlns="http://www.w3.org/2000/svg" xmlns:xlink="http://www.w3.org/1999/xlink">
<g id="graph0" class="graph" transform="scale(1 1) rotate(0) translate(4 160)">
<title>hpp::core::JointBoundException</title>
<polygon fill="white" stroke="none" points="-4,4 -4,-160 250,-160 250,4 -4,4"/>
<!-- Node1 -->
<g id="node1" class="node"><title>Node1</title>
<polygon fill="#bfbfbf" stroke="black" points="39.5,-0.5 39.5,-19.5 194.5,-19.5 194.5,-0.5 39.5,-0.5"/>
<text text-anchor="middle" x="117" y="-7.5" font-family="Helvetica,sans-Serif" font-size="10.00">hpp::core::JointBoundException</text>
</g>
<!-- Node2 -->
<g id="node2" class="node"><title>Node2</title>
<g id="a_node2"><a xlink:title="STL class. ">
<polygon fill="white" stroke="#bfbfbf" points="-0.5,-68.5 -0.5,-87.5 92.5,-87.5 92.5,-68.5 -0.5,-68.5"/>
<text text-anchor="middle" x="46" y="-75.5" font-family="Helvetica,sans-Serif" font-size="10.00">std::runtime_error</text>
</a>
</g>
</g>
<!-- Node2&#45;&gt;Node1 -->
<g id="edge1" class="edge"><title>Node2&#45;&gt;Node1</title>
<path fill="none" stroke="midnightblue" d="M62.7687,-61.4122C76.7164,-48.4468 96.0701,-30.4559 107.489,-19.8411"/>
<polygon fill="midnightblue" stroke="midnightblue" points="60.2233,-58.9997 55.282,-68.3717 64.9893,-64.1267 60.2233,-58.9997"/>
</g>
<!-- Node3 -->
<g id="node3" class="node"><title>Node3</title>
<g id="a_node3"><a xlink:title="STL class. ">
<polygon fill="white" stroke="#bfbfbf" points="1,-136.5 1,-155.5 79,-155.5 79,-136.5 1,-136.5"/>
<text text-anchor="middle" x="40" y="-143.5" font-family="Helvetica,sans-Serif" font-size="10.00">std::exception</text>
</a>
</g>
</g>
<!-- Node3&#45;&gt;Node2 -->
<g id="edge2" class="edge"><title>Node3&#45;&gt;Node2</title>
<path fill="none" stroke="midnightblue" d="M41.7235,-126.041C42.8661,-113.472 44.3124,-97.5631 45.1963,-87.8411"/>
<polygon fill="midnightblue" stroke="midnightblue" points="38.2042,-126.096 40.7844,-136.372 45.1755,-126.73 38.2042,-126.096"/>
</g>
<!-- Node4 -->
<g id="node4" class="node"><title>Node4</title>
<g id="a_node4"><a doxygen="https://jmirabel.github.io/hpp-doc/api/hpp-model/doxygen-html/hpp-model.doxytag:https://jmirabel.github.io/hpp-doc/api/hpp-model/doxygen-html/" xlink:href="https://jmirabel.github.io/hpp-doc/api/hpp-model/doxygen-html/a00013.html" target="_top" xlink:title="hpp::model::Joint">
<polygon fill="white" stroke="black" points="121,-68.5 121,-87.5 213,-87.5 213,-68.5 121,-68.5"/>
<text text-anchor="middle" x="167" y="-75.5" font-family="Helvetica,sans-Serif" font-size="10.00">hpp::model::Joint</text>
</a>
</g>
</g>
<!-- Node4&#45;&gt;Node1 -->
<g id="edge3" class="edge"><title>Node4&#45;&gt;Node1</title>
<path fill="none" stroke="#9a32cd" stroke-dasharray="5,2" d="M154.356,-60.3101C144.609,-47.4437 131.514,-30.1583 123.698,-19.8411"/>
<polygon fill="#9a32cd" stroke="#9a32cd" points="151.635,-62.5142 160.463,-68.3717 157.215,-58.2872 151.635,-62.5142"/>
<text text-anchor="middle" x="160.5" y="-41.5" font-family="Helvetica,sans-Serif" font-size="10.00"> joint_</text>
</g>
<!-- Node5 -->
<g id="node5" class="node"><title>Node5</title>
<g id="a_node5"><a doxygen="https://jmirabel.github.io/hpp-doc/api/hpp-model/doxygen-html/hpp-model.doxytag:https://jmirabel.github.io/hpp-doc/api/hpp-model/doxygen-html/" xlink:href="https://jmirabel.github.io/hpp-doc/api/hpp-model/doxygen-html/a00015.html" target="_top" xlink:title="hpp::model::JointConfiguration">
<polygon fill="white" stroke="black" points="97.5,-136.5 97.5,-155.5 246.5,-155.5 246.5,-136.5 97.5,-136.5"/>
<text text-anchor="middle" x="172" y="-143.5" font-family="Helvetica,sans-Serif" font-size="10.00">hpp::model::JointConfiguration</text>
</a>
</g>
</g>
<!-- Node5&#45;&gt;Node4 -->
<g id="edge4" class="edge"><title>Node5&#45;&gt;Node4</title>
<path fill="none" stroke="#9a32cd" stroke-dasharray="5,2" d="M170.564,-126.041C169.612,-113.472 168.406,-97.5631 167.67,-87.8411"/>
<polygon fill="#9a32cd" stroke="#9a32cd" points="167.101,-126.665 171.346,-136.372 174.081,-126.136 167.101,-126.665"/>
<text text-anchor="middle" x="202" y="-109.5" font-family="Helvetica,sans-Serif" font-size="10.00"> configuration_</text>
</g>
</g>
</svg>
