<?xml version="1.0" encoding="UTF-8" standalone="no"?>
<!DOCTYPE svg PUBLIC "-//W3C//DTD SVG 1.1//EN"
 "http://www.w3.org/Graphics/SVG/1.1/DTD/svg11.dtd">
<!-- Generated by graphviz version 2.36.0 (20140111.2315)
 -->
<!-- Title: hpp::core::ProblemTarget Pages: 1 -->
<svg width="275pt" height="96pt"
 viewBox="0.00 0.00 275.00 96.00" xmlns="http://www.w3.org/2000/svg" xmlns:xlink="http://www.w3.org/1999/xlink">
<g id="graph0" class="graph" transform="scale(1 1) rotate(0) translate(4 92)">
<title>hpp::core::ProblemTarget</title>
<polygon fill="white" stroke="none" points="-4,4 -4,-92 271,-92 271,4 -4,4"/>
<!-- Node1 -->
<g id="node1" class="node"><title>Node1</title>
<polygon fill="#bfbfbf" stroke="black" points="69.5,-68.5 69.5,-87.5 196.5,-87.5 196.5,-68.5 69.5,-68.5"/>
<text text-anchor="middle" x="133" y="-75.5" font-family="Helvetica,sans-Serif" font-size="10.00">hpp::core::ProblemTarget</text>
</g>
<!-- Node2 -->
<g id="node2" class="node"><title>Node2</title>
<g id="a_node2"><a xlink:href="a00038.html" target="_top" xlink:title="Goal configurations. ">
<polygon fill="white" stroke="black" points="-0.5,-1 -0.5,-31 124.5,-31 124.5,-1 -0.5,-1"/>
<text text-anchor="start" x="7.5" y="-19" font-family="Helvetica,sans-Serif" font-size="10.00">hpp::core::problemTarget</text>
<text text-anchor="middle" x="62" y="-8" font-family="Helvetica,sans-Serif" font-size="10.00">::GoalConfigurations</text>
</a>
</g>
</g>
<!-- Node1&#45;&gt;Node2 -->
<g id="edge1" class="edge"><title>Node1&#45;&gt;Node2</title>
<path fill="none" stroke="midnightblue" d="M115.007,-61.7947C103.859,-52.3738 89.6382,-40.3562 78.7333,-31.1408"/>
<polygon fill="midnightblue" stroke="midnightblue" points="112.93,-64.6221 122.827,-68.4035 117.449,-59.2755 112.93,-64.6221"/>
</g>
<!-- Node3 -->
<g id="node3" class="node"><title>Node3</title>
<g id="a_node3"><a xlink:href="a00082.html" target="_top" xlink:title="Task target. ">
<polygon fill="white" stroke="black" points="142.5,-1 142.5,-31 267.5,-31 267.5,-1 142.5,-1"/>
<text text-anchor="start" x="150.5" y="-19" font-family="Helvetica,sans-Serif" font-size="10.00">hpp::core::problemTarget</text>
<text text-anchor="middle" x="205" y="-8" font-family="Helvetica,sans-Serif" font-size="10.00">::TaskTarget</text>
</a>
</g>
</g>
<!-- Node1&#45;&gt;Node3 -->
<g id="edge2" class="edge"><title>Node1&#45;&gt;Node3</title>
<path fill="none" stroke="midnightblue" d="M151.246,-61.7947C162.551,-52.3738 176.973,-40.3562 188.031,-31.1408"/>
<polygon fill="midnightblue" stroke="midnightblue" points="148.757,-59.3128 143.316,-68.4035 153.239,-64.6904 148.757,-59.3128"/>
</g>
</g>
</svg>
