<?xml version="1.0" encoding="UTF-8" standalone="no"?>
<!DOCTYPE svg PUBLIC "-//W3C//DTD SVG 1.1//EN"
 "http://www.w3.org/Graphics/SVG/1.1/DTD/svg11.dtd">
<!-- Generated by graphviz version 2.36.0 (20140111.2315)
 -->
<!-- Title: hpp::core::pathOptimization::Cost Pages: 1 -->
<svg width="144pt" height="164pt"
 viewBox="0.00 0.00 144.00 164.00" xmlns="http://www.w3.org/2000/svg" xmlns:xlink="http://www.w3.org/1999/xlink">
<g id="graph0" class="graph" transform="scale(1 1) rotate(0) translate(4 160)">
<title>hpp::core::pathOptimization::Cost</title>
<polygon fill="white" stroke="none" points="-4,4 -4,-160 140,-160 140,4 -4,4"/>
<!-- Node1 -->
<g id="node1" class="node"><title>Node1</title>
<polygon fill="#bfbfbf" stroke="black" points="-0.5,-69 -0.5,-99 136.5,-99 136.5,-69 -0.5,-69"/>
<text text-anchor="start" x="7.5" y="-87" font-family="Helvetica,sans-Serif" font-size="10.00">hpp::core::pathOptimization</text>
<text text-anchor="middle" x="68" y="-76" font-family="Helvetica,sans-Serif" font-size="10.00">::Cost</text>
</g>
<!-- Node3 -->
<g id="node3" class="node"><title>Node3</title>
<g id="a_node3"><a xlink:href="a00058.html" target="_top" xlink:title="Path length as a cost for optimization. ">
<polygon fill="white" stroke="black" points="-0.5,-1 -0.5,-31 136.5,-31 136.5,-1 -0.5,-1"/>
<text text-anchor="start" x="7.5" y="-19" font-family="Helvetica,sans-Serif" font-size="10.00">hpp::core::pathOptimization</text>
<text text-anchor="middle" x="68" y="-8" font-family="Helvetica,sans-Serif" font-size="10.00">::PathLength</text>
</a>
</g>
</g>
<!-- Node1&#45;&gt;Node3 -->
<g id="edge2" class="edge"><title>Node1&#45;&gt;Node3</title>
<path fill="none" stroke="midnightblue" d="M68,-58.5322C68,-49.3606 68,-39.2449 68,-31.2931"/>
<polygon fill="midnightblue" stroke="midnightblue" points="64.5001,-58.6789 68,-68.679 71.5001,-58.679 64.5001,-58.6789"/>
</g>
<!-- Node2 -->
<g id="node2" class="node"><title>Node2</title>
<g id="a_node2"><a doxygen="https://jmirabel.github.io/hpp-doc/api/hpp-constraints/doxygen-html/hpp-constraints.doxytag:https://jmirabel.github.io/hpp-doc/api/hpp-constraints/doxygen-html/" xlink:href="https://jmirabel.github.io/hpp-doc/api/hpp-constraints/doxygen-html/a00012.html" target="_top" xlink:title="DifferentiableFunction">
<polygon fill="white" stroke="black" points="12,-136.5 12,-155.5 124,-155.5 124,-136.5 12,-136.5"/>
<text text-anchor="middle" x="68" y="-143.5" font-family="Helvetica,sans-Serif" font-size="10.00">DifferentiableFunction</text>
</a>
</g>
</g>
<!-- Node2&#45;&gt;Node1 -->
<g id="edge1" class="edge"><title>Node2&#45;&gt;Node1</title>
<path fill="none" stroke="midnightblue" d="M68,-126.371C68,-117.585 68,-107.272 68,-99.1408"/>
<polygon fill="midnightblue" stroke="midnightblue" points="64.5001,-126.403 68,-136.403 71.5001,-126.403 64.5001,-126.403"/>
</g>
</g>
</svg>
