<?xml version="1.0" encoding="UTF-8" standalone="no"?>
<!DOCTYPE svg PUBLIC "-//W3C//DTD SVG 1.1//EN"
 "http://www.w3.org/Graphics/SVG/1.1/DTD/svg11.dtd">
<!-- Generated by graphviz version 2.36.0 (20140111.2315)
 -->
<!-- Title: hpp::core::steeringMethod::ReedsShepp Pages: 1 -->
<svg width="780pt" height="60pt"
 viewBox="0.00 0.00 780.00 60.00" xmlns="http://www.w3.org/2000/svg" xmlns:xlink="http://www.w3.org/1999/xlink">
<g id="graph0" class="graph" transform="scale(1 1) rotate(0) translate(4 56)">
<title>hpp::core::steeringMethod::ReedsShepp</title>
<polygon fill="white" stroke="none" points="-4,4 -4,-56 776,-56 776,4 -4,4"/>
<!-- Node1 -->
<g id="node1" class="node"><title>Node1</title>
<polygon fill="#bfbfbf" stroke="black" points="642,-11 642,-41 772,-41 772,-11 642,-11"/>
<text text-anchor="start" x="650" y="-29" font-family="Helvetica,sans-Serif" font-size="10.00">hpp::core::steeringMethod</text>
<text text-anchor="middle" x="707" y="-18" font-family="Helvetica,sans-Serif" font-size="10.00">::ReedsShepp</text>
</g>
<!-- Node2 -->
<g id="node2" class="node"><title>Node2</title>
<g id="a_node2"><a xlink:href="a00079.html" target="_top" xlink:title="Steering method. ">
<polygon fill="white" stroke="black" points="472.5,-16.5 472.5,-35.5 603.5,-35.5 603.5,-16.5 472.5,-16.5"/>
<text text-anchor="middle" x="538" y="-23.5" font-family="Helvetica,sans-Serif" font-size="10.00">hpp::core::SteeringMethod</text>
</a>
</g>
</g>
<!-- Node2&#45;&gt;Node1 -->
<g id="edge1" class="edge"><title>Node2&#45;&gt;Node1</title>
<path fill="none" stroke="midnightblue" d="M613.692,-26C623.099,-26 632.657,-26 641.88,-26"/>
<polygon fill="midnightblue" stroke="midnightblue" points="613.567,-22.5001 603.567,-26 613.567,-29.5001 613.567,-22.5001"/>
</g>
<!-- Node3 -->
<g id="node3" class="node"><title>Node3</title>
<g id="a_node3"><a xlink:href="a00067.html" target="_top" xlink:title="Defines a path planning problem for one robot. ">
<polygon fill="white" stroke="black" points="292.5,-16.5 292.5,-35.5 391.5,-35.5 391.5,-16.5 292.5,-16.5"/>
<text text-anchor="middle" x="342" y="-23.5" font-family="Helvetica,sans-Serif" font-size="10.00">hpp::core::Problem</text>
</a>
</g>
</g>
<!-- Node3&#45;&gt;Node2 -->
<g id="edge2" class="edge"><title>Node3&#45;&gt;Node2</title>
<path fill="none" stroke="#9a32cd" stroke-dasharray="5,2" d="M402.225,-26C424.385,-26 449.661,-26 472.291,-26"/>
<polygon fill="#9a32cd" stroke="#9a32cd" points="401.954,-22.5001 391.954,-26 401.954,-29.5001 401.954,-22.5001"/>
<text text-anchor="middle" x="432" y="-29" font-family="Helvetica,sans-Serif" font-size="10.00"> problem_</text>
</g>
<!-- Node4 -->
<g id="node4" class="node"><title>Node4</title>
<g id="a_node4"><a xlink:href="a00021.html" target="_top" xlink:title="hpp::core::Containers\l\&lt; boost::mpl::vector\l\&lt; boost::any \&gt; \&gt;">
<polygon fill="white" stroke="black" points="144,-5.5 144,-46.5 254,-46.5 254,-5.5 144,-5.5"/>
<text text-anchor="start" x="152" y="-34.5" font-family="Helvetica,sans-Serif" font-size="10.00">hpp::core::Containers</text>
<text text-anchor="start" x="152" y="-23.5" font-family="Helvetica,sans-Serif" font-size="10.00">&lt; boost::mpl::vector</text>
<text text-anchor="middle" x="199" y="-12.5" font-family="Helvetica,sans-Serif" font-size="10.00">&lt; boost::any &gt; &gt;</text>
</a>
</g>
</g>
<!-- Node4&#45;&gt;Node3 -->
<g id="edge3" class="edge"><title>Node4&#45;&gt;Node3</title>
<path fill="none" stroke="midnightblue" d="M264.26,-26C273.698,-26 283.286,-26 292.34,-26"/>
<polygon fill="midnightblue" stroke="midnightblue" points="264.111,-22.5001 254.111,-26 264.111,-29.5001 264.111,-22.5001"/>
</g>
<!-- Node5 -->
<g id="node5" class="node"><title>Node5</title>
<polygon fill="white" stroke="#bfbfbf" points="0,-0 0,-52 106,-52 106,-0 0,-0"/>
<text text-anchor="start" x="8" y="-40" font-family="Helvetica,sans-Serif" font-size="10.00">internal::container</text>
<text text-anchor="start" x="8" y="-29" font-family="Helvetica,sans-Serif" font-size="10.00">_traits::type&lt; boost</text>
<text text-anchor="start" x="8" y="-18" font-family="Helvetica,sans-Serif" font-size="10.00">::mpl::vector&lt; boost</text>
<text text-anchor="middle" x="53" y="-7" font-family="Helvetica,sans-Serif" font-size="10.00">::any &gt;, std::string &gt;</text>
</g>
<!-- Node5&#45;&gt;Node4 -->
<g id="edge4" class="edge"><title>Node5&#45;&gt;Node4</title>
<path fill="none" stroke="#8b1a1a" d="M116.573,-26C125.693,-26 135.019,-26 143.951,-26"/>
<polygon fill="#8b1a1a" stroke="#8b1a1a" points="116.395,-22.5001 106.395,-26 116.395,-29.5001 116.395,-22.5001"/>
</g>
</g>
</svg>
