<?xml version="1.0" encoding="UTF-8" standalone="no"?>
<!DOCTYPE svg PUBLIC "-//W3C//DTD SVG 1.1//EN"
 "http://www.w3.org/Graphics/SVG/1.1/DTD/svg11.dtd">
<!-- Generated by graphviz version 2.36.0 (20140111.2315)
 -->
<!-- Title: hpp::core::ProblemSolver Pages: 1 -->
<svg width="838pt" height="244pt"
 viewBox="0.00 0.00 838.00 244.00" xmlns="http://www.w3.org/2000/svg" xmlns:xlink="http://www.w3.org/1999/xlink">
<g id="graph0" class="graph" transform="scale(1 1) rotate(0) translate(4 240)">
<title>hpp::core::ProblemSolver</title>
<polygon fill="white" stroke="none" points="-4,4 -4,-240 834,-240 834,4 -4,4"/>
<!-- Node1 -->
<g id="node1" class="node"><title>Node1</title>
<polygon fill="#bfbfbf" stroke="black" points="702.5,-73.5 702.5,-92.5 829.5,-92.5 829.5,-73.5 702.5,-73.5"/>
<text text-anchor="middle" x="766" y="-80.5" font-family="Helvetica,sans-Serif" font-size="10.00">hpp::core::ProblemSolver</text>
</g>
<!-- Node2 -->
<g id="node2" class="node"><title>Node2</title>
<g id="a_node2"><a xlink:href="a00021.html" target="_top" xlink:title="hpp::core::Containers\l\&lt; boost::mpl::vector\l\&lt; PathPlannerBuilder_t,\l PathOptimizerBuilder_t,\l PathValidationBuilder_t,\l PathProjectorBuilder_t,\l ConfigurationShooterBuilder\l_t, NumericalConstraintPtr_t,\l SteeringMethodBuilder_t \&gt; \&gt;">
<polygon fill="white" stroke="black" points="432,-128.5 432,-235.5 576,-235.5 576,-128.5 432,-128.5"/>
<text text-anchor="start" x="440" y="-223.5" font-family="Helvetica,sans-Serif" font-size="10.00">hpp::core::Containers</text>
<text text-anchor="start" x="440" y="-212.5" font-family="Helvetica,sans-Serif" font-size="10.00">&lt; boost::mpl::vector</text>
<text text-anchor="start" x="440" y="-201.5" font-family="Helvetica,sans-Serif" font-size="10.00">&lt; PathPlannerBuilder_t,</text>
<text text-anchor="start" x="440" y="-190.5" font-family="Helvetica,sans-Serif" font-size="10.00"> PathOptimizerBuilder_t,</text>
<text text-anchor="start" x="440" y="-179.5" font-family="Helvetica,sans-Serif" font-size="10.00"> PathValidationBuilder_t,</text>
<text text-anchor="start" x="440" y="-168.5" font-family="Helvetica,sans-Serif" font-size="10.00"> PathProjectorBuilder_t,</text>
<text text-anchor="start" x="440" y="-157.5" font-family="Helvetica,sans-Serif" font-size="10.00"> ConfigurationShooterBuilder</text>
<text text-anchor="start" x="440" y="-146.5" font-family="Helvetica,sans-Serif" font-size="10.00">_t, NumericalConstraintPtr_t,</text>
<text text-anchor="middle" x="504" y="-135.5" font-family="Helvetica,sans-Serif" font-size="10.00"> SteeringMethodBuilder_t &gt; &gt;</text>
</a>
</g>
</g>
<!-- Node2&#45;&gt;Node1 -->
<g id="edge1" class="edge"><title>Node2&#45;&gt;Node1</title>
<path fill="none" stroke="midnightblue" d="M585.454,-151.366C638.511,-131.163 704.517,-106.03 739.863,-92.5712"/>
<polygon fill="midnightblue" stroke="midnightblue" points="584.146,-148.118 576.046,-154.948 586.637,-154.66 584.146,-148.118"/>
</g>
<!-- Node3 -->
<g id="node3" class="node"><title>Node3</title>
<polygon fill="white" stroke="#bfbfbf" points="144.5,-134 144.5,-230 389.5,-230 389.5,-134 144.5,-134"/>
<text text-anchor="start" x="152.5" y="-218" font-family="Helvetica,sans-Serif" font-size="10.00">internal::container</text>
<text text-anchor="start" x="152.5" y="-207" font-family="Helvetica,sans-Serif" font-size="10.00">_traits&lt; boost::mpl</text>
<text text-anchor="start" x="152.5" y="-196" font-family="Helvetica,sans-Serif" font-size="10.00">::vector&lt; PathPlannerBuilder</text>
<text text-anchor="start" x="152.5" y="-185" font-family="Helvetica,sans-Serif" font-size="10.00">_t, PathOptimizerBuilder_t,</text>
<text text-anchor="start" x="152.5" y="-174" font-family="Helvetica,sans-Serif" font-size="10.00"> PathValidationBuilder_t, PathProjector</text>
<text text-anchor="start" x="152.5" y="-163" font-family="Helvetica,sans-Serif" font-size="10.00">Builder_t, ConfigurationShooterBuilder</text>
<text text-anchor="start" x="152.5" y="-152" font-family="Helvetica,sans-Serif" font-size="10.00">_t, NumericalConstraintPtr_t, SteeringMethodBuilder</text>
<text text-anchor="middle" x="267" y="-141" font-family="Helvetica,sans-Serif" font-size="10.00">_t &gt; , std::string &gt;::type</text>
</g>
<!-- Node3&#45;&gt;Node2 -->
<g id="edge2" class="edge"><title>Node3&#45;&gt;Node2</title>
<path fill="none" stroke="#8b1a1a" d="M399.763,-182C410.758,-182 421.583,-182 431.847,-182"/>
<polygon fill="#8b1a1a" stroke="#8b1a1a" points="399.63,-178.5 389.63,-182 399.63,-185.5 399.63,-178.5"/>
</g>
<!-- Node4 -->
<g id="node4" class="node"><title>Node4</title>
<polygon fill="white" stroke="#bfbfbf" points="428.5,-90.5 428.5,-109.5 579.5,-109.5 579.5,-90.5 428.5,-90.5"/>
<text text-anchor="middle" x="504" y="-97.5" font-family="Helvetica,sans-Serif" font-size="10.00">std::vector&lt; PathVectorPtr_t &gt;</text>
</g>
<!-- Node4&#45;&gt;Node1 -->
<g id="edge3" class="edge"><title>Node4&#45;&gt;Node1</title>
<path fill="none" stroke="#9a32cd" stroke-dasharray="5,2" d="M589.694,-94.4623C626.376,-92.0638 668.559,-89.3058 702.353,-87.0962"/>
<polygon fill="#9a32cd" stroke="#9a32cd" points="589.256,-90.9834 579.506,-95.1285 589.713,-97.9685 589.256,-90.9834"/>
<text text-anchor="middle" x="641" y="-96" font-family="Helvetica,sans-Serif" font-size="10.00"> paths_</text>
</g>
<!-- Node5 -->
<g id="node5" class="node"><title>Node5</title>
<g id="a_node5"><a xlink:href="a00067.html" target="_top" xlink:title="Defines a path planning problem for one robot. ">
<polygon fill="white" stroke="black" points="454.5,-52.5 454.5,-71.5 553.5,-71.5 553.5,-52.5 454.5,-52.5"/>
<text text-anchor="middle" x="504" y="-59.5" font-family="Helvetica,sans-Serif" font-size="10.00">hpp::core::Problem</text>
</a>
</g>
</g>
<!-- Node5&#45;&gt;Node1 -->
<g id="edge4" class="edge"><title>Node5&#45;&gt;Node1</title>
<path fill="none" stroke="#9a32cd" stroke-dasharray="5,2" d="M563.726,-64.6978C598.697,-66.5312 643.931,-69.299 684,-73 689.926,-73.5474 696.088,-74.1843 702.248,-74.8666"/>
<polygon fill="#9a32cd" stroke="#9a32cd" points="563.851,-61.1997 553.684,-64.1821 563.492,-68.1905 563.851,-61.1997"/>
<text text-anchor="middle" x="641" y="-76" font-family="Helvetica,sans-Serif" font-size="10.00"> problem_</text>
</g>
<!-- Node6 -->
<g id="node6" class="node"><title>Node6</title>
<g id="a_node6"><a xlink:href="a00021.html" target="_top" xlink:title="hpp::core::Containers\l\&lt; boost::mpl::vector\l\&lt; boost::any \&gt; \&gt;">
<polygon fill="white" stroke="black" points="212,-48.5 212,-89.5 322,-89.5 322,-48.5 212,-48.5"/>
<text text-anchor="start" x="220" y="-77.5" font-family="Helvetica,sans-Serif" font-size="10.00">hpp::core::Containers</text>
<text text-anchor="start" x="220" y="-66.5" font-family="Helvetica,sans-Serif" font-size="10.00">&lt; boost::mpl::vector</text>
<text text-anchor="middle" x="267" y="-55.5" font-family="Helvetica,sans-Serif" font-size="10.00">&lt; boost::any &gt; &gt;</text>
</a>
</g>
</g>
<!-- Node6&#45;&gt;Node5 -->
<g id="edge5" class="edge"><title>Node6&#45;&gt;Node5</title>
<path fill="none" stroke="midnightblue" d="M332.279,-67.0853C370.768,-65.9388 418.915,-64.5047 454.258,-63.4519"/>
<polygon fill="midnightblue" stroke="midnightblue" points="332.1,-63.589 322.209,-67.3853 332.309,-70.5859 332.1,-63.589"/>
</g>
<!-- Node7 -->
<g id="node7" class="node"><title>Node7</title>
<polygon fill="white" stroke="#bfbfbf" points="0,-43 0,-95 106,-95 106,-43 0,-43"/>
<text text-anchor="start" x="8" y="-83" font-family="Helvetica,sans-Serif" font-size="10.00">internal::container</text>
<text text-anchor="start" x="8" y="-72" font-family="Helvetica,sans-Serif" font-size="10.00">_traits::type&lt; boost</text>
<text text-anchor="start" x="8" y="-61" font-family="Helvetica,sans-Serif" font-size="10.00">::mpl::vector&lt; boost</text>
<text text-anchor="middle" x="53" y="-50" font-family="Helvetica,sans-Serif" font-size="10.00">::any &gt;, std::string &gt;</text>
</g>
<!-- Node7&#45;&gt;Node6 -->
<g id="edge6" class="edge"><title>Node7&#45;&gt;Node6</title>
<path fill="none" stroke="#8b1a1a" d="M116.179,-69C146.515,-69 182.663,-69 211.851,-69"/>
<polygon fill="#8b1a1a" stroke="#8b1a1a" points="116.133,-65.5001 106.133,-69 116.133,-72.5001 116.133,-65.5001"/>
</g>
<!-- Node8 -->
<g id="node8" class="node"><title>Node8</title>
<g id="a_node8"><a xlink:title="STL class. ">
<polygon fill="white" stroke="#bfbfbf" points="474,-8.5 474,-27.5 534,-27.5 534,-8.5 474,-8.5"/>
<text text-anchor="middle" x="504" y="-15.5" font-family="Helvetica,sans-Serif" font-size="10.00">std::string</text>
</a>
</g>
</g>
<!-- Node8&#45;&gt;Node1 -->
<g id="edge7" class="edge"><title>Node8&#45;&gt;Node1</title>
<path fill="none" stroke="#9a32cd" stroke-dasharray="5,2" d="M544.504,-19.1227C581.347,-21.0875 637.459,-26.4462 684,-41 708.643,-48.7061 734.743,-63.6262 750.454,-73.4496"/>
<polygon fill="#9a32cd" stroke="#9a32cd" points="544.339,-15.6111 534.185,-18.6345 544.008,-22.6033 544.339,-15.6111"/>
<text text-anchor="middle" x="641" y="-55" font-family="Helvetica,sans-Serif" font-size="10.00"> pathPlannerType_</text>
<text text-anchor="middle" x="641" y="-44" font-family="Helvetica,sans-Serif" font-size="10.00">pathProjectorType_</text>
</g>
<!-- Node9 -->
<g id="node9" class="node"><title>Node9</title>
<g id="a_node9"><a xlink:title="STL class. ">
<polygon fill="white" stroke="#bfbfbf" points="219.5,-0 219.5,-30 314.5,-30 314.5,-0 219.5,-0"/>
<text text-anchor="start" x="227.5" y="-18" font-family="Helvetica,sans-Serif" font-size="10.00">std::basic_string&lt;</text>
<text text-anchor="middle" x="267" y="-7" font-family="Helvetica,sans-Serif" font-size="10.00"> char &gt;</text>
</a>
</g>
</g>
<!-- Node9&#45;&gt;Node8 -->
<g id="edge8" class="edge"><title>Node9&#45;&gt;Node8</title>
<path fill="none" stroke="midnightblue" d="M324.752,-15.7245C371.77,-16.3247 436.689,-17.1535 473.811,-17.6274"/>
<polygon fill="midnightblue" stroke="midnightblue" points="324.753,-12.2243 314.709,-15.5963 324.664,-19.2238 324.753,-12.2243"/>
</g>
</g>
</svg>
