<?xml version="1.0" encoding="UTF-8" standalone="no"?>
<!DOCTYPE svg PUBLIC "-//W3C//DTD SVG 1.1//EN"
 "http://www.w3.org/Graphics/SVG/1.1/DTD/svg11.dtd">
<!-- Generated by graphviz version 2.36.0 (20140111.2315)
 -->
<!-- Title: hpp::core::projection_error Pages: 1 -->
<svg width="181pt" height="178pt"
 viewBox="0.00 0.00 181.00 178.00" xmlns="http://www.w3.org/2000/svg" xmlns:xlink="http://www.w3.org/1999/xlink">
<g id="graph0" class="graph" transform="scale(1 1) rotate(0) translate(4 174)">
<title>hpp::core::projection_error</title>
<polygon fill="white" stroke="none" points="-4,4 -4,-174 177,-174 177,4 -4,4"/>
<!-- Node1 -->
<g id="node1" class="node"><title>Node1</title>
<polygon fill="#bfbfbf" stroke="black" points="16.5,-1 16.5,-31 121.5,-31 121.5,-1 16.5,-1"/>
<text text-anchor="start" x="24.5" y="-19" font-family="Helvetica,sans-Serif" font-size="10.00">hpp::core::projection</text>
<text text-anchor="middle" x="69" y="-8" font-family="Helvetica,sans-Serif" font-size="10.00">_error</text>
</g>
<!-- Node2 -->
<g id="node2" class="node"><title>Node2</title>
<g id="a_node2"><a xlink:title="STL class. ">
<polygon fill="white" stroke="#bfbfbf" points="0,-80.5 0,-99.5 78,-99.5 78,-80.5 0,-80.5"/>
<text text-anchor="middle" x="39" y="-87.5" font-family="Helvetica,sans-Serif" font-size="10.00">std::exception</text>
</a>
</g>
</g>
<!-- Node2&#45;&gt;Node1 -->
<g id="edge1" class="edge"><title>Node2&#45;&gt;Node1</title>
<path fill="none" stroke="midnightblue" d="M46.4151,-71.2038C51.5493,-58.8816 58.2926,-42.6978 63.0702,-31.2316"/>
<polygon fill="midnightblue" stroke="midnightblue" points="43.1746,-69.881 42.5592,-80.4579 49.6362,-72.5733 43.1746,-69.881"/>
</g>
<!-- Node3 -->
<g id="node3" class="node"><title>Node3</title>
<g id="a_node3"><a xlink:title="STL class. ">
<polygon fill="white" stroke="#bfbfbf" points="96,-80.5 96,-99.5 156,-99.5 156,-80.5 96,-80.5"/>
<text text-anchor="middle" x="126" y="-87.5" font-family="Helvetica,sans-Serif" font-size="10.00">std::string</text>
</a>
</g>
</g>
<!-- Node3&#45;&gt;Node1 -->
<g id="edge2" class="edge"><title>Node3&#45;&gt;Node1</title>
<path fill="none" stroke="#9a32cd" stroke-dasharray="5,2" d="M112.781,-72.3022C102.928,-59.8569 89.6164,-43.0418 80.2667,-31.2316"/>
<polygon fill="#9a32cd" stroke="#9a32cd" points="110.286,-74.7899 119.238,-80.4579 115.775,-70.445 110.286,-74.7899"/>
<text text-anchor="middle" x="118" y="-53.5" font-family="Helvetica,sans-Serif" font-size="10.00"> msg_</text>
</g>
<!-- Node4 -->
<g id="node4" class="node"><title>Node4</title>
<g id="a_node4"><a xlink:title="STL class. ">
<polygon fill="white" stroke="#bfbfbf" points="78.5,-139 78.5,-169 173.5,-169 173.5,-139 78.5,-139"/>
<text text-anchor="start" x="86.5" y="-157" font-family="Helvetica,sans-Serif" font-size="10.00">std::basic_string&lt;</text>
<text text-anchor="middle" x="126" y="-146" font-family="Helvetica,sans-Serif" font-size="10.00"> char &gt;</text>
</a>
</g>
</g>
<!-- Node4&#45;&gt;Node3 -->
<g id="edge3" class="edge"><title>Node4&#45;&gt;Node3</title>
<path fill="none" stroke="midnightblue" d="M126,-128.871C126,-118.663 126,-107.408 126,-99.8419"/>
<polygon fill="midnightblue" stroke="midnightblue" points="122.5,-128.931 126,-138.931 129.5,-128.931 122.5,-128.931"/>
</g>
</g>
</svg>
