<?xml version="1.0" encoding="UTF-8" standalone="no"?>
<!DOCTYPE svg PUBLIC "-//W3C//DTD SVG 1.1//EN"
 "http://www.w3.org/Graphics/SVG/1.1/DTD/svg11.dtd">
<!-- Generated by graphviz version 2.36.0 (20140111.2315)
 -->
<!-- Title: hpp::core::problemTarget::GoalConfigurations Pages: 1 -->
<svg width="138pt" height="178pt"
 viewBox="0.00 0.00 138.00 178.00" xmlns="http://www.w3.org/2000/svg" xmlns:xlink="http://www.w3.org/1999/xlink">
<g id="graph0" class="graph" transform="scale(1 1) rotate(0) translate(4 174)">
<title>hpp::core::problemTarget::GoalConfigurations</title>
<polygon fill="white" stroke="none" points="-4,4 -4,-174 134,-174 134,4 -4,4"/>
<!-- Node1 -->
<g id="node1" class="node"><title>Node1</title>
<polygon fill="#bfbfbf" stroke="black" points="2.5,-1 2.5,-31 127.5,-31 127.5,-1 2.5,-1"/>
<text text-anchor="start" x="10.5" y="-19" font-family="Helvetica,sans-Serif" font-size="10.00">hpp::core::problemTarget</text>
<text text-anchor="middle" x="65" y="-8" font-family="Helvetica,sans-Serif" font-size="10.00">::GoalConfigurations</text>
</g>
<!-- Node2 -->
<g id="node2" class="node"><title>Node2</title>
<g id="a_node2"><a xlink:href="a00069.html" target="_top" xlink:title="Problem target. ">
<polygon fill="white" stroke="black" points="1.5,-70.5 1.5,-89.5 128.5,-89.5 128.5,-70.5 1.5,-70.5"/>
<text text-anchor="middle" x="65" y="-77.5" font-family="Helvetica,sans-Serif" font-size="10.00">hpp::core::ProblemTarget</text>
</a>
</g>
</g>
<!-- Node2&#45;&gt;Node1 -->
<g id="edge1" class="edge"><title>Node2&#45;&gt;Node1</title>
<path fill="none" stroke="midnightblue" d="M65,-60.1826C65,-50.8859 65,-39.8507 65,-31.263"/>
<polygon fill="midnightblue" stroke="midnightblue" points="61.5001,-60.3791 65,-70.3792 68.5001,-60.3792 61.5001,-60.3791"/>
</g>
<!-- Node3 -->
<g id="node3" class="node"><title>Node3</title>
<polygon fill="white" stroke="#bfbfbf" points="0,-139 0,-169 130,-169 130,-139 0,-139"/>
<text text-anchor="start" x="8" y="-157" font-family="Helvetica,sans-Serif" font-size="10.00">std::vector&lt; Configuration</text>
<text text-anchor="middle" x="65" y="-146" font-family="Helvetica,sans-Serif" font-size="10.00">Ptr_t &gt;</text>
</g>
<!-- Node3&#45;&gt;Node2 -->
<g id="edge2" class="edge"><title>Node3&#45;&gt;Node2</title>
<path fill="none" stroke="#9a32cd" stroke-dasharray="5,2" d="M65,-128.688C65,-115.253 65,-99.3805 65,-89.7589"/>
<polygon fill="#9a32cd" stroke="#9a32cd" points="61.5001,-128.775 65,-138.775 68.5001,-128.775 61.5001,-128.775"/>
<text text-anchor="middle" x="81" y="-111.5" font-family="Helvetica,sans-Serif" font-size="10.00"> goals_</text>
</g>
</g>
</svg>
