<?xml version="1.0" encoding="UTF-8" standalone="no"?>
<!DOCTYPE svg PUBLIC "-//W3C//DTD SVG 1.1//EN"
 "http://www.w3.org/Graphics/SVG/1.1/DTD/svg11.dtd">
<!-- Generated by graphviz version 2.36.0 (20140111.2315)
 -->
<!-- Title: hpp::core::ProblemSolver Pages: 1 -->
<svg width="598pt" height="116pt"
 viewBox="0.00 0.00 598.00 116.00" xmlns="http://www.w3.org/2000/svg" xmlns:xlink="http://www.w3.org/1999/xlink">
<g id="graph0" class="graph" transform="scale(1 1) rotate(0) translate(4 112)">
<title>hpp::core::ProblemSolver</title>
<polygon fill="white" stroke="none" points="-4,4 -4,-112 594,-112 594,4 -4,4"/>
<!-- Node1 -->
<g id="node1" class="node"><title>Node1</title>
<polygon fill="#bfbfbf" stroke="black" points="462.5,-44.5 462.5,-63.5 589.5,-63.5 589.5,-44.5 462.5,-44.5"/>
<text text-anchor="middle" x="526" y="-51.5" font-family="Helvetica,sans-Serif" font-size="10.00">hpp::core::ProblemSolver</text>
</g>
<!-- Node2 -->
<g id="node2" class="node"><title>Node2</title>
<g id="a_node2"><a xlink:href="a00021.html" target="_top" xlink:title="hpp::core::Containers\l\&lt; boost::mpl::vector\l\&lt; PathPlannerBuilder_t,\l PathOptimizerBuilder_t,\l PathValidationBuilder_t,\l PathProjectorBuilder_t,\l ConfigurationShooterBuilder\l_t, NumericalConstraintPtr_t,\l SteeringMethodBuilder_t \&gt; \&gt;">
<polygon fill="white" stroke="black" points="282,-0.5 282,-107.5 426,-107.5 426,-0.5 282,-0.5"/>
<text text-anchor="start" x="290" y="-95.5" font-family="Helvetica,sans-Serif" font-size="10.00">hpp::core::Containers</text>
<text text-anchor="start" x="290" y="-84.5" font-family="Helvetica,sans-Serif" font-size="10.00">&lt; boost::mpl::vector</text>
<text text-anchor="start" x="290" y="-73.5" font-family="Helvetica,sans-Serif" font-size="10.00">&lt; PathPlannerBuilder_t,</text>
<text text-anchor="start" x="290" y="-62.5" font-family="Helvetica,sans-Serif" font-size="10.00"> PathOptimizerBuilder_t,</text>
<text text-anchor="start" x="290" y="-51.5" font-family="Helvetica,sans-Serif" font-size="10.00"> PathValidationBuilder_t,</text>
<text text-anchor="start" x="290" y="-40.5" font-family="Helvetica,sans-Serif" font-size="10.00"> PathProjectorBuilder_t,</text>
<text text-anchor="start" x="290" y="-29.5" font-family="Helvetica,sans-Serif" font-size="10.00"> ConfigurationShooterBuilder</text>
<text text-anchor="start" x="290" y="-18.5" font-family="Helvetica,sans-Serif" font-size="10.00">_t, NumericalConstraintPtr_t,</text>
<text text-anchor="middle" x="354" y="-7.5" font-family="Helvetica,sans-Serif" font-size="10.00"> SteeringMethodBuilder_t &gt; &gt;</text>
</a>
</g>
</g>
<!-- Node2&#45;&gt;Node1 -->
<g id="edge1" class="edge"><title>Node2&#45;&gt;Node1</title>
<path fill="none" stroke="midnightblue" d="M436.312,-54C445.041,-54 453.823,-54 462.287,-54"/>
<polygon fill="midnightblue" stroke="midnightblue" points="436.11,-50.5001 426.11,-54 436.11,-57.5001 436.11,-50.5001"/>
</g>
<!-- Node3 -->
<g id="node3" class="node"><title>Node3</title>
<polygon fill="white" stroke="#bfbfbf" points="0.5,-6 0.5,-102 245.5,-102 245.5,-6 0.5,-6"/>
<text text-anchor="start" x="8.5" y="-90" font-family="Helvetica,sans-Serif" font-size="10.00">internal::container</text>
<text text-anchor="start" x="8.5" y="-79" font-family="Helvetica,sans-Serif" font-size="10.00">_traits&lt; boost::mpl</text>
<text text-anchor="start" x="8.5" y="-68" font-family="Helvetica,sans-Serif" font-size="10.00">::vector&lt; PathPlannerBuilder</text>
<text text-anchor="start" x="8.5" y="-57" font-family="Helvetica,sans-Serif" font-size="10.00">_t, PathOptimizerBuilder_t,</text>
<text text-anchor="start" x="8.5" y="-46" font-family="Helvetica,sans-Serif" font-size="10.00"> PathValidationBuilder_t, PathProjector</text>
<text text-anchor="start" x="8.5" y="-35" font-family="Helvetica,sans-Serif" font-size="10.00">Builder_t, ConfigurationShooterBuilder</text>
<text text-anchor="start" x="8.5" y="-24" font-family="Helvetica,sans-Serif" font-size="10.00">_t, NumericalConstraintPtr_t, SteeringMethodBuilder</text>
<text text-anchor="middle" x="123" y="-13" font-family="Helvetica,sans-Serif" font-size="10.00">_t &gt; , std::string &gt;::type</text>
</g>
<!-- Node3&#45;&gt;Node2 -->
<g id="edge2" class="edge"><title>Node3&#45;&gt;Node2</title>
<path fill="none" stroke="#8b1a1a" d="M255.69,-54C264.636,-54 273.439,-54 281.874,-54"/>
<polygon fill="#8b1a1a" stroke="#8b1a1a" points="255.541,-50.5001 245.54,-54 255.54,-57.5001 255.541,-50.5001"/>
</g>
</g>
</svg>
