<?xml version="1.0" encoding="UTF-8" standalone="no"?>
<!DOCTYPE svg PUBLIC "-//W3C//DTD SVG 1.1//EN"
 "http://www.w3.org/Graphics/SVG/1.1/DTD/svg11.dtd">
<!-- Generated by graphviz version 2.36.0 (20140111.2315)
 -->
<!-- Title: hpp::core::PathProjector Pages: 1 -->
<svg width="288pt" height="136pt"
 viewBox="0.00 0.00 288.00 136.00" xmlns="http://www.w3.org/2000/svg" xmlns:xlink="http://www.w3.org/1999/xlink">
<g id="graph0" class="graph" transform="scale(1 1) rotate(0) translate(4 132)">
<title>hpp::core::PathProjector</title>
<polygon fill="white" stroke="none" points="-4,4 -4,-132 284,-132 284,4 -4,4"/>
<!-- Node1 -->
<g id="node1" class="node"><title>Node1</title>
<polygon fill="#bfbfbf" stroke="black" points="0,-54.5 0,-73.5 122,-73.5 122,-54.5 0,-54.5"/>
<text text-anchor="middle" x="61" y="-61.5" font-family="Helvetica,sans-Serif" font-size="10.00">hpp::core::PathProjector</text>
</g>
<!-- Node2 -->
<g id="node2" class="node"><title>Node2</title>
<g id="a_node2"><a xlink:href="a00031.html" target="_top" xlink:title="hpp::core::pathProjector\l::Dichotomy">
<polygon fill="white" stroke="black" points="158.5,-98 158.5,-128 279.5,-128 279.5,-98 158.5,-98"/>
<text text-anchor="start" x="166.5" y="-116" font-family="Helvetica,sans-Serif" font-size="10.00">hpp::core::pathProjector</text>
<text text-anchor="middle" x="219" y="-105" font-family="Helvetica,sans-Serif" font-size="10.00">::Dichotomy</text>
</a>
</g>
</g>
<!-- Node1&#45;&gt;Node2 -->
<g id="edge1" class="edge"><title>Node1&#45;&gt;Node2</title>
<path fill="none" stroke="midnightblue" d="M102.214,-76.6313C122.95,-83.1446 148.384,-91.1334 170.127,-97.963"/>
<polygon fill="midnightblue" stroke="midnightblue" points="103.038,-73.2216 92.4487,-73.564 100.94,-79.8999 103.038,-73.2216"/>
</g>
<!-- Node3 -->
<g id="node3" class="node"><title>Node3</title>
<g id="a_node3"><a xlink:href="a00045.html" target="_top" xlink:title="hpp::core::pathProjector\l::Global">
<polygon fill="white" stroke="black" points="158.5,-49 158.5,-79 279.5,-79 279.5,-49 158.5,-49"/>
<text text-anchor="start" x="166.5" y="-67" font-family="Helvetica,sans-Serif" font-size="10.00">hpp::core::pathProjector</text>
<text text-anchor="middle" x="219" y="-56" font-family="Helvetica,sans-Serif" font-size="10.00">::Global</text>
</a>
</g>
</g>
<!-- Node1&#45;&gt;Node3 -->
<g id="edge2" class="edge"><title>Node1&#45;&gt;Node3</title>
<path fill="none" stroke="midnightblue" d="M132.407,-64C141.076,-64 149.872,-64 158.361,-64"/>
<polygon fill="midnightblue" stroke="midnightblue" points="132.314,-60.5001 122.314,-64 132.314,-67.5001 132.314,-60.5001"/>
</g>
<!-- Node4 -->
<g id="node4" class="node"><title>Node4</title>
<g id="a_node4"><a xlink:href="a00083.html" target="_top" xlink:title="hpp::core::pathProjector\l::Progressive">
<polygon fill="white" stroke="black" points="158.5,-0 158.5,-30 279.5,-30 279.5,-0 158.5,-0"/>
<text text-anchor="start" x="166.5" y="-18" font-family="Helvetica,sans-Serif" font-size="10.00">hpp::core::pathProjector</text>
<text text-anchor="middle" x="219" y="-7" font-family="Helvetica,sans-Serif" font-size="10.00">::Progressive</text>
</a>
</g>
</g>
<!-- Node1&#45;&gt;Node4 -->
<g id="edge3" class="edge"><title>Node1&#45;&gt;Node4</title>
<path fill="none" stroke="midnightblue" d="M102.214,-51.3687C122.95,-44.8554 148.384,-36.8666 170.127,-30.037"/>
<polygon fill="midnightblue" stroke="midnightblue" points="100.94,-48.1001 92.4487,-54.436 103.038,-54.7784 100.94,-48.1001"/>
</g>
</g>
</svg>
