<?xml version="1.0" encoding="UTF-8" standalone="no"?>
<!DOCTYPE svg PUBLIC "-//W3C//DTD SVG 1.1//EN"
 "http://www.w3.org/Graphics/SVG/1.1/DTD/svg11.dtd">
<!-- Generated by graphviz version 2.36.0 (20140111.2315)
 -->
<!-- Title: hpp::core::Equation Pages: 1 -->
<svg width="293pt" height="220pt"
 viewBox="0.00 0.00 293.00 220.00" xmlns="http://www.w3.org/2000/svg" xmlns:xlink="http://www.w3.org/1999/xlink">
<g id="graph0" class="graph" transform="scale(1 1) rotate(0) translate(4 216)">
<title>hpp::core::Equation</title>
<polygon fill="white" stroke="none" points="-4,4 -4,-216 289,-216 289,4 -4,4"/>
<!-- Node1 -->
<g id="node1" class="node"><title>Node1</title>
<polygon fill="#bfbfbf" stroke="black" points="82.5,-192.5 82.5,-211.5 183.5,-211.5 183.5,-192.5 82.5,-192.5"/>
<text text-anchor="middle" x="133" y="-199.5" font-family="Helvetica,sans-Serif" font-size="10.00">hpp::core::Equation</text>
</g>
<!-- Node2 -->
<g id="node2" class="node"><title>Node2</title>
<g id="a_node2"><a xlink:href="a00057.html" target="_top" xlink:title="Implementation of Equation specific to locked joint. ">
<polygon fill="white" stroke="black" points="-1,-136.5 -1,-155.5 115,-155.5 115,-136.5 -1,-136.5"/>
<text text-anchor="middle" x="57" y="-143.5" font-family="Helvetica,sans-Serif" font-size="10.00">hpp::core::LockedJoint</text>
</a>
</g>
</g>
<!-- Node1&#45;&gt;Node2 -->
<g id="edge1" class="edge"><title>Node1&#45;&gt;Node2</title>
<path fill="none" stroke="midnightblue" d="M112.424,-186.38C98.688,-176.62 81.0747,-164.106 69.4329,-155.834"/>
<polygon fill="midnightblue" stroke="midnightblue" points="110.61,-189.385 120.789,-192.324 114.665,-183.679 110.61,-189.385"/>
</g>
<!-- Node3 -->
<g id="node3" class="node"><title>Node3</title>
<g id="a_node3"><a xlink:href="a00062.html" target="_top" xlink:title="With the same notation as in Equation, this class represents equation: ">
<polygon fill="white" stroke="black" points="133,-136.5 133,-155.5 285,-155.5 285,-136.5 133,-136.5"/>
<text text-anchor="middle" x="209" y="-143.5" font-family="Helvetica,sans-Serif" font-size="10.00">hpp::core::NumericalConstraint</text>
</a>
</g>
</g>
<!-- Node1&#45;&gt;Node3 -->
<g id="edge2" class="edge"><title>Node1&#45;&gt;Node3</title>
<path fill="none" stroke="midnightblue" d="M153.576,-186.38C167.312,-176.62 184.925,-164.106 196.567,-155.834"/>
<polygon fill="midnightblue" stroke="midnightblue" points="151.335,-183.679 145.211,-192.324 155.39,-189.385 151.335,-183.679"/>
</g>
<!-- Node4 -->
<g id="node4" class="node"><title>Node4</title>
<g id="a_node4"><a xlink:href="a00042.html" target="_top" xlink:title="Explicit numerical constraint. ">
<polygon fill="white" stroke="black" points="139,-69 139,-99 279,-99 279,-69 139,-69"/>
<text text-anchor="start" x="147" y="-87" font-family="Helvetica,sans-Serif" font-size="10.00">hpp::core::ExplicitNumerical</text>
<text text-anchor="middle" x="209" y="-76" font-family="Helvetica,sans-Serif" font-size="10.00">Constraint</text>
</a>
</g>
</g>
<!-- Node3&#45;&gt;Node4 -->
<g id="edge3" class="edge"><title>Node3&#45;&gt;Node4</title>
<path fill="none" stroke="midnightblue" d="M209,-126.371C209,-117.585 209,-107.272 209,-99.1408"/>
<polygon fill="midnightblue" stroke="midnightblue" points="205.5,-126.403 209,-136.403 212.5,-126.403 205.5,-126.403"/>
</g>
<!-- Node5 -->
<g id="node5" class="node"><title>Node5</title>
<g id="a_node5"><a xlink:href="a00043.html" target="_top" xlink:title="Relative transformation as an explicit constraint. ">
<polygon fill="white" stroke="black" points="143.5,-1 143.5,-31 274.5,-31 274.5,-1 143.5,-1"/>
<text text-anchor="start" x="151.5" y="-19" font-family="Helvetica,sans-Serif" font-size="10.00">hpp::core::ExplicitRelative</text>
<text text-anchor="middle" x="209" y="-8" font-family="Helvetica,sans-Serif" font-size="10.00">Transformation</text>
</a>
</g>
</g>
<!-- Node4&#45;&gt;Node5 -->
<g id="edge4" class="edge"><title>Node4&#45;&gt;Node5</title>
<path fill="none" stroke="midnightblue" d="M209,-58.5322C209,-49.3606 209,-39.2449 209,-31.2931"/>
<polygon fill="midnightblue" stroke="midnightblue" points="205.5,-58.6789 209,-68.679 212.5,-58.679 205.5,-58.6789"/>
</g>
</g>
</svg>
