<?xml version="1.0" encoding="UTF-8" standalone="no"?>
<!DOCTYPE svg PUBLIC "-//W3C//DTD SVG 1.1//EN"
 "http://www.w3.org/Graphics/SVG/1.1/DTD/svg11.dtd">
<!-- Generated by graphviz version 2.36.0 (20140111.2315)
 -->
<!-- Title: hpp::core::ProblemSolver Pages: 1 -->
<svg width="556pt" height="457pt"
 viewBox="0.00 0.00 556.00 457.00" xmlns="http://www.w3.org/2000/svg" xmlns:xlink="http://www.w3.org/1999/xlink">
<g id="graph0" class="graph" transform="scale(1 1) rotate(0) translate(4 453)">
<title>hpp::core::ProblemSolver</title>
<polygon fill="white" stroke="none" points="-4,4 -4,-453 552,-453 552,4 -4,4"/>
<!-- Node1 -->
<g id="node1" class="node"><title>Node1</title>
<polygon fill="#bfbfbf" stroke="black" points="420.5,-203.5 420.5,-222.5 547.5,-222.5 547.5,-203.5 420.5,-203.5"/>
<text text-anchor="middle" x="484" y="-210.5" font-family="Helvetica,sans-Serif" font-size="10.00">hpp::core::ProblemSolver</text>
</g>
<!-- Node2 -->
<g id="node2" class="node"><title>Node2</title>
<g id="a_node2"><a xlink:href="a00028.html" target="_top" xlink:title="hpp::core::Container\l\&lt; PathPlannerBuilder_t \&gt;">
<polygon fill="white" stroke="black" points="153,-419 153,-449 279,-449 279,-419 153,-419"/>
<text text-anchor="start" x="161" y="-437" font-family="Helvetica,sans-Serif" font-size="10.00">hpp::core::Container</text>
<text text-anchor="middle" x="216" y="-426" font-family="Helvetica,sans-Serif" font-size="10.00">&lt; PathPlannerBuilder_t &gt;</text>
</a>
</g>
</g>
<!-- Node2&#45;&gt;Node1 -->
<g id="edge1" class="edge"><title>Node2&#45;&gt;Node1</title>
<path fill="none" stroke="midnightblue" d="M283.351,-415.332C288.379,-413.37 293.314,-411.259 298,-409 348.415,-384.697 362.904,-378.047 402,-338 438.309,-300.807 467.536,-244.96 478.418,-222.68"/>
<polygon fill="midnightblue" stroke="midnightblue" points="281.785,-412.179 273.612,-418.92 284.205,-418.748 281.785,-412.179"/>
</g>
<!-- Node3 -->
<g id="node3" class="node"><title>Node3</title>
<g id="a_node3"><a xlink:href="a00028.html" target="_top" xlink:title="hpp::core::Container\l\&lt; PathOptimizerBuilder_t \&gt;">
<polygon fill="white" stroke="black" points="148.5,-370 148.5,-400 283.5,-400 283.5,-370 148.5,-370"/>
<text text-anchor="start" x="156.5" y="-388" font-family="Helvetica,sans-Serif" font-size="10.00">hpp::core::Container</text>
<text text-anchor="middle" x="216" y="-377" font-family="Helvetica,sans-Serif" font-size="10.00">&lt; PathOptimizerBuilder_t &gt;</text>
</a>
</g>
</g>
<!-- Node3&#45;&gt;Node1 -->
<g id="edge2" class="edge"><title>Node3&#45;&gt;Node1</title>
<path fill="none" stroke="midnightblue" d="M281.595,-366.604C287.207,-364.543 292.745,-362.337 298,-360 347.169,-338.132 359.939,-331.566 402,-298 431.954,-274.096 461.597,-239.46 475.231,-222.746"/>
<polygon fill="midnightblue" stroke="midnightblue" points="280.392,-363.317 272.117,-369.932 282.711,-369.921 280.392,-363.317"/>
</g>
<!-- Node4 -->
<g id="node4" class="node"><title>Node4</title>
<g id="a_node4"><a xlink:href="a00028.html" target="_top" xlink:title="hpp::core::Container\l\&lt; PathValidationBuilder_t \&gt;">
<polygon fill="white" stroke="black" points="148,-321 148,-351 284,-351 284,-321 148,-321"/>
<text text-anchor="start" x="156" y="-339" font-family="Helvetica,sans-Serif" font-size="10.00">hpp::core::Container</text>
<text text-anchor="middle" x="216" y="-328" font-family="Helvetica,sans-Serif" font-size="10.00">&lt; PathValidationBuilder_t &gt;</text>
</a>
</g>
</g>
<!-- Node4&#45;&gt;Node1 -->
<g id="edge3" class="edge"><title>Node4&#45;&gt;Node1</title>
<path fill="none" stroke="midnightblue" d="M278.723,-317.776C285.267,-315.598 291.795,-313.321 298,-311 345.339,-293.295 357.491,-288.946 402,-265 426.576,-251.778 453.558,-233.678 469.348,-222.691"/>
<polygon fill="midnightblue" stroke="midnightblue" points="277.584,-314.466 269.158,-320.889 279.75,-321.123 277.584,-314.466"/>
</g>
<!-- Node5 -->
<g id="node5" class="node"><title>Node5</title>
<g id="a_node5"><a xlink:href="a00028.html" target="_top" xlink:title="hpp::core::Container\l\&lt; PathProjectorBuilder_t \&gt;">
<polygon fill="white" stroke="black" points="150,-272 150,-302 282,-302 282,-272 150,-272"/>
<text text-anchor="start" x="158" y="-290" font-family="Helvetica,sans-Serif" font-size="10.00">hpp::core::Container</text>
<text text-anchor="middle" x="216" y="-279" font-family="Helvetica,sans-Serif" font-size="10.00">&lt; PathProjectorBuilder_t &gt;</text>
</a>
</g>
</g>
<!-- Node5&#45;&gt;Node1 -->
<g id="edge4" class="edge"><title>Node5&#45;&gt;Node1</title>
<path fill="none" stroke="midnightblue" d="M288.456,-269.466C322.899,-260.759 364.728,-249.808 402,-239 419.589,-233.9 439.143,-227.64 454.631,-222.541"/>
<polygon fill="midnightblue" stroke="midnightblue" points="287.327,-266.142 278.484,-271.977 289.036,-272.93 287.327,-266.142"/>
</g>
<!-- Node6 -->
<g id="node6" class="node"><title>Node6</title>
<g id="a_node6"><a xlink:href="a00028.html" target="_top" xlink:title="hpp::core::Container\l\&lt; ConfigurationShooterBuilder_t \&gt;">
<polygon fill="white" stroke="black" points="134,-223 134,-253 298,-253 298,-223 134,-223"/>
<text text-anchor="start" x="142" y="-241" font-family="Helvetica,sans-Serif" font-size="10.00">hpp::core::Container</text>
<text text-anchor="middle" x="216" y="-230" font-family="Helvetica,sans-Serif" font-size="10.00">&lt; ConfigurationShooterBuilder_t &gt;</text>
</a>
</g>
</g>
<!-- Node6&#45;&gt;Node1 -->
<g id="edge5" class="edge"><title>Node6&#45;&gt;Node1</title>
<path fill="none" stroke="midnightblue" d="M308.524,-229.398C345.421,-225.93 387.049,-222.018 420.388,-218.885"/>
<polygon fill="midnightblue" stroke="midnightblue" points="307.883,-225.943 298.254,-230.363 308.538,-232.912 307.883,-225.943"/>
</g>
<!-- Node7 -->
<g id="node7" class="node"><title>Node7</title>
<g id="a_node7"><a xlink:href="a00028.html" target="_top" xlink:title="hpp::core::Container\l\&lt; NumericalConstraintPtr_t \&gt;">
<polygon fill="white" stroke="black" points="143.5,-174 143.5,-204 288.5,-204 288.5,-174 143.5,-174"/>
<text text-anchor="start" x="151.5" y="-192" font-family="Helvetica,sans-Serif" font-size="10.00">hpp::core::Container</text>
<text text-anchor="middle" x="216" y="-181" font-family="Helvetica,sans-Serif" font-size="10.00">&lt; NumericalConstraintPtr_t &gt;</text>
</a>
</g>
</g>
<!-- Node7&#45;&gt;Node1 -->
<g id="edge6" class="edge"><title>Node7&#45;&gt;Node1</title>
<path fill="none" stroke="midnightblue" d="M298.934,-196.393C338.022,-199.919 384.05,-204.072 420.299,-207.343"/>
<polygon fill="midnightblue" stroke="midnightblue" points="298.907,-192.876 288.633,-195.463 298.278,-199.848 298.907,-192.876"/>
</g>
<!-- Node8 -->
<g id="node8" class="node"><title>Node8</title>
<g id="a_node8"><a xlink:href="a00028.html" target="_top" xlink:title="hpp::core::Container\l\&lt; SteeringMethodBuilder_t \&gt;">
<polygon fill="white" stroke="black" points="145.5,-125 145.5,-155 286.5,-155 286.5,-125 145.5,-125"/>
<text text-anchor="start" x="153.5" y="-143" font-family="Helvetica,sans-Serif" font-size="10.00">hpp::core::Container</text>
<text text-anchor="middle" x="216" y="-132" font-family="Helvetica,sans-Serif" font-size="10.00">&lt; SteeringMethodBuilder_t &gt;</text>
</a>
</g>
</g>
<!-- Node8&#45;&gt;Node1 -->
<g id="edge7" class="edge"><title>Node8&#45;&gt;Node1</title>
<path fill="none" stroke="midnightblue" d="M281.675,-157.749C334.108,-172.139 405.989,-191.865 448.163,-203.44"/>
<polygon fill="midnightblue" stroke="midnightblue" points="282.363,-154.309 271.793,-155.037 280.51,-161.059 282.363,-154.309"/>
</g>
<!-- Node9 -->
<g id="node9" class="node"><title>Node9</title>
<polygon fill="white" stroke="#bfbfbf" points="140.5,-86.5 140.5,-105.5 291.5,-105.5 291.5,-86.5 140.5,-86.5"/>
<text text-anchor="middle" x="216" y="-93.5" font-family="Helvetica,sans-Serif" font-size="10.00">std::vector&lt; PathVectorPtr_t &gt;</text>
</g>
<!-- Node9&#45;&gt;Node1 -->
<g id="edge8" class="edge"><title>Node9&#45;&gt;Node1</title>
<path fill="none" stroke="#9a32cd" stroke-dasharray="5,2" d="M275.134,-107.874C312.746,-116.989 361.978,-131.67 402,-153 429.181,-167.487 457.273,-190.414 472.177,-203.328"/>
<polygon fill="#9a32cd" stroke="#9a32cd" points="275.881,-104.454 265.344,-105.563 274.272,-111.267 275.881,-104.454"/>
<text text-anchor="middle" x="359" y="-156" font-family="Helvetica,sans-Serif" font-size="10.00"> paths_</text>
</g>
<!-- Node10 -->
<g id="node10" class="node"><title>Node10</title>
<g id="a_node10"><a xlink:href="a00079.html" target="_top" xlink:title="Defines a path planning problem for one robot. ">
<polygon fill="white" stroke="black" points="166.5,-48.5 166.5,-67.5 265.5,-67.5 265.5,-48.5 166.5,-48.5"/>
<text text-anchor="middle" x="216" y="-55.5" font-family="Helvetica,sans-Serif" font-size="10.00">hpp::core::Problem</text>
</a>
</g>
</g>
<!-- Node10&#45;&gt;Node1 -->
<g id="edge9" class="edge"><title>Node10&#45;&gt;Node1</title>
<path fill="none" stroke="#9a32cd" stroke-dasharray="5,2" d="M275.579,-62.5525C314.23,-67.9149 364.467,-79.5891 402,-105 440.622,-131.148 468.144,-181.905 478.485,-203.211"/>
<polygon fill="#9a32cd" stroke="#9a32cd" points="275.876,-59.062 265.512,-61.2609 274.985,-66.0051 275.876,-59.062"/>
<text text-anchor="middle" x="359" y="-108" font-family="Helvetica,sans-Serif" font-size="10.00"> problem_</text>
</g>
<!-- Node11 -->
<g id="node11" class="node"><title>Node11</title>
<g id="a_node11"><a xlink:title="STL class. ">
<polygon fill="white" stroke="#bfbfbf" points="186,-5.5 186,-24.5 246,-24.5 246,-5.5 186,-5.5"/>
<text text-anchor="middle" x="216" y="-12.5" font-family="Helvetica,sans-Serif" font-size="10.00">std::string</text>
</a>
</g>
</g>
<!-- Node11&#45;&gt;Node1 -->
<g id="edge10" class="edge"><title>Node11&#45;&gt;Node1</title>
<path fill="none" stroke="#9a32cd" stroke-dasharray="5,2" d="M256.151,-11.4226C296.61,-9.81727 359.662,-13.4014 402,-45 457.013,-86.0578 476.46,-174.327 481.519,-203.456"/>
<polygon fill="#9a32cd" stroke="#9a32cd" points="255.932,-7.9292 246.127,-11.9448 256.296,-14.9197 255.932,-7.9292"/>
<text text-anchor="middle" x="359" y="-59" font-family="Helvetica,sans-Serif" font-size="10.00"> pathPlannerType_</text>
<text text-anchor="middle" x="359" y="-48" font-family="Helvetica,sans-Serif" font-size="10.00">pathProjectorType_</text>
</g>
<!-- Node12 -->
<g id="node12" class="node"><title>Node12</title>
<g id="a_node12"><a xlink:title="STL class. ">
<polygon fill="white" stroke="#bfbfbf" points="0.5,-0 0.5,-30 95.5,-30 95.5,-0 0.5,-0"/>
<text text-anchor="start" x="8.5" y="-18" font-family="Helvetica,sans-Serif" font-size="10.00">std::basic_string&lt;</text>
<text text-anchor="middle" x="48" y="-7" font-family="Helvetica,sans-Serif" font-size="10.00"> char &gt;</text>
</a>
</g>
</g>
<!-- Node12&#45;&gt;Node11 -->
<g id="edge11" class="edge"><title>Node12&#45;&gt;Node11</title>
<path fill="none" stroke="midnightblue" d="M105.78,-15C132.723,-15 163.773,-15 185.864,-15"/>
<polygon fill="midnightblue" stroke="midnightblue" points="105.682,-11.5001 95.682,-15 105.682,-18.5001 105.682,-11.5001"/>
</g>
</g>
</svg>
