<?xml version="1.0" encoding="UTF-8" standalone="no"?>
<!DOCTYPE svg PUBLIC "-//W3C//DTD SVG 1.1//EN"
 "http://www.w3.org/Graphics/SVG/1.1/DTD/svg11.dtd">
<!-- Generated by graphviz version 2.36.0 (20140111.2315)
 -->
<!-- Title: hpp::core::JointBoundValidationReport Pages: 1 -->
<svg width="281pt" height="176pt"
 viewBox="0.00 0.00 281.00 176.00" xmlns="http://www.w3.org/2000/svg" xmlns:xlink="http://www.w3.org/1999/xlink">
<g id="graph0" class="graph" transform="scale(1 1) rotate(0) translate(4 172)">
<title>hpp::core::JointBoundValidationReport</title>
<polygon fill="white" stroke="none" points="-4,4 -4,-172 277,-172 277,4 -4,4"/>
<!-- Node1 -->
<g id="node1" class="node"><title>Node1</title>
<polygon fill="#bfbfbf" stroke="black" points="30.5,-1 30.5,-31 185.5,-31 185.5,-1 30.5,-1"/>
<text text-anchor="start" x="38.5" y="-19" font-family="Helvetica,sans-Serif" font-size="10.00">hpp::core::JointBoundValidation</text>
<text text-anchor="middle" x="108" y="-8" font-family="Helvetica,sans-Serif" font-size="10.00">Report</text>
</g>
<!-- Node2 -->
<g id="node2" class="node"><title>Node2</title>
<g id="a_node2"><a xlink:href="a00092.html" target="_top" xlink:title="Abstraction of validation report for paths and configurations. ">
<polygon fill="white" stroke="black" points="-0.5,-80.5 -0.5,-99.5 134.5,-99.5 134.5,-80.5 -0.5,-80.5"/>
<text text-anchor="middle" x="67" y="-87.5" font-family="Helvetica,sans-Serif" font-size="10.00">hpp::core::ValidationReport</text>
</a>
</g>
</g>
<!-- Node2&#45;&gt;Node1 -->
<g id="edge1" class="edge"><title>Node2&#45;&gt;Node1</title>
<path fill="none" stroke="midnightblue" d="M76.9241,-71.5723C83.9662,-59.2058 93.3012,-42.8125 99.8959,-31.2316"/>
<polygon fill="midnightblue" stroke="midnightblue" points="73.7712,-70.0361 71.8642,-80.4579 79.8541,-73.5 73.7712,-70.0361"/>
</g>
<!-- Node3 -->
<g id="node3" class="node"><title>Node3</title>
<g id="a_node3"><a doxygen="https://jmirabel.github.io/hpp-doc/api/hpp-model/doxygen-html/hpp-model.doxytag:https://jmirabel.github.io/hpp-doc/api/hpp-model/doxygen-html/" xlink:href="https://jmirabel.github.io/hpp-doc/api/hpp-model/doxygen-html/a00013.html" target="_top" xlink:title="hpp::model::Joint">
<polygon fill="white" stroke="black" points="153,-80.5 153,-99.5 245,-99.5 245,-80.5 153,-80.5"/>
<text text-anchor="middle" x="199" y="-87.5" font-family="Helvetica,sans-Serif" font-size="10.00">hpp::model::Joint</text>
</a>
</g>
</g>
<!-- Node3&#45;&gt;Node1 -->
<g id="edge2" class="edge"><title>Node3&#45;&gt;Node1</title>
<path fill="none" stroke="#9a32cd" stroke-dasharray="5,2" d="M180.146,-74.0826C164.245,-61.5012 141.639,-43.6151 125.987,-31.2316"/>
<polygon fill="#9a32cd" stroke="#9a32cd" points="178.19,-76.9978 188.204,-80.4579 182.533,-71.5083 178.19,-76.9978"/>
<text text-anchor="middle" x="177.5" y="-53.5" font-family="Helvetica,sans-Serif" font-size="10.00"> joint_</text>
</g>
<!-- Node4 -->
<g id="node4" class="node"><title>Node4</title>
<g id="a_node4"><a doxygen="https://jmirabel.github.io/hpp-doc/api/hpp-model/doxygen-html/hpp-model.doxytag:https://jmirabel.github.io/hpp-doc/api/hpp-model/doxygen-html/" xlink:href="https://jmirabel.github.io/hpp-doc/api/hpp-model/doxygen-html/a00015.html" target="_top" xlink:title="hpp::model::JointConfiguration">
<polygon fill="white" stroke="black" points="124.5,-148.5 124.5,-167.5 273.5,-167.5 273.5,-148.5 124.5,-148.5"/>
<text text-anchor="middle" x="199" y="-155.5" font-family="Helvetica,sans-Serif" font-size="10.00">hpp::model::JointConfiguration</text>
</a>
</g>
</g>
<!-- Node4&#45;&gt;Node3 -->
<g id="edge3" class="edge"><title>Node4&#45;&gt;Node3</title>
<path fill="none" stroke="#9a32cd" stroke-dasharray="5,2" d="M199,-138.041C199,-125.472 199,-109.563 199,-99.8411"/>
<polygon fill="#9a32cd" stroke="#9a32cd" points="195.5,-138.372 199,-148.372 202.5,-138.372 195.5,-138.372"/>
<text text-anchor="middle" x="231" y="-121.5" font-family="Helvetica,sans-Serif" font-size="10.00"> configuration_</text>
</g>
</g>
</svg>
