<?xml version="1.0" encoding="UTF-8" standalone="no"?>
<!DOCTYPE svg PUBLIC "-//W3C//DTD SVG 1.1//EN"
 "http://www.w3.org/Graphics/SVG/1.1/DTD/svg11.dtd">
<!-- Generated by graphviz version 2.36.0 (20140111.2315)
 -->
<!-- Title: hpp::core::SteeringMethod Pages: 1 -->
<svg width="287pt" height="96pt"
 viewBox="0.00 0.00 287.00 96.00" xmlns="http://www.w3.org/2000/svg" xmlns:xlink="http://www.w3.org/1999/xlink">
<g id="graph0" class="graph" transform="scale(1 1) rotate(0) translate(4 92)">
<title>hpp::core::SteeringMethod</title>
<polygon fill="white" stroke="none" points="-4,4 -4,-92 283,-92 283,4 -4,4"/>
<!-- Node1 -->
<g id="node1" class="node"><title>Node1</title>
<polygon fill="#bfbfbf" stroke="black" points="73.5,-68.5 73.5,-87.5 204.5,-87.5 204.5,-68.5 73.5,-68.5"/>
<text text-anchor="middle" x="139" y="-75.5" font-family="Helvetica,sans-Serif" font-size="10.00">hpp::core::SteeringMethod</text>
</g>
<!-- Node2 -->
<g id="node2" class="node"><title>Node2</title>
<g id="a_node2"><a xlink:href="a00050.html" target="_top" xlink:title="Steering method that creates StraightPath instances. ">
<polygon fill="white" stroke="black" points="0,-1 0,-31 130,-31 130,-1 0,-1"/>
<text text-anchor="start" x="8" y="-19" font-family="Helvetica,sans-Serif" font-size="10.00">hpp::core::steeringMethod</text>
<text text-anchor="middle" x="65" y="-8" font-family="Helvetica,sans-Serif" font-size="10.00">::Interpolated</text>
</a>
</g>
</g>
<!-- Node1&#45;&gt;Node2 -->
<g id="edge1" class="edge"><title>Node1&#45;&gt;Node2</title>
<path fill="none" stroke="midnightblue" d="M120.588,-62.0711C108.919,-52.6097 93.9175,-40.4466 82.4403,-31.1408"/>
<polygon fill="midnightblue" stroke="midnightblue" points="118.426,-64.8241 128.398,-68.4035 122.834,-59.3868 118.426,-64.8241"/>
</g>
<!-- Node3 -->
<g id="node3" class="node"><title>Node3</title>
<g id="a_node3"><a xlink:href="a00089.html" target="_top" xlink:title="Steering method that creates StraightPath instances. ">
<polygon fill="white" stroke="black" points="148.5,-1 148.5,-31 279.5,-31 279.5,-1 148.5,-1"/>
<text text-anchor="start" x="156.5" y="-19" font-family="Helvetica,sans-Serif" font-size="10.00">hpp::core::SteeringMethod</text>
<text text-anchor="middle" x="214" y="-8" font-family="Helvetica,sans-Serif" font-size="10.00">Straight</text>
</a>
</g>
</g>
<!-- Node1&#45;&gt;Node3 -->
<g id="edge2" class="edge"><title>Node1&#45;&gt;Node3</title>
<path fill="none" stroke="midnightblue" d="M157.661,-62.0711C169.488,-52.6097 184.692,-40.4466 196.324,-31.1408"/>
<polygon fill="midnightblue" stroke="midnightblue" points="155.368,-59.4234 149.746,-68.4035 159.741,-64.8895 155.368,-59.4234"/>
</g>
</g>
</svg>
