<?xml version="1.0" encoding="UTF-8" standalone="no"?>
<!DOCTYPE svg PUBLIC "-//W3C//DTD SVG 1.1//EN"
 "http://www.w3.org/Graphics/SVG/1.1/DTD/svg11.dtd">
<!-- Generated by graphviz version 2.36.0 (20140111.2315)
 -->
<!-- Title: hpp::core::Path Pages: 1 -->
<svg width="266pt" height="192pt"
 viewBox="0.00 0.00 266.00 192.00" xmlns="http://www.w3.org/2000/svg" xmlns:xlink="http://www.w3.org/1999/xlink">
<g id="graph0" class="graph" transform="scale(1 1) rotate(0) translate(4 188)">
<title>hpp::core::Path</title>
<polygon fill="white" stroke="none" points="-4,4 -4,-188 262,-188 262,4 -4,4"/>
<!-- Node1 -->
<g id="node1" class="node"><title>Node1</title>
<polygon fill="#bfbfbf" stroke="black" points="0.5,-82.5 0.5,-101.5 83.5,-101.5 83.5,-82.5 0.5,-82.5"/>
<text text-anchor="middle" x="42" y="-89.5" font-family="Helvetica,sans-Serif" font-size="10.00">hpp::core::Path</text>
</g>
<!-- Node2 -->
<g id="node2" class="node"><title>Node2</title>
<g id="a_node2"><a xlink:href="a00044.html" target="_top" xlink:title="Result of restriction of a path to a sub interval or of reversion. ">
<polygon fill="white" stroke="black" points="126.5,-164.5 126.5,-183.5 251.5,-183.5 251.5,-164.5 126.5,-164.5"/>
<text text-anchor="middle" x="189" y="-171.5" font-family="Helvetica,sans-Serif" font-size="10.00">hpp::core::ExtractedPath</text>
</a>
</g>
</g>
<!-- Node1&#45;&gt;Node2 -->
<g id="edge1" class="edge"><title>Node1&#45;&gt;Node2</title>
<path fill="none" stroke="midnightblue" d="M59.2997,-108.787C73.9623,-122.99 96.7211,-142.907 120,-155 127.288,-158.786 135.419,-161.891 143.452,-164.414"/>
<polygon fill="midnightblue" stroke="midnightblue" points="61.5962,-106.135 52.0349,-101.571 56.6632,-111.102 61.5962,-106.135"/>
</g>
<!-- Node3 -->
<g id="node3" class="node"><title>Node3</title>
<g id="a_node3"><a xlink:href="a00051.html" target="_top" xlink:title="Linear interpolation between two configurations. ">
<polygon fill="white" stroke="black" points="122,-126.5 122,-145.5 256,-145.5 256,-126.5 122,-126.5"/>
<text text-anchor="middle" x="189" y="-133.5" font-family="Helvetica,sans-Serif" font-size="10.00">hpp::core::InterpolatedPath</text>
</a>
</g>
</g>
<!-- Node1&#45;&gt;Node3 -->
<g id="edge2" class="edge"><title>Node1&#45;&gt;Node3</title>
<path fill="none" stroke="midnightblue" d="M82.989,-104.598C94.8869,-108.31 107.96,-112.353 120,-116 131.424,-119.46 143.953,-123.169 155.111,-126.442"/>
<polygon fill="midnightblue" stroke="midnightblue" points="83.9084,-101.219 73.3195,-101.574 81.8188,-107.899 83.9084,-101.219"/>
</g>
<!-- Node4 -->
<g id="node4" class="node"><title>Node4</title>
<g id="a_node4"><a xlink:href="a00068.html" target="_top" xlink:title="Path for a robot partially defined by a cubic B&#45;spline. ">
<polygon fill="white" stroke="black" points="120.5,-77 120.5,-107 257.5,-107 257.5,-77 120.5,-77"/>
<text text-anchor="start" x="128.5" y="-95" font-family="Helvetica,sans-Serif" font-size="10.00">hpp::core::pathOptimization</text>
<text text-anchor="middle" x="189" y="-84" font-family="Helvetica,sans-Serif" font-size="10.00">::PartialSplinePath</text>
</a>
</g>
</g>
<!-- Node1&#45;&gt;Node4 -->
<g id="edge3" class="edge"><title>Node1&#45;&gt;Node4</title>
<path fill="none" stroke="midnightblue" d="M93.9456,-92C102.491,-92 111.475,-92 120.362,-92"/>
<polygon fill="midnightblue" stroke="midnightblue" points="93.7765,-88.5001 83.7765,-92 93.7764,-95.5001 93.7765,-88.5001"/>
</g>
<!-- Node5 -->
<g id="node5" class="node"><title>Node5</title>
<g id="a_node5"><a xlink:href="a00076.html" target="_top" xlink:title="Concatenation of several paths. ">
<polygon fill="white" stroke="black" points="133,-38.5 133,-57.5 245,-57.5 245,-38.5 133,-38.5"/>
<text text-anchor="middle" x="189" y="-45.5" font-family="Helvetica,sans-Serif" font-size="10.00">hpp::core::PathVector</text>
</a>
</g>
</g>
<!-- Node1&#45;&gt;Node5 -->
<g id="edge4" class="edge"><title>Node1&#45;&gt;Node5</title>
<path fill="none" stroke="midnightblue" d="M82.989,-79.4019C94.8869,-75.6898 107.96,-71.6467 120,-68 131.424,-64.5399 143.953,-60.8305 155.111,-57.5575"/>
<polygon fill="midnightblue" stroke="midnightblue" points="81.8188,-76.1006 73.3195,-82.4262 83.9084,-82.7815 81.8188,-76.1006"/>
</g>
<!-- Node6 -->
<g id="node6" class="node"><title>Node6</title>
<g id="a_node6"><a xlink:href="a00090.html" target="_top" xlink:title="Linear interpolation between two configurations. ">
<polygon fill="white" stroke="black" points="130.5,-0.5 130.5,-19.5 247.5,-19.5 247.5,-0.5 130.5,-0.5"/>
<text text-anchor="middle" x="189" y="-7.5" font-family="Helvetica,sans-Serif" font-size="10.00">hpp::core::StraightPath</text>
</a>
</g>
</g>
<!-- Node1&#45;&gt;Node6 -->
<g id="edge5" class="edge"><title>Node1&#45;&gt;Node6</title>
<path fill="none" stroke="midnightblue" d="M59.2997,-75.2126C73.9623,-61.0104 96.7211,-41.0925 120,-29 127.288,-25.2141 135.419,-22.1085 143.452,-19.5864"/>
<polygon fill="midnightblue" stroke="midnightblue" points="56.6632,-72.8983 52.0349,-82.4287 61.5962,-77.8647 56.6632,-72.8983"/>
</g>
</g>
</svg>
