<?xml version="1.0" encoding="UTF-8" standalone="no"?>
<!DOCTYPE svg PUBLIC "-//W3C//DTD SVG 1.1//EN"
 "http://www.w3.org/Graphics/SVG/1.1/DTD/svg11.dtd">
<!-- Generated by graphviz version 2.36.0 (20140111.2315)
 -->
<!-- Title: hpp::core::ExplicitNumericalConstraint Pages: 1 -->
<svg width="160pt" height="220pt"
 viewBox="0.00 0.00 160.00 220.00" xmlns="http://www.w3.org/2000/svg" xmlns:xlink="http://www.w3.org/1999/xlink">
<g id="graph0" class="graph" transform="scale(1 1) rotate(0) translate(4 216)">
<title>hpp::core::ExplicitNumericalConstraint</title>
<polygon fill="white" stroke="none" points="-4,4 -4,-216 156,-216 156,4 -4,4"/>
<!-- Node1 -->
<g id="node1" class="node"><title>Node1</title>
<polygon fill="#bfbfbf" stroke="black" points="6,-69 6,-99 146,-99 146,-69 6,-69"/>
<text text-anchor="start" x="14" y="-87" font-family="Helvetica,sans-Serif" font-size="10.00">hpp::core::ExplicitNumerical</text>
<text text-anchor="middle" x="76" y="-76" font-family="Helvetica,sans-Serif" font-size="10.00">Constraint</text>
</g>
<!-- Node4 -->
<g id="node4" class="node"><title>Node4</title>
<g id="a_node4"><a xlink:href="a00043.html" target="_top" xlink:title="Relative transformation as an explicit constraint. ">
<polygon fill="white" stroke="black" points="10.5,-1 10.5,-31 141.5,-31 141.5,-1 10.5,-1"/>
<text text-anchor="start" x="18.5" y="-19" font-family="Helvetica,sans-Serif" font-size="10.00">hpp::core::ExplicitRelative</text>
<text text-anchor="middle" x="76" y="-8" font-family="Helvetica,sans-Serif" font-size="10.00">Transformation</text>
</a>
</g>
</g>
<!-- Node1&#45;&gt;Node4 -->
<g id="edge3" class="edge"><title>Node1&#45;&gt;Node4</title>
<path fill="none" stroke="midnightblue" d="M76,-58.5322C76,-49.3606 76,-39.2449 76,-31.2931"/>
<polygon fill="midnightblue" stroke="midnightblue" points="72.5001,-58.6789 76,-68.679 79.5001,-58.679 72.5001,-58.6789"/>
</g>
<!-- Node2 -->
<g id="node2" class="node"><title>Node2</title>
<g id="a_node2"><a xlink:href="a00062.html" target="_top" xlink:title="With the same notation as in Equation, this class represents equation: ">
<polygon fill="white" stroke="black" points="0,-136.5 0,-155.5 152,-155.5 152,-136.5 0,-136.5"/>
<text text-anchor="middle" x="76" y="-143.5" font-family="Helvetica,sans-Serif" font-size="10.00">hpp::core::NumericalConstraint</text>
</a>
</g>
</g>
<!-- Node2&#45;&gt;Node1 -->
<g id="edge1" class="edge"><title>Node2&#45;&gt;Node1</title>
<path fill="none" stroke="midnightblue" d="M76,-126.371C76,-117.585 76,-107.272 76,-99.1408"/>
<polygon fill="midnightblue" stroke="midnightblue" points="72.5001,-126.403 76,-136.403 79.5001,-126.403 72.5001,-126.403"/>
</g>
<!-- Node3 -->
<g id="node3" class="node"><title>Node3</title>
<g id="a_node3"><a xlink:href="a00041.html" target="_top" xlink:title="This class represents an equation with the following format . ">
<polygon fill="white" stroke="black" points="25.5,-192.5 25.5,-211.5 126.5,-211.5 126.5,-192.5 25.5,-192.5"/>
<text text-anchor="middle" x="76" y="-199.5" font-family="Helvetica,sans-Serif" font-size="10.00">hpp::core::Equation</text>
</a>
</g>
</g>
<!-- Node3&#45;&gt;Node2 -->
<g id="edge2" class="edge"><title>Node3&#45;&gt;Node2</title>
<path fill="none" stroke="midnightblue" d="M76,-181.805C76,-172.91 76,-162.78 76,-155.751"/>
<polygon fill="midnightblue" stroke="midnightblue" points="72.5001,-182.083 76,-192.083 79.5001,-182.083 72.5001,-182.083"/>
</g>
</g>
</svg>
