<?xml version="1.0" encoding="UTF-8" standalone="no"?>
<!DOCTYPE svg PUBLIC "-//W3C//DTD SVG 1.1//EN"
 "http://www.w3.org/Graphics/SVG/1.1/DTD/svg11.dtd">
<!-- Generated by graphviz version 2.36.0 (20140111.2315)
 -->
<!-- Title: hpp::core::continuousCollisionChecking::dichotomy::CoefficientVelocity Pages: 1 -->
<svg width="170pt" height="186pt"
 viewBox="0.00 0.00 170.00 186.00" xmlns="http://www.w3.org/2000/svg" xmlns:xlink="http://www.w3.org/1999/xlink">
<g id="graph0" class="graph" transform="scale(1 1) rotate(0) translate(4 182)">
<title>hpp::core::continuousCollisionChecking::dichotomy::CoefficientVelocity</title>
<polygon fill="white" stroke="none" points="-4,4 -4,-182 166,-182 166,4 -4,4"/>
<!-- Node1 -->
<g id="node1" class="node"><title>Node1</title>
<polygon fill="#bfbfbf" stroke="black" points="0,-0.5 0,-41.5 162,-41.5 162,-0.5 0,-0.5"/>
<text text-anchor="start" x="8" y="-29.5" font-family="Helvetica,sans-Serif" font-size="10.00">hpp::core::continuousCollision</text>
<text text-anchor="start" x="8" y="-18.5" font-family="Helvetica,sans-Serif" font-size="10.00">Checking::dichotomy::Coefficient</text>
<text text-anchor="middle" x="81" y="-7.5" font-family="Helvetica,sans-Serif" font-size="10.00">Velocity</text>
</g>
<!-- Node2 -->
<g id="node2" class="node"><title>Node2</title>
<g id="a_node2"><a doxygen="https://jmirabel.github.io/hpp-doc/api/hpp-model/doxygen-html/hpp-model.doxytag:https://jmirabel.github.io/hpp-doc/api/hpp-model/doxygen-html/" xlink:href="https://jmirabel.github.io/hpp-doc/api/hpp-model/doxygen-html/a00013.html" target="_top" xlink:title="hpp::model::Joint">
<polygon fill="white" stroke="black" points="35,-90.5 35,-109.5 127,-109.5 127,-90.5 35,-90.5"/>
<text text-anchor="middle" x="81" y="-97.5" font-family="Helvetica,sans-Serif" font-size="10.00">hpp::model::Joint</text>
</a>
</g>
</g>
<!-- Node2&#45;&gt;Node1 -->
<g id="edge1" class="edge"><title>Node2&#45;&gt;Node1</title>
<path fill="none" stroke="#9a32cd" stroke-dasharray="5,2" d="M81,-80.1487C81,-68.503 81,-53.5806 81,-41.7685"/>
<polygon fill="#9a32cd" stroke="#9a32cd" points="77.5001,-80.4654 81,-90.4655 84.5001,-80.4655 77.5001,-80.4654"/>
<text text-anchor="middle" x="94.5" y="-63.5" font-family="Helvetica,sans-Serif" font-size="10.00"> joint_</text>
</g>
<!-- Node3 -->
<g id="node3" class="node"><title>Node3</title>
<g id="a_node3"><a doxygen="https://jmirabel.github.io/hpp-doc/api/hpp-model/doxygen-html/hpp-model.doxytag:https://jmirabel.github.io/hpp-doc/api/hpp-model/doxygen-html/" xlink:href="https://jmirabel.github.io/hpp-doc/api/hpp-model/doxygen-html/a00015.html" target="_top" xlink:title="hpp::model::JointConfiguration">
<polygon fill="white" stroke="black" points="6.5,-158.5 6.5,-177.5 155.5,-177.5 155.5,-158.5 6.5,-158.5"/>
<text text-anchor="middle" x="81" y="-165.5" font-family="Helvetica,sans-Serif" font-size="10.00">hpp::model::JointConfiguration</text>
</a>
</g>
</g>
<!-- Node3&#45;&gt;Node2 -->
<g id="edge2" class="edge"><title>Node3&#45;&gt;Node2</title>
<path fill="none" stroke="#9a32cd" stroke-dasharray="5,2" d="M81,-148.041C81,-135.472 81,-119.563 81,-109.841"/>
<polygon fill="#9a32cd" stroke="#9a32cd" points="77.5001,-148.372 81,-158.372 84.5001,-148.372 77.5001,-148.372"/>
<text text-anchor="middle" x="113" y="-131.5" font-family="Helvetica,sans-Serif" font-size="10.00"> configuration_</text>
</g>
</g>
</svg>
