<?xml version="1.0" encoding="UTF-8" standalone="no"?>
<!DOCTYPE svg PUBLIC "-//W3C//DTD SVG 1.1//EN"
 "http://www.w3.org/Graphics/SVG/1.1/DTD/svg11.dtd">
<!-- Generated by graphviz version 2.36.0 (20140111.2315)
 -->
<!-- Title: hpp::core::pathOptimization::PartialShortcut Pages: 1 -->
<svg width="293pt" height="120pt"
 viewBox="0.00 0.00 293.00 120.00" xmlns="http://www.w3.org/2000/svg" xmlns:xlink="http://www.w3.org/1999/xlink">
<g id="graph0" class="graph" transform="scale(1 1) rotate(0) translate(4 116)">
<title>hpp::core::pathOptimization::PartialShortcut</title>
<polygon fill="white" stroke="none" points="-4,4 -4,-116 289,-116 289,4 -4,4"/>
<!-- Node1 -->
<g id="node1" class="node"><title>Node1</title>
<polygon fill="#bfbfbf" stroke="black" points="69.5,-1 69.5,-31 206.5,-31 206.5,-1 69.5,-1"/>
<text text-anchor="start" x="77.5" y="-19" font-family="Helvetica,sans-Serif" font-size="10.00">hpp::core::pathOptimization</text>
<text text-anchor="middle" x="138" y="-8" font-family="Helvetica,sans-Serif" font-size="10.00">::PartialShortcut</text>
</g>
<!-- Node2 -->
<g id="node2" class="node"><title>Node2</title>
<g id="a_node2"><a xlink:href="a00071.html" target="_top" xlink:title="Abstraction of path optimizer. ">
<polygon fill="white" stroke="black" points="-0.5,-86.5 -0.5,-105.5 124.5,-105.5 124.5,-86.5 -0.5,-86.5"/>
<text text-anchor="middle" x="62" y="-93.5" font-family="Helvetica,sans-Serif" font-size="10.00">hpp::core::PathOptimizer</text>
</a>
</g>
</g>
<!-- Node2&#45;&gt;Node1 -->
<g id="edge1" class="edge"><title>Node2&#45;&gt;Node1</title>
<path fill="none" stroke="midnightblue" d="M77.6942,-78.8928C91.3751,-64.8519 111.027,-44.6827 124.138,-31.227"/>
<polygon fill="midnightblue" stroke="midnightblue" points="74.8956,-76.7498 70.4237,-86.3546 79.9092,-81.6348 74.8956,-76.7498"/>
</g>
<!-- Node3 -->
<g id="node3" class="node"><title>Node3</title>
<g id="a_node3"><a xlink:href="a00065.html" target="_top" xlink:title="hpp::core::pathOptimization\l::PartialShortcut::Parameters">
<polygon fill="white" stroke="black" points="142.5,-81 142.5,-111 285.5,-111 285.5,-81 142.5,-81"/>
<text text-anchor="start" x="150.5" y="-99" font-family="Helvetica,sans-Serif" font-size="10.00">hpp::core::pathOptimization</text>
<text text-anchor="middle" x="214" y="-88" font-family="Helvetica,sans-Serif" font-size="10.00">::PartialShortcut::Parameters</text>
</a>
</g>
</g>
<!-- Node3&#45;&gt;Node1 -->
<g id="edge2" class="edge"><title>Node3&#45;&gt;Node1</title>
<path fill="none" stroke="#9a32cd" stroke-dasharray="5,2" d="M192.801,-73.2427C179.71,-59.8075 163.289,-42.9542 151.851,-31.2157"/>
<polygon fill="#9a32cd" stroke="#9a32cd" points="190.575,-75.9738 200.06,-80.6936 195.589,-71.0887 190.575,-75.9738"/>
<text text-anchor="middle" x="207" y="-53.5" font-family="Helvetica,sans-Serif" font-size="10.00"> parameters</text>
</g>
</g>
</svg>
