<?xml version="1.0" encoding="UTF-8" standalone="no"?>
<!DOCTYPE svg PUBLIC "-//W3C//DTD SVG 1.1//EN"
 "http://www.w3.org/Graphics/SVG/1.1/DTD/svg11.dtd">
<!-- Generated by graphviz version 2.36.0 (20140111.2315)
 -->
<!-- Title: hpp::core::pathOptimization::ConfigOptimization Pages: 1 -->
<svg width="396pt" height="77pt"
 viewBox="0.00 0.00 396.00 77.00" xmlns="http://www.w3.org/2000/svg" xmlns:xlink="http://www.w3.org/1999/xlink">
<g id="graph0" class="graph" transform="scale(1 1) rotate(0) translate(4 73)">
<title>hpp::core::pathOptimization::ConfigOptimization</title>
<polygon fill="white" stroke="none" points="-4,4 -4,-73 392,-73 392,4 -4,4"/>
<!-- Node1 -->
<g id="node1" class="node"><title>Node1</title>
<polygon fill="#bfbfbf" stroke="black" points="250.5,-22 250.5,-52 387.5,-52 387.5,-22 250.5,-22"/>
<text text-anchor="start" x="258.5" y="-40" font-family="Helvetica,sans-Serif" font-size="10.00">hpp::core::pathOptimization</text>
<text text-anchor="middle" x="319" y="-29" font-family="Helvetica,sans-Serif" font-size="10.00">::ConfigOptimization</text>
</g>
<!-- Node2 -->
<g id="node2" class="node"><title>Node2</title>
<g id="a_node2"><a xlink:href="a00071.html" target="_top" xlink:title="Abstraction of path optimizer. ">
<polygon fill="white" stroke="black" points="18.5,-49.5 18.5,-68.5 143.5,-68.5 143.5,-49.5 18.5,-49.5"/>
<text text-anchor="middle" x="81" y="-56.5" font-family="Helvetica,sans-Serif" font-size="10.00">hpp::core::PathOptimizer</text>
</a>
</g>
</g>
<!-- Node2&#45;&gt;Node1 -->
<g id="edge1" class="edge"><title>Node2&#45;&gt;Node1</title>
<path fill="none" stroke="midnightblue" d="M153.904,-52.2971C184.601,-49.4355 220.237,-46.1135 250.441,-43.2979"/>
<polygon fill="midnightblue" stroke="midnightblue" points="153.33,-48.8353 143.698,-53.2485 153.98,-55.8051 153.33,-48.8353"/>
</g>
<!-- Node3 -->
<g id="node3" class="node"><title>Node3</title>
<g id="a_node3"><a xlink:href="a00064.html" target="_top" xlink:title="hpp::core::pathOptimization\l::ConfigOptimization::Parameters">
<polygon fill="white" stroke="black" points="0,-0 0,-30 162,-30 162,-0 0,-0"/>
<text text-anchor="start" x="8" y="-18" font-family="Helvetica,sans-Serif" font-size="10.00">hpp::core::pathOptimization</text>
<text text-anchor="middle" x="81" y="-7" font-family="Helvetica,sans-Serif" font-size="10.00">::ConfigOptimization::Parameters</text>
</a>
</g>
</g>
<!-- Node3&#45;&gt;Node1 -->
<g id="edge2" class="edge"><title>Node3&#45;&gt;Node1</title>
<path fill="none" stroke="#9a32cd" stroke-dasharray="5,2" d="M172.405,-23.4276C198.241,-25.836 225.946,-28.4187 250.18,-30.6778"/>
<polygon fill="#9a32cd" stroke="#9a32cd" points="172.51,-19.9223 162.228,-22.4789 171.86,-26.8921 172.51,-19.9223"/>
<text text-anchor="middle" x="206" y="-32" font-family="Helvetica,sans-Serif" font-size="10.00"> parameters</text>
</g>
</g>
</svg>
