<?xml version="1.0" encoding="UTF-8" standalone="no"?>
<!DOCTYPE svg PUBLIC "-//W3C//DTD SVG 1.1//EN"
 "http://www.w3.org/Graphics/SVG/1.1/DTD/svg11.dtd">
<!-- Generated by graphviz version 2.36.0 (20140111.2315)
 -->
<!-- Title: nearest&#45;neighbor Pages: 1 -->
<svg width="128pt" height="151pt"
 viewBox="0.00 0.00 128.00 151.00" xmlns="http://www.w3.org/2000/svg" xmlns:xlink="http://www.w3.org/1999/xlink">
<g id="graph0" class="graph" transform="scale(1 1) rotate(0) translate(4 147)">
<title>nearest&#45;neighbor</title>
<polygon fill="white" stroke="none" points="-4,4 -4,-147 124,-147 124,4 -4,4"/>
<g id="clust1" class="cluster"><title>clusterdir_68267d1309a1af8e8297ef4c3efbcdba</title>
<g id="a_clust1"><a xlink:href="dir_68267d1309a1af8e8297ef4c3efbcdba.html" target="_top" xlink:title="src">
<polygon fill="#ddddee" stroke="black" points="8,-64 8,-135 112,-135 112,-64 8,-64"/>
<text text-anchor="middle" x="60" y="-123" font-family="Helvetica,sans-Serif" font-size="10.00">src</text>
</a>
</g>
</g>
<!-- dir_22696d90f905c72b20663770e828fa72 -->
<g id="node1" class="node"><title>dir_22696d90f905c72b20663770e828fa72</title>
<g id="a_node1"><a xlink:href="dir_22696d90f905c72b20663770e828fa72.html" target="_top" xlink:title="nearest&#45;neighbor">
<polygon fill="#eeeeff" stroke="black" points="104.25,-108 15.75,-108 15.75,-72 104.25,-72 104.25,-108"/>
<text text-anchor="middle" x="60" y="-87.5" font-family="Helvetica,sans-Serif" font-size="10.00">nearest&#45;neighbor</text>
</a>
</g>
</g>
<!-- dir_d44c64559bbebec7f509842c48db8b23 -->
<g id="node2" class="node"><title>dir_d44c64559bbebec7f509842c48db8b23</title>
<g id="a_node2"><a xlink:href="dir_d44c64559bbebec7f509842c48db8b23.html" target="_top" xlink:title="include">
<polygon fill="white" stroke="red" points="87,-36 33,-36 33,-0 87,-0 87,-36"/>
<text text-anchor="middle" x="60" y="-15.5" font-family="Helvetica,sans-Serif" font-size="10.00">include</text>
</a>
</g>
</g>
<!-- dir_22696d90f905c72b20663770e828fa72&#45;&gt;dir_d44c64559bbebec7f509842c48db8b23 -->
<g id="edge1" class="edge"><title>dir_22696d90f905c72b20663770e828fa72&#45;&gt;dir_d44c64559bbebec7f509842c48db8b23</title>
<path fill="none" stroke="black" d="M60,-71.6966C60,-63.9827 60,-54.7125 60,-46.1124"/>
<polygon fill="black" stroke="black" points="63.5001,-46.1043 60,-36.1043 56.5001,-46.1044 63.5001,-46.1043"/>
<g id="a_edge1&#45;headlabel"><a xlink:href="dir_000004_000001.html" target="_top" xlink:title="10">
<text text-anchor="middle" x="66.3393" y="-47.199" font-family="Helvetica,sans-Serif" font-size="10.00">10</text>
</a>
</g>
</g>
</g>
</svg>
