<?xml version="1.0" encoding="UTF-8" standalone="no"?>
<!DOCTYPE svg PUBLIC "-//W3C//DTD SVG 1.1//EN"
 "http://www.w3.org/Graphics/SVG/1.1/DTD/svg11.dtd">
<!-- Generated by graphviz version 2.36.0 (20140111.2315)
 -->
<!-- Title: Graphical Class Hierarchy Pages: 1 -->
<svg width="284pt" height="66pt"
 viewBox="0.00 0.00 284.00 66.00" xmlns="http://www.w3.org/2000/svg" xmlns:xlink="http://www.w3.org/1999/xlink">
<g id="graph0" class="graph" transform="scale(1 1) rotate(0) translate(4 62)">
<title>Graphical Class Hierarchy</title>
<polygon fill="white" stroke="none" points="-4,4 -4,-62 280,-62 280,4 -4,4"/>
<!-- Node1 -->
<g id="node1" class="node"><title>Node1</title>
<g id="a_node1"><a xlink:href="a00019.html" target="_top" xlink:title="Constraint applicable to a robot configuration. ">
<polygon fill="white" stroke="black" points="0,-19.5 0,-38.5 108,-38.5 108,-19.5 0,-19.5"/>
<text text-anchor="middle" x="54" y="-26.5" font-family="Helvetica,sans-Serif" font-size="10.00">hpp::core::Constraint</text>
</a>
</g>
</g>
<!-- Node2 -->
<g id="node2" class="node"><title>Node2</title>
<g id="a_node2"><a xlink:href="a00014.html" target="_top" xlink:title="Implicit non&#45;linear constraint. ">
<polygon fill="white" stroke="black" points="144.5,-38.5 144.5,-57.5 275.5,-57.5 275.5,-38.5 144.5,-38.5"/>
<text text-anchor="middle" x="210" y="-45.5" font-family="Helvetica,sans-Serif" font-size="10.00">hpp::core::ConfigProjector</text>
</a>
</g>
</g>
<!-- Node1&#45;&gt;Node2 -->
<g id="edge1" class="edge"><title>Node1&#45;&gt;Node2</title>
<path fill="none" stroke="midnightblue" d="M118.617,-36.8488C127.083,-37.8933 135.771,-38.9653 144.256,-40.0121"/>
<polygon fill="midnightblue" stroke="midnightblue" points="118.783,-33.3429 108.43,-35.592 117.926,-40.2902 118.783,-33.3429"/>
</g>
<!-- Node3 -->
<g id="node3" class="node"><title>Node3</title>
<g id="a_node3"><a xlink:href="a00020.html" target="_top" xlink:title="Set of constraints applicable to a robot configuration. ">
<polygon fill="white" stroke="black" points="148.5,-0.5 148.5,-19.5 271.5,-19.5 271.5,-0.5 148.5,-0.5"/>
<text text-anchor="middle" x="210" y="-7.5" font-family="Helvetica,sans-Serif" font-size="10.00">hpp::core::ConstraintSet</text>
</a>
</g>
</g>
<!-- Node1&#45;&gt;Node3 -->
<g id="edge2" class="edge"><title>Node1&#45;&gt;Node3</title>
<path fill="none" stroke="midnightblue" d="M118.539,-21.1607C128.372,-19.9476 138.508,-18.6971 148.277,-17.4918"/>
<polygon fill="midnightblue" stroke="midnightblue" points="117.926,-17.7098 108.43,-22.408 118.783,-24.6571 117.926,-17.7098"/>
</g>
</g>
</svg>
