<?xml version="1.0" encoding="UTF-8" standalone="no"?>
<!DOCTYPE svg PUBLIC "-//W3C//DTD SVG 1.1//EN"
 "http://www.w3.org/Graphics/SVG/1.1/DTD/svg11.dtd">
<!-- Generated by graphviz version 2.36.0 (20140111.2315)
 -->
<!-- Title: Graphical Class Hierarchy Pages: 1 -->
<svg width="420pt" height="77pt"
 viewBox="0.00 0.00 420.00 77.00" xmlns="http://www.w3.org/2000/svg" xmlns:xlink="http://www.w3.org/1999/xlink">
<g id="graph0" class="graph" transform="scale(1 1) rotate(0) translate(4 73)">
<title>Graphical Class Hierarchy</title>
<polygon fill="white" stroke="none" points="-4,4 -4,-73 416,-73 416,4 -4,4"/>
<!-- Node1 -->
<g id="node1" class="node"><title>Node1</title>
<g id="a_node1"><a xlink:title="STL class. ">
<polygon fill="white" stroke="#bfbfbf" points="0,-22.5 0,-41.5 78,-41.5 78,-22.5 0,-22.5"/>
<text text-anchor="middle" x="39" y="-29.5" font-family="Helvetica,sans-Serif" font-size="10.00">std::exception</text>
</a>
</g>
</g>
<!-- Node2 -->
<g id="node2" class="node"><title>Node2</title>
<g id="a_node2"><a xlink:href="a00084.html" target="_top" xlink:title="hpp::core::projection\l_error">
<polygon fill="white" stroke="black" points="114.5,-39 114.5,-69 219.5,-69 219.5,-39 114.5,-39"/>
<text text-anchor="start" x="122.5" y="-57" font-family="Helvetica,sans-Serif" font-size="10.00">hpp::core::projection</text>
<text text-anchor="middle" x="167" y="-46" font-family="Helvetica,sans-Serif" font-size="10.00">_error</text>
</a>
</g>
</g>
<!-- Node1&#45;&gt;Node2 -->
<g id="edge1" class="edge"><title>Node1&#45;&gt;Node2</title>
<path fill="none" stroke="midnightblue" d="M88.0692,-40.393C96.7139,-41.9024 105.757,-43.4813 114.494,-45.0069"/>
<polygon fill="midnightblue" stroke="midnightblue" points="88.5991,-36.9327 78.1461,-38.6604 87.395,-43.8284 88.5991,-36.9327"/>
</g>
<!-- Node3 -->
<g id="node3" class="node"><title>Node3</title>
<g id="a_node3"><a xlink:title="STL class. ">
<polygon fill="white" stroke="#bfbfbf" points="120.5,-0.5 120.5,-19.5 213.5,-19.5 213.5,-0.5 120.5,-0.5"/>
<text text-anchor="middle" x="167" y="-7.5" font-family="Helvetica,sans-Serif" font-size="10.00">std::runtime_error</text>
</a>
</g>
</g>
<!-- Node1&#45;&gt;Node3 -->
<g id="edge2" class="edge"><title>Node1&#45;&gt;Node3</title>
<path fill="none" stroke="midnightblue" d="M88.0978,-23.602C98.7132,-21.7485 109.928,-19.7904 120.439,-17.9551"/>
<polygon fill="midnightblue" stroke="midnightblue" points="87.395,-20.1716 78.1461,-25.3396 88.5991,-27.0673 87.395,-20.1716"/>
</g>
<!-- Node4 -->
<g id="node4" class="node"><title>Node4</title>
<g id="a_node4"><a xlink:href="a00053.html" target="_top" xlink:title="Exception thrown when a configuration is not within the bounds. ">
<polygon fill="white" stroke="black" points="256.5,-0.5 256.5,-19.5 411.5,-19.5 411.5,-0.5 256.5,-0.5"/>
<text text-anchor="middle" x="334" y="-7.5" font-family="Helvetica,sans-Serif" font-size="10.00">hpp::core::JointBoundException</text>
</a>
</g>
</g>
<!-- Node3&#45;&gt;Node4 -->
<g id="edge3" class="edge"><title>Node3&#45;&gt;Node4</title>
<path fill="none" stroke="midnightblue" d="M223.74,-10C234.2,-10 245.304,-10 256.271,-10"/>
<polygon fill="midnightblue" stroke="midnightblue" points="223.524,-6.5001 213.524,-10 223.524,-13.5001 223.524,-6.5001"/>
</g>
</g>
</svg>
