<?xml version="1.0" encoding="UTF-8" standalone="no"?>
<!DOCTYPE svg PUBLIC "-//W3C//DTD SVG 1.1//EN"
 "http://www.w3.org/Graphics/SVG/1.1/DTD/svg11.dtd">
<!-- Generated by graphviz version 2.36.0 (20140111.2315)
 -->
<!-- Title: Graphical Class Hierarchy Pages: 1 -->
<svg width="226pt" height="48pt"
 viewBox="0.00 0.00 226.00 48.00" xmlns="http://www.w3.org/2000/svg" xmlns:xlink="http://www.w3.org/1999/xlink">
<g id="graph0" class="graph" transform="scale(1 1) rotate(0) translate(4 44)">
<title>Graphical Class Hierarchy</title>
<polygon fill="white" stroke="none" points="-4,4 -4,-44 222,-44 222,4 -4,4"/>
<!-- Node1 -->
<g id="node1" class="node"><title>Node1</title>
<polygon fill="white" stroke="#bfbfbf" points="0,-10.5 0,-29.5 62,-29.5 62,-10.5 0,-10.5"/>
<text text-anchor="middle" x="31" y="-17.5" font-family="Helvetica,sans-Serif" font-size="10.00">NumTraits</text>
</g>
<!-- Node2 -->
<g id="node2" class="node"><title>Node2</title>
<g id="a_node2"><a xlink:href="a00050.html" target="_top" xlink:title="Eigen::NumTraits\&lt; hpp\l::core::RelativeMotion\l::RelativeMotionType \&gt;">
<polygon fill="white" stroke="black" points="98.5,0.5 98.5,-40.5 217.5,-40.5 217.5,0.5 98.5,0.5"/>
<text text-anchor="start" x="106.5" y="-28.5" font-family="Helvetica,sans-Serif" font-size="10.00">Eigen::NumTraits&lt; hpp</text>
<text text-anchor="start" x="106.5" y="-17.5" font-family="Helvetica,sans-Serif" font-size="10.00">::core::RelativeMotion</text>
<text text-anchor="middle" x="158" y="-6.5" font-family="Helvetica,sans-Serif" font-size="10.00">::RelativeMotionType &gt;</text>
</a>
</g>
</g>
<!-- Node1&#45;&gt;Node2 -->
<g id="edge1" class="edge"><title>Node1&#45;&gt;Node2</title>
<path fill="none" stroke="midnightblue" d="M72.331,-20C80.5729,-20 89.4056,-20 98.1431,-20"/>
<polygon fill="midnightblue" stroke="midnightblue" points="72.259,-16.5001 62.259,-20 72.259,-23.5001 72.259,-16.5001"/>
</g>
</g>
</svg>
