<?xml version="1.0" encoding="UTF-8" standalone="no"?>
<!DOCTYPE svg PUBLIC "-//W3C//DTD SVG 1.1//EN"
 "http://www.w3.org/Graphics/SVG/1.1/DTD/svg11.dtd">
<!-- Generated by graphviz version 2.36.0 (20140111.2315)
 -->
<!-- Title: Graphical Class Hierarchy Pages: 1 -->
<svg width="298pt" height="87pt"
 viewBox="0.00 0.00 298.00 87.00" xmlns="http://www.w3.org/2000/svg" xmlns:xlink="http://www.w3.org/1999/xlink">
<g id="graph0" class="graph" transform="scale(1 1) rotate(0) translate(4 83)">
<title>Graphical Class Hierarchy</title>
<polygon fill="white" stroke="none" points="-4,4 -4,-83 294,-83 294,4 -4,4"/>
<!-- Node1 -->
<g id="node1" class="node"><title>Node1</title>
<g id="a_node1"><a xlink:href="a00081.html" target="_top" xlink:title="Problem target. ">
<polygon fill="white" stroke="black" points="0.5,-29.5 0.5,-48.5 127.5,-48.5 127.5,-29.5 0.5,-29.5"/>
<text text-anchor="middle" x="64" y="-36.5" font-family="Helvetica,sans-Serif" font-size="10.00">hpp::core::ProblemTarget</text>
</a>
</g>
</g>
<!-- Node2 -->
<g id="node2" class="node"><title>Node2</title>
<g id="a_node2"><a xlink:href="a00046.html" target="_top" xlink:title="Goal configurations. ">
<polygon fill="white" stroke="black" points="164.5,-49 164.5,-79 289.5,-79 289.5,-49 164.5,-49"/>
<text text-anchor="start" x="172.5" y="-67" font-family="Helvetica,sans-Serif" font-size="10.00">hpp::core::problemTarget</text>
<text text-anchor="middle" x="227" y="-56" font-family="Helvetica,sans-Serif" font-size="10.00">::GoalConfigurations</text>
</a>
</g>
</g>
<!-- Node1&#45;&gt;Node2 -->
<g id="edge1" class="edge"><title>Node1&#45;&gt;Node2</title>
<path fill="none" stroke="midnightblue" d="M136.354,-50.0798C145.677,-51.5274 155.165,-53.0008 164.311,-54.4209"/>
<polygon fill="midnightblue" stroke="midnightblue" points="136.745,-46.5987 126.326,-48.5227 135.671,-53.5158 136.745,-46.5987"/>
</g>
<!-- Node3 -->
<g id="node3" class="node"><title>Node3</title>
<g id="a_node3"><a xlink:href="a00091.html" target="_top" xlink:title="Task target. ">
<polygon fill="white" stroke="black" points="164.5,-0 164.5,-30 289.5,-30 289.5,-0 164.5,-0"/>
<text text-anchor="start" x="172.5" y="-18" font-family="Helvetica,sans-Serif" font-size="10.00">hpp::core::problemTarget</text>
<text text-anchor="middle" x="227" y="-7" font-family="Helvetica,sans-Serif" font-size="10.00">::TaskTarget</text>
</a>
</g>
</g>
<!-- Node1&#45;&gt;Node3 -->
<g id="edge2" class="edge"><title>Node1&#45;&gt;Node3</title>
<path fill="none" stroke="midnightblue" d="M137.659,-28.1688C146.543,-26.8446 155.555,-25.5012 164.257,-24.204"/>
<polygon fill="midnightblue" stroke="midnightblue" points="137.082,-24.716 127.708,-29.6523 138.115,-31.6395 137.082,-24.716"/>
</g>
</g>
</svg>
