<?xml version="1.0" encoding="UTF-8" standalone="no"?>
<!DOCTYPE svg PUBLIC "-//W3C//DTD SVG 1.1//EN"
 "http://www.w3.org/Graphics/SVG/1.1/DTD/svg11.dtd">
<!-- Generated by graphviz version 2.36.0 (20140111.2315)
 -->
<!-- Title: Graphical Class Hierarchy Pages: 1 -->
<svg width="642pt" height="71pt"
 viewBox="0.00 0.00 642.00 71.00" xmlns="http://www.w3.org/2000/svg" xmlns:xlink="http://www.w3.org/1999/xlink">
<g id="graph0" class="graph" transform="scale(1 1) rotate(0) translate(4 67)">
<title>Graphical Class Hierarchy</title>
<polygon fill="white" stroke="none" points="-4,4 -4,-67 638,-67 638,4 -4,4"/>
<!-- Node1 -->
<g id="node1" class="node"><title>Node1</title>
<g id="a_node1"><a xlink:href="a00034.html" target="_top" xlink:title="This class represents an equation with the following format . ">
<polygon fill="white" stroke="black" points="0.5,-24.5 0.5,-43.5 101.5,-43.5 101.5,-24.5 0.5,-24.5"/>
<text text-anchor="middle" x="51" y="-31.5" font-family="Helvetica,sans-Serif" font-size="10.00">hpp::core::Equation</text>
</a>
</g>
</g>
<!-- Node2 -->
<g id="node2" class="node"><title>Node2</title>
<g id="a_node2"><a xlink:href="a00046.html" target="_top" xlink:title="Implementation of Equation specific to locked joint. ">
<polygon fill="white" stroke="black" points="156,-43.5 156,-62.5 272,-62.5 272,-43.5 156,-43.5"/>
<text text-anchor="middle" x="214" y="-50.5" font-family="Helvetica,sans-Serif" font-size="10.00">hpp::core::LockedJoint</text>
</a>
</g>
</g>
<!-- Node1&#45;&gt;Node2 -->
<g id="edge1" class="edge"><title>Node1&#45;&gt;Node2</title>
<path fill="none" stroke="midnightblue" d="M111.913,-41.0705C126.318,-42.7705 141.667,-44.5818 155.938,-46.266"/>
<polygon fill="midnightblue" stroke="midnightblue" points="111.96,-37.5519 101.619,-39.8557 111.14,-44.5036 111.96,-37.5519"/>
</g>
<!-- Node3 -->
<g id="node3" class="node"><title>Node3</title>
<g id="a_node3"><a xlink:href="a00049.html" target="_top" xlink:title="With the same notation as in Equation, this class represents equation: ">
<polygon fill="white" stroke="black" points="138,-5.5 138,-24.5 290,-24.5 290,-5.5 138,-5.5"/>
<text text-anchor="middle" x="214" y="-12.5" font-family="Helvetica,sans-Serif" font-size="10.00">hpp::core::NumericalConstraint</text>
</a>
</g>
</g>
<!-- Node1&#45;&gt;Node3 -->
<g id="edge2" class="edge"><title>Node1&#45;&gt;Node3</title>
<path fill="none" stroke="midnightblue" d="M111.773,-26.946C120.254,-25.9452 129.065,-24.9054 137.792,-23.8755"/>
<polygon fill="midnightblue" stroke="midnightblue" points="111.14,-23.4964 101.619,-28.1443 111.96,-30.4481 111.14,-23.4964"/>
</g>
<!-- Node4 -->
<g id="node4" class="node"><title>Node4</title>
<g id="a_node4"><a xlink:href="a00035.html" target="_top" xlink:title="Explicit numerical constraint. ">
<polygon fill="white" stroke="black" points="326,-0 326,-30 466,-30 466,-0 326,-0"/>
<text text-anchor="start" x="334" y="-18" font-family="Helvetica,sans-Serif" font-size="10.00">hpp::core::ExplicitNumerical</text>
<text text-anchor="middle" x="396" y="-7" font-family="Helvetica,sans-Serif" font-size="10.00">Constraint</text>
</a>
</g>
</g>
<!-- Node3&#45;&gt;Node4 -->
<g id="edge3" class="edge"><title>Node3&#45;&gt;Node4</title>
<path fill="none" stroke="midnightblue" d="M300.11,-15C308.733,-15 317.417,-15 325.843,-15"/>
<polygon fill="midnightblue" stroke="midnightblue" points="300.033,-11.5001 290.033,-15 300.033,-18.5001 300.033,-11.5001"/>
</g>
<!-- Node5 -->
<g id="node5" class="node"><title>Node5</title>
<g id="a_node5"><a xlink:href="a00036.html" target="_top" xlink:title="Relative transformation as an explicit constraint. ">
<polygon fill="white" stroke="black" points="502.5,-0 502.5,-30 633.5,-30 633.5,-0 502.5,-0"/>
<text text-anchor="start" x="510.5" y="-18" font-family="Helvetica,sans-Serif" font-size="10.00">hpp::core::ExplicitRelative</text>
<text text-anchor="middle" x="568" y="-7" font-family="Helvetica,sans-Serif" font-size="10.00">Transformation</text>
</a>
</g>
</g>
<!-- Node4&#45;&gt;Node5 -->
<g id="edge4" class="edge"><title>Node4&#45;&gt;Node5</title>
<path fill="none" stroke="midnightblue" d="M476.309,-15C485.017,-15 493.806,-15 502.306,-15"/>
<polygon fill="midnightblue" stroke="midnightblue" points="476.146,-11.5001 466.146,-15 476.145,-18.5001 476.146,-11.5001"/>
</g>
</g>
</svg>
