<?xml version="1.0" encoding="UTF-8" standalone="no"?>
<!DOCTYPE svg PUBLIC "-//W3C//DTD SVG 1.1//EN"
 "http://www.w3.org/Graphics/SVG/1.1/DTD/svg11.dtd">
<!-- Generated by graphviz version 2.36.0 (20140111.2315)
 -->
<!-- Title: Graphical Class Hierarchy Pages: 1 -->
<svg width="334pt" height="104pt"
 viewBox="0.00 0.00 334.00 104.00" xmlns="http://www.w3.org/2000/svg" xmlns:xlink="http://www.w3.org/1999/xlink">
<g id="graph0" class="graph" transform="scale(1 1) rotate(0) translate(4 100)">
<title>Graphical Class Hierarchy</title>
<polygon fill="white" stroke="none" points="-4,4 -4,-100 330,-100 330,4 -4,4"/>
<!-- Node1 -->
<g id="node1" class="node"><title>Node1</title>
<g id="a_node1"><a xlink:href="a00016.html" target="_top" xlink:title="Abstraction of configuration validation. ">
<polygon fill="white" stroke="black" points="0,-38.5 0,-57.5 134,-57.5 134,-38.5 0,-38.5"/>
<text text-anchor="middle" x="67" y="-45.5" font-family="Helvetica,sans-Serif" font-size="10.00">hpp::core::ConfigValidation</text>
</a>
</g>
</g>
<!-- Node2 -->
<g id="node2" class="node"><title>Node2</title>
<g id="a_node2"><a xlink:href="a00008.html" target="_top" xlink:title="Validate a configuration with respect to collision. ">
<polygon fill="white" stroke="black" points="176.5,-76.5 176.5,-95.5 319.5,-95.5 319.5,-76.5 176.5,-76.5"/>
<text text-anchor="middle" x="248" y="-83.5" font-family="Helvetica,sans-Serif" font-size="10.00">hpp::core::CollisionValidation</text>
</a>
</g>
</g>
<!-- Node1&#45;&gt;Node2 -->
<g id="edge1" class="edge"><title>Node1&#45;&gt;Node2</title>
<path fill="none" stroke="midnightblue" d="M123.024,-59.681C148.408,-65.0699 178.161,-71.3861 202.156,-76.4799"/>
<polygon fill="midnightblue" stroke="midnightblue" points="123.678,-56.242 113.169,-57.589 122.224,-63.0894 123.678,-56.242"/>
</g>
<!-- Node3 -->
<g id="node3" class="node"><title>Node3</title>
<g id="a_node3"><a xlink:href="a00017.html" target="_top" xlink:title="Validate a configuration with respect to collision. ">
<polygon fill="white" stroke="black" points="178,-38.5 178,-57.5 318,-57.5 318,-38.5 178,-38.5"/>
<text text-anchor="middle" x="248" y="-45.5" font-family="Helvetica,sans-Serif" font-size="10.00">hpp::core::ConfigValidations</text>
</a>
</g>
</g>
<!-- Node1&#45;&gt;Node3 -->
<g id="edge2" class="edge"><title>Node1&#45;&gt;Node3</title>
<path fill="none" stroke="midnightblue" d="M144.277,-48C155.419,-48 166.84,-48 177.829,-48"/>
<polygon fill="midnightblue" stroke="midnightblue" points="144.144,-44.5001 134.144,-48 144.144,-51.5001 144.144,-44.5001"/>
</g>
<!-- Node4 -->
<g id="node4" class="node"><title>Node4</title>
<g id="a_node4"><a xlink:href="a00044.html" target="_top" xlink:title="Validate a configuration with respect to joint bounds. ">
<polygon fill="white" stroke="black" points="170.5,-0.5 170.5,-19.5 325.5,-19.5 325.5,-0.5 170.5,-0.5"/>
<text text-anchor="middle" x="248" y="-7.5" font-family="Helvetica,sans-Serif" font-size="10.00">hpp::core::JointBoundValidation</text>
</a>
</g>
</g>
<!-- Node1&#45;&gt;Node4 -->
<g id="edge3" class="edge"><title>Node1&#45;&gt;Node4</title>
<path fill="none" stroke="midnightblue" d="M123.024,-36.319C148.408,-30.9301 178.161,-24.6139 202.156,-19.5201"/>
<polygon fill="midnightblue" stroke="midnightblue" points="122.224,-32.9106 113.169,-38.411 123.678,-39.758 122.224,-32.9106"/>
</g>
</g>
</svg>
