<?xml version="1.0" encoding="UTF-8" standalone="no"?>
<!DOCTYPE svg PUBLIC "-//W3C//DTD SVG 1.1//EN"
 "http://www.w3.org/Graphics/SVG/1.1/DTD/svg11.dtd">
<!-- Generated by graphviz version 2.36.0 (20140111.2315)
 -->
<!-- Title: Graphical Class Hierarchy Pages: 1 -->
<svg width="388pt" height="224pt"
 viewBox="0.00 0.00 388.00 224.00" xmlns="http://www.w3.org/2000/svg" xmlns:xlink="http://www.w3.org/1999/xlink">
<g id="graph0" class="graph" transform="scale(1 1) rotate(0) translate(4 220)">
<title>Graphical Class Hierarchy</title>
<polygon fill="white" stroke="none" points="-4,4 -4,-220 384,-220 384,4 -4,4"/>
<!-- Node1 -->
<g id="node1" class="node"><title>Node1</title>
<polygon fill="white" stroke="#bfbfbf" points="0.5,-93.5 0.5,-112.5 35.5,-112.5 35.5,-93.5 0.5,-93.5"/>
<text text-anchor="middle" x="18" y="-100.5" font-family="Helvetica,sans-Serif" font-size="10.00">type</text>
</g>
<!-- Node2 -->
<g id="node2" class="node"><title>Node2</title>
<g id="a_node2"><a xlink:href="a00021.html" target="_top" xlink:title="hpp::core::Containers\l\&lt; boost::mpl::vector\l\&lt; boost::any \&gt; \&gt;">
<polygon fill="white" stroke="black" points="89,-175.5 89,-216.5 199,-216.5 199,-175.5 89,-175.5"/>
<text text-anchor="start" x="97" y="-204.5" font-family="Helvetica,sans-Serif" font-size="10.00">hpp::core::Containers</text>
<text text-anchor="start" x="97" y="-193.5" font-family="Helvetica,sans-Serif" font-size="10.00">&lt; boost::mpl::vector</text>
<text text-anchor="middle" x="144" y="-182.5" font-family="Helvetica,sans-Serif" font-size="10.00">&lt; boost::any &gt; &gt;</text>
</a>
</g>
</g>
<!-- Node1&#45;&gt;Node2 -->
<g id="edge1" class="edge"><title>Node1&#45;&gt;Node2</title>
<path fill="none" stroke="#8b1a1a" d="M30.9205,-121.429C40.6103,-135.215 55.3652,-153.728 72,-166 77.1689,-169.813 82.8955,-173.251 88.789,-176.32"/>
<polygon fill="#8b1a1a" stroke="#8b1a1a" points="33.5655,-119.093 25.0604,-112.775 27.7693,-123.018 33.5655,-119.093"/>
</g>
<!-- Node4 -->
<g id="node4" class="node"><title>Node4</title>
<g id="a_node4"><a xlink:href="a00021.html" target="_top" xlink:title="hpp::core::Containers\l\&lt; boost::mpl::vector\l\&lt; PathPlannerBuilder_t,\l PathOptimizerBuilder_t,\l PathValidationBuilder_t,\l PathProjectorBuilder_t,\l ConfigurationShooterBuilder\l_t, NumericalConstraintPtr_t,\l SteeringMethodBuilder_t \&gt; \&gt;">
<polygon fill="white" stroke="black" points="72,-49.5 72,-156.5 216,-156.5 216,-49.5 72,-49.5"/>
<text text-anchor="start" x="80" y="-144.5" font-family="Helvetica,sans-Serif" font-size="10.00">hpp::core::Containers</text>
<text text-anchor="start" x="80" y="-133.5" font-family="Helvetica,sans-Serif" font-size="10.00">&lt; boost::mpl::vector</text>
<text text-anchor="start" x="80" y="-122.5" font-family="Helvetica,sans-Serif" font-size="10.00">&lt; PathPlannerBuilder_t,</text>
<text text-anchor="start" x="80" y="-111.5" font-family="Helvetica,sans-Serif" font-size="10.00"> PathOptimizerBuilder_t,</text>
<text text-anchor="start" x="80" y="-100.5" font-family="Helvetica,sans-Serif" font-size="10.00"> PathValidationBuilder_t,</text>
<text text-anchor="start" x="80" y="-89.5" font-family="Helvetica,sans-Serif" font-size="10.00"> PathProjectorBuilder_t,</text>
<text text-anchor="start" x="80" y="-78.5" font-family="Helvetica,sans-Serif" font-size="10.00"> ConfigurationShooterBuilder</text>
<text text-anchor="start" x="80" y="-67.5" font-family="Helvetica,sans-Serif" font-size="10.00">_t, NumericalConstraintPtr_t,</text>
<text text-anchor="middle" x="144" y="-56.5" font-family="Helvetica,sans-Serif" font-size="10.00"> SteeringMethodBuilder_t &gt; &gt;</text>
</a>
</g>
</g>
<!-- Node1&#45;&gt;Node4 -->
<g id="edge3" class="edge"><title>Node1&#45;&gt;Node4</title>
<path fill="none" stroke="#8b1a1a" d="M45.9777,-103C53.817,-103 62.7678,-103 71.9904,-103"/>
<polygon fill="#8b1a1a" stroke="#8b1a1a" points="45.7232,-99.5001 35.7232,-103 45.7232,-106.5 45.7232,-99.5001"/>
</g>
<!-- Node6 -->
<g id="node6" class="node"><title>Node6</title>
<g id="a_node6"><a xlink:href="a00021.html" target="_top" xlink:title="hpp::core::Containers\l\&lt; Types, Key \&gt;">
<polygon fill="white" stroke="black" points="89,-0 89,-30 199,-30 199,-0 89,-0"/>
<text text-anchor="start" x="97" y="-18" font-family="Helvetica,sans-Serif" font-size="10.00">hpp::core::Containers</text>
<text text-anchor="middle" x="144" y="-7" font-family="Helvetica,sans-Serif" font-size="10.00">&lt; Types, Key &gt;</text>
</a>
</g>
</g>
<!-- Node1&#45;&gt;Node6 -->
<g id="edge5" class="edge"><title>Node1&#45;&gt;Node6</title>
<path fill="none" stroke="#8b1a1a" d="M30.4367,-84.6791C40.0077,-70.6947 54.8339,-51.8698 72,-40 77.4819,-36.2095 83.5975,-32.937 89.8766,-30.1267"/>
<polygon fill="#8b1a1a" stroke="#8b1a1a" points="27.5035,-82.7695 24.9344,-93.0481 33.3526,-86.6151 27.5035,-82.7695"/>
</g>
<!-- Node3 -->
<g id="node3" class="node"><title>Node3</title>
<g id="a_node3"><a xlink:href="a00067.html" target="_top" xlink:title="Defines a path planning problem for one robot. ">
<polygon fill="white" stroke="black" points="266.5,-186.5 266.5,-205.5 365.5,-205.5 365.5,-186.5 266.5,-186.5"/>
<text text-anchor="middle" x="316" y="-193.5" font-family="Helvetica,sans-Serif" font-size="10.00">hpp::core::Problem</text>
</a>
</g>
</g>
<!-- Node2&#45;&gt;Node3 -->
<g id="edge2" class="edge"><title>Node2&#45;&gt;Node3</title>
<path fill="none" stroke="midnightblue" d="M209.304,-196C228.247,-196 248.649,-196 266.429,-196"/>
<polygon fill="midnightblue" stroke="midnightblue" points="209.257,-192.5 199.256,-196 209.256,-199.5 209.257,-192.5"/>
</g>
<!-- Node5 -->
<g id="node5" class="node"><title>Node5</title>
<g id="a_node5"><a xlink:href="a00068.html" target="_top" xlink:title="Set and solve a path planning problem. ">
<polygon fill="white" stroke="black" points="252.5,-93.5 252.5,-112.5 379.5,-112.5 379.5,-93.5 252.5,-93.5"/>
<text text-anchor="middle" x="316" y="-100.5" font-family="Helvetica,sans-Serif" font-size="10.00">hpp::core::ProblemSolver</text>
</a>
</g>
</g>
<!-- Node4&#45;&gt;Node5 -->
<g id="edge4" class="edge"><title>Node4&#45;&gt;Node5</title>
<path fill="none" stroke="midnightblue" d="M226.312,-103C235.041,-103 243.823,-103 252.287,-103"/>
<polygon fill="midnightblue" stroke="midnightblue" points="226.11,-99.5001 216.11,-103 226.11,-106.5 226.11,-99.5001"/>
</g>
</g>
</svg>
