<?xml version="1.0" encoding="UTF-8" standalone="no"?>
<!DOCTYPE svg PUBLIC "-//W3C//DTD SVG 1.1//EN"
 "http://www.w3.org/Graphics/SVG/1.1/DTD/svg11.dtd">
<!-- Generated by graphviz version 2.36.0 (20140111.2315)
 -->
<!-- Title: time&#45;dependant&#45;path.hh Pages: 1 -->
<svg width="615pt" height="356pt"
 viewBox="0.00 0.00 615.42 356.00" xmlns="http://www.w3.org/2000/svg" xmlns:xlink="http://www.w3.org/1999/xlink">
<g id="graph0" class="graph" transform="scale(1 1) rotate(0) translate(4 352)">
<title>time&#45;dependant&#45;path.hh</title>
<polygon fill="white" stroke="none" points="-4,4 -4,-352 611.423,-352 611.423,4 -4,4"/>
<!-- Node1 -->
<g id="node1" class="node"><title>Node1</title>
<polygon fill="#bfbfbf" stroke="black" points="378.923,-328.5 378.923,-347.5 497.923,-347.5 497.923,-328.5 378.923,-328.5"/>
<text text-anchor="middle" x="438.423" y="-335.5" font-family="Helvetica,sans-Serif" font-size="10.00">time&#45;dependant&#45;path.hh</text>
</g>
<!-- Node2 -->
<g id="node2" class="node"><title>Node2</title>
<g id="a_node2"><a doxygen="https://jmirabel.github.io/hpp-doc/api/hpp-core/doxygen-html/hpp-core.doxytag:https://jmirabel.github.io/hpp-doc/api/hpp-core/doxygen-html/" xlink:href="https://jmirabel.github.io/hpp-doc/api/hpp-core/doxygen-html/a00135.html" target="_top" xlink:title="hpp/core/path.hh">
<polygon fill="white" stroke="black" points="145.923,-266.5 145.923,-285.5 234.923,-285.5 234.923,-266.5 145.923,-266.5"/>
<text text-anchor="middle" x="190.423" y="-273.5" font-family="Helvetica,sans-Serif" font-size="10.00">hpp/core/path.hh</text>
</a>
</g>
</g>
<!-- Node1&#45;&gt;Node2 -->
<g id="edge1" class="edge"><title>Node1&#45;&gt;Node2</title>
<path fill="none" stroke="midnightblue" d="M403.154,-328.467C359.083,-317.805 283.609,-299.545 235.418,-287.886"/>
<polygon fill="midnightblue" stroke="midnightblue" points="236.113,-284.453 225.57,-285.503 234.466,-291.257 236.113,-284.453"/>
</g>
<!-- Node6 -->
<g id="node6" class="node"><title>Node6</title>
<polygon fill="white" stroke="#bfbfbf" points="503.423,-1 503.423,-31 607.423,-31 607.423,-1 503.423,-1"/>
<text text-anchor="start" x="511.423" y="-19" font-family="Helvetica,sans-Serif" font-size="10.00">hpp/wholebody&#45;step</text>
<text text-anchor="middle" x="555.423" y="-8" font-family="Helvetica,sans-Serif" font-size="10.00">/config.hh</text>
</g>
<!-- Node1&#45;&gt;Node6 -->
<g id="edge13" class="edge"><title>Node1&#45;&gt;Node6</title>
<path fill="none" stroke="midnightblue" d="M454.47,-328.469C485.439,-310.708 550.423,-266.58 550.423,-209 550.423,-209 550.423,-209 550.423,-139 550.423,-105.175 552.365,-66.12 553.829,-41.4949"/>
<polygon fill="midnightblue" stroke="midnightblue" points="557.337,-41.4631 554.459,-31.2668 550.35,-41.0326 557.337,-41.4631"/>
</g>
<!-- Node11 -->
<g id="node11" class="node"><title>Node11</title>
<g id="a_node11"><a xlink:href="a00023.html" target="_top" xlink:title="hpp/wholebody&#45;step\l/time&#45;dependant.hh">
<polygon fill="white" stroke="black" points="386.423,-261 386.423,-291 490.423,-291 490.423,-261 386.423,-261"/>
<text text-anchor="start" x="394.423" y="-279" font-family="Helvetica,sans-Serif" font-size="10.00">hpp/wholebody&#45;step</text>
<text text-anchor="middle" x="438.423" y="-268" font-family="Helvetica,sans-Serif" font-size="10.00">/time&#45;dependant.hh</text>
</a>
</g>
</g>
<!-- Node1&#45;&gt;Node11 -->
<g id="edge14" class="edge"><title>Node1&#45;&gt;Node11</title>
<path fill="none" stroke="midnightblue" d="M438.423,-328.403C438.423,-321.341 438.423,-310.975 438.423,-301.399"/>
<polygon fill="midnightblue" stroke="midnightblue" points="441.923,-301.141 438.423,-291.141 434.923,-301.141 441.923,-301.141"/>
</g>
<!-- Node3 -->
<g id="node3" class="node"><title>Node3</title>
<g id="a_node3"><a xlink:href="a00001.html" target="_top" xlink:title="hpp/core/fwd.hh">
<polygon fill="white" stroke="black" points="372.423,-68.5 372.423,-87.5 458.423,-87.5 458.423,-68.5 372.423,-68.5"/>
<text text-anchor="middle" x="415.423" y="-75.5" font-family="Helvetica,sans-Serif" font-size="10.00">hpp/core/fwd.hh</text>
</a>
</g>
</g>
<!-- Node2&#45;&gt;Node3 -->
<g id="edge2" class="edge"><title>Node2&#45;&gt;Node3</title>
<path fill="none" stroke="midnightblue" d="M201.666,-266.173C213.777,-256.43 233.337,-240 248.423,-224 287.09,-182.988 282.888,-159.803 326.423,-124 343.122,-110.267 364.706,-99.2239 382.437,-91.5147"/>
<polygon fill="midnightblue" stroke="midnightblue" points="383.963,-94.67 391.835,-87.5788 381.259,-88.2134 383.963,-94.67"/>
</g>
<!-- Node4 -->
<g id="node4" class="node"><title>Node4</title>
<g id="a_node4"><a doxygen="https://jmirabel.github.io/hpp-doc/api/hpp-core/doxygen-html/hpp-core.doxytag:https://jmirabel.github.io/hpp-doc/api/hpp-core/doxygen-html/" xlink:href="https://jmirabel.github.io/hpp-doc/api/hpp-core/doxygen-html/a00001.html" target="_top" xlink:title="hpp/core/fwd.hh">
<polygon fill="white" stroke="black" points="133.423,-6.5 133.423,-25.5 219.423,-25.5 219.423,-6.5 133.423,-6.5"/>
<text text-anchor="middle" x="176.423" y="-13.5" font-family="Helvetica,sans-Serif" font-size="10.00">hpp/core/fwd.hh</text>
</a>
</g>
</g>
<!-- Node2&#45;&gt;Node4 -->
<g id="edge7" class="edge"><title>Node2&#45;&gt;Node4</title>
<path fill="none" stroke="midnightblue" d="M145.667,-268.313C98.6488,-260.265 29.3348,-245.144 13.4226,-224 -42.3334,-149.91 92.4185,-63.3611 150.93,-30.5414"/>
<polygon fill="midnightblue" stroke="midnightblue" points="152.879,-33.4637 159.947,-25.5712 149.5,-27.3333 152.879,-33.4637"/>
</g>
<!-- Node8 -->
<g id="node8" class="node"><title>Node8</title>
<g id="a_node8"><a doxygen="https://jmirabel.github.io/hpp-doc/api/hpp-core/doxygen-html/hpp-core.doxytag:https://jmirabel.github.io/hpp-doc/api/hpp-core/doxygen-html/" xlink:href="https://jmirabel.github.io/hpp-doc/api/hpp-core/doxygen-html/a00099.html" target="_top" xlink:title="hpp/core/constraint\l&#45;set.hh">
<polygon fill="white" stroke="black" points="22.4226,-193 22.4226,-223 122.423,-223 122.423,-193 22.4226,-193"/>
<text text-anchor="start" x="30.4226" y="-211" font-family="Helvetica,sans-Serif" font-size="10.00">hpp/core/constraint</text>
<text text-anchor="middle" x="72.4226" y="-200" font-family="Helvetica,sans-Serif" font-size="10.00">&#45;set.hh</text>
</a>
</g>
</g>
<!-- Node2&#45;&gt;Node8 -->
<g id="edge8" class="edge"><title>Node2&#45;&gt;Node8</title>
<path fill="none" stroke="midnightblue" d="M174.996,-266.372C157.756,-256.729 129.299,-240.812 106.727,-228.187"/>
<polygon fill="midnightblue" stroke="midnightblue" points="108.214,-225.008 97.7774,-223.181 104.796,-231.118 108.214,-225.008"/>
</g>
<!-- Node10 -->
<g id="node10" class="node"><title>Node10</title>
<g id="a_node10"><a doxygen="https://jmirabel.github.io/hpp-doc/api/hpp-core/doxygen-html/hpp-core.doxytag:https://jmirabel.github.io/hpp-doc/api/hpp-core/doxygen-html/" xlink:href="https://jmirabel.github.io/hpp-doc/api/hpp-core/doxygen-html/a00143.html" target="_top" xlink:title="hpp/core/projection\l&#45;error.hh">
<polygon fill="white" stroke="black" points="140.923,-193 140.923,-223 239.923,-223 239.923,-193 140.923,-193"/>
<text text-anchor="start" x="148.923" y="-211" font-family="Helvetica,sans-Serif" font-size="10.00">hpp/core/projection</text>
<text text-anchor="middle" x="190.423" y="-200" font-family="Helvetica,sans-Serif" font-size="10.00">&#45;error.hh</text>
</a>
</g>
</g>
<!-- Node2&#45;&gt;Node10 -->
<g id="edge12" class="edge"><title>Node2&#45;&gt;Node10</title>
<path fill="none" stroke="midnightblue" d="M190.423,-266.372C190.423,-257.971 190.423,-244.811 190.423,-233.213"/>
<polygon fill="midnightblue" stroke="midnightblue" points="193.923,-233.181 190.423,-223.181 186.923,-233.181 193.923,-233.181"/>
</g>
<!-- Node3&#45;&gt;Node4 -->
<g id="edge3" class="edge"><title>Node3&#45;&gt;Node4</title>
<path fill="none" stroke="midnightblue" d="M377.69,-68.4417C339.833,-59.7326 279.913,-45.6147 228.423,-32 224.064,-30.8475 219.512,-29.6 214.993,-28.3337"/>
<polygon fill="midnightblue" stroke="midnightblue" points="215.815,-24.9289 205.239,-25.5609 213.901,-31.6621 215.815,-24.9289"/>
</g>
<!-- Node5 -->
<g id="node5" class="node"><title>Node5</title>
<polygon fill="white" stroke="#bfbfbf" points="237.423,-6.5 237.423,-25.5 341.423,-25.5 341.423,-6.5 237.423,-6.5"/>
<text text-anchor="middle" x="289.423" y="-13.5" font-family="Helvetica,sans-Serif" font-size="10.00">hpp/walkgen/fwd.hh</text>
</g>
<!-- Node3&#45;&gt;Node5 -->
<g id="edge4" class="edge"><title>Node3&#45;&gt;Node5</title>
<path fill="none" stroke="midnightblue" d="M397.37,-68.4035C376.224,-58.3341 340.982,-41.5522 316.544,-29.9151"/>
<polygon fill="midnightblue" stroke="midnightblue" points="317.975,-26.72 307.442,-25.5806 314.966,-33.04 317.975,-26.72"/>
</g>
<!-- Node3&#45;&gt;Node6 -->
<g id="edge5" class="edge"><title>Node3&#45;&gt;Node6</title>
<path fill="none" stroke="midnightblue" d="M435.481,-68.4035C455.75,-59.7168 487.675,-46.0346 513.494,-34.9694"/>
<polygon fill="midnightblue" stroke="midnightblue" points="514.884,-38.1816 522.697,-31.0253 512.127,-31.7476 514.884,-38.1816"/>
</g>
<!-- Node7 -->
<g id="node7" class="node"><title>Node7</title>
<polygon fill="white" stroke="#bfbfbf" points="359.923,-1 359.923,-31 484.923,-31 484.923,-1 359.923,-1"/>
<text text-anchor="start" x="367.923" y="-19" font-family="Helvetica,sans-Serif" font-size="10.00">hpp/constraints/symbolic</text>
<text text-anchor="middle" x="422.423" y="-8" font-family="Helvetica,sans-Serif" font-size="10.00">&#45;function.hh</text>
</g>
<!-- Node3&#45;&gt;Node7 -->
<g id="edge6" class="edge"><title>Node3&#45;&gt;Node7</title>
<path fill="none" stroke="midnightblue" d="M416.426,-68.4035C417.258,-61.2646 418.485,-50.7517 419.612,-41.0903"/>
<polygon fill="midnightblue" stroke="midnightblue" points="423.09,-41.4791 420.773,-31.1408 416.138,-40.6678 423.09,-41.4791"/>
</g>
<!-- Node9 -->
<g id="node9" class="node"><title>Node9</title>
<g id="a_node9"><a doxygen="https://jmirabel.github.io/hpp-doc/api/hpp-core/doxygen-html/hpp-core.doxytag:https://jmirabel.github.io/hpp-doc/api/hpp-core/doxygen-html/" xlink:href="https://jmirabel.github.io/hpp-doc/api/hpp-core/doxygen-html/a00100.html" target="_top" xlink:title="hpp/core/constraint.hh">
<polygon fill="white" stroke="black" points="119.923,-130.5 119.923,-149.5 232.923,-149.5 232.923,-130.5 119.923,-130.5"/>
<text text-anchor="middle" x="176.423" y="-137.5" font-family="Helvetica,sans-Serif" font-size="10.00">hpp/core/constraint.hh</text>
</a>
</g>
</g>
<!-- Node8&#45;&gt;Node9 -->
<g id="edge9" class="edge"><title>Node8&#45;&gt;Node9</title>
<path fill="none" stroke="midnightblue" d="M94.7333,-192.841C112.319,-181.681 136.717,-166.198 154.263,-155.063"/>
<polygon fill="midnightblue" stroke="midnightblue" points="156.174,-157.995 162.742,-149.682 152.423,-152.085 156.174,-157.995"/>
</g>
<!-- Node9&#45;&gt;Node3 -->
<g id="edge10" class="edge"><title>Node9&#45;&gt;Node3</title>
<path fill="none" stroke="midnightblue" d="M210.412,-130.467C252.794,-119.827 325.313,-101.622 371.768,-89.9593"/>
<polygon fill="midnightblue" stroke="midnightblue" points="372.704,-93.333 381.551,-87.5034 371,-86.5437 372.704,-93.333"/>
</g>
<!-- Node9&#45;&gt;Node4 -->
<g id="edge11" class="edge"><title>Node9&#45;&gt;Node4</title>
<path fill="none" stroke="midnightblue" d="M176.423,-130.226C176.423,-110.53 176.423,-62.4371 176.423,-35.7004"/>
<polygon fill="midnightblue" stroke="midnightblue" points="179.923,-35.6944 176.423,-25.6944 172.923,-35.6945 179.923,-35.6944"/>
</g>
<!-- Node11&#45;&gt;Node3 -->
<g id="edge21" class="edge"><title>Node11&#45;&gt;Node3</title>
<path fill="none" stroke="midnightblue" d="M449.966,-260.832C457.111,-251.115 465.622,-237.57 469.423,-224 474.397,-206.241 472.376,-136.452 466.423,-124 460.454,-111.516 449.263,-101.031 438.882,-93.3323"/>
<polygon fill="midnightblue" stroke="midnightblue" points="440.702,-90.3362 430.484,-87.5372 436.726,-96.0976 440.702,-90.3362"/>
</g>
<!-- Node12 -->
<g id="node12" class="node"><title>Node12</title>
<g id="a_node12"><a doxygen="https://jmirabel.github.io/hpp-doc/api/hpp-core/doxygen-html/hpp-core.doxytag:https://jmirabel.github.io/hpp-doc/api/hpp-core/doxygen-html/" xlink:href="https://jmirabel.github.io/hpp-doc/api/hpp-core/doxygen-html/a00111.html" target="_top" xlink:title="hpp/core/equation.hh">
<polygon fill="white" stroke="black" points="353.923,-198.5 353.923,-217.5 460.923,-217.5 460.923,-198.5 353.923,-198.5"/>
<text text-anchor="middle" x="407.423" y="-205.5" font-family="Helvetica,sans-Serif" font-size="10.00">hpp/core/equation.hh</text>
</a>
</g>
</g>
<!-- Node11&#45;&gt;Node12 -->
<g id="edge15" class="edge"><title>Node11&#45;&gt;Node12</title>
<path fill="none" stroke="midnightblue" d="M431.696,-260.679C427.054,-250.796 420.846,-237.579 415.871,-226.986"/>
<polygon fill="midnightblue" stroke="midnightblue" points="418.989,-225.392 411.569,-217.828 412.653,-228.368 418.989,-225.392"/>
</g>
<!-- Node12&#45;&gt;Node3 -->
<g id="edge16" class="edge"><title>Node12&#45;&gt;Node3</title>
<path fill="none" stroke="midnightblue" d="M418.346,-198.206C428.857,-188.976 444.064,-173.405 450.423,-156 455.303,-142.641 455.038,-137.452 450.423,-124 446.704,-113.161 439.189,-102.922 432.074,-94.9566"/>
<polygon fill="midnightblue" stroke="midnightblue" points="434.423,-92.3498 424.978,-87.5497 429.368,-97.1922 434.423,-92.3498"/>
</g>
<!-- Node12&#45;&gt;Node4 -->
<g id="edge17" class="edge"><title>Node12&#45;&gt;Node4</title>
<path fill="none" stroke="midnightblue" d="M391.934,-198.403C375.204,-188.857 348.042,-172.594 326.423,-156 273.844,-115.643 218.181,-60.2261 191.893,-33.1759"/>
<polygon fill="midnightblue" stroke="midnightblue" points="194.178,-30.5031 184.714,-25.7398 189.142,-35.3651 194.178,-30.5031"/>
</g>
<!-- Node13 -->
<g id="node13" class="node"><title>Node13</title>
<g id="a_node13"><a doxygen="https://jmirabel.github.io/hpp-doc/api/hpp-core/doxygen-html/hpp-core.doxytag:https://jmirabel.github.io/hpp-doc/api/hpp-core/doxygen-html/" xlink:href="https://jmirabel.github.io/hpp-doc/api/hpp-core/doxygen-html/a00092.html" target="_top" xlink:title="hpp/core/comparison\l&#45;type.hh">
<polygon fill="white" stroke="black" points="334.923,-125 334.923,-155 441.923,-155 441.923,-125 334.923,-125"/>
<text text-anchor="start" x="342.923" y="-143" font-family="Helvetica,sans-Serif" font-size="10.00">hpp/core/comparison</text>
<text text-anchor="middle" x="388.423" y="-132" font-family="Helvetica,sans-Serif" font-size="10.00">&#45;type.hh</text>
</a>
</g>
</g>
<!-- Node12&#45;&gt;Node13 -->
<g id="edge18" class="edge"><title>Node12&#45;&gt;Node13</title>
<path fill="none" stroke="midnightblue" d="M404.939,-198.372C402.496,-189.886 398.654,-176.542 395.291,-164.858"/>
<polygon fill="midnightblue" stroke="midnightblue" points="398.635,-163.823 392.505,-155.181 391.908,-165.759 398.635,-163.823"/>
</g>
<!-- Node13&#45;&gt;Node3 -->
<g id="edge19" class="edge"><title>Node13&#45;&gt;Node3</title>
<path fill="none" stroke="midnightblue" d="M394.821,-124.781C398.583,-116.422 403.373,-105.777 407.387,-96.8565"/>
<polygon fill="midnightblue" stroke="midnightblue" points="410.582,-98.2861 411.494,-87.7305 404.198,-95.4135 410.582,-98.2861"/>
</g>
<!-- Node13&#45;&gt;Node4 -->
<g id="edge20" class="edge"><title>Node13&#45;&gt;Node4</title>
<path fill="none" stroke="midnightblue" d="M378.161,-124.832C366.006,-108.97 344.363,-83.4695 320.423,-68 302.759,-56.5863 251.718,-39.7417 215.431,-28.5753"/>
<polygon fill="midnightblue" stroke="midnightblue" points="216.214,-25.1549 205.628,-25.5856 214.172,-31.8505 216.214,-25.1549"/>
</g>
</g>
</svg>
