<?xml version="1.0" encoding="UTF-8" standalone="no"?>
<!DOCTYPE svg PUBLIC "-//W3C//DTD SVG 1.1//EN"
 "http://www.w3.org/Graphics/SVG/1.1/DTD/svg11.dtd">
<!-- Generated by graphviz version 2.36.0 (20140111.2315)
 -->
<!-- Title: stepper.hh Pages: 1 -->
<svg width="598pt" height="424pt"
 viewBox="0.00 0.00 598.00 424.00" xmlns="http://www.w3.org/2000/svg" xmlns:xlink="http://www.w3.org/1999/xlink">
<g id="graph0" class="graph" transform="scale(1 1) rotate(0) translate(4 420)">
<title>stepper.hh</title>
<polygon fill="white" stroke="none" points="-4,4 -4,-420 594,-420 594,4 -4,4"/>
<!-- Node1 -->
<g id="node1" class="node"><title>Node1</title>
<polygon fill="#bfbfbf" stroke="black" points="190,-396.5 190,-415.5 252,-415.5 252,-396.5 190,-396.5"/>
<text text-anchor="middle" x="221" y="-403.5" font-family="Helvetica,sans-Serif" font-size="10.00">stepper.hh</text>
</g>
<!-- Node2 -->
<g id="node2" class="node"><title>Node2</title>
<g id="a_node2"><a xlink:href="a00001.html" target="_top" xlink:title="hpp/wholebody&#45;step\l/fwd.hh">
<polygon fill="white" stroke="black" points="195,-69 195,-99 299,-99 299,-69 195,-69"/>
<text text-anchor="start" x="203" y="-87" font-family="Helvetica,sans-Serif" font-size="10.00">hpp/wholebody&#45;step</text>
<text text-anchor="middle" x="247" y="-76" font-family="Helvetica,sans-Serif" font-size="10.00">/fwd.hh</text>
</a>
</g>
</g>
<!-- Node1&#45;&gt;Node2 -->
<g id="edge1" class="edge"><title>Node1&#45;&gt;Node2</title>
<path fill="none" stroke="midnightblue" d="M212.261,-396.261C193.694,-376.717 152,-327.238 152,-277 152,-277 152,-277 152,-213 152,-167.914 190.475,-128.373 218.455,-105.579"/>
<polygon fill="midnightblue" stroke="midnightblue" points="220.698,-108.268 226.386,-99.3295 216.366,-102.769 220.698,-108.268"/>
</g>
<!-- Node7 -->
<g id="node7" class="node"><title>Node7</title>
<g id="a_node7"><a xlink:href="a00018.html" target="_top" xlink:title="hpp/wholebody&#45;step\l/small&#45;steps.hh">
<polygon fill="white" stroke="black" points="238,-329 238,-359 342,-359 342,-329 238,-329"/>
<text text-anchor="start" x="246" y="-347" font-family="Helvetica,sans-Serif" font-size="10.00">hpp/wholebody&#45;step</text>
<text text-anchor="middle" x="290" y="-336" font-family="Helvetica,sans-Serif" font-size="10.00">/small&#45;steps.hh</text>
</a>
</g>
</g>
<!-- Node1&#45;&gt;Node7 -->
<g id="edge6" class="edge"><title>Node1&#45;&gt;Node7</title>
<path fill="none" stroke="midnightblue" d="M230.886,-396.403C240.056,-388.429 254.068,-376.245 266.149,-365.74"/>
<polygon fill="midnightblue" stroke="midnightblue" points="268.489,-368.344 273.738,-359.141 263.895,-363.062 268.489,-368.344"/>
</g>
<!-- Node3 -->
<g id="node3" class="node"><title>Node3</title>
<g id="a_node3"><a doxygen="https://jmirabel.github.io/hpp-doc/api/hpp-core/doxygen-html/hpp-core.doxytag:https://jmirabel.github.io/hpp-doc/api/hpp-core/doxygen-html/" xlink:href="https://jmirabel.github.io/hpp-doc/api/hpp-core/doxygen-html/a00001.html" target="_top" xlink:title="hpp/core/fwd.hh">
<polygon fill="white" stroke="black" points="387,-6.5 387,-25.5 473,-25.5 473,-6.5 387,-6.5"/>
<text text-anchor="middle" x="430" y="-13.5" font-family="Helvetica,sans-Serif" font-size="10.00">hpp/core/fwd.hh</text>
</a>
</g>
</g>
<!-- Node2&#45;&gt;Node3 -->
<g id="edge2" class="edge"><title>Node2&#45;&gt;Node3</title>
<path fill="none" stroke="midnightblue" d="M286.258,-68.8413C319.142,-56.9816 365.564,-40.2392 396.667,-29.0216"/>
<polygon fill="midnightblue" stroke="midnightblue" points="397.972,-32.272 406.191,-25.5868 395.597,-25.6871 397.972,-32.272"/>
</g>
<!-- Node4 -->
<g id="node4" class="node"><title>Node4</title>
<polygon fill="white" stroke="#bfbfbf" points="143,-6.5 143,-25.5 247,-25.5 247,-6.5 143,-6.5"/>
<text text-anchor="middle" x="195" y="-13.5" font-family="Helvetica,sans-Serif" font-size="10.00">hpp/walkgen/fwd.hh</text>
</g>
<!-- Node2&#45;&gt;Node4 -->
<g id="edge3" class="edge"><title>Node2&#45;&gt;Node4</title>
<path fill="none" stroke="midnightblue" d="M235.717,-68.679C227.609,-58.3881 216.654,-44.4838 208.149,-33.6897"/>
<polygon fill="midnightblue" stroke="midnightblue" points="210.894,-31.5172 201.956,-25.8283 205.395,-35.8493 210.894,-31.5172"/>
</g>
<!-- Node5 -->
<g id="node5" class="node"><title>Node5</title>
<polygon fill="white" stroke="#bfbfbf" points="265,-1 265,-31 369,-31 369,-1 265,-1"/>
<text text-anchor="start" x="273" y="-19" font-family="Helvetica,sans-Serif" font-size="10.00">hpp/wholebody&#45;step</text>
<text text-anchor="middle" x="317" y="-8" font-family="Helvetica,sans-Serif" font-size="10.00">/config.hh</text>
</g>
<!-- Node2&#45;&gt;Node5 -->
<g id="edge4" class="edge"><title>Node2&#45;&gt;Node5</title>
<path fill="none" stroke="midnightblue" d="M262.189,-68.679C271.637,-59.7708 283.957,-48.1548 294.523,-38.1925"/>
<polygon fill="midnightblue" stroke="midnightblue" points="296.966,-40.6998 301.841,-31.2931 292.164,-35.6067 296.966,-40.6998"/>
</g>
<!-- Node6 -->
<g id="node6" class="node"><title>Node6</title>
<polygon fill="white" stroke="#bfbfbf" points="-0.5,-1 -0.5,-31 124.5,-31 124.5,-1 -0.5,-1"/>
<text text-anchor="start" x="7.5" y="-19" font-family="Helvetica,sans-Serif" font-size="10.00">hpp/constraints/symbolic</text>
<text text-anchor="middle" x="62" y="-8" font-family="Helvetica,sans-Serif" font-size="10.00">&#45;function.hh</text>
</g>
<!-- Node2&#45;&gt;Node6 -->
<g id="edge5" class="edge"><title>Node2&#45;&gt;Node6</title>
<path fill="none" stroke="midnightblue" d="M207.313,-68.8413C179.051,-58.7588 140.898,-45.1474 110.778,-34.4018"/>
<polygon fill="midnightblue" stroke="midnightblue" points="111.898,-31.0855 101.304,-31.0218 109.546,-37.6785 111.898,-31.0855"/>
</g>
<!-- Node7&#45;&gt;Node2 -->
<g id="edge11" class="edge"><title>Node7&#45;&gt;Node2</title>
<path fill="none" stroke="midnightblue" d="M264.167,-328.884C251.021,-320.158 236.306,-307.632 229,-292 200.406,-230.822 223.257,-148.426 237.604,-108.558"/>
<polygon fill="midnightblue" stroke="midnightblue" points="240.895,-109.748 241.118,-99.1559 234.338,-107.298 240.895,-109.748"/>
</g>
<!-- Node8 -->
<g id="node8" class="node"><title>Node8</title>
<g id="a_node8"><a doxygen="https://jmirabel.github.io/hpp-doc/api/hpp-core/doxygen-html/hpp-core.doxytag:https://jmirabel.github.io/hpp-doc/api/hpp-core/doxygen-html/" xlink:href="https://jmirabel.github.io/hpp-doc/api/hpp-core/doxygen-html/a00129.html" target="_top" xlink:title="hpp/core/path&#45;optimizer.hh">
<polygon fill="white" stroke="black" points="458,-142.5 458,-161.5 590,-161.5 590,-142.5 458,-142.5"/>
<text text-anchor="middle" x="524" y="-149.5" font-family="Helvetica,sans-Serif" font-size="10.00">hpp/core/path&#45;optimizer.hh</text>
</a>
</g>
</g>
<!-- Node7&#45;&gt;Node8 -->
<g id="edge7" class="edge"><title>Node7&#45;&gt;Node8</title>
<path fill="none" stroke="midnightblue" d="M307.588,-328.719C350.635,-293.767 460.99,-204.162 505.236,-168.236"/>
<polygon fill="midnightblue" stroke="midnightblue" points="507.607,-170.819 513.164,-161.799 503.194,-165.385 507.607,-170.819"/>
</g>
<!-- Node9 -->
<g id="node9" class="node"><title>Node9</title>
<polygon fill="white" stroke="#bfbfbf" points="420,-266.5 420,-285.5 546,-285.5 546,-266.5 420,-266.5"/>
<text text-anchor="middle" x="483" y="-273.5" font-family="Helvetica,sans-Serif" font-size="10.00">hpp/walkgen/foot&#45;print.hh</text>
</g>
<!-- Node7&#45;&gt;Node9 -->
<g id="edge10" class="edge"><title>Node7&#45;&gt;Node9</title>
<path fill="none" stroke="midnightblue" d="M331.403,-328.841C366.234,-316.93 415.467,-300.094 448.271,-288.876"/>
<polygon fill="midnightblue" stroke="midnightblue" points="449.561,-292.134 457.89,-285.587 447.295,-285.511 449.561,-292.134"/>
</g>
<!-- Node10 -->
<g id="node10" class="node"><title>Node10</title>
<g id="a_node10"><a xlink:href="a00023.html" target="_top" xlink:title="hpp/wholebody&#45;step\l/time&#45;dependant.hh">
<polygon fill="white" stroke="black" points="238,-261 238,-291 342,-291 342,-261 238,-261"/>
<text text-anchor="start" x="246" y="-279" font-family="Helvetica,sans-Serif" font-size="10.00">hpp/wholebody&#45;step</text>
<text text-anchor="middle" x="290" y="-268" font-family="Helvetica,sans-Serif" font-size="10.00">/time&#45;dependant.hh</text>
</a>
</g>
</g>
<!-- Node7&#45;&gt;Node10 -->
<g id="edge12" class="edge"><title>Node7&#45;&gt;Node10</title>
<path fill="none" stroke="midnightblue" d="M290,-328.679C290,-320.722 290,-310.605 290,-301.436"/>
<polygon fill="midnightblue" stroke="midnightblue" points="293.5,-301.293 290,-291.293 286.5,-301.293 293.5,-301.293"/>
</g>
<!-- Node8&#45;&gt;Node2 -->
<g id="edge8" class="edge"><title>Node8&#45;&gt;Node2</title>
<path fill="none" stroke="midnightblue" d="M488.071,-142.439C442.801,-131.653 364.269,-112.941 309.172,-99.8135"/>
<polygon fill="midnightblue" stroke="midnightblue" points="309.709,-96.3435 299.17,-97.4304 308.086,-103.153 309.709,-96.3435"/>
</g>
<!-- Node8&#45;&gt;Node3 -->
<g id="edge9" class="edge"><title>Node8&#45;&gt;Node3</title>
<path fill="none" stroke="midnightblue" d="M517.832,-142.208C502.427,-120.246 462.053,-62.6922 441.858,-33.9046"/>
<polygon fill="midnightblue" stroke="midnightblue" points="444.676,-31.8269 436.068,-25.6503 438.946,-35.8469 444.676,-31.8269"/>
</g>
<!-- Node10&#45;&gt;Node2 -->
<g id="edge19" class="edge"><title>Node10&#45;&gt;Node2</title>
<path fill="none" stroke="midnightblue" d="M273.619,-260.713C264.169,-251.347 253.164,-238.233 248,-224 234.133,-185.78 238.085,-137.664 242.408,-109.23"/>
<polygon fill="midnightblue" stroke="midnightblue" points="245.862,-109.797 244.047,-99.3583 238.956,-108.65 245.862,-109.797"/>
</g>
<!-- Node11 -->
<g id="node11" class="node"><title>Node11</title>
<g id="a_node11"><a doxygen="https://jmirabel.github.io/hpp-doc/api/hpp-core/doxygen-html/hpp-core.doxytag:https://jmirabel.github.io/hpp-doc/api/hpp-core/doxygen-html/" xlink:href="https://jmirabel.github.io/hpp-doc/api/hpp-core/doxygen-html/a00111.html" target="_top" xlink:title="hpp/core/equation.hh">
<polygon fill="white" stroke="black" points="256.5,-204.5 256.5,-223.5 363.5,-223.5 363.5,-204.5 256.5,-204.5"/>
<text text-anchor="middle" x="310" y="-211.5" font-family="Helvetica,sans-Serif" font-size="10.00">hpp/core/equation.hh</text>
</a>
</g>
</g>
<!-- Node10&#45;&gt;Node11 -->
<g id="edge13" class="edge"><title>Node10&#45;&gt;Node11</title>
<path fill="none" stroke="midnightblue" d="M294.74,-260.781C297.466,-252.601 300.922,-242.234 303.855,-233.434"/>
<polygon fill="midnightblue" stroke="midnightblue" points="307.248,-234.324 307.09,-223.731 300.607,-232.111 307.248,-234.324"/>
</g>
<!-- Node11&#45;&gt;Node2 -->
<g id="edge14" class="edge"><title>Node11&#45;&gt;Node2</title>
<path fill="none" stroke="midnightblue" d="M305.268,-204.441C300.331,-195.437 292.427,-180.823 286,-168 276.075,-148.198 265.419,-125.405 257.758,-108.721"/>
<polygon fill="midnightblue" stroke="midnightblue" points="260.748,-106.844 253.408,-99.2034 254.382,-109.753 260.748,-106.844"/>
</g>
<!-- Node11&#45;&gt;Node3 -->
<g id="edge15" class="edge"><title>Node11&#45;&gt;Node3</title>
<path fill="none" stroke="midnightblue" d="M351.354,-204.472C372.196,-197.997 395.962,-186.861 410,-168 439.4,-128.498 436.611,-66.5695 432.906,-35.7403"/>
<polygon fill="midnightblue" stroke="midnightblue" points="436.336,-34.9891 431.506,-25.559 429.401,-35.9426 436.336,-34.9891"/>
</g>
<!-- Node12 -->
<g id="node12" class="node"><title>Node12</title>
<g id="a_node12"><a doxygen="https://jmirabel.github.io/hpp-doc/api/hpp-core/doxygen-html/hpp-core.doxytag:https://jmirabel.github.io/hpp-doc/api/hpp-core/doxygen-html/" xlink:href="https://jmirabel.github.io/hpp-doc/api/hpp-core/doxygen-html/a00092.html" target="_top" xlink:title="hpp/core/comparison\l&#45;type.hh">
<polygon fill="white" stroke="black" points="294.5,-137 294.5,-167 401.5,-167 401.5,-137 294.5,-137"/>
<text text-anchor="start" x="302.5" y="-155" font-family="Helvetica,sans-Serif" font-size="10.00">hpp/core/comparison</text>
<text text-anchor="middle" x="348" y="-144" font-family="Helvetica,sans-Serif" font-size="10.00">&#45;type.hh</text>
</a>
</g>
</g>
<!-- Node11&#45;&gt;Node12 -->
<g id="edge16" class="edge"><title>Node11&#45;&gt;Node12</title>
<path fill="none" stroke="midnightblue" d="M315.444,-204.403C320.158,-196.961 327.194,-185.851 333.521,-175.862"/>
<polygon fill="midnightblue" stroke="midnightblue" points="336.65,-177.462 339.044,-167.141 330.737,-173.716 336.65,-177.462"/>
</g>
<!-- Node12&#45;&gt;Node2 -->
<g id="edge17" class="edge"><title>Node12&#45;&gt;Node2</title>
<path fill="none" stroke="midnightblue" d="M326.085,-136.679C311.693,-127.274 292.682,-114.852 276.907,-104.543"/>
<polygon fill="midnightblue" stroke="midnightblue" points="278.812,-101.607 268.526,-99.0663 274.982,-107.467 278.812,-101.607"/>
</g>
<!-- Node12&#45;&gt;Node3 -->
<g id="edge18" class="edge"><title>Node12&#45;&gt;Node3</title>
<path fill="none" stroke="midnightblue" d="M356.775,-136.66C371.936,-111.885 402.976,-61.1614 419.348,-34.4073"/>
<polygon fill="midnightblue" stroke="midnightblue" points="422.425,-36.0841 424.659,-25.7275 416.454,-32.4303 422.425,-36.0841"/>
</g>
</g>
</svg>
