<?xml version="1.0" encoding="UTF-8" standalone="no"?>
<!DOCTYPE svg PUBLIC "-//W3C//DTD SVG 1.1//EN"
 "http://www.w3.org/Graphics/SVG/1.1/DTD/svg11.dtd">
<!-- Generated by graphviz version 2.36.0 (20140111.2315)
 -->
<!-- Title: small&#45;steps.hh Pages: 1 -->
<svg width="599pt" height="344pt"
 viewBox="0.00 0.00 599.00 344.00" xmlns="http://www.w3.org/2000/svg" xmlns:xlink="http://www.w3.org/1999/xlink">
<g id="graph0" class="graph" transform="scale(1 1) rotate(0) translate(4 340)">
<title>small&#45;steps.hh</title>
<polygon fill="white" stroke="none" points="-4,4 -4,-340 595,-340 595,4 -4,4"/>
<!-- Node1 -->
<g id="node1" class="node"><title>Node1</title>
<polygon fill="#bfbfbf" stroke="black" points="331,-316.5 331,-335.5 411,-335.5 411,-316.5 331,-316.5"/>
<text text-anchor="middle" x="371" y="-323.5" font-family="Helvetica,sans-Serif" font-size="10.00">small&#45;steps.hh</text>
</g>
<!-- Node2 -->
<g id="node2" class="node"><title>Node2</title>
<g id="a_node2"><a doxygen="https://jmirabel.github.io/hpp-doc/api/hpp-core/doxygen-html/hpp-core.doxytag:https://jmirabel.github.io/hpp-doc/api/hpp-core/doxygen-html/" xlink:href="https://jmirabel.github.io/hpp-doc/api/hpp-core/doxygen-html/a00129.html" target="_top" xlink:title="hpp/core/path&#45;optimizer.hh">
<polygon fill="white" stroke="black" points="459,-130.5 459,-149.5 591,-149.5 591,-130.5 459,-130.5"/>
<text text-anchor="middle" x="525" y="-137.5" font-family="Helvetica,sans-Serif" font-size="10.00">hpp/core/path&#45;optimizer.hh</text>
</a>
</g>
</g>
<!-- Node1&#45;&gt;Node2 -->
<g id="edge1" class="edge"><title>Node1&#45;&gt;Node2</title>
<path fill="none" stroke="midnightblue" d="M377.497,-316.324C388.335,-301.928 410.902,-272.284 431,-248 458.159,-215.186 491.331,-178.083 510.126,-157.322"/>
<polygon fill="midnightblue" stroke="midnightblue" points="512.892,-159.482 517.022,-149.725 507.709,-154.777 512.892,-159.482"/>
</g>
<!-- Node3 -->
<g id="node3" class="node"><title>Node3</title>
<g id="a_node3"><a xlink:href="a00001.html" target="_top" xlink:title="hpp/core/fwd.hh">
<polygon fill="white" stroke="black" points="224,-68.5 224,-87.5 310,-87.5 310,-68.5 224,-68.5"/>
<text text-anchor="middle" x="267" y="-75.5" font-family="Helvetica,sans-Serif" font-size="10.00">hpp/core/fwd.hh</text>
</a>
</g>
</g>
<!-- Node1&#45;&gt;Node3 -->
<g id="edge9" class="edge"><title>Node1&#45;&gt;Node3</title>
<path fill="none" stroke="midnightblue" d="M330.851,-317.054C309.25,-310.678 284.029,-299.451 269,-280 226.387,-224.848 242.529,-192.906 253,-124 254.368,-115.001 257.19,-105.325 259.945,-97.2601"/>
<polygon fill="midnightblue" stroke="midnightblue" points="263.265,-98.3722 263.4,-87.7782 256.688,-95.9759 263.265,-98.3722"/>
</g>
<!-- Node8 -->
<g id="node8" class="node"><title>Node8</title>
<polygon fill="white" stroke="#bfbfbf" points="440,-254.5 440,-273.5 566,-273.5 566,-254.5 440,-254.5"/>
<text text-anchor="middle" x="503" y="-261.5" font-family="Helvetica,sans-Serif" font-size="10.00">hpp/walkgen/foot&#45;print.hh</text>
</g>
<!-- Node1&#45;&gt;Node8 -->
<g id="edge8" class="edge"><title>Node1&#45;&gt;Node8</title>
<path fill="none" stroke="midnightblue" d="M389.912,-316.403C412.163,-306.29 449.312,-289.404 474.926,-277.761"/>
<polygon fill="midnightblue" stroke="midnightblue" points="476.467,-280.905 484.123,-273.581 473.571,-274.532 476.467,-280.905"/>
</g>
<!-- Node9 -->
<g id="node9" class="node"><title>Node9</title>
<g id="a_node9"><a xlink:href="a00023.html" target="_top" xlink:title="hpp/wholebody&#45;step\l/time&#45;dependant.hh">
<polygon fill="white" stroke="black" points="278,-249 278,-279 382,-279 382,-249 278,-249"/>
<text text-anchor="start" x="286" y="-267" font-family="Helvetica,sans-Serif" font-size="10.00">hpp/wholebody&#45;step</text>
<text text-anchor="middle" x="330" y="-256" font-family="Helvetica,sans-Serif" font-size="10.00">/time&#45;dependant.hh</text>
</a>
</g>
</g>
<!-- Node1&#45;&gt;Node9 -->
<g id="edge10" class="edge"><title>Node1&#45;&gt;Node9</title>
<path fill="none" stroke="midnightblue" d="M365.126,-316.403C359.988,-308.885 352.293,-297.624 345.414,-287.556"/>
<polygon fill="midnightblue" stroke="midnightblue" points="348.195,-285.423 339.663,-279.141 342.415,-289.372 348.195,-285.423"/>
</g>
<!-- Node2&#45;&gt;Node3 -->
<g id="edge2" class="edge"><title>Node2&#45;&gt;Node3</title>
<path fill="none" stroke="midnightblue" d="M488.309,-130.467C442.365,-119.783 363.616,-101.469 313.496,-89.8129"/>
<polygon fill="midnightblue" stroke="midnightblue" points="314.097,-86.3596 303.565,-87.5034 312.512,-93.1776 314.097,-86.3596"/>
</g>
<!-- Node4 -->
<g id="node4" class="node"><title>Node4</title>
<g id="a_node4"><a doxygen="https://jmirabel.github.io/hpp-doc/api/hpp-core/doxygen-html/hpp-core.doxytag:https://jmirabel.github.io/hpp-doc/api/hpp-core/doxygen-html/" xlink:href="https://jmirabel.github.io/hpp-doc/api/hpp-core/doxygen-html/a00001.html" target="_top" xlink:title="hpp/core/fwd.hh">
<polygon fill="white" stroke="black" points="388,-6.5 388,-25.5 474,-25.5 474,-6.5 388,-6.5"/>
<text text-anchor="middle" x="431" y="-13.5" font-family="Helvetica,sans-Serif" font-size="10.00">hpp/core/fwd.hh</text>
</a>
</g>
</g>
<!-- Node2&#45;&gt;Node4 -->
<g id="edge7" class="edge"><title>Node2&#45;&gt;Node4</title>
<path fill="none" stroke="midnightblue" d="M518.24,-130.226C502.725,-110.09 464.344,-60.2759 444.054,-33.9425"/>
<polygon fill="midnightblue" stroke="midnightblue" points="446.575,-31.4797 437.699,-25.6944 441.03,-35.7521 446.575,-31.4797"/>
</g>
<!-- Node3&#45;&gt;Node4 -->
<g id="edge3" class="edge"><title>Node3&#45;&gt;Node4</title>
<path fill="none" stroke="midnightblue" d="M290.497,-68.4035C318.629,-58.1113 365.929,-40.8064 397.789,-29.1504"/>
<polygon fill="midnightblue" stroke="midnightblue" points="399.358,-32.3034 407.546,-25.5806 396.953,-25.7295 399.358,-32.3034"/>
</g>
<!-- Node5 -->
<g id="node5" class="node"><title>Node5</title>
<polygon fill="white" stroke="#bfbfbf" points="0,-6.5 0,-25.5 104,-25.5 104,-6.5 0,-6.5"/>
<text text-anchor="middle" x="52" y="-13.5" font-family="Helvetica,sans-Serif" font-size="10.00">hpp/walkgen/fwd.hh</text>
</g>
<!-- Node3&#45;&gt;Node5 -->
<g id="edge4" class="edge"><title>Node3&#45;&gt;Node5</title>
<path fill="none" stroke="midnightblue" d="M236.196,-68.4035C198.438,-57.8663 134.339,-39.9783 92.5907,-28.3276"/>
<polygon fill="midnightblue" stroke="midnightblue" points="93.3199,-24.8975 82.7471,-25.5806 91.4383,-31.6398 93.3199,-24.8975"/>
</g>
<!-- Node6 -->
<g id="node6" class="node"><title>Node6</title>
<polygon fill="white" stroke="#bfbfbf" points="122,-1 122,-31 226,-31 226,-1 122,-1"/>
<text text-anchor="start" x="130" y="-19" font-family="Helvetica,sans-Serif" font-size="10.00">hpp/wholebody&#45;step</text>
<text text-anchor="middle" x="174" y="-8" font-family="Helvetica,sans-Serif" font-size="10.00">/config.hh</text>
</g>
<!-- Node3&#45;&gt;Node6 -->
<g id="edge5" class="edge"><title>Node3&#45;&gt;Node6</title>
<path fill="none" stroke="midnightblue" d="M253.675,-68.4035C240.962,-60.2014 221.345,-47.5454 204.758,-36.8441"/>
<polygon fill="midnightblue" stroke="midnightblue" points="206.219,-33.6211 195.918,-31.1408 202.424,-39.5032 206.219,-33.6211"/>
</g>
<!-- Node7 -->
<g id="node7" class="node"><title>Node7</title>
<polygon fill="white" stroke="#bfbfbf" points="244.5,-1 244.5,-31 369.5,-31 369.5,-1 244.5,-1"/>
<text text-anchor="start" x="252.5" y="-19" font-family="Helvetica,sans-Serif" font-size="10.00">hpp/constraints/symbolic</text>
<text text-anchor="middle" x="307" y="-8" font-family="Helvetica,sans-Serif" font-size="10.00">&#45;function.hh</text>
</g>
<!-- Node3&#45;&gt;Node7 -->
<g id="edge6" class="edge"><title>Node3&#45;&gt;Node7</title>
<path fill="none" stroke="midnightblue" d="M272.731,-68.4035C277.743,-60.8849 285.251,-49.6238 291.962,-39.5565"/>
<polygon fill="midnightblue" stroke="midnightblue" points="294.938,-41.4028 297.573,-31.1408 289.114,-37.5199 294.938,-41.4028"/>
</g>
<!-- Node9&#45;&gt;Node3 -->
<g id="edge17" class="edge"><title>Node9&#45;&gt;Node3</title>
<path fill="none" stroke="midnightblue" d="M303.801,-248.957C290.457,-240.253 275.499,-227.725 268,-212 250.172,-174.614 256.836,-124.322 262.423,-97.5653"/>
<polygon fill="midnightblue" stroke="midnightblue" points="265.875,-98.1721 264.677,-87.6452 259.049,-96.6211 265.875,-98.1721"/>
</g>
<!-- Node10 -->
<g id="node10" class="node"><title>Node10</title>
<g id="a_node10"><a doxygen="https://jmirabel.github.io/hpp-doc/api/hpp-core/doxygen-html/hpp-core.doxytag:https://jmirabel.github.io/hpp-doc/api/hpp-core/doxygen-html/" xlink:href="https://jmirabel.github.io/hpp-doc/api/hpp-core/doxygen-html/a00111.html" target="_top" xlink:title="hpp/core/equation.hh">
<polygon fill="white" stroke="black" points="276.5,-192.5 276.5,-211.5 383.5,-211.5 383.5,-192.5 276.5,-192.5"/>
<text text-anchor="middle" x="330" y="-199.5" font-family="Helvetica,sans-Serif" font-size="10.00">hpp/core/equation.hh</text>
</a>
</g>
</g>
<!-- Node9&#45;&gt;Node10 -->
<g id="edge11" class="edge"><title>Node9&#45;&gt;Node10</title>
<path fill="none" stroke="midnightblue" d="M330,-248.781C330,-240.781 330,-230.689 330,-222.017"/>
<polygon fill="midnightblue" stroke="midnightblue" points="333.5,-221.73 330,-211.731 326.5,-221.731 333.5,-221.73"/>
</g>
<!-- Node10&#45;&gt;Node3 -->
<g id="edge12" class="edge"><title>Node10&#45;&gt;Node3</title>
<path fill="none" stroke="midnightblue" d="M318.819,-192.184C309.016,-183.868 295.1,-170.536 287,-156 276.829,-137.748 271.695,-114.179 269.196,-97.9499"/>
<polygon fill="midnightblue" stroke="midnightblue" points="272.608,-97.0567 267.808,-87.6113 265.67,-97.9881 272.608,-97.0567"/>
</g>
<!-- Node10&#45;&gt;Node4 -->
<g id="edge13" class="edge"><title>Node10&#45;&gt;Node4</title>
<path fill="none" stroke="midnightblue" d="M358.526,-192.482C376.503,-185.59 398.587,-174.016 411,-156 436.166,-119.474 435.663,-64.6607 433.266,-36.0008"/>
<polygon fill="midnightblue" stroke="midnightblue" points="436.719,-35.3569 432.229,-25.7603 429.754,-36.062 436.719,-35.3569"/>
</g>
<!-- Node11 -->
<g id="node11" class="node"><title>Node11</title>
<g id="a_node11"><a doxygen="https://jmirabel.github.io/hpp-doc/api/hpp-core/doxygen-html/hpp-core.doxytag:https://jmirabel.github.io/hpp-doc/api/hpp-core/doxygen-html/" xlink:href="https://jmirabel.github.io/hpp-doc/api/hpp-core/doxygen-html/a00092.html" target="_top" xlink:title="hpp/core/comparison\l&#45;type.hh">
<polygon fill="white" stroke="black" points="295.5,-125 295.5,-155 402.5,-155 402.5,-125 295.5,-125"/>
<text text-anchor="start" x="303.5" y="-143" font-family="Helvetica,sans-Serif" font-size="10.00">hpp/core/comparison</text>
<text text-anchor="middle" x="349" y="-132" font-family="Helvetica,sans-Serif" font-size="10.00">&#45;type.hh</text>
</a>
</g>
</g>
<!-- Node10&#45;&gt;Node11 -->
<g id="edge14" class="edge"><title>Node10&#45;&gt;Node11</title>
<path fill="none" stroke="midnightblue" d="M332.722,-192.403C335.007,-185.189 338.383,-174.528 341.469,-164.782"/>
<polygon fill="midnightblue" stroke="midnightblue" points="344.84,-165.731 344.522,-155.141 338.166,-163.618 344.84,-165.731"/>
</g>
<!-- Node11&#45;&gt;Node3 -->
<g id="edge15" class="edge"><title>Node11&#45;&gt;Node3</title>
<path fill="none" stroke="midnightblue" d="M329.567,-124.781C316.792,-115.433 300.111,-103.227 287.186,-93.77"/>
<polygon fill="midnightblue" stroke="midnightblue" points="289.069,-90.8111 278.932,-87.7305 284.935,-96.4603 289.069,-90.8111"/>
</g>
<!-- Node11&#45;&gt;Node4 -->
<g id="edge16" class="edge"><title>Node11&#45;&gt;Node4</title>
<path fill="none" stroke="midnightblue" d="M358.728,-124.526C373.934,-101.903 403.268,-58.2599 419.498,-34.1134"/>
<polygon fill="midnightblue" stroke="midnightblue" points="422.531,-35.8748 425.204,-25.6228 416.721,-31.9699 422.531,-35.8748"/>
</g>
</g>
</svg>
