<?xml version="1.0" encoding="UTF-8" standalone="no"?>
<!DOCTYPE svg PUBLIC "-//W3C//DTD SVG 1.1//EN"
 "http://www.w3.org/Graphics/SVG/1.1/DTD/svg11.dtd">
<!-- Generated by graphviz version 2.36.0 (20140111.2315)
 -->
<!-- Title: static&#45;stability&#45;constraint.hh Pages: 1 -->
<svg width="510pt" height="164pt"
 viewBox="0.00 0.00 510.00 164.00" xmlns="http://www.w3.org/2000/svg" xmlns:xlink="http://www.w3.org/1999/xlink">
<g id="graph0" class="graph" transform="scale(1 1) rotate(0) translate(4 160)">
<title>static&#45;stability&#45;constraint.hh</title>
<polygon fill="white" stroke="none" points="-4,4 -4,-160 506,-160 506,4 -4,4"/>
<!-- Node1 -->
<g id="node1" class="node"><title>Node1</title>
<polygon fill="#bfbfbf" stroke="black" points="221.5,-136.5 221.5,-155.5 358.5,-155.5 358.5,-136.5 221.5,-136.5"/>
<text text-anchor="middle" x="290" y="-143.5" font-family="Helvetica,sans-Serif" font-size="10.00">static&#45;stability&#45;constraint.hh</text>
</g>
<!-- Node2 -->
<g id="node2" class="node"><title>Node2</title>
<polygon fill="white" stroke="#bfbfbf" points="0,-74.5 0,-93.5 94,-93.5 94,-74.5 0,-74.5"/>
<text text-anchor="middle" x="47" y="-81.5" font-family="Helvetica,sans-Serif" font-size="10.00">hpp/model/fwd.hh</text>
</g>
<!-- Node1&#45;&gt;Node2 -->
<g id="edge1" class="edge"><title>Node1&#45;&gt;Node2</title>
<path fill="none" stroke="midnightblue" d="M253.594,-136.419C216.058,-127.518 155.862,-113.096 104,-100 99.0424,-98.7481 93.8486,-97.4135 88.6995,-96.076"/>
<polygon fill="midnightblue" stroke="midnightblue" points="89.4868,-92.6643 78.9267,-93.5217 87.7166,-99.4368 89.4868,-92.6643"/>
</g>
<!-- Node3 -->
<g id="node3" class="node"><title>Node3</title>
<polygon fill="white" stroke="#bfbfbf" points="112.5,-69 112.5,-99 219.5,-99 219.5,-69 112.5,-69"/>
<text text-anchor="start" x="120.5" y="-87" font-family="Helvetica,sans-Serif" font-size="10.00">hpp/model/humanoid</text>
<text text-anchor="middle" x="166" y="-76" font-family="Helvetica,sans-Serif" font-size="10.00">&#45;robot.hh</text>
</g>
<!-- Node1&#45;&gt;Node3 -->
<g id="edge2" class="edge"><title>Node1&#45;&gt;Node3</title>
<path fill="none" stroke="midnightblue" d="M272.234,-136.403C254.577,-127.86 226.932,-114.483 204.269,-103.517"/>
<polygon fill="midnightblue" stroke="midnightblue" points="205.75,-100.346 195.224,-99.1408 202.701,-106.647 205.75,-100.346"/>
</g>
<!-- Node4 -->
<g id="node4" class="node"><title>Node4</title>
<g id="a_node4"><a xlink:href="a00001.html" target="_top" xlink:title="hpp/wholebody&#45;step\l/fwd.hh">
<polygon fill="white" stroke="black" points="238,-69 238,-99 342,-99 342,-69 238,-69"/>
<text text-anchor="start" x="246" y="-87" font-family="Helvetica,sans-Serif" font-size="10.00">hpp/wholebody&#45;step</text>
<text text-anchor="middle" x="290" y="-76" font-family="Helvetica,sans-Serif" font-size="10.00">/fwd.hh</text>
</a>
</g>
</g>
<!-- Node1&#45;&gt;Node4 -->
<g id="edge3" class="edge"><title>Node1&#45;&gt;Node4</title>
<path fill="none" stroke="midnightblue" d="M290,-136.403C290,-129.341 290,-118.975 290,-109.399"/>
<polygon fill="midnightblue" stroke="midnightblue" points="293.5,-109.141 290,-99.1408 286.5,-109.141 293.5,-109.141"/>
</g>
<!-- Node7 -->
<g id="node7" class="node"><title>Node7</title>
<polygon fill="white" stroke="#bfbfbf" points="371,-1 371,-31 475,-31 475,-1 371,-1"/>
<text text-anchor="start" x="379" y="-19" font-family="Helvetica,sans-Serif" font-size="10.00">hpp/wholebody&#45;step</text>
<text text-anchor="middle" x="423" y="-8" font-family="Helvetica,sans-Serif" font-size="10.00">/config.hh</text>
</g>
<!-- Node1&#45;&gt;Node7 -->
<g id="edge8" class="edge"><title>Node1&#45;&gt;Node7</title>
<path fill="none" stroke="midnightblue" d="M303.26,-136.469C316.071,-127.945 335.728,-114.111 351,-100 371.589,-80.9758 392.266,-56.4428 406.145,-38.9943"/>
<polygon fill="midnightblue" stroke="midnightblue" points="408.958,-41.0792 412.382,-31.053 403.453,-36.7555 408.958,-41.0792"/>
</g>
<!-- Node9 -->
<g id="node9" class="node"><title>Node9</title>
<polygon fill="white" stroke="#bfbfbf" points="398,-69 398,-99 502,-99 502,-69 398,-69"/>
<text text-anchor="start" x="406" y="-87" font-family="Helvetica,sans-Serif" font-size="10.00">hpp/wholebody&#45;step</text>
<text text-anchor="middle" x="450" y="-76" font-family="Helvetica,sans-Serif" font-size="10.00">/deprecated.hh</text>
</g>
<!-- Node1&#45;&gt;Node9 -->
<g id="edge9" class="edge"><title>Node1&#45;&gt;Node9</title>
<path fill="none" stroke="midnightblue" d="M312.924,-136.403C336.292,-127.641 373.216,-113.794 402.856,-102.679"/>
<polygon fill="midnightblue" stroke="midnightblue" points="404.465,-105.814 412.599,-99.0253 402.007,-99.2595 404.465,-105.814"/>
</g>
<!-- Node5 -->
<g id="node5" class="node"><title>Node5</title>
<g id="a_node5"><a doxygen="https://jmirabel.github.io/hpp-doc/api/hpp-core/doxygen-html/hpp-core.doxytag:https://jmirabel.github.io/hpp-doc/api/hpp-core/doxygen-html/" xlink:href="https://jmirabel.github.io/hpp-doc/api/hpp-core/doxygen-html/a00001.html" target="_top" xlink:title="hpp/core/fwd.hh">
<polygon fill="white" stroke="black" points="1,-6.5 1,-25.5 87,-25.5 87,-6.5 1,-6.5"/>
<text text-anchor="middle" x="44" y="-13.5" font-family="Helvetica,sans-Serif" font-size="10.00">hpp/core/fwd.hh</text>
</a>
</g>
</g>
<!-- Node4&#45;&gt;Node5 -->
<g id="edge4" class="edge"><title>Node4&#45;&gt;Node5</title>
<path fill="none" stroke="midnightblue" d="M237.624,-69.5907C198.533,-59.4951 143.841,-45.1866 96,-32 91.7059,-30.8164 87.219,-29.5568 82.7579,-28.2899"/>
<polygon fill="midnightblue" stroke="midnightblue" points="83.6951,-24.9177 73.1181,-25.5315 81.7694,-31.6476 83.6951,-24.9177"/>
</g>
<!-- Node6 -->
<g id="node6" class="node"><title>Node6</title>
<polygon fill="white" stroke="#bfbfbf" points="105,-6.5 105,-25.5 209,-25.5 209,-6.5 105,-6.5"/>
<text text-anchor="middle" x="157" y="-13.5" font-family="Helvetica,sans-Serif" font-size="10.00">hpp/walkgen/fwd.hh</text>
</g>
<!-- Node4&#45;&gt;Node6 -->
<g id="edge5" class="edge"><title>Node4&#45;&gt;Node6</title>
<path fill="none" stroke="midnightblue" d="M261.468,-68.8413C238.36,-57.3741 206.053,-41.3421 183.506,-30.1532"/>
<polygon fill="midnightblue" stroke="midnightblue" points="185.009,-26.9919 174.495,-25.6819 181.897,-33.2623 185.009,-26.9919"/>
</g>
<!-- Node4&#45;&gt;Node7 -->
<g id="edge6" class="edge"><title>Node4&#45;&gt;Node7</title>
<path fill="none" stroke="midnightblue" d="M318.532,-68.8413C338.079,-59.141 364.209,-46.1742 385.446,-35.6358"/>
<polygon fill="midnightblue" stroke="midnightblue" points="387.113,-38.7157 394.515,-31.1352 384.002,-32.4453 387.113,-38.7157"/>
</g>
<!-- Node8 -->
<g id="node8" class="node"><title>Node8</title>
<polygon fill="white" stroke="#bfbfbf" points="227.5,-1 227.5,-31 352.5,-31 352.5,-1 227.5,-1"/>
<text text-anchor="start" x="235.5" y="-19" font-family="Helvetica,sans-Serif" font-size="10.00">hpp/constraints/symbolic</text>
<text text-anchor="middle" x="290" y="-8" font-family="Helvetica,sans-Serif" font-size="10.00">&#45;function.hh</text>
</g>
<!-- Node4&#45;&gt;Node8 -->
<g id="edge7" class="edge"><title>Node4&#45;&gt;Node8</title>
<path fill="none" stroke="midnightblue" d="M290,-68.679C290,-60.7221 290,-50.605 290,-41.4356"/>
<polygon fill="midnightblue" stroke="midnightblue" points="293.5,-41.293 290,-31.2931 286.5,-41.2931 293.5,-41.293"/>
</g>
</g>
</svg>
