<?xml version="1.0" encoding="UTF-8" standalone="no"?>
<!DOCTYPE svg PUBLIC "-//W3C//DTD SVG 1.1//EN"
 "http://www.w3.org/Graphics/SVG/1.1/DTD/svg11.dtd">
<!-- Generated by graphviz version 2.36.0 (20140111.2315)
 -->
<!-- Title: static&#45;stability&#45;constraint.cc Pages: 1 -->
<svg width="1768pt" height="412pt"
 viewBox="0.00 0.00 1768.00 412.00" xmlns="http://www.w3.org/2000/svg" xmlns:xlink="http://www.w3.org/1999/xlink">
<g id="graph0" class="graph" transform="scale(1 1) rotate(0) translate(4 408)">
<title>static&#45;stability&#45;constraint.cc</title>
<polygon fill="white" stroke="none" points="-4,4 -4,-408 1764,-408 1764,4 -4,4"/>
<!-- Node1 -->
<g id="node1" class="node"><title>Node1</title>
<polygon fill="#bfbfbf" stroke="black" points="724.5,-384.5 724.5,-403.5 861.5,-403.5 861.5,-384.5 724.5,-384.5"/>
<text text-anchor="middle" x="793" y="-391.5" font-family="Helvetica,sans-Serif" font-size="10.00">static&#45;stability&#45;constraint.cc</text>
</g>
<!-- Node2 -->
<g id="node2" class="node"><title>Node2</title>
<polygon fill="white" stroke="#bfbfbf" points="33,-322.5 33,-341.5 153,-341.5 153,-322.5 33,-322.5"/>
<text text-anchor="middle" x="93" y="-329.5" font-family="Helvetica,sans-Serif" font-size="10.00">boost/assign/list_of.hpp</text>
</g>
<!-- Node1&#45;&gt;Node2 -->
<g id="edge1" class="edge"><title>Node1&#45;&gt;Node2</title>
<path fill="none" stroke="midnightblue" d="M724.495,-391.317C608.278,-387.748 365.291,-377.193 162,-348 154.065,-346.861 145.682,-345.325 137.597,-343.669"/>
<polygon fill="midnightblue" stroke="midnightblue" points="138.083,-340.194 127.572,-341.529 136.621,-347.039 138.083,-340.194"/>
</g>
<!-- Node3 -->
<g id="node3" class="node"><title>Node3</title>
<polygon fill="white" stroke="#bfbfbf" points="329.5,-249 329.5,-279 436.5,-279 436.5,-249 329.5,-249"/>
<text text-anchor="start" x="337.5" y="-267" font-family="Helvetica,sans-Serif" font-size="10.00">hpp/model/humanoid</text>
<text text-anchor="middle" x="383" y="-256" font-family="Helvetica,sans-Serif" font-size="10.00">&#45;robot.hh</text>
</g>
<!-- Node1&#45;&gt;Node3 -->
<g id="edge2" class="edge"><title>Node1&#45;&gt;Node3</title>
<path fill="none" stroke="midnightblue" d="M724.138,-389.791C616.211,-384.095 417.081,-370.636 394,-348 378.732,-333.026 377.38,-307.849 378.992,-289.143"/>
<polygon fill="midnightblue" stroke="midnightblue" points="382.492,-289.347 380.2,-279.003 375.541,-288.518 382.492,-289.347"/>
</g>
<!-- Node4 -->
<g id="node4" class="node"><title>Node4</title>
<polygon fill="white" stroke="#bfbfbf" points="561,-322.5 561,-341.5 657,-341.5 657,-322.5 561,-322.5"/>
<text text-anchor="middle" x="609" y="-329.5" font-family="Helvetica,sans-Serif" font-size="10.00">hpp/model/joint.hh</text>
</g>
<!-- Node1&#45;&gt;Node4 -->
<g id="edge3" class="edge"><title>Node1&#45;&gt;Node4</title>
<path fill="none" stroke="midnightblue" d="M766.637,-384.403C734.665,-373.978 680.624,-356.356 644.878,-344.699"/>
<polygon fill="midnightblue" stroke="midnightblue" points="645.906,-341.353 635.314,-341.581 643.736,-348.008 645.906,-341.353"/>
</g>
<!-- Node5 -->
<g id="node5" class="node"><title>Node5</title>
<polygon fill="white" stroke="#bfbfbf" points="675.5,-322.5 675.5,-341.5 782.5,-341.5 782.5,-322.5 675.5,-322.5"/>
<text text-anchor="middle" x="729" y="-329.5" font-family="Helvetica,sans-Serif" font-size="10.00">hpp/model/device.hh</text>
</g>
<!-- Node1&#45;&gt;Node5 -->
<g id="edge4" class="edge"><title>Node1&#45;&gt;Node5</title>
<path fill="none" stroke="midnightblue" d="M783.83,-384.403C773.85,-375.047 757.688,-359.895 745.491,-348.46"/>
<polygon fill="midnightblue" stroke="midnightblue" points="747.842,-345.867 738.153,-341.581 743.054,-350.973 747.842,-345.867"/>
</g>
<!-- Node6 -->
<g id="node6" class="node"><title>Node6</title>
<polygon fill="white" stroke="#bfbfbf" points="800.5,-317 800.5,-347 913.5,-347 913.5,-317 800.5,-317"/>
<text text-anchor="start" x="808.5" y="-335" font-family="Helvetica,sans-Serif" font-size="10.00">hpp/model/center&#45;of</text>
<text text-anchor="middle" x="857" y="-324" font-family="Helvetica,sans-Serif" font-size="10.00">&#45;mass&#45;computation.hh</text>
</g>
<!-- Node1&#45;&gt;Node6 -->
<g id="edge5" class="edge"><title>Node1&#45;&gt;Node6</title>
<path fill="none" stroke="midnightblue" d="M802.17,-384.403C810.595,-376.505 823.425,-364.477 834.556,-354.041"/>
<polygon fill="midnightblue" stroke="midnightblue" points="837.015,-356.534 841.916,-347.141 832.227,-351.427 837.015,-356.534"/>
</g>
<!-- Node7 -->
<g id="node7" class="node"><title>Node7</title>
<g id="a_node7"><a doxygen="https://jmirabel.github.io/hpp-doc/api/hpp-core/doxygen-html/hpp-core.doxytag:https://jmirabel.github.io/hpp-doc/api/hpp-core/doxygen-html/" xlink:href="https://jmirabel.github.io/hpp-doc/api/hpp-core/doxygen-html/a00094.html" target="_top" xlink:title="hpp/core/config&#45;projector.hh">
<polygon fill="white" stroke="black" points="171.5,-322.5 171.5,-341.5 308.5,-341.5 308.5,-322.5 171.5,-322.5"/>
<text text-anchor="middle" x="240" y="-329.5" font-family="Helvetica,sans-Serif" font-size="10.00">hpp/core/config&#45;projector.hh</text>
</a>
</g>
</g>
<!-- Node1&#45;&gt;Node7 -->
<g id="edge6" class="edge"><title>Node1&#45;&gt;Node7</title>
<path fill="none" stroke="midnightblue" d="M724.295,-388.225C632.555,-381.437 465.102,-367.609 323,-348 313.418,-346.678 303.255,-345.039 293.449,-343.336"/>
<polygon fill="midnightblue" stroke="midnightblue" points="293.857,-339.853 283.398,-341.547 292.63,-346.745 293.857,-339.853"/>
</g>
<!-- Node15 -->
<g id="node15" class="node"><title>Node15</title>
<g id="a_node15"><a doxygen="https://jmirabel.github.io/hpp-doc/api/hpp-core/doxygen-html/hpp-core.doxytag:https://jmirabel.github.io/hpp-doc/api/hpp-core/doxygen-html/" xlink:href="https://jmirabel.github.io/hpp-doc/api/hpp-core/doxygen-html/a00124.html" target="_top" xlink:title="hpp/core/numerical\l&#45;constraint.hh">
<polygon fill="white" stroke="black" points="212.5,-249 212.5,-279 311.5,-279 311.5,-249 212.5,-249"/>
<text text-anchor="start" x="220.5" y="-267" font-family="Helvetica,sans-Serif" font-size="10.00">hpp/core/numerical</text>
<text text-anchor="middle" x="262" y="-256" font-family="Helvetica,sans-Serif" font-size="10.00">&#45;constraint.hh</text>
</a>
</g>
</g>
<!-- Node1&#45;&gt;Node15 -->
<g id="edge22" class="edge"><title>Node1&#45;&gt;Node15</title>
<path fill="none" stroke="midnightblue" d="M724.109,-389.875C622.503,-384.54 437.817,-371.863 376,-348 339.952,-334.084 305.02,-305.777 283.53,-286.114"/>
<polygon fill="midnightblue" stroke="midnightblue" points="285.672,-283.325 275.978,-279.05 280.89,-288.437 285.672,-283.325"/>
</g>
<!-- Node17 -->
<g id="node17" class="node"><title>Node17</title>
<polygon fill="white" stroke="#bfbfbf" points="931.5,-322.5 931.5,-341.5 1076.5,-341.5 1076.5,-322.5 931.5,-322.5"/>
<text text-anchor="middle" x="1004" y="-329.5" font-family="Helvetica,sans-Serif" font-size="10.00">hpp/constraints/orientation.hh</text>
</g>
<!-- Node1&#45;&gt;Node17 -->
<g id="edge23" class="edge"><title>Node1&#45;&gt;Node17</title>
<path fill="none" stroke="midnightblue" d="M823.231,-384.403C860.287,-373.866 923.193,-355.978 964.164,-344.328"/>
<polygon fill="midnightblue" stroke="midnightblue" points="965.164,-347.682 973.825,-341.581 963.249,-340.949 965.164,-347.682"/>
</g>
<!-- Node18 -->
<g id="node18" class="node"><title>Node18</title>
<polygon fill="white" stroke="#bfbfbf" points="1095,-322.5 1095,-341.5 1229,-341.5 1229,-322.5 1095,-322.5"/>
<text text-anchor="middle" x="1162" y="-329.5" font-family="Helvetica,sans-Serif" font-size="10.00">hpp/constraints/position.hh</text>
</g>
<!-- Node1&#45;&gt;Node18 -->
<g id="edge24" class="edge"><title>Node1&#45;&gt;Node18</title>
<path fill="none" stroke="midnightblue" d="M852.952,-384.468C912.06,-375.889 1004.91,-361.967 1085,-348 1093.01,-346.603 1101.48,-345.041 1109.75,-343.468"/>
<polygon fill="midnightblue" stroke="midnightblue" points="1110.53,-346.88 1119.69,-341.553 1109.21,-340.007 1110.53,-346.88"/>
</g>
<!-- Node19 -->
<g id="node19" class="node"><title>Node19</title>
<polygon fill="white" stroke="#bfbfbf" points="1247,-317 1247,-347 1365,-347 1365,-317 1247,-317"/>
<text text-anchor="start" x="1255" y="-335" font-family="Helvetica,sans-Serif" font-size="10.00">hpp/constraints/relative</text>
<text text-anchor="middle" x="1306" y="-324" font-family="Helvetica,sans-Serif" font-size="10.00">&#45;com.hh</text>
</g>
<!-- Node1&#45;&gt;Node19 -->
<g id="edge25" class="edge"><title>Node1&#45;&gt;Node19</title>
<path fill="none" stroke="midnightblue" d="M861.551,-388.554C947.165,-382.447 1098.26,-369.841 1236.79,-348.08"/>
<polygon fill="midnightblue" stroke="midnightblue" points="1237.41,-351.525 1246.74,-346.498 1236.31,-344.612 1237.41,-351.525"/>
</g>
<!-- Node20 -->
<g id="node20" class="node"><title>Node20</title>
<polygon fill="white" stroke="#bfbfbf" points="1383,-317 1383,-347 1501,-347 1501,-317 1383,-317"/>
<text text-anchor="start" x="1391" y="-335" font-family="Helvetica,sans-Serif" font-size="10.00">hpp/constraints/relative</text>
<text text-anchor="middle" x="1442" y="-324" font-family="Helvetica,sans-Serif" font-size="10.00">&#45;orientation.hh</text>
</g>
<!-- Node1&#45;&gt;Node20 -->
<g id="edge26" class="edge"><title>Node1&#45;&gt;Node20</title>
<path fill="none" stroke="midnightblue" d="M861.77,-390.786C969.008,-386.647 1182.65,-375.651 1372.85,-348.036"/>
<polygon fill="midnightblue" stroke="midnightblue" points="1373.37,-351.498 1382.75,-346.581 1372.35,-344.573 1373.37,-351.498"/>
</g>
<!-- Node21 -->
<g id="node21" class="node"><title>Node21</title>
<polygon fill="white" stroke="#bfbfbf" points="1519,-317 1519,-347 1637,-347 1637,-317 1519,-317"/>
<text text-anchor="start" x="1527" y="-335" font-family="Helvetica,sans-Serif" font-size="10.00">hpp/constraints/relative</text>
<text text-anchor="middle" x="1578" y="-324" font-family="Helvetica,sans-Serif" font-size="10.00">&#45;position.hh</text>
</g>
<!-- Node1&#45;&gt;Node21 -->
<g id="edge27" class="edge"><title>Node1&#45;&gt;Node21</title>
<path fill="none" stroke="midnightblue" d="M861.569,-392.212C987.854,-389.994 1265.75,-381.54 1508.68,-348.04"/>
<polygon fill="midnightblue" stroke="midnightblue" points="1509.34,-351.482 1518.76,-346.632 1508.37,-344.549 1509.34,-351.482"/>
</g>
<!-- Node22 -->
<g id="node22" class="node"><title>Node22</title>
<polygon fill="white" stroke="#bfbfbf" points="1655.5,-317 1655.5,-347 1760.5,-347 1760.5,-317 1655.5,-317"/>
<text text-anchor="start" x="1663.5" y="-335" font-family="Helvetica,sans-Serif" font-size="10.00">hpp/constraints/com</text>
<text text-anchor="middle" x="1708" y="-324" font-family="Helvetica,sans-Serif" font-size="10.00">&#45;between&#45;feet.hh</text>
</g>
<!-- Node1&#45;&gt;Node22 -->
<g id="edge28" class="edge"><title>Node1&#45;&gt;Node22</title>
<path fill="none" stroke="midnightblue" d="M861.699,-393.659C1005.55,-394.111 1348.91,-390.337 1645.28,-347.896"/>
<polygon fill="midnightblue" stroke="midnightblue" points="1645.97,-351.333 1655.36,-346.434 1644.97,-344.405 1645.97,-351.333"/>
</g>
<!-- Node23 -->
<g id="node23" class="node"><title>Node23</title>
<g id="a_node23"><a xlink:href="a00020.html" target="_top" xlink:title="hpp/wholebody&#45;step\l/static&#45;stability&#45;constraint.hh">
<polygon fill="white" stroke="black" points="403,-317 403,-347 543,-347 543,-317 403,-317"/>
<text text-anchor="start" x="411" y="-335" font-family="Helvetica,sans-Serif" font-size="10.00">hpp/wholebody&#45;step</text>
<text text-anchor="middle" x="473" y="-324" font-family="Helvetica,sans-Serif" font-size="10.00">/static&#45;stability&#45;constraint.hh</text>
</a>
</g>
</g>
<!-- Node1&#45;&gt;Node23 -->
<g id="edge29" class="edge"><title>Node1&#45;&gt;Node23</title>
<path fill="none" stroke="midnightblue" d="M747.239,-384.498C700.839,-375.868 626.686,-362.05 553.113,-348.207"/>
<polygon fill="midnightblue" stroke="midnightblue" points="553.684,-344.753 543.209,-346.342 552.389,-351.632 553.684,-344.753"/>
</g>
<!-- Node8 -->
<g id="node8" class="node"><title>Node8</title>
<g id="a_node8"><a doxygen="https://jmirabel.github.io/hpp-doc/api/hpp-core/doxygen-html/hpp-core.doxytag:https://jmirabel.github.io/hpp-doc/api/hpp-core/doxygen-html/" xlink:href="https://jmirabel.github.io/hpp-doc/api/hpp-core/doxygen-html/a00100.html" target="_top" xlink:title="hpp/core/constraint.hh">
<polygon fill="white" stroke="black" points="-0.5,-130.5 -0.5,-149.5 112.5,-149.5 112.5,-130.5 -0.5,-130.5"/>
<text text-anchor="middle" x="56" y="-137.5" font-family="Helvetica,sans-Serif" font-size="10.00">hpp/core/constraint.hh</text>
</a>
</g>
</g>
<!-- Node7&#45;&gt;Node8 -->
<g id="edge7" class="edge"><title>Node7&#45;&gt;Node8</title>
<path fill="none" stroke="midnightblue" d="M231.485,-322.359C221.516,-312.233 204.521,-294.936 190,-280 146.99,-235.759 96.5496,-183.273 71.6026,-157.273"/>
<polygon fill="midnightblue" stroke="midnightblue" points="73.8887,-154.601 64.4404,-149.807 68.837,-159.446 73.8887,-154.601"/>
</g>
<!-- Node14 -->
<g id="node14" class="node"><title>Node14</title>
<g id="a_node14"><a doxygen="https://jmirabel.github.io/hpp-doc/api/hpp-core/doxygen-html/hpp-core.doxytag:https://jmirabel.github.io/hpp-doc/api/hpp-core/doxygen-html/" xlink:href="https://jmirabel.github.io/hpp-doc/api/hpp-core/doxygen-html/a00092.html" target="_top" xlink:title="hpp/core/comparison\l&#45;type.hh">
<polygon fill="white" stroke="black" points="130.5,-125 130.5,-155 237.5,-155 237.5,-125 130.5,-125"/>
<text text-anchor="start" x="138.5" y="-143" font-family="Helvetica,sans-Serif" font-size="10.00">hpp/core/comparison</text>
<text text-anchor="middle" x="184" y="-132" font-family="Helvetica,sans-Serif" font-size="10.00">&#45;type.hh</text>
</a>
</g>
</g>
<!-- Node7&#45;&gt;Node14 -->
<g id="edge14" class="edge"><title>Node7&#45;&gt;Node14</title>
<path fill="none" stroke="midnightblue" d="M231.688,-322.425C222.988,-312.896 209.683,-296.648 203,-280 187.78,-242.087 184.348,-194.183 183.791,-165.657"/>
<polygon fill="midnightblue" stroke="midnightblue" points="187.288,-165.358 183.7,-155.39 180.289,-165.42 187.288,-165.358"/>
</g>
<!-- Node7&#45;&gt;Node15 -->
<g id="edge17" class="edge"><title>Node7&#45;&gt;Node15</title>
<path fill="none" stroke="midnightblue" d="M242.876,-322.372C245.705,-313.886 250.153,-300.542 254.047,-288.858"/>
<polygon fill="midnightblue" stroke="midnightblue" points="257.431,-289.775 257.273,-279.181 250.79,-287.561 257.431,-289.775"/>
</g>
<!-- Node9 -->
<g id="node9" class="node"><title>Node9</title>
<g id="a_node9"><a xlink:href="a00001.html" target="_top" xlink:title="hpp/core/fwd.hh">
<polygon fill="white" stroke="black" points="294,-68.5 294,-87.5 380,-87.5 380,-68.5 294,-68.5"/>
<text text-anchor="middle" x="337" y="-75.5" font-family="Helvetica,sans-Serif" font-size="10.00">hpp/core/fwd.hh</text>
</a>
</g>
</g>
<!-- Node8&#45;&gt;Node9 -->
<g id="edge8" class="edge"><title>Node8&#45;&gt;Node9</title>
<path fill="none" stroke="midnightblue" d="M92.9764,-130.479C102.432,-128.332 112.586,-126.055 122,-124 177.651,-111.853 241.553,-98.5616 285.133,-89.5962"/>
<polygon fill="midnightblue" stroke="midnightblue" points="285.842,-93.0236 294.933,-87.5825 284.433,-86.1668 285.842,-93.0236"/>
</g>
<!-- Node10 -->
<g id="node10" class="node"><title>Node10</title>
<g id="a_node10"><a doxygen="https://jmirabel.github.io/hpp-doc/api/hpp-core/doxygen-html/hpp-core.doxytag:https://jmirabel.github.io/hpp-doc/api/hpp-core/doxygen-html/" xlink:href="https://jmirabel.github.io/hpp-doc/api/hpp-core/doxygen-html/a00001.html" target="_top" xlink:title="hpp/core/fwd.hh">
<polygon fill="white" stroke="black" points="108,-6.5 108,-25.5 194,-25.5 194,-6.5 108,-6.5"/>
<text text-anchor="middle" x="151" y="-13.5" font-family="Helvetica,sans-Serif" font-size="10.00">hpp/core/fwd.hh</text>
</a>
</g>
</g>
<!-- Node8&#45;&gt;Node10 -->
<g id="edge13" class="edge"><title>Node8&#45;&gt;Node10</title>
<path fill="none" stroke="midnightblue" d="M62.8322,-130.226C78.5802,-110.002 117.641,-59.8403 138.075,-33.5989"/>
<polygon fill="midnightblue" stroke="midnightblue" points="140.847,-35.7349 144.23,-25.6944 135.324,-31.4341 140.847,-35.7349"/>
</g>
<!-- Node9&#45;&gt;Node10 -->
<g id="edge9" class="edge"><title>Node9&#45;&gt;Node10</title>
<path fill="none" stroke="midnightblue" d="M310.351,-68.4035C278.031,-57.9777 223.403,-40.3557 187.267,-28.6992"/>
<polygon fill="midnightblue" stroke="midnightblue" points="188.191,-25.3197 177.6,-25.5806 186.042,-31.9817 188.191,-25.3197"/>
</g>
<!-- Node11 -->
<g id="node11" class="node"><title>Node11</title>
<polygon fill="white" stroke="#bfbfbf" points="212,-6.5 212,-25.5 316,-25.5 316,-6.5 212,-6.5"/>
<text text-anchor="middle" x="264" y="-13.5" font-family="Helvetica,sans-Serif" font-size="10.00">hpp/walkgen/fwd.hh</text>
</g>
<!-- Node9&#45;&gt;Node11 -->
<g id="edge10" class="edge"><title>Node9&#45;&gt;Node11</title>
<path fill="none" stroke="midnightblue" d="M326.541,-68.4035C315.049,-58.9579 296.37,-43.6056 282.413,-32.1342"/>
<polygon fill="midnightblue" stroke="midnightblue" points="284.388,-29.2264 274.44,-25.5806 279.943,-34.6342 284.388,-29.2264"/>
</g>
<!-- Node12 -->
<g id="node12" class="node"><title>Node12</title>
<polygon fill="white" stroke="#bfbfbf" points="478,-1 478,-31 582,-31 582,-1 478,-1"/>
<text text-anchor="start" x="486" y="-19" font-family="Helvetica,sans-Serif" font-size="10.00">hpp/wholebody&#45;step</text>
<text text-anchor="middle" x="530" y="-8" font-family="Helvetica,sans-Serif" font-size="10.00">/config.hh</text>
</g>
<!-- Node9&#45;&gt;Node12 -->
<g id="edge11" class="edge"><title>Node9&#45;&gt;Node12</title>
<path fill="none" stroke="midnightblue" d="M364.652,-68.4035C393.33,-59.4882 438.933,-45.311 474.99,-34.1014"/>
<polygon fill="midnightblue" stroke="midnightblue" points="476.375,-37.3363 484.885,-31.0253 474.297,-30.6518 476.375,-37.3363"/>
</g>
<!-- Node13 -->
<g id="node13" class="node"><title>Node13</title>
<polygon fill="white" stroke="#bfbfbf" points="334.5,-1 334.5,-31 459.5,-31 459.5,-1 334.5,-1"/>
<text text-anchor="start" x="342.5" y="-19" font-family="Helvetica,sans-Serif" font-size="10.00">hpp/constraints/symbolic</text>
<text text-anchor="middle" x="397" y="-8" font-family="Helvetica,sans-Serif" font-size="10.00">&#45;function.hh</text>
</g>
<!-- Node9&#45;&gt;Node13 -->
<g id="edge12" class="edge"><title>Node9&#45;&gt;Node13</title>
<path fill="none" stroke="midnightblue" d="M345.597,-68.4035C353.419,-60.5811 365.292,-48.7077 375.658,-38.3424"/>
<polygon fill="midnightblue" stroke="midnightblue" points="378.263,-40.6868 382.859,-31.1408 373.313,-35.737 378.263,-40.6868"/>
</g>
<!-- Node14&#45;&gt;Node9 -->
<g id="edge15" class="edge"><title>Node14&#45;&gt;Node9</title>
<path fill="none" stroke="midnightblue" d="M219.872,-124.933C245.915,-114.72 280.808,-101.036 305.721,-91.2664"/>
<polygon fill="midnightblue" stroke="midnightblue" points="307.038,-94.5094 315.07,-87.6 304.482,-87.9926 307.038,-94.5094"/>
</g>
<!-- Node14&#45;&gt;Node10 -->
<g id="edge16" class="edge"><title>Node14&#45;&gt;Node10</title>
<path fill="none" stroke="midnightblue" d="M180.085,-124.526C174.074,-102.303 162.577,-59.7982 155.981,-35.4136"/>
<polygon fill="midnightblue" stroke="midnightblue" points="159.322,-34.362 153.332,-25.6228 152.565,-36.1899 159.322,-34.362"/>
</g>
<!-- Node16 -->
<g id="node16" class="node"><title>Node16</title>
<g id="a_node16"><a doxygen="https://jmirabel.github.io/hpp-doc/api/hpp-core/doxygen-html/hpp-core.doxytag:https://jmirabel.github.io/hpp-doc/api/hpp-core/doxygen-html/" xlink:href="https://jmirabel.github.io/hpp-doc/api/hpp-core/doxygen-html/a00111.html" target="_top" xlink:title="hpp/core/equation.hh">
<polygon fill="white" stroke="black" points="212.5,-192.5 212.5,-211.5 319.5,-211.5 319.5,-192.5 212.5,-192.5"/>
<text text-anchor="middle" x="266" y="-199.5" font-family="Helvetica,sans-Serif" font-size="10.00">hpp/core/equation.hh</text>
</a>
</g>
</g>
<!-- Node15&#45;&gt;Node16 -->
<g id="edge18" class="edge"><title>Node15&#45;&gt;Node16</title>
<path fill="none" stroke="midnightblue" d="M262.948,-248.781C263.487,-240.691 264.169,-230.462 264.752,-221.725"/>
<polygon fill="midnightblue" stroke="midnightblue" points="268.245,-221.941 265.418,-211.731 261.26,-221.476 268.245,-221.941"/>
</g>
<!-- Node16&#45;&gt;Node9 -->
<g id="edge19" class="edge"><title>Node16&#45;&gt;Node9</title>
<path fill="none" stroke="midnightblue" d="M271.106,-192.226C282.722,-172.266 311.31,-123.144 326.735,-96.6378"/>
<polygon fill="midnightblue" stroke="midnightblue" points="329.935,-98.0979 331.94,-87.6944 323.885,-94.5769 329.935,-98.0979"/>
</g>
<!-- Node16&#45;&gt;Node10 -->
<g id="edge20" class="edge"><title>Node16&#45;&gt;Node10</title>
<path fill="none" stroke="midnightblue" d="M265.103,-192.437C263.279,-177.697 258.222,-146.909 246,-124 226.077,-86.6565 190.592,-51.624 169.085,-32.3683"/>
<polygon fill="midnightblue" stroke="midnightblue" points="171.154,-29.5278 161.328,-25.5655 166.539,-34.7906 171.154,-29.5278"/>
</g>
<!-- Node16&#45;&gt;Node14 -->
<g id="edge21" class="edge"><title>Node16&#45;&gt;Node14</title>
<path fill="none" stroke="midnightblue" d="M254.251,-192.403C243.146,-184.277 226.065,-171.779 211.527,-161.142"/>
<polygon fill="midnightblue" stroke="midnightblue" points="213.463,-158.221 203.326,-155.141 209.329,-163.871 213.463,-158.221"/>
</g>
<!-- Node23&#45;&gt;Node3 -->
<g id="edge31" class="edge"><title>Node23&#45;&gt;Node3</title>
<path fill="none" stroke="midnightblue" d="M453.471,-316.679C440.884,-307.449 424.333,-295.311 410.434,-285.118"/>
<polygon fill="midnightblue" stroke="midnightblue" points="412.315,-282.158 402.181,-279.066 408.176,-287.802 412.315,-282.158"/>
</g>
<!-- Node23&#45;&gt;Node9 -->
<g id="edge32" class="edge"><title>Node23&#45;&gt;Node9</title>
<path fill="none" stroke="midnightblue" d="M469.346,-316.787C464.754,-299.924 456.11,-271.176 445,-248 416.751,-189.069 371.872,-125.709 349.932,-96.0905"/>
<polygon fill="midnightblue" stroke="midnightblue" points="352.456,-93.6213 343.665,-87.7081 346.85,-97.8129 352.456,-93.6213"/>
</g>
<!-- Node23&#45;&gt;Node12 -->
<g id="edge33" class="edge"><title>Node23&#45;&gt;Node12</title>
<path fill="none" stroke="midnightblue" d="M478.643,-316.668C487.333,-293.267 503,-245.225 503,-203 503,-203 503,-203 503,-139 503,-104.23 513.584,-65.175 521.499,-40.8305"/>
<polygon fill="midnightblue" stroke="midnightblue" points="524.918,-41.6449 524.794,-31.0508 518.284,-39.4096 524.918,-41.6449"/>
</g>
<!-- Node24 -->
<g id="node24" class="node"><title>Node24</title>
<polygon fill="white" stroke="#bfbfbf" points="531,-254.5 531,-273.5 625,-273.5 625,-254.5 531,-254.5"/>
<text text-anchor="middle" x="578" y="-261.5" font-family="Helvetica,sans-Serif" font-size="10.00">hpp/model/fwd.hh</text>
</g>
<!-- Node23&#45;&gt;Node24 -->
<g id="edge30" class="edge"><title>Node23&#45;&gt;Node24</title>
<path fill="none" stroke="midnightblue" d="M495.525,-316.841C513.28,-305.681 537.913,-290.198 555.628,-279.063"/>
<polygon fill="midnightblue" stroke="midnightblue" points="557.584,-281.967 564.188,-273.682 553.859,-276.04 557.584,-281.967"/>
</g>
<!-- Node25 -->
<g id="node25" class="node"><title>Node25</title>
<polygon fill="white" stroke="#bfbfbf" points="643,-249 643,-279 747,-279 747,-249 643,-249"/>
<text text-anchor="start" x="651" y="-267" font-family="Helvetica,sans-Serif" font-size="10.00">hpp/wholebody&#45;step</text>
<text text-anchor="middle" x="695" y="-256" font-family="Helvetica,sans-Serif" font-size="10.00">/deprecated.hh</text>
</g>
<!-- Node23&#45;&gt;Node25 -->
<g id="edge34" class="edge"><title>Node23&#45;&gt;Node25</title>
<path fill="none" stroke="midnightblue" d="M520.352,-316.922C554.69,-306.714 601.301,-292.857 637.733,-282.025"/>
<polygon fill="midnightblue" stroke="midnightblue" points="639.133,-285.261 647.721,-279.056 637.138,-278.551 639.133,-285.261"/>
</g>
</g>
</svg>
