<?xml version="1.0" encoding="UTF-8" standalone="no"?>
<!DOCTYPE svg PUBLIC "-//W3C//DTD SVG 1.1//EN"
 "http://www.w3.org/Graphics/SVG/1.1/DTD/svg11.dtd">
<!-- Generated by graphviz version 2.36.0 (20140111.2315)
 -->
<!-- Title: fwd.hh Pages: 1 -->
<svg width="481pt" height="96pt"
 viewBox="0.00 0.00 481.00 96.00" xmlns="http://www.w3.org/2000/svg" xmlns:xlink="http://www.w3.org/1999/xlink">
<g id="graph0" class="graph" transform="scale(1 1) rotate(0) translate(4 92)">
<title>fwd.hh</title>
<polygon fill="white" stroke="none" points="-4,4 -4,-92 477,-92 477,4 -4,4"/>
<!-- Node1 -->
<g id="node1" class="node"><title>Node1</title>
<polygon fill="#bfbfbf" stroke="black" points="194,-68.5 194,-87.5 240,-87.5 240,-68.5 194,-68.5"/>
<text text-anchor="middle" x="217" y="-75.5" font-family="Helvetica,sans-Serif" font-size="10.00">fwd.hh</text>
</g>
<!-- Node2 -->
<g id="node2" class="node"><title>Node2</title>
<g id="a_node2"><a doxygen="https://jmirabel.github.io/hpp-doc/api/hpp-core/doxygen-html/hpp-core.doxytag:https://jmirabel.github.io/hpp-doc/api/hpp-core/doxygen-html/" xlink:href="https://jmirabel.github.io/hpp-doc/api/hpp-core/doxygen-html/a00001.html" target="_top" xlink:title="hpp/core/fwd.hh">
<polygon fill="white" stroke="black" points="0,-6.5 0,-25.5 86,-25.5 86,-6.5 0,-6.5"/>
<text text-anchor="middle" x="43" y="-13.5" font-family="Helvetica,sans-Serif" font-size="10.00">hpp/core/fwd.hh</text>
</a>
</g>
</g>
<!-- Node1&#45;&gt;Node2 -->
<g id="edge1" class="edge"><title>Node1&#45;&gt;Node2</title>
<path fill="none" stroke="midnightblue" d="M193.894,-69.0325C164.109,-58.7617 112.056,-40.8125 77.5562,-28.9159"/>
<polygon fill="midnightblue" stroke="midnightblue" points="78.4857,-25.5342 67.8909,-25.5831 76.2037,-32.1519 78.4857,-25.5342"/>
</g>
<!-- Node3 -->
<g id="node3" class="node"><title>Node3</title>
<polygon fill="white" stroke="#bfbfbf" points="104,-6.5 104,-25.5 208,-25.5 208,-6.5 104,-6.5"/>
<text text-anchor="middle" x="156" y="-13.5" font-family="Helvetica,sans-Serif" font-size="10.00">hpp/walkgen/fwd.hh</text>
</g>
<!-- Node1&#45;&gt;Node3 -->
<g id="edge2" class="edge"><title>Node1&#45;&gt;Node3</title>
<path fill="none" stroke="midnightblue" d="M208.26,-68.4035C198.838,-59.1361 183.636,-44.1828 172.051,-32.7876"/>
<polygon fill="midnightblue" stroke="midnightblue" points="174.307,-30.0978 164.724,-25.5806 169.399,-35.0883 174.307,-30.0978"/>
</g>
<!-- Node4 -->
<g id="node4" class="node"><title>Node4</title>
<polygon fill="white" stroke="#bfbfbf" points="226,-1 226,-31 330,-31 330,-1 226,-1"/>
<text text-anchor="start" x="234" y="-19" font-family="Helvetica,sans-Serif" font-size="10.00">hpp/wholebody&#45;step</text>
<text text-anchor="middle" x="278" y="-8" font-family="Helvetica,sans-Serif" font-size="10.00">/config.hh</text>
</g>
<!-- Node1&#45;&gt;Node4 -->
<g id="edge3" class="edge"><title>Node1&#45;&gt;Node4</title>
<path fill="none" stroke="midnightblue" d="M225.74,-68.4035C233.693,-60.5811 245.764,-48.7077 256.302,-38.3424"/>
<polygon fill="midnightblue" stroke="midnightblue" points="258.949,-40.6485 263.624,-31.1408 254.04,-35.658 258.949,-40.6485"/>
</g>
<!-- Node5 -->
<g id="node5" class="node"><title>Node5</title>
<polygon fill="white" stroke="#bfbfbf" points="348.5,-1 348.5,-31 473.5,-31 473.5,-1 348.5,-1"/>
<text text-anchor="start" x="356.5" y="-19" font-family="Helvetica,sans-Serif" font-size="10.00">hpp/constraints/symbolic</text>
<text text-anchor="middle" x="411" y="-8" font-family="Helvetica,sans-Serif" font-size="10.00">&#45;function.hh</text>
</g>
<!-- Node1&#45;&gt;Node5 -->
<g id="edge4" class="edge"><title>Node1&#45;&gt;Node5</title>
<path fill="none" stroke="midnightblue" d="M240.016,-69.8816C268.302,-61.1335 317.251,-45.9944 355.548,-34.1502"/>
<polygon fill="midnightblue" stroke="midnightblue" points="357.017,-37.3593 365.537,-31.0608 354.949,-30.6719 357.017,-37.3593"/>
</g>
</g>
</svg>
