<?xml version="1.0" encoding="UTF-8" standalone="no"?>
<!DOCTYPE svg PUBLIC "-//W3C//DTD SVG 1.1//EN"
 "http://www.w3.org/Graphics/SVG/1.1/DTD/svg11.dtd">
<!-- Generated by graphviz version 2.36.0 (20140111.2315)
 -->
<!-- Title: small&#45;steps.hh Pages: 1 -->
<svg width="190pt" height="140pt"
 viewBox="0.00 0.00 190.00 140.00" xmlns="http://www.w3.org/2000/svg" xmlns:xlink="http://www.w3.org/1999/xlink">
<g id="graph0" class="graph" transform="scale(1 1) rotate(0) translate(4 136)">
<title>small&#45;steps.hh</title>
<polygon fill="white" stroke="none" points="-4,4 -4,-136 186,-136 186,4 -4,4"/>
<!-- Node1 -->
<g id="node1" class="node"><title>Node1</title>
<polygon fill="#bfbfbf" stroke="black" points="53,-112.5 53,-131.5 133,-131.5 133,-112.5 53,-112.5"/>
<text text-anchor="middle" x="93" y="-119.5" font-family="Helvetica,sans-Serif" font-size="10.00">small&#45;steps.hh</text>
</g>
<!-- Node2 -->
<g id="node2" class="node"><title>Node2</title>
<g id="a_node2"><a xlink:href="a00016.html" target="_top" xlink:title="functors.hh">
<polygon fill="white" stroke="black" points="-0.5,-56.5 -0.5,-75.5 64.5,-75.5 64.5,-56.5 -0.5,-56.5"/>
<text text-anchor="middle" x="32" y="-63.5" font-family="Helvetica,sans-Serif" font-size="10.00">functors.hh</text>
</a>
</g>
</g>
<!-- Node1&#45;&gt;Node2 -->
<g id="edge1" class="edge"><title>Node1&#45;&gt;Node2</title>
<path fill="none" stroke="midnightblue" d="M75.5328,-105.537C64.6562,-95.9087 51.0561,-83.8694 41.979,-75.8339"/>
<polygon fill="midnightblue" stroke="midnightblue" points="73.3917,-108.316 83.1993,-112.324 78.0316,-103.075 73.3917,-108.316"/>
</g>
<!-- Node3 -->
<g id="node3" class="node"><title>Node3</title>
<g id="a_node3"><a xlink:href="a00017.html" target="_top" xlink:title="small&#45;steps.cc">
<polygon fill="white" stroke="black" points="22,-0.5 22,-19.5 102,-19.5 102,-0.5 22,-0.5"/>
<text text-anchor="middle" x="62" y="-7.5" font-family="Helvetica,sans-Serif" font-size="10.00">small&#45;steps.cc</text>
</a>
</g>
</g>
<!-- Node1&#45;&gt;Node3 -->
<g id="edge4" class="edge"><title>Node1&#45;&gt;Node3</title>
<path fill="none" stroke="midnightblue" d="M87.8354,-102.674C81.0579,-78.6248 69.4367,-37.3881 64.4212,-19.5914"/>
<polygon fill="midnightblue" stroke="midnightblue" points="84.4861,-103.693 90.5675,-112.368 91.2237,-101.794 84.4861,-103.693"/>
</g>
<!-- Node4 -->
<g id="node4" class="node"><title>Node4</title>
<g id="a_node4"><a xlink:href="a00021.html" target="_top" xlink:title="stepper.hh">
<polygon fill="white" stroke="black" points="121,-56.5 121,-75.5 183,-75.5 183,-56.5 121,-56.5"/>
<text text-anchor="middle" x="152" y="-63.5" font-family="Helvetica,sans-Serif" font-size="10.00">stepper.hh</text>
</a>
</g>
</g>
<!-- Node1&#45;&gt;Node4 -->
<g id="edge3" class="edge"><title>Node1&#45;&gt;Node4</title>
<path fill="none" stroke="midnightblue" d="M109.895,-105.537C120.415,-95.9087 133.569,-83.8694 142.348,-75.8339"/>
<polygon fill="midnightblue" stroke="midnightblue" points="107.493,-102.99 102.479,-112.324 112.219,-108.154 107.493,-102.99"/>
</g>
<!-- Node2&#45;&gt;Node3 -->
<g id="edge2" class="edge"><title>Node2&#45;&gt;Node3</title>
<path fill="none" stroke="midnightblue" d="M41.8474,-47.2747C46.9748,-38.0454 53.0165,-27.1703 57.1383,-19.7511"/>
<polygon fill="midnightblue" stroke="midnightblue" points="38.7508,-45.6416 36.9539,-56.083 44.8699,-49.0412 38.7508,-45.6416"/>
</g>
</g>
</svg>
