<?xml version="1.0" encoding="UTF-8" standalone="no"?>
<!DOCTYPE svg PUBLIC "-//W3C//DTD SVG 1.1//EN"
 "http://www.w3.org/Graphics/SVG/1.1/DTD/svg11.dtd">
<!-- Generated by graphviz version 2.36.0 (20140111.2315)
 -->
<!-- Title: fwd.hh Pages: 1 -->
<svg width="385pt" height="252pt"
 viewBox="0.00 0.00 384.79 252.00" xmlns="http://www.w3.org/2000/svg" xmlns:xlink="http://www.w3.org/1999/xlink">
<g id="graph0" class="graph" transform="scale(1 1) rotate(0) translate(4 248)">
<title>fwd.hh</title>
<polygon fill="white" stroke="none" points="-4,4 -4,-248 380.787,-248 380.787,4 -4,4"/>
<!-- Node1 -->
<g id="node1" class="node"><title>Node1</title>
<polygon fill="#bfbfbf" stroke="black" points="70.7247,-224.5 70.7247,-243.5 116.725,-243.5 116.725,-224.5 70.7247,-224.5"/>
<text text-anchor="middle" x="93.7247" y="-231.5" font-family="Helvetica,sans-Serif" font-size="10.00">fwd.hh</text>
</g>
<!-- Node2 -->
<g id="node2" class="node"><title>Node2</title>
<g id="a_node2"><a xlink:href="a00013.html" target="_top" xlink:title="small&#45;steps.hh">
<polygon fill="white" stroke="black" points="15.7247,-112.5 15.7247,-131.5 95.7247,-131.5 95.7247,-112.5 15.7247,-112.5"/>
<text text-anchor="middle" x="55.7247" y="-119.5" font-family="Helvetica,sans-Serif" font-size="10.00">small&#45;steps.hh</text>
</a>
</g>
</g>
<!-- Node1&#45;&gt;Node2 -->
<g id="edge1" class="edge"><title>Node1&#45;&gt;Node2</title>
<path fill="none" stroke="midnightblue" d="M86.1942,-215.152C82.8315,-206.941 78.9164,-197.037 75.7247,-188 68.7259,-168.183 61.7906,-144.499 58.2141,-131.907"/>
<polygon fill="midnightblue" stroke="midnightblue" points="82.9907,-216.563 90.0624,-224.453 89.454,-213.875 82.9907,-216.563"/>
</g>
<!-- Node3 -->
<g id="node3" class="node"><title>Node3</title>
<g id="a_node3"><a xlink:href="a00011.html" target="_top" xlink:title="functors.hh">
<polygon fill="white" stroke="black" points="68.2247,-56.5 68.2247,-75.5 133.225,-75.5 133.225,-56.5 68.2247,-56.5"/>
<text text-anchor="middle" x="100.725" y="-63.5" font-family="Helvetica,sans-Serif" font-size="10.00">functors.hh</text>
</a>
</g>
</g>
<!-- Node1&#45;&gt;Node3 -->
<g id="edge14" class="edge"><title>Node1&#45;&gt;Node3</title>
<path fill="none" stroke="midnightblue" d="M70.2765,-218.799C36.6755,-196.587 -18.4866,-152.021 6.72466,-112 20.1296,-90.7209 46.6902,-79.2829 68.1683,-73.2726"/>
<polygon fill="midnightblue" stroke="midnightblue" points="68.7887,-222.002 79.0973,-224.448 72.5641,-216.108 68.7887,-222.002"/>
</g>
<!-- Node5 -->
<g id="node5" class="node"><title>Node5</title>
<g id="a_node5"><a xlink:href="a00017.html" target="_top" xlink:title="time&#45;dependant.hh">
<polygon fill="white" stroke="black" points="84.2247,-168.5 84.2247,-187.5 181.225,-187.5 181.225,-168.5 84.2247,-168.5"/>
<text text-anchor="middle" x="132.725" y="-175.5" font-family="Helvetica,sans-Serif" font-size="10.00">time&#45;dependant.hh</text>
</a>
</g>
</g>
<!-- Node1&#45;&gt;Node5 -->
<g id="edge5" class="edge"><title>Node1&#45;&gt;Node5</title>
<path fill="none" stroke="midnightblue" d="M106.107,-215.855C112.86,-206.505 120.933,-195.327 126.404,-187.751"/>
<polygon fill="midnightblue" stroke="midnightblue" points="103.182,-213.927 100.165,-224.083 108.857,-218.025 103.182,-213.927"/>
</g>
<!-- Node7 -->
<g id="node7" class="node"><title>Node7</title>
<g id="a_node7"><a xlink:href="a00015.html" target="_top" xlink:title="static&#45;stability&#45;constraint.hh">
<polygon fill="white" stroke="black" points="228.225,-168.5 228.225,-187.5 365.225,-187.5 365.225,-168.5 228.225,-168.5"/>
<text text-anchor="middle" x="296.725" y="-175.5" font-family="Helvetica,sans-Serif" font-size="10.00">static&#45;stability&#45;constraint.hh</text>
</a>
</g>
</g>
<!-- Node1&#45;&gt;Node7 -->
<g id="edge11" class="edge"><title>Node1&#45;&gt;Node7</title>
<path fill="none" stroke="midnightblue" d="M127.094,-224.123C165.224,-213.98 227.184,-197.498 264.73,-187.511"/>
<polygon fill="midnightblue" stroke="midnightblue" points="125.775,-220.852 117.011,-226.806 127.575,-227.617 125.775,-220.852"/>
</g>
<!-- Node2&#45;&gt;Node3 -->
<g id="edge2" class="edge"><title>Node2&#45;&gt;Node3</title>
<path fill="none" stroke="midnightblue" d="M69.7713,-104.144C77.6116,-94.7357 87.0542,-83.4046 93.4321,-75.7511"/>
<polygon fill="midnightblue" stroke="midnightblue" points="66.8686,-102.16 63.1555,-112.083 72.2462,-106.641 66.8686,-102.16"/>
</g>
<!-- Node4 -->
<g id="node4" class="node"><title>Node4</title>
<g id="a_node4"><a xlink:href="a00012.html" target="_top" xlink:title="small&#45;steps.cc">
<polygon fill="white" stroke="black" points="121.725,-0.5 121.725,-19.5 201.725,-19.5 201.725,-0.5 121.725,-0.5"/>
<text text-anchor="middle" x="161.725" y="-7.5" font-family="Helvetica,sans-Serif" font-size="10.00">small&#45;steps.cc</text>
</a>
</g>
</g>
<!-- Node2&#45;&gt;Node4 -->
<g id="edge4" class="edge"><title>Node2&#45;&gt;Node4</title>
<path fill="none" stroke="midnightblue" d="M51.6355,-102.144C49.7079,-88.1915 49.5308,-69.3665 58.7247,-56 73.0459,-35.179 99.2351,-23.9078 121.621,-17.8526"/>
<polygon fill="midnightblue" stroke="midnightblue" points="48.2083,-102.863 53.411,-112.093 55.0994,-101.633 48.2083,-102.863"/>
</g>
<!-- Node3&#45;&gt;Node4 -->
<g id="edge3" class="edge"><title>Node3&#45;&gt;Node4</title>
<path fill="none" stroke="midnightblue" d="M118.192,-49.5372C129.068,-39.9087 142.669,-27.8694 151.746,-19.8339"/>
<polygon fill="midnightblue" stroke="midnightblue" points="115.693,-47.0749 110.525,-56.324 120.333,-52.3162 115.693,-47.0749"/>
</g>
<!-- Node5&#45;&gt;Node2 -->
<g id="edge6" class="edge"><title>Node5&#45;&gt;Node2</title>
<path fill="none" stroke="midnightblue" d="M111.824,-162.342C97.8136,-152.517 79.8417,-139.913 68.0653,-131.655"/>
<polygon fill="midnightblue" stroke="midnightblue" points="110.156,-165.448 120.353,-168.324 114.176,-159.717 110.156,-165.448"/>
</g>
<!-- Node5&#45;&gt;Node3 -->
<g id="edge9" class="edge"><title>Node5&#45;&gt;Node3</title>
<path fill="none" stroke="midnightblue" d="M127.394,-158.674C120.397,-134.625 108.401,-93.3881 103.224,-75.5914"/>
<polygon fill="midnightblue" stroke="midnightblue" points="124.06,-159.744 130.214,-168.368 130.781,-157.789 124.06,-159.744"/>
</g>
<!-- Node5&#45;&gt;Node4 -->
<g id="edge10" class="edge"><title>Node5&#45;&gt;Node4</title>
<path fill="none" stroke="midnightblue" d="M136.056,-157.93C142.347,-121.92 155.745,-45.2312 160.228,-19.5681"/>
<polygon fill="midnightblue" stroke="midnightblue" points="132.557,-157.622 134.284,-168.075 139.453,-158.827 132.557,-157.622"/>
</g>
<!-- Node6 -->
<g id="node6" class="node"><title>Node6</title>
<g id="a_node6"><a xlink:href="a00016.html" target="_top" xlink:title="time&#45;dependant&#45;path.hh">
<polygon fill="white" stroke="black" points="190.225,-56.5 190.225,-75.5 309.225,-75.5 309.225,-56.5 190.225,-56.5"/>
<text text-anchor="middle" x="249.725" y="-63.5" font-family="Helvetica,sans-Serif" font-size="10.00">time&#45;dependant&#45;path.hh</text>
</a>
</g>
</g>
<!-- Node5&#45;&gt;Node6 -->
<g id="edge7" class="edge"><title>Node5&#45;&gt;Node6</title>
<path fill="none" stroke="midnightblue" d="M149.199,-161.512C174.199,-138.007 220.89,-94.1096 240.587,-75.5914"/>
<polygon fill="midnightblue" stroke="midnightblue" points="146.794,-158.969 141.905,-168.368 151.589,-164.069 146.794,-158.969"/>
</g>
<!-- Node6&#45;&gt;Node4 -->
<g id="edge8" class="edge"><title>Node6&#45;&gt;Node4</title>
<path fill="none" stroke="midnightblue" d="M226.748,-50.9005C210.611,-40.9986 189.543,-28.0705 175.828,-19.6545"/>
<polygon fill="midnightblue" stroke="midnightblue" points="225.232,-54.0769 235.586,-56.324 228.893,-48.1106 225.232,-54.0769"/>
</g>
<!-- Node7&#45;&gt;Node4 -->
<g id="edge12" class="edge"><title>Node7&#45;&gt;Node4</title>
<path fill="none" stroke="midnightblue" d="M334.295,-164.542C349.334,-157.496 365.109,-147.014 373.725,-132 378.149,-124.29 377.126,-120.212 373.725,-112 346.11,-45.3317 255.336,-22.5709 201.941,-14.872"/>
<polygon fill="midnightblue" stroke="midnightblue" points="332.903,-161.331 325.097,-168.495 335.667,-167.762 332.903,-161.331"/>
</g>
<!-- Node8 -->
<g id="node8" class="node"><title>Node8</title>
<g id="a_node8"><a xlink:href="a00014.html" target="_top" xlink:title="static&#45;stability&#45;constraint.cc">
<polygon fill="white" stroke="black" points="228.225,-112.5 228.225,-131.5 365.225,-131.5 365.225,-112.5 228.225,-112.5"/>
<text text-anchor="middle" x="296.725" y="-119.5" font-family="Helvetica,sans-Serif" font-size="10.00">static&#45;stability&#45;constraint.cc</text>
</a>
</g>
</g>
<!-- Node7&#45;&gt;Node8 -->
<g id="edge13" class="edge"><title>Node7&#45;&gt;Node8</title>
<path fill="none" stroke="midnightblue" d="M296.725,-157.805C296.725,-148.91 296.725,-138.78 296.725,-131.751"/>
<polygon fill="midnightblue" stroke="midnightblue" points="293.225,-158.083 296.725,-168.083 300.225,-158.083 293.225,-158.083"/>
</g>
</g>
</svg>
