<?xml version="1.0" encoding="UTF-8" standalone="no"?>
<!DOCTYPE svg PUBLIC "-//W3C//DTD SVG 1.1//EN"
 "http://www.w3.org/Graphics/SVG/1.1/DTD/svg11.dtd">
<!-- Generated by graphviz version 2.36.0 (20140111.2315)
 -->
<!-- Title: hpp::wholebodyStep::SmallSteps::PiecewiseAffine Pages: 1 -->
<svg width="156pt" height="176pt"
 viewBox="0.00 0.00 156.00 176.00" xmlns="http://www.w3.org/2000/svg" xmlns:xlink="http://www.w3.org/1999/xlink">
<g id="graph0" class="graph" transform="scale(1 1) rotate(0) translate(4 172)">
<title>hpp::wholebodyStep::SmallSteps::PiecewiseAffine</title>
<polygon fill="white" stroke="none" points="-4,4 -4,-172 152,-172 152,4 -4,4"/>
<!-- Node1 -->
<g id="node1" class="node"><title>Node1</title>
<polygon fill="#bfbfbf" stroke="black" points="-0.5,-1 -0.5,-31 148.5,-31 148.5,-1 -0.5,-1"/>
<text text-anchor="start" x="7.5" y="-19" font-family="Helvetica,sans-Serif" font-size="10.00">hpp::wholebodyStep</text>
<text text-anchor="middle" x="74" y="-8" font-family="Helvetica,sans-Serif" font-size="10.00">::SmallSteps::PiecewiseAffine</text>
</g>
<!-- Node2 -->
<g id="node2" class="node"><title>Node2</title>
<g id="a_node2"><a xlink:title="STL class. ">
<polygon fill="white" stroke="#bfbfbf" points="28,-80.5 28,-99.5 120,-99.5 120,-80.5 28,-80.5"/>
<text text-anchor="middle" x="74" y="-87.5" font-family="Helvetica,sans-Serif" font-size="10.00">std::map&lt; K, T &gt;</text>
</a>
</g>
</g>
<!-- Node2&#45;&gt;Node1 -->
<g id="edge1" class="edge"><title>Node2&#45;&gt;Node1</title>
<path fill="none" stroke="#9a32cd" stroke-dasharray="5,2" d="M74,-70.0846C74,-57.9148 74,-42.3538 74,-31.2316"/>
<polygon fill="#9a32cd" stroke="#9a32cd" points="70.5001,-70.4579 74,-80.4579 77.5001,-70.4579 70.5001,-70.4579"/>
<text text-anchor="middle" x="89" y="-53.5" font-family="Helvetica,sans-Serif" font-size="10.00"> pairs_</text>
</g>
<!-- Node3 -->
<g id="node3" class="node"><title>Node3</title>
<polygon fill="white" stroke="#bfbfbf" points="35.5,-148.5 35.5,-167.5 64.5,-167.5 64.5,-148.5 35.5,-148.5"/>
<text text-anchor="middle" x="50" y="-155.5" font-family="Helvetica,sans-Serif" font-size="10.00">K</text>
</g>
<!-- Node3&#45;&gt;Node2 -->
<g id="edge2" class="edge"><title>Node3&#45;&gt;Node2</title>
<path fill="none" stroke="#9a32cd" stroke-dasharray="5,2" d="M47.9638,-138.238C47.8971,-131.651 48.5801,-124.321 51,-118 53.6417,-111.099 58.8606,-104.735 63.66,-99.9212"/>
<polygon fill="#9a32cd" stroke="#9a32cd" points="44.477,-138.558 48.6094,-148.313 51.4627,-138.11 44.477,-138.558"/>
<text text-anchor="middle" x="63.5" y="-121.5" font-family="Helvetica,sans-Serif" font-size="10.00"> keys</text>
</g>
<!-- Node4 -->
<g id="node4" class="node"><title>Node4</title>
<polygon fill="white" stroke="#bfbfbf" points="83.5,-148.5 83.5,-167.5 112.5,-167.5 112.5,-148.5 83.5,-148.5"/>
<text text-anchor="middle" x="98" y="-155.5" font-family="Helvetica,sans-Serif" font-size="10.00">T</text>
</g>
<!-- Node4&#45;&gt;Node2 -->
<g id="edge3" class="edge"><title>Node4&#45;&gt;Node2</title>
<path fill="none" stroke="#9a32cd" stroke-dasharray="5,2" d="M91.3842,-138.807C86.7725,-126.124 80.8224,-109.762 77.215,-99.8411"/>
<polygon fill="#9a32cd" stroke="#9a32cd" points="88.1556,-140.17 94.8624,-148.372 94.7342,-137.778 88.1556,-140.17"/>
<text text-anchor="middle" x="109.5" y="-121.5" font-family="Helvetica,sans-Serif" font-size="10.00"> elements</text>
</g>
</g>
</svg>
