<?xml version="1.0" encoding="UTF-8" standalone="no"?>
<!DOCTYPE svg PUBLIC "-//W3C//DTD SVG 1.1//EN"
 "http://www.w3.org/Graphics/SVG/1.1/DTD/svg11.dtd">
<!-- Generated by graphviz version 2.36.0 (20140111.2315)
 -->
<!-- Title: time&#45;dependant.hh Pages: 1 -->
<svg width="366pt" height="196pt"
 viewBox="0.00 0.00 366.00 196.00" xmlns="http://www.w3.org/2000/svg" xmlns:xlink="http://www.w3.org/1999/xlink">
<g id="graph0" class="graph" transform="scale(1 1) rotate(0) translate(4 192)">
<title>time&#45;dependant.hh</title>
<polygon fill="white" stroke="none" points="-4,4 -4,-192 362,-192 362,4 -4,4"/>
<!-- Node1 -->
<g id="node1" class="node"><title>Node1</title>
<polygon fill="#bfbfbf" stroke="black" points="122.5,-168.5 122.5,-187.5 219.5,-187.5 219.5,-168.5 122.5,-168.5"/>
<text text-anchor="middle" x="171" y="-175.5" font-family="Helvetica,sans-Serif" font-size="10.00">time&#45;dependant.hh</text>
</g>
<!-- Node2 -->
<g id="node2" class="node"><title>Node2</title>
<g id="a_node2"><a xlink:href="a00018.html" target="_top" xlink:title="small&#45;steps.hh">
<polygon fill="white" stroke="black" points="92,-112.5 92,-131.5 172,-131.5 172,-112.5 92,-112.5"/>
<text text-anchor="middle" x="132" y="-119.5" font-family="Helvetica,sans-Serif" font-size="10.00">small&#45;steps.hh</text>
</a>
</g>
</g>
<!-- Node1&#45;&gt;Node2 -->
<g id="edge1" class="edge"><title>Node1&#45;&gt;Node2</title>
<path fill="none" stroke="midnightblue" d="M158.618,-159.855C151.865,-150.505 143.791,-139.327 138.32,-131.751"/>
<polygon fill="midnightblue" stroke="midnightblue" points="155.868,-162.025 164.56,-168.083 161.542,-157.927 155.868,-162.025"/>
</g>
<!-- Node3 -->
<g id="node3" class="node"><title>Node3</title>
<g id="a_node3"><a xlink:href="a00016.html" target="_top" xlink:title="functors.hh">
<polygon fill="white" stroke="black" points="-0.5,-56.5 -0.5,-75.5 64.5,-75.5 64.5,-56.5 -0.5,-56.5"/>
<text text-anchor="middle" x="32" y="-63.5" font-family="Helvetica,sans-Serif" font-size="10.00">functors.hh</text>
</a>
</g>
</g>
<!-- Node1&#45;&gt;Node3 -->
<g id="edge8" class="edge"><title>Node1&#45;&gt;Node3</title>
<path fill="none" stroke="midnightblue" d="M138.406,-164.4C120.881,-156.665 99.5384,-145.625 83,-132 62.6299,-115.219 45.1951,-88.9813 36.9994,-75.5503"/>
<polygon fill="midnightblue" stroke="midnightblue" points="137.122,-167.657 147.694,-168.352 139.863,-161.216 137.122,-167.657"/>
</g>
<!-- Node4 -->
<g id="node4" class="node"><title>Node4</title>
<g id="a_node4"><a xlink:href="a00017.html" target="_top" xlink:title="small&#45;steps.cc">
<polygon fill="white" stroke="black" points="112,-0.5 112,-19.5 192,-19.5 192,-0.5 112,-0.5"/>
<text text-anchor="middle" x="152" y="-7.5" font-family="Helvetica,sans-Serif" font-size="10.00">small&#45;steps.cc</text>
</a>
</g>
</g>
<!-- Node1&#45;&gt;Node4 -->
<g id="edge9" class="edge"><title>Node1&#45;&gt;Node4</title>
<path fill="none" stroke="midnightblue" d="M179.483,-159.206C189.739,-135.116 204.094,-91.1027 191,-56 185.436,-41.0832 172.453,-27.8287 162.99,-19.6346"/>
<polygon fill="midnightblue" stroke="midnightblue" points="176.213,-157.943 175.301,-168.499 182.596,-160.816 176.213,-157.943"/>
</g>
<!-- Node6 -->
<g id="node6" class="node"><title>Node6</title>
<g id="a_node6"><a xlink:href="a00022.html" target="_top" xlink:title="time&#45;dependant&#45;path.hh">
<polygon fill="white" stroke="black" points="239.5,-112.5 239.5,-131.5 358.5,-131.5 358.5,-112.5 239.5,-112.5"/>
<text text-anchor="middle" x="299" y="-119.5" font-family="Helvetica,sans-Serif" font-size="10.00">time&#45;dependant&#45;path.hh</text>
</a>
</g>
</g>
<!-- Node1&#45;&gt;Node6 -->
<g id="edge6" class="edge"><title>Node1&#45;&gt;Node6</title>
<path fill="none" stroke="midnightblue" d="M200.623,-164.503C224.619,-154.38 257.784,-140.388 278.813,-131.516"/>
<polygon fill="midnightblue" stroke="midnightblue" points="199.135,-161.332 191.282,-168.444 201.856,-167.781 199.135,-161.332"/>
</g>
<!-- Node2&#45;&gt;Node3 -->
<g id="edge2" class="edge"><title>Node2&#45;&gt;Node3</title>
<path fill="none" stroke="midnightblue" d="M106.912,-107.453C88.4509,-97.4835 63.9034,-84.2279 48.0269,-75.6545"/>
<polygon fill="midnightblue" stroke="midnightblue" points="105.471,-110.652 115.933,-112.324 108.797,-104.493 105.471,-110.652"/>
</g>
<!-- Node2&#45;&gt;Node4 -->
<g id="edge5" class="edge"><title>Node2&#45;&gt;Node4</title>
<path fill="none" stroke="midnightblue" d="M120.525,-103.919C113.125,-90.6897 105.922,-71.9851 112,-56 117.721,-40.9535 131.034,-27.7254 140.734,-19.5728"/>
<polygon fill="midnightblue" stroke="midnightblue" points="117.553,-105.769 125.762,-112.468 123.522,-102.112 117.553,-105.769"/>
</g>
<!-- Node5 -->
<g id="node5" class="node"><title>Node5</title>
<g id="a_node5"><a xlink:href="a00021.html" target="_top" xlink:title="stepper.hh">
<polygon fill="white" stroke="black" points="121,-56.5 121,-75.5 183,-75.5 183,-56.5 121,-56.5"/>
<text text-anchor="middle" x="152" y="-63.5" font-family="Helvetica,sans-Serif" font-size="10.00">stepper.hh</text>
</a>
</g>
</g>
<!-- Node2&#45;&gt;Node5 -->
<g id="edge4" class="edge"><title>Node2&#45;&gt;Node5</title>
<path fill="none" stroke="midnightblue" d="M138.782,-102.69C142.152,-93.589 146.069,-83.0141 148.759,-75.7511"/>
<polygon fill="midnightblue" stroke="midnightblue" points="135.494,-101.49 135.303,-112.083 142.058,-103.921 135.494,-101.49"/>
</g>
<!-- Node3&#45;&gt;Node4 -->
<g id="edge3" class="edge"><title>Node3&#45;&gt;Node4</title>
<path fill="none" stroke="midnightblue" d="M60.3731,-52.2321C82.8196,-42.1312 113.535,-28.3091 133.075,-19.5164"/>
<polygon fill="midnightblue" stroke="midnightblue" points="58.6973,-49.1481 51.0144,-56.4435 61.5699,-55.5316 58.6973,-49.1481"/>
</g>
<!-- Node6&#45;&gt;Node4 -->
<g id="edge7" class="edge"><title>Node6&#45;&gt;Node4</title>
<path fill="none" stroke="midnightblue" d="M282.673,-105.221C268.111,-91.5056 245.92,-71.4648 225,-56 206.084,-42.0167 182.71,-28.1526 167.587,-19.5871"/>
<polygon fill="midnightblue" stroke="midnightblue" points="280.643,-108.122 290.298,-112.484 285.471,-103.053 280.643,-108.122"/>
</g>
</g>
</svg>
