<?xml version="1.0" encoding="UTF-8" standalone="no"?>
<!DOCTYPE svg PUBLIC "-//W3C//DTD SVG 1.1//EN"
 "http://www.w3.org/Graphics/SVG/1.1/DTD/svg11.dtd">
<!-- Generated by graphviz version 2.36.0 (20140111.2315)
 -->
<!-- Title: hpp::wholebodyStep::Steps Pages: 1 -->
<svg width="159pt" height="188pt"
 viewBox="0.00 0.00 159.00 188.00" xmlns="http://www.w3.org/2000/svg" xmlns:xlink="http://www.w3.org/1999/xlink">
<g id="graph0" class="graph" transform="scale(1 1) rotate(0) translate(4 184)">
<title>hpp::wholebodyStep::Steps</title>
<polygon fill="white" stroke="none" points="-4,4 -4,-184 155,-184 155,4 -4,4"/>
<!-- Node1 -->
<g id="node1" class="node"><title>Node1</title>
<polygon fill="#bfbfbf" stroke="black" points="-0.5,-1 -0.5,-31 104.5,-31 104.5,-1 -0.5,-1"/>
<text text-anchor="start" x="7.5" y="-19" font-family="Helvetica,sans-Serif" font-size="10.00">hpp::wholebodyStep</text>
<text text-anchor="middle" x="52" y="-8" font-family="Helvetica,sans-Serif" font-size="10.00">::Steps</text>
</g>
<!-- Node2 -->
<g id="node2" class="node"><title>Node2</title>
<g id="a_node2"><a xlink:href="a00011.html" target="_top" xlink:title="hpp::wholebodyStep\l::Step">
<polygon fill="white" stroke="black" points="9.5,-149 9.5,-179 114.5,-179 114.5,-149 9.5,-149"/>
<text text-anchor="start" x="17.5" y="-167" font-family="Helvetica,sans-Serif" font-size="10.00">hpp::wholebodyStep</text>
<text text-anchor="middle" x="62" y="-156" font-family="Helvetica,sans-Serif" font-size="10.00">::Step</text>
</a>
</g>
</g>
<!-- Node2&#45;&gt;Node1 -->
<g id="edge1" class="edge"><title>Node2&#45;&gt;Node1</title>
<path fill="none" stroke="midnightblue" d="M58.8199,-138.261C57.4397,-126.662 55.9295,-112.642 55,-100 53.2237,-75.8411 52.4868,-47.6456 52.1901,-31.116"/>
<polygon fill="midnightblue" stroke="midnightblue" points="55.3864,-139.017 60.0801,-148.515 62.3341,-138.163 55.3864,-139.017"/>
</g>
<!-- Node3 -->
<g id="node3" class="node"><title>Node3</title>
<polygon fill="white" stroke="#bfbfbf" points="64.5,-80.5 64.5,-99.5 151.5,-99.5 151.5,-80.5 64.5,-80.5"/>
<text text-anchor="middle" x="108" y="-87.5" font-family="Helvetica,sans-Serif" font-size="10.00">std::list&lt; Step &gt;</text>
</g>
<!-- Node2&#45;&gt;Node3 -->
<g id="edge3" class="edge"><title>Node2&#45;&gt;Node3</title>
<path fill="none" stroke="#9a32cd" stroke-dasharray="5,2" d="M76.5203,-140.273C85.3069,-126.52 96.0135,-109.762 102.404,-99.7589"/>
<polygon fill="#9a32cd" stroke="#9a32cd" points="73.5226,-138.464 71.0881,-148.775 79.4215,-142.233 73.5226,-138.464"/>
<text text-anchor="middle" x="111.5" y="-121.5" font-family="Helvetica,sans-Serif" font-size="10.00"> elements</text>
</g>
<!-- Node3&#45;&gt;Node1 -->
<g id="edge2" class="edge"><title>Node3&#45;&gt;Node1</title>
<path fill="none" stroke="#9a32cd" stroke-dasharray="5,2" d="M95.0128,-72.3022C85.3331,-59.8569 72.2547,-43.0418 63.069,-31.2316"/>
<polygon fill="#9a32cd" stroke="#9a32cd" points="92.454,-74.7132 101.356,-80.4579 97.9795,-70.4156 92.454,-74.7132"/>
<text text-anchor="middle" x="102.5" y="-53.5" font-family="Helvetica,sans-Serif" font-size="10.00"> steps_</text>
</g>
</g>
</svg>
