<?xml version="1.0" encoding="UTF-8" standalone="no"?>
<!DOCTYPE svg PUBLIC "-//W3C//DTD SVG 1.1//EN"
 "http://www.w3.org/Graphics/SVG/1.1/DTD/svg11.dtd">
<!-- Generated by graphviz version 2.36.0 (20140111.2315)
 -->
<!-- Title: hpp::wholebodyStep::RightHandSideFunctor Pages: 1 -->
<svg width="280pt" height="136pt"
 viewBox="0.00 0.00 280.00 136.00" xmlns="http://www.w3.org/2000/svg" xmlns:xlink="http://www.w3.org/1999/xlink">
<g id="graph0" class="graph" transform="scale(1 1) rotate(0) translate(4 132)">
<title>hpp::wholebodyStep::RightHandSideFunctor</title>
<polygon fill="white" stroke="none" points="-4,4 -4,-132 276,-132 276,4 -4,4"/>
<!-- Node1 -->
<g id="node1" class="node"><title>Node1</title>
<polygon fill="#bfbfbf" stroke="black" points="0,-49 0,-79 122,-79 122,-49 0,-49"/>
<text text-anchor="start" x="8" y="-67" font-family="Helvetica,sans-Serif" font-size="10.00">hpp::wholebodyStep</text>
<text text-anchor="middle" x="61" y="-56" font-family="Helvetica,sans-Serif" font-size="10.00">::RightHandSideFunctor</text>
</g>
<!-- Node2 -->
<g id="node2" class="node"><title>Node2</title>
<g id="a_node2"><a xlink:href="a00002.html" target="_top" xlink:title="hpp::wholebodyStep\l::CubicBSplineToCom">
<polygon fill="white" stroke="black" points="158,-98 158,-128 272,-128 272,-98 158,-98"/>
<text text-anchor="start" x="166" y="-116" font-family="Helvetica,sans-Serif" font-size="10.00">hpp::wholebodyStep</text>
<text text-anchor="middle" x="215" y="-105" font-family="Helvetica,sans-Serif" font-size="10.00">::CubicBSplineToCom</text>
</a>
</g>
</g>
<!-- Node1&#45;&gt;Node2 -->
<g id="edge1" class="edge"><title>Node1&#45;&gt;Node2</title>
<path fill="none" stroke="midnightblue" d="M118.64,-82.2591C134.672,-87.4273 151.936,-92.9924 167.309,-97.9484"/>
<polygon fill="midnightblue" stroke="midnightblue" points="119.437,-78.8385 108.845,-79.1014 117.289,-85.5009 119.437,-78.8385"/>
</g>
<!-- Node3 -->
<g id="node3" class="node"><title>Node3</title>
<g id="a_node3"><a xlink:href="a00004.html" target="_top" xlink:title="hpp::wholebodyStep\l::FootPathToFootPos">
<polygon fill="white" stroke="black" points="160,-49 160,-79 270,-79 270,-49 160,-49"/>
<text text-anchor="start" x="168" y="-67" font-family="Helvetica,sans-Serif" font-size="10.00">hpp::wholebodyStep</text>
<text text-anchor="middle" x="215" y="-56" font-family="Helvetica,sans-Serif" font-size="10.00">::FootPathToFootPos</text>
</a>
</g>
</g>
<!-- Node1&#45;&gt;Node3 -->
<g id="edge2" class="edge"><title>Node1&#45;&gt;Node3</title>
<path fill="none" stroke="midnightblue" d="M132.093,-64C141.393,-64 150.812,-64 159.788,-64"/>
<polygon fill="midnightblue" stroke="midnightblue" points="132.074,-60.5001 122.074,-64 132.074,-67.5001 132.074,-60.5001"/>
</g>
<!-- Node4 -->
<g id="node4" class="node"><title>Node4</title>
<g id="a_node4"><a xlink:href="a00008.html" target="_top" xlink:title="hpp::wholebodyStep\l::ReproducePath">
<polygon fill="white" stroke="black" points="162.5,-0 162.5,-30 267.5,-30 267.5,-0 162.5,-0"/>
<text text-anchor="start" x="170.5" y="-18" font-family="Helvetica,sans-Serif" font-size="10.00">hpp::wholebodyStep</text>
<text text-anchor="middle" x="215" y="-7" font-family="Helvetica,sans-Serif" font-size="10.00">::ReproducePath</text>
</a>
</g>
</g>
<!-- Node1&#45;&gt;Node4 -->
<g id="edge3" class="edge"><title>Node1&#45;&gt;Node4</title>
<path fill="none" stroke="midnightblue" d="M118.64,-45.7409C134.672,-40.5727 151.936,-35.0076 167.309,-30.0516"/>
<polygon fill="midnightblue" stroke="midnightblue" points="117.289,-42.4991 108.845,-48.8986 119.437,-49.1615 117.289,-42.4991"/>
</g>
</g>
</svg>
