<?xml version="1.0" encoding="UTF-8" standalone="no"?>
<!DOCTYPE svg PUBLIC "-//W3C//DTD SVG 1.1//EN"
 "http://www.w3.org/Graphics/SVG/1.1/DTD/svg11.dtd">
<!-- Generated by graphviz version 2.36.0 (20140111.2315)
 -->
<!-- Title: node&#45;rod.h Pages: 1 -->
<svg width="3241pt" height="332pt"
 viewBox="0.00 0.00 3241.00 332.00" xmlns="http://www.w3.org/2000/svg" xmlns:xlink="http://www.w3.org/1999/xlink">
<g id="graph0" class="graph" transform="scale(1 1) rotate(0) translate(4 328)">
<title>node&#45;rod.h</title>
<polygon fill="white" stroke="none" points="-4,4 -4,-328 3237,-328 3237,4 -4,4"/>
<!-- Node1 -->
<g id="node1" class="node"><title>Node1</title>
<polygon fill="#bfbfbf" stroke="black" points="1916,-304.5 1916,-323.5 1978,-323.5 1978,-304.5 1916,-304.5"/>
<text text-anchor="middle" x="1947" y="-311.5" font-family="Helvetica,sans-Serif" font-size="10.00">node&#45;rod.h</text>
</g>
<!-- Node2 -->
<g id="node2" class="node"><title>Node2</title>
<g id="a_node2"><a xlink:href="a00027.html" target="_top" xlink:title="gepetto/viewer/group\l&#45;node.h">
<polygon fill="white" stroke="black" points="1833.5,-237 1833.5,-267 1940.5,-267 1940.5,-237 1833.5,-237"/>
<text text-anchor="start" x="1841.5" y="-255" font-family="Helvetica,sans-Serif" font-size="10.00">gepetto/viewer/group</text>
<text text-anchor="middle" x="1887" y="-244" font-family="Helvetica,sans-Serif" font-size="10.00">&#45;node.h</text>
</a>
</g>
</g>
<!-- Node1&#45;&gt;Node2 -->
<g id="edge1" class="edge"><title>Node1&#45;&gt;Node2</title>
<path fill="none" stroke="midnightblue" d="M1938.4,-304.403C1930.58,-296.581 1918.71,-284.708 1908.34,-274.342"/>
<polygon fill="midnightblue" stroke="midnightblue" points="1910.69,-271.737 1901.14,-267.141 1905.74,-276.687 1910.69,-271.737"/>
</g>
<!-- Node5 -->
<g id="node5" class="node"><title>Node5</title>
<g id="a_node5"><a xlink:href="a00025.html" target="_top" xlink:title="gepetto/viewer/config\l&#45;osg.h">
<polygon fill="white" stroke="black" points="1750,-113 1750,-143 1860,-143 1860,-113 1750,-113"/>
<text text-anchor="start" x="1758" y="-131" font-family="Helvetica,sans-Serif" font-size="10.00">gepetto/viewer/config</text>
<text text-anchor="middle" x="1805" y="-120" font-family="Helvetica,sans-Serif" font-size="10.00">&#45;osg.h</text>
</a>
</g>
</g>
<!-- Node1&#45;&gt;Node5 -->
<g id="edge40" class="edge"><title>Node1&#45;&gt;Node5</title>
<path fill="none" stroke="midnightblue" d="M1915.84,-310.299C1887.61,-306.101 1847.15,-295.381 1825,-268 1798.51,-235.249 1798.66,-183.389 1801.57,-153.133"/>
<polygon fill="midnightblue" stroke="midnightblue" points="1805.06,-153.371 1802.72,-143.039 1798.11,-152.579 1805.06,-153.371"/>
</g>
<!-- Node38 -->
<g id="node38" class="node"><title>Node38</title>
<g id="a_node38"><a xlink:href="a00031.html" target="_top" xlink:title="gepetto/viewer/leaf\l&#45;node&#45;capsule.h">
<polygon fill="white" stroke="black" points="1958.5,-237 1958.5,-267 2057.5,-267 2057.5,-237 1958.5,-237"/>
<text text-anchor="start" x="1966.5" y="-255" font-family="Helvetica,sans-Serif" font-size="10.00">gepetto/viewer/leaf</text>
<text text-anchor="middle" x="2008" y="-244" font-family="Helvetica,sans-Serif" font-size="10.00">&#45;node&#45;capsule.h</text>
</a>
</g>
</g>
<!-- Node1&#45;&gt;Node38 -->
<g id="edge37" class="edge"><title>Node1&#45;&gt;Node38</title>
<path fill="none" stroke="midnightblue" d="M1955.74,-304.403C1963.69,-296.581 1975.76,-284.708 1986.3,-274.342"/>
<polygon fill="midnightblue" stroke="midnightblue" points="1988.95,-276.648 1993.62,-267.141 1984.04,-271.658 1988.95,-276.648"/>
</g>
<!-- Node40 -->
<g id="node40" class="node"><title>Node40</title>
<polygon fill="white" stroke="#bfbfbf" points="2076,-242.5 2076,-261.5 2120,-261.5 2120,-242.5 2076,-242.5"/>
<text text-anchor="middle" x="2098" y="-249.5" font-family="Helvetica,sans-Serif" font-size="10.00">vector</text>
</g>
<!-- Node1&#45;&gt;Node40 -->
<g id="edge41" class="edge"><title>Node1&#45;&gt;Node40</title>
<path fill="none" stroke="midnightblue" d="M1971.37,-304.404C1995.58,-295.721 2033.65,-281.674 2066,-268 2067.59,-267.327 2069.22,-266.62 2070.86,-265.895"/>
<polygon fill="midnightblue" stroke="midnightblue" points="2072.52,-268.986 2080.17,-261.654 2069.62,-262.616 2072.52,-268.986"/>
</g>
<!-- Node3 -->
<g id="node3" class="node"><title>Node3</title>
<g id="a_node3"><a xlink:href="a00044.html" target="_top" xlink:title="gepetto/viewer/node.h">
<polygon fill="white" stroke="black" points="1833.5,-180.5 1833.5,-199.5 1946.5,-199.5 1946.5,-180.5 1833.5,-180.5"/>
<text text-anchor="middle" x="1890" y="-187.5" font-family="Helvetica,sans-Serif" font-size="10.00">gepetto/viewer/node.h</text>
</a>
</g>
</g>
<!-- Node2&#45;&gt;Node3 -->
<g id="edge2" class="edge"><title>Node2&#45;&gt;Node3</title>
<path fill="none" stroke="midnightblue" d="M1887.71,-236.781C1888.12,-228.691 1888.63,-218.462 1889.06,-209.725"/>
<polygon fill="midnightblue" stroke="midnightblue" points="1892.56,-209.893 1889.56,-199.731 1885.57,-209.543 1892.56,-209.893"/>
</g>
<!-- Node4 -->
<g id="node4" class="node"><title>Node4</title>
<polygon fill="white" stroke="#bfbfbf" points="1878,-118.5 1878,-137.5 1932,-137.5 1932,-118.5 1878,-118.5"/>
<text text-anchor="middle" x="1905" y="-125.5" font-family="Helvetica,sans-Serif" font-size="10.00">iostream</text>
</g>
<!-- Node3&#45;&gt;Node4 -->
<g id="edge3" class="edge"><title>Node3&#45;&gt;Node4</title>
<path fill="none" stroke="midnightblue" d="M1892.15,-180.403C1894.29,-171.849 1897.64,-158.45 1900.38,-147.476"/>
<polygon fill="midnightblue" stroke="midnightblue" points="1903.82,-148.131 1902.85,-137.581 1897.03,-146.433 1903.82,-148.131"/>
</g>
<!-- Node3&#45;&gt;Node5 -->
<g id="edge4" class="edge"><title>Node3&#45;&gt;Node5</title>
<path fill="none" stroke="midnightblue" d="M1877.82,-180.403C1866.31,-172.277 1848.6,-159.779 1833.53,-149.142"/>
<polygon fill="midnightblue" stroke="midnightblue" points="1835.22,-146.048 1825.03,-143.141 1831.18,-151.767 1835.22,-146.048"/>
</g>
<!-- Node6 -->
<g id="node6" class="node"><title>Node6</title>
<g id="a_node6"><a xlink:href="a00041.html" target="_top" xlink:title="gepetto/viewer/macros.h">
<polygon fill="white" stroke="black" points="115,-56.5 115,-75.5 239,-75.5 239,-56.5 115,-56.5"/>
<text text-anchor="middle" x="177" y="-63.5" font-family="Helvetica,sans-Serif" font-size="10.00">gepetto/viewer/macros.h</text>
</a>
</g>
</g>
<!-- Node5&#45;&gt;Node6 -->
<g id="edge5" class="edge"><title>Node5&#45;&gt;Node6</title>
<path fill="none" stroke="midnightblue" d="M1749.73,-127.053C1549.41,-126.851 842.392,-122.714 249.34,-76.0267"/>
<polygon fill="midnightblue" stroke="midnightblue" points="249.549,-72.5324 239.304,-75.2317 248.996,-79.5105 249.549,-72.5324"/>
</g>
<!-- Node10 -->
<g id="node10" class="node"><title>Node10</title>
<polygon fill="white" stroke="#bfbfbf" points="257.5,-56.5 257.5,-75.5 320.5,-75.5 320.5,-56.5 257.5,-56.5"/>
<text text-anchor="middle" x="289" y="-63.5" font-family="Helvetica,sans-Serif" font-size="10.00">osg/Shape</text>
</g>
<!-- Node5&#45;&gt;Node10 -->
<g id="edge9" class="edge"><title>Node5&#45;&gt;Node10</title>
<path fill="none" stroke="midnightblue" d="M1749.97,-126.435C1519.84,-123.866 632.893,-111.884 330.752,-75.7899"/>
<polygon fill="midnightblue" stroke="midnightblue" points="331.038,-72.2988 320.685,-74.5507 330.183,-79.2463 331.038,-72.2988"/>
</g>
<!-- Node11 -->
<g id="node11" class="node"><title>Node11</title>
<polygon fill="white" stroke="#bfbfbf" points="339,-56.5 339,-75.5 443,-75.5 443,-56.5 339,-56.5"/>
<text text-anchor="middle" x="391" y="-63.5" font-family="Helvetica,sans-Serif" font-size="10.00">osg/ShapeDrawable</text>
</g>
<!-- Node5&#45;&gt;Node11 -->
<g id="edge10" class="edge"><title>Node5&#45;&gt;Node11</title>
<path fill="none" stroke="midnightblue" d="M1749.76,-127.069C1566.6,-126.843 962.403,-122.448 453.32,-76.0127"/>
<polygon fill="midnightblue" stroke="midnightblue" points="453.477,-72.5125 443.198,-75.0828 452.836,-79.4831 453.477,-72.5125"/>
</g>
<!-- Node12 -->
<g id="node12" class="node"><title>Node12</title>
<polygon fill="white" stroke="#bfbfbf" points="461,-56.5 461,-75.5 539,-75.5 539,-56.5 461,-56.5"/>
<text text-anchor="middle" x="500" y="-63.5" font-family="Helvetica,sans-Serif" font-size="10.00">osg/Geometry</text>
</g>
<!-- Node5&#45;&gt;Node12 -->
<g id="edge11" class="edge"><title>Node5&#45;&gt;Node12</title>
<path fill="none" stroke="midnightblue" d="M1749.96,-127.602C1575.38,-128.912 1018.48,-128.471 549.247,-75.9641"/>
<polygon fill="midnightblue" stroke="midnightblue" points="549.552,-72.4764 539.223,-74.8329 548.767,-79.4322 549.552,-72.4764"/>
</g>
<!-- Node13 -->
<g id="node13" class="node"><title>Node13</title>
<polygon fill="white" stroke="#bfbfbf" points="557,-56.5 557,-75.5 621,-75.5 621,-56.5 557,-56.5"/>
<text text-anchor="middle" x="589" y="-63.5" font-family="Helvetica,sans-Serif" font-size="10.00">osg/Geode</text>
</g>
<!-- Node5&#45;&gt;Node13 -->
<g id="edge12" class="edge"><title>Node5&#45;&gt;Node13</title>
<path fill="none" stroke="midnightblue" d="M1749.95,-125.873C1551.23,-121.611 870.474,-105.28 631.172,-75.8791"/>
<polygon fill="midnightblue" stroke="midnightblue" points="631.498,-72.3924 621.136,-74.6041 630.616,-79.3366 631.498,-72.3924"/>
</g>
<!-- Node14 -->
<g id="node14" class="node"><title>Node14</title>
<polygon fill="white" stroke="#bfbfbf" points="638.5,-56.5 638.5,-75.5 787.5,-75.5 787.5,-56.5 638.5,-56.5"/>
<text text-anchor="middle" x="713" y="-63.5" font-family="Helvetica,sans-Serif" font-size="10.00">osg/PositionAttitudeTransform</text>
</g>
<!-- Node5&#45;&gt;Node14 -->
<g id="edge13" class="edge"><title>Node5&#45;&gt;Node14</title>
<path fill="none" stroke="midnightblue" d="M1749.75,-125.296C1599.01,-120.412 1167.79,-104.883 797.739,-76.0095"/>
<polygon fill="midnightblue" stroke="midnightblue" points="797.878,-72.5097 787.635,-75.2165 797.33,-79.4882 797.878,-72.5097"/>
</g>
<!-- Node15 -->
<g id="node15" class="node"><title>Node15</title>
<polygon fill="white" stroke="#bfbfbf" points="806,-56.5 806,-75.5 906,-75.5 906,-56.5 806,-56.5"/>
<text text-anchor="middle" x="856" y="-63.5" font-family="Helvetica,sans-Serif" font-size="10.00">osg/AutoTransform</text>
</g>
<!-- Node5&#45;&gt;Node15 -->
<g id="edge14" class="edge"><title>Node5&#45;&gt;Node15</title>
<path fill="none" stroke="midnightblue" d="M1749.98,-125.596C1610.28,-121.651 1230.66,-108.556 916,-76 915.899,-75.9895 915.797,-75.9789 915.695,-75.9683"/>
<polygon fill="midnightblue" stroke="midnightblue" points="916.381,-72.5243 906.047,-74.8573 915.581,-79.4784 916.381,-72.5243"/>
</g>
<!-- Node16 -->
<g id="node16" class="node"><title>Node16</title>
<polygon fill="white" stroke="#bfbfbf" points="924.5,-56.5 924.5,-75.5 1031.5,-75.5 1031.5,-56.5 924.5,-56.5"/>
<text text-anchor="middle" x="978" y="-63.5" font-family="Helvetica,sans-Serif" font-size="10.00">osg/MatrixTransform</text>
</g>
<!-- Node5&#45;&gt;Node16 -->
<g id="edge15" class="edge"><title>Node5&#45;&gt;Node16</title>
<path fill="none" stroke="midnightblue" d="M1749.67,-124.786C1625.08,-119.481 1312.82,-104.406 1041.77,-76.1156"/>
<polygon fill="midnightblue" stroke="midnightblue" points="1042.05,-72.6261 1031.74,-75.0608 1041.32,-79.5877 1042.05,-72.6261"/>
</g>
<!-- Node17 -->
<g id="node17" class="node"><title>Node17</title>
<polygon fill="white" stroke="#bfbfbf" points="1049.5,-56.5 1049.5,-75.5 1108.5,-75.5 1108.5,-56.5 1049.5,-56.5"/>
<text text-anchor="middle" x="1079" y="-63.5" font-family="Helvetica,sans-Serif" font-size="10.00">osg/Node</text>
</g>
<!-- Node5&#45;&gt;Node17 -->
<g id="edge16" class="edge"><title>Node5&#45;&gt;Node17</title>
<path fill="none" stroke="midnightblue" d="M1749.91,-125.761C1634.51,-122.551 1358.92,-111.662 1118.69,-75.8544"/>
<polygon fill="midnightblue" stroke="midnightblue" points="1119.13,-72.3815 1108.72,-74.351 1118.09,-79.3032 1119.13,-72.3815"/>
</g>
<!-- Node18 -->
<g id="node18" class="node"><title>Node18</title>
<polygon fill="white" stroke="#bfbfbf" points="1127,-56.5 1127,-75.5 1189,-75.5 1189,-56.5 1127,-56.5"/>
<text text-anchor="middle" x="1158" y="-63.5" font-family="Helvetica,sans-Serif" font-size="10.00">osg/Group</text>
</g>
<!-- Node5&#45;&gt;Node18 -->
<g id="edge17" class="edge"><title>Node5&#45;&gt;Node18</title>
<path fill="none" stroke="midnightblue" d="M1749.88,-124.908C1644.59,-120.361 1407.55,-107.471 1199.26,-75.9981"/>
<polygon fill="midnightblue" stroke="midnightblue" points="1199.78,-72.5367 1189.37,-74.4853 1198.72,-79.4563 1199.78,-72.5367"/>
</g>
<!-- Node19 -->
<g id="node19" class="node"><title>Node19</title>
<polygon fill="white" stroke="#bfbfbf" points="1207.5,-56.5 1207.5,-75.5 1272.5,-75.5 1272.5,-56.5 1207.5,-56.5"/>
<text text-anchor="middle" x="1240" y="-63.5" font-family="Helvetica,sans-Serif" font-size="10.00">osg/Switch</text>
</g>
<!-- Node5&#45;&gt;Node19 -->
<g id="edge18" class="edge"><title>Node5&#45;&gt;Node19</title>
<path fill="none" stroke="midnightblue" d="M1749.77,-123.691C1655.87,-117.609 1458.96,-102.893 1282.91,-75.9714"/>
<polygon fill="midnightblue" stroke="midnightblue" points="1283.37,-72.5003 1272.95,-74.4313 1282.3,-79.4181 1283.37,-72.5003"/>
</g>
<!-- Node20 -->
<g id="node20" class="node"><title>Node20</title>
<polygon fill="white" stroke="#bfbfbf" points="1291,-56.5 1291,-75.5 1435,-75.5 1435,-56.5 1291,-56.5"/>
<text text-anchor="middle" x="1363" y="-63.5" font-family="Helvetica,sans-Serif" font-size="10.00">osgShadow/ShadowedScene</text>
</g>
<!-- Node5&#45;&gt;Node20 -->
<g id="edge19" class="edge"><title>Node5&#45;&gt;Node20</title>
<path fill="none" stroke="midnightblue" d="M1749.91,-119.522C1670.59,-108.754 1524.05,-88.8618 1435.85,-76.8897"/>
<polygon fill="midnightblue" stroke="midnightblue" points="1436.3,-73.4188 1425.92,-75.5418 1435.36,-80.3552 1436.3,-73.4188"/>
</g>
<!-- Node21 -->
<g id="node21" class="node"><title>Node21</title>
<polygon fill="white" stroke="#bfbfbf" points="1453,-56.5 1453,-75.5 1647,-75.5 1647,-56.5 1453,-56.5"/>
<text text-anchor="middle" x="1550" y="-63.5" font-family="Helvetica,sans-Serif" font-size="10.00">osgShadow/ViewDependentShadowMap</text>
</g>
<!-- Node5&#45;&gt;Node21 -->
<g id="edge20" class="edge"><title>Node5&#45;&gt;Node21</title>
<path fill="none" stroke="midnightblue" d="M1749.98,-114.055C1704.17,-103.275 1639.66,-88.0957 1596.41,-77.9211"/>
<polygon fill="midnightblue" stroke="midnightblue" points="1596.98,-74.4589 1586.45,-75.5754 1595.38,-81.2728 1596.98,-74.4589"/>
</g>
<!-- Node22 -->
<g id="node22" class="node"><title>Node22</title>
<polygon fill="white" stroke="#bfbfbf" points="1665,-56.5 1665,-75.5 1747,-75.5 1747,-56.5 1665,-56.5"/>
<text text-anchor="middle" x="1706" y="-63.5" font-family="Helvetica,sans-Serif" font-size="10.00">osg/ClearNode</text>
</g>
<!-- Node5&#45;&gt;Node22 -->
<g id="edge21" class="edge"><title>Node5&#45;&gt;Node22</title>
<path fill="none" stroke="midnightblue" d="M1781.79,-112.933C1765.83,-103.262 1744.74,-90.4793 1728.86,-80.8546"/>
<polygon fill="midnightblue" stroke="midnightblue" points="1730.56,-77.7899 1720.19,-75.6 1726.93,-83.7763 1730.56,-77.7899"/>
</g>
<!-- Node23 -->
<g id="node23" class="node"><title>Node23</title>
<polygon fill="white" stroke="#bfbfbf" points="1765.5,-56.5 1765.5,-75.5 1844.5,-75.5 1844.5,-56.5 1765.5,-56.5"/>
<text text-anchor="middle" x="1805" y="-63.5" font-family="Helvetica,sans-Serif" font-size="10.00">osg/LineWidth</text>
</g>
<!-- Node5&#45;&gt;Node23 -->
<g id="edge22" class="edge"><title>Node5&#45;&gt;Node23</title>
<path fill="none" stroke="midnightblue" d="M1805,-112.781C1805,-104.781 1805,-94.6887 1805,-86.0168"/>
<polygon fill="midnightblue" stroke="midnightblue" points="1808.5,-85.7305 1805,-75.7305 1801.5,-85.7306 1808.5,-85.7305"/>
</g>
<!-- Node24 -->
<g id="node24" class="node"><title>Node24</title>
<polygon fill="white" stroke="#bfbfbf" points="1863,-56.5 1863,-75.5 1945,-75.5 1945,-56.5 1863,-56.5"/>
<text text-anchor="middle" x="1904" y="-63.5" font-family="Helvetica,sans-Serif" font-size="10.00">osg/AlphaFunc</text>
</g>
<!-- Node5&#45;&gt;Node24 -->
<g id="edge23" class="edge"><title>Node5&#45;&gt;Node24</title>
<path fill="none" stroke="midnightblue" d="M1828.21,-112.933C1844.17,-103.262 1865.26,-90.4793 1881.14,-80.8546"/>
<polygon fill="midnightblue" stroke="midnightblue" points="1883.07,-83.7763 1889.81,-75.6 1879.44,-77.7899 1883.07,-83.7763"/>
</g>
<!-- Node25 -->
<g id="node25" class="node"><title>Node25</title>
<polygon fill="white" stroke="#bfbfbf" points="1963,-56.5 1963,-75.5 2045,-75.5 2045,-56.5 1963,-56.5"/>
<text text-anchor="middle" x="2004" y="-63.5" font-family="Helvetica,sans-Serif" font-size="10.00">osg/BlendFunc</text>
</g>
<!-- Node5&#45;&gt;Node25 -->
<g id="edge24" class="edge"><title>Node5&#45;&gt;Node25</title>
<path fill="none" stroke="midnightblue" d="M1851.66,-112.933C1886.53,-102.417 1933.61,-88.2222 1966.16,-78.4087"/>
<polygon fill="midnightblue" stroke="midnightblue" points="1967.2,-81.7505 1975.77,-75.5127 1965.18,-75.0485 1967.2,-81.7505"/>
</g>
<!-- Node26 -->
<g id="node26" class="node"><title>Node26</title>
<polygon fill="white" stroke="#bfbfbf" points="2063,-56.5 2063,-75.5 2137,-75.5 2137,-56.5 2063,-56.5"/>
<text text-anchor="middle" x="2100" y="-63.5" font-family="Helvetica,sans-Serif" font-size="10.00">osg/StateSet</text>
</g>
<!-- Node5&#45;&gt;Node26 -->
<g id="edge25" class="edge"><title>Node5&#45;&gt;Node26</title>
<path fill="none" stroke="midnightblue" d="M1860.13,-113.939C1863.13,-113.272 1866.1,-112.622 1869,-112 1947.86,-95.0913 1970.15,-92.2407 2052.99,-76.1893"/>
<polygon fill="midnightblue" stroke="midnightblue" points="2053.7,-79.6177 2062.84,-74.2731 2052.36,-72.7464 2053.7,-79.6177"/>
</g>
<!-- Node27 -->
<g id="node27" class="node"><title>Node27</title>
<polygon fill="white" stroke="#bfbfbf" points="2155,-56.5 2155,-75.5 2217,-75.5 2217,-56.5 2155,-56.5"/>
<text text-anchor="middle" x="2186" y="-63.5" font-family="Helvetica,sans-Serif" font-size="10.00">osg/Depth</text>
</g>
<!-- Node5&#45;&gt;Node27 -->
<g id="edge26" class="edge"><title>Node5&#45;&gt;Node27</title>
<path fill="none" stroke="midnightblue" d="M1860.08,-113.717C1863.09,-113.108 1866.08,-112.53 1869,-112 1987.93,-90.3923 2021.97,-97.2561 2144.46,-76.1283"/>
<polygon fill="midnightblue" stroke="midnightblue" points="2145.37,-79.5233 2154.61,-74.3491 2144.16,-72.6284 2145.37,-79.5233"/>
</g>
<!-- Node28 -->
<g id="node28" class="node"><title>Node28</title>
<polygon fill="white" stroke="#bfbfbf" points="2235.5,-56.5 2235.5,-75.5 2294.5,-75.5 2294.5,-56.5 2235.5,-56.5"/>
<text text-anchor="middle" x="2265" y="-63.5" font-family="Helvetica,sans-Serif" font-size="10.00">osg/State</text>
</g>
<!-- Node5&#45;&gt;Node28 -->
<g id="edge27" class="edge"><title>Node5&#45;&gt;Node28</title>
<path fill="none" stroke="midnightblue" d="M1860.07,-113.616C1863.08,-113.033 1866.07,-112.489 1869,-112 2025.86,-85.8006 2068.03,-101.501 2225,-76 2225.11,-75.9829 2225.21,-75.9656 2225.32,-75.9483"/>
<polygon fill="midnightblue" stroke="midnightblue" points="2226.18,-79.3487 2235.37,-74.0844 2224.9,-72.466 2226.18,-79.3487"/>
</g>
<!-- Node29 -->
<g id="node29" class="node"><title>Node29</title>
<polygon fill="white" stroke="#bfbfbf" points="2313,-56.5 2313,-75.5 2369,-75.5 2369,-56.5 2313,-56.5"/>
<text text-anchor="middle" x="2341" y="-63.5" font-family="Helvetica,sans-Serif" font-size="10.00">osg/Light</text>
</g>
<!-- Node5&#45;&gt;Node29 -->
<g id="edge28" class="edge"><title>Node5&#45;&gt;Node29</title>
<path fill="none" stroke="midnightblue" d="M1860.06,-113.553C1863.07,-112.986 1866.07,-112.462 1869,-112 2060.19,-81.8347 2111.85,-106.389 2303,-76 2303.1,-75.984 2303.2,-75.9679 2303.3,-75.9517"/>
<polygon fill="midnightblue" stroke="midnightblue" points="2303.69,-79.4404 2312.87,-74.1575 2302.4,-72.5602 2303.69,-79.4404"/>
</g>
<!-- Node30 -->
<g id="node30" class="node"><title>Node30</title>
<polygon fill="white" stroke="#bfbfbf" points="2387.5,-56.5 2387.5,-75.5 2474.5,-75.5 2474.5,-56.5 2387.5,-56.5"/>
<text text-anchor="middle" x="2431" y="-63.5" font-family="Helvetica,sans-Serif" font-size="10.00">osg/LightSource</text>
</g>
<!-- Node5&#45;&gt;Node30 -->
<g id="edge29" class="edge"><title>Node5&#45;&gt;Node30</title>
<path fill="none" stroke="midnightblue" d="M1860.05,-113.51C1863.07,-112.954 1866.07,-112.445 1869,-112 2092.79,-78.0673 2152.23,-102.635 2377,-76 2377.11,-75.9874 2377.21,-75.9748 2377.32,-75.9621"/>
<polygon fill="midnightblue" stroke="midnightblue" points="2377.98,-79.4056 2387.43,-74.6241 2377.06,-72.4661 2377.98,-79.4056"/>
</g>
<!-- Node31 -->
<g id="node31" class="node"><title>Node31</title>
<polygon fill="white" stroke="#bfbfbf" points="2493,-56.5 2493,-75.5 2563,-75.5 2563,-56.5 2493,-56.5"/>
<text text-anchor="middle" x="2528" y="-63.5" font-family="Helvetica,sans-Serif" font-size="10.00">osg/Material</text>
</g>
<!-- Node5&#45;&gt;Node31 -->
<g id="edge30" class="edge"><title>Node5&#45;&gt;Node31</title>
<path fill="none" stroke="midnightblue" d="M1860.04,-113.467C1863.06,-112.922 1866.06,-112.427 1869,-112 2136.21,-73.1465 2210.08,-109.967 2482.51,-75.8388"/>
<polygon fill="midnightblue" stroke="midnightblue" points="2483.23,-79.2762 2492.7,-74.5408 2482.34,-72.3323 2483.23,-79.2762"/>
</g>
<!-- Node32 -->
<g id="node32" class="node"><title>Node32</title>
<polygon fill="white" stroke="#bfbfbf" points="2581,-56.5 2581,-75.5 2651,-75.5 2651,-56.5 2581,-56.5"/>
<text text-anchor="middle" x="2616" y="-63.5" font-family="Helvetica,sans-Serif" font-size="10.00">osg/Camera</text>
</g>
<!-- Node5&#45;&gt;Node32 -->
<g id="edge31" class="edge"><title>Node5&#45;&gt;Node32</title>
<path fill="none" stroke="midnightblue" d="M1860.04,-113.44C1863.06,-112.902 1866.06,-112.416 1869,-112 2175.44,-68.6003 2259.84,-114.453 2570.34,-76.014"/>
<polygon fill="midnightblue" stroke="midnightblue" points="2571.05,-79.4523 2580.53,-74.7317 2570.18,-72.507 2571.05,-79.4523"/>
</g>
<!-- Node33 -->
<g id="node33" class="node"><title>Node33</title>
<polygon fill="white" stroke="#bfbfbf" points="2669,-56.5 2669,-75.5 2743,-75.5 2743,-56.5 2669,-56.5"/>
<text text-anchor="middle" x="2706" y="-63.5" font-family="Helvetica,sans-Serif" font-size="10.00">osg/Viewport</text>
</g>
<!-- Node5&#45;&gt;Node33 -->
<g id="edge32" class="edge"><title>Node5&#45;&gt;Node33</title>
<path fill="none" stroke="midnightblue" d="M1860.04,-113.42C1863.06,-112.887 1866.06,-112.408 1869,-112 2214.26,-64.1018 2308.79,-116.877 2658.75,-75.9498"/>
<polygon fill="midnightblue" stroke="midnightblue" points="2659.4,-79.3977 2668.92,-74.7433 2658.57,-72.4465 2659.4,-79.3977"/>
</g>
<!-- Node34 -->
<g id="node34" class="node"><title>Node34</title>
<polygon fill="white" stroke="#bfbfbf" points="2761.5,-56.5 2761.5,-75.5 2856.5,-75.5 2856.5,-56.5 2761.5,-56.5"/>
<text text-anchor="middle" x="2809" y="-63.5" font-family="Helvetica,sans-Serif" font-size="10.00">osgViewer/Viewer</text>
</g>
<!-- Node5&#45;&gt;Node34 -->
<g id="edge33" class="edge"><title>Node5&#45;&gt;Node34</title>
<path fill="none" stroke="midnightblue" d="M1860.03,-113.403C1863.06,-112.875 1866.06,-112.401 1869,-112 2254.85,-59.402 2359.36,-113.749 2751.27,-75.9256"/>
<polygon fill="midnightblue" stroke="midnightblue" points="2751.86,-79.385 2761.47,-74.927 2751.17,-72.4184 2751.86,-79.385"/>
</g>
<!-- Node35 -->
<g id="node35" class="node"><title>Node35</title>
<polygon fill="white" stroke="#bfbfbf" points="2875,-56.5 2875,-75.5 2993,-75.5 2993,-56.5 2875,-56.5"/>
<text text-anchor="middle" x="2934" y="-63.5" font-family="Helvetica,sans-Serif" font-size="10.00">osgViewer/ViewerBase</text>
</g>
<!-- Node5&#45;&gt;Node35 -->
<g id="edge34" class="edge"><title>Node5&#45;&gt;Node35</title>
<path fill="none" stroke="midnightblue" d="M1860.03,-113.387C1863.06,-112.863 1866.06,-112.394 1869,-112 2304.71,-53.6291 2421.8,-111.792 2864.75,-75.9097"/>
<polygon fill="midnightblue" stroke="midnightblue" points="2865.26,-79.3796 2874.94,-75.0723 2864.69,-72.4031 2865.26,-79.3796"/>
</g>
<!-- Node36 -->
<g id="node36" class="node"><title>Node36</title>
<polygon fill="white" stroke="#bfbfbf" points="3011.5,-56.5 3011.5,-75.5 3120.5,-75.5 3120.5,-56.5 3011.5,-56.5"/>
<text text-anchor="middle" x="3066" y="-63.5" font-family="Helvetica,sans-Serif" font-size="10.00">osg/GraphicsContext</text>
</g>
<!-- Node5&#45;&gt;Node36 -->
<g id="edge35" class="edge"><title>Node5&#45;&gt;Node36</title>
<path fill="none" stroke="midnightblue" d="M1860.03,-113.371C1863.05,-112.851 1866.06,-112.388 1869,-112 2365.2,-46.6276 2498.29,-118.186 3001.17,-75.9538"/>
<polygon fill="midnightblue" stroke="midnightblue" points="3001.56,-79.4332 3011.23,-75.098 3000.97,-72.4584 3001.56,-79.4332"/>
</g>
<!-- Node37 -->
<g id="node37" class="node"><title>Node37</title>
<polygon fill="white" stroke="#bfbfbf" points="3138.5,-56.5 3138.5,-75.5 3233.5,-75.5 3233.5,-56.5 3138.5,-56.5"/>
<text text-anchor="middle" x="3186" y="-63.5" font-family="Helvetica,sans-Serif" font-size="10.00">osg/PolygonMode</text>
</g>
<!-- Node5&#45;&gt;Node37 -->
<g id="edge36" class="edge"><title>Node5&#45;&gt;Node37</title>
<path fill="none" stroke="midnightblue" d="M1860.03,-113.36C1863.05,-112.843 1866.06,-112.383 1869,-112 2421.15,-40.1544 2569.37,-126.724 3128.13,-75.9222"/>
<polygon fill="midnightblue" stroke="midnightblue" points="3128.83,-79.3723 3138.47,-74.9707 3128.19,-72.4018 3128.83,-79.3723"/>
</g>
<!-- Node7 -->
<g id="node7" class="node"><title>Node7</title>
<polygon fill="white" stroke="#bfbfbf" points="0,-0.5 0,-19.5 108,-19.5 108,-0.5 0,-0.5"/>
<text text-anchor="middle" x="54" y="-7.5" font-family="Helvetica,sans-Serif" font-size="10.00">boost/shared_ptr.hpp</text>
</g>
<!-- Node6&#45;&gt;Node7 -->
<g id="edge6" class="edge"><title>Node6&#45;&gt;Node7</title>
<path fill="none" stroke="midnightblue" d="M157.51,-56.4435C137.358,-47.5961 105.677,-33.6875 82.6692,-23.5865"/>
<polygon fill="midnightblue" stroke="midnightblue" points="83.962,-20.3316 73.3985,-19.5164 81.148,-26.7411 83.962,-20.3316"/>
</g>
<!-- Node8 -->
<g id="node8" class="node"><title>Node8</title>
<polygon fill="white" stroke="#bfbfbf" points="126,-0.5 126,-19.5 228,-19.5 228,-0.5 126,-0.5"/>
<text text-anchor="middle" x="177" y="-7.5" font-family="Helvetica,sans-Serif" font-size="10.00">boost/weak_ptr.hpp</text>
</g>
<!-- Node6&#45;&gt;Node8 -->
<g id="edge7" class="edge"><title>Node6&#45;&gt;Node8</title>
<path fill="none" stroke="midnightblue" d="M177,-56.083C177,-49.0059 177,-38.8611 177,-29.9865"/>
<polygon fill="midnightblue" stroke="midnightblue" points="180.5,-29.751 177,-19.7511 173.5,-29.7511 180.5,-29.751"/>
</g>
<!-- Node9 -->
<g id="node9" class="node"><title>Node9</title>
<polygon fill="white" stroke="#bfbfbf" points="246.5,-0.5 246.5,-19.5 309.5,-19.5 309.5,-0.5 246.5,-0.5"/>
<text text-anchor="middle" x="278" y="-7.5" font-family="Helvetica,sans-Serif" font-size="10.00">osg/ref_ptr</text>
</g>
<!-- Node6&#45;&gt;Node9 -->
<g id="edge8" class="edge"><title>Node6&#45;&gt;Node9</title>
<path fill="none" stroke="midnightblue" d="M193.227,-56.324C209.351,-47.7034 234.3,-34.3643 252.964,-24.3855"/>
<polygon fill="midnightblue" stroke="midnightblue" points="254.644,-27.456 261.813,-19.6545 251.344,-21.283 254.644,-27.456"/>
</g>
<!-- Node38&#45;&gt;Node3 -->
<g id="edge38" class="edge"><title>Node38&#45;&gt;Node3</title>
<path fill="none" stroke="midnightblue" d="M1980.33,-236.933C1960.87,-227.036 1935,-213.88 1915.93,-204.185"/>
<polygon fill="midnightblue" stroke="midnightblue" points="1917.41,-201.013 1906.91,-199.6 1914.24,-207.252 1917.41,-201.013"/>
</g>
<!-- Node39 -->
<g id="node39" class="node"><title>Node39</title>
<polygon fill="white" stroke="#bfbfbf" points="1964.5,-180.5 1964.5,-199.5 2053.5,-199.5 2053.5,-180.5 1964.5,-180.5"/>
<text text-anchor="middle" x="2009" y="-187.5" font-family="Helvetica,sans-Serif" font-size="10.00">osgDB/ReadFile</text>
</g>
<!-- Node38&#45;&gt;Node39 -->
<g id="edge39" class="edge"><title>Node38&#45;&gt;Node39</title>
<path fill="none" stroke="midnightblue" d="M2008.24,-236.781C2008.37,-228.781 2008.54,-218.689 2008.68,-210.017"/>
<polygon fill="midnightblue" stroke="midnightblue" points="2012.19,-209.788 2008.85,-199.731 2005.19,-209.671 2012.19,-209.788"/>
</g>
</g>
</svg>
