<?xml version="1.0" encoding="UTF-8" standalone="no"?>
<!DOCTYPE svg PUBLIC "-//W3C//DTD SVG 1.1//EN"
 "http://www.w3.org/Graphics/SVG/1.1/DTD/svg11.dtd">
<!-- Generated by graphviz version 2.36.0 (20140111.2315)
 -->
<!-- Title: keyboard&#45;manipulator.h Pages: 1 -->
<svg width="596pt" height="84pt"
 viewBox="0.00 0.00 596.00 84.00" xmlns="http://www.w3.org/2000/svg" xmlns:xlink="http://www.w3.org/1999/xlink">
<g id="graph0" class="graph" transform="scale(1 1) rotate(0) translate(4 80)">
<title>keyboard&#45;manipulator.h</title>
<polygon fill="white" stroke="none" points="-4,4 -4,-80 592,-80 592,4 -4,4"/>
<!-- Node1 -->
<g id="node1" class="node"><title>Node1</title>
<polygon fill="#bfbfbf" stroke="black" points="257,-56.5 257,-75.5 375,-75.5 375,-56.5 257,-56.5"/>
<text text-anchor="middle" x="316" y="-63.5" font-family="Helvetica,sans-Serif" font-size="10.00">keyboard&#45;manipulator.h</text>
</g>
<!-- Node2 -->
<g id="node2" class="node"><title>Node2</title>
<polygon fill="white" stroke="#bfbfbf" points="-1,-0.5 -1,-19.5 149,-19.5 149,-0.5 -1,-0.5"/>
<text text-anchor="middle" x="74" y="-7.5" font-family="Helvetica,sans-Serif" font-size="10.00">osgGA/FirstPersonManipulator</text>
</g>
<!-- Node1&#45;&gt;Node2 -->
<g id="edge1" class="edge"><title>Node1&#45;&gt;Node2</title>
<path fill="none" stroke="midnightblue" d="M277.654,-56.4435C235.527,-47.0431 167.794,-31.9291 122.128,-21.7393"/>
<polygon fill="midnightblue" stroke="midnightblue" points="122.688,-18.2784 112.166,-19.5164 121.164,-25.1103 122.688,-18.2784"/>
</g>
<!-- Node3 -->
<g id="node3" class="node"><title>Node3</title>
<polygon fill="white" stroke="#bfbfbf" points="167.5,-0.5 167.5,-19.5 262.5,-19.5 262.5,-0.5 167.5,-0.5"/>
<text text-anchor="middle" x="215" y="-7.5" font-family="Helvetica,sans-Serif" font-size="10.00">osgViewer/Viewer</text>
</g>
<!-- Node1&#45;&gt;Node3 -->
<g id="edge2" class="edge"><title>Node1&#45;&gt;Node3</title>
<path fill="none" stroke="midnightblue" d="M299.773,-56.324C283.649,-47.7034 258.7,-34.3643 240.036,-24.3855"/>
<polygon fill="midnightblue" stroke="midnightblue" points="241.656,-21.283 231.187,-19.6545 238.356,-27.456 241.656,-21.283"/>
</g>
<!-- Node4 -->
<g id="node4" class="node"><title>Node4</title>
<polygon fill="white" stroke="#bfbfbf" points="281,-0.5 281,-19.5 351,-19.5 351,-0.5 281,-0.5"/>
<text text-anchor="middle" x="316" y="-7.5" font-family="Helvetica,sans-Serif" font-size="10.00">osg/Camera</text>
</g>
<!-- Node1&#45;&gt;Node4 -->
<g id="edge3" class="edge"><title>Node1&#45;&gt;Node4</title>
<path fill="none" stroke="midnightblue" d="M316,-56.083C316,-49.0059 316,-38.8611 316,-29.9865"/>
<polygon fill="midnightblue" stroke="midnightblue" points="319.5,-29.751 316,-19.7511 312.5,-29.7511 319.5,-29.751"/>
</g>
<!-- Node5 -->
<g id="node5" class="node"><title>Node5</title>
<polygon fill="white" stroke="#bfbfbf" points="369,-0.5 369,-19.5 509,-19.5 509,-0.5 369,-0.5"/>
<text text-anchor="middle" x="439" y="-7.5" font-family="Helvetica,sans-Serif" font-size="10.00">osgViewer/GraphicsWindow</text>
</g>
<!-- Node1&#45;&gt;Node5 -->
<g id="edge4" class="edge"><title>Node1&#45;&gt;Node5</title>
<path fill="none" stroke="midnightblue" d="M335.49,-56.4435C355.642,-47.5961 387.323,-33.6875 410.331,-23.5865"/>
<polygon fill="midnightblue" stroke="midnightblue" points="411.852,-26.7411 419.601,-19.5164 409.038,-20.3316 411.852,-26.7411"/>
</g>
<!-- Node6 -->
<g id="node6" class="node"><title>Node6</title>
<polygon fill="white" stroke="#bfbfbf" points="527,-0.5 527,-19.5 589,-19.5 589,-0.5 527,-0.5"/>
<text text-anchor="middle" x="558" y="-7.5" font-family="Helvetica,sans-Serif" font-size="10.00">X11/Xlib.h</text>
</g>
<!-- Node1&#45;&gt;Node6 -->
<g id="edge5" class="edge"><title>Node1&#45;&gt;Node6</title>
<path fill="none" stroke="midnightblue" d="M354.354,-56.4811C392.927,-47.9081 454.384,-34.2335 516.946,-20.2326"/>
<polygon fill="midnightblue" stroke="midnightblue" points="517.999,-23.5836 526.993,-17.9835 516.469,-16.7527 517.999,-23.5836"/>
</g>
</g>
</svg>
