<?xml version="1.0" encoding="UTF-8" standalone="no"?>
<!DOCTYPE svg PUBLIC "-//W3C//DTD SVG 1.1//EN"
 "http://www.w3.org/Graphics/SVG/1.1/DTD/svg11.dtd">
<!-- Generated by graphviz version 2.36.0 (20140111.2315)
 -->
<!-- Title: config&#45;osg.h Pages: 1 -->
<svg width="3241pt" height="140pt"
 viewBox="0.00 0.00 3241.00 140.00" xmlns="http://www.w3.org/2000/svg" xmlns:xlink="http://www.w3.org/1999/xlink">
<g id="graph0" class="graph" transform="scale(1 1) rotate(0) translate(4 136)">
<title>config&#45;osg.h</title>
<polygon fill="white" stroke="none" points="-4,4 -4,-136 3237,-136 3237,4 -4,4"/>
<!-- Node1 -->
<g id="node1" class="node"><title>Node1</title>
<polygon fill="#bfbfbf" stroke="black" points="1770,-112.5 1770,-131.5 1840,-131.5 1840,-112.5 1770,-112.5"/>
<text text-anchor="middle" x="1805" y="-119.5" font-family="Helvetica,sans-Serif" font-size="10.00">config&#45;osg.h</text>
</g>
<!-- Node2 -->
<g id="node2" class="node"><title>Node2</title>
<g id="a_node2"><a xlink:href="a00037.html" target="_top" xlink:title="gepetto/viewer/macros.h">
<polygon fill="white" stroke="black" points="115,-56.5 115,-75.5 239,-75.5 239,-56.5 115,-56.5"/>
<text text-anchor="middle" x="177" y="-63.5" font-family="Helvetica,sans-Serif" font-size="10.00">gepetto/viewer/macros.h</text>
</a>
</g>
</g>
<!-- Node1&#45;&gt;Node2 -->
<g id="edge1" class="edge"><title>Node1&#45;&gt;Node2</title>
<path fill="none" stroke="midnightblue" d="M1769.88,-121.223C1601.11,-122.033 856.629,-122.656 249,-76 248.898,-75.9922 248.796,-75.9843 248.694,-75.9764"/>
<polygon fill="midnightblue" stroke="midnightblue" points="249.281,-72.5144 239.015,-75.1331 248.673,-79.4879 249.281,-72.5144"/>
</g>
<!-- Node6 -->
<g id="node6" class="node"><title>Node6</title>
<polygon fill="white" stroke="#bfbfbf" points="257.5,-56.5 257.5,-75.5 320.5,-75.5 320.5,-56.5 257.5,-56.5"/>
<text text-anchor="middle" x="289" y="-63.5" font-family="Helvetica,sans-Serif" font-size="10.00">osg/Shape</text>
</g>
<!-- Node1&#45;&gt;Node6 -->
<g id="edge5" class="edge"><title>Node1&#45;&gt;Node6</title>
<path fill="none" stroke="midnightblue" d="M1769.92,-120.814C1576.99,-119.656 642.908,-112.302 331.066,-75.8181"/>
<polygon fill="midnightblue" stroke="midnightblue" points="331.031,-72.2885 320.684,-74.5636 330.192,-79.2379 331.031,-72.2885"/>
</g>
<!-- Node7 -->
<g id="node7" class="node"><title>Node7</title>
<polygon fill="white" stroke="#bfbfbf" points="339,-56.5 339,-75.5 443,-75.5 443,-56.5 339,-56.5"/>
<text text-anchor="middle" x="391" y="-63.5" font-family="Helvetica,sans-Serif" font-size="10.00">osg/ShapeDrawable</text>
</g>
<!-- Node1&#45;&gt;Node7 -->
<g id="edge6" class="edge"><title>Node1&#45;&gt;Node7</title>
<path fill="none" stroke="midnightblue" d="M1769.89,-121.291C1615.66,-122.265 982.684,-123.078 453.329,-76.0061"/>
<polygon fill="midnightblue" stroke="midnightblue" points="453.47,-72.5047 443.197,-75.0981 452.845,-79.4768 453.47,-72.5047"/>
</g>
<!-- Node8 -->
<g id="node8" class="node"><title>Node8</title>
<polygon fill="white" stroke="#bfbfbf" points="461,-56.5 461,-75.5 539,-75.5 539,-56.5 461,-56.5"/>
<text text-anchor="middle" x="500" y="-63.5" font-family="Helvetica,sans-Serif" font-size="10.00">osg/Geometry</text>
</g>
<!-- Node1&#45;&gt;Node8 -->
<g id="edge7" class="edge"><title>Node1&#45;&gt;Node8</title>
<path fill="none" stroke="midnightblue" d="M1769.75,-120.451C1594.41,-117.615 814.492,-103.707 549.197,-75.9268"/>
<polygon fill="midnightblue" stroke="midnightblue" points="549.539,-72.4435 539.221,-74.8483 548.787,-79.403 549.539,-72.4435"/>
</g>
<!-- Node9 -->
<g id="node9" class="node"><title>Node9</title>
<polygon fill="white" stroke="#bfbfbf" points="557,-56.5 557,-75.5 621,-75.5 621,-56.5 557,-56.5"/>
<text text-anchor="middle" x="589" y="-63.5" font-family="Helvetica,sans-Serif" font-size="10.00">osg/Geode</text>
</g>
<!-- Node1&#45;&gt;Node9 -->
<g id="edge8" class="edge"><title>Node1&#45;&gt;Node9</title>
<path fill="none" stroke="midnightblue" d="M1769.8,-120.496C1601.7,-117.964 878.961,-105.604 631.162,-75.8665"/>
<polygon fill="midnightblue" stroke="midnightblue" points="631.49,-72.3803 621.134,-74.6198 630.626,-79.3268 631.49,-72.3803"/>
</g>
<!-- Node10 -->
<g id="node10" class="node"><title>Node10</title>
<polygon fill="white" stroke="#bfbfbf" points="638.5,-56.5 638.5,-75.5 787.5,-75.5 787.5,-56.5 638.5,-56.5"/>
<text text-anchor="middle" x="713" y="-63.5" font-family="Helvetica,sans-Serif" font-size="10.00">osg/PositionAttitudeTransform</text>
</g>
<!-- Node1&#45;&gt;Node10 -->
<g id="edge9" class="edge"><title>Node1&#45;&gt;Node10</title>
<path fill="none" stroke="midnightblue" d="M1769.69,-120.218C1641.05,-117.201 1185.23,-105.048 797.639,-75.9946"/>
<polygon fill="midnightblue" stroke="midnightblue" points="797.868,-72.502 787.633,-75.2396 797.341,-79.4821 797.868,-72.502"/>
</g>
<!-- Node11 -->
<g id="node11" class="node"><title>Node11</title>
<polygon fill="white" stroke="#bfbfbf" points="806,-56.5 806,-75.5 906,-75.5 906,-56.5 806,-56.5"/>
<text text-anchor="middle" x="856" y="-63.5" font-family="Helvetica,sans-Serif" font-size="10.00">osg/AutoTransform</text>
</g>
<!-- Node1&#45;&gt;Node11 -->
<g id="edge10" class="edge"><title>Node1&#45;&gt;Node11</title>
<path fill="none" stroke="midnightblue" d="M1769.75,-120.46C1649.88,-118.358 1246.99,-109.12 916,-76 915.898,-75.9898 915.797,-75.9796 915.695,-75.9694"/>
<polygon fill="midnightblue" stroke="midnightblue" points="916.373,-72.5237 906.044,-74.8826 915.59,-79.4797 916.373,-72.5237"/>
</g>
<!-- Node12 -->
<g id="node12" class="node"><title>Node12</title>
<polygon fill="white" stroke="#bfbfbf" points="924.5,-56.5 924.5,-75.5 1031.5,-75.5 1031.5,-56.5 924.5,-56.5"/>
<text text-anchor="middle" x="978" y="-63.5" font-family="Helvetica,sans-Serif" font-size="10.00">osg/MatrixTransform</text>
</g>
<!-- Node1&#45;&gt;Node12 -->
<g id="edge11" class="edge"><title>Node1&#45;&gt;Node12</title>
<path fill="none" stroke="midnightblue" d="M1769.89,-119.97C1662.56,-116.602 1329.2,-104.511 1041.78,-75.9847"/>
<polygon fill="midnightblue" stroke="midnightblue" points="1041.88,-72.4767 1031.58,-74.9629 1041.18,-79.4419 1041.88,-72.4767"/>
</g>
<!-- Node13 -->
<g id="node13" class="node"><title>Node13</title>
<polygon fill="white" stroke="#bfbfbf" points="1049.5,-56.5 1049.5,-75.5 1108.5,-75.5 1108.5,-56.5 1049.5,-56.5"/>
<text text-anchor="middle" x="1079" y="-63.5" font-family="Helvetica,sans-Serif" font-size="10.00">osg/Node</text>
</g>
<!-- Node1&#45;&gt;Node13 -->
<g id="edge12" class="edge"><title>Node1&#45;&gt;Node13</title>
<path fill="none" stroke="midnightblue" d="M1769.76,-120.694C1669.43,-119.398 1373.68,-112.637 1118.9,-75.8678"/>
<polygon fill="midnightblue" stroke="midnightblue" points="1119.12,-72.3618 1108.72,-74.378 1118.1,-79.2881 1119.12,-72.3618"/>
</g>
<!-- Node14 -->
<g id="node14" class="node"><title>Node14</title>
<polygon fill="white" stroke="#bfbfbf" points="1127,-56.5 1127,-75.5 1189,-75.5 1189,-56.5 1127,-56.5"/>
<text text-anchor="middle" x="1158" y="-63.5" font-family="Helvetica,sans-Serif" font-size="10.00">osg/Group</text>
</g>
<!-- Node1&#45;&gt;Node14 -->
<g id="edge13" class="edge"><title>Node1&#45;&gt;Node14</title>
<path fill="none" stroke="midnightblue" d="M1769.97,-120.136C1678.03,-117.501 1422.21,-107.791 1199.18,-75.7823"/>
<polygon fill="midnightblue" stroke="midnightblue" points="1199.65,-72.3146 1189.26,-74.3399 1198.65,-79.2418 1199.65,-72.3146"/>
</g>
<!-- Node15 -->
<g id="node15" class="node"><title>Node15</title>
<polygon fill="white" stroke="#bfbfbf" points="1207.5,-56.5 1207.5,-75.5 1272.5,-75.5 1272.5,-56.5 1207.5,-56.5"/>
<text text-anchor="middle" x="1240" y="-63.5" font-family="Helvetica,sans-Serif" font-size="10.00">osg/Switch</text>
</g>
<!-- Node1&#45;&gt;Node15 -->
<g id="edge14" class="edge"><title>Node1&#45;&gt;Node15</title>
<path fill="none" stroke="midnightblue" d="M1769.94,-119.502C1687.01,-115.635 1472.24,-103.726 1283.07,-75.9722"/>
<polygon fill="midnightblue" stroke="midnightblue" points="1283.35,-72.475 1272.94,-74.4672 1282.32,-79.399 1283.35,-72.475"/>
</g>
<!-- Node16 -->
<g id="node16" class="node"><title>Node16</title>
<polygon fill="white" stroke="#bfbfbf" points="1291,-56.5 1291,-75.5 1435,-75.5 1435,-56.5 1291,-56.5"/>
<text text-anchor="middle" x="1363" y="-63.5" font-family="Helvetica,sans-Serif" font-size="10.00">osgShadow/ShadowedScene</text>
</g>
<!-- Node1&#45;&gt;Node16 -->
<g id="edge15" class="edge"><title>Node1&#45;&gt;Node16</title>
<path fill="none" stroke="midnightblue" d="M1769.95,-116.718C1699.64,-108.128 1539.86,-88.6071 1442.74,-76.7415"/>
<polygon fill="midnightblue" stroke="midnightblue" points="1443.02,-73.25 1432.67,-75.5114 1442.17,-80.1983 1443.02,-73.25"/>
</g>
<!-- Node17 -->
<g id="node17" class="node"><title>Node17</title>
<polygon fill="white" stroke="#bfbfbf" points="1453,-56.5 1453,-75.5 1647,-75.5 1647,-56.5 1453,-56.5"/>
<text text-anchor="middle" x="1550" y="-63.5" font-family="Helvetica,sans-Serif" font-size="10.00">osgShadow/ViewDependentShadowMap</text>
</g>
<!-- Node1&#45;&gt;Node17 -->
<g id="edge16" class="edge"><title>Node1&#45;&gt;Node17</title>
<path fill="none" stroke="midnightblue" d="M1769.81,-113.548C1725.84,-104.237 1650.3,-88.2399 1600.25,-77.6411"/>
<polygon fill="midnightblue" stroke="midnightblue" points="1600.79,-74.179 1590.29,-75.5313 1599.34,-81.0272 1600.79,-74.179"/>
</g>
<!-- Node18 -->
<g id="node18" class="node"><title>Node18</title>
<polygon fill="white" stroke="#bfbfbf" points="1665,-56.5 1665,-75.5 1747,-75.5 1747,-56.5 1665,-56.5"/>
<text text-anchor="middle" x="1706" y="-63.5" font-family="Helvetica,sans-Serif" font-size="10.00">osg/ClearNode</text>
</g>
<!-- Node1&#45;&gt;Node18 -->
<g id="edge17" class="edge"><title>Node1&#45;&gt;Node18</title>
<path fill="none" stroke="midnightblue" d="M1789.09,-112.324C1773.36,-103.743 1749.06,-90.486 1730.79,-80.5224"/>
<polygon fill="midnightblue" stroke="midnightblue" points="1732.32,-77.3704 1721.87,-75.6545 1728.97,-83.5157 1732.32,-77.3704"/>
</g>
<!-- Node19 -->
<g id="node19" class="node"><title>Node19</title>
<polygon fill="white" stroke="#bfbfbf" points="1765.5,-56.5 1765.5,-75.5 1844.5,-75.5 1844.5,-56.5 1765.5,-56.5"/>
<text text-anchor="middle" x="1805" y="-63.5" font-family="Helvetica,sans-Serif" font-size="10.00">osg/LineWidth</text>
</g>
<!-- Node1&#45;&gt;Node19 -->
<g id="edge18" class="edge"><title>Node1&#45;&gt;Node19</title>
<path fill="none" stroke="midnightblue" d="M1805,-112.083C1805,-105.006 1805,-94.8611 1805,-85.9865"/>
<polygon fill="midnightblue" stroke="midnightblue" points="1808.5,-85.751 1805,-75.7511 1801.5,-85.7511 1808.5,-85.751"/>
</g>
<!-- Node20 -->
<g id="node20" class="node"><title>Node20</title>
<polygon fill="white" stroke="#bfbfbf" points="1863,-56.5 1863,-75.5 1945,-75.5 1945,-56.5 1863,-56.5"/>
<text text-anchor="middle" x="1904" y="-63.5" font-family="Helvetica,sans-Serif" font-size="10.00">osg/AlphaFunc</text>
</g>
<!-- Node1&#45;&gt;Node20 -->
<g id="edge19" class="edge"><title>Node1&#45;&gt;Node20</title>
<path fill="none" stroke="midnightblue" d="M1820.91,-112.324C1836.64,-103.743 1860.94,-90.486 1879.21,-80.5224"/>
<polygon fill="midnightblue" stroke="midnightblue" points="1881.03,-83.5157 1888.13,-75.6545 1877.68,-77.3704 1881.03,-83.5157"/>
</g>
<!-- Node21 -->
<g id="node21" class="node"><title>Node21</title>
<polygon fill="white" stroke="#bfbfbf" points="1963,-56.5 1963,-75.5 2045,-75.5 2045,-56.5 1963,-56.5"/>
<text text-anchor="middle" x="2004" y="-63.5" font-family="Helvetica,sans-Serif" font-size="10.00">osg/BlendFunc</text>
</g>
<!-- Node1&#45;&gt;Node21 -->
<g id="edge20" class="edge"><title>Node1&#45;&gt;Node21</title>
<path fill="none" stroke="midnightblue" d="M1836.53,-112.444C1870.59,-103.201 1925.01,-88.4356 1962.52,-78.2572"/>
<polygon fill="midnightblue" stroke="midnightblue" points="1963.88,-81.5132 1972.62,-75.5164 1962.05,-74.7575 1963.88,-81.5132"/>
</g>
<!-- Node22 -->
<g id="node22" class="node"><title>Node22</title>
<polygon fill="white" stroke="#bfbfbf" points="2063,-56.5 2063,-75.5 2137,-75.5 2137,-56.5 2063,-56.5"/>
<text text-anchor="middle" x="2100" y="-63.5" font-family="Helvetica,sans-Serif" font-size="10.00">osg/StateSet</text>
</g>
<!-- Node1&#45;&gt;Node22 -->
<g id="edge21" class="edge"><title>Node1&#45;&gt;Node22</title>
<path fill="none" stroke="midnightblue" d="M1840.08,-114.825C1886.43,-106.629 1970.87,-91.5741 2052.87,-76.1928"/>
<polygon fill="midnightblue" stroke="midnightblue" points="2053.67,-79.6032 2062.85,-74.3158 2052.38,-72.7237 2053.67,-79.6032"/>
</g>
<!-- Node23 -->
<g id="node23" class="node"><title>Node23</title>
<polygon fill="white" stroke="#bfbfbf" points="2155,-56.5 2155,-75.5 2217,-75.5 2217,-56.5 2155,-56.5"/>
<text text-anchor="middle" x="2186" y="-63.5" font-family="Helvetica,sans-Serif" font-size="10.00">osg/Depth</text>
</g>
<!-- Node1&#45;&gt;Node23 -->
<g id="edge22" class="edge"><title>Node1&#45;&gt;Node23</title>
<path fill="none" stroke="midnightblue" d="M1840.01,-117.433C1900.28,-111.066 2027.67,-96.6092 2144.76,-76.0882"/>
<polygon fill="midnightblue" stroke="midnightblue" points="2145.38,-79.5342 2154.61,-74.3432 2144.15,-72.6416 2145.38,-79.5342"/>
</g>
<!-- Node24 -->
<g id="node24" class="node"><title>Node24</title>
<polygon fill="white" stroke="#bfbfbf" points="2235.5,-56.5 2235.5,-75.5 2294.5,-75.5 2294.5,-56.5 2235.5,-56.5"/>
<text text-anchor="middle" x="2265" y="-63.5" font-family="Helvetica,sans-Serif" font-size="10.00">osg/State</text>
</g>
<!-- Node1&#45;&gt;Node24 -->
<g id="edge23" class="edge"><title>Node1&#45;&gt;Node24</title>
<path fill="none" stroke="midnightblue" d="M1840.03,-118.611C1912.33,-113.38 2083.19,-99.4705 2225,-76 2225.11,-75.9826 2225.21,-75.965 2225.32,-75.9474"/>
<polygon fill="midnightblue" stroke="midnightblue" points="2226.18,-79.3461 2235.37,-74.0645 2224.89,-72.4658 2226.18,-79.3461"/>
</g>
<!-- Node25 -->
<g id="node25" class="node"><title>Node25</title>
<polygon fill="white" stroke="#bfbfbf" points="2313,-56.5 2313,-75.5 2369,-75.5 2369,-56.5 2313,-56.5"/>
<text text-anchor="middle" x="2341" y="-63.5" font-family="Helvetica,sans-Serif" font-size="10.00">osg/Light</text>
</g>
<!-- Node1&#45;&gt;Node25 -->
<g id="edge24" class="edge"><title>Node1&#45;&gt;Node25</title>
<path fill="none" stroke="midnightblue" d="M1840.23,-119.543C1922,-115.785 2130.78,-104.03 2303,-76 2303.1,-75.9837 2303.2,-75.9672 2303.3,-75.9506"/>
<polygon fill="midnightblue" stroke="midnightblue" points="2303.7,-79.4382 2312.87,-74.1341 2302.39,-72.5611 2303.7,-79.4382"/>
</g>
<!-- Node26 -->
<g id="node26" class="node"><title>Node26</title>
<polygon fill="white" stroke="#bfbfbf" points="2387.5,-56.5 2387.5,-75.5 2474.5,-75.5 2474.5,-56.5 2387.5,-56.5"/>
<text text-anchor="middle" x="2431" y="-63.5" font-family="Helvetica,sans-Serif" font-size="10.00">osg/LightSource</text>
</g>
<!-- Node1&#45;&gt;Node26 -->
<g id="edge25" class="edge"><title>Node1&#45;&gt;Node26</title>
<path fill="none" stroke="midnightblue" d="M1840.25,-119.292C1930.04,-114.71 2174.56,-100.786 2377,-76 2377.11,-75.987 2377.21,-75.974 2377.32,-75.9608"/>
<polygon fill="midnightblue" stroke="midnightblue" points="2377.99,-79.4025 2387.43,-74.5949 2377.05,-72.4655 2377.99,-79.4025"/>
</g>
<!-- Node27 -->
<g id="node27" class="node"><title>Node27</title>
<polygon fill="white" stroke="#bfbfbf" points="2493,-56.5 2493,-75.5 2563,-75.5 2563,-56.5 2493,-56.5"/>
<text text-anchor="middle" x="2528" y="-63.5" font-family="Helvetica,sans-Serif" font-size="10.00">osg/Material</text>
</g>
<!-- Node1&#45;&gt;Node27 -->
<g id="edge26" class="edge"><title>Node1&#45;&gt;Node27</title>
<path fill="none" stroke="midnightblue" d="M1840.09,-120.292C1939.32,-117.948 2230.48,-108.697 2482.62,-75.8442"/>
<polygon fill="midnightblue" stroke="midnightblue" points="2483.24,-79.2919 2492.7,-74.5148 2482.33,-72.3519 2483.24,-79.2919"/>
</g>
<!-- Node28 -->
<g id="node28" class="node"><title>Node28</title>
<polygon fill="white" stroke="#bfbfbf" points="2581,-56.5 2581,-75.5 2651,-75.5 2651,-56.5 2581,-56.5"/>
<text text-anchor="middle" x="2616" y="-63.5" font-family="Helvetica,sans-Serif" font-size="10.00">osg/Camera</text>
</g>
<!-- Node1&#45;&gt;Node28 -->
<g id="edge27" class="edge"><title>Node1&#45;&gt;Node28</title>
<path fill="none" stroke="midnightblue" d="M1840.34,-120.722C1948.33,-119.494 2283.63,-112.868 2570.35,-76.0319"/>
<polygon fill="midnightblue" stroke="midnightblue" points="2571.07,-79.4687 2580.53,-74.7088 2570.16,-72.5271 2571.07,-79.4687"/>
</g>
<!-- Node29 -->
<g id="node29" class="node"><title>Node29</title>
<polygon fill="white" stroke="#bfbfbf" points="2669,-56.5 2669,-75.5 2743,-75.5 2743,-56.5 2669,-56.5"/>
<text text-anchor="middle" x="2706" y="-63.5" font-family="Helvetica,sans-Serif" font-size="10.00">osg/Viewport</text>
</g>
<!-- Node1&#45;&gt;Node29 -->
<g id="edge28" class="edge"><title>Node1&#45;&gt;Node29</title>
<path fill="none" stroke="midnightblue" d="M1840.17,-120.917C1955.94,-120.272 2335.67,-115.192 2658.89,-75.9511"/>
<polygon fill="midnightblue" stroke="midnightblue" points="2659.42,-79.4126 2668.91,-74.7205 2658.56,-72.4648 2659.42,-79.4126"/>
</g>
<!-- Node30 -->
<g id="node30" class="node"><title>Node30</title>
<polygon fill="white" stroke="#bfbfbf" points="2761.5,-56.5 2761.5,-75.5 2856.5,-75.5 2856.5,-56.5 2761.5,-56.5"/>
<text text-anchor="middle" x="2809" y="-63.5" font-family="Helvetica,sans-Serif" font-size="10.00">osgViewer/Viewer</text>
</g>
<!-- Node1&#45;&gt;Node30 -->
<g id="edge29" class="edge"><title>Node1&#45;&gt;Node30</title>
<path fill="none" stroke="midnightblue" d="M1840.36,-120.709C1964.14,-119.399 2389.51,-112.431 2751.32,-75.9359"/>
<polygon fill="midnightblue" stroke="midnightblue" points="2751.87,-79.3978 2761.46,-74.9029 2751.16,-72.4338 2751.87,-79.3978"/>
</g>
<!-- Node31 -->
<g id="node31" class="node"><title>Node31</title>
<polygon fill="white" stroke="#bfbfbf" points="2875,-56.5 2875,-75.5 2993,-75.5 2993,-56.5 2875,-56.5"/>
<text text-anchor="middle" x="2934" y="-63.5" font-family="Helvetica,sans-Serif" font-size="10.00">osgViewer/ViewerBase</text>
</g>
<!-- Node1&#45;&gt;Node31 -->
<g id="edge30" class="edge"><title>Node1&#45;&gt;Node31</title>
<path fill="none" stroke="midnightblue" d="M1840.3,-120.619C1973.1,-118.95 2455.47,-110.772 2864.68,-75.9283"/>
<polygon fill="midnightblue" stroke="midnightblue" points="2865.28,-79.3901 2874.94,-75.0477 2864.68,-72.4157 2865.28,-79.3901"/>
</g>
<!-- Node32 -->
<g id="node32" class="node"><title>Node32</title>
<polygon fill="white" stroke="#bfbfbf" points="3011.5,-56.5 3011.5,-75.5 3120.5,-75.5 3120.5,-56.5 3011.5,-56.5"/>
<text text-anchor="middle" x="3066" y="-63.5" font-family="Helvetica,sans-Serif" font-size="10.00">osg/GraphicsContext</text>
</g>
<!-- Node1&#45;&gt;Node32 -->
<g id="edge31" class="edge"><title>Node1&#45;&gt;Node32</title>
<path fill="none" stroke="midnightblue" d="M1840.33,-120.988C1983.7,-120.664 2536.04,-116.744 3000.95,-75.9852"/>
<polygon fill="midnightblue" stroke="midnightblue" points="3001.58,-79.4438 3011.23,-75.077 3000.96,-72.471 3001.58,-79.4438"/>
</g>
<!-- Node33 -->
<g id="node33" class="node"><title>Node33</title>
<polygon fill="white" stroke="#bfbfbf" points="3138.5,-56.5 3138.5,-75.5 3233.5,-75.5 3233.5,-56.5 3138.5,-56.5"/>
<text text-anchor="middle" x="3186" y="-63.5" font-family="Helvetica,sans-Serif" font-size="10.00">osg/PolygonMode</text>
</g>
<!-- Node1&#45;&gt;Node33 -->
<g id="edge32" class="edge"><title>Node1&#45;&gt;Node33</title>
<path fill="none" stroke="midnightblue" d="M1840.14,-121.384C1992.41,-122.72 2610.5,-124.744 3128.18,-75.9297"/>
<polygon fill="midnightblue" stroke="midnightblue" points="3128.85,-79.3821 3138.47,-74.9513 3128.18,-72.4135 3128.85,-79.3821"/>
</g>
<!-- Node3 -->
<g id="node3" class="node"><title>Node3</title>
<polygon fill="white" stroke="#bfbfbf" points="0,-0.5 0,-19.5 108,-19.5 108,-0.5 0,-0.5"/>
<text text-anchor="middle" x="54" y="-7.5" font-family="Helvetica,sans-Serif" font-size="10.00">boost/shared_ptr.hpp</text>
</g>
<!-- Node2&#45;&gt;Node3 -->
<g id="edge2" class="edge"><title>Node2&#45;&gt;Node3</title>
<path fill="none" stroke="midnightblue" d="M157.51,-56.4435C137.358,-47.5961 105.677,-33.6875 82.6692,-23.5865"/>
<polygon fill="midnightblue" stroke="midnightblue" points="83.962,-20.3316 73.3985,-19.5164 81.148,-26.7411 83.962,-20.3316"/>
</g>
<!-- Node4 -->
<g id="node4" class="node"><title>Node4</title>
<polygon fill="white" stroke="#bfbfbf" points="126,-0.5 126,-19.5 228,-19.5 228,-0.5 126,-0.5"/>
<text text-anchor="middle" x="177" y="-7.5" font-family="Helvetica,sans-Serif" font-size="10.00">boost/weak_ptr.hpp</text>
</g>
<!-- Node2&#45;&gt;Node4 -->
<g id="edge3" class="edge"><title>Node2&#45;&gt;Node4</title>
<path fill="none" stroke="midnightblue" d="M177,-56.083C177,-49.0059 177,-38.8611 177,-29.9865"/>
<polygon fill="midnightblue" stroke="midnightblue" points="180.5,-29.751 177,-19.7511 173.5,-29.7511 180.5,-29.751"/>
</g>
<!-- Node5 -->
<g id="node5" class="node"><title>Node5</title>
<polygon fill="white" stroke="#bfbfbf" points="246.5,-0.5 246.5,-19.5 309.5,-19.5 309.5,-0.5 246.5,-0.5"/>
<text text-anchor="middle" x="278" y="-7.5" font-family="Helvetica,sans-Serif" font-size="10.00">osg/ref_ptr</text>
</g>
<!-- Node2&#45;&gt;Node5 -->
<g id="edge4" class="edge"><title>Node2&#45;&gt;Node5</title>
<path fill="none" stroke="midnightblue" d="M193.227,-56.324C209.351,-47.7034 234.3,-34.3643 252.964,-24.3855"/>
<polygon fill="midnightblue" stroke="midnightblue" points="254.644,-27.456 261.813,-19.6545 251.344,-21.283 254.644,-27.456"/>
</g>
</g>
</svg>
