<?xml version="1.0" encoding="UTF-8" standalone="no"?>
<!DOCTYPE svg PUBLIC "-//W3C//DTD SVG 1.1//EN"
 "http://www.w3.org/Graphics/SVG/1.1/DTD/svg11.dtd">
<!-- Generated by graphviz version 2.36.0 (20140111.2315)
 -->
<!-- Title: group&#45;node.h Pages: 1 -->
<svg width="491pt" height="84pt"
 viewBox="0.00 0.00 491.00 84.00" xmlns="http://www.w3.org/2000/svg" xmlns:xlink="http://www.w3.org/1999/xlink">
<g id="graph0" class="graph" transform="scale(1 1) rotate(0) translate(4 80)">
<title>group&#45;node.h</title>
<polygon fill="white" stroke="none" points="-4,4 -4,-80 487,-80 487,4 -4,4"/>
<!-- Node1 -->
<g id="node1" class="node"><title>Node1</title>
<polygon fill="#bfbfbf" stroke="black" points="194.5,-56.5 194.5,-75.5 267.5,-75.5 267.5,-56.5 194.5,-56.5"/>
<text text-anchor="middle" x="231" y="-63.5" font-family="Helvetica,sans-Serif" font-size="10.00">group&#45;node.h</text>
</g>
<!-- Node2 -->
<g id="node2" class="node"><title>Node2</title>
<g id="a_node2"><a xlink:href="a00037.html" target="_top" xlink:title="leaf&#45;node&#45;light.h">
<polygon fill="white" stroke="black" points="0,-0.5 0,-19.5 86,-19.5 86,-0.5 0,-0.5"/>
<text text-anchor="middle" x="43" y="-7.5" font-family="Helvetica,sans-Serif" font-size="10.00">leaf&#45;node&#45;light.h</text>
</a>
</g>
</g>
<!-- Node1&#45;&gt;Node2 -->
<g id="edge1" class="edge"><title>Node1&#45;&gt;Node2</title>
<path fill="none" stroke="midnightblue" d="M191.199,-53.5677C155.734,-43.381 104.634,-28.7034 72.6498,-19.5164"/>
<polygon fill="midnightblue" stroke="midnightblue" points="190.633,-57.0467 201.211,-56.4435 192.566,-50.3188 190.633,-57.0467"/>
</g>
<!-- Node3 -->
<g id="node3" class="node"><title>Node3</title>
<g id="a_node3"><a xlink:href="a00042.html" target="_top" xlink:title="node&#45;rod.h">
<polygon fill="white" stroke="black" points="104,-0.5 104,-19.5 166,-19.5 166,-0.5 104,-0.5"/>
<text text-anchor="middle" x="135" y="-7.5" font-family="Helvetica,sans-Serif" font-size="10.00">node&#45;rod.h</text>
</a>
</g>
</g>
<!-- Node1&#45;&gt;Node3 -->
<g id="edge2" class="edge"><title>Node1&#45;&gt;Node3</title>
<path fill="none" stroke="midnightblue" d="M206.426,-51.1774C188.761,-41.2407 165.487,-28.1492 150.386,-19.6545"/>
<polygon fill="midnightblue" stroke="midnightblue" points="205.144,-54.4718 215.576,-56.324 208.576,-48.3708 205.144,-54.4718"/>
</g>
<!-- Node4 -->
<g id="node4" class="node"><title>Node4</title>
<g id="a_node4"><a xlink:href="a00046.html" target="_top" xlink:title="roadmap&#45;viewer.h">
<polygon fill="white" stroke="black" points="184,-0.5 184,-19.5 278,-19.5 278,-0.5 184,-0.5"/>
<text text-anchor="middle" x="231" y="-7.5" font-family="Helvetica,sans-Serif" font-size="10.00">roadmap&#45;viewer.h</text>
</a>
</g>
</g>
<!-- Node1&#45;&gt;Node4 -->
<g id="edge3" class="edge"><title>Node1&#45;&gt;Node4</title>
<path fill="none" stroke="midnightblue" d="M231,-45.8045C231,-36.9102 231,-26.7798 231,-19.7511"/>
<polygon fill="midnightblue" stroke="midnightblue" points="227.5,-46.083 231,-56.083 234.5,-46.083 227.5,-46.083"/>
</g>
<!-- Node5 -->
<g id="node5" class="node"><title>Node5</title>
<g id="a_node5"><a xlink:href="a00048.html" target="_top" xlink:title="urdf&#45;parser.h">
<polygon fill="white" stroke="black" points="296.5,-0.5 296.5,-19.5 367.5,-19.5 367.5,-0.5 296.5,-0.5"/>
<text text-anchor="middle" x="332" y="-7.5" font-family="Helvetica,sans-Serif" font-size="10.00">urdf&#45;parser.h</text>
</a>
</g>
</g>
<!-- Node1&#45;&gt;Node5 -->
<g id="edge4" class="edge"><title>Node1&#45;&gt;Node5</title>
<path fill="none" stroke="midnightblue" d="M256.083,-51.5895C274.757,-41.6052 299.704,-28.2672 315.813,-19.6545"/>
<polygon fill="midnightblue" stroke="midnightblue" points="254.396,-48.5224 247.227,-56.324 257.696,-54.6955 254.396,-48.5224"/>
</g>
<!-- Node6 -->
<g id="node6" class="node"><title>Node6</title>
<g id="a_node6"><a xlink:href="a00049.html" target="_top" xlink:title="window&#45;manager.h">
<polygon fill="white" stroke="black" points="386,-0.5 386,-19.5 484,-19.5 484,-0.5 386,-0.5"/>
<text text-anchor="middle" x="435" y="-7.5" font-family="Helvetica,sans-Serif" font-size="10.00">window&#45;manager.h</text>
</a>
</g>
</g>
<!-- Node1&#45;&gt;Node6 -->
<g id="edge5" class="edge"><title>Node1&#45;&gt;Node6</title>
<path fill="none" stroke="midnightblue" d="M273.201,-53.8291C311.718,-43.6333 367.822,-28.7823 402.827,-19.5164"/>
<polygon fill="midnightblue" stroke="midnightblue" points="272.096,-50.5011 263.324,-56.4435 273.887,-57.268 272.096,-50.5011"/>
</g>
</g>
</svg>
