<?xml version="1.0" encoding="UTF-8" standalone="no"?>
<!DOCTYPE svg PUBLIC "-//W3C//DTD SVG 1.1//EN"
 "http://www.w3.org/Graphics/SVG/1.1/DTD/svg11.dtd">
<!-- Generated by graphviz version 2.36.0 (20140111.2315)
 -->
<!-- Title: transform&#45;writer.h Pages: 1 -->
<svg width="3241pt" height="332pt"
 viewBox="0.00 0.00 3241.00 332.00" xmlns="http://www.w3.org/2000/svg" xmlns:xlink="http://www.w3.org/1999/xlink">
<g id="graph0" class="graph" transform="scale(1 1) rotate(0) translate(4 328)">
<title>transform&#45;writer.h</title>
<polygon fill="white" stroke="none" points="-4,4 -4,-328 3237,-328 3237,4 -4,4"/>
<!-- Node1 -->
<g id="node1" class="node"><title>Node1</title>
<polygon fill="#bfbfbf" stroke="black" points="1820.5,-304.5 1820.5,-323.5 1913.5,-323.5 1913.5,-304.5 1820.5,-304.5"/>
<text text-anchor="middle" x="1867" y="-311.5" font-family="Helvetica,sans-Serif" font-size="10.00">transform&#45;writer.h</text>
</g>
<!-- Node2 -->
<g id="node2" class="node"><title>Node2</title>
<polygon fill="white" stroke="#bfbfbf" points="1948,-118.5 1948,-137.5 2002,-137.5 2002,-118.5 1948,-118.5"/>
<text text-anchor="middle" x="1975" y="-125.5" font-family="Helvetica,sans-Serif" font-size="10.00">iostream</text>
</g>
<!-- Node1&#45;&gt;Node2 -->
<g id="edge1" class="edge"><title>Node1&#45;&gt;Node2</title>
<path fill="none" stroke="midnightblue" d="M1913.63,-306.056C1936.5,-300.044 1962.05,-288.844 1976,-268 2000.52,-231.346 1989.53,-176.193 1981.22,-147.629"/>
<polygon fill="midnightblue" stroke="midnightblue" points="1984.47,-146.27 1978.15,-137.765 1977.78,-148.353 1984.47,-146.27"/>
</g>
<!-- Node3 -->
<g id="node3" class="node"><title>Node3</title>
<polygon fill="white" stroke="#bfbfbf" points="1795,-242.5 1795,-261.5 1845,-261.5 1845,-242.5 1795,-242.5"/>
<text text-anchor="middle" x="1820" y="-249.5" font-family="Helvetica,sans-Serif" font-size="10.00">fstream</text>
</g>
<!-- Node1&#45;&gt;Node3 -->
<g id="edge2" class="edge"><title>Node1&#45;&gt;Node3</title>
<path fill="none" stroke="midnightblue" d="M1860.27,-304.403C1853.22,-295.403 1841.97,-281.041 1833.15,-269.782"/>
<polygon fill="midnightblue" stroke="midnightblue" points="1835.64,-267.295 1826.72,-261.581 1830.13,-271.611 1835.64,-267.295"/>
</g>
<!-- Node4 -->
<g id="node4" class="node"><title>Node4</title>
<g id="a_node4"><a xlink:href="a00025.html" target="_top" xlink:title="gepetto/viewer/config\l&#45;osg.h">
<polygon fill="white" stroke="black" points="1750,-113 1750,-143 1860,-143 1860,-113 1750,-113"/>
<text text-anchor="start" x="1758" y="-131" font-family="Helvetica,sans-Serif" font-size="10.00">gepetto/viewer/config</text>
<text text-anchor="middle" x="1805" y="-120" font-family="Helvetica,sans-Serif" font-size="10.00">&#45;osg.h</text>
</a>
</g>
</g>
<!-- Node1&#45;&gt;Node4 -->
<g id="edge3" class="edge"><title>Node1&#45;&gt;Node4</title>
<path fill="none" stroke="midnightblue" d="M1835.98,-304.436C1817.97,-297.694 1796.77,-286.302 1786,-268 1764.79,-231.946 1780.59,-181.705 1793.29,-152.541"/>
<polygon fill="midnightblue" stroke="midnightblue" points="1796.6,-153.711 1797.58,-143.162 1790.24,-150.795 1796.6,-153.711"/>
</g>
<!-- Node37 -->
<g id="node37" class="node"><title>Node37</title>
<g id="a_node37"><a xlink:href="a00043.html" target="_top" xlink:title="gepetto/viewer/node\l&#45;visitor.h">
<polygon fill="white" stroke="black" points="1863,-237 1863,-267 1967,-267 1967,-237 1863,-237"/>
<text text-anchor="start" x="1871" y="-255" font-family="Helvetica,sans-Serif" font-size="10.00">gepetto/viewer/node</text>
<text text-anchor="middle" x="1915" y="-244" font-family="Helvetica,sans-Serif" font-size="10.00">&#45;visitor.h</text>
</a>
</g>
</g>
<!-- Node1&#45;&gt;Node37 -->
<g id="edge36" class="edge"><title>Node1&#45;&gt;Node37</title>
<path fill="none" stroke="midnightblue" d="M1873.88,-304.403C1879.95,-296.809 1889.08,-285.396 1897.2,-275.252"/>
<polygon fill="midnightblue" stroke="midnightblue" points="1900.17,-277.136 1903.69,-267.141 1894.71,-272.763 1900.17,-277.136"/>
</g>
<!-- Node5 -->
<g id="node5" class="node"><title>Node5</title>
<g id="a_node5"><a xlink:href="a00041.html" target="_top" xlink:title="gepetto/viewer/macros.h">
<polygon fill="white" stroke="black" points="115,-56.5 115,-75.5 239,-75.5 239,-56.5 115,-56.5"/>
<text text-anchor="middle" x="177" y="-63.5" font-family="Helvetica,sans-Serif" font-size="10.00">gepetto/viewer/macros.h</text>
</a>
</g>
</g>
<!-- Node4&#45;&gt;Node5 -->
<g id="edge4" class="edge"><title>Node4&#45;&gt;Node5</title>
<path fill="none" stroke="midnightblue" d="M1749.73,-127.053C1549.41,-126.851 842.392,-122.714 249.34,-76.0267"/>
<polygon fill="midnightblue" stroke="midnightblue" points="249.549,-72.5324 239.304,-75.2317 248.996,-79.5105 249.549,-72.5324"/>
</g>
<!-- Node9 -->
<g id="node9" class="node"><title>Node9</title>
<polygon fill="white" stroke="#bfbfbf" points="257.5,-56.5 257.5,-75.5 320.5,-75.5 320.5,-56.5 257.5,-56.5"/>
<text text-anchor="middle" x="289" y="-63.5" font-family="Helvetica,sans-Serif" font-size="10.00">osg/Shape</text>
</g>
<!-- Node4&#45;&gt;Node9 -->
<g id="edge8" class="edge"><title>Node4&#45;&gt;Node9</title>
<path fill="none" stroke="midnightblue" d="M1749.97,-126.435C1519.84,-123.866 632.893,-111.884 330.752,-75.7899"/>
<polygon fill="midnightblue" stroke="midnightblue" points="331.038,-72.2988 320.685,-74.5507 330.183,-79.2463 331.038,-72.2988"/>
</g>
<!-- Node10 -->
<g id="node10" class="node"><title>Node10</title>
<polygon fill="white" stroke="#bfbfbf" points="339,-56.5 339,-75.5 443,-75.5 443,-56.5 339,-56.5"/>
<text text-anchor="middle" x="391" y="-63.5" font-family="Helvetica,sans-Serif" font-size="10.00">osg/ShapeDrawable</text>
</g>
<!-- Node4&#45;&gt;Node10 -->
<g id="edge9" class="edge"><title>Node4&#45;&gt;Node10</title>
<path fill="none" stroke="midnightblue" d="M1749.76,-127.069C1566.6,-126.843 962.403,-122.448 453.32,-76.0127"/>
<polygon fill="midnightblue" stroke="midnightblue" points="453.477,-72.5125 443.198,-75.0828 452.836,-79.4831 453.477,-72.5125"/>
</g>
<!-- Node11 -->
<g id="node11" class="node"><title>Node11</title>
<polygon fill="white" stroke="#bfbfbf" points="461,-56.5 461,-75.5 539,-75.5 539,-56.5 461,-56.5"/>
<text text-anchor="middle" x="500" y="-63.5" font-family="Helvetica,sans-Serif" font-size="10.00">osg/Geometry</text>
</g>
<!-- Node4&#45;&gt;Node11 -->
<g id="edge10" class="edge"><title>Node4&#45;&gt;Node11</title>
<path fill="none" stroke="midnightblue" d="M1749.96,-127.602C1575.38,-128.912 1018.48,-128.471 549.247,-75.9641"/>
<polygon fill="midnightblue" stroke="midnightblue" points="549.552,-72.4764 539.223,-74.8329 548.767,-79.4322 549.552,-72.4764"/>
</g>
<!-- Node12 -->
<g id="node12" class="node"><title>Node12</title>
<polygon fill="white" stroke="#bfbfbf" points="557,-56.5 557,-75.5 621,-75.5 621,-56.5 557,-56.5"/>
<text text-anchor="middle" x="589" y="-63.5" font-family="Helvetica,sans-Serif" font-size="10.00">osg/Geode</text>
</g>
<!-- Node4&#45;&gt;Node12 -->
<g id="edge11" class="edge"><title>Node4&#45;&gt;Node12</title>
<path fill="none" stroke="midnightblue" d="M1749.95,-125.873C1551.23,-121.611 870.474,-105.28 631.172,-75.8791"/>
<polygon fill="midnightblue" stroke="midnightblue" points="631.498,-72.3924 621.136,-74.6041 630.616,-79.3366 631.498,-72.3924"/>
</g>
<!-- Node13 -->
<g id="node13" class="node"><title>Node13</title>
<polygon fill="white" stroke="#bfbfbf" points="638.5,-56.5 638.5,-75.5 787.5,-75.5 787.5,-56.5 638.5,-56.5"/>
<text text-anchor="middle" x="713" y="-63.5" font-family="Helvetica,sans-Serif" font-size="10.00">osg/PositionAttitudeTransform</text>
</g>
<!-- Node4&#45;&gt;Node13 -->
<g id="edge12" class="edge"><title>Node4&#45;&gt;Node13</title>
<path fill="none" stroke="midnightblue" d="M1749.75,-125.296C1599.01,-120.412 1167.79,-104.883 797.739,-76.0095"/>
<polygon fill="midnightblue" stroke="midnightblue" points="797.878,-72.5097 787.635,-75.2165 797.33,-79.4882 797.878,-72.5097"/>
</g>
<!-- Node14 -->
<g id="node14" class="node"><title>Node14</title>
<polygon fill="white" stroke="#bfbfbf" points="806,-56.5 806,-75.5 906,-75.5 906,-56.5 806,-56.5"/>
<text text-anchor="middle" x="856" y="-63.5" font-family="Helvetica,sans-Serif" font-size="10.00">osg/AutoTransform</text>
</g>
<!-- Node4&#45;&gt;Node14 -->
<g id="edge13" class="edge"><title>Node4&#45;&gt;Node14</title>
<path fill="none" stroke="midnightblue" d="M1749.98,-125.596C1610.28,-121.651 1230.66,-108.556 916,-76 915.899,-75.9895 915.797,-75.9789 915.695,-75.9683"/>
<polygon fill="midnightblue" stroke="midnightblue" points="916.381,-72.5243 906.047,-74.8573 915.581,-79.4784 916.381,-72.5243"/>
</g>
<!-- Node15 -->
<g id="node15" class="node"><title>Node15</title>
<polygon fill="white" stroke="#bfbfbf" points="924.5,-56.5 924.5,-75.5 1031.5,-75.5 1031.5,-56.5 924.5,-56.5"/>
<text text-anchor="middle" x="978" y="-63.5" font-family="Helvetica,sans-Serif" font-size="10.00">osg/MatrixTransform</text>
</g>
<!-- Node4&#45;&gt;Node15 -->
<g id="edge14" class="edge"><title>Node4&#45;&gt;Node15</title>
<path fill="none" stroke="midnightblue" d="M1749.67,-124.786C1625.08,-119.481 1312.82,-104.406 1041.77,-76.1156"/>
<polygon fill="midnightblue" stroke="midnightblue" points="1042.05,-72.6261 1031.74,-75.0608 1041.32,-79.5877 1042.05,-72.6261"/>
</g>
<!-- Node16 -->
<g id="node16" class="node"><title>Node16</title>
<polygon fill="white" stroke="#bfbfbf" points="1049.5,-56.5 1049.5,-75.5 1108.5,-75.5 1108.5,-56.5 1049.5,-56.5"/>
<text text-anchor="middle" x="1079" y="-63.5" font-family="Helvetica,sans-Serif" font-size="10.00">osg/Node</text>
</g>
<!-- Node4&#45;&gt;Node16 -->
<g id="edge15" class="edge"><title>Node4&#45;&gt;Node16</title>
<path fill="none" stroke="midnightblue" d="M1749.91,-125.761C1634.51,-122.551 1358.92,-111.662 1118.69,-75.8544"/>
<polygon fill="midnightblue" stroke="midnightblue" points="1119.13,-72.3815 1108.72,-74.351 1118.09,-79.3032 1119.13,-72.3815"/>
</g>
<!-- Node17 -->
<g id="node17" class="node"><title>Node17</title>
<polygon fill="white" stroke="#bfbfbf" points="1127,-56.5 1127,-75.5 1189,-75.5 1189,-56.5 1127,-56.5"/>
<text text-anchor="middle" x="1158" y="-63.5" font-family="Helvetica,sans-Serif" font-size="10.00">osg/Group</text>
</g>
<!-- Node4&#45;&gt;Node17 -->
<g id="edge16" class="edge"><title>Node4&#45;&gt;Node17</title>
<path fill="none" stroke="midnightblue" d="M1749.88,-124.908C1644.59,-120.361 1407.55,-107.471 1199.26,-75.9981"/>
<polygon fill="midnightblue" stroke="midnightblue" points="1199.78,-72.5367 1189.37,-74.4853 1198.72,-79.4563 1199.78,-72.5367"/>
</g>
<!-- Node18 -->
<g id="node18" class="node"><title>Node18</title>
<polygon fill="white" stroke="#bfbfbf" points="1207.5,-56.5 1207.5,-75.5 1272.5,-75.5 1272.5,-56.5 1207.5,-56.5"/>
<text text-anchor="middle" x="1240" y="-63.5" font-family="Helvetica,sans-Serif" font-size="10.00">osg/Switch</text>
</g>
<!-- Node4&#45;&gt;Node18 -->
<g id="edge17" class="edge"><title>Node4&#45;&gt;Node18</title>
<path fill="none" stroke="midnightblue" d="M1749.77,-123.691C1655.87,-117.609 1458.96,-102.893 1282.91,-75.9714"/>
<polygon fill="midnightblue" stroke="midnightblue" points="1283.37,-72.5003 1272.95,-74.4313 1282.3,-79.4181 1283.37,-72.5003"/>
</g>
<!-- Node19 -->
<g id="node19" class="node"><title>Node19</title>
<polygon fill="white" stroke="#bfbfbf" points="1291,-56.5 1291,-75.5 1435,-75.5 1435,-56.5 1291,-56.5"/>
<text text-anchor="middle" x="1363" y="-63.5" font-family="Helvetica,sans-Serif" font-size="10.00">osgShadow/ShadowedScene</text>
</g>
<!-- Node4&#45;&gt;Node19 -->
<g id="edge18" class="edge"><title>Node4&#45;&gt;Node19</title>
<path fill="none" stroke="midnightblue" d="M1749.91,-119.522C1670.59,-108.754 1524.05,-88.8618 1435.85,-76.8897"/>
<polygon fill="midnightblue" stroke="midnightblue" points="1436.3,-73.4188 1425.92,-75.5418 1435.36,-80.3552 1436.3,-73.4188"/>
</g>
<!-- Node20 -->
<g id="node20" class="node"><title>Node20</title>
<polygon fill="white" stroke="#bfbfbf" points="1453,-56.5 1453,-75.5 1647,-75.5 1647,-56.5 1453,-56.5"/>
<text text-anchor="middle" x="1550" y="-63.5" font-family="Helvetica,sans-Serif" font-size="10.00">osgShadow/ViewDependentShadowMap</text>
</g>
<!-- Node4&#45;&gt;Node20 -->
<g id="edge19" class="edge"><title>Node4&#45;&gt;Node20</title>
<path fill="none" stroke="midnightblue" d="M1749.98,-114.055C1704.17,-103.275 1639.66,-88.0957 1596.41,-77.9211"/>
<polygon fill="midnightblue" stroke="midnightblue" points="1596.98,-74.4589 1586.45,-75.5754 1595.38,-81.2728 1596.98,-74.4589"/>
</g>
<!-- Node21 -->
<g id="node21" class="node"><title>Node21</title>
<polygon fill="white" stroke="#bfbfbf" points="1665,-56.5 1665,-75.5 1747,-75.5 1747,-56.5 1665,-56.5"/>
<text text-anchor="middle" x="1706" y="-63.5" font-family="Helvetica,sans-Serif" font-size="10.00">osg/ClearNode</text>
</g>
<!-- Node4&#45;&gt;Node21 -->
<g id="edge20" class="edge"><title>Node4&#45;&gt;Node21</title>
<path fill="none" stroke="midnightblue" d="M1781.79,-112.933C1765.83,-103.262 1744.74,-90.4793 1728.86,-80.8546"/>
<polygon fill="midnightblue" stroke="midnightblue" points="1730.56,-77.7899 1720.19,-75.6 1726.93,-83.7763 1730.56,-77.7899"/>
</g>
<!-- Node22 -->
<g id="node22" class="node"><title>Node22</title>
<polygon fill="white" stroke="#bfbfbf" points="1765.5,-56.5 1765.5,-75.5 1844.5,-75.5 1844.5,-56.5 1765.5,-56.5"/>
<text text-anchor="middle" x="1805" y="-63.5" font-family="Helvetica,sans-Serif" font-size="10.00">osg/LineWidth</text>
</g>
<!-- Node4&#45;&gt;Node22 -->
<g id="edge21" class="edge"><title>Node4&#45;&gt;Node22</title>
<path fill="none" stroke="midnightblue" d="M1805,-112.781C1805,-104.781 1805,-94.6887 1805,-86.0168"/>
<polygon fill="midnightblue" stroke="midnightblue" points="1808.5,-85.7305 1805,-75.7305 1801.5,-85.7306 1808.5,-85.7305"/>
</g>
<!-- Node23 -->
<g id="node23" class="node"><title>Node23</title>
<polygon fill="white" stroke="#bfbfbf" points="1863,-56.5 1863,-75.5 1945,-75.5 1945,-56.5 1863,-56.5"/>
<text text-anchor="middle" x="1904" y="-63.5" font-family="Helvetica,sans-Serif" font-size="10.00">osg/AlphaFunc</text>
</g>
<!-- Node4&#45;&gt;Node23 -->
<g id="edge22" class="edge"><title>Node4&#45;&gt;Node23</title>
<path fill="none" stroke="midnightblue" d="M1828.21,-112.933C1844.17,-103.262 1865.26,-90.4793 1881.14,-80.8546"/>
<polygon fill="midnightblue" stroke="midnightblue" points="1883.07,-83.7763 1889.81,-75.6 1879.44,-77.7899 1883.07,-83.7763"/>
</g>
<!-- Node24 -->
<g id="node24" class="node"><title>Node24</title>
<polygon fill="white" stroke="#bfbfbf" points="1963,-56.5 1963,-75.5 2045,-75.5 2045,-56.5 1963,-56.5"/>
<text text-anchor="middle" x="2004" y="-63.5" font-family="Helvetica,sans-Serif" font-size="10.00">osg/BlendFunc</text>
</g>
<!-- Node4&#45;&gt;Node24 -->
<g id="edge23" class="edge"><title>Node4&#45;&gt;Node24</title>
<path fill="none" stroke="midnightblue" d="M1851.66,-112.933C1886.53,-102.417 1933.61,-88.2222 1966.16,-78.4087"/>
<polygon fill="midnightblue" stroke="midnightblue" points="1967.2,-81.7505 1975.77,-75.5127 1965.18,-75.0485 1967.2,-81.7505"/>
</g>
<!-- Node25 -->
<g id="node25" class="node"><title>Node25</title>
<polygon fill="white" stroke="#bfbfbf" points="2063,-56.5 2063,-75.5 2137,-75.5 2137,-56.5 2063,-56.5"/>
<text text-anchor="middle" x="2100" y="-63.5" font-family="Helvetica,sans-Serif" font-size="10.00">osg/StateSet</text>
</g>
<!-- Node4&#45;&gt;Node25 -->
<g id="edge24" class="edge"><title>Node4&#45;&gt;Node25</title>
<path fill="none" stroke="midnightblue" d="M1860.14,-115.785C1915.64,-104.496 2000.34,-87.2703 2052.82,-76.5956"/>
<polygon fill="midnightblue" stroke="midnightblue" points="2053.77,-79.9746 2062.87,-74.5517 2052.37,-73.1151 2053.77,-79.9746"/>
</g>
<!-- Node26 -->
<g id="node26" class="node"><title>Node26</title>
<polygon fill="white" stroke="#bfbfbf" points="2155,-56.5 2155,-75.5 2217,-75.5 2217,-56.5 2155,-56.5"/>
<text text-anchor="middle" x="2186" y="-63.5" font-family="Helvetica,sans-Serif" font-size="10.00">osg/Depth</text>
</g>
<!-- Node4&#45;&gt;Node26 -->
<g id="edge25" class="edge"><title>Node4&#45;&gt;Node26</title>
<path fill="none" stroke="midnightblue" d="M1860.13,-120.012C1925.68,-111.423 2038.58,-95.7481 2144.69,-76.1395"/>
<polygon fill="midnightblue" stroke="midnightblue" points="2145.41,-79.5645 2154.6,-74.2916 2144.13,-72.683 2145.41,-79.5645"/>
</g>
<!-- Node27 -->
<g id="node27" class="node"><title>Node27</title>
<polygon fill="white" stroke="#bfbfbf" points="2235.5,-56.5 2235.5,-75.5 2294.5,-75.5 2294.5,-56.5 2235.5,-56.5"/>
<text text-anchor="middle" x="2265" y="-63.5" font-family="Helvetica,sans-Serif" font-size="10.00">osg/State</text>
</g>
<!-- Node4&#45;&gt;Node27 -->
<g id="edge26" class="edge"><title>Node4&#45;&gt;Node27</title>
<path fill="none" stroke="midnightblue" d="M1860.39,-120.59C1966.22,-108.293 2189.85,-82.0726 2225,-76 2225.11,-75.9818 2225.21,-75.9636 2225.32,-75.9452"/>
<polygon fill="midnightblue" stroke="midnightblue" points="2226.2,-79.3398 2235.36,-74.0175 2224.88,-72.4653 2226.2,-79.3398"/>
</g>
<!-- Node28 -->
<g id="node28" class="node"><title>Node28</title>
<polygon fill="white" stroke="#bfbfbf" points="2313,-56.5 2313,-75.5 2369,-75.5 2369,-56.5 2313,-56.5"/>
<text text-anchor="middle" x="2341" y="-63.5" font-family="Helvetica,sans-Serif" font-size="10.00">osg/Light</text>
</g>
<!-- Node4&#45;&gt;Node28 -->
<g id="edge27" class="edge"><title>Node4&#45;&gt;Node28</title>
<path fill="none" stroke="midnightblue" d="M1860.07,-120.673C1884.28,-117.935 1913.04,-114.736 1939,-112 2100.67,-94.9572 2142.66,-102.793 2303,-76 2303.1,-75.9832 2303.2,-75.9664 2303.3,-75.9494"/>
<polygon fill="midnightblue" stroke="midnightblue" points="2303.71,-79.4358 2312.86,-74.1072 2302.38,-72.5622 2303.71,-79.4358"/>
</g>
<!-- Node29 -->
<g id="node29" class="node"><title>Node29</title>
<polygon fill="white" stroke="#bfbfbf" points="2387.5,-56.5 2387.5,-75.5 2474.5,-75.5 2474.5,-56.5 2387.5,-56.5"/>
<text text-anchor="middle" x="2431" y="-63.5" font-family="Helvetica,sans-Serif" font-size="10.00">osg/LightSource</text>
</g>
<!-- Node4&#45;&gt;Node29 -->
<g id="edge28" class="edge"><title>Node4&#45;&gt;Node29</title>
<path fill="none" stroke="midnightblue" d="M1860.05,-120.468C1884.25,-117.692 1913.02,-114.521 1939,-112 2133.41,-93.1335 2183.17,-100.076 2377,-76 2377.11,-75.9868 2377.21,-75.9736 2377.32,-75.9603"/>
<polygon fill="midnightblue" stroke="midnightblue" points="2377.99,-79.4011 2387.43,-74.5817 2377.04,-72.4653 2377.99,-79.4011"/>
</g>
<!-- Node30 -->
<g id="node30" class="node"><title>Node30</title>
<polygon fill="white" stroke="#bfbfbf" points="2493,-56.5 2493,-75.5 2563,-75.5 2563,-56.5 2493,-56.5"/>
<text text-anchor="middle" x="2528" y="-63.5" font-family="Helvetica,sans-Serif" font-size="10.00">osg/Material</text>
</g>
<!-- Node4&#45;&gt;Node30 -->
<g id="edge29" class="edge"><title>Node4&#45;&gt;Node30</title>
<path fill="none" stroke="midnightblue" d="M1860.03,-120.27C1884.23,-117.458 1913,-114.314 1939,-112 2177.05,-90.8104 2241.05,-107.363 2482.55,-75.8536"/>
<polygon fill="midnightblue" stroke="midnightblue" points="2483.24,-79.2931 2492.7,-74.5154 2482.33,-72.3532 2483.24,-79.2931"/>
</g>
<!-- Node31 -->
<g id="node31" class="node"><title>Node31</title>
<polygon fill="white" stroke="#bfbfbf" points="2581,-56.5 2581,-75.5 2651,-75.5 2651,-56.5 2581,-56.5"/>
<text text-anchor="middle" x="2616" y="-63.5" font-family="Helvetica,sans-Serif" font-size="10.00">osg/Camera</text>
</g>
<!-- Node4&#45;&gt;Node31 -->
<g id="edge30" class="edge"><title>Node4&#45;&gt;Node31</title>
<path fill="none" stroke="midnightblue" d="M1860.02,-120.155C1884.22,-117.322 1912.99,-114.194 1939,-112 2216.5,-88.5949 2290.83,-111.774 2570.5,-76.0115"/>
<polygon fill="midnightblue" stroke="midnightblue" points="2571.06,-79.4674 2580.53,-74.7143 2570.17,-72.5252 2571.06,-79.4674"/>
</g>
<!-- Node32 -->
<g id="node32" class="node"><title>Node32</title>
<polygon fill="white" stroke="#bfbfbf" points="2669,-56.5 2669,-75.5 2743,-75.5 2743,-56.5 2669,-56.5"/>
<text text-anchor="middle" x="2706" y="-63.5" font-family="Helvetica,sans-Serif" font-size="10.00">osg/Viewport</text>
</g>
<!-- Node4&#45;&gt;Node32 -->
<g id="edge31" class="edge"><title>Node4&#45;&gt;Node32</title>
<path fill="none" stroke="midnightblue" d="M1860.02,-120.069C1884.21,-117.22 1912.98,-114.104 1939,-112 2255.52,-86.4067 2339.8,-114.319 2658.92,-75.9433"/>
<polygon fill="midnightblue" stroke="midnightblue" points="2659.41,-79.4097 2668.92,-74.7291 2658.57,-72.4608 2659.41,-79.4097"/>
</g>
<!-- Node33 -->
<g id="node33" class="node"><title>Node33</title>
<polygon fill="white" stroke="#bfbfbf" points="2761.5,-56.5 2761.5,-75.5 2856.5,-75.5 2856.5,-56.5 2761.5,-56.5"/>
<text text-anchor="middle" x="2809" y="-63.5" font-family="Helvetica,sans-Serif" font-size="10.00">osgViewer/Viewer</text>
</g>
<!-- Node4&#45;&gt;Node33 -->
<g id="edge32" class="edge"><title>Node4&#45;&gt;Node33</title>
<path fill="none" stroke="midnightblue" d="M1860.01,-119.998C1884.2,-117.138 1912.98,-114.03 1939,-112 2296.25,-84.1271 2390.39,-111.74 2751.26,-75.937"/>
<polygon fill="midnightblue" stroke="midnightblue" points="2751.86,-79.3939 2761.47,-74.9145 2751.17,-72.4287 2751.86,-79.3939"/>
</g>
<!-- Node34 -->
<g id="node34" class="node"><title>Node34</title>
<polygon fill="white" stroke="#bfbfbf" points="2875,-56.5 2875,-75.5 2993,-75.5 2993,-56.5 2875,-56.5"/>
<text text-anchor="middle" x="2934" y="-63.5" font-family="Helvetica,sans-Serif" font-size="10.00">osgViewer/ViewerBase</text>
</g>
<!-- Node4&#45;&gt;Node34 -->
<g id="edge33" class="edge"><title>Node4&#45;&gt;Node34</title>
<path fill="none" stroke="midnightblue" d="M1860.01,-119.931C1884.2,-117.058 1912.97,-113.96 1939,-112 2346.39,-81.3197 2452.89,-110.198 2864.84,-75.9097"/>
<polygon fill="midnightblue" stroke="midnightblue" points="2865.27,-79.3863 2874.94,-75.0616 2864.69,-72.4108 2865.27,-79.3863"/>
</g>
<!-- Node35 -->
<g id="node35" class="node"><title>Node35</title>
<polygon fill="white" stroke="#bfbfbf" points="3011.5,-56.5 3011.5,-75.5 3120.5,-75.5 3120.5,-56.5 3011.5,-56.5"/>
<text text-anchor="middle" x="3066" y="-63.5" font-family="Helvetica,sans-Serif" font-size="10.00">osg/GraphicsContext</text>
</g>
<!-- Node4&#45;&gt;Node35 -->
<g id="edge34" class="edge"><title>Node4&#45;&gt;Node35</title>
<path fill="none" stroke="midnightblue" d="M1860,-119.869C1884.19,-116.985 1912.97,-113.895 1939,-112 2407.13,-77.9234 2529.34,-116.419 3001.09,-75.9679"/>
<polygon fill="midnightblue" stroke="midnightblue" points="3001.57,-79.4392 3011.23,-75.0905 3000.97,-72.4652 3001.57,-79.4392"/>
</g>
<!-- Node36 -->
<g id="node36" class="node"><title>Node36</title>
<polygon fill="white" stroke="#bfbfbf" points="3138.5,-56.5 3138.5,-75.5 3233.5,-75.5 3233.5,-56.5 3138.5,-56.5"/>
<text text-anchor="middle" x="3186" y="-63.5" font-family="Helvetica,sans-Serif" font-size="10.00">osg/PolygonMode</text>
</g>
<!-- Node4&#45;&gt;Node36 -->
<g id="edge35" class="edge"><title>Node4&#45;&gt;Node36</title>
<path fill="none" stroke="midnightblue" d="M1860.32,-119.785C1884.45,-116.904 1913.08,-113.84 1939,-112 2463.45,-74.7752 2600.44,-124.719 3128.31,-75.9121"/>
<polygon fill="midnightblue" stroke="midnightblue" points="3128.84,-79.3778 3138.47,-74.9646 3128.19,-72.408 3128.84,-79.3778"/>
</g>
<!-- Node6 -->
<g id="node6" class="node"><title>Node6</title>
<polygon fill="white" stroke="#bfbfbf" points="0,-0.5 0,-19.5 108,-19.5 108,-0.5 0,-0.5"/>
<text text-anchor="middle" x="54" y="-7.5" font-family="Helvetica,sans-Serif" font-size="10.00">boost/shared_ptr.hpp</text>
</g>
<!-- Node5&#45;&gt;Node6 -->
<g id="edge5" class="edge"><title>Node5&#45;&gt;Node6</title>
<path fill="none" stroke="midnightblue" d="M157.51,-56.4435C137.358,-47.5961 105.677,-33.6875 82.6692,-23.5865"/>
<polygon fill="midnightblue" stroke="midnightblue" points="83.962,-20.3316 73.3985,-19.5164 81.148,-26.7411 83.962,-20.3316"/>
</g>
<!-- Node7 -->
<g id="node7" class="node"><title>Node7</title>
<polygon fill="white" stroke="#bfbfbf" points="126,-0.5 126,-19.5 228,-19.5 228,-0.5 126,-0.5"/>
<text text-anchor="middle" x="177" y="-7.5" font-family="Helvetica,sans-Serif" font-size="10.00">boost/weak_ptr.hpp</text>
</g>
<!-- Node5&#45;&gt;Node7 -->
<g id="edge6" class="edge"><title>Node5&#45;&gt;Node7</title>
<path fill="none" stroke="midnightblue" d="M177,-56.083C177,-49.0059 177,-38.8611 177,-29.9865"/>
<polygon fill="midnightblue" stroke="midnightblue" points="180.5,-29.751 177,-19.7511 173.5,-29.7511 180.5,-29.751"/>
</g>
<!-- Node8 -->
<g id="node8" class="node"><title>Node8</title>
<polygon fill="white" stroke="#bfbfbf" points="246.5,-0.5 246.5,-19.5 309.5,-19.5 309.5,-0.5 246.5,-0.5"/>
<text text-anchor="middle" x="278" y="-7.5" font-family="Helvetica,sans-Serif" font-size="10.00">osg/ref_ptr</text>
</g>
<!-- Node5&#45;&gt;Node8 -->
<g id="edge7" class="edge"><title>Node5&#45;&gt;Node8</title>
<path fill="none" stroke="midnightblue" d="M193.227,-56.324C209.351,-47.7034 234.3,-34.3643 252.964,-24.3855"/>
<polygon fill="midnightblue" stroke="midnightblue" points="254.644,-27.456 261.813,-19.6545 251.344,-21.283 254.644,-27.456"/>
</g>
<!-- Node37&#45;&gt;Node2 -->
<g id="edge37" class="edge"><title>Node37&#45;&gt;Node2</title>
<path fill="none" stroke="midnightblue" d="M1928.56,-236.882C1937.22,-227.186 1948.07,-213.645 1955,-200 1963.5,-183.258 1968.83,-162.402 1971.82,-147.638"/>
<polygon fill="midnightblue" stroke="midnightblue" points="1975.28,-148.176 1973.68,-137.704 1968.4,-146.893 1975.28,-148.176"/>
</g>
<!-- Node37&#45;&gt;Node4 -->
<g id="edge38" class="edge"><title>Node37&#45;&gt;Node4</title>
<path fill="none" stroke="midnightblue" d="M1874.69,-236.807C1856.79,-228.613 1836.89,-216.587 1824,-200 1813.6,-186.623 1808.88,-168.024 1806.74,-153.217"/>
<polygon fill="midnightblue" stroke="midnightblue" points="1810.21,-152.771 1805.6,-143.235 1803.26,-153.568 1810.21,-152.771"/>
</g>
<!-- Node38 -->
<g id="node38" class="node"><title>Node38</title>
<g id="a_node38"><a xlink:href="a00044.html" target="_top" xlink:title="gepetto/viewer/node.h">
<polygon fill="white" stroke="black" points="1833.5,-180.5 1833.5,-199.5 1946.5,-199.5 1946.5,-180.5 1833.5,-180.5"/>
<text text-anchor="middle" x="1890" y="-187.5" font-family="Helvetica,sans-Serif" font-size="10.00">gepetto/viewer/node.h</text>
</a>
</g>
</g>
<!-- Node37&#45;&gt;Node38 -->
<g id="edge39" class="edge"><title>Node37&#45;&gt;Node38</title>
<path fill="none" stroke="midnightblue" d="M1909.08,-236.781C1905.63,-228.512 1901.25,-218.006 1897.56,-209.145"/>
<polygon fill="midnightblue" stroke="midnightblue" points="1900.71,-207.615 1893.64,-199.731 1894.25,-210.307 1900.71,-207.615"/>
</g>
<!-- Node38&#45;&gt;Node2 -->
<g id="edge40" class="edge"><title>Node38&#45;&gt;Node2</title>
<path fill="none" stroke="midnightblue" d="M1902.18,-180.403C1915.81,-170.78 1938.13,-155.024 1954.47,-143.489"/>
<polygon fill="midnightblue" stroke="midnightblue" points="1956.69,-146.207 1962.84,-137.581 1952.66,-140.488 1956.69,-146.207"/>
</g>
<!-- Node38&#45;&gt;Node4 -->
<g id="edge41" class="edge"><title>Node38&#45;&gt;Node4</title>
<path fill="none" stroke="midnightblue" d="M1877.82,-180.403C1866.31,-172.277 1848.6,-159.779 1833.53,-149.142"/>
<polygon fill="midnightblue" stroke="midnightblue" points="1835.22,-146.048 1825.03,-143.141 1831.18,-151.767 1835.22,-146.048"/>
</g>
</g>
</svg>
