<?xml version="1.0" encoding="UTF-8" standalone="no"?>
<!DOCTYPE svg PUBLIC "-//W3C//DTD SVG 1.1//EN"
 "http://www.w3.org/Graphics/SVG/1.1/DTD/svg11.dtd">
<!-- Generated by graphviz version 2.36.0 (20140111.2315)
 -->
<!-- Title: graphics::YamlTransformWriter Pages: 1 -->
<svg width="310pt" height="410pt"
 viewBox="0.00 0.00 310.00 410.00" xmlns="http://www.w3.org/2000/svg" xmlns:xlink="http://www.w3.org/1999/xlink">
<g id="graph0" class="graph" transform="scale(1 1) rotate(0) translate(4 406)">
<title>graphics::YamlTransformWriter</title>
<polygon fill="white" stroke="none" points="-4,4 -4,-406 306,-406 306,4 -4,4"/>
<!-- Node1 -->
<g id="node1" class="node"><title>Node1</title>
<polygon fill="#bfbfbf" stroke="black" points="60,-0.5 60,-19.5 212,-19.5 212,-0.5 60,-0.5"/>
<text text-anchor="middle" x="136" y="-7.5" font-family="Helvetica,sans-Serif" font-size="10.00">graphics::YamlTransformWriter</text>
</g>
<!-- Node2 -->
<g id="node2" class="node"><title>Node2</title>
<g id="a_node2"><a xlink:href="a00021.html" target="_top" xlink:title="graphics::TransformWriter">
<polygon fill="white" stroke="black" points="71,-58.5 71,-77.5 201,-77.5 201,-58.5 71,-58.5"/>
<text text-anchor="middle" x="136" y="-65.5" font-family="Helvetica,sans-Serif" font-size="10.00">graphics::TransformWriter</text>
</a>
</g>
</g>
<!-- Node2&#45;&gt;Node1 -->
<g id="edge1" class="edge"><title>Node2&#45;&gt;Node1</title>
<path fill="none" stroke="midnightblue" d="M136,-47.953C136,-38.2875 136,-27.0312 136,-19.5052"/>
<polygon fill="midnightblue" stroke="midnightblue" points="132.5,-48.25 136,-58.25 139.5,-48.25 132.5,-48.25"/>
</g>
<!-- Node3 -->
<g id="node3" class="node"><title>Node3</title>
<polygon fill="white" stroke="#bfbfbf" points="-0.5,-126.5 -0.5,-145.5 88.5,-145.5 88.5,-126.5 -0.5,-126.5"/>
<text text-anchor="middle" x="44" y="-133.5" font-family="Helvetica,sans-Serif" font-size="10.00">osg::Referenced</text>
</g>
<!-- Node3&#45;&gt;Node2 -->
<g id="edge2" class="edge"><title>Node3&#45;&gt;Node2</title>
<path fill="none" stroke="midnightblue" d="M64.2747,-120.455C82.5521,-107.343 108.816,-88.5016 123.97,-77.6305"/>
<polygon fill="midnightblue" stroke="midnightblue" points="62.1126,-117.699 56.0274,-126.372 66.193,-123.386 62.1126,-117.699"/>
</g>
<!-- Node4 -->
<g id="node4" class="node"><title>Node4</title>
<g id="a_node4"><a xlink:title="STL class. ">
<polygon fill="white" stroke="#bfbfbf" points="106,-126.5 106,-145.5 166,-145.5 166,-126.5 106,-126.5"/>
<text text-anchor="middle" x="136" y="-133.5" font-family="Helvetica,sans-Serif" font-size="10.00">std::string</text>
</a>
</g>
</g>
<!-- Node4&#45;&gt;Node2 -->
<g id="edge3" class="edge"><title>Node4&#45;&gt;Node2</title>
<path fill="none" stroke="#9a32cd" stroke-dasharray="5,2" d="M136,-116.041C136,-103.472 136,-87.5631 136,-77.8411"/>
<polygon fill="#9a32cd" stroke="#9a32cd" points="132.5,-116.372 136,-126.372 139.5,-116.372 132.5,-116.372"/>
<text text-anchor="middle" x="159" y="-99.5" font-family="Helvetica,sans-Serif" font-size="10.00"> filename_</text>
</g>
<!-- Node5 -->
<g id="node5" class="node"><title>Node5</title>
<g id="a_node5"><a xlink:title="STL class. ">
<polygon fill="white" stroke="#bfbfbf" points="80.5,-185 80.5,-215 175.5,-215 175.5,-185 80.5,-185"/>
<text text-anchor="start" x="88.5" y="-203" font-family="Helvetica,sans-Serif" font-size="10.00">std::basic_string&lt;</text>
<text text-anchor="middle" x="128" y="-192" font-family="Helvetica,sans-Serif" font-size="10.00"> char &gt;</text>
</a>
</g>
</g>
<!-- Node5&#45;&gt;Node4 -->
<g id="edge4" class="edge"><title>Node5&#45;&gt;Node4</title>
<path fill="none" stroke="midnightblue" d="M131.113,-174.871C132.431,-164.663 133.883,-153.408 134.859,-145.842"/>
<polygon fill="midnightblue" stroke="midnightblue" points="127.624,-174.566 129.815,-184.931 134.566,-175.461 127.624,-174.566"/>
</g>
<!-- Node6 -->
<g id="node6" class="node"><title>Node6</title>
<g id="a_node6"><a xlink:title="STL class. ">
<polygon fill="white" stroke="#bfbfbf" points="188,-126.5 188,-145.5 262,-145.5 262,-126.5 188,-126.5"/>
<text text-anchor="middle" x="225" y="-133.5" font-family="Helvetica,sans-Serif" font-size="10.00">std::ofstream</text>
</a>
</g>
</g>
<!-- Node6&#45;&gt;Node2 -->
<g id="edge5" class="edge"><title>Node6&#45;&gt;Node2</title>
<path fill="none" stroke="#9a32cd" stroke-dasharray="5,2" d="M210.763,-118.726C203.755,-111.27 194.91,-102.637 186,-96 176.348,-88.8098 164.54,-82.3407 154.823,-77.5384"/>
<polygon fill="#9a32cd" stroke="#9a32cd" points="208.246,-121.16 217.564,-126.203 213.425,-116.45 208.246,-121.16"/>
<text text-anchor="middle" x="210" y="-99.5" font-family="Helvetica,sans-Serif" font-size="10.00"> file_</text>
</g>
<!-- Node7 -->
<g id="node7" class="node"><title>Node7</title>
<g id="a_node7"><a xlink:title="STL class. ">
<polygon fill="white" stroke="#bfbfbf" points="193.5,-185 193.5,-215 296.5,-215 296.5,-185 193.5,-185"/>
<text text-anchor="start" x="201.5" y="-203" font-family="Helvetica,sans-Serif" font-size="10.00">std::basic_ofstream</text>
<text text-anchor="middle" x="245" y="-192" font-family="Helvetica,sans-Serif" font-size="10.00">&lt; char &gt;</text>
</a>
</g>
</g>
<!-- Node7&#45;&gt;Node6 -->
<g id="edge6" class="edge"><title>Node7&#45;&gt;Node6</title>
<path fill="none" stroke="midnightblue" d="M237.32,-175.193C234,-164.9 230.319,-153.487 227.852,-145.842"/>
<polygon fill="midnightblue" stroke="midnightblue" points="234.061,-176.489 240.462,-184.931 240.723,-174.34 234.061,-176.489"/>
</g>
<!-- Node8 -->
<g id="node8" class="node"><title>Node8</title>
<g id="a_node8"><a xlink:title="STL class. ">
<polygon fill="white" stroke="#bfbfbf" points="195,-255 195,-285 295,-285 295,-255 195,-255"/>
<text text-anchor="start" x="203" y="-273" font-family="Helvetica,sans-Serif" font-size="10.00">std::basic_ostream</text>
<text text-anchor="middle" x="245" y="-262" font-family="Helvetica,sans-Serif" font-size="10.00">&lt; Char &gt;</text>
</a>
</g>
</g>
<!-- Node8&#45;&gt;Node7 -->
<g id="edge7" class="edge"><title>Node8&#45;&gt;Node7</title>
<path fill="none" stroke="midnightblue" d="M245,-244.769C245,-234.814 245,-223.638 245,-215.072"/>
<polygon fill="midnightblue" stroke="midnightblue" points="241.5,-244.91 245,-254.91 248.5,-244.91 241.5,-244.91"/>
</g>
<!-- Node9 -->
<g id="node9" class="node"><title>Node9</title>
<g id="a_node9"><a xlink:title="STL class. ">
<polygon fill="white" stroke="#bfbfbf" points="187,-324.5 187,-343.5 303,-343.5 303,-324.5 187,-324.5"/>
<text text-anchor="middle" x="245" y="-331.5" font-family="Helvetica,sans-Serif" font-size="10.00">std::basic_ios&lt; Char &gt;</text>
</a>
</g>
</g>
<!-- Node9&#45;&gt;Node8 -->
<g id="edge8" class="edge"><title>Node9&#45;&gt;Node8</title>
<path fill="none" stroke="midnightblue" d="M245,-314.183C245,-304.886 245,-293.851 245,-285.263"/>
<polygon fill="midnightblue" stroke="midnightblue" points="241.5,-314.379 245,-324.379 248.5,-314.379 241.5,-314.379"/>
</g>
<!-- Node10 -->
<g id="node10" class="node"><title>Node10</title>
<g id="a_node10"><a xlink:title="STL class. ">
<polygon fill="white" stroke="#bfbfbf" points="207.5,-382.5 207.5,-401.5 282.5,-401.5 282.5,-382.5 207.5,-382.5"/>
<text text-anchor="middle" x="245" y="-389.5" font-family="Helvetica,sans-Serif" font-size="10.00">std::ios_base</text>
</a>
</g>
</g>
<!-- Node10&#45;&gt;Node9 -->
<g id="edge9" class="edge"><title>Node10&#45;&gt;Node9</title>
<path fill="none" stroke="midnightblue" d="M245,-371.953C245,-362.287 245,-351.031 245,-343.505"/>
<polygon fill="midnightblue" stroke="midnightblue" points="241.5,-372.25 245,-382.25 248.5,-372.25 241.5,-372.25"/>
</g>
</g>
</svg>
