<?xml version="1.0" encoding="UTF-8" standalone="no"?>
<!DOCTYPE svg PUBLIC "-//W3C//DTD SVG 1.1//EN"
 "http://www.w3.org/Graphics/SVG/1.1/DTD/svg11.dtd">
<!-- Generated by graphviz version 2.36.0 (20140111.2315)
 -->
<!-- Title: graphics::BasicTransformWriter Pages: 1 -->
<svg width="310pt" height="422pt"
 viewBox="0.00 0.00 310.00 422.00" xmlns="http://www.w3.org/2000/svg" xmlns:xlink="http://www.w3.org/1999/xlink">
<g id="graph0" class="graph" transform="scale(1 1) rotate(0) translate(4 418)">
<title>graphics::BasicTransformWriter</title>
<polygon fill="white" stroke="none" points="-4,4 -4,-418 306,-418 306,4 -4,4"/>
<!-- Node1 -->
<g id="node1" class="node"><title>Node1</title>
<polygon fill="#bfbfbf" stroke="black" points="72,-1 72,-31 200,-31 200,-1 72,-1"/>
<text text-anchor="start" x="80" y="-19" font-family="Helvetica,sans-Serif" font-size="10.00">graphics::BasicTransform</text>
<text text-anchor="middle" x="136" y="-8" font-family="Helvetica,sans-Serif" font-size="10.00">Writer</text>
</g>
<!-- Node2 -->
<g id="node2" class="node"><title>Node2</title>
<g id="a_node2"><a xlink:href="a00021.html" target="_top" xlink:title="graphics::TransformWriter">
<polygon fill="white" stroke="black" points="71,-70.5 71,-89.5 201,-89.5 201,-70.5 71,-70.5"/>
<text text-anchor="middle" x="136" y="-77.5" font-family="Helvetica,sans-Serif" font-size="10.00">graphics::TransformWriter</text>
</a>
</g>
</g>
<!-- Node2&#45;&gt;Node1 -->
<g id="edge1" class="edge"><title>Node2&#45;&gt;Node1</title>
<path fill="none" stroke="midnightblue" d="M136,-60.1826C136,-50.8859 136,-39.8507 136,-31.263"/>
<polygon fill="midnightblue" stroke="midnightblue" points="132.5,-60.3791 136,-70.3792 139.5,-60.3792 132.5,-60.3791"/>
</g>
<!-- Node3 -->
<g id="node3" class="node"><title>Node3</title>
<polygon fill="white" stroke="#bfbfbf" points="-0.5,-138.5 -0.5,-157.5 88.5,-157.5 88.5,-138.5 -0.5,-138.5"/>
<text text-anchor="middle" x="44" y="-145.5" font-family="Helvetica,sans-Serif" font-size="10.00">osg::Referenced</text>
</g>
<!-- Node3&#45;&gt;Node2 -->
<g id="edge2" class="edge"><title>Node3&#45;&gt;Node2</title>
<path fill="none" stroke="midnightblue" d="M64.2747,-132.455C82.5521,-119.343 108.816,-100.502 123.97,-89.6305"/>
<polygon fill="midnightblue" stroke="midnightblue" points="62.1126,-129.699 56.0274,-138.372 66.193,-135.386 62.1126,-129.699"/>
</g>
<!-- Node4 -->
<g id="node4" class="node"><title>Node4</title>
<g id="a_node4"><a xlink:title="STL class. ">
<polygon fill="white" stroke="#bfbfbf" points="106,-138.5 106,-157.5 166,-157.5 166,-138.5 106,-138.5"/>
<text text-anchor="middle" x="136" y="-145.5" font-family="Helvetica,sans-Serif" font-size="10.00">std::string</text>
</a>
</g>
</g>
<!-- Node4&#45;&gt;Node2 -->
<g id="edge3" class="edge"><title>Node4&#45;&gt;Node2</title>
<path fill="none" stroke="#9a32cd" stroke-dasharray="5,2" d="M136,-128.041C136,-115.472 136,-99.5631 136,-89.8411"/>
<polygon fill="#9a32cd" stroke="#9a32cd" points="132.5,-128.372 136,-138.372 139.5,-128.372 132.5,-128.372"/>
<text text-anchor="middle" x="159" y="-111.5" font-family="Helvetica,sans-Serif" font-size="10.00"> filename_</text>
</g>
<!-- Node5 -->
<g id="node5" class="node"><title>Node5</title>
<g id="a_node5"><a xlink:title="STL class. ">
<polygon fill="white" stroke="#bfbfbf" points="80.5,-197 80.5,-227 175.5,-227 175.5,-197 80.5,-197"/>
<text text-anchor="start" x="88.5" y="-215" font-family="Helvetica,sans-Serif" font-size="10.00">std::basic_string&lt;</text>
<text text-anchor="middle" x="128" y="-204" font-family="Helvetica,sans-Serif" font-size="10.00"> char &gt;</text>
</a>
</g>
</g>
<!-- Node5&#45;&gt;Node4 -->
<g id="edge4" class="edge"><title>Node5&#45;&gt;Node4</title>
<path fill="none" stroke="midnightblue" d="M131.113,-186.871C132.431,-176.663 133.883,-165.408 134.859,-157.842"/>
<polygon fill="midnightblue" stroke="midnightblue" points="127.624,-186.566 129.815,-196.931 134.566,-187.461 127.624,-186.566"/>
</g>
<!-- Node6 -->
<g id="node6" class="node"><title>Node6</title>
<g id="a_node6"><a xlink:title="STL class. ">
<polygon fill="white" stroke="#bfbfbf" points="188,-138.5 188,-157.5 262,-157.5 262,-138.5 188,-138.5"/>
<text text-anchor="middle" x="225" y="-145.5" font-family="Helvetica,sans-Serif" font-size="10.00">std::ofstream</text>
</a>
</g>
</g>
<!-- Node6&#45;&gt;Node2 -->
<g id="edge5" class="edge"><title>Node6&#45;&gt;Node2</title>
<path fill="none" stroke="#9a32cd" stroke-dasharray="5,2" d="M210.763,-130.726C203.755,-123.27 194.91,-114.637 186,-108 176.348,-100.81 164.54,-94.3407 154.823,-89.5384"/>
<polygon fill="#9a32cd" stroke="#9a32cd" points="208.246,-133.16 217.564,-138.203 213.425,-128.45 208.246,-133.16"/>
<text text-anchor="middle" x="210" y="-111.5" font-family="Helvetica,sans-Serif" font-size="10.00"> file_</text>
</g>
<!-- Node7 -->
<g id="node7" class="node"><title>Node7</title>
<g id="a_node7"><a xlink:title="STL class. ">
<polygon fill="white" stroke="#bfbfbf" points="193.5,-197 193.5,-227 296.5,-227 296.5,-197 193.5,-197"/>
<text text-anchor="start" x="201.5" y="-215" font-family="Helvetica,sans-Serif" font-size="10.00">std::basic_ofstream</text>
<text text-anchor="middle" x="245" y="-204" font-family="Helvetica,sans-Serif" font-size="10.00">&lt; char &gt;</text>
</a>
</g>
</g>
<!-- Node7&#45;&gt;Node6 -->
<g id="edge6" class="edge"><title>Node7&#45;&gt;Node6</title>
<path fill="none" stroke="midnightblue" d="M237.32,-187.193C234,-176.9 230.319,-165.487 227.852,-157.842"/>
<polygon fill="midnightblue" stroke="midnightblue" points="234.061,-188.489 240.462,-196.931 240.723,-186.34 234.061,-188.489"/>
</g>
<!-- Node8 -->
<g id="node8" class="node"><title>Node8</title>
<g id="a_node8"><a xlink:title="STL class. ">
<polygon fill="white" stroke="#bfbfbf" points="195,-267 195,-297 295,-297 295,-267 195,-267"/>
<text text-anchor="start" x="203" y="-285" font-family="Helvetica,sans-Serif" font-size="10.00">std::basic_ostream</text>
<text text-anchor="middle" x="245" y="-274" font-family="Helvetica,sans-Serif" font-size="10.00">&lt; Char &gt;</text>
</a>
</g>
</g>
<!-- Node8&#45;&gt;Node7 -->
<g id="edge7" class="edge"><title>Node8&#45;&gt;Node7</title>
<path fill="none" stroke="midnightblue" d="M245,-256.769C245,-246.814 245,-235.638 245,-227.072"/>
<polygon fill="midnightblue" stroke="midnightblue" points="241.5,-256.91 245,-266.91 248.5,-256.91 241.5,-256.91"/>
</g>
<!-- Node9 -->
<g id="node9" class="node"><title>Node9</title>
<g id="a_node9"><a xlink:title="STL class. ">
<polygon fill="white" stroke="#bfbfbf" points="187,-336.5 187,-355.5 303,-355.5 303,-336.5 187,-336.5"/>
<text text-anchor="middle" x="245" y="-343.5" font-family="Helvetica,sans-Serif" font-size="10.00">std::basic_ios&lt; Char &gt;</text>
</a>
</g>
</g>
<!-- Node9&#45;&gt;Node8 -->
<g id="edge8" class="edge"><title>Node9&#45;&gt;Node8</title>
<path fill="none" stroke="midnightblue" d="M245,-326.183C245,-316.886 245,-305.851 245,-297.263"/>
<polygon fill="midnightblue" stroke="midnightblue" points="241.5,-326.379 245,-336.379 248.5,-326.379 241.5,-326.379"/>
</g>
<!-- Node10 -->
<g id="node10" class="node"><title>Node10</title>
<g id="a_node10"><a xlink:title="STL class. ">
<polygon fill="white" stroke="#bfbfbf" points="207.5,-394.5 207.5,-413.5 282.5,-413.5 282.5,-394.5 207.5,-394.5"/>
<text text-anchor="middle" x="245" y="-401.5" font-family="Helvetica,sans-Serif" font-size="10.00">std::ios_base</text>
</a>
</g>
</g>
<!-- Node10&#45;&gt;Node9 -->
<g id="edge9" class="edge"><title>Node10&#45;&gt;Node9</title>
<path fill="none" stroke="midnightblue" d="M245,-383.953C245,-374.287 245,-363.031 245,-355.505"/>
<polygon fill="midnightblue" stroke="midnightblue" points="241.5,-384.25 245,-394.25 248.5,-384.25 241.5,-384.25"/>
</g>
</g>
</svg>
