<?xml version="1.0" encoding="UTF-8" standalone="no"?>
<!DOCTYPE svg PUBLIC "-//W3C//DTD SVG 1.1//EN"
 "http://www.w3.org/Graphics/SVG/1.1/DTD/svg11.dtd">
<!-- Generated by graphviz version 2.36.0 (20140111.2315)
 -->
<!-- Title: Graphical Class Hierarchy Pages: 1 -->
<svg width="268pt" height="560pt"
 viewBox="0.00 0.00 268.00 560.00" xmlns="http://www.w3.org/2000/svg" xmlns:xlink="http://www.w3.org/1999/xlink">
<g id="graph0" class="graph" transform="scale(1 1) rotate(0) translate(4 556)">
<title>Graphical Class Hierarchy</title>
<polygon fill="white" stroke="none" points="-4,4 -4,-556 264,-556 264,4 -4,4"/>
<!-- Node1 -->
<g id="node1" class="node"><title>Node1</title>
<g id="a_node1"><a xlink:href="a00017.html" target="_top" xlink:title="graphics::Node">
<polygon fill="white" stroke="black" points="0.5,-266.5 0.5,-285.5 83.5,-285.5 83.5,-266.5 0.5,-266.5"/>
<text text-anchor="middle" x="42" y="-273.5" font-family="Helvetica,sans-Serif" font-size="10.00">graphics::Node</text>
</a>
</g>
</g>
<!-- Node2 -->
<g id="node2" class="node"><title>Node2</title>
<g id="a_node2"><a xlink:href="a00003.html" target="_top" xlink:title="graphics::GroupNode">
<polygon fill="white" stroke="black" points="135.5,-532.5 135.5,-551.5 244.5,-551.5 244.5,-532.5 135.5,-532.5"/>
<text text-anchor="middle" x="190" y="-539.5" font-family="Helvetica,sans-Serif" font-size="10.00">graphics::GroupNode</text>
</a>
</g>
</g>
<!-- Node1&#45;&gt;Node2 -->
<g id="edge1" class="edge"><title>Node1&#45;&gt;Node2</title>
<path fill="none" stroke="midnightblue" d="M43.1289,-295.99C44.5534,-342.73 54.8121,-459.96 120,-523 124.377,-527.232 129.606,-530.541 135.2,-533.123"/>
<polygon fill="midnightblue" stroke="midnightblue" points="46.6227,-295.632 42.9291,-285.702 39.6241,-295.768 46.6227,-295.632"/>
</g>
<!-- Node3 -->
<g id="node3" class="node"><title>Node3</title>
<g id="a_node3"><a xlink:href="a00005.html" target="_top" xlink:title="Implementation of the XYZAxis GraphicalObject in OSG render. ">
<polygon fill="white" stroke="black" points="126.5,-494.5 126.5,-513.5 253.5,-513.5 253.5,-494.5 126.5,-494.5"/>
<text text-anchor="middle" x="190" y="-501.5" font-family="Helvetica,sans-Serif" font-size="10.00">graphics::LeafNodeArrow</text>
</a>
</g>
</g>
<!-- Node1&#45;&gt;Node3 -->
<g id="edge2" class="edge"><title>Node1&#45;&gt;Node3</title>
<path fill="none" stroke="midnightblue" d="M44.42,-295.697C48.4814,-337.048 63.788,-433.337 120,-485 124.208,-488.868 129.132,-491.959 134.378,-494.428"/>
<polygon fill="midnightblue" stroke="midnightblue" points="47.8934,-295.236 43.548,-285.573 40.9192,-295.837 47.8934,-295.236"/>
</g>
<!-- Node4 -->
<g id="node4" class="node"><title>Node4</title>
<g id="a_node4"><a xlink:href="a00006.html" target="_top" xlink:title="Implementation of the Box GraphicalObject in OSG render engine. ">
<polygon fill="white" stroke="black" points="130.5,-456.5 130.5,-475.5 249.5,-475.5 249.5,-456.5 130.5,-456.5"/>
<text text-anchor="middle" x="190" y="-463.5" font-family="Helvetica,sans-Serif" font-size="10.00">graphics::LeafNodeBox</text>
</a>
</g>
</g>
<!-- Node1&#45;&gt;Node4 -->
<g id="edge3" class="edge"><title>Node1&#45;&gt;Node4</title>
<path fill="none" stroke="midnightblue" d="M46.3025,-295.991C53.2767,-331.748 72.9169,-406.678 120,-447 124.53,-450.879 129.787,-453.972 135.339,-456.436"/>
<polygon fill="midnightblue" stroke="midnightblue" points="49.6921,-295.067 44.4644,-285.851 42.8043,-296.315 49.6921,-295.067"/>
</g>
<!-- Node5 -->
<g id="node5" class="node"><title>Node5</title>
<g id="a_node5"><a xlink:href="a00007.html" target="_top" xlink:title="Implementation of the Capsule GraphicalObject in OSG render. ">
<polygon fill="white" stroke="black" points="121.5,-418.5 121.5,-437.5 258.5,-437.5 258.5,-418.5 121.5,-418.5"/>
<text text-anchor="middle" x="190" y="-425.5" font-family="Helvetica,sans-Serif" font-size="10.00">graphics::LeafNodeCapsule</text>
</a>
</g>
</g>
<!-- Node1&#45;&gt;Node5 -->
<g id="edge4" class="edge"><title>Node1&#45;&gt;Node5</title>
<path fill="none" stroke="midnightblue" d="M48.9827,-295.584C58.9142,-324.758 81.607,-379.366 120,-409 125.016,-412.872 130.772,-415.955 136.774,-418.41"/>
<polygon fill="midnightblue" stroke="midnightblue" points="52.2089,-294.186 45.7951,-285.753 45.5502,-296.345 52.2089,-294.186"/>
</g>
<!-- Node6 -->
<g id="node6" class="node"><title>Node6</title>
<g id="a_node6"><a xlink:href="a00008.html" target="_top" xlink:title="Implementation of the Collada GraphicalObject in OSG render. ">
<polygon fill="white" stroke="black" points="123,-380.5 123,-399.5 257,-399.5 257,-380.5 123,-380.5"/>
<text text-anchor="middle" x="190" y="-387.5" font-family="Helvetica,sans-Serif" font-size="10.00">graphics::LeafNodeCollada</text>
</a>
</g>
</g>
<!-- Node1&#45;&gt;Node6 -->
<g id="edge5" class="edge"><title>Node1&#45;&gt;Node6</title>
<path fill="none" stroke="midnightblue" d="M53.2075,-294.615C66.0048,-316.208 89.9543,-351.35 120,-371 125.927,-374.876 132.636,-377.969 139.484,-380.434"/>
<polygon fill="midnightblue" stroke="midnightblue" points="56.138,-292.689 48.1306,-285.752 50.0638,-296.168 56.138,-292.689"/>
</g>
<!-- Node7 -->
<g id="node7" class="node"><title>Node7</title>
<g id="a_node7"><a xlink:href="a00009.html" target="_top" xlink:title="Implementation of the Cone GraphicalObject in OSG render. ">
<polygon fill="white" stroke="black" points="127.5,-342.5 127.5,-361.5 252.5,-361.5 252.5,-342.5 127.5,-342.5"/>
<text text-anchor="middle" x="190" y="-349.5" font-family="Helvetica,sans-Serif" font-size="10.00">graphics::LeafNodeCone</text>
</a>
</g>
</g>
<!-- Node1&#45;&gt;Node7 -->
<g id="edge6" class="edge"><title>Node1&#45;&gt;Node7</title>
<path fill="none" stroke="midnightblue" d="M61.5058,-292.784C76.3561,-305.455 98.2476,-322.413 120,-333 127.709,-336.752 136.275,-339.862 144.675,-342.403"/>
<polygon fill="midnightblue" stroke="midnightblue" points="63.4626,-289.846 53.6301,-285.9 58.8555,-295.116 63.4626,-289.846"/>
</g>
<!-- Node8 -->
<g id="node8" class="node"><title>Node8</title>
<g id="a_node8"><a xlink:href="a00010.html" target="_top" xlink:title="Implementation of the Cylinder GraphicalObject in OSG render. ">
<polygon fill="white" stroke="black" points="121.5,-304.5 121.5,-323.5 258.5,-323.5 258.5,-304.5 121.5,-304.5"/>
<text text-anchor="middle" x="190" y="-311.5" font-family="Helvetica,sans-Serif" font-size="10.00">graphics::LeafNodeCylinder</text>
</a>
</g>
</g>
<!-- Node1&#45;&gt;Node8 -->
<g id="edge7" class="edge"><title>Node1&#45;&gt;Node8</title>
<path fill="none" stroke="midnightblue" d="M89.536,-288.112C109.87,-293.404 133.371,-299.521 152.423,-304.48"/>
<polygon fill="midnightblue" stroke="midnightblue" points="90.4012,-284.721 79.842,-285.589 88.6379,-291.495 90.4012,-284.721"/>
</g>
<!-- Node9 -->
<g id="node9" class="node"><title>Node9</title>
<g id="a_node9"><a xlink:href="a00011.html" target="_top" xlink:title="Implementation of the Face GraphicalObject in OSG render. ">
<polygon fill="white" stroke="black" points="128.5,-266.5 128.5,-285.5 251.5,-285.5 251.5,-266.5 128.5,-266.5"/>
<text text-anchor="middle" x="190" y="-273.5" font-family="Helvetica,sans-Serif" font-size="10.00">graphics::LeafNodeFace</text>
</a>
</g>
</g>
<!-- Node1&#45;&gt;Node9 -->
<g id="edge8" class="edge"><title>Node1&#45;&gt;Node9</title>
<path fill="none" stroke="midnightblue" d="M93.6845,-276C104.864,-276 116.816,-276 128.345,-276"/>
<polygon fill="midnightblue" stroke="midnightblue" points="93.6692,-272.5 83.6691,-276 93.6691,-279.5 93.6692,-272.5"/>
</g>
<!-- Node10 -->
<g id="node10" class="node"><title>Node10</title>
<g id="a_node10"><a xlink:href="a00012.html" target="_top" xlink:title="graphics::LeafNodeGround">
<polygon fill="white" stroke="black" points="123.5,-228.5 123.5,-247.5 256.5,-247.5 256.5,-228.5 123.5,-228.5"/>
<text text-anchor="middle" x="190" y="-235.5" font-family="Helvetica,sans-Serif" font-size="10.00">graphics::LeafNodeGround</text>
</a>
</g>
</g>
<!-- Node1&#45;&gt;Node10 -->
<g id="edge9" class="edge"><title>Node1&#45;&gt;Node10</title>
<path fill="none" stroke="midnightblue" d="M89.536,-263.888C109.87,-258.596 133.371,-252.479 152.423,-247.52"/>
<polygon fill="midnightblue" stroke="midnightblue" points="88.6379,-260.505 79.842,-266.411 90.4012,-267.279 88.6379,-260.505"/>
</g>
<!-- Node11 -->
<g id="node11" class="node"><title>Node11</title>
<g id="a_node11"><a xlink:href="a00013.html" target="_top" xlink:title="Implementation of the Light GraphicalObject in OSG render. ">
<polygon fill="white" stroke="black" points="129,-190.5 129,-209.5 251,-209.5 251,-190.5 129,-190.5"/>
<text text-anchor="middle" x="190" y="-197.5" font-family="Helvetica,sans-Serif" font-size="10.00">graphics::LeafNodeLight</text>
</a>
</g>
</g>
<!-- Node1&#45;&gt;Node11 -->
<g id="edge10" class="edge"><title>Node1&#45;&gt;Node11</title>
<path fill="none" stroke="midnightblue" d="M61.5058,-259.216C76.3561,-246.545 98.2476,-229.587 120,-219 127.709,-215.248 136.275,-212.138 144.675,-209.597"/>
<polygon fill="midnightblue" stroke="midnightblue" points="58.8555,-256.884 53.6301,-266.1 63.4626,-262.154 58.8555,-256.884"/>
</g>
<!-- Node12 -->
<g id="node12" class="node"><title>Node12</title>
<g id="a_node12"><a xlink:href="a00014.html" target="_top" xlink:title="graphics::LeafNodeLine">
<polygon fill="white" stroke="black" points="130.5,-152.5 130.5,-171.5 249.5,-171.5 249.5,-152.5 130.5,-152.5"/>
<text text-anchor="middle" x="190" y="-159.5" font-family="Helvetica,sans-Serif" font-size="10.00">graphics::LeafNodeLine</text>
</a>
</g>
</g>
<!-- Node1&#45;&gt;Node12 -->
<g id="edge11" class="edge"><title>Node1&#45;&gt;Node12</title>
<path fill="none" stroke="midnightblue" d="M53.2075,-257.385C66.0048,-235.792 89.9543,-200.65 120,-181 125.927,-177.124 132.636,-174.031 139.484,-171.566"/>
<polygon fill="midnightblue" stroke="midnightblue" points="50.0638,-255.832 48.1306,-266.248 56.138,-259.311 50.0638,-255.832"/>
</g>
<!-- Node13 -->
<g id="node13" class="node"><title>Node13</title>
<g id="a_node13"><a xlink:href="a00015.html" target="_top" xlink:title="Implementation of the Sphere GraphicalObject in OSG render. ">
<polygon fill="white" stroke="black" points="124,-114.5 124,-133.5 256,-133.5 256,-114.5 124,-114.5"/>
<text text-anchor="middle" x="190" y="-121.5" font-family="Helvetica,sans-Serif" font-size="10.00">graphics::LeafNodeSphere</text>
</a>
</g>
</g>
<!-- Node1&#45;&gt;Node13 -->
<g id="edge12" class="edge"><title>Node1&#45;&gt;Node13</title>
<path fill="none" stroke="midnightblue" d="M48.9827,-256.416C58.9142,-227.242 81.607,-172.634 120,-143 125.016,-139.128 130.772,-136.045 136.774,-133.59"/>
<polygon fill="midnightblue" stroke="midnightblue" points="45.5502,-255.655 45.7951,-266.247 52.2089,-257.814 45.5502,-255.655"/>
</g>
<!-- Node14 -->
<g id="node14" class="node"><title>Node14</title>
<g id="a_node14"><a xlink:href="a00016.html" target="_top" xlink:title="Implementation of the XYZAxis GraphicalObject in OSG render. ">
<polygon fill="white" stroke="black" points="120,-76.5 120,-95.5 260,-95.5 260,-76.5 120,-76.5"/>
<text text-anchor="middle" x="190" y="-83.5" font-family="Helvetica,sans-Serif" font-size="10.00">graphics::LeafNodeXYZAxis</text>
</a>
</g>
</g>
<!-- Node1&#45;&gt;Node14 -->
<g id="edge13" class="edge"><title>Node1&#45;&gt;Node14</title>
<path fill="none" stroke="midnightblue" d="M46.3025,-256.009C53.2767,-220.252 72.9169,-145.322 120,-105 124.53,-101.121 129.787,-98.028 135.339,-95.5635"/>
<polygon fill="midnightblue" stroke="midnightblue" points="42.8043,-255.685 44.4644,-266.149 49.6921,-256.933 42.8043,-255.685"/>
</g>
<!-- Node15 -->
<g id="node15" class="node"><title>Node15</title>
<g id="a_node15"><a xlink:href="a00018.html" target="_top" xlink:title="graphics::NodeRod">
<polygon fill="white" stroke="black" points="139.5,-38.5 139.5,-57.5 240.5,-57.5 240.5,-38.5 139.5,-38.5"/>
<text text-anchor="middle" x="190" y="-45.5" font-family="Helvetica,sans-Serif" font-size="10.00">graphics::NodeRod</text>
</a>
</g>
</g>
<!-- Node1&#45;&gt;Node15 -->
<g id="edge14" class="edge"><title>Node1&#45;&gt;Node15</title>
<path fill="none" stroke="midnightblue" d="M44.42,-256.303C48.4814,-214.952 63.788,-118.663 120,-67 125.489,-61.9553 132.195,-58.2316 139.247,-55.4868"/>
<polygon fill="midnightblue" stroke="midnightblue" points="40.9192,-256.163 43.548,-266.427 47.8934,-256.764 40.9192,-256.163"/>
</g>
<!-- Node16 -->
<g id="node16" class="node"><title>Node16</title>
<g id="a_node16"><a xlink:href="a00020.html" target="_top" xlink:title="graphics::RoadmapViewer">
<polygon fill="white" stroke="black" points="124.5,-0.5 124.5,-19.5 255.5,-19.5 255.5,-0.5 124.5,-0.5"/>
<text text-anchor="middle" x="190" y="-7.5" font-family="Helvetica,sans-Serif" font-size="10.00">graphics::RoadmapViewer</text>
</a>
</g>
</g>
<!-- Node1&#45;&gt;Node16 -->
<g id="edge15" class="edge"><title>Node1&#45;&gt;Node16</title>
<path fill="none" stroke="midnightblue" d="M43.1289,-256.01C44.5534,-209.27 54.8121,-92.0405 120,-29 124.019,-25.1131 128.758,-22.0057 133.838,-19.5237"/>
<polygon fill="midnightblue" stroke="midnightblue" points="39.6241,-256.232 42.9291,-266.298 46.6227,-256.368 39.6241,-256.232"/>
</g>
</g>
</svg>
