<?xml version="1.0" encoding="UTF-8" standalone="no"?>
<!DOCTYPE svg PUBLIC "-//W3C//DTD SVG 1.1//EN"
 "http://www.w3.org/Graphics/SVG/1.1/DTD/svg11.dtd">
<!-- Generated by graphviz version 2.36.0 (20140111.2315)
 -->
<!-- Title: container.hh Pages: 1 -->
<svg width="224pt" height="96pt"
 viewBox="0.00 0.00 224.00 96.00" xmlns="http://www.w3.org/2000/svg" xmlns:xlink="http://www.w3.org/1999/xlink">
<g id="graph0" class="graph" transform="scale(1 1) rotate(0) translate(4 92)">
<title>container.hh</title>
<polygon fill="white" stroke="none" points="-4,4 -4,-92 220,-92 220,4 -4,4"/>
<!-- Node1 -->
<g id="node1" class="node"><title>Node1</title>
<polygon fill="#bfbfbf" stroke="black" points="32,-68.5 32,-87.5 102,-87.5 102,-68.5 32,-68.5"/>
<text text-anchor="middle" x="67" y="-75.5" font-family="Helvetica,sans-Serif" font-size="10.00">container.hh</text>
</g>
<!-- Node2 -->
<g id="node2" class="node"><title>Node2</title>
<polygon fill="white" stroke="#bfbfbf" points="-0.5,-6.5 -0.5,-25.5 34.5,-25.5 34.5,-6.5 -0.5,-6.5"/>
<text text-anchor="middle" x="17" y="-13.5" font-family="Helvetica,sans-Serif" font-size="10.00">map</text>
</g>
<!-- Node1&#45;&gt;Node2 -->
<g id="edge1" class="edge"><title>Node1&#45;&gt;Node2</title>
<path fill="none" stroke="midnightblue" d="M59.8362,-68.4035C52.2619,-59.3143 40.1299,-44.7559 30.7074,-33.4489"/>
<polygon fill="midnightblue" stroke="midnightblue" points="33.2412,-31.0222 24.1505,-25.5806 27.8636,-35.5035 33.2412,-31.0222"/>
</g>
<!-- Node3 -->
<g id="node3" class="node"><title>Node3</title>
<polygon fill="white" stroke="#bfbfbf" points="52.5,-6.5 52.5,-25.5 81.5,-25.5 81.5,-6.5 52.5,-6.5"/>
<text text-anchor="middle" x="67" y="-13.5" font-family="Helvetica,sans-Serif" font-size="10.00">list</text>
</g>
<!-- Node1&#45;&gt;Node3 -->
<g id="edge2" class="edge"><title>Node1&#45;&gt;Node3</title>
<path fill="none" stroke="midnightblue" d="M67,-68.4035C67,-59.9381 67,-46.7283 67,-35.8199"/>
<polygon fill="midnightblue" stroke="midnightblue" points="70.5001,-35.5806 67,-25.5806 63.5001,-35.5806 70.5001,-35.5806"/>
</g>
<!-- Node4 -->
<g id="node4" class="node"><title>Node4</title>
<polygon fill="white" stroke="#bfbfbf" points="99.5,-1 99.5,-31 216.5,-31 216.5,-1 99.5,-1"/>
<text text-anchor="start" x="107.5" y="-19" font-family="Helvetica,sans-Serif" font-size="10.00">boost/smart_ptr/shared</text>
<text text-anchor="middle" x="158" y="-8" font-family="Helvetica,sans-Serif" font-size="10.00">_ptr.hpp</text>
</g>
<!-- Node1&#45;&gt;Node4 -->
<g id="edge3" class="edge"><title>Node1&#45;&gt;Node4</title>
<path fill="none" stroke="midnightblue" d="M80.0381,-68.4035C92.4779,-60.2014 111.673,-47.5454 127.903,-36.8441"/>
<polygon fill="midnightblue" stroke="midnightblue" points="130.131,-39.5675 136.553,-31.1408 126.278,-33.7234 130.131,-39.5675"/>
</g>
</g>
</svg>
