<?xml version="1.0" encoding="UTF-8" standalone="no"?>
<!DOCTYPE svg PUBLIC "-//W3C//DTD SVG 1.1//EN"
 "http://www.w3.org/Graphics/SVG/1.1/DTD/svg11.dtd">
<!-- Generated by graphviz version 2.36.0 (20140111.2315)
 -->
<!-- Title: dot.hh Pages: 1 -->
<svg width="230pt" height="84pt"
 viewBox="0.00 0.00 230.00 84.00" xmlns="http://www.w3.org/2000/svg" xmlns:xlink="http://www.w3.org/1999/xlink">
<g id="graph0" class="graph" transform="scale(1 1) rotate(0) translate(4 80)">
<title>dot.hh</title>
<polygon fill="white" stroke="none" points="-4,4 -4,-80 226,-80 226,4 -4,4"/>
<!-- Node1 -->
<g id="node1" class="node"><title>Node1</title>
<polygon fill="#bfbfbf" stroke="black" points="105,-56.5 105,-75.5 149,-75.5 149,-56.5 105,-56.5"/>
<text text-anchor="middle" x="127" y="-63.5" font-family="Helvetica,sans-Serif" font-size="10.00">dot.hh</text>
</g>
<!-- Node2 -->
<g id="node2" class="node"><title>Node2</title>
<polygon fill="white" stroke="#bfbfbf" points="0,-0.5 0,-19.5 52,-19.5 52,-0.5 0,-0.5"/>
<text text-anchor="middle" x="26" y="-7.5" font-family="Helvetica,sans-Serif" font-size="10.00">ostream</text>
</g>
<!-- Node1&#45;&gt;Node2 -->
<g id="edge1" class="edge"><title>Node1&#45;&gt;Node2</title>
<path fill="none" stroke="midnightblue" d="M110.773,-56.324C94.649,-47.7034 69.6998,-34.3643 51.0359,-24.3855"/>
<polygon fill="midnightblue" stroke="midnightblue" points="52.6561,-21.283 42.1871,-19.6545 49.3556,-27.456 52.6561,-21.283"/>
</g>
<!-- Node3 -->
<g id="node3" class="node"><title>Node3</title>
<polygon fill="white" stroke="#bfbfbf" points="70,-0.5 70,-19.5 122,-19.5 122,-0.5 70,-0.5"/>
<text text-anchor="middle" x="96" y="-7.5" font-family="Helvetica,sans-Serif" font-size="10.00">sstream</text>
</g>
<!-- Node1&#45;&gt;Node3 -->
<g id="edge2" class="edge"><title>Node1&#45;&gt;Node3</title>
<path fill="none" stroke="midnightblue" d="M121.881,-56.083C117.592,-48.6127 111.342,-37.7244 106.058,-28.5199"/>
<polygon fill="midnightblue" stroke="midnightblue" points="109.038,-26.6811 101.024,-19.7511 102.967,-30.1662 109.038,-26.6811"/>
</g>
<!-- Node4 -->
<g id="node4" class="node"><title>Node4</title>
<polygon fill="white" stroke="#bfbfbf" points="140.5,-0.5 140.5,-19.5 175.5,-19.5 175.5,-0.5 140.5,-0.5"/>
<text text-anchor="middle" x="158" y="-7.5" font-family="Helvetica,sans-Serif" font-size="10.00">map</text>
</g>
<!-- Node1&#45;&gt;Node4 -->
<g id="edge3" class="edge"><title>Node1&#45;&gt;Node4</title>
<path fill="none" stroke="midnightblue" d="M132.119,-56.083C136.408,-48.6127 142.658,-37.7244 147.942,-28.5199"/>
<polygon fill="midnightblue" stroke="midnightblue" points="151.033,-30.1662 152.976,-19.7511 144.962,-26.6811 151.033,-30.1662"/>
</g>
<!-- Node5 -->
<g id="node5" class="node"><title>Node5</title>
<polygon fill="white" stroke="#bfbfbf" points="193.5,-0.5 193.5,-19.5 222.5,-19.5 222.5,-0.5 193.5,-0.5"/>
<text text-anchor="middle" x="208" y="-7.5" font-family="Helvetica,sans-Serif" font-size="10.00">list</text>
</g>
<!-- Node1&#45;&gt;Node5 -->
<g id="edge4" class="edge"><title>Node1&#45;&gt;Node5</title>
<path fill="none" stroke="midnightblue" d="M140.014,-56.324C152.532,-47.979 171.682,-35.2122 186.471,-25.3524"/>
<polygon fill="midnightblue" stroke="midnightblue" points="188.639,-28.1137 195.018,-19.6545 184.756,-22.2894 188.639,-28.1137"/>
</g>
</g>
</svg>
