<?xml version="1.0" encoding="UTF-8" standalone="no"?>
<!DOCTYPE svg PUBLIC "-//W3C//DTD SVG 1.1//EN"
 "http://www.w3.org/Graphics/SVG/1.1/DTD/svg11.dtd">
<!-- Generated by graphviz version 2.36.0 (20140111.2315)
 -->
<!-- Title: edge.hh Pages: 1 -->
<svg width="465pt" height="252pt"
 viewBox="0.00 0.00 465.00 252.00" xmlns="http://www.w3.org/2000/svg" xmlns:xlink="http://www.w3.org/1999/xlink">
<g id="graph0" class="graph" transform="scale(1 1) rotate(0) translate(4 248)">
<title>edge.hh</title>
<polygon fill="white" stroke="none" points="-4,4 -4,-248 461,-248 461,4 -4,4"/>
<!-- Node1 -->
<g id="node1" class="node"><title>Node1</title>
<polygon fill="#bfbfbf" stroke="black" points="192.5,-224.5 192.5,-243.5 243.5,-243.5 243.5,-224.5 192.5,-224.5"/>
<text text-anchor="middle" x="218" y="-231.5" font-family="Helvetica,sans-Serif" font-size="10.00">edge.hh</text>
</g>
<!-- Node2 -->
<g id="node2" class="node"><title>Node2</title>
<g id="a_node2"><a xlink:href="a00003.html" target="_top" xlink:title="node.hh">
<polygon fill="white" stroke="black" points="192.5,-168.5 192.5,-187.5 243.5,-187.5 243.5,-168.5 192.5,-168.5"/>
<text text-anchor="middle" x="218" y="-175.5" font-family="Helvetica,sans-Serif" font-size="10.00">node.hh</text>
</a>
</g>
</g>
<!-- Node1&#45;&gt;Node2 -->
<g id="edge1" class="edge"><title>Node1&#45;&gt;Node2</title>
<path fill="none" stroke="midnightblue" d="M218,-213.805C218,-204.91 218,-194.78 218,-187.751"/>
<polygon fill="midnightblue" stroke="midnightblue" points="214.5,-214.083 218,-224.083 221.5,-214.083 214.5,-214.083"/>
</g>
<!-- Node3 -->
<g id="node3" class="node"><title>Node3</title>
<g id="a_node3"><a xlink:href="a00061.html" target="_top" xlink:title="node&#45;selector.hh">
<polygon fill="white" stroke="black" points="55.5,-112.5 55.5,-131.5 144.5,-131.5 144.5,-112.5 55.5,-112.5"/>
<text text-anchor="middle" x="100" y="-119.5" font-family="Helvetica,sans-Serif" font-size="10.00">node&#45;selector.hh</text>
</a>
</g>
</g>
<!-- Node2&#45;&gt;Node3 -->
<g id="edge2" class="edge"><title>Node2&#45;&gt;Node3</title>
<path fill="none" stroke="midnightblue" d="M190.1,-164.232C168.027,-154.131 137.824,-140.309 118.61,-131.516"/>
<polygon fill="midnightblue" stroke="midnightblue" points="188.753,-167.465 199.303,-168.444 191.666,-161.1 188.753,-167.465"/>
</g>
<!-- Node5 -->
<g id="node5" class="node"><title>Node5</title>
<g id="a_node5"><a xlink:href="a00066.html" target="_top" xlink:title="statistics.hh">
<polygon fill="white" stroke="black" points="183,-112.5 183,-131.5 253,-131.5 253,-112.5 183,-112.5"/>
<text text-anchor="middle" x="218" y="-119.5" font-family="Helvetica,sans-Serif" font-size="10.00">statistics.hh</text>
</a>
</g>
</g>
<!-- Node2&#45;&gt;Node5 -->
<g id="edge4" class="edge"><title>Node2&#45;&gt;Node5</title>
<path fill="none" stroke="midnightblue" d="M218,-157.805C218,-148.91 218,-138.78 218,-131.751"/>
<polygon fill="midnightblue" stroke="midnightblue" points="214.5,-158.083 218,-168.083 221.5,-158.083 214.5,-158.083"/>
</g>
<!-- Node8 -->
<g id="node8" class="node"><title>Node8</title>
<g id="a_node8"><a xlink:href="a00053.html" target="_top" xlink:title="graph&#45;path&#45;validation.hh">
<polygon fill="white" stroke="black" points="313,-112.5 313,-131.5 433,-131.5 433,-112.5 313,-112.5"/>
<text text-anchor="middle" x="373" y="-119.5" font-family="Helvetica,sans-Serif" font-size="10.00">graph&#45;path&#45;validation.hh</text>
</a>
</g>
</g>
<!-- Node2&#45;&gt;Node8 -->
<g id="edge7" class="edge"><title>Node2&#45;&gt;Node8</title>
<path fill="none" stroke="midnightblue" d="M252.332,-165.039C281.497,-154.879 322.637,-140.546 348.555,-131.516"/>
<polygon fill="midnightblue" stroke="midnightblue" points="250.852,-161.848 242.56,-168.444 253.155,-168.459 250.852,-161.848"/>
</g>
<!-- Node4 -->
<g id="node4" class="node"><title>Node4</title>
<g id="a_node4"><a xlink:href="a00056.html" target="_top" xlink:title="guided&#45;node&#45;selector.hh">
<polygon fill="white" stroke="black" points="-1,-56.5 -1,-75.5 119,-75.5 119,-56.5 -1,-56.5"/>
<text text-anchor="middle" x="59" y="-63.5" font-family="Helvetica,sans-Serif" font-size="10.00">guided&#45;node&#45;selector.hh</text>
</a>
</g>
</g>
<!-- Node3&#45;&gt;Node4 -->
<g id="edge3" class="edge"><title>Node3&#45;&gt;Node4</title>
<path fill="none" stroke="midnightblue" d="M86.9828,-103.855C79.8833,-94.5048 71.396,-83.3265 65.6443,-75.7511"/>
<polygon fill="midnightblue" stroke="midnightblue" points="84.395,-106.235 93.2297,-112.083 89.9701,-102.002 84.395,-106.235"/>
</g>
<!-- Node6 -->
<g id="node6" class="node"><title>Node6</title>
<g id="a_node6"><a xlink:href="a00060.html" target="_top" xlink:title="manipulation&#45;planner.hh">
<polygon fill="white" stroke="black" points="137.5,-56.5 137.5,-75.5 256.5,-75.5 256.5,-56.5 137.5,-56.5"/>
<text text-anchor="middle" x="197" y="-63.5" font-family="Helvetica,sans-Serif" font-size="10.00">manipulation&#45;planner.hh</text>
</a>
</g>
</g>
<!-- Node5&#45;&gt;Node6 -->
<g id="edge5" class="edge"><title>Node5&#45;&gt;Node6</title>
<path fill="none" stroke="midnightblue" d="M210.879,-102.69C207.34,-93.589 203.228,-83.0141 200.403,-75.7511"/>
<polygon fill="midnightblue" stroke="midnightblue" points="207.646,-104.032 214.532,-112.083 214.17,-101.494 207.646,-104.032"/>
</g>
<!-- Node7 -->
<g id="node7" class="node"><title>Node7</title>
<g id="a_node7"><a xlink:href="a00064.html" target="_top" xlink:title="roadmap.hh">
<polygon fill="white" stroke="black" points="275,-56.5 275,-75.5 343,-75.5 343,-56.5 275,-56.5"/>
<text text-anchor="middle" x="309" y="-63.5" font-family="Helvetica,sans-Serif" font-size="10.00">roadmap.hh</text>
</a>
</g>
</g>
<!-- Node5&#45;&gt;Node7 -->
<g id="edge6" class="edge"><title>Node5&#45;&gt;Node7</title>
<path fill="none" stroke="midnightblue" d="M241.294,-107.177C258.039,-97.2407 280.1,-84.1492 294.416,-75.6545"/>
<polygon fill="midnightblue" stroke="midnightblue" points="239.434,-104.211 232.621,-112.324 243.007,-110.231 239.434,-104.211"/>
</g>
<!-- Node9 -->
<g id="node9" class="node"><title>Node9</title>
<g id="a_node9"><a xlink:href="a00006.html" target="_top" xlink:title="problem.hh">
<polygon fill="white" stroke="black" points="361.5,-56.5 361.5,-75.5 426.5,-75.5 426.5,-56.5 361.5,-56.5"/>
<text text-anchor="middle" x="394" y="-63.5" font-family="Helvetica,sans-Serif" font-size="10.00">problem.hh</text>
</a>
</g>
</g>
<!-- Node8&#45;&gt;Node9 -->
<g id="edge8" class="edge"><title>Node8&#45;&gt;Node9</title>
<path fill="none" stroke="midnightblue" d="M380.121,-102.69C383.66,-93.589 387.772,-83.0141 390.597,-75.7511"/>
<polygon fill="midnightblue" stroke="midnightblue" points="376.83,-101.494 376.468,-112.083 383.354,-104.032 376.83,-101.494"/>
</g>
<!-- Node10 -->
<g id="node10" class="node"><title>Node10</title>
<g id="a_node10"><a xlink:href="a00054.html" target="_top" xlink:title="graph&#45;steering&#45;method.hh">
<polygon fill="white" stroke="black" points="330.5,-0.5 330.5,-19.5 457.5,-19.5 457.5,-0.5 330.5,-0.5"/>
<text text-anchor="middle" x="394" y="-7.5" font-family="Helvetica,sans-Serif" font-size="10.00">graph&#45;steering&#45;method.hh</text>
</a>
</g>
</g>
<!-- Node9&#45;&gt;Node10 -->
<g id="edge9" class="edge"><title>Node9&#45;&gt;Node10</title>
<path fill="none" stroke="midnightblue" d="M394,-45.8045C394,-36.9102 394,-26.7798 394,-19.7511"/>
<polygon fill="midnightblue" stroke="midnightblue" points="390.5,-46.083 394,-56.083 397.5,-46.083 390.5,-46.083"/>
</g>
</g>
</svg>
