<?xml version="1.0" encoding="UTF-8" standalone="no"?>
<!DOCTYPE svg PUBLIC "-//W3C//DTD SVG 1.1//EN"
 "http://www.w3.org/Graphics/SVG/1.1/DTD/svg11.dtd">
<!-- Generated by graphviz version 2.36.0 (20140111.2315)
 -->
<!-- Title: fwd.hh Pages: 1 -->
<svg width="869pt" height="672pt"
 viewBox="0.00 0.00 869.00 672.00" xmlns="http://www.w3.org/2000/svg" xmlns:xlink="http://www.w3.org/1999/xlink">
<g id="graph0" class="graph" transform="scale(1 1) rotate(0) translate(4 668)">
<title>fwd.hh</title>
<polygon fill="white" stroke="none" points="-4,4 -4,-668 865,-668 865,4 -4,4"/>
<!-- Node1 -->
<g id="node1" class="node"><title>Node1</title>
<polygon fill="#bfbfbf" stroke="black" points="134,-644.5 134,-663.5 180,-663.5 180,-644.5 134,-644.5"/>
<text text-anchor="middle" x="157" y="-651.5" font-family="Helvetica,sans-Serif" font-size="10.00">fwd.hh</text>
</g>
<!-- Node2 -->
<g id="node2" class="node"><title>Node2</title>
<polygon fill="white" stroke="#bfbfbf" points="-0.5,-582.5 -0.5,-601.5 34.5,-601.5 34.5,-582.5 -0.5,-582.5"/>
<text text-anchor="middle" x="17" y="-589.5" font-family="Helvetica,sans-Serif" font-size="10.00">map</text>
</g>
<!-- Node1&#45;&gt;Node2 -->
<g id="edge1" class="edge"><title>Node1&#45;&gt;Node2</title>
<path fill="none" stroke="midnightblue" d="M133.689,-644.713C110.578,-636.266 74.3335,-622.393 44,-608 42.8555,-607.457 41.6922,-606.886 40.5235,-606.298"/>
<polygon fill="midnightblue" stroke="midnightblue" points="42.1493,-603.198 31.6757,-601.6 38.8664,-609.381 42.1493,-603.198"/>
</g>
<!-- Node3 -->
<g id="node3" class="node"><title>Node3</title>
<g id="a_node3"><a doxygen="https://jmirabel.github.io/hpp-doc/api/hpp-core/doxygen-html/hpp-core.doxytag:https://jmirabel.github.io/hpp-doc/api/hpp-core/doxygen-html/" xlink:href="https://jmirabel.github.io/hpp-doc/api/hpp-core/doxygen-html/a00001.html" target="_top" xlink:title="hpp/core/fwd.hh">
<polygon fill="white" stroke="black" points="53,-582.5 53,-601.5 139,-601.5 139,-582.5 53,-582.5"/>
<text text-anchor="middle" x="96" y="-589.5" font-family="Helvetica,sans-Serif" font-size="10.00">hpp/core/fwd.hh</text>
</a>
</g>
</g>
<!-- Node1&#45;&gt;Node3 -->
<g id="edge2" class="edge"><title>Node1&#45;&gt;Node3</title>
<path fill="none" stroke="midnightblue" d="M148.26,-644.403C138.838,-635.136 123.636,-620.183 112.051,-608.788"/>
<polygon fill="midnightblue" stroke="midnightblue" points="114.307,-606.098 104.724,-601.581 109.399,-611.088 114.307,-606.098"/>
</g>
<!-- Node4 -->
<g id="node4" class="node"><title>Node4</title>
<g id="a_node4"><a doxygen="https://jmirabel.github.io/hpp-doc/api/hpp-fcl/doxygen-html/hpp-fcl.doxytag:https://jmirabel.github.io/hpp-doc/api/hpp-fcl/doxygen-html/" xlink:href="https://jmirabel.github.io/hpp-doc/api/hpp-fcl/doxygen-html/a00292.html" target="_top" xlink:title="hpp/fcl/shape/geometric\l_shapes.h">
<polygon fill="white" stroke="black" points="157.5,-577 157.5,-607 278.5,-607 278.5,-577 157.5,-577"/>
<text text-anchor="start" x="165.5" y="-595" font-family="Helvetica,sans-Serif" font-size="10.00">hpp/fcl/shape/geometric</text>
<text text-anchor="middle" x="218" y="-584" font-family="Helvetica,sans-Serif" font-size="10.00">_shapes.h</text>
</a>
</g>
</g>
<!-- Node1&#45;&gt;Node4 -->
<g id="edge3" class="edge"><title>Node1&#45;&gt;Node4</title>
<path fill="none" stroke="midnightblue" d="M165.74,-644.403C173.693,-636.581 185.764,-624.708 196.302,-614.342"/>
<polygon fill="midnightblue" stroke="midnightblue" points="198.949,-616.648 203.624,-607.141 194.04,-611.658 198.949,-616.648"/>
</g>
<!-- Node25 -->
<g id="node25" class="node"><title>Node25</title>
<polygon fill="white" stroke="#bfbfbf" points="296.5,-582.5 296.5,-601.5 451.5,-601.5 451.5,-582.5 296.5,-582.5"/>
<text text-anchor="middle" x="374" y="-589.5" font-family="Helvetica,sans-Serif" font-size="10.00">hpp/manipulation/deprecated.hh</text>
</g>
<!-- Node1&#45;&gt;Node25 -->
<g id="edge40" class="edge"><title>Node1&#45;&gt;Node25</title>
<path fill="none" stroke="midnightblue" d="M180.223,-646.579C216.715,-636.489 287.973,-616.786 333.165,-604.291"/>
<polygon fill="midnightblue" stroke="midnightblue" points="334.24,-607.625 342.945,-601.587 332.374,-600.878 334.24,-607.625"/>
</g>
<!-- Node5 -->
<g id="node5" class="node"><title>Node5</title>
<g id="a_node5"><a doxygen="https://jmirabel.github.io/hpp-doc/api/hpp-fcl/doxygen-html/hpp-fcl.doxytag:https://jmirabel.github.io/hpp-doc/api/hpp-fcl/doxygen-html/" xlink:href="https://jmirabel.github.io/hpp-doc/api/hpp-fcl/doxygen-html/a00280.html" target="_top" xlink:title="hpp/fcl/collision_object.h">
<polygon fill="white" stroke="black" points="220,-520.5 220,-539.5 344,-539.5 344,-520.5 220,-520.5"/>
<text text-anchor="middle" x="282" y="-527.5" font-family="Helvetica,sans-Serif" font-size="10.00">hpp/fcl/collision_object.h</text>
</a>
</g>
</g>
<!-- Node4&#45;&gt;Node5 -->
<g id="edge4" class="edge"><title>Node4&#45;&gt;Node5</title>
<path fill="none" stroke="midnightblue" d="M233.167,-576.781C242.851,-567.703 255.409,-555.929 265.365,-546.595"/>
<polygon fill="midnightblue" stroke="midnightblue" points="267.786,-549.123 272.687,-539.731 262.998,-544.017 267.786,-549.123"/>
</g>
<!-- Node8 -->
<g id="node8" class="node"><title>Node8</title>
<g id="a_node8"><a doxygen="https://jmirabel.github.io/hpp-doc/api/hpp-fcl/doxygen-html/hpp-fcl.doxytag:https://jmirabel.github.io/hpp-doc/api/hpp-fcl/doxygen-html/" xlink:href="https://jmirabel.github.io/hpp-doc/api/hpp-fcl/doxygen-html/a00356.html" target="_top" xlink:title="hpp/fcl/math/vec_3f.h">
<polygon fill="white" stroke="black" points="362.5,-124.5 362.5,-143.5 473.5,-143.5 473.5,-124.5 362.5,-124.5"/>
<text text-anchor="middle" x="418" y="-131.5" font-family="Helvetica,sans-Serif" font-size="10.00">hpp/fcl/math/vec_3f.h</text>
</a>
</g>
</g>
<!-- Node4&#45;&gt;Node8 -->
<g id="edge39" class="edge"><title>Node4&#45;&gt;Node8</title>
<path fill="none" stroke="midnightblue" d="M203.155,-576.749C182.607,-555.413 148,-512.955 148,-469 148,-469 148,-469 148,-263 148,-172.832 272.469,-146.098 352.387,-138.227"/>
<polygon fill="midnightblue" stroke="midnightblue" points="352.742,-141.709 362.383,-137.317 352.107,-134.738 352.742,-141.709"/>
</g>
<!-- Node6 -->
<g id="node6" class="node"><title>Node6</title>
<g id="a_node6"><a doxygen="https://jmirabel.github.io/hpp-doc/api/hpp-fcl/doxygen-html/hpp-fcl.doxytag:https://jmirabel.github.io/hpp-doc/api/hpp-fcl/doxygen-html/" xlink:href="https://jmirabel.github.io/hpp-doc/api/hpp-fcl/doxygen-html/a00284.html" target="_top" xlink:title="hpp/fcl/deprecated.h">
<polygon fill="white" stroke="black" points="229.5,-458.5 229.5,-477.5 334.5,-477.5 334.5,-458.5 229.5,-458.5"/>
<text text-anchor="middle" x="282" y="-465.5" font-family="Helvetica,sans-Serif" font-size="10.00">hpp/fcl/deprecated.h</text>
</a>
</g>
</g>
<!-- Node5&#45;&gt;Node6 -->
<g id="edge5" class="edge"><title>Node5&#45;&gt;Node6</title>
<path fill="none" stroke="midnightblue" d="M282,-520.403C282,-511.938 282,-498.728 282,-487.82"/>
<polygon fill="midnightblue" stroke="midnightblue" points="285.5,-487.581 282,-477.581 278.5,-487.581 285.5,-487.581"/>
</g>
<!-- Node7 -->
<g id="node7" class="node"><title>Node7</title>
<g id="a_node7"><a doxygen="https://jmirabel.github.io/hpp-doc/api/hpp-fcl/doxygen-html/hpp-fcl.doxytag:https://jmirabel.github.io/hpp-doc/api/hpp-fcl/doxygen-html/" xlink:href="https://jmirabel.github.io/hpp-doc/api/hpp-fcl/doxygen-html/a00257.html" target="_top" xlink:title="hpp/fcl/BV/AABB.h">
<polygon fill="white" stroke="black" points="176.5,-390.5 176.5,-409.5 277.5,-409.5 277.5,-390.5 176.5,-390.5"/>
<text text-anchor="middle" x="227" y="-397.5" font-family="Helvetica,sans-Serif" font-size="10.00">hpp/fcl/BV/AABB.h</text>
</a>
</g>
</g>
<!-- Node5&#45;&gt;Node7 -->
<g id="edge6" class="edge"><title>Node5&#45;&gt;Node7</title>
<path fill="none" stroke="midnightblue" d="M262.094,-520.41C247.775,-513.04 229.542,-500.916 221,-484 210.7,-463.602 215.418,-436.725 220.529,-419.162"/>
<polygon fill="midnightblue" stroke="midnightblue" points="223.883,-420.163 223.63,-409.571 217.223,-418.009 223.883,-420.163"/>
</g>
<!-- Node13 -->
<g id="node13" class="node"><title>Node13</title>
<g id="a_node13"><a doxygen="https://jmirabel.github.io/hpp-doc/api/hpp-fcl/doxygen-html/hpp-fcl.doxytag:https://jmirabel.github.io/hpp-doc/api/hpp-fcl/doxygen-html/" xlink:href="https://jmirabel.github.io/hpp-doc/api/hpp-fcl/doxygen-html/a00348.html" target="_top" xlink:title="hpp/fcl/math/transform.h">
<polygon fill="white" stroke="black" points="295.5,-390.5 295.5,-409.5 418.5,-409.5 418.5,-390.5 295.5,-390.5"/>
<text text-anchor="middle" x="357" y="-397.5" font-family="Helvetica,sans-Serif" font-size="10.00">hpp/fcl/math/transform.h</text>
</a>
</g>
</g>
<!-- Node5&#45;&gt;Node13 -->
<g id="edge13" class="edge"><title>Node5&#45;&gt;Node13</title>
<path fill="none" stroke="midnightblue" d="M300.249,-520.436C314.26,-512.872 332.869,-500.481 343,-484 354.99,-464.494 357.548,-437.775 357.728,-419.978"/>
<polygon fill="midnightblue" stroke="midnightblue" points="361.224,-419.684 357.578,-409.737 354.224,-419.787 361.224,-419.684"/>
</g>
<!-- Node15 -->
<g id="node15" class="node"><title>Node15</title>
<g id="a_node15"><a doxygen="https://jmirabel.github.io/hpp-doc/api/hpp-fcl/doxygen-html/hpp-fcl.doxytag:https://jmirabel.github.io/hpp-doc/api/hpp-fcl/doxygen-html/" xlink:href="https://jmirabel.github.io/hpp-doc/api/hpp-fcl/doxygen-html/a00325.html" target="_top" xlink:title="hpp/fcl/ccd/motion\l_base.h">
<polygon fill="white" stroke="black" points="398.5,-453 398.5,-483 495.5,-483 495.5,-453 398.5,-453"/>
<text text-anchor="start" x="406.5" y="-471" font-family="Helvetica,sans-Serif" font-size="10.00">hpp/fcl/ccd/motion</text>
<text text-anchor="middle" x="447" y="-460" font-family="Helvetica,sans-Serif" font-size="10.00">_base.h</text>
</a>
</g>
</g>
<!-- Node5&#45;&gt;Node15 -->
<g id="edge16" class="edge"><title>Node5&#45;&gt;Node15</title>
<path fill="none" stroke="midnightblue" d="M305.64,-520.403C329.843,-511.603 368.147,-497.674 398.781,-486.534"/>
<polygon fill="midnightblue" stroke="midnightblue" points="400.229,-489.732 408.43,-483.025 397.836,-483.154 400.229,-489.732"/>
</g>
<!-- Node7&#45;&gt;Node8 -->
<g id="edge7" class="edge"><title>Node7&#45;&gt;Node8</title>
<path fill="none" stroke="midnightblue" d="M227.26,-390.251C228.312,-366.123 233.594,-297.173 260,-248 279.926,-210.895 291.909,-204.732 326,-180 344.421,-166.636 367.42,-155.386 385.815,-147.477"/>
<polygon fill="midnightblue" stroke="midnightblue" points="387.354,-150.627 395.233,-143.544 384.656,-144.168 387.354,-150.627"/>
</g>
<!-- Node9 -->
<g id="node9" class="node"><title>Node9</title>
<g id="a_node9"><a doxygen="https://jmirabel.github.io/hpp-doc/api/hpp-fcl/doxygen-html/hpp-fcl.doxytag:https://jmirabel.github.io/hpp-doc/api/hpp-fcl/doxygen-html/" xlink:href="https://jmirabel.github.io/hpp-doc/api/hpp-fcl/doxygen-html/a00283.html" target="_top" xlink:title="hpp/fcl/data_types.h">
<polygon fill="white" stroke="black" points="505.5,-0.5 505.5,-19.5 610.5,-19.5 610.5,-0.5 505.5,-0.5"/>
<text text-anchor="middle" x="558" y="-7.5" font-family="Helvetica,sans-Serif" font-size="10.00">hpp/fcl/data_types.h</text>
</a>
</g>
</g>
<!-- Node8&#45;&gt;Node9 -->
<g id="edge8" class="edge"><title>Node8&#45;&gt;Node9</title>
<path fill="none" stroke="midnightblue" d="M471.222,-124.472C494.697,-118.122 520.803,-107.097 538,-88 552.343,-72.072 556.646,-47.1592 557.811,-30.008"/>
<polygon fill="midnightblue" stroke="midnightblue" points="561.325,-29.7038 558.201,-19.5799 554.329,-29.4421 561.325,-29.7038"/>
</g>
<!-- Node10 -->
<g id="node10" class="node"><title>Node10</title>
<g id="a_node10"><a doxygen="https://jmirabel.github.io/hpp-doc/api/hpp-fcl/doxygen-html/hpp-fcl.doxytag:https://jmirabel.github.io/hpp-doc/api/hpp-fcl/doxygen-html/" xlink:href="https://jmirabel.github.io/hpp-doc/api/hpp-fcl/doxygen-html/a00316.html" target="_top" xlink:title="hpp/fcl/eigen/math\l_details.h">
<polygon fill="white" stroke="black" points="432.5,-57 432.5,-87 529.5,-87 529.5,-57 432.5,-57"/>
<text text-anchor="start" x="440.5" y="-75" font-family="Helvetica,sans-Serif" font-size="10.00">hpp/fcl/eigen/math</text>
<text text-anchor="middle" x="481" y="-64" font-family="Helvetica,sans-Serif" font-size="10.00">_details.h</text>
</a>
</g>
</g>
<!-- Node8&#45;&gt;Node10 -->
<g id="edge9" class="edge"><title>Node8&#45;&gt;Node10</title>
<path fill="none" stroke="midnightblue" d="M427.026,-124.403C435.32,-116.505 447.949,-104.477 458.907,-94.0409"/>
<polygon fill="midnightblue" stroke="midnightblue" points="461.325,-96.5719 466.152,-87.1408 456.497,-91.5029 461.325,-96.5719"/>
</g>
<!-- Node11 -->
<g id="node11" class="node"><title>Node11</title>
<g id="a_node11"><a doxygen="https://jmirabel.github.io/hpp-doc/api/hpp-fcl/doxygen-html/hpp-fcl.doxytag:https://jmirabel.github.io/hpp-doc/api/hpp-fcl/doxygen-html/" xlink:href="https://jmirabel.github.io/hpp-doc/api/hpp-fcl/doxygen-html/a00357.html" target="_top" xlink:title="hpp/fcl/eigen/vec_3fx.h">
<polygon fill="white" stroke="black" points="296,-62.5 296,-81.5 414,-81.5 414,-62.5 296,-62.5"/>
<text text-anchor="middle" x="355" y="-69.5" font-family="Helvetica,sans-Serif" font-size="10.00">hpp/fcl/eigen/vec_3fx.h</text>
</a>
</g>
</g>
<!-- Node8&#45;&gt;Node11 -->
<g id="edge10" class="edge"><title>Node8&#45;&gt;Node11</title>
<path fill="none" stroke="midnightblue" d="M408.974,-124.403C399.243,-115.136 383.542,-100.183 371.577,-88.7876"/>
<polygon fill="midnightblue" stroke="midnightblue" points="373.665,-85.9427 364.01,-81.5806 368.837,-91.0117 373.665,-85.9427"/>
</g>
<!-- Node11&#45;&gt;Node9 -->
<g id="edge11" class="edge"><title>Node11&#45;&gt;Node9</title>
<path fill="none" stroke="midnightblue" d="M384.085,-62.4035C419.585,-51.9108 479.745,-34.1295 519.174,-22.4758"/>
<polygon fill="midnightblue" stroke="midnightblue" points="520.371,-25.7716 528.969,-19.5806 518.387,-19.0586 520.371,-25.7716"/>
</g>
<!-- Node12 -->
<g id="node12" class="node"><title>Node12</title>
<g id="a_node12"><a doxygen="https://jmirabel.github.io/hpp-doc/api/hpp-fcl/doxygen-html/hpp-fcl.doxytag:https://jmirabel.github.io/hpp-doc/api/hpp-fcl/doxygen-html/" xlink:href="https://jmirabel.github.io/hpp-doc/api/hpp-fcl/doxygen-html/a00336.html" target="_top" xlink:title="hpp/fcl/eigen/product.h">
<polygon fill="white" stroke="black" points="297,-0.5 297,-19.5 413,-19.5 413,-0.5 297,-0.5"/>
<text text-anchor="middle" x="355" y="-7.5" font-family="Helvetica,sans-Serif" font-size="10.00">hpp/fcl/eigen/product.h</text>
</a>
</g>
</g>
<!-- Node11&#45;&gt;Node12 -->
<g id="edge12" class="edge"><title>Node11&#45;&gt;Node12</title>
<path fill="none" stroke="midnightblue" d="M355,-62.4035C355,-53.9381 355,-40.7283 355,-29.8199"/>
<polygon fill="midnightblue" stroke="midnightblue" points="358.5,-29.5806 355,-19.5806 351.5,-29.5806 358.5,-29.5806"/>
</g>
<!-- Node14 -->
<g id="node14" class="node"><title>Node14</title>
<g id="a_node14"><a doxygen="https://jmirabel.github.io/hpp-doc/api/hpp-fcl/doxygen-html/hpp-fcl.doxytag:https://jmirabel.github.io/hpp-doc/api/hpp-fcl/doxygen-html/" xlink:href="https://jmirabel.github.io/hpp-doc/api/hpp-fcl/doxygen-html/a00319.html" target="_top" xlink:title="hpp/fcl/math/matrix_3f.h">
<polygon fill="white" stroke="black" points="357,-186.5 357,-205.5 479,-205.5 479,-186.5 357,-186.5"/>
<text text-anchor="middle" x="418" y="-193.5" font-family="Helvetica,sans-Serif" font-size="10.00">hpp/fcl/math/matrix_3f.h</text>
</a>
</g>
</g>
<!-- Node13&#45;&gt;Node14 -->
<g id="edge14" class="edge"><title>Node13&#45;&gt;Node14</title>
<path fill="none" stroke="midnightblue" d="M359.621,-390.32C368.79,-359.958 399.56,-258.064 412.35,-215.71"/>
<polygon fill="midnightblue" stroke="midnightblue" points="415.78,-216.46 415.32,-205.875 409.078,-214.436 415.78,-216.46"/>
</g>
<!-- Node14&#45;&gt;Node8 -->
<g id="edge15" class="edge"><title>Node14&#45;&gt;Node8</title>
<path fill="none" stroke="midnightblue" d="M418,-186.403C418,-177.938 418,-164.728 418,-153.82"/>
<polygon fill="midnightblue" stroke="midnightblue" points="421.5,-153.581 418,-143.581 414.5,-153.581 421.5,-153.581"/>
</g>
<!-- Node15&#45;&gt;Node13 -->
<g id="edge17" class="edge"><title>Node15&#45;&gt;Node13</title>
<path fill="none" stroke="midnightblue" d="M427.471,-452.679C412.518,-441.713 391.97,-426.645 376.921,-415.609"/>
<polygon fill="midnightblue" stroke="midnightblue" points="378.913,-412.729 368.779,-409.638 374.773,-418.374 378.913,-412.729"/>
</g>
<!-- Node16 -->
<g id="node16" class="node"><title>Node16</title>
<g id="a_node16"><a doxygen="https://jmirabel.github.io/hpp-doc/api/hpp-fcl/doxygen-html/hpp-fcl.doxytag:https://jmirabel.github.io/hpp-doc/api/hpp-fcl/doxygen-html/" xlink:href="https://jmirabel.github.io/hpp-doc/api/hpp-fcl/doxygen-html/a00343.html" target="_top" xlink:title="hpp/fcl/ccd/taylor\l_matrix.h">
<polygon fill="white" stroke="black" points="475,-385 475,-415 567,-415 567,-385 475,-385"/>
<text text-anchor="start" x="483" y="-403" font-family="Helvetica,sans-Serif" font-size="10.00">hpp/fcl/ccd/taylor</text>
<text text-anchor="middle" x="521" y="-392" font-family="Helvetica,sans-Serif" font-size="10.00">_matrix.h</text>
</a>
</g>
</g>
<!-- Node15&#45;&gt;Node16 -->
<g id="edge18" class="edge"><title>Node15&#45;&gt;Node16</title>
<path fill="none" stroke="midnightblue" d="M463.057,-452.679C473.113,-443.71 486.247,-431.996 497.468,-421.988"/>
<polygon fill="midnightblue" stroke="midnightblue" points="500.095,-424.335 505.229,-415.066 495.436,-419.11 500.095,-424.335"/>
</g>
<!-- Node17 -->
<g id="node17" class="node"><title>Node17</title>
<g id="a_node17"><a doxygen="https://jmirabel.github.io/hpp-doc/api/hpp-fcl/doxygen-html/hpp-fcl.doxytag:https://jmirabel.github.io/hpp-doc/api/hpp-fcl/doxygen-html/" xlink:href="https://jmirabel.github.io/hpp-doc/api/hpp-fcl/doxygen-html/a00346.html" target="_top" xlink:title="hpp/fcl/ccd/taylor\l_vector.h">
<polygon fill="white" stroke="black" points="589,-317 589,-347 681,-347 681,-317 589,-317"/>
<text text-anchor="start" x="597" y="-335" font-family="Helvetica,sans-Serif" font-size="10.00">hpp/fcl/ccd/taylor</text>
<text text-anchor="middle" x="635" y="-324" font-family="Helvetica,sans-Serif" font-size="10.00">_vector.h</text>
</a>
</g>
</g>
<!-- Node15&#45;&gt;Node17 -->
<g id="edge35" class="edge"><title>Node15&#45;&gt;Node17</title>
<path fill="none" stroke="midnightblue" d="M495.774,-454.996C521.494,-446.96 552.495,-434.419 576,-416 596.619,-399.843 613.135,-374.583 623.39,-356.171"/>
<polygon fill="midnightblue" stroke="midnightblue" points="626.532,-357.719 628.171,-347.252 620.362,-354.412 626.532,-357.719"/>
</g>
<!-- Node24 -->
<g id="node24" class="node"><title>Node24</title>
<g id="a_node24"><a doxygen="https://jmirabel.github.io/hpp-doc/api/hpp-fcl/doxygen-html/hpp-fcl.doxytag:https://jmirabel.github.io/hpp-doc/api/hpp-fcl/doxygen-html/" xlink:href="https://jmirabel.github.io/hpp-doc/api/hpp-fcl/doxygen-html/a00338.html" target="_top" xlink:title="hpp/fcl/BV/RSS.h">
<polygon fill="white" stroke="black" points="268.5,-254.5 268.5,-273.5 363.5,-273.5 363.5,-254.5 268.5,-254.5"/>
<text text-anchor="middle" x="316" y="-261.5" font-family="Helvetica,sans-Serif" font-size="10.00">hpp/fcl/BV/RSS.h</text>
</a>
</g>
</g>
<!-- Node15&#45;&gt;Node24 -->
<g id="edge36" class="edge"><title>Node15&#45;&gt;Node24</title>
<path fill="none" stroke="midnightblue" d="M445.787,-452.706C443.84,-435.511 438.937,-406.191 427,-384 403.533,-340.377 360.145,-300.689 335.13,-280.008"/>
<polygon fill="midnightblue" stroke="midnightblue" points="337.084,-277.086 327.111,-273.51 332.677,-282.525 337.084,-277.086"/>
</g>
<!-- Node16&#45;&gt;Node14 -->
<g id="edge19" class="edge"><title>Node16&#45;&gt;Node14</title>
<path fill="none" stroke="midnightblue" d="M499.795,-384.976C487.438,-375.8 472.473,-362.792 463,-348 435.782,-305.497 424.422,-245.822 420.2,-215.807"/>
<polygon fill="midnightblue" stroke="midnightblue" points="423.625,-215.002 418.876,-205.532 416.683,-215.897 423.625,-215.002"/>
</g>
<!-- Node16&#45;&gt;Node17 -->
<g id="edge20" class="edge"><title>Node16&#45;&gt;Node17</title>
<path fill="none" stroke="midnightblue" d="M545.456,-384.841C561.835,-375.359 583.607,-362.754 601.58,-352.348"/>
<polygon fill="midnightblue" stroke="midnightblue" points="603.684,-355.175 610.585,-347.135 600.177,-349.117 603.684,-355.175"/>
</g>
<!-- Node23 -->
<g id="node23" class="node"><title>Node23</title>
<g id="a_node23"><a doxygen="https://jmirabel.github.io/hpp-doc/api/hpp-fcl/doxygen-html/hpp-fcl.doxytag:https://jmirabel.github.io/hpp-doc/api/hpp-fcl/doxygen-html/" xlink:href="https://jmirabel.github.io/hpp-doc/api/hpp-fcl/doxygen-html/a00307.html" target="_top" xlink:title="hpp/fcl/ccd/interval\l_matrix.h">
<polygon fill="white" stroke="black" points="471.5,-317 471.5,-347 570.5,-347 570.5,-317 471.5,-317"/>
<text text-anchor="start" x="479.5" y="-335" font-family="Helvetica,sans-Serif" font-size="10.00">hpp/fcl/ccd/interval</text>
<text text-anchor="middle" x="521" y="-324" font-family="Helvetica,sans-Serif" font-size="10.00">_matrix.h</text>
</a>
</g>
</g>
<!-- Node16&#45;&gt;Node23 -->
<g id="edge31" class="edge"><title>Node16&#45;&gt;Node23</title>
<path fill="none" stroke="midnightblue" d="M521,-384.679C521,-376.722 521,-366.605 521,-357.436"/>
<polygon fill="midnightblue" stroke="midnightblue" points="524.5,-357.293 521,-347.293 517.5,-357.293 524.5,-357.293"/>
</g>
<!-- Node18 -->
<g id="node18" class="node"><title>Node18</title>
<g id="a_node18"><a doxygen="https://jmirabel.github.io/hpp-doc/api/hpp-fcl/doxygen-html/hpp-fcl.doxytag:https://jmirabel.github.io/hpp-doc/api/hpp-fcl/doxygen-html/" xlink:href="https://jmirabel.github.io/hpp-doc/api/hpp-fcl/doxygen-html/a00309.html" target="_top" xlink:title="hpp/fcl/ccd/interval\l_vector.h">
<polygon fill="white" stroke="black" points="613.5,-249 613.5,-279 712.5,-279 712.5,-249 613.5,-249"/>
<text text-anchor="start" x="621.5" y="-267" font-family="Helvetica,sans-Serif" font-size="10.00">hpp/fcl/ccd/interval</text>
<text text-anchor="middle" x="663" y="-256" font-family="Helvetica,sans-Serif" font-size="10.00">_vector.h</text>
</a>
</g>
</g>
<!-- Node17&#45;&gt;Node18 -->
<g id="edge21" class="edge"><title>Node17&#45;&gt;Node18</title>
<path fill="none" stroke="midnightblue" d="M641.076,-316.679C644.561,-308.463 649.024,-297.943 653.013,-288.542"/>
<polygon fill="midnightblue" stroke="midnightblue" points="656.253,-289.866 656.936,-279.293 649.809,-287.132 656.253,-289.866"/>
</g>
<!-- Node21 -->
<g id="node21" class="node"><title>Node21</title>
<g id="a_node21"><a doxygen="https://jmirabel.github.io/hpp-doc/api/hpp-fcl/doxygen-html/hpp-fcl.doxytag:https://jmirabel.github.io/hpp-doc/api/hpp-fcl/doxygen-html/" xlink:href="https://jmirabel.github.io/hpp-doc/api/hpp-fcl/doxygen-html/a00344.html" target="_top" xlink:title="hpp/fcl/ccd/taylor\l_model.h">
<polygon fill="white" stroke="black" points="769,-249 769,-279 861,-279 861,-249 769,-249"/>
<text text-anchor="start" x="777" y="-267" font-family="Helvetica,sans-Serif" font-size="10.00">hpp/fcl/ccd/taylor</text>
<text text-anchor="middle" x="815" y="-256" font-family="Helvetica,sans-Serif" font-size="10.00">_model.h</text>
</a>
</g>
</g>
<!-- Node17&#45;&gt;Node21 -->
<g id="edge26" class="edge"><title>Node17&#45;&gt;Node21</title>
<path fill="none" stroke="midnightblue" d="M673.615,-316.841C700.993,-306.802 737.913,-293.265 767.159,-282.542"/>
<polygon fill="midnightblue" stroke="midnightblue" points="768.575,-285.751 776.759,-279.022 766.165,-279.178 768.575,-285.751"/>
</g>
<!-- Node22 -->
<g id="node22" class="node"><title>Node22</title>
<g id="a_node22"><a doxygen="https://jmirabel.github.io/hpp-doc/api/hpp-fcl/doxygen-html/hpp-fcl.doxytag:https://jmirabel.github.io/hpp-doc/api/hpp-fcl/doxygen-html/" xlink:href="https://jmirabel.github.io/hpp-doc/api/hpp-fcl/doxygen-html/a00345.html" target="_top" xlink:title="hpp/fcl/eigen/taylor\l_operator.h">
<polygon fill="white" stroke="black" points="496.5,-249 496.5,-279 595.5,-279 595.5,-249 496.5,-249"/>
<text text-anchor="start" x="504.5" y="-267" font-family="Helvetica,sans-Serif" font-size="10.00">hpp/fcl/eigen/taylor</text>
<text text-anchor="middle" x="546" y="-256" font-family="Helvetica,sans-Serif" font-size="10.00">_operator.h</text>
</a>
</g>
</g>
<!-- Node17&#45;&gt;Node22 -->
<g id="edge28" class="edge"><title>Node17&#45;&gt;Node22</title>
<path fill="none" stroke="midnightblue" d="M615.688,-316.679C603.241,-307.449 586.874,-295.311 573.129,-285.118"/>
<polygon fill="midnightblue" stroke="midnightblue" points="575.085,-282.212 564.968,-279.066 570.916,-287.834 575.085,-282.212"/>
</g>
<!-- Node18&#45;&gt;Node8 -->
<g id="edge24" class="edge"><title>Node18&#45;&gt;Node8</title>
<path fill="none" stroke="midnightblue" d="M633.552,-248.822C613.636,-238.993 586.892,-225.324 564,-212 541.52,-198.916 537.745,-192.617 515,-180 493.196,-167.906 467.572,-156.115 448.137,-147.639"/>
<polygon fill="midnightblue" stroke="midnightblue" points="449.433,-144.387 438.865,-143.641 446.662,-150.815 449.433,-144.387"/>
</g>
<!-- Node19 -->
<g id="node19" class="node"><title>Node19</title>
<g id="a_node19"><a doxygen="https://jmirabel.github.io/hpp-doc/api/hpp-fcl/doxygen-html/hpp-fcl.doxytag:https://jmirabel.github.io/hpp-doc/api/hpp-fcl/doxygen-html/" xlink:href="https://jmirabel.github.io/hpp-doc/api/hpp-fcl/doxygen-html/a00306.html" target="_top" xlink:title="hpp/fcl/ccd/interval.h">
<polygon fill="white" stroke="black" points="699.5,-186.5 699.5,-205.5 806.5,-205.5 806.5,-186.5 699.5,-186.5"/>
<text text-anchor="middle" x="753" y="-193.5" font-family="Helvetica,sans-Serif" font-size="10.00">hpp/fcl/ccd/interval.h</text>
</a>
</g>
</g>
<!-- Node18&#45;&gt;Node19 -->
<g id="edge22" class="edge"><title>Node18&#45;&gt;Node19</title>
<path fill="none" stroke="midnightblue" d="M682.529,-248.679C697.482,-237.713 718.03,-222.645 733.079,-211.609"/>
<polygon fill="midnightblue" stroke="midnightblue" points="735.227,-214.374 741.221,-205.638 731.087,-208.729 735.227,-214.374"/>
</g>
<!-- Node20 -->
<g id="node20" class="node"><title>Node20</title>
<g id="a_node20"><a doxygen="https://jmirabel.github.io/hpp-doc/api/hpp-fcl/doxygen-html/hpp-fcl.doxytag:https://jmirabel.github.io/hpp-doc/api/hpp-fcl/doxygen-html/" xlink:href="https://jmirabel.github.io/hpp-doc/api/hpp-fcl/doxygen-html/a00305.html" target="_top" xlink:title="hpp/fcl/eigen/plugins\l/ccd/interval&#45;vector.h">
<polygon fill="white" stroke="black" points="573,-181 573,-211 681,-211 681,-181 573,-181"/>
<text text-anchor="start" x="581" y="-199" font-family="Helvetica,sans-Serif" font-size="10.00">hpp/fcl/eigen/plugins</text>
<text text-anchor="middle" x="627" y="-188" font-family="Helvetica,sans-Serif" font-size="10.00">/ccd/interval&#45;vector.h</text>
</a>
</g>
</g>
<!-- Node18&#45;&gt;Node20 -->
<g id="edge25" class="edge"><title>Node18&#45;&gt;Node20</title>
<path fill="none" stroke="midnightblue" d="M655.189,-248.679C650.66,-240.376 644.848,-229.721 639.679,-220.245"/>
<polygon fill="midnightblue" stroke="midnightblue" points="642.657,-218.396 634.796,-211.293 636.512,-221.748 642.657,-218.396"/>
</g>
<!-- Node19&#45;&gt;Node9 -->
<g id="edge23" class="edge"><title>Node19&#45;&gt;Node9</title>
<path fill="none" stroke="midnightblue" d="M743.856,-186.372C713.284,-157.524 614.318,-64.1415 574.661,-26.7212"/>
<polygon fill="midnightblue" stroke="midnightblue" points="577.026,-24.1407 567.351,-19.8234 572.222,-29.232 577.026,-24.1407"/>
</g>
<!-- Node21&#45;&gt;Node19 -->
<g id="edge27" class="edge"><title>Node21&#45;&gt;Node19</title>
<path fill="none" stroke="midnightblue" d="M801.547,-248.679C791.784,-238.286 778.559,-224.208 768.378,-213.37"/>
<polygon fill="midnightblue" stroke="midnightblue" points="770.691,-210.72 761.293,-205.828 765.589,-215.513 770.691,-210.72"/>
</g>
<!-- Node22&#45;&gt;Node8 -->
<g id="edge29" class="edge"><title>Node22&#45;&gt;Node8</title>
<path fill="none" stroke="midnightblue" d="M538.402,-248.827C528.481,-231.225 509.789,-200.964 488,-180 475.058,-167.548 458.179,-156.578 444.238,-148.587"/>
<polygon fill="midnightblue" stroke="midnightblue" points="445.585,-145.332 435.141,-143.549 442.193,-151.456 445.585,-145.332"/>
</g>
<!-- Node22&#45;&gt;Node14 -->
<g id="edge30" class="edge"><title>Node22&#45;&gt;Node14</title>
<path fill="none" stroke="midnightblue" d="M518.541,-248.841C496.401,-237.425 465.486,-221.485 443.8,-210.303"/>
<polygon fill="midnightblue" stroke="midnightblue" points="445.33,-207.154 434.838,-205.682 442.122,-213.376 445.33,-207.154"/>
</g>
<!-- Node23&#45;&gt;Node14 -->
<g id="edge34" class="edge"><title>Node23&#45;&gt;Node14</title>
<path fill="none" stroke="midnightblue" d="M509.977,-316.66C490.767,-291.668 451.259,-240.269 430.843,-213.709"/>
<polygon fill="midnightblue" stroke="midnightblue" points="433.578,-211.523 424.708,-205.728 428.028,-215.789 433.578,-211.523"/>
</g>
<!-- Node23&#45;&gt;Node18 -->
<g id="edge33" class="edge"><title>Node23&#45;&gt;Node18</title>
<path fill="none" stroke="midnightblue" d="M551.463,-316.841C572.52,-307.054 600.732,-293.941 623.514,-283.353"/>
<polygon fill="midnightblue" stroke="midnightblue" points="624.995,-286.524 632.588,-279.135 622.044,-280.176 624.995,-286.524"/>
</g>
<!-- Node23&#45;&gt;Node19 -->
<g id="edge32" class="edge"><title>Node23&#45;&gt;Node19</title>
<path fill="none" stroke="midnightblue" d="M570.638,-318.379C629.81,-303.328 720.819,-280.161 721,-280 739.638,-263.446 747.495,-234.77 750.756,-215.839"/>
<polygon fill="midnightblue" stroke="midnightblue" points="754.248,-216.145 752.22,-205.746 747.321,-215.14 754.248,-216.145"/>
</g>
<!-- Node24&#45;&gt;Node8 -->
<g id="edge37" class="edge"><title>Node24&#45;&gt;Node8</title>
<path fill="none" stroke="midnightblue" d="M317.488,-254.341C320.635,-238.181 329.27,-202.987 348,-180 358.9,-166.623 374.866,-155.933 388.799,-148.334"/>
<polygon fill="midnightblue" stroke="midnightblue" points="390.748,-151.267 398.032,-143.573 387.54,-145.046 390.748,-151.267"/>
</g>
<!-- Node24&#45;&gt;Node14 -->
<g id="edge38" class="edge"><title>Node24&#45;&gt;Node14</title>
<path fill="none" stroke="midnightblue" d="M329.335,-254.372C346.287,-243.403 375.783,-224.317 396.068,-211.191"/>
<polygon fill="midnightblue" stroke="midnightblue" points="398.168,-214.002 404.662,-205.63 394.365,-208.125 398.168,-214.002"/>
</g>
</g>
</svg>
