<?xml version="1.0" encoding="UTF-8" standalone="no"?>
<!DOCTYPE svg PUBLIC "-//W3C//DTD SVG 1.1//EN"
 "http://www.w3.org/Graphics/SVG/1.1/DTD/svg11.dtd">
<!-- Generated by graphviz version 2.36.0 (20140111.2315)
 -->
<!-- Title: dot.hh Pages: 1 -->
<svg width="463pt" height="420pt"
 viewBox="0.00 0.00 463.00 420.00" xmlns="http://www.w3.org/2000/svg" xmlns:xlink="http://www.w3.org/1999/xlink">
<g id="graph0" class="graph" transform="scale(1 1) rotate(0) translate(4 416)">
<title>dot.hh</title>
<polygon fill="white" stroke="none" points="-4,4 -4,-416 459,-416 459,4 -4,4"/>
<!-- Node1 -->
<g id="node1" class="node"><title>Node1</title>
<polygon fill="#bfbfbf" stroke="black" points="274,-392.5 274,-411.5 318,-411.5 318,-392.5 274,-392.5"/>
<text text-anchor="middle" x="296" y="-399.5" font-family="Helvetica,sans-Serif" font-size="10.00">dot.hh</text>
</g>
<!-- Node2 -->
<g id="node2" class="node"><title>Node2</title>
<g id="a_node2"><a xlink:href="a00050.html" target="_top" xlink:title="graph&#45;component.hh">
<polygon fill="white" stroke="black" points="243.5,-336.5 243.5,-355.5 348.5,-355.5 348.5,-336.5 243.5,-336.5"/>
<text text-anchor="middle" x="296" y="-343.5" font-family="Helvetica,sans-Serif" font-size="10.00">graph&#45;component.hh</text>
</a>
</g>
</g>
<!-- Node1&#45;&gt;Node2 -->
<g id="edge1" class="edge"><title>Node1&#45;&gt;Node2</title>
<path fill="none" stroke="midnightblue" d="M296,-381.805C296,-372.91 296,-362.78 296,-355.751"/>
<polygon fill="midnightblue" stroke="midnightblue" points="292.5,-382.083 296,-392.083 299.5,-382.083 292.5,-382.083"/>
</g>
<!-- Node3 -->
<g id="node3" class="node"><title>Node3</title>
<g id="a_node3"><a xlink:href="a00055.html" target="_top" xlink:title="graph.hh">
<polygon fill="white" stroke="black" points="196,-280.5 196,-299.5 250,-299.5 250,-280.5 196,-280.5"/>
<text text-anchor="middle" x="223" y="-287.5" font-family="Helvetica,sans-Serif" font-size="10.00">graph.hh</text>
</a>
</g>
</g>
<!-- Node2&#45;&gt;Node3 -->
<g id="edge2" class="edge"><title>Node2&#45;&gt;Node3</title>
<path fill="none" stroke="midnightblue" d="M275.858,-330.101C262.721,-320.382 246.018,-308.027 234.942,-299.834"/>
<polygon fill="midnightblue" stroke="midnightblue" points="274.15,-333.191 284.271,-336.324 278.313,-327.563 274.15,-333.191"/>
</g>
<!-- Node5 -->
<g id="node5" class="node"><title>Node5</title>
<g id="a_node5"><a xlink:href="a00003.html" target="_top" xlink:title="node.hh">
<polygon fill="white" stroke="black" points="251.5,-168.5 251.5,-187.5 302.5,-187.5 302.5,-168.5 251.5,-168.5"/>
<text text-anchor="middle" x="277" y="-175.5" font-family="Helvetica,sans-Serif" font-size="10.00">node.hh</text>
</a>
</g>
</g>
<!-- Node2&#45;&gt;Node5 -->
<g id="edge18" class="edge"><title>Node2&#45;&gt;Node5</title>
<path fill="none" stroke="midnightblue" d="M303.191,-326.585C311.533,-302.422 322.73,-258.982 311,-224 306.144,-209.517 294.581,-195.975 286.288,-187.605"/>
<polygon fill="midnightblue" stroke="midnightblue" points="299.811,-325.637 299.653,-336.231 306.383,-328.048 299.811,-325.637"/>
</g>
<!-- Node4 -->
<g id="node4" class="node"><title>Node4</title>
<g id="a_node4"><a xlink:href="a00048.html" target="_top" xlink:title="edge.hh">
<polygon fill="white" stroke="black" points="251.5,-224.5 251.5,-243.5 302.5,-243.5 302.5,-224.5 251.5,-224.5"/>
<text text-anchor="middle" x="277" y="-231.5" font-family="Helvetica,sans-Serif" font-size="10.00">edge.hh</text>
</a>
</g>
</g>
<!-- Node3&#45;&gt;Node4 -->
<g id="edge3" class="edge"><title>Node3&#45;&gt;Node4</title>
<path fill="none" stroke="midnightblue" d="M238.998,-273.002C248.567,-263.433 260.361,-251.639 268.249,-243.751"/>
<polygon fill="midnightblue" stroke="midnightblue" points="236.513,-270.537 231.917,-280.083 241.463,-275.487 236.513,-270.537"/>
</g>
<!-- Node6 -->
<g id="node6" class="node"><title>Node6</title>
<g id="a_node6"><a xlink:href="a00061.html" target="_top" xlink:title="node&#45;selector.hh">
<polygon fill="white" stroke="black" points="350.5,-112.5 350.5,-131.5 439.5,-131.5 439.5,-112.5 350.5,-112.5"/>
<text text-anchor="middle" x="395" y="-119.5" font-family="Helvetica,sans-Serif" font-size="10.00">node&#45;selector.hh</text>
</a>
</g>
</g>
<!-- Node3&#45;&gt;Node6 -->
<g id="edge13" class="edge"><title>Node3&#45;&gt;Node6</title>
<path fill="none" stroke="midnightblue" d="M256.63,-276.465C274.11,-268.855 295.085,-257.912 311,-244 350.278,-209.666 380.297,-153.216 390.872,-131.699"/>
<polygon fill="midnightblue" stroke="midnightblue" points="255.211,-273.264 247.332,-280.347 257.909,-279.723 255.211,-273.264"/>
</g>
<!-- Node8 -->
<g id="node8" class="node"><title>Node8</title>
<g id="a_node8"><a xlink:href="a00066.html" target="_top" xlink:title="statistics.hh">
<polygon fill="white" stroke="black" points="87,-112.5 87,-131.5 157,-131.5 157,-112.5 87,-112.5"/>
<text text-anchor="middle" x="122" y="-119.5" font-family="Helvetica,sans-Serif" font-size="10.00">statistics.hh</text>
</a>
</g>
</g>
<!-- Node3&#45;&gt;Node8 -->
<g id="edge14" class="edge"><title>Node3&#45;&gt;Node8</title>
<path fill="none" stroke="midnightblue" d="M201.705,-274.32C191.346,-266.322 179.359,-255.681 171,-244 144.226,-206.585 129.103,-152.423 123.988,-131.6"/>
<polygon fill="midnightblue" stroke="midnightblue" points="199.786,-277.254 209.909,-280.382 203.946,-271.624 199.786,-277.254"/>
</g>
<!-- Node9 -->
<g id="node9" class="node"><title>Node9</title>
<g id="a_node9"><a xlink:href="a00060.html" target="_top" xlink:title="manipulation&#45;planner.hh">
<polygon fill="white" stroke="black" points="-0.5,-56.5 -0.5,-75.5 118.5,-75.5 118.5,-56.5 -0.5,-56.5"/>
<text text-anchor="middle" x="59" y="-63.5" font-family="Helvetica,sans-Serif" font-size="10.00">manipulation&#45;planner.hh</text>
</a>
</g>
</g>
<!-- Node3&#45;&gt;Node9 -->
<g id="edge17" class="edge"><title>Node3&#45;&gt;Node9</title>
<path fill="none" stroke="midnightblue" d="M197.497,-275.319C183.95,-267.3 167.553,-256.333 155,-244 111.91,-201.665 103.912,-186.567 78,-132 68.9222,-112.883 63.2168,-88.5145 60.6292,-75.7303"/>
<polygon fill="midnightblue" stroke="midnightblue" points="195.92,-278.449 206.338,-280.38 199.398,-272.374 195.92,-278.449"/>
</g>
<!-- Node11 -->
<g id="node11" class="node"><title>Node11</title>
<g id="a_node11"><a xlink:href="a00053.html" target="_top" xlink:title="graph&#45;path&#45;validation.hh">
<polygon fill="white" stroke="black" points="213,-112.5 213,-131.5 333,-131.5 333,-112.5 213,-112.5"/>
<text text-anchor="middle" x="273" y="-119.5" font-family="Helvetica,sans-Serif" font-size="10.00">graph&#45;path&#45;validation.hh</text>
</a>
</g>
</g>
<!-- Node3&#45;&gt;Node11 -->
<g id="edge15" class="edge"><title>Node3&#45;&gt;Node11</title>
<path fill="none" stroke="midnightblue" d="M223.665,-270.146C225.068,-245.773 229.431,-202.381 243,-168 248.446,-154.201 258.597,-140.293 265.571,-131.668"/>
<polygon fill="midnightblue" stroke="midnightblue" points="220.154,-270.309 223.187,-280.46 227.146,-270.633 220.154,-270.309"/>
</g>
<!-- Node12 -->
<g id="node12" class="node"><title>Node12</title>
<g id="a_node12"><a xlink:href="a00006.html" target="_top" xlink:title="problem.hh">
<polygon fill="white" stroke="black" points="232.5,-56.5 232.5,-75.5 297.5,-75.5 297.5,-56.5 232.5,-56.5"/>
<text text-anchor="middle" x="265" y="-63.5" font-family="Helvetica,sans-Serif" font-size="10.00">problem.hh</text>
</a>
</g>
</g>
<!-- Node3&#45;&gt;Node12 -->
<g id="edge16" class="edge"><title>Node3&#45;&gt;Node12</title>
<path fill="none" stroke="midnightblue" d="M214.865,-270.909C201.138,-237.512 177.351,-164.775 204,-112 212.542,-95.0837 230.775,-82.96 245.094,-75.5896"/>
<polygon fill="midnightblue" stroke="midnightblue" points="211.733,-272.484 218.892,-280.294 218.166,-269.724 211.733,-272.484"/>
</g>
<!-- Node4&#45;&gt;Node5 -->
<g id="edge4" class="edge"><title>Node4&#45;&gt;Node5</title>
<path fill="none" stroke="midnightblue" d="M277,-213.805C277,-204.91 277,-194.78 277,-187.751"/>
<polygon fill="midnightblue" stroke="midnightblue" points="273.5,-214.083 277,-224.083 280.5,-214.083 273.5,-214.083"/>
</g>
<!-- Node5&#45;&gt;Node6 -->
<g id="edge5" class="edge"><title>Node5&#45;&gt;Node6</title>
<path fill="none" stroke="midnightblue" d="M304.9,-164.232C326.973,-154.131 357.176,-140.309 376.39,-131.516"/>
<polygon fill="midnightblue" stroke="midnightblue" points="303.334,-161.1 295.697,-168.444 306.247,-167.465 303.334,-161.1"/>
</g>
<!-- Node5&#45;&gt;Node8 -->
<g id="edge7" class="edge"><title>Node5&#45;&gt;Node8</title>
<path fill="none" stroke="midnightblue" d="M242.668,-165.039C213.503,-154.879 172.363,-140.546 146.445,-131.516"/>
<polygon fill="midnightblue" stroke="midnightblue" points="241.845,-168.459 252.44,-168.444 244.148,-161.848 241.845,-168.459"/>
</g>
<!-- Node5&#45;&gt;Node11 -->
<g id="edge10" class="edge"><title>Node5&#45;&gt;Node11</title>
<path fill="none" stroke="midnightblue" d="M275.6,-158.101C274.936,-149.136 274.175,-138.858 273.648,-131.751"/>
<polygon fill="midnightblue" stroke="midnightblue" points="272.11,-158.369 276.339,-168.083 279.091,-157.852 272.11,-158.369"/>
</g>
<!-- Node7 -->
<g id="node7" class="node"><title>Node7</title>
<g id="a_node7"><a xlink:href="a00056.html" target="_top" xlink:title="guided&#45;node&#45;selector.hh">
<polygon fill="white" stroke="black" points="335,-56.5 335,-75.5 455,-75.5 455,-56.5 335,-56.5"/>
<text text-anchor="middle" x="395" y="-63.5" font-family="Helvetica,sans-Serif" font-size="10.00">guided&#45;node&#45;selector.hh</text>
</a>
</g>
</g>
<!-- Node6&#45;&gt;Node7 -->
<g id="edge6" class="edge"><title>Node6&#45;&gt;Node7</title>
<path fill="none" stroke="midnightblue" d="M395,-101.805C395,-92.9102 395,-82.7798 395,-75.7511"/>
<polygon fill="midnightblue" stroke="midnightblue" points="391.5,-102.083 395,-112.083 398.5,-102.083 391.5,-102.083"/>
</g>
<!-- Node8&#45;&gt;Node9 -->
<g id="edge8" class="edge"><title>Node8&#45;&gt;Node9</title>
<path fill="none" stroke="midnightblue" d="M103.96,-105.537C92.7269,-95.9087 78.6809,-83.8694 69.3062,-75.8339"/>
<polygon fill="midnightblue" stroke="midnightblue" points="102.008,-108.473 111.878,-112.324 106.563,-103.159 102.008,-108.473"/>
</g>
<!-- Node10 -->
<g id="node10" class="node"><title>Node10</title>
<g id="a_node10"><a xlink:href="a00064.html" target="_top" xlink:title="roadmap.hh">
<polygon fill="white" stroke="black" points="137,-56.5 137,-75.5 205,-75.5 205,-56.5 137,-56.5"/>
<text text-anchor="middle" x="171" y="-63.5" font-family="Helvetica,sans-Serif" font-size="10.00">roadmap.hh</text>
</a>
</g>
</g>
<!-- Node8&#45;&gt;Node10 -->
<g id="edge9" class="edge"><title>Node8&#45;&gt;Node10</title>
<path fill="none" stroke="midnightblue" d="M137.034,-104.431C145.622,-94.9673 156.043,-83.4827 163.059,-75.7511"/>
<polygon fill="midnightblue" stroke="midnightblue" points="134.219,-102.325 130.091,-112.083 139.403,-107.029 134.219,-102.325"/>
</g>
<!-- Node11&#45;&gt;Node12 -->
<g id="edge11" class="edge"><title>Node11&#45;&gt;Node12</title>
<path fill="none" stroke="midnightblue" d="M270.2,-102.101C268.872,-93.1357 267.349,-82.8579 266.296,-75.7511"/>
<polygon fill="midnightblue" stroke="midnightblue" points="266.751,-102.704 271.679,-112.083 273.676,-101.678 266.751,-102.704"/>
</g>
<!-- Node13 -->
<g id="node13" class="node"><title>Node13</title>
<g id="a_node13"><a xlink:href="a00054.html" target="_top" xlink:title="graph&#45;steering&#45;method.hh">
<polygon fill="white" stroke="black" points="201.5,-0.5 201.5,-19.5 328.5,-19.5 328.5,-0.5 201.5,-0.5"/>
<text text-anchor="middle" x="265" y="-7.5" font-family="Helvetica,sans-Serif" font-size="10.00">graph&#45;steering&#45;method.hh</text>
</a>
</g>
</g>
<!-- Node12&#45;&gt;Node13 -->
<g id="edge12" class="edge"><title>Node12&#45;&gt;Node13</title>
<path fill="none" stroke="midnightblue" d="M265,-45.8045C265,-36.9102 265,-26.7798 265,-19.7511"/>
<polygon fill="midnightblue" stroke="midnightblue" points="261.5,-46.083 265,-56.083 268.5,-46.083 261.5,-46.083"/>
</g>
</g>
</svg>
