<?xml version="1.0" encoding="UTF-8" standalone="no"?>
<!DOCTYPE svg PUBLIC "-//W3C//DTD SVG 1.1//EN"
 "http://www.w3.org/Graphics/SVG/1.1/DTD/svg11.dtd">
<!-- Generated by graphviz version 2.36.0 (20140111.2315)
 -->
<!-- Title: config&#45;optimization.hh Pages: 1 -->
<svg width="828pt" height="896pt"
 viewBox="0.00 0.00 828.00 896.00" xmlns="http://www.w3.org/2000/svg" xmlns:xlink="http://www.w3.org/1999/xlink">
<g id="graph0" class="graph" transform="scale(1 1) rotate(0) translate(4 892)">
<title>config&#45;optimization.hh</title>
<polygon fill="white" stroke="none" points="-4,4 -4,-892 824,-892 824,4 -4,4"/>
<!-- Node1 -->
<g id="node1" class="node"><title>Node1</title>
<polygon fill="#bfbfbf" stroke="black" points="97,-868.5 97,-887.5 209,-887.5 209,-868.5 97,-868.5"/>
<text text-anchor="middle" x="153" y="-875.5" font-family="Helvetica,sans-Serif" font-size="10.00">config&#45;optimization.hh</text>
</g>
<!-- Node2 -->
<g id="node2" class="node"><title>Node2</title>
<g id="a_node2"><a doxygen="https://jmirabel.github.io/hpp-doc/api/hpp-core/doxygen-html/hpp-core.doxytag:https://jmirabel.github.io/hpp-doc/api/hpp-core/doxygen-html/" xlink:href="https://jmirabel.github.io/hpp-doc/api/hpp-core/doxygen-html/a00079.html" target="_top" xlink:title="hpp/core/path&#45;optimization\l/config&#45;optimization.hh">
<polygon fill="white" stroke="black" points="134.5,-801 134.5,-831 265.5,-831 265.5,-801 134.5,-801"/>
<text text-anchor="start" x="142.5" y="-819" font-family="Helvetica,sans-Serif" font-size="10.00">hpp/core/path&#45;optimization</text>
<text text-anchor="middle" x="200" y="-808" font-family="Helvetica,sans-Serif" font-size="10.00">/config&#45;optimization.hh</text>
</a>
</g>
</g>
<!-- Node1&#45;&gt;Node2 -->
<g id="edge1" class="edge"><title>Node1&#45;&gt;Node2</title>
<path fill="none" stroke="midnightblue" d="M159.734,-868.403C165.683,-860.809 174.623,-849.396 182.569,-839.252"/>
<polygon fill="midnightblue" stroke="midnightblue" points="185.512,-841.171 188.923,-831.141 180.001,-836.855 185.512,-841.171"/>
</g>
<!-- Node4 -->
<g id="node4" class="node"><title>Node4</title>
<g id="a_node4"><a xlink:href="a00001.html" target="_top" xlink:title="hpp/core/fwd.hh">
<polygon fill="white" stroke="black" points="147,-508.5 147,-527.5 233,-527.5 233,-508.5 147,-508.5"/>
<text text-anchor="middle" x="190" y="-515.5" font-family="Helvetica,sans-Serif" font-size="10.00">hpp/core/fwd.hh</text>
</a>
</g>
</g>
<!-- Node1&#45;&gt;Node4 -->
<g id="edge56" class="edge"><title>Node1&#45;&gt;Node4</title>
<path fill="none" stroke="midnightblue" d="M146.555,-868.484C140.23,-859.751 130.723,-845.564 125,-832 111.298,-799.524 106,-790.249 106,-755 106,-755 106,-755 106,-635 106,-591.85 144.601,-553.896 169.468,-533.922"/>
<polygon fill="midnightblue" stroke="midnightblue" points="171.837,-536.515 177.606,-527.628 167.554,-530.978 171.837,-536.515"/>
</g>
<!-- Node3 -->
<g id="node3" class="node"><title>Node3</title>
<g id="a_node3"><a doxygen="https://jmirabel.github.io/hpp-doc/api/hpp-core/doxygen-html/hpp-core.doxytag:https://jmirabel.github.io/hpp-doc/api/hpp-core/doxygen-html/" xlink:href="https://jmirabel.github.io/hpp-doc/api/hpp-core/doxygen-html/a00111.html" target="_top" xlink:title="hpp/core/path&#45;optimizer.hh">
<polygon fill="white" stroke="black" points="210,-564.5 210,-583.5 342,-583.5 342,-564.5 210,-564.5"/>
<text text-anchor="middle" x="276" y="-571.5" font-family="Helvetica,sans-Serif" font-size="10.00">hpp/core/path&#45;optimizer.hh</text>
</a>
</g>
</g>
<!-- Node2&#45;&gt;Node3 -->
<g id="edge2" class="edge"><title>Node2&#45;&gt;Node3</title>
<path fill="none" stroke="midnightblue" d="M204.527,-800.706C217.634,-759.313 255.612,-639.382 270.199,-593.318"/>
<polygon fill="midnightblue" stroke="midnightblue" points="273.621,-594.105 273.304,-583.515 266.948,-591.992 273.621,-594.105"/>
</g>
<!-- Node30 -->
<g id="node30" class="node"><title>Node30</title>
<g id="a_node30"><a doxygen="https://jmirabel.github.io/hpp-doc/api/hpp-core/doxygen-html/hpp-core.doxytag:https://jmirabel.github.io/hpp-doc/api/hpp-core/doxygen-html/" xlink:href="https://jmirabel.github.io/hpp-doc/api/hpp-core/doxygen-html/a00116.html" target="_top" xlink:title="hpp/core/path&#45;vector.hh">
<polygon fill="white" stroke="black" points="400.5,-744.5 400.5,-763.5 519.5,-763.5 519.5,-744.5 400.5,-744.5"/>
<text text-anchor="middle" x="460" y="-751.5" font-family="Helvetica,sans-Serif" font-size="10.00">hpp/core/path&#45;vector.hh</text>
</a>
</g>
</g>
<!-- Node2&#45;&gt;Node30 -->
<g id="edge43" class="edge"><title>Node2&#45;&gt;Node30</title>
<path fill="none" stroke="midnightblue" d="M260.958,-800.933C307.508,-790.19 370.696,-775.609 413.285,-765.78"/>
<polygon fill="midnightblue" stroke="midnightblue" points="414.155,-769.172 423.112,-763.513 412.581,-762.351 414.155,-769.172"/>
</g>
<!-- Node3&#45;&gt;Node4 -->
<g id="edge3" class="edge"><title>Node3&#45;&gt;Node4</title>
<path fill="none" stroke="midnightblue" d="M262.183,-564.324C248.767,-555.9 228.176,-542.971 212.414,-533.074"/>
<polygon fill="midnightblue" stroke="midnightblue" points="214.113,-530.008 203.783,-527.655 210.391,-535.936 214.113,-530.008"/>
</g>
<!-- Node6 -->
<g id="node6" class="node"><title>Node6</title>
<g id="a_node6"><a doxygen="https://jmirabel.github.io/hpp-doc/api/hpp-core/doxygen-html/hpp-core.doxytag:https://jmirabel.github.io/hpp-doc/api/hpp-core/doxygen-html/" xlink:href="https://jmirabel.github.io/hpp-doc/api/hpp-core/doxygen-html/a00001.html" target="_top" xlink:title="hpp/core/fwd.hh">
<polygon fill="white" stroke="black" points="374,-446.5 374,-465.5 460,-465.5 460,-446.5 374,-446.5"/>
<text text-anchor="middle" x="417" y="-453.5" font-family="Helvetica,sans-Serif" font-size="10.00">hpp/core/fwd.hh</text>
</a>
</g>
</g>
<!-- Node3&#45;&gt;Node6 -->
<g id="edge42" class="edge"><title>Node3&#45;&gt;Node6</title>
<path fill="none" stroke="midnightblue" d="M286.598,-564.281C310.497,-544.619 368.829,-496.63 398.707,-472.05"/>
<polygon fill="midnightblue" stroke="midnightblue" points="401.163,-474.561 406.662,-465.505 396.716,-469.155 401.163,-474.561"/>
</g>
<!-- Node25 -->
<g id="node25" class="node"><title>Node25</title>
<g id="a_node25"><a xlink:href="a00042.html" target="_top" xlink:title="hpp/core/fwd.hh">
<polygon fill="white" stroke="black" points="573,-508.5 573,-527.5 659,-527.5 659,-508.5 573,-508.5"/>
<text text-anchor="middle" x="616" y="-515.5" font-family="Helvetica,sans-Serif" font-size="10.00">hpp/core/fwd.hh</text>
</a>
</g>
</g>
<!-- Node3&#45;&gt;Node25 -->
<g id="edge37" class="edge"><title>Node3&#45;&gt;Node25</title>
<path fill="none" stroke="midnightblue" d="M329.874,-564.444C393.64,-554.316 499.16,-537.557 562.682,-527.468"/>
<polygon fill="midnightblue" stroke="midnightblue" points="563.558,-530.873 572.886,-525.848 562.46,-523.96 563.558,-530.873"/>
</g>
<!-- Node5 -->
<g id="node5" class="node"><title>Node5</title>
<polygon fill="white" stroke="#bfbfbf" points="172.5,-446.5 172.5,-465.5 207.5,-465.5 207.5,-446.5 172.5,-446.5"/>
<text text-anchor="middle" x="190" y="-453.5" font-family="Helvetica,sans-Serif" font-size="10.00">map</text>
</g>
<!-- Node4&#45;&gt;Node5 -->
<g id="edge4" class="edge"><title>Node4&#45;&gt;Node5</title>
<path fill="none" stroke="midnightblue" d="M190,-508.403C190,-499.938 190,-486.728 190,-475.82"/>
<polygon fill="midnightblue" stroke="midnightblue" points="193.5,-475.581 190,-465.581 186.5,-475.581 193.5,-475.581"/>
</g>
<!-- Node4&#45;&gt;Node6 -->
<g id="edge5" class="edge"><title>Node4&#45;&gt;Node6</title>
<path fill="none" stroke="midnightblue" d="M222.524,-508.403C262.558,-497.822 330.638,-479.827 374.702,-468.18"/>
<polygon fill="midnightblue" stroke="midnightblue" points="375.763,-471.52 384.537,-465.581 373.974,-464.752 375.763,-471.52"/>
</g>
<!-- Node7 -->
<g id="node7" class="node"><title>Node7</title>
<g id="a_node7"><a doxygen="https://jmirabel.github.io/hpp-doc/api/hpp-fcl/doxygen-html/hpp-fcl.doxytag:https://jmirabel.github.io/hpp-doc/api/hpp-fcl/doxygen-html/" xlink:href="https://jmirabel.github.io/hpp-doc/api/hpp-fcl/doxygen-html/a00261.html" target="_top" xlink:title="hpp/fcl/shape/geometric\l_shapes.h">
<polygon fill="white" stroke="black" points="225.5,-441 225.5,-471 346.5,-471 346.5,-441 225.5,-441"/>
<text text-anchor="start" x="233.5" y="-459" font-family="Helvetica,sans-Serif" font-size="10.00">hpp/fcl/shape/geometric</text>
<text text-anchor="middle" x="286" y="-448" font-family="Helvetica,sans-Serif" font-size="10.00">_shapes.h</text>
</a>
</g>
</g>
<!-- Node4&#45;&gt;Node7 -->
<g id="edge6" class="edge"><title>Node4&#45;&gt;Node7</title>
<path fill="none" stroke="midnightblue" d="M203.754,-508.403C216.999,-500.125 237.503,-487.311 254.724,-476.547"/>
<polygon fill="midnightblue" stroke="midnightblue" points="256.75,-479.409 263.375,-471.141 253.04,-473.473 256.75,-479.409"/>
</g>
<!-- Node24 -->
<g id="node24" class="node"><title>Node24</title>
<polygon fill="white" stroke="#bfbfbf" points="-0.5,-446.5 -0.5,-465.5 154.5,-465.5 154.5,-446.5 -0.5,-446.5"/>
<text text-anchor="middle" x="77" y="-453.5" font-family="Helvetica,sans-Serif" font-size="10.00">hpp/manipulation/deprecated.hh</text>
</g>
<!-- Node4&#45;&gt;Node24 -->
<g id="edge36" class="edge"><title>Node4&#45;&gt;Node24</title>
<path fill="none" stroke="midnightblue" d="M173.81,-508.403C155.098,-498.468 124.077,-481.997 102.201,-470.381"/>
<polygon fill="midnightblue" stroke="midnightblue" points="103.634,-467.179 93.1601,-465.581 100.351,-473.362 103.634,-467.179"/>
</g>
<!-- Node8 -->
<g id="node8" class="node"><title>Node8</title>
<g id="a_node8"><a doxygen="https://jmirabel.github.io/hpp-doc/api/hpp-fcl/doxygen-html/hpp-fcl.doxytag:https://jmirabel.github.io/hpp-doc/api/hpp-fcl/doxygen-html/" xlink:href="https://jmirabel.github.io/hpp-doc/api/hpp-fcl/doxygen-html/a00249.html" target="_top" xlink:title="hpp/fcl/collision_object.h">
<polygon fill="white" stroke="black" points="289,-384.5 289,-403.5 413,-403.5 413,-384.5 289,-384.5"/>
<text text-anchor="middle" x="351" y="-391.5" font-family="Helvetica,sans-Serif" font-size="10.00">hpp/fcl/collision_object.h</text>
</a>
</g>
</g>
<!-- Node7&#45;&gt;Node8 -->
<g id="edge7" class="edge"><title>Node7&#45;&gt;Node8</title>
<path fill="none" stroke="midnightblue" d="M301.404,-440.781C311.239,-431.703 323.993,-419.929 334.105,-410.595"/>
<polygon fill="midnightblue" stroke="midnightblue" points="336.568,-413.085 341.542,-403.731 331.82,-407.942 336.568,-413.085"/>
</g>
<!-- Node11 -->
<g id="node11" class="node"><title>Node11</title>
<g id="a_node11"><a doxygen="https://jmirabel.github.io/hpp-doc/api/hpp-fcl/doxygen-html/hpp-fcl.doxytag:https://jmirabel.github.io/hpp-doc/api/hpp-fcl/doxygen-html/" xlink:href="https://jmirabel.github.io/hpp-doc/api/hpp-fcl/doxygen-html/a00318.html" target="_top" xlink:title="hpp/fcl/math/vec_3f.h">
<polygon fill="white" stroke="black" points="305.5,-56.5 305.5,-75.5 416.5,-75.5 416.5,-56.5 305.5,-56.5"/>
<text text-anchor="middle" x="361" y="-63.5" font-family="Helvetica,sans-Serif" font-size="10.00">hpp/fcl/math/vec_3f.h</text>
</a>
</g>
</g>
<!-- Node7&#45;&gt;Node11 -->
<g id="edge35" class="edge"><title>Node7&#45;&gt;Node11</title>
<path fill="none" stroke="midnightblue" d="M271.155,-440.749C250.607,-419.413 216,-376.955 216,-333 216,-333 216,-333 216,-195 216,-135.967 284.384,-97.648 327.228,-79.4337"/>
<polygon fill="midnightblue" stroke="midnightblue" points="328.802,-82.5712 336.73,-75.543 326.15,-76.0931 328.802,-82.5712"/>
</g>
<!-- Node9 -->
<g id="node9" class="node"><title>Node9</title>
<g id="a_node9"><a doxygen="https://jmirabel.github.io/hpp-doc/api/hpp-fcl/doxygen-html/hpp-fcl.doxytag:https://jmirabel.github.io/hpp-doc/api/hpp-fcl/doxygen-html/" xlink:href="https://jmirabel.github.io/hpp-doc/api/hpp-fcl/doxygen-html/a00253.html" target="_top" xlink:title="hpp/fcl/deprecated.h">
<polygon fill="white" stroke="black" points="298.5,-322.5 298.5,-341.5 403.5,-341.5 403.5,-322.5 298.5,-322.5"/>
<text text-anchor="middle" x="351" y="-329.5" font-family="Helvetica,sans-Serif" font-size="10.00">hpp/fcl/deprecated.h</text>
</a>
</g>
</g>
<!-- Node8&#45;&gt;Node9 -->
<g id="edge8" class="edge"><title>Node8&#45;&gt;Node9</title>
<path fill="none" stroke="midnightblue" d="M351,-384.403C351,-375.938 351,-362.728 351,-351.82"/>
<polygon fill="midnightblue" stroke="midnightblue" points="354.5,-351.581 351,-341.581 347.5,-351.581 354.5,-351.581"/>
</g>
<!-- Node10 -->
<g id="node10" class="node"><title>Node10</title>
<g id="a_node10"><a doxygen="https://jmirabel.github.io/hpp-doc/api/hpp-fcl/doxygen-html/hpp-fcl.doxytag:https://jmirabel.github.io/hpp-doc/api/hpp-fcl/doxygen-html/" xlink:href="https://jmirabel.github.io/hpp-doc/api/hpp-fcl/doxygen-html/a00226.html" target="_top" xlink:title="hpp/fcl/BV/AABB.h">
<polygon fill="white" stroke="black" points="244.5,-254.5 244.5,-273.5 345.5,-273.5 345.5,-254.5 244.5,-254.5"/>
<text text-anchor="middle" x="295" y="-261.5" font-family="Helvetica,sans-Serif" font-size="10.00">hpp/fcl/BV/AABB.h</text>
</a>
</g>
</g>
<!-- Node8&#45;&gt;Node10 -->
<g id="edge9" class="edge"><title>Node8&#45;&gt;Node10</title>
<path fill="none" stroke="midnightblue" d="M330.777,-384.495C316.229,-377.168 297.699,-365.063 289,-348 278.621,-327.642 283.358,-300.755 288.494,-283.179"/>
<polygon fill="midnightblue" stroke="midnightblue" points="291.851,-284.173 291.612,-273.581 285.194,-282.01 291.851,-284.173"/>
</g>
<!-- Node14 -->
<g id="node14" class="node"><title>Node14</title>
<g id="a_node14"><a doxygen="https://jmirabel.github.io/hpp-doc/api/hpp-fcl/doxygen-html/hpp-fcl.doxytag:https://jmirabel.github.io/hpp-doc/api/hpp-fcl/doxygen-html/" xlink:href="https://jmirabel.github.io/hpp-doc/api/hpp-fcl/doxygen-html/a00310.html" target="_top" xlink:title="hpp/fcl/math/transform.h">
<polygon fill="white" stroke="black" points="363.5,-254.5 363.5,-273.5 486.5,-273.5 486.5,-254.5 363.5,-254.5"/>
<text text-anchor="middle" x="425" y="-261.5" font-family="Helvetica,sans-Serif" font-size="10.00">hpp/fcl/math/transform.h</text>
</a>
</g>
</g>
<!-- Node8&#45;&gt;Node14 -->
<g id="edge13" class="edge"><title>Node8&#45;&gt;Node14</title>
<path fill="none" stroke="midnightblue" d="M369.302,-384.469C383.342,-376.922 401.966,-364.54 412,-348 423.853,-328.462 426.067,-301.749 426,-283.963"/>
<polygon fill="midnightblue" stroke="midnightblue" points="429.492,-283.624 425.706,-273.729 422.495,-283.825 429.492,-283.624"/>
</g>
<!-- Node16 -->
<g id="node16" class="node"><title>Node16</title>
<g id="a_node16"><a doxygen="https://jmirabel.github.io/hpp-doc/api/hpp-fcl/doxygen-html/hpp-fcl.doxytag:https://jmirabel.github.io/hpp-doc/api/hpp-fcl/doxygen-html/" xlink:href="https://jmirabel.github.io/hpp-doc/api/hpp-fcl/doxygen-html/a00290.html" target="_top" xlink:title="hpp/fcl/ccd/motion\l_base.h">
<polygon fill="white" stroke="black" points="466.5,-317 466.5,-347 563.5,-347 563.5,-317 466.5,-317"/>
<text text-anchor="start" x="474.5" y="-335" font-family="Helvetica,sans-Serif" font-size="10.00">hpp/fcl/ccd/motion</text>
<text text-anchor="middle" x="515" y="-324" font-family="Helvetica,sans-Serif" font-size="10.00">_base.h</text>
</a>
</g>
</g>
<!-- Node8&#45;&gt;Node16 -->
<g id="edge16" class="edge"><title>Node8&#45;&gt;Node16</title>
<path fill="none" stroke="midnightblue" d="M374.497,-384.403C398.553,-375.603 436.625,-361.674 467.074,-350.534"/>
<polygon fill="midnightblue" stroke="midnightblue" points="468.475,-353.748 476.664,-347.025 466.07,-347.174 468.475,-353.748"/>
</g>
<!-- Node10&#45;&gt;Node11 -->
<g id="edge10" class="edge"><title>Node10&#45;&gt;Node11</title>
<path fill="none" stroke="midnightblue" d="M297.921,-254.325C307.952,-224.538 341.128,-126.013 354.912,-85.0787"/>
<polygon fill="midnightblue" stroke="midnightblue" points="358.238,-86.1687 358.113,-75.5746 351.604,-83.9348 358.238,-86.1687"/>
</g>
<!-- Node12 -->
<g id="node12" class="node"><title>Node12</title>
<g id="a_node12"><a doxygen="https://jmirabel.github.io/hpp-doc/api/hpp-fcl/doxygen-html/hpp-fcl.doxytag:https://jmirabel.github.io/hpp-doc/api/hpp-fcl/doxygen-html/" xlink:href="https://jmirabel.github.io/hpp-doc/api/hpp-fcl/doxygen-html/a00252.html" target="_top" xlink:title="hpp/fcl/data_types.h">
<polygon fill="white" stroke="black" points="486.5,-0.5 486.5,-19.5 591.5,-19.5 591.5,-0.5 486.5,-0.5"/>
<text text-anchor="middle" x="539" y="-7.5" font-family="Helvetica,sans-Serif" font-size="10.00">hpp/fcl/data_types.h</text>
</a>
</g>
</g>
<!-- Node11&#45;&gt;Node12 -->
<g id="edge11" class="edge"><title>Node11&#45;&gt;Node12</title>
<path fill="none" stroke="midnightblue" d="M389.205,-56.4435C419.41,-47.2801 467.511,-32.6876 501.029,-22.5192"/>
<polygon fill="midnightblue" stroke="midnightblue" points="502.374,-25.7688 510.927,-19.5164 500.342,-19.0703 502.374,-25.7688"/>
</g>
<!-- Node13 -->
<g id="node13" class="node"><title>Node13</title>
<g id="a_node13"><a doxygen="https://jmirabel.github.io/hpp-doc/api/hpp-fcl/doxygen-html/hpp-fcl.doxytag:https://jmirabel.github.io/hpp-doc/api/hpp-fcl/doxygen-html/" xlink:href="https://jmirabel.github.io/hpp-doc/api/hpp-fcl/doxygen-html/a00283.html" target="_top" xlink:title="hpp/fcl/math/math_details.h">
<polygon fill="white" stroke="black" points="292.5,-0.5 292.5,-19.5 429.5,-19.5 429.5,-0.5 292.5,-0.5"/>
<text text-anchor="middle" x="361" y="-7.5" font-family="Helvetica,sans-Serif" font-size="10.00">hpp/fcl/math/math_details.h</text>
</a>
</g>
</g>
<!-- Node11&#45;&gt;Node13 -->
<g id="edge12" class="edge"><title>Node11&#45;&gt;Node13</title>
<path fill="none" stroke="midnightblue" d="M361,-56.083C361,-49.0059 361,-38.8611 361,-29.9865"/>
<polygon fill="midnightblue" stroke="midnightblue" points="364.5,-29.751 361,-19.7511 357.5,-29.7511 364.5,-29.751"/>
</g>
<!-- Node15 -->
<g id="node15" class="node"><title>Node15</title>
<g id="a_node15"><a doxygen="https://jmirabel.github.io/hpp-doc/api/hpp-fcl/doxygen-html/hpp-fcl.doxytag:https://jmirabel.github.io/hpp-doc/api/hpp-fcl/doxygen-html/" xlink:href="https://jmirabel.github.io/hpp-doc/api/hpp-fcl/doxygen-html/a00285.html" target="_top" xlink:title="hpp/fcl/math/matrix_3f.h">
<polygon fill="white" stroke="black" points="370,-118.5 370,-137.5 492,-137.5 492,-118.5 370,-118.5"/>
<text text-anchor="middle" x="431" y="-125.5" font-family="Helvetica,sans-Serif" font-size="10.00">hpp/fcl/math/matrix_3f.h</text>
</a>
</g>
</g>
<!-- Node14&#45;&gt;Node15 -->
<g id="edge14" class="edge"><title>Node14&#45;&gt;Node15</title>
<path fill="none" stroke="midnightblue" d="M411.629,-254.336C399.224,-245.421 381.571,-230.278 374,-212 368.557,-198.86 368.195,-192.984 374,-180 380.804,-164.783 394.641,-152.226 406.977,-143.38"/>
<polygon fill="midnightblue" stroke="midnightblue" points="409.221,-146.089 415.573,-137.61 405.319,-140.278 409.221,-146.089"/>
</g>
<!-- Node15&#45;&gt;Node11 -->
<g id="edge15" class="edge"><title>Node15&#45;&gt;Node11</title>
<path fill="none" stroke="midnightblue" d="M420.971,-118.403C409.951,-108.958 392.04,-93.6056 378.657,-82.1342"/>
<polygon fill="midnightblue" stroke="midnightblue" points="380.881,-79.4311 371.011,-75.5806 376.325,-84.7459 380.881,-79.4311"/>
</g>
<!-- Node16&#45;&gt;Node14 -->
<g id="edge17" class="edge"><title>Node16&#45;&gt;Node14</title>
<path fill="none" stroke="midnightblue" d="M495.471,-316.679C480.518,-305.713 459.97,-290.645 444.921,-279.609"/>
<polygon fill="midnightblue" stroke="midnightblue" points="446.913,-276.729 436.779,-273.638 442.773,-282.374 446.913,-276.729"/>
</g>
<!-- Node17 -->
<g id="node17" class="node"><title>Node17</title>
<g id="a_node17"><a doxygen="https://jmirabel.github.io/hpp-doc/api/hpp-fcl/doxygen-html/hpp-fcl.doxytag:https://jmirabel.github.io/hpp-doc/api/hpp-fcl/doxygen-html/" xlink:href="https://jmirabel.github.io/hpp-doc/api/hpp-fcl/doxygen-html/a00307.html" target="_top" xlink:title="hpp/fcl/ccd/taylor\l_matrix.h">
<polygon fill="white" stroke="black" points="543,-249 543,-279 635,-279 635,-249 543,-249"/>
<text text-anchor="start" x="551" y="-267" font-family="Helvetica,sans-Serif" font-size="10.00">hpp/fcl/ccd/taylor</text>
<text text-anchor="middle" x="589" y="-256" font-family="Helvetica,sans-Serif" font-size="10.00">_matrix.h</text>
</a>
</g>
</g>
<!-- Node16&#45;&gt;Node17 -->
<g id="edge18" class="edge"><title>Node16&#45;&gt;Node17</title>
<path fill="none" stroke="midnightblue" d="M531.057,-316.679C541.113,-307.71 554.247,-295.996 565.468,-285.988"/>
<polygon fill="midnightblue" stroke="midnightblue" points="568.095,-288.335 573.229,-279.066 563.436,-283.11 568.095,-288.335"/>
</g>
<!-- Node18 -->
<g id="node18" class="node"><title>Node18</title>
<g id="a_node18"><a doxygen="https://jmirabel.github.io/hpp-doc/api/hpp-fcl/doxygen-html/hpp-fcl.doxytag:https://jmirabel.github.io/hpp-doc/api/hpp-fcl/doxygen-html/" xlink:href="https://jmirabel.github.io/hpp-doc/api/hpp-fcl/doxygen-html/a00309.html" target="_top" xlink:title="hpp/fcl/ccd/taylor\l_vector.h">
<polygon fill="white" stroke="black" points="653,-181 653,-211 745,-211 745,-181 653,-181"/>
<text text-anchor="start" x="661" y="-199" font-family="Helvetica,sans-Serif" font-size="10.00">hpp/fcl/ccd/taylor</text>
<text text-anchor="middle" x="699" y="-188" font-family="Helvetica,sans-Serif" font-size="10.00">_vector.h</text>
</a>
</g>
</g>
<!-- Node16&#45;&gt;Node18 -->
<g id="edge31" class="edge"><title>Node16&#45;&gt;Node18</title>
<path fill="none" stroke="midnightblue" d="M563.706,-319.397C589.558,-311.456 620.706,-298.877 644,-280 663.808,-263.948 679.049,-238.841 688.409,-220.442"/>
<polygon fill="midnightblue" stroke="midnightblue" points="691.648,-221.786 692.879,-211.263 685.354,-218.722 691.648,-221.786"/>
</g>
<!-- Node23 -->
<g id="node23" class="node"><title>Node23</title>
<g id="a_node23"><a doxygen="https://jmirabel.github.io/hpp-doc/api/hpp-fcl/doxygen-html/hpp-fcl.doxytag:https://jmirabel.github.io/hpp-doc/api/hpp-fcl/doxygen-html/" xlink:href="https://jmirabel.github.io/hpp-doc/api/hpp-fcl/doxygen-html/a00302.html" target="_top" xlink:title="hpp/fcl/BV/RSS.h">
<polygon fill="white" stroke="black" points="383.5,-186.5 383.5,-205.5 478.5,-205.5 478.5,-186.5 383.5,-186.5"/>
<text text-anchor="middle" x="431" y="-193.5" font-family="Helvetica,sans-Serif" font-size="10.00">hpp/fcl/BV/RSS.h</text>
</a>
</g>
</g>
<!-- Node16&#45;&gt;Node23 -->
<g id="edge32" class="edge"><title>Node16&#45;&gt;Node23</title>
<path fill="none" stroke="midnightblue" d="M514.353,-316.695C512.967,-299.229 508.618,-269.377 495,-248 485.169,-232.568 469.032,-219.755 455.421,-210.832"/>
<polygon fill="midnightblue" stroke="midnightblue" points="457.272,-207.861 446.934,-205.542 453.569,-213.802 457.272,-207.861"/>
</g>
<!-- Node17&#45;&gt;Node15 -->
<g id="edge19" class="edge"><title>Node17&#45;&gt;Node15</title>
<path fill="none" stroke="midnightblue" d="M571.204,-248.887C558.505,-238.745 541.077,-224.681 526,-212 498.406,-188.79 467.012,-161.105 448.119,-144.301"/>
<polygon fill="midnightblue" stroke="midnightblue" points="450.4,-141.645 440.606,-137.605 445.743,-146.871 450.4,-141.645"/>
</g>
<!-- Node17&#45;&gt;Node18 -->
<g id="edge20" class="edge"><title>Node17&#45;&gt;Node18</title>
<path fill="none" stroke="midnightblue" d="M612.598,-248.841C628.402,-239.359 649.41,-226.754 666.753,-216.348"/>
<polygon fill="midnightblue" stroke="midnightblue" points="668.667,-219.281 675.441,-211.135 665.066,-213.279 668.667,-219.281"/>
</g>
<!-- Node22 -->
<g id="node22" class="node"><title>Node22</title>
<g id="a_node22"><a doxygen="https://jmirabel.github.io/hpp-doc/api/hpp-fcl/doxygen-html/hpp-fcl.doxytag:https://jmirabel.github.io/hpp-doc/api/hpp-fcl/doxygen-html/" xlink:href="https://jmirabel.github.io/hpp-doc/api/hpp-fcl/doxygen-html/a00274.html" target="_top" xlink:title="hpp/fcl/ccd/interval\l_matrix.h">
<polygon fill="white" stroke="black" points="535.5,-181 535.5,-211 634.5,-211 634.5,-181 535.5,-181"/>
<text text-anchor="start" x="543.5" y="-199" font-family="Helvetica,sans-Serif" font-size="10.00">hpp/fcl/ccd/interval</text>
<text text-anchor="middle" x="585" y="-188" font-family="Helvetica,sans-Serif" font-size="10.00">_matrix.h</text>
</a>
</g>
</g>
<!-- Node17&#45;&gt;Node22 -->
<g id="edge27" class="edge"><title>Node17&#45;&gt;Node22</title>
<path fill="none" stroke="midnightblue" d="M588.132,-248.679C587.65,-240.722 587.037,-230.605 586.481,-221.436"/>
<polygon fill="midnightblue" stroke="midnightblue" points="589.965,-221.063 585.866,-211.293 582.978,-221.487 589.965,-221.063"/>
</g>
<!-- Node19 -->
<g id="node19" class="node"><title>Node19</title>
<g id="a_node19"><a doxygen="https://jmirabel.github.io/hpp-doc/api/hpp-fcl/doxygen-html/hpp-fcl.doxytag:https://jmirabel.github.io/hpp-doc/api/hpp-fcl/doxygen-html/" xlink:href="https://jmirabel.github.io/hpp-doc/api/hpp-fcl/doxygen-html/a00276.html" target="_top" xlink:title="hpp/fcl/ccd/interval\l_vector.h">
<polygon fill="white" stroke="black" points="548.5,-113 548.5,-143 647.5,-143 647.5,-113 548.5,-113"/>
<text text-anchor="start" x="556.5" y="-131" font-family="Helvetica,sans-Serif" font-size="10.00">hpp/fcl/ccd/interval</text>
<text text-anchor="middle" x="598" y="-120" font-family="Helvetica,sans-Serif" font-size="10.00">_vector.h</text>
</a>
</g>
</g>
<!-- Node18&#45;&gt;Node19 -->
<g id="edge21" class="edge"><title>Node18&#45;&gt;Node19</title>
<path fill="none" stroke="midnightblue" d="M677.085,-180.679C662.693,-171.274 643.682,-158.852 627.907,-148.543"/>
<polygon fill="midnightblue" stroke="midnightblue" points="629.812,-145.607 619.526,-143.066 625.982,-151.467 629.812,-145.607"/>
</g>
<!-- Node21 -->
<g id="node21" class="node"><title>Node21</title>
<g id="a_node21"><a doxygen="https://jmirabel.github.io/hpp-doc/api/hpp-fcl/doxygen-html/hpp-fcl.doxytag:https://jmirabel.github.io/hpp-doc/api/hpp-fcl/doxygen-html/" xlink:href="https://jmirabel.github.io/hpp-doc/api/hpp-fcl/doxygen-html/a00308.html" target="_top" xlink:title="hpp/fcl/ccd/taylor\l_model.h">
<polygon fill="white" stroke="black" points="666,-113 666,-143 758,-143 758,-113 666,-113"/>
<text text-anchor="start" x="674" y="-131" font-family="Helvetica,sans-Serif" font-size="10.00">hpp/fcl/ccd/taylor</text>
<text text-anchor="middle" x="712" y="-120" font-family="Helvetica,sans-Serif" font-size="10.00">_model.h</text>
</a>
</g>
</g>
<!-- Node18&#45;&gt;Node21 -->
<g id="edge25" class="edge"><title>Node18&#45;&gt;Node21</title>
<path fill="none" stroke="midnightblue" d="M701.821,-180.679C703.405,-172.636 705.424,-162.385 707.246,-153.137"/>
<polygon fill="midnightblue" stroke="midnightblue" points="710.686,-153.781 709.185,-143.293 703.818,-152.428 710.686,-153.781"/>
</g>
<!-- Node19&#45;&gt;Node11 -->
<g id="edge24" class="edge"><title>Node19&#45;&gt;Node11</title>
<path fill="none" stroke="midnightblue" d="M548.317,-114.422C505.773,-103.651 445.118,-88.2957 404.471,-78.0052"/>
<polygon fill="midnightblue" stroke="midnightblue" points="405.144,-74.5653 394.591,-75.504 403.426,-81.3513 405.144,-74.5653"/>
</g>
<!-- Node20 -->
<g id="node20" class="node"><title>Node20</title>
<g id="a_node20"><a doxygen="https://jmirabel.github.io/hpp-doc/api/hpp-fcl/doxygen-html/hpp-fcl.doxytag:https://jmirabel.github.io/hpp-doc/api/hpp-fcl/doxygen-html/" xlink:href="https://jmirabel.github.io/hpp-doc/api/hpp-fcl/doxygen-html/a00273.html" target="_top" xlink:title="hpp/fcl/ccd/interval.h">
<polygon fill="white" stroke="black" points="505.5,-56.5 505.5,-75.5 612.5,-75.5 612.5,-56.5 505.5,-56.5"/>
<text text-anchor="middle" x="559" y="-63.5" font-family="Helvetica,sans-Serif" font-size="10.00">hpp/fcl/ccd/interval.h</text>
</a>
</g>
</g>
<!-- Node19&#45;&gt;Node20 -->
<g id="edge22" class="edge"><title>Node19&#45;&gt;Node20</title>
<path fill="none" stroke="midnightblue" d="M588.758,-112.781C583.207,-104.242 576.107,-93.3184 570.234,-84.2834"/>
<polygon fill="midnightblue" stroke="midnightblue" points="573.059,-82.2075 564.675,-75.7305 567.19,-86.0225 573.059,-82.2075"/>
</g>
<!-- Node20&#45;&gt;Node12 -->
<g id="edge23" class="edge"><title>Node20&#45;&gt;Node12</title>
<path fill="none" stroke="midnightblue" d="M555.697,-56.083C553.018,-48.8486 549.151,-38.4087 545.814,-29.3968"/>
<polygon fill="midnightblue" stroke="midnightblue" points="548.996,-27.9129 542.241,-19.7511 542.432,-30.3442 548.996,-27.9129"/>
</g>
<!-- Node21&#45;&gt;Node20 -->
<g id="edge26" class="edge"><title>Node21&#45;&gt;Node20</title>
<path fill="none" stroke="midnightblue" d="M676.128,-112.933C650.085,-102.72 615.192,-89.036 590.279,-79.2664"/>
<polygon fill="midnightblue" stroke="midnightblue" points="591.518,-75.9926 580.93,-75.6 588.962,-82.5094 591.518,-75.9926"/>
</g>
<!-- Node22&#45;&gt;Node15 -->
<g id="edge30" class="edge"><title>Node22&#45;&gt;Node15</title>
<path fill="none" stroke="midnightblue" d="M551.963,-180.841C524.848,-169.221 486.794,-152.912 460.648,-141.706"/>
<polygon fill="midnightblue" stroke="midnightblue" points="461.828,-138.404 451.258,-137.682 459.07,-144.838 461.828,-138.404"/>
</g>
<!-- Node22&#45;&gt;Node19 -->
<g id="edge29" class="edge"><title>Node22&#45;&gt;Node19</title>
<path fill="none" stroke="midnightblue" d="M587.821,-180.679C589.405,-172.636 591.424,-162.385 593.246,-153.137"/>
<polygon fill="midnightblue" stroke="midnightblue" points="596.686,-153.781 595.185,-143.293 589.818,-152.428 596.686,-153.781"/>
</g>
<!-- Node22&#45;&gt;Node20 -->
<g id="edge28" class="edge"><title>Node22&#45;&gt;Node20</title>
<path fill="none" stroke="midnightblue" d="M566.581,-180.613C556.336,-171.394 544.561,-158.469 539,-144 531.439,-124.329 539.996,-100.754 548.143,-84.9161"/>
<polygon fill="midnightblue" stroke="midnightblue" points="551.445,-86.1818 553.264,-75.7443 545.333,-82.769 551.445,-86.1818"/>
</g>
<!-- Node23&#45;&gt;Node11 -->
<g id="edge33" class="edge"><title>Node23&#45;&gt;Node11</title>
<path fill="none" stroke="midnightblue" d="M410.194,-186.349C393.501,-178.157 371.226,-164.103 361,-144 351.742,-125.8 353.532,-101.905 356.482,-85.5909"/>
<polygon fill="midnightblue" stroke="midnightblue" points="359.935,-86.1798 358.588,-75.6709 353.087,-84.726 359.935,-86.1798"/>
</g>
<!-- Node23&#45;&gt;Node15 -->
<g id="edge34" class="edge"><title>Node23&#45;&gt;Node15</title>
<path fill="none" stroke="midnightblue" d="M431,-186.372C431,-176.643 431,-160.528 431,-147.85"/>
<polygon fill="midnightblue" stroke="midnightblue" points="434.5,-147.841 431,-137.841 427.5,-147.841 434.5,-147.841"/>
</g>
<!-- Node26 -->
<g id="node26" class="node"><title>Node26</title>
<polygon fill="white" stroke="#bfbfbf" points="569,-446.5 569,-465.5 663,-465.5 663,-446.5 569,-446.5"/>
<text text-anchor="middle" x="616" y="-453.5" font-family="Helvetica,sans-Serif" font-size="10.00">hpp/util/pointer.hh</text>
</g>
<!-- Node25&#45;&gt;Node26 -->
<g id="edge38" class="edge"><title>Node25&#45;&gt;Node26</title>
<path fill="none" stroke="midnightblue" d="M616,-508.403C616,-499.938 616,-486.728 616,-475.82"/>
<polygon fill="midnightblue" stroke="midnightblue" points="619.5,-475.581 616,-465.581 612.5,-475.581 619.5,-475.581"/>
</g>
<!-- Node27 -->
<g id="node27" class="node"><title>Node27</title>
<g id="a_node27"><a doxygen="https://jmirabel.github.io/hpp-doc/api/hpp-statistics/doxygen-html/hpp-statistics.doxytag:https://jmirabel.github.io/hpp-doc/api/hpp-statistics/doxygen-html/" xlink:href="https://jmirabel.github.io/hpp-doc/api/hpp-statistics/doxygen-html/a00010.html" target="_top" xlink:title="hpp/statistics/distribution.hh">
<polygon fill="white" stroke="black" points="681.5,-446.5 681.5,-465.5 820.5,-465.5 820.5,-446.5 681.5,-446.5"/>
<text text-anchor="middle" x="751" y="-453.5" font-family="Helvetica,sans-Serif" font-size="10.00">hpp/statistics/distribution.hh</text>
</a>
</g>
</g>
<!-- Node25&#45;&gt;Node27 -->
<g id="edge39" class="edge"><title>Node25&#45;&gt;Node27</title>
<path fill="none" stroke="midnightblue" d="M635.342,-508.403C658.099,-498.29 696.092,-481.404 722.288,-469.761"/>
<polygon fill="midnightblue" stroke="midnightblue" points="723.977,-472.84 731.694,-465.581 721.134,-466.444 723.977,-472.84"/>
</g>
<!-- Node29 -->
<g id="node29" class="node"><title>Node29</title>
<polygon fill="white" stroke="#bfbfbf" points="507,-446.5 507,-465.5 551,-465.5 551,-446.5 507,-446.5"/>
<text text-anchor="middle" x="529" y="-453.5" font-family="Helvetica,sans-Serif" font-size="10.00">vector</text>
</g>
<!-- Node25&#45;&gt;Node29 -->
<g id="edge41" class="edge"><title>Node25&#45;&gt;Node29</title>
<path fill="none" stroke="midnightblue" d="M603.535,-508.403C589.581,-498.78 566.735,-483.024 550.009,-471.489"/>
<polygon fill="midnightblue" stroke="midnightblue" points="551.661,-468.377 541.442,-465.581 547.687,-474.139 551.661,-468.377"/>
</g>
<!-- Node28 -->
<g id="node28" class="node"><title>Node28</title>
<g id="a_node28"><a doxygen="https://jmirabel.github.io/hpp-doc/api/hpp-statistics/doxygen-html/hpp-statistics.doxytag:https://jmirabel.github.io/hpp-doc/api/hpp-statistics/doxygen-html/" xlink:href="https://jmirabel.github.io/hpp-doc/api/hpp-statistics/doxygen-html/a00011.html" target="_top" xlink:title="hpp/statistics/fwd.hh">
<polygon fill="white" stroke="black" points="697.5,-384.5 697.5,-403.5 804.5,-403.5 804.5,-384.5 697.5,-384.5"/>
<text text-anchor="middle" x="751" y="-391.5" font-family="Helvetica,sans-Serif" font-size="10.00">hpp/statistics/fwd.hh</text>
</a>
</g>
</g>
<!-- Node27&#45;&gt;Node28 -->
<g id="edge40" class="edge"><title>Node27&#45;&gt;Node28</title>
<path fill="none" stroke="midnightblue" d="M751,-446.403C751,-437.938 751,-424.728 751,-413.82"/>
<polygon fill="midnightblue" stroke="midnightblue" points="754.5,-413.581 751,-403.581 747.5,-413.581 754.5,-413.581"/>
</g>
<!-- Node30&#45;&gt;Node4 -->
<g id="edge44" class="edge"><title>Node30&#45;&gt;Node4</title>
<path fill="none" stroke="midnightblue" d="M427.769,-744.388C381.427,-730.782 295.063,-700.734 236,-652 207.466,-628.456 199.191,-619.26 188,-584 183.245,-569.019 184.253,-551.108 186.163,-537.885"/>
<polygon fill="midnightblue" stroke="midnightblue" points="189.675,-538.117 187.95,-527.663 182.78,-536.911 189.675,-538.117"/>
</g>
<!-- Node30&#45;&gt;Node6 -->
<g id="edge46" class="edge"><title>Node30&#45;&gt;Node6</title>
<path fill="none" stroke="midnightblue" d="M476.334,-744.387C488.955,-736.72 505.497,-724.213 513,-708 523.974,-684.286 547.808,-754.301 499,-564 492.315,-537.937 491.718,-529.838 476,-508 465.817,-493.852 450.953,-481.035 438.693,-471.789"/>
<polygon fill="midnightblue" stroke="midnightblue" points="440.478,-468.76 430.329,-465.719 436.367,-474.425 440.478,-468.76"/>
</g>
<!-- Node30&#45;&gt;Node25 -->
<g id="edge45" class="edge"><title>Node30&#45;&gt;Node25</title>
<path fill="none" stroke="midnightblue" d="M519.664,-746.796C545.728,-740.945 574.323,-729.669 592,-708 632.737,-658.062 625.367,-574.655 619.52,-537.655"/>
<polygon fill="midnightblue" stroke="midnightblue" points="622.96,-537.009 617.809,-527.75 616.062,-538.2 622.96,-537.009"/>
</g>
<!-- Node31 -->
<g id="node31" class="node"><title>Node31</title>
<g id="a_node31"><a doxygen="https://jmirabel.github.io/hpp-doc/api/hpp-core/doxygen-html/hpp-core.doxytag:https://jmirabel.github.io/hpp-doc/api/hpp-core/doxygen-html/" xlink:href="https://jmirabel.github.io/hpp-doc/api/hpp-core/doxygen-html/a00117.html" target="_top" xlink:title="hpp/core/path.hh">
<polygon fill="white" stroke="black" points="415.5,-688.5 415.5,-707.5 504.5,-707.5 504.5,-688.5 415.5,-688.5"/>
<text text-anchor="middle" x="460" y="-695.5" font-family="Helvetica,sans-Serif" font-size="10.00">hpp/core/path.hh</text>
</a>
</g>
</g>
<!-- Node30&#45;&gt;Node31 -->
<g id="edge47" class="edge"><title>Node30&#45;&gt;Node31</title>
<path fill="none" stroke="midnightblue" d="M460,-744.083C460,-737.006 460,-726.861 460,-717.986"/>
<polygon fill="midnightblue" stroke="midnightblue" points="463.5,-717.751 460,-707.751 456.5,-717.751 463.5,-717.751"/>
</g>
<!-- Node31&#45;&gt;Node4 -->
<g id="edge48" class="edge"><title>Node31&#45;&gt;Node4</title>
<path fill="none" stroke="midnightblue" d="M415.258,-690.674C356.363,-679.846 254.103,-651.927 201,-584 190.766,-570.909 188.602,-551.76 188.646,-537.635"/>
<polygon fill="midnightblue" stroke="midnightblue" points="192.145,-537.726 189.043,-527.596 185.151,-537.449 192.145,-537.726"/>
</g>
<!-- Node31&#45;&gt;Node6 -->
<g id="edge50" class="edge"><title>Node31&#45;&gt;Node6</title>
<path fill="none" stroke="midnightblue" d="M465.047,-688.389C469.91,-679.581 476.964,-665.338 480,-652 488.683,-613.855 492.546,-601.673 482,-564 472.098,-528.629 446.945,-493.329 430.99,-473.421"/>
<polygon fill="midnightblue" stroke="midnightblue" points="433.647,-471.141 424.591,-465.643 428.242,-475.589 433.647,-471.141"/>
</g>
<!-- Node31&#45;&gt;Node25 -->
<g id="edge49" class="edge"><title>Node31&#45;&gt;Node25</title>
<path fill="none" stroke="midnightblue" d="M472.31,-688.489C484.173,-679.98 502.292,-666.157 516,-652 552.691,-614.108 587.911,-562.615 605.095,-536.194"/>
<polygon fill="midnightblue" stroke="midnightblue" points="608.114,-537.971 610.58,-527.667 602.227,-534.184 608.114,-537.971"/>
</g>
<!-- Node32 -->
<g id="node32" class="node"><title>Node32</title>
<g id="a_node32"><a doxygen="https://jmirabel.github.io/hpp-doc/api/hpp-core/doxygen-html/hpp-core.doxytag:https://jmirabel.github.io/hpp-doc/api/hpp-core/doxygen-html/" xlink:href="https://jmirabel.github.io/hpp-doc/api/hpp-core/doxygen-html/a00085.html" target="_top" xlink:title="hpp/core/constraint\l&#45;set.hh">
<polygon fill="white" stroke="black" points="371,-621 371,-651 471,-651 471,-621 371,-621"/>
<text text-anchor="start" x="379" y="-639" font-family="Helvetica,sans-Serif" font-size="10.00">hpp/core/constraint</text>
<text text-anchor="middle" x="421" y="-628" font-family="Helvetica,sans-Serif" font-size="10.00">&#45;set.hh</text>
</a>
</g>
</g>
<!-- Node31&#45;&gt;Node32 -->
<g id="edge51" class="edge"><title>Node31&#45;&gt;Node32</title>
<path fill="none" stroke="midnightblue" d="M454.412,-688.403C449.525,-680.885 442.205,-669.624 435.662,-659.556"/>
<polygon fill="midnightblue" stroke="midnightblue" points="438.576,-657.618 430.192,-651.141 432.707,-661.433 438.576,-657.618"/>
</g>
<!-- Node33 -->
<g id="node33" class="node"><title>Node33</title>
<g id="a_node33"><a doxygen="https://jmirabel.github.io/hpp-doc/api/hpp-core/doxygen-html/hpp-core.doxytag:https://jmirabel.github.io/hpp-doc/api/hpp-core/doxygen-html/" xlink:href="https://jmirabel.github.io/hpp-doc/api/hpp-core/doxygen-html/a00086.html" target="_top" xlink:title="hpp/core/constraint.hh">
<polygon fill="white" stroke="black" points="360.5,-564.5 360.5,-583.5 473.5,-583.5 473.5,-564.5 360.5,-564.5"/>
<text text-anchor="middle" x="417" y="-571.5" font-family="Helvetica,sans-Serif" font-size="10.00">hpp/core/constraint.hh</text>
</a>
</g>
</g>
<!-- Node32&#45;&gt;Node33 -->
<g id="edge52" class="edge"><title>Node32&#45;&gt;Node33</title>
<path fill="none" stroke="midnightblue" d="M420.052,-620.781C419.513,-612.691 418.831,-602.462 418.248,-593.725"/>
<polygon fill="midnightblue" stroke="midnightblue" points="421.74,-593.476 417.582,-583.731 414.755,-593.941 421.74,-593.476"/>
</g>
<!-- Node33&#45;&gt;Node4 -->
<g id="edge53" class="edge"><title>Node33&#45;&gt;Node4</title>
<path fill="none" stroke="midnightblue" d="M381.031,-564.444C341.681,-555.083 278.513,-540.056 235.686,-529.868"/>
<polygon fill="midnightblue" stroke="midnightblue" points="236.339,-526.426 225.801,-527.516 234.719,-533.236 236.339,-526.426"/>
</g>
<!-- Node33&#45;&gt;Node6 -->
<g id="edge55" class="edge"><title>Node33&#45;&gt;Node6</title>
<path fill="none" stroke="midnightblue" d="M417,-564.281C417,-545.547 417,-501.098 417,-475.682"/>
<polygon fill="midnightblue" stroke="midnightblue" points="420.5,-475.505 417,-465.505 413.5,-475.505 420.5,-475.505"/>
</g>
<!-- Node33&#45;&gt;Node25 -->
<g id="edge54" class="edge"><title>Node33&#45;&gt;Node25</title>
<path fill="none" stroke="midnightblue" d="M448.532,-564.444C482.592,-555.201 537.006,-540.436 574.515,-530.257"/>
<polygon fill="midnightblue" stroke="midnightblue" points="575.881,-533.513 584.615,-527.516 574.048,-526.758 575.881,-533.513"/>
</g>
</g>
</svg>
