<?xml version="1.0" encoding="UTF-8" standalone="no"?>
<!DOCTYPE svg PUBLIC "-//W3C//DTD SVG 1.1//EN"
 "http://www.w3.org/Graphics/SVG/1.1/DTD/svg11.dtd">
<!-- Generated by graphviz version 2.36.0 (20140111.2315)
 -->
<!-- Title: fwd.hh Pages: 1 -->
<svg width="1643pt" height="420pt"
 viewBox="0.00 0.00 1643.00 420.00" xmlns="http://www.w3.org/2000/svg" xmlns:xlink="http://www.w3.org/1999/xlink">
<g id="graph0" class="graph" transform="scale(1 1) rotate(0) translate(4 416)">
<title>fwd.hh</title>
<polygon fill="white" stroke="none" points="-4,4 -4,-416 1639,-416 1639,4 -4,4"/>
<!-- Node1 -->
<g id="node1" class="node"><title>Node1</title>
<polygon fill="#bfbfbf" stroke="black" points="776,-392.5 776,-411.5 822,-411.5 822,-392.5 776,-392.5"/>
<text text-anchor="middle" x="799" y="-399.5" font-family="Helvetica,sans-Serif" font-size="10.00">fwd.hh</text>
</g>
<!-- Node2 -->
<g id="node2" class="node"><title>Node2</title>
<g id="a_node2"><a xlink:href="a00057.html" target="_top" xlink:title="handle.hh">
<polygon fill="white" stroke="black" points="17.5,-336.5 17.5,-355.5 76.5,-355.5 76.5,-336.5 17.5,-336.5"/>
<text text-anchor="middle" x="47" y="-343.5" font-family="Helvetica,sans-Serif" font-size="10.00">handle.hh</text>
</a>
</g>
</g>
<!-- Node1&#45;&gt;Node2 -->
<g id="edge1" class="edge"><title>Node1&#45;&gt;Node2</title>
<path fill="none" stroke="midnightblue" d="M765.644,-400.258C664.499,-397.71 352.472,-387.651 96,-356 89.7336,-355.227 83.0566,-354.163 76.7127,-353.036"/>
<polygon fill="midnightblue" stroke="midnightblue" points="765.765,-403.762 775.848,-400.507 765.936,-396.764 765.765,-403.762"/>
</g>
<!-- Node4 -->
<g id="node4" class="node"><title>Node4</title>
<g id="a_node4"><a xlink:href="a00046.html" target="_top" xlink:title="connected&#45;component.hh">
<polygon fill="white" stroke="black" points="138,-336.5 138,-355.5 264,-355.5 264,-336.5 138,-336.5"/>
<text text-anchor="middle" x="201" y="-343.5" font-family="Helvetica,sans-Serif" font-size="10.00">connected&#45;component.hh</text>
</a>
</g>
</g>
<!-- Node1&#45;&gt;Node4 -->
<g id="edge3" class="edge"><title>Node1&#45;&gt;Node4</title>
<path fill="none" stroke="midnightblue" d="M765.828,-398.484C683.296,-392.15 462.093,-374.705 278,-356 273.447,-355.537 268.746,-355.039 264.015,-354.522"/>
<polygon fill="midnightblue" stroke="midnightblue" points="765.629,-401.979 775.867,-399.253 766.163,-395 765.629,-401.979"/>
</g>
<!-- Node5 -->
<g id="node5" class="node"><title>Node5</title>
<g id="a_node5"><a xlink:href="a00063.html" target="_top" xlink:title="roadmap&#45;node.hh">
<polygon fill="white" stroke="black" points="210,-280.5 210,-299.5 302,-299.5 302,-280.5 210,-280.5"/>
<text text-anchor="middle" x="256" y="-287.5" font-family="Helvetica,sans-Serif" font-size="10.00">roadmap&#45;node.hh</text>
</a>
</g>
</g>
<!-- Node1&#45;&gt;Node5 -->
<g id="edge37" class="edge"><title>Node1&#45;&gt;Node5</title>
<path fill="none" stroke="midnightblue" d="M765.705,-400.961C669.899,-400.372 395.327,-395.217 316,-356 290.118,-343.205 269.892,-314.148 260.973,-299.614"/>
<polygon fill="midnightblue" stroke="midnightblue" points="765.947,-404.462 775.964,-401.01 765.981,-397.462 765.947,-404.462"/>
</g>
<!-- Node6 -->
<g id="node6" class="node"><title>Node6</title>
<g id="a_node6"><a xlink:href="a00066.html" target="_top" xlink:title="statistics.hh">
<polygon fill="white" stroke="black" points="270,-112.5 270,-131.5 340,-131.5 340,-112.5 270,-112.5"/>
<text text-anchor="middle" x="305" y="-119.5" font-family="Helvetica,sans-Serif" font-size="10.00">statistics.hh</text>
</a>
</g>
</g>
<!-- Node1&#45;&gt;Node6 -->
<g id="edge36" class="edge"><title>Node1&#45;&gt;Node6</title>
<path fill="none" stroke="midnightblue" d="M765.707,-399.648C667.922,-395.399 386.399,-381.09 354,-356 329.652,-337.145 330,-321.795 330,-291 330,-291 330,-291 330,-233 330,-194.419 315.196,-150.077 308.372,-131.687"/>
<polygon fill="midnightblue" stroke="midnightblue" points="765.766,-403.153 775.906,-400.083 766.065,-396.16 765.766,-403.153"/>
</g>
<!-- Node7 -->
<g id="node7" class="node"><title>Node7</title>
<g id="a_node7"><a xlink:href="a00060.html" target="_top" xlink:title="manipulation&#45;planner.hh">
<polygon fill="white" stroke="black" points="308.5,-56.5 308.5,-75.5 427.5,-75.5 427.5,-56.5 308.5,-56.5"/>
<text text-anchor="middle" x="368" y="-63.5" font-family="Helvetica,sans-Serif" font-size="10.00">manipulation&#45;planner.hh</text>
</a>
</g>
</g>
<!-- Node1&#45;&gt;Node7 -->
<g id="edge43" class="edge"><title>Node1&#45;&gt;Node7</title>
<path fill="none" stroke="midnightblue" d="M765.83,-399.262C688.889,-394.839 500.454,-381.651 443,-356 402.722,-338.017 368,-335.11 368,-291 368,-291 368,-291 368,-177 368,-139.188 368,-94.0636 368,-75.5578"/>
<polygon fill="midnightblue" stroke="midnightblue" points="765.741,-402.762 775.922,-399.828 766.134,-395.773 765.741,-402.762"/>
</g>
<!-- Node8 -->
<g id="node8" class="node"><title>Node8</title>
<g id="a_node8"><a xlink:href="a00064.html" target="_top" xlink:title="roadmap.hh">
<polygon fill="white" stroke="black" points="149,-56.5 149,-75.5 217,-75.5 217,-56.5 149,-56.5"/>
<text text-anchor="middle" x="183" y="-63.5" font-family="Helvetica,sans-Serif" font-size="10.00">roadmap.hh</text>
</a>
</g>
</g>
<!-- Node1&#45;&gt;Node8 -->
<g id="edge47" class="edge"><title>Node1&#45;&gt;Node8</title>
<path fill="none" stroke="midnightblue" d="M765.629,-400.962C637.122,-400.52 178.948,-396.122 129,-356 105.535,-337.151 110,-321.098 110,-291 110,-291 110,-291 110,-177 110,-132.764 151.491,-92.7066 171.913,-75.6696"/>
<polygon fill="midnightblue" stroke="midnightblue" points="765.659,-404.462 775.669,-400.99 765.679,-397.462 765.659,-404.462"/>
</g>
<!-- Node9 -->
<g id="node9" class="node"><title>Node9</title>
<g id="a_node9"><a xlink:href="a00005.html" target="_top" xlink:title="constraint&#45;set.hh">
<polygon fill="white" stroke="black" points="1082.5,-336.5 1082.5,-355.5 1171.5,-355.5 1171.5,-336.5 1082.5,-336.5"/>
<text text-anchor="middle" x="1127" y="-343.5" font-family="Helvetica,sans-Serif" font-size="10.00">constraint&#45;set.hh</text>
</a>
</g>
</g>
<!-- Node1&#45;&gt;Node9 -->
<g id="edge8" class="edge"><title>Node1&#45;&gt;Node9</title>
<path fill="none" stroke="midnightblue" d="M832.002,-395.567C891.234,-385.815 1015.61,-365.338 1082.38,-354.346"/>
<polygon fill="midnightblue" stroke="midnightblue" points="831.363,-392.125 822.064,-397.203 832.5,-399.032 831.363,-392.125"/>
</g>
<!-- Node10 -->
<g id="node10" class="node"><title>Node10</title>
<g id="a_node10"><a xlink:href="a00051.html" target="_top" xlink:title="graph&#45;node&#45;optimizer.hh">
<polygon fill="white" stroke="black" points="1072.5,-280.5 1072.5,-299.5 1193.5,-299.5 1193.5,-280.5 1072.5,-280.5"/>
<text text-anchor="middle" x="1133" y="-287.5" font-family="Helvetica,sans-Serif" font-size="10.00">graph&#45;node&#45;optimizer.hh</text>
</a>
</g>
</g>
<!-- Node1&#45;&gt;Node10 -->
<g id="edge38" class="edge"><title>Node1&#45;&gt;Node10</title>
<path fill="none" stroke="midnightblue" d="M832.06,-398.422C877.895,-393.996 962.703,-382.698 1030,-356 1066.56,-341.497 1104.37,-313.756 1122.31,-299.669"/>
<polygon fill="midnightblue" stroke="midnightblue" points="831.724,-394.938 822.085,-399.336 832.362,-401.909 831.724,-394.938"/>
</g>
<!-- Node11 -->
<g id="node11" class="node"><title>Node11</title>
<g id="a_node11"><a xlink:href="a00052.html" target="_top" xlink:title="graph&#45;optimizer.hh">
<polygon fill="white" stroke="black" points="1211.5,-280.5 1211.5,-299.5 1308.5,-299.5 1308.5,-280.5 1211.5,-280.5"/>
<text text-anchor="middle" x="1260" y="-287.5" font-family="Helvetica,sans-Serif" font-size="10.00">graph&#45;optimizer.hh</text>
</a>
</g>
</g>
<!-- Node1&#45;&gt;Node11 -->
<g id="edge39" class="edge"><title>Node1&#45;&gt;Node11</title>
<path fill="none" stroke="midnightblue" d="M832.209,-399.449C912.945,-395.303 1117.47,-382.433 1180,-356 1210.99,-342.9 1239.61,-313.986 1252.62,-299.549"/>
<polygon fill="midnightblue" stroke="midnightblue" points="831.919,-395.959 822.107,-399.955 832.269,-402.95 831.919,-395.959"/>
</g>
<!-- Node12 -->
<g id="node12" class="node"><title>Node12</title>
<g id="a_node12"><a xlink:href="a00002.html" target="_top" xlink:title="device.hh">
<polygon fill="white" stroke="black" points="922.5,-336.5 922.5,-355.5 981.5,-355.5 981.5,-336.5 922.5,-336.5"/>
<text text-anchor="middle" x="952" y="-343.5" font-family="Helvetica,sans-Serif" font-size="10.00">device.hh</text>
</a>
</g>
</g>
<!-- Node1&#45;&gt;Node12 -->
<g id="edge11" class="edge"><title>Node1&#45;&gt;Node12</title>
<path fill="none" stroke="midnightblue" d="M831.865,-389.401C860.676,-379.232 901.891,-364.685 927.784,-355.547"/>
<polygon fill="midnightblue" stroke="midnightblue" points="830.502,-386.17 822.237,-392.799 832.832,-392.771 830.502,-386.17"/>
</g>
<!-- Node13 -->
<g id="node13" class="node"><title>Node13</title>
<g id="a_node13"><a xlink:href="a00006.html" target="_top" xlink:title="problem.hh">
<polygon fill="white" stroke="black" points="823.5,-56.5 823.5,-75.5 888.5,-75.5 888.5,-56.5 823.5,-56.5"/>
<text text-anchor="middle" x="856" y="-63.5" font-family="Helvetica,sans-Serif" font-size="10.00">problem.hh</text>
</a>
</g>
</g>
<!-- Node1&#45;&gt;Node13 -->
<g id="edge42" class="edge"><title>Node1&#45;&gt;Node13</title>
<path fill="none" stroke="midnightblue" d="M813.79,-384.703C830.679,-364.343 856,-327.7 856,-291 856,-291 856,-291 856,-177 856,-139.188 856,-94.0636 856,-75.5578"/>
<polygon fill="midnightblue" stroke="midnightblue" points="811.046,-382.525 807.167,-392.384 816.348,-387.096 811.046,-382.525"/>
</g>
<!-- Node14 -->
<g id="node14" class="node"><title>Node14</title>
<g id="a_node14"><a xlink:href="a00054.html" target="_top" xlink:title="graph&#45;steering&#45;method.hh">
<polygon fill="white" stroke="black" points="886.5,-0.5 886.5,-19.5 1013.5,-19.5 1013.5,-0.5 886.5,-0.5"/>
<text text-anchor="middle" x="950" y="-7.5" font-family="Helvetica,sans-Serif" font-size="10.00">graph&#45;steering&#45;method.hh</text>
</a>
</g>
</g>
<!-- Node1&#45;&gt;Node14 -->
<g id="edge41" class="edge"><title>Node1&#45;&gt;Node14</title>
<path fill="none" stroke="midnightblue" d="M832.264,-401.717C873.753,-400.869 944.726,-393.459 990,-356 1035.37,-318.459 1044,-293.89 1044,-235 1044,-235 1044,-235 1044,-121 1044,-73.2715 992.221,-35.7973 965.522,-19.6471"/>
<polygon fill="midnightblue" stroke="midnightblue" points="832.105,-398.218 822.136,-401.805 832.166,-405.218 832.105,-398.218"/>
</g>
<!-- Node15 -->
<g id="node15" class="node"><title>Node15</title>
<g id="a_node15"><a xlink:href="a00062.html" target="_top" xlink:title="problem&#45;solver.hh">
<polygon fill="white" stroke="black" points="884,-280.5 884,-299.5 978,-299.5 978,-280.5 884,-280.5"/>
<text text-anchor="middle" x="931" y="-287.5" font-family="Helvetica,sans-Serif" font-size="10.00">problem&#45;solver.hh</text>
</a>
</g>
</g>
<!-- Node1&#45;&gt;Node15 -->
<g id="edge46" class="edge"><title>Node1&#45;&gt;Node15</title>
<path fill="none" stroke="midnightblue" d="M823.714,-387.423C837.864,-379.15 855.609,-367.902 870,-356 891.705,-338.049 913.379,-312.769 924.096,-299.654"/>
<polygon fill="midnightblue" stroke="midnightblue" points="821.947,-384.402 815.007,-392.407 825.424,-390.477 821.947,-384.402"/>
</g>
<!-- Node16 -->
<g id="node16" class="node"><title>Node16</title>
<g id="a_node16"><a xlink:href="a00048.html" target="_top" xlink:title="edge.hh">
<polygon fill="white" stroke="black" points="624.5,-224.5 624.5,-243.5 675.5,-243.5 675.5,-224.5 624.5,-224.5"/>
<text text-anchor="middle" x="650" y="-231.5" font-family="Helvetica,sans-Serif" font-size="10.00">edge.hh</text>
</a>
</g>
</g>
<!-- Node1&#45;&gt;Node16 -->
<g id="edge15" class="edge"><title>Node1&#45;&gt;Node16</title>
<path fill="none" stroke="midnightblue" d="M765.614,-398.421C714.221,-393.679 619.497,-381.621 599,-356 570.091,-319.864 619.099,-264.953 640.63,-243.765"/>
<polygon fill="midnightblue" stroke="midnightblue" points="765.613,-401.934 775.881,-399.324 766.226,-394.961 765.613,-401.934"/>
</g>
<!-- Node17 -->
<g id="node17" class="node"><title>Node17</title>
<g id="a_node17"><a xlink:href="a00003.html" target="_top" xlink:title="node.hh">
<polygon fill="white" stroke="black" points="642.5,-168.5 642.5,-187.5 693.5,-187.5 693.5,-168.5 642.5,-168.5"/>
<text text-anchor="middle" x="668" y="-175.5" font-family="Helvetica,sans-Serif" font-size="10.00">node.hh</text>
</a>
</g>
</g>
<!-- Node1&#45;&gt;Node17 -->
<g id="edge34" class="edge"><title>Node1&#45;&gt;Node17</title>
<path fill="none" stroke="midnightblue" d="M785.709,-384.253C779.403,-375.973 771.962,-365.697 766,-356 731.543,-299.953 732.626,-280.549 699,-224 691.242,-210.953 681.072,-196.637 674.536,-187.734"/>
<polygon fill="midnightblue" stroke="midnightblue" points="783.086,-386.581 791.983,-392.333 788.615,-382.288 783.086,-386.581"/>
</g>
<!-- Node18 -->
<g id="node18" class="node"><title>Node18</title>
<g id="a_node18"><a xlink:href="a00061.html" target="_top" xlink:title="node&#45;selector.hh">
<polygon fill="white" stroke="black" points="478.5,-112.5 478.5,-131.5 567.5,-131.5 567.5,-112.5 478.5,-112.5"/>
<text text-anchor="middle" x="523" y="-119.5" font-family="Helvetica,sans-Serif" font-size="10.00">node&#45;selector.hh</text>
</a>
</g>
</g>
<!-- Node1&#45;&gt;Node18 -->
<g id="edge33" class="edge"><title>Node1&#45;&gt;Node18</title>
<path fill="none" stroke="midnightblue" d="M765.698,-398.843C670.835,-391.794 406,-365.447 406,-291 406,-291 406,-291 406,-233 406,-181.143 467.763,-146.572 501.54,-131.544"/>
<polygon fill="midnightblue" stroke="midnightblue" points="765.658,-402.349 775.883,-399.573 766.159,-395.367 765.658,-402.349"/>
</g>
<!-- Node19 -->
<g id="node19" class="node"><title>Node19</title>
<g id="a_node19"><a xlink:href="a00056.html" target="_top" xlink:title="guided&#45;node&#45;selector.hh">
<polygon fill="white" stroke="black" points="574,-56.5 574,-75.5 694,-75.5 694,-56.5 574,-56.5"/>
<text text-anchor="middle" x="634" y="-63.5" font-family="Helvetica,sans-Serif" font-size="10.00">guided&#45;node&#45;selector.hh</text>
</a>
</g>
</g>
<!-- Node1&#45;&gt;Node19 -->
<g id="edge32" class="edge"><title>Node1&#45;&gt;Node19</title>
<path fill="none" stroke="midnightblue" d="M793.784,-382.39C788.159,-360.65 780,-323.511 780,-291 780,-291 780,-291 780,-177 780,-146.356 778.553,-133.784 757,-112 738.128,-92.9268 710.521,-81.8759 686.241,-75.504"/>
<polygon fill="midnightblue" stroke="midnightblue" points="790.459,-383.502 796.438,-392.249 797.218,-381.683 790.459,-383.502"/>
</g>
<!-- Node20 -->
<g id="node20" class="node"><title>Node20</title>
<g id="a_node20"><a xlink:href="a00053.html" target="_top" xlink:title="graph&#45;path&#45;validation.hh">
<polygon fill="white" stroke="black" points="629,-112.5 629,-131.5 749,-131.5 749,-112.5 629,-112.5"/>
<text text-anchor="middle" x="689" y="-119.5" font-family="Helvetica,sans-Serif" font-size="10.00">graph&#45;path&#45;validation.hh</text>
</a>
</g>
</g>
<!-- Node1&#45;&gt;Node20 -->
<g id="edge40" class="edge"><title>Node1&#45;&gt;Node20</title>
<path fill="none" stroke="midnightblue" d="M804.216,-382.39C809.841,-360.65 818,-323.511 818,-291 818,-291 818,-291 818,-233 818,-179.138 752.081,-146.072 714.486,-131.593"/>
<polygon fill="midnightblue" stroke="midnightblue" points="800.782,-381.683 801.562,-392.249 807.541,-383.502 800.782,-381.683"/>
</g>
<!-- Node21 -->
<g id="node21" class="node"><title>Node21</title>
<g id="a_node21"><a xlink:href="a00055.html" target="_top" xlink:title="graph.hh">
<polygon fill="white" stroke="black" points="498,-280.5 498,-299.5 552,-299.5 552,-280.5 498,-280.5"/>
<text text-anchor="middle" x="525" y="-287.5" font-family="Helvetica,sans-Serif" font-size="10.00">graph.hh</text>
</a>
</g>
</g>
<!-- Node1&#45;&gt;Node21 -->
<g id="edge22" class="edge"><title>Node1&#45;&gt;Node21</title>
<path fill="none" stroke="midnightblue" d="M765.507,-397.82C709.07,-391.93 598.037,-377.89 566,-356 545.51,-342 533.151,-314.03 527.924,-299.782"/>
<polygon fill="midnightblue" stroke="midnightblue" points="765.4,-401.327 775.703,-398.857 766.109,-394.363 765.4,-401.327"/>
</g>
<!-- Node22 -->
<g id="node22" class="node"><title>Node22</title>
<g id="a_node22"><a xlink:href="a00050.html" target="_top" xlink:title="graph&#45;component.hh">
<polygon fill="white" stroke="black" points="608.5,-336.5 608.5,-355.5 713.5,-355.5 713.5,-336.5 608.5,-336.5"/>
<text text-anchor="middle" x="661" y="-343.5" font-family="Helvetica,sans-Serif" font-size="10.00">graph&#45;component.hh</text>
</a>
</g>
</g>
<!-- Node1&#45;&gt;Node22 -->
<g id="edge29" class="edge"><title>Node1&#45;&gt;Node22</title>
<path fill="none" stroke="midnightblue" d="M767.751,-388.772C741.829,-378.629 705.638,-364.467 682.764,-355.516"/>
<polygon fill="midnightblue" stroke="midnightblue" points="766.546,-392.059 777.133,-392.444 769.096,-385.54 766.546,-392.059"/>
</g>
<!-- Node23 -->
<g id="node23" class="node"><title>Node23</title>
<g id="a_node23"><a xlink:href="a00058.html" target="_top" xlink:title="helper.hh">
<polygon fill="white" stroke="black" points="1228,-336.5 1228,-355.5 1284,-355.5 1284,-336.5 1228,-336.5"/>
<text text-anchor="middle" x="1256" y="-343.5" font-family="Helvetica,sans-Serif" font-size="10.00">helper.hh</text>
</a>
</g>
</g>
<!-- Node1&#45;&gt;Node23 -->
<g id="edge35" class="edge"><title>Node1&#45;&gt;Node23</title>
<path fill="none" stroke="midnightblue" d="M832.112,-398.576C902.64,-393.157 1072.78,-378.725 1214,-356 1218.42,-355.289 1223.07,-354.417 1227.61,-353.499"/>
<polygon fill="midnightblue" stroke="midnightblue" points="831.762,-395.092 822.056,-399.339 832.292,-402.072 831.762,-395.092"/>
</g>
<!-- Node24 -->
<g id="node24" class="node"><title>Node24</title>
<g id="a_node24"><a xlink:href="a00045.html" target="_top" xlink:title="config&#45;optimization.hh">
<polygon fill="white" stroke="black" points="1302,-336.5 1302,-355.5 1414,-355.5 1414,-336.5 1302,-336.5"/>
<text text-anchor="middle" x="1358" y="-343.5" font-family="Helvetica,sans-Serif" font-size="10.00">config&#45;optimization.hh</text>
</a>
</g>
</g>
<!-- Node1&#45;&gt;Node24 -->
<g id="edge44" class="edge"><title>Node1&#45;&gt;Node24</title>
<path fill="none" stroke="midnightblue" d="M832.529,-398.457C912.278,-392.297 1119.5,-375.624 1292,-356 1295.22,-355.634 1298.52,-355.24 1301.85,-354.83"/>
<polygon fill="midnightblue" stroke="midnightblue" points="831.841,-395 822.139,-399.256 832.378,-401.979 831.841,-395"/>
</g>
<!-- Node25 -->
<g id="node25" class="node"><title>Node25</title>
<g id="a_node25"><a xlink:href="a00065.html" target="_top" xlink:title="small&#45;steps.hh">
<polygon fill="white" stroke="black" points="1432,-336.5 1432,-355.5 1512,-355.5 1512,-336.5 1432,-336.5"/>
<text text-anchor="middle" x="1472" y="-343.5" font-family="Helvetica,sans-Serif" font-size="10.00">small&#45;steps.hh</text>
</a>
</g>
</g>
<!-- Node1&#45;&gt;Node25 -->
<g id="edge45" class="edge"><title>Node1&#45;&gt;Node25</title>
<path fill="none" stroke="midnightblue" d="M832.546,-399.828C926.135,-396.291 1197.93,-384.178 1422,-356 1425.24,-355.593 1428.58,-355.115 1431.94,-354.596"/>
<polygon fill="midnightblue" stroke="midnightblue" points="832.145,-396.341 822.282,-400.209 832.405,-403.336 832.145,-396.341"/>
</g>
<!-- Node26 -->
<g id="node26" class="node"><title>Node26</title>
<g id="a_node26"><a xlink:href="a00004.html" target="_top" xlink:title="weighed&#45;distance.hh">
<polygon fill="white" stroke="black" points="1530,-336.5 1530,-355.5 1636,-355.5 1636,-336.5 1530,-336.5"/>
<text text-anchor="middle" x="1583" y="-343.5" font-family="Helvetica,sans-Serif" font-size="10.00">weighed&#45;distance.hh</text>
</a>
</g>
</g>
<!-- Node1&#45;&gt;Node26 -->
<g id="edge48" class="edge"><title>Node1&#45;&gt;Node26</title>
<path fill="none" stroke="midnightblue" d="M832.187,-399.9C934.829,-396.289 1256.17,-383.428 1521,-356 1523.92,-355.697 1526.92,-355.359 1529.94,-354.995"/>
<polygon fill="midnightblue" stroke="midnightblue" points="831.996,-396.404 822.124,-400.248 832.239,-403.4 831.996,-396.404"/>
</g>
<!-- Node3 -->
<g id="node3" class="node"><title>Node3</title>
<g id="a_node3"><a xlink:href="a00044.html" target="_top" xlink:title="axial&#45;handle.hh">
<polygon fill="white" stroke="black" points="0,-280.5 0,-299.5 82,-299.5 82,-280.5 0,-280.5"/>
<text text-anchor="middle" x="41" y="-287.5" font-family="Helvetica,sans-Serif" font-size="10.00">axial&#45;handle.hh</text>
</a>
</g>
</g>
<!-- Node2&#45;&gt;Node3 -->
<g id="edge2" class="edge"><title>Node2&#45;&gt;Node3</title>
<path fill="none" stroke="midnightblue" d="M44.9001,-326.101C43.904,-317.136 42.762,-306.858 41.9723,-299.751"/>
<polygon fill="midnightblue" stroke="midnightblue" points="41.4262,-326.531 46.0092,-336.083 48.3834,-325.758 41.4262,-326.531"/>
</g>
<!-- Node4&#45;&gt;Node5 -->
<g id="edge4" class="edge"><title>Node4&#45;&gt;Node5</title>
<path fill="none" stroke="midnightblue" d="M217.294,-329.002C227.041,-319.433 239.053,-307.639 247.087,-299.751"/>
<polygon fill="midnightblue" stroke="midnightblue" points="214.766,-326.58 210.082,-336.083 219.67,-331.575 214.766,-326.58"/>
</g>
<!-- Node5&#45;&gt;Node6 -->
<g id="edge5" class="edge"><title>Node5&#45;&gt;Node6</title>
<path fill="none" stroke="midnightblue" d="M261.492,-270.395C272.062,-234.585 294.863,-157.342 302.471,-131.568"/>
<polygon fill="midnightblue" stroke="midnightblue" points="258.109,-269.493 258.634,-280.075 264.822,-271.475 258.109,-269.493"/>
</g>
<!-- Node6&#45;&gt;Node7 -->
<g id="edge6" class="edge"><title>Node6&#45;&gt;Node7</title>
<path fill="none" stroke="midnightblue" d="M323.04,-105.537C334.273,-95.9087 348.319,-83.8694 357.694,-75.8339"/>
<polygon fill="midnightblue" stroke="midnightblue" points="320.437,-103.159 315.122,-112.324 324.992,-108.473 320.437,-103.159"/>
</g>
<!-- Node6&#45;&gt;Node8 -->
<g id="edge7" class="edge"><title>Node6&#45;&gt;Node8</title>
<path fill="none" stroke="midnightblue" d="M276.461,-108.368C253.614,-98.2553 222.195,-84.3486 202.241,-75.5164"/>
<polygon fill="midnightblue" stroke="midnightblue" points="275.108,-111.597 285.669,-112.444 277.941,-105.196 275.108,-111.597"/>
</g>
<!-- Node9&#45;&gt;Node10 -->
<g id="edge9" class="edge"><title>Node9&#45;&gt;Node10</title>
<path fill="none" stroke="midnightblue" d="M1129.1,-326.101C1130.1,-317.136 1131.24,-306.858 1132.03,-299.751"/>
<polygon fill="midnightblue" stroke="midnightblue" points="1125.62,-325.758 1127.99,-336.083 1132.57,-326.531 1125.62,-325.758"/>
</g>
<!-- Node9&#45;&gt;Node11 -->
<g id="edge10" class="edge"><title>Node9&#45;&gt;Node11</title>
<path fill="none" stroke="midnightblue" d="M1157.45,-332.638C1182.41,-322.504 1217.08,-308.427 1239.02,-299.516"/>
<polygon fill="midnightblue" stroke="midnightblue" points="1156.02,-329.439 1148.07,-336.444 1158.66,-335.924 1156.02,-329.439"/>
</g>
<!-- Node12&#45;&gt;Node13 -->
<g id="edge12" class="edge"><title>Node12&#45;&gt;Node13</title>
<path fill="none" stroke="midnightblue" d="M967.04,-328.781C973.929,-320.642 981.716,-310.333 987,-300 1000.7,-273.203 1006,-265.098 1006,-235 1006,-235 1006,-235 1006,-177 1006,-119.195 932.664,-88.4467 888.548,-75.1795"/>
<polygon fill="midnightblue" stroke="midnightblue" points="964.321,-326.572 960.33,-336.386 969.571,-331.203 964.321,-326.572"/>
</g>
<!-- Node12&#45;&gt;Node15 -->
<g id="edge14" class="edge"><title>Node12&#45;&gt;Node15</title>
<path fill="none" stroke="midnightblue" d="M944.879,-326.69C941.34,-317.589 937.228,-307.014 934.403,-299.751"/>
<polygon fill="midnightblue" stroke="midnightblue" points="941.646,-328.032 948.532,-336.083 948.17,-325.494 941.646,-328.032"/>
</g>
<!-- Node13&#45;&gt;Node14 -->
<g id="edge13" class="edge"><title>Node13&#45;&gt;Node14</title>
<path fill="none" stroke="midnightblue" d="M880.062,-51.1774C897.359,-41.2407 920.148,-28.1492 934.935,-19.6545"/>
<polygon fill="midnightblue" stroke="midnightblue" points="878.03,-48.3078 871.103,-56.324 881.517,-54.3775 878.03,-48.3078"/>
</g>
<!-- Node16&#45;&gt;Node17 -->
<g id="edge16" class="edge"><title>Node16&#45;&gt;Node17</title>
<path fill="none" stroke="midnightblue" d="M656.201,-214.396C659.213,-205.362 662.688,-194.936 665.083,-187.751"/>
<polygon fill="midnightblue" stroke="midnightblue" points="652.814,-213.489 652.972,-224.083 659.455,-215.703 652.814,-213.489"/>
</g>
<!-- Node17&#45;&gt;Node6 -->
<g id="edge19" class="edge"><title>Node17&#45;&gt;Node6</title>
<path fill="none" stroke="midnightblue" d="M632.44,-171.71C562.83,-161.355 409.346,-138.523 340.104,-128.222"/>
<polygon fill="midnightblue" stroke="midnightblue" points="632.068,-175.193 642.475,-173.203 633.098,-168.269 632.068,-175.193"/>
</g>
<!-- Node17&#45;&gt;Node18 -->
<g id="edge17" class="edge"><title>Node17&#45;&gt;Node18</title>
<path fill="none" stroke="midnightblue" d="M635.525,-164.906C608.264,-154.754 570.008,-140.506 545.868,-131.516"/>
<polygon fill="midnightblue" stroke="midnightblue" points="634.432,-168.233 645.024,-168.444 636.875,-161.674 634.432,-168.233"/>
</g>
<!-- Node17&#45;&gt;Node20 -->
<g id="edge20" class="edge"><title>Node17&#45;&gt;Node20</title>
<path fill="none" stroke="midnightblue" d="M675.121,-158.69C678.66,-149.589 682.772,-139.014 685.597,-131.751"/>
<polygon fill="midnightblue" stroke="midnightblue" points="671.83,-157.494 671.468,-168.083 678.354,-160.032 671.83,-157.494"/>
</g>
<!-- Node18&#45;&gt;Node19 -->
<g id="edge18" class="edge"><title>Node18&#45;&gt;Node19</title>
<path fill="none" stroke="midnightblue" d="M550.005,-107.862C570.588,-97.8492 598.345,-84.3458 616.21,-75.6545"/>
<polygon fill="midnightblue" stroke="midnightblue" points="548.295,-104.802 540.834,-112.324 551.358,-111.097 548.295,-104.802"/>
</g>
<!-- Node20&#45;&gt;Node13 -->
<g id="edge21" class="edge"><title>Node20&#45;&gt;Node13</title>
<path fill="none" stroke="midnightblue" d="M725.17,-109.304C756.637,-99.1294 801.494,-84.6246 829.662,-75.5164"/>
<polygon fill="midnightblue" stroke="midnightblue" points="723.9,-106.037 715.462,-112.444 726.053,-112.697 723.9,-106.037"/>
</g>
<!-- Node21&#45;&gt;Node6 -->
<g id="edge25" class="edge"><title>Node21&#45;&gt;Node6</title>
<path fill="none" stroke="midnightblue" d="M505.419,-274.225C460.639,-240.437 351.889,-158.38 316.404,-131.605"/>
<polygon fill="midnightblue" stroke="midnightblue" points="503.391,-277.08 513.482,-280.309 507.607,-271.492 503.391,-277.08"/>
</g>
<!-- Node21&#45;&gt;Node7 -->
<g id="edge28" class="edge"><title>Node21&#45;&gt;Node7</title>
<path fill="none" stroke="midnightblue" d="M512.979,-272.002C481.578,-227.601 397.896,-109.273 374.283,-75.8837"/>
<polygon fill="midnightblue" stroke="midnightblue" points="510.214,-274.154 518.845,-280.297 515.929,-270.112 510.214,-274.154"/>
</g>
<!-- Node21&#45;&gt;Node13 -->
<g id="edge27" class="edge"><title>Node21&#45;&gt;Node13</title>
<path fill="none" stroke="midnightblue" d="M532.35,-270.895C549.281,-230.062 591.742,-132.747 620,-112 651.941,-88.5494 766.468,-75.1204 823.398,-69.7547"/>
<polygon fill="midnightblue" stroke="midnightblue" points="529.01,-269.813 528.451,-280.393 535.486,-272.471 529.01,-269.813"/>
</g>
<!-- Node21&#45;&gt;Node16 -->
<g id="edge23" class="edge"><title>Node21&#45;&gt;Node16</title>
<path fill="none" stroke="midnightblue" d="M554.241,-276.368C577.65,-266.255 609.841,-252.349 630.286,-243.516"/>
<polygon fill="midnightblue" stroke="midnightblue" points="552.599,-273.265 544.807,-280.444 555.375,-279.691 552.599,-273.265"/>
</g>
<!-- Node21&#45;&gt;Node18 -->
<g id="edge24" class="edge"><title>Node21&#45;&gt;Node18</title>
<path fill="none" stroke="midnightblue" d="M524.77,-269.93C524.336,-233.92 523.412,-157.231 523.103,-131.568"/>
<polygon fill="midnightblue" stroke="midnightblue" points="521.272,-270.118 524.892,-280.075 528.272,-270.034 521.272,-270.118"/>
</g>
<!-- Node21&#45;&gt;Node20 -->
<g id="edge26" class="edge"><title>Node21&#45;&gt;Node20</title>
<path fill="none" stroke="midnightblue" d="M542.076,-273.602C551.217,-265.126 562.515,-254.27 572,-244 601.577,-211.977 603.198,-198.846 634,-168 647.774,-154.206 665.496,-140.298 677.046,-131.671"/>
<polygon fill="midnightblue" stroke="midnightblue" points="539.705,-271.027 534.697,-280.363 544.435,-276.188 539.705,-271.027"/>
</g>
<!-- Node22&#45;&gt;Node17 -->
<g id="edge31" class="edge"><title>Node22&#45;&gt;Node17</title>
<path fill="none" stroke="midnightblue" d="M668.601,-326.765C677.509,-303.111 690.304,-260.547 684,-224 681.745,-210.926 676.059,-196.617 672.111,-187.723"/>
<polygon fill="midnightblue" stroke="midnightblue" points="665.287,-325.627 664.864,-336.213 671.797,-328.201 665.287,-325.627"/>
</g>
<!-- Node22&#45;&gt;Node21 -->
<g id="edge30" class="edge"><title>Node22&#45;&gt;Node21</title>
<path fill="none" stroke="midnightblue" d="M629.865,-332.638C604.343,-322.504 568.891,-308.427 546.449,-299.516"/>
<polygon fill="midnightblue" stroke="midnightblue" points="628.865,-336.006 639.45,-336.444 631.448,-329.5 628.865,-336.006"/>
</g>
</g>
</svg>
