<?xml version="1.0" encoding="UTF-8" standalone="no"?>
<!DOCTYPE svg PUBLIC "-//W3C//DTD SVG 1.1//EN"
 "http://www.w3.org/Graphics/SVG/1.1/DTD/svg11.dtd">
<!-- Generated by graphviz version 2.36.0 (20140111.2315)
 -->
<!-- Title: device.hh Pages: 1 -->
<svg width="216pt" height="140pt"
 viewBox="0.00 0.00 216.00 140.00" xmlns="http://www.w3.org/2000/svg" xmlns:xlink="http://www.w3.org/1999/xlink">
<g id="graph0" class="graph" transform="scale(1 1) rotate(0) translate(4 136)">
<title>device.hh</title>
<polygon fill="white" stroke="none" points="-4,4 -4,-136 212,-136 212,4 -4,4"/>
<!-- Node1 -->
<g id="node1" class="node"><title>Node1</title>
<polygon fill="#bfbfbf" stroke="black" points="82.5,-112.5 82.5,-131.5 141.5,-131.5 141.5,-112.5 82.5,-112.5"/>
<text text-anchor="middle" x="112" y="-119.5" font-family="Helvetica,sans-Serif" font-size="10.00">device.hh</text>
</g>
<!-- Node2 -->
<g id="node2" class="node"><title>Node2</title>
<g id="a_node2"><a xlink:href="a00006.html" target="_top" xlink:title="problem.hh">
<polygon fill="white" stroke="black" points="30.5,-56.5 30.5,-75.5 95.5,-75.5 95.5,-56.5 30.5,-56.5"/>
<text text-anchor="middle" x="63" y="-63.5" font-family="Helvetica,sans-Serif" font-size="10.00">problem.hh</text>
</a>
</g>
</g>
<!-- Node1&#45;&gt;Node2 -->
<g id="edge1" class="edge"><title>Node1&#45;&gt;Node2</title>
<path fill="none" stroke="midnightblue" d="M96.9655,-104.431C88.3778,-94.9673 77.9565,-83.4827 70.9408,-75.7511"/>
<polygon fill="midnightblue" stroke="midnightblue" points="94.5967,-107.029 103.909,-112.083 99.7807,-102.325 94.5967,-107.029"/>
</g>
<!-- Node4 -->
<g id="node4" class="node"><title>Node4</title>
<g id="a_node4"><a xlink:href="a00062.html" target="_top" xlink:title="problem&#45;solver.hh">
<polygon fill="white" stroke="black" points="114,-56.5 114,-75.5 208,-75.5 208,-56.5 114,-56.5"/>
<text text-anchor="middle" x="161" y="-63.5" font-family="Helvetica,sans-Serif" font-size="10.00">problem&#45;solver.hh</text>
</a>
</g>
</g>
<!-- Node1&#45;&gt;Node4 -->
<g id="edge3" class="edge"><title>Node1&#45;&gt;Node4</title>
<path fill="none" stroke="midnightblue" d="M127.034,-104.431C135.622,-94.9673 146.043,-83.4827 153.059,-75.7511"/>
<polygon fill="midnightblue" stroke="midnightblue" points="124.219,-102.325 120.091,-112.083 129.403,-107.029 124.219,-102.325"/>
</g>
<!-- Node3 -->
<g id="node3" class="node"><title>Node3</title>
<g id="a_node3"><a xlink:href="a00054.html" target="_top" xlink:title="graph&#45;steering&#45;method.hh">
<polygon fill="white" stroke="black" points="-0.5,-0.5 -0.5,-19.5 126.5,-19.5 126.5,-0.5 -0.5,-0.5"/>
<text text-anchor="middle" x="63" y="-7.5" font-family="Helvetica,sans-Serif" font-size="10.00">graph&#45;steering&#45;method.hh</text>
</a>
</g>
</g>
<!-- Node2&#45;&gt;Node3 -->
<g id="edge2" class="edge"><title>Node2&#45;&gt;Node3</title>
<path fill="none" stroke="midnightblue" d="M63,-45.8045C63,-36.9102 63,-26.7798 63,-19.7511"/>
<polygon fill="midnightblue" stroke="midnightblue" points="59.5001,-46.083 63,-56.083 66.5001,-46.083 59.5001,-46.083"/>
</g>
</g>
</svg>
