<?xml version="1.0" encoding="UTF-8" standalone="no"?>
<!DOCTYPE svg PUBLIC "-//W3C//DTD SVG 1.1//EN"
 "http://www.w3.org/Graphics/SVG/1.1/DTD/svg11.dtd">
<!-- Generated by graphviz version 2.36.0 (20140111.2315)
 -->
<!-- Title: constraint&#45;set.hh Pages: 1 -->
<svg width="618pt" height="716pt"
 viewBox="0.00 0.00 618.00 716.00" xmlns="http://www.w3.org/2000/svg" xmlns:xlink="http://www.w3.org/1999/xlink">
<g id="graph0" class="graph" transform="scale(1 1) rotate(0) translate(4 712)">
<title>constraint&#45;set.hh</title>
<polygon fill="white" stroke="none" points="-4,4 -4,-712 614,-712 614,4 -4,4"/>
<!-- Node1 -->
<g id="node1" class="node"><title>Node1</title>
<polygon fill="#bfbfbf" stroke="black" points="250.5,-688.5 250.5,-707.5 339.5,-707.5 339.5,-688.5 250.5,-688.5"/>
<text text-anchor="middle" x="295" y="-695.5" font-family="Helvetica,sans-Serif" font-size="10.00">constraint&#45;set.hh</text>
</g>
<!-- Node2 -->
<g id="node2" class="node"><title>Node2</title>
<g id="a_node2"><a doxygen="https://jmirabel.github.io/hpp-doc/api/hpp-core/doxygen-html/hpp-core.doxytag:https://jmirabel.github.io/hpp-doc/api/hpp-core/doxygen-html/" xlink:href="https://jmirabel.github.io/hpp-doc/api/hpp-core/doxygen-html/a00081.html" target="_top" xlink:title="hpp/core/constraint\l&#45;set.hh">
<polygon fill="white" stroke="black" points="203,-621 203,-651 303,-651 303,-621 203,-621"/>
<text text-anchor="start" x="211" y="-639" font-family="Helvetica,sans-Serif" font-size="10.00">hpp/core/constraint</text>
<text text-anchor="middle" x="253" y="-628" font-family="Helvetica,sans-Serif" font-size="10.00">&#45;set.hh</text>
</a>
</g>
</g>
<!-- Node1&#45;&gt;Node2 -->
<g id="edge1" class="edge"><title>Node1&#45;&gt;Node2</title>
<path fill="none" stroke="midnightblue" d="M288.982,-688.403C283.719,-680.885 275.837,-669.624 268.79,-659.556"/>
<polygon fill="midnightblue" stroke="midnightblue" points="271.501,-657.326 262.899,-651.141 265.766,-661.34 271.501,-657.326"/>
</g>
<!-- Node4 -->
<g id="node4" class="node"><title>Node4</title>
<g id="a_node4"><a xlink:href="a00001.html" target="_top" xlink:title="hpp/core/fwd.hh">
<polygon fill="white" stroke="black" points="122,-508.5 122,-527.5 208,-527.5 208,-508.5 122,-508.5"/>
<text text-anchor="middle" x="165" y="-515.5" font-family="Helvetica,sans-Serif" font-size="10.00">hpp/core/fwd.hh</text>
</a>
</g>
</g>
<!-- Node1&#45;&gt;Node4 -->
<g id="edge42" class="edge"><title>Node1&#45;&gt;Node4</title>
<path fill="none" stroke="midnightblue" d="M255.128,-688.485C233.974,-681.954 209.268,-670.759 194,-652 166.859,-618.653 163.648,-565.531 164.062,-537.583"/>
<polygon fill="midnightblue" stroke="midnightblue" points="167.56,-537.691 164.387,-527.583 160.564,-537.464 167.56,-537.691"/>
</g>
<!-- Node24 -->
<g id="node24" class="node"><title>Node24</title>
<g id="a_node24"><a xlink:href="a00040.html" target="_top" xlink:title="hpp/core/fwd.hh">
<polygon fill="white" stroke="black" points="300,-508.5 300,-527.5 386,-527.5 386,-508.5 300,-508.5"/>
<text text-anchor="middle" x="343" y="-515.5" font-family="Helvetica,sans-Serif" font-size="10.00">hpp/core/fwd.hh</text>
</a>
</g>
</g>
<!-- Node1&#45;&gt;Node24 -->
<g id="edge43" class="edge"><title>Node1&#45;&gt;Node24</title>
<path fill="none" stroke="midnightblue" d="M298.601,-688.49C302.303,-679.526 308.065,-664.944 312,-652 324.253,-611.689 334.433,-563.256 339.513,-537.401"/>
<polygon fill="midnightblue" stroke="midnightblue" points="342.964,-537.988 341.424,-527.505 336.091,-536.66 342.964,-537.988"/>
</g>
<!-- Node29 -->
<g id="node29" class="node"><title>Node29</title>
<polygon fill="white" stroke="#bfbfbf" points="363.5,-626.5 363.5,-645.5 496.5,-645.5 496.5,-626.5 363.5,-626.5"/>
<text text-anchor="middle" x="430" y="-633.5" font-family="Helvetica,sans-Serif" font-size="10.00">hpp/manipulation/config.hh</text>
</g>
<!-- Node1&#45;&gt;Node29 -->
<g id="edge44" class="edge"><title>Node1&#45;&gt;Node29</title>
<path fill="none" stroke="midnightblue" d="M314.342,-688.403C337.099,-678.29 375.092,-661.404 401.288,-649.761"/>
<polygon fill="midnightblue" stroke="midnightblue" points="402.977,-652.84 410.694,-645.581 400.134,-646.444 402.977,-652.84"/>
</g>
<!-- Node3 -->
<g id="node3" class="node"><title>Node3</title>
<g id="a_node3"><a doxygen="https://jmirabel.github.io/hpp-doc/api/hpp-core/doxygen-html/hpp-core.doxytag:https://jmirabel.github.io/hpp-doc/api/hpp-core/doxygen-html/" xlink:href="https://jmirabel.github.io/hpp-doc/api/hpp-core/doxygen-html/a00082.html" target="_top" xlink:title="hpp/core/constraint.hh">
<polygon fill="white" stroke="black" points="193.5,-564.5 193.5,-583.5 306.5,-583.5 306.5,-564.5 193.5,-564.5"/>
<text text-anchor="middle" x="250" y="-571.5" font-family="Helvetica,sans-Serif" font-size="10.00">hpp/core/constraint.hh</text>
</a>
</g>
</g>
<!-- Node2&#45;&gt;Node3 -->
<g id="edge2" class="edge"><title>Node2&#45;&gt;Node3</title>
<path fill="none" stroke="midnightblue" d="M252.289,-620.781C251.885,-612.691 251.373,-602.462 250.936,-593.725"/>
<polygon fill="midnightblue" stroke="midnightblue" points="254.432,-593.543 250.437,-583.731 247.44,-593.893 254.432,-593.543"/>
</g>
<!-- Node3&#45;&gt;Node4 -->
<g id="edge3" class="edge"><title>Node3&#45;&gt;Node4</title>
<path fill="none" stroke="midnightblue" d="M236.343,-564.324C223.084,-555.9 202.732,-542.971 187.154,-533.074"/>
<polygon fill="midnightblue" stroke="midnightblue" points="188.94,-530.063 178.623,-527.655 185.187,-535.971 188.94,-530.063"/>
</g>
<!-- Node6 -->
<g id="node6" class="node"><title>Node6</title>
<g id="a_node6"><a doxygen="https://jmirabel.github.io/hpp-doc/api/hpp-core/doxygen-html/hpp-core.doxytag:https://jmirabel.github.io/hpp-doc/api/hpp-core/doxygen-html/" xlink:href="https://jmirabel.github.io/hpp-doc/api/hpp-core/doxygen-html/a00001.html" target="_top" xlink:title="hpp/core/fwd.hh">
<polygon fill="white" stroke="black" points="192,-446.5 192,-465.5 278,-465.5 278,-446.5 192,-446.5"/>
<text text-anchor="middle" x="235" y="-453.5" font-family="Helvetica,sans-Serif" font-size="10.00">hpp/core/fwd.hh</text>
</a>
</g>
</g>
<!-- Node3&#45;&gt;Node6 -->
<g id="edge41" class="edge"><title>Node3&#45;&gt;Node6</title>
<path fill="none" stroke="midnightblue" d="M248.873,-564.281C246.45,-545.547 240.702,-501.098 237.416,-475.682"/>
<polygon fill="midnightblue" stroke="midnightblue" points="240.853,-474.973 236.1,-465.505 233.911,-475.871 240.853,-474.973"/>
</g>
<!-- Node3&#45;&gt;Node24 -->
<g id="edge36" class="edge"><title>Node3&#45;&gt;Node24</title>
<path fill="none" stroke="midnightblue" d="M264.942,-564.324C279.585,-555.822 302.134,-542.729 319.238,-532.797"/>
<polygon fill="midnightblue" stroke="midnightblue" points="321.205,-535.703 328.095,-527.655 317.69,-529.649 321.205,-535.703"/>
</g>
<!-- Node5 -->
<g id="node5" class="node"><title>Node5</title>
<polygon fill="white" stroke="#bfbfbf" points="-0.5,-446.5 -0.5,-465.5 34.5,-465.5 34.5,-446.5 -0.5,-446.5"/>
<text text-anchor="middle" x="17" y="-453.5" font-family="Helvetica,sans-Serif" font-size="10.00">map</text>
</g>
<!-- Node4&#45;&gt;Node5 -->
<g id="edge4" class="edge"><title>Node4&#45;&gt;Node5</title>
<path fill="none" stroke="midnightblue" d="M138.573,-508.46C113.743,-500.136 75.7578,-486.625 44,-472 42.8219,-471.457 41.6254,-470.884 40.4245,-470.289"/>
<polygon fill="midnightblue" stroke="midnightblue" points="41.8421,-467.08 31.3646,-465.507 38.5745,-473.27 41.8421,-467.08"/>
</g>
<!-- Node4&#45;&gt;Node6 -->
<g id="edge5" class="edge"><title>Node4&#45;&gt;Node6</title>
<path fill="none" stroke="midnightblue" d="M175.029,-508.403C186.049,-498.958 203.96,-483.606 217.343,-472.134"/>
<polygon fill="midnightblue" stroke="midnightblue" points="219.675,-474.746 224.989,-465.581 215.119,-469.431 219.675,-474.746"/>
</g>
<!-- Node7 -->
<g id="node7" class="node"><title>Node7</title>
<g id="a_node7"><a doxygen="https://jmirabel.github.io/hpp-doc/api/hpp-fcl/doxygen-html/hpp-fcl.doxytag:https://jmirabel.github.io/hpp-doc/api/hpp-fcl/doxygen-html/" xlink:href="https://jmirabel.github.io/hpp-doc/api/hpp-fcl/doxygen-html/a00261.html" target="_top" xlink:title="hpp/fcl/shape/geometric\l_shapes.h">
<polygon fill="white" stroke="black" points="52.5,-441 52.5,-471 173.5,-471 173.5,-441 52.5,-441"/>
<text text-anchor="start" x="60.5" y="-459" font-family="Helvetica,sans-Serif" font-size="10.00">hpp/fcl/shape/geometric</text>
<text text-anchor="middle" x="113" y="-448" font-family="Helvetica,sans-Serif" font-size="10.00">_shapes.h</text>
</a>
</g>
</g>
<!-- Node4&#45;&gt;Node7 -->
<g id="edge6" class="edge"><title>Node4&#45;&gt;Node7</title>
<path fill="none" stroke="midnightblue" d="M157.55,-508.403C150.902,-500.733 140.878,-489.167 132.021,-478.948"/>
<polygon fill="midnightblue" stroke="midnightblue" points="134.45,-476.405 125.255,-471.141 129.16,-480.99 134.45,-476.405"/>
</g>
<!-- Node8 -->
<g id="node8" class="node"><title>Node8</title>
<g id="a_node8"><a doxygen="https://jmirabel.github.io/hpp-doc/api/hpp-fcl/doxygen-html/hpp-fcl.doxytag:https://jmirabel.github.io/hpp-doc/api/hpp-fcl/doxygen-html/" xlink:href="https://jmirabel.github.io/hpp-doc/api/hpp-fcl/doxygen-html/a00249.html" target="_top" xlink:title="hpp/fcl/collision_object.h">
<polygon fill="white" stroke="black" points="110,-384.5 110,-403.5 234,-403.5 234,-384.5 110,-384.5"/>
<text text-anchor="middle" x="172" y="-391.5" font-family="Helvetica,sans-Serif" font-size="10.00">hpp/fcl/collision_object.h</text>
</a>
</g>
</g>
<!-- Node7&#45;&gt;Node8 -->
<g id="edge7" class="edge"><title>Node7&#45;&gt;Node8</title>
<path fill="none" stroke="midnightblue" d="M126.982,-440.781C135.821,-431.792 147.257,-420.162 156.391,-410.873"/>
<polygon fill="midnightblue" stroke="midnightblue" points="158.899,-413.315 163.415,-403.731 153.908,-408.407 158.899,-413.315"/>
</g>
<!-- Node11 -->
<g id="node11" class="node"><title>Node11</title>
<g id="a_node11"><a doxygen="https://jmirabel.github.io/hpp-doc/api/hpp-fcl/doxygen-html/hpp-fcl.doxytag:https://jmirabel.github.io/hpp-doc/api/hpp-fcl/doxygen-html/" xlink:href="https://jmirabel.github.io/hpp-doc/api/hpp-fcl/doxygen-html/a00318.html" target="_top" xlink:title="hpp/fcl/math/vec_3f.h">
<polygon fill="white" stroke="black" points="144.5,-56.5 144.5,-75.5 255.5,-75.5 255.5,-56.5 144.5,-56.5"/>
<text text-anchor="middle" x="200" y="-63.5" font-family="Helvetica,sans-Serif" font-size="10.00">hpp/fcl/math/vec_3f.h</text>
</a>
</g>
</g>
<!-- Node7&#45;&gt;Node11 -->
<g id="edge35" class="edge"><title>Node7&#45;&gt;Node11</title>
<path fill="none" stroke="midnightblue" d="M100.982,-440.652C83.9938,-418.859 55,-375.449 55,-333 55,-333 55,-333 55,-195 55,-135.967 123.384,-97.648 166.228,-79.4337"/>
<polygon fill="midnightblue" stroke="midnightblue" points="167.802,-82.5712 175.73,-75.543 165.15,-76.0931 167.802,-82.5712"/>
</g>
<!-- Node9 -->
<g id="node9" class="node"><title>Node9</title>
<g id="a_node9"><a doxygen="https://jmirabel.github.io/hpp-doc/api/hpp-fcl/doxygen-html/hpp-fcl.doxytag:https://jmirabel.github.io/hpp-doc/api/hpp-fcl/doxygen-html/" xlink:href="https://jmirabel.github.io/hpp-doc/api/hpp-fcl/doxygen-html/a00253.html" target="_top" xlink:title="hpp/fcl/deprecated.h">
<polygon fill="white" stroke="black" points="200.5,-322.5 200.5,-341.5 305.5,-341.5 305.5,-322.5 200.5,-322.5"/>
<text text-anchor="middle" x="253" y="-329.5" font-family="Helvetica,sans-Serif" font-size="10.00">hpp/fcl/deprecated.h</text>
</a>
</g>
</g>
<!-- Node8&#45;&gt;Node9 -->
<g id="edge8" class="edge"><title>Node8&#45;&gt;Node9</title>
<path fill="none" stroke="midnightblue" d="M183.605,-384.403C196.477,-374.869 217.474,-359.315 233.006,-347.811"/>
<polygon fill="midnightblue" stroke="midnightblue" points="235.464,-350.345 241.416,-341.581 231.297,-344.72 235.464,-350.345"/>
</g>
<!-- Node10 -->
<g id="node10" class="node"><title>Node10</title>
<g id="a_node10"><a doxygen="https://jmirabel.github.io/hpp-doc/api/hpp-fcl/doxygen-html/hpp-fcl.doxytag:https://jmirabel.github.io/hpp-doc/api/hpp-fcl/doxygen-html/" xlink:href="https://jmirabel.github.io/hpp-doc/api/hpp-fcl/doxygen-html/a00226.html" target="_top" xlink:title="hpp/fcl/BV/AABB.h">
<polygon fill="white" stroke="black" points="83.5,-254.5 83.5,-273.5 184.5,-273.5 184.5,-254.5 83.5,-254.5"/>
<text text-anchor="middle" x="134" y="-261.5" font-family="Helvetica,sans-Serif" font-size="10.00">hpp/fcl/BV/AABB.h</text>
</a>
</g>
</g>
<!-- Node8&#45;&gt;Node10 -->
<g id="edge9" class="edge"><title>Node8&#45;&gt;Node10</title>
<path fill="none" stroke="midnightblue" d="M169.264,-384.389C166.404,-375.343 161.81,-360.695 158,-348 151.351,-325.843 144.003,-300.261 139.211,-283.42"/>
<polygon fill="midnightblue" stroke="midnightblue" points="142.562,-282.405 136.465,-273.74 135.827,-284.316 142.562,-282.405"/>
</g>
<!-- Node14 -->
<g id="node14" class="node"><title>Node14</title>
<g id="a_node14"><a doxygen="https://jmirabel.github.io/hpp-doc/api/hpp-fcl/doxygen-html/hpp-fcl.doxytag:https://jmirabel.github.io/hpp-doc/api/hpp-fcl/doxygen-html/" xlink:href="https://jmirabel.github.io/hpp-doc/api/hpp-fcl/doxygen-html/a00310.html" target="_top" xlink:title="hpp/fcl/math/transform.h">
<polygon fill="white" stroke="black" points="202.5,-254.5 202.5,-273.5 325.5,-273.5 325.5,-254.5 202.5,-254.5"/>
<text text-anchor="middle" x="264" y="-261.5" font-family="Helvetica,sans-Serif" font-size="10.00">hpp/fcl/math/transform.h</text>
</a>
</g>
</g>
<!-- Node8&#45;&gt;Node14 -->
<g id="edge13" class="edge"><title>Node8&#45;&gt;Node14</title>
<path fill="none" stroke="midnightblue" d="M172.209,-384.105C172.972,-368.865 176.353,-337.343 191,-316 202.084,-299.849 220.078,-287.192 235.428,-278.528"/>
<polygon fill="midnightblue" stroke="midnightblue" points="237.385,-281.45 244.557,-273.653 234.088,-275.275 237.385,-281.45"/>
</g>
<!-- Node16 -->
<g id="node16" class="node"><title>Node16</title>
<g id="a_node16"><a doxygen="https://jmirabel.github.io/hpp-doc/api/hpp-fcl/doxygen-html/hpp-fcl.doxytag:https://jmirabel.github.io/hpp-doc/api/hpp-fcl/doxygen-html/" xlink:href="https://jmirabel.github.io/hpp-doc/api/hpp-fcl/doxygen-html/a00290.html" target="_top" xlink:title="hpp/fcl/ccd/motion\l_base.h">
<polygon fill="white" stroke="black" points="323.5,-317 323.5,-347 420.5,-347 420.5,-317 323.5,-317"/>
<text text-anchor="start" x="331.5" y="-335" font-family="Helvetica,sans-Serif" font-size="10.00">hpp/fcl/ccd/motion</text>
<text text-anchor="middle" x="372" y="-324" font-family="Helvetica,sans-Serif" font-size="10.00">_base.h</text>
</a>
</g>
</g>
<!-- Node8&#45;&gt;Node16 -->
<g id="edge16" class="edge"><title>Node8&#45;&gt;Node16</title>
<path fill="none" stroke="midnightblue" d="M200.655,-384.403C230.5,-375.45 278.034,-361.19 315.474,-349.958"/>
<polygon fill="midnightblue" stroke="midnightblue" points="316.676,-353.251 325.249,-347.025 314.665,-346.546 316.676,-353.251"/>
</g>
<!-- Node10&#45;&gt;Node11 -->
<g id="edge10" class="edge"><title>Node10&#45;&gt;Node11</title>
<path fill="none" stroke="midnightblue" d="M136.921,-254.325C146.952,-224.538 180.128,-126.013 193.912,-85.0787"/>
<polygon fill="midnightblue" stroke="midnightblue" points="197.238,-86.1687 197.113,-75.5746 190.604,-83.9348 197.238,-86.1687"/>
</g>
<!-- Node12 -->
<g id="node12" class="node"><title>Node12</title>
<g id="a_node12"><a doxygen="https://jmirabel.github.io/hpp-doc/api/hpp-fcl/doxygen-html/hpp-fcl.doxytag:https://jmirabel.github.io/hpp-doc/api/hpp-fcl/doxygen-html/" xlink:href="https://jmirabel.github.io/hpp-doc/api/hpp-fcl/doxygen-html/a00252.html" target="_top" xlink:title="hpp/fcl/data_types.h">
<polygon fill="white" stroke="black" points="325.5,-0.5 325.5,-19.5 430.5,-19.5 430.5,-0.5 325.5,-0.5"/>
<text text-anchor="middle" x="378" y="-7.5" font-family="Helvetica,sans-Serif" font-size="10.00">hpp/fcl/data_types.h</text>
</a>
</g>
</g>
<!-- Node11&#45;&gt;Node12 -->
<g id="edge11" class="edge"><title>Node11&#45;&gt;Node12</title>
<path fill="none" stroke="midnightblue" d="M228.205,-56.4435C258.41,-47.2801 306.511,-32.6876 340.029,-22.5192"/>
<polygon fill="midnightblue" stroke="midnightblue" points="341.374,-25.7688 349.927,-19.5164 339.342,-19.0703 341.374,-25.7688"/>
</g>
<!-- Node13 -->
<g id="node13" class="node"><title>Node13</title>
<g id="a_node13"><a doxygen="https://jmirabel.github.io/hpp-doc/api/hpp-fcl/doxygen-html/hpp-fcl.doxytag:https://jmirabel.github.io/hpp-doc/api/hpp-fcl/doxygen-html/" xlink:href="https://jmirabel.github.io/hpp-doc/api/hpp-fcl/doxygen-html/a00283.html" target="_top" xlink:title="hpp/fcl/math/math_details.h">
<polygon fill="white" stroke="black" points="131.5,-0.5 131.5,-19.5 268.5,-19.5 268.5,-0.5 131.5,-0.5"/>
<text text-anchor="middle" x="200" y="-7.5" font-family="Helvetica,sans-Serif" font-size="10.00">hpp/fcl/math/math_details.h</text>
</a>
</g>
</g>
<!-- Node11&#45;&gt;Node13 -->
<g id="edge12" class="edge"><title>Node11&#45;&gt;Node13</title>
<path fill="none" stroke="midnightblue" d="M200,-56.083C200,-49.0059 200,-38.8611 200,-29.9865"/>
<polygon fill="midnightblue" stroke="midnightblue" points="203.5,-29.751 200,-19.7511 196.5,-29.7511 203.5,-29.751"/>
</g>
<!-- Node15 -->
<g id="node15" class="node"><title>Node15</title>
<g id="a_node15"><a doxygen="https://jmirabel.github.io/hpp-doc/api/hpp-fcl/doxygen-html/hpp-fcl.doxytag:https://jmirabel.github.io/hpp-doc/api/hpp-fcl/doxygen-html/" xlink:href="https://jmirabel.github.io/hpp-doc/api/hpp-fcl/doxygen-html/a00285.html" target="_top" xlink:title="hpp/fcl/math/matrix_3f.h">
<polygon fill="white" stroke="black" points="209,-118.5 209,-137.5 331,-137.5 331,-118.5 209,-118.5"/>
<text text-anchor="middle" x="270" y="-125.5" font-family="Helvetica,sans-Serif" font-size="10.00">hpp/fcl/math/matrix_3f.h</text>
</a>
</g>
</g>
<!-- Node14&#45;&gt;Node15 -->
<g id="edge14" class="edge"><title>Node14&#45;&gt;Node15</title>
<path fill="none" stroke="midnightblue" d="M250.629,-254.336C238.224,-245.421 220.571,-230.278 213,-212 207.557,-198.86 207.195,-192.984 213,-180 219.804,-164.783 233.641,-152.226 245.977,-143.38"/>
<polygon fill="midnightblue" stroke="midnightblue" points="248.221,-146.089 254.573,-137.61 244.319,-140.278 248.221,-146.089"/>
</g>
<!-- Node15&#45;&gt;Node11 -->
<g id="edge15" class="edge"><title>Node15&#45;&gt;Node11</title>
<path fill="none" stroke="midnightblue" d="M259.971,-118.403C248.951,-108.958 231.04,-93.6056 217.657,-82.1342"/>
<polygon fill="midnightblue" stroke="midnightblue" points="219.881,-79.4311 210.011,-75.5806 215.325,-84.7459 219.881,-79.4311"/>
</g>
<!-- Node16&#45;&gt;Node14 -->
<g id="edge17" class="edge"><title>Node16&#45;&gt;Node14</title>
<path fill="none" stroke="midnightblue" d="M348.831,-316.841C330.569,-305.681 305.233,-290.198 287.011,-279.063"/>
<polygon fill="midnightblue" stroke="midnightblue" points="288.565,-275.91 278.207,-273.682 284.914,-281.883 288.565,-275.91"/>
</g>
<!-- Node17 -->
<g id="node17" class="node"><title>Node17</title>
<g id="a_node17"><a doxygen="https://jmirabel.github.io/hpp-doc/api/hpp-fcl/doxygen-html/hpp-fcl.doxytag:https://jmirabel.github.io/hpp-doc/api/hpp-fcl/doxygen-html/" xlink:href="https://jmirabel.github.io/hpp-doc/api/hpp-fcl/doxygen-html/a00307.html" target="_top" xlink:title="hpp/fcl/ccd/taylor\l_matrix.h">
<polygon fill="white" stroke="black" points="382,-249 382,-279 474,-279 474,-249 382,-249"/>
<text text-anchor="start" x="390" y="-267" font-family="Helvetica,sans-Serif" font-size="10.00">hpp/fcl/ccd/taylor</text>
<text text-anchor="middle" x="428" y="-256" font-family="Helvetica,sans-Serif" font-size="10.00">_matrix.h</text>
</a>
</g>
</g>
<!-- Node16&#45;&gt;Node17 -->
<g id="edge18" class="edge"><title>Node16&#45;&gt;Node17</title>
<path fill="none" stroke="midnightblue" d="M384.151,-316.679C391.49,-308.03 400.993,-296.829 409.276,-287.067"/>
<polygon fill="midnightblue" stroke="midnightblue" points="412.072,-289.183 415.873,-279.293 406.734,-284.654 412.072,-289.183"/>
</g>
<!-- Node18 -->
<g id="node18" class="node"><title>Node18</title>
<g id="a_node18"><a doxygen="https://jmirabel.github.io/hpp-doc/api/hpp-fcl/doxygen-html/hpp-fcl.doxytag:https://jmirabel.github.io/hpp-doc/api/hpp-fcl/doxygen-html/" xlink:href="https://jmirabel.github.io/hpp-doc/api/hpp-fcl/doxygen-html/a00309.html" target="_top" xlink:title="hpp/fcl/ccd/taylor\l_vector.h">
<polygon fill="white" stroke="black" points="492,-181 492,-211 584,-211 584,-181 492,-181"/>
<text text-anchor="start" x="500" y="-199" font-family="Helvetica,sans-Serif" font-size="10.00">hpp/fcl/ccd/taylor</text>
<text text-anchor="middle" x="538" y="-188" font-family="Helvetica,sans-Serif" font-size="10.00">_vector.h</text>
</a>
</g>
</g>
<!-- Node16&#45;&gt;Node18 -->
<g id="edge31" class="edge"><title>Node16&#45;&gt;Node18</title>
<path fill="none" stroke="midnightblue" d="M416.874,-316.918C438.498,-308.589 463.831,-296.415 483,-280 502.366,-263.417 517.674,-238.391 527.171,-220.156"/>
<polygon fill="midnightblue" stroke="midnightblue" points="530.372,-221.579 531.718,-211.07 524.113,-218.446 530.372,-221.579"/>
</g>
<!-- Node23 -->
<g id="node23" class="node"><title>Node23</title>
<g id="a_node23"><a doxygen="https://jmirabel.github.io/hpp-doc/api/hpp-fcl/doxygen-html/hpp-fcl.doxytag:https://jmirabel.github.io/hpp-doc/api/hpp-fcl/doxygen-html/" xlink:href="https://jmirabel.github.io/hpp-doc/api/hpp-fcl/doxygen-html/a00302.html" target="_top" xlink:title="hpp/fcl/BV/RSS.h">
<polygon fill="white" stroke="black" points="222.5,-186.5 222.5,-205.5 317.5,-205.5 317.5,-186.5 222.5,-186.5"/>
<text text-anchor="middle" x="270" y="-193.5" font-family="Helvetica,sans-Serif" font-size="10.00">hpp/fcl/BV/RSS.h</text>
</a>
</g>
</g>
<!-- Node16&#45;&gt;Node23 -->
<g id="edge32" class="edge"><title>Node16&#45;&gt;Node23</title>
<path fill="none" stroke="midnightblue" d="M367.835,-316.991C362.173,-299.559 350.791,-269.473 334,-248 322.623,-233.451 306.296,-220.526 292.982,-211.329"/>
<polygon fill="midnightblue" stroke="midnightblue" points="294.607,-208.206 284.343,-205.582 290.73,-214.035 294.607,-208.206"/>
</g>
<!-- Node17&#45;&gt;Node15 -->
<g id="edge19" class="edge"><title>Node17&#45;&gt;Node15</title>
<path fill="none" stroke="midnightblue" d="M410.204,-248.887C397.505,-238.745 380.077,-224.681 365,-212 337.406,-188.79 306.012,-161.105 287.119,-144.301"/>
<polygon fill="midnightblue" stroke="midnightblue" points="289.4,-141.645 279.606,-137.605 284.743,-146.871 289.4,-141.645"/>
</g>
<!-- Node17&#45;&gt;Node18 -->
<g id="edge20" class="edge"><title>Node17&#45;&gt;Node18</title>
<path fill="none" stroke="midnightblue" d="M451.598,-248.841C467.402,-239.359 488.41,-226.754 505.753,-216.348"/>
<polygon fill="midnightblue" stroke="midnightblue" points="507.667,-219.281 514.441,-211.135 504.066,-213.279 507.667,-219.281"/>
</g>
<!-- Node22 -->
<g id="node22" class="node"><title>Node22</title>
<g id="a_node22"><a doxygen="https://jmirabel.github.io/hpp-doc/api/hpp-fcl/doxygen-html/hpp-fcl.doxytag:https://jmirabel.github.io/hpp-doc/api/hpp-fcl/doxygen-html/" xlink:href="https://jmirabel.github.io/hpp-doc/api/hpp-fcl/doxygen-html/a00274.html" target="_top" xlink:title="hpp/fcl/ccd/interval\l_matrix.h">
<polygon fill="white" stroke="black" points="374.5,-181 374.5,-211 473.5,-211 473.5,-181 374.5,-181"/>
<text text-anchor="start" x="382.5" y="-199" font-family="Helvetica,sans-Serif" font-size="10.00">hpp/fcl/ccd/interval</text>
<text text-anchor="middle" x="424" y="-188" font-family="Helvetica,sans-Serif" font-size="10.00">_matrix.h</text>
</a>
</g>
</g>
<!-- Node17&#45;&gt;Node22 -->
<g id="edge27" class="edge"><title>Node17&#45;&gt;Node22</title>
<path fill="none" stroke="midnightblue" d="M427.132,-248.679C426.65,-240.722 426.037,-230.605 425.481,-221.436"/>
<polygon fill="midnightblue" stroke="midnightblue" points="428.965,-221.063 424.866,-211.293 421.978,-221.487 428.965,-221.063"/>
</g>
<!-- Node19 -->
<g id="node19" class="node"><title>Node19</title>
<g id="a_node19"><a doxygen="https://jmirabel.github.io/hpp-doc/api/hpp-fcl/doxygen-html/hpp-fcl.doxytag:https://jmirabel.github.io/hpp-doc/api/hpp-fcl/doxygen-html/" xlink:href="https://jmirabel.github.io/hpp-doc/api/hpp-fcl/doxygen-html/a00276.html" target="_top" xlink:title="hpp/fcl/ccd/interval\l_vector.h">
<polygon fill="white" stroke="black" points="387.5,-113 387.5,-143 486.5,-143 486.5,-113 387.5,-113"/>
<text text-anchor="start" x="395.5" y="-131" font-family="Helvetica,sans-Serif" font-size="10.00">hpp/fcl/ccd/interval</text>
<text text-anchor="middle" x="437" y="-120" font-family="Helvetica,sans-Serif" font-size="10.00">_vector.h</text>
</a>
</g>
</g>
<!-- Node18&#45;&gt;Node19 -->
<g id="edge21" class="edge"><title>Node18&#45;&gt;Node19</title>
<path fill="none" stroke="midnightblue" d="M516.085,-180.679C501.693,-171.274 482.682,-158.852 466.907,-148.543"/>
<polygon fill="midnightblue" stroke="midnightblue" points="468.812,-145.607 458.526,-143.066 464.982,-151.467 468.812,-145.607"/>
</g>
<!-- Node21 -->
<g id="node21" class="node"><title>Node21</title>
<g id="a_node21"><a doxygen="https://jmirabel.github.io/hpp-doc/api/hpp-fcl/doxygen-html/hpp-fcl.doxytag:https://jmirabel.github.io/hpp-doc/api/hpp-fcl/doxygen-html/" xlink:href="https://jmirabel.github.io/hpp-doc/api/hpp-fcl/doxygen-html/a00308.html" target="_top" xlink:title="hpp/fcl/ccd/taylor\l_model.h">
<polygon fill="white" stroke="black" points="505,-113 505,-143 597,-143 597,-113 505,-113"/>
<text text-anchor="start" x="513" y="-131" font-family="Helvetica,sans-Serif" font-size="10.00">hpp/fcl/ccd/taylor</text>
<text text-anchor="middle" x="551" y="-120" font-family="Helvetica,sans-Serif" font-size="10.00">_model.h</text>
</a>
</g>
</g>
<!-- Node18&#45;&gt;Node21 -->
<g id="edge25" class="edge"><title>Node18&#45;&gt;Node21</title>
<path fill="none" stroke="midnightblue" d="M540.821,-180.679C542.405,-172.636 544.424,-162.385 546.246,-153.137"/>
<polygon fill="midnightblue" stroke="midnightblue" points="549.686,-153.781 548.185,-143.293 542.818,-152.428 549.686,-153.781"/>
</g>
<!-- Node19&#45;&gt;Node11 -->
<g id="edge24" class="edge"><title>Node19&#45;&gt;Node11</title>
<path fill="none" stroke="midnightblue" d="M387.317,-114.422C344.773,-103.651 284.118,-88.2957 243.471,-78.0052"/>
<polygon fill="midnightblue" stroke="midnightblue" points="244.144,-74.5653 233.591,-75.504 242.426,-81.3513 244.144,-74.5653"/>
</g>
<!-- Node20 -->
<g id="node20" class="node"><title>Node20</title>
<g id="a_node20"><a doxygen="https://jmirabel.github.io/hpp-doc/api/hpp-fcl/doxygen-html/hpp-fcl.doxytag:https://jmirabel.github.io/hpp-doc/api/hpp-fcl/doxygen-html/" xlink:href="https://jmirabel.github.io/hpp-doc/api/hpp-fcl/doxygen-html/a00273.html" target="_top" xlink:title="hpp/fcl/ccd/interval.h">
<polygon fill="white" stroke="black" points="344.5,-56.5 344.5,-75.5 451.5,-75.5 451.5,-56.5 344.5,-56.5"/>
<text text-anchor="middle" x="398" y="-63.5" font-family="Helvetica,sans-Serif" font-size="10.00">hpp/fcl/ccd/interval.h</text>
</a>
</g>
</g>
<!-- Node19&#45;&gt;Node20 -->
<g id="edge22" class="edge"><title>Node19&#45;&gt;Node20</title>
<path fill="none" stroke="midnightblue" d="M427.758,-112.781C422.207,-104.242 415.107,-93.3184 409.234,-84.2834"/>
<polygon fill="midnightblue" stroke="midnightblue" points="412.059,-82.2075 403.675,-75.7305 406.19,-86.0225 412.059,-82.2075"/>
</g>
<!-- Node20&#45;&gt;Node12 -->
<g id="edge23" class="edge"><title>Node20&#45;&gt;Node12</title>
<path fill="none" stroke="midnightblue" d="M394.697,-56.083C392.018,-48.8486 388.151,-38.4087 384.814,-29.3968"/>
<polygon fill="midnightblue" stroke="midnightblue" points="387.996,-27.9129 381.241,-19.7511 381.432,-30.3442 387.996,-27.9129"/>
</g>
<!-- Node21&#45;&gt;Node20 -->
<g id="edge26" class="edge"><title>Node21&#45;&gt;Node20</title>
<path fill="none" stroke="midnightblue" d="M515.128,-112.933C489.085,-102.72 454.192,-89.036 429.279,-79.2664"/>
<polygon fill="midnightblue" stroke="midnightblue" points="430.518,-75.9926 419.93,-75.6 427.962,-82.5094 430.518,-75.9926"/>
</g>
<!-- Node22&#45;&gt;Node15 -->
<g id="edge30" class="edge"><title>Node22&#45;&gt;Node15</title>
<path fill="none" stroke="midnightblue" d="M390.963,-180.841C363.848,-169.221 325.794,-152.912 299.648,-141.706"/>
<polygon fill="midnightblue" stroke="midnightblue" points="300.828,-138.404 290.258,-137.682 298.07,-144.838 300.828,-138.404"/>
</g>
<!-- Node22&#45;&gt;Node19 -->
<g id="edge29" class="edge"><title>Node22&#45;&gt;Node19</title>
<path fill="none" stroke="midnightblue" d="M426.821,-180.679C428.405,-172.636 430.424,-162.385 432.246,-153.137"/>
<polygon fill="midnightblue" stroke="midnightblue" points="435.686,-153.781 434.185,-143.293 428.818,-152.428 435.686,-153.781"/>
</g>
<!-- Node22&#45;&gt;Node20 -->
<g id="edge28" class="edge"><title>Node22&#45;&gt;Node20</title>
<path fill="none" stroke="midnightblue" d="M405.581,-180.613C395.336,-171.394 383.561,-158.469 378,-144 370.439,-124.329 378.996,-100.754 387.143,-84.9161"/>
<polygon fill="midnightblue" stroke="midnightblue" points="390.445,-86.1818 392.264,-75.7443 384.333,-82.769 390.445,-86.1818"/>
</g>
<!-- Node23&#45;&gt;Node11 -->
<g id="edge33" class="edge"><title>Node23&#45;&gt;Node11</title>
<path fill="none" stroke="midnightblue" d="M249.194,-186.349C232.501,-178.157 210.226,-164.103 200,-144 190.742,-125.8 192.532,-101.905 195.482,-85.5909"/>
<polygon fill="midnightblue" stroke="midnightblue" points="198.935,-86.1798 197.588,-75.6709 192.087,-84.726 198.935,-86.1798"/>
</g>
<!-- Node23&#45;&gt;Node15 -->
<g id="edge34" class="edge"><title>Node23&#45;&gt;Node15</title>
<path fill="none" stroke="midnightblue" d="M270,-186.372C270,-176.643 270,-160.528 270,-147.85"/>
<polygon fill="midnightblue" stroke="midnightblue" points="273.5,-147.841 270,-137.841 266.5,-147.841 273.5,-147.841"/>
</g>
<!-- Node25 -->
<g id="node25" class="node"><title>Node25</title>
<polygon fill="white" stroke="#bfbfbf" points="296,-446.5 296,-465.5 390,-465.5 390,-446.5 296,-446.5"/>
<text text-anchor="middle" x="343" y="-453.5" font-family="Helvetica,sans-Serif" font-size="10.00">hpp/util/pointer.hh</text>
</g>
<!-- Node24&#45;&gt;Node25 -->
<g id="edge37" class="edge"><title>Node24&#45;&gt;Node25</title>
<path fill="none" stroke="midnightblue" d="M343,-508.403C343,-499.938 343,-486.728 343,-475.82"/>
<polygon fill="midnightblue" stroke="midnightblue" points="346.5,-475.581 343,-465.581 339.5,-475.581 346.5,-475.581"/>
</g>
<!-- Node26 -->
<g id="node26" class="node"><title>Node26</title>
<g id="a_node26"><a doxygen="https://jmirabel.github.io/hpp-doc/api/hpp-statistics/doxygen-html/hpp-statistics.doxytag:https://jmirabel.github.io/hpp-doc/api/hpp-statistics/doxygen-html/" xlink:href="https://jmirabel.github.io/hpp-doc/api/hpp-statistics/doxygen-html/a00010.html" target="_top" xlink:title="hpp/statistics/distribution.hh">
<polygon fill="white" stroke="black" points="408.5,-446.5 408.5,-465.5 547.5,-465.5 547.5,-446.5 408.5,-446.5"/>
<text text-anchor="middle" x="478" y="-453.5" font-family="Helvetica,sans-Serif" font-size="10.00">hpp/statistics/distribution.hh</text>
</a>
</g>
</g>
<!-- Node24&#45;&gt;Node26 -->
<g id="edge38" class="edge"><title>Node24&#45;&gt;Node26</title>
<path fill="none" stroke="midnightblue" d="M362.342,-508.403C385.099,-498.29 423.092,-481.404 449.288,-469.761"/>
<polygon fill="midnightblue" stroke="midnightblue" points="450.977,-472.84 458.694,-465.581 448.134,-466.444 450.977,-472.84"/>
</g>
<!-- Node28 -->
<g id="node28" class="node"><title>Node28</title>
<polygon fill="white" stroke="#bfbfbf" points="566,-446.5 566,-465.5 610,-465.5 610,-446.5 566,-446.5"/>
<text text-anchor="middle" x="588" y="-453.5" font-family="Helvetica,sans-Serif" font-size="10.00">vector</text>
</g>
<!-- Node24&#45;&gt;Node28 -->
<g id="edge40" class="edge"><title>Node24&#45;&gt;Node28</title>
<path fill="none" stroke="midnightblue" d="M386.204,-510.866C429.792,-503.986 498.66,-491.21 556,-472 558.127,-471.287 560.299,-470.472 562.461,-469.599"/>
<polygon fill="midnightblue" stroke="midnightblue" points="563.952,-472.766 571.689,-465.529 561.127,-466.362 563.952,-472.766"/>
</g>
<!-- Node27 -->
<g id="node27" class="node"><title>Node27</title>
<g id="a_node27"><a doxygen="https://jmirabel.github.io/hpp-doc/api/hpp-statistics/doxygen-html/hpp-statistics.doxytag:https://jmirabel.github.io/hpp-doc/api/hpp-statistics/doxygen-html/" xlink:href="https://jmirabel.github.io/hpp-doc/api/hpp-statistics/doxygen-html/a00011.html" target="_top" xlink:title="hpp/statistics/fwd.hh">
<polygon fill="white" stroke="black" points="424.5,-384.5 424.5,-403.5 531.5,-403.5 531.5,-384.5 424.5,-384.5"/>
<text text-anchor="middle" x="478" y="-391.5" font-family="Helvetica,sans-Serif" font-size="10.00">hpp/statistics/fwd.hh</text>
</a>
</g>
</g>
<!-- Node26&#45;&gt;Node27 -->
<g id="edge39" class="edge"><title>Node26&#45;&gt;Node27</title>
<path fill="none" stroke="midnightblue" d="M478,-446.403C478,-437.938 478,-424.728 478,-413.82"/>
<polygon fill="midnightblue" stroke="midnightblue" points="481.5,-413.581 478,-403.581 474.5,-413.581 481.5,-413.581"/>
</g>
</g>
</svg>
