<?xml version="1.0" encoding="UTF-8" standalone="no"?>
<!DOCTYPE svg PUBLIC "-//W3C//DTD SVG 1.1//EN"
 "http://www.w3.org/Graphics/SVG/1.1/DTD/svg11.dtd">
<!-- Generated by graphviz version 2.36.0 (20140111.2315)
 -->
<!-- Title: container.hh Pages: 1 -->
<svg width="185pt" height="140pt"
 viewBox="0.00 0.00 185.00 140.00" xmlns="http://www.w3.org/2000/svg" xmlns:xlink="http://www.w3.org/1999/xlink">
<g id="graph0" class="graph" transform="scale(1 1) rotate(0) translate(4 136)">
<title>container.hh</title>
<polygon fill="white" stroke="none" points="-4,4 -4,-136 181,-136 181,4 -4,4"/>
<!-- Node1 -->
<g id="node1" class="node"><title>Node1</title>
<polygon fill="#bfbfbf" stroke="black" points="41,-112.5 41,-131.5 111,-131.5 111,-112.5 41,-112.5"/>
<text text-anchor="middle" x="76" y="-119.5" font-family="Helvetica,sans-Serif" font-size="10.00">container.hh</text>
</g>
<!-- Node2 -->
<g id="node2" class="node"><title>Node2</title>
<g id="a_node2"><a xlink:href="a00002.html" target="_top" xlink:title="device.hh">
<polygon fill="white" stroke="black" points="75.5,-56.5 75.5,-75.5 134.5,-75.5 134.5,-56.5 75.5,-56.5"/>
<text text-anchor="middle" x="105" y="-63.5" font-family="Helvetica,sans-Serif" font-size="10.00">device.hh</text>
</a>
</g>
</g>
<!-- Node1&#45;&gt;Node2 -->
<g id="edge1" class="edge"><title>Node1&#45;&gt;Node2</title>
<path fill="none" stroke="midnightblue" d="M85.6759,-102.983C90.5984,-93.8168 96.3579,-83.0922 100.3,-75.7511"/>
<polygon fill="midnightblue" stroke="midnightblue" points="82.4366,-101.617 80.7888,-112.083 88.6036,-104.929 82.4366,-101.617"/>
</g>
<!-- Node3 -->
<g id="node3" class="node"><title>Node3</title>
<g id="a_node3"><a xlink:href="a00046.html" target="_top" xlink:title="problem&#45;solver.hh">
<polygon fill="white" stroke="black" points="0,-0.5 0,-19.5 94,-19.5 94,-0.5 0,-0.5"/>
<text text-anchor="middle" x="47" y="-7.5" font-family="Helvetica,sans-Serif" font-size="10.00">problem&#45;solver.hh</text>
</a>
</g>
</g>
<!-- Node1&#45;&gt;Node3 -->
<g id="edge4" class="edge"><title>Node1&#45;&gt;Node3</title>
<path fill="none" stroke="midnightblue" d="M71.1686,-102.674C64.8284,-78.6248 53.9569,-37.3881 49.265,-19.5914"/>
<polygon fill="midnightblue" stroke="midnightblue" points="67.7907,-103.591 73.7244,-112.368 74.5594,-101.807 67.7907,-103.591"/>
</g>
<!-- Node2&#45;&gt;Node3 -->
<g id="edge2" class="edge"><title>Node2&#45;&gt;Node3</title>
<path fill="none" stroke="midnightblue" d="M88.0869,-49.2533C77.797,-39.6731 65.0343,-27.7906 56.4883,-19.8339"/>
<polygon fill="midnightblue" stroke="midnightblue" points="85.9774,-52.0714 95.6813,-56.324 90.7473,-46.9481 85.9774,-52.0714"/>
</g>
<!-- Node4 -->
<g id="node4" class="node"><title>Node4</title>
<g id="a_node4"><a xlink:href="a00004.html" target="_top" xlink:title="problem.hh">
<polygon fill="white" stroke="black" points="112.5,-0.5 112.5,-19.5 177.5,-19.5 177.5,-0.5 112.5,-0.5"/>
<text text-anchor="middle" x="145" y="-7.5" font-family="Helvetica,sans-Serif" font-size="10.00">problem.hh</text>
</a>
</g>
</g>
<!-- Node2&#45;&gt;Node4 -->
<g id="edge3" class="edge"><title>Node2&#45;&gt;Node4</title>
<path fill="none" stroke="midnightblue" d="M117.7,-47.8554C124.626,-38.5048 132.906,-27.3265 138.518,-19.7511"/>
<polygon fill="midnightblue" stroke="midnightblue" points="114.745,-45.9641 111.605,-56.083 120.37,-50.1307 114.745,-45.9641"/>
</g>
</g>
</svg>
