<?xml version="1.0" encoding="UTF-8" standalone="no"?>
<!DOCTYPE svg PUBLIC "-//W3C//DTD SVG 1.1//EN"
 "http://www.w3.org/Graphics/SVG/1.1/DTD/svg11.dtd">
<!-- Generated by graphviz version 2.36.0 (20140111.2315)
 -->
<!-- Title: hpp::manipulation::graph::GraphComponent Pages: 1 -->
<svg width="448pt" height="209pt"
 viewBox="0.00 0.00 448.00 209.00" xmlns="http://www.w3.org/2000/svg" xmlns:xlink="http://www.w3.org/1999/xlink">
<g id="graph0" class="graph" transform="scale(1 1) rotate(0) translate(4 205)">
<title>hpp::manipulation::graph::GraphComponent</title>
<polygon fill="white" stroke="none" points="-4,4 -4,-205 444,-205 444,4 -4,4"/>
<!-- Node1 -->
<g id="node1" class="node"><title>Node1</title>
<polygon fill="#bfbfbf" stroke="black" points="0.5,-73 0.5,-103 123.5,-103 123.5,-73 0.5,-73"/>
<text text-anchor="start" x="8.5" y="-91" font-family="Helvetica,sans-Serif" font-size="10.00">hpp::manipulation::</text>
<text text-anchor="middle" x="62" y="-80" font-family="Helvetica,sans-Serif" font-size="10.00">graph::GraphComponent</text>
</g>
<!-- Node2 -->
<g id="node2" class="node"><title>Node2</title>
<g id="a_node2"><a xlink:href="a00014.html" target="_top" xlink:title="Abstract class representing representing the link between two nodes. ">
<polygon fill="white" stroke="black" points="163.5,-147 163.5,-177 262.5,-177 262.5,-147 163.5,-147"/>
<text text-anchor="start" x="171.5" y="-165" font-family="Helvetica,sans-Serif" font-size="10.00">hpp::manipulation::</text>
<text text-anchor="middle" x="213" y="-154" font-family="Helvetica,sans-Serif" font-size="10.00">graph::Edge</text>
</a>
</g>
</g>
<!-- Node1&#45;&gt;Node2 -->
<g id="edge1" class="edge"><title>Node1&#45;&gt;Node2</title>
<path fill="none" stroke="midnightblue" d="M101.567,-107.7C119.321,-116.713 140.689,-127.482 160,-137 166.559,-140.233 173.605,-143.655 180.328,-146.895"/>
<polygon fill="midnightblue" stroke="midnightblue" points="103.142,-104.575 92.6419,-103.163 99.97,-110.815 103.142,-104.575"/>
</g>
<!-- Node5 -->
<g id="node5" class="node"><title>Node5</title>
<g id="a_node5"><a xlink:href="a00017.html" target="_top" xlink:title="Description of the constraint graph. ">
<polygon fill="white" stroke="black" points="163.5,-98 163.5,-128 262.5,-128 262.5,-98 163.5,-98"/>
<text text-anchor="start" x="171.5" y="-116" font-family="Helvetica,sans-Serif" font-size="10.00">hpp::manipulation::</text>
<text text-anchor="middle" x="213" y="-105" font-family="Helvetica,sans-Serif" font-size="10.00">graph::Graph</text>
</a>
</g>
</g>
<!-- Node1&#45;&gt;Node5 -->
<g id="edge4" class="edge"><title>Node1&#45;&gt;Node5</title>
<path fill="none" stroke="midnightblue" d="M133.6,-99.8457C143.655,-101.533 153.805,-103.236 163.315,-104.831"/>
<polygon fill="midnightblue" stroke="midnightblue" points="134.045,-96.3715 123.604,-98.1685 132.887,-103.275 134.045,-96.3715"/>
</g>
<!-- Node6 -->
<g id="node6" class="node"><title>Node6</title>
<g id="a_node6"><a xlink:href="a00030.html" target="_top" xlink:title="State of an end&#45;effector. ">
<polygon fill="white" stroke="black" points="163.5,-49 163.5,-79 262.5,-79 262.5,-49 163.5,-49"/>
<text text-anchor="start" x="171.5" y="-67" font-family="Helvetica,sans-Serif" font-size="10.00">hpp::manipulation::</text>
<text text-anchor="middle" x="213" y="-56" font-family="Helvetica,sans-Serif" font-size="10.00">graph::Node</text>
</a>
</g>
</g>
<!-- Node1&#45;&gt;Node6 -->
<g id="edge5" class="edge"><title>Node1&#45;&gt;Node6</title>
<path fill="none" stroke="midnightblue" d="M133.6,-76.6282C143.655,-75.0086 153.805,-73.3737 163.315,-71.8419"/>
<polygon fill="midnightblue" stroke="midnightblue" points="132.92,-73.1925 123.604,-78.2383 134.033,-80.1034 132.92,-73.1925"/>
</g>
<!-- Node7 -->
<g id="node7" class="node"><title>Node7</title>
<g id="a_node7"><a xlink:href="a00033.html" target="_top" xlink:title="This class is used to get the state of a configuration. ">
<polygon fill="white" stroke="black" points="160,-0 160,-30 266,-30 266,-0 160,-0"/>
<text text-anchor="start" x="168" y="-18" font-family="Helvetica,sans-Serif" font-size="10.00">hpp::manipulation::</text>
<text text-anchor="middle" x="213" y="-7" font-family="Helvetica,sans-Serif" font-size="10.00">graph::NodeSelector</text>
</a>
</g>
</g>
<!-- Node1&#45;&gt;Node7 -->
<g id="edge6" class="edge"><title>Node1&#45;&gt;Node7</title>
<path fill="none" stroke="midnightblue" d="M102.49,-68.3319C120.074,-59.6071 141.049,-49.244 160,-40 166.662,-36.7503 173.818,-33.2904 180.625,-30.0133"/>
<polygon fill="midnightblue" stroke="midnightblue" points="100.504,-65.4102 93.1048,-72.993 103.618,-71.6796 100.504,-65.4102"/>
</g>
<!-- Node3 -->
<g id="node3" class="node"><title>Node3</title>
<g id="a_node3"><a xlink:href="a00028.html" target="_top" xlink:title="Edge that find intersection of level set. ">
<polygon fill="white" stroke="black" points="317.5,-171 317.5,-201 424.5,-201 424.5,-171 317.5,-171"/>
<text text-anchor="start" x="325.5" y="-189" font-family="Helvetica,sans-Serif" font-size="10.00">hpp::manipulation::</text>
<text text-anchor="middle" x="371" y="-178" font-family="Helvetica,sans-Serif" font-size="10.00">graph::LevelSetEdge</text>
</a>
</g>
</g>
<!-- Node2&#45;&gt;Node3 -->
<g id="edge2" class="edge"><title>Node2&#45;&gt;Node3</title>
<path fill="none" stroke="midnightblue" d="M272.53,-171.005C287.281,-173.274 303.026,-175.696 317.462,-177.917"/>
<polygon fill="midnightblue" stroke="midnightblue" points="272.92,-167.524 262.504,-169.462 271.856,-174.442 272.92,-167.524"/>
</g>
<!-- Node4 -->
<g id="node4" class="node"><title>Node4</title>
<g id="a_node4"><a xlink:href="a00042.html" target="_top" xlink:title="Edge with waypoint. ">
<polygon fill="white" stroke="black" points="316,-122 316,-152 426,-152 426,-122 316,-122"/>
<text text-anchor="start" x="324" y="-140" font-family="Helvetica,sans-Serif" font-size="10.00">hpp::manipulation::</text>
<text text-anchor="middle" x="371" y="-129" font-family="Helvetica,sans-Serif" font-size="10.00">graph::WaypointEdge</text>
</a>
</g>
</g>
<!-- Node2&#45;&gt;Node4 -->
<g id="edge3" class="edge"><title>Node2&#45;&gt;Node4</title>
<path fill="none" stroke="midnightblue" d="M272.628,-152.604C286.793,-150.335 301.867,-147.919 315.817,-145.683"/>
<polygon fill="midnightblue" stroke="midnightblue" points="271.824,-149.189 262.504,-154.227 272.932,-156.1 271.824,-149.189"/>
</g>
<!-- Node8 -->
<g id="node8" class="node"><title>Node8</title>
<g id="a_node8"><a xlink:href="a00023.html" target="_top" xlink:title="hpp::manipulation::\lgraph::GuidedNodeSelector">
<polygon fill="white" stroke="black" points="302.5,-0 302.5,-30 439.5,-30 439.5,-0 302.5,-0"/>
<text text-anchor="start" x="310.5" y="-18" font-family="Helvetica,sans-Serif" font-size="10.00">hpp::manipulation::</text>
<text text-anchor="middle" x="371" y="-7" font-family="Helvetica,sans-Serif" font-size="10.00">graph::GuidedNodeSelector</text>
</a>
</g>
</g>
<!-- Node7&#45;&gt;Node8 -->
<g id="edge7" class="edge"><title>Node7&#45;&gt;Node8</title>
<path fill="none" stroke="midnightblue" d="M276.54,-15C284.995,-15 293.703,-15 302.244,-15"/>
<polygon fill="midnightblue" stroke="midnightblue" points="276.38,-11.5001 266.38,-15 276.38,-18.5001 276.38,-11.5001"/>
</g>
</g>
</svg>
