<?xml version="1.0" encoding="UTF-8" standalone="no"?>
<!DOCTYPE svg PUBLIC "-//W3C//DTD SVG 1.1//EN"
 "http://www.w3.org/Graphics/SVG/1.1/DTD/svg11.dtd">
<!-- Generated by graphviz version 2.36.0 (20140111.2315)
 -->
<!-- Title: small&#45;steps.hh Pages: 1 -->
<svg width="790pt" height="784pt"
 viewBox="0.00 0.00 790.00 784.00" xmlns="http://www.w3.org/2000/svg" xmlns:xlink="http://www.w3.org/1999/xlink">
<g id="graph0" class="graph" transform="scale(1 1) rotate(0) translate(4 780)">
<title>small&#45;steps.hh</title>
<polygon fill="white" stroke="none" points="-4,4 -4,-780 786,-780 786,4 -4,4"/>
<!-- Node1 -->
<g id="node1" class="node"><title>Node1</title>
<polygon fill="#bfbfbf" stroke="black" points="343,-756.5 343,-775.5 423,-775.5 423,-756.5 343,-756.5"/>
<text text-anchor="middle" x="383" y="-763.5" font-family="Helvetica,sans-Serif" font-size="10.00">small&#45;steps.hh</text>
</g>
<!-- Node2 -->
<g id="node2" class="node"><title>Node2</title>
<g id="a_node2"><a xlink:href="a00001.html" target="_top" xlink:title="hpp/manipulation/fwd.hh">
<polygon fill="white" stroke="black" points="211,-644.5 211,-663.5 333,-663.5 333,-644.5 211,-644.5"/>
<text text-anchor="middle" x="272" y="-651.5" font-family="Helvetica,sans-Serif" font-size="10.00">hpp/manipulation/fwd.hh</text>
</a>
</g>
</g>
<!-- Node1&#45;&gt;Node2 -->
<g id="edge1" class="edge"><title>Node1&#45;&gt;Node2</title>
<path fill="none" stroke="midnightblue" d="M362.554,-756.361C346.241,-748.679 323.614,-736.164 308,-720 295.002,-706.544 285.177,-687.472 279.102,-673.467"/>
<polygon fill="midnightblue" stroke="midnightblue" points="282.222,-671.851 275.196,-663.921 275.744,-674.502 282.222,-671.851"/>
</g>
<!-- Node27 -->
<g id="node27" class="node"><title>Node27</title>
<polygon fill="white" stroke="#bfbfbf" points="467.5,-700.5 467.5,-719.5 600.5,-719.5 600.5,-700.5 467.5,-700.5"/>
<text text-anchor="middle" x="534" y="-707.5" font-family="Helvetica,sans-Serif" font-size="10.00">hpp/manipulation/config.hh</text>
</g>
<!-- Node1&#45;&gt;Node27 -->
<g id="edge42" class="edge"><title>Node1&#45;&gt;Node27</title>
<path fill="none" stroke="midnightblue" d="M406.926,-756.444C432.219,-747.399 472.302,-733.064 500.68,-722.916"/>
<polygon fill="midnightblue" stroke="midnightblue" points="501.948,-726.179 510.186,-719.516 499.591,-719.588 501.948,-726.179"/>
</g>
<!-- Node28 -->
<g id="node28" class="node"><title>Node28</title>
<g id="a_node28"><a doxygen="https://jmirabel.github.io/hpp-doc/api/hpp-core/doxygen-html/hpp-core.doxytag:https://jmirabel.github.io/hpp-doc/api/hpp-core/doxygen-html/" xlink:href="https://jmirabel.github.io/hpp-doc/api/hpp-core/doxygen-html/a00129.html" target="_top" xlink:title="hpp/core/path&#45;optimizer.hh">
<polygon fill="white" stroke="black" points="317,-700.5 317,-719.5 449,-719.5 449,-700.5 317,-700.5"/>
<text text-anchor="middle" x="383" y="-707.5" font-family="Helvetica,sans-Serif" font-size="10.00">hpp/core/path&#45;optimizer.hh</text>
</a>
</g>
</g>
<!-- Node1&#45;&gt;Node28 -->
<g id="edge43" class="edge"><title>Node1&#45;&gt;Node28</title>
<path fill="none" stroke="midnightblue" d="M383,-756.083C383,-749.006 383,-738.861 383,-729.986"/>
<polygon fill="midnightblue" stroke="midnightblue" points="386.5,-729.751 383,-719.751 379.5,-729.751 386.5,-729.751"/>
</g>
<!-- Node3 -->
<g id="node3" class="node"><title>Node3</title>
<polygon fill="white" stroke="#bfbfbf" points="-0.5,-582.5 -0.5,-601.5 34.5,-601.5 34.5,-582.5 -0.5,-582.5"/>
<text text-anchor="middle" x="17" y="-589.5" font-family="Helvetica,sans-Serif" font-size="10.00">map</text>
</g>
<!-- Node2&#45;&gt;Node3 -->
<g id="edge2" class="edge"><title>Node2&#45;&gt;Node3</title>
<path fill="none" stroke="midnightblue" d="M210.592,-646.167C163.879,-639.717 98.5576,-627.976 44,-608 42.5838,-607.481 41.1529,-606.896 39.7276,-606.264"/>
<polygon fill="midnightblue" stroke="midnightblue" points="41.1208,-603.046 30.6186,-601.649 37.9569,-609.291 41.1208,-603.046"/>
</g>
<!-- Node4 -->
<g id="node4" class="node"><title>Node4</title>
<g id="a_node4"><a doxygen="https://jmirabel.github.io/hpp-doc/api/hpp-core/doxygen-html/hpp-core.doxytag:https://jmirabel.github.io/hpp-doc/api/hpp-core/doxygen-html/" xlink:href="https://jmirabel.github.io/hpp-doc/api/hpp-core/doxygen-html/a00001.html" target="_top" xlink:title="hpp/core/fwd.hh">
<polygon fill="white" stroke="black" points="365,-582.5 365,-601.5 451,-601.5 451,-582.5 365,-582.5"/>
<text text-anchor="middle" x="408" y="-589.5" font-family="Helvetica,sans-Serif" font-size="10.00">hpp/core/fwd.hh</text>
</a>
</g>
</g>
<!-- Node2&#45;&gt;Node4 -->
<g id="edge3" class="edge"><title>Node2&#45;&gt;Node4</title>
<path fill="none" stroke="midnightblue" d="M291.485,-644.403C314.41,-634.29 352.685,-617.404 379.075,-605.761"/>
<polygon fill="midnightblue" stroke="midnightblue" points="380.814,-608.819 388.551,-601.581 377.989,-602.415 380.814,-608.819"/>
</g>
<!-- Node5 -->
<g id="node5" class="node"><title>Node5</title>
<g id="a_node5"><a doxygen="https://jmirabel.github.io/hpp-doc/api/hpp-fcl/doxygen-html/hpp-fcl.doxytag:https://jmirabel.github.io/hpp-doc/api/hpp-fcl/doxygen-html/" xlink:href="https://jmirabel.github.io/hpp-doc/api/hpp-fcl/doxygen-html/a00292.html" target="_top" xlink:title="hpp/fcl/shape/geometric\l_shapes.h">
<polygon fill="white" stroke="black" points="52.5,-577 52.5,-607 173.5,-607 173.5,-577 52.5,-577"/>
<text text-anchor="start" x="60.5" y="-595" font-family="Helvetica,sans-Serif" font-size="10.00">hpp/fcl/shape/geometric</text>
<text text-anchor="middle" x="113" y="-584" font-family="Helvetica,sans-Serif" font-size="10.00">_shapes.h</text>
</a>
</g>
</g>
<!-- Node2&#45;&gt;Node5 -->
<g id="edge4" class="edge"><title>Node2&#45;&gt;Node5</title>
<path fill="none" stroke="midnightblue" d="M249.219,-644.403C225.998,-635.641 189.305,-621.794 159.849,-610.679"/>
<polygon fill="midnightblue" stroke="midnightblue" points="160.759,-607.281 150.167,-607.025 158.287,-613.831 160.759,-607.281"/>
</g>
<!-- Node26 -->
<g id="node26" class="node"><title>Node26</title>
<polygon fill="white" stroke="#bfbfbf" points="191.5,-582.5 191.5,-601.5 346.5,-601.5 346.5,-582.5 191.5,-582.5"/>
<text text-anchor="middle" x="269" y="-589.5" font-family="Helvetica,sans-Serif" font-size="10.00">hpp/manipulation/deprecated.hh</text>
</g>
<!-- Node2&#45;&gt;Node26 -->
<g id="edge41" class="edge"><title>Node2&#45;&gt;Node26</title>
<path fill="none" stroke="midnightblue" d="M271.57,-644.403C271.147,-635.938 270.486,-622.728 269.941,-611.82"/>
<polygon fill="midnightblue" stroke="midnightblue" points="273.424,-611.393 269.429,-601.581 266.433,-611.743 273.424,-611.393"/>
</g>
<!-- Node6 -->
<g id="node6" class="node"><title>Node6</title>
<g id="a_node6"><a doxygen="https://jmirabel.github.io/hpp-doc/api/hpp-fcl/doxygen-html/hpp-fcl.doxytag:https://jmirabel.github.io/hpp-doc/api/hpp-fcl/doxygen-html/" xlink:href="https://jmirabel.github.io/hpp-doc/api/hpp-fcl/doxygen-html/a00280.html" target="_top" xlink:title="hpp/fcl/collision_object.h">
<polygon fill="white" stroke="black" points="109,-520.5 109,-539.5 233,-539.5 233,-520.5 109,-520.5"/>
<text text-anchor="middle" x="171" y="-527.5" font-family="Helvetica,sans-Serif" font-size="10.00">hpp/fcl/collision_object.h</text>
</a>
</g>
</g>
<!-- Node5&#45;&gt;Node6 -->
<g id="edge5" class="edge"><title>Node5&#45;&gt;Node6</title>
<path fill="none" stroke="midnightblue" d="M126.745,-576.781C135.347,-567.882 146.452,-556.394 155.386,-547.152"/>
<polygon fill="midnightblue" stroke="midnightblue" points="158.127,-549.353 162.56,-539.731 153.094,-544.488 158.127,-549.353"/>
</g>
<!-- Node9 -->
<g id="node9" class="node"><title>Node9</title>
<g id="a_node9"><a doxygen="https://jmirabel.github.io/hpp-doc/api/hpp-fcl/doxygen-html/hpp-fcl.doxytag:https://jmirabel.github.io/hpp-doc/api/hpp-fcl/doxygen-html/" xlink:href="https://jmirabel.github.io/hpp-doc/api/hpp-fcl/doxygen-html/a00356.html" target="_top" xlink:title="hpp/fcl/math/vec_3f.h">
<polygon fill="white" stroke="black" points="268.5,-124.5 268.5,-143.5 379.5,-143.5 379.5,-124.5 268.5,-124.5"/>
<text text-anchor="middle" x="324" y="-131.5" font-family="Helvetica,sans-Serif" font-size="10.00">hpp/fcl/math/vec_3f.h</text>
</a>
</g>
</g>
<!-- Node5&#45;&gt;Node9 -->
<g id="edge40" class="edge"><title>Node5&#45;&gt;Node9</title>
<path fill="none" stroke="midnightblue" d="M100.775,-576.687C83.4937,-554.939 54,-511.585 54,-469 54,-469 54,-469 54,-263 54,-172.832 178.469,-146.098 258.387,-138.227"/>
<polygon fill="midnightblue" stroke="midnightblue" points="258.742,-141.709 268.383,-137.317 258.107,-134.738 258.742,-141.709"/>
</g>
<!-- Node7 -->
<g id="node7" class="node"><title>Node7</title>
<g id="a_node7"><a doxygen="https://jmirabel.github.io/hpp-doc/api/hpp-fcl/doxygen-html/hpp-fcl.doxytag:https://jmirabel.github.io/hpp-doc/api/hpp-fcl/doxygen-html/" xlink:href="https://jmirabel.github.io/hpp-doc/api/hpp-fcl/doxygen-html/a00284.html" target="_top" xlink:title="hpp/fcl/deprecated.h">
<polygon fill="white" stroke="black" points="199.5,-458.5 199.5,-477.5 304.5,-477.5 304.5,-458.5 199.5,-458.5"/>
<text text-anchor="middle" x="252" y="-465.5" font-family="Helvetica,sans-Serif" font-size="10.00">hpp/fcl/deprecated.h</text>
</a>
</g>
</g>
<!-- Node6&#45;&gt;Node7 -->
<g id="edge6" class="edge"><title>Node6&#45;&gt;Node7</title>
<path fill="none" stroke="midnightblue" d="M182.605,-520.403C195.477,-510.869 216.474,-495.315 232.006,-483.811"/>
<polygon fill="midnightblue" stroke="midnightblue" points="234.464,-486.345 240.416,-477.581 230.297,-480.72 234.464,-486.345"/>
</g>
<!-- Node8 -->
<g id="node8" class="node"><title>Node8</title>
<g id="a_node8"><a doxygen="https://jmirabel.github.io/hpp-doc/api/hpp-fcl/doxygen-html/hpp-fcl.doxytag:https://jmirabel.github.io/hpp-doc/api/hpp-fcl/doxygen-html/" xlink:href="https://jmirabel.github.io/hpp-doc/api/hpp-fcl/doxygen-html/a00257.html" target="_top" xlink:title="hpp/fcl/BV/AABB.h">
<polygon fill="white" stroke="black" points="82.5,-390.5 82.5,-409.5 183.5,-409.5 183.5,-390.5 82.5,-390.5"/>
<text text-anchor="middle" x="133" y="-397.5" font-family="Helvetica,sans-Serif" font-size="10.00">hpp/fcl/BV/AABB.h</text>
</a>
</g>
</g>
<!-- Node6&#45;&gt;Node8 -->
<g id="edge7" class="edge"><title>Node6&#45;&gt;Node8</title>
<path fill="none" stroke="midnightblue" d="M168.264,-520.389C165.404,-511.343 160.81,-496.695 157,-484 150.351,-461.843 143.003,-436.261 138.211,-419.42"/>
<polygon fill="midnightblue" stroke="midnightblue" points="141.562,-418.405 135.465,-409.74 134.827,-420.316 141.562,-418.405"/>
</g>
<!-- Node14 -->
<g id="node14" class="node"><title>Node14</title>
<g id="a_node14"><a doxygen="https://jmirabel.github.io/hpp-doc/api/hpp-fcl/doxygen-html/hpp-fcl.doxytag:https://jmirabel.github.io/hpp-doc/api/hpp-fcl/doxygen-html/" xlink:href="https://jmirabel.github.io/hpp-doc/api/hpp-fcl/doxygen-html/a00348.html" target="_top" xlink:title="hpp/fcl/math/transform.h">
<polygon fill="white" stroke="black" points="201.5,-390.5 201.5,-409.5 324.5,-409.5 324.5,-390.5 201.5,-390.5"/>
<text text-anchor="middle" x="263" y="-397.5" font-family="Helvetica,sans-Serif" font-size="10.00">hpp/fcl/math/transform.h</text>
</a>
</g>
</g>
<!-- Node6&#45;&gt;Node14 -->
<g id="edge14" class="edge"><title>Node6&#45;&gt;Node14</title>
<path fill="none" stroke="midnightblue" d="M171.209,-520.105C171.972,-504.865 175.353,-473.343 190,-452 201.084,-435.849 219.078,-423.192 234.428,-414.528"/>
<polygon fill="midnightblue" stroke="midnightblue" points="236.385,-417.45 243.557,-409.653 233.088,-411.275 236.385,-417.45"/>
</g>
<!-- Node16 -->
<g id="node16" class="node"><title>Node16</title>
<g id="a_node16"><a doxygen="https://jmirabel.github.io/hpp-doc/api/hpp-fcl/doxygen-html/hpp-fcl.doxytag:https://jmirabel.github.io/hpp-doc/api/hpp-fcl/doxygen-html/" xlink:href="https://jmirabel.github.io/hpp-doc/api/hpp-fcl/doxygen-html/a00325.html" target="_top" xlink:title="hpp/fcl/ccd/motion\l_base.h">
<polygon fill="white" stroke="black" points="322.5,-453 322.5,-483 419.5,-483 419.5,-453 322.5,-453"/>
<text text-anchor="start" x="330.5" y="-471" font-family="Helvetica,sans-Serif" font-size="10.00">hpp/fcl/ccd/motion</text>
<text text-anchor="middle" x="371" y="-460" font-family="Helvetica,sans-Serif" font-size="10.00">_base.h</text>
</a>
</g>
</g>
<!-- Node6&#45;&gt;Node16 -->
<g id="edge17" class="edge"><title>Node6&#45;&gt;Node16</title>
<path fill="none" stroke="midnightblue" d="M199.655,-520.403C229.5,-511.45 277.034,-497.19 314.474,-485.958"/>
<polygon fill="midnightblue" stroke="midnightblue" points="315.676,-489.251 324.249,-483.025 313.665,-482.546 315.676,-489.251"/>
</g>
<!-- Node8&#45;&gt;Node9 -->
<g id="edge8" class="edge"><title>Node8&#45;&gt;Node9</title>
<path fill="none" stroke="midnightblue" d="M133.169,-390.242C133.975,-366.092 138.6,-297.09 165,-248 192.239,-197.348 253.31,-164.171 291.338,-147.574"/>
<polygon fill="midnightblue" stroke="midnightblue" points="293.089,-150.635 300.941,-143.522 290.367,-144.186 293.089,-150.635"/>
</g>
<!-- Node10 -->
<g id="node10" class="node"><title>Node10</title>
<g id="a_node10"><a doxygen="https://jmirabel.github.io/hpp-doc/api/hpp-fcl/doxygen-html/hpp-fcl.doxytag:https://jmirabel.github.io/hpp-doc/api/hpp-fcl/doxygen-html/" xlink:href="https://jmirabel.github.io/hpp-doc/api/hpp-fcl/doxygen-html/a00283.html" target="_top" xlink:title="hpp/fcl/data_types.h">
<polygon fill="white" stroke="black" points="336.5,-0.5 336.5,-19.5 441.5,-19.5 441.5,-0.5 336.5,-0.5"/>
<text text-anchor="middle" x="389" y="-7.5" font-family="Helvetica,sans-Serif" font-size="10.00">hpp/fcl/data_types.h</text>
</a>
</g>
</g>
<!-- Node9&#45;&gt;Node10 -->
<g id="edge9" class="edge"><title>Node9&#45;&gt;Node10</title>
<path fill="none" stroke="midnightblue" d="M328.865,-124.412C333.956,-115.386 342.147,-100.753 349,-88 359.88,-67.7535 372,-44.2888 380.017,-28.6341"/>
<polygon fill="midnightblue" stroke="midnightblue" points="383.206,-30.0844 384.638,-19.5868 376.972,-26.9001 383.206,-30.0844"/>
</g>
<!-- Node11 -->
<g id="node11" class="node"><title>Node11</title>
<g id="a_node11"><a doxygen="https://jmirabel.github.io/hpp-doc/api/hpp-fcl/doxygen-html/hpp-fcl.doxytag:https://jmirabel.github.io/hpp-doc/api/hpp-fcl/doxygen-html/" xlink:href="https://jmirabel.github.io/hpp-doc/api/hpp-fcl/doxygen-html/a00316.html" target="_top" xlink:title="hpp/fcl/eigen/math\l_details.h">
<polygon fill="white" stroke="black" points="396.5,-57 396.5,-87 493.5,-87 493.5,-57 396.5,-57"/>
<text text-anchor="start" x="404.5" y="-75" font-family="Helvetica,sans-Serif" font-size="10.00">hpp/fcl/eigen/math</text>
<text text-anchor="middle" x="445" y="-64" font-family="Helvetica,sans-Serif" font-size="10.00">_details.h</text>
</a>
</g>
</g>
<!-- Node9&#45;&gt;Node11 -->
<g id="edge10" class="edge"><title>Node9&#45;&gt;Node11</title>
<path fill="none" stroke="midnightblue" d="M341.336,-124.403C358.49,-115.898 385.303,-102.602 407.362,-91.6635"/>
<polygon fill="midnightblue" stroke="midnightblue" points="409.079,-94.719 416.483,-87.1408 405.969,-88.4477 409.079,-94.719"/>
</g>
<!-- Node12 -->
<g id="node12" class="node"><title>Node12</title>
<g id="a_node12"><a doxygen="https://jmirabel.github.io/hpp-doc/api/hpp-fcl/doxygen-html/hpp-fcl.doxytag:https://jmirabel.github.io/hpp-doc/api/hpp-fcl/doxygen-html/" xlink:href="https://jmirabel.github.io/hpp-doc/api/hpp-fcl/doxygen-html/a00357.html" target="_top" xlink:title="hpp/fcl/eigen/vec_3fx.h">
<polygon fill="white" stroke="black" points="222,-62.5 222,-81.5 340,-81.5 340,-62.5 222,-62.5"/>
<text text-anchor="middle" x="281" y="-69.5" font-family="Helvetica,sans-Serif" font-size="10.00">hpp/fcl/eigen/vec_3fx.h</text>
</a>
</g>
</g>
<!-- Node9&#45;&gt;Node12 -->
<g id="edge11" class="edge"><title>Node9&#45;&gt;Node12</title>
<path fill="none" stroke="midnightblue" d="M317.839,-124.403C311.389,-115.403 301.096,-101.041 293.027,-89.7824"/>
<polygon fill="midnightblue" stroke="midnightblue" points="295.82,-87.6699 287.149,-81.5806 290.13,-91.7476 295.82,-87.6699"/>
</g>
<!-- Node12&#45;&gt;Node10 -->
<g id="edge12" class="edge"><title>Node12&#45;&gt;Node10</title>
<path fill="none" stroke="midnightblue" d="M296.474,-62.4035C314.278,-52.5123 343.741,-36.1442 364.632,-24.5378"/>
<polygon fill="midnightblue" stroke="midnightblue" points="366.513,-27.4966 373.555,-19.5806 363.114,-21.3775 366.513,-27.4966"/>
</g>
<!-- Node13 -->
<g id="node13" class="node"><title>Node13</title>
<g id="a_node13"><a doxygen="https://jmirabel.github.io/hpp-doc/api/hpp-fcl/doxygen-html/hpp-fcl.doxytag:https://jmirabel.github.io/hpp-doc/api/hpp-fcl/doxygen-html/" xlink:href="https://jmirabel.github.io/hpp-doc/api/hpp-fcl/doxygen-html/a00336.html" target="_top" xlink:title="hpp/fcl/eigen/product.h">
<polygon fill="white" stroke="black" points="202,-0.5 202,-19.5 318,-19.5 318,-0.5 202,-0.5"/>
<text text-anchor="middle" x="260" y="-7.5" font-family="Helvetica,sans-Serif" font-size="10.00">hpp/fcl/eigen/product.h</text>
</a>
</g>
</g>
<!-- Node12&#45;&gt;Node13 -->
<g id="edge13" class="edge"><title>Node12&#45;&gt;Node13</title>
<path fill="none" stroke="midnightblue" d="M277.991,-62.4035C274.966,-53.7599 270.21,-40.17 266.347,-29.1341"/>
<polygon fill="midnightblue" stroke="midnightblue" points="269.61,-27.8629 263.003,-19.5806 263.003,-30.1754 269.61,-27.8629"/>
</g>
<!-- Node15 -->
<g id="node15" class="node"><title>Node15</title>
<g id="a_node15"><a doxygen="https://jmirabel.github.io/hpp-doc/api/hpp-fcl/doxygen-html/hpp-fcl.doxytag:https://jmirabel.github.io/hpp-doc/api/hpp-fcl/doxygen-html/" xlink:href="https://jmirabel.github.io/hpp-doc/api/hpp-fcl/doxygen-html/a00319.html" target="_top" xlink:title="hpp/fcl/math/matrix_3f.h">
<polygon fill="white" stroke="black" points="263,-186.5 263,-205.5 385,-205.5 385,-186.5 263,-186.5"/>
<text text-anchor="middle" x="324" y="-193.5" font-family="Helvetica,sans-Serif" font-size="10.00">hpp/fcl/math/matrix_3f.h</text>
</a>
</g>
</g>
<!-- Node14&#45;&gt;Node15 -->
<g id="edge15" class="edge"><title>Node14&#45;&gt;Node15</title>
<path fill="none" stroke="midnightblue" d="M265.621,-390.32C274.79,-359.958 305.56,-258.064 318.35,-215.71"/>
<polygon fill="midnightblue" stroke="midnightblue" points="321.78,-216.46 321.32,-205.875 315.078,-214.436 321.78,-216.46"/>
</g>
<!-- Node15&#45;&gt;Node9 -->
<g id="edge16" class="edge"><title>Node15&#45;&gt;Node9</title>
<path fill="none" stroke="midnightblue" d="M324,-186.403C324,-177.938 324,-164.728 324,-153.82"/>
<polygon fill="midnightblue" stroke="midnightblue" points="327.5,-153.581 324,-143.581 320.5,-153.581 327.5,-153.581"/>
</g>
<!-- Node16&#45;&gt;Node14 -->
<g id="edge18" class="edge"><title>Node16&#45;&gt;Node14</title>
<path fill="none" stroke="midnightblue" d="M347.831,-452.841C329.569,-441.681 304.233,-426.198 286.011,-415.063"/>
<polygon fill="midnightblue" stroke="midnightblue" points="287.565,-411.91 277.207,-409.682 283.914,-417.883 287.565,-411.91"/>
</g>
<!-- Node17 -->
<g id="node17" class="node"><title>Node17</title>
<g id="a_node17"><a doxygen="https://jmirabel.github.io/hpp-doc/api/hpp-fcl/doxygen-html/hpp-fcl.doxytag:https://jmirabel.github.io/hpp-doc/api/hpp-fcl/doxygen-html/" xlink:href="https://jmirabel.github.io/hpp-doc/api/hpp-fcl/doxygen-html/a00343.html" target="_top" xlink:title="hpp/fcl/ccd/taylor\l_matrix.h">
<polygon fill="white" stroke="black" points="381,-385 381,-415 473,-415 473,-385 381,-385"/>
<text text-anchor="start" x="389" y="-403" font-family="Helvetica,sans-Serif" font-size="10.00">hpp/fcl/ccd/taylor</text>
<text text-anchor="middle" x="427" y="-392" font-family="Helvetica,sans-Serif" font-size="10.00">_matrix.h</text>
</a>
</g>
</g>
<!-- Node16&#45;&gt;Node17 -->
<g id="edge19" class="edge"><title>Node16&#45;&gt;Node17</title>
<path fill="none" stroke="midnightblue" d="M383.151,-452.679C390.49,-444.03 399.993,-432.829 408.276,-423.067"/>
<polygon fill="midnightblue" stroke="midnightblue" points="411.072,-425.183 414.873,-415.293 405.734,-420.654 411.072,-425.183"/>
</g>
<!-- Node18 -->
<g id="node18" class="node"><title>Node18</title>
<g id="a_node18"><a doxygen="https://jmirabel.github.io/hpp-doc/api/hpp-fcl/doxygen-html/hpp-fcl.doxytag:https://jmirabel.github.io/hpp-doc/api/hpp-fcl/doxygen-html/" xlink:href="https://jmirabel.github.io/hpp-doc/api/hpp-fcl/doxygen-html/a00346.html" target="_top" xlink:title="hpp/fcl/ccd/taylor\l_vector.h">
<polygon fill="white" stroke="black" points="495,-317 495,-347 587,-347 587,-317 495,-317"/>
<text text-anchor="start" x="503" y="-335" font-family="Helvetica,sans-Serif" font-size="10.00">hpp/fcl/ccd/taylor</text>
<text text-anchor="middle" x="541" y="-324" font-family="Helvetica,sans-Serif" font-size="10.00">_vector.h</text>
</a>
</g>
</g>
<!-- Node16&#45;&gt;Node18 -->
<g id="edge36" class="edge"><title>Node16&#45;&gt;Node18</title>
<path fill="none" stroke="midnightblue" d="M414.831,-452.962C436.573,-444.556 462.319,-432.301 482,-416 502.174,-399.29 518.76,-374.118 529.153,-355.877"/>
<polygon fill="midnightblue" stroke="midnightblue" points="532.255,-357.501 534.01,-347.052 526.122,-354.126 532.255,-357.501"/>
</g>
<!-- Node25 -->
<g id="node25" class="node"><title>Node25</title>
<g id="a_node25"><a doxygen="https://jmirabel.github.io/hpp-doc/api/hpp-fcl/doxygen-html/hpp-fcl.doxytag:https://jmirabel.github.io/hpp-doc/api/hpp-fcl/doxygen-html/" xlink:href="https://jmirabel.github.io/hpp-doc/api/hpp-fcl/doxygen-html/a00338.html" target="_top" xlink:title="hpp/fcl/BV/RSS.h">
<polygon fill="white" stroke="black" points="174.5,-254.5 174.5,-273.5 269.5,-273.5 269.5,-254.5 174.5,-254.5"/>
<text text-anchor="middle" x="222" y="-261.5" font-family="Helvetica,sans-Serif" font-size="10.00">hpp/fcl/BV/RSS.h</text>
</a>
</g>
</g>
<!-- Node16&#45;&gt;Node25 -->
<g id="edge37" class="edge"><title>Node16&#45;&gt;Node25</title>
<path fill="none" stroke="midnightblue" d="M366.091,-452.772C359.828,-435.643 347.989,-406.387 333,-384 305.301,-342.63 263.139,-301.827 239.55,-280.414"/>
<polygon fill="midnightblue" stroke="midnightblue" points="241.819,-277.747 232.036,-273.679 237.147,-282.96 241.819,-277.747"/>
</g>
<!-- Node17&#45;&gt;Node15 -->
<g id="edge20" class="edge"><title>Node17&#45;&gt;Node15</title>
<path fill="none" stroke="midnightblue" d="M405.795,-384.976C393.438,-375.8 378.473,-362.792 369,-348 341.782,-305.497 330.422,-245.822 326.2,-215.807"/>
<polygon fill="midnightblue" stroke="midnightblue" points="329.625,-215.002 324.876,-205.532 322.683,-215.897 329.625,-215.002"/>
</g>
<!-- Node17&#45;&gt;Node18 -->
<g id="edge21" class="edge"><title>Node17&#45;&gt;Node18</title>
<path fill="none" stroke="midnightblue" d="M451.456,-384.841C467.835,-375.359 489.607,-362.754 507.58,-352.348"/>
<polygon fill="midnightblue" stroke="midnightblue" points="509.684,-355.175 516.585,-347.135 506.177,-349.117 509.684,-355.175"/>
</g>
<!-- Node24 -->
<g id="node24" class="node"><title>Node24</title>
<g id="a_node24"><a doxygen="https://jmirabel.github.io/hpp-doc/api/hpp-fcl/doxygen-html/hpp-fcl.doxytag:https://jmirabel.github.io/hpp-doc/api/hpp-fcl/doxygen-html/" xlink:href="https://jmirabel.github.io/hpp-doc/api/hpp-fcl/doxygen-html/a00307.html" target="_top" xlink:title="hpp/fcl/ccd/interval\l_matrix.h">
<polygon fill="white" stroke="black" points="377.5,-317 377.5,-347 476.5,-347 476.5,-317 377.5,-317"/>
<text text-anchor="start" x="385.5" y="-335" font-family="Helvetica,sans-Serif" font-size="10.00">hpp/fcl/ccd/interval</text>
<text text-anchor="middle" x="427" y="-324" font-family="Helvetica,sans-Serif" font-size="10.00">_matrix.h</text>
</a>
</g>
</g>
<!-- Node17&#45;&gt;Node24 -->
<g id="edge32" class="edge"><title>Node17&#45;&gt;Node24</title>
<path fill="none" stroke="midnightblue" d="M427,-384.679C427,-376.722 427,-366.605 427,-357.436"/>
<polygon fill="midnightblue" stroke="midnightblue" points="430.5,-357.293 427,-347.293 423.5,-357.293 430.5,-357.293"/>
</g>
<!-- Node19 -->
<g id="node19" class="node"><title>Node19</title>
<g id="a_node19"><a doxygen="https://jmirabel.github.io/hpp-doc/api/hpp-fcl/doxygen-html/hpp-fcl.doxytag:https://jmirabel.github.io/hpp-doc/api/hpp-fcl/doxygen-html/" xlink:href="https://jmirabel.github.io/hpp-doc/api/hpp-fcl/doxygen-html/a00309.html" target="_top" xlink:title="hpp/fcl/ccd/interval\l_vector.h">
<polygon fill="white" stroke="black" points="519.5,-249 519.5,-279 618.5,-279 618.5,-249 519.5,-249"/>
<text text-anchor="start" x="527.5" y="-267" font-family="Helvetica,sans-Serif" font-size="10.00">hpp/fcl/ccd/interval</text>
<text text-anchor="middle" x="569" y="-256" font-family="Helvetica,sans-Serif" font-size="10.00">_vector.h</text>
</a>
</g>
</g>
<!-- Node18&#45;&gt;Node19 -->
<g id="edge22" class="edge"><title>Node18&#45;&gt;Node19</title>
<path fill="none" stroke="midnightblue" d="M547.076,-316.679C550.561,-308.463 555.024,-297.943 559.013,-288.542"/>
<polygon fill="midnightblue" stroke="midnightblue" points="562.253,-289.866 562.936,-279.293 555.809,-287.132 562.253,-289.866"/>
</g>
<!-- Node22 -->
<g id="node22" class="node"><title>Node22</title>
<g id="a_node22"><a doxygen="https://jmirabel.github.io/hpp-doc/api/hpp-fcl/doxygen-html/hpp-fcl.doxytag:https://jmirabel.github.io/hpp-doc/api/hpp-fcl/doxygen-html/" xlink:href="https://jmirabel.github.io/hpp-doc/api/hpp-fcl/doxygen-html/a00344.html" target="_top" xlink:title="hpp/fcl/ccd/taylor\l_model.h">
<polygon fill="white" stroke="black" points="675,-249 675,-279 767,-279 767,-249 675,-249"/>
<text text-anchor="start" x="683" y="-267" font-family="Helvetica,sans-Serif" font-size="10.00">hpp/fcl/ccd/taylor</text>
<text text-anchor="middle" x="721" y="-256" font-family="Helvetica,sans-Serif" font-size="10.00">_model.h</text>
</a>
</g>
</g>
<!-- Node18&#45;&gt;Node22 -->
<g id="edge27" class="edge"><title>Node18&#45;&gt;Node22</title>
<path fill="none" stroke="midnightblue" d="M579.615,-316.841C606.993,-306.802 643.913,-293.265 673.159,-282.542"/>
<polygon fill="midnightblue" stroke="midnightblue" points="674.575,-285.751 682.759,-279.022 672.165,-279.178 674.575,-285.751"/>
</g>
<!-- Node23 -->
<g id="node23" class="node"><title>Node23</title>
<g id="a_node23"><a doxygen="https://jmirabel.github.io/hpp-doc/api/hpp-fcl/doxygen-html/hpp-fcl.doxytag:https://jmirabel.github.io/hpp-doc/api/hpp-fcl/doxygen-html/" xlink:href="https://jmirabel.github.io/hpp-doc/api/hpp-fcl/doxygen-html/a00345.html" target="_top" xlink:title="hpp/fcl/eigen/taylor\l_operator.h">
<polygon fill="white" stroke="black" points="402.5,-249 402.5,-279 501.5,-279 501.5,-249 402.5,-249"/>
<text text-anchor="start" x="410.5" y="-267" font-family="Helvetica,sans-Serif" font-size="10.00">hpp/fcl/eigen/taylor</text>
<text text-anchor="middle" x="452" y="-256" font-family="Helvetica,sans-Serif" font-size="10.00">_operator.h</text>
</a>
</g>
</g>
<!-- Node18&#45;&gt;Node23 -->
<g id="edge29" class="edge"><title>Node18&#45;&gt;Node23</title>
<path fill="none" stroke="midnightblue" d="M521.688,-316.679C509.241,-307.449 492.874,-295.311 479.129,-285.118"/>
<polygon fill="midnightblue" stroke="midnightblue" points="481.085,-282.212 470.968,-279.066 476.916,-287.834 481.085,-282.212"/>
</g>
<!-- Node19&#45;&gt;Node9 -->
<g id="edge25" class="edge"><title>Node19&#45;&gt;Node9</title>
<path fill="none" stroke="midnightblue" d="M539.552,-248.822C519.636,-238.993 492.892,-225.324 470,-212 447.52,-198.916 443.745,-192.617 421,-180 399.196,-167.906 373.572,-156.115 354.137,-147.639"/>
<polygon fill="midnightblue" stroke="midnightblue" points="355.433,-144.387 344.865,-143.641 352.662,-150.815 355.433,-144.387"/>
</g>
<!-- Node20 -->
<g id="node20" class="node"><title>Node20</title>
<g id="a_node20"><a doxygen="https://jmirabel.github.io/hpp-doc/api/hpp-fcl/doxygen-html/hpp-fcl.doxytag:https://jmirabel.github.io/hpp-doc/api/hpp-fcl/doxygen-html/" xlink:href="https://jmirabel.github.io/hpp-doc/api/hpp-fcl/doxygen-html/a00306.html" target="_top" xlink:title="hpp/fcl/ccd/interval.h">
<polygon fill="white" stroke="black" points="605.5,-186.5 605.5,-205.5 712.5,-205.5 712.5,-186.5 605.5,-186.5"/>
<text text-anchor="middle" x="659" y="-193.5" font-family="Helvetica,sans-Serif" font-size="10.00">hpp/fcl/ccd/interval.h</text>
</a>
</g>
</g>
<!-- Node19&#45;&gt;Node20 -->
<g id="edge23" class="edge"><title>Node19&#45;&gt;Node20</title>
<path fill="none" stroke="midnightblue" d="M588.529,-248.679C603.482,-237.713 624.03,-222.645 639.079,-211.609"/>
<polygon fill="midnightblue" stroke="midnightblue" points="641.227,-214.374 647.221,-205.638 637.087,-208.729 641.227,-214.374"/>
</g>
<!-- Node21 -->
<g id="node21" class="node"><title>Node21</title>
<g id="a_node21"><a doxygen="https://jmirabel.github.io/hpp-doc/api/hpp-fcl/doxygen-html/hpp-fcl.doxytag:https://jmirabel.github.io/hpp-doc/api/hpp-fcl/doxygen-html/" xlink:href="https://jmirabel.github.io/hpp-doc/api/hpp-fcl/doxygen-html/a00305.html" target="_top" xlink:title="hpp/fcl/eigen/plugins\l/ccd/interval&#45;vector.h">
<polygon fill="white" stroke="black" points="479,-181 479,-211 587,-211 587,-181 479,-181"/>
<text text-anchor="start" x="487" y="-199" font-family="Helvetica,sans-Serif" font-size="10.00">hpp/fcl/eigen/plugins</text>
<text text-anchor="middle" x="533" y="-188" font-family="Helvetica,sans-Serif" font-size="10.00">/ccd/interval&#45;vector.h</text>
</a>
</g>
</g>
<!-- Node19&#45;&gt;Node21 -->
<g id="edge26" class="edge"><title>Node19&#45;&gt;Node21</title>
<path fill="none" stroke="midnightblue" d="M561.189,-248.679C556.66,-240.376 550.848,-229.721 545.679,-220.245"/>
<polygon fill="midnightblue" stroke="midnightblue" points="548.657,-218.396 540.796,-211.293 542.512,-221.748 548.657,-218.396"/>
</g>
<!-- Node20&#45;&gt;Node10 -->
<g id="edge24" class="edge"><title>Node20&#45;&gt;Node10</title>
<path fill="none" stroke="midnightblue" d="M651.312,-186.359C629.825,-162.648 566.482,-95.6961 502,-56 478.817,-41.7283 450.326,-30.4184 427.752,-22.7068"/>
<polygon fill="midnightblue" stroke="midnightblue" points="428.749,-19.35 418.156,-19.5217 426.544,-25.9936 428.749,-19.35"/>
</g>
<!-- Node22&#45;&gt;Node20 -->
<g id="edge28" class="edge"><title>Node22&#45;&gt;Node20</title>
<path fill="none" stroke="midnightblue" d="M707.547,-248.679C697.784,-238.286 684.559,-224.208 674.378,-213.37"/>
<polygon fill="midnightblue" stroke="midnightblue" points="676.691,-210.72 667.293,-205.828 671.589,-215.513 676.691,-210.72"/>
</g>
<!-- Node23&#45;&gt;Node9 -->
<g id="edge30" class="edge"><title>Node23&#45;&gt;Node9</title>
<path fill="none" stroke="midnightblue" d="M444.402,-248.827C434.481,-231.225 415.789,-200.964 394,-180 381.058,-167.548 364.179,-156.578 350.238,-148.587"/>
<polygon fill="midnightblue" stroke="midnightblue" points="351.585,-145.332 341.141,-143.549 348.193,-151.456 351.585,-145.332"/>
</g>
<!-- Node23&#45;&gt;Node15 -->
<g id="edge31" class="edge"><title>Node23&#45;&gt;Node15</title>
<path fill="none" stroke="midnightblue" d="M424.541,-248.841C402.401,-237.425 371.486,-221.485 349.8,-210.303"/>
<polygon fill="midnightblue" stroke="midnightblue" points="351.33,-207.154 340.838,-205.682 348.122,-213.376 351.33,-207.154"/>
</g>
<!-- Node24&#45;&gt;Node15 -->
<g id="edge35" class="edge"><title>Node24&#45;&gt;Node15</title>
<path fill="none" stroke="midnightblue" d="M415.977,-316.66C396.767,-291.668 357.259,-240.269 336.843,-213.709"/>
<polygon fill="midnightblue" stroke="midnightblue" points="339.578,-211.523 330.708,-205.728 334.028,-215.789 339.578,-211.523"/>
</g>
<!-- Node24&#45;&gt;Node19 -->
<g id="edge34" class="edge"><title>Node24&#45;&gt;Node19</title>
<path fill="none" stroke="midnightblue" d="M457.463,-316.841C478.52,-307.054 506.732,-293.941 529.514,-283.353"/>
<polygon fill="midnightblue" stroke="midnightblue" points="530.995,-286.524 538.588,-279.135 528.044,-280.176 530.995,-286.524"/>
</g>
<!-- Node24&#45;&gt;Node20 -->
<g id="edge33" class="edge"><title>Node24&#45;&gt;Node20</title>
<path fill="none" stroke="midnightblue" d="M476.638,-318.379C535.81,-303.328 626.819,-280.161 627,-280 645.638,-263.446 653.495,-234.77 656.756,-215.839"/>
<polygon fill="midnightblue" stroke="midnightblue" points="660.248,-216.145 658.22,-205.746 653.321,-215.14 660.248,-216.145"/>
</g>
<!-- Node25&#45;&gt;Node9 -->
<g id="edge38" class="edge"><title>Node25&#45;&gt;Node9</title>
<path fill="none" stroke="midnightblue" d="M223.488,-254.341C226.635,-238.181 235.27,-202.987 254,-180 264.9,-166.623 280.866,-155.933 294.799,-148.334"/>
<polygon fill="midnightblue" stroke="midnightblue" points="296.748,-151.267 304.032,-143.573 293.54,-145.046 296.748,-151.267"/>
</g>
<!-- Node25&#45;&gt;Node15 -->
<g id="edge39" class="edge"><title>Node25&#45;&gt;Node15</title>
<path fill="none" stroke="midnightblue" d="M235.335,-254.372C252.287,-243.403 281.783,-224.317 302.068,-211.191"/>
<polygon fill="midnightblue" stroke="midnightblue" points="304.168,-214.002 310.662,-205.63 300.365,-208.125 304.168,-214.002"/>
</g>
<!-- Node28&#45;&gt;Node2 -->
<g id="edge44" class="edge"><title>Node28&#45;&gt;Node2</title>
<path fill="none" stroke="midnightblue" d="M365.166,-700.324C347.284,-691.625 319.525,-678.12 298.954,-668.113"/>
<polygon fill="midnightblue" stroke="midnightblue" points="300.313,-664.882 289.79,-663.655 297.251,-671.177 300.313,-664.882"/>
</g>
<!-- Node28&#45;&gt;Node4 -->
<g id="edge50" class="edge"><title>Node28&#45;&gt;Node4</title>
<path fill="none" stroke="midnightblue" d="M384.879,-700.281C388.935,-681.463 398.583,-636.697 404.047,-611.34"/>
<polygon fill="midnightblue" stroke="midnightblue" points="407.482,-612.018 406.167,-601.505 400.639,-610.543 407.482,-612.018"/>
</g>
<!-- Node29 -->
<g id="node29" class="node"><title>Node29</title>
<g id="a_node29"><a xlink:href="a00049.html" target="_top" xlink:title="hpp/core/fwd.hh">
<polygon fill="white" stroke="black" points="540,-644.5 540,-663.5 626,-663.5 626,-644.5 540,-644.5"/>
<text text-anchor="middle" x="583" y="-651.5" font-family="Helvetica,sans-Serif" font-size="10.00">hpp/core/fwd.hh</text>
</a>
</g>
</g>
<!-- Node28&#45;&gt;Node29 -->
<g id="edge45" class="edge"><title>Node28&#45;&gt;Node29</title>
<path fill="none" stroke="midnightblue" d="M414.691,-700.444C449.068,-691.162 504.077,-676.309 541.789,-666.127"/>
<polygon fill="midnightblue" stroke="midnightblue" points="542.716,-669.502 551.458,-663.516 540.891,-662.744 542.716,-669.502"/>
</g>
<!-- Node30 -->
<g id="node30" class="node"><title>Node30</title>
<polygon fill="white" stroke="#bfbfbf" points="469,-582.5 469,-601.5 563,-601.5 563,-582.5 469,-582.5"/>
<text text-anchor="middle" x="516" y="-589.5" font-family="Helvetica,sans-Serif" font-size="10.00">hpp/util/pointer.hh</text>
</g>
<!-- Node29&#45;&gt;Node30 -->
<g id="edge46" class="edge"><title>Node29&#45;&gt;Node30</title>
<path fill="none" stroke="midnightblue" d="M573.401,-644.403C562.952,-635.047 546.032,-619.895 533.264,-608.46"/>
<polygon fill="midnightblue" stroke="midnightblue" points="535.366,-605.644 525.582,-601.581 530.696,-610.859 535.366,-605.644"/>
</g>
<!-- Node31 -->
<g id="node31" class="node"><title>Node31</title>
<g id="a_node31"><a doxygen="https://jmirabel.github.io/hpp-doc/api/hpp-statistics/doxygen-html/hpp-statistics.doxytag:https://jmirabel.github.io/hpp-doc/api/hpp-statistics/doxygen-html/" xlink:href="https://jmirabel.github.io/hpp-doc/api/hpp-statistics/doxygen-html/a00010.html" target="_top" xlink:title="hpp/statistics/distribution.hh">
<polygon fill="white" stroke="black" points="581.5,-582.5 581.5,-601.5 720.5,-601.5 720.5,-582.5 581.5,-582.5"/>
<text text-anchor="middle" x="651" y="-589.5" font-family="Helvetica,sans-Serif" font-size="10.00">hpp/statistics/distribution.hh</text>
</a>
</g>
</g>
<!-- Node29&#45;&gt;Node31 -->
<g id="edge47" class="edge"><title>Node29&#45;&gt;Node31</title>
<path fill="none" stroke="midnightblue" d="M592.743,-644.403C603.347,-635.047 620.519,-619.895 633.479,-608.46"/>
<polygon fill="midnightblue" stroke="midnightblue" points="636.093,-610.821 641.275,-601.581 631.461,-605.572 636.093,-610.821"/>
</g>
<!-- Node33 -->
<g id="node33" class="node"><title>Node33</title>
<polygon fill="white" stroke="#bfbfbf" points="739,-582.5 739,-601.5 783,-601.5 783,-582.5 739,-582.5"/>
<text text-anchor="middle" x="761" y="-589.5" font-family="Helvetica,sans-Serif" font-size="10.00">vector</text>
</g>
<!-- Node29&#45;&gt;Node33 -->
<g id="edge49" class="edge"><title>Node29&#45;&gt;Node33</title>
<path fill="none" stroke="midnightblue" d="M615.337,-644.432C645.217,-636.187 690.65,-622.815 729,-608 730.846,-607.287 732.734,-606.515 734.626,-605.712"/>
<polygon fill="midnightblue" stroke="midnightblue" points="736.227,-608.829 743.919,-601.543 733.363,-602.442 736.227,-608.829"/>
</g>
<!-- Node32 -->
<g id="node32" class="node"><title>Node32</title>
<g id="a_node32"><a doxygen="https://jmirabel.github.io/hpp-doc/api/hpp-statistics/doxygen-html/hpp-statistics.doxytag:https://jmirabel.github.io/hpp-doc/api/hpp-statistics/doxygen-html/" xlink:href="https://jmirabel.github.io/hpp-doc/api/hpp-statistics/doxygen-html/a00011.html" target="_top" xlink:title="hpp/statistics/fwd.hh">
<polygon fill="white" stroke="black" points="597.5,-520.5 597.5,-539.5 704.5,-539.5 704.5,-520.5 597.5,-520.5"/>
<text text-anchor="middle" x="651" y="-527.5" font-family="Helvetica,sans-Serif" font-size="10.00">hpp/statistics/fwd.hh</text>
</a>
</g>
</g>
<!-- Node31&#45;&gt;Node32 -->
<g id="edge48" class="edge"><title>Node31&#45;&gt;Node32</title>
<path fill="none" stroke="midnightblue" d="M651,-582.403C651,-573.938 651,-560.728 651,-549.82"/>
<polygon fill="midnightblue" stroke="midnightblue" points="654.5,-549.581 651,-539.581 647.5,-549.581 654.5,-549.581"/>
</g>
</g>
</svg>
