<?xml version="1.0" encoding="UTF-8" standalone="no"?>
<!DOCTYPE svg PUBLIC "-//W3C//DTD SVG 1.1//EN"
 "http://www.w3.org/Graphics/SVG/1.1/DTD/svg11.dtd">
<!-- Generated by graphviz version 2.36.0 (20140111.2315)
 -->
<!-- Title: fwd.hh Pages: 1 -->
<svg width="1083pt" height="420pt"
 viewBox="0.00 0.00 1083.00 420.00" xmlns="http://www.w3.org/2000/svg" xmlns:xlink="http://www.w3.org/1999/xlink">
<g id="graph0" class="graph" transform="scale(1 1) rotate(0) translate(4 416)">
<title>fwd.hh</title>
<polygon fill="white" stroke="none" points="-4,4 -4,-416 1079,-416 1079,4 -4,4"/>
<!-- Node1 -->
<g id="node1" class="node"><title>Node1</title>
<polygon fill="#bfbfbf" stroke="black" points="511,-392.5 511,-411.5 557,-411.5 557,-392.5 511,-392.5"/>
<text text-anchor="middle" x="534" y="-399.5" font-family="Helvetica,sans-Serif" font-size="10.00">fwd.hh</text>
</g>
<!-- Node2 -->
<g id="node2" class="node"><title>Node2</title>
<g id="a_node2"><a xlink:href="a00046.html" target="_top" xlink:title="connected&#45;component.hh">
<polygon fill="white" stroke="black" points="380,-336.5 380,-355.5 506,-355.5 506,-336.5 380,-336.5"/>
<text text-anchor="middle" x="443" y="-343.5" font-family="Helvetica,sans-Serif" font-size="10.00">connected&#45;component.hh</text>
</a>
</g>
</g>
<!-- Node1&#45;&gt;Node2 -->
<g id="edge1" class="edge"><title>Node1&#45;&gt;Node2</title>
<path fill="none" stroke="midnightblue" d="M510.706,-387.177C493.961,-377.241 471.9,-364.149 457.584,-355.655"/>
<polygon fill="midnightblue" stroke="midnightblue" points="508.993,-390.231 519.379,-392.324 512.566,-384.211 508.993,-390.231"/>
</g>
<!-- Node3 -->
<g id="node3" class="node"><title>Node3</title>
<g id="a_node3"><a xlink:href="a00063.html" target="_top" xlink:title="roadmap&#45;node.hh">
<polygon fill="white" stroke="black" points="373,-280.5 373,-299.5 465,-299.5 465,-280.5 373,-280.5"/>
<text text-anchor="middle" x="419" y="-287.5" font-family="Helvetica,sans-Serif" font-size="10.00">roadmap&#45;node.hh</text>
</a>
</g>
</g>
<!-- Node1&#45;&gt;Node3 -->
<g id="edge29" class="edge"><title>Node1&#45;&gt;Node3</title>
<path fill="none" stroke="midnightblue" d="M500.772,-396.584C457.815,-390.115 386.648,-376.554 371,-356 355.789,-336.021 385.317,-312.202 404.456,-299.682"/>
<polygon fill="midnightblue" stroke="midnightblue" points="500.375,-400.063 510.775,-398.039 501.383,-393.136 500.375,-400.063"/>
</g>
<!-- Node5 -->
<g id="node5" class="node"><title>Node5</title>
<g id="a_node5"><a xlink:href="a00060.html" target="_top" xlink:title="manipulation&#45;planner.hh">
<polygon fill="white" stroke="black" points="424.5,-56.5 424.5,-75.5 543.5,-75.5 543.5,-56.5 424.5,-56.5"/>
<text text-anchor="middle" x="484" y="-63.5" font-family="Helvetica,sans-Serif" font-size="10.00">manipulation&#45;planner.hh</text>
</a>
</g>
</g>
<!-- Node1&#45;&gt;Node5 -->
<g id="edge33" class="edge"><title>Node1&#45;&gt;Node5</title>
<path fill="none" stroke="midnightblue" d="M534,-382.251C534,-360.357 534,-323.052 534,-291 534,-291 534,-291 534,-177 534,-135.884 504.691,-93.2469 490.952,-75.5193"/>
<polygon fill="midnightblue" stroke="midnightblue" points="530.5,-382.442 534,-392.442 537.5,-382.442 530.5,-382.442"/>
</g>
<!-- Node6 -->
<g id="node6" class="node"><title>Node6</title>
<g id="a_node6"><a xlink:href="a00064.html" target="_top" xlink:title="roadmap.hh">
<polygon fill="white" stroke="black" points="338,-56.5 338,-75.5 406,-75.5 406,-56.5 338,-56.5"/>
<text text-anchor="middle" x="372" y="-63.5" font-family="Helvetica,sans-Serif" font-size="10.00">roadmap.hh</text>
</a>
</g>
</g>
<!-- Node1&#45;&gt;Node6 -->
<g id="edge35" class="edge"><title>Node1&#45;&gt;Node6</title>
<path fill="none" stroke="midnightblue" d="M500.856,-397.061C456.019,-390.973 379.701,-377.664 363,-356 322.863,-303.934 412.37,-153.281 416,-132 417.495,-123.238 419.355,-120.231 416,-112 409.731,-96.6205 395.394,-83.6399 384.781,-75.6314"/>
<polygon fill="midnightblue" stroke="midnightblue" points="500.616,-400.56 510.986,-398.387 501.524,-393.619 500.616,-400.56"/>
</g>
<!-- Node7 -->
<g id="node7" class="node"><title>Node7</title>
<g id="a_node7"><a xlink:href="a00005.html" target="_top" xlink:title="constraint&#45;set.hh">
<polygon fill="white" stroke="black" points="638.5,-336.5 638.5,-355.5 727.5,-355.5 727.5,-336.5 638.5,-336.5"/>
<text text-anchor="middle" x="683" y="-343.5" font-family="Helvetica,sans-Serif" font-size="10.00">constraint&#45;set.hh</text>
</a>
</g>
</g>
<!-- Node1&#45;&gt;Node7 -->
<g id="edge6" class="edge"><title>Node1&#45;&gt;Node7</title>
<path fill="none" stroke="midnightblue" d="M567.027,-389.03C595.02,-378.885 634.477,-364.585 659.391,-355.556"/>
<polygon fill="midnightblue" stroke="midnightblue" points="565.49,-385.865 557.281,-392.562 567.875,-392.446 565.49,-385.865"/>
</g>
<!-- Node8 -->
<g id="node8" class="node"><title>Node8</title>
<g id="a_node8"><a xlink:href="a00051.html" target="_top" xlink:title="graph&#45;node&#45;optimizer.hh">
<polygon fill="white" stroke="black" points="600.5,-280.5 600.5,-299.5 721.5,-299.5 721.5,-280.5 600.5,-280.5"/>
<text text-anchor="middle" x="661" y="-287.5" font-family="Helvetica,sans-Serif" font-size="10.00">graph&#45;node&#45;optimizer.hh</text>
</a>
</g>
</g>
<!-- Node1&#45;&gt;Node8 -->
<g id="edge30" class="edge"><title>Node1&#45;&gt;Node8</title>
<path fill="none" stroke="midnightblue" d="M551.678,-385.707C561.74,-377.002 574.578,-365.892 586,-356 609.184,-335.922 636.387,-312.34 650.812,-299.834"/>
<polygon fill="midnightblue" stroke="midnightblue" points="549.243,-383.186 543.971,-392.375 553.823,-388.479 549.243,-383.186"/>
</g>
<!-- Node9 -->
<g id="node9" class="node"><title>Node9</title>
<g id="a_node9"><a xlink:href="a00052.html" target="_top" xlink:title="graph&#45;optimizer.hh">
<polygon fill="white" stroke="black" points="739.5,-280.5 739.5,-299.5 836.5,-299.5 836.5,-280.5 739.5,-280.5"/>
<text text-anchor="middle" x="788" y="-287.5" font-family="Helvetica,sans-Serif" font-size="10.00">graph&#45;optimizer.hh</text>
</a>
</g>
</g>
<!-- Node1&#45;&gt;Node9 -->
<g id="edge31" class="edge"><title>Node1&#45;&gt;Node9</title>
<path fill="none" stroke="midnightblue" d="M567.072,-400.262C609.285,-397.911 683.163,-388.951 736,-356 758.808,-341.776 775.924,-313.908 783.578,-299.731"/>
<polygon fill="midnightblue" stroke="midnightblue" points="566.881,-396.767 557.054,-400.727 567.206,-403.759 566.881,-396.767"/>
</g>
<!-- Node10 -->
<g id="node10" class="node"><title>Node10</title>
<g id="a_node10"><a xlink:href="a00055.html" target="_top" xlink:title="graph.hh">
<polygon fill="white" stroke="black" points="245,-280.5 245,-299.5 299,-299.5 299,-280.5 245,-280.5"/>
<text text-anchor="middle" x="272" y="-287.5" font-family="Helvetica,sans-Serif" font-size="10.00">graph.hh</text>
</a>
</g>
</g>
<!-- Node1&#45;&gt;Node10 -->
<g id="edge9" class="edge"><title>Node1&#45;&gt;Node10</title>
<path fill="none" stroke="midnightblue" d="M500.413,-398.385C443.291,-393.324 330.444,-380.469 300,-356 282.186,-341.682 275.477,-313.857 273.14,-299.711"/>
<polygon fill="midnightblue" stroke="midnightblue" points="500.464,-401.903 510.726,-399.268 501.06,-394.928 500.464,-401.903"/>
</g>
<!-- Node12 -->
<g id="node12" class="node"><title>Node12</title>
<g id="a_node12"><a xlink:href="a00003.html" target="_top" xlink:title="node.hh">
<polygon fill="white" stroke="black" points="168.5,-168.5 168.5,-187.5 219.5,-187.5 219.5,-168.5 168.5,-168.5"/>
<text text-anchor="middle" x="194" y="-175.5" font-family="Helvetica,sans-Serif" font-size="10.00">node.hh</text>
</a>
</g>
</g>
<!-- Node1&#45;&gt;Node12 -->
<g id="edge27" class="edge"><title>Node1&#45;&gt;Node12</title>
<path fill="none" stroke="midnightblue" d="M500.849,-399.765C409.174,-396.01 157.394,-383.285 133,-356 86.6399,-304.146 160.414,-215.299 185.869,-187.542"/>
<polygon fill="midnightblue" stroke="midnightblue" points="500.83,-403.267 510.961,-400.169 501.109,-396.272 500.83,-403.267"/>
</g>
<!-- Node14 -->
<g id="node14" class="node"><title>Node14</title>
<g id="a_node14"><a xlink:href="a00056.html" target="_top" xlink:title="guided&#45;node&#45;selector.hh">
<polygon fill="white" stroke="black" points="-1,-56.5 -1,-75.5 119,-75.5 119,-56.5 -1,-56.5"/>
<text text-anchor="middle" x="59" y="-63.5" font-family="Helvetica,sans-Serif" font-size="10.00">guided&#45;node&#45;selector.hh</text>
</a>
</g>
</g>
<!-- Node1&#45;&gt;Node14 -->
<g id="edge26" class="edge"><title>Node1&#45;&gt;Node14</title>
<path fill="none" stroke="midnightblue" d="M500.456,-400.975C386.605,-399.998 22,-389.205 22,-291 22,-291 22,-291 22,-177 22,-137.307 43.9106,-93.5645 54.01,-75.5101"/>
<polygon fill="midnightblue" stroke="midnightblue" points="500.647,-404.476 510.67,-401.041 500.693,-397.476 500.647,-404.476"/>
</g>
<!-- Node17 -->
<g id="node17" class="node"><title>Node17</title>
<g id="a_node17"><a xlink:href="a00054.html" target="_top" xlink:title="graph&#45;steering&#45;method.hh">
<polygon fill="white" stroke="black" points="365.5,-0.5 365.5,-19.5 492.5,-19.5 492.5,-0.5 365.5,-0.5"/>
<text text-anchor="middle" x="429" y="-7.5" font-family="Helvetica,sans-Serif" font-size="10.00">graph&#45;steering&#45;method.hh</text>
</a>
</g>
</g>
<!-- Node1&#45;&gt;Node17 -->
<g id="edge32" class="edge"><title>Node1&#45;&gt;Node17</title>
<path fill="none" stroke="midnightblue" d="M544.143,-383.429C555.4,-362.236 572,-325.187 572,-291 572,-291 572,-291 572,-121 572,-90.7745 572.807,-77.9234 552,-56 533.921,-36.9508 507.118,-25.9305 483.143,-19.5718"/>
<polygon fill="midnightblue" stroke="midnightblue" points="541.053,-381.785 539.284,-392.231 547.181,-385.168 541.053,-381.785"/>
</g>
<!-- Node18 -->
<g id="node18" class="node"><title>Node18</title>
<g id="a_node18"><a xlink:href="a00050.html" target="_top" xlink:title="graph&#45;component.hh">
<polygon fill="white" stroke="black" points="142.5,-336.5 142.5,-355.5 247.5,-355.5 247.5,-336.5 142.5,-336.5"/>
<text text-anchor="middle" x="195" y="-343.5" font-family="Helvetica,sans-Serif" font-size="10.00">graph&#45;component.hh</text>
</a>
</g>
</g>
<!-- Node1&#45;&gt;Node18 -->
<g id="edge23" class="edge"><title>Node1&#45;&gt;Node18</title>
<path fill="none" stroke="midnightblue" d="M501.083,-395.757C442.174,-386.373 318.281,-366.638 247.511,-355.365"/>
<polygon fill="midnightblue" stroke="midnightblue" points="500.54,-399.214 510.966,-397.331 501.641,-392.301 500.54,-399.214"/>
</g>
<!-- Node19 -->
<g id="node19" class="node"><title>Node19</title>
<g id="a_node19"><a xlink:href="a00058.html" target="_top" xlink:title="helper.hh">
<polygon fill="white" stroke="black" points="784,-336.5 784,-355.5 840,-355.5 840,-336.5 784,-336.5"/>
<text text-anchor="middle" x="812" y="-343.5" font-family="Helvetica,sans-Serif" font-size="10.00">helper.hh</text>
</a>
</g>
</g>
<!-- Node1&#45;&gt;Node19 -->
<g id="edge28" class="edge"><title>Node1&#45;&gt;Node19</title>
<path fill="none" stroke="midnightblue" d="M567.086,-394.936C612.779,-386.505 697.75,-370.627 770,-356 774.385,-355.112 779.022,-354.146 783.552,-353.187"/>
<polygon fill="midnightblue" stroke="midnightblue" points="566.349,-391.513 557.148,-396.766 567.617,-398.397 566.349,-391.513"/>
</g>
<!-- Node20 -->
<g id="node20" class="node"><title>Node20</title>
<g id="a_node20"><a xlink:href="a00062.html" target="_top" xlink:title="problem&#45;solver.hh">
<polygon fill="white" stroke="black" points="858,-336.5 858,-355.5 952,-355.5 952,-336.5 858,-336.5"/>
<text text-anchor="middle" x="905" y="-343.5" font-family="Helvetica,sans-Serif" font-size="10.00">problem&#45;solver.hh</text>
</a>
</g>
</g>
<!-- Node1&#45;&gt;Node20 -->
<g id="edge34" class="edge"><title>Node1&#45;&gt;Node20</title>
<path fill="none" stroke="midnightblue" d="M567.197,-396.401C624.514,-388.425 745.724,-371.402 848,-356 851.17,-355.523 854.438,-355.024 857.731,-354.517"/>
<polygon fill="midnightblue" stroke="midnightblue" points="566.681,-392.939 557.258,-397.783 567.644,-399.872 566.681,-392.939"/>
</g>
<!-- Node21 -->
<g id="node21" class="node"><title>Node21</title>
<g id="a_node21"><a xlink:href="a00004.html" target="_top" xlink:title="weighed&#45;distance.hh">
<polygon fill="white" stroke="black" points="970,-336.5 970,-355.5 1076,-355.5 1076,-336.5 970,-336.5"/>
<text text-anchor="middle" x="1023" y="-343.5" font-family="Helvetica,sans-Serif" font-size="10.00">weighed&#45;distance.hh</text>
</a>
</g>
</g>
<!-- Node1&#45;&gt;Node21 -->
<g id="edge36" class="edge"><title>Node1&#45;&gt;Node21</title>
<path fill="none" stroke="midnightblue" d="M567.441,-397.925C639.483,-391.203 814.665,-374.325 961,-356 963.914,-355.635 966.903,-355.247 969.919,-354.845"/>
<polygon fill="midnightblue" stroke="midnightblue" points="566.813,-394.468 557.18,-398.879 567.461,-401.438 566.813,-394.468"/>
</g>
<!-- Node2&#45;&gt;Node3 -->
<g id="edge2" class="edge"><title>Node2&#45;&gt;Node3</title>
<path fill="none" stroke="midnightblue" d="M434.862,-326.69C430.817,-317.589 426.117,-307.014 422.889,-299.751"/>
<polygon fill="midnightblue" stroke="midnightblue" points="431.777,-328.366 439.037,-336.083 438.174,-325.523 431.777,-328.366"/>
</g>
<!-- Node4 -->
<g id="node4" class="node"><title>Node4</title>
<g id="a_node4"><a xlink:href="a00066.html" target="_top" xlink:title="statistics.hh">
<polygon fill="white" stroke="black" points="337,-112.5 337,-131.5 407,-131.5 407,-112.5 337,-112.5"/>
<text text-anchor="middle" x="372" y="-119.5" font-family="Helvetica,sans-Serif" font-size="10.00">statistics.hh</text>
</a>
</g>
</g>
<!-- Node3&#45;&gt;Node4 -->
<g id="edge3" class="edge"><title>Node3&#45;&gt;Node4</title>
<path fill="none" stroke="midnightblue" d="M413.732,-270.395C403.593,-234.585 381.723,-157.342 374.426,-131.568"/>
<polygon fill="midnightblue" stroke="midnightblue" points="410.381,-271.407 416.473,-280.075 417.116,-269.5 410.381,-271.407"/>
</g>
<!-- Node4&#45;&gt;Node5 -->
<g id="edge4" class="edge"><title>Node4&#45;&gt;Node5</title>
<path fill="none" stroke="midnightblue" d="M399.249,-107.862C420.016,-97.8492 448.023,-84.3458 466.05,-75.6545"/>
<polygon fill="midnightblue" stroke="midnightblue" points="397.482,-104.828 389.995,-112.324 400.523,-111.134 397.482,-104.828"/>
</g>
<!-- Node4&#45;&gt;Node6 -->
<g id="edge5" class="edge"><title>Node4&#45;&gt;Node6</title>
<path fill="none" stroke="midnightblue" d="M372,-101.805C372,-92.9102 372,-82.7798 372,-75.7511"/>
<polygon fill="midnightblue" stroke="midnightblue" points="368.5,-102.083 372,-112.083 375.5,-102.083 368.5,-102.083"/>
</g>
<!-- Node7&#45;&gt;Node8 -->
<g id="edge7" class="edge"><title>Node7&#45;&gt;Node8</title>
<path fill="none" stroke="midnightblue" d="M675.54,-326.69C671.833,-317.589 667.524,-307.014 664.565,-299.751"/>
<polygon fill="midnightblue" stroke="midnightblue" points="672.353,-328.143 679.367,-336.083 678.835,-325.502 672.353,-328.143"/>
</g>
<!-- Node7&#45;&gt;Node9 -->
<g id="edge8" class="edge"><title>Node7&#45;&gt;Node9</title>
<path fill="none" stroke="midnightblue" d="M708.81,-331.726C728.253,-321.727 754.348,-308.307 771.172,-299.655"/>
<polygon fill="midnightblue" stroke="midnightblue" points="707.162,-328.638 699.87,-336.324 710.364,-334.863 707.162,-328.638"/>
</g>
<!-- Node10&#45;&gt;Node4 -->
<g id="edge19" class="edge"><title>Node10&#45;&gt;Node4</title>
<path fill="none" stroke="midnightblue" d="M290.973,-273.934C300.303,-265.809 311.192,-255.172 319,-244 345.67,-205.841 363.369,-152.115 369.555,-131.505"/>
<polygon fill="midnightblue" stroke="midnightblue" points="288.703,-271.269 283.291,-280.377 293.202,-276.633 288.703,-271.269"/>
</g>
<!-- Node10&#45;&gt;Node5 -->
<g id="edge22" class="edge"><title>Node10&#45;&gt;Node5</title>
<path fill="none" stroke="midnightblue" d="M296.592,-275.227C310.12,-267.055 326.789,-255.972 340,-244 402.525,-187.341 460.692,-102.433 478.469,-75.5081"/>
<polygon fill="midnightblue" stroke="midnightblue" points="294.653,-272.306 287.809,-280.394 298.203,-278.339 294.653,-272.306"/>
</g>
<!-- Node11 -->
<g id="node11" class="node"><title>Node11</title>
<g id="a_node11"><a xlink:href="a00048.html" target="_top" xlink:title="edge.hh">
<polygon fill="white" stroke="black" points="187.5,-224.5 187.5,-243.5 238.5,-243.5 238.5,-224.5 187.5,-224.5"/>
<text text-anchor="middle" x="213" y="-231.5" font-family="Helvetica,sans-Serif" font-size="10.00">edge.hh</text>
</a>
</g>
</g>
<!-- Node10&#45;&gt;Node11 -->
<g id="edge10" class="edge"><title>Node10&#45;&gt;Node11</title>
<path fill="none" stroke="midnightblue" d="M255.105,-273.537C244.585,-263.909 231.431,-251.869 222.652,-243.834"/>
<polygon fill="midnightblue" stroke="midnightblue" points="252.781,-276.154 262.521,-280.324 257.507,-270.99 252.781,-276.154"/>
</g>
<!-- Node13 -->
<g id="node13" class="node"><title>Node13</title>
<g id="a_node13"><a xlink:href="a00061.html" target="_top" xlink:title="node&#45;selector.hh">
<polygon fill="white" stroke="black" points="50.5,-112.5 50.5,-131.5 139.5,-131.5 139.5,-112.5 50.5,-112.5"/>
<text text-anchor="middle" x="95" y="-119.5" font-family="Helvetica,sans-Serif" font-size="10.00">node&#45;selector.hh</text>
</a>
</g>
</g>
<!-- Node10&#45;&gt;Node13 -->
<g id="edge18" class="edge"><title>Node10&#45;&gt;Node13</title>
<path fill="none" stroke="midnightblue" d="M236.315,-276.774C217.861,-269.268 195.757,-258.325 179,-244 139.346,-210.101 109.55,-153.392 99.0812,-131.753"/>
<polygon fill="midnightblue" stroke="midnightblue" points="235.271,-280.123 245.859,-280.488 237.809,-273.6 235.271,-280.123"/>
</g>
<!-- Node15 -->
<g id="node15" class="node"><title>Node15</title>
<g id="a_node15"><a xlink:href="a00053.html" target="_top" xlink:title="graph&#45;path&#45;validation.hh">
<polygon fill="white" stroke="black" points="157,-112.5 157,-131.5 277,-131.5 277,-112.5 157,-112.5"/>
<text text-anchor="middle" x="217" y="-119.5" font-family="Helvetica,sans-Serif" font-size="10.00">graph&#45;path&#45;validation.hh</text>
</a>
</g>
</g>
<!-- Node10&#45;&gt;Node15 -->
<g id="edge20" class="edge"><title>Node10&#45;&gt;Node15</title>
<path fill="none" stroke="midnightblue" d="M265.836,-270.395C253.971,-234.585 228.378,-157.342 219.839,-131.568"/>
<polygon fill="midnightblue" stroke="midnightblue" points="262.575,-271.683 269.043,-280.075 269.22,-269.482 262.575,-271.683"/>
</g>
<!-- Node16 -->
<g id="node16" class="node"><title>Node16</title>
<g id="a_node16"><a xlink:href="a00006.html" target="_top" xlink:title="problem.hh">
<polygon fill="white" stroke="black" points="254.5,-56.5 254.5,-75.5 319.5,-75.5 319.5,-56.5 254.5,-56.5"/>
<text text-anchor="middle" x="287" y="-63.5" font-family="Helvetica,sans-Serif" font-size="10.00">problem.hh</text>
</a>
</g>
</g>
<!-- Node10&#45;&gt;Node16 -->
<g id="edge21" class="edge"><title>Node10&#45;&gt;Node16</title>
<path fill="none" stroke="midnightblue" d="M273.889,-270.047C276.755,-240.561 282.168,-181.9 285,-132 286.139,-111.936 286.661,-88.3486 286.873,-75.8377"/>
<polygon fill="midnightblue" stroke="midnightblue" points="270.39,-269.864 272.894,-280.159 277.356,-270.549 270.39,-269.864"/>
</g>
<!-- Node11&#45;&gt;Node12 -->
<g id="edge11" class="edge"><title>Node11&#45;&gt;Node12</title>
<path fill="none" stroke="midnightblue" d="M206.454,-214.396C203.276,-205.362 199.607,-194.936 197.079,-187.751"/>
<polygon fill="midnightblue" stroke="midnightblue" points="203.242,-215.812 209.863,-224.083 209.845,-213.488 203.242,-215.812"/>
</g>
<!-- Node12&#45;&gt;Node4 -->
<g id="edge14" class="edge"><title>Node12&#45;&gt;Node4</title>
<path fill="none" stroke="midnightblue" d="M229.377,-166.268C263.005,-156.066 312.915,-140.925 343.901,-131.524"/>
<polygon fill="midnightblue" stroke="midnightblue" points="228.056,-163.011 219.503,-169.263 230.088,-169.709 228.056,-163.011"/>
</g>
<!-- Node12&#45;&gt;Node13 -->
<g id="edge12" class="edge"><title>Node12&#45;&gt;Node13</title>
<path fill="none" stroke="midnightblue" d="M169.163,-163.453C150.886,-153.483 126.584,-140.228 110.867,-131.655"/>
<polygon fill="midnightblue" stroke="midnightblue" points="167.639,-166.608 178.094,-168.324 170.991,-160.463 167.639,-166.608"/>
</g>
<!-- Node12&#45;&gt;Node15 -->
<g id="edge15" class="edge"><title>Node12&#45;&gt;Node15</title>
<path fill="none" stroke="midnightblue" d="M201.799,-158.69C205.675,-149.589 210.179,-139.014 213.273,-131.751"/>
<polygon fill="midnightblue" stroke="midnightblue" points="198.497,-157.511 197.798,-168.083 204.937,-160.254 198.497,-157.511"/>
</g>
<!-- Node13&#45;&gt;Node14 -->
<g id="edge13" class="edge"><title>Node13&#45;&gt;Node14</title>
<path fill="none" stroke="midnightblue" d="M83.3771,-103.566C77.1832,-94.2747 69.8323,-83.2484 64.8341,-75.7511"/>
<polygon fill="midnightblue" stroke="midnightblue" points="80.5961,-105.704 89.0553,-112.083 86.4205,-101.821 80.5961,-105.704"/>
</g>
<!-- Node15&#45;&gt;Node16 -->
<g id="edge16" class="edge"><title>Node15&#45;&gt;Node16</title>
<path fill="none" stroke="midnightblue" d="M236.314,-106.101C248.912,-96.3824 264.928,-84.0269 275.549,-75.8339"/>
<polygon fill="midnightblue" stroke="midnightblue" points="234.027,-103.445 228.247,-112.324 238.302,-108.987 234.027,-103.445"/>
</g>
<!-- Node16&#45;&gt;Node17 -->
<g id="edge17" class="edge"><title>Node16&#45;&gt;Node17</title>
<path fill="none" stroke="midnightblue" d="M319.155,-52.772C345.828,-42.6287 383.069,-28.4669 406.605,-19.5164"/>
<polygon fill="midnightblue" stroke="midnightblue" points="317.603,-49.6176 309.5,-56.4435 320.091,-56.1604 317.603,-49.6176"/>
</g>
<!-- Node18&#45;&gt;Node10 -->
<g id="edge24" class="edge"><title>Node18&#45;&gt;Node10</title>
<path fill="none" stroke="midnightblue" d="M215.901,-330.342C229.911,-320.517 247.883,-307.913 259.659,-299.655"/>
<polygon fill="midnightblue" stroke="midnightblue" points="213.549,-327.717 207.371,-336.324 217.568,-333.448 213.549,-327.717"/>
</g>
<!-- Node18&#45;&gt;Node12 -->
<g id="edge25" class="edge"><title>Node18&#45;&gt;Node12</title>
<path fill="none" stroke="midnightblue" d="M189.253,-326.715C182.556,-302.978 173.11,-260.294 179,-224 181.111,-210.994 186.442,-196.667 190.144,-187.751"/>
<polygon fill="midnightblue" stroke="midnightblue" points="185.949,-327.881 192.157,-336.466 192.658,-325.883 185.949,-327.881"/>
</g>
</g>
</svg>
