<?xml version="1.0" encoding="UTF-8" standalone="no"?>
<!DOCTYPE svg PUBLIC "-//W3C//DTD SVG 1.1//EN"
 "http://www.w3.org/Graphics/SVG/1.1/DTD/svg11.dtd">
<!-- Generated by graphviz version 2.36.0 (20140111.2315)
 -->
<!-- Title: weighed&#45;distance.hh Pages: 1 -->
<svg width="1255pt" height="896pt"
 viewBox="0.00 0.00 1255.00 896.00" xmlns="http://www.w3.org/2000/svg" xmlns:xlink="http://www.w3.org/1999/xlink">
<g id="graph0" class="graph" transform="scale(1 1) rotate(0) translate(4 892)">
<title>weighed&#45;distance.hh</title>
<polygon fill="white" stroke="none" points="-4,4 -4,-892 1251,-892 1251,4 -4,4"/>
<!-- Node1 -->
<g id="node1" class="node"><title>Node1</title>
<polygon fill="#bfbfbf" stroke="black" points="915,-868.5 915,-887.5 1021,-887.5 1021,-868.5 915,-868.5"/>
<text text-anchor="middle" x="968" y="-875.5" font-family="Helvetica,sans-Serif" font-size="10.00">weighed&#45;distance.hh</text>
</g>
<!-- Node2 -->
<g id="node2" class="node"><title>Node2</title>
<g id="a_node2"><a doxygen="https://jmirabel.github.io/hpp-doc/api/hpp-core/doxygen-html/hpp-core.doxytag:https://jmirabel.github.io/hpp-doc/api/hpp-core/doxygen-html/" xlink:href="https://jmirabel.github.io/hpp-doc/api/hpp-core/doxygen-html/a00156.html" target="_top" xlink:title="hpp/core/weighed&#45;distance.hh">
<polygon fill="white" stroke="black" points="845,-812.5 845,-831.5 991,-831.5 991,-812.5 845,-812.5"/>
<text text-anchor="middle" x="918" y="-819.5" font-family="Helvetica,sans-Serif" font-size="10.00">hpp/core/weighed&#45;distance.hh</text>
</a>
</g>
</g>
<!-- Node1&#45;&gt;Node2 -->
<g id="edge1" class="edge"><title>Node1&#45;&gt;Node2</title>
<path fill="none" stroke="midnightblue" d="M959.744,-868.083C952.535,-860.298 941.89,-848.801 933.154,-839.367"/>
<polygon fill="midnightblue" stroke="midnightblue" points="935.465,-836.711 926.103,-831.751 930.329,-841.467 935.465,-836.711"/>
</g>
<!-- Node4 -->
<g id="node4" class="node"><title>Node4</title>
<g id="a_node4"><a xlink:href="a00001.html" target="_top" xlink:title="hpp/core/fwd.hh">
<polygon fill="white" stroke="black" points="750,-644.5 750,-663.5 836,-663.5 836,-644.5 750,-644.5"/>
<text text-anchor="middle" x="793" y="-651.5" font-family="Helvetica,sans-Serif" font-size="10.00">hpp/core/fwd.hh</text>
</a>
</g>
</g>
<!-- Node1&#45;&gt;Node4 -->
<g id="edge54" class="edge"><title>Node1&#45;&gt;Node4</title>
<path fill="none" stroke="midnightblue" d="M914.777,-870.242C887.995,-864.281 856.873,-853.072 836,-832 793.026,-788.617 790.417,-709.973 791.729,-673.948"/>
<polygon fill="midnightblue" stroke="midnightblue" points="795.23,-674.013 792.247,-663.847 788.239,-673.655 795.23,-674.013"/>
</g>
<!-- Node29 -->
<g id="node29" class="node"><title>Node29</title>
<g id="a_node29"><a xlink:href="a00049.html" target="_top" xlink:title="hpp/core/fwd.hh">
<polygon fill="white" stroke="black" points="973,-644.5 973,-663.5 1059,-663.5 1059,-644.5 973,-644.5"/>
<text text-anchor="middle" x="1016" y="-651.5" font-family="Helvetica,sans-Serif" font-size="10.00">hpp/core/fwd.hh</text>
</a>
</g>
</g>
<!-- Node1&#45;&gt;Node29 -->
<g id="edge55" class="edge"><title>Node1&#45;&gt;Node29</title>
<path fill="none" stroke="midnightblue" d="M976.46,-868.186C984.065,-859.669 994.814,-846.027 1000,-832 1020.2,-777.377 1019.31,-707.084 1017.45,-673.92"/>
<polygon fill="midnightblue" stroke="midnightblue" points="1020.93,-673.572 1016.78,-663.824 1013.95,-674.033 1020.93,-673.572"/>
</g>
<!-- Node35 -->
<g id="node35" class="node"><title>Node35</title>
<polygon fill="white" stroke="#bfbfbf" points="1047.5,-812.5 1047.5,-831.5 1180.5,-831.5 1180.5,-812.5 1047.5,-812.5"/>
<text text-anchor="middle" x="1114" y="-819.5" font-family="Helvetica,sans-Serif" font-size="10.00">hpp/manipulation/config.hh</text>
</g>
<!-- Node1&#45;&gt;Node35 -->
<g id="edge56" class="edge"><title>Node1&#45;&gt;Node35</title>
<path fill="none" stroke="midnightblue" d="M991.134,-868.444C1015.48,-859.438 1054.01,-845.189 1081.42,-835.049"/>
<polygon fill="midnightblue" stroke="midnightblue" points="1082.81,-838.268 1090.97,-831.516 1080.38,-831.703 1082.81,-838.268"/>
</g>
<!-- Node3 -->
<g id="node3" class="node"><title>Node3</title>
<g id="a_node3"><a doxygen="https://jmirabel.github.io/hpp-doc/api/hpp-core/doxygen-html/hpp-core.doxytag:https://jmirabel.github.io/hpp-doc/api/hpp-core/doxygen-html/" xlink:href="https://jmirabel.github.io/hpp-doc/api/hpp-core/doxygen-html/a00109.html" target="_top" xlink:title="hpp/core/distance.hh">
<polygon fill="white" stroke="black" points="864.5,-756.5 864.5,-775.5 971.5,-775.5 971.5,-756.5 864.5,-756.5"/>
<text text-anchor="middle" x="918" y="-763.5" font-family="Helvetica,sans-Serif" font-size="10.00">hpp/core/distance.hh</text>
</a>
</g>
</g>
<!-- Node2&#45;&gt;Node3 -->
<g id="edge2" class="edge"><title>Node2&#45;&gt;Node3</title>
<path fill="none" stroke="midnightblue" d="M918,-812.083C918,-805.006 918,-794.861 918,-785.986"/>
<polygon fill="midnightblue" stroke="midnightblue" points="921.5,-785.751 918,-775.751 914.5,-785.751 921.5,-785.751"/>
</g>
<!-- Node3&#45;&gt;Node4 -->
<g id="edge3" class="edge"><title>Node3&#45;&gt;Node4</title>
<path fill="none" stroke="midnightblue" d="M878.699,-756.479C856.932,-749.889 830.932,-738.639 814,-720 802.423,-707.256 797.223,-688.06 794.89,-673.83"/>
<polygon fill="midnightblue" stroke="midnightblue" points="798.333,-673.162 793.567,-663.7 791.392,-674.069 798.333,-673.162"/>
</g>
<!-- Node6 -->
<g id="node6" class="node"><title>Node6</title>
<g id="a_node6"><a doxygen="https://jmirabel.github.io/hpp-doc/api/hpp-core/doxygen-html/hpp-core.doxytag:https://jmirabel.github.io/hpp-doc/api/hpp-core/doxygen-html/" xlink:href="https://jmirabel.github.io/hpp-doc/api/hpp-core/doxygen-html/a00001.html" target="_top" xlink:title="hpp/core/fwd.hh">
<polygon fill="white" stroke="black" points="829,-582.5 829,-601.5 915,-601.5 915,-582.5 829,-582.5"/>
<text text-anchor="middle" x="872" y="-589.5" font-family="Helvetica,sans-Serif" font-size="10.00">hpp/core/fwd.hh</text>
</a>
</g>
</g>
<!-- Node3&#45;&gt;Node6 -->
<g id="edge49" class="edge"><title>Node3&#45;&gt;Node6</title>
<path fill="none" stroke="midnightblue" d="M920.482,-756.471C923.75,-743.938 928.575,-719.879 924,-700 916.203,-666.117 896.175,-630.528 883.373,-610.127"/>
<polygon fill="midnightblue" stroke="midnightblue" points="886.268,-608.158 877.912,-601.645 880.382,-611.948 886.268,-608.158"/>
</g>
<!-- Node3&#45;&gt;Node29 -->
<g id="edge44" class="edge"><title>Node3&#45;&gt;Node29</title>
<path fill="none" stroke="midnightblue" d="M925.69,-756.368C942.006,-738.055 980.32,-695.049 1001.42,-671.362"/>
<polygon fill="midnightblue" stroke="midnightblue" points="1004.31,-673.386 1008.35,-663.591 999.08,-668.73 1004.31,-673.386"/>
</g>
<!-- Node34 -->
<g id="node34" class="node"><title>Node34</title>
<g id="a_node34"><a doxygen="https://jmirabel.github.io/hpp-doc/api/hpp-core/doxygen-html/hpp-core.doxytag:https://jmirabel.github.io/hpp-doc/api/hpp-core/doxygen-html/" xlink:href="https://jmirabel.github.io/hpp-doc/api/hpp-core/doxygen-html/a00123.html" target="_top" xlink:title="hpp/core/node.hh">
<polygon fill="white" stroke="black" points="823,-700.5 823,-719.5 915,-719.5 915,-700.5 823,-700.5"/>
<text text-anchor="middle" x="869" y="-707.5" font-family="Helvetica,sans-Serif" font-size="10.00">hpp/core/node.hh</text>
</a>
</g>
</g>
<!-- Node3&#45;&gt;Node34 -->
<g id="edge50" class="edge"><title>Node3&#45;&gt;Node34</title>
<path fill="none" stroke="midnightblue" d="M909.909,-756.083C902.845,-748.298 892.412,-736.801 883.851,-727.367"/>
<polygon fill="midnightblue" stroke="midnightblue" points="886.253,-724.805 876.941,-719.751 881.069,-729.509 886.253,-724.805"/>
</g>
<!-- Node5 -->
<g id="node5" class="node"><title>Node5</title>
<polygon fill="white" stroke="#bfbfbf" points="775.5,-582.5 775.5,-601.5 810.5,-601.5 810.5,-582.5 775.5,-582.5"/>
<text text-anchor="middle" x="793" y="-589.5" font-family="Helvetica,sans-Serif" font-size="10.00">map</text>
</g>
<!-- Node4&#45;&gt;Node5 -->
<g id="edge4" class="edge"><title>Node4&#45;&gt;Node5</title>
<path fill="none" stroke="midnightblue" d="M793,-644.403C793,-635.938 793,-622.728 793,-611.82"/>
<polygon fill="midnightblue" stroke="midnightblue" points="796.5,-611.581 793,-601.581 789.5,-611.581 796.5,-611.581"/>
</g>
<!-- Node4&#45;&gt;Node6 -->
<g id="edge5" class="edge"><title>Node4&#45;&gt;Node6</title>
<path fill="none" stroke="midnightblue" d="M804.319,-644.403C816.873,-634.869 837.351,-619.315 852.499,-607.811"/>
<polygon fill="midnightblue" stroke="midnightblue" points="854.856,-610.416 860.702,-601.581 850.622,-604.842 854.856,-610.416"/>
</g>
<!-- Node7 -->
<g id="node7" class="node"><title>Node7</title>
<g id="a_node7"><a doxygen="https://jmirabel.github.io/hpp-doc/api/hpp-fcl/doxygen-html/hpp-fcl.doxytag:https://jmirabel.github.io/hpp-doc/api/hpp-fcl/doxygen-html/" xlink:href="https://jmirabel.github.io/hpp-doc/api/hpp-fcl/doxygen-html/a00292.html" target="_top" xlink:title="hpp/fcl/shape/geometric\l_shapes.h">
<polygon fill="white" stroke="black" points="463.5,-577 463.5,-607 584.5,-607 584.5,-577 463.5,-577"/>
<text text-anchor="start" x="471.5" y="-595" font-family="Helvetica,sans-Serif" font-size="10.00">hpp/fcl/shape/geometric</text>
<text text-anchor="middle" x="524" y="-584" font-family="Helvetica,sans-Serif" font-size="10.00">_shapes.h</text>
</a>
</g>
</g>
<!-- Node4&#45;&gt;Node7 -->
<g id="edge6" class="edge"><title>Node4&#45;&gt;Node7</title>
<path fill="none" stroke="midnightblue" d="M754.745,-644.467C713.201,-635.201 645.932,-620.197 594.718,-608.774"/>
<polygon fill="midnightblue" stroke="midnightblue" points="595.224,-605.3 584.702,-606.539 593.7,-612.133 595.224,-605.3"/>
</g>
<!-- Node28 -->
<g id="node28" class="node"><title>Node28</title>
<polygon fill="white" stroke="#bfbfbf" points="602.5,-582.5 602.5,-601.5 757.5,-601.5 757.5,-582.5 602.5,-582.5"/>
<text text-anchor="middle" x="680" y="-589.5" font-family="Helvetica,sans-Serif" font-size="10.00">hpp/manipulation/deprecated.hh</text>
</g>
<!-- Node4&#45;&gt;Node28 -->
<g id="edge43" class="edge"><title>Node4&#45;&gt;Node28</title>
<path fill="none" stroke="midnightblue" d="M776.81,-644.403C758.098,-634.468 727.077,-617.997 705.201,-606.381"/>
<polygon fill="midnightblue" stroke="midnightblue" points="706.634,-603.179 696.16,-601.581 703.351,-609.362 706.634,-603.179"/>
</g>
<!-- Node8 -->
<g id="node8" class="node"><title>Node8</title>
<g id="a_node8"><a doxygen="https://jmirabel.github.io/hpp-doc/api/hpp-fcl/doxygen-html/hpp-fcl.doxytag:https://jmirabel.github.io/hpp-doc/api/hpp-fcl/doxygen-html/" xlink:href="https://jmirabel.github.io/hpp-doc/api/hpp-fcl/doxygen-html/a00280.html" target="_top" xlink:title="hpp/fcl/collision_object.h">
<polygon fill="white" stroke="black" points="170,-520.5 170,-539.5 294,-539.5 294,-520.5 170,-520.5"/>
<text text-anchor="middle" x="232" y="-527.5" font-family="Helvetica,sans-Serif" font-size="10.00">hpp/fcl/collision_object.h</text>
</a>
</g>
</g>
<!-- Node7&#45;&gt;Node8 -->
<g id="edge7" class="edge"><title>Node7&#45;&gt;Node8</title>
<path fill="none" stroke="midnightblue" d="M463.497,-578.568C410.362,-567.65 333.898,-551.938 283.601,-541.603"/>
<polygon fill="midnightblue" stroke="midnightblue" points="284.094,-538.131 273.594,-539.547 282.685,-544.988 284.094,-538.131"/>
</g>
<!-- Node11 -->
<g id="node11" class="node"><title>Node11</title>
<g id="a_node11"><a doxygen="https://jmirabel.github.io/hpp-doc/api/hpp-fcl/doxygen-html/hpp-fcl.doxytag:https://jmirabel.github.io/hpp-doc/api/hpp-fcl/doxygen-html/" xlink:href="https://jmirabel.github.io/hpp-doc/api/hpp-fcl/doxygen-html/a00356.html" target="_top" xlink:title="hpp/fcl/math/vec_3f.h">
<polygon fill="white" stroke="black" points="315.5,-124.5 315.5,-143.5 426.5,-143.5 426.5,-124.5 315.5,-124.5"/>
<text text-anchor="middle" x="371" y="-131.5" font-family="Helvetica,sans-Serif" font-size="10.00">hpp/fcl/math/vec_3f.h</text>
</a>
</g>
</g>
<!-- Node7&#45;&gt;Node11 -->
<g id="edge42" class="edge"><title>Node7&#45;&gt;Node11</title>
<path fill="none" stroke="midnightblue" d="M560.964,-576.89C618.513,-553.759 723,-506.586 723,-469 723,-469 723,-469 723,-263 723,-221.248 713.121,-204.062 679,-180 641.12,-153.287 515.701,-142.168 437.075,-137.739"/>
<polygon fill="midnightblue" stroke="midnightblue" points="436.954,-134.228 426.779,-137.182 436.576,-141.217 436.954,-134.228"/>
</g>
<!-- Node9 -->
<g id="node9" class="node"><title>Node9</title>
<g id="a_node9"><a doxygen="https://jmirabel.github.io/hpp-doc/api/hpp-fcl/doxygen-html/hpp-fcl.doxytag:https://jmirabel.github.io/hpp-doc/api/hpp-fcl/doxygen-html/" xlink:href="https://jmirabel.github.io/hpp-doc/api/hpp-fcl/doxygen-html/a00284.html" target="_top" xlink:title="hpp/fcl/deprecated.h">
<polygon fill="white" stroke="black" points="179.5,-458.5 179.5,-477.5 284.5,-477.5 284.5,-458.5 179.5,-458.5"/>
<text text-anchor="middle" x="232" y="-465.5" font-family="Helvetica,sans-Serif" font-size="10.00">hpp/fcl/deprecated.h</text>
</a>
</g>
</g>
<!-- Node8&#45;&gt;Node9 -->
<g id="edge8" class="edge"><title>Node8&#45;&gt;Node9</title>
<path fill="none" stroke="midnightblue" d="M232,-520.403C232,-511.938 232,-498.728 232,-487.82"/>
<polygon fill="midnightblue" stroke="midnightblue" points="235.5,-487.581 232,-477.581 228.5,-487.581 235.5,-487.581"/>
</g>
<!-- Node10 -->
<g id="node10" class="node"><title>Node10</title>
<g id="a_node10"><a doxygen="https://jmirabel.github.io/hpp-doc/api/hpp-fcl/doxygen-html/hpp-fcl.doxytag:https://jmirabel.github.io/hpp-doc/api/hpp-fcl/doxygen-html/" xlink:href="https://jmirabel.github.io/hpp-doc/api/hpp-fcl/doxygen-html/a00257.html" target="_top" xlink:title="hpp/fcl/BV/AABB.h">
<polygon fill="white" stroke="black" points="-0.5,-390.5 -0.5,-409.5 100.5,-409.5 100.5,-390.5 -0.5,-390.5"/>
<text text-anchor="middle" x="50" y="-397.5" font-family="Helvetica,sans-Serif" font-size="10.00">hpp/fcl/BV/AABB.h</text>
</a>
</g>
</g>
<!-- Node8&#45;&gt;Node10 -->
<g id="edge9" class="edge"><title>Node8&#45;&gt;Node10</title>
<path fill="none" stroke="midnightblue" d="M217.646,-520.352C203.153,-511.517 180.225,-497.251 161,-484 127.915,-461.196 90.7617,-432.825 68.9258,-415.853"/>
<polygon fill="midnightblue" stroke="midnightblue" points="70.8606,-412.924 60.8233,-409.532 66.5547,-418.443 70.8606,-412.924"/>
</g>
<!-- Node16 -->
<g id="node16" class="node"><title>Node16</title>
<g id="a_node16"><a doxygen="https://jmirabel.github.io/hpp-doc/api/hpp-fcl/doxygen-html/hpp-fcl.doxytag:https://jmirabel.github.io/hpp-doc/api/hpp-fcl/doxygen-html/" xlink:href="https://jmirabel.github.io/hpp-doc/api/hpp-fcl/doxygen-html/a00348.html" target="_top" xlink:title="hpp/fcl/math/transform.h">
<polygon fill="white" stroke="black" points="118.5,-390.5 118.5,-409.5 241.5,-409.5 241.5,-390.5 118.5,-390.5"/>
<text text-anchor="middle" x="180" y="-397.5" font-family="Helvetica,sans-Serif" font-size="10.00">hpp/fcl/math/transform.h</text>
</a>
</g>
</g>
<!-- Node8&#45;&gt;Node16 -->
<g id="edge16" class="edge"><title>Node8&#45;&gt;Node16</title>
<path fill="none" stroke="midnightblue" d="M211.777,-520.495C197.229,-513.168 178.699,-501.063 170,-484 159.573,-463.548 165.848,-436.683 172.167,-419.138"/>
<polygon fill="midnightblue" stroke="midnightblue" points="175.533,-420.145 175.958,-409.559 169.024,-417.569 175.533,-420.145"/>
</g>
<!-- Node18 -->
<g id="node18" class="node"><title>Node18</title>
<g id="a_node18"><a doxygen="https://jmirabel.github.io/hpp-doc/api/hpp-fcl/doxygen-html/hpp-fcl.doxytag:https://jmirabel.github.io/hpp-doc/api/hpp-fcl/doxygen-html/" xlink:href="https://jmirabel.github.io/hpp-doc/api/hpp-fcl/doxygen-html/a00325.html" target="_top" xlink:title="hpp/fcl/ccd/motion\l_base.h">
<polygon fill="white" stroke="black" points="302.5,-453 302.5,-483 399.5,-483 399.5,-453 302.5,-453"/>
<text text-anchor="start" x="310.5" y="-471" font-family="Helvetica,sans-Serif" font-size="10.00">hpp/fcl/ccd/motion</text>
<text text-anchor="middle" x="351" y="-460" font-family="Helvetica,sans-Serif" font-size="10.00">_base.h</text>
</a>
</g>
</g>
<!-- Node8&#45;&gt;Node18 -->
<g id="edge19" class="edge"><title>Node8&#45;&gt;Node18</title>
<path fill="none" stroke="midnightblue" d="M249.05,-520.403C265.92,-511.898 292.29,-498.602 313.984,-487.663"/>
<polygon fill="midnightblue" stroke="midnightblue" points="315.601,-490.768 322.954,-483.141 312.449,-484.518 315.601,-490.768"/>
</g>
<!-- Node10&#45;&gt;Node11 -->
<g id="edge10" class="edge"><title>Node10&#45;&gt;Node11</title>
<path fill="none" stroke="midnightblue" d="M50.7601,-390.483C53.2432,-366.377 62.7798,-296.292 93,-248 117.044,-209.578 128.684,-200.71 169,-180 211.426,-158.206 264.169,-146.914 305.121,-141.093"/>
<polygon fill="midnightblue" stroke="midnightblue" points="305.821,-144.531 315.265,-139.728 304.887,-137.593 305.821,-144.531"/>
</g>
<!-- Node12 -->
<g id="node12" class="node"><title>Node12</title>
<g id="a_node12"><a doxygen="https://jmirabel.github.io/hpp-doc/api/hpp-fcl/doxygen-html/hpp-fcl.doxytag:https://jmirabel.github.io/hpp-doc/api/hpp-fcl/doxygen-html/" xlink:href="https://jmirabel.github.io/hpp-doc/api/hpp-fcl/doxygen-html/a00283.html" target="_top" xlink:title="hpp/fcl/data_types.h">
<polygon fill="white" stroke="black" points="458.5,-0.5 458.5,-19.5 563.5,-19.5 563.5,-0.5 458.5,-0.5"/>
<text text-anchor="middle" x="511" y="-7.5" font-family="Helvetica,sans-Serif" font-size="10.00">hpp/fcl/data_types.h</text>
</a>
</g>
</g>
<!-- Node11&#45;&gt;Node12 -->
<g id="edge11" class="edge"><title>Node11&#45;&gt;Node12</title>
<path fill="none" stroke="midnightblue" d="M424.222,-124.472C447.697,-118.122 473.803,-107.097 491,-88 505.343,-72.072 509.646,-47.1592 510.811,-30.008"/>
<polygon fill="midnightblue" stroke="midnightblue" points="514.325,-29.7038 511.201,-19.5799 507.329,-29.4421 514.325,-29.7038"/>
</g>
<!-- Node13 -->
<g id="node13" class="node"><title>Node13</title>
<g id="a_node13"><a doxygen="https://jmirabel.github.io/hpp-doc/api/hpp-fcl/doxygen-html/hpp-fcl.doxytag:https://jmirabel.github.io/hpp-doc/api/hpp-fcl/doxygen-html/" xlink:href="https://jmirabel.github.io/hpp-doc/api/hpp-fcl/doxygen-html/a00316.html" target="_top" xlink:title="hpp/fcl/eigen/math\l_details.h">
<polygon fill="white" stroke="black" points="385.5,-57 385.5,-87 482.5,-87 482.5,-57 385.5,-57"/>
<text text-anchor="start" x="393.5" y="-75" font-family="Helvetica,sans-Serif" font-size="10.00">hpp/fcl/eigen/math</text>
<text text-anchor="middle" x="434" y="-64" font-family="Helvetica,sans-Serif" font-size="10.00">_details.h</text>
</a>
</g>
</g>
<!-- Node11&#45;&gt;Node13 -->
<g id="edge12" class="edge"><title>Node11&#45;&gt;Node13</title>
<path fill="none" stroke="midnightblue" d="M380.026,-124.403C388.32,-116.505 400.949,-104.477 411.907,-94.0409"/>
<polygon fill="midnightblue" stroke="midnightblue" points="414.325,-96.5719 419.152,-87.1408 409.497,-91.5029 414.325,-96.5719"/>
</g>
<!-- Node14 -->
<g id="node14" class="node"><title>Node14</title>
<g id="a_node14"><a doxygen="https://jmirabel.github.io/hpp-doc/api/hpp-fcl/doxygen-html/hpp-fcl.doxytag:https://jmirabel.github.io/hpp-doc/api/hpp-fcl/doxygen-html/" xlink:href="https://jmirabel.github.io/hpp-doc/api/hpp-fcl/doxygen-html/a00357.html" target="_top" xlink:title="hpp/fcl/eigen/vec_3fx.h">
<polygon fill="white" stroke="black" points="249,-62.5 249,-81.5 367,-81.5 367,-62.5 249,-62.5"/>
<text text-anchor="middle" x="308" y="-69.5" font-family="Helvetica,sans-Serif" font-size="10.00">hpp/fcl/eigen/vec_3fx.h</text>
</a>
</g>
</g>
<!-- Node11&#45;&gt;Node14 -->
<g id="edge13" class="edge"><title>Node11&#45;&gt;Node14</title>
<path fill="none" stroke="midnightblue" d="M361.974,-124.403C352.243,-115.136 336.542,-100.183 324.577,-88.7876"/>
<polygon fill="midnightblue" stroke="midnightblue" points="326.665,-85.9427 317.01,-81.5806 321.837,-91.0117 326.665,-85.9427"/>
</g>
<!-- Node14&#45;&gt;Node12 -->
<g id="edge14" class="edge"><title>Node14&#45;&gt;Node12</title>
<path fill="none" stroke="midnightblue" d="M337.085,-62.4035C372.585,-51.9108 432.745,-34.1295 472.174,-22.4758"/>
<polygon fill="midnightblue" stroke="midnightblue" points="473.371,-25.7716 481.969,-19.5806 471.387,-19.0586 473.371,-25.7716"/>
</g>
<!-- Node15 -->
<g id="node15" class="node"><title>Node15</title>
<g id="a_node15"><a doxygen="https://jmirabel.github.io/hpp-doc/api/hpp-fcl/doxygen-html/hpp-fcl.doxytag:https://jmirabel.github.io/hpp-doc/api/hpp-fcl/doxygen-html/" xlink:href="https://jmirabel.github.io/hpp-doc/api/hpp-fcl/doxygen-html/a00336.html" target="_top" xlink:title="hpp/fcl/eigen/product.h">
<polygon fill="white" stroke="black" points="250,-0.5 250,-19.5 366,-19.5 366,-0.5 250,-0.5"/>
<text text-anchor="middle" x="308" y="-7.5" font-family="Helvetica,sans-Serif" font-size="10.00">hpp/fcl/eigen/product.h</text>
</a>
</g>
</g>
<!-- Node14&#45;&gt;Node15 -->
<g id="edge15" class="edge"><title>Node14&#45;&gt;Node15</title>
<path fill="none" stroke="midnightblue" d="M308,-62.4035C308,-53.9381 308,-40.7283 308,-29.8199"/>
<polygon fill="midnightblue" stroke="midnightblue" points="311.5,-29.5806 308,-19.5806 304.5,-29.5806 311.5,-29.5806"/>
</g>
<!-- Node17 -->
<g id="node17" class="node"><title>Node17</title>
<g id="a_node17"><a doxygen="https://jmirabel.github.io/hpp-doc/api/hpp-fcl/doxygen-html/hpp-fcl.doxytag:https://jmirabel.github.io/hpp-doc/api/hpp-fcl/doxygen-html/" xlink:href="https://jmirabel.github.io/hpp-doc/api/hpp-fcl/doxygen-html/a00319.html" target="_top" xlink:title="hpp/fcl/math/matrix_3f.h">
<polygon fill="white" stroke="black" points="209,-186.5 209,-205.5 331,-205.5 331,-186.5 209,-186.5"/>
<text text-anchor="middle" x="270" y="-193.5" font-family="Helvetica,sans-Serif" font-size="10.00">hpp/fcl/math/matrix_3f.h</text>
</a>
</g>
</g>
<!-- Node16&#45;&gt;Node17 -->
<g id="edge17" class="edge"><title>Node16&#45;&gt;Node17</title>
<path fill="none" stroke="midnightblue" d="M183.867,-390.32C197.453,-359.828 243.18,-257.196 261.903,-215.172"/>
<polygon fill="midnightblue" stroke="midnightblue" points="265.173,-216.434 266.046,-205.875 258.779,-213.585 265.173,-216.434"/>
</g>
<!-- Node17&#45;&gt;Node11 -->
<g id="edge18" class="edge"><title>Node17&#45;&gt;Node11</title>
<path fill="none" stroke="midnightblue" d="M284.471,-186.403C301.046,-176.557 328.426,-160.291 347.947,-148.695"/>
<polygon fill="midnightblue" stroke="midnightblue" points="349.746,-151.697 356.556,-143.581 346.171,-145.679 349.746,-151.697"/>
</g>
<!-- Node18&#45;&gt;Node16 -->
<g id="edge20" class="edge"><title>Node18&#45;&gt;Node16</title>
<path fill="none" stroke="midnightblue" d="M314.316,-452.841C283.942,-441.118 241.208,-424.624 212.156,-413.411"/>
<polygon fill="midnightblue" stroke="midnightblue" points="213.083,-410.017 202.494,-409.682 210.563,-416.548 213.083,-410.017"/>
</g>
<!-- Node19 -->
<g id="node19" class="node"><title>Node19</title>
<g id="a_node19"><a doxygen="https://jmirabel.github.io/hpp-doc/api/hpp-fcl/doxygen-html/hpp-fcl.doxytag:https://jmirabel.github.io/hpp-doc/api/hpp-fcl/doxygen-html/" xlink:href="https://jmirabel.github.io/hpp-doc/api/hpp-fcl/doxygen-html/a00343.html" target="_top" xlink:title="hpp/fcl/ccd/taylor\l_matrix.h">
<polygon fill="white" stroke="black" points="305,-385 305,-415 397,-415 397,-385 305,-385"/>
<text text-anchor="start" x="313" y="-403" font-family="Helvetica,sans-Serif" font-size="10.00">hpp/fcl/ccd/taylor</text>
<text text-anchor="middle" x="351" y="-392" font-family="Helvetica,sans-Serif" font-size="10.00">_matrix.h</text>
</a>
</g>
</g>
<!-- Node18&#45;&gt;Node19 -->
<g id="edge21" class="edge"><title>Node18&#45;&gt;Node19</title>
<path fill="none" stroke="midnightblue" d="M351,-452.679C351,-444.722 351,-434.605 351,-425.436"/>
<polygon fill="midnightblue" stroke="midnightblue" points="354.5,-425.293 351,-415.293 347.5,-425.293 354.5,-425.293"/>
</g>
<!-- Node20 -->
<g id="node20" class="node"><title>Node20</title>
<g id="a_node20"><a doxygen="https://jmirabel.github.io/hpp-doc/api/hpp-fcl/doxygen-html/hpp-fcl.doxytag:https://jmirabel.github.io/hpp-doc/api/hpp-fcl/doxygen-html/" xlink:href="https://jmirabel.github.io/hpp-doc/api/hpp-fcl/doxygen-html/a00346.html" target="_top" xlink:title="hpp/fcl/ccd/taylor\l_vector.h">
<polygon fill="white" stroke="black" points="419,-317 419,-347 511,-347 511,-317 419,-317"/>
<text text-anchor="start" x="427" y="-335" font-family="Helvetica,sans-Serif" font-size="10.00">hpp/fcl/ccd/taylor</text>
<text text-anchor="middle" x="465" y="-324" font-family="Helvetica,sans-Serif" font-size="10.00">_vector.h</text>
</a>
</g>
</g>
<!-- Node18&#45;&gt;Node20 -->
<g id="edge38" class="edge"><title>Node18&#45;&gt;Node20</title>
<path fill="none" stroke="midnightblue" d="M368.223,-452.66C379.523,-442.87 394.315,-429.308 406,-416 422.732,-396.944 439.236,-373.185 450.515,-355.976"/>
<polygon fill="midnightblue" stroke="midnightblue" points="453.724,-357.459 456.212,-347.161 447.845,-353.66 453.724,-357.459"/>
</g>
<!-- Node27 -->
<g id="node27" class="node"><title>Node27</title>
<g id="a_node27"><a doxygen="https://jmirabel.github.io/hpp-doc/api/hpp-fcl/doxygen-html/hpp-fcl.doxytag:https://jmirabel.github.io/hpp-doc/api/hpp-fcl/doxygen-html/" xlink:href="https://jmirabel.github.io/hpp-doc/api/hpp-fcl/doxygen-html/a00338.html" target="_top" xlink:title="hpp/fcl/BV/RSS.h">
<polygon fill="white" stroke="black" points="102.5,-254.5 102.5,-273.5 197.5,-273.5 197.5,-254.5 102.5,-254.5"/>
<text text-anchor="middle" x="150" y="-261.5" font-family="Helvetica,sans-Serif" font-size="10.00">hpp/fcl/BV/RSS.h</text>
</a>
</g>
</g>
<!-- Node18&#45;&gt;Node27 -->
<g id="edge39" class="edge"><title>Node18&#45;&gt;Node27</title>
<path fill="none" stroke="midnightblue" d="M335.379,-452.933C324.253,-442.813 309.025,-428.756 296,-416 247.127,-368.137 191.482,-309.337 165.234,-281.331"/>
<polygon fill="midnightblue" stroke="midnightblue" points="167.459,-278.586 158.072,-273.674 162.347,-283.368 167.459,-278.586"/>
</g>
<!-- Node19&#45;&gt;Node17 -->
<g id="edge22" class="edge"><title>Node19&#45;&gt;Node17</title>
<path fill="none" stroke="midnightblue" d="M327.747,-384.898C315.079,-375.948 300.329,-363.198 292,-348 268.621,-305.34 267.462,-246.19 268.675,-216.154"/>
<polygon fill="midnightblue" stroke="midnightblue" points="272.188,-216.014 269.237,-205.839 265.198,-215.633 272.188,-216.014"/>
</g>
<!-- Node19&#45;&gt;Node20 -->
<g id="edge23" class="edge"><title>Node19&#45;&gt;Node20</title>
<path fill="none" stroke="midnightblue" d="M375.456,-384.841C391.835,-375.359 413.607,-362.754 431.58,-352.348"/>
<polygon fill="midnightblue" stroke="midnightblue" points="433.684,-355.175 440.585,-347.135 430.177,-349.117 433.684,-355.175"/>
</g>
<!-- Node26 -->
<g id="node26" class="node"><title>Node26</title>
<g id="a_node26"><a doxygen="https://jmirabel.github.io/hpp-doc/api/hpp-fcl/doxygen-html/hpp-fcl.doxytag:https://jmirabel.github.io/hpp-doc/api/hpp-fcl/doxygen-html/" xlink:href="https://jmirabel.github.io/hpp-doc/api/hpp-fcl/doxygen-html/a00307.html" target="_top" xlink:title="hpp/fcl/ccd/interval\l_matrix.h">
<polygon fill="white" stroke="black" points="301.5,-317 301.5,-347 400.5,-347 400.5,-317 301.5,-317"/>
<text text-anchor="start" x="309.5" y="-335" font-family="Helvetica,sans-Serif" font-size="10.00">hpp/fcl/ccd/interval</text>
<text text-anchor="middle" x="351" y="-324" font-family="Helvetica,sans-Serif" font-size="10.00">_matrix.h</text>
</a>
</g>
</g>
<!-- Node19&#45;&gt;Node26 -->
<g id="edge34" class="edge"><title>Node19&#45;&gt;Node26</title>
<path fill="none" stroke="midnightblue" d="M351,-384.679C351,-376.722 351,-366.605 351,-357.436"/>
<polygon fill="midnightblue" stroke="midnightblue" points="354.5,-357.293 351,-347.293 347.5,-357.293 354.5,-357.293"/>
</g>
<!-- Node21 -->
<g id="node21" class="node"><title>Node21</title>
<g id="a_node21"><a doxygen="https://jmirabel.github.io/hpp-doc/api/hpp-fcl/doxygen-html/hpp-fcl.doxytag:https://jmirabel.github.io/hpp-doc/api/hpp-fcl/doxygen-html/" xlink:href="https://jmirabel.github.io/hpp-doc/api/hpp-fcl/doxygen-html/a00309.html" target="_top" xlink:title="hpp/fcl/ccd/interval\l_vector.h">
<polygon fill="white" stroke="black" points="447.5,-249 447.5,-279 546.5,-279 546.5,-249 447.5,-249"/>
<text text-anchor="start" x="455.5" y="-267" font-family="Helvetica,sans-Serif" font-size="10.00">hpp/fcl/ccd/interval</text>
<text text-anchor="middle" x="497" y="-256" font-family="Helvetica,sans-Serif" font-size="10.00">_vector.h</text>
</a>
</g>
</g>
<!-- Node20&#45;&gt;Node21 -->
<g id="edge24" class="edge"><title>Node20&#45;&gt;Node21</title>
<path fill="none" stroke="midnightblue" d="M471.944,-316.679C475.927,-308.463 481.028,-297.943 485.586,-288.542"/>
<polygon fill="midnightblue" stroke="midnightblue" points="488.857,-289.818 490.07,-279.293 482.558,-286.764 488.857,-289.818"/>
</g>
<!-- Node24 -->
<g id="node24" class="node"><title>Node24</title>
<g id="a_node24"><a doxygen="https://jmirabel.github.io/hpp-doc/api/hpp-fcl/doxygen-html/hpp-fcl.doxytag:https://jmirabel.github.io/hpp-doc/api/hpp-fcl/doxygen-html/" xlink:href="https://jmirabel.github.io/hpp-doc/api/hpp-fcl/doxygen-html/a00344.html" target="_top" xlink:title="hpp/fcl/ccd/taylor\l_model.h">
<polygon fill="white" stroke="black" points="603,-249 603,-279 695,-279 695,-249 603,-249"/>
<text text-anchor="start" x="611" y="-267" font-family="Helvetica,sans-Serif" font-size="10.00">hpp/fcl/ccd/taylor</text>
<text text-anchor="middle" x="649" y="-256" font-family="Helvetica,sans-Serif" font-size="10.00">_model.h</text>
</a>
</g>
</g>
<!-- Node20&#45;&gt;Node24 -->
<g id="edge29" class="edge"><title>Node20&#45;&gt;Node24</title>
<path fill="none" stroke="midnightblue" d="M504.473,-316.841C532.581,-306.759 570.528,-293.147 600.486,-282.402"/>
<polygon fill="midnightblue" stroke="midnightblue" points="601.678,-285.693 609.909,-279.022 599.314,-279.104 601.678,-285.693"/>
</g>
<!-- Node25 -->
<g id="node25" class="node"><title>Node25</title>
<g id="a_node25"><a doxygen="https://jmirabel.github.io/hpp-doc/api/hpp-fcl/doxygen-html/hpp-fcl.doxytag:https://jmirabel.github.io/hpp-doc/api/hpp-fcl/doxygen-html/" xlink:href="https://jmirabel.github.io/hpp-doc/api/hpp-fcl/doxygen-html/a00345.html" target="_top" xlink:title="hpp/fcl/eigen/taylor\l_operator.h">
<polygon fill="white" stroke="black" points="330.5,-249 330.5,-279 429.5,-279 429.5,-249 330.5,-249"/>
<text text-anchor="start" x="338.5" y="-267" font-family="Helvetica,sans-Serif" font-size="10.00">hpp/fcl/eigen/taylor</text>
<text text-anchor="middle" x="380" y="-256" font-family="Helvetica,sans-Serif" font-size="10.00">_operator.h</text>
</a>
</g>
</g>
<!-- Node20&#45;&gt;Node25 -->
<g id="edge31" class="edge"><title>Node20&#45;&gt;Node25</title>
<path fill="none" stroke="midnightblue" d="M446.556,-316.679C434.781,-307.536 419.331,-295.54 406.282,-285.407"/>
<polygon fill="midnightblue" stroke="midnightblue" points="408.161,-282.435 398.116,-279.066 403.868,-287.964 408.161,-282.435"/>
</g>
<!-- Node21&#45;&gt;Node11 -->
<g id="edge27" class="edge"><title>Node21&#45;&gt;Node11</title>
<path fill="none" stroke="midnightblue" d="M474.544,-248.905C460.363,-239.421 442.12,-226.109 428,-212 409.51,-193.524 392.241,-168.714 381.661,-152.31"/>
<polygon fill="midnightblue" stroke="midnightblue" points="384.545,-150.321 376.247,-143.734 378.626,-154.058 384.545,-150.321"/>
</g>
<!-- Node22 -->
<g id="node22" class="node"><title>Node22</title>
<g id="a_node22"><a doxygen="https://jmirabel.github.io/hpp-doc/api/hpp-fcl/doxygen-html/hpp-fcl.doxytag:https://jmirabel.github.io/hpp-doc/api/hpp-fcl/doxygen-html/" xlink:href="https://jmirabel.github.io/hpp-doc/api/hpp-fcl/doxygen-html/a00306.html" target="_top" xlink:title="hpp/fcl/ccd/interval.h">
<polygon fill="white" stroke="black" points="563.5,-186.5 563.5,-205.5 670.5,-205.5 670.5,-186.5 563.5,-186.5"/>
<text text-anchor="middle" x="617" y="-193.5" font-family="Helvetica,sans-Serif" font-size="10.00">hpp/fcl/ccd/interval.h</text>
</a>
</g>
</g>
<!-- Node21&#45;&gt;Node22 -->
<g id="edge25" class="edge"><title>Node21&#45;&gt;Node22</title>
<path fill="none" stroke="midnightblue" d="M522.743,-248.841C543.313,-237.528 571.962,-221.771 592.263,-210.605"/>
<polygon fill="midnightblue" stroke="midnightblue" points="594.139,-213.568 601.215,-205.682 590.766,-207.434 594.139,-213.568"/>
</g>
<!-- Node23 -->
<g id="node23" class="node"><title>Node23</title>
<g id="a_node23"><a doxygen="https://jmirabel.github.io/hpp-doc/api/hpp-fcl/doxygen-html/hpp-fcl.doxytag:https://jmirabel.github.io/hpp-doc/api/hpp-fcl/doxygen-html/" xlink:href="https://jmirabel.github.io/hpp-doc/api/hpp-fcl/doxygen-html/a00305.html" target="_top" xlink:title="hpp/fcl/eigen/plugins\l/ccd/interval&#45;vector.h">
<polygon fill="white" stroke="black" points="437,-181 437,-211 545,-211 545,-181 437,-181"/>
<text text-anchor="start" x="445" y="-199" font-family="Helvetica,sans-Serif" font-size="10.00">hpp/fcl/eigen/plugins</text>
<text text-anchor="middle" x="491" y="-188" font-family="Helvetica,sans-Serif" font-size="10.00">/ccd/interval&#45;vector.h</text>
</a>
</g>
</g>
<!-- Node21&#45;&gt;Node23 -->
<g id="edge28" class="edge"><title>Node21&#45;&gt;Node23</title>
<path fill="none" stroke="midnightblue" d="M495.698,-248.679C494.975,-240.722 494.055,-230.605 493.221,-221.436"/>
<polygon fill="midnightblue" stroke="midnightblue" points="496.69,-220.935 492.299,-211.293 489.719,-221.569 496.69,-220.935"/>
</g>
<!-- Node22&#45;&gt;Node12 -->
<g id="edge26" class="edge"><title>Node22&#45;&gt;Node12</title>
<path fill="none" stroke="midnightblue" d="M611.887,-186.125C595.412,-157.526 543.491,-67.4003 521.263,-28.8145"/>
<polygon fill="midnightblue" stroke="midnightblue" points="524.086,-26.7035 516.061,-19.7857 518.02,-30.1978 524.086,-26.7035"/>
</g>
<!-- Node24&#45;&gt;Node22 -->
<g id="edge30" class="edge"><title>Node24&#45;&gt;Node22</title>
<path fill="none" stroke="midnightblue" d="M642.056,-248.679C637.265,-238.796 630.857,-225.579 625.721,-214.986"/>
<polygon fill="midnightblue" stroke="midnightblue" points="628.793,-213.299 621.28,-205.828 622.494,-216.353 628.793,-213.299"/>
</g>
<!-- Node25&#45;&gt;Node11 -->
<g id="edge32" class="edge"><title>Node25&#45;&gt;Node11</title>
<path fill="none" stroke="midnightblue" d="M379.002,-248.813C377.368,-225.566 374.12,-179.371 372.305,-153.556"/>
<polygon fill="midnightblue" stroke="midnightblue" points="375.796,-153.304 371.603,-143.574 368.813,-153.795 375.796,-153.304"/>
</g>
<!-- Node25&#45;&gt;Node17 -->
<g id="edge33" class="edge"><title>Node25&#45;&gt;Node17</title>
<path fill="none" stroke="midnightblue" d="M356.402,-248.841C337.717,-237.63 311.759,-222.056 293.183,-210.91"/>
<polygon fill="midnightblue" stroke="midnightblue" points="294.845,-207.826 284.47,-205.682 291.244,-213.828 294.845,-207.826"/>
</g>
<!-- Node26&#45;&gt;Node17 -->
<g id="edge37" class="edge"><title>Node26&#45;&gt;Node17</title>
<path fill="none" stroke="midnightblue" d="M342.332,-316.66C327.356,-291.885 296.695,-241.161 280.522,-214.407"/>
<polygon fill="midnightblue" stroke="midnightblue" points="283.444,-212.475 275.276,-205.728 277.453,-216.096 283.444,-212.475"/>
</g>
<!-- Node26&#45;&gt;Node21 -->
<g id="edge36" class="edge"><title>Node26&#45;&gt;Node21</title>
<path fill="none" stroke="midnightblue" d="M382.321,-316.841C404.045,-307.021 433.176,-293.852 456.64,-283.245"/>
<polygon fill="midnightblue" stroke="midnightblue" points="458.312,-286.33 465.982,-279.022 455.428,-279.952 458.312,-286.33"/>
</g>
<!-- Node26&#45;&gt;Node22 -->
<g id="edge35" class="edge"><title>Node26&#45;&gt;Node22</title>
<path fill="none" stroke="midnightblue" d="M400.569,-318.376C403.76,-317.57 406.925,-316.773 410,-316 474.399,-299.819 499.688,-316.738 555,-280 579.765,-263.551 598.397,-233.741 608.492,-214.681"/>
<polygon fill="midnightblue" stroke="midnightblue" points="611.702,-216.09 613.093,-205.587 605.456,-212.929 611.702,-216.09"/>
</g>
<!-- Node27&#45;&gt;Node11 -->
<g id="edge40" class="edge"><title>Node27&#45;&gt;Node11</title>
<path fill="none" stroke="midnightblue" d="M152.692,-254.458C158.478,-237.531 173.747,-199.668 200,-180 230.299,-157.301 271.091,-146.029 305.233,-140.441"/>
<polygon fill="midnightblue" stroke="midnightblue" points="305.768,-143.901 315.134,-138.948 304.723,-136.979 305.768,-143.901"/>
</g>
<!-- Node27&#45;&gt;Node17 -->
<g id="edge41" class="edge"><title>Node27&#45;&gt;Node17</title>
<path fill="none" stroke="midnightblue" d="M165.688,-254.372C185.991,-243.205 221.588,-223.627 245.477,-210.488"/>
<polygon fill="midnightblue" stroke="midnightblue" points="247.233,-213.516 254.308,-205.63 243.859,-207.383 247.233,-213.516"/>
</g>
<!-- Node30 -->
<g id="node30" class="node"><title>Node30</title>
<polygon fill="white" stroke="#bfbfbf" points="1153,-582.5 1153,-601.5 1247,-601.5 1247,-582.5 1153,-582.5"/>
<text text-anchor="middle" x="1200" y="-589.5" font-family="Helvetica,sans-Serif" font-size="10.00">hpp/util/pointer.hh</text>
</g>
<!-- Node29&#45;&gt;Node30 -->
<g id="edge45" class="edge"><title>Node29&#45;&gt;Node30</title>
<path fill="none" stroke="midnightblue" d="M1042.36,-644.403C1074.34,-633.978 1128.38,-616.356 1164.12,-604.699"/>
<polygon fill="midnightblue" stroke="midnightblue" points="1165.26,-608.008 1173.69,-601.581 1163.09,-601.353 1165.26,-608.008"/>
</g>
<!-- Node31 -->
<g id="node31" class="node"><title>Node31</title>
<g id="a_node31"><a doxygen="https://jmirabel.github.io/hpp-doc/api/hpp-statistics/doxygen-html/hpp-statistics.doxytag:https://jmirabel.github.io/hpp-doc/api/hpp-statistics/doxygen-html/" xlink:href="https://jmirabel.github.io/hpp-doc/api/hpp-statistics/doxygen-html/a00010.html" target="_top" xlink:title="hpp/statistics/distribution.hh">
<polygon fill="white" stroke="black" points="933.5,-582.5 933.5,-601.5 1072.5,-601.5 1072.5,-582.5 933.5,-582.5"/>
<text text-anchor="middle" x="1003" y="-589.5" font-family="Helvetica,sans-Serif" font-size="10.00">hpp/statistics/distribution.hh</text>
</a>
</g>
</g>
<!-- Node29&#45;&gt;Node31 -->
<g id="edge46" class="edge"><title>Node29&#45;&gt;Node31</title>
<path fill="none" stroke="midnightblue" d="M1014.14,-644.403C1012.28,-635.849 1009.38,-622.45 1007,-611.476"/>
<polygon fill="midnightblue" stroke="midnightblue" points="1010.4,-610.613 1004.86,-601.581 1003.56,-612.095 1010.4,-610.613"/>
</g>
<!-- Node33 -->
<g id="node33" class="node"><title>Node33</title>
<polygon fill="white" stroke="#bfbfbf" points="1091,-582.5 1091,-601.5 1135,-601.5 1135,-582.5 1091,-582.5"/>
<text text-anchor="middle" x="1113" y="-589.5" font-family="Helvetica,sans-Serif" font-size="10.00">vector</text>
</g>
<!-- Node29&#45;&gt;Node33 -->
<g id="edge48" class="edge"><title>Node29&#45;&gt;Node33</title>
<path fill="none" stroke="midnightblue" d="M1029.9,-644.403C1045.74,-634.601 1071.87,-618.439 1090.6,-606.853"/>
<polygon fill="midnightblue" stroke="midnightblue" points="1092.46,-609.818 1099.13,-601.581 1088.78,-603.865 1092.46,-609.818"/>
</g>
<!-- Node32 -->
<g id="node32" class="node"><title>Node32</title>
<g id="a_node32"><a doxygen="https://jmirabel.github.io/hpp-doc/api/hpp-statistics/doxygen-html/hpp-statistics.doxytag:https://jmirabel.github.io/hpp-doc/api/hpp-statistics/doxygen-html/" xlink:href="https://jmirabel.github.io/hpp-doc/api/hpp-statistics/doxygen-html/a00011.html" target="_top" xlink:title="hpp/statistics/fwd.hh">
<polygon fill="white" stroke="black" points="949.5,-520.5 949.5,-539.5 1056.5,-539.5 1056.5,-520.5 949.5,-520.5"/>
<text text-anchor="middle" x="1003" y="-527.5" font-family="Helvetica,sans-Serif" font-size="10.00">hpp/statistics/fwd.hh</text>
</a>
</g>
</g>
<!-- Node31&#45;&gt;Node32 -->
<g id="edge47" class="edge"><title>Node31&#45;&gt;Node32</title>
<path fill="none" stroke="midnightblue" d="M1003,-582.403C1003,-573.938 1003,-560.728 1003,-549.82"/>
<polygon fill="midnightblue" stroke="midnightblue" points="1006.5,-549.581 1003,-539.581 999.5,-549.581 1006.5,-549.581"/>
</g>
<!-- Node34&#45;&gt;Node4 -->
<g id="edge51" class="edge"><title>Node34&#45;&gt;Node4</title>
<path fill="none" stroke="midnightblue" d="M856.789,-700.324C845.224,-692.107 827.625,-679.602 813.839,-669.807"/>
<polygon fill="midnightblue" stroke="midnightblue" points="815.612,-666.773 805.433,-663.834 811.557,-672.479 815.612,-666.773"/>
</g>
<!-- Node34&#45;&gt;Node6 -->
<g id="edge53" class="edge"><title>Node34&#45;&gt;Node6</title>
<path fill="none" stroke="midnightblue" d="M869.225,-700.281C869.71,-681.547 870.86,-637.098 871.517,-611.682"/>
<polygon fill="midnightblue" stroke="midnightblue" points="875.02,-611.592 871.78,-601.505 868.023,-611.411 875.02,-611.592"/>
</g>
<!-- Node34&#45;&gt;Node29 -->
<g id="edge52" class="edge"><title>Node34&#45;&gt;Node29</title>
<path fill="none" stroke="midnightblue" d="M892.293,-700.444C916.807,-691.438 955.596,-677.189 983.2,-667.049"/>
<polygon fill="midnightblue" stroke="midnightblue" points="984.637,-670.25 992.816,-663.516 982.223,-663.679 984.637,-670.25"/>
</g>
</g>
</svg>
