<?xml version="1.0" encoding="UTF-8" standalone="no"?>
<!DOCTYPE svg PUBLIC "-//W3C//DTD SVG 1.1//EN"
 "http://www.w3.org/Graphics/SVG/1.1/DTD/svg11.dtd">
<!-- Generated by graphviz version 2.36.0 (20140111.2315)
 -->
<!-- Title: fwd.hh Pages: 1 -->
<svg width="321pt" height="140pt"
 viewBox="0.00 0.00 321.00 140.00" xmlns="http://www.w3.org/2000/svg" xmlns:xlink="http://www.w3.org/1999/xlink">
<g id="graph0" class="graph" transform="scale(1 1) rotate(0) translate(4 136)">
<title>fwd.hh</title>
<polygon fill="white" stroke="none" points="-4,4 -4,-136 317,-136 317,4 -4,4"/>
<!-- Node1 -->
<g id="node1" class="node"><title>Node1</title>
<polygon fill="#bfbfbf" stroke="black" points="159,-112.5 159,-131.5 205,-131.5 205,-112.5 159,-112.5"/>
<text text-anchor="middle" x="182" y="-119.5" font-family="Helvetica,sans-Serif" font-size="10.00">fwd.hh</text>
</g>
<!-- Node2 -->
<g id="node2" class="node"><title>Node2</title>
<polygon fill="white" stroke="#bfbfbf" points="0,-56.5 0,-75.5 94,-75.5 94,-56.5 0,-56.5"/>
<text text-anchor="middle" x="47" y="-63.5" font-family="Helvetica,sans-Serif" font-size="10.00">hpp/util/pointer.hh</text>
</g>
<!-- Node1&#45;&gt;Node2 -->
<g id="edge1" class="edge"><title>Node1&#45;&gt;Node2</title>
<path fill="none" stroke="midnightblue" d="M160.609,-112.444C138.293,-103.517 103.097,-89.4387 77.792,-79.3168"/>
<polygon fill="midnightblue" stroke="midnightblue" points="78.8757,-75.9807 68.2911,-75.5164 76.276,-82.4801 78.8757,-75.9807"/>
</g>
<!-- Node3 -->
<g id="node3" class="node"><title>Node3</title>
<g id="a_node3"><a doxygen="https://jmirabel.github.io/hpp-doc/api/hpp-statistics/doxygen-html/hpp-statistics.doxytag:https://jmirabel.github.io/hpp-doc/api/hpp-statistics/doxygen-html/" xlink:href="https://jmirabel.github.io/hpp-doc/api/hpp-statistics/doxygen-html/a00010.html" target="_top" xlink:title="hpp/statistics/distribution.hh">
<polygon fill="white" stroke="black" points="112.5,-56.5 112.5,-75.5 251.5,-75.5 251.5,-56.5 112.5,-56.5"/>
<text text-anchor="middle" x="182" y="-63.5" font-family="Helvetica,sans-Serif" font-size="10.00">hpp/statistics/distribution.hh</text>
</a>
</g>
</g>
<!-- Node1&#45;&gt;Node3 -->
<g id="edge2" class="edge"><title>Node1&#45;&gt;Node3</title>
<path fill="none" stroke="midnightblue" d="M182,-112.083C182,-105.006 182,-94.8611 182,-85.9865"/>
<polygon fill="midnightblue" stroke="midnightblue" points="185.5,-85.751 182,-75.7511 178.5,-85.7511 185.5,-85.751"/>
</g>
<!-- Node5 -->
<g id="node5" class="node"><title>Node5</title>
<polygon fill="white" stroke="#bfbfbf" points="270,-56.5 270,-75.5 314,-75.5 314,-56.5 270,-56.5"/>
<text text-anchor="middle" x="292" y="-63.5" font-family="Helvetica,sans-Serif" font-size="10.00">vector</text>
</g>
<!-- Node1&#45;&gt;Node5 -->
<g id="edge4" class="edge"><title>Node1&#45;&gt;Node5</title>
<path fill="none" stroke="midnightblue" d="M199.673,-112.324C217.394,-103.625 244.903,-90.1202 265.288,-80.113"/>
<polygon fill="midnightblue" stroke="midnightblue" points="266.936,-83.2031 274.37,-75.6545 263.851,-76.9195 266.936,-83.2031"/>
</g>
<!-- Node4 -->
<g id="node4" class="node"><title>Node4</title>
<g id="a_node4"><a doxygen="https://jmirabel.github.io/hpp-doc/api/hpp-statistics/doxygen-html/hpp-statistics.doxytag:https://jmirabel.github.io/hpp-doc/api/hpp-statistics/doxygen-html/" xlink:href="https://jmirabel.github.io/hpp-doc/api/hpp-statistics/doxygen-html/a00011.html" target="_top" xlink:title="hpp/statistics/fwd.hh">
<polygon fill="white" stroke="black" points="128.5,-0.5 128.5,-19.5 235.5,-19.5 235.5,-0.5 128.5,-0.5"/>
<text text-anchor="middle" x="182" y="-7.5" font-family="Helvetica,sans-Serif" font-size="10.00">hpp/statistics/fwd.hh</text>
</a>
</g>
</g>
<!-- Node3&#45;&gt;Node4 -->
<g id="edge3" class="edge"><title>Node3&#45;&gt;Node4</title>
<path fill="none" stroke="midnightblue" d="M182,-56.083C182,-49.0059 182,-38.8611 182,-29.9865"/>
<polygon fill="midnightblue" stroke="midnightblue" points="185.5,-29.751 182,-19.7511 178.5,-29.7511 185.5,-29.751"/>
</g>
</g>
</svg>
