<?xml version="1.0" encoding="UTF-8" standalone="no"?>
<!DOCTYPE svg PUBLIC "-//W3C//DTD SVG 1.1//EN"
 "http://www.w3.org/Graphics/SVG/1.1/DTD/svg11.dtd">
<!-- Generated by graphviz version 2.36.0 (20140111.2315)
 -->
<!-- Title: hpp::manipulation::graph::GuidedNodeSelector Pages: 1 -->
<svg width="144pt" height="176pt"
 viewBox="0.00 0.00 144.00 176.00" xmlns="http://www.w3.org/2000/svg" xmlns:xlink="http://www.w3.org/1999/xlink">
<g id="graph0" class="graph" transform="scale(1 1) rotate(0) translate(4 172)">
<title>hpp::manipulation::graph::GuidedNodeSelector</title>
<polygon fill="white" stroke="none" points="-4,4 -4,-172 140,-172 140,4 -4,4"/>
<!-- Node1 -->
<g id="node1" class="node"><title>Node1</title>
<polygon fill="#bfbfbf" stroke="black" points="-0.5,-1 -0.5,-31 136.5,-31 136.5,-1 -0.5,-1"/>
<text text-anchor="start" x="7.5" y="-19" font-family="Helvetica,sans-Serif" font-size="10.00">hpp::manipulation::</text>
<text text-anchor="middle" x="68" y="-8" font-family="Helvetica,sans-Serif" font-size="10.00">graph::GuidedNodeSelector</text>
</g>
<!-- Node2 -->
<g id="node2" class="node"><title>Node2</title>
<g id="a_node2"><a xlink:href="a00033.html" target="_top" xlink:title="This class is used to get the state of a configuration. ">
<polygon fill="white" stroke="black" points="15,-69 15,-99 121,-99 121,-69 15,-69"/>
<text text-anchor="start" x="23" y="-87" font-family="Helvetica,sans-Serif" font-size="10.00">hpp::manipulation::</text>
<text text-anchor="middle" x="68" y="-76" font-family="Helvetica,sans-Serif" font-size="10.00">graph::NodeSelector</text>
</a>
</g>
</g>
<!-- Node2&#45;&gt;Node1 -->
<g id="edge1" class="edge"><title>Node2&#45;&gt;Node1</title>
<path fill="none" stroke="midnightblue" d="M68,-58.5322C68,-49.3606 68,-39.2449 68,-31.2931"/>
<polygon fill="midnightblue" stroke="midnightblue" points="64.5001,-58.6789 68,-68.679 71.5001,-58.679 64.5001,-58.6789"/>
</g>
<!-- Node3 -->
<g id="node3" class="node"><title>Node3</title>
<g id="a_node3"><a xlink:href="a00018.html" target="_top" xlink:title="Define common methods of the graph components. ">
<polygon fill="white" stroke="black" points="6.5,-137 6.5,-167 129.5,-167 129.5,-137 6.5,-137"/>
<text text-anchor="start" x="14.5" y="-155" font-family="Helvetica,sans-Serif" font-size="10.00">hpp::manipulation::</text>
<text text-anchor="middle" x="68" y="-144" font-family="Helvetica,sans-Serif" font-size="10.00">graph::GraphComponent</text>
</a>
</g>
</g>
<!-- Node3&#45;&gt;Node2 -->
<g id="edge2" class="edge"><title>Node3&#45;&gt;Node2</title>
<path fill="none" stroke="midnightblue" d="M68,-126.532C68,-117.361 68,-107.245 68,-99.2931"/>
<polygon fill="midnightblue" stroke="midnightblue" points="64.5001,-126.679 68,-136.679 71.5001,-126.679 64.5001,-126.679"/>
</g>
</g>
</svg>
