<?xml version="1.0" encoding="UTF-8" standalone="no"?>
<!DOCTYPE svg PUBLIC "-//W3C//DTD SVG 1.1//EN"
 "http://www.w3.org/Graphics/SVG/1.1/DTD/svg11.dtd">
<!-- Generated by graphviz version 2.36.0 (20140111.2315)
 -->
<!-- Title: hpp::manipulation::ProblemSolver Pages: 1 -->
<svg width="698pt" height="447pt"
 viewBox="0.00 0.00 698.00 447.00" xmlns="http://www.w3.org/2000/svg" xmlns:xlink="http://www.w3.org/1999/xlink">
<g id="graph0" class="graph" transform="scale(1 1) rotate(0) translate(4 443)">
<title>hpp::manipulation::ProblemSolver</title>
<polygon fill="white" stroke="none" points="-4,4 -4,-443 694,-443 694,4 -4,4"/>
<!-- Node1 -->
<g id="node1" class="node"><title>Node1</title>
<polygon fill="#bfbfbf" stroke="black" points="590.5,-154 590.5,-184 689.5,-184 689.5,-154 590.5,-154"/>
<text text-anchor="start" x="598.5" y="-172" font-family="Helvetica,sans-Serif" font-size="10.00">hpp::manipulation::</text>
<text text-anchor="middle" x="640" y="-161" font-family="Helvetica,sans-Serif" font-size="10.00">ProblemSolver</text>
</g>
<!-- Node2 -->
<g id="node2" class="node"><title>Node2</title>
<g id="a_node2"><a doxygen="https://jmirabel.github.io/hpp-doc/api/hpp-core/doxygen-html/hpp-core.doxytag:https://jmirabel.github.io/hpp-doc/api/hpp-core/doxygen-html/" xlink:href="https://jmirabel.github.io/hpp-doc/api/hpp-core/doxygen-html/a00067.html" target="_top" xlink:title="hpp::core::ProblemSolver">
<polygon fill="white" stroke="black" points="424.5,-203.5 424.5,-222.5 551.5,-222.5 551.5,-203.5 424.5,-203.5"/>
<text text-anchor="middle" x="488" y="-210.5" font-family="Helvetica,sans-Serif" font-size="10.00">hpp::core::ProblemSolver</text>
</a>
</g>
</g>
<!-- Node2&#45;&gt;Node1 -->
<g id="edge1" class="edge"><title>Node2&#45;&gt;Node1</title>
<path fill="none" stroke="midnightblue" d="M531.365,-200.573C549.701,-195.194 571.269,-188.868 590.265,-183.296"/>
<polygon fill="midnightblue" stroke="midnightblue" points="530.158,-197.279 521.548,-203.453 532.129,-203.996 530.158,-197.279"/>
</g>
<!-- Node3 -->
<g id="node3" class="node"><title>Node3</title>
<g id="a_node3"><a doxygen="https://jmirabel.github.io/hpp-doc/api/hpp-core/doxygen-html/hpp-core.doxytag:https://jmirabel.github.io/hpp-doc/api/hpp-core/doxygen-html/" xlink:href="https://jmirabel.github.io/hpp-doc/api/hpp-core/doxygen-html/a00021.html" target="_top" xlink:title="Container\&lt; PathPlannerBuilder_t \&gt;">
<polygon fill="white" stroke="black" points="134,-419.5 134,-438.5 302,-438.5 302,-419.5 134,-419.5"/>
<text text-anchor="middle" x="218" y="-426.5" font-family="Helvetica,sans-Serif" font-size="10.00">Container&lt; PathPlannerBuilder_t &gt;</text>
</a>
</g>
</g>
<!-- Node3&#45;&gt;Node2 -->
<g id="edge2" class="edge"><title>Node3&#45;&gt;Node2</title>
<path fill="none" stroke="midnightblue" d="M280.762,-416.678C288.047,-414.478 295.274,-411.932 302,-409 352.848,-386.832 367.132,-379.575 406,-340 443.015,-302.311 472.048,-245.027 482.649,-222.538"/>
<polygon fill="midnightblue" stroke="midnightblue" points="279.516,-413.392 270.835,-419.466 281.409,-420.131 279.516,-413.392"/>
</g>
<!-- Node4 -->
<g id="node4" class="node"><title>Node4</title>
<g id="a_node4"><a doxygen="https://jmirabel.github.io/hpp-doc/api/hpp-core/doxygen-html/hpp-core.doxytag:https://jmirabel.github.io/hpp-doc/api/hpp-core/doxygen-html/" xlink:href="https://jmirabel.github.io/hpp-doc/api/hpp-core/doxygen-html/a00021.html" target="_top" xlink:title="Container\&lt; PathOptimizer\lBuilder_t \&gt;">
<polygon fill="white" stroke="black" points="153,-370 153,-400 283,-400 283,-370 153,-370"/>
<text text-anchor="start" x="161" y="-388" font-family="Helvetica,sans-Serif" font-size="10.00">Container&lt; PathOptimizer</text>
<text text-anchor="middle" x="218" y="-377" font-family="Helvetica,sans-Serif" font-size="10.00">Builder_t &gt;</text>
</a>
</g>
</g>
<!-- Node4&#45;&gt;Node2 -->
<g id="edge3" class="edge"><title>Node4&#45;&gt;Node2</title>
<path fill="none" stroke="midnightblue" d="M285.178,-366.637C290.932,-364.569 296.61,-362.352 302,-360 351.113,-338.566 364.094,-332.398 406,-299 436.315,-274.84 466.018,-239.479 479.489,-222.624"/>
<polygon fill="midnightblue" stroke="midnightblue" points="283.784,-363.415 275.463,-369.973 286.058,-370.035 283.784,-363.415"/>
</g>
<!-- Node5 -->
<g id="node5" class="node"><title>Node5</title>
<g id="a_node5"><a doxygen="https://jmirabel.github.io/hpp-doc/api/hpp-core/doxygen-html/hpp-core.doxytag:https://jmirabel.github.io/hpp-doc/api/hpp-core/doxygen-html/" xlink:href="https://jmirabel.github.io/hpp-doc/api/hpp-core/doxygen-html/a00021.html" target="_top" xlink:title="Container\&lt; PathValidation\lBuilder_t \&gt;">
<polygon fill="white" stroke="black" points="152.5,-321 152.5,-351 283.5,-351 283.5,-321 152.5,-321"/>
<text text-anchor="start" x="160.5" y="-339" font-family="Helvetica,sans-Serif" font-size="10.00">Container&lt; PathValidation</text>
<text text-anchor="middle" x="218" y="-328" font-family="Helvetica,sans-Serif" font-size="10.00">Builder_t &gt;</text>
</a>
</g>
</g>
<!-- Node5&#45;&gt;Node2 -->
<g id="edge4" class="edge"><title>Node5&#45;&gt;Node2</title>
<path fill="none" stroke="midnightblue" d="M282.257,-317.839C288.961,-315.649 295.647,-313.352 302,-311 349.399,-293.456 361.491,-288.946 406,-265 430.576,-251.778 457.558,-233.678 473.348,-222.691"/>
<polygon fill="midnightblue" stroke="midnightblue" points="280.922,-314.591 272.458,-320.964 283.049,-321.26 280.922,-314.591"/>
</g>
<!-- Node6 -->
<g id="node6" class="node"><title>Node6</title>
<g id="a_node6"><a doxygen="https://jmirabel.github.io/hpp-doc/api/hpp-core/doxygen-html/hpp-core.doxytag:https://jmirabel.github.io/hpp-doc/api/hpp-core/doxygen-html/" xlink:href="https://jmirabel.github.io/hpp-doc/api/hpp-core/doxygen-html/a00021.html" target="_top" xlink:title="Container\&lt; PathProjector\lBuilder_t \&gt;">
<polygon fill="white" stroke="black" points="154.5,-272 154.5,-302 281.5,-302 281.5,-272 154.5,-272"/>
<text text-anchor="start" x="162.5" y="-290" font-family="Helvetica,sans-Serif" font-size="10.00">Container&lt; PathProjector</text>
<text text-anchor="middle" x="218" y="-279" font-family="Helvetica,sans-Serif" font-size="10.00">Builder_t &gt;</text>
</a>
</g>
</g>
<!-- Node6&#45;&gt;Node2 -->
<g id="edge5" class="edge"><title>Node6&#45;&gt;Node2</title>
<path fill="none" stroke="midnightblue" d="M291.645,-269.418C326.385,-260.739 368.483,-249.826 406,-239 423.596,-233.923 443.15,-227.664 458.637,-222.559"/>
<polygon fill="midnightblue" stroke="midnightblue" points="290.444,-266.111 281.584,-271.921 292.134,-272.904 290.444,-266.111"/>
</g>
<!-- Node7 -->
<g id="node7" class="node"><title>Node7</title>
<g id="a_node7"><a doxygen="https://jmirabel.github.io/hpp-doc/api/hpp-core/doxygen-html/hpp-core.doxytag:https://jmirabel.github.io/hpp-doc/api/hpp-core/doxygen-html/" xlink:href="https://jmirabel.github.io/hpp-doc/api/hpp-core/doxygen-html/a00021.html" target="_top" xlink:title="Container\&lt; Configuration\lShooterBuilder_t \&gt;">
<polygon fill="white" stroke="black" points="155.5,-223 155.5,-253 280.5,-253 280.5,-223 155.5,-223"/>
<text text-anchor="start" x="163.5" y="-241" font-family="Helvetica,sans-Serif" font-size="10.00">Container&lt; Configuration</text>
<text text-anchor="middle" x="218" y="-230" font-family="Helvetica,sans-Serif" font-size="10.00">ShooterBuilder_t &gt;</text>
</a>
</g>
</g>
<!-- Node7&#45;&gt;Node2 -->
<g id="edge6" class="edge"><title>Node7&#45;&gt;Node2</title>
<path fill="none" stroke="midnightblue" d="M290.875,-231.295C332.412,-227.42 384.178,-222.592 424.096,-218.868"/>
<polygon fill="midnightblue" stroke="midnightblue" points="290.453,-227.819 280.821,-232.233 291.103,-234.789 290.453,-227.819"/>
</g>
<!-- Node8 -->
<g id="node8" class="node"><title>Node8</title>
<g id="a_node8"><a doxygen="https://jmirabel.github.io/hpp-doc/api/hpp-core/doxygen-html/hpp-core.doxytag:https://jmirabel.github.io/hpp-doc/api/hpp-core/doxygen-html/" xlink:href="https://jmirabel.github.io/hpp-doc/api/hpp-core/doxygen-html/a00021.html" target="_top" xlink:title="Container\&lt; NumericalConstraint\lPtr_t \&gt;">
<polygon fill="white" stroke="black" points="139.5,-174 139.5,-204 296.5,-204 296.5,-174 139.5,-174"/>
<text text-anchor="start" x="147.5" y="-192" font-family="Helvetica,sans-Serif" font-size="10.00">Container&lt; NumericalConstraint</text>
<text text-anchor="middle" x="218" y="-181" font-family="Helvetica,sans-Serif" font-size="10.00">Ptr_t &gt;</text>
</a>
</g>
</g>
<!-- Node8&#45;&gt;Node2 -->
<g id="edge7" class="edge"><title>Node8&#45;&gt;Node2</title>
<path fill="none" stroke="midnightblue" d="M306.644,-196.849C344.974,-200.281 389.077,-204.231 424.076,-207.365"/>
<polygon fill="midnightblue" stroke="midnightblue" points="306.789,-193.348 296.517,-195.942 306.165,-200.32 306.789,-193.348"/>
</g>
<!-- Node9 -->
<g id="node9" class="node"><title>Node9</title>
<g id="a_node9"><a doxygen="https://jmirabel.github.io/hpp-doc/api/hpp-core/doxygen-html/hpp-core.doxytag:https://jmirabel.github.io/hpp-doc/api/hpp-core/doxygen-html/" xlink:href="https://jmirabel.github.io/hpp-doc/api/hpp-core/doxygen-html/a00021.html" target="_top" xlink:title="Container\&lt; SteeringMethod\lBuilder_t \&gt;">
<polygon fill="white" stroke="black" points="150,-125 150,-155 286,-155 286,-125 150,-125"/>
<text text-anchor="start" x="158" y="-143" font-family="Helvetica,sans-Serif" font-size="10.00">Container&lt; SteeringMethod</text>
<text text-anchor="middle" x="218" y="-132" font-family="Helvetica,sans-Serif" font-size="10.00">Builder_t &gt;</text>
</a>
</g>
</g>
<!-- Node9&#45;&gt;Node2 -->
<g id="edge8" class="edge"><title>Node9&#45;&gt;Node2</title>
<path fill="none" stroke="midnightblue" d="M284.161,-157.749C336.988,-172.139 409.41,-191.865 451.901,-203.44"/>
<polygon fill="midnightblue" stroke="midnightblue" points="284.773,-154.288 274.205,-155.037 282.933,-161.042 284.773,-154.288"/>
</g>
<!-- Node10 -->
<g id="node10" class="node"><title>Node10</title>
<polygon fill="white" stroke="#bfbfbf" points="142.5,-86.5 142.5,-105.5 293.5,-105.5 293.5,-86.5 142.5,-86.5"/>
<text text-anchor="middle" x="218" y="-93.5" font-family="Helvetica,sans-Serif" font-size="10.00">std::vector&lt; PathVectorPtr_t &gt;</text>
</g>
<!-- Node10&#45;&gt;Node2 -->
<g id="edge9" class="edge"><title>Node10&#45;&gt;Node2</title>
<path fill="none" stroke="#9a32cd" stroke-dasharray="5,2" d="M272.134,-107.922C282.107,-110.409 292.41,-113.147 302,-116 349.024,-129.988 369.932,-119.743 406,-153 420.332,-166.215 409.443,-180.033 424,-193 428.884,-197.351 434.717,-200.755 440.833,-203.42"/>
<polygon fill="#9a32cd" stroke="#9a32cd" points="272.854,-104.495 262.309,-105.525 271.194,-111.295 272.854,-104.495"/>
<text text-anchor="middle" x="363" y="-156" font-family="Helvetica,sans-Serif" font-size="10.00"> paths_</text>
</g>
<!-- Node11 -->
<g id="node11" class="node"><title>Node11</title>
<g id="a_node11"><a doxygen="https://jmirabel.github.io/hpp-doc/api/hpp-core/doxygen-html/hpp-core.doxytag:https://jmirabel.github.io/hpp-doc/api/hpp-core/doxygen-html/" xlink:href="https://jmirabel.github.io/hpp-doc/api/hpp-core/doxygen-html/a00066.html" target="_top" xlink:title="hpp::core::Problem">
<polygon fill="white" stroke="black" points="168.5,-48.5 168.5,-67.5 267.5,-67.5 267.5,-48.5 168.5,-48.5"/>
<text text-anchor="middle" x="218" y="-55.5" font-family="Helvetica,sans-Serif" font-size="10.00">hpp::core::Problem</text>
</a>
</g>
</g>
<!-- Node11&#45;&gt;Node2 -->
<g id="edge10" class="edge"><title>Node11&#45;&gt;Node2</title>
<path fill="none" stroke="#9a32cd" stroke-dasharray="5,2" d="M277.654,-57.3721C319.32,-60.2156 373.446,-71.1558 406,-106 432.956,-134.852 397.559,-163.674 424,-193 427.919,-197.347 432.777,-200.755 438.044,-203.427"/>
<polygon fill="#9a32cd" stroke="#9a32cd" points="277.797,-53.8747 267.621,-56.825 277.415,-60.8644 277.797,-53.8747"/>
<text text-anchor="middle" x="363" y="-109" font-family="Helvetica,sans-Serif" font-size="10.00"> problem_</text>
</g>
<!-- Node12 -->
<g id="node12" class="node"><title>Node12</title>
<g id="a_node12"><a xlink:title="STL class. ">
<polygon fill="white" stroke="#bfbfbf" points="188,-5.5 188,-24.5 248,-24.5 248,-5.5 188,-5.5"/>
<text text-anchor="middle" x="218" y="-12.5" font-family="Helvetica,sans-Serif" font-size="10.00">std::string</text>
</a>
</g>
</g>
<!-- Node12&#45;&gt;Node2 -->
<g id="edge11" class="edge"><title>Node12&#45;&gt;Node2</title>
<path fill="none" stroke="#9a32cd" stroke-dasharray="5,2" d="M258.054,-7.46934C300.651,-1.73959 367.837,-0.403754 406,-39 454.451,-88.0013 380.143,-139.848 424,-193 427.579,-197.337 432.095,-200.747 437.06,-203.425"/>
<polygon fill="#9a32cd" stroke="#9a32cd" points="257.426,-4.02417 248.05,-8.95633 258.455,-10.9481 257.426,-4.02417"/>
<text text-anchor="middle" x="363" y="-53" font-family="Helvetica,sans-Serif" font-size="10.00"> pathPlannerType_</text>
<text text-anchor="middle" x="363" y="-42" font-family="Helvetica,sans-Serif" font-size="10.00">pathProjectorType_</text>
</g>
<!-- Node13 -->
<g id="node13" class="node"><title>Node13</title>
<g id="a_node13"><a xlink:title="STL class. ">
<polygon fill="white" stroke="#bfbfbf" points="0.5,-0 0.5,-30 95.5,-30 95.5,-0 0.5,-0"/>
<text text-anchor="start" x="8.5" y="-18" font-family="Helvetica,sans-Serif" font-size="10.00">std::basic_string&lt;</text>
<text text-anchor="middle" x="48" y="-7" font-family="Helvetica,sans-Serif" font-size="10.00"> char &gt;</text>
</a>
</g>
</g>
<!-- Node13&#45;&gt;Node12 -->
<g id="edge12" class="edge"><title>Node13&#45;&gt;Node12</title>
<path fill="none" stroke="midnightblue" d="M106.095,-15C133.587,-15 165.379,-15 187.857,-15"/>
<polygon fill="midnightblue" stroke="midnightblue" points="105.797,-11.5001 95.7974,-15 105.797,-18.5001 105.797,-11.5001"/>
</g>
<!-- Node14 -->
<g id="node14" class="node"><title>Node14</title>
<g id="a_node14"><a doxygen="https://jmirabel.github.io/hpp-doc/api/hpp-core/doxygen-html/hpp-core.doxytag:https://jmirabel.github.io/hpp-doc/api/hpp-core/doxygen-html/" xlink:href="https://jmirabel.github.io/hpp-doc/api/hpp-core/doxygen-html/a00021.html" target="_top" xlink:title="hpp::core::Container\l\&lt; LockedJointPtr_t \&gt;">
<polygon fill="white" stroke="black" points="434,-154 434,-184 542,-184 542,-154 434,-154"/>
<text text-anchor="start" x="442" y="-172" font-family="Helvetica,sans-Serif" font-size="10.00">hpp::core::Container</text>
<text text-anchor="middle" x="488" y="-161" font-family="Helvetica,sans-Serif" font-size="10.00">&lt; LockedJointPtr_t &gt;</text>
</a>
</g>
</g>
<!-- Node14&#45;&gt;Node1 -->
<g id="edge13" class="edge"><title>Node14&#45;&gt;Node1</title>
<path fill="none" stroke="midnightblue" d="M552.374,-169C565.084,-169 578.252,-169 590.367,-169"/>
<polygon fill="midnightblue" stroke="midnightblue" points="552.307,-165.5 542.307,-169 552.307,-172.5 552.307,-165.5"/>
</g>
<!-- Node15 -->
<g id="node15" class="node"><title>Node15</title>
<g id="a_node15"><a doxygen="https://jmirabel.github.io/hpp-doc/api/hpp-core/doxygen-html/hpp-core.doxytag:https://jmirabel.github.io/hpp-doc/api/hpp-core/doxygen-html/" xlink:href="https://jmirabel.github.io/hpp-doc/api/hpp-core/doxygen-html/a00021.html" target="_top" xlink:title="hpp::core::Container\l\&lt; JointAndShapes_t \&gt;">
<polygon fill="white" stroke="black" points="431,-105 431,-135 545,-135 545,-105 431,-105"/>
<text text-anchor="start" x="439" y="-123" font-family="Helvetica,sans-Serif" font-size="10.00">hpp::core::Container</text>
<text text-anchor="middle" x="488" y="-112" font-family="Helvetica,sans-Serif" font-size="10.00">&lt; JointAndShapes_t &gt;</text>
</a>
</g>
</g>
<!-- Node15&#45;&gt;Node1 -->
<g id="edge14" class="edge"><title>Node15&#45;&gt;Node1</title>
<path fill="none" stroke="midnightblue" d="M544.895,-138.259C560.716,-143.427 577.752,-148.992 592.924,-153.948"/>
<polygon fill="midnightblue" stroke="midnightblue" points="545.821,-134.88 535.229,-135.101 543.648,-141.534 545.821,-134.88"/>
</g>
</g>
</svg>
