<?xml version="1.0" encoding="UTF-8" standalone="no"?>
<!DOCTYPE svg PUBLIC "-//W3C//DTD SVG 1.1//EN"
 "http://www.w3.org/Graphics/SVG/1.1/DTD/svg11.dtd">
<!-- Generated by graphviz version 2.36.0 (20140111.2315)
 -->
<!-- Title: graph.hh Pages: 1 -->
<svg width="484pt" height="308pt"
 viewBox="0.00 0.00 484.00 308.00" xmlns="http://www.w3.org/2000/svg" xmlns:xlink="http://www.w3.org/1999/xlink">
<g id="graph0" class="graph" transform="scale(1 1) rotate(0) translate(4 304)">
<title>graph.hh</title>
<polygon fill="white" stroke="none" points="-4,4 -4,-304 480,-304 480,4 -4,4"/>
<!-- Node1 -->
<g id="node1" class="node"><title>Node1</title>
<polygon fill="#bfbfbf" stroke="black" points="204,-280.5 204,-299.5 258,-299.5 258,-280.5 204,-280.5"/>
<text text-anchor="middle" x="231" y="-287.5" font-family="Helvetica,sans-Serif" font-size="10.00">graph.hh</text>
</g>
<!-- Node2 -->
<g id="node2" class="node"><title>Node2</title>
<g id="a_node2"><a xlink:href="a00048.html" target="_top" xlink:title="edge.hh">
<polygon fill="white" stroke="black" points="178.5,-224.5 178.5,-243.5 229.5,-243.5 229.5,-224.5 178.5,-224.5"/>
<text text-anchor="middle" x="204" y="-231.5" font-family="Helvetica,sans-Serif" font-size="10.00">edge.hh</text>
</a>
</g>
</g>
<!-- Node1&#45;&gt;Node2 -->
<g id="edge1" class="edge"><title>Node1&#45;&gt;Node2</title>
<path fill="none" stroke="midnightblue" d="M221.991,-270.983C217.408,-261.817 212.046,-251.092 208.376,-243.751"/>
<polygon fill="midnightblue" stroke="midnightblue" points="218.939,-272.704 226.541,-280.083 225.2,-269.573 218.939,-272.704"/>
</g>
<!-- Node4 -->
<g id="node4" class="node"><title>Node4</title>
<g id="a_node4"><a xlink:href="a00061.html" target="_top" xlink:title="node&#45;selector.hh">
<polygon fill="white" stroke="black" points="52.5,-112.5 52.5,-131.5 141.5,-131.5 141.5,-112.5 52.5,-112.5"/>
<text text-anchor="middle" x="97" y="-119.5" font-family="Helvetica,sans-Serif" font-size="10.00">node&#45;selector.hh</text>
</a>
</g>
</g>
<!-- Node1&#45;&gt;Node4 -->
<g id="edge11" class="edge"><title>Node1&#45;&gt;Node4</title>
<path fill="none" stroke="midnightblue" d="M202.549,-275.849C188.149,-268.127 171.187,-257.27 159,-244 126.43,-208.534 106.398,-152.756 99.6036,-131.559"/>
<polygon fill="midnightblue" stroke="midnightblue" points="201.07,-279.024 211.566,-280.466 204.26,-272.793 201.07,-279.024"/>
</g>
<!-- Node6 -->
<g id="node6" class="node"><title>Node6</title>
<g id="a_node6"><a xlink:href="a00066.html" target="_top" xlink:title="statistics.hh">
<polygon fill="white" stroke="black" points="160,-112.5 160,-131.5 230,-131.5 230,-112.5 160,-112.5"/>
<text text-anchor="middle" x="195" y="-119.5" font-family="Helvetica,sans-Serif" font-size="10.00">statistics.hh</text>
</a>
</g>
</g>
<!-- Node1&#45;&gt;Node6 -->
<g id="edge12" class="edge"><title>Node1&#45;&gt;Node6</title>
<path fill="none" stroke="midnightblue" d="M201.998,-275.33C189.768,-267.917 176.807,-257.48 170,-244 154.775,-213.848 161.527,-200.698 170,-168 173.542,-154.331 182.235,-140.393 188.371,-131.725"/>
<polygon fill="midnightblue" stroke="midnightblue" points="200.657,-278.59 211.094,-280.41 204.07,-272.479 200.657,-278.59"/>
</g>
<!-- Node7 -->
<g id="node7" class="node"><title>Node7</title>
<g id="a_node7"><a xlink:href="a00060.html" target="_top" xlink:title="manipulation&#45;planner.hh">
<polygon fill="white" stroke="black" points="223.5,-56.5 223.5,-75.5 342.5,-75.5 342.5,-56.5 223.5,-56.5"/>
<text text-anchor="middle" x="283" y="-63.5" font-family="Helvetica,sans-Serif" font-size="10.00">manipulation&#45;planner.hh</text>
</a>
</g>
</g>
<!-- Node1&#45;&gt;Node7 -->
<g id="edge15" class="edge"><title>Node1&#45;&gt;Node7</title>
<path fill="none" stroke="midnightblue" d="M235.381,-270.295C246.074,-224.644 273.196,-108.854 280.919,-75.8837"/>
<polygon fill="midnightblue" stroke="midnightblue" points="231.911,-269.763 233.038,-280.297 238.727,-271.359 231.911,-269.763"/>
</g>
<!-- Node9 -->
<g id="node9" class="node"><title>Node9</title>
<g id="a_node9"><a xlink:href="a00053.html" target="_top" xlink:title="graph&#45;path&#45;validation.hh">
<polygon fill="white" stroke="black" points="286,-112.5 286,-131.5 406,-131.5 406,-112.5 286,-112.5"/>
<text text-anchor="middle" x="346" y="-119.5" font-family="Helvetica,sans-Serif" font-size="10.00">graph&#45;path&#45;validation.hh</text>
</a>
</g>
</g>
<!-- Node1&#45;&gt;Node9 -->
<g id="edge13" class="edge"><title>Node1&#45;&gt;Node9</title>
<path fill="none" stroke="midnightblue" d="M246.726,-273.241C254.704,-264.884 264.307,-254.249 272,-244 301.86,-204.22 330.671,-151.881 341.497,-131.57"/>
<polygon fill="midnightblue" stroke="midnightblue" points="244.158,-270.861 239.69,-280.467 249.174,-275.744 244.158,-270.861"/>
</g>
<!-- Node10 -->
<g id="node10" class="node"><title>Node10</title>
<g id="a_node10"><a xlink:href="a00006.html" target="_top" xlink:title="problem.hh">
<polygon fill="white" stroke="black" points="380.5,-56.5 380.5,-75.5 445.5,-75.5 445.5,-56.5 380.5,-56.5"/>
<text text-anchor="middle" x="413" y="-63.5" font-family="Helvetica,sans-Serif" font-size="10.00">problem.hh</text>
</a>
</g>
</g>
<!-- Node1&#45;&gt;Node10 -->
<g id="edge14" class="edge"><title>Node1&#45;&gt;Node10</title>
<path fill="none" stroke="midnightblue" d="M258.259,-275.847C301.223,-253.357 382.987,-202.965 414,-132 422.135,-113.385 418.336,-88.8124 415.363,-75.863"/>
<polygon fill="midnightblue" stroke="midnightblue" points="256.528,-272.802 249.216,-280.469 259.713,-279.035 256.528,-272.802"/>
</g>
<!-- Node3 -->
<g id="node3" class="node"><title>Node3</title>
<g id="a_node3"><a xlink:href="a00003.html" target="_top" xlink:title="node.hh">
<polygon fill="white" stroke="black" points="178.5,-168.5 178.5,-187.5 229.5,-187.5 229.5,-168.5 178.5,-168.5"/>
<text text-anchor="middle" x="204" y="-175.5" font-family="Helvetica,sans-Serif" font-size="10.00">node.hh</text>
</a>
</g>
</g>
<!-- Node2&#45;&gt;Node3 -->
<g id="edge2" class="edge"><title>Node2&#45;&gt;Node3</title>
<path fill="none" stroke="midnightblue" d="M204,-213.805C204,-204.91 204,-194.78 204,-187.751"/>
<polygon fill="midnightblue" stroke="midnightblue" points="200.5,-214.083 204,-224.083 207.5,-214.083 200.5,-214.083"/>
</g>
<!-- Node3&#45;&gt;Node4 -->
<g id="edge3" class="edge"><title>Node3&#45;&gt;Node4</title>
<path fill="none" stroke="midnightblue" d="M177.698,-163.726C157.885,-153.727 131.293,-140.307 114.149,-131.655"/>
<polygon fill="midnightblue" stroke="midnightblue" points="176.304,-166.943 186.809,-168.324 179.458,-160.694 176.304,-166.943"/>
</g>
<!-- Node3&#45;&gt;Node6 -->
<g id="edge5" class="edge"><title>Node3&#45;&gt;Node6</title>
<path fill="none" stroke="midnightblue" d="M200.85,-158.101C199.356,-149.136 197.643,-138.858 196.459,-131.751"/>
<polygon fill="midnightblue" stroke="midnightblue" points="197.417,-158.794 202.514,-168.083 204.322,-157.644 197.417,-158.794"/>
</g>
<!-- Node3&#45;&gt;Node9 -->
<g id="edge8" class="edge"><title>Node3&#45;&gt;Node9</title>
<path fill="none" stroke="midnightblue" d="M236.155,-164.772C262.828,-154.629 300.069,-140.467 323.605,-131.516"/>
<polygon fill="midnightblue" stroke="midnightblue" points="234.603,-161.618 226.5,-168.444 237.091,-168.16 234.603,-161.618"/>
</g>
<!-- Node5 -->
<g id="node5" class="node"><title>Node5</title>
<g id="a_node5"><a xlink:href="a00056.html" target="_top" xlink:title="guided&#45;node&#45;selector.hh">
<polygon fill="white" stroke="black" points="-1,-56.5 -1,-75.5 119,-75.5 119,-56.5 -1,-56.5"/>
<text text-anchor="middle" x="59" y="-63.5" font-family="Helvetica,sans-Serif" font-size="10.00">guided&#45;node&#45;selector.hh</text>
</a>
</g>
</g>
<!-- Node4&#45;&gt;Node5 -->
<g id="edge4" class="edge"><title>Node4&#45;&gt;Node5</title>
<path fill="none" stroke="midnightblue" d="M84.9353,-103.855C78.3553,-94.5048 70.489,-83.3265 65.1582,-75.7511"/>
<polygon fill="midnightblue" stroke="midnightblue" points="82.1078,-105.919 90.7251,-112.083 87.8324,-101.891 82.1078,-105.919"/>
</g>
<!-- Node6&#45;&gt;Node7 -->
<g id="edge6" class="edge"><title>Node6&#45;&gt;Node7</title>
<path fill="none" stroke="midnightblue" d="M217.977,-106.901C234.113,-96.9986 255.181,-84.0705 268.896,-75.6545"/>
<polygon fill="midnightblue" stroke="midnightblue" points="215.831,-104.111 209.139,-112.324 219.493,-110.077 215.831,-104.111"/>
</g>
<!-- Node8 -->
<g id="node8" class="node"><title>Node8</title>
<g id="a_node8"><a xlink:href="a00064.html" target="_top" xlink:title="roadmap.hh">
<polygon fill="white" stroke="black" points="137,-56.5 137,-75.5 205,-75.5 205,-56.5 137,-56.5"/>
<text text-anchor="middle" x="171" y="-63.5" font-family="Helvetica,sans-Serif" font-size="10.00">roadmap.hh</text>
</a>
</g>
</g>
<!-- Node6&#45;&gt;Node8 -->
<g id="edge7" class="edge"><title>Node6&#45;&gt;Node8</title>
<path fill="none" stroke="midnightblue" d="M186.862,-102.69C182.817,-93.589 178.117,-83.0141 174.889,-75.7511"/>
<polygon fill="midnightblue" stroke="midnightblue" points="183.777,-104.366 191.037,-112.083 190.174,-101.523 183.777,-104.366"/>
</g>
<!-- Node9&#45;&gt;Node10 -->
<g id="edge9" class="edge"><title>Node9&#45;&gt;Node10</title>
<path fill="none" stroke="midnightblue" d="M364.835,-105.82C376.838,-96.1452 391.972,-83.9481 402.039,-75.8339"/>
<polygon fill="midnightblue" stroke="midnightblue" points="362.354,-103.324 356.765,-112.324 366.747,-108.774 362.354,-103.324"/>
</g>
<!-- Node11 -->
<g id="node11" class="node"><title>Node11</title>
<g id="a_node11"><a xlink:href="a00054.html" target="_top" xlink:title="graph&#45;steering&#45;method.hh">
<polygon fill="white" stroke="black" points="349.5,-0.5 349.5,-19.5 476.5,-19.5 476.5,-0.5 349.5,-0.5"/>
<text text-anchor="middle" x="413" y="-7.5" font-family="Helvetica,sans-Serif" font-size="10.00">graph&#45;steering&#45;method.hh</text>
</a>
</g>
</g>
<!-- Node10&#45;&gt;Node11 -->
<g id="edge10" class="edge"><title>Node10&#45;&gt;Node11</title>
<path fill="none" stroke="midnightblue" d="M413,-45.8045C413,-36.9102 413,-26.7798 413,-19.7511"/>
<polygon fill="midnightblue" stroke="midnightblue" points="409.5,-46.083 413,-56.083 416.5,-46.083 409.5,-46.083"/>
</g>
</g>
</svg>
