<?xml version="1.0" encoding="UTF-8" standalone="no"?>
<!DOCTYPE svg PUBLIC "-//W3C//DTD SVG 1.1//EN"
 "http://www.w3.org/Graphics/SVG/1.1/DTD/svg11.dtd">
<!-- Generated by graphviz version 2.36.0 (20140111.2315)
 -->
<!-- Title: hpp::manipulation::graph::Edge Pages: 1 -->
<svg width="402pt" height="322pt"
 viewBox="0.00 0.00 402.00 322.00" xmlns="http://www.w3.org/2000/svg" xmlns:xlink="http://www.w3.org/1999/xlink">
<g id="graph0" class="graph" transform="scale(1 1) rotate(0) translate(4 318)">
<title>hpp::manipulation::graph::Edge</title>
<polygon fill="white" stroke="none" points="-4,4 -4,-318 398,-318 398,4 -4,4"/>
<!-- Node1 -->
<g id="node1" class="node"><title>Node1</title>
<polygon fill="#bfbfbf" stroke="black" points="79.5,-1 79.5,-31 178.5,-31 178.5,-1 79.5,-1"/>
<text text-anchor="start" x="87.5" y="-19" font-family="Helvetica,sans-Serif" font-size="10.00">hpp::manipulation::</text>
<text text-anchor="middle" x="129" y="-8" font-family="Helvetica,sans-Serif" font-size="10.00">graph::Edge</text>
</g>
<!-- Node2 -->
<g id="node2" class="node"><title>Node2</title>
<g id="a_node2"><a xlink:href="a00018.html" target="_top" xlink:title="Define common methods of the graph components. ">
<polygon fill="white" stroke="black" points="67.5,-71 67.5,-101 190.5,-101 190.5,-71 67.5,-71"/>
<text text-anchor="start" x="75.5" y="-89" font-family="Helvetica,sans-Serif" font-size="10.00">hpp::manipulation::</text>
<text text-anchor="middle" x="129" y="-78" font-family="Helvetica,sans-Serif" font-size="10.00">graph::GraphComponent</text>
</a>
</g>
</g>
<!-- Node2&#45;&gt;Node1 -->
<g id="edge1" class="edge"><title>Node2&#45;&gt;Node1</title>
<path fill="none" stroke="midnightblue" d="M129,-60.7688C129,-50.8141 129,-39.6384 129,-31.0716"/>
<polygon fill="midnightblue" stroke="midnightblue" points="125.5,-60.9103 129,-70.9104 132.5,-60.9104 125.5,-60.9103"/>
</g>
<!-- Node3 -->
<g id="node3" class="node"><title>Node3</title>
<g id="a_node3"><a xlink:title="STL class. ">
<polygon fill="white" stroke="#bfbfbf" points="-0.5,-188.5 -0.5,-207.5 72.5,-207.5 72.5,-188.5 -0.5,-188.5"/>
<text text-anchor="middle" x="36" y="-195.5" font-family="Helvetica,sans-Serif" font-size="10.00">std::list&lt; T &gt;</text>
</a>
</g>
</g>
<!-- Node3&#45;&gt;Node2 -->
<g id="edge2" class="edge"><title>Node3&#45;&gt;Node2</title>
<path fill="none" stroke="#9a32cd" stroke-dasharray="5,2" d="M35.5028,-178.346C36.0427,-169.23 37.9071,-158.435 43,-150 56.106,-128.294 79.8142,-111.777 99.0235,-101.112"/>
<polygon fill="#9a32cd" stroke="#9a32cd" points="32.003,-178.318 35.3733,-188.363 39.0024,-178.409 32.003,-178.318"/>
<text text-anchor="middle" x="75" y="-157.5" font-family="Helvetica,sans-Serif" font-size="10.00"> lockedJoints_</text>
</g>
<!-- Node4 -->
<g id="node4" class="node"><title>Node4</title>
<polygon fill="white" stroke="#bfbfbf" points="71.5,-294.5 71.5,-313.5 100.5,-313.5 100.5,-294.5 71.5,-294.5"/>
<text text-anchor="middle" x="86" y="-301.5" font-family="Helvetica,sans-Serif" font-size="10.00">T</text>
</g>
<!-- Node4&#45;&gt;Node3 -->
<g id="edge3" class="edge"><title>Node4&#45;&gt;Node3</title>
<path fill="none" stroke="#9a32cd" stroke-dasharray="5,2" d="M66.343,-287.558C62.8379,-284.066 59.5098,-280.152 57,-276 43.5248,-253.706 38.5159,-222.63 36.8056,-207.693"/>
<polygon fill="#9a32cd" stroke="#9a32cd" points="64.264,-290.394 74.0496,-294.455 68.9324,-285.178 64.264,-290.394"/>
<text text-anchor="middle" x="78.5" y="-267.5" font-family="Helvetica,sans-Serif" font-size="10.00"> elements</text>
</g>
<!-- Node6 -->
<g id="node6" class="node"><title>Node6</title>
<g id="a_node6"><a xlink:title="STL class. ">
<polygon fill="white" stroke="#bfbfbf" points="85.5,-226.5 85.5,-245.5 172.5,-245.5 172.5,-226.5 85.5,-226.5"/>
<text text-anchor="middle" x="129" y="-233.5" font-family="Helvetica,sans-Serif" font-size="10.00">std::vector&lt; T &gt;</text>
</a>
</g>
</g>
<!-- Node4&#45;&gt;Node6 -->
<g id="edge6" class="edge"><title>Node4&#45;&gt;Node6</title>
<path fill="none" stroke="#9a32cd" stroke-dasharray="5,2" d="M97.1163,-285.938C105.473,-273.112 116.583,-256.059 123.24,-245.841"/>
<polygon fill="#9a32cd" stroke="#9a32cd" points="94.1478,-284.082 91.6215,-294.372 100.013,-287.904 94.1478,-284.082"/>
<text text-anchor="middle" x="133.5" y="-267.5" font-family="Helvetica,sans-Serif" font-size="10.00"> elements</text>
</g>
<!-- Node5 -->
<g id="node5" class="node"><title>Node5</title>
<polygon fill="white" stroke="#bfbfbf" points="248,-150.5 248,-169.5 394,-169.5 394,-150.5 248,-150.5"/>
<text text-anchor="middle" x="321" y="-157.5" font-family="Helvetica,sans-Serif" font-size="10.00">std::vector&lt; SizeIntervals_t &gt;</text>
</g>
<!-- Node5&#45;&gt;Node2 -->
<g id="edge4" class="edge"><title>Node5&#45;&gt;Node2</title>
<path fill="none" stroke="#9a32cd" stroke-dasharray="5,2" d="M288.835,-146.938C255.123,-134.296 202.206,-114.452 166.591,-101.097"/>
<polygon fill="#9a32cd" stroke="#9a32cd" points="287.629,-150.224 298.221,-150.458 290.087,-143.669 287.629,-150.224"/>
<text text-anchor="middle" x="279" y="-123.5" font-family="Helvetica,sans-Serif" font-size="10.00"> passiveDofs_</text>
</g>
<!-- Node6&#45;&gt;Node2 -->
<g id="edge7" class="edge"><title>Node6&#45;&gt;Node2</title>
<path fill="none" stroke="#9a32cd" stroke-dasharray="5,2" d="M129,-215.798C129,-185.728 129,-128.2 129,-101.401"/>
<polygon fill="#9a32cd" stroke="#9a32cd" points="125.5,-216.185 129,-226.185 132.5,-216.185 125.5,-216.185"/>
<text text-anchor="middle" x="179.5" y="-157.5" font-family="Helvetica,sans-Serif" font-size="10.00"> numericalConstraints_</text>
</g>
<!-- Node6&#45;&gt;Node5 -->
<g id="edge5" class="edge"><title>Node6&#45;&gt;Node5</title>
<path fill="none" stroke="#9a32cd" stroke-dasharray="5,2" d="M161.201,-222.589C200.2,-207.558 264.867,-182.635 298.742,-169.579"/>
<polygon fill="#9a32cd" stroke="#9a32cd" points="159.473,-219.504 151.401,-226.366 161.99,-226.036 159.473,-219.504"/>
<text text-anchor="middle" x="268.5" y="-195.5" font-family="Helvetica,sans-Serif" font-size="10.00"> elements</text>
</g>
</g>
</svg>
