<?xml version="1.0" encoding="UTF-8" standalone="no"?>
<!DOCTYPE svg PUBLIC "-//W3C//DTD SVG 1.1//EN"
 "http://www.w3.org/Graphics/SVG/1.1/DTD/svg11.dtd">
<!-- Generated by graphviz version 2.36.0 (20140111.2315)
 -->
<!-- Title: handle.hh Pages: 1 -->
<svg width="1065pt" height="728pt"
 viewBox="0.00 0.00 1065.00 728.00" xmlns="http://www.w3.org/2000/svg" xmlns:xlink="http://www.w3.org/1999/xlink">
<g id="graph0" class="graph" transform="scale(1 1) rotate(0) translate(4 724)">
<title>handle.hh</title>
<polygon fill="white" stroke="none" points="-4,4 -4,-724 1061,-724 1061,4 -4,4"/>
<!-- Node1 -->
<g id="node1" class="node"><title>Node1</title>
<polygon fill="#bfbfbf" stroke="black" points="177.5,-700.5 177.5,-719.5 236.5,-719.5 236.5,-700.5 177.5,-700.5"/>
<text text-anchor="middle" x="207" y="-707.5" font-family="Helvetica,sans-Serif" font-size="10.00">handle.hh</text>
</g>
<!-- Node2 -->
<g id="node2" class="node"><title>Node2</title>
<polygon fill="white" stroke="#bfbfbf" points="-0.5,-644.5 -0.5,-663.5 122.5,-663.5 122.5,-644.5 -0.5,-644.5"/>
<text text-anchor="middle" x="61" y="-651.5" font-family="Helvetica,sans-Serif" font-size="10.00">hpp/fcl/math/transform.h</text>
</g>
<!-- Node1&#45;&gt;Node2 -->
<g id="edge1" class="edge"><title>Node1&#45;&gt;Node2</title>
<path fill="none" stroke="midnightblue" d="M183.866,-700.444C159.518,-691.438 120.993,-677.189 93.577,-667.049"/>
<polygon fill="midnightblue" stroke="midnightblue" points="94.6191,-663.703 84.0259,-663.516 92.1908,-670.268 94.6191,-663.703"/>
</g>
<!-- Node3 -->
<g id="node3" class="node"><title>Node3</title>
<polygon fill="white" stroke="#bfbfbf" points="140.5,-644.5 140.5,-663.5 273.5,-663.5 273.5,-644.5 140.5,-644.5"/>
<text text-anchor="middle" x="207" y="-651.5" font-family="Helvetica,sans-Serif" font-size="10.00">hpp/manipulation/config.hh</text>
</g>
<!-- Node1&#45;&gt;Node3 -->
<g id="edge2" class="edge"><title>Node1&#45;&gt;Node3</title>
<path fill="none" stroke="midnightblue" d="M207,-700.083C207,-693.006 207,-682.861 207,-673.986"/>
<polygon fill="midnightblue" stroke="midnightblue" points="210.5,-673.751 207,-663.751 203.5,-673.751 210.5,-673.751"/>
</g>
<!-- Node4 -->
<g id="node4" class="node"><title>Node4</title>
<g id="a_node4"><a xlink:href="a00001.html" target="_top" xlink:title="hpp/manipulation/fwd.hh">
<polygon fill="white" stroke="black" points="292,-644.5 292,-663.5 414,-663.5 414,-644.5 292,-644.5"/>
<text text-anchor="middle" x="353" y="-651.5" font-family="Helvetica,sans-Serif" font-size="10.00">hpp/manipulation/fwd.hh</text>
</a>
</g>
</g>
<!-- Node1&#45;&gt;Node4 -->
<g id="edge3" class="edge"><title>Node1&#45;&gt;Node4</title>
<path fill="none" stroke="midnightblue" d="M230.134,-700.444C254.482,-691.438 293.007,-677.189 320.423,-667.049"/>
<polygon fill="midnightblue" stroke="midnightblue" points="321.809,-670.268 329.974,-663.516 319.381,-663.703 321.809,-670.268"/>
</g>
<!-- Node5 -->
<g id="node5" class="node"><title>Node5</title>
<polygon fill="white" stroke="#bfbfbf" points="195.5,-582.5 195.5,-601.5 230.5,-601.5 230.5,-582.5 195.5,-582.5"/>
<text text-anchor="middle" x="213" y="-589.5" font-family="Helvetica,sans-Serif" font-size="10.00">map</text>
</g>
<!-- Node4&#45;&gt;Node5 -->
<g id="edge4" class="edge"><title>Node4&#45;&gt;Node5</title>
<path fill="none" stroke="midnightblue" d="M328.811,-644.392C305.667,-635.917 269.952,-622.212 240,-608 238.855,-607.457 237.692,-606.886 236.523,-606.298"/>
<polygon fill="midnightblue" stroke="midnightblue" points="238.149,-603.198 227.676,-601.6 234.866,-609.381 238.149,-603.198"/>
</g>
<!-- Node6 -->
<g id="node6" class="node"><title>Node6</title>
<g id="a_node6"><a doxygen="https://jmirabel.github.io/hpp-doc/api/hpp-core/doxygen-html/hpp-core.doxytag:https://jmirabel.github.io/hpp-doc/api/hpp-core/doxygen-html/" xlink:href="https://jmirabel.github.io/hpp-doc/api/hpp-core/doxygen-html/a00001.html" target="_top" xlink:title="hpp/core/fwd.hh">
<polygon fill="white" stroke="black" points="249,-582.5 249,-601.5 335,-601.5 335,-582.5 249,-582.5"/>
<text text-anchor="middle" x="292" y="-589.5" font-family="Helvetica,sans-Serif" font-size="10.00">hpp/core/fwd.hh</text>
</a>
</g>
</g>
<!-- Node4&#45;&gt;Node6 -->
<g id="edge5" class="edge"><title>Node4&#45;&gt;Node6</title>
<path fill="none" stroke="midnightblue" d="M344.26,-644.403C334.838,-635.136 319.636,-620.183 308.051,-608.788"/>
<polygon fill="midnightblue" stroke="midnightblue" points="310.307,-606.098 300.724,-601.581 305.399,-611.088 310.307,-606.098"/>
</g>
<!-- Node7 -->
<g id="node7" class="node"><title>Node7</title>
<g id="a_node7"><a doxygen="https://jmirabel.github.io/hpp-doc/api/hpp-fcl/doxygen-html/hpp-fcl.doxytag:https://jmirabel.github.io/hpp-doc/api/hpp-fcl/doxygen-html/" xlink:href="https://jmirabel.github.io/hpp-doc/api/hpp-fcl/doxygen-html/a00292.html" target="_top" xlink:title="hpp/fcl/shape/geometric\l_shapes.h">
<polygon fill="white" stroke="black" points="353.5,-577 353.5,-607 474.5,-607 474.5,-577 353.5,-577"/>
<text text-anchor="start" x="361.5" y="-595" font-family="Helvetica,sans-Serif" font-size="10.00">hpp/fcl/shape/geometric</text>
<text text-anchor="middle" x="414" y="-584" font-family="Helvetica,sans-Serif" font-size="10.00">_shapes.h</text>
</a>
</g>
</g>
<!-- Node4&#45;&gt;Node7 -->
<g id="edge6" class="edge"><title>Node4&#45;&gt;Node7</title>
<path fill="none" stroke="midnightblue" d="M361.74,-644.403C369.693,-636.581 381.764,-624.708 392.302,-614.342"/>
<polygon fill="midnightblue" stroke="midnightblue" points="394.949,-616.648 399.624,-607.141 390.04,-611.658 394.949,-616.648"/>
</g>
<!-- Node28 -->
<g id="node28" class="node"><title>Node28</title>
<polygon fill="white" stroke="#bfbfbf" points="492.5,-582.5 492.5,-601.5 647.5,-601.5 647.5,-582.5 492.5,-582.5"/>
<text text-anchor="middle" x="570" y="-589.5" font-family="Helvetica,sans-Serif" font-size="10.00">hpp/manipulation/deprecated.hh</text>
</g>
<!-- Node4&#45;&gt;Node28 -->
<g id="edge43" class="edge"><title>Node4&#45;&gt;Node28</title>
<path fill="none" stroke="midnightblue" d="M384.091,-644.403C422.281,-633.844 487.169,-615.903 529.299,-604.254"/>
<polygon fill="midnightblue" stroke="midnightblue" points="530.261,-607.619 538.967,-601.581 528.396,-600.872 530.261,-607.619"/>
</g>
<!-- Node8 -->
<g id="node8" class="node"><title>Node8</title>
<g id="a_node8"><a doxygen="https://jmirabel.github.io/hpp-doc/api/hpp-fcl/doxygen-html/hpp-fcl.doxytag:https://jmirabel.github.io/hpp-doc/api/hpp-fcl/doxygen-html/" xlink:href="https://jmirabel.github.io/hpp-doc/api/hpp-fcl/doxygen-html/a00280.html" target="_top" xlink:title="hpp/fcl/collision_object.h">
<polygon fill="white" stroke="black" points="416,-520.5 416,-539.5 540,-539.5 540,-520.5 416,-520.5"/>
<text text-anchor="middle" x="478" y="-527.5" font-family="Helvetica,sans-Serif" font-size="10.00">hpp/fcl/collision_object.h</text>
</a>
</g>
</g>
<!-- Node7&#45;&gt;Node8 -->
<g id="edge7" class="edge"><title>Node7&#45;&gt;Node8</title>
<path fill="none" stroke="midnightblue" d="M429.167,-576.781C438.851,-567.703 451.409,-555.929 461.365,-546.595"/>
<polygon fill="midnightblue" stroke="midnightblue" points="463.786,-549.123 468.687,-539.731 458.998,-544.017 463.786,-549.123"/>
</g>
<!-- Node11 -->
<g id="node11" class="node"><title>Node11</title>
<g id="a_node11"><a doxygen="https://jmirabel.github.io/hpp-doc/api/hpp-fcl/doxygen-html/hpp-fcl.doxytag:https://jmirabel.github.io/hpp-doc/api/hpp-fcl/doxygen-html/" xlink:href="https://jmirabel.github.io/hpp-doc/api/hpp-fcl/doxygen-html/a00356.html" target="_top" xlink:title="hpp/fcl/math/vec_3f.h">
<polygon fill="white" stroke="black" points="558.5,-124.5 558.5,-143.5 669.5,-143.5 669.5,-124.5 558.5,-124.5"/>
<text text-anchor="middle" x="614" y="-131.5" font-family="Helvetica,sans-Serif" font-size="10.00">hpp/fcl/math/vec_3f.h</text>
</a>
</g>
</g>
<!-- Node7&#45;&gt;Node11 -->
<g id="edge42" class="edge"><title>Node7&#45;&gt;Node11</title>
<path fill="none" stroke="midnightblue" d="M399.155,-576.749C378.607,-555.413 344,-512.955 344,-469 344,-469 344,-469 344,-263 344,-172.832 468.469,-146.098 548.387,-138.227"/>
<polygon fill="midnightblue" stroke="midnightblue" points="548.742,-141.709 558.383,-137.317 548.107,-134.738 548.742,-141.709"/>
</g>
<!-- Node9 -->
<g id="node9" class="node"><title>Node9</title>
<g id="a_node9"><a doxygen="https://jmirabel.github.io/hpp-doc/api/hpp-fcl/doxygen-html/hpp-fcl.doxytag:https://jmirabel.github.io/hpp-doc/api/hpp-fcl/doxygen-html/" xlink:href="https://jmirabel.github.io/hpp-doc/api/hpp-fcl/doxygen-html/a00284.html" target="_top" xlink:title="hpp/fcl/deprecated.h">
<polygon fill="white" stroke="black" points="425.5,-458.5 425.5,-477.5 530.5,-477.5 530.5,-458.5 425.5,-458.5"/>
<text text-anchor="middle" x="478" y="-465.5" font-family="Helvetica,sans-Serif" font-size="10.00">hpp/fcl/deprecated.h</text>
</a>
</g>
</g>
<!-- Node8&#45;&gt;Node9 -->
<g id="edge8" class="edge"><title>Node8&#45;&gt;Node9</title>
<path fill="none" stroke="midnightblue" d="M478,-520.403C478,-511.938 478,-498.728 478,-487.82"/>
<polygon fill="midnightblue" stroke="midnightblue" points="481.5,-487.581 478,-477.581 474.5,-487.581 481.5,-487.581"/>
</g>
<!-- Node10 -->
<g id="node10" class="node"><title>Node10</title>
<g id="a_node10"><a doxygen="https://jmirabel.github.io/hpp-doc/api/hpp-fcl/doxygen-html/hpp-fcl.doxytag:https://jmirabel.github.io/hpp-doc/api/hpp-fcl/doxygen-html/" xlink:href="https://jmirabel.github.io/hpp-doc/api/hpp-fcl/doxygen-html/a00257.html" target="_top" xlink:title="hpp/fcl/BV/AABB.h">
<polygon fill="white" stroke="black" points="372.5,-390.5 372.5,-409.5 473.5,-409.5 473.5,-390.5 372.5,-390.5"/>
<text text-anchor="middle" x="423" y="-397.5" font-family="Helvetica,sans-Serif" font-size="10.00">hpp/fcl/BV/AABB.h</text>
</a>
</g>
</g>
<!-- Node8&#45;&gt;Node10 -->
<g id="edge9" class="edge"><title>Node8&#45;&gt;Node10</title>
<path fill="none" stroke="midnightblue" d="M458.094,-520.41C443.775,-513.04 425.542,-500.916 417,-484 406.7,-463.602 411.418,-436.725 416.529,-419.162"/>
<polygon fill="midnightblue" stroke="midnightblue" points="419.883,-420.163 419.63,-409.571 413.223,-418.009 419.883,-420.163"/>
</g>
<!-- Node16 -->
<g id="node16" class="node"><title>Node16</title>
<g id="a_node16"><a doxygen="https://jmirabel.github.io/hpp-doc/api/hpp-fcl/doxygen-html/hpp-fcl.doxytag:https://jmirabel.github.io/hpp-doc/api/hpp-fcl/doxygen-html/" xlink:href="https://jmirabel.github.io/hpp-doc/api/hpp-fcl/doxygen-html/a00348.html" target="_top" xlink:title="hpp/fcl/math/transform.h">
<polygon fill="white" stroke="black" points="491.5,-390.5 491.5,-409.5 614.5,-409.5 614.5,-390.5 491.5,-390.5"/>
<text text-anchor="middle" x="553" y="-397.5" font-family="Helvetica,sans-Serif" font-size="10.00">hpp/fcl/math/transform.h</text>
</a>
</g>
</g>
<!-- Node8&#45;&gt;Node16 -->
<g id="edge16" class="edge"><title>Node8&#45;&gt;Node16</title>
<path fill="none" stroke="midnightblue" d="M496.249,-520.436C510.26,-512.872 528.869,-500.481 539,-484 550.99,-464.494 553.548,-437.775 553.728,-419.978"/>
<polygon fill="midnightblue" stroke="midnightblue" points="557.224,-419.684 553.578,-409.737 550.224,-419.787 557.224,-419.684"/>
</g>
<!-- Node18 -->
<g id="node18" class="node"><title>Node18</title>
<g id="a_node18"><a doxygen="https://jmirabel.github.io/hpp-doc/api/hpp-fcl/doxygen-html/hpp-fcl.doxytag:https://jmirabel.github.io/hpp-doc/api/hpp-fcl/doxygen-html/" xlink:href="https://jmirabel.github.io/hpp-doc/api/hpp-fcl/doxygen-html/a00325.html" target="_top" xlink:title="hpp/fcl/ccd/motion\l_base.h">
<polygon fill="white" stroke="black" points="594.5,-453 594.5,-483 691.5,-483 691.5,-453 594.5,-453"/>
<text text-anchor="start" x="602.5" y="-471" font-family="Helvetica,sans-Serif" font-size="10.00">hpp/fcl/ccd/motion</text>
<text text-anchor="middle" x="643" y="-460" font-family="Helvetica,sans-Serif" font-size="10.00">_base.h</text>
</a>
</g>
</g>
<!-- Node8&#45;&gt;Node18 -->
<g id="edge19" class="edge"><title>Node8&#45;&gt;Node18</title>
<path fill="none" stroke="midnightblue" d="M501.64,-520.403C525.843,-511.603 564.147,-497.674 594.781,-486.534"/>
<polygon fill="midnightblue" stroke="midnightblue" points="596.229,-489.732 604.43,-483.025 593.836,-483.154 596.229,-489.732"/>
</g>
<!-- Node10&#45;&gt;Node11 -->
<g id="edge10" class="edge"><title>Node10&#45;&gt;Node11</title>
<path fill="none" stroke="midnightblue" d="M423.26,-390.251C424.312,-366.123 429.594,-297.173 456,-248 475.926,-210.895 487.909,-204.732 522,-180 540.421,-166.636 563.42,-155.386 581.815,-147.477"/>
<polygon fill="midnightblue" stroke="midnightblue" points="583.354,-150.627 591.233,-143.544 580.656,-144.168 583.354,-150.627"/>
</g>
<!-- Node12 -->
<g id="node12" class="node"><title>Node12</title>
<g id="a_node12"><a doxygen="https://jmirabel.github.io/hpp-doc/api/hpp-fcl/doxygen-html/hpp-fcl.doxytag:https://jmirabel.github.io/hpp-doc/api/hpp-fcl/doxygen-html/" xlink:href="https://jmirabel.github.io/hpp-doc/api/hpp-fcl/doxygen-html/a00283.html" target="_top" xlink:title="hpp/fcl/data_types.h">
<polygon fill="white" stroke="black" points="701.5,-0.5 701.5,-19.5 806.5,-19.5 806.5,-0.5 701.5,-0.5"/>
<text text-anchor="middle" x="754" y="-7.5" font-family="Helvetica,sans-Serif" font-size="10.00">hpp/fcl/data_types.h</text>
</a>
</g>
</g>
<!-- Node11&#45;&gt;Node12 -->
<g id="edge11" class="edge"><title>Node11&#45;&gt;Node12</title>
<path fill="none" stroke="midnightblue" d="M667.222,-124.472C690.697,-118.122 716.803,-107.097 734,-88 748.343,-72.072 752.646,-47.1592 753.811,-30.008"/>
<polygon fill="midnightblue" stroke="midnightblue" points="757.325,-29.7038 754.201,-19.5799 750.329,-29.4421 757.325,-29.7038"/>
</g>
<!-- Node13 -->
<g id="node13" class="node"><title>Node13</title>
<g id="a_node13"><a doxygen="https://jmirabel.github.io/hpp-doc/api/hpp-fcl/doxygen-html/hpp-fcl.doxytag:https://jmirabel.github.io/hpp-doc/api/hpp-fcl/doxygen-html/" xlink:href="https://jmirabel.github.io/hpp-doc/api/hpp-fcl/doxygen-html/a00316.html" target="_top" xlink:title="hpp/fcl/eigen/math\l_details.h">
<polygon fill="white" stroke="black" points="628.5,-57 628.5,-87 725.5,-87 725.5,-57 628.5,-57"/>
<text text-anchor="start" x="636.5" y="-75" font-family="Helvetica,sans-Serif" font-size="10.00">hpp/fcl/eigen/math</text>
<text text-anchor="middle" x="677" y="-64" font-family="Helvetica,sans-Serif" font-size="10.00">_details.h</text>
</a>
</g>
</g>
<!-- Node11&#45;&gt;Node13 -->
<g id="edge12" class="edge"><title>Node11&#45;&gt;Node13</title>
<path fill="none" stroke="midnightblue" d="M623.026,-124.403C631.32,-116.505 643.949,-104.477 654.907,-94.0409"/>
<polygon fill="midnightblue" stroke="midnightblue" points="657.325,-96.5719 662.152,-87.1408 652.497,-91.5029 657.325,-96.5719"/>
</g>
<!-- Node14 -->
<g id="node14" class="node"><title>Node14</title>
<g id="a_node14"><a doxygen="https://jmirabel.github.io/hpp-doc/api/hpp-fcl/doxygen-html/hpp-fcl.doxytag:https://jmirabel.github.io/hpp-doc/api/hpp-fcl/doxygen-html/" xlink:href="https://jmirabel.github.io/hpp-doc/api/hpp-fcl/doxygen-html/a00357.html" target="_top" xlink:title="hpp/fcl/eigen/vec_3fx.h">
<polygon fill="white" stroke="black" points="492,-62.5 492,-81.5 610,-81.5 610,-62.5 492,-62.5"/>
<text text-anchor="middle" x="551" y="-69.5" font-family="Helvetica,sans-Serif" font-size="10.00">hpp/fcl/eigen/vec_3fx.h</text>
</a>
</g>
</g>
<!-- Node11&#45;&gt;Node14 -->
<g id="edge13" class="edge"><title>Node11&#45;&gt;Node14</title>
<path fill="none" stroke="midnightblue" d="M604.974,-124.403C595.243,-115.136 579.542,-100.183 567.577,-88.7876"/>
<polygon fill="midnightblue" stroke="midnightblue" points="569.665,-85.9427 560.01,-81.5806 564.837,-91.0117 569.665,-85.9427"/>
</g>
<!-- Node14&#45;&gt;Node12 -->
<g id="edge14" class="edge"><title>Node14&#45;&gt;Node12</title>
<path fill="none" stroke="midnightblue" d="M580.085,-62.4035C615.585,-51.9108 675.745,-34.1295 715.174,-22.4758"/>
<polygon fill="midnightblue" stroke="midnightblue" points="716.371,-25.7716 724.969,-19.5806 714.387,-19.0586 716.371,-25.7716"/>
</g>
<!-- Node15 -->
<g id="node15" class="node"><title>Node15</title>
<g id="a_node15"><a doxygen="https://jmirabel.github.io/hpp-doc/api/hpp-fcl/doxygen-html/hpp-fcl.doxytag:https://jmirabel.github.io/hpp-doc/api/hpp-fcl/doxygen-html/" xlink:href="https://jmirabel.github.io/hpp-doc/api/hpp-fcl/doxygen-html/a00336.html" target="_top" xlink:title="hpp/fcl/eigen/product.h">
<polygon fill="white" stroke="black" points="493,-0.5 493,-19.5 609,-19.5 609,-0.5 493,-0.5"/>
<text text-anchor="middle" x="551" y="-7.5" font-family="Helvetica,sans-Serif" font-size="10.00">hpp/fcl/eigen/product.h</text>
</a>
</g>
</g>
<!-- Node14&#45;&gt;Node15 -->
<g id="edge15" class="edge"><title>Node14&#45;&gt;Node15</title>
<path fill="none" stroke="midnightblue" d="M551,-62.4035C551,-53.9381 551,-40.7283 551,-29.8199"/>
<polygon fill="midnightblue" stroke="midnightblue" points="554.5,-29.5806 551,-19.5806 547.5,-29.5806 554.5,-29.5806"/>
</g>
<!-- Node17 -->
<g id="node17" class="node"><title>Node17</title>
<g id="a_node17"><a doxygen="https://jmirabel.github.io/hpp-doc/api/hpp-fcl/doxygen-html/hpp-fcl.doxytag:https://jmirabel.github.io/hpp-doc/api/hpp-fcl/doxygen-html/" xlink:href="https://jmirabel.github.io/hpp-doc/api/hpp-fcl/doxygen-html/a00319.html" target="_top" xlink:title="hpp/fcl/math/matrix_3f.h">
<polygon fill="white" stroke="black" points="553,-186.5 553,-205.5 675,-205.5 675,-186.5 553,-186.5"/>
<text text-anchor="middle" x="614" y="-193.5" font-family="Helvetica,sans-Serif" font-size="10.00">hpp/fcl/math/matrix_3f.h</text>
</a>
</g>
</g>
<!-- Node16&#45;&gt;Node17 -->
<g id="edge17" class="edge"><title>Node16&#45;&gt;Node17</title>
<path fill="none" stroke="midnightblue" d="M555.621,-390.32C564.79,-359.958 595.56,-258.064 608.35,-215.71"/>
<polygon fill="midnightblue" stroke="midnightblue" points="611.78,-216.46 611.32,-205.875 605.078,-214.436 611.78,-216.46"/>
</g>
<!-- Node17&#45;&gt;Node11 -->
<g id="edge18" class="edge"><title>Node17&#45;&gt;Node11</title>
<path fill="none" stroke="midnightblue" d="M614,-186.403C614,-177.938 614,-164.728 614,-153.82"/>
<polygon fill="midnightblue" stroke="midnightblue" points="617.5,-153.581 614,-143.581 610.5,-153.581 617.5,-153.581"/>
</g>
<!-- Node18&#45;&gt;Node16 -->
<g id="edge20" class="edge"><title>Node18&#45;&gt;Node16</title>
<path fill="none" stroke="midnightblue" d="M623.471,-452.679C608.518,-441.713 587.97,-426.645 572.921,-415.609"/>
<polygon fill="midnightblue" stroke="midnightblue" points="574.913,-412.729 564.779,-409.638 570.773,-418.374 574.913,-412.729"/>
</g>
<!-- Node19 -->
<g id="node19" class="node"><title>Node19</title>
<g id="a_node19"><a doxygen="https://jmirabel.github.io/hpp-doc/api/hpp-fcl/doxygen-html/hpp-fcl.doxytag:https://jmirabel.github.io/hpp-doc/api/hpp-fcl/doxygen-html/" xlink:href="https://jmirabel.github.io/hpp-doc/api/hpp-fcl/doxygen-html/a00343.html" target="_top" xlink:title="hpp/fcl/ccd/taylor\l_matrix.h">
<polygon fill="white" stroke="black" points="671,-385 671,-415 763,-415 763,-385 671,-385"/>
<text text-anchor="start" x="679" y="-403" font-family="Helvetica,sans-Serif" font-size="10.00">hpp/fcl/ccd/taylor</text>
<text text-anchor="middle" x="717" y="-392" font-family="Helvetica,sans-Serif" font-size="10.00">_matrix.h</text>
</a>
</g>
</g>
<!-- Node18&#45;&gt;Node19 -->
<g id="edge21" class="edge"><title>Node18&#45;&gt;Node19</title>
<path fill="none" stroke="midnightblue" d="M659.057,-452.679C669.113,-443.71 682.247,-431.996 693.468,-421.988"/>
<polygon fill="midnightblue" stroke="midnightblue" points="696.095,-424.335 701.229,-415.066 691.436,-419.11 696.095,-424.335"/>
</g>
<!-- Node20 -->
<g id="node20" class="node"><title>Node20</title>
<g id="a_node20"><a doxygen="https://jmirabel.github.io/hpp-doc/api/hpp-fcl/doxygen-html/hpp-fcl.doxytag:https://jmirabel.github.io/hpp-doc/api/hpp-fcl/doxygen-html/" xlink:href="https://jmirabel.github.io/hpp-doc/api/hpp-fcl/doxygen-html/a00346.html" target="_top" xlink:title="hpp/fcl/ccd/taylor\l_vector.h">
<polygon fill="white" stroke="black" points="785,-317 785,-347 877,-347 877,-317 785,-317"/>
<text text-anchor="start" x="793" y="-335" font-family="Helvetica,sans-Serif" font-size="10.00">hpp/fcl/ccd/taylor</text>
<text text-anchor="middle" x="831" y="-324" font-family="Helvetica,sans-Serif" font-size="10.00">_vector.h</text>
</a>
</g>
</g>
<!-- Node18&#45;&gt;Node20 -->
<g id="edge38" class="edge"><title>Node18&#45;&gt;Node20</title>
<path fill="none" stroke="midnightblue" d="M691.774,-454.996C717.494,-446.96 748.495,-434.419 772,-416 792.619,-399.843 809.135,-374.583 819.39,-356.171"/>
<polygon fill="midnightblue" stroke="midnightblue" points="822.532,-357.719 824.171,-347.252 816.362,-354.412 822.532,-357.719"/>
</g>
<!-- Node27 -->
<g id="node27" class="node"><title>Node27</title>
<g id="a_node27"><a doxygen="https://jmirabel.github.io/hpp-doc/api/hpp-fcl/doxygen-html/hpp-fcl.doxytag:https://jmirabel.github.io/hpp-doc/api/hpp-fcl/doxygen-html/" xlink:href="https://jmirabel.github.io/hpp-doc/api/hpp-fcl/doxygen-html/a00338.html" target="_top" xlink:title="hpp/fcl/BV/RSS.h">
<polygon fill="white" stroke="black" points="464.5,-254.5 464.5,-273.5 559.5,-273.5 559.5,-254.5 464.5,-254.5"/>
<text text-anchor="middle" x="512" y="-261.5" font-family="Helvetica,sans-Serif" font-size="10.00">hpp/fcl/BV/RSS.h</text>
</a>
</g>
</g>
<!-- Node18&#45;&gt;Node27 -->
<g id="edge39" class="edge"><title>Node18&#45;&gt;Node27</title>
<path fill="none" stroke="midnightblue" d="M641.787,-452.706C639.84,-435.511 634.937,-406.191 623,-384 599.533,-340.377 556.145,-300.689 531.13,-280.008"/>
<polygon fill="midnightblue" stroke="midnightblue" points="533.084,-277.086 523.111,-273.51 528.677,-282.525 533.084,-277.086"/>
</g>
<!-- Node19&#45;&gt;Node17 -->
<g id="edge22" class="edge"><title>Node19&#45;&gt;Node17</title>
<path fill="none" stroke="midnightblue" d="M695.795,-384.976C683.438,-375.8 668.473,-362.792 659,-348 631.782,-305.497 620.422,-245.822 616.2,-215.807"/>
<polygon fill="midnightblue" stroke="midnightblue" points="619.625,-215.002 614.876,-205.532 612.683,-215.897 619.625,-215.002"/>
</g>
<!-- Node19&#45;&gt;Node20 -->
<g id="edge23" class="edge"><title>Node19&#45;&gt;Node20</title>
<path fill="none" stroke="midnightblue" d="M741.456,-384.841C757.835,-375.359 779.607,-362.754 797.58,-352.348"/>
<polygon fill="midnightblue" stroke="midnightblue" points="799.684,-355.175 806.585,-347.135 796.177,-349.117 799.684,-355.175"/>
</g>
<!-- Node26 -->
<g id="node26" class="node"><title>Node26</title>
<g id="a_node26"><a doxygen="https://jmirabel.github.io/hpp-doc/api/hpp-fcl/doxygen-html/hpp-fcl.doxytag:https://jmirabel.github.io/hpp-doc/api/hpp-fcl/doxygen-html/" xlink:href="https://jmirabel.github.io/hpp-doc/api/hpp-fcl/doxygen-html/a00307.html" target="_top" xlink:title="hpp/fcl/ccd/interval\l_matrix.h">
<polygon fill="white" stroke="black" points="667.5,-317 667.5,-347 766.5,-347 766.5,-317 667.5,-317"/>
<text text-anchor="start" x="675.5" y="-335" font-family="Helvetica,sans-Serif" font-size="10.00">hpp/fcl/ccd/interval</text>
<text text-anchor="middle" x="717" y="-324" font-family="Helvetica,sans-Serif" font-size="10.00">_matrix.h</text>
</a>
</g>
</g>
<!-- Node19&#45;&gt;Node26 -->
<g id="edge34" class="edge"><title>Node19&#45;&gt;Node26</title>
<path fill="none" stroke="midnightblue" d="M717,-384.679C717,-376.722 717,-366.605 717,-357.436"/>
<polygon fill="midnightblue" stroke="midnightblue" points="720.5,-357.293 717,-347.293 713.5,-357.293 720.5,-357.293"/>
</g>
<!-- Node21 -->
<g id="node21" class="node"><title>Node21</title>
<g id="a_node21"><a doxygen="https://jmirabel.github.io/hpp-doc/api/hpp-fcl/doxygen-html/hpp-fcl.doxytag:https://jmirabel.github.io/hpp-doc/api/hpp-fcl/doxygen-html/" xlink:href="https://jmirabel.github.io/hpp-doc/api/hpp-fcl/doxygen-html/a00309.html" target="_top" xlink:title="hpp/fcl/ccd/interval\l_vector.h">
<polygon fill="white" stroke="black" points="809.5,-249 809.5,-279 908.5,-279 908.5,-249 809.5,-249"/>
<text text-anchor="start" x="817.5" y="-267" font-family="Helvetica,sans-Serif" font-size="10.00">hpp/fcl/ccd/interval</text>
<text text-anchor="middle" x="859" y="-256" font-family="Helvetica,sans-Serif" font-size="10.00">_vector.h</text>
</a>
</g>
</g>
<!-- Node20&#45;&gt;Node21 -->
<g id="edge24" class="edge"><title>Node20&#45;&gt;Node21</title>
<path fill="none" stroke="midnightblue" d="M837.076,-316.679C840.561,-308.463 845.024,-297.943 849.013,-288.542"/>
<polygon fill="midnightblue" stroke="midnightblue" points="852.253,-289.866 852.936,-279.293 845.809,-287.132 852.253,-289.866"/>
</g>
<!-- Node24 -->
<g id="node24" class="node"><title>Node24</title>
<g id="a_node24"><a doxygen="https://jmirabel.github.io/hpp-doc/api/hpp-fcl/doxygen-html/hpp-fcl.doxytag:https://jmirabel.github.io/hpp-doc/api/hpp-fcl/doxygen-html/" xlink:href="https://jmirabel.github.io/hpp-doc/api/hpp-fcl/doxygen-html/a00344.html" target="_top" xlink:title="hpp/fcl/ccd/taylor\l_model.h">
<polygon fill="white" stroke="black" points="965,-249 965,-279 1057,-279 1057,-249 965,-249"/>
<text text-anchor="start" x="973" y="-267" font-family="Helvetica,sans-Serif" font-size="10.00">hpp/fcl/ccd/taylor</text>
<text text-anchor="middle" x="1011" y="-256" font-family="Helvetica,sans-Serif" font-size="10.00">_model.h</text>
</a>
</g>
</g>
<!-- Node20&#45;&gt;Node24 -->
<g id="edge29" class="edge"><title>Node20&#45;&gt;Node24</title>
<path fill="none" stroke="midnightblue" d="M869.615,-316.841C896.993,-306.802 933.913,-293.265 963.159,-282.542"/>
<polygon fill="midnightblue" stroke="midnightblue" points="964.575,-285.751 972.759,-279.022 962.165,-279.178 964.575,-285.751"/>
</g>
<!-- Node25 -->
<g id="node25" class="node"><title>Node25</title>
<g id="a_node25"><a doxygen="https://jmirabel.github.io/hpp-doc/api/hpp-fcl/doxygen-html/hpp-fcl.doxytag:https://jmirabel.github.io/hpp-doc/api/hpp-fcl/doxygen-html/" xlink:href="https://jmirabel.github.io/hpp-doc/api/hpp-fcl/doxygen-html/a00345.html" target="_top" xlink:title="hpp/fcl/eigen/taylor\l_operator.h">
<polygon fill="white" stroke="black" points="692.5,-249 692.5,-279 791.5,-279 791.5,-249 692.5,-249"/>
<text text-anchor="start" x="700.5" y="-267" font-family="Helvetica,sans-Serif" font-size="10.00">hpp/fcl/eigen/taylor</text>
<text text-anchor="middle" x="742" y="-256" font-family="Helvetica,sans-Serif" font-size="10.00">_operator.h</text>
</a>
</g>
</g>
<!-- Node20&#45;&gt;Node25 -->
<g id="edge31" class="edge"><title>Node20&#45;&gt;Node25</title>
<path fill="none" stroke="midnightblue" d="M811.688,-316.679C799.241,-307.449 782.874,-295.311 769.129,-285.118"/>
<polygon fill="midnightblue" stroke="midnightblue" points="771.085,-282.212 760.968,-279.066 766.916,-287.834 771.085,-282.212"/>
</g>
<!-- Node21&#45;&gt;Node11 -->
<g id="edge27" class="edge"><title>Node21&#45;&gt;Node11</title>
<path fill="none" stroke="midnightblue" d="M829.552,-248.822C809.636,-238.993 782.892,-225.324 760,-212 737.52,-198.916 733.745,-192.617 711,-180 689.196,-167.906 663.572,-156.115 644.137,-147.639"/>
<polygon fill="midnightblue" stroke="midnightblue" points="645.433,-144.387 634.865,-143.641 642.662,-150.815 645.433,-144.387"/>
</g>
<!-- Node22 -->
<g id="node22" class="node"><title>Node22</title>
<g id="a_node22"><a doxygen="https://jmirabel.github.io/hpp-doc/api/hpp-fcl/doxygen-html/hpp-fcl.doxytag:https://jmirabel.github.io/hpp-doc/api/hpp-fcl/doxygen-html/" xlink:href="https://jmirabel.github.io/hpp-doc/api/hpp-fcl/doxygen-html/a00306.html" target="_top" xlink:title="hpp/fcl/ccd/interval.h">
<polygon fill="white" stroke="black" points="895.5,-186.5 895.5,-205.5 1002.5,-205.5 1002.5,-186.5 895.5,-186.5"/>
<text text-anchor="middle" x="949" y="-193.5" font-family="Helvetica,sans-Serif" font-size="10.00">hpp/fcl/ccd/interval.h</text>
</a>
</g>
</g>
<!-- Node21&#45;&gt;Node22 -->
<g id="edge25" class="edge"><title>Node21&#45;&gt;Node22</title>
<path fill="none" stroke="midnightblue" d="M878.529,-248.679C893.482,-237.713 914.03,-222.645 929.079,-211.609"/>
<polygon fill="midnightblue" stroke="midnightblue" points="931.227,-214.374 937.221,-205.638 927.087,-208.729 931.227,-214.374"/>
</g>
<!-- Node23 -->
<g id="node23" class="node"><title>Node23</title>
<g id="a_node23"><a doxygen="https://jmirabel.github.io/hpp-doc/api/hpp-fcl/doxygen-html/hpp-fcl.doxytag:https://jmirabel.github.io/hpp-doc/api/hpp-fcl/doxygen-html/" xlink:href="https://jmirabel.github.io/hpp-doc/api/hpp-fcl/doxygen-html/a00305.html" target="_top" xlink:title="hpp/fcl/eigen/plugins\l/ccd/interval&#45;vector.h">
<polygon fill="white" stroke="black" points="769,-181 769,-211 877,-211 877,-181 769,-181"/>
<text text-anchor="start" x="777" y="-199" font-family="Helvetica,sans-Serif" font-size="10.00">hpp/fcl/eigen/plugins</text>
<text text-anchor="middle" x="823" y="-188" font-family="Helvetica,sans-Serif" font-size="10.00">/ccd/interval&#45;vector.h</text>
</a>
</g>
</g>
<!-- Node21&#45;&gt;Node23 -->
<g id="edge28" class="edge"><title>Node21&#45;&gt;Node23</title>
<path fill="none" stroke="midnightblue" d="M851.189,-248.679C846.66,-240.376 840.848,-229.721 835.679,-220.245"/>
<polygon fill="midnightblue" stroke="midnightblue" points="838.657,-218.396 830.796,-211.293 832.512,-221.748 838.657,-218.396"/>
</g>
<!-- Node22&#45;&gt;Node12 -->
<g id="edge26" class="edge"><title>Node22&#45;&gt;Node12</title>
<path fill="none" stroke="midnightblue" d="M939.856,-186.372C909.284,-157.524 810.318,-64.1415 770.661,-26.7212"/>
<polygon fill="midnightblue" stroke="midnightblue" points="773.026,-24.1407 763.351,-19.8234 768.222,-29.232 773.026,-24.1407"/>
</g>
<!-- Node24&#45;&gt;Node22 -->
<g id="edge30" class="edge"><title>Node24&#45;&gt;Node22</title>
<path fill="none" stroke="midnightblue" d="M997.547,-248.679C987.784,-238.286 974.559,-224.208 964.378,-213.37"/>
<polygon fill="midnightblue" stroke="midnightblue" points="966.691,-210.72 957.293,-205.828 961.589,-215.513 966.691,-210.72"/>
</g>
<!-- Node25&#45;&gt;Node11 -->
<g id="edge32" class="edge"><title>Node25&#45;&gt;Node11</title>
<path fill="none" stroke="midnightblue" d="M734.402,-248.827C724.481,-231.225 705.789,-200.964 684,-180 671.058,-167.548 654.179,-156.578 640.238,-148.587"/>
<polygon fill="midnightblue" stroke="midnightblue" points="641.585,-145.332 631.141,-143.549 638.193,-151.456 641.585,-145.332"/>
</g>
<!-- Node25&#45;&gt;Node17 -->
<g id="edge33" class="edge"><title>Node25&#45;&gt;Node17</title>
<path fill="none" stroke="midnightblue" d="M714.541,-248.841C692.401,-237.425 661.486,-221.485 639.8,-210.303"/>
<polygon fill="midnightblue" stroke="midnightblue" points="641.33,-207.154 630.838,-205.682 638.122,-213.376 641.33,-207.154"/>
</g>
<!-- Node26&#45;&gt;Node17 -->
<g id="edge37" class="edge"><title>Node26&#45;&gt;Node17</title>
<path fill="none" stroke="midnightblue" d="M705.977,-316.66C686.767,-291.668 647.259,-240.269 626.843,-213.709"/>
<polygon fill="midnightblue" stroke="midnightblue" points="629.578,-211.523 620.708,-205.728 624.028,-215.789 629.578,-211.523"/>
</g>
<!-- Node26&#45;&gt;Node21 -->
<g id="edge36" class="edge"><title>Node26&#45;&gt;Node21</title>
<path fill="none" stroke="midnightblue" d="M747.463,-316.841C768.52,-307.054 796.732,-293.941 819.514,-283.353"/>
<polygon fill="midnightblue" stroke="midnightblue" points="820.995,-286.524 828.588,-279.135 818.044,-280.176 820.995,-286.524"/>
</g>
<!-- Node26&#45;&gt;Node22 -->
<g id="edge35" class="edge"><title>Node26&#45;&gt;Node22</title>
<path fill="none" stroke="midnightblue" d="M766.638,-318.379C825.81,-303.328 916.819,-280.161 917,-280 935.638,-263.446 943.495,-234.77 946.756,-215.839"/>
<polygon fill="midnightblue" stroke="midnightblue" points="950.248,-216.145 948.22,-205.746 943.321,-215.14 950.248,-216.145"/>
</g>
<!-- Node27&#45;&gt;Node11 -->
<g id="edge40" class="edge"><title>Node27&#45;&gt;Node11</title>
<path fill="none" stroke="midnightblue" d="M513.488,-254.341C516.635,-238.181 525.27,-202.987 544,-180 554.9,-166.623 570.866,-155.933 584.799,-148.334"/>
<polygon fill="midnightblue" stroke="midnightblue" points="586.748,-151.267 594.032,-143.573 583.54,-145.046 586.748,-151.267"/>
</g>
<!-- Node27&#45;&gt;Node17 -->
<g id="edge41" class="edge"><title>Node27&#45;&gt;Node17</title>
<path fill="none" stroke="midnightblue" d="M525.335,-254.372C542.287,-243.403 571.783,-224.317 592.068,-211.191"/>
<polygon fill="midnightblue" stroke="midnightblue" points="594.168,-214.002 600.662,-205.63 590.365,-208.125 594.168,-214.002"/>
</g>
</g>
</svg>
