<?xml version="1.0" encoding="UTF-8" standalone="no"?>
<!DOCTYPE svg PUBLIC "-//W3C//DTD SVG 1.1//EN"
 "http://www.w3.org/Graphics/SVG/1.1/DTD/svg11.dtd">
<!-- Generated by graphviz version 2.36.0 (20140111.2315)
 -->
<!-- Title: hpp::manipulation::graph::Edge Pages: 1 -->
<svg width="243pt" height="176pt"
 viewBox="0.00 0.00 243.00 176.00" xmlns="http://www.w3.org/2000/svg" xmlns:xlink="http://www.w3.org/1999/xlink">
<g id="graph0" class="graph" transform="scale(1 1) rotate(0) translate(4 172)">
<title>hpp::manipulation::graph::Edge</title>
<polygon fill="white" stroke="none" points="-4,4 -4,-172 239,-172 239,4 -4,4"/>
<!-- Node1 -->
<g id="node1" class="node"><title>Node1</title>
<polygon fill="#bfbfbf" stroke="black" points="66.5,-69 66.5,-99 165.5,-99 165.5,-69 66.5,-69"/>
<text text-anchor="start" x="74.5" y="-87" font-family="Helvetica,sans-Serif" font-size="10.00">hpp::manipulation::</text>
<text text-anchor="middle" x="116" y="-76" font-family="Helvetica,sans-Serif" font-size="10.00">graph::Edge</text>
</g>
<!-- Node3 -->
<g id="node3" class="node"><title>Node3</title>
<g id="a_node3"><a xlink:href="a00028.html" target="_top" xlink:title="Edge that find intersection of level set. ">
<polygon fill="white" stroke="black" points="-0.5,-1 -0.5,-31 106.5,-31 106.5,-1 -0.5,-1"/>
<text text-anchor="start" x="7.5" y="-19" font-family="Helvetica,sans-Serif" font-size="10.00">hpp::manipulation::</text>
<text text-anchor="middle" x="53" y="-8" font-family="Helvetica,sans-Serif" font-size="10.00">graph::LevelSetEdge</text>
</a>
</g>
</g>
<!-- Node1&#45;&gt;Node3 -->
<g id="edge2" class="edge"><title>Node1&#45;&gt;Node3</title>
<path fill="none" stroke="midnightblue" d="M95.185,-61.1939C85.7986,-51.3605 74.9763,-40.0228 66.6434,-31.2931"/>
<polygon fill="midnightblue" stroke="midnightblue" points="92.8934,-63.8621 102.33,-68.679 97.9569,-59.0287 92.8934,-63.8621"/>
</g>
<!-- Node4 -->
<g id="node4" class="node"><title>Node4</title>
<g id="a_node4"><a xlink:href="a00042.html" target="_top" xlink:title="Edge with waypoint. ">
<polygon fill="white" stroke="black" points="125,-1 125,-31 235,-31 235,-1 125,-1"/>
<text text-anchor="start" x="133" y="-19" font-family="Helvetica,sans-Serif" font-size="10.00">hpp::manipulation::</text>
<text text-anchor="middle" x="180" y="-8" font-family="Helvetica,sans-Serif" font-size="10.00">graph::WaypointEdge</text>
</a>
</g>
</g>
<!-- Node1&#45;&gt;Node4 -->
<g id="edge3" class="edge"><title>Node1&#45;&gt;Node4</title>
<path fill="none" stroke="midnightblue" d="M136.863,-61.4855C146.463,-51.5852 157.591,-40.1092 166.14,-31.2931"/>
<polygon fill="midnightblue" stroke="midnightblue" points="134.336,-59.0634 129.887,-68.679 139.361,-63.9365 134.336,-59.0634"/>
</g>
<!-- Node2 -->
<g id="node2" class="node"><title>Node2</title>
<g id="a_node2"><a xlink:href="a00018.html" target="_top" xlink:title="Define common methods of the graph components. ">
<polygon fill="white" stroke="black" points="54.5,-137 54.5,-167 177.5,-167 177.5,-137 54.5,-137"/>
<text text-anchor="start" x="62.5" y="-155" font-family="Helvetica,sans-Serif" font-size="10.00">hpp::manipulation::</text>
<text text-anchor="middle" x="116" y="-144" font-family="Helvetica,sans-Serif" font-size="10.00">graph::GraphComponent</text>
</a>
</g>
</g>
<!-- Node2&#45;&gt;Node1 -->
<g id="edge1" class="edge"><title>Node2&#45;&gt;Node1</title>
<path fill="none" stroke="midnightblue" d="M116,-126.532C116,-117.361 116,-107.245 116,-99.2931"/>
<polygon fill="midnightblue" stroke="midnightblue" points="112.5,-126.679 116,-136.679 119.5,-126.679 112.5,-126.679"/>
</g>
</g>
</svg>
