<?xml version="1.0" encoding="UTF-8" standalone="no"?>
<!DOCTYPE svg PUBLIC "-//W3C//DTD SVG 1.1//EN"
 "http://www.w3.org/Graphics/SVG/1.1/DTD/svg11.dtd">
<!-- Generated by graphviz version 2.36.0 (20140111.2315)
 -->
<!-- Title: hpp::manipulation::graph::GuidedNodeSelector Pages: 1 -->
<svg width="402pt" height="412pt"
 viewBox="0.00 0.00 402.00 412.00" xmlns="http://www.w3.org/2000/svg" xmlns:xlink="http://www.w3.org/1999/xlink">
<g id="graph0" class="graph" transform="scale(1 1) rotate(0) translate(4 408)">
<title>hpp::manipulation::graph::GuidedNodeSelector</title>
<polygon fill="white" stroke="none" points="-4,4 -4,-408 398,-408 398,4 -4,4"/>
<!-- Node1 -->
<g id="node1" class="node"><title>Node1</title>
<polygon fill="#bfbfbf" stroke="black" points="166.5,-1 166.5,-31 303.5,-31 303.5,-1 166.5,-1"/>
<text text-anchor="start" x="174.5" y="-19" font-family="Helvetica,sans-Serif" font-size="10.00">hpp::manipulation::</text>
<text text-anchor="middle" x="235" y="-8" font-family="Helvetica,sans-Serif" font-size="10.00">graph::GuidedNodeSelector</text>
</g>
<!-- Node2 -->
<g id="node2" class="node"><title>Node2</title>
<g id="a_node2"><a xlink:href="a00033.html" target="_top" xlink:title="This class is used to get the state of a configuration. ">
<polygon fill="white" stroke="black" points="182,-71 182,-101 288,-101 288,-71 182,-71"/>
<text text-anchor="start" x="190" y="-89" font-family="Helvetica,sans-Serif" font-size="10.00">hpp::manipulation::</text>
<text text-anchor="middle" x="235" y="-78" font-family="Helvetica,sans-Serif" font-size="10.00">graph::NodeSelector</text>
</a>
</g>
</g>
<!-- Node2&#45;&gt;Node1 -->
<g id="edge1" class="edge"><title>Node2&#45;&gt;Node1</title>
<path fill="none" stroke="midnightblue" d="M235,-60.7688C235,-50.8141 235,-39.6384 235,-31.0716"/>
<polygon fill="midnightblue" stroke="midnightblue" points="231.5,-60.9103 235,-70.9104 238.5,-60.9104 231.5,-60.9103"/>
</g>
<!-- Node3 -->
<g id="node3" class="node"><title>Node3</title>
<g id="a_node3"><a xlink:href="a00018.html" target="_top" xlink:title="Define common methods of the graph components. ">
<polygon fill="white" stroke="black" points="67.5,-161 67.5,-191 190.5,-191 190.5,-161 67.5,-161"/>
<text text-anchor="start" x="75.5" y="-179" font-family="Helvetica,sans-Serif" font-size="10.00">hpp::manipulation::</text>
<text text-anchor="middle" x="129" y="-168" font-family="Helvetica,sans-Serif" font-size="10.00">graph::GraphComponent</text>
</a>
</g>
</g>
<!-- Node3&#45;&gt;Node2 -->
<g id="edge2" class="edge"><title>Node3&#45;&gt;Node2</title>
<path fill="none" stroke="midnightblue" d="M153.729,-154.471C173.482,-138.072 200.642,-115.524 218.012,-101.104"/>
<polygon fill="midnightblue" stroke="midnightblue" points="151.489,-151.781 146.031,-160.861 155.961,-157.167 151.489,-151.781"/>
</g>
<!-- Node4 -->
<g id="node4" class="node"><title>Node4</title>
<g id="a_node4"><a xlink:title="STL class. ">
<polygon fill="white" stroke="#bfbfbf" points="-0.5,-278.5 -0.5,-297.5 72.5,-297.5 72.5,-278.5 -0.5,-278.5"/>
<text text-anchor="middle" x="36" y="-285.5" font-family="Helvetica,sans-Serif" font-size="10.00">std::list&lt; T &gt;</text>
</a>
</g>
</g>
<!-- Node4&#45;&gt;Node3 -->
<g id="edge3" class="edge"><title>Node4&#45;&gt;Node3</title>
<path fill="none" stroke="#9a32cd" stroke-dasharray="5,2" d="M35.5028,-268.346C36.0427,-259.23 37.9071,-248.435 43,-240 56.106,-218.294 79.8142,-201.777 99.0235,-191.112"/>
<polygon fill="#9a32cd" stroke="#9a32cd" points="32.003,-268.318 35.3733,-278.363 39.0024,-268.409 32.003,-268.318"/>
<text text-anchor="middle" x="75" y="-247.5" font-family="Helvetica,sans-Serif" font-size="10.00"> lockedJoints_</text>
</g>
<!-- Node5 -->
<g id="node5" class="node"><title>Node5</title>
<polygon fill="white" stroke="#bfbfbf" points="71.5,-384.5 71.5,-403.5 100.5,-403.5 100.5,-384.5 71.5,-384.5"/>
<text text-anchor="middle" x="86" y="-391.5" font-family="Helvetica,sans-Serif" font-size="10.00">T</text>
</g>
<!-- Node5&#45;&gt;Node4 -->
<g id="edge4" class="edge"><title>Node5&#45;&gt;Node4</title>
<path fill="none" stroke="#9a32cd" stroke-dasharray="5,2" d="M66.343,-377.558C62.8379,-374.066 59.5098,-370.152 57,-366 43.5248,-343.706 38.5159,-312.63 36.8056,-297.693"/>
<polygon fill="#9a32cd" stroke="#9a32cd" points="64.264,-380.394 74.0496,-384.455 68.9324,-375.178 64.264,-380.394"/>
<text text-anchor="middle" x="78.5" y="-357.5" font-family="Helvetica,sans-Serif" font-size="10.00"> elements</text>
</g>
<!-- Node7 -->
<g id="node7" class="node"><title>Node7</title>
<g id="a_node7"><a xlink:title="STL class. ">
<polygon fill="white" stroke="#bfbfbf" points="85.5,-316.5 85.5,-335.5 172.5,-335.5 172.5,-316.5 85.5,-316.5"/>
<text text-anchor="middle" x="129" y="-323.5" font-family="Helvetica,sans-Serif" font-size="10.00">std::vector&lt; T &gt;</text>
</a>
</g>
</g>
<!-- Node5&#45;&gt;Node7 -->
<g id="edge7" class="edge"><title>Node5&#45;&gt;Node7</title>
<path fill="none" stroke="#9a32cd" stroke-dasharray="5,2" d="M97.1163,-375.938C105.473,-363.112 116.583,-346.059 123.24,-335.841"/>
<polygon fill="#9a32cd" stroke="#9a32cd" points="94.1478,-374.082 91.6215,-384.372 100.013,-377.904 94.1478,-374.082"/>
<text text-anchor="middle" x="133.5" y="-357.5" font-family="Helvetica,sans-Serif" font-size="10.00"> elements</text>
</g>
<!-- Node6 -->
<g id="node6" class="node"><title>Node6</title>
<polygon fill="white" stroke="#bfbfbf" points="248,-240.5 248,-259.5 394,-259.5 394,-240.5 248,-240.5"/>
<text text-anchor="middle" x="321" y="-247.5" font-family="Helvetica,sans-Serif" font-size="10.00">std::vector&lt; SizeIntervals_t &gt;</text>
</g>
<!-- Node6&#45;&gt;Node3 -->
<g id="edge5" class="edge"><title>Node6&#45;&gt;Node3</title>
<path fill="none" stroke="#9a32cd" stroke-dasharray="5,2" d="M288.835,-236.938C255.123,-224.296 202.206,-204.452 166.591,-191.097"/>
<polygon fill="#9a32cd" stroke="#9a32cd" points="287.629,-240.224 298.221,-240.458 290.087,-233.669 287.629,-240.224"/>
<text text-anchor="middle" x="280" y="-213.5" font-family="Helvetica,sans-Serif" font-size="10.00"> passiveDofs_</text>
</g>
<!-- Node7&#45;&gt;Node3 -->
<g id="edge8" class="edge"><title>Node7&#45;&gt;Node3</title>
<path fill="none" stroke="#9a32cd" stroke-dasharray="5,2" d="M129,-305.798C129,-275.728 129,-218.2 129,-191.401"/>
<polygon fill="#9a32cd" stroke="#9a32cd" points="125.5,-306.185 129,-316.185 132.5,-306.185 125.5,-306.185"/>
<text text-anchor="middle" x="179.5" y="-247.5" font-family="Helvetica,sans-Serif" font-size="10.00"> numericalConstraints_</text>
</g>
<!-- Node7&#45;&gt;Node6 -->
<g id="edge6" class="edge"><title>Node7&#45;&gt;Node6</title>
<path fill="none" stroke="#9a32cd" stroke-dasharray="5,2" d="M161.201,-312.589C200.2,-297.558 264.867,-272.635 298.742,-259.579"/>
<polygon fill="#9a32cd" stroke="#9a32cd" points="159.473,-309.504 151.401,-316.366 161.99,-316.036 159.473,-309.504"/>
<text text-anchor="middle" x="269.5" y="-285.5" font-family="Helvetica,sans-Serif" font-size="10.00"> elements</text>
</g>
<!-- Node8 -->
<g id="node8" class="node"><title>Node8</title>
<polygon fill="white" stroke="#bfbfbf" points="208.5,-166.5 208.5,-185.5 333.5,-185.5 333.5,-166.5 208.5,-166.5"/>
<text text-anchor="middle" x="271" y="-173.5" font-family="Helvetica,sans-Serif" font-size="10.00">std::vector&lt; NodePtr_t &gt;</text>
</g>
<!-- Node8&#45;&gt;Node2 -->
<g id="edge9" class="edge"><title>Node8&#45;&gt;Node2</title>
<path fill="none" stroke="#9a32cd" stroke-dasharray="5,2" d="M263.488,-156.636C256.742,-140.147 246.979,-116.281 240.813,-101.209"/>
<polygon fill="#9a32cd" stroke="#9a32cd" points="260.391,-158.31 267.417,-166.241 266.87,-155.66 260.391,-158.31"/>
<text text-anchor="middle" x="291.5" y="-134" font-family="Helvetica,sans-Serif" font-size="10.00"> waypoints_</text>
<text text-anchor="middle" x="291.5" y="-123" font-family="Helvetica,sans-Serif" font-size="10.00">orderedStates_</text>
</g>
</g>
</svg>
