<?xml version="1.0" encoding="UTF-8" standalone="no"?>
<!DOCTYPE svg PUBLIC "-//W3C//DTD SVG 1.1//EN"
 "http://www.w3.org/Graphics/SVG/1.1/DTD/svg11.dtd">
<!-- Generated by graphviz version 2.36.0 (20140111.2315)
 -->
<!-- Title: graph&#45;component.hh Pages: 1 -->
<svg width="1139pt" height="740pt"
 viewBox="0.00 0.00 1139.00 740.00" xmlns="http://www.w3.org/2000/svg" xmlns:xlink="http://www.w3.org/1999/xlink">
<g id="graph0" class="graph" transform="scale(1 1) rotate(0) translate(4 736)">
<title>graph&#45;component.hh</title>
<polygon fill="white" stroke="none" points="-4,4 -4,-736 1135,-736 1135,4 -4,4"/>
<!-- Node1 -->
<g id="node1" class="node"><title>Node1</title>
<polygon fill="#bfbfbf" stroke="black" points="418.5,-712.5 418.5,-731.5 523.5,-731.5 523.5,-712.5 418.5,-712.5"/>
<text text-anchor="middle" x="471" y="-719.5" font-family="Helvetica,sans-Serif" font-size="10.00">graph&#45;component.hh</text>
</g>
<!-- Node2 -->
<g id="node2" class="node"><title>Node2</title>
<polygon fill="white" stroke="#bfbfbf" points="180.5,-650.5 180.5,-669.5 221.5,-669.5 221.5,-650.5 180.5,-650.5"/>
<text text-anchor="middle" x="201" y="-657.5" font-family="Helvetica,sans-Serif" font-size="10.00">string</text>
</g>
<!-- Node1&#45;&gt;Node2 -->
<g id="edge1" class="edge"><title>Node1&#45;&gt;Node2</title>
<path fill="none" stroke="midnightblue" d="M418.44,-715.417C369.091,-709.183 293.681,-697.085 231,-676 229.137,-675.373 227.244,-674.651 225.361,-673.87"/>
<polygon fill="midnightblue" stroke="midnightblue" points="226.763,-670.662 216.218,-669.634 223.82,-677.013 226.763,-670.662"/>
</g>
<!-- Node3 -->
<g id="node3" class="node"><title>Node3</title>
<polygon fill="white" stroke="#bfbfbf" points="470,-582.5 470,-601.5 522,-601.5 522,-582.5 470,-582.5"/>
<text text-anchor="middle" x="496" y="-589.5" font-family="Helvetica,sans-Serif" font-size="10.00">ostream</text>
</g>
<!-- Node1&#45;&gt;Node3 -->
<g id="edge2" class="edge"><title>Node1&#45;&gt;Node3</title>
<path fill="none" stroke="midnightblue" d="M464.417,-712.296C454.351,-697.86 437.274,-668.16 447,-644 452.716,-629.799 464.486,-617.335 475.058,-608.283"/>
<polygon fill="midnightblue" stroke="midnightblue" points="477.538,-610.78 483.141,-601.787 473.153,-605.323 477.538,-610.78"/>
</g>
<!-- Node4 -->
<g id="node4" class="node"><title>Node4</title>
<polygon fill="white" stroke="#bfbfbf" points="591.5,-650.5 591.5,-669.5 698.5,-669.5 698.5,-650.5 591.5,-650.5"/>
<text text-anchor="middle" x="645" y="-657.5" font-family="Helvetica,sans-Serif" font-size="10.00">hpp/util/exception.hh</text>
</g>
<!-- Node1&#45;&gt;Node4 -->
<g id="edge3" class="edge"><title>Node1&#45;&gt;Node4</title>
<path fill="none" stroke="midnightblue" d="M495.93,-712.403C526.036,-702.022 576.832,-684.506 610.638,-672.849"/>
<polygon fill="midnightblue" stroke="midnightblue" points="611.804,-676.149 620.116,-669.581 609.522,-669.532 611.804,-676.149"/>
</g>
<!-- Node5 -->
<g id="node5" class="node"><title>Node5</title>
<polygon fill="white" stroke="#bfbfbf" points="716.5,-650.5 716.5,-669.5 849.5,-669.5 849.5,-650.5 716.5,-650.5"/>
<text text-anchor="middle" x="783" y="-657.5" font-family="Helvetica,sans-Serif" font-size="10.00">hpp/manipulation/config.hh</text>
</g>
<!-- Node1&#45;&gt;Node5 -->
<g id="edge4" class="edge"><title>Node1&#45;&gt;Node5</title>
<path fill="none" stroke="midnightblue" d="M516.259,-712.46C563.779,-703.472 640.666,-688.87 707,-676 714.436,-674.557 722.278,-673.023 729.989,-671.508"/>
<polygon fill="midnightblue" stroke="midnightblue" points="730.868,-674.902 740.003,-669.536 729.515,-668.034 730.868,-674.902"/>
</g>
<!-- Node6 -->
<g id="node6" class="node"><title>Node6</title>
<polygon fill="white" stroke="#bfbfbf" points="243.5,-582.5 243.5,-601.5 398.5,-601.5 398.5,-582.5 243.5,-582.5"/>
<text text-anchor="middle" x="321" y="-589.5" font-family="Helvetica,sans-Serif" font-size="10.00">hpp/manipulation/deprecated.hh</text>
</g>
<!-- Node1&#45;&gt;Node6 -->
<g id="edge5" class="edge"><title>Node1&#45;&gt;Node6</title>
<path fill="none" stroke="midnightblue" d="M460.69,-712.202C435.521,-690.725 370.688,-635.401 338.989,-608.351"/>
<polygon fill="midnightblue" stroke="midnightblue" points="340.866,-605.351 330.987,-601.522 336.322,-610.676 340.866,-605.351"/>
</g>
<!-- Node7 -->
<g id="node7" class="node"><title>Node7</title>
<g id="a_node7"><a xlink:href="a00001.html" target="_top" xlink:title="hpp/manipulation/fwd.hh">
<polygon fill="white" stroke="black" points="240,-650.5 240,-669.5 362,-669.5 362,-650.5 240,-650.5"/>
<text text-anchor="middle" x="301" y="-657.5" font-family="Helvetica,sans-Serif" font-size="10.00">hpp/manipulation/fwd.hh</text>
</a>
</g>
</g>
<!-- Node1&#45;&gt;Node7 -->
<g id="edge6" class="edge"><title>Node1&#45;&gt;Node7</title>
<path fill="none" stroke="midnightblue" d="M446.643,-712.403C417.356,-702.067 368.026,-684.656 334.998,-672.999"/>
<polygon fill="midnightblue" stroke="midnightblue" points="335.906,-669.608 325.312,-669.581 333.577,-676.209 335.906,-669.608"/>
</g>
<!-- Node31 -->
<g id="node31" class="node"><title>Node31</title>
<g id="a_node31"><a xlink:href="a00049.html" target="_top" xlink:title="hpp/manipulation/graph\l/fwd.hh">
<polygon fill="white" stroke="black" points="867.5,-645 867.5,-675 984.5,-675 984.5,-645 867.5,-645"/>
<text text-anchor="start" x="875.5" y="-663" font-family="Helvetica,sans-Serif" font-size="10.00">hpp/manipulation/graph</text>
<text text-anchor="middle" x="926" y="-652" font-family="Helvetica,sans-Serif" font-size="10.00">/fwd.hh</text>
</a>
</g>
</g>
<!-- Node1&#45;&gt;Node31 -->
<g id="edge47" class="edge"><title>Node1&#45;&gt;Node31</title>
<path fill="none" stroke="midnightblue" d="M523.505,-716.596C596.183,-710.125 731.711,-696.706 857.289,-676.004"/>
<polygon fill="midnightblue" stroke="midnightblue" points="858.18,-679.404 867.468,-674.306 857.029,-672.499 858.18,-679.404"/>
</g>
<!-- Node36 -->
<g id="node36" class="node"><title>Node36</title>
<g id="a_node36"><a xlink:href="a00047.html" target="_top" xlink:title="hpp/manipulation/graph\l/dot.hh">
<polygon fill="white" stroke="black" points="456.5,-645 456.5,-675 573.5,-675 573.5,-645 456.5,-645"/>
<text text-anchor="start" x="464.5" y="-663" font-family="Helvetica,sans-Serif" font-size="10.00">hpp/manipulation/graph</text>
<text text-anchor="middle" x="515" y="-652" font-family="Helvetica,sans-Serif" font-size="10.00">/dot.hh</text>
</a>
</g>
</g>
<!-- Node1&#45;&gt;Node36 -->
<g id="edge52" class="edge"><title>Node1&#45;&gt;Node36</title>
<path fill="none" stroke="midnightblue" d="M477.304,-712.403C482.873,-704.809 491.243,-693.396 498.682,-683.252"/>
<polygon fill="midnightblue" stroke="midnightblue" points="501.539,-685.275 504.63,-675.141 495.894,-681.135 501.539,-685.275"/>
</g>
<!-- Node7&#45;&gt;Node6 -->
<g id="edge46" class="edge"><title>Node7&#45;&gt;Node6</title>
<path fill="none" stroke="midnightblue" d="M303.615,-650.372C306.593,-640.544 311.545,-624.202 315.404,-611.467"/>
<polygon fill="midnightblue" stroke="midnightblue" points="318.77,-612.426 318.321,-601.841 312.071,-610.396 318.77,-612.426"/>
</g>
<!-- Node8 -->
<g id="node8" class="node"><title>Node8</title>
<polygon fill="white" stroke="#bfbfbf" points="416.5,-582.5 416.5,-601.5 451.5,-601.5 451.5,-582.5 416.5,-582.5"/>
<text text-anchor="middle" x="434" y="-589.5" font-family="Helvetica,sans-Serif" font-size="10.00">map</text>
</g>
<!-- Node7&#45;&gt;Node8 -->
<g id="edge7" class="edge"><title>Node7&#45;&gt;Node8</title>
<path fill="none" stroke="midnightblue" d="M319.545,-650.48C340.833,-640.607 376.714,-623.681 407,-608 407.976,-607.495 408.969,-606.974 409.97,-606.444"/>
<polygon fill="midnightblue" stroke="midnightblue" points="411.831,-609.416 418.948,-601.567 408.49,-603.265 411.831,-609.416"/>
</g>
<!-- Node9 -->
<g id="node9" class="node"><title>Node9</title>
<g id="a_node9"><a doxygen="https://jmirabel.github.io/hpp-doc/api/hpp-core/doxygen-html/hpp-core.doxytag:https://jmirabel.github.io/hpp-doc/api/hpp-core/doxygen-html/" xlink:href="https://jmirabel.github.io/hpp-doc/api/hpp-core/doxygen-html/a00001.html" target="_top" xlink:title="hpp/core/fwd.hh">
<polygon fill="white" stroke="black" points="0,-582.5 0,-601.5 86,-601.5 86,-582.5 0,-582.5"/>
<text text-anchor="middle" x="43" y="-589.5" font-family="Helvetica,sans-Serif" font-size="10.00">hpp/core/fwd.hh</text>
</a>
</g>
</g>
<!-- Node7&#45;&gt;Node9 -->
<g id="edge8" class="edge"><title>Node7&#45;&gt;Node9</title>
<path fill="none" stroke="midnightblue" d="M265.359,-650.499C224.395,-640.644 155.192,-623.735 96,-608 91.6188,-606.835 87.0427,-605.588 82.4942,-604.328"/>
<polygon fill="midnightblue" stroke="midnightblue" points="83.2405,-600.902 72.6672,-601.577 81.3536,-607.643 83.2405,-600.902"/>
</g>
<!-- Node10 -->
<g id="node10" class="node"><title>Node10</title>
<g id="a_node10"><a doxygen="https://jmirabel.github.io/hpp-doc/api/hpp-fcl/doxygen-html/hpp-fcl.doxytag:https://jmirabel.github.io/hpp-doc/api/hpp-fcl/doxygen-html/" xlink:href="https://jmirabel.github.io/hpp-doc/api/hpp-fcl/doxygen-html/a00292.html" target="_top" xlink:title="hpp/fcl/shape/geometric\l_shapes.h">
<polygon fill="white" stroke="black" points="104.5,-577 104.5,-607 225.5,-607 225.5,-577 104.5,-577"/>
<text text-anchor="start" x="112.5" y="-595" font-family="Helvetica,sans-Serif" font-size="10.00">hpp/fcl/shape/geometric</text>
<text text-anchor="middle" x="165" y="-584" font-family="Helvetica,sans-Serif" font-size="10.00">_shapes.h</text>
</a>
</g>
</g>
<!-- Node7&#45;&gt;Node10 -->
<g id="edge9" class="edge"><title>Node7&#45;&gt;Node10</title>
<path fill="none" stroke="midnightblue" d="M283.22,-650.372C263.021,-640.569 229.463,-624.283 203.251,-611.563"/>
<polygon fill="midnightblue" stroke="midnightblue" points="204.489,-608.273 193.964,-607.056 201.433,-614.571 204.489,-608.273"/>
</g>
<!-- Node11 -->
<g id="node11" class="node"><title>Node11</title>
<g id="a_node11"><a doxygen="https://jmirabel.github.io/hpp-doc/api/hpp-fcl/doxygen-html/hpp-fcl.doxytag:https://jmirabel.github.io/hpp-doc/api/hpp-fcl/doxygen-html/" xlink:href="https://jmirabel.github.io/hpp-doc/api/hpp-fcl/doxygen-html/a00280.html" target="_top" xlink:title="hpp/fcl/collision_object.h">
<polygon fill="white" stroke="black" points="193,-520.5 193,-539.5 317,-539.5 317,-520.5 193,-520.5"/>
<text text-anchor="middle" x="255" y="-527.5" font-family="Helvetica,sans-Serif" font-size="10.00">hpp/fcl/collision_object.h</text>
</a>
</g>
</g>
<!-- Node10&#45;&gt;Node11 -->
<g id="edge10" class="edge"><title>Node10&#45;&gt;Node11</title>
<path fill="none" stroke="midnightblue" d="M186.329,-576.781C200.571,-567.286 219.235,-554.843 233.51,-545.327"/>
<polygon fill="midnightblue" stroke="midnightblue" points="235.787,-548.015 242.166,-539.556 231.904,-542.191 235.787,-548.015"/>
</g>
<!-- Node14 -->
<g id="node14" class="node"><title>Node14</title>
<g id="a_node14"><a doxygen="https://jmirabel.github.io/hpp-doc/api/hpp-fcl/doxygen-html/hpp-fcl.doxytag:https://jmirabel.github.io/hpp-doc/api/hpp-fcl/doxygen-html/" xlink:href="https://jmirabel.github.io/hpp-doc/api/hpp-fcl/doxygen-html/a00356.html" target="_top" xlink:title="hpp/fcl/math/vec_3f.h">
<polygon fill="white" stroke="black" points="316.5,-124.5 316.5,-143.5 427.5,-143.5 427.5,-124.5 316.5,-124.5"/>
<text text-anchor="middle" x="372" y="-131.5" font-family="Helvetica,sans-Serif" font-size="10.00">hpp/fcl/math/vec_3f.h</text>
</a>
</g>
</g>
<!-- Node10&#45;&gt;Node14 -->
<g id="edge45" class="edge"><title>Node10&#45;&gt;Node14</title>
<path fill="none" stroke="midnightblue" d="M145.026,-576.972C118.511,-556.531 75,-515.85 75,-469 75,-469 75,-469 75,-263 75,-162.949 218.902,-140.165 306.373,-135.558"/>
<polygon fill="midnightblue" stroke="midnightblue" points="306.657,-139.049 316.485,-135.093 306.335,-132.056 306.657,-139.049"/>
</g>
<!-- Node12 -->
<g id="node12" class="node"><title>Node12</title>
<g id="a_node12"><a doxygen="https://jmirabel.github.io/hpp-doc/api/hpp-fcl/doxygen-html/hpp-fcl.doxytag:https://jmirabel.github.io/hpp-doc/api/hpp-fcl/doxygen-html/" xlink:href="https://jmirabel.github.io/hpp-doc/api/hpp-fcl/doxygen-html/a00284.html" target="_top" xlink:title="hpp/fcl/deprecated.h">
<polygon fill="white" stroke="black" points="360.5,-458.5 360.5,-477.5 465.5,-477.5 465.5,-458.5 360.5,-458.5"/>
<text text-anchor="middle" x="413" y="-465.5" font-family="Helvetica,sans-Serif" font-size="10.00">hpp/fcl/deprecated.h</text>
</a>
</g>
</g>
<!-- Node11&#45;&gt;Node12 -->
<g id="edge11" class="edge"><title>Node11&#45;&gt;Node12</title>
<path fill="none" stroke="midnightblue" d="M277.638,-520.403C304.74,-510.111 350.31,-492.806 381.004,-481.15"/>
<polygon fill="midnightblue" stroke="midnightblue" points="382.298,-484.403 390.404,-477.581 379.813,-477.859 382.298,-484.403"/>
</g>
<!-- Node13 -->
<g id="node13" class="node"><title>Node13</title>
<g id="a_node13"><a doxygen="https://jmirabel.github.io/hpp-doc/api/hpp-fcl/doxygen-html/hpp-fcl.doxytag:https://jmirabel.github.io/hpp-doc/api/hpp-fcl/doxygen-html/" xlink:href="https://jmirabel.github.io/hpp-doc/api/hpp-fcl/doxygen-html/a00257.html" target="_top" xlink:title="hpp/fcl/BV/AABB.h">
<polygon fill="white" stroke="black" points="569.5,-390.5 569.5,-409.5 670.5,-409.5 670.5,-390.5 569.5,-390.5"/>
<text text-anchor="middle" x="620" y="-397.5" font-family="Helvetica,sans-Serif" font-size="10.00">hpp/fcl/BV/AABB.h</text>
</a>
</g>
</g>
<!-- Node11&#45;&gt;Node13 -->
<g id="edge12" class="edge"><title>Node11&#45;&gt;Node13</title>
<path fill="none" stroke="midnightblue" d="M265.976,-520.434C277.489,-511.425 296.089,-496.807 312,-484 329.466,-469.942 330.688,-461.494 351,-452 417.99,-420.688 502.899,-408.598 559.21,-403.932"/>
<polygon fill="midnightblue" stroke="midnightblue" points="559.682,-407.406 569.381,-403.144 559.141,-400.427 559.682,-407.406"/>
</g>
<!-- Node19 -->
<g id="node19" class="node"><title>Node19</title>
<g id="a_node19"><a doxygen="https://jmirabel.github.io/hpp-doc/api/hpp-fcl/doxygen-html/hpp-fcl.doxytag:https://jmirabel.github.io/hpp-doc/api/hpp-fcl/doxygen-html/" xlink:href="https://jmirabel.github.io/hpp-doc/api/hpp-fcl/doxygen-html/a00348.html" target="_top" xlink:title="hpp/fcl/math/transform.h">
<polygon fill="white" stroke="black" points="103.5,-390.5 103.5,-409.5 226.5,-409.5 226.5,-390.5 103.5,-390.5"/>
<text text-anchor="middle" x="165" y="-397.5" font-family="Helvetica,sans-Serif" font-size="10.00">hpp/fcl/math/transform.h</text>
</a>
</g>
</g>
<!-- Node11&#45;&gt;Node19 -->
<g id="edge19" class="edge"><title>Node11&#45;&gt;Node19</title>
<path fill="none" stroke="midnightblue" d="M240.092,-520.362C227.399,-512.349 209.452,-499.366 198,-484 183.343,-464.333 174.2,-437.284 169.353,-419.482"/>
<polygon fill="midnightblue" stroke="midnightblue" points="172.733,-418.573 166.879,-409.742 165.949,-420.296 172.733,-418.573"/>
</g>
<!-- Node21 -->
<g id="node21" class="node"><title>Node21</title>
<g id="a_node21"><a doxygen="https://jmirabel.github.io/hpp-doc/api/hpp-fcl/doxygen-html/hpp-fcl.doxytag:https://jmirabel.github.io/hpp-doc/api/hpp-fcl/doxygen-html/" xlink:href="https://jmirabel.github.io/hpp-doc/api/hpp-fcl/doxygen-html/a00325.html" target="_top" xlink:title="hpp/fcl/ccd/motion\l_base.h">
<polygon fill="white" stroke="black" points="206.5,-453 206.5,-483 303.5,-483 303.5,-453 206.5,-453"/>
<text text-anchor="start" x="214.5" y="-471" font-family="Helvetica,sans-Serif" font-size="10.00">hpp/fcl/ccd/motion</text>
<text text-anchor="middle" x="255" y="-460" font-family="Helvetica,sans-Serif" font-size="10.00">_base.h</text>
</a>
</g>
</g>
<!-- Node11&#45;&gt;Node21 -->
<g id="edge22" class="edge"><title>Node11&#45;&gt;Node21</title>
<path fill="none" stroke="midnightblue" d="M255,-520.403C255,-513.341 255,-502.975 255,-493.399"/>
<polygon fill="midnightblue" stroke="midnightblue" points="258.5,-493.141 255,-483.141 251.5,-493.141 258.5,-493.141"/>
</g>
<!-- Node13&#45;&gt;Node14 -->
<g id="edge13" class="edge"><title>Node13&#45;&gt;Node14</title>
<path fill="none" stroke="midnightblue" d="M629.316,-390.263C648.056,-371.969 689.814,-327.388 705,-280 718.981,-236.373 715.571,-208.87 680,-180 643.909,-150.708 517.244,-140.463 438.03,-136.894"/>
<polygon fill="midnightblue" stroke="midnightblue" points="437.799,-133.381 427.659,-136.453 437.501,-140.375 437.799,-133.381"/>
</g>
<!-- Node15 -->
<g id="node15" class="node"><title>Node15</title>
<g id="a_node15"><a doxygen="https://jmirabel.github.io/hpp-doc/api/hpp-fcl/doxygen-html/hpp-fcl.doxytag:https://jmirabel.github.io/hpp-doc/api/hpp-fcl/doxygen-html/" xlink:href="https://jmirabel.github.io/hpp-doc/api/hpp-fcl/doxygen-html/a00283.html" target="_top" xlink:title="hpp/fcl/data_types.h">
<polygon fill="white" stroke="black" points="491.5,-0.5 491.5,-19.5 596.5,-19.5 596.5,-0.5 491.5,-0.5"/>
<text text-anchor="middle" x="544" y="-7.5" font-family="Helvetica,sans-Serif" font-size="10.00">hpp/fcl/data_types.h</text>
</a>
</g>
</g>
<!-- Node14&#45;&gt;Node15 -->
<g id="edge14" class="edge"><title>Node14&#45;&gt;Node15</title>
<path fill="none" stroke="midnightblue" d="M414.33,-124.495C439.49,-117.811 470.895,-106.46 494,-88 513.696,-72.2628 528.141,-46.5776 536.305,-29.245"/>
<polygon fill="midnightblue" stroke="midnightblue" points="539.687,-30.2543 540.567,-19.696 533.295,-27.4012 539.687,-30.2543"/>
</g>
<!-- Node16 -->
<g id="node16" class="node"><title>Node16</title>
<g id="a_node16"><a doxygen="https://jmirabel.github.io/hpp-doc/api/hpp-fcl/doxygen-html/hpp-fcl.doxytag:https://jmirabel.github.io/hpp-doc/api/hpp-fcl/doxygen-html/" xlink:href="https://jmirabel.github.io/hpp-doc/api/hpp-fcl/doxygen-html/a00316.html" target="_top" xlink:title="hpp/fcl/eigen/math\l_details.h">
<polygon fill="white" stroke="black" points="251.5,-57 251.5,-87 348.5,-87 348.5,-57 251.5,-57"/>
<text text-anchor="start" x="259.5" y="-75" font-family="Helvetica,sans-Serif" font-size="10.00">hpp/fcl/eigen/math</text>
<text text-anchor="middle" x="300" y="-64" font-family="Helvetica,sans-Serif" font-size="10.00">_details.h</text>
</a>
</g>
</g>
<!-- Node14&#45;&gt;Node16 -->
<g id="edge15" class="edge"><title>Node14&#45;&gt;Node16</title>
<path fill="none" stroke="midnightblue" d="M361.684,-124.403C352.115,-116.429 337.494,-104.245 324.888,-93.7403"/>
<polygon fill="midnightblue" stroke="midnightblue" points="326.892,-90.8539 316.969,-87.1408 322.411,-96.2315 326.892,-90.8539"/>
</g>
<!-- Node17 -->
<g id="node17" class="node"><title>Node17</title>
<g id="a_node17"><a doxygen="https://jmirabel.github.io/hpp-doc/api/hpp-fcl/doxygen-html/hpp-fcl.doxytag:https://jmirabel.github.io/hpp-doc/api/hpp-fcl/doxygen-html/" xlink:href="https://jmirabel.github.io/hpp-doc/api/hpp-fcl/doxygen-html/a00357.html" target="_top" xlink:title="hpp/fcl/eigen/vec_3fx.h">
<polygon fill="white" stroke="black" points="367,-62.5 367,-81.5 485,-81.5 485,-62.5 367,-62.5"/>
<text text-anchor="middle" x="426" y="-69.5" font-family="Helvetica,sans-Serif" font-size="10.00">hpp/fcl/eigen/vec_3fx.h</text>
</a>
</g>
</g>
<!-- Node14&#45;&gt;Node17 -->
<g id="edge16" class="edge"><title>Node14&#45;&gt;Node17</title>
<path fill="none" stroke="midnightblue" d="M379.737,-124.403C387.997,-115.225 401.277,-100.47 411.494,-89.1173"/>
<polygon fill="midnightblue" stroke="midnightblue" points="414.189,-91.3549 418.277,-81.5806 408.986,-86.6722 414.189,-91.3549"/>
</g>
<!-- Node17&#45;&gt;Node15 -->
<g id="edge17" class="edge"><title>Node17&#45;&gt;Node15</title>
<path fill="none" stroke="midnightblue" d="M442.907,-62.4035C462.534,-52.4232 495.131,-35.8487 517.99,-24.2253"/>
<polygon fill="midnightblue" stroke="midnightblue" points="519.797,-27.233 527.125,-19.5806 516.625,-20.9933 519.797,-27.233"/>
</g>
<!-- Node18 -->
<g id="node18" class="node"><title>Node18</title>
<g id="a_node18"><a doxygen="https://jmirabel.github.io/hpp-doc/api/hpp-fcl/doxygen-html/hpp-fcl.doxytag:https://jmirabel.github.io/hpp-doc/api/hpp-fcl/doxygen-html/" xlink:href="https://jmirabel.github.io/hpp-doc/api/hpp-fcl/doxygen-html/a00336.html" target="_top" xlink:title="hpp/fcl/eigen/product.h">
<polygon fill="white" stroke="black" points="357,-0.5 357,-19.5 473,-19.5 473,-0.5 357,-0.5"/>
<text text-anchor="middle" x="415" y="-7.5" font-family="Helvetica,sans-Serif" font-size="10.00">hpp/fcl/eigen/product.h</text>
</a>
</g>
</g>
<!-- Node17&#45;&gt;Node18 -->
<g id="edge18" class="edge"><title>Node17&#45;&gt;Node18</title>
<path fill="none" stroke="midnightblue" d="M424.424,-62.4035C422.856,-53.849 420.399,-40.4497 418.387,-29.4762"/>
<polygon fill="midnightblue" stroke="midnightblue" points="421.819,-28.7855 416.573,-19.5806 414.934,-30.0478 421.819,-28.7855"/>
</g>
<!-- Node20 -->
<g id="node20" class="node"><title>Node20</title>
<g id="a_node20"><a doxygen="https://jmirabel.github.io/hpp-doc/api/hpp-fcl/doxygen-html/hpp-fcl.doxytag:https://jmirabel.github.io/hpp-doc/api/hpp-fcl/doxygen-html/" xlink:href="https://jmirabel.github.io/hpp-doc/api/hpp-fcl/doxygen-html/a00319.html" target="_top" xlink:title="hpp/fcl/math/matrix_3f.h">
<polygon fill="white" stroke="black" points="210,-186.5 210,-205.5 332,-205.5 332,-186.5 210,-186.5"/>
<text text-anchor="middle" x="271" y="-193.5" font-family="Helvetica,sans-Serif" font-size="10.00">hpp/fcl/math/matrix_3f.h</text>
</a>
</g>
</g>
<!-- Node19&#45;&gt;Node20 -->
<g id="edge20" class="edge"><title>Node19&#45;&gt;Node20</title>
<path fill="none" stroke="midnightblue" d="M169.555,-390.32C185.589,-359.764 239.64,-256.761 261.604,-214.906"/>
<polygon fill="midnightblue" stroke="midnightblue" points="264.795,-216.356 266.343,-205.875 258.597,-213.103 264.795,-216.356"/>
</g>
<!-- Node20&#45;&gt;Node14 -->
<g id="edge21" class="edge"><title>Node20&#45;&gt;Node14</title>
<path fill="none" stroke="midnightblue" d="M285.471,-186.403C302.046,-176.557 329.426,-160.291 348.947,-148.695"/>
<polygon fill="midnightblue" stroke="midnightblue" points="350.746,-151.697 357.556,-143.581 347.171,-145.679 350.746,-151.697"/>
</g>
<!-- Node21&#45;&gt;Node19 -->
<g id="edge23" class="edge"><title>Node21&#45;&gt;Node19</title>
<path fill="none" stroke="midnightblue" d="M235.471,-452.679C220.518,-441.713 199.97,-426.645 184.921,-415.609"/>
<polygon fill="midnightblue" stroke="midnightblue" points="186.913,-412.729 176.779,-409.638 182.773,-418.374 186.913,-412.729"/>
</g>
<!-- Node22 -->
<g id="node22" class="node"><title>Node22</title>
<g id="a_node22"><a doxygen="https://jmirabel.github.io/hpp-doc/api/hpp-fcl/doxygen-html/hpp-fcl.doxytag:https://jmirabel.github.io/hpp-doc/api/hpp-fcl/doxygen-html/" xlink:href="https://jmirabel.github.io/hpp-doc/api/hpp-fcl/doxygen-html/a00343.html" target="_top" xlink:title="hpp/fcl/ccd/taylor\l_matrix.h">
<polygon fill="white" stroke="black" points="290,-385 290,-415 382,-415 382,-385 290,-385"/>
<text text-anchor="start" x="298" y="-403" font-family="Helvetica,sans-Serif" font-size="10.00">hpp/fcl/ccd/taylor</text>
<text text-anchor="middle" x="336" y="-392" font-family="Helvetica,sans-Serif" font-size="10.00">_matrix.h</text>
</a>
</g>
</g>
<!-- Node21&#45;&gt;Node22 -->
<g id="edge24" class="edge"><title>Node21&#45;&gt;Node22</title>
<path fill="none" stroke="midnightblue" d="M272.576,-452.679C283.797,-443.536 298.52,-431.54 310.955,-421.407"/>
<polygon fill="midnightblue" stroke="midnightblue" points="313.195,-424.096 318.737,-415.066 308.774,-418.67 313.195,-424.096"/>
</g>
<!-- Node23 -->
<g id="node23" class="node"><title>Node23</title>
<g id="a_node23"><a doxygen="https://jmirabel.github.io/hpp-doc/api/hpp-fcl/doxygen-html/hpp-fcl.doxytag:https://jmirabel.github.io/hpp-doc/api/hpp-fcl/doxygen-html/" xlink:href="https://jmirabel.github.io/hpp-doc/api/hpp-fcl/doxygen-html/a00346.html" target="_top" xlink:title="hpp/fcl/ccd/taylor\l_vector.h">
<polygon fill="white" stroke="black" points="411,-317 411,-347 503,-347 503,-317 411,-317"/>
<text text-anchor="start" x="419" y="-335" font-family="Helvetica,sans-Serif" font-size="10.00">hpp/fcl/ccd/taylor</text>
<text text-anchor="middle" x="457" y="-324" font-family="Helvetica,sans-Serif" font-size="10.00">_vector.h</text>
</a>
</g>
</g>
<!-- Node21&#45;&gt;Node23 -->
<g id="edge41" class="edge"><title>Node21&#45;&gt;Node23</title>
<path fill="none" stroke="midnightblue" d="M303.746,-455.646C331.163,-447.637 365,-434.913 391,-416 413.161,-399.88 431.865,-374.445 443.639,-355.977"/>
<polygon fill="midnightblue" stroke="midnightblue" points="446.725,-357.64 448.997,-347.292 440.768,-353.965 446.725,-357.64"/>
</g>
<!-- Node30 -->
<g id="node30" class="node"><title>Node30</title>
<g id="a_node30"><a doxygen="https://jmirabel.github.io/hpp-doc/api/hpp-fcl/doxygen-html/hpp-fcl.doxytag:https://jmirabel.github.io/hpp-doc/api/hpp-fcl/doxygen-html/" xlink:href="https://jmirabel.github.io/hpp-doc/api/hpp-fcl/doxygen-html/a00338.html" target="_top" xlink:title="hpp/fcl/BV/RSS.h">
<polygon fill="white" stroke="black" points="103.5,-254.5 103.5,-273.5 198.5,-273.5 198.5,-254.5 103.5,-254.5"/>
<text text-anchor="middle" x="151" y="-261.5" font-family="Helvetica,sans-Serif" font-size="10.00">hpp/fcl/BV/RSS.h</text>
</a>
</g>
</g>
<!-- Node21&#45;&gt;Node30 -->
<g id="edge42" class="edge"><title>Node21&#45;&gt;Node30</title>
<path fill="none" stroke="midnightblue" d="M253.267,-452.963C250.809,-436.021 245.402,-406.95 235,-384 216.752,-343.739 184.261,-302.979 165.485,-281.171"/>
<polygon fill="midnightblue" stroke="midnightblue" points="168.019,-278.752 158.798,-273.534 162.753,-283.364 168.019,-278.752"/>
</g>
<!-- Node22&#45;&gt;Node20 -->
<g id="edge25" class="edge"><title>Node22&#45;&gt;Node20</title>
<path fill="none" stroke="midnightblue" d="M315.703,-384.904C304.309,-375.789 291.009,-362.869 284,-348 263.399,-304.296 265.663,-245.599 268.59,-215.904"/>
<polygon fill="midnightblue" stroke="midnightblue" points="272.096,-216.043 269.738,-205.714 265.14,-215.259 272.096,-216.043"/>
</g>
<!-- Node22&#45;&gt;Node23 -->
<g id="edge26" class="edge"><title>Node22&#45;&gt;Node23</title>
<path fill="none" stroke="midnightblue" d="M361.958,-384.841C379.502,-375.272 402.875,-362.523 422.052,-352.062"/>
<polygon fill="midnightblue" stroke="midnightblue" points="423.982,-354.996 431.085,-347.135 420.63,-348.851 423.982,-354.996"/>
</g>
<!-- Node29 -->
<g id="node29" class="node"><title>Node29</title>
<g id="a_node29"><a doxygen="https://jmirabel.github.io/hpp-doc/api/hpp-fcl/doxygen-html/hpp-fcl.doxytag:https://jmirabel.github.io/hpp-doc/api/hpp-fcl/doxygen-html/" xlink:href="https://jmirabel.github.io/hpp-doc/api/hpp-fcl/doxygen-html/a00307.html" target="_top" xlink:title="hpp/fcl/ccd/interval\l_matrix.h">
<polygon fill="white" stroke="black" points="293.5,-317 293.5,-347 392.5,-347 392.5,-317 293.5,-317"/>
<text text-anchor="start" x="301.5" y="-335" font-family="Helvetica,sans-Serif" font-size="10.00">hpp/fcl/ccd/interval</text>
<text text-anchor="middle" x="343" y="-324" font-family="Helvetica,sans-Serif" font-size="10.00">_matrix.h</text>
</a>
</g>
</g>
<!-- Node22&#45;&gt;Node29 -->
<g id="edge37" class="edge"><title>Node22&#45;&gt;Node29</title>
<path fill="none" stroke="midnightblue" d="M337.519,-384.679C338.363,-376.722 339.436,-366.605 340.408,-357.436"/>
<polygon fill="midnightblue" stroke="midnightblue" points="343.91,-357.606 341.484,-347.293 336.949,-356.868 343.91,-357.606"/>
</g>
<!-- Node24 -->
<g id="node24" class="node"><title>Node24</title>
<g id="a_node24"><a doxygen="https://jmirabel.github.io/hpp-doc/api/hpp-fcl/doxygen-html/hpp-fcl.doxytag:https://jmirabel.github.io/hpp-doc/api/hpp-fcl/doxygen-html/" xlink:href="https://jmirabel.github.io/hpp-doc/api/hpp-fcl/doxygen-html/a00309.html" target="_top" xlink:title="hpp/fcl/ccd/interval\l_vector.h">
<polygon fill="white" stroke="black" points="448.5,-249 448.5,-279 547.5,-279 547.5,-249 448.5,-249"/>
<text text-anchor="start" x="456.5" y="-267" font-family="Helvetica,sans-Serif" font-size="10.00">hpp/fcl/ccd/interval</text>
<text text-anchor="middle" x="498" y="-256" font-family="Helvetica,sans-Serif" font-size="10.00">_vector.h</text>
</a>
</g>
</g>
<!-- Node23&#45;&gt;Node24 -->
<g id="edge27" class="edge"><title>Node23&#45;&gt;Node24</title>
<path fill="none" stroke="midnightblue" d="M465.896,-316.679C471.108,-308.29 477.811,-297.499 483.744,-287.949"/>
<polygon fill="midnightblue" stroke="midnightblue" points="486.817,-289.634 489.121,-279.293 480.871,-285.941 486.817,-289.634"/>
</g>
<!-- Node27 -->
<g id="node27" class="node"><title>Node27</title>
<g id="a_node27"><a doxygen="https://jmirabel.github.io/hpp-doc/api/hpp-fcl/doxygen-html/hpp-fcl.doxytag:https://jmirabel.github.io/hpp-doc/api/hpp-fcl/doxygen-html/" xlink:href="https://jmirabel.github.io/hpp-doc/api/hpp-fcl/doxygen-html/a00344.html" target="_top" xlink:title="hpp/fcl/ccd/taylor\l_model.h">
<polygon fill="white" stroke="black" points="604,-249 604,-279 696,-279 696,-249 604,-249"/>
<text text-anchor="start" x="612" y="-267" font-family="Helvetica,sans-Serif" font-size="10.00">hpp/fcl/ccd/taylor</text>
<text text-anchor="middle" x="650" y="-256" font-family="Helvetica,sans-Serif" font-size="10.00">_model.h</text>
</a>
</g>
</g>
<!-- Node23&#45;&gt;Node27 -->
<g id="edge32" class="edge"><title>Node23&#45;&gt;Node27</title>
<path fill="none" stroke="midnightblue" d="M498.403,-316.841C528.015,-306.715 568.035,-293.03 599.52,-282.262"/>
<polygon fill="midnightblue" stroke="midnightblue" points="600.667,-285.569 608.997,-279.022 598.402,-278.946 600.667,-285.569"/>
</g>
<!-- Node28 -->
<g id="node28" class="node"><title>Node28</title>
<g id="a_node28"><a doxygen="https://jmirabel.github.io/hpp-doc/api/hpp-fcl/doxygen-html/hpp-fcl.doxytag:https://jmirabel.github.io/hpp-doc/api/hpp-fcl/doxygen-html/" xlink:href="https://jmirabel.github.io/hpp-doc/api/hpp-fcl/doxygen-html/a00345.html" target="_top" xlink:title="hpp/fcl/eigen/taylor\l_operator.h">
<polygon fill="white" stroke="black" points="331.5,-249 331.5,-279 430.5,-279 430.5,-249 331.5,-249"/>
<text text-anchor="start" x="339.5" y="-267" font-family="Helvetica,sans-Serif" font-size="10.00">hpp/fcl/eigen/taylor</text>
<text text-anchor="middle" x="381" y="-256" font-family="Helvetica,sans-Serif" font-size="10.00">_operator.h</text>
</a>
</g>
</g>
<!-- Node23&#45;&gt;Node28 -->
<g id="edge34" class="edge"><title>Node23&#45;&gt;Node28</title>
<path fill="none" stroke="midnightblue" d="M440.509,-316.679C430.081,-307.623 416.43,-295.768 404.833,-285.697"/>
<polygon fill="midnightblue" stroke="midnightblue" points="407.043,-282.981 397.198,-279.066 402.453,-288.266 407.043,-282.981"/>
</g>
<!-- Node24&#45;&gt;Node14 -->
<g id="edge30" class="edge"><title>Node24&#45;&gt;Node14</title>
<path fill="none" stroke="midnightblue" d="M475.544,-248.905C461.363,-239.421 443.12,-226.109 429,-212 410.51,-193.524 393.241,-168.714 382.661,-152.31"/>
<polygon fill="midnightblue" stroke="midnightblue" points="385.545,-150.321 377.247,-143.734 379.626,-154.058 385.545,-150.321"/>
</g>
<!-- Node25 -->
<g id="node25" class="node"><title>Node25</title>
<g id="a_node25"><a doxygen="https://jmirabel.github.io/hpp-doc/api/hpp-fcl/doxygen-html/hpp-fcl.doxytag:https://jmirabel.github.io/hpp-doc/api/hpp-fcl/doxygen-html/" xlink:href="https://jmirabel.github.io/hpp-doc/api/hpp-fcl/doxygen-html/a00306.html" target="_top" xlink:title="hpp/fcl/ccd/interval.h">
<polygon fill="white" stroke="black" points="564.5,-186.5 564.5,-205.5 671.5,-205.5 671.5,-186.5 564.5,-186.5"/>
<text text-anchor="middle" x="618" y="-193.5" font-family="Helvetica,sans-Serif" font-size="10.00">hpp/fcl/ccd/interval.h</text>
</a>
</g>
</g>
<!-- Node24&#45;&gt;Node25 -->
<g id="edge28" class="edge"><title>Node24&#45;&gt;Node25</title>
<path fill="none" stroke="midnightblue" d="M523.743,-248.841C544.313,-237.528 572.962,-221.771 593.263,-210.605"/>
<polygon fill="midnightblue" stroke="midnightblue" points="595.139,-213.568 602.215,-205.682 591.766,-207.434 595.139,-213.568"/>
</g>
<!-- Node26 -->
<g id="node26" class="node"><title>Node26</title>
<g id="a_node26"><a doxygen="https://jmirabel.github.io/hpp-doc/api/hpp-fcl/doxygen-html/hpp-fcl.doxytag:https://jmirabel.github.io/hpp-doc/api/hpp-fcl/doxygen-html/" xlink:href="https://jmirabel.github.io/hpp-doc/api/hpp-fcl/doxygen-html/a00305.html" target="_top" xlink:title="hpp/fcl/eigen/plugins\l/ccd/interval&#45;vector.h">
<polygon fill="white" stroke="black" points="438,-181 438,-211 546,-211 546,-181 438,-181"/>
<text text-anchor="start" x="446" y="-199" font-family="Helvetica,sans-Serif" font-size="10.00">hpp/fcl/eigen/plugins</text>
<text text-anchor="middle" x="492" y="-188" font-family="Helvetica,sans-Serif" font-size="10.00">/ccd/interval&#45;vector.h</text>
</a>
</g>
</g>
<!-- Node24&#45;&gt;Node26 -->
<g id="edge31" class="edge"><title>Node24&#45;&gt;Node26</title>
<path fill="none" stroke="midnightblue" d="M496.698,-248.679C495.975,-240.722 495.055,-230.605 494.221,-221.436"/>
<polygon fill="midnightblue" stroke="midnightblue" points="497.69,-220.935 493.299,-211.293 490.719,-221.569 497.69,-220.935"/>
</g>
<!-- Node25&#45;&gt;Node15 -->
<g id="edge29" class="edge"><title>Node25&#45;&gt;Node15</title>
<path fill="none" stroke="midnightblue" d="M614.431,-186.125C602.978,-157.647 566.991,-68.1662 551.364,-29.3099"/>
<polygon fill="midnightblue" stroke="midnightblue" points="554.512,-27.7575 547.533,-19.7857 548.017,-30.3694 554.512,-27.7575"/>
</g>
<!-- Node27&#45;&gt;Node25 -->
<g id="edge33" class="edge"><title>Node27&#45;&gt;Node25</title>
<path fill="none" stroke="midnightblue" d="M643.056,-248.679C638.265,-238.796 631.857,-225.579 626.721,-214.986"/>
<polygon fill="midnightblue" stroke="midnightblue" points="629.793,-213.299 622.28,-205.828 623.494,-216.353 629.793,-213.299"/>
</g>
<!-- Node28&#45;&gt;Node14 -->
<g id="edge35" class="edge"><title>Node28&#45;&gt;Node14</title>
<path fill="none" stroke="midnightblue" d="M380.002,-248.813C378.368,-225.566 375.12,-179.371 373.305,-153.556"/>
<polygon fill="midnightblue" stroke="midnightblue" points="376.796,-153.304 372.603,-143.574 369.813,-153.795 376.796,-153.304"/>
</g>
<!-- Node28&#45;&gt;Node20 -->
<g id="edge36" class="edge"><title>Node28&#45;&gt;Node20</title>
<path fill="none" stroke="midnightblue" d="M357.402,-248.841C338.717,-237.63 312.759,-222.056 294.183,-210.91"/>
<polygon fill="midnightblue" stroke="midnightblue" points="295.845,-207.826 285.47,-205.682 292.244,-213.828 295.845,-207.826"/>
</g>
<!-- Node29&#45;&gt;Node20 -->
<g id="edge40" class="edge"><title>Node29&#45;&gt;Node20</title>
<path fill="none" stroke="midnightblue" d="M335.295,-316.66C322.042,-291.994 294.967,-241.606 280.543,-214.761"/>
<polygon fill="midnightblue" stroke="midnightblue" points="283.506,-212.88 275.689,-205.728 277.339,-216.193 283.506,-212.88"/>
</g>
<!-- Node29&#45;&gt;Node24 -->
<g id="edge39" class="edge"><title>Node29&#45;&gt;Node24</title>
<path fill="none" stroke="midnightblue" d="M376.251,-316.841C399.52,-306.933 430.792,-293.618 455.815,-282.963"/>
<polygon fill="midnightblue" stroke="midnightblue" points="457.241,-286.16 465.07,-279.022 454.498,-279.719 457.241,-286.16"/>
</g>
<!-- Node29&#45;&gt;Node25 -->
<g id="edge38" class="edge"><title>Node29&#45;&gt;Node25</title>
<path fill="none" stroke="midnightblue" d="M392.557,-318.327C395.751,-317.533 398.92,-316.752 402,-316 470.287,-299.34 497.184,-318.487 556,-280 580.877,-263.721 599.477,-233.862 609.534,-214.745"/>
<polygon fill="midnightblue" stroke="midnightblue" points="612.756,-216.128 614.116,-205.621 606.501,-212.987 612.756,-216.128"/>
</g>
<!-- Node30&#45;&gt;Node14 -->
<g id="edge43" class="edge"><title>Node30&#45;&gt;Node14</title>
<path fill="none" stroke="midnightblue" d="M153.692,-254.458C159.478,-237.531 174.747,-199.668 201,-180 231.299,-157.301 272.091,-146.029 306.233,-140.441"/>
<polygon fill="midnightblue" stroke="midnightblue" points="306.768,-143.901 316.134,-138.948 305.723,-136.979 306.768,-143.901"/>
</g>
<!-- Node30&#45;&gt;Node20 -->
<g id="edge44" class="edge"><title>Node30&#45;&gt;Node20</title>
<path fill="none" stroke="midnightblue" d="M166.688,-254.372C186.991,-243.205 222.588,-223.627 246.477,-210.488"/>
<polygon fill="midnightblue" stroke="midnightblue" points="248.233,-213.516 255.308,-205.63 244.859,-207.383 248.233,-213.516"/>
</g>
<!-- Node32 -->
<g id="node32" class="node"><title>Node32</title>
<polygon fill="white" stroke="#bfbfbf" points="879,-582.5 879,-601.5 973,-601.5 973,-582.5 879,-582.5"/>
<text text-anchor="middle" x="926" y="-589.5" font-family="Helvetica,sans-Serif" font-size="10.00">hpp/util/pointer.hh</text>
</g>
<!-- Node31&#45;&gt;Node32 -->
<g id="edge48" class="edge"><title>Node31&#45;&gt;Node32</title>
<path fill="none" stroke="midnightblue" d="M926,-644.679C926,-635.101 926,-622.394 926,-611.977"/>
<polygon fill="midnightblue" stroke="midnightblue" points="929.5,-611.828 926,-601.828 922.5,-611.828 929.5,-611.828"/>
</g>
<!-- Node33 -->
<g id="node33" class="node"><title>Node33</title>
<g id="a_node33"><a doxygen="https://jmirabel.github.io/hpp-doc/api/hpp-statistics/doxygen-html/hpp-statistics.doxytag:https://jmirabel.github.io/hpp-doc/api/hpp-statistics/doxygen-html/" xlink:href="https://jmirabel.github.io/hpp-doc/api/hpp-statistics/doxygen-html/a00010.html" target="_top" xlink:title="hpp/statistics/distribution.hh">
<polygon fill="white" stroke="black" points="991.5,-582.5 991.5,-601.5 1130.5,-601.5 1130.5,-582.5 991.5,-582.5"/>
<text text-anchor="middle" x="1061" y="-589.5" font-family="Helvetica,sans-Serif" font-size="10.00">hpp/statistics/distribution.hh</text>
</a>
</g>
</g>
<!-- Node31&#45;&gt;Node33 -->
<g id="edge49" class="edge"><title>Node31&#45;&gt;Node33</title>
<path fill="none" stroke="midnightblue" d="M954.961,-644.841C978.417,-633.374 1011.21,-617.342 1034.1,-606.153"/>
<polygon fill="midnightblue" stroke="midnightblue" points="1035.8,-609.218 1043.24,-601.682 1032.72,-602.93 1035.8,-609.218"/>
</g>
<!-- Node35 -->
<g id="node35" class="node"><title>Node35</title>
<polygon fill="white" stroke="#bfbfbf" points="817,-582.5 817,-601.5 861,-601.5 861,-582.5 817,-582.5"/>
<text text-anchor="middle" x="839" y="-589.5" font-family="Helvetica,sans-Serif" font-size="10.00">vector</text>
</g>
<!-- Node31&#45;&gt;Node35 -->
<g id="edge51" class="edge"><title>Node31&#45;&gt;Node35</title>
<path fill="none" stroke="midnightblue" d="M907.122,-644.679C892.886,-633.879 873.402,-619.098 858.918,-608.11"/>
<polygon fill="midnightblue" stroke="midnightblue" points="860.72,-605.084 850.637,-601.828 856.489,-610.661 860.72,-605.084"/>
</g>
<!-- Node34 -->
<g id="node34" class="node"><title>Node34</title>
<g id="a_node34"><a doxygen="https://jmirabel.github.io/hpp-doc/api/hpp-statistics/doxygen-html/hpp-statistics.doxytag:https://jmirabel.github.io/hpp-doc/api/hpp-statistics/doxygen-html/" xlink:href="https://jmirabel.github.io/hpp-doc/api/hpp-statistics/doxygen-html/a00011.html" target="_top" xlink:title="hpp/statistics/fwd.hh">
<polygon fill="white" stroke="black" points="1007.5,-520.5 1007.5,-539.5 1114.5,-539.5 1114.5,-520.5 1007.5,-520.5"/>
<text text-anchor="middle" x="1061" y="-527.5" font-family="Helvetica,sans-Serif" font-size="10.00">hpp/statistics/fwd.hh</text>
</a>
</g>
</g>
<!-- Node33&#45;&gt;Node34 -->
<g id="edge50" class="edge"><title>Node33&#45;&gt;Node34</title>
<path fill="none" stroke="midnightblue" d="M1061,-582.403C1061,-573.938 1061,-560.728 1061,-549.82"/>
<polygon fill="midnightblue" stroke="midnightblue" points="1064.5,-549.581 1061,-539.581 1057.5,-549.581 1064.5,-549.581"/>
</g>
<!-- Node36&#45;&gt;Node3 -->
<g id="edge53" class="edge"><title>Node36&#45;&gt;Node3</title>
<path fill="none" stroke="midnightblue" d="M510.877,-644.679C508.091,-634.999 504.384,-622.123 501.367,-611.645"/>
<polygon fill="midnightblue" stroke="midnightblue" points="504.671,-610.47 498.541,-601.828 497.945,-612.406 504.671,-610.47"/>
</g>
<!-- Node36&#45;&gt;Node8 -->
<g id="edge55" class="edge"><title>Node36&#45;&gt;Node8</title>
<path fill="none" stroke="midnightblue" d="M497.424,-644.679C484.294,-633.981 466.372,-619.377 452.927,-608.422"/>
<polygon fill="midnightblue" stroke="midnightblue" points="454.798,-605.432 444.835,-601.828 450.376,-610.858 454.798,-605.432"/>
</g>
<!-- Node37 -->
<g id="node37" class="node"><title>Node37</title>
<polygon fill="white" stroke="#bfbfbf" points="540,-582.5 540,-601.5 592,-601.5 592,-582.5 540,-582.5"/>
<text text-anchor="middle" x="566" y="-589.5" font-family="Helvetica,sans-Serif" font-size="10.00">sstream</text>
</g>
<!-- Node36&#45;&gt;Node37 -->
<g id="edge54" class="edge"><title>Node36&#45;&gt;Node37</title>
<path fill="none" stroke="midnightblue" d="M526.066,-644.679C533.94,-634.49 544.55,-620.759 552.855,-610.011"/>
<polygon fill="midnightblue" stroke="midnightblue" points="555.833,-611.881 559.178,-601.828 550.294,-607.601 555.833,-611.881"/>
</g>
<!-- Node38 -->
<g id="node38" class="node"><title>Node38</title>
<polygon fill="white" stroke="#bfbfbf" points="610.5,-582.5 610.5,-601.5 639.5,-601.5 639.5,-582.5 610.5,-582.5"/>
<text text-anchor="middle" x="625" y="-589.5" font-family="Helvetica,sans-Serif" font-size="10.00">list</text>
</g>
<!-- Node36&#45;&gt;Node38 -->
<g id="edge56" class="edge"><title>Node36&#45;&gt;Node38</title>
<path fill="none" stroke="midnightblue" d="M539.185,-644.86C556.469,-634.707 580.243,-620.639 601,-608 601.525,-607.681 602.055,-607.357 602.59,-607.029"/>
<polygon fill="midnightblue" stroke="midnightblue" points="604.666,-609.861 611.327,-601.622 600.982,-603.908 604.666,-609.861"/>
</g>
</g>
</svg>
