<?xml version="1.0" encoding="UTF-8" standalone="no"?>
<!DOCTYPE svg PUBLIC "-//W3C//DTD SVG 1.1//EN"
 "http://www.w3.org/Graphics/SVG/1.1/DTD/svg11.dtd">
<!-- Generated by graphviz version 2.36.0 (20140111.2315)
 -->
<!-- Title: hpp::manipulation::graph::FoliatedManifold Pages: 1 -->
<svg width="287pt" height="374pt"
 viewBox="0.00 0.00 287.00 374.00" xmlns="http://www.w3.org/2000/svg" xmlns:xlink="http://www.w3.org/1999/xlink">
<g id="graph0" class="graph" transform="scale(1 1) rotate(0) translate(4 370)">
<title>hpp::manipulation::graph::FoliatedManifold</title>
<polygon fill="white" stroke="none" points="-4,4 -4,-370 283,-370 283,4 -4,4"/>
<!-- Node1 -->
<g id="node1" class="node"><title>Node1</title>
<polygon fill="#bfbfbf" stroke="black" points="10,-1 10,-31 128,-31 128,-1 10,-1"/>
<text text-anchor="start" x="18" y="-19" font-family="Helvetica,sans-Serif" font-size="10.00">hpp::manipulation::</text>
<text text-anchor="middle" x="69" y="-8" font-family="Helvetica,sans-Serif" font-size="10.00">graph::FoliatedManifold</text>
</g>
<!-- Node2 -->
<g id="node2" class="node"><title>Node2</title>
<g id="a_node2"><a xlink:title="STL class. ">
<polygon fill="white" stroke="#bfbfbf" points="-0.5,-240.5 -0.5,-259.5 72.5,-259.5 72.5,-240.5 -0.5,-240.5"/>
<text text-anchor="middle" x="36" y="-247.5" font-family="Helvetica,sans-Serif" font-size="10.00">std::list&lt; T &gt;</text>
</a>
</g>
</g>
<!-- Node2&#45;&gt;Node1 -->
<g id="edge1" class="edge"><title>Node2&#45;&gt;Node1</title>
<path fill="none" stroke="#9a32cd" stroke-dasharray="5,2" d="M38.1903,-230.433C41.5306,-202.518 48.2269,-148.096 55,-102 58.6743,-76.9933 63.5987,-47.9597 66.5213,-31.1141"/>
<polygon fill="#9a32cd" stroke="#9a32cd" points="34.714,-230.027 37.0093,-240.37 41.6651,-230.853 34.714,-230.027"/>
<text text-anchor="middle" x="59" y="-176" font-family="Helvetica,sans-Serif" font-size="10.00"> lj_fol</text>
<text text-anchor="middle" x="59" y="-165" font-family="Helvetica,sans-Serif" font-size="10.00">lj</text>
</g>
<!-- Node3 -->
<g id="node3" class="node"><title>Node3</title>
<polygon fill="white" stroke="#bfbfbf" points="55.5,-346.5 55.5,-365.5 84.5,-365.5 84.5,-346.5 55.5,-346.5"/>
<text text-anchor="middle" x="70" y="-353.5" font-family="Helvetica,sans-Serif" font-size="10.00">T</text>
</g>
<!-- Node3&#45;&gt;Node2 -->
<g id="edge2" class="edge"><title>Node3&#45;&gt;Node2</title>
<path fill="none" stroke="#9a32cd" stroke-dasharray="5,2" d="M47.6455,-339.642C44.1787,-336.225 41.0672,-332.317 39,-328 28.1373,-305.316 31.6113,-274.422 34.2233,-259.611"/>
<polygon fill="#9a32cd" stroke="#9a32cd" points="45.6371,-342.527 55.5349,-346.307 50.1544,-337.18 45.6371,-342.527"/>
<text text-anchor="middle" x="60.5" y="-319.5" font-family="Helvetica,sans-Serif" font-size="10.00"> elements</text>
</g>
<!-- Node6 -->
<g id="node6" class="node"><title>Node6</title>
<g id="a_node6"><a xlink:title="STL class. ">
<polygon fill="white" stroke="#bfbfbf" points="64.5,-278.5 64.5,-297.5 151.5,-297.5 151.5,-278.5 64.5,-278.5"/>
<text text-anchor="middle" x="108" y="-285.5" font-family="Helvetica,sans-Serif" font-size="10.00">std::vector&lt; T &gt;</text>
</a>
</g>
</g>
<!-- Node3&#45;&gt;Node6 -->
<g id="edge6" class="edge"><title>Node3&#45;&gt;Node6</title>
<path fill="none" stroke="#9a32cd" stroke-dasharray="5,2" d="M80.0395,-337.563C87.3985,-324.781 97.0837,-307.96 102.91,-297.841"/>
<polygon fill="#9a32cd" stroke="#9a32cd" points="76.9243,-335.959 74.9678,-346.372 82.9907,-339.452 76.9243,-335.959"/>
<text text-anchor="middle" x="114.5" y="-319.5" font-family="Helvetica,sans-Serif" font-size="10.00"> elements</text>
</g>
<!-- Node4 -->
<g id="node4" class="node"><title>Node4</title>
<g id="a_node4"><a xlink:href="a00035.html" target="_top" xlink:title="hpp::manipulation::\lgraph::NumericalConstraints\lAndPassiveDofs">
<polygon fill="white" stroke="black" points="64.5,-102.5 64.5,-143.5 205.5,-143.5 205.5,-102.5 64.5,-102.5"/>
<text text-anchor="start" x="72.5" y="-131.5" font-family="Helvetica,sans-Serif" font-size="10.00">hpp::manipulation::</text>
<text text-anchor="start" x="72.5" y="-120.5" font-family="Helvetica,sans-Serif" font-size="10.00">graph::NumericalConstraints</text>
<text text-anchor="middle" x="135" y="-109.5" font-family="Helvetica,sans-Serif" font-size="10.00">AndPassiveDofs</text>
</a>
</g>
</g>
<!-- Node4&#45;&gt;Node1 -->
<g id="edge3" class="edge"><title>Node4&#45;&gt;Node1</title>
<path fill="none" stroke="#9a32cd" stroke-dasharray="5,2" d="M117.241,-93.7465C104.555,-73.5649 88.019,-47.2576 77.9719,-31.2735"/>
<polygon fill="#9a32cd" stroke="#9a32cd" points="114.301,-95.6465 122.586,-102.25 120.227,-91.9213 114.301,-95.6465"/>
<text text-anchor="middle" x="127.5" y="-75.5" font-family="Helvetica,sans-Serif" font-size="10.00"> nc</text>
<text text-anchor="middle" x="127.5" y="-64.5" font-family="Helvetica,sans-Serif" font-size="10.00">nc_fol</text>
<text text-anchor="middle" x="127.5" y="-53.5" font-family="Helvetica,sans-Serif" font-size="10.00">nc_path</text>
</g>
<!-- Node5 -->
<g id="node5" class="node"><title>Node5</title>
<polygon fill="white" stroke="#bfbfbf" points="133,-202.5 133,-221.5 279,-221.5 279,-202.5 133,-202.5"/>
<text text-anchor="middle" x="206" y="-209.5" font-family="Helvetica,sans-Serif" font-size="10.00">std::vector&lt; SizeIntervals_t &gt;</text>
</g>
<!-- Node5&#45;&gt;Node4 -->
<g id="edge4" class="edge"><title>Node5&#45;&gt;Node4</title>
<path fill="none" stroke="#9a32cd" stroke-dasharray="5,2" d="M192.36,-194.286C180.569,-179.838 163.51,-158.934 151.061,-143.68"/>
<polygon fill="#9a32cd" stroke="#9a32cd" points="189.898,-196.805 198.933,-202.34 195.322,-192.38 189.898,-196.805"/>
<text text-anchor="middle" x="194" y="-170.5" font-family="Helvetica,sans-Serif" font-size="10.00"> pdof</text>
</g>
<!-- Node6&#45;&gt;Node4 -->
<g id="edge7" class="edge"><title>Node6&#45;&gt;Node4</title>
<path fill="none" stroke="#9a32cd" stroke-dasharray="5,2" d="M106.906,-268.073C106.268,-250.75 106.216,-224.471 110,-202 113.424,-181.667 120.99,-159.344 126.907,-143.808"/>
<polygon fill="#9a32cd" stroke="#9a32cd" points="103.43,-268.656 107.402,-278.479 110.422,-268.324 103.43,-268.656"/>
<text text-anchor="middle" x="117" y="-209.5" font-family="Helvetica,sans-Serif" font-size="10.00"> nc</text>
</g>
<!-- Node6&#45;&gt;Node5 -->
<g id="edge5" class="edge"><title>Node6&#45;&gt;Node5</title>
<path fill="none" stroke="#9a32cd" stroke-dasharray="5,2" d="M127.797,-272.051C147.909,-256.865 178.354,-233.876 194.691,-221.54"/>
<polygon fill="#9a32cd" stroke="#9a32cd" points="125.498,-269.401 119.627,-278.221 129.716,-274.988 125.498,-269.401"/>
<text text-anchor="middle" x="190.5" y="-247.5" font-family="Helvetica,sans-Serif" font-size="10.00"> elements</text>
</g>
</g>
</svg>
