<?xml version="1.0" encoding="UTF-8" standalone="no"?>
<!DOCTYPE svg PUBLIC "-//W3C//DTD SVG 1.1//EN"
 "http://www.w3.org/Graphics/SVG/1.1/DTD/svg11.dtd">
<!-- Generated by graphviz version 2.36.0 (20140111.2315)
 -->
<!-- Title: hpp::manipulation::graph::Histogram Pages: 1 -->
<svg width="251pt" height="108pt"
 viewBox="0.00 0.00 251.00 108.00" xmlns="http://www.w3.org/2000/svg" xmlns:xlink="http://www.w3.org/1999/xlink">
<g id="graph0" class="graph" transform="scale(1 1) rotate(0) translate(4 104)">
<title>hpp::manipulation::graph::Histogram</title>
<polygon fill="white" stroke="none" points="-4,4 -4,-104 247,-104 247,4 -4,4"/>
<!-- Node1 -->
<g id="node1" class="node"><title>Node1</title>
<polygon fill="#bfbfbf" stroke="black" points="70.5,-69 70.5,-99 169.5,-99 169.5,-69 70.5,-69"/>
<text text-anchor="start" x="78.5" y="-87" font-family="Helvetica,sans-Serif" font-size="10.00">hpp::manipulation::</text>
<text text-anchor="middle" x="120" y="-76" font-family="Helvetica,sans-Serif" font-size="10.00">graph::Histogram</text>
</g>
<!-- Node2 -->
<g id="node2" class="node"><title>Node2</title>
<g id="a_node2"><a xlink:href="a00027.html" target="_top" xlink:title="hpp::manipulation::\lgraph::LeafHistogram">
<polygon fill="white" stroke="black" points="0,-1 0,-31 110,-31 110,-1 0,-1"/>
<text text-anchor="start" x="8" y="-19" font-family="Helvetica,sans-Serif" font-size="10.00">hpp::manipulation::</text>
<text text-anchor="middle" x="55" y="-8" font-family="Helvetica,sans-Serif" font-size="10.00">graph::LeafHistogram</text>
</a>
</g>
</g>
<!-- Node1&#45;&gt;Node2 -->
<g id="edge1" class="edge"><title>Node1&#45;&gt;Node2</title>
<path fill="none" stroke="midnightblue" d="M98.8115,-61.4855C89.0612,-51.5852 77.759,-40.1092 69.0765,-31.2931"/>
<polygon fill="midnightblue" stroke="midnightblue" points="96.3853,-64.01 105.896,-68.679 101.373,-59.0982 96.3853,-64.01"/>
</g>
<!-- Node3 -->
<g id="node3" class="node"><title>Node3</title>
<g id="a_node3"><a xlink:href="a00032.html" target="_top" xlink:title="hpp::manipulation::\lgraph::NodeHistogram">
<polygon fill="white" stroke="black" points="128.5,-1 128.5,-31 243.5,-31 243.5,-1 128.5,-1"/>
<text text-anchor="start" x="136.5" y="-19" font-family="Helvetica,sans-Serif" font-size="10.00">hpp::manipulation::</text>
<text text-anchor="middle" x="186" y="-8" font-family="Helvetica,sans-Serif" font-size="10.00">graph::NodeHistogram</text>
</a>
</g>
</g>
<!-- Node1&#45;&gt;Node3 -->
<g id="edge2" class="edge"><title>Node1&#45;&gt;Node3</title>
<path fill="none" stroke="midnightblue" d="M141.515,-61.4855C151.415,-51.5852 162.891,-40.1092 171.707,-31.2931"/>
<polygon fill="midnightblue" stroke="midnightblue" points="138.917,-59.133 134.321,-68.679 143.867,-64.0828 138.917,-59.133"/>
</g>
</g>
</svg>
