<?xml version="1.0" encoding="UTF-8" standalone="no"?>
<!DOCTYPE svg PUBLIC "-//W3C//DTD SVG 1.1//EN"
 "http://www.w3.org/Graphics/SVG/1.1/DTD/svg11.dtd">
<!-- Generated by graphviz version 2.36.0 (20140111.2315)
 -->
<!-- Title: hpp::manipulation::ProblemSolver Pages: 1 -->
<svg width="826pt" height="217pt"
 viewBox="0.00 0.00 826.00 217.00" xmlns="http://www.w3.org/2000/svg" xmlns:xlink="http://www.w3.org/1999/xlink">
<g id="graph0" class="graph" transform="scale(1 1) rotate(0) translate(4 213)">
<title>hpp::manipulation::ProblemSolver</title>
<polygon fill="white" stroke="none" points="-4,4 -4,-213 822,-213 822,4 -4,4"/>
<!-- Node1 -->
<g id="node1" class="node"><title>Node1</title>
<polygon fill="#bfbfbf" stroke="black" points="718.5,-37 718.5,-67 817.5,-67 817.5,-37 718.5,-37"/>
<text text-anchor="start" x="726.5" y="-55" font-family="Helvetica,sans-Serif" font-size="10.00">hpp::manipulation::</text>
<text text-anchor="middle" x="768" y="-44" font-family="Helvetica,sans-Serif" font-size="10.00">ProblemSolver</text>
</g>
<!-- Node2 -->
<g id="node2" class="node"><title>Node2</title>
<g id="a_node2"><a doxygen="https://jmirabel.github.io/hpp-doc/api/hpp-core/doxygen-html/hpp-core.doxytag:https://jmirabel.github.io/hpp-doc/api/hpp-core/doxygen-html/" xlink:href="https://jmirabel.github.io/hpp-doc/api/hpp-core/doxygen-html/a00068.html" target="_top" xlink:title="hpp::core::ProblemSolver">
<polygon fill="white" stroke="black" points="544.5,-77.5 544.5,-96.5 671.5,-96.5 671.5,-77.5 544.5,-77.5"/>
<text text-anchor="middle" x="608" y="-84.5" font-family="Helvetica,sans-Serif" font-size="10.00">hpp::core::ProblemSolver</text>
</a>
</g>
</g>
<!-- Node2&#45;&gt;Node1 -->
<g id="edge1" class="edge"><title>Node2&#45;&gt;Node1</title>
<path fill="none" stroke="midnightblue" d="M662.038,-75.2512C680.225,-71.2222 700.479,-66.7357 718.306,-62.7867"/>
<polygon fill="midnightblue" stroke="midnightblue" points="661.181,-71.8561 652.174,-77.4361 662.695,-78.6904 661.181,-71.8561"/>
</g>
<!-- Node3 -->
<g id="node3" class="node"><title>Node3</title>
<g id="a_node3"><a doxygen="https://jmirabel.github.io/hpp-doc/api/hpp-core/doxygen-html/hpp-core.doxytag:https://jmirabel.github.io/hpp-doc/api/hpp-core/doxygen-html/" xlink:href="https://jmirabel.github.io/hpp-doc/api/hpp-core/doxygen-html/a00021.html" target="_top" xlink:title="Containers\&lt; boost::\lmpl::vector\&lt; PathPlannerBuilder\l_t, PathOptimizerBuilder_t,\l PathValidationBuilder_t, PathProjector\lBuilder_t, ConfigurationShooterBuilder\l_t, NumericalConstraintPtr_t, SteeringMethodBuilder_t \&gt; \&gt;">
<polygon fill="white" stroke="black" points="142,-135 142,-209 414,-209 414,-135 142,-135"/>
<text text-anchor="start" x="150" y="-197" font-family="Helvetica,sans-Serif" font-size="10.00">Containers&lt; boost::</text>
<text text-anchor="start" x="150" y="-186" font-family="Helvetica,sans-Serif" font-size="10.00">mpl::vector&lt; PathPlannerBuilder</text>
<text text-anchor="start" x="150" y="-175" font-family="Helvetica,sans-Serif" font-size="10.00">_t, PathOptimizerBuilder_t,</text>
<text text-anchor="start" x="150" y="-164" font-family="Helvetica,sans-Serif" font-size="10.00"> PathValidationBuilder_t, PathProjector</text>
<text text-anchor="start" x="150" y="-153" font-family="Helvetica,sans-Serif" font-size="10.00">Builder_t, ConfigurationShooterBuilder</text>
<text text-anchor="middle" x="278" y="-142" font-family="Helvetica,sans-Serif" font-size="10.00">_t, NumericalConstraintPtr_t, SteeringMethodBuilder_t &gt; &gt;</text>
</a>
</g>
</g>
<!-- Node3&#45;&gt;Node2 -->
<g id="edge2" class="edge"><title>Node3&#45;&gt;Node2</title>
<path fill="none" stroke="midnightblue" d="M424.198,-137.196C455.216,-129.471 487.744,-121.15 518,-113 537.118,-107.85 558.411,-101.647 575.375,-96.5913"/>
<polygon fill="midnightblue" stroke="midnightblue" points="423.047,-133.876 414.186,-139.683 424.734,-140.67 423.047,-133.876"/>
</g>
<!-- Node4 -->
<g id="node4" class="node"><title>Node4</title>
<polygon fill="white" stroke="#bfbfbf" points="202.5,-96.5 202.5,-115.5 353.5,-115.5 353.5,-96.5 202.5,-96.5"/>
<text text-anchor="middle" x="278" y="-103.5" font-family="Helvetica,sans-Serif" font-size="10.00">std::vector&lt; PathVectorPtr_t &gt;</text>
</g>
<!-- Node4&#45;&gt;Node2 -->
<g id="edge3" class="edge"><title>Node4&#45;&gt;Node2</title>
<path fill="none" stroke="#9a32cd" stroke-dasharray="5,2" d="M364.167,-101.067C420.543,-97.8008 493.228,-93.5905 544.329,-90.6303"/>
<polygon fill="#9a32cd" stroke="#9a32cd" points="363.62,-97.5923 353.839,-101.665 364.024,-104.581 363.62,-97.5923"/>
<text text-anchor="middle" x="475" y="-101" font-family="Helvetica,sans-Serif" font-size="10.00"> paths_</text>
</g>
<!-- Node5 -->
<g id="node5" class="node"><title>Node5</title>
<g id="a_node5"><a doxygen="https://jmirabel.github.io/hpp-doc/api/hpp-core/doxygen-html/hpp-core.doxytag:https://jmirabel.github.io/hpp-doc/api/hpp-core/doxygen-html/" xlink:href="https://jmirabel.github.io/hpp-doc/api/hpp-core/doxygen-html/a00067.html" target="_top" xlink:title="hpp::core::Problem">
<polygon fill="white" stroke="black" points="228.5,-58.5 228.5,-77.5 327.5,-77.5 327.5,-58.5 228.5,-58.5"/>
<text text-anchor="middle" x="278" y="-65.5" font-family="Helvetica,sans-Serif" font-size="10.00">hpp::core::Problem</text>
</a>
</g>
</g>
<!-- Node5&#45;&gt;Node2 -->
<g id="edge4" class="edge"><title>Node5&#45;&gt;Node2</title>
<path fill="none" stroke="#9a32cd" stroke-dasharray="5,2" d="M337.858,-69.4959C386.267,-70.9586 456.638,-73.6176 518,-78 526.52,-78.6085 535.487,-79.3709 544.316,-80.1931"/>
<polygon fill="#9a32cd" stroke="#9a32cd" points="337.667,-65.9889 327.568,-69.1931 337.461,-72.9859 337.667,-65.9889"/>
<text text-anchor="middle" x="475" y="-81" font-family="Helvetica,sans-Serif" font-size="10.00"> problem_</text>
</g>
<!-- Node6 -->
<g id="node6" class="node"><title>Node6</title>
<g id="a_node6"><a doxygen="https://jmirabel.github.io/hpp-doc/api/hpp-core/doxygen-html/hpp-core.doxytag:https://jmirabel.github.io/hpp-doc/api/hpp-core/doxygen-html/" xlink:href="https://jmirabel.github.io/hpp-doc/api/hpp-core/doxygen-html/a00021.html" target="_top" xlink:title="Containers\&lt; boost::\lmpl::vector\&lt; boost::\lany \&gt; \&gt;">
<polygon fill="white" stroke="black" points="0,-48.5 0,-89.5 104,-89.5 104,-48.5 0,-48.5"/>
<text text-anchor="start" x="8" y="-77.5" font-family="Helvetica,sans-Serif" font-size="10.00">Containers&lt; boost::</text>
<text text-anchor="start" x="8" y="-66.5" font-family="Helvetica,sans-Serif" font-size="10.00">mpl::vector&lt; boost::</text>
<text text-anchor="middle" x="52" y="-55.5" font-family="Helvetica,sans-Serif" font-size="10.00">any &gt; &gt;</text>
</a>
</g>
</g>
<!-- Node6&#45;&gt;Node5 -->
<g id="edge5" class="edge"><title>Node6&#45;&gt;Node5</title>
<path fill="none" stroke="midnightblue" d="M114.462,-68.7256C150.35,-68.5654 194.999,-68.3661 228.414,-68.2169"/>
<polygon fill="midnightblue" stroke="midnightblue" points="114.094,-65.2271 104.109,-68.7718 114.125,-72.2271 114.094,-65.2271"/>
</g>
<!-- Node7 -->
<g id="node7" class="node"><title>Node7</title>
<g id="a_node7"><a xlink:title="STL class. ">
<polygon fill="white" stroke="#bfbfbf" points="248,-8.5 248,-27.5 308,-27.5 308,-8.5 248,-8.5"/>
<text text-anchor="middle" x="278" y="-15.5" font-family="Helvetica,sans-Serif" font-size="10.00">std::string</text>
</a>
</g>
</g>
<!-- Node7&#45;&gt;Node2 -->
<g id="edge6" class="edge"><title>Node7&#45;&gt;Node2</title>
<path fill="none" stroke="#9a32cd" stroke-dasharray="5,2" d="M318.278,-15.0886C367.645,-13.1275 453.695,-15.4449 518,-48 528.378,-53.254 526.044,-60.9846 536,-67 543.125,-71.3046 551.208,-74.7126 559.305,-77.4019"/>
<polygon fill="#9a32cd" stroke="#9a32cd" points="317.848,-11.6051 308.026,-15.5792 318.182,-18.5971 317.848,-11.6051"/>
<text text-anchor="middle" x="475" y="-62" font-family="Helvetica,sans-Serif" font-size="10.00"> pathPlannerType_</text>
<text text-anchor="middle" x="475" y="-51" font-family="Helvetica,sans-Serif" font-size="10.00">pathProjectorType_</text>
</g>
<!-- Node8 -->
<g id="node8" class="node"><title>Node8</title>
<g id="a_node8"><a xlink:title="STL class. ">
<polygon fill="white" stroke="#bfbfbf" points="4.5,-0 4.5,-30 99.5,-30 99.5,-0 4.5,-0"/>
<text text-anchor="start" x="12.5" y="-18" font-family="Helvetica,sans-Serif" font-size="10.00">std::basic_string&lt;</text>
<text text-anchor="middle" x="52" y="-7" font-family="Helvetica,sans-Serif" font-size="10.00"> char &gt;</text>
</a>
</g>
</g>
<!-- Node8&#45;&gt;Node7 -->
<g id="edge7" class="edge"><title>Node8&#45;&gt;Node7</title>
<path fill="none" stroke="midnightblue" d="M109.951,-15.7627C153.929,-16.3517 212.977,-17.1426 247.811,-17.6091"/>
<polygon fill="midnightblue" stroke="midnightblue" points="109.731,-12.2596 99.6851,-15.6252 109.637,-19.2589 109.731,-12.2596"/>
</g>
<!-- Node9 -->
<g id="node9" class="node"><title>Node9</title>
<g id="a_node9"><a doxygen="https://jmirabel.github.io/hpp-doc/api/hpp-core/doxygen-html/hpp-core.doxytag:https://jmirabel.github.io/hpp-doc/api/hpp-core/doxygen-html/" xlink:href="https://jmirabel.github.io/hpp-doc/api/hpp-core/doxygen-html/a00021.html" target="_top" xlink:title="hpp::core::Containers\l\&lt; boost::mpl::vector\l\&lt; LockedJointPtr_t, JointAnd\lShapes_t \&gt; \&gt;">
<polygon fill="white" stroke="black" points="536.5,-6 536.5,-58 679.5,-58 679.5,-6 536.5,-6"/>
<text text-anchor="start" x="544.5" y="-46" font-family="Helvetica,sans-Serif" font-size="10.00">hpp::core::Containers</text>
<text text-anchor="start" x="544.5" y="-35" font-family="Helvetica,sans-Serif" font-size="10.00">&lt; boost::mpl::vector</text>
<text text-anchor="start" x="544.5" y="-24" font-family="Helvetica,sans-Serif" font-size="10.00">&lt; LockedJointPtr_t, JointAnd</text>
<text text-anchor="middle" x="608" y="-13" font-family="Helvetica,sans-Serif" font-size="10.00">Shapes_t &gt; &gt;</text>
</a>
</g>
</g>
<!-- Node9&#45;&gt;Node1 -->
<g id="edge8" class="edge"><title>Node9&#45;&gt;Node1</title>
<path fill="none" stroke="midnightblue" d="M689.759,-42.2226C699.439,-43.448 709.085,-44.669 718.113,-45.8118"/>
<polygon fill="midnightblue" stroke="midnightblue" points="690.042,-38.7306 679.682,-40.9471 689.163,-45.6752 690.042,-38.7306"/>
</g>
</g>
</svg>
