<?xml version="1.0" encoding="UTF-8" standalone="no"?>
<!DOCTYPE svg PUBLIC "-//W3C//DTD SVG 1.1//EN"
 "http://www.w3.org/Graphics/SVG/1.1/DTD/svg11.dtd">
<!-- Generated by graphviz version 2.36.0 (20140111.2315)
 -->
<!-- Title: hpp::manipulation::graph::dot::Tooltip Pages: 1 -->
<svg width="215pt" height="246pt"
 viewBox="0.00 0.00 215.00 246.00" xmlns="http://www.w3.org/2000/svg" xmlns:xlink="http://www.w3.org/1999/xlink">
<g id="graph0" class="graph" transform="scale(1 1) rotate(0) translate(4 242)">
<title>hpp::manipulation::graph::dot::Tooltip</title>
<polygon fill="white" stroke="none" points="-4,4 -4,-242 211,-242 211,4 -4,4"/>
<!-- Node1 -->
<g id="node1" class="node"><title>Node1</title>
<polygon fill="#bfbfbf" stroke="black" points="19.5,-1 19.5,-31 118.5,-31 118.5,-1 19.5,-1"/>
<text text-anchor="start" x="27.5" y="-19" font-family="Helvetica,sans-Serif" font-size="10.00">hpp::manipulation::</text>
<text text-anchor="middle" x="69" y="-8" font-family="Helvetica,sans-Serif" font-size="10.00">graph::dot::Tooltip</text>
</g>
<!-- Node2 -->
<g id="node2" class="node"><title>Node2</title>
<g id="a_node2"><a xlink:title="STL class. ">
<polygon fill="white" stroke="#bfbfbf" points="17,-148.5 17,-167.5 77,-167.5 77,-148.5 17,-148.5"/>
<text text-anchor="middle" x="47" y="-155.5" font-family="Helvetica,sans-Serif" font-size="10.00">std::string</text>
</a>
</g>
</g>
<!-- Node2&#45;&gt;Node1 -->
<g id="edge1" class="edge"><title>Node2&#45;&gt;Node1</title>
<path fill="none" stroke="#9a32cd" stroke-dasharray="5,2" d="M42.155,-138.341C38.8208,-122.623 35.6999,-99.6252 40,-80 43.8656,-62.3576 53.1576,-43.7605 60.1897,-31.3846"/>
<polygon fill="#9a32cd" stroke="#9a32cd" points="38.8133,-139.419 44.5175,-148.347 45.626,-137.811 38.8133,-139.419"/>
<text text-anchor="middle" x="65" y="-87.5" font-family="Helvetica,sans-Serif" font-size="10.00"> tooltipendl</text>
</g>
<!-- Node4 -->
<g id="node4" class="node"><title>Node4</title>
<polygon fill="white" stroke="#bfbfbf" points="97,-80.5 97,-99.5 207,-99.5 207,-80.5 97,-80.5"/>
<text text-anchor="middle" x="152" y="-87.5" font-family="Helvetica,sans-Serif" font-size="10.00">std::list&lt; std::string &gt;</text>
</g>
<!-- Node2&#45;&gt;Node4 -->
<g id="edge4" class="edge"><title>Node2&#45;&gt;Node4</title>
<path fill="none" stroke="#9a32cd" stroke-dasharray="5,2" d="M69.2914,-142.988C90.1798,-129.858 120.739,-110.65 138.27,-99.6305"/>
<polygon fill="#9a32cd" stroke="#9a32cd" points="67.3307,-140.087 60.7269,-148.372 71.0559,-146.013 67.3307,-140.087"/>
<text text-anchor="middle" x="129.5" y="-121.5" font-family="Helvetica,sans-Serif" font-size="10.00"> elements</text>
</g>
<!-- Node3 -->
<g id="node3" class="node"><title>Node3</title>
<g id="a_node3"><a xlink:title="STL class. ">
<polygon fill="white" stroke="#bfbfbf" points="-0.5,-207 -0.5,-237 94.5,-237 94.5,-207 -0.5,-207"/>
<text text-anchor="start" x="7.5" y="-225" font-family="Helvetica,sans-Serif" font-size="10.00">std::basic_string&lt;</text>
<text text-anchor="middle" x="47" y="-214" font-family="Helvetica,sans-Serif" font-size="10.00"> char &gt;</text>
</a>
</g>
</g>
<!-- Node3&#45;&gt;Node2 -->
<g id="edge2" class="edge"><title>Node3&#45;&gt;Node2</title>
<path fill="none" stroke="midnightblue" d="M47,-196.871C47,-186.663 47,-175.408 47,-167.842"/>
<polygon fill="midnightblue" stroke="midnightblue" points="43.5001,-196.931 47,-206.931 50.5001,-196.931 43.5001,-196.931"/>
</g>
<!-- Node4&#45;&gt;Node1 -->
<g id="edge3" class="edge"><title>Node4&#45;&gt;Node1</title>
<path fill="none" stroke="#9a32cd" stroke-dasharray="5,2" d="M134.399,-73.7318C119.919,-61.1705 99.5491,-43.5005 85.4059,-31.2316"/>
<polygon fill="#9a32cd" stroke="#9a32cd" points="132.305,-76.549 142.153,-80.4579 136.892,-71.2612 132.305,-76.549"/>
<text text-anchor="middle" x="124.5" y="-53.5" font-family="Helvetica,sans-Serif" font-size="10.00"> v</text>
</g>
</g>
</svg>
