<?xml version="1.0" encoding="UTF-8" standalone="no"?>
<!DOCTYPE svg PUBLIC "-//W3C//DTD SVG 1.1//EN"
 "http://www.w3.org/Graphics/SVG/1.1/DTD/svg11.dtd">
<!-- Generated by graphviz version 2.36.0 (20140111.2315)
 -->
<!-- Title: hpp::manipulation::graph::helper::FoliatedManifold Pages: 1 -->
<svg width="918pt" height="121pt"
 viewBox="0.00 0.00 918.00 121.00" xmlns="http://www.w3.org/2000/svg" xmlns:xlink="http://www.w3.org/1999/xlink">
<g id="graph0" class="graph" transform="scale(1 1) rotate(0) translate(4 117)">
<title>hpp::manipulation::graph::helper::FoliatedManifold</title>
<polygon fill="white" stroke="none" points="-4,4 -4,-117 914,-117 914,4 -4,4"/>
<!-- Node1 -->
<g id="node1" class="node"><title>Node1</title>
<polygon fill="#bfbfbf" stroke="black" points="760,-56 760,-86 910,-86 910,-56 760,-56"/>
<text text-anchor="start" x="768" y="-74" font-family="Helvetica,sans-Serif" font-size="10.00">hpp::manipulation::</text>
<text text-anchor="middle" x="835" y="-63" font-family="Helvetica,sans-Serif" font-size="10.00">graph::helper::FoliatedManifold</text>
</g>
<!-- Node2 -->
<g id="node2" class="node"><title>Node2</title>
<g id="a_node2"><a xlink:title="STL class. ">
<polygon fill="white" stroke="#bfbfbf" points="216.5,-84.5 216.5,-103.5 289.5,-103.5 289.5,-84.5 216.5,-84.5"/>
<text text-anchor="middle" x="253" y="-91.5" font-family="Helvetica,sans-Serif" font-size="10.00">std::list&lt; T &gt;</text>
</a>
</g>
</g>
<!-- Node2&#45;&gt;Node1 -->
<g id="edge1" class="edge"><title>Node2&#45;&gt;Node1</title>
<path fill="none" stroke="#9a32cd" stroke-dasharray="5,2" d="M299.819,-94.0252C386.339,-93.7962 579.652,-91.9673 742,-81 747.771,-80.6102 753.738,-80.1322 759.732,-79.5986"/>
<polygon fill="#9a32cd" stroke="#9a32cd" points="299.553,-90.5256 289.561,-94.046 299.568,-97.5256 299.553,-90.5256"/>
<text text-anchor="middle" x="484" y="-105" font-family="Helvetica,sans-Serif" font-size="10.00"> lj_fol</text>
<text text-anchor="middle" x="484" y="-94" font-family="Helvetica,sans-Serif" font-size="10.00">lj</text>
</g>
<!-- Node3 -->
<g id="node3" class="node"><title>Node3</title>
<polygon fill="white" stroke="#bfbfbf" points="0.5,-66.5 0.5,-85.5 29.5,-85.5 29.5,-66.5 0.5,-66.5"/>
<text text-anchor="middle" x="15" y="-73.5" font-family="Helvetica,sans-Serif" font-size="10.00">T</text>
</g>
<!-- Node3&#45;&gt;Node2 -->
<g id="edge2" class="edge"><title>Node3&#45;&gt;Node2</title>
<path fill="none" stroke="#9a32cd" stroke-dasharray="5,2" d="M39.7333,-77.8102C81.3418,-80.9837 167.657,-87.567 216.43,-91.287"/>
<polygon fill="#9a32cd" stroke="#9a32cd" points="39.9457,-74.3163 29.7084,-77.0456 39.4133,-81.296 39.9457,-74.3163"/>
<text text-anchor="middle" x="70" y="-84" font-family="Helvetica,sans-Serif" font-size="10.00"> elements</text>
</g>
<!-- Node6 -->
<g id="node6" class="node"><title>Node6</title>
<g id="a_node6"><a xlink:title="STL class. ">
<polygon fill="white" stroke="#bfbfbf" points="110.5,-46.5 110.5,-65.5 197.5,-65.5 197.5,-46.5 110.5,-46.5"/>
<text text-anchor="middle" x="154" y="-53.5" font-family="Helvetica,sans-Serif" font-size="10.00">std::vector&lt; T &gt;</text>
</a>
</g>
</g>
<!-- Node3&#45;&gt;Node6 -->
<g id="edge6" class="edge"><title>Node3&#45;&gt;Node6</title>
<path fill="none" stroke="#9a32cd" stroke-dasharray="5,2" d="M38.7921,-64.0212C41.8239,-62.8151 44.9423,-61.7579 48,-61 68.1052,-56.0168 91.0223,-54.4695 110.306,-54.2909"/>
<polygon fill="#9a32cd" stroke="#9a32cd" points="37.2447,-60.8798 29.5825,-68.197 40.1353,-67.2551 37.2447,-60.8798"/>
<text text-anchor="middle" x="70" y="-64" font-family="Helvetica,sans-Serif" font-size="10.00"> elements</text>
</g>
<!-- Node4 -->
<g id="node4" class="node"><title>Node4</title>
<g id="a_node4"><a xlink:href="a00034.html" target="_top" xlink:title="hpp::manipulation::\lgraph::helper::NumericalConstraints\lAndPassiveDofs">
<polygon fill="white" stroke="black" points="514.5,-25.5 514.5,-66.5 687.5,-66.5 687.5,-25.5 514.5,-25.5"/>
<text text-anchor="start" x="522.5" y="-54.5" font-family="Helvetica,sans-Serif" font-size="10.00">hpp::manipulation::</text>
<text text-anchor="start" x="522.5" y="-43.5" font-family="Helvetica,sans-Serif" font-size="10.00">graph::helper::NumericalConstraints</text>
<text text-anchor="middle" x="601" y="-32.5" font-family="Helvetica,sans-Serif" font-size="10.00">AndPassiveDofs</text>
</a>
</g>
</g>
<!-- Node4&#45;&gt;Node1 -->
<g id="edge3" class="edge"><title>Node4&#45;&gt;Node1</title>
<path fill="none" stroke="#9a32cd" stroke-dasharray="5,2" d="M697.925,-44.4396C712.724,-45.044 727.801,-46.149 742,-48 755.387,-49.7452 769.637,-52.7321 782.824,-55.9863"/>
<polygon fill="#9a32cd" stroke="#9a32cd" points="697.849,-40.9352 687.738,-44.0981 697.615,-47.9312 697.849,-40.9352"/>
<text text-anchor="middle" x="724" y="-73" font-family="Helvetica,sans-Serif" font-size="10.00"> nc</text>
<text text-anchor="middle" x="724" y="-62" font-family="Helvetica,sans-Serif" font-size="10.00">nc_fol</text>
<text text-anchor="middle" x="724" y="-51" font-family="Helvetica,sans-Serif" font-size="10.00">nc_path</text>
</g>
<!-- Node5 -->
<g id="node5" class="node"><title>Node5</title>
<polygon fill="white" stroke="#bfbfbf" points="308,-0.5 308,-19.5 454,-19.5 454,-0.5 308,-0.5"/>
<text text-anchor="middle" x="381" y="-7.5" font-family="Helvetica,sans-Serif" font-size="10.00">std::vector&lt; SizeIntervals_t &gt;</text>
</g>
<!-- Node5&#45;&gt;Node4 -->
<g id="edge4" class="edge"><title>Node5&#45;&gt;Node4</title>
<path fill="none" stroke="#9a32cd" stroke-dasharray="5,2" d="M449.69,-21.1782C470.088,-24.5467 492.752,-28.2893 514.165,-31.8254"/>
<polygon fill="#9a32cd" stroke="#9a32cd" points="449.999,-17.6818 439.562,-19.5057 448.858,-24.5883 449.999,-17.6818"/>
<text text-anchor="middle" x="484" y="-31" font-family="Helvetica,sans-Serif" font-size="10.00"> pdof</text>
</g>
<!-- Node6&#45;&gt;Node4 -->
<g id="edge7" class="edge"><title>Node6&#45;&gt;Node4</title>
<path fill="none" stroke="#9a32cd" stroke-dasharray="5,2" d="M207.911,-54.811C283.611,-53.1099 423.663,-49.9626 514.274,-47.9264"/>
<polygon fill="#9a32cd" stroke="#9a32cd" points="207.587,-51.3173 197.668,-55.0412 207.745,-58.3155 207.587,-51.3173"/>
<text text-anchor="middle" x="381" y="-55" font-family="Helvetica,sans-Serif" font-size="10.00"> nc</text>
</g>
<!-- Node6&#45;&gt;Node5 -->
<g id="edge5" class="edge"><title>Node6&#45;&gt;Node5</title>
<path fill="none" stroke="#9a32cd" stroke-dasharray="5,2" d="M184.018,-42.2952C193.967,-38.0879 205.294,-33.827 216,-31 245.557,-23.1954 278.906,-18.25 307.775,-15.1356"/>
<polygon fill="#9a32cd" stroke="#9a32cd" points="182.352,-39.2043 174.603,-46.4295 185.166,-45.6137 182.352,-39.2043"/>
<text text-anchor="middle" x="253" y="-34" font-family="Helvetica,sans-Serif" font-size="10.00"> elements</text>
</g>
</g>
</svg>
