<?xml version="1.0" encoding="UTF-8" standalone="no"?>
<!DOCTYPE svg PUBLIC "-//W3C//DTD SVG 1.1//EN"
 "http://www.w3.org/Graphics/SVG/1.1/DTD/svg11.dtd">
<!-- Generated by graphviz version 2.36.0 (20140111.2315)
 -->
<!-- Title: hpp::manipulation::graph::helper::NumericalConstraintsAndPassiveDofs Pages: 1 -->
<svg width="238pt" height="254pt"
 viewBox="0.00 0.00 238.00 254.00" xmlns="http://www.w3.org/2000/svg" xmlns:xlink="http://www.w3.org/1999/xlink">
<g id="graph0" class="graph" transform="scale(1 1) rotate(0) translate(4 250)">
<title>hpp::manipulation::graph::helper::NumericalConstraintsAndPassiveDofs</title>
<polygon fill="white" stroke="none" points="-4,4 -4,-250 234,-250 234,4 -4,4"/>
<!-- Node1 -->
<g id="node1" class="node"><title>Node1</title>
<polygon fill="#bfbfbf" stroke="black" points="-0.5,-0.5 -0.5,-41.5 172.5,-41.5 172.5,-0.5 -0.5,-0.5"/>
<text text-anchor="start" x="7.5" y="-29.5" font-family="Helvetica,sans-Serif" font-size="10.00">hpp::manipulation::</text>
<text text-anchor="start" x="7.5" y="-18.5" font-family="Helvetica,sans-Serif" font-size="10.00">graph::helper::NumericalConstraints</text>
<text text-anchor="middle" x="86" y="-7.5" font-family="Helvetica,sans-Serif" font-size="10.00">AndPassiveDofs</text>
</g>
<!-- Node2 -->
<g id="node2" class="node"><title>Node2</title>
<polygon fill="white" stroke="#bfbfbf" points="84,-90.5 84,-109.5 230,-109.5 230,-90.5 84,-90.5"/>
<text text-anchor="middle" x="157" y="-97.5" font-family="Helvetica,sans-Serif" font-size="10.00">std::vector&lt; SizeIntervals_t &gt;</text>
</g>
<!-- Node2&#45;&gt;Node1 -->
<g id="edge1" class="edge"><title>Node2&#45;&gt;Node1</title>
<path fill="none" stroke="#9a32cd" stroke-dasharray="5,2" d="M142.236,-82.9881C131.193,-71.0117 116.027,-54.5649 104.228,-41.7685"/>
<polygon fill="#9a32cd" stroke="#9a32cd" points="139.779,-85.4863 149.13,-90.4655 144.925,-80.7411 139.779,-85.4863"/>
<text text-anchor="middle" x="143" y="-63.5" font-family="Helvetica,sans-Serif" font-size="10.00"> pdof</text>
</g>
<!-- Node3 -->
<g id="node3" class="node"><title>Node3</title>
<g id="a_node3"><a xlink:title="STL class. ">
<polygon fill="white" stroke="#bfbfbf" points="24.5,-158.5 24.5,-177.5 111.5,-177.5 111.5,-158.5 24.5,-158.5"/>
<text text-anchor="middle" x="68" y="-165.5" font-family="Helvetica,sans-Serif" font-size="10.00">std::vector&lt; T &gt;</text>
</a>
</g>
</g>
<!-- Node3&#45;&gt;Node1 -->
<g id="edge4" class="edge"><title>Node3&#45;&gt;Node1</title>
<path fill="none" stroke="#9a32cd" stroke-dasharray="5,2" d="M63.5583,-148.421C60.4681,-132.751 57.4792,-109.78 61,-90 63.9978,-73.1585 70.8661,-55.0197 76.6464,-41.7151"/>
<polygon fill="#9a32cd" stroke="#9a32cd" points="60.1823,-149.367 65.7347,-158.391 67.0212,-147.874 60.1823,-149.367"/>
<text text-anchor="middle" x="69" y="-97.5" font-family="Helvetica,sans-Serif" font-size="10.00"> nc</text>
</g>
<!-- Node3&#45;&gt;Node2 -->
<g id="edge2" class="edge"><title>Node3&#45;&gt;Node2</title>
<path fill="none" stroke="#9a32cd" stroke-dasharray="5,2" d="M88.0977,-152.096C105.756,-139.001 130.836,-120.403 145.362,-109.63"/>
<polygon fill="#9a32cd" stroke="#9a32cd" points="85.5828,-149.604 79.6352,-158.372 89.7524,-155.226 85.5828,-149.604"/>
<text text-anchor="middle" x="141.5" y="-131.5" font-family="Helvetica,sans-Serif" font-size="10.00"> elements</text>
</g>
<!-- Node4 -->
<g id="node4" class="node"><title>Node4</title>
<polygon fill="white" stroke="#bfbfbf" points="53.5,-226.5 53.5,-245.5 82.5,-245.5 82.5,-226.5 53.5,-226.5"/>
<text text-anchor="middle" x="68" y="-233.5" font-family="Helvetica,sans-Serif" font-size="10.00">T</text>
</g>
<!-- Node4&#45;&gt;Node3 -->
<g id="edge3" class="edge"><title>Node4&#45;&gt;Node3</title>
<path fill="none" stroke="#9a32cd" stroke-dasharray="5,2" d="M68,-216.041C68,-203.472 68,-187.563 68,-177.841"/>
<polygon fill="#9a32cd" stroke="#9a32cd" points="64.5001,-216.372 68,-226.372 71.5001,-216.372 64.5001,-216.372"/>
<text text-anchor="middle" x="89.5" y="-199.5" font-family="Helvetica,sans-Serif" font-size="10.00"> elements</text>
</g>
</g>
</svg>
