<?xml version="1.0" encoding="UTF-8" standalone="no"?>
<!DOCTYPE svg PUBLIC "-//W3C//DTD SVG 1.1//EN"
 "http://www.w3.org/Graphics/SVG/1.1/DTD/svg11.dtd">
<!-- Generated by graphviz version 2.36.0 (20140111.2315)
 -->
<!-- Title: hpp::manipulation::pathOptimization::ConfigOptimizationTraits Pages: 1 -->
<svg width="186pt" height="118pt"
 viewBox="0.00 0.00 186.00 118.00" xmlns="http://www.w3.org/2000/svg" xmlns:xlink="http://www.w3.org/1999/xlink">
<g id="graph0" class="graph" transform="scale(1 1) rotate(0) translate(4 114)">
<title>hpp::manipulation::pathOptimization::ConfigOptimizationTraits</title>
<polygon fill="white" stroke="none" points="-4,4 -4,-114 182,-114 182,4 -4,4"/>
<!-- Node1 -->
<g id="node1" class="node"><title>Node1</title>
<polygon fill="#bfbfbf" stroke="black" points="-0.5,-0.5 -0.5,-41.5 178.5,-41.5 178.5,-0.5 -0.5,-0.5"/>
<text text-anchor="start" x="7.5" y="-29.5" font-family="Helvetica,sans-Serif" font-size="10.00">hpp::manipulation::</text>
<text text-anchor="start" x="7.5" y="-18.5" font-family="Helvetica,sans-Serif" font-size="10.00">pathOptimization::ConfigOptimization</text>
<text text-anchor="middle" x="89" y="-7.5" font-family="Helvetica,sans-Serif" font-size="10.00">Traits</text>
</g>
<!-- Node2 -->
<g id="node2" class="node"><title>Node2</title>
<g id="a_node2"><a doxygen="https://jmirabel.github.io/hpp-doc/api/hpp-core/doxygen-html/hpp-core.doxytag:https://jmirabel.github.io/hpp-doc/api/hpp-core/doxygen-html/" xlink:href="https://jmirabel.github.io/hpp-doc/api/hpp-core/doxygen-html/a00011.html" target="_top" xlink:title="hpp::core::pathOptimization\l::ConfigOptimizationTraits">
<polygon fill="white" stroke="black" points="20.5,-79 20.5,-109 157.5,-109 157.5,-79 20.5,-79"/>
<text text-anchor="start" x="28.5" y="-97" font-family="Helvetica,sans-Serif" font-size="10.00">hpp::core::pathOptimization</text>
<text text-anchor="middle" x="89" y="-86" font-family="Helvetica,sans-Serif" font-size="10.00">::ConfigOptimizationTraits</text>
</a>
</g>
</g>
<!-- Node2&#45;&gt;Node1 -->
<g id="edge1" class="edge"><title>Node2&#45;&gt;Node1</title>
<path fill="none" stroke="midnightblue" d="M89,-68.8534C89,-59.9872 89,-50.065 89,-41.642"/>
<polygon fill="midnightblue" stroke="midnightblue" points="85.5001,-68.9727 89,-78.9727 92.5001,-68.9727 85.5001,-68.9727"/>
</g>
</g>
</svg>
