<?xml version="1.0" encoding="UTF-8" standalone="no"?>
<!DOCTYPE svg PUBLIC "-//W3C//DTD SVG 1.1//EN"
 "http://www.w3.org/Graphics/SVG/1.1/DTD/svg11.dtd">
<!-- Generated by graphviz version 2.36.0 (20140111.2315)
 -->
<!-- Title: hpp::manipulation::graph::NodeSelector Pages: 1 -->
<svg width="912pt" height="154pt"
 viewBox="0.00 0.00 912.00 154.00" xmlns="http://www.w3.org/2000/svg" xmlns:xlink="http://www.w3.org/1999/xlink">
<g id="graph0" class="graph" transform="scale(1 1) rotate(0) translate(4 150)">
<title>hpp::manipulation::graph::NodeSelector</title>
<polygon fill="white" stroke="none" points="-4,4 -4,-150 908,-150 908,4 -4,4"/>
<!-- Node1 -->
<g id="node1" class="node"><title>Node1</title>
<polygon fill="#bfbfbf" stroke="black" points="798,-33 798,-63 904,-63 904,-33 798,-33"/>
<text text-anchor="start" x="806" y="-51" font-family="Helvetica,sans-Serif" font-size="10.00">hpp::manipulation::</text>
<text text-anchor="middle" x="851" y="-40" font-family="Helvetica,sans-Serif" font-size="10.00">graph::NodeSelector</text>
</g>
<!-- Node2 -->
<g id="node2" class="node"><title>Node2</title>
<g id="a_node2"><a xlink:href="a00018.html" target="_top" xlink:title="Define common methods of the graph components. ">
<polygon fill="white" stroke="black" points="561.5,-77 561.5,-107 684.5,-107 684.5,-77 561.5,-77"/>
<text text-anchor="start" x="569.5" y="-95" font-family="Helvetica,sans-Serif" font-size="10.00">hpp::manipulation::</text>
<text text-anchor="middle" x="623" y="-84" font-family="Helvetica,sans-Serif" font-size="10.00">graph::GraphComponent</text>
</a>
</g>
</g>
<!-- Node2&#45;&gt;Node1 -->
<g id="edge1" class="edge"><title>Node2&#45;&gt;Node1</title>
<path fill="none" stroke="midnightblue" d="M694.857,-79.2502C721.574,-74.3318 752.216,-68.5584 780,-63 785.728,-61.8541 791.712,-60.6234 797.665,-59.3776"/>
<polygon fill="midnightblue" stroke="midnightblue" points="694.027,-75.8438 684.823,-81.0911 695.291,-82.7289 694.027,-75.8438"/>
</g>
<!-- Node3 -->
<g id="node3" class="node"><title>Node3</title>
<g id="a_node3"><a xlink:title="STL class. ">
<polygon fill="white" stroke="#bfbfbf" points="216.5,-126.5 216.5,-145.5 289.5,-145.5 289.5,-126.5 216.5,-126.5"/>
<text text-anchor="middle" x="253" y="-133.5" font-family="Helvetica,sans-Serif" font-size="10.00">std::list&lt; T &gt;</text>
</a>
</g>
</g>
<!-- Node3&#45;&gt;Node2 -->
<g id="edge2" class="edge"><title>Node3&#45;&gt;Node2</title>
<path fill="none" stroke="#9a32cd" stroke-dasharray="5,2" d="M299.967,-131.898C355.864,-126.729 453.028,-117.158 536,-106 544.246,-104.891 552.918,-103.612 561.453,-102.288"/>
<polygon fill="#9a32cd" stroke="#9a32cd" points="299.327,-128.442 289.689,-132.842 299.967,-135.413 299.327,-128.442"/>
<text text-anchor="middle" x="381" y="-135" font-family="Helvetica,sans-Serif" font-size="10.00"> lockedJoints_</text>
</g>
<!-- Node4 -->
<g id="node4" class="node"><title>Node4</title>
<polygon fill="white" stroke="#bfbfbf" points="0.5,-103.5 0.5,-122.5 29.5,-122.5 29.5,-103.5 0.5,-103.5"/>
<text text-anchor="middle" x="15" y="-110.5" font-family="Helvetica,sans-Serif" font-size="10.00">T</text>
</g>
<!-- Node4&#45;&gt;Node3 -->
<g id="edge3" class="edge"><title>Node4&#45;&gt;Node3</title>
<path fill="none" stroke="#9a32cd" stroke-dasharray="5,2" d="M39.7333,-115.313C81.3418,-119.368 167.657,-127.78 216.43,-132.533"/>
<polygon fill="#9a32cd" stroke="#9a32cd" points="40.0008,-111.823 29.7084,-114.336 39.3218,-118.79 40.0008,-111.823"/>
<text text-anchor="middle" x="70" y="-124" font-family="Helvetica,sans-Serif" font-size="10.00"> elements</text>
</g>
<!-- Node6 -->
<g id="node6" class="node"><title>Node6</title>
<g id="a_node6"><a xlink:title="STL class. ">
<polygon fill="white" stroke="#bfbfbf" points="110.5,-82.5 110.5,-101.5 197.5,-101.5 197.5,-82.5 110.5,-82.5"/>
<text text-anchor="middle" x="154" y="-89.5" font-family="Helvetica,sans-Serif" font-size="10.00">std::vector&lt; T &gt;</text>
</a>
</g>
</g>
<!-- Node4&#45;&gt;Node6 -->
<g id="edge6" class="edge"><title>Node4&#45;&gt;Node6</title>
<path fill="none" stroke="#9a32cd" stroke-dasharray="5,2" d="M39.1482,-101.77C42.0767,-100.679 45.073,-99.7147 48,-99 68.1442,-94.0813 91.0658,-92.1481 110.342,-91.52"/>
<polygon fill="#9a32cd" stroke="#9a32cd" points="37.5012,-98.6663 29.6529,-105.783 40.2266,-105.114 37.5012,-98.6663"/>
<text text-anchor="middle" x="70" y="-102" font-family="Helvetica,sans-Serif" font-size="10.00"> elements</text>
</g>
<!-- Node5 -->
<g id="node5" class="node"><title>Node5</title>
<polygon fill="white" stroke="#bfbfbf" points="308,-36.5 308,-55.5 454,-55.5 454,-36.5 308,-36.5"/>
<text text-anchor="middle" x="381" y="-43.5" font-family="Helvetica,sans-Serif" font-size="10.00">std::vector&lt; SizeIntervals_t &gt;</text>
</g>
<!-- Node5&#45;&gt;Node2 -->
<g id="edge4" class="edge"><title>Node5&#45;&gt;Node2</title>
<path fill="none" stroke="#9a32cd" stroke-dasharray="5,2" d="M464.272,-54.9389C487.58,-58.0873 512.892,-62.0938 536,-67 548.776,-69.7126 562.427,-73.3367 575.003,-76.9821"/>
<polygon fill="#9a32cd" stroke="#9a32cd" points="464.441,-51.4311 454.07,-53.5975 463.529,-58.3714 464.441,-51.4311"/>
<text text-anchor="middle" x="504" y="-70" font-family="Helvetica,sans-Serif" font-size="10.00"> passiveDofs_</text>
</g>
<!-- Node6&#45;&gt;Node2 -->
<g id="edge7" class="edge"><title>Node6&#45;&gt;Node2</title>
<path fill="none" stroke="#9a32cd" stroke-dasharray="5,2" d="M207.896,-92C295.271,-92 469.233,-92 561.414,-92"/>
<polygon fill="#9a32cd" stroke="#9a32cd" points="207.681,-88.5001 197.681,-92 207.681,-95.5001 207.681,-88.5001"/>
<text text-anchor="middle" x="381" y="-95" font-family="Helvetica,sans-Serif" font-size="10.00"> numericalConstraints_</text>
</g>
<!-- Node6&#45;&gt;Node5 -->
<g id="edge5" class="edge"><title>Node6&#45;&gt;Node5</title>
<path fill="none" stroke="#9a32cd" stroke-dasharray="5,2" d="M184.018,-78.2952C193.967,-74.0879 205.294,-69.827 216,-67 245.557,-59.1954 278.906,-54.25 307.775,-51.1356"/>
<polygon fill="#9a32cd" stroke="#9a32cd" points="182.352,-75.2043 174.603,-82.4295 185.166,-81.6137 182.352,-75.2043"/>
<text text-anchor="middle" x="253" y="-70" font-family="Helvetica,sans-Serif" font-size="10.00"> elements</text>
</g>
<!-- Node7 -->
<g id="node7" class="node"><title>Node7</title>
<polygon fill="white" stroke="#bfbfbf" points="554.5,-38.5 554.5,-57.5 691.5,-57.5 691.5,-38.5 554.5,-38.5"/>
<text text-anchor="middle" x="623" y="-45.5" font-family="Helvetica,sans-Serif" font-size="10.00">std::list&lt; WeighedNode_t &gt;</text>
</g>
<!-- Node7&#45;&gt;Node1 -->
<g id="edge8" class="edge"><title>Node7&#45;&gt;Node1</title>
<path fill="none" stroke="#9a32cd" stroke-dasharray="5,2" d="M701.66,-48C733.443,-48 769.373,-48 797.911,-48"/>
<polygon fill="#9a32cd" stroke="#9a32cd" points="701.501,-44.5001 691.501,-48 701.501,-51.5001 701.501,-44.5001"/>
<text text-anchor="middle" x="745" y="-51" font-family="Helvetica,sans-Serif" font-size="10.00"> orderedStates_</text>
</g>
<!-- Node8 -->
<g id="node8" class="node"><title>Node8</title>
<polygon fill="white" stroke="#bfbfbf" points="560.5,-0.5 560.5,-19.5 685.5,-19.5 685.5,-0.5 560.5,-0.5"/>
<text text-anchor="middle" x="623" y="-7.5" font-family="Helvetica,sans-Serif" font-size="10.00">std::vector&lt; NodePtr_t &gt;</text>
</g>
<!-- Node8&#45;&gt;Node1 -->
<g id="edge9" class="edge"><title>Node8&#45;&gt;Node1</title>
<path fill="none" stroke="#9a32cd" stroke-dasharray="5,2" d="M695.628,-19.5692C722.19,-23.3783 752.529,-28.0369 780,-33 785.748,-34.0385 791.746,-35.2013 797.706,-36.4078"/>
<polygon fill="#9a32cd" stroke="#9a32cd" points="696.04,-16.0926 685.647,-18.152 695.055,-23.0231 696.04,-16.0926"/>
<text text-anchor="middle" x="745" y="-36" font-family="Helvetica,sans-Serif" font-size="10.00"> waypoints_</text>
</g>
</g>
</svg>
