<?xml version="1.0" encoding="UTF-8" standalone="no"?>
<!DOCTYPE svg PUBLIC "-//W3C//DTD SVG 1.1//EN"
 "http://www.w3.org/Graphics/SVG/1.1/DTD/svg11.dtd">
<!-- Generated by graphviz version 2.36.0 (20140111.2315)
 -->
<!-- Title: manipulation Pages: 1 -->
<svg width="237pt" height="183pt"
 viewBox="0.00 0.00 237.00 183.00" xmlns="http://www.w3.org/2000/svg" xmlns:xlink="http://www.w3.org/1999/xlink">
<g id="graph0" class="graph" transform="scale(1 1) rotate(0) translate(4 179)">
<title>manipulation</title>
<polygon fill="white" stroke="none" points="-4,4 -4,-179 233,-179 233,4 -4,4"/>
<g id="clust1" class="cluster"><title>clusterdir_766a2b2ecef16448f861b8cf84e3a157</title>
<g id="a_clust1"><a xlink:href="dir_766a2b2ecef16448f861b8cf84e3a157.html" target="_top" xlink:title="hpp">
<polygon fill="#ddddee" stroke="black" points="8,-8 8,-167 221,-167 221,-8 8,-8"/>
<text text-anchor="middle" x="114.5" y="-155" font-family="Helvetica,sans-Serif" font-size="10.00">hpp</text>
</a>
</g>
</g>
<g id="clust2" class="cluster"><title>clusterdir_2b880ef3746c98d927fd3117f25fec4b</title>
<g id="a_clust2"><a xlink:href="dir_2b880ef3746c98d927fd3117f25fec4b.html" target="_top">
<polygon fill="#eeeeff" stroke="black" points="16,-16 16,-140 213,-140 213,-16 16,-16"/>
</a>
</g>
</g>
<!-- dir_2b880ef3746c98d927fd3117f25fec4b -->
<g id="node1" class="node"><title>dir_2b880ef3746c98d927fd3117f25fec4b</title>
<text text-anchor="middle" x="169" y="-111.5" font-family="Helvetica,sans-Serif" font-size="10.00">manipulation</text>
</g>
<!-- dir_7e75e2a5afaf8abfbbf2cd9b204daad1 -->
<g id="node2" class="node"><title>dir_7e75e2a5afaf8abfbbf2cd9b204daad1</title>
<g id="a_node2"><a xlink:href="dir_7e75e2a5afaf8abfbbf2cd9b204daad1.html" target="_top" xlink:title="graph">
<polygon fill="white" stroke="black" points="196,-60 142,-60 142,-24 196,-24 196,-60"/>
<text text-anchor="middle" x="169" y="-39.5" font-family="Helvetica,sans-Serif" font-size="10.00">graph</text>
</a>
</g>
</g>
<!-- dir_2b880ef3746c98d927fd3117f25fec4b&#45;&gt;dir_7e75e2a5afaf8abfbbf2cd9b204daad1 -->
<g id="edge1" class="edge"><title>dir_2b880ef3746c98d927fd3117f25fec4b&#45;&gt;dir_7e75e2a5afaf8abfbbf2cd9b204daad1</title>
<path fill="none" stroke="black" d="M169,-95.6966C169,-87.9827 169,-78.7125 169,-70.1124"/>
<polygon fill="black" stroke="black" points="172.5,-70.1043 169,-60.1043 165.5,-70.1044 172.5,-70.1043"/>
<g id="a_edge1&#45;headlabel"><a xlink:href="dir_000002_000004.html" target="_top" xlink:title="16">
<text text-anchor="middle" x="175.339" y="-71.199" font-family="Helvetica,sans-Serif" font-size="10.00">16</text>
</a>
</g>
</g>
<!-- dir_8397681547b407ccc2b62dc91071649b -->
<g id="node3" class="node"><title>dir_8397681547b407ccc2b62dc91071649b</title>
<g id="a_node3"><a xlink:href="dir_8397681547b407ccc2b62dc91071649b.html" target="_top" xlink:title="path&#45;optimization">
<polygon fill="white" stroke="black" points="115.25,-132 24.75,-132 24.75,-96 115.25,-96 115.25,-132"/>
<text text-anchor="middle" x="70" y="-111.5" font-family="Helvetica,sans-Serif" font-size="10.00">path&#45;optimization</text>
</a>
</g>
</g>
</g>
</svg>
