<?xml version="1.0" encoding="UTF-8" standalone="no"?>
<!DOCTYPE svg PUBLIC "-//W3C//DTD SVG 1.1//EN"
 "http://www.w3.org/Graphics/SVG/1.1/DTD/svg11.dtd">
<!-- Generated by graphviz version 2.36.0 (20140111.2315)
 -->
<!-- Title: Graphical Class Hierarchy Pages: 1 -->
<svg width="286pt" height="136pt"
 viewBox="0.00 0.00 286.00 136.00" xmlns="http://www.w3.org/2000/svg" xmlns:xlink="http://www.w3.org/1999/xlink">
<g id="graph0" class="graph" transform="scale(1 1) rotate(0) translate(4 132)">
<title>Graphical Class Hierarchy</title>
<polygon fill="white" stroke="none" points="-4,4 -4,-132 282,-132 282,4 -4,4"/>
<!-- Node1 -->
<g id="node1" class="node"><title>Node1</title>
<g id="a_node1"><a xlink:href="a00025.html" target="_top" xlink:title="hpp::manipulation::\lgraph::Histogram">
<polygon fill="white" stroke="black" points="13.5,-49 13.5,-79 112.5,-79 112.5,-49 13.5,-49"/>
<text text-anchor="start" x="21.5" y="-67" font-family="Helvetica,sans-Serif" font-size="10.00">hpp::manipulation::</text>
<text text-anchor="middle" x="63" y="-56" font-family="Helvetica,sans-Serif" font-size="10.00">graph::Histogram</text>
</a>
</g>
</g>
<!-- Node2 -->
<g id="node2" class="node"><title>Node2</title>
<g id="a_node2"><a xlink:href="a00027.html" target="_top" xlink:title="hpp::manipulation::\lgraph::LeafHistogram">
<polygon fill="white" stroke="black" points="165,-73 165,-103 275,-103 275,-73 165,-73"/>
<text text-anchor="start" x="173" y="-91" font-family="Helvetica,sans-Serif" font-size="10.00">hpp::manipulation::</text>
<text text-anchor="middle" x="220" y="-80" font-family="Helvetica,sans-Serif" font-size="10.00">graph::LeafHistogram</text>
</a>
</g>
</g>
<!-- Node1&#45;&gt;Node2 -->
<g id="edge1" class="edge"><title>Node1&#45;&gt;Node2</title>
<path fill="none" stroke="midnightblue" d="M122.554,-73.0664C136.448,-75.2178 151.208,-77.5031 164.893,-79.6222"/>
<polygon fill="midnightblue" stroke="midnightblue" points="123.036,-69.5994 112.618,-71.5279 121.964,-76.5169 123.036,-69.5994"/>
</g>
<!-- Node3 -->
<g id="node3" class="node"><title>Node3</title>
<g id="a_node3"><a xlink:href="a00032.html" target="_top" xlink:title="hpp::manipulation::\lgraph::NodeHistogram">
<polygon fill="white" stroke="black" points="162.5,-12 162.5,-42 277.5,-42 277.5,-12 162.5,-12"/>
<text text-anchor="start" x="170.5" y="-30" font-family="Helvetica,sans-Serif" font-size="10.00">hpp::manipulation::</text>
<text text-anchor="middle" x="220" y="-19" font-family="Helvetica,sans-Serif" font-size="10.00">graph::NodeHistogram</text>
</a>
</g>
</g>
<!-- Node1&#45;&gt;Node3 -->
<g id="edge2" class="edge"><title>Node1&#45;&gt;Node3</title>
<path fill="none" stroke="midnightblue" d="M122.452,-50.0469C135.545,-46.9215 149.411,-43.6115 162.426,-40.5047"/>
<polygon fill="midnightblue" stroke="midnightblue" points="121.532,-46.6682 112.618,-52.3945 123.157,-53.4769 121.532,-46.6682"/>
</g>
<!-- Node4 -->
<g id="node4" class="node"><title>Node4</title>
<g id="a_node4"><a doxygen="https://jmirabel.github.io/hpp-doc/api/hpp-statistics/doxygen-html/hpp-statistics.doxytag:https://jmirabel.github.io/hpp-doc/api/hpp-statistics/doxygen-html/" xlink:href="https://jmirabel.github.io/hpp-doc/api/hpp-statistics/doxygen-html/a00005.html" target="_top" xlink:title="hpp::statistics::Statistics\l\&lt; LeafBin \&gt;">
<polygon fill="white" stroke="black" points="0.5,-98 0.5,-128 125.5,-128 125.5,-98 0.5,-98"/>
<text text-anchor="start" x="8.5" y="-116" font-family="Helvetica,sans-Serif" font-size="10.00">hpp::statistics::Statistics</text>
<text text-anchor="middle" x="63" y="-105" font-family="Helvetica,sans-Serif" font-size="10.00">&lt; LeafBin &gt;</text>
</a>
</g>
</g>
<!-- Node4&#45;&gt;Node2 -->
<g id="edge3" class="edge"><title>Node4&#45;&gt;Node2</title>
<path fill="none" stroke="midnightblue" d="M135.725,-101.431C145.407,-99.8699 155.209,-98.2889 164.523,-96.7866"/>
<polygon fill="midnightblue" stroke="midnightblue" points="135.021,-97.9998 125.705,-103.048 136.135,-104.91 135.021,-97.9998"/>
</g>
<!-- Node5 -->
<g id="node5" class="node"><title>Node5</title>
<g id="a_node5"><a doxygen="https://jmirabel.github.io/hpp-doc/api/hpp-statistics/doxygen-html/hpp-statistics.doxytag:https://jmirabel.github.io/hpp-doc/api/hpp-statistics/doxygen-html/" xlink:href="https://jmirabel.github.io/hpp-doc/api/hpp-statistics/doxygen-html/a00005.html" target="_top" xlink:title="hpp::statistics::Statistics\l\&lt; NodeBin \&gt;">
<polygon fill="white" stroke="black" points="0.5,-0 0.5,-30 125.5,-30 125.5,-0 0.5,-0"/>
<text text-anchor="start" x="8.5" y="-18" font-family="Helvetica,sans-Serif" font-size="10.00">hpp::statistics::Statistics</text>
<text text-anchor="middle" x="63" y="-7" font-family="Helvetica,sans-Serif" font-size="10.00">&lt; NodeBin &gt;</text>
</a>
</g>
</g>
<!-- Node5&#45;&gt;Node3 -->
<g id="edge4" class="edge"><title>Node5&#45;&gt;Node3</title>
<path fill="none" stroke="midnightblue" d="M135.703,-20.5512C144.619,-21.2415 153.638,-21.9397 162.285,-22.6091"/>
<polygon fill="midnightblue" stroke="midnightblue" points="135.946,-17.0596 125.705,-19.7772 135.405,-24.0387 135.946,-17.0596"/>
</g>
</g>
</svg>
