<?xml version="1.0" encoding="UTF-8" standalone="no"?>
<!DOCTYPE svg PUBLIC "-//W3C//DTD SVG 1.1//EN"
 "http://www.w3.org/Graphics/SVG/1.1/DTD/svg11.dtd">
<!-- Generated by graphviz version 2.36.0 (20140111.2315)
 -->
<!-- Title: Graphical Class Hierarchy Pages: 1 -->
<svg width="384pt" height="48pt"
 viewBox="0.00 0.00 384.00 48.00" xmlns="http://www.w3.org/2000/svg" xmlns:xlink="http://www.w3.org/1999/xlink">
<g id="graph0" class="graph" transform="scale(1 1) rotate(0) translate(4 44)">
<title>Graphical Class Hierarchy</title>
<polygon fill="white" stroke="none" points="-4,4 -4,-44 380,-44 380,4 -4,4"/>
<!-- Node1 -->
<g id="node1" class="node"><title>Node1</title>
<g id="a_node1"><a doxygen="https://jmirabel.github.io/hpp-doc/api/hpp-core/doxygen-html/hpp-core.doxytag:https://jmirabel.github.io/hpp-doc/api/hpp-core/doxygen-html/" xlink:href="https://jmirabel.github.io/hpp-doc/api/hpp-core/doxygen-html/a00021.html" target="_top" xlink:title="Containers\&lt; boost::\lmpl::vector\&lt; boost::\lany \&gt; \&gt;">
<polygon fill="white" stroke="black" points="0,0.5 0,-40.5 104,-40.5 104,0.5 0,0.5"/>
<text text-anchor="start" x="8" y="-28.5" font-family="Helvetica,sans-Serif" font-size="10.00">Containers&lt; boost::</text>
<text text-anchor="start" x="8" y="-17.5" font-family="Helvetica,sans-Serif" font-size="10.00">mpl::vector&lt; boost::</text>
<text text-anchor="middle" x="52" y="-6.5" font-family="Helvetica,sans-Serif" font-size="10.00">any &gt; &gt;</text>
</a>
</g>
</g>
<!-- Node2 -->
<g id="node2" class="node"><title>Node2</title>
<g id="a_node2"><a doxygen="https://jmirabel.github.io/hpp-doc/api/hpp-core/doxygen-html/hpp-core.doxytag:https://jmirabel.github.io/hpp-doc/api/hpp-core/doxygen-html/" xlink:href="https://jmirabel.github.io/hpp-doc/api/hpp-core/doxygen-html/a00067.html" target="_top" xlink:title="hpp::core::Problem">
<polygon fill="white" stroke="black" points="140.5,-10.5 140.5,-29.5 239.5,-29.5 239.5,-10.5 140.5,-10.5"/>
<text text-anchor="middle" x="190" y="-17.5" font-family="Helvetica,sans-Serif" font-size="10.00">hpp::core::Problem</text>
</a>
</g>
</g>
<!-- Node1&#45;&gt;Node2 -->
<g id="edge1" class="edge"><title>Node1&#45;&gt;Node2</title>
<path fill="none" stroke="midnightblue" d="M114.217,-20C122.986,-20 131.907,-20 140.388,-20"/>
<polygon fill="midnightblue" stroke="midnightblue" points="114.028,-16.5001 104.028,-20 114.028,-23.5001 114.028,-16.5001"/>
</g>
<!-- Node3 -->
<g id="node3" class="node"><title>Node3</title>
<g id="a_node3"><a xlink:href="a00036.html" target="_top" xlink:title="hpp::manipulation::\lProblem">
<polygon fill="white" stroke="black" points="276.5,-5 276.5,-35 375.5,-35 375.5,-5 276.5,-5"/>
<text text-anchor="start" x="284.5" y="-23" font-family="Helvetica,sans-Serif" font-size="10.00">hpp::manipulation::</text>
<text text-anchor="middle" x="326" y="-12" font-family="Helvetica,sans-Serif" font-size="10.00">Problem</text>
</a>
</g>
</g>
<!-- Node2&#45;&gt;Node3 -->
<g id="edge2" class="edge"><title>Node2&#45;&gt;Node3</title>
<path fill="none" stroke="midnightblue" d="M249.891,-20C258.628,-20 267.551,-20 276.056,-20"/>
<polygon fill="midnightblue" stroke="midnightblue" points="249.756,-16.5001 239.756,-20 249.756,-23.5001 249.756,-16.5001"/>
</g>
</g>
</svg>
