<?xml version="1.0" encoding="UTF-8" standalone="no"?>
<!DOCTYPE svg PUBLIC "-//W3C//DTD SVG 1.1//EN"
 "http://www.w3.org/Graphics/SVG/1.1/DTD/svg11.dtd">
<!-- Generated by graphviz version 2.36.0 (20140111.2315)
 -->
<!-- Title: Graphical Class Hierarchy Pages: 1 -->
<svg width="362pt" height="48pt"
 viewBox="0.00 0.00 362.00 48.00" xmlns="http://www.w3.org/2000/svg" xmlns:xlink="http://www.w3.org/1999/xlink">
<g id="graph0" class="graph" transform="scale(1 1) rotate(0) translate(4 44)">
<title>Graphical Class Hierarchy</title>
<polygon fill="white" stroke="none" points="-4,4 -4,-44 358,-44 358,4 -4,4"/>
<!-- Node1 -->
<g id="node1" class="node"><title>Node1</title>
<g id="a_node1"><a doxygen="https://jmirabel.github.io/hpp-doc/api/hpp-core/doxygen-html/hpp-core.doxytag:https://jmirabel.github.io/hpp-doc/api/hpp-core/doxygen-html/" xlink:href="https://jmirabel.github.io/hpp-doc/api/hpp-core/doxygen-html/a00013.html" target="_top" xlink:title="hpp::core::pathOptimization\l::ConfigOptimizationTraits">
<polygon fill="white" stroke="black" points="0.5,-5 0.5,-35 137.5,-35 137.5,-5 0.5,-5"/>
<text text-anchor="start" x="8.5" y="-23" font-family="Helvetica,sans-Serif" font-size="10.00">hpp::core::pathOptimization</text>
<text text-anchor="middle" x="69" y="-12" font-family="Helvetica,sans-Serif" font-size="10.00">::ConfigOptimizationTraits</text>
</a>
</g>
</g>
<!-- Node2 -->
<g id="node2" class="node"><title>Node2</title>
<g id="a_node2"><a xlink:href="a00009.html" target="_top" xlink:title="Optimize the waypoints of the path and optionally add the constraint::ConfigurationConstraint to the ...">
<polygon fill="white" stroke="black" points="174.5,0.5 174.5,-40.5 353.5,-40.5 353.5,0.5 174.5,0.5"/>
<text text-anchor="start" x="182.5" y="-28.5" font-family="Helvetica,sans-Serif" font-size="10.00">hpp::manipulation::</text>
<text text-anchor="start" x="182.5" y="-17.5" font-family="Helvetica,sans-Serif" font-size="10.00">pathOptimization::ConfigOptimization</text>
<text text-anchor="middle" x="264" y="-6.5" font-family="Helvetica,sans-Serif" font-size="10.00">Traits</text>
</a>
</g>
</g>
<!-- Node1&#45;&gt;Node2 -->
<g id="edge1" class="edge"><title>Node1&#45;&gt;Node2</title>
<path fill="none" stroke="midnightblue" d="M147.634,-20C156.364,-20 165.308,-20 174.166,-20"/>
<polygon fill="midnightblue" stroke="midnightblue" points="147.502,-16.5001 137.502,-20 147.502,-23.5001 147.502,-16.5001"/>
</g>
</g>
</svg>
