<?xml version="1.0" encoding="UTF-8" standalone="no"?>
<!DOCTYPE svg PUBLIC "-//W3C//DTD SVG 1.1//EN"
 "http://www.w3.org/Graphics/SVG/1.1/DTD/svg11.dtd">
<!-- Generated by graphviz version 2.36.0 (20140111.2315)
 -->
<!-- Title: Graphical Class Hierarchy Pages: 1 -->
<svg width="412pt" height="38pt"
 viewBox="0.00 0.00 412.00 38.00" xmlns="http://www.w3.org/2000/svg" xmlns:xlink="http://www.w3.org/1999/xlink">
<g id="graph0" class="graph" transform="scale(1 1) rotate(0) translate(4 34)">
<title>Graphical Class Hierarchy</title>
<polygon fill="white" stroke="none" points="-4,4 -4,-34 408,-34 408,4 -4,4"/>
<!-- Node1 -->
<g id="node1" class="node"><title>Node1</title>
<g id="a_node1"><a doxygen="https://jmirabel.github.io/hpp-doc/api/hpp-core/doxygen-html/hpp-core.doxytag:https://jmirabel.github.io/hpp-doc/api/hpp-core/doxygen-html/" xlink:href="https://jmirabel.github.io/hpp-doc/api/hpp-core/doxygen-html/a00019.html" target="_top" xlink:title="hpp::core::Constraint">
<polygon fill="white" stroke="black" points="0,-5.5 0,-24.5 108,-24.5 108,-5.5 0,-5.5"/>
<text text-anchor="middle" x="54" y="-12.5" font-family="Helvetica,sans-Serif" font-size="10.00">hpp::core::Constraint</text>
</a>
</g>
</g>
<!-- Node2 -->
<g id="node2" class="node"><title>Node2</title>
<g id="a_node2"><a doxygen="https://jmirabel.github.io/hpp-doc/api/hpp-core/doxygen-html/hpp-core.doxytag:https://jmirabel.github.io/hpp-doc/api/hpp-core/doxygen-html/" xlink:href="https://jmirabel.github.io/hpp-doc/api/hpp-core/doxygen-html/a00020.html" target="_top" xlink:title="hpp::core::ConstraintSet">
<polygon fill="white" stroke="black" points="144.5,-5.5 144.5,-24.5 267.5,-24.5 267.5,-5.5 144.5,-5.5"/>
<text text-anchor="middle" x="206" y="-12.5" font-family="Helvetica,sans-Serif" font-size="10.00">hpp::core::ConstraintSet</text>
</a>
</g>
</g>
<!-- Node1&#45;&gt;Node2 -->
<g id="edge1" class="edge"><title>Node1&#45;&gt;Node2</title>
<path fill="none" stroke="midnightblue" d="M118.337,-15C126.989,-15 135.853,-15 144.454,-15"/>
<polygon fill="midnightblue" stroke="midnightblue" points="118.307,-11.5001 108.307,-15 118.307,-18.5001 118.307,-11.5001"/>
</g>
<!-- Node3 -->
<g id="node3" class="node"><title>Node3</title>
<g id="a_node3"><a xlink:href="a00011.html" target="_top" xlink:title="a core::ConstraintSet remembering which edge created it ">
<polygon fill="white" stroke="black" points="304.5,-0 304.5,-30 403.5,-30 403.5,-0 304.5,-0"/>
<text text-anchor="start" x="312.5" y="-18" font-family="Helvetica,sans-Serif" font-size="10.00">hpp::manipulation::</text>
<text text-anchor="middle" x="354" y="-7" font-family="Helvetica,sans-Serif" font-size="10.00">ConstraintSet</text>
</a>
</g>
</g>
<!-- Node2&#45;&gt;Node3 -->
<g id="edge2" class="edge"><title>Node2&#45;&gt;Node3</title>
<path fill="none" stroke="midnightblue" d="M277.752,-15C286.744,-15 295.781,-15 304.318,-15"/>
<polygon fill="midnightblue" stroke="midnightblue" points="277.649,-11.5001 267.649,-15 277.649,-18.5001 277.649,-11.5001"/>
</g>
</g>
</svg>
