<?xml version="1.0" encoding="UTF-8" standalone="no"?>
<!DOCTYPE svg PUBLIC "-//W3C//DTD SVG 1.1//EN"
 "http://www.w3.org/Graphics/SVG/1.1/DTD/svg11.dtd">
<!-- Generated by graphviz version 2.36.0 (20140111.2315)
 -->
<!-- Title: Graphical Class Hierarchy Pages: 1 -->
<svg width="316pt" height="136pt"
 viewBox="0.00 0.00 316.00 136.00" xmlns="http://www.w3.org/2000/svg" xmlns:xlink="http://www.w3.org/1999/xlink">
<g id="graph0" class="graph" transform="scale(1 1) rotate(0) translate(4 132)">
<title>Graphical Class Hierarchy</title>
<polygon fill="white" stroke="none" points="-4,4 -4,-132 312,-132 312,4 -4,4"/>
<!-- Node1 -->
<g id="node1" class="node"><title>Node1</title>
<g id="a_node1"><a doxygen="https://jmirabel.github.io/hpp-doc/api/hpp-core/doxygen-html/hpp-core.doxytag:https://jmirabel.github.io/hpp-doc/api/hpp-core/doxygen-html/" xlink:href="https://jmirabel.github.io/hpp-doc/api/hpp-core/doxygen-html/a00059.html" target="_top" xlink:title="hpp::core::PathOptimizer">
<polygon fill="white" stroke="black" points="0.5,-54.5 0.5,-73.5 125.5,-73.5 125.5,-54.5 0.5,-54.5"/>
<text text-anchor="middle" x="63" y="-61.5" font-family="Helvetica,sans-Serif" font-size="10.00">hpp::core::PathOptimizer</text>
</a>
</g>
</g>
<!-- Node2 -->
<g id="node2" class="node"><title>Node2</title>
<g id="a_node2"><a xlink:href="a00019.html" target="_top" xlink:title="Path optimizer that recompute the edge parameter of the constraints. ">
<polygon fill="white" stroke="black" points="181,-98 181,-128 289,-128 289,-98 181,-98"/>
<text text-anchor="start" x="189" y="-116" font-family="Helvetica,sans-Serif" font-size="10.00">hpp::manipulation::</text>
<text text-anchor="middle" x="235" y="-105" font-family="Helvetica,sans-Serif" font-size="10.00">GraphNodeOptimizer</text>
</a>
</g>
</g>
<!-- Node1&#45;&gt;Node2 -->
<g id="edge1" class="edge"><title>Node1&#45;&gt;Node2</title>
<path fill="none" stroke="midnightblue" d="M106.901,-76.3657C129.663,-82.9265 157.813,-91.0403 181.831,-97.963"/>
<polygon fill="midnightblue" stroke="midnightblue" points="107.759,-72.9706 97.1813,-73.564 105.821,-79.6968 107.759,-72.9706"/>
</g>
<!-- Node3 -->
<g id="node3" class="node"><title>Node3</title>
<g id="a_node3"><a xlink:href="a00020.html" target="_top" xlink:title="Path optimizer for paths created with the constraint graph. ">
<polygon fill="white" stroke="black" points="185.5,-49 185.5,-79 284.5,-79 284.5,-49 185.5,-49"/>
<text text-anchor="start" x="193.5" y="-67" font-family="Helvetica,sans-Serif" font-size="10.00">hpp::manipulation::</text>
<text text-anchor="middle" x="235" y="-56" font-family="Helvetica,sans-Serif" font-size="10.00">GraphOptimizer</text>
</a>
</g>
</g>
<!-- Node1&#45;&gt;Node3 -->
<g id="edge2" class="edge"><title>Node1&#45;&gt;Node3</title>
<path fill="none" stroke="midnightblue" d="M136.072,-64C152.659,-64 169.919,-64 185.244,-64"/>
<polygon fill="midnightblue" stroke="midnightblue" points="135.855,-60.5001 125.855,-64 135.855,-67.5001 135.855,-60.5001"/>
</g>
<!-- Node4 -->
<g id="node4" class="node"><title>Node4</title>
<g id="a_node4"><a xlink:href="a00040.html" target="_top" xlink:title="Walking trajectory generator for paths created with the constraint graph. ">
<polygon fill="white" stroke="black" points="162,-0 162,-30 308,-30 308,-0 162,-0"/>
<text text-anchor="start" x="170" y="-18" font-family="Helvetica,sans-Serif" font-size="10.00">hpp::manipulation::</text>
<text text-anchor="middle" x="235" y="-7" font-family="Helvetica,sans-Serif" font-size="10.00">pathOptimization::SmallSteps</text>
</a>
</g>
</g>
<!-- Node1&#45;&gt;Node4 -->
<g id="edge3" class="edge"><title>Node1&#45;&gt;Node4</title>
<path fill="none" stroke="midnightblue" d="M106.901,-51.6343C129.663,-45.0735 157.813,-36.9597 181.831,-30.037"/>
<polygon fill="midnightblue" stroke="midnightblue" points="105.821,-48.3032 97.1813,-54.436 107.759,-55.0294 105.821,-48.3032"/>
</g>
</g>
</svg>
