<?xml version="1.0" encoding="UTF-8" standalone="no"?>
<!DOCTYPE svg PUBLIC "-//W3C//DTD SVG 1.1//EN"
 "http://www.w3.org/Graphics/SVG/1.1/DTD/svg11.dtd">
<!-- Generated by graphviz version 2.36.0 (20140111.2315)
 -->
<!-- Title: Graphical Class Hierarchy Pages: 1 -->
<svg width="242pt" height="87pt"
 viewBox="0.00 0.00 242.00 87.00" xmlns="http://www.w3.org/2000/svg" xmlns:xlink="http://www.w3.org/1999/xlink">
<g id="graph0" class="graph" transform="scale(1 1) rotate(0) translate(4 83)">
<title>Graphical Class Hierarchy</title>
<polygon fill="white" stroke="none" points="-4,4 -4,-83 238,-83 238,4 -4,4"/>
<!-- Node1 -->
<g id="node1" class="node"><title>Node1</title>
<g id="a_node1"><a doxygen="https://jmirabel.github.io/hpp-doc/api/hpp-statistics/doxygen-html/hpp-statistics.doxytag:https://jmirabel.github.io/hpp-doc/api/hpp-statistics/doxygen-html/" xlink:href="https://jmirabel.github.io/hpp-doc/api/hpp-statistics/doxygen-html/a00001.html" target="_top" xlink:title="hpp::statistics::Bin">
<polygon fill="white" stroke="black" points="0,-29.5 0,-48.5 98,-48.5 98,-29.5 0,-29.5"/>
<text text-anchor="middle" x="49" y="-36.5" font-family="Helvetica,sans-Serif" font-size="10.00">hpp::statistics::Bin</text>
</a>
</g>
</g>
<!-- Node2 -->
<g id="node2" class="node"><title>Node2</title>
<g id="a_node2"><a xlink:href="a00026.html" target="_top" xlink:title="This class is used to do statistics on the roadmap. ">
<polygon fill="white" stroke="black" points="134.5,-49 134.5,-79 233.5,-79 233.5,-49 134.5,-49"/>
<text text-anchor="start" x="142.5" y="-67" font-family="Helvetica,sans-Serif" font-size="10.00">hpp::manipulation::</text>
<text text-anchor="middle" x="184" y="-56" font-family="Helvetica,sans-Serif" font-size="10.00">graph::LeafBin</text>
</a>
</g>
</g>
<!-- Node1&#45;&gt;Node2 -->
<g id="edge1" class="edge"><title>Node1&#45;&gt;Node2</title>
<path fill="none" stroke="midnightblue" d="M108.098,-49.9206C116.793,-51.5551 125.683,-53.2261 134.16,-54.8196"/>
<polygon fill="midnightblue" stroke="midnightblue" points="108.491,-46.4332 98.0161,-48.0256 107.197,-53.3128 108.491,-46.4332"/>
</g>
<!-- Node3 -->
<g id="node3" class="node"><title>Node3</title>
<g id="a_node3"><a xlink:href="a00031.html" target="_top" xlink:title="This class is used to do statistics on the roadmap. ">
<polygon fill="white" stroke="black" points="134.5,-0 134.5,-30 233.5,-30 233.5,-0 134.5,-0"/>
<text text-anchor="start" x="142.5" y="-18" font-family="Helvetica,sans-Serif" font-size="10.00">hpp::manipulation::</text>
<text text-anchor="middle" x="184" y="-7" font-family="Helvetica,sans-Serif" font-size="10.00">graph::NodeBin</text>
</a>
</g>
</g>
<!-- Node1&#45;&gt;Node3 -->
<g id="edge2" class="edge"><title>Node1&#45;&gt;Node3</title>
<path fill="none" stroke="midnightblue" d="M108.098,-28.5162C116.793,-26.9471 125.683,-25.3429 134.16,-23.8132"/>
<polygon fill="midnightblue" stroke="midnightblue" points="107.236,-25.1152 98.0161,-30.3354 108.479,-32.0039 107.236,-25.1152"/>
</g>
</g>
</svg>
