<?xml version="1.0" encoding="UTF-8" standalone="no"?>
<!DOCTYPE svg PUBLIC "-//W3C//DTD SVG 1.1//EN"
 "http://www.w3.org/Graphics/SVG/1.1/DTD/svg11.dtd">
<!-- Generated by graphviz version 2.36.0 (20140111.2315)
 -->
<!-- Title: hpp::plot::HppManipulationGraphWidget Pages: 1 -->
<svg width="140pt" height="152pt"
 viewBox="0.00 0.00 140.00 152.00" xmlns="http://www.w3.org/2000/svg" xmlns:xlink="http://www.w3.org/1999/xlink">
<g id="graph0" class="graph" transform="scale(1 1) rotate(0) translate(4 148)">
<title>hpp::plot::HppManipulationGraphWidget</title>
<polygon fill="white" stroke="none" points="-4,4 -4,-148 136,-148 136,4 -4,4"/>
<!-- Node1 -->
<g id="node1" class="node"><title>Node1</title>
<polygon fill="#bfbfbf" stroke="black" points="-0.5,-1 -0.5,-31 132.5,-31 132.5,-1 -0.5,-1"/>
<text text-anchor="start" x="7.5" y="-19" font-family="Helvetica,sans-Serif" font-size="10.00">hpp::plot::HppManipulation</text>
<text text-anchor="middle" x="66" y="-8" font-family="Helvetica,sans-Serif" font-size="10.00">GraphWidget</text>
</g>
<!-- Node2 -->
<g id="node2" class="node"><title>Node2</title>
<g id="a_node2"><a xlink:href="a00003.html" target="_top" xlink:title="hpp::plot::GraphWidget">
<polygon fill="white" stroke="black" points="7.5,-68.5 7.5,-87.5 124.5,-87.5 124.5,-68.5 7.5,-68.5"/>
<text text-anchor="middle" x="66" y="-75.5" font-family="Helvetica,sans-Serif" font-size="10.00">hpp::plot::GraphWidget</text>
</a>
</g>
</g>
<!-- Node2&#45;&gt;Node1 -->
<g id="edge1" class="edge"><title>Node2&#45;&gt;Node1</title>
<path fill="none" stroke="midnightblue" d="M66,-58.3707C66,-49.5849 66,-39.2721 66,-31.1408"/>
<polygon fill="midnightblue" stroke="midnightblue" points="62.5001,-58.4034 66,-68.4035 69.5001,-58.4035 62.5001,-58.4034"/>
</g>
<!-- Node3 -->
<g id="node3" class="node"><title>Node3</title>
<polygon fill="white" stroke="#bfbfbf" points="38.5,-124.5 38.5,-143.5 93.5,-143.5 93.5,-124.5 38.5,-124.5"/>
<text text-anchor="middle" x="66" y="-131.5" font-family="Helvetica,sans-Serif" font-size="10.00">QWidget</text>
</g>
<!-- Node3&#45;&gt;Node2 -->
<g id="edge2" class="edge"><title>Node3&#45;&gt;Node2</title>
<path fill="none" stroke="midnightblue" d="M66,-113.805C66,-104.91 66,-94.7798 66,-87.7511"/>
<polygon fill="midnightblue" stroke="midnightblue" points="62.5001,-114.083 66,-124.083 69.5001,-114.083 62.5001,-114.083"/>
</g>
</g>
</svg>
