<?xml version="1.0" encoding="UTF-8" standalone="no"?>
<!DOCTYPE svg PUBLIC "-//W3C//DTD SVG 1.1//EN"
 "http://www.w3.org/Graphics/SVG/1.1/DTD/svg11.dtd">
<!-- Generated by graphviz version 2.36.0 (20140111.2315)
 -->
<!-- Title: histogram&#45;widget.cc Pages: 1 -->
<svg width="1989pt" height="164pt"
 viewBox="0.00 0.00 1989.00 164.00" xmlns="http://www.w3.org/2000/svg" xmlns:xlink="http://www.w3.org/1999/xlink">
<g id="graph0" class="graph" transform="scale(1 1) rotate(0) translate(4 160)">
<title>histogram&#45;widget.cc</title>
<polygon fill="white" stroke="none" points="-4,4 -4,-160 1985,-160 1985,4 -4,4"/>
<!-- Node1 -->
<g id="node1" class="node"><title>Node1</title>
<polygon fill="#bfbfbf" stroke="black" points="997,-136.5 997,-155.5 1101,-155.5 1101,-136.5 997,-136.5"/>
<text text-anchor="middle" x="1049" y="-143.5" font-family="Helvetica,sans-Serif" font-size="10.00">histogram&#45;widget.cc</text>
</g>
<!-- Node2 -->
<g id="node2" class="node"><title>Node2</title>
<g id="a_node2"><a xlink:href="a00057.html" target="_top" xlink:title="hpp/plot/histogram\l&#45;widget.hh">
<polygon fill="white" stroke="black" points="948.5,-69 948.5,-99 1045.5,-99 1045.5,-69 948.5,-69"/>
<text text-anchor="start" x="956.5" y="-87" font-family="Helvetica,sans-Serif" font-size="10.00">hpp/plot/histogram</text>
<text text-anchor="middle" x="997" y="-76" font-family="Helvetica,sans-Serif" font-size="10.00">&#45;widget.hh</text>
</a>
</g>
</g>
<!-- Node1&#45;&gt;Node2 -->
<g id="edge1" class="edge"><title>Node1&#45;&gt;Node2</title>
<path fill="none" stroke="midnightblue" d="M1041.55,-136.403C1034.9,-128.733 1024.88,-117.167 1016.02,-106.948"/>
<polygon fill="midnightblue" stroke="midnightblue" points="1018.45,-104.405 1009.26,-99.1408 1013.16,-108.99 1018.45,-104.405"/>
</g>
<!-- Node27 -->
<g id="node27" class="node"><title>Node27</title>
<polygon fill="white" stroke="#bfbfbf" points="1063.5,-74.5 1063.5,-93.5 1138.5,-93.5 1138.5,-74.5 1063.5,-74.5"/>
<text text-anchor="middle" x="1101" y="-81.5" font-family="Helvetica,sans-Serif" font-size="10.00">QPushButton</text>
</g>
<!-- Node1&#45;&gt;Node27 -->
<g id="edge26" class="edge"><title>Node1&#45;&gt;Node27</title>
<path fill="none" stroke="midnightblue" d="M1056.45,-136.403C1064.33,-127.314 1076.94,-112.756 1086.74,-101.449"/>
<polygon fill="midnightblue" stroke="midnightblue" points="1089.66,-103.43 1093.56,-93.5806 1084.37,-98.8452 1089.66,-103.43"/>
</g>
<!-- Node3 -->
<g id="node3" class="node"><title>Node3</title>
<polygon fill="white" stroke="#bfbfbf" points="-0.5,-6.5 -0.5,-25.5 54.5,-25.5 54.5,-6.5 -0.5,-6.5"/>
<text text-anchor="middle" x="27" y="-13.5" font-family="Helvetica,sans-Serif" font-size="10.00">QWidget</text>
</g>
<!-- Node2&#45;&gt;Node3 -->
<g id="edge2" class="edge"><title>Node2&#45;&gt;Node3</title>
<path fill="none" stroke="midnightblue" d="M948.24,-82.5156C781.358,-80.518 233.978,-71.0734 63,-32 59.9307,-31.2986 56.7886,-30.3571 53.7016,-29.2858"/>
<polygon fill="midnightblue" stroke="midnightblue" points="54.7713,-25.946 44.1836,-25.5569 52.2178,-32.4636 54.7713,-25.946"/>
</g>
<!-- Node4 -->
<g id="node4" class="node"><title>Node4</title>
<polygon fill="white" stroke="#bfbfbf" points="72.5,-6.5 72.5,-25.5 149.5,-25.5 149.5,-6.5 72.5,-6.5"/>
<text text-anchor="middle" x="111" y="-13.5" font-family="Helvetica,sans-Serif" font-size="10.00">QVBoxLayout</text>
</g>
<!-- Node2&#45;&gt;Node4 -->
<g id="edge3" class="edge"><title>Node2&#45;&gt;Node4</title>
<path fill="none" stroke="midnightblue" d="M948.305,-81.5846C793.227,-76.8338 312.118,-60.1531 159,-32 154.207,-31.1188 149.223,-29.9089 144.358,-28.5554"/>
<polygon fill="midnightblue" stroke="midnightblue" points="145.225,-25.1613 134.641,-25.6351 143.21,-31.8651 145.225,-25.1613"/>
</g>
<!-- Node5 -->
<g id="node5" class="node"><title>Node5</title>
<polygon fill="white" stroke="#bfbfbf" points="168,-6.5 168,-25.5 284,-25.5 284,-6.5 168,-6.5"/>
<text text-anchor="middle" x="226" y="-13.5" font-family="Helvetica,sans-Serif" font-size="10.00">hpp/plot/qcustomplot.h</text>
</g>
<!-- Node2&#45;&gt;Node5 -->
<g id="edge4" class="edge"><title>Node2&#45;&gt;Node5</title>
<path fill="none" stroke="midnightblue" d="M948.079,-81.9436C833.169,-78.9213 537.286,-67.9919 293,-32 285.374,-30.8765 277.326,-29.3635 269.556,-27.7295"/>
<polygon fill="midnightblue" stroke="midnightblue" points="270.077,-24.2607 259.559,-25.5343 268.576,-31.0978 270.077,-24.2607"/>
</g>
<!-- Node6 -->
<g id="node6" class="node"><title>Node6</title>
<polygon fill="white" stroke="#bfbfbf" points="301.5,-6.5 301.5,-25.5 354.5,-25.5 354.5,-6.5 301.5,-6.5"/>
<text text-anchor="middle" x="328" y="-13.5" font-family="Helvetica,sans-Serif" font-size="10.00">QObject</text>
</g>
<!-- Node2&#45;&gt;Node6 -->
<g id="edge5" class="edge"><title>Node2&#45;&gt;Node6</title>
<path fill="none" stroke="midnightblue" d="M948.403,-81.1273C819.995,-75.8545 473.944,-59.4534 363,-32 360.172,-31.3003 357.281,-30.3971 354.432,-29.3811"/>
<polygon fill="midnightblue" stroke="midnightblue" points="355.646,-26.097 345.062,-25.6247 353.041,-32.5944 355.646,-26.097"/>
</g>
<!-- Node7 -->
<g id="node7" class="node"><title>Node7</title>
<polygon fill="white" stroke="#bfbfbf" points="372.5,-6.5 372.5,-25.5 427.5,-25.5 427.5,-6.5 372.5,-6.5"/>
<text text-anchor="middle" x="400" y="-13.5" font-family="Helvetica,sans-Serif" font-size="10.00">QPointer</text>
</g>
<!-- Node2&#45;&gt;Node7 -->
<g id="edge6" class="edge"><title>Node2&#45;&gt;Node7</title>
<path fill="none" stroke="midnightblue" d="M948.154,-83.5003C849.72,-83.4346 621.115,-77.8358 436,-32 433.008,-31.259 429.941,-30.3072 426.921,-29.2428"/>
<polygon fill="midnightblue" stroke="midnightblue" points="428.169,-25.9728 417.581,-25.5803 425.613,-32.4896 428.169,-25.9728"/>
</g>
<!-- Node8 -->
<g id="node8" class="node"><title>Node8</title>
<polygon fill="white" stroke="#bfbfbf" points="445.5,-6.5 445.5,-25.5 500.5,-25.5 500.5,-6.5 445.5,-6.5"/>
<text text-anchor="middle" x="473" y="-13.5" font-family="Helvetica,sans-Serif" font-size="10.00">QPainter</text>
</g>
<!-- Node2&#45;&gt;Node8 -->
<g id="edge7" class="edge"><title>Node2&#45;&gt;Node8</title>
<path fill="none" stroke="midnightblue" d="M948.179,-82.391C859.569,-80.2978 666.913,-71.1902 510,-32 506.938,-31.2353 503.795,-30.2681 500.696,-29.1946"/>
<polygon fill="midnightblue" stroke="midnightblue" points="501.694,-25.8289 491.104,-25.5213 499.191,-32.366 501.694,-25.8289"/>
</g>
<!-- Node9 -->
<g id="node9" class="node"><title>Node9</title>
<polygon fill="white" stroke="#bfbfbf" points="519,-6.5 519,-25.5 591,-25.5 591,-6.5 519,-6.5"/>
<text text-anchor="middle" x="555" y="-13.5" font-family="Helvetica,sans-Serif" font-size="10.00">QPaintEvent</text>
</g>
<!-- Node2&#45;&gt;Node9 -->
<g id="edge8" class="edge"><title>Node2&#45;&gt;Node9</title>
<path fill="none" stroke="midnightblue" d="M948.334,-79.6794C873.117,-73.8883 724.41,-59.8107 601,-32 596.852,-31.0651 592.545,-29.9134 588.305,-28.6672"/>
<polygon fill="midnightblue" stroke="midnightblue" points="589.227,-25.2885 578.638,-25.6453 587.138,-31.9696 589.227,-25.2885"/>
</g>
<!-- Node10 -->
<g id="node10" class="node"><title>Node10</title>
<polygon fill="white" stroke="#bfbfbf" points="609.5,-6.5 609.5,-25.5 688.5,-25.5 688.5,-6.5 609.5,-6.5"/>
<text text-anchor="middle" x="649" y="-13.5" font-family="Helvetica,sans-Serif" font-size="10.00">QMouseEvent</text>
</g>
<!-- Node2&#45;&gt;Node10 -->
<g id="edge9" class="edge"><title>Node2&#45;&gt;Node10</title>
<path fill="none" stroke="midnightblue" d="M948.271,-76.7707C888.578,-68.6694 784.587,-53.0294 697,-32 692.798,-30.991 688.426,-29.8114 684.107,-28.5649"/>
<polygon fill="midnightblue" stroke="midnightblue" points="684.816,-25.1231 674.232,-25.5837 682.793,-31.8244 684.816,-25.1231"/>
</g>
<!-- Node11 -->
<g id="node11" class="node"><title>Node11</title>
<polygon fill="white" stroke="#bfbfbf" points="706.5,-6.5 706.5,-25.5 763.5,-25.5 763.5,-6.5 706.5,-6.5"/>
<text text-anchor="middle" x="735" y="-13.5" font-family="Helvetica,sans-Serif" font-size="10.00">QPixmap</text>
</g>
<!-- Node2&#45;&gt;Node11 -->
<g id="edge10" class="edge"><title>Node2&#45;&gt;Node11</title>
<path fill="none" stroke="midnightblue" d="M948.374,-74.1482C902.619,-65.299 832.442,-50.3818 773,-32 770.205,-31.1356 767.324,-30.1604 764.457,-29.1324"/>
<polygon fill="midnightblue" stroke="midnightblue" points="765.504,-25.7862 754.912,-25.5188 763.025,-32.3328 765.504,-25.7862"/>
</g>
<!-- Node12 -->
<g id="node12" class="node"><title>Node12</title>
<polygon fill="white" stroke="#bfbfbf" points="781.5,-6.5 781.5,-25.5 834.5,-25.5 834.5,-6.5 781.5,-6.5"/>
<text text-anchor="middle" x="808" y="-13.5" font-family="Helvetica,sans-Serif" font-size="10.00">QVector</text>
</g>
<!-- Node2&#45;&gt;Node12 -->
<g id="edge11" class="edge"><title>Node2&#45;&gt;Node12</title>
<path fill="none" stroke="midnightblue" d="M951.842,-68.9044C921.216,-59.1111 879.923,-45.4508 844,-32 841.753,-31.1586 839.438,-30.2628 837.117,-29.3436"/>
<polygon fill="midnightblue" stroke="midnightblue" points="838.284,-26.0398 827.702,-25.514 835.647,-32.5239 838.284,-26.0398"/>
</g>
<!-- Node13 -->
<g id="node13" class="node"><title>Node13</title>
<polygon fill="white" stroke="#bfbfbf" points="853,-6.5 853,-25.5 903,-25.5 903,-6.5 853,-6.5"/>
<text text-anchor="middle" x="878" y="-13.5" font-family="Helvetica,sans-Serif" font-size="10.00">QString</text>
</g>
<!-- Node2&#45;&gt;Node13 -->
<g id="edge12" class="edge"><title>Node2&#45;&gt;Node13</title>
<path fill="none" stroke="midnightblue" d="M971.472,-68.8413C951.073,-57.5277 922.662,-41.7707 902.531,-30.6053"/>
<polygon fill="midnightblue" stroke="midnightblue" points="904.096,-27.4714 893.654,-25.6819 900.701,-33.5929 904.096,-27.4714"/>
</g>
<!-- Node14 -->
<g id="node14" class="node"><title>Node14</title>
<polygon fill="white" stroke="#bfbfbf" points="921.5,-6.5 921.5,-25.5 988.5,-25.5 988.5,-6.5 921.5,-6.5"/>
<text text-anchor="middle" x="955" y="-13.5" font-family="Helvetica,sans-Serif" font-size="10.00">QDateTime</text>
</g>
<!-- Node2&#45;&gt;Node14 -->
<g id="edge13" class="edge"><title>Node2&#45;&gt;Node14</title>
<path fill="none" stroke="midnightblue" d="M987.887,-68.679C981.468,-58.5919 972.839,-45.033 966.031,-34.3345"/>
<polygon fill="midnightblue" stroke="midnightblue" points="968.94,-32.3858 960.618,-25.8283 963.034,-36.144 968.94,-32.3858"/>
</g>
<!-- Node15 -->
<g id="node15" class="node"><title>Node15</title>
<polygon fill="white" stroke="#bfbfbf" points="1007,-6.5 1007,-25.5 1071,-25.5 1071,-6.5 1007,-6.5"/>
<text text-anchor="middle" x="1039" y="-13.5" font-family="Helvetica,sans-Serif" font-size="10.00">QMultiMap</text>
</g>
<!-- Node2&#45;&gt;Node15 -->
<g id="edge14" class="edge"><title>Node2&#45;&gt;Node15</title>
<path fill="none" stroke="midnightblue" d="M1006.11,-68.679C1012.53,-58.5919 1021.16,-45.033 1027.97,-34.3345"/>
<polygon fill="midnightblue" stroke="midnightblue" points="1030.97,-36.144 1033.38,-25.8283 1025.06,-32.3858 1030.97,-36.144"/>
</g>
<!-- Node16 -->
<g id="node16" class="node"><title>Node16</title>
<polygon fill="white" stroke="#bfbfbf" points="1089,-6.5 1089,-25.5 1137,-25.5 1137,-6.5 1089,-6.5"/>
<text text-anchor="middle" x="1113" y="-13.5" font-family="Helvetica,sans-Serif" font-size="10.00">QFlags</text>
</g>
<!-- Node2&#45;&gt;Node16 -->
<g id="edge15" class="edge"><title>Node2&#45;&gt;Node16</title>
<path fill="none" stroke="midnightblue" d="M1021.88,-68.8413C1041.68,-57.5789 1069.21,-41.9132 1088.82,-30.7572"/>
<polygon fill="midnightblue" stroke="midnightblue" points="1090.78,-33.6693 1097.74,-25.6819 1087.32,-27.5851 1090.78,-33.6693"/>
</g>
<!-- Node17 -->
<g id="node17" class="node"><title>Node17</title>
<polygon fill="white" stroke="#bfbfbf" points="1155.5,-6.5 1155.5,-25.5 1208.5,-25.5 1208.5,-6.5 1155.5,-6.5"/>
<text text-anchor="middle" x="1182" y="-13.5" font-family="Helvetica,sans-Serif" font-size="10.00">QDebug</text>
</g>
<!-- Node2&#45;&gt;Node17 -->
<g id="edge16" class="edge"><title>Node2&#45;&gt;Node17</title>
<path fill="none" stroke="midnightblue" d="M1040.62,-68.8983C1070.47,-59.0479 1110.85,-45.324 1146,-32 1148.11,-31.2006 1150.28,-30.3553 1152.46,-29.4895"/>
<polygon fill="midnightblue" stroke="midnightblue" points="1153.97,-32.6539 1161.91,-25.6418 1151.33,-26.1705 1153.97,-32.6539"/>
</g>
<!-- Node18 -->
<g id="node18" class="node"><title>Node18</title>
<polygon fill="white" stroke="#bfbfbf" points="1226.5,-6.5 1226.5,-25.5 1291.5,-25.5 1291.5,-6.5 1226.5,-6.5"/>
<text text-anchor="middle" x="1259" y="-13.5" font-family="Helvetica,sans-Serif" font-size="10.00">QVector2D</text>
</g>
<!-- Node2&#45;&gt;Node18 -->
<g id="edge17" class="edge"><title>Node2&#45;&gt;Node18</title>
<path fill="none" stroke="midnightblue" d="M1045.7,-70.2746C1048.85,-69.4934 1051.97,-68.7292 1055,-68 1126.71,-50.7638 1146.13,-52.443 1217,-32 1220.2,-31.0772 1223.51,-30.0412 1226.8,-28.9561"/>
<polygon fill="midnightblue" stroke="midnightblue" points="1228.18,-32.1818 1236.5,-25.6173 1225.9,-25.563 1228.18,-32.1818"/>
</g>
<!-- Node19 -->
<g id="node19" class="node"><title>Node19</title>
<polygon fill="white" stroke="#bfbfbf" points="1310,-6.5 1310,-25.5 1360,-25.5 1360,-6.5 1310,-6.5"/>
<text text-anchor="middle" x="1335" y="-13.5" font-family="Helvetica,sans-Serif" font-size="10.00">QStack</text>
</g>
<!-- Node2&#45;&gt;Node19 -->
<g id="edge18" class="edge"><title>Node2&#45;&gt;Node19</title>
<path fill="none" stroke="midnightblue" d="M1045.65,-70.0154C1048.8,-69.2977 1051.94,-68.6183 1055,-68 1162.88,-46.1904 1194.09,-61.9276 1300,-32 1302.65,-31.2506 1305.37,-30.3475 1308.06,-29.3606"/>
<polygon fill="midnightblue" stroke="midnightblue" points="1309.55,-32.5315 1317.52,-25.5444 1306.93,-26.0398 1309.55,-32.5315"/>
</g>
<!-- Node20 -->
<g id="node20" class="node"><title>Node20</title>
<polygon fill="white" stroke="#bfbfbf" points="1378.5,-6.5 1378.5,-25.5 1431.5,-25.5 1431.5,-6.5 1378.5,-6.5"/>
<text text-anchor="middle" x="1405" y="-13.5" font-family="Helvetica,sans-Serif" font-size="10.00">QCache</text>
</g>
<!-- Node2&#45;&gt;Node20 -->
<g id="edge19" class="edge"><title>Node2&#45;&gt;Node20</title>
<path fill="none" stroke="midnightblue" d="M1045.62,-69.9017C1048.79,-69.2119 1051.93,-68.5697 1055,-68 1193.11,-42.3525 1233.05,-67.361 1369,-32 1371.83,-31.265 1374.72,-30.3519 1377.58,-29.3416"/>
<polygon fill="midnightblue" stroke="midnightblue" points="1378.99,-32.5499 1387.03,-25.65 1376.44,-26.0301 1378.99,-32.5499"/>
</g>
<!-- Node21 -->
<g id="node21" class="node"><title>Node21</title>
<polygon fill="white" stroke="#bfbfbf" points="1449.5,-6.5 1449.5,-25.5 1508.5,-25.5 1508.5,-6.5 1449.5,-6.5"/>
<text text-anchor="middle" x="1479" y="-13.5" font-family="Helvetica,sans-Serif" font-size="10.00">QMargins</text>
</g>
<!-- Node2&#45;&gt;Node21 -->
<g id="edge20" class="edge"><title>Node2&#45;&gt;Node21</title>
<path fill="none" stroke="midnightblue" d="M1045.61,-69.8266C1048.78,-69.1552 1051.93,-68.5376 1055,-68 1224.29,-38.3904 1272.68,-71.2139 1440,-32 1443.42,-31.1977 1446.95,-30.1615 1450.41,-29.0088"/>
<polygon fill="midnightblue" stroke="midnightblue" points="1451.7,-32.2666 1459.89,-25.5487 1449.3,-25.6912 1451.7,-32.2666"/>
</g>
<!-- Node22 -->
<g id="node22" class="node"><title>Node22</title>
<polygon fill="white" stroke="#bfbfbf" points="1527,-6.5 1527,-25.5 1579,-25.5 1579,-6.5 1527,-6.5"/>
<text text-anchor="middle" x="1553" y="-13.5" font-family="Helvetica,sans-Serif" font-size="10.00">qmath.h</text>
</g>
<!-- Node2&#45;&gt;Node22 -->
<g id="edge21" class="edge"><title>Node2&#45;&gt;Node22</title>
<path fill="none" stroke="midnightblue" d="M1045.6,-69.771C1048.77,-69.1132 1051.92,-68.5138 1055,-68 1258.14,-34.0859 1316.77,-80.2113 1517,-32 1520,-31.2784 1523.07,-30.3389 1526.09,-29.282"/>
<polygon fill="midnightblue" stroke="midnightblue" points="1527.39,-32.5304 1535.43,-25.6282 1524.84,-26.0113 1527.39,-32.5304"/>
</g>
<!-- Node23 -->
<g id="node23" class="node"><title>Node23</title>
<polygon fill="white" stroke="#bfbfbf" points="1597,-6.5 1597,-25.5 1637,-25.5 1637,-6.5 1597,-6.5"/>
<text text-anchor="middle" x="1617" y="-13.5" font-family="Helvetica,sans-Serif" font-size="10.00">limits</text>
</g>
<!-- Node2&#45;&gt;Node23 -->
<g id="edge22" class="edge"><title>Node2&#45;&gt;Node23</title>
<path fill="none" stroke="midnightblue" d="M1045.6,-69.7338C1048.76,-69.0851 1051.92,-68.4979 1055,-68 1289.39,-30.1129 1359.33,-95.877 1588,-32 1589.97,-31.451 1591.95,-30.7598 1593.91,-29.9772"/>
<polygon fill="midnightblue" stroke="midnightblue" points="1595.77,-32.9721 1603.32,-25.5383 1592.78,-26.6418 1595.77,-32.9721"/>
</g>
<!-- Node24 -->
<g id="node24" class="node"><title>Node24</title>
<polygon fill="white" stroke="#bfbfbf" points="1655,-6.5 1655,-25.5 1719,-25.5 1719,-6.5 1655,-6.5"/>
<text text-anchor="middle" x="1687" y="-13.5" font-family="Helvetica,sans-Serif" font-size="10.00">QtNumeric</text>
</g>
<!-- Node2&#45;&gt;Node24 -->
<g id="edge23" class="edge"><title>Node2&#45;&gt;Node24</title>
<path fill="none" stroke="midnightblue" d="M1045.59,-69.7101C1048.76,-69.0671 1051.92,-68.4877 1055,-68 1314.92,-26.8656 1388.4,-85.7712 1646,-32 1649.9,-31.1869 1653.92,-30.0765 1657.85,-28.8248"/>
<polygon fill="midnightblue" stroke="midnightblue" points="1659.04,-32.1178 1667.32,-25.5116 1656.72,-25.5105 1659.04,-32.1178"/>
</g>
<!-- Node25 -->
<g id="node25" class="node"><title>Node25</title>
<polygon fill="white" stroke="#bfbfbf" points="1737.5,-6.5 1737.5,-25.5 1818.5,-25.5 1818.5,-6.5 1737.5,-6.5"/>
<text text-anchor="middle" x="1778" y="-13.5" font-family="Helvetica,sans-Serif" font-size="10.00">QtPrintSupport</text>
</g>
<!-- Node2&#45;&gt;Node25 -->
<g id="edge24" class="edge"><title>Node2&#45;&gt;Node25</title>
<path fill="none" stroke="midnightblue" d="M1045.59,-69.6834C1048.76,-69.047 1051.92,-68.4763 1055,-68 1351.03,-22.2727 1432.9,-83.3995 1728,-32 1733.22,-31.0902 1738.67,-29.813 1743.97,-28.3837"/>
<polygon fill="midnightblue" stroke="midnightblue" points="1745.24,-31.6581 1753.86,-25.5044 1743.29,-24.9367 1745.24,-31.6581"/>
</g>
<!-- Node26 -->
<g id="node26" class="node"><title>Node26</title>
<polygon fill="white" stroke="#bfbfbf" points="1837,-1 1837,-31 1981,-31 1981,-1 1837,-1"/>
<text text-anchor="start" x="1845" y="-19" font-family="Helvetica,sans-Serif" font-size="10.00">hpp/corbaserver/manipulation</text>
<text text-anchor="middle" x="1909" y="-8" font-family="Helvetica,sans-Serif" font-size="10.00">/client.hh</text>
</g>
<!-- Node2&#45;&gt;Node26 -->
<g id="edge25" class="edge"><title>Node2&#45;&gt;Node26</title>
<path fill="none" stroke="midnightblue" d="M1045.58,-69.6587C1048.76,-69.0284 1051.91,-68.4658 1055,-68 1391.4,-17.214 1483.98,-69.9675 1826.69,-31.9038"/>
<polygon fill="midnightblue" stroke="midnightblue" points="1827.1,-35.38 1836.64,-30.7808 1826.31,-28.4242 1827.1,-35.38"/>
</g>
</g>
</svg>
