<?xml version="1.0" encoding="UTF-8" standalone="no"?>
<!DOCTYPE svg PUBLIC "-//W3C//DTD SVG 1.1//EN"
 "http://www.w3.org/Graphics/SVG/1.1/DTD/svg11.dtd">
<!-- Generated by graphviz version 2.36.0 (20140111.2315)
 -->
<!-- Title: hpp&#45;manipulation&#45;graph.cc Pages: 1 -->
<svg width="1259pt" height="220pt"
 viewBox="0.00 0.00 1259.00 220.00" xmlns="http://www.w3.org/2000/svg" xmlns:xlink="http://www.w3.org/1999/xlink">
<g id="graph0" class="graph" transform="scale(1 1) rotate(0) translate(4 216)">
<title>hpp&#45;manipulation&#45;graph.cc</title>
<polygon fill="white" stroke="none" points="-4,4 -4,-216 1255,-216 1255,4 -4,4"/>
<!-- Node1 -->
<g id="node1" class="node"><title>Node1</title>
<polygon fill="#bfbfbf" stroke="black" points="582.5,-192.5 582.5,-211.5 713.5,-211.5 713.5,-192.5 582.5,-192.5"/>
<text text-anchor="middle" x="648" y="-199.5" font-family="Helvetica,sans-Serif" font-size="10.00">hpp&#45;manipulation&#45;graph.cc</text>
</g>
<!-- Node2 -->
<g id="node2" class="node"><title>Node2</title>
<g id="a_node2"><a xlink:href="a00059.html" target="_top" xlink:title="hpp/plot/hpp&#45;manipulation\l&#45;graph.hh">
<polygon fill="white" stroke="black" points="65,-125 65,-155 193,-155 193,-125 65,-125"/>
<text text-anchor="start" x="73" y="-143" font-family="Helvetica,sans-Serif" font-size="10.00">hpp/plot/hpp&#45;manipulation</text>
<text text-anchor="middle" x="129" y="-132" font-family="Helvetica,sans-Serif" font-size="10.00">&#45;graph.hh</text>
</a>
</g>
</g>
<!-- Node1&#45;&gt;Node2 -->
<g id="edge1" class="edge"><title>Node1&#45;&gt;Node2</title>
<path fill="none" stroke="midnightblue" d="M582.365,-196.485C497.201,-190.158 343.838,-177.167 203.135,-156.074"/>
<polygon fill="midnightblue" stroke="midnightblue" points="203.439,-152.58 193.028,-154.542 202.39,-159.501 203.439,-152.58"/>
</g>
<!-- Node4 -->
<g id="node4" class="node"><title>Node4</title>
<polygon fill="white" stroke="#bfbfbf" points="-0.5,-62.5 -0.5,-81.5 74.5,-81.5 74.5,-62.5 -0.5,-62.5"/>
<text text-anchor="middle" x="37" y="-69.5" font-family="Helvetica,sans-Serif" font-size="10.00">QPushButton</text>
</g>
<!-- Node1&#45;&gt;Node4 -->
<g id="edge20" class="edge"><title>Node1&#45;&gt;Node4</title>
<path fill="none" stroke="midnightblue" d="M582.385,-200.329C436.539,-198.23 95.1785,-189.73 56,-156 37.7389,-140.278 35.0297,-110.926 35.4711,-91.6757"/>
<polygon fill="midnightblue" stroke="midnightblue" points="38.9662,-91.8599 36.0013,-81.6883 31.976,-91.4887 38.9662,-91.8599"/>
</g>
<!-- Node13 -->
<g id="node13" class="node"><title>Node13</title>
<polygon fill="white" stroke="#bfbfbf" points="211,-130.5 211,-149.5 251,-149.5 251,-130.5 211,-130.5"/>
<text text-anchor="middle" x="231" y="-137.5" font-family="Helvetica,sans-Serif" font-size="10.00">limits</text>
</g>
<!-- Node1&#45;&gt;Node13 -->
<g id="edge12" class="edge"><title>Node1&#45;&gt;Node13</title>
<path fill="none" stroke="midnightblue" d="M582.347,-200.548C503.987,-198.389 369.768,-189.523 260,-156 258.089,-155.416 256.155,-154.709 254.239,-153.923"/>
<polygon fill="midnightblue" stroke="midnightblue" points="255.554,-150.673 245.019,-149.548 252.553,-156.998 255.554,-150.673"/>
</g>
<!-- Node14 -->
<g id="node14" class="node"><title>Node14</title>
<polygon fill="white" stroke="#bfbfbf" points="269,-130.5 269,-149.5 339,-149.5 339,-130.5 269,-130.5"/>
<text text-anchor="middle" x="304" y="-137.5" font-family="Helvetica,sans-Serif" font-size="10.00">QGVNode.h</text>
</g>
<!-- Node1&#45;&gt;Node14 -->
<g id="edge13" class="edge"><title>Node1&#45;&gt;Node14</title>
<path fill="none" stroke="midnightblue" d="M582.342,-194.415C521.341,-187.521 428.247,-175.021 349,-156 345.059,-155.054 340.97,-153.917 336.935,-152.698"/>
<polygon fill="midnightblue" stroke="midnightblue" points="337.725,-149.276 327.134,-149.56 335.59,-155.943 337.725,-149.276"/>
</g>
<!-- Node15 -->
<g id="node15" class="node"><title>Node15</title>
<polygon fill="white" stroke="#bfbfbf" points="357.5,-130.5 357.5,-149.5 426.5,-149.5 426.5,-130.5 357.5,-130.5"/>
<text text-anchor="middle" x="392" y="-137.5" font-family="Helvetica,sans-Serif" font-size="10.00">QGVEdge.h</text>
</g>
<!-- Node1&#45;&gt;Node15 -->
<g id="edge14" class="edge"><title>Node1&#45;&gt;Node15</title>
<path fill="none" stroke="midnightblue" d="M599.612,-192.434C556.384,-184.379 491.499,-171.292 436,-156 432.445,-155.021 428.758,-153.913 425.098,-152.754"/>
<polygon fill="midnightblue" stroke="midnightblue" points="426.18,-149.426 415.587,-149.62 423.989,-156.074 426.18,-149.426"/>
</g>
<!-- Node16 -->
<g id="node16" class="node"><title>Node16</title>
<polygon fill="white" stroke="#bfbfbf" points="444.5,-130.5 444.5,-149.5 525.5,-149.5 525.5,-130.5 444.5,-130.5"/>
<text text-anchor="middle" x="485" y="-137.5" font-family="Helvetica,sans-Serif" font-size="10.00">QMessageBox</text>
</g>
<!-- Node1&#45;&gt;Node16 -->
<g id="edge15" class="edge"><title>Node1&#45;&gt;Node16</title>
<path fill="none" stroke="midnightblue" d="M624.646,-192.403C596.686,-182.111 549.674,-164.806 518.009,-153.15"/>
<polygon fill="midnightblue" stroke="midnightblue" points="518.904,-149.75 508.311,-149.581 516.486,-156.32 518.904,-149.75"/>
</g>
<!-- Node17 -->
<g id="node17" class="node"><title>Node17</title>
<polygon fill="white" stroke="#bfbfbf" points="543.5,-130.5 543.5,-149.5 586.5,-149.5 586.5,-130.5 543.5,-130.5"/>
<text text-anchor="middle" x="565" y="-137.5" font-family="Helvetica,sans-Serif" font-size="10.00">QMap</text>
</g>
<!-- Node1&#45;&gt;Node17 -->
<g id="edge16" class="edge"><title>Node1&#45;&gt;Node17</title>
<path fill="none" stroke="midnightblue" d="M636.108,-192.403C622.795,-182.78 601,-167.024 585.043,-155.489"/>
<polygon fill="midnightblue" stroke="midnightblue" points="587.025,-152.603 576.87,-149.581 582.924,-158.276 587.025,-152.603"/>
</g>
<!-- Node18 -->
<g id="node18" class="node"><title>Node18</title>
<polygon fill="white" stroke="#bfbfbf" points="605,-130.5 605,-149.5 691,-149.5 691,-130.5 605,-130.5"/>
<text text-anchor="middle" x="648" y="-137.5" font-family="Helvetica,sans-Serif" font-size="10.00">QTemporaryFile</text>
</g>
<!-- Node1&#45;&gt;Node18 -->
<g id="edge17" class="edge"><title>Node1&#45;&gt;Node18</title>
<path fill="none" stroke="midnightblue" d="M648,-192.403C648,-183.938 648,-170.728 648,-159.82"/>
<polygon fill="midnightblue" stroke="midnightblue" points="651.5,-159.581 648,-149.581 644.5,-159.581 651.5,-159.581"/>
</g>
<!-- Node19 -->
<g id="node19" class="node"><title>Node19</title>
<polygon fill="white" stroke="#bfbfbf" points="709.5,-130.5 709.5,-149.5 746.5,-149.5 746.5,-130.5 709.5,-130.5"/>
<text text-anchor="middle" x="728" y="-137.5" font-family="Helvetica,sans-Serif" font-size="10.00">QDir</text>
</g>
<!-- Node1&#45;&gt;Node19 -->
<g id="edge18" class="edge"><title>Node1&#45;&gt;Node19</title>
<path fill="none" stroke="midnightblue" d="M659.462,-192.403C672.175,-182.869 692.913,-167.315 708.253,-155.811"/>
<polygon fill="midnightblue" stroke="midnightblue" points="710.659,-158.381 716.559,-149.581 706.459,-152.781 710.659,-158.381"/>
</g>
<!-- Node20 -->
<g id="node20" class="node"><title>Node20</title>
<polygon fill="white" stroke="#bfbfbf" points="765,-130.5 765,-149.5 813,-149.5 813,-130.5 765,-130.5"/>
<text text-anchor="middle" x="789" y="-137.5" font-family="Helvetica,sans-Serif" font-size="10.00">QMenu</text>
</g>
<!-- Node1&#45;&gt;Node20 -->
<g id="edge19" class="edge"><title>Node1&#45;&gt;Node20</title>
<path fill="none" stroke="midnightblue" d="M668.558,-192.479C690.133,-183.507 725.017,-168.917 755,-156 756.778,-155.234 758.605,-154.442 760.447,-153.64"/>
<polygon fill="midnightblue" stroke="midnightblue" points="761.853,-156.845 769.607,-149.625 759.043,-150.434 761.853,-156.845"/>
</g>
<!-- Node21 -->
<g id="node21" class="node"><title>Node21</title>
<polygon fill="white" stroke="#bfbfbf" points="831,-130.5 831,-149.5 905,-149.5 905,-130.5 831,-130.5"/>
<text text-anchor="middle" x="868" y="-137.5" font-family="Helvetica,sans-Serif" font-size="10.00">QInputDialog</text>
</g>
<!-- Node1&#45;&gt;Node21 -->
<g id="edge21" class="edge"><title>Node1&#45;&gt;Node21</title>
<path fill="none" stroke="midnightblue" d="M683.835,-192.423C719.139,-183.811 774.528,-169.864 822,-156 825.598,-154.949 829.34,-153.809 833.065,-152.642"/>
<polygon fill="midnightblue" stroke="midnightblue" points="834.321,-155.915 842.78,-149.536 832.189,-149.248 834.321,-155.915"/>
</g>
<!-- Node22 -->
<g id="node22" class="node"><title>Node22</title>
<polygon fill="white" stroke="#bfbfbf" points="923.5,-130.5 923.5,-149.5 972.5,-149.5 972.5,-130.5 923.5,-130.5"/>
<text text-anchor="middle" x="948" y="-137.5" font-family="Helvetica,sans-Serif" font-size="10.00">QTimer</text>
</g>
<!-- Node1&#45;&gt;Node22 -->
<g id="edge22" class="edge"><title>Node1&#45;&gt;Node22</title>
<path fill="none" stroke="midnightblue" d="M713.532,-194.5C768.014,-188.012 847.158,-176.059 914,-156 916.433,-155.27 918.922,-154.409 921.392,-153.476"/>
<polygon fill="midnightblue" stroke="midnightblue" points="922.767,-156.695 930.667,-149.636 920.089,-150.228 922.767,-156.695"/>
</g>
<!-- Node23 -->
<g id="node23" class="node"><title>Node23</title>
<polygon fill="white" stroke="#bfbfbf" points="990.5,-130.5 990.5,-149.5 1043.5,-149.5 1043.5,-130.5 990.5,-130.5"/>
<text text-anchor="middle" x="1017" y="-137.5" font-family="Helvetica,sans-Serif" font-size="10.00">QLayout</text>
</g>
<!-- Node1&#45;&gt;Node23 -->
<g id="edge23" class="edge"><title>Node1&#45;&gt;Node23</title>
<path fill="none" stroke="midnightblue" d="M713.769,-197.178C781.67,-192.062 890.203,-180.598 981,-156 983.818,-155.236 986.709,-154.305 989.567,-153.283"/>
<polygon fill="midnightblue" stroke="midnightblue" points="990.98,-156.488 999.009,-149.575 988.422,-149.972 990.98,-156.488"/>
</g>
<!-- Node24 -->
<g id="node24" class="node"><title>Node24</title>
<polygon fill="white" stroke="#bfbfbf" points="1061.5,-130.5 1061.5,-149.5 1114.5,-149.5 1114.5,-130.5 1061.5,-130.5"/>
<text text-anchor="middle" x="1088" y="-137.5" font-family="Helvetica,sans-Serif" font-size="10.00">QDebug</text>
</g>
<!-- Node1&#45;&gt;Node24 -->
<g id="edge24" class="edge"><title>Node1&#45;&gt;Node24</title>
<path fill="none" stroke="midnightblue" d="M713.751,-199.382C794.564,-196.098 935.329,-186.147 1052,-156 1054.98,-155.229 1058.05,-154.257 1061.06,-153.181"/>
<polygon fill="midnightblue" stroke="midnightblue" points="1062.38,-156.426 1070.4,-149.505 1059.81,-149.912 1062.38,-156.426"/>
</g>
<!-- Node25 -->
<g id="node25" class="node"><title>Node25</title>
<polygon fill="white" stroke="#bfbfbf" points="1133,-130.5 1133,-149.5 1251,-149.5 1251,-130.5 1133,-130.5"/>
<text text-anchor="middle" x="1192" y="-137.5" font-family="Helvetica,sans-Serif" font-size="10.00">QtGui/qtextdocument.h</text>
</g>
<!-- Node1&#45;&gt;Node25 -->
<g id="edge25" class="edge"><title>Node1&#45;&gt;Node25</title>
<path fill="none" stroke="midnightblue" d="M713.616,-197.274C805.544,-191.488 977.715,-178.591 1123,-156 1130.75,-154.795 1138.94,-153.255 1146.86,-151.623"/>
<polygon fill="midnightblue" stroke="midnightblue" points="1147.65,-155.034 1156.7,-149.525 1146.19,-148.188 1147.65,-155.034"/>
</g>
<!-- Node3 -->
<g id="node3" class="node"><title>Node3</title>
<polygon fill="white" stroke="#bfbfbf" points="93,-62.5 93,-81.5 145,-81.5 145,-62.5 93,-62.5"/>
<text text-anchor="middle" x="119" y="-69.5" font-family="Helvetica,sans-Serif" font-size="10.00">QAction</text>
</g>
<!-- Node2&#45;&gt;Node3 -->
<g id="edge2" class="edge"><title>Node2&#45;&gt;Node3</title>
<path fill="none" stroke="midnightblue" d="M126.83,-124.679C125.379,-115.101 123.454,-102.394 121.875,-91.9766"/>
<polygon fill="midnightblue" stroke="midnightblue" points="125.296,-91.1911 120.338,-81.8283 118.375,-92.2398 125.296,-91.1911"/>
</g>
<!-- Node2&#45;&gt;Node4 -->
<g id="edge3" class="edge"><title>Node2&#45;&gt;Node4</title>
<path fill="none" stroke="midnightblue" d="M109.037,-124.679C93.752,-113.713 72.7475,-98.645 57.3634,-87.6085"/>
<polygon fill="midnightblue" stroke="midnightblue" points="59.2063,-84.6231 49.0407,-81.6379 55.1259,-90.3109 59.2063,-84.6231"/>
</g>
<!-- Node5 -->
<g id="node5" class="node"><title>Node5</title>
<polygon fill="white" stroke="#bfbfbf" points="163,-57 163,-87 307,-87 307,-57 163,-57"/>
<text text-anchor="start" x="171" y="-75" font-family="Helvetica,sans-Serif" font-size="10.00">hpp/corbaserver/manipulation</text>
<text text-anchor="middle" x="235" y="-64" font-family="Helvetica,sans-Serif" font-size="10.00">/client.hh</text>
</g>
<!-- Node2&#45;&gt;Node5 -->
<g id="edge4" class="edge"><title>Node2&#45;&gt;Node5</title>
<path fill="none" stroke="midnightblue" d="M151.74,-124.841C166.83,-115.446 186.842,-102.985 203.465,-92.6352"/>
<polygon fill="midnightblue" stroke="midnightblue" points="205.659,-95.392 212.298,-87.1352 201.959,-89.4497 205.659,-95.392"/>
</g>
<!-- Node6 -->
<g id="node6" class="node"><title>Node6</title>
<g id="a_node6"><a xlink:href="a00055.html" target="_top" xlink:title="hpp/plot/graph&#45;widget.hh">
<polygon fill="white" stroke="black" points="325.5,-62.5 325.5,-81.5 448.5,-81.5 448.5,-62.5 325.5,-62.5"/>
<text text-anchor="middle" x="387" y="-69.5" font-family="Helvetica,sans-Serif" font-size="10.00">hpp/plot/graph&#45;widget.hh</text>
</a>
</g>
</g>
<!-- Node2&#45;&gt;Node6 -->
<g id="edge5" class="edge"><title>Node2&#45;&gt;Node6</title>
<path fill="none" stroke="midnightblue" d="M184.031,-124.922C231.81,-112.7 300.037,-95.2462 343.927,-84.0187"/>
<polygon fill="midnightblue" stroke="midnightblue" points="344.898,-87.383 353.719,-81.5138 343.163,-80.6014 344.898,-87.383"/>
</g>
<!-- Node7 -->
<g id="node7" class="node"><title>Node7</title>
<polygon fill="white" stroke="#bfbfbf" points="113.5,-0.5 113.5,-19.5 168.5,-19.5 168.5,-0.5 113.5,-0.5"/>
<text text-anchor="middle" x="141" y="-7.5" font-family="Helvetica,sans-Serif" font-size="10.00">QWidget</text>
</g>
<!-- Node6&#45;&gt;Node7 -->
<g id="edge6" class="edge"><title>Node6&#45;&gt;Node7</title>
<path fill="none" stroke="midnightblue" d="M352.015,-62.4672C306.043,-51.2545 225.623,-31.6398 178.454,-20.1352"/>
<polygon fill="midnightblue" stroke="midnightblue" points="179.18,-16.7096 168.635,-17.7403 177.521,-23.5102 179.18,-16.7096"/>
</g>
<!-- Node8 -->
<g id="node8" class="node"><title>Node8</title>
<polygon fill="white" stroke="#bfbfbf" points="186.5,-0.5 186.5,-19.5 277.5,-19.5 277.5,-0.5 186.5,-0.5"/>
<text text-anchor="middle" x="232" y="-7.5" font-family="Helvetica,sans-Serif" font-size="10.00">QGraphicsScene</text>
</g>
<!-- Node6&#45;&gt;Node8 -->
<g id="edge7" class="edge"><title>Node6&#45;&gt;Node8</title>
<path fill="none" stroke="midnightblue" d="M364.792,-62.4035C338.319,-52.1559 293.886,-34.9561 263.78,-23.3021"/>
<polygon fill="midnightblue" stroke="midnightblue" points="264.756,-19.9266 254.167,-19.5806 262.229,-26.4546 264.756,-19.9266"/>
</g>
<!-- Node9 -->
<g id="node9" class="node"><title>Node9</title>
<polygon fill="white" stroke="#bfbfbf" points="295.5,-0.5 295.5,-19.5 380.5,-19.5 380.5,-0.5 295.5,-0.5"/>
<text text-anchor="middle" x="338" y="-7.5" font-family="Helvetica,sans-Serif" font-size="10.00">QGraphicsView</text>
</g>
<!-- Node6&#45;&gt;Node9 -->
<g id="edge8" class="edge"><title>Node6&#45;&gt;Node9</title>
<path fill="none" stroke="midnightblue" d="M379.979,-62.4035C372.557,-53.3143 360.667,-38.7559 351.433,-27.4489"/>
<polygon fill="midnightblue" stroke="midnightblue" points="354.044,-25.1121 345.007,-19.5806 348.622,-29.5398 354.044,-25.1121"/>
</g>
<!-- Node10 -->
<g id="node10" class="node"><title>Node10</title>
<polygon fill="white" stroke="#bfbfbf" points="398.5,-0.5 398.5,-19.5 471.5,-19.5 471.5,-0.5 398.5,-0.5"/>
<text text-anchor="middle" x="435" y="-7.5" font-family="Helvetica,sans-Serif" font-size="10.00">QComboBox</text>
</g>
<!-- Node6&#45;&gt;Node10 -->
<g id="edge9" class="edge"><title>Node6&#45;&gt;Node10</title>
<path fill="none" stroke="midnightblue" d="M393.877,-62.4035C401.149,-53.3143 412.795,-38.7559 421.841,-27.4489"/>
<polygon fill="midnightblue" stroke="midnightblue" points="424.622,-29.5757 428.136,-19.5806 419.155,-25.2029 424.622,-29.5757"/>
</g>
<!-- Node11 -->
<g id="node11" class="node"><title>Node11</title>
<polygon fill="white" stroke="#bfbfbf" points="489.5,-0.5 489.5,-19.5 550.5,-19.5 550.5,-0.5 489.5,-0.5"/>
<text text-anchor="middle" x="520" y="-7.5" font-family="Helvetica,sans-Serif" font-size="10.00">QTextEdit</text>
</g>
<!-- Node6&#45;&gt;Node11 -->
<g id="edge10" class="edge"><title>Node6&#45;&gt;Node11</title>
<path fill="none" stroke="midnightblue" d="M406.056,-62.4035C428.475,-52.2896 465.905,-35.4036 491.713,-23.761"/>
<polygon fill="midnightblue" stroke="midnightblue" points="493.304,-26.8832 500.98,-19.5806 490.425,-20.5025 493.304,-26.8832"/>
</g>
<!-- Node12 -->
<g id="node12" class="node"><title>Node12</title>
<polygon fill="white" stroke="#bfbfbf" points="569,-0.5 569,-19.5 643,-19.5 643,-0.5 569,-0.5"/>
<text text-anchor="middle" x="606" y="-7.5" font-family="Helvetica,sans-Serif" font-size="10.00">QGVScene.h</text>
</g>
<!-- Node6&#45;&gt;Node12 -->
<g id="edge11" class="edge"><title>Node6&#45;&gt;Node12</title>
<path fill="none" stroke="midnightblue" d="M418.377,-62.4035C456.919,-51.844 522.405,-33.9027 564.924,-22.2538"/>
<polygon fill="midnightblue" stroke="midnightblue" points="565.961,-25.5986 574.681,-19.5806 564.111,-18.8474 565.961,-25.5986"/>
</g>
</g>
</svg>
