<?xml version="1.0" encoding="UTF-8" standalone="no"?>
<!DOCTYPE svg PUBLIC "-//W3C//DTD SVG 1.1//EN"
 "http://www.w3.org/Graphics/SVG/1.1/DTD/svg11.dtd">
<!-- Generated by graphviz version 2.36.0 (20140111.2315)
 -->
<!-- Title: histogram&#45;widget.hh Pages: 1 -->
<svg width="1989pt" height="96pt"
 viewBox="0.00 0.00 1989.00 96.00" xmlns="http://www.w3.org/2000/svg" xmlns:xlink="http://www.w3.org/1999/xlink">
<g id="graph0" class="graph" transform="scale(1 1) rotate(0) translate(4 92)">
<title>histogram&#45;widget.hh</title>
<polygon fill="white" stroke="none" points="-4,4 -4,-92 1985,-92 1985,4 -4,4"/>
<!-- Node1 -->
<g id="node1" class="node"><title>Node1</title>
<polygon fill="#bfbfbf" stroke="black" points="945,-68.5 945,-87.5 1049,-87.5 1049,-68.5 945,-68.5"/>
<text text-anchor="middle" x="997" y="-75.5" font-family="Helvetica,sans-Serif" font-size="10.00">histogram&#45;widget.hh</text>
</g>
<!-- Node2 -->
<g id="node2" class="node"><title>Node2</title>
<polygon fill="white" stroke="#bfbfbf" points="-0.5,-6.5 -0.5,-25.5 54.5,-25.5 54.5,-6.5 -0.5,-6.5"/>
<text text-anchor="middle" x="27" y="-13.5" font-family="Helvetica,sans-Serif" font-size="10.00">QWidget</text>
</g>
<!-- Node1&#45;&gt;Node2 -->
<g id="edge1" class="edge"><title>Node1&#45;&gt;Node2</title>
<path fill="none" stroke="midnightblue" d="M944.714,-76.8509C773.796,-75.9926 232.858,-70.2453 63,-32 59.9285,-31.3084 56.785,-30.3732 53.6971,-29.3056"/>
<polygon fill="midnightblue" stroke="midnightblue" points="54.7661,-25.9655 44.1782,-25.5807 52.2152,-32.4842 54.7661,-25.9655"/>
</g>
<!-- Node3 -->
<g id="node3" class="node"><title>Node3</title>
<polygon fill="white" stroke="#bfbfbf" points="72.5,-6.5 72.5,-25.5 149.5,-25.5 149.5,-6.5 72.5,-6.5"/>
<text text-anchor="middle" x="111" y="-13.5" font-family="Helvetica,sans-Serif" font-size="10.00">QVBoxLayout</text>
</g>
<!-- Node1&#45;&gt;Node3 -->
<g id="edge2" class="edge"><title>Node1&#45;&gt;Node3</title>
<path fill="none" stroke="midnightblue" d="M944.994,-75.9023C786.5,-72.2895 311.08,-59.4016 159,-32 154.102,-31.1175 149.006,-29.8844 144.042,-28.5005"/>
<polygon fill="midnightblue" stroke="midnightblue" points="144.731,-25.0524 134.146,-25.5122 142.707,-31.7536 144.731,-25.0524"/>
</g>
<!-- Node4 -->
<g id="node4" class="node"><title>Node4</title>
<polygon fill="white" stroke="#bfbfbf" points="168,-6.5 168,-25.5 284,-25.5 284,-6.5 168,-6.5"/>
<text text-anchor="middle" x="226" y="-13.5" font-family="Helvetica,sans-Serif" font-size="10.00">hpp/plot/qcustomplot.h</text>
</g>
<!-- Node1&#45;&gt;Node4 -->
<g id="edge3" class="edge"><title>Node1&#45;&gt;Node4</title>
<path fill="none" stroke="midnightblue" d="M944.606,-76.4461C827.305,-74.5962 534.87,-66.5885 293,-32 285.201,-30.8847 276.963,-29.3455 269.033,-27.6755"/>
<polygon fill="midnightblue" stroke="midnightblue" points="269.727,-24.2446 259.208,-25.5124 268.222,-31.0809 269.727,-24.2446"/>
</g>
<!-- Node5 -->
<g id="node5" class="node"><title>Node5</title>
<polygon fill="white" stroke="#bfbfbf" points="301.5,-6.5 301.5,-25.5 354.5,-25.5 354.5,-6.5 301.5,-6.5"/>
<text text-anchor="middle" x="328" y="-13.5" font-family="Helvetica,sans-Serif" font-size="10.00">QObject</text>
</g>
<!-- Node1&#45;&gt;Node5 -->
<g id="edge4" class="edge"><title>Node1&#45;&gt;Node5</title>
<path fill="none" stroke="midnightblue" d="M944.626,-75.527C813.349,-71.4754 472.92,-58.6519 363,-32 360.109,-31.299 357.153,-30.381 354.244,-29.3438"/>
<polygon fill="midnightblue" stroke="midnightblue" points="355.282,-25.9888 344.698,-25.5014 352.668,-32.4824 355.282,-25.9888"/>
</g>
<!-- Node6 -->
<g id="node6" class="node"><title>Node6</title>
<polygon fill="white" stroke="#bfbfbf" points="372.5,-6.5 372.5,-25.5 427.5,-25.5 427.5,-6.5 372.5,-6.5"/>
<text text-anchor="middle" x="400" y="-13.5" font-family="Helvetica,sans-Serif" font-size="10.00">QPointer</text>
</g>
<!-- Node1&#45;&gt;Node6 -->
<g id="edge5" class="edge"><title>Node1&#45;&gt;Node6</title>
<path fill="none" stroke="midnightblue" d="M944.558,-74.8979C824.301,-69.7373 531.68,-55.1527 436,-32 433.004,-31.2749 429.934,-30.3333 426.913,-29.275"/>
<polygon fill="midnightblue" stroke="midnightblue" points="428.159,-26.0045 417.572,-25.6197 425.609,-32.5232 428.159,-26.0045"/>
</g>
<!-- Node7 -->
<g id="node7" class="node"><title>Node7</title>
<polygon fill="white" stroke="#bfbfbf" points="445.5,-6.5 445.5,-25.5 500.5,-25.5 500.5,-6.5 445.5,-6.5"/>
<text text-anchor="middle" x="473" y="-13.5" font-family="Helvetica,sans-Serif" font-size="10.00">QPainter</text>
</g>
<!-- Node1&#45;&gt;Node7 -->
<g id="edge6" class="edge"><title>Node1&#45;&gt;Node7</title>
<path fill="none" stroke="midnightblue" d="M944.643,-77.1455C854.536,-76.2978 664.898,-69.6845 510,-32 506.933,-31.254 503.787,-30.2988 500.687,-29.2325"/>
<polygon fill="midnightblue" stroke="midnightblue" points="501.683,-25.8663 491.092,-25.5677 499.185,-32.4055 501.683,-25.8663"/>
</g>
<!-- Node8 -->
<g id="node8" class="node"><title>Node8</title>
<polygon fill="white" stroke="#bfbfbf" points="519,-6.5 519,-25.5 591,-25.5 591,-6.5 519,-6.5"/>
<text text-anchor="middle" x="555" y="-13.5" font-family="Helvetica,sans-Serif" font-size="10.00">QPaintEvent</text>
</g>
<!-- Node1&#45;&gt;Node8 -->
<g id="edge7" class="edge"><title>Node1&#45;&gt;Node8</title>
<path fill="none" stroke="midnightblue" d="M944.879,-74.4373C868.63,-69.9332 722.532,-58.4355 601,-32 596.752,-31.0761 592.342,-29.9127 588.009,-28.6445"/>
<polygon fill="midnightblue" stroke="midnightblue" points="588.739,-25.2056 578.15,-25.5583 586.648,-31.8859 588.739,-25.2056"/>
</g>
<!-- Node9 -->
<g id="node9" class="node"><title>Node9</title>
<polygon fill="white" stroke="#bfbfbf" points="609.5,-6.5 609.5,-25.5 688.5,-25.5 688.5,-6.5 609.5,-6.5"/>
<text text-anchor="middle" x="649" y="-13.5" font-family="Helvetica,sans-Serif" font-size="10.00">QMouseEvent</text>
</g>
<!-- Node1&#45;&gt;Node9 -->
<g id="edge8" class="edge"><title>Node1&#45;&gt;Node9</title>
<path fill="none" stroke="midnightblue" d="M944.784,-71.638C884.57,-64.886 782.846,-51.7283 697,-32 692.573,-30.9826 687.962,-29.7591 683.426,-28.4553"/>
<polygon fill="midnightblue" stroke="midnightblue" points="684.298,-25.0627 673.714,-25.5218 682.274,-31.7637 684.298,-25.0627"/>
</g>
<!-- Node10 -->
<g id="node10" class="node"><title>Node10</title>
<polygon fill="white" stroke="#bfbfbf" points="706.5,-6.5 706.5,-25.5 763.5,-25.5 763.5,-6.5 706.5,-6.5"/>
<text text-anchor="middle" x="735" y="-13.5" font-family="Helvetica,sans-Serif" font-size="10.00">QPixmap</text>
</g>
<!-- Node1&#45;&gt;Node10 -->
<g id="edge9" class="edge"><title>Node1&#45;&gt;Node10</title>
<path fill="none" stroke="midnightblue" d="M944.761,-69.2073C898.951,-61.7365 830.824,-49.0735 773,-32 770.194,-31.1715 767.306,-30.2205 764.434,-29.2081"/>
<polygon fill="midnightblue" stroke="midnightblue" points="765.475,-25.86 754.882,-25.6176 763.012,-32.4124 765.475,-25.86"/>
</g>
<!-- Node11 -->
<g id="node11" class="node"><title>Node11</title>
<polygon fill="white" stroke="#bfbfbf" points="781.5,-6.5 781.5,-25.5 834.5,-25.5 834.5,-6.5 781.5,-6.5"/>
<text text-anchor="middle" x="808" y="-13.5" font-family="Helvetica,sans-Serif" font-size="10.00">QVector</text>
</g>
<!-- Node1&#45;&gt;Node11 -->
<g id="edge10" class="edge"><title>Node1&#45;&gt;Node11</title>
<path fill="none" stroke="midnightblue" d="M964.138,-68.4471C932.93,-60.0638 884.844,-46.4676 844,-32 841.738,-31.1989 839.413,-30.3321 837.085,-29.4332"/>
<polygon fill="midnightblue" stroke="midnightblue" points="838.239,-26.1252 827.655,-25.6432 835.629,-32.6202 838.239,-26.1252"/>
</g>
<!-- Node12 -->
<g id="node12" class="node"><title>Node12</title>
<polygon fill="white" stroke="#bfbfbf" points="853,-6.5 853,-25.5 903,-25.5 903,-6.5 853,-6.5"/>
<text text-anchor="middle" x="878" y="-13.5" font-family="Helvetica,sans-Serif" font-size="10.00">QString</text>
</g>
<!-- Node1&#45;&gt;Node12 -->
<g id="edge11" class="edge"><title>Node1&#45;&gt;Node12</title>
<path fill="none" stroke="midnightblue" d="M979.95,-68.4035C960.156,-58.4232 927.283,-41.8487 904.23,-30.2253"/>
<polygon fill="midnightblue" stroke="midnightblue" points="905.523,-26.9575 895.018,-25.5806 902.372,-33.208 905.523,-26.9575"/>
</g>
<!-- Node13 -->
<g id="node13" class="node"><title>Node13</title>
<polygon fill="white" stroke="#bfbfbf" points="921.5,-6.5 921.5,-25.5 988.5,-25.5 988.5,-6.5 921.5,-6.5"/>
<text text-anchor="middle" x="955" y="-13.5" font-family="Helvetica,sans-Serif" font-size="10.00">QDateTime</text>
</g>
<!-- Node1&#45;&gt;Node13 -->
<g id="edge12" class="edge"><title>Node1&#45;&gt;Node13</title>
<path fill="none" stroke="midnightblue" d="M990.982,-68.4035C984.682,-59.4034 974.629,-45.0408 966.748,-33.7824"/>
<polygon fill="midnightblue" stroke="midnightblue" points="969.608,-31.7658 961.006,-25.5806 963.874,-35.7801 969.608,-31.7658"/>
</g>
<!-- Node14 -->
<g id="node14" class="node"><title>Node14</title>
<polygon fill="white" stroke="#bfbfbf" points="1007,-6.5 1007,-25.5 1071,-25.5 1071,-6.5 1007,-6.5"/>
<text text-anchor="middle" x="1039" y="-13.5" font-family="Helvetica,sans-Serif" font-size="10.00">QMultiMap</text>
</g>
<!-- Node1&#45;&gt;Node14 -->
<g id="edge13" class="edge"><title>Node1&#45;&gt;Node14</title>
<path fill="none" stroke="midnightblue" d="M1003.02,-68.4035C1009.32,-59.4034 1019.37,-45.0408 1027.25,-33.7824"/>
<polygon fill="midnightblue" stroke="midnightblue" points="1030.13,-35.7801 1032.99,-25.5806 1024.39,-31.7658 1030.13,-35.7801"/>
</g>
<!-- Node15 -->
<g id="node15" class="node"><title>Node15</title>
<polygon fill="white" stroke="#bfbfbf" points="1089,-6.5 1089,-25.5 1137,-25.5 1137,-6.5 1089,-6.5"/>
<text text-anchor="middle" x="1113" y="-13.5" font-family="Helvetica,sans-Serif" font-size="10.00">QFlags</text>
</g>
<!-- Node1&#45;&gt;Node15 -->
<g id="edge14" class="edge"><title>Node1&#45;&gt;Node15</title>
<path fill="none" stroke="midnightblue" d="M1013.62,-68.4035C1032.92,-58.4232 1064.96,-41.8487 1087.43,-30.2253"/>
<polygon fill="midnightblue" stroke="midnightblue" points="1089.14,-33.2836 1096.41,-25.5806 1085.92,-27.0661 1089.14,-33.2836"/>
</g>
<!-- Node16 -->
<g id="node16" class="node"><title>Node16</title>
<polygon fill="white" stroke="#bfbfbf" points="1155.5,-6.5 1155.5,-25.5 1208.5,-25.5 1208.5,-6.5 1155.5,-6.5"/>
<text text-anchor="middle" x="1182" y="-13.5" font-family="Helvetica,sans-Serif" font-size="10.00">QDebug</text>
</g>
<!-- Node1&#45;&gt;Node16 -->
<g id="edge15" class="edge"><title>Node1&#45;&gt;Node16</title>
<path fill="none" stroke="midnightblue" d="M1028.7,-68.4358C1059.07,-59.9929 1106.06,-46.3098 1146,-32 1148.26,-31.1907 1150.58,-30.318 1152.91,-29.415"/>
<polygon fill="midnightblue" stroke="midnightblue" points="1154.37,-32.6006 1162.34,-25.6169 1151.75,-26.1078 1154.37,-32.6006"/>
</g>
<!-- Node17 -->
<g id="node17" class="node"><title>Node17</title>
<polygon fill="white" stroke="#bfbfbf" points="1226.5,-6.5 1226.5,-25.5 1291.5,-25.5 1291.5,-6.5 1226.5,-6.5"/>
<text text-anchor="middle" x="1259" y="-13.5" font-family="Helvetica,sans-Serif" font-size="10.00">QVector2D</text>
</g>
<!-- Node1&#45;&gt;Node17 -->
<g id="edge16" class="edge"><title>Node1&#45;&gt;Node17</title>
<path fill="none" stroke="midnightblue" d="M1049.06,-68.4922C1093.95,-60.648 1160.3,-47.8376 1217,-32 1220.38,-31.0548 1223.89,-29.9734 1227.36,-28.8338"/>
<polygon fill="midnightblue" stroke="midnightblue" points="1228.64,-32.0963 1236.96,-25.5328 1226.36,-25.4772 1228.64,-32.0963"/>
</g>
<!-- Node18 -->
<g id="node18" class="node"><title>Node18</title>
<polygon fill="white" stroke="#bfbfbf" points="1310,-6.5 1310,-25.5 1360,-25.5 1360,-6.5 1310,-6.5"/>
<text text-anchor="middle" x="1335" y="-13.5" font-family="Helvetica,sans-Serif" font-size="10.00">QStack</text>
</g>
<!-- Node1&#45;&gt;Node18 -->
<g id="edge17" class="edge"><title>Node1&#45;&gt;Node18</title>
<path fill="none" stroke="midnightblue" d="M1049.05,-73.3627C1110.1,-68.1633 1213.91,-56.3975 1300,-32 1302.65,-31.2485 1305.37,-30.3441 1308.06,-29.3563"/>
<polygon fill="midnightblue" stroke="midnightblue" points="1309.55,-32.5269 1317.52,-25.5388 1306.93,-26.0356 1309.55,-32.5269"/>
</g>
<!-- Node19 -->
<g id="node19" class="node"><title>Node19</title>
<polygon fill="white" stroke="#bfbfbf" points="1378.5,-6.5 1378.5,-25.5 1431.5,-25.5 1431.5,-6.5 1378.5,-6.5"/>
<text text-anchor="middle" x="1405" y="-13.5" font-family="Helvetica,sans-Serif" font-size="10.00">QCache</text>
</g>
<!-- Node1&#45;&gt;Node19 -->
<g id="edge18" class="edge"><title>Node1&#45;&gt;Node19</title>
<path fill="none" stroke="midnightblue" d="M1049.29,-75.184C1122.06,-71.645 1257.5,-61.3746 1369,-32 1371.82,-31.2562 1374.72,-30.3373 1377.58,-29.3234"/>
<polygon fill="midnightblue" stroke="midnightblue" points="1378.99,-32.5308 1387.02,-25.6269 1376.43,-26.0122 1378.99,-32.5308"/>
</g>
<!-- Node20 -->
<g id="node20" class="node"><title>Node20</title>
<polygon fill="white" stroke="#bfbfbf" points="1449.5,-6.5 1449.5,-25.5 1508.5,-25.5 1508.5,-6.5 1449.5,-6.5"/>
<text text-anchor="middle" x="1479" y="-13.5" font-family="Helvetica,sans-Serif" font-size="10.00">QMargins</text>
</g>
<!-- Node1&#45;&gt;Node20 -->
<g id="edge19" class="edge"><title>Node1&#45;&gt;Node20</title>
<path fill="none" stroke="midnightblue" d="M1049.24,-76.1665C1132.86,-73.839 1301.45,-65.0547 1440,-32 1443.42,-31.184 1446.94,-30.1393 1450.41,-28.9818"/>
<polygon fill="midnightblue" stroke="midnightblue" points="1451.69,-32.2387 1459.88,-25.5169 1449.29,-25.6646 1451.69,-32.2387"/>
</g>
<!-- Node21 -->
<g id="node21" class="node"><title>Node21</title>
<polygon fill="white" stroke="#bfbfbf" points="1527,-6.5 1527,-25.5 1579,-25.5 1579,-6.5 1527,-6.5"/>
<text text-anchor="middle" x="1553" y="-13.5" font-family="Helvetica,sans-Serif" font-size="10.00">qmath.h</text>
</g>
<!-- Node1&#45;&gt;Node21 -->
<g id="edge20" class="edge"><title>Node1&#45;&gt;Node21</title>
<path fill="none" stroke="midnightblue" d="M1049.15,-77.7475C1143.8,-77.9508 1349.57,-73.0721 1517,-32 1519.99,-31.2655 1523.06,-30.3178 1526.08,-29.256"/>
<polygon fill="midnightblue" stroke="midnightblue" points="1527.39,-32.5033 1535.42,-25.5964 1524.84,-25.9857 1527.39,-32.5033"/>
</g>
<!-- Node22 -->
<g id="node22" class="node"><title>Node22</title>
<polygon fill="white" stroke="#bfbfbf" points="1597,-6.5 1597,-25.5 1637,-25.5 1637,-6.5 1597,-6.5"/>
<text text-anchor="middle" x="1617" y="-13.5" font-family="Helvetica,sans-Serif" font-size="10.00">limits</text>
</g>
<!-- Node1&#45;&gt;Node22 -->
<g id="edge21" class="edge"><title>Node1&#45;&gt;Node22</title>
<path fill="none" stroke="midnightblue" d="M1049.12,-75.6939C1174.01,-72.1375 1487.4,-60.5646 1588,-32 1589.96,-31.4426 1591.95,-30.7453 1593.91,-29.9586"/>
<polygon fill="midnightblue" stroke="midnightblue" points="1595.77,-32.9515 1603.31,-25.512 1592.77,-26.6235 1595.77,-32.9515"/>
</g>
<!-- Node23 -->
<g id="node23" class="node"><title>Node23</title>
<polygon fill="white" stroke="#bfbfbf" points="1655,-6.5 1655,-25.5 1719,-25.5 1719,-6.5 1655,-6.5"/>
<text text-anchor="middle" x="1687" y="-13.5" font-family="Helvetica,sans-Serif" font-size="10.00">QtNumeric</text>
</g>
<!-- Node1&#45;&gt;Node23 -->
<g id="edge22" class="edge"><title>Node1&#45;&gt;Node23</title>
<path fill="none" stroke="midnightblue" d="M1049.06,-75.2786C1182.17,-70.5755 1532.36,-56.2186 1646,-32 1649.7,-31.2111 1653.52,-30.1591 1657.27,-28.9769"/>
<polygon fill="midnightblue" stroke="midnightblue" points="1658.6,-32.2203 1666.9,-25.6339 1656.3,-25.6075 1658.6,-32.2203"/>
</g>
<!-- Node24 -->
<g id="node24" class="node"><title>Node24</title>
<polygon fill="white" stroke="#bfbfbf" points="1737.5,-6.5 1737.5,-25.5 1818.5,-25.5 1818.5,-6.5 1737.5,-6.5"/>
<text text-anchor="middle" x="1778" y="-13.5" font-family="Helvetica,sans-Serif" font-size="10.00">QtPrintSupport</text>
</g>
<!-- Node1&#45;&gt;Node24 -->
<g id="edge23" class="edge"><title>Node1&#45;&gt;Node24</title>
<path fill="none" stroke="midnightblue" d="M1049.16,-75.348C1193.71,-70.522 1597.35,-55.2984 1728,-32 1733.17,-31.079 1738.55,-29.8074 1743.79,-28.391"/>
<polygon fill="midnightblue" stroke="midnightblue" points="1744.98,-31.6923 1753.6,-25.5427 1743.02,-24.9699 1744.98,-31.6923"/>
</g>
<!-- Node25 -->
<g id="node25" class="node"><title>Node25</title>
<polygon fill="white" stroke="#bfbfbf" points="1837,-1 1837,-31 1981,-31 1981,-1 1837,-1"/>
<text text-anchor="start" x="1845" y="-19" font-family="Helvetica,sans-Serif" font-size="10.00">hpp/corbaserver/manipulation</text>
<text text-anchor="middle" x="1909" y="-8" font-family="Helvetica,sans-Serif" font-size="10.00">/client.hh</text>
</g>
<!-- Node1&#45;&gt;Node25 -->
<g id="edge24" class="edge"><title>Node1&#45;&gt;Node25</title>
<path fill="none" stroke="midnightblue" d="M1049.15,-76.4644C1178.83,-74.6415 1526.36,-66.7469 1826.43,-31.947"/>
<polygon fill="midnightblue" stroke="midnightblue" points="1827.11,-35.3912 1836.64,-30.7508 1826.3,-28.4388 1827.11,-35.3912"/>
</g>
</g>
</svg>
