<?xml version="1.0" encoding="UTF-8" standalone="no"?>
<!DOCTYPE svg PUBLIC "-//W3C//DTD SVG 1.1//EN"
 "http://www.w3.org/Graphics/SVG/1.1/DTD/svg11.dtd">
<!-- Generated by graphviz version 2.36.0 (20140111.2315)
 -->
<!-- Title: BV.h Pages: 1 -->
<svg width="938pt" height="444pt"
 viewBox="0.00 0.00 938.00 444.00" xmlns="http://www.w3.org/2000/svg" xmlns:xlink="http://www.w3.org/1999/xlink">
<g id="graph0" class="graph" transform="scale(1 1) rotate(0) translate(4 440)">
<title>BV.h</title>
<polygon fill="white" stroke="none" points="-4,4 -4,-440 934,-440 934,4 -4,4"/>
<!-- Node1 -->
<g id="node1" class="node"><title>Node1</title>
<polygon fill="#bfbfbf" stroke="black" points="560,-416.5 560,-435.5 598,-435.5 598,-416.5 560,-416.5"/>
<text text-anchor="middle" x="579" y="-423.5" font-family="Helvetica,sans-Serif" font-size="10.00">BV.h</text>
</g>
<!-- Node2 -->
<g id="node2" class="node"><title>Node2</title>
<g id="a_node2"><a xlink:href="a00312.html" target="_top" xlink:title="hpp/fcl/BV/kDOP.h">
<polygon fill="white" stroke="black" points="289.5,-304.5 289.5,-323.5 390.5,-323.5 390.5,-304.5 289.5,-304.5"/>
<text text-anchor="middle" x="340" y="-311.5" font-family="Helvetica,sans-Serif" font-size="10.00">hpp/fcl/BV/kDOP.h</text>
</a>
</g>
</g>
<!-- Node1&#45;&gt;Node2 -->
<g id="edge1" class="edge"><title>Node1&#45;&gt;Node2</title>
<path fill="none" stroke="midnightblue" d="M560.246,-416.368C518.361,-397.091 417.031,-350.454 367.788,-327.789"/>
<polygon fill="midnightblue" stroke="midnightblue" points="369.214,-324.593 358.667,-323.591 366.288,-330.952 369.214,-324.593"/>
</g>
<!-- Node17 -->
<g id="node17" class="node"><title>Node17</title>
<g id="a_node17"><a xlink:href="a00257.html" target="_top" xlink:title="hpp/fcl/BV/AABB.h">
<polygon fill="white" stroke="black" points="408.5,-304.5 408.5,-323.5 509.5,-323.5 509.5,-304.5 408.5,-304.5"/>
<text text-anchor="middle" x="459" y="-311.5" font-family="Helvetica,sans-Serif" font-size="10.00">hpp/fcl/BV/AABB.h</text>
</a>
</g>
</g>
<!-- Node1&#45;&gt;Node17 -->
<g id="edge23" class="edge"><title>Node1&#45;&gt;Node17</title>
<path fill="none" stroke="midnightblue" d="M560.854,-416.38C545.207,-408.378 522.58,-395.402 506,-380 490.913,-365.985 477.573,-346.473 468.996,-332.491"/>
<polygon fill="midnightblue" stroke="midnightblue" points="471.97,-330.643 463.856,-323.83 465.95,-334.216 471.97,-330.643"/>
</g>
<!-- Node18 -->
<g id="node18" class="node"><title>Node18</title>
<g id="a_node18"><a xlink:href="a00332.html" target="_top" xlink:title="hpp/fcl/BV/OBB.h">
<polygon fill="white" stroke="black" points="640.5,-304.5 640.5,-323.5 735.5,-323.5 735.5,-304.5 640.5,-304.5"/>
<text text-anchor="middle" x="688" y="-311.5" font-family="Helvetica,sans-Serif" font-size="10.00">hpp/fcl/BV/OBB.h</text>
</a>
</g>
</g>
<!-- Node1&#45;&gt;Node18 -->
<g id="edge26" class="edge"><title>Node1&#45;&gt;Node18</title>
<path fill="none" stroke="midnightblue" d="M595.22,-416.345C609.437,-408.231 630.102,-395.108 645,-380 658.914,-365.89 670.981,-346.651 678.76,-332.77"/>
<polygon fill="midnightblue" stroke="midnightblue" points="681.955,-334.22 683.633,-323.758 675.798,-330.89 681.955,-334.22"/>
</g>
<!-- Node20 -->
<g id="node20" class="node"><title>Node20</title>
<g id="a_node20"><a xlink:href="a00338.html" target="_top" xlink:title="hpp/fcl/BV/RSS.h">
<polygon fill="white" stroke="black" points="527.5,-304.5 527.5,-323.5 622.5,-323.5 622.5,-304.5 527.5,-304.5"/>
<text text-anchor="middle" x="575" y="-311.5" font-family="Helvetica,sans-Serif" font-size="10.00">hpp/fcl/BV/RSS.h</text>
</a>
</g>
</g>
<!-- Node1&#45;&gt;Node20 -->
<g id="edge30" class="edge"><title>Node1&#45;&gt;Node20</title>
<path fill="none" stroke="midnightblue" d="M559.771,-418.06C543.759,-411.136 522.017,-398.795 512,-380 500.811,-359.006 524.882,-340.113 546.426,-328.177"/>
<polygon fill="midnightblue" stroke="midnightblue" points="548.145,-331.228 555.394,-323.501 544.909,-325.021 548.145,-331.228"/>
</g>
<!-- Node22 -->
<g id="node22" class="node"><title>Node22</title>
<g id="a_node22"><a xlink:href="a00334.html" target="_top" xlink:title="hpp/fcl/BV/OBBRSS.h">
<polygon fill="white" stroke="black" points="521,-360.5 521,-379.5 637,-379.5 637,-360.5 521,-360.5"/>
<text text-anchor="middle" x="579" y="-367.5" font-family="Helvetica,sans-Serif" font-size="10.00">hpp/fcl/BV/OBBRSS.h</text>
</a>
</g>
</g>
<!-- Node1&#45;&gt;Node22 -->
<g id="edge35" class="edge"><title>Node1&#45;&gt;Node22</title>
<path fill="none" stroke="midnightblue" d="M579,-416.083C579,-409.006 579,-398.861 579,-389.986"/>
<polygon fill="midnightblue" stroke="midnightblue" points="582.5,-389.751 579,-379.751 575.5,-389.751 582.5,-389.751"/>
</g>
<!-- Node23 -->
<g id="node23" class="node"><title>Node23</title>
<g id="a_node23"><a xlink:href="a00313.html" target="_top" xlink:title="hpp/fcl/BV/kIOS.h">
<polygon fill="white" stroke="black" points="693,-360.5 693,-379.5 789,-379.5 789,-360.5 693,-360.5"/>
<text text-anchor="middle" x="741" y="-367.5" font-family="Helvetica,sans-Serif" font-size="10.00">hpp/fcl/BV/kIOS.h</text>
</a>
</g>
</g>
<!-- Node1&#45;&gt;Node23 -->
<g id="edge38" class="edge"><title>Node1&#45;&gt;Node23</title>
<path fill="none" stroke="midnightblue" d="M598.22,-418.593C624.652,-409.783 672.695,-393.768 705.696,-382.768"/>
<polygon fill="midnightblue" stroke="midnightblue" points="707.034,-386.011 715.414,-379.529 704.821,-379.37 707.034,-386.011"/>
</g>
<!-- Node24 -->
<g id="node24" class="node"><title>Node24</title>
<g id="a_node24"><a xlink:href="a00348.html" target="_top" xlink:title="hpp/fcl/math/transform.h">
<polygon fill="white" stroke="black" points="807.5,-360.5 807.5,-379.5 930.5,-379.5 930.5,-360.5 807.5,-360.5"/>
<text text-anchor="middle" x="869" y="-367.5" font-family="Helvetica,sans-Serif" font-size="10.00">hpp/fcl/math/transform.h</text>
</a>
</g>
</g>
<!-- Node1&#45;&gt;Node24 -->
<g id="edge40" class="edge"><title>Node1&#45;&gt;Node24</title>
<path fill="none" stroke="midnightblue" d="M598.028,-421.457C641.028,-413.45 747.079,-393.703 813.033,-381.421"/>
<polygon fill="midnightblue" stroke="midnightblue" points="814.068,-384.789 823.259,-379.517 812.787,-377.907 814.068,-384.789"/>
</g>
<!-- Node3 -->
<g id="node3" class="node"><title>Node3</title>
<polygon fill="white" stroke="#bfbfbf" points="371.5,-242.5 371.5,-261.5 430.5,-261.5 430.5,-242.5 371.5,-242.5"/>
<text text-anchor="middle" x="401" y="-249.5" font-family="Helvetica,sans-Serif" font-size="10.00">stdexcept</text>
</g>
<!-- Node2&#45;&gt;Node3 -->
<g id="edge2" class="edge"><title>Node2&#45;&gt;Node3</title>
<path fill="none" stroke="midnightblue" d="M348.74,-304.403C358.162,-295.136 373.364,-280.183 384.949,-268.788"/>
<polygon fill="midnightblue" stroke="midnightblue" points="387.601,-271.088 392.276,-261.581 382.693,-266.098 387.601,-271.088"/>
</g>
<!-- Node4 -->
<g id="node4" class="node"><title>Node4</title>
<g id="a_node4"><a xlink:href="a00356.html" target="_top" xlink:title="hpp/fcl/math/vec_3f.h">
<polygon fill="white" stroke="black" points="441.5,-180.5 441.5,-199.5 552.5,-199.5 552.5,-180.5 441.5,-180.5"/>
<text text-anchor="middle" x="497" y="-187.5" font-family="Helvetica,sans-Serif" font-size="10.00">hpp/fcl/math/vec_3f.h</text>
</a>
</g>
</g>
<!-- Node2&#45;&gt;Node4 -->
<g id="edge3" class="edge"><title>Node2&#45;&gt;Node4</title>
<path fill="none" stroke="midnightblue" d="M339.983,-304.338C340.428,-288.603 343.635,-255.18 362,-236 380.17,-217.023 406.541,-206.047 431.164,-199.699"/>
<polygon fill="midnightblue" stroke="midnightblue" points="432.285,-203.031 441.216,-197.33 430.68,-196.217 432.285,-203.031"/>
</g>
<!-- Node5 -->
<g id="node5" class="node"><title>Node5</title>
<polygon fill="white" stroke="#bfbfbf" points="-1,-56.5 -1,-75.5 101,-75.5 101,-56.5 -1,-56.5"/>
<text text-anchor="middle" x="50" y="-63.5" font-family="Helvetica,sans-Serif" font-size="10.00">hpp/fcl/config&#45;fcl.hh</text>
</g>
<!-- Node4&#45;&gt;Node5 -->
<g id="edge4" class="edge"><title>Node4&#45;&gt;Node5</title>
<path fill="none" stroke="midnightblue" d="M441.452,-182.242C390.113,-175.245 312.026,-162.691 246,-144 184.162,-126.495 114.829,-96.7224 77.4539,-79.7846"/>
<polygon fill="midnightblue" stroke="midnightblue" points="78.778,-76.5416 68.2279,-75.5692 75.8689,-82.9085 78.778,-76.5416"/>
</g>
<!-- Node6 -->
<g id="node6" class="node"><title>Node6</title>
<g id="a_node6"><a xlink:href="a00283.html" target="_top" xlink:title="hpp/fcl/data_types.h">
<polygon fill="white" stroke="black" points="119.5,-56.5 119.5,-75.5 224.5,-75.5 224.5,-56.5 119.5,-56.5"/>
<text text-anchor="middle" x="172" y="-63.5" font-family="Helvetica,sans-Serif" font-size="10.00">hpp/fcl/data_types.h</text>
</a>
</g>
</g>
<!-- Node4&#45;&gt;Node6 -->
<g id="edge5" class="edge"><title>Node4&#45;&gt;Node6</title>
<path fill="none" stroke="midnightblue" d="M447.799,-180.454C410.351,-173.107 357.942,-160.993 314,-144 269.31,-126.718 221.022,-98.2063 193.845,-81.1521"/>
<polygon fill="midnightblue" stroke="midnightblue" points="195.471,-78.039 185.153,-75.6349 191.72,-83.9489 195.471,-78.039"/>
</g>
<!-- Node9 -->
<g id="node9" class="node"><title>Node9</title>
<g id="a_node9"><a xlink:href="a00316.html" target="_top" xlink:title="hpp/fcl/eigen/math\l_details.h">
<polygon fill="white" stroke="black" points="322.5,-113 322.5,-143 419.5,-143 419.5,-113 322.5,-113"/>
<text text-anchor="start" x="330.5" y="-131" font-family="Helvetica,sans-Serif" font-size="10.00">hpp/fcl/eigen/math</text>
<text text-anchor="middle" x="371" y="-120" font-family="Helvetica,sans-Serif" font-size="10.00">_details.h</text>
</a>
</g>
</g>
<!-- Node4&#45;&gt;Node9 -->
<g id="edge8" class="edge"><title>Node4&#45;&gt;Node9</title>
<path fill="none" stroke="midnightblue" d="M478.947,-180.403C461.005,-171.86 432.914,-158.483 409.886,-147.517"/>
<polygon fill="midnightblue" stroke="midnightblue" points="411.229,-144.28 400.696,-143.141 408.22,-150.6 411.229,-144.28"/>
</g>
<!-- Node12 -->
<g id="node12" class="node"><title>Node12</title>
<g id="a_node12"><a xlink:href="a00357.html" target="_top" xlink:title="hpp/fcl/eigen/vec_3fx.h">
<polygon fill="white" stroke="black" points="438,-118.5 438,-137.5 556,-137.5 556,-118.5 438,-118.5"/>
<text text-anchor="middle" x="497" y="-125.5" font-family="Helvetica,sans-Serif" font-size="10.00">hpp/fcl/eigen/vec_3fx.h</text>
</a>
</g>
</g>
<!-- Node4&#45;&gt;Node12 -->
<g id="edge11" class="edge"><title>Node4&#45;&gt;Node12</title>
<path fill="none" stroke="midnightblue" d="M497,-180.403C497,-171.938 497,-158.728 497,-147.82"/>
<polygon fill="midnightblue" stroke="midnightblue" points="500.5,-147.581 497,-137.581 493.5,-147.581 500.5,-147.581"/>
</g>
<!-- Node13 -->
<g id="node13" class="node"><title>Node13</title>
<polygon fill="white" stroke="#bfbfbf" points="573,-56.5 573,-75.5 617,-75.5 617,-56.5 573,-56.5"/>
<text text-anchor="middle" x="595" y="-63.5" font-family="Helvetica,sans-Serif" font-size="10.00">cmath</text>
</g>
<!-- Node4&#45;&gt;Node13 -->
<g id="edge20" class="edge"><title>Node4&#45;&gt;Node13</title>
<path fill="none" stroke="midnightblue" d="M516.072,-180.437C531.172,-172.799 551.844,-160.306 565,-144 578.76,-126.944 586.78,-102.828 591.011,-86.1493"/>
<polygon fill="midnightblue" stroke="midnightblue" points="594.522,-86.4998 593.359,-75.969 587.701,-84.9267 594.522,-86.4998"/>
</g>
<!-- Node14 -->
<g id="node14" class="node"><title>Node14</title>
<polygon fill="white" stroke="#bfbfbf" points="635,-56.5 635,-75.5 689,-75.5 689,-56.5 635,-56.5"/>
<text text-anchor="middle" x="662" y="-63.5" font-family="Helvetica,sans-Serif" font-size="10.00">iostream</text>
</g>
<!-- Node4&#45;&gt;Node14 -->
<g id="edge21" class="edge"><title>Node4&#45;&gt;Node14</title>
<path fill="none" stroke="midnightblue" d="M519.533,-180.437C538.728,-172.558 566.531,-159.728 588,-144 612.2,-126.272 635.369,-100.195 649.144,-83.4046"/>
<polygon fill="midnightblue" stroke="midnightblue" points="651.91,-85.5507 655.447,-75.5638 646.454,-81.165 651.91,-85.5507"/>
</g>
<!-- Node15 -->
<g id="node15" class="node"><title>Node15</title>
<polygon fill="white" stroke="#bfbfbf" points="707,-56.5 707,-75.5 747,-75.5 747,-56.5 707,-56.5"/>
<text text-anchor="middle" x="727" y="-63.5" font-family="Helvetica,sans-Serif" font-size="10.00">limits</text>
</g>
<!-- Node4&#45;&gt;Node15 -->
<g id="edge22" class="edge"><title>Node4&#45;&gt;Node15</title>
<path fill="none" stroke="midnightblue" d="M527.299,-180.457C552.813,-172.674 589.862,-159.969 620,-144 653.621,-126.186 688.7,-99.0352 709.164,-82.1876"/>
<polygon fill="midnightblue" stroke="midnightblue" points="711.557,-84.7494 716.993,-75.6553 707.072,-79.3747 711.557,-84.7494"/>
</g>
<!-- Node7 -->
<g id="node7" class="node"><title>Node7</title>
<polygon fill="white" stroke="#bfbfbf" points="103.5,-0.5 103.5,-19.5 152.5,-19.5 152.5,-0.5 103.5,-0.5"/>
<text text-anchor="middle" x="128" y="-7.5" font-family="Helvetica,sans-Serif" font-size="10.00">cstddef</text>
</g>
<!-- Node6&#45;&gt;Node7 -->
<g id="edge6" class="edge"><title>Node6&#45;&gt;Node7</title>
<path fill="none" stroke="midnightblue" d="M164.734,-56.083C158.455,-48.3768 149.212,-37.0333 141.569,-27.6531"/>
<polygon fill="midnightblue" stroke="midnightblue" points="144.161,-25.2926 135.131,-19.7511 138.734,-29.7143 144.161,-25.2926"/>
</g>
<!-- Node8 -->
<g id="node8" class="node"><title>Node8</title>
<polygon fill="white" stroke="#bfbfbf" points="171,-0.5 171,-19.5 263,-19.5 263,-0.5 171,-0.5"/>
<text text-anchor="middle" x="217" y="-7.5" font-family="Helvetica,sans-Serif" font-size="10.00">boost/cstdint.hpp</text>
</g>
<!-- Node6&#45;&gt;Node8 -->
<g id="edge7" class="edge"><title>Node6&#45;&gt;Node8</title>
<path fill="none" stroke="midnightblue" d="M179.431,-56.083C185.853,-48.3768 195.306,-37.0333 203.122,-27.6531"/>
<polygon fill="midnightblue" stroke="midnightblue" points="205.994,-29.674 209.707,-19.7511 200.617,-25.1927 205.994,-29.674"/>
</g>
<!-- Node10 -->
<g id="node10" class="node"><title>Node10</title>
<polygon fill="white" stroke="#bfbfbf" points="242.5,-56.5 242.5,-75.5 315.5,-75.5 315.5,-56.5 242.5,-56.5"/>
<text text-anchor="middle" x="279" y="-63.5" font-family="Helvetica,sans-Serif" font-size="10.00">Eigen/Dense</text>
</g>
<!-- Node9&#45;&gt;Node10 -->
<g id="edge9" class="edge"><title>Node9&#45;&gt;Node10</title>
<path fill="none" stroke="midnightblue" d="M349.197,-112.781C334.5,-103.196 315.196,-90.6062 300.552,-81.0555"/>
<polygon fill="midnightblue" stroke="midnightblue" points="302.407,-78.0868 292.119,-75.5557 298.583,-83.9501 302.407,-78.0868"/>
</g>
<!-- Node11 -->
<g id="node11" class="node"><title>Node11</title>
<polygon fill="white" stroke="#bfbfbf" points="333.5,-56.5 333.5,-75.5 420.5,-75.5 420.5,-56.5 333.5,-56.5"/>
<text text-anchor="middle" x="377" y="-63.5" font-family="Helvetica,sans-Serif" font-size="10.00">Eigen/Geometry</text>
</g>
<!-- Node9&#45;&gt;Node11 -->
<g id="edge10" class="edge"><title>Node9&#45;&gt;Node11</title>
<path fill="none" stroke="midnightblue" d="M372.422,-112.781C373.231,-104.691 374.254,-94.4617 375.127,-85.725"/>
<polygon fill="midnightblue" stroke="midnightblue" points="378.614,-86.0292 376.127,-75.7305 371.649,-85.3326 378.614,-86.0292"/>
</g>
<!-- Node12&#45;&gt;Node5 -->
<g id="edge12" class="edge"><title>Node12&#45;&gt;Node5</title>
<path fill="none" stroke="midnightblue" d="M460.964,-118.444C450.385,-116.129 438.765,-113.775 428,-112 290.811,-89.3824 252.719,-94.3117 110.982,-76.0792"/>
<polygon fill="midnightblue" stroke="midnightblue" points="111.414,-72.6059 101.045,-74.7851 110.51,-79.5473 111.414,-72.6059"/>
</g>
<!-- Node12&#45;&gt;Node6 -->
<g id="edge13" class="edge"><title>Node12&#45;&gt;Node6</title>
<path fill="none" stroke="midnightblue" d="M459.095,-118.474C449.007,-116.283 438.104,-113.986 428,-112 361.997,-99.03 286.062,-85.9072 234.14,-77.207"/>
<polygon fill="midnightblue" stroke="midnightblue" points="234.526,-73.723 224.086,-75.5273 233.372,-80.6273 234.526,-73.723"/>
</g>
<!-- Node12&#45;&gt;Node10 -->
<g id="edge14" class="edge"><title>Node12&#45;&gt;Node10</title>
<path fill="none" stroke="midnightblue" d="M465.766,-118.403C427.4,-107.844 362.213,-89.9027 319.889,-78.2538"/>
<polygon fill="midnightblue" stroke="midnightblue" points="320.746,-74.8598 310.176,-75.5806 318.889,-81.6088 320.746,-74.8598"/>
</g>
<!-- Node12&#45;&gt;Node11 -->
<g id="edge15" class="edge"><title>Node12&#45;&gt;Node11</title>
<path fill="none" stroke="midnightblue" d="M479.807,-118.403C459.757,-108.379 426.401,-91.7006 403.14,-80.0699"/>
<polygon fill="midnightblue" stroke="midnightblue" points="404.671,-76.9223 394.161,-75.5806 401.54,-83.1833 404.671,-76.9223"/>
</g>
<!-- Node12&#45;&gt;Node13 -->
<g id="edge16" class="edge"><title>Node12&#45;&gt;Node13</title>
<path fill="none" stroke="midnightblue" d="M511.041,-118.403C527.051,-108.601 553.45,-92.4385 572.374,-80.8526"/>
<polygon fill="midnightblue" stroke="midnightblue" points="574.284,-83.7872 580.985,-75.5806 570.629,-77.8172 574.284,-83.7872"/>
</g>
<!-- Node12&#45;&gt;Node14 -->
<g id="edge17" class="edge"><title>Node12&#45;&gt;Node14</title>
<path fill="none" stroke="midnightblue" d="M520.64,-118.403C549.066,-108.067 596.945,-90.6564 629.002,-78.9994"/>
<polygon fill="midnightblue" stroke="midnightblue" points="630.202,-82.2874 638.403,-75.5806 627.809,-75.7088 630.202,-82.2874"/>
</g>
<!-- Node12&#45;&gt;Node15 -->
<g id="edge18" class="edge"><title>Node12&#45;&gt;Node15</title>
<path fill="none" stroke="midnightblue" d="M533.097,-118.445C571.476,-109.216 634.152,-93.7652 697.07,-76.1582"/>
<polygon fill="midnightblue" stroke="midnightblue" points="698.082,-79.5096 706.759,-73.4301 696.184,-72.7716 698.082,-79.5096"/>
</g>
<!-- Node16 -->
<g id="node16" class="node"><title>Node16</title>
<g id="a_node16"><a xlink:href="a00336.html" target="_top" xlink:title="hpp/fcl/eigen/product.h">
<polygon fill="white" stroke="black" points="439,-56.5 439,-75.5 555,-75.5 555,-56.5 439,-56.5"/>
<text text-anchor="middle" x="497" y="-63.5" font-family="Helvetica,sans-Serif" font-size="10.00">hpp/fcl/eigen/product.h</text>
</a>
</g>
</g>
<!-- Node12&#45;&gt;Node16 -->
<g id="edge19" class="edge"><title>Node12&#45;&gt;Node16</title>
<path fill="none" stroke="midnightblue" d="M497,-118.403C497,-109.938 497,-96.7283 497,-85.8199"/>
<polygon fill="midnightblue" stroke="midnightblue" points="500.5,-85.5806 497,-75.5806 493.5,-85.5806 500.5,-85.5806"/>
</g>
<!-- Node17&#45;&gt;Node3 -->
<g id="edge24" class="edge"><title>Node17&#45;&gt;Node3</title>
<path fill="none" stroke="midnightblue" d="M450.69,-304.403C441.732,-295.136 427.277,-280.183 416.261,-268.788"/>
<polygon fill="midnightblue" stroke="midnightblue" points="418.761,-266.338 409.295,-261.581 413.728,-271.203 418.761,-266.338"/>
</g>
<!-- Node17&#45;&gt;Node4 -->
<g id="edge25" class="edge"><title>Node17&#45;&gt;Node4</title>
<path fill="none" stroke="midnightblue" d="M461.733,-304.226C467.895,-284.442 482.981,-236.007 491.286,-209.344"/>
<polygon fill="midnightblue" stroke="midnightblue" points="494.66,-210.283 494.292,-199.694 487.976,-208.201 494.66,-210.283"/>
</g>
<!-- Node18&#45;&gt;Node4 -->
<g id="edge27" class="edge"><title>Node18&#45;&gt;Node4</title>
<path fill="none" stroke="midnightblue" d="M685.573,-304.428C680.632,-288.536 667.89,-254.447 645,-236 621.628,-217.164 590.451,-206.198 562.741,-199.82"/>
<polygon fill="midnightblue" stroke="midnightblue" points="563.221,-196.343 552.709,-197.672 561.755,-203.188 563.221,-196.343"/>
</g>
<!-- Node19 -->
<g id="node19" class="node"><title>Node19</title>
<g id="a_node19"><a xlink:href="a00319.html" target="_top" xlink:title="hpp/fcl/math/matrix_3f.h">
<polygon fill="white" stroke="black" points="693,-242.5 693,-261.5 815,-261.5 815,-242.5 693,-242.5"/>
<text text-anchor="middle" x="754" y="-249.5" font-family="Helvetica,sans-Serif" font-size="10.00">hpp/fcl/math/matrix_3f.h</text>
</a>
</g>
</g>
<!-- Node18&#45;&gt;Node19 -->
<g id="edge28" class="edge"><title>Node18&#45;&gt;Node19</title>
<path fill="none" stroke="midnightblue" d="M697.456,-304.403C707.748,-295.047 724.416,-279.895 736.994,-268.46"/>
<polygon fill="midnightblue" stroke="midnightblue" points="739.516,-270.897 744.561,-261.581 734.808,-265.718 739.516,-270.897"/>
</g>
<!-- Node19&#45;&gt;Node4 -->
<g id="edge29" class="edge"><title>Node19&#45;&gt;Node4</title>
<path fill="none" stroke="midnightblue" d="M717.451,-242.467C671.685,-231.783 593.241,-213.469 543.315,-201.813"/>
<polygon fill="midnightblue" stroke="midnightblue" points="543.957,-198.369 533.423,-199.503 542.365,-205.185 543.957,-198.369"/>
</g>
<!-- Node20&#45;&gt;Node3 -->
<g id="edge31" class="edge"><title>Node20&#45;&gt;Node3</title>
<path fill="none" stroke="midnightblue" d="M550.07,-304.403C519.964,-294.022 469.168,-276.506 435.362,-264.849"/>
<polygon fill="midnightblue" stroke="midnightblue" points="436.478,-261.532 425.884,-261.581 434.196,-268.149 436.478,-261.532"/>
</g>
<!-- Node20&#45;&gt;Node4 -->
<g id="edge32" class="edge"><title>Node20&#45;&gt;Node4</title>
<path fill="none" stroke="midnightblue" d="M558.812,-304.455C545.622,-296.67 527.517,-283.964 517,-268 505.393,-250.382 500.517,-226.375 498.472,-209.875"/>
<polygon fill="midnightblue" stroke="midnightblue" points="501.944,-209.422 497.46,-199.823 494.979,-210.123 501.944,-209.422"/>
</g>
<!-- Node20&#45;&gt;Node19 -->
<g id="edge33" class="edge"><title>Node20&#45;&gt;Node19</title>
<path fill="none" stroke="midnightblue" d="M600.646,-304.403C631.617,-294.022 683.873,-276.506 718.651,-264.849"/>
<polygon fill="midnightblue" stroke="midnightblue" points="720.032,-268.077 728.401,-261.581 717.807,-261.44 720.032,-268.077"/>
</g>
<!-- Node21 -->
<g id="node21" class="node"><title>Node21</title>
<polygon fill="white" stroke="#bfbfbf" points="525.5,-237 525.5,-267 636.5,-267 636.5,-237 525.5,-237"/>
<text text-anchor="start" x="533.5" y="-255" font-family="Helvetica,sans-Serif" font-size="10.00">boost/math/constants</text>
<text text-anchor="middle" x="581" y="-244" font-family="Helvetica,sans-Serif" font-size="10.00">/constants.hpp</text>
</g>
<!-- Node20&#45;&gt;Node21 -->
<g id="edge34" class="edge"><title>Node20&#45;&gt;Node21</title>
<path fill="none" stroke="midnightblue" d="M575.86,-304.403C576.566,-297.341 577.602,-286.975 578.56,-277.399"/>
<polygon fill="midnightblue" stroke="midnightblue" points="582.073,-277.439 579.586,-267.141 575.108,-276.743 582.073,-277.439"/>
</g>
<!-- Node22&#45;&gt;Node18 -->
<g id="edge36" class="edge"><title>Node22&#45;&gt;Node18</title>
<path fill="none" stroke="midnightblue" d="M596.513,-360.324C614.072,-351.625 641.331,-338.12 661.531,-328.113"/>
<polygon fill="midnightblue" stroke="midnightblue" points="663.124,-331.23 670.531,-323.655 660.016,-324.958 663.124,-331.23"/>
</g>
<!-- Node22&#45;&gt;Node20 -->
<g id="edge37" class="edge"><title>Node22&#45;&gt;Node20</title>
<path fill="none" stroke="midnightblue" d="M578.339,-360.083C577.815,-353.006 577.064,-342.861 576.406,-333.986"/>
<polygon fill="midnightblue" stroke="midnightblue" points="579.877,-333.465 575.648,-323.751 572.897,-333.982 579.877,-333.465"/>
</g>
<!-- Node23&#45;&gt;Node18 -->
<g id="edge39" class="edge"><title>Node23&#45;&gt;Node18</title>
<path fill="none" stroke="midnightblue" d="M732.248,-360.083C724.53,-352.22 713.095,-340.569 703.783,-331.081"/>
<polygon fill="midnightblue" stroke="midnightblue" points="706.092,-328.436 696.589,-323.751 701.096,-333.34 706.092,-328.436"/>
</g>
<!-- Node24&#45;&gt;Node19 -->
<g id="edge41" class="edge"><title>Node24&#45;&gt;Node19</title>
<path fill="none" stroke="midnightblue" d="M851.689,-360.376C836.796,-352.372 815.348,-339.395 800,-324 784.178,-308.13 770.876,-285.956 762.71,-270.63"/>
<polygon fill="midnightblue" stroke="midnightblue" points="765.795,-268.977 758.111,-261.683 759.57,-272.177 765.795,-268.977"/>
</g>
<!-- Node25 -->
<g id="node25" class="node"><title>Node25</title>
<polygon fill="white" stroke="#bfbfbf" points="809.5,-304.5 809.5,-323.5 928.5,-323.5 928.5,-304.5 809.5,-304.5"/>
<text text-anchor="middle" x="869" y="-311.5" font-family="Helvetica,sans-Serif" font-size="10.00">boost/thread/mutex.hpp</text>
</g>
<!-- Node24&#45;&gt;Node25 -->
<g id="edge42" class="edge"><title>Node24&#45;&gt;Node25</title>
<path fill="none" stroke="midnightblue" d="M869,-360.083C869,-353.006 869,-342.861 869,-333.986"/>
<polygon fill="midnightblue" stroke="midnightblue" points="872.5,-333.751 869,-323.751 865.5,-333.751 872.5,-333.751"/>
</g>
</g>
</svg>
