<?xml version="1.0" encoding="UTF-8" standalone="no"?>
<!DOCTYPE svg PUBLIC "-//W3C//DTD SVG 1.1//EN"
 "http://www.w3.org/Graphics/SVG/1.1/DTD/svg11.dtd">
<!-- Generated by graphviz version 2.36.0 (20140111.2315)
 -->
<!-- Title: BV_node.h Pages: 1 -->
<svg width="636pt" height="208pt"
 viewBox="0.00 0.00 636.00 208.00" xmlns="http://www.w3.org/2000/svg" xmlns:xlink="http://www.w3.org/1999/xlink">
<g id="graph0" class="graph" transform="scale(1 1) rotate(0) translate(4 204)">
<title>BV_node.h</title>
<polygon fill="white" stroke="none" points="-4,4 -4,-204 632,-204 632,4 -4,4"/>
<!-- Node1 -->
<g id="node1" class="node"><title>Node1</title>
<polygon fill="#bfbfbf" stroke="black" points="186.5,-180.5 186.5,-199.5 251.5,-199.5 251.5,-180.5 186.5,-180.5"/>
<text text-anchor="middle" x="219" y="-187.5" font-family="Helvetica,sans-Serif" font-size="10.00">BV_node.h</text>
</g>
<!-- Node2 -->
<g id="node2" class="node"><title>Node2</title>
<g id="a_node2"><a xlink:href="a00273.html" target="_top" xlink:title="BVH_model.h">
<polygon fill="white" stroke="black" points="225.5,-124.5 225.5,-143.5 302.5,-143.5 302.5,-124.5 225.5,-124.5"/>
<text text-anchor="middle" x="264" y="-131.5" font-family="Helvetica,sans-Serif" font-size="10.00">BVH_model.h</text>
</a>
</g>
</g>
<!-- Node1&#45;&gt;Node2 -->
<g id="edge1" class="edge"><title>Node1&#45;&gt;Node2</title>
<path fill="none" stroke="midnightblue" d="M233.047,-172.144C240.887,-162.736 250.329,-151.405 256.707,-143.751"/>
<polygon fill="midnightblue" stroke="midnightblue" points="230.144,-170.16 226.431,-180.083 235.521,-174.641 230.144,-170.16"/>
</g>
<!-- Node5 -->
<g id="node5" class="node"><title>Node5</title>
<g id="a_node5"><a xlink:href="a00351.html" target="_top" xlink:title="traversal_node_bvhs.h">
<polygon fill="white" stroke="black" points="40.5,-62.5 40.5,-81.5 155.5,-81.5 155.5,-62.5 40.5,-62.5"/>
<text text-anchor="middle" x="98" y="-69.5" font-family="Helvetica,sans-Serif" font-size="10.00">traversal_node_bvhs.h</text>
</a>
</g>
</g>
<!-- Node1&#45;&gt;Node5 -->
<g id="edge13" class="edge"><title>Node1&#45;&gt;Node5</title>
<path fill="none" stroke="midnightblue" d="M202.686,-173.36C176.774,-148.519 127.077,-100.876 106.871,-81.5048"/>
<polygon fill="midnightblue" stroke="midnightblue" points="200.265,-175.887 209.905,-180.281 205.109,-170.834 200.265,-175.887"/>
</g>
<!-- Node3 -->
<g id="node3" class="node"><title>Node3</title>
<g id="a_node3"><a xlink:href="a00274.html" target="_top" xlink:title="BVH_utility.h">
<polygon fill="white" stroke="black" points="174,-62.5 174,-81.5 248,-81.5 248,-62.5 174,-62.5"/>
<text text-anchor="middle" x="211" y="-69.5" font-family="Helvetica,sans-Serif" font-size="10.00">BVH_utility.h</text>
</a>
</g>
</g>
<!-- Node2&#45;&gt;Node3 -->
<g id="edge2" class="edge"><title>Node2&#45;&gt;Node3</title>
<path fill="none" stroke="midnightblue" d="M249.746,-116.863C239.714,-105.506 226.681,-90.7524 218.58,-81.5806"/>
<polygon fill="midnightblue" stroke="midnightblue" points="247.163,-119.226 256.406,-124.403 252.409,-114.592 247.163,-119.226"/>
</g>
<!-- Node2&#45;&gt;Node5 -->
<g id="edge4" class="edge"><title>Node2&#45;&gt;Node5</title>
<path fill="none" stroke="midnightblue" d="M230.752,-120.983C198.484,-109.32 150.318,-91.91 121.74,-81.5806"/>
<polygon fill="midnightblue" stroke="midnightblue" points="229.622,-124.296 240.216,-124.403 232.001,-117.713 229.622,-124.296"/>
</g>
<!-- Node8 -->
<g id="node8" class="node"><title>Node8</title>
<g id="a_node8"><a xlink:href="a00291.html" target="_top" xlink:title="geometric_shape_to\l_BVH_model.h">
<polygon fill="white" stroke="black" points="266,-57 266,-87 370,-87 370,-57 266,-57"/>
<text text-anchor="start" x="274" y="-75" font-family="Helvetica,sans-Serif" font-size="10.00">geometric_shape_to</text>
<text text-anchor="middle" x="318" y="-64" font-family="Helvetica,sans-Serif" font-size="10.00">_BVH_model.h</text>
</a>
</g>
</g>
<!-- Node2&#45;&gt;Node8 -->
<g id="edge8" class="edge"><title>Node2&#45;&gt;Node8</title>
<path fill="none" stroke="midnightblue" d="M278.439,-116.957C286.798,-107.669 297.223,-96.0852 305.273,-87.1408"/>
<polygon fill="midnightblue" stroke="midnightblue" points="275.825,-114.629 271.737,-124.403 281.028,-119.312 275.825,-114.629"/>
</g>
<!-- Node9 -->
<g id="node9" class="node"><title>Node9</title>
<g id="a_node9"><a xlink:href="a00350.html" target="_top" xlink:title="traversal_node_bvh\l_shape.h">
<polygon fill="white" stroke="black" points="388.5,-57 388.5,-87 489.5,-87 489.5,-57 388.5,-57"/>
<text text-anchor="start" x="396.5" y="-75" font-family="Helvetica,sans-Serif" font-size="10.00">traversal_node_bvh</text>
<text text-anchor="middle" x="439" y="-64" font-family="Helvetica,sans-Serif" font-size="10.00">_shape.h</text>
</a>
</g>
</g>
<!-- Node2&#45;&gt;Node9 -->
<g id="edge9" class="edge"><title>Node2&#45;&gt;Node9</title>
<path fill="none" stroke="midnightblue" d="M298.65,-121.12C327.251,-111.314 367.897,-97.3781 398.093,-87.0253"/>
<polygon fill="midnightblue" stroke="midnightblue" points="297.398,-117.849 289.073,-124.403 299.668,-124.471 297.398,-117.849"/>
</g>
<!-- Node10 -->
<g id="node10" class="node"><title>Node10</title>
<g id="a_node10"><a xlink:href="a00352.html" target="_top" xlink:title="traversal_node_octree.h">
<polygon fill="white" stroke="black" points="507.5,-62.5 507.5,-81.5 628.5,-81.5 628.5,-62.5 507.5,-62.5"/>
<text text-anchor="middle" x="568" y="-69.5" font-family="Helvetica,sans-Serif" font-size="10.00">traversal_node_octree.h</text>
</a>
</g>
</g>
<!-- Node2&#45;&gt;Node10 -->
<g id="edge11" class="edge"><title>Node2&#45;&gt;Node10</title>
<path fill="none" stroke="midnightblue" d="M312.538,-123.975C359.905,-115.095 433.982,-101.013 498,-88 507.987,-85.9699 518.758,-83.7013 528.787,-81.5553"/>
<polygon fill="midnightblue" stroke="midnightblue" points="311.743,-120.563 302.557,-125.843 313.031,-127.443 311.743,-120.563"/>
</g>
<!-- Node4 -->
<g id="node4" class="node"><title>Node4</title>
<g id="a_node4"><a xlink:href="a00353.html" target="_top" xlink:title="traversal_node_setup.h">
<polygon fill="white" stroke="black" points="273,-0.5 273,-19.5 391,-19.5 391,-0.5 273,-0.5"/>
<text text-anchor="middle" x="332" y="-7.5" font-family="Helvetica,sans-Serif" font-size="10.00">traversal_node_setup.h</text>
</a>
</g>
</g>
<!-- Node3&#45;&gt;Node4 -->
<g id="edge3" class="edge"><title>Node3&#45;&gt;Node4</title>
<path fill="none" stroke="midnightblue" d="M237.395,-57.9116C260.861,-46.2756 294.493,-29.5983 314.696,-19.5806"/>
<polygon fill="midnightblue" stroke="midnightblue" points="235.74,-54.8252 228.336,-62.4035 238.85,-61.0966 235.74,-54.8252"/>
</g>
<!-- Node5&#45;&gt;Node4 -->
<g id="edge6" class="edge"><title>Node5&#45;&gt;Node4</title>
<path fill="none" stroke="midnightblue" d="M141.385,-59.8758C186.823,-48.2249 257.209,-30.1771 298.536,-19.5806"/>
<polygon fill="midnightblue" stroke="midnightblue" points="140.344,-56.5293 131.526,-62.4035 142.082,-63.31 140.344,-56.5293"/>
</g>
<!-- Node6 -->
<g id="node6" class="node"><title>Node6</title>
<g id="a_node6"><a xlink:href="a00279.html" target="_top" xlink:title="collision_node.h">
<polygon fill="white" stroke="black" points="0,-0.5 0,-19.5 86,-19.5 86,-0.5 0,-0.5"/>
<text text-anchor="middle" x="43" y="-7.5" font-family="Helvetica,sans-Serif" font-size="10.00">collision_node.h</text>
</a>
</g>
</g>
<!-- Node5&#45;&gt;Node6 -->
<g id="edge5" class="edge"><title>Node5&#45;&gt;Node6</title>
<path fill="none" stroke="midnightblue" d="M83.2077,-54.863C72.7976,-43.5064 59.273,-28.7524 50.8655,-19.5806"/>
<polygon fill="midnightblue" stroke="midnightblue" points="80.7825,-57.3969 90.1198,-62.4035 85.9426,-52.6668 80.7825,-57.3969"/>
</g>
<!-- Node7 -->
<g id="node7" class="node"><title>Node7</title>
<g id="a_node7"><a xlink:href="a00355.html" target="_top" xlink:title="traversal_recurse.h">
<polygon fill="white" stroke="black" points="104,-0.5 104,-19.5 204,-19.5 204,-0.5 104,-0.5"/>
<text text-anchor="middle" x="154" y="-7.5" font-family="Helvetica,sans-Serif" font-size="10.00">traversal_recurse.h</text>
</a>
</g>
</g>
<!-- Node5&#45;&gt;Node7 -->
<g id="edge7" class="edge"><title>Node5&#45;&gt;Node7</title>
<path fill="none" stroke="midnightblue" d="M113.061,-54.863C123.661,-43.5064 137.431,-28.7524 145.991,-19.5806"/>
<polygon fill="midnightblue" stroke="midnightblue" points="110.288,-52.7048 106.023,-62.4035 115.405,-57.481 110.288,-52.7048"/>
</g>
<!-- Node9&#45;&gt;Node4 -->
<g id="edge10" class="edge"><title>Node9&#45;&gt;Node4</title>
<path fill="none" stroke="midnightblue" d="M405.055,-51.9654C385.679,-41.1003 362.335,-28.0101 347.337,-19.6"/>
<polygon fill="midnightblue" stroke="midnightblue" points="403.479,-55.0944 413.913,-56.9327 406.903,-48.9888 403.479,-55.0944"/>
</g>
<!-- Node10&#45;&gt;Node4 -->
<g id="edge12" class="edge"><title>Node10&#45;&gt;Node4</title>
<path fill="none" stroke="midnightblue" d="M524.477,-59.9349C478.547,-48.2578 407.155,-30.1072 365.447,-19.5034"/>
<polygon fill="midnightblue" stroke="midnightblue" points="523.883,-63.3952 534.438,-62.4672 525.608,-56.611 523.883,-63.3952"/>
</g>
</g>
</svg>
