<?xml version="1.0" encoding="UTF-8" standalone="no"?>
<!DOCTYPE svg PUBLIC "-//W3C//DTD SVG 1.1//EN"
 "http://www.w3.org/Graphics/SVG/1.1/DTD/svg11.dtd">
<!-- Generated by graphviz version 2.36.0 (20140111.2315)
 -->
<!-- Title: broadphase_bruteforce.h Pages: 1 -->
<svg width="756pt" height="152pt"
 viewBox="0.00 0.00 756.00 152.00" xmlns="http://www.w3.org/2000/svg" xmlns:xlink="http://www.w3.org/1999/xlink">
<g id="graph0" class="graph" transform="scale(1 1) rotate(0) translate(4 148)">
<title>broadphase_bruteforce.h</title>
<polygon fill="white" stroke="none" points="-4,4 -4,-148 752,-148 752,4 -4,4"/>
<!-- Node1 -->
<g id="node1" class="node"><title>Node1</title>
<polygon fill="#bfbfbf" stroke="black" points="318,-124.5 318,-143.5 442,-143.5 442,-124.5 318,-124.5"/>
<text text-anchor="middle" x="380" y="-131.5" font-family="Helvetica,sans-Serif" font-size="10.00">broadphase_bruteforce.h</text>
</g>
<!-- Node2 -->
<g id="node2" class="node"><title>Node2</title>
<g id="a_node2"><a xlink:href="a00227.html" target="_top" xlink:title="broadphase.h">
<polygon fill="white" stroke="black" points="342.5,-68.5 342.5,-87.5 417.5,-87.5 417.5,-68.5 342.5,-68.5"/>
<text text-anchor="middle" x="380" y="-75.5" font-family="Helvetica,sans-Serif" font-size="10.00">broadphase.h</text>
</a>
</g>
</g>
<!-- Node1&#45;&gt;Node2 -->
<g id="edge1" class="edge"><title>Node1&#45;&gt;Node2</title>
<path fill="none" stroke="midnightblue" d="M373.528,-114.101C372.896,-105.136 373.343,-94.8579 374.869,-87.7511"/>
<polygon fill="midnightblue" stroke="midnightblue" points="370.066,-114.622 374.834,-124.083 377.007,-113.713 370.066,-114.622"/>
</g>
<!-- Node2&#45;&gt;Node1 -->
<g id="edge2" class="edge"><title>Node2&#45;&gt;Node1</title>
<path fill="none" stroke="midnightblue" d="M386.458,-97.6911C387.106,-106.635 386.676,-116.927 385.166,-124.083"/>
<polygon fill="midnightblue" stroke="midnightblue" points="389.923,-97.2002 385.131,-87.7511 382.985,-98.1262 389.923,-97.2002"/>
</g>
<!-- Node3 -->
<g id="node3" class="node"><title>Node3</title>
<g id="a_node3"><a xlink:href="a00233.html" target="_top" xlink:title="broadphase_spatialhash.h">
<polygon fill="white" stroke="black" points="0,-6.5 0,-25.5 130,-25.5 130,-6.5 0,-6.5"/>
<text text-anchor="middle" x="65" y="-13.5" font-family="Helvetica,sans-Serif" font-size="10.00">broadphase_spatialhash.h</text>
</a>
</g>
</g>
<!-- Node2&#45;&gt;Node3 -->
<g id="edge3" class="edge"><title>Node2&#45;&gt;Node3</title>
<path fill="none" stroke="midnightblue" d="M332.508,-69.5371C281.977,-60.7626 200.16,-45.6601 130,-32 119.449,-29.9457 108.065,-27.6685 97.7598,-25.5219"/>
<polygon fill="midnightblue" stroke="midnightblue" points="332.043,-73.0085 342.492,-71.258 333.232,-66.1102 332.043,-73.0085"/>
</g>
<!-- Node4 -->
<g id="node4" class="node"><title>Node4</title>
<g id="a_node4"><a xlink:href="a00232.html" target="_top" xlink:title="broadphase_SaP.h">
<polygon fill="white" stroke="black" points="148.5,-6.5 148.5,-25.5 247.5,-25.5 247.5,-6.5 148.5,-6.5"/>
<text text-anchor="middle" x="198" y="-13.5" font-family="Helvetica,sans-Serif" font-size="10.00">broadphase_SaP.h</text>
</a>
</g>
</g>
<!-- Node2&#45;&gt;Node4 -->
<g id="edge5" class="edge"><title>Node2&#45;&gt;Node4</title>
<path fill="none" stroke="midnightblue" d="M339.453,-65.4322C302.188,-53.7711 248.602,-36.0436 219.131,-25.5806"/>
<polygon fill="midnightblue" stroke="midnightblue" points="338.435,-68.7809 349.023,-68.4035 340.511,-62.0957 338.435,-68.7809"/>
</g>
<!-- Node5 -->
<g id="node5" class="node"><title>Node5</title>
<g id="a_node5"><a xlink:href="a00235.html" target="_top" xlink:title="broadphase_SSaP.h">
<polygon fill="white" stroke="black" points="266,-6.5 266,-25.5 372,-25.5 372,-6.5 266,-6.5"/>
<text text-anchor="middle" x="319" y="-13.5" font-family="Helvetica,sans-Serif" font-size="10.00">broadphase_SSaP.h</text>
</a>
</g>
</g>
<!-- Node2&#45;&gt;Node5 -->
<g id="edge7" class="edge"><title>Node2&#45;&gt;Node5</title>
<path fill="none" stroke="midnightblue" d="M358.64,-61.8464C345.633,-50.3706 330.378,-35.0195 322.826,-25.5806"/>
<polygon fill="midnightblue" stroke="midnightblue" points="356.472,-64.5972 366.36,-68.4035 361.004,-59.262 356.472,-64.5972"/>
</g>
<!-- Node6 -->
<g id="node6" class="node"><title>Node6</title>
<g id="a_node6"><a xlink:href="a00231.html" target="_top" xlink:title="broadphase_interval\l_tree.h">
<polygon fill="white" stroke="black" points="390,-1 390,-31 494,-31 494,-1 390,-1"/>
<text text-anchor="start" x="398" y="-19" font-family="Helvetica,sans-Serif" font-size="10.00">broadphase_interval</text>
<text text-anchor="middle" x="442" y="-8" font-family="Helvetica,sans-Serif" font-size="10.00">_tree.h</text>
</a>
</g>
</g>
<!-- Node2&#45;&gt;Node6 -->
<g id="edge9" class="edge"><title>Node2&#45;&gt;Node6</title>
<path fill="none" stroke="midnightblue" d="M390.786,-60.6747C399.367,-51.4355 411.273,-39.9948 421.558,-31.1408"/>
<polygon fill="midnightblue" stroke="midnightblue" points="387.963,-58.5847 383.982,-68.4035 393.217,-63.21 387.963,-58.5847"/>
</g>
<!-- Node7 -->
<g id="node7" class="node"><title>Node7</title>
<g id="a_node7"><a xlink:href="a00229.html" target="_top" xlink:title="broadphase_dynamic\l_AABB_tree.h">
<polygon fill="white" stroke="black" points="512.5,-1 512.5,-31 621.5,-31 621.5,-1 512.5,-1"/>
<text text-anchor="start" x="520.5" y="-19" font-family="Helvetica,sans-Serif" font-size="10.00">broadphase_dynamic</text>
<text text-anchor="middle" x="567" y="-8" font-family="Helvetica,sans-Serif" font-size="10.00">_AABB_tree.h</text>
</a>
</g>
</g>
<!-- Node2&#45;&gt;Node7 -->
<g id="edge11" class="edge"><title>Node2&#45;&gt;Node7</title>
<path fill="none" stroke="midnightblue" d="M411.518,-65.1199C440.534,-55.314 483.865,-41.3781 517.473,-31.0253"/>
<polygon fill="midnightblue" stroke="midnightblue" points="410.227,-61.8625 401.892,-68.4035 412.486,-68.4877 410.227,-61.8625"/>
</g>
<!-- Node8 -->
<g id="node8" class="node"><title>Node8</title>
<g id="a_node8"><a xlink:href="a00230.html" target="_top" xlink:title="broadphase_dynamic\l_AABB_tree_array.h">
<polygon fill="white" stroke="black" points="639.5,-1 639.5,-31 748.5,-31 748.5,-1 639.5,-1"/>
<text text-anchor="start" x="647.5" y="-19" font-family="Helvetica,sans-Serif" font-size="10.00">broadphase_dynamic</text>
<text text-anchor="middle" x="694" y="-8" font-family="Helvetica,sans-Serif" font-size="10.00">_AABB_tree_array.h</text>
</a>
</g>
</g>
<!-- Node2&#45;&gt;Node8 -->
<g id="edge13" class="edge"><title>Node2&#45;&gt;Node8</title>
<path fill="none" stroke="midnightblue" d="M427.799,-67.9811C476.559,-59.4277 554.074,-45.8564 621,-32 626.923,-30.7737 633.136,-29.4123 639.346,-28.0242"/>
<polygon fill="midnightblue" stroke="midnightblue" points="427.089,-64.5521 417.845,-69.7284 428.299,-71.4467 427.089,-64.5521"/>
</g>
<!-- Node3&#45;&gt;Node2 -->
<g id="edge4" class="edge"><title>Node3&#45;&gt;Node2</title>
<path fill="none" stroke="midnightblue" d="M125.227,-27.5104C132.925,-29.0355 140.664,-30.5717 148,-32 216.517,-45.3404 296.153,-60.0564 342.176,-68.9106"/>
<polygon fill="midnightblue" stroke="midnightblue" points="125.657,-24.0278 115.168,-25.5219 124.3,-30.8949 125.657,-24.0278"/>
</g>
<!-- Node4&#45;&gt;Node2 -->
<g id="edge6" class="edge"><title>Node4&#45;&gt;Node2</title>
<path fill="none" stroke="midnightblue" d="M238.49,-28.5501C275.738,-40.2049 329.329,-57.9331 358.824,-68.4035"/>
<polygon fill="midnightblue" stroke="midnightblue" points="239.513,-25.2029 228.925,-25.5806 237.438,-31.8881 239.513,-25.2029"/>
</g>
<!-- Node5&#45;&gt;Node2 -->
<g id="edge8" class="edge"><title>Node5&#45;&gt;Node2</title>
<path fill="none" stroke="midnightblue" d="M340.338,-32.1342C353.343,-43.6056 368.601,-58.9579 376.161,-68.4035"/>
<polygon fill="midnightblue" stroke="midnightblue" points="342.509,-29.3857 332.621,-25.5806 337.978,-34.7214 342.509,-29.3857"/>
</g>
<!-- Node6&#45;&gt;Node2 -->
<g id="edge10" class="edge"><title>Node6&#45;&gt;Node2</title>
<path fill="none" stroke="midnightblue" d="M426.146,-38.6447C416.111,-48.9379 403.464,-60.657 393.784,-68.4035"/>
<polygon fill="midnightblue" stroke="midnightblue" points="428.906,-40.8187 433.218,-31.1408 423.812,-36.0176 428.906,-40.8187"/>
</g>
<!-- Node7&#45;&gt;Node2 -->
<g id="edge12" class="edge"><title>Node7&#45;&gt;Node2</title>
<path fill="none" stroke="midnightblue" d="M519.428,-34.2453C485.632,-45.4321 441.28,-59.5263 411.693,-68.4035"/>
<polygon fill="midnightblue" stroke="midnightblue" points="520.72,-37.5041 529.103,-31.0253 518.509,-30.8623 520.72,-37.5041"/>
</g>
<!-- Node8&#45;&gt;Node2 -->
<g id="edge14" class="edge"><title>Node8&#45;&gt;Node2</title>
<path fill="none" stroke="midnightblue" d="M633.526,-33.1031C553.549,-49.4173 466.654,-64.2137 417.914,-71.7776"/>
<polygon fill="midnightblue" stroke="midnightblue" points="634.656,-36.4441 643.746,-31.0019 633.246,-29.5875 634.656,-36.4441"/>
</g>
</g>
</svg>
