<?xml version="1.0" encoding="UTF-8" standalone="no"?>
<!DOCTYPE svg PUBLIC "-//W3C//DTD SVG 1.1//EN"
 "http://www.w3.org/Graphics/SVG/1.1/DTD/svg11.dtd">
<!-- Generated by graphviz version 2.36.0 (20140111.2315)
 -->
<!-- Title: broadphase_SaP.h Pages: 1 -->
<svg width="779pt" height="152pt"
 viewBox="0.00 0.00 779.00 152.00" xmlns="http://www.w3.org/2000/svg" xmlns:xlink="http://www.w3.org/1999/xlink">
<g id="graph0" class="graph" transform="scale(1 1) rotate(0) translate(4 148)">
<title>broadphase_SaP.h</title>
<polygon fill="white" stroke="none" points="-4,4 -4,-148 775,-148 775,4 -4,4"/>
<!-- Node1 -->
<g id="node1" class="node"><title>Node1</title>
<polygon fill="#bfbfbf" stroke="black" points="353.5,-124.5 353.5,-143.5 452.5,-143.5 452.5,-124.5 353.5,-124.5"/>
<text text-anchor="middle" x="403" y="-131.5" font-family="Helvetica,sans-Serif" font-size="10.00">broadphase_SaP.h</text>
</g>
<!-- Node2 -->
<g id="node2" class="node"><title>Node2</title>
<g id="a_node2"><a xlink:href="a00258.html" target="_top" xlink:title="broadphase.h">
<polygon fill="white" stroke="black" points="365.5,-68.5 365.5,-87.5 440.5,-87.5 440.5,-68.5 365.5,-68.5"/>
<text text-anchor="middle" x="403" y="-75.5" font-family="Helvetica,sans-Serif" font-size="10.00">broadphase.h</text>
</a>
</g>
</g>
<!-- Node1&#45;&gt;Node2 -->
<g id="edge1" class="edge"><title>Node1&#45;&gt;Node2</title>
<path fill="none" stroke="midnightblue" d="M396.528,-114.101C395.896,-105.136 396.343,-94.8579 397.869,-87.7511"/>
<polygon fill="midnightblue" stroke="midnightblue" points="393.066,-114.622 397.834,-124.083 400.007,-113.713 393.066,-114.622"/>
</g>
<!-- Node2&#45;&gt;Node1 -->
<g id="edge6" class="edge"><title>Node2&#45;&gt;Node1</title>
<path fill="none" stroke="midnightblue" d="M409.458,-97.6911C410.106,-106.635 409.676,-116.927 408.166,-124.083"/>
<polygon fill="midnightblue" stroke="midnightblue" points="412.923,-97.2002 408.131,-87.7511 405.985,-98.1262 412.923,-97.2002"/>
</g>
<!-- Node3 -->
<g id="node3" class="node"><title>Node3</title>
<g id="a_node3"><a xlink:href="a00259.html" target="_top" xlink:title="broadphase_bruteforce.h">
<polygon fill="white" stroke="black" points="-1,-6.5 -1,-25.5 123,-25.5 123,-6.5 -1,-6.5"/>
<text text-anchor="middle" x="61" y="-13.5" font-family="Helvetica,sans-Serif" font-size="10.00">broadphase_bruteforce.h</text>
</a>
</g>
</g>
<!-- Node2&#45;&gt;Node3 -->
<g id="edge2" class="edge"><title>Node2&#45;&gt;Node3</title>
<path fill="none" stroke="midnightblue" d="M355.113,-70.6618C299.058,-62.4203 203.962,-47.2667 123,-32 112.601,-30.039 101.381,-27.7499 91.3182,-25.5592"/>
<polygon fill="midnightblue" stroke="midnightblue" points="354.712,-74.1404 365.113,-72.1187 355.722,-67.2135 354.712,-74.1404"/>
</g>
<!-- Node4 -->
<g id="node4" class="node"><title>Node4</title>
<g id="a_node4"><a xlink:href="a00264.html" target="_top" xlink:title="broadphase_spatialhash.h">
<polygon fill="white" stroke="black" points="141,-6.5 141,-25.5 271,-25.5 271,-6.5 141,-6.5"/>
<text text-anchor="middle" x="206" y="-13.5" font-family="Helvetica,sans-Serif" font-size="10.00">broadphase_spatialhash.h</text>
</a>
</g>
</g>
<!-- Node2&#45;&gt;Node4 -->
<g id="edge4" class="edge"><title>Node2&#45;&gt;Node4</title>
<path fill="none" stroke="midnightblue" d="M360.073,-65.5807C319.875,-53.9221 261.499,-36.0881 229.276,-25.5806"/>
<polygon fill="midnightblue" stroke="midnightblue" points="359.296,-68.9991 369.874,-68.4035 361.233,-62.2725 359.296,-68.9991"/>
</g>
<!-- Node5 -->
<g id="node5" class="node"><title>Node5</title>
<g id="a_node5"><a xlink:href="a00266.html" target="_top" xlink:title="broadphase_SSaP.h">
<polygon fill="white" stroke="black" points="289,-6.5 289,-25.5 395,-25.5 395,-6.5 289,-6.5"/>
<text text-anchor="middle" x="342" y="-13.5" font-family="Helvetica,sans-Serif" font-size="10.00">broadphase_SSaP.h</text>
</a>
</g>
</g>
<!-- Node2&#45;&gt;Node5 -->
<g id="edge7" class="edge"><title>Node2&#45;&gt;Node5</title>
<path fill="none" stroke="midnightblue" d="M381.64,-61.8464C368.633,-50.3706 353.378,-35.0195 345.826,-25.5806"/>
<polygon fill="midnightblue" stroke="midnightblue" points="379.472,-64.5972 389.36,-68.4035 384.004,-59.262 379.472,-64.5972"/>
</g>
<!-- Node6 -->
<g id="node6" class="node"><title>Node6</title>
<g id="a_node6"><a xlink:href="a00262.html" target="_top" xlink:title="broadphase_interval\l_tree.h">
<polygon fill="white" stroke="black" points="413,-1 413,-31 517,-31 517,-1 413,-1"/>
<text text-anchor="start" x="421" y="-19" font-family="Helvetica,sans-Serif" font-size="10.00">broadphase_interval</text>
<text text-anchor="middle" x="465" y="-8" font-family="Helvetica,sans-Serif" font-size="10.00">_tree.h</text>
</a>
</g>
</g>
<!-- Node2&#45;&gt;Node6 -->
<g id="edge9" class="edge"><title>Node2&#45;&gt;Node6</title>
<path fill="none" stroke="midnightblue" d="M413.786,-60.6747C422.367,-51.4355 434.273,-39.9948 444.558,-31.1408"/>
<polygon fill="midnightblue" stroke="midnightblue" points="410.963,-58.5847 406.982,-68.4035 416.217,-63.21 410.963,-58.5847"/>
</g>
<!-- Node7 -->
<g id="node7" class="node"><title>Node7</title>
<g id="a_node7"><a xlink:href="a00260.html" target="_top" xlink:title="broadphase_dynamic\l_AABB_tree.h">
<polygon fill="white" stroke="black" points="535.5,-1 535.5,-31 644.5,-31 644.5,-1 535.5,-1"/>
<text text-anchor="start" x="543.5" y="-19" font-family="Helvetica,sans-Serif" font-size="10.00">broadphase_dynamic</text>
<text text-anchor="middle" x="590" y="-8" font-family="Helvetica,sans-Serif" font-size="10.00">_AABB_tree.h</text>
</a>
</g>
</g>
<!-- Node2&#45;&gt;Node7 -->
<g id="edge11" class="edge"><title>Node2&#45;&gt;Node7</title>
<path fill="none" stroke="midnightblue" d="M434.518,-65.1199C463.534,-55.314 506.865,-41.3781 540.473,-31.0253"/>
<polygon fill="midnightblue" stroke="midnightblue" points="433.227,-61.8625 424.892,-68.4035 435.486,-68.4877 433.227,-61.8625"/>
</g>
<!-- Node8 -->
<g id="node8" class="node"><title>Node8</title>
<g id="a_node8"><a xlink:href="a00261.html" target="_top" xlink:title="broadphase_dynamic\l_AABB_tree_array.h">
<polygon fill="white" stroke="black" points="662.5,-1 662.5,-31 771.5,-31 771.5,-1 662.5,-1"/>
<text text-anchor="start" x="670.5" y="-19" font-family="Helvetica,sans-Serif" font-size="10.00">broadphase_dynamic</text>
<text text-anchor="middle" x="717" y="-8" font-family="Helvetica,sans-Serif" font-size="10.00">_AABB_tree_array.h</text>
</a>
</g>
</g>
<!-- Node2&#45;&gt;Node8 -->
<g id="edge13" class="edge"><title>Node2&#45;&gt;Node8</title>
<path fill="none" stroke="midnightblue" d="M450.799,-67.9811C499.559,-59.4277 577.074,-45.8564 644,-32 649.923,-30.7737 656.136,-29.4123 662.346,-28.0242"/>
<polygon fill="midnightblue" stroke="midnightblue" points="450.089,-64.5521 440.845,-69.7284 451.299,-71.4467 450.089,-64.5521"/>
</g>
<!-- Node3&#45;&gt;Node2 -->
<g id="edge3" class="edge"><title>Node3&#45;&gt;Node2</title>
<path fill="none" stroke="midnightblue" d="M118.569,-27.577C126.142,-29.1144 133.769,-30.6365 141,-32 220.674,-47.0238 314.036,-61.9382 365.137,-70.2633"/>
<polygon fill="midnightblue" stroke="midnightblue" points="119.18,-24.1297 108.682,-25.5592 117.78,-30.9883 119.18,-24.1297"/>
</g>
<!-- Node4&#45;&gt;Node2 -->
<g id="edge5" class="edge"><title>Node4&#45;&gt;Node2</title>
<path fill="none" stroke="midnightblue" d="M248.866,-28.4016C289.045,-40.0539 347.426,-57.8886 379.675,-68.4035"/>
<polygon fill="midnightblue" stroke="midnightblue" points="249.648,-24.9847 239.07,-25.5806 247.711,-31.7113 249.648,-24.9847"/>
</g>
<!-- Node5&#45;&gt;Node2 -->
<g id="edge8" class="edge"><title>Node5&#45;&gt;Node2</title>
<path fill="none" stroke="midnightblue" d="M363.338,-32.1342C376.343,-43.6056 391.601,-58.9579 399.161,-68.4035"/>
<polygon fill="midnightblue" stroke="midnightblue" points="365.509,-29.3857 355.621,-25.5806 360.978,-34.7214 365.509,-29.3857"/>
</g>
<!-- Node6&#45;&gt;Node2 -->
<g id="edge10" class="edge"><title>Node6&#45;&gt;Node2</title>
<path fill="none" stroke="midnightblue" d="M449.146,-38.6447C439.111,-48.9379 426.464,-60.657 416.784,-68.4035"/>
<polygon fill="midnightblue" stroke="midnightblue" points="451.906,-40.8187 456.218,-31.1408 446.812,-36.0176 451.906,-40.8187"/>
</g>
<!-- Node7&#45;&gt;Node2 -->
<g id="edge12" class="edge"><title>Node7&#45;&gt;Node2</title>
<path fill="none" stroke="midnightblue" d="M542.428,-34.2453C508.632,-45.4321 464.28,-59.5263 434.693,-68.4035"/>
<polygon fill="midnightblue" stroke="midnightblue" points="543.72,-37.5041 552.103,-31.0253 541.509,-30.8623 543.72,-37.5041"/>
</g>
<!-- Node8&#45;&gt;Node2 -->
<g id="edge14" class="edge"><title>Node8&#45;&gt;Node2</title>
<path fill="none" stroke="midnightblue" d="M656.526,-33.1031C576.549,-49.4173 489.654,-64.2137 440.914,-71.7776"/>
<polygon fill="midnightblue" stroke="midnightblue" points="657.656,-36.4441 666.746,-31.0019 656.246,-29.5875 657.656,-36.4441"/>
</g>
</g>
</svg>
