<?xml version="1.0" encoding="UTF-8" standalone="no"?>
<!DOCTYPE svg PUBLIC "-//W3C//DTD SVG 1.1//EN"
 "http://www.w3.org/Graphics/SVG/1.1/DTD/svg11.dtd">
<!-- Generated by graphviz version 2.36.0 (20140111.2315)
 -->
<!-- Title: BV_node.h Pages: 1 -->
<svg width="740pt" height="432pt"
 viewBox="0.00 0.00 740.04 432.00" xmlns="http://www.w3.org/2000/svg" xmlns:xlink="http://www.w3.org/1999/xlink">
<g id="graph0" class="graph" transform="scale(1 1) rotate(0) translate(4 428)">
<title>BV_node.h</title>
<polygon fill="white" stroke="none" points="-4,4 -4,-428 736.04,-428 736.04,4 -4,4"/>
<!-- Node1 -->
<g id="node1" class="node"><title>Node1</title>
<polygon fill="#bfbfbf" stroke="black" points="161.5,-404.5 161.5,-423.5 226.5,-423.5 226.5,-404.5 161.5,-404.5"/>
<text text-anchor="middle" x="194" y="-411.5" font-family="Helvetica,sans-Serif" font-size="10.00">BV_node.h</text>
</g>
<!-- Node2 -->
<g id="node2" class="node"><title>Node2</title>
<g id="a_node2"><a xlink:href="a00318.html" target="_top" xlink:title="hpp/fcl/math/vec_3f.h">
<polygon fill="white" stroke="black" points="199.5,-112.5 199.5,-131.5 310.5,-131.5 310.5,-112.5 199.5,-112.5"/>
<text text-anchor="middle" x="255" y="-119.5" font-family="Helvetica,sans-Serif" font-size="10.00">hpp/fcl/math/vec_3f.h</text>
</a>
</g>
</g>
<!-- Node1&#45;&gt;Node2 -->
<g id="edge1" class="edge"><title>Node1&#45;&gt;Node2</title>
<path fill="none" stroke="midnightblue" d="M169.016,-404.467C131.766,-389.972 66,-356.767 66,-303 66,-303 66,-303 66,-245 66,-180.709 144.15,-148.655 199.943,-133.962"/>
<polygon fill="midnightblue" stroke="midnightblue" points="200.886,-137.334 209.73,-131.5 199.178,-130.546 200.886,-137.334"/>
</g>
<!-- Node11 -->
<g id="node11" class="node"><title>Node11</title>
<polygon fill="white" stroke="#bfbfbf" points="1,-56.5 1,-75.5 55,-75.5 55,-56.5 1,-56.5"/>
<text text-anchor="middle" x="28" y="-63.5" font-family="Helvetica,sans-Serif" font-size="10.00">iostream</text>
</g>
<!-- Node1&#45;&gt;Node11 -->
<g id="edge38" class="edge"><title>Node1&#45;&gt;Node11</title>
<path fill="none" stroke="midnightblue" d="M161.204,-406.701C112.826,-395.293 28,-366.268 28,-303 28,-303 28,-303 28,-183 28,-148.716 28,-108.732 28,-85.7902"/>
<polygon fill="midnightblue" stroke="midnightblue" points="31.5001,-85.731 28,-75.731 24.5001,-85.7311 31.5001,-85.731"/>
</g>
<!-- Node13 -->
<g id="node13" class="node"><title>Node13</title>
<g id="a_node13"><a xlink:href="a00285.html" target="_top" xlink:title="hpp/fcl/math/matrix_3f.h">
<polygon fill="white" stroke="black" points="518,-174.5 518,-193.5 640,-193.5 640,-174.5 518,-174.5"/>
<text text-anchor="middle" x="579" y="-181.5" font-family="Helvetica,sans-Serif" font-size="10.00">hpp/fcl/math/matrix_3f.h</text>
</a>
</g>
</g>
<!-- Node1&#45;&gt;Node13 -->
<g id="edge13" class="edge"><title>Node1&#45;&gt;Node13</title>
<path fill="none" stroke="midnightblue" d="M226.709,-412.007C332.424,-408.044 661.771,-389.57 726,-312 743.336,-291.063 719.31,-253.106 702,-236 682.346,-216.577 654.23,-204.173 629.839,-196.469"/>
<polygon fill="midnightblue" stroke="midnightblue" points="630.584,-193.039 620.001,-193.545 628.59,-199.749 630.584,-193.039"/>
</g>
<!-- Node14 -->
<g id="node14" class="node"><title>Node14</title>
<g id="a_node14"><a xlink:href="a00236.html" target="_top" xlink:title="hpp/fcl/BV/BV.h">
<polygon fill="white" stroke="black" points="279.5,-348.5 279.5,-367.5 366.5,-367.5 366.5,-348.5 279.5,-348.5"/>
<text text-anchor="middle" x="323" y="-355.5" font-family="Helvetica,sans-Serif" font-size="10.00">hpp/fcl/BV/BV.h</text>
</a>
</g>
</g>
<!-- Node1&#45;&gt;Node14 -->
<g id="edge15" class="edge"><title>Node1&#45;&gt;Node14</title>
<path fill="none" stroke="midnightblue" d="M214.44,-404.444C235.67,-395.557 269.099,-381.563 293.255,-371.451"/>
<polygon fill="midnightblue" stroke="midnightblue" points="294.782,-374.606 302.655,-367.516 292.079,-368.149 294.782,-374.606"/>
</g>
<!-- Node3 -->
<g id="node3" class="node"><title>Node3</title>
<polygon fill="white" stroke="#bfbfbf" points="449,-56.5 449,-75.5 551,-75.5 551,-56.5 449,-56.5"/>
<text text-anchor="middle" x="500" y="-63.5" font-family="Helvetica,sans-Serif" font-size="10.00">hpp/fcl/config&#45;fcl.hh</text>
</g>
<!-- Node2&#45;&gt;Node3 -->
<g id="edge2" class="edge"><title>Node2&#45;&gt;Node3</title>
<path fill="none" stroke="midnightblue" d="M293.821,-112.444C336.561,-103.023 405.332,-87.8656 451.566,-77.6752"/>
<polygon fill="midnightblue" stroke="midnightblue" points="452.348,-81.0869 461.361,-75.5164 450.842,-74.251 452.348,-81.0869"/>
</g>
<!-- Node4 -->
<g id="node4" class="node"><title>Node4</title>
<g id="a_node4"><a xlink:href="a00252.html" target="_top" xlink:title="hpp/fcl/data_types.h">
<polygon fill="white" stroke="black" points="73.5,-56.5 73.5,-75.5 178.5,-75.5 178.5,-56.5 73.5,-56.5"/>
<text text-anchor="middle" x="126" y="-63.5" font-family="Helvetica,sans-Serif" font-size="10.00">hpp/fcl/data_types.h</text>
</a>
</g>
</g>
<!-- Node2&#45;&gt;Node4 -->
<g id="edge3" class="edge"><title>Node2&#45;&gt;Node4</title>
<path fill="none" stroke="midnightblue" d="M234.56,-112.444C213.33,-103.557 179.901,-89.5632 155.745,-79.4514"/>
<polygon fill="midnightblue" stroke="midnightblue" points="156.921,-76.1493 146.345,-75.5164 154.218,-82.6064 156.921,-76.1493"/>
</g>
<!-- Node7 -->
<g id="node7" class="node"><title>Node7</title>
<g id="a_node7"><a xlink:href="a00283.html" target="_top" xlink:title="hpp/fcl/math/math_details.h">
<polygon fill="white" stroke="black" points="235.5,-56.5 235.5,-75.5 372.5,-75.5 372.5,-56.5 235.5,-56.5"/>
<text text-anchor="middle" x="304" y="-63.5" font-family="Helvetica,sans-Serif" font-size="10.00">hpp/fcl/math/math_details.h</text>
</a>
</g>
</g>
<!-- Node2&#45;&gt;Node7 -->
<g id="edge6" class="edge"><title>Node2&#45;&gt;Node7</title>
<path fill="none" stroke="midnightblue" d="M263.091,-112.083C270.155,-104.298 280.588,-92.8015 289.149,-83.3665"/>
<polygon fill="midnightblue" stroke="midnightblue" points="291.931,-85.5087 296.059,-75.7511 286.747,-80.8047 291.931,-85.5087"/>
</g>
<!-- Node8 -->
<g id="node8" class="node"><title>Node8</title>
<polygon fill="white" stroke="#bfbfbf" points="194,-0.5 194,-19.5 238,-19.5 238,-0.5 194,-0.5"/>
<text text-anchor="middle" x="216" y="-7.5" font-family="Helvetica,sans-Serif" font-size="10.00">cmath</text>
</g>
<!-- Node2&#45;&gt;Node8 -->
<g id="edge10" class="edge"><title>Node2&#45;&gt;Node8</title>
<path fill="none" stroke="midnightblue" d="M247.794,-112.302C241.034,-103.654 231.208,-89.7303 226,-76 220.363,-61.138 217.899,-43.2173 216.825,-29.96"/>
<polygon fill="midnightblue" stroke="midnightblue" points="220.301,-29.4702 216.194,-19.7042 213.315,-29.9004 220.301,-29.4702"/>
</g>
<!-- Node2&#45;&gt;Node11 -->
<g id="edge11" class="edge"><title>Node2&#45;&gt;Node11</title>
<path fill="none" stroke="midnightblue" d="M217.992,-112.438C181.518,-103.965 123.942,-90.496 64.9747,-76.2134"/>
<polygon fill="midnightblue" stroke="midnightblue" points="65.6604,-72.7783 55.1171,-73.8212 64.0096,-79.5808 65.6604,-72.7783"/>
</g>
<!-- Node12 -->
<g id="node12" class="node"><title>Node12</title>
<polygon fill="white" stroke="#bfbfbf" points="391,-56.5 391,-75.5 431,-75.5 431,-56.5 391,-56.5"/>
<text text-anchor="middle" x="411" y="-63.5" font-family="Helvetica,sans-Serif" font-size="10.00">limits</text>
</g>
<!-- Node2&#45;&gt;Node12 -->
<g id="edge12" class="edge"><title>Node2&#45;&gt;Node12</title>
<path fill="none" stroke="midnightblue" d="M279.719,-112.444C307.232,-102.92 351.687,-87.5314 381.127,-77.3407"/>
<polygon fill="midnightblue" stroke="midnightblue" points="382.557,-80.5496 390.862,-73.971 380.267,-73.9347 382.557,-80.5496"/>
</g>
<!-- Node5 -->
<g id="node5" class="node"><title>Node5</title>
<polygon fill="white" stroke="#bfbfbf" points="110.5,-0.5 110.5,-19.5 159.5,-19.5 159.5,-0.5 110.5,-0.5"/>
<text text-anchor="middle" x="135" y="-7.5" font-family="Helvetica,sans-Serif" font-size="10.00">cstddef</text>
</g>
<!-- Node4&#45;&gt;Node5 -->
<g id="edge4" class="edge"><title>Node4&#45;&gt;Node5</title>
<path fill="none" stroke="midnightblue" d="M127.486,-56.083C128.679,-48.9272 130.394,-38.6353 131.885,-29.6911"/>
<polygon fill="midnightblue" stroke="midnightblue" points="135.35,-30.1904 133.541,-19.7511 128.445,-29.0396 135.35,-30.1904"/>
</g>
<!-- Node6 -->
<g id="node6" class="node"><title>Node6</title>
<polygon fill="white" stroke="#bfbfbf" points="0,-0.5 0,-19.5 92,-19.5 92,-0.5 0,-0.5"/>
<text text-anchor="middle" x="46" y="-7.5" font-family="Helvetica,sans-Serif" font-size="10.00">boost/cstdint.hpp</text>
</g>
<!-- Node4&#45;&gt;Node6 -->
<g id="edge5" class="edge"><title>Node4&#45;&gt;Node6</title>
<path fill="none" stroke="midnightblue" d="M113.147,-56.324C100.784,-47.979 81.8699,-35.2122 67.2628,-25.3524"/>
<polygon fill="midnightblue" stroke="midnightblue" points="69.0682,-22.3483 58.8215,-19.6545 65.1518,-28.1503 69.0682,-22.3483"/>
</g>
<!-- Node7&#45;&gt;Node8 -->
<g id="edge7" class="edge"><title>Node7&#45;&gt;Node8</title>
<path fill="none" stroke="midnightblue" d="M289.861,-56.324C276.134,-47.9002 255.064,-34.9709 238.936,-25.0741"/>
<polygon fill="midnightblue" stroke="midnightblue" points="240.457,-21.9016 230.104,-19.6545 236.796,-27.8678 240.457,-21.9016"/>
</g>
<!-- Node9 -->
<g id="node9" class="node"><title>Node9</title>
<polygon fill="white" stroke="#bfbfbf" points="328,-0.5 328,-19.5 384,-19.5 384,-0.5 328,-0.5"/>
<text text-anchor="middle" x="356" y="-7.5" font-family="Helvetica,sans-Serif" font-size="10.00">algorithm</text>
</g>
<!-- Node7&#45;&gt;Node9 -->
<g id="edge8" class="edge"><title>Node7&#45;&gt;Node9</title>
<path fill="none" stroke="midnightblue" d="M312.587,-56.083C320.159,-48.2195 331.378,-36.5688 340.514,-27.0813"/>
<polygon fill="midnightblue" stroke="midnightblue" points="343.158,-29.3821 347.573,-19.7511 338.115,-24.5266 343.158,-29.3821"/>
</g>
<!-- Node10 -->
<g id="node10" class="node"><title>Node10</title>
<polygon fill="white" stroke="#bfbfbf" points="264,-0.5 264,-19.5 310,-19.5 310,-0.5 264,-0.5"/>
<text text-anchor="middle" x="287" y="-7.5" font-family="Helvetica,sans-Serif" font-size="10.00">cstring</text>
</g>
<!-- Node7&#45;&gt;Node10 -->
<g id="edge9" class="edge"><title>Node7&#45;&gt;Node10</title>
<path fill="none" stroke="midnightblue" d="M301.193,-56.083C298.915,-48.8486 295.629,-38.4087 292.792,-29.3968"/>
<polygon fill="midnightblue" stroke="midnightblue" points="296.096,-28.2385 289.755,-19.7511 289.419,-30.3406 296.096,-28.2385"/>
</g>
<!-- Node13&#45;&gt;Node2 -->
<g id="edge14" class="edge"><title>Node13&#45;&gt;Node2</title>
<path fill="none" stroke="midnightblue" d="M536.98,-174.453C526.236,-172.307 514.696,-170.036 504,-168 438.999,-155.627 364.289,-142.236 313.796,-133.308"/>
<polygon fill="midnightblue" stroke="midnightblue" points="314.173,-129.82 303.716,-131.528 312.955,-136.714 314.173,-129.82"/>
</g>
<!-- Node15 -->
<g id="node15" class="node"><title>Node15</title>
<g id="a_node15"><a xlink:href="a00279.html" target="_top" xlink:title="hpp/fcl/BV/kDOP.h">
<polygon fill="white" stroke="black" points="94.5,-236.5 94.5,-255.5 195.5,-255.5 195.5,-236.5 94.5,-236.5"/>
<text text-anchor="middle" x="145" y="-243.5" font-family="Helvetica,sans-Serif" font-size="10.00">hpp/fcl/BV/kDOP.h</text>
</a>
</g>
</g>
<!-- Node14&#45;&gt;Node15 -->
<g id="edge16" class="edge"><title>Node14&#45;&gt;Node15</title>
<path fill="none" stroke="midnightblue" d="M309.033,-348.368C278.358,-329.412 204.874,-284.001 167.561,-260.942"/>
<polygon fill="midnightblue" stroke="midnightblue" points="169.249,-257.871 158.902,-255.591 165.569,-263.826 169.249,-257.871"/>
</g>
<!-- Node17 -->
<g id="node17" class="node"><title>Node17</title>
<g id="a_node17"><a xlink:href="a00226.html" target="_top" xlink:title="hpp/fcl/BV/AABB.h">
<polygon fill="white" stroke="black" points="213.5,-236.5 213.5,-255.5 314.5,-255.5 314.5,-236.5 213.5,-236.5"/>
<text text-anchor="middle" x="264" y="-243.5" font-family="Helvetica,sans-Serif" font-size="10.00">hpp/fcl/BV/AABB.h</text>
</a>
</g>
</g>
<!-- Node14&#45;&gt;Node17 -->
<g id="edge19" class="edge"><title>Node14&#45;&gt;Node17</title>
<path fill="none" stroke="midnightblue" d="M316.289,-348.366C309.617,-339.541 299.344,-325.284 292,-312 283.557,-296.727 275.864,-278.393 270.687,-265.096"/>
<polygon fill="midnightblue" stroke="midnightblue" points="273.929,-263.775 267.109,-255.667 267.385,-266.258 273.929,-263.775"/>
</g>
<!-- Node18 -->
<g id="node18" class="node"><title>Node18</title>
<g id="a_node18"><a xlink:href="a00297.html" target="_top" xlink:title="hpp/fcl/BV/OBB.h">
<polygon fill="white" stroke="black" points="445.5,-236.5 445.5,-255.5 540.5,-255.5 540.5,-236.5 445.5,-236.5"/>
<text text-anchor="middle" x="493" y="-243.5" font-family="Helvetica,sans-Serif" font-size="10.00">hpp/fcl/BV/OBB.h</text>
</a>
</g>
</g>
<!-- Node14&#45;&gt;Node18 -->
<g id="edge22" class="edge"><title>Node14&#45;&gt;Node18</title>
<path fill="none" stroke="midnightblue" d="M366.978,-354.583C425.632,-350.336 524.693,-339.234 547,-312 561.495,-294.303 538.3,-274.05 517.95,-260.92"/>
<polygon fill="midnightblue" stroke="midnightblue" points="519.591,-257.821 509.234,-255.59 515.939,-263.793 519.591,-257.821"/>
</g>
<!-- Node19 -->
<g id="node19" class="node"><title>Node19</title>
<g id="a_node19"><a xlink:href="a00302.html" target="_top" xlink:title="hpp/fcl/BV/RSS.h">
<polygon fill="white" stroke="black" points="332.5,-236.5 332.5,-255.5 427.5,-255.5 427.5,-236.5 332.5,-236.5"/>
<text text-anchor="middle" x="380" y="-243.5" font-family="Helvetica,sans-Serif" font-size="10.00">hpp/fcl/BV/RSS.h</text>
</a>
</g>
</g>
<!-- Node14&#45;&gt;Node19 -->
<g id="edge25" class="edge"><title>Node14&#45;&gt;Node19</title>
<path fill="none" stroke="midnightblue" d="M315.007,-348.149C304.345,-335.216 288.019,-310.662 299,-292 307.918,-276.844 323.989,-266.426 339.478,-259.464"/>
<polygon fill="midnightblue" stroke="midnightblue" points="341.056,-262.6 348.977,-255.564 338.397,-256.124 341.056,-262.6"/>
</g>
<!-- Node21 -->
<g id="node21" class="node"><title>Node21</title>
<g id="a_node21"><a xlink:href="a00299.html" target="_top" xlink:title="hpp/fcl/BV/OBBRSS.h">
<polygon fill="white" stroke="black" points="308,-292.5 308,-311.5 424,-311.5 424,-292.5 308,-292.5"/>
<text text-anchor="middle" x="366" y="-299.5" font-family="Helvetica,sans-Serif" font-size="10.00">hpp/fcl/BV/OBBRSS.h</text>
</a>
</g>
</g>
<!-- Node14&#45;&gt;Node21 -->
<g id="edge30" class="edge"><title>Node14&#45;&gt;Node21</title>
<path fill="none" stroke="midnightblue" d="M330.101,-348.083C336.237,-340.377 345.27,-329.033 352.739,-319.653"/>
<polygon fill="midnightblue" stroke="midnightblue" points="355.54,-321.754 359.032,-311.751 350.064,-317.394 355.54,-321.754"/>
</g>
<!-- Node22 -->
<g id="node22" class="node"><title>Node22</title>
<g id="a_node22"><a xlink:href="a00280.html" target="_top" xlink:title="hpp/fcl/BV/kIOS.h">
<polygon fill="white" stroke="black" points="442,-292.5 442,-311.5 538,-311.5 538,-292.5 442,-292.5"/>
<text text-anchor="middle" x="490" y="-299.5" font-family="Helvetica,sans-Serif" font-size="10.00">hpp/fcl/BV/kIOS.h</text>
</a>
</g>
</g>
<!-- Node14&#45;&gt;Node22 -->
<g id="edge33" class="edge"><title>Node14&#45;&gt;Node22</title>
<path fill="none" stroke="midnightblue" d="M349.462,-348.444C377.678,-339.32 422.54,-324.813 453.968,-314.651"/>
<polygon fill="midnightblue" stroke="midnightblue" points="455.224,-317.923 463.662,-311.516 453.07,-311.263 455.224,-317.923"/>
</g>
<!-- Node23 -->
<g id="node23" class="node"><title>Node23</title>
<g id="a_node23"><a xlink:href="a00310.html" target="_top" xlink:title="hpp/fcl/math/transform.h">
<polygon fill="white" stroke="black" points="594.5,-292.5 594.5,-311.5 717.5,-311.5 717.5,-292.5 594.5,-292.5"/>
<text text-anchor="middle" x="656" y="-299.5" font-family="Helvetica,sans-Serif" font-size="10.00">hpp/fcl/math/transform.h</text>
</a>
</g>
</g>
<!-- Node14&#45;&gt;Node23 -->
<g id="edge35" class="edge"><title>Node14&#45;&gt;Node23</title>
<path fill="none" stroke="midnightblue" d="M366.534,-349.94C424.47,-340.545 527.287,-323.872 593.502,-313.135"/>
<polygon fill="midnightblue" stroke="midnightblue" points="594.088,-316.586 603.399,-311.53 592.967,-309.676 594.088,-316.586"/>
</g>
<!-- Node15&#45;&gt;Node2 -->
<g id="edge18" class="edge"><title>Node15&#45;&gt;Node2</title>
<path fill="none" stroke="midnightblue" d="M152.911,-236.226C171.225,-215.914 216.767,-165.404 240.341,-139.258"/>
<polygon fill="midnightblue" stroke="midnightblue" points="243.064,-141.465 247.161,-131.694 237.865,-136.778 243.064,-141.465"/>
</g>
<!-- Node16 -->
<g id="node16" class="node"><title>Node16</title>
<polygon fill="white" stroke="#bfbfbf" points="234.5,-174.5 234.5,-193.5 293.5,-193.5 293.5,-174.5 234.5,-174.5"/>
<text text-anchor="middle" x="264" y="-181.5" font-family="Helvetica,sans-Serif" font-size="10.00">stdexcept</text>
</g>
<!-- Node15&#45;&gt;Node16 -->
<g id="edge17" class="edge"><title>Node15&#45;&gt;Node16</title>
<path fill="none" stroke="midnightblue" d="M162.05,-236.403C181.844,-226.423 214.717,-209.849 237.77,-198.225"/>
<polygon fill="midnightblue" stroke="midnightblue" points="239.628,-201.208 246.982,-193.581 236.477,-194.958 239.628,-201.208"/>
</g>
<!-- Node17&#45;&gt;Node2 -->
<g id="edge21" class="edge"><title>Node17&#45;&gt;Node2</title>
<path fill="none" stroke="midnightblue" d="M253.01,-236.365C243.547,-228.171 230.564,-214.917 225,-200 220.029,-186.675 220.879,-181.612 225,-168 228.117,-157.705 234.452,-147.612 240.501,-139.602"/>
<polygon fill="midnightblue" stroke="midnightblue" points="243.228,-141.797 246.786,-131.818 237.781,-137.399 243.228,-141.797"/>
</g>
<!-- Node17&#45;&gt;Node16 -->
<g id="edge20" class="edge"><title>Node17&#45;&gt;Node16</title>
<path fill="none" stroke="midnightblue" d="M264,-236.403C264,-227.938 264,-214.728 264,-203.82"/>
<polygon fill="midnightblue" stroke="midnightblue" points="267.5,-203.581 264,-193.581 260.5,-203.581 267.5,-203.581"/>
</g>
<!-- Node18&#45;&gt;Node2 -->
<g id="edge23" class="edge"><title>Node18&#45;&gt;Node2</title>
<path fill="none" stroke="midnightblue" d="M493.104,-236.368C492.797,-220.378 489.719,-186.13 470,-168 448.494,-148.227 375.719,-136.004 320.746,-129.375"/>
<polygon fill="midnightblue" stroke="midnightblue" points="321.044,-125.886 310.705,-128.202 320.232,-132.839 321.044,-125.886"/>
</g>
<!-- Node18&#45;&gt;Node13 -->
<g id="edge24" class="edge"><title>Node18&#45;&gt;Node13</title>
<path fill="none" stroke="midnightblue" d="M505.322,-236.403C519.116,-226.78 541.699,-211.024 558.232,-199.489"/>
<polygon fill="midnightblue" stroke="midnightblue" points="560.503,-202.173 566.701,-193.581 556.497,-196.432 560.503,-202.173"/>
</g>
<!-- Node19&#45;&gt;Node2 -->
<g id="edge27" class="edge"><title>Node19&#45;&gt;Node2</title>
<path fill="none" stroke="midnightblue" d="M371.386,-236.411C357.054,-222.14 327.377,-192.671 302,-168 291.851,-158.133 280.378,-147.145 271.308,-138.497"/>
<polygon fill="midnightblue" stroke="midnightblue" points="273.705,-135.947 264.049,-131.586 268.878,-141.016 273.705,-135.947"/>
</g>
<!-- Node19&#45;&gt;Node13 -->
<g id="edge28" class="edge"><title>Node19&#45;&gt;Node13</title>
<path fill="none" stroke="midnightblue" d="M408.512,-236.403C443.238,-225.933 502.037,-208.205 540.692,-196.55"/>
<polygon fill="midnightblue" stroke="midnightblue" points="541.977,-199.818 550.541,-193.581 539.956,-193.116 541.977,-199.818"/>
</g>
<!-- Node19&#45;&gt;Node16 -->
<g id="edge26" class="edge"><title>Node19&#45;&gt;Node16</title>
<path fill="none" stroke="midnightblue" d="M363.38,-236.403C344.085,-226.423 312.041,-209.849 289.569,-198.225"/>
<polygon fill="midnightblue" stroke="midnightblue" points="291.079,-195.066 280.589,-193.581 287.863,-201.284 291.079,-195.066"/>
</g>
<!-- Node20 -->
<g id="node20" class="node"><title>Node20</title>
<polygon fill="white" stroke="#bfbfbf" points="350.5,-169 350.5,-199 461.5,-199 461.5,-169 350.5,-169"/>
<text text-anchor="start" x="358.5" y="-187" font-family="Helvetica,sans-Serif" font-size="10.00">boost/math/constants</text>
<text text-anchor="middle" x="406" y="-176" font-family="Helvetica,sans-Serif" font-size="10.00">/constants.hpp</text>
</g>
<!-- Node19&#45;&gt;Node20 -->
<g id="edge29" class="edge"><title>Node19&#45;&gt;Node20</title>
<path fill="none" stroke="midnightblue" d="M383.725,-236.403C386.884,-229.113 391.569,-218.303 395.828,-208.475"/>
<polygon fill="midnightblue" stroke="midnightblue" points="399.108,-209.708 399.872,-199.141 392.685,-206.925 399.108,-209.708"/>
</g>
<!-- Node21&#45;&gt;Node18 -->
<g id="edge31" class="edge"><title>Node21&#45;&gt;Node18</title>
<path fill="none" stroke="midnightblue" d="M386.124,-292.444C407.024,-283.557 439.935,-269.563 463.716,-259.451"/>
<polygon fill="midnightblue" stroke="midnightblue" points="465.138,-262.65 472.971,-255.516 462.398,-256.208 465.138,-262.65"/>
</g>
<!-- Node21&#45;&gt;Node19 -->
<g id="edge32" class="edge"><title>Node21&#45;&gt;Node19</title>
<path fill="none" stroke="midnightblue" d="M368.312,-292.083C370.167,-284.927 372.835,-274.635 375.154,-265.691"/>
<polygon fill="midnightblue" stroke="midnightblue" points="378.609,-266.309 377.731,-255.751 371.834,-264.553 378.609,-266.309"/>
</g>
<!-- Node22&#45;&gt;Node18 -->
<g id="edge34" class="edge"><title>Node22&#45;&gt;Node18</title>
<path fill="none" stroke="midnightblue" d="M490.495,-292.083C490.889,-285.006 491.452,-274.861 491.945,-265.986"/>
<polygon fill="midnightblue" stroke="midnightblue" points="495.454,-265.93 492.514,-255.751 488.464,-265.542 495.454,-265.93"/>
</g>
<!-- Node23&#45;&gt;Node13 -->
<g id="edge36" class="edge"><title>Node23&#45;&gt;Node13</title>
<path fill="none" stroke="midnightblue" d="M665.519,-292.217C678.258,-279.368 697.94,-254.919 686,-236 673.666,-216.457 651.562,-204.246 630.634,-196.695"/>
<polygon fill="midnightblue" stroke="midnightblue" points="631.734,-193.372 621.14,-193.544 629.529,-200.016 631.734,-193.372"/>
</g>
<!-- Node24 -->
<g id="node24" class="node"><title>Node24</title>
<polygon fill="white" stroke="#bfbfbf" points="558.5,-236.5 558.5,-255.5 677.5,-255.5 677.5,-236.5 558.5,-236.5"/>
<text text-anchor="middle" x="618" y="-243.5" font-family="Helvetica,sans-Serif" font-size="10.00">boost/thread/mutex.hpp</text>
</g>
<!-- Node23&#45;&gt;Node24 -->
<g id="edge37" class="edge"><title>Node23&#45;&gt;Node24</title>
<path fill="none" stroke="midnightblue" d="M649.725,-292.083C644.358,-284.455 636.482,-273.264 629.921,-263.941"/>
<polygon fill="midnightblue" stroke="midnightblue" points="632.775,-261.915 624.158,-255.751 627.051,-265.943 632.775,-261.915"/>
</g>
</g>
</svg>
