<?xml version="1.0" encoding="UTF-8" standalone="no"?>
<!DOCTYPE svg PUBLIC "-//W3C//DTD SVG 1.1//EN"
 "http://www.w3.org/Graphics/SVG/1.1/DTD/svg11.dtd">
<!-- Generated by graphviz version 2.36.0 (20140111.2315)
 -->
<!-- Title: AABB.h Pages: 1 -->
<svg width="557pt" height="196pt"
 viewBox="0.00 0.00 557.00 196.00" xmlns="http://www.w3.org/2000/svg" xmlns:xlink="http://www.w3.org/1999/xlink">
<g id="graph0" class="graph" transform="scale(1 1) rotate(0) translate(4 192)">
<title>AABB.h</title>
<polygon fill="white" stroke="none" points="-4,4 -4,-192 553,-192 553,4 -4,4"/>
<!-- Node1 -->
<g id="node1" class="node"><title>Node1</title>
<polygon fill="#bfbfbf" stroke="black" points="223,-168.5 223,-187.5 275,-187.5 275,-168.5 223,-168.5"/>
<text text-anchor="middle" x="249" y="-175.5" font-family="Helvetica,sans-Serif" font-size="10.00">AABB.h</text>
</g>
<!-- Node2 -->
<g id="node2" class="node"><title>Node2</title>
<polygon fill="white" stroke="#bfbfbf" points="168.5,-112.5 168.5,-131.5 227.5,-131.5 227.5,-112.5 168.5,-112.5"/>
<text text-anchor="middle" x="198" y="-119.5" font-family="Helvetica,sans-Serif" font-size="10.00">stdexcept</text>
</g>
<!-- Node1&#45;&gt;Node2 -->
<g id="edge1" class="edge"><title>Node1&#45;&gt;Node2</title>
<path fill="none" stroke="midnightblue" d="M240.578,-168.083C233.152,-160.22 222.148,-148.569 213.188,-139.081"/>
<polygon fill="midnightblue" stroke="midnightblue" points="215.676,-136.618 206.265,-131.751 210.587,-141.424 215.676,-136.618"/>
</g>
<!-- Node3 -->
<g id="node3" class="node"><title>Node3</title>
<g id="a_node3"><a xlink:href="a00318.html" target="_top" xlink:title="hpp/fcl/math/vec_3f.h">
<polygon fill="white" stroke="black" points="245.5,-112.5 245.5,-131.5 356.5,-131.5 356.5,-112.5 245.5,-112.5"/>
<text text-anchor="middle" x="301" y="-119.5" font-family="Helvetica,sans-Serif" font-size="10.00">hpp/fcl/math/vec_3f.h</text>
</a>
</g>
</g>
<!-- Node1&#45;&gt;Node3 -->
<g id="edge2" class="edge"><title>Node1&#45;&gt;Node3</title>
<path fill="none" stroke="midnightblue" d="M257.587,-168.083C265.159,-160.22 276.378,-148.569 285.514,-139.081"/>
<polygon fill="midnightblue" stroke="midnightblue" points="288.158,-141.382 292.573,-131.751 283.115,-136.527 288.158,-141.382"/>
</g>
<!-- Node4 -->
<g id="node4" class="node"><title>Node4</title>
<polygon fill="white" stroke="#bfbfbf" points="-1,-56.5 -1,-75.5 101,-75.5 101,-56.5 -1,-56.5"/>
<text text-anchor="middle" x="50" y="-63.5" font-family="Helvetica,sans-Serif" font-size="10.00">hpp/fcl/config&#45;fcl.hh</text>
</g>
<!-- Node3&#45;&gt;Node4 -->
<g id="edge3" class="edge"><title>Node3&#45;&gt;Node4</title>
<path fill="none" stroke="midnightblue" d="M261.228,-112.444C217.442,-103.023 146.986,-87.8656 99.6197,-77.6752"/>
<polygon fill="midnightblue" stroke="midnightblue" points="100.098,-74.1981 89.5856,-75.5164 98.6258,-81.0415 100.098,-74.1981"/>
</g>
<!-- Node5 -->
<g id="node5" class="node"><title>Node5</title>
<g id="a_node5"><a xlink:href="a00252.html" target="_top" xlink:title="hpp/fcl/data_types.h">
<polygon fill="white" stroke="black" points="119.5,-56.5 119.5,-75.5 224.5,-75.5 224.5,-56.5 119.5,-56.5"/>
<text text-anchor="middle" x="172" y="-63.5" font-family="Helvetica,sans-Serif" font-size="10.00">hpp/fcl/data_types.h</text>
</a>
</g>
</g>
<!-- Node3&#45;&gt;Node5 -->
<g id="edge4" class="edge"><title>Node3&#45;&gt;Node5</title>
<path fill="none" stroke="midnightblue" d="M280.56,-112.444C259.33,-103.557 225.901,-89.5632 201.745,-79.4514"/>
<polygon fill="midnightblue" stroke="midnightblue" points="202.921,-76.1493 192.345,-75.5164 200.218,-82.6064 202.921,-76.1493"/>
</g>
<!-- Node8 -->
<g id="node8" class="node"><title>Node8</title>
<g id="a_node8"><a xlink:href="a00283.html" target="_top" xlink:title="hpp/fcl/math/math_details.h">
<polygon fill="white" stroke="black" points="281.5,-56.5 281.5,-75.5 418.5,-75.5 418.5,-56.5 281.5,-56.5"/>
<text text-anchor="middle" x="350" y="-63.5" font-family="Helvetica,sans-Serif" font-size="10.00">hpp/fcl/math/math_details.h</text>
</a>
</g>
</g>
<!-- Node3&#45;&gt;Node8 -->
<g id="edge7" class="edge"><title>Node3&#45;&gt;Node8</title>
<path fill="none" stroke="midnightblue" d="M309.091,-112.083C316.155,-104.298 326.588,-92.8015 335.149,-83.3665"/>
<polygon fill="midnightblue" stroke="midnightblue" points="337.931,-85.5087 342.059,-75.7511 332.747,-80.8047 337.931,-85.5087"/>
</g>
<!-- Node9 -->
<g id="node9" class="node"><title>Node9</title>
<polygon fill="white" stroke="#bfbfbf" points="245,-0.5 245,-19.5 289,-19.5 289,-0.5 245,-0.5"/>
<text text-anchor="middle" x="267" y="-7.5" font-family="Helvetica,sans-Serif" font-size="10.00">cmath</text>
</g>
<!-- Node3&#45;&gt;Node9 -->
<g id="edge11" class="edge"><title>Node3&#45;&gt;Node9</title>
<path fill="none" stroke="midnightblue" d="M293.869,-112.324C287.213,-103.692 277.633,-89.7803 273,-76 267.972,-61.0453 266.639,-43.1327 266.468,-29.9021"/>
<polygon fill="midnightblue" stroke="midnightblue" points="269.97,-29.7015 266.554,-19.6725 262.97,-29.6427 269.97,-29.7015"/>
</g>
<!-- Node12 -->
<g id="node12" class="node"><title>Node12</title>
<polygon fill="white" stroke="#bfbfbf" points="437,-56.5 437,-75.5 491,-75.5 491,-56.5 437,-56.5"/>
<text text-anchor="middle" x="464" y="-63.5" font-family="Helvetica,sans-Serif" font-size="10.00">iostream</text>
</g>
<!-- Node3&#45;&gt;Node12 -->
<g id="edge12" class="edge"><title>Node3&#45;&gt;Node12</title>
<path fill="none" stroke="midnightblue" d="M326.828,-112.444C354.249,-103.359 397.777,-88.9388 428.432,-78.7831"/>
<polygon fill="midnightblue" stroke="midnightblue" points="429.901,-81.9837 438.293,-75.5164 427.7,-75.3389 429.901,-81.9837"/>
</g>
<!-- Node13 -->
<g id="node13" class="node"><title>Node13</title>
<polygon fill="white" stroke="#bfbfbf" points="509,-56.5 509,-75.5 549,-75.5 549,-56.5 509,-56.5"/>
<text text-anchor="middle" x="529" y="-63.5" font-family="Helvetica,sans-Serif" font-size="10.00">limits</text>
</g>
<!-- Node3&#45;&gt;Node13 -->
<g id="edge13" class="edge"><title>Node3&#45;&gt;Node13</title>
<path fill="none" stroke="midnightblue" d="M343.163,-112.47C381.473,-104.495 439.733,-91.8121 498.892,-76.1426"/>
<polygon fill="midnightblue" stroke="midnightblue" points="500.022,-79.4636 508.777,-73.4981 498.213,-72.7014 500.022,-79.4636"/>
</g>
<!-- Node6 -->
<g id="node6" class="node"><title>Node6</title>
<polygon fill="white" stroke="#bfbfbf" points="61.5,-0.5 61.5,-19.5 110.5,-19.5 110.5,-0.5 61.5,-0.5"/>
<text text-anchor="middle" x="86" y="-7.5" font-family="Helvetica,sans-Serif" font-size="10.00">cstddef</text>
</g>
<!-- Node5&#45;&gt;Node6 -->
<g id="edge5" class="edge"><title>Node5&#45;&gt;Node6</title>
<path fill="none" stroke="midnightblue" d="M158.183,-56.324C144.767,-47.9002 124.176,-34.9709 108.414,-25.0741"/>
<polygon fill="midnightblue" stroke="midnightblue" points="110.113,-22.0081 99.7831,-19.6545 106.391,-27.9364 110.113,-22.0081"/>
</g>
<!-- Node7 -->
<g id="node7" class="node"><title>Node7</title>
<polygon fill="white" stroke="#bfbfbf" points="129,-0.5 129,-19.5 221,-19.5 221,-0.5 129,-0.5"/>
<text text-anchor="middle" x="175" y="-7.5" font-family="Helvetica,sans-Serif" font-size="10.00">boost/cstdint.hpp</text>
</g>
<!-- Node5&#45;&gt;Node7 -->
<g id="edge6" class="edge"><title>Node5&#45;&gt;Node7</title>
<path fill="none" stroke="midnightblue" d="M172.495,-56.083C172.889,-49.0059 173.452,-38.8611 173.945,-29.9865"/>
<polygon fill="midnightblue" stroke="midnightblue" points="177.454,-29.9299 174.514,-19.7511 170.464,-29.5415 177.454,-29.9299"/>
</g>
<!-- Node8&#45;&gt;Node9 -->
<g id="edge8" class="edge"><title>Node8&#45;&gt;Node9</title>
<path fill="none" stroke="midnightblue" d="M336.665,-56.324C323.838,-47.979 304.215,-35.2122 289.06,-25.3524"/>
<polygon fill="midnightblue" stroke="midnightblue" points="290.593,-22.1742 280.302,-19.6545 286.776,-28.0417 290.593,-22.1742"/>
</g>
<!-- Node10 -->
<g id="node10" class="node"><title>Node10</title>
<polygon fill="white" stroke="#bfbfbf" points="319,-0.5 319,-19.5 375,-19.5 375,-0.5 319,-0.5"/>
<text text-anchor="middle" x="347" y="-7.5" font-family="Helvetica,sans-Serif" font-size="10.00">algorithm</text>
</g>
<!-- Node8&#45;&gt;Node10 -->
<g id="edge9" class="edge"><title>Node8&#45;&gt;Node10</title>
<path fill="none" stroke="midnightblue" d="M349.505,-56.083C349.111,-49.0059 348.548,-38.8611 348.055,-29.9865"/>
<polygon fill="midnightblue" stroke="midnightblue" points="351.536,-29.5415 347.486,-19.7511 344.546,-29.9299 351.536,-29.5415"/>
</g>
<!-- Node11 -->
<g id="node11" class="node"><title>Node11</title>
<polygon fill="white" stroke="#bfbfbf" points="393,-0.5 393,-19.5 439,-19.5 439,-0.5 393,-0.5"/>
<text text-anchor="middle" x="416" y="-7.5" font-family="Helvetica,sans-Serif" font-size="10.00">cstring</text>
</g>
<!-- Node8&#45;&gt;Node11 -->
<g id="edge10" class="edge"><title>Node8&#45;&gt;Node11</title>
<path fill="none" stroke="midnightblue" d="M360.604,-56.324C370.456,-48.2631 385.351,-36.0765 397.215,-26.3695"/>
<polygon fill="midnightblue" stroke="midnightblue" points="399.68,-28.8752 405.203,-19.8339 395.247,-23.4575 399.68,-28.8752"/>
</g>
</g>
</svg>
