<?xml version="1.0" encoding="UTF-8" standalone="no"?>
<!DOCTYPE svg PUBLIC "-//W3C//DTD SVG 1.1//EN"
 "http://www.w3.org/Graphics/SVG/1.1/DTD/svg11.dtd">
<!-- Generated by graphviz version 2.36.0 (20140111.2315)
 -->
<!-- Title: collision.h Pages: 1 -->
<svg width="1315pt" height="592pt"
 viewBox="0.00 0.00 1315.00 592.00" xmlns="http://www.w3.org/2000/svg" xmlns:xlink="http://www.w3.org/1999/xlink">
<g id="graph0" class="graph" transform="scale(1 1) rotate(0) translate(4 588)">
<title>collision.h</title>
<polygon fill="white" stroke="none" points="-4,4 -4,-588 1311,-588 1311,4 -4,4"/>
<!-- Node1 -->
<g id="node1" class="node"><title>Node1</title>
<polygon fill="#bfbfbf" stroke="black" points="735,-564.5 735,-583.5 795,-583.5 795,-564.5 735,-564.5"/>
<text text-anchor="middle" x="765" y="-571.5" font-family="Helvetica,sans-Serif" font-size="10.00">collision.h</text>
</g>
<!-- Node2 -->
<g id="node2" class="node"><title>Node2</title>
<g id="a_node2"><a xlink:href="a00318.html" target="_top" xlink:title="hpp/fcl/math/vec_3f.h">
<polygon fill="white" stroke="black" points="561.5,-112.5 561.5,-131.5 672.5,-131.5 672.5,-112.5 561.5,-112.5"/>
<text text-anchor="middle" x="617" y="-119.5" font-family="Helvetica,sans-Serif" font-size="10.00">hpp/fcl/math/vec_3f.h</text>
</a>
</g>
</g>
<!-- Node1&#45;&gt;Node2 -->
<g id="edge1" class="edge"><title>Node1&#45;&gt;Node2</title>
<path fill="none" stroke="midnightblue" d="M765,-564.269C765,-544.941 765,-497.076 765,-457 765,-457 765,-457 765,-251 765,-191.309 695.276,-153.257 651.542,-135.26"/>
<polygon fill="midnightblue" stroke="midnightblue" points="652.692,-131.951 642.106,-131.52 650.113,-138.458 652.692,-131.951"/>
</g>
<!-- Node13 -->
<g id="node13" class="node"><title>Node13</title>
<g id="a_node13"><a xlink:href="a00249.html" target="_top" xlink:title="hpp/fcl/collision_object.h">
<polygon fill="white" stroke="black" points="543,-446.5 543,-465.5 667,-465.5 667,-446.5 543,-446.5"/>
<text text-anchor="middle" x="605" y="-453.5" font-family="Helvetica,sans-Serif" font-size="10.00">hpp/fcl/collision_object.h</text>
</a>
</g>
</g>
<!-- Node1&#45;&gt;Node13 -->
<g id="edge13" class="edge"><title>Node1&#45;&gt;Node13</title>
<path fill="none" stroke="midnightblue" d="M753.235,-564.47C726.073,-544.778 658.744,-495.964 624.978,-471.484"/>
<polygon fill="midnightblue" stroke="midnightblue" points="626.933,-468.578 616.782,-465.542 622.824,-474.246 626.933,-468.578"/>
</g>
<!-- Node30 -->
<g id="node30" class="node"><title>Node30</title>
<g id="a_node30"><a xlink:href="a00246.html" target="_top" xlink:title="hpp/fcl/collision_data.h">
<polygon fill="white" stroke="black" points="812,-508.5 812,-527.5 928,-527.5 928,-508.5 812,-508.5"/>
<text text-anchor="middle" x="870" y="-515.5" font-family="Helvetica,sans-Serif" font-size="10.00">hpp/fcl/collision_data.h</text>
</a>
</g>
</g>
<!-- Node1&#45;&gt;Node30 -->
<g id="edge45" class="edge"><title>Node1&#45;&gt;Node30</title>
<path fill="none" stroke="midnightblue" d="M781.87,-564.324C798.709,-555.664 824.807,-542.242 844.238,-532.249"/>
<polygon fill="midnightblue" stroke="midnightblue" points="845.88,-535.341 853.172,-527.655 842.678,-529.116 845.88,-535.341"/>
</g>
<!-- Node3 -->
<g id="node3" class="node"><title>Node3</title>
<polygon fill="white" stroke="#bfbfbf" points="497,-56.5 497,-75.5 599,-75.5 599,-56.5 497,-56.5"/>
<text text-anchor="middle" x="548" y="-63.5" font-family="Helvetica,sans-Serif" font-size="10.00">hpp/fcl/config&#45;fcl.hh</text>
</g>
<!-- Node2&#45;&gt;Node3 -->
<g id="edge2" class="edge"><title>Node2&#45;&gt;Node3</title>
<path fill="none" stroke="midnightblue" d="M605.914,-112.324C595.514,-104.185 579.739,-91.8395 567.278,-82.0874"/>
<polygon fill="midnightblue" stroke="midnightblue" points="569.32,-79.2407 559.288,-75.8339 565.006,-84.7533 569.32,-79.2407"/>
</g>
<!-- Node4 -->
<g id="node4" class="node"><title>Node4</title>
<g id="a_node4"><a xlink:href="a00252.html" target="_top" xlink:title="hpp/fcl/data_types.h">
<polygon fill="white" stroke="black" points="335.5,-56.5 335.5,-75.5 440.5,-75.5 440.5,-56.5 335.5,-56.5"/>
<text text-anchor="middle" x="388" y="-63.5" font-family="Helvetica,sans-Serif" font-size="10.00">hpp/fcl/data_types.h</text>
</a>
</g>
</g>
<!-- Node2&#45;&gt;Node4 -->
<g id="edge3" class="edge"><title>Node2&#45;&gt;Node4</title>
<path fill="none" stroke="midnightblue" d="M580.714,-112.444C541.017,-103.083 477.293,-88.0561 434.088,-77.868"/>
<polygon fill="midnightblue" stroke="midnightblue" points="434.652,-74.4051 424.116,-75.5164 433.046,-81.2182 434.652,-74.4051"/>
</g>
<!-- Node7 -->
<g id="node7" class="node"><title>Node7</title>
<g id="a_node7"><a xlink:href="a00283.html" target="_top" xlink:title="hpp/fcl/math/math_details.h">
<polygon fill="white" stroke="black" points="617.5,-56.5 617.5,-75.5 754.5,-75.5 754.5,-56.5 617.5,-56.5"/>
<text text-anchor="middle" x="686" y="-63.5" font-family="Helvetica,sans-Serif" font-size="10.00">hpp/fcl/math/math_details.h</text>
</a>
</g>
</g>
<!-- Node2&#45;&gt;Node7 -->
<g id="edge6" class="edge"><title>Node2&#45;&gt;Node7</title>
<path fill="none" stroke="midnightblue" d="M628.086,-112.324C638.486,-104.185 654.261,-91.8395 666.722,-82.0874"/>
<polygon fill="midnightblue" stroke="midnightblue" points="668.994,-84.7533 674.712,-75.8339 664.68,-79.2407 668.994,-84.7533"/>
</g>
<!-- Node8 -->
<g id="node8" class="node"><title>Node8</title>
<polygon fill="white" stroke="#bfbfbf" points="596,-0.5 596,-19.5 640,-19.5 640,-0.5 596,-0.5"/>
<text text-anchor="middle" x="618" y="-7.5" font-family="Helvetica,sans-Serif" font-size="10.00">cmath</text>
</g>
<!-- Node2&#45;&gt;Node8 -->
<g id="edge10" class="edge"><title>Node2&#45;&gt;Node8</title>
<path fill="none" stroke="midnightblue" d="M561.213,-113.249C516.831,-104.592 465.599,-87.4598 488,-56 509.996,-25.1093 554.716,-15.2264 585.51,-12.1752"/>
<polygon fill="midnightblue" stroke="midnightblue" points="586.072,-15.6417 595.762,-11.3577 585.515,-8.66383 586.072,-15.6417"/>
</g>
<!-- Node11 -->
<g id="node11" class="node"><title>Node11</title>
<polygon fill="white" stroke="#bfbfbf" points="773,-56.5 773,-75.5 827,-75.5 827,-56.5 773,-56.5"/>
<text text-anchor="middle" x="800" y="-63.5" font-family="Helvetica,sans-Serif" font-size="10.00">iostream</text>
</g>
<!-- Node2&#45;&gt;Node11 -->
<g id="edge11" class="edge"><title>Node2&#45;&gt;Node11</title>
<path fill="none" stroke="midnightblue" d="M645.997,-112.444C677.735,-103.078 728.691,-88.0419 763.218,-77.8536"/>
<polygon fill="midnightblue" stroke="midnightblue" points="764.328,-81.1755 772.929,-74.9883 762.347,-74.4617 764.328,-81.1755"/>
</g>
<!-- Node12 -->
<g id="node12" class="node"><title>Node12</title>
<polygon fill="white" stroke="#bfbfbf" points="845,-56.5 845,-75.5 885,-75.5 885,-56.5 845,-56.5"/>
<text text-anchor="middle" x="865" y="-63.5" font-family="Helvetica,sans-Serif" font-size="10.00">limits</text>
</g>
<!-- Node2&#45;&gt;Node12 -->
<g id="edge12" class="edge"><title>Node2&#45;&gt;Node12</title>
<path fill="none" stroke="midnightblue" d="M665.591,-112.433C708.002,-104.638 771.361,-92.227 834.992,-76.0678"/>
<polygon fill="midnightblue" stroke="midnightblue" points="835.977,-79.4286 844.791,-73.5497 834.235,-72.6489 835.977,-79.4286"/>
</g>
<!-- Node5 -->
<g id="node5" class="node"><title>Node5</title>
<polygon fill="white" stroke="#bfbfbf" points="408.5,-0.5 408.5,-19.5 457.5,-19.5 457.5,-0.5 408.5,-0.5"/>
<text text-anchor="middle" x="433" y="-7.5" font-family="Helvetica,sans-Serif" font-size="10.00">cstddef</text>
</g>
<!-- Node4&#45;&gt;Node5 -->
<g id="edge4" class="edge"><title>Node4&#45;&gt;Node5</title>
<path fill="none" stroke="midnightblue" d="M395.431,-56.083C401.853,-48.3768 411.306,-37.0333 419.122,-27.6531"/>
<polygon fill="midnightblue" stroke="midnightblue" points="421.994,-29.674 425.707,-19.7511 416.617,-25.1927 421.994,-29.674"/>
</g>
<!-- Node6 -->
<g id="node6" class="node"><title>Node6</title>
<polygon fill="white" stroke="#bfbfbf" points="298,-0.5 298,-19.5 390,-19.5 390,-0.5 298,-0.5"/>
<text text-anchor="middle" x="344" y="-7.5" font-family="Helvetica,sans-Serif" font-size="10.00">boost/cstdint.hpp</text>
</g>
<!-- Node4&#45;&gt;Node6 -->
<g id="edge5" class="edge"><title>Node4&#45;&gt;Node6</title>
<path fill="none" stroke="midnightblue" d="M380.734,-56.083C374.455,-48.3768 365.212,-37.0333 357.569,-27.6531"/>
<polygon fill="midnightblue" stroke="midnightblue" points="360.161,-25.2926 351.131,-19.7511 354.734,-29.7143 360.161,-25.2926"/>
</g>
<!-- Node7&#45;&gt;Node8 -->
<g id="edge7" class="edge"><title>Node7&#45;&gt;Node8</title>
<path fill="none" stroke="midnightblue" d="M675.075,-56.324C664.825,-48.1849 649.279,-35.8395 636.999,-26.0874"/>
<polygon fill="midnightblue" stroke="midnightblue" points="639.132,-23.3119 629.124,-19.8339 634.779,-28.7937 639.132,-23.3119"/>
</g>
<!-- Node9 -->
<g id="node9" class="node"><title>Node9</title>
<polygon fill="white" stroke="#bfbfbf" points="658,-0.5 658,-19.5 714,-19.5 714,-0.5 658,-0.5"/>
<text text-anchor="middle" x="686" y="-7.5" font-family="Helvetica,sans-Serif" font-size="10.00">algorithm</text>
</g>
<!-- Node7&#45;&gt;Node9 -->
<g id="edge8" class="edge"><title>Node7&#45;&gt;Node9</title>
<path fill="none" stroke="midnightblue" d="M686,-56.083C686,-49.0059 686,-38.8611 686,-29.9865"/>
<polygon fill="midnightblue" stroke="midnightblue" points="689.5,-29.751 686,-19.7511 682.5,-29.7511 689.5,-29.751"/>
</g>
<!-- Node10 -->
<g id="node10" class="node"><title>Node10</title>
<polygon fill="white" stroke="#bfbfbf" points="732,-0.5 732,-19.5 778,-19.5 778,-0.5 732,-0.5"/>
<text text-anchor="middle" x="755" y="-7.5" font-family="Helvetica,sans-Serif" font-size="10.00">cstring</text>
</g>
<!-- Node7&#45;&gt;Node10 -->
<g id="edge9" class="edge"><title>Node7&#45;&gt;Node10</title>
<path fill="none" stroke="midnightblue" d="M697.086,-56.324C707.486,-48.1849 723.261,-35.8395 735.722,-26.0874"/>
<polygon fill="midnightblue" stroke="midnightblue" points="737.994,-28.7533 743.712,-19.8339 733.68,-23.2407 737.994,-28.7533"/>
</g>
<!-- Node14 -->
<g id="node14" class="node"><title>Node14</title>
<g id="a_node14"><a xlink:href="a00253.html" target="_top" xlink:title="hpp/fcl/deprecated.h">
<polygon fill="white" stroke="black" points="552.5,-378.5 552.5,-397.5 657.5,-397.5 657.5,-378.5 552.5,-378.5"/>
<text text-anchor="middle" x="605" y="-385.5" font-family="Helvetica,sans-Serif" font-size="10.00">hpp/fcl/deprecated.h</text>
</a>
</g>
</g>
<!-- Node13&#45;&gt;Node14 -->
<g id="edge14" class="edge"><title>Node13&#45;&gt;Node14</title>
<path fill="none" stroke="midnightblue" d="M605,-446.372C605,-436.643 605,-420.528 605,-407.85"/>
<polygon fill="midnightblue" stroke="midnightblue" points="608.5,-407.841 605,-397.841 601.5,-407.841 608.5,-407.841"/>
</g>
<!-- Node15 -->
<g id="node15" class="node"><title>Node15</title>
<g id="a_node15"><a xlink:href="a00226.html" target="_top" xlink:title="hpp/fcl/BV/AABB.h">
<polygon fill="white" stroke="black" points="635.5,-242.5 635.5,-261.5 736.5,-261.5 736.5,-242.5 635.5,-242.5"/>
<text text-anchor="middle" x="686" y="-249.5" font-family="Helvetica,sans-Serif" font-size="10.00">hpp/fcl/BV/AABB.h</text>
</a>
</g>
</g>
<!-- Node13&#45;&gt;Node15 -->
<g id="edge15" class="edge"><title>Node13&#45;&gt;Node15</title>
<path fill="none" stroke="midnightblue" d="M620.899,-446.37C635.237,-437.678 655.618,-422.866 666,-404 689.523,-361.253 689.528,-301.687 687.696,-271.75"/>
<polygon fill="midnightblue" stroke="midnightblue" points="691.165,-271.211 686.92,-261.504 684.185,-271.74 691.165,-271.211"/>
</g>
<!-- Node17 -->
<g id="node17" class="node"><title>Node17</title>
<g id="a_node17"><a xlink:href="a00310.html" target="_top" xlink:title="hpp/fcl/math/transform.h">
<polygon fill="white" stroke="black" points="461.5,-310.5 461.5,-329.5 584.5,-329.5 584.5,-310.5 461.5,-310.5"/>
<text text-anchor="middle" x="523" y="-317.5" font-family="Helvetica,sans-Serif" font-size="10.00">hpp/fcl/math/transform.h</text>
</a>
</g>
</g>
<!-- Node13&#45;&gt;Node17 -->
<g id="edge18" class="edge"><title>Node13&#45;&gt;Node17</title>
<path fill="none" stroke="midnightblue" d="M589.565,-446.339C575.301,-437.526 554.613,-422.546 543,-404 530.675,-384.317 525.945,-357.637 524.13,-339.898"/>
<polygon fill="midnightblue" stroke="midnightblue" points="527.6,-339.381 523.307,-329.695 520.622,-339.944 527.6,-339.381"/>
</g>
<!-- Node20 -->
<g id="node20" class="node"><title>Node20</title>
<g id="a_node20"><a xlink:href="a00290.html" target="_top" xlink:title="hpp/fcl/ccd/motion\l_base.h">
<polygon fill="white" stroke="black" points="384.5,-373 384.5,-403 481.5,-403 481.5,-373 384.5,-373"/>
<text text-anchor="start" x="392.5" y="-391" font-family="Helvetica,sans-Serif" font-size="10.00">hpp/fcl/ccd/motion</text>
<text text-anchor="middle" x="433" y="-380" font-family="Helvetica,sans-Serif" font-size="10.00">_base.h</text>
</a>
</g>
</g>
<!-- Node13&#45;&gt;Node20 -->
<g id="edge22" class="edge"><title>Node13&#45;&gt;Node20</title>
<path fill="none" stroke="midnightblue" d="M582.514,-446.372C556.407,-436.354 512.657,-419.566 479.209,-406.731"/>
<polygon fill="midnightblue" stroke="midnightblue" points="480.222,-403.371 469.631,-403.056 477.714,-409.906 480.222,-403.371"/>
</g>
<!-- Node26 -->
<g id="node26" class="node"><title>Node26</title>
<polygon fill="white" stroke="#bfbfbf" points="0,-112.5 0,-131.5 108,-131.5 108,-112.5 0,-112.5"/>
<text text-anchor="middle" x="54" y="-119.5" font-family="Helvetica,sans-Serif" font-size="10.00">boost/shared_ptr.hpp</text>
</g>
<!-- Node13&#45;&gt;Node26 -->
<g id="edge44" class="edge"><title>Node13&#45;&gt;Node26</title>
<path fill="none" stroke="midnightblue" d="M542.74,-454.252C388.674,-450.725 2,-430.922 2,-321 2,-321 2,-321 2,-251 2,-213.157 5.26239,-202.415 21,-168 25.6748,-157.777 32.8912,-147.577 39.3849,-139.478"/>
<polygon fill="midnightblue" stroke="midnightblue" points="42.2392,-141.522 45.9932,-131.615 36.8802,-137.019 42.2392,-141.522"/>
</g>
<!-- Node15&#45;&gt;Node2 -->
<g id="edge17" class="edge"><title>Node15&#45;&gt;Node2</title>
<path fill="none" stroke="midnightblue" d="M686.313,-242.339C686.498,-226.475 685.077,-192.168 671,-168 663.73,-155.519 651.64,-144.96 640.74,-137.213"/>
<polygon fill="midnightblue" stroke="midnightblue" points="642.628,-134.265 632.369,-131.621 638.74,-140.086 642.628,-134.265"/>
</g>
<!-- Node16 -->
<g id="node16" class="node"><title>Node16</title>
<polygon fill="white" stroke="#bfbfbf" points="603.5,-174.5 603.5,-193.5 662.5,-193.5 662.5,-174.5 603.5,-174.5"/>
<text text-anchor="middle" x="633" y="-181.5" font-family="Helvetica,sans-Serif" font-size="10.00">stdexcept</text>
</g>
<!-- Node15&#45;&gt;Node16 -->
<g id="edge16" class="edge"><title>Node15&#45;&gt;Node16</title>
<path fill="none" stroke="midnightblue" d="M679.071,-242.372C670.864,-232.151 656.998,-214.884 646.617,-201.957"/>
<polygon fill="midnightblue" stroke="midnightblue" points="649.09,-199.447 640.1,-193.841 643.632,-203.83 649.09,-199.447"/>
</g>
<!-- Node18 -->
<g id="node18" class="node"><title>Node18</title>
<g id="a_node18"><a xlink:href="a00285.html" target="_top" xlink:title="hpp/fcl/math/matrix_3f.h">
<polygon fill="white" stroke="black" points="296,-174.5 296,-193.5 418,-193.5 418,-174.5 296,-174.5"/>
<text text-anchor="middle" x="357" y="-181.5" font-family="Helvetica,sans-Serif" font-size="10.00">hpp/fcl/math/matrix_3f.h</text>
</a>
</g>
</g>
<!-- Node17&#45;&gt;Node18 -->
<g id="edge19" class="edge"><title>Node17&#45;&gt;Node18</title>
<path fill="none" stroke="midnightblue" d="M461.311,-311.63C431.573,-304.955 397.73,-292.236 376,-268 360.228,-250.409 356.744,-222.431 356.352,-203.892"/>
<polygon fill="midnightblue" stroke="midnightblue" points="359.853,-203.772 356.425,-193.747 352.853,-203.721 359.853,-203.772"/>
</g>
<!-- Node19 -->
<g id="node19" class="node"><title>Node19</title>
<polygon fill="white" stroke="#bfbfbf" points="498.5,-242.5 498.5,-261.5 617.5,-261.5 617.5,-242.5 498.5,-242.5"/>
<text text-anchor="middle" x="558" y="-249.5" font-family="Helvetica,sans-Serif" font-size="10.00">boost/thread/mutex.hpp</text>
</g>
<!-- Node17&#45;&gt;Node19 -->
<g id="edge21" class="edge"><title>Node17&#45;&gt;Node19</title>
<path fill="none" stroke="midnightblue" d="M527.576,-310.372C532.891,-300.348 541.802,-283.546 548.61,-270.708"/>
<polygon fill="midnightblue" stroke="midnightblue" points="551.719,-272.316 553.312,-261.841 545.534,-269.036 551.719,-272.316"/>
</g>
<!-- Node18&#45;&gt;Node2 -->
<g id="edge20" class="edge"><title>Node18&#45;&gt;Node2</title>
<path fill="none" stroke="midnightblue" d="M393.976,-174.467C440.276,-163.783 519.635,-145.469 570.144,-133.813"/>
<polygon fill="midnightblue" stroke="midnightblue" points="571.195,-137.162 580.152,-131.503 569.621,-130.342 571.195,-137.162"/>
</g>
<!-- Node20&#45;&gt;Node17 -->
<g id="edge23" class="edge"><title>Node20&#45;&gt;Node17</title>
<path fill="none" stroke="midnightblue" d="M452.529,-372.679C467.482,-361.713 488.03,-346.645 503.079,-335.609"/>
<polygon fill="midnightblue" stroke="midnightblue" points="505.227,-338.374 511.221,-329.638 501.087,-332.729 505.227,-338.374"/>
</g>
<!-- Node21 -->
<g id="node21" class="node"><title>Node21</title>
<g id="a_node21"><a xlink:href="a00307.html" target="_top" xlink:title="hpp/fcl/ccd/taylor\l_matrix.h">
<polygon fill="white" stroke="black" points="234,-305 234,-335 326,-335 326,-305 234,-305"/>
<text text-anchor="start" x="242" y="-323" font-family="Helvetica,sans-Serif" font-size="10.00">hpp/fcl/ccd/taylor</text>
<text text-anchor="middle" x="280" y="-312" font-family="Helvetica,sans-Serif" font-size="10.00">_matrix.h</text>
</a>
</g>
</g>
<!-- Node20&#45;&gt;Node21 -->
<g id="edge24" class="edge"><title>Node20&#45;&gt;Node21</title>
<path fill="none" stroke="midnightblue" d="M400.178,-372.841C377.31,-362.977 346.613,-349.735 321.967,-339.104"/>
<polygon fill="midnightblue" stroke="midnightblue" points="323.074,-335.769 312.505,-335.022 320.301,-342.197 323.074,-335.769"/>
</g>
<!-- Node22 -->
<g id="node22" class="node"><title>Node22</title>
<g id="a_node22"><a xlink:href="a00309.html" target="_top" xlink:title="hpp/fcl/ccd/taylor\l_vector.h">
<polygon fill="white" stroke="black" points="81,-237 81,-267 173,-267 173,-237 81,-237"/>
<text text-anchor="start" x="89" y="-255" font-family="Helvetica,sans-Serif" font-size="10.00">hpp/fcl/ccd/taylor</text>
<text text-anchor="middle" x="127" y="-244" font-family="Helvetica,sans-Serif" font-size="10.00">_vector.h</text>
</a>
</g>
</g>
<!-- Node20&#45;&gt;Node22 -->
<g id="edge38" class="edge"><title>Node20&#45;&gt;Node22</title>
<path fill="none" stroke="midnightblue" d="M384.119,-381.489C340.497,-375.099 275.843,-361.928 225,-336 194.275,-320.332 164.9,-293.294 146.461,-274.347"/>
<polygon fill="midnightblue" stroke="midnightblue" points="148.92,-271.854 139.488,-267.028 143.852,-276.682 148.92,-271.854"/>
</g>
<!-- Node28 -->
<g id="node28" class="node"><title>Node28</title>
<g id="a_node28"><a xlink:href="a00302.html" target="_top" xlink:title="hpp/fcl/BV/RSS.h">
<polygon fill="white" stroke="black" points="385.5,-242.5 385.5,-261.5 480.5,-261.5 480.5,-242.5 385.5,-242.5"/>
<text text-anchor="middle" x="433" y="-249.5" font-family="Helvetica,sans-Serif" font-size="10.00">hpp/fcl/BV/RSS.h</text>
</a>
</g>
</g>
<!-- Node20&#45;&gt;Node28 -->
<g id="edge39" class="edge"><title>Node20&#45;&gt;Node28</title>
<path fill="none" stroke="midnightblue" d="M433,-372.66C433,-348.32 433,-298.933 433,-271.837"/>
<polygon fill="midnightblue" stroke="midnightblue" points="436.5,-271.727 433,-261.728 429.5,-271.728 436.5,-271.727"/>
</g>
<!-- Node21&#45;&gt;Node18 -->
<g id="edge25" class="edge"><title>Node21&#45;&gt;Node18</title>
<path fill="none" stroke="midnightblue" d="M288.24,-304.66C302.476,-279.885 331.624,-229.161 346.997,-202.407"/>
<polygon fill="midnightblue" stroke="midnightblue" points="350.037,-204.142 351.985,-193.728 343.968,-200.654 350.037,-204.142"/>
</g>
<!-- Node21&#45;&gt;Node22 -->
<g id="edge26" class="edge"><title>Node21&#45;&gt;Node22</title>
<path fill="none" stroke="midnightblue" d="M247.178,-304.841C224.31,-294.977 193.613,-281.735 168.967,-271.104"/>
<polygon fill="midnightblue" stroke="midnightblue" points="170.074,-267.769 159.505,-267.022 167.301,-274.197 170.074,-267.769"/>
</g>
<!-- Node27 -->
<g id="node27" class="node"><title>Node27</title>
<g id="a_node27"><a xlink:href="a00274.html" target="_top" xlink:title="hpp/fcl/ccd/interval\l_matrix.h">
<polygon fill="white" stroke="black" points="191.5,-237 191.5,-267 290.5,-267 290.5,-237 191.5,-237"/>
<text text-anchor="start" x="199.5" y="-255" font-family="Helvetica,sans-Serif" font-size="10.00">hpp/fcl/ccd/interval</text>
<text text-anchor="middle" x="241" y="-244" font-family="Helvetica,sans-Serif" font-size="10.00">_matrix.h</text>
</a>
</g>
</g>
<!-- Node21&#45;&gt;Node27 -->
<g id="edge34" class="edge"><title>Node21&#45;&gt;Node27</title>
<path fill="none" stroke="midnightblue" d="M271.538,-304.679C266.58,-296.29 260.204,-285.499 254.561,-275.949"/>
<polygon fill="midnightblue" stroke="midnightblue" points="257.546,-274.122 249.446,-267.293 251.52,-277.683 257.546,-274.122"/>
</g>
<!-- Node23 -->
<g id="node23" class="node"><title>Node23</title>
<g id="a_node23"><a xlink:href="a00276.html" target="_top" xlink:title="hpp/fcl/ccd/interval\l_vector.h">
<polygon fill="white" stroke="black" points="140.5,-169 140.5,-199 239.5,-199 239.5,-169 140.5,-169"/>
<text text-anchor="start" x="148.5" y="-187" font-family="Helvetica,sans-Serif" font-size="10.00">hpp/fcl/ccd/interval</text>
<text text-anchor="middle" x="190" y="-176" font-family="Helvetica,sans-Serif" font-size="10.00">_vector.h</text>
</a>
</g>
</g>
<!-- Node22&#45;&gt;Node23 -->
<g id="edge27" class="edge"><title>Node22&#45;&gt;Node23</title>
<path fill="none" stroke="midnightblue" d="M140.67,-236.679C149.008,-227.944 159.832,-216.605 169.215,-206.775"/>
<polygon fill="midnightblue" stroke="midnightblue" points="171.984,-208.943 176.357,-199.293 166.92,-204.11 171.984,-208.943"/>
</g>
<!-- Node25 -->
<g id="node25" class="node"><title>Node25</title>
<g id="a_node25"><a xlink:href="a00308.html" target="_top" xlink:title="hpp/fcl/ccd/taylor\l_model.h">
<polygon fill="white" stroke="black" points="30,-169 30,-199 122,-199 122,-169 30,-169"/>
<text text-anchor="start" x="38" y="-187" font-family="Helvetica,sans-Serif" font-size="10.00">hpp/fcl/ccd/taylor</text>
<text text-anchor="middle" x="76" y="-176" font-family="Helvetica,sans-Serif" font-size="10.00">_model.h</text>
</a>
</g>
</g>
<!-- Node22&#45;&gt;Node25 -->
<g id="edge31" class="edge"><title>Node22&#45;&gt;Node25</title>
<path fill="none" stroke="midnightblue" d="M115.934,-236.679C109.317,-228.117 100.768,-217.053 93.2785,-207.36"/>
<polygon fill="midnightblue" stroke="midnightblue" points="95.9287,-205.066 87.0446,-199.293 90.3897,-209.346 95.9287,-205.066"/>
</g>
<!-- Node23&#45;&gt;Node2 -->
<g id="edge30" class="edge"><title>Node23&#45;&gt;Node2</title>
<path fill="none" stroke="midnightblue" d="M239.819,-175.121C254.962,-172.773 271.655,-170.233 287,-168 378.707,-154.658 484.931,-140.384 551.549,-131.574"/>
<polygon fill="midnightblue" stroke="midnightblue" points="552.033,-135.041 561.488,-130.261 551.116,-128.101 552.033,-135.041"/>
</g>
<!-- Node24 -->
<g id="node24" class="node"><title>Node24</title>
<g id="a_node24"><a xlink:href="a00273.html" target="_top" xlink:title="hpp/fcl/ccd/interval.h">
<polygon fill="white" stroke="black" points="157.5,-112.5 157.5,-131.5 264.5,-131.5 264.5,-112.5 157.5,-112.5"/>
<text text-anchor="middle" x="211" y="-119.5" font-family="Helvetica,sans-Serif" font-size="10.00">hpp/fcl/ccd/interval.h</text>
</a>
</g>
</g>
<!-- Node23&#45;&gt;Node24 -->
<g id="edge28" class="edge"><title>Node23&#45;&gt;Node24</title>
<path fill="none" stroke="midnightblue" d="M194.977,-168.781C197.84,-160.601 201.468,-150.234 204.548,-141.434"/>
<polygon fill="midnightblue" stroke="midnightblue" points="207.944,-142.325 207.944,-131.731 201.337,-140.013 207.944,-142.325"/>
</g>
<!-- Node24&#45;&gt;Node4 -->
<g id="edge29" class="edge"><title>Node24&#45;&gt;Node4</title>
<path fill="none" stroke="midnightblue" d="M239.046,-112.444C269.082,-103.28 316.913,-88.6876 350.243,-78.5192"/>
<polygon fill="midnightblue" stroke="midnightblue" points="351.542,-81.7822 360.085,-75.5164 349.499,-75.0869 351.542,-81.7822"/>
</g>
<!-- Node25&#45;&gt;Node24 -->
<g id="edge32" class="edge"><title>Node25&#45;&gt;Node24</title>
<path fill="none" stroke="midnightblue" d="M107.652,-168.933C130.224,-158.9 160.332,-145.519 182.225,-135.789"/>
<polygon fill="midnightblue" stroke="midnightblue" points="183.933,-138.86 191.65,-131.6 181.09,-132.463 183.933,-138.86"/>
</g>
<!-- Node25&#45;&gt;Node26 -->
<g id="edge33" class="edge"><title>Node25&#45;&gt;Node26</title>
<path fill="none" stroke="midnightblue" d="M70.7863,-168.781C67.7542,-160.512 63.9022,-150.006 60.6531,-141.145"/>
<polygon fill="midnightblue" stroke="midnightblue" points="63.9299,-139.914 57.2012,-131.731 57.3577,-142.324 63.9299,-139.914"/>
</g>
<!-- Node27&#45;&gt;Node18 -->
<g id="edge37" class="edge"><title>Node27&#45;&gt;Node18</title>
<path fill="none" stroke="midnightblue" d="M265.885,-236.841C285.68,-225.579 313.213,-209.913 332.821,-198.757"/>
<polygon fill="midnightblue" stroke="midnightblue" points="334.78,-201.669 341.741,-193.682 331.318,-195.585 334.78,-201.669"/>
</g>
<!-- Node27&#45;&gt;Node23 -->
<g id="edge36" class="edge"><title>Node27&#45;&gt;Node23</title>
<path fill="none" stroke="midnightblue" d="M229.934,-236.679C223.317,-228.117 214.768,-217.053 207.278,-207.36"/>
<polygon fill="midnightblue" stroke="midnightblue" points="209.929,-205.066 201.045,-199.293 204.39,-209.346 209.929,-205.066"/>
</g>
<!-- Node27&#45;&gt;Node24 -->
<g id="edge35" class="edge"><title>Node27&#45;&gt;Node24</title>
<path fill="none" stroke="midnightblue" d="M245.732,-236.729C250.553,-219.809 256.244,-191.006 248,-168 244.059,-157.003 236.143,-146.769 228.64,-138.848"/>
<polygon fill="midnightblue" stroke="midnightblue" points="231.019,-136.278 221.438,-131.755 226.108,-141.266 231.019,-136.278"/>
</g>
<!-- Node28&#45;&gt;Node2 -->
<g id="edge41" class="edge"><title>Node28&#45;&gt;Node2</title>
<path fill="none" stroke="midnightblue" d="M433.964,-242.326C436.298,-225.501 443.805,-188.307 466,-168 489.199,-146.775 522.008,-135.538 551.12,-129.599"/>
<polygon fill="midnightblue" stroke="midnightblue" points="552.052,-132.985 561.241,-127.711 550.769,-126.104 552.052,-132.985"/>
</g>
<!-- Node28&#45;&gt;Node16 -->
<g id="edge40" class="edge"><title>Node28&#45;&gt;Node16</title>
<path fill="none" stroke="midnightblue" d="M461.674,-242.489C494.007,-232.759 548.066,-216.092 594,-200 596.544,-199.109 599.171,-198.16 601.803,-197.19"/>
<polygon fill="midnightblue" stroke="midnightblue" points="603.097,-200.443 611.221,-193.643 600.63,-193.892 603.097,-200.443"/>
</g>
<!-- Node28&#45;&gt;Node18 -->
<g id="edge42" class="edge"><title>Node28&#45;&gt;Node18</title>
<path fill="none" stroke="midnightblue" d="M423.064,-242.372C410.843,-231.758 389.87,-213.545 374.832,-200.485"/>
<polygon fill="midnightblue" stroke="midnightblue" points="377.026,-197.755 367.181,-193.841 372.436,-203.041 377.026,-197.755"/>
</g>
<!-- Node29 -->
<g id="node29" class="node"><title>Node29</title>
<polygon fill="white" stroke="#bfbfbf" points="474.5,-169 474.5,-199 585.5,-199 585.5,-169 474.5,-169"/>
<text text-anchor="start" x="482.5" y="-187" font-family="Helvetica,sans-Serif" font-size="10.00">boost/math/constants</text>
<text text-anchor="middle" x="530" y="-176" font-family="Helvetica,sans-Serif" font-size="10.00">/constants.hpp</text>
</g>
<!-- Node28&#45;&gt;Node29 -->
<g id="edge43" class="edge"><title>Node28&#45;&gt;Node29</title>
<path fill="none" stroke="midnightblue" d="M445.681,-242.372C459.538,-232.943 482.21,-217.517 500.556,-205.034"/>
<polygon fill="midnightblue" stroke="midnightblue" points="502.859,-207.701 509.158,-199.181 498.921,-201.913 502.859,-207.701"/>
</g>
<!-- Node30&#45;&gt;Node2 -->
<g id="edge60" class="edge"><title>Node30&#45;&gt;Node2</title>
<path fill="none" stroke="midnightblue" d="M856.952,-508.208C845.948,-500.097 830.647,-487.056 822,-472 803.152,-439.184 803,-426.843 803,-389 803,-389 803,-389 803,-251 803,-212.6 806.296,-195.01 779,-168 753.615,-142.881 715.494,-131.493 682.607,-126.449"/>
<polygon fill="midnightblue" stroke="midnightblue" points="682.971,-122.967 672.589,-125.08 682.022,-129.902 682.971,-122.967"/>
</g>
<!-- Node30&#45;&gt;Node12 -->
<g id="edge63" class="edge"><title>Node30&#45;&gt;Node12</title>
<path fill="none" stroke="midnightblue" d="M869.946,-508.453C869.845,-494.243 869.579,-464.86 869,-440 867.767,-387.096 865,-373.919 865,-321 865,-321 865,-321 865,-183 865,-148.716 865,-108.732 865,-85.7902"/>
<polygon fill="midnightblue" stroke="midnightblue" points="868.5,-85.731 865,-75.731 861.5,-85.7311 868.5,-85.731"/>
</g>
<!-- Node30&#45;&gt;Node13 -->
<g id="edge46" class="edge"><title>Node30&#45;&gt;Node13</title>
<path fill="none" stroke="midnightblue" d="M832.313,-508.467C785.024,-497.76 703.899,-479.392 652.435,-467.74"/>
<polygon fill="midnightblue" stroke="midnightblue" points="653.083,-464.298 642.557,-465.503 651.537,-471.125 653.083,-464.298"/>
</g>
<!-- Node31 -->
<g id="node31" class="node"><title>Node31</title>
<g id="a_node31"><a xlink:href="a00244.html" target="_top" xlink:title="hpp/fcl/learning/classifier.h">
<polygon fill="white" stroke="black" points="1145.5,-310.5 1145.5,-329.5 1278.5,-329.5 1278.5,-310.5 1145.5,-310.5"/>
<text text-anchor="middle" x="1212" y="-317.5" font-family="Helvetica,sans-Serif" font-size="10.00">hpp/fcl/learning/classifier.h</text>
</a>
</g>
</g>
<!-- Node30&#45;&gt;Node31 -->
<g id="edge47" class="edge"><title>Node30&#45;&gt;Node31</title>
<path fill="none" stroke="midnightblue" d="M928.032,-510.335C965.855,-504.237 1015.36,-492.851 1055,-472 1119.58,-438.029 1176,-369.484 1199.87,-337.783"/>
<polygon fill="midnightblue" stroke="midnightblue" points="1202.84,-339.662 1205.97,-329.541 1197.21,-335.5 1202.84,-339.662"/>
</g>
<!-- Node33 -->
<g id="node33" class="node"><title>Node33</title>
<polygon fill="white" stroke="#bfbfbf" points="1110,-56.5 1110,-75.5 1154,-75.5 1154,-56.5 1110,-56.5"/>
<text text-anchor="middle" x="1132" y="-63.5" font-family="Helvetica,sans-Serif" font-size="10.00">vector</text>
</g>
<!-- Node30&#45;&gt;Node33 -->
<g id="edge61" class="edge"><title>Node30&#45;&gt;Node33</title>
<path fill="none" stroke="midnightblue" d="M928.03,-512.232C1046.9,-500.863 1307,-467.067 1307,-389 1307,-389 1307,-389 1307,-183 1307,-115.139 1214.45,-84.6304 1163.96,-73.0363"/>
<polygon fill="midnightblue" stroke="midnightblue" points="1164.68,-69.6119 1154.16,-70.9033 1163.19,-76.4515 1164.68,-69.6119"/>
</g>
<!-- Node36 -->
<g id="node36" class="node"><title>Node36</title>
<g id="a_node36"><a xlink:href="a00292.html" target="_top" xlink:title="hpp/fcl/knn/nearest\l_neighbors.h">
<polygon fill="white" stroke="black" points="946,-441 946,-471 1046,-471 1046,-441 946,-441"/>
<text text-anchor="start" x="954" y="-459" font-family="Helvetica,sans-Serif" font-size="10.00">hpp/fcl/knn/nearest</text>
<text text-anchor="middle" x="996" y="-448" font-family="Helvetica,sans-Serif" font-size="10.00">_neighbors.h</text>
</a>
</g>
</g>
<!-- Node30&#45;&gt;Node36 -->
<g id="edge56" class="edge"><title>Node30&#45;&gt;Node36</title>
<path fill="none" stroke="midnightblue" d="M888.053,-508.403C905.995,-499.86 934.086,-486.483 957.114,-475.517"/>
<polygon fill="midnightblue" stroke="midnightblue" points="958.78,-478.6 966.304,-471.141 955.771,-472.28 958.78,-478.6"/>
</g>
<!-- Node39 -->
<g id="node39" class="node"><title>Node39</title>
<polygon fill="white" stroke="#bfbfbf" points="831,-446.5 831,-465.5 861,-465.5 861,-446.5 831,-446.5"/>
<text text-anchor="middle" x="846" y="-453.5" font-family="Helvetica,sans-Serif" font-size="10.00">set</text>
</g>
<!-- Node30&#45;&gt;Node39 -->
<g id="edge62" class="edge"><title>Node30&#45;&gt;Node39</title>
<path fill="none" stroke="midnightblue" d="M866.561,-508.403C863.104,-499.76 857.668,-486.17 853.254,-475.134"/>
<polygon fill="midnightblue" stroke="midnightblue" points="856.396,-473.565 849.432,-465.581 849.897,-476.165 856.396,-473.565"/>
</g>
<!-- Node32 -->
<g id="node32" class="node"><title>Node32</title>
<g id="a_node32"><a xlink:href="a00319.html" target="_top" xlink:title="hpp/fcl/math/vec_nf.h">
<polygon fill="white" stroke="black" points="910.5,-112.5 910.5,-131.5 1021.5,-131.5 1021.5,-112.5 910.5,-112.5"/>
<text text-anchor="middle" x="966" y="-119.5" font-family="Helvetica,sans-Serif" font-size="10.00">hpp/fcl/math/vec_nf.h</text>
</a>
</g>
</g>
<!-- Node31&#45;&gt;Node32 -->
<g id="edge48" class="edge"><title>Node31&#45;&gt;Node32</title>
<path fill="none" stroke="midnightblue" d="M1201.11,-310.325C1162.69,-279.714 1033.16,-176.51 984.597,-137.817"/>
<polygon fill="midnightblue" stroke="midnightblue" points="986.764,-135.069 976.762,-131.575 982.402,-140.543 986.764,-135.069"/>
</g>
<!-- Node32&#45;&gt;Node4 -->
<g id="edge55" class="edge"><title>Node32&#45;&gt;Node4</title>
<path fill="none" stroke="midnightblue" d="M910.317,-115.798C802.215,-105.698 564.591,-83.4981 450.951,-72.8813"/>
<polygon fill="midnightblue" stroke="midnightblue" points="450.961,-69.367 440.678,-71.9215 450.309,-76.3366 450.961,-69.367"/>
</g>
<!-- Node32&#45;&gt;Node8 -->
<g id="edge49" class="edge"><title>Node32&#45;&gt;Node8</title>
<path fill="none" stroke="midnightblue" d="M959.15,-112.071C947.506,-97.6112 922.338,-69.3451 894,-56 797.347,-10.4836 758.815,-41.4579 650.28,-19.9509"/>
<polygon fill="midnightblue" stroke="midnightblue" points="650.762,-16.4762 640.258,-17.8566 649.33,-23.3282 650.762,-16.4762"/>
</g>
<!-- Node32&#45;&gt;Node11 -->
<g id="edge50" class="edge"><title>Node32&#45;&gt;Node11</title>
<path fill="none" stroke="midnightblue" d="M939.697,-112.444C911.649,-103.32 867.056,-88.8133 835.816,-78.6509"/>
<polygon fill="midnightblue" stroke="midnightblue" points="836.772,-75.2816 826.18,-75.5164 834.607,-81.9383 836.772,-75.2816"/>
</g>
<!-- Node32&#45;&gt;Node12 -->
<g id="edge51" class="edge"><title>Node32&#45;&gt;Node12</title>
<path fill="none" stroke="midnightblue" d="M949.773,-112.324C933.649,-103.703 908.7,-90.3643 890.036,-80.3855"/>
<polygon fill="midnightblue" stroke="midnightblue" points="891.656,-77.283 881.187,-75.6545 888.356,-83.456 891.656,-77.283"/>
</g>
<!-- Node32&#45;&gt;Node33 -->
<g id="edge52" class="edge"><title>Node32&#45;&gt;Node33</title>
<path fill="none" stroke="midnightblue" d="M992.303,-112.444C1021.59,-102.917 1068.91,-87.5228 1100.24,-77.3321"/>
<polygon fill="midnightblue" stroke="midnightblue" points="1101.38,-80.6422 1109.8,-74.2203 1099.21,-73.9855 1101.38,-80.6422"/>
</g>
<!-- Node34 -->
<g id="node34" class="node"><title>Node34</title>
<polygon fill="white" stroke="#bfbfbf" points="941,-56.5 941,-75.5 1025,-75.5 1025,-56.5 941,-56.5"/>
<text text-anchor="middle" x="983" y="-63.5" font-family="Helvetica,sans-Serif" font-size="10.00">boost/array.hpp</text>
</g>
<!-- Node32&#45;&gt;Node34 -->
<g id="edge53" class="edge"><title>Node32&#45;&gt;Node34</title>
<path fill="none" stroke="midnightblue" d="M968.807,-112.083C971.085,-104.849 974.371,-94.4087 977.208,-85.3968"/>
<polygon fill="midnightblue" stroke="midnightblue" points="980.581,-86.3406 980.245,-75.7511 973.904,-84.2385 980.581,-86.3406"/>
</g>
<!-- Node35 -->
<g id="node35" class="node"><title>Node35</title>
<polygon fill="white" stroke="#bfbfbf" points="1042.5,-56.5 1042.5,-75.5 1091.5,-75.5 1091.5,-56.5 1042.5,-56.5"/>
<text text-anchor="middle" x="1067" y="-63.5" font-family="Helvetica,sans-Serif" font-size="10.00">cstdarg</text>
</g>
<!-- Node32&#45;&gt;Node35 -->
<g id="edge54" class="edge"><title>Node32&#45;&gt;Node35</title>
<path fill="none" stroke="midnightblue" d="M982.227,-112.324C998.351,-103.703 1023.3,-90.3643 1041.96,-80.3855"/>
<polygon fill="midnightblue" stroke="midnightblue" points="1043.64,-83.456 1050.81,-75.6545 1040.34,-77.283 1043.64,-83.456"/>
</g>
<!-- Node36&#45;&gt;Node33 -->
<g id="edge57" class="edge"><title>Node36&#45;&gt;Node33</title>
<path fill="none" stroke="midnightblue" d="M1044.29,-440.972C1063.63,-433.055 1084.48,-421.201 1098,-404 1121.38,-374.246 1117,-358.843 1117,-321 1117,-321 1117,-321 1117,-183 1117,-148.43 1123.63,-108.541 1128.08,-85.694"/>
<polygon fill="midnightblue" stroke="midnightblue" points="1131.55,-86.1765 1130.1,-75.6814 1124.69,-84.7903 1131.55,-86.1765"/>
</g>
<!-- Node37 -->
<g id="node37" class="node"><title>Node37</title>
<polygon fill="white" stroke="#bfbfbf" points="1009,-378.5 1009,-397.5 1089,-397.5 1089,-378.5 1009,-378.5"/>
<text text-anchor="middle" x="1049" y="-385.5" font-family="Helvetica,sans-Serif" font-size="10.00">boost/bind.hpp</text>
</g>
<!-- Node36&#45;&gt;Node37 -->
<g id="edge58" class="edge"><title>Node36&#45;&gt;Node37</title>
<path fill="none" stroke="midnightblue" d="M1007.5,-440.679C1015.76,-430.388 1026.93,-416.484 1035.6,-405.69"/>
<polygon fill="midnightblue" stroke="midnightblue" points="1038.38,-407.817 1041.91,-397.828 1032.92,-403.434 1038.38,-407.817"/>
</g>
<!-- Node38 -->
<g id="node38" class="node"><title>Node38</title>
<polygon fill="white" stroke="#bfbfbf" points="893.5,-378.5 893.5,-397.5 990.5,-397.5 990.5,-378.5 893.5,-378.5"/>
<text text-anchor="middle" x="942" y="-385.5" font-family="Helvetica,sans-Serif" font-size="10.00">boost/function.hpp</text>
</g>
<!-- Node36&#45;&gt;Node38 -->
<g id="edge59" class="edge"><title>Node36&#45;&gt;Node38</title>
<path fill="none" stroke="midnightblue" d="M984.283,-440.679C975.863,-430.388 964.487,-416.484 955.655,-405.69"/>
<polygon fill="midnightblue" stroke="midnightblue" points="958.264,-403.352 949.223,-397.828 952.847,-407.784 958.264,-403.352"/>
</g>
</g>
</svg>
