<?xml version="1.0" encoding="UTF-8" standalone="no"?>
<!DOCTYPE svg PUBLIC "-//W3C//DTD SVG 1.1//EN"
 "http://www.w3.org/Graphics/SVG/1.1/DTD/svg11.dtd">
<!-- Generated by graphviz version 2.36.0 (20140111.2315)
 -->
<!-- Title: BV.h Pages: 1 -->
<svg width="742pt" height="376pt"
 viewBox="0.00 0.00 742.00 376.00" xmlns="http://www.w3.org/2000/svg" xmlns:xlink="http://www.w3.org/1999/xlink">
<g id="graph0" class="graph" transform="scale(1 1) rotate(0) translate(4 372)">
<title>BV.h</title>
<polygon fill="white" stroke="none" points="-4,4 -4,-372 738,-372 738,4 -4,4"/>
<!-- Node1 -->
<g id="node1" class="node"><title>Node1</title>
<polygon fill="#bfbfbf" stroke="black" points="364,-348.5 364,-367.5 402,-367.5 402,-348.5 364,-348.5"/>
<text text-anchor="middle" x="383" y="-355.5" font-family="Helvetica,sans-Serif" font-size="10.00">BV.h</text>
</g>
<!-- Node2 -->
<g id="node2" class="node"><title>Node2</title>
<g id="a_node2"><a xlink:href="a00279.html" target="_top" xlink:title="hpp/fcl/BV/kDOP.h">
<polygon fill="white" stroke="black" points="93.5,-236.5 93.5,-255.5 194.5,-255.5 194.5,-236.5 93.5,-236.5"/>
<text text-anchor="middle" x="144" y="-243.5" font-family="Helvetica,sans-Serif" font-size="10.00">hpp/fcl/BV/kDOP.h</text>
</a>
</g>
</g>
<!-- Node1&#45;&gt;Node2 -->
<g id="edge1" class="edge"><title>Node1&#45;&gt;Node2</title>
<path fill="none" stroke="midnightblue" d="M364.246,-348.368C322.361,-329.091 221.031,-282.454 171.788,-259.789"/>
<polygon fill="midnightblue" stroke="midnightblue" points="173.214,-256.593 162.667,-255.591 170.288,-262.952 173.214,-256.593"/>
</g>
<!-- Node15 -->
<g id="node15" class="node"><title>Node15</title>
<g id="a_node15"><a xlink:href="a00226.html" target="_top" xlink:title="hpp/fcl/BV/AABB.h">
<polygon fill="white" stroke="black" points="212.5,-236.5 212.5,-255.5 313.5,-255.5 313.5,-236.5 212.5,-236.5"/>
<text text-anchor="middle" x="263" y="-243.5" font-family="Helvetica,sans-Serif" font-size="10.00">hpp/fcl/BV/AABB.h</text>
</a>
</g>
</g>
<!-- Node1&#45;&gt;Node15 -->
<g id="edge15" class="edge"><title>Node1&#45;&gt;Node15</title>
<path fill="none" stroke="midnightblue" d="M364.854,-348.38C349.207,-340.378 326.58,-327.402 310,-312 294.913,-297.985 281.573,-278.473 272.996,-264.491"/>
<polygon fill="midnightblue" stroke="midnightblue" points="275.97,-262.643 267.856,-255.83 269.95,-266.216 275.97,-262.643"/>
</g>
<!-- Node16 -->
<g id="node16" class="node"><title>Node16</title>
<g id="a_node16"><a xlink:href="a00297.html" target="_top" xlink:title="hpp/fcl/BV/OBB.h">
<polygon fill="white" stroke="black" points="444.5,-236.5 444.5,-255.5 539.5,-255.5 539.5,-236.5 444.5,-236.5"/>
<text text-anchor="middle" x="492" y="-243.5" font-family="Helvetica,sans-Serif" font-size="10.00">hpp/fcl/BV/OBB.h</text>
</a>
</g>
</g>
<!-- Node1&#45;&gt;Node16 -->
<g id="edge18" class="edge"><title>Node1&#45;&gt;Node16</title>
<path fill="none" stroke="midnightblue" d="M399.22,-348.345C413.437,-340.231 434.102,-327.108 449,-312 462.914,-297.89 474.981,-278.651 482.76,-264.77"/>
<polygon fill="midnightblue" stroke="midnightblue" points="485.955,-266.22 487.633,-255.758 479.798,-262.89 485.955,-266.22"/>
</g>
<!-- Node18 -->
<g id="node18" class="node"><title>Node18</title>
<g id="a_node18"><a xlink:href="a00302.html" target="_top" xlink:title="hpp/fcl/BV/RSS.h">
<polygon fill="white" stroke="black" points="331.5,-236.5 331.5,-255.5 426.5,-255.5 426.5,-236.5 331.5,-236.5"/>
<text text-anchor="middle" x="379" y="-243.5" font-family="Helvetica,sans-Serif" font-size="10.00">hpp/fcl/BV/RSS.h</text>
</a>
</g>
</g>
<!-- Node1&#45;&gt;Node18 -->
<g id="edge22" class="edge"><title>Node1&#45;&gt;Node18</title>
<path fill="none" stroke="midnightblue" d="M363.771,-350.06C347.759,-343.136 326.017,-330.795 316,-312 304.811,-291.006 328.882,-272.113 350.426,-260.177"/>
<polygon fill="midnightblue" stroke="midnightblue" points="352.145,-263.228 359.394,-255.501 348.909,-257.021 352.145,-263.228"/>
</g>
<!-- Node20 -->
<g id="node20" class="node"><title>Node20</title>
<g id="a_node20"><a xlink:href="a00299.html" target="_top" xlink:title="hpp/fcl/BV/OBBRSS.h">
<polygon fill="white" stroke="black" points="325,-292.5 325,-311.5 441,-311.5 441,-292.5 325,-292.5"/>
<text text-anchor="middle" x="383" y="-299.5" font-family="Helvetica,sans-Serif" font-size="10.00">hpp/fcl/BV/OBBRSS.h</text>
</a>
</g>
</g>
<!-- Node1&#45;&gt;Node20 -->
<g id="edge27" class="edge"><title>Node1&#45;&gt;Node20</title>
<path fill="none" stroke="midnightblue" d="M383,-348.083C383,-341.006 383,-330.861 383,-321.986"/>
<polygon fill="midnightblue" stroke="midnightblue" points="386.5,-321.751 383,-311.751 379.5,-321.751 386.5,-321.751"/>
</g>
<!-- Node21 -->
<g id="node21" class="node"><title>Node21</title>
<g id="a_node21"><a xlink:href="a00280.html" target="_top" xlink:title="hpp/fcl/BV/kIOS.h">
<polygon fill="white" stroke="black" points="497,-292.5 497,-311.5 593,-311.5 593,-292.5 497,-292.5"/>
<text text-anchor="middle" x="545" y="-299.5" font-family="Helvetica,sans-Serif" font-size="10.00">hpp/fcl/BV/kIOS.h</text>
</a>
</g>
</g>
<!-- Node1&#45;&gt;Node21 -->
<g id="edge30" class="edge"><title>Node1&#45;&gt;Node21</title>
<path fill="none" stroke="midnightblue" d="M402.22,-350.593C428.652,-341.783 476.695,-325.768 509.696,-314.768"/>
<polygon fill="midnightblue" stroke="midnightblue" points="511.034,-318.011 519.414,-311.529 508.821,-311.37 511.034,-318.011"/>
</g>
<!-- Node22 -->
<g id="node22" class="node"><title>Node22</title>
<g id="a_node22"><a xlink:href="a00310.html" target="_top" xlink:title="hpp/fcl/math/transform.h">
<polygon fill="white" stroke="black" points="611.5,-292.5 611.5,-311.5 734.5,-311.5 734.5,-292.5 611.5,-292.5"/>
<text text-anchor="middle" x="673" y="-299.5" font-family="Helvetica,sans-Serif" font-size="10.00">hpp/fcl/math/transform.h</text>
</a>
</g>
</g>
<!-- Node1&#45;&gt;Node22 -->
<g id="edge32" class="edge"><title>Node1&#45;&gt;Node22</title>
<path fill="none" stroke="midnightblue" d="M402.028,-353.457C445.028,-345.45 551.079,-325.703 617.033,-313.421"/>
<polygon fill="midnightblue" stroke="midnightblue" points="618.068,-316.789 627.259,-311.517 616.787,-309.907 618.068,-316.789"/>
</g>
<!-- Node3 -->
<g id="node3" class="node"><title>Node3</title>
<polygon fill="white" stroke="#bfbfbf" points="175.5,-174.5 175.5,-193.5 234.5,-193.5 234.5,-174.5 175.5,-174.5"/>
<text text-anchor="middle" x="205" y="-181.5" font-family="Helvetica,sans-Serif" font-size="10.00">stdexcept</text>
</g>
<!-- Node2&#45;&gt;Node3 -->
<g id="edge2" class="edge"><title>Node2&#45;&gt;Node3</title>
<path fill="none" stroke="midnightblue" d="M152.74,-236.403C162.162,-227.136 177.364,-212.183 188.949,-200.788"/>
<polygon fill="midnightblue" stroke="midnightblue" points="191.601,-203.088 196.276,-193.581 186.693,-198.098 191.601,-203.088"/>
</g>
<!-- Node4 -->
<g id="node4" class="node"><title>Node4</title>
<g id="a_node4"><a xlink:href="a00318.html" target="_top" xlink:title="hpp/fcl/math/vec_3f.h">
<polygon fill="white" stroke="black" points="245.5,-112.5 245.5,-131.5 356.5,-131.5 356.5,-112.5 245.5,-112.5"/>
<text text-anchor="middle" x="301" y="-119.5" font-family="Helvetica,sans-Serif" font-size="10.00">hpp/fcl/math/vec_3f.h</text>
</a>
</g>
</g>
<!-- Node2&#45;&gt;Node4 -->
<g id="edge3" class="edge"><title>Node2&#45;&gt;Node4</title>
<path fill="none" stroke="midnightblue" d="M143.983,-236.338C144.428,-220.603 147.635,-187.18 166,-168 184.17,-149.023 210.541,-138.047 235.164,-131.699"/>
<polygon fill="midnightblue" stroke="midnightblue" points="236.285,-135.031 245.216,-129.33 234.68,-128.217 236.285,-135.031"/>
</g>
<!-- Node5 -->
<g id="node5" class="node"><title>Node5</title>
<polygon fill="white" stroke="#bfbfbf" points="-1,-56.5 -1,-75.5 101,-75.5 101,-56.5 -1,-56.5"/>
<text text-anchor="middle" x="50" y="-63.5" font-family="Helvetica,sans-Serif" font-size="10.00">hpp/fcl/config&#45;fcl.hh</text>
</g>
<!-- Node4&#45;&gt;Node5 -->
<g id="edge4" class="edge"><title>Node4&#45;&gt;Node5</title>
<path fill="none" stroke="midnightblue" d="M261.228,-112.444C217.442,-103.023 146.986,-87.8656 99.6197,-77.6752"/>
<polygon fill="midnightblue" stroke="midnightblue" points="100.098,-74.1981 89.5856,-75.5164 98.6258,-81.0415 100.098,-74.1981"/>
</g>
<!-- Node6 -->
<g id="node6" class="node"><title>Node6</title>
<g id="a_node6"><a xlink:href="a00252.html" target="_top" xlink:title="hpp/fcl/data_types.h">
<polygon fill="white" stroke="black" points="119.5,-56.5 119.5,-75.5 224.5,-75.5 224.5,-56.5 119.5,-56.5"/>
<text text-anchor="middle" x="172" y="-63.5" font-family="Helvetica,sans-Serif" font-size="10.00">hpp/fcl/data_types.h</text>
</a>
</g>
</g>
<!-- Node4&#45;&gt;Node6 -->
<g id="edge5" class="edge"><title>Node4&#45;&gt;Node6</title>
<path fill="none" stroke="midnightblue" d="M280.56,-112.444C259.33,-103.557 225.901,-89.5632 201.745,-79.4514"/>
<polygon fill="midnightblue" stroke="midnightblue" points="202.921,-76.1493 192.345,-75.5164 200.218,-82.6064 202.921,-76.1493"/>
</g>
<!-- Node9 -->
<g id="node9" class="node"><title>Node9</title>
<g id="a_node9"><a xlink:href="a00283.html" target="_top" xlink:title="hpp/fcl/math/math_details.h">
<polygon fill="white" stroke="black" points="281.5,-56.5 281.5,-75.5 418.5,-75.5 418.5,-56.5 281.5,-56.5"/>
<text text-anchor="middle" x="350" y="-63.5" font-family="Helvetica,sans-Serif" font-size="10.00">hpp/fcl/math/math_details.h</text>
</a>
</g>
</g>
<!-- Node4&#45;&gt;Node9 -->
<g id="edge8" class="edge"><title>Node4&#45;&gt;Node9</title>
<path fill="none" stroke="midnightblue" d="M309.091,-112.083C316.155,-104.298 326.588,-92.8015 335.149,-83.3665"/>
<polygon fill="midnightblue" stroke="midnightblue" points="337.931,-85.5087 342.059,-75.7511 332.747,-80.8047 337.931,-85.5087"/>
</g>
<!-- Node10 -->
<g id="node10" class="node"><title>Node10</title>
<polygon fill="white" stroke="#bfbfbf" points="245,-0.5 245,-19.5 289,-19.5 289,-0.5 245,-0.5"/>
<text text-anchor="middle" x="267" y="-7.5" font-family="Helvetica,sans-Serif" font-size="10.00">cmath</text>
</g>
<!-- Node4&#45;&gt;Node10 -->
<g id="edge12" class="edge"><title>Node4&#45;&gt;Node10</title>
<path fill="none" stroke="midnightblue" d="M293.563,-112.384C286.633,-103.797 276.684,-89.918 272,-76 266.974,-61.0661 265.936,-43.1516 266.035,-29.915"/>
<polygon fill="midnightblue" stroke="midnightblue" points="269.54,-29.7802 266.342,-19.6796 262.543,-29.5699 269.54,-29.7802"/>
</g>
<!-- Node13 -->
<g id="node13" class="node"><title>Node13</title>
<polygon fill="white" stroke="#bfbfbf" points="437,-56.5 437,-75.5 491,-75.5 491,-56.5 437,-56.5"/>
<text text-anchor="middle" x="464" y="-63.5" font-family="Helvetica,sans-Serif" font-size="10.00">iostream</text>
</g>
<!-- Node4&#45;&gt;Node13 -->
<g id="edge13" class="edge"><title>Node4&#45;&gt;Node13</title>
<path fill="none" stroke="midnightblue" d="M326.828,-112.444C354.249,-103.359 397.777,-88.9388 428.432,-78.7831"/>
<polygon fill="midnightblue" stroke="midnightblue" points="429.901,-81.9837 438.293,-75.5164 427.7,-75.3389 429.901,-81.9837"/>
</g>
<!-- Node14 -->
<g id="node14" class="node"><title>Node14</title>
<polygon fill="white" stroke="#bfbfbf" points="509,-56.5 509,-75.5 549,-75.5 549,-56.5 509,-56.5"/>
<text text-anchor="middle" x="529" y="-63.5" font-family="Helvetica,sans-Serif" font-size="10.00">limits</text>
</g>
<!-- Node4&#45;&gt;Node14 -->
<g id="edge14" class="edge"><title>Node4&#45;&gt;Node14</title>
<path fill="none" stroke="midnightblue" d="M343.163,-112.47C381.473,-104.495 439.733,-91.8121 498.892,-76.1426"/>
<polygon fill="midnightblue" stroke="midnightblue" points="500.022,-79.4636 508.777,-73.4981 498.213,-72.7014 500.022,-79.4636"/>
</g>
<!-- Node7 -->
<g id="node7" class="node"><title>Node7</title>
<polygon fill="white" stroke="#bfbfbf" points="61.5,-0.5 61.5,-19.5 110.5,-19.5 110.5,-0.5 61.5,-0.5"/>
<text text-anchor="middle" x="86" y="-7.5" font-family="Helvetica,sans-Serif" font-size="10.00">cstddef</text>
</g>
<!-- Node6&#45;&gt;Node7 -->
<g id="edge6" class="edge"><title>Node6&#45;&gt;Node7</title>
<path fill="none" stroke="midnightblue" d="M158.183,-56.324C144.767,-47.9002 124.176,-34.9709 108.414,-25.0741"/>
<polygon fill="midnightblue" stroke="midnightblue" points="110.113,-22.0081 99.7831,-19.6545 106.391,-27.9364 110.113,-22.0081"/>
</g>
<!-- Node8 -->
<g id="node8" class="node"><title>Node8</title>
<polygon fill="white" stroke="#bfbfbf" points="129,-0.5 129,-19.5 221,-19.5 221,-0.5 129,-0.5"/>
<text text-anchor="middle" x="175" y="-7.5" font-family="Helvetica,sans-Serif" font-size="10.00">boost/cstdint.hpp</text>
</g>
<!-- Node6&#45;&gt;Node8 -->
<g id="edge7" class="edge"><title>Node6&#45;&gt;Node8</title>
<path fill="none" stroke="midnightblue" d="M172.495,-56.083C172.889,-49.0059 173.452,-38.8611 173.945,-29.9865"/>
<polygon fill="midnightblue" stroke="midnightblue" points="177.454,-29.9299 174.514,-19.7511 170.464,-29.5415 177.454,-29.9299"/>
</g>
<!-- Node9&#45;&gt;Node10 -->
<g id="edge9" class="edge"><title>Node9&#45;&gt;Node10</title>
<path fill="none" stroke="midnightblue" d="M336.665,-56.324C323.838,-47.979 304.215,-35.2122 289.06,-25.3524"/>
<polygon fill="midnightblue" stroke="midnightblue" points="290.593,-22.1742 280.302,-19.6545 286.776,-28.0417 290.593,-22.1742"/>
</g>
<!-- Node11 -->
<g id="node11" class="node"><title>Node11</title>
<polygon fill="white" stroke="#bfbfbf" points="310,-0.5 310,-19.5 366,-19.5 366,-0.5 310,-0.5"/>
<text text-anchor="middle" x="338" y="-7.5" font-family="Helvetica,sans-Serif" font-size="10.00">algorithm</text>
</g>
<!-- Node9&#45;&gt;Node11 -->
<g id="edge10" class="edge"><title>Node9&#45;&gt;Node11</title>
<path fill="none" stroke="midnightblue" d="M348.018,-56.083C346.428,-48.9272 344.141,-38.6353 342.154,-29.6911"/>
<polygon fill="midnightblue" stroke="midnightblue" points="345.531,-28.7537 339.945,-19.7511 338.697,-30.2722 345.531,-28.7537"/>
</g>
<!-- Node12 -->
<g id="node12" class="node"><title>Node12</title>
<polygon fill="white" stroke="#bfbfbf" points="384,-0.5 384,-19.5 430,-19.5 430,-0.5 384,-0.5"/>
<text text-anchor="middle" x="407" y="-7.5" font-family="Helvetica,sans-Serif" font-size="10.00">cstring</text>
</g>
<!-- Node9&#45;&gt;Node12 -->
<g id="edge11" class="edge"><title>Node9&#45;&gt;Node12</title>
<path fill="none" stroke="midnightblue" d="M359.158,-56.324C367.501,-48.4196 380.032,-36.5482 390.177,-26.9377"/>
<polygon fill="midnightblue" stroke="midnightblue" points="392.823,-29.2522 397.675,-19.8339 388.009,-24.1705 392.823,-29.2522"/>
</g>
<!-- Node15&#45;&gt;Node3 -->
<g id="edge16" class="edge"><title>Node15&#45;&gt;Node3</title>
<path fill="none" stroke="midnightblue" d="M254.69,-236.403C245.732,-227.136 231.277,-212.183 220.261,-200.788"/>
<polygon fill="midnightblue" stroke="midnightblue" points="222.761,-198.338 213.295,-193.581 217.728,-203.203 222.761,-198.338"/>
</g>
<!-- Node15&#45;&gt;Node4 -->
<g id="edge17" class="edge"><title>Node15&#45;&gt;Node4</title>
<path fill="none" stroke="midnightblue" d="M265.733,-236.226C271.895,-216.442 286.981,-168.007 295.286,-141.344"/>
<polygon fill="midnightblue" stroke="midnightblue" points="298.66,-142.283 298.292,-131.694 291.976,-140.201 298.66,-142.283"/>
</g>
<!-- Node16&#45;&gt;Node4 -->
<g id="edge19" class="edge"><title>Node16&#45;&gt;Node4</title>
<path fill="none" stroke="midnightblue" d="M489.573,-236.428C484.632,-220.536 471.89,-186.447 449,-168 425.628,-149.164 394.451,-138.198 366.741,-131.82"/>
<polygon fill="midnightblue" stroke="midnightblue" points="367.221,-128.343 356.709,-129.672 365.755,-135.188 367.221,-128.343"/>
</g>
<!-- Node17 -->
<g id="node17" class="node"><title>Node17</title>
<g id="a_node17"><a xlink:href="a00285.html" target="_top" xlink:title="hpp/fcl/math/matrix_3f.h">
<polygon fill="white" stroke="black" points="497,-174.5 497,-193.5 619,-193.5 619,-174.5 497,-174.5"/>
<text text-anchor="middle" x="558" y="-181.5" font-family="Helvetica,sans-Serif" font-size="10.00">hpp/fcl/math/matrix_3f.h</text>
</a>
</g>
</g>
<!-- Node16&#45;&gt;Node17 -->
<g id="edge20" class="edge"><title>Node16&#45;&gt;Node17</title>
<path fill="none" stroke="midnightblue" d="M501.456,-236.403C511.748,-227.047 528.416,-211.895 540.994,-200.46"/>
<polygon fill="midnightblue" stroke="midnightblue" points="543.516,-202.897 548.561,-193.581 538.808,-197.718 543.516,-202.897"/>
</g>
<!-- Node17&#45;&gt;Node4 -->
<g id="edge21" class="edge"><title>Node17&#45;&gt;Node4</title>
<path fill="none" stroke="midnightblue" d="M521.451,-174.467C475.685,-163.783 397.241,-145.469 347.315,-133.813"/>
<polygon fill="midnightblue" stroke="midnightblue" points="347.957,-130.369 337.423,-131.503 346.365,-137.185 347.957,-130.369"/>
</g>
<!-- Node18&#45;&gt;Node3 -->
<g id="edge23" class="edge"><title>Node18&#45;&gt;Node3</title>
<path fill="none" stroke="midnightblue" d="M354.07,-236.403C323.964,-226.022 273.168,-208.506 239.362,-196.849"/>
<polygon fill="midnightblue" stroke="midnightblue" points="240.478,-193.532 229.884,-193.581 238.196,-200.149 240.478,-193.532"/>
</g>
<!-- Node18&#45;&gt;Node4 -->
<g id="edge24" class="edge"><title>Node18&#45;&gt;Node4</title>
<path fill="none" stroke="midnightblue" d="M362.812,-236.455C349.622,-228.67 331.517,-215.964 321,-200 309.393,-182.382 304.517,-158.375 302.472,-141.875"/>
<polygon fill="midnightblue" stroke="midnightblue" points="305.944,-141.422 301.46,-131.823 298.979,-142.123 305.944,-141.422"/>
</g>
<!-- Node18&#45;&gt;Node17 -->
<g id="edge25" class="edge"><title>Node18&#45;&gt;Node17</title>
<path fill="none" stroke="midnightblue" d="M404.646,-236.403C435.617,-226.022 487.873,-208.506 522.651,-196.849"/>
<polygon fill="midnightblue" stroke="midnightblue" points="524.032,-200.077 532.401,-193.581 521.807,-193.44 524.032,-200.077"/>
</g>
<!-- Node19 -->
<g id="node19" class="node"><title>Node19</title>
<polygon fill="white" stroke="#bfbfbf" points="329.5,-169 329.5,-199 440.5,-199 440.5,-169 329.5,-169"/>
<text text-anchor="start" x="337.5" y="-187" font-family="Helvetica,sans-Serif" font-size="10.00">boost/math/constants</text>
<text text-anchor="middle" x="385" y="-176" font-family="Helvetica,sans-Serif" font-size="10.00">/constants.hpp</text>
</g>
<!-- Node18&#45;&gt;Node19 -->
<g id="edge26" class="edge"><title>Node18&#45;&gt;Node19</title>
<path fill="none" stroke="midnightblue" d="M379.86,-236.403C380.566,-229.341 381.602,-218.975 382.56,-209.399"/>
<polygon fill="midnightblue" stroke="midnightblue" points="386.073,-209.439 383.586,-199.141 379.108,-208.743 386.073,-209.439"/>
</g>
<!-- Node20&#45;&gt;Node16 -->
<g id="edge28" class="edge"><title>Node20&#45;&gt;Node16</title>
<path fill="none" stroke="midnightblue" d="M400.513,-292.324C418.072,-283.625 445.331,-270.12 465.531,-260.113"/>
<polygon fill="midnightblue" stroke="midnightblue" points="467.124,-263.23 474.531,-255.655 464.016,-256.958 467.124,-263.23"/>
</g>
<!-- Node20&#45;&gt;Node18 -->
<g id="edge29" class="edge"><title>Node20&#45;&gt;Node18</title>
<path fill="none" stroke="midnightblue" d="M382.339,-292.083C381.815,-285.006 381.064,-274.861 380.406,-265.986"/>
<polygon fill="midnightblue" stroke="midnightblue" points="383.877,-265.465 379.648,-255.751 376.897,-265.982 383.877,-265.465"/>
</g>
<!-- Node21&#45;&gt;Node16 -->
<g id="edge31" class="edge"><title>Node21&#45;&gt;Node16</title>
<path fill="none" stroke="midnightblue" d="M536.248,-292.083C528.53,-284.22 517.095,-272.569 507.783,-263.081"/>
<polygon fill="midnightblue" stroke="midnightblue" points="510.092,-260.436 500.589,-255.751 505.096,-265.34 510.092,-260.436"/>
</g>
<!-- Node22&#45;&gt;Node17 -->
<g id="edge33" class="edge"><title>Node22&#45;&gt;Node17</title>
<path fill="none" stroke="midnightblue" d="M655.689,-292.376C640.796,-284.372 619.348,-271.395 604,-256 588.178,-240.13 574.876,-217.956 566.71,-202.63"/>
<polygon fill="midnightblue" stroke="midnightblue" points="569.795,-200.977 562.111,-193.683 563.57,-204.177 569.795,-200.977"/>
</g>
<!-- Node23 -->
<g id="node23" class="node"><title>Node23</title>
<polygon fill="white" stroke="#bfbfbf" points="613.5,-236.5 613.5,-255.5 732.5,-255.5 732.5,-236.5 613.5,-236.5"/>
<text text-anchor="middle" x="673" y="-243.5" font-family="Helvetica,sans-Serif" font-size="10.00">boost/thread/mutex.hpp</text>
</g>
<!-- Node22&#45;&gt;Node23 -->
<g id="edge34" class="edge"><title>Node22&#45;&gt;Node23</title>
<path fill="none" stroke="midnightblue" d="M673,-292.083C673,-285.006 673,-274.861 673,-265.986"/>
<polygon fill="midnightblue" stroke="midnightblue" points="676.5,-265.751 673,-255.751 669.5,-265.751 676.5,-265.751"/>
</g>
</g>
</svg>
