<?xml version="1.0" encoding="UTF-8" standalone="no"?>
<!DOCTYPE svg PUBLIC "-//W3C//DTD SVG 1.1//EN"
 "http://www.w3.org/Graphics/SVG/1.1/DTD/svg11.dtd">
<!-- Generated by graphviz version 2.36.0 (20140111.2315)
 -->
<!-- Title: AABB.h Pages: 1 -->
<svg width="755pt" height="252pt"
 viewBox="0.00 0.00 755.00 252.00" xmlns="http://www.w3.org/2000/svg" xmlns:xlink="http://www.w3.org/1999/xlink">
<g id="graph0" class="graph" transform="scale(1 1) rotate(0) translate(4 248)">
<title>AABB.h</title>
<polygon fill="white" stroke="none" points="-4,4 -4,-248 751,-248 751,4 -4,4"/>
<!-- Node1 -->
<g id="node1" class="node"><title>Node1</title>
<polygon fill="#bfbfbf" stroke="black" points="465,-224.5 465,-243.5 517,-243.5 517,-224.5 465,-224.5"/>
<text text-anchor="middle" x="491" y="-231.5" font-family="Helvetica,sans-Serif" font-size="10.00">AABB.h</text>
</g>
<!-- Node2 -->
<g id="node2" class="node"><title>Node2</title>
<polygon fill="white" stroke="#bfbfbf" points="410.5,-168.5 410.5,-187.5 469.5,-187.5 469.5,-168.5 410.5,-168.5"/>
<text text-anchor="middle" x="440" y="-175.5" font-family="Helvetica,sans-Serif" font-size="10.00">stdexcept</text>
</g>
<!-- Node1&#45;&gt;Node2 -->
<g id="edge1" class="edge"><title>Node1&#45;&gt;Node2</title>
<path fill="none" stroke="midnightblue" d="M482.578,-224.083C475.152,-216.22 464.148,-204.569 455.188,-195.081"/>
<polygon fill="midnightblue" stroke="midnightblue" points="457.676,-192.618 448.265,-187.751 452.587,-197.424 457.676,-192.618"/>
</g>
<!-- Node3 -->
<g id="node3" class="node"><title>Node3</title>
<g id="a_node3"><a xlink:href="a00350.html" target="_top" xlink:title="hpp/fcl/math/vec_3f.h">
<polygon fill="white" stroke="black" points="487.5,-168.5 487.5,-187.5 598.5,-187.5 598.5,-168.5 487.5,-168.5"/>
<text text-anchor="middle" x="543" y="-175.5" font-family="Helvetica,sans-Serif" font-size="10.00">hpp/fcl/math/vec_3f.h</text>
</a>
</g>
</g>
<!-- Node1&#45;&gt;Node3 -->
<g id="edge2" class="edge"><title>Node1&#45;&gt;Node3</title>
<path fill="none" stroke="midnightblue" d="M499.587,-224.083C507.159,-216.22 518.378,-204.569 527.514,-195.081"/>
<polygon fill="midnightblue" stroke="midnightblue" points="530.158,-197.382 534.573,-187.751 525.115,-192.527 530.158,-197.382"/>
</g>
<!-- Node4 -->
<g id="node4" class="node"><title>Node4</title>
<polygon fill="white" stroke="#bfbfbf" points="-1,-56.5 -1,-75.5 101,-75.5 101,-56.5 -1,-56.5"/>
<text text-anchor="middle" x="50" y="-63.5" font-family="Helvetica,sans-Serif" font-size="10.00">hpp/fcl/config&#45;fcl.hh</text>
</g>
<!-- Node3&#45;&gt;Node4 -->
<g id="edge3" class="edge"><title>Node3&#45;&gt;Node4</title>
<path fill="none" stroke="midnightblue" d="M498.676,-168.495C453.796,-159.771 382.436,-145.59 321,-132 240.671,-114.231 147.492,-91.3896 93.9735,-78.0538"/>
<polygon fill="midnightblue" stroke="midnightblue" points="94.6842,-74.6239 84.1342,-75.5977 92.9888,-81.4155 94.6842,-74.6239"/>
</g>
<!-- Node5 -->
<g id="node5" class="node"><title>Node5</title>
<g id="a_node5"><a xlink:href="a00278.html" target="_top" xlink:title="hpp/fcl/data_types.h">
<polygon fill="white" stroke="black" points="119.5,-56.5 119.5,-75.5 224.5,-75.5 224.5,-56.5 119.5,-56.5"/>
<text text-anchor="middle" x="172" y="-63.5" font-family="Helvetica,sans-Serif" font-size="10.00">hpp/fcl/data_types.h</text>
</a>
</g>
</g>
<!-- Node3&#45;&gt;Node5 -->
<g id="edge4" class="edge"><title>Node3&#45;&gt;Node5</title>
<path fill="none" stroke="midnightblue" d="M514.197,-168.46C448.099,-148.862 285.483,-100.647 210.73,-78.4834"/>
<polygon fill="midnightblue" stroke="midnightblue" points="211.367,-75.0216 200.785,-75.5345 209.377,-81.7329 211.367,-75.0216"/>
</g>
<!-- Node8 -->
<g id="node8" class="node"><title>Node8</title>
<g id="a_node8"><a xlink:href="a00351.html" target="_top" xlink:title="hpp/fcl/eigen/vec_3fx.h">
<polygon fill="white" stroke="black" points="438,-112.5 438,-131.5 556,-131.5 556,-112.5 438,-112.5"/>
<text text-anchor="middle" x="497" y="-119.5" font-family="Helvetica,sans-Serif" font-size="10.00">hpp/fcl/eigen/vec_3fx.h</text>
</a>
</g>
</g>
<!-- Node3&#45;&gt;Node8 -->
<g id="edge7" class="edge"><title>Node3&#45;&gt;Node8</title>
<path fill="none" stroke="midnightblue" d="M535.404,-168.083C528.773,-160.298 518.979,-148.801 510.942,-139.367"/>
<polygon fill="midnightblue" stroke="midnightblue" points="513.604,-137.094 504.455,-131.751 508.275,-141.633 513.604,-137.094"/>
</g>
<!-- Node11 -->
<g id="node11" class="node"><title>Node11</title>
<polygon fill="white" stroke="#bfbfbf" points="573,-56.5 573,-75.5 617,-75.5 617,-56.5 573,-56.5"/>
<text text-anchor="middle" x="595" y="-63.5" font-family="Helvetica,sans-Serif" font-size="10.00">cmath</text>
</g>
<!-- Node3&#45;&gt;Node11 -->
<g id="edge16" class="edge"><title>Node3&#45;&gt;Node11</title>
<path fill="none" stroke="midnightblue" d="M547.275,-168.401C551.75,-159.365 558.954,-144.724 565,-132 572.492,-116.233 580.793,-98.2011 586.761,-85.1358"/>
<polygon fill="midnightblue" stroke="midnightblue" points="590.025,-86.4117 590.986,-75.8605 583.655,-83.5097 590.025,-86.4117"/>
</g>
<!-- Node12 -->
<g id="node12" class="node"><title>Node12</title>
<polygon fill="white" stroke="#bfbfbf" points="635,-56.5 635,-75.5 689,-75.5 689,-56.5 635,-56.5"/>
<text text-anchor="middle" x="662" y="-63.5" font-family="Helvetica,sans-Serif" font-size="10.00">iostream</text>
</g>
<!-- Node3&#45;&gt;Node12 -->
<g id="edge17" class="edge"><title>Node3&#45;&gt;Node12</title>
<path fill="none" stroke="midnightblue" d="M552.338,-168.368C572.411,-149.814 619.903,-105.913 645.299,-82.4376"/>
<polygon fill="midnightblue" stroke="midnightblue" points="647.738,-84.9495 652.706,-75.5914 642.987,-79.8092 647.738,-84.9495"/>
</g>
<!-- Node13 -->
<g id="node13" class="node"><title>Node13</title>
<polygon fill="white" stroke="#bfbfbf" points="707,-56.5 707,-75.5 747,-75.5 747,-56.5 707,-56.5"/>
<text text-anchor="middle" x="727" y="-63.5" font-family="Helvetica,sans-Serif" font-size="10.00">limits</text>
</g>
<!-- Node3&#45;&gt;Node13 -->
<g id="edge18" class="edge"><title>Node3&#45;&gt;Node13</title>
<path fill="none" stroke="midnightblue" d="M557.438,-168.368C589.147,-149.412 665.108,-104.001 703.678,-80.9424"/>
<polygon fill="midnightblue" stroke="midnightblue" points="705.842,-83.7268 712.629,-75.5914 702.25,-77.7186 705.842,-83.7268"/>
</g>
<!-- Node6 -->
<g id="node6" class="node"><title>Node6</title>
<polygon fill="white" stroke="#bfbfbf" points="102.5,-0.5 102.5,-19.5 151.5,-19.5 151.5,-0.5 102.5,-0.5"/>
<text text-anchor="middle" x="127" y="-7.5" font-family="Helvetica,sans-Serif" font-size="10.00">cstddef</text>
</g>
<!-- Node5&#45;&gt;Node6 -->
<g id="edge5" class="edge"><title>Node5&#45;&gt;Node6</title>
<path fill="none" stroke="midnightblue" d="M164.569,-56.083C158.147,-48.3768 148.694,-37.0333 140.878,-27.6531"/>
<polygon fill="midnightblue" stroke="midnightblue" points="143.383,-25.1927 134.293,-19.7511 138.006,-29.674 143.383,-25.1927"/>
</g>
<!-- Node7 -->
<g id="node7" class="node"><title>Node7</title>
<polygon fill="white" stroke="#bfbfbf" points="170,-0.5 170,-19.5 262,-19.5 262,-0.5 170,-0.5"/>
<text text-anchor="middle" x="216" y="-7.5" font-family="Helvetica,sans-Serif" font-size="10.00">boost/cstdint.hpp</text>
</g>
<!-- Node5&#45;&gt;Node7 -->
<g id="edge6" class="edge"><title>Node5&#45;&gt;Node7</title>
<path fill="none" stroke="midnightblue" d="M179.266,-56.083C185.545,-48.3768 194.788,-37.0333 202.431,-27.6531"/>
<polygon fill="midnightblue" stroke="midnightblue" points="205.266,-29.7143 208.869,-19.7511 199.839,-25.2926 205.266,-29.7143"/>
</g>
<!-- Node8&#45;&gt;Node4 -->
<g id="edge8" class="edge"><title>Node8&#45;&gt;Node4</title>
<path fill="none" stroke="midnightblue" d="M437.916,-114.745C364.028,-106.786 233.385,-92.261 111.32,-76.138"/>
<polygon fill="midnightblue" stroke="midnightblue" points="111.42,-72.6208 101.047,-74.7746 110.499,-79.5599 111.42,-72.6208"/>
</g>
<!-- Node8&#45;&gt;Node5 -->
<g id="edge9" class="edge"><title>Node8&#45;&gt;Node5</title>
<path fill="none" stroke="midnightblue" d="M445.503,-112.444C387.856,-102.865 294.51,-87.3556 233.188,-77.1667"/>
<polygon fill="midnightblue" stroke="midnightblue" points="233.695,-73.7029 223.256,-75.5164 232.547,-80.6082 233.695,-73.7029"/>
</g>
<!-- Node9 -->
<g id="node9" class="node"><title>Node9</title>
<polygon fill="white" stroke="#bfbfbf" points="242.5,-56.5 242.5,-75.5 315.5,-75.5 315.5,-56.5 242.5,-56.5"/>
<text text-anchor="middle" x="279" y="-63.5" font-family="Helvetica,sans-Serif" font-size="10.00">Eigen/Dense</text>
</g>
<!-- Node8&#45;&gt;Node9 -->
<g id="edge10" class="edge"><title>Node8&#45;&gt;Node9</title>
<path fill="none" stroke="midnightblue" d="M462.457,-112.444C424.747,-103.102 364.26,-88.1194 323.135,-77.9326"/>
<polygon fill="midnightblue" stroke="midnightblue" points="323.929,-74.5236 313.381,-75.5164 322.246,-81.3182 323.929,-74.5236"/>
</g>
<!-- Node10 -->
<g id="node10" class="node"><title>Node10</title>
<polygon fill="white" stroke="#bfbfbf" points="333.5,-56.5 333.5,-75.5 420.5,-75.5 420.5,-56.5 333.5,-56.5"/>
<text text-anchor="middle" x="377" y="-63.5" font-family="Helvetica,sans-Serif" font-size="10.00">Eigen/Geometry</text>
</g>
<!-- Node8&#45;&gt;Node10 -->
<g id="edge11" class="edge"><title>Node8&#45;&gt;Node10</title>
<path fill="none" stroke="midnightblue" d="M477.986,-112.444C458.412,-103.636 427.692,-89.8116 405.271,-79.722"/>
<polygon fill="midnightblue" stroke="midnightblue" points="406.481,-76.4284 395.925,-75.5164 403.608,-82.8119 406.481,-76.4284"/>
</g>
<!-- Node8&#45;&gt;Node11 -->
<g id="edge12" class="edge"><title>Node8&#45;&gt;Node11</title>
<path fill="none" stroke="midnightblue" d="M512.745,-112.324C528.319,-103.743 552.377,-90.486 570.459,-80.5224"/>
<polygon fill="midnightblue" stroke="midnightblue" points="572.224,-83.546 579.294,-75.6545 568.846,-77.4152 572.224,-83.546"/>
</g>
<!-- Node8&#45;&gt;Node12 -->
<g id="edge13" class="edge"><title>Node8&#45;&gt;Node12</title>
<path fill="none" stroke="midnightblue" d="M523.145,-112.444C551.023,-103.32 595.348,-88.8133 626.4,-78.6509"/>
<polygon fill="midnightblue" stroke="midnightblue" points="627.562,-81.9533 635.978,-75.5164 625.385,-75.3005 627.562,-81.9533"/>
</g>
<!-- Node8&#45;&gt;Node13 -->
<g id="edge14" class="edge"><title>Node8&#45;&gt;Node13</title>
<path fill="none" stroke="midnightblue" d="M539.983,-112.425C578.692,-104.469 637.334,-91.8395 696.837,-76.1519"/>
<polygon fill="midnightblue" stroke="midnightblue" points="698.017,-79.4597 706.779,-73.5037 696.215,-72.6955 698.017,-79.4597"/>
</g>
<!-- Node14 -->
<g id="node14" class="node"><title>Node14</title>
<g id="a_node14"><a xlink:href="a00331.html" target="_top" xlink:title="hpp/fcl/eigen/product.h">
<polygon fill="white" stroke="black" points="439,-56.5 439,-75.5 555,-75.5 555,-56.5 439,-56.5"/>
<text text-anchor="middle" x="497" y="-63.5" font-family="Helvetica,sans-Serif" font-size="10.00">hpp/fcl/eigen/product.h</text>
</a>
</g>
</g>
<!-- Node8&#45;&gt;Node14 -->
<g id="edge15" class="edge"><title>Node8&#45;&gt;Node14</title>
<path fill="none" stroke="midnightblue" d="M497,-112.083C497,-105.006 497,-94.8611 497,-85.9865"/>
<polygon fill="midnightblue" stroke="midnightblue" points="500.5,-85.751 497,-75.7511 493.5,-85.7511 500.5,-85.751"/>
</g>
</g>
</svg>
