<?xml version="1.0" encoding="UTF-8" standalone="no"?>
<!DOCTYPE svg PUBLIC "-//W3C//DTD SVG 1.1//EN"
 "http://www.w3.org/Graphics/SVG/1.1/DTD/svg11.dtd">
<!-- Generated by graphviz version 2.36.0 (20140111.2315)
 -->
<!-- Title: BV_node.h Pages: 1 -->
<svg width="786pt" height="500pt"
 viewBox="0.00 0.00 786.04 500.00" xmlns="http://www.w3.org/2000/svg" xmlns:xlink="http://www.w3.org/1999/xlink">
<g id="graph0" class="graph" transform="scale(1 1) rotate(0) translate(4 496)">
<title>BV_node.h</title>
<polygon fill="white" stroke="none" points="-4,4 -4,-496 782.035,-496 782.035,4 -4,4"/>
<!-- Node1 -->
<g id="node1" class="node"><title>Node1</title>
<polygon fill="#bfbfbf" stroke="black" points="207.5,-472.5 207.5,-491.5 272.5,-491.5 272.5,-472.5 207.5,-472.5"/>
<text text-anchor="middle" x="240" y="-479.5" font-family="Helvetica,sans-Serif" font-size="10.00">BV_node.h</text>
</g>
<!-- Node2 -->
<g id="node2" class="node"><title>Node2</title>
<g id="a_node2"><a xlink:href="a00356.html" target="_top" xlink:title="hpp/fcl/math/vec_3f.h">
<polygon fill="white" stroke="black" points="313.5,-180.5 313.5,-199.5 424.5,-199.5 424.5,-180.5 313.5,-180.5"/>
<text text-anchor="middle" x="369" y="-187.5" font-family="Helvetica,sans-Serif" font-size="10.00">hpp/fcl/math/vec_3f.h</text>
</a>
</g>
</g>
<!-- Node1&#45;&gt;Node2 -->
<g id="edge1" class="edge"><title>Node1&#45;&gt;Node2</title>
<path fill="none" stroke="midnightblue" d="M215.016,-472.467C177.766,-457.972 112,-424.767 112,-371 112,-371 112,-371 112,-313 112,-228.39 227.083,-202.387 303.228,-194.442"/>
<polygon fill="midnightblue" stroke="midnightblue" points="303.617,-197.921 313.235,-193.477 302.945,-190.953 303.617,-197.921"/>
</g>
<!-- Node12 -->
<g id="node12" class="node"><title>Node12</title>
<polygon fill="white" stroke="#bfbfbf" points="0,-56.5 0,-75.5 54,-75.5 54,-56.5 0,-56.5"/>
<text text-anchor="middle" x="27" y="-63.5" font-family="Helvetica,sans-Serif" font-size="10.00">iostream</text>
</g>
<!-- Node1&#45;&gt;Node12 -->
<g id="edge46" class="edge"><title>Node1&#45;&gt;Node12</title>
<path fill="none" stroke="midnightblue" d="M207.403,-476.182C155.532,-466.467 60,-439.302 60,-371 60,-371 60,-371 60,-189 60,-150.945 44.8532,-108.457 35.0833,-85.0089"/>
<polygon fill="midnightblue" stroke="midnightblue" points="38.2239,-83.4532 31.0464,-75.6599 31.7974,-86.2281 38.2239,-83.4532"/>
</g>
<!-- Node15 -->
<g id="node15" class="node"><title>Node15</title>
<g id="a_node15"><a xlink:href="a00319.html" target="_top" xlink:title="hpp/fcl/math/matrix_3f.h">
<polygon fill="white" stroke="black" points="565,-242.5 565,-261.5 687,-261.5 687,-242.5 565,-242.5"/>
<text text-anchor="middle" x="626" y="-249.5" font-family="Helvetica,sans-Serif" font-size="10.00">hpp/fcl/math/matrix_3f.h</text>
</a>
</g>
</g>
<!-- Node1&#45;&gt;Node15 -->
<g id="edge21" class="edge"><title>Node1&#45;&gt;Node15</title>
<path fill="none" stroke="midnightblue" d="M272.709,-480.007C378.424,-476.044 707.771,-457.57 772,-380 789.329,-359.072 765.287,-321.133 748,-304 728.438,-284.613 700.418,-272.196 676.163,-264.474"/>
<polygon fill="midnightblue" stroke="midnightblue" points="676.967,-261.062 666.384,-261.544 674.958,-267.767 676.967,-261.062"/>
</g>
<!-- Node16 -->
<g id="node16" class="node"><title>Node16</title>
<g id="a_node16"><a xlink:href="a00267.html" target="_top" xlink:title="hpp/fcl/BV/BV.h">
<polygon fill="white" stroke="black" points="325.5,-416.5 325.5,-435.5 412.5,-435.5 412.5,-416.5 325.5,-416.5"/>
<text text-anchor="middle" x="369" y="-423.5" font-family="Helvetica,sans-Serif" font-size="10.00">hpp/fcl/BV/BV.h</text>
</a>
</g>
</g>
<!-- Node1&#45;&gt;Node16 -->
<g id="edge23" class="edge"><title>Node1&#45;&gt;Node16</title>
<path fill="none" stroke="midnightblue" d="M260.44,-472.444C281.67,-463.557 315.099,-449.563 339.255,-439.451"/>
<polygon fill="midnightblue" stroke="midnightblue" points="340.782,-442.606 348.655,-435.516 338.079,-436.149 340.782,-442.606"/>
</g>
<!-- Node3 -->
<g id="node3" class="node"><title>Node3</title>
<polygon fill="white" stroke="#bfbfbf" points="646,-56.5 646,-75.5 748,-75.5 748,-56.5 646,-56.5"/>
<text text-anchor="middle" x="697" y="-63.5" font-family="Helvetica,sans-Serif" font-size="10.00">hpp/fcl/config&#45;fcl.hh</text>
</g>
<!-- Node2&#45;&gt;Node3 -->
<g id="edge2" class="edge"><title>Node2&#45;&gt;Node3</title>
<path fill="none" stroke="midnightblue" d="M404.62,-180.461C436.961,-172.332 485.761,-159.118 527,-144 579.329,-124.816 638.091,-96.6468 671.013,-80.2292"/>
<polygon fill="midnightblue" stroke="midnightblue" points="672.609,-83.3446 679.976,-75.7308 669.469,-77.0883 672.609,-83.3446"/>
</g>
<!-- Node4 -->
<g id="node4" class="node"><title>Node4</title>
<g id="a_node4"><a xlink:href="a00283.html" target="_top" xlink:title="hpp/fcl/data_types.h">
<polygon fill="white" stroke="black" points="72.5,-56.5 72.5,-75.5 177.5,-75.5 177.5,-56.5 72.5,-56.5"/>
<text text-anchor="middle" x="125" y="-63.5" font-family="Helvetica,sans-Serif" font-size="10.00">hpp/fcl/data_types.h</text>
</a>
</g>
</g>
<!-- Node2&#45;&gt;Node4 -->
<g id="edge3" class="edge"><title>Node2&#45;&gt;Node4</title>
<path fill="none" stroke="midnightblue" d="M313.212,-182.083C278.511,-175.939 233.993,-164.598 199,-144 172.876,-128.623 149.936,-101.479 136.77,-83.8711"/>
<polygon fill="midnightblue" stroke="midnightblue" points="139.512,-81.69 130.81,-75.6454 133.843,-85.7969 139.512,-81.69"/>
</g>
<!-- Node7 -->
<g id="node7" class="node"><title>Node7</title>
<g id="a_node7"><a xlink:href="a00316.html" target="_top" xlink:title="hpp/fcl/eigen/math\l_details.h">
<polygon fill="white" stroke="black" points="207.5,-113 207.5,-143 304.5,-143 304.5,-113 207.5,-113"/>
<text text-anchor="start" x="215.5" y="-131" font-family="Helvetica,sans-Serif" font-size="10.00">hpp/fcl/eigen/math</text>
<text text-anchor="middle" x="256" y="-120" font-family="Helvetica,sans-Serif" font-size="10.00">_details.h</text>
</a>
</g>
</g>
<!-- Node2&#45;&gt;Node7 -->
<g id="edge6" class="edge"><title>Node2&#45;&gt;Node7</title>
<path fill="none" stroke="midnightblue" d="M352.81,-180.403C336.933,-171.974 312.197,-158.839 291.702,-147.957"/>
<polygon fill="midnightblue" stroke="midnightblue" points="293.105,-144.739 282.632,-143.141 289.823,-150.922 293.105,-144.739"/>
</g>
<!-- Node10 -->
<g id="node10" class="node"><title>Node10</title>
<g id="a_node10"><a xlink:href="a00357.html" target="_top" xlink:title="hpp/fcl/eigen/vec_3fx.h">
<polygon fill="white" stroke="black" points="323,-118.5 323,-137.5 441,-137.5 441,-118.5 323,-118.5"/>
<text text-anchor="middle" x="382" y="-125.5" font-family="Helvetica,sans-Serif" font-size="10.00">hpp/fcl/eigen/vec_3fx.h</text>
</a>
</g>
</g>
<!-- Node2&#45;&gt;Node10 -->
<g id="edge9" class="edge"><title>Node2&#45;&gt;Node10</title>
<path fill="none" stroke="midnightblue" d="M370.863,-180.403C372.716,-171.849 375.619,-158.45 377.997,-147.476"/>
<polygon fill="midnightblue" stroke="midnightblue" points="381.444,-148.095 380.141,-137.581 374.603,-146.613 381.444,-148.095"/>
</g>
<!-- Node11 -->
<g id="node11" class="node"><title>Node11</title>
<polygon fill="white" stroke="#bfbfbf" points="526,-56.5 526,-75.5 570,-75.5 570,-56.5 526,-56.5"/>
<text text-anchor="middle" x="548" y="-63.5" font-family="Helvetica,sans-Serif" font-size="10.00">cmath</text>
</g>
<!-- Node2&#45;&gt;Node11 -->
<g id="edge18" class="edge"><title>Node2&#45;&gt;Node11</title>
<path fill="none" stroke="midnightblue" d="M386.216,-180.45C402.938,-171.912 428.831,-158.068 450,-144 479.512,-124.388 511.37,-98.3572 530.496,-82.1459"/>
<polygon fill="midnightblue" stroke="midnightblue" points="532.773,-84.8042 538.101,-75.6467 528.225,-79.4826 532.773,-84.8042"/>
</g>
<!-- Node2&#45;&gt;Node12 -->
<g id="edge19" class="edge"><title>Node2&#45;&gt;Node12</title>
<path fill="none" stroke="midnightblue" d="M313.11,-182.206C269.512,-175.713 208.002,-163.896 157,-144 115.212,-127.698 71.2462,-98.8184 46.6574,-81.4378"/>
<polygon fill="midnightblue" stroke="midnightblue" points="48.6812,-78.5822 38.5149,-75.5992 44.6021,-84.2709 48.6812,-78.5822"/>
</g>
<!-- Node13 -->
<g id="node13" class="node"><title>Node13</title>
<polygon fill="white" stroke="#bfbfbf" points="588,-56.5 588,-75.5 628,-75.5 628,-56.5 588,-56.5"/>
<text text-anchor="middle" x="608" y="-63.5" font-family="Helvetica,sans-Serif" font-size="10.00">limits</text>
</g>
<!-- Node2&#45;&gt;Node13 -->
<g id="edge20" class="edge"><title>Node2&#45;&gt;Node13</title>
<path fill="none" stroke="midnightblue" d="M395.408,-180.361C419.325,-172.164 455.262,-158.908 485,-144 522.744,-125.078 563.783,-97.9314 587.628,-81.4375"/>
<polygon fill="midnightblue" stroke="midnightblue" points="589.684,-84.2704 595.882,-75.6771 585.678,-78.5301 589.684,-84.2704"/>
</g>
<!-- Node5 -->
<g id="node5" class="node"><title>Node5</title>
<polygon fill="white" stroke="#bfbfbf" points="56.5,-0.5 56.5,-19.5 105.5,-19.5 105.5,-0.5 56.5,-0.5"/>
<text text-anchor="middle" x="81" y="-7.5" font-family="Helvetica,sans-Serif" font-size="10.00">cstddef</text>
</g>
<!-- Node4&#45;&gt;Node5 -->
<g id="edge4" class="edge"><title>Node4&#45;&gt;Node5</title>
<path fill="none" stroke="midnightblue" d="M117.734,-56.083C111.455,-48.3768 102.212,-37.0333 94.5692,-27.6531"/>
<polygon fill="midnightblue" stroke="midnightblue" points="97.1606,-25.2926 88.1305,-19.7511 91.7339,-29.7143 97.1606,-25.2926"/>
</g>
<!-- Node6 -->
<g id="node6" class="node"><title>Node6</title>
<polygon fill="white" stroke="#bfbfbf" points="124,-0.5 124,-19.5 216,-19.5 216,-0.5 124,-0.5"/>
<text text-anchor="middle" x="170" y="-7.5" font-family="Helvetica,sans-Serif" font-size="10.00">boost/cstdint.hpp</text>
</g>
<!-- Node4&#45;&gt;Node6 -->
<g id="edge5" class="edge"><title>Node4&#45;&gt;Node6</title>
<path fill="none" stroke="midnightblue" d="M132.431,-56.083C138.853,-48.3768 148.306,-37.0333 156.122,-27.6531"/>
<polygon fill="midnightblue" stroke="midnightblue" points="158.994,-29.674 162.707,-19.7511 153.617,-25.1927 158.994,-29.674"/>
</g>
<!-- Node8 -->
<g id="node8" class="node"><title>Node8</title>
<polygon fill="white" stroke="#bfbfbf" points="300.5,-56.5 300.5,-75.5 373.5,-75.5 373.5,-56.5 300.5,-56.5"/>
<text text-anchor="middle" x="337" y="-63.5" font-family="Helvetica,sans-Serif" font-size="10.00">Eigen/Dense</text>
</g>
<!-- Node7&#45;&gt;Node8 -->
<g id="edge7" class="edge"><title>Node7&#45;&gt;Node8</title>
<path fill="none" stroke="midnightblue" d="M275.196,-112.781C287.816,-103.433 304.293,-91.2273 317.061,-81.77"/>
<polygon fill="midnightblue" stroke="midnightblue" points="319.262,-84.4953 325.214,-75.7305 315.095,-78.8704 319.262,-84.4953"/>
</g>
<!-- Node9 -->
<g id="node9" class="node"><title>Node9</title>
<polygon fill="white" stroke="#bfbfbf" points="195.5,-56.5 195.5,-75.5 282.5,-75.5 282.5,-56.5 195.5,-56.5"/>
<text text-anchor="middle" x="239" y="-63.5" font-family="Helvetica,sans-Serif" font-size="10.00">Eigen/Geometry</text>
</g>
<!-- Node7&#45;&gt;Node9 -->
<g id="edge8" class="edge"><title>Node7&#45;&gt;Node9</title>
<path fill="none" stroke="midnightblue" d="M251.971,-112.781C249.654,-104.601 246.716,-94.2341 244.223,-85.4344"/>
<polygon fill="midnightblue" stroke="midnightblue" points="247.567,-84.3977 241.474,-75.7305 240.832,-86.3059 247.567,-84.3977"/>
</g>
<!-- Node10&#45;&gt;Node3 -->
<g id="edge10" class="edge"><title>Node10&#45;&gt;Node3</title>
<path fill="none" stroke="midnightblue" d="M426.797,-118.467C483.594,-107.649 581.454,-89.0087 642.515,-77.3781"/>
<polygon fill="midnightblue" stroke="midnightblue" points="643.189,-80.8128 652.357,-75.5034 641.879,-73.9364 643.189,-80.8128"/>
</g>
<!-- Node10&#45;&gt;Node4 -->
<g id="edge11" class="edge"><title>Node10&#45;&gt;Node4</title>
<path fill="none" stroke="midnightblue" d="M345.451,-118.467C299.685,-107.783 221.241,-89.4687 171.315,-77.8129"/>
<polygon fill="midnightblue" stroke="midnightblue" points="171.957,-74.3686 161.423,-75.5034 170.365,-81.1853 171.957,-74.3686"/>
</g>
<!-- Node10&#45;&gt;Node8 -->
<g id="edge12" class="edge"><title>Node10&#45;&gt;Node8</title>
<path fill="none" stroke="midnightblue" d="M375.553,-118.403C368.803,-109.403 358.031,-95.0408 349.587,-83.7824"/>
<polygon fill="midnightblue" stroke="midnightblue" points="352.235,-81.4806 343.435,-75.5806 346.635,-85.6806 352.235,-81.4806"/>
</g>
<!-- Node10&#45;&gt;Node9 -->
<g id="edge13" class="edge"><title>Node10&#45;&gt;Node9</title>
<path fill="none" stroke="midnightblue" d="M361.512,-118.403C337.194,-108.2 296.451,-91.1055 268.683,-79.4544"/>
<polygon fill="midnightblue" stroke="midnightblue" points="270.026,-76.2223 259.45,-75.5806 267.317,-82.6771 270.026,-76.2223"/>
</g>
<!-- Node10&#45;&gt;Node11 -->
<g id="edge14" class="edge"><title>Node10&#45;&gt;Node11</title>
<path fill="none" stroke="midnightblue" d="M405.784,-118.403C434.869,-107.891 484.198,-90.0608 516.437,-78.4084"/>
<polygon fill="midnightblue" stroke="midnightblue" points="517.637,-81.6962 525.852,-75.0053 515.258,-75.113 517.637,-81.6962"/>
</g>
<!-- Node10&#45;&gt;Node12 -->
<g id="edge15" class="edge"><title>Node10&#45;&gt;Node12</title>
<path fill="none" stroke="midnightblue" d="M345.213,-118.496C334.827,-116.233 323.496,-113.894 313,-112 205.656,-92.6286 174.88,-97.3459 63.9665,-76.0123"/>
<polygon fill="midnightblue" stroke="midnightblue" points="64.5456,-72.5594 54.0604,-74.0793 63.2049,-79.4298 64.5456,-72.5594"/>
</g>
<!-- Node10&#45;&gt;Node13 -->
<g id="edge16" class="edge"><title>Node10&#45;&gt;Node13</title>
<path fill="none" stroke="midnightblue" d="M416.447,-118.446C455.672,-108.61 521.625,-91.7849 578,-76 578.098,-75.9725 578.197,-75.9449 578.295,-75.9173"/>
<polygon fill="midnightblue" stroke="midnightblue" points="579.06,-79.3394 587.696,-73.2016 577.118,-72.6143 579.06,-79.3394"/>
</g>
<!-- Node14 -->
<g id="node14" class="node"><title>Node14</title>
<g id="a_node14"><a xlink:href="a00336.html" target="_top" xlink:title="hpp/fcl/eigen/product.h">
<polygon fill="white" stroke="black" points="392,-56.5 392,-75.5 508,-75.5 508,-56.5 392,-56.5"/>
<text text-anchor="middle" x="450" y="-63.5" font-family="Helvetica,sans-Serif" font-size="10.00">hpp/fcl/eigen/product.h</text>
</a>
</g>
</g>
<!-- Node10&#45;&gt;Node14 -->
<g id="edge17" class="edge"><title>Node10&#45;&gt;Node14</title>
<path fill="none" stroke="midnightblue" d="M391.743,-118.403C402.347,-109.047 419.519,-93.8948 432.479,-82.4599"/>
<polygon fill="midnightblue" stroke="midnightblue" points="435.093,-84.8213 440.275,-75.5806 430.461,-79.5724 435.093,-84.8213"/>
</g>
<!-- Node15&#45;&gt;Node2 -->
<g id="edge22" class="edge"><title>Node15&#45;&gt;Node2</title>
<path fill="none" stroke="midnightblue" d="M589.451,-242.467C543.685,-231.783 465.241,-213.469 415.315,-201.813"/>
<polygon fill="midnightblue" stroke="midnightblue" points="415.957,-198.369 405.423,-199.503 414.365,-205.185 415.957,-198.369"/>
</g>
<!-- Node17 -->
<g id="node17" class="node"><title>Node17</title>
<g id="a_node17"><a xlink:href="a00312.html" target="_top" xlink:title="hpp/fcl/BV/kDOP.h">
<polygon fill="white" stroke="black" points="140.5,-304.5 140.5,-323.5 241.5,-323.5 241.5,-304.5 140.5,-304.5"/>
<text text-anchor="middle" x="191" y="-311.5" font-family="Helvetica,sans-Serif" font-size="10.00">hpp/fcl/BV/kDOP.h</text>
</a>
</g>
</g>
<!-- Node16&#45;&gt;Node17 -->
<g id="edge24" class="edge"><title>Node16&#45;&gt;Node17</title>
<path fill="none" stroke="midnightblue" d="M355.033,-416.368C324.358,-397.412 250.874,-352.001 213.561,-328.942"/>
<polygon fill="midnightblue" stroke="midnightblue" points="215.249,-325.871 204.902,-323.591 211.569,-331.826 215.249,-325.871"/>
</g>
<!-- Node19 -->
<g id="node19" class="node"><title>Node19</title>
<g id="a_node19"><a xlink:href="a00257.html" target="_top" xlink:title="hpp/fcl/BV/AABB.h">
<polygon fill="white" stroke="black" points="259.5,-304.5 259.5,-323.5 360.5,-323.5 360.5,-304.5 259.5,-304.5"/>
<text text-anchor="middle" x="310" y="-311.5" font-family="Helvetica,sans-Serif" font-size="10.00">hpp/fcl/BV/AABB.h</text>
</a>
</g>
</g>
<!-- Node16&#45;&gt;Node19 -->
<g id="edge27" class="edge"><title>Node16&#45;&gt;Node19</title>
<path fill="none" stroke="midnightblue" d="M362.289,-416.366C355.617,-407.541 345.344,-393.284 338,-380 329.557,-364.727 321.864,-346.393 316.687,-333.096"/>
<polygon fill="midnightblue" stroke="midnightblue" points="319.929,-331.775 313.109,-323.667 313.385,-334.258 319.929,-331.775"/>
</g>
<!-- Node20 -->
<g id="node20" class="node"><title>Node20</title>
<g id="a_node20"><a xlink:href="a00332.html" target="_top" xlink:title="hpp/fcl/BV/OBB.h">
<polygon fill="white" stroke="black" points="491.5,-304.5 491.5,-323.5 586.5,-323.5 586.5,-304.5 491.5,-304.5"/>
<text text-anchor="middle" x="539" y="-311.5" font-family="Helvetica,sans-Serif" font-size="10.00">hpp/fcl/BV/OBB.h</text>
</a>
</g>
</g>
<!-- Node16&#45;&gt;Node20 -->
<g id="edge30" class="edge"><title>Node16&#45;&gt;Node20</title>
<path fill="none" stroke="midnightblue" d="M412.978,-422.583C471.632,-418.336 570.693,-407.234 593,-380 607.495,-362.303 584.3,-342.05 563.95,-328.92"/>
<polygon fill="midnightblue" stroke="midnightblue" points="565.591,-325.821 555.234,-323.59 561.939,-331.793 565.591,-325.821"/>
</g>
<!-- Node21 -->
<g id="node21" class="node"><title>Node21</title>
<g id="a_node21"><a xlink:href="a00338.html" target="_top" xlink:title="hpp/fcl/BV/RSS.h">
<polygon fill="white" stroke="black" points="378.5,-304.5 378.5,-323.5 473.5,-323.5 473.5,-304.5 378.5,-304.5"/>
<text text-anchor="middle" x="426" y="-311.5" font-family="Helvetica,sans-Serif" font-size="10.00">hpp/fcl/BV/RSS.h</text>
</a>
</g>
</g>
<!-- Node16&#45;&gt;Node21 -->
<g id="edge33" class="edge"><title>Node16&#45;&gt;Node21</title>
<path fill="none" stroke="midnightblue" d="M361.007,-416.149C350.345,-403.216 334.019,-378.662 345,-360 353.918,-344.844 369.989,-334.426 385.478,-327.464"/>
<polygon fill="midnightblue" stroke="midnightblue" points="387.056,-330.6 394.977,-323.564 384.397,-324.124 387.056,-330.6"/>
</g>
<!-- Node23 -->
<g id="node23" class="node"><title>Node23</title>
<g id="a_node23"><a xlink:href="a00334.html" target="_top" xlink:title="hpp/fcl/BV/OBBRSS.h">
<polygon fill="white" stroke="black" points="354,-360.5 354,-379.5 470,-379.5 470,-360.5 354,-360.5"/>
<text text-anchor="middle" x="412" y="-367.5" font-family="Helvetica,sans-Serif" font-size="10.00">hpp/fcl/BV/OBBRSS.h</text>
</a>
</g>
</g>
<!-- Node16&#45;&gt;Node23 -->
<g id="edge38" class="edge"><title>Node16&#45;&gt;Node23</title>
<path fill="none" stroke="midnightblue" d="M376.101,-416.083C382.237,-408.377 391.27,-397.033 398.739,-387.653"/>
<polygon fill="midnightblue" stroke="midnightblue" points="401.54,-389.754 405.032,-379.751 396.064,-385.394 401.54,-389.754"/>
</g>
<!-- Node24 -->
<g id="node24" class="node"><title>Node24</title>
<g id="a_node24"><a xlink:href="a00313.html" target="_top" xlink:title="hpp/fcl/BV/kIOS.h">
<polygon fill="white" stroke="black" points="488,-360.5 488,-379.5 584,-379.5 584,-360.5 488,-360.5"/>
<text text-anchor="middle" x="536" y="-367.5" font-family="Helvetica,sans-Serif" font-size="10.00">hpp/fcl/BV/kIOS.h</text>
</a>
</g>
</g>
<!-- Node16&#45;&gt;Node24 -->
<g id="edge41" class="edge"><title>Node16&#45;&gt;Node24</title>
<path fill="none" stroke="midnightblue" d="M395.462,-416.444C423.678,-407.32 468.54,-392.813 499.968,-382.651"/>
<polygon fill="midnightblue" stroke="midnightblue" points="501.224,-385.923 509.662,-379.516 499.07,-379.263 501.224,-385.923"/>
</g>
<!-- Node25 -->
<g id="node25" class="node"><title>Node25</title>
<g id="a_node25"><a xlink:href="a00348.html" target="_top" xlink:title="hpp/fcl/math/transform.h">
<polygon fill="white" stroke="black" points="640.5,-360.5 640.5,-379.5 763.5,-379.5 763.5,-360.5 640.5,-360.5"/>
<text text-anchor="middle" x="702" y="-367.5" font-family="Helvetica,sans-Serif" font-size="10.00">hpp/fcl/math/transform.h</text>
</a>
</g>
</g>
<!-- Node16&#45;&gt;Node25 -->
<g id="edge43" class="edge"><title>Node16&#45;&gt;Node25</title>
<path fill="none" stroke="midnightblue" d="M412.534,-417.94C470.47,-408.545 573.287,-391.872 639.502,-381.135"/>
<polygon fill="midnightblue" stroke="midnightblue" points="640.088,-384.586 649.399,-379.53 638.967,-377.676 640.088,-384.586"/>
</g>
<!-- Node17&#45;&gt;Node2 -->
<g id="edge26" class="edge"><title>Node17&#45;&gt;Node2</title>
<path fill="none" stroke="midnightblue" d="M197.328,-304.274C208.981,-288.731 235.282,-256.006 264,-236 284.511,-221.711 310.277,-210.584 331.152,-202.97"/>
<polygon fill="midnightblue" stroke="midnightblue" points="332.394,-206.243 340.661,-199.617 330.066,-199.641 332.394,-206.243"/>
</g>
<!-- Node18 -->
<g id="node18" class="node"><title>Node18</title>
<polygon fill="white" stroke="#bfbfbf" points="281.5,-242.5 281.5,-261.5 340.5,-261.5 340.5,-242.5 281.5,-242.5"/>
<text text-anchor="middle" x="311" y="-249.5" font-family="Helvetica,sans-Serif" font-size="10.00">stdexcept</text>
</g>
<!-- Node17&#45;&gt;Node18 -->
<g id="edge25" class="edge"><title>Node17&#45;&gt;Node18</title>
<path fill="none" stroke="midnightblue" d="M208.193,-304.403C228.243,-294.379 261.599,-277.701 284.86,-266.07"/>
<polygon fill="midnightblue" stroke="midnightblue" points="286.46,-269.183 293.839,-261.581 283.329,-262.922 286.46,-269.183"/>
</g>
<!-- Node19&#45;&gt;Node2 -->
<g id="edge29" class="edge"><title>Node19&#45;&gt;Node2</title>
<path fill="none" stroke="midnightblue" d="M299.937,-304.355C284.19,-289.752 256.999,-259.496 272,-236 282.199,-220.025 299.691,-209.635 317.036,-202.916"/>
<polygon fill="midnightblue" stroke="midnightblue" points="318.338,-206.168 326.61,-199.549 316.015,-199.565 318.338,-206.168"/>
</g>
<!-- Node19&#45;&gt;Node18 -->
<g id="edge28" class="edge"><title>Node19&#45;&gt;Node18</title>
<path fill="none" stroke="midnightblue" d="M310.143,-304.403C310.284,-295.938 310.505,-282.728 310.686,-271.82"/>
<polygon fill="midnightblue" stroke="midnightblue" points="314.19,-271.638 310.857,-261.581 307.191,-271.521 314.19,-271.638"/>
</g>
<!-- Node20&#45;&gt;Node2 -->
<g id="edge31" class="edge"><title>Node20&#45;&gt;Node2</title>
<path fill="none" stroke="midnightblue" d="M539.066,-304.291C538.701,-288.478 535.618,-254.935 517,-236 495.356,-213.988 463.311,-202.671 434.568,-196.882"/>
<polygon fill="midnightblue" stroke="midnightblue" points="435.027,-193.408 424.561,-195.057 433.771,-200.295 435.027,-193.408"/>
</g>
<!-- Node20&#45;&gt;Node15 -->
<g id="edge32" class="edge"><title>Node20&#45;&gt;Node15</title>
<path fill="none" stroke="midnightblue" d="M551.465,-304.403C565.419,-294.78 588.265,-279.024 604.991,-267.489"/>
<polygon fill="midnightblue" stroke="midnightblue" points="607.313,-270.139 613.558,-261.581 603.339,-264.377 607.313,-270.139"/>
</g>
<!-- Node21&#45;&gt;Node2 -->
<g id="edge35" class="edge"><title>Node21&#45;&gt;Node2</title>
<path fill="none" stroke="midnightblue" d="M416.752,-304.201C408.335,-295.694 396.162,-282.059 389,-268 379.516,-249.382 374.257,-225.879 371.541,-209.766"/>
<polygon fill="midnightblue" stroke="midnightblue" points="374.947,-208.878 369.989,-199.515 368.025,-209.926 374.947,-208.878"/>
</g>
<!-- Node21&#45;&gt;Node15 -->
<g id="edge36" class="edge"><title>Node21&#45;&gt;Node15</title>
<path fill="none" stroke="midnightblue" d="M454.655,-304.403C489.556,-293.933 548.65,-276.205 587.5,-264.55"/>
<polygon fill="midnightblue" stroke="midnightblue" points="588.826,-267.807 597.398,-261.581 586.814,-261.102 588.826,-267.807"/>
</g>
<!-- Node21&#45;&gt;Node18 -->
<g id="edge34" class="edge"><title>Node21&#45;&gt;Node18</title>
<path fill="none" stroke="midnightblue" d="M409.523,-304.403C390.395,-294.423 358.627,-277.849 336.348,-266.225"/>
<polygon fill="midnightblue" stroke="midnightblue" points="337.931,-263.103 327.446,-261.581 334.693,-269.309 337.931,-263.103"/>
</g>
<!-- Node22 -->
<g id="node22" class="node"><title>Node22</title>
<polygon fill="white" stroke="#bfbfbf" points="397.5,-237 397.5,-267 508.5,-267 508.5,-237 397.5,-237"/>
<text text-anchor="start" x="405.5" y="-255" font-family="Helvetica,sans-Serif" font-size="10.00">boost/math/constants</text>
<text text-anchor="middle" x="453" y="-244" font-family="Helvetica,sans-Serif" font-size="10.00">/constants.hpp</text>
</g>
<!-- Node21&#45;&gt;Node22 -->
<g id="edge37" class="edge"><title>Node21&#45;&gt;Node22</title>
<path fill="none" stroke="midnightblue" d="M429.868,-304.403C433.149,-297.113 438.014,-286.303 442.436,-276.475"/>
<polygon fill="midnightblue" stroke="midnightblue" points="445.725,-277.696 446.637,-267.141 439.341,-274.824 445.725,-277.696"/>
</g>
<!-- Node23&#45;&gt;Node20 -->
<g id="edge39" class="edge"><title>Node23&#45;&gt;Node20</title>
<path fill="none" stroke="midnightblue" d="M432.124,-360.444C453.024,-351.557 485.935,-337.563 509.716,-327.451"/>
<polygon fill="midnightblue" stroke="midnightblue" points="511.138,-330.65 518.971,-323.516 508.398,-324.208 511.138,-330.65"/>
</g>
<!-- Node23&#45;&gt;Node21 -->
<g id="edge40" class="edge"><title>Node23&#45;&gt;Node21</title>
<path fill="none" stroke="midnightblue" d="M414.312,-360.083C416.167,-352.927 418.835,-342.635 421.154,-333.691"/>
<polygon fill="midnightblue" stroke="midnightblue" points="424.609,-334.309 423.731,-323.751 417.834,-332.553 424.609,-334.309"/>
</g>
<!-- Node24&#45;&gt;Node20 -->
<g id="edge42" class="edge"><title>Node24&#45;&gt;Node20</title>
<path fill="none" stroke="midnightblue" d="M536.495,-360.083C536.889,-353.006 537.452,-342.861 537.945,-333.986"/>
<polygon fill="midnightblue" stroke="midnightblue" points="541.454,-333.93 538.514,-323.751 534.464,-333.542 541.454,-333.93"/>
</g>
<!-- Node25&#45;&gt;Node15 -->
<g id="edge44" class="edge"><title>Node25&#45;&gt;Node15</title>
<path fill="none" stroke="midnightblue" d="M711.51,-360.223C724.238,-347.381 743.906,-322.94 732,-304 719.803,-284.596 697.929,-272.404 677.206,-264.829"/>
<polygon fill="midnightblue" stroke="midnightblue" points="678.084,-261.432 667.49,-261.567 675.856,-268.068 678.084,-261.432"/>
</g>
<!-- Node26 -->
<g id="node26" class="node"><title>Node26</title>
<polygon fill="white" stroke="#bfbfbf" points="604.5,-304.5 604.5,-323.5 723.5,-323.5 723.5,-304.5 604.5,-304.5"/>
<text text-anchor="middle" x="664" y="-311.5" font-family="Helvetica,sans-Serif" font-size="10.00">boost/thread/mutex.hpp</text>
</g>
<!-- Node25&#45;&gt;Node26 -->
<g id="edge45" class="edge"><title>Node25&#45;&gt;Node26</title>
<path fill="none" stroke="midnightblue" d="M695.725,-360.083C690.358,-352.455 682.482,-341.264 675.921,-331.941"/>
<polygon fill="midnightblue" stroke="midnightblue" points="678.775,-329.915 670.158,-323.751 673.051,-333.943 678.775,-329.915"/>
</g>
</g>
</svg>
