<?xml version="1.0" encoding="UTF-8" standalone="no"?>
<!DOCTYPE svg PUBLIC "-//W3C//DTD SVG 1.1//EN"
 "http://www.w3.org/Graphics/SVG/1.1/DTD/svg11.dtd">
<!-- Generated by graphviz version 2.36.0 (20140111.2315)
 -->
<!-- Title: OBBRSS.h Pages: 1 -->
<svg width="811pt" height="388pt"
 viewBox="0.00 0.00 811.00 388.00" xmlns="http://www.w3.org/2000/svg" xmlns:xlink="http://www.w3.org/1999/xlink">
<g id="graph0" class="graph" transform="scale(1 1) rotate(0) translate(4 384)">
<title>OBBRSS.h</title>
<polygon fill="white" stroke="none" points="-4,4 -4,-384 807,-384 807,4 -4,4"/>
<!-- Node1 -->
<g id="node1" class="node"><title>Node1</title>
<polygon fill="#bfbfbf" stroke="black" points="507.5,-360.5 507.5,-379.5 574.5,-379.5 574.5,-360.5 507.5,-360.5"/>
<text text-anchor="middle" x="541" y="-367.5" font-family="Helvetica,sans-Serif" font-size="10.00">OBBRSS.h</text>
</g>
<!-- Node2 -->
<g id="node2" class="node"><title>Node2</title>
<g id="a_node2"><a xlink:href="a00332.html" target="_top" xlink:title="hpp/fcl/BV/OBB.h">
<polygon fill="white" stroke="black" points="437.5,-304.5 437.5,-323.5 532.5,-323.5 532.5,-304.5 437.5,-304.5"/>
<text text-anchor="middle" x="485" y="-311.5" font-family="Helvetica,sans-Serif" font-size="10.00">hpp/fcl/BV/OBB.h</text>
</a>
</g>
</g>
<!-- Node1&#45;&gt;Node2 -->
<g id="edge1" class="edge"><title>Node1&#45;&gt;Node2</title>
<path fill="none" stroke="midnightblue" d="M532.003,-360.324C523.806,-352.42 511.494,-340.548 501.528,-330.938"/>
<polygon fill="midnightblue" stroke="midnightblue" points="503.789,-328.256 494.161,-323.834 498.93,-333.295 503.789,-328.256"/>
</g>
<!-- Node17 -->
<g id="node17" class="node"><title>Node17</title>
<g id="a_node17"><a xlink:href="a00338.html" target="_top" xlink:title="hpp/fcl/BV/RSS.h">
<polygon fill="white" stroke="black" points="550.5,-304.5 550.5,-323.5 645.5,-323.5 645.5,-304.5 550.5,-304.5"/>
<text text-anchor="middle" x="598" y="-311.5" font-family="Helvetica,sans-Serif" font-size="10.00">hpp/fcl/BV/RSS.h</text>
</a>
</g>
</g>
<!-- Node1&#45;&gt;Node17 -->
<g id="edge24" class="edge"><title>Node1&#45;&gt;Node17</title>
<path fill="none" stroke="midnightblue" d="M550.158,-360.324C558.501,-352.42 571.032,-340.548 581.177,-330.938"/>
<polygon fill="midnightblue" stroke="midnightblue" points="583.823,-333.252 588.675,-323.834 579.009,-328.171 583.823,-333.252"/>
</g>
<!-- Node3 -->
<g id="node3" class="node"><title>Node3</title>
<g id="a_node3"><a xlink:href="a00356.html" target="_top" xlink:title="hpp/fcl/math/vec_3f.h">
<polygon fill="white" stroke="black" points="441.5,-180.5 441.5,-199.5 552.5,-199.5 552.5,-180.5 441.5,-180.5"/>
<text text-anchor="middle" x="497" y="-187.5" font-family="Helvetica,sans-Serif" font-size="10.00">hpp/fcl/math/vec_3f.h</text>
</a>
</g>
</g>
<!-- Node2&#45;&gt;Node3 -->
<g id="edge2" class="edge"><title>Node2&#45;&gt;Node3</title>
<path fill="none" stroke="midnightblue" d="M466.611,-304.471C452.899,-296.997 435.185,-284.71 427,-268 420.744,-255.228 420.185,-248.483 427,-236 434.819,-221.679 449.362,-211.236 463.176,-204.036"/>
<polygon fill="midnightblue" stroke="midnightblue" points="465.019,-207.034 472.531,-199.562 461.999,-200.719 465.019,-207.034"/>
</g>
<!-- Node16 -->
<g id="node16" class="node"><title>Node16</title>
<g id="a_node16"><a xlink:href="a00319.html" target="_top" xlink:title="hpp/fcl/math/matrix_3f.h">
<polygon fill="white" stroke="black" points="436,-242.5 436,-261.5 558,-261.5 558,-242.5 436,-242.5"/>
<text text-anchor="middle" x="497" y="-249.5" font-family="Helvetica,sans-Serif" font-size="10.00">hpp/fcl/math/matrix_3f.h</text>
</a>
</g>
</g>
<!-- Node2&#45;&gt;Node16 -->
<g id="edge22" class="edge"><title>Node2&#45;&gt;Node16</title>
<path fill="none" stroke="midnightblue" d="M486.719,-304.403C488.43,-295.849 491.11,-282.45 493.305,-271.476"/>
<polygon fill="midnightblue" stroke="midnightblue" points="496.755,-272.073 495.284,-261.581 489.891,-270.7 496.755,-272.073"/>
</g>
<!-- Node4 -->
<g id="node4" class="node"><title>Node4</title>
<polygon fill="white" stroke="#bfbfbf" points="-1,-56.5 -1,-75.5 101,-75.5 101,-56.5 -1,-56.5"/>
<text text-anchor="middle" x="50" y="-63.5" font-family="Helvetica,sans-Serif" font-size="10.00">hpp/fcl/config&#45;fcl.hh</text>
</g>
<!-- Node3&#45;&gt;Node4 -->
<g id="edge3" class="edge"><title>Node3&#45;&gt;Node4</title>
<path fill="none" stroke="midnightblue" d="M441.452,-182.242C390.113,-175.245 312.026,-162.691 246,-144 184.162,-126.495 114.829,-96.7224 77.4539,-79.7846"/>
<polygon fill="midnightblue" stroke="midnightblue" points="78.778,-76.5416 68.2279,-75.5692 75.8689,-82.9085 78.778,-76.5416"/>
</g>
<!-- Node5 -->
<g id="node5" class="node"><title>Node5</title>
<g id="a_node5"><a xlink:href="a00283.html" target="_top" xlink:title="hpp/fcl/data_types.h">
<polygon fill="white" stroke="black" points="119.5,-56.5 119.5,-75.5 224.5,-75.5 224.5,-56.5 119.5,-56.5"/>
<text text-anchor="middle" x="172" y="-63.5" font-family="Helvetica,sans-Serif" font-size="10.00">hpp/fcl/data_types.h</text>
</a>
</g>
</g>
<!-- Node3&#45;&gt;Node5 -->
<g id="edge4" class="edge"><title>Node3&#45;&gt;Node5</title>
<path fill="none" stroke="midnightblue" d="M447.799,-180.454C410.351,-173.107 357.942,-160.993 314,-144 269.31,-126.718 221.022,-98.2063 193.845,-81.1521"/>
<polygon fill="midnightblue" stroke="midnightblue" points="195.471,-78.039 185.153,-75.6349 191.72,-83.9489 195.471,-78.039"/>
</g>
<!-- Node8 -->
<g id="node8" class="node"><title>Node8</title>
<g id="a_node8"><a xlink:href="a00316.html" target="_top" xlink:title="hpp/fcl/eigen/math\l_details.h">
<polygon fill="white" stroke="black" points="322.5,-113 322.5,-143 419.5,-143 419.5,-113 322.5,-113"/>
<text text-anchor="start" x="330.5" y="-131" font-family="Helvetica,sans-Serif" font-size="10.00">hpp/fcl/eigen/math</text>
<text text-anchor="middle" x="371" y="-120" font-family="Helvetica,sans-Serif" font-size="10.00">_details.h</text>
</a>
</g>
</g>
<!-- Node3&#45;&gt;Node8 -->
<g id="edge7" class="edge"><title>Node3&#45;&gt;Node8</title>
<path fill="none" stroke="midnightblue" d="M478.947,-180.403C461.005,-171.86 432.914,-158.483 409.886,-147.517"/>
<polygon fill="midnightblue" stroke="midnightblue" points="411.229,-144.28 400.696,-143.141 408.22,-150.6 411.229,-144.28"/>
</g>
<!-- Node11 -->
<g id="node11" class="node"><title>Node11</title>
<g id="a_node11"><a xlink:href="a00357.html" target="_top" xlink:title="hpp/fcl/eigen/vec_3fx.h">
<polygon fill="white" stroke="black" points="438,-118.5 438,-137.5 556,-137.5 556,-118.5 438,-118.5"/>
<text text-anchor="middle" x="497" y="-125.5" font-family="Helvetica,sans-Serif" font-size="10.00">hpp/fcl/eigen/vec_3fx.h</text>
</a>
</g>
</g>
<!-- Node3&#45;&gt;Node11 -->
<g id="edge10" class="edge"><title>Node3&#45;&gt;Node11</title>
<path fill="none" stroke="midnightblue" d="M497,-180.403C497,-171.938 497,-158.728 497,-147.82"/>
<polygon fill="midnightblue" stroke="midnightblue" points="500.5,-147.581 497,-137.581 493.5,-147.581 500.5,-147.581"/>
</g>
<!-- Node12 -->
<g id="node12" class="node"><title>Node12</title>
<polygon fill="white" stroke="#bfbfbf" points="573,-56.5 573,-75.5 617,-75.5 617,-56.5 573,-56.5"/>
<text text-anchor="middle" x="595" y="-63.5" font-family="Helvetica,sans-Serif" font-size="10.00">cmath</text>
</g>
<!-- Node3&#45;&gt;Node12 -->
<g id="edge19" class="edge"><title>Node3&#45;&gt;Node12</title>
<path fill="none" stroke="midnightblue" d="M516.072,-180.437C531.172,-172.799 551.844,-160.306 565,-144 578.76,-126.944 586.78,-102.828 591.011,-86.1493"/>
<polygon fill="midnightblue" stroke="midnightblue" points="594.522,-86.4998 593.359,-75.969 587.701,-84.9267 594.522,-86.4998"/>
</g>
<!-- Node13 -->
<g id="node13" class="node"><title>Node13</title>
<polygon fill="white" stroke="#bfbfbf" points="635,-56.5 635,-75.5 689,-75.5 689,-56.5 635,-56.5"/>
<text text-anchor="middle" x="662" y="-63.5" font-family="Helvetica,sans-Serif" font-size="10.00">iostream</text>
</g>
<!-- Node3&#45;&gt;Node13 -->
<g id="edge20" class="edge"><title>Node3&#45;&gt;Node13</title>
<path fill="none" stroke="midnightblue" d="M519.533,-180.437C538.728,-172.558 566.531,-159.728 588,-144 612.2,-126.272 635.369,-100.195 649.144,-83.4046"/>
<polygon fill="midnightblue" stroke="midnightblue" points="651.91,-85.5507 655.447,-75.5638 646.454,-81.165 651.91,-85.5507"/>
</g>
<!-- Node14 -->
<g id="node14" class="node"><title>Node14</title>
<polygon fill="white" stroke="#bfbfbf" points="707,-56.5 707,-75.5 747,-75.5 747,-56.5 707,-56.5"/>
<text text-anchor="middle" x="727" y="-63.5" font-family="Helvetica,sans-Serif" font-size="10.00">limits</text>
</g>
<!-- Node3&#45;&gt;Node14 -->
<g id="edge21" class="edge"><title>Node3&#45;&gt;Node14</title>
<path fill="none" stroke="midnightblue" d="M527.299,-180.457C552.813,-172.674 589.862,-159.969 620,-144 653.621,-126.186 688.7,-99.0352 709.164,-82.1876"/>
<polygon fill="midnightblue" stroke="midnightblue" points="711.557,-84.7494 716.993,-75.6553 707.072,-79.3747 711.557,-84.7494"/>
</g>
<!-- Node6 -->
<g id="node6" class="node"><title>Node6</title>
<polygon fill="white" stroke="#bfbfbf" points="103.5,-0.5 103.5,-19.5 152.5,-19.5 152.5,-0.5 103.5,-0.5"/>
<text text-anchor="middle" x="128" y="-7.5" font-family="Helvetica,sans-Serif" font-size="10.00">cstddef</text>
</g>
<!-- Node5&#45;&gt;Node6 -->
<g id="edge5" class="edge"><title>Node5&#45;&gt;Node6</title>
<path fill="none" stroke="midnightblue" d="M164.734,-56.083C158.455,-48.3768 149.212,-37.0333 141.569,-27.6531"/>
<polygon fill="midnightblue" stroke="midnightblue" points="144.161,-25.2926 135.131,-19.7511 138.734,-29.7143 144.161,-25.2926"/>
</g>
<!-- Node7 -->
<g id="node7" class="node"><title>Node7</title>
<polygon fill="white" stroke="#bfbfbf" points="171,-0.5 171,-19.5 263,-19.5 263,-0.5 171,-0.5"/>
<text text-anchor="middle" x="217" y="-7.5" font-family="Helvetica,sans-Serif" font-size="10.00">boost/cstdint.hpp</text>
</g>
<!-- Node5&#45;&gt;Node7 -->
<g id="edge6" class="edge"><title>Node5&#45;&gt;Node7</title>
<path fill="none" stroke="midnightblue" d="M179.431,-56.083C185.853,-48.3768 195.306,-37.0333 203.122,-27.6531"/>
<polygon fill="midnightblue" stroke="midnightblue" points="205.994,-29.674 209.707,-19.7511 200.617,-25.1927 205.994,-29.674"/>
</g>
<!-- Node9 -->
<g id="node9" class="node"><title>Node9</title>
<polygon fill="white" stroke="#bfbfbf" points="242.5,-56.5 242.5,-75.5 315.5,-75.5 315.5,-56.5 242.5,-56.5"/>
<text text-anchor="middle" x="279" y="-63.5" font-family="Helvetica,sans-Serif" font-size="10.00">Eigen/Dense</text>
</g>
<!-- Node8&#45;&gt;Node9 -->
<g id="edge8" class="edge"><title>Node8&#45;&gt;Node9</title>
<path fill="none" stroke="midnightblue" d="M349.197,-112.781C334.5,-103.196 315.196,-90.6062 300.552,-81.0555"/>
<polygon fill="midnightblue" stroke="midnightblue" points="302.407,-78.0868 292.119,-75.5557 298.583,-83.9501 302.407,-78.0868"/>
</g>
<!-- Node10 -->
<g id="node10" class="node"><title>Node10</title>
<polygon fill="white" stroke="#bfbfbf" points="333.5,-56.5 333.5,-75.5 420.5,-75.5 420.5,-56.5 333.5,-56.5"/>
<text text-anchor="middle" x="377" y="-63.5" font-family="Helvetica,sans-Serif" font-size="10.00">Eigen/Geometry</text>
</g>
<!-- Node8&#45;&gt;Node10 -->
<g id="edge9" class="edge"><title>Node8&#45;&gt;Node10</title>
<path fill="none" stroke="midnightblue" d="M372.422,-112.781C373.231,-104.691 374.254,-94.4617 375.127,-85.725"/>
<polygon fill="midnightblue" stroke="midnightblue" points="378.614,-86.0292 376.127,-75.7305 371.649,-85.3326 378.614,-86.0292"/>
</g>
<!-- Node11&#45;&gt;Node4 -->
<g id="edge11" class="edge"><title>Node11&#45;&gt;Node4</title>
<path fill="none" stroke="midnightblue" d="M460.964,-118.444C450.385,-116.129 438.765,-113.775 428,-112 290.811,-89.3824 252.719,-94.3117 110.982,-76.0792"/>
<polygon fill="midnightblue" stroke="midnightblue" points="111.414,-72.6059 101.045,-74.7851 110.51,-79.5473 111.414,-72.6059"/>
</g>
<!-- Node11&#45;&gt;Node5 -->
<g id="edge12" class="edge"><title>Node11&#45;&gt;Node5</title>
<path fill="none" stroke="midnightblue" d="M459.095,-118.474C449.007,-116.283 438.104,-113.986 428,-112 361.997,-99.03 286.062,-85.9072 234.14,-77.207"/>
<polygon fill="midnightblue" stroke="midnightblue" points="234.526,-73.723 224.086,-75.5273 233.372,-80.6273 234.526,-73.723"/>
</g>
<!-- Node11&#45;&gt;Node9 -->
<g id="edge13" class="edge"><title>Node11&#45;&gt;Node9</title>
<path fill="none" stroke="midnightblue" d="M465.766,-118.403C427.4,-107.844 362.213,-89.9027 319.889,-78.2538"/>
<polygon fill="midnightblue" stroke="midnightblue" points="320.746,-74.8598 310.176,-75.5806 318.889,-81.6088 320.746,-74.8598"/>
</g>
<!-- Node11&#45;&gt;Node10 -->
<g id="edge14" class="edge"><title>Node11&#45;&gt;Node10</title>
<path fill="none" stroke="midnightblue" d="M479.807,-118.403C459.757,-108.379 426.401,-91.7006 403.14,-80.0699"/>
<polygon fill="midnightblue" stroke="midnightblue" points="404.671,-76.9223 394.161,-75.5806 401.54,-83.1833 404.671,-76.9223"/>
</g>
<!-- Node11&#45;&gt;Node12 -->
<g id="edge15" class="edge"><title>Node11&#45;&gt;Node12</title>
<path fill="none" stroke="midnightblue" d="M511.041,-118.403C527.051,-108.601 553.45,-92.4385 572.374,-80.8526"/>
<polygon fill="midnightblue" stroke="midnightblue" points="574.284,-83.7872 580.985,-75.5806 570.629,-77.8172 574.284,-83.7872"/>
</g>
<!-- Node11&#45;&gt;Node13 -->
<g id="edge16" class="edge"><title>Node11&#45;&gt;Node13</title>
<path fill="none" stroke="midnightblue" d="M520.64,-118.403C549.066,-108.067 596.945,-90.6564 629.002,-78.9994"/>
<polygon fill="midnightblue" stroke="midnightblue" points="630.202,-82.2874 638.403,-75.5806 627.809,-75.7088 630.202,-82.2874"/>
</g>
<!-- Node11&#45;&gt;Node14 -->
<g id="edge17" class="edge"><title>Node11&#45;&gt;Node14</title>
<path fill="none" stroke="midnightblue" d="M533.097,-118.445C571.476,-109.216 634.152,-93.7652 697.07,-76.1582"/>
<polygon fill="midnightblue" stroke="midnightblue" points="698.082,-79.5096 706.759,-73.4301 696.184,-72.7716 698.082,-79.5096"/>
</g>
<!-- Node15 -->
<g id="node15" class="node"><title>Node15</title>
<g id="a_node15"><a xlink:href="a00336.html" target="_top" xlink:title="hpp/fcl/eigen/product.h">
<polygon fill="white" stroke="black" points="439,-56.5 439,-75.5 555,-75.5 555,-56.5 439,-56.5"/>
<text text-anchor="middle" x="497" y="-63.5" font-family="Helvetica,sans-Serif" font-size="10.00">hpp/fcl/eigen/product.h</text>
</a>
</g>
</g>
<!-- Node11&#45;&gt;Node15 -->
<g id="edge18" class="edge"><title>Node11&#45;&gt;Node15</title>
<path fill="none" stroke="midnightblue" d="M497,-118.403C497,-109.938 497,-96.7283 497,-85.8199"/>
<polygon fill="midnightblue" stroke="midnightblue" points="500.5,-85.5806 497,-75.5806 493.5,-85.5806 500.5,-85.5806"/>
</g>
<!-- Node16&#45;&gt;Node3 -->
<g id="edge23" class="edge"><title>Node16&#45;&gt;Node3</title>
<path fill="none" stroke="midnightblue" d="M497,-242.403C497,-233.938 497,-220.728 497,-209.82"/>
<polygon fill="midnightblue" stroke="midnightblue" points="500.5,-209.581 497,-199.581 493.5,-209.581 500.5,-209.581"/>
</g>
<!-- Node17&#45;&gt;Node3 -->
<g id="edge26" class="edge"><title>Node17&#45;&gt;Node3</title>
<path fill="none" stroke="midnightblue" d="M596.361,-304.492C593.075,-289.293 584.452,-257.098 567,-236 556.002,-222.704 540.029,-212.019 526.117,-204.403"/>
<polygon fill="midnightblue" stroke="midnightblue" points="527.391,-201.121 516.902,-199.627 524.17,-207.336 527.391,-201.121"/>
</g>
<!-- Node17&#45;&gt;Node16 -->
<g id="edge27" class="edge"><title>Node17&#45;&gt;Node16</title>
<path fill="none" stroke="midnightblue" d="M583.529,-304.403C566.954,-294.557 539.574,-278.291 520.053,-266.695"/>
<polygon fill="midnightblue" stroke="midnightblue" points="521.829,-263.679 511.444,-261.581 518.254,-269.697 521.829,-263.679"/>
</g>
<!-- Node18 -->
<g id="node18" class="node"><title>Node18</title>
<polygon fill="white" stroke="#bfbfbf" points="743.5,-242.5 743.5,-261.5 802.5,-261.5 802.5,-242.5 743.5,-242.5"/>
<text text-anchor="middle" x="773" y="-249.5" font-family="Helvetica,sans-Serif" font-size="10.00">stdexcept</text>
</g>
<!-- Node17&#45;&gt;Node18 -->
<g id="edge25" class="edge"><title>Node17&#45;&gt;Node18</title>
<path fill="none" stroke="midnightblue" d="M624.966,-304.495C652.499,-295.714 696.414,-281.438 734,-268 736.538,-267.093 739.161,-266.133 741.791,-265.154"/>
<polygon fill="midnightblue" stroke="midnightblue" points="743.089,-268.405 751.204,-261.593 740.612,-261.858 743.089,-268.405"/>
</g>
<!-- Node19 -->
<g id="node19" class="node"><title>Node19</title>
<polygon fill="white" stroke="#bfbfbf" points="614.5,-237 614.5,-267 725.5,-267 725.5,-237 614.5,-237"/>
<text text-anchor="start" x="622.5" y="-255" font-family="Helvetica,sans-Serif" font-size="10.00">boost/math/constants</text>
<text text-anchor="middle" x="670" y="-244" font-family="Helvetica,sans-Serif" font-size="10.00">/constants.hpp</text>
</g>
<!-- Node17&#45;&gt;Node19 -->
<g id="edge28" class="edge"><title>Node17&#45;&gt;Node19</title>
<path fill="none" stroke="midnightblue" d="M608.316,-304.403C617.885,-296.429 632.506,-284.245 645.112,-273.74"/>
<polygon fill="midnightblue" stroke="midnightblue" points="647.589,-276.231 653.031,-267.141 643.108,-270.854 647.589,-276.231"/>
</g>
</g>
</svg>
