<?xml version="1.0" encoding="UTF-8" standalone="no"?>
<!DOCTYPE svg PUBLIC "-//W3C//DTD SVG 1.1//EN"
 "http://www.w3.org/Graphics/SVG/1.1/DTD/svg11.dtd">
<!-- Generated by graphviz version 2.36.0 (20140111.2315)
 -->
<!-- Title: conservative_advancement.h Pages: 1 -->
<svg width="1195pt" height="728pt"
 viewBox="0.00 0.00 1195.00 728.00" xmlns="http://www.w3.org/2000/svg" xmlns:xlink="http://www.w3.org/1999/xlink">
<g id="graph0" class="graph" transform="scale(1 1) rotate(0) translate(4 724)">
<title>conservative_advancement.h</title>
<polygon fill="white" stroke="none" points="-4,4 -4,-724 1191,-724 1191,4 -4,4"/>
<!-- Node1 -->
<g id="node1" class="node"><title>Node1</title>
<polygon fill="#bfbfbf" stroke="black" points="308,-700.5 308,-719.5 452,-719.5 452,-700.5 308,-700.5"/>
<text text-anchor="middle" x="380" y="-707.5" font-family="Helvetica,sans-Serif" font-size="10.00">conservative_advancement.h</text>
</g>
<!-- Node2 -->
<g id="node2" class="node"><title>Node2</title>
<g id="a_node2"><a xlink:href="a00280.html" target="_top" xlink:title="hpp/fcl/collision_object.h">
<polygon fill="white" stroke="black" points="228,-582.5 228,-601.5 352,-601.5 352,-582.5 228,-582.5"/>
<text text-anchor="middle" x="290" y="-589.5" font-family="Helvetica,sans-Serif" font-size="10.00">hpp/fcl/collision_object.h</text>
</a>
</g>
</g>
<!-- Node1&#45;&gt;Node2 -->
<g id="edge1" class="edge"><title>Node1&#45;&gt;Node2</title>
<path fill="none" stroke="midnightblue" d="M373.235,-700.281C358.308,-681.041 322.335,-634.677 302.929,-609.664"/>
<polygon fill="midnightblue" stroke="midnightblue" points="305.494,-607.26 296.599,-601.505 299.963,-611.551 305.494,-607.26"/>
</g>
<!-- Node22 -->
<g id="node22" class="node"><title>Node22</title>
<g id="a_node22"><a xlink:href="a00325.html" target="_top" xlink:title="hpp/fcl/ccd/motion\l_base.h">
<polygon fill="white" stroke="black" points="327.5,-509 327.5,-539 424.5,-539 424.5,-509 327.5,-509"/>
<text text-anchor="start" x="335.5" y="-527" font-family="Helvetica,sans-Serif" font-size="10.00">hpp/fcl/ccd/motion</text>
<text text-anchor="middle" x="376" y="-516" font-family="Helvetica,sans-Serif" font-size="10.00">_base.h</text>
</a>
</g>
</g>
<!-- Node1&#45;&gt;Node22 -->
<g id="edge75" class="edge"><title>Node1&#45;&gt;Node22</title>
<path fill="none" stroke="midnightblue" d="M379.807,-700.125C379.217,-672.975 377.421,-590.379 376.523,-549.065"/>
<polygon fill="midnightblue" stroke="midnightblue" points="380.022,-548.969 376.305,-539.047 373.024,-549.121 380.022,-548.969"/>
</g>
<!-- Node34 -->
<g id="node34" class="node"><title>Node34</title>
<g id="a_node34"><a xlink:href="a00277.html" target="_top" xlink:title="hpp/fcl/collision_data.h">
<polygon fill="white" stroke="black" points="840,-644.5 840,-663.5 956,-663.5 956,-644.5 840,-644.5"/>
<text text-anchor="middle" x="898" y="-651.5" font-family="Helvetica,sans-Serif" font-size="10.00">hpp/fcl/collision_data.h</text>
</a>
</g>
</g>
<!-- Node1&#45;&gt;Node34 -->
<g id="edge56" class="edge"><title>Node1&#45;&gt;Node34</title>
<path fill="none" stroke="midnightblue" d="M452.026,-701.492C552.039,-691.065 731.698,-672.337 829.692,-662.121"/>
<polygon fill="midnightblue" stroke="midnightblue" points="830.198,-665.587 839.782,-661.069 829.473,-658.625 830.198,-665.587"/>
</g>
<!-- Node3 -->
<g id="node3" class="node"><title>Node3</title>
<g id="a_node3"><a xlink:href="a00284.html" target="_top" xlink:title="hpp/fcl/deprecated.h">
<polygon fill="white" stroke="black" points="162.5,-514.5 162.5,-533.5 267.5,-533.5 267.5,-514.5 162.5,-514.5"/>
<text text-anchor="middle" x="215" y="-521.5" font-family="Helvetica,sans-Serif" font-size="10.00">hpp/fcl/deprecated.h</text>
</a>
</g>
</g>
<!-- Node2&#45;&gt;Node3 -->
<g id="edge2" class="edge"><title>Node2&#45;&gt;Node3</title>
<path fill="none" stroke="midnightblue" d="M280.195,-582.372C268.134,-571.758 247.438,-553.545 232.597,-540.485"/>
<polygon fill="midnightblue" stroke="midnightblue" points="234.866,-537.82 225.047,-533.841 230.242,-543.075 234.866,-537.82"/>
</g>
<!-- Node4 -->
<g id="node4" class="node"><title>Node4</title>
<g id="a_node4"><a xlink:href="a00257.html" target="_top" xlink:title="hpp/fcl/BV/AABB.h">
<polygon fill="white" stroke="black" points="-0.5,-310.5 -0.5,-329.5 100.5,-329.5 100.5,-310.5 -0.5,-310.5"/>
<text text-anchor="middle" x="50" y="-317.5" font-family="Helvetica,sans-Serif" font-size="10.00">hpp/fcl/BV/AABB.h</text>
</a>
</g>
</g>
<!-- Node2&#45;&gt;Node4 -->
<g id="edge3" class="edge"><title>Node2&#45;&gt;Node4</title>
<path fill="none" stroke="midnightblue" d="M229.813,-582.451C179.313,-574.041 112.537,-559.611 94,-540 40.673,-483.584 43.8406,-381.49 47.7573,-339.649"/>
<polygon fill="midnightblue" stroke="midnightblue" points="51.2558,-339.849 48.8356,-329.534 44.2953,-339.107 51.2558,-339.849"/>
</g>
<!-- Node19 -->
<g id="node19" class="node"><title>Node19</title>
<g id="a_node19"><a xlink:href="a00348.html" target="_top" xlink:title="hpp/fcl/math/transform.h">
<polygon fill="white" stroke="black" points="234.5,-446.5 234.5,-465.5 357.5,-465.5 357.5,-446.5 234.5,-446.5"/>
<text text-anchor="middle" x="296" y="-453.5" font-family="Helvetica,sans-Serif" font-size="10.00">hpp/fcl/math/transform.h</text>
</a>
</g>
</g>
<!-- Node2&#45;&gt;Node19 -->
<g id="edge25" class="edge"><title>Node2&#45;&gt;Node19</title>
<path fill="none" stroke="midnightblue" d="M290.394,-582.208C291.356,-560.722 293.843,-505.167 295.158,-475.814"/>
<polygon fill="midnightblue" stroke="midnightblue" points="298.662,-475.797 295.613,-465.65 291.669,-475.484 298.662,-475.797"/>
</g>
<!-- Node2&#45;&gt;Node22 -->
<g id="edge29" class="edge"><title>Node2&#45;&gt;Node22</title>
<path fill="none" stroke="midnightblue" d="M301.243,-582.372C313.417,-573.029 333.265,-557.797 349.451,-545.375"/>
<polygon fill="midnightblue" stroke="midnightblue" points="351.719,-548.046 357.521,-539.181 347.457,-542.493 351.719,-548.046"/>
</g>
<!-- Node29 -->
<g id="node29" class="node"><title>Node29</title>
<polygon fill="white" stroke="#bfbfbf" points="449,-242.5 449,-261.5 557,-261.5 557,-242.5 449,-242.5"/>
<text text-anchor="middle" x="503" y="-249.5" font-family="Helvetica,sans-Serif" font-size="10.00">boost/shared_ptr.hpp</text>
</g>
<!-- Node2&#45;&gt;Node29 -->
<g id="edge55" class="edge"><title>Node2&#45;&gt;Node29</title>
<path fill="none" stroke="midnightblue" d="M227.677,-583.789C200.015,-577.134 169.943,-564.386 153,-540 128.024,-504.052 75.6898,-464.054 165,-372 259.432,-274.667 359.631,-417.53 468,-336 488.475,-320.596 497.078,-290.911 500.619,-271.535"/>
<polygon fill="midnightblue" stroke="midnightblue" points="504.1,-271.921 502.17,-261.504 497.183,-270.852 504.1,-271.921"/>
</g>
<!-- Node5 -->
<g id="node5" class="node"><title>Node5</title>
<polygon fill="white" stroke="#bfbfbf" points="26.5,-242.5 26.5,-261.5 85.5,-261.5 85.5,-242.5 26.5,-242.5"/>
<text text-anchor="middle" x="56" y="-249.5" font-family="Helvetica,sans-Serif" font-size="10.00">stdexcept</text>
</g>
<!-- Node4&#45;&gt;Node5 -->
<g id="edge4" class="edge"><title>Node4&#45;&gt;Node5</title>
<path fill="none" stroke="midnightblue" d="M50.7844,-310.372C51.6689,-300.643 53.1338,-284.528 54.2863,-271.85"/>
<polygon fill="midnightblue" stroke="midnightblue" points="57.7764,-272.117 55.1963,-261.841 50.8052,-271.483 57.7764,-272.117"/>
</g>
<!-- Node6 -->
<g id="node6" class="node"><title>Node6</title>
<g id="a_node6"><a xlink:href="a00356.html" target="_top" xlink:title="hpp/fcl/math/vec_3f.h">
<polygon fill="white" stroke="black" points="488.5,-180.5 488.5,-199.5 599.5,-199.5 599.5,-180.5 488.5,-180.5"/>
<text text-anchor="middle" x="544" y="-187.5" font-family="Helvetica,sans-Serif" font-size="10.00">hpp/fcl/math/vec_3f.h</text>
</a>
</g>
</g>
<!-- Node4&#45;&gt;Node6 -->
<g id="edge5" class="edge"><title>Node4&#45;&gt;Node6</title>
<path fill="none" stroke="midnightblue" d="M41.068,-310.143C25.4938,-293.653 -3.13736,-257.93 17,-236 47.6056,-202.67 343.521,-193.988 478.036,-191.757"/>
<polygon fill="midnightblue" stroke="midnightblue" points="478.269,-195.254 488.213,-191.595 478.158,-188.255 478.269,-195.254"/>
</g>
<!-- Node7 -->
<g id="node7" class="node"><title>Node7</title>
<polygon fill="white" stroke="#bfbfbf" points="155,-56.5 155,-75.5 257,-75.5 257,-56.5 155,-56.5"/>
<text text-anchor="middle" x="206" y="-63.5" font-family="Helvetica,sans-Serif" font-size="10.00">hpp/fcl/config&#45;fcl.hh</text>
</g>
<!-- Node6&#45;&gt;Node7 -->
<g id="edge6" class="edge"><title>Node6&#45;&gt;Node7</title>
<path fill="none" stroke="midnightblue" d="M496.631,-180.455C458.949,-172.937 405.228,-160.599 360,-144 311.636,-126.25 258.593,-97.5 229.092,-80.6063"/>
<polygon fill="midnightblue" stroke="midnightblue" points="230.786,-77.5426 220.377,-75.5669 227.282,-83.6025 230.786,-77.5426"/>
</g>
<!-- Node8 -->
<g id="node8" class="node"><title>Node8</title>
<g id="a_node8"><a xlink:href="a00283.html" target="_top" xlink:title="hpp/fcl/data_types.h">
<polygon fill="white" stroke="black" points="740.5,-56.5 740.5,-75.5 845.5,-75.5 845.5,-56.5 740.5,-56.5"/>
<text text-anchor="middle" x="793" y="-63.5" font-family="Helvetica,sans-Serif" font-size="10.00">hpp/fcl/data_types.h</text>
</a>
</g>
</g>
<!-- Node6&#45;&gt;Node8 -->
<g id="edge7" class="edge"><title>Node6&#45;&gt;Node8</title>
<path fill="none" stroke="midnightblue" d="M570.785,-180.496C595.487,-172.295 632.923,-158.953 664,-144 703.562,-124.965 746.871,-97.6712 771.894,-81.2095"/>
<polygon fill="midnightblue" stroke="midnightblue" points="773.846,-84.1145 780.245,-75.67 769.977,-78.2811 773.846,-84.1145"/>
</g>
<!-- Node11 -->
<g id="node11" class="node"><title>Node11</title>
<g id="a_node11"><a xlink:href="a00316.html" target="_top" xlink:title="hpp/fcl/eigen/math\l_details.h">
<polygon fill="white" stroke="black" points="368.5,-113 368.5,-143 465.5,-143 465.5,-113 368.5,-113"/>
<text text-anchor="start" x="376.5" y="-131" font-family="Helvetica,sans-Serif" font-size="10.00">hpp/fcl/eigen/math</text>
<text text-anchor="middle" x="417" y="-120" font-family="Helvetica,sans-Serif" font-size="10.00">_details.h</text>
</a>
</g>
</g>
<!-- Node6&#45;&gt;Node11 -->
<g id="edge10" class="edge"><title>Node6&#45;&gt;Node11</title>
<path fill="none" stroke="midnightblue" d="M525.804,-180.403C507.719,-171.86 479.406,-158.483 456.195,-147.517"/>
<polygon fill="midnightblue" stroke="midnightblue" points="457.468,-144.248 446.931,-143.141 454.478,-150.577 457.468,-144.248"/>
</g>
<!-- Node14 -->
<g id="node14" class="node"><title>Node14</title>
<g id="a_node14"><a xlink:href="a00357.html" target="_top" xlink:title="hpp/fcl/eigen/vec_3fx.h">
<polygon fill="white" stroke="black" points="485,-118.5 485,-137.5 603,-137.5 603,-118.5 485,-118.5"/>
<text text-anchor="middle" x="544" y="-125.5" font-family="Helvetica,sans-Serif" font-size="10.00">hpp/fcl/eigen/vec_3fx.h</text>
</a>
</g>
</g>
<!-- Node6&#45;&gt;Node14 -->
<g id="edge13" class="edge"><title>Node6&#45;&gt;Node14</title>
<path fill="none" stroke="midnightblue" d="M544,-180.403C544,-171.938 544,-158.728 544,-147.82"/>
<polygon fill="midnightblue" stroke="midnightblue" points="547.5,-147.581 544,-137.581 540.5,-147.581 547.5,-147.581"/>
</g>
<!-- Node15 -->
<g id="node15" class="node"><title>Node15</title>
<polygon fill="white" stroke="#bfbfbf" points="678,-56.5 678,-75.5 722,-75.5 722,-56.5 678,-56.5"/>
<text text-anchor="middle" x="700" y="-63.5" font-family="Helvetica,sans-Serif" font-size="10.00">cmath</text>
</g>
<!-- Node6&#45;&gt;Node15 -->
<g id="edge22" class="edge"><title>Node6&#45;&gt;Node15</title>
<path fill="none" stroke="midnightblue" d="M567.273,-180.383C586.361,-172.635 613.484,-160.019 634,-144 656.248,-126.629 676.514,-100.819 688.555,-83.9506"/>
<polygon fill="midnightblue" stroke="midnightblue" points="691.52,-85.8172 694.359,-75.6098 685.774,-81.819 691.52,-85.8172"/>
</g>
<!-- Node16 -->
<g id="node16" class="node"><title>Node16</title>
<polygon fill="white" stroke="#bfbfbf" points="606,-56.5 606,-75.5 660,-75.5 660,-56.5 606,-56.5"/>
<text text-anchor="middle" x="633" y="-63.5" font-family="Helvetica,sans-Serif" font-size="10.00">iostream</text>
</g>
<!-- Node6&#45;&gt;Node16 -->
<g id="edge23" class="edge"><title>Node6&#45;&gt;Node16</title>
<path fill="none" stroke="midnightblue" d="M564.166,-180.491C579.472,-173.028 599.886,-160.747 612,-144 624.405,-126.851 629.483,-102.753 631.561,-86.1038"/>
<polygon fill="midnightblue" stroke="midnightblue" points="635.064,-86.2426 632.574,-75.9447 628.099,-85.5482 635.064,-86.2426"/>
</g>
<!-- Node17 -->
<g id="node17" class="node"><title>Node17</title>
<polygon fill="white" stroke="#bfbfbf" points="864,-56.5 864,-75.5 904,-75.5 904,-56.5 864,-56.5"/>
<text text-anchor="middle" x="884" y="-63.5" font-family="Helvetica,sans-Serif" font-size="10.00">limits</text>
</g>
<!-- Node6&#45;&gt;Node17 -->
<g id="edge24" class="edge"><title>Node6&#45;&gt;Node17</title>
<path fill="none" stroke="midnightblue" d="M580.709,-180.439C614.048,-172.294 664.376,-159.071 707,-144 761.348,-124.784 822.577,-96.6256 856.9,-80.2188"/>
<polygon fill="midnightblue" stroke="midnightblue" points="858.75,-83.2125 866.245,-75.7236 855.716,-76.9043 858.75,-83.2125"/>
</g>
<!-- Node9 -->
<g id="node9" class="node"><title>Node9</title>
<polygon fill="white" stroke="#bfbfbf" points="724.5,-0.5 724.5,-19.5 773.5,-19.5 773.5,-0.5 724.5,-0.5"/>
<text text-anchor="middle" x="749" y="-7.5" font-family="Helvetica,sans-Serif" font-size="10.00">cstddef</text>
</g>
<!-- Node8&#45;&gt;Node9 -->
<g id="edge8" class="edge"><title>Node8&#45;&gt;Node9</title>
<path fill="none" stroke="midnightblue" d="M785.734,-56.083C779.455,-48.3768 770.212,-37.0333 762.569,-27.6531"/>
<polygon fill="midnightblue" stroke="midnightblue" points="765.161,-25.2926 756.131,-19.7511 759.734,-29.7143 765.161,-25.2926"/>
</g>
<!-- Node10 -->
<g id="node10" class="node"><title>Node10</title>
<polygon fill="white" stroke="#bfbfbf" points="792,-0.5 792,-19.5 884,-19.5 884,-0.5 792,-0.5"/>
<text text-anchor="middle" x="838" y="-7.5" font-family="Helvetica,sans-Serif" font-size="10.00">boost/cstdint.hpp</text>
</g>
<!-- Node8&#45;&gt;Node10 -->
<g id="edge9" class="edge"><title>Node8&#45;&gt;Node10</title>
<path fill="none" stroke="midnightblue" d="M800.431,-56.083C806.853,-48.3768 816.306,-37.0333 824.122,-27.6531"/>
<polygon fill="midnightblue" stroke="midnightblue" points="826.994,-29.674 830.707,-19.7511 821.617,-25.1927 826.994,-29.674"/>
</g>
<!-- Node12 -->
<g id="node12" class="node"><title>Node12</title>
<polygon fill="white" stroke="#bfbfbf" points="380.5,-56.5 380.5,-75.5 453.5,-75.5 453.5,-56.5 380.5,-56.5"/>
<text text-anchor="middle" x="417" y="-63.5" font-family="Helvetica,sans-Serif" font-size="10.00">Eigen/Dense</text>
</g>
<!-- Node11&#45;&gt;Node12 -->
<g id="edge11" class="edge"><title>Node11&#45;&gt;Node12</title>
<path fill="none" stroke="midnightblue" d="M417,-112.781C417,-104.781 417,-94.6887 417,-86.0168"/>
<polygon fill="midnightblue" stroke="midnightblue" points="420.5,-85.7305 417,-75.7305 413.5,-85.7306 420.5,-85.7305"/>
</g>
<!-- Node13 -->
<g id="node13" class="node"><title>Node13</title>
<polygon fill="white" stroke="#bfbfbf" points="275.5,-56.5 275.5,-75.5 362.5,-75.5 362.5,-56.5 275.5,-56.5"/>
<text text-anchor="middle" x="319" y="-63.5" font-family="Helvetica,sans-Serif" font-size="10.00">Eigen/Geometry</text>
</g>
<!-- Node11&#45;&gt;Node13 -->
<g id="edge12" class="edge"><title>Node11&#45;&gt;Node13</title>
<path fill="none" stroke="midnightblue" d="M393.775,-112.781C377.972,-103.105 357.168,-90.3684 341.517,-80.7861"/>
<polygon fill="midnightblue" stroke="midnightblue" points="343.33,-77.7923 332.974,-75.5557 339.675,-83.7623 343.33,-77.7923"/>
</g>
<!-- Node14&#45;&gt;Node7 -->
<g id="edge14" class="edge"><title>Node14&#45;&gt;Node7</title>
<path fill="none" stroke="midnightblue" d="M505.551,-118.438C495.316,-116.247 484.255,-113.959 474,-112 403.255,-98.4877 321.581,-85.0885 267.17,-76.4726"/>
<polygon fill="midnightblue" stroke="midnightblue" points="267.423,-72.9694 257,-74.8676 266.332,-79.8838 267.423,-72.9694"/>
</g>
<!-- Node14&#45;&gt;Node8 -->
<g id="edge15" class="edge"><title>Node14&#45;&gt;Node8</title>
<path fill="none" stroke="midnightblue" d="M579.411,-118.467C623.66,-107.805 699.438,-89.5452 747.823,-77.886"/>
<polygon fill="midnightblue" stroke="midnightblue" points="748.809,-81.2487 757.711,-75.5034 747.169,-74.4434 748.809,-81.2487"/>
</g>
<!-- Node14&#45;&gt;Node12 -->
<g id="edge16" class="edge"><title>Node14&#45;&gt;Node12</title>
<path fill="none" stroke="midnightblue" d="M525.804,-118.403C504.491,-108.334 468.969,-91.5522 444.337,-79.9151"/>
<polygon fill="midnightblue" stroke="midnightblue" points="445.699,-76.6877 435.162,-75.5806 442.709,-83.0169 445.699,-76.6877"/>
</g>
<!-- Node14&#45;&gt;Node13 -->
<g id="edge17" class="edge"><title>Node14&#45;&gt;Node13</title>
<path fill="none" stroke="midnightblue" d="M511.763,-118.403C472.081,-107.822 404.601,-89.8269 360.926,-78.1802"/>
<polygon fill="midnightblue" stroke="midnightblue" points="361.741,-74.7755 351.177,-75.5806 359.938,-81.5391 361.741,-74.7755"/>
</g>
<!-- Node14&#45;&gt;Node15 -->
<g id="edge18" class="edge"><title>Node14&#45;&gt;Node15</title>
<path fill="none" stroke="midnightblue" d="M566.351,-118.403C592.995,-108.156 637.714,-90.9561 668.014,-79.3021"/>
<polygon fill="midnightblue" stroke="midnightblue" points="669.613,-82.4372 677.69,-75.5806 667.101,-75.9037 669.613,-82.4372"/>
</g>
<!-- Node14&#45;&gt;Node16 -->
<g id="edge19" class="edge"><title>Node14&#45;&gt;Node16</title>
<path fill="none" stroke="midnightblue" d="M556.752,-118.403C571.027,-108.78 594.397,-93.0242 611.508,-81.4891"/>
<polygon fill="midnightblue" stroke="midnightblue" points="613.937,-84.0727 620.272,-75.5806 610.024,-78.2684 613.937,-84.0727"/>
</g>
<!-- Node14&#45;&gt;Node17 -->
<g id="edge20" class="edge"><title>Node14&#45;&gt;Node17</title>
<path fill="none" stroke="midnightblue" d="M603.005,-119.59C665.701,-111.183 767.514,-96 854,-76 854.099,-75.977 854.199,-75.9539 854.298,-75.9307"/>
<polygon fill="midnightblue" stroke="midnightblue" points="854.972,-79.3722 863.761,-73.4559 853.201,-72.6 854.972,-79.3722"/>
</g>
<!-- Node18 -->
<g id="node18" class="node"><title>Node18</title>
<g id="a_node18"><a xlink:href="a00336.html" target="_top" xlink:title="hpp/fcl/eigen/product.h">
<polygon fill="white" stroke="black" points="472,-56.5 472,-75.5 588,-75.5 588,-56.5 472,-56.5"/>
<text text-anchor="middle" x="530" y="-63.5" font-family="Helvetica,sans-Serif" font-size="10.00">hpp/fcl/eigen/product.h</text>
</a>
</g>
</g>
<!-- Node14&#45;&gt;Node18 -->
<g id="edge21" class="edge"><title>Node14&#45;&gt;Node18</title>
<path fill="none" stroke="midnightblue" d="M541.994,-118.403C539.998,-109.849 536.872,-96.4497 534.311,-85.4762"/>
<polygon fill="midnightblue" stroke="midnightblue" points="537.683,-84.5237 532.002,-75.5806 530.866,-86.1143 537.683,-84.5237"/>
</g>
<!-- Node20 -->
<g id="node20" class="node"><title>Node20</title>
<g id="a_node20"><a xlink:href="a00319.html" target="_top" xlink:title="hpp/fcl/math/matrix_3f.h">
<polygon fill="white" stroke="black" points="271,-242.5 271,-261.5 393,-261.5 393,-242.5 271,-242.5"/>
<text text-anchor="middle" x="332" y="-249.5" font-family="Helvetica,sans-Serif" font-size="10.00">hpp/fcl/math/matrix_3f.h</text>
</a>
</g>
</g>
<!-- Node19&#45;&gt;Node20 -->
<g id="edge26" class="edge"><title>Node19&#45;&gt;Node20</title>
<path fill="none" stroke="midnightblue" d="M297.113,-446.381C300.721,-418.621 312.194,-331.745 318,-304 320.296,-293.03 323.585,-280.927 326.398,-271.265"/>
<polygon fill="midnightblue" stroke="midnightblue" points="329.782,-272.167 329.294,-261.584 323.075,-270.161 329.782,-272.167"/>
</g>
<!-- Node21 -->
<g id="node21" class="node"><title>Node21</title>
<polygon fill="white" stroke="#bfbfbf" points="174.5,-378.5 174.5,-397.5 293.5,-397.5 293.5,-378.5 174.5,-378.5"/>
<text text-anchor="middle" x="234" y="-385.5" font-family="Helvetica,sans-Serif" font-size="10.00">boost/thread/mutex.hpp</text>
</g>
<!-- Node19&#45;&gt;Node21 -->
<g id="edge28" class="edge"><title>Node19&#45;&gt;Node21</title>
<path fill="none" stroke="midnightblue" d="M287.895,-446.372C278.109,-435.955 261.447,-418.217 249.233,-405.216"/>
<polygon fill="midnightblue" stroke="midnightblue" points="251.703,-402.733 242.305,-397.841 246.601,-407.526 251.703,-402.733"/>
</g>
<!-- Node20&#45;&gt;Node6 -->
<g id="edge27" class="edge"><title>Node20&#45;&gt;Node6</title>
<path fill="none" stroke="midnightblue" d="M362.374,-242.403C399.606,-231.866 462.81,-213.978 503.976,-202.328"/>
<polygon fill="midnightblue" stroke="midnightblue" points="505.013,-205.672 513.682,-199.581 503.107,-198.936 505.013,-205.672"/>
</g>
<!-- Node22&#45;&gt;Node19 -->
<g id="edge30" class="edge"><title>Node22&#45;&gt;Node19</title>
<path fill="none" stroke="midnightblue" d="M358.641,-508.679C345.673,-497.981 327.972,-483.377 314.694,-472.422"/>
<polygon fill="midnightblue" stroke="midnightblue" points="316.642,-469.492 306.701,-465.828 312.187,-474.892 316.642,-469.492"/>
</g>
<!-- Node23 -->
<g id="node23" class="node"><title>Node23</title>
<g id="a_node23"><a xlink:href="a00343.html" target="_top" xlink:title="hpp/fcl/ccd/taylor\l_matrix.h">
<polygon fill="white" stroke="black" points="376,-441 376,-471 468,-471 468,-441 376,-441"/>
<text text-anchor="start" x="384" y="-459" font-family="Helvetica,sans-Serif" font-size="10.00">hpp/fcl/ccd/taylor</text>
<text text-anchor="middle" x="422" y="-448" font-family="Helvetica,sans-Serif" font-size="10.00">_matrix.h</text>
</a>
</g>
</g>
<!-- Node22&#45;&gt;Node23 -->
<g id="edge31" class="edge"><title>Node22&#45;&gt;Node23</title>
<path fill="none" stroke="midnightblue" d="M385.981,-508.679C391.889,-500.203 399.504,-489.276 406.21,-479.655"/>
<polygon fill="midnightblue" stroke="midnightblue" points="409.192,-481.498 412.038,-471.293 403.449,-477.496 409.192,-481.498"/>
</g>
<!-- Node24 -->
<g id="node24" class="node"><title>Node24</title>
<g id="a_node24"><a xlink:href="a00346.html" target="_top" xlink:title="hpp/fcl/ccd/taylor\l_vector.h">
<polygon fill="white" stroke="black" points="450,-373 450,-403 542,-403 542,-373 450,-373"/>
<text text-anchor="start" x="458" y="-391" font-family="Helvetica,sans-Serif" font-size="10.00">hpp/fcl/ccd/taylor</text>
<text text-anchor="middle" x="496" y="-380" font-family="Helvetica,sans-Serif" font-size="10.00">_vector.h</text>
</a>
</g>
</g>
<!-- Node22&#45;&gt;Node24 -->
<g id="edge49" class="edge"><title>Node22&#45;&gt;Node24</title>
<path fill="none" stroke="midnightblue" d="M423.567,-508.975C442.787,-501.038 463.561,-489.17 477,-472 490.115,-455.244 494.488,-431.091 495.804,-413.156"/>
<polygon fill="midnightblue" stroke="midnightblue" points="499.3,-413.32 496.274,-403.166 492.308,-412.991 499.3,-413.32"/>
</g>
<!-- Node32 -->
<g id="node32" class="node"><title>Node32</title>
<g id="a_node32"><a xlink:href="a00338.html" target="_top" xlink:title="hpp/fcl/BV/RSS.h">
<polygon fill="white" stroke="black" points="118.5,-310.5 118.5,-329.5 213.5,-329.5 213.5,-310.5 118.5,-310.5"/>
<text text-anchor="middle" x="166" y="-317.5" font-family="Helvetica,sans-Serif" font-size="10.00">hpp/fcl/BV/RSS.h</text>
</a>
</g>
</g>
<!-- Node22&#45;&gt;Node32 -->
<g id="edge50" class="edge"><title>Node22&#45;&gt;Node32</title>
<path fill="none" stroke="midnightblue" d="M327.189,-513.365C296.099,-505.637 255.991,-492.606 225,-472 191.437,-449.684 179.255,-441.7 165,-404 157.056,-382.991 159.156,-356.798 162.014,-339.521"/>
<polygon fill="midnightblue" stroke="midnightblue" points="165.471,-340.077 163.904,-329.599 158.595,-338.767 165.471,-340.077"/>
</g>
<!-- Node23&#45;&gt;Node20 -->
<g id="edge32" class="edge"><title>Node23&#45;&gt;Node20</title>
<path fill="none" stroke="midnightblue" d="M411.463,-440.749C395.991,-419.167 367.212,-376.414 351,-336 342.504,-314.82 337.345,-289.002 334.589,-271.842"/>
<polygon fill="midnightblue" stroke="midnightblue" points="337.985,-270.884 333.052,-261.508 331.061,-271.914 337.985,-270.884"/>
</g>
<!-- Node23&#45;&gt;Node24 -->
<g id="edge33" class="edge"><title>Node23&#45;&gt;Node24</title>
<path fill="none" stroke="midnightblue" d="M438.057,-440.679C448.113,-431.71 461.247,-419.996 472.468,-409.988"/>
<polygon fill="midnightblue" stroke="midnightblue" points="475.095,-412.335 480.229,-403.066 470.436,-407.11 475.095,-412.335"/>
</g>
<!-- Node31 -->
<g id="node31" class="node"><title>Node31</title>
<g id="a_node31"><a xlink:href="a00307.html" target="_top" xlink:title="hpp/fcl/ccd/interval\l_matrix.h">
<polygon fill="white" stroke="black" points="599.5,-373 599.5,-403 698.5,-403 698.5,-373 599.5,-373"/>
<text text-anchor="start" x="607.5" y="-391" font-family="Helvetica,sans-Serif" font-size="10.00">hpp/fcl/ccd/interval</text>
<text text-anchor="middle" x="649" y="-380" font-family="Helvetica,sans-Serif" font-size="10.00">_matrix.h</text>
</a>
</g>
</g>
<!-- Node23&#45;&gt;Node31 -->
<g id="edge45" class="edge"><title>Node23&#45;&gt;Node31</title>
<path fill="none" stroke="midnightblue" d="M468.21,-441.564C503.553,-431.289 552.519,-417.052 590.578,-405.986"/>
<polygon fill="midnightblue" stroke="midnightblue" points="591.877,-409.253 600.502,-403.101 589.923,-402.532 591.877,-409.253"/>
</g>
<!-- Node25 -->
<g id="node25" class="node"><title>Node25</title>
<g id="a_node25"><a xlink:href="a00309.html" target="_top" xlink:title="hpp/fcl/ccd/interval\l_vector.h">
<polygon fill="white" stroke="black" points="664.5,-305 664.5,-335 763.5,-335 763.5,-305 664.5,-305"/>
<text text-anchor="start" x="672.5" y="-323" font-family="Helvetica,sans-Serif" font-size="10.00">hpp/fcl/ccd/interval</text>
<text text-anchor="middle" x="714" y="-312" font-family="Helvetica,sans-Serif" font-size="10.00">_vector.h</text>
</a>
</g>
</g>
<!-- Node24&#45;&gt;Node25 -->
<g id="edge34" class="edge"><title>Node24&#45;&gt;Node25</title>
<path fill="none" stroke="midnightblue" d="M542.232,-373.003C575.934,-362.8 621.78,-348.92 657.631,-338.066"/>
<polygon fill="midnightblue" stroke="midnightblue" points="658.902,-341.338 667.459,-335.09 656.874,-334.638 658.902,-341.338"/>
</g>
<!-- Node28 -->
<g id="node28" class="node"><title>Node28</title>
<g id="a_node28"><a xlink:href="a00344.html" target="_top" xlink:title="hpp/fcl/ccd/taylor\l_model.h">
<polygon fill="white" stroke="black" points="554,-305 554,-335 646,-335 646,-305 554,-305"/>
<text text-anchor="start" x="562" y="-323" font-family="Helvetica,sans-Serif" font-size="10.00">hpp/fcl/ccd/taylor</text>
<text text-anchor="middle" x="600" y="-312" font-family="Helvetica,sans-Serif" font-size="10.00">_model.h</text>
</a>
</g>
</g>
<!-- Node24&#45;&gt;Node28 -->
<g id="edge39" class="edge"><title>Node24&#45;&gt;Node28</title>
<path fill="none" stroke="midnightblue" d="M518.311,-372.841C533.116,-363.446 552.751,-350.985 569.06,-340.635"/>
<polygon fill="midnightblue" stroke="midnightblue" points="571.158,-343.449 577.726,-335.135 567.408,-337.538 571.158,-343.449"/>
</g>
<!-- Node30 -->
<g id="node30" class="node"><title>Node30</title>
<g id="a_node30"><a xlink:href="a00345.html" target="_top" xlink:title="hpp/fcl/eigen/taylor\l_operator.h">
<polygon fill="white" stroke="black" points="360.5,-305 360.5,-335 459.5,-335 459.5,-305 360.5,-305"/>
<text text-anchor="start" x="368.5" y="-323" font-family="Helvetica,sans-Serif" font-size="10.00">hpp/fcl/eigen/taylor</text>
<text text-anchor="middle" x="410" y="-312" font-family="Helvetica,sans-Serif" font-size="10.00">_operator.h</text>
</a>
</g>
</g>
<!-- Node24&#45;&gt;Node30 -->
<g id="edge42" class="edge"><title>Node24&#45;&gt;Node30</title>
<path fill="none" stroke="midnightblue" d="M477.339,-372.679C465.425,-363.536 449.794,-351.54 436.591,-341.407"/>
<polygon fill="midnightblue" stroke="midnightblue" points="438.393,-338.378 428.329,-335.066 434.131,-343.931 438.393,-338.378"/>
</g>
<!-- Node25&#45;&gt;Node6 -->
<g id="edge37" class="edge"><title>Node25&#45;&gt;Node6</title>
<path fill="none" stroke="midnightblue" d="M714.226,-304.969C713.742,-286.668 710.111,-254.777 692,-236 670.569,-213.781 638.545,-202.443 609.761,-196.694"/>
<polygon fill="midnightblue" stroke="midnightblue" points="610.201,-193.217 599.738,-194.885 608.957,-200.105 610.201,-193.217"/>
</g>
<!-- Node26 -->
<g id="node26" class="node"><title>Node26</title>
<g id="a_node26"><a xlink:href="a00306.html" target="_top" xlink:title="hpp/fcl/ccd/interval.h">
<polygon fill="white" stroke="black" points="739.5,-242.5 739.5,-261.5 846.5,-261.5 846.5,-242.5 739.5,-242.5"/>
<text text-anchor="middle" x="793" y="-249.5" font-family="Helvetica,sans-Serif" font-size="10.00">hpp/fcl/ccd/interval.h</text>
</a>
</g>
</g>
<!-- Node25&#45;&gt;Node26 -->
<g id="edge35" class="edge"><title>Node25&#45;&gt;Node26</title>
<path fill="none" stroke="midnightblue" d="M731.142,-304.679C743.947,-293.981 761.428,-279.377 774.54,-268.422"/>
<polygon fill="midnightblue" stroke="midnightblue" points="777.003,-270.926 782.433,-261.828 772.515,-265.554 777.003,-270.926"/>
</g>
<!-- Node27 -->
<g id="node27" class="node"><title>Node27</title>
<g id="a_node27"><a xlink:href="a00305.html" target="_top" xlink:title="hpp/fcl/eigen/plugins\l/ccd/interval&#45;vector.h">
<polygon fill="white" stroke="black" points="575,-237 575,-267 683,-267 683,-237 575,-237"/>
<text text-anchor="start" x="583" y="-255" font-family="Helvetica,sans-Serif" font-size="10.00">hpp/fcl/eigen/plugins</text>
<text text-anchor="middle" x="629" y="-244" font-family="Helvetica,sans-Serif" font-size="10.00">/ccd/interval&#45;vector.h</text>
</a>
</g>
</g>
<!-- Node25&#45;&gt;Node27 -->
<g id="edge38" class="edge"><title>Node25&#45;&gt;Node27</title>
<path fill="none" stroke="midnightblue" d="M695.556,-304.679C683.781,-295.536 668.331,-283.54 655.282,-273.407"/>
<polygon fill="midnightblue" stroke="midnightblue" points="657.161,-270.435 647.116,-267.066 652.868,-275.964 657.161,-270.435"/>
</g>
<!-- Node26&#45;&gt;Node8 -->
<g id="edge36" class="edge"><title>Node26&#45;&gt;Node8</title>
<path fill="none" stroke="midnightblue" d="M793,-242.125C793,-213.769 793,-124.93 793,-85.8108"/>
<polygon fill="midnightblue" stroke="midnightblue" points="796.5,-85.7856 793,-75.7857 789.5,-85.7857 796.5,-85.7856"/>
</g>
<!-- Node28&#45;&gt;Node26 -->
<g id="edge40" class="edge"><title>Node28&#45;&gt;Node26</title>
<path fill="none" stroke="midnightblue" d="M641.403,-304.841C676.234,-292.93 725.467,-276.094 758.271,-264.876"/>
<polygon fill="midnightblue" stroke="midnightblue" points="759.561,-268.134 767.89,-261.587 757.295,-261.511 759.561,-268.134"/>
</g>
<!-- Node28&#45;&gt;Node29 -->
<g id="edge41" class="edge"><title>Node28&#45;&gt;Node29</title>
<path fill="none" stroke="midnightblue" d="M578.952,-304.679C562.686,-293.611 540.276,-278.363 524.017,-267.3"/>
<polygon fill="midnightblue" stroke="midnightblue" points="525.932,-264.37 515.695,-261.638 521.994,-270.157 525.932,-264.37"/>
</g>
<!-- Node30&#45;&gt;Node6 -->
<g id="edge43" class="edge"><title>Node30&#45;&gt;Node6</title>
<path fill="none" stroke="midnightblue" d="M411.641,-304.886C414.441,-286.787 421.737,-255.423 440,-236 454.93,-220.122 476.414,-209.559 495.984,-202.685"/>
<polygon fill="midnightblue" stroke="midnightblue" points="497.281,-205.943 505.698,-199.508 495.106,-199.29 497.281,-205.943"/>
</g>
<!-- Node30&#45;&gt;Node20 -->
<g id="edge44" class="edge"><title>Node30&#45;&gt;Node20</title>
<path fill="none" stroke="midnightblue" d="M393.075,-304.679C380.432,-293.981 363.173,-279.377 350.226,-268.422"/>
<polygon fill="midnightblue" stroke="midnightblue" points="352.328,-265.616 342.433,-261.828 347.807,-270.96 352.328,-265.616"/>
</g>
<!-- Node31&#45;&gt;Node20 -->
<g id="edge48" class="edge"><title>Node31&#45;&gt;Node20</title>
<path fill="none" stroke="midnightblue" d="M620.127,-372.988C584.637,-355.944 522.418,-326.647 468,-304 433.58,-289.676 393.557,-274.887 365.883,-264.947"/>
<polygon fill="midnightblue" stroke="midnightblue" points="366.873,-261.585 356.279,-261.515 364.517,-268.176 366.873,-261.585"/>
</g>
<!-- Node31&#45;&gt;Node25 -->
<g id="edge47" class="edge"><title>Node31&#45;&gt;Node25</title>
<path fill="none" stroke="midnightblue" d="M663.104,-372.679C671.792,-363.857 683.095,-352.38 692.842,-342.483"/>
<polygon fill="midnightblue" stroke="midnightblue" points="695.4,-344.874 699.923,-335.293 690.413,-339.962 695.4,-344.874"/>
</g>
<!-- Node31&#45;&gt;Node26 -->
<g id="edge46" class="edge"><title>Node31&#45;&gt;Node26</title>
<path fill="none" stroke="midnightblue" d="M698.738,-377.514C724.048,-370.228 753.33,-357.599 772,-336 787.455,-318.12 791.813,-290.433 792.896,-272.018"/>
<polygon fill="midnightblue" stroke="midnightblue" points="796.398,-272.027 793.218,-261.92 789.401,-271.804 796.398,-272.027"/>
</g>
<!-- Node32&#45;&gt;Node5 -->
<g id="edge51" class="edge"><title>Node32&#45;&gt;Node5</title>
<path fill="none" stroke="midnightblue" d="M151.619,-310.372C133.173,-299.304 100.954,-279.972 79.0633,-266.838"/>
<polygon fill="midnightblue" stroke="midnightblue" points="80.7598,-263.774 70.3841,-261.63 77.1583,-269.777 80.7598,-263.774"/>
</g>
<!-- Node32&#45;&gt;Node6 -->
<g id="edge52" class="edge"><title>Node32&#45;&gt;Node6</title>
<path fill="none" stroke="midnightblue" d="M175.643,-310.411C198.97,-289.669 256.906,-238.37 262,-236 331.116,-203.835 418.944,-194.074 478.069,-191.409"/>
<polygon fill="midnightblue" stroke="midnightblue" points="478.544,-194.893 488.398,-191.002 478.268,-187.898 478.544,-194.893"/>
</g>
<!-- Node32&#45;&gt;Node20 -->
<g id="edge53" class="edge"><title>Node32&#45;&gt;Node20</title>
<path fill="none" stroke="midnightblue" d="M187.702,-310.372C216.612,-298.877 267.942,-278.469 300.947,-265.346"/>
<polygon fill="midnightblue" stroke="midnightblue" points="302.557,-268.473 310.556,-261.526 299.971,-261.968 302.557,-268.473"/>
</g>
<!-- Node33 -->
<g id="node33" class="node"><title>Node33</title>
<polygon fill="white" stroke="#bfbfbf" points="103.5,-237 103.5,-267 214.5,-267 214.5,-237 103.5,-237"/>
<text text-anchor="start" x="111.5" y="-255" font-family="Helvetica,sans-Serif" font-size="10.00">boost/math/constants</text>
<text text-anchor="middle" x="159" y="-244" font-family="Helvetica,sans-Serif" font-size="10.00">/constants.hpp</text>
</g>
<!-- Node32&#45;&gt;Node33 -->
<g id="edge54" class="edge"><title>Node32&#45;&gt;Node33</title>
<path fill="none" stroke="midnightblue" d="M165.085,-310.372C164.194,-301.971 162.798,-288.811 161.568,-277.213"/>
<polygon fill="midnightblue" stroke="midnightblue" points="165.039,-276.757 160.504,-267.181 158.078,-277.495 165.039,-276.757"/>
</g>
<!-- Node34&#45;&gt;Node2 -->
<g id="edge57" class="edge"><title>Node34&#45;&gt;Node2</title>
<path fill="none" stroke="midnightblue" d="M839.978,-647.274C728.393,-636.262 484.17,-612.161 362.242,-600.129"/>
<polygon fill="midnightblue" stroke="midnightblue" points="362.55,-596.643 352.254,-599.144 361.862,-603.609 362.55,-596.643"/>
</g>
<!-- Node34&#45;&gt;Node6 -->
<g id="edge71" class="edge"><title>Node34&#45;&gt;Node6</title>
<path fill="none" stroke="midnightblue" d="M890.69,-644.284C883.804,-635.623 873.716,-621.69 868,-608 844.223,-551.052 846.254,-533.394 840,-472 829.348,-367.441 923.791,-315.461 855,-236 823.967,-200.154 691.705,-192.24 609.982,-190.852"/>
<polygon fill="midnightblue" stroke="midnightblue" points="609.834,-187.35 599.785,-190.709 609.735,-194.349 609.834,-187.35"/>
</g>
<!-- Node34&#45;&gt;Node17 -->
<g id="edge74" class="edge"><title>Node34&#45;&gt;Node17</title>
<path fill="none" stroke="midnightblue" d="M956.215,-648.535C1030.36,-639.307 1149,-611.091 1149,-525 1149,-525 1149,-525 1149,-319 1149,-190.412 983.124,-107.555 913.844,-78.5562"/>
<polygon fill="midnightblue" stroke="midnightblue" points="914.935,-75.2209 904.354,-74.6695 912.281,-81.6986 914.935,-75.2209"/>
</g>
<!-- Node35 -->
<g id="node35" class="node"><title>Node35</title>
<g id="a_node35"><a xlink:href="a00275.html" target="_top" xlink:title="hpp/fcl/learning/classifier.h">
<polygon fill="white" stroke="black" points="849.5,-446.5 849.5,-465.5 982.5,-465.5 982.5,-446.5 849.5,-446.5"/>
<text text-anchor="middle" x="916" y="-453.5" font-family="Helvetica,sans-Serif" font-size="10.00">hpp/fcl/learning/classifier.h</text>
</a>
</g>
</g>
<!-- Node34&#45;&gt;Node35 -->
<g id="edge58" class="edge"><title>Node34&#45;&gt;Node35</title>
<path fill="none" stroke="midnightblue" d="M892.87,-644.407C887.942,-635.614 880.84,-621.381 878,-608 868.774,-564.524 864.012,-550.186 878,-508 882.354,-494.868 891.549,-482.374 899.803,-473.038"/>
<polygon fill="midnightblue" stroke="midnightblue" points="902.386,-475.401 906.669,-465.711 897.278,-470.615 902.386,-475.401"/>
</g>
<!-- Node37 -->
<g id="node37" class="node"><title>Node37</title>
<polygon fill="white" stroke="#bfbfbf" points="1091,-56.5 1091,-75.5 1135,-75.5 1135,-56.5 1091,-56.5"/>
<text text-anchor="middle" x="1113" y="-63.5" font-family="Helvetica,sans-Serif" font-size="10.00">vector</text>
</g>
<!-- Node34&#45;&gt;Node37 -->
<g id="edge72" class="edge"><title>Node34&#45;&gt;Node37</title>
<path fill="none" stroke="midnightblue" d="M956.136,-652.152C1040.53,-647.495 1187,-625.009 1187,-525 1187,-525 1187,-525 1187,-189 1187,-145.536 1152.24,-104.343 1130.37,-82.7243"/>
<polygon fill="midnightblue" stroke="midnightblue" points="1132.63,-80.0472 1122.98,-75.6771 1127.8,-85.1121 1132.63,-80.0472"/>
</g>
<!-- Node40 -->
<g id="node40" class="node"><title>Node40</title>
<g id="a_node40"><a xlink:href="a00327.html" target="_top" xlink:title="hpp/fcl/knn/nearest\l_neighbors.h">
<polygon fill="white" stroke="black" points="887,-577 887,-607 987,-607 987,-577 887,-577"/>
<text text-anchor="start" x="895" y="-595" font-family="Helvetica,sans-Serif" font-size="10.00">hpp/fcl/knn/nearest</text>
<text text-anchor="middle" x="937" y="-584" font-family="Helvetica,sans-Serif" font-size="10.00">_neighbors.h</text>
</a>
</g>
</g>
<!-- Node34&#45;&gt;Node40 -->
<g id="edge67" class="edge"><title>Node34&#45;&gt;Node40</title>
<path fill="none" stroke="midnightblue" d="M903.588,-644.403C908.475,-636.885 915.795,-625.624 922.338,-615.556"/>
<polygon fill="midnightblue" stroke="midnightblue" points="925.293,-617.433 927.808,-607.141 919.424,-613.618 925.293,-617.433"/>
</g>
<!-- Node43 -->
<g id="node43" class="node"><title>Node43</title>
<polygon fill="white" stroke="#bfbfbf" points="1005,-582.5 1005,-601.5 1035,-601.5 1035,-582.5 1005,-582.5"/>
<text text-anchor="middle" x="1020" y="-589.5" font-family="Helvetica,sans-Serif" font-size="10.00">set</text>
</g>
<!-- Node34&#45;&gt;Node43 -->
<g id="edge73" class="edge"><title>Node34&#45;&gt;Node43</title>
<path fill="none" stroke="midnightblue" d="M918.642,-644.438C938.736,-635.89 969.963,-622.04 996,-608 996.681,-607.633 997.369,-607.254 998.061,-606.866"/>
<polygon fill="midnightblue" stroke="midnightblue" points="1000.17,-609.683 1006.98,-601.562 996.592,-603.667 1000.17,-609.683"/>
</g>
<!-- Node36 -->
<g id="node36" class="node"><title>Node36</title>
<g id="a_node36"><a xlink:href="a00359.html" target="_top" xlink:title="hpp/fcl/math/vec_nf.h">
<polygon fill="white" stroke="black" points="843.5,-118.5 843.5,-137.5 954.5,-137.5 954.5,-118.5 843.5,-118.5"/>
<text text-anchor="middle" x="899" y="-125.5" font-family="Helvetica,sans-Serif" font-size="10.00">hpp/fcl/math/vec_nf.h</text>
</a>
</g>
</g>
<!-- Node35&#45;&gt;Node36 -->
<g id="edge59" class="edge"><title>Node35&#45;&gt;Node36</title>
<path fill="none" stroke="midnightblue" d="M915.889,-446.22C915.629,-424.814 915,-368.227 915,-321 915,-321 915,-321 915,-251 915,-214.101 907.716,-171.452 902.977,-147.613"/>
<polygon fill="midnightblue" stroke="midnightblue" points="906.345,-146.616 900.898,-137.528 899.489,-148.029 906.345,-146.616"/>
</g>
<!-- Node36&#45;&gt;Node8 -->
<g id="edge66" class="edge"><title>Node36&#45;&gt;Node8</title>
<path fill="none" stroke="midnightblue" d="M883.813,-118.403C866.338,-108.512 837.421,-92.1442 816.917,-80.5378"/>
<polygon fill="midnightblue" stroke="midnightblue" points="818.586,-77.4607 808.159,-75.5806 815.138,-83.5525 818.586,-77.4607"/>
</g>
<!-- Node36&#45;&gt;Node15 -->
<g id="edge60" class="edge"><title>Node36&#45;&gt;Node15</title>
<path fill="none" stroke="midnightblue" d="M870.488,-118.403C833.69,-107.308 769.862,-88.0638 731.614,-76.5318"/>
<polygon fill="midnightblue" stroke="midnightblue" points="732.595,-73.1721 722.01,-73.6363 730.574,-79.8741 732.595,-73.1721"/>
</g>
<!-- Node36&#45;&gt;Node16 -->
<g id="edge61" class="edge"><title>Node36&#45;&gt;Node16</title>
<path fill="none" stroke="midnightblue" d="M859.038,-118.478C815.165,-109.048 742.39,-93.1842 670.276,-76.2548"/>
<polygon fill="midnightblue" stroke="midnightblue" points="670.644,-72.7458 660.108,-73.8595 669.039,-79.5593 670.644,-72.7458"/>
</g>
<!-- Node36&#45;&gt;Node17 -->
<g id="edge62" class="edge"><title>Node36&#45;&gt;Node17</title>
<path fill="none" stroke="midnightblue" d="M896.851,-118.403C894.712,-109.849 891.362,-96.4497 888.619,-85.4762"/>
<polygon fill="midnightblue" stroke="midnightblue" points="891.966,-84.4331 886.145,-75.5806 885.175,-86.1309 891.966,-84.4331"/>
</g>
<!-- Node36&#45;&gt;Node37 -->
<g id="edge63" class="edge"><title>Node36&#45;&gt;Node37</title>
<path fill="none" stroke="midnightblue" d="M929.595,-118.436C965.761,-108.311 1027.77,-90.9447 1081,-76 1081.1,-75.9717 1081.2,-75.9434 1081.3,-75.915"/>
<polygon fill="midnightblue" stroke="midnightblue" points="1082.29,-79.2743 1090.97,-73.1998 1080.39,-72.5352 1082.29,-79.2743"/>
</g>
<!-- Node38 -->
<g id="node38" class="node"><title>Node38</title>
<polygon fill="white" stroke="#bfbfbf" points="989,-56.5 989,-75.5 1073,-75.5 1073,-56.5 989,-56.5"/>
<text text-anchor="middle" x="1031" y="-63.5" font-family="Helvetica,sans-Serif" font-size="10.00">boost/array.hpp</text>
</g>
<!-- Node36&#45;&gt;Node38 -->
<g id="edge64" class="edge"><title>Node36&#45;&gt;Node38</title>
<path fill="none" stroke="midnightblue" d="M917.912,-118.403C940.163,-108.29 977.312,-91.4036 1002.93,-79.761"/>
<polygon fill="midnightblue" stroke="midnightblue" points="1004.47,-82.905 1012.12,-75.5806 1001.57,-76.5324 1004.47,-82.905"/>
</g>
<!-- Node39 -->
<g id="node39" class="node"><title>Node39</title>
<polygon fill="white" stroke="#bfbfbf" points="922.5,-56.5 922.5,-75.5 971.5,-75.5 971.5,-56.5 922.5,-56.5"/>
<text text-anchor="middle" x="947" y="-63.5" font-family="Helvetica,sans-Serif" font-size="10.00">cstdarg</text>
</g>
<!-- Node36&#45;&gt;Node39 -->
<g id="edge65" class="edge"><title>Node36&#45;&gt;Node39</title>
<path fill="none" stroke="midnightblue" d="M905.877,-118.403C913.149,-109.314 924.795,-94.7559 933.841,-83.4489"/>
<polygon fill="midnightblue" stroke="midnightblue" points="936.622,-85.5757 940.136,-75.5806 931.155,-81.2029 936.622,-85.5757"/>
</g>
<!-- Node40&#45;&gt;Node37 -->
<g id="edge68" class="edge"><title>Node40&#45;&gt;Node37</title>
<path fill="none" stroke="midnightblue" d="M987.365,-576.963C1029.42,-564.815 1083.66,-547.98 1091,-540 1116.69,-512.075 1111,-494.945 1111,-457 1111,-457 1111,-457 1111,-319 1111,-231.819 1112.21,-127.677 1112.75,-85.7992"/>
<polygon fill="midnightblue" stroke="midnightblue" points="1116.25,-85.7494 1112.88,-75.7045 1109.25,-85.6578 1116.25,-85.7494"/>
</g>
<!-- Node41 -->
<g id="node41" class="node"><title>Node41</title>
<polygon fill="white" stroke="#bfbfbf" points="887,-514.5 887,-533.5 967,-533.5 967,-514.5 887,-514.5"/>
<text text-anchor="middle" x="927" y="-521.5" font-family="Helvetica,sans-Serif" font-size="10.00">boost/bind.hpp</text>
</g>
<!-- Node40&#45;&gt;Node41 -->
<g id="edge69" class="edge"><title>Node40&#45;&gt;Node41</title>
<path fill="none" stroke="midnightblue" d="M934.83,-576.679C933.379,-567.101 931.454,-554.394 929.875,-543.977"/>
<polygon fill="midnightblue" stroke="midnightblue" points="933.296,-543.191 928.338,-533.828 926.375,-544.24 933.296,-543.191"/>
</g>
<!-- Node42 -->
<g id="node42" class="node"><title>Node42</title>
<polygon fill="white" stroke="#bfbfbf" points="985.5,-514.5 985.5,-533.5 1082.5,-533.5 1082.5,-514.5 985.5,-514.5"/>
<text text-anchor="middle" x="1034" y="-521.5" font-family="Helvetica,sans-Serif" font-size="10.00">boost/function.hpp</text>
</g>
<!-- Node40&#45;&gt;Node42 -->
<g id="edge70" class="edge"><title>Node40&#45;&gt;Node42</title>
<path fill="none" stroke="midnightblue" d="M958.048,-576.679C974.314,-565.611 996.724,-550.363 1012.98,-539.3"/>
<polygon fill="midnightblue" stroke="midnightblue" points="1015.01,-542.157 1021.3,-533.638 1011.07,-536.37 1015.01,-542.157"/>
</g>
</g>
</svg>
