<?xml version="1.0" encoding="UTF-8" standalone="no"?>
<!DOCTYPE svg PUBLIC "-//W3C//DTD SVG 1.1//EN"
 "http://www.w3.org/Graphics/SVG/1.1/DTD/svg11.dtd">
<!-- Generated by graphviz version 2.36.0 (20140111.2315)
 -->
<!-- Title: joint_config.h Pages: 1 -->
<svg width="436pt" height="140pt"
 viewBox="0.00 0.00 436.00 140.00" xmlns="http://www.w3.org/2000/svg" xmlns:xlink="http://www.w3.org/1999/xlink">
<g id="graph0" class="graph" transform="scale(1 1) rotate(0) translate(4 136)">
<title>joint_config.h</title>
<polygon fill="white" stroke="none" points="-4,4 -4,-136 432,-136 432,4 -4,4"/>
<!-- Node1 -->
<g id="node1" class="node"><title>Node1</title>
<polygon fill="#bfbfbf" stroke="black" points="217,-112.5 217,-131.5 291,-131.5 291,-112.5 217,-112.5"/>
<text text-anchor="middle" x="254" y="-119.5" font-family="Helvetica,sans-Serif" font-size="10.00">joint_config.h</text>
</g>
<!-- Node2 -->
<g id="node2" class="node"><title>Node2</title>
<g id="a_node2"><a xlink:href="a00283.html" target="_top" xlink:title="hpp/fcl/data_types.h">
<polygon fill="white" stroke="black" points="15.5,-56.5 15.5,-75.5 120.5,-75.5 120.5,-56.5 15.5,-56.5"/>
<text text-anchor="middle" x="68" y="-63.5" font-family="Helvetica,sans-Serif" font-size="10.00">hpp/fcl/data_types.h</text>
</a>
</g>
</g>
<!-- Node1&#45;&gt;Node2 -->
<g id="edge1" class="edge"><title>Node1&#45;&gt;Node2</title>
<path fill="none" stroke="midnightblue" d="M224.528,-112.444C192.829,-103.241 142.268,-88.5617 107.225,-78.3879"/>
<polygon fill="midnightblue" stroke="midnightblue" points="107.914,-74.9434 97.3344,-75.5164 105.962,-81.6658 107.914,-74.9434"/>
</g>
<!-- Node5 -->
<g id="node5" class="node"><title>Node5</title>
<polygon fill="white" stroke="#bfbfbf" points="139,-56.5 139,-75.5 247,-75.5 247,-56.5 139,-56.5"/>
<text text-anchor="middle" x="193" y="-63.5" font-family="Helvetica,sans-Serif" font-size="10.00">boost/shared_ptr.hpp</text>
</g>
<!-- Node1&#45;&gt;Node5 -->
<g id="edge4" class="edge"><title>Node1&#45;&gt;Node5</title>
<path fill="none" stroke="midnightblue" d="M244.199,-112.324C235.182,-104.341 221.594,-92.3128 210.682,-82.6529"/>
<polygon fill="midnightblue" stroke="midnightblue" points="212.787,-79.8416 202.979,-75.8339 208.147,-85.083 212.787,-79.8416"/>
</g>
<!-- Node6 -->
<g id="node6" class="node"><title>Node6</title>
<polygon fill="white" stroke="#bfbfbf" points="265,-56.5 265,-75.5 367,-75.5 367,-56.5 265,-56.5"/>
<text text-anchor="middle" x="316" y="-63.5" font-family="Helvetica,sans-Serif" font-size="10.00">boost/weak_ptr.hpp</text>
</g>
<!-- Node1&#45;&gt;Node6 -->
<g id="edge5" class="edge"><title>Node1&#45;&gt;Node6</title>
<path fill="none" stroke="midnightblue" d="M263.961,-112.324C273.127,-104.341 286.937,-92.3128 298.028,-82.6529"/>
<polygon fill="midnightblue" stroke="midnightblue" points="300.615,-85.041 305.857,-75.8339 296.018,-79.7624 300.615,-85.041"/>
</g>
<!-- Node7 -->
<g id="node7" class="node"><title>Node7</title>
<polygon fill="white" stroke="#bfbfbf" points="385,-56.5 385,-75.5 429,-75.5 429,-56.5 385,-56.5"/>
<text text-anchor="middle" x="407" y="-63.5" font-family="Helvetica,sans-Serif" font-size="10.00">vector</text>
</g>
<!-- Node1&#45;&gt;Node7 -->
<g id="edge6" class="edge"><title>Node1&#45;&gt;Node7</title>
<path fill="none" stroke="midnightblue" d="M278.243,-112.444C304.474,-103.186 346.405,-88.3866 375.248,-78.2066"/>
<polygon fill="midnightblue" stroke="midnightblue" points="376.592,-81.4438 384.857,-74.8151 374.262,-74.8429 376.592,-81.4438"/>
</g>
<!-- Node3 -->
<g id="node3" class="node"><title>Node3</title>
<polygon fill="white" stroke="#bfbfbf" points="-0.5,-0.5 -0.5,-19.5 48.5,-19.5 48.5,-0.5 -0.5,-0.5"/>
<text text-anchor="middle" x="24" y="-7.5" font-family="Helvetica,sans-Serif" font-size="10.00">cstddef</text>
</g>
<!-- Node2&#45;&gt;Node3 -->
<g id="edge2" class="edge"><title>Node2&#45;&gt;Node3</title>
<path fill="none" stroke="midnightblue" d="M60.7343,-56.083C54.4552,-48.3768 45.2124,-37.0333 37.5692,-27.6531"/>
<polygon fill="midnightblue" stroke="midnightblue" points="40.1606,-25.2926 31.1305,-19.7511 34.7339,-29.7143 40.1606,-25.2926"/>
</g>
<!-- Node4 -->
<g id="node4" class="node"><title>Node4</title>
<polygon fill="white" stroke="#bfbfbf" points="67,-0.5 67,-19.5 159,-19.5 159,-0.5 67,-0.5"/>
<text text-anchor="middle" x="113" y="-7.5" font-family="Helvetica,sans-Serif" font-size="10.00">boost/cstdint.hpp</text>
</g>
<!-- Node2&#45;&gt;Node4 -->
<g id="edge3" class="edge"><title>Node2&#45;&gt;Node4</title>
<path fill="none" stroke="midnightblue" d="M75.4308,-56.083C81.8527,-48.3768 91.3056,-37.0333 99.1225,-27.6531"/>
<polygon fill="midnightblue" stroke="midnightblue" points="101.994,-29.674 105.707,-19.7511 96.6168,-25.1927 101.994,-29.674"/>
</g>
</g>
</svg>
