<?xml version="1.0" encoding="UTF-8" standalone="no"?>
<!DOCTYPE svg PUBLIC "-//W3C//DTD SVG 1.1//EN"
 "http://www.w3.org/Graphics/SVG/1.1/DTD/svg11.dtd">
<!-- Generated by graphviz version 2.36.0 (20140111.2315)
 -->
<!-- Title: collision_object.h Pages: 1 -->
<svg width="2409pt" height="320pt"
 viewBox="0.00 0.00 2409.00 320.00" xmlns="http://www.w3.org/2000/svg" xmlns:xlink="http://www.w3.org/1999/xlink">
<g id="graph0" class="graph" transform="scale(1 1) rotate(0) translate(4 316)">
<title>collision_object.h</title>
<polygon fill="white" stroke="none" points="-4,4 -4,-316 2405,-316 2405,4 -4,4"/>
<!-- Node1 -->
<g id="node1" class="node"><title>Node1</title>
<polygon fill="#bfbfbf" stroke="black" points="1544,-292.5 1544,-311.5 1636,-311.5 1636,-292.5 1544,-292.5"/>
<text text-anchor="middle" x="1590" y="-299.5" font-family="Helvetica,sans-Serif" font-size="10.00">collision_object.h</text>
</g>
<!-- Node2 -->
<g id="node2" class="node"><title>Node2</title>
<g id="a_node2"><a xlink:href="a00315.html" target="_top" xlink:title="link.h">
<polygon fill="white" stroke="black" points="554,-236.5 554,-255.5 594,-255.5 594,-236.5 554,-236.5"/>
<text text-anchor="middle" x="574" y="-243.5" font-family="Helvetica,sans-Serif" font-size="10.00">link.h</text>
</a>
</g>
</g>
<!-- Node1&#45;&gt;Node2 -->
<g id="edge1" class="edge"><title>Node1&#45;&gt;Node2</title>
<path fill="none" stroke="midnightblue" d="M1533.66,-298.792C1391.45,-293.091 1006.49,-276.849 686,-256 653.881,-253.911 616.638,-250.776 594.22,-248.811"/>
<polygon fill="midnightblue" stroke="midnightblue" points="1533.74,-302.298 1543.87,-299.201 1534.02,-295.304 1533.74,-302.298"/>
</g>
<!-- Node4 -->
<g id="node4" class="node"><title>Node4</title>
<g id="a_node4"><a xlink:href="a00258.html" target="_top" xlink:title="broadphase.h">
<polygon fill="white" stroke="black" points="470.5,-180.5 470.5,-199.5 545.5,-199.5 545.5,-180.5 470.5,-180.5"/>
<text text-anchor="middle" x="508" y="-187.5" font-family="Helvetica,sans-Serif" font-size="10.00">broadphase.h</text>
</a>
</g>
</g>
<!-- Node1&#45;&gt;Node4 -->
<g id="edge3" class="edge"><title>Node1&#45;&gt;Node4</title>
<path fill="none" stroke="midnightblue" d="M1533.67,-300.166C1408.58,-297.757 1098.36,-288.702 841,-256 731.729,-242.115 604.412,-213.832 543.719,-199.595"/>
<polygon fill="midnightblue" stroke="midnightblue" points="1533.71,-303.668 1543.78,-300.354 1533.84,-296.669 1533.71,-303.668"/>
</g>
<!-- Node12 -->
<g id="node12" class="node"><title>Node12</title>
<g id="a_node12"><a xlink:href="a00292.html" target="_top" xlink:title="geometric_shapes.h">
<polygon fill="white" stroke="black" points="1038,-236.5 1038,-255.5 1142,-255.5 1142,-236.5 1038,-236.5"/>
<text text-anchor="middle" x="1090" y="-243.5" font-family="Helvetica,sans-Serif" font-size="10.00">geometric_shapes.h</text>
</a>
</g>
</g>
<!-- Node1&#45;&gt;Node12 -->
<g id="edge18" class="edge"><title>Node1&#45;&gt;Node12</title>
<path fill="none" stroke="midnightblue" d="M1533.9,-294.941C1436.43,-284.414 1237.16,-262.893 1142.36,-252.655"/>
<polygon fill="midnightblue" stroke="midnightblue" points="1533.54,-298.423 1543.86,-296.017 1534.29,-291.463 1533.54,-298.423"/>
</g>
<!-- Node22 -->
<g id="node22" class="node"><title>Node22</title>
<g id="a_node22"><a xlink:href="a00273.html" target="_top" xlink:title="BVH_model.h">
<polygon fill="white" stroke="black" points="1141.5,-180.5 1141.5,-199.5 1218.5,-199.5 1218.5,-180.5 1141.5,-180.5"/>
<text text-anchor="middle" x="1180" y="-187.5" font-family="Helvetica,sans-Serif" font-size="10.00">BVH_model.h</text>
</a>
</g>
</g>
<!-- Node1&#45;&gt;Node22 -->
<g id="edge36" class="edge"><title>Node1&#45;&gt;Node22</title>
<path fill="none" stroke="midnightblue" d="M1548.44,-289.848C1466.39,-267.835 1285.21,-219.227 1211.81,-199.535"/>
<polygon fill="midnightblue" stroke="midnightblue" points="1547.6,-293.249 1558.17,-292.46 1549.42,-286.488 1547.6,-293.249"/>
</g>
<!-- Node27 -->
<g id="node27" class="node"><title>Node27</title>
<g id="a_node27"><a xlink:href="a00281.html" target="_top" xlink:title="conservative_advancement.h">
<polygon fill="white" stroke="black" points="1275,-180.5 1275,-199.5 1419,-199.5 1419,-180.5 1275,-180.5"/>
<text text-anchor="middle" x="1347" y="-187.5" font-family="Helvetica,sans-Serif" font-size="10.00">conservative_advancement.h</text>
</a>
</g>
</g>
<!-- Node1&#45;&gt;Node27 -->
<g id="edge46" class="edge"><title>Node1&#45;&gt;Node27</title>
<path fill="none" stroke="midnightblue" d="M1561.64,-288.163C1511.5,-265.466 1408.48,-218.831 1365.98,-199.591"/>
<polygon fill="midnightblue" stroke="midnightblue" points="1560.38,-291.433 1570.93,-292.368 1563.27,-285.056 1560.38,-291.433"/>
</g>
<!-- Node28 -->
<g id="node28" class="node"><title>Node28</title>
<g id="a_node28"><a xlink:href="a00277.html" target="_top" xlink:title="collision_data.h">
<polygon fill="white" stroke="black" points="1653,-236.5 1653,-255.5 1737,-255.5 1737,-236.5 1653,-236.5"/>
<text text-anchor="middle" x="1695" y="-243.5" font-family="Helvetica,sans-Serif" font-size="10.00">collision_data.h</text>
</a>
</g>
</g>
<!-- Node1&#45;&gt;Node28 -->
<g id="edge47" class="edge"><title>Node1&#45;&gt;Node28</title>
<path fill="none" stroke="midnightblue" d="M1615.81,-287.726C1635.25,-277.727 1661.35,-264.307 1678.17,-255.655"/>
<polygon fill="midnightblue" stroke="midnightblue" points="1614.16,-284.638 1606.87,-292.324 1617.36,-290.863 1614.16,-284.638"/>
</g>
<!-- Node29 -->
<g id="node29" class="node"><title>Node29</title>
<g id="a_node29"><a xlink:href="a00276.html" target="_top" xlink:title="collision.h">
<polygon fill="white" stroke="black" points="1859,-180.5 1859,-199.5 1919,-199.5 1919,-180.5 1859,-180.5"/>
<text text-anchor="middle" x="1889" y="-187.5" font-family="Helvetica,sans-Serif" font-size="10.00">collision.h</text>
</a>
</g>
</g>
<!-- Node1&#45;&gt;Node29 -->
<g id="edge66" class="edge"><title>Node1&#45;&gt;Node29</title>
<path fill="none" stroke="midnightblue" d="M1634.36,-289.911C1665.65,-281.656 1708.35,-269.515 1745,-256 1792.09,-238.634 1845.44,-212.881 1872.04,-199.606"/>
<polygon fill="midnightblue" stroke="midnightblue" points="1633.41,-286.54 1624.62,-292.451 1635.18,-293.313 1633.41,-286.54"/>
</g>
<!-- Node30 -->
<g id="node30" class="node"><title>Node30</title>
<g id="a_node30"><a xlink:href="a00278.html" target="_top" xlink:title="collision_func_matrix.h">
<polygon fill="white" stroke="black" points="1937,-180.5 1937,-199.5 2053,-199.5 2053,-180.5 1937,-180.5"/>
<text text-anchor="middle" x="1995" y="-187.5" font-family="Helvetica,sans-Serif" font-size="10.00">collision_func_matrix.h</text>
</a>
</g>
</g>
<!-- Node1&#45;&gt;Node30 -->
<g id="edge67" class="edge"><title>Node1&#45;&gt;Node30</title>
<path fill="none" stroke="midnightblue" d="M1640.19,-290.286C1679.28,-281.703 1734.82,-268.987 1783,-256 1850.65,-237.766 1929.26,-212.605 1969.06,-199.583"/>
<polygon fill="midnightblue" stroke="midnightblue" points="1639.14,-286.932 1630.12,-292.485 1640.64,-293.771 1639.14,-286.932"/>
</g>
<!-- Node32 -->
<g id="node32" class="node"><title>Node32</title>
<g id="a_node32"><a xlink:href="a00282.html" target="_top" xlink:title="continuous_collision.h">
<polygon fill="white" stroke="black" points="2071.5,-180.5 2071.5,-199.5 2184.5,-199.5 2184.5,-180.5 2071.5,-180.5"/>
<text text-anchor="middle" x="2128" y="-187.5" font-family="Helvetica,sans-Serif" font-size="10.00">continuous_collision.h</text>
</a>
</g>
</g>
<!-- Node1&#45;&gt;Node32 -->
<g id="edge68" class="edge"><title>Node1&#45;&gt;Node32</title>
<path fill="none" stroke="midnightblue" d="M1646.32,-290.855C1694.81,-282.011 1766.61,-268.653 1829,-256 1923.23,-236.89 2033.68,-212.31 2090.31,-199.547"/>
<polygon fill="midnightblue" stroke="midnightblue" points="1645.55,-287.437 1636.34,-292.672 1646.8,-294.324 1645.55,-287.437"/>
</g>
<!-- Node33 -->
<g id="node33" class="node"><title>Node33</title>
<g id="a_node33"><a xlink:href="a00285.html" target="_top" xlink:title="distance.h">
<polygon fill="white" stroke="black" points="2203,-180.5 2203,-199.5 2265,-199.5 2265,-180.5 2203,-180.5"/>
<text text-anchor="middle" x="2234" y="-187.5" font-family="Helvetica,sans-Serif" font-size="10.00">distance.h</text>
</a>
</g>
</g>
<!-- Node1&#45;&gt;Node33 -->
<g id="edge69" class="edge"><title>Node1&#45;&gt;Node33</title>
<path fill="none" stroke="midnightblue" d="M1646.03,-293.08C1705.99,-284.478 1803.85,-270.075 1888,-256 2023.93,-233.263 2057.89,-227.223 2193,-200 2196.14,-199.367 2199.42,-198.685 2202.68,-197.991"/>
<polygon fill="midnightblue" stroke="midnightblue" points="1645.42,-289.631 1636.02,-294.513 1646.41,-296.561 1645.42,-289.631"/>
</g>
<!-- Node34 -->
<g id="node34" class="node"><title>Node34</title>
<g id="a_node34"><a xlink:href="a00286.html" target="_top" xlink:title="distance_func_matrix.h">
<polygon fill="white" stroke="black" points="2283,-180.5 2283,-199.5 2401,-199.5 2401,-180.5 2283,-180.5"/>
<text text-anchor="middle" x="2342" y="-187.5" font-family="Helvetica,sans-Serif" font-size="10.00">distance_func_matrix.h</text>
</a>
</g>
</g>
<!-- Node1&#45;&gt;Node34 -->
<g id="edge70" class="edge"><title>Node1&#45;&gt;Node34</title>
<path fill="none" stroke="midnightblue" d="M1646.54,-294.969C1719.21,-287.023 1849.23,-272.151 1960,-256 2081.82,-238.238 2224.68,-212.655 2296.25,-199.509"/>
<polygon fill="midnightblue" stroke="midnightblue" points="1645.8,-291.528 1636.24,-296.09 1646.56,-298.487 1645.8,-291.528"/>
</g>
<!-- Node36 -->
<g id="node36" class="node"><title>Node36</title>
<g id="a_node36"><a xlink:href="a00335.html" target="_top" xlink:title="octree.h">
<polygon fill="white" stroke="black" points="850,-236.5 850,-255.5 902,-255.5 902,-236.5 850,-236.5"/>
<text text-anchor="middle" x="876" y="-243.5" font-family="Helvetica,sans-Serif" font-size="10.00">octree.h</text>
</a>
</g>
</g>
<!-- Node1&#45;&gt;Node36 -->
<g id="edge71" class="edge"><title>Node1&#45;&gt;Node36</title>
<path fill="none" stroke="midnightblue" d="M1533.95,-296.761C1388.94,-285.794 1005.5,-256.794 902.039,-248.969"/>
<polygon fill="midnightblue" stroke="midnightblue" points="1533.74,-300.255 1543.98,-297.519 1534.27,-293.275 1533.74,-300.255"/>
</g>
<!-- Node3 -->
<g id="node3" class="node"><title>Node3</title>
<g id="a_node3"><a xlink:href="a00321.html" target="_top" xlink:title="model.h">
<polygon fill="white" stroke="black" points="401.5,-180.5 401.5,-199.5 452.5,-199.5 452.5,-180.5 401.5,-180.5"/>
<text text-anchor="middle" x="427" y="-187.5" font-family="Helvetica,sans-Serif" font-size="10.00">model.h</text>
</a>
</g>
</g>
<!-- Node2&#45;&gt;Node3 -->
<g id="edge2" class="edge"><title>Node2&#45;&gt;Node3</title>
<path fill="none" stroke="midnightblue" d="M544.295,-234.088C516.557,-223.899 475.722,-208.898 450.277,-199.551"/>
<polygon fill="midnightblue" stroke="midnightblue" points="543.275,-237.442 553.869,-237.605 545.689,-230.871 543.275,-237.442"/>
</g>
<!-- Node5 -->
<g id="node5" class="node"><title>Node5</title>
<g id="a_node5"><a xlink:href="a00259.html" target="_top" xlink:title="broadphase_bruteforce.h">
<polygon fill="white" stroke="black" points="512,-118.5 512,-137.5 636,-137.5 636,-118.5 512,-118.5"/>
<text text-anchor="middle" x="574" y="-125.5" font-family="Helvetica,sans-Serif" font-size="10.00">broadphase_bruteforce.h</text>
</a>
</g>
</g>
<!-- Node4&#45;&gt;Node5 -->
<g id="edge4" class="edge"><title>Node4&#45;&gt;Node5</title>
<path fill="none" stroke="midnightblue" d="M519.687,-172.863C530.97,-161.506 547.588,-146.752 559.664,-137.581"/>
<polygon fill="midnightblue" stroke="midnightblue" points="516.884,-170.733 512.556,-180.403 521.97,-175.543 516.884,-170.733"/>
</g>
<!-- Node6 -->
<g id="node6" class="node"><title>Node6</title>
<g id="a_node6"><a xlink:href="a00264.html" target="_top" xlink:title="broadphase_spatialhash.h">
<polygon fill="white" stroke="black" points="0,-118.5 0,-137.5 130,-137.5 130,-118.5 0,-118.5"/>
<text text-anchor="middle" x="65" y="-125.5" font-family="Helvetica,sans-Serif" font-size="10.00">broadphase_spatialhash.h</text>
</a>
</g>
</g>
<!-- Node4&#45;&gt;Node6 -->
<g id="edge6" class="edge"><title>Node4&#45;&gt;Node6</title>
<path fill="none" stroke="midnightblue" d="M460.525,-181.377C457.631,-180.885 454.772,-180.42 452,-180 309.62,-158.442 272.262,-166.326 130,-144 118.475,-142.191 106.019,-139.827 95.0509,-137.512"/>
<polygon fill="midnightblue" stroke="midnightblue" points="459.973,-184.834 470.428,-183.123 461.188,-177.94 459.973,-184.834"/>
</g>
<!-- Node7 -->
<g id="node7" class="node"><title>Node7</title>
<g id="a_node7"><a xlink:href="a00263.html" target="_top" xlink:title="broadphase_SaP.h">
<polygon fill="white" stroke="black" points="148.5,-118.5 148.5,-137.5 247.5,-137.5 247.5,-118.5 148.5,-118.5"/>
<text text-anchor="middle" x="198" y="-125.5" font-family="Helvetica,sans-Serif" font-size="10.00">broadphase_SaP.h</text>
</a>
</g>
</g>
<!-- Node4&#45;&gt;Node7 -->
<g id="edge8" class="edge"><title>Node4&#45;&gt;Node7</title>
<path fill="none" stroke="midnightblue" d="M460.491,-181.575C457.605,-181.037 454.758,-180.507 452,-180 361.452,-163.342 338.01,-163.356 248,-144 239.114,-142.089 229.54,-139.769 221.084,-137.531"/>
<polygon fill="midnightblue" stroke="midnightblue" points="459.909,-185.027 470.38,-183.413 461.188,-178.145 459.909,-185.027"/>
</g>
<!-- Node8 -->
<g id="node8" class="node"><title>Node8</title>
<g id="a_node8"><a xlink:href="a00266.html" target="_top" xlink:title="broadphase_SSaP.h">
<polygon fill="white" stroke="black" points="266,-118.5 266,-137.5 372,-137.5 372,-118.5 266,-118.5"/>
<text text-anchor="middle" x="319" y="-125.5" font-family="Helvetica,sans-Serif" font-size="10.00">broadphase_SSaP.h</text>
</a>
</g>
</g>
<!-- Node4&#45;&gt;Node8 -->
<g id="edge10" class="edge"><title>Node4&#45;&gt;Node8</title>
<path fill="none" stroke="midnightblue" d="M466.103,-177.432C427.478,-165.771 371.823,-148.044 341.132,-137.581"/>
<polygon fill="midnightblue" stroke="midnightblue" points="465.436,-180.886 476.02,-180.403 467.446,-174.181 465.436,-180.886"/>
</g>
<!-- Node9 -->
<g id="node9" class="node"><title>Node9</title>
<g id="a_node9"><a xlink:href="a00262.html" target="_top" xlink:title="broadphase_interval\l_tree.h">
<polygon fill="white" stroke="black" points="390,-113 390,-143 494,-143 494,-113 390,-113"/>
<text text-anchor="start" x="398" y="-131" font-family="Helvetica,sans-Serif" font-size="10.00">broadphase_interval</text>
<text text-anchor="middle" x="442" y="-120" font-family="Helvetica,sans-Serif" font-size="10.00">_tree.h</text>
</a>
</g>
</g>
<!-- Node4&#45;&gt;Node9 -->
<g id="edge12" class="edge"><title>Node4&#45;&gt;Node9</title>
<path fill="none" stroke="midnightblue" d="M485.651,-174.071C474.115,-164.61 460.768,-152.447 451.725,-143.141"/>
<polygon fill="midnightblue" stroke="midnightblue" points="483.632,-176.937 493.643,-180.403 487.979,-171.45 483.632,-176.937"/>
</g>
<!-- Node10 -->
<g id="node10" class="node"><title>Node10</title>
<g id="a_node10"><a xlink:href="a00260.html" target="_top" xlink:title="broadphase_dynamic\l_AABB_tree.h">
<polygon fill="white" stroke="black" points="781.5,-113 781.5,-143 890.5,-143 890.5,-113 781.5,-113"/>
<text text-anchor="start" x="789.5" y="-131" font-family="Helvetica,sans-Serif" font-size="10.00">broadphase_dynamic</text>
<text text-anchor="middle" x="836" y="-120" font-family="Helvetica,sans-Serif" font-size="10.00">_AABB_tree.h</text>
</a>
</g>
</g>
<!-- Node4&#45;&gt;Node10 -->
<g id="edge14" class="edge"><title>Node4&#45;&gt;Node10</title>
<path fill="none" stroke="midnightblue" d="M555.799,-180.684C607.195,-172.308 690.947,-158.57 763,-144 768.928,-142.801 775.145,-141.456 781.357,-140.076"/>
<polygon fill="midnightblue" stroke="midnightblue" points="554.959,-177.274 545.652,-182.337 556.084,-184.183 554.959,-177.274"/>
</g>
<!-- Node11 -->
<g id="node11" class="node"><title>Node11</title>
<g id="a_node11"><a xlink:href="a00261.html" target="_top" xlink:title="broadphase_dynamic\l_AABB_tree_array.h">
<polygon fill="white" stroke="black" points="654.5,-113 654.5,-143 763.5,-143 763.5,-113 654.5,-113"/>
<text text-anchor="start" x="662.5" y="-131" font-family="Helvetica,sans-Serif" font-size="10.00">broadphase_dynamic</text>
<text text-anchor="middle" x="709" y="-120" font-family="Helvetica,sans-Serif" font-size="10.00">_AABB_tree_array.h</text>
</a>
</g>
</g>
<!-- Node4&#45;&gt;Node11 -->
<g id="edge16" class="edge"><title>Node4&#45;&gt;Node11</title>
<path fill="none" stroke="midnightblue" d="M541.474,-177.376C572.779,-167.558 619.862,-153.468 656.2,-143.025"/>
<polygon fill="midnightblue" stroke="midnightblue" points="540.377,-174.052 531.898,-180.403 542.488,-180.726 540.377,-174.052"/>
</g>
<!-- Node5&#45;&gt;Node4 -->
<g id="edge5" class="edge"><title>Node5&#45;&gt;Node4</title>
<path fill="none" stroke="midnightblue" d="M562.333,-145.117C551.056,-156.47 534.438,-171.225 522.357,-180.403"/>
<polygon fill="midnightblue" stroke="midnightblue" points="565.131,-147.252 569.458,-137.581 560.045,-142.442 565.131,-147.252"/>
</g>
<!-- Node6&#45;&gt;Node4 -->
<g id="edge7" class="edge"><title>Node6&#45;&gt;Node4</title>
<path fill="none" stroke="midnightblue" d="M122.324,-139.464C130.952,-141.113 139.716,-142.7 148,-144 290.262,-166.326 327.62,-158.442 470,-180 470.986,-180.149 471.982,-180.304 472.986,-180.464"/>
<polygon fill="midnightblue" stroke="midnightblue" points="122.779,-135.987 112.295,-137.512 121.442,-142.858 122.779,-135.987"/>
</g>
<!-- Node7&#45;&gt;Node4 -->
<g id="edge9" class="edge"><title>Node7&#45;&gt;Node4</title>
<path fill="none" stroke="midnightblue" d="M248.37,-139.953C254.332,-141.384 260.307,-142.776 266,-144 356.01,-163.356 379.452,-163.342 470,-180 470.817,-180.15 471.642,-180.303 472.473,-180.457"/>
<polygon fill="midnightblue" stroke="midnightblue" points="248.945,-136.491 238.401,-137.531 247.292,-143.293 248.945,-136.491"/>
</g>
<!-- Node8&#45;&gt;Node4 -->
<g id="edge11" class="edge"><title>Node8&#45;&gt;Node4</title>
<path fill="none" stroke="midnightblue" d="M360.838,-140.55C399.446,-152.205 455.105,-169.933 485.821,-180.403"/>
<polygon fill="midnightblue" stroke="midnightblue" points="361.51,-137.098 350.926,-137.581 359.501,-143.803 361.51,-137.098"/>
</g>
<!-- Node9&#45;&gt;Node4 -->
<g id="edge13" class="edge"><title>Node9&#45;&gt;Node4</title>
<path fill="none" stroke="midnightblue" d="M471.27,-149.74C483.513,-160.245 496.397,-172.429 503.444,-180.403"/>
<polygon fill="midnightblue" stroke="midnightblue" points="473.3,-146.875 463.385,-143.141 468.807,-152.243 473.3,-146.875"/>
</g>
<!-- Node10&#45;&gt;Node4 -->
<g id="edge15" class="edge"><title>Node10&#45;&gt;Node4</title>
<path fill="none" stroke="midnightblue" d="M775.895,-144.999C690.314,-162.022 596.566,-176.895 545.526,-184.223"/>
<polygon fill="midnightblue" stroke="midnightblue" points="776.634,-148.42 785.75,-143.021 775.257,-141.557 776.634,-148.42"/>
</g>
<!-- Node11&#45;&gt;Node4 -->
<g id="edge17" class="edge"><title>Node11&#45;&gt;Node4</title>
<path fill="none" stroke="midnightblue" d="M657.872,-146.101C621.407,-157.311 573.493,-171.488 541.699,-180.403"/>
<polygon fill="midnightblue" stroke="midnightblue" points="659.309,-149.321 667.83,-143.025 657.243,-142.633 659.309,-149.321"/>
</g>
<!-- Node13 -->
<g id="node13" class="node"><title>Node13</title>
<g id="a_node13"><a xlink:href="a00293.html" target="_top" xlink:title="geometric_shapes_utility.h">
<polygon fill="white" stroke="black" points="809.5,-180.5 809.5,-199.5 942.5,-199.5 942.5,-180.5 809.5,-180.5"/>
<text text-anchor="middle" x="876" y="-187.5" font-family="Helvetica,sans-Serif" font-size="10.00">geometric_shapes_utility.h</text>
</a>
</g>
</g>
<!-- Node12&#45;&gt;Node13 -->
<g id="edge19" class="edge"><title>Node12&#45;&gt;Node13</title>
<path fill="none" stroke="midnightblue" d="M1046.24,-233.959C1005.83,-223.76 946.627,-208.822 909.75,-199.516"/>
<polygon fill="midnightblue" stroke="midnightblue" points="1045.54,-237.39 1056.09,-236.444 1047.25,-230.603 1045.54,-237.39"/>
</g>
<!-- Node14 -->
<g id="node14" class="node"><title>Node14</title>
<g id="a_node14"><a xlink:href="a00350.html" target="_top" xlink:title="traversal_node_bvh\l_shape.h">
<polygon fill="white" stroke="black" points="1330.5,-113 1330.5,-143 1431.5,-143 1431.5,-113 1330.5,-113"/>
<text text-anchor="start" x="1338.5" y="-131" font-family="Helvetica,sans-Serif" font-size="10.00">traversal_node_bvh</text>
<text text-anchor="middle" x="1381" y="-120" font-family="Helvetica,sans-Serif" font-size="10.00">_shape.h</text>
</a>
</g>
</g>
<!-- Node12&#45;&gt;Node14 -->
<g id="edge35" class="edge"><title>Node12&#45;&gt;Node14</title>
<path fill="none" stroke="midnightblue" d="M1130.14,-233.626C1157.77,-225.358 1195.11,-213.318 1227,-200 1244.98,-192.493 1248.42,-188.396 1266,-180 1293.39,-166.915 1324.94,-153.004 1348.06,-143.021"/>
<polygon fill="midnightblue" stroke="midnightblue" points="1129.03,-230.306 1120.43,-236.497 1131.01,-237.019 1129.03,-230.306"/>
</g>
<!-- Node18 -->
<g id="node18" class="node"><title>Node18</title>
<g id="a_node18"><a xlink:href="a00294.html" target="_top" xlink:title="gjk.h">
<polygon fill="white" stroke="black" points="1047,-180.5 1047,-199.5 1085,-199.5 1085,-180.5 1047,-180.5"/>
<text text-anchor="middle" x="1066" y="-187.5" font-family="Helvetica,sans-Serif" font-size="10.00">gjk.h</text>
</a>
</g>
</g>
<!-- Node12&#45;&gt;Node18 -->
<g id="edge28" class="edge"><title>Node12&#45;&gt;Node18</title>
<path fill="none" stroke="midnightblue" d="M1081.86,-226.69C1077.82,-217.589 1073.12,-207.014 1069.89,-199.751"/>
<polygon fill="midnightblue" stroke="midnightblue" points="1078.78,-228.366 1086.04,-236.083 1085.17,-225.523 1078.78,-228.366"/>
</g>
<!-- Node20 -->
<g id="node20" class="node"><title>Node20</title>
<g id="a_node20"><a xlink:href="a00295.html" target="_top" xlink:title="gjk_libccd.h">
<polygon fill="white" stroke="black" points="961,-180.5 961,-199.5 1029,-199.5 1029,-180.5 961,-180.5"/>
<text text-anchor="middle" x="995" y="-187.5" font-family="Helvetica,sans-Serif" font-size="10.00">gjk_libccd.h</text>
</a>
</g>
</g>
<!-- Node12&#45;&gt;Node20 -->
<g id="edge32" class="edge"><title>Node12&#45;&gt;Node20</title>
<path fill="none" stroke="midnightblue" d="M1065.68,-231.177C1048.2,-221.241 1025.17,-208.149 1010.23,-199.655"/>
<polygon fill="midnightblue" stroke="midnightblue" points="1064.31,-234.425 1074.74,-236.324 1067.77,-228.339 1064.31,-234.425"/>
</g>
<!-- Node21 -->
<g id="node21" class="node"><title>Node21</title>
<g id="a_node21"><a xlink:href="a00291.html" target="_top" xlink:title="geometric_shape_to\l_BVH_model.h">
<polygon fill="white" stroke="black" points="1121,-113 1121,-143 1225,-143 1225,-113 1121,-113"/>
<text text-anchor="start" x="1129" y="-131" font-family="Helvetica,sans-Serif" font-size="10.00">geometric_shape_to</text>
<text text-anchor="middle" x="1173" y="-120" font-family="Helvetica,sans-Serif" font-size="10.00">_BVH_model.h</text>
</a>
</g>
</g>
<!-- Node12&#45;&gt;Node21 -->
<g id="edge34" class="edge"><title>Node12&#45;&gt;Node21</title>
<path fill="none" stroke="midnightblue" d="M1100.44,-227.802C1108.66,-214.509 1120.61,-195.777 1132,-180 1141.18,-167.29 1152.38,-153.463 1160.75,-143.416"/>
<polygon fill="midnightblue" stroke="midnightblue" points="1097.41,-226.045 1095.16,-236.399 1103.37,-229.704 1097.41,-226.045"/>
</g>
<!-- Node13&#45;&gt;Node10 -->
<g id="edge20" class="edge"><title>Node13&#45;&gt;Node10</title>
<path fill="none" stroke="midnightblue" d="M864.547,-171.82C858.492,-162.738 851.149,-151.724 845.427,-143.141"/>
<polygon fill="midnightblue" stroke="midnightblue" points="861.81,-174.024 870.269,-180.403 867.634,-170.141 861.81,-174.024"/>
</g>
<!-- Node13&#45;&gt;Node11 -->
<g id="edge21" class="edge"><title>Node13&#45;&gt;Node11</title>
<path fill="none" stroke="midnightblue" d="M842.575,-176.991C815.302,-167.192 776.726,-153.333 748.037,-143.025"/>
<polygon fill="midnightblue" stroke="midnightblue" points="841.478,-180.316 852.073,-180.403 843.845,-173.728 841.478,-180.316"/>
</g>
<!-- Node13&#45;&gt;Node14 -->
<g id="edge22" class="edge"><title>Node13&#45;&gt;Node14</title>
<path fill="none" stroke="midnightblue" d="M952.709,-179.886C1057.23,-167.468 1241.52,-145.571 1330.34,-135.019"/>
<polygon fill="midnightblue" stroke="midnightblue" points="952.056,-176.439 942.539,-181.094 952.882,-183.39 952.056,-176.439"/>
</g>
<!-- Node16 -->
<g id="node16" class="node"><title>Node16</title>
<g id="a_node16"><a xlink:href="a00352.html" target="_top" xlink:title="traversal_node_octree.h">
<polygon fill="white" stroke="black" points="1002.5,-56.5 1002.5,-75.5 1123.5,-75.5 1123.5,-56.5 1002.5,-56.5"/>
<text text-anchor="middle" x="1063" y="-63.5" font-family="Helvetica,sans-Serif" font-size="10.00">traversal_node_octree.h</text>
</a>
</g>
</g>
<!-- Node13&#45;&gt;Node16 -->
<g id="edge24" class="edge"><title>Node13&#45;&gt;Node16</title>
<path fill="none" stroke="midnightblue" d="M894.634,-174.18C915.227,-158.079 949.64,-131.983 981,-112 1002.77,-98.1249 1029.13,-84.1262 1045.98,-75.5098"/>
<polygon fill="midnightblue" stroke="midnightblue" points="892.397,-171.487 886.703,-180.422 896.726,-176.987 892.397,-171.487"/>
</g>
<!-- Node17 -->
<g id="node17" class="node"><title>Node17</title>
<g id="a_node17"><a xlink:href="a00354.html" target="_top" xlink:title="traversal_node_shapes.h">
<polygon fill="white" stroke="black" points="1141.5,-56.5 1141.5,-75.5 1266.5,-75.5 1266.5,-56.5 1141.5,-56.5"/>
<text text-anchor="middle" x="1204" y="-63.5" font-family="Helvetica,sans-Serif" font-size="10.00">traversal_node_shapes.h</text>
</a>
</g>
</g>
<!-- Node13&#45;&gt;Node17 -->
<g id="edge26" class="edge"><title>Node13&#45;&gt;Node17</title>
<path fill="none" stroke="midnightblue" d="M907.624,-176.5C927.053,-168.298 952.131,-156.753 973,-144 992.724,-131.947 993.162,-122.005 1014,-112 1054.18,-92.7053 1103.22,-81.3593 1141.41,-74.8869"/>
<polygon fill="midnightblue" stroke="midnightblue" points="906.206,-173.299 898.308,-180.361 908.886,-179.766 906.206,-173.299"/>
</g>
<!-- Node15 -->
<g id="node15" class="node"><title>Node15</title>
<g id="a_node15"><a xlink:href="a00353.html" target="_top" xlink:title="traversal_node_setup.h">
<polygon fill="white" stroke="black" points="1263,-0.5 1263,-19.5 1381,-19.5 1381,-0.5 1263,-0.5"/>
<text text-anchor="middle" x="1322" y="-7.5" font-family="Helvetica,sans-Serif" font-size="10.00">traversal_node_setup.h</text>
</a>
</g>
</g>
<!-- Node14&#45;&gt;Node15 -->
<g id="edge23" class="edge"><title>Node14&#45;&gt;Node15</title>
<path fill="none" stroke="midnightblue" d="M1380.21,-102.749C1378.88,-88.4373 1375.64,-70.3714 1368,-56 1359.92,-40.8094 1344.92,-27.6105 1334.24,-19.5042"/>
<polygon fill="midnightblue" stroke="midnightblue" points="1376.72,-103.1 1380.9,-112.838 1383.71,-102.623 1376.72,-103.1"/>
</g>
<!-- Node16&#45;&gt;Node15 -->
<g id="edge25" class="edge"><title>Node16&#45;&gt;Node15</title>
<path fill="none" stroke="midnightblue" d="M1114.1,-54.3456C1163.05,-44.1405 1235.95,-28.94 1281.15,-19.5164"/>
<polygon fill="midnightblue" stroke="midnightblue" points="1113.11,-50.9761 1104.04,-56.4435 1114.54,-57.8287 1113.11,-50.9761"/>
</g>
<!-- Node17&#45;&gt;Node15 -->
<g id="edge27" class="edge"><title>Node17&#45;&gt;Node15</title>
<path fill="none" stroke="midnightblue" d="M1231.9,-52.2321C1253.97,-42.1312 1284.18,-28.3091 1303.39,-19.5164"/>
<polygon fill="midnightblue" stroke="midnightblue" points="1230.33,-49.0997 1222.7,-56.4435 1233.25,-55.4648 1230.33,-49.0997"/>
</g>
<!-- Node19 -->
<g id="node19" class="node"><title>Node19</title>
<g id="a_node19"><a xlink:href="a00326.html" target="_top" xlink:title="narrowphase.h">
<polygon fill="white" stroke="black" points="1023,-118.5 1023,-137.5 1103,-137.5 1103,-118.5 1023,-118.5"/>
<text text-anchor="middle" x="1063" y="-125.5" font-family="Helvetica,sans-Serif" font-size="10.00">narrowphase.h</text>
</a>
</g>
</g>
<!-- Node18&#45;&gt;Node19 -->
<g id="edge29" class="edge"><title>Node18&#45;&gt;Node19</title>
<path fill="none" stroke="midnightblue" d="M1065.06,-170.16C1064.51,-159.248 1063.85,-146.04 1063.43,-137.581"/>
<polygon fill="midnightblue" stroke="midnightblue" points="1061.58,-170.591 1065.57,-180.403 1068.57,-170.241 1061.58,-170.591"/>
</g>
<!-- Node19&#45;&gt;Node16 -->
<g id="edge30" class="edge"><title>Node19&#45;&gt;Node16</title>
<path fill="none" stroke="midnightblue" d="M1063,-108.16C1063,-97.2482 1063,-84.04 1063,-75.5806"/>
<polygon fill="midnightblue" stroke="midnightblue" points="1059.5,-108.403 1063,-118.403 1066.5,-108.403 1059.5,-108.403"/>
</g>
<!-- Node19&#45;&gt;Node17 -->
<g id="edge31" class="edge"><title>Node19&#45;&gt;Node17</title>
<path fill="none" stroke="midnightblue" d="M1092.67,-114.374C1120.05,-102.721 1159.98,-85.7319 1183.84,-75.5806"/>
<polygon fill="midnightblue" stroke="midnightblue" points="1091.03,-111.267 1083.2,-118.403 1093.77,-117.708 1091.03,-111.267"/>
</g>
<!-- Node20&#45;&gt;Node19 -->
<g id="edge33" class="edge"><title>Node20&#45;&gt;Node19</title>
<path fill="none" stroke="midnightblue" d="M1012.54,-173.521C1025.51,-162.082 1042.68,-146.93 1053.28,-137.581"/>
<polygon fill="midnightblue" stroke="midnightblue" points="1009.93,-171.163 1004.74,-180.403 1014.56,-176.412 1009.93,-171.163"/>
</g>
<!-- Node22&#45;&gt;Node14 -->
<g id="edge44" class="edge"><title>Node22&#45;&gt;Node14</title>
<path fill="none" stroke="midnightblue" d="M1218.51,-177.503C1251.42,-167.68 1298.88,-153.514 1334.02,-143.025"/>
<polygon fill="midnightblue" stroke="midnightblue" points="1217.38,-174.189 1208.8,-180.403 1219.38,-180.897 1217.38,-174.189"/>
</g>
<!-- Node22&#45;&gt;Node16 -->
<g id="edge45" class="edge"><title>Node22&#45;&gt;Node16</title>
<path fill="none" stroke="midnightblue" d="M1205.18,-175C1216.19,-167.401 1227.96,-156.906 1234,-144 1240.03,-131.121 1242.68,-123.264 1234,-112 1220.41,-94.3733 1167.36,-82.2776 1123.9,-75.1023"/>
<polygon fill="midnightblue" stroke="midnightblue" points="1203.17,-172.128 1196.63,-180.464 1206.94,-178.025 1203.17,-172.128"/>
</g>
<!-- Node22&#45;&gt;Node21 -->
<g id="edge43" class="edge"><title>Node22&#45;&gt;Node21</title>
<path fill="none" stroke="midnightblue" d="M1177.83,-170.371C1176.8,-161.585 1175.6,-151.272 1174.65,-143.141"/>
<polygon fill="midnightblue" stroke="midnightblue" points="1174.36,-170.876 1179,-180.403 1181.31,-170.065 1174.36,-170.876"/>
</g>
<!-- Node23 -->
<g id="node23" class="node"><title>Node23</title>
<g id="a_node23"><a xlink:href="a00274.html" target="_top" xlink:title="BVH_utility.h">
<polygon fill="white" stroke="black" points="1285,-56.5 1285,-75.5 1359,-75.5 1359,-56.5 1285,-56.5"/>
<text text-anchor="middle" x="1322" y="-63.5" font-family="Helvetica,sans-Serif" font-size="10.00">BVH_utility.h</text>
</a>
</g>
</g>
<!-- Node22&#45;&gt;Node23 -->
<g id="edge37" class="edge"><title>Node22&#45;&gt;Node23</title>
<path fill="none" stroke="midnightblue" d="M1204.75,-175.47C1218.92,-167.213 1236.66,-155.965 1251,-144 1277.25,-122.097 1303.23,-90.8377 1315.19,-75.7763"/>
<polygon fill="midnightblue" stroke="midnightblue" points="1202.99,-172.448 1196.04,-180.442 1206.46,-178.528 1202.99,-172.448"/>
</g>
<!-- Node24 -->
<g id="node24" class="node"><title>Node24</title>
<g id="a_node24"><a xlink:href="a00351.html" target="_top" xlink:title="traversal_node_bvhs.h">
<polygon fill="white" stroke="black" points="1643.5,-118.5 1643.5,-137.5 1758.5,-137.5 1758.5,-118.5 1643.5,-118.5"/>
<text text-anchor="middle" x="1701" y="-125.5" font-family="Helvetica,sans-Serif" font-size="10.00">traversal_node_bvhs.h</text>
</a>
</g>
</g>
<!-- Node22&#45;&gt;Node24 -->
<g id="edge39" class="edge"><title>Node22&#45;&gt;Node24</title>
<path fill="none" stroke="midnightblue" d="M1228.8,-183.38C1325.34,-172.263 1540.23,-147.515 1643.46,-135.626"/>
<polygon fill="midnightblue" stroke="midnightblue" points="1228.27,-179.918 1218.73,-184.539 1229.07,-186.872 1228.27,-179.918"/>
</g>
<!-- Node23&#45;&gt;Node15 -->
<g id="edge38" class="edge"><title>Node23&#45;&gt;Node15</title>
<path fill="none" stroke="midnightblue" d="M1322,-45.8045C1322,-36.9102 1322,-26.7798 1322,-19.7511"/>
<polygon fill="midnightblue" stroke="midnightblue" points="1318.5,-46.083 1322,-56.083 1325.5,-46.083 1318.5,-46.083"/>
</g>
<!-- Node24&#45;&gt;Node15 -->
<g id="edge41" class="edge"><title>Node24&#45;&gt;Node15</title>
<path fill="none" stroke="midnightblue" d="M1698.35,-108.225C1694.97,-91.7394 1687.45,-68.4956 1671,-56 1626.67,-22.326 1468.58,-13.791 1381.17,-11.6681"/>
<polygon fill="midnightblue" stroke="midnightblue" points="1694.94,-109.078 1700.08,-118.342 1701.84,-107.895 1694.94,-109.078"/>
</g>
<!-- Node25 -->
<g id="node25" class="node"><title>Node25</title>
<g id="a_node25"><a xlink:href="a00279.html" target="_top" xlink:title="collision_node.h">
<polygon fill="white" stroke="black" points="1576,-56.5 1576,-75.5 1662,-75.5 1662,-56.5 1576,-56.5"/>
<text text-anchor="middle" x="1619" y="-63.5" font-family="Helvetica,sans-Serif" font-size="10.00">collision_node.h</text>
</a>
</g>
</g>
<!-- Node24&#45;&gt;Node25 -->
<g id="edge40" class="edge"><title>Node24&#45;&gt;Node25</title>
<path fill="none" stroke="midnightblue" d="M1681.17,-112.492C1665.4,-100.952 1643.87,-85.1976 1630.73,-75.5806"/>
<polygon fill="midnightblue" stroke="midnightblue" points="1679.11,-115.323 1689.25,-118.403 1683.25,-109.674 1679.11,-115.323"/>
</g>
<!-- Node26 -->
<g id="node26" class="node"><title>Node26</title>
<g id="a_node26"><a xlink:href="a00355.html" target="_top" xlink:title="traversal_recurse.h">
<polygon fill="white" stroke="black" points="1733,-56.5 1733,-75.5 1833,-75.5 1833,-56.5 1733,-56.5"/>
<text text-anchor="middle" x="1783" y="-63.5" font-family="Helvetica,sans-Serif" font-size="10.00">traversal_recurse.h</text>
</a>
</g>
</g>
<!-- Node24&#45;&gt;Node26 -->
<g id="edge42" class="edge"><title>Node24&#45;&gt;Node26</title>
<path fill="none" stroke="midnightblue" d="M1720.83,-112.492C1736.6,-100.952 1758.13,-85.1976 1771.27,-75.5806"/>
<polygon fill="midnightblue" stroke="midnightblue" points="1718.75,-109.674 1712.75,-118.403 1722.89,-115.323 1718.75,-109.674"/>
</g>
<!-- Node28&#45;&gt;Node14 -->
<g id="edge62" class="edge"><title>Node28&#45;&gt;Node14</title>
<path fill="none" stroke="midnightblue" d="M1642.51,-241.415C1595.7,-236.627 1526.23,-225.536 1471,-200 1440.47,-185.885 1411.03,-159.464 1394.54,-143.136"/>
<polygon fill="midnightblue" stroke="midnightblue" points="1642.44,-244.924 1652.73,-242.396 1643.11,-237.956 1642.44,-244.924"/>
</g>
<!-- Node28&#45;&gt;Node16 -->
<g id="edge63" class="edge"><title>Node28&#45;&gt;Node16</title>
<path fill="none" stroke="midnightblue" d="M1642.82,-239.6C1606.32,-233.977 1557.58,-222.644 1520,-200 1474.73,-172.718 1487.01,-136.167 1440,-112 1317.82,-49.1887 1269.35,-92.7597 1133,-76 1129.96,-75.6263 1126.85,-75.2398 1123.7,-74.8465"/>
<polygon fill="midnightblue" stroke="midnightblue" points="1642.38,-243.071 1652.77,-241.039 1643.38,-236.143 1642.38,-243.071"/>
</g>
<!-- Node28&#45;&gt;Node17 -->
<g id="edge64" class="edge"><title>Node28&#45;&gt;Node17</title>
<path fill="none" stroke="midnightblue" d="M1642.65,-237.973C1611.54,-231.835 1572.54,-220.538 1543,-200 1502.86,-172.091 1518.8,-137.359 1477,-112 1459.29,-101.255 1341.49,-84.5586 1266.53,-74.8099"/>
<polygon fill="midnightblue" stroke="midnightblue" points="1642.4,-241.486 1652.87,-239.863 1643.67,-234.602 1642.4,-241.486"/>
</g>
<!-- Node28&#45;&gt;Node24 -->
<g id="edge58" class="edge"><title>Node28&#45;&gt;Node24</title>
<path fill="none" stroke="midnightblue" d="M1695.98,-226.025C1697.3,-200.464 1699.6,-156.041 1700.56,-137.505"/>
<polygon fill="midnightblue" stroke="midnightblue" points="1692.47,-226.114 1695.45,-236.281 1699.46,-226.475 1692.47,-226.114"/>
</g>
<!-- Node28&#45;&gt;Node27 -->
<g id="edge48" class="edge"><title>Node28&#45;&gt;Node27</title>
<path fill="none" stroke="midnightblue" d="M1642.67,-236.88C1577.84,-226.82 1467.89,-209.759 1401.89,-199.518"/>
<polygon fill="midnightblue" stroke="midnightblue" points="1642.26,-240.358 1652.68,-238.433 1643.33,-233.44 1642.26,-240.358"/>
</g>
<!-- Node28&#45;&gt;Node29 -->
<g id="edge49" class="edge"><title>Node28&#45;&gt;Node29</title>
<path fill="none" stroke="midnightblue" d="M1735.63,-233.69C1772.36,-223.466 1825.61,-208.645 1858.72,-199.428"/>
<polygon fill="midnightblue" stroke="midnightblue" points="1734.44,-230.39 1725.74,-236.444 1736.31,-237.134 1734.44,-230.39"/>
</g>
<!-- Node28&#45;&gt;Node30 -->
<g id="edge50" class="edge"><title>Node28&#45;&gt;Node30</title>
<path fill="none" stroke="midnightblue" d="M1747.18,-235.607C1803.68,-225.438 1893,-209.36 1947.57,-199.538"/>
<polygon fill="midnightblue" stroke="midnightblue" points="1746.25,-232.218 1737.03,-237.435 1747.49,-239.108 1746.25,-232.218"/>
</g>
<!-- Node31 -->
<g id="node31" class="node"><title>Node31</title>
<g id="a_node31"><a xlink:href="a00349.html" target="_top" xlink:title="traversal_node_base.h">
<polygon fill="white" stroke="black" points="1551.5,-180.5 1551.5,-199.5 1666.5,-199.5 1666.5,-180.5 1551.5,-180.5"/>
<text text-anchor="middle" x="1609" y="-187.5" font-family="Helvetica,sans-Serif" font-size="10.00">traversal_node_base.h</text>
</a>
</g>
</g>
<!-- Node28&#45;&gt;Node31 -->
<g id="edge51" class="edge"><title>Node28&#45;&gt;Node31</title>
<path fill="none" stroke="midnightblue" d="M1672.55,-230.901C1656.78,-220.999 1636.19,-208.071 1622.78,-199.655"/>
<polygon fill="midnightblue" stroke="midnightblue" points="1670.85,-233.97 1681.18,-236.324 1674.57,-228.042 1670.85,-233.97"/>
</g>
<!-- Node28&#45;&gt;Node32 -->
<g id="edge59" class="edge"><title>Node28&#45;&gt;Node32</title>
<path fill="none" stroke="midnightblue" d="M1747.04,-238.788C1818.03,-230.271 1949.19,-214.383 2061,-200 2064.38,-199.566 2067.85,-199.114 2071.35,-198.655"/>
<polygon fill="midnightblue" stroke="midnightblue" points="1746.52,-235.324 1737.01,-239.99 1747.36,-242.275 1746.52,-235.324"/>
</g>
<!-- Node28&#45;&gt;Node33 -->
<g id="edge60" class="edge"><title>Node28&#45;&gt;Node33</title>
<path fill="none" stroke="midnightblue" d="M1747.25,-242.449C1838.23,-237.524 2031.49,-224.922 2193,-200 2196.17,-199.511 2199.46,-198.924 2202.74,-198.288"/>
<polygon fill="midnightblue" stroke="midnightblue" points="1746.99,-238.958 1737.19,-242.985 1747.36,-245.948 1746.99,-238.958"/>
</g>
<!-- Node28&#45;&gt;Node34 -->
<g id="edge61" class="edge"><title>Node28&#45;&gt;Node34</title>
<path fill="none" stroke="midnightblue" d="M1747.11,-241.854C1848.52,-235.531 2079.43,-220.146 2273,-200 2276.24,-199.662 2279.57,-199.296 2282.93,-198.91"/>
<polygon fill="midnightblue" stroke="midnightblue" points="1746.9,-238.361 1737.13,-242.473 1747.33,-245.348 1746.9,-238.361"/>
</g>
<!-- Node35 -->
<g id="node35" class="node"><title>Node35</title>
<g id="a_node35"><a xlink:href="a00287.html" target="_top" xlink:title="distance_func_matrix.h">
<polygon fill="white" stroke="black" points="1723,-180.5 1723,-199.5 1841,-199.5 1841,-180.5 1723,-180.5"/>
<text text-anchor="middle" x="1782" y="-187.5" font-family="Helvetica,sans-Serif" font-size="10.00">distance_func_matrix.h</text>
</a>
</g>
</g>
<!-- Node28&#45;&gt;Node35 -->
<g id="edge65" class="edge"><title>Node28&#45;&gt;Node35</title>
<path fill="none" stroke="midnightblue" d="M1717.72,-230.901C1733.67,-220.999 1754.5,-208.071 1768.06,-199.655"/>
<polygon fill="midnightblue" stroke="midnightblue" points="1715.63,-228.077 1708.98,-236.324 1719.32,-234.024 1715.63,-228.077"/>
</g>
<!-- Node31&#45;&gt;Node14 -->
<g id="edge54" class="edge"><title>Node31&#45;&gt;Node14</title>
<path fill="none" stroke="midnightblue" d="M1566.55,-177.829C1528.37,-167.782 1472.21,-153.003 1431.69,-142.339"/>
<polygon fill="midnightblue" stroke="midnightblue" points="1565.77,-181.243 1576.33,-180.403 1567.55,-174.474 1565.77,-181.243"/>
</g>
<!-- Node31&#45;&gt;Node16 -->
<g id="edge55" class="edge"><title>Node31&#45;&gt;Node16</title>
<path fill="none" stroke="midnightblue" d="M1590.03,-174.398C1565.45,-156.342 1520.57,-126.253 1477,-112 1330.9,-64.2024 1285.69,-93.8028 1133,-76 1129.96,-75.6452 1126.84,-75.274 1123.7,-74.8927"/>
<polygon fill="midnightblue" stroke="midnightblue" points="1588.03,-177.267 1598.13,-180.454 1592.22,-171.662 1588.03,-177.267"/>
</g>
<!-- Node31&#45;&gt;Node17 -->
<g id="edge56" class="edge"><title>Node31&#45;&gt;Node17</title>
<path fill="none" stroke="midnightblue" d="M1601.23,-171.032C1592.36,-152.893 1576.05,-125.663 1553,-112 1551.47,-111.092 1366.94,-87.624 1266.86,-74.9484"/>
<polygon fill="midnightblue" stroke="midnightblue" points="1598.12,-172.645 1605.48,-180.261 1604.47,-169.714 1598.12,-172.645"/>
</g>
<!-- Node31&#45;&gt;Node24 -->
<g id="edge53" class="edge"><title>Node31&#45;&gt;Node24</title>
<path fill="none" stroke="midnightblue" d="M1630.76,-174.811C1648.49,-163.244 1672.96,-147.287 1687.84,-137.581"/>
<polygon fill="midnightblue" stroke="midnightblue" points="1628.65,-172.009 1622.18,-180.403 1632.47,-177.872 1628.65,-172.009"/>
</g>
<!-- Node31&#45;&gt;Node25 -->
<g id="edge52" class="edge"><title>Node31&#45;&gt;Node25</title>
<path fill="none" stroke="midnightblue" d="M1610.54,-170.191C1612.74,-143.397 1616.68,-95.314 1618.29,-75.6944"/>
<polygon fill="midnightblue" stroke="midnightblue" points="1607.05,-169.974 1609.72,-180.226 1614.02,-170.545 1607.05,-169.974"/>
</g>
<!-- Node31&#45;&gt;Node26 -->
<g id="edge57" class="edge"><title>Node31&#45;&gt;Node26</title>
<path fill="none" stroke="midnightblue" d="M1676.73,-185.441C1708.33,-180.26 1743.95,-168.783 1767,-144 1784.76,-124.903 1784.92,-91.4397 1783.86,-75.6779"/>
<polygon fill="midnightblue" stroke="midnightblue" points="1676.03,-182.006 1666.64,-186.911 1677.04,-188.933 1676.03,-182.006"/>
</g>
<!-- Node36&#45;&gt;Node16 -->
<g id="edge72" class="edge"><title>Node36&#45;&gt;Node16</title>
<path fill="none" stroke="midnightblue" d="M842.04,-232.664C815.223,-220.939 784.675,-201.88 800,-180 826.86,-141.652 859.133,-168.549 899,-144 916.67,-133.119 915.246,-122.743 933,-112 961.811,-94.5658 998.322,-82.6852 1025.31,-75.5295"/>
<polygon fill="midnightblue" stroke="midnightblue" points="840.71,-235.902 851.288,-236.498 843.391,-229.435 840.71,-235.902"/>
</g>
</g>
</svg>
