<?xml version="1.0" encoding="UTF-8" standalone="no"?>
<!DOCTYPE svg PUBLIC "-//W3C//DTD SVG 1.1//EN"
 "http://www.w3.org/Graphics/SVG/1.1/DTD/svg11.dtd">
<!-- Generated by graphviz version 2.36.0 (20140111.2315)
 -->
<!-- Title: nearest_neighbors_sqrtapprox.h Pages: 1 -->
<svg width="470pt" height="220pt"
 viewBox="0.00 0.00 470.00 220.00" xmlns="http://www.w3.org/2000/svg" xmlns:xlink="http://www.w3.org/1999/xlink">
<g id="graph0" class="graph" transform="scale(1 1) rotate(0) translate(4 216)">
<title>nearest_neighbors_sqrtapprox.h</title>
<polygon fill="white" stroke="none" points="-4,4 -4,-216 466,-216 466,4 -4,4"/>
<!-- Node1 -->
<g id="node1" class="node"><title>Node1</title>
<polygon fill="#bfbfbf" stroke="black" points="294.5,-192.5 294.5,-211.5 449.5,-211.5 449.5,-192.5 294.5,-192.5"/>
<text text-anchor="middle" x="372" y="-199.5" font-family="Helvetica,sans-Serif" font-size="10.00">nearest_neighbors_sqrtapprox.h</text>
</g>
<!-- Node2 -->
<g id="node2" class="node"><title>Node2</title>
<g id="a_node2"><a xlink:href="a00330.html" target="_top" xlink:title="hpp/fcl/knn/nearest\l_neighbors_linear.h">
<polygon fill="white" stroke="black" points="223.5,-125 223.5,-155 324.5,-155 324.5,-125 223.5,-125"/>
<text text-anchor="start" x="231.5" y="-143" font-family="Helvetica,sans-Serif" font-size="10.00">hpp/fcl/knn/nearest</text>
<text text-anchor="middle" x="274" y="-132" font-family="Helvetica,sans-Serif" font-size="10.00">_neighbors_linear.h</text>
</a>
</g>
</g>
<!-- Node1&#45;&gt;Node2 -->
<g id="edge1" class="edge"><title>Node1&#45;&gt;Node2</title>
<path fill="none" stroke="midnightblue" d="M357.959,-192.403C344.438,-184.125 323.507,-171.311 305.927,-160.547"/>
<polygon fill="midnightblue" stroke="midnightblue" points="307.453,-157.377 297.097,-155.141 303.798,-163.347 307.453,-157.377"/>
</g>
<!-- Node7 -->
<g id="node7" class="node"><title>Node7</title>
<g id="a_node7"><a xlink:href="a00289.html" target="_top" xlink:title="hpp/fcl/exception.h">
<polygon fill="white" stroke="black" points="245.5,-62.5 245.5,-81.5 344.5,-81.5 344.5,-62.5 245.5,-62.5"/>
<text text-anchor="middle" x="295" y="-69.5" font-family="Helvetica,sans-Serif" font-size="10.00">hpp/fcl/exception.h</text>
</a>
</g>
</g>
<!-- Node1&#45;&gt;Node7 -->
<g id="edge10" class="edge"><title>Node1&#45;&gt;Node7</title>
<path fill="none" stroke="midnightblue" d="M368.139,-192.192C361.614,-177.606 347.677,-147.694 333,-124 325.61,-112.07 316.192,-99.4155 308.581,-89.6962"/>
<polygon fill="midnightblue" stroke="midnightblue" points="311.178,-87.3397 302.209,-81.7005 305.704,-91.7023 311.178,-87.3397"/>
</g>
<!-- Node10 -->
<g id="node10" class="node"><title>Node10</title>
<polygon fill="white" stroke="#bfbfbf" points="363,-62.5 363,-81.5 419,-81.5 419,-62.5 363,-62.5"/>
<text text-anchor="middle" x="391" y="-69.5" font-family="Helvetica,sans-Serif" font-size="10.00">algorithm</text>
</g>
<!-- Node1&#45;&gt;Node10 -->
<g id="edge11" class="edge"><title>Node1&#45;&gt;Node10</title>
<path fill="none" stroke="midnightblue" d="M373.306,-192.202C376.371,-171.551 384.082,-119.606 388.24,-91.5937"/>
<polygon fill="midnightblue" stroke="midnightblue" points="391.729,-91.928 389.735,-81.5224 384.805,-90.9001 391.729,-91.928"/>
</g>
<!-- Node11 -->
<g id="node11" class="node"><title>Node11</title>
<polygon fill="white" stroke="#bfbfbf" points="419,-130.5 419,-149.5 463,-149.5 463,-130.5 419,-130.5"/>
<text text-anchor="middle" x="441" y="-137.5" font-family="Helvetica,sans-Serif" font-size="10.00">cmath</text>
</g>
<!-- Node1&#45;&gt;Node11 -->
<g id="edge12" class="edge"><title>Node1&#45;&gt;Node11</title>
<path fill="none" stroke="midnightblue" d="M381.886,-192.403C392.646,-183.047 410.071,-167.895 423.221,-156.46"/>
<polygon fill="midnightblue" stroke="midnightblue" points="425.883,-158.784 431.132,-149.581 421.29,-153.501 425.883,-158.784"/>
</g>
<!-- Node3 -->
<g id="node3" class="node"><title>Node3</title>
<g id="a_node3"><a xlink:href="a00327.html" target="_top" xlink:title="hpp/fcl/knn/nearest\l_neighbors.h">
<polygon fill="white" stroke="black" points="89,-57 89,-87 189,-87 189,-57 89,-57"/>
<text text-anchor="start" x="97" y="-75" font-family="Helvetica,sans-Serif" font-size="10.00">hpp/fcl/knn/nearest</text>
<text text-anchor="middle" x="139" y="-64" font-family="Helvetica,sans-Serif" font-size="10.00">_neighbors.h</text>
</a>
</g>
</g>
<!-- Node2&#45;&gt;Node3 -->
<g id="edge2" class="edge"><title>Node2&#45;&gt;Node3</title>
<path fill="none" stroke="midnightblue" d="M245.039,-124.841C225.198,-115.141 198.675,-102.174 177.119,-91.6358"/>
<polygon fill="midnightblue" stroke="midnightblue" points="178.434,-88.383 167.913,-87.1352 175.36,-94.6717 178.434,-88.383"/>
</g>
<!-- Node2&#45;&gt;Node7 -->
<g id="edge6" class="edge"><title>Node2&#45;&gt;Node7</title>
<path fill="none" stroke="midnightblue" d="M278.557,-124.679C281.637,-114.999 285.734,-102.123 289.068,-91.6449"/>
<polygon fill="midnightblue" stroke="midnightblue" points="292.494,-92.4188 292.191,-81.8283 285.824,-90.2963 292.494,-92.4188"/>
</g>
<!-- Node2&#45;&gt;Node10 -->
<g id="edge9" class="edge"><title>Node2&#45;&gt;Node10</title>
<path fill="none" stroke="midnightblue" d="M299.099,-124.841C319.155,-113.528 347.088,-97.7707 366.881,-86.6053"/>
<polygon fill="midnightblue" stroke="midnightblue" points="368.619,-89.6436 375.609,-81.6819 365.18,-83.5467 368.619,-89.6436"/>
</g>
<!-- Node4 -->
<g id="node4" class="node"><title>Node4</title>
<polygon fill="white" stroke="#bfbfbf" points="-1,-0.5 -1,-19.5 43,-19.5 43,-0.5 -1,-0.5"/>
<text text-anchor="middle" x="21" y="-7.5" font-family="Helvetica,sans-Serif" font-size="10.00">vector</text>
</g>
<!-- Node3&#45;&gt;Node4 -->
<g id="edge3" class="edge"><title>Node3&#45;&gt;Node4</title>
<path fill="none" stroke="midnightblue" d="M111.334,-56.9327C91.8707,-47.0359 65.9979,-33.8803 46.9309,-24.1852"/>
<polygon fill="midnightblue" stroke="midnightblue" points="48.4136,-21.0127 37.9134,-19.6 45.2409,-27.2524 48.4136,-21.0127"/>
</g>
<!-- Node5 -->
<g id="node5" class="node"><title>Node5</title>
<polygon fill="white" stroke="#bfbfbf" points="61,-0.5 61,-19.5 141,-19.5 141,-0.5 61,-0.5"/>
<text text-anchor="middle" x="101" y="-7.5" font-family="Helvetica,sans-Serif" font-size="10.00">boost/bind.hpp</text>
</g>
<!-- Node3&#45;&gt;Node5 -->
<g id="edge4" class="edge"><title>Node3&#45;&gt;Node5</title>
<path fill="none" stroke="midnightblue" d="M129.995,-56.7808C124.587,-48.2419 117.668,-37.3184 111.946,-28.2834"/>
<polygon fill="midnightblue" stroke="midnightblue" points="114.837,-26.306 106.529,-19.7305 108.923,-30.0514 114.837,-26.306"/>
</g>
<!-- Node6 -->
<g id="node6" class="node"><title>Node6</title>
<polygon fill="white" stroke="#bfbfbf" points="159.5,-0.5 159.5,-19.5 256.5,-19.5 256.5,-0.5 159.5,-0.5"/>
<text text-anchor="middle" x="208" y="-7.5" font-family="Helvetica,sans-Serif" font-size="10.00">boost/function.hpp</text>
</g>
<!-- Node3&#45;&gt;Node6 -->
<g id="edge5" class="edge"><title>Node3&#45;&gt;Node6</title>
<path fill="none" stroke="midnightblue" d="M155.352,-56.7808C165.895,-47.6127 179.6,-35.6957 190.384,-26.3186"/>
<polygon fill="midnightblue" stroke="midnightblue" points="192.71,-28.9335 197.96,-19.7305 188.117,-23.6512 192.71,-28.9335"/>
</g>
<!-- Node8 -->
<g id="node8" class="node"><title>Node8</title>
<polygon fill="white" stroke="#bfbfbf" points="333.5,-0.5 333.5,-19.5 392.5,-19.5 392.5,-0.5 333.5,-0.5"/>
<text text-anchor="middle" x="363" y="-7.5" font-family="Helvetica,sans-Serif" font-size="10.00">stdexcept</text>
</g>
<!-- Node7&#45;&gt;Node8 -->
<g id="edge7" class="edge"><title>Node7&#45;&gt;Node8</title>
<path fill="none" stroke="midnightblue" d="M304.743,-62.4035C315.347,-53.047 332.519,-37.8948 345.479,-26.4599"/>
<polygon fill="midnightblue" stroke="midnightblue" points="348.093,-28.8213 353.275,-19.5806 343.461,-23.5724 348.093,-28.8213"/>
</g>
<!-- Node9 -->
<g id="node9" class="node"><title>Node9</title>
<polygon fill="white" stroke="#bfbfbf" points="274.5,-0.5 274.5,-19.5 315.5,-19.5 315.5,-0.5 274.5,-0.5"/>
<text text-anchor="middle" x="295" y="-7.5" font-family="Helvetica,sans-Serif" font-size="10.00">string</text>
</g>
<!-- Node7&#45;&gt;Node9 -->
<g id="edge8" class="edge"><title>Node7&#45;&gt;Node9</title>
<path fill="none" stroke="midnightblue" d="M295,-62.4035C295,-53.9381 295,-40.7283 295,-29.8199"/>
<polygon fill="midnightblue" stroke="midnightblue" points="298.5,-29.5806 295,-19.5806 291.5,-29.5806 298.5,-29.5806"/>
</g>
</g>
</svg>
