<?xml version="1.0" encoding="UTF-8" standalone="no"?>
<!DOCTYPE svg PUBLIC "-//W3C//DTD SVG 1.1//EN"
 "http://www.w3.org/Graphics/SVG/1.1/DTD/svg11.dtd">
<!-- Generated by graphviz version 2.36.0 (20140111.2315)
 -->
<!-- Title: nearest_neighbors.h Pages: 1 -->
<svg width="1436pt" height="264pt"
 viewBox="0.00 0.00 1436.00 264.00" xmlns="http://www.w3.org/2000/svg" xmlns:xlink="http://www.w3.org/1999/xlink">
<g id="graph0" class="graph" transform="scale(1 1) rotate(0) translate(4 260)">
<title>nearest_neighbors.h</title>
<polygon fill="white" stroke="none" points="-4,4 -4,-260 1432,-260 1432,4 -4,4"/>
<!-- Node1 -->
<g id="node1" class="node"><title>Node1</title>
<polygon fill="#bfbfbf" stroke="black" points="778,-236.5 778,-255.5 882,-255.5 882,-236.5 778,-236.5"/>
<text text-anchor="middle" x="830" y="-243.5" font-family="Helvetica,sans-Serif" font-size="10.00">nearest_neighbors.h</text>
</g>
<!-- Node2 -->
<g id="node2" class="node"><title>Node2</title>
<g id="a_node2"><a xlink:href="a00277.html" target="_top" xlink:title="collision_data.h">
<polygon fill="white" stroke="black" points="536,-180.5 536,-199.5 620,-199.5 620,-180.5 536,-180.5"/>
<text text-anchor="middle" x="578" y="-187.5" font-family="Helvetica,sans-Serif" font-size="10.00">collision_data.h</text>
</a>
</g>
</g>
<!-- Node1&#45;&gt;Node2 -->
<g id="edge1" class="edge"><title>Node1&#45;&gt;Node2</title>
<path fill="none" stroke="midnightblue" d="M780.279,-234.346C732.656,-224.141 661.72,-208.94 617.743,-199.516"/>
<polygon fill="midnightblue" stroke="midnightblue" points="779.558,-237.77 790.07,-236.444 781.025,-230.926 779.558,-237.77"/>
</g>
<!-- Node18 -->
<g id="node18" class="node"><title>Node18</title>
<g id="a_node18"><a xlink:href="a00329.html" target="_top" xlink:title="nearest_neighbors_GNAT.h">
<polygon fill="white" stroke="black" points="761.5,-180.5 761.5,-199.5 898.5,-199.5 898.5,-180.5 761.5,-180.5"/>
<text text-anchor="middle" x="830" y="-187.5" font-family="Helvetica,sans-Serif" font-size="10.00">nearest_neighbors_GNAT.h</text>
</a>
</g>
</g>
<!-- Node1&#45;&gt;Node18 -->
<g id="edge26" class="edge"><title>Node1&#45;&gt;Node18</title>
<path fill="none" stroke="midnightblue" d="M830,-225.805C830,-216.91 830,-206.78 830,-199.751"/>
<polygon fill="midnightblue" stroke="midnightblue" points="826.5,-226.083 830,-236.083 833.5,-226.083 826.5,-226.083"/>
</g>
<!-- Node19 -->
<g id="node19" class="node"><title>Node19</title>
<g id="a_node19"><a xlink:href="a00330.html" target="_top" xlink:title="nearest_neighbors_linear.h">
<polygon fill="white" stroke="black" points="1161.5,-180.5 1161.5,-199.5 1294.5,-199.5 1294.5,-180.5 1161.5,-180.5"/>
<text text-anchor="middle" x="1228" y="-187.5" font-family="Helvetica,sans-Serif" font-size="10.00">nearest_neighbors_linear.h</text>
</a>
</g>
</g>
<!-- Node1&#45;&gt;Node19 -->
<g id="edge27" class="edge"><title>Node1&#45;&gt;Node19</title>
<path fill="none" stroke="midnightblue" d="M892.191,-236.562C966.59,-226.468 1090.43,-209.665 1165.13,-199.53"/>
<polygon fill="midnightblue" stroke="midnightblue" points="891.47,-233.128 882.032,-237.94 892.411,-240.064 891.47,-233.128"/>
</g>
<!-- Node3 -->
<g id="node3" class="node"><title>Node3</title>
<g id="a_node3"><a xlink:href="a00281.html" target="_top" xlink:title="conservative_advancement.h">
<polygon fill="white" stroke="black" points="899,-124.5 899,-143.5 1043,-143.5 1043,-124.5 899,-124.5"/>
<text text-anchor="middle" x="971" y="-131.5" font-family="Helvetica,sans-Serif" font-size="10.00">conservative_advancement.h</text>
</a>
</g>
</g>
<!-- Node2&#45;&gt;Node3 -->
<g id="edge2" class="edge"><title>Node2&#45;&gt;Node3</title>
<path fill="none" stroke="midnightblue" d="M630.262,-181.819C702.351,-171.914 832.088,-154.087 908.992,-143.52"/>
<polygon fill="midnightblue" stroke="midnightblue" points="629.488,-178.392 620.058,-183.221 630.441,-185.327 629.488,-178.392"/>
</g>
<!-- Node4 -->
<g id="node4" class="node"><title>Node4</title>
<g id="a_node4"><a xlink:href="a00276.html" target="_top" xlink:title="collision.h">
<polygon fill="white" stroke="black" points="1061,-124.5 1061,-143.5 1121,-143.5 1121,-124.5 1061,-124.5"/>
<text text-anchor="middle" x="1091" y="-131.5" font-family="Helvetica,sans-Serif" font-size="10.00">collision.h</text>
</a>
</g>
</g>
<!-- Node2&#45;&gt;Node4 -->
<g id="edge3" class="edge"><title>Node2&#45;&gt;Node4</title>
<path fill="none" stroke="midnightblue" d="M630.3,-186.3C717.957,-181.268 899.887,-168.661 1052,-144 1054.88,-143.533 1057.87,-142.977 1060.84,-142.374"/>
<polygon fill="midnightblue" stroke="midnightblue" points="629.873,-182.818 620.086,-186.876 630.267,-189.807 629.873,-182.818"/>
</g>
<!-- Node5 -->
<g id="node5" class="node"><title>Node5</title>
<g id="a_node5"><a xlink:href="a00278.html" target="_top" xlink:title="collision_func_matrix.h">
<polygon fill="white" stroke="black" points="1139,-124.5 1139,-143.5 1255,-143.5 1255,-124.5 1139,-124.5"/>
<text text-anchor="middle" x="1197" y="-131.5" font-family="Helvetica,sans-Serif" font-size="10.00">collision_func_matrix.h</text>
</a>
</g>
</g>
<!-- Node2&#45;&gt;Node5 -->
<g id="edge4" class="edge"><title>Node2&#45;&gt;Node5</title>
<path fill="none" stroke="midnightblue" d="M630.47,-185.594C728.534,-179.033 946.223,-163.547 1129,-144 1132.2,-143.658 1135.48,-143.288 1138.78,-142.9"/>
<polygon fill="midnightblue" stroke="midnightblue" points="629.98,-182.119 620.235,-186.275 630.445,-189.103 629.98,-182.119"/>
</g>
<!-- Node6 -->
<g id="node6" class="node"><title>Node6</title>
<g id="a_node6"><a xlink:href="a00349.html" target="_top" xlink:title="traversal_node_base.h">
<polygon fill="white" stroke="black" points="167.5,-124.5 167.5,-143.5 282.5,-143.5 282.5,-124.5 167.5,-124.5"/>
<text text-anchor="middle" x="225" y="-131.5" font-family="Helvetica,sans-Serif" font-size="10.00">traversal_node_base.h</text>
</a>
</g>
</g>
<!-- Node2&#45;&gt;Node6 -->
<g id="edge5" class="edge"><title>Node2&#45;&gt;Node6</title>
<path fill="none" stroke="midnightblue" d="M525.642,-180.991C459.958,-170.943 347.81,-153.787 280.627,-143.509"/>
<polygon fill="midnightblue" stroke="midnightblue" points="525.356,-184.487 535.771,-182.54 526.415,-177.568 525.356,-184.487"/>
</g>
<!-- Node8 -->
<g id="node8" class="node"><title>Node8</title>
<g id="a_node8"><a xlink:href="a00351.html" target="_top" xlink:title="traversal_node_bvhs.h">
<polygon fill="white" stroke="black" points="42.5,-62.5 42.5,-81.5 157.5,-81.5 157.5,-62.5 42.5,-62.5"/>
<text text-anchor="middle" x="100" y="-69.5" font-family="Helvetica,sans-Serif" font-size="10.00">traversal_node_bvhs.h</text>
</a>
</g>
</g>
<!-- Node2&#45;&gt;Node8 -->
<g id="edge18" class="edge"><title>Node2&#45;&gt;Node8</title>
<path fill="none" stroke="midnightblue" d="M525.62,-188.226C427.706,-185.996 221.209,-177.359 159,-144 132.164,-129.609 112.663,-97.4701 104.391,-81.8547"/>
<polygon fill="midnightblue" stroke="midnightblue" points="525.806,-191.731 535.878,-188.445 525.955,-184.733 525.806,-191.731"/>
</g>
<!-- Node11 -->
<g id="node11" class="node"><title>Node11</title>
<g id="a_node11"><a xlink:href="a00350.html" target="_top" xlink:title="traversal_node_bvh\l_shape.h">
<polygon fill="white" stroke="black" points="214.5,-57 214.5,-87 315.5,-87 315.5,-57 214.5,-57"/>
<text text-anchor="start" x="222.5" y="-75" font-family="Helvetica,sans-Serif" font-size="10.00">traversal_node_bvh</text>
<text text-anchor="middle" x="265" y="-64" font-family="Helvetica,sans-Serif" font-size="10.00">_shape.h</text>
</a>
</g>
</g>
<!-- Node2&#45;&gt;Node11 -->
<g id="edge22" class="edge"><title>Node2&#45;&gt;Node11</title>
<path fill="none" stroke="midnightblue" d="M526.079,-181.053C486.935,-174.047 432.416,-162.099 387,-144 348.982,-128.85 308.648,-103.252 285.199,-87.284"/>
<polygon fill="midnightblue" stroke="midnightblue" points="525.483,-184.502 535.936,-182.771 526.685,-177.606 525.483,-184.502"/>
</g>
<!-- Node12 -->
<g id="node12" class="node"><title>Node12</title>
<g id="a_node12"><a xlink:href="a00352.html" target="_top" xlink:title="traversal_node_octree.h">
<polygon fill="white" stroke="black" points="333.5,-62.5 333.5,-81.5 454.5,-81.5 454.5,-62.5 333.5,-62.5"/>
<text text-anchor="middle" x="394" y="-69.5" font-family="Helvetica,sans-Serif" font-size="10.00">traversal_node_octree.h</text>
</a>
</g>
</g>
<!-- Node2&#45;&gt;Node12 -->
<g id="edge23" class="edge"><title>Node2&#45;&gt;Node12</title>
<path fill="none" stroke="midnightblue" d="M525.627,-182.664C478.804,-175.835 415.153,-163.279 399,-144 384.08,-126.193 388.377,-96.2494 391.713,-81.5981"/>
<polygon fill="midnightblue" stroke="midnightblue" points="525.246,-186.144 535.637,-184.075 526.223,-179.213 525.246,-186.144"/>
</g>
<!-- Node13 -->
<g id="node13" class="node"><title>Node13</title>
<g id="a_node13"><a xlink:href="a00354.html" target="_top" xlink:title="traversal_node_shapes.h">
<polygon fill="white" stroke="black" points="472.5,-62.5 472.5,-81.5 597.5,-81.5 597.5,-62.5 472.5,-62.5"/>
<text text-anchor="middle" x="535" y="-69.5" font-family="Helvetica,sans-Serif" font-size="10.00">traversal_node_shapes.h</text>
</a>
</g>
</g>
<!-- Node2&#45;&gt;Node13 -->
<g id="edge24" class="edge"><title>Node2&#45;&gt;Node13</title>
<path fill="none" stroke="midnightblue" d="M525.858,-182.39C480.788,-175.479 420.643,-162.966 406,-144 400.568,-136.964 401.002,-131.351 406,-124 417.172,-107.57 467.532,-91.133 501.923,-81.5232"/>
<polygon fill="midnightblue" stroke="midnightblue" points="525.394,-185.859 535.799,-183.862 526.42,-178.935 525.394,-185.859"/>
</g>
<!-- Node14 -->
<g id="node14" class="node"><title>Node14</title>
<g id="a_node14"><a xlink:href="a00282.html" target="_top" xlink:title="continuous_collision.h">
<polygon fill="white" stroke="black" points="415.5,-124.5 415.5,-143.5 528.5,-143.5 528.5,-124.5 415.5,-124.5"/>
<text text-anchor="middle" x="472" y="-131.5" font-family="Helvetica,sans-Serif" font-size="10.00">continuous_collision.h</text>
</a>
</g>
</g>
<!-- Node2&#45;&gt;Node14 -->
<g id="edge19" class="edge"><title>Node2&#45;&gt;Node14</title>
<path fill="none" stroke="midnightblue" d="M551.944,-175.726C532.316,-165.727 505.972,-152.307 488.988,-143.655"/>
<polygon fill="midnightblue" stroke="midnightblue" points="550.47,-178.903 560.969,-180.324 553.648,-172.666 550.47,-178.903"/>
</g>
<!-- Node15 -->
<g id="node15" class="node"><title>Node15</title>
<g id="a_node15"><a xlink:href="a00285.html" target="_top" xlink:title="distance.h">
<polygon fill="white" stroke="black" points="547,-124.5 547,-143.5 609,-143.5 609,-124.5 547,-124.5"/>
<text text-anchor="middle" x="578" y="-131.5" font-family="Helvetica,sans-Serif" font-size="10.00">distance.h</text>
</a>
</g>
</g>
<!-- Node2&#45;&gt;Node15 -->
<g id="edge20" class="edge"><title>Node2&#45;&gt;Node15</title>
<path fill="none" stroke="midnightblue" d="M578,-169.805C578,-160.91 578,-150.78 578,-143.751"/>
<polygon fill="midnightblue" stroke="midnightblue" points="574.5,-170.083 578,-180.083 581.5,-170.083 574.5,-170.083"/>
</g>
<!-- Node16 -->
<g id="node16" class="node"><title>Node16</title>
<g id="a_node16"><a xlink:href="a00286.html" target="_top" xlink:title="distance_func_matrix.h">
<polygon fill="white" stroke="black" points="627,-124.5 627,-143.5 745,-143.5 745,-124.5 627,-124.5"/>
<text text-anchor="middle" x="686" y="-131.5" font-family="Helvetica,sans-Serif" font-size="10.00">distance_func_matrix.h</text>
</a>
</g>
</g>
<!-- Node2&#45;&gt;Node16 -->
<g id="edge21" class="edge"><title>Node2&#45;&gt;Node16</title>
<path fill="none" stroke="midnightblue" d="M604.548,-175.726C624.546,-165.727 651.387,-152.307 668.691,-143.655"/>
<polygon fill="midnightblue" stroke="midnightblue" points="602.731,-172.721 595.352,-180.324 605.862,-178.982 602.731,-172.721"/>
</g>
<!-- Node17 -->
<g id="node17" class="node"><title>Node17</title>
<g id="a_node17"><a xlink:href="a00287.html" target="_top" xlink:title="distance_func_matrix.h">
<polygon fill="white" stroke="black" points="763,-124.5 763,-143.5 881,-143.5 881,-124.5 763,-124.5"/>
<text text-anchor="middle" x="822" y="-131.5" font-family="Helvetica,sans-Serif" font-size="10.00">distance_func_matrix.h</text>
</a>
</g>
</g>
<!-- Node2&#45;&gt;Node17 -->
<g id="edge25" class="edge"><title>Node2&#45;&gt;Node17</title>
<path fill="none" stroke="midnightblue" d="M626.432,-178.281C672.541,-168.077 741.027,-152.92 783.518,-143.516"/>
<polygon fill="midnightblue" stroke="midnightblue" points="625.67,-174.865 616.663,-180.444 627.183,-181.7 625.67,-174.865"/>
</g>
<!-- Node7 -->
<g id="node7" class="node"><title>Node7</title>
<g id="a_node7"><a xlink:href="a00279.html" target="_top" xlink:title="collision_node.h">
<polygon fill="white" stroke="black" points="0,-0.5 0,-19.5 86,-19.5 86,-0.5 0,-0.5"/>
<text text-anchor="middle" x="43" y="-7.5" font-family="Helvetica,sans-Serif" font-size="10.00">collision_node.h</text>
</a>
</g>
</g>
<!-- Node6&#45;&gt;Node7 -->
<g id="edge6" class="edge"><title>Node6&#45;&gt;Node7</title>
<path fill="none" stroke="midnightblue" d="M157.235,-125.902C108.714,-119.257 49.3505,-107.387 34,-88 18.1259,-67.9513 30.7725,-35.2475 38.3485,-19.7172"/>
<polygon fill="midnightblue" stroke="midnightblue" points="157.034,-129.405 167.405,-127.241 157.948,-122.465 157.034,-129.405"/>
</g>
<!-- Node6&#45;&gt;Node8 -->
<g id="edge7" class="edge"><title>Node6&#45;&gt;Node8</title>
<path fill="none" stroke="midnightblue" d="M198.055,-120.066C173.8,-108.424 138.839,-91.6429 117.876,-81.5806"/>
<polygon fill="midnightblue" stroke="midnightblue" points="196.561,-123.231 207.091,-124.403 199.59,-116.921 196.561,-123.231"/>
</g>
<!-- Node10 -->
<g id="node10" class="node"><title>Node10</title>
<g id="a_node10"><a xlink:href="a00355.html" target="_top" xlink:title="traversal_recurse.h">
<polygon fill="white" stroke="black" points="110,-0.5 110,-19.5 210,-19.5 210,-0.5 110,-0.5"/>
<text text-anchor="middle" x="160" y="-7.5" font-family="Helvetica,sans-Serif" font-size="10.00">traversal_recurse.h</text>
</a>
</g>
</g>
<!-- Node6&#45;&gt;Node10 -->
<g id="edge17" class="edge"><title>Node6&#45;&gt;Node10</title>
<path fill="none" stroke="midnightblue" d="M215.546,-115.256C201.392,-88.6902 175.225,-39.5767 164.632,-19.6944"/>
<polygon fill="midnightblue" stroke="midnightblue" points="212.534,-117.046 220.325,-124.226 218.712,-113.755 212.534,-117.046"/>
</g>
<!-- Node6&#45;&gt;Node11 -->
<g id="edge11" class="edge"><title>Node6&#45;&gt;Node11</title>
<path fill="none" stroke="midnightblue" d="M236.453,-115.82C242.508,-106.738 249.851,-95.7238 255.573,-87.1408"/>
<polygon fill="midnightblue" stroke="midnightblue" points="233.366,-114.141 230.731,-124.403 239.19,-118.024 233.366,-114.141"/>
</g>
<!-- Node6&#45;&gt;Node12 -->
<g id="edge13" class="edge"><title>Node6&#45;&gt;Node12</title>
<path fill="none" stroke="midnightblue" d="M258.849,-120.983C291.7,-109.32 340.737,-91.91 369.831,-81.5806"/>
<polygon fill="midnightblue" stroke="midnightblue" points="257.466,-117.759 249.214,-124.403 259.808,-124.356 257.466,-117.759"/>
</g>
<!-- Node6&#45;&gt;Node13 -->
<g id="edge15" class="edge"><title>Node6&#45;&gt;Node13</title>
<path fill="none" stroke="midnightblue" d="M281.504,-122.621C329.762,-113.684 401.005,-100.318 463,-88 473.269,-85.9596 484.347,-83.6874 494.662,-81.5411"/>
<polygon fill="midnightblue" stroke="midnightblue" points="280.763,-119.199 271.566,-124.459 282.036,-126.082 280.763,-119.199"/>
</g>
<!-- Node8&#45;&gt;Node7 -->
<g id="edge8" class="edge"><title>Node8&#45;&gt;Node7</title>
<path fill="none" stroke="midnightblue" d="M84.6698,-54.863C73.8811,-43.5064 59.8648,-28.7524 51.1516,-19.5806"/>
<polygon fill="midnightblue" stroke="midnightblue" points="82.4083,-57.5641 91.8333,-62.4035 87.4833,-52.7428 82.4083,-57.5641"/>
</g>
<!-- Node9 -->
<g id="node9" class="node"><title>Node9</title>
<g id="a_node9"><a xlink:href="a00353.html" target="_top" xlink:title="traversal_node_setup.h">
<polygon fill="white" stroke="black" points="231,-0.5 231,-19.5 349,-19.5 349,-0.5 231,-0.5"/>
<text text-anchor="middle" x="290" y="-7.5" font-family="Helvetica,sans-Serif" font-size="10.00">traversal_node_setup.h</text>
</a>
</g>
</g>
<!-- Node8&#45;&gt;Node9 -->
<g id="edge9" class="edge"><title>Node8&#45;&gt;Node9</title>
<path fill="none" stroke="midnightblue" d="M137.104,-59.283C174.035,-47.6204 229.836,-29.999 262.828,-19.5806"/>
<polygon fill="midnightblue" stroke="midnightblue" points="135.704,-56.0545 127.222,-62.4035 137.812,-62.7296 135.704,-56.0545"/>
</g>
<!-- Node8&#45;&gt;Node10 -->
<g id="edge10" class="edge"><title>Node8&#45;&gt;Node10</title>
<path fill="none" stroke="midnightblue" d="M115.807,-55.1928C127.207,-43.7935 142.159,-28.8414 151.419,-19.5806"/>
<polygon fill="midnightblue" stroke="midnightblue" points="113.193,-52.8575 108.597,-62.4035 118.143,-57.8073 113.193,-52.8575"/>
</g>
<!-- Node11&#45;&gt;Node9 -->
<g id="edge12" class="edge"><title>Node11&#45;&gt;Node9</title>
<path fill="none" stroke="midnightblue" d="M274.79,-47.5037C278.858,-37.7414 283.328,-27.014 286.362,-19.7305"/>
<polygon fill="midnightblue" stroke="midnightblue" points="271.54,-46.2039 270.925,-56.7808 278.002,-48.8962 271.54,-46.2039"/>
</g>
<!-- Node12&#45;&gt;Node9 -->
<g id="edge14" class="edge"><title>Node12&#45;&gt;Node9</title>
<path fill="none" stroke="midnightblue" d="M370.23,-57.2863C350.12,-45.6847 321.928,-29.4202 304.873,-19.5806"/>
<polygon fill="midnightblue" stroke="midnightblue" points="368.688,-60.4378 379.099,-62.4035 372.187,-54.3745 368.688,-60.4378"/>
</g>
<!-- Node13&#45;&gt;Node9 -->
<g id="edge16" class="edge"><title>Node13&#45;&gt;Node9</title>
<path fill="none" stroke="midnightblue" d="M490.417,-60.0818C442.759,-48.4105 368.203,-30.1517 324.722,-19.5034"/>
<polygon fill="midnightblue" stroke="midnightblue" points="489.612,-63.488 500.158,-62.4672 491.277,-56.6889 489.612,-63.488"/>
</g>
<!-- Node20 -->
<g id="node20" class="node"><title>Node20</title>
<g id="a_node20"><a xlink:href="a00331.html" target="_top" xlink:title="nearest_neighbors_sqrtapprox.h">
<polygon fill="white" stroke="black" points="1273.5,-124.5 1273.5,-143.5 1428.5,-143.5 1428.5,-124.5 1273.5,-124.5"/>
<text text-anchor="middle" x="1351" y="-131.5" font-family="Helvetica,sans-Serif" font-size="10.00">nearest_neighbors_sqrtapprox.h</text>
</a>
</g>
</g>
<!-- Node19&#45;&gt;Node20 -->
<g id="edge28" class="edge"><title>Node19&#45;&gt;Node20</title>
<path fill="none" stroke="midnightblue" d="M1256.77,-176.368C1279.81,-166.255 1311.48,-152.349 1331.6,-143.516"/>
<polygon fill="midnightblue" stroke="midnightblue" points="1255.24,-173.219 1247.49,-180.444 1258.05,-179.628 1255.24,-173.219"/>
</g>
</g>
</svg>
