<?xml version="1.0" encoding="UTF-8" standalone="no"?>
<!DOCTYPE svg PUBLIC "-//W3C//DTD SVG 1.1//EN"
 "http://www.w3.org/Graphics/SVG/1.1/DTD/svg11.dtd">
<!-- Generated by graphviz version 2.36.0 (20140111.2315)
 -->
<!-- Title: narrowphase.h Pages: 1 -->
<svg width="887pt" height="796pt"
 viewBox="0.00 0.00 887.39 796.00" xmlns="http://www.w3.org/2000/svg" xmlns:xlink="http://www.w3.org/1999/xlink">
<g id="graph0" class="graph" transform="scale(1 1) rotate(0) translate(4 792)">
<title>narrowphase.h</title>
<polygon fill="white" stroke="none" points="-4,4 -4,-792 883.389,-792 883.389,4 -4,4"/>
<!-- Node1 -->
<g id="node1" class="node"><title>Node1</title>
<polygon fill="#bfbfbf" stroke="black" points="172.389,-768.5 172.389,-787.5 252.389,-787.5 252.389,-768.5 172.389,-768.5"/>
<text text-anchor="middle" x="212.389" y="-775.5" font-family="Helvetica,sans-Serif" font-size="10.00">narrowphase.h</text>
</g>
<!-- Node2 -->
<g id="node2" class="node"><title>Node2</title>
<g id="a_node2"><a xlink:href="a00294.html" target="_top" xlink:title="hpp/fcl/narrowphase\l/gjk.h">
<polygon fill="white" stroke="black" points="99.3893,-701 99.3893,-731 203.389,-731 203.389,-701 99.3893,-701"/>
<text text-anchor="start" x="107.389" y="-719" font-family="Helvetica,sans-Serif" font-size="10.00">hpp/fcl/narrowphase</text>
<text text-anchor="middle" x="151.389" y="-708" font-family="Helvetica,sans-Serif" font-size="10.00">/gjk.h</text>
</a>
</g>
</g>
<!-- Node1&#45;&gt;Node2 -->
<g id="edge1" class="edge"><title>Node1&#45;&gt;Node2</title>
<path fill="none" stroke="midnightblue" d="M203.65,-768.403C195.697,-760.581 183.626,-748.708 173.087,-738.342"/>
<polygon fill="midnightblue" stroke="midnightblue" points="175.349,-735.658 165.766,-731.141 170.441,-740.648 175.349,-735.658"/>
</g>
<!-- Node37 -->
<g id="node37" class="node"><title>Node37</title>
<g id="a_node37"><a xlink:href="a00295.html" target="_top" xlink:title="hpp/fcl/narrowphase\l/gjk_libccd.h">
<polygon fill="white" stroke="black" points="221.389,-701 221.389,-731 325.389,-731 325.389,-701 221.389,-701"/>
<text text-anchor="start" x="229.389" y="-719" font-family="Helvetica,sans-Serif" font-size="10.00">hpp/fcl/narrowphase</text>
<text text-anchor="middle" x="273.389" y="-708" font-family="Helvetica,sans-Serif" font-size="10.00">/gjk_libccd.h</text>
</a>
</g>
</g>
<!-- Node1&#45;&gt;Node37 -->
<g id="edge61" class="edge"><title>Node1&#45;&gt;Node37</title>
<path fill="none" stroke="midnightblue" d="M221.129,-768.403C229.082,-760.581 241.153,-748.708 251.691,-738.342"/>
<polygon fill="midnightblue" stroke="midnightblue" points="254.338,-740.648 259.013,-731.141 249.429,-735.658 254.338,-740.648"/>
</g>
<!-- Node3 -->
<g id="node3" class="node"><title>Node3</title>
<g id="a_node3"><a xlink:href="a00292.html" target="_top" xlink:title="hpp/fcl/shape/geometric\l_shapes.h">
<polygon fill="white" stroke="black" points="97.8893,-633 97.8893,-663 218.889,-663 218.889,-633 97.8893,-633"/>
<text text-anchor="start" x="105.889" y="-651" font-family="Helvetica,sans-Serif" font-size="10.00">hpp/fcl/shape/geometric</text>
<text text-anchor="middle" x="158.389" y="-640" font-family="Helvetica,sans-Serif" font-size="10.00">_shapes.h</text>
</a>
</g>
</g>
<!-- Node2&#45;&gt;Node3 -->
<g id="edge2" class="edge"><title>Node2&#45;&gt;Node3</title>
<path fill="none" stroke="midnightblue" d="M152.908,-700.679C153.752,-692.722 154.825,-682.605 155.798,-673.436"/>
<polygon fill="midnightblue" stroke="midnightblue" points="159.299,-673.606 156.873,-663.293 152.338,-672.868 159.299,-673.606"/>
</g>
<!-- Node21 -->
<g id="node21" class="node"><title>Node21</title>
<g id="a_node21"><a xlink:href="a00348.html" target="_top" xlink:title="hpp/fcl/math/transform.h">
<polygon fill="white" stroke="black" points="211.889,-446.5 211.889,-465.5 334.889,-465.5 334.889,-446.5 211.889,-446.5"/>
<text text-anchor="middle" x="273.389" y="-453.5" font-family="Helvetica,sans-Serif" font-size="10.00">hpp/fcl/math/transform.h</text>
</a>
</g>
</g>
<!-- Node2&#45;&gt;Node21 -->
<g id="edge60" class="edge"><title>Node2&#45;&gt;Node21</title>
<path fill="none" stroke="midnightblue" d="M125.144,-700.979C111.786,-692.282 96.8293,-679.754 89.3893,-664 59.6258,-600.978 60.2856,-561.135 105.389,-508 129.088,-480.082 167.543,-467.135 201.686,-461.257"/>
<polygon fill="midnightblue" stroke="midnightblue" points="202.305,-464.703 211.652,-459.715 201.235,-457.785 202.305,-464.703"/>
</g>
<!-- Node4 -->
<g id="node4" class="node"><title>Node4</title>
<g id="a_node4"><a xlink:href="a00280.html" target="_top" xlink:title="hpp/fcl/collision_object.h">
<polygon fill="white" stroke="black" points="105.389,-576.5 105.389,-595.5 229.389,-595.5 229.389,-576.5 105.389,-576.5"/>
<text text-anchor="middle" x="167.389" y="-583.5" font-family="Helvetica,sans-Serif" font-size="10.00">hpp/fcl/collision_object.h</text>
</a>
</g>
</g>
<!-- Node3&#45;&gt;Node4 -->
<g id="edge3" class="edge"><title>Node3&#45;&gt;Node4</title>
<path fill="none" stroke="midnightblue" d="M160.522,-632.781C161.736,-624.691 163.27,-614.462 164.581,-605.725"/>
<polygon fill="midnightblue" stroke="midnightblue" points="168.058,-606.139 166.08,-595.731 161.135,-605.101 168.058,-606.139"/>
</g>
<!-- Node8 -->
<g id="node8" class="node"><title>Node8</title>
<g id="a_node8"><a xlink:href="a00356.html" target="_top" xlink:title="hpp/fcl/math/vec_3f.h">
<polygon fill="white" stroke="black" points="489.889,-180.5 489.889,-199.5 600.889,-199.5 600.889,-180.5 489.889,-180.5"/>
<text text-anchor="middle" x="545.389" y="-187.5" font-family="Helvetica,sans-Serif" font-size="10.00">hpp/fcl/math/vec_3f.h</text>
</a>
</g>
</g>
<!-- Node3&#45;&gt;Node8 -->
<g id="edge58" class="edge"><title>Node3&#45;&gt;Node8</title>
<path fill="none" stroke="midnightblue" d="M134.356,-632.894C90.597,-605.191 2.38934,-539.159 2.38934,-457 2.38934,-457 2.38934,-457 2.38934,-319 2.38934,-281.157 -7.16802,-260.831 21.3893,-236 55.2597,-206.549 346.229,-195.792 479.373,-192.386"/>
<polygon fill="midnightblue" stroke="midnightblue" points="479.54,-195.883 489.45,-192.135 479.366,-188.886 479.54,-195.883"/>
</g>
<!-- Node36 -->
<g id="node36" class="node"><title>Node36</title>
<polygon fill="white" stroke="#bfbfbf" points="246.889,-576.5 246.889,-595.5 295.889,-595.5 295.889,-576.5 246.889,-576.5"/>
<text text-anchor="middle" x="271.389" y="-583.5" font-family="Helvetica,sans-Serif" font-size="10.00">string.h</text>
</g>
<!-- Node3&#45;&gt;Node36 -->
<g id="edge59" class="edge"><title>Node3&#45;&gt;Node36</title>
<path fill="none" stroke="midnightblue" d="M184.883,-632.933C203.437,-623.081 228.072,-610 246.307,-600.318"/>
<polygon fill="midnightblue" stroke="midnightblue" points="248.002,-603.381 255.193,-595.6 244.719,-597.198 248.002,-603.381"/>
</g>
<!-- Node5 -->
<g id="node5" class="node"><title>Node5</title>
<g id="a_node5"><a xlink:href="a00284.html" target="_top" xlink:title="hpp/fcl/deprecated.h">
<polygon fill="white" stroke="black" points="114.889,-514.5 114.889,-533.5 219.889,-533.5 219.889,-514.5 114.889,-514.5"/>
<text text-anchor="middle" x="167.389" y="-521.5" font-family="Helvetica,sans-Serif" font-size="10.00">hpp/fcl/deprecated.h</text>
</a>
</g>
</g>
<!-- Node4&#45;&gt;Node5 -->
<g id="edge4" class="edge"><title>Node4&#45;&gt;Node5</title>
<path fill="none" stroke="midnightblue" d="M167.389,-576.403C167.389,-567.938 167.389,-554.728 167.389,-543.82"/>
<polygon fill="midnightblue" stroke="midnightblue" points="170.889,-543.581 167.389,-533.581 163.889,-543.581 170.889,-543.581"/>
</g>
<!-- Node6 -->
<g id="node6" class="node"><title>Node6</title>
<g id="a_node6"><a xlink:href="a00257.html" target="_top" xlink:title="hpp/fcl/BV/AABB.h">
<polygon fill="white" stroke="black" points="771.889,-310.5 771.889,-329.5 872.889,-329.5 872.889,-310.5 771.889,-310.5"/>
<text text-anchor="middle" x="822.389" y="-317.5" font-family="Helvetica,sans-Serif" font-size="10.00">hpp/fcl/BV/AABB.h</text>
</a>
</g>
</g>
<!-- Node4&#45;&gt;Node6 -->
<g id="edge5" class="edge"><title>Node4&#45;&gt;Node6</title>
<path fill="none" stroke="midnightblue" d="M229.698,-576.669C308.731,-565.901 437.331,-547.628 458.389,-540 602.27,-487.882 752.045,-376.376 803.635,-335.993"/>
<polygon fill="midnightblue" stroke="midnightblue" points="805.899,-338.665 811.583,-329.724 801.564,-333.169 805.899,-338.665"/>
</g>
<!-- Node4&#45;&gt;Node21 -->
<g id="edge27" class="edge"><title>Node4&#45;&gt;Node21</title>
<path fill="none" stroke="midnightblue" d="M182.649,-576.385C195.966,-568.297 215.173,-555.19 228.389,-540 245.577,-520.245 258.837,-492.825 266.378,-474.998"/>
<polygon fill="midnightblue" stroke="midnightblue" points="269.709,-476.099 270.231,-465.517 263.224,-473.463 269.709,-476.099"/>
</g>
<!-- Node24 -->
<g id="node24" class="node"><title>Node24</title>
<g id="a_node24"><a xlink:href="a00325.html" target="_top" xlink:title="hpp/fcl/ccd/motion\l_base.h">
<polygon fill="white" stroke="black" points="352.889,-509 352.889,-539 449.889,-539 449.889,-509 352.889,-509"/>
<text text-anchor="start" x="360.889" y="-527" font-family="Helvetica,sans-Serif" font-size="10.00">hpp/fcl/ccd/motion</text>
<text text-anchor="middle" x="401.389" y="-516" font-family="Helvetica,sans-Serif" font-size="10.00">_base.h</text>
</a>
</g>
</g>
<!-- Node4&#45;&gt;Node24 -->
<g id="edge31" class="edge"><title>Node4&#45;&gt;Node24</title>
<path fill="none" stroke="midnightblue" d="M200.916,-576.403C237.924,-566.914 298.183,-551.463 342.987,-539.975"/>
<polygon fill="midnightblue" stroke="midnightblue" points="344.054,-543.315 352.871,-537.441 342.315,-536.534 344.054,-543.315"/>
</g>
<!-- Node31 -->
<g id="node31" class="node"><title>Node31</title>
<polygon fill="white" stroke="#bfbfbf" points="30.3893,-242.5 30.3893,-261.5 138.389,-261.5 138.389,-242.5 30.3893,-242.5"/>
<text text-anchor="middle" x="84.3893" y="-249.5" font-family="Helvetica,sans-Serif" font-size="10.00">boost/shared_ptr.hpp</text>
</g>
<!-- Node4&#45;&gt;Node31 -->
<g id="edge57" class="edge"><title>Node4&#45;&gt;Node31</title>
<path fill="none" stroke="midnightblue" d="M149.441,-576.466C135.348,-568.844 116.336,-556.36 105.389,-540 84.2876,-508.464 85.3893,-494.945 85.3893,-457 85.3893,-457 85.3893,-457 85.3893,-387 85.3893,-346.045 84.9165,-298.052 84.6211,-272.066"/>
<polygon fill="midnightblue" stroke="midnightblue" points="88.1176,-271.738 84.5002,-261.78 81.118,-271.82 88.1176,-271.738"/>
</g>
<!-- Node7 -->
<g id="node7" class="node"><title>Node7</title>
<polygon fill="white" stroke="#bfbfbf" points="792.889,-242.5 792.889,-261.5 851.889,-261.5 851.889,-242.5 792.889,-242.5"/>
<text text-anchor="middle" x="822.389" y="-249.5" font-family="Helvetica,sans-Serif" font-size="10.00">stdexcept</text>
</g>
<!-- Node6&#45;&gt;Node7 -->
<g id="edge6" class="edge"><title>Node6&#45;&gt;Node7</title>
<path fill="none" stroke="midnightblue" d="M822.389,-310.372C822.389,-300.643 822.389,-284.528 822.389,-271.85"/>
<polygon fill="midnightblue" stroke="midnightblue" points="825.889,-271.841 822.389,-261.841 818.889,-271.841 825.889,-271.841"/>
</g>
<!-- Node6&#45;&gt;Node8 -->
<g id="edge7" class="edge"><title>Node6&#45;&gt;Node8</title>
<path fill="none" stroke="midnightblue" d="M832.065,-310.341C848.983,-294.181 880.326,-258.987 860.389,-236 828.814,-199.593 693.964,-191.909 611.276,-190.708"/>
<polygon fill="midnightblue" stroke="midnightblue" points="611.253,-187.207 601.213,-190.59 611.171,-194.207 611.253,-187.207"/>
</g>
<!-- Node9 -->
<g id="node9" class="node"><title>Node9</title>
<polygon fill="white" stroke="#bfbfbf" points="777.389,-56.5 777.389,-75.5 879.389,-75.5 879.389,-56.5 777.389,-56.5"/>
<text text-anchor="middle" x="828.389" y="-63.5" font-family="Helvetica,sans-Serif" font-size="10.00">hpp/fcl/config&#45;fcl.hh</text>
</g>
<!-- Node8&#45;&gt;Node9 -->
<g id="edge8" class="edge"><title>Node8&#45;&gt;Node9</title>
<path fill="none" stroke="midnightblue" d="M573.435,-180.483C600.041,-172.125 640.959,-158.547 675.389,-144 722.105,-124.263 774.48,-96.6501 804.241,-80.4144"/>
<polygon fill="midnightblue" stroke="midnightblue" points="805.991,-83.4467 813.073,-75.5672 802.623,-77.31 805.991,-83.4467"/>
</g>
<!-- Node10 -->
<g id="node10" class="node"><title>Node10</title>
<g id="a_node10"><a xlink:href="a00283.html" target="_top" xlink:title="hpp/fcl/data_types.h">
<polygon fill="white" stroke="black" points="131.889,-56.5 131.889,-75.5 236.889,-75.5 236.889,-56.5 131.889,-56.5"/>
<text text-anchor="middle" x="184.389" y="-63.5" font-family="Helvetica,sans-Serif" font-size="10.00">hpp/fcl/data_types.h</text>
</a>
</g>
</g>
<!-- Node8&#45;&gt;Node10 -->
<g id="edge9" class="edge"><title>Node8&#45;&gt;Node10</title>
<path fill="none" stroke="midnightblue" d="M489.875,-180.805C447.589,-173.642 388.337,-161.604 338.389,-144 289.801,-126.875 236.836,-97.9086 207.409,-80.8066"/>
<polygon fill="midnightblue" stroke="midnightblue" points="209.113,-77.7481 198.718,-75.7009 205.567,-83.7838 209.113,-77.7481"/>
</g>
<!-- Node13 -->
<g id="node13" class="node"><title>Node13</title>
<g id="a_node13"><a xlink:href="a00316.html" target="_top" xlink:title="hpp/fcl/eigen/math\l_details.h">
<polygon fill="white" stroke="black" points="346.889,-113 346.889,-143 443.889,-143 443.889,-113 346.889,-113"/>
<text text-anchor="start" x="354.889" y="-131" font-family="Helvetica,sans-Serif" font-size="10.00">hpp/fcl/eigen/math</text>
<text text-anchor="middle" x="395.389" y="-120" font-family="Helvetica,sans-Serif" font-size="10.00">_details.h</text>
</a>
</g>
</g>
<!-- Node8&#45;&gt;Node13 -->
<g id="edge12" class="edge"><title>Node8&#45;&gt;Node13</title>
<path fill="none" stroke="midnightblue" d="M523.898,-180.403C502.086,-171.679 467.675,-157.914 439.949,-146.824"/>
<polygon fill="midnightblue" stroke="midnightblue" points="441.037,-143.49 430.453,-143.025 438.438,-149.989 441.037,-143.49"/>
</g>
<!-- Node16 -->
<g id="node16" class="node"><title>Node16</title>
<g id="a_node16"><a xlink:href="a00357.html" target="_top" xlink:title="hpp/fcl/eigen/vec_3fx.h">
<polygon fill="white" stroke="black" points="462.389,-118.5 462.389,-137.5 580.389,-137.5 580.389,-118.5 462.389,-118.5"/>
<text text-anchor="middle" x="521.389" y="-125.5" font-family="Helvetica,sans-Serif" font-size="10.00">hpp/fcl/eigen/vec_3fx.h</text>
</a>
</g>
</g>
<!-- Node8&#45;&gt;Node16 -->
<g id="edge15" class="edge"><title>Node8&#45;&gt;Node16</title>
<path fill="none" stroke="midnightblue" d="M541.951,-180.403C538.493,-171.76 533.057,-158.17 528.643,-147.134"/>
<polygon fill="midnightblue" stroke="midnightblue" points="531.785,-145.565 524.822,-137.581 525.286,-148.165 531.785,-145.565"/>
</g>
<!-- Node17 -->
<g id="node17" class="node"><title>Node17</title>
<polygon fill="white" stroke="#bfbfbf" points="585.389,-56.5 585.389,-75.5 629.389,-75.5 629.389,-56.5 585.389,-56.5"/>
<text text-anchor="middle" x="607.389" y="-63.5" font-family="Helvetica,sans-Serif" font-size="10.00">cmath</text>
</g>
<!-- Node8&#45;&gt;Node17 -->
<g id="edge24" class="edge"><title>Node8&#45;&gt;Node17</title>
<path fill="none" stroke="midnightblue" d="M556.923,-180.287C567.016,-172.04 581.294,-158.752 589.389,-144 599.381,-125.793 603.849,-102.215 605.833,-85.9723"/>
<polygon fill="midnightblue" stroke="midnightblue" points="609.356,-85.925 606.882,-75.6231 602.392,-85.2191 609.356,-85.925"/>
</g>
<!-- Node18 -->
<g id="node18" class="node"><title>Node18</title>
<polygon fill="white" stroke="#bfbfbf" points="647.389,-56.5 647.389,-75.5 701.389,-75.5 701.389,-56.5 647.389,-56.5"/>
<text text-anchor="middle" x="674.389" y="-63.5" font-family="Helvetica,sans-Serif" font-size="10.00">iostream</text>
</g>
<!-- Node8&#45;&gt;Node18 -->
<g id="edge25" class="edge"><title>Node8&#45;&gt;Node18</title>
<path fill="none" stroke="midnightblue" d="M559.643,-180.476C573.152,-172.062 593.66,-158.399 609.389,-144 629.858,-125.262 649.917,-100.182 662.215,-83.8135"/>
<polygon fill="midnightblue" stroke="midnightblue" points="665.074,-85.8342 668.202,-75.7117 659.444,-81.674 665.074,-85.8342"/>
</g>
<!-- Node19 -->
<g id="node19" class="node"><title>Node19</title>
<polygon fill="white" stroke="#bfbfbf" points="719.389,-56.5 719.389,-75.5 759.389,-75.5 759.389,-56.5 719.389,-56.5"/>
<text text-anchor="middle" x="739.389" y="-63.5" font-family="Helvetica,sans-Serif" font-size="10.00">limits</text>
</g>
<!-- Node8&#45;&gt;Node19 -->
<g id="edge26" class="edge"><title>Node8&#45;&gt;Node19</title>
<path fill="none" stroke="midnightblue" d="M565.962,-180.471C585.23,-172.155 614.55,-158.65 638.389,-144 669.318,-124.994 702.238,-98.5875 721.797,-82.1597"/>
<polygon fill="midnightblue" stroke="midnightblue" points="724.192,-84.7175 729.552,-75.5786 719.663,-79.3802 724.192,-84.7175"/>
</g>
<!-- Node11 -->
<g id="node11" class="node"><title>Node11</title>
<polygon fill="white" stroke="#bfbfbf" points="115.889,-0.5 115.889,-19.5 164.889,-19.5 164.889,-0.5 115.889,-0.5"/>
<text text-anchor="middle" x="140.389" y="-7.5" font-family="Helvetica,sans-Serif" font-size="10.00">cstddef</text>
</g>
<!-- Node10&#45;&gt;Node11 -->
<g id="edge10" class="edge"><title>Node10&#45;&gt;Node11</title>
<path fill="none" stroke="midnightblue" d="M177.124,-56.083C170.845,-48.3768 161.602,-37.0333 153.958,-27.6531"/>
<polygon fill="midnightblue" stroke="midnightblue" points="156.55,-25.2926 147.52,-19.7511 151.123,-29.7143 156.55,-25.2926"/>
</g>
<!-- Node12 -->
<g id="node12" class="node"><title>Node12</title>
<polygon fill="white" stroke="#bfbfbf" points="183.389,-0.5 183.389,-19.5 275.389,-19.5 275.389,-0.5 183.389,-0.5"/>
<text text-anchor="middle" x="229.389" y="-7.5" font-family="Helvetica,sans-Serif" font-size="10.00">boost/cstdint.hpp</text>
</g>
<!-- Node10&#45;&gt;Node12 -->
<g id="edge11" class="edge"><title>Node10&#45;&gt;Node12</title>
<path fill="none" stroke="midnightblue" d="M191.82,-56.083C198.242,-48.3768 207.695,-37.0333 215.512,-27.6531"/>
<polygon fill="midnightblue" stroke="midnightblue" points="218.384,-29.674 222.097,-19.7511 213.006,-25.1927 218.384,-29.674"/>
</g>
<!-- Node14 -->
<g id="node14" class="node"><title>Node14</title>
<polygon fill="white" stroke="#bfbfbf" points="359.889,-56.5 359.889,-75.5 432.889,-75.5 432.889,-56.5 359.889,-56.5"/>
<text text-anchor="middle" x="396.389" y="-63.5" font-family="Helvetica,sans-Serif" font-size="10.00">Eigen/Dense</text>
</g>
<!-- Node13&#45;&gt;Node14 -->
<g id="edge13" class="edge"><title>Node13&#45;&gt;Node14</title>
<path fill="none" stroke="midnightblue" d="M395.626,-112.781C395.76,-104.781 395.928,-94.6887 396.072,-86.0168"/>
<polygon fill="midnightblue" stroke="midnightblue" points="399.577,-85.7875 396.244,-75.7305 392.578,-85.6708 399.577,-85.7875"/>
</g>
<!-- Node15 -->
<g id="node15" class="node"><title>Node15</title>
<polygon fill="white" stroke="#bfbfbf" points="254.889,-56.5 254.889,-75.5 341.889,-75.5 341.889,-56.5 254.889,-56.5"/>
<text text-anchor="middle" x="298.389" y="-63.5" font-family="Helvetica,sans-Serif" font-size="10.00">Eigen/Geometry</text>
</g>
<!-- Node13&#45;&gt;Node15 -->
<g id="edge14" class="edge"><title>Node13&#45;&gt;Node15</title>
<path fill="none" stroke="midnightblue" d="M372.402,-112.781C356.906,-103.196 336.553,-90.6062 321.112,-81.0555"/>
<polygon fill="midnightblue" stroke="midnightblue" points="322.567,-77.8397 312.221,-75.5557 318.884,-83.7929 322.567,-77.8397"/>
</g>
<!-- Node16&#45;&gt;Node9 -->
<g id="edge16" class="edge"><title>Node16&#45;&gt;Node9</title>
<path fill="none" stroke="midnightblue" d="M565.049,-118.467C620.289,-107.671 715.385,-89.0856 774.92,-77.4501"/>
<polygon fill="midnightblue" stroke="midnightblue" points="775.737,-80.8566 784.88,-75.5034 774.395,-73.9866 775.737,-80.8566"/>
</g>
<!-- Node16&#45;&gt;Node10 -->
<g id="edge17" class="edge"><title>Node16&#45;&gt;Node10</title>
<path fill="none" stroke="midnightblue" d="M483.855,-118.5C473.666,-116.286 462.622,-113.97 452.389,-112 382.317,-98.5085 301.493,-85.2508 247.083,-76.6602"/>
<polygon fill="midnightblue" stroke="midnightblue" points="247.325,-73.1552 236.902,-75.0586 246.237,-80.0702 247.325,-73.1552"/>
</g>
<!-- Node16&#45;&gt;Node14 -->
<g id="edge18" class="edge"><title>Node16&#45;&gt;Node14</title>
<path fill="none" stroke="midnightblue" d="M503.48,-118.403C482.502,-108.334 447.54,-91.5522 423.296,-79.9151"/>
<polygon fill="midnightblue" stroke="midnightblue" points="424.795,-76.7526 414.266,-75.5806 421.766,-83.0633 424.795,-76.7526"/>
</g>
<!-- Node16&#45;&gt;Node15 -->
<g id="edge19" class="edge"><title>Node16&#45;&gt;Node15</title>
<path fill="none" stroke="midnightblue" d="M489.439,-118.403C450.11,-107.822 383.229,-89.8269 339.942,-78.1802"/>
<polygon fill="midnightblue" stroke="midnightblue" points="340.847,-74.799 330.281,-75.5806 339.028,-81.5586 340.847,-74.799"/>
</g>
<!-- Node16&#45;&gt;Node17 -->
<g id="edge20" class="edge"><title>Node16&#45;&gt;Node17</title>
<path fill="none" stroke="midnightblue" d="M533.711,-118.403C547.505,-108.78 570.088,-93.0242 586.622,-81.4891"/>
<polygon fill="midnightblue" stroke="midnightblue" points="588.892,-84.1729 595.09,-75.5806 584.887,-78.432 588.892,-84.1729"/>
</g>
<!-- Node16&#45;&gt;Node18 -->
<g id="edge21" class="edge"><title>Node16&#45;&gt;Node18</title>
<path fill="none" stroke="midnightblue" d="M543.311,-118.403C569.442,-108.156 613.301,-90.9561 643.019,-79.3021"/>
<polygon fill="midnightblue" stroke="midnightblue" points="644.477,-82.4899 652.509,-75.5806 641.921,-75.9731 644.477,-82.4899"/>
</g>
<!-- Node16&#45;&gt;Node19 -->
<g id="edge22" class="edge"><title>Node16&#45;&gt;Node19</title>
<path fill="none" stroke="midnightblue" d="M554.611,-118.437C590.519,-109.093 649.648,-93.4516 709.524,-76.1768"/>
<polygon fill="midnightblue" stroke="midnightblue" points="710.506,-79.5362 719.137,-73.391 708.558,-72.8129 710.506,-79.5362"/>
</g>
<!-- Node20 -->
<g id="node20" class="node"><title>Node20</title>
<g id="a_node20"><a xlink:href="a00336.html" target="_top" xlink:title="hpp/fcl/eigen/product.h">
<polygon fill="white" stroke="black" points="451.389,-56.5 451.389,-75.5 567.389,-75.5 567.389,-56.5 451.389,-56.5"/>
<text text-anchor="middle" x="509.389" y="-63.5" font-family="Helvetica,sans-Serif" font-size="10.00">hpp/fcl/eigen/product.h</text>
</a>
</g>
</g>
<!-- Node16&#45;&gt;Node20 -->
<g id="edge23" class="edge"><title>Node16&#45;&gt;Node20</title>
<path fill="none" stroke="midnightblue" d="M519.67,-118.403C517.959,-109.849 515.279,-96.4497 513.085,-85.4762"/>
<polygon fill="midnightblue" stroke="midnightblue" points="516.499,-84.7 511.105,-75.5806 509.635,-86.0728 516.499,-84.7"/>
</g>
<!-- Node22 -->
<g id="node22" class="node"><title>Node22</title>
<g id="a_node22"><a xlink:href="a00319.html" target="_top" xlink:title="hpp/fcl/math/matrix_3f.h">
<polygon fill="white" stroke="black" points="484.389,-242.5 484.389,-261.5 606.389,-261.5 606.389,-242.5 484.389,-242.5"/>
<text text-anchor="middle" x="545.389" y="-249.5" font-family="Helvetica,sans-Serif" font-size="10.00">hpp/fcl/math/matrix_3f.h</text>
</a>
</g>
</g>
<!-- Node21&#45;&gt;Node22 -->
<g id="edge28" class="edge"><title>Node21&#45;&gt;Node22</title>
<path fill="none" stroke="midnightblue" d="M335.206,-447.285C409.853,-437.348 527.123,-419.511 540.389,-404 572.416,-366.556 560.133,-302.758 551.324,-271.444"/>
<polygon fill="midnightblue" stroke="midnightblue" points="554.661,-270.389 548.431,-261.82 547.958,-272.404 554.661,-270.389"/>
</g>
<!-- Node23 -->
<g id="node23" class="node"><title>Node23</title>
<polygon fill="white" stroke="#bfbfbf" points="184.889,-378.5 184.889,-397.5 303.889,-397.5 303.889,-378.5 184.889,-378.5"/>
<text text-anchor="middle" x="244.389" y="-385.5" font-family="Helvetica,sans-Serif" font-size="10.00">boost/thread/mutex.hpp</text>
</g>
<!-- Node21&#45;&gt;Node23 -->
<g id="edge30" class="edge"><title>Node21&#45;&gt;Node23</title>
<path fill="none" stroke="midnightblue" d="M269.598,-446.372C265.237,-436.446 257.955,-419.874 252.336,-407.086"/>
<polygon fill="midnightblue" stroke="midnightblue" points="255.501,-405.588 248.274,-397.841 249.093,-408.404 255.501,-405.588"/>
</g>
<!-- Node22&#45;&gt;Node8 -->
<g id="edge29" class="edge"><title>Node22&#45;&gt;Node8</title>
<path fill="none" stroke="midnightblue" d="M545.389,-242.403C545.389,-233.938 545.389,-220.728 545.389,-209.82"/>
<polygon fill="midnightblue" stroke="midnightblue" points="548.889,-209.581 545.389,-199.581 541.889,-209.581 548.889,-209.581"/>
</g>
<!-- Node24&#45;&gt;Node21 -->
<g id="edge32" class="edge"><title>Node24&#45;&gt;Node21</title>
<path fill="none" stroke="midnightblue" d="M373.93,-508.841C351.79,-497.425 320.876,-481.485 299.19,-470.303"/>
<polygon fill="midnightblue" stroke="midnightblue" points="300.719,-467.154 290.227,-465.682 297.511,-473.376 300.719,-467.154"/>
</g>
<!-- Node25 -->
<g id="node25" class="node"><title>Node25</title>
<g id="a_node25"><a xlink:href="a00343.html" target="_top" xlink:title="hpp/fcl/ccd/taylor\l_matrix.h">
<polygon fill="white" stroke="black" points="423.389,-441 423.389,-471 515.389,-471 515.389,-441 423.389,-441"/>
<text text-anchor="start" x="431.389" y="-459" font-family="Helvetica,sans-Serif" font-size="10.00">hpp/fcl/ccd/taylor</text>
<text text-anchor="middle" x="469.389" y="-448" font-family="Helvetica,sans-Serif" font-size="10.00">_matrix.h</text>
</a>
</g>
</g>
<!-- Node24&#45;&gt;Node25 -->
<g id="edge33" class="edge"><title>Node24&#45;&gt;Node25</title>
<path fill="none" stroke="midnightblue" d="M416.144,-508.679C425.233,-499.857 437.058,-488.38 447.255,-478.483"/>
<polygon fill="midnightblue" stroke="midnightblue" points="449.925,-480.769 454.663,-471.293 445.05,-475.746 449.925,-480.769"/>
</g>
<!-- Node26 -->
<g id="node26" class="node"><title>Node26</title>
<g id="a_node26"><a xlink:href="a00346.html" target="_top" xlink:title="hpp/fcl/ccd/taylor\l_vector.h">
<polygon fill="white" stroke="black" points="322.389,-373 322.389,-403 414.389,-403 414.389,-373 322.389,-373"/>
<text text-anchor="start" x="330.389" y="-391" font-family="Helvetica,sans-Serif" font-size="10.00">hpp/fcl/ccd/taylor</text>
<text text-anchor="middle" x="368.389" y="-380" font-family="Helvetica,sans-Serif" font-size="10.00">_vector.h</text>
</a>
</g>
</g>
<!-- Node24&#45;&gt;Node26 -->
<g id="edge51" class="edge"><title>Node24&#45;&gt;Node26</title>
<path fill="none" stroke="midnightblue" d="M397.858,-508.66C392.226,-485.79 381.148,-440.808 374.295,-412.98"/>
<polygon fill="midnightblue" stroke="midnightblue" points="377.685,-412.11 371.896,-403.237 370.888,-413.784 377.685,-412.11"/>
</g>
<!-- Node34 -->
<g id="node34" class="node"><title>Node34</title>
<g id="a_node34"><a xlink:href="a00338.html" target="_top" xlink:title="hpp/fcl/BV/RSS.h">
<polygon fill="white" stroke="black" points="633.889,-310.5 633.889,-329.5 728.889,-329.5 728.889,-310.5 633.889,-310.5"/>
<text text-anchor="middle" x="681.389" y="-317.5" font-family="Helvetica,sans-Serif" font-size="10.00">hpp/fcl/BV/RSS.h</text>
</a>
</g>
</g>
<!-- Node24&#45;&gt;Node34 -->
<g id="edge52" class="edge"><title>Node24&#45;&gt;Node34</title>
<path fill="none" stroke="midnightblue" d="M444.603,-508.987C468.972,-500.144 499.438,-487.471 524.389,-472 585.821,-433.909 643.038,-368.525 668.09,-337.835"/>
<polygon fill="midnightblue" stroke="midnightblue" points="670.997,-339.805 674.541,-329.82 665.544,-335.415 670.997,-339.805"/>
</g>
<!-- Node25&#45;&gt;Node22 -->
<g id="edge34" class="edge"><title>Node25&#45;&gt;Node22</title>
<path fill="none" stroke="midnightblue" d="M515.433,-446.416C539.463,-439.347 566.823,-426.639 581.389,-404 605.438,-366.624 594.835,-346.362 581.389,-304 577.323,-291.188 568.746,-278.819 560.984,-269.471"/>
<polygon fill="midnightblue" stroke="midnightblue" points="563.473,-267.002 554.238,-261.81 558.22,-271.628 563.473,-267.002"/>
</g>
<!-- Node25&#45;&gt;Node26 -->
<g id="edge35" class="edge"><title>Node25&#45;&gt;Node26</title>
<path fill="none" stroke="midnightblue" d="M447.474,-440.679C433.082,-431.274 414.072,-418.852 398.296,-408.543"/>
<polygon fill="midnightblue" stroke="midnightblue" points="400.201,-405.607 389.915,-403.066 396.372,-411.467 400.201,-405.607"/>
</g>
<!-- Node33 -->
<g id="node33" class="node"><title>Node33</title>
<g id="a_node33"><a xlink:href="a00307.html" target="_top" xlink:title="hpp/fcl/ccd/interval\l_matrix.h">
<polygon fill="white" stroke="black" points="432.889,-373 432.889,-403 531.889,-403 531.889,-373 432.889,-373"/>
<text text-anchor="start" x="440.889" y="-391" font-family="Helvetica,sans-Serif" font-size="10.00">hpp/fcl/ccd/interval</text>
<text text-anchor="middle" x="482.389" y="-380" font-family="Helvetica,sans-Serif" font-size="10.00">_matrix.h</text>
</a>
</g>
</g>
<!-- Node25&#45;&gt;Node33 -->
<g id="edge47" class="edge"><title>Node25&#45;&gt;Node33</title>
<path fill="none" stroke="midnightblue" d="M472.21,-440.679C473.794,-432.636 475.814,-422.385 477.635,-413.137"/>
<polygon fill="midnightblue" stroke="midnightblue" points="481.075,-413.781 479.574,-403.293 474.207,-412.428 481.075,-413.781"/>
</g>
<!-- Node27 -->
<g id="node27" class="node"><title>Node27</title>
<g id="a_node27"><a xlink:href="a00309.html" target="_top" xlink:title="hpp/fcl/ccd/interval\l_vector.h">
<polygon fill="white" stroke="black" points="284.889,-305 284.889,-335 383.889,-335 383.889,-305 284.889,-305"/>
<text text-anchor="start" x="292.889" y="-323" font-family="Helvetica,sans-Serif" font-size="10.00">hpp/fcl/ccd/interval</text>
<text text-anchor="middle" x="334.389" y="-312" font-family="Helvetica,sans-Serif" font-size="10.00">_vector.h</text>
</a>
</g>
</g>
<!-- Node26&#45;&gt;Node27 -->
<g id="edge36" class="edge"><title>Node26&#45;&gt;Node27</title>
<path fill="none" stroke="midnightblue" d="M361.012,-372.679C356.735,-364.376 351.246,-353.721 346.364,-344.245"/>
<polygon fill="midnightblue" stroke="midnightblue" points="349.443,-342.58 341.752,-335.293 343.221,-345.786 349.443,-342.58"/>
</g>
<!-- Node30 -->
<g id="node30" class="node"><title>Node30</title>
<g id="a_node30"><a xlink:href="a00344.html" target="_top" xlink:title="hpp/fcl/ccd/taylor\l_model.h">
<polygon fill="white" stroke="black" points="136.389,-305 136.389,-335 228.389,-335 228.389,-305 136.389,-305"/>
<text text-anchor="start" x="144.389" y="-323" font-family="Helvetica,sans-Serif" font-size="10.00">hpp/fcl/ccd/taylor</text>
<text text-anchor="middle" x="182.389" y="-312" font-family="Helvetica,sans-Serif" font-size="10.00">_model.h</text>
</a>
</g>
</g>
<!-- Node26&#45;&gt;Node30 -->
<g id="edge41" class="edge"><title>Node26&#45;&gt;Node30</title>
<path fill="none" stroke="midnightblue" d="M328.488,-372.841C300.073,-362.759 261.714,-349.147 231.431,-338.402"/>
<polygon fill="midnightblue" stroke="midnightblue" points="232.5,-335.067 221.905,-335.022 230.159,-341.664 232.5,-335.067"/>
</g>
<!-- Node32 -->
<g id="node32" class="node"><title>Node32</title>
<g id="a_node32"><a xlink:href="a00345.html" target="_top" xlink:title="hpp/fcl/eigen/taylor\l_operator.h">
<polygon fill="white" stroke="black" points="401.889,-305 401.889,-335 500.889,-335 500.889,-305 401.889,-305"/>
<text text-anchor="start" x="409.889" y="-323" font-family="Helvetica,sans-Serif" font-size="10.00">hpp/fcl/eigen/taylor</text>
<text text-anchor="middle" x="451.389" y="-312" font-family="Helvetica,sans-Serif" font-size="10.00">_operator.h</text>
</a>
</g>
</g>
<!-- Node26&#45;&gt;Node32 -->
<g id="edge44" class="edge"><title>Node26&#45;&gt;Node32</title>
<path fill="none" stroke="midnightblue" d="M386.399,-372.679C397.898,-363.536 412.984,-351.54 425.726,-341.407"/>
<polygon fill="midnightblue" stroke="midnightblue" points="428.051,-344.03 433.7,-335.066 423.694,-338.551 428.051,-344.03"/>
</g>
<!-- Node27&#45;&gt;Node8 -->
<g id="edge39" class="edge"><title>Node27&#45;&gt;Node8</title>
<path fill="none" stroke="midnightblue" d="M353.327,-304.984C376.897,-287.808 418.655,-258.25 456.389,-236 476.272,-224.276 499.582,-212.56 517.358,-204.022"/>
<polygon fill="midnightblue" stroke="midnightblue" points="519.078,-207.08 526.607,-199.626 516.073,-200.758 519.078,-207.08"/>
</g>
<!-- Node28 -->
<g id="node28" class="node"><title>Node28</title>
<g id="a_node28"><a xlink:href="a00306.html" target="_top" xlink:title="hpp/fcl/ccd/interval.h">
<polygon fill="white" stroke="black" points="156.889,-242.5 156.889,-261.5 263.889,-261.5 263.889,-242.5 156.889,-242.5"/>
<text text-anchor="middle" x="210.389" y="-249.5" font-family="Helvetica,sans-Serif" font-size="10.00">hpp/fcl/ccd/interval.h</text>
</a>
</g>
</g>
<!-- Node27&#45;&gt;Node28 -->
<g id="edge37" class="edge"><title>Node27&#45;&gt;Node28</title>
<path fill="none" stroke="midnightblue" d="M307.788,-304.841C286.436,-293.476 256.66,-277.628 235.667,-266.454"/>
<polygon fill="midnightblue" stroke="midnightblue" points="237.173,-263.291 226.701,-261.682 233.884,-269.47 237.173,-263.291"/>
</g>
<!-- Node29 -->
<g id="node29" class="node"><title>Node29</title>
<g id="a_node29"><a xlink:href="a00305.html" target="_top" xlink:title="hpp/fcl/eigen/plugins\l/ccd/interval&#45;vector.h">
<polygon fill="white" stroke="black" points="282.389,-237 282.389,-267 390.389,-267 390.389,-237 282.389,-237"/>
<text text-anchor="start" x="290.389" y="-255" font-family="Helvetica,sans-Serif" font-size="10.00">hpp/fcl/eigen/plugins</text>
<text text-anchor="middle" x="336.389" y="-244" font-family="Helvetica,sans-Serif" font-size="10.00">/ccd/interval&#45;vector.h</text>
</a>
</g>
</g>
<!-- Node27&#45;&gt;Node29 -->
<g id="edge40" class="edge"><title>Node27&#45;&gt;Node29</title>
<path fill="none" stroke="midnightblue" d="M334.823,-304.679C335.064,-296.722 335.371,-286.605 335.649,-277.436"/>
<polygon fill="midnightblue" stroke="midnightblue" points="339.152,-277.395 335.956,-267.293 332.155,-277.182 339.152,-277.395"/>
</g>
<!-- Node28&#45;&gt;Node10 -->
<g id="edge38" class="edge"><title>Node28&#45;&gt;Node10</title>
<path fill="none" stroke="midnightblue" d="M209.135,-242.125C205.128,-213.769 192.575,-124.93 187.047,-85.8108"/>
<polygon fill="midnightblue" stroke="midnightblue" points="190.496,-85.1976 185.631,-75.7857 183.564,-86.177 190.496,-85.1976"/>
</g>
<!-- Node30&#45;&gt;Node28 -->
<g id="edge42" class="edge"><title>Node30&#45;&gt;Node28</title>
<path fill="none" stroke="midnightblue" d="M188.465,-304.679C192.615,-294.898 198.149,-281.852 202.619,-271.315"/>
<polygon fill="midnightblue" stroke="midnightblue" points="205.96,-272.401 206.644,-261.828 199.516,-269.667 205.96,-272.401"/>
</g>
<!-- Node30&#45;&gt;Node31 -->
<g id="edge43" class="edge"><title>Node30&#45;&gt;Node31</title>
<path fill="none" stroke="midnightblue" d="M161.125,-304.679C144.69,-293.611 122.049,-278.363 105.623,-267.3"/>
<polygon fill="midnightblue" stroke="midnightblue" points="107.465,-264.321 97.2153,-261.638 103.555,-270.127 107.465,-264.321"/>
</g>
<!-- Node32&#45;&gt;Node8 -->
<g id="edge45" class="edge"><title>Node32&#45;&gt;Node8</title>
<path fill="none" stroke="midnightblue" d="M452.466,-304.737C454.438,-287.043 459.972,-256.687 475.389,-236 485.56,-222.352 501.195,-211.736 515.111,-204.251"/>
<polygon fill="midnightblue" stroke="midnightblue" points="517.032,-207.202 524.381,-199.57 513.877,-200.953 517.032,-207.202"/>
</g>
<!-- Node32&#45;&gt;Node22 -->
<g id="edge46" class="edge"><title>Node32&#45;&gt;Node22</title>
<path fill="none" stroke="midnightblue" d="M471.786,-304.679C487.404,-293.713 508.865,-278.645 524.583,-267.609"/>
<polygon fill="midnightblue" stroke="midnightblue" points="526.914,-270.249 533.087,-261.638 522.892,-264.52 526.914,-270.249"/>
</g>
<!-- Node33&#45;&gt;Node22 -->
<g id="edge50" class="edge"><title>Node33&#45;&gt;Node22</title>
<path fill="none" stroke="midnightblue" d="M490.254,-372.862C495.808,-362.709 503.313,-348.641 509.389,-336 519.983,-313.96 531.006,-288.03 538.018,-271.093"/>
<polygon fill="midnightblue" stroke="midnightblue" points="541.264,-272.404 541.826,-261.824 534.789,-269.744 541.264,-272.404"/>
</g>
<!-- Node33&#45;&gt;Node27 -->
<g id="edge49" class="edge"><title>Node33&#45;&gt;Node27</title>
<path fill="none" stroke="midnightblue" d="M450.64,-372.841C428.52,-362.977 398.825,-349.735 374.985,-339.104"/>
<polygon fill="midnightblue" stroke="midnightblue" points="376.391,-335.898 365.832,-335.022 373.54,-342.291 376.391,-335.898"/>
</g>
<!-- Node33&#45;&gt;Node28 -->
<g id="edge48" class="edge"><title>Node33&#45;&gt;Node28</title>
<path fill="none" stroke="midnightblue" d="M432.824,-374.359C429.632,-373.557 426.466,-372.765 423.389,-372 357.695,-355.66 332.29,-372.674 275.389,-336 249.843,-319.535 230.09,-289.508 219.362,-270.441"/>
<polygon fill="midnightblue" stroke="midnightblue" points="222.421,-268.738 214.592,-261.598 216.26,-272.061 222.421,-268.738"/>
</g>
<!-- Node34&#45;&gt;Node7 -->
<g id="edge53" class="edge"><title>Node34&#45;&gt;Node7</title>
<path fill="none" stroke="midnightblue" d="M699.823,-310.372C723.995,-299.057 766.619,-279.105 794.685,-265.968"/>
<polygon fill="midnightblue" stroke="midnightblue" points="796.378,-269.04 803.952,-261.63 793.411,-262.7 796.378,-269.04"/>
</g>
<!-- Node34&#45;&gt;Node8 -->
<g id="edge54" class="edge"><title>Node34&#45;&gt;Node8</title>
<path fill="none" stroke="midnightblue" d="M696.463,-310.409C721.223,-295.221 765.734,-262.71 744.389,-236 727.805,-215.247 662.334,-203.364 610.96,-197.082"/>
<polygon fill="midnightblue" stroke="midnightblue" points="611.231,-193.59 600.891,-195.899 610.415,-200.542 611.231,-193.59"/>
</g>
<!-- Node34&#45;&gt;Node22 -->
<g id="edge55" class="edge"><title>Node34&#45;&gt;Node22</title>
<path fill="none" stroke="midnightblue" d="M663.61,-310.372C640.396,-299.106 599.541,-279.279 572.466,-266.14"/>
<polygon fill="midnightblue" stroke="midnightblue" points="573.698,-262.848 563.173,-261.63 570.642,-269.145 573.698,-262.848"/>
</g>
<!-- Node35 -->
<g id="node35" class="node"><title>Node35</title>
<polygon fill="white" stroke="#bfbfbf" points="624.889,-237 624.889,-267 735.889,-267 735.889,-237 624.889,-237"/>
<text text-anchor="start" x="632.889" y="-255" font-family="Helvetica,sans-Serif" font-size="10.00">boost/math/constants</text>
<text text-anchor="middle" x="680.389" y="-244" font-family="Helvetica,sans-Serif" font-size="10.00">/constants.hpp</text>
</g>
<!-- Node34&#45;&gt;Node35 -->
<g id="edge56" class="edge"><title>Node34&#45;&gt;Node35</title>
<path fill="none" stroke="midnightblue" d="M681.259,-310.372C681.131,-301.971 680.932,-288.811 680.756,-277.213"/>
<polygon fill="midnightblue" stroke="midnightblue" points="684.255,-277.127 680.604,-267.181 677.256,-277.233 684.255,-277.127"/>
</g>
<!-- Node37&#45;&gt;Node3 -->
<g id="edge62" class="edge"><title>Node37&#45;&gt;Node3</title>
<path fill="none" stroke="midnightblue" d="M248.719,-700.841C232.196,-691.359 210.234,-678.754 192.102,-668.348"/>
<polygon fill="midnightblue" stroke="midnightblue" points="193.434,-665.077 183.019,-663.135 189.95,-671.149 193.434,-665.077"/>
</g>
<!-- Node37&#45;&gt;Node21 -->
<g id="edge63" class="edge"><title>Node37&#45;&gt;Node21</title>
<path fill="none" stroke="midnightblue" d="M284.933,-700.832C292.077,-691.115 300.589,-677.57 304.389,-664 323.478,-595.845 295.575,-511.574 281.136,-475.162"/>
<polygon fill="midnightblue" stroke="midnightblue" points="284.346,-473.764 277.312,-465.84 277.87,-476.42 284.346,-473.764"/>
</g>
<!-- Node38 -->
<g id="node38" class="node"><title>Node38</title>
<polygon fill="white" stroke="#bfbfbf" points="236.889,-638.5 236.889,-657.5 295.889,-657.5 295.889,-638.5 236.889,-638.5"/>
<text text-anchor="middle" x="266.389" y="-645.5" font-family="Helvetica,sans-Serif" font-size="10.00">ccd/ccd.h</text>
</g>
<!-- Node37&#45;&gt;Node38 -->
<g id="edge64" class="edge"><title>Node37&#45;&gt;Node38</title>
<path fill="none" stroke="midnightblue" d="M271.87,-700.679C270.855,-691.101 269.507,-678.394 268.402,-667.977"/>
<polygon fill="midnightblue" stroke="midnightblue" points="271.861,-667.403 267.326,-657.828 264.9,-668.142 271.861,-667.403"/>
</g>
<!-- Node39 -->
<g id="node39" class="node"><title>Node39</title>
<polygon fill="white" stroke="#bfbfbf" points="352.389,-638.5 352.389,-657.5 414.389,-657.5 414.389,-638.5 352.389,-638.5"/>
<text text-anchor="middle" x="383.389" y="-645.5" font-family="Helvetica,sans-Serif" font-size="10.00">ccd/quat.h</text>
</g>
<!-- Node37&#45;&gt;Node39 -->
<g id="edge65" class="edge"><title>Node37&#45;&gt;Node39</title>
<path fill="none" stroke="midnightblue" d="M296.987,-700.841C315.673,-689.63 341.63,-674.056 360.207,-662.91"/>
<polygon fill="midnightblue" stroke="midnightblue" points="362.145,-665.828 368.92,-657.682 358.544,-659.826 362.145,-665.828"/>
</g>
</g>
</svg>
