<?xml version="1.0" encoding="UTF-8" standalone="no"?>
<!DOCTYPE svg PUBLIC "-//W3C//DTD SVG 1.1//EN"
 "http://www.w3.org/Graphics/SVG/1.1/DTD/svg11.dtd">
<!-- Generated by graphviz version 2.36.0 (20140111.2315)
 -->
<!-- Title: interpolation_factory.h Pages: 1 -->
<svg width="475pt" height="208pt"
 viewBox="0.00 0.00 475.00 208.00" xmlns="http://www.w3.org/2000/svg" xmlns:xlink="http://www.w3.org/1999/xlink">
<g id="graph0" class="graph" transform="scale(1 1) rotate(0) translate(4 204)">
<title>interpolation_factory.h</title>
<polygon fill="white" stroke="none" points="-4,4 -4,-204 471,-204 471,4 -4,4"/>
<!-- Node1 -->
<g id="node1" class="node"><title>Node1</title>
<polygon fill="#bfbfbf" stroke="black" points="151.5,-180.5 151.5,-199.5 264.5,-199.5 264.5,-180.5 151.5,-180.5"/>
<text text-anchor="middle" x="208" y="-187.5" font-family="Helvetica,sans-Serif" font-size="10.00">interpolation_factory.h</text>
</g>
<!-- Node2 -->
<g id="node2" class="node"><title>Node2</title>
<g id="a_node2"><a xlink:href="a00283.html" target="_top" xlink:title="hpp/fcl/data_types.h">
<polygon fill="white" stroke="black" points="15.5,-56.5 15.5,-75.5 120.5,-75.5 120.5,-56.5 15.5,-56.5"/>
<text text-anchor="middle" x="68" y="-63.5" font-family="Helvetica,sans-Serif" font-size="10.00">hpp/fcl/data_types.h</text>
</a>
</g>
</g>
<!-- Node1&#45;&gt;Node2 -->
<g id="edge1" class="edge"><title>Node1&#45;&gt;Node2</title>
<path fill="none" stroke="midnightblue" d="M151.37,-180.98C109.043,-173.69 56.2919,-161.402 43,-144 29.4672,-126.282 42.3036,-100.958 54.0266,-84.2562"/>
<polygon fill="midnightblue" stroke="midnightblue" points="57.0447,-86.0658 60.2504,-75.9676 51.447,-81.8626 57.0447,-86.0658"/>
</g>
<!-- Node5 -->
<g id="node5" class="node"><title>Node5</title>
<g id="a_node5"><a xlink:href="a00300.html" target="_top" xlink:title="hpp/fcl/ccd/interpolation\l/interpolation.h">
<polygon fill="white" stroke="black" points="52,-113 52,-143 172,-143 172,-113 52,-113"/>
<text text-anchor="start" x="60" y="-131" font-family="Helvetica,sans-Serif" font-size="10.00">hpp/fcl/ccd/interpolation</text>
<text text-anchor="middle" x="112" y="-120" font-family="Helvetica,sans-Serif" font-size="10.00">/interpolation.h</text>
</a>
</g>
</g>
<!-- Node1&#45;&gt;Node5 -->
<g id="edge4" class="edge"><title>Node1&#45;&gt;Node5</title>
<path fill="none" stroke="midnightblue" d="M194.246,-180.403C181.001,-172.125 160.497,-159.311 143.276,-148.547"/>
<polygon fill="midnightblue" stroke="midnightblue" points="144.96,-145.473 134.625,-143.141 141.25,-151.409 144.96,-145.473"/>
</g>
<!-- Node6 -->
<g id="node6" class="node"><title>Node6</title>
<polygon fill="white" stroke="#bfbfbf" points="190.5,-118.5 190.5,-137.5 225.5,-137.5 225.5,-118.5 190.5,-118.5"/>
<text text-anchor="middle" x="208" y="-125.5" font-family="Helvetica,sans-Serif" font-size="10.00">map</text>
</g>
<!-- Node1&#45;&gt;Node6 -->
<g id="edge6" class="edge"><title>Node1&#45;&gt;Node6</title>
<path fill="none" stroke="midnightblue" d="M208,-180.403C208,-171.938 208,-158.728 208,-147.82"/>
<polygon fill="midnightblue" stroke="midnightblue" points="211.5,-147.581 208,-137.581 204.5,-147.581 211.5,-147.581"/>
</g>
<!-- Node7 -->
<g id="node7" class="node"><title>Node7</title>
<polygon fill="white" stroke="#bfbfbf" points="244,-118.5 244,-137.5 352,-137.5 352,-118.5 244,-118.5"/>
<text text-anchor="middle" x="298" y="-125.5" font-family="Helvetica,sans-Serif" font-size="10.00">boost/shared_ptr.hpp</text>
</g>
<!-- Node1&#45;&gt;Node7 -->
<g id="edge7" class="edge"><title>Node1&#45;&gt;Node7</title>
<path fill="none" stroke="midnightblue" d="M220.895,-180.403C235.464,-170.691 259.402,-154.732 276.745,-143.17"/>
<polygon fill="midnightblue" stroke="midnightblue" points="278.75,-146.04 285.129,-137.581 274.867,-140.215 278.75,-146.04"/>
</g>
<!-- Node8 -->
<g id="node8" class="node"><title>Node8</title>
<polygon fill="white" stroke="#bfbfbf" points="370.5,-118.5 370.5,-137.5 467.5,-137.5 467.5,-118.5 370.5,-118.5"/>
<text text-anchor="middle" x="419" y="-125.5" font-family="Helvetica,sans-Serif" font-size="10.00">boost/function.hpp</text>
</g>
<!-- Node1&#45;&gt;Node8 -->
<g id="edge8" class="edge"><title>Node1&#45;&gt;Node8</title>
<path fill="none" stroke="midnightblue" d="M238.231,-180.403C275.287,-169.866 338.193,-151.978 379.164,-140.328"/>
<polygon fill="midnightblue" stroke="midnightblue" points="380.164,-143.682 388.825,-137.581 378.249,-136.949 380.164,-143.682"/>
</g>
<!-- Node3 -->
<g id="node3" class="node"><title>Node3</title>
<polygon fill="white" stroke="#bfbfbf" points="-0.5,-0.5 -0.5,-19.5 48.5,-19.5 48.5,-0.5 -0.5,-0.5"/>
<text text-anchor="middle" x="24" y="-7.5" font-family="Helvetica,sans-Serif" font-size="10.00">cstddef</text>
</g>
<!-- Node2&#45;&gt;Node3 -->
<g id="edge2" class="edge"><title>Node2&#45;&gt;Node3</title>
<path fill="none" stroke="midnightblue" d="M60.7343,-56.083C54.4552,-48.3768 45.2124,-37.0333 37.5692,-27.6531"/>
<polygon fill="midnightblue" stroke="midnightblue" points="40.1606,-25.2926 31.1305,-19.7511 34.7339,-29.7143 40.1606,-25.2926"/>
</g>
<!-- Node4 -->
<g id="node4" class="node"><title>Node4</title>
<polygon fill="white" stroke="#bfbfbf" points="67,-0.5 67,-19.5 159,-19.5 159,-0.5 67,-0.5"/>
<text text-anchor="middle" x="113" y="-7.5" font-family="Helvetica,sans-Serif" font-size="10.00">boost/cstdint.hpp</text>
</g>
<!-- Node2&#45;&gt;Node4 -->
<g id="edge3" class="edge"><title>Node2&#45;&gt;Node4</title>
<path fill="none" stroke="midnightblue" d="M75.4308,-56.083C81.8527,-48.3768 91.3056,-37.0333 99.1225,-27.6531"/>
<polygon fill="midnightblue" stroke="midnightblue" points="101.994,-29.674 105.707,-19.7511 96.6168,-25.1927 101.994,-29.674"/>
</g>
<!-- Node5&#45;&gt;Node2 -->
<g id="edge5" class="edge"><title>Node5&#45;&gt;Node2</title>
<path fill="none" stroke="midnightblue" d="M101.573,-112.781C95.2448,-104.152 87.1314,-93.0882 80.4657,-83.9987"/>
<polygon fill="midnightblue" stroke="midnightblue" points="83.1385,-81.7248 74.4024,-75.7305 77.4936,-85.8644 83.1385,-81.7248"/>
</g>
</g>
</svg>
