<?xml version="1.0" encoding="UTF-8" standalone="no"?>
<!DOCTYPE svg PUBLIC "-//W3C//DTD SVG 1.1//EN"
 "http://www.w3.org/Graphics/SVG/1.1/DTD/svg11.dtd">
<!-- Generated by graphviz version 2.36.0 (20140111.2315)
 -->
<!-- Title: motion.h Pages: 1 -->
<svg width="359pt" height="140pt"
 viewBox="0.00 0.00 359.00 140.00" xmlns="http://www.w3.org/2000/svg" xmlns:xlink="http://www.w3.org/1999/xlink">
<g id="graph0" class="graph" transform="scale(1 1) rotate(0) translate(4 136)">
<title>motion.h</title>
<polygon fill="white" stroke="none" points="-4,4 -4,-136 355,-136 355,4 -4,4"/>
<!-- Node1 -->
<g id="node1" class="node"><title>Node1</title>
<polygon fill="#bfbfbf" stroke="black" points="193,-112.5 193,-131.5 247,-131.5 247,-112.5 193,-112.5"/>
<text text-anchor="middle" x="220" y="-119.5" font-family="Helvetica,sans-Serif" font-size="10.00">motion.h</text>
</g>
<!-- Node2 -->
<g id="node2" class="node"><title>Node2</title>
<g id="a_node2"><a xlink:href="a00351.html" target="_top" xlink:title="traversal_node_bvhs.h">
<polygon fill="white" stroke="black" points="93.5,-56.5 93.5,-75.5 208.5,-75.5 208.5,-56.5 93.5,-56.5"/>
<text text-anchor="middle" x="151" y="-63.5" font-family="Helvetica,sans-Serif" font-size="10.00">traversal_node_bvhs.h</text>
</a>
</g>
</g>
<!-- Node1&#45;&gt;Node2 -->
<g id="edge1" class="edge"><title>Node1&#45;&gt;Node2</title>
<path fill="none" stroke="midnightblue" d="M200.962,-106.101C188.544,-96.3824 172.757,-84.0269 162.288,-75.8339"/>
<polygon fill="midnightblue" stroke="midnightblue" points="198.882,-108.917 208.914,-112.324 203.196,-103.405 198.882,-108.917"/>
</g>
<!-- Node6 -->
<g id="node6" class="node"><title>Node6</title>
<g id="a_node6"><a xlink:href="a00354.html" target="_top" xlink:title="traversal_node_shapes.h">
<polygon fill="white" stroke="black" points="226.5,-56.5 226.5,-75.5 351.5,-75.5 351.5,-56.5 226.5,-56.5"/>
<text text-anchor="middle" x="289" y="-63.5" font-family="Helvetica,sans-Serif" font-size="10.00">traversal_node_shapes.h</text>
</a>
</g>
</g>
<!-- Node1&#45;&gt;Node6 -->
<g id="edge5" class="edge"><title>Node1&#45;&gt;Node6</title>
<path fill="none" stroke="midnightblue" d="M239.038,-106.101C251.456,-96.3824 267.243,-84.0269 277.712,-75.8339"/>
<polygon fill="midnightblue" stroke="midnightblue" points="236.804,-103.405 231.086,-112.324 241.118,-108.917 236.804,-103.405"/>
</g>
<!-- Node3 -->
<g id="node3" class="node"><title>Node3</title>
<g id="a_node3"><a xlink:href="a00279.html" target="_top" xlink:title="collision_node.h">
<polygon fill="white" stroke="black" points="0,-0.5 0,-19.5 86,-19.5 86,-0.5 0,-0.5"/>
<text text-anchor="middle" x="43" y="-7.5" font-family="Helvetica,sans-Serif" font-size="10.00">collision_node.h</text>
</a>
</g>
</g>
<!-- Node2&#45;&gt;Node3 -->
<g id="edge2" class="edge"><title>Node2&#45;&gt;Node3</title>
<path fill="none" stroke="midnightblue" d="M124.452,-51.7261C104.454,-41.7271 77.613,-28.3065 60.309,-19.6545"/>
<polygon fill="midnightblue" stroke="midnightblue" points="123.138,-54.9823 133.648,-56.324 126.269,-48.7213 123.138,-54.9823"/>
</g>
<!-- Node4 -->
<g id="node4" class="node"><title>Node4</title>
<g id="a_node4"><a xlink:href="a00353.html" target="_top" xlink:title="traversal_node_setup.h">
<polygon fill="white" stroke="black" points="225,-0.5 225,-19.5 343,-19.5 343,-0.5 225,-0.5"/>
<text text-anchor="middle" x="284" y="-7.5" font-family="Helvetica,sans-Serif" font-size="10.00">traversal_node_setup.h</text>
</a>
</g>
</g>
<!-- Node2&#45;&gt;Node4 -->
<g id="edge3" class="edge"><title>Node2&#45;&gt;Node4</title>
<path fill="none" stroke="midnightblue" d="M181.448,-52.6377C206.407,-42.504 241.077,-28.4274 263.024,-19.5164"/>
<polygon fill="midnightblue" stroke="midnightblue" points="180.023,-49.4387 172.074,-56.4435 182.656,-55.9245 180.023,-49.4387"/>
</g>
<!-- Node5 -->
<g id="node5" class="node"><title>Node5</title>
<g id="a_node5"><a xlink:href="a00355.html" target="_top" xlink:title="traversal_recurse.h">
<polygon fill="white" stroke="black" points="104,-0.5 104,-19.5 204,-19.5 204,-0.5 104,-0.5"/>
<text text-anchor="middle" x="154" y="-7.5" font-family="Helvetica,sans-Serif" font-size="10.00">traversal_recurse.h</text>
</a>
</g>
</g>
<!-- Node2&#45;&gt;Node5 -->
<g id="edge4" class="edge"><title>Node2&#45;&gt;Node5</title>
<path fill="none" stroke="midnightblue" d="M152.066,-45.8045C152.561,-36.9102 153.123,-26.7798 153.514,-19.7511"/>
<polygon fill="midnightblue" stroke="midnightblue" points="148.556,-45.9042 151.495,-56.083 155.545,-46.2926 148.556,-45.9042"/>
</g>
<!-- Node6&#45;&gt;Node4 -->
<g id="edge6" class="edge"><title>Node6&#45;&gt;Node4</title>
<path fill="none" stroke="midnightblue" d="M287.25,-46.1005C286.42,-37.1357 285.468,-26.8579 284.81,-19.7511"/>
<polygon fill="midnightblue" stroke="midnightblue" points="283.767,-46.4483 288.174,-56.083 290.737,-45.8029 283.767,-46.4483"/>
</g>
</g>
</svg>
