<?xml version="1.0" encoding="UTF-8" standalone="no"?>
<!DOCTYPE svg PUBLIC "-//W3C//DTD SVG 1.1//EN"
 "http://www.w3.org/Graphics/SVG/1.1/DTD/svg11.dtd">
<!-- Generated by graphviz version 2.36.0 (20140111.2315)
 -->
<!-- Title: octree.h Pages: 1 -->
<svg width="941pt" height="660pt"
 viewBox="0.00 0.00 941.00 660.00" xmlns="http://www.w3.org/2000/svg" xmlns:xlink="http://www.w3.org/1999/xlink">
<g id="graph0" class="graph" transform="scale(1 1) rotate(0) translate(4 656)">
<title>octree.h</title>
<polygon fill="white" stroke="none" points="-4,4 -4,-656 937,-656 937,4 -4,4"/>
<!-- Node1 -->
<g id="node1" class="node"><title>Node1</title>
<polygon fill="#bfbfbf" stroke="black" points="614,-632.5 614,-651.5 666,-651.5 666,-632.5 614,-632.5"/>
<text text-anchor="middle" x="640" y="-639.5" font-family="Helvetica,sans-Serif" font-size="10.00">octree.h</text>
</g>
<!-- Node2 -->
<g id="node2" class="node"><title>Node2</title>
<polygon fill="white" stroke="#bfbfbf" points="0,-242.5 0,-261.5 108,-261.5 108,-242.5 0,-242.5"/>
<text text-anchor="middle" x="54" y="-249.5" font-family="Helvetica,sans-Serif" font-size="10.00">boost/shared_ptr.hpp</text>
</g>
<!-- Node1&#45;&gt;Node2 -->
<g id="edge1" class="edge"><title>Node1&#45;&gt;Node2</title>
<path fill="none" stroke="midnightblue" d="M613.982,-638.972C495.885,-629.429 16,-586.844 16,-525 16,-525 16,-525 16,-387 16,-344.048 34.2941,-296.189 45.4957,-270.911"/>
<polygon fill="midnightblue" stroke="midnightblue" points="48.8057,-272.09 49.7881,-261.54 42.4415,-269.174 48.8057,-272.09"/>
</g>
<!-- Node3 -->
<g id="node3" class="node"><title>Node3</title>
<polygon fill="white" stroke="#bfbfbf" points="668,-576.5 668,-595.5 752,-595.5 752,-576.5 668,-576.5"/>
<text text-anchor="middle" x="710" y="-583.5" font-family="Helvetica,sans-Serif" font-size="10.00">boost/array.hpp</text>
</g>
<!-- Node1&#45;&gt;Node3 -->
<g id="edge2" class="edge"><title>Node1&#45;&gt;Node3</title>
<path fill="none" stroke="midnightblue" d="M651.247,-632.324C661.797,-624.185 677.801,-611.839 690.442,-602.087"/>
<polygon fill="midnightblue" stroke="midnightblue" points="692.769,-604.713 698.549,-595.834 688.493,-599.171 692.769,-604.713"/>
</g>
<!-- Node4 -->
<g id="node4" class="node"><title>Node4</title>
<polygon fill="white" stroke="#bfbfbf" points="770.5,-576.5 770.5,-595.5 873.5,-595.5 873.5,-576.5 770.5,-576.5"/>
<text text-anchor="middle" x="822" y="-583.5" font-family="Helvetica,sans-Serif" font-size="10.00">octomap/octomap.h</text>
</g>
<!-- Node1&#45;&gt;Node4 -->
<g id="edge3" class="edge"><title>Node1&#45;&gt;Node4</title>
<path fill="none" stroke="midnightblue" d="M666.076,-633.263C696.761,-624.159 747.995,-608.957 783.312,-598.479"/>
<polygon fill="midnightblue" stroke="midnightblue" points="784.678,-601.724 793.27,-595.524 782.687,-595.013 784.678,-601.724"/>
</g>
<!-- Node5 -->
<g id="node5" class="node"><title>Node5</title>
<g id="a_node5"><a xlink:href="a00257.html" target="_top" xlink:title="hpp/fcl/BV/AABB.h">
<polygon fill="white" stroke="black" points="706.5,-514.5 706.5,-533.5 807.5,-533.5 807.5,-514.5 706.5,-514.5"/>
<text text-anchor="middle" x="757" y="-521.5" font-family="Helvetica,sans-Serif" font-size="10.00">hpp/fcl/BV/AABB.h</text>
</a>
</g>
</g>
<!-- Node1&#45;&gt;Node5 -->
<g id="edge4" class="edge"><title>Node1&#45;&gt;Node5</title>
<path fill="none" stroke="midnightblue" d="M640.405,-632.434C641.461,-618.982 645.269,-592.716 659,-576 673.961,-557.787 697.141,-545.307 717.202,-537.254"/>
<polygon fill="midnightblue" stroke="midnightblue" points="718.63,-540.456 726.75,-533.65 716.158,-533.907 718.63,-540.456"/>
</g>
<!-- Node20 -->
<g id="node20" class="node"><title>Node20</title>
<g id="a_node20"><a xlink:href="a00280.html" target="_top" xlink:title="hpp/fcl/collision_object.h">
<polygon fill="white" stroke="black" points="488,-576.5 488,-595.5 612,-595.5 612,-576.5 488,-576.5"/>
<text text-anchor="middle" x="550" y="-583.5" font-family="Helvetica,sans-Serif" font-size="10.00">hpp/fcl/collision_object.h</text>
</a>
</g>
</g>
<!-- Node1&#45;&gt;Node20 -->
<g id="edge26" class="edge"><title>Node1&#45;&gt;Node20</title>
<path fill="none" stroke="midnightblue" d="M625.54,-632.324C611.5,-623.9 589.952,-610.971 573.457,-601.074"/>
<polygon fill="midnightblue" stroke="midnightblue" points="574.8,-597.798 564.424,-595.655 571.198,-603.801 574.8,-597.798"/>
</g>
<!-- Node6 -->
<g id="node6" class="node"><title>Node6</title>
<polygon fill="white" stroke="#bfbfbf" points="754.5,-378.5 754.5,-397.5 813.5,-397.5 813.5,-378.5 754.5,-378.5"/>
<text text-anchor="middle" x="784" y="-385.5" font-family="Helvetica,sans-Serif" font-size="10.00">stdexcept</text>
</g>
<!-- Node5&#45;&gt;Node6 -->
<g id="edge5" class="edge"><title>Node5&#45;&gt;Node6</title>
<path fill="none" stroke="midnightblue" d="M758.772,-514.208C763.101,-492.722 774.295,-437.167 780.209,-407.814"/>
<polygon fill="midnightblue" stroke="midnightblue" points="783.713,-408.145 782.257,-397.65 776.851,-406.762 783.713,-408.145"/>
</g>
<!-- Node7 -->
<g id="node7" class="node"><title>Node7</title>
<g id="a_node7"><a xlink:href="a00356.html" target="_top" xlink:title="hpp/fcl/math/vec_3f.h">
<polygon fill="white" stroke="black" points="469.5,-180.5 469.5,-199.5 580.5,-199.5 580.5,-180.5 469.5,-180.5"/>
<text text-anchor="middle" x="525" y="-187.5" font-family="Helvetica,sans-Serif" font-size="10.00">hpp/fcl/math/vec_3f.h</text>
</a>
</g>
</g>
<!-- Node5&#45;&gt;Node7 -->
<g id="edge6" class="edge"><title>Node5&#45;&gt;Node7</title>
<path fill="none" stroke="midnightblue" d="M774.362,-514.429C808.267,-496.328 880,-450.736 880,-389 880,-389 880,-389 880,-319 880,-258.211 693.462,-218.293 590.824,-200.931"/>
<polygon fill="midnightblue" stroke="midnightblue" points="591.298,-197.461 580.859,-199.271 590.148,-204.366 591.298,-197.461"/>
</g>
<!-- Node8 -->
<g id="node8" class="node"><title>Node8</title>
<polygon fill="white" stroke="#bfbfbf" points="634,-56.5 634,-75.5 736,-75.5 736,-56.5 634,-56.5"/>
<text text-anchor="middle" x="685" y="-63.5" font-family="Helvetica,sans-Serif" font-size="10.00">hpp/fcl/config&#45;fcl.hh</text>
</g>
<!-- Node7&#45;&gt;Node8 -->
<g id="edge7" class="edge"><title>Node7&#45;&gt;Node8</title>
<path fill="none" stroke="midnightblue" d="M540.598,-180.429C555.731,-171.875 579.111,-158.019 598,-144 624.168,-124.579 651.958,-99.003 668.9,-82.7759"/>
<polygon fill="midnightblue" stroke="midnightblue" points="671.536,-85.0964 676.291,-75.6289 666.669,-80.0643 671.536,-85.0964"/>
</g>
<!-- Node9 -->
<g id="node9" class="node"><title>Node9</title>
<g id="a_node9"><a xlink:href="a00283.html" target="_top" xlink:title="hpp/fcl/data_types.h">
<polygon fill="white" stroke="black" points="184.5,-56.5 184.5,-75.5 289.5,-75.5 289.5,-56.5 184.5,-56.5"/>
<text text-anchor="middle" x="237" y="-63.5" font-family="Helvetica,sans-Serif" font-size="10.00">hpp/fcl/data_types.h</text>
</a>
</g>
</g>
<!-- Node7&#45;&gt;Node9 -->
<g id="edge8" class="edge"><title>Node7&#45;&gt;Node9</title>
<path fill="none" stroke="midnightblue" d="M486.469,-180.439C454.776,-172.763 409.051,-160.219 371,-144 329.233,-126.197 284.133,-98.2859 258.357,-81.4086"/>
<polygon fill="midnightblue" stroke="midnightblue" points="260.047,-78.3301 249.776,-75.7291 256.183,-84.1672 260.047,-78.3301"/>
</g>
<!-- Node12 -->
<g id="node12" class="node"><title>Node12</title>
<g id="a_node12"><a xlink:href="a00316.html" target="_top" xlink:title="hpp/fcl/eigen/math\l_details.h">
<polygon fill="white" stroke="black" points="749.5,-113 749.5,-143 846.5,-143 846.5,-113 749.5,-113"/>
<text text-anchor="start" x="757.5" y="-131" font-family="Helvetica,sans-Serif" font-size="10.00">hpp/fcl/eigen/math</text>
<text text-anchor="middle" x="798" y="-120" font-family="Helvetica,sans-Serif" font-size="10.00">_details.h</text>
</a>
</g>
</g>
<!-- Node7&#45;&gt;Node12 -->
<g id="edge11" class="edge"><title>Node7&#45;&gt;Node12</title>
<path fill="none" stroke="midnightblue" d="M563.824,-180.467C609.6,-170.407 686.152,-153.582 739.211,-141.921"/>
<polygon fill="midnightblue" stroke="midnightblue" points="740.147,-145.298 749.163,-139.733 738.645,-138.462 740.147,-145.298"/>
</g>
<!-- Node15 -->
<g id="node15" class="node"><title>Node15</title>
<g id="a_node15"><a xlink:href="a00357.html" target="_top" xlink:title="hpp/fcl/eigen/vec_3fx.h">
<polygon fill="white" stroke="black" points="450,-118.5 450,-137.5 568,-137.5 568,-118.5 450,-118.5"/>
<text text-anchor="middle" x="509" y="-125.5" font-family="Helvetica,sans-Serif" font-size="10.00">hpp/fcl/eigen/vec_3fx.h</text>
</a>
</g>
</g>
<!-- Node7&#45;&gt;Node15 -->
<g id="edge14" class="edge"><title>Node7&#45;&gt;Node15</title>
<path fill="none" stroke="midnightblue" d="M522.708,-180.403C520.426,-171.849 516.853,-158.45 513.927,-147.476"/>
<polygon fill="midnightblue" stroke="midnightblue" points="517.247,-146.341 511.288,-137.581 510.483,-148.145 517.247,-146.341"/>
</g>
<!-- Node16 -->
<g id="node16" class="node"><title>Node16</title>
<polygon fill="white" stroke="#bfbfbf" points="308,-56.5 308,-75.5 352,-75.5 352,-56.5 308,-56.5"/>
<text text-anchor="middle" x="330" y="-63.5" font-family="Helvetica,sans-Serif" font-size="10.00">cmath</text>
</g>
<!-- Node7&#45;&gt;Node16 -->
<g id="edge23" class="edge"><title>Node7&#45;&gt;Node16</title>
<path fill="none" stroke="midnightblue" d="M495.821,-180.354C472.605,-172.743 439.841,-160.329 414,-144 386.693,-126.744 360.047,-100.176 344.329,-83.1946"/>
<polygon fill="midnightblue" stroke="midnightblue" points="346.848,-80.7625 337.535,-75.7111 341.665,-85.4677 346.848,-80.7625"/>
</g>
<!-- Node17 -->
<g id="node17" class="node"><title>Node17</title>
<polygon fill="white" stroke="#bfbfbf" points="370,-56.5 370,-75.5 424,-75.5 424,-56.5 370,-56.5"/>
<text text-anchor="middle" x="397" y="-63.5" font-family="Helvetica,sans-Serif" font-size="10.00">iostream</text>
</g>
<!-- Node7&#45;&gt;Node17 -->
<g id="edge24" class="edge"><title>Node7&#45;&gt;Node17</title>
<path fill="none" stroke="midnightblue" d="M501.015,-180.392C482.858,-172.944 458.193,-160.729 441,-144 423.637,-127.106 410.996,-101.891 403.832,-84.9656"/>
<polygon fill="midnightblue" stroke="midnightblue" points="407.063,-83.6196 400.085,-75.647 400.568,-86.2309 407.063,-83.6196"/>
</g>
<!-- Node18 -->
<g id="node18" class="node"><title>Node18</title>
<polygon fill="white" stroke="#bfbfbf" points="576,-56.5 576,-75.5 616,-75.5 616,-56.5 576,-56.5"/>
<text text-anchor="middle" x="596" y="-63.5" font-family="Helvetica,sans-Serif" font-size="10.00">limits</text>
</g>
<!-- Node7&#45;&gt;Node18 -->
<g id="edge25" class="edge"><title>Node7&#45;&gt;Node18</title>
<path fill="none" stroke="midnightblue" d="M539.079,-180.415C550.965,-172.437 567.52,-159.474 577,-144 587.987,-126.066 592.627,-102.12 594.583,-85.7209"/>
<polygon fill="midnightblue" stroke="midnightblue" points="598.069,-86.032 595.553,-75.7403 591.102,-85.3548 598.069,-86.032"/>
</g>
<!-- Node10 -->
<g id="node10" class="node"><title>Node10</title>
<polygon fill="white" stroke="#bfbfbf" points="168.5,-0.5 168.5,-19.5 217.5,-19.5 217.5,-0.5 168.5,-0.5"/>
<text text-anchor="middle" x="193" y="-7.5" font-family="Helvetica,sans-Serif" font-size="10.00">cstddef</text>
</g>
<!-- Node9&#45;&gt;Node10 -->
<g id="edge9" class="edge"><title>Node9&#45;&gt;Node10</title>
<path fill="none" stroke="midnightblue" d="M229.734,-56.083C223.455,-48.3768 214.212,-37.0333 206.569,-27.6531"/>
<polygon fill="midnightblue" stroke="midnightblue" points="209.161,-25.2926 200.131,-19.7511 203.734,-29.7143 209.161,-25.2926"/>
</g>
<!-- Node11 -->
<g id="node11" class="node"><title>Node11</title>
<polygon fill="white" stroke="#bfbfbf" points="236,-0.5 236,-19.5 328,-19.5 328,-0.5 236,-0.5"/>
<text text-anchor="middle" x="282" y="-7.5" font-family="Helvetica,sans-Serif" font-size="10.00">boost/cstdint.hpp</text>
</g>
<!-- Node9&#45;&gt;Node11 -->
<g id="edge10" class="edge"><title>Node9&#45;&gt;Node11</title>
<path fill="none" stroke="midnightblue" d="M244.431,-56.083C250.853,-48.3768 260.306,-37.0333 268.122,-27.6531"/>
<polygon fill="midnightblue" stroke="midnightblue" points="270.994,-29.674 274.707,-19.7511 265.617,-25.1927 270.994,-29.674"/>
</g>
<!-- Node13 -->
<g id="node13" class="node"><title>Node13</title>
<polygon fill="white" stroke="#bfbfbf" points="859.5,-56.5 859.5,-75.5 932.5,-75.5 932.5,-56.5 859.5,-56.5"/>
<text text-anchor="middle" x="896" y="-63.5" font-family="Helvetica,sans-Serif" font-size="10.00">Eigen/Dense</text>
</g>
<!-- Node12&#45;&gt;Node13 -->
<g id="edge12" class="edge"><title>Node12&#45;&gt;Node13</title>
<path fill="none" stroke="midnightblue" d="M821.225,-112.781C837.028,-103.105 857.832,-90.3684 873.483,-80.7861"/>
<polygon fill="midnightblue" stroke="midnightblue" points="875.325,-83.7623 882.026,-75.5557 871.67,-77.7923 875.325,-83.7623"/>
</g>
<!-- Node14 -->
<g id="node14" class="node"><title>Node14</title>
<polygon fill="white" stroke="#bfbfbf" points="754.5,-56.5 754.5,-75.5 841.5,-75.5 841.5,-56.5 754.5,-56.5"/>
<text text-anchor="middle" x="798" y="-63.5" font-family="Helvetica,sans-Serif" font-size="10.00">Eigen/Geometry</text>
</g>
<!-- Node12&#45;&gt;Node14 -->
<g id="edge13" class="edge"><title>Node12&#45;&gt;Node14</title>
<path fill="none" stroke="midnightblue" d="M798,-112.781C798,-104.781 798,-94.6887 798,-86.0168"/>
<polygon fill="midnightblue" stroke="midnightblue" points="801.5,-85.7305 798,-75.7305 794.5,-85.7306 801.5,-85.7305"/>
</g>
<!-- Node15&#45;&gt;Node8 -->
<g id="edge15" class="edge"><title>Node15&#45;&gt;Node8</title>
<path fill="none" stroke="midnightblue" d="M534.217,-118.403C564.668,-108.022 616.049,-90.5062 650.243,-78.849"/>
<polygon fill="midnightblue" stroke="midnightblue" points="651.495,-82.1202 659.83,-75.5806 649.236,-75.4946 651.495,-82.1202"/>
</g>
<!-- Node15&#45;&gt;Node9 -->
<g id="edge16" class="edge"><title>Node15&#45;&gt;Node9</title>
<path fill="none" stroke="midnightblue" d="M470.318,-118.467C421.679,-107.738 338.164,-89.3157 285.358,-77.6673"/>
<polygon fill="midnightblue" stroke="midnightblue" points="286.068,-74.2397 275.549,-75.5034 284.56,-81.0754 286.068,-74.2397"/>
</g>
<!-- Node15&#45;&gt;Node13 -->
<g id="edge17" class="edge"><title>Node15&#45;&gt;Node13</title>
<path fill="none" stroke="midnightblue" d="M568.268,-118.956C634.262,-109.815 744.341,-94.0207 849.236,-76.0646"/>
<polygon fill="midnightblue" stroke="midnightblue" points="850.108,-79.4661 859.369,-74.3203 848.92,-72.5675 850.108,-79.4661"/>
</g>
<!-- Node15&#45;&gt;Node14 -->
<g id="edge18" class="edge"><title>Node15&#45;&gt;Node14</title>
<path fill="none" stroke="midnightblue" d="M550.1,-118.467C601.886,-107.716 690.882,-89.239 746.969,-77.5947"/>
<polygon fill="midnightblue" stroke="midnightblue" points="747.962,-80.9632 757.042,-75.5034 746.539,-74.1093 747.962,-80.9632"/>
</g>
<!-- Node15&#45;&gt;Node16 -->
<g id="edge19" class="edge"><title>Node15&#45;&gt;Node16</title>
<path fill="none" stroke="midnightblue" d="M483.354,-118.403C451.327,-107.668 396.539,-89.3036 361.855,-77.6777"/>
<polygon fill="midnightblue" stroke="midnightblue" points="362.807,-74.3053 352.213,-74.4456 360.582,-80.9424 362.807,-74.3053"/>
</g>
<!-- Node15&#45;&gt;Node17 -->
<g id="edge20" class="edge"><title>Node15&#45;&gt;Node17</title>
<path fill="none" stroke="midnightblue" d="M492.953,-118.403C474.407,-108.468 443.66,-91.9966 421.978,-80.3812"/>
<polygon fill="midnightblue" stroke="midnightblue" points="423.485,-77.2177 413.017,-75.5806 420.179,-83.388 423.485,-77.2177"/>
</g>
<!-- Node15&#45;&gt;Node18 -->
<g id="edge21" class="edge"><title>Node15&#45;&gt;Node18</title>
<path fill="none" stroke="midnightblue" d="M521.465,-118.403C535.419,-108.78 558.265,-93.0242 574.991,-81.4891"/>
<polygon fill="midnightblue" stroke="midnightblue" points="577.313,-84.1392 583.558,-75.5806 573.339,-78.3767 577.313,-84.1392"/>
</g>
<!-- Node19 -->
<g id="node19" class="node"><title>Node19</title>
<g id="a_node19"><a xlink:href="a00336.html" target="_top" xlink:title="hpp/fcl/eigen/product.h">
<polygon fill="white" stroke="black" points="442,-56.5 442,-75.5 558,-75.5 558,-56.5 442,-56.5"/>
<text text-anchor="middle" x="500" y="-63.5" font-family="Helvetica,sans-Serif" font-size="10.00">hpp/fcl/eigen/product.h</text>
</a>
</g>
</g>
<!-- Node15&#45;&gt;Node19 -->
<g id="edge22" class="edge"><title>Node15&#45;&gt;Node19</title>
<path fill="none" stroke="midnightblue" d="M507.711,-118.403C506.427,-109.849 504.417,-96.4497 502.771,-85.4762"/>
<polygon fill="midnightblue" stroke="midnightblue" points="506.232,-84.9507 501.287,-75.5806 499.309,-85.9892 506.232,-84.9507"/>
</g>
<!-- Node20&#45;&gt;Node2 -->
<g id="edge59" class="edge"><title>Node20&#45;&gt;Node2</title>
<path fill="none" stroke="midnightblue" d="M487.934,-581.995C354.845,-573.857 54,-545.654 54,-457 54,-457 54,-457 54,-387 54,-346.046 54,-298.052 54,-272.066"/>
<polygon fill="midnightblue" stroke="midnightblue" points="57.5001,-271.78 54,-261.78 50.5001,-271.78 57.5001,-271.78"/>
</g>
<!-- Node20&#45;&gt;Node5 -->
<g id="edge28" class="edge"><title>Node20&#45;&gt;Node5</title>
<path fill="none" stroke="midnightblue" d="M579.658,-576.403C615.934,-565.889 677.464,-548.054 717.664,-536.402"/>
<polygon fill="midnightblue" stroke="midnightblue" points="718.767,-539.726 727.397,-533.581 716.818,-533.003 718.767,-539.726"/>
</g>
<!-- Node21 -->
<g id="node21" class="node"><title>Node21</title>
<g id="a_node21"><a xlink:href="a00284.html" target="_top" xlink:title="hpp/fcl/deprecated.h">
<polygon fill="white" stroke="black" points="378.5,-514.5 378.5,-533.5 483.5,-533.5 483.5,-514.5 378.5,-514.5"/>
<text text-anchor="middle" x="431" y="-521.5" font-family="Helvetica,sans-Serif" font-size="10.00">hpp/fcl/deprecated.h</text>
</a>
</g>
</g>
<!-- Node20&#45;&gt;Node21 -->
<g id="edge27" class="edge"><title>Node20&#45;&gt;Node21</title>
<path fill="none" stroke="midnightblue" d="M532.95,-576.403C513.156,-566.423 480.283,-549.849 457.23,-538.225"/>
<polygon fill="midnightblue" stroke="midnightblue" points="458.523,-534.958 448.018,-533.581 455.372,-541.208 458.523,-534.958"/>
</g>
<!-- Node22 -->
<g id="node22" class="node"><title>Node22</title>
<g id="a_node22"><a xlink:href="a00348.html" target="_top" xlink:title="hpp/fcl/math/transform.h">
<polygon fill="white" stroke="black" points="615.5,-446.5 615.5,-465.5 738.5,-465.5 738.5,-446.5 615.5,-446.5"/>
<text text-anchor="middle" x="677" y="-453.5" font-family="Helvetica,sans-Serif" font-size="10.00">hpp/fcl/math/transform.h</text>
</a>
</g>
</g>
<!-- Node20&#45;&gt;Node22 -->
<g id="edge29" class="edge"><title>Node20&#45;&gt;Node22</title>
<path fill="none" stroke="midnightblue" d="M562.372,-576.357C574.33,-567.75 592.688,-553.856 607,-540 628.912,-518.786 651.088,-491.233 664.441,-473.828"/>
<polygon fill="midnightblue" stroke="midnightblue" points="667.321,-475.822 670.572,-465.738 661.742,-471.594 667.321,-475.822"/>
</g>
<!-- Node25 -->
<g id="node25" class="node"><title>Node25</title>
<g id="a_node25"><a xlink:href="a00325.html" target="_top" xlink:title="hpp/fcl/ccd/motion\l_base.h">
<polygon fill="white" stroke="black" points="501.5,-509 501.5,-539 598.5,-539 598.5,-509 501.5,-509"/>
<text text-anchor="start" x="509.5" y="-527" font-family="Helvetica,sans-Serif" font-size="10.00">hpp/fcl/ccd/motion</text>
<text text-anchor="middle" x="550" y="-516" font-family="Helvetica,sans-Serif" font-size="10.00">_base.h</text>
</a>
</g>
</g>
<!-- Node20&#45;&gt;Node25 -->
<g id="edge33" class="edge"><title>Node20&#45;&gt;Node25</title>
<path fill="none" stroke="midnightblue" d="M550,-576.403C550,-569.341 550,-558.975 550,-549.399"/>
<polygon fill="midnightblue" stroke="midnightblue" points="553.5,-549.141 550,-539.141 546.5,-549.141 553.5,-549.141"/>
</g>
<!-- Node23 -->
<g id="node23" class="node"><title>Node23</title>
<g id="a_node23"><a xlink:href="a00319.html" target="_top" xlink:title="hpp/fcl/math/matrix_3f.h">
<polygon fill="white" stroke="black" points="472,-242.5 472,-261.5 594,-261.5 594,-242.5 472,-242.5"/>
<text text-anchor="middle" x="533" y="-249.5" font-family="Helvetica,sans-Serif" font-size="10.00">hpp/fcl/math/matrix_3f.h</text>
</a>
</g>
</g>
<!-- Node22&#45;&gt;Node23 -->
<g id="edge30" class="edge"><title>Node22&#45;&gt;Node23</title>
<path fill="none" stroke="midnightblue" d="M727.164,-446.474C779.036,-435.306 848.954,-412.248 822,-372 773.726,-299.916 673.021,-271.455 604.208,-260.244"/>
<polygon fill="midnightblue" stroke="midnightblue" points="604.713,-256.781 594.296,-258.712 603.644,-263.699 604.713,-256.781"/>
</g>
<!-- Node24 -->
<g id="node24" class="node"><title>Node24</title>
<polygon fill="white" stroke="#bfbfbf" points="617.5,-378.5 617.5,-397.5 736.5,-397.5 736.5,-378.5 617.5,-378.5"/>
<text text-anchor="middle" x="677" y="-385.5" font-family="Helvetica,sans-Serif" font-size="10.00">boost/thread/mutex.hpp</text>
</g>
<!-- Node22&#45;&gt;Node24 -->
<g id="edge32" class="edge"><title>Node22&#45;&gt;Node24</title>
<path fill="none" stroke="midnightblue" d="M677,-446.372C677,-436.643 677,-420.528 677,-407.85"/>
<polygon fill="midnightblue" stroke="midnightblue" points="680.5,-407.841 677,-397.841 673.5,-407.841 680.5,-407.841"/>
</g>
<!-- Node23&#45;&gt;Node7 -->
<g id="edge31" class="edge"><title>Node23&#45;&gt;Node7</title>
<path fill="none" stroke="midnightblue" d="M531.854,-242.403C530.725,-233.938 528.964,-220.728 527.509,-209.82"/>
<polygon fill="midnightblue" stroke="midnightblue" points="530.935,-209.03 526.144,-199.581 523.997,-209.955 530.935,-209.03"/>
</g>
<!-- Node25&#45;&gt;Node22 -->
<g id="edge34" class="edge"><title>Node25&#45;&gt;Node22</title>
<path fill="none" stroke="midnightblue" d="M577.245,-508.841C599.212,-497.425 629.885,-481.485 651.401,-470.303"/>
<polygon fill="midnightblue" stroke="midnightblue" points="653.035,-473.399 660.294,-465.682 649.807,-467.188 653.035,-473.399"/>
</g>
<!-- Node26 -->
<g id="node26" class="node"><title>Node26</title>
<g id="a_node26"><a xlink:href="a00343.html" target="_top" xlink:title="hpp/fcl/ccd/taylor\l_matrix.h">
<polygon fill="white" stroke="black" points="298,-441 298,-471 390,-471 390,-441 298,-441"/>
<text text-anchor="start" x="306" y="-459" font-family="Helvetica,sans-Serif" font-size="10.00">hpp/fcl/ccd/taylor</text>
<text text-anchor="middle" x="344" y="-448" font-family="Helvetica,sans-Serif" font-size="10.00">_matrix.h</text>
</a>
</g>
</g>
<!-- Node25&#45;&gt;Node26 -->
<g id="edge35" class="edge"><title>Node25&#45;&gt;Node26</title>
<path fill="none" stroke="midnightblue" d="M506.061,-508.922C474.334,-498.757 431.316,-484.975 397.573,-474.164"/>
<polygon fill="midnightblue" stroke="midnightblue" points="398.463,-470.774 387.872,-471.056 396.327,-477.44 398.463,-470.774"/>
</g>
<!-- Node27 -->
<g id="node27" class="node"><title>Node27</title>
<g id="a_node27"><a xlink:href="a00346.html" target="_top" xlink:title="hpp/fcl/ccd/taylor\l_vector.h">
<polygon fill="white" stroke="black" points="145,-373 145,-403 237,-403 237,-373 145,-373"/>
<text text-anchor="start" x="153" y="-391" font-family="Helvetica,sans-Serif" font-size="10.00">hpp/fcl/ccd/taylor</text>
<text text-anchor="middle" x="191" y="-380" font-family="Helvetica,sans-Serif" font-size="10.00">_vector.h</text>
</a>
</g>
</g>
<!-- Node25&#45;&gt;Node27 -->
<g id="edge53" class="edge"><title>Node25&#45;&gt;Node27</title>
<path fill="none" stroke="midnightblue" d="M501.331,-510.121C498.18,-509.378 495.049,-508.664 492,-508 402.466,-488.514 371.937,-510.955 289,-472 257.606,-457.254 228.178,-429.78 209.919,-410.492"/>
<polygon fill="midnightblue" stroke="midnightblue" points="212.391,-408.009 203.033,-403.041 207.25,-412.76 212.391,-408.009"/>
</g>
<!-- Node34 -->
<g id="node34" class="node"><title>Node34</title>
<g id="a_node34"><a xlink:href="a00338.html" target="_top" xlink:title="hpp/fcl/BV/RSS.h">
<polygon fill="white" stroke="black" points="502.5,-446.5 502.5,-465.5 597.5,-465.5 597.5,-446.5 502.5,-446.5"/>
<text text-anchor="middle" x="550" y="-453.5" font-family="Helvetica,sans-Serif" font-size="10.00">hpp/fcl/BV/RSS.h</text>
</a>
</g>
</g>
<!-- Node25&#45;&gt;Node34 -->
<g id="edge54" class="edge"><title>Node25&#45;&gt;Node34</title>
<path fill="none" stroke="midnightblue" d="M550,-508.679C550,-499.101 550,-486.394 550,-475.977"/>
<polygon fill="midnightblue" stroke="midnightblue" points="553.5,-475.828 550,-465.828 546.5,-475.828 553.5,-475.828"/>
</g>
<!-- Node26&#45;&gt;Node23 -->
<g id="edge36" class="edge"><title>Node26&#45;&gt;Node23</title>
<path fill="none" stroke="midnightblue" d="M350.913,-440.853C360.406,-422.718 379.058,-391.316 403,-372 434.612,-346.496 456.863,-363.232 487,-336 506.721,-318.18 519.855,-289.855 526.872,-271.344"/>
<polygon fill="midnightblue" stroke="midnightblue" points="530.237,-272.327 530.3,-261.733 523.644,-269.976 530.237,-272.327"/>
</g>
<!-- Node26&#45;&gt;Node27 -->
<g id="edge37" class="edge"><title>Node26&#45;&gt;Node27</title>
<path fill="none" stroke="midnightblue" d="M311.178,-440.841C288.31,-430.977 257.613,-417.735 232.967,-407.104"/>
<polygon fill="midnightblue" stroke="midnightblue" points="234.074,-403.769 223.505,-403.022 231.301,-410.197 234.074,-403.769"/>
</g>
<!-- Node33 -->
<g id="node33" class="node"><title>Node33</title>
<g id="a_node33"><a xlink:href="a00307.html" target="_top" xlink:title="hpp/fcl/ccd/interval\l_matrix.h">
<polygon fill="white" stroke="black" points="255.5,-373 255.5,-403 354.5,-403 354.5,-373 255.5,-373"/>
<text text-anchor="start" x="263.5" y="-391" font-family="Helvetica,sans-Serif" font-size="10.00">hpp/fcl/ccd/interval</text>
<text text-anchor="middle" x="305" y="-380" font-family="Helvetica,sans-Serif" font-size="10.00">_matrix.h</text>
</a>
</g>
</g>
<!-- Node26&#45;&gt;Node33 -->
<g id="edge49" class="edge"><title>Node26&#45;&gt;Node33</title>
<path fill="none" stroke="midnightblue" d="M335.538,-440.679C330.58,-432.29 324.204,-421.499 318.561,-411.949"/>
<polygon fill="midnightblue" stroke="midnightblue" points="321.546,-410.122 313.446,-403.293 315.52,-413.683 321.546,-410.122"/>
</g>
<!-- Node28 -->
<g id="node28" class="node"><title>Node28</title>
<g id="a_node28"><a xlink:href="a00309.html" target="_top" xlink:title="hpp/fcl/ccd/interval\l_vector.h">
<polygon fill="white" stroke="black" points="230.5,-305 230.5,-335 329.5,-335 329.5,-305 230.5,-305"/>
<text text-anchor="start" x="238.5" y="-323" font-family="Helvetica,sans-Serif" font-size="10.00">hpp/fcl/ccd/interval</text>
<text text-anchor="middle" x="280" y="-312" font-family="Helvetica,sans-Serif" font-size="10.00">_vector.h</text>
</a>
</g>
</g>
<!-- Node27&#45;&gt;Node28 -->
<g id="edge38" class="edge"><title>Node27&#45;&gt;Node28</title>
<path fill="none" stroke="midnightblue" d="M210.312,-372.679C222.759,-363.449 239.126,-351.311 252.871,-341.118"/>
<polygon fill="midnightblue" stroke="midnightblue" points="255.084,-343.834 261.032,-335.066 250.915,-338.212 255.084,-343.834"/>
</g>
<!-- Node31 -->
<g id="node31" class="node"><title>Node31</title>
<g id="a_node31"><a xlink:href="a00344.html" target="_top" xlink:title="hpp/fcl/ccd/taylor\l_model.h">
<polygon fill="white" stroke="black" points="82,-305 82,-335 174,-335 174,-305 82,-305"/>
<text text-anchor="start" x="90" y="-323" font-family="Helvetica,sans-Serif" font-size="10.00">hpp/fcl/ccd/taylor</text>
<text text-anchor="middle" x="128" y="-312" font-family="Helvetica,sans-Serif" font-size="10.00">_model.h</text>
</a>
</g>
</g>
<!-- Node27&#45;&gt;Node31 -->
<g id="edge43" class="edge"><title>Node27&#45;&gt;Node31</title>
<path fill="none" stroke="midnightblue" d="M177.33,-372.679C168.992,-363.944 158.168,-352.605 148.785,-342.775"/>
<polygon fill="midnightblue" stroke="midnightblue" points="151.08,-340.11 141.643,-335.293 146.016,-344.943 151.08,-340.11"/>
</g>
<!-- Node32 -->
<g id="node32" class="node"><title>Node32</title>
<g id="a_node32"><a xlink:href="a00345.html" target="_top" xlink:title="hpp/fcl/eigen/taylor\l_operator.h">
<polygon fill="white" stroke="black" points="347.5,-305 347.5,-335 446.5,-335 446.5,-305 347.5,-305"/>
<text text-anchor="start" x="355.5" y="-323" font-family="Helvetica,sans-Serif" font-size="10.00">hpp/fcl/eigen/taylor</text>
<text text-anchor="middle" x="397" y="-312" font-family="Helvetica,sans-Serif" font-size="10.00">_operator.h</text>
</a>
</g>
</g>
<!-- Node27&#45;&gt;Node32 -->
<g id="edge46" class="edge"><title>Node27&#45;&gt;Node32</title>
<path fill="none" stroke="midnightblue" d="M234.939,-372.922C266.666,-362.757 309.684,-348.975 343.427,-338.164"/>
<polygon fill="midnightblue" stroke="midnightblue" points="344.673,-341.44 353.128,-335.056 342.537,-334.774 344.673,-341.44"/>
</g>
<!-- Node28&#45;&gt;Node7 -->
<g id="edge41" class="edge"><title>Node28&#45;&gt;Node7</title>
<path fill="none" stroke="midnightblue" d="M278.931,-304.745C278.382,-286.195 280.449,-254.03 299,-236 321.429,-214.201 400.772,-202.243 459.136,-196.237"/>
<polygon fill="midnightblue" stroke="midnightblue" points="459.799,-199.689 469.405,-195.219 459.108,-192.723 459.799,-199.689"/>
</g>
<!-- Node29 -->
<g id="node29" class="node"><title>Node29</title>
<g id="a_node29"><a xlink:href="a00306.html" target="_top" xlink:title="hpp/fcl/ccd/interval.h">
<polygon fill="white" stroke="black" points="144.5,-242.5 144.5,-261.5 251.5,-261.5 251.5,-242.5 144.5,-242.5"/>
<text text-anchor="middle" x="198" y="-249.5" font-family="Helvetica,sans-Serif" font-size="10.00">hpp/fcl/ccd/interval.h</text>
</a>
</g>
</g>
<!-- Node28&#45;&gt;Node29 -->
<g id="edge39" class="edge"><title>Node28&#45;&gt;Node29</title>
<path fill="none" stroke="midnightblue" d="M262.207,-304.679C248.789,-293.879 230.425,-279.098 216.773,-268.11"/>
<polygon fill="midnightblue" stroke="midnightblue" points="218.953,-265.372 208.968,-261.828 214.564,-270.825 218.953,-265.372"/>
</g>
<!-- Node30 -->
<g id="node30" class="node"><title>Node30</title>
<g id="a_node30"><a xlink:href="a00305.html" target="_top" xlink:title="hpp/fcl/eigen/plugins\l/ccd/interval&#45;vector.h">
<polygon fill="white" stroke="black" points="308,-237 308,-267 416,-267 416,-237 308,-237"/>
<text text-anchor="start" x="316" y="-255" font-family="Helvetica,sans-Serif" font-size="10.00">hpp/fcl/eigen/plugins</text>
<text text-anchor="middle" x="362" y="-244" font-family="Helvetica,sans-Serif" font-size="10.00">/ccd/interval&#45;vector.h</text>
</a>
</g>
</g>
<!-- Node28&#45;&gt;Node30 -->
<g id="edge42" class="edge"><title>Node28&#45;&gt;Node30</title>
<path fill="none" stroke="midnightblue" d="M297.793,-304.679C309.153,-295.536 324.057,-283.54 336.646,-273.407"/>
<polygon fill="midnightblue" stroke="midnightblue" points="338.928,-276.063 344.524,-267.066 334.539,-270.61 338.928,-276.063"/>
</g>
<!-- Node29&#45;&gt;Node9 -->
<g id="edge40" class="edge"><title>Node29&#45;&gt;Node9</title>
<path fill="none" stroke="midnightblue" d="M199.881,-242.125C205.891,-213.769 224.721,-124.93 233.013,-85.8108"/>
<polygon fill="midnightblue" stroke="midnightblue" points="236.488,-86.2941 235.138,-75.7857 229.64,-84.8426 236.488,-86.2941"/>
</g>
<!-- Node31&#45;&gt;Node2 -->
<g id="edge45" class="edge"><title>Node31&#45;&gt;Node2</title>
<path fill="none" stroke="midnightblue" d="M111.943,-304.679C100.062,-294.082 83.8855,-279.655 71.6437,-268.736"/>
<polygon fill="midnightblue" stroke="midnightblue" points="73.691,-265.872 63.8984,-261.828 69.0317,-271.097 73.691,-265.872"/>
</g>
<!-- Node31&#45;&gt;Node29 -->
<g id="edge44" class="edge"><title>Node31&#45;&gt;Node29</title>
<path fill="none" stroke="midnightblue" d="M143.189,-304.679C154.428,-294.082 169.73,-279.655 181.31,-268.736"/>
<polygon fill="midnightblue" stroke="midnightblue" points="183.762,-271.235 188.637,-261.828 178.96,-266.142 183.762,-271.235"/>
</g>
<!-- Node32&#45;&gt;Node7 -->
<g id="edge47" class="edge"><title>Node32&#45;&gt;Node7</title>
<path fill="none" stroke="midnightblue" d="M406.474,-304.824C418.448,-287.487 440.255,-257.766 463,-236 475.14,-224.382 490.397,-213.272 502.739,-204.998"/>
<polygon fill="midnightblue" stroke="midnightblue" points="504.675,-207.913 511.123,-199.507 500.84,-202.057 504.675,-207.913"/>
</g>
<!-- Node32&#45;&gt;Node23 -->
<g id="edge48" class="edge"><title>Node32&#45;&gt;Node23</title>
<path fill="none" stroke="midnightblue" d="M426.175,-304.841C449.805,-293.374 482.84,-277.342 505.896,-266.153"/>
<polygon fill="midnightblue" stroke="midnightblue" points="507.642,-269.197 515.11,-261.682 504.585,-262.899 507.642,-269.197"/>
</g>
<!-- Node33&#45;&gt;Node23 -->
<g id="edge52" class="edge"><title>Node33&#45;&gt;Node23</title>
<path fill="none" stroke="midnightblue" d="M354.556,-372.977C391.385,-362.033 438.06,-346.908 455,-336 482.718,-318.152 507.415,-288.349 521.27,-269.732"/>
<polygon fill="midnightblue" stroke="midnightblue" points="524.134,-271.744 527.166,-261.592 518.465,-267.637 524.134,-271.744"/>
</g>
<!-- Node33&#45;&gt;Node28 -->
<g id="edge51" class="edge"><title>Node33&#45;&gt;Node28</title>
<path fill="none" stroke="midnightblue" d="M299.575,-372.679C296.496,-364.549 292.562,-354.164 289.03,-344.839"/>
<polygon fill="midnightblue" stroke="midnightblue" points="292.229,-343.405 285.414,-335.293 285.683,-345.884 292.229,-343.405"/>
</g>
<!-- Node33&#45;&gt;Node29 -->
<g id="edge50" class="edge"><title>Node33&#45;&gt;Node29</title>
<path fill="none" stroke="midnightblue" d="M269.527,-372.936C252.582,-364.553 233.353,-352.326 221,-336 206.722,-317.13 201.308,-289.873 199.254,-271.809"/>
<polygon fill="midnightblue" stroke="midnightblue" points="202.725,-271.324 198.346,-261.676 195.753,-271.949 202.725,-271.324"/>
</g>
<!-- Node34&#45;&gt;Node6 -->
<g id="edge55" class="edge"><title>Node34&#45;&gt;Node6</title>
<path fill="none" stroke="midnightblue" d="M581.677,-446.466C589.615,-444.341 598.116,-442.077 606,-440 667.711,-423.744 684.232,-423.486 745,-404 747.785,-403.107 750.66,-402.123 753.527,-401.1"/>
<polygon fill="midnightblue" stroke="midnightblue" points="754.952,-404.304 763.106,-397.539 752.513,-397.743 754.952,-404.304"/>
</g>
<!-- Node34&#45;&gt;Node7 -->
<g id="edge56" class="edge"><title>Node34&#45;&gt;Node7</title>
<path fill="none" stroke="midnightblue" d="M556.271,-446.419C577.854,-415.753 645.455,-309.507 603,-236 594.323,-220.977 578.513,-210.523 563.383,-203.499"/>
<polygon fill="midnightblue" stroke="midnightblue" points="564.693,-200.253 554.121,-199.559 561.953,-206.694 564.693,-200.253"/>
</g>
<!-- Node34&#45;&gt;Node23 -->
<g id="edge57" class="edge"><title>Node34&#45;&gt;Node23</title>
<path fill="none" stroke="midnightblue" d="M549.27,-446.32C546.72,-416.022 538.176,-314.498 534.597,-271.981"/>
<polygon fill="midnightblue" stroke="midnightblue" points="538.073,-271.546 533.747,-261.875 531.098,-272.133 538.073,-271.546"/>
</g>
<!-- Node35 -->
<g id="node35" class="node"><title>Node35</title>
<polygon fill="white" stroke="#bfbfbf" points="411.5,-373 411.5,-403 522.5,-403 522.5,-373 411.5,-373"/>
<text text-anchor="start" x="419.5" y="-391" font-family="Helvetica,sans-Serif" font-size="10.00">boost/math/constants</text>
<text text-anchor="middle" x="467" y="-380" font-family="Helvetica,sans-Serif" font-size="10.00">/constants.hpp</text>
</g>
<!-- Node34&#45;&gt;Node35 -->
<g id="edge58" class="edge"><title>Node34&#45;&gt;Node35</title>
<path fill="none" stroke="midnightblue" d="M539.149,-446.372C527.507,-437.114 508.595,-422.076 493.054,-409.718"/>
<polygon fill="midnightblue" stroke="midnightblue" points="494.84,-406.666 484.834,-403.181 490.483,-412.145 494.84,-406.666"/>
</g>
</g>
</svg>
