<?xml version="1.0" encoding="UTF-8" standalone="no"?>
<!DOCTYPE svg PUBLIC "-//W3C//DTD SVG 1.1//EN"
 "http://www.w3.org/Graphics/SVG/1.1/DTD/svg11.dtd">
<!-- Generated by graphviz version 2.36.0 (20140111.2315)
 -->
<!-- Title: interval_vector.h Pages: 1 -->
<svg width="2524pt" height="544pt"
 viewBox="0.00 0.00 2524.00 544.00" xmlns="http://www.w3.org/2000/svg" xmlns:xlink="http://www.w3.org/1999/xlink">
<g id="graph0" class="graph" transform="scale(1 1) rotate(0) translate(4 540)">
<title>interval_vector.h</title>
<polygon fill="white" stroke="none" points="-4,4 -4,-540 2520,-540 2520,4 -4,4"/>
<!-- Node1 -->
<g id="node1" class="node"><title>Node1</title>
<polygon fill="#bfbfbf" stroke="black" points="82.5,-516.5 82.5,-535.5 171.5,-535.5 171.5,-516.5 82.5,-516.5"/>
<text text-anchor="middle" x="127" y="-523.5" font-family="Helvetica,sans-Serif" font-size="10.00">interval_vector.h</text>
</g>
<!-- Node2 -->
<g id="node2" class="node"><title>Node2</title>
<g id="a_node2"><a xlink:href="a00346.html" target="_top" xlink:title="taylor_vector.h">
<polygon fill="white" stroke="black" points="138.5,-460.5 138.5,-479.5 219.5,-479.5 219.5,-460.5 138.5,-460.5"/>
<text text-anchor="middle" x="179" y="-467.5" font-family="Helvetica,sans-Serif" font-size="10.00">taylor_vector.h</text>
</a>
</g>
</g>
<!-- Node1&#45;&gt;Node2 -->
<g id="edge1" class="edge"><title>Node1&#45;&gt;Node2</title>
<path fill="none" stroke="midnightblue" d="M142.679,-508.718C151.845,-499.2 163.053,-487.561 170.573,-479.751"/>
<polygon fill="midnightblue" stroke="midnightblue" points="140.002,-506.452 135.587,-516.083 145.044,-511.308 140.002,-506.452"/>
</g>
<!-- Node42 -->
<g id="node42" class="node"><title>Node42</title>
<g id="a_node42"><a xlink:href="a00307.html" target="_top" xlink:title="interval_matrix.h">
<polygon fill="white" stroke="black" points="31.5,-460.5 31.5,-479.5 120.5,-479.5 120.5,-460.5 31.5,-460.5"/>
<text text-anchor="middle" x="76" y="-467.5" font-family="Helvetica,sans-Serif" font-size="10.00">interval_matrix.h</text>
</a>
</g>
</g>
<!-- Node1&#45;&gt;Node42 -->
<g id="edge82" class="edge"><title>Node1&#45;&gt;Node42</title>
<path fill="none" stroke="midnightblue" d="M111.622,-508.718C102.633,-499.2 91.6408,-487.561 84.2649,-479.751"/>
<polygon fill="midnightblue" stroke="midnightblue" points="109.168,-511.216 118.578,-516.083 114.257,-506.41 109.168,-511.216"/>
</g>
<!-- Node3 -->
<g id="node3" class="node"><title>Node3</title>
<g id="a_node3"><a xlink:href="a00343.html" target="_top" xlink:title="taylor_matrix.h">
<polygon fill="white" stroke="black" points="69.5,-404.5 69.5,-423.5 150.5,-423.5 150.5,-404.5 69.5,-404.5"/>
<text text-anchor="middle" x="110" y="-411.5" font-family="Helvetica,sans-Serif" font-size="10.00">taylor_matrix.h</text>
</a>
</g>
</g>
<!-- Node2&#45;&gt;Node3 -->
<g id="edge2" class="edge"><title>Node2&#45;&gt;Node3</title>
<path fill="none" stroke="midnightblue" d="M159.962,-454.101C147.544,-444.382 131.757,-432.027 121.288,-423.834"/>
<polygon fill="midnightblue" stroke="midnightblue" points="157.882,-456.917 167.914,-460.324 162.196,-451.405 157.882,-456.917"/>
</g>
<!-- Node4 -->
<g id="node4" class="node"><title>Node4</title>
<g id="a_node4"><a xlink:href="a00325.html" target="_top" xlink:title="motion_base.h">
<polygon fill="white" stroke="black" points="104,-348.5 104,-367.5 184,-367.5 184,-348.5 104,-348.5"/>
<text text-anchor="middle" x="144" y="-355.5" font-family="Helvetica,sans-Serif" font-size="10.00">motion_base.h</text>
</a>
</g>
</g>
<!-- Node2&#45;&gt;Node4 -->
<g id="edge81" class="edge"><title>Node2&#45;&gt;Node4</title>
<path fill="none" stroke="midnightblue" d="M173.43,-450.49C169.479,-437.465 164.011,-419.636 159,-404 154.929,-391.296 150.003,-376.65 146.935,-367.607"/>
<polygon fill="midnightblue" stroke="midnightblue" points="170.105,-451.588 176.348,-460.148 176.806,-449.563 170.105,-451.588"/>
</g>
<!-- Node3&#45;&gt;Node4 -->
<g id="edge3" class="edge"><title>Node3&#45;&gt;Node4</title>
<path fill="none" stroke="midnightblue" d="M120.977,-395.566C126.827,-386.275 133.77,-375.248 138.49,-367.751"/>
<polygon fill="midnightblue" stroke="midnightblue" points="117.981,-393.756 115.614,-404.083 123.904,-397.486 117.981,-393.756"/>
</g>
<!-- Node5 -->
<g id="node5" class="node"><title>Node5</title>
<g id="a_node5"><a xlink:href="a00280.html" target="_top" xlink:title="collision_object.h">
<polygon fill="white" stroke="black" points="1002,-292.5 1002,-311.5 1094,-311.5 1094,-292.5 1002,-292.5"/>
<text text-anchor="middle" x="1048" y="-299.5" font-family="Helvetica,sans-Serif" font-size="10.00">collision_object.h</text>
</a>
</g>
</g>
<!-- Node4&#45;&gt;Node5 -->
<g id="edge4" class="edge"><title>Node4&#45;&gt;Node5</title>
<path fill="none" stroke="midnightblue" d="M194.018,-354.012C353.423,-344.49 848.01,-314.946 1001.85,-305.757"/>
<polygon fill="midnightblue" stroke="midnightblue" points="193.784,-350.52 184.01,-354.61 194.201,-357.507 193.784,-350.52"/>
</g>
<!-- Node31 -->
<g id="node31" class="node"><title>Node31</title>
<g id="a_node31"><a xlink:href="a00281.html" target="_top" xlink:title="conservative_advancement.h">
<polygon fill="white" stroke="black" points="72,-180.5 72,-199.5 216,-199.5 216,-180.5 72,-180.5"/>
<text text-anchor="middle" x="144" y="-187.5" font-family="Helvetica,sans-Serif" font-size="10.00">conservative_advancement.h</text>
</a>
</g>
</g>
<!-- Node4&#45;&gt;Node31 -->
<g id="edge77" class="edge"><title>Node4&#45;&gt;Node31</title>
<path fill="none" stroke="midnightblue" d="M144,-337.93C144,-301.92 144,-225.231 144,-199.568"/>
<polygon fill="midnightblue" stroke="midnightblue" points="140.5,-338.075 144,-348.075 147.5,-338.075 140.5,-338.075"/>
</g>
<!-- Node41 -->
<g id="node41" class="node"><title>Node41</title>
<g id="a_node41"><a xlink:href="a00324.html" target="_top" xlink:title="motion.h">
<polygon fill="white" stroke="black" points="0,-180.5 0,-199.5 54,-199.5 54,-180.5 0,-180.5"/>
<text text-anchor="middle" x="27" y="-187.5" font-family="Helvetica,sans-Serif" font-size="10.00">motion.h</text>
</a>
</g>
</g>
<!-- Node4&#45;&gt;Node41 -->
<g id="edge78" class="edge"><title>Node4&#45;&gt;Node41</title>
<path fill="none" stroke="midnightblue" d="M131.851,-339.763C107.062,-304.592 51.44,-225.676 33.039,-199.568"/>
<polygon fill="midnightblue" stroke="midnightblue" points="129.088,-341.918 137.71,-348.075 134.809,-337.885 129.088,-341.918"/>
</g>
<!-- Node6 -->
<g id="node6" class="node"><title>Node6</title>
<g id="a_node6"><a xlink:href="a00315.html" target="_top" xlink:title="link.h">
<polygon fill="white" stroke="black" points="1691,-236.5 1691,-255.5 1731,-255.5 1731,-236.5 1691,-236.5"/>
<text text-anchor="middle" x="1711" y="-243.5" font-family="Helvetica,sans-Serif" font-size="10.00">link.h</text>
</a>
</g>
</g>
<!-- Node5&#45;&gt;Node6 -->
<g id="edge5" class="edge"><title>Node5&#45;&gt;Node6</title>
<path fill="none" stroke="midnightblue" d="M1104.33,-297.137C1207.75,-289.927 1434.86,-273.556 1626,-256 1648.17,-253.964 1673.54,-251.224 1690.75,-249.304"/>
<polygon fill="midnightblue" stroke="midnightblue" points="1103.85,-293.662 1094.12,-297.847 1104.33,-300.645 1103.85,-293.662"/>
</g>
<!-- Node8 -->
<g id="node8" class="node"><title>Node8</title>
<g id="a_node8"><a xlink:href="a00258.html" target="_top" xlink:title="broadphase.h">
<polygon fill="white" stroke="black" points="2013.5,-180.5 2013.5,-199.5 2088.5,-199.5 2088.5,-180.5 2013.5,-180.5"/>
<text text-anchor="middle" x="2051" y="-187.5" font-family="Helvetica,sans-Serif" font-size="10.00">broadphase.h</text>
</a>
</g>
</g>
<!-- Node5&#45;&gt;Node8 -->
<g id="edge7" class="edge"><title>Node5&#45;&gt;Node8</title>
<path fill="none" stroke="midnightblue" d="M1104.66,-300.019C1223.14,-297.373 1505.52,-287.965 1740,-256 1842.2,-242.067 1961.04,-213.806 2017.67,-199.584"/>
<polygon fill="midnightblue" stroke="midnightblue" points="1104.31,-296.525 1094.39,-300.24 1104.46,-303.524 1104.31,-296.525"/>
</g>
<!-- Node16 -->
<g id="node16" class="node"><title>Node16</title>
<g id="a_node16"><a xlink:href="a00292.html" target="_top" xlink:title="geometric_shapes.h">
<polygon fill="white" stroke="black" points="1330,-236.5 1330,-255.5 1434,-255.5 1434,-236.5 1330,-236.5"/>
<text text-anchor="middle" x="1382" y="-243.5" font-family="Helvetica,sans-Serif" font-size="10.00">geometric_shapes.h</text>
</a>
</g>
</g>
<!-- Node5&#45;&gt;Node16 -->
<g id="edge22" class="edge"><title>Node5&#45;&gt;Node16</title>
<path fill="none" stroke="midnightblue" d="M1104.24,-291.907C1167.23,-281.723 1268.5,-265.35 1329.8,-255.44"/>
<polygon fill="midnightblue" stroke="midnightblue" points="1103.4,-288.497 1094.09,-293.548 1104.52,-295.407 1103.4,-288.497"/>
</g>
<!-- Node26 -->
<g id="node26" class="node"><title>Node26</title>
<g id="a_node26"><a xlink:href="a00273.html" target="_top" xlink:title="BVH_model.h">
<polygon fill="white" stroke="black" points="406.5,-180.5 406.5,-199.5 483.5,-199.5 483.5,-180.5 406.5,-180.5"/>
<text text-anchor="middle" x="445" y="-187.5" font-family="Helvetica,sans-Serif" font-size="10.00">BVH_model.h</text>
</a>
</g>
</g>
<!-- Node5&#45;&gt;Node26 -->
<g id="edge40" class="edge"><title>Node5&#45;&gt;Node26</title>
<path fill="none" stroke="midnightblue" d="M991.65,-292.608C935.028,-284.02 845.308,-269.985 768,-256 664.995,-237.366 544.201,-212.158 483.687,-199.296"/>
<polygon fill="midnightblue" stroke="midnightblue" points="991.416,-296.113 1001.83,-294.147 992.463,-289.191 991.416,-296.113"/>
</g>
<!-- Node5&#45;&gt;Node31 -->
<g id="edge50" class="edge"><title>Node5&#45;&gt;Node31</title>
<path fill="none" stroke="midnightblue" d="M991.767,-297.411C897.783,-291.104 702.94,-276.706 539,-256 411.441,-239.889 261.963,-213.118 188.861,-199.508"/>
<polygon fill="midnightblue" stroke="midnightblue" points="991.693,-300.914 1001.9,-298.086 992.159,-293.93 991.693,-300.914"/>
</g>
<!-- Node32 -->
<g id="node32" class="node"><title>Node32</title>
<g id="a_node32"><a xlink:href="a00277.html" target="_top" xlink:title="collision_data.h">
<polygon fill="white" stroke="black" points="777,-236.5 777,-255.5 861,-255.5 861,-236.5 777,-236.5"/>
<text text-anchor="middle" x="819" y="-243.5" font-family="Helvetica,sans-Serif" font-size="10.00">collision_data.h</text>
</a>
</g>
</g>
<!-- Node5&#45;&gt;Node32 -->
<g id="edge51" class="edge"><title>Node5&#45;&gt;Node32</title>
<path fill="none" stroke="midnightblue" d="M1001.73,-290.088C958.463,-279.887 894.745,-264.861 855.116,-255.516"/>
<polygon fill="midnightblue" stroke="midnightblue" points="1001.18,-293.555 1011.71,-292.444 1002.78,-286.742 1001.18,-293.555"/>
</g>
<!-- Node33 -->
<g id="node33" class="node"><title>Node33</title>
<g id="a_node33"><a xlink:href="a00276.html" target="_top" xlink:title="collision.h">
<polygon fill="white" stroke="black" points="1233,-180.5 1233,-199.5 1293,-199.5 1293,-180.5 1233,-180.5"/>
<text text-anchor="middle" x="1263" y="-187.5" font-family="Helvetica,sans-Serif" font-size="10.00">collision.h</text>
</a>
</g>
</g>
<!-- Node5&#45;&gt;Node33 -->
<g id="edge70" class="edge"><title>Node5&#45;&gt;Node33</title>
<path fill="none" stroke="midnightblue" d="M1073.93,-287.735C1118.59,-264.884 1208.84,-218.711 1246.21,-199.591"/>
<polygon fill="midnightblue" stroke="midnightblue" points="1072.18,-284.698 1064.87,-292.368 1075.37,-290.93 1072.18,-284.698"/>
</g>
<!-- Node34 -->
<g id="node34" class="node"><title>Node34</title>
<g id="a_node34"><a xlink:href="a00278.html" target="_top" xlink:title="collision_func_matrix.h">
<polygon fill="white" stroke="black" points="234,-180.5 234,-199.5 350,-199.5 350,-180.5 234,-180.5"/>
<text text-anchor="middle" x="292" y="-187.5" font-family="Helvetica,sans-Serif" font-size="10.00">collision_func_matrix.h</text>
</a>
</g>
</g>
<!-- Node5&#45;&gt;Node34 -->
<g id="edge71" class="edge"><title>Node5&#45;&gt;Node34</title>
<path fill="none" stroke="midnightblue" d="M991.764,-295.319C917.32,-287.579 782.041,-272.751 667,-256 547.181,-238.553 406.75,-212.778 336.612,-199.537"/>
<polygon fill="midnightblue" stroke="midnightblue" points="991.549,-298.815 1001.86,-296.364 992.269,-291.853 991.549,-298.815"/>
</g>
<!-- Node36 -->
<g id="node36" class="node"><title>Node36</title>
<g id="a_node36"><a xlink:href="a00282.html" target="_top" xlink:title="continuous_collision.h">
<polygon fill="white" stroke="black" points="885.5,-180.5 885.5,-199.5 998.5,-199.5 998.5,-180.5 885.5,-180.5"/>
<text text-anchor="middle" x="942" y="-187.5" font-family="Helvetica,sans-Serif" font-size="10.00">continuous_collision.h</text>
</a>
</g>
</g>
<!-- Node5&#45;&gt;Node36 -->
<g id="edge72" class="edge"><title>Node5&#45;&gt;Node36</title>
<path fill="none" stroke="midnightblue" d="M1032.48,-284.897C1009.69,-261.249 967.969,-217.949 950.279,-199.591"/>
<polygon fill="midnightblue" stroke="midnightblue" points="1030.22,-287.596 1039.68,-292.368 1035.26,-282.739 1030.22,-287.596"/>
</g>
<!-- Node37 -->
<g id="node37" class="node"><title>Node37</title>
<g id="a_node37"><a xlink:href="a00285.html" target="_top" xlink:title="distance.h">
<polygon fill="white" stroke="black" points="1017,-180.5 1017,-199.5 1079,-199.5 1079,-180.5 1017,-180.5"/>
<text text-anchor="middle" x="1048" y="-187.5" font-family="Helvetica,sans-Serif" font-size="10.00">distance.h</text>
</a>
</g>
</g>
<!-- Node5&#45;&gt;Node37 -->
<g id="edge73" class="edge"><title>Node5&#45;&gt;Node37</title>
<path fill="none" stroke="midnightblue" d="M1048,-282.348C1048,-258.254 1048,-217.308 1048,-199.591"/>
<polygon fill="midnightblue" stroke="midnightblue" points="1044.5,-282.368 1048,-292.368 1051.5,-282.369 1044.5,-282.368"/>
</g>
<!-- Node38 -->
<g id="node38" class="node"><title>Node38</title>
<g id="a_node38"><a xlink:href="a00286.html" target="_top" xlink:title="distance_func_matrix.h">
<polygon fill="white" stroke="black" points="1097,-180.5 1097,-199.5 1215,-199.5 1215,-180.5 1097,-180.5"/>
<text text-anchor="middle" x="1156" y="-187.5" font-family="Helvetica,sans-Serif" font-size="10.00">distance_func_matrix.h</text>
</a>
</g>
</g>
<!-- Node5&#45;&gt;Node38 -->
<g id="edge74" class="edge"><title>Node5&#45;&gt;Node38</title>
<path fill="none" stroke="midnightblue" d="M1063.51,-285.205C1086.66,-261.627 1129.46,-218.029 1147.56,-199.591"/>
<polygon fill="midnightblue" stroke="midnightblue" points="1060.98,-282.781 1056.47,-292.368 1065.98,-287.685 1060.98,-282.781"/>
</g>
<!-- Node40 -->
<g id="node40" class="node"><title>Node40</title>
<g id="a_node40"><a xlink:href="a00335.html" target="_top" xlink:title="octree.h">
<polygon fill="white" stroke="black" points="1565,-236.5 1565,-255.5 1617,-255.5 1617,-236.5 1565,-236.5"/>
<text text-anchor="middle" x="1591" y="-243.5" font-family="Helvetica,sans-Serif" font-size="10.00">octree.h</text>
</a>
</g>
</g>
<!-- Node5&#45;&gt;Node40 -->
<g id="edge75" class="edge"><title>Node5&#45;&gt;Node40</title>
<path fill="none" stroke="midnightblue" d="M1104.38,-295.393C1220.24,-283.872 1481.21,-257.919 1564.75,-249.611"/>
<polygon fill="midnightblue" stroke="midnightblue" points="1103.9,-291.923 1094.3,-296.396 1104.59,-298.889 1103.9,-291.923"/>
</g>
<!-- Node7 -->
<g id="node7" class="node"><title>Node7</title>
<g id="a_node7"><a xlink:href="a00321.html" target="_top" xlink:title="model.h">
<polygon fill="white" stroke="black" points="1719.5,-180.5 1719.5,-199.5 1770.5,-199.5 1770.5,-180.5 1719.5,-180.5"/>
<text text-anchor="middle" x="1745" y="-187.5" font-family="Helvetica,sans-Serif" font-size="10.00">model.h</text>
</a>
</g>
</g>
<!-- Node6&#45;&gt;Node7 -->
<g id="edge6" class="edge"><title>Node6&#45;&gt;Node7</title>
<path fill="none" stroke="midnightblue" d="M1721.98,-227.566C1727.83,-218.275 1734.77,-207.248 1739.49,-199.751"/>
<polygon fill="midnightblue" stroke="midnightblue" points="1718.98,-225.756 1716.61,-236.083 1724.9,-229.486 1718.98,-225.756"/>
</g>
<!-- Node9 -->
<g id="node9" class="node"><title>Node9</title>
<g id="a_node9"><a xlink:href="a00259.html" target="_top" xlink:title="broadphase_bruteforce.h">
<polygon fill="white" stroke="black" points="2244,-118.5 2244,-137.5 2368,-137.5 2368,-118.5 2244,-118.5"/>
<text text-anchor="middle" x="2306" y="-125.5" font-family="Helvetica,sans-Serif" font-size="10.00">broadphase_bruteforce.h</text>
</a>
</g>
</g>
<!-- Node8&#45;&gt;Node9 -->
<g id="edge8" class="edge"><title>Node8&#45;&gt;Node9</title>
<path fill="none" stroke="midnightblue" d="M2092.35,-178.008C2139.97,-166.334 2217.5,-148.129 2264.98,-137.503"/>
<polygon fill="midnightblue" stroke="midnightblue" points="2091.25,-174.675 2082.38,-180.467 2092.92,-181.472 2091.25,-174.675"/>
</g>
<!-- Node10 -->
<g id="node10" class="node"><title>Node10</title>
<g id="a_node10"><a xlink:href="a00264.html" target="_top" xlink:title="broadphase_spatialhash.h">
<polygon fill="white" stroke="black" points="2386,-118.5 2386,-137.5 2516,-137.5 2516,-118.5 2386,-118.5"/>
<text text-anchor="middle" x="2451" y="-125.5" font-family="Helvetica,sans-Serif" font-size="10.00">broadphase_spatialhash.h</text>
</a>
</g>
</g>
<!-- Node8&#45;&gt;Node10 -->
<g id="edge10" class="edge"><title>Node8&#45;&gt;Node10</title>
<path fill="none" stroke="midnightblue" d="M2099.08,-182.464C2161.19,-174.474 2272.23,-160.024 2367,-144 2378.26,-142.096 2390.42,-139.779 2401.94,-137.54"/>
<polygon fill="midnightblue" stroke="midnightblue" points="2098.28,-179.038 2088.81,-183.785 2099.17,-185.981 2098.28,-179.038"/>
</g>
<!-- Node11 -->
<g id="node11" class="node"><title>Node11</title>
<g id="a_node11"><a xlink:href="a00263.html" target="_top" xlink:title="broadphase_SaP.h">
<polygon fill="white" stroke="black" points="1880.5,-118.5 1880.5,-137.5 1979.5,-137.5 1979.5,-118.5 1880.5,-118.5"/>
<text text-anchor="middle" x="1930" y="-125.5" font-family="Helvetica,sans-Serif" font-size="10.00">broadphase_SaP.h</text>
</a>
</g>
</g>
<!-- Node8&#45;&gt;Node11 -->
<g id="edge12" class="edge"><title>Node8&#45;&gt;Node11</title>
<path fill="none" stroke="midnightblue" d="M2019.58,-176.221C1994.4,-164.573 1960.6,-147.687 1942.41,-137.581"/>
<polygon fill="midnightblue" stroke="midnightblue" points="2018.21,-179.442 2028.76,-180.403 2021.11,-173.072 2018.21,-179.442"/>
</g>
<!-- Node12 -->
<g id="node12" class="node"><title>Node12</title>
<g id="a_node12"><a xlink:href="a00266.html" target="_top" xlink:title="broadphase_SSaP.h">
<polygon fill="white" stroke="black" points="1998,-118.5 1998,-137.5 2104,-137.5 2104,-118.5 1998,-118.5"/>
<text text-anchor="middle" x="2051" y="-125.5" font-family="Helvetica,sans-Serif" font-size="10.00">broadphase_SSaP.h</text>
</a>
</g>
</g>
<!-- Node8&#45;&gt;Node12 -->
<g id="edge14" class="edge"><title>Node8&#45;&gt;Node12</title>
<path fill="none" stroke="midnightblue" d="M2044.68,-170.16C2043.8,-159.248 2044.27,-146.04 2046.1,-137.581"/>
<polygon fill="midnightblue" stroke="midnightblue" points="2041.26,-170.977 2046.1,-180.403 2048.2,-170.018 2041.26,-170.977"/>
</g>
<!-- Node13 -->
<g id="node13" class="node"><title>Node13</title>
<g id="a_node13"><a xlink:href="a00262.html" target="_top" xlink:title="broadphase_interval\l_tree.h">
<polygon fill="white" stroke="black" points="2122,-113 2122,-143 2226,-143 2226,-113 2122,-113"/>
<text text-anchor="start" x="2130" y="-131" font-family="Helvetica,sans-Serif" font-size="10.00">broadphase_interval</text>
<text text-anchor="middle" x="2174" y="-120" font-family="Helvetica,sans-Serif" font-size="10.00">_tree.h</text>
</a>
</g>
</g>
<!-- Node8&#45;&gt;Node13 -->
<g id="edge16" class="edge"><title>Node8&#45;&gt;Node13</title>
<path fill="none" stroke="midnightblue" d="M2072.59,-175.679C2091.12,-165.983 2117.95,-152.881 2139.43,-143.025"/>
<polygon fill="midnightblue" stroke="midnightblue" points="2070.9,-172.612 2063.72,-180.403 2074.19,-178.789 2070.9,-172.612"/>
</g>
<!-- Node14 -->
<g id="node14" class="node"><title>Node14</title>
<g id="a_node14"><a xlink:href="a00260.html" target="_top" xlink:title="broadphase_dynamic\l_AABB_tree.h">
<polygon fill="white" stroke="black" points="1626.5,-113 1626.5,-143 1735.5,-143 1735.5,-113 1626.5,-113"/>
<text text-anchor="start" x="1634.5" y="-131" font-family="Helvetica,sans-Serif" font-size="10.00">broadphase_dynamic</text>
<text text-anchor="middle" x="1681" y="-120" font-family="Helvetica,sans-Serif" font-size="10.00">_AABB_tree.h</text>
</a>
</g>
</g>
<!-- Node8&#45;&gt;Node14 -->
<g id="edge18" class="edge"><title>Node8&#45;&gt;Node14</title>
<path fill="none" stroke="midnightblue" d="M2002.82,-184.012C1940.45,-176.724 1829.02,-162.047 1735,-144 1733.34,-143.682 1731.67,-143.35 1729.97,-143.006"/>
<polygon fill="midnightblue" stroke="midnightblue" points="2002.81,-187.534 2013.14,-185.203 2003.61,-180.58 2002.81,-187.534"/>
</g>
<!-- Node15 -->
<g id="node15" class="node"><title>Node15</title>
<g id="a_node15"><a xlink:href="a00261.html" target="_top" xlink:title="broadphase_dynamic\l_AABB_tree_array.h">
<polygon fill="white" stroke="black" points="1753.5,-113 1753.5,-143 1862.5,-143 1862.5,-113 1753.5,-113"/>
<text text-anchor="start" x="1761.5" y="-131" font-family="Helvetica,sans-Serif" font-size="10.00">broadphase_dynamic</text>
<text text-anchor="middle" x="1808" y="-120" font-family="Helvetica,sans-Serif" font-size="10.00">_AABB_tree_array.h</text>
</a>
</g>
</g>
<!-- Node8&#45;&gt;Node15 -->
<g id="edge20" class="edge"><title>Node8&#45;&gt;Node15</title>
<path fill="none" stroke="midnightblue" d="M2003.54,-178.582C1961.93,-168.744 1901.7,-153.919 1859.05,-143.042"/>
<polygon fill="midnightblue" stroke="midnightblue" points="2002.9,-182.026 2013.44,-180.908 2004.51,-175.212 2002.9,-182.026"/>
</g>
<!-- Node9&#45;&gt;Node8 -->
<g id="edge9" class="edge"><title>Node9&#45;&gt;Node8</title>
<path fill="none" stroke="midnightblue" d="M2264.58,-140.007C2215.77,-151.974 2135.59,-170.789 2088.52,-181.279"/>
<polygon fill="midnightblue" stroke="midnightblue" points="2265.63,-143.354 2274.5,-137.563 2263.95,-136.558 2265.63,-143.354"/>
</g>
<!-- Node10&#45;&gt;Node8 -->
<g id="edge11" class="edge"><title>Node10&#45;&gt;Node8</title>
<path fill="none" stroke="midnightblue" d="M2409.31,-139.542C2401.28,-141.118 2392.92,-142.661 2385,-144 2278.29,-162.043 2150.95,-178.091 2088.71,-185.167"/>
<polygon fill="midnightblue" stroke="midnightblue" points="2410.15,-142.945 2419.26,-137.54 2408.77,-136.082 2410.15,-142.945"/>
</g>
<!-- Node11&#45;&gt;Node8 -->
<g id="edge13" class="edge"><title>Node11&#45;&gt;Node8</title>
<path fill="none" stroke="midnightblue" d="M1961.38,-141.761C1986.55,-153.404 2020.36,-170.29 2038.56,-180.403"/>
<polygon fill="midnightblue" stroke="midnightblue" points="1962.75,-138.542 1952.2,-137.581 1959.85,-144.912 1962.75,-138.542"/>
</g>
<!-- Node12&#45;&gt;Node8 -->
<g id="edge15" class="edge"><title>Node12&#45;&gt;Node8</title>
<path fill="none" stroke="midnightblue" d="M2057.31,-147.82C2058.2,-158.728 2057.73,-171.938 2055.9,-180.403"/>
<polygon fill="midnightblue" stroke="midnightblue" points="2060.74,-147.006 2055.9,-137.581 2053.8,-147.966 2060.74,-147.006"/>
</g>
<!-- Node13&#45;&gt;Node8 -->
<g id="edge17" class="edge"><title>Node13&#45;&gt;Node8</title>
<path fill="none" stroke="midnightblue" d="M2141.75,-147.81C2120.28,-158.72 2092.71,-171.936 2073.52,-180.403"/>
<polygon fill="midnightblue" stroke="midnightblue" points="2143.55,-150.824 2150.84,-143.141 2140.35,-144.598 2143.55,-150.824"/>
</g>
<!-- Node14&#45;&gt;Node8 -->
<g id="edge19" class="edge"><title>Node14&#45;&gt;Node8</title>
<path fill="none" stroke="midnightblue" d="M1745.48,-142.496C1748.02,-143.023 1750.54,-143.527 1753,-144 1846.11,-161.872 1956.3,-176.44 2013.15,-183.799"/>
<polygon fill="midnightblue" stroke="midnightblue" points="1746.1,-139.049 1735.59,-140.372 1744.63,-145.893 1746.1,-139.049"/>
</g>
<!-- Node15&#45;&gt;Node8 -->
<g id="edge21" class="edge"><title>Node15&#45;&gt;Node8</title>
<path fill="none" stroke="midnightblue" d="M1872.61,-143.503C1920.75,-155.037 1984.2,-170.783 2021.08,-180.403"/>
<polygon fill="midnightblue" stroke="midnightblue" points="1873.13,-140.027 1862.59,-141.109 1871.5,-146.836 1873.13,-140.027"/>
</g>
<!-- Node17 -->
<g id="node17" class="node"><title>Node17</title>
<g id="a_node17"><a xlink:href="a00293.html" target="_top" xlink:title="geometric_shapes_utility.h">
<polygon fill="white" stroke="black" points="1529.5,-180.5 1529.5,-199.5 1662.5,-199.5 1662.5,-180.5 1529.5,-180.5"/>
<text text-anchor="middle" x="1596" y="-187.5" font-family="Helvetica,sans-Serif" font-size="10.00">geometric_shapes_utility.h</text>
</a>
</g>
</g>
<!-- Node16&#45;&gt;Node17 -->
<g id="edge23" class="edge"><title>Node16&#45;&gt;Node17</title>
<path fill="none" stroke="midnightblue" d="M1425.76,-233.959C1466.17,-223.76 1525.37,-208.822 1562.25,-199.516"/>
<polygon fill="midnightblue" stroke="midnightblue" points="1424.75,-230.603 1415.91,-236.444 1426.46,-237.39 1424.75,-230.603"/>
</g>
<!-- Node18 -->
<g id="node18" class="node"><title>Node18</title>
<g id="a_node18"><a xlink:href="a00350.html" target="_top" xlink:title="traversal_node_bvh\l_shape.h">
<polygon fill="white" stroke="black" points="730.5,-113 730.5,-143 831.5,-143 831.5,-113 730.5,-113"/>
<text text-anchor="start" x="738.5" y="-131" font-family="Helvetica,sans-Serif" font-size="10.00">traversal_node_bvh</text>
<text text-anchor="middle" x="781" y="-120" font-family="Helvetica,sans-Serif" font-size="10.00">_shape.h</text>
</a>
</g>
</g>
<!-- Node16&#45;&gt;Node18 -->
<g id="edge39" class="edge"><title>Node16&#45;&gt;Node18</title>
<path fill="none" stroke="midnightblue" d="M1374.25,-226.951C1366.64,-211.642 1353.48,-190.538 1335,-180 1291.84,-155.388 960.2,-137.395 831.668,-131.279"/>
<polygon fill="midnightblue" stroke="midnightblue" points="1371.25,-228.815 1378.63,-236.423 1377.61,-225.877 1371.25,-228.815"/>
</g>
<!-- Node22 -->
<g id="node22" class="node"><title>Node22</title>
<g id="a_node22"><a xlink:href="a00294.html" target="_top" xlink:title="gjk.h">
<polygon fill="white" stroke="black" points="1387,-180.5 1387,-199.5 1425,-199.5 1425,-180.5 1387,-180.5"/>
<text text-anchor="middle" x="1406" y="-187.5" font-family="Helvetica,sans-Serif" font-size="10.00">gjk.h</text>
</a>
</g>
</g>
<!-- Node16&#45;&gt;Node22 -->
<g id="edge32" class="edge"><title>Node16&#45;&gt;Node22</title>
<path fill="none" stroke="midnightblue" d="M1390.14,-226.69C1394.18,-217.589 1398.88,-207.014 1402.11,-199.751"/>
<polygon fill="midnightblue" stroke="midnightblue" points="1386.83,-225.523 1385.96,-236.083 1393.22,-228.366 1386.83,-225.523"/>
</g>
<!-- Node24 -->
<g id="node24" class="node"><title>Node24</title>
<g id="a_node24"><a xlink:href="a00295.html" target="_top" xlink:title="gjk_libccd.h">
<polygon fill="white" stroke="black" points="1443,-180.5 1443,-199.5 1511,-199.5 1511,-180.5 1443,-180.5"/>
<text text-anchor="middle" x="1477" y="-187.5" font-family="Helvetica,sans-Serif" font-size="10.00">gjk_libccd.h</text>
</a>
</g>
</g>
<!-- Node16&#45;&gt;Node24 -->
<g id="edge36" class="edge"><title>Node16&#45;&gt;Node24</title>
<path fill="none" stroke="midnightblue" d="M1406.32,-231.177C1423.8,-221.241 1446.83,-208.149 1461.77,-199.655"/>
<polygon fill="midnightblue" stroke="midnightblue" points="1404.23,-228.339 1397.26,-236.324 1407.69,-234.425 1404.23,-228.339"/>
</g>
<!-- Node25 -->
<g id="node25" class="node"><title>Node25</title>
<g id="a_node25"><a xlink:href="a00291.html" target="_top" xlink:title="geometric_shape_to\l_BVH_model.h">
<polygon fill="white" stroke="black" points="608,-113 608,-143 712,-143 712,-113 608,-113"/>
<text text-anchor="start" x="616" y="-131" font-family="Helvetica,sans-Serif" font-size="10.00">geometric_shape_to</text>
<text text-anchor="middle" x="660" y="-120" font-family="Helvetica,sans-Serif" font-size="10.00">_BVH_model.h</text>
</a>
</g>
</g>
<!-- Node16&#45;&gt;Node25 -->
<g id="edge38" class="edge"><title>Node16&#45;&gt;Node25</title>
<path fill="none" stroke="midnightblue" d="M1365.17,-229.447C1345.91,-212.024 1315.2,-185.493 1301,-180 1180.56,-133.408 848.657,-163.496 721,-144 718.089,-143.555 715.114,-143.038 712.12,-142.467"/>
<polygon fill="midnightblue" stroke="midnightblue" points="1362.9,-232.111 1372.65,-236.268 1367.62,-226.941 1362.9,-232.111"/>
</g>
<!-- Node17&#45;&gt;Node14 -->
<g id="edge24" class="edge"><title>Node17&#45;&gt;Node14</title>
<path fill="none" stroke="midnightblue" d="M1616.37,-174.619C1629.88,-165.083 1647.53,-152.627 1660.97,-143.141"/>
<polygon fill="midnightblue" stroke="midnightblue" points="1614.33,-171.777 1608.18,-180.403 1618.37,-177.496 1614.33,-171.777"/>
</g>
<!-- Node17&#45;&gt;Node15 -->
<g id="edge25" class="edge"><title>Node17&#45;&gt;Node15</title>
<path fill="none" stroke="midnightblue" d="M1636.17,-177.63C1670.9,-167.802 1721.23,-153.559 1758.44,-143.025"/>
<polygon fill="midnightblue" stroke="midnightblue" points="1635.04,-174.312 1626.37,-180.403 1636.95,-181.048 1635.04,-174.312"/>
</g>
<!-- Node17&#45;&gt;Node18 -->
<g id="edge26" class="edge"><title>Node17&#45;&gt;Node18</title>
<path fill="none" stroke="midnightblue" d="M1519.08,-179.96C1253.83,-155.357 950.014,-137.989 831.692,-131.641"/>
<polygon fill="midnightblue" stroke="midnightblue" points="1519.01,-183.469 1529.29,-180.913 1519.66,-176.499 1519.01,-183.469"/>
</g>
<!-- Node20 -->
<g id="node20" class="node"><title>Node20</title>
<g id="a_node20"><a xlink:href="a00352.html" target="_top" xlink:title="traversal_node_octree.h">
<polygon fill="white" stroke="black" points="888.5,-56.5 888.5,-75.5 1009.5,-75.5 1009.5,-56.5 888.5,-56.5"/>
<text text-anchor="middle" x="949" y="-63.5" font-family="Helvetica,sans-Serif" font-size="10.00">traversal_node_octree.h</text>
</a>
</g>
</g>
<!-- Node17&#45;&gt;Node20 -->
<g id="edge28" class="edge"><title>Node17&#45;&gt;Node20</title>
<path fill="none" stroke="midnightblue" d="M1567.96,-176.227C1528.16,-158.693 1452.61,-127.573 1385,-112 1253.37,-81.6831 1094.67,-71.7736 1009.72,-68.5469"/>
<polygon fill="midnightblue" stroke="midnightblue" points="1566.72,-179.507 1577.28,-180.374 1569.57,-173.111 1566.72,-179.507"/>
</g>
<!-- Node21 -->
<g id="node21" class="node"><title>Node21</title>
<g id="a_node21"><a xlink:href="a00354.html" target="_top" xlink:title="traversal_node_shapes.h">
<polygon fill="white" stroke="black" points="745.5,-56.5 745.5,-75.5 870.5,-75.5 870.5,-56.5 745.5,-56.5"/>
<text text-anchor="middle" x="808" y="-63.5" font-family="Helvetica,sans-Serif" font-size="10.00">traversal_node_shapes.h</text>
</a>
</g>
</g>
<!-- Node17&#45;&gt;Node21 -->
<g id="edge30" class="edge"><title>Node17&#45;&gt;Node21</title>
<path fill="none" stroke="midnightblue" d="M1540.45,-178.635C1456.34,-163.115 1291.59,-133.377 1151,-112 1098.45,-104.01 954.599,-85.5568 870.82,-74.9286"/>
<polygon fill="midnightblue" stroke="midnightblue" points="1539.83,-182.08 1550.3,-180.456 1541.1,-175.197 1539.83,-182.08"/>
</g>
<!-- Node19 -->
<g id="node19" class="node"><title>Node19</title>
<g id="a_node19"><a xlink:href="a00353.html" target="_top" xlink:title="traversal_node_setup.h">
<polygon fill="white" stroke="black" points="658,-0.5 658,-19.5 776,-19.5 776,-0.5 658,-0.5"/>
<text text-anchor="middle" x="717" y="-7.5" font-family="Helvetica,sans-Serif" font-size="10.00">traversal_node_setup.h</text>
</a>
</g>
</g>
<!-- Node18&#45;&gt;Node19 -->
<g id="edge27" class="edge"><title>Node18&#45;&gt;Node19</title>
<path fill="none" stroke="midnightblue" d="M758.791,-105.318C751.025,-96.7735 742.806,-86.4987 737,-76 726.715,-57.4023 721.005,-32.8226 718.522,-19.8675"/>
<polygon fill="midnightblue" stroke="midnightblue" points="756.298,-107.775 765.713,-112.635 761.383,-102.965 756.298,-107.775"/>
</g>
<!-- Node20&#45;&gt;Node19 -->
<g id="edge29" class="edge"><title>Node20&#45;&gt;Node19</title>
<path fill="none" stroke="midnightblue" d="M902.397,-54.1529C858.563,-43.95 793.822,-28.8809 753.589,-19.5164"/>
<polygon fill="midnightblue" stroke="midnightblue" points="901.706,-57.5854 912.239,-56.4435 903.293,-50.7676 901.706,-57.5854"/>
</g>
<!-- Node21&#45;&gt;Node19 -->
<g id="edge31" class="edge"><title>Node21&#45;&gt;Node19</title>
<path fill="none" stroke="midnightblue" d="M784.706,-51.1774C767.961,-41.2407 745.9,-28.1492 731.584,-19.6545"/>
<polygon fill="midnightblue" stroke="midnightblue" points="782.993,-54.2307 793.379,-56.324 786.566,-48.2108 782.993,-54.2307"/>
</g>
<!-- Node23 -->
<g id="node23" class="node"><title>Node23</title>
<g id="a_node23"><a xlink:href="a00326.html" target="_top" xlink:title="narrowphase.h">
<polygon fill="white" stroke="black" points="1062,-118.5 1062,-137.5 1142,-137.5 1142,-118.5 1062,-118.5"/>
<text text-anchor="middle" x="1102" y="-125.5" font-family="Helvetica,sans-Serif" font-size="10.00">narrowphase.h</text>
</a>
</g>
</g>
<!-- Node22&#45;&gt;Node23 -->
<g id="edge33" class="edge"><title>Node22&#45;&gt;Node23</title>
<path fill="none" stroke="midnightblue" d="M1376.87,-180.919C1375.56,-180.6 1374.27,-180.292 1373,-180 1291.59,-161.269 1195.25,-144.377 1142.16,-135.52"/>
<polygon fill="midnightblue" stroke="midnightblue" points="1376.31,-184.391 1386.87,-183.504 1378.06,-177.613 1376.31,-184.391"/>
</g>
<!-- Node23&#45;&gt;Node20 -->
<g id="edge34" class="edge"><title>Node23&#45;&gt;Node20</title>
<path fill="none" stroke="midnightblue" d="M1070.58,-114.68C1040.85,-103.02 996.993,-85.8209 970.881,-75.5806"/>
<polygon fill="midnightblue" stroke="midnightblue" points="1069.49,-118.011 1080.08,-118.403 1072.05,-111.494 1069.49,-118.011"/>
</g>
<!-- Node23&#45;&gt;Node21 -->
<g id="edge35" class="edge"><title>Node23&#45;&gt;Node21</title>
<path fill="none" stroke="midnightblue" d="M1051.87,-116.769C994.879,-105.139 902.885,-86.3643 849.672,-75.5045"/>
<polygon fill="midnightblue" stroke="midnightblue" points="1051.24,-120.213 1061.74,-118.783 1052.64,-113.354 1051.24,-120.213"/>
</g>
<!-- Node24&#45;&gt;Node23 -->
<g id="edge37" class="edge"><title>Node24&#45;&gt;Node23</title>
<path fill="none" stroke="midnightblue" d="M1432.75,-179.851C1321.91,-159.948 1202.97,-142.875 1142.23,-134.467"/>
<polygon fill="midnightblue" stroke="midnightblue" points="1432.3,-183.326 1442.77,-181.661 1433.55,-176.438 1432.3,-183.326"/>
</g>
<!-- Node26&#45;&gt;Node18 -->
<g id="edge48" class="edge"><title>Node26&#45;&gt;Node18</title>
<path fill="none" stroke="midnightblue" d="M493.858,-179.905C595.814,-162.643 623.614,-163.821 721,-144 724.051,-143.379 727.181,-142.706 730.333,-142.001"/>
<polygon fill="midnightblue" stroke="midnightblue" points="493.021,-176.497 483.755,-181.634 494.203,-183.397 493.021,-176.497"/>
</g>
<!-- Node26&#45;&gt;Node20 -->
<g id="edge49" class="edge"><title>Node26&#45;&gt;Node20</title>
<path fill="none" stroke="midnightblue" d="M463.323,-174.225C486.757,-156.211 529.314,-126.393 571,-112 701.274,-67.0205 742.205,-92.7879 879,-76 882.04,-75.6269 885.155,-75.2408 888.299,-74.8478"/>
<polygon fill="midnightblue" stroke="midnightblue" points="461.033,-171.573 455.319,-180.495 465.35,-177.083 461.033,-171.573"/>
</g>
<!-- Node26&#45;&gt;Node25 -->
<g id="edge47" class="edge"><title>Node26&#45;&gt;Node25</title>
<path fill="none" stroke="midnightblue" d="M485.743,-177.63C520.96,-167.802 571.997,-153.559 609.743,-143.025"/>
<polygon fill="midnightblue" stroke="midnightblue" points="484.495,-174.344 475.804,-180.403 486.377,-181.087 484.495,-174.344"/>
</g>
<!-- Node27 -->
<g id="node27" class="node"><title>Node27</title>
<g id="a_node27"><a xlink:href="a00274.html" target="_top" xlink:title="BVH_utility.h">
<polygon fill="white" stroke="black" points="196,-56.5 196,-75.5 270,-75.5 270,-56.5 196,-56.5"/>
<text text-anchor="middle" x="233" y="-63.5" font-family="Helvetica,sans-Serif" font-size="10.00">BVH_utility.h</text>
</a>
</g>
</g>
<!-- Node26&#45;&gt;Node27 -->
<g id="edge41" class="edge"><title>Node26&#45;&gt;Node27</title>
<path fill="none" stroke="midnightblue" d="M395.933,-186.089C359.542,-181.691 310.47,-170.8 276,-144 252.792,-125.956 240.208,-91.6654 235.367,-75.6479"/>
<polygon fill="midnightblue" stroke="midnightblue" points="395.995,-189.616 406.313,-187.211 396.747,-182.656 395.995,-189.616"/>
</g>
<!-- Node28 -->
<g id="node28" class="node"><title>Node28</title>
<g id="a_node28"><a xlink:href="a00351.html" target="_top" xlink:title="traversal_node_bvhs.h">
<polygon fill="white" stroke="black" points="284.5,-118.5 284.5,-137.5 399.5,-137.5 399.5,-118.5 284.5,-118.5"/>
<text text-anchor="middle" x="342" y="-125.5" font-family="Helvetica,sans-Serif" font-size="10.00">traversal_node_bvhs.h</text>
</a>
</g>
</g>
<!-- Node26&#45;&gt;Node28 -->
<g id="edge43" class="edge"><title>Node26&#45;&gt;Node28</title>
<path fill="none" stroke="midnightblue" d="M421.458,-175.286C401.542,-163.685 373.621,-147.42 356.73,-137.581"/>
<polygon fill="midnightblue" stroke="midnightblue" points="419.84,-178.394 430.243,-180.403 423.364,-172.346 419.84,-178.394"/>
</g>
<!-- Node27&#45;&gt;Node19 -->
<g id="edge42" class="edge"><title>Node27&#45;&gt;Node19</title>
<path fill="none" stroke="midnightblue" d="M280.149,-59.687C290.944,-58.473 302.369,-57.1901 313,-56 435.56,-42.2802 579.047,-26.3227 657.782,-17.5754"/>
<polygon fill="midnightblue" stroke="midnightblue" points="279.586,-56.2282 270.04,-60.8244 280.369,-63.1843 279.586,-56.2282"/>
</g>
<!-- Node28&#45;&gt;Node19 -->
<g id="edge45" class="edge"><title>Node28&#45;&gt;Node19</title>
<path fill="none" stroke="midnightblue" d="M337.133,-108.382C334.171,-92.3752 333.101,-69.7575 346,-56 366.94,-33.6651 558.684,-19.8027 657.98,-14.0607"/>
<polygon fill="midnightblue" stroke="midnightblue" points="333.735,-109.224 339.336,-118.217 340.565,-107.693 333.735,-109.224"/>
</g>
<!-- Node29 -->
<g id="node29" class="node"><title>Node29</title>
<g id="a_node29"><a xlink:href="a00279.html" target="_top" xlink:title="collision_node.h">
<polygon fill="white" stroke="black" points="355,-56.5 355,-75.5 441,-75.5 441,-56.5 355,-56.5"/>
<text text-anchor="middle" x="398" y="-63.5" font-family="Helvetica,sans-Serif" font-size="10.00">collision_node.h</text>
</a>
</g>
</g>
<!-- Node28&#45;&gt;Node29 -->
<g id="edge44" class="edge"><title>Node28&#45;&gt;Node29</title>
<path fill="none" stroke="midnightblue" d="M357.061,-110.863C367.661,-99.5064 381.431,-84.7524 389.991,-75.5806"/>
<polygon fill="midnightblue" stroke="midnightblue" points="354.288,-108.705 350.023,-118.403 359.405,-113.481 354.288,-108.705"/>
</g>
<!-- Node30 -->
<g id="node30" class="node"><title>Node30</title>
<g id="a_node30"><a xlink:href="a00355.html" target="_top" xlink:title="traversal_recurse.h">
<polygon fill="white" stroke="black" points="459,-56.5 459,-75.5 559,-75.5 559,-56.5 459,-56.5"/>
<text text-anchor="middle" x="509" y="-63.5" font-family="Helvetica,sans-Serif" font-size="10.00">traversal_recurse.h</text>
</a>
</g>
</g>
<!-- Node28&#45;&gt;Node30 -->
<g id="edge46" class="edge"><title>Node28&#45;&gt;Node30</title>
<path fill="none" stroke="midnightblue" d="M375.448,-114.983C407.91,-103.32 456.367,-85.91 485.117,-75.5806"/>
<polygon fill="midnightblue" stroke="midnightblue" points="374.155,-111.728 365.927,-118.403 376.522,-118.316 374.155,-111.728"/>
</g>
<!-- Node32&#45;&gt;Node18 -->
<g id="edge66" class="edge"><title>Node32&#45;&gt;Node18</title>
<path fill="none" stroke="midnightblue" d="M812.979,-226.62C805.383,-203.432 792.486,-164.063 785.621,-143.106"/>
<polygon fill="midnightblue" stroke="midnightblue" points="809.705,-227.868 816.144,-236.281 816.357,-225.688 809.705,-227.868"/>
</g>
<!-- Node32&#45;&gt;Node20 -->
<g id="edge67" class="edge"><title>Node32&#45;&gt;Node20</title>
<path fill="none" stroke="midnightblue" d="M831.293,-228.168C858.281,-191.216 921.943,-104.047 942.487,-75.9185"/>
<polygon fill="midnightblue" stroke="midnightblue" points="828.342,-226.275 825.27,-236.415 833.995,-230.403 828.342,-226.275"/>
</g>
<!-- Node32&#45;&gt;Node21 -->
<g id="edge68" class="edge"><title>Node32&#45;&gt;Node21</title>
<path fill="none" stroke="midnightblue" d="M826.96,-227.089C837.339,-201.166 852.749,-151.927 840,-112 835.451,-97.7538 824.563,-84.16 816.751,-75.7136"/>
<polygon fill="midnightblue" stroke="midnightblue" points="823.698,-225.815 823.043,-236.39 830.149,-228.532 823.698,-225.815"/>
</g>
<!-- Node32&#45;&gt;Node28 -->
<g id="edge62" class="edge"><title>Node32&#45;&gt;Node28</title>
<path fill="none" stroke="midnightblue" d="M766.809,-244.472C668.289,-242.662 459.219,-234.718 397,-200 371.13,-185.564 353.364,-153.447 345.924,-137.846"/>
<polygon fill="midnightblue" stroke="midnightblue" points="766.784,-247.972 776.842,-244.642 766.903,-240.973 766.784,-247.972"/>
</g>
<!-- Node32&#45;&gt;Node31 -->
<g id="edge52" class="edge"><title>Node32&#45;&gt;Node31</title>
<path fill="none" stroke="midnightblue" d="M766.64,-241.652C663.091,-234.895 424.853,-218.667 225,-200 222.182,-199.737 219.311,-199.46 216.411,-199.173"/>
<polygon fill="midnightblue" stroke="midnightblue" points="766.619,-245.158 776.825,-242.315 767.074,-238.173 766.619,-245.158"/>
</g>
<!-- Node32&#45;&gt;Node33 -->
<g id="edge53" class="edge"><title>Node32&#45;&gt;Node33</title>
<path fill="none" stroke="midnightblue" d="M871.182,-241.152C948.575,-235.005 1098.19,-221.432 1224,-200 1226.88,-199.51 1229.86,-198.938 1232.84,-198.325"/>
<polygon fill="midnightblue" stroke="midnightblue" points="870.899,-237.663 861.203,-241.935 871.447,-244.642 870.899,-237.663"/>
</g>
<!-- Node32&#45;&gt;Node34 -->
<g id="edge54" class="edge"><title>Node32&#45;&gt;Node34</title>
<path fill="none" stroke="midnightblue" d="M766.81,-240.279C682.179,-232.525 509.775,-216.317 364,-200 359.493,-199.496 354.83,-198.955 350.144,-198.398"/>
<polygon fill="midnightblue" stroke="midnightblue" points="766.656,-243.78 776.933,-241.205 767.293,-236.809 766.656,-243.78"/>
</g>
<!-- Node35 -->
<g id="node35" class="node"><title>Node35</title>
<g id="a_node35"><a xlink:href="a00349.html" target="_top" xlink:title="traversal_node_base.h">
<polygon fill="white" stroke="black" points="501.5,-180.5 501.5,-199.5 616.5,-199.5 616.5,-180.5 501.5,-180.5"/>
<text text-anchor="middle" x="559" y="-187.5" font-family="Helvetica,sans-Serif" font-size="10.00">traversal_node_base.h</text>
</a>
</g>
</g>
<!-- Node32&#45;&gt;Node35 -->
<g id="edge55" class="edge"><title>Node32&#45;&gt;Node35</title>
<path fill="none" stroke="midnightblue" d="M768.009,-234.41C718.872,-224.204 645.473,-208.96 600.005,-199.516"/>
<polygon fill="midnightblue" stroke="midnightblue" points="767.299,-237.837 777.802,-236.444 768.723,-230.983 767.299,-237.837"/>
</g>
<!-- Node32&#45;&gt;Node36 -->
<g id="edge63" class="edge"><title>Node32&#45;&gt;Node36</title>
<path fill="none" stroke="midnightblue" d="M847.773,-232.368C870.807,-222.255 902.484,-208.349 922.601,-199.516"/>
<polygon fill="midnightblue" stroke="midnightblue" points="846.239,-229.219 838.49,-236.444 849.053,-235.628 846.239,-229.219"/>
</g>
<!-- Node32&#45;&gt;Node37 -->
<g id="edge64" class="edge"><title>Node32&#45;&gt;Node37</title>
<path fill="none" stroke="midnightblue" d="M865.103,-234.129C910.154,-223.505 977.504,-207.623 1016.67,-198.388"/>
<polygon fill="midnightblue" stroke="midnightblue" points="864.215,-230.742 855.286,-236.444 865.822,-237.555 864.215,-230.742"/>
</g>
<!-- Node32&#45;&gt;Node38 -->
<g id="edge65" class="edge"><title>Node32&#45;&gt;Node38</title>
<path fill="none" stroke="midnightblue" d="M871.45,-236.595C934.415,-226.506 1039.42,-209.681 1102.74,-199.534"/>
<polygon fill="midnightblue" stroke="midnightblue" points="870.66,-233.177 861.34,-238.216 871.768,-240.089 870.66,-233.177"/>
</g>
<!-- Node39 -->
<g id="node39" class="node"><title>Node39</title>
<g id="a_node39"><a xlink:href="a00287.html" target="_top" xlink:title="distance_func_matrix.h">
<polygon fill="white" stroke="black" points="635,-180.5 635,-199.5 753,-199.5 753,-180.5 635,-180.5"/>
<text text-anchor="middle" x="694" y="-187.5" font-family="Helvetica,sans-Serif" font-size="10.00">distance_func_matrix.h</text>
</a>
</g>
</g>
<!-- Node32&#45;&gt;Node39 -->
<g id="edge69" class="edge"><title>Node32&#45;&gt;Node39</title>
<path fill="none" stroke="midnightblue" d="M789.759,-232.368C766.35,-222.255 734.159,-208.349 713.714,-199.516"/>
<polygon fill="midnightblue" stroke="midnightblue" points="788.625,-235.691 799.193,-236.444 791.401,-229.265 788.625,-235.691"/>
</g>
<!-- Node35&#45;&gt;Node18 -->
<g id="edge58" class="edge"><title>Node35&#45;&gt;Node18</title>
<path fill="none" stroke="midnightblue" d="M600.704,-177.729C637.476,-167.79 691.159,-153.281 730.382,-142.681"/>
<polygon fill="midnightblue" stroke="midnightblue" points="599.548,-174.416 590.807,-180.403 601.374,-181.173 599.548,-174.416"/>
</g>
<!-- Node35&#45;&gt;Node20 -->
<g id="edge59" class="edge"><title>Node35&#45;&gt;Node20</title>
<path fill="none" stroke="midnightblue" d="M563.345,-170.375C568.589,-152.347 579.272,-125.782 599,-112 599,-112 788.26,-87.6666 888.434,-74.787"/>
<polygon fill="midnightblue" stroke="midnightblue" points="559.953,-169.514 560.804,-180.074 566.724,-171.288 559.953,-169.514"/>
</g>
<!-- Node35&#45;&gt;Node21 -->
<g id="edge60" class="edge"><title>Node35&#45;&gt;Node21</title>
<path fill="none" stroke="midnightblue" d="M554.948,-170.244C552.389,-152.907 551.837,-127.548 566,-112 589.525,-86.1733 681.713,-74.9806 745.262,-70.264"/>
<polygon fill="midnightblue" stroke="midnightblue" points="551.544,-171.087 556.786,-180.294 558.43,-169.828 551.544,-171.087"/>
</g>
<!-- Node35&#45;&gt;Node28 -->
<g id="edge57" class="edge"><title>Node35&#45;&gt;Node28</title>
<path fill="none" stroke="midnightblue" d="M518.235,-177.729C476.082,-166.073 411.196,-148.133 373.033,-137.581"/>
<polygon fill="midnightblue" stroke="midnightblue" points="517.338,-181.112 527.909,-180.403 519.204,-174.365 517.338,-181.112"/>
</g>
<!-- Node35&#45;&gt;Node29 -->
<g id="edge56" class="edge"><title>Node35&#45;&gt;Node29</title>
<path fill="none" stroke="midnightblue" d="M539.478,-174.207C505.568,-148.511 436.802,-96.4025 409.524,-75.7326"/>
<polygon fill="midnightblue" stroke="midnightblue" points="537.595,-177.171 547.679,-180.421 541.822,-171.592 537.595,-177.171"/>
</g>
<!-- Node35&#45;&gt;Node30 -->
<g id="edge61" class="edge"><title>Node35&#45;&gt;Node30</title>
<path fill="none" stroke="midnightblue" d="M545.381,-172.357C539.305,-164.223 532.514,-154.039 528,-144 517.497,-120.642 512.226,-90.5786 510.129,-75.8838"/>
<polygon fill="midnightblue" stroke="midnightblue" points="542.644,-174.539 551.552,-180.275 548.166,-170.236 542.644,-174.539"/>
</g>
<!-- Node40&#45;&gt;Node20 -->
<g id="edge76" class="edge"><title>Node40&#45;&gt;Node20</title>
<path fill="none" stroke="midnightblue" d="M1626.49,-232.939C1654.88,-221.31 1687.44,-202.234 1671,-180 1640.32,-138.516 1499.63,-121.921 1449,-112 1292.48,-81.3305 1104.23,-71.5137 1009.6,-68.409"/>
<polygon fill="midnightblue" stroke="midnightblue" points="1625.15,-229.705 1617.1,-236.591 1627.69,-236.229 1625.15,-229.705"/>
</g>
<!-- Node41&#45;&gt;Node21 -->
<g id="edge80" class="edge"><title>Node41&#45;&gt;Node21</title>
<path fill="none" stroke="midnightblue" d="M58.4556,-176.862C105.154,-159.399 195.93,-127.577 276,-112 443.413,-79.4303 645.002,-70.4325 745.153,-67.9475"/>
<polygon fill="midnightblue" stroke="midnightblue" points="57.0312,-173.659 48.9096,-180.462 59.5014,-180.208 57.0312,-173.659"/>
</g>
<!-- Node41&#45;&gt;Node28 -->
<g id="edge79" class="edge"><title>Node41&#45;&gt;Node28</title>
<path fill="none" stroke="midnightblue" d="M64.0985,-179.894C156.071,-160.701 181.413,-160.926 270,-144 280.409,-142.011 291.638,-139.735 302.059,-137.567"/>
<polygon fill="midnightblue" stroke="midnightblue" points="63.1409,-176.519 54.0778,-182.006 64.5848,-183.368 63.1409,-176.519"/>
</g>
<!-- Node42&#45;&gt;Node3 -->
<g id="edge83" class="edge"><title>Node42&#45;&gt;Node3</title>
<path fill="none" stroke="midnightblue" d="M86.9772,-451.566C92.827,-442.275 99.7695,-431.248 104.49,-423.751"/>
<polygon fill="midnightblue" stroke="midnightblue" points="83.9808,-449.756 81.6144,-460.083 89.9044,-453.486 83.9808,-449.756"/>
</g>
</g>
</svg>
