<?xml version="1.0" encoding="UTF-8" standalone="no"?>
<!DOCTYPE svg PUBLIC "-//W3C//DTD SVG 1.1//EN"
 "http://www.w3.org/Graphics/SVG/1.1/DTD/svg11.dtd">
<!-- Generated by graphviz version 2.36.0 (20140111.2315)
 -->
<!-- Title: hierarchy_tree.h Pages: 1 -->
<svg width="805pt" height="388pt"
 viewBox="0.00 0.00 805.00 388.00" xmlns="http://www.w3.org/2000/svg" xmlns:xlink="http://www.w3.org/1999/xlink">
<g id="graph0" class="graph" transform="scale(1 1) rotate(0) translate(4 384)">
<title>hierarchy_tree.h</title>
<polygon fill="white" stroke="none" points="-4,4 -4,-384 801,-384 801,4 -4,4"/>
<!-- Node1 -->
<g id="node1" class="node"><title>Node1</title>
<polygon fill="#bfbfbf" stroke="black" points="200,-360.5 200,-379.5 286,-379.5 286,-360.5 200,-360.5"/>
<text text-anchor="middle" x="243" y="-367.5" font-family="Helvetica,sans-Serif" font-size="10.00">hierarchy_tree.h</text>
</g>
<!-- Node2 -->
<g id="node2" class="node"><title>Node2</title>
<polygon fill="white" stroke="#bfbfbf" points="0,-298.5 0,-317.5 44,-317.5 44,-298.5 0,-298.5"/>
<text text-anchor="middle" x="22" y="-305.5" font-family="Helvetica,sans-Serif" font-size="10.00">vector</text>
</g>
<!-- Node1&#45;&gt;Node2 -->
<g id="edge1" class="edge"><title>Node1&#45;&gt;Node2</title>
<path fill="none" stroke="midnightblue" d="M199.973,-361.59C160.953,-354.221 102.187,-341.489 53,-324 51.141,-323.339 49.2461,-322.599 47.3555,-321.812"/>
<polygon fill="midnightblue" stroke="midnightblue" points="48.6769,-318.568 38.1242,-317.624 45.7849,-324.943 48.6769,-318.568"/>
</g>
<!-- Node3 -->
<g id="node3" class="node"><title>Node3</title>
<polygon fill="white" stroke="#bfbfbf" points="62.5,-298.5 62.5,-317.5 97.5,-317.5 97.5,-298.5 62.5,-298.5"/>
<text text-anchor="middle" x="80" y="-305.5" font-family="Helvetica,sans-Serif" font-size="10.00">map</text>
</g>
<!-- Node1&#45;&gt;Node3 -->
<g id="edge2" class="edge"><title>Node1&#45;&gt;Node3</title>
<path fill="none" stroke="midnightblue" d="M211.592,-360.43C183.619,-352.372 141.847,-339.283 107,-324 105.812,-323.479 104.608,-322.923 103.401,-322.342"/>
<polygon fill="midnightblue" stroke="midnightblue" points="104.804,-319.127 94.319,-317.609 101.569,-325.334 104.804,-319.127"/>
</g>
<!-- Node4 -->
<g id="node4" class="node"><title>Node4</title>
<g id="a_node4"><a xlink:href="a00257.html" target="_top" xlink:title="hpp/fcl/BV/AABB.h">
<polygon fill="white" stroke="black" points="201.5,-236.5 201.5,-255.5 302.5,-255.5 302.5,-236.5 201.5,-236.5"/>
<text text-anchor="middle" x="252" y="-243.5" font-family="Helvetica,sans-Serif" font-size="10.00">hpp/fcl/BV/AABB.h</text>
</a>
</g>
</g>
<!-- Node1&#45;&gt;Node4 -->
<g id="edge3" class="edge"><title>Node1&#45;&gt;Node4</title>
<path fill="none" stroke="midnightblue" d="M243.647,-360.226C245.1,-340.53 248.648,-292.437 250.62,-265.7"/>
<polygon fill="midnightblue" stroke="midnightblue" points="254.113,-265.925 251.359,-255.694 247.132,-265.41 254.113,-265.925"/>
</g>
<!-- Node19 -->
<g id="node19" class="node"><title>Node19</title>
<g id="a_node19"><a xlink:href="a00323.html" target="_top" xlink:title="hpp/fcl/broadphase\l/morton.h">
<polygon fill="white" stroke="black" points="115.5,-293 115.5,-323 214.5,-323 214.5,-293 115.5,-293"/>
<text text-anchor="start" x="123.5" y="-311" font-family="Helvetica,sans-Serif" font-size="10.00">hpp/fcl/broadphase</text>
<text text-anchor="middle" x="165" y="-300" font-family="Helvetica,sans-Serif" font-size="10.00">/morton.h</text>
</a>
</g>
</g>
<!-- Node1&#45;&gt;Node19 -->
<g id="edge25" class="edge"><title>Node1&#45;&gt;Node19</title>
<path fill="none" stroke="midnightblue" d="M231.825,-360.403C221.359,-352.353 205.316,-340.013 191.573,-329.441"/>
<polygon fill="midnightblue" stroke="midnightblue" points="193.443,-326.464 183.383,-323.141 189.175,-332.012 193.443,-326.464"/>
</g>
<!-- Node21 -->
<g id="node21" class="node"><title>Node21</title>
<polygon fill="white" stroke="#bfbfbf" points="271,-298.5 271,-317.5 351,-317.5 351,-298.5 271,-298.5"/>
<text text-anchor="middle" x="311" y="-305.5" font-family="Helvetica,sans-Serif" font-size="10.00">boost/bind.hpp</text>
</g>
<!-- Node1&#45;&gt;Node21 -->
<g id="edge29" class="edge"><title>Node1&#45;&gt;Node21</title>
<path fill="none" stroke="midnightblue" d="M252.743,-360.403C263.347,-351.047 280.519,-335.895 293.479,-324.46"/>
<polygon fill="midnightblue" stroke="midnightblue" points="296.093,-326.821 301.275,-317.581 291.461,-321.572 296.093,-326.821"/>
</g>
<!-- Node22 -->
<g id="node22" class="node"><title>Node22</title>
<polygon fill="white" stroke="#bfbfbf" points="369.5,-293 369.5,-323 458.5,-323 458.5,-293 369.5,-293"/>
<text text-anchor="start" x="377.5" y="-311" font-family="Helvetica,sans-Serif" font-size="10.00">boost/iterator/zip</text>
<text text-anchor="middle" x="414" y="-300" font-family="Helvetica,sans-Serif" font-size="10.00">_iterator.hpp</text>
</g>
<!-- Node1&#45;&gt;Node22 -->
<g id="edge30" class="edge"><title>Node1&#45;&gt;Node22</title>
<path fill="none" stroke="midnightblue" d="M267.5,-360.403C292.691,-351.564 332.624,-337.553 364.44,-326.39"/>
<polygon fill="midnightblue" stroke="midnightblue" points="365.751,-329.639 374.028,-323.025 363.433,-323.034 365.751,-329.639"/>
</g>
<!-- Node23 -->
<g id="node23" class="node"><title>Node23</title>
<g id="a_node23"><a xlink:href="a00299.html" target="_top" xlink:title="hpp/fcl/broadphase\l/hierarchy_tree.hxx">
<polygon fill="white" stroke="black" points="477,-293 477,-323 577,-323 577,-293 477,-293"/>
<text text-anchor="start" x="485" y="-311" font-family="Helvetica,sans-Serif" font-size="10.00">hpp/fcl/broadphase</text>
<text text-anchor="middle" x="527" y="-300" font-family="Helvetica,sans-Serif" font-size="10.00">/hierarchy_tree.hxx</text>
</a>
</g>
</g>
<!-- Node1&#45;&gt;Node23 -->
<g id="edge31" class="edge"><title>Node1&#45;&gt;Node23</title>
<path fill="none" stroke="midnightblue" d="M286.069,-360.967C331.263,-352.393 404.313,-338.124 467,-324 467.101,-323.977 467.203,-323.954 467.305,-323.931"/>
<polygon fill="midnightblue" stroke="midnightblue" points="467.999,-327.363 476.951,-321.698 466.42,-320.544 467.999,-327.363"/>
</g>
<!-- Node5 -->
<g id="node5" class="node"><title>Node5</title>
<polygon fill="white" stroke="#bfbfbf" points="343.5,-180.5 343.5,-199.5 402.5,-199.5 402.5,-180.5 343.5,-180.5"/>
<text text-anchor="middle" x="373" y="-187.5" font-family="Helvetica,sans-Serif" font-size="10.00">stdexcept</text>
</g>
<!-- Node4&#45;&gt;Node5 -->
<g id="edge4" class="edge"><title>Node4&#45;&gt;Node5</title>
<path fill="none" stroke="midnightblue" d="M271.173,-236.444C290.909,-227.636 321.885,-213.812 344.493,-203.722"/>
<polygon fill="midnightblue" stroke="midnightblue" points="346.211,-206.788 353.917,-199.516 343.359,-200.396 346.211,-206.788"/>
</g>
<!-- Node6 -->
<g id="node6" class="node"><title>Node6</title>
<g id="a_node6"><a xlink:href="a00356.html" target="_top" xlink:title="hpp/fcl/math/vec_3f.h">
<polygon fill="white" stroke="black" points="214.5,-180.5 214.5,-199.5 325.5,-199.5 325.5,-180.5 214.5,-180.5"/>
<text text-anchor="middle" x="270" y="-187.5" font-family="Helvetica,sans-Serif" font-size="10.00">hpp/fcl/math/vec_3f.h</text>
</a>
</g>
</g>
<!-- Node4&#45;&gt;Node6 -->
<g id="edge5" class="edge"><title>Node4&#45;&gt;Node6</title>
<path fill="none" stroke="midnightblue" d="M254.972,-236.083C257.384,-228.849 260.864,-218.409 263.868,-209.397"/>
<polygon fill="midnightblue" stroke="midnightblue" points="267.241,-210.345 267.083,-199.751 260.6,-208.131 267.241,-210.345"/>
</g>
<!-- Node7 -->
<g id="node7" class="node"><title>Node7</title>
<polygon fill="white" stroke="#bfbfbf" points="499,-56.5 499,-75.5 601,-75.5 601,-56.5 499,-56.5"/>
<text text-anchor="middle" x="550" y="-63.5" font-family="Helvetica,sans-Serif" font-size="10.00">hpp/fcl/config&#45;fcl.hh</text>
</g>
<!-- Node6&#45;&gt;Node7 -->
<g id="edge6" class="edge"><title>Node6&#45;&gt;Node7</title>
<path fill="none" stroke="midnightblue" d="M315.351,-180.445C362.136,-171.193 431.611,-156.139 456,-144 487.445,-128.349 517.749,-100.485 535.096,-82.9147"/>
<polygon fill="midnightblue" stroke="midnightblue" points="537.684,-85.2727 542.111,-75.6472 532.648,-80.411 537.684,-85.2727"/>
</g>
<!-- Node8 -->
<g id="node8" class="node"><title>Node8</title>
<g id="a_node8"><a xlink:href="a00283.html" target="_top" xlink:title="hpp/fcl/data_types.h">
<polygon fill="white" stroke="black" points="49.5,-56.5 49.5,-75.5 154.5,-75.5 154.5,-56.5 49.5,-56.5"/>
<text text-anchor="middle" x="102" y="-63.5" font-family="Helvetica,sans-Serif" font-size="10.00">hpp/fcl/data_types.h</text>
</a>
</g>
</g>
<!-- Node6&#45;&gt;Node8 -->
<g id="edge7" class="edge"><title>Node6&#45;&gt;Node8</title>
<path fill="none" stroke="midnightblue" d="M259.388,-180.425C241.33,-165.927 203.339,-135.821 170,-112 154.932,-101.234 137.508,-89.721 124.07,-81.0352"/>
<polygon fill="midnightblue" stroke="midnightblue" points="125.787,-77.978 115.481,-75.5175 122.003,-83.8674 125.787,-77.978"/>
</g>
<!-- Node11 -->
<g id="node11" class="node"><title>Node11</title>
<g id="a_node11"><a xlink:href="a00316.html" target="_top" xlink:title="hpp/fcl/eigen/math\l_details.h">
<polygon fill="white" stroke="black" points="614.5,-113 614.5,-143 711.5,-143 711.5,-113 614.5,-113"/>
<text text-anchor="start" x="622.5" y="-131" font-family="Helvetica,sans-Serif" font-size="10.00">hpp/fcl/eigen/math</text>
<text text-anchor="middle" x="663" y="-120" font-family="Helvetica,sans-Serif" font-size="10.00">_details.h</text>
</a>
</g>
</g>
<!-- Node6&#45;&gt;Node11 -->
<g id="edge10" class="edge"><title>Node6&#45;&gt;Node11</title>
<path fill="none" stroke="midnightblue" d="M325.89,-180.467C399.663,-169.204 528.964,-149.464 604.176,-137.981"/>
<polygon fill="midnightblue" stroke="midnightblue" points="605.061,-141.386 614.418,-136.417 604.005,-134.466 605.061,-141.386"/>
</g>
<!-- Node14 -->
<g id="node14" class="node"><title>Node14</title>
<g id="a_node14"><a xlink:href="a00357.html" target="_top" xlink:title="hpp/fcl/eigen/vec_3fx.h">
<polygon fill="white" stroke="black" points="306,-118.5 306,-137.5 424,-137.5 424,-118.5 306,-118.5"/>
<text text-anchor="middle" x="365" y="-125.5" font-family="Helvetica,sans-Serif" font-size="10.00">hpp/fcl/eigen/vec_3fx.h</text>
</a>
</g>
</g>
<!-- Node6&#45;&gt;Node14 -->
<g id="edge13" class="edge"><title>Node6&#45;&gt;Node14</title>
<path fill="none" stroke="midnightblue" d="M283.611,-180.403C299.061,-170.646 324.49,-154.585 342.816,-143.011"/>
<polygon fill="midnightblue" stroke="midnightblue" points="344.828,-145.88 351.414,-137.581 341.09,-139.961 344.828,-145.88"/>
</g>
<!-- Node15 -->
<g id="node15" class="node"><title>Node15</title>
<polygon fill="white" stroke="#bfbfbf" points="173,-56.5 173,-75.5 217,-75.5 217,-56.5 173,-56.5"/>
<text text-anchor="middle" x="195" y="-63.5" font-family="Helvetica,sans-Serif" font-size="10.00">cmath</text>
</g>
<!-- Node6&#45;&gt;Node15 -->
<g id="edge22" class="edge"><title>Node6&#45;&gt;Node15</title>
<path fill="none" stroke="midnightblue" d="M264.606,-180.226C252.282,-160.178 221.871,-110.71 205.628,-84.2888"/>
<polygon fill="midnightblue" stroke="midnightblue" points="208.564,-82.3804 200.345,-75.6944 202.6,-86.0464 208.564,-82.3804"/>
</g>
<!-- Node16 -->
<g id="node16" class="node"><title>Node16</title>
<polygon fill="white" stroke="#bfbfbf" points="235,-56.5 235,-75.5 289,-75.5 289,-56.5 235,-56.5"/>
<text text-anchor="middle" x="262" y="-63.5" font-family="Helvetica,sans-Serif" font-size="10.00">iostream</text>
</g>
<!-- Node6&#45;&gt;Node16 -->
<g id="edge23" class="edge"><title>Node6&#45;&gt;Node16</title>
<path fill="none" stroke="midnightblue" d="M269.425,-180.226C268.133,-160.53 264.979,-112.437 263.226,-85.7004"/>
<polygon fill="midnightblue" stroke="midnightblue" points="266.717,-85.444 262.57,-75.6944 259.732,-85.9021 266.717,-85.444"/>
</g>
<!-- Node17 -->
<g id="node17" class="node"><title>Node17</title>
<polygon fill="white" stroke="#bfbfbf" points="441,-56.5 441,-75.5 481,-75.5 481,-56.5 441,-56.5"/>
<text text-anchor="middle" x="461" y="-63.5" font-family="Helvetica,sans-Serif" font-size="10.00">limits</text>
</g>
<!-- Node6&#45;&gt;Node17 -->
<g id="edge24" class="edge"><title>Node6&#45;&gt;Node17</title>
<path fill="none" stroke="midnightblue" d="M319.507,-180.487C361.142,-172.421 416.448,-159.287 433,-144 449.458,-128.8 456.263,-103.157 459.064,-85.6751"/>
<polygon fill="midnightblue" stroke="midnightblue" points="462.561,-85.9263 460.387,-75.5569 455.62,-85.0186 462.561,-85.9263"/>
</g>
<!-- Node9 -->
<g id="node9" class="node"><title>Node9</title>
<polygon fill="white" stroke="#bfbfbf" points="33.5,-0.5 33.5,-19.5 82.5,-19.5 82.5,-0.5 33.5,-0.5"/>
<text text-anchor="middle" x="58" y="-7.5" font-family="Helvetica,sans-Serif" font-size="10.00">cstddef</text>
</g>
<!-- Node8&#45;&gt;Node9 -->
<g id="edge8" class="edge"><title>Node8&#45;&gt;Node9</title>
<path fill="none" stroke="midnightblue" d="M94.7343,-56.083C88.4552,-48.3768 79.2124,-37.0333 71.5692,-27.6531"/>
<polygon fill="midnightblue" stroke="midnightblue" points="74.1606,-25.2926 65.1305,-19.7511 68.7339,-29.7143 74.1606,-25.2926"/>
</g>
<!-- Node10 -->
<g id="node10" class="node"><title>Node10</title>
<polygon fill="white" stroke="#bfbfbf" points="101,-0.5 101,-19.5 193,-19.5 193,-0.5 101,-0.5"/>
<text text-anchor="middle" x="147" y="-7.5" font-family="Helvetica,sans-Serif" font-size="10.00">boost/cstdint.hpp</text>
</g>
<!-- Node8&#45;&gt;Node10 -->
<g id="edge9" class="edge"><title>Node8&#45;&gt;Node10</title>
<path fill="none" stroke="midnightblue" d="M109.431,-56.083C115.853,-48.3768 125.306,-37.0333 133.122,-27.6531"/>
<polygon fill="midnightblue" stroke="midnightblue" points="135.994,-29.674 139.707,-19.7511 130.617,-25.1927 135.994,-29.674"/>
</g>
<!-- Node12 -->
<g id="node12" class="node"><title>Node12</title>
<polygon fill="white" stroke="#bfbfbf" points="724.5,-56.5 724.5,-75.5 797.5,-75.5 797.5,-56.5 724.5,-56.5"/>
<text text-anchor="middle" x="761" y="-63.5" font-family="Helvetica,sans-Serif" font-size="10.00">Eigen/Dense</text>
</g>
<!-- Node11&#45;&gt;Node12 -->
<g id="edge11" class="edge"><title>Node11&#45;&gt;Node12</title>
<path fill="none" stroke="midnightblue" d="M686.225,-112.781C702.028,-103.105 722.832,-90.3684 738.483,-80.7861"/>
<polygon fill="midnightblue" stroke="midnightblue" points="740.325,-83.7623 747.026,-75.5557 736.67,-77.7923 740.325,-83.7623"/>
</g>
<!-- Node13 -->
<g id="node13" class="node"><title>Node13</title>
<polygon fill="white" stroke="#bfbfbf" points="619.5,-56.5 619.5,-75.5 706.5,-75.5 706.5,-56.5 619.5,-56.5"/>
<text text-anchor="middle" x="663" y="-63.5" font-family="Helvetica,sans-Serif" font-size="10.00">Eigen/Geometry</text>
</g>
<!-- Node11&#45;&gt;Node13 -->
<g id="edge12" class="edge"><title>Node11&#45;&gt;Node13</title>
<path fill="none" stroke="midnightblue" d="M663,-112.781C663,-104.781 663,-94.6887 663,-86.0168"/>
<polygon fill="midnightblue" stroke="midnightblue" points="666.5,-85.7305 663,-75.7305 659.5,-85.7306 666.5,-85.7305"/>
</g>
<!-- Node14&#45;&gt;Node7 -->
<g id="edge14" class="edge"><title>Node14&#45;&gt;Node7</title>
<path fill="none" stroke="midnightblue" d="M391.506,-118.403C423.652,-107.978 477.987,-90.3557 513.927,-78.6992"/>
<polygon fill="midnightblue" stroke="midnightblue" points="515.111,-81.995 523.543,-75.5806 512.951,-75.3364 515.111,-81.995"/>
</g>
<!-- Node14&#45;&gt;Node8 -->
<g id="edge15" class="edge"><title>Node14&#45;&gt;Node8</title>
<path fill="none" stroke="midnightblue" d="M327.598,-118.467C280.666,-107.76 200.153,-89.3922 149.077,-77.74"/>
<polygon fill="midnightblue" stroke="midnightblue" points="149.801,-74.3154 139.273,-75.5034 148.244,-81.14 149.801,-74.3154"/>
</g>
<!-- Node14&#45;&gt;Node12 -->
<g id="edge16" class="edge"><title>Node14&#45;&gt;Node12</title>
<path fill="none" stroke="midnightblue" d="M424.279,-119.255C491.889,-110.221 605.987,-94.3689 714.25,-76.055"/>
<polygon fill="midnightblue" stroke="midnightblue" points="715.1,-79.4609 724.371,-74.3328 713.926,-72.5601 715.1,-79.4609"/>
</g>
<!-- Node14&#45;&gt;Node13 -->
<g id="edge17" class="edge"><title>Node14&#45;&gt;Node13</title>
<path fill="none" stroke="midnightblue" d="M407.38,-118.467C460.89,-107.693 552.927,-89.1623 610.739,-77.5223"/>
<polygon fill="midnightblue" stroke="midnightblue" points="611.654,-80.9084 620.767,-75.5034 610.272,-74.0461 611.654,-80.9084"/>
</g>
<!-- Node14&#45;&gt;Node15 -->
<g id="edge18" class="edge"><title>Node14&#45;&gt;Node15</title>
<path fill="none" stroke="midnightblue" d="M340.643,-118.403C310.69,-107.832 259.774,-89.8614 226.772,-78.2136"/>
<polygon fill="midnightblue" stroke="midnightblue" points="227.743,-74.8448 217.148,-74.817 225.413,-81.4458 227.743,-74.8448"/>
</g>
<!-- Node14&#45;&gt;Node16 -->
<g id="edge19" class="edge"><title>Node14&#45;&gt;Node16</title>
<path fill="none" stroke="midnightblue" d="M350.243,-118.403C333.339,-108.557 305.417,-92.2915 285.51,-80.6949"/>
<polygon fill="midnightblue" stroke="midnightblue" points="287.133,-77.5898 276.73,-75.5806 283.609,-83.6384 287.133,-77.5898"/>
</g>
<!-- Node14&#45;&gt;Node17 -->
<g id="edge20" class="edge"><title>Node14&#45;&gt;Node17</title>
<path fill="none" stroke="midnightblue" d="M378.754,-118.403C394.366,-108.646 420.063,-92.5854 438.583,-81.0109"/>
<polygon fill="midnightblue" stroke="midnightblue" points="440.646,-83.8486 447.271,-75.5806 436.936,-77.9126 440.646,-83.8486"/>
</g>
<!-- Node18 -->
<g id="node18" class="node"><title>Node18</title>
<g id="a_node18"><a xlink:href="a00336.html" target="_top" xlink:title="hpp/fcl/eigen/product.h">
<polygon fill="white" stroke="black" points="307,-56.5 307,-75.5 423,-75.5 423,-56.5 307,-56.5"/>
<text text-anchor="middle" x="365" y="-63.5" font-family="Helvetica,sans-Serif" font-size="10.00">hpp/fcl/eigen/product.h</text>
</a>
</g>
</g>
<!-- Node14&#45;&gt;Node18 -->
<g id="edge21" class="edge"><title>Node14&#45;&gt;Node18</title>
<path fill="none" stroke="midnightblue" d="M365,-118.403C365,-109.938 365,-96.7283 365,-85.8199"/>
<polygon fill="midnightblue" stroke="midnightblue" points="368.5,-85.5806 365,-75.5806 361.5,-85.5806 368.5,-85.5806"/>
</g>
<!-- Node19&#45;&gt;Node4 -->
<g id="edge28" class="edge"><title>Node19&#45;&gt;Node4</title>
<path fill="none" stroke="midnightblue" d="M185.618,-292.781C199.385,-283.286 217.427,-270.843 231.226,-261.327"/>
<polygon fill="midnightblue" stroke="midnightblue" points="233.349,-264.114 239.594,-255.556 229.375,-258.352 233.349,-264.114"/>
</g>
<!-- Node19&#45;&gt;Node8 -->
<g id="edge27" class="edge"><title>Node19&#45;&gt;Node8</title>
<path fill="none" stroke="midnightblue" d="M161.248,-292.706C150.382,-251.313 118.9,-131.382 106.808,-85.3176"/>
<polygon fill="midnightblue" stroke="midnightblue" points="110.16,-84.2989 104.235,-75.5153 103.389,-86.0762 110.16,-84.2989"/>
</g>
<!-- Node20 -->
<g id="node20" class="node"><title>Node20</title>
<polygon fill="white" stroke="#bfbfbf" points="0,-236.5 0,-255.5 128,-255.5 128,-236.5 0,-236.5"/>
<text text-anchor="middle" x="64" y="-243.5" font-family="Helvetica,sans-Serif" font-size="10.00">boost/dynamic_bitset.hpp</text>
</g>
<!-- Node19&#45;&gt;Node20 -->
<g id="edge26" class="edge"><title>Node19&#45;&gt;Node20</title>
<path fill="none" stroke="midnightblue" d="M141.32,-292.933C125.041,-283.262 103.523,-270.479 87.3219,-260.855"/>
<polygon fill="midnightblue" stroke="midnightblue" points="88.8617,-257.698 78.4767,-255.6 85.2865,-263.717 88.8617,-257.698"/>
</g>
</g>
</svg>
