<?xml version="1.0" encoding="UTF-8" standalone="no"?>
<!DOCTYPE svg PUBLIC "-//W3C//DTD SVG 1.1//EN"
 "http://www.w3.org/Graphics/SVG/1.1/DTD/svg11.dtd">
<!-- Generated by graphviz version 2.36.0 (20140111.2315)
 -->
<!-- Title: OBB.h Pages: 1 -->
<svg width="1181pt" height="400pt"
 viewBox="0.00 0.00 1181.00 400.00" xmlns="http://www.w3.org/2000/svg" xmlns:xlink="http://www.w3.org/1999/xlink">
<g id="graph0" class="graph" transform="scale(1 1) rotate(0) translate(4 396)">
<title>OBB.h</title>
<polygon fill="white" stroke="none" points="-4,4 -4,-396 1177,-396 1177,4 -4,4"/>
<!-- Node1 -->
<g id="node1" class="node"><title>Node1</title>
<polygon fill="#bfbfbf" stroke="black" points="727,-372.5 727,-391.5 773,-391.5 773,-372.5 727,-372.5"/>
<text text-anchor="middle" x="750" y="-379.5" font-family="Helvetica,sans-Serif" font-size="10.00">OBB.h</text>
</g>
<!-- Node2 -->
<g id="node2" class="node"><title>Node2</title>
<g id="a_node2"><a xlink:href="a00267.html" target="_top" xlink:title="BV.h">
<polygon fill="white" stroke="black" points="679,-260.5 679,-279.5 717,-279.5 717,-260.5 679,-260.5"/>
<text text-anchor="middle" x="698" y="-267.5" font-family="Helvetica,sans-Serif" font-size="10.00">BV.h</text>
</a>
</g>
</g>
<!-- Node1&#45;&gt;Node2 -->
<g id="edge1" class="edge"><title>Node1&#45;&gt;Node2</title>
<path fill="none" stroke="midnightblue" d="M735.655,-364.393C729.221,-356.267 721.976,-346.08 717,-336 707.632,-317.024 702.045,-292.598 699.553,-279.767"/>
<polygon fill="midnightblue" stroke="midnightblue" points="733.112,-366.81 742.174,-372.3 738.513,-362.357 733.112,-366.81"/>
</g>
<!-- Node23 -->
<g id="node23" class="node"><title>Node23</title>
<g id="a_node23"><a xlink:href="a00334.html" target="_top" xlink:title="OBBRSS.h">
<polygon fill="white" stroke="black" points="791.5,-316.5 791.5,-335.5 858.5,-335.5 858.5,-316.5 791.5,-316.5"/>
<text text-anchor="middle" x="825" y="-323.5" font-family="Helvetica,sans-Serif" font-size="10.00">OBBRSS.h</text>
</a>
</g>
</g>
<!-- Node1&#45;&gt;Node23 -->
<g id="edge41" class="edge"><title>Node1&#45;&gt;Node23</title>
<path fill="none" stroke="midnightblue" d="M770.305,-366.38C783.861,-356.62 801.242,-344.106 812.731,-335.834"/>
<polygon fill="midnightblue" stroke="midnightblue" points="768.12,-363.641 762.05,-372.324 772.21,-369.321 768.12,-363.641"/>
</g>
<!-- Node26 -->
<g id="node26" class="node"><title>Node26</title>
<g id="a_node26"><a xlink:href="a00313.html" target="_top" xlink:title="kIOS.h">
<polygon fill="white" stroke="black" points="726.5,-316.5 726.5,-335.5 773.5,-335.5 773.5,-316.5 726.5,-316.5"/>
<text text-anchor="middle" x="750" y="-323.5" font-family="Helvetica,sans-Serif" font-size="10.00">kIOS.h</text>
</a>
</g>
</g>
<!-- Node1&#45;&gt;Node26 -->
<g id="edge47" class="edge"><title>Node1&#45;&gt;Node26</title>
<path fill="none" stroke="midnightblue" d="M750,-361.805C750,-352.91 750,-342.78 750,-335.751"/>
<polygon fill="midnightblue" stroke="midnightblue" points="746.5,-362.083 750,-372.083 753.5,-362.083 746.5,-362.083"/>
</g>
<!-- Node3 -->
<g id="node3" class="node"><title>Node3</title>
<g id="a_node3"><a xlink:href="a00260.html" target="_top" xlink:title="broadphase_dynamic\l_AABB_tree.h">
<polygon fill="white" stroke="black" points="402.5,-137 402.5,-167 511.5,-167 511.5,-137 402.5,-137"/>
<text text-anchor="start" x="410.5" y="-155" font-family="Helvetica,sans-Serif" font-size="10.00">broadphase_dynamic</text>
<text text-anchor="middle" x="457" y="-144" font-family="Helvetica,sans-Serif" font-size="10.00">_AABB_tree.h</text>
</a>
</g>
</g>
<!-- Node2&#45;&gt;Node3 -->
<g id="edge2" class="edge"><title>Node2&#45;&gt;Node3</title>
<path fill="none" stroke="midnightblue" d="M668.608,-267.356C630.698,-264.04 563.942,-254.052 516,-224 493.051,-209.614 474.689,-183.28 464.859,-167.042"/>
<polygon fill="midnightblue" stroke="midnightblue" points="668.706,-270.874 678.946,-268.156 669.246,-263.895 668.706,-270.874"/>
</g>
<!-- Node10 -->
<g id="node10" class="node"><title>Node10</title>
<g id="a_node10"><a xlink:href="a00261.html" target="_top" xlink:title="broadphase_dynamic\l_AABB_tree_array.h">
<polygon fill="white" stroke="black" points="-0.5,-1 -0.5,-31 108.5,-31 108.5,-1 -0.5,-1"/>
<text text-anchor="start" x="7.5" y="-19" font-family="Helvetica,sans-Serif" font-size="10.00">broadphase_dynamic</text>
<text text-anchor="middle" x="54" y="-8" font-family="Helvetica,sans-Serif" font-size="10.00">_AABB_tree_array.h</text>
</a>
</g>
</g>
<!-- Node2&#45;&gt;Node10 -->
<g id="edge26" class="edge"><title>Node2&#45;&gt;Node10</title>
<path fill="none" stroke="midnightblue" d="M668.884,-265.106C584.104,-252.728 332.275,-208.527 156,-100 122.561,-79.4128 88.0113,-49.0221 68.9382,-31.2948"/>
<polygon fill="midnightblue" stroke="midnightblue" points="668.432,-268.577 678.826,-266.522 669.419,-261.646 668.432,-268.577"/>
</g>
<!-- Node11 -->
<g id="node11" class="node"><title>Node11</title>
<g id="a_node11"><a xlink:href="a00293.html" target="_top" xlink:title="geometric_shapes_utility.h">
<polygon fill="white" stroke="black" points="525.5,-204.5 525.5,-223.5 658.5,-223.5 658.5,-204.5 525.5,-204.5"/>
<text text-anchor="middle" x="592" y="-211.5" font-family="Helvetica,sans-Serif" font-size="10.00">geometric_shapes_utility.h</text>
</a>
</g>
</g>
<!-- Node2&#45;&gt;Node11 -->
<g id="edge17" class="edge"><title>Node2&#45;&gt;Node11</title>
<path fill="none" stroke="midnightblue" d="M671.944,-255.726C652.316,-245.727 625.972,-232.307 608.988,-223.655"/>
<polygon fill="midnightblue" stroke="midnightblue" points="670.47,-258.903 680.969,-260.324 673.648,-252.666 670.47,-258.903"/>
</g>
<!-- Node15 -->
<g id="node15" class="node"><title>Node15</title>
<g id="a_node15"><a xlink:href="a00354.html" target="_top" xlink:title="traversal_node_shapes.h">
<polygon fill="white" stroke="black" points="635.5,-142.5 635.5,-161.5 760.5,-161.5 760.5,-142.5 635.5,-142.5"/>
<text text-anchor="middle" x="698" y="-149.5" font-family="Helvetica,sans-Serif" font-size="10.00">traversal_node_shapes.h</text>
</a>
</g>
</g>
<!-- Node2&#45;&gt;Node15 -->
<g id="edge40" class="edge"><title>Node2&#45;&gt;Node15</title>
<path fill="none" stroke="midnightblue" d="M698,-250.025C698,-224.464 698,-180.041 698,-161.505"/>
<polygon fill="midnightblue" stroke="midnightblue" points="694.5,-250.281 698,-260.281 701.5,-250.281 694.5,-250.281"/>
</g>
<!-- Node16 -->
<g id="node16" class="node"><title>Node16</title>
<g id="a_node16"><a xlink:href="a00269.html" target="_top" xlink:title="BV_node.h">
<polygon fill="white" stroke="black" points="800.5,-204.5 800.5,-223.5 865.5,-223.5 865.5,-204.5 800.5,-204.5"/>
<text text-anchor="middle" x="833" y="-211.5" font-family="Helvetica,sans-Serif" font-size="10.00">BV_node.h</text>
</a>
</g>
</g>
<!-- Node2&#45;&gt;Node16 -->
<g id="edge27" class="edge"><title>Node2&#45;&gt;Node16</title>
<path fill="none" stroke="midnightblue" d="M726.5,-257.6C751.843,-247.463 788.35,-232.86 811.363,-223.655"/>
<polygon fill="midnightblue" stroke="midnightblue" points="725.041,-254.414 717.056,-261.378 727.641,-260.913 725.041,-254.414"/>
</g>
<!-- Node19 -->
<g id="node19" class="node"><title>Node19</title>
<g id="a_node19"><a xlink:href="a00351.html" target="_top" xlink:title="traversal_node_bvhs.h">
<polygon fill="white" stroke="black" points="1013.5,-74.5 1013.5,-93.5 1128.5,-93.5 1128.5,-74.5 1013.5,-74.5"/>
<text text-anchor="middle" x="1071" y="-81.5" font-family="Helvetica,sans-Serif" font-size="10.00">traversal_node_bvhs.h</text>
</a>
</g>
</g>
<!-- Node2&#45;&gt;Node19 -->
<g id="edge39" class="edge"><title>Node2&#45;&gt;Node19</title>
<path fill="none" stroke="midnightblue" d="M726.877,-259.974C793.143,-242.485 815.138,-250.749 874,-224 953.645,-187.807 1034.55,-118.064 1061.57,-93.6754"/>
<polygon fill="midnightblue" stroke="midnightblue" points="725.944,-256.6 717.224,-262.619 727.794,-263.352 725.944,-256.6"/>
</g>
<!-- Node4 -->
<g id="node4" class="node"><title>Node4</title>
<g id="a_node4"><a xlink:href="a00258.html" target="_top" xlink:title="broadphase.h">
<polygon fill="white" stroke="black" points="408.5,-74.5 408.5,-93.5 483.5,-93.5 483.5,-74.5 408.5,-74.5"/>
<text text-anchor="middle" x="446" y="-81.5" font-family="Helvetica,sans-Serif" font-size="10.00">broadphase.h</text>
</a>
</g>
</g>
<!-- Node3&#45;&gt;Node4 -->
<g id="edge3" class="edge"><title>Node3&#45;&gt;Node4</title>
<path fill="none" stroke="midnightblue" d="M446.419,-126.729C443.927,-115.236 442.345,-102.222 442.698,-93.8283"/>
<polygon fill="midnightblue" stroke="midnightblue" points="443.09,-127.842 448.935,-136.679 449.877,-126.126 443.09,-127.842"/>
</g>
<!-- Node4&#45;&gt;Node3 -->
<g id="edge14" class="edge"><title>Node4&#45;&gt;Node3</title>
<path fill="none" stroke="midnightblue" d="M455.254,-103.645C457.939,-114.123 459.929,-126.999 460.292,-136.679"/>
<polygon fill="midnightblue" stroke="midnightblue" points="458.522,-102.363 452.245,-93.8283 451.83,-104.415 458.522,-102.363"/>
</g>
<!-- Node5 -->
<g id="node5" class="node"><title>Node5</title>
<g id="a_node5"><a xlink:href="a00259.html" target="_top" xlink:title="broadphase_bruteforce.h">
<polygon fill="white" stroke="black" points="639,-6.5 639,-25.5 763,-25.5 763,-6.5 639,-6.5"/>
<text text-anchor="middle" x="701" y="-13.5" font-family="Helvetica,sans-Serif" font-size="10.00">broadphase_bruteforce.h</text>
</a>
</g>
</g>
<!-- Node4&#45;&gt;Node5 -->
<g id="edge4" class="edge"><title>Node4&#45;&gt;Node5</title>
<path fill="none" stroke="midnightblue" d="M476.003,-71.6061C480.345,-70.3672 484.765,-69.1425 489,-68 547.415,-52.242 615.716,-35.4083 658.809,-25.5639"/>
<polygon fill="midnightblue" stroke="midnightblue" points="474.753,-68.3249 466.137,-74.4906 476.718,-75.0436 474.753,-68.3249"/>
</g>
<!-- Node6 -->
<g id="node6" class="node"><title>Node6</title>
<g id="a_node6"><a xlink:href="a00264.html" target="_top" xlink:title="broadphase_spatialhash.h">
<polygon fill="white" stroke="black" points="127,-6.5 127,-25.5 257,-25.5 257,-6.5 127,-6.5"/>
<text text-anchor="middle" x="192" y="-13.5" font-family="Helvetica,sans-Serif" font-size="10.00">broadphase_spatialhash.h</text>
</a>
</g>
</g>
<!-- Node4&#45;&gt;Node6 -->
<g id="edge6" class="edge"><title>Node4&#45;&gt;Node6</title>
<path fill="none" stroke="midnightblue" d="M398.581,-72.0243C346.075,-58.9629 263.368,-37.4318 220.174,-25.5455"/>
<polygon fill="midnightblue" stroke="midnightblue" points="397.789,-75.434 408.338,-74.4393 399.471,-68.6391 397.789,-75.434"/>
</g>
<!-- Node7 -->
<g id="node7" class="node"><title>Node7</title>
<g id="a_node7"><a xlink:href="a00263.html" target="_top" xlink:title="broadphase_SaP.h">
<polygon fill="white" stroke="black" points="275.5,-6.5 275.5,-25.5 374.5,-25.5 374.5,-6.5 275.5,-6.5"/>
<text text-anchor="middle" x="325" y="-13.5" font-family="Helvetica,sans-Serif" font-size="10.00">broadphase_SaP.h</text>
</a>
</g>
</g>
<!-- Node4&#45;&gt;Node7 -->
<g id="edge8" class="edge"><title>Node4&#45;&gt;Node7</title>
<path fill="none" stroke="midnightblue" d="M416.396,-69.8621C390.437,-56.7239 354.349,-36.8969 336.091,-25.6305"/>
<polygon fill="midnightblue" stroke="midnightblue" points="414.938,-73.0462 425.45,-74.3717 418.059,-66.7804 414.938,-73.0462"/>
</g>
<!-- Node8 -->
<g id="node8" class="node"><title>Node8</title>
<g id="a_node8"><a xlink:href="a00266.html" target="_top" xlink:title="broadphase_SSaP.h">
<polygon fill="white" stroke="black" points="393,-6.5 393,-25.5 499,-25.5 499,-6.5 393,-6.5"/>
<text text-anchor="middle" x="446" y="-13.5" font-family="Helvetica,sans-Serif" font-size="10.00">broadphase_SSaP.h</text>
</a>
</g>
</g>
<!-- Node4&#45;&gt;Node8 -->
<g id="edge10" class="edge"><title>Node4&#45;&gt;Node8</title>
<path fill="none" stroke="midnightblue" d="M439.859,-64.425C438.722,-51.7978 439.177,-35.6623 441.224,-25.8411"/>
<polygon fill="midnightblue" stroke="midnightblue" points="436.4,-64.9616 441.269,-74.3717 443.331,-63.9795 436.4,-64.9616"/>
</g>
<!-- Node9 -->
<g id="node9" class="node"><title>Node9</title>
<g id="a_node9"><a xlink:href="a00262.html" target="_top" xlink:title="broadphase_interval\l_tree.h">
<polygon fill="white" stroke="black" points="517,-1 517,-31 621,-31 621,-1 517,-1"/>
<text text-anchor="start" x="525" y="-19" font-family="Helvetica,sans-Serif" font-size="10.00">broadphase_interval</text>
<text text-anchor="middle" x="569" y="-8" font-family="Helvetica,sans-Serif" font-size="10.00">_tree.h</text>
</a>
</g>
</g>
<!-- Node4&#45;&gt;Node9 -->
<g id="edge12" class="edge"><title>Node4&#45;&gt;Node9</title>
<path fill="none" stroke="midnightblue" d="M466.198,-69.148C485.467,-58.0057 514.517,-42.4104 536.911,-31.1815"/>
<polygon fill="midnightblue" stroke="midnightblue" points="464.181,-66.2743 457.349,-74.3717 467.74,-72.3025 464.181,-66.2743"/>
</g>
<!-- Node4&#45;&gt;Node10 -->
<g id="edge15" class="edge"><title>Node4&#45;&gt;Node10</title>
<path fill="none" stroke="midnightblue" d="M398.394,-77.54C332.724,-69.1383 211.288,-51.9093 109,-32 107.432,-31.6948 105.844,-31.378 104.244,-31.052"/>
<polygon fill="midnightblue" stroke="midnightblue" points="398.083,-81.0285 408.443,-78.8117 398.962,-74.0838 398.083,-81.0285"/>
</g>
<!-- Node5&#45;&gt;Node4 -->
<g id="edge5" class="edge"><title>Node5&#45;&gt;Node4</title>
<path fill="none" stroke="midnightblue" d="M662.134,-28.0592C622.84,-38.0974 560.737,-53.5039 507,-68 499.471,-70.0311 491.357,-72.322 483.524,-74.4906"/>
<polygon fill="midnightblue" stroke="midnightblue" points="663.041,-31.4401 671.857,-25.5639 661.3,-24.6598 663.041,-31.4401"/>
</g>
<!-- Node6&#45;&gt;Node4 -->
<g id="edge7" class="edge"><title>Node6&#45;&gt;Node4</title>
<path fill="none" stroke="midnightblue" d="M239.253,-27.9343C291.629,-40.9613 374.203,-62.4558 417.525,-74.3717"/>
<polygon fill="midnightblue" stroke="midnightblue" points="240.069,-24.5307 229.521,-25.5259 238.387,-31.3258 240.069,-24.5307"/>
</g>
<!-- Node7&#45;&gt;Node4 -->
<g id="edge9" class="edge"><title>Node7&#45;&gt;Node4</title>
<path fill="none" stroke="midnightblue" d="M354.609,-30.1403C380.57,-43.2794 416.657,-63.1063 434.913,-74.3717"/>
<polygon fill="midnightblue" stroke="midnightblue" points="356.066,-26.956 345.554,-25.6305 352.945,-33.2218 356.066,-26.956"/>
</g>
<!-- Node8&#45;&gt;Node4 -->
<g id="edge11" class="edge"><title>Node8&#45;&gt;Node4</title>
<path fill="none" stroke="midnightblue" d="M452.165,-35.8504C453.279,-48.528 452.801,-64.6426 450.731,-74.3717"/>
<polygon fill="midnightblue" stroke="midnightblue" points="455.618,-35.265 450.776,-25.8411 448.684,-36.2273 455.618,-35.265"/>
</g>
<!-- Node9&#45;&gt;Node4 -->
<g id="edge13" class="edge"><title>Node9&#45;&gt;Node4</title>
<path fill="none" stroke="midnightblue" d="M539.436,-36.1874C516.984,-48.8124 486.834,-64.7286 466.811,-74.3717"/>
<polygon fill="midnightblue" stroke="midnightblue" points="541.272,-39.1699 548.231,-31.1815 537.809,-33.0863 541.272,-39.1699"/>
</g>
<!-- Node10&#45;&gt;Node4 -->
<g id="edge16" class="edge"><title>Node10&#45;&gt;Node4</title>
<path fill="none" stroke="midnightblue" d="M118.493,-30.2787C121.371,-30.8805 124.217,-31.4583 127,-32 228.397,-51.7358 348.608,-68.8377 408.485,-77.3183"/>
<polygon fill="midnightblue" stroke="midnightblue" points="119.139,-26.8376 108.627,-28.1575 117.668,-33.6812 119.139,-26.8376"/>
</g>
<!-- Node11&#45;&gt;Node3 -->
<g id="edge18" class="edge"><title>Node11&#45;&gt;Node3</title>
<path fill="none" stroke="midnightblue" d="M563.517,-200.341C541.569,-190.586 511.24,-177.107 488.557,-167.025"/>
<polygon fill="midnightblue" stroke="midnightblue" points="562.098,-203.54 572.658,-204.403 564.941,-197.144 562.098,-203.54"/>
</g>
<!-- Node11&#45;&gt;Node10 -->
<g id="edge19" class="edge"><title>Node11&#45;&gt;Node10</title>
<path fill="none" stroke="midnightblue" d="M531.93,-202.613C492.004,-194.933 438.708,-183.184 393,-168 272.853,-128.089 137.42,-60.482 80.9547,-31.2113"/>
<polygon fill="midnightblue" stroke="midnightblue" points="531.304,-206.057 541.781,-204.478 532.606,-199.179 531.304,-206.057"/>
</g>
<!-- Node12 -->
<g id="node12" class="node"><title>Node12</title>
<g id="a_node12"><a xlink:href="a00350.html" target="_top" xlink:title="traversal_node_bvh\l_shape.h">
<polygon fill="white" stroke="black" points="540.5,-69 540.5,-99 641.5,-99 641.5,-69 540.5,-69"/>
<text text-anchor="start" x="548.5" y="-87" font-family="Helvetica,sans-Serif" font-size="10.00">traversal_node_bvh</text>
<text text-anchor="middle" x="591" y="-76" font-family="Helvetica,sans-Serif" font-size="10.00">_shape.h</text>
</a>
</g>
</g>
<!-- Node11&#45;&gt;Node12 -->
<g id="edge20" class="edge"><title>Node11&#45;&gt;Node12</title>
<path fill="none" stroke="midnightblue" d="M591.853,-194.171C591.651,-168.287 591.291,-122.294 591.11,-99.1431"/>
<polygon fill="midnightblue" stroke="midnightblue" points="588.353,-194.23 591.931,-204.202 595.353,-194.175 588.353,-194.23"/>
</g>
<!-- Node14 -->
<g id="node14" class="node"><title>Node14</title>
<g id="a_node14"><a xlink:href="a00352.html" target="_top" xlink:title="traversal_node_octree.h">
<polygon fill="white" stroke="black" points="659.5,-74.5 659.5,-93.5 780.5,-93.5 780.5,-74.5 659.5,-74.5"/>
<text text-anchor="middle" x="720" y="-81.5" font-family="Helvetica,sans-Serif" font-size="10.00">traversal_node_octree.h</text>
</a>
</g>
</g>
<!-- Node11&#45;&gt;Node14 -->
<g id="edge22" class="edge"><title>Node11&#45;&gt;Node14</title>
<path fill="none" stroke="midnightblue" d="M596.731,-194.573C601.849,-177.668 611.435,-152.779 627,-136 645.786,-115.75 674.486,-101.721 695.032,-93.5753"/>
<polygon fill="midnightblue" stroke="midnightblue" points="593.316,-193.791 593.996,-204.364 600.058,-195.674 593.316,-193.791"/>
</g>
<!-- Node11&#45;&gt;Node15 -->
<g id="edge24" class="edge"><title>Node11&#45;&gt;Node15</title>
<path fill="none" stroke="midnightblue" d="M615.95,-199.443C636.463,-187.832 665.379,-171.465 682.841,-161.581"/>
<polygon fill="midnightblue" stroke="midnightblue" points="614.166,-196.432 607.187,-204.403 617.614,-202.523 614.166,-196.432"/>
</g>
<!-- Node13 -->
<g id="node13" class="node"><title>Node13</title>
<g id="a_node13"><a xlink:href="a00353.html" target="_top" xlink:title="traversal_node_setup.h">
<polygon fill="white" stroke="black" points="781,-6.5 781,-25.5 899,-25.5 899,-6.5 781,-6.5"/>
<text text-anchor="middle" x="840" y="-13.5" font-family="Helvetica,sans-Serif" font-size="10.00">traversal_node_setup.h</text>
</a>
</g>
</g>
<!-- Node12&#45;&gt;Node13 -->
<g id="edge21" class="edge"><title>Node12&#45;&gt;Node13</title>
<path fill="none" stroke="midnightblue" d="M651.575,-66.944C700.736,-53.9133 768.146,-36.0456 807.589,-25.5909"/>
<polygon fill="midnightblue" stroke="midnightblue" points="650.458,-63.619 641.689,-69.5644 652.252,-70.3853 650.458,-63.619"/>
</g>
<!-- Node14&#45;&gt;Node13 -->
<g id="edge23" class="edge"><title>Node14&#45;&gt;Node13</title>
<path fill="none" stroke="midnightblue" d="M744.518,-69.5149C768.406,-56.3767 804.003,-36.7981 824.308,-25.6305"/>
<polygon fill="midnightblue" stroke="midnightblue" points="742.763,-66.4857 735.688,-74.3717 746.137,-72.6192 742.763,-66.4857"/>
</g>
<!-- Node15&#45;&gt;Node13 -->
<g id="edge25" class="edge"><title>Node15&#45;&gt;Node13</title>
<path fill="none" stroke="midnightblue" d="M627.153,-140.573C567.875,-128.918 497.896,-106.44 531,-68 566.192,-27.1351 717.956,-41.7333 771,-32 781.37,-30.0972 792.559,-27.7801 802.847,-25.5417"/>
<polygon fill="midnightblue" stroke="midnightblue" points="626.836,-144.075 637.311,-142.488 628.133,-137.196 626.836,-144.075"/>
</g>
<!-- Node17 -->
<g id="node17" class="node"><title>Node17</title>
<g id="a_node17"><a xlink:href="a00273.html" target="_top" xlink:title="BVH_model.h">
<polygon fill="white" stroke="black" points="786.5,-142.5 786.5,-161.5 863.5,-161.5 863.5,-142.5 786.5,-142.5"/>
<text text-anchor="middle" x="825" y="-149.5" font-family="Helvetica,sans-Serif" font-size="10.00">BVH_model.h</text>
</a>
</g>
</g>
<!-- Node16&#45;&gt;Node17 -->
<g id="edge28" class="edge"><title>Node16&#45;&gt;Node17</title>
<path fill="none" stroke="midnightblue" d="M830.488,-194.16C829.033,-183.248 827.272,-170.04 826.144,-161.581"/>
<polygon fill="midnightblue" stroke="midnightblue" points="827.063,-194.954 831.854,-204.403 834.001,-194.029 827.063,-194.954"/>
</g>
<!-- Node16&#45;&gt;Node19 -->
<g id="edge38" class="edge"><title>Node16&#45;&gt;Node19</title>
<path fill="none" stroke="midnightblue" d="M846.657,-196.703C861.935,-179.418 888.211,-152.391 916,-136 951.625,-114.988 997.03,-101.355 1029.47,-93.518"/>
<polygon fill="midnightblue" stroke="midnightblue" points="843.968,-194.461 840.081,-204.317 849.266,-199.037 843.968,-194.461"/>
</g>
<!-- Node17&#45;&gt;Node12 -->
<g id="edge36" class="edge"><title>Node17&#45;&gt;Node12</title>
<path fill="none" stroke="midnightblue" d="M784.756,-139.649C744.891,-128.405 683.749,-111.16 640.836,-99.0562"/>
<polygon fill="midnightblue" stroke="midnightblue" points="783.834,-143.026 794.409,-142.372 785.734,-136.288 783.834,-143.026"/>
</g>
<!-- Node17&#45;&gt;Node14 -->
<g id="edge37" class="edge"><title>Node17&#45;&gt;Node14</title>
<path fill="none" stroke="midnightblue" d="M802.709,-136.988C781.82,-123.858 751.261,-104.65 733.73,-93.6305"/>
<polygon fill="midnightblue" stroke="midnightblue" points="800.944,-140.013 811.273,-142.372 804.669,-134.087 800.944,-140.013"/>
</g>
<!-- Node18 -->
<g id="node18" class="node"><title>Node18</title>
<g id="a_node18"><a xlink:href="a00274.html" target="_top" xlink:title="BVH_utility.h">
<polygon fill="white" stroke="black" points="799,-74.5 799,-93.5 873,-93.5 873,-74.5 799,-74.5"/>
<text text-anchor="middle" x="836" y="-81.5" font-family="Helvetica,sans-Serif" font-size="10.00">BVH_utility.h</text>
</a>
</g>
</g>
<!-- Node17&#45;&gt;Node18 -->
<g id="edge29" class="edge"><title>Node17&#45;&gt;Node18</title>
<path fill="none" stroke="midnightblue" d="M828.096,-132.425C830.2,-119.798 832.89,-103.662 834.526,-93.8411"/>
<polygon fill="midnightblue" stroke="midnightblue" points="824.63,-131.932 826.438,-142.372 831.535,-133.083 824.63,-131.932"/>
</g>
<!-- Node17&#45;&gt;Node19 -->
<g id="edge31" class="edge"><title>Node17&#45;&gt;Node19</title>
<path fill="none" stroke="midnightblue" d="M864.511,-139.736C869.057,-138.464 873.627,-137.196 878,-136 933.993,-120.68 999.338,-103.574 1037.83,-93.5782"/>
<polygon fill="midnightblue" stroke="midnightblue" points="863.366,-136.422 854.688,-142.499 865.262,-143.16 863.366,-136.422"/>
</g>
<!-- Node22 -->
<g id="node22" class="node"><title>Node22</title>
<g id="a_node22"><a xlink:href="a00291.html" target="_top" xlink:title="geometric_shape_to\l_BVH_model.h">
<polygon fill="white" stroke="black" points="891,-69 891,-99 995,-99 995,-69 891,-69"/>
<text text-anchor="start" x="899" y="-87" font-family="Helvetica,sans-Serif" font-size="10.00">geometric_shape_to</text>
<text text-anchor="middle" x="943" y="-76" font-family="Helvetica,sans-Serif" font-size="10.00">_BVH_model.h</text>
</a>
</g>
</g>
<!-- Node17&#45;&gt;Node22 -->
<g id="edge35" class="edge"><title>Node17&#45;&gt;Node22</title>
<path fill="none" stroke="midnightblue" d="M849.222,-137.452C869.177,-126.291 897.386,-110.513 917.645,-99.1815"/>
<polygon fill="midnightblue" stroke="midnightblue" points="847.445,-134.435 840.426,-142.372 850.863,-140.545 847.445,-134.435"/>
</g>
<!-- Node18&#45;&gt;Node13 -->
<g id="edge30" class="edge"><title>Node18&#45;&gt;Node13</title>
<path fill="none" stroke="midnightblue" d="M837.149,-64.0413C837.911,-51.4724 838.875,-35.5631 839.464,-25.8411"/>
<polygon fill="midnightblue" stroke="midnightblue" points="833.634,-64.1782 836.523,-74.3717 840.622,-64.6017 833.634,-64.1782"/>
</g>
<!-- Node19&#45;&gt;Node13 -->
<g id="edge33" class="edge"><title>Node19&#45;&gt;Node13</title>
<path fill="none" stroke="midnightblue" d="M1030.9,-71.5428C985.012,-58.4319 910.921,-37.2632 869.841,-25.5259"/>
<polygon fill="midnightblue" stroke="midnightblue" points="1030.22,-74.9897 1040.8,-74.3717 1032.15,-68.259 1030.22,-74.9897"/>
</g>
<!-- Node20 -->
<g id="node20" class="node"><title>Node20</title>
<g id="a_node20"><a xlink:href="a00279.html" target="_top" xlink:title="collision_node.h">
<polygon fill="white" stroke="black" points="1087,-6.5 1087,-25.5 1173,-25.5 1173,-6.5 1087,-6.5"/>
<text text-anchor="middle" x="1130" y="-13.5" font-family="Helvetica,sans-Serif" font-size="10.00">collision_node.h</text>
</a>
</g>
</g>
<!-- Node19&#45;&gt;Node20 -->
<g id="edge32" class="edge"><title>Node19&#45;&gt;Node20</title>
<path fill="none" stroke="midnightblue" d="M1085.59,-66.68C1097.12,-53.7768 1112.78,-36.2575 1122.1,-25.8411"/>
<polygon fill="midnightblue" stroke="midnightblue" points="1082.77,-64.5836 1078.71,-74.3717 1087.99,-69.2489 1082.77,-64.5836"/>
</g>
<!-- Node21 -->
<g id="node21" class="node"><title>Node21</title>
<g id="a_node21"><a xlink:href="a00355.html" target="_top" xlink:title="traversal_recurse.h">
<polygon fill="white" stroke="black" points="969,-6.5 969,-25.5 1069,-25.5 1069,-6.5 969,-6.5"/>
<text text-anchor="middle" x="1019" y="-13.5" font-family="Helvetica,sans-Serif" font-size="10.00">traversal_recurse.h</text>
</a>
</g>
</g>
<!-- Node19&#45;&gt;Node21 -->
<g id="edge34" class="edge"><title>Node19&#45;&gt;Node21</title>
<path fill="none" stroke="midnightblue" d="M1057.85,-66.3101C1047.71,-53.4437 1034.09,-36.1583 1025.97,-25.8411"/>
<polygon fill="midnightblue" stroke="midnightblue" points="1055.26,-68.6828 1064.2,-74.3717 1060.76,-64.3506 1055.26,-68.6828"/>
</g>
<!-- Node23&#45;&gt;Node2 -->
<g id="edge42" class="edge"><title>Node23&#45;&gt;Node2</title>
<path fill="none" stroke="midnightblue" d="M795.493,-312.454C771.374,-302.199 737.978,-287.999 717.198,-279.163"/>
<polygon fill="midnightblue" stroke="midnightblue" points="794.304,-315.751 804.876,-316.444 797.043,-309.31 794.304,-315.751"/>
</g>
<!-- Node24 -->
<g id="node24" class="node"><title>Node24</title>
<g id="a_node24"><a xlink:href="a00268.html" target="_top" xlink:title="BV_fitter.h">
<polygon fill="white" stroke="black" points="826.5,-260.5 826.5,-279.5 889.5,-279.5 889.5,-260.5 826.5,-260.5"/>
<text text-anchor="middle" x="858" y="-267.5" font-family="Helvetica,sans-Serif" font-size="10.00">BV_fitter.h</text>
</a>
</g>
</g>
<!-- Node23&#45;&gt;Node24 -->
<g id="edge43" class="edge"><title>Node23&#45;&gt;Node24</title>
<path fill="none" stroke="midnightblue" d="M835.832,-307.275C841.472,-298.045 848.118,-287.17 852.652,-279.751"/>
<polygon fill="midnightblue" stroke="midnightblue" points="832.677,-305.725 830.449,-316.083 838.65,-309.375 832.677,-305.725"/>
</g>
<!-- Node25 -->
<g id="node25" class="node"><title>Node25</title>
<g id="a_node25"><a xlink:href="a00270.html" target="_top" xlink:title="BV_splitter.h">
<polygon fill="white" stroke="black" points="735.5,-260.5 735.5,-279.5 808.5,-279.5 808.5,-260.5 735.5,-260.5"/>
<text text-anchor="middle" x="772" y="-267.5" font-family="Helvetica,sans-Serif" font-size="10.00">BV_splitter.h</text>
</a>
</g>
</g>
<!-- Node23&#45;&gt;Node25 -->
<g id="edge45" class="edge"><title>Node23&#45;&gt;Node25</title>
<path fill="none" stroke="midnightblue" d="M809.019,-308.718C799.678,-299.2 788.254,-287.561 780.589,-279.751"/>
<polygon fill="midnightblue" stroke="midnightblue" points="806.746,-311.398 816.248,-316.083 811.741,-306.494 806.746,-311.398"/>
</g>
<!-- Node24&#45;&gt;Node17 -->
<g id="edge44" class="edge"><title>Node24&#45;&gt;Node17</title>
<path fill="none" stroke="midnightblue" d="M868.17,-251.32C874.451,-238.005 880.225,-219.464 874,-204 866.755,-186.003 849.788,-170.794 837.859,-161.787"/>
<polygon fill="midnightblue" stroke="midnightblue" points="864.983,-249.862 863.459,-260.346 871.189,-253.101 864.983,-249.862"/>
</g>
<!-- Node25&#45;&gt;Node17 -->
<g id="edge46" class="edge"><title>Node25&#45;&gt;Node17</title>
<path fill="none" stroke="midnightblue" d="M775.843,-250.424C778.971,-237.121 784.015,-218.985 791,-204 798.463,-187.989 810.544,-171.298 818.115,-161.542"/>
<polygon fill="midnightblue" stroke="midnightblue" points="772.403,-249.767 773.665,-260.287 779.239,-251.276 772.403,-249.767"/>
</g>
<!-- Node26&#45;&gt;Node2 -->
<g id="edge48" class="edge"><title>Node26&#45;&gt;Node2</title>
<path fill="none" stroke="midnightblue" d="M734.321,-308.718C725.155,-299.2 713.947,-287.561 706.427,-279.751"/>
<polygon fill="midnightblue" stroke="midnightblue" points="731.956,-311.308 741.413,-316.083 736.998,-306.452 731.956,-311.308"/>
</g>
<!-- Node26&#45;&gt;Node24 -->
<g id="edge49" class="edge"><title>Node26&#45;&gt;Node24</title>
<path fill="none" stroke="midnightblue" d="M776.548,-311.726C796.546,-301.727 823.387,-288.307 840.691,-279.655"/>
<polygon fill="midnightblue" stroke="midnightblue" points="774.731,-308.721 767.352,-316.324 777.862,-314.982 774.731,-308.721"/>
</g>
<!-- Node26&#45;&gt;Node25 -->
<g id="edge50" class="edge"><title>Node26&#45;&gt;Node25</title>
<path fill="none" stroke="midnightblue" d="M757.46,-306.69C761.167,-297.589 765.476,-287.014 768.435,-279.751"/>
<polygon fill="midnightblue" stroke="midnightblue" points="754.165,-305.502 753.633,-316.083 760.647,-308.143 754.165,-305.502"/>
</g>
</g>
</svg>
