<?xml version="1.0" encoding="UTF-8" standalone="no"?>
<!DOCTYPE svg PUBLIC "-//W3C//DTD SVG 1.1//EN"
 "http://www.w3.org/Graphics/SVG/1.1/DTD/svg11.dtd">
<!-- Generated by graphviz version 2.36.0 (20140111.2315)
 -->
<!-- Title: model.h Pages: 1 -->
<svg width="1462pt" height="728pt"
 viewBox="0.00 0.00 1462.00 728.00" xmlns="http://www.w3.org/2000/svg" xmlns:xlink="http://www.w3.org/1999/xlink">
<g id="graph0" class="graph" transform="scale(1 1) rotate(0) translate(4 724)">
<title>model.h</title>
<polygon fill="white" stroke="none" points="-4,4 -4,-724 1458,-724 1458,4 -4,4"/>
<!-- Node1 -->
<g id="node1" class="node"><title>Node1</title>
<polygon fill="#bfbfbf" stroke="black" points="379.5,-700.5 379.5,-719.5 430.5,-719.5 430.5,-700.5 379.5,-700.5"/>
<text text-anchor="middle" x="405" y="-707.5" font-family="Helvetica,sans-Serif" font-size="10.00">model.h</text>
</g>
<!-- Node2 -->
<g id="node2" class="node"><title>Node2</title>
<g id="a_node2"><a xlink:href="a00310.html" target="_top" xlink:title="hpp/fcl/articulated\l_model/joint.h">
<polygon fill="white" stroke="black" points="264,-509 264,-539 358,-539 358,-509 264,-509"/>
<text text-anchor="start" x="272" y="-527" font-family="Helvetica,sans-Serif" font-size="10.00">hpp/fcl/articulated</text>
<text text-anchor="middle" x="311" y="-516" font-family="Helvetica,sans-Serif" font-size="10.00">_model/joint.h</text>
</a>
</g>
</g>
<!-- Node1&#45;&gt;Node2 -->
<g id="edge1" class="edge"><title>Node1&#45;&gt;Node2</title>
<path fill="none" stroke="midnightblue" d="M397.826,-700.427C390.699,-691.649 379.744,-677.428 372,-664 349.72,-625.37 330.242,-577.075 319.596,-548.772"/>
<polygon fill="midnightblue" stroke="midnightblue" points="322.843,-547.463 316.085,-539.304 316.28,-549.897 322.843,-547.463"/>
</g>
<!-- Node7 -->
<g id="node7" class="node"><title>Node7</title>
<g id="a_node7"><a xlink:href="a00283.html" target="_top" xlink:title="hpp/fcl/data_types.h">
<polygon fill="white" stroke="black" points="59.5,-56.5 59.5,-75.5 164.5,-75.5 164.5,-56.5 59.5,-56.5"/>
<text text-anchor="middle" x="112" y="-63.5" font-family="Helvetica,sans-Serif" font-size="10.00">hpp/fcl/data_types.h</text>
</a>
</g>
</g>
<!-- Node1&#45;&gt;Node7 -->
<g id="edge69" class="edge"><title>Node1&#45;&gt;Node7</title>
<path fill="none" stroke="midnightblue" d="M379.358,-706.888C290.331,-698.861 0,-666.583 0,-587 0,-587 0,-587 0,-189 0,-138.539 52.6371,-99.9282 85.741,-80.6349"/>
<polygon fill="midnightblue" stroke="midnightblue" points="87.4976,-83.6625 94.5,-75.7116 84.0677,-77.5604 87.4976,-83.6625"/>
</g>
<!-- Node21 -->
<g id="node21" class="node"><title>Node21</title>
<polygon fill="white" stroke="#bfbfbf" points="360.5,-446.5 360.5,-465.5 395.5,-465.5 395.5,-446.5 360.5,-446.5"/>
<text text-anchor="middle" x="378" y="-453.5" font-family="Helvetica,sans-Serif" font-size="10.00">map</text>
</g>
<!-- Node1&#45;&gt;Node21 -->
<g id="edge71" class="edge"><title>Node1&#45;&gt;Node21</title>
<path fill="none" stroke="midnightblue" d="M404.071,-700.326C400.217,-664.355 385.44,-526.44 380.014,-475.795"/>
<polygon fill="midnightblue" stroke="midnightblue" points="383.471,-475.208 378.925,-465.638 376.511,-475.954 383.471,-475.208"/>
</g>
<!-- Node22 -->
<g id="node22" class="node"><title>Node22</title>
<polygon fill="white" stroke="#bfbfbf" points="408,-242.5 408,-261.5 516,-261.5 516,-242.5 408,-242.5"/>
<text text-anchor="middle" x="462" y="-249.5" font-family="Helvetica,sans-Serif" font-size="10.00">boost/shared_ptr.hpp</text>
</g>
<!-- Node1&#45;&gt;Node22 -->
<g id="edge70" class="edge"><title>Node1&#45;&gt;Node22</title>
<path fill="none" stroke="midnightblue" d="M407.254,-700.492C412.287,-680.723 424,-630.086 424,-587 424,-587 424,-587 424,-387 424,-344.048 442.294,-296.189 453.496,-270.911"/>
<polygon fill="midnightblue" stroke="midnightblue" points="456.806,-272.09 457.788,-261.54 450.442,-269.174 456.806,-272.09"/>
</g>
<!-- Node24 -->
<g id="node24" class="node"><title>Node24</title>
<g id="a_node24"><a xlink:href="a00315.html" target="_top" xlink:title="hpp/fcl/articulated\l_model/link.h">
<polygon fill="white" stroke="black" points="452,-633 452,-663 546,-663 546,-633 452,-633"/>
<text text-anchor="start" x="460" y="-651" font-family="Helvetica,sans-Serif" font-size="10.00">hpp/fcl/articulated</text>
<text text-anchor="middle" x="499" y="-640" font-family="Helvetica,sans-Serif" font-size="10.00">_model/link.h</text>
</a>
</g>
</g>
<!-- Node1&#45;&gt;Node24 -->
<g id="edge32" class="edge"><title>Node1&#45;&gt;Node24</title>
<path fill="none" stroke="midnightblue" d="M418.468,-700.403C431.437,-692.125 451.513,-679.311 468.376,-668.547"/>
<polygon fill="midnightblue" stroke="midnightblue" points="470.3,-671.471 476.846,-663.141 466.534,-665.571 470.3,-671.471"/>
</g>
<!-- Node28 -->
<g id="node28" class="node"><title>Node28</title>
<polygon fill="white" stroke="#bfbfbf" points="1345.5,-378.5 1345.5,-397.5 1404.5,-397.5 1404.5,-378.5 1345.5,-378.5"/>
<text text-anchor="middle" x="1375" y="-385.5" font-family="Helvetica,sans-Serif" font-size="10.00">stdexcept</text>
</g>
<!-- Node1&#45;&gt;Node28 -->
<g id="edge72" class="edge"><title>Node1&#45;&gt;Node28</title>
<path fill="none" stroke="midnightblue" d="M430.566,-708.373C579.153,-704.402 1325,-679.846 1325,-587 1325,-587 1325,-587 1325,-523 1325,-485.055 1330.78,-475.18 1345,-440 1349.79,-428.143 1357.02,-415.756 1363.18,-406.16"/>
<polygon fill="midnightblue" stroke="midnightblue" points="1366.24,-407.883 1368.85,-397.616 1360.4,-404.01 1366.24,-407.883"/>
</g>
<!-- Node3 -->
<g id="node3" class="node"><title>Node3</title>
<g id="a_node3"><a xlink:href="a00348.html" target="_top" xlink:title="hpp/fcl/math/transform.h">
<polygon fill="white" stroke="black" points="912.5,-446.5 912.5,-465.5 1035.5,-465.5 1035.5,-446.5 912.5,-446.5"/>
<text text-anchor="middle" x="974" y="-453.5" font-family="Helvetica,sans-Serif" font-size="10.00">hpp/fcl/math/transform.h</text>
</a>
</g>
</g>
<!-- Node2&#45;&gt;Node3 -->
<g id="edge2" class="edge"><title>Node2&#45;&gt;Node3</title>
<path fill="none" stroke="midnightblue" d="M358.126,-519.953C455.976,-513.371 688.212,-496.42 882,-472 892.941,-470.621 904.575,-468.914 915.759,-467.15"/>
<polygon fill="midnightblue" stroke="midnightblue" points="916.554,-470.568 925.871,-465.523 915.441,-463.656 916.554,-470.568"/>
</g>
<!-- Node2&#45;&gt;Node7 -->
<g id="edge25" class="edge"><title>Node2&#45;&gt;Node7</title>
<path fill="none" stroke="midnightblue" d="M263.545,-517.661C207.31,-510.364 118.283,-495.443 95,-472 68.3324,-445.15 76,-426.843 76,-389 76,-389 76,-389 76,-189 76,-150.699 92.5237,-108.298 103.182,-84.9323"/>
<polygon fill="midnightblue" stroke="midnightblue" points="106.475,-86.1557 107.586,-75.6192 100.147,-83.1633 106.475,-86.1557"/>
</g>
<!-- Node16 -->
<g id="node16" class="node"><title>Node16</title>
<polygon fill="white" stroke="#bfbfbf" points="373,-56.5 373,-75.5 413,-75.5 413,-56.5 373,-56.5"/>
<text text-anchor="middle" x="393" y="-63.5" font-family="Helvetica,sans-Serif" font-size="10.00">limits</text>
</g>
<!-- Node2&#45;&gt;Node16 -->
<g id="edge29" class="edge"><title>Node2&#45;&gt;Node16</title>
<path fill="none" stroke="midnightblue" d="M314.754,-508.64C320.795,-484.238 332,-433.034 332,-389 332,-389 332,-389 332,-189 332,-147.607 360.439,-105.862 378.481,-83.5437"/>
<polygon fill="midnightblue" stroke="midnightblue" points="381.288,-85.6429 385.025,-75.7291 375.921,-81.1486 381.288,-85.6429"/>
</g>
<!-- Node19 -->
<g id="node19" class="node"><title>Node19</title>
<polygon fill="white" stroke="#bfbfbf" points="224.5,-446.5 224.5,-465.5 265.5,-465.5 265.5,-446.5 224.5,-446.5"/>
<text text-anchor="middle" x="245" y="-453.5" font-family="Helvetica,sans-Serif" font-size="10.00">string</text>
</g>
<!-- Node2&#45;&gt;Node19 -->
<g id="edge26" class="edge"><title>Node2&#45;&gt;Node19</title>
<path fill="none" stroke="midnightblue" d="M296.679,-508.679C286.184,-498.184 271.932,-483.932 261.052,-473.052"/>
<polygon fill="midnightblue" stroke="midnightblue" points="263.374,-470.425 253.828,-465.828 258.425,-475.374 263.374,-470.425"/>
</g>
<!-- Node20 -->
<g id="node20" class="node"><title>Node20</title>
<polygon fill="white" stroke="#bfbfbf" points="452,-446.5 452,-465.5 496,-465.5 496,-446.5 452,-446.5"/>
<text text-anchor="middle" x="474" y="-453.5" font-family="Helvetica,sans-Serif" font-size="10.00">vector</text>
</g>
<!-- Node2&#45;&gt;Node20 -->
<g id="edge27" class="edge"><title>Node2&#45;&gt;Node20</title>
<path fill="none" stroke="midnightblue" d="M345.968,-508.841C374.794,-497.169 415.3,-480.768 442.984,-469.558"/>
<polygon fill="midnightblue" stroke="midnightblue" points="444.603,-472.679 452.558,-465.682 441.976,-466.191 444.603,-472.679"/>
</g>
<!-- Node2&#45;&gt;Node21 -->
<g id="edge28" class="edge"><title>Node2&#45;&gt;Node21</title>
<path fill="none" stroke="midnightblue" d="M325.538,-508.679C336.192,-498.184 350.66,-483.932 361.705,-473.052"/>
<polygon fill="midnightblue" stroke="midnightblue" points="364.37,-475.339 369.038,-465.828 359.458,-470.353 364.37,-475.339"/>
</g>
<!-- Node2&#45;&gt;Node22 -->
<g id="edge30" class="edge"><title>Node2&#45;&gt;Node22</title>
<path fill="none" stroke="midnightblue" d="M315.389,-508.737C326.997,-472.372 361.01,-374.118 410,-304 419.349,-290.619 432.492,-277.764 443.226,-268.308"/>
<polygon fill="midnightblue" stroke="midnightblue" points="445.53,-270.943 450.861,-261.787 440.984,-265.62 445.53,-270.943"/>
</g>
<!-- Node23 -->
<g id="node23" class="node"><title>Node23</title>
<polygon fill="white" stroke="#bfbfbf" points="104,-446.5 104,-465.5 206,-465.5 206,-446.5 104,-446.5"/>
<text text-anchor="middle" x="155" y="-453.5" font-family="Helvetica,sans-Serif" font-size="10.00">boost/weak_ptr.hpp</text>
</g>
<!-- Node2&#45;&gt;Node23 -->
<g id="edge31" class="edge"><title>Node2&#45;&gt;Node23</title>
<path fill="none" stroke="midnightblue" d="M277.534,-508.841C250.067,-497.221 211.519,-480.912 185.033,-469.706"/>
<polygon fill="midnightblue" stroke="midnightblue" points="186.094,-466.355 175.521,-465.682 183.367,-472.802 186.094,-466.355"/>
</g>
<!-- Node4 -->
<g id="node4" class="node"><title>Node4</title>
<g id="a_node4"><a xlink:href="a00319.html" target="_top" xlink:title="hpp/fcl/math/matrix_3f.h">
<polygon fill="white" stroke="black" points="884,-242.5 884,-261.5 1006,-261.5 1006,-242.5 884,-242.5"/>
<text text-anchor="middle" x="945" y="-249.5" font-family="Helvetica,sans-Serif" font-size="10.00">hpp/fcl/math/matrix_3f.h</text>
</a>
</g>
</g>
<!-- Node3&#45;&gt;Node4 -->
<g id="edge3" class="edge"><title>Node3&#45;&gt;Node4</title>
<path fill="none" stroke="midnightblue" d="M975.405,-446.294C978.881,-422.833 986.655,-356.521 973,-304 969.874,-291.976 963.288,-279.733 957.289,-270.257"/>
<polygon fill="midnightblue" stroke="midnightblue" points="960.107,-268.175 951.635,-261.814 954.291,-272.071 960.107,-268.175"/>
</g>
<!-- Node18 -->
<g id="node18" class="node"><title>Node18</title>
<polygon fill="white" stroke="#bfbfbf" points="1002.5,-378.5 1002.5,-397.5 1121.5,-397.5 1121.5,-378.5 1002.5,-378.5"/>
<text text-anchor="middle" x="1062" y="-385.5" font-family="Helvetica,sans-Serif" font-size="10.00">boost/thread/mutex.hpp</text>
</g>
<!-- Node3&#45;&gt;Node18 -->
<g id="edge24" class="edge"><title>Node3&#45;&gt;Node18</title>
<path fill="none" stroke="midnightblue" d="M985.504,-446.372C999.866,-435.6 1024.66,-417.002 1042.12,-403.906"/>
<polygon fill="midnightblue" stroke="midnightblue" points="1044.59,-406.431 1050.49,-397.63 1040.39,-400.83 1044.59,-406.431"/>
</g>
<!-- Node5 -->
<g id="node5" class="node"><title>Node5</title>
<g id="a_node5"><a xlink:href="a00356.html" target="_top" xlink:title="hpp/fcl/math/vec_3f.h">
<polygon fill="white" stroke="black" points="628.5,-180.5 628.5,-199.5 739.5,-199.5 739.5,-180.5 628.5,-180.5"/>
<text text-anchor="middle" x="684" y="-187.5" font-family="Helvetica,sans-Serif" font-size="10.00">hpp/fcl/math/vec_3f.h</text>
</a>
</g>
</g>
<!-- Node4&#45;&gt;Node5 -->
<g id="edge4" class="edge"><title>Node4&#45;&gt;Node5</title>
<path fill="none" stroke="midnightblue" d="M907.882,-242.467C861.404,-231.783 781.739,-213.469 731.036,-201.813"/>
<polygon fill="midnightblue" stroke="midnightblue" points="731.52,-198.333 720.99,-199.503 729.951,-205.155 731.52,-198.333"/>
</g>
<!-- Node6 -->
<g id="node6" class="node"><title>Node6</title>
<polygon fill="white" stroke="#bfbfbf" points="699,-56.5 699,-75.5 801,-75.5 801,-56.5 699,-56.5"/>
<text text-anchor="middle" x="750" y="-63.5" font-family="Helvetica,sans-Serif" font-size="10.00">hpp/fcl/config&#45;fcl.hh</text>
</g>
<!-- Node5&#45;&gt;Node6 -->
<g id="edge5" class="edge"><title>Node5&#45;&gt;Node6</title>
<path fill="none" stroke="midnightblue" d="M688.747,-180.226C699.545,-160.266 726.119,-111.144 740.458,-84.6378"/>
<polygon fill="midnightblue" stroke="midnightblue" points="743.617,-86.1553 745.296,-75.6944 737.46,-82.8245 743.617,-86.1553"/>
</g>
<!-- Node5&#45;&gt;Node7 -->
<g id="edge6" class="edge"><title>Node5&#45;&gt;Node7</title>
<path fill="none" stroke="midnightblue" d="M632.757,-180.471C582.696,-171.948 504.407,-158.115 437,-144 335.659,-122.779 217.575,-93.7003 155.407,-78.0496"/>
<polygon fill="midnightblue" stroke="midnightblue" points="156.109,-74.6171 145.556,-75.5643 154.396,-81.4044 156.109,-74.6171"/>
</g>
<!-- Node10 -->
<g id="node10" class="node"><title>Node10</title>
<g id="a_node10"><a xlink:href="a00316.html" target="_top" xlink:title="hpp/fcl/eigen/math\l_details.h">
<polygon fill="white" stroke="black" points="807.5,-113 807.5,-143 904.5,-143 904.5,-113 807.5,-113"/>
<text text-anchor="start" x="815.5" y="-131" font-family="Helvetica,sans-Serif" font-size="10.00">hpp/fcl/eigen/math</text>
<text text-anchor="middle" x="856" y="-120" font-family="Helvetica,sans-Serif" font-size="10.00">_details.h</text>
</a>
</g>
</g>
<!-- Node5&#45;&gt;Node10 -->
<g id="edge9" class="edge"><title>Node5&#45;&gt;Node10</title>
<path fill="none" stroke="midnightblue" d="M708.643,-180.403C733.982,-171.564 774.148,-157.553 806.15,-146.39"/>
<polygon fill="midnightblue" stroke="midnightblue" points="807.505,-149.624 815.794,-143.025 805.199,-143.014 807.505,-149.624"/>
</g>
<!-- Node13 -->
<g id="node13" class="node"><title>Node13</title>
<g id="a_node13"><a xlink:href="a00357.html" target="_top" xlink:title="hpp/fcl/eigen/vec_3fx.h">
<polygon fill="white" stroke="black" points="564,-118.5 564,-137.5 682,-137.5 682,-118.5 564,-118.5"/>
<text text-anchor="middle" x="623" y="-125.5" font-family="Helvetica,sans-Serif" font-size="10.00">hpp/fcl/eigen/vec_3fx.h</text>
</a>
</g>
</g>
<!-- Node5&#45;&gt;Node13 -->
<g id="edge12" class="edge"><title>Node5&#45;&gt;Node13</title>
<path fill="none" stroke="midnightblue" d="M675.26,-180.403C665.838,-171.136 650.636,-156.183 639.051,-144.788"/>
<polygon fill="midnightblue" stroke="midnightblue" points="641.307,-142.098 631.724,-137.581 636.399,-147.088 641.307,-142.098"/>
</g>
<!-- Node14 -->
<g id="node14" class="node"><title>Node14</title>
<polygon fill="white" stroke="#bfbfbf" points="431,-56.5 431,-75.5 475,-75.5 475,-56.5 431,-56.5"/>
<text text-anchor="middle" x="453" y="-63.5" font-family="Helvetica,sans-Serif" font-size="10.00">cmath</text>
</g>
<!-- Node5&#45;&gt;Node14 -->
<g id="edge21" class="edge"><title>Node5&#45;&gt;Node14</title>
<path fill="none" stroke="midnightblue" d="M631.445,-180.441C600.379,-173.773 561.154,-162.457 530,-144 503.407,-128.245 479.374,-101.206 465.478,-83.7232"/>
<polygon fill="midnightblue" stroke="midnightblue" points="468.058,-81.3377 459.176,-75.5622 462.518,-85.6162 468.058,-81.3377"/>
</g>
<!-- Node15 -->
<g id="node15" class="node"><title>Node15</title>
<polygon fill="white" stroke="#bfbfbf" points="493,-56.5 493,-75.5 547,-75.5 547,-56.5 493,-56.5"/>
<text text-anchor="middle" x="520" y="-63.5" font-family="Helvetica,sans-Serif" font-size="10.00">iostream</text>
</g>
<!-- Node5&#45;&gt;Node15 -->
<g id="edge22" class="edge"><title>Node5&#45;&gt;Node15</title>
<path fill="none" stroke="midnightblue" d="M630.619,-180.481C605.186,-174.092 575.846,-163.03 555,-144 538.008,-128.488 528.705,-103.121 524.044,-85.7725"/>
<polygon fill="midnightblue" stroke="midnightblue" points="527.365,-84.6143 521.617,-75.7141 520.56,-86.2561 527.365,-84.6143"/>
</g>
<!-- Node5&#45;&gt;Node16 -->
<g id="edge23" class="edge"><title>Node5&#45;&gt;Node16</title>
<path fill="none" stroke="midnightblue" d="M628.211,-183.213C587.458,-177.361 531.739,-165.912 487,-144 455.456,-128.55 425.181,-100.626 407.868,-82.9886"/>
<polygon fill="midnightblue" stroke="midnightblue" points="410.316,-80.4843 400.867,-75.6908 405.264,-85.3302 410.316,-80.4843"/>
</g>
<!-- Node8 -->
<g id="node8" class="node"><title>Node8</title>
<polygon fill="white" stroke="#bfbfbf" points="43.5,-0.5 43.5,-19.5 92.5,-19.5 92.5,-0.5 43.5,-0.5"/>
<text text-anchor="middle" x="68" y="-7.5" font-family="Helvetica,sans-Serif" font-size="10.00">cstddef</text>
</g>
<!-- Node7&#45;&gt;Node8 -->
<g id="edge7" class="edge"><title>Node7&#45;&gt;Node8</title>
<path fill="none" stroke="midnightblue" d="M104.734,-56.083C98.4552,-48.3768 89.2124,-37.0333 81.5692,-27.6531"/>
<polygon fill="midnightblue" stroke="midnightblue" points="84.1606,-25.2926 75.1305,-19.7511 78.7339,-29.7143 84.1606,-25.2926"/>
</g>
<!-- Node9 -->
<g id="node9" class="node"><title>Node9</title>
<polygon fill="white" stroke="#bfbfbf" points="111,-0.5 111,-19.5 203,-19.5 203,-0.5 111,-0.5"/>
<text text-anchor="middle" x="157" y="-7.5" font-family="Helvetica,sans-Serif" font-size="10.00">boost/cstdint.hpp</text>
</g>
<!-- Node7&#45;&gt;Node9 -->
<g id="edge8" class="edge"><title>Node7&#45;&gt;Node9</title>
<path fill="none" stroke="midnightblue" d="M119.431,-56.083C125.853,-48.3768 135.306,-37.0333 143.122,-27.6531"/>
<polygon fill="midnightblue" stroke="midnightblue" points="145.994,-29.674 149.707,-19.7511 140.617,-25.1927 145.994,-29.674"/>
</g>
<!-- Node11 -->
<g id="node11" class="node"><title>Node11</title>
<polygon fill="white" stroke="#bfbfbf" points="819.5,-56.5 819.5,-75.5 892.5,-75.5 892.5,-56.5 819.5,-56.5"/>
<text text-anchor="middle" x="856" y="-63.5" font-family="Helvetica,sans-Serif" font-size="10.00">Eigen/Dense</text>
</g>
<!-- Node10&#45;&gt;Node11 -->
<g id="edge10" class="edge"><title>Node10&#45;&gt;Node11</title>
<path fill="none" stroke="midnightblue" d="M856,-112.781C856,-104.781 856,-94.6887 856,-86.0168"/>
<polygon fill="midnightblue" stroke="midnightblue" points="859.5,-85.7305 856,-75.7305 852.5,-85.7306 859.5,-85.7305"/>
</g>
<!-- Node12 -->
<g id="node12" class="node"><title>Node12</title>
<polygon fill="white" stroke="#bfbfbf" points="910.5,-56.5 910.5,-75.5 997.5,-75.5 997.5,-56.5 910.5,-56.5"/>
<text text-anchor="middle" x="954" y="-63.5" font-family="Helvetica,sans-Serif" font-size="10.00">Eigen/Geometry</text>
</g>
<!-- Node10&#45;&gt;Node12 -->
<g id="edge11" class="edge"><title>Node10&#45;&gt;Node12</title>
<path fill="none" stroke="midnightblue" d="M879.225,-112.781C895.028,-103.105 915.832,-90.3684 931.483,-80.7861"/>
<polygon fill="midnightblue" stroke="midnightblue" points="933.325,-83.7623 940.026,-75.5557 929.67,-77.7923 933.325,-83.7623"/>
</g>
<!-- Node13&#45;&gt;Node6 -->
<g id="edge13" class="edge"><title>Node13&#45;&gt;Node6</title>
<path fill="none" stroke="midnightblue" d="M641.196,-118.403C662.509,-108.334 698.031,-91.5522 722.663,-79.9151"/>
<polygon fill="midnightblue" stroke="midnightblue" points="724.291,-83.0169 731.838,-75.5806 721.301,-76.6877 724.291,-83.0169"/>
</g>
<!-- Node13&#45;&gt;Node7 -->
<g id="edge14" class="edge"><title>Node13&#45;&gt;Node7</title>
<path fill="none" stroke="midnightblue" d="M563.883,-120.059C466.828,-108.663 274.574,-86.0889 175.028,-74.4005"/>
<polygon fill="midnightblue" stroke="midnightblue" points="175.156,-70.8916 164.816,-73.2015 174.339,-77.8438 175.156,-70.8916"/>
</g>
<!-- Node13&#45;&gt;Node11 -->
<g id="edge15" class="edge"><title>Node13&#45;&gt;Node11</title>
<path fill="none" stroke="midnightblue" d="M656.383,-118.403C697.562,-107.799 767.65,-89.7511 812.869,-78.1067"/>
<polygon fill="midnightblue" stroke="midnightblue" points="813.867,-81.4638 822.679,-75.5806 812.122,-74.685 813.867,-81.4638"/>
</g>
<!-- Node13&#45;&gt;Node12 -->
<g id="edge16" class="edge"><title>Node13&#45;&gt;Node12</title>
<path fill="none" stroke="midnightblue" d="M670.073,-118.467C730.894,-107.442 836.528,-88.2941 900.38,-76.7196"/>
<polygon fill="midnightblue" stroke="midnightblue" points="901.041,-80.157 910.256,-74.9294 899.792,-73.2693 901.041,-80.157"/>
</g>
<!-- Node13&#45;&gt;Node14 -->
<g id="edge17" class="edge"><title>Node13&#45;&gt;Node14</title>
<path fill="none" stroke="midnightblue" d="M598.643,-118.403C568.69,-107.832 517.774,-89.8614 484.772,-78.2136"/>
<polygon fill="midnightblue" stroke="midnightblue" points="485.743,-74.8448 475.148,-74.817 483.413,-81.4458 485.743,-74.8448"/>
</g>
<!-- Node13&#45;&gt;Node15 -->
<g id="edge18" class="edge"><title>Node13&#45;&gt;Node15</title>
<path fill="none" stroke="midnightblue" d="M608.243,-118.403C591.339,-108.557 563.417,-92.2915 543.51,-80.6949"/>
<polygon fill="midnightblue" stroke="midnightblue" points="545.133,-77.5898 534.73,-75.5806 541.609,-83.6384 545.133,-77.5898"/>
</g>
<!-- Node13&#45;&gt;Node16 -->
<g id="edge19" class="edge"><title>Node13&#45;&gt;Node16</title>
<path fill="none" stroke="midnightblue" d="M586.903,-118.445C548.524,-109.216 485.848,-93.7652 422.93,-76.1582"/>
<polygon fill="midnightblue" stroke="midnightblue" points="423.816,-72.7716 413.241,-73.4301 421.918,-79.5096 423.816,-72.7716"/>
</g>
<!-- Node17 -->
<g id="node17" class="node"><title>Node17</title>
<g id="a_node17"><a xlink:href="a00336.html" target="_top" xlink:title="hpp/fcl/eigen/product.h">
<polygon fill="white" stroke="black" points="565,-56.5 565,-75.5 681,-75.5 681,-56.5 565,-56.5"/>
<text text-anchor="middle" x="623" y="-63.5" font-family="Helvetica,sans-Serif" font-size="10.00">hpp/fcl/eigen/product.h</text>
</a>
</g>
</g>
<!-- Node13&#45;&gt;Node17 -->
<g id="edge20" class="edge"><title>Node13&#45;&gt;Node17</title>
<path fill="none" stroke="midnightblue" d="M623,-118.403C623,-109.938 623,-96.7283 623,-85.8199"/>
<polygon fill="midnightblue" stroke="midnightblue" points="626.5,-85.5806 623,-75.5806 619.5,-85.5806 626.5,-85.5806"/>
</g>
<!-- Node24&#45;&gt;Node7 -->
<g id="edge33" class="edge"><title>Node24&#45;&gt;Node7</title>
<path fill="none" stroke="midnightblue" d="M451.831,-644.534C334.338,-637.11 38,-609.963 38,-525 38,-525 38,-525 38,-189 38,-145.536 72.7595,-104.343 94.6328,-82.7243"/>
<polygon fill="midnightblue" stroke="midnightblue" points="97.2003,-85.1121 102.02,-75.6771 92.3684,-80.0472 97.2003,-85.1121"/>
</g>
<!-- Node24&#45;&gt;Node20 -->
<g id="edge68" class="edge"><title>Node24&#45;&gt;Node20</title>
<path fill="none" stroke="midnightblue" d="M497.121,-632.719C492.675,-598.932 481.51,-514.075 476.5,-476.004"/>
<polygon fill="midnightblue" stroke="midnightblue" points="479.932,-475.257 475.158,-465.799 472.992,-476.17 479.932,-475.257"/>
</g>
<!-- Node24&#45;&gt;Node22 -->
<g id="edge67" class="edge"><title>Node24&#45;&gt;Node22</title>
<path fill="none" stroke="midnightblue" d="M501.129,-632.75C502.544,-622.544 504.27,-608.46 505,-596 505.52,-587.126 505.033,-584.889 505,-576 504.778,-515.554 510.885,-500.053 504,-440 496.816,-377.333 477.241,-304.935 467.565,-271.581"/>
<polygon fill="midnightblue" stroke="midnightblue" points="470.878,-270.441 464.696,-261.837 464.163,-272.419 470.878,-270.441"/>
</g>
<!-- Node25 -->
<g id="node25" class="node"><title>Node25</title>
<g id="a_node25"><a xlink:href="a00280.html" target="_top" xlink:title="hpp/fcl/collision_object.h">
<polygon fill="white" stroke="black" points="793,-576.5 793,-595.5 917,-595.5 917,-576.5 793,-576.5"/>
<text text-anchor="middle" x="855" y="-583.5" font-family="Helvetica,sans-Serif" font-size="10.00">hpp/fcl/collision_object.h</text>
</a>
</g>
</g>
<!-- Node24&#45;&gt;Node25 -->
<g id="edge34" class="edge"><title>Node24&#45;&gt;Node25</title>
<path fill="none" stroke="midnightblue" d="M546.274,-639.032C610.181,-628.262 724.191,-609.046 794.344,-597.223"/>
<polygon fill="midnightblue" stroke="midnightblue" points="795.086,-600.647 804.365,-595.534 793.923,-593.745 795.086,-600.647"/>
</g>
<!-- Node25&#45;&gt;Node3 -->
<g id="edge39" class="edge"><title>Node25&#45;&gt;Node3</title>
<path fill="none" stroke="midnightblue" d="M917.296,-576.76C939.583,-570.472 962.505,-559.416 976,-540 989.141,-521.092 985.103,-493.461 980.208,-475.357"/>
<polygon fill="midnightblue" stroke="midnightblue" points="983.532,-474.257 977.274,-465.708 976.835,-476.294 983.532,-474.257"/>
</g>
<!-- Node25&#45;&gt;Node22 -->
<g id="edge66" class="edge"><title>Node25&#45;&gt;Node22</title>
<path fill="none" stroke="midnightblue" d="M823.965,-576.477C799.709,-569.007 765.739,-556.722 739,-540 625.943,-469.297 606.166,-436.911 519,-336 500.851,-314.989 483.281,-288.101 472.558,-270.716"/>
<polygon fill="midnightblue" stroke="midnightblue" points="475.264,-268.427 467.083,-261.694 469.279,-272.059 475.264,-268.427"/>
</g>
<!-- Node26 -->
<g id="node26" class="node"><title>Node26</title>
<g id="a_node26"><a xlink:href="a00284.html" target="_top" xlink:title="hpp/fcl/deprecated.h">
<polygon fill="white" stroke="black" points="862.5,-514.5 862.5,-533.5 967.5,-533.5 967.5,-514.5 862.5,-514.5"/>
<text text-anchor="middle" x="915" y="-521.5" font-family="Helvetica,sans-Serif" font-size="10.00">hpp/fcl/deprecated.h</text>
</a>
</g>
</g>
<!-- Node25&#45;&gt;Node26 -->
<g id="edge35" class="edge"><title>Node25&#45;&gt;Node26</title>
<path fill="none" stroke="midnightblue" d="M863.597,-576.403C872.864,-567.136 887.817,-552.183 899.212,-540.788"/>
<polygon fill="midnightblue" stroke="midnightblue" points="901.823,-543.127 906.419,-533.581 896.873,-538.177 901.823,-543.127"/>
</g>
<!-- Node27 -->
<g id="node27" class="node"><title>Node27</title>
<g id="a_node27"><a xlink:href="a00257.html" target="_top" xlink:title="hpp/fcl/BV/AABB.h">
<polygon fill="white" stroke="black" points="1353.5,-446.5 1353.5,-465.5 1454.5,-465.5 1454.5,-446.5 1353.5,-446.5"/>
<text text-anchor="middle" x="1404" y="-453.5" font-family="Helvetica,sans-Serif" font-size="10.00">hpp/fcl/BV/AABB.h</text>
</a>
</g>
</g>
<!-- Node25&#45;&gt;Node27 -->
<g id="edge36" class="edge"><title>Node25&#45;&gt;Node27</title>
<path fill="none" stroke="midnightblue" d="M891.874,-576.403C988.761,-553.813 1250.41,-492.81 1357.42,-467.859"/>
<polygon fill="midnightblue" stroke="midnightblue" points="1358.34,-471.239 1367.29,-465.56 1356.75,-464.422 1358.34,-471.239"/>
</g>
<!-- Node29 -->
<g id="node29" class="node"><title>Node29</title>
<g id="a_node29"><a xlink:href="a00325.html" target="_top" xlink:title="hpp/fcl/ccd/motion\l_base.h">
<polygon fill="white" stroke="black" points="747.5,-509 747.5,-539 844.5,-539 844.5,-509 747.5,-509"/>
<text text-anchor="start" x="755.5" y="-527" font-family="Helvetica,sans-Serif" font-size="10.00">hpp/fcl/ccd/motion</text>
<text text-anchor="middle" x="796" y="-516" font-family="Helvetica,sans-Serif" font-size="10.00">_base.h</text>
</a>
</g>
</g>
<!-- Node25&#45;&gt;Node29 -->
<g id="edge40" class="edge"><title>Node25&#45;&gt;Node29</title>
<path fill="none" stroke="midnightblue" d="M846.547,-576.403C838.855,-568.581 827.179,-556.708 816.987,-546.342"/>
<polygon fill="midnightblue" stroke="midnightblue" points="819.412,-543.817 809.905,-539.141 814.421,-548.725 819.412,-543.817"/>
</g>
<!-- Node27&#45;&gt;Node5 -->
<g id="edge38" class="edge"><title>Node27&#45;&gt;Node5</title>
<path fill="none" stroke="midnightblue" d="M1408.28,-446.39C1415.59,-430.31 1428.3,-395.244 1413,-372 1328.93,-244.289 1244.86,-274.934 1097,-236 977.271,-204.473 832.414,-194.993 749.96,-192.169"/>
<polygon fill="midnightblue" stroke="midnightblue" points="749.837,-188.663 739.73,-191.842 749.613,-195.66 749.837,-188.663"/>
</g>
<!-- Node27&#45;&gt;Node28 -->
<g id="edge37" class="edge"><title>Node27&#45;&gt;Node28</title>
<path fill="none" stroke="midnightblue" d="M1400.21,-446.372C1395.85,-436.446 1388.57,-419.874 1382.95,-407.086"/>
<polygon fill="midnightblue" stroke="midnightblue" points="1386.11,-405.588 1378.88,-397.841 1379.7,-408.404 1386.11,-405.588"/>
</g>
<!-- Node29&#45;&gt;Node3 -->
<g id="edge41" class="edge"><title>Node29&#45;&gt;Node3</title>
<path fill="none" stroke="midnightblue" d="M834.185,-508.841C866.032,-497.033 910.934,-480.384 941.184,-469.168"/>
<polygon fill="midnightblue" stroke="midnightblue" points="942.682,-472.345 950.842,-465.587 940.249,-465.782 942.682,-472.345"/>
</g>
<!-- Node30 -->
<g id="node30" class="node"><title>Node30</title>
<g id="a_node30"><a xlink:href="a00343.html" target="_top" xlink:title="hpp/fcl/ccd/taylor\l_matrix.h">
<polygon fill="white" stroke="black" points="781,-441 781,-471 873,-471 873,-441 781,-441"/>
<text text-anchor="start" x="789" y="-459" font-family="Helvetica,sans-Serif" font-size="10.00">hpp/fcl/ccd/taylor</text>
<text text-anchor="middle" x="827" y="-448" font-family="Helvetica,sans-Serif" font-size="10.00">_matrix.h</text>
</a>
</g>
</g>
<!-- Node29&#45;&gt;Node30 -->
<g id="edge42" class="edge"><title>Node29&#45;&gt;Node30</title>
<path fill="none" stroke="midnightblue" d="M802.727,-508.679C806.586,-500.463 811.527,-489.943 815.943,-480.542"/>
<polygon fill="midnightblue" stroke="midnightblue" points="819.203,-481.832 820.287,-471.293 812.867,-478.856 819.203,-481.832"/>
</g>
<!-- Node31 -->
<g id="node31" class="node"><title>Node31</title>
<g id="a_node31"><a xlink:href="a00346.html" target="_top" xlink:title="hpp/fcl/ccd/taylor\l_vector.h">
<polygon fill="white" stroke="black" points="680,-373 680,-403 772,-403 772,-373 680,-373"/>
<text text-anchor="start" x="688" y="-391" font-family="Helvetica,sans-Serif" font-size="10.00">hpp/fcl/ccd/taylor</text>
<text text-anchor="middle" x="726" y="-380" font-family="Helvetica,sans-Serif" font-size="10.00">_vector.h</text>
</a>
</g>
</g>
<!-- Node29&#45;&gt;Node31 -->
<g id="edge60" class="edge"><title>Node29&#45;&gt;Node31</title>
<path fill="none" stroke="midnightblue" d="M788.509,-508.66C776.457,-485.589 752.649,-440.013 738.145,-412.249"/>
<polygon fill="midnightblue" stroke="midnightblue" points="741.17,-410.48 733.437,-403.237 734.965,-413.721 741.17,-410.48"/>
</g>
<!-- Node38 -->
<g id="node38" class="node"><title>Node38</title>
<g id="a_node38"><a xlink:href="a00338.html" target="_top" xlink:title="hpp/fcl/BV/RSS.h">
<polygon fill="white" stroke="black" points="1201.5,-446.5 1201.5,-465.5 1296.5,-465.5 1296.5,-446.5 1201.5,-446.5"/>
<text text-anchor="middle" x="1249" y="-453.5" font-family="Helvetica,sans-Serif" font-size="10.00">hpp/fcl/BV/RSS.h</text>
</a>
</g>
</g>
<!-- Node29&#45;&gt;Node38 -->
<g id="edge61" class="edge"><title>Node29&#45;&gt;Node38</title>
<path fill="none" stroke="midnightblue" d="M844.722,-509.736C847.515,-509.113 850.288,-508.529 853,-508 972.317,-484.718 1114,-469.401 1191.41,-462.062"/>
<polygon fill="midnightblue" stroke="midnightblue" points="1191.81,-465.54 1201.44,-461.121 1191.16,-458.57 1191.81,-465.54"/>
</g>
<!-- Node30&#45;&gt;Node4 -->
<g id="edge43" class="edge"><title>Node30&#45;&gt;Node4</title>
<path fill="none" stroke="midnightblue" d="M853.533,-440.984C868.295,-432.062 886.045,-419.312 898,-404 929.314,-363.895 939.921,-302.722 943.391,-272.002"/>
<polygon fill="midnightblue" stroke="midnightblue" points="946.896,-272.123 944.4,-261.827 939.931,-271.433 946.896,-272.123"/>
</g>
<!-- Node30&#45;&gt;Node31 -->
<g id="edge44" class="edge"><title>Node30&#45;&gt;Node31</title>
<path fill="none" stroke="midnightblue" d="M805.085,-440.679C790.693,-431.274 771.682,-418.852 755.907,-408.543"/>
<polygon fill="midnightblue" stroke="midnightblue" points="757.812,-405.607 747.526,-403.066 753.982,-411.467 757.812,-405.607"/>
</g>
<!-- Node37 -->
<g id="node37" class="node"><title>Node37</title>
<g id="a_node37"><a xlink:href="a00307.html" target="_top" xlink:title="hpp/fcl/ccd/interval\l_matrix.h">
<polygon fill="white" stroke="black" points="790.5,-373 790.5,-403 889.5,-403 889.5,-373 790.5,-373"/>
<text text-anchor="start" x="798.5" y="-391" font-family="Helvetica,sans-Serif" font-size="10.00">hpp/fcl/ccd/interval</text>
<text text-anchor="middle" x="840" y="-380" font-family="Helvetica,sans-Serif" font-size="10.00">_matrix.h</text>
</a>
</g>
</g>
<!-- Node30&#45;&gt;Node37 -->
<g id="edge56" class="edge"><title>Node30&#45;&gt;Node37</title>
<path fill="none" stroke="midnightblue" d="M829.821,-440.679C831.405,-432.636 833.424,-422.385 835.246,-413.137"/>
<polygon fill="midnightblue" stroke="midnightblue" points="838.686,-413.781 837.185,-403.293 831.818,-412.428 838.686,-413.781"/>
</g>
<!-- Node32 -->
<g id="node32" class="node"><title>Node32</title>
<g id="a_node32"><a xlink:href="a00309.html" target="_top" xlink:title="hpp/fcl/ccd/interval\l_vector.h">
<polygon fill="white" stroke="black" points="676.5,-305 676.5,-335 775.5,-335 775.5,-305 676.5,-305"/>
<text text-anchor="start" x="684.5" y="-323" font-family="Helvetica,sans-Serif" font-size="10.00">hpp/fcl/ccd/interval</text>
<text text-anchor="middle" x="726" y="-312" font-family="Helvetica,sans-Serif" font-size="10.00">_vector.h</text>
</a>
</g>
</g>
<!-- Node31&#45;&gt;Node32 -->
<g id="edge45" class="edge"><title>Node31&#45;&gt;Node32</title>
<path fill="none" stroke="midnightblue" d="M726,-372.679C726,-364.722 726,-354.605 726,-345.436"/>
<polygon fill="midnightblue" stroke="midnightblue" points="729.5,-345.293 726,-335.293 722.5,-345.293 729.5,-345.293"/>
</g>
<!-- Node35 -->
<g id="node35" class="node"><title>Node35</title>
<g id="a_node35"><a xlink:href="a00344.html" target="_top" xlink:title="hpp/fcl/ccd/taylor\l_model.h">
<polygon fill="white" stroke="black" points="528,-305 528,-335 620,-335 620,-305 528,-305"/>
<text text-anchor="start" x="536" y="-323" font-family="Helvetica,sans-Serif" font-size="10.00">hpp/fcl/ccd/taylor</text>
<text text-anchor="middle" x="574" y="-312" font-family="Helvetica,sans-Serif" font-size="10.00">_model.h</text>
</a>
</g>
</g>
<!-- Node31&#45;&gt;Node35 -->
<g id="edge50" class="edge"><title>Node31&#45;&gt;Node35</title>
<path fill="none" stroke="midnightblue" d="M693.392,-372.841C670.674,-362.977 640.178,-349.735 615.693,-339.104"/>
<polygon fill="midnightblue" stroke="midnightblue" points="616.859,-335.794 606.293,-335.022 614.071,-342.215 616.859,-335.794"/>
</g>
<!-- Node36 -->
<g id="node36" class="node"><title>Node36</title>
<g id="a_node36"><a xlink:href="a00345.html" target="_top" xlink:title="hpp/fcl/eigen/taylor\l_operator.h">
<polygon fill="white" stroke="black" points="793.5,-305 793.5,-335 892.5,-335 892.5,-305 793.5,-305"/>
<text text-anchor="start" x="801.5" y="-323" font-family="Helvetica,sans-Serif" font-size="10.00">hpp/fcl/eigen/taylor</text>
<text text-anchor="middle" x="843" y="-312" font-family="Helvetica,sans-Serif" font-size="10.00">_operator.h</text>
</a>
</g>
</g>
<!-- Node31&#45;&gt;Node36 -->
<g id="edge53" class="edge"><title>Node31&#45;&gt;Node36</title>
<path fill="none" stroke="midnightblue" d="M751.099,-372.841C768.064,-363.272 790.665,-350.523 809.208,-340.062"/>
<polygon fill="midnightblue" stroke="midnightblue" points="810.952,-343.097 817.942,-335.135 807.513,-337 810.952,-343.097"/>
</g>
<!-- Node32&#45;&gt;Node5 -->
<g id="edge48" class="edge"><title>Node32&#45;&gt;Node5</title>
<path fill="none" stroke="midnightblue" d="M716.608,-304.855C710.434,-294.93 702.661,-281.137 698,-268 691.199,-248.835 687.565,-225.759 685.72,-209.897"/>
<polygon fill="midnightblue" stroke="midnightblue" points="689.184,-209.367 684.672,-199.781 682.221,-210.088 689.184,-209.367"/>
</g>
<!-- Node33 -->
<g id="node33" class="node"><title>Node33</title>
<g id="a_node33"><a xlink:href="a00306.html" target="_top" xlink:title="hpp/fcl/ccd/interval.h">
<polygon fill="white" stroke="black" points="539.5,-242.5 539.5,-261.5 646.5,-261.5 646.5,-242.5 539.5,-242.5"/>
<text text-anchor="middle" x="593" y="-249.5" font-family="Helvetica,sans-Serif" font-size="10.00">hpp/fcl/ccd/interval.h</text>
</a>
</g>
</g>
<!-- Node32&#45;&gt;Node33 -->
<g id="edge46" class="edge"><title>Node32&#45;&gt;Node33</title>
<path fill="none" stroke="midnightblue" d="M697.468,-304.841C674.36,-293.374 642.053,-277.342 619.506,-266.153"/>
<polygon fill="midnightblue" stroke="midnightblue" points="621.009,-262.992 610.495,-261.682 617.897,-269.262 621.009,-262.992"/>
</g>
<!-- Node34 -->
<g id="node34" class="node"><title>Node34</title>
<g id="a_node34"><a xlink:href="a00305.html" target="_top" xlink:title="hpp/fcl/eigen/plugins\l/ccd/interval&#45;vector.h">
<polygon fill="white" stroke="black" points="707,-237 707,-267 815,-267 815,-237 707,-237"/>
<text text-anchor="start" x="715" y="-255" font-family="Helvetica,sans-Serif" font-size="10.00">hpp/fcl/eigen/plugins</text>
<text text-anchor="middle" x="761" y="-244" font-family="Helvetica,sans-Serif" font-size="10.00">/ccd/interval&#45;vector.h</text>
</a>
</g>
</g>
<!-- Node32&#45;&gt;Node34 -->
<g id="edge49" class="edge"><title>Node32&#45;&gt;Node34</title>
<path fill="none" stroke="midnightblue" d="M733.594,-304.679C737.997,-296.376 743.648,-285.721 748.673,-276.245"/>
<polygon fill="midnightblue" stroke="midnightblue" points="751.827,-277.767 753.42,-267.293 745.643,-274.488 751.827,-277.767"/>
</g>
<!-- Node33&#45;&gt;Node7 -->
<g id="edge47" class="edge"><title>Node33&#45;&gt;Node7</title>
<path fill="none" stroke="midnightblue" d="M568.479,-242.464C517.867,-224.759 398.263,-182.481 299,-144 243.044,-122.308 178.444,-95.2555 141.688,-79.6714"/>
<polygon fill="midnightblue" stroke="midnightblue" points="142.663,-76.2826 132.09,-75.594 139.926,-82.7254 142.663,-76.2826"/>
</g>
<!-- Node35&#45;&gt;Node22 -->
<g id="edge52" class="edge"><title>Node35&#45;&gt;Node22</title>
<path fill="none" stroke="midnightblue" d="M549.973,-304.841C530.948,-293.63 504.519,-278.056 485.604,-266.91"/>
<polygon fill="midnightblue" stroke="midnightblue" points="487.125,-263.743 476.733,-261.682 483.571,-269.774 487.125,-263.743"/>
</g>
<!-- Node35&#45;&gt;Node33 -->
<g id="edge51" class="edge"><title>Node35&#45;&gt;Node33</title>
<path fill="none" stroke="midnightblue" d="M578.123,-304.679C580.909,-294.999 584.616,-282.123 587.633,-271.645"/>
<polygon fill="midnightblue" stroke="midnightblue" points="591.055,-272.406 590.459,-261.828 584.329,-270.47 591.055,-272.406"/>
</g>
<!-- Node36&#45;&gt;Node4 -->
<g id="edge55" class="edge"><title>Node36&#45;&gt;Node4</title>
<path fill="none" stroke="midnightblue" d="M864.882,-304.841C881.971,-293.784 905.62,-278.481 922.792,-267.37"/>
<polygon fill="midnightblue" stroke="midnightblue" points="925.088,-270.053 931.583,-261.682 921.285,-264.176 925.088,-270.053"/>
</g>
<!-- Node36&#45;&gt;Node5 -->
<g id="edge54" class="edge"><title>Node36&#45;&gt;Node5</title>
<path fill="none" stroke="midnightblue" d="M843.753,-304.742C843.918,-286.485 841.39,-254.953 824,-236 804.869,-215.149 776.059,-203.918 749.539,-197.885"/>
<polygon fill="midnightblue" stroke="midnightblue" points="750.012,-194.409 739.512,-195.819 748.599,-201.265 750.012,-194.409"/>
</g>
<!-- Node37&#45;&gt;Node4 -->
<g id="edge59" class="edge"><title>Node37&#45;&gt;Node4</title>
<path fill="none" stroke="midnightblue" d="M860.709,-372.872C873.429,-363.473 889.442,-350.265 901,-336 917.24,-315.957 930.209,-288.996 937.749,-271.317"/>
<polygon fill="midnightblue" stroke="midnightblue" points="941.157,-272.234 941.723,-261.654 934.683,-269.571 941.157,-272.234"/>
</g>
<!-- Node37&#45;&gt;Node32 -->
<g id="edge58" class="edge"><title>Node37&#45;&gt;Node32</title>
<path fill="none" stroke="midnightblue" d="M815.544,-372.841C799.165,-363.359 777.393,-350.754 759.42,-340.348"/>
<polygon fill="midnightblue" stroke="midnightblue" points="760.823,-337.117 750.415,-335.135 757.316,-343.175 760.823,-337.117"/>
</g>
<!-- Node37&#45;&gt;Node33 -->
<g id="edge57" class="edge"><title>Node37&#45;&gt;Node33</title>
<path fill="none" stroke="midnightblue" d="M790.168,-373.81C742.92,-361.063 677.614,-342.724 667,-336 639.934,-318.855 616.861,-289.057 603.979,-270.217"/>
<polygon fill="midnightblue" stroke="midnightblue" points="606.791,-268.125 598.352,-261.72 600.955,-271.99 606.791,-268.125"/>
</g>
<!-- Node38&#45;&gt;Node4 -->
<g id="edge64" class="edge"><title>Node38&#45;&gt;Node4</title>
<path fill="none" stroke="midnightblue" d="M1253.53,-446.331C1261.29,-430.154 1274.83,-394.932 1259,-372 1204.67,-293.306 1091.04,-266.602 1016.42,-257.571"/>
<polygon fill="midnightblue" stroke="midnightblue" points="1016.49,-254.057 1006.16,-256.41 1015.7,-261.012 1016.49,-254.057"/>
</g>
<!-- Node38&#45;&gt;Node5 -->
<g id="edge63" class="edge"><title>Node38&#45;&gt;Node5</title>
<path fill="none" stroke="midnightblue" d="M1255.99,-446.212C1267.21,-430.992 1287,-398.784 1277,-372 1263,-334.515 1251.25,-326.251 1218,-304 1138.92,-251.087 1107.66,-257.616 1015,-236 924.213,-214.822 816.932,-202.497 749.666,-196.258"/>
<polygon fill="midnightblue" stroke="midnightblue" points="749.907,-192.765 739.631,-195.345 749.273,-199.737 749.907,-192.765"/>
</g>
<!-- Node38&#45;&gt;Node28 -->
<g id="edge62" class="edge"><title>Node38&#45;&gt;Node28</title>
<path fill="none" stroke="midnightblue" d="M1265.47,-446.372C1286.88,-435.156 1324.5,-415.453 1349.58,-402.314"/>
<polygon fill="midnightblue" stroke="midnightblue" points="1351.29,-405.371 1358.52,-397.63 1348.04,-399.17 1351.29,-405.371"/>
</g>
<!-- Node39 -->
<g id="node39" class="node"><title>Node39</title>
<polygon fill="white" stroke="#bfbfbf" points="1139.5,-373 1139.5,-403 1250.5,-403 1250.5,-373 1139.5,-373"/>
<text text-anchor="start" x="1147.5" y="-391" font-family="Helvetica,sans-Serif" font-size="10.00">boost/math/constants</text>
<text text-anchor="middle" x="1195" y="-380" font-family="Helvetica,sans-Serif" font-size="10.00">/constants.hpp</text>
</g>
<!-- Node38&#45;&gt;Node39 -->
<g id="edge65" class="edge"><title>Node38&#45;&gt;Node39</title>
<path fill="none" stroke="midnightblue" d="M1241.94,-446.372C1234.65,-437.457 1222.97,-423.182 1213.08,-411.101"/>
<polygon fill="midnightblue" stroke="midnightblue" points="1215.64,-408.705 1206.6,-403.181 1210.23,-413.137 1215.64,-408.705"/>
</g>
</g>
</svg>
