<?xml version="1.0" encoding="UTF-8" standalone="no"?>
<!DOCTYPE svg PUBLIC "-//W3C//DTD SVG 1.1//EN"
 "http://www.w3.org/Graphics/SVG/1.1/DTD/svg11.dtd">
<!-- Generated by graphviz version 2.36.0 (20140111.2315)
 -->
<!-- Title: continuous_collision.h Pages: 1 -->
<svg width="1291pt" height="728pt"
 viewBox="0.00 0.00 1291.30 728.00" xmlns="http://www.w3.org/2000/svg" xmlns:xlink="http://www.w3.org/1999/xlink">
<g id="graph0" class="graph" transform="scale(1 1) rotate(0) translate(4 724)">
<title>continuous_collision.h</title>
<polygon fill="white" stroke="none" points="-4,4 -4,-724 1287.3,-724 1287.3,4 -4,4"/>
<!-- Node1 -->
<g id="node1" class="node"><title>Node1</title>
<polygon fill="#bfbfbf" stroke="black" points="438.802,-700.5 438.802,-719.5 551.802,-719.5 551.802,-700.5 438.802,-700.5"/>
<text text-anchor="middle" x="495.302" y="-707.5" font-family="Helvetica,sans-Serif" font-size="10.00">continuous_collision.h</text>
</g>
<!-- Node2 -->
<g id="node2" class="node"><title>Node2</title>
<g id="a_node2"><a xlink:href="a00356.html" target="_top" xlink:title="hpp/fcl/math/vec_3f.h">
<polygon fill="white" stroke="black" points="359.802,-180.5 359.802,-199.5 470.802,-199.5 470.802,-180.5 359.802,-180.5"/>
<text text-anchor="middle" x="415.302" y="-187.5" font-family="Helvetica,sans-Serif" font-size="10.00">hpp/fcl/math/vec_3f.h</text>
</a>
</g>
</g>
<!-- Node1&#45;&gt;Node2 -->
<g id="edge1" class="edge"><title>Node1&#45;&gt;Node2</title>
<path fill="none" stroke="midnightblue" d="M438.748,-707.548C309.253,-702.689 2.30157,-681.807 2.30157,-593 2.30157,-593 2.30157,-593 2.30157,-319 2.30157,-281.157 -6.90471,-261.229 21.3016,-236 45.2323,-214.595 243.484,-200.491 349.307,-194.414"/>
<polygon fill="midnightblue" stroke="midnightblue" points="349.775,-197.893 359.561,-193.833 349.379,-190.904 349.775,-197.893"/>
</g>
<!-- Node15 -->
<g id="node15" class="node"><title>Node15</title>
<g id="a_node15"><a xlink:href="a00280.html" target="_top" xlink:title="hpp/fcl/collision_object.h">
<polygon fill="white" stroke="black" points="433.302,-582.5 433.302,-601.5 557.302,-601.5 557.302,-582.5 433.302,-582.5"/>
<text text-anchor="middle" x="495.302" y="-589.5" font-family="Helvetica,sans-Serif" font-size="10.00">hpp/fcl/collision_object.h</text>
</a>
</g>
</g>
<!-- Node1&#45;&gt;Node15 -->
<g id="edge21" class="edge"><title>Node1&#45;&gt;Node15</title>
<path fill="none" stroke="midnightblue" d="M495.302,-700.281C495.302,-681.547 495.302,-637.098 495.302,-611.682"/>
<polygon fill="midnightblue" stroke="midnightblue" points="498.802,-611.505 495.302,-601.505 491.802,-611.505 498.802,-611.505"/>
</g>
<!-- Node34 -->
<g id="node34" class="node"><title>Node34</title>
<g id="a_node34"><a xlink:href="a00277.html" target="_top" xlink:title="hpp/fcl/collision_data.h">
<polygon fill="white" stroke="black" points="916.302,-644.5 916.302,-663.5 1032.3,-663.5 1032.3,-644.5 916.302,-644.5"/>
<text text-anchor="middle" x="974.302" y="-651.5" font-family="Helvetica,sans-Serif" font-size="10.00">hpp/fcl/collision_data.h</text>
</a>
</g>
</g>
<!-- Node1&#45;&gt;Node34 -->
<g id="edge57" class="edge"><title>Node1&#45;&gt;Node34</title>
<path fill="none" stroke="midnightblue" d="M552.13,-702.593C640.599,-692.62 810.94,-673.417 905.972,-662.703"/>
<polygon fill="midnightblue" stroke="midnightblue" points="906.508,-666.165 916.053,-661.567 905.724,-659.209 906.508,-666.165"/>
</g>
<!-- Node3 -->
<g id="node3" class="node"><title>Node3</title>
<polygon fill="white" stroke="#bfbfbf" points="71.3016,-56.5 71.3016,-75.5 173.302,-75.5 173.302,-56.5 71.3016,-56.5"/>
<text text-anchor="middle" x="122.302" y="-63.5" font-family="Helvetica,sans-Serif" font-size="10.00">hpp/fcl/config&#45;fcl.hh</text>
</g>
<!-- Node2&#45;&gt;Node3 -->
<g id="edge2" class="edge"><title>Node2&#45;&gt;Node3</title>
<path fill="none" stroke="midnightblue" d="M379.999,-180.448C349.37,-172.534 304.132,-159.646 266.302,-144 221.582,-125.504 172.474,-97.4378 144.714,-80.7883"/>
<polygon fill="midnightblue" stroke="midnightblue" points="146.523,-77.7921 136.155,-75.61 142.899,-83.7812 146.523,-77.7921"/>
</g>
<!-- Node4 -->
<g id="node4" class="node"><title>Node4</title>
<g id="a_node4"><a xlink:href="a00283.html" target="_top" xlink:title="hpp/fcl/data_types.h">
<polygon fill="white" stroke="black" points="656.802,-56.5 656.802,-75.5 761.802,-75.5 761.802,-56.5 656.802,-56.5"/>
<text text-anchor="middle" x="709.302" y="-63.5" font-family="Helvetica,sans-Serif" font-size="10.00">hpp/fcl/data_types.h</text>
</a>
</g>
</g>
<!-- Node2&#45;&gt;Node4 -->
<g id="edge3" class="edge"><title>Node2&#45;&gt;Node4</title>
<path fill="none" stroke="midnightblue" d="M455.145,-180.431C487.638,-172.789 534.362,-160.295 573.302,-144 615.879,-126.183 661.923,-98.0452 688.026,-81.1699"/>
<polygon fill="midnightblue" stroke="midnightblue" points="690.241,-83.9031 696.697,-75.5022 686.411,-78.0437 690.241,-83.9031"/>
</g>
<!-- Node7 -->
<g id="node7" class="node"><title>Node7</title>
<g id="a_node7"><a xlink:href="a00316.html" target="_top" xlink:title="hpp/fcl/eigen/math\l_details.h">
<polygon fill="white" stroke="black" points="274.802,-113 274.802,-143 371.802,-143 371.802,-113 274.802,-113"/>
<text text-anchor="start" x="282.802" y="-131" font-family="Helvetica,sans-Serif" font-size="10.00">hpp/fcl/eigen/math</text>
<text text-anchor="middle" x="323.302" y="-120" font-family="Helvetica,sans-Serif" font-size="10.00">_details.h</text>
</a>
</g>
</g>
<!-- Node2&#45;&gt;Node7 -->
<g id="edge6" class="edge"><title>Node2&#45;&gt;Node7</title>
<path fill="none" stroke="midnightblue" d="M402.12,-180.403C389.544,-172.201 370.138,-159.545 353.729,-148.844"/>
<polygon fill="midnightblue" stroke="midnightblue" points="355.272,-145.672 344.984,-143.141 351.448,-151.535 355.272,-145.672"/>
</g>
<!-- Node10 -->
<g id="node10" class="node"><title>Node10</title>
<g id="a_node10"><a xlink:href="a00357.html" target="_top" xlink:title="hpp/fcl/eigen/vec_3fx.h">
<polygon fill="white" stroke="black" points="390.302,-118.5 390.302,-137.5 508.302,-137.5 508.302,-118.5 390.302,-118.5"/>
<text text-anchor="middle" x="449.302" y="-125.5" font-family="Helvetica,sans-Serif" font-size="10.00">hpp/fcl/eigen/vec_3fx.h</text>
</a>
</g>
</g>
<!-- Node2&#45;&gt;Node10 -->
<g id="edge9" class="edge"><title>Node2&#45;&gt;Node10</title>
<path fill="none" stroke="midnightblue" d="M420.173,-180.403C425.172,-171.582 433.091,-157.608 439.411,-146.455"/>
<polygon fill="midnightblue" stroke="midnightblue" points="442.554,-148.006 444.439,-137.581 436.464,-144.555 442.554,-148.006"/>
</g>
<!-- Node11 -->
<g id="node11" class="node"><title>Node11</title>
<polygon fill="white" stroke="#bfbfbf" points="594.302,-56.5 594.302,-75.5 638.302,-75.5 638.302,-56.5 594.302,-56.5"/>
<text text-anchor="middle" x="616.302" y="-63.5" font-family="Helvetica,sans-Serif" font-size="10.00">cmath</text>
</g>
<!-- Node2&#45;&gt;Node11 -->
<g id="edge18" class="edge"><title>Node2&#45;&gt;Node11</title>
<path fill="none" stroke="midnightblue" d="M452.613,-180.477C478.82,-173.381 513.937,-161.57 541.302,-144 566.842,-127.601 590.203,-100.958 603.845,-83.7074"/>
<polygon fill="midnightblue" stroke="midnightblue" points="606.724,-85.7052 610.052,-75.6468 601.178,-81.4342 606.724,-85.7052"/>
</g>
<!-- Node12 -->
<g id="node12" class="node"><title>Node12</title>
<polygon fill="white" stroke="#bfbfbf" points="522.302,-56.5 522.302,-75.5 576.302,-75.5 576.302,-56.5 522.302,-56.5"/>
<text text-anchor="middle" x="549.302" y="-63.5" font-family="Helvetica,sans-Serif" font-size="10.00">iostream</text>
</g>
<!-- Node2&#45;&gt;Node12 -->
<g id="edge19" class="edge"><title>Node2&#45;&gt;Node12</title>
<path fill="none" stroke="midnightblue" d="M451.334,-180.407C472.872,-173.653 499.432,-162.26 517.302,-144 533.166,-127.789 541.598,-102.579 545.753,-85.4568"/>
<polygon fill="midnightblue" stroke="midnightblue" points="549.202,-86.0639 547.9,-75.5493 542.361,-84.5808 549.202,-86.0639"/>
</g>
<!-- Node13 -->
<g id="node13" class="node"><title>Node13</title>
<polygon fill="white" stroke="#bfbfbf" points="780.302,-56.5 780.302,-75.5 820.302,-75.5 820.302,-56.5 780.302,-56.5"/>
<text text-anchor="middle" x="800.302" y="-63.5" font-family="Helvetica,sans-Serif" font-size="10.00">limits</text>
</g>
<!-- Node2&#45;&gt;Node13 -->
<g id="edge20" class="edge"><title>Node2&#45;&gt;Node13</title>
<path fill="none" stroke="midnightblue" d="M465.613,-180.488C507.108,-172.842 567.237,-160.312 618.302,-144 675.359,-125.774 739.24,-96.595 774.1,-79.8795"/>
<polygon fill="midnightblue" stroke="midnightblue" points="775.652,-83.017 783.133,-75.5149 772.606,-76.7142 775.652,-83.017"/>
</g>
<!-- Node5 -->
<g id="node5" class="node"><title>Node5</title>
<polygon fill="white" stroke="#bfbfbf" points="640.802,-0.5 640.802,-19.5 689.802,-19.5 689.802,-0.5 640.802,-0.5"/>
<text text-anchor="middle" x="665.302" y="-7.5" font-family="Helvetica,sans-Serif" font-size="10.00">cstddef</text>
</g>
<!-- Node4&#45;&gt;Node5 -->
<g id="edge4" class="edge"><title>Node4&#45;&gt;Node5</title>
<path fill="none" stroke="midnightblue" d="M702.036,-56.083C695.757,-48.3768 686.514,-37.0333 678.871,-27.6531"/>
<polygon fill="midnightblue" stroke="midnightblue" points="681.462,-25.2926 672.432,-19.7511 676.036,-29.7143 681.462,-25.2926"/>
</g>
<!-- Node6 -->
<g id="node6" class="node"><title>Node6</title>
<polygon fill="white" stroke="#bfbfbf" points="708.302,-0.5 708.302,-19.5 800.302,-19.5 800.302,-0.5 708.302,-0.5"/>
<text text-anchor="middle" x="754.302" y="-7.5" font-family="Helvetica,sans-Serif" font-size="10.00">boost/cstdint.hpp</text>
</g>
<!-- Node4&#45;&gt;Node6 -->
<g id="edge5" class="edge"><title>Node4&#45;&gt;Node6</title>
<path fill="none" stroke="midnightblue" d="M716.732,-56.083C723.154,-48.3768 732.607,-37.0333 740.424,-27.6531"/>
<polygon fill="midnightblue" stroke="midnightblue" points="743.296,-29.674 747.009,-19.7511 737.918,-25.1927 743.296,-29.674"/>
</g>
<!-- Node8 -->
<g id="node8" class="node"><title>Node8</title>
<polygon fill="white" stroke="#bfbfbf" points="191.802,-56.5 191.802,-75.5 264.802,-75.5 264.802,-56.5 191.802,-56.5"/>
<text text-anchor="middle" x="228.302" y="-63.5" font-family="Helvetica,sans-Serif" font-size="10.00">Eigen/Dense</text>
</g>
<!-- Node7&#45;&gt;Node8 -->
<g id="edge7" class="edge"><title>Node7&#45;&gt;Node8</title>
<path fill="none" stroke="midnightblue" d="M300.788,-112.781C285.612,-103.196 265.678,-90.6062 250.556,-81.0555"/>
<polygon fill="midnightblue" stroke="midnightblue" points="252.172,-77.9365 241.848,-75.5557 248.434,-83.8549 252.172,-77.9365"/>
</g>
<!-- Node9 -->
<g id="node9" class="node"><title>Node9</title>
<polygon fill="white" stroke="#bfbfbf" points="282.802,-56.5 282.802,-75.5 369.802,-75.5 369.802,-56.5 282.802,-56.5"/>
<text text-anchor="middle" x="326.302" y="-63.5" font-family="Helvetica,sans-Serif" font-size="10.00">Eigen/Geometry</text>
</g>
<!-- Node7&#45;&gt;Node9 -->
<g id="edge8" class="edge"><title>Node7&#45;&gt;Node9</title>
<path fill="none" stroke="midnightblue" d="M324.013,-112.781C324.417,-104.691 324.928,-94.4617 325.365,-85.725"/>
<polygon fill="midnightblue" stroke="midnightblue" points="328.861,-85.8929 325.865,-75.7305 321.87,-85.5432 328.861,-85.8929"/>
</g>
<!-- Node10&#45;&gt;Node3 -->
<g id="edge10" class="edge"><title>Node10&#45;&gt;Node3</title>
<path fill="none" stroke="midnightblue" d="M411.399,-118.465C401.31,-116.274 390.407,-113.979 380.302,-112 313.162,-98.8528 235.816,-85.6144 183.456,-76.934"/>
<polygon fill="midnightblue" stroke="midnightblue" points="183.764,-73.4376 173.327,-75.26 182.623,-80.3439 183.764,-73.4376"/>
</g>
<!-- Node10&#45;&gt;Node4 -->
<g id="edge11" class="edge"><title>Node10&#45;&gt;Node4</title>
<path fill="none" stroke="midnightblue" d="M486.277,-118.467C532.577,-107.783 611.937,-89.4687 662.446,-77.8129"/>
<polygon fill="midnightblue" stroke="midnightblue" points="663.497,-81.1624 672.454,-75.5034 661.923,-74.3417 663.497,-81.1624"/>
</g>
<!-- Node10&#45;&gt;Node8 -->
<g id="edge12" class="edge"><title>Node10&#45;&gt;Node8</title>
<path fill="none" stroke="midnightblue" d="M417.638,-118.403C378.744,-107.844 312.66,-89.9027 269.753,-78.2538"/>
<polygon fill="midnightblue" stroke="midnightblue" points="270.474,-74.823 259.907,-75.5806 268.64,-81.5785 270.474,-74.823"/>
</g>
<!-- Node10&#45;&gt;Node9 -->
<g id="edge13" class="edge"><title>Node10&#45;&gt;Node9</title>
<path fill="none" stroke="midnightblue" d="M431.679,-118.403C411.128,-108.379 376.938,-91.7006 353.095,-80.0699"/>
<polygon fill="midnightblue" stroke="midnightblue" points="354.414,-76.8192 343.892,-75.5806 351.345,-83.1106 354.414,-76.8192"/>
</g>
<!-- Node10&#45;&gt;Node11 -->
<g id="edge14" class="edge"><title>Node10&#45;&gt;Node11</title>
<path fill="none" stroke="midnightblue" d="M473.229,-118.403C502.571,-107.861 552.393,-89.9611 584.82,-78.3109"/>
<polygon fill="midnightblue" stroke="midnightblue" points="586.055,-81.5861 594.283,-74.911 583.688,-74.9984 586.055,-81.5861"/>
</g>
<!-- Node10&#45;&gt;Node12 -->
<g id="edge15" class="edge"><title>Node10&#45;&gt;Node12</title>
<path fill="none" stroke="midnightblue" d="M463.629,-118.403C479.966,-108.601 506.904,-92.4385 526.214,-80.8526"/>
<polygon fill="midnightblue" stroke="midnightblue" points="528.226,-83.7268 535.001,-75.5806 524.625,-77.7244 528.226,-83.7268"/>
</g>
<!-- Node10&#45;&gt;Node13 -->
<g id="edge16" class="edge"><title>Node10&#45;&gt;Node13</title>
<path fill="none" stroke="midnightblue" d="M508.329,-120.032C573.069,-111.831 679.807,-96.6653 770.302,-76 770.401,-75.9773 770.501,-75.9545 770.6,-75.9315"/>
<polygon fill="midnightblue" stroke="midnightblue" points="771.268,-79.3742 780.066,-73.4713 769.507,-72.5992 771.268,-79.3742"/>
</g>
<!-- Node14 -->
<g id="node14" class="node"><title>Node14</title>
<g id="a_node14"><a xlink:href="a00336.html" target="_top" xlink:title="hpp/fcl/eigen/product.h">
<polygon fill="white" stroke="black" points="388.302,-56.5 388.302,-75.5 504.302,-75.5 504.302,-56.5 388.302,-56.5"/>
<text text-anchor="middle" x="446.302" y="-63.5" font-family="Helvetica,sans-Serif" font-size="10.00">hpp/fcl/eigen/product.h</text>
</a>
</g>
</g>
<!-- Node10&#45;&gt;Node14 -->
<g id="edge17" class="edge"><title>Node10&#45;&gt;Node14</title>
<path fill="none" stroke="midnightblue" d="M448.872,-118.403C448.448,-109.938 447.788,-96.7283 447.243,-85.8199"/>
<polygon fill="midnightblue" stroke="midnightblue" points="450.726,-85.3933 446.731,-75.5806 443.734,-85.7429 450.726,-85.3933"/>
</g>
<!-- Node16 -->
<g id="node16" class="node"><title>Node16</title>
<g id="a_node16"><a xlink:href="a00284.html" target="_top" xlink:title="hpp/fcl/deprecated.h">
<polygon fill="white" stroke="black" points="271.802,-514.5 271.802,-533.5 376.802,-533.5 376.802,-514.5 271.802,-514.5"/>
<text text-anchor="middle" x="324.302" y="-521.5" font-family="Helvetica,sans-Serif" font-size="10.00">hpp/fcl/deprecated.h</text>
</a>
</g>
</g>
<!-- Node15&#45;&gt;Node16 -->
<g id="edge22" class="edge"><title>Node15&#45;&gt;Node16</title>
<path fill="none" stroke="midnightblue" d="M472.946,-582.372C443.036,-570.827 389.832,-550.293 355.852,-537.177"/>
<polygon fill="midnightblue" stroke="midnightblue" points="356.981,-533.861 346.391,-533.526 354.46,-540.392 356.981,-533.861"/>
</g>
<!-- Node17 -->
<g id="node17" class="node"><title>Node17</title>
<g id="a_node17"><a xlink:href="a00257.html" target="_top" xlink:title="hpp/fcl/BV/AABB.h">
<polygon fill="white" stroke="black" points="525.802,-310.5 525.802,-329.5 626.802,-329.5 626.802,-310.5 525.802,-310.5"/>
<text text-anchor="middle" x="576.302" y="-317.5" font-family="Helvetica,sans-Serif" font-size="10.00">hpp/fcl/BV/AABB.h</text>
</a>
</g>
</g>
<!-- Node15&#45;&gt;Node17 -->
<g id="edge23" class="edge"><title>Node15&#45;&gt;Node17</title>
<path fill="none" stroke="midnightblue" d="M497.905,-582.322C509.306,-544.317 554.974,-392.092 570.838,-339.21"/>
<polygon fill="midnightblue" stroke="midnightblue" points="574.227,-340.095 573.748,-329.511 567.522,-338.083 574.227,-340.095"/>
</g>
<!-- Node19 -->
<g id="node19" class="node"><title>Node19</title>
<g id="a_node19"><a xlink:href="a00348.html" target="_top" xlink:title="hpp/fcl/math/transform.h">
<polygon fill="white" stroke="black" points="106.802,-446.5 106.802,-465.5 229.802,-465.5 229.802,-446.5 106.802,-446.5"/>
<text text-anchor="middle" x="168.302" y="-453.5" font-family="Helvetica,sans-Serif" font-size="10.00">hpp/fcl/math/transform.h</text>
</a>
</g>
</g>
<!-- Node15&#45;&gt;Node19 -->
<g id="edge26" class="edge"><title>Node15&#45;&gt;Node19</title>
<path fill="none" stroke="midnightblue" d="M433.079,-585.992C384.422,-580.091 316.22,-567.348 262.302,-540 229.321,-523.272 198.722,-492.2 181.865,-473.185"/>
<polygon fill="midnightblue" stroke="midnightblue" points="184.51,-470.893 175.32,-465.621 179.216,-475.473 184.51,-470.893"/>
</g>
<!-- Node22 -->
<g id="node22" class="node"><title>Node22</title>
<g id="a_node22"><a xlink:href="a00325.html" target="_top" xlink:title="hpp/fcl/ccd/motion\l_base.h">
<polygon fill="white" stroke="black" points="394.802,-509 394.802,-539 491.802,-539 491.802,-509 394.802,-509"/>
<text text-anchor="start" x="402.802" y="-527" font-family="Helvetica,sans-Serif" font-size="10.00">hpp/fcl/ccd/motion</text>
<text text-anchor="middle" x="443.302" y="-516" font-family="Helvetica,sans-Serif" font-size="10.00">_base.h</text>
</a>
</g>
</g>
<!-- Node15&#45;&gt;Node22 -->
<g id="edge30" class="edge"><title>Node15&#45;&gt;Node22</title>
<path fill="none" stroke="midnightblue" d="M488.503,-582.372C481.48,-573.457 470.233,-559.182 460.715,-547.101"/>
<polygon fill="midnightblue" stroke="midnightblue" points="463.413,-544.87 454.475,-539.181 457.914,-549.202 463.413,-544.87"/>
</g>
<!-- Node29 -->
<g id="node29" class="node"><title>Node29</title>
<polygon fill="white" stroke="#bfbfbf" points="781.302,-242.5 781.302,-261.5 889.302,-261.5 889.302,-242.5 781.302,-242.5"/>
<text text-anchor="middle" x="835.302" y="-249.5" font-family="Helvetica,sans-Serif" font-size="10.00">boost/shared_ptr.hpp</text>
</g>
<!-- Node15&#45;&gt;Node29 -->
<g id="edge56" class="edge"><title>Node15&#45;&gt;Node29</title>
<path fill="none" stroke="midnightblue" d="M557.338,-590.985C648.847,-587.333 809.302,-565.465 809.302,-457 809.302,-457 809.302,-457 809.302,-387 809.302,-345.095 821.707,-297.145 829.38,-271.496"/>
<polygon fill="midnightblue" stroke="midnightblue" points="832.809,-272.254 832.42,-261.667 826.122,-270.186 832.809,-272.254"/>
</g>
<!-- Node17&#45;&gt;Node2 -->
<g id="edge25" class="edge"><title>Node17&#45;&gt;Node2</title>
<path fill="none" stroke="midnightblue" d="M584.585,-310.371C599.037,-294.259 625.648,-259.144 607.302,-236 591.632,-216.234 530.393,-204.313 481.233,-197.756"/>
<polygon fill="midnightblue" stroke="midnightblue" points="481.627,-194.278 471.263,-196.476 480.736,-201.221 481.627,-194.278"/>
</g>
<!-- Node18 -->
<g id="node18" class="node"><title>Node18</title>
<polygon fill="white" stroke="#bfbfbf" points="539.802,-242.5 539.802,-261.5 598.802,-261.5 598.802,-242.5 539.802,-242.5"/>
<text text-anchor="middle" x="569.302" y="-249.5" font-family="Helvetica,sans-Serif" font-size="10.00">stdexcept</text>
</g>
<!-- Node17&#45;&gt;Node18 -->
<g id="edge24" class="edge"><title>Node17&#45;&gt;Node18</title>
<path fill="none" stroke="midnightblue" d="M575.386,-310.372C574.355,-300.643 572.645,-284.528 571.301,-271.85"/>
<polygon fill="midnightblue" stroke="midnightblue" points="574.775,-271.416 570.239,-261.841 567.814,-272.155 574.775,-271.416"/>
</g>
<!-- Node20 -->
<g id="node20" class="node"><title>Node20</title>
<g id="a_node20"><a xlink:href="a00319.html" target="_top" xlink:title="hpp/fcl/math/matrix_3f.h">
<polygon fill="white" stroke="black" points="30.3016,-242.5 30.3016,-261.5 152.302,-261.5 152.302,-242.5 30.3016,-242.5"/>
<text text-anchor="middle" x="91.3016" y="-249.5" font-family="Helvetica,sans-Serif" font-size="10.00">hpp/fcl/math/matrix_3f.h</text>
</a>
</g>
</g>
<!-- Node19&#45;&gt;Node20 -->
<g id="edge27" class="edge"><title>Node19&#45;&gt;Node20</title>
<path fill="none" stroke="midnightblue" d="M124.567,-446.423C100.906,-439.314 73.6556,-426.564 59.3016,-404 32.293,-361.544 62.1217,-300.131 79.9394,-270.412"/>
<polygon fill="midnightblue" stroke="midnightblue" points="83.0995,-271.959 85.4219,-261.622 77.1601,-268.254 83.0995,-271.959"/>
</g>
<!-- Node21 -->
<g id="node21" class="node"><title>Node21</title>
<polygon fill="white" stroke="#bfbfbf" points="68.8016,-378.5 68.8016,-397.5 187.802,-397.5 187.802,-378.5 68.8016,-378.5"/>
<text text-anchor="middle" x="128.302" y="-385.5" font-family="Helvetica,sans-Serif" font-size="10.00">boost/thread/mutex.hpp</text>
</g>
<!-- Node19&#45;&gt;Node21 -->
<g id="edge29" class="edge"><title>Node19&#45;&gt;Node21</title>
<path fill="none" stroke="midnightblue" d="M163.072,-446.372C156.997,-436.348 146.814,-419.546 139.033,-406.708"/>
<polygon fill="midnightblue" stroke="midnightblue" points="141.836,-404.579 133.66,-397.841 135.85,-408.207 141.836,-404.579"/>
</g>
<!-- Node20&#45;&gt;Node2 -->
<g id="edge28" class="edge"><title>Node20&#45;&gt;Node2</title>
<path fill="none" stroke="midnightblue" d="M133.322,-242.453C144.066,-240.307 155.605,-238.036 166.302,-236 231.302,-223.627 306.013,-210.236 356.505,-201.308"/>
<polygon fill="midnightblue" stroke="midnightblue" points="357.346,-204.714 366.585,-199.528 356.129,-197.82 357.346,-204.714"/>
</g>
<!-- Node22&#45;&gt;Node19 -->
<g id="edge31" class="edge"><title>Node22&#45;&gt;Node19</title>
<path fill="none" stroke="midnightblue" d="M394.587,-510.318C391.447,-509.526 388.331,-508.748 385.302,-508 326.915,-493.591 259.454,-477.883 215.449,-467.762"/>
<polygon fill="midnightblue" stroke="midnightblue" points="216.138,-464.33 205.608,-465.502 214.571,-471.152 216.138,-464.33"/>
</g>
<!-- Node23 -->
<g id="node23" class="node"><title>Node23</title>
<g id="a_node23"><a xlink:href="a00343.html" target="_top" xlink:title="hpp/fcl/ccd/taylor\l_matrix.h">
<polygon fill="white" stroke="black" points="286.302,-441 286.302,-471 378.302,-471 378.302,-441 286.302,-441"/>
<text text-anchor="start" x="294.302" y="-459" font-family="Helvetica,sans-Serif" font-size="10.00">hpp/fcl/ccd/taylor</text>
<text text-anchor="middle" x="332.302" y="-448" font-family="Helvetica,sans-Serif" font-size="10.00">_matrix.h</text>
</a>
</g>
</g>
<!-- Node22&#45;&gt;Node23 -->
<g id="edge32" class="edge"><title>Node22&#45;&gt;Node23</title>
<path fill="none" stroke="midnightblue" d="M419.489,-508.841C403.541,-499.359 382.342,-486.754 364.842,-476.348"/>
<polygon fill="midnightblue" stroke="midnightblue" points="366.459,-473.238 356.074,-471.135 362.881,-479.254 366.459,-473.238"/>
</g>
<!-- Node24 -->
<g id="node24" class="node"><title>Node24</title>
<g id="a_node24"><a xlink:href="a00346.html" target="_top" xlink:title="hpp/fcl/ccd/taylor\l_vector.h">
<polygon fill="white" stroke="black" points="362.302,-373 362.302,-403 454.302,-403 454.302,-373 362.302,-373"/>
<text text-anchor="start" x="370.302" y="-391" font-family="Helvetica,sans-Serif" font-size="10.00">hpp/fcl/ccd/taylor</text>
<text text-anchor="middle" x="408.302" y="-380" font-family="Helvetica,sans-Serif" font-size="10.00">_vector.h</text>
</a>
</g>
</g>
<!-- Node22&#45;&gt;Node24 -->
<g id="edge50" class="edge"><title>Node22&#45;&gt;Node24</title>
<path fill="none" stroke="midnightblue" d="M439.556,-508.66C433.583,-485.79 421.833,-440.808 414.565,-412.98"/>
<polygon fill="midnightblue" stroke="midnightblue" points="417.934,-412.028 412.02,-403.237 411.161,-413.797 417.934,-412.028"/>
</g>
<!-- Node32 -->
<g id="node32" class="node"><title>Node32</title>
<g id="a_node32"><a xlink:href="a00338.html" target="_top" xlink:title="hpp/fcl/BV/RSS.h">
<polygon fill="white" stroke="black" points="412.802,-310.5 412.802,-329.5 507.802,-329.5 507.802,-310.5 412.802,-310.5"/>
<text text-anchor="middle" x="460.302" y="-317.5" font-family="Helvetica,sans-Serif" font-size="10.00">hpp/fcl/BV/RSS.h</text>
</a>
</g>
</g>
<!-- Node22&#45;&gt;Node32 -->
<g id="edge51" class="edge"><title>Node22&#45;&gt;Node32</title>
<path fill="none" stroke="midnightblue" d="M446.475,-508.809C451.263,-486.598 460.113,-442.205 463.302,-404 464.484,-389.827 463.719,-386.216 463.302,-372 462.987,-361.295 462.302,-349.342 461.665,-339.7"/>
<polygon fill="midnightblue" stroke="midnightblue" points="465.152,-339.389 460.966,-329.656 458.169,-339.875 465.152,-339.389"/>
</g>
<!-- Node23&#45;&gt;Node20 -->
<g id="edge33" class="edge"><title>Node23&#45;&gt;Node20</title>
<path fill="none" stroke="midnightblue" d="M301.686,-440.892C282.129,-431.404 256.549,-418.091 235.302,-404 216.616,-391.608 214.892,-384.535 196.302,-372 168.597,-353.32 153.208,-360.326 130.302,-336 112.865,-317.483 102.003,-289.756 96.3007,-271.523"/>
<polygon fill="midnightblue" stroke="midnightblue" points="99.6241,-270.417 93.466,-261.796 92.9036,-272.376 99.6241,-270.417"/>
</g>
<!-- Node23&#45;&gt;Node24 -->
<g id="edge34" class="edge"><title>Node23&#45;&gt;Node24</title>
<path fill="none" stroke="midnightblue" d="M348.792,-440.679C359.221,-431.623 372.872,-419.768 384.469,-409.697"/>
<polygon fill="midnightblue" stroke="midnightblue" points="386.849,-412.266 392.104,-403.066 382.259,-406.981 386.849,-412.266"/>
</g>
<!-- Node31 -->
<g id="node31" class="node"><title>Node31</title>
<g id="a_node31"><a xlink:href="a00307.html" target="_top" xlink:title="hpp/fcl/ccd/interval\l_matrix.h">
<polygon fill="white" stroke="black" points="244.802,-373 244.802,-403 343.802,-403 343.802,-373 244.802,-373"/>
<text text-anchor="start" x="252.802" y="-391" font-family="Helvetica,sans-Serif" font-size="10.00">hpp/fcl/ccd/interval</text>
<text text-anchor="middle" x="294.302" y="-380" font-family="Helvetica,sans-Serif" font-size="10.00">_matrix.h</text>
</a>
</g>
</g>
<!-- Node23&#45;&gt;Node31 -->
<g id="edge46" class="edge"><title>Node23&#45;&gt;Node31</title>
<path fill="none" stroke="midnightblue" d="M324.056,-440.679C319.276,-432.376 313.141,-421.721 307.685,-412.245"/>
<polygon fill="midnightblue" stroke="midnightblue" points="310.554,-410.213 302.531,-403.293 304.487,-413.706 310.554,-410.213"/>
</g>
<!-- Node25 -->
<g id="node25" class="node"><title>Node25</title>
<g id="a_node25"><a xlink:href="a00309.html" target="_top" xlink:title="hpp/fcl/ccd/interval\l_vector.h">
<polygon fill="white" stroke="black" points="295.802,-305 295.802,-335 394.802,-335 394.802,-305 295.802,-305"/>
<text text-anchor="start" x="303.802" y="-323" font-family="Helvetica,sans-Serif" font-size="10.00">hpp/fcl/ccd/interval</text>
<text text-anchor="middle" x="345.302" y="-312" font-family="Helvetica,sans-Serif" font-size="10.00">_vector.h</text>
</a>
</g>
</g>
<!-- Node24&#45;&gt;Node25 -->
<g id="edge35" class="edge"><title>Node24&#45;&gt;Node25</title>
<path fill="none" stroke="midnightblue" d="M394.632,-372.679C386.293,-363.944 375.47,-352.605 366.086,-342.775"/>
<polygon fill="midnightblue" stroke="midnightblue" points="368.381,-340.11 358.945,-335.293 363.318,-344.943 368.381,-340.11"/>
</g>
<!-- Node28 -->
<g id="node28" class="node"><title>Node28</title>
<g id="a_node28"><a xlink:href="a00344.html" target="_top" xlink:title="hpp/fcl/ccd/taylor\l_model.h">
<polygon fill="white" stroke="black" points="683.302,-305 683.302,-335 775.302,-335 775.302,-305 683.302,-305"/>
<text text-anchor="start" x="691.302" y="-323" font-family="Helvetica,sans-Serif" font-size="10.00">hpp/fcl/ccd/taylor</text>
<text text-anchor="middle" x="729.302" y="-312" font-family="Helvetica,sans-Serif" font-size="10.00">_model.h</text>
</a>
</g>
</g>
<!-- Node24&#45;&gt;Node28 -->
<g id="edge40" class="edge"><title>Node24&#45;&gt;Node28</title>
<path fill="none" stroke="midnightblue" d="M454.656,-378.695C506.957,-369.15 594.49,-352.649 669.302,-336 670.569,-335.718 671.851,-335.429 673.142,-335.135"/>
<polygon fill="midnightblue" stroke="midnightblue" points="674.231,-338.475 683.171,-332.79 672.637,-331.658 674.231,-338.475"/>
</g>
<!-- Node30 -->
<g id="node30" class="node"><title>Node30</title>
<g id="a_node30"><a xlink:href="a00345.html" target="_top" xlink:title="hpp/fcl/eigen/taylor\l_operator.h">
<polygon fill="white" stroke="black" points="178.802,-305 178.802,-335 277.802,-335 277.802,-305 178.802,-305"/>
<text text-anchor="start" x="186.802" y="-323" font-family="Helvetica,sans-Serif" font-size="10.00">hpp/fcl/eigen/taylor</text>
<text text-anchor="middle" x="228.302" y="-312" font-family="Helvetica,sans-Serif" font-size="10.00">_operator.h</text>
</a>
</g>
</g>
<!-- Node24&#45;&gt;Node30 -->
<g id="edge43" class="edge"><title>Node24&#45;&gt;Node30</title>
<path fill="none" stroke="midnightblue" d="M369.687,-372.841C342.308,-362.802 305.389,-349.265 276.142,-338.542"/>
<polygon fill="midnightblue" stroke="midnightblue" points="277.137,-335.178 266.543,-335.022 274.727,-341.751 277.137,-335.178"/>
</g>
<!-- Node25&#45;&gt;Node2 -->
<g id="edge38" class="edge"><title>Node25&#45;&gt;Node2</title>
<path fill="none" stroke="midnightblue" d="M304.525,-304.956C277.321,-294.666 245.154,-280.392 237.302,-268 229.689,-255.987 228.564,-247.222 237.302,-236 251.275,-218.055 304.983,-206.133 349.783,-199.095"/>
<polygon fill="midnightblue" stroke="midnightblue" points="350.411,-202.54 359.774,-197.582 349.362,-195.619 350.411,-202.54"/>
</g>
<!-- Node26 -->
<g id="node26" class="node"><title>Node26</title>
<g id="a_node26"><a xlink:href="a00306.html" target="_top" xlink:title="hpp/fcl/ccd/interval.h">
<polygon fill="white" stroke="black" points="655.802,-242.5 655.802,-261.5 762.802,-261.5 762.802,-242.5 655.802,-242.5"/>
<text text-anchor="middle" x="709.302" y="-249.5" font-family="Helvetica,sans-Serif" font-size="10.00">hpp/fcl/ccd/interval.h</text>
</a>
</g>
</g>
<!-- Node25&#45;&gt;Node26 -->
<g id="edge36" class="edge"><title>Node25&#45;&gt;Node26</title>
<path fill="none" stroke="midnightblue" d="M394.908,-305.865C397.742,-305.21 400.555,-304.583 403.302,-304 448.428,-294.423 570.185,-274.826 645.806,-262.908"/>
<polygon fill="midnightblue" stroke="midnightblue" points="646.367,-266.363 655.702,-261.35 645.279,-259.448 646.367,-266.363"/>
</g>
<!-- Node27 -->
<g id="node27" class="node"><title>Node27</title>
<g id="a_node27"><a xlink:href="a00305.html" target="_top" xlink:title="hpp/fcl/eigen/plugins\l/ccd/interval&#45;vector.h">
<polygon fill="white" stroke="black" points="246.302,-237 246.302,-267 354.302,-267 354.302,-237 246.302,-237"/>
<text text-anchor="start" x="254.302" y="-255" font-family="Helvetica,sans-Serif" font-size="10.00">hpp/fcl/eigen/plugins</text>
<text text-anchor="middle" x="300.302" y="-244" font-family="Helvetica,sans-Serif" font-size="10.00">/ccd/interval&#45;vector.h</text>
</a>
</g>
</g>
<!-- Node25&#45;&gt;Node27 -->
<g id="edge39" class="edge"><title>Node25&#45;&gt;Node27</title>
<path fill="none" stroke="midnightblue" d="M335.537,-304.679C329.758,-296.203 322.308,-285.276 315.748,-275.655"/>
<polygon fill="midnightblue" stroke="midnightblue" points="318.572,-273.584 310.047,-267.293 312.788,-277.527 318.572,-273.584"/>
</g>
<!-- Node26&#45;&gt;Node4 -->
<g id="edge37" class="edge"><title>Node26&#45;&gt;Node4</title>
<path fill="none" stroke="midnightblue" d="M709.302,-242.125C709.302,-213.769 709.302,-124.93 709.302,-85.8108"/>
<polygon fill="midnightblue" stroke="midnightblue" points="712.802,-85.7856 709.302,-75.7857 705.802,-85.7857 712.802,-85.7856"/>
</g>
<!-- Node28&#45;&gt;Node26 -->
<g id="edge41" class="edge"><title>Node28&#45;&gt;Node26</title>
<path fill="none" stroke="midnightblue" d="M724.962,-304.679C722.029,-294.999 718.127,-282.123 714.952,-271.645"/>
<polygon fill="midnightblue" stroke="midnightblue" points="718.227,-270.383 711.977,-261.828 711.527,-272.414 718.227,-270.383"/>
</g>
<!-- Node28&#45;&gt;Node29 -->
<g id="edge42" class="edge"><title>Node28&#45;&gt;Node29</title>
<path fill="none" stroke="midnightblue" d="M752.041,-304.841C769.965,-293.681 794.833,-278.198 812.716,-267.063"/>
<polygon fill="midnightblue" stroke="midnightblue" points="814.719,-269.939 821.358,-261.682 811.019,-263.996 814.719,-269.939"/>
</g>
<!-- Node30&#45;&gt;Node2 -->
<g id="edge44" class="edge"><title>Node30&#45;&gt;Node2</title>
<path fill="none" stroke="midnightblue" d="M223.279,-304.967C217.814,-286.956 211.771,-255.686 227.302,-236 242.487,-216.751 301.577,-204.816 349.51,-198.116"/>
<polygon fill="midnightblue" stroke="midnightblue" points="350.105,-201.568 359.549,-196.766 349.171,-194.63 350.105,-201.568"/>
</g>
<!-- Node30&#45;&gt;Node20 -->
<g id="edge45" class="edge"><title>Node30&#45;&gt;Node20</title>
<path fill="none" stroke="midnightblue" d="M198.912,-304.841C175.108,-293.374 141.83,-277.342 118.604,-266.153"/>
<polygon fill="midnightblue" stroke="midnightblue" points="119.851,-262.869 109.323,-261.682 116.813,-269.175 119.851,-262.869"/>
</g>
<!-- Node31&#45;&gt;Node20 -->
<g id="edge49" class="edge"><title>Node31&#45;&gt;Node20</title>
<path fill="none" stroke="midnightblue" d="M246.483,-372.912C222.123,-364.431 192.774,-352.124 169.302,-336 142.268,-317.429 117.523,-288.082 103.448,-269.718"/>
<polygon fill="midnightblue" stroke="midnightblue" points="106.227,-267.589 97.4328,-261.68 100.622,-271.783 106.227,-267.589"/>
</g>
<!-- Node31&#45;&gt;Node25 -->
<g id="edge48" class="edge"><title>Node31&#45;&gt;Node25</title>
<path fill="none" stroke="midnightblue" d="M305.368,-372.679C311.984,-364.117 320.533,-353.053 328.023,-343.36"/>
<polygon fill="midnightblue" stroke="midnightblue" points="330.912,-345.346 334.257,-335.293 325.373,-341.066 330.912,-345.346"/>
</g>
<!-- Node31&#45;&gt;Node26 -->
<g id="edge47" class="edge"><title>Node31&#45;&gt;Node26</title>
<path fill="none" stroke="midnightblue" d="M344.099,-373.885C347.205,-373.208 350.291,-372.573 353.302,-372 477.427,-348.39 523.512,-394.885 635.302,-336 663.941,-320.914 686.809,-289.984 699.18,-270.437"/>
<polygon fill="midnightblue" stroke="midnightblue" points="702.327,-271.998 704.529,-261.635 696.345,-268.363 702.327,-271.998"/>
</g>
<!-- Node32&#45;&gt;Node2 -->
<g id="edge53" class="edge"><title>Node32&#45;&gt;Node2</title>
<path fill="none" stroke="midnightblue" d="M444.611,-310.458C430.574,-301.828 410.922,-287.059 402.302,-268 393.777,-249.153 400.032,-225.419 406.477,-209.319"/>
<polygon fill="midnightblue" stroke="midnightblue" points="409.767,-210.533 410.586,-199.969 403.358,-207.716 409.767,-210.533"/>
</g>
<!-- Node32&#45;&gt;Node18 -->
<g id="edge52" class="edge"><title>Node32&#45;&gt;Node18</title>
<path fill="none" stroke="midnightblue" d="M474.551,-310.372C492.83,-299.304 524.756,-279.972 546.448,-266.838"/>
<polygon fill="midnightblue" stroke="midnightblue" points="548.307,-269.804 555.048,-261.63 544.681,-263.816 548.307,-269.804"/>
</g>
<!-- Node32&#45;&gt;Node20 -->
<g id="edge54" class="edge"><title>Node32&#45;&gt;Node20</title>
<path fill="none" stroke="midnightblue" d="M429.961,-310.442C421.381,-308.179 412.009,-305.853 403.302,-304 321.133,-286.514 225.687,-271.706 162.215,-262.625"/>
<polygon fill="midnightblue" stroke="midnightblue" points="162.702,-259.159 152.309,-261.217 161.717,-266.089 162.702,-259.159"/>
</g>
<!-- Node33 -->
<g id="node33" class="node"><title>Node33</title>
<polygon fill="white" stroke="#bfbfbf" points="410.802,-237 410.802,-267 521.802,-267 521.802,-237 410.802,-237"/>
<text text-anchor="start" x="418.802" y="-255" font-family="Helvetica,sans-Serif" font-size="10.00">boost/math/constants</text>
<text text-anchor="middle" x="466.302" y="-244" font-family="Helvetica,sans-Serif" font-size="10.00">/constants.hpp</text>
</g>
<!-- Node32&#45;&gt;Node33 -->
<g id="edge55" class="edge"><title>Node32&#45;&gt;Node33</title>
<path fill="none" stroke="midnightblue" d="M461.086,-310.372C461.85,-301.971 463.046,-288.811 464.1,-277.213"/>
<polygon fill="midnightblue" stroke="midnightblue" points="467.593,-277.457 465.012,-267.181 460.621,-276.823 467.593,-277.457"/>
</g>
<!-- Node34&#45;&gt;Node2 -->
<g id="edge72" class="edge"><title>Node34&#45;&gt;Node2</title>
<path fill="none" stroke="midnightblue" d="M967.666,-644.22C949.139,-619.083 897.053,-544.016 879.302,-472 854.118,-369.83 969.174,-313.782 898.302,-236 870.751,-205.763 606.817,-195.503 481.169,-192.313"/>
<polygon fill="midnightblue" stroke="midnightblue" points="480.992,-188.808 470.909,-192.06 480.82,-195.806 480.992,-188.808"/>
</g>
<!-- Node34&#45;&gt;Node13 -->
<g id="edge75" class="edge"><title>Node34&#45;&gt;Node13</title>
<path fill="none" stroke="midnightblue" d="M976.065,-644.336C980.817,-621.582 994.789,-558.409 1013.3,-508 1019.4,-491.39 1024.42,-488.688 1030.3,-472 1042.91,-436.212 1050.3,-426.945 1050.3,-389 1050.3,-389 1050.3,-389 1050.3,-189 1050.3,-121.465 980.217,-141.16 919.302,-112 889.841,-97.8974 854.71,-85.0722 830.288,-76.7543"/>
<polygon fill="midnightblue" stroke="midnightblue" points="831.12,-73.3414 820.526,-73.4748 828.891,-79.977 831.12,-73.3414"/>
</g>
<!-- Node34&#45;&gt;Node15 -->
<g id="edge58" class="edge"><title>Node34&#45;&gt;Node15</title>
<path fill="none" stroke="midnightblue" d="M916.046,-645.703C828.362,-634.719 662.623,-613.959 567.43,-602.035"/>
<polygon fill="midnightblue" stroke="midnightblue" points="567.67,-598.538 557.312,-600.768 566.8,-605.483 567.67,-598.538"/>
</g>
<!-- Node35 -->
<g id="node35" class="node"><title>Node35</title>
<g id="a_node35"><a xlink:href="a00275.html" target="_top" xlink:title="hpp/fcl/learning/classifier.h">
<polygon fill="white" stroke="black" points="888.802,-446.5 888.802,-465.5 1021.8,-465.5 1021.8,-446.5 888.802,-446.5"/>
<text text-anchor="middle" x="955.302" y="-453.5" font-family="Helvetica,sans-Serif" font-size="10.00">hpp/fcl/learning/classifier.h</text>
</a>
</g>
</g>
<!-- Node34&#45;&gt;Node35 -->
<g id="edge59" class="edge"><title>Node34&#45;&gt;Node35</title>
<path fill="none" stroke="midnightblue" d="M973.461,-644.325C970.585,-614.664 961.103,-516.85 957.105,-475.604"/>
<polygon fill="midnightblue" stroke="midnightblue" points="960.581,-475.19 956.133,-465.575 953.614,-475.866 960.581,-475.19"/>
</g>
<!-- Node37 -->
<g id="node37" class="node"><title>Node37</title>
<polygon fill="white" stroke="#bfbfbf" points="1223.3,-56.5 1223.3,-75.5 1267.3,-75.5 1267.3,-56.5 1223.3,-56.5"/>
<text text-anchor="middle" x="1245.3" y="-63.5" font-family="Helvetica,sans-Serif" font-size="10.00">vector</text>
</g>
<!-- Node34&#45;&gt;Node37 -->
<g id="edge73" class="edge"><title>Node34&#45;&gt;Node37</title>
<path fill="none" stroke="midnightblue" d="M1032.42,-653.713C1121.93,-651.432 1283.3,-632.423 1283.3,-525 1283.3,-525 1283.3,-525 1283.3,-189 1283.3,-150.351 1265.7,-107.804 1254.46,-84.5639"/>
<polygon fill="midnightblue" stroke="midnightblue" points="1257.57,-82.9625 1249.96,-75.5903 1251.31,-86.0986 1257.57,-82.9625"/>
</g>
<!-- Node40 -->
<g id="node40" class="node"><title>Node40</title>
<g id="a_node40"><a xlink:href="a00327.html" target="_top" xlink:title="hpp/fcl/knn/nearest\l_neighbors.h">
<polygon fill="white" stroke="black" points="1098.3,-577 1098.3,-607 1198.3,-607 1198.3,-577 1098.3,-577"/>
<text text-anchor="start" x="1106.3" y="-595" font-family="Helvetica,sans-Serif" font-size="10.00">hpp/fcl/knn/nearest</text>
<text text-anchor="middle" x="1148.3" y="-584" font-family="Helvetica,sans-Serif" font-size="10.00">_neighbors.h</text>
</a>
</g>
</g>
<!-- Node34&#45;&gt;Node40 -->
<g id="edge68" class="edge"><title>Node34&#45;&gt;Node40</title>
<path fill="none" stroke="midnightblue" d="M999.232,-644.403C1024.86,-635.564 1065.5,-621.553 1097.87,-610.39"/>
<polygon fill="midnightblue" stroke="midnightblue" points="1099.32,-613.594 1107.63,-607.025 1097.03,-606.976 1099.32,-613.594"/>
</g>
<!-- Node43 -->
<g id="node43" class="node"><title>Node43</title>
<polygon fill="white" stroke="#bfbfbf" points="1021.3,-582.5 1021.3,-601.5 1051.3,-601.5 1051.3,-582.5 1021.3,-582.5"/>
<text text-anchor="middle" x="1036.3" y="-589.5" font-family="Helvetica,sans-Serif" font-size="10.00">set</text>
</g>
<!-- Node34&#45;&gt;Node43 -->
<g id="edge74" class="edge"><title>Node34&#45;&gt;Node43</title>
<path fill="none" stroke="midnightblue" d="M983.185,-644.403C992.761,-635.136 1008.21,-620.183 1019.99,-608.788"/>
<polygon fill="midnightblue" stroke="midnightblue" points="1022.68,-611.05 1027.43,-601.581 1017.81,-606.02 1022.68,-611.05"/>
</g>
<!-- Node36 -->
<g id="node36" class="node"><title>Node36</title>
<g id="a_node36"><a xlink:href="a00359.html" target="_top" xlink:title="hpp/fcl/math/vec_nf.h">
<polygon fill="white" stroke="black" points="799.802,-118.5 799.802,-137.5 910.802,-137.5 910.802,-118.5 799.802,-118.5"/>
<text text-anchor="middle" x="855.302" y="-125.5" font-family="Helvetica,sans-Serif" font-size="10.00">hpp/fcl/math/vec_nf.h</text>
</a>
</g>
</g>
<!-- Node35&#45;&gt;Node36 -->
<g id="edge60" class="edge"><title>Node35&#45;&gt;Node36</title>
<path fill="none" stroke="midnightblue" d="M955.302,-446.22C955.302,-424.814 955.302,-368.226 955.302,-321 955.302,-321 955.302,-321 955.302,-251 955.302,-202.851 908.137,-163.295 878.589,-143.239"/>
<polygon fill="midnightblue" stroke="midnightblue" points="880.34,-140.202 870.057,-137.653 876.506,-146.058 880.34,-140.202"/>
</g>
<!-- Node36&#45;&gt;Node4 -->
<g id="edge67" class="edge"><title>Node36&#45;&gt;Node4</title>
<path fill="none" stroke="midnightblue" d="M834.383,-118.403C809.556,-108.2 767.958,-91.1055 739.607,-79.4544"/>
<polygon fill="midnightblue" stroke="midnightblue" points="740.761,-76.1445 730.181,-75.5806 738.1,-82.6191 740.761,-76.1445"/>
</g>
<!-- Node36&#45;&gt;Node11 -->
<g id="edge61" class="edge"><title>Node36&#45;&gt;Node11</title>
<path fill="none" stroke="midnightblue" d="M818.361,-118.438C778.716,-109.141 713.669,-93.5716 648.633,-76.2779"/>
<polygon fill="midnightblue" stroke="midnightblue" points="649.186,-72.8028 638.621,-73.6016 647.378,-79.5653 649.186,-72.8028"/>
</g>
<!-- Node36&#45;&gt;Node12 -->
<g id="edge62" class="edge"><title>Node36&#45;&gt;Node12</title>
<path fill="none" stroke="midnightblue" d="M805.362,-118.466C753.158,-109.344 668.645,-94.0116 586.404,-76.1429"/>
<polygon fill="midnightblue" stroke="midnightblue" points="586.906,-72.6698 576.389,-73.9514 585.409,-79.5081 586.906,-72.6698"/>
</g>
<!-- Node36&#45;&gt;Node13 -->
<g id="edge63" class="edge"><title>Node36&#45;&gt;Node13</title>
<path fill="none" stroke="midnightblue" d="M847.421,-118.403C839.008,-109.225 825.482,-94.4699 815.076,-83.1173"/>
<polygon fill="midnightblue" stroke="midnightblue" points="817.504,-80.5871 808.167,-75.5806 812.344,-85.3172 817.504,-80.5871"/>
</g>
<!-- Node36&#45;&gt;Node37 -->
<g id="edge64" class="edge"><title>Node36&#45;&gt;Node37</title>
<path fill="none" stroke="midnightblue" d="M910.765,-118.467C993.436,-105.749 1146.37,-82.2197 1212.94,-71.9788"/>
<polygon fill="midnightblue" stroke="midnightblue" points="1213.88,-75.3761 1223.23,-70.3962 1212.81,-68.4575 1213.88,-75.3761"/>
</g>
<!-- Node38 -->
<g id="node38" class="node"><title>Node38</title>
<polygon fill="white" stroke="#bfbfbf" points="905.302,-56.5 905.302,-75.5 989.302,-75.5 989.302,-56.5 905.302,-56.5"/>
<text text-anchor="middle" x="947.302" y="-63.5" font-family="Helvetica,sans-Serif" font-size="10.00">boost/array.hpp</text>
</g>
<!-- Node36&#45;&gt;Node38 -->
<g id="edge65" class="edge"><title>Node36&#45;&gt;Node38</title>
<path fill="none" stroke="midnightblue" d="M868.483,-118.403C883.376,-108.691 907.846,-92.7319 925.575,-81.1697"/>
<polygon fill="midnightblue" stroke="midnightblue" points="927.68,-83.975 934.145,-75.5806 923.857,-78.1117 927.68,-83.975"/>
</g>
<!-- Node39 -->
<g id="node39" class="node"><title>Node39</title>
<polygon fill="white" stroke="#bfbfbf" points="838.802,-56.5 838.802,-75.5 887.802,-75.5 887.802,-56.5 838.802,-56.5"/>
<text text-anchor="middle" x="863.302" y="-63.5" font-family="Helvetica,sans-Serif" font-size="10.00">cstdarg</text>
</g>
<!-- Node36&#45;&gt;Node39 -->
<g id="edge66" class="edge"><title>Node36&#45;&gt;Node39</title>
<path fill="none" stroke="midnightblue" d="M856.448,-118.403C857.576,-109.938 859.338,-96.7283 860.792,-85.8199"/>
<polygon fill="midnightblue" stroke="midnightblue" points="864.305,-85.9555 862.157,-75.5806 857.366,-85.0303 864.305,-85.9555"/>
</g>
<!-- Node40&#45;&gt;Node37 -->
<g id="edge69" class="edge"><title>Node40&#45;&gt;Node37</title>
<path fill="none" stroke="midnightblue" d="M1181.16,-576.812C1197.08,-568.337 1215.11,-556.064 1226.3,-540 1247.93,-508.947 1245.3,-494.843 1245.3,-457 1245.3,-457 1245.3,-457 1245.3,-189 1245.3,-152.414 1245.3,-109.656 1245.3,-85.7123"/>
<polygon fill="midnightblue" stroke="midnightblue" points="1248.8,-85.5788 1245.3,-75.5789 1241.8,-85.5789 1248.8,-85.5788"/>
</g>
<!-- Node41 -->
<g id="node41" class="node"><title>Node41</title>
<polygon fill="white" stroke="#bfbfbf" points="1137.3,-514.5 1137.3,-533.5 1217.3,-533.5 1217.3,-514.5 1137.3,-514.5"/>
<text text-anchor="middle" x="1177.3" y="-521.5" font-family="Helvetica,sans-Serif" font-size="10.00">boost/bind.hpp</text>
</g>
<!-- Node40&#45;&gt;Node41 -->
<g id="edge70" class="edge"><title>Node40&#45;&gt;Node41</title>
<path fill="none" stroke="midnightblue" d="M1154.59,-576.679C1158.94,-566.796 1164.74,-553.579 1169.4,-542.986"/>
<polygon fill="midnightblue" stroke="midnightblue" points="1172.6,-544.391 1173.42,-533.828 1166.2,-541.576 1172.6,-544.391"/>
</g>
<!-- Node42 -->
<g id="node42" class="node"><title>Node42</title>
<polygon fill="white" stroke="#bfbfbf" points="1021.8,-514.5 1021.8,-533.5 1118.8,-533.5 1118.8,-514.5 1021.8,-514.5"/>
<text text-anchor="middle" x="1070.3" y="-521.5" font-family="Helvetica,sans-Serif" font-size="10.00">boost/function.hpp</text>
</g>
<!-- Node40&#45;&gt;Node42 -->
<g id="edge71" class="edge"><title>Node40&#45;&gt;Node42</title>
<path fill="none" stroke="midnightblue" d="M1131.38,-576.679C1118.73,-565.981 1101.47,-551.377 1088.53,-540.422"/>
<polygon fill="midnightblue" stroke="midnightblue" points="1090.63,-537.616 1080.74,-533.828 1086.11,-542.96 1090.63,-537.616"/>
</g>
</g>
</svg>
