<?xml version="1.0" encoding="UTF-8" standalone="no"?>
<!DOCTYPE svg PUBLIC "-//W3C//DTD SVG 1.1//EN"
 "http://www.w3.org/Graphics/SVG/1.1/DTD/svg11.dtd">
<!-- Generated by graphviz version 2.36.0 (20140111.2315)
 -->
<!-- Title: kIOS.h Pages: 1 -->
<svg width="1383pt" height="344pt"
 viewBox="0.00 0.00 1383.00 344.00" xmlns="http://www.w3.org/2000/svg" xmlns:xlink="http://www.w3.org/1999/xlink">
<g id="graph0" class="graph" transform="scale(1 1) rotate(0) translate(4 340)">
<title>kIOS.h</title>
<polygon fill="white" stroke="none" points="-4,4 -4,-340 1379,-340 1379,4 -4,4"/>
<!-- Node1 -->
<g id="node1" class="node"><title>Node1</title>
<polygon fill="#bfbfbf" stroke="black" points="966.5,-316.5 966.5,-335.5 1013.5,-335.5 1013.5,-316.5 966.5,-316.5"/>
<text text-anchor="middle" x="990" y="-323.5" font-family="Helvetica,sans-Serif" font-size="10.00">kIOS.h</text>
</g>
<!-- Node2 -->
<g id="node2" class="node"><title>Node2</title>
<g id="a_node2"><a xlink:href="a00267.html" target="_top" xlink:title="BV.h">
<polygon fill="white" stroke="black" points="901,-260.5 901,-279.5 939,-279.5 939,-260.5 901,-260.5"/>
<text text-anchor="middle" x="920" y="-267.5" font-family="Helvetica,sans-Serif" font-size="10.00">BV.h</text>
</a>
</g>
</g>
<!-- Node1&#45;&gt;Node2 -->
<g id="edge1" class="edge"><title>Node1&#45;&gt;Node2</title>
<path fill="none" stroke="midnightblue" d="M970.686,-310.101C958.088,-300.382 942.072,-288.027 931.451,-279.834"/>
<polygon fill="midnightblue" stroke="midnightblue" points="968.698,-312.987 978.753,-316.324 972.973,-307.445 968.698,-312.987"/>
</g>
<!-- Node23 -->
<g id="node23" class="node"><title>Node23</title>
<g id="a_node23"><a xlink:href="a00268.html" target="_top" xlink:title="BV_fitter.h">
<polygon fill="white" stroke="black" points="958.5,-204.5 958.5,-223.5 1021.5,-223.5 1021.5,-204.5 958.5,-204.5"/>
<text text-anchor="middle" x="990" y="-211.5" font-family="Helvetica,sans-Serif" font-size="10.00">BV_fitter.h</text>
</a>
</g>
</g>
<!-- Node1&#45;&gt;Node23 -->
<g id="edge41" class="edge"><title>Node1&#45;&gt;Node23</title>
<path fill="none" stroke="midnightblue" d="M990,-306.348C990,-282.254 990,-241.308 990,-223.591"/>
<polygon fill="midnightblue" stroke="midnightblue" points="986.5,-306.368 990,-316.368 993.5,-306.369 986.5,-306.368"/>
</g>
<!-- Node24 -->
<g id="node24" class="node"><title>Node24</title>
<g id="a_node24"><a xlink:href="a00270.html" target="_top" xlink:title="BV_splitter.h">
<polygon fill="white" stroke="black" points="1081.5,-260.5 1081.5,-279.5 1154.5,-279.5 1154.5,-260.5 1081.5,-260.5"/>
<text text-anchor="middle" x="1118" y="-267.5" font-family="Helvetica,sans-Serif" font-size="10.00">BV_splitter.h</text>
</a>
</g>
</g>
<!-- Node1&#45;&gt;Node24 -->
<g id="edge43" class="edge"><title>Node1&#45;&gt;Node24</title>
<path fill="none" stroke="midnightblue" d="M1019.62,-312.503C1043.62,-302.38 1076.78,-288.388 1097.81,-279.516"/>
<polygon fill="midnightblue" stroke="midnightblue" points="1018.14,-309.332 1010.28,-316.444 1020.86,-315.781 1018.14,-309.332"/>
</g>
<!-- Node3 -->
<g id="node3" class="node"><title>Node3</title>
<g id="a_node3"><a xlink:href="a00260.html" target="_top" xlink:title="broadphase_dynamic\l_AABB_tree.h">
<polygon fill="white" stroke="black" points="430.5,-137 430.5,-167 539.5,-167 539.5,-137 430.5,-137"/>
<text text-anchor="start" x="438.5" y="-155" font-family="Helvetica,sans-Serif" font-size="10.00">broadphase_dynamic</text>
<text text-anchor="middle" x="485" y="-144" font-family="Helvetica,sans-Serif" font-size="10.00">_AABB_tree.h</text>
</a>
</g>
</g>
<!-- Node2&#45;&gt;Node3 -->
<g id="edge2" class="edge"><title>Node2&#45;&gt;Node3</title>
<path fill="none" stroke="midnightblue" d="M890.669,-267.797C836.246,-264.869 716.482,-255.14 621,-224 578.205,-210.043 532.643,-183.571 506.618,-167.191"/>
<polygon fill="midnightblue" stroke="midnightblue" points="890.796,-271.308 900.958,-268.31 891.145,-264.317 890.796,-271.308"/>
</g>
<!-- Node10 -->
<g id="node10" class="node"><title>Node10</title>
<g id="a_node10"><a xlink:href="a00261.html" target="_top" xlink:title="broadphase_dynamic\l_AABB_tree_array.h">
<polygon fill="white" stroke="black" points="652.5,-1 652.5,-31 761.5,-31 761.5,-1 652.5,-1"/>
<text text-anchor="start" x="660.5" y="-19" font-family="Helvetica,sans-Serif" font-size="10.00">broadphase_dynamic</text>
<text text-anchor="middle" x="707" y="-8" font-family="Helvetica,sans-Serif" font-size="10.00">_AABB_tree_array.h</text>
</a>
</g>
</g>
<!-- Node2&#45;&gt;Node10 -->
<g id="edge26" class="edge"><title>Node2&#45;&gt;Node10</title>
<path fill="none" stroke="midnightblue" d="M890.863,-269.961C850.372,-269.716 777.004,-263.329 732,-224 677.377,-176.266 668.748,-138.92 684,-68 686.818,-54.8958 693.282,-41.0996 698.641,-31.1653"/>
<polygon fill="midnightblue" stroke="midnightblue" points="890.909,-273.461 900.887,-269.899 890.865,-266.461 890.909,-273.461"/>
</g>
<!-- Node11 -->
<g id="node11" class="node"><title>Node11</title>
<g id="a_node11"><a xlink:href="a00293.html" target="_top" xlink:title="geometric_shapes_utility.h">
<polygon fill="white" stroke="black" points="741.5,-204.5 741.5,-223.5 874.5,-223.5 874.5,-204.5 741.5,-204.5"/>
<text text-anchor="middle" x="808" y="-211.5" font-family="Helvetica,sans-Serif" font-size="10.00">geometric_shapes_utility.h</text>
</a>
</g>
</g>
<!-- Node2&#45;&gt;Node11 -->
<g id="edge17" class="edge"><title>Node2&#45;&gt;Node11</title>
<path fill="none" stroke="midnightblue" d="M892.751,-255.862C871.984,-245.849 843.977,-232.346 825.95,-223.655"/>
<polygon fill="midnightblue" stroke="midnightblue" points="891.477,-259.134 902.005,-260.324 894.518,-252.828 891.477,-259.134"/>
</g>
<!-- Node15 -->
<g id="node15" class="node"><title>Node15</title>
<g id="a_node15"><a xlink:href="a00354.html" target="_top" xlink:title="traversal_node_shapes.h">
<polygon fill="white" stroke="black" points="857.5,-142.5 857.5,-161.5 982.5,-161.5 982.5,-142.5 857.5,-142.5"/>
<text text-anchor="middle" x="920" y="-149.5" font-family="Helvetica,sans-Serif" font-size="10.00">traversal_node_shapes.h</text>
</a>
</g>
</g>
<!-- Node2&#45;&gt;Node15 -->
<g id="edge40" class="edge"><title>Node2&#45;&gt;Node15</title>
<path fill="none" stroke="midnightblue" d="M920,-250.025C920,-224.464 920,-180.041 920,-161.505"/>
<polygon fill="midnightblue" stroke="midnightblue" points="916.5,-250.281 920,-260.281 923.5,-250.281 916.5,-250.281"/>
</g>
<!-- Node16 -->
<g id="node16" class="node"><title>Node16</title>
<g id="a_node16"><a xlink:href="a00269.html" target="_top" xlink:title="BV_node.h">
<polygon fill="white" stroke="black" points="1039.5,-204.5 1039.5,-223.5 1104.5,-223.5 1104.5,-204.5 1039.5,-204.5"/>
<text text-anchor="middle" x="1072" y="-211.5" font-family="Helvetica,sans-Serif" font-size="10.00">BV_node.h</text>
</a>
</g>
</g>
<!-- Node2&#45;&gt;Node16 -->
<g id="edge27" class="edge"><title>Node2&#45;&gt;Node16</title>
<path fill="none" stroke="midnightblue" d="M948.721,-258.796C977.398,-248.609 1020.97,-233.128 1047.9,-223.561"/>
<polygon fill="midnightblue" stroke="midnightblue" points="947.502,-255.515 939.251,-262.161 949.846,-262.111 947.502,-255.515"/>
</g>
<!-- Node19 -->
<g id="node19" class="node"><title>Node19</title>
<g id="a_node19"><a xlink:href="a00351.html" target="_top" xlink:title="traversal_node_bvhs.h">
<polygon fill="white" stroke="black" points="1212.5,-74.5 1212.5,-93.5 1327.5,-93.5 1327.5,-74.5 1212.5,-74.5"/>
<text text-anchor="middle" x="1270" y="-81.5" font-family="Helvetica,sans-Serif" font-size="10.00">traversal_node_bvhs.h</text>
</a>
</g>
</g>
<!-- Node2&#45;&gt;Node19 -->
<g id="edge39" class="edge"><title>Node2&#45;&gt;Node19</title>
<path fill="none" stroke="midnightblue" d="M949.336,-266.671C988.557,-262.579 1059.35,-251.715 1113,-224 1180.6,-189.077 1242.46,-118.531 1262.9,-93.8039"/>
<polygon fill="midnightblue" stroke="midnightblue" points="948.769,-263.209 939.152,-267.654 949.442,-270.177 948.769,-263.209"/>
</g>
<!-- Node4 -->
<g id="node4" class="node"><title>Node4</title>
<g id="a_node4"><a xlink:href="a00258.html" target="_top" xlink:title="broadphase.h">
<polygon fill="white" stroke="black" points="414.5,-74.5 414.5,-93.5 489.5,-93.5 489.5,-74.5 414.5,-74.5"/>
<text text-anchor="middle" x="452" y="-81.5" font-family="Helvetica,sans-Serif" font-size="10.00">broadphase.h</text>
</a>
</g>
</g>
<!-- Node3&#45;&gt;Node4 -->
<g id="edge3" class="edge"><title>Node3&#45;&gt;Node4</title>
<path fill="none" stroke="midnightblue" d="M466.911,-127.78C460.371,-116.037 454.161,-102.479 451.641,-93.8283"/>
<polygon fill="midnightblue" stroke="midnightblue" points="464.065,-129.845 472.161,-136.679 470.094,-126.288 464.065,-129.845"/>
</g>
<!-- Node4&#45;&gt;Node3 -->
<g id="edge14" class="edge"><title>Node4&#45;&gt;Node3</title>
<path fill="none" stroke="midnightblue" d="M466.69,-102.335C473.113,-113.033 479.777,-126.592 483.518,-136.679"/>
<polygon fill="midnightblue" stroke="midnightblue" points="469.558,-100.324 461.188,-93.8283 463.68,-104.126 469.558,-100.324"/>
</g>
<!-- Node5 -->
<g id="node5" class="node"><title>Node5</title>
<g id="a_node5"><a xlink:href="a00259.html" target="_top" xlink:title="broadphase_bruteforce.h">
<polygon fill="white" stroke="black" points="245,-6.5 245,-25.5 369,-25.5 369,-6.5 245,-6.5"/>
<text text-anchor="middle" x="307" y="-13.5" font-family="Helvetica,sans-Serif" font-size="10.00">broadphase_bruteforce.h</text>
</a>
</g>
</g>
<!-- Node4&#45;&gt;Node5 -->
<g id="edge4" class="edge"><title>Node4&#45;&gt;Node5</title>
<path fill="none" stroke="midnightblue" d="M418.825,-70.3772C388.025,-57.2472 343.879,-37.0452 321.229,-25.6305"/>
<polygon fill="midnightblue" stroke="midnightblue" points="417.738,-73.7169 428.313,-74.3717 420.454,-67.2654 417.738,-73.7169"/>
</g>
<!-- Node6 -->
<g id="node6" class="node"><title>Node6</title>
<g id="a_node6"><a xlink:href="a00264.html" target="_top" xlink:title="broadphase_spatialhash.h">
<polygon fill="white" stroke="black" points="387,-6.5 387,-25.5 517,-25.5 517,-6.5 387,-6.5"/>
<text text-anchor="middle" x="452" y="-13.5" font-family="Helvetica,sans-Serif" font-size="10.00">broadphase_spatialhash.h</text>
</a>
</g>
</g>
<!-- Node4&#45;&gt;Node6 -->
<g id="edge6" class="edge"><title>Node4&#45;&gt;Node6</title>
<path fill="none" stroke="midnightblue" d="M445.859,-64.425C444.722,-51.7978 445.177,-35.6623 447.224,-25.8411"/>
<polygon fill="midnightblue" stroke="midnightblue" points="442.4,-64.9616 447.269,-74.3717 449.331,-63.9795 442.4,-64.9616"/>
</g>
<!-- Node7 -->
<g id="node7" class="node"><title>Node7</title>
<g id="a_node7"><a xlink:href="a00263.html" target="_top" xlink:title="broadphase_SaP.h">
<polygon fill="white" stroke="black" points="535.5,-6.5 535.5,-25.5 634.5,-25.5 634.5,-6.5 535.5,-6.5"/>
<text text-anchor="middle" x="585" y="-13.5" font-family="Helvetica,sans-Serif" font-size="10.00">broadphase_SaP.h</text>
</a>
</g>
</g>
<!-- Node4&#45;&gt;Node7 -->
<g id="edge8" class="edge"><title>Node4&#45;&gt;Node7</title>
<path fill="none" stroke="midnightblue" d="M473.608,-69.5149C498.264,-56.3767 537.996,-36.7981 562.877,-25.6305"/>
<polygon fill="midnightblue" stroke="midnightblue" points="471.777,-66.5264 464.656,-74.3717 475.115,-72.6792 471.777,-66.5264"/>
</g>
<!-- Node8 -->
<g id="node8" class="node"><title>Node8</title>
<g id="a_node8"><a xlink:href="a00266.html" target="_top" xlink:title="broadphase_SSaP.h">
<polygon fill="white" stroke="black" points="-1,-6.5 -1,-25.5 105,-25.5 105,-6.5 -1,-6.5"/>
<text text-anchor="middle" x="52" y="-13.5" font-family="Helvetica,sans-Serif" font-size="10.00">broadphase_SSaP.h</text>
</a>
</g>
</g>
<!-- Node4&#45;&gt;Node8 -->
<g id="edge10" class="edge"><title>Node4&#45;&gt;Node8</title>
<path fill="none" stroke="midnightblue" d="M404.154,-77.8574C336.801,-69.7463 210.86,-52.7506 105,-32 95.5452,-30.1467 85.3561,-27.8206 76.377,-25.5572"/>
<polygon fill="midnightblue" stroke="midnightblue" points="404.105,-81.3762 414.449,-79.0821 404.932,-74.4252 404.105,-81.3762"/>
</g>
<!-- Node9 -->
<g id="node9" class="node"><title>Node9</title>
<g id="a_node9"><a xlink:href="a00262.html" target="_top" xlink:title="broadphase_interval\l_tree.h">
<polygon fill="white" stroke="black" points="123,-1 123,-31 227,-31 227,-1 123,-1"/>
<text text-anchor="start" x="131" y="-19" font-family="Helvetica,sans-Serif" font-size="10.00">broadphase_interval</text>
<text text-anchor="middle" x="175" y="-8" font-family="Helvetica,sans-Serif" font-size="10.00">_tree.h</text>
</a>
</g>
</g>
<!-- Node4&#45;&gt;Node9 -->
<g id="edge12" class="edge"><title>Node4&#45;&gt;Node9</title>
<path fill="none" stroke="midnightblue" d="M404.433,-73.4672C358.666,-63.305 287.943,-46.6874 227,-32 225.728,-31.6934 224.441,-31.3826 223.144,-31.0686"/>
<polygon fill="midnightblue" stroke="midnightblue" points="403.855,-76.9237 414.374,-75.6585 405.362,-70.0879 403.855,-76.9237"/>
</g>
<!-- Node4&#45;&gt;Node10 -->
<g id="edge15" class="edge"><title>Node4&#45;&gt;Node10</title>
<path fill="none" stroke="midnightblue" d="M490.435,-71.6972C533.572,-60.0291 603.692,-41.8616 652.464,-29.7035"/>
<polygon fill="midnightblue" stroke="midnightblue" points="489.336,-68.369 480.606,-74.3717 491.174,-75.1234 489.336,-68.369"/>
</g>
<!-- Node5&#45;&gt;Node4 -->
<g id="edge5" class="edge"><title>Node5&#45;&gt;Node4</title>
<path fill="none" stroke="midnightblue" d="M339.925,-29.5165C370.739,-42.6445 415.066,-62.9265 437.775,-74.3717"/>
<polygon fill="midnightblue" stroke="midnightblue" points="341.015,-26.178 330.44,-25.5259 338.3,-32.6301 341.015,-26.178"/>
</g>
<!-- Node6&#45;&gt;Node4 -->
<g id="edge7" class="edge"><title>Node6&#45;&gt;Node4</title>
<path fill="none" stroke="midnightblue" d="M458.165,-35.8504C459.279,-48.528 458.801,-64.6426 456.731,-74.3717"/>
<polygon fill="midnightblue" stroke="midnightblue" points="461.618,-35.265 456.776,-25.8411 454.684,-36.2273 461.618,-35.265"/>
</g>
<!-- Node7&#45;&gt;Node4 -->
<g id="edge9" class="edge"><title>Node7&#45;&gt;Node4</title>
<path fill="none" stroke="midnightblue" d="M563.387,-30.4876C538.729,-43.6266 498.997,-63.2051 474.119,-74.3717"/>
<polygon fill="midnightblue" stroke="midnightblue" points="565.219,-33.4757 572.34,-25.6305 561.881,-27.3229 565.219,-33.4757"/>
</g>
<!-- Node8&#45;&gt;Node4 -->
<g id="edge11" class="edge"><title>Node8&#45;&gt;Node4</title>
<path fill="none" stroke="midnightblue" d="M103.787,-27.8918C110.274,-29.3639 116.795,-30.7837 123,-32 228.117,-52.605 353.034,-69.5077 414.418,-77.6853"/>
<polygon fill="midnightblue" stroke="midnightblue" points="104.201,-24.3955 93.6705,-25.5572 102.627,-31.2163 104.201,-24.3955"/>
</g>
<!-- Node9&#45;&gt;Node4 -->
<g id="edge13" class="edge"><title>Node9&#45;&gt;Node4</title>
<path fill="none" stroke="midnightblue" d="M237.061,-30.0809C239.75,-30.7321 242.406,-31.3748 245,-32 307.931,-47.1663 381.288,-64.3907 421.742,-74.4404"/>
<polygon fill="midnightblue" stroke="midnightblue" points="237.767,-26.6508 227.224,-27.7021 236.121,-33.4546 237.767,-26.6508"/>
</g>
<!-- Node10&#45;&gt;Node4 -->
<g id="edge16" class="edge"><title>Node10&#45;&gt;Node4</title>
<path fill="none" stroke="midnightblue" d="M648.288,-33.739C599.406,-46.7461 531.37,-64.2467 489.517,-74.5068"/>
<polygon fill="midnightblue" stroke="midnightblue" points="649.345,-37.0796 658.103,-31.1185 647.539,-30.3164 649.345,-37.0796"/>
</g>
<!-- Node11&#45;&gt;Node3 -->
<g id="edge18" class="edge"><title>Node11&#45;&gt;Node3</title>
<path fill="none" stroke="midnightblue" d="M752.08,-202.612C692.499,-191.545 598.79,-174.137 539.685,-163.158"/>
<polygon fill="midnightblue" stroke="midnightblue" points="751.594,-206.082 762.065,-204.467 752.872,-199.2 751.594,-206.082"/>
</g>
<!-- Node11&#45;&gt;Node10 -->
<g id="edge19" class="edge"><title>Node11&#45;&gt;Node10</title>
<path fill="none" stroke="midnightblue" d="M784.97,-198.989C756.886,-180.393 710.836,-144.644 692,-100 682.323,-77.0644 692.113,-47.9889 699.783,-31.0422"/>
<polygon fill="midnightblue" stroke="midnightblue" points="783.096,-201.945 793.4,-204.414 786.884,-196.059 783.096,-201.945"/>
</g>
<!-- Node12 -->
<g id="node12" class="node"><title>Node12</title>
<g id="a_node12"><a xlink:href="a00350.html" target="_top" xlink:title="traversal_node_bvh\l_shape.h">
<polygon fill="white" stroke="black" points="701.5,-69 701.5,-99 802.5,-99 802.5,-69 701.5,-69"/>
<text text-anchor="start" x="709.5" y="-87" font-family="Helvetica,sans-Serif" font-size="10.00">traversal_node_bvh</text>
<text text-anchor="middle" x="752" y="-76" font-family="Helvetica,sans-Serif" font-size="10.00">_shape.h</text>
</a>
</g>
</g>
<!-- Node11&#45;&gt;Node12 -->
<g id="edge20" class="edge"><title>Node11&#45;&gt;Node12</title>
<path fill="none" stroke="midnightblue" d="M800.065,-194.863C788.8,-169.114 768.407,-122.502 758.188,-99.1431"/>
<polygon fill="midnightblue" stroke="midnightblue" points="796.936,-196.443 804.151,-204.202 803.349,-193.638 796.936,-196.443"/>
</g>
<!-- Node14 -->
<g id="node14" class="node"><title>Node14</title>
<g id="a_node14"><a xlink:href="a00352.html" target="_top" xlink:title="traversal_node_octree.h">
<polygon fill="white" stroke="black" points="820.5,-74.5 820.5,-93.5 941.5,-93.5 941.5,-74.5 820.5,-74.5"/>
<text text-anchor="middle" x="881" y="-81.5" font-family="Helvetica,sans-Serif" font-size="10.00">traversal_node_octree.h</text>
</a>
</g>
</g>
<!-- Node11&#45;&gt;Node14 -->
<g id="edge22" class="edge"><title>Node11&#45;&gt;Node14</title>
<path fill="none" stroke="midnightblue" d="M816.999,-195.244C825.081,-179.51 837.422,-155.998 849,-136 857.799,-120.803 868.831,-103.588 875.375,-93.5487"/>
<polygon fill="midnightblue" stroke="midnightblue" points="813.783,-193.847 812.354,-204.345 820.017,-197.029 813.783,-193.847"/>
</g>
<!-- Node11&#45;&gt;Node15 -->
<g id="edge24" class="edge"><title>Node11&#45;&gt;Node15</title>
<path fill="none" stroke="midnightblue" d="M833.013,-199.6C854.705,-187.98 885.449,-171.509 903.983,-161.581"/>
<polygon fill="midnightblue" stroke="midnightblue" points="831.209,-196.596 824.047,-204.403 834.514,-202.766 831.209,-196.596"/>
</g>
<!-- Node13 -->
<g id="node13" class="node"><title>Node13</title>
<g id="a_node13"><a xlink:href="a00353.html" target="_top" xlink:title="traversal_node_setup.h">
<polygon fill="white" stroke="black" points="911,-6.5 911,-25.5 1029,-25.5 1029,-6.5 911,-6.5"/>
<text text-anchor="middle" x="970" y="-13.5" font-family="Helvetica,sans-Serif" font-size="10.00">traversal_node_setup.h</text>
</a>
</g>
</g>
<!-- Node12&#45;&gt;Node13 -->
<g id="edge21" class="edge"><title>Node12&#45;&gt;Node13</title>
<path fill="none" stroke="midnightblue" d="M808.23,-65.9763C851.064,-53.0082 908.227,-35.7018 941.879,-25.5138"/>
<polygon fill="midnightblue" stroke="midnightblue" points="807.056,-62.6747 798.499,-68.9223 809.084,-69.3744 807.056,-62.6747"/>
</g>
<!-- Node14&#45;&gt;Node13 -->
<g id="edge23" class="edge"><title>Node14&#45;&gt;Node13</title>
<path fill="none" stroke="midnightblue" d="M901.098,-68.0961C918.756,-55.0012 943.836,-36.4028 958.362,-25.6305"/>
<polygon fill="midnightblue" stroke="midnightblue" points="898.583,-65.6037 892.635,-74.3717 902.752,-71.2264 898.583,-65.6037"/>
</g>
<!-- Node15&#45;&gt;Node13 -->
<g id="edge25" class="edge"><title>Node15&#45;&gt;Node13</title>
<path fill="none" stroke="midnightblue" d="M931.822,-133.84C937.981,-124.244 945.208,-111.857 950,-100 960.442,-74.1646 966.333,-41.5125 968.726,-25.9889"/>
<polygon fill="midnightblue" stroke="midnightblue" points="928.764,-132.117 926.147,-142.384 934.595,-135.99 928.764,-132.117"/>
</g>
<!-- Node17 -->
<g id="node17" class="node"><title>Node17</title>
<g id="a_node17"><a xlink:href="a00273.html" target="_top" xlink:title="BVH_model.h">
<polygon fill="white" stroke="black" points="1007.5,-142.5 1007.5,-161.5 1084.5,-161.5 1084.5,-142.5 1007.5,-142.5"/>
<text text-anchor="middle" x="1046" y="-149.5" font-family="Helvetica,sans-Serif" font-size="10.00">BVH_model.h</text>
</a>
</g>
</g>
<!-- Node16&#45;&gt;Node17 -->
<g id="edge28" class="edge"><title>Node16&#45;&gt;Node17</title>
<path fill="none" stroke="midnightblue" d="M1064.28,-195.186C1059.47,-184.087 1053.5,-170.307 1049.72,-161.581"/>
<polygon fill="midnightblue" stroke="midnightblue" points="1061.09,-196.62 1068.27,-204.403 1067.51,-193.836 1061.09,-196.62"/>
</g>
<!-- Node16&#45;&gt;Node19 -->
<g id="edge38" class="edge"><title>Node16&#45;&gt;Node19</title>
<path fill="none" stroke="midnightblue" d="M1082.69,-195.85C1094.21,-178.617 1114.02,-152.334 1137,-136 1166.43,-115.082 1205.55,-101.436 1233.74,-93.5703"/>
<polygon fill="midnightblue" stroke="midnightblue" points="1079.67,-194.076 1077.18,-204.373 1085.55,-197.88 1079.67,-194.076"/>
</g>
<!-- Node17&#45;&gt;Node12 -->
<g id="edge36" class="edge"><title>Node17&#45;&gt;Node12</title>
<path fill="none" stroke="midnightblue" d="M1006.37,-139.847C1001.21,-138.497 995.989,-137.181 991,-136 912.032,-117.313 891.162,-117.846 812,-100 808.962,-99.3152 805.843,-98.5931 802.699,-97.8509"/>
<polygon fill="midnightblue" stroke="midnightblue" points="1005.56,-143.254 1016.12,-142.456 1007.37,-136.491 1005.56,-143.254"/>
</g>
<!-- Node17&#45;&gt;Node14 -->
<g id="edge37" class="edge"><title>Node17&#45;&gt;Node14</title>
<path fill="none" stroke="midnightblue" d="M1014.84,-138.536C981.926,-125.371 930.918,-104.967 902.315,-93.5259"/>
<polygon fill="midnightblue" stroke="midnightblue" points="1013.84,-141.907 1024.43,-142.372 1016.44,-135.408 1013.84,-141.907"/>
</g>
<!-- Node18 -->
<g id="node18" class="node"><title>Node18</title>
<g id="a_node18"><a xlink:href="a00274.html" target="_top" xlink:title="BVH_utility.h">
<polygon fill="white" stroke="black" points="1120,-74.5 1120,-93.5 1194,-93.5 1194,-74.5 1120,-74.5"/>
<text text-anchor="middle" x="1157" y="-81.5" font-family="Helvetica,sans-Serif" font-size="10.00">BVH_utility.h</text>
</a>
</g>
</g>
<!-- Node17&#45;&gt;Node18 -->
<g id="edge29" class="edge"><title>Node17&#45;&gt;Node18</title>
<path fill="none" stroke="midnightblue" d="M1069.27,-137.165C1091.36,-124.031 1123.87,-104.699 1142.49,-93.6305"/>
<polygon fill="midnightblue" stroke="midnightblue" points="1067.32,-134.252 1060.51,-142.372 1070.9,-140.269 1067.32,-134.252"/>
</g>
<!-- Node17&#45;&gt;Node19 -->
<g id="edge31" class="edge"><title>Node17&#45;&gt;Node19</title>
<path fill="none" stroke="midnightblue" d="M1084.89,-139.543C1129.38,-126.432 1201.23,-105.263 1241.06,-93.5259"/>
<polygon fill="midnightblue" stroke="midnightblue" points="1083.89,-136.188 1075.28,-142.372 1085.87,-142.903 1083.89,-136.188"/>
</g>
<!-- Node22 -->
<g id="node22" class="node"><title>Node22</title>
<g id="a_node22"><a xlink:href="a00291.html" target="_top" xlink:title="geometric_shape_to\l_BVH_model.h">
<polygon fill="white" stroke="black" points="998,-69 998,-99 1102,-99 1102,-69 998,-69"/>
<text text-anchor="start" x="1006" y="-87" font-family="Helvetica,sans-Serif" font-size="10.00">geometric_shape_to</text>
<text text-anchor="middle" x="1050" y="-76" font-family="Helvetica,sans-Serif" font-size="10.00">_BVH_model.h</text>
</a>
</g>
</g>
<!-- Node17&#45;&gt;Node22 -->
<g id="edge35" class="edge"><title>Node17&#45;&gt;Node22</title>
<path fill="none" stroke="midnightblue" d="M1047.14,-132.174C1047.78,-121.678 1048.56,-108.821 1049.14,-99.1815"/>
<polygon fill="midnightblue" stroke="midnightblue" points="1043.63,-132.178 1046.52,-142.372 1050.62,-132.602 1043.63,-132.178"/>
</g>
<!-- Node18&#45;&gt;Node13 -->
<g id="edge30" class="edge"><title>Node18&#45;&gt;Node13</title>
<path fill="none" stroke="midnightblue" d="M1123.12,-71.0432C1085.88,-57.8998 1026.99,-37.1153 994.157,-25.5259"/>
<polygon fill="midnightblue" stroke="midnightblue" points="1121.96,-74.3439 1132.55,-74.3717 1124.29,-67.7429 1121.96,-74.3439"/>
</g>
<!-- Node19&#45;&gt;Node13 -->
<g id="edge33" class="edge"><title>Node19&#45;&gt;Node13</title>
<path fill="none" stroke="midnightblue" d="M1222.12,-72.2511C1215.69,-70.8171 1209.19,-69.3695 1203,-68 1134.88,-52.9184 1055.49,-35.5955 1009.18,-25.5156"/>
<polygon fill="midnightblue" stroke="midnightblue" points="1221.57,-75.715 1232.09,-74.4805 1223.1,-68.8836 1221.57,-75.715"/>
</g>
<!-- Node20 -->
<g id="node20" class="node"><title>Node20</title>
<g id="a_node20"><a xlink:href="a00279.html" target="_top" xlink:title="collision_node.h">
<polygon fill="white" stroke="black" points="1171,-6.5 1171,-25.5 1257,-25.5 1257,-6.5 1171,-6.5"/>
<text text-anchor="middle" x="1214" y="-13.5" font-family="Helvetica,sans-Serif" font-size="10.00">collision_node.h</text>
</a>
</g>
</g>
<!-- Node19&#45;&gt;Node20 -->
<g id="edge32" class="edge"><title>Node19&#45;&gt;Node20</title>
<path fill="none" stroke="midnightblue" d="M1256.15,-66.68C1245.2,-53.7768 1230.34,-36.2575 1221.5,-25.8411"/>
<polygon fill="midnightblue" stroke="midnightblue" points="1253.54,-69.011 1262.68,-74.3717 1258.88,-64.4821 1253.54,-69.011"/>
</g>
<!-- Node21 -->
<g id="node21" class="node"><title>Node21</title>
<g id="a_node21"><a xlink:href="a00355.html" target="_top" xlink:title="traversal_recurse.h">
<polygon fill="white" stroke="black" points="1275,-6.5 1275,-25.5 1375,-25.5 1375,-6.5 1275,-6.5"/>
<text text-anchor="middle" x="1325" y="-13.5" font-family="Helvetica,sans-Serif" font-size="10.00">traversal_recurse.h</text>
</a>
</g>
</g>
<!-- Node19&#45;&gt;Node21 -->
<g id="edge34" class="edge"><title>Node19&#45;&gt;Node21</title>
<path fill="none" stroke="midnightblue" d="M1283.6,-66.68C1294.35,-53.7768 1308.95,-36.2575 1317.63,-25.8411"/>
<polygon fill="midnightblue" stroke="midnightblue" points="1280.9,-64.4488 1277.19,-74.3717 1286.28,-68.9301 1280.9,-64.4488"/>
</g>
<!-- Node23&#45;&gt;Node17 -->
<g id="edge42" class="edge"><title>Node23&#45;&gt;Node17</title>
<path fill="none" stroke="midnightblue" d="M1005.06,-196.863C1015.66,-185.506 1029.43,-170.752 1037.99,-161.581"/>
<polygon fill="midnightblue" stroke="midnightblue" points="1002.29,-194.705 998.023,-204.403 1007.41,-199.481 1002.29,-194.705"/>
</g>
<!-- Node24&#45;&gt;Node17 -->
<g id="edge44" class="edge"><title>Node24&#45;&gt;Node17</title>
<path fill="none" stroke="midnightblue" d="M1120.48,-250.262C1121.38,-236.62 1120.69,-218.135 1113,-204 1102.31,-184.355 1080.46,-169.975 1064.62,-161.584"/>
<polygon fill="midnightblue" stroke="midnightblue" points="1116.98,-250.081 1119.46,-260.381 1123.94,-250.783 1116.98,-250.081"/>
</g>
</g>
</svg>
