<?xml version="1.0" encoding="UTF-8" standalone="no"?>
<!DOCTYPE svg PUBLIC "-//W3C//DTD SVG 1.1//EN"
 "http://www.w3.org/Graphics/SVG/1.1/DTD/svg11.dtd">
<!-- Generated by graphviz version 2.36.0 (20140111.2315)
 -->
<!-- Title: geometric_shapes.h Pages: 1 -->
<svg width="802pt" height="344pt"
 viewBox="0.00 0.00 802.00 344.00" xmlns="http://www.w3.org/2000/svg" xmlns:xlink="http://www.w3.org/1999/xlink">
<g id="graph0" class="graph" transform="scale(1 1) rotate(0) translate(4 340)">
<title>geometric_shapes.h</title>
<polygon fill="white" stroke="none" points="-4,4 -4,-340 798,-340 798,4 -4,4"/>
<!-- Node1 -->
<g id="node1" class="node"><title>Node1</title>
<polygon fill="#bfbfbf" stroke="black" points="563,-316.5 563,-335.5 667,-335.5 667,-316.5 563,-316.5"/>
<text text-anchor="middle" x="615" y="-323.5" font-family="Helvetica,sans-Serif" font-size="10.00">geometric_shapes.h</text>
</g>
<!-- Node2 -->
<g id="node2" class="node"><title>Node2</title>
<g id="a_node2"><a xlink:href="a00293.html" target="_top" xlink:title="geometric_shapes_utility.h">
<polygon fill="white" stroke="black" points="369.5,-192.5 369.5,-211.5 502.5,-211.5 502.5,-192.5 369.5,-192.5"/>
<text text-anchor="middle" x="436" y="-199.5" font-family="Helvetica,sans-Serif" font-size="10.00">geometric_shapes_utility.h</text>
</a>
</g>
</g>
<!-- Node1&#45;&gt;Node2 -->
<g id="edge1" class="edge"><title>Node1&#45;&gt;Node2</title>
<path fill="none" stroke="midnightblue" d="M571.539,-313.436C549.135,-306.142 522.152,-295.191 501,-280 473.86,-260.508 451.035,-227.239 441.194,-211.602"/>
<polygon fill="midnightblue" stroke="midnightblue" points="570.563,-316.797 581.151,-316.435 572.648,-310.115 570.563,-316.797"/>
</g>
<!-- Node11 -->
<g id="node11" class="node"><title>Node11</title>
<g id="a_node11"><a xlink:href="a00350.html" target="_top" xlink:title="traversal_node_bvh\l_shape.h">
<polygon fill="white" stroke="black" points="651.5,-125 651.5,-155 752.5,-155 752.5,-125 651.5,-125"/>
<text text-anchor="start" x="659.5" y="-143" font-family="Helvetica,sans-Serif" font-size="10.00">traversal_node_bvh</text>
<text text-anchor="middle" x="702" y="-132" font-family="Helvetica,sans-Serif" font-size="10.00">_shape.h</text>
</a>
</g>
</g>
<!-- Node1&#45;&gt;Node11 -->
<g id="edge31" class="edge"><title>Node1&#45;&gt;Node11</title>
<path fill="none" stroke="midnightblue" d="M626.515,-307.897C631.844,-299.644 638.07,-289.493 643,-280 665.957,-235.796 687.337,-180.64 696.835,-155.139"/>
<polygon fill="midnightblue" stroke="midnightblue" points="623.575,-305.997 620.997,-316.274 629.421,-309.848 623.575,-305.997"/>
</g>
<!-- Node15 -->
<g id="node15" class="node"><title>Node15</title>
<g id="a_node15"><a xlink:href="a00294.html" target="_top" xlink:title="gjk.h">
<polygon fill="white" stroke="black" points="596,-254.5 596,-273.5 634,-273.5 634,-254.5 596,-254.5"/>
<text text-anchor="middle" x="615" y="-261.5" font-family="Helvetica,sans-Serif" font-size="10.00">gjk.h</text>
</a>
</g>
</g>
<!-- Node1&#45;&gt;Node15 -->
<g id="edge24" class="edge"><title>Node1&#45;&gt;Node15</title>
<path fill="none" stroke="midnightblue" d="M615,-306.16C615,-295.248 615,-282.04 615,-273.581"/>
<polygon fill="midnightblue" stroke="midnightblue" points="611.5,-306.403 615,-316.403 618.5,-306.403 611.5,-306.403"/>
</g>
<!-- Node17 -->
<g id="node17" class="node"><title>Node17</title>
<g id="a_node17"><a xlink:href="a00295.html" target="_top" xlink:title="gjk_libccd.h">
<polygon fill="white" stroke="black" points="510,-254.5 510,-273.5 578,-273.5 578,-254.5 510,-254.5"/>
<text text-anchor="middle" x="544" y="-261.5" font-family="Helvetica,sans-Serif" font-size="10.00">gjk_libccd.h</text>
</a>
</g>
</g>
<!-- Node1&#45;&gt;Node17 -->
<g id="edge28" class="edge"><title>Node1&#45;&gt;Node17</title>
<path fill="none" stroke="midnightblue" d="M597.068,-309.846C583.489,-298.371 565.323,-283.02 554.154,-273.581"/>
<polygon fill="midnightblue" stroke="midnightblue" points="594.93,-312.622 604.827,-316.403 599.449,-307.276 594.93,-312.622"/>
</g>
<!-- Node18 -->
<g id="node18" class="node"><title>Node18</title>
<g id="a_node18"><a xlink:href="a00291.html" target="_top" xlink:title="geometric_shape_to\l_BVH_model.h">
<polygon fill="white" stroke="black" points="690,-249 690,-279 794,-279 794,-249 690,-249"/>
<text text-anchor="start" x="698" y="-267" font-family="Helvetica,sans-Serif" font-size="10.00">geometric_shape_to</text>
<text text-anchor="middle" x="742" y="-256" font-family="Helvetica,sans-Serif" font-size="10.00">_BVH_model.h</text>
</a>
</g>
</g>
<!-- Node1&#45;&gt;Node18 -->
<g id="edge30" class="edge"><title>Node1&#45;&gt;Node18</title>
<path fill="none" stroke="midnightblue" d="M642.32,-312.093C662.845,-302.396 690.937,-289.124 712.069,-279.141"/>
<polygon fill="midnightblue" stroke="midnightblue" points="640.743,-308.967 633.196,-316.403 643.733,-315.296 640.743,-308.967"/>
</g>
<!-- Node3 -->
<g id="node3" class="node"><title>Node3</title>
<g id="a_node3"><a xlink:href="a00260.html" target="_top" xlink:title="broadphase_dynamic\l_AABB_tree.h">
<polygon fill="white" stroke="black" points="242.5,-125 242.5,-155 351.5,-155 351.5,-125 242.5,-125"/>
<text text-anchor="start" x="250.5" y="-143" font-family="Helvetica,sans-Serif" font-size="10.00">broadphase_dynamic</text>
<text text-anchor="middle" x="297" y="-132" font-family="Helvetica,sans-Serif" font-size="10.00">_AABB_tree.h</text>
</a>
</g>
</g>
<!-- Node2&#45;&gt;Node3 -->
<g id="edge2" class="edge"><title>Node2&#45;&gt;Node3</title>
<path fill="none" stroke="midnightblue" d="M406.673,-188.341C384.075,-178.586 352.847,-165.107 329.492,-155.025"/>
<polygon fill="midnightblue" stroke="midnightblue" points="405.516,-191.654 416.085,-192.403 408.291,-185.227 405.516,-191.654"/>
</g>
<!-- Node10 -->
<g id="node10" class="node"><title>Node10</title>
<g id="a_node10"><a xlink:href="a00261.html" target="_top" xlink:title="broadphase_dynamic\l_AABB_tree_array.h">
<polygon fill="white" stroke="black" points="-0.5,-1 -0.5,-31 108.5,-31 108.5,-1 -0.5,-1"/>
<text text-anchor="start" x="7.5" y="-19" font-family="Helvetica,sans-Serif" font-size="10.00">broadphase_dynamic</text>
<text text-anchor="middle" x="54" y="-8" font-family="Helvetica,sans-Serif" font-size="10.00">_AABB_tree_array.h</text>
</a>
</g>
</g>
<!-- Node2&#45;&gt;Node10 -->
<g id="edge17" class="edge"><title>Node2&#45;&gt;Node10</title>
<path fill="none" stroke="midnightblue" d="M358.885,-192.105C319.821,-185.59 272.44,-174.529 233,-156 163.558,-123.375 96.0478,-59.8022 67.818,-31.3582"/>
<polygon fill="midnightblue" stroke="midnightblue" points="358.72,-195.623 369.147,-193.745 359.825,-188.711 358.72,-195.623"/>
</g>
<!-- Node2&#45;&gt;Node11 -->
<g id="edge18" class="edge"><title>Node2&#45;&gt;Node11</title>
<path fill="none" stroke="midnightblue" d="M486.658,-190.375C528.415,-181.512 589.15,-168.376 642,-156 645.032,-155.29 648.147,-154.548 651.287,-153.792"/>
<polygon fill="midnightblue" stroke="midnightblue" points="485.789,-186.982 476.731,-192.478 487.239,-193.83 485.789,-186.982"/>
</g>
<!-- Node13 -->
<g id="node13" class="node"><title>Node13</title>
<g id="a_node13"><a xlink:href="a00352.html" target="_top" xlink:title="traversal_node_octree.h">
<polygon fill="white" stroke="black" points="512.5,-130.5 512.5,-149.5 633.5,-149.5 633.5,-130.5 512.5,-130.5"/>
<text text-anchor="middle" x="573" y="-137.5" font-family="Helvetica,sans-Serif" font-size="10.00">traversal_node_octree.h</text>
</a>
</g>
</g>
<!-- Node2&#45;&gt;Node13 -->
<g id="edge20" class="edge"><title>Node2&#45;&gt;Node13</title>
<path fill="none" stroke="midnightblue" d="M464.829,-188.374C491.436,-176.721 530.229,-159.732 553.408,-149.581"/>
<polygon fill="midnightblue" stroke="midnightblue" points="463.385,-185.186 455.629,-192.403 466.193,-191.598 463.385,-185.186"/>
</g>
<!-- Node14 -->
<g id="node14" class="node"><title>Node14</title>
<g id="a_node14"><a xlink:href="a00354.html" target="_top" xlink:title="traversal_node_shapes.h">
<polygon fill="white" stroke="black" points="369.5,-130.5 369.5,-149.5 494.5,-149.5 494.5,-130.5 369.5,-130.5"/>
<text text-anchor="middle" x="432" y="-137.5" font-family="Helvetica,sans-Serif" font-size="10.00">traversal_node_shapes.h</text>
</a>
</g>
</g>
<!-- Node2&#45;&gt;Node14 -->
<g id="edge22" class="edge"><title>Node2&#45;&gt;Node14</title>
<path fill="none" stroke="midnightblue" d="M434.744,-182.16C434.017,-171.248 433.136,-158.04 432.572,-149.581"/>
<polygon fill="midnightblue" stroke="midnightblue" points="431.269,-182.658 435.427,-192.403 438.254,-182.193 431.269,-182.658"/>
</g>
<!-- Node4 -->
<g id="node4" class="node"><title>Node4</title>
<g id="a_node4"><a xlink:href="a00258.html" target="_top" xlink:title="broadphase.h">
<polygon fill="white" stroke="black" points="259.5,-68.5 259.5,-87.5 334.5,-87.5 334.5,-68.5 259.5,-68.5"/>
<text text-anchor="middle" x="297" y="-75.5" font-family="Helvetica,sans-Serif" font-size="10.00">broadphase.h</text>
</a>
</g>
</g>
<!-- Node3&#45;&gt;Node4 -->
<g id="edge3" class="edge"><title>Node3&#45;&gt;Node4</title>
<path fill="none" stroke="midnightblue" d="M290.355,-114.586C289.993,-105.074 290.565,-94.7864 292.071,-87.7305"/>
<polygon fill="midnightblue" stroke="midnightblue" points="286.884,-115.087 291.16,-124.781 293.862,-114.536 286.884,-115.087"/>
</g>
<!-- Node4&#45;&gt;Node3 -->
<g id="edge14" class="edge"><title>Node4&#45;&gt;Node3</title>
<path fill="none" stroke="midnightblue" d="M303.307,-97.725C304.026,-106.462 303.87,-116.691 302.84,-124.781"/>
<polygon fill="midnightblue" stroke="midnightblue" points="306.762,-97.1589 301.929,-87.7305 299.828,-98.1148 306.762,-97.1589"/>
</g>
<!-- Node5 -->
<g id="node5" class="node"><title>Node5</title>
<g id="a_node5"><a xlink:href="a00259.html" target="_top" xlink:title="broadphase_bruteforce.h">
<polygon fill="white" stroke="black" points="490,-6.5 490,-25.5 614,-25.5 614,-6.5 490,-6.5"/>
<text text-anchor="middle" x="552" y="-13.5" font-family="Helvetica,sans-Serif" font-size="10.00">broadphase_bruteforce.h</text>
</a>
</g>
</g>
<!-- Node4&#45;&gt;Node5 -->
<g id="edge4" class="edge"><title>Node4&#45;&gt;Node5</title>
<path fill="none" stroke="midnightblue" d="M338.352,-66.0084C385.969,-54.3341 463.499,-36.1294 510.98,-25.5034"/>
<polygon fill="midnightblue" stroke="midnightblue" points="337.249,-62.6755 328.378,-68.4672 338.925,-69.472 337.249,-62.6755"/>
</g>
<!-- Node6 -->
<g id="node6" class="node"><title>Node6</title>
<g id="a_node6"><a xlink:href="a00264.html" target="_top" xlink:title="broadphase_spatialhash.h">
<polygon fill="white" stroke="black" points="632,-6.5 632,-25.5 762,-25.5 762,-6.5 632,-6.5"/>
<text text-anchor="middle" x="697" y="-13.5" font-family="Helvetica,sans-Serif" font-size="10.00">broadphase_spatialhash.h</text>
</a>
</g>
</g>
<!-- Node4&#45;&gt;Node6 -->
<g id="edge6" class="edge"><title>Node4&#45;&gt;Node6</title>
<path fill="none" stroke="midnightblue" d="M345.084,-70.4642C407.193,-62.4743 518.228,-48.0235 613,-32 624.26,-30.0962 636.419,-27.7788 647.943,-25.5404"/>
<polygon fill="midnightblue" stroke="midnightblue" points="344.281,-67.0385 334.809,-71.785 345.174,-73.9814 344.281,-67.0385"/>
</g>
<!-- Node7 -->
<g id="node7" class="node"><title>Node7</title>
<g id="a_node7"><a xlink:href="a00263.html" target="_top" xlink:title="broadphase_SaP.h">
<polygon fill="white" stroke="black" points="126.5,-6.5 126.5,-25.5 225.5,-25.5 225.5,-6.5 126.5,-6.5"/>
<text text-anchor="middle" x="176" y="-13.5" font-family="Helvetica,sans-Serif" font-size="10.00">broadphase_SaP.h</text>
</a>
</g>
</g>
<!-- Node4&#45;&gt;Node7 -->
<g id="edge8" class="edge"><title>Node4&#45;&gt;Node7</title>
<path fill="none" stroke="midnightblue" d="M265.584,-64.2207C240.402,-52.5726 206.599,-35.6874 188.407,-25.5806"/>
<polygon fill="midnightblue" stroke="midnightblue" points="264.212,-67.4415 274.763,-68.4035 267.115,-61.0717 264.212,-67.4415"/>
</g>
<!-- Node8 -->
<g id="node8" class="node"><title>Node8</title>
<g id="a_node8"><a xlink:href="a00266.html" target="_top" xlink:title="broadphase_SSaP.h">
<polygon fill="white" stroke="black" points="244,-6.5 244,-25.5 350,-25.5 350,-6.5 244,-6.5"/>
<text text-anchor="middle" x="297" y="-13.5" font-family="Helvetica,sans-Serif" font-size="10.00">broadphase_SSaP.h</text>
</a>
</g>
</g>
<!-- Node4&#45;&gt;Node8 -->
<g id="edge10" class="edge"><title>Node4&#45;&gt;Node8</title>
<path fill="none" stroke="midnightblue" d="M290.683,-58.1595C289.797,-47.2482 290.27,-34.04 292.103,-25.5806"/>
<polygon fill="midnightblue" stroke="midnightblue" points="287.263,-58.9769 292.099,-68.4035 294.197,-58.0184 287.263,-58.9769"/>
</g>
<!-- Node9 -->
<g id="node9" class="node"><title>Node9</title>
<g id="a_node9"><a xlink:href="a00262.html" target="_top" xlink:title="broadphase_interval\l_tree.h">
<polygon fill="white" stroke="black" points="368,-1 368,-31 472,-31 472,-1 368,-1"/>
<text text-anchor="start" x="376" y="-19" font-family="Helvetica,sans-Serif" font-size="10.00">broadphase_interval</text>
<text text-anchor="middle" x="420" y="-8" font-family="Helvetica,sans-Serif" font-size="10.00">_tree.h</text>
</a>
</g>
</g>
<!-- Node4&#45;&gt;Node9 -->
<g id="edge12" class="edge"><title>Node4&#45;&gt;Node9</title>
<path fill="none" stroke="midnightblue" d="M318.587,-63.6791C337.123,-53.9835 363.952,-40.8808 385.433,-31.0253"/>
<polygon fill="midnightblue" stroke="midnightblue" points="316.901,-60.6115 309.722,-68.4035 320.193,-66.789 316.901,-60.6115"/>
</g>
<!-- Node4&#45;&gt;Node10 -->
<g id="edge15" class="edge"><title>Node4&#45;&gt;Node10</title>
<path fill="none" stroke="midnightblue" d="M249.544,-66.5816C207.926,-56.7444 147.698,-41.9191 105.052,-31.0419"/>
<polygon fill="midnightblue" stroke="midnightblue" points="248.904,-70.0263 259.439,-68.9081 250.506,-63.2121 248.904,-70.0263"/>
</g>
<!-- Node5&#45;&gt;Node4 -->
<g id="edge5" class="edge"><title>Node5&#45;&gt;Node4</title>
<path fill="none" stroke="midnightblue" d="M510.584,-28.0071C461.772,-39.9739 381.587,-58.7891 334.517,-69.2789"/>
<polygon fill="midnightblue" stroke="midnightblue" points="511.629,-31.3544 520.501,-25.5629 509.954,-24.5578 511.629,-31.3544"/>
</g>
<!-- Node6&#45;&gt;Node4 -->
<g id="edge7" class="edge"><title>Node6&#45;&gt;Node4</title>
<path fill="none" stroke="midnightblue" d="M655.314,-27.5419C647.279,-29.1183 638.917,-30.6614 631,-32 524.287,-50.0425 396.952,-66.0911 334.709,-73.1669"/>
<polygon fill="midnightblue" stroke="midnightblue" points="656.147,-30.9445 665.26,-25.5404 654.766,-24.0821 656.147,-30.9445"/>
</g>
<!-- Node7&#45;&gt;Node4 -->
<g id="edge9" class="edge"><title>Node7&#45;&gt;Node4</title>
<path fill="none" stroke="midnightblue" d="M207.376,-29.761C232.549,-41.4036 266.355,-58.2896 284.564,-68.4035"/>
<polygon fill="midnightblue" stroke="midnightblue" points="208.752,-26.542 198.201,-25.5806 205.85,-32.9119 208.752,-26.542"/>
</g>
<!-- Node8&#45;&gt;Node4 -->
<g id="edge11" class="edge"><title>Node8&#45;&gt;Node4</title>
<path fill="none" stroke="midnightblue" d="M303.315,-35.8199C304.203,-46.7283 303.732,-59.9381 301.901,-68.4035"/>
<polygon fill="midnightblue" stroke="midnightblue" points="306.736,-35.006 301.897,-25.5806 299.802,-35.9661 306.736,-35.006"/>
</g>
<!-- Node9&#45;&gt;Node4 -->
<g id="edge13" class="edge"><title>Node9&#45;&gt;Node4</title>
<path fill="none" stroke="midnightblue" d="M387.753,-35.8101C366.276,-46.7204 338.714,-59.9355 319.523,-68.4035"/>
<polygon fill="midnightblue" stroke="midnightblue" points="389.546,-38.824 396.841,-31.1408 386.347,-32.5977 389.546,-38.824"/>
</g>
<!-- Node10&#45;&gt;Node4 -->
<g id="edge16" class="edge"><title>Node10&#45;&gt;Node4</title>
<path fill="none" stroke="midnightblue" d="M118.612,-31.5027C166.755,-43.0366 230.204,-58.7835 267.085,-68.4035"/>
<polygon fill="midnightblue" stroke="midnightblue" points="119.125,-28.027 108.586,-29.1092 117.5,-34.8357 119.125,-28.027"/>
</g>
<!-- Node12 -->
<g id="node12" class="node"><title>Node12</title>
<g id="a_node12"><a xlink:href="a00353.html" target="_top" xlink:title="traversal_node_setup.h">
<polygon fill="white" stroke="black" points="514,-68.5 514,-87.5 632,-87.5 632,-68.5 514,-68.5"/>
<text text-anchor="middle" x="573" y="-75.5" font-family="Helvetica,sans-Serif" font-size="10.00">traversal_node_setup.h</text>
</a>
</g>
</g>
<!-- Node11&#45;&gt;Node12 -->
<g id="edge19" class="edge"><title>Node11&#45;&gt;Node12</title>
<path fill="none" stroke="midnightblue" d="M662.654,-120.699C638.994,-109.695 609.981,-96.2004 591.49,-87.6"/>
<polygon fill="midnightblue" stroke="midnightblue" points="661.212,-123.889 671.755,-124.933 664.164,-117.542 661.212,-123.889"/>
</g>
<!-- Node13&#45;&gt;Node12 -->
<g id="edge21" class="edge"><title>Node13&#45;&gt;Node12</title>
<path fill="none" stroke="midnightblue" d="M573,-120.16C573,-109.248 573,-96.04 573,-87.5806"/>
<polygon fill="midnightblue" stroke="midnightblue" points="569.5,-120.403 573,-130.403 576.5,-120.403 569.5,-120.403"/>
</g>
<!-- Node14&#45;&gt;Node12 -->
<g id="edge23" class="edge"><title>Node14&#45;&gt;Node12</title>
<path fill="none" stroke="midnightblue" d="M461.67,-126.374C489.055,-114.721 528.98,-97.7319 552.836,-87.5806"/>
<polygon fill="midnightblue" stroke="midnightblue" points="460.033,-123.267 452.202,-130.403 462.774,-129.708 460.033,-123.267"/>
</g>
<!-- Node16 -->
<g id="node16" class="node"><title>Node16</title>
<g id="a_node16"><a xlink:href="a00326.html" target="_top" xlink:title="narrowphase.h">
<polygon fill="white" stroke="black" points="529,-192.5 529,-211.5 609,-211.5 609,-192.5 529,-192.5"/>
<text text-anchor="middle" x="569" y="-199.5" font-family="Helvetica,sans-Serif" font-size="10.00">narrowphase.h</text>
</a>
</g>
</g>
<!-- Node15&#45;&gt;Node16 -->
<g id="edge25" class="edge"><title>Node15&#45;&gt;Node16</title>
<path fill="none" stroke="midnightblue" d="M602.118,-246.198C593.484,-234.936 582.474,-220.574 575.578,-211.581"/>
<polygon fill="midnightblue" stroke="midnightblue" points="599.547,-248.597 608.409,-254.403 605.103,-244.338 599.547,-248.597"/>
</g>
<!-- Node16&#45;&gt;Node13 -->
<g id="edge26" class="edge"><title>Node16&#45;&gt;Node13</title>
<path fill="none" stroke="midnightblue" d="M570.256,-182.16C570.983,-171.248 571.864,-158.04 572.428,-149.581"/>
<polygon fill="midnightblue" stroke="midnightblue" points="566.746,-182.193 569.573,-192.403 573.731,-182.658 566.746,-182.193"/>
</g>
<!-- Node16&#45;&gt;Node14 -->
<g id="edge27" class="edge"><title>Node16&#45;&gt;Node14</title>
<path fill="none" stroke="midnightblue" d="M540.171,-188.374C513.564,-176.721 474.771,-159.732 451.592,-149.581"/>
<polygon fill="midnightblue" stroke="midnightblue" points="538.807,-191.598 549.371,-192.403 541.615,-185.186 538.807,-191.598"/>
</g>
<!-- Node17&#45;&gt;Node16 -->
<g id="edge29" class="edge"><title>Node17&#45;&gt;Node16</title>
<path fill="none" stroke="midnightblue" d="M551.564,-244.846C556.164,-233.806 561.826,-220.218 565.425,-211.581"/>
<polygon fill="midnightblue" stroke="midnightblue" points="548.197,-243.827 547.582,-254.403 554.659,-246.519 548.197,-243.827"/>
</g>
</g>
</svg>
