<?xml version="1.0" encoding="UTF-8" standalone="no"?>
<!DOCTYPE svg PUBLIC "-//W3C//DTD SVG 1.1//EN"
 "http://www.w3.org/Graphics/SVG/1.1/DTD/svg11.dtd">
<!-- Generated by graphviz version 2.36.0 (20140111.2315)
 -->
<!-- Title: BVH_model.h Pages: 1 -->
<svg width="636pt" height="152pt"
 viewBox="0.00 0.00 636.00 152.00" xmlns="http://www.w3.org/2000/svg" xmlns:xlink="http://www.w3.org/1999/xlink">
<g id="graph0" class="graph" transform="scale(1 1) rotate(0) translate(4 148)">
<title>BVH_model.h</title>
<polygon fill="white" stroke="none" points="-4,4 -4,-148 632,-148 632,4 -4,4"/>
<!-- Node1 -->
<g id="node1" class="node"><title>Node1</title>
<polygon fill="#bfbfbf" stroke="black" points="279.5,-124.5 279.5,-143.5 356.5,-143.5 356.5,-124.5 279.5,-124.5"/>
<text text-anchor="middle" x="318" y="-131.5" font-family="Helvetica,sans-Serif" font-size="10.00">BVH_model.h</text>
</g>
<!-- Node2 -->
<g id="node2" class="node"><title>Node2</title>
<g id="a_node2"><a xlink:href="a00274.html" target="_top" xlink:title="BVH_utility.h">
<polygon fill="white" stroke="black" points="174,-62.5 174,-81.5 248,-81.5 248,-62.5 174,-62.5"/>
<text text-anchor="middle" x="211" y="-69.5" font-family="Helvetica,sans-Serif" font-size="10.00">BVH_utility.h</text>
</a>
</g>
</g>
<!-- Node1&#45;&gt;Node2 -->
<g id="edge1" class="edge"><title>Node1&#45;&gt;Node2</title>
<path fill="none" stroke="midnightblue" d="M293.824,-119.443C273.117,-107.832 243.929,-91.4648 226.302,-81.5806"/>
<polygon fill="midnightblue" stroke="midnightblue" points="292.235,-122.565 302.67,-124.403 295.659,-116.46 292.235,-122.565"/>
</g>
<!-- Node4 -->
<g id="node4" class="node"><title>Node4</title>
<g id="a_node4"><a xlink:href="a00351.html" target="_top" xlink:title="traversal_node_bvhs.h">
<polygon fill="white" stroke="black" points="40.5,-62.5 40.5,-81.5 155.5,-81.5 155.5,-62.5 40.5,-62.5"/>
<text text-anchor="middle" x="98" y="-69.5" font-family="Helvetica,sans-Serif" font-size="10.00">traversal_node_bvhs.h</text>
</a>
</g>
</g>
<!-- Node1&#45;&gt;Node4 -->
<g id="edge3" class="edge"><title>Node1&#45;&gt;Node4</title>
<path fill="none" stroke="midnightblue" d="M276.671,-121.729C233.936,-110.073 168.153,-92.1326 129.462,-81.5806"/>
<polygon fill="midnightblue" stroke="midnightblue" points="275.911,-125.149 286.479,-124.403 277.753,-118.396 275.911,-125.149"/>
</g>
<!-- Node7 -->
<g id="node7" class="node"><title>Node7</title>
<g id="a_node7"><a xlink:href="a00291.html" target="_top" xlink:title="geometric_shape_to\l_BVH_model.h">
<polygon fill="white" stroke="black" points="266,-57 266,-87 370,-87 370,-57 266,-57"/>
<text text-anchor="start" x="274" y="-75" font-family="Helvetica,sans-Serif" font-size="10.00">geometric_shape_to</text>
<text text-anchor="middle" x="318" y="-64" font-family="Helvetica,sans-Serif" font-size="10.00">_BVH_model.h</text>
</a>
</g>
</g>
<!-- Node1&#45;&gt;Node7 -->
<g id="edge7" class="edge"><title>Node1&#45;&gt;Node7</title>
<path fill="none" stroke="midnightblue" d="M318,-114.371C318,-105.585 318,-95.2721 318,-87.1408"/>
<polygon fill="midnightblue" stroke="midnightblue" points="314.5,-114.403 318,-124.403 321.5,-114.403 314.5,-114.403"/>
</g>
<!-- Node8 -->
<g id="node8" class="node"><title>Node8</title>
<g id="a_node8"><a xlink:href="a00350.html" target="_top" xlink:title="traversal_node_bvh\l_shape.h">
<polygon fill="white" stroke="black" points="388.5,-57 388.5,-87 489.5,-87 489.5,-57 388.5,-57"/>
<text text-anchor="start" x="396.5" y="-75" font-family="Helvetica,sans-Serif" font-size="10.00">traversal_node_bvh</text>
<text text-anchor="middle" x="439" y="-64" font-family="Helvetica,sans-Serif" font-size="10.00">_shape.h</text>
</a>
</g>
</g>
<!-- Node1&#45;&gt;Node8 -->
<g id="edge8" class="edge"><title>Node1&#45;&gt;Node8</title>
<path fill="none" stroke="midnightblue" d="M344.295,-119.961C363.826,-110.276 390.441,-97.079 410.483,-87.1408"/>
<polygon fill="midnightblue" stroke="midnightblue" points="342.74,-116.825 335.336,-124.403 345.85,-123.097 342.74,-116.825"/>
</g>
<!-- Node9 -->
<g id="node9" class="node"><title>Node9</title>
<g id="a_node9"><a xlink:href="a00352.html" target="_top" xlink:title="traversal_node_octree.h">
<polygon fill="white" stroke="black" points="507.5,-62.5 507.5,-81.5 628.5,-81.5 628.5,-62.5 507.5,-62.5"/>
<text text-anchor="middle" x="568" y="-69.5" font-family="Helvetica,sans-Serif" font-size="10.00">traversal_node_octree.h</text>
</a>
</g>
</g>
<!-- Node1&#45;&gt;Node9 -->
<g id="edge10" class="edge"><title>Node1&#45;&gt;Node9</title>
<path fill="none" stroke="midnightblue" d="M363.493,-122.082C412.123,-110.41 488.201,-92.1517 532.569,-81.5034"/>
<polygon fill="midnightblue" stroke="midnightblue" points="362.46,-118.73 353.553,-124.467 364.094,-125.537 362.46,-118.73"/>
</g>
<!-- Node3 -->
<g id="node3" class="node"><title>Node3</title>
<g id="a_node3"><a xlink:href="a00353.html" target="_top" xlink:title="traversal_node_setup.h">
<polygon fill="white" stroke="black" points="273,-0.5 273,-19.5 391,-19.5 391,-0.5 273,-0.5"/>
<text text-anchor="middle" x="332" y="-7.5" font-family="Helvetica,sans-Serif" font-size="10.00">traversal_node_setup.h</text>
</a>
</g>
</g>
<!-- Node2&#45;&gt;Node3 -->
<g id="edge2" class="edge"><title>Node2&#45;&gt;Node3</title>
<path fill="none" stroke="midnightblue" d="M237.395,-57.9116C260.861,-46.2756 294.493,-29.5983 314.696,-19.5806"/>
<polygon fill="midnightblue" stroke="midnightblue" points="235.74,-54.8252 228.336,-62.4035 238.85,-61.0966 235.74,-54.8252"/>
</g>
<!-- Node4&#45;&gt;Node3 -->
<g id="edge5" class="edge"><title>Node4&#45;&gt;Node3</title>
<path fill="none" stroke="midnightblue" d="M141.385,-59.8758C186.823,-48.2249 257.209,-30.1771 298.536,-19.5806"/>
<polygon fill="midnightblue" stroke="midnightblue" points="140.344,-56.5293 131.526,-62.4035 142.082,-63.31 140.344,-56.5293"/>
</g>
<!-- Node5 -->
<g id="node5" class="node"><title>Node5</title>
<g id="a_node5"><a xlink:href="a00279.html" target="_top" xlink:title="collision_node.h">
<polygon fill="white" stroke="black" points="0,-0.5 0,-19.5 86,-19.5 86,-0.5 0,-0.5"/>
<text text-anchor="middle" x="43" y="-7.5" font-family="Helvetica,sans-Serif" font-size="10.00">collision_node.h</text>
</a>
</g>
</g>
<!-- Node4&#45;&gt;Node5 -->
<g id="edge4" class="edge"><title>Node4&#45;&gt;Node5</title>
<path fill="none" stroke="midnightblue" d="M83.2077,-54.863C72.7976,-43.5064 59.273,-28.7524 50.8655,-19.5806"/>
<polygon fill="midnightblue" stroke="midnightblue" points="80.7825,-57.3969 90.1198,-62.4035 85.9426,-52.6668 80.7825,-57.3969"/>
</g>
<!-- Node6 -->
<g id="node6" class="node"><title>Node6</title>
<g id="a_node6"><a xlink:href="a00355.html" target="_top" xlink:title="traversal_recurse.h">
<polygon fill="white" stroke="black" points="104,-0.5 104,-19.5 204,-19.5 204,-0.5 104,-0.5"/>
<text text-anchor="middle" x="154" y="-7.5" font-family="Helvetica,sans-Serif" font-size="10.00">traversal_recurse.h</text>
</a>
</g>
</g>
<!-- Node4&#45;&gt;Node6 -->
<g id="edge6" class="edge"><title>Node4&#45;&gt;Node6</title>
<path fill="none" stroke="midnightblue" d="M113.061,-54.863C123.661,-43.5064 137.431,-28.7524 145.991,-19.5806"/>
<polygon fill="midnightblue" stroke="midnightblue" points="110.288,-52.7048 106.023,-62.4035 115.405,-57.481 110.288,-52.7048"/>
</g>
<!-- Node8&#45;&gt;Node3 -->
<g id="edge9" class="edge"><title>Node8&#45;&gt;Node3</title>
<path fill="none" stroke="midnightblue" d="M405.055,-51.9654C385.679,-41.1003 362.335,-28.0101 347.337,-19.6"/>
<polygon fill="midnightblue" stroke="midnightblue" points="403.479,-55.0944 413.913,-56.9327 406.903,-48.9888 403.479,-55.0944"/>
</g>
<!-- Node9&#45;&gt;Node3 -->
<g id="edge11" class="edge"><title>Node9&#45;&gt;Node3</title>
<path fill="none" stroke="midnightblue" d="M524.477,-59.9349C478.547,-48.2578 407.155,-30.1072 365.447,-19.5034"/>
<polygon fill="midnightblue" stroke="midnightblue" points="523.883,-63.3952 534.438,-62.4672 525.608,-56.611 523.883,-63.3952"/>
</g>
</g>
</svg>
