<?xml version="1.0" encoding="UTF-8" standalone="no"?>
<!DOCTYPE svg PUBLIC "-//W3C//DTD SVG 1.1//EN"
 "http://www.w3.org/Graphics/SVG/1.1/DTD/svg11.dtd">
<!-- Generated by graphviz version 2.36.0 (20140111.2315)
 -->
<!-- Title: math_details.h Pages: 1 -->
<svg width="189pt" height="84pt"
 viewBox="0.00 0.00 189.00 84.00" xmlns="http://www.w3.org/2000/svg" xmlns:xlink="http://www.w3.org/1999/xlink">
<g id="graph0" class="graph" transform="scale(1 1) rotate(0) translate(4 80)">
<title>math_details.h</title>
<polygon fill="white" stroke="none" points="-4,4 -4,-80 185,-80 185,4 -4,4"/>
<!-- Node1 -->
<g id="node1" class="node"><title>Node1</title>
<polygon fill="#bfbfbf" stroke="black" points="49,-56.5 49,-75.5 129,-75.5 129,-56.5 49,-56.5"/>
<text text-anchor="middle" x="89" y="-63.5" font-family="Helvetica,sans-Serif" font-size="10.00">math_details.h</text>
</g>
<!-- Node2 -->
<g id="node2" class="node"><title>Node2</title>
<polygon fill="white" stroke="#bfbfbf" points="-1,-0.5 -1,-19.5 43,-19.5 43,-0.5 -1,-0.5"/>
<text text-anchor="middle" x="21" y="-7.5" font-family="Helvetica,sans-Serif" font-size="10.00">cmath</text>
</g>
<!-- Node1&#45;&gt;Node2 -->
<g id="edge1" class="edge"><title>Node1&#45;&gt;Node2</title>
<path fill="none" stroke="midnightblue" d="M78.0746,-56.324C67.8254,-48.1849 52.2794,-35.8395 39.999,-26.0874"/>
<polygon fill="midnightblue" stroke="midnightblue" points="42.1319,-23.3119 32.1242,-19.8339 37.7787,-28.7937 42.1319,-23.3119"/>
</g>
<!-- Node3 -->
<g id="node3" class="node"><title>Node3</title>
<polygon fill="white" stroke="#bfbfbf" points="61,-0.5 61,-19.5 117,-19.5 117,-0.5 61,-0.5"/>
<text text-anchor="middle" x="89" y="-7.5" font-family="Helvetica,sans-Serif" font-size="10.00">algorithm</text>
</g>
<!-- Node1&#45;&gt;Node3 -->
<g id="edge2" class="edge"><title>Node1&#45;&gt;Node3</title>
<path fill="none" stroke="midnightblue" d="M89,-56.083C89,-49.0059 89,-38.8611 89,-29.9865"/>
<polygon fill="midnightblue" stroke="midnightblue" points="92.5001,-29.751 89,-19.7511 85.5001,-29.7511 92.5001,-29.751"/>
</g>
<!-- Node4 -->
<g id="node4" class="node"><title>Node4</title>
<polygon fill="white" stroke="#bfbfbf" points="135,-0.5 135,-19.5 181,-19.5 181,-0.5 135,-0.5"/>
<text text-anchor="middle" x="158" y="-7.5" font-family="Helvetica,sans-Serif" font-size="10.00">cstring</text>
</g>
<!-- Node1&#45;&gt;Node4 -->
<g id="edge3" class="edge"><title>Node1&#45;&gt;Node4</title>
<path fill="none" stroke="midnightblue" d="M100.086,-56.324C110.486,-48.1849 126.261,-35.8395 138.722,-26.0874"/>
<polygon fill="midnightblue" stroke="midnightblue" points="140.994,-28.7533 146.712,-19.8339 136.68,-23.2407 140.994,-28.7533"/>
</g>
</g>
</svg>
