<?xml version="1.0" encoding="UTF-8" standalone="no"?>
<!DOCTYPE svg PUBLIC "-//W3C//DTD SVG 1.1//EN"
 "http://www.w3.org/Graphics/SVG/1.1/DTD/svg11.dtd">
<!-- Generated by graphviz version 2.36.0 (20140111.2315)
 -->
<!-- Title: hierarchy_tree.hxx Pages: 1 -->
<svg width="770pt" height="276pt"
 viewBox="0.00 0.00 770.00 276.00" xmlns="http://www.w3.org/2000/svg" xmlns:xlink="http://www.w3.org/1999/xlink">
<g id="graph0" class="graph" transform="scale(1 1) rotate(0) translate(4 272)">
<title>hierarchy_tree.hxx</title>
<polygon fill="white" stroke="none" points="-4,4 -4,-272 766,-272 766,4 -4,4"/>
<!-- Node1 -->
<g id="node1" class="node"><title>Node1</title>
<polygon fill="#bfbfbf" stroke="black" points="493.5,-248.5 493.5,-267.5 590.5,-267.5 590.5,-248.5 493.5,-248.5"/>
<text text-anchor="middle" x="542" y="-255.5" font-family="Helvetica,sans-Serif" font-size="10.00">hierarchy_tree.hxx</text>
</g>
<!-- Node2 -->
<g id="node2" class="node"><title>Node2</title>
<g id="a_node2"><a xlink:href="a00298.html" target="_top" xlink:title="hierarchy_tree.h">
<polygon fill="white" stroke="black" points="499,-192.5 499,-211.5 585,-211.5 585,-192.5 499,-192.5"/>
<text text-anchor="middle" x="542" y="-199.5" font-family="Helvetica,sans-Serif" font-size="10.00">hierarchy_tree.h</text>
</a>
</g>
</g>
<!-- Node1&#45;&gt;Node2 -->
<g id="edge1" class="edge"><title>Node1&#45;&gt;Node2</title>
<path fill="none" stroke="midnightblue" d="M542,-237.805C542,-228.91 542,-218.78 542,-211.751"/>
<polygon fill="midnightblue" stroke="midnightblue" points="538.5,-238.083 542,-248.083 545.5,-238.083 538.5,-238.083"/>
</g>
<!-- Node3 -->
<g id="node3" class="node"><title>Node3</title>
<g id="a_node3"><a xlink:href="a00260.html" target="_top" xlink:title="broadphase_dynamic\l_AABB_tree.h">
<polygon fill="white" stroke="black" points="405.5,-125 405.5,-155 514.5,-155 514.5,-125 405.5,-125"/>
<text text-anchor="start" x="413.5" y="-143" font-family="Helvetica,sans-Serif" font-size="10.00">broadphase_dynamic</text>
<text text-anchor="middle" x="460" y="-132" font-family="Helvetica,sans-Serif" font-size="10.00">_AABB_tree.h</text>
</a>
</g>
</g>
<!-- Node2&#45;&gt;Node3 -->
<g id="edge2" class="edge"><title>Node2&#45;&gt;Node3</title>
<path fill="none" stroke="midnightblue" d="M521.973,-186.346C508.99,-176.846 492.167,-164.537 479.326,-155.141"/>
<polygon fill="midnightblue" stroke="midnightblue" points="520.114,-189.323 530.251,-192.403 524.248,-183.674 520.114,-189.323"/>
</g>
<!-- Node10 -->
<g id="node10" class="node"><title>Node10</title>
<g id="a_node10"><a xlink:href="a00261.html" target="_top" xlink:title="broadphase_dynamic\l_AABB_tree_array.h">
<polygon fill="white" stroke="black" points="653.5,-1 653.5,-31 762.5,-31 762.5,-1 653.5,-1"/>
<text text-anchor="start" x="661.5" y="-19" font-family="Helvetica,sans-Serif" font-size="10.00">broadphase_dynamic</text>
<text text-anchor="middle" x="708" y="-8" font-family="Helvetica,sans-Serif" font-size="10.00">_AABB_tree_array.h</text>
</a>
</g>
</g>
<!-- Node2&#45;&gt;Node10 -->
<g id="edge17" class="edge"><title>Node2&#45;&gt;Node10</title>
<path fill="none" stroke="midnightblue" d="M556.882,-184.504C589.167,-148.718 665.153,-64.4933 695.327,-31.0472"/>
<polygon fill="midnightblue" stroke="midnightblue" points="554.106,-182.356 550.007,-192.125 559.304,-187.045 554.106,-182.356"/>
</g>
<!-- Node4 -->
<g id="node4" class="node"><title>Node4</title>
<g id="a_node4"><a xlink:href="a00258.html" target="_top" xlink:title="broadphase.h">
<polygon fill="white" stroke="black" points="422.5,-68.5 422.5,-87.5 497.5,-87.5 497.5,-68.5 422.5,-68.5"/>
<text text-anchor="middle" x="460" y="-75.5" font-family="Helvetica,sans-Serif" font-size="10.00">broadphase.h</text>
</a>
</g>
</g>
<!-- Node3&#45;&gt;Node4 -->
<g id="edge3" class="edge"><title>Node3&#45;&gt;Node4</title>
<path fill="none" stroke="midnightblue" d="M453.355,-114.586C452.993,-105.074 453.565,-94.7864 455.071,-87.7305"/>
<polygon fill="midnightblue" stroke="midnightblue" points="449.884,-115.087 454.16,-124.781 456.862,-114.536 449.884,-115.087"/>
</g>
<!-- Node4&#45;&gt;Node3 -->
<g id="edge14" class="edge"><title>Node4&#45;&gt;Node3</title>
<path fill="none" stroke="midnightblue" d="M466.307,-97.725C467.026,-106.462 466.87,-116.691 465.84,-124.781"/>
<polygon fill="midnightblue" stroke="midnightblue" points="469.762,-97.1589 464.929,-87.7305 462.828,-98.1148 469.762,-97.1589"/>
</g>
<!-- Node5 -->
<g id="node5" class="node"><title>Node5</title>
<g id="a_node5"><a xlink:href="a00259.html" target="_top" xlink:title="broadphase_bruteforce.h">
<polygon fill="white" stroke="black" points="-1,-6.5 -1,-25.5 123,-25.5 123,-6.5 -1,-6.5"/>
<text text-anchor="middle" x="61" y="-13.5" font-family="Helvetica,sans-Serif" font-size="10.00">broadphase_bruteforce.h</text>
</a>
</g>
</g>
<!-- Node4&#45;&gt;Node5 -->
<g id="edge4" class="edge"><title>Node4&#45;&gt;Node5</title>
<path fill="none" stroke="midnightblue" d="M412.422,-72.247C346.787,-64.9158 225.397,-49.817 123,-32 112.202,-30.1211 100.543,-27.7868 90.2085,-25.5237"/>
<polygon fill="midnightblue" stroke="midnightblue" points="412.142,-75.7373 422.465,-73.3561 412.91,-68.7796 412.142,-75.7373"/>
</g>
<!-- Node6 -->
<g id="node6" class="node"><title>Node6</title>
<g id="a_node6"><a xlink:href="a00264.html" target="_top" xlink:title="broadphase_spatialhash.h">
<polygon fill="white" stroke="black" points="141,-6.5 141,-25.5 271,-25.5 271,-6.5 141,-6.5"/>
<text text-anchor="middle" x="206" y="-13.5" font-family="Helvetica,sans-Serif" font-size="10.00">broadphase_spatialhash.h</text>
</a>
</g>
</g>
<!-- Node4&#45;&gt;Node6 -->
<g id="edge6" class="edge"><title>Node4&#45;&gt;Node6</title>
<path fill="none" stroke="midnightblue" d="M412.484,-67.0003C361.206,-55.4029 281.204,-36.4816 237.278,-25.5434"/>
<polygon fill="midnightblue" stroke="midnightblue" points="411.813,-70.4367 422.338,-69.2176 413.35,-63.6075 411.813,-70.4367"/>
</g>
<!-- Node7 -->
<g id="node7" class="node"><title>Node7</title>
<g id="a_node7"><a xlink:href="a00263.html" target="_top" xlink:title="broadphase_SaP.h">
<polygon fill="white" stroke="black" points="289.5,-6.5 289.5,-25.5 388.5,-25.5 388.5,-6.5 289.5,-6.5"/>
<text text-anchor="middle" x="339" y="-13.5" font-family="Helvetica,sans-Serif" font-size="10.00">broadphase_SaP.h</text>
</a>
</g>
</g>
<!-- Node4&#45;&gt;Node7 -->
<g id="edge8" class="edge"><title>Node4&#45;&gt;Node7</title>
<path fill="none" stroke="midnightblue" d="M428.584,-64.2207C403.402,-52.5726 369.599,-35.6874 351.407,-25.5806"/>
<polygon fill="midnightblue" stroke="midnightblue" points="427.212,-67.4415 437.763,-68.4035 430.115,-61.0717 427.212,-67.4415"/>
</g>
<!-- Node8 -->
<g id="node8" class="node"><title>Node8</title>
<g id="a_node8"><a xlink:href="a00266.html" target="_top" xlink:title="broadphase_SSaP.h">
<polygon fill="white" stroke="black" points="407,-6.5 407,-25.5 513,-25.5 513,-6.5 407,-6.5"/>
<text text-anchor="middle" x="460" y="-13.5" font-family="Helvetica,sans-Serif" font-size="10.00">broadphase_SSaP.h</text>
</a>
</g>
</g>
<!-- Node4&#45;&gt;Node8 -->
<g id="edge10" class="edge"><title>Node4&#45;&gt;Node8</title>
<path fill="none" stroke="midnightblue" d="M453.683,-58.1595C452.797,-47.2482 453.27,-34.04 455.103,-25.5806"/>
<polygon fill="midnightblue" stroke="midnightblue" points="450.263,-58.9769 455.099,-68.4035 457.197,-58.0184 450.263,-58.9769"/>
</g>
<!-- Node9 -->
<g id="node9" class="node"><title>Node9</title>
<g id="a_node9"><a xlink:href="a00262.html" target="_top" xlink:title="broadphase_interval\l_tree.h">
<polygon fill="white" stroke="black" points="531,-1 531,-31 635,-31 635,-1 531,-1"/>
<text text-anchor="start" x="539" y="-19" font-family="Helvetica,sans-Serif" font-size="10.00">broadphase_interval</text>
<text text-anchor="middle" x="583" y="-8" font-family="Helvetica,sans-Serif" font-size="10.00">_tree.h</text>
</a>
</g>
</g>
<!-- Node4&#45;&gt;Node9 -->
<g id="edge12" class="edge"><title>Node4&#45;&gt;Node9</title>
<path fill="none" stroke="midnightblue" d="M481.587,-63.6791C500.123,-53.9835 526.952,-40.8808 548.433,-31.0253"/>
<polygon fill="midnightblue" stroke="midnightblue" points="479.901,-60.6115 472.722,-68.4035 483.193,-66.789 479.901,-60.6115"/>
</g>
<!-- Node4&#45;&gt;Node10 -->
<g id="edge15" class="edge"><title>Node4&#45;&gt;Node10</title>
<path fill="none" stroke="midnightblue" d="M500.437,-65.9158C542.1,-55.4041 607.136,-39.6592 653.346,-28.8899"/>
<polygon fill="midnightblue" stroke="midnightblue" points="499.464,-62.5517 490.632,-68.4035 501.185,-69.3368 499.464,-62.5517"/>
</g>
<!-- Node5&#45;&gt;Node4 -->
<g id="edge5" class="edge"><title>Node5&#45;&gt;Node4</title>
<path fill="none" stroke="midnightblue" d="M117.46,-27.5443C125.389,-29.1327 133.407,-30.6789 141,-32 242.362,-49.637 362.337,-64.6106 422.263,-72.0225"/>
<polygon fill="midnightblue" stroke="midnightblue" points="117.998,-24.0823 107.502,-25.5237 116.606,-30.9425 117.998,-24.0823"/>
</g>
<!-- Node6&#45;&gt;Node4 -->
<g id="edge7" class="edge"><title>Node6&#45;&gt;Node4</title>
<path fill="none" stroke="midnightblue" d="M256.784,-27.74C308.155,-39.3922 385.769,-57.7602 428.765,-68.4672"/>
<polygon fill="midnightblue" stroke="midnightblue" points="257.403,-24.2918 246.878,-25.5034 255.862,-31.1199 257.403,-24.2918"/>
</g>
<!-- Node7&#45;&gt;Node4 -->
<g id="edge9" class="edge"><title>Node7&#45;&gt;Node4</title>
<path fill="none" stroke="midnightblue" d="M370.376,-29.761C395.549,-41.4036 429.355,-58.2896 447.564,-68.4035"/>
<polygon fill="midnightblue" stroke="midnightblue" points="371.752,-26.542 361.201,-25.5806 368.85,-32.9119 371.752,-26.542"/>
</g>
<!-- Node8&#45;&gt;Node4 -->
<g id="edge11" class="edge"><title>Node8&#45;&gt;Node4</title>
<path fill="none" stroke="midnightblue" d="M466.315,-35.8199C467.203,-46.7283 466.732,-59.9381 464.901,-68.4035"/>
<polygon fill="midnightblue" stroke="midnightblue" points="469.736,-35.006 464.897,-25.5806 462.802,-35.9661 469.736,-35.006"/>
</g>
<!-- Node9&#45;&gt;Node4 -->
<g id="edge13" class="edge"><title>Node9&#45;&gt;Node4</title>
<path fill="none" stroke="midnightblue" d="M550.753,-35.8101C529.276,-46.7204 501.714,-59.9355 482.523,-68.4035"/>
<polygon fill="midnightblue" stroke="midnightblue" points="552.546,-38.824 559.841,-31.1408 549.347,-32.5977 552.546,-38.824"/>
</g>
<!-- Node10&#45;&gt;Node4 -->
<g id="edge16" class="edge"><title>Node10&#45;&gt;Node4</title>
<path fill="none" stroke="midnightblue" d="M645.543,-33.5891C598.972,-45.1412 536.965,-60.0339 497.692,-69.0325"/>
<polygon fill="midnightblue" stroke="midnightblue" points="646.671,-36.9151 655.53,-31.1038 644.98,-30.1223 646.671,-36.9151"/>
</g>
</g>
</svg>
