<?xml version="1.0" encoding="UTF-8" standalone="no"?>
<!DOCTYPE svg PUBLIC "-//W3C//DTD SVG 1.1//EN"
 "http://www.w3.org/Graphics/SVG/1.1/DTD/svg11.dtd">
<!-- Generated by graphviz version 2.36.0 (20140111.2315)
 -->
<!-- Title: gjk.h Pages: 1 -->
<svg width="955pt" height="728pt"
 viewBox="0.00 0.00 955.00 728.00" xmlns="http://www.w3.org/2000/svg" xmlns:xlink="http://www.w3.org/1999/xlink">
<g id="graph0" class="graph" transform="scale(1 1) rotate(0) translate(4 724)">
<title>gjk.h</title>
<polygon fill="white" stroke="none" points="-4,4 -4,-724 951,-724 951,4 -4,4"/>
<!-- Node1 -->
<g id="node1" class="node"><title>Node1</title>
<polygon fill="#bfbfbf" stroke="black" points="553,-700.5 553,-719.5 591,-719.5 591,-700.5 553,-700.5"/>
<text text-anchor="middle" x="572" y="-707.5" font-family="Helvetica,sans-Serif" font-size="10.00">gjk.h</text>
</g>
<!-- Node2 -->
<g id="node2" class="node"><title>Node2</title>
<g id="a_node2"><a xlink:href="a00292.html" target="_top" xlink:title="hpp/fcl/shape/geometric\l_shapes.h">
<polygon fill="white" stroke="black" points="181.5,-633 181.5,-663 302.5,-663 302.5,-633 181.5,-633"/>
<text text-anchor="start" x="189.5" y="-651" font-family="Helvetica,sans-Serif" font-size="10.00">hpp/fcl/shape/geometric</text>
<text text-anchor="middle" x="242" y="-640" font-family="Helvetica,sans-Serif" font-size="10.00">_shapes.h</text>
</a>
</g>
</g>
<!-- Node1&#45;&gt;Node2 -->
<g id="edge1" class="edge"><title>Node1&#45;&gt;Node2</title>
<path fill="none" stroke="midnightblue" d="M552.831,-705.515C507.018,-697.185 389.285,-675.779 312.582,-661.833"/>
<polygon fill="midnightblue" stroke="midnightblue" points="312.974,-658.347 302.509,-660.002 311.722,-665.234 312.974,-658.347"/>
</g>
<!-- Node20 -->
<g id="node20" class="node"><title>Node20</title>
<g id="a_node20"><a xlink:href="a00348.html" target="_top" xlink:title="hpp/fcl/math/transform.h">
<polygon fill="white" stroke="black" points="673.5,-446.5 673.5,-465.5 796.5,-465.5 796.5,-446.5 673.5,-446.5"/>
<text text-anchor="middle" x="735" y="-453.5" font-family="Helvetica,sans-Serif" font-size="10.00">hpp/fcl/math/transform.h</text>
</a>
</g>
</g>
<!-- Node1&#45;&gt;Node20 -->
<g id="edge59" class="edge"><title>Node1&#45;&gt;Node20</title>
<path fill="none" stroke="midnightblue" d="M580.74,-700.258C604.077,-676.489 668.618,-607.899 706,-540 717.474,-519.159 725.726,-492.93 730.426,-475.598"/>
<polygon fill="midnightblue" stroke="midnightblue" points="733.886,-476.198 733,-465.64 727.109,-474.446 733.886,-476.198"/>
</g>
<!-- Node3 -->
<g id="node3" class="node"><title>Node3</title>
<g id="a_node3"><a xlink:href="a00280.html" target="_top" xlink:title="hpp/fcl/collision_object.h">
<polygon fill="white" stroke="black" points="497,-576.5 497,-595.5 621,-595.5 621,-576.5 497,-576.5"/>
<text text-anchor="middle" x="559" y="-583.5" font-family="Helvetica,sans-Serif" font-size="10.00">hpp/fcl/collision_object.h</text>
</a>
</g>
</g>
<!-- Node2&#45;&gt;Node3 -->
<g id="edge2" class="edge"><title>Node2&#45;&gt;Node3</title>
<path fill="none" stroke="midnightblue" d="M302.746,-635.502C360.796,-624.515 447.549,-608.095 503.711,-597.465"/>
<polygon fill="midnightblue" stroke="midnightblue" points="504.654,-600.849 513.828,-595.55 503.352,-593.971 504.654,-600.849"/>
</g>
<!-- Node7 -->
<g id="node7" class="node"><title>Node7</title>
<g id="a_node7"><a xlink:href="a00356.html" target="_top" xlink:title="hpp/fcl/math/vec_3f.h">
<polygon fill="white" stroke="black" points="477.5,-180.5 477.5,-199.5 588.5,-199.5 588.5,-180.5 477.5,-180.5"/>
<text text-anchor="middle" x="533" y="-187.5" font-family="Helvetica,sans-Serif" font-size="10.00">hpp/fcl/math/vec_3f.h</text>
</a>
</g>
</g>
<!-- Node2&#45;&gt;Node7 -->
<g id="edge57" class="edge"><title>Node2&#45;&gt;Node7</title>
<path fill="none" stroke="midnightblue" d="M191.148,-632.921C142.667,-616.032 77,-582.536 77,-525 77,-525 77,-525 77,-319 77,-281.157 67.654,-261.072 96,-236 123.208,-211.935 351.91,-198.767 467.16,-193.604"/>
<polygon fill="midnightblue" stroke="midnightblue" points="467.44,-197.095 477.276,-193.158 467.132,-190.102 467.44,-197.095"/>
</g>
<!-- Node35 -->
<g id="node35" class="node"><title>Node35</title>
<polygon fill="white" stroke="#bfbfbf" points="-0.5,-576.5 -0.5,-595.5 48.5,-595.5 48.5,-576.5 -0.5,-576.5"/>
<text text-anchor="middle" x="24" y="-583.5" font-family="Helvetica,sans-Serif" font-size="10.00">string.h</text>
</g>
<!-- Node2&#45;&gt;Node35 -->
<g id="edge58" class="edge"><title>Node2&#45;&gt;Node35</title>
<path fill="none" stroke="midnightblue" d="M190.889,-632.933C150.112,-621.71 94.1084,-606.296 58.4812,-596.49"/>
<polygon fill="midnightblue" stroke="midnightblue" points="59.1308,-593.039 48.5605,-593.76 57.2732,-599.788 59.1308,-593.039"/>
</g>
<!-- Node4 -->
<g id="node4" class="node"><title>Node4</title>
<g id="a_node4"><a xlink:href="a00284.html" target="_top" xlink:title="hpp/fcl/deprecated.h">
<polygon fill="white" stroke="black" points="565.5,-514.5 565.5,-533.5 670.5,-533.5 670.5,-514.5 565.5,-514.5"/>
<text text-anchor="middle" x="618" y="-521.5" font-family="Helvetica,sans-Serif" font-size="10.00">hpp/fcl/deprecated.h</text>
</a>
</g>
</g>
<!-- Node3&#45;&gt;Node4 -->
<g id="edge3" class="edge"><title>Node3&#45;&gt;Node4</title>
<path fill="none" stroke="midnightblue" d="M567.453,-576.403C576.566,-567.136 591.27,-552.183 602.476,-540.788"/>
<polygon fill="midnightblue" stroke="midnightblue" points="605.047,-543.165 609.562,-533.581 600.055,-538.257 605.047,-543.165"/>
</g>
<!-- Node5 -->
<g id="node5" class="node"><title>Node5</title>
<g id="a_node5"><a xlink:href="a00257.html" target="_top" xlink:title="hpp/fcl/BV/AABB.h">
<polygon fill="white" stroke="black" points="846.5,-310.5 846.5,-329.5 947.5,-329.5 947.5,-310.5 846.5,-310.5"/>
<text text-anchor="middle" x="897" y="-317.5" font-family="Helvetica,sans-Serif" font-size="10.00">hpp/fcl/BV/AABB.h</text>
</a>
</g>
</g>
<!-- Node3&#45;&gt;Node5 -->
<g id="edge4" class="edge"><title>Node3&#45;&gt;Node5</title>
<path fill="none" stroke="midnightblue" d="M598.284,-576.44C628.613,-569.018 671.143,-556.815 706,-540 754.078,-516.808 768.3,-510.762 805,-472 844.458,-430.324 875.351,-368.986 889.144,-338.932"/>
<polygon fill="midnightblue" stroke="midnightblue" points="892.391,-340.245 893.296,-329.689 886.006,-337.377 892.391,-340.245"/>
</g>
<!-- Node3&#45;&gt;Node20 -->
<g id="edge26" class="edge"><title>Node3&#45;&gt;Node20</title>
<path fill="none" stroke="midnightblue" d="M599.678,-576.436C624.523,-569.674 655.856,-558.261 679,-540 701.338,-522.375 718.005,-493.356 727.12,-474.719"/>
<polygon fill="midnightblue" stroke="midnightblue" points="730.332,-476.113 731.396,-465.571 723.99,-473.149 730.332,-476.113"/>
</g>
<!-- Node23 -->
<g id="node23" class="node"><title>Node23</title>
<g id="a_node23"><a xlink:href="a00325.html" target="_top" xlink:title="hpp/fcl/ccd/motion\l_base.h">
<polygon fill="white" stroke="black" points="450.5,-509 450.5,-539 547.5,-539 547.5,-509 450.5,-509"/>
<text text-anchor="start" x="458.5" y="-527" font-family="Helvetica,sans-Serif" font-size="10.00">hpp/fcl/ccd/motion</text>
<text text-anchor="middle" x="499" y="-516" font-family="Helvetica,sans-Serif" font-size="10.00">_base.h</text>
</a>
</g>
</g>
<!-- Node3&#45;&gt;Node23 -->
<g id="edge30" class="edge"><title>Node3&#45;&gt;Node23</title>
<path fill="none" stroke="midnightblue" d="M550.403,-576.403C542.581,-568.581 530.708,-556.708 520.342,-546.342"/>
<polygon fill="midnightblue" stroke="midnightblue" points="522.687,-543.737 513.141,-539.141 517.737,-548.687 522.687,-543.737"/>
</g>
<!-- Node30 -->
<g id="node30" class="node"><title>Node30</title>
<polygon fill="white" stroke="#bfbfbf" points="105,-242.5 105,-261.5 213,-261.5 213,-242.5 105,-242.5"/>
<text text-anchor="middle" x="159" y="-249.5" font-family="Helvetica,sans-Serif" font-size="10.00">boost/shared_ptr.hpp</text>
</g>
<!-- Node3&#45;&gt;Node30 -->
<g id="edge56" class="edge"><title>Node3&#45;&gt;Node30</title>
<path fill="none" stroke="midnightblue" d="M496.656,-578.095C384.438,-563.919 160,-526.838 160,-457 160,-457 160,-457 160,-387 160,-346.045 159.527,-298.052 159.232,-272.066"/>
<polygon fill="midnightblue" stroke="midnightblue" points="162.728,-271.738 159.111,-261.78 155.729,-271.82 162.728,-271.738"/>
</g>
<!-- Node6 -->
<g id="node6" class="node"><title>Node6</title>
<polygon fill="white" stroke="#bfbfbf" points="867.5,-242.5 867.5,-261.5 926.5,-261.5 926.5,-242.5 867.5,-242.5"/>
<text text-anchor="middle" x="897" y="-249.5" font-family="Helvetica,sans-Serif" font-size="10.00">stdexcept</text>
</g>
<!-- Node5&#45;&gt;Node6 -->
<g id="edge5" class="edge"><title>Node5&#45;&gt;Node6</title>
<path fill="none" stroke="midnightblue" d="M897,-310.372C897,-300.643 897,-284.528 897,-271.85"/>
<polygon fill="midnightblue" stroke="midnightblue" points="900.5,-271.841 897,-261.841 893.5,-271.841 900.5,-271.841"/>
</g>
<!-- Node5&#45;&gt;Node7 -->
<g id="edge6" class="edge"><title>Node5&#45;&gt;Node7</title>
<path fill="none" stroke="midnightblue" d="M906.741,-310.284C923.767,-294.028 955.284,-258.681 935,-236 913.033,-211.436 707.178,-198.702 598.892,-193.655"/>
<polygon fill="midnightblue" stroke="midnightblue" points="598.876,-190.151 588.727,-193.191 598.557,-197.144 598.876,-190.151"/>
</g>
<!-- Node8 -->
<g id="node8" class="node"><title>Node8</title>
<polygon fill="white" stroke="#bfbfbf" points="682,-56.5 682,-75.5 784,-75.5 784,-56.5 682,-56.5"/>
<text text-anchor="middle" x="733" y="-63.5" font-family="Helvetica,sans-Serif" font-size="10.00">hpp/fcl/config&#45;fcl.hh</text>
</g>
<!-- Node7&#45;&gt;Node8 -->
<g id="edge7" class="edge"><title>Node7&#45;&gt;Node8</title>
<path fill="none" stroke="midnightblue" d="M547.064,-180.421C581.203,-159.596 668.707,-106.219 710.337,-80.8247"/>
<polygon fill="midnightblue" stroke="midnightblue" points="712.238,-83.7649 718.952,-75.5693 708.592,-77.789 712.238,-83.7649"/>
</g>
<!-- Node9 -->
<g id="node9" class="node"><title>Node9</title>
<g id="a_node9"><a xlink:href="a00283.html" target="_top" xlink:title="hpp/fcl/data_types.h">
<polygon fill="white" stroke="black" points="232.5,-56.5 232.5,-75.5 337.5,-75.5 337.5,-56.5 232.5,-56.5"/>
<text text-anchor="middle" x="285" y="-63.5" font-family="Helvetica,sans-Serif" font-size="10.00">hpp/fcl/data_types.h</text>
</a>
</g>
</g>
<!-- Node7&#45;&gt;Node9 -->
<g id="edge8" class="edge"><title>Node7&#45;&gt;Node9</title>
<path fill="none" stroke="midnightblue" d="M485.304,-180.44C453.624,-173.506 411.801,-161.901 378,-144 347.318,-127.75 317.408,-100.295 300.114,-82.9359"/>
<polygon fill="midnightblue" stroke="midnightblue" points="302.588,-80.4597 293.099,-75.7473 297.578,-85.3487 302.588,-80.4597"/>
</g>
<!-- Node12 -->
<g id="node12" class="node"><title>Node12</title>
<g id="a_node12"><a xlink:href="a00316.html" target="_top" xlink:title="hpp/fcl/eigen/math\l_details.h">
<polygon fill="white" stroke="black" points="122.5,-113 122.5,-143 219.5,-143 219.5,-113 122.5,-113"/>
<text text-anchor="start" x="130.5" y="-131" font-family="Helvetica,sans-Serif" font-size="10.00">hpp/fcl/eigen/math</text>
<text text-anchor="middle" x="171" y="-120" font-family="Helvetica,sans-Serif" font-size="10.00">_details.h</text>
</a>
</g>
</g>
<!-- Node7&#45;&gt;Node12 -->
<g id="edge11" class="edge"><title>Node7&#45;&gt;Node12</title>
<path fill="none" stroke="midnightblue" d="M481.519,-180.467C415.006,-169.443 299.493,-150.297 229.659,-138.722"/>
<polygon fill="midnightblue" stroke="midnightblue" points="230.136,-135.254 219.698,-137.071 228.991,-142.16 230.136,-135.254"/>
</g>
<!-- Node15 -->
<g id="node15" class="node"><title>Node15</title>
<g id="a_node15"><a xlink:href="a00357.html" target="_top" xlink:title="hpp/fcl/eigen/vec_3fx.h">
<polygon fill="white" stroke="black" points="387,-118.5 387,-137.5 505,-137.5 505,-118.5 387,-118.5"/>
<text text-anchor="middle" x="446" y="-125.5" font-family="Helvetica,sans-Serif" font-size="10.00">hpp/fcl/eigen/vec_3fx.h</text>
</a>
</g>
</g>
<!-- Node7&#45;&gt;Node15 -->
<g id="edge14" class="edge"><title>Node7&#45;&gt;Node15</title>
<path fill="none" stroke="midnightblue" d="M520.535,-180.403C506.581,-170.78 483.735,-155.024 467.009,-143.489"/>
<polygon fill="midnightblue" stroke="midnightblue" points="468.661,-140.377 458.442,-137.581 464.687,-146.139 468.661,-140.377"/>
</g>
<!-- Node16 -->
<g id="node16" class="node"><title>Node16</title>
<polygon fill="white" stroke="#bfbfbf" points="490,-56.5 490,-75.5 534,-75.5 534,-56.5 490,-56.5"/>
<text text-anchor="middle" x="512" y="-63.5" font-family="Helvetica,sans-Serif" font-size="10.00">cmath</text>
</g>
<!-- Node7&#45;&gt;Node16 -->
<g id="edge23" class="edge"><title>Node7&#45;&gt;Node16</title>
<path fill="none" stroke="midnightblue" d="M531.49,-180.226C528.099,-160.53 519.821,-112.437 515.219,-85.7004"/>
<polygon fill="midnightblue" stroke="midnightblue" points="518.642,-84.9558 513.497,-75.6944 511.744,-86.1433 518.642,-84.9558"/>
</g>
<!-- Node17 -->
<g id="node17" class="node"><title>Node17</title>
<polygon fill="white" stroke="#bfbfbf" points="552,-56.5 552,-75.5 606,-75.5 606,-56.5 552,-56.5"/>
<text text-anchor="middle" x="579" y="-63.5" font-family="Helvetica,sans-Serif" font-size="10.00">iostream</text>
</g>
<!-- Node7&#45;&gt;Node17 -->
<g id="edge24" class="edge"><title>Node7&#45;&gt;Node17</title>
<path fill="none" stroke="midnightblue" d="M536.308,-180.226C543.768,-160.442 562.03,-112.007 572.084,-85.3436"/>
<polygon fill="midnightblue" stroke="midnightblue" points="575.469,-86.2863 575.722,-75.6944 568.919,-83.8166 575.469,-86.2863"/>
</g>
<!-- Node18 -->
<g id="node18" class="node"><title>Node18</title>
<polygon fill="white" stroke="#bfbfbf" points="624,-56.5 624,-75.5 664,-75.5 664,-56.5 624,-56.5"/>
<text text-anchor="middle" x="644" y="-63.5" font-family="Helvetica,sans-Serif" font-size="10.00">limits</text>
</g>
<!-- Node7&#45;&gt;Node18 -->
<g id="edge25" class="edge"><title>Node7&#45;&gt;Node18</title>
<path fill="none" stroke="midnightblue" d="M540.983,-180.226C559.463,-159.914 605.42,-109.404 629.208,-83.258"/>
<polygon fill="midnightblue" stroke="midnightblue" points="631.949,-85.4465 636.089,-75.6944 626.771,-80.7357 631.949,-85.4465"/>
</g>
<!-- Node10 -->
<g id="node10" class="node"><title>Node10</title>
<polygon fill="white" stroke="#bfbfbf" points="216.5,-0.5 216.5,-19.5 265.5,-19.5 265.5,-0.5 216.5,-0.5"/>
<text text-anchor="middle" x="241" y="-7.5" font-family="Helvetica,sans-Serif" font-size="10.00">cstddef</text>
</g>
<!-- Node9&#45;&gt;Node10 -->
<g id="edge9" class="edge"><title>Node9&#45;&gt;Node10</title>
<path fill="none" stroke="midnightblue" d="M277.734,-56.083C271.455,-48.3768 262.212,-37.0333 254.569,-27.6531"/>
<polygon fill="midnightblue" stroke="midnightblue" points="257.161,-25.2926 248.131,-19.7511 251.734,-29.7143 257.161,-25.2926"/>
</g>
<!-- Node11 -->
<g id="node11" class="node"><title>Node11</title>
<polygon fill="white" stroke="#bfbfbf" points="284,-0.5 284,-19.5 376,-19.5 376,-0.5 284,-0.5"/>
<text text-anchor="middle" x="330" y="-7.5" font-family="Helvetica,sans-Serif" font-size="10.00">boost/cstdint.hpp</text>
</g>
<!-- Node9&#45;&gt;Node11 -->
<g id="edge10" class="edge"><title>Node9&#45;&gt;Node11</title>
<path fill="none" stroke="midnightblue" d="M292.431,-56.083C298.853,-48.3768 308.306,-37.0333 316.122,-27.6531"/>
<polygon fill="midnightblue" stroke="midnightblue" points="318.994,-29.674 322.707,-19.7511 313.617,-25.1927 318.994,-29.674"/>
</g>
<!-- Node13 -->
<g id="node13" class="node"><title>Node13</title>
<polygon fill="white" stroke="#bfbfbf" points="36.5,-56.5 36.5,-75.5 109.5,-75.5 109.5,-56.5 36.5,-56.5"/>
<text text-anchor="middle" x="73" y="-63.5" font-family="Helvetica,sans-Serif" font-size="10.00">Eigen/Dense</text>
</g>
<!-- Node12&#45;&gt;Node13 -->
<g id="edge12" class="edge"><title>Node12&#45;&gt;Node13</title>
<path fill="none" stroke="midnightblue" d="M147.775,-112.781C131.972,-103.105 111.168,-90.3684 95.5172,-80.7861"/>
<polygon fill="midnightblue" stroke="midnightblue" points="97.3304,-77.7923 86.9743,-75.5557 93.6753,-83.7623 97.3304,-77.7923"/>
</g>
<!-- Node14 -->
<g id="node14" class="node"><title>Node14</title>
<polygon fill="white" stroke="#bfbfbf" points="127.5,-56.5 127.5,-75.5 214.5,-75.5 214.5,-56.5 127.5,-56.5"/>
<text text-anchor="middle" x="171" y="-63.5" font-family="Helvetica,sans-Serif" font-size="10.00">Eigen/Geometry</text>
</g>
<!-- Node12&#45;&gt;Node14 -->
<g id="edge13" class="edge"><title>Node12&#45;&gt;Node14</title>
<path fill="none" stroke="midnightblue" d="M171,-112.781C171,-104.781 171,-94.6887 171,-86.0168"/>
<polygon fill="midnightblue" stroke="midnightblue" points="174.5,-85.7305 171,-75.7305 167.5,-85.7306 174.5,-85.7305"/>
</g>
<!-- Node15&#45;&gt;Node8 -->
<g id="edge15" class="edge"><title>Node15&#45;&gt;Node8</title>
<path fill="none" stroke="midnightblue" d="M486.815,-118.467C538.244,-107.716 626.623,-89.239 682.322,-77.5947"/>
<polygon fill="midnightblue" stroke="midnightblue" points="683.253,-80.9757 692.325,-75.5034 681.821,-74.1239 683.253,-80.9757"/>
</g>
<!-- Node15&#45;&gt;Node9 -->
<g id="edge16" class="edge"><title>Node15&#45;&gt;Node9</title>
<path fill="none" stroke="midnightblue" d="M422.933,-118.403C395.315,-108.111 348.88,-90.8064 317.604,-79.1504"/>
<polygon fill="midnightblue" stroke="midnightblue" points="318.617,-75.7931 308.025,-75.5806 316.173,-82.3524 318.617,-75.7931"/>
</g>
<!-- Node15&#45;&gt;Node13 -->
<g id="edge17" class="edge"><title>Node15&#45;&gt;Node13</title>
<path fill="none" stroke="midnightblue" d="M386.917,-118.597C323.267,-109.368 218.768,-93.7079 119.691,-76.2471"/>
<polygon fill="midnightblue" stroke="midnightblue" points="120.27,-72.7953 109.812,-74.4969 119.048,-79.6879 120.27,-72.7953"/>
</g>
<!-- Node15&#45;&gt;Node14 -->
<g id="edge18" class="edge"><title>Node15&#45;&gt;Node14</title>
<path fill="none" stroke="midnightblue" d="M406.891,-118.467C357.716,-107.738 273.28,-89.3157 219.892,-77.6673"/>
<polygon fill="midnightblue" stroke="midnightblue" points="220.49,-74.2156 209.974,-75.5034 218.998,-81.0547 220.49,-74.2156"/>
</g>
<!-- Node15&#45;&gt;Node16 -->
<g id="edge19" class="edge"><title>Node15&#45;&gt;Node16</title>
<path fill="none" stroke="midnightblue" d="M455.456,-118.403C465.748,-109.047 482.416,-93.8948 494.994,-82.4599"/>
<polygon fill="midnightblue" stroke="midnightblue" points="497.516,-84.8971 502.561,-75.5806 492.808,-79.7176 497.516,-84.8971"/>
</g>
<!-- Node15&#45;&gt;Node17 -->
<g id="edge20" class="edge"><title>Node15&#45;&gt;Node17</title>
<path fill="none" stroke="midnightblue" d="M465.056,-118.403C487.475,-108.29 524.905,-91.4036 550.713,-79.761"/>
<polygon fill="midnightblue" stroke="midnightblue" points="552.304,-82.8832 559.98,-75.5806 549.425,-76.5025 552.304,-82.8832"/>
</g>
<!-- Node15&#45;&gt;Node18 -->
<g id="edge21" class="edge"><title>Node15&#45;&gt;Node18</title>
<path fill="none" stroke="midnightblue" d="M474.428,-118.495C506.125,-108.996 559.173,-93.0508 613.861,-76.3329"/>
<polygon fill="midnightblue" stroke="midnightblue" points="615.187,-79.5875 623.725,-73.3145 613.138,-72.8939 615.187,-79.5875"/>
</g>
<!-- Node19 -->
<g id="node19" class="node"><title>Node19</title>
<g id="a_node19"><a xlink:href="a00336.html" target="_top" xlink:title="hpp/fcl/eigen/product.h">
<polygon fill="white" stroke="black" points="356,-56.5 356,-75.5 472,-75.5 472,-56.5 356,-56.5"/>
<text text-anchor="middle" x="414" y="-63.5" font-family="Helvetica,sans-Serif" font-size="10.00">hpp/fcl/eigen/product.h</text>
</a>
</g>
</g>
<!-- Node15&#45;&gt;Node19 -->
<g id="edge22" class="edge"><title>Node15&#45;&gt;Node19</title>
<path fill="none" stroke="midnightblue" d="M441.415,-118.403C436.71,-109.582 429.257,-95.6075 423.309,-84.4548"/>
<polygon fill="midnightblue" stroke="midnightblue" points="426.37,-82.7571 418.576,-75.5806 420.194,-86.0512 426.37,-82.7571"/>
</g>
<!-- Node21 -->
<g id="node21" class="node"><title>Node21</title>
<g id="a_node21"><a xlink:href="a00319.html" target="_top" xlink:title="hpp/fcl/math/matrix_3f.h">
<polygon fill="white" stroke="black" points="559,-242.5 559,-261.5 681,-261.5 681,-242.5 559,-242.5"/>
<text text-anchor="middle" x="620" y="-249.5" font-family="Helvetica,sans-Serif" font-size="10.00">hpp/fcl/math/matrix_3f.h</text>
</a>
</g>
</g>
<!-- Node20&#45;&gt;Node21 -->
<g id="edge27" class="edge"><title>Node20&#45;&gt;Node21</title>
<path fill="none" stroke="midnightblue" d="M729.411,-446.43C722.9,-436.371 711.9,-419.138 703,-404 675.05,-356.457 644.311,-299.079 629.295,-270.688"/>
<polygon fill="midnightblue" stroke="midnightblue" points="632.27,-268.824 624.509,-261.611 626.078,-272.089 632.27,-268.824"/>
</g>
<!-- Node22 -->
<g id="node22" class="node"><title>Node22</title>
<polygon fill="white" stroke="#bfbfbf" points="711.5,-378.5 711.5,-397.5 830.5,-397.5 830.5,-378.5 711.5,-378.5"/>
<text text-anchor="middle" x="771" y="-385.5" font-family="Helvetica,sans-Serif" font-size="10.00">boost/thread/mutex.hpp</text>
</g>
<!-- Node20&#45;&gt;Node22 -->
<g id="edge29" class="edge"><title>Node20&#45;&gt;Node22</title>
<path fill="none" stroke="midnightblue" d="M739.706,-446.372C745.174,-436.348 754.339,-419.546 761.341,-406.708"/>
<polygon fill="midnightblue" stroke="midnightblue" points="764.462,-408.296 766.178,-397.841 758.316,-404.944 764.462,-408.296"/>
</g>
<!-- Node21&#45;&gt;Node7 -->
<g id="edge28" class="edge"><title>Node21&#45;&gt;Node7</title>
<path fill="none" stroke="midnightblue" d="M607.535,-242.403C593.581,-232.78 570.735,-217.024 554.009,-205.489"/>
<polygon fill="midnightblue" stroke="midnightblue" points="555.661,-202.377 545.442,-199.581 551.687,-208.139 555.661,-202.377"/>
</g>
<!-- Node23&#45;&gt;Node20 -->
<g id="edge31" class="edge"><title>Node23&#45;&gt;Node20</title>
<path fill="none" stroke="midnightblue" d="M547.613,-509.405C591.026,-497.264 653.872,-479.688 694.586,-468.302"/>
<polygon fill="midnightblue" stroke="midnightblue" points="695.747,-471.612 704.435,-465.548 693.862,-464.871 695.747,-471.612"/>
</g>
<!-- Node24 -->
<g id="node24" class="node"><title>Node24</title>
<g id="a_node24"><a xlink:href="a00343.html" target="_top" xlink:title="hpp/fcl/ccd/taylor\l_matrix.h">
<polygon fill="white" stroke="black" points="454,-441 454,-471 546,-471 546,-441 454,-441"/>
<text text-anchor="start" x="462" y="-459" font-family="Helvetica,sans-Serif" font-size="10.00">hpp/fcl/ccd/taylor</text>
<text text-anchor="middle" x="500" y="-448" font-family="Helvetica,sans-Serif" font-size="10.00">_matrix.h</text>
</a>
</g>
</g>
<!-- Node23&#45;&gt;Node24 -->
<g id="edge32" class="edge"><title>Node23&#45;&gt;Node24</title>
<path fill="none" stroke="midnightblue" d="M499.217,-508.679C499.338,-500.722 499.491,-490.605 499.63,-481.436"/>
<polygon fill="midnightblue" stroke="midnightblue" points="503.131,-481.345 499.783,-471.293 496.132,-481.239 503.131,-481.345"/>
</g>
<!-- Node25 -->
<g id="node25" class="node"><title>Node25</title>
<g id="a_node25"><a xlink:href="a00346.html" target="_top" xlink:title="hpp/fcl/ccd/taylor\l_vector.h">
<polygon fill="white" stroke="black" points="341,-373 341,-403 433,-403 433,-373 341,-373"/>
<text text-anchor="start" x="349" y="-391" font-family="Helvetica,sans-Serif" font-size="10.00">hpp/fcl/ccd/taylor</text>
<text text-anchor="middle" x="387" y="-380" font-family="Helvetica,sans-Serif" font-size="10.00">_vector.h</text>
</a>
</g>
</g>
<!-- Node23&#45;&gt;Node25 -->
<g id="edge50" class="edge"><title>Node23&#45;&gt;Node25</title>
<path fill="none" stroke="midnightblue" d="M482.08,-508.64C470.981,-498.841 456.457,-485.278 445,-472 428.527,-452.91 412.305,-429.155 401.225,-411.956"/>
<polygon fill="midnightblue" stroke="midnightblue" points="403.945,-409.711 395.629,-403.147 398.036,-413.465 403.945,-409.711"/>
</g>
<!-- Node33 -->
<g id="node33" class="node"><title>Node33</title>
<g id="a_node33"><a xlink:href="a00338.html" target="_top" xlink:title="hpp/fcl/BV/RSS.h">
<polygon fill="white" stroke="black" points="711.5,-310.5 711.5,-329.5 806.5,-329.5 806.5,-310.5 711.5,-310.5"/>
<text text-anchor="middle" x="759" y="-317.5" font-family="Helvetica,sans-Serif" font-size="10.00">hpp/fcl/BV/RSS.h</text>
</a>
</g>
</g>
<!-- Node23&#45;&gt;Node33 -->
<g id="edge51" class="edge"><title>Node23&#45;&gt;Node33</title>
<path fill="none" stroke="midnightblue" d="M517.283,-508.796C564.727,-471.936 691.446,-373.484 739.846,-335.881"/>
<polygon fill="midnightblue" stroke="midnightblue" points="742.185,-338.496 747.935,-329.597 737.89,-332.968 742.185,-338.496"/>
</g>
<!-- Node24&#45;&gt;Node21 -->
<g id="edge33" class="edge"><title>Node24&#45;&gt;Node21</title>
<path fill="none" stroke="midnightblue" d="M520.638,-440.809C533.019,-431.48 548.374,-418.37 559,-404 590.155,-361.87 608.17,-301.604 615.743,-271.539"/>
<polygon fill="midnightblue" stroke="midnightblue" points="619.199,-272.138 618.139,-261.596 612.394,-270.497 619.199,-272.138"/>
</g>
<!-- Node24&#45;&gt;Node25 -->
<g id="edge34" class="edge"><title>Node24&#45;&gt;Node25</title>
<path fill="none" stroke="midnightblue" d="M475.759,-440.841C459.523,-431.359 437.943,-418.754 420.127,-408.348"/>
<polygon fill="midnightblue" stroke="midnightblue" points="421.602,-405.156 411.201,-403.135 418.071,-411.201 421.602,-405.156"/>
</g>
<!-- Node32 -->
<g id="node32" class="node"><title>Node32</title>
<g id="a_node32"><a xlink:href="a00307.html" target="_top" xlink:title="hpp/fcl/ccd/interval\l_matrix.h">
<polygon fill="white" stroke="black" points="451.5,-373 451.5,-403 550.5,-403 550.5,-373 451.5,-373"/>
<text text-anchor="start" x="459.5" y="-391" font-family="Helvetica,sans-Serif" font-size="10.00">hpp/fcl/ccd/interval</text>
<text text-anchor="middle" x="501" y="-380" font-family="Helvetica,sans-Serif" font-size="10.00">_matrix.h</text>
</a>
</g>
</g>
<!-- Node24&#45;&gt;Node32 -->
<g id="edge46" class="edge"><title>Node24&#45;&gt;Node32</title>
<path fill="none" stroke="midnightblue" d="M500.217,-440.679C500.338,-432.722 500.491,-422.605 500.63,-413.436"/>
<polygon fill="midnightblue" stroke="midnightblue" points="504.131,-413.345 500.783,-403.293 497.132,-413.239 504.131,-413.345"/>
</g>
<!-- Node26 -->
<g id="node26" class="node"><title>Node26</title>
<g id="a_node26"><a xlink:href="a00309.html" target="_top" xlink:title="hpp/fcl/ccd/interval\l_vector.h">
<polygon fill="white" stroke="black" points="337.5,-305 337.5,-335 436.5,-335 436.5,-305 337.5,-305"/>
<text text-anchor="start" x="345.5" y="-323" font-family="Helvetica,sans-Serif" font-size="10.00">hpp/fcl/ccd/interval</text>
<text text-anchor="middle" x="387" y="-312" font-family="Helvetica,sans-Serif" font-size="10.00">_vector.h</text>
</a>
</g>
</g>
<!-- Node25&#45;&gt;Node26 -->
<g id="edge35" class="edge"><title>Node25&#45;&gt;Node26</title>
<path fill="none" stroke="midnightblue" d="M387,-372.679C387,-364.722 387,-354.605 387,-345.436"/>
<polygon fill="midnightblue" stroke="midnightblue" points="390.5,-345.293 387,-335.293 383.5,-345.293 390.5,-345.293"/>
</g>
<!-- Node29 -->
<g id="node29" class="node"><title>Node29</title>
<g id="a_node29"><a xlink:href="a00344.html" target="_top" xlink:title="hpp/fcl/ccd/taylor\l_model.h">
<polygon fill="white" stroke="black" points="189,-305 189,-335 281,-335 281,-305 189,-305"/>
<text text-anchor="start" x="197" y="-323" font-family="Helvetica,sans-Serif" font-size="10.00">hpp/fcl/ccd/taylor</text>
<text text-anchor="middle" x="235" y="-312" font-family="Helvetica,sans-Serif" font-size="10.00">_model.h</text>
</a>
</g>
</g>
<!-- Node25&#45;&gt;Node29 -->
<g id="edge40" class="edge"><title>Node25&#45;&gt;Node29</title>
<path fill="none" stroke="midnightblue" d="M354.392,-372.841C331.674,-362.977 301.178,-349.735 276.693,-339.104"/>
<polygon fill="midnightblue" stroke="midnightblue" points="277.859,-335.794 267.293,-335.022 275.071,-342.215 277.859,-335.794"/>
</g>
<!-- Node31 -->
<g id="node31" class="node"><title>Node31</title>
<g id="a_node31"><a xlink:href="a00345.html" target="_top" xlink:title="hpp/fcl/eigen/taylor\l_operator.h">
<polygon fill="white" stroke="black" points="454.5,-305 454.5,-335 553.5,-335 553.5,-305 454.5,-305"/>
<text text-anchor="start" x="462.5" y="-323" font-family="Helvetica,sans-Serif" font-size="10.00">hpp/fcl/eigen/taylor</text>
<text text-anchor="middle" x="504" y="-312" font-family="Helvetica,sans-Serif" font-size="10.00">_operator.h</text>
</a>
</g>
</g>
<!-- Node25&#45;&gt;Node31 -->
<g id="edge43" class="edge"><title>Node25&#45;&gt;Node31</title>
<path fill="none" stroke="midnightblue" d="M412.099,-372.841C429.064,-363.272 451.665,-350.523 470.208,-340.062"/>
<polygon fill="midnightblue" stroke="midnightblue" points="471.952,-343.097 478.942,-335.135 468.513,-337 471.952,-343.097"/>
</g>
<!-- Node26&#45;&gt;Node7 -->
<g id="edge38" class="edge"><title>Node26&#45;&gt;Node7</title>
<path fill="none" stroke="midnightblue" d="M417.493,-304.839C435.115,-295.787 457.074,-282.954 474,-268 493.835,-250.477 511.552,-225.45 522.276,-208.736"/>
<polygon fill="midnightblue" stroke="midnightblue" points="525.419,-210.311 527.745,-199.975 519.481,-206.604 525.419,-210.311"/>
</g>
<!-- Node27 -->
<g id="node27" class="node"><title>Node27</title>
<g id="a_node27"><a xlink:href="a00306.html" target="_top" xlink:title="hpp/fcl/ccd/interval.h">
<polygon fill="white" stroke="black" points="231.5,-242.5 231.5,-261.5 338.5,-261.5 338.5,-242.5 231.5,-242.5"/>
<text text-anchor="middle" x="285" y="-249.5" font-family="Helvetica,sans-Serif" font-size="10.00">hpp/fcl/ccd/interval.h</text>
</a>
</g>
</g>
<!-- Node26&#45;&gt;Node27 -->
<g id="edge36" class="edge"><title>Node26&#45;&gt;Node27</title>
<path fill="none" stroke="midnightblue" d="M365.118,-304.841C348.029,-293.784 324.38,-278.481 307.208,-267.37"/>
<polygon fill="midnightblue" stroke="midnightblue" points="308.715,-264.176 298.417,-261.682 304.912,-270.053 308.715,-264.176"/>
</g>
<!-- Node28 -->
<g id="node28" class="node"><title>Node28</title>
<g id="a_node28"><a xlink:href="a00305.html" target="_top" xlink:title="hpp/fcl/eigen/plugins\l/ccd/interval&#45;vector.h">
<polygon fill="white" stroke="black" points="357,-237 357,-267 465,-267 465,-237 357,-237"/>
<text text-anchor="start" x="365" y="-255" font-family="Helvetica,sans-Serif" font-size="10.00">hpp/fcl/eigen/plugins</text>
<text text-anchor="middle" x="411" y="-244" font-family="Helvetica,sans-Serif" font-size="10.00">/ccd/interval&#45;vector.h</text>
</a>
</g>
</g>
<!-- Node26&#45;&gt;Node28 -->
<g id="edge39" class="edge"><title>Node26&#45;&gt;Node28</title>
<path fill="none" stroke="midnightblue" d="M392.208,-304.679C395.164,-296.549 398.94,-286.164 402.331,-276.839"/>
<polygon fill="midnightblue" stroke="midnightblue" points="405.674,-277.887 405.803,-267.293 399.096,-275.495 405.674,-277.887"/>
</g>
<!-- Node27&#45;&gt;Node9 -->
<g id="edge37" class="edge"><title>Node27&#45;&gt;Node9</title>
<path fill="none" stroke="midnightblue" d="M285,-242.125C285,-213.769 285,-124.93 285,-85.8108"/>
<polygon fill="midnightblue" stroke="midnightblue" points="288.5,-85.7856 285,-75.7857 281.5,-85.7857 288.5,-85.7856"/>
</g>
<!-- Node29&#45;&gt;Node27 -->
<g id="edge41" class="edge"><title>Node29&#45;&gt;Node27</title>
<path fill="none" stroke="midnightblue" d="M245.849,-304.679C253.568,-294.49 263.971,-280.759 272.113,-270.011"/>
<polygon fill="midnightblue" stroke="midnightblue" points="275.063,-271.913 278.312,-261.828 269.483,-267.686 275.063,-271.913"/>
</g>
<!-- Node29&#45;&gt;Node30 -->
<g id="edge42" class="edge"><title>Node29&#45;&gt;Node30</title>
<path fill="none" stroke="midnightblue" d="M218.509,-304.679C206.19,-293.981 189.373,-279.377 176.759,-268.422"/>
<polygon fill="midnightblue" stroke="midnightblue" points="179.011,-265.743 169.166,-261.828 174.421,-271.028 179.011,-265.743"/>
</g>
<!-- Node31&#45;&gt;Node7 -->
<g id="edge44" class="edge"><title>Node31&#45;&gt;Node7</title>
<path fill="none" stroke="midnightblue" d="M507.214,-304.813C512.481,-281.566 522.947,-235.371 528.796,-209.556"/>
<polygon fill="midnightblue" stroke="midnightblue" points="532.261,-210.1 531.057,-199.574 525.434,-208.553 532.261,-210.1"/>
</g>
<!-- Node31&#45;&gt;Node21 -->
<g id="edge45" class="edge"><title>Node31&#45;&gt;Node21</title>
<path fill="none" stroke="midnightblue" d="M528.885,-304.841C548.68,-293.579 576.213,-277.913 595.821,-266.757"/>
<polygon fill="midnightblue" stroke="midnightblue" points="597.78,-269.669 604.741,-261.682 594.318,-263.585 597.78,-269.669"/>
</g>
<!-- Node32&#45;&gt;Node21 -->
<g id="edge49" class="edge"><title>Node32&#45;&gt;Node21</title>
<path fill="none" stroke="midnightblue" d="M520.559,-372.795C533.13,-363.166 549.404,-349.734 562,-336 581.148,-315.121 599.173,-287.637 609.901,-270.138"/>
<polygon fill="midnightblue" stroke="midnightblue" points="612.912,-271.922 615.07,-261.549 606.915,-268.312 612.912,-271.922"/>
</g>
<!-- Node32&#45;&gt;Node26 -->
<g id="edge48" class="edge"><title>Node32&#45;&gt;Node26</title>
<path fill="none" stroke="midnightblue" d="M476.544,-372.841C460.165,-363.359 438.393,-350.754 420.42,-340.348"/>
<polygon fill="midnightblue" stroke="midnightblue" points="421.823,-337.117 411.415,-335.135 418.316,-343.175 421.823,-337.117"/>
</g>
<!-- Node32&#45;&gt;Node27 -->
<g id="edge47" class="edge"><title>Node32&#45;&gt;Node27</title>
<path fill="none" stroke="midnightblue" d="M451.496,-373.431C402.135,-359.746 332.937,-340.072 328,-336 307.698,-319.253 295.862,-290.416 289.913,-271.527"/>
<polygon fill="midnightblue" stroke="midnightblue" points="293.217,-270.352 287.071,-261.722 286.493,-272.301 293.217,-270.352"/>
</g>
<!-- Node33&#45;&gt;Node6 -->
<g id="edge52" class="edge"><title>Node33&#45;&gt;Node6</title>
<path fill="none" stroke="midnightblue" d="M777.041,-310.372C800.699,-299.057 842.416,-279.105 869.885,-265.968"/>
<polygon fill="midnightblue" stroke="midnightblue" points="871.443,-269.103 878.954,-261.63 868.423,-262.788 871.443,-269.103"/>
</g>
<!-- Node33&#45;&gt;Node7 -->
<g id="edge53" class="edge"><title>Node33&#45;&gt;Node7</title>
<path fill="none" stroke="midnightblue" d="M773.285,-310.414C797.269,-294.96 840.953,-261.678 819,-236 791.275,-203.571 674.549,-194.363 599.057,-191.839"/>
<polygon fill="midnightblue" stroke="midnightblue" points="598.793,-188.33 588.691,-191.526 598.581,-195.327 598.793,-188.33"/>
</g>
<!-- Node33&#45;&gt;Node21 -->
<g id="edge54" class="edge"><title>Node33&#45;&gt;Node21</title>
<path fill="none" stroke="midnightblue" d="M740.828,-310.372C716.999,-299.057 674.979,-279.105 647.311,-265.968"/>
<polygon fill="midnightblue" stroke="midnightblue" points="648.711,-262.758 638.176,-261.63 645.708,-269.081 648.711,-262.758"/>
</g>
<!-- Node34 -->
<g id="node34" class="node"><title>Node34</title>
<polygon fill="white" stroke="#bfbfbf" points="699.5,-237 699.5,-267 810.5,-267 810.5,-237 699.5,-237"/>
<text text-anchor="start" x="707.5" y="-255" font-family="Helvetica,sans-Serif" font-size="10.00">boost/math/constants</text>
<text text-anchor="middle" x="755" y="-244" font-family="Helvetica,sans-Serif" font-size="10.00">/constants.hpp</text>
</g>
<!-- Node33&#45;&gt;Node34 -->
<g id="edge55" class="edge"><title>Node33&#45;&gt;Node34</title>
<path fill="none" stroke="midnightblue" d="M758.477,-310.372C757.968,-301.971 757.17,-288.811 756.467,-277.213"/>
<polygon fill="midnightblue" stroke="midnightblue" points="759.958,-276.951 755.859,-267.181 752.971,-277.375 759.958,-276.951"/>
</g>
</g>
</svg>
