<?xml version="1.0" encoding="UTF-8" standalone="no"?>
<!DOCTYPE svg PUBLIC "-//W3C//DTD SVG 1.1//EN"
 "http://www.w3.org/Graphics/SVG/1.1/DTD/svg11.dtd">
<!-- Generated by graphviz version 2.36.0 (20140111.2315)
 -->
<!-- Title: collision_object.h Pages: 1 -->
<svg width="924pt" height="604pt"
 viewBox="0.00 0.00 924.00 604.00" xmlns="http://www.w3.org/2000/svg" xmlns:xlink="http://www.w3.org/1999/xlink">
<g id="graph0" class="graph" transform="scale(1 1) rotate(0) translate(4 600)">
<title>collision_object.h</title>
<polygon fill="white" stroke="none" points="-4,4 -4,-600 920,-600 920,4 -4,4"/>
<!-- Node1 -->
<g id="node1" class="node"><title>Node1</title>
<polygon fill="#bfbfbf" stroke="black" points="227,-576.5 227,-595.5 319,-595.5 319,-576.5 227,-576.5"/>
<text text-anchor="middle" x="273" y="-583.5" font-family="Helvetica,sans-Serif" font-size="10.00">collision_object.h</text>
</g>
<!-- Node2 -->
<g id="node2" class="node"><title>Node2</title>
<g id="a_node2"><a xlink:href="a00284.html" target="_top" xlink:title="hpp/fcl/deprecated.h">
<polygon fill="white" stroke="black" points="15.5,-514.5 15.5,-533.5 120.5,-533.5 120.5,-514.5 15.5,-514.5"/>
<text text-anchor="middle" x="68" y="-521.5" font-family="Helvetica,sans-Serif" font-size="10.00">hpp/fcl/deprecated.h</text>
</a>
</g>
</g>
<!-- Node1&#45;&gt;Node2 -->
<g id="edge1" class="edge"><title>Node1&#45;&gt;Node2</title>
<path fill="none" stroke="midnightblue" d="M243.628,-576.403C207.703,-565.889 146.768,-548.054 106.956,-536.402"/>
<polygon fill="midnightblue" stroke="midnightblue" points="107.898,-533.031 97.317,-533.581 105.931,-539.749 107.898,-533.031"/>
</g>
<!-- Node3 -->
<g id="node3" class="node"><title>Node3</title>
<g id="a_node3"><a xlink:href="a00257.html" target="_top" xlink:title="hpp/fcl/BV/AABB.h">
<polygon fill="white" stroke="black" points="74.5,-310.5 74.5,-329.5 175.5,-329.5 175.5,-310.5 74.5,-310.5"/>
<text text-anchor="middle" x="125" y="-317.5" font-family="Helvetica,sans-Serif" font-size="10.00">hpp/fcl/BV/AABB.h</text>
</a>
</g>
</g>
<!-- Node1&#45;&gt;Node3 -->
<g id="edge2" class="edge"><title>Node1&#45;&gt;Node3</title>
<path fill="none" stroke="midnightblue" d="M267.319,-576.348C255.085,-557.609 225.534,-511.75 203,-472 176.174,-424.677 147.533,-367.202 133.604,-338.74"/>
<polygon fill="midnightblue" stroke="midnightblue" points="136.696,-337.094 129.168,-329.639 130.403,-340.161 136.696,-337.094"/>
</g>
<!-- Node18 -->
<g id="node18" class="node"><title>Node18</title>
<g id="a_node18"><a xlink:href="a00348.html" target="_top" xlink:title="hpp/fcl/math/transform.h">
<polygon fill="white" stroke="black" points="211.5,-446.5 211.5,-465.5 334.5,-465.5 334.5,-446.5 211.5,-446.5"/>
<text text-anchor="middle" x="273" y="-453.5" font-family="Helvetica,sans-Serif" font-size="10.00">hpp/fcl/math/transform.h</text>
</a>
</g>
</g>
<!-- Node1&#45;&gt;Node18 -->
<g id="edge24" class="edge"><title>Node1&#45;&gt;Node18</title>
<path fill="none" stroke="midnightblue" d="M273,-576.202C273,-555.551 273,-503.606 273,-475.594"/>
<polygon fill="midnightblue" stroke="midnightblue" points="276.5,-475.522 273,-465.522 269.5,-475.522 276.5,-475.522"/>
</g>
<!-- Node21 -->
<g id="node21" class="node"><title>Node21</title>
<g id="a_node21"><a xlink:href="a00325.html" target="_top" xlink:title="hpp/fcl/ccd/motion\l_base.h">
<polygon fill="white" stroke="black" points="314.5,-509 314.5,-539 411.5,-539 411.5,-509 314.5,-509"/>
<text text-anchor="start" x="322.5" y="-527" font-family="Helvetica,sans-Serif" font-size="10.00">hpp/fcl/ccd/motion</text>
<text text-anchor="middle" x="363" y="-516" font-family="Helvetica,sans-Serif" font-size="10.00">_base.h</text>
</a>
</g>
</g>
<!-- Node1&#45;&gt;Node21 -->
<g id="edge28" class="edge"><title>Node1&#45;&gt;Node21</title>
<path fill="none" stroke="midnightblue" d="M285.895,-576.403C298.198,-568.201 317.182,-555.545 333.234,-544.844"/>
<polygon fill="midnightblue" stroke="midnightblue" points="335.41,-547.6 341.789,-539.141 331.527,-541.776 335.41,-547.6"/>
</g>
<!-- Node28 -->
<g id="node28" class="node"><title>Node28</title>
<polygon fill="white" stroke="#bfbfbf" points="808,-242.5 808,-261.5 916,-261.5 916,-242.5 808,-242.5"/>
<text text-anchor="middle" x="862" y="-249.5" font-family="Helvetica,sans-Serif" font-size="10.00">boost/shared_ptr.hpp</text>
</g>
<!-- Node1&#45;&gt;Node28 -->
<g id="edge54" class="edge"><title>Node1&#45;&gt;Node28</title>
<path fill="none" stroke="midnightblue" d="M319.139,-584.77C457.755,-582.849 861,-567.743 861,-457 861,-457 861,-457 861,-387 861,-346.045 861.473,-298.052 861.768,-272.066"/>
<polygon fill="midnightblue" stroke="midnightblue" points="865.271,-271.82 861.889,-261.78 858.272,-271.738 865.271,-271.82"/>
</g>
<!-- Node4 -->
<g id="node4" class="node"><title>Node4</title>
<polygon fill="white" stroke="#bfbfbf" points="95.5,-242.5 95.5,-261.5 154.5,-261.5 154.5,-242.5 95.5,-242.5"/>
<text text-anchor="middle" x="125" y="-249.5" font-family="Helvetica,sans-Serif" font-size="10.00">stdexcept</text>
</g>
<!-- Node3&#45;&gt;Node4 -->
<g id="edge3" class="edge"><title>Node3&#45;&gt;Node4</title>
<path fill="none" stroke="midnightblue" d="M125,-310.372C125,-300.643 125,-284.528 125,-271.85"/>
<polygon fill="midnightblue" stroke="midnightblue" points="128.5,-271.841 125,-261.841 121.5,-271.841 128.5,-271.841"/>
</g>
<!-- Node5 -->
<g id="node5" class="node"><title>Node5</title>
<g id="a_node5"><a xlink:href="a00356.html" target="_top" xlink:title="hpp/fcl/math/vec_3f.h">
<polygon fill="white" stroke="black" points="373.5,-180.5 373.5,-199.5 484.5,-199.5 484.5,-180.5 373.5,-180.5"/>
<text text-anchor="middle" x="429" y="-187.5" font-family="Helvetica,sans-Serif" font-size="10.00">hpp/fcl/math/vec_3f.h</text>
</a>
</g>
</g>
<!-- Node3&#45;&gt;Node5 -->
<g id="edge4" class="edge"><title>Node3&#45;&gt;Node5</title>
<path fill="none" stroke="midnightblue" d="M115.126,-310.34C97.8573,-294.177 65.8395,-258.978 86,-236 103.962,-215.527 268.674,-201.474 363.157,-195.022"/>
<polygon fill="midnightblue" stroke="midnightblue" points="363.452,-198.51 373.195,-194.347 362.982,-191.526 363.452,-198.51"/>
</g>
<!-- Node6 -->
<g id="node6" class="node"><title>Node6</title>
<polygon fill="white" stroke="#bfbfbf" points="-1,-56.5 -1,-75.5 101,-75.5 101,-56.5 -1,-56.5"/>
<text text-anchor="middle" x="50" y="-63.5" font-family="Helvetica,sans-Serif" font-size="10.00">hpp/fcl/config&#45;fcl.hh</text>
</g>
<!-- Node5&#45;&gt;Node6 -->
<g id="edge5" class="edge"><title>Node5&#45;&gt;Node6</title>
<path fill="none" stroke="midnightblue" d="M373.1,-182.152C326.678,-175.457 259.366,-163.395 203,-144 154.495,-127.31 101.89,-98.1509 72.7327,-80.9049"/>
<polygon fill="midnightblue" stroke="midnightblue" points="74.1615,-77.681 63.7835,-75.5481 70.5663,-83.6872 74.1615,-77.681"/>
</g>
<!-- Node7 -->
<g id="node7" class="node"><title>Node7</title>
<g id="a_node7"><a xlink:href="a00283.html" target="_top" xlink:title="hpp/fcl/data_types.h">
<polygon fill="white" stroke="black" points="642.5,-56.5 642.5,-75.5 747.5,-75.5 747.5,-56.5 642.5,-56.5"/>
<text text-anchor="middle" x="695" y="-63.5" font-family="Helvetica,sans-Serif" font-size="10.00">hpp/fcl/data_types.h</text>
</a>
</g>
</g>
<!-- Node5&#45;&gt;Node7 -->
<g id="edge6" class="edge"><title>Node5&#45;&gt;Node7</title>
<path fill="none" stroke="midnightblue" d="M449.632,-180.454C470.885,-171.581 504.916,-157.18 534,-144 581.826,-122.326 636.886,-95.6045 668.644,-80.0162"/>
<polygon fill="midnightblue" stroke="midnightblue" points="670.289,-83.1076 677.718,-75.5538 667.2,-76.8261 670.289,-83.1076"/>
</g>
<!-- Node10 -->
<g id="node10" class="node"><title>Node10</title>
<g id="a_node10"><a xlink:href="a00316.html" target="_top" xlink:title="hpp/fcl/eigen/math\l_details.h">
<polygon fill="white" stroke="black" points="211.5,-113 211.5,-143 308.5,-143 308.5,-113 211.5,-113"/>
<text text-anchor="start" x="219.5" y="-131" font-family="Helvetica,sans-Serif" font-size="10.00">hpp/fcl/eigen/math</text>
<text text-anchor="middle" x="260" y="-120" font-family="Helvetica,sans-Serif" font-size="10.00">_details.h</text>
</a>
</g>
</g>
<!-- Node5&#45;&gt;Node10 -->
<g id="edge9" class="edge"><title>Node5&#45;&gt;Node10</title>
<path fill="none" stroke="midnightblue" d="M404.786,-180.403C379.89,-171.564 340.424,-157.553 308.98,-146.39"/>
<polygon fill="midnightblue" stroke="midnightblue" points="310.099,-143.073 299.505,-143.025 307.757,-149.669 310.099,-143.073"/>
</g>
<!-- Node13 -->
<g id="node13" class="node"><title>Node13</title>
<g id="a_node13"><a xlink:href="a00357.html" target="_top" xlink:title="hpp/fcl/eigen/vec_3fx.h">
<polygon fill="white" stroke="black" points="327,-118.5 327,-137.5 445,-137.5 445,-118.5 327,-118.5"/>
<text text-anchor="middle" x="386" y="-125.5" font-family="Helvetica,sans-Serif" font-size="10.00">hpp/fcl/eigen/vec_3fx.h</text>
</a>
</g>
</g>
<!-- Node5&#45;&gt;Node13 -->
<g id="edge12" class="edge"><title>Node5&#45;&gt;Node13</title>
<path fill="none" stroke="midnightblue" d="M422.839,-180.403C416.389,-171.403 406.096,-157.041 398.027,-145.782"/>
<polygon fill="midnightblue" stroke="midnightblue" points="400.82,-143.67 392.149,-137.581 395.13,-147.748 400.82,-143.67"/>
</g>
<!-- Node14 -->
<g id="node14" class="node"><title>Node14</title>
<polygon fill="white" stroke="#bfbfbf" points="450,-56.5 450,-75.5 494,-75.5 494,-56.5 450,-56.5"/>
<text text-anchor="middle" x="472" y="-63.5" font-family="Helvetica,sans-Serif" font-size="10.00">cmath</text>
</g>
<!-- Node5&#45;&gt;Node14 -->
<g id="edge21" class="edge"><title>Node5&#45;&gt;Node14</title>
<path fill="none" stroke="midnightblue" d="M434.738,-180.39C440.372,-171.583 448.851,-157.34 454,-144 461.399,-124.831 466.299,-101.756 469.093,-85.895"/>
<polygon fill="midnightblue" stroke="midnightblue" points="472.587,-86.2158 470.761,-75.7796 465.681,-85.077 472.587,-86.2158"/>
</g>
<!-- Node15 -->
<g id="node15" class="node"><title>Node15</title>
<polygon fill="white" stroke="#bfbfbf" points="512,-56.5 512,-75.5 566,-75.5 566,-56.5 512,-56.5"/>
<text text-anchor="middle" x="539" y="-63.5" font-family="Helvetica,sans-Serif" font-size="10.00">iostream</text>
</g>
<!-- Node5&#45;&gt;Node15 -->
<g id="edge22" class="edge"><title>Node5&#45;&gt;Node15</title>
<path fill="none" stroke="midnightblue" d="M437.364,-180.486C446.118,-171.519 460.204,-156.935 472,-144 490.739,-123.452 511.682,-99.1593 525.085,-83.4359"/>
<polygon fill="midnightblue" stroke="midnightblue" points="527.884,-85.5468 531.693,-75.6604 522.55,-81.0137 527.884,-85.5468"/>
</g>
<!-- Node16 -->
<g id="node16" class="node"><title>Node16</title>
<polygon fill="white" stroke="#bfbfbf" points="584,-56.5 584,-75.5 624,-75.5 624,-56.5 584,-56.5"/>
<text text-anchor="middle" x="604" y="-63.5" font-family="Helvetica,sans-Serif" font-size="10.00">limits</text>
</g>
<!-- Node5&#45;&gt;Node16 -->
<g id="edge23" class="edge"><title>Node5&#45;&gt;Node16</title>
<path fill="none" stroke="midnightblue" d="M442.845,-180.451C457.085,-171.575 479.829,-157.173 499,-144 529.485,-123.053 563.896,-97.4262 584.76,-81.6596"/>
<polygon fill="midnightblue" stroke="midnightblue" points="586.966,-84.3788 592.821,-75.5486 582.738,-78.8004 586.966,-84.3788"/>
</g>
<!-- Node8 -->
<g id="node8" class="node"><title>Node8</title>
<polygon fill="white" stroke="#bfbfbf" points="626.5,-0.5 626.5,-19.5 675.5,-19.5 675.5,-0.5 626.5,-0.5"/>
<text text-anchor="middle" x="651" y="-7.5" font-family="Helvetica,sans-Serif" font-size="10.00">cstddef</text>
</g>
<!-- Node7&#45;&gt;Node8 -->
<g id="edge7" class="edge"><title>Node7&#45;&gt;Node8</title>
<path fill="none" stroke="midnightblue" d="M687.734,-56.083C681.455,-48.3768 672.212,-37.0333 664.569,-27.6531"/>
<polygon fill="midnightblue" stroke="midnightblue" points="667.161,-25.2926 658.131,-19.7511 661.734,-29.7143 667.161,-25.2926"/>
</g>
<!-- Node9 -->
<g id="node9" class="node"><title>Node9</title>
<polygon fill="white" stroke="#bfbfbf" points="694,-0.5 694,-19.5 786,-19.5 786,-0.5 694,-0.5"/>
<text text-anchor="middle" x="740" y="-7.5" font-family="Helvetica,sans-Serif" font-size="10.00">boost/cstdint.hpp</text>
</g>
<!-- Node7&#45;&gt;Node9 -->
<g id="edge8" class="edge"><title>Node7&#45;&gt;Node9</title>
<path fill="none" stroke="midnightblue" d="M702.431,-56.083C708.853,-48.3768 718.306,-37.0333 726.122,-27.6531"/>
<polygon fill="midnightblue" stroke="midnightblue" points="728.994,-29.674 732.707,-19.7511 723.617,-25.1927 728.994,-29.674"/>
</g>
<!-- Node11 -->
<g id="node11" class="node"><title>Node11</title>
<polygon fill="white" stroke="#bfbfbf" points="224.5,-56.5 224.5,-75.5 297.5,-75.5 297.5,-56.5 224.5,-56.5"/>
<text text-anchor="middle" x="261" y="-63.5" font-family="Helvetica,sans-Serif" font-size="10.00">Eigen/Dense</text>
</g>
<!-- Node10&#45;&gt;Node11 -->
<g id="edge10" class="edge"><title>Node10&#45;&gt;Node11</title>
<path fill="none" stroke="midnightblue" d="M260.237,-112.781C260.37,-104.781 260.539,-94.6887 260.683,-86.0168"/>
<polygon fill="midnightblue" stroke="midnightblue" points="264.187,-85.7875 260.854,-75.7305 257.188,-85.6708 264.187,-85.7875"/>
</g>
<!-- Node12 -->
<g id="node12" class="node"><title>Node12</title>
<polygon fill="white" stroke="#bfbfbf" points="119.5,-56.5 119.5,-75.5 206.5,-75.5 206.5,-56.5 119.5,-56.5"/>
<text text-anchor="middle" x="163" y="-63.5" font-family="Helvetica,sans-Serif" font-size="10.00">Eigen/Geometry</text>
</g>
<!-- Node10&#45;&gt;Node12 -->
<g id="edge11" class="edge"><title>Node10&#45;&gt;Node12</title>
<path fill="none" stroke="midnightblue" d="M237.012,-112.781C221.517,-103.196 201.163,-90.6062 185.723,-81.0555"/>
<polygon fill="midnightblue" stroke="midnightblue" points="187.177,-77.8397 176.832,-75.5557 183.495,-83.7929 187.177,-77.8397"/>
</g>
<!-- Node13&#45;&gt;Node6 -->
<g id="edge13" class="edge"><title>Node13&#45;&gt;Node6</title>
<path fill="none" stroke="midnightblue" d="M348.105,-118.426C338.016,-116.235 327.111,-113.95 317,-112 246.752,-98.4524 165.664,-85.1086 111.451,-76.5144"/>
<polygon fill="midnightblue" stroke="midnightblue" points="111.738,-73.0164 101.315,-74.9131 110.646,-79.9307 111.738,-73.0164"/>
</g>
<!-- Node13&#45;&gt;Node7 -->
<g id="edge14" class="edge"><title>Node13&#45;&gt;Node7</title>
<path fill="none" stroke="midnightblue" d="M429.944,-118.467C485.544,-107.671 581.259,-89.0856 641.182,-77.4501"/>
<polygon fill="midnightblue" stroke="midnightblue" points="642.058,-80.8454 651.208,-75.5034 640.724,-73.9738 642.058,-80.8454"/>
</g>
<!-- Node13&#45;&gt;Node11 -->
<g id="edge15" class="edge"><title>Node13&#45;&gt;Node11</title>
<path fill="none" stroke="midnightblue" d="M368.091,-118.403C347.113,-108.334 312.15,-91.5522 287.907,-79.9151"/>
<polygon fill="midnightblue" stroke="midnightblue" points="289.406,-76.7526 278.876,-75.5806 286.377,-83.0633 289.406,-76.7526"/>
</g>
<!-- Node13&#45;&gt;Node12 -->
<g id="edge16" class="edge"><title>Node13&#45;&gt;Node12</title>
<path fill="none" stroke="midnightblue" d="M354.05,-118.403C314.721,-107.822 247.84,-89.8269 204.553,-78.1802"/>
<polygon fill="midnightblue" stroke="midnightblue" points="205.457,-74.799 194.891,-75.5806 203.638,-81.5586 205.457,-74.799"/>
</g>
<!-- Node13&#45;&gt;Node14 -->
<g id="edge17" class="edge"><title>Node13&#45;&gt;Node14</title>
<path fill="none" stroke="midnightblue" d="M398.322,-118.403C412.116,-108.78 434.699,-93.0242 451.232,-81.4891"/>
<polygon fill="midnightblue" stroke="midnightblue" points="453.503,-84.1729 459.701,-75.5806 449.497,-78.432 453.503,-84.1729"/>
</g>
<!-- Node13&#45;&gt;Node15 -->
<g id="edge18" class="edge"><title>Node13&#45;&gt;Node15</title>
<path fill="none" stroke="midnightblue" d="M407.921,-118.403C434.052,-108.156 477.912,-90.9561 507.63,-79.3021"/>
<polygon fill="midnightblue" stroke="midnightblue" points="509.088,-82.4899 517.119,-75.5806 506.532,-75.9731 509.088,-82.4899"/>
</g>
<!-- Node13&#45;&gt;Node16 -->
<g id="edge19" class="edge"><title>Node13&#45;&gt;Node16</title>
<path fill="none" stroke="midnightblue" d="M419.222,-118.437C455.129,-109.093 514.259,-93.4516 574.135,-76.1768"/>
<polygon fill="midnightblue" stroke="midnightblue" points="575.117,-79.5362 583.748,-73.391 573.168,-72.8129 575.117,-79.5362"/>
</g>
<!-- Node17 -->
<g id="node17" class="node"><title>Node17</title>
<g id="a_node17"><a xlink:href="a00336.html" target="_top" xlink:title="hpp/fcl/eigen/product.h">
<polygon fill="white" stroke="black" points="316,-56.5 316,-75.5 432,-75.5 432,-56.5 316,-56.5"/>
<text text-anchor="middle" x="374" y="-63.5" font-family="Helvetica,sans-Serif" font-size="10.00">hpp/fcl/eigen/product.h</text>
</a>
</g>
</g>
<!-- Node13&#45;&gt;Node17 -->
<g id="edge20" class="edge"><title>Node13&#45;&gt;Node17</title>
<path fill="none" stroke="midnightblue" d="M384.281,-118.403C382.57,-109.849 379.89,-96.4497 377.695,-85.4762"/>
<polygon fill="midnightblue" stroke="midnightblue" points="381.109,-84.7 375.716,-75.5806 374.245,-86.0728 381.109,-84.7"/>
</g>
<!-- Node19 -->
<g id="node19" class="node"><title>Node19</title>
<g id="a_node19"><a xlink:href="a00319.html" target="_top" xlink:title="hpp/fcl/math/matrix_3f.h">
<polygon fill="white" stroke="black" points="340,-242.5 340,-261.5 462,-261.5 462,-242.5 340,-242.5"/>
<text text-anchor="middle" x="401" y="-249.5" font-family="Helvetica,sans-Serif" font-size="10.00">hpp/fcl/math/matrix_3f.h</text>
</a>
</g>
</g>
<!-- Node18&#45;&gt;Node19 -->
<g id="edge25" class="edge"><title>Node18&#45;&gt;Node19</title>
<path fill="none" stroke="midnightblue" d="M278.5,-446.32C297.944,-415.635 363.685,-311.888 389.988,-270.378"/>
<polygon fill="midnightblue" stroke="midnightblue" points="392.98,-272.195 395.376,-261.875 387.067,-268.448 392.98,-272.195"/>
</g>
<!-- Node20 -->
<g id="node20" class="node"><title>Node20</title>
<polygon fill="white" stroke="#bfbfbf" points="177.5,-378.5 177.5,-397.5 296.5,-397.5 296.5,-378.5 177.5,-378.5"/>
<text text-anchor="middle" x="237" y="-385.5" font-family="Helvetica,sans-Serif" font-size="10.00">boost/thread/mutex.hpp</text>
</g>
<!-- Node18&#45;&gt;Node20 -->
<g id="edge27" class="edge"><title>Node18&#45;&gt;Node20</title>
<path fill="none" stroke="midnightblue" d="M268.294,-446.372C262.826,-436.348 253.661,-419.546 246.659,-406.708"/>
<polygon fill="midnightblue" stroke="midnightblue" points="249.684,-404.944 241.822,-397.841 243.538,-408.296 249.684,-404.944"/>
</g>
<!-- Node19&#45;&gt;Node5 -->
<g id="edge26" class="edge"><title>Node19&#45;&gt;Node5</title>
<path fill="none" stroke="midnightblue" d="M405.012,-242.403C409.087,-233.671 415.518,-219.889 420.696,-208.794"/>
<polygon fill="midnightblue" stroke="midnightblue" points="423.938,-210.123 424.996,-199.581 417.595,-207.162 423.938,-210.123"/>
</g>
<!-- Node21&#45;&gt;Node18 -->
<g id="edge29" class="edge"><title>Node21&#45;&gt;Node18</title>
<path fill="none" stroke="midnightblue" d="M343.471,-508.679C328.518,-497.713 307.97,-482.645 292.921,-471.609"/>
<polygon fill="midnightblue" stroke="midnightblue" points="294.913,-468.729 284.779,-465.638 290.773,-474.374 294.913,-468.729"/>
</g>
<!-- Node22 -->
<g id="node22" class="node"><title>Node22</title>
<g id="a_node22"><a xlink:href="a00343.html" target="_top" xlink:title="hpp/fcl/ccd/taylor\l_matrix.h">
<polygon fill="white" stroke="black" points="412,-441 412,-471 504,-471 504,-441 412,-441"/>
<text text-anchor="start" x="420" y="-459" font-family="Helvetica,sans-Serif" font-size="10.00">hpp/fcl/ccd/taylor</text>
<text text-anchor="middle" x="458" y="-448" font-family="Helvetica,sans-Serif" font-size="10.00">_matrix.h</text>
</a>
</g>
</g>
<!-- Node21&#45;&gt;Node22 -->
<g id="edge30" class="edge"><title>Node21&#45;&gt;Node22</title>
<path fill="none" stroke="midnightblue" d="M383.614,-508.679C397.025,-499.361 414.701,-487.082 429.457,-476.83"/>
<polygon fill="midnightblue" stroke="midnightblue" points="431.537,-479.646 437.753,-471.066 427.543,-473.898 431.537,-479.646"/>
</g>
<!-- Node23 -->
<g id="node23" class="node"><title>Node23</title>
<g id="a_node23"><a xlink:href="a00346.html" target="_top" xlink:title="hpp/fcl/ccd/taylor\l_vector.h">
<polygon fill="white" stroke="black" points="547,-373 547,-403 639,-403 639,-373 547,-373"/>
<text text-anchor="start" x="555" y="-391" font-family="Helvetica,sans-Serif" font-size="10.00">hpp/fcl/ccd/taylor</text>
<text text-anchor="middle" x="593" y="-380" font-family="Helvetica,sans-Serif" font-size="10.00">_vector.h</text>
</a>
</g>
</g>
<!-- Node21&#45;&gt;Node23 -->
<g id="edge48" class="edge"><title>Node21&#45;&gt;Node23</title>
<path fill="none" stroke="midnightblue" d="M411.531,-512.754C442.246,-504.805 481.886,-491.758 513,-472 538.639,-455.719 561.994,-429.573 576.762,-410.98"/>
<polygon fill="midnightblue" stroke="midnightblue" points="579.563,-413.08 582.921,-403.031 574.03,-408.792 579.563,-413.08"/>
</g>
<!-- Node31 -->
<g id="node31" class="node"><title>Node31</title>
<g id="a_node31"><a xlink:href="a00338.html" target="_top" xlink:title="hpp/fcl/BV/RSS.h">
<polygon fill="white" stroke="black" points="201.5,-310.5 201.5,-329.5 296.5,-329.5 296.5,-310.5 201.5,-310.5"/>
<text text-anchor="middle" x="249" y="-317.5" font-family="Helvetica,sans-Serif" font-size="10.00">hpp/fcl/BV/RSS.h</text>
</a>
</g>
</g>
<!-- Node21&#45;&gt;Node31 -->
<g id="edge49" class="edge"><title>Node21&#45;&gt;Node31</title>
<path fill="none" stroke="midnightblue" d="M360.803,-508.84C357.921,-492.027 352.129,-463.327 343,-440 330.383,-407.76 326.522,-399.119 305,-372 294.447,-358.703 280.297,-345.848 268.861,-336.37"/>
<polygon fill="midnightblue" stroke="midnightblue" points="270.731,-333.382 260.75,-329.829 266.337,-338.831 270.731,-333.382"/>
</g>
<!-- Node22&#45;&gt;Node19 -->
<g id="edge31" class="edge"><title>Node22&#45;&gt;Node19</title>
<path fill="none" stroke="midnightblue" d="M444.866,-440.996C436.611,-431.347 426.513,-417.818 421,-404 403.004,-358.9 400.535,-300.81 400.577,-271.569"/>
<polygon fill="midnightblue" stroke="midnightblue" points="404.077,-271.588 400.696,-261.547 397.077,-271.505 404.077,-271.588"/>
</g>
<!-- Node22&#45;&gt;Node23 -->
<g id="edge32" class="edge"><title>Node22&#45;&gt;Node23</title>
<path fill="none" stroke="midnightblue" d="M486.961,-440.841C506.802,-431.141 533.325,-418.174 554.881,-407.636"/>
<polygon fill="midnightblue" stroke="midnightblue" points="556.64,-410.672 564.087,-403.135 553.566,-404.383 556.64,-410.672"/>
</g>
<!-- Node30 -->
<g id="node30" class="node"><title>Node30</title>
<g id="a_node30"><a xlink:href="a00307.html" target="_top" xlink:title="hpp/fcl/ccd/interval\l_matrix.h">
<polygon fill="white" stroke="black" points="429.5,-373 429.5,-403 528.5,-403 528.5,-373 429.5,-373"/>
<text text-anchor="start" x="437.5" y="-391" font-family="Helvetica,sans-Serif" font-size="10.00">hpp/fcl/ccd/interval</text>
<text text-anchor="middle" x="479" y="-380" font-family="Helvetica,sans-Serif" font-size="10.00">_matrix.h</text>
</a>
</g>
</g>
<!-- Node22&#45;&gt;Node30 -->
<g id="edge44" class="edge"><title>Node22&#45;&gt;Node30</title>
<path fill="none" stroke="midnightblue" d="M462.557,-440.679C465.143,-432.549 468.448,-422.164 471.415,-412.839"/>
<polygon fill="midnightblue" stroke="midnightblue" points="474.755,-413.884 474.452,-403.293 468.085,-411.761 474.755,-413.884"/>
</g>
<!-- Node24 -->
<g id="node24" class="node"><title>Node24</title>
<g id="a_node24"><a xlink:href="a00309.html" target="_top" xlink:title="hpp/fcl/ccd/interval\l_vector.h">
<polygon fill="white" stroke="black" points="584.5,-305 584.5,-335 683.5,-335 683.5,-305 584.5,-305"/>
<text text-anchor="start" x="592.5" y="-323" font-family="Helvetica,sans-Serif" font-size="10.00">hpp/fcl/ccd/interval</text>
<text text-anchor="middle" x="634" y="-312" font-family="Helvetica,sans-Serif" font-size="10.00">_vector.h</text>
</a>
</g>
</g>
<!-- Node23&#45;&gt;Node24 -->
<g id="edge33" class="edge"><title>Node23&#45;&gt;Node24</title>
<path fill="none" stroke="midnightblue" d="M601.896,-372.679C607.108,-364.29 613.811,-353.499 619.744,-343.949"/>
<polygon fill="midnightblue" stroke="midnightblue" points="622.817,-345.634 625.121,-335.293 616.871,-341.941 622.817,-345.634"/>
</g>
<!-- Node27 -->
<g id="node27" class="node"><title>Node27</title>
<g id="a_node27"><a xlink:href="a00344.html" target="_top" xlink:title="hpp/fcl/ccd/taylor\l_model.h">
<polygon fill="white" stroke="black" points="740,-305 740,-335 832,-335 832,-305 740,-305"/>
<text text-anchor="start" x="748" y="-323" font-family="Helvetica,sans-Serif" font-size="10.00">hpp/fcl/ccd/taylor</text>
<text text-anchor="middle" x="786" y="-312" font-family="Helvetica,sans-Serif" font-size="10.00">_model.h</text>
</a>
</g>
</g>
<!-- Node23&#45;&gt;Node27 -->
<g id="edge38" class="edge"><title>Node23&#45;&gt;Node27</title>
<path fill="none" stroke="midnightblue" d="M634.403,-372.841C664.015,-362.715 704.035,-349.03 735.52,-338.262"/>
<polygon fill="midnightblue" stroke="midnightblue" points="736.667,-341.569 744.997,-335.022 734.402,-334.946 736.667,-341.569"/>
</g>
<!-- Node29 -->
<g id="node29" class="node"><title>Node29</title>
<g id="a_node29"><a xlink:href="a00345.html" target="_top" xlink:title="hpp/fcl/eigen/taylor\l_operator.h">
<polygon fill="white" stroke="black" points="467.5,-305 467.5,-335 566.5,-335 566.5,-305 467.5,-305"/>
<text text-anchor="start" x="475.5" y="-323" font-family="Helvetica,sans-Serif" font-size="10.00">hpp/fcl/eigen/taylor</text>
<text text-anchor="middle" x="517" y="-312" font-family="Helvetica,sans-Serif" font-size="10.00">_operator.h</text>
</a>
</g>
</g>
<!-- Node23&#45;&gt;Node29 -->
<g id="edge41" class="edge"><title>Node23&#45;&gt;Node29</title>
<path fill="none" stroke="midnightblue" d="M576.509,-372.679C566.081,-363.623 552.43,-351.768 540.833,-341.697"/>
<polygon fill="midnightblue" stroke="midnightblue" points="543.043,-338.981 533.198,-335.066 538.453,-344.266 543.043,-338.981"/>
</g>
<!-- Node24&#45;&gt;Node5 -->
<g id="edge36" class="edge"><title>Node24&#45;&gt;Node5</title>
<path fill="none" stroke="midnightblue" d="M639.082,-304.92C644.612,-286.856 650.725,-255.531 635,-236 617.557,-214.336 548.24,-202.535 494.778,-196.522"/>
<polygon fill="midnightblue" stroke="midnightblue" points="494.975,-193.023 484.657,-195.43 494.224,-199.982 494.975,-193.023"/>
</g>
<!-- Node25 -->
<g id="node25" class="node"><title>Node25</title>
<g id="a_node25"><a xlink:href="a00306.html" target="_top" xlink:title="hpp/fcl/ccd/interval.h">
<polygon fill="white" stroke="black" points="682.5,-242.5 682.5,-261.5 789.5,-261.5 789.5,-242.5 682.5,-242.5"/>
<text text-anchor="middle" x="736" y="-249.5" font-family="Helvetica,sans-Serif" font-size="10.00">hpp/fcl/ccd/interval.h</text>
</a>
</g>
</g>
<!-- Node24&#45;&gt;Node25 -->
<g id="edge34" class="edge"><title>Node24&#45;&gt;Node25</title>
<path fill="none" stroke="midnightblue" d="M655.882,-304.841C672.971,-293.784 696.62,-278.481 713.792,-267.37"/>
<polygon fill="midnightblue" stroke="midnightblue" points="716.088,-270.053 722.583,-261.682 712.285,-264.176 716.088,-270.053"/>
</g>
<!-- Node26 -->
<g id="node26" class="node"><title>Node26</title>
<g id="a_node26"><a xlink:href="a00305.html" target="_top" xlink:title="hpp/fcl/eigen/plugins\l/ccd/interval&#45;vector.h">
<polygon fill="white" stroke="black" points="518,-237 518,-267 626,-267 626,-237 518,-237"/>
<text text-anchor="start" x="526" y="-255" font-family="Helvetica,sans-Serif" font-size="10.00">hpp/fcl/eigen/plugins</text>
<text text-anchor="middle" x="572" y="-244" font-family="Helvetica,sans-Serif" font-size="10.00">/ccd/interval&#45;vector.h</text>
</a>
</g>
</g>
<!-- Node24&#45;&gt;Node26 -->
<g id="edge37" class="edge"><title>Node24&#45;&gt;Node26</title>
<path fill="none" stroke="midnightblue" d="M620.547,-304.679C612.341,-295.944 601.689,-284.605 592.455,-274.775"/>
<polygon fill="midnightblue" stroke="midnightblue" points="594.825,-272.185 585.427,-267.293 589.723,-276.978 594.825,-272.185"/>
</g>
<!-- Node25&#45;&gt;Node7 -->
<g id="edge35" class="edge"><title>Node25&#45;&gt;Node7</title>
<path fill="none" stroke="midnightblue" d="M734.022,-242.125C727.69,-213.708 707.823,-124.548 699.136,-85.5597"/>
<polygon fill="midnightblue" stroke="midnightblue" points="702.549,-84.785 696.958,-75.7857 695.716,-86.3075 702.549,-84.785"/>
</g>
<!-- Node27&#45;&gt;Node25 -->
<g id="edge39" class="edge"><title>Node27&#45;&gt;Node25</title>
<path fill="none" stroke="midnightblue" d="M775.151,-304.679C767.432,-294.49 757.029,-280.759 748.887,-270.011"/>
<polygon fill="midnightblue" stroke="midnightblue" points="751.517,-267.686 742.688,-261.828 745.937,-271.913 751.517,-267.686"/>
</g>
<!-- Node27&#45;&gt;Node28 -->
<g id="edge40" class="edge"><title>Node27&#45;&gt;Node28</title>
<path fill="none" stroke="midnightblue" d="M802.491,-304.679C814.81,-293.981 831.627,-279.377 844.241,-268.422"/>
<polygon fill="midnightblue" stroke="midnightblue" points="846.579,-271.028 851.834,-261.828 841.989,-265.743 846.579,-271.028"/>
</g>
<!-- Node29&#45;&gt;Node5 -->
<g id="edge42" class="edge"><title>Node29&#45;&gt;Node5</title>
<path fill="none" stroke="midnightblue" d="M510.489,-304.863C502.348,-287.823 487.466,-258.655 471,-236 463.477,-225.65 453.804,-215.137 445.637,-206.879"/>
<polygon fill="midnightblue" stroke="midnightblue" points="447.966,-204.26 438.388,-199.73 443.051,-209.244 447.966,-204.26"/>
</g>
<!-- Node29&#45;&gt;Node19 -->
<g id="edge43" class="edge"><title>Node29&#45;&gt;Node19</title>
<path fill="none" stroke="midnightblue" d="M492.115,-304.841C472.32,-293.579 444.787,-277.913 425.179,-266.757"/>
<polygon fill="midnightblue" stroke="midnightblue" points="426.682,-263.585 416.259,-261.682 423.22,-269.669 426.682,-263.585"/>
</g>
<!-- Node30&#45;&gt;Node19 -->
<g id="edge47" class="edge"><title>Node30&#45;&gt;Node19</title>
<path fill="none" stroke="midnightblue" d="M470.653,-372.66C456.232,-347.885 426.706,-297.161 411.133,-270.407"/>
<polygon fill="midnightblue" stroke="midnightblue" points="414.136,-268.609 406.08,-261.728 408.086,-272.131 414.136,-268.609"/>
</g>
<!-- Node30&#45;&gt;Node24 -->
<g id="edge46" class="edge"><title>Node30&#45;&gt;Node24</title>
<path fill="none" stroke="midnightblue" d="M512.251,-372.841C535.52,-362.933 566.792,-349.618 591.815,-338.963"/>
<polygon fill="midnightblue" stroke="midnightblue" points="593.241,-342.16 601.07,-335.022 590.498,-335.719 593.241,-342.16"/>
</g>
<!-- Node30&#45;&gt;Node25 -->
<g id="edge45" class="edge"><title>Node30&#45;&gt;Node25</title>
<path fill="none" stroke="midnightblue" d="M528.557,-374.327C531.751,-373.533 534.92,-372.752 538,-372 606.287,-355.34 636.321,-378.901 692,-336 713.158,-319.698 725.252,-290.286 731.22,-271.209"/>
<polygon fill="midnightblue" stroke="midnightblue" points="734.588,-272.163 733.987,-261.586 727.86,-270.229 734.588,-272.163"/>
</g>
<!-- Node31&#45;&gt;Node4 -->
<g id="edge50" class="edge"><title>Node31&#45;&gt;Node4</title>
<path fill="none" stroke="midnightblue" d="M232.789,-310.372C211.81,-299.205 175.026,-279.627 150.34,-266.488"/>
<polygon fill="midnightblue" stroke="midnightblue" points="151.687,-263.239 141.215,-261.63 148.398,-269.419 151.687,-263.239"/>
</g>
<!-- Node31&#45;&gt;Node5 -->
<g id="edge51" class="edge"><title>Node31&#45;&gt;Node5</title>
<path fill="none" stroke="midnightblue" d="M255.84,-310.214C268.947,-293.843 299.144,-258.31 331,-236 350.547,-222.31 374.924,-211.097 394.476,-203.288"/>
<polygon fill="midnightblue" stroke="midnightblue" points="395.866,-206.503 403.925,-199.626 393.336,-199.976 395.866,-206.503"/>
</g>
<!-- Node31&#45;&gt;Node19 -->
<g id="edge52" class="edge"><title>Node31&#45;&gt;Node19</title>
<path fill="none" stroke="midnightblue" d="M268.871,-310.372C295.157,-298.958 341.683,-278.756 371.924,-265.625"/>
<polygon fill="midnightblue" stroke="midnightblue" points="373.345,-268.824 381.124,-261.63 370.557,-262.403 373.345,-268.824"/>
</g>
<!-- Node32 -->
<g id="node32" class="node"><title>Node32</title>
<polygon fill="white" stroke="#bfbfbf" points="172.5,-237 172.5,-267 283.5,-267 283.5,-237 172.5,-237"/>
<text text-anchor="start" x="180.5" y="-255" font-family="Helvetica,sans-Serif" font-size="10.00">boost/math/constants</text>
<text text-anchor="middle" x="228" y="-244" font-family="Helvetica,sans-Serif" font-size="10.00">/constants.hpp</text>
</g>
<!-- Node31&#45;&gt;Node32 -->
<g id="edge53" class="edge"><title>Node31&#45;&gt;Node32</title>
<path fill="none" stroke="midnightblue" d="M246.255,-310.372C243.555,-301.886 239.309,-288.542 235.591,-276.858"/>
<polygon fill="midnightblue" stroke="midnightblue" points="238.88,-275.649 232.512,-267.181 232.209,-277.772 238.88,-275.649"/>
</g>
</g>
</svg>
