<?xml version="1.0" encoding="UTF-8" standalone="no"?>
<!DOCTYPE svg PUBLIC "-//W3C//DTD SVG 1.1//EN"
 "http://www.w3.org/Graphics/SVG/1.1/DTD/svg11.dtd">
<!-- Generated by graphviz version 2.36.0 (20140111.2315)
 -->
<!-- Title: RSS.h Pages: 1 -->
<svg width="755pt" height="332pt"
 viewBox="0.00 0.00 755.00 332.00" xmlns="http://www.w3.org/2000/svg" xmlns:xlink="http://www.w3.org/1999/xlink">
<g id="graph0" class="graph" transform="scale(1 1) rotate(0) translate(4 328)">
<title>RSS.h</title>
<polygon fill="white" stroke="none" points="-4,4 -4,-328 751,-328 751,4 -4,4"/>
<!-- Node1 -->
<g id="node1" class="node"><title>Node1</title>
<polygon fill="#bfbfbf" stroke="black" points="474,-304.5 474,-323.5 520,-323.5 520,-304.5 474,-304.5"/>
<text text-anchor="middle" x="497" y="-311.5" font-family="Helvetica,sans-Serif" font-size="10.00">RSS.h</text>
</g>
<!-- Node2 -->
<g id="node2" class="node"><title>Node2</title>
<polygon fill="white" stroke="#bfbfbf" points="365.5,-242.5 365.5,-261.5 424.5,-261.5 424.5,-242.5 365.5,-242.5"/>
<text text-anchor="middle" x="395" y="-249.5" font-family="Helvetica,sans-Serif" font-size="10.00">stdexcept</text>
</g>
<!-- Node1&#45;&gt;Node2 -->
<g id="edge1" class="edge"><title>Node1&#45;&gt;Node2</title>
<path fill="none" stroke="midnightblue" d="M482.386,-304.403C465.647,-294.557 437.996,-278.291 418.281,-266.695"/>
<polygon fill="midnightblue" stroke="midnightblue" points="419.981,-263.634 409.587,-261.581 416.432,-269.668 419.981,-263.634"/>
</g>
<!-- Node3 -->
<g id="node3" class="node"><title>Node3</title>
<g id="a_node3"><a xlink:href="a00356.html" target="_top" xlink:title="hpp/fcl/math/vec_3f.h">
<polygon fill="white" stroke="black" points="441.5,-180.5 441.5,-199.5 552.5,-199.5 552.5,-180.5 441.5,-180.5"/>
<text text-anchor="middle" x="497" y="-187.5" font-family="Helvetica,sans-Serif" font-size="10.00">hpp/fcl/math/vec_3f.h</text>
</a>
</g>
</g>
<!-- Node1&#45;&gt;Node3 -->
<g id="edge2" class="edge"><title>Node1&#45;&gt;Node3</title>
<path fill="none" stroke="midnightblue" d="M490.371,-304.275C484.235,-295.607 475.542,-281.669 472,-268 468.432,-254.232 468.432,-249.768 472,-236 474.546,-226.175 479.753,-216.212 484.759,-208.166"/>
<polygon fill="midnightblue" stroke="midnightblue" points="487.749,-209.99 490.371,-199.725 481.92,-206.114 487.749,-209.99"/>
</g>
<!-- Node16 -->
<g id="node16" class="node"><title>Node16</title>
<g id="a_node16"><a xlink:href="a00319.html" target="_top" xlink:title="hpp/fcl/math/matrix_3f.h">
<polygon fill="white" stroke="black" points="481,-242.5 481,-261.5 603,-261.5 603,-242.5 481,-242.5"/>
<text text-anchor="middle" x="542" y="-249.5" font-family="Helvetica,sans-Serif" font-size="10.00">hpp/fcl/math/matrix_3f.h</text>
</a>
</g>
</g>
<!-- Node1&#45;&gt;Node16 -->
<g id="edge22" class="edge"><title>Node1&#45;&gt;Node16</title>
<path fill="none" stroke="midnightblue" d="M503.447,-304.403C510.197,-295.403 520.969,-281.041 529.413,-269.782"/>
<polygon fill="midnightblue" stroke="midnightblue" points="532.365,-271.681 535.565,-261.581 526.765,-267.481 532.365,-271.681"/>
</g>
<!-- Node17 -->
<g id="node17" class="node"><title>Node17</title>
<polygon fill="white" stroke="#bfbfbf" points="621.5,-237 621.5,-267 732.5,-267 732.5,-237 621.5,-237"/>
<text text-anchor="start" x="629.5" y="-255" font-family="Helvetica,sans-Serif" font-size="10.00">boost/math/constants</text>
<text text-anchor="middle" x="677" y="-244" font-family="Helvetica,sans-Serif" font-size="10.00">/constants.hpp</text>
</g>
<!-- Node1&#45;&gt;Node17 -->
<g id="edge24" class="edge"><title>Node1&#45;&gt;Node17</title>
<path fill="none" stroke="midnightblue" d="M520.163,-305.279C546.548,-296.484 590.49,-281.837 625.16,-270.28"/>
<polygon fill="midnightblue" stroke="midnightblue" points="626.29,-273.593 634.67,-267.11 624.076,-266.952 626.29,-273.593"/>
</g>
<!-- Node4 -->
<g id="node4" class="node"><title>Node4</title>
<polygon fill="white" stroke="#bfbfbf" points="-1,-56.5 -1,-75.5 101,-75.5 101,-56.5 -1,-56.5"/>
<text text-anchor="middle" x="50" y="-63.5" font-family="Helvetica,sans-Serif" font-size="10.00">hpp/fcl/config&#45;fcl.hh</text>
</g>
<!-- Node3&#45;&gt;Node4 -->
<g id="edge3" class="edge"><title>Node3&#45;&gt;Node4</title>
<path fill="none" stroke="midnightblue" d="M441.452,-182.242C390.113,-175.245 312.026,-162.691 246,-144 184.162,-126.495 114.829,-96.7224 77.4539,-79.7846"/>
<polygon fill="midnightblue" stroke="midnightblue" points="78.778,-76.5416 68.2279,-75.5692 75.8689,-82.9085 78.778,-76.5416"/>
</g>
<!-- Node5 -->
<g id="node5" class="node"><title>Node5</title>
<g id="a_node5"><a xlink:href="a00283.html" target="_top" xlink:title="hpp/fcl/data_types.h">
<polygon fill="white" stroke="black" points="119.5,-56.5 119.5,-75.5 224.5,-75.5 224.5,-56.5 119.5,-56.5"/>
<text text-anchor="middle" x="172" y="-63.5" font-family="Helvetica,sans-Serif" font-size="10.00">hpp/fcl/data_types.h</text>
</a>
</g>
</g>
<!-- Node3&#45;&gt;Node5 -->
<g id="edge4" class="edge"><title>Node3&#45;&gt;Node5</title>
<path fill="none" stroke="midnightblue" d="M447.799,-180.454C410.351,-173.107 357.942,-160.993 314,-144 269.31,-126.718 221.022,-98.2063 193.845,-81.1521"/>
<polygon fill="midnightblue" stroke="midnightblue" points="195.471,-78.039 185.153,-75.6349 191.72,-83.9489 195.471,-78.039"/>
</g>
<!-- Node8 -->
<g id="node8" class="node"><title>Node8</title>
<g id="a_node8"><a xlink:href="a00316.html" target="_top" xlink:title="hpp/fcl/eigen/math\l_details.h">
<polygon fill="white" stroke="black" points="322.5,-113 322.5,-143 419.5,-143 419.5,-113 322.5,-113"/>
<text text-anchor="start" x="330.5" y="-131" font-family="Helvetica,sans-Serif" font-size="10.00">hpp/fcl/eigen/math</text>
<text text-anchor="middle" x="371" y="-120" font-family="Helvetica,sans-Serif" font-size="10.00">_details.h</text>
</a>
</g>
</g>
<!-- Node3&#45;&gt;Node8 -->
<g id="edge7" class="edge"><title>Node3&#45;&gt;Node8</title>
<path fill="none" stroke="midnightblue" d="M478.947,-180.403C461.005,-171.86 432.914,-158.483 409.886,-147.517"/>
<polygon fill="midnightblue" stroke="midnightblue" points="411.229,-144.28 400.696,-143.141 408.22,-150.6 411.229,-144.28"/>
</g>
<!-- Node11 -->
<g id="node11" class="node"><title>Node11</title>
<g id="a_node11"><a xlink:href="a00357.html" target="_top" xlink:title="hpp/fcl/eigen/vec_3fx.h">
<polygon fill="white" stroke="black" points="438,-118.5 438,-137.5 556,-137.5 556,-118.5 438,-118.5"/>
<text text-anchor="middle" x="497" y="-125.5" font-family="Helvetica,sans-Serif" font-size="10.00">hpp/fcl/eigen/vec_3fx.h</text>
</a>
</g>
</g>
<!-- Node3&#45;&gt;Node11 -->
<g id="edge10" class="edge"><title>Node3&#45;&gt;Node11</title>
<path fill="none" stroke="midnightblue" d="M497,-180.403C497,-171.938 497,-158.728 497,-147.82"/>
<polygon fill="midnightblue" stroke="midnightblue" points="500.5,-147.581 497,-137.581 493.5,-147.581 500.5,-147.581"/>
</g>
<!-- Node12 -->
<g id="node12" class="node"><title>Node12</title>
<polygon fill="white" stroke="#bfbfbf" points="573,-56.5 573,-75.5 617,-75.5 617,-56.5 573,-56.5"/>
<text text-anchor="middle" x="595" y="-63.5" font-family="Helvetica,sans-Serif" font-size="10.00">cmath</text>
</g>
<!-- Node3&#45;&gt;Node12 -->
<g id="edge19" class="edge"><title>Node3&#45;&gt;Node12</title>
<path fill="none" stroke="midnightblue" d="M516.072,-180.437C531.172,-172.799 551.844,-160.306 565,-144 578.76,-126.944 586.78,-102.828 591.011,-86.1493"/>
<polygon fill="midnightblue" stroke="midnightblue" points="594.522,-86.4998 593.359,-75.969 587.701,-84.9267 594.522,-86.4998"/>
</g>
<!-- Node13 -->
<g id="node13" class="node"><title>Node13</title>
<polygon fill="white" stroke="#bfbfbf" points="635,-56.5 635,-75.5 689,-75.5 689,-56.5 635,-56.5"/>
<text text-anchor="middle" x="662" y="-63.5" font-family="Helvetica,sans-Serif" font-size="10.00">iostream</text>
</g>
<!-- Node3&#45;&gt;Node13 -->
<g id="edge20" class="edge"><title>Node3&#45;&gt;Node13</title>
<path fill="none" stroke="midnightblue" d="M519.253,-180.354C538.217,-172.424 565.702,-159.564 587,-144 611.378,-126.185 634.9,-100.131 648.91,-83.3691"/>
<polygon fill="midnightblue" stroke="midnightblue" points="651.692,-85.4963 655.324,-75.5434 646.278,-81.0592 651.692,-85.4963"/>
</g>
<!-- Node14 -->
<g id="node14" class="node"><title>Node14</title>
<polygon fill="white" stroke="#bfbfbf" points="707,-56.5 707,-75.5 747,-75.5 747,-56.5 707,-56.5"/>
<text text-anchor="middle" x="727" y="-63.5" font-family="Helvetica,sans-Serif" font-size="10.00">limits</text>
</g>
<!-- Node3&#45;&gt;Node14 -->
<g id="edge21" class="edge"><title>Node3&#45;&gt;Node14</title>
<path fill="none" stroke="midnightblue" d="M526.263,-180.47C551.349,-172.612 588.068,-159.794 618,-144 652.067,-126.024 687.856,-98.9219 708.764,-82.128"/>
<polygon fill="midnightblue" stroke="midnightblue" points="711.216,-84.6446 716.764,-75.6185 706.798,-79.2148 711.216,-84.6446"/>
</g>
<!-- Node6 -->
<g id="node6" class="node"><title>Node6</title>
<polygon fill="white" stroke="#bfbfbf" points="103.5,-0.5 103.5,-19.5 152.5,-19.5 152.5,-0.5 103.5,-0.5"/>
<text text-anchor="middle" x="128" y="-7.5" font-family="Helvetica,sans-Serif" font-size="10.00">cstddef</text>
</g>
<!-- Node5&#45;&gt;Node6 -->
<g id="edge5" class="edge"><title>Node5&#45;&gt;Node6</title>
<path fill="none" stroke="midnightblue" d="M164.734,-56.083C158.455,-48.3768 149.212,-37.0333 141.569,-27.6531"/>
<polygon fill="midnightblue" stroke="midnightblue" points="144.161,-25.2926 135.131,-19.7511 138.734,-29.7143 144.161,-25.2926"/>
</g>
<!-- Node7 -->
<g id="node7" class="node"><title>Node7</title>
<polygon fill="white" stroke="#bfbfbf" points="171,-0.5 171,-19.5 263,-19.5 263,-0.5 171,-0.5"/>
<text text-anchor="middle" x="217" y="-7.5" font-family="Helvetica,sans-Serif" font-size="10.00">boost/cstdint.hpp</text>
</g>
<!-- Node5&#45;&gt;Node7 -->
<g id="edge6" class="edge"><title>Node5&#45;&gt;Node7</title>
<path fill="none" stroke="midnightblue" d="M179.431,-56.083C185.853,-48.3768 195.306,-37.0333 203.122,-27.6531"/>
<polygon fill="midnightblue" stroke="midnightblue" points="205.994,-29.674 209.707,-19.7511 200.617,-25.1927 205.994,-29.674"/>
</g>
<!-- Node9 -->
<g id="node9" class="node"><title>Node9</title>
<polygon fill="white" stroke="#bfbfbf" points="242.5,-56.5 242.5,-75.5 315.5,-75.5 315.5,-56.5 242.5,-56.5"/>
<text text-anchor="middle" x="279" y="-63.5" font-family="Helvetica,sans-Serif" font-size="10.00">Eigen/Dense</text>
</g>
<!-- Node8&#45;&gt;Node9 -->
<g id="edge8" class="edge"><title>Node8&#45;&gt;Node9</title>
<path fill="none" stroke="midnightblue" d="M349.197,-112.781C334.5,-103.196 315.196,-90.6062 300.552,-81.0555"/>
<polygon fill="midnightblue" stroke="midnightblue" points="302.407,-78.0868 292.119,-75.5557 298.583,-83.9501 302.407,-78.0868"/>
</g>
<!-- Node10 -->
<g id="node10" class="node"><title>Node10</title>
<polygon fill="white" stroke="#bfbfbf" points="333.5,-56.5 333.5,-75.5 420.5,-75.5 420.5,-56.5 333.5,-56.5"/>
<text text-anchor="middle" x="377" y="-63.5" font-family="Helvetica,sans-Serif" font-size="10.00">Eigen/Geometry</text>
</g>
<!-- Node8&#45;&gt;Node10 -->
<g id="edge9" class="edge"><title>Node8&#45;&gt;Node10</title>
<path fill="none" stroke="midnightblue" d="M372.422,-112.781C373.231,-104.691 374.254,-94.4617 375.127,-85.725"/>
<polygon fill="midnightblue" stroke="midnightblue" points="378.614,-86.0292 376.127,-75.7305 371.649,-85.3326 378.614,-86.0292"/>
</g>
<!-- Node11&#45;&gt;Node4 -->
<g id="edge11" class="edge"><title>Node11&#45;&gt;Node4</title>
<path fill="none" stroke="midnightblue" d="M460.964,-118.444C450.385,-116.129 438.765,-113.775 428,-112 290.811,-89.3824 252.719,-94.3117 110.982,-76.0792"/>
<polygon fill="midnightblue" stroke="midnightblue" points="111.414,-72.6059 101.045,-74.7851 110.51,-79.5473 111.414,-72.6059"/>
</g>
<!-- Node11&#45;&gt;Node5 -->
<g id="edge12" class="edge"><title>Node11&#45;&gt;Node5</title>
<path fill="none" stroke="midnightblue" d="M459.095,-118.474C449.007,-116.283 438.104,-113.986 428,-112 361.997,-99.03 286.062,-85.9072 234.14,-77.207"/>
<polygon fill="midnightblue" stroke="midnightblue" points="234.526,-73.723 224.086,-75.5273 233.372,-80.6273 234.526,-73.723"/>
</g>
<!-- Node11&#45;&gt;Node9 -->
<g id="edge13" class="edge"><title>Node11&#45;&gt;Node9</title>
<path fill="none" stroke="midnightblue" d="M465.766,-118.403C427.4,-107.844 362.213,-89.9027 319.889,-78.2538"/>
<polygon fill="midnightblue" stroke="midnightblue" points="320.746,-74.8598 310.176,-75.5806 318.889,-81.6088 320.746,-74.8598"/>
</g>
<!-- Node11&#45;&gt;Node10 -->
<g id="edge14" class="edge"><title>Node11&#45;&gt;Node10</title>
<path fill="none" stroke="midnightblue" d="M479.807,-118.403C459.757,-108.379 426.401,-91.7006 403.14,-80.0699"/>
<polygon fill="midnightblue" stroke="midnightblue" points="404.671,-76.9223 394.161,-75.5806 401.54,-83.1833 404.671,-76.9223"/>
</g>
<!-- Node11&#45;&gt;Node12 -->
<g id="edge15" class="edge"><title>Node11&#45;&gt;Node12</title>
<path fill="none" stroke="midnightblue" d="M511.041,-118.403C527.051,-108.601 553.45,-92.4385 572.374,-80.8526"/>
<polygon fill="midnightblue" stroke="midnightblue" points="574.284,-83.7872 580.985,-75.5806 570.629,-77.8172 574.284,-83.7872"/>
</g>
<!-- Node11&#45;&gt;Node13 -->
<g id="edge16" class="edge"><title>Node11&#45;&gt;Node13</title>
<path fill="none" stroke="midnightblue" d="M520.64,-118.403C549.066,-108.067 596.945,-90.6564 629.002,-78.9994"/>
<polygon fill="midnightblue" stroke="midnightblue" points="630.202,-82.2874 638.403,-75.5806 627.809,-75.7088 630.202,-82.2874"/>
</g>
<!-- Node11&#45;&gt;Node14 -->
<g id="edge17" class="edge"><title>Node11&#45;&gt;Node14</title>
<path fill="none" stroke="midnightblue" d="M533.097,-118.445C571.476,-109.216 634.152,-93.7652 697.07,-76.1582"/>
<polygon fill="midnightblue" stroke="midnightblue" points="698.082,-79.5096 706.759,-73.4301 696.184,-72.7716 698.082,-79.5096"/>
</g>
<!-- Node15 -->
<g id="node15" class="node"><title>Node15</title>
<g id="a_node15"><a xlink:href="a00336.html" target="_top" xlink:title="hpp/fcl/eigen/product.h">
<polygon fill="white" stroke="black" points="439,-56.5 439,-75.5 555,-75.5 555,-56.5 439,-56.5"/>
<text text-anchor="middle" x="497" y="-63.5" font-family="Helvetica,sans-Serif" font-size="10.00">hpp/fcl/eigen/product.h</text>
</a>
</g>
</g>
<!-- Node11&#45;&gt;Node15 -->
<g id="edge18" class="edge"><title>Node11&#45;&gt;Node15</title>
<path fill="none" stroke="midnightblue" d="M497,-118.403C497,-109.938 497,-96.7283 497,-85.8199"/>
<polygon fill="midnightblue" stroke="midnightblue" points="500.5,-85.5806 497,-75.5806 493.5,-85.5806 500.5,-85.5806"/>
</g>
<!-- Node16&#45;&gt;Node3 -->
<g id="edge23" class="edge"><title>Node16&#45;&gt;Node3</title>
<path fill="none" stroke="midnightblue" d="M535.553,-242.403C528.803,-233.403 518.031,-219.041 509.587,-207.782"/>
<polygon fill="midnightblue" stroke="midnightblue" points="512.235,-205.481 503.435,-199.581 506.635,-209.681 512.235,-205.481"/>
</g>
</g>
</svg>
