<?xml version="1.0" encoding="UTF-8" standalone="no"?>
<!DOCTYPE svg PUBLIC "-//W3C//DTD SVG 1.1//EN"
 "http://www.w3.org/Graphics/SVG/1.1/DTD/svg11.dtd">
<!-- Generated by graphviz version 2.36.0 (20140111.2315)
 -->
<!-- Title: vec_3fx.h Pages: 1 -->
<svg width="425pt" height="140pt"
 viewBox="0.00 0.00 425.00 140.00" xmlns="http://www.w3.org/2000/svg" xmlns:xlink="http://www.w3.org/1999/xlink">
<g id="graph0" class="graph" transform="scale(1 1) rotate(0) translate(4 136)">
<title>vec_3fx.h</title>
<polygon fill="white" stroke="none" points="-4,4 -4,-136 421,-136 421,4 -4,4"/>
<!-- Node1 -->
<g id="node1" class="node"><title>Node1</title>
<polygon fill="#bfbfbf" stroke="black" points="235.5,-112.5 235.5,-131.5 294.5,-131.5 294.5,-112.5 235.5,-112.5"/>
<text text-anchor="middle" x="265" y="-119.5" font-family="Helvetica,sans-Serif" font-size="10.00">vec_3fx.h</text>
</g>
<!-- Node2 -->
<g id="node2" class="node"><title>Node2</title>
<polygon fill="white" stroke="#bfbfbf" points="-1,-56.5 -1,-75.5 101,-75.5 101,-56.5 -1,-56.5"/>
<text text-anchor="middle" x="50" y="-63.5" font-family="Helvetica,sans-Serif" font-size="10.00">hpp/fcl/config&#45;fcl.hh</text>
</g>
<!-- Node1&#45;&gt;Node2 -->
<g id="edge1" class="edge"><title>Node1&#45;&gt;Node2</title>
<path fill="none" stroke="midnightblue" d="M235.105,-113.492C198.359,-104.262 135.71,-88.5271 93.5977,-77.9501"/>
<polygon fill="midnightblue" stroke="midnightblue" points="94.4409,-74.5533 83.8895,-75.5118 92.7356,-81.3424 94.4409,-74.5533"/>
</g>
<!-- Node3 -->
<g id="node3" class="node"><title>Node3</title>
<g id="a_node3"><a xlink:href="a00283.html" target="_top" xlink:title="hpp/fcl/data_types.h">
<polygon fill="white" stroke="black" points="119.5,-56.5 119.5,-75.5 224.5,-75.5 224.5,-56.5 119.5,-56.5"/>
<text text-anchor="middle" x="172" y="-63.5" font-family="Helvetica,sans-Serif" font-size="10.00">hpp/fcl/data_types.h</text>
</a>
</g>
</g>
<!-- Node1&#45;&gt;Node3 -->
<g id="edge2" class="edge"><title>Node1&#45;&gt;Node3</title>
<path fill="none" stroke="midnightblue" d="M250.058,-112.324C235.415,-103.822 212.866,-90.7288 195.762,-80.7975"/>
<polygon fill="midnightblue" stroke="midnightblue" points="197.31,-77.6491 186.905,-75.6545 193.795,-83.7027 197.31,-77.6491"/>
</g>
<!-- Node6 -->
<g id="node6" class="node"><title>Node6</title>
<polygon fill="white" stroke="#bfbfbf" points="243,-56.5 243,-75.5 287,-75.5 287,-56.5 243,-56.5"/>
<text text-anchor="middle" x="265" y="-63.5" font-family="Helvetica,sans-Serif" font-size="10.00">cmath</text>
</g>
<!-- Node1&#45;&gt;Node6 -->
<g id="edge5" class="edge"><title>Node1&#45;&gt;Node6</title>
<path fill="none" stroke="midnightblue" d="M265,-112.083C265,-105.006 265,-94.8611 265,-85.9865"/>
<polygon fill="midnightblue" stroke="midnightblue" points="268.5,-85.751 265,-75.7511 261.5,-85.7511 268.5,-85.751"/>
</g>
<!-- Node7 -->
<g id="node7" class="node"><title>Node7</title>
<polygon fill="white" stroke="#bfbfbf" points="305,-56.5 305,-75.5 359,-75.5 359,-56.5 305,-56.5"/>
<text text-anchor="middle" x="332" y="-63.5" font-family="Helvetica,sans-Serif" font-size="10.00">iostream</text>
</g>
<!-- Node1&#45;&gt;Node7 -->
<g id="edge6" class="edge"><title>Node1&#45;&gt;Node7</title>
<path fill="none" stroke="midnightblue" d="M275.765,-112.324C285.766,-104.263 300.887,-92.0765 312.93,-82.3695"/>
<polygon fill="midnightblue" stroke="midnightblue" points="315.45,-84.8343 321.039,-75.8339 311.057,-79.3841 315.45,-84.8343"/>
</g>
<!-- Node8 -->
<g id="node8" class="node"><title>Node8</title>
<polygon fill="white" stroke="#bfbfbf" points="377,-56.5 377,-75.5 417,-75.5 417,-56.5 377,-56.5"/>
<text text-anchor="middle" x="397" y="-63.5" font-family="Helvetica,sans-Serif" font-size="10.00">limits</text>
</g>
<!-- Node1&#45;&gt;Node8 -->
<g id="edge7" class="edge"><title>Node1&#45;&gt;Node8</title>
<path fill="none" stroke="midnightblue" d="M285.916,-112.444C307.864,-103.465 342.555,-89.2729 367.328,-79.1386"/>
<polygon fill="midnightblue" stroke="midnightblue" points="368.686,-82.3648 376.616,-75.339 366.035,-75.886 368.686,-82.3648"/>
</g>
<!-- Node4 -->
<g id="node4" class="node"><title>Node4</title>
<polygon fill="white" stroke="#bfbfbf" points="102.5,-0.5 102.5,-19.5 151.5,-19.5 151.5,-0.5 102.5,-0.5"/>
<text text-anchor="middle" x="127" y="-7.5" font-family="Helvetica,sans-Serif" font-size="10.00">cstddef</text>
</g>
<!-- Node3&#45;&gt;Node4 -->
<g id="edge3" class="edge"><title>Node3&#45;&gt;Node4</title>
<path fill="none" stroke="midnightblue" d="M164.569,-56.083C158.147,-48.3768 148.694,-37.0333 140.878,-27.6531"/>
<polygon fill="midnightblue" stroke="midnightblue" points="143.383,-25.1927 134.293,-19.7511 138.006,-29.674 143.383,-25.1927"/>
</g>
<!-- Node5 -->
<g id="node5" class="node"><title>Node5</title>
<polygon fill="white" stroke="#bfbfbf" points="170,-0.5 170,-19.5 262,-19.5 262,-0.5 170,-0.5"/>
<text text-anchor="middle" x="216" y="-7.5" font-family="Helvetica,sans-Serif" font-size="10.00">boost/cstdint.hpp</text>
</g>
<!-- Node3&#45;&gt;Node5 -->
<g id="edge4" class="edge"><title>Node3&#45;&gt;Node5</title>
<path fill="none" stroke="midnightblue" d="M179.266,-56.083C185.545,-48.3768 194.788,-37.0333 202.431,-27.6531"/>
<polygon fill="midnightblue" stroke="midnightblue" points="205.266,-29.7143 208.869,-19.7511 199.839,-25.2926 205.266,-29.7143"/>
</g>
</g>
</svg>
