<?xml version="1.0" encoding="UTF-8" standalone="no"?>
<!DOCTYPE svg PUBLIC "-//W3C//DTD SVG 1.1//EN"
 "http://www.w3.org/Graphics/SVG/1.1/DTD/svg11.dtd">
<!-- Generated by graphviz version 2.36.0 (20140111.2315)
 -->
<!-- Title: Eigen::FclMatrix&lt; T, Cols, _Options &gt; Pages: 1 -->
<svg width="272pt" height="87pt"
 viewBox="0.00 0.00 272.00 87.00" xmlns="http://www.w3.org/2000/svg" xmlns:xlink="http://www.w3.org/1999/xlink">
<g id="graph0" class="graph" transform="scale(1 1) rotate(0) translate(4 83)">
<title>Eigen::FclMatrix&lt; T, Cols, _Options &gt;</title>
<polygon fill="white" stroke="none" points="-4,4 -4,-83 268,-83 268,4 -4,4"/>
<!-- Node1 -->
<g id="node1" class="node"><title>Node1</title>
<polygon fill="#bfbfbf" stroke="black" points="158,-24 158,-54 264,-54 264,-24 158,-24"/>
<text text-anchor="start" x="166" y="-42" font-family="Helvetica,sans-Serif" font-size="10.00">Eigen::FclMatrix&lt; T,</text>
<text text-anchor="middle" x="211" y="-31" font-family="Helvetica,sans-Serif" font-size="10.00"> Cols, _Options &gt;</text>
</g>
<!-- Node2 -->
<g id="node2" class="node"><title>Node2</title>
<polygon fill="white" stroke="#bfbfbf" points="9,-49 9,-79 113,-79 113,-49 9,-49"/>
<text text-anchor="start" x="17" y="-67" font-family="Helvetica,sans-Serif" font-size="10.00">Eigen::Matrix&lt; T, 3,</text>
<text text-anchor="middle" x="61" y="-56" font-family="Helvetica,sans-Serif" font-size="10.00"> Cols, _Options &gt;</text>
</g>
<!-- Node2&#45;&gt;Node1 -->
<g id="edge1" class="edge"><title>Node2&#45;&gt;Node1</title>
<path fill="none" stroke="midnightblue" d="M123.332,-53.6399C134.85,-51.6943 146.79,-49.6774 157.991,-47.7854"/>
<polygon fill="midnightblue" stroke="midnightblue" points="122.625,-50.2096 113.348,-55.3264 123.791,-57.1118 122.625,-50.2096"/>
</g>
<!-- Node3 -->
<g id="node3" class="node"><title>Node3</title>
<g id="a_node3"><a xlink:href="a00073.html" target="_top" xlink:title="fcl::FclType\&lt; FclMatrix\l\&lt; T, Cols, _Options \&gt; \&gt;">
<polygon fill="white" stroke="black" points="0.5,-0 0.5,-30 121.5,-30 121.5,-0 0.5,-0"/>
<text text-anchor="start" x="8.5" y="-18" font-family="Helvetica,sans-Serif" font-size="10.00">fcl::FclType&lt; FclMatrix</text>
<text text-anchor="middle" x="61" y="-7" font-family="Helvetica,sans-Serif" font-size="10.00">&lt; T, Cols, _Options &gt; &gt;</text>
</a>
</g>
</g>
<!-- Node3&#45;&gt;Node1 -->
<g id="edge2" class="edge"><title>Node3&#45;&gt;Node1</title>
<path fill="none" stroke="midnightblue" d="M131.881,-26.332C140.547,-27.7373 149.289,-29.1549 157.629,-30.5074"/>
<polygon fill="midnightblue" stroke="midnightblue" points="132.202,-22.8385 121.771,-24.6925 131.081,-29.7482 132.202,-22.8385"/>
</g>
</g>
</svg>
