<?xml version="1.0" encoding="UTF-8" standalone="no"?>
<!DOCTYPE svg PUBLIC "-//W3C//DTD SVG 1.1//EN"
 "http://www.w3.org/Graphics/SVG/1.1/DTD/svg11.dtd">
<!-- Generated by graphviz version 2.36.0 (20140111.2315)
 -->
<!-- Title: taylor_matrix.h Pages: 1 -->
<svg width="898pt" height="468pt"
 viewBox="0.00 0.00 898.00 468.00" xmlns="http://www.w3.org/2000/svg" xmlns:xlink="http://www.w3.org/1999/xlink">
<g id="graph0" class="graph" transform="scale(1 1) rotate(0) translate(4 464)">
<title>taylor_matrix.h</title>
<polygon fill="white" stroke="none" points="-4,4 -4,-464 894,-464 894,4 -4,4"/>
<!-- Node1 -->
<g id="node1" class="node"><title>Node1</title>
<polygon fill="#bfbfbf" stroke="black" points="293.5,-440.5 293.5,-459.5 374.5,-459.5 374.5,-440.5 293.5,-440.5"/>
<text text-anchor="middle" x="334" y="-447.5" font-family="Helvetica,sans-Serif" font-size="10.00">taylor_matrix.h</text>
</g>
<!-- Node2 -->
<g id="node2" class="node"><title>Node2</title>
<g id="a_node2"><a xlink:href="a00319.html" target="_top" xlink:title="hpp/fcl/math/matrix_3f.h">
<polygon fill="white" stroke="black" points="416,-242.5 416,-261.5 538,-261.5 538,-242.5 416,-242.5"/>
<text text-anchor="middle" x="477" y="-249.5" font-family="Helvetica,sans-Serif" font-size="10.00">hpp/fcl/math/matrix_3f.h</text>
</a>
</g>
</g>
<!-- Node1&#45;&gt;Node2 -->
<g id="edge1" class="edge"><title>Node1&#45;&gt;Node2</title>
<path fill="none" stroke="midnightblue" d="M374.325,-440.457C424.276,-427.474 507.263,-397.486 544,-336 551.295,-323.791 550.315,-316.743 544,-304 535.907,-287.668 519.803,-275.147 505.412,-266.598"/>
<polygon fill="midnightblue" stroke="midnightblue" points="506.747,-263.337 496.304,-261.555 503.356,-269.461 506.747,-263.337"/>
</g>
<!-- Node16 -->
<g id="node16" class="node"><title>Node16</title>
<g id="a_node16"><a xlink:href="a00346.html" target="_top" xlink:title="hpp/fcl/ccd/taylor\l_vector.h">
<polygon fill="white" stroke="black" points="288,-373 288,-403 380,-403 380,-373 288,-373"/>
<text text-anchor="start" x="296" y="-391" font-family="Helvetica,sans-Serif" font-size="10.00">hpp/fcl/ccd/taylor</text>
<text text-anchor="middle" x="334" y="-380" font-family="Helvetica,sans-Serif" font-size="10.00">_vector.h</text>
</a>
</g>
</g>
<!-- Node1&#45;&gt;Node16 -->
<g id="edge22" class="edge"><title>Node1&#45;&gt;Node16</title>
<path fill="none" stroke="midnightblue" d="M334,-440.403C334,-433.341 334,-422.975 334,-413.399"/>
<polygon fill="midnightblue" stroke="midnightblue" points="337.5,-413.141 334,-403.141 330.5,-413.141 337.5,-413.141"/>
</g>
<!-- Node23 -->
<g id="node23" class="node"><title>Node23</title>
<g id="a_node23"><a xlink:href="a00307.html" target="_top" xlink:title="hpp/fcl/ccd/interval\l_matrix.h">
<polygon fill="white" stroke="black" points="170.5,-373 170.5,-403 269.5,-403 269.5,-373 170.5,-373"/>
<text text-anchor="start" x="178.5" y="-391" font-family="Helvetica,sans-Serif" font-size="10.00">hpp/fcl/ccd/interval</text>
<text text-anchor="middle" x="220" y="-380" font-family="Helvetica,sans-Serif" font-size="10.00">_matrix.h</text>
</a>
</g>
</g>
<!-- Node1&#45;&gt;Node23 -->
<g id="edge34" class="edge"><title>Node1&#45;&gt;Node23</title>
<path fill="none" stroke="midnightblue" d="M317.667,-440.403C301.578,-431.936 276.469,-418.72 255.739,-407.81"/>
<polygon fill="midnightblue" stroke="midnightblue" points="257.347,-404.701 246.868,-403.141 254.087,-410.896 257.347,-404.701"/>
</g>
<!-- Node3 -->
<g id="node3" class="node"><title>Node3</title>
<g id="a_node3"><a xlink:href="a00356.html" target="_top" xlink:title="hpp/fcl/math/vec_3f.h">
<polygon fill="white" stroke="black" points="417.5,-180.5 417.5,-199.5 528.5,-199.5 528.5,-180.5 417.5,-180.5"/>
<text text-anchor="middle" x="473" y="-187.5" font-family="Helvetica,sans-Serif" font-size="10.00">hpp/fcl/math/vec_3f.h</text>
</a>
</g>
</g>
<!-- Node2&#45;&gt;Node3 -->
<g id="edge2" class="edge"><title>Node2&#45;&gt;Node3</title>
<path fill="none" stroke="midnightblue" d="M476.427,-242.403C475.863,-233.938 474.982,-220.728 474.255,-209.82"/>
<polygon fill="midnightblue" stroke="midnightblue" points="477.73,-209.326 473.572,-199.581 470.745,-209.791 477.73,-209.326"/>
</g>
<!-- Node4 -->
<g id="node4" class="node"><title>Node4</title>
<polygon fill="white" stroke="#bfbfbf" points="592,-56.5 592,-75.5 694,-75.5 694,-56.5 592,-56.5"/>
<text text-anchor="middle" x="643" y="-63.5" font-family="Helvetica,sans-Serif" font-size="10.00">hpp/fcl/config&#45;fcl.hh</text>
</g>
<!-- Node3&#45;&gt;Node4 -->
<g id="edge3" class="edge"><title>Node3&#45;&gt;Node4</title>
<path fill="none" stroke="midnightblue" d="M491.51,-180.477C508.812,-172.165 535.051,-158.662 556,-144 582.698,-125.314 610.349,-99.5452 627.117,-83.076"/>
<polygon fill="midnightblue" stroke="midnightblue" points="629.8,-85.3435 634.422,-75.8099 624.863,-80.3805 629.8,-85.3435"/>
</g>
<!-- Node5 -->
<g id="node5" class="node"><title>Node5</title>
<g id="a_node5"><a xlink:href="a00283.html" target="_top" xlink:title="hpp/fcl/data_types.h">
<polygon fill="white" stroke="black" points="142.5,-56.5 142.5,-75.5 247.5,-75.5 247.5,-56.5 142.5,-56.5"/>
<text text-anchor="middle" x="195" y="-63.5" font-family="Helvetica,sans-Serif" font-size="10.00">hpp/fcl/data_types.h</text>
</a>
</g>
</g>
<!-- Node3&#45;&gt;Node5 -->
<g id="edge4" class="edge"><title>Node3&#45;&gt;Node5</title>
<path fill="none" stroke="midnightblue" d="M438.742,-180.435C409.298,-172.554 366.018,-159.723 330,-144 288.155,-125.733 242.644,-97.9711 216.597,-81.2486"/>
<polygon fill="midnightblue" stroke="midnightblue" points="218.219,-78.1289 207.924,-75.6251 214.41,-84.0023 218.219,-78.1289"/>
</g>
<!-- Node8 -->
<g id="node8" class="node"><title>Node8</title>
<g id="a_node8"><a xlink:href="a00316.html" target="_top" xlink:title="hpp/fcl/eigen/math\l_details.h">
<polygon fill="white" stroke="black" points="707.5,-113 707.5,-143 804.5,-143 804.5,-113 707.5,-113"/>
<text text-anchor="start" x="715.5" y="-131" font-family="Helvetica,sans-Serif" font-size="10.00">hpp/fcl/eigen/math</text>
<text text-anchor="middle" x="756" y="-120" font-family="Helvetica,sans-Serif" font-size="10.00">_details.h</text>
</a>
</g>
</g>
<!-- Node3&#45;&gt;Node8 -->
<g id="edge7" class="edge"><title>Node3&#45;&gt;Node8</title>
<path fill="none" stroke="midnightblue" d="M513.246,-180.467C561.372,-170.264 642.313,-153.103 697.384,-141.427"/>
<polygon fill="midnightblue" stroke="midnightblue" points="698.296,-144.812 707.352,-139.314 696.844,-137.964 698.296,-144.812"/>
</g>
<!-- Node11 -->
<g id="node11" class="node"><title>Node11</title>
<g id="a_node11"><a xlink:href="a00357.html" target="_top" xlink:title="hpp/fcl/eigen/vec_3fx.h">
<polygon fill="white" stroke="black" points="408,-118.5 408,-137.5 526,-137.5 526,-118.5 408,-118.5"/>
<text text-anchor="middle" x="467" y="-125.5" font-family="Helvetica,sans-Serif" font-size="10.00">hpp/fcl/eigen/vec_3fx.h</text>
</a>
</g>
</g>
<!-- Node3&#45;&gt;Node11 -->
<g id="edge10" class="edge"><title>Node3&#45;&gt;Node11</title>
<path fill="none" stroke="midnightblue" d="M472.14,-180.403C471.294,-171.938 469.973,-158.728 468.882,-147.82"/>
<polygon fill="midnightblue" stroke="midnightblue" points="472.336,-147.183 467.858,-137.581 465.371,-147.879 472.336,-147.183"/>
</g>
<!-- Node12 -->
<g id="node12" class="node"><title>Node12</title>
<polygon fill="white" stroke="#bfbfbf" points="266,-56.5 266,-75.5 310,-75.5 310,-56.5 266,-56.5"/>
<text text-anchor="middle" x="288" y="-63.5" font-family="Helvetica,sans-Serif" font-size="10.00">cmath</text>
</g>
<!-- Node3&#45;&gt;Node12 -->
<g id="edge19" class="edge"><title>Node3&#45;&gt;Node12</title>
<path fill="none" stroke="midnightblue" d="M448.472,-180.443C427.524,-172.569 397.055,-159.741 373,-144 345.795,-126.198 318.715,-99.7801 302.667,-82.9794"/>
<polygon fill="midnightblue" stroke="midnightblue" points="305.12,-80.4786 295.724,-75.5843 300.017,-85.2701 305.12,-80.4786"/>
</g>
<!-- Node13 -->
<g id="node13" class="node"><title>Node13</title>
<polygon fill="white" stroke="#bfbfbf" points="328,-56.5 328,-75.5 382,-75.5 382,-56.5 328,-56.5"/>
<text text-anchor="middle" x="355" y="-63.5" font-family="Helvetica,sans-Serif" font-size="10.00">iostream</text>
</g>
<!-- Node3&#45;&gt;Node13 -->
<g id="edge20" class="edge"><title>Node3&#45;&gt;Node13</title>
<path fill="none" stroke="midnightblue" d="M453.213,-180.402C437.13,-172.666 414.625,-160.056 399,-144 382.264,-126.802 369.597,-102.004 362.248,-85.2344"/>
<polygon fill="midnightblue" stroke="midnightblue" points="365.281,-83.4135 358.197,-75.5345 358.821,-86.111 365.281,-83.4135"/>
</g>
<!-- Node14 -->
<g id="node14" class="node"><title>Node14</title>
<polygon fill="white" stroke="#bfbfbf" points="534,-56.5 534,-75.5 574,-75.5 574,-56.5 534,-56.5"/>
<text text-anchor="middle" x="554" y="-63.5" font-family="Helvetica,sans-Serif" font-size="10.00">limits</text>
</g>
<!-- Node3&#45;&gt;Node14 -->
<g id="edge21" class="edge"><title>Node3&#45;&gt;Node14</title>
<path fill="none" stroke="midnightblue" d="M490.925,-180.45C505.004,-172.819 524.009,-160.33 535,-144 546.744,-126.552 551.238,-102.512 552.952,-85.9581"/>
<polygon fill="midnightblue" stroke="midnightblue" points="556.451,-86.1117 553.75,-75.8669 549.473,-85.5599 556.451,-86.1117"/>
</g>
<!-- Node6 -->
<g id="node6" class="node"><title>Node6</title>
<polygon fill="white" stroke="#bfbfbf" points="126.5,-0.5 126.5,-19.5 175.5,-19.5 175.5,-0.5 126.5,-0.5"/>
<text text-anchor="middle" x="151" y="-7.5" font-family="Helvetica,sans-Serif" font-size="10.00">cstddef</text>
</g>
<!-- Node5&#45;&gt;Node6 -->
<g id="edge5" class="edge"><title>Node5&#45;&gt;Node6</title>
<path fill="none" stroke="midnightblue" d="M187.734,-56.083C181.455,-48.3768 172.212,-37.0333 164.569,-27.6531"/>
<polygon fill="midnightblue" stroke="midnightblue" points="167.161,-25.2926 158.131,-19.7511 161.734,-29.7143 167.161,-25.2926"/>
</g>
<!-- Node7 -->
<g id="node7" class="node"><title>Node7</title>
<polygon fill="white" stroke="#bfbfbf" points="194,-0.5 194,-19.5 286,-19.5 286,-0.5 194,-0.5"/>
<text text-anchor="middle" x="240" y="-7.5" font-family="Helvetica,sans-Serif" font-size="10.00">boost/cstdint.hpp</text>
</g>
<!-- Node5&#45;&gt;Node7 -->
<g id="edge6" class="edge"><title>Node5&#45;&gt;Node7</title>
<path fill="none" stroke="midnightblue" d="M202.431,-56.083C208.853,-48.3768 218.306,-37.0333 226.122,-27.6531"/>
<polygon fill="midnightblue" stroke="midnightblue" points="228.994,-29.674 232.707,-19.7511 223.617,-25.1927 228.994,-29.674"/>
</g>
<!-- Node9 -->
<g id="node9" class="node"><title>Node9</title>
<polygon fill="white" stroke="#bfbfbf" points="817.5,-56.5 817.5,-75.5 890.5,-75.5 890.5,-56.5 817.5,-56.5"/>
<text text-anchor="middle" x="854" y="-63.5" font-family="Helvetica,sans-Serif" font-size="10.00">Eigen/Dense</text>
</g>
<!-- Node8&#45;&gt;Node9 -->
<g id="edge8" class="edge"><title>Node8&#45;&gt;Node9</title>
<path fill="none" stroke="midnightblue" d="M779.225,-112.781C795.028,-103.105 815.832,-90.3684 831.483,-80.7861"/>
<polygon fill="midnightblue" stroke="midnightblue" points="833.325,-83.7623 840.026,-75.5557 829.67,-77.7923 833.325,-83.7623"/>
</g>
<!-- Node10 -->
<g id="node10" class="node"><title>Node10</title>
<polygon fill="white" stroke="#bfbfbf" points="712.5,-56.5 712.5,-75.5 799.5,-75.5 799.5,-56.5 712.5,-56.5"/>
<text text-anchor="middle" x="756" y="-63.5" font-family="Helvetica,sans-Serif" font-size="10.00">Eigen/Geometry</text>
</g>
<!-- Node8&#45;&gt;Node10 -->
<g id="edge9" class="edge"><title>Node8&#45;&gt;Node10</title>
<path fill="none" stroke="midnightblue" d="M756,-112.781C756,-104.781 756,-94.6887 756,-86.0168"/>
<polygon fill="midnightblue" stroke="midnightblue" points="759.5,-85.7305 756,-75.7305 752.5,-85.7306 759.5,-85.7305"/>
</g>
<!-- Node11&#45;&gt;Node4 -->
<g id="edge11" class="edge"><title>Node11&#45;&gt;Node4</title>
<path fill="none" stroke="midnightblue" d="M492.217,-118.403C522.668,-108.022 574.049,-90.5062 608.243,-78.849"/>
<polygon fill="midnightblue" stroke="midnightblue" points="609.495,-82.1202 617.83,-75.5806 607.236,-75.4946 609.495,-82.1202"/>
</g>
<!-- Node11&#45;&gt;Node5 -->
<g id="edge12" class="edge"><title>Node11&#45;&gt;Node5</title>
<path fill="none" stroke="midnightblue" d="M428.318,-118.467C379.679,-107.738 296.164,-89.3157 243.358,-77.6673"/>
<polygon fill="midnightblue" stroke="midnightblue" points="244.068,-74.2397 233.549,-75.5034 242.56,-81.0754 244.068,-74.2397"/>
</g>
<!-- Node11&#45;&gt;Node9 -->
<g id="edge13" class="edge"><title>Node11&#45;&gt;Node9</title>
<path fill="none" stroke="midnightblue" d="M526.268,-118.956C592.262,-109.815 702.341,-94.0207 807.236,-76.0646"/>
<polygon fill="midnightblue" stroke="midnightblue" points="808.108,-79.4661 817.369,-74.3203 806.92,-72.5675 808.108,-79.4661"/>
</g>
<!-- Node11&#45;&gt;Node10 -->
<g id="edge14" class="edge"><title>Node11&#45;&gt;Node10</title>
<path fill="none" stroke="midnightblue" d="M508.1,-118.467C559.886,-107.716 648.882,-89.239 704.969,-77.5947"/>
<polygon fill="midnightblue" stroke="midnightblue" points="705.962,-80.9632 715.042,-75.5034 704.539,-74.1093 705.962,-80.9632"/>
</g>
<!-- Node11&#45;&gt;Node12 -->
<g id="edge15" class="edge"><title>Node11&#45;&gt;Node12</title>
<path fill="none" stroke="midnightblue" d="M441.354,-118.403C409.327,-107.668 354.539,-89.3036 319.855,-77.6777"/>
<polygon fill="midnightblue" stroke="midnightblue" points="320.807,-74.3053 310.213,-74.4456 318.582,-80.9424 320.807,-74.3053"/>
</g>
<!-- Node11&#45;&gt;Node13 -->
<g id="edge16" class="edge"><title>Node11&#45;&gt;Node13</title>
<path fill="none" stroke="midnightblue" d="M450.953,-118.403C432.407,-108.468 401.66,-91.9966 379.978,-80.3812"/>
<polygon fill="midnightblue" stroke="midnightblue" points="381.485,-77.2177 371.017,-75.5806 378.179,-83.388 381.485,-77.2177"/>
</g>
<!-- Node11&#45;&gt;Node14 -->
<g id="edge17" class="edge"><title>Node11&#45;&gt;Node14</title>
<path fill="none" stroke="midnightblue" d="M479.465,-118.403C493.419,-108.78 516.265,-93.0242 532.991,-81.4891"/>
<polygon fill="midnightblue" stroke="midnightblue" points="535.313,-84.1392 541.558,-75.5806 531.339,-78.3767 535.313,-84.1392"/>
</g>
<!-- Node15 -->
<g id="node15" class="node"><title>Node15</title>
<g id="a_node15"><a xlink:href="a00336.html" target="_top" xlink:title="hpp/fcl/eigen/product.h">
<polygon fill="white" stroke="black" points="400,-56.5 400,-75.5 516,-75.5 516,-56.5 400,-56.5"/>
<text text-anchor="middle" x="458" y="-63.5" font-family="Helvetica,sans-Serif" font-size="10.00">hpp/fcl/eigen/product.h</text>
</a>
</g>
</g>
<!-- Node11&#45;&gt;Node15 -->
<g id="edge18" class="edge"><title>Node11&#45;&gt;Node15</title>
<path fill="none" stroke="midnightblue" d="M465.711,-118.403C464.427,-109.849 462.417,-96.4497 460.771,-85.4762"/>
<polygon fill="midnightblue" stroke="midnightblue" points="464.232,-84.9507 459.287,-75.5806 457.309,-85.9892 464.232,-84.9507"/>
</g>
<!-- Node17 -->
<g id="node17" class="node"><title>Node17</title>
<g id="a_node17"><a xlink:href="a00309.html" target="_top" xlink:title="hpp/fcl/ccd/interval\l_vector.h">
<polygon fill="white" stroke="black" points="170.5,-305 170.5,-335 269.5,-335 269.5,-305 170.5,-305"/>
<text text-anchor="start" x="178.5" y="-323" font-family="Helvetica,sans-Serif" font-size="10.00">hpp/fcl/ccd/interval</text>
<text text-anchor="middle" x="220" y="-312" font-family="Helvetica,sans-Serif" font-size="10.00">_vector.h</text>
</a>
</g>
</g>
<!-- Node16&#45;&gt;Node17 -->
<g id="edge23" class="edge"><title>Node16&#45;&gt;Node17</title>
<path fill="none" stroke="midnightblue" d="M309.544,-372.841C293.165,-363.359 271.393,-350.754 253.42,-340.348"/>
<polygon fill="midnightblue" stroke="midnightblue" points="254.823,-337.117 244.415,-335.135 251.316,-343.175 254.823,-337.117"/>
</g>
<!-- Node20 -->
<g id="node20" class="node"><title>Node20</title>
<g id="a_node20"><a xlink:href="a00344.html" target="_top" xlink:title="hpp/fcl/ccd/taylor\l_model.h">
<polygon fill="white" stroke="black" points="288,-305 288,-335 380,-335 380,-305 288,-305"/>
<text text-anchor="start" x="296" y="-323" font-family="Helvetica,sans-Serif" font-size="10.00">hpp/fcl/ccd/taylor</text>
<text text-anchor="middle" x="334" y="-312" font-family="Helvetica,sans-Serif" font-size="10.00">_model.h</text>
</a>
</g>
</g>
<!-- Node16&#45;&gt;Node20 -->
<g id="edge28" class="edge"><title>Node16&#45;&gt;Node20</title>
<path fill="none" stroke="midnightblue" d="M334,-372.679C334,-364.722 334,-354.605 334,-345.436"/>
<polygon fill="midnightblue" stroke="midnightblue" points="337.5,-345.293 334,-335.293 330.5,-345.293 337.5,-345.293"/>
</g>
<!-- Node22 -->
<g id="node22" class="node"><title>Node22</title>
<g id="a_node22"><a xlink:href="a00345.html" target="_top" xlink:title="hpp/fcl/eigen/taylor\l_operator.h">
<polygon fill="white" stroke="black" points="436.5,-305 436.5,-335 535.5,-335 535.5,-305 436.5,-305"/>
<text text-anchor="start" x="444.5" y="-323" font-family="Helvetica,sans-Serif" font-size="10.00">hpp/fcl/eigen/taylor</text>
<text text-anchor="middle" x="486" y="-312" font-family="Helvetica,sans-Serif" font-size="10.00">_operator.h</text>
</a>
</g>
</g>
<!-- Node16&#45;&gt;Node22 -->
<g id="edge31" class="edge"><title>Node16&#45;&gt;Node22</title>
<path fill="none" stroke="midnightblue" d="M366.608,-372.841C389.326,-362.977 419.822,-349.735 444.307,-339.104"/>
<polygon fill="midnightblue" stroke="midnightblue" points="445.929,-342.215 453.707,-335.022 443.141,-335.794 445.929,-342.215"/>
</g>
<!-- Node17&#45;&gt;Node3 -->
<g id="edge26" class="edge"><title>Node17&#45;&gt;Node3</title>
<path fill="none" stroke="midnightblue" d="M226.453,-304.831C235.753,-286.07 254.736,-253.343 281,-236 318.452,-211.269 367.893,-200.066 407.224,-195.022"/>
<polygon fill="midnightblue" stroke="midnightblue" points="407.729,-198.487 417.251,-193.84 406.91,-191.535 407.729,-198.487"/>
</g>
<!-- Node18 -->
<g id="node18" class="node"><title>Node18</title>
<g id="a_node18"><a xlink:href="a00306.html" target="_top" xlink:title="hpp/fcl/ccd/interval.h">
<polygon fill="white" stroke="black" points="126.5,-242.5 126.5,-261.5 233.5,-261.5 233.5,-242.5 126.5,-242.5"/>
<text text-anchor="middle" x="180" y="-249.5" font-family="Helvetica,sans-Serif" font-size="10.00">hpp/fcl/ccd/interval.h</text>
</a>
</g>
</g>
<!-- Node17&#45;&gt;Node18 -->
<g id="edge24" class="edge"><title>Node17&#45;&gt;Node18</title>
<path fill="none" stroke="midnightblue" d="M211.321,-304.679C205.269,-294.694 197.156,-281.307 190.703,-270.66"/>
<polygon fill="midnightblue" stroke="midnightblue" points="193.527,-268.566 185.35,-261.828 187.54,-272.194 193.527,-268.566"/>
</g>
<!-- Node19 -->
<g id="node19" class="node"><title>Node19</title>
<g id="a_node19"><a xlink:href="a00305.html" target="_top" xlink:title="hpp/fcl/eigen/plugins\l/ccd/interval&#45;vector.h">
<polygon fill="white" stroke="black" points="0,-237 0,-267 108,-267 108,-237 0,-237"/>
<text text-anchor="start" x="8" y="-255" font-family="Helvetica,sans-Serif" font-size="10.00">hpp/fcl/eigen/plugins</text>
<text text-anchor="middle" x="54" y="-244" font-family="Helvetica,sans-Serif" font-size="10.00">/ccd/interval&#45;vector.h</text>
</a>
</g>
</g>
<!-- Node17&#45;&gt;Node19 -->
<g id="edge27" class="edge"><title>Node17&#45;&gt;Node19</title>
<path fill="none" stroke="midnightblue" d="M184.389,-304.841C159.359,-294.89 125.683,-281.5 98.8249,-270.822"/>
<polygon fill="midnightblue" stroke="midnightblue" points="99.8526,-267.464 89.267,-267.022 97.2663,-273.969 99.8526,-267.464"/>
</g>
<!-- Node18&#45;&gt;Node5 -->
<g id="edge25" class="edge"><title>Node18&#45;&gt;Node5</title>
<path fill="none" stroke="midnightblue" d="M180.723,-242.125C183.035,-213.769 190.277,-124.93 193.467,-85.8108"/>
<polygon fill="midnightblue" stroke="midnightblue" points="196.96,-86.037 194.284,-75.7857 189.983,-85.4682 196.96,-86.037"/>
</g>
<!-- Node20&#45;&gt;Node18 -->
<g id="edge29" class="edge"><title>Node20&#45;&gt;Node18</title>
<path fill="none" stroke="midnightblue" d="M300.963,-304.841C273.848,-293.221 235.794,-276.912 209.648,-265.706"/>
<polygon fill="midnightblue" stroke="midnightblue" points="210.828,-262.404 200.258,-261.682 208.07,-268.838 210.828,-262.404"/>
</g>
<!-- Node21 -->
<g id="node21" class="node"><title>Node21</title>
<polygon fill="white" stroke="#bfbfbf" points="290,-242.5 290,-261.5 398,-261.5 398,-242.5 290,-242.5"/>
<text text-anchor="middle" x="344" y="-249.5" font-family="Helvetica,sans-Serif" font-size="10.00">boost/shared_ptr.hpp</text>
</g>
<!-- Node20&#45;&gt;Node21 -->
<g id="edge30" class="edge"><title>Node20&#45;&gt;Node21</title>
<path fill="none" stroke="midnightblue" d="M336.17,-304.679C337.621,-295.101 339.546,-282.394 341.125,-271.977"/>
<polygon fill="midnightblue" stroke="midnightblue" points="344.625,-272.24 342.662,-261.828 337.704,-271.191 344.625,-272.24"/>
</g>
<!-- Node22&#45;&gt;Node2 -->
<g id="edge33" class="edge"><title>Node22&#45;&gt;Node2</title>
<path fill="none" stroke="midnightblue" d="M484.047,-304.679C482.741,-295.101 481.008,-282.394 479.588,-271.977"/>
<polygon fill="midnightblue" stroke="midnightblue" points="483.023,-271.264 478.204,-261.828 476.087,-272.21 483.023,-271.264"/>
</g>
<!-- Node22&#45;&gt;Node3 -->
<g id="edge32" class="edge"><title>Node22&#45;&gt;Node3</title>
<path fill="none" stroke="midnightblue" d="M511.833,-304.884C524.979,-296.158 539.694,-283.632 547,-268 553.022,-255.116 553.97,-248.397 547,-236 538.779,-221.378 523.669,-210.954 509.237,-203.846"/>
<polygon fill="midnightblue" stroke="midnightblue" points="510.484,-200.569 499.929,-199.644 507.603,-206.949 510.484,-200.569"/>
</g>
<!-- Node23&#45;&gt;Node2 -->
<g id="edge37" class="edge"><title>Node23&#45;&gt;Node2</title>
<path fill="none" stroke="midnightblue" d="M269.862,-373.211C315.817,-360.298 378.456,-342.102 389,-336 405.118,-326.672 441.136,-290.436 461.747,-269.05"/>
<polygon fill="midnightblue" stroke="midnightblue" points="464.429,-271.31 468.819,-261.667 459.374,-266.468 464.429,-271.31"/>
</g>
<!-- Node23&#45;&gt;Node17 -->
<g id="edge36" class="edge"><title>Node23&#45;&gt;Node17</title>
<path fill="none" stroke="midnightblue" d="M220,-372.679C220,-364.722 220,-354.605 220,-345.436"/>
<polygon fill="midnightblue" stroke="midnightblue" points="223.5,-345.293 220,-335.293 216.5,-345.293 223.5,-345.293"/>
</g>
<!-- Node23&#45;&gt;Node18 -->
<g id="edge35" class="edge"><title>Node23&#45;&gt;Node18</title>
<path fill="none" stroke="midnightblue" d="M195.298,-372.904C182.5,-364.111 168.096,-351.514 161,-336 151.234,-314.649 160.899,-287.843 169.644,-270.569"/>
<polygon fill="midnightblue" stroke="midnightblue" points="172.814,-272.067 174.533,-261.613 166.67,-268.713 172.814,-272.067"/>
</g>
</g>
</svg>
