<?xml version="1.0" encoding="UTF-8" standalone="no"?>
<!DOCTYPE svg PUBLIC "-//W3C//DTD SVG 1.1//EN"
 "http://www.w3.org/Graphics/SVG/1.1/DTD/svg11.dtd">
<!-- Generated by graphviz version 2.36.0 (20140111.2315)
 -->
<!-- Title: taylor_model.h Pages: 1 -->
<svg width="256pt" height="196pt"
 viewBox="0.00 0.00 256.00 196.00" xmlns="http://www.w3.org/2000/svg" xmlns:xlink="http://www.w3.org/1999/xlink">
<g id="graph0" class="graph" transform="scale(1 1) rotate(0) translate(4 192)">
<title>taylor_model.h</title>
<polygon fill="white" stroke="none" points="-4,4 -4,-192 252,-192 252,4 -4,4"/>
<!-- Node1 -->
<g id="node1" class="node"><title>Node1</title>
<polygon fill="#bfbfbf" stroke="black" points="91,-168.5 91,-187.5 171,-187.5 171,-168.5 91,-168.5"/>
<text text-anchor="middle" x="131" y="-175.5" font-family="Helvetica,sans-Serif" font-size="10.00">taylor_model.h</text>
</g>
<!-- Node2 -->
<g id="node2" class="node"><title>Node2</title>
<g id="a_node2"><a xlink:href="a00306.html" target="_top" xlink:title="hpp/fcl/ccd/interval.h">
<polygon fill="white" stroke="black" points="14.5,-112.5 14.5,-131.5 121.5,-131.5 121.5,-112.5 14.5,-112.5"/>
<text text-anchor="middle" x="68" y="-119.5" font-family="Helvetica,sans-Serif" font-size="10.00">hpp/fcl/ccd/interval.h</text>
</a>
</g>
</g>
<!-- Node1&#45;&gt;Node2 -->
<g id="edge1" class="edge"><title>Node1&#45;&gt;Node2</title>
<path fill="none" stroke="midnightblue" d="M120.878,-168.324C111.474,-160.263 97.2559,-148.077 85.931,-138.369"/>
<polygon fill="midnightblue" stroke="midnightblue" points="88.1766,-135.684 78.3062,-131.834 83.621,-140.999 88.1766,-135.684"/>
</g>
<!-- Node6 -->
<g id="node6" class="node"><title>Node6</title>
<polygon fill="white" stroke="#bfbfbf" points="140,-112.5 140,-131.5 248,-131.5 248,-112.5 140,-112.5"/>
<text text-anchor="middle" x="194" y="-119.5" font-family="Helvetica,sans-Serif" font-size="10.00">boost/shared_ptr.hpp</text>
</g>
<!-- Node1&#45;&gt;Node6 -->
<g id="edge5" class="edge"><title>Node1&#45;&gt;Node6</title>
<path fill="none" stroke="midnightblue" d="M141.122,-168.324C150.526,-160.263 164.744,-148.077 176.069,-138.369"/>
<polygon fill="midnightblue" stroke="midnightblue" points="178.379,-140.999 183.694,-131.834 173.823,-135.684 178.379,-140.999"/>
</g>
<!-- Node3 -->
<g id="node3" class="node"><title>Node3</title>
<g id="a_node3"><a xlink:href="a00283.html" target="_top" xlink:title="hpp/fcl/data_types.h">
<polygon fill="white" stroke="black" points="15.5,-56.5 15.5,-75.5 120.5,-75.5 120.5,-56.5 15.5,-56.5"/>
<text text-anchor="middle" x="68" y="-63.5" font-family="Helvetica,sans-Serif" font-size="10.00">hpp/fcl/data_types.h</text>
</a>
</g>
</g>
<!-- Node2&#45;&gt;Node3 -->
<g id="edge2" class="edge"><title>Node2&#45;&gt;Node3</title>
<path fill="none" stroke="midnightblue" d="M68,-112.083C68,-105.006 68,-94.8611 68,-85.9865"/>
<polygon fill="midnightblue" stroke="midnightblue" points="71.5001,-85.751 68,-75.7511 64.5001,-85.7511 71.5001,-85.751"/>
</g>
<!-- Node4 -->
<g id="node4" class="node"><title>Node4</title>
<polygon fill="white" stroke="#bfbfbf" points="-0.5,-0.5 -0.5,-19.5 48.5,-19.5 48.5,-0.5 -0.5,-0.5"/>
<text text-anchor="middle" x="24" y="-7.5" font-family="Helvetica,sans-Serif" font-size="10.00">cstddef</text>
</g>
<!-- Node3&#45;&gt;Node4 -->
<g id="edge3" class="edge"><title>Node3&#45;&gt;Node4</title>
<path fill="none" stroke="midnightblue" d="M60.7343,-56.083C54.4552,-48.3768 45.2124,-37.0333 37.5692,-27.6531"/>
<polygon fill="midnightblue" stroke="midnightblue" points="40.1606,-25.2926 31.1305,-19.7511 34.7339,-29.7143 40.1606,-25.2926"/>
</g>
<!-- Node5 -->
<g id="node5" class="node"><title>Node5</title>
<polygon fill="white" stroke="#bfbfbf" points="67,-0.5 67,-19.5 159,-19.5 159,-0.5 67,-0.5"/>
<text text-anchor="middle" x="113" y="-7.5" font-family="Helvetica,sans-Serif" font-size="10.00">boost/cstdint.hpp</text>
</g>
<!-- Node3&#45;&gt;Node5 -->
<g id="edge4" class="edge"><title>Node3&#45;&gt;Node5</title>
<path fill="none" stroke="midnightblue" d="M75.4308,-56.083C81.8527,-48.3768 91.3056,-37.0333 99.1225,-27.6531"/>
<polygon fill="midnightblue" stroke="midnightblue" points="101.994,-29.674 105.707,-19.7511 96.6168,-25.1927 101.994,-29.674"/>
</g>
</g>
</svg>
