<?xml version="1.0" encoding="UTF-8" standalone="no"?>
<!DOCTYPE svg PUBLIC "-//W3C//DTD SVG 1.1//EN"
 "http://www.w3.org/Graphics/SVG/1.1/DTD/svg11.dtd">
<!-- Generated by graphviz version 2.36.0 (20140111.2315)
 -->
<!-- Title: simplex.h Pages: 1 -->
<svg width="164pt" height="140pt"
 viewBox="0.00 0.00 164.00 140.00" xmlns="http://www.w3.org/2000/svg" xmlns:xlink="http://www.w3.org/1999/xlink">
<g id="graph0" class="graph" transform="scale(1 1) rotate(0) translate(4 136)">
<title>simplex.h</title>
<polygon fill="white" stroke="none" points="-4,4 -4,-136 160,-136 160,4 -4,4"/>
<!-- Node1 -->
<g id="node1" class="node"><title>Node1</title>
<polygon fill="#bfbfbf" stroke="black" points="53.5,-112.5 53.5,-131.5 112.5,-131.5 112.5,-112.5 53.5,-112.5"/>
<text text-anchor="middle" x="83" y="-119.5" font-family="Helvetica,sans-Serif" font-size="10.00">simplex.h</text>
</g>
<!-- Node2 -->
<g id="node2" class="node"><title>Node2</title>
<polygon fill="white" stroke="#bfbfbf" points="0,-56.5 0,-75.5 80,-75.5 80,-56.5 0,-56.5"/>
<text text-anchor="middle" x="40" y="-63.5" font-family="Helvetica,sans-Serif" font-size="10.00">ccd/compiler.h</text>
</g>
<!-- Node1&#45;&gt;Node2 -->
<g id="edge1" class="edge"><title>Node1&#45;&gt;Node2</title>
<path fill="none" stroke="midnightblue" d="M75.8994,-112.083C69.763,-104.377 60.7303,-93.0333 53.2608,-83.6531"/>
<polygon fill="midnightblue" stroke="midnightblue" points="55.9357,-81.3936 46.9685,-75.7511 50.4598,-85.7542 55.9357,-81.3936"/>
</g>
<!-- Node3 -->
<g id="node3" class="node"><title>Node3</title>
<g id="a_node3"><a xlink:href="a00342.html" target="_top" xlink:title="support.h">
<polygon fill="white" stroke="black" points="98.5,-56.5 98.5,-75.5 155.5,-75.5 155.5,-56.5 98.5,-56.5"/>
<text text-anchor="middle" x="127" y="-63.5" font-family="Helvetica,sans-Serif" font-size="10.00">support.h</text>
</a>
</g>
</g>
<!-- Node1&#45;&gt;Node3 -->
<g id="edge2" class="edge"><title>Node1&#45;&gt;Node3</title>
<path fill="none" stroke="midnightblue" d="M90.2657,-112.083C96.5448,-104.377 105.788,-93.0333 113.431,-83.6531"/>
<polygon fill="midnightblue" stroke="midnightblue" points="116.266,-85.7143 119.869,-75.7511 110.839,-81.2926 116.266,-85.7143"/>
</g>
<!-- Node4 -->
<g id="node4" class="node"><title>Node4</title>
<polygon fill="white" stroke="#bfbfbf" points="97.5,-0.5 97.5,-19.5 156.5,-19.5 156.5,-0.5 97.5,-0.5"/>
<text text-anchor="middle" x="127" y="-7.5" font-family="Helvetica,sans-Serif" font-size="10.00">ccd/ccd.h</text>
</g>
<!-- Node3&#45;&gt;Node4 -->
<g id="edge3" class="edge"><title>Node3&#45;&gt;Node4</title>
<path fill="none" stroke="midnightblue" d="M127,-56.083C127,-49.0059 127,-38.8611 127,-29.9865"/>
<polygon fill="midnightblue" stroke="midnightblue" points="130.5,-29.751 127,-19.7511 123.5,-29.7511 130.5,-29.751"/>
</g>
</g>
</svg>
