<?xml version="1.0" encoding="UTF-8" standalone="no"?>
<!DOCTYPE svg PUBLIC "-//W3C//DTD SVG 1.1//EN"
 "http://www.w3.org/Graphics/SVG/1.1/DTD/svg11.dtd">
<!-- Generated by graphviz version 2.36.0 (20140111.2315)
 -->
<!-- Title: Eigen::internal::traits&lt; FclMatrix&lt; T, Cols, _Options &gt; &gt; Pages: 1 -->
<svg width="118pt" height="128pt"
 viewBox="0.00 0.00 118.00 128.00" xmlns="http://www.w3.org/2000/svg" xmlns:xlink="http://www.w3.org/1999/xlink">
<g id="graph0" class="graph" transform="scale(1 1) rotate(0) translate(4 124)">
<title>Eigen::internal::traits&lt; FclMatrix&lt; T, Cols, _Options &gt; &gt;</title>
<polygon fill="white" stroke="none" points="-4,4 -4,-124 114,-124 114,4 -4,4"/>
<!-- Node1 -->
<g id="node1" class="node"><title>Node1</title>
<polygon fill="#bfbfbf" stroke="black" points="0,-0.5 0,-41.5 110,-41.5 110,-0.5 0,-0.5"/>
<text text-anchor="start" x="8" y="-29.5" font-family="Helvetica,sans-Serif" font-size="10.00">Eigen::internal::traits</text>
<text text-anchor="start" x="8" y="-18.5" font-family="Helvetica,sans-Serif" font-size="10.00">&lt; FclMatrix&lt; T, Cols,</text>
<text text-anchor="middle" x="55" y="-7.5" font-family="Helvetica,sans-Serif" font-size="10.00"> _Options &gt; &gt;</text>
</g>
<!-- Node2 -->
<g id="node2" class="node"><title>Node2</title>
<polygon fill="white" stroke="#bfbfbf" points="2,-78.5 2,-119.5 108,-119.5 108,-78.5 2,-78.5"/>
<text text-anchor="start" x="10" y="-107.5" font-family="Helvetica,sans-Serif" font-size="10.00">traits&lt; FclMatrix&lt;</text>
<text text-anchor="start" x="10" y="-96.5" font-family="Helvetica,sans-Serif" font-size="10.00"> T, Cols, _Options &gt;</text>
<text text-anchor="middle" x="55" y="-85.5" font-family="Helvetica,sans-Serif" font-size="10.00">::Base &gt;</text>
</g>
<!-- Node2&#45;&gt;Node1 -->
<g id="edge1" class="edge"><title>Node2&#45;&gt;Node1</title>
<path fill="none" stroke="midnightblue" d="M55,-68.2965C55,-59.3009 55,-49.6532 55,-41.5056"/>
<polygon fill="midnightblue" stroke="midnightblue" points="51.5001,-68.4281 55,-78.4281 58.5001,-68.4281 51.5001,-68.4281"/>
</g>
</g>
</svg>
