<?xml version="1.0" encoding="UTF-8" standalone="no"?>
<!DOCTYPE svg PUBLIC "-//W3C//DTD SVG 1.1//EN"
 "http://www.w3.org/Graphics/SVG/1.1/DTD/svg11.dtd">
<!-- Generated by graphviz version 2.36.0 (20140111.2315)
 -->
<!-- Title: traversal_node_base.h Pages: 1 -->
<svg width="572pt" height="152pt"
 viewBox="0.00 0.00 572.00 152.00" xmlns="http://www.w3.org/2000/svg" xmlns:xlink="http://www.w3.org/1999/xlink">
<g id="graph0" class="graph" transform="scale(1 1) rotate(0) translate(4 148)">
<title>traversal_node_base.h</title>
<polygon fill="white" stroke="none" points="-4,4 -4,-148 568,-148 568,4 -4,4"/>
<!-- Node1 -->
<g id="node1" class="node"><title>Node1</title>
<polygon fill="#bfbfbf" stroke="black" points="218.5,-124.5 218.5,-143.5 333.5,-143.5 333.5,-124.5 218.5,-124.5"/>
<text text-anchor="middle" x="276" y="-131.5" font-family="Helvetica,sans-Serif" font-size="10.00">traversal_node_base.h</text>
</g>
<!-- Node2 -->
<g id="node2" class="node"><title>Node2</title>
<g id="a_node2"><a xlink:href="a00279.html" target="_top" xlink:title="collision_node.h">
<polygon fill="white" stroke="black" points="0,-0.5 0,-19.5 86,-19.5 86,-0.5 0,-0.5"/>
<text text-anchor="middle" x="43" y="-7.5" font-family="Helvetica,sans-Serif" font-size="10.00">collision_node.h</text>
</a>
</g>
</g>
<!-- Node1&#45;&gt;Node2 -->
<g id="edge1" class="edge"><title>Node1&#45;&gt;Node2</title>
<path fill="none" stroke="midnightblue" d="M208.119,-130.625C140.55,-126.663 43.5969,-116.107 20,-88 2.95549,-67.6981 23.8808,-35.117 35.8033,-19.6667"/>
<polygon fill="midnightblue" stroke="midnightblue" points="208.101,-134.129 218.279,-131.184 208.486,-127.14 208.101,-134.129"/>
</g>
<!-- Node3 -->
<g id="node3" class="node"><title>Node3</title>
<g id="a_node3"><a xlink:href="a00351.html" target="_top" xlink:title="traversal_node_bvhs.h">
<polygon fill="white" stroke="black" points="28.5,-62.5 28.5,-81.5 143.5,-81.5 143.5,-62.5 28.5,-62.5"/>
<text text-anchor="middle" x="86" y="-69.5" font-family="Helvetica,sans-Serif" font-size="10.00">traversal_node_bvhs.h</text>
</a>
</g>
</g>
<!-- Node1&#45;&gt;Node3 -->
<g id="edge2" class="edge"><title>Node1&#45;&gt;Node3</title>
<path fill="none" stroke="midnightblue" d="M238.896,-121.283C201.965,-109.62 146.164,-91.999 113.172,-81.5806"/>
<polygon fill="midnightblue" stroke="midnightblue" points="238.188,-124.73 248.778,-124.403 240.296,-118.055 238.188,-124.73"/>
</g>
<!-- Node5 -->
<g id="node5" class="node"><title>Node5</title>
<g id="a_node5"><a xlink:href="a00355.html" target="_top" xlink:title="traversal_recurse.h">
<polygon fill="white" stroke="black" points="464,-0.5 464,-19.5 564,-19.5 564,-0.5 464,-0.5"/>
<text text-anchor="middle" x="514" y="-7.5" font-family="Helvetica,sans-Serif" font-size="10.00">traversal_recurse.h</text>
</a>
</g>
</g>
<!-- Node1&#45;&gt;Node5 -->
<g id="edge12" class="edge"><title>Node1&#45;&gt;Node5</title>
<path fill="none" stroke="midnightblue" d="M343.734,-131.695C416.926,-128.684 526.657,-118.968 553,-88 571.351,-66.4276 541.348,-34.7387 524.387,-19.6291"/>
<polygon fill="midnightblue" stroke="midnightblue" points="343.521,-128.201 333.661,-132.077 343.787,-135.196 343.521,-128.201"/>
</g>
<!-- Node6 -->
<g id="node6" class="node"><title>Node6</title>
<g id="a_node6"><a xlink:href="a00350.html" target="_top" xlink:title="traversal_node_bvh\l_shape.h">
<polygon fill="white" stroke="black" points="161.5,-57 161.5,-87 262.5,-87 262.5,-57 161.5,-57"/>
<text text-anchor="start" x="169.5" y="-75" font-family="Helvetica,sans-Serif" font-size="10.00">traversal_node_bvh</text>
<text text-anchor="middle" x="212" y="-64" font-family="Helvetica,sans-Serif" font-size="10.00">_shape.h</text>
</a>
</g>
</g>
<!-- Node1&#45;&gt;Node6 -->
<g id="edge6" class="edge"><title>Node1&#45;&gt;Node6</title>
<path fill="none" stroke="midnightblue" d="M259.485,-117.517C249.481,-108.138 236.817,-96.2659 227.084,-87.1408"/>
<polygon fill="midnightblue" stroke="midnightblue" points="257.141,-120.117 266.83,-124.403 261.929,-115.011 257.141,-120.117"/>
</g>
<!-- Node7 -->
<g id="node7" class="node"><title>Node7</title>
<g id="a_node7"><a xlink:href="a00352.html" target="_top" xlink:title="traversal_node_octree.h">
<polygon fill="white" stroke="black" points="280.5,-62.5 280.5,-81.5 401.5,-81.5 401.5,-62.5 280.5,-62.5"/>
<text text-anchor="middle" x="341" y="-69.5" font-family="Helvetica,sans-Serif" font-size="10.00">traversal_node_octree.h</text>
</a>
</g>
</g>
<!-- Node1&#45;&gt;Node7 -->
<g id="edge8" class="edge"><title>Node1&#45;&gt;Node7</title>
<path fill="none" stroke="midnightblue" d="M292.769,-117.521C305.162,-106.082 321.575,-90.9305 331.704,-81.5806"/>
<polygon fill="midnightblue" stroke="midnightblue" points="290.287,-115.049 285.313,-124.403 295.035,-120.192 290.287,-115.049"/>
</g>
<!-- Node8 -->
<g id="node8" class="node"><title>Node8</title>
<g id="a_node8"><a xlink:href="a00354.html" target="_top" xlink:title="traversal_node_shapes.h">
<polygon fill="white" stroke="black" points="419.5,-62.5 419.5,-81.5 544.5,-81.5 544.5,-62.5 419.5,-62.5"/>
<text text-anchor="middle" x="482" y="-69.5" font-family="Helvetica,sans-Serif" font-size="10.00">traversal_node_shapes.h</text>
</a>
</g>
</g>
<!-- Node1&#45;&gt;Node8 -->
<g id="edge10" class="edge"><title>Node1&#45;&gt;Node8</title>
<path fill="none" stroke="midnightblue" d="M315.206,-121.581C355.234,-109.922 416.464,-92.0881 452.54,-81.5806"/>
<polygon fill="midnightblue" stroke="midnightblue" points="314.137,-118.247 305.515,-124.403 316.095,-124.967 314.137,-118.247"/>
</g>
<!-- Node3&#45;&gt;Node2 -->
<g id="edge3" class="edge"><title>Node3&#45;&gt;Node2</title>
<path fill="none" stroke="midnightblue" d="M73.9583,-54.1977C65.8872,-42.9356 55.5949,-28.5743 49.1494,-19.5806"/>
<polygon fill="midnightblue" stroke="midnightblue" points="71.1691,-56.3141 79.8391,-62.4035 76.8588,-52.2364 71.1691,-56.3141"/>
</g>
<!-- Node4 -->
<g id="node4" class="node"><title>Node4</title>
<g id="a_node4"><a xlink:href="a00353.html" target="_top" xlink:title="traversal_node_setup.h">
<polygon fill="white" stroke="black" points="211,-0.5 211,-19.5 329,-19.5 329,-0.5 211,-0.5"/>
<text text-anchor="middle" x="270" y="-7.5" font-family="Helvetica,sans-Serif" font-size="10.00">traversal_node_setup.h</text>
</a>
</g>
</g>
<!-- Node3&#45;&gt;Node4 -->
<g id="edge4" class="edge"><title>Node3&#45;&gt;Node4</title>
<path fill="none" stroke="midnightblue" d="M121.932,-59.283C157.697,-47.6204 211.736,-29.999 243.686,-19.5806"/>
<polygon fill="midnightblue" stroke="midnightblue" points="120.785,-55.9756 112.363,-62.4035 122.955,-62.6307 120.785,-55.9756"/>
</g>
<!-- Node3&#45;&gt;Node5 -->
<g id="edge5" class="edge"><title>Node3&#45;&gt;Node5</title>
<path fill="none" stroke="midnightblue" d="M130.683,-60.2113C137.79,-58.6785 145.079,-57.2135 152,-56 262.723,-36.5858 393.935,-22.46 463.994,-15.6224"/>
<polygon fill="midnightblue" stroke="midnightblue" points="129.466,-56.8964 120.465,-62.4842 130.986,-63.7295 129.466,-56.8964"/>
</g>
<!-- Node6&#45;&gt;Node4 -->
<g id="edge7" class="edge"><title>Node6&#45;&gt;Node4</title>
<path fill="none" stroke="midnightblue" d="M232.956,-49.3217C242.841,-39.0958 254.08,-27.4692 261.56,-19.7305"/>
<polygon fill="midnightblue" stroke="midnightblue" points="230.179,-47.1583 225.745,-56.7808 235.212,-52.0235 230.179,-47.1583"/>
</g>
<!-- Node7&#45;&gt;Node4 -->
<g id="edge9" class="edge"><title>Node7&#45;&gt;Node4</title>
<path fill="none" stroke="midnightblue" d="M323.068,-55.8464C309.489,-44.3706 291.323,-29.0195 280.154,-19.5806"/>
<polygon fill="midnightblue" stroke="midnightblue" points="320.93,-58.6221 330.827,-62.4035 325.449,-53.2755 320.93,-58.6221"/>
</g>
<!-- Node8&#45;&gt;Node4 -->
<g id="edge11" class="edge"><title>Node8&#45;&gt;Node4</title>
<path fill="none" stroke="midnightblue" d="M441.913,-59.6547C400.725,-47.9977 337.523,-30.1103 300.318,-19.5806"/>
<polygon fill="midnightblue" stroke="midnightblue" points="441.05,-63.0479 451.626,-62.4035 442.957,-56.3124 441.05,-63.0479"/>
</g>
</g>
</svg>
