<?xml version="1.0" encoding="UTF-8" standalone="no"?>
<!DOCTYPE svg PUBLIC "-//W3C//DTD SVG 1.1//EN"
 "http://www.w3.org/Graphics/SVG/1.1/DTD/svg11.dtd">
<!-- Generated by graphviz version 2.36.0 (20140111.2315)
 -->
<!-- Title: traversal_node_base.h Pages: 1 -->
<svg width="1292pt" height="728pt"
 viewBox="0.00 0.00 1292.00 728.00" xmlns="http://www.w3.org/2000/svg" xmlns:xlink="http://www.w3.org/1999/xlink">
<g id="graph0" class="graph" transform="scale(1 1) rotate(0) translate(4 724)">
<title>traversal_node_base.h</title>
<polygon fill="white" stroke="none" points="-4,4 -4,-724 1288,-724 1288,4 -4,4"/>
<!-- Node1 -->
<g id="node1" class="node"><title>Node1</title>
<polygon fill="#bfbfbf" stroke="black" points="1150.5,-700.5 1150.5,-719.5 1265.5,-719.5 1265.5,-700.5 1150.5,-700.5"/>
<text text-anchor="middle" x="1208" y="-707.5" font-family="Helvetica,sans-Serif" font-size="10.00">traversal_node_base.h</text>
</g>
<!-- Node2 -->
<g id="node2" class="node"><title>Node2</title>
<g id="a_node2"><a xlink:href="a00283.html" target="_top" xlink:title="hpp/fcl/data_types.h">
<polygon fill="white" stroke="black" points="1085.5,-56.5 1085.5,-75.5 1190.5,-75.5 1190.5,-56.5 1085.5,-56.5"/>
<text text-anchor="middle" x="1138" y="-63.5" font-family="Helvetica,sans-Serif" font-size="10.00">hpp/fcl/data_types.h</text>
</a>
</g>
</g>
<!-- Node1&#45;&gt;Node2 -->
<g id="edge1" class="edge"><title>Node1&#45;&gt;Node2</title>
<path fill="none" stroke="midnightblue" d="M1218.89,-700.377C1239.9,-682.679 1284,-639.949 1284,-593 1284,-593 1284,-593 1284,-189 1284,-131.881 1217.38,-96.2623 1174.15,-79.1596"/>
<polygon fill="midnightblue" stroke="midnightblue" points="1175.37,-75.8795 1164.78,-75.5956 1172.88,-82.4222 1175.37,-75.8795"/>
</g>
<!-- Node5 -->
<g id="node5" class="node"><title>Node5</title>
<g id="a_node5"><a xlink:href="a00348.html" target="_top" xlink:title="hpp/fcl/math/transform.h">
<polygon fill="white" stroke="black" points="580.5,-446.5 580.5,-465.5 703.5,-465.5 703.5,-446.5 580.5,-446.5"/>
<text text-anchor="middle" x="642" y="-453.5" font-family="Helvetica,sans-Serif" font-size="10.00">hpp/fcl/math/transform.h</text>
</a>
</g>
</g>
<!-- Node1&#45;&gt;Node5 -->
<g id="edge4" class="edge"><title>Node1&#45;&gt;Node5</title>
<path fill="none" stroke="midnightblue" d="M1194.12,-700.434C1144.99,-670.392 974.023,-568.384 822,-508 778.681,-490.793 727.365,-476.851 690.63,-467.921"/>
<polygon fill="midnightblue" stroke="midnightblue" points="691.215,-464.462 680.675,-465.537 689.584,-471.27 691.215,-464.462"/>
</g>
<!-- Node18 -->
<g id="node18" class="node"><title>Node18</title>
<g id="a_node18"><a xlink:href="a00277.html" target="_top" xlink:title="hpp/fcl/collision_data.h">
<polygon fill="white" stroke="black" points="354,-644.5 354,-663.5 470,-663.5 470,-644.5 354,-644.5"/>
<text text-anchor="middle" x="412" y="-651.5" font-family="Helvetica,sans-Serif" font-size="10.00">hpp/fcl/collision_data.h</text>
</a>
</g>
</g>
<!-- Node1&#45;&gt;Node18 -->
<g id="edge25" class="edge"><title>Node1&#45;&gt;Node18</title>
<path fill="none" stroke="midnightblue" d="M1150.43,-705.095C1007.04,-695.367 634.408,-670.088 480.275,-659.632"/>
<polygon fill="midnightblue" stroke="midnightblue" points="480.216,-656.12 470.002,-658.935 479.742,-663.104 480.216,-656.12"/>
</g>
<!-- Node3 -->
<g id="node3" class="node"><title>Node3</title>
<polygon fill="white" stroke="#bfbfbf" points="1069.5,-0.5 1069.5,-19.5 1118.5,-19.5 1118.5,-0.5 1069.5,-0.5"/>
<text text-anchor="middle" x="1094" y="-7.5" font-family="Helvetica,sans-Serif" font-size="10.00">cstddef</text>
</g>
<!-- Node2&#45;&gt;Node3 -->
<g id="edge2" class="edge"><title>Node2&#45;&gt;Node3</title>
<path fill="none" stroke="midnightblue" d="M1130.73,-56.083C1124.46,-48.3768 1115.21,-37.0333 1107.57,-27.6531"/>
<polygon fill="midnightblue" stroke="midnightblue" points="1110.16,-25.2926 1101.13,-19.7511 1104.73,-29.7143 1110.16,-25.2926"/>
</g>
<!-- Node4 -->
<g id="node4" class="node"><title>Node4</title>
<polygon fill="white" stroke="#bfbfbf" points="1137,-0.5 1137,-19.5 1229,-19.5 1229,-0.5 1137,-0.5"/>
<text text-anchor="middle" x="1183" y="-7.5" font-family="Helvetica,sans-Serif" font-size="10.00">boost/cstdint.hpp</text>
</g>
<!-- Node2&#45;&gt;Node4 -->
<g id="edge3" class="edge"><title>Node2&#45;&gt;Node4</title>
<path fill="none" stroke="midnightblue" d="M1145.43,-56.083C1151.85,-48.3768 1161.31,-37.0333 1169.12,-27.6531"/>
<polygon fill="midnightblue" stroke="midnightblue" points="1171.99,-29.674 1175.71,-19.7511 1166.62,-25.1927 1171.99,-29.674"/>
</g>
<!-- Node6 -->
<g id="node6" class="node"><title>Node6</title>
<g id="a_node6"><a xlink:href="a00319.html" target="_top" xlink:title="hpp/fcl/math/matrix_3f.h">
<polygon fill="white" stroke="black" points="642,-242.5 642,-261.5 764,-261.5 764,-242.5 642,-242.5"/>
<text text-anchor="middle" x="703" y="-249.5" font-family="Helvetica,sans-Serif" font-size="10.00">hpp/fcl/math/matrix_3f.h</text>
</a>
</g>
</g>
<!-- Node5&#45;&gt;Node6 -->
<g id="edge5" class="edge"><title>Node5&#45;&gt;Node6</title>
<path fill="none" stroke="midnightblue" d="M641.987,-446.445C642.234,-422.813 644.875,-355.011 666,-304 671.255,-291.31 680.256,-278.799 688.065,-269.345"/>
<polygon fill="midnightblue" stroke="midnightblue" points="690.865,-271.457 694.758,-261.604 685.57,-266.879 690.865,-271.457"/>
</g>
<!-- Node17 -->
<g id="node17" class="node"><title>Node17</title>
<polygon fill="white" stroke="#bfbfbf" points="494.5,-378.5 494.5,-397.5 613.5,-397.5 613.5,-378.5 494.5,-378.5"/>
<text text-anchor="middle" x="554" y="-385.5" font-family="Helvetica,sans-Serif" font-size="10.00">boost/thread/mutex.hpp</text>
</g>
<!-- Node5&#45;&gt;Node17 -->
<g id="edge24" class="edge"><title>Node5&#45;&gt;Node17</title>
<path fill="none" stroke="midnightblue" d="M630.496,-446.372C616.134,-435.6 591.336,-417.002 573.875,-403.906"/>
<polygon fill="midnightblue" stroke="midnightblue" points="575.607,-400.83 565.507,-397.63 571.407,-406.431 575.607,-400.83"/>
</g>
<!-- Node7 -->
<g id="node7" class="node"><title>Node7</title>
<g id="a_node7"><a xlink:href="a00356.html" target="_top" xlink:title="hpp/fcl/math/vec_3f.h">
<polygon fill="white" stroke="black" points="647.5,-180.5 647.5,-199.5 758.5,-199.5 758.5,-180.5 647.5,-180.5"/>
<text text-anchor="middle" x="703" y="-187.5" font-family="Helvetica,sans-Serif" font-size="10.00">hpp/fcl/math/vec_3f.h</text>
</a>
</g>
</g>
<!-- Node6&#45;&gt;Node7 -->
<g id="edge6" class="edge"><title>Node6&#45;&gt;Node7</title>
<path fill="none" stroke="midnightblue" d="M703,-242.403C703,-233.938 703,-220.728 703,-209.82"/>
<polygon fill="midnightblue" stroke="midnightblue" points="706.5,-209.581 703,-199.581 699.5,-209.581 706.5,-209.581"/>
</g>
<!-- Node7&#45;&gt;Node2 -->
<g id="edge8" class="edge"><title>Node7&#45;&gt;Node2</title>
<path fill="none" stroke="midnightblue" d="M758.7,-184.427C814.628,-178.77 902.771,-166.936 976,-144 1027.71,-127.805 1083.96,-98.0528 1114.7,-80.6546"/>
<polygon fill="midnightblue" stroke="midnightblue" points="1116.45,-83.6873 1123.39,-75.6805 1112.97,-77.6129 1116.45,-83.6873"/>
</g>
<!-- Node8 -->
<g id="node8" class="node"><title>Node8</title>
<polygon fill="white" stroke="#bfbfbf" points="576,-56.5 576,-75.5 678,-75.5 678,-56.5 576,-56.5"/>
<text text-anchor="middle" x="627" y="-63.5" font-family="Helvetica,sans-Serif" font-size="10.00">hpp/fcl/config&#45;fcl.hh</text>
</g>
<!-- Node7&#45;&gt;Node8 -->
<g id="edge7" class="edge"><title>Node7&#45;&gt;Node8</title>
<path fill="none" stroke="midnightblue" d="M697.534,-180.226C685.045,-160.178 654.229,-110.71 637.77,-84.2888"/>
<polygon fill="midnightblue" stroke="midnightblue" points="640.674,-82.3316 632.416,-75.6944 634.733,-86.0329 640.674,-82.3316"/>
</g>
<!-- Node9 -->
<g id="node9" class="node"><title>Node9</title>
<g id="a_node9"><a xlink:href="a00316.html" target="_top" xlink:title="hpp/fcl/eigen/math\l_details.h">
<polygon fill="white" stroke="black" points="828.5,-113 828.5,-143 925.5,-143 925.5,-113 828.5,-113"/>
<text text-anchor="start" x="836.5" y="-131" font-family="Helvetica,sans-Serif" font-size="10.00">hpp/fcl/eigen/math</text>
<text text-anchor="middle" x="877" y="-120" font-family="Helvetica,sans-Serif" font-size="10.00">_details.h</text>
</a>
</g>
</g>
<!-- Node7&#45;&gt;Node9 -->
<g id="edge9" class="edge"><title>Node7&#45;&gt;Node9</title>
<path fill="none" stroke="midnightblue" d="M727.93,-180.403C753.563,-171.564 794.196,-157.553 826.57,-146.39"/>
<polygon fill="midnightblue" stroke="midnightblue" points="828.014,-149.594 836.327,-143.025 825.732,-142.976 828.014,-149.594"/>
</g>
<!-- Node12 -->
<g id="node12" class="node"><title>Node12</title>
<g id="a_node12"><a xlink:href="a00357.html" target="_top" xlink:title="hpp/fcl/eigen/vec_3fx.h">
<polygon fill="white" stroke="black" points="692,-118.5 692,-137.5 810,-137.5 810,-118.5 692,-118.5"/>
<text text-anchor="middle" x="751" y="-125.5" font-family="Helvetica,sans-Serif" font-size="10.00">hpp/fcl/eigen/vec_3fx.h</text>
</a>
</g>
</g>
<!-- Node7&#45;&gt;Node12 -->
<g id="edge12" class="edge"><title>Node7&#45;&gt;Node12</title>
<path fill="none" stroke="midnightblue" d="M709.877,-180.403C717.149,-171.314 728.795,-156.756 737.841,-145.449"/>
<polygon fill="midnightblue" stroke="midnightblue" points="740.622,-147.576 744.136,-137.581 735.155,-143.203 740.622,-147.576"/>
</g>
<!-- Node13 -->
<g id="node13" class="node"><title>Node13</title>
<polygon fill="white" stroke="#bfbfbf" points="442,-56.5 442,-75.5 486,-75.5 486,-56.5 442,-56.5"/>
<text text-anchor="middle" x="464" y="-63.5" font-family="Helvetica,sans-Serif" font-size="10.00">cmath</text>
</g>
<!-- Node7&#45;&gt;Node13 -->
<g id="edge21" class="edge"><title>Node7&#45;&gt;Node13</title>
<path fill="none" stroke="midnightblue" d="M678.941,-180.349C656.344,-171.947 621.796,-158.383 593,-144 553.723,-124.382 510.325,-97.2723 485.207,-81.0045"/>
<polygon fill="midnightblue" stroke="midnightblue" points="487.109,-78.0667 476.821,-75.5357 483.285,-83.93 487.109,-78.0667"/>
</g>
<!-- Node14 -->
<g id="node14" class="node"><title>Node14</title>
<polygon fill="white" stroke="#bfbfbf" points="504,-56.5 504,-75.5 558,-75.5 558,-56.5 504,-56.5"/>
<text text-anchor="middle" x="531" y="-63.5" font-family="Helvetica,sans-Serif" font-size="10.00">iostream</text>
</g>
<!-- Node7&#45;&gt;Node14 -->
<g id="edge22" class="edge"><title>Node7&#45;&gt;Node14</title>
<path fill="none" stroke="midnightblue" d="M690.905,-180.421C661.862,-159.821 587.913,-107.369 551.665,-81.6575"/>
<polygon fill="midnightblue" stroke="midnightblue" points="553.493,-78.6633 543.312,-75.7326 549.443,-84.3729 553.493,-78.6633"/>
</g>
<!-- Node15 -->
<g id="node15" class="node"><title>Node15</title>
<polygon fill="white" stroke="#bfbfbf" points="1027,-56.5 1027,-75.5 1067,-75.5 1067,-56.5 1027,-56.5"/>
<text text-anchor="middle" x="1047" y="-63.5" font-family="Helvetica,sans-Serif" font-size="10.00">limits</text>
</g>
<!-- Node7&#45;&gt;Node15 -->
<g id="edge23" class="edge"><title>Node7&#45;&gt;Node15</title>
<path fill="none" stroke="midnightblue" d="M758.968,-184.489C806.924,-179.144 877.062,-167.756 934,-144 970.972,-128.574 1008.3,-100.027 1029.45,-82.3604"/>
<polygon fill="midnightblue" stroke="midnightblue" points="1031.88,-84.8873 1037.23,-75.7404 1027.35,-79.5566 1031.88,-84.8873"/>
</g>
<!-- Node10 -->
<g id="node10" class="node"><title>Node10</title>
<polygon fill="white" stroke="#bfbfbf" points="935.5,-56.5 935.5,-75.5 1008.5,-75.5 1008.5,-56.5 935.5,-56.5"/>
<text text-anchor="middle" x="972" y="-63.5" font-family="Helvetica,sans-Serif" font-size="10.00">Eigen/Dense</text>
</g>
<!-- Node9&#45;&gt;Node10 -->
<g id="edge10" class="edge"><title>Node9&#45;&gt;Node10</title>
<path fill="none" stroke="midnightblue" d="M899.514,-112.781C914.69,-103.196 934.624,-90.6062 949.745,-81.0555"/>
<polygon fill="midnightblue" stroke="midnightblue" points="951.868,-83.8549 958.453,-75.5557 948.13,-77.9365 951.868,-83.8549"/>
</g>
<!-- Node11 -->
<g id="node11" class="node"><title>Node11</title>
<polygon fill="white" stroke="#bfbfbf" points="830.5,-56.5 830.5,-75.5 917.5,-75.5 917.5,-56.5 830.5,-56.5"/>
<text text-anchor="middle" x="874" y="-63.5" font-family="Helvetica,sans-Serif" font-size="10.00">Eigen/Geometry</text>
</g>
<!-- Node9&#45;&gt;Node11 -->
<g id="edge11" class="edge"><title>Node9&#45;&gt;Node11</title>
<path fill="none" stroke="midnightblue" d="M876.289,-112.781C875.885,-104.691 875.373,-94.4617 874.936,-85.725"/>
<polygon fill="midnightblue" stroke="midnightblue" points="878.432,-85.5432 874.437,-75.7305 871.44,-85.8929 878.432,-85.5432"/>
</g>
<!-- Node12&#45;&gt;Node2 -->
<g id="edge14" class="edge"><title>Node12&#45;&gt;Node2</title>
<path fill="none" stroke="midnightblue" d="M787.783,-118.473C798.169,-116.21 809.501,-113.877 820,-112 929.901,-92.3548 960.539,-92.2428 1075.01,-76.1263"/>
<polygon fill="midnightblue" stroke="midnightblue" points="1075.83,-79.5454 1085.24,-74.6754 1074.84,-72.6148 1075.83,-79.5454"/>
</g>
<!-- Node12&#45;&gt;Node8 -->
<g id="edge13" class="edge"><title>Node12&#45;&gt;Node8</title>
<path fill="none" stroke="midnightblue" d="M733.234,-118.403C712.516,-108.379 678.048,-91.7006 654.011,-80.0699"/>
<polygon fill="midnightblue" stroke="midnightblue" points="655.259,-76.7857 644.733,-75.5806 652.21,-83.0868 655.259,-76.7857"/>
</g>
<!-- Node12&#45;&gt;Node10 -->
<g id="edge15" class="edge"><title>Node12&#45;&gt;Node10</title>
<path fill="none" stroke="midnightblue" d="M782.664,-118.403C821.558,-107.844 887.642,-89.9027 930.548,-78.2538"/>
<polygon fill="midnightblue" stroke="midnightblue" points="931.661,-81.5785 940.395,-75.5806 929.827,-74.823 931.661,-81.5785"/>
</g>
<!-- Node12&#45;&gt;Node11 -->
<g id="edge16" class="edge"><title>Node12&#45;&gt;Node11</title>
<path fill="none" stroke="midnightblue" d="M768.623,-118.403C789.174,-108.379 823.364,-91.7006 847.207,-80.0699"/>
<polygon fill="midnightblue" stroke="midnightblue" points="848.957,-83.1106 856.41,-75.5806 845.888,-76.8192 848.957,-83.1106"/>
</g>
<!-- Node12&#45;&gt;Node13 -->
<g id="edge17" class="edge"><title>Node12&#45;&gt;Node13</title>
<path fill="none" stroke="midnightblue" d="M701.647,-118.468C652.012,-109.597 573.12,-94.707 496.152,-76.1239"/>
<polygon fill="midnightblue" stroke="midnightblue" points="496.834,-72.6876 486.289,-73.7194 495.176,-79.4885 496.834,-72.6876"/>
</g>
<!-- Node12&#45;&gt;Node14 -->
<g id="edge18" class="edge"><title>Node12&#45;&gt;Node14</title>
<path fill="none" stroke="midnightblue" d="M719.479,-118.403C679.441,-107.484 610.46,-88.6708 567.978,-77.085"/>
<polygon fill="midnightblue" stroke="midnightblue" points="568.869,-73.7002 558.301,-74.4456 567.027,-80.4536 568.869,-73.7002"/>
</g>
<!-- Node12&#45;&gt;Node15 -->
<g id="edge19" class="edge"><title>Node12&#45;&gt;Node15</title>
<path fill="none" stroke="midnightblue" d="M789.274,-118.442C799.262,-116.274 810.023,-113.996 820,-112 907.277,-94.5439 930.464,-96.8197 1017,-76 1017.1,-75.9762 1017.2,-75.9522 1017.3,-75.9281"/>
<polygon fill="midnightblue" stroke="midnightblue" points="1017.99,-79.366 1026.75,-73.4065 1016.19,-72.6025 1017.99,-79.366"/>
</g>
<!-- Node16 -->
<g id="node16" class="node"><title>Node16</title>
<g id="a_node16"><a xlink:href="a00336.html" target="_top" xlink:title="hpp/fcl/eigen/product.h">
<polygon fill="white" stroke="black" points="696,-56.5 696,-75.5 812,-75.5 812,-56.5 696,-56.5"/>
<text text-anchor="middle" x="754" y="-63.5" font-family="Helvetica,sans-Serif" font-size="10.00">hpp/fcl/eigen/product.h</text>
</a>
</g>
</g>
<!-- Node12&#45;&gt;Node16 -->
<g id="edge20" class="edge"><title>Node12&#45;&gt;Node16</title>
<path fill="none" stroke="midnightblue" d="M751.43,-118.403C751.853,-109.938 752.514,-96.7283 753.059,-85.8199"/>
<polygon fill="midnightblue" stroke="midnightblue" points="756.567,-85.7429 753.571,-75.5806 749.576,-85.3933 756.567,-85.7429"/>
</g>
<!-- Node18&#45;&gt;Node7 -->
<g id="edge72" class="edge"><title>Node18&#45;&gt;Node7</title>
<path fill="none" stroke="midnightblue" d="M409.496,-644.165C394.097,-588.952 314.922,-291.862 378,-236 415.303,-202.964 553.41,-194.065 637.118,-191.742"/>
<polygon fill="midnightblue" stroke="midnightblue" points="637.389,-195.236 647.297,-191.484 637.212,-188.238 637.389,-195.236"/>
</g>
<!-- Node18&#45;&gt;Node15 -->
<g id="edge75" class="edge"><title>Node18&#45;&gt;Node15</title>
<path fill="none" stroke="midnightblue" d="M470.314,-651.803C659.799,-646.358 1246,-616.613 1246,-457 1246,-457 1246,-457 1246,-251 1246,-159.781 1131.88,-101.201 1076.48,-78.1368"/>
<polygon fill="midnightblue" stroke="midnightblue" points="1077.76,-74.8776 1067.18,-74.3671 1075.13,-81.3655 1077.76,-74.8776"/>
</g>
<!-- Node19 -->
<g id="node19" class="node"><title>Node19</title>
<g id="a_node19"><a xlink:href="a00280.html" target="_top" xlink:title="hpp/fcl/collision_object.h">
<polygon fill="white" stroke="black" points="543,-582.5 543,-601.5 667,-601.5 667,-582.5 543,-582.5"/>
<text text-anchor="middle" x="605" y="-589.5" font-family="Helvetica,sans-Serif" font-size="10.00">hpp/fcl/collision_object.h</text>
</a>
</g>
</g>
<!-- Node18&#45;&gt;Node19 -->
<g id="edge26" class="edge"><title>Node18&#45;&gt;Node19</title>
<path fill="none" stroke="midnightblue" d="M439.652,-644.403C473.332,-633.933 530.357,-616.205 567.847,-604.55"/>
<polygon fill="midnightblue" stroke="midnightblue" points="568.889,-607.892 577.399,-601.581 566.811,-601.207 568.889,-607.892"/>
</g>
<!-- Node35 -->
<g id="node35" class="node"><title>Node35</title>
<g id="a_node35"><a xlink:href="a00275.html" target="_top" xlink:title="hpp/fcl/learning/classifier.h">
<polygon fill="white" stroke="black" points="28.5,-446.5 28.5,-465.5 161.5,-465.5 161.5,-446.5 28.5,-446.5"/>
<text text-anchor="middle" x="95" y="-453.5" font-family="Helvetica,sans-Serif" font-size="10.00">hpp/fcl/learning/classifier.h</text>
</a>
</g>
</g>
<!-- Node18&#45;&gt;Node35 -->
<g id="edge59" class="edge"><title>Node18&#45;&gt;Node35</title>
<path fill="none" stroke="midnightblue" d="M353.886,-648.113C310.721,-642.697 251.37,-631.398 204,-608 162.161,-587.334 150.396,-578.482 124,-540 110.408,-520.184 102.566,-493.353 98.5421,-475.627"/>
<polygon fill="midnightblue" stroke="midnightblue" points="101.937,-474.761 96.4699,-465.686 95.0841,-476.189 101.937,-474.761"/>
</g>
<!-- Node37 -->
<g id="node37" class="node"><title>Node37</title>
<polygon fill="white" stroke="#bfbfbf" points="168,-56.5 168,-75.5 212,-75.5 212,-56.5 168,-56.5"/>
<text text-anchor="middle" x="190" y="-63.5" font-family="Helvetica,sans-Serif" font-size="10.00">vector</text>
</g>
<!-- Node18&#45;&gt;Node37 -->
<g id="edge73" class="edge"><title>Node18&#45;&gt;Node37</title>
<path fill="none" stroke="midnightblue" d="M353.844,-647.2C240.276,-634.254 0,-598.215 0,-525 0,-525 0,-525 0,-189 0,-114.947 103.459,-83.7525 157.688,-72.4877"/>
<polygon fill="midnightblue" stroke="midnightblue" points="158.696,-75.8568 167.833,-70.4937 157.345,-68.9883 158.696,-75.8568"/>
</g>
<!-- Node40 -->
<g id="node40" class="node"><title>Node40</title>
<g id="a_node40"><a xlink:href="a00327.html" target="_top" xlink:title="hpp/fcl/knn/nearest\l_neighbors.h">
<polygon fill="white" stroke="black" points="213,-577 213,-607 313,-607 313,-577 213,-577"/>
<text text-anchor="start" x="221" y="-595" font-family="Helvetica,sans-Serif" font-size="10.00">hpp/fcl/knn/nearest</text>
<text text-anchor="middle" x="263" y="-584" font-family="Helvetica,sans-Serif" font-size="10.00">_neighbors.h</text>
</a>
</g>
</g>
<!-- Node18&#45;&gt;Node40 -->
<g id="edge68" class="edge"><title>Node18&#45;&gt;Node40</title>
<path fill="none" stroke="midnightblue" d="M390.652,-644.403C368.985,-635.679 334.804,-621.914 307.263,-610.824"/>
<polygon fill="midnightblue" stroke="midnightblue" points="308.413,-607.514 297.83,-607.025 305.798,-614.007 308.413,-607.514"/>
</g>
<!-- Node43 -->
<g id="node43" class="node"><title>Node43</title>
<polygon fill="white" stroke="#bfbfbf" points="418,-582.5 418,-601.5 448,-601.5 448,-582.5 418,-582.5"/>
<text text-anchor="middle" x="433" y="-589.5" font-family="Helvetica,sans-Serif" font-size="10.00">set</text>
</g>
<!-- Node18&#45;&gt;Node43 -->
<g id="edge74" class="edge"><title>Node18&#45;&gt;Node43</title>
<path fill="none" stroke="midnightblue" d="M415.009,-644.403C418.034,-635.76 422.79,-622.17 426.653,-611.134"/>
<polygon fill="midnightblue" stroke="midnightblue" points="429.997,-612.175 429.997,-601.581 423.39,-609.863 429.997,-612.175"/>
</g>
<!-- Node19&#45;&gt;Node5 -->
<g id="edge31" class="edge"><title>Node19&#45;&gt;Node5</title>
<path fill="none" stroke="midnightblue" d="M599.212,-582.425C589.567,-566.988 572.362,-533.732 584,-508 591.004,-492.515 605.29,-479.861 617.931,-471.032"/>
<polygon fill="midnightblue" stroke="midnightblue" points="619.864,-473.95 626.31,-465.542 616.027,-468.095 619.864,-473.95"/>
</g>
<!-- Node20 -->
<g id="node20" class="node"><title>Node20</title>
<g id="a_node20"><a xlink:href="a00284.html" target="_top" xlink:title="hpp/fcl/deprecated.h">
<polygon fill="white" stroke="black" points="593.5,-514.5 593.5,-533.5 698.5,-533.5 698.5,-514.5 593.5,-514.5"/>
<text text-anchor="middle" x="646" y="-521.5" font-family="Helvetica,sans-Serif" font-size="10.00">hpp/fcl/deprecated.h</text>
</a>
</g>
</g>
<!-- Node19&#45;&gt;Node20 -->
<g id="edge27" class="edge"><title>Node19&#45;&gt;Node20</title>
<path fill="none" stroke="midnightblue" d="M610.36,-582.372C616.587,-572.348 627.025,-555.546 635,-542.708"/>
<polygon fill="midnightblue" stroke="midnightblue" points="638.204,-544.182 640.508,-533.841 632.258,-540.489 638.204,-544.182"/>
</g>
<!-- Node21 -->
<g id="node21" class="node"><title>Node21</title>
<g id="a_node21"><a xlink:href="a00257.html" target="_top" xlink:title="hpp/fcl/BV/AABB.h">
<polygon fill="white" stroke="black" points="369.5,-310.5 369.5,-329.5 470.5,-329.5 470.5,-310.5 369.5,-310.5"/>
<text text-anchor="middle" x="420" y="-317.5" font-family="Helvetica,sans-Serif" font-size="10.00">hpp/fcl/BV/AABB.h</text>
</a>
</g>
</g>
<!-- Node19&#45;&gt;Node21 -->
<g id="edge28" class="edge"><title>Node19&#45;&gt;Node21</title>
<path fill="none" stroke="midnightblue" d="M597.207,-582.413C580.063,-563.324 538.202,-515.603 508,-472 476.009,-425.813 444.257,-367.441 429.135,-338.675"/>
<polygon fill="midnightblue" stroke="midnightblue" points="432.236,-337.051 424.507,-329.804 426.029,-340.289 432.236,-337.051"/>
</g>
<!-- Node23 -->
<g id="node23" class="node"><title>Node23</title>
<g id="a_node23"><a xlink:href="a00325.html" target="_top" xlink:title="hpp/fcl/ccd/motion\l_base.h">
<polygon fill="white" stroke="black" points="716.5,-509 716.5,-539 813.5,-539 813.5,-509 716.5,-509"/>
<text text-anchor="start" x="724.5" y="-527" font-family="Helvetica,sans-Serif" font-size="10.00">hpp/fcl/ccd/motion</text>
<text text-anchor="middle" x="765" y="-516" font-family="Helvetica,sans-Serif" font-size="10.00">_base.h</text>
</a>
</g>
</g>
<!-- Node19&#45;&gt;Node23 -->
<g id="edge32" class="edge"><title>Node19&#45;&gt;Node23</title>
<path fill="none" stroke="midnightblue" d="M625.917,-582.372C650.098,-572.397 690.551,-555.71 721.614,-542.897"/>
<polygon fill="midnightblue" stroke="midnightblue" points="723.015,-546.105 730.924,-539.056 720.345,-539.634 723.015,-546.105"/>
</g>
<!-- Node30 -->
<g id="node30" class="node"><title>Node30</title>
<polygon fill="white" stroke="#bfbfbf" points="820,-242.5 820,-261.5 928,-261.5 928,-242.5 820,-242.5"/>
<text text-anchor="middle" x="874" y="-249.5" font-family="Helvetica,sans-Serif" font-size="10.00">boost/shared_ptr.hpp</text>
</g>
<!-- Node19&#45;&gt;Node30 -->
<g id="edge58" class="edge"><title>Node19&#45;&gt;Node30</title>
<path fill="none" stroke="midnightblue" d="M667.052,-586.862C746.494,-577.81 874,-548.958 874,-457 874,-457 874,-457 874,-387 874,-346.046 874,-298.052 874,-272.066"/>
<polygon fill="midnightblue" stroke="midnightblue" points="877.5,-271.78 874,-261.78 870.5,-271.78 877.5,-271.78"/>
</g>
<!-- Node21&#45;&gt;Node7 -->
<g id="edge30" class="edge"><title>Node21&#45;&gt;Node7</title>
<path fill="none" stroke="midnightblue" d="M411.357,-310.231C396.286,-293.888 368.572,-258.4 388,-236 419.575,-199.593 554.426,-191.909 637.113,-190.708"/>
<polygon fill="midnightblue" stroke="midnightblue" points="637.218,-194.207 647.176,-190.59 637.136,-187.207 637.218,-194.207"/>
</g>
<!-- Node22 -->
<g id="node22" class="node"><title>Node22</title>
<polygon fill="white" stroke="#bfbfbf" points="397.5,-242.5 397.5,-261.5 456.5,-261.5 456.5,-242.5 397.5,-242.5"/>
<text text-anchor="middle" x="427" y="-249.5" font-family="Helvetica,sans-Serif" font-size="10.00">stdexcept</text>
</g>
<!-- Node21&#45;&gt;Node22 -->
<g id="edge29" class="edge"><title>Node21&#45;&gt;Node22</title>
<path fill="none" stroke="midnightblue" d="M420.915,-310.372C421.947,-300.643 423.656,-284.528 425.001,-271.85"/>
<polygon fill="midnightblue" stroke="midnightblue" points="428.488,-272.155 426.062,-261.841 421.527,-271.416 428.488,-272.155"/>
</g>
<!-- Node23&#45;&gt;Node5 -->
<g id="edge33" class="edge"><title>Node23&#45;&gt;Node5</title>
<path fill="none" stroke="midnightblue" d="M738.613,-508.841C717.433,-497.476 687.898,-481.628 667.073,-470.454"/>
<polygon fill="midnightblue" stroke="midnightblue" points="668.646,-467.326 658.18,-465.682 665.337,-473.494 668.646,-467.326"/>
</g>
<!-- Node24 -->
<g id="node24" class="node"><title>Node24</title>
<g id="a_node24"><a xlink:href="a00343.html" target="_top" xlink:title="hpp/fcl/ccd/taylor\l_matrix.h">
<polygon fill="white" stroke="black" points="902,-441 902,-471 994,-471 994,-441 902,-441"/>
<text text-anchor="start" x="910" y="-459" font-family="Helvetica,sans-Serif" font-size="10.00">hpp/fcl/ccd/taylor</text>
<text text-anchor="middle" x="948" y="-448" font-family="Helvetica,sans-Serif" font-size="10.00">_matrix.h</text>
</a>
</g>
</g>
<!-- Node23&#45;&gt;Node24 -->
<g id="edge34" class="edge"><title>Node23&#45;&gt;Node24</title>
<path fill="none" stroke="midnightblue" d="M804.258,-508.841C832.093,-498.802 869.628,-485.265 899.362,-474.542"/>
<polygon fill="midnightblue" stroke="midnightblue" points="900.902,-477.707 909.121,-471.022 898.527,-471.122 900.902,-477.707"/>
</g>
<!-- Node25 -->
<g id="node25" class="node"><title>Node25</title>
<g id="a_node25"><a xlink:href="a00346.html" target="_top" xlink:title="hpp/fcl/ccd/taylor\l_vector.h">
<polygon fill="white" stroke="black" points="902,-373 902,-403 994,-403 994,-373 902,-373"/>
<text text-anchor="start" x="910" y="-391" font-family="Helvetica,sans-Serif" font-size="10.00">hpp/fcl/ccd/taylor</text>
<text text-anchor="middle" x="948" y="-380" font-family="Helvetica,sans-Serif" font-size="10.00">_vector.h</text>
</a>
</g>
</g>
<!-- Node23&#45;&gt;Node25 -->
<g id="edge52" class="edge"><title>Node23&#45;&gt;Node25</title>
<path fill="none" stroke="midnightblue" d="M784.238,-508.913C816.776,-485.087 882.787,-436.752 920.303,-409.281"/>
<polygon fill="midnightblue" stroke="midnightblue" points="922.744,-411.831 928.745,-403.099 918.609,-406.183 922.744,-411.831"/>
</g>
<!-- Node33 -->
<g id="node33" class="node"><title>Node33</title>
<g id="a_node33"><a xlink:href="a00338.html" target="_top" xlink:title="hpp/fcl/BV/RSS.h">
<polygon fill="white" stroke="black" points="488.5,-310.5 488.5,-329.5 583.5,-329.5 583.5,-310.5 488.5,-310.5"/>
<text text-anchor="middle" x="536" y="-317.5" font-family="Helvetica,sans-Serif" font-size="10.00">hpp/fcl/BV/RSS.h</text>
</a>
</g>
</g>
<!-- Node23&#45;&gt;Node33 -->
<g id="edge53" class="edge"><title>Node23&#45;&gt;Node33</title>
<path fill="none" stroke="midnightblue" d="M716.089,-510.271C659.169,-495.439 572.67,-472.834 571,-472 527.404,-450.234 506.233,-447.857 485,-404 478.803,-391.199 479.557,-385.14 485,-372 491.033,-357.435 503.468,-344.86 514.549,-335.841"/>
<polygon fill="midnightblue" stroke="midnightblue" points="516.811,-338.518 522.629,-329.664 512.559,-332.956 516.811,-338.518"/>
</g>
<!-- Node24&#45;&gt;Node6 -->
<g id="edge35" class="edge"><title>Node24&#45;&gt;Node6</title>
<path fill="none" stroke="midnightblue" d="M901.915,-448.001C843.083,-436.324 743.587,-406.726 699,-336 686.71,-316.504 691.316,-289.02 696.517,-271.108"/>
<polygon fill="midnightblue" stroke="midnightblue" points="699.853,-272.167 699.605,-261.575 693.194,-270.01 699.853,-272.167"/>
</g>
<!-- Node24&#45;&gt;Node25 -->
<g id="edge36" class="edge"><title>Node24&#45;&gt;Node25</title>
<path fill="none" stroke="midnightblue" d="M948,-440.679C948,-432.722 948,-422.605 948,-413.436"/>
<polygon fill="midnightblue" stroke="midnightblue" points="951.5,-413.293 948,-403.293 944.5,-413.293 951.5,-413.293"/>
</g>
<!-- Node32 -->
<g id="node32" class="node"><title>Node32</title>
<g id="a_node32"><a xlink:href="a00307.html" target="_top" xlink:title="hpp/fcl/ccd/interval\l_matrix.h">
<polygon fill="white" stroke="black" points="1012.5,-373 1012.5,-403 1111.5,-403 1111.5,-373 1012.5,-373"/>
<text text-anchor="start" x="1020.5" y="-391" font-family="Helvetica,sans-Serif" font-size="10.00">hpp/fcl/ccd/interval</text>
<text text-anchor="middle" x="1062" y="-380" font-family="Helvetica,sans-Serif" font-size="10.00">_matrix.h</text>
</a>
</g>
</g>
<!-- Node24&#45;&gt;Node32 -->
<g id="edge48" class="edge"><title>Node24&#45;&gt;Node32</title>
<path fill="none" stroke="midnightblue" d="M972.456,-440.841C988.835,-431.359 1010.61,-418.754 1028.58,-408.348"/>
<polygon fill="midnightblue" stroke="midnightblue" points="1030.68,-411.175 1037.58,-403.135 1027.18,-405.117 1030.68,-411.175"/>
</g>
<!-- Node26 -->
<g id="node26" class="node"><title>Node26</title>
<g id="a_node26"><a xlink:href="a00309.html" target="_top" xlink:title="hpp/fcl/ccd/interval\l_vector.h">
<polygon fill="white" stroke="black" points="1012.5,-305 1012.5,-335 1111.5,-335 1111.5,-305 1012.5,-305"/>
<text text-anchor="start" x="1020.5" y="-323" font-family="Helvetica,sans-Serif" font-size="10.00">hpp/fcl/ccd/interval</text>
<text text-anchor="middle" x="1062" y="-312" font-family="Helvetica,sans-Serif" font-size="10.00">_vector.h</text>
</a>
</g>
</g>
<!-- Node25&#45;&gt;Node26 -->
<g id="edge37" class="edge"><title>Node25&#45;&gt;Node26</title>
<path fill="none" stroke="midnightblue" d="M972.456,-372.841C988.835,-363.359 1010.61,-350.754 1028.58,-340.348"/>
<polygon fill="midnightblue" stroke="midnightblue" points="1030.68,-343.175 1037.58,-335.135 1027.18,-337.117 1030.68,-343.175"/>
</g>
<!-- Node29 -->
<g id="node29" class="node"><title>Node29</title>
<g id="a_node29"><a xlink:href="a00344.html" target="_top" xlink:title="hpp/fcl/ccd/taylor\l_model.h">
<polygon fill="white" stroke="black" points="902,-305 902,-335 994,-335 994,-305 902,-305"/>
<text text-anchor="start" x="910" y="-323" font-family="Helvetica,sans-Serif" font-size="10.00">hpp/fcl/ccd/taylor</text>
<text text-anchor="middle" x="948" y="-312" font-family="Helvetica,sans-Serif" font-size="10.00">_model.h</text>
</a>
</g>
</g>
<!-- Node25&#45;&gt;Node29 -->
<g id="edge42" class="edge"><title>Node25&#45;&gt;Node29</title>
<path fill="none" stroke="midnightblue" d="M948,-372.679C948,-364.722 948,-354.605 948,-345.436"/>
<polygon fill="midnightblue" stroke="midnightblue" points="951.5,-345.293 948,-335.293 944.5,-345.293 951.5,-345.293"/>
</g>
<!-- Node31 -->
<g id="node31" class="node"><title>Node31</title>
<g id="a_node31"><a xlink:href="a00345.html" target="_top" xlink:title="hpp/fcl/eigen/taylor\l_operator.h">
<polygon fill="white" stroke="black" points="708.5,-305 708.5,-335 807.5,-335 807.5,-305 708.5,-305"/>
<text text-anchor="start" x="716.5" y="-323" font-family="Helvetica,sans-Serif" font-size="10.00">hpp/fcl/eigen/taylor</text>
<text text-anchor="middle" x="758" y="-312" font-family="Helvetica,sans-Serif" font-size="10.00">_operator.h</text>
</a>
</g>
</g>
<!-- Node25&#45;&gt;Node31 -->
<g id="edge45" class="edge"><title>Node25&#45;&gt;Node31</title>
<path fill="none" stroke="midnightblue" d="M907.24,-372.841C878.215,-362.759 839.031,-349.147 808.096,-338.402"/>
<polygon fill="midnightblue" stroke="midnightblue" points="808.961,-334.997 798.366,-335.022 806.664,-341.609 808.961,-334.997"/>
</g>
<!-- Node26&#45;&gt;Node7 -->
<g id="edge40" class="edge"><title>Node26&#45;&gt;Node7</title>
<path fill="none" stroke="midnightblue" d="M1035.77,-304.818C1018.4,-295.094 995.334,-281.547 976,-268 957.638,-255.134 957.3,-245.521 937,-236 883.675,-210.99 817.287,-199.88 768.86,-194.944"/>
<polygon fill="midnightblue" stroke="midnightblue" points="769.098,-191.451 758.81,-193.982 768.431,-198.419 769.098,-191.451"/>
</g>
<!-- Node27 -->
<g id="node27" class="node"><title>Node27</title>
<g id="a_node27"><a xlink:href="a00306.html" target="_top" xlink:title="hpp/fcl/ccd/interval.h">
<polygon fill="white" stroke="black" points="984.5,-242.5 984.5,-261.5 1091.5,-261.5 1091.5,-242.5 984.5,-242.5"/>
<text text-anchor="middle" x="1038" y="-249.5" font-family="Helvetica,sans-Serif" font-size="10.00">hpp/fcl/ccd/interval.h</text>
</a>
</g>
</g>
<!-- Node26&#45;&gt;Node27 -->
<g id="edge38" class="edge"><title>Node26&#45;&gt;Node27</title>
<path fill="none" stroke="midnightblue" d="M1056.79,-304.679C1053.24,-294.898 1048.49,-281.852 1044.66,-271.315"/>
<polygon fill="midnightblue" stroke="midnightblue" points="1047.92,-270.03 1041.21,-261.828 1041.34,-272.422 1047.92,-270.03"/>
</g>
<!-- Node28 -->
<g id="node28" class="node"><title>Node28</title>
<g id="a_node28"><a xlink:href="a00305.html" target="_top" xlink:title="hpp/fcl/eigen/plugins\l/ccd/interval&#45;vector.h">
<polygon fill="white" stroke="black" points="1110,-237 1110,-267 1218,-267 1218,-237 1110,-237"/>
<text text-anchor="start" x="1118" y="-255" font-family="Helvetica,sans-Serif" font-size="10.00">hpp/fcl/eigen/plugins</text>
<text text-anchor="middle" x="1164" y="-244" font-family="Helvetica,sans-Serif" font-size="10.00">/ccd/interval&#45;vector.h</text>
</a>
</g>
</g>
<!-- Node26&#45;&gt;Node28 -->
<g id="edge41" class="edge"><title>Node26&#45;&gt;Node28</title>
<path fill="none" stroke="midnightblue" d="M1083.88,-304.841C1098.4,-295.446 1117.66,-282.985 1133.65,-272.635"/>
<polygon fill="midnightblue" stroke="midnightblue" points="1135.66,-275.506 1142.15,-267.135 1131.86,-269.629 1135.66,-275.506"/>
</g>
<!-- Node27&#45;&gt;Node2 -->
<g id="edge39" class="edge"><title>Node27&#45;&gt;Node2</title>
<path fill="none" stroke="midnightblue" d="M1042.82,-242.125C1058.37,-213.526 1107.35,-123.4 1128.32,-84.8145"/>
<polygon fill="midnightblue" stroke="midnightblue" points="1131.53,-86.2432 1133.23,-75.7857 1125.37,-82.9006 1131.53,-86.2432"/>
</g>
<!-- Node29&#45;&gt;Node27 -->
<g id="edge43" class="edge"><title>Node29&#45;&gt;Node27</title>
<path fill="none" stroke="midnightblue" d="M967.529,-304.679C982.482,-293.713 1003.03,-278.645 1018.08,-267.609"/>
<polygon fill="midnightblue" stroke="midnightblue" points="1020.23,-270.374 1026.22,-261.638 1016.09,-264.729 1020.23,-270.374"/>
</g>
<!-- Node29&#45;&gt;Node30 -->
<g id="edge44" class="edge"><title>Node29&#45;&gt;Node30</title>
<path fill="none" stroke="midnightblue" d="M931.943,-304.679C920.062,-294.082 903.885,-279.655 891.644,-268.736"/>
<polygon fill="midnightblue" stroke="midnightblue" points="893.691,-265.872 883.898,-261.828 889.032,-271.097 893.691,-265.872"/>
</g>
<!-- Node31&#45;&gt;Node6 -->
<g id="edge47" class="edge"><title>Node31&#45;&gt;Node6</title>
<path fill="none" stroke="midnightblue" d="M746.066,-304.679C737.49,-294.388 725.903,-280.484 716.908,-269.69"/>
<polygon fill="midnightblue" stroke="midnightblue" points="719.448,-267.27 710.357,-261.828 714.07,-271.751 719.448,-267.27"/>
</g>
<!-- Node31&#45;&gt;Node7 -->
<g id="edge46" class="edge"><title>Node31&#45;&gt;Node7</title>
<path fill="none" stroke="midnightblue" d="M765.831,-304.894C774.275,-287.628 784.999,-257.978 773,-236 765.181,-221.679 750.638,-211.236 736.824,-204.036"/>
<polygon fill="midnightblue" stroke="midnightblue" points="738.001,-200.719 727.469,-199.562 734.981,-207.034 738.001,-200.719"/>
</g>
<!-- Node32&#45;&gt;Node6 -->
<g id="edge51" class="edge"><title>Node32&#45;&gt;Node6</title>
<path fill="none" stroke="midnightblue" d="M1012.31,-373.685C978.368,-364.181 932.549,-350.547 893,-336 861.605,-324.452 775.646,-285.922 730.901,-265.676"/>
<polygon fill="midnightblue" stroke="midnightblue" points="732.308,-262.471 721.755,-261.533 729.42,-268.848 732.308,-262.471"/>
</g>
<!-- Node32&#45;&gt;Node26 -->
<g id="edge50" class="edge"><title>Node32&#45;&gt;Node26</title>
<path fill="none" stroke="midnightblue" d="M1062,-372.679C1062,-364.722 1062,-354.605 1062,-345.436"/>
<polygon fill="midnightblue" stroke="midnightblue" points="1065.5,-345.293 1062,-335.293 1058.5,-345.293 1065.5,-345.293"/>
</g>
<!-- Node32&#45;&gt;Node27 -->
<g id="edge49" class="edge"><title>Node32&#45;&gt;Node27</title>
<path fill="none" stroke="midnightblue" d="M1086.29,-372.811C1098.88,-363.989 1113.04,-351.393 1120,-336 1125.86,-323.042 1126.91,-316.432 1120,-304 1110.11,-286.195 1091.13,-273.803 1073.93,-265.696"/>
<polygon fill="midnightblue" stroke="midnightblue" points="1075.18,-262.426 1064.62,-261.626 1072.38,-268.839 1075.18,-262.426"/>
</g>
<!-- Node33&#45;&gt;Node6 -->
<g id="edge56" class="edge"><title>Node33&#45;&gt;Node6</title>
<path fill="none" stroke="midnightblue" d="M557.832,-310.372C586.917,-298.877 638.556,-278.469 671.76,-265.346"/>
<polygon fill="midnightblue" stroke="midnightblue" points="673.413,-268.456 681.427,-261.526 670.84,-261.946 673.413,-268.456"/>
</g>
<!-- Node33&#45;&gt;Node7 -->
<g id="edge55" class="edge"><title>Node33&#45;&gt;Node7</title>
<path fill="none" stroke="midnightblue" d="M545.653,-310.446C566.507,-292.015 615.306,-249.162 633,-236 647.975,-224.86 665.663,-213.504 679.511,-204.987"/>
<polygon fill="midnightblue" stroke="midnightblue" points="681.677,-207.766 688.405,-199.581 678.042,-201.784 681.677,-207.766"/>
</g>
<!-- Node33&#45;&gt;Node22 -->
<g id="edge54" class="edge"><title>Node33&#45;&gt;Node22</title>
<path fill="none" stroke="midnightblue" d="M521.75,-310.372C503.472,-299.304 471.545,-279.972 449.854,-266.838"/>
<polygon fill="midnightblue" stroke="midnightblue" points="451.62,-263.816 441.253,-261.63 447.995,-269.804 451.62,-263.816"/>
</g>
<!-- Node34 -->
<g id="node34" class="node"><title>Node34</title>
<polygon fill="white" stroke="#bfbfbf" points="474.5,-237 474.5,-267 585.5,-267 585.5,-237 474.5,-237"/>
<text text-anchor="start" x="482.5" y="-255" font-family="Helvetica,sans-Serif" font-size="10.00">boost/math/constants</text>
<text text-anchor="middle" x="530" y="-244" font-family="Helvetica,sans-Serif" font-size="10.00">/constants.hpp</text>
</g>
<!-- Node33&#45;&gt;Node34 -->
<g id="edge57" class="edge"><title>Node33&#45;&gt;Node34</title>
<path fill="none" stroke="midnightblue" d="M535.216,-310.372C534.452,-301.971 533.256,-288.811 532.201,-277.213"/>
<polygon fill="midnightblue" stroke="midnightblue" points="535.68,-276.823 531.289,-267.181 528.709,-277.457 535.68,-276.823"/>
</g>
<!-- Node36 -->
<g id="node36" class="node"><title>Node36</title>
<g id="a_node36"><a xlink:href="a00359.html" target="_top" xlink:title="hpp/fcl/math/vec_nf.h">
<polygon fill="white" stroke="black" points="370.5,-118.5 370.5,-137.5 481.5,-137.5 481.5,-118.5 370.5,-118.5"/>
<text text-anchor="middle" x="426" y="-125.5" font-family="Helvetica,sans-Serif" font-size="10.00">hpp/fcl/math/vec_nf.h</text>
</a>
</g>
</g>
<!-- Node35&#45;&gt;Node36 -->
<g id="edge60" class="edge"><title>Node35&#45;&gt;Node36</title>
<path fill="none" stroke="midnightblue" d="M103.438,-446.202C118.083,-430.968 149.207,-398.739 176,-372 262.976,-285.198 369.225,-183.249 409.482,-144.765"/>
<polygon fill="midnightblue" stroke="midnightblue" points="412.021,-147.179 416.834,-137.741 407.186,-142.118 412.021,-147.179"/>
</g>
<!-- Node36&#45;&gt;Node2 -->
<g id="edge67" class="edge"><title>Node36&#45;&gt;Node2</title>
<path fill="none" stroke="midnightblue" d="M481.764,-123.866C592.67,-117.364 848.983,-100.99 1075.2,-76.0156"/>
<polygon fill="midnightblue" stroke="midnightblue" points="1075.71,-79.4799 1085.27,-74.8961 1074.94,-72.5228 1075.71,-79.4799"/>
</g>
<!-- Node36&#45;&gt;Node13 -->
<g id="edge61" class="edge"><title>Node36&#45;&gt;Node13</title>
<path fill="none" stroke="midnightblue" d="M431.444,-118.403C437.088,-109.493 446.061,-95.3247 453.159,-84.1177"/>
<polygon fill="midnightblue" stroke="midnightblue" points="456.172,-85.9015 458.566,-75.5806 450.258,-82.1561 456.172,-85.9015"/>
</g>
<!-- Node36&#45;&gt;Node14 -->
<g id="edge62" class="edge"><title>Node36&#45;&gt;Node14</title>
<path fill="none" stroke="midnightblue" d="M441.044,-118.403C458.275,-108.557 486.74,-92.2915 507.034,-80.6949"/>
<polygon fill="midnightblue" stroke="midnightblue" points="509.038,-83.5809 515.984,-75.5806 505.565,-77.5032 509.038,-83.5809"/>
</g>
<!-- Node36&#45;&gt;Node15 -->
<g id="edge63" class="edge"><title>Node36&#45;&gt;Node15</title>
<path fill="none" stroke="midnightblue" d="M481.566,-123.668C608.221,-115.836 915.212,-95.446 1017,-76 1017.1,-75.9809 1017.2,-75.9615 1017.3,-75.942"/>
<polygon fill="midnightblue" stroke="midnightblue" points="1017.89,-79.399 1026.81,-73.672 1016.27,-72.5905 1017.89,-79.399"/>
</g>
<!-- Node36&#45;&gt;Node37 -->
<g id="edge64" class="edge"><title>Node36&#45;&gt;Node37</title>
<path fill="none" stroke="midnightblue" d="M392.438,-118.467C346.984,-106.911 266.43,-86.4313 221.868,-75.1021"/>
<polygon fill="midnightblue" stroke="midnightblue" points="222.698,-71.7018 212.144,-72.6298 220.973,-78.4859 222.698,-71.7018"/>
</g>
<!-- Node38 -->
<g id="node38" class="node"><title>Node38</title>
<polygon fill="white" stroke="#bfbfbf" points="340,-56.5 340,-75.5 424,-75.5 424,-56.5 340,-56.5"/>
<text text-anchor="middle" x="382" y="-63.5" font-family="Helvetica,sans-Serif" font-size="10.00">boost/array.hpp</text>
</g>
<!-- Node36&#45;&gt;Node38 -->
<g id="edge65" class="edge"><title>Node36&#45;&gt;Node38</title>
<path fill="none" stroke="midnightblue" d="M419.696,-118.403C413.096,-109.403 402.563,-95.0408 394.307,-83.7824"/>
<polygon fill="midnightblue" stroke="midnightblue" points="397.029,-81.5749 388.292,-75.5806 391.384,-85.7144 397.029,-81.5749"/>
</g>
<!-- Node39 -->
<g id="node39" class="node"><title>Node39</title>
<polygon fill="white" stroke="#bfbfbf" points="273.5,-56.5 273.5,-75.5 322.5,-75.5 322.5,-56.5 273.5,-56.5"/>
<text text-anchor="middle" x="298" y="-63.5" font-family="Helvetica,sans-Serif" font-size="10.00">cstdarg</text>
</g>
<!-- Node36&#45;&gt;Node39 -->
<g id="edge66" class="edge"><title>Node36&#45;&gt;Node39</title>
<path fill="none" stroke="midnightblue" d="M407.661,-118.403C386.179,-108.334 350.378,-91.5522 325.552,-79.9151"/>
<polygon fill="midnightblue" stroke="midnightblue" points="326.845,-76.6559 316.305,-75.5806 323.874,-82.9941 326.845,-76.6559"/>
</g>
<!-- Node40&#45;&gt;Node37 -->
<g id="edge69" class="edge"><title>Node40&#45;&gt;Node37</title>
<path fill="none" stroke="midnightblue" d="M212.962,-579.308C192.227,-571.73 170.205,-559.496 158,-540 150.454,-527.945 155.722,-522.039 158,-508 160.702,-491.352 165.354,-488.213 170,-472 180.454,-435.524 190,-426.945 190,-389 190,-389 190,-389 190,-189 190,-152.414 190,-109.656 190,-85.7123"/>
<polygon fill="midnightblue" stroke="midnightblue" points="193.5,-85.5788 190,-75.5789 186.5,-85.5789 193.5,-85.5788"/>
</g>
<!-- Node41 -->
<g id="node41" class="node"><title>Node41</title>
<polygon fill="white" stroke="#bfbfbf" points="282,-514.5 282,-533.5 362,-533.5 362,-514.5 282,-514.5"/>
<text text-anchor="middle" x="322" y="-521.5" font-family="Helvetica,sans-Serif" font-size="10.00">boost/bind.hpp</text>
</g>
<!-- Node40&#45;&gt;Node41 -->
<g id="edge70" class="edge"><title>Node40&#45;&gt;Node41</title>
<path fill="none" stroke="midnightblue" d="M275.802,-576.679C285.093,-566.286 297.678,-552.208 307.366,-541.37"/>
<polygon fill="midnightblue" stroke="midnightblue" points="310.053,-543.616 314.108,-533.828 304.834,-538.951 310.053,-543.616"/>
</g>
<!-- Node42 -->
<g id="node42" class="node"><title>Node42</title>
<polygon fill="white" stroke="#bfbfbf" points="166.5,-514.5 166.5,-533.5 263.5,-533.5 263.5,-514.5 166.5,-514.5"/>
<text text-anchor="middle" x="215" y="-521.5" font-family="Helvetica,sans-Serif" font-size="10.00">boost/function.hpp</text>
</g>
<!-- Node40&#45;&gt;Node42 -->
<g id="edge71" class="edge"><title>Node40&#45;&gt;Node42</title>
<path fill="none" stroke="midnightblue" d="M252.585,-576.679C245.175,-566.49 235.188,-552.759 227.372,-542.011"/>
<polygon fill="midnightblue" stroke="midnightblue" points="230.133,-539.857 221.421,-533.828 224.472,-543.974 230.133,-539.857"/>
</g>
</g>
</svg>
