<?xml version="1.0" encoding="UTF-8" standalone="no"?>
<!DOCTYPE svg PUBLIC "-//W3C//DTD SVG 1.1//EN"
 "http://www.w3.org/Graphics/SVG/1.1/DTD/svg11.dtd">
<!-- Generated by graphviz version 2.36.0 (20140111.2315)
 -->
<!-- Title: sampling.h Pages: 1 -->
<svg width="1503pt" height="388pt"
 viewBox="0.00 0.00 1503.00 388.00" xmlns="http://www.w3.org/2000/svg" xmlns:xlink="http://www.w3.org/1999/xlink">
<g id="graph0" class="graph" transform="scale(1 1) rotate(0) translate(4 384)">
<title>sampling.h</title>
<polygon fill="white" stroke="none" points="-4,4 -4,-384 1499,-384 1499,4 -4,4"/>
<!-- Node1 -->
<g id="node1" class="node"><title>Node1</title>
<polygon fill="#bfbfbf" stroke="black" points="482,-360.5 482,-379.5 546,-379.5 546,-360.5 482,-360.5"/>
<text text-anchor="middle" x="514" y="-367.5" font-family="Helvetica,sans-Serif" font-size="10.00">sampling.h</text>
</g>
<!-- Node2 -->
<g id="node2" class="node"><title>Node2</title>
<polygon fill="white" stroke="#bfbfbf" points="0,-293 0,-323 122,-323 122,-293 0,-293"/>
<text text-anchor="start" x="8" y="-311" font-family="Helvetica,sans-Serif" font-size="10.00">boost/random/mersenne</text>
<text text-anchor="middle" x="61" y="-300" font-family="Helvetica,sans-Serif" font-size="10.00">_twister.hpp</text>
</g>
<!-- Node1&#45;&gt;Node2 -->
<g id="edge1" class="edge"><title>Node1&#45;&gt;Node2</title>
<path fill="none" stroke="midnightblue" d="M481.917,-366.215C416.067,-360.28 260.991,-345.178 132,-324 131.899,-323.983 131.798,-323.967 131.697,-323.95"/>
<polygon fill="midnightblue" stroke="midnightblue" points="132.577,-320.551 122.124,-322.282 131.375,-327.447 132.577,-320.551"/>
</g>
<!-- Node3 -->
<g id="node3" class="node"><title>Node3</title>
<polygon fill="white" stroke="#bfbfbf" points="140.5,-293 140.5,-323 251.5,-323 251.5,-293 140.5,-293"/>
<text text-anchor="start" x="148.5" y="-311" font-family="Helvetica,sans-Serif" font-size="10.00">boost/random/uniform</text>
<text text-anchor="middle" x="196" y="-300" font-family="Helvetica,sans-Serif" font-size="10.00">_real.hpp</text>
</g>
<!-- Node1&#45;&gt;Node3 -->
<g id="edge2" class="edge"><title>Node1&#45;&gt;Node3</title>
<path fill="none" stroke="midnightblue" d="M481.95,-363.836C435.616,-356.253 347.01,-341.316 261.499,-324.04"/>
<polygon fill="midnightblue" stroke="midnightblue" points="262.126,-320.596 251.629,-322.033 260.73,-327.456 262.126,-320.596"/>
</g>
<!-- Node4 -->
<g id="node4" class="node"><title>Node4</title>
<polygon fill="white" stroke="#bfbfbf" points="270,-293 270,-323 378,-323 378,-293 270,-293"/>
<text text-anchor="start" x="278" y="-311" font-family="Helvetica,sans-Serif" font-size="10.00">boost/random/normal</text>
<text text-anchor="middle" x="324" y="-300" font-family="Helvetica,sans-Serif" font-size="10.00">_distribution.hpp</text>
</g>
<!-- Node1&#45;&gt;Node4 -->
<g id="edge3" class="edge"><title>Node1&#45;&gt;Node4</title>
<path fill="none" stroke="midnightblue" d="M486.778,-360.403C458.546,-351.488 413.651,-337.311 378.155,-326.101"/>
<polygon fill="midnightblue" stroke="midnightblue" points="379.003,-322.699 368.413,-323.025 376.895,-329.374 379.003,-322.699"/>
</g>
<!-- Node5 -->
<g id="node5" class="node"><title>Node5</title>
<polygon fill="white" stroke="#bfbfbf" points="396,-293 396,-323 504,-323 504,-293 396,-293"/>
<text text-anchor="start" x="404" y="-311" font-family="Helvetica,sans-Serif" font-size="10.00">boost/random/variate</text>
<text text-anchor="middle" x="450" y="-300" font-family="Helvetica,sans-Serif" font-size="10.00">_generator.hpp</text>
</g>
<!-- Node1&#45;&gt;Node5 -->
<g id="edge4" class="edge"><title>Node1&#45;&gt;Node5</title>
<path fill="none" stroke="midnightblue" d="M504.83,-360.403C496.405,-352.505 483.575,-340.477 472.444,-330.041"/>
<polygon fill="midnightblue" stroke="midnightblue" points="474.773,-327.427 465.084,-323.141 469.985,-332.534 474.773,-327.427"/>
</g>
<!-- Node6 -->
<g id="node6" class="node"><title>Node6</title>
<polygon fill="white" stroke="#bfbfbf" points="522.5,-293 522.5,-323 633.5,-323 633.5,-293 522.5,-293"/>
<text text-anchor="start" x="530.5" y="-311" font-family="Helvetica,sans-Serif" font-size="10.00">boost/math/constants</text>
<text text-anchor="middle" x="578" y="-300" font-family="Helvetica,sans-Serif" font-size="10.00">/constants.hpp</text>
</g>
<!-- Node1&#45;&gt;Node6 -->
<g id="edge5" class="edge"><title>Node1&#45;&gt;Node6</title>
<path fill="none" stroke="midnightblue" d="M523.17,-360.403C531.595,-352.505 544.425,-340.477 555.556,-330.041"/>
<polygon fill="midnightblue" stroke="midnightblue" points="558.015,-332.534 562.916,-323.141 553.227,-327.427 558.015,-332.534"/>
</g>
<!-- Node7 -->
<g id="node7" class="node"><title>Node7</title>
<polygon fill="white" stroke="#bfbfbf" points="652,-298.5 652,-317.5 772,-317.5 772,-298.5 652,-298.5"/>
<text text-anchor="middle" x="712" y="-305.5" font-family="Helvetica,sans-Serif" font-size="10.00">boost/assign/list_of.hpp</text>
</g>
<!-- Node1&#45;&gt;Node7 -->
<g id="edge6" class="edge"><title>Node1&#45;&gt;Node7</title>
<path fill="none" stroke="midnightblue" d="M542.369,-360.403C576.921,-349.933 635.424,-332.205 673.885,-320.55"/>
<polygon fill="midnightblue" stroke="midnightblue" points="675.129,-323.83 683.684,-317.581 673.099,-317.131 675.129,-323.83"/>
</g>
<!-- Node8 -->
<g id="node8" class="node"><title>Node8</title>
<g id="a_node8"><a xlink:href="a00359.html" target="_top" xlink:title="hpp/fcl/math/vec_nf.h">
<polygon fill="white" stroke="black" points="744.5,-118.5 744.5,-137.5 855.5,-137.5 855.5,-118.5 744.5,-118.5"/>
<text text-anchor="middle" x="800" y="-125.5" font-family="Helvetica,sans-Serif" font-size="10.00">hpp/fcl/math/vec_nf.h</text>
</a>
</g>
</g>
<!-- Node1&#45;&gt;Node8 -->
<g id="edge7" class="edge"><title>Node1&#45;&gt;Node8</title>
<path fill="none" stroke="midnightblue" d="M546.303,-368.247C610.077,-366.037 748.702,-357.414 780,-324 825.737,-275.171 813.022,-186.339 804.658,-147.74"/>
<polygon fill="midnightblue" stroke="midnightblue" points="808.036,-146.816 802.368,-137.865 801.217,-148.397 808.036,-146.816"/>
</g>
<!-- Node18 -->
<g id="node18" class="node"><title>Node18</title>
<g id="a_node18"><a xlink:href="a00348.html" target="_top" xlink:title="hpp/fcl/math/transform.h">
<polygon fill="white" stroke="black" points="828.5,-298.5 828.5,-317.5 951.5,-317.5 951.5,-298.5 828.5,-298.5"/>
<text text-anchor="middle" x="890" y="-305.5" font-family="Helvetica,sans-Serif" font-size="10.00">hpp/fcl/math/transform.h</text>
</a>
</g>
</g>
<!-- Node1&#45;&gt;Node18 -->
<g id="edge17" class="edge"><title>Node1&#45;&gt;Node18</title>
<path fill="none" stroke="midnightblue" d="M546.045,-364.686C601,-357.178 716.706,-340.889 814,-324 822.007,-322.61 830.469,-321.04 838.725,-319.453"/>
<polygon fill="midnightblue" stroke="midnightblue" points="839.502,-322.868 848.648,-317.52 838.163,-315.997 839.502,-322.868"/>
</g>
<!-- Node9 -->
<g id="node9" class="node"><title>Node9</title>
<polygon fill="white" stroke="#bfbfbf" points="871,-56.5 871,-75.5 915,-75.5 915,-56.5 871,-56.5"/>
<text text-anchor="middle" x="893" y="-63.5" font-family="Helvetica,sans-Serif" font-size="10.00">cmath</text>
</g>
<!-- Node8&#45;&gt;Node9 -->
<g id="edge8" class="edge"><title>Node8&#45;&gt;Node9</title>
<path fill="none" stroke="midnightblue" d="M813.325,-118.403C828.38,-108.691 853.116,-92.7319 871.037,-81.1697"/>
<polygon fill="midnightblue" stroke="midnightblue" points="873.195,-83.9429 879.7,-75.5806 869.4,-78.0609 873.195,-83.9429"/>
</g>
<!-- Node10 -->
<g id="node10" class="node"><title>Node10</title>
<polygon fill="white" stroke="#bfbfbf" points="933,-56.5 933,-75.5 987,-75.5 987,-56.5 933,-56.5"/>
<text text-anchor="middle" x="960" y="-63.5" font-family="Helvetica,sans-Serif" font-size="10.00">iostream</text>
</g>
<!-- Node8&#45;&gt;Node10 -->
<g id="edge9" class="edge"><title>Node8&#45;&gt;Node10</title>
<path fill="none" stroke="midnightblue" d="M822.924,-118.403C850.37,-108.111 896.516,-90.8064 927.599,-79.1504"/>
<polygon fill="midnightblue" stroke="midnightblue" points="928.984,-82.369 937.118,-75.5806 926.526,-75.8147 928.984,-82.369"/>
</g>
<!-- Node11 -->
<g id="node11" class="node"><title>Node11</title>
<polygon fill="white" stroke="#bfbfbf" points="1005,-56.5 1005,-75.5 1045,-75.5 1045,-56.5 1005,-56.5"/>
<text text-anchor="middle" x="1025" y="-63.5" font-family="Helvetica,sans-Serif" font-size="10.00">limits</text>
</g>
<!-- Node8&#45;&gt;Node11 -->
<g id="edge10" class="edge"><title>Node8&#45;&gt;Node11</title>
<path fill="none" stroke="midnightblue" d="M834.829,-118.456C872.126,-109.192 933.26,-93.6807 994.866,-76.2309"/>
<polygon fill="midnightblue" stroke="midnightblue" points="996.096,-79.5201 1004.75,-73.4143 994.178,-72.7879 996.096,-79.5201"/>
</g>
<!-- Node12 -->
<g id="node12" class="node"><title>Node12</title>
<polygon fill="white" stroke="#bfbfbf" points="685,-56.5 685,-75.5 729,-75.5 729,-56.5 685,-56.5"/>
<text text-anchor="middle" x="707" y="-63.5" font-family="Helvetica,sans-Serif" font-size="10.00">vector</text>
</g>
<!-- Node8&#45;&gt;Node12 -->
<g id="edge11" class="edge"><title>Node8&#45;&gt;Node12</title>
<path fill="none" stroke="midnightblue" d="M786.675,-118.403C771.62,-108.691 746.884,-92.7319 728.963,-81.1697"/>
<polygon fill="midnightblue" stroke="midnightblue" points="730.6,-78.0609 720.3,-75.5806 726.805,-83.9429 730.6,-78.0609"/>
</g>
<!-- Node13 -->
<g id="node13" class="node"><title>Node13</title>
<polygon fill="white" stroke="#bfbfbf" points="516,-56.5 516,-75.5 600,-75.5 600,-56.5 516,-56.5"/>
<text text-anchor="middle" x="558" y="-63.5" font-family="Helvetica,sans-Serif" font-size="10.00">boost/array.hpp</text>
</g>
<!-- Node8&#45;&gt;Node13 -->
<g id="edge12" class="edge"><title>Node8&#45;&gt;Node13</title>
<path fill="none" stroke="midnightblue" d="M765.584,-118.467C722.67,-107.827 649.24,-89.6215 602.202,-77.9593"/>
<polygon fill="midnightblue" stroke="midnightblue" points="602.845,-74.5128 592.297,-75.5034 601.161,-81.3071 602.845,-74.5128"/>
</g>
<!-- Node14 -->
<g id="node14" class="node"><title>Node14</title>
<polygon fill="white" stroke="#bfbfbf" points="617.5,-56.5 617.5,-75.5 666.5,-75.5 666.5,-56.5 617.5,-56.5"/>
<text text-anchor="middle" x="642" y="-63.5" font-family="Helvetica,sans-Serif" font-size="10.00">cstdarg</text>
</g>
<!-- Node8&#45;&gt;Node14 -->
<g id="edge13" class="edge"><title>Node8&#45;&gt;Node14</title>
<path fill="none" stroke="midnightblue" d="M777.362,-118.403C750.26,-108.111 704.69,-90.8064 673.996,-79.1504"/>
<polygon fill="midnightblue" stroke="midnightblue" points="675.187,-75.8587 664.596,-75.5806 672.702,-82.4028 675.187,-75.8587"/>
</g>
<!-- Node15 -->
<g id="node15" class="node"><title>Node15</title>
<g id="a_node15"><a xlink:href="a00283.html" target="_top" xlink:title="hpp/fcl/data_types.h">
<polygon fill="white" stroke="black" points="747.5,-56.5 747.5,-75.5 852.5,-75.5 852.5,-56.5 747.5,-56.5"/>
<text text-anchor="middle" x="800" y="-63.5" font-family="Helvetica,sans-Serif" font-size="10.00">hpp/fcl/data_types.h</text>
</a>
</g>
</g>
<!-- Node8&#45;&gt;Node15 -->
<g id="edge14" class="edge"><title>Node8&#45;&gt;Node15</title>
<path fill="none" stroke="midnightblue" d="M800,-118.403C800,-109.938 800,-96.7283 800,-85.8199"/>
<polygon fill="midnightblue" stroke="midnightblue" points="803.5,-85.5806 800,-75.5806 796.5,-85.5806 803.5,-85.5806"/>
</g>
<!-- Node16 -->
<g id="node16" class="node"><title>Node16</title>
<polygon fill="white" stroke="#bfbfbf" points="730.5,-0.5 730.5,-19.5 779.5,-19.5 779.5,-0.5 730.5,-0.5"/>
<text text-anchor="middle" x="755" y="-7.5" font-family="Helvetica,sans-Serif" font-size="10.00">cstddef</text>
</g>
<!-- Node15&#45;&gt;Node16 -->
<g id="edge15" class="edge"><title>Node15&#45;&gt;Node16</title>
<path fill="none" stroke="midnightblue" d="M792.569,-56.083C786.147,-48.3768 776.694,-37.0333 768.878,-27.6531"/>
<polygon fill="midnightblue" stroke="midnightblue" points="771.383,-25.1927 762.293,-19.7511 766.006,-29.674 771.383,-25.1927"/>
</g>
<!-- Node17 -->
<g id="node17" class="node"><title>Node17</title>
<polygon fill="white" stroke="#bfbfbf" points="798,-0.5 798,-19.5 890,-19.5 890,-0.5 798,-0.5"/>
<text text-anchor="middle" x="844" y="-7.5" font-family="Helvetica,sans-Serif" font-size="10.00">boost/cstdint.hpp</text>
</g>
<!-- Node15&#45;&gt;Node17 -->
<g id="edge16" class="edge"><title>Node15&#45;&gt;Node17</title>
<path fill="none" stroke="midnightblue" d="M807.266,-56.083C813.545,-48.3768 822.788,-37.0333 830.431,-27.6531"/>
<polygon fill="midnightblue" stroke="midnightblue" points="833.266,-29.7143 836.869,-19.7511 827.839,-25.2926 833.266,-29.7143"/>
</g>
<!-- Node19 -->
<g id="node19" class="node"><title>Node19</title>
<g id="a_node19"><a xlink:href="a00319.html" target="_top" xlink:title="hpp/fcl/math/matrix_3f.h">
<polygon fill="white" stroke="black" points="966,-236.5 966,-255.5 1088,-255.5 1088,-236.5 966,-236.5"/>
<text text-anchor="middle" x="1027" y="-243.5" font-family="Helvetica,sans-Serif" font-size="10.00">hpp/fcl/math/matrix_3f.h</text>
</a>
</g>
</g>
<!-- Node18&#45;&gt;Node19 -->
<g id="edge18" class="edge"><title>Node18&#45;&gt;Node19</title>
<path fill="none" stroke="midnightblue" d="M909.629,-298.403C932.824,-288.245 971.619,-271.255 998.213,-259.607"/>
<polygon fill="midnightblue" stroke="midnightblue" points="999.652,-262.798 1007.41,-255.581 996.843,-256.386 999.652,-262.798"/>
</g>
<!-- Node27 -->
<g id="node27" class="node"><title>Node27</title>
<polygon fill="white" stroke="#bfbfbf" points="828.5,-236.5 828.5,-255.5 947.5,-255.5 947.5,-236.5 828.5,-236.5"/>
<text text-anchor="middle" x="888" y="-243.5" font-family="Helvetica,sans-Serif" font-size="10.00">boost/thread/mutex.hpp</text>
</g>
<!-- Node18&#45;&gt;Node27 -->
<g id="edge37" class="edge"><title>Node18&#45;&gt;Node27</title>
<path fill="none" stroke="midnightblue" d="M889.713,-298.403C889.431,-289.938 888.991,-276.728 888.627,-265.82"/>
<polygon fill="midnightblue" stroke="midnightblue" points="892.117,-265.458 888.286,-255.581 885.121,-265.692 892.117,-265.458"/>
</g>
<!-- Node20 -->
<g id="node20" class="node"><title>Node20</title>
<g id="a_node20"><a xlink:href="a00356.html" target="_top" xlink:title="hpp/fcl/math/vec_3f.h">
<polygon fill="white" stroke="black" points="970.5,-180.5 970.5,-199.5 1081.5,-199.5 1081.5,-180.5 970.5,-180.5"/>
<text text-anchor="middle" x="1026" y="-187.5" font-family="Helvetica,sans-Serif" font-size="10.00">hpp/fcl/math/vec_3f.h</text>
</a>
</g>
</g>
<!-- Node19&#45;&gt;Node20 -->
<g id="edge19" class="edge"><title>Node19&#45;&gt;Node20</title>
<path fill="none" stroke="midnightblue" d="M1026.83,-236.083C1026.7,-229.006 1026.52,-218.861 1026.35,-209.986"/>
<polygon fill="midnightblue" stroke="midnightblue" points="1029.85,-209.685 1026.16,-199.751 1022.85,-209.814 1029.85,-209.685"/>
</g>
<!-- Node20&#45;&gt;Node9 -->
<g id="edge34" class="edge"><title>Node20&#45;&gt;Node9</title>
<path fill="none" stroke="midnightblue" d="M1016.43,-180.226C994.1,-159.739 938.271,-108.527 909.99,-82.5844"/>
<polygon fill="midnightblue" stroke="midnightblue" points="912.214,-79.875 902.478,-75.6944 907.482,-85.0335 912.214,-79.875"/>
</g>
<!-- Node20&#45;&gt;Node10 -->
<g id="edge35" class="edge"><title>Node20&#45;&gt;Node10</title>
<path fill="none" stroke="midnightblue" d="M1021.25,-180.226C1010.46,-160.266 983.881,-111.144 969.542,-84.6378"/>
<polygon fill="midnightblue" stroke="midnightblue" points="972.54,-82.8245 964.704,-75.6944 966.383,-86.1553 972.54,-82.8245"/>
</g>
<!-- Node20&#45;&gt;Node11 -->
<g id="edge36" class="edge"><title>Node20&#45;&gt;Node11</title>
<path fill="none" stroke="midnightblue" d="M1025.93,-180.226C1025.77,-160.53 1025.37,-112.437 1025.15,-85.7004"/>
<polygon fill="midnightblue" stroke="midnightblue" points="1028.65,-85.6654 1025.07,-75.6944 1021.65,-85.7228 1028.65,-85.6654"/>
</g>
<!-- Node20&#45;&gt;Node15 -->
<g id="edge21" class="edge"><title>Node20&#45;&gt;Node15</title>
<path fill="none" stroke="midnightblue" d="M1008.92,-180.348C991.324,-171.39 963.136,-156.924 939,-144 898.535,-122.333 851.954,-96.3043 824.3,-80.7361"/>
<polygon fill="midnightblue" stroke="midnightblue" points="825.778,-77.5518 815.348,-75.6899 822.341,-83.6497 825.778,-77.5518"/>
</g>
<!-- Node21 -->
<g id="node21" class="node"><title>Node21</title>
<polygon fill="white" stroke="#bfbfbf" points="1197,-56.5 1197,-75.5 1299,-75.5 1299,-56.5 1197,-56.5"/>
<text text-anchor="middle" x="1248" y="-63.5" font-family="Helvetica,sans-Serif" font-size="10.00">hpp/fcl/config&#45;fcl.hh</text>
</g>
<!-- Node20&#45;&gt;Node21 -->
<g id="edge20" class="edge"><title>Node20&#45;&gt;Node21</title>
<path fill="none" stroke="midnightblue" d="M1081.52,-180.607C1112.3,-174.1 1150.26,-162.891 1180,-144 1204.39,-128.51 1225.14,-101.79 1237.09,-84.2556"/>
<polygon fill="midnightblue" stroke="midnightblue" points="1240.22,-85.8669 1242.79,-75.5891 1234.37,-82.0196 1240.22,-85.8669"/>
</g>
<!-- Node22 -->
<g id="node22" class="node"><title>Node22</title>
<g id="a_node22"><a xlink:href="a00316.html" target="_top" xlink:title="hpp/fcl/eigen/math\l_details.h">
<polygon fill="white" stroke="black" points="1312.5,-113 1312.5,-143 1409.5,-143 1409.5,-113 1312.5,-113"/>
<text text-anchor="start" x="1320.5" y="-131" font-family="Helvetica,sans-Serif" font-size="10.00">hpp/fcl/eigen/math</text>
<text text-anchor="middle" x="1361" y="-120" font-family="Helvetica,sans-Serif" font-size="10.00">_details.h</text>
</a>
</g>
</g>
<!-- Node20&#45;&gt;Node22 -->
<g id="edge22" class="edge"><title>Node20&#45;&gt;Node22</title>
<path fill="none" stroke="midnightblue" d="M1073.64,-180.467C1133.83,-169.688 1237.37,-151.143 1302.35,-139.505"/>
<polygon fill="midnightblue" stroke="midnightblue" points="1303.21,-142.906 1312.44,-137.698 1301.98,-136.016 1303.21,-142.906"/>
</g>
<!-- Node25 -->
<g id="node25" class="node"><title>Node25</title>
<g id="a_node25"><a xlink:href="a00357.html" target="_top" xlink:title="hpp/fcl/eigen/vec_3fx.h">
<polygon fill="white" stroke="black" points="1053,-118.5 1053,-137.5 1171,-137.5 1171,-118.5 1053,-118.5"/>
<text text-anchor="middle" x="1112" y="-125.5" font-family="Helvetica,sans-Serif" font-size="10.00">hpp/fcl/eigen/vec_3fx.h</text>
</a>
</g>
</g>
<!-- Node20&#45;&gt;Node25 -->
<g id="edge25" class="edge"><title>Node20&#45;&gt;Node25</title>
<path fill="none" stroke="midnightblue" d="M1038.32,-180.403C1052.12,-170.78 1074.7,-155.024 1091.23,-143.489"/>
<polygon fill="midnightblue" stroke="midnightblue" points="1093.5,-146.173 1099.7,-137.581 1089.5,-140.432 1093.5,-146.173"/>
</g>
<!-- Node23 -->
<g id="node23" class="node"><title>Node23</title>
<polygon fill="white" stroke="#bfbfbf" points="1422.5,-56.5 1422.5,-75.5 1495.5,-75.5 1495.5,-56.5 1422.5,-56.5"/>
<text text-anchor="middle" x="1459" y="-63.5" font-family="Helvetica,sans-Serif" font-size="10.00">Eigen/Dense</text>
</g>
<!-- Node22&#45;&gt;Node23 -->
<g id="edge23" class="edge"><title>Node22&#45;&gt;Node23</title>
<path fill="none" stroke="midnightblue" d="M1384.22,-112.781C1400.03,-103.105 1420.83,-90.3684 1436.48,-80.7861"/>
<polygon fill="midnightblue" stroke="midnightblue" points="1438.32,-83.7623 1445.03,-75.5557 1434.67,-77.7923 1438.32,-83.7623"/>
</g>
<!-- Node24 -->
<g id="node24" class="node"><title>Node24</title>
<polygon fill="white" stroke="#bfbfbf" points="1317.5,-56.5 1317.5,-75.5 1404.5,-75.5 1404.5,-56.5 1317.5,-56.5"/>
<text text-anchor="middle" x="1361" y="-63.5" font-family="Helvetica,sans-Serif" font-size="10.00">Eigen/Geometry</text>
</g>
<!-- Node22&#45;&gt;Node24 -->
<g id="edge24" class="edge"><title>Node22&#45;&gt;Node24</title>
<path fill="none" stroke="midnightblue" d="M1361,-112.781C1361,-104.781 1361,-94.6887 1361,-86.0168"/>
<polygon fill="midnightblue" stroke="midnightblue" points="1364.5,-85.7305 1361,-75.7305 1357.5,-85.7306 1364.5,-85.7305"/>
</g>
<!-- Node25&#45;&gt;Node9 -->
<g id="edge30" class="edge"><title>Node25&#45;&gt;Node9</title>
<path fill="none" stroke="midnightblue" d="M1079.68,-118.419C1044.09,-108.928 984.934,-93.0319 924.678,-76.1557"/>
<polygon fill="midnightblue" stroke="midnightblue" points="925.576,-72.7723 915.002,-73.4396 923.684,-79.5118 925.576,-72.7723"/>
</g>
<!-- Node25&#45;&gt;Node10 -->
<g id="edge31" class="edge"><title>Node25&#45;&gt;Node10</title>
<path fill="none" stroke="midnightblue" d="M1090.22,-118.403C1064.26,-108.156 1020.69,-90.9561 991.165,-79.3021"/>
<polygon fill="midnightblue" stroke="midnightblue" points="992.324,-75.9968 981.737,-75.5806 989.754,-82.5079 992.324,-75.9968"/>
</g>
<!-- Node25&#45;&gt;Node11 -->
<g id="edge32" class="edge"><title>Node25&#45;&gt;Node11</title>
<path fill="none" stroke="midnightblue" d="M1099.54,-118.403C1085.58,-108.78 1062.74,-93.0242 1046.01,-81.4891"/>
<polygon fill="midnightblue" stroke="midnightblue" points="1047.66,-78.3767 1037.44,-75.5806 1043.69,-84.1392 1047.66,-78.3767"/>
</g>
<!-- Node25&#45;&gt;Node15 -->
<g id="edge27" class="edge"><title>Node25&#45;&gt;Node15</title>
<path fill="none" stroke="midnightblue" d="M1067.63,-118.467C1011.49,-107.671 914.845,-89.0856 854.341,-77.4501"/>
<polygon fill="midnightblue" stroke="midnightblue" points="854.699,-73.9549 844.218,-75.5034 853.377,-80.829 854.699,-73.9549"/>
</g>
<!-- Node25&#45;&gt;Node21 -->
<g id="edge26" class="edge"><title>Node25&#45;&gt;Node21</title>
<path fill="none" stroke="midnightblue" d="M1131.49,-118.403C1154.41,-108.29 1192.69,-91.4036 1219.08,-79.761"/>
<polygon fill="midnightblue" stroke="midnightblue" points="1220.81,-82.8193 1228.55,-75.5806 1217.99,-76.4148 1220.81,-82.8193"/>
</g>
<!-- Node25&#45;&gt;Node23 -->
<g id="edge28" class="edge"><title>Node25&#45;&gt;Node23</title>
<path fill="none" stroke="midnightblue" d="M1164.81,-118.468C1222.92,-108.988 1319.32,-92.9855 1412.48,-76.0567"/>
<polygon fill="midnightblue" stroke="midnightblue" points="1413.15,-79.4928 1422.36,-74.2561 1411.89,-72.6063 1413.15,-79.4928"/>
</g>
<!-- Node25&#45;&gt;Node24 -->
<g id="edge29" class="edge"><title>Node25&#45;&gt;Node24</title>
<path fill="none" stroke="midnightblue" d="M1147.41,-118.467C1191.66,-107.805 1267.44,-89.5452 1315.82,-77.886"/>
<polygon fill="midnightblue" stroke="midnightblue" points="1316.81,-81.2487 1325.71,-75.5034 1315.17,-74.4434 1316.81,-81.2487"/>
</g>
<!-- Node26 -->
<g id="node26" class="node"><title>Node26</title>
<g id="a_node26"><a xlink:href="a00336.html" target="_top" xlink:title="hpp/fcl/eigen/product.h">
<polygon fill="white" stroke="black" points="1063,-56.5 1063,-75.5 1179,-75.5 1179,-56.5 1063,-56.5"/>
<text text-anchor="middle" x="1121" y="-63.5" font-family="Helvetica,sans-Serif" font-size="10.00">hpp/fcl/eigen/product.h</text>
</a>
</g>
</g>
<!-- Node25&#45;&gt;Node26 -->
<g id="edge33" class="edge"><title>Node25&#45;&gt;Node26</title>
<path fill="none" stroke="midnightblue" d="M1113.29,-118.403C1114.57,-109.849 1116.58,-96.4497 1118.23,-85.4762"/>
<polygon fill="midnightblue" stroke="midnightblue" points="1121.69,-85.9892 1119.71,-75.5806 1114.77,-84.9507 1121.69,-85.9892"/>
</g>
</g>
</svg>
