<?xml version="1.0" encoding="UTF-8" standalone="no"?>
<!DOCTYPE svg PUBLIC "-//W3C//DTD SVG 1.1//EN"
 "http://www.w3.org/Graphics/SVG/1.1/DTD/svg11.dtd">
<!-- Generated by graphviz version 2.36.0 (20140111.2315)
 -->
<!-- Title: taylor_vector.h Pages: 1 -->
<svg width="816pt" height="400pt"
 viewBox="0.00 0.00 816.00 400.00" xmlns="http://www.w3.org/2000/svg" xmlns:xlink="http://www.w3.org/1999/xlink">
<g id="graph0" class="graph" transform="scale(1 1) rotate(0) translate(4 396)">
<title>taylor_vector.h</title>
<polygon fill="white" stroke="none" points="-4,4 -4,-396 812,-396 812,4 -4,4"/>
<!-- Node1 -->
<g id="node1" class="node"><title>Node1</title>
<polygon fill="#bfbfbf" stroke="black" points="245.5,-372.5 245.5,-391.5 326.5,-391.5 326.5,-372.5 245.5,-372.5"/>
<text text-anchor="middle" x="286" y="-379.5" font-family="Helvetica,sans-Serif" font-size="10.00">taylor_vector.h</text>
</g>
<!-- Node2 -->
<g id="node2" class="node"><title>Node2</title>
<g id="a_node2"><a xlink:href="a00309.html" target="_top" xlink:title="hpp/fcl/ccd/interval\l_vector.h">
<polygon fill="white" stroke="black" points="236.5,-305 236.5,-335 335.5,-335 335.5,-305 236.5,-305"/>
<text text-anchor="start" x="244.5" y="-323" font-family="Helvetica,sans-Serif" font-size="10.00">hpp/fcl/ccd/interval</text>
<text text-anchor="middle" x="286" y="-312" font-family="Helvetica,sans-Serif" font-size="10.00">_vector.h</text>
</a>
</g>
</g>
<!-- Node1&#45;&gt;Node2 -->
<g id="edge1" class="edge"><title>Node1&#45;&gt;Node2</title>
<path fill="none" stroke="midnightblue" d="M286,-372.403C286,-365.341 286,-354.975 286,-345.399"/>
<polygon fill="midnightblue" stroke="midnightblue" points="289.5,-345.141 286,-335.141 282.5,-345.141 289.5,-345.141"/>
</g>
<!-- Node18 -->
<g id="node18" class="node"><title>Node18</title>
<g id="a_node18"><a xlink:href="a00344.html" target="_top" xlink:title="hpp/fcl/ccd/taylor\l_model.h">
<polygon fill="white" stroke="black" points="126,-305 126,-335 218,-335 218,-305 126,-305"/>
<text text-anchor="start" x="134" y="-323" font-family="Helvetica,sans-Serif" font-size="10.00">hpp/fcl/ccd/taylor</text>
<text text-anchor="middle" x="172" y="-312" font-family="Helvetica,sans-Serif" font-size="10.00">_model.h</text>
</a>
</g>
</g>
<!-- Node1&#45;&gt;Node18 -->
<g id="edge25" class="edge"><title>Node1&#45;&gt;Node18</title>
<path fill="none" stroke="midnightblue" d="M269.667,-372.403C253.578,-363.936 228.469,-350.72 207.739,-339.81"/>
<polygon fill="midnightblue" stroke="midnightblue" points="209.347,-336.701 198.868,-335.141 206.087,-342.896 209.347,-336.701"/>
</g>
<!-- Node20 -->
<g id="node20" class="node"><title>Node20</title>
<g id="a_node20"><a xlink:href="a00345.html" target="_top" xlink:title="hpp/fcl/eigen/taylor\l_operator.h">
<polygon fill="white" stroke="black" points="384.5,-305 384.5,-335 483.5,-335 483.5,-305 384.5,-305"/>
<text text-anchor="start" x="392.5" y="-323" font-family="Helvetica,sans-Serif" font-size="10.00">hpp/fcl/eigen/taylor</text>
<text text-anchor="middle" x="434" y="-312" font-family="Helvetica,sans-Serif" font-size="10.00">_operator.h</text>
</a>
</g>
</g>
<!-- Node1&#45;&gt;Node20 -->
<g id="edge28" class="edge"><title>Node1&#45;&gt;Node20</title>
<path fill="none" stroke="midnightblue" d="M307.205,-372.403C328.726,-363.679 362.678,-349.914 390.034,-338.824"/>
<polygon fill="midnightblue" stroke="midnightblue" points="391.452,-342.026 399.404,-335.025 388.822,-335.539 391.452,-342.026"/>
</g>
<!-- Node3 -->
<g id="node3" class="node"><title>Node3</title>
<g id="a_node3"><a xlink:href="a00306.html" target="_top" xlink:title="hpp/fcl/ccd/interval.h">
<polygon fill="white" stroke="black" points="126.5,-242.5 126.5,-261.5 233.5,-261.5 233.5,-242.5 126.5,-242.5"/>
<text text-anchor="middle" x="180" y="-249.5" font-family="Helvetica,sans-Serif" font-size="10.00">hpp/fcl/ccd/interval.h</text>
</a>
</g>
</g>
<!-- Node2&#45;&gt;Node3 -->
<g id="edge2" class="edge"><title>Node2&#45;&gt;Node3</title>
<path fill="none" stroke="midnightblue" d="M263.26,-304.841C245.337,-293.681 220.469,-278.198 202.585,-267.063"/>
<polygon fill="midnightblue" stroke="midnightblue" points="204.283,-263.996 193.944,-261.682 200.583,-269.939 204.283,-263.996"/>
</g>
<!-- Node7 -->
<g id="node7" class="node"><title>Node7</title>
<g id="a_node7"><a xlink:href="a00356.html" target="_top" xlink:title="hpp/fcl/math/vec_3f.h">
<polygon fill="white" stroke="black" points="393.5,-180.5 393.5,-199.5 504.5,-199.5 504.5,-180.5 393.5,-180.5"/>
<text text-anchor="middle" x="449" y="-187.5" font-family="Helvetica,sans-Serif" font-size="10.00">hpp/fcl/math/vec_3f.h</text>
</a>
</g>
</g>
<!-- Node2&#45;&gt;Node7 -->
<g id="edge6" class="edge"><title>Node2&#45;&gt;Node7</title>
<path fill="none" stroke="midnightblue" d="M281.953,-304.978C277.679,-286.978 273.491,-255.722 289,-236 300.994,-220.748 344.54,-209.102 383.179,-201.483"/>
<polygon fill="midnightblue" stroke="midnightblue" points="384.226,-204.846 393.394,-199.537 382.916,-197.97 384.226,-204.846"/>
</g>
<!-- Node17 -->
<g id="node17" class="node"><title>Node17</title>
<g id="a_node17"><a xlink:href="a00305.html" target="_top" xlink:title="hpp/fcl/eigen/plugins\l/ccd/interval&#45;vector.h">
<polygon fill="white" stroke="black" points="298,-237 298,-267 406,-267 406,-237 298,-237"/>
<text text-anchor="start" x="306" y="-255" font-family="Helvetica,sans-Serif" font-size="10.00">hpp/fcl/eigen/plugins</text>
<text text-anchor="middle" x="352" y="-244" font-family="Helvetica,sans-Serif" font-size="10.00">/ccd/interval&#45;vector.h</text>
</a>
</g>
</g>
<!-- Node2&#45;&gt;Node17 -->
<g id="edge24" class="edge"><title>Node2&#45;&gt;Node17</title>
<path fill="none" stroke="midnightblue" d="M300.321,-304.679C309.143,-295.857 320.62,-284.38 330.517,-274.483"/>
<polygon fill="midnightblue" stroke="midnightblue" points="333.111,-276.839 337.707,-267.293 328.161,-271.889 333.111,-276.839"/>
</g>
<!-- Node4 -->
<g id="node4" class="node"><title>Node4</title>
<g id="a_node4"><a xlink:href="a00283.html" target="_top" xlink:title="hpp/fcl/data_types.h">
<polygon fill="white" stroke="black" points="59.5,-56.5 59.5,-75.5 164.5,-75.5 164.5,-56.5 59.5,-56.5"/>
<text text-anchor="middle" x="112" y="-63.5" font-family="Helvetica,sans-Serif" font-size="10.00">hpp/fcl/data_types.h</text>
</a>
</g>
</g>
<!-- Node3&#45;&gt;Node4 -->
<g id="edge3" class="edge"><title>Node3&#45;&gt;Node4</title>
<path fill="none" stroke="midnightblue" d="M176.72,-242.125C166.196,-213.647 133.127,-124.166 118.767,-85.3099"/>
<polygon fill="midnightblue" stroke="midnightblue" points="121.996,-83.9523 115.247,-75.7857 115.43,-86.3789 121.996,-83.9523"/>
</g>
<!-- Node5 -->
<g id="node5" class="node"><title>Node5</title>
<polygon fill="white" stroke="#bfbfbf" points="43.5,-0.5 43.5,-19.5 92.5,-19.5 92.5,-0.5 43.5,-0.5"/>
<text text-anchor="middle" x="68" y="-7.5" font-family="Helvetica,sans-Serif" font-size="10.00">cstddef</text>
</g>
<!-- Node4&#45;&gt;Node5 -->
<g id="edge4" class="edge"><title>Node4&#45;&gt;Node5</title>
<path fill="none" stroke="midnightblue" d="M104.734,-56.083C98.4552,-48.3768 89.2124,-37.0333 81.5692,-27.6531"/>
<polygon fill="midnightblue" stroke="midnightblue" points="84.1606,-25.2926 75.1305,-19.7511 78.7339,-29.7143 84.1606,-25.2926"/>
</g>
<!-- Node6 -->
<g id="node6" class="node"><title>Node6</title>
<polygon fill="white" stroke="#bfbfbf" points="111,-0.5 111,-19.5 203,-19.5 203,-0.5 111,-0.5"/>
<text text-anchor="middle" x="157" y="-7.5" font-family="Helvetica,sans-Serif" font-size="10.00">boost/cstdint.hpp</text>
</g>
<!-- Node4&#45;&gt;Node6 -->
<g id="edge5" class="edge"><title>Node4&#45;&gt;Node6</title>
<path fill="none" stroke="midnightblue" d="M119.431,-56.083C125.853,-48.3768 135.306,-37.0333 143.122,-27.6531"/>
<polygon fill="midnightblue" stroke="midnightblue" points="145.994,-29.674 149.707,-19.7511 140.617,-25.1927 145.994,-29.674"/>
</g>
<!-- Node7&#45;&gt;Node4 -->
<g id="edge8" class="edge"><title>Node7&#45;&gt;Node4</title>
<path fill="none" stroke="midnightblue" d="M401.89,-180.424C364.414,-172.889 310.986,-160.543 266,-144 217.648,-126.219 164.601,-97.4801 135.096,-80.5965"/>
<polygon fill="midnightblue" stroke="midnightblue" points="136.789,-77.5326 126.379,-75.5603 133.287,-83.5937 136.789,-77.5326"/>
</g>
<!-- Node8 -->
<g id="node8" class="node"><title>Node8</title>
<polygon fill="white" stroke="#bfbfbf" points="183,-56.5 183,-75.5 285,-75.5 285,-56.5 183,-56.5"/>
<text text-anchor="middle" x="234" y="-63.5" font-family="Helvetica,sans-Serif" font-size="10.00">hpp/fcl/config&#45;fcl.hh</text>
</g>
<!-- Node7&#45;&gt;Node8 -->
<g id="edge7" class="edge"><title>Node7&#45;&gt;Node8</title>
<path fill="none" stroke="midnightblue" d="M401.313,-180.438C372.183,-173.697 335.073,-162.304 306,-144 280.91,-128.203 258.742,-101.564 245.845,-84.1314"/>
<polygon fill="midnightblue" stroke="midnightblue" points="248.344,-81.6103 239.674,-75.5208 242.655,-85.6879 248.344,-81.6103"/>
</g>
<!-- Node9 -->
<g id="node9" class="node"><title>Node9</title>
<g id="a_node9"><a xlink:href="a00316.html" target="_top" xlink:title="hpp/fcl/eigen/math\l_details.h">
<polygon fill="white" stroke="black" points="314.5,-113 314.5,-143 411.5,-143 411.5,-113 314.5,-113"/>
<text text-anchor="start" x="322.5" y="-131" font-family="Helvetica,sans-Serif" font-size="10.00">hpp/fcl/eigen/math</text>
<text text-anchor="middle" x="363" y="-120" font-family="Helvetica,sans-Serif" font-size="10.00">_details.h</text>
</a>
</g>
</g>
<!-- Node7&#45;&gt;Node9 -->
<g id="edge9" class="edge"><title>Node7&#45;&gt;Node9</title>
<path fill="none" stroke="midnightblue" d="M436.678,-180.403C425.031,-172.277 407.117,-159.779 391.87,-149.142"/>
<polygon fill="midnightblue" stroke="midnightblue" points="393.472,-145.992 383.268,-143.141 389.467,-151.733 393.472,-145.992"/>
</g>
<!-- Node12 -->
<g id="node12" class="node"><title>Node12</title>
<g id="a_node12"><a xlink:href="a00357.html" target="_top" xlink:title="hpp/fcl/eigen/vec_3fx.h">
<polygon fill="white" stroke="black" points="430,-118.5 430,-137.5 548,-137.5 548,-118.5 430,-118.5"/>
<text text-anchor="middle" x="489" y="-125.5" font-family="Helvetica,sans-Serif" font-size="10.00">hpp/fcl/eigen/vec_3fx.h</text>
</a>
</g>
</g>
<!-- Node7&#45;&gt;Node12 -->
<g id="edge12" class="edge"><title>Node7&#45;&gt;Node12</title>
<path fill="none" stroke="midnightblue" d="M454.731,-180.403C460.672,-171.493 470.117,-157.325 477.588,-146.118"/>
<polygon fill="midnightblue" stroke="midnightblue" points="480.645,-147.843 483.28,-137.581 474.82,-143.96 480.645,-147.843"/>
</g>
<!-- Node13 -->
<g id="node13" class="node"><title>Node13</title>
<polygon fill="white" stroke="#bfbfbf" points="634,-56.5 634,-75.5 678,-75.5 678,-56.5 634,-56.5"/>
<text text-anchor="middle" x="656" y="-63.5" font-family="Helvetica,sans-Serif" font-size="10.00">cmath</text>
</g>
<!-- Node7&#45;&gt;Node13 -->
<g id="edge21" class="edge"><title>Node7&#45;&gt;Node13</title>
<path fill="none" stroke="midnightblue" d="M474.785,-180.454C497.255,-172.501 530.328,-159.553 557,-144 588.132,-125.846 620.389,-98.9814 639.305,-82.2569"/>
<polygon fill="midnightblue" stroke="midnightblue" points="641.667,-84.8397 646.779,-75.5594 636.995,-79.6265 641.667,-84.8397"/>
</g>
<!-- Node14 -->
<g id="node14" class="node"><title>Node14</title>
<polygon fill="white" stroke="#bfbfbf" points="696,-56.5 696,-75.5 750,-75.5 750,-56.5 696,-56.5"/>
<text text-anchor="middle" x="723" y="-63.5" font-family="Helvetica,sans-Serif" font-size="10.00">iostream</text>
</g>
<!-- Node7&#45;&gt;Node14 -->
<g id="edge22" class="edge"><title>Node7&#45;&gt;Node14</title>
<path fill="none" stroke="midnightblue" d="M484.72,-180.449C514.606,-172.702 558.012,-160.051 594,-144 634.308,-126.022 677.693,-98.1674 702.475,-81.3484"/>
<polygon fill="midnightblue" stroke="midnightblue" points="704.457,-84.2331 710.723,-75.6899 700.497,-78.4608 704.457,-84.2331"/>
</g>
<!-- Node15 -->
<g id="node15" class="node"><title>Node15</title>
<polygon fill="white" stroke="#bfbfbf" points="768,-56.5 768,-75.5 808,-75.5 808,-56.5 768,-56.5"/>
<text text-anchor="middle" x="788" y="-63.5" font-family="Helvetica,sans-Serif" font-size="10.00">limits</text>
</g>
<!-- Node7&#45;&gt;Node15 -->
<g id="edge23" class="edge"><title>Node7&#45;&gt;Node15</title>
<path fill="none" stroke="midnightblue" d="M498.632,-180.451C537.092,-173.036 591.342,-160.835 637,-144 684.379,-126.53 736.088,-97.8831 765.034,-80.8928"/>
<polygon fill="midnightblue" stroke="midnightblue" points="767.123,-83.7228 773.938,-75.6107 763.552,-77.7024 767.123,-83.7228"/>
</g>
<!-- Node10 -->
<g id="node10" class="node"><title>Node10</title>
<polygon fill="white" stroke="#bfbfbf" points="408.5,-56.5 408.5,-75.5 481.5,-75.5 481.5,-56.5 408.5,-56.5"/>
<text text-anchor="middle" x="445" y="-63.5" font-family="Helvetica,sans-Serif" font-size="10.00">Eigen/Dense</text>
</g>
<!-- Node9&#45;&gt;Node10 -->
<g id="edge10" class="edge"><title>Node9&#45;&gt;Node10</title>
<path fill="none" stroke="midnightblue" d="M382.433,-112.781C395.208,-103.433 411.889,-91.2273 424.814,-81.77"/>
<polygon fill="midnightblue" stroke="midnightblue" points="427.065,-84.4603 433.068,-75.7305 422.931,-78.8111 427.065,-84.4603"/>
</g>
<!-- Node11 -->
<g id="node11" class="node"><title>Node11</title>
<polygon fill="white" stroke="#bfbfbf" points="303.5,-56.5 303.5,-75.5 390.5,-75.5 390.5,-56.5 303.5,-56.5"/>
<text text-anchor="middle" x="347" y="-63.5" font-family="Helvetica,sans-Serif" font-size="10.00">Eigen/Geometry</text>
</g>
<!-- Node9&#45;&gt;Node11 -->
<g id="edge11" class="edge"><title>Node9&#45;&gt;Node11</title>
<path fill="none" stroke="midnightblue" d="M359.208,-112.781C357.027,-104.601 354.262,-94.2341 351.916,-85.4344"/>
<polygon fill="midnightblue" stroke="midnightblue" points="355.287,-84.491 349.328,-75.7305 348.523,-86.2947 355.287,-84.491"/>
</g>
<!-- Node12&#45;&gt;Node4 -->
<g id="edge14" class="edge"><title>Node12&#45;&gt;Node4</title>
<path fill="none" stroke="midnightblue" d="M451.852,-118.432C441.564,-116.194 430.373,-113.883 420,-112 413.992,-110.909 262.872,-88.9179 174.587,-76.0891"/>
<polygon fill="midnightblue" stroke="midnightblue" points="175.071,-72.6227 164.672,-74.6484 174.064,-79.55 175.071,-72.6227"/>
</g>
<!-- Node12&#45;&gt;Node8 -->
<g id="edge13" class="edge"><title>Node12&#45;&gt;Node8</title>
<path fill="none" stroke="midnightblue" d="M452.736,-118.467C407.326,-107.783 329.492,-89.4687 279.955,-77.8129"/>
<polygon fill="midnightblue" stroke="midnightblue" points="280.675,-74.3869 270.139,-75.5034 279.072,-81.2008 280.675,-74.3869"/>
</g>
<!-- Node12&#45;&gt;Node10 -->
<g id="edge15" class="edge"><title>Node12&#45;&gt;Node10</title>
<path fill="none" stroke="midnightblue" d="M482.696,-118.403C476.096,-109.403 465.563,-95.0408 457.307,-83.7824"/>
<polygon fill="midnightblue" stroke="midnightblue" points="460.029,-81.5749 451.292,-75.5806 454.384,-85.7144 460.029,-81.5749"/>
</g>
<!-- Node12&#45;&gt;Node11 -->
<g id="edge16" class="edge"><title>Node12&#45;&gt;Node11</title>
<path fill="none" stroke="midnightblue" d="M468.655,-118.403C444.613,-108.245 404.403,-91.2547 376.837,-79.6074"/>
<polygon fill="midnightblue" stroke="midnightblue" points="377.881,-76.2488 367.307,-75.5806 375.157,-82.6968 377.881,-76.2488"/>
</g>
<!-- Node12&#45;&gt;Node13 -->
<g id="edge17" class="edge"><title>Node12&#45;&gt;Node13</title>
<path fill="none" stroke="midnightblue" d="M512.927,-118.403C542.27,-107.861 592.091,-89.9611 624.518,-78.3109"/>
<polygon fill="midnightblue" stroke="midnightblue" points="625.754,-81.5861 633.981,-74.911 623.387,-74.9984 625.754,-81.5861"/>
</g>
<!-- Node12&#45;&gt;Node14 -->
<g id="edge18" class="edge"><title>Node12&#45;&gt;Node14</title>
<path fill="none" stroke="midnightblue" d="M522.526,-118.403C565.788,-107.311 640.821,-88.0715 685.799,-76.5387"/>
<polygon fill="midnightblue" stroke="midnightblue" points="686.916,-79.8656 695.733,-73.9914 685.177,-73.0849 686.916,-79.8656"/>
</g>
<!-- Node12&#45;&gt;Node15 -->
<g id="edge19" class="edge"><title>Node12&#45;&gt;Node15</title>
<path fill="none" stroke="midnightblue" d="M544.213,-118.469C596.816,-109.915 678.365,-95.5492 757.644,-76.1132"/>
<polygon fill="midnightblue" stroke="midnightblue" points="758.939,-79.3979 767.802,-73.5916 757.253,-72.6041 758.939,-79.3979"/>
</g>
<!-- Node16 -->
<g id="node16" class="node"><title>Node16</title>
<g id="a_node16"><a xlink:href="a00336.html" target="_top" xlink:title="hpp/fcl/eigen/product.h">
<polygon fill="white" stroke="black" points="500,-56.5 500,-75.5 616,-75.5 616,-56.5 500,-56.5"/>
<text text-anchor="middle" x="558" y="-63.5" font-family="Helvetica,sans-Serif" font-size="10.00">hpp/fcl/eigen/product.h</text>
</a>
</g>
</g>
<!-- Node12&#45;&gt;Node16 -->
<g id="edge20" class="edge"><title>Node12&#45;&gt;Node16</title>
<path fill="none" stroke="midnightblue" d="M498.886,-118.403C509.646,-109.047 527.071,-93.8948 540.221,-82.4599"/>
<polygon fill="midnightblue" stroke="midnightblue" points="542.883,-84.7835 548.132,-75.5806 538.29,-79.5013 542.883,-84.7835"/>
</g>
<!-- Node18&#45;&gt;Node3 -->
<g id="edge26" class="edge"><title>Node18&#45;&gt;Node3</title>
<path fill="none" stroke="midnightblue" d="M173.736,-304.679C174.897,-295.101 176.437,-282.394 177.7,-271.977"/>
<polygon fill="midnightblue" stroke="midnightblue" points="181.201,-272.177 178.93,-261.828 174.252,-271.334 181.201,-272.177"/>
</g>
<!-- Node19 -->
<g id="node19" class="node"><title>Node19</title>
<polygon fill="white" stroke="#bfbfbf" points="0,-242.5 0,-261.5 108,-261.5 108,-242.5 0,-242.5"/>
<text text-anchor="middle" x="54" y="-249.5" font-family="Helvetica,sans-Serif" font-size="10.00">boost/shared_ptr.hpp</text>
</g>
<!-- Node18&#45;&gt;Node19 -->
<g id="edge27" class="edge"><title>Node18&#45;&gt;Node19</title>
<path fill="none" stroke="midnightblue" d="M146.686,-304.841C126.459,-293.528 98.2871,-277.771 78.3247,-266.605"/>
<polygon fill="midnightblue" stroke="midnightblue" points="79.9583,-263.509 69.5222,-261.682 76.5412,-269.618 79.9583,-263.509"/>
</g>
<!-- Node20&#45;&gt;Node7 -->
<g id="edge29" class="edge"><title>Node20&#45;&gt;Node7</title>
<path fill="none" stroke="midnightblue" d="M435.663,-304.813C438.387,-281.566 443.8,-235.371 446.826,-209.556"/>
<polygon fill="midnightblue" stroke="midnightblue" points="450.307,-209.913 447.995,-199.574 443.355,-209.098 450.307,-209.913"/>
</g>
<!-- Node21 -->
<g id="node21" class="node"><title>Node21</title>
<g id="a_node21"><a xlink:href="a00319.html" target="_top" xlink:title="hpp/fcl/math/matrix_3f.h">
<polygon fill="white" stroke="black" points="462,-242.5 462,-261.5 584,-261.5 584,-242.5 462,-242.5"/>
<text text-anchor="middle" x="523" y="-249.5" font-family="Helvetica,sans-Serif" font-size="10.00">hpp/fcl/math/matrix_3f.h</text>
</a>
</g>
</g>
<!-- Node20&#45;&gt;Node21 -->
<g id="edge30" class="edge"><title>Node20&#45;&gt;Node21</title>
<path fill="none" stroke="midnightblue" d="M453.312,-304.679C468.099,-293.713 488.418,-278.645 503.301,-267.609"/>
<polygon fill="midnightblue" stroke="midnightblue" points="505.404,-270.406 511.352,-261.638 501.235,-264.783 505.404,-270.406"/>
</g>
<!-- Node21&#45;&gt;Node7 -->
<g id="edge31" class="edge"><title>Node21&#45;&gt;Node7</title>
<path fill="none" stroke="midnightblue" d="M512.398,-242.403C500.748,-232.958 481.814,-217.606 467.665,-206.134"/>
<polygon fill="midnightblue" stroke="midnightblue" points="469.555,-203.16 459.583,-199.581 465.146,-208.597 469.555,-203.16"/>
</g>
</g>
</svg>
