<?xml version="1.0" encoding="UTF-8" standalone="no"?>
<!DOCTYPE svg PUBLIC "-//W3C//DTD SVG 1.1//EN"
 "http://www.w3.org/Graphics/SVG/1.1/DTD/svg11.dtd">
<!-- Generated by graphviz version 2.36.0 (20140111.2315)
 -->
<!-- Title: fcl::BroadPhaseCollisionManager Pages: 1 -->
<svg width="144pt" height="130pt"
 viewBox="0.00 0.00 144.00 130.00" xmlns="http://www.w3.org/2000/svg" xmlns:xlink="http://www.w3.org/1999/xlink">
<g id="graph0" class="graph" transform="scale(1 1) rotate(0) translate(4 126)">
<title>fcl::BroadPhaseCollisionManager</title>
<polygon fill="white" stroke="none" points="-4,4 -4,-126 140,-126 140,4 -4,4"/>
<!-- Node1 -->
<g id="node1" class="node"><title>Node1</title>
<polygon fill="#bfbfbf" stroke="black" points="6,-1 6,-31 130,-31 130,-1 6,-1"/>
<text text-anchor="start" x="14" y="-19" font-family="Helvetica,sans-Serif" font-size="10.00">fcl::BroadPhaseCollision</text>
<text text-anchor="middle" x="68" y="-8" font-family="Helvetica,sans-Serif" font-size="10.00">Manager</text>
</g>
<!-- Node2 -->
<g id="node2" class="node"><title>Node2</title>
<polygon fill="white" stroke="#bfbfbf" points="-0.5,-80.5 -0.5,-121.5 136.5,-121.5 136.5,-80.5 -0.5,-80.5"/>
<text text-anchor="start" x="7.5" y="-109.5" font-family="Helvetica,sans-Serif" font-size="10.00">std::set&lt; std::pair</text>
<text text-anchor="start" x="7.5" y="-98.5" font-family="Helvetica,sans-Serif" font-size="10.00">&lt; fcl::CollisionObject</text>
<text text-anchor="middle" x="68" y="-87.5" font-family="Helvetica,sans-Serif" font-size="10.00"> *, fcl::CollisionObject * &gt; &gt;</text>
</g>
<!-- Node2&#45;&gt;Node1 -->
<g id="edge1" class="edge"><title>Node2&#45;&gt;Node1</title>
<path fill="none" stroke="#9a32cd" stroke-dasharray="5,2" d="M68,-70.1369C68,-56.8157 68,-41.7541 68,-31.0769"/>
<polygon fill="#9a32cd" stroke="#9a32cd" points="64.5001,-70.3301 68,-80.3302 71.5001,-70.3302 64.5001,-70.3301"/>
<text text-anchor="middle" x="92.5" y="-53.5" font-family="Helvetica,sans-Serif" font-size="10.00"> tested_set</text>
</g>
</g>
</svg>
