<?xml version="1.0" encoding="UTF-8" standalone="no"?>
<!DOCTYPE svg PUBLIC "-//W3C//DTD SVG 1.1//EN"
 "http://www.w3.org/Graphics/SVG/1.1/DTD/svg11.dtd">
<!-- Generated by graphviz version 2.36.0 (20140111.2315)
 -->
<!-- Title: profile.h Pages: 1 -->
<svg width="547pt" height="96pt"
 viewBox="0.00 0.00 547.00 96.00" xmlns="http://www.w3.org/2000/svg" xmlns:xlink="http://www.w3.org/1999/xlink">
<g id="graph0" class="graph" transform="scale(1 1) rotate(0) translate(4 92)">
<title>profile.h</title>
<polygon fill="white" stroke="none" points="-4,4 -4,-92 543,-92 543,4 -4,4"/>
<!-- Node1 -->
<g id="node1" class="node"><title>Node1</title>
<polygon fill="#bfbfbf" stroke="black" points="158.5,-68.5 158.5,-87.5 209.5,-87.5 209.5,-68.5 158.5,-68.5"/>
<text text-anchor="middle" x="184" y="-75.5" font-family="Helvetica,sans-Serif" font-size="10.00">profile.h</text>
</g>
<!-- Node2 -->
<g id="node2" class="node"><title>Node2</title>
<polygon fill="white" stroke="#bfbfbf" points="-0.5,-6.5 -0.5,-25.5 34.5,-25.5 34.5,-6.5 -0.5,-6.5"/>
<text text-anchor="middle" x="17" y="-13.5" font-family="Helvetica,sans-Serif" font-size="10.00">map</text>
</g>
<!-- Node1&#45;&gt;Node2 -->
<g id="edge1" class="edge"><title>Node1&#45;&gt;Node2</title>
<path fill="none" stroke="midnightblue" d="M158.439,-70.618C129.719,-63.0438 82.015,-49.2411 43,-32 41.8203,-31.4787 40.6256,-30.9179 39.43,-30.3303"/>
<polygon fill="midnightblue" stroke="midnightblue" points="40.9398,-27.1681 30.476,-25.5063 37.6196,-33.3306 40.9398,-27.1681"/>
</g>
<!-- Node3 -->
<g id="node3" class="node"><title>Node3</title>
<polygon fill="white" stroke="#bfbfbf" points="52.5,-6.5 52.5,-25.5 93.5,-25.5 93.5,-6.5 52.5,-6.5"/>
<text text-anchor="middle" x="73" y="-13.5" font-family="Helvetica,sans-Serif" font-size="10.00">string</text>
</g>
<!-- Node1&#45;&gt;Node3 -->
<g id="edge2" class="edge"><title>Node1&#45;&gt;Node3</title>
<path fill="none" stroke="midnightblue" d="M168.096,-68.4035C149.715,-58.4678 119.244,-41.9966 97.7553,-30.3812"/>
<polygon fill="midnightblue" stroke="midnightblue" points="99.3355,-27.2568 88.8741,-25.5806 96.0068,-33.4148 99.3355,-27.2568"/>
</g>
<!-- Node4 -->
<g id="node4" class="node"><title>Node4</title>
<polygon fill="white" stroke="#bfbfbf" points="112,-6.5 112,-25.5 166,-25.5 166,-6.5 112,-6.5"/>
<text text-anchor="middle" x="139" y="-13.5" font-family="Helvetica,sans-Serif" font-size="10.00">iostream</text>
</g>
<!-- Node1&#45;&gt;Node4 -->
<g id="edge3" class="edge"><title>Node1&#45;&gt;Node4</title>
<path fill="none" stroke="midnightblue" d="M177.553,-68.4035C170.803,-59.4034 160.031,-45.0408 151.587,-33.7824"/>
<polygon fill="midnightblue" stroke="midnightblue" points="154.235,-31.4806 145.435,-25.5806 148.635,-35.6806 154.235,-31.4806"/>
</g>
<!-- Node5 -->
<g id="node5" class="node"><title>Node5</title>
<polygon fill="white" stroke="#bfbfbf" points="184.5,-6.5 184.5,-25.5 273.5,-25.5 273.5,-6.5 184.5,-6.5"/>
<text text-anchor="middle" x="229" y="-13.5" font-family="Helvetica,sans-Serif" font-size="10.00">boost/thread.hpp</text>
</g>
<!-- Node1&#45;&gt;Node5 -->
<g id="edge4" class="edge"><title>Node1&#45;&gt;Node5</title>
<path fill="none" stroke="midnightblue" d="M190.447,-68.4035C197.197,-59.4034 207.969,-45.0408 216.413,-33.7824"/>
<polygon fill="midnightblue" stroke="midnightblue" points="219.365,-35.6806 222.565,-25.5806 213.765,-31.4806 219.365,-35.6806"/>
</g>
<!-- Node6 -->
<g id="node6" class="node"><title>Node6</title>
<polygon fill="white" stroke="#bfbfbf" points="291.5,-6.5 291.5,-25.5 408.5,-25.5 408.5,-6.5 291.5,-6.5"/>
<text text-anchor="middle" x="350" y="-13.5" font-family="Helvetica,sans-Serif" font-size="10.00">boost/noncopyable.hpp</text>
</g>
<!-- Node1&#45;&gt;Node6 -->
<g id="edge5" class="edge"><title>Node1&#45;&gt;Node6</title>
<path fill="none" stroke="midnightblue" d="M207.784,-68.4035C236.382,-58.0668 284.551,-40.6564 316.802,-28.9994"/>
<polygon fill="midnightblue" stroke="midnightblue" points="318.046,-32.2715 326.26,-25.5806 315.666,-25.6883 318.046,-32.2715"/>
</g>
<!-- Node7 -->
<g id="node7" class="node"><title>Node7</title>
<polygon fill="white" stroke="#bfbfbf" points="426.5,-1 426.5,-31 539.5,-31 539.5,-1 426.5,-1"/>
<text text-anchor="start" x="434.5" y="-19" font-family="Helvetica,sans-Serif" font-size="10.00">boost/date_time/posix</text>
<text text-anchor="middle" x="483" y="-8" font-family="Helvetica,sans-Serif" font-size="10.00">_time/posix_time.hpp</text>
</g>
<!-- Node1&#45;&gt;Node7 -->
<g id="edge6" class="edge"><title>Node1&#45;&gt;Node7</title>
<path fill="none" stroke="midnightblue" d="M209.568,-72.3447C250.834,-64.7707 334.901,-49.0898 416.241,-32.1211"/>
<polygon fill="midnightblue" stroke="midnightblue" points="417.075,-35.5225 426.144,-30.0458 415.639,-28.6713 417.075,-35.5225"/>
</g>
</g>
</svg>
