<?xml version="1.0" encoding="UTF-8" standalone="no"?>
<!DOCTYPE svg PUBLIC "-//W3C//DTD SVG 1.1//EN"
 "http://www.w3.org/Graphics/SVG/1.1/DTD/svg11.dtd">
<!-- Generated by graphviz version 2.36.0 (20140111.2315)
 -->
<!-- Title: fcl::BroadPhaseCollisionManager Pages: 1 -->
<svg width="324pt" height="301pt"
 viewBox="0.00 0.00 324.00 301.00" xmlns="http://www.w3.org/2000/svg" xmlns:xlink="http://www.w3.org/1999/xlink">
<g id="graph0" class="graph" transform="scale(1 1) rotate(0) translate(4 297)">
<title>fcl::BroadPhaseCollisionManager</title>
<polygon fill="white" stroke="none" points="-4,4 -4,-297 320,-297 320,4 -4,4"/>
<!-- Node1 -->
<g id="node1" class="node"><title>Node1</title>
<polygon fill="#bfbfbf" stroke="black" points="0,-121 0,-151 124,-151 124,-121 0,-121"/>
<text text-anchor="start" x="8" y="-139" font-family="Helvetica,sans-Serif" font-size="10.00">fcl::BroadPhaseCollision</text>
<text text-anchor="middle" x="62" y="-128" font-family="Helvetica,sans-Serif" font-size="10.00">Manager</text>
</g>
<!-- Node2 -->
<g id="node2" class="node"><title>Node2</title>
<g id="a_node2"><a xlink:href="a00057.html" target="_top" xlink:title="fcl::DynamicAABBTreeCollision\lManager">
<polygon fill="white" stroke="black" points="160,-263 160,-293 316,-293 316,-263 160,-263"/>
<text text-anchor="start" x="168" y="-281" font-family="Helvetica,sans-Serif" font-size="10.00">fcl::DynamicAABBTreeCollision</text>
<text text-anchor="middle" x="238" y="-270" font-family="Helvetica,sans-Serif" font-size="10.00">Manager</text>
</a>
</g>
</g>
<!-- Node1&#45;&gt;Node2 -->
<g id="edge1" class="edge"><title>Node1&#45;&gt;Node2</title>
<path fill="none" stroke="midnightblue" d="M76.9839,-159.912C93.5933,-186.318 123.675,-228.347 160,-253 165.699,-256.867 172.037,-260.17 178.561,-262.983"/>
<polygon fill="midnightblue" stroke="midnightblue" points="79.8977,-157.969 71.6827,-151.278 73.9324,-161.631 79.8977,-157.969"/>
</g>
<!-- Node3 -->
<g id="node3" class="node"><title>Node3</title>
<g id="a_node3"><a xlink:href="a00058.html" target="_top" xlink:title="fcl::DynamicAABBTreeCollision\lManager_Array">
<polygon fill="white" stroke="black" points="160,-214 160,-244 316,-244 316,-214 160,-214"/>
<text text-anchor="start" x="168" y="-232" font-family="Helvetica,sans-Serif" font-size="10.00">fcl::DynamicAABBTreeCollision</text>
<text text-anchor="middle" x="238" y="-221" font-family="Helvetica,sans-Serif" font-size="10.00">Manager_Array</text>
</a>
</g>
</g>
<!-- Node1&#45;&gt;Node3 -->
<g id="edge2" class="edge"><title>Node1&#45;&gt;Node3</title>
<path fill="none" stroke="midnightblue" d="M88.9835,-157.437C107.786,-172.121 134.305,-191.184 160,-204 167.421,-207.701 175.511,-211.024 183.567,-213.947"/>
<polygon fill="midnightblue" stroke="midnightblue" points="90.9274,-154.512 80.9185,-151.037 86.576,-159.995 90.9274,-154.512"/>
</g>
<!-- Node4 -->
<g id="node4" class="node"><title>Node4</title>
<g id="a_node4"><a xlink:href="a00096.html" target="_top" xlink:title="Collision manager based on interval tree. ">
<polygon fill="white" stroke="black" points="177,-165 177,-195 299,-195 299,-165 177,-165"/>
<text text-anchor="start" x="185" y="-183" font-family="Helvetica,sans-Serif" font-size="10.00">fcl::IntervalTreeCollision</text>
<text text-anchor="middle" x="238" y="-172" font-family="Helvetica,sans-Serif" font-size="10.00">Manager</text>
</a>
</g>
</g>
<!-- Node1&#45;&gt;Node4 -->
<g id="edge3" class="edge"><title>Node1&#45;&gt;Node4</title>
<path fill="none" stroke="midnightblue" d="M132.147,-153.485C147.181,-157.287 162.959,-161.277 177.578,-164.974"/>
<polygon fill="midnightblue" stroke="midnightblue" points="132.947,-150.078 122.394,-151.019 131.231,-156.864 132.947,-150.078"/>
</g>
<!-- Node5 -->
<g id="node5" class="node"><title>Node5</title>
<g id="a_node5"><a xlink:href="a00145.html" target="_top" xlink:title="Brute force N&#45;body collision manager. ">
<polygon fill="white" stroke="black" points="171,-126.5 171,-145.5 305,-145.5 305,-126.5 171,-126.5"/>
<text text-anchor="middle" x="238" y="-133.5" font-family="Helvetica,sans-Serif" font-size="10.00">fcl::NaiveCollisionManager</text>
</a>
</g>
</g>
<!-- Node1&#45;&gt;Node5 -->
<g id="edge4" class="edge"><title>Node1&#45;&gt;Node5</title>
<path fill="none" stroke="midnightblue" d="M134.375,-136C146.455,-136 158.952,-136 170.89,-136"/>
<polygon fill="midnightblue" stroke="midnightblue" points="134.346,-132.5 124.346,-136 134.346,-139.5 134.346,-132.5"/>
</g>
<!-- Node6 -->
<g id="node6" class="node"><title>Node6</title>
<g id="a_node6"><a xlink:href="a00191.html" target="_top" xlink:title="Rigorous SAP collision manager. ">
<polygon fill="white" stroke="black" points="174.5,-88.5 174.5,-107.5 301.5,-107.5 301.5,-88.5 174.5,-88.5"/>
<text text-anchor="middle" x="238" y="-95.5" font-family="Helvetica,sans-Serif" font-size="10.00">fcl::SaPCollisionManager</text>
</a>
</g>
</g>
<!-- Node1&#45;&gt;Node6 -->
<g id="edge5" class="edge"><title>Node1&#45;&gt;Node6</title>
<path fill="none" stroke="midnightblue" d="M134.371,-120.413C154.385,-116.042 175.541,-111.422 193.411,-107.519"/>
<polygon fill="midnightblue" stroke="midnightblue" points="133.369,-117.05 124.346,-122.603 134.862,-123.888 133.369,-117.05"/>
</g>
<!-- Node7 -->
<g id="node7" class="node"><title>Node7</title>
<g id="a_node7"><a xlink:href="a00224.html" target="_top" xlink:title="spatial hashing collision mananger ">
<polygon fill="white" stroke="black" points="169.5,-39 169.5,-69 306.5,-69 306.5,-39 169.5,-39"/>
<text text-anchor="start" x="177.5" y="-57" font-family="Helvetica,sans-Serif" font-size="10.00">fcl::SpatialHashingCollision</text>
<text text-anchor="middle" x="238" y="-46" font-family="Helvetica,sans-Serif" font-size="10.00">Manager&lt; HashTable &gt;</text>
</a>
</g>
</g>
<!-- Node1&#45;&gt;Node7 -->
<g id="edge6" class="edge"><title>Node1&#45;&gt;Node7</title>
<path fill="none" stroke="midnightblue" d="M94.0052,-115.438C112.604,-103.706 137.036,-89.3268 160,-79 168.076,-75.3684 176.84,-72.0101 185.465,-69.0107"/>
<polygon fill="midnightblue" stroke="midnightblue" points="91.9152,-112.62 85.3753,-120.956 95.6859,-118.518 91.9152,-112.62"/>
</g>
<!-- Node8 -->
<g id="node8" class="node"><title>Node8</title>
<g id="a_node8"><a xlink:href="a00227.html" target="_top" xlink:title="Simple SAP collision manager. ">
<polygon fill="white" stroke="black" points="171,-0.5 171,-19.5 305,-19.5 305,-0.5 171,-0.5"/>
<text text-anchor="middle" x="238" y="-7.5" font-family="Helvetica,sans-Serif" font-size="10.00">fcl::SSaPCollisionManager</text>
</a>
</g>
</g>
<!-- Node1&#45;&gt;Node8 -->
<g id="edge7" class="edge"><title>Node1&#45;&gt;Node8</title>
<path fill="none" stroke="midnightblue" d="M78.3163,-112.493C95.3712,-88.2037 125.169,-50.9697 160,-30 167.218,-25.6545 175.368,-22.2444 183.596,-19.5706"/>
<polygon fill="midnightblue" stroke="midnightblue" points="75.3884,-110.574 72.6237,-120.801 81.1631,-114.53 75.3884,-110.574"/>
</g>
</g>
</svg>
