<?xml version="1.0" encoding="UTF-8" standalone="no"?>
<!DOCTYPE svg PUBLIC "-//W3C//DTD SVG 1.1//EN"
 "http://www.w3.org/Graphics/SVG/1.1/DTD/svg11.dtd">
<!-- Generated by graphviz version 2.36.0 (20140111.2315)
 -->
<!-- Title: fcl::CollisionTraversalNodeBase Pages: 1 -->
<svg width="1034pt" height="1038pt"
 viewBox="0.00 0.00 1034.00 1038.00" xmlns="http://www.w3.org/2000/svg" xmlns:xlink="http://www.w3.org/1999/xlink">
<g id="graph0" class="graph" transform="scale(1 1) rotate(0) translate(4 1034)">
<title>fcl::CollisionTraversalNodeBase</title>
<polygon fill="white" stroke="none" points="-4,4 -4,-1034 1030,-1034 1030,4 -4,4"/>
<!-- Node1 -->
<g id="node1" class="node"><title>Node1</title>
<polygon fill="#bfbfbf" stroke="black" points="156.5,-510.5 156.5,-529.5 313.5,-529.5 313.5,-510.5 156.5,-510.5"/>
<text text-anchor="middle" x="235" y="-517.5" font-family="Helvetica,sans-Serif" font-size="10.00">fcl::CollisionTraversalNodeBase</text>
</g>
<!-- Node3 -->
<g id="node3" class="node"><title>Node3</title>
<g id="a_node3"><a xlink:href="a00018.html" target="_top" xlink:title="fcl::BVHCollisionTraversal\lNode\&lt; kIOS \&gt;">
<polygon fill="white" stroke="black" points="383,-1000 383,-1030 515,-1030 515,-1000 383,-1000"/>
<text text-anchor="start" x="391" y="-1018" font-family="Helvetica,sans-Serif" font-size="10.00">fcl::BVHCollisionTraversal</text>
<text text-anchor="middle" x="449" y="-1007" font-family="Helvetica,sans-Serif" font-size="10.00">Node&lt; kIOS &gt;</text>
</a>
</g>
</g>
<!-- Node1&#45;&gt;Node3 -->
<g id="edge2" class="edge"><title>Node1&#45;&gt;Node3</title>
<path fill="none" stroke="midnightblue" d="M238.138,-540.115C247.166,-621.344 284.747,-923.971 350,-990 358.948,-999.055 370.688,-1004.99 382.921,-1008.84"/>
<polygon fill="midnightblue" stroke="midnightblue" points="241.575,-539.353 237.013,-529.791 234.617,-540.112 241.575,-539.353"/>
</g>
<!-- Node6 -->
<g id="node6" class="node"><title>Node6</title>
<g id="a_node6"><a xlink:href="a00018.html" target="_top" xlink:title="fcl::BVHCollisionTraversal\lNode\&lt; OBB \&gt;">
<polygon fill="white" stroke="black" points="383,-951 383,-981 515,-981 515,-951 383,-951"/>
<text text-anchor="start" x="391" y="-969" font-family="Helvetica,sans-Serif" font-size="10.00">fcl::BVHCollisionTraversal</text>
<text text-anchor="middle" x="449" y="-958" font-family="Helvetica,sans-Serif" font-size="10.00">Node&lt; OBB &gt;</text>
</a>
</g>
</g>
<!-- Node1&#45;&gt;Node6 -->
<g id="edge5" class="edge"><title>Node1&#45;&gt;Node6</title>
<path fill="none" stroke="midnightblue" d="M238.65,-539.451C249.227,-614.32 290.747,-882.609 350,-941 359.005,-949.874 370.696,-955.733 382.851,-959.573"/>
<polygon fill="midnightblue" stroke="midnightblue" points="242.111,-538.927 237.267,-529.504 235.177,-539.891 242.111,-538.927"/>
</g>
<!-- Node9 -->
<g id="node9" class="node"><title>Node9</title>
<g id="a_node9"><a xlink:href="a00018.html" target="_top" xlink:title="fcl::BVHCollisionTraversal\lNode\&lt; OBBRSS \&gt;">
<polygon fill="white" stroke="black" points="383,-902 383,-932 515,-932 515,-902 383,-902"/>
<text text-anchor="start" x="391" y="-920" font-family="Helvetica,sans-Serif" font-size="10.00">fcl::BVHCollisionTraversal</text>
<text text-anchor="middle" x="449" y="-909" font-family="Helvetica,sans-Serif" font-size="10.00">Node&lt; OBBRSS &gt;</text>
</a>
</g>
</g>
<!-- Node1&#45;&gt;Node9 -->
<g id="edge8" class="edge"><title>Node1&#45;&gt;Node9</title>
<path fill="none" stroke="midnightblue" d="M235.759,-540.153C236.164,-602.348 246.206,-793.032 350,-892 359.086,-900.664 370.741,-906.438 382.822,-910.261"/>
<polygon fill="midnightblue" stroke="midnightblue" points="239.259,-539.795 235.778,-529.788 232.259,-539.782 239.259,-539.795"/>
</g>
<!-- Node12 -->
<g id="node12" class="node"><title>Node12</title>
<g id="a_node12"><a xlink:href="a00018.html" target="_top" xlink:title="fcl::BVHCollisionTraversal\lNode\&lt; RSS \&gt;">
<polygon fill="white" stroke="black" points="383,-853 383,-883 515,-883 515,-853 383,-853"/>
<text text-anchor="start" x="391" y="-871" font-family="Helvetica,sans-Serif" font-size="10.00">fcl::BVHCollisionTraversal</text>
<text text-anchor="middle" x="449" y="-860" font-family="Helvetica,sans-Serif" font-size="10.00">Node&lt; RSS &gt;</text>
</a>
</g>
</g>
<!-- Node1&#45;&gt;Node12 -->
<g id="edge11" class="edge"><title>Node1&#45;&gt;Node12</title>
<path fill="none" stroke="midnightblue" d="M236.813,-539.728C240.24,-596.047 258.026,-758.912 350,-843 359.201,-851.412 370.836,-857.081 382.848,-860.881"/>
<polygon fill="midnightblue" stroke="midnightblue" points="240.305,-539.47 236.29,-529.666 233.314,-539.834 240.305,-539.47"/>
</g>
<!-- Node15 -->
<g id="node15" class="node"><title>Node15</title>
<g id="a_node15"><a xlink:href="a00023.html" target="_top" xlink:title="fcl::BVHShapeCollisionTraversal\lNode\&lt; kIOS, S \&gt;">
<polygon fill="white" stroke="black" points="369,-804 369,-834 529,-834 529,-804 369,-804"/>
<text text-anchor="start" x="377" y="-822" font-family="Helvetica,sans-Serif" font-size="10.00">fcl::BVHShapeCollisionTraversal</text>
<text text-anchor="middle" x="449" y="-811" font-family="Helvetica,sans-Serif" font-size="10.00">Node&lt; kIOS, S &gt;</text>
</a>
</g>
</g>
<!-- Node1&#45;&gt;Node15 -->
<g id="edge14" class="edge"><title>Node1&#45;&gt;Node15</title>
<path fill="none" stroke="midnightblue" d="M238.211,-539.699C244.949,-590.12 269.926,-724.735 350,-794 355.578,-798.825 361.963,-802.739 368.74,-805.912"/>
<polygon fill="midnightblue" stroke="midnightblue" points="241.653,-539.014 236.951,-529.52 234.706,-539.874 241.653,-539.014"/>
</g>
<!-- Node18 -->
<g id="node18" class="node"><title>Node18</title>
<g id="a_node18"><a xlink:href="a00023.html" target="_top" xlink:title="fcl::BVHShapeCollisionTraversal\lNode\&lt; OBB, S \&gt;">
<polygon fill="white" stroke="black" points="369,-755 369,-785 529,-785 529,-755 369,-755"/>
<text text-anchor="start" x="377" y="-773" font-family="Helvetica,sans-Serif" font-size="10.00">fcl::BVHShapeCollisionTraversal</text>
<text text-anchor="middle" x="449" y="-762" font-family="Helvetica,sans-Serif" font-size="10.00">Node&lt; OBB, S &gt;</text>
</a>
</g>
</g>
<!-- Node1&#45;&gt;Node18 -->
<g id="edge17" class="edge"><title>Node1&#45;&gt;Node18</title>
<path fill="none" stroke="midnightblue" d="M240.162,-539.694C250.511,-583.653 281.653,-690.203 350,-745 355.617,-749.503 361.948,-753.205 368.621,-756.247"/>
<polygon fill="midnightblue" stroke="midnightblue" points="243.577,-538.925 237.969,-529.936 236.747,-540.46 243.577,-538.925"/>
</g>
<!-- Node21 -->
<g id="node21" class="node"><title>Node21</title>
<g id="a_node21"><a xlink:href="a00023.html" target="_top" xlink:title="fcl::BVHShapeCollisionTraversal\lNode\&lt; OBBRSS, S \&gt;">
<polygon fill="white" stroke="black" points="369,-706 369,-736 529,-736 529,-706 369,-706"/>
<text text-anchor="start" x="377" y="-724" font-family="Helvetica,sans-Serif" font-size="10.00">fcl::BVHShapeCollisionTraversal</text>
<text text-anchor="middle" x="449" y="-713" font-family="Helvetica,sans-Serif" font-size="10.00">Node&lt; OBBRSS, S &gt;</text>
</a>
</g>
</g>
<!-- Node1&#45;&gt;Node21 -->
<g id="edge20" class="edge"><title>Node1&#45;&gt;Node21</title>
<path fill="none" stroke="midnightblue" d="M242.956,-539.31C257.135,-575.83 292.947,-655.02 350,-696 355.704,-700.097 362.019,-703.525 368.613,-706.391"/>
<polygon fill="midnightblue" stroke="midnightblue" points="246.184,-537.95 239.39,-529.82 239.632,-540.412 246.184,-537.95"/>
</g>
<!-- Node24 -->
<g id="node24" class="node"><title>Node24</title>
<g id="a_node24"><a xlink:href="a00023.html" target="_top" xlink:title="fcl::BVHShapeCollisionTraversal\lNode\&lt; RSS, S \&gt;">
<polygon fill="white" stroke="black" points="369,-657 369,-687 529,-687 529,-657 369,-657"/>
<text text-anchor="start" x="377" y="-675" font-family="Helvetica,sans-Serif" font-size="10.00">fcl::BVHShapeCollisionTraversal</text>
<text text-anchor="middle" x="449" y="-664" font-family="Helvetica,sans-Serif" font-size="10.00">Node&lt; RSS, S &gt;</text>
</a>
</g>
</g>
<!-- Node1&#45;&gt;Node24 -->
<g id="edge23" class="edge"><title>Node1&#45;&gt;Node24</title>
<path fill="none" stroke="midnightblue" d="M247.362,-538.475C265.512,-566.382 303.752,-618.992 350,-647 356.383,-650.866 363.348,-654.137 370.525,-656.904"/>
<polygon fill="midnightblue" stroke="midnightblue" points="250.115,-536.282 241.801,-529.716 244.206,-540.034 250.115,-536.282"/>
</g>
<!-- Node27 -->
<g id="node27" class="node"><title>Node27</title>
<g id="a_node27"><a xlink:href="a00018.html" target="_top" xlink:title="Traversal node for collision between BVH models. ">
<polygon fill="white" stroke="black" points="383,-608 383,-638 515,-638 515,-608 383,-608"/>
<text text-anchor="start" x="391" y="-626" font-family="Helvetica,sans-Serif" font-size="10.00">fcl::BVHCollisionTraversal</text>
<text text-anchor="middle" x="449" y="-615" font-family="Helvetica,sans-Serif" font-size="10.00">Node&lt; BV &gt;</text>
</a>
</g>
</g>
<!-- Node1&#45;&gt;Node27 -->
<g id="edge26" class="edge"><title>Node1&#45;&gt;Node27</title>
<path fill="none" stroke="midnightblue" d="M254.927,-536.068C276.579,-553.675 313.738,-581.592 350,-598 360.318,-602.669 371.658,-606.572 382.85,-609.799"/>
<polygon fill="midnightblue" stroke="midnightblue" points="257.101,-533.324 247.163,-529.653 252.642,-538.72 257.101,-533.324"/>
</g>
<!-- Node30 -->
<g id="node30" class="node"><title>Node30</title>
<g id="a_node30"><a xlink:href="a00023.html" target="_top" xlink:title="Traversal node for collision between BVH and shape. ">
<polygon fill="white" stroke="black" points="369,-559 369,-589 529,-589 529,-559 369,-559"/>
<text text-anchor="start" x="377" y="-577" font-family="Helvetica,sans-Serif" font-size="10.00">fcl::BVHShapeCollisionTraversal</text>
<text text-anchor="middle" x="449" y="-566" font-family="Helvetica,sans-Serif" font-size="10.00">Node&lt; BV, S &gt;</text>
</a>
</g>
</g>
<!-- Node1&#45;&gt;Node30 -->
<g id="edge29" class="edge"><title>Node1&#45;&gt;Node30</title>
<path fill="none" stroke="midnightblue" d="M283.176,-532.017C314.393,-539.968 355.571,-550.457 388.958,-558.961"/>
<polygon fill="midnightblue" stroke="midnightblue" points="283.968,-528.607 273.413,-529.53 282.24,-535.39 283.968,-528.607"/>
</g>
<!-- Node32 -->
<g id="node32" class="node"><title>Node32</title>
<g id="a_node32"><a xlink:href="a00122.html" target="_top" xlink:title="Traversal node for mesh&#45;octree collision. ">
<polygon fill="white" stroke="black" points="365,-499.5 365,-540.5 533,-540.5 533,-499.5 365,-499.5"/>
<text text-anchor="start" x="373" y="-528.5" font-family="Helvetica,sans-Serif" font-size="10.00">fcl::MeshOcTreeCollision</text>
<text text-anchor="start" x="373" y="-517.5" font-family="Helvetica,sans-Serif" font-size="10.00">TraversalNode&lt; BV, NarrowPhase</text>
<text text-anchor="middle" x="449" y="-506.5" font-family="Helvetica,sans-Serif" font-size="10.00">Solver &gt;</text>
</a>
</g>
</g>
<!-- Node1&#45;&gt;Node32 -->
<g id="edge31" class="edge"><title>Node1&#45;&gt;Node32</title>
<path fill="none" stroke="midnightblue" d="M324,-520C337.544,-520 351.491,-520 364.923,-520"/>
<polygon fill="midnightblue" stroke="midnightblue" points="323.737,-516.5 313.737,-520 323.737,-523.5 323.737,-516.5"/>
</g>
<!-- Node33 -->
<g id="node33" class="node"><title>Node33</title>
<g id="a_node33"><a xlink:href="a00157.html" target="_top" xlink:title="Traversal node for octree collision. ">
<polygon fill="white" stroke="black" points="376.5,-451 376.5,-481 521.5,-481 521.5,-451 376.5,-451"/>
<text text-anchor="start" x="384.5" y="-469" font-family="Helvetica,sans-Serif" font-size="10.00">fcl::OcTreeCollisionTraversal</text>
<text text-anchor="middle" x="449" y="-458" font-family="Helvetica,sans-Serif" font-size="10.00">Node&lt; NarrowPhaseSolver &gt;</text>
</a>
</g>
</g>
<!-- Node1&#45;&gt;Node33 -->
<g id="edge32" class="edge"><title>Node1&#45;&gt;Node33</title>
<path fill="none" stroke="midnightblue" d="M281.515,-507.831C302.366,-502.306 327.414,-495.737 350,-490 361.63,-487.046 374.052,-483.954 386.011,-481.011"/>
<polygon fill="midnightblue" stroke="midnightblue" points="280.412,-504.503 271.645,-510.452 282.209,-511.268 280.412,-504.503"/>
</g>
<!-- Node34 -->
<g id="node34" class="node"><title>Node34</title>
<g id="a_node34"><a xlink:href="a00159.html" target="_top" xlink:title="Traversal node for octree&#45;mesh collision. ">
<polygon fill="white" stroke="black" points="365,-391.5 365,-432.5 533,-432.5 533,-391.5 365,-391.5"/>
<text text-anchor="start" x="373" y="-420.5" font-family="Helvetica,sans-Serif" font-size="10.00">fcl::OcTreeMeshCollision</text>
<text text-anchor="start" x="373" y="-409.5" font-family="Helvetica,sans-Serif" font-size="10.00">TraversalNode&lt; BV, NarrowPhase</text>
<text text-anchor="middle" x="449" y="-398.5" font-family="Helvetica,sans-Serif" font-size="10.00">Solver &gt;</text>
</a>
</g>
</g>
<!-- Node1&#45;&gt;Node34 -->
<g id="edge33" class="edge"><title>Node1&#45;&gt;Node34</title>
<path fill="none" stroke="midnightblue" d="M255.424,-503.971C277.256,-486.631 314.327,-459.168 350,-442 357.135,-438.566 364.75,-435.42 372.464,-432.564"/>
<polygon fill="midnightblue" stroke="midnightblue" points="253.167,-501.295 247.574,-510.294 257.558,-506.746 253.167,-501.295"/>
</g>
<!-- Node35 -->
<g id="node35" class="node"><title>Node35</title>
<g id="a_node35"><a xlink:href="a00161.html" target="_top" xlink:title="Traversal node for octree&#45;shape collision. ">
<polygon fill="white" stroke="black" points="350,-343 350,-373 548,-373 548,-343 350,-343"/>
<text text-anchor="start" x="358" y="-361" font-family="Helvetica,sans-Serif" font-size="10.00">fcl::OcTreeShapeCollision</text>
<text text-anchor="middle" x="449" y="-350" font-family="Helvetica,sans-Serif" font-size="10.00">TraversalNode&lt; S, NarrowPhaseSolver &gt;</text>
</a>
</g>
</g>
<!-- Node1&#45;&gt;Node35 -->
<g id="edge34" class="edge"><title>Node1&#45;&gt;Node35</title>
<path fill="none" stroke="midnightblue" d="M246.182,-501.131C263.42,-471.064 301.278,-412.564 350,-382 355.49,-378.556 361.441,-375.606 367.604,-373.079"/>
<polygon fill="midnightblue" stroke="midnightblue" points="242.962,-499.719 241.141,-510.157 249.073,-503.133 242.962,-499.719"/>
</g>
<!-- Node36 -->
<g id="node36" class="node"><title>Node36</title>
<g id="a_node36"><a xlink:href="a00199.html" target="_top" xlink:title="Traversal node for collision between shape and BVH. ">
<polygon fill="white" stroke="black" points="369,-294 369,-324 529,-324 529,-294 369,-294"/>
<text text-anchor="start" x="377" y="-312" font-family="Helvetica,sans-Serif" font-size="10.00">fcl::ShapeBVHCollisionTraversal</text>
<text text-anchor="middle" x="449" y="-301" font-family="Helvetica,sans-Serif" font-size="10.00">Node&lt; S, BV &gt;</text>
</a>
</g>
</g>
<!-- Node1&#45;&gt;Node36 -->
<g id="edge35" class="edge"><title>Node1&#45;&gt;Node36</title>
<path fill="none" stroke="midnightblue" d="M242.443,-500.147C255.936,-461.819 290.904,-377.575 350,-334 355.794,-329.728 362.246,-326.182 368.997,-323.241"/>
<polygon fill="midnightblue" stroke="midnightblue" points="238.975,-499.478 239.073,-510.072 245.603,-501.729 238.975,-499.478"/>
</g>
<!-- Node38 -->
<g id="node38" class="node"><title>Node38</title>
<g id="a_node38"><a xlink:href="a00201.html" target="_top" xlink:title="Traversal node for collision between two shapes. ">
<polygon fill="white" stroke="black" points="358.5,-245 358.5,-275 539.5,-275 539.5,-245 358.5,-245"/>
<text text-anchor="start" x="366.5" y="-263" font-family="Helvetica,sans-Serif" font-size="10.00">fcl::ShapeCollisionTraversal</text>
<text text-anchor="middle" x="449" y="-252" font-family="Helvetica,sans-Serif" font-size="10.00">Node&lt; S1, S2, NarrowPhaseSolver &gt;</text>
</a>
</g>
</g>
<!-- Node1&#45;&gt;Node38 -->
<g id="edge37" class="edge"><title>Node1&#45;&gt;Node38</title>
<path fill="none" stroke="midnightblue" d="M239.751,-500.078C249.389,-454.597 279.395,-342.617 350,-285 354.761,-281.114 360.053,-277.824 365.64,-275.039"/>
<polygon fill="midnightblue" stroke="midnightblue" points="236.269,-499.641 237.727,-510.135 243.131,-501.022 236.269,-499.641"/>
</g>
<!-- Node39 -->
<g id="node39" class="node"><title>Node39</title>
<g id="a_node39"><a xlink:href="a00216.html" target="_top" xlink:title="Traversal node for shape&#45;octree collision. ">
<polygon fill="white" stroke="black" points="350,-196 350,-226 548,-226 548,-196 350,-196"/>
<text text-anchor="start" x="358" y="-214" font-family="Helvetica,sans-Serif" font-size="10.00">fcl::ShapeOcTreeCollision</text>
<text text-anchor="middle" x="449" y="-203" font-family="Helvetica,sans-Serif" font-size="10.00">TraversalNode&lt; S, NarrowPhaseSolver &gt;</text>
</a>
</g>
</g>
<!-- Node1&#45;&gt;Node39 -->
<g id="edge38" class="edge"><title>Node1&#45;&gt;Node39</title>
<path fill="none" stroke="midnightblue" d="M237.892,-500.279C243.935,-448.599 267.52,-308.257 350,-236 354.358,-232.182 359.222,-228.933 364.387,-226.169"/>
<polygon fill="midnightblue" stroke="midnightblue" points="234.391,-500.098 236.804,-510.415 241.351,-500.846 234.391,-500.098"/>
</g>
<!-- Node40 -->
<g id="node40" class="node"><title>Node40</title>
<g id="a_node40"><a xlink:href="a00199.html" target="_top" xlink:title="fcl::ShapeBVHCollisionTraversal\lNode\&lt; S, kIOS \&gt;">
<polygon fill="white" stroke="black" points="369,-147 369,-177 529,-177 529,-147 369,-147"/>
<text text-anchor="start" x="377" y="-165" font-family="Helvetica,sans-Serif" font-size="10.00">fcl::ShapeBVHCollisionTraversal</text>
<text text-anchor="middle" x="449" y="-154" font-family="Helvetica,sans-Serif" font-size="10.00">Node&lt; S, kIOS &gt;</text>
</a>
</g>
</g>
<!-- Node1&#45;&gt;Node40 -->
<g id="edge39" class="edge"><title>Node1&#45;&gt;Node40</title>
<path fill="none" stroke="midnightblue" d="M236.584,-500.064C239.395,-442.406 255.689,-274.047 350,-187 355.548,-181.879 361.998,-177.773 368.889,-174.486"/>
<polygon fill="midnightblue" stroke="midnightblue" points="233.076,-500.21 236.174,-510.342 240.07,-500.489 233.076,-500.21"/>
</g>
<!-- Node43 -->
<g id="node43" class="node"><title>Node43</title>
<g id="a_node43"><a xlink:href="a00199.html" target="_top" xlink:title="fcl::ShapeBVHCollisionTraversal\lNode\&lt; S, OBB \&gt;">
<polygon fill="white" stroke="black" points="369,-98 369,-128 529,-128 529,-98 369,-98"/>
<text text-anchor="start" x="377" y="-116" font-family="Helvetica,sans-Serif" font-size="10.00">fcl::ShapeBVHCollisionTraversal</text>
<text text-anchor="middle" x="449" y="-105" font-family="Helvetica,sans-Serif" font-size="10.00">Node&lt; S, OBB &gt;</text>
</a>
</g>
</g>
<!-- Node1&#45;&gt;Node43 -->
<g id="edge42" class="edge"><title>Node1&#45;&gt;Node43</title>
<path fill="none" stroke="midnightblue" d="M235.571,-500.134C235.347,-437.178 243.571,-240.231 350,-138 355.445,-132.77 361.826,-128.591 368.675,-125.258"/>
<polygon fill="midnightblue" stroke="midnightblue" points="232.072,-500.319 235.689,-510.277 239.072,-500.237 232.072,-500.319"/>
</g>
<!-- Node46 -->
<g id="node46" class="node"><title>Node46</title>
<g id="a_node46"><a xlink:href="a00199.html" target="_top" xlink:title="fcl::ShapeBVHCollisionTraversal\lNode\&lt; S, OBBRSS \&gt;">
<polygon fill="white" stroke="black" points="369,-49 369,-79 529,-79 529,-49 369,-49"/>
<text text-anchor="start" x="377" y="-67" font-family="Helvetica,sans-Serif" font-size="10.00">fcl::ShapeBVHCollisionTraversal</text>
<text text-anchor="middle" x="449" y="-56" font-family="Helvetica,sans-Serif" font-size="10.00">Node&lt; S, OBBRSS &gt;</text>
</a>
</g>
</g>
<!-- Node1&#45;&gt;Node46 -->
<g id="edge45" class="edge"><title>Node1&#45;&gt;Node46</title>
<path fill="none" stroke="midnightblue" d="M238.581,-500.092C248.905,-423.463 289.61,-148.861 350,-89 355.487,-83.5611 361.983,-79.2533 368.979,-75.8484"/>
<polygon fill="midnightblue" stroke="midnightblue" points="235.076,-499.899 237.233,-510.272 242.016,-500.818 235.076,-499.899"/>
</g>
<!-- Node48 -->
<g id="node48" class="node"><title>Node48</title>
<g id="a_node48"><a xlink:href="a00199.html" target="_top" xlink:title="fcl::ShapeBVHCollisionTraversal\lNode\&lt; S, RSS \&gt;">
<polygon fill="white" stroke="black" points="369,-0 369,-30 529,-30 529,-0 369,-0"/>
<text text-anchor="start" x="377" y="-18" font-family="Helvetica,sans-Serif" font-size="10.00">fcl::ShapeBVHCollisionTraversal</text>
<text text-anchor="middle" x="449" y="-7" font-family="Helvetica,sans-Serif" font-size="10.00">Node&lt; S, RSS &gt;</text>
</a>
</g>
</g>
<!-- Node1&#45;&gt;Node48 -->
<g id="edge47" class="edge"><title>Node1&#45;&gt;Node48</title>
<path fill="none" stroke="midnightblue" d="M238.017,-499.995C246.694,-417.855 283.453,-107.661 350,-40 355.417,-34.4919 361.868,-30.1386 368.836,-26.706"/>
<polygon fill="midnightblue" stroke="midnightblue" points="234.488,-500.096 236.941,-510.403 241.451,-500.816 234.488,-500.096"/>
</g>
<!-- Node2 -->
<g id="node2" class="node"><title>Node2</title>
<g id="a_node2"><a xlink:href="a00244.html" target="_top" xlink:title="Node structure encoding the information required for traversal. ">
<polygon fill="white" stroke="black" points="0.5,-510.5 0.5,-529.5 119.5,-529.5 119.5,-510.5 0.5,-510.5"/>
<text text-anchor="middle" x="60" y="-517.5" font-family="Helvetica,sans-Serif" font-size="10.00">fcl::TraversalNodeBase</text>
</a>
</g>
</g>
<!-- Node2&#45;&gt;Node1 -->
<g id="edge1" class="edge"><title>Node2&#45;&gt;Node1</title>
<path fill="none" stroke="midnightblue" d="M129.741,-520C138.525,-520 147.563,-520 156.474,-520"/>
<polygon fill="midnightblue" stroke="midnightblue" points="129.57,-516.5 119.57,-520 129.57,-523.5 129.57,-516.5"/>
</g>
<!-- Node4 -->
<g id="node4" class="node"><title>Node4</title>
<g id="a_node4"><a xlink:href="a00109.html" target="_top" xlink:title="fcl::MeshCollisionTraversal\lNode\&lt; kIOS \&gt;">
<polygon fill="white" stroke="black" points="619.5,-1000 619.5,-1030 754.5,-1030 754.5,-1000 619.5,-1000"/>
<text text-anchor="start" x="627.5" y="-1018" font-family="Helvetica,sans-Serif" font-size="10.00">fcl::MeshCollisionTraversal</text>
<text text-anchor="middle" x="687" y="-1007" font-family="Helvetica,sans-Serif" font-size="10.00">Node&lt; kIOS &gt;</text>
</a>
</g>
</g>
<!-- Node3&#45;&gt;Node4 -->
<g id="edge3" class="edge"><title>Node3&#45;&gt;Node4</title>
<path fill="none" stroke="midnightblue" d="M525.201,-1015C555.481,-1015 590.11,-1015 619.458,-1015"/>
<polygon fill="midnightblue" stroke="midnightblue" points="525.113,-1011.5 515.113,-1015 525.113,-1018.5 525.113,-1011.5"/>
</g>
<!-- Node5 -->
<g id="node5" class="node"><title>Node5</title>
<g id="a_node5"><a xlink:href="a00110.html" target="_top" xlink:title="fcl::MeshCollisionTraversal\lNodekIOS">
<polygon fill="white" stroke="black" points="858.5,-1000 858.5,-1030 993.5,-1030 993.5,-1000 858.5,-1000"/>
<text text-anchor="start" x="866.5" y="-1018" font-family="Helvetica,sans-Serif" font-size="10.00">fcl::MeshCollisionTraversal</text>
<text text-anchor="middle" x="926" y="-1007" font-family="Helvetica,sans-Serif" font-size="10.00">NodekIOS</text>
</a>
</g>
</g>
<!-- Node4&#45;&gt;Node5 -->
<g id="edge4" class="edge"><title>Node4&#45;&gt;Node5</title>
<path fill="none" stroke="midnightblue" d="M764.721,-1015C794.933,-1015 829.3,-1015 858.442,-1015"/>
<polygon fill="midnightblue" stroke="midnightblue" points="764.648,-1011.5 754.648,-1015 764.648,-1018.5 764.648,-1011.5"/>
</g>
<!-- Node7 -->
<g id="node7" class="node"><title>Node7</title>
<g id="a_node7"><a xlink:href="a00109.html" target="_top" xlink:title="fcl::MeshCollisionTraversal\lNode\&lt; OBB \&gt;">
<polygon fill="white" stroke="black" points="619.5,-951 619.5,-981 754.5,-981 754.5,-951 619.5,-951"/>
<text text-anchor="start" x="627.5" y="-969" font-family="Helvetica,sans-Serif" font-size="10.00">fcl::MeshCollisionTraversal</text>
<text text-anchor="middle" x="687" y="-958" font-family="Helvetica,sans-Serif" font-size="10.00">Node&lt; OBB &gt;</text>
</a>
</g>
</g>
<!-- Node6&#45;&gt;Node7 -->
<g id="edge6" class="edge"><title>Node6&#45;&gt;Node7</title>
<path fill="none" stroke="midnightblue" d="M525.201,-966C555.481,-966 590.11,-966 619.458,-966"/>
<polygon fill="midnightblue" stroke="midnightblue" points="525.113,-962.5 515.113,-966 525.113,-969.5 525.113,-962.5"/>
</g>
<!-- Node8 -->
<g id="node8" class="node"><title>Node8</title>
<g id="a_node8"><a xlink:href="a00111.html" target="_top" xlink:title="Traversal node for collision between two meshes if their underlying BVH node is oriented node (OBB...">
<polygon fill="white" stroke="black" points="858.5,-951 858.5,-981 993.5,-981 993.5,-951 858.5,-951"/>
<text text-anchor="start" x="866.5" y="-969" font-family="Helvetica,sans-Serif" font-size="10.00">fcl::MeshCollisionTraversal</text>
<text text-anchor="middle" x="926" y="-958" font-family="Helvetica,sans-Serif" font-size="10.00">NodeOBB</text>
</a>
</g>
</g>
<!-- Node7&#45;&gt;Node8 -->
<g id="edge7" class="edge"><title>Node7&#45;&gt;Node8</title>
<path fill="none" stroke="midnightblue" d="M764.721,-966C794.933,-966 829.3,-966 858.442,-966"/>
<polygon fill="midnightblue" stroke="midnightblue" points="764.648,-962.5 754.648,-966 764.648,-969.5 764.648,-962.5"/>
</g>
<!-- Node10 -->
<g id="node10" class="node"><title>Node10</title>
<g id="a_node10"><a xlink:href="a00109.html" target="_top" xlink:title="fcl::MeshCollisionTraversal\lNode\&lt; OBBRSS \&gt;">
<polygon fill="white" stroke="black" points="619.5,-902 619.5,-932 754.5,-932 754.5,-902 619.5,-902"/>
<text text-anchor="start" x="627.5" y="-920" font-family="Helvetica,sans-Serif" font-size="10.00">fcl::MeshCollisionTraversal</text>
<text text-anchor="middle" x="687" y="-909" font-family="Helvetica,sans-Serif" font-size="10.00">Node&lt; OBBRSS &gt;</text>
</a>
</g>
</g>
<!-- Node9&#45;&gt;Node10 -->
<g id="edge9" class="edge"><title>Node9&#45;&gt;Node10</title>
<path fill="none" stroke="midnightblue" d="M525.201,-917C555.481,-917 590.11,-917 619.458,-917"/>
<polygon fill="midnightblue" stroke="midnightblue" points="525.113,-913.5 515.113,-917 525.113,-920.5 525.113,-913.5"/>
</g>
<!-- Node11 -->
<g id="node11" class="node"><title>Node11</title>
<g id="a_node11"><a xlink:href="a00112.html" target="_top" xlink:title="fcl::MeshCollisionTraversal\lNodeOBBRSS">
<polygon fill="white" stroke="black" points="858.5,-902 858.5,-932 993.5,-932 993.5,-902 858.5,-902"/>
<text text-anchor="start" x="866.5" y="-920" font-family="Helvetica,sans-Serif" font-size="10.00">fcl::MeshCollisionTraversal</text>
<text text-anchor="middle" x="926" y="-909" font-family="Helvetica,sans-Serif" font-size="10.00">NodeOBBRSS</text>
</a>
</g>
</g>
<!-- Node10&#45;&gt;Node11 -->
<g id="edge10" class="edge"><title>Node10&#45;&gt;Node11</title>
<path fill="none" stroke="midnightblue" d="M764.721,-917C794.933,-917 829.3,-917 858.442,-917"/>
<polygon fill="midnightblue" stroke="midnightblue" points="764.648,-913.5 754.648,-917 764.648,-920.5 764.648,-913.5"/>
</g>
<!-- Node13 -->
<g id="node13" class="node"><title>Node13</title>
<g id="a_node13"><a xlink:href="a00109.html" target="_top" xlink:title="fcl::MeshCollisionTraversal\lNode\&lt; RSS \&gt;">
<polygon fill="white" stroke="black" points="619.5,-853 619.5,-883 754.5,-883 754.5,-853 619.5,-853"/>
<text text-anchor="start" x="627.5" y="-871" font-family="Helvetica,sans-Serif" font-size="10.00">fcl::MeshCollisionTraversal</text>
<text text-anchor="middle" x="687" y="-860" font-family="Helvetica,sans-Serif" font-size="10.00">Node&lt; RSS &gt;</text>
</a>
</g>
</g>
<!-- Node12&#45;&gt;Node13 -->
<g id="edge12" class="edge"><title>Node12&#45;&gt;Node13</title>
<path fill="none" stroke="midnightblue" d="M525.201,-868C555.481,-868 590.11,-868 619.458,-868"/>
<polygon fill="midnightblue" stroke="midnightblue" points="525.113,-864.5 515.113,-868 525.113,-871.5 525.113,-864.5"/>
</g>
<!-- Node14 -->
<g id="node14" class="node"><title>Node14</title>
<g id="a_node14"><a xlink:href="a00113.html" target="_top" xlink:title="fcl::MeshCollisionTraversal\lNodeRSS">
<polygon fill="white" stroke="black" points="858.5,-853 858.5,-883 993.5,-883 993.5,-853 858.5,-853"/>
<text text-anchor="start" x="866.5" y="-871" font-family="Helvetica,sans-Serif" font-size="10.00">fcl::MeshCollisionTraversal</text>
<text text-anchor="middle" x="926" y="-860" font-family="Helvetica,sans-Serif" font-size="10.00">NodeRSS</text>
</a>
</g>
</g>
<!-- Node13&#45;&gt;Node14 -->
<g id="edge13" class="edge"><title>Node13&#45;&gt;Node14</title>
<path fill="none" stroke="midnightblue" d="M764.721,-868C794.933,-868 829.3,-868 858.442,-868"/>
<polygon fill="midnightblue" stroke="midnightblue" points="764.648,-864.5 754.648,-868 764.648,-871.5 764.648,-864.5"/>
</g>
<!-- Node16 -->
<g id="node16" class="node"><title>Node16</title>
<g id="a_node16"><a xlink:href="a00124.html" target="_top" xlink:title="fcl::MeshShapeCollisionTraversal\lNode\&lt; kIOS, S, NarrowPhaseSolver \&gt;">
<polygon fill="white" stroke="black" points="594,-804 594,-834 780,-834 780,-804 594,-804"/>
<text text-anchor="start" x="602" y="-822" font-family="Helvetica,sans-Serif" font-size="10.00">fcl::MeshShapeCollisionTraversal</text>
<text text-anchor="middle" x="687" y="-811" font-family="Helvetica,sans-Serif" font-size="10.00">Node&lt; kIOS, S, NarrowPhaseSolver &gt;</text>
</a>
</g>
</g>
<!-- Node15&#45;&gt;Node16 -->
<g id="edge15" class="edge"><title>Node15&#45;&gt;Node16</title>
<path fill="none" stroke="midnightblue" d="M539.589,-819C557.366,-819 576.057,-819 593.915,-819"/>
<polygon fill="midnightblue" stroke="midnightblue" points="539.241,-815.5 529.241,-819 539.241,-822.5 539.241,-815.5"/>
</g>
<!-- Node17 -->
<g id="node17" class="node"><title>Node17</title>
<g id="a_node17"><a xlink:href="a00125.html" target="_top" xlink:title="fcl::MeshShapeCollisionTraversal\lNodekIOS\&lt; S, NarrowPhaseSolver \&gt;">
<polygon fill="white" stroke="black" points="836,-804 836,-834 1016,-834 1016,-804 836,-804"/>
<text text-anchor="start" x="844" y="-822" font-family="Helvetica,sans-Serif" font-size="10.00">fcl::MeshShapeCollisionTraversal</text>
<text text-anchor="middle" x="926" y="-811" font-family="Helvetica,sans-Serif" font-size="10.00">NodekIOS&lt; S, NarrowPhaseSolver &gt;</text>
</a>
</g>
</g>
<!-- Node16&#45;&gt;Node17 -->
<g id="edge16" class="edge"><title>Node16&#45;&gt;Node17</title>
<path fill="none" stroke="midnightblue" d="M790.624,-819C805.62,-819 820.961,-819 835.664,-819"/>
<polygon fill="midnightblue" stroke="midnightblue" points="790.309,-815.5 780.309,-819 790.309,-822.5 790.309,-815.5"/>
</g>
<!-- Node19 -->
<g id="node19" class="node"><title>Node19</title>
<g id="a_node19"><a xlink:href="a00124.html" target="_top" xlink:title="fcl::MeshShapeCollisionTraversal\lNode\&lt; OBB, S, NarrowPhaseSolver \&gt;">
<polygon fill="white" stroke="black" points="594.5,-755 594.5,-785 779.5,-785 779.5,-755 594.5,-755"/>
<text text-anchor="start" x="602.5" y="-773" font-family="Helvetica,sans-Serif" font-size="10.00">fcl::MeshShapeCollisionTraversal</text>
<text text-anchor="middle" x="687" y="-762" font-family="Helvetica,sans-Serif" font-size="10.00">Node&lt; OBB, S, NarrowPhaseSolver &gt;</text>
</a>
</g>
</g>
<!-- Node18&#45;&gt;Node19 -->
<g id="edge18" class="edge"><title>Node18&#45;&gt;Node19</title>
<path fill="none" stroke="midnightblue" d="M539.406,-770C557.374,-770 576.284,-770 594.329,-770"/>
<polygon fill="midnightblue" stroke="midnightblue" points="539.241,-766.5 529.241,-770 539.241,-773.5 539.241,-766.5"/>
</g>
<!-- Node20 -->
<g id="node20" class="node"><title>Node20</title>
<g id="a_node20"><a xlink:href="a00126.html" target="_top" xlink:title="Traversal node for mesh and shape, when mesh BVH is one of the oriented node (OBB, RSS, OBBRSS, kIOS) ">
<polygon fill="white" stroke="black" points="836.5,-755 836.5,-785 1015.5,-785 1015.5,-755 836.5,-755"/>
<text text-anchor="start" x="844.5" y="-773" font-family="Helvetica,sans-Serif" font-size="10.00">fcl::MeshShapeCollisionTraversal</text>
<text text-anchor="middle" x="926" y="-762" font-family="Helvetica,sans-Serif" font-size="10.00">NodeOBB&lt; S, NarrowPhaseSolver &gt;</text>
</a>
</g>
</g>
<!-- Node19&#45;&gt;Node20 -->
<g id="edge19" class="edge"><title>Node19&#45;&gt;Node20</title>
<path fill="none" stroke="midnightblue" d="M789.751,-770C805.254,-770 821.147,-770 836.34,-770"/>
<polygon fill="midnightblue" stroke="midnightblue" points="789.63,-766.5 779.63,-770 789.63,-773.5 789.63,-766.5"/>
</g>
<!-- Node22 -->
<g id="node22" class="node"><title>Node22</title>
<g id="a_node22"><a xlink:href="a00124.html" target="_top" xlink:title="fcl::MeshShapeCollisionTraversal\lNode\&lt; OBBRSS, S, NarrowPhaseSolver \&gt;">
<polygon fill="white" stroke="black" points="584,-706 584,-736 790,-736 790,-706 584,-706"/>
<text text-anchor="start" x="592" y="-724" font-family="Helvetica,sans-Serif" font-size="10.00">fcl::MeshShapeCollisionTraversal</text>
<text text-anchor="middle" x="687" y="-713" font-family="Helvetica,sans-Serif" font-size="10.00">Node&lt; OBBRSS, S, NarrowPhaseSolver &gt;</text>
</a>
</g>
</g>
<!-- Node21&#45;&gt;Node22 -->
<g id="edge21" class="edge"><title>Node21&#45;&gt;Node22</title>
<path fill="none" stroke="midnightblue" d="M539.653,-721C554.118,-721 569.186,-721 583.917,-721"/>
<polygon fill="midnightblue" stroke="midnightblue" points="539.241,-717.5 529.241,-721 539.241,-724.5 539.241,-717.5"/>
</g>
<!-- Node23 -->
<g id="node23" class="node"><title>Node23</title>
<g id="a_node23"><a xlink:href="a00127.html" target="_top" xlink:title="fcl::MeshShapeCollisionTraversal\lNodeOBBRSS\&lt; S, NarrowPhaseSolver \&gt;">
<polygon fill="white" stroke="black" points="826,-706 826,-736 1026,-736 1026,-706 826,-706"/>
<text text-anchor="start" x="834" y="-724" font-family="Helvetica,sans-Serif" font-size="10.00">fcl::MeshShapeCollisionTraversal</text>
<text text-anchor="middle" x="926" y="-713" font-family="Helvetica,sans-Serif" font-size="10.00">NodeOBBRSS&lt; S, NarrowPhaseSolver &gt;</text>
</a>
</g>
</g>
<!-- Node22&#45;&gt;Node23 -->
<g id="edge22" class="edge"><title>Node22&#45;&gt;Node23</title>
<path fill="none" stroke="midnightblue" d="M800.485,-721C808.918,-721 817.393,-721 825.737,-721"/>
<polygon fill="midnightblue" stroke="midnightblue" points="800.229,-717.5 790.229,-721 800.229,-724.5 800.229,-717.5"/>
</g>
<!-- Node25 -->
<g id="node25" class="node"><title>Node25</title>
<g id="a_node25"><a xlink:href="a00124.html" target="_top" xlink:title="fcl::MeshShapeCollisionTraversal\lNode\&lt; RSS, S, NarrowPhaseSolver \&gt;">
<polygon fill="white" stroke="black" points="594.5,-657 594.5,-687 779.5,-687 779.5,-657 594.5,-657"/>
<text text-anchor="start" x="602.5" y="-675" font-family="Helvetica,sans-Serif" font-size="10.00">fcl::MeshShapeCollisionTraversal</text>
<text text-anchor="middle" x="687" y="-664" font-family="Helvetica,sans-Serif" font-size="10.00">Node&lt; RSS, S, NarrowPhaseSolver &gt;</text>
</a>
</g>
</g>
<!-- Node24&#45;&gt;Node25 -->
<g id="edge24" class="edge"><title>Node24&#45;&gt;Node25</title>
<path fill="none" stroke="midnightblue" d="M539.406,-672C557.374,-672 576.284,-672 594.329,-672"/>
<polygon fill="midnightblue" stroke="midnightblue" points="539.241,-668.5 529.241,-672 539.241,-675.5 539.241,-668.5"/>
</g>
<!-- Node26 -->
<g id="node26" class="node"><title>Node26</title>
<g id="a_node26"><a xlink:href="a00128.html" target="_top" xlink:title="fcl::MeshShapeCollisionTraversal\lNodeRSS\&lt; S, NarrowPhaseSolver \&gt;">
<polygon fill="white" stroke="black" points="836.5,-657 836.5,-687 1015.5,-687 1015.5,-657 836.5,-657"/>
<text text-anchor="start" x="844.5" y="-675" font-family="Helvetica,sans-Serif" font-size="10.00">fcl::MeshShapeCollisionTraversal</text>
<text text-anchor="middle" x="926" y="-664" font-family="Helvetica,sans-Serif" font-size="10.00">NodeRSS&lt; S, NarrowPhaseSolver &gt;</text>
</a>
</g>
</g>
<!-- Node25&#45;&gt;Node26 -->
<g id="edge25" class="edge"><title>Node25&#45;&gt;Node26</title>
<path fill="none" stroke="midnightblue" d="M789.751,-672C805.254,-672 821.147,-672 836.34,-672"/>
<polygon fill="midnightblue" stroke="midnightblue" points="789.63,-668.5 779.63,-672 789.63,-675.5 789.63,-668.5"/>
</g>
<!-- Node28 -->
<g id="node28" class="node"><title>Node28</title>
<g id="a_node28"><a xlink:href="a00109.html" target="_top" xlink:title="Traversal node for collision between two meshes. ">
<polygon fill="white" stroke="black" points="619.5,-608 619.5,-638 754.5,-638 754.5,-608 619.5,-608"/>
<text text-anchor="start" x="627.5" y="-626" font-family="Helvetica,sans-Serif" font-size="10.00">fcl::MeshCollisionTraversal</text>
<text text-anchor="middle" x="687" y="-615" font-family="Helvetica,sans-Serif" font-size="10.00">Node&lt; BV &gt;</text>
</a>
</g>
</g>
<!-- Node27&#45;&gt;Node28 -->
<g id="edge27" class="edge"><title>Node27&#45;&gt;Node28</title>
<path fill="none" stroke="midnightblue" d="M525.201,-623C555.481,-623 590.11,-623 619.458,-623"/>
<polygon fill="midnightblue" stroke="midnightblue" points="525.113,-619.5 515.113,-623 525.113,-626.5 525.113,-619.5"/>
</g>
<!-- Node29 -->
<g id="node29" class="node"><title>Node29</title>
<g id="a_node29"><a xlink:href="a00117.html" target="_top" xlink:title="Traversal node for continuous collision between meshes. ">
<polygon fill="white" stroke="black" points="615,-559 615,-589 759,-589 759,-559 615,-559"/>
<text text-anchor="start" x="623" y="-577" font-family="Helvetica,sans-Serif" font-size="10.00">fcl::MeshContinuousCollision</text>
<text text-anchor="middle" x="687" y="-566" font-family="Helvetica,sans-Serif" font-size="10.00">TraversalNode&lt; BV &gt;</text>
</a>
</g>
</g>
<!-- Node27&#45;&gt;Node29 -->
<g id="edge28" class="edge"><title>Node27&#45;&gt;Node29</title>
<path fill="none" stroke="midnightblue" d="M525.103,-607.407C553.849,-601.438 586.527,-594.653 614.888,-588.765"/>
<polygon fill="midnightblue" stroke="midnightblue" points="524.192,-604.021 515.113,-609.481 525.615,-610.875 524.192,-604.021"/>
</g>
<!-- Node31 -->
<g id="node31" class="node"><title>Node31</title>
<g id="a_node31"><a xlink:href="a00124.html" target="_top" xlink:title="Traversal node for collision between mesh and shape. ">
<polygon fill="white" stroke="black" points="605.5,-510 605.5,-540 768.5,-540 768.5,-510 605.5,-510"/>
<text text-anchor="start" x="613.5" y="-528" font-family="Helvetica,sans-Serif" font-size="10.00">fcl::MeshShapeCollisionTraversal</text>
<text text-anchor="middle" x="687" y="-517" font-family="Helvetica,sans-Serif" font-size="10.00">Node&lt; BV, S &gt;</text>
</a>
</g>
</g>
<!-- Node30&#45;&gt;Node31 -->
<g id="edge30" class="edge"><title>Node30&#45;&gt;Node31</title>
<path fill="none" stroke="midnightblue" d="M532.42,-556.887C558.904,-551.389 588.026,-545.342 613.725,-540.006"/>
<polygon fill="midnightblue" stroke="midnightblue" points="531.491,-553.505 522.412,-558.965 532.914,-560.359 531.491,-553.505"/>
</g>
<!-- Node37 -->
<g id="node37" class="node"><title>Node37</title>
<g id="a_node37"><a xlink:href="a00204.html" target="_top" xlink:title="Traversal node for collision between shape and mesh. ">
<polygon fill="white" stroke="black" points="605.5,-294 605.5,-324 768.5,-324 768.5,-294 605.5,-294"/>
<text text-anchor="start" x="613.5" y="-312" font-family="Helvetica,sans-Serif" font-size="10.00">fcl::ShapeMeshCollisionTraversal</text>
<text text-anchor="middle" x="687" y="-301" font-family="Helvetica,sans-Serif" font-size="10.00">Node&lt; S, BV &gt;</text>
</a>
</g>
</g>
<!-- Node36&#45;&gt;Node37 -->
<g id="edge36" class="edge"><title>Node36&#45;&gt;Node37</title>
<path fill="none" stroke="midnightblue" d="M539.42,-309C561.088,-309 584.123,-309 605.359,-309"/>
<polygon fill="midnightblue" stroke="midnightblue" points="539.241,-305.5 529.241,-309 539.241,-312.5 539.241,-305.5"/>
</g>
<!-- Node41 -->
<g id="node41" class="node"><title>Node41</title>
<g id="a_node41"><a xlink:href="a00204.html" target="_top" xlink:title="fcl::ShapeMeshCollisionTraversal\lNode\&lt; S, kIOS, NarrowPhaseSolver \&gt;">
<polygon fill="white" stroke="black" points="594,-147 594,-177 780,-177 780,-147 594,-147"/>
<text text-anchor="start" x="602" y="-165" font-family="Helvetica,sans-Serif" font-size="10.00">fcl::ShapeMeshCollisionTraversal</text>
<text text-anchor="middle" x="687" y="-154" font-family="Helvetica,sans-Serif" font-size="10.00">Node&lt; S, kIOS, NarrowPhaseSolver &gt;</text>
</a>
</g>
</g>
<!-- Node40&#45;&gt;Node41 -->
<g id="edge40" class="edge"><title>Node40&#45;&gt;Node41</title>
<path fill="none" stroke="midnightblue" d="M539.589,-162C557.366,-162 576.057,-162 593.915,-162"/>
<polygon fill="midnightblue" stroke="midnightblue" points="539.241,-158.5 529.241,-162 539.241,-165.5 539.241,-158.5"/>
</g>
<!-- Node42 -->
<g id="node42" class="node"><title>Node42</title>
<g id="a_node42"><a xlink:href="a00205.html" target="_top" xlink:title="fcl::ShapeMeshCollisionTraversal\lNodekIOS\&lt; S, NarrowPhaseSolver \&gt;">
<polygon fill="white" stroke="black" points="836,-147 836,-177 1016,-177 1016,-147 836,-147"/>
<text text-anchor="start" x="844" y="-165" font-family="Helvetica,sans-Serif" font-size="10.00">fcl::ShapeMeshCollisionTraversal</text>
<text text-anchor="middle" x="926" y="-154" font-family="Helvetica,sans-Serif" font-size="10.00">NodekIOS&lt; S, NarrowPhaseSolver &gt;</text>
</a>
</g>
</g>
<!-- Node41&#45;&gt;Node42 -->
<g id="edge41" class="edge"><title>Node41&#45;&gt;Node42</title>
<path fill="none" stroke="midnightblue" d="M790.624,-162C805.62,-162 820.961,-162 835.664,-162"/>
<polygon fill="midnightblue" stroke="midnightblue" points="790.309,-158.5 780.309,-162 790.309,-165.5 790.309,-158.5"/>
</g>
<!-- Node44 -->
<g id="node44" class="node"><title>Node44</title>
<g id="a_node44"><a xlink:href="a00204.html" target="_top" xlink:title="fcl::ShapeMeshCollisionTraversal\lNode\&lt; S, OBB, NarrowPhaseSolver \&gt;">
<polygon fill="white" stroke="black" points="594.5,-98 594.5,-128 779.5,-128 779.5,-98 594.5,-98"/>
<text text-anchor="start" x="602.5" y="-116" font-family="Helvetica,sans-Serif" font-size="10.00">fcl::ShapeMeshCollisionTraversal</text>
<text text-anchor="middle" x="687" y="-105" font-family="Helvetica,sans-Serif" font-size="10.00">Node&lt; S, OBB, NarrowPhaseSolver &gt;</text>
</a>
</g>
</g>
<!-- Node43&#45;&gt;Node44 -->
<g id="edge43" class="edge"><title>Node43&#45;&gt;Node44</title>
<path fill="none" stroke="midnightblue" d="M539.406,-113C557.374,-113 576.284,-113 594.329,-113"/>
<polygon fill="midnightblue" stroke="midnightblue" points="539.241,-109.5 529.241,-113 539.241,-116.5 539.241,-109.5"/>
</g>
<!-- Node45 -->
<g id="node45" class="node"><title>Node45</title>
<g id="a_node45"><a xlink:href="a00206.html" target="_top" xlink:title="Traversal node for shape and mesh, when mesh BVH is one of the oriented node (OBB, RSS, OBBRSS, kIOS) ">
<polygon fill="white" stroke="black" points="836.5,-98 836.5,-128 1015.5,-128 1015.5,-98 836.5,-98"/>
<text text-anchor="start" x="844.5" y="-116" font-family="Helvetica,sans-Serif" font-size="10.00">fcl::ShapeMeshCollisionTraversal</text>
<text text-anchor="middle" x="926" y="-105" font-family="Helvetica,sans-Serif" font-size="10.00">NodeOBB&lt; S, NarrowPhaseSolver &gt;</text>
</a>
</g>
</g>
<!-- Node44&#45;&gt;Node45 -->
<g id="edge44" class="edge"><title>Node44&#45;&gt;Node45</title>
<path fill="none" stroke="midnightblue" d="M789.751,-113C805.254,-113 821.147,-113 836.34,-113"/>
<polygon fill="midnightblue" stroke="midnightblue" points="789.63,-109.5 779.63,-113 789.63,-116.5 789.63,-109.5"/>
</g>
<!-- Node47 -->
<g id="node47" class="node"><title>Node47</title>
<g id="a_node47"><a xlink:href="a00204.html" target="_top" xlink:title="fcl::ShapeMeshCollisionTraversal\lNode\&lt; S, OBBRSS, NarrowPhaseSolver \&gt;">
<polygon fill="white" stroke="red" points="584,-49 584,-79 790,-79 790,-49 584,-49"/>
<text text-anchor="start" x="592" y="-67" font-family="Helvetica,sans-Serif" font-size="10.00">fcl::ShapeMeshCollisionTraversal</text>
<text text-anchor="middle" x="687" y="-56" font-family="Helvetica,sans-Serif" font-size="10.00">Node&lt; S, OBBRSS, NarrowPhaseSolver &gt;</text>
</a>
</g>
</g>
<!-- Node46&#45;&gt;Node47 -->
<g id="edge46" class="edge"><title>Node46&#45;&gt;Node47</title>
<path fill="none" stroke="midnightblue" d="M539.653,-64C554.118,-64 569.186,-64 583.917,-64"/>
<polygon fill="midnightblue" stroke="midnightblue" points="539.241,-60.5001 529.241,-64 539.241,-67.5001 539.241,-60.5001"/>
</g>
<!-- Node49 -->
<g id="node49" class="node"><title>Node49</title>
<g id="a_node49"><a xlink:href="a00204.html" target="_top" xlink:title="fcl::ShapeMeshCollisionTraversal\lNode\&lt; S, RSS, NarrowPhaseSolver \&gt;">
<polygon fill="white" stroke="red" points="594.5,-0 594.5,-30 779.5,-30 779.5,-0 594.5,-0"/>
<text text-anchor="start" x="602.5" y="-18" font-family="Helvetica,sans-Serif" font-size="10.00">fcl::ShapeMeshCollisionTraversal</text>
<text text-anchor="middle" x="687" y="-7" font-family="Helvetica,sans-Serif" font-size="10.00">Node&lt; S, RSS, NarrowPhaseSolver &gt;</text>
</a>
</g>
</g>
<!-- Node48&#45;&gt;Node49 -->
<g id="edge48" class="edge"><title>Node48&#45;&gt;Node49</title>
<path fill="none" stroke="midnightblue" d="M539.406,-15C557.374,-15 576.284,-15 594.329,-15"/>
<polygon fill="midnightblue" stroke="midnightblue" points="539.241,-11.5001 529.241,-15 539.241,-18.5001 539.241,-11.5001"/>
</g>
</g>
</svg>
