<?xml version="1.0" encoding="UTF-8" standalone="no"?>
<!DOCTYPE svg PUBLIC "-//W3C//DTD SVG 1.1//EN"
 "http://www.w3.org/Graphics/SVG/1.1/DTD/svg11.dtd">
<!-- Generated by graphviz version 2.36.0 (20140111.2315)
 -->
<!-- Title: fcl::DistanceTraversalNodeBase Pages: 1 -->
<svg width="1034pt" height="1000pt"
 viewBox="0.00 0.00 1034.00 1000.00" xmlns="http://www.w3.org/2000/svg" xmlns:xlink="http://www.w3.org/1999/xlink">
<g id="graph0" class="graph" transform="scale(1 1) rotate(0) translate(4 996)">
<title>fcl::DistanceTraversalNodeBase</title>
<polygon fill="white" stroke="none" points="-4,4 -4,-996 1030,-996 1030,4 -4,4"/>
<!-- Node1 -->
<g id="node1" class="node"><title>Node1</title>
<polygon fill="#bfbfbf" stroke="black" points="156,-451.5 156,-470.5 314,-470.5 314,-451.5 156,-451.5"/>
<text text-anchor="middle" x="235" y="-458.5" font-family="Helvetica,sans-Serif" font-size="10.00">fcl::DistanceTraversalNodeBase</text>
</g>
<!-- Node3 -->
<g id="node3" class="node"><title>Node3</title>
<g id="a_node3"><a xlink:href="a00020.html" target="_top" xlink:title="fcl::BVHDistanceTraversal\lNode\&lt; kIOS \&gt;">
<polygon fill="white" stroke="black" points="374,-924 374,-954 508,-954 508,-924 374,-924"/>
<text text-anchor="start" x="382" y="-942" font-family="Helvetica,sans-Serif" font-size="10.00">fcl::BVHDistanceTraversal</text>
<text text-anchor="middle" x="441" y="-931" font-family="Helvetica,sans-Serif" font-size="10.00">Node&lt; kIOS &gt;</text>
</a>
</g>
</g>
<!-- Node1&#45;&gt;Node3 -->
<g id="edge2" class="edge"><title>Node1&#45;&gt;Node3</title>
<path fill="none" stroke="midnightblue" d="M236.665,-480.709C239.721,-544.315 256.679,-747.558 350,-878 364.388,-898.111 387.617,-913.612 406.873,-923.956"/>
<polygon fill="midnightblue" stroke="midnightblue" points="240.154,-480.353 236.241,-470.507 233.16,-480.644 240.154,-480.353"/>
</g>
<!-- Node6 -->
<g id="node6" class="node"><title>Node6</title>
<g id="a_node6"><a xlink:href="a00020.html" target="_top" xlink:title="fcl::BVHDistanceTraversal\lNode\&lt; OBBRSS \&gt;">
<polygon fill="white" stroke="black" points="374,-839 374,-869 508,-869 508,-839 374,-839"/>
<text text-anchor="start" x="382" y="-857" font-family="Helvetica,sans-Serif" font-size="10.00">fcl::BVHDistanceTraversal</text>
<text text-anchor="middle" x="441" y="-846" font-family="Helvetica,sans-Serif" font-size="10.00">Node&lt; OBBRSS &gt;</text>
</a>
</g>
</g>
<!-- Node1&#45;&gt;Node6 -->
<g id="edge5" class="edge"><title>Node1&#45;&gt;Node6</title>
<path fill="none" stroke="midnightblue" d="M237.607,-480.772C243.155,-537.426 266.061,-702.77 350,-804 362.778,-819.411 381.602,-830.907 398.736,-838.965"/>
<polygon fill="midnightblue" stroke="midnightblue" points="241.079,-480.31 236.693,-470.666 234.108,-480.941 241.079,-480.31"/>
</g>
<!-- Node10 -->
<g id="node10" class="node"><title>Node10</title>
<g id="a_node10"><a xlink:href="a00020.html" target="_top" xlink:title="fcl::BVHDistanceTraversal\lNode\&lt; RSS \&gt;">
<polygon fill="white" stroke="black" points="374,-765 374,-795 508,-795 508,-765 374,-765"/>
<text text-anchor="start" x="382" y="-783" font-family="Helvetica,sans-Serif" font-size="10.00">fcl::BVHDistanceTraversal</text>
<text text-anchor="middle" x="441" y="-772" font-family="Helvetica,sans-Serif" font-size="10.00">Node&lt; RSS &gt;</text>
</a>
</g>
</g>
<!-- Node1&#45;&gt;Node10 -->
<g id="edge9" class="edge"><title>Node1&#45;&gt;Node10</title>
<path fill="none" stroke="midnightblue" d="M237.675,-480.608C243.246,-533.248 265.887,-678.825 350,-755 356.851,-761.205 365.114,-765.886 373.819,-769.414"/>
<polygon fill="midnightblue" stroke="midnightblue" points="241.153,-480.203 236.707,-470.585 234.185,-480.876 241.153,-480.203"/>
</g>
<!-- Node14 -->
<g id="node14" class="node"><title>Node14</title>
<g id="a_node14"><a xlink:href="a00024.html" target="_top" xlink:title="fcl::BVHShapeDistanceTraversal\lNode\&lt; kIOS, S \&gt;">
<polygon fill="white" stroke="black" points="360.5,-716 360.5,-746 521.5,-746 521.5,-716 360.5,-716"/>
<text text-anchor="start" x="368.5" y="-734" font-family="Helvetica,sans-Serif" font-size="10.00">fcl::BVHShapeDistanceTraversal</text>
<text text-anchor="middle" x="441" y="-723" font-family="Helvetica,sans-Serif" font-size="10.00">Node&lt; kIOS, S &gt;</text>
</a>
</g>
</g>
<!-- Node1&#45;&gt;Node14 -->
<g id="edge13" class="edge"><title>Node1&#45;&gt;Node14</title>
<path fill="none" stroke="midnightblue" d="M239.385,-480.705C248.432,-527.238 277.596,-644.628 350,-706 354.577,-709.88 359.711,-713.16 365.146,-715.934"/>
<polygon fill="midnightblue" stroke="midnightblue" points="242.798,-479.912 237.544,-470.711 235.913,-481.18 242.798,-479.912"/>
</g>
<!-- Node17 -->
<g id="node17" class="node"><title>Node17</title>
<g id="a_node17"><a xlink:href="a00024.html" target="_top" xlink:title="fcl::BVHShapeDistanceTraversal\lNode\&lt; OBBRSS, S \&gt;">
<polygon fill="white" stroke="black" points="360.5,-667 360.5,-697 521.5,-697 521.5,-667 360.5,-667"/>
<text text-anchor="start" x="368.5" y="-685" font-family="Helvetica,sans-Serif" font-size="10.00">fcl::BVHShapeDistanceTraversal</text>
<text text-anchor="middle" x="441" y="-674" font-family="Helvetica,sans-Serif" font-size="10.00">Node&lt; OBBRSS, S &gt;</text>
</a>
</g>
</g>
<!-- Node1&#45;&gt;Node17 -->
<g id="edge16" class="edge"><title>Node1&#45;&gt;Node17</title>
<path fill="none" stroke="midnightblue" d="M241.863,-480.72C254.685,-520.364 289.05,-609.943 350,-657 355.006,-660.865 360.576,-664.133 366.421,-666.895"/>
<polygon fill="midnightblue" stroke="midnightblue" points="245.132,-479.444 238.814,-470.939 238.449,-481.527 245.132,-479.444"/>
</g>
<!-- Node21 -->
<g id="node21" class="node"><title>Node21</title>
<g id="a_node21"><a xlink:href="a00024.html" target="_top" xlink:title="fcl::BVHShapeDistanceTraversal\lNode\&lt; RSS, S \&gt;">
<polygon fill="white" stroke="black" points="360.5,-618 360.5,-648 521.5,-648 521.5,-618 360.5,-618"/>
<text text-anchor="start" x="368.5" y="-636" font-family="Helvetica,sans-Serif" font-size="10.00">fcl::BVHShapeDistanceTraversal</text>
<text text-anchor="middle" x="441" y="-625" font-family="Helvetica,sans-Serif" font-size="10.00">Node&lt; RSS, S &gt;</text>
</a>
</g>
</g>
<!-- Node1&#45;&gt;Node21 -->
<g id="edge20" class="edge"><title>Node1&#45;&gt;Node21</title>
<path fill="none" stroke="midnightblue" d="M245.268,-479.6C261.861,-510.959 299.668,-574.223 350,-608 355.79,-611.886 362.174,-615.171 368.79,-617.949"/>
<polygon fill="midnightblue" stroke="midnightblue" points="248.331,-477.902 240.638,-470.618 242.109,-481.11 248.331,-477.902"/>
</g>
<!-- Node25 -->
<g id="node25" class="node"><title>Node25</title>
<g id="a_node25"><a xlink:href="a00020.html" target="_top" xlink:title="Traversal node for distance computation between BVH models. ">
<polygon fill="white" stroke="black" points="374,-569 374,-599 508,-599 508,-569 374,-569"/>
<text text-anchor="start" x="382" y="-587" font-family="Helvetica,sans-Serif" font-size="10.00">fcl::BVHDistanceTraversal</text>
<text text-anchor="middle" x="441" y="-576" font-family="Helvetica,sans-Serif" font-size="10.00">Node&lt; BV &gt;</text>
</a>
</g>
</g>
<!-- Node1&#45;&gt;Node25 -->
<g id="edge24" class="edge"><title>Node1&#45;&gt;Node25</title>
<path fill="none" stroke="midnightblue" d="M251.338,-478.215C271.762,-500.109 309.988,-537.632 350,-559 357.438,-562.972 365.568,-566.363 373.802,-569.243"/>
<polygon fill="midnightblue" stroke="midnightblue" points="253.75,-475.667 244.415,-470.655 248.587,-480.394 253.75,-475.667"/>
</g>
<!-- Node28 -->
<g id="node28" class="node"><title>Node28</title>
<g id="a_node28"><a xlink:href="a00024.html" target="_top" xlink:title="Traversal node for distance computation between BVH and shape. ">
<polygon fill="white" stroke="black" points="360.5,-520 360.5,-550 521.5,-550 521.5,-520 360.5,-520"/>
<text text-anchor="start" x="368.5" y="-538" font-family="Helvetica,sans-Serif" font-size="10.00">fcl::BVHShapeDistanceTraversal</text>
<text text-anchor="middle" x="441" y="-527" font-family="Helvetica,sans-Serif" font-size="10.00">Node&lt; BV, S &gt;</text>
</a>
</g>
</g>
<!-- Node1&#45;&gt;Node28 -->
<g id="edge27" class="edge"><title>Node1&#45;&gt;Node28</title>
<path fill="none" stroke="midnightblue" d="M264.975,-474.744C287.763,-485.237 320.485,-499.611 350,-510 359.943,-513.5 370.639,-516.834 381.064,-519.861"/>
<polygon fill="midnightblue" stroke="midnightblue" points="266.399,-471.546 255.856,-470.508 263.45,-477.895 266.399,-471.546"/>
</g>
<!-- Node31 -->
<g id="node31" class="node"><title>Node31</title>
<g id="a_node31"><a xlink:href="a00123.html" target="_top" xlink:title="Traversal node for mesh&#45;octree distance. ">
<polygon fill="white" stroke="black" points="356.5,-471 356.5,-501 525.5,-501 525.5,-471 356.5,-471"/>
<text text-anchor="start" x="364.5" y="-489" font-family="Helvetica,sans-Serif" font-size="10.00">fcl::MeshOcTreeDistanceTraversal</text>
<text text-anchor="middle" x="441" y="-478" font-family="Helvetica,sans-Serif" font-size="10.00">Node&lt; BV, NarrowPhaseSolver &gt;</text>
</a>
</g>
</g>
<!-- Node1&#45;&gt;Node31 -->
<g id="edge30" class="edge"><title>Node1&#45;&gt;Node31</title>
<path fill="none" stroke="midnightblue" d="M323.947,-471.778C334.715,-473.097 345.695,-474.443 356.395,-475.754"/>
<polygon fill="midnightblue" stroke="midnightblue" points="324.057,-468.265 313.706,-470.523 323.206,-475.213 324.057,-468.265"/>
</g>
<!-- Node32 -->
<g id="node32" class="node"><title>Node32</title>
<g id="a_node32"><a xlink:href="a00158.html" target="_top" xlink:title="Traversal node for octree distance. ">
<polygon fill="white" stroke="black" points="368.5,-422 368.5,-452 513.5,-452 513.5,-422 368.5,-422"/>
<text text-anchor="start" x="376.5" y="-440" font-family="Helvetica,sans-Serif" font-size="10.00">fcl::OcTreeDistanceTraversal</text>
<text text-anchor="middle" x="441" y="-429" font-family="Helvetica,sans-Serif" font-size="10.00">Node&lt; NarrowPhaseSolver &gt;</text>
</a>
</g>
</g>
<!-- Node1&#45;&gt;Node32 -->
<g id="edge31" class="edge"><title>Node1&#45;&gt;Node32</title>
<path fill="none" stroke="midnightblue" d="M324.366,-450.604C339.034,-448.878 354.084,-447.108 368.274,-445.438"/>
<polygon fill="midnightblue" stroke="midnightblue" points="323.811,-447.145 314.288,-451.79 324.629,-454.097 323.811,-447.145"/>
</g>
<!-- Node33 -->
<g id="node33" class="node"><title>Node33</title>
<g id="a_node33"><a xlink:href="a00160.html" target="_top" xlink:title="Traversal node for octree&#45;mesh distance. ">
<polygon fill="white" stroke="black" points="356.5,-373 356.5,-403 525.5,-403 525.5,-373 356.5,-373"/>
<text text-anchor="start" x="364.5" y="-391" font-family="Helvetica,sans-Serif" font-size="10.00">fcl::OcTreeMeshDistanceTraversal</text>
<text text-anchor="middle" x="441" y="-380" font-family="Helvetica,sans-Serif" font-size="10.00">Node&lt; BV, NarrowPhaseSolver &gt;</text>
</a>
</g>
</g>
<!-- Node1&#45;&gt;Node33 -->
<g id="edge32" class="edge"><title>Node1&#45;&gt;Node33</title>
<path fill="none" stroke="midnightblue" d="M265.835,-447.203C288.599,-436.98 320.894,-423.124 350,-413 360.109,-409.484 370.987,-406.119 381.567,-403.061"/>
<polygon fill="midnightblue" stroke="midnightblue" points="264.364,-444.027 256.699,-451.341 267.252,-450.403 264.364,-444.027"/>
</g>
<!-- Node34 -->
<g id="node34" class="node"><title>Node34</title>
<g id="a_node34"><a xlink:href="a00162.html" target="_top" xlink:title="Traversal node for octree&#45;shape distance. ">
<polygon fill="white" stroke="black" points="360.5,-313.5 360.5,-354.5 521.5,-354.5 521.5,-313.5 360.5,-313.5"/>
<text text-anchor="start" x="368.5" y="-342.5" font-family="Helvetica,sans-Serif" font-size="10.00">fcl::OcTreeShapeDistance</text>
<text text-anchor="start" x="368.5" y="-331.5" font-family="Helvetica,sans-Serif" font-size="10.00">TraversalNode&lt; S, NarrowPhase</text>
<text text-anchor="middle" x="441" y="-320.5" font-family="Helvetica,sans-Serif" font-size="10.00">Solver &gt;</text>
</a>
</g>
</g>
<!-- Node1&#45;&gt;Node34 -->
<g id="edge33" class="edge"><title>Node1&#45;&gt;Node34</title>
<path fill="none" stroke="midnightblue" d="M251.862,-443.952C272.584,-422.577 310.859,-386.068 350,-364 356.169,-360.522 362.805,-357.366 369.577,-354.521"/>
<polygon fill="midnightblue" stroke="midnightblue" points="249.184,-441.689 244.815,-451.341 254.249,-446.521 249.184,-441.689"/>
</g>
<!-- Node35 -->
<g id="node35" class="node"><title>Node35</title>
<g id="a_node35"><a xlink:href="a00200.html" target="_top" xlink:title="Traversal node for distance computation between shape and BVH. ">
<polygon fill="white" stroke="black" points="360.5,-265 360.5,-295 521.5,-295 521.5,-265 360.5,-265"/>
<text text-anchor="start" x="368.5" y="-283" font-family="Helvetica,sans-Serif" font-size="10.00">fcl::ShapeBVHDistanceTraversal</text>
<text text-anchor="middle" x="441" y="-272" font-family="Helvetica,sans-Serif" font-size="10.00">Node&lt; S, BV &gt;</text>
</a>
</g>
</g>
<!-- Node1&#45;&gt;Node35 -->
<g id="edge34" class="edge"><title>Node1&#45;&gt;Node35</title>
<path fill="none" stroke="midnightblue" d="M244.43,-442.032C260.198,-408.793 297.38,-340.129 350,-304 355.066,-300.522 360.611,-297.547 366.381,-295.004"/>
<polygon fill="midnightblue" stroke="midnightblue" points="241.077,-440.946 240.071,-451.493 247.435,-443.875 241.077,-440.946"/>
</g>
<!-- Node38 -->
<g id="node38" class="node"><title>Node38</title>
<g id="a_node38"><a xlink:href="a00203.html" target="_top" xlink:title="Traversal node for distance between two shapes. ">
<polygon fill="white" stroke="black" points="350.5,-216 350.5,-246 531.5,-246 531.5,-216 350.5,-216"/>
<text text-anchor="start" x="358.5" y="-234" font-family="Helvetica,sans-Serif" font-size="10.00">fcl::ShapeDistanceTraversal</text>
<text text-anchor="middle" x="441" y="-223" font-family="Helvetica,sans-Serif" font-size="10.00">Node&lt; S1, S2, NarrowPhaseSolver &gt;</text>
</a>
</g>
</g>
<!-- Node1&#45;&gt;Node38 -->
<g id="edge37" class="edge"><title>Node1&#45;&gt;Node38</title>
<path fill="none" stroke="midnightblue" d="M241.342,-441.227C253.46,-400.222 286.993,-305.623 350,-256 354.969,-252.087 360.512,-248.786 366.34,-246.001"/>
<polygon fill="midnightblue" stroke="midnightblue" points="237.91,-440.502 238.543,-451.078 244.643,-442.416 237.91,-440.502"/>
</g>
<!-- Node40 -->
<g id="node40" class="node"><title>Node40</title>
<g id="a_node40"><a xlink:href="a00217.html" target="_top" xlink:title="Traversal node for shape&#45;octree distance. ">
<polygon fill="white" stroke="black" points="360.5,-156.5 360.5,-197.5 521.5,-197.5 521.5,-156.5 360.5,-156.5"/>
<text text-anchor="start" x="368.5" y="-185.5" font-family="Helvetica,sans-Serif" font-size="10.00">fcl::ShapeOcTreeDistance</text>
<text text-anchor="start" x="368.5" y="-174.5" font-family="Helvetica,sans-Serif" font-size="10.00">TraversalNode&lt; S, NarrowPhase</text>
<text text-anchor="middle" x="441" y="-163.5" font-family="Helvetica,sans-Serif" font-size="10.00">Solver &gt;</text>
</a>
</g>
</g>
<!-- Node1&#45;&gt;Node40 -->
<g id="edge39" class="edge"><title>Node1&#45;&gt;Node40</title>
<path fill="none" stroke="midnightblue" d="M239.251,-441.457C248.127,-394.219 277.159,-272.89 350,-207 353.909,-203.464 358.246,-200.344 362.845,-197.59"/>
<polygon fill="midnightblue" stroke="midnightblue" points="235.802,-440.864 237.493,-451.323 242.693,-442.092 235.802,-440.864"/>
</g>
<!-- Node41 -->
<g id="node41" class="node"><title>Node41</title>
<g id="a_node41"><a xlink:href="a00200.html" target="_top" xlink:title="fcl::ShapeBVHDistanceTraversal\lNode\&lt; S, kIOS \&gt;">
<polygon fill="white" stroke="black" points="360.5,-108 360.5,-138 521.5,-138 521.5,-108 360.5,-108"/>
<text text-anchor="start" x="368.5" y="-126" font-family="Helvetica,sans-Serif" font-size="10.00">fcl::ShapeBVHDistanceTraversal</text>
<text text-anchor="middle" x="441" y="-115" font-family="Helvetica,sans-Serif" font-size="10.00">Node&lt; S, kIOS &gt;</text>
</a>
</g>
</g>
<!-- Node1&#45;&gt;Node41 -->
<g id="edge40" class="edge"><title>Node1&#45;&gt;Node41</title>
<path fill="none" stroke="midnightblue" d="M237.099,-441.142C241.261,-385.834 260.764,-228.737 350,-147 353.697,-143.614 357.818,-140.696 362.206,-138.183"/>
<polygon fill="midnightblue" stroke="midnightblue" points="233.592,-441.126 236.424,-451.336 240.577,-441.589 233.592,-441.126"/>
</g>
<!-- Node44 -->
<g id="node44" class="node"><title>Node44</title>
<g id="a_node44"><a xlink:href="a00200.html" target="_top" xlink:title="fcl::ShapeBVHDistanceTraversal\lNode\&lt; S, OBBRSS \&gt;">
<polygon fill="white" stroke="black" points="360.5,-59 360.5,-89 521.5,-89 521.5,-59 360.5,-59"/>
<text text-anchor="start" x="368.5" y="-77" font-family="Helvetica,sans-Serif" font-size="10.00">fcl::ShapeBVHDistanceTraversal</text>
<text text-anchor="middle" x="441" y="-66" font-family="Helvetica,sans-Serif" font-size="10.00">Node&lt; S, OBBRSS &gt;</text>
</a>
</g>
</g>
<!-- Node1&#45;&gt;Node44 -->
<g id="edge43" class="edge"><title>Node1&#45;&gt;Node44</title>
<path fill="none" stroke="midnightblue" d="M236.046,-441.066C237.31,-380.358 249.628,-196.003 350,-99 353.965,-95.1684 358.464,-91.9135 363.285,-89.1499"/>
<polygon fill="midnightblue" stroke="midnightblue" points="232.545,-441.163 235.919,-451.206 239.544,-441.251 232.545,-441.163"/>
</g>
<!-- Node48 -->
<g id="node48" class="node"><title>Node48</title>
<g id="a_node48"><a xlink:href="a00200.html" target="_top" xlink:title="fcl::ShapeBVHDistanceTraversal\lNode\&lt; S, RSS \&gt;">
<polygon fill="white" stroke="black" points="360.5,-10 360.5,-40 521.5,-40 521.5,-10 360.5,-10"/>
<text text-anchor="start" x="368.5" y="-28" font-family="Helvetica,sans-Serif" font-size="10.00">fcl::ShapeBVHDistanceTraversal</text>
<text text-anchor="middle" x="441" y="-17" font-family="Helvetica,sans-Serif" font-size="10.00">Node&lt; S, RSS &gt;</text>
</a>
</g>
</g>
<!-- Node1&#45;&gt;Node48 -->
<g id="edge47" class="edge"><title>Node1&#45;&gt;Node48</title>
<path fill="none" stroke="midnightblue" d="M238.895,-441.111C250.082,-366.87 292.73,-107.291 350,-50 353.783,-46.2152 358.087,-42.9908 362.713,-40.2451"/>
<polygon fill="midnightblue" stroke="midnightblue" points="235.377,-440.97 237.372,-451.375 242.302,-441.997 235.377,-440.97"/>
</g>
<!-- Node2 -->
<g id="node2" class="node"><title>Node2</title>
<g id="a_node2"><a xlink:href="a00244.html" target="_top" xlink:title="Node structure encoding the information required for traversal. ">
<polygon fill="white" stroke="black" points="0.5,-451.5 0.5,-470.5 119.5,-470.5 119.5,-451.5 0.5,-451.5"/>
<text text-anchor="middle" x="60" y="-458.5" font-family="Helvetica,sans-Serif" font-size="10.00">fcl::TraversalNodeBase</text>
</a>
</g>
</g>
<!-- Node2&#45;&gt;Node1 -->
<g id="edge1" class="edge"><title>Node2&#45;&gt;Node1</title>
<path fill="none" stroke="midnightblue" d="M129.57,-461C138.206,-461 147.09,-461 155.859,-461"/>
<polygon fill="midnightblue" stroke="midnightblue" points="129.57,-457.5 119.57,-461 129.57,-464.5 129.57,-457.5"/>
</g>
<!-- Node4 -->
<g id="node4" class="node"><title>Node4</title>
<g id="a_node4"><a xlink:href="a00118.html" target="_top" xlink:title="fcl::MeshDistanceTraversal\lNode\&lt; kIOS \&gt;">
<polygon fill="white" stroke="black" points="610.5,-936 610.5,-966 747.5,-966 747.5,-936 610.5,-936"/>
<text text-anchor="start" x="618.5" y="-954" font-family="Helvetica,sans-Serif" font-size="10.00">fcl::MeshDistanceTraversal</text>
<text text-anchor="middle" x="679" y="-943" font-family="Helvetica,sans-Serif" font-size="10.00">Node&lt; kIOS &gt;</text>
</a>
</g>
</g>
<!-- Node3&#45;&gt;Node4 -->
<g id="edge3" class="edge"><title>Node3&#45;&gt;Node4</title>
<path fill="none" stroke="midnightblue" d="M518.346,-942.882C547.96,-944.388 581.589,-946.098 610.321,-947.559"/>
<polygon fill="midnightblue" stroke="midnightblue" points="518.218,-939.371 508.053,-942.359 517.862,-946.362 518.218,-939.371"/>
</g>
<!-- Node5 -->
<g id="node5" class="node"><title>Node5</title>
<g id="a_node5"><a xlink:href="a00119.html" target="_top" xlink:title="fcl::MeshDistanceTraversal\lNodekIOS">
<polygon fill="white" stroke="black" points="857.5,-961 857.5,-991 994.5,-991 994.5,-961 857.5,-961"/>
<text text-anchor="start" x="865.5" y="-979" font-family="Helvetica,sans-Serif" font-size="10.00">fcl::MeshDistanceTraversal</text>
<text text-anchor="middle" x="926" y="-968" font-family="Helvetica,sans-Serif" font-size="10.00">NodekIOS</text>
</a>
</g>
</g>
<!-- Node4&#45;&gt;Node5 -->
<g id="edge4" class="edge"><title>Node4&#45;&gt;Node5</title>
<path fill="none" stroke="midnightblue" d="M757.788,-958.938C789.73,-962.197 826.373,-965.936 857.2,-969.082"/>
<polygon fill="midnightblue" stroke="midnightblue" points="757.9,-955.431 747.596,-957.898 757.189,-962.395 757.9,-955.431"/>
</g>
<!-- Node7 -->
<g id="node7" class="node"><title>Node7</title>
<g id="a_node7"><a xlink:href="a00118.html" target="_top" xlink:title="fcl::MeshDistanceTraversal\lNode\&lt; OBBRSS \&gt;">
<polygon fill="white" stroke="black" points="610.5,-863 610.5,-893 747.5,-893 747.5,-863 610.5,-863"/>
<text text-anchor="start" x="618.5" y="-881" font-family="Helvetica,sans-Serif" font-size="10.00">fcl::MeshDistanceTraversal</text>
<text text-anchor="middle" x="679" y="-870" font-family="Helvetica,sans-Serif" font-size="10.00">Node&lt; OBBRSS &gt;</text>
</a>
</g>
</g>
<!-- Node6&#45;&gt;Node7 -->
<g id="edge6" class="edge"><title>Node6&#45;&gt;Node7</title>
<path fill="none" stroke="midnightblue" d="M518.346,-861.764C547.96,-864.776 581.589,-868.196 610.321,-871.117"/>
<polygon fill="midnightblue" stroke="midnightblue" points="518.356,-858.247 508.053,-860.717 517.648,-865.211 518.356,-858.247"/>
</g>
<!-- Node8 -->
<g id="node8" class="node"><title>Node8</title>
<g id="a_node8"><a xlink:href="a00120.html" target="_top" xlink:title="fcl::MeshDistanceTraversal\lNodeOBBRSS">
<polygon fill="white" stroke="black" points="857.5,-912 857.5,-942 994.5,-942 994.5,-912 857.5,-912"/>
<text text-anchor="start" x="865.5" y="-930" font-family="Helvetica,sans-Serif" font-size="10.00">fcl::MeshDistanceTraversal</text>
<text text-anchor="middle" x="926" y="-919" font-family="Helvetica,sans-Serif" font-size="10.00">NodeOBBRSS</text>
</a>
</g>
</g>
<!-- Node7&#45;&gt;Node8 -->
<g id="edge7" class="edge"><title>Node7&#45;&gt;Node8</title>
<path fill="none" stroke="midnightblue" d="M757.788,-893.558C789.73,-899.946 826.373,-907.275 857.2,-913.44"/>
<polygon fill="midnightblue" stroke="midnightblue" points="758.088,-890.048 747.596,-891.519 756.715,-896.912 758.088,-890.048"/>
</g>
<!-- Node9 -->
<g id="node9" class="node"><title>Node9</title>
<g id="a_node9"><a xlink:href="a00114.html" target="_top" xlink:title="fcl::MeshConservativeAdvancement\lTraversalNode\&lt; OBBRSS \&gt;">
<polygon fill="white" stroke="red" points="838.5,-863 838.5,-893 1013.5,-893 1013.5,-863 838.5,-863"/>
<text text-anchor="start" x="846.5" y="-881" font-family="Helvetica,sans-Serif" font-size="10.00">fcl::MeshConservativeAdvancement</text>
<text text-anchor="middle" x="926" y="-870" font-family="Helvetica,sans-Serif" font-size="10.00">TraversalNode&lt; OBBRSS &gt;</text>
</a>
</g>
</g>
<!-- Node7&#45;&gt;Node9 -->
<g id="edge8" class="edge"><title>Node7&#45;&gt;Node9</title>
<path fill="none" stroke="midnightblue" d="M757.642,-878C783.305,-878 812.016,-878 838.312,-878"/>
<polygon fill="midnightblue" stroke="midnightblue" points="757.596,-874.5 747.596,-878 757.596,-881.5 757.596,-874.5"/>
</g>
<!-- Node11 -->
<g id="node11" class="node"><title>Node11</title>
<g id="a_node11"><a xlink:href="a00118.html" target="_top" xlink:title="fcl::MeshDistanceTraversal\lNode\&lt; RSS \&gt;">
<polygon fill="white" stroke="black" points="610.5,-765 610.5,-795 747.5,-795 747.5,-765 610.5,-765"/>
<text text-anchor="start" x="618.5" y="-783" font-family="Helvetica,sans-Serif" font-size="10.00">fcl::MeshDistanceTraversal</text>
<text text-anchor="middle" x="679" y="-772" font-family="Helvetica,sans-Serif" font-size="10.00">Node&lt; RSS &gt;</text>
</a>
</g>
</g>
<!-- Node10&#45;&gt;Node11 -->
<g id="edge10" class="edge"><title>Node10&#45;&gt;Node11</title>
<path fill="none" stroke="midnightblue" d="M518.346,-780C547.96,-780 581.589,-780 610.321,-780"/>
<polygon fill="midnightblue" stroke="midnightblue" points="518.053,-776.5 508.053,-780 518.053,-783.5 518.053,-776.5"/>
</g>
<!-- Node12 -->
<g id="node12" class="node"><title>Node12</title>
<g id="a_node12"><a xlink:href="a00121.html" target="_top" xlink:title="Traversal node for distance computation between two meshes if their underlying BVH node is oriented n...">
<polygon fill="white" stroke="black" points="857.5,-814 857.5,-844 994.5,-844 994.5,-814 857.5,-814"/>
<text text-anchor="start" x="865.5" y="-832" font-family="Helvetica,sans-Serif" font-size="10.00">fcl::MeshDistanceTraversal</text>
<text text-anchor="middle" x="926" y="-821" font-family="Helvetica,sans-Serif" font-size="10.00">NodeRSS</text>
</a>
</g>
</g>
<!-- Node11&#45;&gt;Node12 -->
<g id="edge11" class="edge"><title>Node11&#45;&gt;Node12</title>
<path fill="none" stroke="midnightblue" d="M757.788,-795.558C789.73,-801.946 826.373,-809.275 857.2,-815.44"/>
<polygon fill="midnightblue" stroke="midnightblue" points="758.088,-792.048 747.596,-793.519 756.715,-798.912 758.088,-792.048"/>
</g>
<!-- Node13 -->
<g id="node13" class="node"><title>Node13</title>
<g id="a_node13"><a xlink:href="a00114.html" target="_top" xlink:title="fcl::MeshConservativeAdvancement\lTraversalNode\&lt; RSS \&gt;">
<polygon fill="white" stroke="red" points="838.5,-765 838.5,-795 1013.5,-795 1013.5,-765 838.5,-765"/>
<text text-anchor="start" x="846.5" y="-783" font-family="Helvetica,sans-Serif" font-size="10.00">fcl::MeshConservativeAdvancement</text>
<text text-anchor="middle" x="926" y="-772" font-family="Helvetica,sans-Serif" font-size="10.00">TraversalNode&lt; RSS &gt;</text>
</a>
</g>
</g>
<!-- Node11&#45;&gt;Node13 -->
<g id="edge12" class="edge"><title>Node11&#45;&gt;Node13</title>
<path fill="none" stroke="midnightblue" d="M757.642,-780C783.305,-780 812.016,-780 838.312,-780"/>
<polygon fill="midnightblue" stroke="midnightblue" points="757.596,-776.5 747.596,-780 757.596,-783.5 757.596,-776.5"/>
</g>
<!-- Node15 -->
<g id="node15" class="node"><title>Node15</title>
<g id="a_node15"><a xlink:href="a00132.html" target="_top" xlink:title="fcl::MeshShapeDistanceTraversal\lNode\&lt; kIOS, S, NarrowPhaseSolver \&gt;">
<polygon fill="white" stroke="black" points="586,-716 586,-746 772,-746 772,-716 586,-716"/>
<text text-anchor="start" x="594" y="-734" font-family="Helvetica,sans-Serif" font-size="10.00">fcl::MeshShapeDistanceTraversal</text>
<text text-anchor="middle" x="679" y="-723" font-family="Helvetica,sans-Serif" font-size="10.00">Node&lt; kIOS, S, NarrowPhaseSolver &gt;</text>
</a>
</g>
</g>
<!-- Node14&#45;&gt;Node15 -->
<g id="edge14" class="edge"><title>Node14&#45;&gt;Node15</title>
<path fill="none" stroke="midnightblue" d="M531.841,-731C549.484,-731 568.018,-731 585.738,-731"/>
<polygon fill="midnightblue" stroke="midnightblue" points="531.57,-727.5 521.57,-731 531.57,-734.5 531.57,-727.5"/>
</g>
<!-- Node16 -->
<g id="node16" class="node"><title>Node16</title>
<g id="a_node16"><a xlink:href="a00133.html" target="_top" xlink:title="fcl::MeshShapeDistanceTraversal\lNodekIOS\&lt; S, NarrowPhaseSolver \&gt;">
<polygon fill="white" stroke="black" points="836,-716 836,-746 1016,-746 1016,-716 836,-716"/>
<text text-anchor="start" x="844" y="-734" font-family="Helvetica,sans-Serif" font-size="10.00">fcl::MeshShapeDistanceTraversal</text>
<text text-anchor="middle" x="926" y="-723" font-family="Helvetica,sans-Serif" font-size="10.00">NodekIOS&lt; S, NarrowPhaseSolver &gt;</text>
</a>
</g>
</g>
<!-- Node15&#45;&gt;Node16 -->
<g id="edge15" class="edge"><title>Node15&#45;&gt;Node16</title>
<path fill="none" stroke="midnightblue" d="M782.578,-731C800.207,-731 818.402,-731 835.648,-731"/>
<polygon fill="midnightblue" stroke="midnightblue" points="782.275,-727.5 772.275,-731 782.275,-734.5 782.275,-727.5"/>
</g>
<!-- Node18 -->
<g id="node18" class="node"><title>Node18</title>
<g id="a_node18"><a xlink:href="a00132.html" target="_top" xlink:title="fcl::MeshShapeDistanceTraversal\lNode\&lt; OBBRSS, S, NarrowPhaseSolver \&gt;">
<polygon fill="white" stroke="black" points="576,-667 576,-697 782,-697 782,-667 576,-667"/>
<text text-anchor="start" x="584" y="-685" font-family="Helvetica,sans-Serif" font-size="10.00">fcl::MeshShapeDistanceTraversal</text>
<text text-anchor="middle" x="679" y="-674" font-family="Helvetica,sans-Serif" font-size="10.00">Node&lt; OBBRSS, S, NarrowPhaseSolver &gt;</text>
</a>
</g>
</g>
<!-- Node17&#45;&gt;Node18 -->
<g id="edge17" class="edge"><title>Node17&#45;&gt;Node18</title>
<path fill="none" stroke="midnightblue" d="M531.893,-682C546.23,-682 561.156,-682 575.754,-682"/>
<polygon fill="midnightblue" stroke="midnightblue" points="531.57,-678.5 521.57,-682 531.57,-685.5 531.57,-678.5"/>
</g>
<!-- Node19 -->
<g id="node19" class="node"><title>Node19</title>
<g id="a_node19"><a xlink:href="a00134.html" target="_top" xlink:title="fcl::MeshShapeDistanceTraversal\lNodeOBBRSS\&lt; S, NarrowPhaseSolver \&gt;">
<polygon fill="white" stroke="black" points="826,-667 826,-697 1026,-697 1026,-667 826,-667"/>
<text text-anchor="start" x="834" y="-685" font-family="Helvetica,sans-Serif" font-size="10.00">fcl::MeshShapeDistanceTraversal</text>
<text text-anchor="middle" x="926" y="-674" font-family="Helvetica,sans-Serif" font-size="10.00">NodeOBBRSS&lt; S, NarrowPhaseSolver &gt;</text>
</a>
</g>
</g>
<!-- Node18&#45;&gt;Node19 -->
<g id="edge18" class="edge"><title>Node18&#45;&gt;Node19</title>
<path fill="none" stroke="midnightblue" d="M792.336,-682C803.499,-682 814.774,-682 825.789,-682"/>
<polygon fill="midnightblue" stroke="midnightblue" points="792.128,-678.5 782.128,-682 792.128,-685.5 792.128,-678.5"/>
</g>
<!-- Node20 -->
<g id="node20" class="node"><title>Node20</title>
<g id="a_node20"><a xlink:href="a00129.html" target="_top" xlink:title="fcl::MeshShapeConservative\lAdvancementTraversalNode\l\&lt; OBBRSS, S, NarrowPhaseSolver \&gt;">
<polygon fill="white" stroke="red" points="835,-607.5 835,-648.5 1017,-648.5 1017,-607.5 835,-607.5"/>
<text text-anchor="start" x="843" y="-636.5" font-family="Helvetica,sans-Serif" font-size="10.00">fcl::MeshShapeConservative</text>
<text text-anchor="start" x="843" y="-625.5" font-family="Helvetica,sans-Serif" font-size="10.00">AdvancementTraversalNode</text>
<text text-anchor="middle" x="926" y="-614.5" font-family="Helvetica,sans-Serif" font-size="10.00">&lt; OBBRSS, S, NarrowPhaseSolver &gt;</text>
</a>
</g>
</g>
<!-- Node18&#45;&gt;Node20 -->
<g id="edge19" class="edge"><title>Node18&#45;&gt;Node20</title>
<path fill="none" stroke="midnightblue" d="M758.146,-664.776C782.499,-659.408 809.556,-653.445 834.671,-647.909"/>
<polygon fill="midnightblue" stroke="midnightblue" points="757.258,-661.388 748.246,-666.958 758.765,-668.223 757.258,-661.388"/>
</g>
<!-- Node22 -->
<g id="node22" class="node"><title>Node22</title>
<g id="a_node22"><a xlink:href="a00132.html" target="_top" xlink:title="fcl::MeshShapeDistanceTraversal\lNode\&lt; RSS, S, NarrowPhaseSolver \&gt;">
<polygon fill="white" stroke="black" points="586.5,-559 586.5,-589 771.5,-589 771.5,-559 586.5,-559"/>
<text text-anchor="start" x="594.5" y="-577" font-family="Helvetica,sans-Serif" font-size="10.00">fcl::MeshShapeDistanceTraversal</text>
<text text-anchor="middle" x="679" y="-566" font-family="Helvetica,sans-Serif" font-size="10.00">Node&lt; RSS, S, NarrowPhaseSolver &gt;</text>
</a>
</g>
</g>
<!-- Node21&#45;&gt;Node22 -->
<g id="edge21" class="edge"><title>Node21&#45;&gt;Node22</title>
<path fill="none" stroke="midnightblue" d="M511.945,-615.514C545.643,-607.089 585.647,-597.088 617.946,-589.013"/>
<polygon fill="midnightblue" stroke="midnightblue" points="511.016,-612.138 502.163,-617.959 512.714,-618.929 511.016,-612.138"/>
</g>
<!-- Node23 -->
<g id="node23" class="node"><title>Node23</title>
<g id="a_node23"><a xlink:href="a00135.html" target="_top" xlink:title="Traversal node for distance between mesh and shape, when mesh BVH is one of the oriented node (RSS...">
<polygon fill="white" stroke="black" points="836.5,-559 836.5,-589 1015.5,-589 1015.5,-559 836.5,-559"/>
<text text-anchor="start" x="844.5" y="-577" font-family="Helvetica,sans-Serif" font-size="10.00">fcl::MeshShapeDistanceTraversal</text>
<text text-anchor="middle" x="926" y="-566" font-family="Helvetica,sans-Serif" font-size="10.00">NodeRSS&lt; S, NarrowPhaseSolver &gt;</text>
</a>
</g>
</g>
<!-- Node22&#45;&gt;Node23 -->
<g id="edge22" class="edge"><title>Node22&#45;&gt;Node23</title>
<path fill="none" stroke="midnightblue" d="M781.602,-574C799.784,-574 818.598,-574 836.379,-574"/>
<polygon fill="midnightblue" stroke="midnightblue" points="781.577,-570.5 771.577,-574 781.577,-577.5 781.577,-570.5"/>
</g>
<!-- Node24 -->
<g id="node24" class="node"><title>Node24</title>
<g id="a_node24"><a xlink:href="a00129.html" target="_top" xlink:title="fcl::MeshShapeConservative\lAdvancementTraversalNode\l\&lt; RSS, S, NarrowPhaseSolver \&gt;">
<polygon fill="white" stroke="red" points="845.5,-499.5 845.5,-540.5 1006.5,-540.5 1006.5,-499.5 845.5,-499.5"/>
<text text-anchor="start" x="853.5" y="-528.5" font-family="Helvetica,sans-Serif" font-size="10.00">fcl::MeshShapeConservative</text>
<text text-anchor="start" x="853.5" y="-517.5" font-family="Helvetica,sans-Serif" font-size="10.00">AdvancementTraversalNode</text>
<text text-anchor="middle" x="926" y="-506.5" font-family="Helvetica,sans-Serif" font-size="10.00">&lt; RSS, S, NarrowPhaseSolver &gt;</text>
</a>
</g>
</g>
<!-- Node22&#45;&gt;Node24 -->
<g id="edge23" class="edge"><title>Node22&#45;&gt;Node24</title>
<path fill="none" stroke="midnightblue" d="M758.326,-556.736C786.153,-550.603 817.491,-543.696 845.421,-537.54"/>
<polygon fill="midnightblue" stroke="midnightblue" points="757.258,-553.388 748.246,-558.958 758.765,-560.223 757.258,-553.388"/>
</g>
<!-- Node26 -->
<g id="node26" class="node"><title>Node26</title>
<g id="a_node26"><a xlink:href="a00118.html" target="_top" xlink:title="Traversal node for distance computation between two meshes. ">
<polygon fill="white" stroke="black" points="610.5,-494 610.5,-524 747.5,-524 747.5,-494 610.5,-494"/>
<text text-anchor="start" x="618.5" y="-512" font-family="Helvetica,sans-Serif" font-size="10.00">fcl::MeshDistanceTraversal</text>
<text text-anchor="middle" x="679" y="-501" font-family="Helvetica,sans-Serif" font-size="10.00">Node&lt; BV &gt;</text>
</a>
</g>
</g>
<!-- Node25&#45;&gt;Node26 -->
<g id="edge25" class="edge"><title>Node25&#45;&gt;Node26</title>
<path fill="none" stroke="midnightblue" d="M508.11,-566.117C516.178,-563.793 524.291,-561.388 532,-559 567.317,-548.058 606.984,-534.383 636.048,-524.102"/>
<polygon fill="midnightblue" stroke="midnightblue" points="506.979,-562.8 498.321,-568.906 508.897,-569.532 506.979,-562.8"/>
</g>
<!-- Node27 -->
<g id="node27" class="node"><title>Node27</title>
<g id="a_node27"><a xlink:href="a00114.html" target="_top" xlink:title="continuous collision node using conservative advancement. when using this default version...">
<polygon fill="white" stroke="black" points="838.5,-451 838.5,-481 1013.5,-481 1013.5,-451 838.5,-451"/>
<text text-anchor="start" x="846.5" y="-469" font-family="Helvetica,sans-Serif" font-size="10.00">fcl::MeshConservativeAdvancement</text>
<text text-anchor="middle" x="926" y="-458" font-family="Helvetica,sans-Serif" font-size="10.00">TraversalNode&lt; BV &gt;</text>
</a>
</g>
</g>
<!-- Node26&#45;&gt;Node27 -->
<g id="edge26" class="edge"><title>Node26&#45;&gt;Node27</title>
<path fill="none" stroke="midnightblue" d="M757.745,-495.355C783.676,-490.804 812.708,-485.708 839.214,-481.056"/>
<polygon fill="midnightblue" stroke="midnightblue" points="756.84,-491.96 747.596,-497.136 758.05,-498.855 756.84,-491.96"/>
</g>
<!-- Node29 -->
<g id="node29" class="node"><title>Node29</title>
<g id="a_node29"><a xlink:href="a00132.html" target="_top" xlink:title="Traversal node for distance between mesh and shape. ">
<polygon fill="white" stroke="black" points="597,-413 597,-443 761,-443 761,-413 597,-413"/>
<text text-anchor="start" x="605" y="-431" font-family="Helvetica,sans-Serif" font-size="10.00">fcl::MeshShapeDistanceTraversal</text>
<text text-anchor="middle" x="679" y="-420" font-family="Helvetica,sans-Serif" font-size="10.00">Node&lt; BV, S &gt;</text>
</a>
</g>
</g>
<!-- Node28&#45;&gt;Node29 -->
<g id="edge28" class="edge"><title>Node28&#45;&gt;Node29</title>
<path fill="none" stroke="midnightblue" d="M516.222,-516.558C521.64,-514.553 526.954,-512.369 532,-510 549.633,-501.721 551.318,-495.058 568,-485 593.604,-469.564 623.833,-454.086 646.117,-443.162"/>
<polygon fill="midnightblue" stroke="midnightblue" points="514.687,-513.386 506.391,-519.977 516.986,-519.998 514.687,-513.386"/>
</g>
<!-- Node30 -->
<g id="node30" class="node"><title>Node30</title>
<g id="a_node30"><a xlink:href="a00129.html" target="_top" xlink:title="Traversal node for conservative advancement computation between BVH and shape. ">
<polygon fill="white" stroke="black" points="849,-391.5 849,-432.5 1003,-432.5 1003,-391.5 849,-391.5"/>
<text text-anchor="start" x="857" y="-420.5" font-family="Helvetica,sans-Serif" font-size="10.00">fcl::MeshShapeConservative</text>
<text text-anchor="start" x="857" y="-409.5" font-family="Helvetica,sans-Serif" font-size="10.00">AdvancementTraversalNode</text>
<text text-anchor="middle" x="926" y="-398.5" font-family="Helvetica,sans-Serif" font-size="10.00">&lt; BV, S, NarrowPhaseSolver &gt;</text>
</a>
</g>
</g>
<!-- Node29&#45;&gt;Node30 -->
<g id="edge29" class="edge"><title>Node29&#45;&gt;Node30</title>
<path fill="none" stroke="midnightblue" d="M771.307,-422.037C796.871,-420.368 824.377,-418.571 848.954,-416.966"/>
<polygon fill="midnightblue" stroke="midnightblue" points="770.992,-418.55 761.241,-422.694 771.448,-425.535 770.992,-418.55"/>
</g>
<!-- Node36 -->
<g id="node36" class="node"><title>Node36</title>
<g id="a_node36"><a xlink:href="a00212.html" target="_top" xlink:title="Traversal node for distance between shape and mesh. ">
<polygon fill="white" stroke="black" points="597,-265 597,-295 761,-295 761,-265 597,-265"/>
<text text-anchor="start" x="605" y="-283" font-family="Helvetica,sans-Serif" font-size="10.00">fcl::ShapeMeshDistanceTraversal</text>
<text text-anchor="middle" x="679" y="-272" font-family="Helvetica,sans-Serif" font-size="10.00">Node&lt; S, BV &gt;</text>
</a>
</g>
</g>
<!-- Node35&#45;&gt;Node36 -->
<g id="edge35" class="edge"><title>Node35&#45;&gt;Node36</title>
<path fill="none" stroke="midnightblue" d="M531.628,-280C553.033,-280 575.762,-280 596.765,-280"/>
<polygon fill="midnightblue" stroke="midnightblue" points="531.57,-276.5 521.57,-280 531.57,-283.5 531.57,-276.5"/>
</g>
<!-- Node37 -->
<g id="node37" class="node"><title>Node37</title>
<g id="a_node37"><a xlink:href="a00209.html" target="_top" xlink:title="fcl::ShapeMeshConservative\lAdvancementTraversalNode\l\&lt; S, BV, NarrowPhaseSolver \&gt;">
<polygon fill="white" stroke="black" points="849,-259.5 849,-300.5 1003,-300.5 1003,-259.5 849,-259.5"/>
<text text-anchor="start" x="857" y="-288.5" font-family="Helvetica,sans-Serif" font-size="10.00">fcl::ShapeMeshConservative</text>
<text text-anchor="start" x="857" y="-277.5" font-family="Helvetica,sans-Serif" font-size="10.00">AdvancementTraversalNode</text>
<text text-anchor="middle" x="926" y="-266.5" font-family="Helvetica,sans-Serif" font-size="10.00">&lt; S, BV, NarrowPhaseSolver &gt;</text>
</a>
</g>
</g>
<!-- Node36&#45;&gt;Node37 -->
<g id="edge36" class="edge"><title>Node36&#45;&gt;Node37</title>
<path fill="none" stroke="midnightblue" d="M771.307,-280C796.871,-280 824.377,-280 848.954,-280"/>
<polygon fill="midnightblue" stroke="midnightblue" points="771.241,-276.5 761.241,-280 771.241,-283.5 771.241,-276.5"/>
</g>
<!-- Node39 -->
<g id="node39" class="node"><title>Node39</title>
<g id="a_node39"><a xlink:href="a00202.html" target="_top" xlink:title="fcl::ShapeConservativeAdvancement\lTraversalNode\&lt; S1, S2, NarrowPhaseSolver \&gt;">
<polygon fill="white" stroke="black" points="568.5,-216 568.5,-246 789.5,-246 789.5,-216 568.5,-216"/>
<text text-anchor="start" x="576.5" y="-234" font-family="Helvetica,sans-Serif" font-size="10.00">fcl::ShapeConservativeAdvancement</text>
<text text-anchor="middle" x="679" y="-223" font-family="Helvetica,sans-Serif" font-size="10.00">TraversalNode&lt; S1, S2, NarrowPhaseSolver &gt;</text>
</a>
</g>
</g>
<!-- Node38&#45;&gt;Node39 -->
<g id="edge38" class="edge"><title>Node38&#45;&gt;Node39</title>
<path fill="none" stroke="midnightblue" d="M541.767,-231C550.527,-231 559.425,-231 568.261,-231"/>
<polygon fill="midnightblue" stroke="midnightblue" points="541.558,-227.5 531.558,-231 541.558,-234.5 541.558,-227.5"/>
</g>
<!-- Node42 -->
<g id="node42" class="node"><title>Node42</title>
<g id="a_node42"><a xlink:href="a00212.html" target="_top" xlink:title="fcl::ShapeMeshDistanceTraversal\lNode\&lt; S, kIOS, NarrowPhaseSolver \&gt;">
<polygon fill="white" stroke="black" points="586,-108 586,-138 772,-138 772,-108 586,-108"/>
<text text-anchor="start" x="594" y="-126" font-family="Helvetica,sans-Serif" font-size="10.00">fcl::ShapeMeshDistanceTraversal</text>
<text text-anchor="middle" x="679" y="-115" font-family="Helvetica,sans-Serif" font-size="10.00">Node&lt; S, kIOS, NarrowPhaseSolver &gt;</text>
</a>
</g>
</g>
<!-- Node41&#45;&gt;Node42 -->
<g id="edge41" class="edge"><title>Node41&#45;&gt;Node42</title>
<path fill="none" stroke="midnightblue" d="M531.841,-123C549.484,-123 568.018,-123 585.738,-123"/>
<polygon fill="midnightblue" stroke="midnightblue" points="531.57,-119.5 521.57,-123 531.57,-126.5 531.57,-119.5"/>
</g>
<!-- Node43 -->
<g id="node43" class="node"><title>Node43</title>
<g id="a_node43"><a xlink:href="a00213.html" target="_top" xlink:title="fcl::ShapeMeshDistanceTraversal\lNodekIOS\&lt; S, NarrowPhaseSolver \&gt;">
<polygon fill="white" stroke="black" points="836,-108 836,-138 1016,-138 1016,-108 836,-108"/>
<text text-anchor="start" x="844" y="-126" font-family="Helvetica,sans-Serif" font-size="10.00">fcl::ShapeMeshDistanceTraversal</text>
<text text-anchor="middle" x="926" y="-115" font-family="Helvetica,sans-Serif" font-size="10.00">NodekIOS&lt; S, NarrowPhaseSolver &gt;</text>
</a>
</g>
</g>
<!-- Node42&#45;&gt;Node43 -->
<g id="edge42" class="edge"><title>Node42&#45;&gt;Node43</title>
<path fill="none" stroke="midnightblue" d="M782.578,-123C800.207,-123 818.402,-123 835.648,-123"/>
<polygon fill="midnightblue" stroke="midnightblue" points="782.275,-119.5 772.275,-123 782.275,-126.5 782.275,-119.5"/>
</g>
<!-- Node45 -->
<g id="node45" class="node"><title>Node45</title>
<g id="a_node45"><a xlink:href="a00212.html" target="_top" xlink:title="fcl::ShapeMeshDistanceTraversal\lNode\&lt; S, OBBRSS, NarrowPhaseSolver \&gt;">
<polygon fill="white" stroke="black" points="576,-59 576,-89 782,-89 782,-59 576,-59"/>
<text text-anchor="start" x="584" y="-77" font-family="Helvetica,sans-Serif" font-size="10.00">fcl::ShapeMeshDistanceTraversal</text>
<text text-anchor="middle" x="679" y="-66" font-family="Helvetica,sans-Serif" font-size="10.00">Node&lt; S, OBBRSS, NarrowPhaseSolver &gt;</text>
</a>
</g>
</g>
<!-- Node44&#45;&gt;Node45 -->
<g id="edge44" class="edge"><title>Node44&#45;&gt;Node45</title>
<path fill="none" stroke="midnightblue" d="M531.893,-74C546.23,-74 561.156,-74 575.754,-74"/>
<polygon fill="midnightblue" stroke="midnightblue" points="531.57,-70.5001 521.57,-74 531.57,-77.5001 531.57,-70.5001"/>
</g>
<!-- Node46 -->
<g id="node46" class="node"><title>Node46</title>
<g id="a_node46"><a xlink:href="a00214.html" target="_top" xlink:title="fcl::ShapeMeshDistanceTraversal\lNodeOBBRSS\&lt; S, NarrowPhaseSolver \&gt;">
<polygon fill="white" stroke="black" points="826,-59 826,-89 1026,-89 1026,-59 826,-59"/>
<text text-anchor="start" x="834" y="-77" font-family="Helvetica,sans-Serif" font-size="10.00">fcl::ShapeMeshDistanceTraversal</text>
<text text-anchor="middle" x="926" y="-66" font-family="Helvetica,sans-Serif" font-size="10.00">NodeOBBRSS&lt; S, NarrowPhaseSolver &gt;</text>
</a>
</g>
</g>
<!-- Node45&#45;&gt;Node46 -->
<g id="edge45" class="edge"><title>Node45&#45;&gt;Node46</title>
<path fill="none" stroke="midnightblue" d="M792.336,-74C803.499,-74 814.774,-74 825.789,-74"/>
<polygon fill="midnightblue" stroke="midnightblue" points="792.128,-70.5001 782.128,-74 792.128,-77.5001 792.128,-70.5001"/>
</g>
<!-- Node47 -->
<g id="node47" class="node"><title>Node47</title>
<g id="a_node47"><a xlink:href="a00209.html" target="_top" xlink:title="fcl::ShapeMeshConservative\lAdvancementTraversalNode\l\&lt; S, OBBRSS, NarrowPhaseSolver \&gt;">
<polygon fill="white" stroke="red" points="835,0.5 835,-40.5 1017,-40.5 1017,0.5 835,0.5"/>
<text text-anchor="start" x="843" y="-28.5" font-family="Helvetica,sans-Serif" font-size="10.00">fcl::ShapeMeshConservative</text>
<text text-anchor="start" x="843" y="-17.5" font-family="Helvetica,sans-Serif" font-size="10.00">AdvancementTraversalNode</text>
<text text-anchor="middle" x="926" y="-6.5" font-family="Helvetica,sans-Serif" font-size="10.00">&lt; S, OBBRSS, NarrowPhaseSolver &gt;</text>
</a>
</g>
</g>
<!-- Node45&#45;&gt;Node47 -->
<g id="edge46" class="edge"><title>Node45&#45;&gt;Node47</title>
<path fill="none" stroke="midnightblue" d="M758.146,-56.776C782.499,-51.4084 809.556,-45.4449 834.671,-39.9093"/>
<polygon fill="midnightblue" stroke="midnightblue" points="757.258,-53.3875 748.246,-58.958 758.765,-60.2235 757.258,-53.3875"/>
</g>
<!-- Node49 -->
<g id="node49" class="node"><title>Node49</title>
<g id="a_node49"><a xlink:href="a00212.html" target="_top" xlink:title="fcl::ShapeMeshDistanceTraversal\lNode\&lt; S, RSS, NarrowPhaseSolver \&gt;">
<polygon fill="white" stroke="red" points="586.5,-10 586.5,-40 771.5,-40 771.5,-10 586.5,-10"/>
<text text-anchor="start" x="594.5" y="-28" font-family="Helvetica,sans-Serif" font-size="10.00">fcl::ShapeMeshDistanceTraversal</text>
<text text-anchor="middle" x="679" y="-17" font-family="Helvetica,sans-Serif" font-size="10.00">Node&lt; S, RSS, NarrowPhaseSolver &gt;</text>
</a>
</g>
</g>
<!-- Node48&#45;&gt;Node49 -->
<g id="edge48" class="edge"><title>Node48&#45;&gt;Node49</title>
<path fill="none" stroke="midnightblue" d="M531.909,-25C549.668,-25 568.329,-25 586.151,-25"/>
<polygon fill="midnightblue" stroke="midnightblue" points="531.57,-21.5001 521.57,-25 531.57,-28.5001 531.57,-21.5001"/>
</g>
</g>
</svg>
