<?xml version="1.0" encoding="UTF-8" standalone="no"?>
<!DOCTYPE svg PUBLIC "-//W3C//DTD SVG 1.1//EN"
 "http://www.w3.org/Graphics/SVG/1.1/DTD/svg11.dtd">
<!-- Generated by graphviz version 2.36.0 (20140111.2315)
 -->
<!-- Title: fcl::GreedyKCenters&lt; _T &gt; Pages: 1 -->
<svg width="112pt" height="108pt"
 viewBox="0.00 0.00 112.00 108.00" xmlns="http://www.w3.org/2000/svg" xmlns:xlink="http://www.w3.org/1999/xlink">
<g id="graph0" class="graph" transform="scale(1 1) rotate(0) translate(4 104)">
<title>fcl::GreedyKCenters&lt; _T &gt;</title>
<polygon fill="white" stroke="none" points="-4,4 -4,-104 108,-104 108,4 -4,4"/>
<!-- Node1 -->
<g id="node1" class="node"><title>Node1</title>
<polygon fill="#bfbfbf" stroke="black" points="-1,-1 -1,-31 105,-31 105,-1 -1,-1"/>
<text text-anchor="start" x="7" y="-19" font-family="Helvetica,sans-Serif" font-size="10.00">fcl::GreedyKCenters</text>
<text text-anchor="middle" x="52" y="-8" font-family="Helvetica,sans-Serif" font-size="10.00">&lt; _T &gt;</text>
</g>
<!-- Node2 -->
<g id="node2" class="node"><title>Node2</title>
<g id="a_node2"><a xlink:href="a00180.html" target="_top" xlink:title="Random number generation. ">
<polygon fill="white" stroke="black" points="24,-80.5 24,-99.5 80,-99.5 80,-80.5 24,-80.5"/>
<text text-anchor="middle" x="52" y="-87.5" font-family="Helvetica,sans-Serif" font-size="10.00">fcl::RNG</text>
</a>
</g>
</g>
<!-- Node2&#45;&gt;Node1 -->
<g id="edge1" class="edge"><title>Node2&#45;&gt;Node1</title>
<path fill="none" stroke="#9a32cd" stroke-dasharray="5,2" d="M52,-70.0846C52,-57.9148 52,-42.3538 52,-31.2316"/>
<polygon fill="#9a32cd" stroke="#9a32cd" points="48.5001,-70.4579 52,-80.4579 55.5001,-70.4579 48.5001,-70.4579"/>
<text text-anchor="middle" x="63" y="-53.5" font-family="Helvetica,sans-Serif" font-size="10.00"> rng_</text>
</g>
</g>
</svg>
