<?xml version="1.0" encoding="UTF-8" standalone="no"?>
<!DOCTYPE svg PUBLIC "-//W3C//DTD SVG 1.1//EN"
 "http://www.w3.org/Graphics/SVG/1.1/DTD/svg11.dtd">
<!-- Generated by graphviz version 2.36.0 (20140111.2315)
 -->
<!-- Title: fcl::BVNode&lt; BV &gt; Pages: 1 -->
<svg width="147pt" height="96pt"
 viewBox="0.00 0.00 147.00 96.00" xmlns="http://www.w3.org/2000/svg" xmlns:xlink="http://www.w3.org/1999/xlink">
<g id="graph0" class="graph" transform="scale(1 1) rotate(0) translate(4 92)">
<title>fcl::BVNode&lt; BV &gt;</title>
<polygon fill="white" stroke="none" points="-4,4 -4,-92 143,-92 143,4 -4,4"/>
<!-- Node1 -->
<g id="node1" class="node"><title>Node1</title>
<polygon fill="#bfbfbf" stroke="black" points="34.5,-0.5 34.5,-19.5 135.5,-19.5 135.5,-0.5 34.5,-0.5"/>
<text text-anchor="middle" x="85" y="-7.5" font-family="Helvetica,sans-Serif" font-size="10.00">fcl::BVNode&lt; BV &gt;</text>
</g>
<!-- Node2 -->
<g id="node2" class="node"><title>Node2</title>
<g id="a_node2"><a xlink:href="a00027.html" target="_top" xlink:title="BVNodeBase encodes the tree structure for BVH. ">
<polygon fill="white" stroke="black" points="0,-68.5 0,-87.5 92,-87.5 92,-68.5 0,-68.5"/>
<text text-anchor="middle" x="46" y="-75.5" font-family="Helvetica,sans-Serif" font-size="10.00">fcl::BVNodeBase</text>
</a>
</g>
</g>
<!-- Node2&#45;&gt;Node1 -->
<g id="edge1" class="edge"><title>Node2&#45;&gt;Node1</title>
<path fill="none" stroke="midnightblue" d="M56.3037,-59.563C63.8564,-46.7815 73.7964,-29.9599 79.7757,-19.8411"/>
<polygon fill="midnightblue" stroke="midnightblue" points="53.1727,-57.9818 51.0986,-68.3717 59.1992,-61.5429 53.1727,-57.9818"/>
</g>
<!-- Node3 -->
<g id="node3" class="node"><title>Node3</title>
<polygon fill="white" stroke="#bfbfbf" points="110,-68.5 110,-87.5 140,-87.5 140,-68.5 110,-68.5"/>
<text text-anchor="middle" x="125" y="-75.5" font-family="Helvetica,sans-Serif" font-size="10.00">BV</text>
</g>
<!-- Node3&#45;&gt;Node1 -->
<g id="edge2" class="edge"><title>Node3&#45;&gt;Node1</title>
<path fill="none" stroke="#9a32cd" stroke-dasharray="5,2" d="M114.432,-59.563C106.686,-46.7815 96.4909,-29.9599 90.3583,-19.8411"/>
<polygon fill="#9a32cd" stroke="#9a32cd" points="111.594,-61.6337 119.771,-68.3717 117.581,-58.0056 111.594,-61.6337"/>
<text text-anchor="middle" x="115" y="-41.5" font-family="Helvetica,sans-Serif" font-size="10.00"> bv</text>
</g>
</g>
</svg>
