<?xml version="1.0" encoding="UTF-8" standalone="no"?>
<!DOCTYPE svg PUBLIC "-//W3C//DTD SVG 1.1//EN"
 "http://www.w3.org/Graphics/SVG/1.1/DTD/svg11.dtd">
<!-- Generated by graphviz version 2.36.0 (20140111.2315)
 -->
<!-- Title: fcl::Cylinder Pages: 1 -->
<svg width="860pt" height="131pt"
 viewBox="0.00 0.00 860.00 131.00" xmlns="http://www.w3.org/2000/svg" xmlns:xlink="http://www.w3.org/1999/xlink">
<g id="graph0" class="graph" transform="scale(1 1) rotate(0) translate(4 127)">
<title>fcl::Cylinder</title>
<polygon fill="white" stroke="none" points="-4,4 -4,-127 856,-127 856,4 -4,4"/>
<!-- Node1 -->
<g id="node1" class="node"><title>Node1</title>
<polygon fill="#bfbfbf" stroke="black" points="782.5,-52.5 782.5,-71.5 851.5,-71.5 851.5,-52.5 782.5,-52.5"/>
<text text-anchor="middle" x="817" y="-59.5" font-family="Helvetica,sans-Serif" font-size="10.00">fcl::Cylinder</text>
</g>
<!-- Node2 -->
<g id="node2" class="node"><title>Node2</title>
<g id="a_node2"><a xlink:href="a00198.html" target="_top" xlink:title="Base class for all basic geometric shapes. ">
<polygon fill="white" stroke="black" points="660.5,-52.5 660.5,-71.5 743.5,-71.5 743.5,-52.5 660.5,-52.5"/>
<text text-anchor="middle" x="702" y="-59.5" font-family="Helvetica,sans-Serif" font-size="10.00">fcl::ShapeBase</text>
</a>
</g>
</g>
<!-- Node2&#45;&gt;Node1 -->
<g id="edge1" class="edge"><title>Node2&#45;&gt;Node1</title>
<path fill="none" stroke="midnightblue" d="M754.059,-62C763.643,-62 773.437,-62 782.326,-62"/>
<polygon fill="midnightblue" stroke="midnightblue" points="753.796,-58.5001 743.796,-62 753.796,-65.5001 753.796,-58.5001"/>
</g>
<!-- Node3 -->
<g id="node3" class="node"><title>Node3</title>
<g id="a_node3"><a xlink:href="a00032.html" target="_top" xlink:title="The geometry for the object for collision or distance computation. ">
<polygon fill="white" stroke="black" points="508.5,-52.5 508.5,-71.5 621.5,-71.5 621.5,-52.5 508.5,-52.5"/>
<text text-anchor="middle" x="565" y="-59.5" font-family="Helvetica,sans-Serif" font-size="10.00">fcl::CollisionGeometry</text>
</a>
</g>
</g>
<!-- Node3&#45;&gt;Node2 -->
<g id="edge2" class="edge"><title>Node3&#45;&gt;Node2</title>
<path fill="none" stroke="midnightblue" d="M631.773,-62C641.5,-62 651.273,-62 660.287,-62"/>
<polygon fill="midnightblue" stroke="midnightblue" points="631.689,-58.5001 621.689,-62 631.689,-65.5001 631.689,-58.5001"/>
</g>
<!-- Node4 -->
<g id="node4" class="node"><title>Node4</title>
<g id="a_node4"><a xlink:href="a00003.html" target="_top" xlink:title="A class describing the AABB collision structure, which is a box in 3D space determined by two diagona...">
<polygon fill="white" stroke="black" points="362,-24.5 362,-43.5 422,-43.5 422,-24.5 362,-24.5"/>
<text text-anchor="middle" x="392" y="-31.5" font-family="Helvetica,sans-Serif" font-size="10.00">fcl::AABB</text>
</a>
</g>
</g>
<!-- Node4&#45;&gt;Node3 -->
<g id="edge3" class="edge"><title>Node4&#45;&gt;Node3</title>
<path fill="none" stroke="#9a32cd" stroke-dasharray="5,2" d="M431.896,-40.369C454.451,-44.0622 483.237,-48.7756 508.176,-52.8593"/>
<polygon fill="#9a32cd" stroke="#9a32cd" points="432.442,-36.9118 422.008,-38.7498 431.311,-43.8198 432.442,-36.9118"/>
<text text-anchor="middle" x="465" y="-52" font-family="Helvetica,sans-Serif" font-size="10.00"> aabb_local</text>
</g>
<!-- Node5 -->
<g id="node5" class="node"><title>Node5</title>
<g id="a_node5"><a xlink:href="a00069.html" target="_top" xlink:title="Eigen::FclMatrix\&lt; FCL\l_REAL, 1 \&gt;">
<polygon fill="white" stroke="black" points="182,-46 182,-76 298,-76 298,-46 182,-46"/>
<text text-anchor="start" x="190" y="-64" font-family="Helvetica,sans-Serif" font-size="10.00">Eigen::FclMatrix&lt; FCL</text>
<text text-anchor="middle" x="240" y="-53" font-family="Helvetica,sans-Serif" font-size="10.00">_REAL, 1 &gt;</text>
</a>
</g>
</g>
<!-- Node5&#45;&gt;Node3 -->
<g id="edge7" class="edge"><title>Node5&#45;&gt;Node3</title>
<path fill="none" stroke="#9a32cd" stroke-dasharray="5,2" d="M308.35,-65.7049C310.932,-65.8171 313.489,-65.9164 316,-66 382.062,-68.1996 458.065,-66.3233 508.336,-64.4681"/>
<polygon fill="#9a32cd" stroke="#9a32cd" points="308.467,-62.2066 298.308,-65.2145 308.126,-69.1983 308.467,-62.2066"/>
<text text-anchor="middle" x="392" y="-69" font-family="Helvetica,sans-Serif" font-size="10.00"> aabb_center</text>
</g>
<!-- Node5&#45;&gt;Node4 -->
<g id="edge4" class="edge"><title>Node5&#45;&gt;Node4</title>
<path fill="none" stroke="#9a32cd" stroke-dasharray="5,2" d="M308.023,-45.4937C310.713,-44.971 313.38,-44.4706 316,-44 330.998,-41.3061 347.803,-39.0003 361.698,-37.284"/>
<polygon fill="#9a32cd" stroke="#9a32cd" points="307.33,-42.0629 298.219,-47.4707 308.714,-48.9248 307.33,-42.0629"/>
<text text-anchor="middle" x="330" y="-58" font-family="Helvetica,sans-Serif" font-size="10.00"> max_</text>
<text text-anchor="middle" x="330" y="-47" font-family="Helvetica,sans-Serif" font-size="10.00">min_</text>
</g>
<!-- Node6 -->
<g id="node6" class="node"><title>Node6</title>
<polygon fill="white" stroke="#bfbfbf" points="6.5,-71 6.5,-123 137.5,-123 137.5,-71 6.5,-71"/>
<text text-anchor="start" x="14.5" y="-111" font-family="Helvetica,sans-Serif" font-size="10.00">Matrix&lt; FCL_REAL ,</text>
<text text-anchor="start" x="14.5" y="-100" font-family="Helvetica,sans-Serif" font-size="10.00"> 3, Cols, internal::</text>
<text text-anchor="start" x="14.5" y="-89" font-family="Helvetica,sans-Serif" font-size="10.00">traits&lt;Matrix &lt;FCL_REAL</text>
<text text-anchor="middle" x="72" y="-78" font-family="Helvetica,sans-Serif" font-size="10.00"> , 3, Cols&gt; &gt;::Options &gt;</text>
</g>
<!-- Node6&#45;&gt;Node5 -->
<g id="edge5" class="edge"><title>Node6&#45;&gt;Node5</title>
<path fill="none" stroke="midnightblue" d="M147.655,-80.8097C159.123,-78.3228 170.805,-75.7893 181.814,-73.4018"/>
<polygon fill="midnightblue" stroke="midnightblue" points="146.686,-77.4384 137.655,-82.9784 148.17,-84.2794 146.686,-77.4384"/>
</g>
<!-- Node7 -->
<g id="node7" class="node"><title>Node7</title>
<g id="a_node7"><a xlink:href="a00073.html" target="_top" xlink:title="fcl::FclType\&lt; FclMatrix\l\&lt; FCL_REAL, Cols, internal\l::traits\&lt; Matrix\&lt; FCL_REAL,\l 3, Cols \&gt; \&gt;::Options \&gt; \&gt;">
<polygon fill="white" stroke="black" points="0.5,-0 0.5,-52 143.5,-52 143.5,-0 0.5,-0"/>
<text text-anchor="start" x="8.5" y="-40" font-family="Helvetica,sans-Serif" font-size="10.00">fcl::FclType&lt; FclMatrix</text>
<text text-anchor="start" x="8.5" y="-29" font-family="Helvetica,sans-Serif" font-size="10.00">&lt; FCL_REAL, Cols, internal</text>
<text text-anchor="start" x="8.5" y="-18" font-family="Helvetica,sans-Serif" font-size="10.00">::traits&lt; Matrix&lt; FCL_REAL,</text>
<text text-anchor="middle" x="72" y="-7" font-family="Helvetica,sans-Serif" font-size="10.00"> 3, Cols &gt; &gt;::Options &gt; &gt;</text>
</a>
</g>
</g>
<!-- Node7&#45;&gt;Node5 -->
<g id="edge6" class="edge"><title>Node7&#45;&gt;Node5</title>
<path fill="none" stroke="midnightblue" d="M153.751,-43.0258C163.257,-45.03 172.802,-47.0425 181.887,-48.958"/>
<polygon fill="midnightblue" stroke="midnightblue" points="154.387,-39.5831 143.88,-40.9447 152.943,-46.4325 154.387,-39.5831"/>
</g>
</g>
</svg>
