<?xml version="1.0" encoding="UTF-8" standalone="no"?>
<!DOCTYPE svg PUBLIC "-//W3C//DTD SVG 1.1//EN"
 "http://www.w3.org/Graphics/SVG/1.1/DTD/svg11.dtd">
<!-- Generated by graphviz version 2.36.0 (20140111.2315)
 -->
<!-- Title: fcl::CollisionGeometry Pages: 1 -->
<svg width="412pt" height="408pt"
 viewBox="0.00 0.00 412.00 408.00" xmlns="http://www.w3.org/2000/svg" xmlns:xlink="http://www.w3.org/1999/xlink">
<g id="graph0" class="graph" transform="scale(1 1) rotate(0) translate(4 404)">
<title>fcl::CollisionGeometry</title>
<polygon fill="white" stroke="none" points="-4,4 -4,-404 408,-404 408,4 -4,4"/>
<!-- Node1 -->
<g id="node1" class="node"><title>Node1</title>
<polygon fill="#bfbfbf" stroke="black" points="0.5,-266.5 0.5,-285.5 113.5,-285.5 113.5,-266.5 0.5,-266.5"/>
<text text-anchor="middle" x="57" y="-273.5" font-family="Helvetica,sans-Serif" font-size="10.00">fcl::CollisionGeometry</text>
</g>
<!-- Node2 -->
<g id="node2" class="node"><title>Node2</title>
<g id="a_node2"><a xlink:href="a00022.html" target="_top" xlink:title="fcl::BVHModel\&lt; kIOS \&gt;">
<polygon fill="white" stroke="black" points="159.5,-380.5 159.5,-399.5 280.5,-399.5 280.5,-380.5 159.5,-380.5"/>
<text text-anchor="middle" x="220" y="-387.5" font-family="Helvetica,sans-Serif" font-size="10.00">fcl::BVHModel&lt; kIOS &gt;</text>
</a>
</g>
</g>
<!-- Node1&#45;&gt;Node2 -->
<g id="edge1" class="edge"><title>Node1&#45;&gt;Node2</title>
<path fill="none" stroke="midnightblue" d="M70.6278,-293.985C86.654,-315.475 116.301,-351.025 150,-371 156.52,-374.865 163.85,-377.966 171.235,-380.449"/>
<polygon fill="midnightblue" stroke="midnightblue" points="73.3323,-291.753 64.6212,-285.723 67.6703,-295.869 73.3323,-291.753"/>
</g>
<!-- Node3 -->
<g id="node3" class="node"><title>Node3</title>
<g id="a_node3"><a xlink:href="a00022.html" target="_top" xlink:title="fcl::BVHModel\&lt; OBB \&gt;">
<polygon fill="white" stroke="black" points="160.5,-342.5 160.5,-361.5 279.5,-361.5 279.5,-342.5 160.5,-342.5"/>
<text text-anchor="middle" x="220" y="-349.5" font-family="Helvetica,sans-Serif" font-size="10.00">fcl::BVHModel&lt; OBB &gt;</text>
</a>
</g>
</g>
<!-- Node1&#45;&gt;Node3 -->
<g id="edge2" class="edge"><title>Node1&#45;&gt;Node3</title>
<path fill="none" stroke="midnightblue" d="M79.3261,-291.672C97.378,-304.32 124.339,-321.795 150,-333 158.426,-336.679 167.747,-339.819 176.74,-342.424"/>
<polygon fill="midnightblue" stroke="midnightblue" points="80.926,-288.514 70.7523,-285.556 76.8611,-294.213 80.926,-288.514"/>
</g>
<!-- Node4 -->
<g id="node4" class="node"><title>Node4</title>
<g id="a_node4"><a xlink:href="a00022.html" target="_top" xlink:title="fcl::BVHModel\&lt; OBBRSS \&gt;">
<polygon fill="white" stroke="black" points="150,-304.5 150,-323.5 290,-323.5 290,-304.5 150,-304.5"/>
<text text-anchor="middle" x="220" y="-311.5" font-family="Helvetica,sans-Serif" font-size="10.00">fcl::BVHModel&lt; OBBRSS &gt;</text>
</a>
</g>
</g>
<!-- Node1&#45;&gt;Node4 -->
<g id="edge3" class="edge"><title>Node1&#45;&gt;Node4</title>
<path fill="none" stroke="midnightblue" d="M108.402,-287.896C131.032,-293.237 157.37,-299.454 178.665,-304.48"/>
<polygon fill="midnightblue" stroke="midnightblue" points="109.164,-284.48 98.6271,-285.589 107.556,-291.293 109.164,-284.48"/>
</g>
<!-- Node5 -->
<g id="node5" class="node"><title>Node5</title>
<g id="a_node5"><a xlink:href="a00022.html" target="_top" xlink:title="fcl::BVHModel\&lt; RSS \&gt;">
<polygon fill="white" stroke="black" points="160.5,-266.5 160.5,-285.5 279.5,-285.5 279.5,-266.5 160.5,-266.5"/>
<text text-anchor="middle" x="220" y="-273.5" font-family="Helvetica,sans-Serif" font-size="10.00">fcl::BVHModel&lt; RSS &gt;</text>
</a>
</g>
</g>
<!-- Node1&#45;&gt;Node5 -->
<g id="edge4" class="edge"><title>Node1&#45;&gt;Node5</title>
<path fill="none" stroke="midnightblue" d="M124.21,-276C136.148,-276 148.52,-276 160.228,-276"/>
<polygon fill="midnightblue" stroke="midnightblue" points="123.858,-272.5 113.858,-276 123.858,-279.5 123.858,-272.5"/>
</g>
<!-- Node6 -->
<g id="node6" class="node"><title>Node6</title>
<g id="a_node6"><a xlink:href="a00022.html" target="_top" xlink:title="A class describing the bounding hierarchy of a mesh model or a point cloud model (which is viewed as ...">
<polygon fill="white" stroke="black" points="164,-228.5 164,-247.5 276,-247.5 276,-228.5 164,-228.5"/>
<text text-anchor="middle" x="220" y="-235.5" font-family="Helvetica,sans-Serif" font-size="10.00">fcl::BVHModel&lt; BV &gt;</text>
</a>
</g>
</g>
<!-- Node1&#45;&gt;Node6 -->
<g id="edge5" class="edge"><title>Node1&#45;&gt;Node6</title>
<path fill="none" stroke="midnightblue" d="M108.402,-264.104C131.032,-258.763 157.37,-252.546 178.665,-247.52"/>
<polygon fill="midnightblue" stroke="midnightblue" points="107.556,-260.707 98.6271,-266.411 109.164,-267.52 107.556,-260.707"/>
</g>
<!-- Node7 -->
<g id="node7" class="node"><title>Node7</title>
<g id="a_node7"><a xlink:href="a00156.html" target="_top" xlink:title="Octree is one type of collision geometry which can encode uncertainty information in the sensor data...">
<polygon fill="white" stroke="black" points="187.5,-190.5 187.5,-209.5 252.5,-209.5 252.5,-190.5 187.5,-190.5"/>
<text text-anchor="middle" x="220" y="-197.5" font-family="Helvetica,sans-Serif" font-size="10.00">fcl::OcTree</text>
</a>
</g>
</g>
<!-- Node1&#45;&gt;Node7 -->
<g id="edge6" class="edge"><title>Node1&#45;&gt;Node7</title>
<path fill="none" stroke="midnightblue" d="M79.3261,-260.328C97.378,-247.68 124.339,-230.205 150,-219 161.842,-213.829 175.45,-209.724 187.435,-206.672"/>
<polygon fill="midnightblue" stroke="midnightblue" points="76.8611,-257.787 70.7523,-266.444 80.926,-263.486 76.8611,-257.787"/>
</g>
<!-- Node8 -->
<g id="node8" class="node"><title>Node8</title>
<g id="a_node8"><a xlink:href="a00198.html" target="_top" xlink:title="Base class for all basic geometric shapes. ">
<polygon fill="white" stroke="black" points="178.5,-152.5 178.5,-171.5 261.5,-171.5 261.5,-152.5 178.5,-152.5"/>
<text text-anchor="middle" x="220" y="-159.5" font-family="Helvetica,sans-Serif" font-size="10.00">fcl::ShapeBase</text>
</a>
</g>
</g>
<!-- Node1&#45;&gt;Node8 -->
<g id="edge7" class="edge"><title>Node1&#45;&gt;Node8</title>
<path fill="none" stroke="midnightblue" d="M70.6278,-258.015C86.654,-236.525 116.301,-200.975 150,-181 158.658,-175.868 168.744,-172.082 178.489,-169.303"/>
<polygon fill="midnightblue" stroke="midnightblue" points="67.6703,-256.131 64.6212,-266.277 73.3323,-260.247 67.6703,-256.131"/>
</g>
<!-- Node9 -->
<g id="node9" class="node"><title>Node9</title>
<g id="a_node9"><a xlink:href="a00009.html" target="_top" xlink:title="Center at zero point, axis aligned box. ">
<polygon fill="white" stroke="black" points="340,-304.5 340,-323.5 390,-323.5 390,-304.5 340,-304.5"/>
<text text-anchor="middle" x="365" y="-311.5" font-family="Helvetica,sans-Serif" font-size="10.00">fcl::Box</text>
</a>
</g>
</g>
<!-- Node8&#45;&gt;Node9 -->
<g id="edge8" class="edge"><title>Node8&#45;&gt;Node9</title>
<path fill="none" stroke="midnightblue" d="M271.272,-169.384C278.183,-172.147 284.71,-175.903 290,-181 328.263,-217.866 291.507,-254.585 326,-295 329.735,-299.376 334.722,-302.849 339.85,-305.564"/>
<polygon fill="midnightblue" stroke="midnightblue" points="272.285,-166.032 261.691,-166.2 270.077,-172.675 272.285,-166.032"/>
</g>
<!-- Node10 -->
<g id="node10" class="node"><title>Node10</title>
<g id="a_node10"><a xlink:href="a00030.html" target="_top" xlink:title="Center at zero point capsule. ">
<polygon fill="white" stroke="black" points="330.5,-266.5 330.5,-285.5 399.5,-285.5 399.5,-266.5 330.5,-266.5"/>
<text text-anchor="middle" x="365" y="-273.5" font-family="Helvetica,sans-Serif" font-size="10.00">fcl::Capsule</text>
</a>
</g>
</g>
<!-- Node8&#45;&gt;Node10 -->
<g id="edge9" class="edge"><title>Node8&#45;&gt;Node10</title>
<path fill="none" stroke="midnightblue" d="M271.628,-170.415C278.274,-173.045 284.63,-176.49 290,-181 318.621,-205.037 299.854,-230.292 326,-257 329.612,-260.69 334.09,-263.782 338.69,-266.328"/>
<polygon fill="midnightblue" stroke="midnightblue" points="272.359,-166.969 261.765,-167.115 270.138,-173.607 272.359,-166.969"/>
</g>
<!-- Node11 -->
<g id="node11" class="node"><title>Node11</title>
<g id="a_node11"><a xlink:href="a00037.html" target="_top" xlink:title="Center at zero cone. ">
<polygon fill="white" stroke="black" points="337,-228.5 337,-247.5 393,-247.5 393,-228.5 337,-228.5"/>
<text text-anchor="middle" x="365" y="-235.5" font-family="Helvetica,sans-Serif" font-size="10.00">fcl::Cone</text>
</a>
</g>
</g>
<!-- Node8&#45;&gt;Node11 -->
<g id="edge10" class="edge"><title>Node8&#45;&gt;Node11</title>
<path fill="none" stroke="midnightblue" d="M271.187,-172.316C277.751,-174.661 284.202,-177.52 290,-181 309.947,-192.972 307.312,-205.143 326,-219 330.74,-222.515 336.228,-225.688 341.534,-228.39"/>
<polygon fill="midnightblue" stroke="midnightblue" points="272.141,-168.947 261.551,-169.236 270.01,-175.615 272.141,-168.947"/>
</g>
<!-- Node12 -->
<g id="node12" class="node"><title>Node12</title>
<g id="a_node12"><a xlink:href="a00044.html" target="_top" xlink:title="Convex polytope. ">
<polygon fill="white" stroke="black" points="331.5,-190.5 331.5,-209.5 398.5,-209.5 398.5,-190.5 331.5,-190.5"/>
<text text-anchor="middle" x="365" y="-197.5" font-family="Helvetica,sans-Serif" font-size="10.00">fcl::Convex</text>
</a>
</g>
</g>
<!-- Node8&#45;&gt;Node12 -->
<g id="edge11" class="edge"><title>Node8&#45;&gt;Node12</title>
<path fill="none" stroke="midnightblue" d="M266.778,-174.165C287.795,-179.75 312.233,-186.244 331.35,-191.324"/>
<polygon fill="midnightblue" stroke="midnightblue" points="267.648,-170.775 257.085,-171.589 265.851,-177.54 267.648,-170.775"/>
</g>
<!-- Node13 -->
<g id="node13" class="node"><title>Node13</title>
<g id="a_node13"><a xlink:href="a00046.html" target="_top" xlink:title="Center at zero cylinder. ">
<polygon fill="white" stroke="black" points="330.5,-152.5 330.5,-171.5 399.5,-171.5 399.5,-152.5 330.5,-152.5"/>
<text text-anchor="middle" x="365" y="-159.5" font-family="Helvetica,sans-Serif" font-size="10.00">fcl::Cylinder</text>
</a>
</g>
</g>
<!-- Node8&#45;&gt;Node13 -->
<g id="edge12" class="edge"><title>Node8&#45;&gt;Node13</title>
<path fill="none" stroke="midnightblue" d="M271.771,-162C291.111,-162 312.666,-162 330.071,-162"/>
<polygon fill="midnightblue" stroke="midnightblue" points="271.596,-158.5 261.596,-162 271.596,-165.5 271.596,-158.5"/>
</g>
<!-- Node14 -->
<g id="node14" class="node"><title>Node14</title>
<g id="a_node14"><a xlink:href="a00085.html" target="_top" xlink:title="Half Space: this is equivalent to the Plane in ODE. ">
<polygon fill="white" stroke="black" points="326.5,-114.5 326.5,-133.5 403.5,-133.5 403.5,-114.5 326.5,-114.5"/>
<text text-anchor="middle" x="365" y="-121.5" font-family="Helvetica,sans-Serif" font-size="10.00">fcl::Halfspace</text>
</a>
</g>
</g>
<!-- Node8&#45;&gt;Node14 -->
<g id="edge13" class="edge"><title>Node8&#45;&gt;Node14</title>
<path fill="none" stroke="midnightblue" d="M266.813,-149.826C286.587,-144.571 309.384,-138.513 327.927,-133.586"/>
<polygon fill="midnightblue" stroke="midnightblue" points="265.851,-146.46 257.085,-152.411 267.648,-153.225 265.851,-146.46"/>
</g>
<!-- Node15 -->
<g id="node15" class="node"><title>Node15</title>
<g id="a_node15"><a xlink:href="a00166.html" target="_top" xlink:title="Infinite plane. ">
<polygon fill="white" stroke="black" points="336,-76.5 336,-95.5 394,-95.5 394,-76.5 336,-76.5"/>
<text text-anchor="middle" x="365" y="-83.5" font-family="Helvetica,sans-Serif" font-size="10.00">fcl::Plane</text>
</a>
</g>
</g>
<!-- Node8&#45;&gt;Node15 -->
<g id="edge14" class="edge"><title>Node8&#45;&gt;Node15</title>
<path fill="none" stroke="midnightblue" d="M247.384,-147.358C268.539,-135.695 299.044,-119.051 326,-105 332.017,-101.863 338.618,-98.5274 344.604,-95.5404"/>
<polygon fill="midnightblue" stroke="midnightblue" points="245.428,-144.44 238.368,-152.339 248.813,-150.567 245.428,-144.44"/>
</g>
<!-- Node16 -->
<g id="node16" class="node"><title>Node16</title>
<g id="a_node16"><a xlink:href="a00225.html" target="_top" xlink:title="Center at zero point sphere. ">
<polygon fill="white" stroke="black" points="333,-38.5 333,-57.5 397,-57.5 397,-38.5 333,-38.5"/>
<text text-anchor="middle" x="365" y="-45.5" font-family="Helvetica,sans-Serif" font-size="10.00">fcl::Sphere</text>
</a>
</g>
</g>
<!-- Node8&#45;&gt;Node16 -->
<g id="edge15" class="edge"><title>Node8&#45;&gt;Node16</title>
<path fill="none" stroke="midnightblue" d="M236.774,-145.16C256.358,-124.891 291.42,-90.6344 326,-67 330.993,-63.5872 336.687,-60.4113 342.119,-57.6707"/>
<polygon fill="midnightblue" stroke="midnightblue" points="234.203,-142.785 229.831,-152.436 239.267,-147.618 234.203,-142.785"/>
</g>
<!-- Node17 -->
<g id="node17" class="node"><title>Node17</title>
<g id="a_node17"><a xlink:href="a00248.html" target="_top" xlink:title="Triangle stores the points instead of only indices of points. ">
<polygon fill="white" stroke="black" points="328,-0.5 328,-19.5 402,-19.5 402,-0.5 328,-0.5"/>
<text text-anchor="middle" x="365" y="-7.5" font-family="Helvetica,sans-Serif" font-size="10.00">fcl::TriangleP</text>
</a>
</g>
</g>
<!-- Node8&#45;&gt;Node17 -->
<g id="edge16" class="edge"><title>Node8&#45;&gt;Node17</title>
<path fill="none" stroke="midnightblue" d="M231.702,-143.778C248.731,-116.042 284.36,-62.8848 326,-29 330.462,-25.3687 335.733,-22.1863 340.906,-19.5165"/>
<polygon fill="midnightblue" stroke="midnightblue" points="228.637,-142.084 226.475,-152.455 234.633,-145.696 228.637,-142.084"/>
</g>
</g>
</svg>
