<?xml version="1.0" encoding="UTF-8" standalone="no"?>
<!DOCTYPE svg PUBLIC "-//W3C//DTD SVG 1.1//EN"
 "http://www.w3.org/Graphics/SVG/1.1/DTD/svg11.dtd">
<!-- Generated by graphviz version 2.36.0 (20140111.2315)
 -->
<!-- Title: fcl::DynamicAABBTreeCollisionManager_Array Pages: 1 -->
<svg width="164pt" height="200pt"
 viewBox="0.00 0.00 164.00 200.00" xmlns="http://www.w3.org/2000/svg" xmlns:xlink="http://www.w3.org/1999/xlink">
<g id="graph0" class="graph" transform="scale(1 1) rotate(0) translate(4 196)">
<title>fcl::DynamicAABBTreeCollisionManager_Array</title>
<polygon fill="white" stroke="none" points="-4,4 -4,-196 160,-196 160,4 -4,4"/>
<!-- Node1 -->
<g id="node1" class="node"><title>Node1</title>
<polygon fill="#bfbfbf" stroke="black" points="0,-1 0,-31 156,-31 156,-1 0,-1"/>
<text text-anchor="start" x="8" y="-19" font-family="Helvetica,sans-Serif" font-size="10.00">fcl::DynamicAABBTreeCollision</text>
<text text-anchor="middle" x="78" y="-8" font-family="Helvetica,sans-Serif" font-size="10.00">Manager_Array</text>
</g>
<!-- Node2 -->
<g id="node2" class="node"><title>Node2</title>
<g id="a_node2"><a xlink:href="a00010.html" target="_top" xlink:title="Base class for broad phase collision. It helps to accelerate the collision/distance between N objects...">
<polygon fill="white" stroke="black" points="16,-71 16,-101 140,-101 140,-71 16,-71"/>
<text text-anchor="start" x="24" y="-89" font-family="Helvetica,sans-Serif" font-size="10.00">fcl::BroadPhaseCollision</text>
<text text-anchor="middle" x="78" y="-78" font-family="Helvetica,sans-Serif" font-size="10.00">Manager</text>
</a>
</g>
</g>
<!-- Node2&#45;&gt;Node1 -->
<g id="edge1" class="edge"><title>Node2&#45;&gt;Node1</title>
<path fill="none" stroke="midnightblue" d="M78,-60.7688C78,-50.8141 78,-39.6384 78,-31.0716"/>
<polygon fill="midnightblue" stroke="midnightblue" points="74.5001,-60.9103 78,-70.9104 81.5001,-60.9104 74.5001,-60.9103"/>
</g>
<!-- Node3 -->
<g id="node3" class="node"><title>Node3</title>
<polygon fill="white" stroke="#bfbfbf" points="9.5,-150.5 9.5,-191.5 146.5,-191.5 146.5,-150.5 9.5,-150.5"/>
<text text-anchor="start" x="17.5" y="-179.5" font-family="Helvetica,sans-Serif" font-size="10.00">std::set&lt; std::pair</text>
<text text-anchor="start" x="17.5" y="-168.5" font-family="Helvetica,sans-Serif" font-size="10.00">&lt; fcl::CollisionObject</text>
<text text-anchor="middle" x="78" y="-157.5" font-family="Helvetica,sans-Serif" font-size="10.00"> *, fcl::CollisionObject * &gt; &gt;</text>
</g>
<!-- Node3&#45;&gt;Node2 -->
<g id="edge2" class="edge"><title>Node3&#45;&gt;Node2</title>
<path fill="none" stroke="#9a32cd" stroke-dasharray="5,2" d="M78,-140.137C78,-126.816 78,-111.754 78,-101.077"/>
<polygon fill="#9a32cd" stroke="#9a32cd" points="74.5001,-140.33 78,-150.33 81.5001,-140.33 74.5001,-140.33"/>
<text text-anchor="middle" x="102.5" y="-123.5" font-family="Helvetica,sans-Serif" font-size="10.00"> tested_set</text>
</g>
</g>
</svg>
