<?xml version="1.0" encoding="UTF-8" standalone="no"?>
<!DOCTYPE svg PUBLIC "-//W3C//DTD SVG 1.1//EN"
 "http://www.w3.org/Graphics/SVG/1.1/DTD/svg11.dtd">
<!-- Generated by graphviz version 2.36.0 (20140111.2315)
 -->
<!-- Title: fcl::BVHModel&lt; BV &gt; Pages: 1 -->
<svg width="902pt" height="216pt"
 viewBox="0.00 0.00 902.00 216.00" xmlns="http://www.w3.org/2000/svg" xmlns:xlink="http://www.w3.org/1999/xlink">
<g id="graph0" class="graph" transform="scale(1 1) rotate(0) translate(4 212)">
<title>fcl::BVHModel&lt; BV &gt;</title>
<polygon fill="white" stroke="none" points="-4,4 -4,-212 898,-212 898,4 -4,4"/>
<!-- Node1 -->
<g id="node1" class="node"><title>Node1</title>
<polygon fill="#bfbfbf" stroke="black" points="782,-84.5 782,-103.5 894,-103.5 894,-84.5 782,-84.5"/>
<text text-anchor="middle" x="838" y="-91.5" font-family="Helvetica,sans-Serif" font-size="10.00">fcl::BVHModel&lt; BV &gt;</text>
</g>
<!-- Node2 -->
<g id="node2" class="node"><title>Node2</title>
<g id="a_node2"><a xlink:href="a00032.html" target="_top" xlink:title="The geometry for the object for collision or distance computation. ">
<polygon fill="white" stroke="black" points="570.5,-141.5 570.5,-160.5 683.5,-160.5 683.5,-141.5 570.5,-141.5"/>
<text text-anchor="middle" x="627" y="-148.5" font-family="Helvetica,sans-Serif" font-size="10.00">fcl::CollisionGeometry</text>
</a>
</g>
</g>
<!-- Node2&#45;&gt;Node1 -->
<g id="edge1" class="edge"><title>Node2&#45;&gt;Node1</title>
<path fill="none" stroke="midnightblue" d="M680.871,-139.203C706.153,-133.299 736.773,-125.766 764,-118 779.267,-113.646 796.114,-108.154 809.774,-103.522"/>
<polygon fill="midnightblue" stroke="midnightblue" points="680.058,-135.799 671.106,-141.465 681.638,-142.618 680.058,-135.799"/>
</g>
<!-- Node3 -->
<g id="node3" class="node"><title>Node3</title>
<g id="a_node3"><a xlink:href="a00003.html" target="_top" xlink:title="A class describing the AABB collision structure, which is a box in 3D space determined by two diagona...">
<polygon fill="white" stroke="black" points="393,-111.5 393,-130.5 453,-130.5 453,-111.5 393,-111.5"/>
<text text-anchor="middle" x="423" y="-118.5" font-family="Helvetica,sans-Serif" font-size="10.00">fcl::AABB</text>
</a>
</g>
</g>
<!-- Node3&#45;&gt;Node2 -->
<g id="edge2" class="edge"><title>Node3&#45;&gt;Node2</title>
<path fill="none" stroke="#9a32cd" stroke-dasharray="5,2" d="M463.599,-126.881C494.017,-131.399 536.409,-137.694 570.254,-142.721"/>
<polygon fill="#9a32cd" stroke="#9a32cd" points="463.778,-123.369 453.373,-125.362 462.75,-130.293 463.778,-123.369"/>
<text text-anchor="middle" x="527" y="-143" font-family="Helvetica,sans-Serif" font-size="10.00"> aabb_local</text>
</g>
<!-- Node4 -->
<g id="node4" class="node"><title>Node4</title>
<g id="a_node4"><a xlink:href="a00069.html" target="_top" xlink:title="Eigen::FclMatrix\&lt; FCL\l_REAL, 1 \&gt;">
<polygon fill="white" stroke="black" points="182,-131 182,-161 298,-161 298,-131 182,-131"/>
<text text-anchor="start" x="190" y="-149" font-family="Helvetica,sans-Serif" font-size="10.00">Eigen::FclMatrix&lt; FCL</text>
<text text-anchor="middle" x="240" y="-138" font-family="Helvetica,sans-Serif" font-size="10.00">_REAL, 1 &gt;</text>
</a>
</g>
</g>
<!-- Node4&#45;&gt;Node2 -->
<g id="edge6" class="edge"><title>Node4&#45;&gt;Node2</title>
<path fill="none" stroke="#9a32cd" stroke-dasharray="5,2" d="M308.339,-152.587C310.925,-152.744 313.485,-152.883 316,-153 404.842,-157.137 508.159,-155.1 570.244,-153.135"/>
<polygon fill="#9a32cd" stroke="#9a32cd" points="308.505,-149.09 298.289,-151.9 308.028,-156.074 308.505,-149.09"/>
<text text-anchor="middle" x="423" y="-158" font-family="Helvetica,sans-Serif" font-size="10.00"> aabb_center</text>
</g>
<!-- Node4&#45;&gt;Node3 -->
<g id="edge3" class="edge"><title>Node4&#45;&gt;Node3</title>
<path fill="none" stroke="#9a32cd" stroke-dasharray="5,2" d="M308.303,-132.194C310.898,-131.771 313.471,-131.371 316,-131 341.787,-127.215 371.324,-124.566 392.658,-122.95"/>
<polygon fill="#9a32cd" stroke="#9a32cd" points="307.486,-128.783 298.222,-133.923 308.67,-135.682 307.486,-128.783"/>
<text text-anchor="middle" x="330" y="-145" font-family="Helvetica,sans-Serif" font-size="10.00"> max_</text>
<text text-anchor="middle" x="330" y="-134" font-family="Helvetica,sans-Serif" font-size="10.00">min_</text>
</g>
<!-- Node5 -->
<g id="node5" class="node"><title>Node5</title>
<polygon fill="white" stroke="#bfbfbf" points="6.5,-156 6.5,-208 137.5,-208 137.5,-156 6.5,-156"/>
<text text-anchor="start" x="14.5" y="-196" font-family="Helvetica,sans-Serif" font-size="10.00">Matrix&lt; FCL_REAL ,</text>
<text text-anchor="start" x="14.5" y="-185" font-family="Helvetica,sans-Serif" font-size="10.00"> 3, Cols, internal::</text>
<text text-anchor="start" x="14.5" y="-174" font-family="Helvetica,sans-Serif" font-size="10.00">traits&lt;Matrix &lt;FCL_REAL</text>
<text text-anchor="middle" x="72" y="-163" font-family="Helvetica,sans-Serif" font-size="10.00"> , 3, Cols&gt; &gt;::Options &gt;</text>
</g>
<!-- Node5&#45;&gt;Node4 -->
<g id="edge4" class="edge"><title>Node5&#45;&gt;Node4</title>
<path fill="none" stroke="midnightblue" d="M147.655,-165.81C159.123,-163.323 170.805,-160.789 181.814,-158.402"/>
<polygon fill="midnightblue" stroke="midnightblue" points="146.686,-162.438 137.655,-167.978 148.17,-169.279 146.686,-162.438"/>
</g>
<!-- Node6 -->
<g id="node6" class="node"><title>Node6</title>
<g id="a_node6"><a xlink:href="a00073.html" target="_top" xlink:title="fcl::FclType\&lt; FclMatrix\l\&lt; FCL_REAL, Cols, internal\l::traits\&lt; Matrix\&lt; FCL_REAL,\l 3, Cols \&gt; \&gt;::Options \&gt; \&gt;">
<polygon fill="white" stroke="black" points="0.5,-85 0.5,-137 143.5,-137 143.5,-85 0.5,-85"/>
<text text-anchor="start" x="8.5" y="-125" font-family="Helvetica,sans-Serif" font-size="10.00">fcl::FclType&lt; FclMatrix</text>
<text text-anchor="start" x="8.5" y="-114" font-family="Helvetica,sans-Serif" font-size="10.00">&lt; FCL_REAL, Cols, internal</text>
<text text-anchor="start" x="8.5" y="-103" font-family="Helvetica,sans-Serif" font-size="10.00">::traits&lt; Matrix&lt; FCL_REAL,</text>
<text text-anchor="middle" x="72" y="-92" font-family="Helvetica,sans-Serif" font-size="10.00"> 3, Cols &gt; &gt;::Options &gt; &gt;</text>
</a>
</g>
</g>
<!-- Node6&#45;&gt;Node4 -->
<g id="edge5" class="edge"><title>Node6&#45;&gt;Node4</title>
<path fill="none" stroke="midnightblue" d="M153.751,-128.026C163.257,-130.03 172.802,-132.043 181.887,-133.958"/>
<polygon fill="midnightblue" stroke="midnightblue" points="154.387,-124.583 143.88,-125.945 152.943,-131.433 154.387,-124.583"/>
</g>
<!-- Node7 -->
<g id="node7" class="node"><title>Node7</title>
<polygon fill="white" stroke="#bfbfbf" points="591.5,-103.5 591.5,-122.5 662.5,-122.5 662.5,-103.5 591.5,-103.5"/>
<text text-anchor="middle" x="627" y="-110.5" font-family="Helvetica,sans-Serif" font-size="10.00">noncopyable</text>
</g>
<!-- Node7&#45;&gt;Node1 -->
<g id="edge7" class="edge"><title>Node7&#45;&gt;Node1</title>
<path fill="none" stroke="#8b1a1a" d="M672.474,-108.957C704.466,-106.049 747.815,-102.108 781.985,-99.0013"/>
<polygon fill="#8b1a1a" stroke="#8b1a1a" points="672.154,-105.471 662.512,-109.863 672.788,-112.443 672.154,-105.471"/>
</g>
<!-- Node8 -->
<g id="node8" class="node"><title>Node8</title>
<g id="a_node8"><a xlink:href="a00245.html" target="_top" xlink:title="Triangle with 3 indices for points. ">
<polygon fill="white" stroke="black" points="593,-65.5 593,-84.5 661,-84.5 661,-65.5 593,-65.5"/>
<text text-anchor="middle" x="627" y="-72.5" font-family="Helvetica,sans-Serif" font-size="10.00">fcl::Triangle</text>
</a>
</g>
</g>
<!-- Node8&#45;&gt;Node1 -->
<g id="edge8" class="edge"><title>Node8&#45;&gt;Node1</title>
<path fill="none" stroke="#9a32cd" stroke-dasharray="5,2" d="M671.185,-78.1776C697.933,-80.224 732.981,-83.0465 764,-86 769.711,-86.5438 775.671,-87.1436 781.614,-87.763"/>
<polygon fill="#9a32cd" stroke="#9a32cd" points="671.237,-74.6716 661.001,-77.4052 670.708,-81.6516 671.237,-74.6716"/>
<text text-anchor="middle" x="733" y="-89" font-family="Helvetica,sans-Serif" font-size="10.00"> tri_indices</text>
</g>
<!-- Node9 -->
<g id="node9" class="node"><title>Node9</title>
<g id="a_node9"><a xlink:href="a00069.html" target="_top" xlink:title="Vector3 class wrapper. The core data is in the template parameter class. ">
<polygon fill="white" stroke="black" points="574,-16 574,-46 680,-46 680,-16 574,-16"/>
<text text-anchor="start" x="582" y="-34" font-family="Helvetica,sans-Serif" font-size="10.00">Eigen::FclMatrix&lt; T,</text>
<text text-anchor="middle" x="627" y="-23" font-family="Helvetica,sans-Serif" font-size="10.00"> Cols, _Options &gt;</text>
</a>
</g>
</g>
<!-- Node9&#45;&gt;Node1 -->
<g id="edge9" class="edge"><title>Node9&#45;&gt;Node1</title>
<path fill="none" stroke="#9a32cd" stroke-dasharray="5,2" d="M690.503,-37.8052C713.968,-41.4513 740.608,-46.9177 764,-55 785.458,-62.414 808.236,-75.5323 822.531,-84.4894"/>
<polygon fill="#9a32cd" stroke="#9a32cd" points="690.719,-34.2992 680.316,-36.3035 689.698,-41.2244 690.719,-34.2992"/>
<text text-anchor="middle" x="733" y="-69" font-family="Helvetica,sans-Serif" font-size="10.00"> prev_vertices</text>
<text text-anchor="middle" x="733" y="-58" font-family="Helvetica,sans-Serif" font-size="10.00">vertices</text>
</g>
<!-- Node10 -->
<g id="node10" class="node"><title>Node10</title>
<polygon fill="white" stroke="#bfbfbf" points="371,-49 371,-79 475,-79 475,-49 371,-49"/>
<text text-anchor="start" x="379" y="-67" font-family="Helvetica,sans-Serif" font-size="10.00">Eigen::Matrix&lt; T, 3,</text>
<text text-anchor="middle" x="423" y="-56" font-family="Helvetica,sans-Serif" font-size="10.00"> Cols, _Options &gt;</text>
</g>
<!-- Node10&#45;&gt;Node9 -->
<g id="edge10" class="edge"><title>Node10&#45;&gt;Node9</title>
<path fill="none" stroke="midnightblue" d="M485.392,-53.9706C513.621,-49.359 546.755,-43.946 573.766,-39.5334"/>
<polygon fill="midnightblue" stroke="midnightblue" points="484.539,-50.5635 475.234,-55.63 485.668,-57.4719 484.539,-50.5635"/>
</g>
<!-- Node11 -->
<g id="node11" class="node"><title>Node11</title>
<g id="a_node11"><a xlink:href="a00073.html" target="_top" xlink:title="fcl::FclType\&lt; FclMatrix\l\&lt; T, Cols, _Options \&gt; \&gt;">
<polygon fill="white" stroke="black" points="362.5,-0 362.5,-30 483.5,-30 483.5,-0 362.5,-0"/>
<text text-anchor="start" x="370.5" y="-18" font-family="Helvetica,sans-Serif" font-size="10.00">fcl::FclType&lt; FclMatrix</text>
<text text-anchor="middle" x="423" y="-7" font-family="Helvetica,sans-Serif" font-size="10.00">&lt; T, Cols, _Options &gt; &gt;</text>
</a>
</g>
</g>
<!-- Node11&#45;&gt;Node9 -->
<g id="edge11" class="edge"><title>Node11&#45;&gt;Node9</title>
<path fill="none" stroke="midnightblue" d="M493.782,-20.5273C520.026,-22.606 549.39,-24.9319 573.767,-26.8627"/>
<polygon fill="midnightblue" stroke="midnightblue" points="493.759,-17.0146 483.514,-19.714 493.206,-23.9928 493.759,-17.0146"/>
</g>
</g>
</svg>
