<?xml version="1.0" encoding="UTF-8" standalone="no"?>
<!DOCTYPE svg PUBLIC "-//W3C//DTD SVG 1.1//EN"
 "http://www.w3.org/Graphics/SVG/1.1/DTD/svg11.dtd">
<!-- Generated by graphviz version 2.36.0 (20140111.2315)
 -->
<!-- Title: fcl::BVHShapeCollisionTraversalNode&lt; BV, S &gt; Pages: 1 -->
<svg width="1026pt" height="154pt"
 viewBox="0.00 0.00 1026.00 154.00" xmlns="http://www.w3.org/2000/svg" xmlns:xlink="http://www.w3.org/1999/xlink">
<g id="graph0" class="graph" transform="scale(1 1) rotate(0) translate(4 150)">
<title>fcl::BVHShapeCollisionTraversalNode&lt; BV, S &gt;</title>
<polygon fill="white" stroke="none" points="-4,4 -4,-150 1022,-150 1022,4 -4,4"/>
<!-- Node1 -->
<g id="node1" class="node"><title>Node1</title>
<polygon fill="#bfbfbf" stroke="black" points="858,-33 858,-63 1018,-63 1018,-33 858,-33"/>
<text text-anchor="start" x="866" y="-51" font-family="Helvetica,sans-Serif" font-size="10.00">fcl::BVHShapeCollisionTraversal</text>
<text text-anchor="middle" x="938" y="-40" font-family="Helvetica,sans-Serif" font-size="10.00">Node&lt; BV, S &gt;</text>
</g>
<!-- Node2 -->
<g id="node2" class="node"><title>Node2</title>
<g id="a_node2"><a xlink:href="a00036.html" target="_top" xlink:title="Node structure encoding the information required for collision traversal. ">
<polygon fill="white" stroke="black" points="612.5,-76.5 612.5,-95.5 769.5,-95.5 769.5,-76.5 612.5,-76.5"/>
<text text-anchor="middle" x="691" y="-83.5" font-family="Helvetica,sans-Serif" font-size="10.00">fcl::CollisionTraversalNodeBase</text>
</a>
</g>
</g>
<!-- Node2&#45;&gt;Node1 -->
<g id="edge1" class="edge"><title>Node2&#45;&gt;Node1</title>
<path fill="none" stroke="midnightblue" d="M763.737,-74.8734C793.263,-70.294 827.568,-64.9732 857.825,-60.2802"/>
<polygon fill="midnightblue" stroke="midnightblue" points="762.853,-71.4686 753.508,-76.46 763.926,-78.3859 762.853,-71.4686"/>
</g>
<!-- Node3 -->
<g id="node3" class="node"><title>Node3</title>
<g id="a_node3"><a xlink:href="a00244.html" target="_top" xlink:title="Node structure encoding the information required for traversal. ">
<polygon fill="white" stroke="black" points="420.5,-114.5 420.5,-133.5 539.5,-133.5 539.5,-114.5 420.5,-114.5"/>
<text text-anchor="middle" x="480" y="-121.5" font-family="Helvetica,sans-Serif" font-size="10.00">fcl::TraversalNodeBase</text>
</a>
</g>
</g>
<!-- Node3&#45;&gt;Node2 -->
<g id="edge2" class="edge"><title>Node3&#45;&gt;Node2</title>
<path fill="none" stroke="midnightblue" d="M543.408,-112.653C573.395,-107.201 608.934,-100.739 637.509,-95.5439"/>
<polygon fill="midnightblue" stroke="midnightblue" points="542.682,-109.228 533.47,-114.46 543.935,-116.115 542.682,-109.228"/>
</g>
<!-- Node4 -->
<g id="node4" class="node"><title>Node4</title>
<g id="a_node4"><a xlink:href="a00242.html" target="_top" xlink:title="Simple transform class used locally by InterpMotion. ">
<polygon fill="white" stroke="black" points="197,-114.5 197,-133.5 283,-133.5 283,-114.5 197,-114.5"/>
<text text-anchor="middle" x="240" y="-121.5" font-family="Helvetica,sans-Serif" font-size="10.00">fcl::Transform3f</text>
</a>
</g>
</g>
<!-- Node4&#45;&gt;Node3 -->
<g id="edge3" class="edge"><title>Node4&#45;&gt;Node3</title>
<path fill="none" stroke="#9a32cd" stroke-dasharray="5,2" d="M293.231,-124C330.806,-124 381.513,-124 420.457,-124"/>
<polygon fill="#9a32cd" stroke="#9a32cd" points="293.002,-120.5 283.002,-124 293.002,-127.5 293.002,-120.5"/>
<text text-anchor="middle" x="359" y="-138" font-family="Helvetica,sans-Serif" font-size="10.00"> tf1</text>
<text text-anchor="middle" x="359" y="-127" font-family="Helvetica,sans-Serif" font-size="10.00">tf2</text>
</g>
<!-- Node5 -->
<g id="node5" class="node"><title>Node5</title>
<g id="a_node5"><a xlink:href="a00034.html" target="_top" xlink:title="request to the collision algorithm ">
<polygon fill="white" stroke="black" points="426.5,-76.5 426.5,-95.5 533.5,-95.5 533.5,-76.5 426.5,-76.5"/>
<text text-anchor="middle" x="480" y="-83.5" font-family="Helvetica,sans-Serif" font-size="10.00">fcl::CollisionRequest</text>
</a>
</g>
</g>
<!-- Node5&#45;&gt;Node2 -->
<g id="edge4" class="edge"><title>Node5&#45;&gt;Node2</title>
<path fill="none" stroke="#9a32cd" stroke-dasharray="5,2" d="M543.761,-86C565.344,-86 589.769,-86 612.39,-86"/>
<polygon fill="#9a32cd" stroke="#9a32cd" points="543.74,-82.5001 533.74,-86 543.739,-89.5001 543.74,-82.5001"/>
<text text-anchor="middle" x="576" y="-89" font-family="Helvetica,sans-Serif" font-size="10.00"> request</text>
</g>
<!-- Node6 -->
<g id="node6" class="node"><title>Node6</title>
<g id="a_node6"><a xlink:href="a00069.html" target="_top" xlink:title="Eigen::FclMatrix\&lt; FCL\l_REAL, 1 \&gt;">
<polygon fill="white" stroke="black" points="182,-50 182,-80 298,-80 298,-50 182,-50"/>
<text text-anchor="start" x="190" y="-68" font-family="Helvetica,sans-Serif" font-size="10.00">Eigen::FclMatrix&lt; FCL</text>
<text text-anchor="middle" x="240" y="-57" font-family="Helvetica,sans-Serif" font-size="10.00">_REAL, 1 &gt;</text>
</a>
</g>
</g>
<!-- Node6&#45;&gt;Node5 -->
<g id="edge5" class="edge"><title>Node6&#45;&gt;Node5</title>
<path fill="none" stroke="#9a32cd" stroke-dasharray="5,2" d="M308.296,-70.9379C345.626,-74.2317 391.383,-78.2691 426.124,-81.3344"/>
<polygon fill="#9a32cd" stroke="#9a32cd" points="308.276,-67.4226 298.007,-70.03 307.661,-74.3955 308.276,-67.4226"/>
<text text-anchor="middle" x="359" y="-82" font-family="Helvetica,sans-Serif" font-size="10.00"> cached_gjk_guess</text>
</g>
<!-- Node9 -->
<g id="node9" class="node"><title>Node9</title>
<g id="a_node9"><a xlink:href="a00035.html" target="_top" xlink:title="collision result ">
<polygon fill="white" stroke="black" points="430.5,-38.5 430.5,-57.5 529.5,-57.5 529.5,-38.5 430.5,-38.5"/>
<text text-anchor="middle" x="480" y="-45.5" font-family="Helvetica,sans-Serif" font-size="10.00">fcl::CollisionResult</text>
</a>
</g>
</g>
<!-- Node6&#45;&gt;Node9 -->
<g id="edge9" class="edge"><title>Node6&#45;&gt;Node9</title>
<path fill="none" stroke="#9a32cd" stroke-dasharray="5,2" d="M308.283,-51.8883C310.884,-51.5569 313.463,-51.2583 316,-51 354.295,-47.1007 397.904,-46.4978 430.374,-46.7892"/>
<polygon fill="#9a32cd" stroke="#9a32cd" points="307.599,-48.4501 298.186,-53.3132 308.577,-55.3814 307.599,-48.4501"/>
<text text-anchor="middle" x="359" y="-54" font-family="Helvetica,sans-Serif" font-size="10.00"> cached_gjk_guess</text>
</g>
<!-- Node7 -->
<g id="node7" class="node"><title>Node7</title>
<polygon fill="white" stroke="#bfbfbf" points="6.5,-75 6.5,-127 137.5,-127 137.5,-75 6.5,-75"/>
<text text-anchor="start" x="14.5" y="-115" font-family="Helvetica,sans-Serif" font-size="10.00">Matrix&lt; FCL_REAL ,</text>
<text text-anchor="start" x="14.5" y="-104" font-family="Helvetica,sans-Serif" font-size="10.00"> 3, Cols, internal::</text>
<text text-anchor="start" x="14.5" y="-93" font-family="Helvetica,sans-Serif" font-size="10.00">traits&lt;Matrix &lt;FCL_REAL</text>
<text text-anchor="middle" x="72" y="-82" font-family="Helvetica,sans-Serif" font-size="10.00"> , 3, Cols&gt; &gt;::Options &gt;</text>
</g>
<!-- Node7&#45;&gt;Node6 -->
<g id="edge6" class="edge"><title>Node7&#45;&gt;Node6</title>
<path fill="none" stroke="midnightblue" d="M147.655,-84.8097C159.123,-82.3228 170.805,-79.7893 181.814,-77.4018"/>
<polygon fill="midnightblue" stroke="midnightblue" points="146.686,-81.4384 137.655,-86.9784 148.17,-88.2794 146.686,-81.4384"/>
</g>
<!-- Node8 -->
<g id="node8" class="node"><title>Node8</title>
<g id="a_node8"><a xlink:href="a00073.html" target="_top" xlink:title="fcl::FclType\&lt; FclMatrix\l\&lt; FCL_REAL, Cols, internal\l::traits\&lt; Matrix\&lt; FCL_REAL,\l 3, Cols \&gt; \&gt;::Options \&gt; \&gt;">
<polygon fill="white" stroke="black" points="0.5,-4 0.5,-56 143.5,-56 143.5,-4 0.5,-4"/>
<text text-anchor="start" x="8.5" y="-44" font-family="Helvetica,sans-Serif" font-size="10.00">fcl::FclType&lt; FclMatrix</text>
<text text-anchor="start" x="8.5" y="-33" font-family="Helvetica,sans-Serif" font-size="10.00">&lt; FCL_REAL, Cols, internal</text>
<text text-anchor="start" x="8.5" y="-22" font-family="Helvetica,sans-Serif" font-size="10.00">::traits&lt; Matrix&lt; FCL_REAL,</text>
<text text-anchor="middle" x="72" y="-11" font-family="Helvetica,sans-Serif" font-size="10.00"> 3, Cols &gt; &gt;::Options &gt; &gt;</text>
</a>
</g>
</g>
<!-- Node8&#45;&gt;Node6 -->
<g id="edge7" class="edge"><title>Node8&#45;&gt;Node6</title>
<path fill="none" stroke="midnightblue" d="M153.751,-47.0258C163.257,-49.03 172.802,-51.0425 181.887,-52.958"/>
<polygon fill="midnightblue" stroke="midnightblue" points="154.387,-43.5831 143.88,-44.9447 152.943,-50.4325 154.387,-43.5831"/>
</g>
<!-- Node9&#45;&gt;Node2 -->
<g id="edge8" class="edge"><title>Node9&#45;&gt;Node2</title>
<path fill="none" stroke="#9a32cd" stroke-dasharray="5,2" d="M539.878,-58.7051C570.579,-64.2871 607.817,-71.0576 637.524,-76.4589"/>
<polygon fill="#9a32cd" stroke="#9a32cd" points="540.202,-55.2067 529.737,-56.8614 538.95,-62.0938 540.202,-55.2067"/>
<text text-anchor="middle" x="576" y="-72" font-family="Helvetica,sans-Serif" font-size="10.00"> result</text>
</g>
<!-- Node10 -->
<g id="node10" class="node"><title>Node10</title>
<polygon fill="white" stroke="#bfbfbf" points="676,-38.5 676,-57.5 706,-57.5 706,-38.5 676,-38.5"/>
<text text-anchor="middle" x="691" y="-45.5" font-family="Helvetica,sans-Serif" font-size="10.00">BV</text>
</g>
<!-- Node10&#45;&gt;Node1 -->
<g id="edge10" class="edge"><title>Node10&#45;&gt;Node1</title>
<path fill="none" stroke="#9a32cd" stroke-dasharray="5,2" d="M716.643,-48C749.397,-48 808.83,-48 857.725,-48"/>
<polygon fill="#9a32cd" stroke="#9a32cd" points="716.231,-44.5001 706.231,-48 716.231,-51.5001 716.231,-44.5001"/>
<text text-anchor="middle" x="814" y="-51" font-family="Helvetica,sans-Serif" font-size="10.00"> model2_bv</text>
</g>
<!-- Node11 -->
<g id="node11" class="node"><title>Node11</title>
<polygon fill="white" stroke="#bfbfbf" points="676.5,-0.5 676.5,-19.5 705.5,-19.5 705.5,-0.5 676.5,-0.5"/>
<text text-anchor="middle" x="691" y="-7.5" font-family="Helvetica,sans-Serif" font-size="10.00">S</text>
</g>
<!-- Node11&#45;&gt;Node1 -->
<g id="edge11" class="edge"><title>Node11&#45;&gt;Node1</title>
<path fill="none" stroke="#9a32cd" stroke-dasharray="5,2" d="M715.43,-13.6341C747.971,-18.6813 808.438,-28.0598 857.993,-35.7458"/>
<polygon fill="#9a32cd" stroke="#9a32cd" points="715.94,-10.1713 705.521,-12.0972 714.867,-17.0886 715.94,-10.1713"/>
<text text-anchor="middle" x="814" y="-36" font-family="Helvetica,sans-Serif" font-size="10.00"> model2</text>
</g>
</g>
</svg>
