<?xml version="1.0" encoding="UTF-8" standalone="no"?>
<!DOCTYPE svg PUBLIC "-//W3C//DTD SVG 1.1//EN"
 "http://www.w3.org/Graphics/SVG/1.1/DTD/svg11.dtd">
<!-- Generated by graphviz version 2.36.0 (20140111.2315)
 -->
<!-- Title: fcl::CollisionTraversalNodeBase Pages: 1 -->
<svg width="778pt" height="150pt"
 viewBox="0.00 0.00 778.00 150.00" xmlns="http://www.w3.org/2000/svg" xmlns:xlink="http://www.w3.org/1999/xlink">
<g id="graph0" class="graph" transform="scale(1 1) rotate(0) translate(4 146)">
<title>fcl::CollisionTraversalNodeBase</title>
<polygon fill="white" stroke="none" points="-4,4 -4,-146 774,-146 774,4 -4,4"/>
<!-- Node1 -->
<g id="node1" class="node"><title>Node1</title>
<polygon fill="#bfbfbf" stroke="black" points="612.5,-72.5 612.5,-91.5 769.5,-91.5 769.5,-72.5 612.5,-72.5"/>
<text text-anchor="middle" x="691" y="-79.5" font-family="Helvetica,sans-Serif" font-size="10.00">fcl::CollisionTraversalNodeBase</text>
</g>
<!-- Node2 -->
<g id="node2" class="node"><title>Node2</title>
<g id="a_node2"><a xlink:href="a00244.html" target="_top" xlink:title="Node structure encoding the information required for traversal. ">
<polygon fill="white" stroke="black" points="420.5,-110.5 420.5,-129.5 539.5,-129.5 539.5,-110.5 420.5,-110.5"/>
<text text-anchor="middle" x="480" y="-117.5" font-family="Helvetica,sans-Serif" font-size="10.00">fcl::TraversalNodeBase</text>
</a>
</g>
</g>
<!-- Node2&#45;&gt;Node1 -->
<g id="edge1" class="edge"><title>Node2&#45;&gt;Node1</title>
<path fill="none" stroke="midnightblue" d="M543.408,-108.653C573.395,-103.201 608.934,-96.7393 637.509,-91.5439"/>
<polygon fill="midnightblue" stroke="midnightblue" points="542.682,-105.228 533.47,-110.46 543.935,-112.115 542.682,-105.228"/>
</g>
<!-- Node3 -->
<g id="node3" class="node"><title>Node3</title>
<g id="a_node3"><a xlink:href="a00242.html" target="_top" xlink:title="Simple transform class used locally by InterpMotion. ">
<polygon fill="white" stroke="black" points="197,-110.5 197,-129.5 283,-129.5 283,-110.5 197,-110.5"/>
<text text-anchor="middle" x="240" y="-117.5" font-family="Helvetica,sans-Serif" font-size="10.00">fcl::Transform3f</text>
</a>
</g>
</g>
<!-- Node3&#45;&gt;Node2 -->
<g id="edge2" class="edge"><title>Node3&#45;&gt;Node2</title>
<path fill="none" stroke="#9a32cd" stroke-dasharray="5,2" d="M293.231,-120C330.806,-120 381.513,-120 420.457,-120"/>
<polygon fill="#9a32cd" stroke="#9a32cd" points="293.002,-116.5 283.002,-120 293.002,-123.5 293.002,-116.5"/>
<text text-anchor="middle" x="359" y="-134" font-family="Helvetica,sans-Serif" font-size="10.00"> tf1</text>
<text text-anchor="middle" x="359" y="-123" font-family="Helvetica,sans-Serif" font-size="10.00">tf2</text>
</g>
<!-- Node4 -->
<g id="node4" class="node"><title>Node4</title>
<g id="a_node4"><a xlink:href="a00034.html" target="_top" xlink:title="request to the collision algorithm ">
<polygon fill="white" stroke="black" points="426.5,-72.5 426.5,-91.5 533.5,-91.5 533.5,-72.5 426.5,-72.5"/>
<text text-anchor="middle" x="480" y="-79.5" font-family="Helvetica,sans-Serif" font-size="10.00">fcl::CollisionRequest</text>
</a>
</g>
</g>
<!-- Node4&#45;&gt;Node1 -->
<g id="edge3" class="edge"><title>Node4&#45;&gt;Node1</title>
<path fill="none" stroke="#9a32cd" stroke-dasharray="5,2" d="M543.761,-82C565.344,-82 589.769,-82 612.39,-82"/>
<polygon fill="#9a32cd" stroke="#9a32cd" points="543.74,-78.5001 533.74,-82 543.739,-85.5001 543.74,-78.5001"/>
<text text-anchor="middle" x="576" y="-85" font-family="Helvetica,sans-Serif" font-size="10.00"> request</text>
</g>
<!-- Node5 -->
<g id="node5" class="node"><title>Node5</title>
<g id="a_node5"><a xlink:href="a00069.html" target="_top" xlink:title="Eigen::FclMatrix\&lt; FCL\l_REAL, 1 \&gt;">
<polygon fill="white" stroke="black" points="182,-46 182,-76 298,-76 298,-46 182,-46"/>
<text text-anchor="start" x="190" y="-64" font-family="Helvetica,sans-Serif" font-size="10.00">Eigen::FclMatrix&lt; FCL</text>
<text text-anchor="middle" x="240" y="-53" font-family="Helvetica,sans-Serif" font-size="10.00">_REAL, 1 &gt;</text>
</a>
</g>
</g>
<!-- Node5&#45;&gt;Node4 -->
<g id="edge4" class="edge"><title>Node5&#45;&gt;Node4</title>
<path fill="none" stroke="#9a32cd" stroke-dasharray="5,2" d="M308.296,-66.9379C345.626,-70.2317 391.383,-74.2691 426.124,-77.3344"/>
<polygon fill="#9a32cd" stroke="#9a32cd" points="308.276,-63.4226 298.007,-66.03 307.661,-70.3955 308.276,-63.4226"/>
<text text-anchor="middle" x="359" y="-78" font-family="Helvetica,sans-Serif" font-size="10.00"> cached_gjk_guess</text>
</g>
<!-- Node8 -->
<g id="node8" class="node"><title>Node8</title>
<g id="a_node8"><a xlink:href="a00035.html" target="_top" xlink:title="collision result ">
<polygon fill="white" stroke="black" points="430.5,-34.5 430.5,-53.5 529.5,-53.5 529.5,-34.5 430.5,-34.5"/>
<text text-anchor="middle" x="480" y="-41.5" font-family="Helvetica,sans-Serif" font-size="10.00">fcl::CollisionResult</text>
</a>
</g>
</g>
<!-- Node5&#45;&gt;Node8 -->
<g id="edge8" class="edge"><title>Node5&#45;&gt;Node8</title>
<path fill="none" stroke="#9a32cd" stroke-dasharray="5,2" d="M308.283,-47.8883C310.884,-47.5569 313.463,-47.2583 316,-47 354.295,-43.1007 397.904,-42.4978 430.374,-42.7892"/>
<polygon fill="#9a32cd" stroke="#9a32cd" points="307.599,-44.4501 298.186,-49.3132 308.577,-51.3814 307.599,-44.4501"/>
<text text-anchor="middle" x="359" y="-50" font-family="Helvetica,sans-Serif" font-size="10.00"> cached_gjk_guess</text>
</g>
<!-- Node6 -->
<g id="node6" class="node"><title>Node6</title>
<polygon fill="white" stroke="#bfbfbf" points="6.5,-71 6.5,-123 137.5,-123 137.5,-71 6.5,-71"/>
<text text-anchor="start" x="14.5" y="-111" font-family="Helvetica,sans-Serif" font-size="10.00">Matrix&lt; FCL_REAL ,</text>
<text text-anchor="start" x="14.5" y="-100" font-family="Helvetica,sans-Serif" font-size="10.00"> 3, Cols, internal::</text>
<text text-anchor="start" x="14.5" y="-89" font-family="Helvetica,sans-Serif" font-size="10.00">traits&lt;Matrix &lt;FCL_REAL</text>
<text text-anchor="middle" x="72" y="-78" font-family="Helvetica,sans-Serif" font-size="10.00"> , 3, Cols&gt; &gt;::Options &gt;</text>
</g>
<!-- Node6&#45;&gt;Node5 -->
<g id="edge5" class="edge"><title>Node6&#45;&gt;Node5</title>
<path fill="none" stroke="midnightblue" d="M147.655,-80.8097C159.123,-78.3228 170.805,-75.7893 181.814,-73.4018"/>
<polygon fill="midnightblue" stroke="midnightblue" points="146.686,-77.4384 137.655,-82.9784 148.17,-84.2794 146.686,-77.4384"/>
</g>
<!-- Node7 -->
<g id="node7" class="node"><title>Node7</title>
<g id="a_node7"><a xlink:href="a00073.html" target="_top" xlink:title="fcl::FclType\&lt; FclMatrix\l\&lt; FCL_REAL, Cols, internal\l::traits\&lt; Matrix\&lt; FCL_REAL,\l 3, Cols \&gt; \&gt;::Options \&gt; \&gt;">
<polygon fill="white" stroke="black" points="0.5,-0 0.5,-52 143.5,-52 143.5,-0 0.5,-0"/>
<text text-anchor="start" x="8.5" y="-40" font-family="Helvetica,sans-Serif" font-size="10.00">fcl::FclType&lt; FclMatrix</text>
<text text-anchor="start" x="8.5" y="-29" font-family="Helvetica,sans-Serif" font-size="10.00">&lt; FCL_REAL, Cols, internal</text>
<text text-anchor="start" x="8.5" y="-18" font-family="Helvetica,sans-Serif" font-size="10.00">::traits&lt; Matrix&lt; FCL_REAL,</text>
<text text-anchor="middle" x="72" y="-7" font-family="Helvetica,sans-Serif" font-size="10.00"> 3, Cols &gt; &gt;::Options &gt; &gt;</text>
</a>
</g>
</g>
<!-- Node7&#45;&gt;Node5 -->
<g id="edge6" class="edge"><title>Node7&#45;&gt;Node5</title>
<path fill="none" stroke="midnightblue" d="M153.751,-43.0258C163.257,-45.03 172.802,-47.0425 181.887,-48.958"/>
<polygon fill="midnightblue" stroke="midnightblue" points="154.387,-39.5831 143.88,-40.9447 152.943,-46.4325 154.387,-39.5831"/>
</g>
<!-- Node8&#45;&gt;Node1 -->
<g id="edge7" class="edge"><title>Node8&#45;&gt;Node1</title>
<path fill="none" stroke="#9a32cd" stroke-dasharray="5,2" d="M539.878,-54.7051C570.579,-60.2871 607.817,-67.0576 637.524,-72.4589"/>
<polygon fill="#9a32cd" stroke="#9a32cd" points="540.202,-51.2067 529.737,-52.8614 538.95,-58.0938 540.202,-51.2067"/>
<text text-anchor="middle" x="576" y="-68" font-family="Helvetica,sans-Serif" font-size="10.00"> result</text>
</g>
</g>
</svg>
