<?xml version="1.0" encoding="UTF-8" standalone="no"?>
<!DOCTYPE svg PUBLIC "-//W3C//DTD SVG 1.1//EN"
 "http://www.w3.org/Graphics/SVG/1.1/DTD/svg11.dtd">
<!-- Generated by graphviz version 2.36.0 (20140111.2315)
 -->
<!-- Title: fcl::IMatrix3 Pages: 1 -->
<svg width="78pt" height="164pt"
 viewBox="0.00 0.00 78.00 164.00" xmlns="http://www.w3.org/2000/svg" xmlns:xlink="http://www.w3.org/1999/xlink">
<g id="graph0" class="graph" transform="scale(1 1) rotate(0) translate(4 160)">
<title>fcl::IMatrix3</title>
<polygon fill="white" stroke="none" points="-4,4 -4,-160 74,-160 74,4 -4,4"/>
<!-- Node1 -->
<g id="node1" class="node"><title>Node1</title>
<polygon fill="#bfbfbf" stroke="black" points="1,-0.5 1,-19.5 69,-19.5 69,-0.5 1,-0.5"/>
<text text-anchor="middle" x="35" y="-7.5" font-family="Helvetica,sans-Serif" font-size="10.00">fcl::IMatrix3</text>
</g>
<!-- Node2 -->
<g id="node2" class="node"><title>Node2</title>
<g id="a_node2"><a xlink:href="a00101.html" target="_top" xlink:title="fcl::IVector3">
<polygon fill="white" stroke="black" points="0,-68.5 0,-87.5 70,-87.5 70,-68.5 0,-68.5"/>
<text text-anchor="middle" x="35" y="-75.5" font-family="Helvetica,sans-Serif" font-size="10.00">fcl::IVector3</text>
</a>
</g>
</g>
<!-- Node2&#45;&gt;Node1 -->
<g id="edge1" class="edge"><title>Node2&#45;&gt;Node1</title>
<path fill="none" stroke="#9a32cd" stroke-dasharray="5,2" d="M35,-58.0413C35,-45.4724 35,-29.5631 35,-19.8411"/>
<polygon fill="#9a32cd" stroke="#9a32cd" points="31.5001,-58.3716 35,-68.3717 38.5001,-58.3717 31.5001,-58.3716"/>
<text text-anchor="middle" x="42" y="-41.5" font-family="Helvetica,sans-Serif" font-size="10.00"> v_</text>
</g>
<!-- Node3 -->
<g id="node3" class="node"><title>Node3</title>
<g id="a_node3"><a xlink:href="a00094.html" target="_top" xlink:title="Interval class for [a, b]. ">
<polygon fill="white" stroke="black" points="2.5,-136.5 2.5,-155.5 67.5,-155.5 67.5,-136.5 2.5,-136.5"/>
<text text-anchor="middle" x="35" y="-143.5" font-family="Helvetica,sans-Serif" font-size="10.00">fcl::Interval</text>
</a>
</g>
</g>
<!-- Node3&#45;&gt;Node2 -->
<g id="edge2" class="edge"><title>Node3&#45;&gt;Node2</title>
<path fill="none" stroke="#9a32cd" stroke-dasharray="5,2" d="M35,-126.041C35,-113.472 35,-97.5631 35,-87.8411"/>
<polygon fill="#9a32cd" stroke="#9a32cd" points="31.5001,-126.372 35,-136.372 38.5001,-126.372 31.5001,-126.372"/>
<text text-anchor="middle" x="40.5" y="-109.5" font-family="Helvetica,sans-Serif" font-size="10.00"> i_</text>
</g>
</g>
</svg>
