<?xml version="1.0" encoding="UTF-8" standalone="no"?>
<!DOCTYPE svg PUBLIC "-//W3C//DTD SVG 1.1//EN"
 "http://www.w3.org/Graphics/SVG/1.1/DTD/svg11.dtd">
<!-- Generated by graphviz version 2.36.0 (20140111.2315)
 -->
<!-- Title: fcl::BVHShapeCollisionTraversalNode&lt; BV, S &gt; Pages: 1 -->
<svg width="170pt" height="220pt"
 viewBox="0.00 0.00 170.00 220.00" xmlns="http://www.w3.org/2000/svg" xmlns:xlink="http://www.w3.org/1999/xlink">
<g id="graph0" class="graph" transform="scale(1 1) rotate(0) translate(4 216)">
<title>fcl::BVHShapeCollisionTraversalNode&lt; BV, S &gt;</title>
<polygon fill="white" stroke="none" points="-4,4 -4,-216 166,-216 166,4 -4,4"/>
<!-- Node1 -->
<g id="node1" class="node"><title>Node1</title>
<polygon fill="#bfbfbf" stroke="black" points="1,-69 1,-99 161,-99 161,-69 1,-69"/>
<text text-anchor="start" x="9" y="-87" font-family="Helvetica,sans-Serif" font-size="10.00">fcl::BVHShapeCollisionTraversal</text>
<text text-anchor="middle" x="81" y="-76" font-family="Helvetica,sans-Serif" font-size="10.00">Node&lt; BV, S &gt;</text>
</g>
<!-- Node4 -->
<g id="node4" class="node"><title>Node4</title>
<g id="a_node4"><a xlink:href="a00124.html" target="_top" xlink:title="Traversal node for collision between mesh and shape. ">
<polygon fill="white" stroke="black" points="-0.5,-1 -0.5,-31 162.5,-31 162.5,-1 -0.5,-1"/>
<text text-anchor="start" x="7.5" y="-19" font-family="Helvetica,sans-Serif" font-size="10.00">fcl::MeshShapeCollisionTraversal</text>
<text text-anchor="middle" x="81" y="-8" font-family="Helvetica,sans-Serif" font-size="10.00">Node&lt; BV, S &gt;</text>
</a>
</g>
</g>
<!-- Node1&#45;&gt;Node4 -->
<g id="edge3" class="edge"><title>Node1&#45;&gt;Node4</title>
<path fill="none" stroke="midnightblue" d="M81,-58.5322C81,-49.3606 81,-39.2449 81,-31.2931"/>
<polygon fill="midnightblue" stroke="midnightblue" points="77.5001,-58.6789 81,-68.679 84.5001,-58.679 77.5001,-58.6789"/>
</g>
<!-- Node2 -->
<g id="node2" class="node"><title>Node2</title>
<g id="a_node2"><a xlink:href="a00036.html" target="_top" xlink:title="Node structure encoding the information required for collision traversal. ">
<polygon fill="white" stroke="black" points="2.5,-136.5 2.5,-155.5 159.5,-155.5 159.5,-136.5 2.5,-136.5"/>
<text text-anchor="middle" x="81" y="-143.5" font-family="Helvetica,sans-Serif" font-size="10.00">fcl::CollisionTraversalNodeBase</text>
</a>
</g>
</g>
<!-- Node2&#45;&gt;Node1 -->
<g id="edge1" class="edge"><title>Node2&#45;&gt;Node1</title>
<path fill="none" stroke="midnightblue" d="M81,-126.371C81,-117.585 81,-107.272 81,-99.1408"/>
<polygon fill="midnightblue" stroke="midnightblue" points="77.5001,-126.403 81,-136.403 84.5001,-126.403 77.5001,-126.403"/>
</g>
<!-- Node3 -->
<g id="node3" class="node"><title>Node3</title>
<g id="a_node3"><a xlink:href="a00244.html" target="_top" xlink:title="Node structure encoding the information required for traversal. ">
<polygon fill="white" stroke="black" points="21.5,-192.5 21.5,-211.5 140.5,-211.5 140.5,-192.5 21.5,-192.5"/>
<text text-anchor="middle" x="81" y="-199.5" font-family="Helvetica,sans-Serif" font-size="10.00">fcl::TraversalNodeBase</text>
</a>
</g>
</g>
<!-- Node3&#45;&gt;Node2 -->
<g id="edge2" class="edge"><title>Node3&#45;&gt;Node2</title>
<path fill="none" stroke="midnightblue" d="M81,-181.805C81,-172.91 81,-162.78 81,-155.751"/>
<polygon fill="midnightblue" stroke="midnightblue" points="77.5001,-182.083 81,-192.083 84.5001,-182.083 77.5001,-182.083"/>
</g>
</g>
</svg>
