<?xml version="1.0" encoding="UTF-8" standalone="no"?>
<!DOCTYPE svg PUBLIC "-//W3C//DTD SVG 1.1//EN"
 "http://www.w3.org/Graphics/SVG/1.1/DTD/svg11.dtd">
<!-- Generated by graphviz version 2.36.0 (20140111.2315)
 -->
<!-- Title: fcl::BVHShapeDistanceTraversalNode&lt; BV, S &gt; Pages: 1 -->
<svg width="172pt" height="298pt"
 viewBox="0.00 0.00 172.00 298.00" xmlns="http://www.w3.org/2000/svg" xmlns:xlink="http://www.w3.org/1999/xlink">
<g id="graph0" class="graph" transform="scale(1 1) rotate(0) translate(4 294)">
<title>fcl::BVHShapeDistanceTraversalNode&lt; BV, S &gt;</title>
<polygon fill="white" stroke="none" points="-4,4 -4,-294 168,-294 168,4 -4,4"/>
<!-- Node1 -->
<g id="node1" class="node"><title>Node1</title>
<polygon fill="#bfbfbf" stroke="black" points="1.5,-147 1.5,-177 162.5,-177 162.5,-147 1.5,-147"/>
<text text-anchor="start" x="9.5" y="-165" font-family="Helvetica,sans-Serif" font-size="10.00">fcl::BVHShapeDistanceTraversal</text>
<text text-anchor="middle" x="82" y="-154" font-family="Helvetica,sans-Serif" font-size="10.00">Node&lt; BV, S &gt;</text>
</g>
<!-- Node4 -->
<g id="node4" class="node"><title>Node4</title>
<g id="a_node4"><a xlink:href="a00132.html" target="_top" xlink:title="Traversal node for distance between mesh and shape. ">
<polygon fill="white" stroke="black" points="0,-79 0,-109 164,-109 164,-79 0,-79"/>
<text text-anchor="start" x="8" y="-97" font-family="Helvetica,sans-Serif" font-size="10.00">fcl::MeshShapeDistanceTraversal</text>
<text text-anchor="middle" x="82" y="-86" font-family="Helvetica,sans-Serif" font-size="10.00">Node&lt; BV, S &gt;</text>
</a>
</g>
</g>
<!-- Node1&#45;&gt;Node4 -->
<g id="edge3" class="edge"><title>Node1&#45;&gt;Node4</title>
<path fill="none" stroke="midnightblue" d="M82,-136.532C82,-127.361 82,-117.245 82,-109.293"/>
<polygon fill="midnightblue" stroke="midnightblue" points="78.5001,-136.679 82,-146.679 85.5001,-136.679 78.5001,-136.679"/>
</g>
<!-- Node2 -->
<g id="node2" class="node"><title>Node2</title>
<g id="a_node2"><a xlink:href="a00056.html" target="_top" xlink:title="Node structure encoding the information required for distance traversal. ">
<polygon fill="white" stroke="black" points="3,-214.5 3,-233.5 161,-233.5 161,-214.5 3,-214.5"/>
<text text-anchor="middle" x="82" y="-221.5" font-family="Helvetica,sans-Serif" font-size="10.00">fcl::DistanceTraversalNodeBase</text>
</a>
</g>
</g>
<!-- Node2&#45;&gt;Node1 -->
<g id="edge1" class="edge"><title>Node2&#45;&gt;Node1</title>
<path fill="none" stroke="midnightblue" d="M82,-204.371C82,-195.585 82,-185.272 82,-177.141"/>
<polygon fill="midnightblue" stroke="midnightblue" points="78.5001,-204.403 82,-214.403 85.5001,-204.403 78.5001,-204.403"/>
</g>
<!-- Node3 -->
<g id="node3" class="node"><title>Node3</title>
<g id="a_node3"><a xlink:href="a00244.html" target="_top" xlink:title="Node structure encoding the information required for traversal. ">
<polygon fill="white" stroke="black" points="22.5,-270.5 22.5,-289.5 141.5,-289.5 141.5,-270.5 22.5,-270.5"/>
<text text-anchor="middle" x="82" y="-277.5" font-family="Helvetica,sans-Serif" font-size="10.00">fcl::TraversalNodeBase</text>
</a>
</g>
</g>
<!-- Node3&#45;&gt;Node2 -->
<g id="edge2" class="edge"><title>Node3&#45;&gt;Node2</title>
<path fill="none" stroke="midnightblue" d="M82,-259.805C82,-250.91 82,-240.78 82,-233.751"/>
<polygon fill="midnightblue" stroke="midnightblue" points="78.5001,-260.083 82,-270.083 85.5001,-260.083 78.5001,-260.083"/>
</g>
<!-- Node5 -->
<g id="node5" class="node"><title>Node5</title>
<g id="a_node5"><a xlink:href="a00129.html" target="_top" xlink:title="Traversal node for conservative advancement computation between BVH and shape. ">
<polygon fill="white" stroke="black" points="5,-0.5 5,-41.5 159,-41.5 159,-0.5 5,-0.5"/>
<text text-anchor="start" x="13" y="-29.5" font-family="Helvetica,sans-Serif" font-size="10.00">fcl::MeshShapeConservative</text>
<text text-anchor="start" x="13" y="-18.5" font-family="Helvetica,sans-Serif" font-size="10.00">AdvancementTraversalNode</text>
<text text-anchor="middle" x="82" y="-7.5" font-family="Helvetica,sans-Serif" font-size="10.00">&lt; BV, S, NarrowPhaseSolver &gt;</text>
</a>
</g>
</g>
<!-- Node4&#45;&gt;Node5 -->
<g id="edge4" class="edge"><title>Node4&#45;&gt;Node5</title>
<path fill="none" stroke="midnightblue" d="M82,-68.8534C82,-59.9872 82,-50.065 82,-41.642"/>
<polygon fill="midnightblue" stroke="midnightblue" points="78.5001,-68.9727 82,-78.9727 85.5001,-68.9727 78.5001,-68.9727"/>
</g>
</g>
</svg>
