<?xml version="1.0" encoding="UTF-8" standalone="no"?>
<!DOCTYPE svg PUBLIC "-//W3C//DTD SVG 1.1//EN"
 "http://www.w3.org/Graphics/SVG/1.1/DTD/svg11.dtd">
<!-- Generated by graphviz version 2.36.0 (20140111.2315)
 -->
<!-- Title: fcl::HierarchyTree&lt; BV &gt; Pages: 1 -->
<svg width="118pt" height="186pt"
 viewBox="0.00 0.00 118.00 186.00" xmlns="http://www.w3.org/2000/svg" xmlns:xlink="http://www.w3.org/1999/xlink">
<g id="graph0" class="graph" transform="scale(1 1) rotate(0) translate(4 182)">
<title>fcl::HierarchyTree&lt; BV &gt;</title>
<polygon fill="white" stroke="none" points="-4,4 -4,-182 114,-182 114,4 -4,4"/>
<!-- Node1 -->
<g id="node1" class="node"><title>Node1</title>
<polygon fill="#bfbfbf" stroke="black" points="7.5,-1 7.5,-31 102.5,-31 102.5,-1 7.5,-1"/>
<text text-anchor="start" x="15.5" y="-19" font-family="Helvetica,sans-Serif" font-size="10.00">fcl::HierarchyTree</text>
<text text-anchor="middle" x="55" y="-8" font-family="Helvetica,sans-Serif" font-size="10.00">&lt; BV &gt;</text>
</g>
<!-- Node2 -->
<g id="node2" class="node"><title>Node2</title>
<g id="a_node2"><a xlink:href="a00151.html" target="_top" xlink:title="dynamic AABB tree node ">
<polygon fill="white" stroke="black" points="0,-90.5 0,-109.5 110,-109.5 110,-90.5 0,-90.5"/>
<text text-anchor="middle" x="55" y="-97.5" font-family="Helvetica,sans-Serif" font-size="10.00">fcl::NodeBase&lt; BV &gt;</text>
</a>
</g>
</g>
<!-- Node2&#45;&gt;Node1 -->
<g id="edge1" class="edge"><title>Node2&#45;&gt;Node1</title>
<path fill="none" stroke="#9a32cd" stroke-dasharray="5,2" d="M55,-80.1139C55,-65.2014 55,-44.7195 55,-31.1839"/>
<polygon fill="#9a32cd" stroke="#9a32cd" points="51.5001,-80.2245 55,-90.2246 58.5001,-80.2246 51.5001,-80.2245"/>
<text text-anchor="middle" x="78" y="-64" font-family="Helvetica,sans-Serif" font-size="10.00"> root_node</text>
<text text-anchor="middle" x="78" y="-53" font-family="Helvetica,sans-Serif" font-size="10.00">free_node</text>
</g>
<!-- Node3 -->
<g id="node3" class="node"><title>Node3</title>
<polygon fill="white" stroke="#bfbfbf" points="40,-158.5 40,-177.5 70,-177.5 70,-158.5 40,-158.5"/>
<text text-anchor="middle" x="55" y="-165.5" font-family="Helvetica,sans-Serif" font-size="10.00">BV</text>
</g>
<!-- Node3&#45;&gt;Node2 -->
<g id="edge2" class="edge"><title>Node3&#45;&gt;Node2</title>
<path fill="none" stroke="#9a32cd" stroke-dasharray="5,2" d="M55,-148.041C55,-135.472 55,-119.563 55,-109.841"/>
<polygon fill="#9a32cd" stroke="#9a32cd" points="51.5001,-148.372 55,-158.372 58.5001,-148.372 51.5001,-148.372"/>
<text text-anchor="middle" x="62" y="-131.5" font-family="Helvetica,sans-Serif" font-size="10.00"> bv</text>
</g>
</g>
</svg>
