<?xml version="1.0" encoding="UTF-8" standalone="no"?>
<!DOCTYPE svg PUBLIC "-//W3C//DTD SVG 1.1//EN"
 "http://www.w3.org/Graphics/SVG/1.1/DTD/svg11.dtd">
<!-- Generated by graphviz version 2.36.0 (20140111.2315)
 -->
<!-- Title: fcl::MeshCollisionTraversalNode&lt; BV &gt; Pages: 1 -->
<svg width="1174pt" height="198pt"
 viewBox="0.00 0.00 1174.00 198.00" xmlns="http://www.w3.org/2000/svg" xmlns:xlink="http://www.w3.org/1999/xlink">
<g id="graph0" class="graph" transform="scale(1 1) rotate(0) translate(4 194)">
<title>fcl::MeshCollisionTraversalNode&lt; BV &gt;</title>
<polygon fill="white" stroke="none" points="-4,4 -4,-194 1170,-194 1170,4 -4,4"/>
<!-- Node1 -->
<g id="node1" class="node"><title>Node1</title>
<polygon fill="#bfbfbf" stroke="black" points="1030.5,-71 1030.5,-101 1165.5,-101 1165.5,-71 1030.5,-71"/>
<text text-anchor="start" x="1038.5" y="-89" font-family="Helvetica,sans-Serif" font-size="10.00">fcl::MeshCollisionTraversal</text>
<text text-anchor="middle" x="1098" y="-78" font-family="Helvetica,sans-Serif" font-size="10.00">Node&lt; BV &gt;</text>
</g>
<!-- Node2 -->
<g id="node2" class="node"><title>Node2</title>
<g id="a_node2"><a xlink:href="a00018.html" target="_top" xlink:title="Traversal node for collision between BVH models. ">
<polygon fill="white" stroke="black" points="808,-115 808,-145 940,-145 940,-115 808,-115"/>
<text text-anchor="start" x="816" y="-133" font-family="Helvetica,sans-Serif" font-size="10.00">fcl::BVHCollisionTraversal</text>
<text text-anchor="middle" x="874" y="-122" font-family="Helvetica,sans-Serif" font-size="10.00">Node&lt; BV &gt;</text>
</a>
</g>
</g>
<!-- Node2&#45;&gt;Node1 -->
<g id="edge1" class="edge"><title>Node2&#45;&gt;Node1</title>
<path fill="none" stroke="midnightblue" d="M950.267,-122.396C970.434,-119.738 992.146,-116.31 1012,-112 1025.42,-109.087 1039.78,-105.057 1052.81,-101.038"/>
<polygon fill="midnightblue" stroke="midnightblue" points="949.672,-118.943 940.194,-123.678 950.555,-125.887 949.672,-118.943"/>
</g>
<!-- Node3 -->
<g id="node3" class="node"><title>Node3</title>
<g id="a_node3"><a xlink:href="a00036.html" target="_top" xlink:title="Node structure encoding the information required for collision traversal. ">
<polygon fill="white" stroke="black" points="612.5,-120.5 612.5,-139.5 769.5,-139.5 769.5,-120.5 612.5,-120.5"/>
<text text-anchor="middle" x="691" y="-127.5" font-family="Helvetica,sans-Serif" font-size="10.00">fcl::CollisionTraversalNodeBase</text>
</a>
</g>
</g>
<!-- Node3&#45;&gt;Node2 -->
<g id="edge2" class="edge"><title>Node3&#45;&gt;Node2</title>
<path fill="none" stroke="midnightblue" d="M779.772,-130C789.226,-130 798.72,-130 807.841,-130"/>
<polygon fill="midnightblue" stroke="midnightblue" points="779.548,-126.5 769.548,-130 779.548,-133.5 779.548,-126.5"/>
</g>
<!-- Node4 -->
<g id="node4" class="node"><title>Node4</title>
<g id="a_node4"><a xlink:href="a00244.html" target="_top" xlink:title="Node structure encoding the information required for traversal. ">
<polygon fill="white" stroke="black" points="420.5,-158.5 420.5,-177.5 539.5,-177.5 539.5,-158.5 420.5,-158.5"/>
<text text-anchor="middle" x="480" y="-165.5" font-family="Helvetica,sans-Serif" font-size="10.00">fcl::TraversalNodeBase</text>
</a>
</g>
</g>
<!-- Node4&#45;&gt;Node3 -->
<g id="edge3" class="edge"><title>Node4&#45;&gt;Node3</title>
<path fill="none" stroke="midnightblue" d="M543.408,-156.653C573.395,-151.201 608.934,-144.739 637.509,-139.544"/>
<polygon fill="midnightblue" stroke="midnightblue" points="542.682,-153.228 533.47,-158.46 543.935,-160.115 542.682,-153.228"/>
</g>
<!-- Node5 -->
<g id="node5" class="node"><title>Node5</title>
<g id="a_node5"><a xlink:href="a00242.html" target="_top" xlink:title="Simple transform class used locally by InterpMotion. ">
<polygon fill="white" stroke="black" points="197,-158.5 197,-177.5 283,-177.5 283,-158.5 197,-158.5"/>
<text text-anchor="middle" x="240" y="-165.5" font-family="Helvetica,sans-Serif" font-size="10.00">fcl::Transform3f</text>
</a>
</g>
</g>
<!-- Node5&#45;&gt;Node4 -->
<g id="edge4" class="edge"><title>Node5&#45;&gt;Node4</title>
<path fill="none" stroke="#9a32cd" stroke-dasharray="5,2" d="M293.231,-168C330.806,-168 381.513,-168 420.457,-168"/>
<polygon fill="#9a32cd" stroke="#9a32cd" points="293.002,-164.5 283.002,-168 293.002,-171.5 293.002,-164.5"/>
<text text-anchor="middle" x="359" y="-182" font-family="Helvetica,sans-Serif" font-size="10.00"> tf1</text>
<text text-anchor="middle" x="359" y="-171" font-family="Helvetica,sans-Serif" font-size="10.00">tf2</text>
</g>
<!-- Node6 -->
<g id="node6" class="node"><title>Node6</title>
<g id="a_node6"><a xlink:href="a00034.html" target="_top" xlink:title="request to the collision algorithm ">
<polygon fill="white" stroke="black" points="426.5,-120.5 426.5,-139.5 533.5,-139.5 533.5,-120.5 426.5,-120.5"/>
<text text-anchor="middle" x="480" y="-127.5" font-family="Helvetica,sans-Serif" font-size="10.00">fcl::CollisionRequest</text>
</a>
</g>
</g>
<!-- Node6&#45;&gt;Node3 -->
<g id="edge5" class="edge"><title>Node6&#45;&gt;Node3</title>
<path fill="none" stroke="#9a32cd" stroke-dasharray="5,2" d="M543.761,-130C565.344,-130 589.769,-130 612.39,-130"/>
<polygon fill="#9a32cd" stroke="#9a32cd" points="543.74,-126.5 533.74,-130 543.739,-133.5 543.74,-126.5"/>
<text text-anchor="middle" x="576" y="-133" font-family="Helvetica,sans-Serif" font-size="10.00"> request</text>
</g>
<!-- Node7 -->
<g id="node7" class="node"><title>Node7</title>
<g id="a_node7"><a xlink:href="a00069.html" target="_top" xlink:title="Eigen::FclMatrix\&lt; FCL\l_REAL, 1 \&gt;">
<polygon fill="white" stroke="black" points="182,-94 182,-124 298,-124 298,-94 182,-94"/>
<text text-anchor="start" x="190" y="-112" font-family="Helvetica,sans-Serif" font-size="10.00">Eigen::FclMatrix&lt; FCL</text>
<text text-anchor="middle" x="240" y="-101" font-family="Helvetica,sans-Serif" font-size="10.00">_REAL, 1 &gt;</text>
</a>
</g>
</g>
<!-- Node7&#45;&gt;Node6 -->
<g id="edge6" class="edge"><title>Node7&#45;&gt;Node6</title>
<path fill="none" stroke="#9a32cd" stroke-dasharray="5,2" d="M308.296,-114.938C345.626,-118.232 391.383,-122.269 426.124,-125.334"/>
<polygon fill="#9a32cd" stroke="#9a32cd" points="308.276,-111.423 298.007,-114.03 307.661,-118.396 308.276,-111.423"/>
<text text-anchor="middle" x="359" y="-126" font-family="Helvetica,sans-Serif" font-size="10.00"> cached_gjk_guess</text>
</g>
<!-- Node10 -->
<g id="node10" class="node"><title>Node10</title>
<g id="a_node10"><a xlink:href="a00035.html" target="_top" xlink:title="collision result ">
<polygon fill="white" stroke="black" points="430.5,-82.5 430.5,-101.5 529.5,-101.5 529.5,-82.5 430.5,-82.5"/>
<text text-anchor="middle" x="480" y="-89.5" font-family="Helvetica,sans-Serif" font-size="10.00">fcl::CollisionResult</text>
</a>
</g>
</g>
<!-- Node7&#45;&gt;Node10 -->
<g id="edge10" class="edge"><title>Node7&#45;&gt;Node10</title>
<path fill="none" stroke="#9a32cd" stroke-dasharray="5,2" d="M308.283,-95.8883C310.884,-95.5569 313.463,-95.2583 316,-95 354.295,-91.1007 397.904,-90.4978 430.374,-90.7892"/>
<polygon fill="#9a32cd" stroke="#9a32cd" points="307.599,-92.4501 298.186,-97.3132 308.577,-99.3814 307.599,-92.4501"/>
<text text-anchor="middle" x="359" y="-98" font-family="Helvetica,sans-Serif" font-size="10.00"> cached_gjk_guess</text>
</g>
<!-- Node8 -->
<g id="node8" class="node"><title>Node8</title>
<polygon fill="white" stroke="#bfbfbf" points="6.5,-119 6.5,-171 137.5,-171 137.5,-119 6.5,-119"/>
<text text-anchor="start" x="14.5" y="-159" font-family="Helvetica,sans-Serif" font-size="10.00">Matrix&lt; FCL_REAL ,</text>
<text text-anchor="start" x="14.5" y="-148" font-family="Helvetica,sans-Serif" font-size="10.00"> 3, Cols, internal::</text>
<text text-anchor="start" x="14.5" y="-137" font-family="Helvetica,sans-Serif" font-size="10.00">traits&lt;Matrix &lt;FCL_REAL</text>
<text text-anchor="middle" x="72" y="-126" font-family="Helvetica,sans-Serif" font-size="10.00"> , 3, Cols&gt; &gt;::Options &gt;</text>
</g>
<!-- Node8&#45;&gt;Node7 -->
<g id="edge7" class="edge"><title>Node8&#45;&gt;Node7</title>
<path fill="none" stroke="midnightblue" d="M147.655,-128.81C159.123,-126.323 170.805,-123.789 181.814,-121.402"/>
<polygon fill="midnightblue" stroke="midnightblue" points="146.686,-125.438 137.655,-130.978 148.17,-132.279 146.686,-125.438"/>
</g>
<!-- Node9 -->
<g id="node9" class="node"><title>Node9</title>
<g id="a_node9"><a xlink:href="a00073.html" target="_top" xlink:title="fcl::FclType\&lt; FclMatrix\l\&lt; FCL_REAL, Cols, internal\l::traits\&lt; Matrix\&lt; FCL_REAL,\l 3, Cols \&gt; \&gt;::Options \&gt; \&gt;">
<polygon fill="white" stroke="black" points="0.5,-48 0.5,-100 143.5,-100 143.5,-48 0.5,-48"/>
<text text-anchor="start" x="8.5" y="-88" font-family="Helvetica,sans-Serif" font-size="10.00">fcl::FclType&lt; FclMatrix</text>
<text text-anchor="start" x="8.5" y="-77" font-family="Helvetica,sans-Serif" font-size="10.00">&lt; FCL_REAL, Cols, internal</text>
<text text-anchor="start" x="8.5" y="-66" font-family="Helvetica,sans-Serif" font-size="10.00">::traits&lt; Matrix&lt; FCL_REAL,</text>
<text text-anchor="middle" x="72" y="-55" font-family="Helvetica,sans-Serif" font-size="10.00"> 3, Cols &gt; &gt;::Options &gt; &gt;</text>
</a>
</g>
</g>
<!-- Node9&#45;&gt;Node7 -->
<g id="edge8" class="edge"><title>Node9&#45;&gt;Node7</title>
<path fill="none" stroke="midnightblue" d="M153.751,-91.0258C163.257,-93.03 172.802,-95.0425 181.887,-96.958"/>
<polygon fill="midnightblue" stroke="midnightblue" points="154.387,-87.5831 143.88,-88.9447 152.943,-94.4325 154.387,-87.5831"/>
</g>
<!-- Node10&#45;&gt;Node3 -->
<g id="edge9" class="edge"><title>Node10&#45;&gt;Node3</title>
<path fill="none" stroke="#9a32cd" stroke-dasharray="5,2" d="M539.878,-102.705C570.579,-108.287 607.817,-115.058 637.524,-120.459"/>
<polygon fill="#9a32cd" stroke="#9a32cd" points="540.202,-99.2067 529.737,-100.861 538.95,-106.094 540.202,-99.2067"/>
<text text-anchor="middle" x="576" y="-116" font-family="Helvetica,sans-Serif" font-size="10.00"> result</text>
</g>
<!-- Node11 -->
<g id="node11" class="node"><title>Node11</title>
<g id="a_node11"><a xlink:href="a00245.html" target="_top" xlink:title="Triangle with 3 indices for points. ">
<polygon fill="white" stroke="black" points="840,-76.5 840,-95.5 908,-95.5 908,-76.5 840,-76.5"/>
<text text-anchor="middle" x="874" y="-83.5" font-family="Helvetica,sans-Serif" font-size="10.00">fcl::Triangle</text>
</a>
</g>
</g>
<!-- Node11&#45;&gt;Node1 -->
<g id="edge11" class="edge"><title>Node11&#45;&gt;Node1</title>
<path fill="none" stroke="#9a32cd" stroke-dasharray="5,2" d="M918.553,-86C950.408,-86 994.199,-86 1030.43,-86"/>
<polygon fill="#9a32cd" stroke="#9a32cd" points="918.236,-82.5001 908.236,-86 918.236,-89.5001 918.236,-82.5001"/>
<text text-anchor="middle" x="985" y="-100" font-family="Helvetica,sans-Serif" font-size="10.00"> tri_indices1</text>
<text text-anchor="middle" x="985" y="-89" font-family="Helvetica,sans-Serif" font-size="10.00">tri_indices2</text>
</g>
<!-- Node12 -->
<g id="node12" class="node"><title>Node12</title>
<g id="a_node12"><a xlink:href="a00069.html" target="_top" xlink:title="Vector3 class wrapper. The core data is in the template parameter class. ">
<polygon fill="white" stroke="black" points="821,-26 821,-56 927,-56 927,-26 821,-26"/>
<text text-anchor="start" x="829" y="-44" font-family="Helvetica,sans-Serif" font-size="10.00">Eigen::FclMatrix&lt; T,</text>
<text text-anchor="middle" x="874" y="-33" font-family="Helvetica,sans-Serif" font-size="10.00"> Cols, _Options &gt;</text>
</a>
</g>
</g>
<!-- Node12&#45;&gt;Node1 -->
<g id="edge12" class="edge"><title>Node12&#45;&gt;Node1</title>
<path fill="none" stroke="#9a32cd" stroke-dasharray="5,2" d="M937.28,-47.5135C960.837,-50.5319 987.796,-54.6555 1012,-60 1025.26,-62.9281 1039.45,-66.9154 1052.36,-70.8877"/>
<polygon fill="#9a32cd" stroke="#9a32cd" points="937.42,-44.0041 927.065,-46.2458 936.558,-50.9509 937.42,-44.0041"/>
<text text-anchor="middle" x="985" y="-74" font-family="Helvetica,sans-Serif" font-size="10.00"> vertices1</text>
<text text-anchor="middle" x="985" y="-63" font-family="Helvetica,sans-Serif" font-size="10.00">vertices2</text>
</g>
<!-- Node13 -->
<g id="node13" class="node"><title>Node13</title>
<polygon fill="white" stroke="#bfbfbf" points="639,-49 639,-79 743,-79 743,-49 639,-49"/>
<text text-anchor="start" x="647" y="-67" font-family="Helvetica,sans-Serif" font-size="10.00">Eigen::Matrix&lt; T, 3,</text>
<text text-anchor="middle" x="691" y="-56" font-family="Helvetica,sans-Serif" font-size="10.00"> Cols, _Options &gt;</text>
</g>
<!-- Node13&#45;&gt;Node12 -->
<g id="edge13" class="edge"><title>Node13&#45;&gt;Node12</title>
<path fill="none" stroke="midnightblue" d="M753.565,-56.1768C775.444,-53.3966 799.845,-50.2959 820.86,-47.6256"/>
<polygon fill="midnightblue" stroke="midnightblue" points="752.862,-52.7379 743.383,-57.4706 753.745,-59.6821 752.862,-52.7379"/>
</g>
<!-- Node14 -->
<g id="node14" class="node"><title>Node14</title>
<g id="a_node14"><a xlink:href="a00073.html" target="_top" xlink:title="fcl::FclType\&lt; FclMatrix\l\&lt; T, Cols, _Options \&gt; \&gt;">
<polygon fill="white" stroke="black" points="630.5,-0 630.5,-30 751.5,-30 751.5,-0 630.5,-0"/>
<text text-anchor="start" x="638.5" y="-18" font-family="Helvetica,sans-Serif" font-size="10.00">fcl::FclType&lt; FclMatrix</text>
<text text-anchor="middle" x="691" y="-7" font-family="Helvetica,sans-Serif" font-size="10.00">&lt; T, Cols, _Options &gt; &gt;</text>
</a>
</g>
</g>
<!-- Node14&#45;&gt;Node12 -->
<g id="edge14" class="edge"><title>Node14&#45;&gt;Node12</title>
<path fill="none" stroke="midnightblue" d="M761.642,-25.0038C781.287,-27.8257 802.318,-30.8467 820.753,-33.4949"/>
<polygon fill="midnightblue" stroke="midnightblue" points="761.913,-21.5069 751.517,-23.5494 760.918,-28.4358 761.913,-21.5069"/>
</g>
</g>
</svg>
