<?xml version="1.0" encoding="UTF-8" standalone="no"?>
<!DOCTYPE svg PUBLIC "-//W3C//DTD SVG 1.1//EN"
 "http://www.w3.org/Graphics/SVG/1.1/DTD/svg11.dtd">
<!-- Generated by graphviz version 2.36.0 (20140111.2315)
 -->
<!-- Title: fcl::IntervalTreeCollisionManager Pages: 1 -->
<svg width="1352pt" height="285pt"
 viewBox="0.00 0.00 1352.00 285.00" xmlns="http://www.w3.org/2000/svg" xmlns:xlink="http://www.w3.org/1999/xlink">
<g id="graph0" class="graph" transform="scale(1 1) rotate(0) translate(4 281)">
<title>fcl::IntervalTreeCollisionManager</title>
<polygon fill="white" stroke="none" points="-4,4 -4,-281 1348,-281 1348,4 -4,4"/>
<!-- Node1 -->
<g id="node1" class="node"><title>Node1</title>
<polygon fill="#bfbfbf" stroke="black" points="1222,-117 1222,-147 1344,-147 1344,-117 1222,-117"/>
<text text-anchor="start" x="1230" y="-135" font-family="Helvetica,sans-Serif" font-size="10.00">fcl::IntervalTreeCollision</text>
<text text-anchor="middle" x="1283" y="-124" font-family="Helvetica,sans-Serif" font-size="10.00">Manager</text>
</g>
<!-- Node2 -->
<g id="node2" class="node"><title>Node2</title>
<g id="a_node2"><a xlink:href="a00010.html" target="_top" xlink:title="Base class for broad phase collision. It helps to accelerate the collision/distance between N objects...">
<polygon fill="white" stroke="black" points="959,-214 959,-244 1083,-244 1083,-214 959,-214"/>
<text text-anchor="start" x="967" y="-232" font-family="Helvetica,sans-Serif" font-size="10.00">fcl::BroadPhaseCollision</text>
<text text-anchor="middle" x="1021" y="-221" font-family="Helvetica,sans-Serif" font-size="10.00">Manager</text>
</a>
</g>
</g>
<!-- Node2&#45;&gt;Node1 -->
<g id="edge1" class="edge"><title>Node2&#45;&gt;Node1</title>
<path fill="none" stroke="midnightblue" d="M1073.07,-210.422C1109.59,-197.082 1159.89,-178.602 1204,-162 1216.76,-157.196 1230.67,-151.875 1243.16,-147.065"/>
<polygon fill="midnightblue" stroke="midnightblue" points="1071.82,-207.153 1063.63,-213.87 1074.22,-213.729 1071.82,-207.153"/>
</g>
<!-- Node3 -->
<g id="node3" class="node"><title>Node3</title>
<polygon fill="white" stroke="#bfbfbf" points="714.5,-236.5 714.5,-277.5 851.5,-277.5 851.5,-236.5 714.5,-236.5"/>
<text text-anchor="start" x="722.5" y="-265.5" font-family="Helvetica,sans-Serif" font-size="10.00">std::set&lt; std::pair</text>
<text text-anchor="start" x="722.5" y="-254.5" font-family="Helvetica,sans-Serif" font-size="10.00">&lt; fcl::CollisionObject</text>
<text text-anchor="middle" x="783" y="-243.5" font-family="Helvetica,sans-Serif" font-size="10.00"> *, fcl::CollisionObject * &gt; &gt;</text>
</g>
<!-- Node3&#45;&gt;Node2 -->
<g id="edge2" class="edge"><title>Node3&#45;&gt;Node2</title>
<path fill="none" stroke="#9a32cd" stroke-dasharray="5,2" d="M861.705,-247.781C893.255,-244.038 929.174,-239.776 958.812,-236.26"/>
<polygon fill="#9a32cd" stroke="#9a32cd" points="861.146,-244.322 851.628,-248.976 861.971,-251.274 861.146,-244.322"/>
<text text-anchor="middle" x="895" y="-249" font-family="Helvetica,sans-Serif" font-size="10.00"> tested_set</text>
</g>
<!-- Node4 -->
<g id="node4" class="node"><title>Node4</title>
<g id="a_node4"><a xlink:href="a00095.html" target="_top" xlink:title="Interval tree. ">
<polygon fill="white" stroke="black" points="978.5,-147.5 978.5,-166.5 1063.5,-166.5 1063.5,-147.5 978.5,-147.5"/>
<text text-anchor="middle" x="1021" y="-154.5" font-family="Helvetica,sans-Serif" font-size="10.00">fcl::IntervalTree</text>
</a>
</g>
</g>
<!-- Node4&#45;&gt;Node1 -->
<g id="edge3" class="edge"><title>Node4&#45;&gt;Node1</title>
<path fill="none" stroke="#9a32cd" stroke-dasharray="5,2" d="M1073.95,-152.005C1116.64,-147.9 1177.15,-142.082 1221.92,-137.777"/>
<polygon fill="#9a32cd" stroke="#9a32cd" points="1073.39,-148.542 1063.77,-152.983 1074.06,-155.51 1073.39,-148.542"/>
<text text-anchor="middle" x="1163" y="-150" font-family="Helvetica,sans-Serif" font-size="10.00"> interval_trees</text>
</g>
<!-- Node5 -->
<g id="node5" class="node"><title>Node5</title>
<g id="a_node5"><a xlink:href="a00097.html" target="_top" xlink:title="The node for interval tree. ">
<polygon fill="white" stroke="black" points="729,-147.5 729,-166.5 837,-166.5 837,-147.5 729,-147.5"/>
<text text-anchor="middle" x="783" y="-154.5" font-family="Helvetica,sans-Serif" font-size="10.00">fcl::IntervalTreeNode</text>
</a>
</g>
</g>
<!-- Node5&#45;&gt;Node4 -->
<g id="edge4" class="edge"><title>Node5&#45;&gt;Node4</title>
<path fill="none" stroke="#9a32cd" stroke-dasharray="5,2" d="M847.281,-157C888.828,-157 941.999,-157 978.301,-157"/>
<polygon fill="#9a32cd" stroke="#9a32cd" points="847.257,-153.5 837.257,-157 847.257,-160.5 847.257,-153.5"/>
<text text-anchor="middle" x="895" y="-171" font-family="Helvetica,sans-Serif" font-size="10.00"> root</text>
<text text-anchor="middle" x="895" y="-160" font-family="Helvetica,sans-Serif" font-size="10.00">nil</text>
</g>
<!-- Node5&#45;&gt;Node5 -->
<g id="edge6" class="edge"><title>Node5&#45;&gt;Node5</title>
<path fill="none" stroke="#9a32cd" stroke-dasharray="5,2" d="M762.26,-176.4C763.645,-181.315 770.559,-185 783,-185 802.906,-185 808.66,-175.565 800.262,-166.757"/>
<polygon fill="#9a32cd" stroke="#9a32cd" points="765.638,-177.351 765.738,-166.757 759.053,-174.977 765.638,-177.351"/>
<text text-anchor="middle" x="783" y="-210" font-family="Helvetica,sans-Serif" font-size="10.00"> right</text>
<text text-anchor="middle" x="783" y="-199" font-family="Helvetica,sans-Serif" font-size="10.00">left</text>
<text text-anchor="middle" x="783" y="-188" font-family="Helvetica,sans-Serif" font-size="10.00">parent</text>
</g>
<!-- Node6 -->
<g id="node6" class="node"><title>Node6</title>
<g id="a_node6"><a xlink:href="a00219.html" target="_top" xlink:title="Interval trees implemented using red&#45;black&#45;trees as described in the book Introduction_To_Algorithms_...">
<polygon fill="white" stroke="black" points="512.5,-132.5 512.5,-151.5 607.5,-151.5 607.5,-132.5 512.5,-132.5"/>
<text text-anchor="middle" x="560" y="-139.5" font-family="Helvetica,sans-Serif" font-size="10.00">fcl::SimpleInterval</text>
</a>
</g>
</g>
<!-- Node6&#45;&gt;Node5 -->
<g id="edge5" class="edge"><title>Node6&#45;&gt;Node5</title>
<path fill="none" stroke="#9a32cd" stroke-dasharray="5,2" d="M617.903,-145.862C652.109,-148.184 695.358,-151.119 728.867,-153.394"/>
<polygon fill="#9a32cd" stroke="#9a32cd" points="617.812,-142.348 607.598,-145.163 617.338,-149.332 617.812,-142.348"/>
<text text-anchor="middle" x="662" y="-154" font-family="Helvetica,sans-Serif" font-size="10.00"> stored_interval</text>
</g>
<!-- Node16 -->
<g id="node16" class="node"><title>Node16</title>
<g id="a_node16"><a xlink:href="a00192.html" target="_top" xlink:title="Extention interval tree&#39;s interval to SAP interval, adding more information. ">
<polygon fill="white" stroke="black" points="722,-97 722,-127 844,-127 844,-97 722,-97"/>
<text text-anchor="start" x="730" y="-115" font-family="Helvetica,sans-Serif" font-size="10.00">fcl::IntervalTreeCollision</text>
<text text-anchor="middle" x="783" y="-104" font-family="Helvetica,sans-Serif" font-size="10.00">Manager::SAPInterval</text>
</a>
</g>
</g>
<!-- Node6&#45;&gt;Node16 -->
<g id="edge18" class="edge"><title>Node6&#45;&gt;Node16</title>
<path fill="none" stroke="midnightblue" d="M617.635,-134.312C649.46,-129.992 689.177,-124.6 721.596,-120.2"/>
<polygon fill="midnightblue" stroke="midnightblue" points="617.037,-130.861 607.598,-135.674 617.978,-137.797 617.037,-130.861"/>
</g>
<!-- Node7 -->
<g id="node7" class="node"><title>Node7</title>
<polygon fill="white" stroke="#bfbfbf" points="938,-26 938,-56 1104,-56 1104,-26 938,-26"/>
<text text-anchor="start" x="946" y="-44" font-family="Helvetica,sans-Serif" font-size="10.00">std::vector&lt; fcl::Interval</text>
<text text-anchor="middle" x="1021" y="-33" font-family="Helvetica,sans-Serif" font-size="10.00">TreeCollisionManager::EndPoint &gt;</text>
</g>
<!-- Node7&#45;&gt;Node1 -->
<g id="edge7" class="edge"><title>Node7&#45;&gt;Node1</title>
<path fill="none" stroke="#9a32cd" stroke-dasharray="5,2" d="M1083.17,-58.9606C1118.71,-69.7773 1164.2,-84.2738 1204,-99 1218.62,-104.408 1234.5,-110.996 1248.1,-116.858"/>
<polygon fill="#9a32cd" stroke="#9a32cd" points="1084,-55.5571 1073.42,-56.0102 1081.98,-62.257 1084,-55.5571"/>
<text text-anchor="middle" x="1163" y="-102" font-family="Helvetica,sans-Serif" font-size="10.00"> endpoints</text>
</g>
<!-- Node8 -->
<g id="node8" class="node"><title>Node8</title>
<g id="a_node8"><a xlink:href="a00065.html" target="_top" xlink:title="SAP end point. ">
<polygon fill="white" stroke="black" points="722,-0 722,-30 844,-30 844,-0 722,-0"/>
<text text-anchor="start" x="730" y="-18" font-family="Helvetica,sans-Serif" font-size="10.00">fcl::IntervalTreeCollision</text>
<text text-anchor="middle" x="783" y="-7" font-family="Helvetica,sans-Serif" font-size="10.00">Manager::EndPoint</text>
</a>
</g>
</g>
<!-- Node8&#45;&gt;Node7 -->
<g id="edge8" class="edge"><title>Node8&#45;&gt;Node7</title>
<path fill="none" stroke="#9a32cd" stroke-dasharray="5,2" d="M854.379,-22.7536C880.57,-25.639 910.521,-28.9387 937.686,-31.9316"/>
<polygon fill="#9a32cd" stroke="#9a32cd" points="854.487,-19.2444 844.163,-21.6282 853.72,-26.2023 854.487,-19.2444"/>
<text text-anchor="middle" x="895" y="-33" font-family="Helvetica,sans-Serif" font-size="10.00"> elements</text>
</g>
<!-- Node9 -->
<g id="node9" class="node"><title>Node9</title>
<g id="a_node9"><a xlink:href="a00033.html" target="_top" xlink:title="the object for collision or distance computation, contains the geometry and the transform information...">
<polygon fill="white" stroke="black" points="510.5,-57.5 510.5,-76.5 609.5,-76.5 609.5,-57.5 510.5,-57.5"/>
<text text-anchor="middle" x="560" y="-64.5" font-family="Helvetica,sans-Serif" font-size="10.00">fcl::CollisionObject</text>
</a>
</g>
</g>
<!-- Node9&#45;&gt;Node8 -->
<g id="edge9" class="edge"><title>Node9&#45;&gt;Node8</title>
<path fill="none" stroke="#9a32cd" stroke-dasharray="5,2" d="M593.163,-53.6338C604.081,-49.4646 616.442,-45.1409 628,-42 658.516,-33.7071 693.15,-27.3705 721.835,-22.927"/>
<polygon fill="#9a32cd" stroke="#9a32cd" points="591.639,-50.4719 583.607,-57.3807 594.194,-56.9888 591.639,-50.4719"/>
<text text-anchor="middle" x="662" y="-45" font-family="Helvetica,sans-Serif" font-size="10.00"> obj</text>
</g>
<!-- Node15 -->
<g id="node15" class="node"><title>Node15</title>
<polygon fill="white" stroke="#bfbfbf" points="939,-87.5 939,-128.5 1103,-128.5 1103,-87.5 939,-87.5"/>
<text text-anchor="start" x="947" y="-116.5" font-family="Helvetica,sans-Serif" font-size="10.00">std::map&lt; fcl::Collision</text>
<text text-anchor="start" x="947" y="-105.5" font-family="Helvetica,sans-Serif" font-size="10.00">Object *, fcl::IntervalTreeCollision</text>
<text text-anchor="middle" x="1021" y="-94.5" font-family="Helvetica,sans-Serif" font-size="10.00">Manager::SAPInterval * &gt;</text>
</g>
<!-- Node9&#45;&gt;Node15 -->
<g id="edge16" class="edge"><title>Node9&#45;&gt;Node15</title>
<path fill="none" stroke="#9a32cd" stroke-dasharray="5,2" d="M619.786,-66.4728C678.693,-66.5427 771.881,-68.2801 852,-77 880.453,-80.0968 911.327,-85.2638 938.753,-90.5002"/>
<polygon fill="#9a32cd" stroke="#9a32cd" points="619.555,-62.9728 609.556,-66.4771 619.558,-69.9728 619.555,-62.9728"/>
<text text-anchor="middle" x="783" y="-80" font-family="Helvetica,sans-Serif" font-size="10.00"> keys</text>
</g>
<!-- Node9&#45;&gt;Node16 -->
<g id="edge19" class="edge"><title>Node9&#45;&gt;Node16</title>
<path fill="none" stroke="#9a32cd" stroke-dasharray="5,2" d="M617.907,-78.5875C649.733,-85.0678 689.386,-93.1419 721.739,-99.7296"/>
<polygon fill="#9a32cd" stroke="#9a32cd" points="618.366,-75.1091 607.868,-76.5433 616.969,-81.9683 618.366,-75.1091"/>
<text text-anchor="middle" x="662" y="-97" font-family="Helvetica,sans-Serif" font-size="10.00"> obj</text>
</g>
<!-- Node10 -->
<g id="node10" class="node"><title>Node10</title>
<g id="a_node10"><a xlink:href="a00003.html" target="_top" xlink:title="A class describing the AABB collision structure, which is a box in 3D space determined by two diagona...">
<polygon fill="white" stroke="black" points="375,-77.5 375,-96.5 435,-96.5 435,-77.5 375,-77.5"/>
<text text-anchor="middle" x="405" y="-84.5" font-family="Helvetica,sans-Serif" font-size="10.00">fcl::AABB</text>
</a>
</g>
</g>
<!-- Node10&#45;&gt;Node9 -->
<g id="edge10" class="edge"><title>Node10&#45;&gt;Node9</title>
<path fill="none" stroke="#9a32cd" stroke-dasharray="5,2" d="M445.087,-81.8905C464.972,-79.2913 489.329,-76.1073 510.41,-73.3516"/>
<polygon fill="#9a32cd" stroke="#9a32cd" points="444.6,-78.4244 435.138,-83.1911 445.508,-85.3653 444.6,-78.4244"/>
<text text-anchor="middle" x="479" y="-82" font-family="Helvetica,sans-Serif" font-size="10.00"> aabb</text>
</g>
<!-- Node11 -->
<g id="node11" class="node"><title>Node11</title>
<g id="a_node11"><a xlink:href="a00069.html" target="_top" xlink:title="Eigen::FclMatrix\&lt; FCL\l_REAL, 1 \&gt;">
<polygon fill="white" stroke="black" points="182,-72 182,-102 298,-102 298,-72 182,-72"/>
<text text-anchor="start" x="190" y="-90" font-family="Helvetica,sans-Serif" font-size="10.00">Eigen::FclMatrix&lt; FCL</text>
<text text-anchor="middle" x="240" y="-79" font-family="Helvetica,sans-Serif" font-size="10.00">_REAL, 1 &gt;</text>
</a>
</g>
</g>
<!-- Node11&#45;&gt;Node10 -->
<g id="edge11" class="edge"><title>Node11&#45;&gt;Node10</title>
<path fill="none" stroke="#9a32cd" stroke-dasharray="5,2" d="M308.177,-87C331.374,-87 356.168,-87 374.724,-87"/>
<polygon fill="#9a32cd" stroke="#9a32cd" points="308.01,-83.5001 298.009,-87 308.009,-90.5001 308.01,-83.5001"/>
<text text-anchor="middle" x="330" y="-101" font-family="Helvetica,sans-Serif" font-size="10.00"> max_</text>
<text text-anchor="middle" x="330" y="-90" font-family="Helvetica,sans-Serif" font-size="10.00">min_</text>
</g>
<!-- Node12 -->
<g id="node12" class="node"><title>Node12</title>
<polygon fill="white" stroke="#bfbfbf" points="6.5,-97 6.5,-149 137.5,-149 137.5,-97 6.5,-97"/>
<text text-anchor="start" x="14.5" y="-137" font-family="Helvetica,sans-Serif" font-size="10.00">Matrix&lt; FCL_REAL ,</text>
<text text-anchor="start" x="14.5" y="-126" font-family="Helvetica,sans-Serif" font-size="10.00"> 3, Cols, internal::</text>
<text text-anchor="start" x="14.5" y="-115" font-family="Helvetica,sans-Serif" font-size="10.00">traits&lt;Matrix &lt;FCL_REAL</text>
<text text-anchor="middle" x="72" y="-104" font-family="Helvetica,sans-Serif" font-size="10.00"> , 3, Cols&gt; &gt;::Options &gt;</text>
</g>
<!-- Node12&#45;&gt;Node11 -->
<g id="edge12" class="edge"><title>Node12&#45;&gt;Node11</title>
<path fill="none" stroke="midnightblue" d="M147.655,-106.81C159.123,-104.323 170.805,-101.789 181.814,-99.4018"/>
<polygon fill="midnightblue" stroke="midnightblue" points="146.686,-103.438 137.655,-108.978 148.17,-110.279 146.686,-103.438"/>
</g>
<!-- Node13 -->
<g id="node13" class="node"><title>Node13</title>
<g id="a_node13"><a xlink:href="a00073.html" target="_top" xlink:title="fcl::FclType\&lt; FclMatrix\l\&lt; FCL_REAL, Cols, internal\l::traits\&lt; Matrix\&lt; FCL_REAL,\l 3, Cols \&gt; \&gt;::Options \&gt; \&gt;">
<polygon fill="white" stroke="black" points="0.5,-26 0.5,-78 143.5,-78 143.5,-26 0.5,-26"/>
<text text-anchor="start" x="8.5" y="-66" font-family="Helvetica,sans-Serif" font-size="10.00">fcl::FclType&lt; FclMatrix</text>
<text text-anchor="start" x="8.5" y="-55" font-family="Helvetica,sans-Serif" font-size="10.00">&lt; FCL_REAL, Cols, internal</text>
<text text-anchor="start" x="8.5" y="-44" font-family="Helvetica,sans-Serif" font-size="10.00">::traits&lt; Matrix&lt; FCL_REAL,</text>
<text text-anchor="middle" x="72" y="-33" font-family="Helvetica,sans-Serif" font-size="10.00"> 3, Cols &gt; &gt;::Options &gt; &gt;</text>
</a>
</g>
</g>
<!-- Node13&#45;&gt;Node11 -->
<g id="edge13" class="edge"><title>Node13&#45;&gt;Node11</title>
<path fill="none" stroke="midnightblue" d="M153.751,-69.0258C163.257,-71.03 172.802,-73.0425 181.887,-74.958"/>
<polygon fill="midnightblue" stroke="midnightblue" points="154.387,-65.5831 143.88,-66.9447 152.943,-72.4325 154.387,-65.5831"/>
</g>
<!-- Node14 -->
<g id="node14" class="node"><title>Node14</title>
<g id="a_node14"><a xlink:href="a00242.html" target="_top" xlink:title="Simple transform class used locally by InterpMotion. ">
<polygon fill="white" stroke="black" points="362,-39.5 362,-58.5 448,-58.5 448,-39.5 362,-39.5"/>
<text text-anchor="middle" x="405" y="-46.5" font-family="Helvetica,sans-Serif" font-size="10.00">fcl::Transform3f</text>
</a>
</g>
</g>
<!-- Node14&#45;&gt;Node9 -->
<g id="edge14" class="edge"><title>Node14&#45;&gt;Node9</title>
<path fill="none" stroke="#9a32cd" stroke-dasharray="5,2" d="M458.198,-49.2704C469.382,-49.7611 481.109,-50.6031 492,-52 501.813,-53.2586 512.306,-55.2778 522.006,-57.4322"/>
<polygon fill="#9a32cd" stroke="#9a32cd" points="458.236,-45.7696 448.119,-48.9127 457.988,-52.7652 458.236,-45.7696"/>
<text text-anchor="middle" x="479" y="-55" font-family="Helvetica,sans-Serif" font-size="10.00"> t</text>
</g>
<!-- Node15&#45;&gt;Node1 -->
<g id="edge15" class="edge"><title>Node15&#45;&gt;Node1</title>
<path fill="none" stroke="#9a32cd" stroke-dasharray="5,2" d="M1113.34,-112.466C1142.37,-114.302 1174.58,-116.773 1204,-120 1209.72,-120.627 1215.66,-121.372 1221.6,-122.178"/>
<polygon fill="#9a32cd" stroke="#9a32cd" points="1113.41,-108.964 1103.22,-111.843 1112.98,-115.951 1113.41,-108.964"/>
<text text-anchor="middle" x="1163" y="-123" font-family="Helvetica,sans-Serif" font-size="10.00"> obj_interval_maps</text>
</g>
<!-- Node16&#45;&gt;Node15 -->
<g id="edge17" class="edge"><title>Node16&#45;&gt;Node15</title>
<path fill="none" stroke="#9a32cd" stroke-dasharray="5,2" d="M854.479,-110.805C880.931,-110.357 911.208,-109.844 938.573,-109.38"/>
<polygon fill="#9a32cd" stroke="#9a32cd" points="854.103,-107.311 844.163,-110.98 854.221,-114.31 854.103,-107.311"/>
<text text-anchor="middle" x="895" y="-114" font-family="Helvetica,sans-Serif" font-size="10.00"> elements</text>
</g>
</g>
</svg>
