<?xml version="1.0" encoding="UTF-8" standalone="no"?>
<!DOCTYPE svg PUBLIC "-//W3C//DTD SVG 1.1//EN"
 "http://www.w3.org/Graphics/SVG/1.1/DTD/svg11.dtd">
<!-- Generated by graphviz version 2.36.0 (20140111.2315)
 -->
<!-- Title: fcl::MeshContinuousCollisionTraversalNode&lt; BV &gt; Pages: 1 -->
<svg width="1262pt" height="267pt"
 viewBox="0.00 0.00 1262.00 267.00" xmlns="http://www.w3.org/2000/svg" xmlns:xlink="http://www.w3.org/1999/xlink">
<g id="graph0" class="graph" transform="scale(1 1) rotate(0) translate(4 263)">
<title>fcl::MeshContinuousCollisionTraversalNode&lt; BV &gt;</title>
<polygon fill="white" stroke="none" points="-4,4 -4,-263 1258,-263 1258,4 -4,4"/>
<!-- Node1 -->
<g id="node1" class="node"><title>Node1</title>
<polygon fill="#bfbfbf" stroke="black" points="1110,-113 1110,-143 1254,-143 1254,-113 1110,-113"/>
<text text-anchor="start" x="1118" y="-131" font-family="Helvetica,sans-Serif" font-size="10.00">fcl::MeshContinuousCollision</text>
<text text-anchor="middle" x="1182" y="-120" font-family="Helvetica,sans-Serif" font-size="10.00">TraversalNode&lt; BV &gt;</text>
</g>
<!-- Node2 -->
<g id="node2" class="node"><title>Node2</title>
<g id="a_node2"><a xlink:href="a00018.html" target="_top" xlink:title="Traversal node for collision between BVH models. ">
<polygon fill="white" stroke="black" points="864,-184 864,-214 996,-214 996,-184 864,-184"/>
<text text-anchor="start" x="872" y="-202" font-family="Helvetica,sans-Serif" font-size="10.00">fcl::BVHCollisionTraversal</text>
<text text-anchor="middle" x="930" y="-191" font-family="Helvetica,sans-Serif" font-size="10.00">Node&lt; BV &gt;</text>
</a>
</g>
</g>
<!-- Node2&#45;&gt;Node1 -->
<g id="edge1" class="edge"><title>Node2&#45;&gt;Node1</title>
<path fill="none" stroke="midnightblue" d="M999.587,-181.39C1028.23,-173.852 1061.81,-164.777 1092,-156 1105.84,-151.976 1120.82,-147.366 1134.46,-143.063"/>
<polygon fill="midnightblue" stroke="midnightblue" points="998.46,-178.067 989.675,-183.989 1000.24,-184.838 998.46,-178.067"/>
</g>
<!-- Node3 -->
<g id="node3" class="node"><title>Node3</title>
<g id="a_node3"><a xlink:href="a00036.html" target="_top" xlink:title="Node structure encoding the information required for collision traversal. ">
<polygon fill="white" stroke="black" points="612.5,-189.5 612.5,-208.5 769.5,-208.5 769.5,-189.5 612.5,-189.5"/>
<text text-anchor="middle" x="691" y="-196.5" font-family="Helvetica,sans-Serif" font-size="10.00">fcl::CollisionTraversalNodeBase</text>
</a>
</g>
</g>
<!-- Node3&#45;&gt;Node2 -->
<g id="edge2" class="edge"><title>Node3&#45;&gt;Node2</title>
<path fill="none" stroke="midnightblue" d="M779.749,-199C807.623,-199 837.935,-199 863.915,-199"/>
<polygon fill="midnightblue" stroke="midnightblue" points="779.603,-195.5 769.603,-199 779.603,-202.5 779.603,-195.5"/>
</g>
<!-- Node4 -->
<g id="node4" class="node"><title>Node4</title>
<g id="a_node4"><a xlink:href="a00244.html" target="_top" xlink:title="Node structure encoding the information required for traversal. ">
<polygon fill="white" stroke="black" points="420.5,-227.5 420.5,-246.5 539.5,-246.5 539.5,-227.5 420.5,-227.5"/>
<text text-anchor="middle" x="480" y="-234.5" font-family="Helvetica,sans-Serif" font-size="10.00">fcl::TraversalNodeBase</text>
</a>
</g>
</g>
<!-- Node4&#45;&gt;Node3 -->
<g id="edge3" class="edge"><title>Node4&#45;&gt;Node3</title>
<path fill="none" stroke="midnightblue" d="M543.408,-225.653C573.395,-220.201 608.934,-213.739 637.509,-208.544"/>
<polygon fill="midnightblue" stroke="midnightblue" points="542.682,-222.228 533.47,-227.46 543.935,-229.115 542.682,-222.228"/>
</g>
<!-- Node5 -->
<g id="node5" class="node"><title>Node5</title>
<g id="a_node5"><a xlink:href="a00242.html" target="_top" xlink:title="Simple transform class used locally by InterpMotion. ">
<polygon fill="white" stroke="black" points="197,-227.5 197,-246.5 283,-246.5 283,-227.5 197,-227.5"/>
<text text-anchor="middle" x="240" y="-234.5" font-family="Helvetica,sans-Serif" font-size="10.00">fcl::Transform3f</text>
</a>
</g>
</g>
<!-- Node5&#45;&gt;Node4 -->
<g id="edge4" class="edge"><title>Node5&#45;&gt;Node4</title>
<path fill="none" stroke="#9a32cd" stroke-dasharray="5,2" d="M293.231,-237C330.806,-237 381.513,-237 420.457,-237"/>
<polygon fill="#9a32cd" stroke="#9a32cd" points="293.002,-233.5 283.002,-237 293.002,-240.5 293.002,-233.5"/>
<text text-anchor="middle" x="359" y="-251" font-family="Helvetica,sans-Serif" font-size="10.00"> tf1</text>
<text text-anchor="middle" x="359" y="-240" font-family="Helvetica,sans-Serif" font-size="10.00">tf2</text>
</g>
<!-- Node6 -->
<g id="node6" class="node"><title>Node6</title>
<g id="a_node6"><a xlink:href="a00034.html" target="_top" xlink:title="request to the collision algorithm ">
<polygon fill="white" stroke="black" points="426.5,-189.5 426.5,-208.5 533.5,-208.5 533.5,-189.5 426.5,-189.5"/>
<text text-anchor="middle" x="480" y="-196.5" font-family="Helvetica,sans-Serif" font-size="10.00">fcl::CollisionRequest</text>
</a>
</g>
</g>
<!-- Node6&#45;&gt;Node3 -->
<g id="edge5" class="edge"><title>Node6&#45;&gt;Node3</title>
<path fill="none" stroke="#9a32cd" stroke-dasharray="5,2" d="M543.761,-199C565.344,-199 589.769,-199 612.39,-199"/>
<polygon fill="#9a32cd" stroke="#9a32cd" points="543.74,-195.5 533.74,-199 543.739,-202.5 543.74,-195.5"/>
<text text-anchor="middle" x="576" y="-202" font-family="Helvetica,sans-Serif" font-size="10.00"> request</text>
</g>
<!-- Node7 -->
<g id="node7" class="node"><title>Node7</title>
<g id="a_node7"><a xlink:href="a00069.html" target="_top" xlink:title="Eigen::FclMatrix\&lt; FCL\l_REAL, 1 \&gt;">
<polygon fill="white" stroke="black" points="182,-163 182,-193 298,-193 298,-163 182,-163"/>
<text text-anchor="start" x="190" y="-181" font-family="Helvetica,sans-Serif" font-size="10.00">Eigen::FclMatrix&lt; FCL</text>
<text text-anchor="middle" x="240" y="-170" font-family="Helvetica,sans-Serif" font-size="10.00">_REAL, 1 &gt;</text>
</a>
</g>
</g>
<!-- Node7&#45;&gt;Node6 -->
<g id="edge6" class="edge"><title>Node7&#45;&gt;Node6</title>
<path fill="none" stroke="#9a32cd" stroke-dasharray="5,2" d="M308.296,-183.938C345.626,-187.232 391.383,-191.269 426.124,-194.334"/>
<polygon fill="#9a32cd" stroke="#9a32cd" points="308.276,-180.423 298.007,-183.03 307.661,-187.396 308.276,-180.423"/>
<text text-anchor="middle" x="359" y="-195" font-family="Helvetica,sans-Serif" font-size="10.00"> cached_gjk_guess</text>
</g>
<!-- Node10 -->
<g id="node10" class="node"><title>Node10</title>
<g id="a_node10"><a xlink:href="a00035.html" target="_top" xlink:title="collision result ">
<polygon fill="white" stroke="black" points="430.5,-151.5 430.5,-170.5 529.5,-170.5 529.5,-151.5 430.5,-151.5"/>
<text text-anchor="middle" x="480" y="-158.5" font-family="Helvetica,sans-Serif" font-size="10.00">fcl::CollisionResult</text>
</a>
</g>
</g>
<!-- Node7&#45;&gt;Node10 -->
<g id="edge10" class="edge"><title>Node7&#45;&gt;Node10</title>
<path fill="none" stroke="#9a32cd" stroke-dasharray="5,2" d="M308.283,-164.888C310.884,-164.557 313.463,-164.258 316,-164 354.295,-160.101 397.904,-159.498 430.374,-159.789"/>
<polygon fill="#9a32cd" stroke="#9a32cd" points="307.599,-161.45 298.186,-166.313 308.577,-168.381 307.599,-161.45"/>
<text text-anchor="middle" x="359" y="-167" font-family="Helvetica,sans-Serif" font-size="10.00"> cached_gjk_guess</text>
</g>
<!-- Node8 -->
<g id="node8" class="node"><title>Node8</title>
<polygon fill="white" stroke="#bfbfbf" points="6.5,-188 6.5,-240 137.5,-240 137.5,-188 6.5,-188"/>
<text text-anchor="start" x="14.5" y="-228" font-family="Helvetica,sans-Serif" font-size="10.00">Matrix&lt; FCL_REAL ,</text>
<text text-anchor="start" x="14.5" y="-217" font-family="Helvetica,sans-Serif" font-size="10.00"> 3, Cols, internal::</text>
<text text-anchor="start" x="14.5" y="-206" font-family="Helvetica,sans-Serif" font-size="10.00">traits&lt;Matrix &lt;FCL_REAL</text>
<text text-anchor="middle" x="72" y="-195" font-family="Helvetica,sans-Serif" font-size="10.00"> , 3, Cols&gt; &gt;::Options &gt;</text>
</g>
<!-- Node8&#45;&gt;Node7 -->
<g id="edge7" class="edge"><title>Node8&#45;&gt;Node7</title>
<path fill="none" stroke="midnightblue" d="M147.655,-197.81C159.123,-195.323 170.805,-192.789 181.814,-190.402"/>
<polygon fill="midnightblue" stroke="midnightblue" points="146.686,-194.438 137.655,-199.978 148.17,-201.279 146.686,-194.438"/>
</g>
<!-- Node9 -->
<g id="node9" class="node"><title>Node9</title>
<g id="a_node9"><a xlink:href="a00073.html" target="_top" xlink:title="fcl::FclType\&lt; FclMatrix\l\&lt; FCL_REAL, Cols, internal\l::traits\&lt; Matrix\&lt; FCL_REAL,\l 3, Cols \&gt; \&gt;::Options \&gt; \&gt;">
<polygon fill="white" stroke="black" points="0.5,-117 0.5,-169 143.5,-169 143.5,-117 0.5,-117"/>
<text text-anchor="start" x="8.5" y="-157" font-family="Helvetica,sans-Serif" font-size="10.00">fcl::FclType&lt; FclMatrix</text>
<text text-anchor="start" x="8.5" y="-146" font-family="Helvetica,sans-Serif" font-size="10.00">&lt; FCL_REAL, Cols, internal</text>
<text text-anchor="start" x="8.5" y="-135" font-family="Helvetica,sans-Serif" font-size="10.00">::traits&lt; Matrix&lt; FCL_REAL,</text>
<text text-anchor="middle" x="72" y="-124" font-family="Helvetica,sans-Serif" font-size="10.00"> 3, Cols &gt; &gt;::Options &gt; &gt;</text>
</a>
</g>
</g>
<!-- Node9&#45;&gt;Node7 -->
<g id="edge8" class="edge"><title>Node9&#45;&gt;Node7</title>
<path fill="none" stroke="midnightblue" d="M153.751,-160.026C163.257,-162.03 172.802,-164.043 181.887,-165.958"/>
<polygon fill="midnightblue" stroke="midnightblue" points="154.387,-156.583 143.88,-157.945 152.943,-163.433 154.387,-156.583"/>
</g>
<!-- Node10&#45;&gt;Node3 -->
<g id="edge9" class="edge"><title>Node10&#45;&gt;Node3</title>
<path fill="none" stroke="#9a32cd" stroke-dasharray="5,2" d="M539.878,-171.705C570.579,-177.287 607.817,-184.058 637.524,-189.459"/>
<polygon fill="#9a32cd" stroke="#9a32cd" points="540.202,-168.207 529.737,-169.861 538.95,-175.094 540.202,-168.207"/>
<text text-anchor="middle" x="576" y="-185" font-family="Helvetica,sans-Serif" font-size="10.00"> result</text>
</g>
<!-- Node11 -->
<g id="node11" class="node"><title>Node11</title>
<polygon fill="white" stroke="#bfbfbf" points="850.5,-135 850.5,-165 1009.5,-165 1009.5,-135 850.5,-135"/>
<text text-anchor="start" x="858.5" y="-153" font-family="Helvetica,sans-Serif" font-size="10.00">std::vector&lt; fcl::BVHContinuous</text>
<text text-anchor="middle" x="930" y="-142" font-family="Helvetica,sans-Serif" font-size="10.00">CollisionPair &gt;</text>
</g>
<!-- Node11&#45;&gt;Node1 -->
<g id="edge11" class="edge"><title>Node11&#45;&gt;Node1</title>
<path fill="none" stroke="#9a32cd" stroke-dasharray="5,2" d="M1020.05,-142.164C1049.52,-139.571 1081.9,-136.721 1109.84,-134.262"/>
<polygon fill="#9a32cd" stroke="#9a32cd" points="1019.41,-138.706 1009.76,-143.069 1020.03,-145.679 1019.41,-138.706"/>
<text text-anchor="middle" x="1060" y="-144" font-family="Helvetica,sans-Serif" font-size="10.00"> pairs</text>
</g>
<!-- Node12 -->
<g id="node12" class="node"><title>Node12</title>
<g id="a_node12"><a xlink:href="a00019.html" target="_top" xlink:title="Traversal node for continuous collision between BVH models. ">
<polygon fill="white" stroke="black" points="612,-140.5 612,-159.5 770,-159.5 770,-140.5 612,-140.5"/>
<text text-anchor="middle" x="691" y="-147.5" font-family="Helvetica,sans-Serif" font-size="10.00">fcl::BVHContinuousCollisionPair</text>
</a>
</g>
</g>
<!-- Node12&#45;&gt;Node11 -->
<g id="edge12" class="edge"><title>Node12&#45;&gt;Node11</title>
<path fill="none" stroke="#9a32cd" stroke-dasharray="5,2" d="M780.35,-150C803.346,-150 827.964,-150 850.418,-150"/>
<polygon fill="#9a32cd" stroke="#9a32cd" points="780.26,-146.5 770.259,-150 780.259,-153.5 780.26,-146.5"/>
<text text-anchor="middle" x="810" y="-153" font-family="Helvetica,sans-Serif" font-size="10.00"> elements</text>
</g>
<!-- Node13 -->
<g id="node13" class="node"><title>Node13</title>
<g id="a_node13"><a xlink:href="a00245.html" target="_top" xlink:title="Triangle with 3 indices for points. ">
<polygon fill="white" stroke="black" points="896,-96.5 896,-115.5 964,-115.5 964,-96.5 896,-96.5"/>
<text text-anchor="middle" x="930" y="-103.5" font-family="Helvetica,sans-Serif" font-size="10.00">fcl::Triangle</text>
</a>
</g>
</g>
<!-- Node13&#45;&gt;Node1 -->
<g id="edge13" class="edge"><title>Node13&#45;&gt;Node1</title>
<path fill="none" stroke="#9a32cd" stroke-dasharray="5,2" d="M974.166,-105.499C1006.66,-105.568 1052.25,-106.614 1092,-111 1097.79,-111.638 1103.76,-112.447 1109.74,-113.364"/>
<polygon fill="#9a32cd" stroke="#9a32cd" points="974.097,-101.999 964.1,-105.508 974.103,-108.999 974.097,-101.999"/>
<text text-anchor="middle" x="1060" y="-125" font-family="Helvetica,sans-Serif" font-size="10.00"> tri_indices1</text>
<text text-anchor="middle" x="1060" y="-114" font-family="Helvetica,sans-Serif" font-size="10.00">tri_indices2</text>
</g>
<!-- Node14 -->
<g id="node14" class="node"><title>Node14</title>
<g id="a_node14"><a xlink:href="a00069.html" target="_top" xlink:title="Vector3 class wrapper. The core data is in the template parameter class. ">
<polygon fill="white" stroke="black" points="877,-24 877,-54 983,-54 983,-24 877,-24"/>
<text text-anchor="start" x="885" y="-42" font-family="Helvetica,sans-Serif" font-size="10.00">Eigen::FclMatrix&lt; T,</text>
<text text-anchor="middle" x="930" y="-31" font-family="Helvetica,sans-Serif" font-size="10.00"> Cols, _Options &gt;</text>
</a>
</g>
</g>
<!-- Node14&#45;&gt;Node1 -->
<g id="edge14" class="edge"><title>Node14&#45;&gt;Node1</title>
<path fill="none" stroke="#9a32cd" stroke-dasharray="5,2" d="M993.325,-39.0614C1024.02,-40.9845 1061.01,-46.2046 1092,-59 1121.82,-71.3105 1150.17,-96.416 1166.56,-112.709"/>
<polygon fill="#9a32cd" stroke="#9a32cd" points="993.341,-35.5575 983.172,-38.5294 992.975,-42.5479 993.341,-35.5575"/>
<text text-anchor="middle" x="1060" y="-95" font-family="Helvetica,sans-Serif" font-size="10.00"> vertices1</text>
<text text-anchor="middle" x="1060" y="-84" font-family="Helvetica,sans-Serif" font-size="10.00">vertices2</text>
<text text-anchor="middle" x="1060" y="-73" font-family="Helvetica,sans-Serif" font-size="10.00">prev_vertices1</text>
<text text-anchor="middle" x="1060" y="-62" font-family="Helvetica,sans-Serif" font-size="10.00">prev_vertices2</text>
</g>
<!-- Node15 -->
<g id="node15" class="node"><title>Node15</title>
<polygon fill="white" stroke="#bfbfbf" points="639,-49 639,-79 743,-79 743,-49 639,-49"/>
<text text-anchor="start" x="647" y="-67" font-family="Helvetica,sans-Serif" font-size="10.00">Eigen::Matrix&lt; T, 3,</text>
<text text-anchor="middle" x="691" y="-56" font-family="Helvetica,sans-Serif" font-size="10.00"> Cols, _Options &gt;</text>
</g>
<!-- Node15&#45;&gt;Node14 -->
<g id="edge15" class="edge"><title>Node15&#45;&gt;Node14</title>
<path fill="none" stroke="midnightblue" d="M753.13,-57.5517C791.421,-53.5126 840.244,-48.3624 876.729,-44.5138"/>
<polygon fill="midnightblue" stroke="midnightblue" points="752.711,-54.0763 743.134,-58.6062 753.446,-61.0377 752.711,-54.0763"/>
</g>
<!-- Node16 -->
<g id="node16" class="node"><title>Node16</title>
<g id="a_node16"><a xlink:href="a00073.html" target="_top" xlink:title="fcl::FclType\&lt; FclMatrix\l\&lt; T, Cols, _Options \&gt; \&gt;">
<polygon fill="white" stroke="black" points="630.5,-0 630.5,-30 751.5,-30 751.5,-0 630.5,-0"/>
<text text-anchor="start" x="638.5" y="-18" font-family="Helvetica,sans-Serif" font-size="10.00">fcl::FclType&lt; FclMatrix</text>
<text text-anchor="middle" x="691" y="-7" font-family="Helvetica,sans-Serif" font-size="10.00">&lt; T, Cols, _Options &gt; &gt;</text>
</a>
</g>
</g>
<!-- Node16&#45;&gt;Node14 -->
<g id="edge16" class="edge"><title>Node16&#45;&gt;Node14</title>
<path fill="none" stroke="midnightblue" d="M761.97,-22.0855C798.771,-25.8123 843.121,-30.3034 876.87,-33.721"/>
<polygon fill="midnightblue" stroke="midnightblue" points="762.107,-18.5816 751.805,-21.0562 761.402,-25.546 762.107,-18.5816"/>
</g>
</g>
</svg>
