<?xml version="1.0" encoding="UTF-8" standalone="no"?>
<!DOCTYPE svg PUBLIC "-//W3C//DTD SVG 1.1//EN"
 "http://www.w3.org/Graphics/SVG/1.1/DTD/svg11.dtd">
<!-- Generated by graphviz version 2.36.0 (20140111.2315)
 -->
<!-- Title: fcl::Link Pages: 1 -->
<svg width="436pt" height="141pt"
 viewBox="0.00 0.00 436.00 141.00" xmlns="http://www.w3.org/2000/svg" xmlns:xlink="http://www.w3.org/1999/xlink">
<g id="graph0" class="graph" transform="scale(1 1) rotate(0) translate(4 137)">
<title>fcl::Link</title>
<polygon fill="white" stroke="none" points="-4,4 -4,-137 432,-137 432,4 -4,4"/>
<!-- Node1 -->
<g id="node1" class="node"><title>Node1</title>
<polygon fill="#bfbfbf" stroke="black" points="376.5,-54.5 376.5,-73.5 427.5,-73.5 427.5,-54.5 376.5,-54.5"/>
<text text-anchor="middle" x="402" y="-61.5" font-family="Helvetica,sans-Serif" font-size="10.00">fcl::Link</text>
</g>
<!-- Node2 -->
<g id="node2" class="node"><title>Node2</title>
<polygon fill="white" stroke="#bfbfbf" points="134.5,-103 134.5,-133 267.5,-133 267.5,-103 134.5,-103"/>
<text text-anchor="start" x="142.5" y="-121" font-family="Helvetica,sans-Serif" font-size="10.00">std::vector&lt; boost</text>
<text text-anchor="middle" x="201" y="-110" font-family="Helvetica,sans-Serif" font-size="10.00">::shared_ptr&lt; fcl::Joint &gt; &gt;</text>
</g>
<!-- Node2&#45;&gt;Node1 -->
<g id="edge1" class="edge"><title>Node2&#45;&gt;Node1</title>
<path fill="none" stroke="#9a32cd" stroke-dasharray="5,2" d="M277.668,-100.546C303.308,-94.2448 332.025,-86.7601 358,-79 363.909,-77.2347 370.209,-75.1526 376.113,-73.1107"/>
<polygon fill="#9a32cd" stroke="#9a32cd" points="276.521,-97.2233 267.634,-102.991 278.178,-104.024 276.521,-97.2233"/>
<text text-anchor="middle" x="322" y="-100" font-family="Helvetica,sans-Serif" font-size="10.00"> children_joints_</text>
</g>
<!-- Node3 -->
<g id="node3" class="node"><title>Node3</title>
<polygon fill="white" stroke="#bfbfbf" points="135.5,-43.5 135.5,-84.5 266.5,-84.5 266.5,-43.5 135.5,-43.5"/>
<text text-anchor="start" x="143.5" y="-72.5" font-family="Helvetica,sans-Serif" font-size="10.00">std::vector&lt; boost</text>
<text text-anchor="start" x="143.5" y="-61.5" font-family="Helvetica,sans-Serif" font-size="10.00">::shared_ptr&lt; fcl::Collision</text>
<text text-anchor="middle" x="201" y="-50.5" font-family="Helvetica,sans-Serif" font-size="10.00">Object &gt; &gt;</text>
</g>
<!-- Node3&#45;&gt;Node1 -->
<g id="edge2" class="edge"><title>Node3&#45;&gt;Node1</title>
<path fill="none" stroke="#9a32cd" stroke-dasharray="5,2" d="M276.868,-64C312.004,-64 351.513,-64 376.326,-64"/>
<polygon fill="#9a32cd" stroke="#9a32cd" points="276.61,-60.5001 266.61,-64 276.61,-67.5001 276.61,-60.5001"/>
<text text-anchor="middle" x="322" y="-67" font-family="Helvetica,sans-Serif" font-size="10.00"> objects_</text>
</g>
<!-- Node4 -->
<g id="node4" class="node"><title>Node4</title>
<g id="a_node4"><a xlink:title="STL class. ">
<polygon fill="white" stroke="#bfbfbf" points="171,-5.5 171,-24.5 231,-24.5 231,-5.5 171,-5.5"/>
<text text-anchor="middle" x="201" y="-12.5" font-family="Helvetica,sans-Serif" font-size="10.00">std::string</text>
</a>
</g>
</g>
<!-- Node4&#45;&gt;Node1 -->
<g id="edge3" class="edge"><title>Node4&#45;&gt;Node1</title>
<path fill="none" stroke="#9a32cd" stroke-dasharray="5,2" d="M241.21,-22.1794C272.955,-28.3183 318.694,-37.9048 358,-49 363.935,-50.6753 370.245,-52.7223 376.151,-54.7588"/>
<polygon fill="#9a32cd" stroke="#9a32cd" points="241.489,-18.6695 231.01,-20.2324 240.177,-25.5454 241.489,-18.6695"/>
<text text-anchor="middle" x="322" y="-52" font-family="Helvetica,sans-Serif" font-size="10.00"> name_</text>
</g>
<!-- Node5 -->
<g id="node5" class="node"><title>Node5</title>
<g id="a_node5"><a xlink:title="STL class. ">
<polygon fill="white" stroke="#bfbfbf" points="0.5,-0 0.5,-30 95.5,-30 95.5,-0 0.5,-0"/>
<text text-anchor="start" x="8.5" y="-18" font-family="Helvetica,sans-Serif" font-size="10.00">std::basic_string&lt;</text>
<text text-anchor="middle" x="48" y="-7" font-family="Helvetica,sans-Serif" font-size="10.00"> char &gt;</text>
</a>
</g>
</g>
<!-- Node5&#45;&gt;Node4 -->
<g id="edge4" class="edge"><title>Node5&#45;&gt;Node4</title>
<path fill="none" stroke="midnightblue" d="M105.568,-15C127.827,-15 152.432,-15 170.944,-15"/>
<polygon fill="midnightblue" stroke="midnightblue" points="105.537,-11.5001 95.5371,-15 105.537,-18.5001 105.537,-11.5001"/>
</g>
</g>
</svg>
