<?xml version="1.0" encoding="UTF-8" standalone="no"?>
<!DOCTYPE svg PUBLIC "-//W3C//DTD SVG 1.1//EN"
 "http://www.w3.org/Graphics/SVG/1.1/DTD/svg11.dtd">
<!-- Generated by graphviz version 2.36.0 (20140111.2315)
 -->
<!-- Title: fcl::MeshDistanceTraversalNodeRSS Pages: 1 -->
<svg width="1660pt" height="389pt"
 viewBox="0.00 0.00 1660.00 389.00" xmlns="http://www.w3.org/2000/svg" xmlns:xlink="http://www.w3.org/1999/xlink">
<g id="graph0" class="graph" transform="scale(1 1) rotate(0) translate(4 385)">
<title>fcl::MeshDistanceTraversalNodeRSS</title>
<polygon fill="white" stroke="none" points="-4,4 -4,-385 1656,-385 1656,4 -4,4"/>
<!-- Node1 -->
<g id="node1" class="node"><title>Node1</title>
<polygon fill="#bfbfbf" stroke="black" points="1514.5,-32 1514.5,-62 1651.5,-62 1651.5,-32 1514.5,-32"/>
<text text-anchor="start" x="1522.5" y="-50" font-family="Helvetica,sans-Serif" font-size="10.00">fcl::MeshDistanceTraversal</text>
<text text-anchor="middle" x="1583" y="-39" font-family="Helvetica,sans-Serif" font-size="10.00">NodeRSS</text>
</g>
<!-- Node2 -->
<g id="node2" class="node"><title>Node2</title>
<g id="a_node2"><a xlink:href="a00118.html" target="_top" xlink:title="fcl::MeshDistanceTraversal\lNode\&lt; RSS \&gt;">
<polygon fill="white" stroke="black" points="1338.5,-95 1338.5,-125 1475.5,-125 1475.5,-95 1338.5,-95"/>
<text text-anchor="start" x="1346.5" y="-113" font-family="Helvetica,sans-Serif" font-size="10.00">fcl::MeshDistanceTraversal</text>
<text text-anchor="middle" x="1407" y="-102" font-family="Helvetica,sans-Serif" font-size="10.00">Node&lt; RSS &gt;</text>
</a>
</g>
</g>
<!-- Node2&#45;&gt;Node1 -->
<g id="edge1" class="edge"><title>Node2&#45;&gt;Node1</title>
<path fill="none" stroke="midnightblue" d="M1459.3,-91.425C1485.13,-82.0744 1516.03,-70.8855 1540.36,-62.076"/>
<polygon fill="midnightblue" stroke="midnightblue" points="1457.89,-88.2145 1449.68,-94.9099 1460.27,-94.7964 1457.89,-88.2145"/>
</g>
<!-- Node3 -->
<g id="node3" class="node"><title>Node3</title>
<g id="a_node3"><a xlink:href="a00020.html" target="_top" xlink:title="fcl::BVHDistanceTraversal\lNode\&lt; RSS \&gt;">
<polygon fill="white" stroke="black" points="1166,-192 1166,-222 1300,-222 1300,-192 1166,-192"/>
<text text-anchor="start" x="1174" y="-210" font-family="Helvetica,sans-Serif" font-size="10.00">fcl::BVHDistanceTraversal</text>
<text text-anchor="middle" x="1233" y="-199" font-family="Helvetica,sans-Serif" font-size="10.00">Node&lt; RSS &gt;</text>
</a>
</g>
</g>
<!-- Node3&#45;&gt;Node2 -->
<g id="edge2" class="edge"><title>Node3&#45;&gt;Node2</title>
<path fill="none" stroke="midnightblue" d="M1269.66,-186.891C1302.29,-168.487 1349.85,-141.663 1379.31,-125.05"/>
<polygon fill="midnightblue" stroke="midnightblue" points="1267.87,-183.883 1260.88,-191.844 1271.3,-189.98 1267.87,-183.883"/>
</g>
<!-- Node4 -->
<g id="node4" class="node"><title>Node4</title>
<g id="a_node4"><a xlink:href="a00056.html" target="_top" xlink:title="Node structure encoding the information required for distance traversal. ">
<polygon fill="white" stroke="black" points="918,-291.5 918,-310.5 1076,-310.5 1076,-291.5 918,-291.5"/>
<text text-anchor="middle" x="997" y="-298.5" font-family="Helvetica,sans-Serif" font-size="10.00">fcl::DistanceTraversalNodeBase</text>
</a>
</g>
</g>
<!-- Node4&#45;&gt;Node3 -->
<g id="edge3" class="edge"><title>Node4&#45;&gt;Node3</title>
<path fill="none" stroke="midnightblue" d="M1031.18,-287.671C1074.25,-270.368 1149.24,-240.246 1194.38,-222.112"/>
<polygon fill="midnightblue" stroke="midnightblue" points="1029.7,-284.494 1021.72,-291.469 1032.31,-290.99 1029.7,-284.494"/>
</g>
<!-- Node5 -->
<g id="node5" class="node"><title>Node5</title>
<g id="a_node5"><a xlink:href="a00244.html" target="_top" xlink:title="Node structure encoding the information required for traversal. ">
<polygon fill="white" stroke="black" points="700.5,-349.5 700.5,-368.5 819.5,-368.5 819.5,-349.5 700.5,-349.5"/>
<text text-anchor="middle" x="760" y="-356.5" font-family="Helvetica,sans-Serif" font-size="10.00">fcl::TraversalNodeBase</text>
</a>
</g>
</g>
<!-- Node5&#45;&gt;Node4 -->
<g id="edge4" class="edge"><title>Node5&#45;&gt;Node4</title>
<path fill="none" stroke="midnightblue" d="M819.171,-347.409C844.148,-342.183 873.603,-335.689 900,-329 922.046,-323.413 946.668,-316.212 965.456,-310.512"/>
<polygon fill="midnightblue" stroke="midnightblue" points="818.203,-344.035 809.122,-349.494 819.625,-350.889 818.203,-344.035"/>
</g>
<!-- Node6 -->
<g id="node6" class="node"><title>Node6</title>
<g id="a_node6"><a xlink:href="a00242.html" target="_top" xlink:title="Simple transform class used locally by InterpMotion. ">
<polygon fill="white" stroke="black" points="544,-349.5 544,-368.5 630,-368.5 630,-349.5 544,-349.5"/>
<text text-anchor="middle" x="587" y="-356.5" font-family="Helvetica,sans-Serif" font-size="10.00">fcl::Transform3f</text>
</a>
</g>
</g>
<!-- Node6&#45;&gt;Node5 -->
<g id="edge5" class="edge"><title>Node6&#45;&gt;Node5</title>
<path fill="none" stroke="#9a32cd" stroke-dasharray="5,2" d="M640.513,-359C659.477,-359 680.998,-359 700.447,-359"/>
<polygon fill="#9a32cd" stroke="#9a32cd" points="640.27,-355.5 630.27,-359 640.27,-362.5 640.27,-355.5"/>
<text text-anchor="middle" x="674" y="-373" font-family="Helvetica,sans-Serif" font-size="10.00"> tf1</text>
<text text-anchor="middle" x="674" y="-362" font-family="Helvetica,sans-Serif" font-size="10.00">tf2</text>
</g>
<!-- Node7 -->
<g id="node7" class="node"><title>Node7</title>
<g id="a_node7"><a xlink:href="a00055.html" target="_top" xlink:title="distance result ">
<polygon fill="white" stroke="black" points="709.5,-311.5 709.5,-330.5 810.5,-330.5 810.5,-311.5 709.5,-311.5"/>
<text text-anchor="middle" x="760" y="-318.5" font-family="Helvetica,sans-Serif" font-size="10.00">fcl::DistanceResult</text>
</a>
</g>
</g>
<!-- Node7&#45;&gt;Node4 -->
<g id="edge6" class="edge"><title>Node7&#45;&gt;Node4</title>
<path fill="none" stroke="#9a32cd" stroke-dasharray="5,2" d="M820.698,-315.919C850.201,-313.408 886.178,-310.347 917.845,-307.652"/>
<polygon fill="#9a32cd" stroke="#9a32cd" points="820.217,-312.447 810.55,-316.783 820.811,-319.422 820.217,-312.447"/>
<text text-anchor="middle" x="869" y="-317" font-family="Helvetica,sans-Serif" font-size="10.00"> result</text>
</g>
<!-- Node8 -->
<g id="node8" class="node"><title>Node8</title>
<g id="a_node8"><a xlink:href="a00069.html" target="_top" xlink:title="Eigen::FclMatrix\&lt; FCL\l_REAL, 1 \&gt;">
<polygon fill="white" stroke="black" points="182,-184 182,-214 298,-214 298,-184 182,-184"/>
<text text-anchor="start" x="190" y="-202" font-family="Helvetica,sans-Serif" font-size="10.00">Eigen::FclMatrix&lt; FCL</text>
<text text-anchor="middle" x="240" y="-191" font-family="Helvetica,sans-Serif" font-size="10.00">_REAL, 1 &gt;</text>
</a>
</g>
</g>
<!-- Node8&#45;&gt;Node1 -->
<g id="edge24" class="edge"><title>Node8&#45;&gt;Node1</title>
<path fill="none" stroke="#9a32cd" stroke-dasharray="5,2" d="M251.369,-174.655C271.484,-131.712 320.145,-47 391,-47 391,-47 391,-47 1408,-47 1443.04,-47 1482.05,-47 1514.24,-47"/>
<polygon fill="#9a32cd" stroke="#9a32cd" points="248.132,-173.317 247.191,-183.87 254.508,-176.208 248.132,-173.317"/>
<text text-anchor="middle" x="869" y="-50" font-family="Helvetica,sans-Serif" font-size="10.00"> T</text>
</g>
<!-- Node8&#45;&gt;Node7 -->
<g id="edge7" class="edge"><title>Node8&#45;&gt;Node7</title>
<path fill="none" stroke="#9a32cd" stroke-dasharray="5,2" d="M272.509,-219.363C285.592,-227.203 301.161,-235.761 316,-242 335.585,-250.234 341.267,-250.362 362,-255 485.925,-282.723 633.992,-304.348 709.457,-314.561"/>
<polygon fill="#9a32cd" stroke="#9a32cd" points="274.245,-216.322 263.888,-214.088 270.591,-222.293 274.245,-216.322"/>
<text text-anchor="middle" x="474" y="-286" font-family="Helvetica,sans-Serif" font-size="10.00"> nearest_points</text>
</g>
<!-- Node11 -->
<g id="node11" class="node"><title>Node11</title>
<g id="a_node11"><a xlink:href="a00032.html" target="_top" xlink:title="The geometry for the object for collision or distance computation. ">
<polygon fill="white" stroke="black" points="530.5,-235.5 530.5,-254.5 643.5,-254.5 643.5,-235.5 530.5,-235.5"/>
<text text-anchor="middle" x="587" y="-242.5" font-family="Helvetica,sans-Serif" font-size="10.00">fcl::CollisionGeometry</text>
</a>
</g>
</g>
<!-- Node8&#45;&gt;Node11 -->
<g id="edge13" class="edge"><title>Node8&#45;&gt;Node11</title>
<path fill="none" stroke="#9a32cd" stroke-dasharray="5,2" d="M287.968,-217.363C297.146,-220.356 306.783,-223.095 316,-225 389.073,-240.104 475.346,-244.166 530.347,-245.073"/>
<polygon fill="#9a32cd" stroke="#9a32cd" points="288.827,-213.958 278.232,-214.044 286.568,-220.584 288.827,-213.958"/>
<text text-anchor="middle" x="392" y="-243" font-family="Helvetica,sans-Serif" font-size="10.00"> aabb_center</text>
</g>
<!-- Node12 -->
<g id="node12" class="node"><title>Node12</title>
<g id="a_node12"><a xlink:href="a00003.html" target="_top" xlink:title="A class describing the AABB collision structure, which is a box in 3D space determined by two diagona...">
<polygon fill="white" stroke="black" points="362,-189.5 362,-208.5 422,-208.5 422,-189.5 362,-189.5"/>
<text text-anchor="middle" x="392" y="-196.5" font-family="Helvetica,sans-Serif" font-size="10.00">fcl::AABB</text>
</a>
</g>
</g>
<!-- Node8&#45;&gt;Node12 -->
<g id="edge12" class="edge"><title>Node8&#45;&gt;Node12</title>
<path fill="none" stroke="#9a32cd" stroke-dasharray="5,2" d="M308.17,-199C326.949,-199 346.391,-199 361.715,-199"/>
<polygon fill="#9a32cd" stroke="#9a32cd" points="308.137,-195.5 298.136,-199 308.136,-202.5 308.137,-195.5"/>
<text text-anchor="middle" x="330" y="-213" font-family="Helvetica,sans-Serif" font-size="10.00"> max_</text>
<text text-anchor="middle" x="330" y="-202" font-family="Helvetica,sans-Serif" font-size="10.00">min_</text>
</g>
<!-- Node9 -->
<g id="node9" class="node"><title>Node9</title>
<polygon fill="white" stroke="#bfbfbf" points="6.5,-173 6.5,-225 137.5,-225 137.5,-173 6.5,-173"/>
<text text-anchor="start" x="14.5" y="-213" font-family="Helvetica,sans-Serif" font-size="10.00">Matrix&lt; FCL_REAL ,</text>
<text text-anchor="start" x="14.5" y="-202" font-family="Helvetica,sans-Serif" font-size="10.00"> 3, Cols, internal::</text>
<text text-anchor="start" x="14.5" y="-191" font-family="Helvetica,sans-Serif" font-size="10.00">traits&lt;Matrix &lt;FCL_REAL</text>
<text text-anchor="middle" x="72" y="-180" font-family="Helvetica,sans-Serif" font-size="10.00"> , 3, Cols&gt; &gt;::Options &gt;</text>
</g>
<!-- Node9&#45;&gt;Node8 -->
<g id="edge8" class="edge"><title>Node9&#45;&gt;Node8</title>
<path fill="none" stroke="midnightblue" d="M148.003,-199C159.359,-199 170.916,-199 181.814,-199"/>
<polygon fill="midnightblue" stroke="midnightblue" points="147.655,-195.5 137.655,-199 147.655,-202.5 147.655,-195.5"/>
</g>
<!-- Node10 -->
<g id="node10" class="node"><title>Node10</title>
<g id="a_node10"><a xlink:href="a00073.html" target="_top" xlink:title="fcl::FclType\&lt; FclMatrix\l\&lt; FCL_REAL, Cols, internal\l::traits\&lt; Matrix\&lt; FCL_REAL,\l 3, Cols \&gt; \&gt;::Options \&gt; \&gt;">
<polygon fill="white" stroke="black" points="0.5,-92 0.5,-144 143.5,-144 143.5,-92 0.5,-92"/>
<text text-anchor="start" x="8.5" y="-132" font-family="Helvetica,sans-Serif" font-size="10.00">fcl::FclType&lt; FclMatrix</text>
<text text-anchor="start" x="8.5" y="-121" font-family="Helvetica,sans-Serif" font-size="10.00">&lt; FCL_REAL, Cols, internal</text>
<text text-anchor="start" x="8.5" y="-110" font-family="Helvetica,sans-Serif" font-size="10.00">::traits&lt; Matrix&lt; FCL_REAL,</text>
<text text-anchor="middle" x="72" y="-99" font-family="Helvetica,sans-Serif" font-size="10.00"> 3, Cols &gt; &gt;::Options &gt; &gt;</text>
</a>
</g>
</g>
<!-- Node10&#45;&gt;Node8 -->
<g id="edge9" class="edge"><title>Node10&#45;&gt;Node8</title>
<path fill="none" stroke="midnightblue" d="M135.749,-148.618C160.421,-160.657 187.636,-173.937 207.929,-183.839"/>
<polygon fill="midnightblue" stroke="midnightblue" points="136.959,-145.315 126.437,-144.075 133.889,-151.606 136.959,-145.315"/>
</g>
<!-- Node20 -->
<g id="node20" class="node"><title>Node20</title>
<g id="a_node20"><a xlink:href="a00069.html" target="_top" xlink:title="Eigen::FclMatrix\&lt; FCL\l_REAL, 3 \&gt;">
<polygon fill="white" stroke="black" points="182,-11 182,-41 298,-41 298,-11 182,-11"/>
<text text-anchor="start" x="190" y="-29" font-family="Helvetica,sans-Serif" font-size="10.00">Eigen::FclMatrix&lt; FCL</text>
<text text-anchor="middle" x="240" y="-18" font-family="Helvetica,sans-Serif" font-size="10.00">_REAL, 3 &gt;</text>
</a>
</g>
</g>
<!-- Node10&#45;&gt;Node20 -->
<g id="edge27" class="edge"><title>Node10&#45;&gt;Node20</title>
<path fill="none" stroke="midnightblue" d="M128.97,-86.9803C156.762,-71.5777 189.092,-53.6596 211.484,-41.25"/>
<polygon fill="midnightblue" stroke="midnightblue" points="127.175,-83.9738 120.125,-91.8826 130.568,-90.0963 127.175,-83.9738"/>
</g>
<!-- Node11&#45;&gt;Node7 -->
<g id="edge10" class="edge"><title>Node11&#45;&gt;Node7</title>
<path fill="none" stroke="#9a32cd" stroke-dasharray="5,2" d="M633.233,-258.014C649.442,-263.881 667.322,-271.818 682,-282 691.826,-288.816 689.963,-295.499 700,-302 705.871,-305.803 712.564,-308.899 719.283,-311.403"/>
<polygon fill="#9a32cd" stroke="#9a32cd" points="633.995,-254.575 623.4,-254.627 631.715,-261.193 633.995,-254.575"/>
<text text-anchor="middle" x="674" y="-296" font-family="Helvetica,sans-Serif" font-size="10.00"> o1</text>
<text text-anchor="middle" x="674" y="-285" font-family="Helvetica,sans-Serif" font-size="10.00">o2</text>
</g>
<!-- Node14 -->
<g id="node14" class="node"><title>Node14</title>
<g id="a_node14"><a xlink:href="a00022.html" target="_top" xlink:title="fcl::BVHModel\&lt; RSS \&gt;">
<polygon fill="white" stroke="black" points="937.5,-197.5 937.5,-216.5 1056.5,-216.5 1056.5,-197.5 937.5,-197.5"/>
<text text-anchor="middle" x="997" y="-204.5" font-family="Helvetica,sans-Serif" font-size="10.00">fcl::BVHModel&lt; RSS &gt;</text>
</a>
</g>
</g>
<!-- Node11&#45;&gt;Node14 -->
<g id="edge16" class="edge"><title>Node11&#45;&gt;Node14</title>
<path fill="none" stroke="midnightblue" d="M653.848,-241.24C717.077,-237.321 815.225,-230.431 900,-221 912.136,-219.65 925.098,-217.942 937.444,-216.186"/>
<polygon fill="midnightblue" stroke="midnightblue" points="653.388,-237.762 643.621,-241.867 653.816,-244.748 653.388,-237.762"/>
</g>
<!-- Node12&#45;&gt;Node11 -->
<g id="edge11" class="edge"><title>Node12&#45;&gt;Node11</title>
<path fill="none" stroke="#9a32cd" stroke-dasharray="5,2" d="M432.179,-204.862C454.543,-208.529 483.016,-213.743 508,-220 525.243,-224.318 544.244,-230.38 559.175,-235.453"/>
<polygon fill="#9a32cd" stroke="#9a32cd" points="432.48,-201.365 422.051,-203.237 431.371,-208.277 432.48,-201.365"/>
<text text-anchor="middle" x="474" y="-223" font-family="Helvetica,sans-Serif" font-size="10.00"> aabb_local</text>
</g>
<!-- Node13 -->
<g id="node13" class="node"><title>Node13</title>
<g id="a_node13"><a xlink:href="a00054.html" target="_top" xlink:title="request to the distance computation ">
<polygon fill="white" stroke="black" points="705.5,-273.5 705.5,-292.5 814.5,-292.5 814.5,-273.5 705.5,-273.5"/>
<text text-anchor="middle" x="760" y="-280.5" font-family="Helvetica,sans-Serif" font-size="10.00">fcl::DistanceRequest</text>
</a>
</g>
</g>
<!-- Node13&#45;&gt;Node4 -->
<g id="edge14" class="edge"><title>Node13&#45;&gt;Node4</title>
<path fill="none" stroke="#9a32cd" stroke-dasharray="5,2" d="M824.817,-282.595C848.471,-282.913 875.495,-283.831 900,-286 914.115,-287.249 929.303,-289.294 943.34,-291.477"/>
<polygon fill="#9a32cd" stroke="#9a32cd" points="824.592,-279.092 814.557,-282.491 824.521,-286.092 824.592,-279.092"/>
<text text-anchor="middle" x="869" y="-289" font-family="Helvetica,sans-Serif" font-size="10.00"> request</text>
</g>
<!-- Node14&#45;&gt;Node3 -->
<g id="edge15" class="edge"><title>Node14&#45;&gt;Node3</title>
<path fill="none" stroke="#9a32cd" stroke-dasharray="5,2" d="M1067.1,-207C1098.28,-207 1134.95,-207 1165.79,-207"/>
<polygon fill="#9a32cd" stroke="#9a32cd" points="1066.75,-203.5 1056.75,-207 1066.75,-210.5 1066.75,-203.5"/>
<text text-anchor="middle" x="1121" y="-221" font-family="Helvetica,sans-Serif" font-size="10.00"> model1</text>
<text text-anchor="middle" x="1121" y="-210" font-family="Helvetica,sans-Serif" font-size="10.00">model2</text>
</g>
<!-- Node15 -->
<g id="node15" class="node"><title>Node15</title>
<polygon fill="white" stroke="#bfbfbf" points="724.5,-197.5 724.5,-216.5 795.5,-216.5 795.5,-197.5 724.5,-197.5"/>
<text text-anchor="middle" x="760" y="-204.5" font-family="Helvetica,sans-Serif" font-size="10.00">noncopyable</text>
</g>
<!-- Node15&#45;&gt;Node14 -->
<g id="edge17" class="edge"><title>Node15&#45;&gt;Node14</title>
<path fill="none" stroke="#8b1a1a" d="M805.764,-207C843.141,-207 896.704,-207 937.476,-207"/>
<polygon fill="#8b1a1a" stroke="#8b1a1a" points="805.675,-203.5 795.675,-207 805.675,-210.5 805.675,-203.5"/>
</g>
<!-- Node16 -->
<g id="node16" class="node"><title>Node16</title>
<g id="a_node16"><a xlink:href="a00245.html" target="_top" xlink:title="Triangle with 3 indices for points. ">
<polygon fill="white" stroke="black" points="726,-145.5 726,-164.5 794,-164.5 794,-145.5 726,-145.5"/>
<text text-anchor="middle" x="760" y="-152.5" font-family="Helvetica,sans-Serif" font-size="10.00">fcl::Triangle</text>
</a>
</g>
</g>
<!-- Node16&#45;&gt;Node2 -->
<g id="edge22" class="edge"><title>Node16&#45;&gt;Node2</title>
<path fill="none" stroke="#9a32cd" stroke-dasharray="5,2" d="M794.22,-141.957C807.607,-137.3 823.328,-132.572 838,-130 1049.12,-92.9855 1105.83,-122.535 1320,-114 1325.97,-113.762 1332.18,-113.501 1338.4,-113.229"/>
<polygon fill="#9a32cd" stroke="#9a32cd" points="792.711,-138.78 784.494,-145.468 795.088,-145.364 792.711,-138.78"/>
<text text-anchor="middle" x="1121" y="-128" font-family="Helvetica,sans-Serif" font-size="10.00"> tri_indices1</text>
<text text-anchor="middle" x="1121" y="-117" font-family="Helvetica,sans-Serif" font-size="10.00">tri_indices2</text>
</g>
<!-- Node16&#45;&gt;Node14 -->
<g id="edge18" class="edge"><title>Node16&#45;&gt;Node14</title>
<path fill="none" stroke="#9a32cd" stroke-dasharray="5,2" d="M804.178,-164.554C846.535,-173.927 910.749,-188.136 953.033,-197.492"/>
<polygon fill="#9a32cd" stroke="#9a32cd" points="804.691,-161.083 794.171,-162.34 803.179,-167.918 804.691,-161.083"/>
<text text-anchor="middle" x="869" y="-189" font-family="Helvetica,sans-Serif" font-size="10.00"> tri_indices</text>
</g>
<!-- Node17 -->
<g id="node17" class="node"><title>Node17</title>
<g id="a_node17"><a xlink:href="a00069.html" target="_top" xlink:title="Vector3 class wrapper. The core data is in the template parameter class. ">
<polygon fill="white" stroke="black" points="707,-89 707,-119 813,-119 813,-89 707,-89"/>
<text text-anchor="start" x="715" y="-107" font-family="Helvetica,sans-Serif" font-size="10.00">Eigen::FclMatrix&lt; T,</text>
<text text-anchor="middle" x="760" y="-96" font-family="Helvetica,sans-Serif" font-size="10.00"> Cols, _Options &gt;</text>
</a>
</g>
</g>
<!-- Node17&#45;&gt;Node2 -->
<g id="edge23" class="edge"><title>Node17&#45;&gt;Node2</title>
<path fill="none" stroke="#9a32cd" stroke-dasharray="5,2" d="M823.682,-97.5064C900.22,-90.4036 1033.62,-80.6914 1148,-86 1212.82,-89.0084 1286.51,-96.2467 1338.49,-101.993"/>
<polygon fill="#9a32cd" stroke="#9a32cd" points="822.894,-94.0651 813.267,-98.4894 823.552,-101.034 822.894,-94.0651"/>
<text text-anchor="middle" x="1121" y="-100" font-family="Helvetica,sans-Serif" font-size="10.00"> vertices1</text>
<text text-anchor="middle" x="1121" y="-89" font-family="Helvetica,sans-Serif" font-size="10.00">vertices2</text>
</g>
<!-- Node17&#45;&gt;Node14 -->
<g id="edge19" class="edge"><title>Node17&#45;&gt;Node14</title>
<path fill="none" stroke="#9a32cd" stroke-dasharray="5,2" d="M823.172,-120.144C847.622,-127.399 875.62,-136.853 900,-148 931.135,-162.235 964.563,-184.579 982.6,-197.293"/>
<polygon fill="#9a32cd" stroke="#9a32cd" points="823.867,-116.701 813.287,-117.272 821.914,-123.423 823.867,-116.701"/>
<text text-anchor="middle" x="869" y="-162" font-family="Helvetica,sans-Serif" font-size="10.00"> prev_vertices</text>
<text text-anchor="middle" x="869" y="-151" font-family="Helvetica,sans-Serif" font-size="10.00">vertices</text>
</g>
<!-- Node18 -->
<g id="node18" class="node"><title>Node18</title>
<polygon fill="white" stroke="#bfbfbf" points="535,-135 535,-165 639,-165 639,-135 535,-135"/>
<text text-anchor="start" x="543" y="-153" font-family="Helvetica,sans-Serif" font-size="10.00">Eigen::Matrix&lt; T, 3,</text>
<text text-anchor="middle" x="587" y="-142" font-family="Helvetica,sans-Serif" font-size="10.00"> Cols, _Options &gt;</text>
</g>
<!-- Node18&#45;&gt;Node17 -->
<g id="edge20" class="edge"><title>Node18&#45;&gt;Node17</title>
<path fill="none" stroke="midnightblue" d="M649.015,-133.587C667.929,-128.499 688.588,-122.941 706.843,-118.03"/>
<polygon fill="midnightblue" stroke="midnightblue" points="648.053,-130.221 639.306,-136.198 649.872,-136.981 648.053,-130.221"/>
</g>
<!-- Node19 -->
<g id="node19" class="node"><title>Node19</title>
<g id="a_node19"><a xlink:href="a00073.html" target="_top" xlink:title="fcl::FclType\&lt; FclMatrix\l\&lt; T, Cols, _Options \&gt; \&gt;">
<polygon fill="white" stroke="black" points="526.5,-86 526.5,-116 647.5,-116 647.5,-86 526.5,-86"/>
<text text-anchor="start" x="534.5" y="-104" font-family="Helvetica,sans-Serif" font-size="10.00">fcl::FclType&lt; FclMatrix</text>
<text text-anchor="middle" x="587" y="-93" font-family="Helvetica,sans-Serif" font-size="10.00">&lt; T, Cols, _Options &gt; &gt;</text>
</a>
</g>
</g>
<!-- Node19&#45;&gt;Node17 -->
<g id="edge21" class="edge"><title>Node19&#45;&gt;Node17</title>
<path fill="none" stroke="midnightblue" d="M657.887,-102.226C674.276,-102.514 691.457,-102.815 706.911,-103.086"/>
<polygon fill="midnightblue" stroke="midnightblue" points="657.867,-98.7253 647.808,-102.049 657.745,-105.724 657.867,-98.7253"/>
</g>
<!-- Node20&#45;&gt;Node1 -->
<g id="edge25" class="edge"><title>Node20&#45;&gt;Node1</title>
<path fill="none" stroke="#9a32cd" stroke-dasharray="5,2" d="M308.221,-15.1115C334.032,-11.7911 363.814,-9 391,-9 391,-9 391,-9 1408,-9 1453.14,-9 1503.39,-21.3597 1538.24,-31.9814"/>
<polygon fill="#9a32cd" stroke="#9a32cd" points="307.615,-11.6613 298.167,-16.4564 308.543,-18.5995 307.615,-11.6613"/>
<text text-anchor="middle" x="869" y="-12" font-family="Helvetica,sans-Serif" font-size="10.00"> R</text>
</g>
<!-- Node21 -->
<g id="node21" class="node"><title>Node21</title>
<polygon fill="white" stroke="#bfbfbf" points="9,-0 9,-52 135,-52 135,-0 9,-0"/>
<text text-anchor="start" x="17" y="-40" font-family="Helvetica,sans-Serif" font-size="10.00">Matrix&lt; FCL_REAL, 3,</text>
<text text-anchor="start" x="17" y="-29" font-family="Helvetica,sans-Serif" font-size="10.00"> Cols, internal::traits</text>
<text text-anchor="start" x="17" y="-18" font-family="Helvetica,sans-Serif" font-size="10.00">&lt; Matrix&lt; FCL_REAL, 3,</text>
<text text-anchor="middle" x="72" y="-7" font-family="Helvetica,sans-Serif" font-size="10.00"> Cols &gt; &gt;::Options &gt;</text>
</g>
<!-- Node21&#45;&gt;Node20 -->
<g id="edge26" class="edge"><title>Node21&#45;&gt;Node20</title>
<path fill="none" stroke="midnightblue" d="M145.427,-26C157.615,-26 170.113,-26 181.845,-26"/>
<polygon fill="midnightblue" stroke="midnightblue" points="145.285,-22.5001 135.285,-26 145.285,-29.5001 145.285,-22.5001"/>
</g>
</g>
</svg>
