<?xml version="1.0" encoding="UTF-8" standalone="no"?>
<!DOCTYPE svg PUBLIC "-//W3C//DTD SVG 1.1//EN"
 "http://www.w3.org/Graphics/SVG/1.1/DTD/svg11.dtd">
<!-- Generated by graphviz version 2.36.0 (20140111.2315)
 -->
<!-- Title: fcl::kIOS Pages: 1 -->
<svg width="624pt" height="131pt"
 viewBox="0.00 0.00 624.00 131.00" xmlns="http://www.w3.org/2000/svg" xmlns:xlink="http://www.w3.org/1999/xlink">
<g id="graph0" class="graph" transform="scale(1 1) rotate(0) translate(4 127)">
<title>fcl::kIOS</title>
<polygon fill="white" stroke="none" points="-4,4 -4,-127 620,-127 620,4 -4,4"/>
<!-- Node1 -->
<g id="node1" class="node"><title>Node1</title>
<polygon fill="#bfbfbf" stroke="black" points="560,-52.5 560,-71.5 616,-71.5 616,-52.5 560,-52.5"/>
<text text-anchor="middle" x="588" y="-59.5" font-family="Helvetica,sans-Serif" font-size="10.00">fcl::kIOS</text>
</g>
<!-- Node2 -->
<g id="node2" class="node"><title>Node2</title>
<g id="a_node2"><a xlink:href="a00154.html" target="_top" xlink:title="Oriented bounding box class. ">
<polygon fill="white" stroke="black" points="399,-71.5 399,-90.5 453,-90.5 453,-71.5 399,-71.5"/>
<text text-anchor="middle" x="426" y="-78.5" font-family="Helvetica,sans-Serif" font-size="10.00">fcl::OBB</text>
</a>
</g>
</g>
<!-- Node2&#45;&gt;Node1 -->
<g id="edge1" class="edge"><title>Node2&#45;&gt;Node1</title>
<path fill="none" stroke="#9a32cd" stroke-dasharray="5,2" d="M463.315,-76.6876C492.659,-73.203 533.313,-68.3753 559.878,-65.2207"/>
<polygon fill="#9a32cd" stroke="#9a32cd" points="462.58,-73.2502 453.063,-77.905 463.406,-80.2013 462.58,-73.2502"/>
<text text-anchor="middle" x="523" y="-74" font-family="Helvetica,sans-Serif" font-size="10.00"> obb</text>
</g>
<!-- Node3 -->
<g id="node3" class="node"><title>Node3</title>
<g id="a_node3"><a xlink:href="a00069.html" target="_top" xlink:title="Eigen::FclMatrix\&lt; FCL\l_REAL, 1 \&gt;">
<polygon fill="white" stroke="black" points="182,-46 182,-76 298,-76 298,-46 182,-46"/>
<text text-anchor="start" x="190" y="-64" font-family="Helvetica,sans-Serif" font-size="10.00">Eigen::FclMatrix&lt; FCL</text>
<text text-anchor="middle" x="240" y="-53" font-family="Helvetica,sans-Serif" font-size="10.00">_REAL, 1 &gt;</text>
</a>
</g>
</g>
<!-- Node3&#45;&gt;Node2 -->
<g id="edge2" class="edge"><title>Node3&#45;&gt;Node2</title>
<path fill="none" stroke="#9a32cd" stroke-dasharray="5,2" d="M308.225,-68.3071C339.583,-71.7156 375.091,-75.5751 398.634,-78.1342"/>
<polygon fill="#9a32cd" stroke="#9a32cd" points="308.53,-64.8197 298.21,-67.2185 307.773,-71.7787 308.53,-64.8197"/>
<text text-anchor="middle" x="332" y="-97" font-family="Helvetica,sans-Serif" font-size="10.00"> extent</text>
<text text-anchor="middle" x="332" y="-86" font-family="Helvetica,sans-Serif" font-size="10.00">To</text>
<text text-anchor="middle" x="332" y="-75" font-family="Helvetica,sans-Serif" font-size="10.00">axis</text>
</g>
<!-- Node6 -->
<g id="node6" class="node"><title>Node6</title>
<g id="a_node6"><a xlink:title="One sphere in kIOS. ">
<polygon fill="white" stroke="#bfbfbf" points="366,-33.5 366,-52.5 486,-52.5 486,-33.5 366,-33.5"/>
<text text-anchor="middle" x="426" y="-40.5" font-family="Helvetica,sans-Serif" font-size="10.00">fcl::kIOS::kIOS_Sphere</text>
</a>
</g>
</g>
<!-- Node3&#45;&gt;Node6 -->
<g id="edge6" class="edge"><title>Node3&#45;&gt;Node6</title>
<path fill="none" stroke="#9a32cd" stroke-dasharray="5,2" d="M308.289,-47.9478C310.889,-47.5998 313.466,-47.2815 316,-47 332.092,-45.2128 349.593,-44.1732 365.768,-43.5812"/>
<polygon fill="#9a32cd" stroke="#9a32cd" points="307.586,-44.5132 298.198,-49.4222 308.598,-51.4397 307.586,-44.5132"/>
<text text-anchor="middle" x="332" y="-50" font-family="Helvetica,sans-Serif" font-size="10.00"> o</text>
</g>
<!-- Node4 -->
<g id="node4" class="node"><title>Node4</title>
<polygon fill="white" stroke="#bfbfbf" points="6.5,-71 6.5,-123 137.5,-123 137.5,-71 6.5,-71"/>
<text text-anchor="start" x="14.5" y="-111" font-family="Helvetica,sans-Serif" font-size="10.00">Matrix&lt; FCL_REAL ,</text>
<text text-anchor="start" x="14.5" y="-100" font-family="Helvetica,sans-Serif" font-size="10.00"> 3, Cols, internal::</text>
<text text-anchor="start" x="14.5" y="-89" font-family="Helvetica,sans-Serif" font-size="10.00">traits&lt;Matrix &lt;FCL_REAL</text>
<text text-anchor="middle" x="72" y="-78" font-family="Helvetica,sans-Serif" font-size="10.00"> , 3, Cols&gt; &gt;::Options &gt;</text>
</g>
<!-- Node4&#45;&gt;Node3 -->
<g id="edge3" class="edge"><title>Node4&#45;&gt;Node3</title>
<path fill="none" stroke="midnightblue" d="M147.655,-80.8097C159.123,-78.3228 170.805,-75.7893 181.814,-73.4018"/>
<polygon fill="midnightblue" stroke="midnightblue" points="146.686,-77.4384 137.655,-82.9784 148.17,-84.2794 146.686,-77.4384"/>
</g>
<!-- Node5 -->
<g id="node5" class="node"><title>Node5</title>
<g id="a_node5"><a xlink:href="a00073.html" target="_top" xlink:title="fcl::FclType\&lt; FclMatrix\l\&lt; FCL_REAL, Cols, internal\l::traits\&lt; Matrix\&lt; FCL_REAL,\l 3, Cols \&gt; \&gt;::Options \&gt; \&gt;">
<polygon fill="white" stroke="black" points="0.5,-0 0.5,-52 143.5,-52 143.5,-0 0.5,-0"/>
<text text-anchor="start" x="8.5" y="-40" font-family="Helvetica,sans-Serif" font-size="10.00">fcl::FclType&lt; FclMatrix</text>
<text text-anchor="start" x="8.5" y="-29" font-family="Helvetica,sans-Serif" font-size="10.00">&lt; FCL_REAL, Cols, internal</text>
<text text-anchor="start" x="8.5" y="-18" font-family="Helvetica,sans-Serif" font-size="10.00">::traits&lt; Matrix&lt; FCL_REAL,</text>
<text text-anchor="middle" x="72" y="-7" font-family="Helvetica,sans-Serif" font-size="10.00"> 3, Cols &gt; &gt;::Options &gt; &gt;</text>
</a>
</g>
</g>
<!-- Node5&#45;&gt;Node3 -->
<g id="edge4" class="edge"><title>Node5&#45;&gt;Node3</title>
<path fill="none" stroke="midnightblue" d="M153.751,-43.0258C163.257,-45.03 172.802,-47.0425 181.887,-48.958"/>
<polygon fill="midnightblue" stroke="midnightblue" points="154.387,-39.5831 143.88,-40.9447 152.943,-46.4325 154.387,-39.5831"/>
</g>
<!-- Node6&#45;&gt;Node1 -->
<g id="edge5" class="edge"><title>Node6&#45;&gt;Node1</title>
<path fill="none" stroke="#9a32cd" stroke-dasharray="5,2" d="M496.542,-46.8598C511.578,-48.1356 527.356,-49.8109 542,-52 547.857,-52.8756 554.088,-54.0805 559.988,-55.3513"/>
<polygon fill="#9a32cd" stroke="#9a32cd" points="496.522,-43.3472 486.275,-46.0391 495.964,-50.3249 496.522,-43.3472"/>
<text text-anchor="middle" x="523" y="-55" font-family="Helvetica,sans-Serif" font-size="10.00"> spheres</text>
</g>
</g>
</svg>
