<?xml version="1.0" encoding="UTF-8" standalone="no"?>
<!DOCTYPE svg PUBLIC "-//W3C//DTD SVG 1.1//EN"
 "http://www.w3.org/Graphics/SVG/1.1/DTD/svg11.dtd">
<!-- Generated by graphviz version 2.36.0 (20140111.2315)
 -->
<!-- Title: fcl::MeshCollisionTraversalNodekIOS Pages: 1 -->
<svg width="1584pt" height="375pt"
 viewBox="0.00 0.00 1584.00 375.00" xmlns="http://www.w3.org/2000/svg" xmlns:xlink="http://www.w3.org/1999/xlink">
<g id="graph0" class="graph" transform="scale(1 1) rotate(0) translate(4 371)">
<title>fcl::MeshCollisionTraversalNodekIOS</title>
<polygon fill="white" stroke="none" points="-4,4 -4,-371 1580,-371 1580,4 -4,4"/>
<!-- Node1 -->
<g id="node1" class="node"><title>Node1</title>
<polygon fill="#bfbfbf" stroke="black" points="1440.5,-32 1440.5,-62 1575.5,-62 1575.5,-32 1440.5,-32"/>
<text text-anchor="start" x="1448.5" y="-50" font-family="Helvetica,sans-Serif" font-size="10.00">fcl::MeshCollisionTraversal</text>
<text text-anchor="middle" x="1508" y="-39" font-family="Helvetica,sans-Serif" font-size="10.00">NodekIOS</text>
</g>
<!-- Node2 -->
<g id="node2" class="node"><title>Node2</title>
<g id="a_node2"><a xlink:href="a00109.html" target="_top" xlink:title="fcl::MeshCollisionTraversal\lNode\&lt; kIOS \&gt;">
<polygon fill="white" stroke="black" points="1266.5,-96 1266.5,-126 1401.5,-126 1401.5,-96 1266.5,-96"/>
<text text-anchor="start" x="1274.5" y="-114" font-family="Helvetica,sans-Serif" font-size="10.00">fcl::MeshCollisionTraversal</text>
<text text-anchor="middle" x="1334" y="-103" font-family="Helvetica,sans-Serif" font-size="10.00">Node&lt; kIOS &gt;</text>
</a>
</g>
</g>
<!-- Node2&#45;&gt;Node1 -->
<g id="edge1" class="edge"><title>Node2&#45;&gt;Node1</title>
<path fill="none" stroke="midnightblue" d="M1384.99,-92.4006C1410.94,-82.7438 1442.23,-71.0998 1466.63,-62.0219"/>
<polygon fill="midnightblue" stroke="midnightblue" points="1383.48,-89.2272 1375.33,-95.9948 1385.92,-95.7877 1383.48,-89.2272"/>
</g>
<!-- Node3 -->
<g id="node3" class="node"><title>Node3</title>
<g id="a_node3"><a xlink:href="a00018.html" target="_top" xlink:title="fcl::BVHCollisionTraversal\lNode\&lt; kIOS \&gt;">
<polygon fill="white" stroke="black" points="1096,-207 1096,-237 1228,-237 1228,-207 1096,-207"/>
<text text-anchor="start" x="1104" y="-225" font-family="Helvetica,sans-Serif" font-size="10.00">fcl::BVHCollisionTraversal</text>
<text text-anchor="middle" x="1162" y="-214" font-family="Helvetica,sans-Serif" font-size="10.00">Node&lt; kIOS &gt;</text>
</a>
</g>
</g>
<!-- Node3&#45;&gt;Node2 -->
<g id="edge2" class="edge"><title>Node3&#45;&gt;Node2</title>
<path fill="none" stroke="midnightblue" d="M1194.79,-201.241C1228.3,-179.364 1280.25,-145.439 1310,-126.018"/>
<polygon fill="midnightblue" stroke="midnightblue" points="1192.74,-198.401 1186.28,-206.799 1196.57,-204.262 1192.74,-198.401"/>
</g>
<!-- Node4 -->
<g id="node4" class="node"><title>Node4</title>
<g id="a_node4"><a xlink:href="a00036.html" target="_top" xlink:title="Node structure encoding the information required for collision traversal. ">
<polygon fill="white" stroke="black" points="628.5,-292.5 628.5,-311.5 785.5,-311.5 785.5,-292.5 628.5,-292.5"/>
<text text-anchor="middle" x="707" y="-299.5" font-family="Helvetica,sans-Serif" font-size="10.00">fcl::CollisionTraversalNodeBase</text>
</a>
</g>
</g>
<!-- Node4&#45;&gt;Node3 -->
<g id="edge3" class="edge"><title>Node4&#45;&gt;Node3</title>
<path fill="none" stroke="midnightblue" d="M795.946,-293.143C871.371,-284.602 982.643,-269.749 1078,-248 1090.96,-245.045 1104.81,-241.049 1117.42,-237.078"/>
<polygon fill="midnightblue" stroke="midnightblue" points="795.095,-289.716 785.546,-294.306 795.873,-296.673 795.095,-289.716"/>
</g>
<!-- Node5 -->
<g id="node5" class="node"><title>Node5</title>
<g id="a_node5"><a xlink:href="a00244.html" target="_top" xlink:title="Node structure encoding the information required for traversal. ">
<polygon fill="white" stroke="black" points="421.5,-335.5 421.5,-354.5 540.5,-354.5 540.5,-335.5 421.5,-335.5"/>
<text text-anchor="middle" x="481" y="-342.5" font-family="Helvetica,sans-Serif" font-size="10.00">fcl::TraversalNodeBase</text>
</a>
</g>
</g>
<!-- Node5&#45;&gt;Node4 -->
<g id="edge4" class="edge"><title>Node5&#45;&gt;Node4</title>
<path fill="none" stroke="midnightblue" d="M541.563,-333.566C577.415,-326.684 622.526,-318.024 656.426,-311.516"/>
<polygon fill="midnightblue" stroke="midnightblue" points="540.874,-330.134 531.713,-335.457 542.193,-337.009 540.874,-330.134"/>
</g>
<!-- Node6 -->
<g id="node6" class="node"><title>Node6</title>
<g id="a_node6"><a xlink:href="a00242.html" target="_top" xlink:title="Simple transform class used locally by InterpMotion. ">
<polygon fill="white" stroke="black" points="197,-335.5 197,-354.5 283,-354.5 283,-335.5 197,-335.5"/>
<text text-anchor="middle" x="240" y="-342.5" font-family="Helvetica,sans-Serif" font-size="10.00">fcl::Transform3f</text>
</a>
</g>
</g>
<!-- Node6&#45;&gt;Node5 -->
<g id="edge5" class="edge"><title>Node6&#45;&gt;Node5</title>
<path fill="none" stroke="#9a32cd" stroke-dasharray="5,2" d="M293.45,-345C331.184,-345 382.104,-345 421.211,-345"/>
<polygon fill="#9a32cd" stroke="#9a32cd" points="293.178,-341.5 283.178,-345 293.178,-348.5 293.178,-341.5"/>
<text text-anchor="middle" x="359" y="-359" font-family="Helvetica,sans-Serif" font-size="10.00"> tf1</text>
<text text-anchor="middle" x="359" y="-348" font-family="Helvetica,sans-Serif" font-size="10.00">tf2</text>
</g>
<!-- Node7 -->
<g id="node7" class="node"><title>Node7</title>
<g id="a_node7"><a xlink:href="a00034.html" target="_top" xlink:title="request to the collision algorithm ">
<polygon fill="white" stroke="black" points="427.5,-297.5 427.5,-316.5 534.5,-316.5 534.5,-297.5 427.5,-297.5"/>
<text text-anchor="middle" x="481" y="-304.5" font-family="Helvetica,sans-Serif" font-size="10.00">fcl::CollisionRequest</text>
</a>
</g>
</g>
<!-- Node7&#45;&gt;Node4 -->
<g id="edge6" class="edge"><title>Node7&#45;&gt;Node4</title>
<path fill="none" stroke="#9a32cd" stroke-dasharray="5,2" d="M544.607,-305.603C570.572,-305.023 600.967,-304.344 628.333,-303.734"/>
<polygon fill="#9a32cd" stroke="#9a32cd" points="544.437,-302.105 534.518,-305.828 544.594,-309.104 544.437,-302.105"/>
<text text-anchor="middle" x="585" y="-308" font-family="Helvetica,sans-Serif" font-size="10.00"> request</text>
</g>
<!-- Node8 -->
<g id="node8" class="node"><title>Node8</title>
<g id="a_node8"><a xlink:href="a00069.html" target="_top" xlink:title="Eigen::FclMatrix\&lt; FCL\l_REAL, 1 \&gt;">
<polygon fill="white" stroke="black" points="182,-192 182,-222 298,-222 298,-192 182,-192"/>
<text text-anchor="start" x="190" y="-210" font-family="Helvetica,sans-Serif" font-size="10.00">Eigen::FclMatrix&lt; FCL</text>
<text text-anchor="middle" x="240" y="-199" font-family="Helvetica,sans-Serif" font-size="10.00">_REAL, 1 &gt;</text>
</a>
</g>
</g>
<!-- Node8&#45;&gt;Node1 -->
<g id="edge24" class="edge"><title>Node8&#45;&gt;Node1</title>
<path fill="none" stroke="#9a32cd" stroke-dasharray="5,2" d="M258.693,-184.033C294.983,-139.774 382.663,-47 480,-47 480,-47 480,-47 1335,-47 1369.79,-47 1408.53,-47 1440.43,-47"/>
<polygon fill="#9a32cd" stroke="#9a32cd" points="255.867,-181.961 252.328,-191.948 261.322,-186.348 255.867,-181.961"/>
<text text-anchor="middle" x="945" y="-50" font-family="Helvetica,sans-Serif" font-size="10.00"> T</text>
</g>
<!-- Node8&#45;&gt;Node7 -->
<g id="edge7" class="edge"><title>Node8&#45;&gt;Node7</title>
<path fill="none" stroke="#9a32cd" stroke-dasharray="5,2" d="M259.709,-229.931C273.608,-245.388 293.917,-264.913 316,-276 350.701,-293.422 394.008,-301.098 427.404,-304.459"/>
<polygon fill="#9a32cd" stroke="#9a32cd" points="262.257,-227.527 253.049,-222.285 256.978,-232.124 262.257,-227.527"/>
<text text-anchor="middle" x="359" y="-303" font-family="Helvetica,sans-Serif" font-size="10.00"> cached_gjk_guess</text>
</g>
<!-- Node11 -->
<g id="node11" class="node"><title>Node11</title>
<g id="a_node11"><a xlink:href="a00035.html" target="_top" xlink:title="collision result ">
<polygon fill="white" stroke="black" points="431.5,-259.5 431.5,-278.5 530.5,-278.5 530.5,-259.5 431.5,-259.5"/>
<text text-anchor="middle" x="481" y="-266.5" font-family="Helvetica,sans-Serif" font-size="10.00">fcl::CollisionResult</text>
</a>
</g>
</g>
<!-- Node8&#45;&gt;Node11 -->
<g id="edge11" class="edge"><title>Node8&#45;&gt;Node11</title>
<path fill="none" stroke="#9a32cd" stroke-dasharray="5,2" d="M275.625,-226.849C288.02,-233.201 302.315,-239.695 316,-244 353.776,-255.884 398.284,-262.214 431.395,-265.528"/>
<polygon fill="#9a32cd" stroke="#9a32cd" points="277.036,-223.635 266.559,-222.058 273.765,-229.824 277.036,-223.635"/>
<text text-anchor="middle" x="359" y="-264" font-family="Helvetica,sans-Serif" font-size="10.00"> cached_gjk_guess</text>
</g>
<!-- Node13 -->
<g id="node13" class="node"><title>Node13</title>
<g id="a_node13"><a xlink:href="a00032.html" target="_top" xlink:title="The geometry for the object for collision or distance computation. ">
<polygon fill="white" stroke="black" points="650.5,-250.5 650.5,-269.5 763.5,-269.5 763.5,-250.5 650.5,-250.5"/>
<text text-anchor="middle" x="707" y="-257.5" font-family="Helvetica,sans-Serif" font-size="10.00">fcl::CollisionGeometry</text>
</a>
</g>
</g>
<!-- Node8&#45;&gt;Node13 -->
<g id="edge16" class="edge"><title>Node8&#45;&gt;Node13</title>
<path fill="none" stroke="#9a32cd" stroke-dasharray="5,2" d="M308.354,-215.141C310.935,-215.435 313.491,-215.722 316,-216 416.348,-227.126 441.697,-227.476 542,-239 578.074,-243.145 618.542,-248.321 650.252,-252.497"/>
<polygon fill="#9a32cd" stroke="#9a32cd" points="308.65,-211.652 298.316,-213.986 307.85,-218.606 308.65,-211.652"/>
<text text-anchor="middle" x="481" y="-243" font-family="Helvetica,sans-Serif" font-size="10.00"> aabb_center</text>
</g>
<!-- Node14 -->
<g id="node14" class="node"><title>Node14</title>
<g id="a_node14"><a xlink:href="a00003.html" target="_top" xlink:title="A class describing the AABB collision structure, which is a box in 3D space determined by two diagona...">
<polygon fill="white" stroke="black" points="451,-174.5 451,-193.5 511,-193.5 511,-174.5 451,-174.5"/>
<text text-anchor="middle" x="481" y="-181.5" font-family="Helvetica,sans-Serif" font-size="10.00">fcl::AABB</text>
</a>
</g>
</g>
<!-- Node8&#45;&gt;Node14 -->
<g id="edge15" class="edge"><title>Node8&#45;&gt;Node14</title>
<path fill="none" stroke="#9a32cd" stroke-dasharray="5,2" d="M308.309,-194.967C310.902,-194.619 313.473,-194.295 316,-194 363.032,-188.507 418.027,-185.933 450.882,-184.802"/>
<polygon fill="#9a32cd" stroke="#9a32cd" points="307.636,-191.527 298.233,-196.408 308.628,-198.457 307.636,-191.527"/>
<text text-anchor="middle" x="359" y="-208" font-family="Helvetica,sans-Serif" font-size="10.00"> max_</text>
<text text-anchor="middle" x="359" y="-197" font-family="Helvetica,sans-Serif" font-size="10.00">min_</text>
</g>
<!-- Node9 -->
<g id="node9" class="node"><title>Node9</title>
<polygon fill="white" stroke="#bfbfbf" points="6.5,-181 6.5,-233 137.5,-233 137.5,-181 6.5,-181"/>
<text text-anchor="start" x="14.5" y="-221" font-family="Helvetica,sans-Serif" font-size="10.00">Matrix&lt; FCL_REAL ,</text>
<text text-anchor="start" x="14.5" y="-210" font-family="Helvetica,sans-Serif" font-size="10.00"> 3, Cols, internal::</text>
<text text-anchor="start" x="14.5" y="-199" font-family="Helvetica,sans-Serif" font-size="10.00">traits&lt;Matrix &lt;FCL_REAL</text>
<text text-anchor="middle" x="72" y="-188" font-family="Helvetica,sans-Serif" font-size="10.00"> , 3, Cols&gt; &gt;::Options &gt;</text>
</g>
<!-- Node9&#45;&gt;Node8 -->
<g id="edge8" class="edge"><title>Node9&#45;&gt;Node8</title>
<path fill="none" stroke="midnightblue" d="M148.003,-207C159.359,-207 170.916,-207 181.814,-207"/>
<polygon fill="midnightblue" stroke="midnightblue" points="147.655,-203.5 137.655,-207 147.655,-210.5 147.655,-203.5"/>
</g>
<!-- Node10 -->
<g id="node10" class="node"><title>Node10</title>
<g id="a_node10"><a xlink:href="a00073.html" target="_top" xlink:title="fcl::FclType\&lt; FclMatrix\l\&lt; FCL_REAL, Cols, internal\l::traits\&lt; Matrix\&lt; FCL_REAL,\l 3, Cols \&gt; \&gt;::Options \&gt; \&gt;">
<polygon fill="white" stroke="black" points="0.5,-97 0.5,-149 143.5,-149 143.5,-97 0.5,-97"/>
<text text-anchor="start" x="8.5" y="-137" font-family="Helvetica,sans-Serif" font-size="10.00">fcl::FclType&lt; FclMatrix</text>
<text text-anchor="start" x="8.5" y="-126" font-family="Helvetica,sans-Serif" font-size="10.00">&lt; FCL_REAL, Cols, internal</text>
<text text-anchor="start" x="8.5" y="-115" font-family="Helvetica,sans-Serif" font-size="10.00">::traits&lt; Matrix&lt; FCL_REAL,</text>
<text text-anchor="middle" x="72" y="-104" font-family="Helvetica,sans-Serif" font-size="10.00"> 3, Cols &gt; &gt;::Options &gt; &gt;</text>
</a>
</g>
</g>
<!-- Node10&#45;&gt;Node8 -->
<g id="edge9" class="edge"><title>Node10&#45;&gt;Node8</title>
<path fill="none" stroke="midnightblue" d="M133.573,-153.651C159.319,-166.68 188.178,-181.283 209.185,-191.913"/>
<polygon fill="midnightblue" stroke="midnightblue" points="135.116,-150.51 124.613,-149.118 131.956,-156.756 135.116,-150.51"/>
</g>
<!-- Node20 -->
<g id="node20" class="node"><title>Node20</title>
<g id="a_node20"><a xlink:href="a00069.html" target="_top" xlink:title="Eigen::FclMatrix\&lt; FCL\l_REAL, 3 \&gt;">
<polygon fill="white" stroke="black" points="182,-12 182,-42 298,-42 298,-12 182,-12"/>
<text text-anchor="start" x="190" y="-30" font-family="Helvetica,sans-Serif" font-size="10.00">Eigen::FclMatrix&lt; FCL</text>
<text text-anchor="middle" x="240" y="-19" font-family="Helvetica,sans-Serif" font-size="10.00">_REAL, 3 &gt;</text>
</a>
</g>
</g>
<!-- Node10&#45;&gt;Node20 -->
<g id="edge27" class="edge"><title>Node10&#45;&gt;Node20</title>
<path fill="none" stroke="midnightblue" d="M127.098,-91.7144C155.859,-75.0816 189.911,-55.389 212.834,-42.1321"/>
<polygon fill="midnightblue" stroke="midnightblue" points="125.265,-88.7314 118.36,-96.7676 128.769,-94.7911 125.265,-88.7314"/>
</g>
<!-- Node11&#45;&gt;Node4 -->
<g id="edge10" class="edge"><title>Node11&#45;&gt;Node4</title>
<path fill="none" stroke="#9a32cd" stroke-dasharray="5,2" d="M540.792,-277.661C571.684,-282.212 609.612,-287.8 641.332,-292.473"/>
<polygon fill="#9a32cd" stroke="#9a32cd" points="541.008,-274.155 530.605,-276.161 539.988,-281.081 541.008,-274.155"/>
<text text-anchor="middle" x="585" y="-290" font-family="Helvetica,sans-Serif" font-size="10.00"> result</text>
</g>
<!-- Node12 -->
<g id="node12" class="node"><title>Node12</title>
<g id="a_node12"><a xlink:href="a00022.html" target="_top" xlink:title="fcl::BVHModel\&lt; kIOS \&gt;">
<polygon fill="white" stroke="black" points="884.5,-212.5 884.5,-231.5 1005.5,-231.5 1005.5,-212.5 884.5,-212.5"/>
<text text-anchor="middle" x="945" y="-219.5" font-family="Helvetica,sans-Serif" font-size="10.00">fcl::BVHModel&lt; kIOS &gt;</text>
</a>
</g>
</g>
<!-- Node12&#45;&gt;Node3 -->
<g id="edge12" class="edge"><title>Node12&#45;&gt;Node3</title>
<path fill="none" stroke="#9a32cd" stroke-dasharray="5,2" d="M1015.69,-222C1041.49,-222 1070.63,-222 1096,-222"/>
<polygon fill="#9a32cd" stroke="#9a32cd" points="1015.6,-218.5 1005.6,-222 1015.6,-225.5 1015.6,-218.5"/>
<text text-anchor="middle" x="1051" y="-236" font-family="Helvetica,sans-Serif" font-size="10.00"> model1</text>
<text text-anchor="middle" x="1051" y="-225" font-family="Helvetica,sans-Serif" font-size="10.00">model2</text>
</g>
<!-- Node13&#45;&gt;Node12 -->
<g id="edge13" class="edge"><title>Node13&#45;&gt;Node12</title>
<path fill="none" stroke="midnightblue" d="M773.837,-250.403C802.219,-246.161 835.771,-241.008 866,-236 874.415,-234.606 883.33,-233.066 892.007,-231.532"/>
<polygon fill="midnightblue" stroke="midnightblue" points="773.006,-246.988 763.63,-251.922 774.036,-253.912 773.006,-246.988"/>
</g>
<!-- Node14&#45;&gt;Node13 -->
<g id="edge14" class="edge"><title>Node14&#45;&gt;Node13</title>
<path fill="none" stroke="#9a32cd" stroke-dasharray="5,2" d="M521.072,-181.507C548.435,-181.739 584.517,-186.229 610,-205 624.403,-215.609 614.012,-229.849 628,-241 634.539,-246.213 642.297,-250.026 650.345,-252.809"/>
<polygon fill="#9a32cd" stroke="#9a32cd" points="521.017,-178.008 511.052,-181.606 521.086,-185.007 521.017,-178.008"/>
<text text-anchor="middle" x="585" y="-208" font-family="Helvetica,sans-Serif" font-size="10.00"> aabb_local</text>
</g>
<!-- Node15 -->
<g id="node15" class="node"><title>Node15</title>
<polygon fill="white" stroke="#bfbfbf" points="671.5,-212.5 671.5,-231.5 742.5,-231.5 742.5,-212.5 671.5,-212.5"/>
<text text-anchor="middle" x="707" y="-219.5" font-family="Helvetica,sans-Serif" font-size="10.00">noncopyable</text>
</g>
<!-- Node15&#45;&gt;Node12 -->
<g id="edge17" class="edge"><title>Node15&#45;&gt;Node12</title>
<path fill="none" stroke="#8b1a1a" d="M752.618,-222C789.847,-222 843.237,-222 884.172,-222"/>
<polygon fill="#8b1a1a" stroke="#8b1a1a" points="752.569,-218.5 742.569,-222 752.569,-225.5 752.569,-218.5"/>
</g>
<!-- Node16 -->
<g id="node16" class="node"><title>Node16</title>
<g id="a_node16"><a xlink:href="a00245.html" target="_top" xlink:title="Triangle with 3 indices for points. ">
<polygon fill="white" stroke="black" points="673,-174.5 673,-193.5 741,-193.5 741,-174.5 673,-174.5"/>
<text text-anchor="middle" x="707" y="-181.5" font-family="Helvetica,sans-Serif" font-size="10.00">fcl::Triangle</text>
</a>
</g>
</g>
<!-- Node16&#45;&gt;Node2 -->
<g id="edge22" class="edge"><title>Node16&#45;&gt;Node2</title>
<path fill="none" stroke="#9a32cd" stroke-dasharray="5,2" d="M735.682,-169.973C754.454,-161.164 780.107,-150.469 804,-145 826.161,-139.927 1129.36,-122.424 1266.48,-114.706"/>
<polygon fill="#9a32cd" stroke="#9a32cd" points="734.034,-166.882 726.538,-174.37 737.067,-173.19 734.034,-166.882"/>
<text text-anchor="middle" x="1051" y="-143" font-family="Helvetica,sans-Serif" font-size="10.00"> tri_indices1</text>
<text text-anchor="middle" x="1051" y="-132" font-family="Helvetica,sans-Serif" font-size="10.00">tri_indices2</text>
</g>
<!-- Node16&#45;&gt;Node12 -->
<g id="edge18" class="edge"><title>Node16&#45;&gt;Node12</title>
<path fill="none" stroke="#9a32cd" stroke-dasharray="5,2" d="M751.301,-190.258C783.08,-194.928 827.267,-201.583 866,-208 874.415,-209.394 883.33,-210.934 892.007,-212.468"/>
<polygon fill="#9a32cd" stroke="#9a32cd" points="751.427,-186.739 741.026,-188.753 750.413,-193.665 751.427,-186.739"/>
<text text-anchor="middle" x="835" y="-211" font-family="Helvetica,sans-Serif" font-size="10.00"> tri_indices</text>
</g>
<!-- Node17 -->
<g id="node17" class="node"><title>Node17</title>
<g id="a_node17"><a xlink:href="a00069.html" target="_top" xlink:title="Vector3 class wrapper. The core data is in the template parameter class. ">
<polygon fill="white" stroke="black" points="654,-101 654,-131 760,-131 760,-101 654,-101"/>
<text text-anchor="start" x="662" y="-119" font-family="Helvetica,sans-Serif" font-size="10.00">Eigen::FclMatrix&lt; T,</text>
<text text-anchor="middle" x="707" y="-108" font-family="Helvetica,sans-Serif" font-size="10.00"> Cols, _Options &gt;</text>
</a>
</g>
</g>
<!-- Node17&#45;&gt;Node2 -->
<g id="edge23" class="edge"><title>Node17&#45;&gt;Node2</title>
<path fill="none" stroke="#9a32cd" stroke-dasharray="5,2" d="M770.025,-106.381C843.462,-96.0946 969.504,-81.9056 1078,-87 1142.07,-90.0085 1214.9,-97.2467 1266.28,-102.993"/>
<polygon fill="#9a32cd" stroke="#9a32cd" points="769.427,-102.93 760.019,-107.804 770.412,-109.861 769.427,-102.93"/>
<text text-anchor="middle" x="1051" y="-101" font-family="Helvetica,sans-Serif" font-size="10.00"> vertices1</text>
<text text-anchor="middle" x="1051" y="-90" font-family="Helvetica,sans-Serif" font-size="10.00">vertices2</text>
</g>
<!-- Node17&#45;&gt;Node12 -->
<g id="edge19" class="edge"><title>Node17&#45;&gt;Node12</title>
<path fill="none" stroke="#9a32cd" stroke-dasharray="5,2" d="M767.755,-134.183C797.855,-144.182 834.542,-157.665 866,-173 889.863,-184.632 915.575,-201.782 930.705,-212.403"/>
<polygon fill="#9a32cd" stroke="#9a32cd" points="768.822,-130.85 758.229,-131.062 766.642,-137.502 768.822,-130.85"/>
<text text-anchor="middle" x="835" y="-187" font-family="Helvetica,sans-Serif" font-size="10.00"> prev_vertices</text>
<text text-anchor="middle" x="835" y="-176" font-family="Helvetica,sans-Serif" font-size="10.00">vertices</text>
</g>
<!-- Node18 -->
<g id="node18" class="node"><title>Node18</title>
<polygon fill="white" stroke="#bfbfbf" points="429,-125 429,-155 533,-155 533,-125 429,-125"/>
<text text-anchor="start" x="437" y="-143" font-family="Helvetica,sans-Serif" font-size="10.00">Eigen::Matrix&lt; T, 3,</text>
<text text-anchor="middle" x="481" y="-132" font-family="Helvetica,sans-Serif" font-size="10.00"> Cols, _Options &gt;</text>
</g>
<!-- Node18&#45;&gt;Node17 -->
<g id="edge20" class="edge"><title>Node18&#45;&gt;Node17</title>
<path fill="none" stroke="midnightblue" d="M543.131,-133.45C577.85,-129.73 620.848,-125.123 653.946,-121.577"/>
<polygon fill="midnightblue" stroke="midnightblue" points="542.68,-129.978 533.109,-134.524 543.425,-136.939 542.68,-129.978"/>
</g>
<!-- Node19 -->
<g id="node19" class="node"><title>Node19</title>
<g id="a_node19"><a xlink:href="a00073.html" target="_top" xlink:title="fcl::FclType\&lt; FclMatrix\l\&lt; T, Cols, _Options \&gt; \&gt;">
<polygon fill="white" stroke="black" points="420.5,-76 420.5,-106 541.5,-106 541.5,-76 420.5,-76"/>
<text text-anchor="start" x="428.5" y="-94" font-family="Helvetica,sans-Serif" font-size="10.00">fcl::FclType&lt; FclMatrix</text>
<text text-anchor="middle" x="481" y="-83" font-family="Helvetica,sans-Serif" font-size="10.00">&lt; T, Cols, _Options &gt; &gt;</text>
</a>
</g>
</g>
<!-- Node19&#45;&gt;Node17 -->
<g id="edge21" class="edge"><title>Node19&#45;&gt;Node17</title>
<path fill="none" stroke="midnightblue" d="M551.753,-98.7849C584.678,-102.46 623.311,-106.771 653.677,-110.16"/>
<polygon fill="midnightblue" stroke="midnightblue" points="552.06,-95.2976 541.734,-97.6667 551.284,-102.254 552.06,-95.2976"/>
</g>
<!-- Node20&#45;&gt;Node1 -->
<g id="edge25" class="edge"><title>Node20&#45;&gt;Node1</title>
<path fill="none" stroke="#9a32cd" stroke-dasharray="5,2" d="M308.174,-15.3258C355.946,-8.02568 421.719,-0 480,-0 480,-0 480,-0 1335,-0 1384.37,-0 1438.99,-18.2448 1473.15,-31.9997"/>
<polygon fill="#9a32cd" stroke="#9a32cd" points="307.605,-11.8722 298.262,-16.8694 308.682,-18.7888 307.605,-11.8722"/>
<text text-anchor="middle" x="945" y="-3" font-family="Helvetica,sans-Serif" font-size="10.00"> R</text>
</g>
<!-- Node21 -->
<g id="node21" class="node"><title>Node21</title>
<polygon fill="white" stroke="#bfbfbf" points="9,-1 9,-53 135,-53 135,-1 9,-1"/>
<text text-anchor="start" x="17" y="-41" font-family="Helvetica,sans-Serif" font-size="10.00">Matrix&lt; FCL_REAL, 3,</text>
<text text-anchor="start" x="17" y="-30" font-family="Helvetica,sans-Serif" font-size="10.00"> Cols, internal::traits</text>
<text text-anchor="start" x="17" y="-19" font-family="Helvetica,sans-Serif" font-size="10.00">&lt; Matrix&lt; FCL_REAL, 3,</text>
<text text-anchor="middle" x="72" y="-8" font-family="Helvetica,sans-Serif" font-size="10.00"> Cols &gt; &gt;::Options &gt;</text>
</g>
<!-- Node21&#45;&gt;Node20 -->
<g id="edge26" class="edge"><title>Node21&#45;&gt;Node20</title>
<path fill="none" stroke="midnightblue" d="M145.427,-27C157.615,-27 170.113,-27 181.845,-27"/>
<polygon fill="midnightblue" stroke="midnightblue" points="145.285,-23.5001 135.285,-27 145.285,-30.5001 145.285,-23.5001"/>
</g>
</g>
</svg>
