<?xml version="1.0" encoding="UTF-8" standalone="no"?>
<!DOCTYPE svg PUBLIC "-//W3C//DTD SVG 1.1//EN"
 "http://www.w3.org/Graphics/SVG/1.1/DTD/svg11.dtd">
<!-- Generated by graphviz version 2.36.0 (20140111.2315)
 -->
<!-- Title: fcl::Joint Pages: 1 -->
<svg width="230pt" height="166pt"
 viewBox="0.00 0.00 230.00 166.00" xmlns="http://www.w3.org/2000/svg" xmlns:xlink="http://www.w3.org/1999/xlink">
<g id="graph0" class="graph" transform="scale(1 1) rotate(0) translate(4 162)">
<title>fcl::Joint</title>
<polygon fill="white" stroke="none" points="-4,4 -4,-162 226,-162 226,4 -4,4"/>
<!-- Node1 -->
<g id="node1" class="node"><title>Node1</title>
<polygon fill="#bfbfbf" stroke="black" points="82,-0.5 82,-19.5 136,-19.5 136,-0.5 82,-0.5"/>
<text text-anchor="middle" x="109" y="-7.5" font-family="Helvetica,sans-Serif" font-size="10.00">fcl::Joint</text>
</g>
<!-- Node2 -->
<g id="node2" class="node"><title>Node2</title>
<g id="a_node2"><a xlink:title="STL class. ">
<polygon fill="white" stroke="#bfbfbf" points="17,-68.5 17,-87.5 77,-87.5 77,-68.5 17,-68.5"/>
<text text-anchor="middle" x="47" y="-75.5" font-family="Helvetica,sans-Serif" font-size="10.00">std::string</text>
</a>
</g>
</g>
<!-- Node2&#45;&gt;Node1 -->
<g id="edge1" class="edge"><title>Node2&#45;&gt;Node1</title>
<path fill="none" stroke="#9a32cd" stroke-dasharray="5,2" d="M61.8666,-60.7411C68.3269,-53.7157 76.0033,-45.421 83,-38 88.7141,-31.9393 95.2141,-25.1893 100.286,-19.9545"/>
<polygon fill="#9a32cd" stroke="#9a32cd" points="59.1348,-58.5415 54.9549,-68.277 64.2936,-63.273 59.1348,-58.5415"/>
<text text-anchor="middle" x="99.5" y="-41.5" font-family="Helvetica,sans-Serif" font-size="10.00"> name_</text>
</g>
<!-- Node3 -->
<g id="node3" class="node"><title>Node3</title>
<g id="a_node3"><a xlink:title="STL class. ">
<polygon fill="white" stroke="#bfbfbf" points="-0.5,-127 -0.5,-157 94.5,-157 94.5,-127 -0.5,-127"/>
<text text-anchor="start" x="7.5" y="-145" font-family="Helvetica,sans-Serif" font-size="10.00">std::basic_string&lt;</text>
<text text-anchor="middle" x="47" y="-134" font-family="Helvetica,sans-Serif" font-size="10.00"> char &gt;</text>
</a>
</g>
</g>
<!-- Node3&#45;&gt;Node2 -->
<g id="edge2" class="edge"><title>Node3&#45;&gt;Node2</title>
<path fill="none" stroke="midnightblue" d="M47,-116.871C47,-106.663 47,-95.4077 47,-87.8419"/>
<polygon fill="midnightblue" stroke="midnightblue" points="43.5001,-116.931 47,-126.931 50.5001,-116.931 43.5001,-116.931"/>
</g>
<!-- Node4 -->
<g id="node4" class="node"><title>Node4</title>
<g id="a_node4"><a xlink:href="a00242.html" target="_top" xlink:title="Simple transform class used locally by InterpMotion. ">
<polygon fill="white" stroke="black" points="95,-68.5 95,-87.5 181,-87.5 181,-68.5 95,-68.5"/>
<text text-anchor="middle" x="138" y="-75.5" font-family="Helvetica,sans-Serif" font-size="10.00">fcl::Transform3f</text>
</a>
</g>
</g>
<!-- Node4&#45;&gt;Node1 -->
<g id="edge3" class="edge"><title>Node4&#45;&gt;Node1</title>
<path fill="none" stroke="#9a32cd" stroke-dasharray="5,2" d="M130.173,-59.1859C124.578,-46.4523 117.287,-29.8607 112.885,-19.8411"/>
<polygon fill="#9a32cd" stroke="#9a32cd" points="126.982,-60.6244 134.209,-68.3717 133.39,-57.8085 126.982,-60.6244"/>
<text text-anchor="middle" x="174" y="-41.5" font-family="Helvetica,sans-Serif" font-size="10.00"> transform_to_parent_</text>
</g>
</g>
</svg>
