<?xml version="1.0" encoding="UTF-8" standalone="no"?>
<!DOCTYPE svg PUBLIC "-//W3C//DTD SVG 1.1//EN"
 "http://www.w3.org/Graphics/SVG/1.1/DTD/svg11.dtd">
<!-- Generated by graphviz version 2.36.0 (20140111.2315)
 -->
<!-- Title: fcl::MeshShapeConservativeAdvancementTraversalNode&lt; BV, S, NarrowPhaseSolver &gt; Pages: 1 -->
<svg width="184pt" height="298pt"
 viewBox="0.00 0.00 184.00 298.00" xmlns="http://www.w3.org/2000/svg" xmlns:xlink="http://www.w3.org/1999/xlink">
<g id="graph0" class="graph" transform="scale(1 1) rotate(0) translate(4 294)">
<title>fcl::MeshShapeConservativeAdvancementTraversalNode&lt; BV, S, NarrowPhaseSolver &gt;</title>
<polygon fill="white" stroke="none" points="-4,4 -4,-294 180,-294 180,4 -4,4"/>
<!-- Node1 -->
<g id="node1" class="node"><title>Node1</title>
<polygon fill="#bfbfbf" stroke="black" points="11,-0.5 11,-41.5 165,-41.5 165,-0.5 11,-0.5"/>
<text text-anchor="start" x="19" y="-29.5" font-family="Helvetica,sans-Serif" font-size="10.00">fcl::MeshShapeConservative</text>
<text text-anchor="start" x="19" y="-18.5" font-family="Helvetica,sans-Serif" font-size="10.00">AdvancementTraversalNode</text>
<text text-anchor="middle" x="88" y="-7.5" font-family="Helvetica,sans-Serif" font-size="10.00">&lt; BV, S, NarrowPhaseSolver &gt;</text>
</g>
<!-- Node2 -->
<g id="node2" class="node"><title>Node2</title>
<g id="a_node2"><a xlink:href="a00132.html" target="_top" xlink:title="Traversal node for distance between mesh and shape. ">
<polygon fill="white" stroke="black" points="-0.5,-79 -0.5,-109 176.5,-109 176.5,-79 -0.5,-79"/>
<text text-anchor="start" x="7.5" y="-97" font-family="Helvetica,sans-Serif" font-size="10.00">fcl::MeshShapeDistanceTraversal</text>
<text text-anchor="middle" x="88" y="-86" font-family="Helvetica,sans-Serif" font-size="10.00">Node&lt; BV, S, NarrowPhaseSolver &gt;</text>
</a>
</g>
</g>
<!-- Node2&#45;&gt;Node1 -->
<g id="edge1" class="edge"><title>Node2&#45;&gt;Node1</title>
<path fill="none" stroke="midnightblue" d="M88,-68.8534C88,-59.9872 88,-50.065 88,-41.642"/>
<polygon fill="midnightblue" stroke="midnightblue" points="84.5001,-68.9727 88,-78.9727 91.5001,-68.9727 84.5001,-68.9727"/>
</g>
<!-- Node3 -->
<g id="node3" class="node"><title>Node3</title>
<g id="a_node3"><a xlink:href="a00024.html" target="_top" xlink:title="Traversal node for distance computation between BVH and shape. ">
<polygon fill="white" stroke="black" points="7.5,-147 7.5,-177 168.5,-177 168.5,-147 7.5,-147"/>
<text text-anchor="start" x="15.5" y="-165" font-family="Helvetica,sans-Serif" font-size="10.00">fcl::BVHShapeDistanceTraversal</text>
<text text-anchor="middle" x="88" y="-154" font-family="Helvetica,sans-Serif" font-size="10.00">Node&lt; BV, S &gt;</text>
</a>
</g>
</g>
<!-- Node3&#45;&gt;Node2 -->
<g id="edge2" class="edge"><title>Node3&#45;&gt;Node2</title>
<path fill="none" stroke="midnightblue" d="M88,-136.532C88,-127.361 88,-117.245 88,-109.293"/>
<polygon fill="midnightblue" stroke="midnightblue" points="84.5001,-136.679 88,-146.679 91.5001,-136.679 84.5001,-136.679"/>
</g>
<!-- Node4 -->
<g id="node4" class="node"><title>Node4</title>
<g id="a_node4"><a xlink:href="a00056.html" target="_top" xlink:title="Node structure encoding the information required for distance traversal. ">
<polygon fill="white" stroke="black" points="9,-214.5 9,-233.5 167,-233.5 167,-214.5 9,-214.5"/>
<text text-anchor="middle" x="88" y="-221.5" font-family="Helvetica,sans-Serif" font-size="10.00">fcl::DistanceTraversalNodeBase</text>
</a>
</g>
</g>
<!-- Node4&#45;&gt;Node3 -->
<g id="edge3" class="edge"><title>Node4&#45;&gt;Node3</title>
<path fill="none" stroke="midnightblue" d="M88,-204.371C88,-195.585 88,-185.272 88,-177.141"/>
<polygon fill="midnightblue" stroke="midnightblue" points="84.5001,-204.403 88,-214.403 91.5001,-204.403 84.5001,-204.403"/>
</g>
<!-- Node5 -->
<g id="node5" class="node"><title>Node5</title>
<g id="a_node5"><a xlink:href="a00244.html" target="_top" xlink:title="Node structure encoding the information required for traversal. ">
<polygon fill="white" stroke="black" points="28.5,-270.5 28.5,-289.5 147.5,-289.5 147.5,-270.5 28.5,-270.5"/>
<text text-anchor="middle" x="88" y="-277.5" font-family="Helvetica,sans-Serif" font-size="10.00">fcl::TraversalNodeBase</text>
</a>
</g>
</g>
<!-- Node5&#45;&gt;Node4 -->
<g id="edge4" class="edge"><title>Node5&#45;&gt;Node4</title>
<path fill="none" stroke="midnightblue" d="M88,-259.805C88,-250.91 88,-240.78 88,-233.751"/>
<polygon fill="midnightblue" stroke="midnightblue" points="84.5001,-260.083 88,-270.083 91.5001,-260.083 84.5001,-260.083"/>
</g>
</g>
</svg>
