<?xml version="1.0" encoding="UTF-8" standalone="no"?>
<!DOCTYPE svg PUBLIC "-//W3C//DTD SVG 1.1//EN"
 "http://www.w3.org/Graphics/SVG/1.1/DTD/svg11.dtd">
<!-- Generated by graphviz version 2.36.0 (20140111.2315)
 -->
<!-- Title: fcl::MeshDistanceTraversalNode&lt; BV &gt; Pages: 1 -->
<svg width="1450pt" height="198pt"
 viewBox="0.00 0.00 1450.00 198.00" xmlns="http://www.w3.org/2000/svg" xmlns:xlink="http://www.w3.org/1999/xlink">
<g id="graph0" class="graph" transform="scale(1 1) rotate(0) translate(4 194)">
<title>fcl::MeshDistanceTraversalNode&lt; BV &gt;</title>
<polygon fill="white" stroke="none" points="-4,4 -4,-194 1446,-194 1446,4 -4,4"/>
<!-- Node1 -->
<g id="node1" class="node"><title>Node1</title>
<polygon fill="#bfbfbf" stroke="black" points="1304.5,-71 1304.5,-101 1441.5,-101 1441.5,-71 1304.5,-71"/>
<text text-anchor="start" x="1312.5" y="-89" font-family="Helvetica,sans-Serif" font-size="10.00">fcl::MeshDistanceTraversal</text>
<text text-anchor="middle" x="1373" y="-78" font-family="Helvetica,sans-Serif" font-size="10.00">Node&lt; BV &gt;</text>
</g>
<!-- Node2 -->
<g id="node2" class="node"><title>Node2</title>
<g id="a_node2"><a xlink:href="a00020.html" target="_top" xlink:title="Traversal node for distance computation between BVH models. ">
<polygon fill="white" stroke="black" points="1080,-115 1080,-145 1214,-145 1214,-115 1080,-115"/>
<text text-anchor="start" x="1088" y="-133" font-family="Helvetica,sans-Serif" font-size="10.00">fcl::BVHDistanceTraversal</text>
<text text-anchor="middle" x="1147" y="-122" font-family="Helvetica,sans-Serif" font-size="10.00">Node&lt; BV &gt;</text>
</a>
</g>
</g>
<!-- Node2&#45;&gt;Node1 -->
<g id="edge1" class="edge"><title>Node2&#45;&gt;Node1</title>
<path fill="none" stroke="midnightblue" d="M1224.12,-122.341C1244.34,-119.688 1266.1,-116.277 1286,-112 1299.57,-109.084 1314.1,-105.053 1327.28,-101.035"/>
<polygon fill="midnightblue" stroke="midnightblue" points="1223.49,-118.892 1214.01,-123.621 1224.37,-125.836 1223.49,-118.892"/>
</g>
<!-- Node3 -->
<g id="node3" class="node"><title>Node3</title>
<g id="a_node3"><a xlink:href="a00056.html" target="_top" xlink:title="Node structure encoding the information required for distance traversal. ">
<polygon fill="white" stroke="black" points="884,-120.5 884,-139.5 1042,-139.5 1042,-120.5 884,-120.5"/>
<text text-anchor="middle" x="963" y="-127.5" font-family="Helvetica,sans-Serif" font-size="10.00">fcl::DistanceTraversalNodeBase</text>
</a>
</g>
</g>
<!-- Node3&#45;&gt;Node2 -->
<g id="edge2" class="edge"><title>Node3&#45;&gt;Node2</title>
<path fill="none" stroke="midnightblue" d="M1052.27,-130C1061.55,-130 1070.86,-130 1079.83,-130"/>
<polygon fill="midnightblue" stroke="midnightblue" points="1052.24,-126.5 1042.24,-130 1052.24,-133.5 1052.24,-126.5"/>
</g>
<!-- Node4 -->
<g id="node4" class="node"><title>Node4</title>
<g id="a_node4"><a xlink:href="a00244.html" target="_top" xlink:title="Node structure encoding the information required for traversal. ">
<polygon fill="white" stroke="black" points="692.5,-158.5 692.5,-177.5 811.5,-177.5 811.5,-158.5 692.5,-158.5"/>
<text text-anchor="middle" x="752" y="-165.5" font-family="Helvetica,sans-Serif" font-size="10.00">fcl::TraversalNodeBase</text>
</a>
</g>
</g>
<!-- Node4&#45;&gt;Node3 -->
<g id="edge3" class="edge"><title>Node4&#45;&gt;Node3</title>
<path fill="none" stroke="midnightblue" d="M815.408,-156.653C845.395,-151.201 880.934,-144.739 909.509,-139.544"/>
<polygon fill="midnightblue" stroke="midnightblue" points="814.682,-153.228 805.47,-158.46 815.935,-160.115 814.682,-153.228"/>
</g>
<!-- Node5 -->
<g id="node5" class="node"><title>Node5</title>
<g id="a_node5"><a xlink:href="a00242.html" target="_top" xlink:title="Simple transform class used locally by InterpMotion. ">
<polygon fill="white" stroke="black" points="540,-158.5 540,-177.5 626,-177.5 626,-158.5 540,-158.5"/>
<text text-anchor="middle" x="583" y="-165.5" font-family="Helvetica,sans-Serif" font-size="10.00">fcl::Transform3f</text>
</a>
</g>
</g>
<!-- Node5&#45;&gt;Node4 -->
<g id="edge4" class="edge"><title>Node5&#45;&gt;Node4</title>
<path fill="none" stroke="#9a32cd" stroke-dasharray="5,2" d="M636.349,-168C654.17,-168 674.201,-168 692.474,-168"/>
<polygon fill="#9a32cd" stroke="#9a32cd" points="636.141,-164.5 626.141,-168 636.141,-171.5 636.141,-164.5"/>
<text text-anchor="middle" x="666" y="-182" font-family="Helvetica,sans-Serif" font-size="10.00"> tf1</text>
<text text-anchor="middle" x="666" y="-171" font-family="Helvetica,sans-Serif" font-size="10.00">tf2</text>
</g>
<!-- Node6 -->
<g id="node6" class="node"><title>Node6</title>
<g id="a_node6"><a xlink:href="a00055.html" target="_top" xlink:title="distance result ">
<polygon fill="white" stroke="black" points="701.5,-120.5 701.5,-139.5 802.5,-139.5 802.5,-120.5 701.5,-120.5"/>
<text text-anchor="middle" x="752" y="-127.5" font-family="Helvetica,sans-Serif" font-size="10.00">fcl::DistanceResult</text>
</a>
</g>
</g>
<!-- Node6&#45;&gt;Node3 -->
<g id="edge5" class="edge"><title>Node6&#45;&gt;Node3</title>
<path fill="none" stroke="#9a32cd" stroke-dasharray="5,2" d="M812.771,-130C834.891,-130 860.307,-130 883.821,-130"/>
<polygon fill="#9a32cd" stroke="#9a32cd" points="812.53,-126.5 802.53,-130 812.53,-133.5 812.53,-126.5"/>
<text text-anchor="middle" x="848" y="-133" font-family="Helvetica,sans-Serif" font-size="10.00"> result</text>
</g>
<!-- Node7 -->
<g id="node7" class="node"><title>Node7</title>
<g id="a_node7"><a xlink:href="a00069.html" target="_top" xlink:title="Eigen::FclMatrix\&lt; FCL\l_REAL, 1 \&gt;">
<polygon fill="white" stroke="black" points="182,-76 182,-106 298,-106 298,-76 182,-76"/>
<text text-anchor="start" x="190" y="-94" font-family="Helvetica,sans-Serif" font-size="10.00">Eigen::FclMatrix&lt; FCL</text>
<text text-anchor="middle" x="240" y="-83" font-family="Helvetica,sans-Serif" font-size="10.00">_REAL, 1 &gt;</text>
</a>
</g>
</g>
<!-- Node7&#45;&gt;Node6 -->
<g id="edge6" class="edge"><title>Node7&#45;&gt;Node6</title>
<path fill="none" stroke="#9a32cd" stroke-dasharray="5,2" d="M308.297,-103.985C310.894,-104.352 313.469,-104.692 316,-105 454.921,-121.889 620.229,-127.424 701.237,-129.195"/>
<polygon fill="#9a32cd" stroke="#9a32cd" points="308.624,-100.494 298.212,-102.454 307.574,-107.415 308.624,-100.494"/>
<text text-anchor="middle" x="474" y="-125" font-family="Helvetica,sans-Serif" font-size="10.00"> nearest_points</text>
</g>
<!-- Node10 -->
<g id="node10" class="node"><title>Node10</title>
<g id="a_node10"><a xlink:href="a00032.html" target="_top" xlink:title="The geometry for the object for collision or distance computation. ">
<polygon fill="white" stroke="black" points="526.5,-81.5 526.5,-100.5 639.5,-100.5 639.5,-81.5 526.5,-81.5"/>
<text text-anchor="middle" x="583" y="-88.5" font-family="Helvetica,sans-Serif" font-size="10.00">fcl::CollisionGeometry</text>
</a>
</g>
</g>
<!-- Node7&#45;&gt;Node10 -->
<g id="edge12" class="edge"><title>Node7&#45;&gt;Node10</title>
<path fill="none" stroke="#9a32cd" stroke-dasharray="5,2" d="M308.433,-91C372.235,-91 466.857,-91 526.437,-91"/>
<polygon fill="#9a32cd" stroke="#9a32cd" points="308.076,-87.5001 298.076,-91 308.076,-94.5001 308.076,-87.5001"/>
<text text-anchor="middle" x="392" y="-94" font-family="Helvetica,sans-Serif" font-size="10.00"> aabb_center</text>
</g>
<!-- Node11 -->
<g id="node11" class="node"><title>Node11</title>
<g id="a_node11"><a xlink:href="a00003.html" target="_top" xlink:title="A class describing the AABB collision structure, which is a box in 3D space determined by two diagona...">
<polygon fill="white" stroke="black" points="362,-35.5 362,-54.5 422,-54.5 422,-35.5 362,-35.5"/>
<text text-anchor="middle" x="392" y="-42.5" font-family="Helvetica,sans-Serif" font-size="10.00">fcl::AABB</text>
</a>
</g>
</g>
<!-- Node7&#45;&gt;Node11 -->
<g id="edge11" class="edge"><title>Node7&#45;&gt;Node11</title>
<path fill="none" stroke="#9a32cd" stroke-dasharray="5,2" d="M276.238,-71.2667C288.493,-65.1732 302.545,-59.0157 316,-55 330.727,-50.6046 347.659,-48.1381 361.703,-46.7555"/>
<polygon fill="#9a32cd" stroke="#9a32cd" points="274.554,-68.1968 267.256,-75.8774 277.751,-74.4242 274.554,-68.1968"/>
<text text-anchor="middle" x="330" y="-69" font-family="Helvetica,sans-Serif" font-size="10.00"> max_</text>
<text text-anchor="middle" x="330" y="-58" font-family="Helvetica,sans-Serif" font-size="10.00">min_</text>
</g>
<!-- Node8 -->
<g id="node8" class="node"><title>Node8</title>
<polygon fill="white" stroke="#bfbfbf" points="6.5,-101 6.5,-153 137.5,-153 137.5,-101 6.5,-101"/>
<text text-anchor="start" x="14.5" y="-141" font-family="Helvetica,sans-Serif" font-size="10.00">Matrix&lt; FCL_REAL ,</text>
<text text-anchor="start" x="14.5" y="-130" font-family="Helvetica,sans-Serif" font-size="10.00"> 3, Cols, internal::</text>
<text text-anchor="start" x="14.5" y="-119" font-family="Helvetica,sans-Serif" font-size="10.00">traits&lt;Matrix &lt;FCL_REAL</text>
<text text-anchor="middle" x="72" y="-108" font-family="Helvetica,sans-Serif" font-size="10.00"> , 3, Cols&gt; &gt;::Options &gt;</text>
</g>
<!-- Node8&#45;&gt;Node7 -->
<g id="edge7" class="edge"><title>Node8&#45;&gt;Node7</title>
<path fill="none" stroke="midnightblue" d="M147.655,-110.81C159.123,-108.323 170.805,-105.789 181.814,-103.402"/>
<polygon fill="midnightblue" stroke="midnightblue" points="146.686,-107.438 137.655,-112.978 148.17,-114.279 146.686,-107.438"/>
</g>
<!-- Node9 -->
<g id="node9" class="node"><title>Node9</title>
<g id="a_node9"><a xlink:href="a00073.html" target="_top" xlink:title="fcl::FclType\&lt; FclMatrix\l\&lt; FCL_REAL, Cols, internal\l::traits\&lt; Matrix\&lt; FCL_REAL,\l 3, Cols \&gt; \&gt;::Options \&gt; \&gt;">
<polygon fill="white" stroke="black" points="0.5,-30 0.5,-82 143.5,-82 143.5,-30 0.5,-30"/>
<text text-anchor="start" x="8.5" y="-70" font-family="Helvetica,sans-Serif" font-size="10.00">fcl::FclType&lt; FclMatrix</text>
<text text-anchor="start" x="8.5" y="-59" font-family="Helvetica,sans-Serif" font-size="10.00">&lt; FCL_REAL, Cols, internal</text>
<text text-anchor="start" x="8.5" y="-48" font-family="Helvetica,sans-Serif" font-size="10.00">::traits&lt; Matrix&lt; FCL_REAL,</text>
<text text-anchor="middle" x="72" y="-37" font-family="Helvetica,sans-Serif" font-size="10.00"> 3, Cols &gt; &gt;::Options &gt; &gt;</text>
</a>
</g>
</g>
<!-- Node9&#45;&gt;Node7 -->
<g id="edge8" class="edge"><title>Node9&#45;&gt;Node7</title>
<path fill="none" stroke="midnightblue" d="M153.751,-73.0258C163.257,-75.03 172.802,-77.0425 181.887,-78.958"/>
<polygon fill="midnightblue" stroke="midnightblue" points="154.387,-69.5831 143.88,-70.9447 152.943,-76.4325 154.387,-69.5831"/>
</g>
<!-- Node10&#45;&gt;Node6 -->
<g id="edge9" class="edge"><title>Node10&#45;&gt;Node6</title>
<path fill="none" stroke="#9a32cd" stroke-dasharray="5,2" d="M649.784,-87.6775C658.137,-88.8433 666.409,-90.8344 674,-94 684.156,-98.2352 682.529,-105.397 692,-111 698.391,-114.78 705.623,-117.903 712.778,-120.448"/>
<polygon fill="#9a32cd" stroke="#9a32cd" points="649.899,-84.1712 639.597,-86.6414 649.191,-91.1353 649.899,-84.1712"/>
<text text-anchor="middle" x="666" y="-108" font-family="Helvetica,sans-Serif" font-size="10.00"> o1</text>
<text text-anchor="middle" x="666" y="-97" font-family="Helvetica,sans-Serif" font-size="10.00">o2</text>
</g>
<!-- Node11&#45;&gt;Node10 -->
<g id="edge10" class="edge"><title>Node11&#45;&gt;Node10</title>
<path fill="none" stroke="#9a32cd" stroke-dasharray="5,2" d="M432.217,-50.7127C454.593,-54.3323 483.066,-59.548 508,-66 524.41,-70.2464 542.438,-76.3063 556.591,-81.3964"/>
<polygon fill="#9a32cd" stroke="#9a32cd" points="432.506,-47.2151 422.083,-49.1145 431.415,-54.1296 432.506,-47.2151"/>
<text text-anchor="middle" x="474" y="-69" font-family="Helvetica,sans-Serif" font-size="10.00"> aabb_local</text>
</g>
<!-- Node12 -->
<g id="node12" class="node"><title>Node12</title>
<g id="a_node12"><a xlink:href="a00054.html" target="_top" xlink:title="request to the distance computation ">
<polygon fill="white" stroke="black" points="697.5,-82.5 697.5,-101.5 806.5,-101.5 806.5,-82.5 697.5,-82.5"/>
<text text-anchor="middle" x="752" y="-89.5" font-family="Helvetica,sans-Serif" font-size="10.00">fcl::DistanceRequest</text>
</a>
</g>
</g>
<!-- Node12&#45;&gt;Node3 -->
<g id="edge13" class="edge"><title>Node12&#45;&gt;Node3</title>
<path fill="none" stroke="#9a32cd" stroke-dasharray="5,2" d="M815.408,-103.347C845.395,-108.799 880.934,-115.261 909.509,-120.456"/>
<polygon fill="#9a32cd" stroke="#9a32cd" points="815.935,-99.8853 805.47,-101.54 814.682,-106.772 815.935,-99.8853"/>
<text text-anchor="middle" x="848" y="-116" font-family="Helvetica,sans-Serif" font-size="10.00"> request</text>
</g>
<!-- Node13 -->
<g id="node13" class="node"><title>Node13</title>
<g id="a_node13"><a xlink:href="a00245.html" target="_top" xlink:title="Triangle with 3 indices for points. ">
<polygon fill="white" stroke="black" points="1113,-76.5 1113,-95.5 1181,-95.5 1181,-76.5 1113,-76.5"/>
<text text-anchor="middle" x="1147" y="-83.5" font-family="Helvetica,sans-Serif" font-size="10.00">fcl::Triangle</text>
</a>
</g>
</g>
<!-- Node13&#45;&gt;Node1 -->
<g id="edge14" class="edge"><title>Node13&#45;&gt;Node1</title>
<path fill="none" stroke="#9a32cd" stroke-dasharray="5,2" d="M1191.4,-86C1223.37,-86 1267.46,-86 1304.08,-86"/>
<polygon fill="#9a32cd" stroke="#9a32cd" points="1191.05,-82.5001 1181.05,-86 1191.05,-89.5001 1191.05,-82.5001"/>
<text text-anchor="middle" x="1259" y="-100" font-family="Helvetica,sans-Serif" font-size="10.00"> tri_indices1</text>
<text text-anchor="middle" x="1259" y="-89" font-family="Helvetica,sans-Serif" font-size="10.00">tri_indices2</text>
</g>
<!-- Node14 -->
<g id="node14" class="node"><title>Node14</title>
<g id="a_node14"><a xlink:href="a00069.html" target="_top" xlink:title="Vector3 class wrapper. The core data is in the template parameter class. ">
<polygon fill="white" stroke="black" points="1094,-26 1094,-56 1200,-56 1200,-26 1094,-26"/>
<text text-anchor="start" x="1102" y="-44" font-family="Helvetica,sans-Serif" font-size="10.00">Eigen::FclMatrix&lt; T,</text>
<text text-anchor="middle" x="1147" y="-33" font-family="Helvetica,sans-Serif" font-size="10.00"> Cols, _Options &gt;</text>
</a>
</g>
</g>
<!-- Node14&#45;&gt;Node1 -->
<g id="edge15" class="edge"><title>Node14&#45;&gt;Node1</title>
<path fill="none" stroke="#9a32cd" stroke-dasharray="5,2" d="M1210.11,-47.4491C1233.98,-50.4761 1261.4,-54.6225 1286,-60 1299.41,-62.9312 1313.76,-66.9195 1326.82,-70.8917"/>
<polygon fill="#9a32cd" stroke="#9a32cd" points="1210.46,-43.9666 1200.11,-46.22 1209.61,-50.9143 1210.46,-43.9666"/>
<text text-anchor="middle" x="1259" y="-74" font-family="Helvetica,sans-Serif" font-size="10.00"> vertices1</text>
<text text-anchor="middle" x="1259" y="-63" font-family="Helvetica,sans-Serif" font-size="10.00">vertices2</text>
</g>
<!-- Node15 -->
<g id="node15" class="node"><title>Node15</title>
<polygon fill="white" stroke="#bfbfbf" points="911,-49 911,-79 1015,-79 1015,-49 911,-49"/>
<text text-anchor="start" x="919" y="-67" font-family="Helvetica,sans-Serif" font-size="10.00">Eigen::Matrix&lt; T, 3,</text>
<text text-anchor="middle" x="963" y="-56" font-family="Helvetica,sans-Serif" font-size="10.00"> Cols, _Options &gt;</text>
</g>
<!-- Node15&#45;&gt;Node14 -->
<g id="edge16" class="edge"><title>Node15&#45;&gt;Node14</title>
<path fill="none" stroke="midnightblue" d="M1025.22,-56.2637C1047.52,-53.4452 1072.51,-50.2877 1093.94,-47.5791"/>
<polygon fill="midnightblue" stroke="midnightblue" points="1024.66,-52.8058 1015.18,-57.532 1025.54,-59.7505 1024.66,-52.8058"/>
</g>
<!-- Node16 -->
<g id="node16" class="node"><title>Node16</title>
<g id="a_node16"><a xlink:href="a00073.html" target="_top" xlink:title="fcl::FclType\&lt; FclMatrix\l\&lt; T, Cols, _Options \&gt; \&gt;">
<polygon fill="white" stroke="black" points="902.5,-0 902.5,-30 1023.5,-30 1023.5,-0 902.5,-0"/>
<text text-anchor="start" x="910.5" y="-18" font-family="Helvetica,sans-Serif" font-size="10.00">fcl::FclType&lt; FclMatrix</text>
<text text-anchor="middle" x="963" y="-7" font-family="Helvetica,sans-Serif" font-size="10.00">&lt; T, Cols, _Options &gt; &gt;</text>
</a>
</g>
</g>
<!-- Node16&#45;&gt;Node14 -->
<g id="edge17" class="edge"><title>Node16&#45;&gt;Node14</title>
<path fill="none" stroke="midnightblue" d="M1033.6,-24.9434C1053.64,-27.8059 1075.15,-30.8781 1093.93,-33.5609"/>
<polygon fill="midnightblue" stroke="midnightblue" points="1033.99,-21.4628 1023.59,-23.5134 1033,-28.3925 1033.99,-21.4628"/>
</g>
</g>
</svg>
