<?xml version="1.0" encoding="UTF-8" standalone="no"?>
<!DOCTYPE svg PUBLIC "-//W3C//DTD SVG 1.1//EN"
 "http://www.w3.org/Graphics/SVG/1.1/DTD/svg11.dtd">
<!-- Generated by graphviz version 2.36.0 (20140111.2315)
 -->
<!-- Title: fcl::MeshCollisionTraversalNodeOBB Pages: 1 -->
<svg width="164pt" height="288pt"
 viewBox="0.00 0.00 164.00 288.00" xmlns="http://www.w3.org/2000/svg" xmlns:xlink="http://www.w3.org/1999/xlink">
<g id="graph0" class="graph" transform="scale(1 1) rotate(0) translate(4 284)">
<title>fcl::MeshCollisionTraversalNodeOBB</title>
<polygon fill="white" stroke="none" points="-4,4 -4,-284 160,-284 160,4 -4,4"/>
<!-- Node1 -->
<g id="node1" class="node"><title>Node1</title>
<polygon fill="#bfbfbf" stroke="black" points="10.5,-1 10.5,-31 145.5,-31 145.5,-1 10.5,-1"/>
<text text-anchor="start" x="18.5" y="-19" font-family="Helvetica,sans-Serif" font-size="10.00">fcl::MeshCollisionTraversal</text>
<text text-anchor="middle" x="78" y="-8" font-family="Helvetica,sans-Serif" font-size="10.00">NodeOBB</text>
</g>
<!-- Node2 -->
<g id="node2" class="node"><title>Node2</title>
<g id="a_node2"><a xlink:href="a00109.html" target="_top" xlink:title="fcl::MeshCollisionTraversal\lNode\&lt; OBB \&gt;">
<polygon fill="white" stroke="black" points="10.5,-69 10.5,-99 145.5,-99 145.5,-69 10.5,-69"/>
<text text-anchor="start" x="18.5" y="-87" font-family="Helvetica,sans-Serif" font-size="10.00">fcl::MeshCollisionTraversal</text>
<text text-anchor="middle" x="78" y="-76" font-family="Helvetica,sans-Serif" font-size="10.00">Node&lt; OBB &gt;</text>
</a>
</g>
</g>
<!-- Node2&#45;&gt;Node1 -->
<g id="edge1" class="edge"><title>Node2&#45;&gt;Node1</title>
<path fill="none" stroke="midnightblue" d="M78,-58.5322C78,-49.3606 78,-39.2449 78,-31.2931"/>
<polygon fill="midnightblue" stroke="midnightblue" points="74.5001,-58.6789 78,-68.679 81.5001,-58.679 74.5001,-58.6789"/>
</g>
<!-- Node3 -->
<g id="node3" class="node"><title>Node3</title>
<g id="a_node3"><a xlink:href="a00018.html" target="_top" xlink:title="fcl::BVHCollisionTraversal\lNode\&lt; OBB \&gt;">
<polygon fill="white" stroke="black" points="12,-137 12,-167 144,-167 144,-137 12,-137"/>
<text text-anchor="start" x="20" y="-155" font-family="Helvetica,sans-Serif" font-size="10.00">fcl::BVHCollisionTraversal</text>
<text text-anchor="middle" x="78" y="-144" font-family="Helvetica,sans-Serif" font-size="10.00">Node&lt; OBB &gt;</text>
</a>
</g>
</g>
<!-- Node3&#45;&gt;Node2 -->
<g id="edge2" class="edge"><title>Node3&#45;&gt;Node2</title>
<path fill="none" stroke="midnightblue" d="M78,-126.532C78,-117.361 78,-107.245 78,-99.2931"/>
<polygon fill="midnightblue" stroke="midnightblue" points="74.5001,-126.679 78,-136.679 81.5001,-126.679 74.5001,-126.679"/>
</g>
<!-- Node4 -->
<g id="node4" class="node"><title>Node4</title>
<g id="a_node4"><a xlink:href="a00036.html" target="_top" xlink:title="Node structure encoding the information required for collision traversal. ">
<polygon fill="white" stroke="black" points="-0.5,-204.5 -0.5,-223.5 156.5,-223.5 156.5,-204.5 -0.5,-204.5"/>
<text text-anchor="middle" x="78" y="-211.5" font-family="Helvetica,sans-Serif" font-size="10.00">fcl::CollisionTraversalNodeBase</text>
</a>
</g>
</g>
<!-- Node4&#45;&gt;Node3 -->
<g id="edge3" class="edge"><title>Node4&#45;&gt;Node3</title>
<path fill="none" stroke="midnightblue" d="M78,-194.371C78,-185.585 78,-175.272 78,-167.141"/>
<polygon fill="midnightblue" stroke="midnightblue" points="74.5001,-194.403 78,-204.403 81.5001,-194.403 74.5001,-194.403"/>
</g>
<!-- Node5 -->
<g id="node5" class="node"><title>Node5</title>
<g id="a_node5"><a xlink:href="a00244.html" target="_top" xlink:title="Node structure encoding the information required for traversal. ">
<polygon fill="white" stroke="black" points="18.5,-260.5 18.5,-279.5 137.5,-279.5 137.5,-260.5 18.5,-260.5"/>
<text text-anchor="middle" x="78" y="-267.5" font-family="Helvetica,sans-Serif" font-size="10.00">fcl::TraversalNodeBase</text>
</a>
</g>
</g>
<!-- Node5&#45;&gt;Node4 -->
<g id="edge4" class="edge"><title>Node5&#45;&gt;Node4</title>
<path fill="none" stroke="midnightblue" d="M78,-249.805C78,-240.91 78,-230.78 78,-223.751"/>
<polygon fill="midnightblue" stroke="midnightblue" points="74.5001,-250.083 78,-260.083 81.5001,-250.083 74.5001,-250.083"/>
</g>
</g>
</svg>
