<?xml version="1.0" encoding="UTF-8" standalone="no"?>
<!DOCTYPE svg PUBLIC "-//W3C//DTD SVG 1.1//EN"
 "http://www.w3.org/Graphics/SVG/1.1/DTD/svg11.dtd">
<!-- Generated by graphviz version 2.36.0 (20140111.2315)
 -->
<!-- Title: fcl::MeshContinuousCollisionTraversalNode&lt; BV &gt; Pages: 1 -->
<svg width="164pt" height="220pt"
 viewBox="0.00 0.00 164.00 220.00" xmlns="http://www.w3.org/2000/svg" xmlns:xlink="http://www.w3.org/1999/xlink">
<g id="graph0" class="graph" transform="scale(1 1) rotate(0) translate(4 216)">
<title>fcl::MeshContinuousCollisionTraversalNode&lt; BV &gt;</title>
<polygon fill="white" stroke="none" points="-4,4 -4,-216 160,-216 160,4 -4,4"/>
<!-- Node1 -->
<g id="node1" class="node"><title>Node1</title>
<polygon fill="#bfbfbf" stroke="black" points="6,-1 6,-31 150,-31 150,-1 6,-1"/>
<text text-anchor="start" x="14" y="-19" font-family="Helvetica,sans-Serif" font-size="10.00">fcl::MeshContinuousCollision</text>
<text text-anchor="middle" x="78" y="-8" font-family="Helvetica,sans-Serif" font-size="10.00">TraversalNode&lt; BV &gt;</text>
</g>
<!-- Node2 -->
<g id="node2" class="node"><title>Node2</title>
<g id="a_node2"><a xlink:href="a00018.html" target="_top" xlink:title="Traversal node for collision between BVH models. ">
<polygon fill="white" stroke="black" points="12,-69 12,-99 144,-99 144,-69 12,-69"/>
<text text-anchor="start" x="20" y="-87" font-family="Helvetica,sans-Serif" font-size="10.00">fcl::BVHCollisionTraversal</text>
<text text-anchor="middle" x="78" y="-76" font-family="Helvetica,sans-Serif" font-size="10.00">Node&lt; BV &gt;</text>
</a>
</g>
</g>
<!-- Node2&#45;&gt;Node1 -->
<g id="edge1" class="edge"><title>Node2&#45;&gt;Node1</title>
<path fill="none" stroke="midnightblue" d="M78,-58.5322C78,-49.3606 78,-39.2449 78,-31.2931"/>
<polygon fill="midnightblue" stroke="midnightblue" points="74.5001,-58.6789 78,-68.679 81.5001,-58.679 74.5001,-58.6789"/>
</g>
<!-- Node3 -->
<g id="node3" class="node"><title>Node3</title>
<g id="a_node3"><a xlink:href="a00036.html" target="_top" xlink:title="Node structure encoding the information required for collision traversal. ">
<polygon fill="white" stroke="black" points="-0.5,-136.5 -0.5,-155.5 156.5,-155.5 156.5,-136.5 -0.5,-136.5"/>
<text text-anchor="middle" x="78" y="-143.5" font-family="Helvetica,sans-Serif" font-size="10.00">fcl::CollisionTraversalNodeBase</text>
</a>
</g>
</g>
<!-- Node3&#45;&gt;Node2 -->
<g id="edge2" class="edge"><title>Node3&#45;&gt;Node2</title>
<path fill="none" stroke="midnightblue" d="M78,-126.371C78,-117.585 78,-107.272 78,-99.1408"/>
<polygon fill="midnightblue" stroke="midnightblue" points="74.5001,-126.403 78,-136.403 81.5001,-126.403 74.5001,-126.403"/>
</g>
<!-- Node4 -->
<g id="node4" class="node"><title>Node4</title>
<g id="a_node4"><a xlink:href="a00244.html" target="_top" xlink:title="Node structure encoding the information required for traversal. ">
<polygon fill="white" stroke="black" points="18.5,-192.5 18.5,-211.5 137.5,-211.5 137.5,-192.5 18.5,-192.5"/>
<text text-anchor="middle" x="78" y="-199.5" font-family="Helvetica,sans-Serif" font-size="10.00">fcl::TraversalNodeBase</text>
</a>
</g>
</g>
<!-- Node4&#45;&gt;Node3 -->
<g id="edge3" class="edge"><title>Node4&#45;&gt;Node3</title>
<path fill="none" stroke="midnightblue" d="M78,-181.805C78,-172.91 78,-162.78 78,-155.751"/>
<polygon fill="midnightblue" stroke="midnightblue" points="74.5001,-182.083 78,-192.083 81.5001,-182.083 74.5001,-182.083"/>
</g>
</g>
</svg>
