<?xml version="1.0" encoding="UTF-8" standalone="no"?>
<!DOCTYPE svg PUBLIC "-//W3C//DTD SVG 1.1//EN"
 "http://www.w3.org/Graphics/SVG/1.1/DTD/svg11.dtd">
<!-- Generated by graphviz version 2.36.0 (20140111.2315)
 -->
<!-- Title: fcl::MeshShapeConservativeAdvancementTraversalNodeRSS&lt; S, NarrowPhaseSolver &gt; Pages: 1 -->
<svg width="2246pt" height="509pt"
 viewBox="0.00 0.00 2246.00 509.00" xmlns="http://www.w3.org/2000/svg" xmlns:xlink="http://www.w3.org/1999/xlink">
<g id="graph0" class="graph" transform="scale(1 1) rotate(0) translate(4 505)">
<title>fcl::MeshShapeConservativeAdvancementTraversalNodeRSS&lt; S, NarrowPhaseSolver &gt;</title>
<polygon fill="white" stroke="none" points="-4,4 -4,-505 2242,-505 2242,4 -4,4"/>
<!-- Node1 -->
<g id="node1" class="node"><title>Node1</title>
<polygon fill="#bfbfbf" stroke="black" points="2076.5,-47.5 2076.5,-88.5 2237.5,-88.5 2237.5,-47.5 2076.5,-47.5"/>
<text text-anchor="start" x="2084.5" y="-76.5" font-family="Helvetica,sans-Serif" font-size="10.00">fcl::MeshShapeConservative</text>
<text text-anchor="start" x="2084.5" y="-65.5" font-family="Helvetica,sans-Serif" font-size="10.00">AdvancementTraversalNodeRSS</text>
<text text-anchor="middle" x="2157" y="-54.5" font-family="Helvetica,sans-Serif" font-size="10.00">&lt; S, NarrowPhaseSolver &gt;</text>
</g>
<!-- Node2 -->
<g id="node2" class="node"><title>Node2</title>
<g id="a_node2"><a xlink:href="a00129.html" target="_top" xlink:title="fcl::MeshShapeConservative\lAdvancementTraversalNode\l\&lt; RSS, S, NarrowPhaseSolver \&gt;">
<polygon fill="white" stroke="black" points="1876.5,-47.5 1876.5,-88.5 2037.5,-88.5 2037.5,-47.5 1876.5,-47.5"/>
<text text-anchor="start" x="1884.5" y="-76.5" font-family="Helvetica,sans-Serif" font-size="10.00">fcl::MeshShapeConservative</text>
<text text-anchor="start" x="1884.5" y="-65.5" font-family="Helvetica,sans-Serif" font-size="10.00">AdvancementTraversalNode</text>
<text text-anchor="middle" x="1957" y="-54.5" font-family="Helvetica,sans-Serif" font-size="10.00">&lt; RSS, S, NarrowPhaseSolver &gt;</text>
</a>
</g>
</g>
<!-- Node2&#45;&gt;Node1 -->
<g id="edge1" class="edge"><title>Node2&#45;&gt;Node1</title>
<path fill="none" stroke="midnightblue" d="M2047.95,-68C2057.47,-68 2067.1,-68 2076.48,-68"/>
<polygon fill="midnightblue" stroke="midnightblue" points="2047.68,-64.5001 2037.68,-68 2047.68,-71.5001 2047.68,-64.5001"/>
</g>
<!-- Node3 -->
<g id="node3" class="node"><title>Node3</title>
<g id="a_node3"><a xlink:href="a00132.html" target="_top" xlink:title="fcl::MeshShapeDistanceTraversal\lNode\&lt; RSS, S, NarrowPhaseSolver \&gt;">
<polygon fill="white" stroke="black" points="1616.5,-148 1616.5,-178 1801.5,-178 1801.5,-148 1616.5,-148"/>
<text text-anchor="start" x="1624.5" y="-166" font-family="Helvetica,sans-Serif" font-size="10.00">fcl::MeshShapeDistanceTraversal</text>
<text text-anchor="middle" x="1709" y="-155" font-family="Helvetica,sans-Serif" font-size="10.00">Node&lt; RSS, S, NarrowPhaseSolver &gt;</text>
</a>
</g>
</g>
<!-- Node3&#45;&gt;Node2 -->
<g id="edge2" class="edge"><title>Node3&#45;&gt;Node2</title>
<path fill="none" stroke="midnightblue" d="M1758.33,-144.335C1799.85,-128.301 1859.63,-105.216 1902.56,-88.6365"/>
<polygon fill="midnightblue" stroke="midnightblue" points="1757.05,-141.079 1748.98,-147.947 1759.57,-147.609 1757.05,-141.079"/>
</g>
<!-- Node4 -->
<g id="node4" class="node"><title>Node4</title>
<g id="a_node4"><a xlink:href="a00024.html" target="_top" xlink:title="fcl::BVHShapeDistanceTraversal\lNode\&lt; RSS, S \&gt;">
<polygon fill="white" stroke="black" points="1382.5,-275 1382.5,-305 1543.5,-305 1543.5,-275 1382.5,-275"/>
<text text-anchor="start" x="1390.5" y="-293" font-family="Helvetica,sans-Serif" font-size="10.00">fcl::BVHShapeDistanceTraversal</text>
<text text-anchor="middle" x="1463" y="-282" font-family="Helvetica,sans-Serif" font-size="10.00">Node&lt; RSS, S &gt;</text>
</a>
</g>
</g>
<!-- Node4&#45;&gt;Node3 -->
<g id="edge3" class="edge"><title>Node4&#45;&gt;Node3</title>
<path fill="none" stroke="midnightblue" d="M1508.51,-270.752C1534.85,-259.03 1568.69,-243.39 1598,-228 1628.24,-212.118 1661.91,-191.822 1683.93,-178.17"/>
<polygon fill="midnightblue" stroke="midnightblue" points="1506.9,-267.639 1499.17,-274.886 1509.73,-274.04 1506.9,-267.639"/>
</g>
<!-- Node5 -->
<g id="node5" class="node"><title>Node5</title>
<g id="a_node5"><a xlink:href="a00056.html" target="_top" xlink:title="Node structure encoding the information required for distance traversal. ">
<polygon fill="white" stroke="black" points="1140,-411.5 1140,-430.5 1298,-430.5 1298,-411.5 1140,-411.5"/>
<text text-anchor="middle" x="1219" y="-418.5" font-family="Helvetica,sans-Serif" font-size="10.00">fcl::DistanceTraversalNodeBase</text>
</a>
</g>
</g>
<!-- Node5&#45;&gt;Node4 -->
<g id="edge4" class="edge"><title>Node5&#45;&gt;Node4</title>
<path fill="none" stroke="midnightblue" d="M1246.61,-406.598C1292.71,-381.64 1387.01,-330.592 1434.04,-305.134"/>
<polygon fill="midnightblue" stroke="midnightblue" points="1244.92,-403.529 1237.79,-411.367 1248.26,-409.685 1244.92,-403.529"/>
</g>
<!-- Node6 -->
<g id="node6" class="node"><title>Node6</title>
<g id="a_node6"><a xlink:href="a00244.html" target="_top" xlink:title="Node structure encoding the information required for traversal. ">
<polygon fill="white" stroke="black" points="922.5,-469.5 922.5,-488.5 1041.5,-488.5 1041.5,-469.5 922.5,-469.5"/>
<text text-anchor="middle" x="982" y="-476.5" font-family="Helvetica,sans-Serif" font-size="10.00">fcl::TraversalNodeBase</text>
</a>
</g>
</g>
<!-- Node6&#45;&gt;Node5 -->
<g id="edge5" class="edge"><title>Node6&#45;&gt;Node5</title>
<path fill="none" stroke="midnightblue" d="M1038.71,-467.306C1064.18,-461.772 1094.7,-454.879 1122,-448 1143.32,-442.628 1167.11,-435.941 1185.68,-430.566"/>
<polygon fill="midnightblue" stroke="midnightblue" points="1037.89,-463.903 1028.85,-469.435 1039.36,-470.745 1037.89,-463.903"/>
</g>
<!-- Node7 -->
<g id="node7" class="node"><title>Node7</title>
<g id="a_node7"><a xlink:href="a00242.html" target="_top" xlink:title="Simple transform class used locally by InterpMotion. ">
<polygon fill="white" stroke="black" points="636,-469.5 636,-488.5 722,-488.5 722,-469.5 636,-469.5"/>
<text text-anchor="middle" x="679" y="-476.5" font-family="Helvetica,sans-Serif" font-size="10.00">fcl::Transform3f</text>
</a>
</g>
</g>
<!-- Node7&#45;&gt;Node6 -->
<g id="edge6" class="edge"><title>Node7&#45;&gt;Node6</title>
<path fill="none" stroke="#9a32cd" stroke-dasharray="5,2" d="M732.37,-479C785.373,-479 867.163,-479 922.321,-479"/>
<polygon fill="#9a32cd" stroke="#9a32cd" points="732.17,-475.5 722.17,-479 732.17,-482.5 732.17,-475.5"/>
<text text-anchor="middle" x="831" y="-493" font-family="Helvetica,sans-Serif" font-size="10.00"> tf1</text>
<text text-anchor="middle" x="831" y="-482" font-family="Helvetica,sans-Serif" font-size="10.00">tf2</text>
</g>
<!-- Node8 -->
<g id="node8" class="node"><title>Node8</title>
<g id="a_node8"><a xlink:href="a00055.html" target="_top" xlink:title="distance result ">
<polygon fill="white" stroke="black" points="931.5,-431.5 931.5,-450.5 1032.5,-450.5 1032.5,-431.5 931.5,-431.5"/>
<text text-anchor="middle" x="982" y="-438.5" font-family="Helvetica,sans-Serif" font-size="10.00">fcl::DistanceResult</text>
</a>
</g>
</g>
<!-- Node8&#45;&gt;Node5 -->
<g id="edge7" class="edge"><title>Node8&#45;&gt;Node5</title>
<path fill="none" stroke="#9a32cd" stroke-dasharray="5,2" d="M1042.7,-435.919C1072.2,-433.408 1108.18,-430.347 1139.84,-427.652"/>
<polygon fill="#9a32cd" stroke="#9a32cd" points="1042.22,-432.447 1032.55,-436.783 1042.81,-439.422 1042.22,-432.447"/>
<text text-anchor="middle" x="1091" y="-436" font-family="Helvetica,sans-Serif" font-size="10.00"> result</text>
</g>
<!-- Node9 -->
<g id="node9" class="node"><title>Node9</title>
<g id="a_node9"><a xlink:href="a00069.html" target="_top" xlink:title="Eigen::FclMatrix\&lt; FCL\l_REAL, 1 \&gt;">
<polygon fill="white" stroke="black" points="182,-310 182,-340 298,-340 298,-310 182,-310"/>
<text text-anchor="start" x="190" y="-328" font-family="Helvetica,sans-Serif" font-size="10.00">Eigen::FclMatrix&lt; FCL</text>
<text text-anchor="middle" x="240" y="-317" font-family="Helvetica,sans-Serif" font-size="10.00">_REAL, 1 &gt;</text>
</a>
</g>
</g>
<!-- Node9&#45;&gt;Node2 -->
<g id="edge33" class="edge"><title>Node9&#45;&gt;Node2</title>
<path fill="none" stroke="#9a32cd" stroke-dasharray="5,2" d="M248.269,-300.123C267.792,-239.112 327.451,-87 437,-87 437,-87 437,-87 1710,-87 1765.69,-87 1828.25,-82.1004 1876.35,-77.2774"/>
<polygon fill="#9a32cd" stroke="#9a32cd" points="244.903,-299.162 245.282,-309.75 251.588,-301.236 244.903,-299.162"/>
<text text-anchor="middle" x="1091" y="-101" font-family="Helvetica,sans-Serif" font-size="10.00"> closest_p1</text>
<text text-anchor="middle" x="1091" y="-90" font-family="Helvetica,sans-Serif" font-size="10.00">closest_p2</text>
</g>
<!-- Node9&#45;&gt;Node8 -->
<g id="edge8" class="edge"><title>Node9&#45;&gt;Node8</title>
<path fill="none" stroke="#9a32cd" stroke-dasharray="5,2" d="M265.721,-346.803C288.789,-365.525 325.103,-391.023 362,-401 567.573,-456.588 824.906,-450.165 931.37,-444.364"/>
<polygon fill="#9a32cd" stroke="#9a32cd" points="267.772,-343.957 257.846,-340.254 263.296,-349.339 267.772,-343.957"/>
<text text-anchor="middle" x="566" y="-442" font-family="Helvetica,sans-Serif" font-size="10.00"> nearest_points</text>
</g>
<!-- Node12 -->
<g id="node12" class="node"><title>Node12</title>
<g id="a_node12"><a xlink:href="a00032.html" target="_top" xlink:title="The geometry for the object for collision or distance computation. ">
<polygon fill="white" stroke="black" points="622.5,-373.5 622.5,-392.5 735.5,-392.5 735.5,-373.5 622.5,-373.5"/>
<text text-anchor="middle" x="679" y="-380.5" font-family="Helvetica,sans-Serif" font-size="10.00">fcl::CollisionGeometry</text>
</a>
</g>
</g>
<!-- Node9&#45;&gt;Node12 -->
<g id="edge14" class="edge"><title>Node9&#45;&gt;Node12</title>
<path fill="none" stroke="#9a32cd" stroke-dasharray="5,2" d="M275.508,-344.889C287.892,-351.119 302.211,-357.321 316,-361 421.549,-389.161 550.305,-389.256 622.33,-386.392"/>
<polygon fill="#9a32cd" stroke="#9a32cd" points="276.94,-341.688 266.455,-340.161 273.699,-347.893 276.94,-341.688"/>
<text text-anchor="middle" x="438" y="-389" font-family="Helvetica,sans-Serif" font-size="10.00"> aabb_center</text>
</g>
<!-- Node13 -->
<g id="node13" class="node"><title>Node13</title>
<g id="a_node13"><a xlink:href="a00003.html" target="_top" xlink:title="A class describing the AABB collision structure, which is a box in 3D space determined by two diagona...">
<polygon fill="white" stroke="black" points="408,-335.5 408,-354.5 468,-354.5 468,-335.5 408,-335.5"/>
<text text-anchor="middle" x="438" y="-342.5" font-family="Helvetica,sans-Serif" font-size="10.00">fcl::AABB</text>
</a>
</g>
</g>
<!-- Node9&#45;&gt;Node13 -->
<g id="edge13" class="edge"><title>Node9&#45;&gt;Node13</title>
<path fill="none" stroke="#9a32cd" stroke-dasharray="5,2" d="M308.538,-331.892C342.415,-335.349 381.685,-339.356 407.801,-342.02"/>
<polygon fill="#9a32cd" stroke="#9a32cd" points="308.522,-328.372 298.218,-330.839 307.811,-335.336 308.522,-328.372"/>
<text text-anchor="middle" x="330" y="-349" font-family="Helvetica,sans-Serif" font-size="10.00"> max_</text>
<text text-anchor="middle" x="330" y="-338" font-family="Helvetica,sans-Serif" font-size="10.00">min_</text>
</g>
<!-- Node15 -->
<g id="node15" class="node"><title>Node15</title>
<g id="a_node15"><a xlink:href="a00181.html" target="_top" xlink:title="A class for rectangle sphere&#45;swept bounding volume. ">
<polygon fill="white" stroke="black" points="539,-304.5 539,-323.5 593,-323.5 593,-304.5 539,-304.5"/>
<text text-anchor="middle" x="566" y="-311.5" font-family="Helvetica,sans-Serif" font-size="10.00">fcl::RSS</text>
</a>
</g>
</g>
<!-- Node9&#45;&gt;Node15 -->
<g id="edge17" class="edge"><title>Node9&#45;&gt;Node15</title>
<path fill="none" stroke="#9a32cd" stroke-dasharray="5,2" d="M308.238,-309.007C310.852,-308.625 313.446,-308.286 316,-308 396.79,-298.958 493.207,-306.433 538.728,-311.041"/>
<polygon fill="#9a32cd" stroke="#9a32cd" points="307.401,-305.598 298.104,-310.678 308.54,-312.505 307.401,-305.598"/>
<text text-anchor="middle" x="330" y="-322" font-family="Helvetica,sans-Serif" font-size="10.00"> Tr</text>
<text text-anchor="middle" x="330" y="-311" font-family="Helvetica,sans-Serif" font-size="10.00">axis</text>
</g>
<!-- Node26 -->
<g id="node26" class="node"><title>Node26</title>
<g id="a_node26"><a xlink:href="a00039.html" target="_top" xlink:title="fcl::ConservativeAdvancement\lStackData">
<polygon fill="white" stroke="black" points="362.5,-24 362.5,-54 513.5,-54 513.5,-24 362.5,-24"/>
<text text-anchor="start" x="370.5" y="-42" font-family="Helvetica,sans-Serif" font-size="10.00">fcl::ConservativeAdvancement</text>
<text text-anchor="middle" x="438" y="-31" font-family="Helvetica,sans-Serif" font-size="10.00">StackData</text>
</a>
</g>
</g>
<!-- Node9&#45;&gt;Node26 -->
<g id="edge32" class="edge"><title>Node9&#45;&gt;Node26</title>
<path fill="none" stroke="#9a32cd" stroke-dasharray="5,2" d="M244.239,-299.909C252.702,-238.538 277.519,-83.493 316,-51 328.903,-40.1045 345.558,-34.8468 362.36,-32.7673"/>
<polygon fill="#9a32cd" stroke="#9a32cd" points="240.759,-299.525 242.892,-309.903 247.697,-300.46 240.759,-299.525"/>
<text text-anchor="middle" x="330" y="-65" font-family="Helvetica,sans-Serif" font-size="10.00"> P1</text>
<text text-anchor="middle" x="330" y="-54" font-family="Helvetica,sans-Serif" font-size="10.00">P2</text>
</g>
<!-- Node10 -->
<g id="node10" class="node"><title>Node10</title>
<polygon fill="white" stroke="#bfbfbf" points="6.5,-335 6.5,-387 137.5,-387 137.5,-335 6.5,-335"/>
<text text-anchor="start" x="14.5" y="-375" font-family="Helvetica,sans-Serif" font-size="10.00">Matrix&lt; FCL_REAL ,</text>
<text text-anchor="start" x="14.5" y="-364" font-family="Helvetica,sans-Serif" font-size="10.00"> 3, Cols, internal::</text>
<text text-anchor="start" x="14.5" y="-353" font-family="Helvetica,sans-Serif" font-size="10.00">traits&lt;Matrix &lt;FCL_REAL</text>
<text text-anchor="middle" x="72" y="-342" font-family="Helvetica,sans-Serif" font-size="10.00"> , 3, Cols&gt; &gt;::Options &gt;</text>
</g>
<!-- Node10&#45;&gt;Node9 -->
<g id="edge9" class="edge"><title>Node10&#45;&gt;Node9</title>
<path fill="none" stroke="midnightblue" d="M147.655,-344.81C159.123,-342.323 170.805,-339.789 181.814,-337.402"/>
<polygon fill="midnightblue" stroke="midnightblue" points="146.686,-341.438 137.655,-346.978 148.17,-348.279 146.686,-341.438"/>
</g>
<!-- Node11 -->
<g id="node11" class="node"><title>Node11</title>
<g id="a_node11"><a xlink:href="a00073.html" target="_top" xlink:title="fcl::FclType\&lt; FclMatrix\l\&lt; FCL_REAL, Cols, internal\l::traits\&lt; Matrix\&lt; FCL_REAL,\l 3, Cols \&gt; \&gt;::Options \&gt; \&gt;">
<polygon fill="white" stroke="black" points="0.5,-264 0.5,-316 143.5,-316 143.5,-264 0.5,-264"/>
<text text-anchor="start" x="8.5" y="-304" font-family="Helvetica,sans-Serif" font-size="10.00">fcl::FclType&lt; FclMatrix</text>
<text text-anchor="start" x="8.5" y="-293" font-family="Helvetica,sans-Serif" font-size="10.00">&lt; FCL_REAL, Cols, internal</text>
<text text-anchor="start" x="8.5" y="-282" font-family="Helvetica,sans-Serif" font-size="10.00">::traits&lt; Matrix&lt; FCL_REAL,</text>
<text text-anchor="middle" x="72" y="-271" font-family="Helvetica,sans-Serif" font-size="10.00"> 3, Cols &gt; &gt;::Options &gt; &gt;</text>
</a>
</g>
</g>
<!-- Node11&#45;&gt;Node9 -->
<g id="edge10" class="edge"><title>Node11&#45;&gt;Node9</title>
<path fill="none" stroke="midnightblue" d="M153.751,-307.026C163.257,-309.03 172.802,-311.043 181.887,-312.958"/>
<polygon fill="midnightblue" stroke="midnightblue" points="154.387,-303.583 143.88,-304.945 152.943,-310.433 154.387,-303.583"/>
</g>
<!-- Node12&#45;&gt;Node8 -->
<g id="edge11" class="edge"><title>Node12&#45;&gt;Node8</title>
<path fill="none" stroke="#9a32cd" stroke-dasharray="5,2" d="M745.872,-383.282C801.804,-384.482 877.144,-388.651 904,-402 914.709,-407.323 911.963,-415.499 922,-422 927.871,-425.803 934.564,-428.899 941.283,-431.403"/>
<polygon fill="#9a32cd" stroke="#9a32cd" points="745.734,-379.779 735.67,-383.091 745.603,-386.778 745.734,-379.779"/>
<text text-anchor="middle" x="831" y="-416" font-family="Helvetica,sans-Serif" font-size="10.00"> o1</text>
<text text-anchor="middle" x="831" y="-405" font-family="Helvetica,sans-Serif" font-size="10.00">o2</text>
</g>
<!-- Node17 -->
<g id="node17" class="node"><title>Node17</title>
<g id="a_node17"><a xlink:href="a00022.html" target="_top" xlink:title="fcl::BVHModel\&lt; RSS \&gt;">
<polygon fill="white" stroke="black" points="1159.5,-242.5 1159.5,-261.5 1278.5,-261.5 1278.5,-242.5 1159.5,-242.5"/>
<text text-anchor="middle" x="1219" y="-249.5" font-family="Helvetica,sans-Serif" font-size="10.00">fcl::BVHModel&lt; RSS &gt;</text>
</a>
</g>
</g>
<!-- Node12&#45;&gt;Node17 -->
<g id="edge20" class="edge"><title>Node12&#45;&gt;Node17</title>
<path fill="none" stroke="midnightblue" d="M745.866,-379.309C835.154,-373.631 989.49,-361.239 1042,-341 1091.94,-321.75 1091.34,-293.293 1140,-271 1148.36,-267.169 1157.6,-264.05 1166.7,-261.531"/>
<polygon fill="midnightblue" stroke="midnightblue" points="745.604,-375.818 735.842,-379.935 746.041,-382.804 745.604,-375.818"/>
</g>
<!-- Node13&#45;&gt;Node12 -->
<g id="edge12" class="edge"><title>Node13&#45;&gt;Node12</title>
<path fill="none" stroke="#9a32cd" stroke-dasharray="5,2" d="M478.255,-349.177C510.941,-352.881 558.652,-358.811 600,-366 612.153,-368.113 625.283,-370.811 637.242,-373.433"/>
<polygon fill="#9a32cd" stroke="#9a32cd" points="478.524,-345.685 468.198,-348.054 477.747,-352.642 478.524,-345.685"/>
<text text-anchor="middle" x="566" y="-369" font-family="Helvetica,sans-Serif" font-size="10.00"> aabb_local</text>
</g>
<!-- Node14 -->
<g id="node14" class="node"><title>Node14</title>
<g id="a_node14"><a xlink:href="a00054.html" target="_top" xlink:title="request to the distance computation ">
<polygon fill="white" stroke="black" points="927.5,-393.5 927.5,-412.5 1036.5,-412.5 1036.5,-393.5 927.5,-393.5"/>
<text text-anchor="middle" x="982" y="-400.5" font-family="Helvetica,sans-Serif" font-size="10.00">fcl::DistanceRequest</text>
</a>
</g>
</g>
<!-- Node14&#45;&gt;Node5 -->
<g id="edge15" class="edge"><title>Node14&#45;&gt;Node5</title>
<path fill="none" stroke="#9a32cd" stroke-dasharray="5,2" d="M1046.82,-402.595C1070.47,-402.913 1097.5,-403.831 1122,-406 1136.11,-407.249 1151.3,-409.294 1165.34,-411.477"/>
<polygon fill="#9a32cd" stroke="#9a32cd" points="1046.59,-399.092 1036.56,-402.491 1046.52,-406.092 1046.59,-399.092"/>
<text text-anchor="middle" x="1091" y="-409" font-family="Helvetica,sans-Serif" font-size="10.00"> request</text>
</g>
<!-- Node15&#45;&gt;Node4 -->
<g id="edge16" class="edge"><title>Node15&#45;&gt;Node4</title>
<path fill="none" stroke="#9a32cd" stroke-dasharray="5,2" d="M603.468,-314.443C710.264,-315.59 1031.59,-317.978 1298,-309 1327.37,-308.01 1334.78,-308.115 1364,-305 1369.99,-304.361 1376.17,-303.617 1382.39,-302.808"/>
<polygon fill="#9a32cd" stroke="#9a32cd" points="603.273,-310.94 593.235,-314.329 603.195,-317.94 603.273,-310.94"/>
<text text-anchor="middle" x="982" y="-319" font-family="Helvetica,sans-Serif" font-size="10.00"> model2_bv</text>
</g>
<!-- Node16 -->
<g id="node16" class="node"><title>Node16</title>
<polygon fill="white" stroke="#bfbfbf" points="1204.5,-280.5 1204.5,-299.5 1233.5,-299.5 1233.5,-280.5 1204.5,-280.5"/>
<text text-anchor="middle" x="1219" y="-287.5" font-family="Helvetica,sans-Serif" font-size="10.00">S</text>
</g>
<!-- Node16&#45;&gt;Node4 -->
<g id="edge18" class="edge"><title>Node16&#45;&gt;Node4</title>
<path fill="none" stroke="#9a32cd" stroke-dasharray="5,2" d="M1243.84,-290C1275.77,-290 1333.98,-290 1382.25,-290"/>
<polygon fill="#9a32cd" stroke="#9a32cd" points="1243.7,-286.5 1233.7,-290 1243.7,-293.5 1243.7,-286.5"/>
<text text-anchor="middle" x="1340" y="-293" font-family="Helvetica,sans-Serif" font-size="10.00"> model2</text>
</g>
<!-- Node17&#45;&gt;Node4 -->
<g id="edge19" class="edge"><title>Node17&#45;&gt;Node4</title>
<path fill="none" stroke="#9a32cd" stroke-dasharray="5,2" d="M1288.69,-262.786C1317.91,-267.374 1352.16,-272.753 1382.47,-277.512"/>
<polygon fill="#9a32cd" stroke="#9a32cd" points="1289,-259.292 1278.58,-261.199 1287.92,-266.208 1289,-259.292"/>
<text text-anchor="middle" x="1340" y="-278" font-family="Helvetica,sans-Serif" font-size="10.00"> model1</text>
</g>
<!-- Node18 -->
<g id="node18" class="node"><title>Node18</title>
<polygon fill="white" stroke="#bfbfbf" points="946.5,-268.5 946.5,-287.5 1017.5,-287.5 1017.5,-268.5 946.5,-268.5"/>
<text text-anchor="middle" x="982" y="-275.5" font-family="Helvetica,sans-Serif" font-size="10.00">noncopyable</text>
</g>
<!-- Node18&#45;&gt;Node17 -->
<g id="edge21" class="edge"><title>Node18&#45;&gt;Node17</title>
<path fill="none" stroke="#8b1a1a" d="M1027.76,-273.047C1065.14,-268.912 1118.7,-262.986 1159.48,-258.475"/>
<polygon fill="#8b1a1a" stroke="#8b1a1a" points="1027.23,-269.585 1017.68,-274.164 1028,-276.543 1027.23,-269.585"/>
</g>
<!-- Node19 -->
<g id="node19" class="node"><title>Node19</title>
<g id="a_node19"><a xlink:href="a00245.html" target="_top" xlink:title="Triangle with 3 indices for points. ">
<polygon fill="white" stroke="black" points="948,-219.5 948,-238.5 1016,-238.5 1016,-219.5 948,-219.5"/>
<text text-anchor="middle" x="982" y="-226.5" font-family="Helvetica,sans-Serif" font-size="10.00">fcl::Triangle</text>
</a>
</g>
</g>
<!-- Node19&#45;&gt;Node3 -->
<g id="edge27" class="edge"><title>Node19&#45;&gt;Node3</title>
<path fill="none" stroke="#9a32cd" stroke-dasharray="5,2" d="M1026.11,-225.985C1126.5,-218.824 1383.68,-199.689 1598,-177 1604.03,-176.362 1610.24,-175.668 1616.5,-174.943"/>
<polygon fill="#9a32cd" stroke="#9a32cd" points="1025.77,-222.499 1016.05,-226.699 1026.27,-229.482 1025.77,-222.499"/>
<text text-anchor="middle" x="1340" y="-207" font-family="Helvetica,sans-Serif" font-size="10.00"> tri_indices</text>
</g>
<!-- Node19&#45;&gt;Node17 -->
<g id="edge22" class="edge"><title>Node19&#45;&gt;Node17</title>
<path fill="none" stroke="#9a32cd" stroke-dasharray="5,2" d="M1026.23,-233.231C1063.57,-236.885 1117.86,-242.199 1159.16,-246.241"/>
<polygon fill="#9a32cd" stroke="#9a32cd" points="1026.46,-229.737 1016.17,-232.247 1025.78,-236.704 1026.46,-229.737"/>
<text text-anchor="middle" x="1091" y="-246" font-family="Helvetica,sans-Serif" font-size="10.00"> tri_indices</text>
</g>
<!-- Node20 -->
<g id="node20" class="node"><title>Node20</title>
<g id="a_node20"><a xlink:href="a00069.html" target="_top" xlink:title="Vector3 class wrapper. The core data is in the template parameter class. ">
<polygon fill="white" stroke="black" points="929,-147 929,-177 1035,-177 1035,-147 929,-147"/>
<text text-anchor="start" x="937" y="-165" font-family="Helvetica,sans-Serif" font-size="10.00">Eigen::FclMatrix&lt; T,</text>
<text text-anchor="middle" x="982" y="-154" font-family="Helvetica,sans-Serif" font-size="10.00"> Cols, _Options &gt;</text>
</a>
</g>
</g>
<!-- Node20&#45;&gt;Node3 -->
<g id="edge28" class="edge"><title>Node20&#45;&gt;Node3</title>
<path fill="none" stroke="#9a32cd" stroke-dasharray="5,2" d="M1045.17,-162.086C1173.13,-162.262 1466.52,-162.667 1616.33,-162.874"/>
<polygon fill="#9a32cd" stroke="#9a32cd" points="1045.15,-158.586 1035.14,-162.072 1045.14,-165.586 1045.15,-158.586"/>
<text text-anchor="middle" x="1340" y="-166" font-family="Helvetica,sans-Serif" font-size="10.00"> vertices</text>
</g>
<!-- Node20&#45;&gt;Node17 -->
<g id="edge23" class="edge"><title>Node20&#45;&gt;Node17</title>
<path fill="none" stroke="#9a32cd" stroke-dasharray="5,2" d="M1036.37,-180.502C1062.32,-189.676 1093.91,-201.103 1122,-212 1147.59,-221.926 1176.63,-234.166 1196.01,-242.473"/>
<polygon fill="#9a32cd" stroke="#9a32cd" points="1037.31,-177.123 1026.72,-177.102 1034.99,-183.726 1037.31,-177.123"/>
<text text-anchor="middle" x="1091" y="-226" font-family="Helvetica,sans-Serif" font-size="10.00"> prev_vertices</text>
<text text-anchor="middle" x="1091" y="-215" font-family="Helvetica,sans-Serif" font-size="10.00">vertices</text>
</g>
<!-- Node21 -->
<g id="node21" class="node"><title>Node21</title>
<polygon fill="white" stroke="#bfbfbf" points="627,-180 627,-210 731,-210 731,-180 627,-180"/>
<text text-anchor="start" x="635" y="-198" font-family="Helvetica,sans-Serif" font-size="10.00">Eigen::Matrix&lt; T, 3,</text>
<text text-anchor="middle" x="679" y="-187" font-family="Helvetica,sans-Serif" font-size="10.00"> Cols, _Options &gt;</text>
</g>
<!-- Node21&#45;&gt;Node20 -->
<g id="edge24" class="edge"><title>Node21&#45;&gt;Node20</title>
<path fill="none" stroke="midnightblue" d="M741.064,-188.305C796.279,-182.252 876.694,-173.435 928.931,-167.709"/>
<polygon fill="midnightblue" stroke="midnightblue" points="740.62,-184.833 731.061,-189.402 741.382,-191.791 740.62,-184.833"/>
</g>
<!-- Node22 -->
<g id="node22" class="node"><title>Node22</title>
<g id="a_node22"><a xlink:href="a00073.html" target="_top" xlink:title="fcl::FclType\&lt; FclMatrix\l\&lt; T, Cols, _Options \&gt; \&gt;">
<polygon fill="white" stroke="black" points="618.5,-131 618.5,-161 739.5,-161 739.5,-131 618.5,-131"/>
<text text-anchor="start" x="626.5" y="-149" font-family="Helvetica,sans-Serif" font-size="10.00">fcl::FclType&lt; FclMatrix</text>
<text text-anchor="middle" x="679" y="-138" font-family="Helvetica,sans-Serif" font-size="10.00">&lt; T, Cols, _Options &gt; &gt;</text>
</a>
</g>
</g>
<!-- Node22&#45;&gt;Node20 -->
<g id="edge25" class="edge"><title>Node22&#45;&gt;Node20</title>
<path fill="none" stroke="midnightblue" d="M750.129,-149.728C804.757,-152.632 879.377,-156.598 928.821,-159.226"/>
<polygon fill="midnightblue" stroke="midnightblue" points="750,-146.216 739.828,-149.18 749.628,-153.206 750,-146.216"/>
</g>
<!-- Node23 -->
<g id="node23" class="node"><title>Node23</title>
<polygon fill="white" stroke="#bfbfbf" points="1411,-115.5 1411,-134.5 1515,-134.5 1515,-115.5 1411,-115.5"/>
<text text-anchor="middle" x="1463" y="-122.5" font-family="Helvetica,sans-Serif" font-size="10.00">NarrowPhaseSolver</text>
</g>
<!-- Node23&#45;&gt;Node3 -->
<g id="edge26" class="edge"><title>Node23&#45;&gt;Node3</title>
<path fill="none" stroke="#9a32cd" stroke-dasharray="5,2" d="M1525.36,-129.308C1548.24,-131.346 1574.39,-134.187 1598,-138 1614.43,-140.654 1632.08,-144.301 1648.33,-147.99"/>
<polygon fill="#9a32cd" stroke="#9a32cd" points="1525.36,-125.795 1515.1,-128.427 1524.76,-132.769 1525.36,-125.795"/>
<text text-anchor="middle" x="1580" y="-141" font-family="Helvetica,sans-Serif" font-size="10.00"> nsolver</text>
</g>
<!-- Node24 -->
<g id="node24" class="node"><title>Node24</title>
<g id="a_node24"><a xlink:href="a00144.html" target="_top" xlink:title="fcl::MotionBase">
<polygon fill="white" stroke="black" points="1666.5,-39.5 1666.5,-58.5 1751.5,-58.5 1751.5,-39.5 1666.5,-39.5"/>
<text text-anchor="middle" x="1709" y="-46.5" font-family="Helvetica,sans-Serif" font-size="10.00">fcl::MotionBase</text>
</a>
</g>
</g>
<!-- Node24&#45;&gt;Node2 -->
<g id="edge29" class="edge"><title>Node24&#45;&gt;Node2</title>
<path fill="none" stroke="#9a32cd" stroke-dasharray="5,2" d="M1761.69,-47.6993C1790.16,-47.485 1826.1,-48.0361 1858,-51 1864.02,-51.5591 1870.22,-52.283 1876.45,-53.1164"/>
<polygon fill="#9a32cd" stroke="#9a32cd" points="1761.52,-44.2009 1751.56,-47.8099 1761.6,-51.2005 1761.52,-44.2009"/>
<text text-anchor="middle" x="1839" y="-65" font-family="Helvetica,sans-Serif" font-size="10.00"> motion1</text>
<text text-anchor="middle" x="1839" y="-54" font-family="Helvetica,sans-Serif" font-size="10.00">motion2</text>
</g>
<!-- Node25 -->
<g id="node25" class="node"><title>Node25</title>
<polygon fill="white" stroke="#bfbfbf" points="758,-0 758,-30 904,-30 904,-0 758,-0"/>
<text text-anchor="start" x="766" y="-18" font-family="Helvetica,sans-Serif" font-size="10.00">std::vector&lt; fcl::Conservative</text>
<text text-anchor="middle" x="831" y="-7" font-family="Helvetica,sans-Serif" font-size="10.00">AdvancementStackData &gt;</text>
</g>
<!-- Node25&#45;&gt;Node2 -->
<g id="edge30" class="edge"><title>Node25&#45;&gt;Node2</title>
<path fill="none" stroke="#9a32cd" stroke-dasharray="5,2" d="M914.248,-13.0752C964.92,-12.0508 1031.22,-11 1090,-11 1090,-11 1090,-11 1710,-11 1776.64,-11 1850.87,-31.0947 1900.18,-47.4217"/>
<polygon fill="#9a32cd" stroke="#9a32cd" points="913.93,-9.58092 904.005,-13.2862 914.075,-16.5794 913.93,-9.58092"/>
<text text-anchor="middle" x="1340" y="-14" font-family="Helvetica,sans-Serif" font-size="10.00"> stack</text>
</g>
<!-- Node26&#45;&gt;Node25 -->
<g id="edge31" class="edge"><title>Node26&#45;&gt;Node25</title>
<path fill="none" stroke="#9a32cd" stroke-dasharray="5,2" d="M524.029,-33.7808C593.931,-29.4902 691.882,-23.4778 757.969,-19.4214"/>
<polygon fill="#9a32cd" stroke="#9a32cd" points="523.693,-30.2948 513.926,-34.401 524.122,-37.2816 523.693,-30.2948"/>
<text text-anchor="middle" x="566" y="-36" font-family="Helvetica,sans-Serif" font-size="10.00"> elements</text>
</g>
</g>
</svg>
