<?xml version="1.0" encoding="UTF-8" standalone="no"?>
<!DOCTYPE svg PUBLIC "-//W3C//DTD SVG 1.1//EN"
 "http://www.w3.org/Graphics/SVG/1.1/DTD/svg11.dtd">
<!-- Generated by graphviz version 2.36.0 (20140111.2315)
 -->
<!-- Title: fcl::IntervalTree Pages: 1 -->
<svg width="162pt" height="186pt"
 viewBox="0.00 0.00 162.00 186.00" xmlns="http://www.w3.org/2000/svg" xmlns:xlink="http://www.w3.org/1999/xlink">
<g id="graph0" class="graph" transform="scale(1 1) rotate(0) translate(4 182)">
<title>fcl::IntervalTree</title>
<polygon fill="white" stroke="none" points="-4,4 -4,-182 158,-182 158,4 -4,4"/>
<!-- Node1 -->
<g id="node1" class="node"><title>Node1</title>
<polygon fill="#bfbfbf" stroke="black" points="11.5,-0.5 11.5,-19.5 96.5,-19.5 96.5,-0.5 11.5,-0.5"/>
<text text-anchor="middle" x="54" y="-7.5" font-family="Helvetica,sans-Serif" font-size="10.00">fcl::IntervalTree</text>
</g>
<!-- Node2 -->
<g id="node2" class="node"><title>Node2</title>
<g id="a_node2"><a xlink:href="a00097.html" target="_top" xlink:title="The node for interval tree. ">
<polygon fill="white" stroke="black" points="0,-84.5 0,-103.5 108,-103.5 108,-84.5 0,-84.5"/>
<text text-anchor="middle" x="54" y="-91.5" font-family="Helvetica,sans-Serif" font-size="10.00">fcl::IntervalTreeNode</text>
</a>
</g>
</g>
<!-- Node2&#45;&gt;Node1 -->
<g id="edge1" class="edge"><title>Node2&#45;&gt;Node1</title>
<path fill="none" stroke="#9a32cd" stroke-dasharray="5,2" d="M54,-73.7589C54,-56.6762 54,-32.4984 54,-19.7123"/>
<polygon fill="#9a32cd" stroke="#9a32cd" points="50.5001,-74.2245 54,-84.2246 57.5001,-74.2246 50.5001,-74.2245"/>
<text text-anchor="middle" x="64" y="-52" font-family="Helvetica,sans-Serif" font-size="10.00"> root</text>
<text text-anchor="middle" x="64" y="-41" font-family="Helvetica,sans-Serif" font-size="10.00">nil</text>
</g>
<!-- Node2&#45;&gt;Node2 -->
<g id="edge3" class="edge"><title>Node2&#45;&gt;Node2</title>
<path fill="none" stroke="#9a32cd" stroke-dasharray="5,2" d="M117.964,-99.666C122.934,-98.4161 126,-96.5275 126,-94 126,-90.0547 118.529,-87.6659 108.007,-86.8337"/>
<polygon fill="#9a32cd" stroke="#9a32cd" points="117.374,-96.2152 108.007,-101.166 118.417,-103.137 117.374,-96.2152"/>
<text text-anchor="middle" x="140" y="-102.5" font-family="Helvetica,sans-Serif" font-size="10.00"> right</text>
<text text-anchor="middle" x="140" y="-91.5" font-family="Helvetica,sans-Serif" font-size="10.00">left</text>
<text text-anchor="middle" x="140" y="-80.5" font-family="Helvetica,sans-Serif" font-size="10.00">parent</text>
</g>
<!-- Node3 -->
<g id="node3" class="node"><title>Node3</title>
<g id="a_node3"><a xlink:href="a00219.html" target="_top" xlink:title="Interval trees implemented using red&#45;black&#45;trees as described in the book Introduction_To_Algorithms_...">
<polygon fill="white" stroke="black" points="6.5,-158.5 6.5,-177.5 101.5,-177.5 101.5,-158.5 6.5,-158.5"/>
<text text-anchor="middle" x="54" y="-165.5" font-family="Helvetica,sans-Serif" font-size="10.00">fcl::SimpleInterval</text>
</a>
</g>
</g>
<!-- Node3&#45;&gt;Node2 -->
<g id="edge2" class="edge"><title>Node3&#45;&gt;Node2</title>
<path fill="none" stroke="#9a32cd" stroke-dasharray="5,2" d="M54,-148.156C54,-133.712 54,-114.459 54,-103.531"/>
<polygon fill="#9a32cd" stroke="#9a32cd" points="50.5001,-148.458 54,-158.458 57.5001,-148.458 50.5001,-148.458"/>
<text text-anchor="middle" x="87.5" y="-131.5" font-family="Helvetica,sans-Serif" font-size="10.00"> stored_interval</text>
</g>
</g>
</svg>
