<?xml version="1.0" encoding="UTF-8" standalone="no"?>
<!DOCTYPE svg PUBLIC "-//W3C//DTD SVG 1.1//EN"
 "http://www.w3.org/Graphics/SVG/1.1/DTD/svg11.dtd">
<!-- Generated by graphviz version 2.36.0 (20140111.2315)
 -->
<!-- Title: fcl::OcTreeShapeDistanceTraversalNode&lt; S, NarrowPhaseSolver &gt; Pages: 1 -->
<svg width="1280pt" height="162pt"
 viewBox="0.00 0.00 1280.00 162.00" xmlns="http://www.w3.org/2000/svg" xmlns:xlink="http://www.w3.org/1999/xlink">
<g id="graph0" class="graph" transform="scale(1 1) rotate(0) translate(4 158)">
<title>fcl::OcTreeShapeDistanceTraversalNode&lt; S, NarrowPhaseSolver &gt;</title>
<polygon fill="white" stroke="none" points="-4,4 -4,-158 1276,-158 1276,4 -4,4"/>
<!-- Node1 -->
<g id="node1" class="node"><title>Node1</title>
<polygon fill="#bfbfbf" stroke="black" points="1110.5,-42.5 1110.5,-83.5 1271.5,-83.5 1271.5,-42.5 1110.5,-42.5"/>
<text text-anchor="start" x="1118.5" y="-71.5" font-family="Helvetica,sans-Serif" font-size="10.00">fcl::OcTreeShapeDistance</text>
<text text-anchor="start" x="1118.5" y="-60.5" font-family="Helvetica,sans-Serif" font-size="10.00">TraversalNode&lt; S, NarrowPhase</text>
<text text-anchor="middle" x="1191" y="-49.5" font-family="Helvetica,sans-Serif" font-size="10.00">Solver &gt;</text>
</g>
<!-- Node2 -->
<g id="node2" class="node"><title>Node2</title>
<g id="a_node2"><a xlink:href="a00056.html" target="_top" xlink:title="Node structure encoding the information required for distance traversal. ">
<polygon fill="white" stroke="black" points="914,-82.5 914,-101.5 1072,-101.5 1072,-82.5 914,-82.5"/>
<text text-anchor="middle" x="993" y="-89.5" font-family="Helvetica,sans-Serif" font-size="10.00">fcl::DistanceTraversalNodeBase</text>
</a>
</g>
</g>
<!-- Node2&#45;&gt;Node1 -->
<g id="edge1" class="edge"><title>Node2&#45;&gt;Node1</title>
<path fill="none" stroke="midnightblue" d="M1068.74,-80.9412C1082.39,-78.9219 1096.68,-76.8081 1110.46,-74.769"/>
<polygon fill="midnightblue" stroke="midnightblue" points="1067.83,-77.5381 1058.45,-82.4641 1068.85,-84.4627 1067.83,-77.5381"/>
</g>
<!-- Node3 -->
<g id="node3" class="node"><title>Node3</title>
<g id="a_node3"><a xlink:href="a00244.html" target="_top" xlink:title="Node structure encoding the information required for traversal. ">
<polygon fill="white" stroke="black" points="692.5,-96.5 692.5,-115.5 811.5,-115.5 811.5,-96.5 692.5,-96.5"/>
<text text-anchor="middle" x="752" y="-103.5" font-family="Helvetica,sans-Serif" font-size="10.00">fcl::TraversalNodeBase</text>
</a>
</g>
</g>
<!-- Node3&#45;&gt;Node2 -->
<g id="edge2" class="edge"><title>Node3&#45;&gt;Node2</title>
<path fill="none" stroke="midnightblue" d="M822.085,-101.953C850.702,-100.277 884.041,-98.324 913.571,-96.5942"/>
<polygon fill="midnightblue" stroke="midnightblue" points="821.55,-98.4784 811.772,-102.557 821.96,-105.466 821.55,-98.4784"/>
</g>
<!-- Node4 -->
<g id="node4" class="node"><title>Node4</title>
<g id="a_node4"><a xlink:href="a00242.html" target="_top" xlink:title="Simple transform class used locally by InterpMotion. ">
<polygon fill="white" stroke="black" points="540,-127.5 540,-146.5 626,-146.5 626,-127.5 540,-127.5"/>
<text text-anchor="middle" x="583" y="-134.5" font-family="Helvetica,sans-Serif" font-size="10.00">fcl::Transform3f</text>
</a>
</g>
</g>
<!-- Node4&#45;&gt;Node3 -->
<g id="edge3" class="edge"><title>Node4&#45;&gt;Node3</title>
<path fill="none" stroke="#9a32cd" stroke-dasharray="5,2" d="M636.122,-127.325C656.354,-123.569 679.463,-119.279 699.624,-115.537"/>
<polygon fill="#9a32cd" stroke="#9a32cd" points="635.334,-123.911 626.141,-129.177 636.612,-130.793 635.334,-123.911"/>
<text text-anchor="middle" x="666" y="-136" font-family="Helvetica,sans-Serif" font-size="10.00"> tf1</text>
<text text-anchor="middle" x="666" y="-125" font-family="Helvetica,sans-Serif" font-size="10.00">tf2</text>
</g>
<!-- Node5 -->
<g id="node5" class="node"><title>Node5</title>
<g id="a_node5"><a xlink:href="a00055.html" target="_top" xlink:title="distance result ">
<polygon fill="white" stroke="black" points="701.5,-58.5 701.5,-77.5 802.5,-77.5 802.5,-58.5 701.5,-58.5"/>
<text text-anchor="middle" x="752" y="-65.5" font-family="Helvetica,sans-Serif" font-size="10.00">fcl::DistanceResult</text>
</a>
</g>
</g>
<!-- Node5&#45;&gt;Node2 -->
<g id="edge4" class="edge"><title>Node5&#45;&gt;Node2</title>
<path fill="none" stroke="#9a32cd" stroke-dasharray="5,2" d="M812.598,-73.7515C838.265,-76.25 868.612,-79.2329 896,-82 901.835,-82.5895 907.869,-83.2048 913.939,-83.8277"/>
<polygon fill="#9a32cd" stroke="#9a32cd" points="812.934,-70.2677 802.642,-72.7838 812.257,-77.2349 812.934,-70.2677"/>
<text text-anchor="middle" x="863" y="-85" font-family="Helvetica,sans-Serif" font-size="10.00"> result</text>
</g>
<!-- Node6 -->
<g id="node6" class="node"><title>Node6</title>
<g id="a_node6"><a xlink:href="a00069.html" target="_top" xlink:title="Eigen::FclMatrix\&lt; FCL\l_REAL, 1 \&gt;">
<polygon fill="white" stroke="black" points="182,-46 182,-76 298,-76 298,-46 182,-46"/>
<text text-anchor="start" x="190" y="-64" font-family="Helvetica,sans-Serif" font-size="10.00">Eigen::FclMatrix&lt; FCL</text>
<text text-anchor="middle" x="240" y="-53" font-family="Helvetica,sans-Serif" font-size="10.00">_REAL, 1 &gt;</text>
</a>
</g>
</g>
<!-- Node6&#45;&gt;Node5 -->
<g id="edge5" class="edge"><title>Node6&#45;&gt;Node5</title>
<path fill="none" stroke="#9a32cd" stroke-dasharray="5,2" d="M289.718,-78.9801C298.363,-81.48 307.364,-83.6518 316,-85 328.296,-86.9193 331.556,-85.0377 344,-85 490.669,-84.5556 528.052,-97.5298 674,-83 685.655,-81.8397 698.169,-79.7661 709.65,-77.5239"/>
<polygon fill="#9a32cd" stroke="#9a32cd" points="290.735,-75.6311 280.148,-76.0446 288.682,-82.3233 290.735,-75.6311"/>
<text text-anchor="middle" x="474" y="-92" font-family="Helvetica,sans-Serif" font-size="10.00"> nearest_points</text>
</g>
<!-- Node9 -->
<g id="node9" class="node"><title>Node9</title>
<g id="a_node9"><a xlink:href="a00032.html" target="_top" xlink:title="The geometry for the object for collision or distance computation. ">
<polygon fill="white" stroke="black" points="526.5,-35.5 526.5,-54.5 639.5,-54.5 639.5,-35.5 526.5,-35.5"/>
<text text-anchor="middle" x="583" y="-42.5" font-family="Helvetica,sans-Serif" font-size="10.00">fcl::CollisionGeometry</text>
</a>
</g>
</g>
<!-- Node6&#45;&gt;Node9 -->
<g id="edge11" class="edge"><title>Node6&#45;&gt;Node9</title>
<path fill="none" stroke="#9a32cd" stroke-dasharray="5,2" d="M299.661,-43.4139C319.291,-38.348 341.416,-33.5137 362,-31 417.655,-24.2036 481.658,-29.7707 526.229,-35.7766"/>
<polygon fill="#9a32cd" stroke="#9a32cd" points="298.713,-40.0442 289.945,-45.9913 300.508,-46.8102 298.713,-40.0442"/>
<text text-anchor="middle" x="392" y="-34" font-family="Helvetica,sans-Serif" font-size="10.00"> aabb_center</text>
</g>
<!-- Node10 -->
<g id="node10" class="node"><title>Node10</title>
<g id="a_node10"><a xlink:href="a00003.html" target="_top" xlink:title="A class describing the AABB collision structure, which is a box in 3D space determined by two diagona...">
<polygon fill="white" stroke="black" points="362,-51.5 362,-70.5 422,-70.5 422,-51.5 362,-51.5"/>
<text text-anchor="middle" x="392" y="-58.5" font-family="Helvetica,sans-Serif" font-size="10.00">fcl::AABB</text>
</a>
</g>
</g>
<!-- Node6&#45;&gt;Node10 -->
<g id="edge10" class="edge"><title>Node6&#45;&gt;Node10</title>
<path fill="none" stroke="#9a32cd" stroke-dasharray="5,2" d="M308.17,-61C326.949,-61 346.391,-61 361.715,-61"/>
<polygon fill="#9a32cd" stroke="#9a32cd" points="308.137,-57.5001 298.136,-61 308.136,-64.5001 308.137,-57.5001"/>
<text text-anchor="middle" x="330" y="-75" font-family="Helvetica,sans-Serif" font-size="10.00"> max_</text>
<text text-anchor="middle" x="330" y="-64" font-family="Helvetica,sans-Serif" font-size="10.00">min_</text>
</g>
<!-- Node7 -->
<g id="node7" class="node"><title>Node7</title>
<polygon fill="white" stroke="#bfbfbf" points="6.5,-71 6.5,-123 137.5,-123 137.5,-71 6.5,-71"/>
<text text-anchor="start" x="14.5" y="-111" font-family="Helvetica,sans-Serif" font-size="10.00">Matrix&lt; FCL_REAL ,</text>
<text text-anchor="start" x="14.5" y="-100" font-family="Helvetica,sans-Serif" font-size="10.00"> 3, Cols, internal::</text>
<text text-anchor="start" x="14.5" y="-89" font-family="Helvetica,sans-Serif" font-size="10.00">traits&lt;Matrix &lt;FCL_REAL</text>
<text text-anchor="middle" x="72" y="-78" font-family="Helvetica,sans-Serif" font-size="10.00"> , 3, Cols&gt; &gt;::Options &gt;</text>
</g>
<!-- Node7&#45;&gt;Node6 -->
<g id="edge6" class="edge"><title>Node7&#45;&gt;Node6</title>
<path fill="none" stroke="midnightblue" d="M147.655,-80.8097C159.123,-78.3228 170.805,-75.7893 181.814,-73.4018"/>
<polygon fill="midnightblue" stroke="midnightblue" points="146.686,-77.4384 137.655,-82.9784 148.17,-84.2794 146.686,-77.4384"/>
</g>
<!-- Node8 -->
<g id="node8" class="node"><title>Node8</title>
<g id="a_node8"><a xlink:href="a00073.html" target="_top" xlink:title="fcl::FclType\&lt; FclMatrix\l\&lt; FCL_REAL, Cols, internal\l::traits\&lt; Matrix\&lt; FCL_REAL,\l 3, Cols \&gt; \&gt;::Options \&gt; \&gt;">
<polygon fill="white" stroke="black" points="0.5,-0 0.5,-52 143.5,-52 143.5,-0 0.5,-0"/>
<text text-anchor="start" x="8.5" y="-40" font-family="Helvetica,sans-Serif" font-size="10.00">fcl::FclType&lt; FclMatrix</text>
<text text-anchor="start" x="8.5" y="-29" font-family="Helvetica,sans-Serif" font-size="10.00">&lt; FCL_REAL, Cols, internal</text>
<text text-anchor="start" x="8.5" y="-18" font-family="Helvetica,sans-Serif" font-size="10.00">::traits&lt; Matrix&lt; FCL_REAL,</text>
<text text-anchor="middle" x="72" y="-7" font-family="Helvetica,sans-Serif" font-size="10.00"> 3, Cols &gt; &gt;::Options &gt; &gt;</text>
</a>
</g>
</g>
<!-- Node8&#45;&gt;Node6 -->
<g id="edge7" class="edge"><title>Node8&#45;&gt;Node6</title>
<path fill="none" stroke="midnightblue" d="M153.751,-43.0258C163.257,-45.03 172.802,-47.0425 181.887,-48.958"/>
<polygon fill="midnightblue" stroke="midnightblue" points="154.387,-39.5831 143.88,-40.9447 152.943,-46.4325 154.387,-39.5831"/>
</g>
<!-- Node9&#45;&gt;Node5 -->
<g id="edge8" class="edge"><title>Node9&#45;&gt;Node5</title>
<path fill="none" stroke="#9a32cd" stroke-dasharray="5,2" d="M649.586,-54.0327C666.779,-56.4007 685.036,-58.9152 701.251,-61.1484"/>
<polygon fill="#9a32cd" stroke="#9a32cd" points="649.993,-50.5558 639.609,-52.6587 649.038,-57.4904 649.993,-50.5558"/>
<text text-anchor="middle" x="666" y="-71" font-family="Helvetica,sans-Serif" font-size="10.00"> o1</text>
<text text-anchor="middle" x="666" y="-60" font-family="Helvetica,sans-Serif" font-size="10.00">o2</text>
</g>
<!-- Node12 -->
<g id="node12" class="node"><title>Node12</title>
<g id="a_node12"><a xlink:href="a00156.html" target="_top" xlink:title="Octree is one type of collision geometry which can encode uncertainty information in the sensor data...">
<polygon fill="white" stroke="black" points="830.5,-21.5 830.5,-40.5 895.5,-40.5 895.5,-21.5 830.5,-21.5"/>
<text text-anchor="middle" x="863" y="-28.5" font-family="Helvetica,sans-Serif" font-size="10.00">fcl::OcTree</text>
</a>
</g>
</g>
<!-- Node9&#45;&gt;Node12 -->
<g id="edge14" class="edge"><title>Node9&#45;&gt;Node12</title>
<path fill="none" stroke="midnightblue" d="M649.584,-41.6972C706.527,-38.8296 786.526,-34.8009 830.301,-32.5963"/>
<polygon fill="midnightblue" stroke="midnightblue" points="649.401,-38.2019 639.589,-42.2005 649.753,-45.1931 649.401,-38.2019"/>
</g>
<!-- Node10&#45;&gt;Node9 -->
<g id="edge9" class="edge"><title>Node10&#45;&gt;Node9</title>
<path fill="none" stroke="#9a32cd" stroke-dasharray="5,2" d="M432.403,-57.6643C459.564,-55.3649 496.057,-52.2756 526.199,-49.7239"/>
<polygon fill="#9a32cd" stroke="#9a32cd" points="431.786,-54.2039 422.117,-58.5351 432.377,-61.179 431.786,-54.2039"/>
<text text-anchor="middle" x="474" y="-59" font-family="Helvetica,sans-Serif" font-size="10.00"> aabb_local</text>
</g>
<!-- Node11 -->
<g id="node11" class="node"><title>Node11</title>
<g id="a_node11"><a xlink:href="a00054.html" target="_top" xlink:title="request to the distance computation ">
<polygon fill="white" stroke="black" points="697.5,-134.5 697.5,-153.5 806.5,-153.5 806.5,-134.5 697.5,-134.5"/>
<text text-anchor="middle" x="752" y="-141.5" font-family="Helvetica,sans-Serif" font-size="10.00">fcl::DistanceRequest</text>
</a>
</g>
</g>
<!-- Node11&#45;&gt;Node2 -->
<g id="edge12" class="edge"><title>Node11&#45;&gt;Node2</title>
<path fill="none" stroke="#9a32cd" stroke-dasharray="5,2" d="M807.073,-132.303C833.832,-126.508 866.617,-119.399 896,-113 913.17,-109.261 932.064,-105.131 948.516,-101.53"/>
<polygon fill="#9a32cd" stroke="#9a32cd" points="806.165,-128.918 797.132,-134.455 807.646,-135.76 806.165,-128.918"/>
<text text-anchor="middle" x="863" y="-129" font-family="Helvetica,sans-Serif" font-size="10.00"> request</text>
</g>
<!-- Node12&#45;&gt;Node1 -->
<g id="edge13" class="edge"><title>Node12&#45;&gt;Node1</title>
<path fill="none" stroke="#9a32cd" stroke-dasharray="5,2" d="M905.641,-35.0874C957.103,-40.139 1045.78,-48.8437 1110.46,-55.1921"/>
<polygon fill="#9a32cd" stroke="#9a32cd" points="905.849,-31.5911 895.554,-34.0974 905.165,-38.5576 905.849,-31.5911"/>
<text text-anchor="middle" x="993" y="-55" font-family="Helvetica,sans-Serif" font-size="10.00"> model1</text>
</g>
</g>
</svg>
