<?xml version="1.0" encoding="UTF-8" standalone="no"?>
<!DOCTYPE svg PUBLIC "-//W3C//DTD SVG 1.1//EN"
 "http://www.w3.org/Graphics/SVG/1.1/DTD/svg11.dtd">
<!-- Generated by graphviz version 2.36.0 (20140111.2315)
 -->
<!-- Title: fcl::MotionBase Pages: 1 -->
<svg width="439pt" height="84pt"
 viewBox="0.00 0.00 439.00 84.00" xmlns="http://www.w3.org/2000/svg" xmlns:xlink="http://www.w3.org/1999/xlink">
<g id="graph0" class="graph" transform="scale(1 1) rotate(0) translate(4 80)">
<title>fcl::MotionBase</title>
<polygon fill="white" stroke="none" points="-4,4 -4,-80 435,-80 435,4 -4,4"/>
<!-- Node1 -->
<g id="node1" class="node"><title>Node1</title>
<polygon fill="#bfbfbf" stroke="black" points="161.5,-56.5 161.5,-75.5 246.5,-75.5 246.5,-56.5 161.5,-56.5"/>
<text text-anchor="middle" x="204" y="-63.5" font-family="Helvetica,sans-Serif" font-size="10.00">fcl::MotionBase</text>
</g>
<!-- Node2 -->
<g id="node2" class="node"><title>Node2</title>
<g id="a_node2"><a xlink:href="a00089.html" target="_top" xlink:title="Linear interpolation motion Each Motion is assumed to have constant linear velocity and angular veloc...">
<polygon fill="white" stroke="black" points="-0.5,-0.5 -0.5,-19.5 86.5,-19.5 86.5,-0.5 -0.5,-0.5"/>
<text text-anchor="middle" x="43" y="-7.5" font-family="Helvetica,sans-Serif" font-size="10.00">fcl::InterpMotion</text>
</a>
</g>
</g>
<!-- Node1&#45;&gt;Node2 -->
<g id="edge1" class="edge"><title>Node1&#45;&gt;Node2</title>
<path fill="none" stroke="midnightblue" d="M168.735,-53.172C138.419,-43.0039 95.4298,-28.5852 68.3916,-19.5164"/>
<polygon fill="midnightblue" stroke="midnightblue" points="167.895,-56.5819 178.489,-56.4435 170.121,-49.9452 167.895,-56.5819"/>
</g>
<!-- Node3 -->
<g id="node3" class="node"><title>Node3</title>
<g id="a_node3"><a xlink:href="a00197.html" target="_top" xlink:title="fcl::ScrewMotion">
<polygon fill="white" stroke="black" points="105,-0.5 105,-19.5 195,-19.5 195,-0.5 105,-0.5"/>
<text text-anchor="middle" x="150" y="-7.5" font-family="Helvetica,sans-Serif" font-size="10.00">fcl::ScrewMotion</text>
</a>
</g>
</g>
<!-- Node1&#45;&gt;Node3 -->
<g id="edge2" class="edge"><title>Node1&#45;&gt;Node3</title>
<path fill="none" stroke="midnightblue" d="M188.002,-49.0024C178.433,-39.4329 166.639,-27.6389 158.751,-19.7511"/>
<polygon fill="midnightblue" stroke="midnightblue" points="185.537,-51.4868 195.083,-56.083 190.487,-46.537 185.537,-51.4868"/>
</g>
<!-- Node4 -->
<g id="node4" class="node"><title>Node4</title>
<g id="a_node4"><a xlink:href="a00226.html" target="_top" xlink:title="fcl::SplineMotion">
<polygon fill="white" stroke="black" points="213.5,-0.5 213.5,-19.5 302.5,-19.5 302.5,-0.5 213.5,-0.5"/>
<text text-anchor="middle" x="258" y="-7.5" font-family="Helvetica,sans-Serif" font-size="10.00">fcl::SplineMotion</text>
</a>
</g>
</g>
<!-- Node1&#45;&gt;Node4 -->
<g id="edge3" class="edge"><title>Node1&#45;&gt;Node4</title>
<path fill="none" stroke="midnightblue" d="M219.998,-49.0024C229.567,-39.4329 241.361,-27.6389 249.249,-19.7511"/>
<polygon fill="midnightblue" stroke="midnightblue" points="217.513,-46.537 212.917,-56.083 222.463,-51.4868 217.513,-46.537"/>
</g>
<!-- Node5 -->
<g id="node5" class="node"><title>Node5</title>
<g id="a_node5"><a xlink:href="a00243.html" target="_top" xlink:title="fcl::TranslationMotion">
<polygon fill="white" stroke="black" points="321,-0.5 321,-19.5 431,-19.5 431,-0.5 321,-0.5"/>
<text text-anchor="middle" x="376" y="-7.5" font-family="Helvetica,sans-Serif" font-size="10.00">fcl::TranslationMotion</text>
</a>
</g>
</g>
<!-- Node1&#45;&gt;Node5 -->
<g id="edge4" class="edge"><title>Node1&#45;&gt;Node5</title>
<path fill="none" stroke="midnightblue" d="M240.832,-53.4363C273.262,-43.2551 319.737,-28.664 348.874,-19.5164"/>
<polygon fill="midnightblue" stroke="midnightblue" points="239.746,-50.1088 231.254,-56.4435 241.843,-56.7874 239.746,-50.1088"/>
</g>
</g>
</svg>
