<?xml version="1.0" encoding="UTF-8" standalone="no"?>
<!DOCTYPE svg PUBLIC "-//W3C//DTD SVG 1.1//EN"
 "http://www.w3.org/Graphics/SVG/1.1/DTD/svg11.dtd">
<!-- Generated by graphviz version 2.36.0 (20140111.2315)
 -->
<!-- Title: fcl::MeshShapeDistanceTraversalNodeOBBRSS&lt; S, NarrowPhaseSolver &gt; Pages: 1 -->
<svg width="1850pt" height="410pt"
 viewBox="0.00 0.00 1850.00 410.00" xmlns="http://www.w3.org/2000/svg" xmlns:xlink="http://www.w3.org/1999/xlink">
<g id="graph0" class="graph" transform="scale(1 1) rotate(0) translate(4 406)">
<title>fcl::MeshShapeDistanceTraversalNodeOBBRSS&lt; S, NarrowPhaseSolver &gt;</title>
<polygon fill="white" stroke="none" points="-4,4 -4,-406 1846,-406 1846,4 -4,4"/>
<!-- Node1 -->
<g id="node1" class="node"><title>Node1</title>
<polygon fill="#bfbfbf" stroke="black" points="1642,-62 1642,-92 1842,-92 1842,-62 1642,-62"/>
<text text-anchor="start" x="1650" y="-80" font-family="Helvetica,sans-Serif" font-size="10.00">fcl::MeshShapeDistanceTraversal</text>
<text text-anchor="middle" x="1742" y="-69" font-family="Helvetica,sans-Serif" font-size="10.00">NodeOBBRSS&lt; S, NarrowPhaseSolver &gt;</text>
</g>
<!-- Node2 -->
<g id="node2" class="node"><title>Node2</title>
<g id="a_node2"><a xlink:href="a00132.html" target="_top" xlink:title="fcl::MeshShapeDistanceTraversal\lNode\&lt; OBBRSS, S, NarrowPhaseSolver \&gt;">
<polygon fill="white" stroke="black" points="1398,-62 1398,-92 1604,-92 1604,-62 1398,-62"/>
<text text-anchor="start" x="1406" y="-80" font-family="Helvetica,sans-Serif" font-size="10.00">fcl::MeshShapeDistanceTraversal</text>
<text text-anchor="middle" x="1501" y="-69" font-family="Helvetica,sans-Serif" font-size="10.00">Node&lt; OBBRSS, S, NarrowPhaseSolver &gt;</text>
</a>
</g>
</g>
<!-- Node2&#45;&gt;Node1 -->
<g id="edge1" class="edge"><title>Node2&#45;&gt;Node1</title>
<path fill="none" stroke="midnightblue" d="M1614.1,-77C1623.4,-77 1632.76,-77 1641.95,-77"/>
<polygon fill="midnightblue" stroke="midnightblue" points="1614.05,-73.5001 1604.05,-77 1614.05,-80.5001 1614.05,-73.5001"/>
</g>
<!-- Node3 -->
<g id="node3" class="node"><title>Node3</title>
<g id="a_node3"><a xlink:href="a00024.html" target="_top" xlink:title="fcl::BVHShapeDistanceTraversal\lNode\&lt; OBBRSS, S \&gt;">
<polygon fill="white" stroke="black" points="1164.5,-263 1164.5,-293 1325.5,-293 1325.5,-263 1164.5,-263"/>
<text text-anchor="start" x="1172.5" y="-281" font-family="Helvetica,sans-Serif" font-size="10.00">fcl::BVHShapeDistanceTraversal</text>
<text text-anchor="middle" x="1245" y="-270" font-family="Helvetica,sans-Serif" font-size="10.00">Node&lt; OBBRSS, S &gt;</text>
</a>
</g>
</g>
<!-- Node3&#45;&gt;Node2 -->
<g id="edge2" class="edge"><title>Node3&#45;&gt;Node2</title>
<path fill="none" stroke="midnightblue" d="M1273.16,-256.51C1324.91,-215.558 1436.46,-127.282 1481.03,-92.0088"/>
<polygon fill="midnightblue" stroke="midnightblue" points="1270.76,-253.942 1265.09,-262.892 1275.1,-259.431 1270.76,-253.942"/>
</g>
<!-- Node4 -->
<g id="node4" class="node"><title>Node4</title>
<g id="a_node4"><a xlink:href="a00056.html" target="_top" xlink:title="Node structure encoding the information required for distance traversal. ">
<polygon fill="white" stroke="black" points="922,-268.5 922,-287.5 1080,-287.5 1080,-268.5 922,-268.5"/>
<text text-anchor="middle" x="1001" y="-275.5" font-family="Helvetica,sans-Serif" font-size="10.00">fcl::DistanceTraversalNodeBase</text>
</a>
</g>
</g>
<!-- Node4&#45;&gt;Node3 -->
<g id="edge3" class="edge"><title>Node4&#45;&gt;Node3</title>
<path fill="none" stroke="midnightblue" d="M1090.47,-278C1114.66,-278 1140.72,-278 1164.37,-278"/>
<polygon fill="midnightblue" stroke="midnightblue" points="1090.24,-274.5 1080.24,-278 1090.24,-281.5 1090.24,-274.5"/>
</g>
<!-- Node5 -->
<g id="node5" class="node"><title>Node5</title>
<g id="a_node5"><a xlink:href="a00244.html" target="_top" xlink:title="Node structure encoding the information required for traversal. ">
<polygon fill="white" stroke="black" points="704.5,-306.5 704.5,-325.5 823.5,-325.5 823.5,-306.5 704.5,-306.5"/>
<text text-anchor="middle" x="764" y="-313.5" font-family="Helvetica,sans-Serif" font-size="10.00">fcl::TraversalNodeBase</text>
</a>
</g>
</g>
<!-- Node5&#45;&gt;Node4 -->
<g id="edge4" class="edge"><title>Node5&#45;&gt;Node4</title>
<path fill="none" stroke="midnightblue" d="M833.592,-304.908C867.726,-299.389 908.563,-292.786 941.24,-287.502"/>
<polygon fill="midnightblue" stroke="midnightblue" points="833.007,-301.458 823.694,-306.509 834.125,-308.368 833.007,-301.458"/>
</g>
<!-- Node6 -->
<g id="node6" class="node"><title>Node6</title>
<g id="a_node6"><a xlink:href="a00242.html" target="_top" xlink:title="Simple transform class used locally by InterpMotion. ">
<polygon fill="white" stroke="black" points="548,-306.5 548,-325.5 634,-325.5 634,-306.5 548,-306.5"/>
<text text-anchor="middle" x="591" y="-313.5" font-family="Helvetica,sans-Serif" font-size="10.00">fcl::Transform3f</text>
</a>
</g>
</g>
<!-- Node6&#45;&gt;Node5 -->
<g id="edge5" class="edge"><title>Node6&#45;&gt;Node5</title>
<path fill="none" stroke="#9a32cd" stroke-dasharray="5,2" d="M644.513,-316C663.477,-316 684.998,-316 704.447,-316"/>
<polygon fill="#9a32cd" stroke="#9a32cd" points="644.27,-312.5 634.27,-316 644.27,-319.5 644.27,-312.5"/>
<text text-anchor="middle" x="678" y="-330" font-family="Helvetica,sans-Serif" font-size="10.00"> tf1</text>
<text text-anchor="middle" x="678" y="-319" font-family="Helvetica,sans-Serif" font-size="10.00">tf2</text>
</g>
<!-- Node7 -->
<g id="node7" class="node"><title>Node7</title>
<g id="a_node7"><a xlink:href="a00055.html" target="_top" xlink:title="distance result ">
<polygon fill="white" stroke="black" points="713.5,-268.5 713.5,-287.5 814.5,-287.5 814.5,-268.5 713.5,-268.5"/>
<text text-anchor="middle" x="764" y="-275.5" font-family="Helvetica,sans-Serif" font-size="10.00">fcl::DistanceResult</text>
</a>
</g>
</g>
<!-- Node7&#45;&gt;Node4 -->
<g id="edge6" class="edge"><title>Node7&#45;&gt;Node4</title>
<path fill="none" stroke="#9a32cd" stroke-dasharray="5,2" d="M824.698,-278C854.201,-278 890.178,-278 921.845,-278"/>
<polygon fill="#9a32cd" stroke="#9a32cd" points="824.55,-274.5 814.55,-278 824.55,-281.5 824.55,-274.5"/>
<text text-anchor="middle" x="873" y="-281" font-family="Helvetica,sans-Serif" font-size="10.00"> result</text>
</g>
<!-- Node8 -->
<g id="node8" class="node"><title>Node8</title>
<g id="a_node8"><a xlink:href="a00069.html" target="_top" xlink:title="Eigen::FclMatrix\&lt; FCL\l_REAL, 1 \&gt;">
<polygon fill="white" stroke="black" points="182,-263 182,-293 298,-293 298,-263 182,-263"/>
<text text-anchor="start" x="190" y="-281" font-family="Helvetica,sans-Serif" font-size="10.00">Eigen::FclMatrix&lt; FCL</text>
<text text-anchor="middle" x="240" y="-270" font-family="Helvetica,sans-Serif" font-size="10.00">_REAL, 1 &gt;</text>
</a>
</g>
</g>
<!-- Node8&#45;&gt;Node7 -->
<g id="edge7" class="edge"><title>Node8&#45;&gt;Node7</title>
<path fill="none" stroke="#9a32cd" stroke-dasharray="5,2" d="M308.657,-278C415.097,-278 619.202,-278 713.274,-278"/>
<polygon fill="#9a32cd" stroke="#9a32cd" points="308.356,-274.5 298.356,-278 308.356,-281.5 308.356,-274.5"/>
<text text-anchor="middle" x="478" y="-281" font-family="Helvetica,sans-Serif" font-size="10.00"> nearest_points</text>
</g>
<!-- Node11 -->
<g id="node11" class="node"><title>Node11</title>
<g id="a_node11"><a xlink:href="a00032.html" target="_top" xlink:title="The geometry for the object for collision or distance computation. ">
<polygon fill="white" stroke="black" points="534.5,-196.5 534.5,-215.5 647.5,-215.5 647.5,-196.5 534.5,-196.5"/>
<text text-anchor="middle" x="591" y="-203.5" font-family="Helvetica,sans-Serif" font-size="10.00">fcl::CollisionGeometry</text>
</a>
</g>
</g>
<!-- Node8&#45;&gt;Node11 -->
<g id="edge13" class="edge"><title>Node8&#45;&gt;Node11</title>
<path fill="none" stroke="#9a32cd" stroke-dasharray="5,2" d="M269.217,-257.1C293.466,-240.554 330.102,-218.814 366,-210 422.093,-196.228 488.484,-197.088 534.35,-200.238"/>
<polygon fill="#9a32cd" stroke="#9a32cd" points="267.065,-254.333 260.868,-262.927 271.072,-260.073 267.065,-254.333"/>
<text text-anchor="middle" x="396" y="-213" font-family="Helvetica,sans-Serif" font-size="10.00"> aabb_center</text>
</g>
<!-- Node12 -->
<g id="node12" class="node"><title>Node12</title>
<g id="a_node12"><a xlink:href="a00003.html" target="_top" xlink:title="A class describing the AABB collision structure, which is a box in 3D space determined by two diagona...">
<polygon fill="white" stroke="black" points="366,-230.5 366,-249.5 426,-249.5 426,-230.5 366,-230.5"/>
<text text-anchor="middle" x="396" y="-237.5" font-family="Helvetica,sans-Serif" font-size="10.00">fcl::AABB</text>
</a>
</g>
</g>
<!-- Node8&#45;&gt;Node12 -->
<g id="edge12" class="edge"><title>Node8&#45;&gt;Node12</title>
<path fill="none" stroke="#9a32cd" stroke-dasharray="5,2" d="M274.814,-258.034C287.325,-251.667 301.902,-245.397 316,-242 332.139,-238.112 350.671,-237.452 365.727,-237.838"/>
<polygon fill="#9a32cd" stroke="#9a32cd" points="272.884,-255.096 265.692,-262.876 276.166,-261.279 272.884,-255.096"/>
<text text-anchor="middle" x="332" y="-256" font-family="Helvetica,sans-Serif" font-size="10.00"> max_</text>
<text text-anchor="middle" x="332" y="-245" font-family="Helvetica,sans-Serif" font-size="10.00">min_</text>
</g>
<!-- Node21 -->
<g id="node21" class="node"><title>Node21</title>
<g id="a_node21"><a xlink:href="a00154.html" target="_top" xlink:title="Oriented bounding box class. ">
<polygon fill="white" stroke="black" points="369,-310.5 369,-329.5 423,-329.5 423,-310.5 369,-310.5"/>
<text text-anchor="middle" x="396" y="-317.5" font-family="Helvetica,sans-Serif" font-size="10.00">fcl::OBB</text>
</a>
</g>
</g>
<!-- Node8&#45;&gt;Node21 -->
<g id="edge24" class="edge"><title>Node8&#45;&gt;Node21</title>
<path fill="none" stroke="#9a32cd" stroke-dasharray="5,2" d="M305.847,-295.685C327.917,-301.705 351.354,-308.097 368.656,-312.815"/>
<polygon fill="#9a32cd" stroke="#9a32cd" points="306.731,-292.299 296.163,-293.044 304.889,-299.052 306.731,-292.299"/>
<text text-anchor="middle" x="332" y="-332" font-family="Helvetica,sans-Serif" font-size="10.00"> extent</text>
<text text-anchor="middle" x="332" y="-321" font-family="Helvetica,sans-Serif" font-size="10.00">To</text>
<text text-anchor="middle" x="332" y="-310" font-family="Helvetica,sans-Serif" font-size="10.00">axis</text>
</g>
<!-- Node22 -->
<g id="node22" class="node"><title>Node22</title>
<g id="a_node22"><a xlink:href="a00181.html" target="_top" xlink:title="A class for rectangle sphere&#45;swept bounding volume. ">
<polygon fill="white" stroke="black" points="369,-352.5 369,-371.5 423,-371.5 423,-352.5 369,-352.5"/>
<text text-anchor="middle" x="396" y="-359.5" font-family="Helvetica,sans-Serif" font-size="10.00">fcl::RSS</text>
</a>
</g>
</g>
<!-- Node8&#45;&gt;Node22 -->
<g id="edge26" class="edge"><title>Node8&#45;&gt;Node22</title>
<path fill="none" stroke="#9a32cd" stroke-dasharray="5,2" d="M261.194,-300.879C275.191,-315.343 295.024,-333.27 316,-344 332.531,-352.456 353.018,-356.978 368.986,-359.374"/>
<polygon fill="#9a32cd" stroke="#9a32cd" points="263.445,-298.162 254.049,-293.267 258.341,-302.953 263.445,-298.162"/>
<text text-anchor="middle" x="332" y="-369" font-family="Helvetica,sans-Serif" font-size="10.00"> Tr</text>
<text text-anchor="middle" x="332" y="-358" font-family="Helvetica,sans-Serif" font-size="10.00">axis</text>
</g>
<!-- Node9 -->
<g id="node9" class="node"><title>Node9</title>
<polygon fill="white" stroke="#bfbfbf" points="6.5,-288 6.5,-340 137.5,-340 137.5,-288 6.5,-288"/>
<text text-anchor="start" x="14.5" y="-328" font-family="Helvetica,sans-Serif" font-size="10.00">Matrix&lt; FCL_REAL ,</text>
<text text-anchor="start" x="14.5" y="-317" font-family="Helvetica,sans-Serif" font-size="10.00"> 3, Cols, internal::</text>
<text text-anchor="start" x="14.5" y="-306" font-family="Helvetica,sans-Serif" font-size="10.00">traits&lt;Matrix &lt;FCL_REAL</text>
<text text-anchor="middle" x="72" y="-295" font-family="Helvetica,sans-Serif" font-size="10.00"> , 3, Cols&gt; &gt;::Options &gt;</text>
</g>
<!-- Node9&#45;&gt;Node8 -->
<g id="edge8" class="edge"><title>Node9&#45;&gt;Node8</title>
<path fill="none" stroke="midnightblue" d="M147.655,-297.81C159.123,-295.323 170.805,-292.789 181.814,-290.402"/>
<polygon fill="midnightblue" stroke="midnightblue" points="146.686,-294.438 137.655,-299.978 148.17,-301.279 146.686,-294.438"/>
</g>
<!-- Node10 -->
<g id="node10" class="node"><title>Node10</title>
<g id="a_node10"><a xlink:href="a00073.html" target="_top" xlink:title="fcl::FclType\&lt; FclMatrix\l\&lt; FCL_REAL, Cols, internal\l::traits\&lt; Matrix\&lt; FCL_REAL,\l 3, Cols \&gt; \&gt;::Options \&gt; \&gt;">
<polygon fill="white" stroke="black" points="0.5,-217 0.5,-269 143.5,-269 143.5,-217 0.5,-217"/>
<text text-anchor="start" x="8.5" y="-257" font-family="Helvetica,sans-Serif" font-size="10.00">fcl::FclType&lt; FclMatrix</text>
<text text-anchor="start" x="8.5" y="-246" font-family="Helvetica,sans-Serif" font-size="10.00">&lt; FCL_REAL, Cols, internal</text>
<text text-anchor="start" x="8.5" y="-235" font-family="Helvetica,sans-Serif" font-size="10.00">::traits&lt; Matrix&lt; FCL_REAL,</text>
<text text-anchor="middle" x="72" y="-224" font-family="Helvetica,sans-Serif" font-size="10.00"> 3, Cols &gt; &gt;::Options &gt; &gt;</text>
</a>
</g>
</g>
<!-- Node10&#45;&gt;Node8 -->
<g id="edge9" class="edge"><title>Node10&#45;&gt;Node8</title>
<path fill="none" stroke="midnightblue" d="M153.751,-260.026C163.257,-262.03 172.802,-264.043 181.887,-265.958"/>
<polygon fill="midnightblue" stroke="midnightblue" points="154.387,-256.583 143.88,-257.945 152.943,-263.433 154.387,-256.583"/>
</g>
<!-- Node11&#45;&gt;Node7 -->
<g id="edge10" class="edge"><title>Node11&#45;&gt;Node7</title>
<path fill="none" stroke="#9a32cd" stroke-dasharray="5,2" d="M636.414,-218.992C652.68,-224.767 670.808,-232.448 686,-242 695.316,-247.857 694.529,-253.397 704,-259 710.391,-262.78 717.623,-265.903 724.778,-268.448"/>
<polygon fill="#9a32cd" stroke="#9a32cd" points="637.165,-215.551 626.571,-215.644 634.911,-222.178 637.165,-215.551"/>
<text text-anchor="middle" x="678" y="-256" font-family="Helvetica,sans-Serif" font-size="10.00"> o1</text>
<text text-anchor="middle" x="678" y="-245" font-family="Helvetica,sans-Serif" font-size="10.00">o2</text>
</g>
<!-- Node14 -->
<g id="node14" class="node"><title>Node14</title>
<g id="a_node14"><a xlink:href="a00022.html" target="_top" xlink:title="fcl::BVHModel\&lt; OBBRSS \&gt;">
<polygon fill="white" stroke="black" points="931,-167.5 931,-186.5 1071,-186.5 1071,-167.5 931,-167.5"/>
<text text-anchor="middle" x="1001" y="-174.5" font-family="Helvetica,sans-Serif" font-size="10.00">fcl::BVHModel&lt; OBBRSS &gt;</text>
</a>
</g>
</g>
<!-- Node11&#45;&gt;Node14 -->
<g id="edge16" class="edge"><title>Node11&#45;&gt;Node14</title>
<path fill="none" stroke="midnightblue" d="M657.748,-201.88C720.904,-197.85 819.002,-191.402 904,-185 912.672,-184.347 921.782,-183.629 930.794,-182.9"/>
<polygon fill="midnightblue" stroke="midnightblue" points="657.291,-198.402 647.533,-202.53 657.735,-205.388 657.291,-198.402"/>
</g>
<!-- Node12&#45;&gt;Node11 -->
<g id="edge11" class="edge"><title>Node12&#45;&gt;Node11</title>
<path fill="none" stroke="#9a32cd" stroke-dasharray="5,2" d="M436.371,-233.064C465.056,-228.011 504.265,-221.104 535.892,-215.532"/>
<polygon fill="#9a32cd" stroke="#9a32cd" points="435.554,-229.654 426.313,-234.836 436.768,-236.548 435.554,-229.654"/>
<text text-anchor="middle" x="478" y="-234" font-family="Helvetica,sans-Serif" font-size="10.00"> aabb_local</text>
</g>
<!-- Node13 -->
<g id="node13" class="node"><title>Node13</title>
<g id="a_node13"><a xlink:href="a00054.html" target="_top" xlink:title="request to the distance computation ">
<polygon fill="white" stroke="black" points="709.5,-230.5 709.5,-249.5 818.5,-249.5 818.5,-230.5 709.5,-230.5"/>
<text text-anchor="middle" x="764" y="-237.5" font-family="Helvetica,sans-Serif" font-size="10.00">fcl::DistanceRequest</text>
</a>
</g>
</g>
<!-- Node13&#45;&gt;Node4 -->
<g id="edge14" class="edge"><title>Node13&#45;&gt;Node4</title>
<path fill="none" stroke="#9a32cd" stroke-dasharray="5,2" d="M828.71,-250.302C863.637,-255.95 906.651,-262.905 940.836,-268.433"/>
<polygon fill="#9a32cd" stroke="#9a32cd" points="829.05,-246.812 818.619,-248.67 827.932,-253.722 829.05,-246.812"/>
<text text-anchor="middle" x="873" y="-266" font-family="Helvetica,sans-Serif" font-size="10.00"> request</text>
</g>
<!-- Node14&#45;&gt;Node3 -->
<g id="edge15" class="edge"><title>Node14&#45;&gt;Node3</title>
<path fill="none" stroke="#9a32cd" stroke-dasharray="5,2" d="M1034.05,-190.378C1079.06,-209.163 1160.75,-243.254 1207.86,-262.918"/>
<polygon fill="#9a32cd" stroke="#9a32cd" points="1035.34,-187.123 1024.77,-186.502 1032.65,-193.583 1035.34,-187.123"/>
<text text-anchor="middle" x="1122" y="-240" font-family="Helvetica,sans-Serif" font-size="10.00"> model1</text>
</g>
<!-- Node15 -->
<g id="node15" class="node"><title>Node15</title>
<polygon fill="white" stroke="#bfbfbf" points="728.5,-154.5 728.5,-173.5 799.5,-173.5 799.5,-154.5 728.5,-154.5"/>
<text text-anchor="middle" x="764" y="-161.5" font-family="Helvetica,sans-Serif" font-size="10.00">noncopyable</text>
</g>
<!-- Node15&#45;&gt;Node14 -->
<g id="edge17" class="edge"><title>Node15&#45;&gt;Node14</title>
<path fill="none" stroke="#8b1a1a" d="M809.816,-166.479C843.969,-168.368 891.612,-171.004 930.669,-173.165"/>
<polygon fill="#8b1a1a" stroke="#8b1a1a" points="809.853,-162.976 799.675,-165.918 809.466,-169.965 809.853,-162.976"/>
</g>
<!-- Node16 -->
<g id="node16" class="node"><title>Node16</title>
<g id="a_node16"><a xlink:href="a00245.html" target="_top" xlink:title="Triangle with 3 indices for points. ">
<polygon fill="white" stroke="black" points="730,-53.5 730,-72.5 798,-72.5 798,-53.5 730,-53.5"/>
<text text-anchor="middle" x="764" y="-60.5" font-family="Helvetica,sans-Serif" font-size="10.00">fcl::Triangle</text>
</a>
</g>
</g>
<!-- Node16&#45;&gt;Node2 -->
<g id="edge29" class="edge"><title>Node16&#45;&gt;Node2</title>
<path fill="none" stroke="#9a32cd" stroke-dasharray="5,2" d="M808.111,-63.8212C922.282,-65.9958 1234.86,-71.9497 1397.94,-75.056"/>
<polygon fill="#9a32cd" stroke="#9a32cd" points="808.074,-60.3199 798.009,-63.6287 807.941,-67.3187 808.074,-60.3199"/>
<text text-anchor="middle" x="1122" y="-74" font-family="Helvetica,sans-Serif" font-size="10.00"> tri_indices</text>
</g>
<!-- Node16&#45;&gt;Node14 -->
<g id="edge18" class="edge"><title>Node16&#45;&gt;Node14</title>
<path fill="none" stroke="#9a32cd" stroke-dasharray="5,2" d="M806.874,-75.581C835.021,-84.7044 872.574,-98.1862 904,-114 935.698,-129.95 969.728,-154.178 987.522,-167.46"/>
<polygon fill="#9a32cd" stroke="#9a32cd" points="807.927,-72.2431 797.336,-72.539 805.8,-78.9121 807.927,-72.2431"/>
<text text-anchor="middle" x="873" y="-117" font-family="Helvetica,sans-Serif" font-size="10.00"> tri_indices</text>
</g>
<!-- Node17 -->
<g id="node17" class="node"><title>Node17</title>
<g id="a_node17"><a xlink:href="a00069.html" target="_top" xlink:title="Vector3 class wrapper. The core data is in the template parameter class. ">
<polygon fill="white" stroke="black" points="711,-100 711,-130 817,-130 817,-100 711,-100"/>
<text text-anchor="start" x="719" y="-118" font-family="Helvetica,sans-Serif" font-size="10.00">Eigen::FclMatrix&lt; T,</text>
<text text-anchor="middle" x="764" y="-107" font-family="Helvetica,sans-Serif" font-size="10.00"> Cols, _Options &gt;</text>
</a>
</g>
</g>
<!-- Node17&#45;&gt;Node2 -->
<g id="edge30" class="edge"><title>Node17&#45;&gt;Node2</title>
<path fill="none" stroke="#9a32cd" stroke-dasharray="5,2" d="M827.328,-113.548C938.474,-110.694 1178.17,-103.346 1380,-89 1385.85,-88.5844 1391.85,-88.1161 1397.91,-87.6116"/>
<polygon fill="#9a32cd" stroke="#9a32cd" points="827.208,-110.049 817.3,-113.802 827.385,-117.047 827.208,-110.049"/>
<text text-anchor="middle" x="1122" y="-108" font-family="Helvetica,sans-Serif" font-size="10.00"> vertices</text>
</g>
<!-- Node17&#45;&gt;Node14 -->
<g id="edge19" class="edge"><title>Node17&#45;&gt;Node14</title>
<path fill="none" stroke="#9a32cd" stroke-dasharray="5,2" d="M827.33,-125.606C851.458,-130.218 879.19,-136.145 904,-143 928.882,-149.875 956.608,-159.967 975.84,-167.37"/>
<polygon fill="#9a32cd" stroke="#9a32cd" points="827.703,-122.115 817.229,-123.71 826.412,-128.995 827.703,-122.115"/>
<text text-anchor="middle" x="873" y="-157" font-family="Helvetica,sans-Serif" font-size="10.00"> prev_vertices</text>
<text text-anchor="middle" x="873" y="-146" font-family="Helvetica,sans-Serif" font-size="10.00">vertices</text>
</g>
<!-- Node18 -->
<g id="node18" class="node"><title>Node18</title>
<polygon fill="white" stroke="#bfbfbf" points="539,-144 539,-174 643,-174 643,-144 539,-144"/>
<text text-anchor="start" x="547" y="-162" font-family="Helvetica,sans-Serif" font-size="10.00">Eigen::Matrix&lt; T, 3,</text>
<text text-anchor="middle" x="591" y="-151" font-family="Helvetica,sans-Serif" font-size="10.00"> Cols, _Options &gt;</text>
</g>
<!-- Node18&#45;&gt;Node17 -->
<g id="edge20" class="edge"><title>Node18&#45;&gt;Node17</title>
<path fill="none" stroke="midnightblue" d="M653.015,-143.3C671.929,-138.433 692.588,-133.118 710.843,-128.42"/>
<polygon fill="midnightblue" stroke="midnightblue" points="652.118,-139.917 643.306,-145.799 653.862,-146.696 652.118,-139.917"/>
</g>
<!-- Node19 -->
<g id="node19" class="node"><title>Node19</title>
<g id="a_node19"><a xlink:href="a00073.html" target="_top" xlink:title="fcl::FclType\&lt; FclMatrix\l\&lt; T, Cols, _Options \&gt; \&gt;">
<polygon fill="white" stroke="black" points="530.5,-95 530.5,-125 651.5,-125 651.5,-95 530.5,-95"/>
<text text-anchor="start" x="538.5" y="-113" font-family="Helvetica,sans-Serif" font-size="10.00">fcl::FclType&lt; FclMatrix</text>
<text text-anchor="middle" x="591" y="-102" font-family="Helvetica,sans-Serif" font-size="10.00">&lt; T, Cols, _Options &gt; &gt;</text>
</a>
</g>
</g>
<!-- Node19&#45;&gt;Node17 -->
<g id="edge21" class="edge"><title>Node19&#45;&gt;Node17</title>
<path fill="none" stroke="midnightblue" d="M661.887,-112.043C678.276,-112.523 695.457,-113.025 710.911,-113.477"/>
<polygon fill="midnightblue" stroke="midnightblue" points="661.906,-108.543 651.808,-111.749 661.701,-115.54 661.906,-108.543"/>
</g>
<!-- Node20 -->
<g id="node20" class="node"><title>Node20</title>
<g id="a_node20"><a xlink:href="a00155.html" target="_top" xlink:title="Class merging the OBB and RSS, can handle collision and distance simultaneously. ">
<polygon fill="white" stroke="black" points="553.5,-344.5 553.5,-363.5 628.5,-363.5 628.5,-344.5 553.5,-344.5"/>
<text text-anchor="middle" x="591" y="-351.5" font-family="Helvetica,sans-Serif" font-size="10.00">fcl::OBBRSS</text>
</a>
</g>
</g>
<!-- Node20&#45;&gt;Node3 -->
<g id="edge22" class="edge"><title>Node20&#45;&gt;Node3</title>
<path fill="none" stroke="#9a32cd" stroke-dasharray="5,2" d="M638.776,-350.873C685.679,-347.573 759.936,-341.896 824,-335 967.552,-319.547 1002.98,-311.765 1146,-292 1151.96,-291.177 1158.12,-290.317 1164.32,-289.445"/>
<polygon fill="#9a32cd" stroke="#9a32cd" points="638.353,-347.394 628.62,-351.581 638.839,-354.377 638.353,-347.394"/>
<text text-anchor="middle" x="873" y="-336" font-family="Helvetica,sans-Serif" font-size="10.00"> model2_bv</text>
</g>
<!-- Node21&#45;&gt;Node20 -->
<g id="edge23" class="edge"><title>Node21&#45;&gt;Node20</title>
<path fill="none" stroke="#9a32cd" stroke-dasharray="5,2" d="M433.084,-326.357C467.365,-332.396 518.663,-341.433 553.183,-347.514"/>
<polygon fill="#9a32cd" stroke="#9a32cd" points="433.484,-322.873 423.029,-324.585 432.27,-329.767 433.484,-322.873"/>
<text text-anchor="middle" x="478" y="-343" font-family="Helvetica,sans-Serif" font-size="10.00"> obb</text>
</g>
<!-- Node22&#45;&gt;Node20 -->
<g id="edge25" class="edge"><title>Node22&#45;&gt;Node20</title>
<path fill="none" stroke="#9a32cd" stroke-dasharray="5,2" d="M433.084,-360.504C467.365,-359.083 518.663,-356.957 553.183,-355.526"/>
<polygon fill="#9a32cd" stroke="#9a32cd" points="432.875,-357.01 423.029,-360.921 433.165,-364.004 432.875,-357.01"/>
<text text-anchor="middle" x="478" y="-362" font-family="Helvetica,sans-Serif" font-size="10.00"> rss</text>
</g>
<!-- Node23 -->
<g id="node23" class="node"><title>Node23</title>
<polygon fill="white" stroke="#bfbfbf" points="986.5,-382.5 986.5,-401.5 1015.5,-401.5 1015.5,-382.5 986.5,-382.5"/>
<text text-anchor="middle" x="1001" y="-389.5" font-family="Helvetica,sans-Serif" font-size="10.00">S</text>
</g>
<!-- Node23&#45;&gt;Node3 -->
<g id="edge27" class="edge"><title>Node23&#45;&gt;Node3</title>
<path fill="none" stroke="#9a32cd" stroke-dasharray="5,2" d="M1026.13,-392.108C1055.8,-391.338 1107.02,-387.023 1146,-368 1182.75,-350.068 1215.53,-313.909 1232.26,-293.299"/>
<polygon fill="#9a32cd" stroke="#9a32cd" points="1025.83,-388.611 1015.88,-392.253 1025.93,-395.611 1025.83,-388.611"/>
<text text-anchor="middle" x="1122" y="-386" font-family="Helvetica,sans-Serif" font-size="10.00"> model2</text>
</g>
<!-- Node24 -->
<g id="node24" class="node"><title>Node24</title>
<polygon fill="white" stroke="#bfbfbf" points="1193,-0.5 1193,-19.5 1297,-19.5 1297,-0.5 1193,-0.5"/>
<text text-anchor="middle" x="1245" y="-7.5" font-family="Helvetica,sans-Serif" font-size="10.00">NarrowPhaseSolver</text>
</g>
<!-- Node24&#45;&gt;Node2 -->
<g id="edge28" class="edge"><title>Node24&#45;&gt;Node2</title>
<path fill="none" stroke="#9a32cd" stroke-dasharray="5,2" d="M1307.3,-11.742C1330.38,-13.4893 1356.68,-16.8025 1380,-23 1413.56,-31.9199 1449.57,-49.2845 1473.29,-61.9212"/>
<polygon fill="#9a32cd" stroke="#9a32cd" points="1307.49,-8.24734 1297.28,-11.0649 1307.02,-15.2314 1307.49,-8.24734"/>
<text text-anchor="middle" x="1362" y="-26" font-family="Helvetica,sans-Serif" font-size="10.00"> nsolver</text>
</g>
</g>
</svg>
