<?xml version="1.0" encoding="UTF-8" standalone="no"?>
<!DOCTYPE svg PUBLIC "-//W3C//DTD SVG 1.1//EN"
 "http://www.w3.org/Graphics/SVG/1.1/DTD/svg11.dtd">
<!-- Generated by graphviz version 2.36.0 (20140111.2315)
 -->
<!-- Title: fcl::PenetrationDepthRequest Pages: 1 -->
<svg width="286pt" height="176pt"
 viewBox="0.00 0.00 286.00 176.00" xmlns="http://www.w3.org/2000/svg" xmlns:xlink="http://www.w3.org/1999/xlink">
<g id="graph0" class="graph" transform="scale(1 1) rotate(0) translate(4 172)">
<title>fcl::PenetrationDepthRequest</title>
<polygon fill="white" stroke="none" points="-4,4 -4,-172 282,-172 282,4 -4,4"/>
<!-- Node1 -->
<g id="node1" class="node"><title>Node1</title>
<polygon fill="#bfbfbf" stroke="black" points="101,-0.5 101,-19.5 247,-19.5 247,-0.5 101,-0.5"/>
<text text-anchor="middle" x="174" y="-7.5" font-family="Helvetica,sans-Serif" font-size="10.00">fcl::PenetrationDepthRequest</text>
</g>
<!-- Node2 -->
<g id="node2" class="node"><title>Node2</title>
<polygon fill="white" stroke="#bfbfbf" points="-1,-74.5 -1,-93.5 149,-93.5 149,-74.5 -1,-74.5"/>
<text text-anchor="middle" x="74" y="-81.5" font-family="Helvetica,sans-Serif" font-size="10.00">std::vector&lt; fcl::Transform3f &gt;</text>
</g>
<!-- Node2&#45;&gt;Node1 -->
<g id="edge1" class="edge"><title>Node2&#45;&gt;Node1</title>
<path fill="none" stroke="#9a32cd" stroke-dasharray="5,2" d="M86.8217,-66.3766C94.542,-57.1635 104.989,-45.9911 116,-38 126.428,-30.4325 139.314,-24.1794 150.29,-19.6032"/>
<polygon fill="#9a32cd" stroke="#9a32cd" points="83.8728,-64.4582 80.3258,-74.4416 89.3244,-68.8491 83.8728,-64.4582"/>
<text text-anchor="middle" x="152.5" y="-41.5" font-family="Helvetica,sans-Serif" font-size="10.00"> contact_vectors</text>
</g>
<!-- Node3 -->
<g id="node3" class="node"><title>Node3</title>
<g id="a_node3"><a xlink:href="a00242.html" target="_top" xlink:title="Simple transform class used locally by InterpMotion. ">
<polygon fill="white" stroke="black" points="31,-148.5 31,-167.5 117,-167.5 117,-148.5 31,-148.5"/>
<text text-anchor="middle" x="74" y="-155.5" font-family="Helvetica,sans-Serif" font-size="10.00">fcl::Transform3f</text>
</a>
</g>
</g>
<!-- Node3&#45;&gt;Node2 -->
<g id="edge2" class="edge"><title>Node3&#45;&gt;Node2</title>
<path fill="none" stroke="#9a32cd" stroke-dasharray="5,2" d="M74,-138.156C74,-123.712 74,-104.459 74,-93.531"/>
<polygon fill="#9a32cd" stroke="#9a32cd" points="70.5001,-138.458 74,-148.458 77.5001,-138.458 70.5001,-138.458"/>
<text text-anchor="middle" x="95.5" y="-121.5" font-family="Helvetica,sans-Serif" font-size="10.00"> elements</text>
</g>
<!-- Node4 -->
<g id="node4" class="node"><title>Node4</title>
<g id="a_node4"><a xlink:href="a00146.html" target="_top" xlink:title="fcl::NearestNeighbors\l\&lt; fcl::Transform3f \&gt;">
<polygon fill="white" stroke="black" points="167,-69 167,-99 279,-99 279,-69 167,-69"/>
<text text-anchor="start" x="175" y="-87" font-family="Helvetica,sans-Serif" font-size="10.00">fcl::NearestNeighbors</text>
<text text-anchor="middle" x="223" y="-76" font-family="Helvetica,sans-Serif" font-size="10.00">&lt; fcl::Transform3f &gt;</text>
</a>
</g>
</g>
<!-- Node4&#45;&gt;Node1 -->
<g id="edge3" class="edge"><title>Node4&#45;&gt;Node1</title>
<path fill="none" stroke="#9a32cd" stroke-dasharray="5,2" d="M207.533,-60.2726C198.173,-46.5196 186.768,-29.7615 179.961,-19.7589"/>
<polygon fill="#9a32cd" stroke="#9a32cd" points="204.799,-62.4772 213.319,-68.7751 210.586,-58.5388 204.799,-62.4772"/>
<text text-anchor="middle" x="232" y="-41.5" font-family="Helvetica,sans-Serif" font-size="10.00"> distance_func</text>
</g>
</g>
</svg>
