<?xml version="1.0" encoding="UTF-8" standalone="no"?>
<!DOCTYPE svg PUBLIC "-//W3C//DTD SVG 1.1//EN"
 "http://www.w3.org/Graphics/SVG/1.1/DTD/svg11.dtd">
<!-- Generated by graphviz version 2.36.0 (20140111.2315)
 -->
<!-- Title: fcl::SamplerR&lt; N &gt; Pages: 1 -->
<svg width="108pt" height="154pt"
 viewBox="0.00 0.00 108.00 154.00" xmlns="http://www.w3.org/2000/svg" xmlns:xlink="http://www.w3.org/1999/xlink">
<g id="graph0" class="graph" transform="scale(1 1) rotate(0) translate(4 150)">
<title>fcl::SamplerR&lt; N &gt;</title>
<polygon fill="white" stroke="none" points="-4,4 -4,-150 104,-150 104,4 -4,4"/>
<!-- Node1 -->
<g id="node1" class="node"><title>Node1</title>
<polygon fill="#bfbfbf" stroke="black" points="-1,-0.5 -1,-19.5 101,-19.5 101,-0.5 -1,-0.5"/>
<text text-anchor="middle" x="50" y="-7.5" font-family="Helvetica,sans-Serif" font-size="10.00">fcl::SamplerR&lt; N &gt;</text>
</g>
<!-- Node2 -->
<g id="node2" class="node"><title>Node2</title>
<g id="a_node2"><a xlink:href="a00182.html" target="_top" xlink:title="fcl::SamplerBase">
<polygon fill="white" stroke="black" points="4,-58.5 4,-77.5 96,-77.5 96,-58.5 4,-58.5"/>
<text text-anchor="middle" x="50" y="-65.5" font-family="Helvetica,sans-Serif" font-size="10.00">fcl::SamplerBase</text>
</a>
</g>
</g>
<!-- Node2&#45;&gt;Node1 -->
<g id="edge1" class="edge"><title>Node2&#45;&gt;Node1</title>
<path fill="none" stroke="midnightblue" d="M50,-47.953C50,-38.2875 50,-27.0312 50,-19.5052"/>
<polygon fill="midnightblue" stroke="midnightblue" points="46.5001,-48.25 50,-58.25 53.5001,-48.25 46.5001,-48.25"/>
</g>
<!-- Node3 -->
<g id="node3" class="node"><title>Node3</title>
<g id="a_node3"><a xlink:href="a00180.html" target="_top" xlink:title="Random number generation. ">
<polygon fill="white" stroke="black" points="22,-126.5 22,-145.5 78,-145.5 78,-126.5 22,-126.5"/>
<text text-anchor="middle" x="50" y="-133.5" font-family="Helvetica,sans-Serif" font-size="10.00">fcl::RNG</text>
</a>
</g>
</g>
<!-- Node3&#45;&gt;Node2 -->
<g id="edge2" class="edge"><title>Node3&#45;&gt;Node2</title>
<path fill="none" stroke="#9a32cd" stroke-dasharray="5,2" d="M50,-116.041C50,-103.472 50,-87.5631 50,-77.8411"/>
<polygon fill="#9a32cd" stroke="#9a32cd" points="46.5001,-116.372 50,-126.372 53.5001,-116.372 46.5001,-116.372"/>
<text text-anchor="middle" x="58.5" y="-99.5" font-family="Helvetica,sans-Serif" font-size="10.00"> rng</text>
</g>
</g>
</svg>
