<?xml version="1.0" encoding="UTF-8" standalone="no"?>
<!DOCTYPE svg PUBLIC "-//W3C//DTD SVG 1.1//EN"
 "http://www.w3.org/Graphics/SVG/1.1/DTD/svg11.dtd">
<!-- Generated by graphviz version 2.36.0 (20140111.2315)
 -->
<!-- Title: fcl::morton_functor&lt; FCL_UINT32 &gt; Pages: 1 -->
<svg width="434pt" height="87pt"
 viewBox="0.00 0.00 434.00 87.00" xmlns="http://www.w3.org/2000/svg" xmlns:xlink="http://www.w3.org/1999/xlink">
<g id="graph0" class="graph" transform="scale(1 1) rotate(0) translate(4 83)">
<title>fcl::morton_functor&lt; FCL_UINT32 &gt;</title>
<polygon fill="white" stroke="none" points="-4,4 -4,-83 430,-83 430,4 -4,4"/>
<!-- Node1 -->
<g id="node1" class="node"><title>Node1</title>
<polygon fill="#bfbfbf" stroke="black" points="328,-24 328,-54 426,-54 426,-24 328,-24"/>
<text text-anchor="start" x="336" y="-42" font-family="Helvetica,sans-Serif" font-size="10.00">fcl::morton_functor</text>
<text text-anchor="middle" x="377" y="-31" font-family="Helvetica,sans-Serif" font-size="10.00">&lt; FCL_UINT32 &gt;</text>
</g>
<!-- Node2 -->
<g id="node2" class="node"><title>Node2</title>
<g id="a_node2"><a xlink:href="a00069.html" target="_top" xlink:title="Vector3 class wrapper. The core data is in the template parameter class. ">
<polygon fill="white" stroke="black" points="160,-24 160,-54 266,-54 266,-24 160,-24"/>
<text text-anchor="start" x="168" y="-42" font-family="Helvetica,sans-Serif" font-size="10.00">Eigen::FclMatrix&lt; T,</text>
<text text-anchor="middle" x="213" y="-31" font-family="Helvetica,sans-Serif" font-size="10.00"> Cols, _Options &gt;</text>
</a>
</g>
</g>
<!-- Node2&#45;&gt;Node1 -->
<g id="edge1" class="edge"><title>Node2&#45;&gt;Node1</title>
<path fill="none" stroke="#9a32cd" stroke-dasharray="5,2" d="M276.561,-39C293.567,-39 311.718,-39 327.796,-39"/>
<polygon fill="#9a32cd" stroke="#9a32cd" points="276.15,-35.5001 266.15,-39 276.15,-42.5001 276.15,-35.5001"/>
<text text-anchor="middle" x="297" y="-53" font-family="Helvetica,sans-Serif" font-size="10.00"> base</text>
<text text-anchor="middle" x="297" y="-42" font-family="Helvetica,sans-Serif" font-size="10.00">inv</text>
</g>
<!-- Node3 -->
<g id="node3" class="node"><title>Node3</title>
<polygon fill="white" stroke="#bfbfbf" points="9,-49 9,-79 113,-79 113,-49 9,-49"/>
<text text-anchor="start" x="17" y="-67" font-family="Helvetica,sans-Serif" font-size="10.00">Eigen::Matrix&lt; T, 3,</text>
<text text-anchor="middle" x="61" y="-56" font-family="Helvetica,sans-Serif" font-size="10.00"> Cols, _Options &gt;</text>
</g>
<!-- Node3&#45;&gt;Node2 -->
<g id="edge2" class="edge"><title>Node3&#45;&gt;Node2</title>
<path fill="none" stroke="midnightblue" d="M123.235,-53.7941C135.353,-51.7745 147.967,-49.6721 159.754,-47.7077"/>
<polygon fill="midnightblue" stroke="midnightblue" points="122.49,-50.3699 113.202,-55.4663 123.641,-57.2746 122.49,-50.3699"/>
</g>
<!-- Node4 -->
<g id="node4" class="node"><title>Node4</title>
<g id="a_node4"><a xlink:href="a00073.html" target="_top" xlink:title="fcl::FclType\&lt; FclMatrix\l\&lt; T, Cols, _Options \&gt; \&gt;">
<polygon fill="white" stroke="black" points="0.5,-0 0.5,-30 121.5,-30 121.5,-0 0.5,-0"/>
<text text-anchor="start" x="8.5" y="-18" font-family="Helvetica,sans-Serif" font-size="10.00">fcl::FclType&lt; FclMatrix</text>
<text text-anchor="middle" x="61" y="-7" font-family="Helvetica,sans-Serif" font-size="10.00">&lt; T, Cols, _Options &gt; &gt;</text>
</a>
</g>
</g>
<!-- Node4&#45;&gt;Node2 -->
<g id="edge3" class="edge"><title>Node4&#45;&gt;Node2</title>
<path fill="none" stroke="midnightblue" d="M131.84,-26.1744C141.236,-27.6777 150.74,-29.1984 159.759,-30.6415"/>
<polygon fill="midnightblue" stroke="midnightblue" points="132.142,-22.6783 121.715,-24.5544 131.036,-29.5904 132.142,-22.6783"/>
</g>
</g>
</svg>
