<?xml version="1.0" encoding="UTF-8" standalone="no"?>
<!DOCTYPE svg PUBLIC "-//W3C//DTD SVG 1.1//EN"
 "http://www.w3.org/Graphics/SVG/1.1/DTD/svg11.dtd">
<!-- Generated by graphviz version 2.36.0 (20140111.2315)
 -->
<!-- Title: fcl::MeshShapeDistanceTraversalNodeRSS&lt; S, NarrowPhaseSolver &gt; Pages: 1 -->
<svg width="1806pt" height="415pt"
 viewBox="0.00 0.00 1806.00 415.00" xmlns="http://www.w3.org/2000/svg" xmlns:xlink="http://www.w3.org/1999/xlink">
<g id="graph0" class="graph" transform="scale(1 1) rotate(0) translate(4 411)">
<title>fcl::MeshShapeDistanceTraversalNodeRSS&lt; S, NarrowPhaseSolver &gt;</title>
<polygon fill="white" stroke="none" points="-4,4 -4,-411 1802,-411 1802,4 -4,4"/>
<!-- Node1 -->
<g id="node1" class="node"><title>Node1</title>
<polygon fill="#bfbfbf" stroke="black" points="1618.5,-68 1618.5,-98 1797.5,-98 1797.5,-68 1618.5,-68"/>
<text text-anchor="start" x="1626.5" y="-86" font-family="Helvetica,sans-Serif" font-size="10.00">fcl::MeshShapeDistanceTraversal</text>
<text text-anchor="middle" x="1708" y="-75" font-family="Helvetica,sans-Serif" font-size="10.00">NodeRSS&lt; S, NarrowPhaseSolver &gt;</text>
</g>
<!-- Node2 -->
<g id="node2" class="node"><title>Node2</title>
<g id="a_node2"><a xlink:href="a00132.html" target="_top" xlink:title="fcl::MeshShapeDistanceTraversal\lNode\&lt; RSS, S, NarrowPhaseSolver \&gt;">
<polygon fill="white" stroke="black" points="1394.5,-68 1394.5,-98 1579.5,-98 1579.5,-68 1394.5,-68"/>
<text text-anchor="start" x="1402.5" y="-86" font-family="Helvetica,sans-Serif" font-size="10.00">fcl::MeshShapeDistanceTraversal</text>
<text text-anchor="middle" x="1487" y="-75" font-family="Helvetica,sans-Serif" font-size="10.00">Node&lt; RSS, S, NarrowPhaseSolver &gt;</text>
</a>
</g>
</g>
<!-- Node2&#45;&gt;Node1 -->
<g id="edge1" class="edge"><title>Node2&#45;&gt;Node1</title>
<path fill="none" stroke="midnightblue" d="M1589.84,-83C1599.32,-83 1608.87,-83 1618.22,-83"/>
<polygon fill="midnightblue" stroke="midnightblue" points="1589.61,-79.5001 1579.61,-83 1589.61,-86.5001 1589.61,-79.5001"/>
</g>
<!-- Node3 -->
<g id="node3" class="node"><title>Node3</title>
<g id="a_node3"><a xlink:href="a00024.html" target="_top" xlink:title="fcl::BVHShapeDistanceTraversal\lNode\&lt; RSS, S \&gt;">
<polygon fill="white" stroke="black" points="1160.5,-179 1160.5,-209 1321.5,-209 1321.5,-179 1160.5,-179"/>
<text text-anchor="start" x="1168.5" y="-197" font-family="Helvetica,sans-Serif" font-size="10.00">fcl::BVHShapeDistanceTraversal</text>
<text text-anchor="middle" x="1241" y="-186" font-family="Helvetica,sans-Serif" font-size="10.00">Node&lt; RSS, S &gt;</text>
</a>
</g>
</g>
<!-- Node3&#45;&gt;Node2 -->
<g id="edge2" class="edge"><title>Node3&#45;&gt;Node2</title>
<path fill="none" stroke="midnightblue" d="M1284.33,-174.742C1332.22,-152.956 1409.22,-117.93 1452.91,-98.0525"/>
<polygon fill="midnightblue" stroke="midnightblue" points="1282.81,-171.588 1275.16,-178.915 1285.71,-177.959 1282.81,-171.588"/>
</g>
<!-- Node4 -->
<g id="node4" class="node"><title>Node4</title>
<g id="a_node4"><a xlink:href="a00056.html" target="_top" xlink:title="Node structure encoding the information required for distance traversal. ">
<polygon fill="white" stroke="black" points="918,-318.5 918,-337.5 1076,-337.5 1076,-318.5 918,-318.5"/>
<text text-anchor="middle" x="997" y="-325.5" font-family="Helvetica,sans-Serif" font-size="10.00">fcl::DistanceTraversalNodeBase</text>
</a>
</g>
</g>
<!-- Node4&#45;&gt;Node3 -->
<g id="edge3" class="edge"><title>Node4&#45;&gt;Node3</title>
<path fill="none" stroke="midnightblue" d="M1024.22,-313.484C1070.39,-287.914 1165.78,-235.097 1212.71,-209.111"/>
<polygon fill="midnightblue" stroke="midnightblue" points="1022.46,-310.457 1015.4,-318.363 1025.85,-316.581 1022.46,-310.457"/>
</g>
<!-- Node5 -->
<g id="node5" class="node"><title>Node5</title>
<g id="a_node5"><a xlink:href="a00244.html" target="_top" xlink:title="Node structure encoding the information required for traversal. ">
<polygon fill="white" stroke="black" points="700.5,-375.5 700.5,-394.5 819.5,-394.5 819.5,-375.5 700.5,-375.5"/>
<text text-anchor="middle" x="760" y="-382.5" font-family="Helvetica,sans-Serif" font-size="10.00">fcl::TraversalNodeBase</text>
</a>
</g>
</g>
<!-- Node5&#45;&gt;Node4 -->
<g id="edge4" class="edge"><title>Node5&#45;&gt;Node4</title>
<path fill="none" stroke="midnightblue" d="M818.842,-373.348C843.877,-368.09 873.466,-361.588 900,-355 921.34,-349.702 945.133,-343.015 963.694,-337.622"/>
<polygon fill="midnightblue" stroke="midnightblue" points="817.848,-369.98 808.773,-375.447 819.277,-376.832 817.848,-369.98"/>
</g>
<!-- Node6 -->
<g id="node6" class="node"><title>Node6</title>
<g id="a_node6"><a xlink:href="a00242.html" target="_top" xlink:title="Simple transform class used locally by InterpMotion. ">
<polygon fill="white" stroke="black" points="544,-375.5 544,-394.5 630,-394.5 630,-375.5 544,-375.5"/>
<text text-anchor="middle" x="587" y="-382.5" font-family="Helvetica,sans-Serif" font-size="10.00">fcl::Transform3f</text>
</a>
</g>
</g>
<!-- Node6&#45;&gt;Node5 -->
<g id="edge5" class="edge"><title>Node6&#45;&gt;Node5</title>
<path fill="none" stroke="#9a32cd" stroke-dasharray="5,2" d="M640.513,-385C659.477,-385 680.998,-385 700.447,-385"/>
<polygon fill="#9a32cd" stroke="#9a32cd" points="640.27,-381.5 630.27,-385 640.27,-388.5 640.27,-381.5"/>
<text text-anchor="middle" x="674" y="-399" font-family="Helvetica,sans-Serif" font-size="10.00"> tf1</text>
<text text-anchor="middle" x="674" y="-388" font-family="Helvetica,sans-Serif" font-size="10.00">tf2</text>
</g>
<!-- Node7 -->
<g id="node7" class="node"><title>Node7</title>
<g id="a_node7"><a xlink:href="a00055.html" target="_top" xlink:title="distance result ">
<polygon fill="white" stroke="black" points="709.5,-337.5 709.5,-356.5 810.5,-356.5 810.5,-337.5 709.5,-337.5"/>
<text text-anchor="middle" x="760" y="-344.5" font-family="Helvetica,sans-Serif" font-size="10.00">fcl::DistanceResult</text>
</a>
</g>
</g>
<!-- Node7&#45;&gt;Node4 -->
<g id="edge6" class="edge"><title>Node7&#45;&gt;Node4</title>
<path fill="none" stroke="#9a32cd" stroke-dasharray="5,2" d="M820.698,-342.173C850.201,-339.788 886.178,-336.879 917.845,-334.319"/>
<polygon fill="#9a32cd" stroke="#9a32cd" points="820.236,-338.699 810.55,-342.994 820.8,-345.676 820.236,-338.699"/>
<text text-anchor="middle" x="869" y="-343" font-family="Helvetica,sans-Serif" font-size="10.00"> result</text>
</g>
<!-- Node8 -->
<g id="node8" class="node"><title>Node8</title>
<g id="a_node8"><a xlink:href="a00069.html" target="_top" xlink:title="Eigen::FclMatrix\&lt; FCL\l_REAL, 1 \&gt;">
<polygon fill="white" stroke="black" points="182,-274 182,-304 298,-304 298,-274 182,-274"/>
<text text-anchor="start" x="190" y="-292" font-family="Helvetica,sans-Serif" font-size="10.00">Eigen::FclMatrix&lt; FCL</text>
<text text-anchor="middle" x="240" y="-281" font-family="Helvetica,sans-Serif" font-size="10.00">_REAL, 1 &gt;</text>
</a>
</g>
</g>
<!-- Node8&#45;&gt;Node7 -->
<g id="edge7" class="edge"><title>Node8&#45;&gt;Node7</title>
<path fill="none" stroke="#9a32cd" stroke-dasharray="5,2" d="M302.63,-306.349C307.135,-307.336 311.626,-308.235 316,-309 457.432,-333.727 627.202,-342.583 709.471,-345.577"/>
<polygon fill="#9a32cd" stroke="#9a32cd" points="303.317,-302.916 292.785,-304.069 301.737,-309.735 303.317,-302.916"/>
<text text-anchor="middle" x="474" y="-336" font-family="Helvetica,sans-Serif" font-size="10.00"> nearest_points</text>
</g>
<!-- Node11 -->
<g id="node11" class="node"><title>Node11</title>
<g id="a_node11"><a xlink:href="a00032.html" target="_top" xlink:title="The geometry for the object for collision or distance computation. ">
<polygon fill="white" stroke="black" points="530.5,-280.5 530.5,-299.5 643.5,-299.5 643.5,-280.5 530.5,-280.5"/>
<text text-anchor="middle" x="587" y="-287.5" font-family="Helvetica,sans-Serif" font-size="10.00">fcl::CollisionGeometry</text>
</a>
</g>
</g>
<!-- Node8&#45;&gt;Node11 -->
<g id="edge13" class="edge"><title>Node8&#45;&gt;Node11</title>
<path fill="none" stroke="#9a32cd" stroke-dasharray="5,2" d="M308.35,-293.705C310.932,-293.817 313.489,-293.916 316,-294 401.286,-296.84 422.695,-296.186 508,-294 515.184,-293.816 522.737,-293.537 530.198,-293.209"/>
<polygon fill="#9a32cd" stroke="#9a32cd" points="308.467,-290.207 298.308,-293.215 308.126,-297.198 308.467,-290.207"/>
<text text-anchor="middle" x="392" y="-299" font-family="Helvetica,sans-Serif" font-size="10.00"> aabb_center</text>
</g>
<!-- Node12 -->
<g id="node12" class="node"><title>Node12</title>
<g id="a_node12"><a xlink:href="a00003.html" target="_top" xlink:title="A class describing the AABB collision structure, which is a box in 3D space determined by two diagona...">
<polygon fill="white" stroke="black" points="362,-252.5 362,-271.5 422,-271.5 422,-252.5 362,-252.5"/>
<text text-anchor="middle" x="392" y="-259.5" font-family="Helvetica,sans-Serif" font-size="10.00">fcl::AABB</text>
</a>
</g>
</g>
<!-- Node8&#45;&gt;Node12 -->
<g id="edge12" class="edge"><title>Node8&#45;&gt;Node12</title>
<path fill="none" stroke="#9a32cd" stroke-dasharray="5,2" d="M308.023,-273.494C310.713,-272.971 313.38,-272.471 316,-272 330.998,-269.306 347.803,-267 361.698,-265.284"/>
<polygon fill="#9a32cd" stroke="#9a32cd" points="307.33,-270.063 298.219,-275.471 308.714,-276.925 307.33,-270.063"/>
<text text-anchor="middle" x="330" y="-286" font-family="Helvetica,sans-Serif" font-size="10.00"> max_</text>
<text text-anchor="middle" x="330" y="-275" font-family="Helvetica,sans-Serif" font-size="10.00">min_</text>
</g>
<!-- Node14 -->
<g id="node14" class="node"><title>Node14</title>
<g id="a_node14"><a xlink:href="a00181.html" target="_top" xlink:title="A class for rectangle sphere&#45;swept bounding volume. ">
<polygon fill="white" stroke="black" points="447,-218.5 447,-237.5 501,-237.5 501,-218.5 447,-218.5"/>
<text text-anchor="middle" x="474" y="-225.5" font-family="Helvetica,sans-Serif" font-size="10.00">fcl::RSS</text>
</a>
</g>
</g>
<!-- Node8&#45;&gt;Node14 -->
<g id="edge16" class="edge"><title>Node8&#45;&gt;Node14</title>
<path fill="none" stroke="#9a32cd" stroke-dasharray="5,2" d="M267.86,-267.82C281.499,-258.238 298.795,-247.785 316,-242 360.224,-227.13 415.182,-225.857 446.959,-226.666"/>
<polygon fill="#9a32cd" stroke="#9a32cd" points="265.487,-265.218 259.462,-273.933 269.607,-270.877 265.487,-265.218"/>
<text text-anchor="middle" x="330" y="-256" font-family="Helvetica,sans-Serif" font-size="10.00"> Tr</text>
<text text-anchor="middle" x="330" y="-245" font-family="Helvetica,sans-Serif" font-size="10.00">axis</text>
</g>
<!-- Node9 -->
<g id="node9" class="node"><title>Node9</title>
<polygon fill="white" stroke="#bfbfbf" points="6.5,-299 6.5,-351 137.5,-351 137.5,-299 6.5,-299"/>
<text text-anchor="start" x="14.5" y="-339" font-family="Helvetica,sans-Serif" font-size="10.00">Matrix&lt; FCL_REAL ,</text>
<text text-anchor="start" x="14.5" y="-328" font-family="Helvetica,sans-Serif" font-size="10.00"> 3, Cols, internal::</text>
<text text-anchor="start" x="14.5" y="-317" font-family="Helvetica,sans-Serif" font-size="10.00">traits&lt;Matrix &lt;FCL_REAL</text>
<text text-anchor="middle" x="72" y="-306" font-family="Helvetica,sans-Serif" font-size="10.00"> , 3, Cols&gt; &gt;::Options &gt;</text>
</g>
<!-- Node9&#45;&gt;Node8 -->
<g id="edge8" class="edge"><title>Node9&#45;&gt;Node8</title>
<path fill="none" stroke="midnightblue" d="M147.655,-308.81C159.123,-306.323 170.805,-303.789 181.814,-301.402"/>
<polygon fill="midnightblue" stroke="midnightblue" points="146.686,-305.438 137.655,-310.978 148.17,-312.279 146.686,-305.438"/>
</g>
<!-- Node10 -->
<g id="node10" class="node"><title>Node10</title>
<g id="a_node10"><a xlink:href="a00073.html" target="_top" xlink:title="fcl::FclType\&lt; FclMatrix\l\&lt; FCL_REAL, Cols, internal\l::traits\&lt; Matrix\&lt; FCL_REAL,\l 3, Cols \&gt; \&gt;::Options \&gt; \&gt;">
<polygon fill="white" stroke="black" points="0.5,-228 0.5,-280 143.5,-280 143.5,-228 0.5,-228"/>
<text text-anchor="start" x="8.5" y="-268" font-family="Helvetica,sans-Serif" font-size="10.00">fcl::FclType&lt; FclMatrix</text>
<text text-anchor="start" x="8.5" y="-257" font-family="Helvetica,sans-Serif" font-size="10.00">&lt; FCL_REAL, Cols, internal</text>
<text text-anchor="start" x="8.5" y="-246" font-family="Helvetica,sans-Serif" font-size="10.00">::traits&lt; Matrix&lt; FCL_REAL,</text>
<text text-anchor="middle" x="72" y="-235" font-family="Helvetica,sans-Serif" font-size="10.00"> 3, Cols &gt; &gt;::Options &gt; &gt;</text>
</a>
</g>
</g>
<!-- Node10&#45;&gt;Node8 -->
<g id="edge9" class="edge"><title>Node10&#45;&gt;Node8</title>
<path fill="none" stroke="midnightblue" d="M153.751,-271.026C163.257,-273.03 172.802,-275.043 181.887,-276.958"/>
<polygon fill="midnightblue" stroke="midnightblue" points="154.387,-267.583 143.88,-268.945 152.943,-274.433 154.387,-267.583"/>
</g>
<!-- Node11&#45;&gt;Node7 -->
<g id="edge10" class="edge"><title>Node11&#45;&gt;Node7</title>
<path fill="none" stroke="#9a32cd" stroke-dasharray="5,2" d="M653.72,-299.91C663.516,-302.731 673.25,-306.352 682,-311 691.718,-316.162 690.529,-322.397 700,-328 706.391,-331.78 713.623,-334.903 720.778,-337.448"/>
<polygon fill="#9a32cd" stroke="#9a32cd" points="654.5,-296.496 643.939,-297.347 652.726,-303.267 654.5,-296.496"/>
<text text-anchor="middle" x="674" y="-326" font-family="Helvetica,sans-Serif" font-size="10.00"> o1</text>
<text text-anchor="middle" x="674" y="-315" font-family="Helvetica,sans-Serif" font-size="10.00">o2</text>
</g>
<!-- Node16 -->
<g id="node16" class="node"><title>Node16</title>
<g id="a_node16"><a xlink:href="a00022.html" target="_top" xlink:title="fcl::BVHModel\&lt; RSS \&gt;">
<polygon fill="white" stroke="black" points="937.5,-146.5 937.5,-165.5 1056.5,-165.5 1056.5,-146.5 937.5,-146.5"/>
<text text-anchor="middle" x="997" y="-153.5" font-family="Helvetica,sans-Serif" font-size="10.00">fcl::BVHModel&lt; RSS &gt;</text>
</a>
</g>
</g>
<!-- Node11&#45;&gt;Node16 -->
<g id="edge19" class="edge"><title>Node11&#45;&gt;Node16</title>
<path fill="none" stroke="midnightblue" d="M654.153,-285.668C701.864,-280.677 766.938,-269.964 820,-247 869.601,-225.533 869.016,-197.839 918,-175 926.211,-171.172 935.281,-168.063 944.244,-165.554"/>
<polygon fill="midnightblue" stroke="midnightblue" points="653.55,-282.21 643.942,-286.676 654.238,-289.176 653.55,-282.21"/>
</g>
<!-- Node12&#45;&gt;Node11 -->
<g id="edge11" class="edge"><title>Node12&#45;&gt;Node11</title>
<path fill="none" stroke="#9a32cd" stroke-dasharray="5,2" d="M432.217,-267.69C460.448,-271.785 498.93,-277.368 530.336,-281.924"/>
<polygon fill="#9a32cd" stroke="#9a32cd" points="432.711,-264.225 422.313,-266.253 431.706,-271.152 432.711,-264.225"/>
<text text-anchor="middle" x="474" y="-282" font-family="Helvetica,sans-Serif" font-size="10.00"> aabb_local</text>
</g>
<!-- Node13 -->
<g id="node13" class="node"><title>Node13</title>
<g id="a_node13"><a xlink:href="a00054.html" target="_top" xlink:title="request to the distance computation ">
<polygon fill="white" stroke="black" points="705.5,-299.5 705.5,-318.5 814.5,-318.5 814.5,-299.5 705.5,-299.5"/>
<text text-anchor="middle" x="760" y="-306.5" font-family="Helvetica,sans-Serif" font-size="10.00">fcl::DistanceRequest</text>
</a>
</g>
</g>
<!-- Node13&#45;&gt;Node4 -->
<g id="edge14" class="edge"><title>Node13&#45;&gt;Node4</title>
<path fill="none" stroke="#9a32cd" stroke-dasharray="5,2" d="M825.027,-314.011C848.599,-315.87 875.514,-318.011 900,-320 905.834,-320.474 911.868,-320.968 917.937,-321.467"/>
<polygon fill="#9a32cd" stroke="#9a32cd" points="825.045,-310.501 814.801,-313.205 824.495,-317.48 825.045,-310.501"/>
<text text-anchor="middle" x="869" y="-323" font-family="Helvetica,sans-Serif" font-size="10.00"> request</text>
</g>
<!-- Node14&#45;&gt;Node3 -->
<g id="edge15" class="edge"><title>Node14&#45;&gt;Node3</title>
<path fill="none" stroke="#9a32cd" stroke-dasharray="5,2" d="M511.259,-229.172C550.961,-230.352 616.505,-232 673,-232 673,-232 673,-232 998,-232 1060.09,-232 1130.07,-219.64 1178.75,-209.019"/>
<polygon fill="#9a32cd" stroke="#9a32cd" points="511.361,-225.673 501.26,-228.868 511.149,-232.67 511.361,-225.673"/>
<text text-anchor="middle" x="760" y="-235" font-family="Helvetica,sans-Serif" font-size="10.00"> model2_bv</text>
</g>
<!-- Node15 -->
<g id="node15" class="node"><title>Node15</title>
<polygon fill="white" stroke="#bfbfbf" points="982.5,-184.5 982.5,-203.5 1011.5,-203.5 1011.5,-184.5 982.5,-184.5"/>
<text text-anchor="middle" x="997" y="-191.5" font-family="Helvetica,sans-Serif" font-size="10.00">S</text>
</g>
<!-- Node15&#45;&gt;Node3 -->
<g id="edge17" class="edge"><title>Node15&#45;&gt;Node3</title>
<path fill="none" stroke="#9a32cd" stroke-dasharray="5,2" d="M1021.84,-194C1053.77,-194 1111.98,-194 1160.25,-194"/>
<polygon fill="#9a32cd" stroke="#9a32cd" points="1021.7,-190.5 1011.7,-194 1021.7,-197.5 1021.7,-190.5"/>
<text text-anchor="middle" x="1118" y="-197" font-family="Helvetica,sans-Serif" font-size="10.00"> model2</text>
</g>
<!-- Node16&#45;&gt;Node3 -->
<g id="edge18" class="edge"><title>Node16&#45;&gt;Node3</title>
<path fill="none" stroke="#9a32cd" stroke-dasharray="5,2" d="M1066.69,-166.786C1095.91,-171.374 1130.16,-176.753 1160.47,-181.512"/>
<polygon fill="#9a32cd" stroke="#9a32cd" points="1067,-163.292 1056.58,-165.199 1065.92,-170.208 1067,-163.292"/>
<text text-anchor="middle" x="1118" y="-182" font-family="Helvetica,sans-Serif" font-size="10.00"> model1</text>
</g>
<!-- Node17 -->
<g id="node17" class="node"><title>Node17</title>
<polygon fill="white" stroke="#bfbfbf" points="724.5,-167.5 724.5,-186.5 795.5,-186.5 795.5,-167.5 724.5,-167.5"/>
<text text-anchor="middle" x="760" y="-174.5" font-family="Helvetica,sans-Serif" font-size="10.00">noncopyable</text>
</g>
<!-- Node17&#45;&gt;Node16 -->
<g id="edge20" class="edge"><title>Node17&#45;&gt;Node16</title>
<path fill="none" stroke="#8b1a1a" d="M805.764,-173C843.141,-169.66 896.704,-164.873 937.476,-161.23"/>
<polygon fill="#8b1a1a" stroke="#8b1a1a" points="805.324,-169.525 795.675,-173.901 805.947,-176.497 805.324,-169.525"/>
</g>
<!-- Node18 -->
<g id="node18" class="node"><title>Node18</title>
<g id="a_node18"><a xlink:href="a00245.html" target="_top" xlink:title="Triangle with 3 indices for points. ">
<polygon fill="white" stroke="black" points="726,-122.5 726,-141.5 794,-141.5 794,-122.5 726,-122.5"/>
<text text-anchor="middle" x="760" y="-129.5" font-family="Helvetica,sans-Serif" font-size="10.00">fcl::Triangle</text>
</a>
</g>
</g>
<!-- Node18&#45;&gt;Node2 -->
<g id="edge26" class="edge"><title>Node18&#45;&gt;Node2</title>
<path fill="none" stroke="#9a32cd" stroke-dasharray="5,2" d="M804.088,-129.901C904.443,-124.891 1161.54,-111.342 1376,-94 1382.03,-93.5127 1388.23,-92.9788 1394.49,-92.4171"/>
<polygon fill="#9a32cd" stroke="#9a32cd" points="803.845,-126.409 794.032,-130.401 804.193,-133.4 803.845,-126.409"/>
<text text-anchor="middle" x="1118" y="-117" font-family="Helvetica,sans-Serif" font-size="10.00"> tri_indices</text>
</g>
<!-- Node18&#45;&gt;Node16 -->
<g id="edge21" class="edge"><title>Node18&#45;&gt;Node16</title>
<path fill="none" stroke="#9a32cd" stroke-dasharray="5,2" d="M804.228,-136.415C841.566,-140.228 895.863,-145.773 937.158,-149.991"/>
<polygon fill="#9a32cd" stroke="#9a32cd" points="804.475,-132.922 794.171,-135.388 803.764,-139.886 804.475,-132.922"/>
<text text-anchor="middle" x="869" y="-150" font-family="Helvetica,sans-Serif" font-size="10.00"> tri_indices</text>
</g>
<!-- Node19 -->
<g id="node19" class="node"><title>Node19</title>
<g id="a_node19"><a xlink:href="a00069.html" target="_top" xlink:title="Vector3 class wrapper. The core data is in the template parameter class. ">
<polygon fill="white" stroke="black" points="707,-50 707,-80 813,-80 813,-50 707,-50"/>
<text text-anchor="start" x="715" y="-68" font-family="Helvetica,sans-Serif" font-size="10.00">Eigen::FclMatrix&lt; T,</text>
<text text-anchor="middle" x="760" y="-57" font-family="Helvetica,sans-Serif" font-size="10.00"> Cols, _Options &gt;</text>
</a>
</g>
</g>
<!-- Node19&#45;&gt;Node2 -->
<g id="edge27" class="edge"><title>Node19&#45;&gt;Node2</title>
<path fill="none" stroke="#9a32cd" stroke-dasharray="5,2" d="M823.167,-66.5434C951.135,-69.7206 1244.52,-77.0047 1394.33,-80.7241"/>
<polygon fill="#9a32cd" stroke="#9a32cd" points="823.224,-63.0439 813.14,-66.2945 823.05,-70.0417 823.224,-63.0439"/>
<text text-anchor="middle" x="1118" y="-78" font-family="Helvetica,sans-Serif" font-size="10.00"> vertices</text>
</g>
<!-- Node19&#45;&gt;Node16 -->
<g id="edge22" class="edge"><title>Node19&#45;&gt;Node16</title>
<path fill="none" stroke="#9a32cd" stroke-dasharray="5,2" d="M814.412,-83.393C840.376,-92.5422 871.957,-103.979 900,-115 925.807,-125.142 955.057,-137.806 974.417,-146.355"/>
<polygon fill="#9a32cd" stroke="#9a32cd" points="815.35,-80.013 804.756,-80.0041 813.032,-86.6181 815.35,-80.013"/>
<text text-anchor="middle" x="869" y="-129" font-family="Helvetica,sans-Serif" font-size="10.00"> prev_vertices</text>
<text text-anchor="middle" x="869" y="-118" font-family="Helvetica,sans-Serif" font-size="10.00">vertices</text>
</g>
<!-- Node20 -->
<g id="node20" class="node"><title>Node20</title>
<polygon fill="white" stroke="#bfbfbf" points="535,-75 535,-105 639,-105 639,-75 535,-75"/>
<text text-anchor="start" x="543" y="-93" font-family="Helvetica,sans-Serif" font-size="10.00">Eigen::Matrix&lt; T, 3,</text>
<text text-anchor="middle" x="587" y="-82" font-family="Helvetica,sans-Serif" font-size="10.00"> Cols, _Options &gt;</text>
</g>
<!-- Node20&#45;&gt;Node19 -->
<g id="edge23" class="edge"><title>Node20&#45;&gt;Node19</title>
<path fill="none" stroke="midnightblue" d="M649.276,-81.0416C668.118,-78.2868 688.672,-75.2818 706.843,-72.6252"/>
<polygon fill="midnightblue" stroke="midnightblue" points="648.694,-77.5893 639.306,-82.4992 649.707,-84.5157 648.694,-77.5893"/>
</g>
<!-- Node21 -->
<g id="node21" class="node"><title>Node21</title>
<g id="a_node21"><a xlink:href="a00073.html" target="_top" xlink:title="fcl::FclType\&lt; FclMatrix\l\&lt; T, Cols, _Options \&gt; \&gt;">
<polygon fill="white" stroke="black" points="526.5,-26 526.5,-56 647.5,-56 647.5,-26 526.5,-26"/>
<text text-anchor="start" x="534.5" y="-44" font-family="Helvetica,sans-Serif" font-size="10.00">fcl::FclType&lt; FclMatrix</text>
<text text-anchor="middle" x="587" y="-33" font-family="Helvetica,sans-Serif" font-size="10.00">&lt; T, Cols, _Options &gt; &gt;</text>
</a>
</g>
</g>
<!-- Node21&#45;&gt;Node19 -->
<g id="edge24" class="edge"><title>Node21&#45;&gt;Node19</title>
<path fill="none" stroke="midnightblue" d="M657.887,-50.8087C674.276,-53.1089 691.457,-55.5203 706.911,-57.6892"/>
<polygon fill="midnightblue" stroke="midnightblue" points="658.197,-47.318 647.808,-49.394 657.224,-54.25 658.197,-47.318"/>
</g>
<!-- Node22 -->
<g id="node22" class="node"><title>Node22</title>
<polygon fill="white" stroke="#bfbfbf" points="1189,-0.5 1189,-19.5 1293,-19.5 1293,-0.5 1189,-0.5"/>
<text text-anchor="middle" x="1241" y="-7.5" font-family="Helvetica,sans-Serif" font-size="10.00">NarrowPhaseSolver</text>
</g>
<!-- Node22&#45;&gt;Node2 -->
<g id="edge25" class="edge"><title>Node22&#45;&gt;Node2</title>
<path fill="none" stroke="#9a32cd" stroke-dasharray="5,2" d="M1303.28,-10.7737C1326.46,-12.4012 1352.84,-15.8856 1376,-23 1408.86,-33.0924 1443.06,-53.5822 1464.43,-67.7908"/>
<polygon fill="#9a32cd" stroke="#9a32cd" points="1303.4,-7.2751 1293.21,-10.1673 1302.98,-14.2624 1303.4,-7.2751"/>
<text text-anchor="middle" x="1358" y="-26" font-family="Helvetica,sans-Serif" font-size="10.00"> nsolver</text>
</g>
</g>
</svg>
