<?xml version="1.0" encoding="UTF-8" standalone="no"?>
<!DOCTYPE svg PUBLIC "-//W3C//DTD SVG 1.1//EN"
 "http://www.w3.org/Graphics/SVG/1.1/DTD/svg11.dtd">
<!-- Generated by graphviz version 2.36.0 (20140111.2315)
 -->
<!-- Title: fcl::OBBRSS Pages: 1 -->
<svg width="560pt" height="131pt"
 viewBox="0.00 0.00 560.00 131.00" xmlns="http://www.w3.org/2000/svg" xmlns:xlink="http://www.w3.org/1999/xlink">
<g id="graph0" class="graph" transform="scale(1 1) rotate(0) translate(4 127)">
<title>fcl::OBBRSS</title>
<polygon fill="white" stroke="none" points="-4,4 -4,-127 556,-127 556,4 -4,4"/>
<!-- Node1 -->
<g id="node1" class="node"><title>Node1</title>
<polygon fill="#bfbfbf" stroke="black" points="476.5,-52.5 476.5,-71.5 551.5,-71.5 551.5,-52.5 476.5,-52.5"/>
<text text-anchor="middle" x="514" y="-59.5" font-family="Helvetica,sans-Serif" font-size="10.00">fcl::OBBRSS</text>
</g>
<!-- Node2 -->
<g id="node2" class="node"><title>Node2</title>
<g id="a_node2"><a xlink:href="a00154.html" target="_top" xlink:title="Oriented bounding box class. ">
<polygon fill="white" stroke="black" points="366,-72.5 366,-91.5 420,-91.5 420,-72.5 366,-72.5"/>
<text text-anchor="middle" x="393" y="-79.5" font-family="Helvetica,sans-Serif" font-size="10.00">fcl::OBB</text>
</a>
</g>
</g>
<!-- Node2&#45;&gt;Node1 -->
<g id="edge1" class="edge"><title>Node2&#45;&gt;Node1</title>
<path fill="none" stroke="#9a32cd" stroke-dasharray="5,2" d="M430.248,-75.9079C444.783,-73.4651 461.514,-70.6531 476.112,-68.1997"/>
<polygon fill="#9a32cd" stroke="#9a32cd" points="429.397,-72.5018 420.115,-77.6109 430.557,-79.405 429.397,-72.5018"/>
<text text-anchor="middle" x="448" y="-77" font-family="Helvetica,sans-Serif" font-size="10.00"> obb</text>
</g>
<!-- Node3 -->
<g id="node3" class="node"><title>Node3</title>
<g id="a_node3"><a xlink:href="a00069.html" target="_top" xlink:title="Eigen::FclMatrix\&lt; FCL\l_REAL, 1 \&gt;">
<polygon fill="white" stroke="black" points="182,-46 182,-76 298,-76 298,-46 182,-46"/>
<text text-anchor="start" x="190" y="-64" font-family="Helvetica,sans-Serif" font-size="10.00">Eigen::FclMatrix&lt; FCL</text>
<text text-anchor="middle" x="240" y="-53" font-family="Helvetica,sans-Serif" font-size="10.00">_REAL, 1 &gt;</text>
</a>
</g>
</g>
<!-- Node3&#45;&gt;Node2 -->
<g id="edge2" class="edge"><title>Node3&#45;&gt;Node2</title>
<path fill="none" stroke="#9a32cd" stroke-dasharray="5,2" d="M308.002,-70.3181C328.391,-73.1536 349.617,-76.1056 365.63,-78.3327"/>
<polygon fill="#9a32cd" stroke="#9a32cd" points="308.473,-66.8501 298.087,-68.9392 307.509,-73.7834 308.473,-66.8501"/>
<text text-anchor="middle" x="332" y="-100" font-family="Helvetica,sans-Serif" font-size="10.00"> extent</text>
<text text-anchor="middle" x="332" y="-89" font-family="Helvetica,sans-Serif" font-size="10.00">To</text>
<text text-anchor="middle" x="332" y="-78" font-family="Helvetica,sans-Serif" font-size="10.00">axis</text>
</g>
<!-- Node6 -->
<g id="node6" class="node"><title>Node6</title>
<g id="a_node6"><a xlink:href="a00181.html" target="_top" xlink:title="A class for rectangle sphere&#45;swept bounding volume. ">
<polygon fill="white" stroke="black" points="366,-32.5 366,-51.5 420,-51.5 420,-32.5 366,-32.5"/>
<text text-anchor="middle" x="393" y="-39.5" font-family="Helvetica,sans-Serif" font-size="10.00">fcl::RSS</text>
</a>
</g>
</g>
<!-- Node3&#45;&gt;Node6 -->
<g id="edge6" class="edge"><title>Node3&#45;&gt;Node6</title>
<path fill="none" stroke="#9a32cd" stroke-dasharray="5,2" d="M296.922,-43.5547C303.304,-42.0983 309.758,-40.8573 316,-40 330.09,-38.0646 333.781,-39.677 348,-40 353.81,-40.132 360.048,-40.3619 365.948,-40.6199"/>
<polygon fill="#9a32cd" stroke="#9a32cd" points="295.867,-40.2098 286.992,-45.9967 297.539,-47.0072 295.867,-40.2098"/>
<text text-anchor="middle" x="332" y="-54" font-family="Helvetica,sans-Serif" font-size="10.00"> Tr</text>
<text text-anchor="middle" x="332" y="-43" font-family="Helvetica,sans-Serif" font-size="10.00">axis</text>
</g>
<!-- Node4 -->
<g id="node4" class="node"><title>Node4</title>
<polygon fill="white" stroke="#bfbfbf" points="6.5,-71 6.5,-123 137.5,-123 137.5,-71 6.5,-71"/>
<text text-anchor="start" x="14.5" y="-111" font-family="Helvetica,sans-Serif" font-size="10.00">Matrix&lt; FCL_REAL ,</text>
<text text-anchor="start" x="14.5" y="-100" font-family="Helvetica,sans-Serif" font-size="10.00"> 3, Cols, internal::</text>
<text text-anchor="start" x="14.5" y="-89" font-family="Helvetica,sans-Serif" font-size="10.00">traits&lt;Matrix &lt;FCL_REAL</text>
<text text-anchor="middle" x="72" y="-78" font-family="Helvetica,sans-Serif" font-size="10.00"> , 3, Cols&gt; &gt;::Options &gt;</text>
</g>
<!-- Node4&#45;&gt;Node3 -->
<g id="edge3" class="edge"><title>Node4&#45;&gt;Node3</title>
<path fill="none" stroke="midnightblue" d="M147.655,-80.8097C159.123,-78.3228 170.805,-75.7893 181.814,-73.4018"/>
<polygon fill="midnightblue" stroke="midnightblue" points="146.686,-77.4384 137.655,-82.9784 148.17,-84.2794 146.686,-77.4384"/>
</g>
<!-- Node5 -->
<g id="node5" class="node"><title>Node5</title>
<g id="a_node5"><a xlink:href="a00073.html" target="_top" xlink:title="fcl::FclType\&lt; FclMatrix\l\&lt; FCL_REAL, Cols, internal\l::traits\&lt; Matrix\&lt; FCL_REAL,\l 3, Cols \&gt; \&gt;::Options \&gt; \&gt;">
<polygon fill="white" stroke="black" points="0.5,-0 0.5,-52 143.5,-52 143.5,-0 0.5,-0"/>
<text text-anchor="start" x="8.5" y="-40" font-family="Helvetica,sans-Serif" font-size="10.00">fcl::FclType&lt; FclMatrix</text>
<text text-anchor="start" x="8.5" y="-29" font-family="Helvetica,sans-Serif" font-size="10.00">&lt; FCL_REAL, Cols, internal</text>
<text text-anchor="start" x="8.5" y="-18" font-family="Helvetica,sans-Serif" font-size="10.00">::traits&lt; Matrix&lt; FCL_REAL,</text>
<text text-anchor="middle" x="72" y="-7" font-family="Helvetica,sans-Serif" font-size="10.00"> 3, Cols &gt; &gt;::Options &gt; &gt;</text>
</a>
</g>
</g>
<!-- Node5&#45;&gt;Node3 -->
<g id="edge4" class="edge"><title>Node5&#45;&gt;Node3</title>
<path fill="none" stroke="midnightblue" d="M153.751,-43.0258C163.257,-45.03 172.802,-47.0425 181.887,-48.958"/>
<polygon fill="midnightblue" stroke="midnightblue" points="154.387,-39.5831 143.88,-40.9447 152.943,-46.4325 154.387,-39.5831"/>
</g>
<!-- Node6&#45;&gt;Node1 -->
<g id="edge5" class="edge"><title>Node6&#45;&gt;Node1</title>
<path fill="none" stroke="#9a32cd" stroke-dasharray="5,2" d="M430.248,-48.0921C444.783,-50.5349 461.514,-53.3469 476.112,-55.8003"/>
<polygon fill="#9a32cd" stroke="#9a32cd" points="430.557,-44.595 420.115,-46.3891 429.397,-51.4982 430.557,-44.595"/>
<text text-anchor="middle" x="448" y="-55" font-family="Helvetica,sans-Serif" font-size="10.00"> rss</text>
</g>
</g>
</svg>
