<?xml version="1.0" encoding="UTF-8" standalone="no"?>
<!DOCTYPE svg PUBLIC "-//W3C//DTD SVG 1.1//EN"
 "http://www.w3.org/Graphics/SVG/1.1/DTD/svg11.dtd">
<!-- Generated by graphviz version 2.36.0 (20140111.2315)
 -->
<!-- Title: fcl::NearestNeighborsSqrtApprox&lt; _T &gt; Pages: 1 -->
<svg width="229pt" height="190pt"
 viewBox="0.00 0.00 229.00 190.00" xmlns="http://www.w3.org/2000/svg" xmlns:xlink="http://www.w3.org/1999/xlink">
<g id="graph0" class="graph" transform="scale(1 1) rotate(0) translate(4 186)">
<title>fcl::NearestNeighborsSqrtApprox&lt; _T &gt;</title>
<polygon fill="white" stroke="none" points="-4,4 -4,-186 225,-186 225,4 -4,4"/>
<!-- Node1 -->
<g id="node1" class="node"><title>Node1</title>
<polygon fill="#bfbfbf" stroke="black" points="50,-1 50,-31 180,-31 180,-1 50,-1"/>
<text text-anchor="start" x="58" y="-19" font-family="Helvetica,sans-Serif" font-size="10.00">fcl::NearestNeighborsSqrt</text>
<text text-anchor="middle" x="115" y="-8" font-family="Helvetica,sans-Serif" font-size="10.00">Approx&lt; _T &gt;</text>
</g>
<!-- Node2 -->
<g id="node2" class="node"><title>Node2</title>
<g id="a_node2"><a xlink:href="a00148.html" target="_top" xlink:title="A nearest neighbors datastructure that uses linear search. ">
<polygon fill="white" stroke="black" points="46,-71 46,-101 184,-101 184,-71 46,-71"/>
<text text-anchor="start" x="54" y="-89" font-family="Helvetica,sans-Serif" font-size="10.00">fcl::NearestNeighborsLinear</text>
<text text-anchor="middle" x="115" y="-78" font-family="Helvetica,sans-Serif" font-size="10.00">&lt; _T &gt;</text>
</a>
</g>
</g>
<!-- Node2&#45;&gt;Node1 -->
<g id="edge1" class="edge"><title>Node2&#45;&gt;Node1</title>
<path fill="none" stroke="midnightblue" d="M115,-60.7688C115,-50.8141 115,-39.6384 115,-31.0716"/>
<polygon fill="midnightblue" stroke="midnightblue" points="111.5,-60.9103 115,-70.9104 118.5,-60.9104 111.5,-60.9103"/>
</g>
<!-- Node3 -->
<g id="node3" class="node"><title>Node3</title>
<g id="a_node3"><a xlink:href="a00146.html" target="_top" xlink:title="Abstract representation of a container that can perform nearest neighbors queries. ">
<polygon fill="white" stroke="black" points="-1,-151 -1,-181 111,-181 111,-151 -1,-151"/>
<text text-anchor="start" x="7" y="-169" font-family="Helvetica,sans-Serif" font-size="10.00">fcl::NearestNeighbors</text>
<text text-anchor="middle" x="55" y="-158" font-family="Helvetica,sans-Serif" font-size="10.00">&lt; _T &gt;</text>
</a>
</g>
</g>
<!-- Node3&#45;&gt;Node2 -->
<g id="edge2" class="edge"><title>Node3&#45;&gt;Node2</title>
<path fill="none" stroke="midnightblue" d="M72.3186,-142.486C82.5544,-129.179 95.204,-112.735 104.065,-101.216"/>
<polygon fill="midnightblue" stroke="midnightblue" points="69.3279,-140.633 66.0049,-150.694 74.8763,-144.901 69.3279,-140.633"/>
</g>
<!-- Node4 -->
<g id="node4" class="node"><title>Node4</title>
<polygon fill="white" stroke="#bfbfbf" points="129,-156.5 129,-175.5 221,-175.5 221,-156.5 129,-156.5"/>
<text text-anchor="middle" x="175" y="-163.5" font-family="Helvetica,sans-Serif" font-size="10.00">std::vector&lt; _T &gt;</text>
</g>
<!-- Node4&#45;&gt;Node2 -->
<g id="edge3" class="edge"><title>Node4&#45;&gt;Node2</title>
<path fill="none" stroke="#9a32cd" stroke-dasharray="5,2" d="M161.999,-148.099C151.231,-134.1 136.101,-114.431 125.944,-101.227"/>
<polygon fill="#9a32cd" stroke="#9a32cd" points="159.478,-150.562 168.35,-156.355 165.027,-146.294 159.478,-150.562"/>
<text text-anchor="middle" x="162" y="-123.5" font-family="Helvetica,sans-Serif" font-size="10.00"> data_</text>
</g>
</g>
</svg>
