<?xml version="1.0" encoding="UTF-8" standalone="no"?>
<!DOCTYPE svg PUBLIC "-//W3C//DTD SVG 1.1//EN"
 "http://www.w3.org/Graphics/SVG/1.1/DTD/svg11.dtd">
<!-- Generated by graphviz version 2.36.0 (20140111.2315)
 -->
<!-- Title: fcl::PrismaticJoint Pages: 1 -->
<svg width="694pt" height="213pt"
 viewBox="0.00 0.00 694.00 213.00" xmlns="http://www.w3.org/2000/svg" xmlns:xlink="http://www.w3.org/1999/xlink">
<g id="graph0" class="graph" transform="scale(1 1) rotate(0) translate(4 209)">
<title>fcl::PrismaticJoint</title>
<polygon fill="white" stroke="none" points="-4,4 -4,-209 690,-209 690,4 -4,4"/>
<!-- Node1 -->
<g id="node1" class="node"><title>Node1</title>
<polygon fill="#bfbfbf" stroke="black" points="590.5,-117.5 590.5,-136.5 685.5,-136.5 685.5,-117.5 590.5,-117.5"/>
<text text-anchor="middle" x="638" y="-124.5" font-family="Helvetica,sans-Serif" font-size="10.00">fcl::PrismaticJoint</text>
</g>
<!-- Node2 -->
<g id="node2" class="node"><title>Node2</title>
<g id="a_node2"><a xlink:href="a00102.html" target="_top" xlink:title="Base Joint. ">
<polygon fill="white" stroke="black" points="441,-142.5 441,-161.5 495,-161.5 495,-142.5 441,-142.5"/>
<text text-anchor="middle" x="468" y="-149.5" font-family="Helvetica,sans-Serif" font-size="10.00">fcl::Joint</text>
</a>
</g>
</g>
<!-- Node2&#45;&gt;Node1 -->
<g id="edge1" class="edge"><title>Node2&#45;&gt;Node1</title>
<path fill="none" stroke="midnightblue" d="M505.363,-146.589C530.251,-142.885 563.472,-137.942 590.314,-133.947"/>
<polygon fill="midnightblue" stroke="midnightblue" points="504.626,-143.16 495.25,-148.094 505.656,-150.084 504.626,-143.16"/>
</g>
<!-- Node3 -->
<g id="node3" class="node"><title>Node3</title>
<g id="a_node3"><a xlink:title="STL class. ">
<polygon fill="white" stroke="#bfbfbf" points="176,-180.5 176,-199.5 236,-199.5 236,-180.5 176,-180.5"/>
<text text-anchor="middle" x="206" y="-187.5" font-family="Helvetica,sans-Serif" font-size="10.00">std::string</text>
</a>
</g>
</g>
<!-- Node3&#45;&gt;Node2 -->
<g id="edge2" class="edge"><title>Node3&#45;&gt;Node2</title>
<path fill="none" stroke="#9a32cd" stroke-dasharray="5,2" d="M246.24,-185.55C283.75,-181.145 341.852,-173.927 392,-166 408.223,-163.436 426.327,-160.071 440.683,-157.283"/>
<polygon fill="#9a32cd" stroke="#9a32cd" points="245.758,-182.083 236.23,-186.716 246.568,-189.036 245.758,-182.083"/>
<text text-anchor="middle" x="344" y="-183" font-family="Helvetica,sans-Serif" font-size="10.00"> name_</text>
</g>
<!-- Node4 -->
<g id="node4" class="node"><title>Node4</title>
<g id="a_node4"><a xlink:title="STL class. ">
<polygon fill="white" stroke="#bfbfbf" points="0.5,-175 0.5,-205 95.5,-205 95.5,-175 0.5,-175"/>
<text text-anchor="start" x="8.5" y="-193" font-family="Helvetica,sans-Serif" font-size="10.00">std::basic_string&lt;</text>
<text text-anchor="middle" x="48" y="-182" font-family="Helvetica,sans-Serif" font-size="10.00"> char &gt;</text>
</a>
</g>
</g>
<!-- Node4&#45;&gt;Node3 -->
<g id="edge3" class="edge"><title>Node4&#45;&gt;Node3</title>
<path fill="none" stroke="midnightblue" d="M106.115,-190C129.821,-190 156.306,-190 175.895,-190"/>
<polygon fill="midnightblue" stroke="midnightblue" points="105.805,-186.5 95.8051,-190 105.805,-193.5 105.805,-186.5"/>
</g>
<!-- Node5 -->
<g id="node5" class="node"><title>Node5</title>
<g id="a_node5"><a xlink:href="a00242.html" target="_top" xlink:title="Simple transform class used locally by InterpMotion. ">
<polygon fill="white" stroke="black" points="163,-142.5 163,-161.5 249,-161.5 249,-142.5 163,-142.5"/>
<text text-anchor="middle" x="206" y="-149.5" font-family="Helvetica,sans-Serif" font-size="10.00">fcl::Transform3f</text>
</a>
</g>
</g>
<!-- Node5&#45;&gt;Node2 -->
<g id="edge4" class="edge"><title>Node5&#45;&gt;Node2</title>
<path fill="none" stroke="#9a32cd" stroke-dasharray="5,2" d="M259.307,-152C314.279,-152 398.524,-152 440.836,-152"/>
<polygon fill="#9a32cd" stroke="#9a32cd" points="259.062,-148.5 249.062,-152 259.062,-155.5 259.062,-148.5"/>
<text text-anchor="middle" x="344" y="-155" font-family="Helvetica,sans-Serif" font-size="10.00"> transform_to_parent_</text>
</g>
<!-- Node6 -->
<g id="node6" class="node"><title>Node6</title>
<g id="a_node6"><a xlink:href="a00069.html" target="_top" xlink:title="Eigen::FclMatrix\&lt; FCL\l_REAL, 1 \&gt;">
<polygon fill="white" stroke="black" points="410,-82 410,-112 526,-112 526,-82 410,-82"/>
<text text-anchor="start" x="418" y="-100" font-family="Helvetica,sans-Serif" font-size="10.00">Eigen::FclMatrix&lt; FCL</text>
<text text-anchor="middle" x="468" y="-89" font-family="Helvetica,sans-Serif" font-size="10.00">_REAL, 1 &gt;</text>
</a>
</g>
</g>
<!-- Node6&#45;&gt;Node1 -->
<g id="edge5" class="edge"><title>Node6&#45;&gt;Node1</title>
<path fill="none" stroke="#9a32cd" stroke-dasharray="5,2" d="M536.306,-109.019C554.476,-112.264 573.732,-115.702 590.485,-118.694"/>
<polygon fill="#9a32cd" stroke="#9a32cd" points="536.806,-105.553 526.346,-107.24 535.575,-112.444 536.806,-105.553"/>
<text text-anchor="middle" x="558" y="-118" font-family="Helvetica,sans-Serif" font-size="10.00"> axis_</text>
</g>
<!-- Node7 -->
<g id="node7" class="node"><title>Node7</title>
<polygon fill="white" stroke="#bfbfbf" points="140.5,-71 140.5,-123 271.5,-123 271.5,-71 140.5,-71"/>
<text text-anchor="start" x="148.5" y="-111" font-family="Helvetica,sans-Serif" font-size="10.00">Matrix&lt; FCL_REAL ,</text>
<text text-anchor="start" x="148.5" y="-100" font-family="Helvetica,sans-Serif" font-size="10.00"> 3, Cols, internal::</text>
<text text-anchor="start" x="148.5" y="-89" font-family="Helvetica,sans-Serif" font-size="10.00">traits&lt;Matrix &lt;FCL_REAL</text>
<text text-anchor="middle" x="206" y="-78" font-family="Helvetica,sans-Serif" font-size="10.00"> , 3, Cols&gt; &gt;::Options &gt;</text>
</g>
<!-- Node7&#45;&gt;Node6 -->
<g id="edge6" class="edge"><title>Node7&#45;&gt;Node6</title>
<path fill="none" stroke="midnightblue" d="M281.761,-97C322.518,-97 372.173,-97 409.81,-97"/>
<polygon fill="midnightblue" stroke="midnightblue" points="281.604,-93.5001 271.604,-97 281.604,-100.5 281.604,-93.5001"/>
</g>
<!-- Node8 -->
<g id="node8" class="node"><title>Node8</title>
<g id="a_node8"><a xlink:href="a00073.html" target="_top" xlink:title="fcl::FclType\&lt; FclMatrix\l\&lt; FCL_REAL, Cols, internal\l::traits\&lt; Matrix\&lt; FCL_REAL,\l 3, Cols \&gt; \&gt;::Options \&gt; \&gt;">
<polygon fill="white" stroke="black" points="134.5,-0 134.5,-52 277.5,-52 277.5,-0 134.5,-0"/>
<text text-anchor="start" x="142.5" y="-40" font-family="Helvetica,sans-Serif" font-size="10.00">fcl::FclType&lt; FclMatrix</text>
<text text-anchor="start" x="142.5" y="-29" font-family="Helvetica,sans-Serif" font-size="10.00">&lt; FCL_REAL, Cols, internal</text>
<text text-anchor="start" x="142.5" y="-18" font-family="Helvetica,sans-Serif" font-size="10.00">::traits&lt; Matrix&lt; FCL_REAL,</text>
<text text-anchor="middle" x="206" y="-7" font-family="Helvetica,sans-Serif" font-size="10.00"> 3, Cols &gt; &gt;::Options &gt; &gt;</text>
</a>
</g>
</g>
<!-- Node8&#45;&gt;Node6 -->
<g id="edge7" class="edge"><title>Node8&#45;&gt;Node6</title>
<path fill="none" stroke="midnightblue" d="M287.533,-47.9917C327.936,-59.0247 375.83,-72.1036 411.976,-81.9741"/>
<polygon fill="midnightblue" stroke="midnightblue" points="288.272,-44.5653 277.703,-45.3073 286.427,-51.318 288.272,-44.5653"/>
</g>
</g>
</svg>
