<?xml version="1.0" encoding="UTF-8" standalone="no"?>
<!DOCTYPE svg PUBLIC "-//W3C//DTD SVG 1.1//EN"
 "http://www.w3.org/Graphics/SVG/1.1/DTD/svg11.dtd">
<!-- Generated by graphviz version 2.36.0 (20140111.2315)
 -->
<!-- Title: fcl::NearestNeighborsGNAT&lt; _T &gt;::Node Pages: 1 -->
<svg width="564pt" height="73pt"
 viewBox="0.00 0.00 564.00 73.00" xmlns="http://www.w3.org/2000/svg" xmlns:xlink="http://www.w3.org/1999/xlink">
<g id="graph0" class="graph" transform="scale(1 1) rotate(0) translate(4 69)">
<title>fcl::NearestNeighborsGNAT&lt; _T &gt;::Node</title>
<polygon fill="white" stroke="none" points="-4,4 -4,-69 560,-69 560,4 -4,4"/>
<!-- Node1 -->
<g id="node1" class="node"><title>Node1</title>
<polygon fill="#bfbfbf" stroke="black" points="202,-17 202,-47 342,-47 342,-17 202,-17"/>
<text text-anchor="start" x="210" y="-35" font-family="Helvetica,sans-Serif" font-size="10.00">fcl::NearestNeighborsGNAT</text>
<text text-anchor="middle" x="272" y="-24" font-family="Helvetica,sans-Serif" font-size="10.00">&lt; _T &gt;::Node</text>
</g>
<!-- Node3 -->
<g id="node3" class="node"><title>Node3</title>
<polygon fill="white" stroke="#bfbfbf" points="422,-17 422,-47 556,-47 556,-17 422,-17"/>
<text text-anchor="start" x="430" y="-35" font-family="Helvetica,sans-Serif" font-size="10.00">std::vector&lt; fcl::Nearest</text>
<text text-anchor="middle" x="489" y="-24" font-family="Helvetica,sans-Serif" font-size="10.00">NeighborsGNAT::Node * &gt;</text>
</g>
<!-- Node1&#45;&gt;Node3 -->
<g id="edge3" class="edge"><title>Node1&#45;&gt;Node3</title>
<path fill="none" stroke="#9a32cd" stroke-dasharray="5,2" d="M352.235,-32C375.122,-32 399.848,-32 421.849,-32"/>
<polygon fill="#9a32cd" stroke="#9a32cd" points="352.211,-28.5001 342.211,-32 352.211,-35.5001 352.211,-28.5001"/>
<text text-anchor="middle" x="382" y="-35" font-family="Helvetica,sans-Serif" font-size="10.00"> elements</text>
</g>
<!-- Node2 -->
<g id="node2" class="node"><title>Node2</title>
<polygon fill="white" stroke="#bfbfbf" points="9,-45.5 9,-64.5 101,-64.5 101,-45.5 9,-45.5"/>
<text text-anchor="middle" x="55" y="-52.5" font-family="Helvetica,sans-Serif" font-size="10.00">std::vector&lt; _T &gt;</text>
</g>
<!-- Node2&#45;&gt;Node1 -->
<g id="edge1" class="edge"><title>Node2&#45;&gt;Node1</title>
<path fill="none" stroke="#9a32cd" stroke-dasharray="5,2" d="M111.329,-49.0811C138.923,-46.1292 172.571,-42.5296 201.851,-39.3974"/>
<polygon fill="#9a32cd" stroke="#9a32cd" points="110.642,-45.6345 101.071,-50.1784 111.387,-52.5948 110.642,-45.6345"/>
<text text-anchor="middle" x="156" y="-49" font-family="Helvetica,sans-Serif" font-size="10.00"> data_</text>
</g>
<!-- Node3&#45;&gt;Node1 -->
<g id="edge2" class="edge"><title>Node3&#45;&gt;Node1</title>
<path fill="none" stroke="#9a32cd" stroke-dasharray="5,2" d="M411.66,-16.8258C409.081,-16.5154 406.522,-16.238 404,-16 384.531,-14.1623 379.475,-14.2241 360,-16 354.188,-16.53 348.185,-17.2551 342.175,-18.1059"/>
<polygon fill="#9a32cd" stroke="#9a32cd" points="411.302,-20.3091 421.68,-18.1737 412.235,-13.3716 411.302,-20.3091"/>
<text text-anchor="middle" x="382" y="-19" font-family="Helvetica,sans-Serif" font-size="10.00"> children_</text>
</g>
<!-- Node4 -->
<g id="node4" class="node"><title>Node4</title>
<polygon fill="white" stroke="#bfbfbf" points="0,-0.5 0,-19.5 110,-19.5 110,-0.5 0,-0.5"/>
<text text-anchor="middle" x="55" y="-7.5" font-family="Helvetica,sans-Serif" font-size="10.00">std::vector&lt; double &gt;</text>
</g>
<!-- Node4&#45;&gt;Node1 -->
<g id="edge4" class="edge"><title>Node4&#45;&gt;Node1</title>
<path fill="none" stroke="#9a32cd" stroke-dasharray="5,2" d="M120.206,-7.63231C140.659,-7.64468 163.339,-8.45979 184,-11 194.795,-12.3272 206.192,-14.4987 217.053,-16.9536"/>
<polygon fill="#9a32cd" stroke="#9a32cd" points="120.03,-4.13316 110.05,-7.69033 120.07,-11.133 120.03,-4.13316"/>
<text text-anchor="middle" x="156" y="-25" font-family="Helvetica,sans-Serif" font-size="10.00"> maxRange_</text>
<text text-anchor="middle" x="156" y="-14" font-family="Helvetica,sans-Serif" font-size="10.00">minRange_</text>
</g>
</g>
</svg>
