<?xml version="1.0" encoding="UTF-8" standalone="no"?>
<!DOCTYPE svg PUBLIC "-//W3C//DTD SVG 1.1//EN"
 "http://www.w3.org/Graphics/SVG/1.1/DTD/svg11.dtd">
<!-- Generated by graphviz version 2.36.0 (20140111.2315)
 -->
<!-- Title: fcl::OcTreeShapeCollisionTraversalNode&lt; S, NarrowPhaseSolver &gt; Pages: 1 -->
<svg width="206pt" height="152pt"
 viewBox="0.00 0.00 206.00 152.00" xmlns="http://www.w3.org/2000/svg" xmlns:xlink="http://www.w3.org/1999/xlink">
<g id="graph0" class="graph" transform="scale(1 1) rotate(0) translate(4 148)">
<title>fcl::OcTreeShapeCollisionTraversalNode&lt; S, NarrowPhaseSolver &gt;</title>
<polygon fill="white" stroke="none" points="-4,4 -4,-148 202,-148 202,4 -4,4"/>
<!-- Node1 -->
<g id="node1" class="node"><title>Node1</title>
<polygon fill="#bfbfbf" stroke="black" points="0,-1 0,-31 198,-31 198,-1 0,-1"/>
<text text-anchor="start" x="8" y="-19" font-family="Helvetica,sans-Serif" font-size="10.00">fcl::OcTreeShapeCollision</text>
<text text-anchor="middle" x="99" y="-8" font-family="Helvetica,sans-Serif" font-size="10.00">TraversalNode&lt; S, NarrowPhaseSolver &gt;</text>
</g>
<!-- Node2 -->
<g id="node2" class="node"><title>Node2</title>
<g id="a_node2"><a xlink:href="a00036.html" target="_top" xlink:title="Node structure encoding the information required for collision traversal. ">
<polygon fill="white" stroke="black" points="20.5,-68.5 20.5,-87.5 177.5,-87.5 177.5,-68.5 20.5,-68.5"/>
<text text-anchor="middle" x="99" y="-75.5" font-family="Helvetica,sans-Serif" font-size="10.00">fcl::CollisionTraversalNodeBase</text>
</a>
</g>
</g>
<!-- Node2&#45;&gt;Node1 -->
<g id="edge1" class="edge"><title>Node2&#45;&gt;Node1</title>
<path fill="none" stroke="midnightblue" d="M99,-58.3707C99,-49.5849 99,-39.2721 99,-31.1408"/>
<polygon fill="midnightblue" stroke="midnightblue" points="95.5001,-58.4034 99,-68.4035 102.5,-58.4035 95.5001,-58.4034"/>
</g>
<!-- Node3 -->
<g id="node3" class="node"><title>Node3</title>
<g id="a_node3"><a xlink:href="a00244.html" target="_top" xlink:title="Node structure encoding the information required for traversal. ">
<polygon fill="white" stroke="black" points="39.5,-124.5 39.5,-143.5 158.5,-143.5 158.5,-124.5 39.5,-124.5"/>
<text text-anchor="middle" x="99" y="-131.5" font-family="Helvetica,sans-Serif" font-size="10.00">fcl::TraversalNodeBase</text>
</a>
</g>
</g>
<!-- Node3&#45;&gt;Node2 -->
<g id="edge2" class="edge"><title>Node3&#45;&gt;Node2</title>
<path fill="none" stroke="midnightblue" d="M99,-113.805C99,-104.91 99,-94.7798 99,-87.7511"/>
<polygon fill="midnightblue" stroke="midnightblue" points="95.5001,-114.083 99,-124.083 102.5,-114.083 95.5001,-114.083"/>
</g>
</g>
</svg>
