<?xml version="1.0" encoding="UTF-8" standalone="no"?>
<!DOCTYPE svg PUBLIC "-//W3C//DTD SVG 1.1//EN"
 "http://www.w3.org/Graphics/SVG/1.1/DTD/svg11.dtd">
<!-- Generated by graphviz version 2.36.0 (20140111.2315)
 -->
<!-- Title: fcl::Model Pages: 1 -->
<svg width="508pt" height="134pt"
 viewBox="0.00 0.00 508.00 134.00" xmlns="http://www.w3.org/2000/svg" xmlns:xlink="http://www.w3.org/1999/xlink">
<g id="graph0" class="graph" transform="scale(1 1) rotate(0) translate(4 130)">
<title>fcl::Model</title>
<polygon fill="white" stroke="none" points="-4,4 -4,-130 504,-130 504,4 -4,4"/>
<!-- Node1 -->
<g id="node1" class="node"><title>Node1</title>
<polygon fill="#bfbfbf" stroke="black" points="440.5,-70.5 440.5,-89.5 499.5,-89.5 499.5,-70.5 440.5,-70.5"/>
<text text-anchor="middle" x="470" y="-77.5" font-family="Helvetica,sans-Serif" font-size="10.00">fcl::Model</text>
</g>
<!-- Node2 -->
<g id="node2" class="node"><title>Node2</title>
<polygon fill="white" stroke="#bfbfbf" points="256.5,-59.5 256.5,-100.5 371.5,-100.5 371.5,-59.5 256.5,-59.5"/>
<text text-anchor="start" x="264.5" y="-88.5" font-family="Helvetica,sans-Serif" font-size="10.00">std::map&lt; std::string,</text>
<text text-anchor="start" x="264.5" y="-77.5" font-family="Helvetica,sans-Serif" font-size="10.00"> boost::shared_ptr&lt; fcl</text>
<text text-anchor="middle" x="314" y="-66.5" font-family="Helvetica,sans-Serif" font-size="10.00">::Link &gt; &gt;</text>
</g>
<!-- Node2&#45;&gt;Node1 -->
<g id="edge1" class="edge"><title>Node2&#45;&gt;Node1</title>
<path fill="none" stroke="#9a32cd" stroke-dasharray="5,2" d="M382.149,-80C402.571,-80 423.933,-80 440.361,-80"/>
<polygon fill="#9a32cd" stroke="#9a32cd" points="381.906,-76.5001 371.906,-80 381.906,-83.5001 381.906,-76.5001"/>
<text text-anchor="middle" x="406" y="-83" font-family="Helvetica,sans-Serif" font-size="10.00"> links_</text>
</g>
<!-- Node3 -->
<g id="node3" class="node"><title>Node3</title>
<g id="a_node3"><a xlink:title="STL class. ">
<polygon fill="white" stroke="#bfbfbf" points="134,-70.5 134,-89.5 194,-89.5 194,-70.5 134,-70.5"/>
<text text-anchor="middle" x="164" y="-77.5" font-family="Helvetica,sans-Serif" font-size="10.00">std::string</text>
</a>
</g>
</g>
<!-- Node3&#45;&gt;Node1 -->
<g id="edge4" class="edge"><title>Node3&#45;&gt;Node1</title>
<path fill="none" stroke="#9a32cd" stroke-dasharray="5,2" d="M197.599,-93.0881C214.685,-99.2517 236.139,-105.917 256,-109 306.945,-116.91 320.924,-116.016 372,-109 394.862,-105.86 399.893,-101.62 422,-95 427.908,-93.2308 434.21,-91.2703 440.218,-89.366"/>
<polygon fill="#9a32cd" stroke="#9a32cd" points="198.682,-89.7565 188.089,-89.5479 196.24,-96.3167 198.682,-89.7565"/>
<text text-anchor="middle" x="314" y="-118" font-family="Helvetica,sans-Serif" font-size="10.00"> name_</text>
</g>
<!-- Node3&#45;&gt;Node2 -->
<g id="edge2" class="edge"><title>Node3&#45;&gt;Node2</title>
<path fill="none" stroke="#9a32cd" stroke-dasharray="5,2" d="M204.263,-80C220.189,-80 238.891,-80 256.252,-80"/>
<polygon fill="#9a32cd" stroke="#9a32cd" points="204.24,-76.5001 194.24,-80 204.24,-83.5001 204.24,-76.5001"/>
<text text-anchor="middle" x="225" y="-83" font-family="Helvetica,sans-Serif" font-size="10.00"> keys</text>
</g>
<!-- Node5 -->
<g id="node5" class="node"><title>Node5</title>
<polygon fill="white" stroke="#bfbfbf" points="256.5,0.5 256.5,-40.5 371.5,-40.5 371.5,0.5 256.5,0.5"/>
<text text-anchor="start" x="264.5" y="-28.5" font-family="Helvetica,sans-Serif" font-size="10.00">std::map&lt; std::string,</text>
<text text-anchor="start" x="264.5" y="-17.5" font-family="Helvetica,sans-Serif" font-size="10.00"> boost::shared_ptr&lt; fcl</text>
<text text-anchor="middle" x="314" y="-6.5" font-family="Helvetica,sans-Serif" font-size="10.00">::Joint &gt; &gt;</text>
</g>
<!-- Node3&#45;&gt;Node5 -->
<g id="edge6" class="edge"><title>Node3&#45;&gt;Node5</title>
<path fill="none" stroke="#9a32cd" stroke-dasharray="5,2" d="M197.839,-66.6867C216.797,-59.0012 241.04,-49.1731 262.388,-40.5184"/>
<polygon fill="#9a32cd" stroke="#9a32cd" points="196.403,-63.4921 188.451,-70.4928 199.033,-69.9793 196.403,-63.4921"/>
<text text-anchor="middle" x="225" y="-64" font-family="Helvetica,sans-Serif" font-size="10.00"> keys</text>
</g>
<!-- Node4 -->
<g id="node4" class="node"><title>Node4</title>
<g id="a_node4"><a xlink:title="STL class. ">
<polygon fill="white" stroke="#bfbfbf" points="0.5,-65 0.5,-95 95.5,-95 95.5,-65 0.5,-65"/>
<text text-anchor="start" x="8.5" y="-83" font-family="Helvetica,sans-Serif" font-size="10.00">std::basic_string&lt;</text>
<text text-anchor="middle" x="48" y="-72" font-family="Helvetica,sans-Serif" font-size="10.00"> char &gt;</text>
</a>
</g>
</g>
<!-- Node4&#45;&gt;Node3 -->
<g id="edge3" class="edge"><title>Node4&#45;&gt;Node3</title>
<path fill="none" stroke="midnightblue" d="M105.782,-80C115.509,-80 125.243,-80 133.854,-80"/>
<polygon fill="midnightblue" stroke="midnightblue" points="105.697,-76.5001 95.6971,-80 105.697,-83.5001 105.697,-76.5001"/>
</g>
<!-- Node5&#45;&gt;Node1 -->
<g id="edge5" class="edge"><title>Node5&#45;&gt;Node1</title>
<path fill="none" stroke="#9a32cd" stroke-dasharray="5,2" d="M377.571,-44.3782C401.043,-53.5234 426.372,-63.3916 444.404,-70.4171"/>
<polygon fill="#9a32cd" stroke="#9a32cd" points="378.586,-41.0177 367.998,-40.6486 376.045,-47.5402 378.586,-41.0177"/>
<text text-anchor="middle" x="406" y="-64" font-family="Helvetica,sans-Serif" font-size="10.00"> joints_</text>
</g>
</g>
</svg>
