<?xml version="1.0" encoding="UTF-8" standalone="no"?>
<!DOCTYPE svg PUBLIC "-//W3C//DTD SVG 1.1//EN"
 "http://www.w3.org/Graphics/SVG/1.1/DTD/svg11.dtd">
<!-- Generated by graphviz version 2.36.0 (20140111.2315)
 -->
<!-- Title: fcl::NearestNeighbors&lt; _T &gt; Pages: 1 -->
<svg width="304pt" height="176pt"
 viewBox="0.00 0.00 304.00 176.00" xmlns="http://www.w3.org/2000/svg" xmlns:xlink="http://www.w3.org/1999/xlink">
<g id="graph0" class="graph" transform="scale(1 1) rotate(0) translate(4 172)">
<title>fcl::NearestNeighbors&lt; _T &gt;</title>
<polygon fill="white" stroke="none" points="-4,4 -4,-172 300,-172 300,4 -4,4"/>
<!-- Node1 -->
<g id="node1" class="node"><title>Node1</title>
<polygon fill="#bfbfbf" stroke="black" points="92,-137 92,-167 204,-167 204,-137 92,-137"/>
<text text-anchor="start" x="100" y="-155" font-family="Helvetica,sans-Serif" font-size="10.00">fcl::NearestNeighbors</text>
<text text-anchor="middle" x="148" y="-144" font-family="Helvetica,sans-Serif" font-size="10.00">&lt; _T &gt;</text>
</g>
<!-- Node2 -->
<g id="node2" class="node"><title>Node2</title>
<g id="a_node2"><a xlink:href="a00147.html" target="_top" xlink:title="Geometric Near&#45;neighbor Access Tree (GNAT), a data structure for nearest neighbor search...">
<polygon fill="white" stroke="black" points="0,-69 0,-99 140,-99 140,-69 0,-69"/>
<text text-anchor="start" x="8" y="-87" font-family="Helvetica,sans-Serif" font-size="10.00">fcl::NearestNeighborsGNAT</text>
<text text-anchor="middle" x="70" y="-76" font-family="Helvetica,sans-Serif" font-size="10.00">&lt; _T &gt;</text>
</a>
</g>
</g>
<!-- Node1&#45;&gt;Node2 -->
<g id="edge1" class="edge"><title>Node1&#45;&gt;Node2</title>
<path fill="none" stroke="midnightblue" d="M123.204,-130.018C111.263,-119.915 97.2641,-108.07 86.6238,-99.0663"/>
<polygon fill="midnightblue" stroke="midnightblue" points="121.18,-132.891 131.075,-136.679 125.702,-127.548 121.18,-132.891"/>
</g>
<!-- Node3 -->
<g id="node3" class="node"><title>Node3</title>
<g id="a_node3"><a xlink:href="a00148.html" target="_top" xlink:title="A nearest neighbors datastructure that uses linear search. ">
<polygon fill="white" stroke="black" points="158,-69 158,-99 296,-99 296,-69 158,-69"/>
<text text-anchor="start" x="166" y="-87" font-family="Helvetica,sans-Serif" font-size="10.00">fcl::NearestNeighborsLinear</text>
<text text-anchor="middle" x="227" y="-76" font-family="Helvetica,sans-Serif" font-size="10.00">&lt; _T &gt;</text>
</a>
</g>
</g>
<!-- Node1&#45;&gt;Node3 -->
<g id="edge2" class="edge"><title>Node1&#45;&gt;Node3</title>
<path fill="none" stroke="midnightblue" d="M173.114,-130.018C185.208,-119.915 199.386,-108.07 210.163,-99.0663"/>
<polygon fill="midnightblue" stroke="midnightblue" points="170.572,-127.582 165.142,-136.679 175.06,-132.954 170.572,-127.582"/>
</g>
<!-- Node4 -->
<g id="node4" class="node"><title>Node4</title>
<g id="a_node4"><a xlink:href="a00149.html" target="_top" xlink:title="A nearest neighbors datastructure that uses linear search. ">
<polygon fill="white" stroke="black" points="162,-1 162,-31 292,-31 292,-1 162,-1"/>
<text text-anchor="start" x="170" y="-19" font-family="Helvetica,sans-Serif" font-size="10.00">fcl::NearestNeighborsSqrt</text>
<text text-anchor="middle" x="227" y="-8" font-family="Helvetica,sans-Serif" font-size="10.00">Approx&lt; _T &gt;</text>
</a>
</g>
</g>
<!-- Node3&#45;&gt;Node4 -->
<g id="edge3" class="edge"><title>Node3&#45;&gt;Node4</title>
<path fill="none" stroke="midnightblue" d="M227,-58.5322C227,-49.3606 227,-39.2449 227,-31.2931"/>
<polygon fill="midnightblue" stroke="midnightblue" points="223.5,-58.6789 227,-68.679 230.5,-58.679 223.5,-58.6789"/>
</g>
</g>
</svg>
