<?xml version="1.0" encoding="UTF-8" standalone="no"?>
<!DOCTYPE svg PUBLIC "-//W3C//DTD SVG 1.1//EN"
 "http://www.w3.org/Graphics/SVG/1.1/DTD/svg11.dtd">
<!-- Generated by graphviz version 2.36.0 (20140111.2315)
 -->
<!-- Title: fcl::ShapeBase Pages: 1 -->
<svg width="356pt" height="332pt"
 viewBox="0.00 0.00 356.00 332.00" xmlns="http://www.w3.org/2000/svg" xmlns:xlink="http://www.w3.org/1999/xlink">
<g id="graph0" class="graph" transform="scale(1 1) rotate(0) translate(4 328)">
<title>fcl::ShapeBase</title>
<polygon fill="white" stroke="none" points="-4,4 -4,-328 352,-328 352,4 -4,4"/>
<!-- Node1 -->
<g id="node1" class="node"><title>Node1</title>
<polygon fill="#bfbfbf" stroke="black" points="150.5,-152.5 150.5,-171.5 233.5,-171.5 233.5,-152.5 150.5,-152.5"/>
<text text-anchor="middle" x="192" y="-159.5" font-family="Helvetica,sans-Serif" font-size="10.00">fcl::ShapeBase</text>
</g>
<!-- Node3 -->
<g id="node3" class="node"><title>Node3</title>
<g id="a_node3"><a xlink:href="a00009.html" target="_top" xlink:title="Center at zero point, axis aligned box. ">
<polygon fill="white" stroke="black" points="284,-304.5 284,-323.5 334,-323.5 334,-304.5 284,-304.5"/>
<text text-anchor="middle" x="309" y="-311.5" font-family="Helvetica,sans-Serif" font-size="10.00">fcl::Box</text>
</a>
</g>
</g>
<!-- Node1&#45;&gt;Node3 -->
<g id="edge2" class="edge"><title>Node1&#45;&gt;Node3</title>
<path fill="none" stroke="midnightblue" d="M199.917,-181.089C210.926,-209.191 234.846,-261.932 270,-295 273.976,-298.74 278.828,-301.905 283.718,-304.515"/>
<polygon fill="midnightblue" stroke="midnightblue" points="203.146,-179.731 196.333,-171.617 196.599,-182.209 203.146,-179.731"/>
</g>
<!-- Node4 -->
<g id="node4" class="node"><title>Node4</title>
<g id="a_node4"><a xlink:href="a00030.html" target="_top" xlink:title="Center at zero point capsule. ">
<polygon fill="white" stroke="black" points="274.5,-266.5 274.5,-285.5 343.5,-285.5 343.5,-266.5 274.5,-266.5"/>
<text text-anchor="middle" x="309" y="-273.5" font-family="Helvetica,sans-Serif" font-size="10.00">fcl::Capsule</text>
</a>
</g>
</g>
<!-- Node1&#45;&gt;Node4 -->
<g id="edge3" class="edge"><title>Node1&#45;&gt;Node4</title>
<path fill="none" stroke="midnightblue" d="M204.336,-180.276C217.905,-200.988 242.296,-234.75 270,-257 274.486,-260.603 279.766,-263.774 284.939,-266.442"/>
<polygon fill="midnightblue" stroke="midnightblue" points="207.229,-178.303 198.89,-171.767 201.333,-182.076 207.229,-178.303"/>
</g>
<!-- Node5 -->
<g id="node5" class="node"><title>Node5</title>
<g id="a_node5"><a xlink:href="a00037.html" target="_top" xlink:title="Center at zero cone. ">
<polygon fill="white" stroke="black" points="281,-228.5 281,-247.5 337,-247.5 337,-228.5 281,-228.5"/>
<text text-anchor="middle" x="309" y="-235.5" font-family="Helvetica,sans-Serif" font-size="10.00">fcl::Cone</text>
</a>
</g>
</g>
<!-- Node1&#45;&gt;Node5 -->
<g id="edge4" class="edge"><title>Node1&#45;&gt;Node5</title>
<path fill="none" stroke="midnightblue" d="M212.667,-178.045C227.842,-190.053 249.618,-206.491 270,-219 275.406,-222.318 281.469,-225.551 287.136,-228.381"/>
<polygon fill="midnightblue" stroke="midnightblue" points="214.549,-175.068 204.555,-171.55 210.173,-180.533 214.549,-175.068"/>
</g>
<!-- Node6 -->
<g id="node6" class="node"><title>Node6</title>
<g id="a_node6"><a xlink:href="a00044.html" target="_top" xlink:title="Convex polytope. ">
<polygon fill="white" stroke="black" points="275.5,-190.5 275.5,-209.5 342.5,-209.5 342.5,-190.5 275.5,-190.5"/>
<text text-anchor="middle" x="309" y="-197.5" font-family="Helvetica,sans-Serif" font-size="10.00">fcl::Convex</text>
</a>
</g>
</g>
<!-- Node1&#45;&gt;Node6 -->
<g id="edge5" class="edge"><title>Node1&#45;&gt;Node6</title>
<path fill="none" stroke="midnightblue" d="M231.815,-174.826C247.246,-179.925 264.691,-185.689 278.99,-190.414"/>
<polygon fill="midnightblue" stroke="midnightblue" points="232.613,-171.403 222.019,-171.589 230.416,-178.05 232.613,-171.403"/>
</g>
<!-- Node7 -->
<g id="node7" class="node"><title>Node7</title>
<g id="a_node7"><a xlink:href="a00046.html" target="_top" xlink:title="Center at zero cylinder. ">
<polygon fill="white" stroke="black" points="274.5,-152.5 274.5,-171.5 343.5,-171.5 343.5,-152.5 274.5,-152.5"/>
<text text-anchor="middle" x="309" y="-159.5" font-family="Helvetica,sans-Serif" font-size="10.00">fcl::Cylinder</text>
</a>
</g>
</g>
<!-- Node1&#45;&gt;Node7 -->
<g id="edge6" class="edge"><title>Node1&#45;&gt;Node7</title>
<path fill="none" stroke="midnightblue" d="M243.735,-162C254.075,-162 264.71,-162 274.279,-162"/>
<polygon fill="midnightblue" stroke="midnightblue" points="243.545,-158.5 233.545,-162 243.545,-165.5 243.545,-158.5"/>
</g>
<!-- Node8 -->
<g id="node8" class="node"><title>Node8</title>
<g id="a_node8"><a xlink:href="a00085.html" target="_top" xlink:title="Half Space: this is equivalent to the Plane in ODE. ">
<polygon fill="white" stroke="black" points="270.5,-114.5 270.5,-133.5 347.5,-133.5 347.5,-114.5 270.5,-114.5"/>
<text text-anchor="middle" x="309" y="-121.5" font-family="Helvetica,sans-Serif" font-size="10.00">fcl::Halfspace</text>
</a>
</g>
</g>
<!-- Node1&#45;&gt;Node8 -->
<g id="edge7" class="edge"><title>Node1&#45;&gt;Node8</title>
<path fill="none" stroke="midnightblue" d="M231.815,-149.174C247.246,-144.075 264.691,-138.311 278.99,-133.586"/>
<polygon fill="midnightblue" stroke="midnightblue" points="230.416,-145.95 222.019,-152.411 232.613,-152.597 230.416,-145.95"/>
</g>
<!-- Node9 -->
<g id="node9" class="node"><title>Node9</title>
<g id="a_node9"><a xlink:href="a00166.html" target="_top" xlink:title="Infinite plane. ">
<polygon fill="white" stroke="black" points="280,-76.5 280,-95.5 338,-95.5 338,-76.5 280,-76.5"/>
<text text-anchor="middle" x="309" y="-83.5" font-family="Helvetica,sans-Serif" font-size="10.00">fcl::Plane</text>
</a>
</g>
</g>
<!-- Node1&#45;&gt;Node9 -->
<g id="edge8" class="edge"><title>Node1&#45;&gt;Node9</title>
<path fill="none" stroke="midnightblue" d="M212.667,-145.955C227.842,-133.947 249.618,-117.509 270,-105 275.406,-101.682 281.469,-98.4491 287.136,-95.6185"/>
<polygon fill="midnightblue" stroke="midnightblue" points="210.173,-143.467 204.555,-152.45 214.549,-148.932 210.173,-143.467"/>
</g>
<!-- Node10 -->
<g id="node10" class="node"><title>Node10</title>
<g id="a_node10"><a xlink:href="a00225.html" target="_top" xlink:title="Center at zero point sphere. ">
<polygon fill="white" stroke="black" points="277,-38.5 277,-57.5 341,-57.5 341,-38.5 277,-38.5"/>
<text text-anchor="middle" x="309" y="-45.5" font-family="Helvetica,sans-Serif" font-size="10.00">fcl::Sphere</text>
</a>
</g>
</g>
<!-- Node1&#45;&gt;Node10 -->
<g id="edge9" class="edge"><title>Node1&#45;&gt;Node10</title>
<path fill="none" stroke="midnightblue" d="M204.336,-143.724C217.905,-123.012 242.296,-89.2502 270,-67 274.486,-63.3974 279.766,-60.2263 284.939,-57.5581"/>
<polygon fill="midnightblue" stroke="midnightblue" points="201.333,-141.924 198.89,-152.233 207.229,-145.697 201.333,-141.924"/>
</g>
<!-- Node11 -->
<g id="node11" class="node"><title>Node11</title>
<g id="a_node11"><a xlink:href="a00248.html" target="_top" xlink:title="Triangle stores the points instead of only indices of points. ">
<polygon fill="white" stroke="black" points="272,-0.5 272,-19.5 346,-19.5 346,-0.5 272,-0.5"/>
<text text-anchor="middle" x="309" y="-7.5" font-family="Helvetica,sans-Serif" font-size="10.00">fcl::TriangleP</text>
</a>
</g>
</g>
<!-- Node1&#45;&gt;Node11 -->
<g id="edge10" class="edge"><title>Node1&#45;&gt;Node11</title>
<path fill="none" stroke="midnightblue" d="M199.917,-142.911C210.926,-114.809 234.846,-62.068 270,-29 273.868,-25.3613 278.566,-22.2665 283.322,-19.6974"/>
<polygon fill="midnightblue" stroke="midnightblue" points="196.599,-141.791 196.333,-152.383 203.146,-144.269 196.599,-141.791"/>
</g>
<!-- Node2 -->
<g id="node2" class="node"><title>Node2</title>
<g id="a_node2"><a xlink:href="a00032.html" target="_top" xlink:title="The geometry for the object for collision or distance computation. ">
<polygon fill="white" stroke="black" points="0.5,-152.5 0.5,-171.5 113.5,-171.5 113.5,-152.5 0.5,-152.5"/>
<text text-anchor="middle" x="57" y="-159.5" font-family="Helvetica,sans-Serif" font-size="10.00">fcl::CollisionGeometry</text>
</a>
</g>
</g>
<!-- Node2&#45;&gt;Node1 -->
<g id="edge1" class="edge"><title>Node2&#45;&gt;Node1</title>
<path fill="none" stroke="midnightblue" d="M123.755,-162C132.758,-162 141.779,-162 150.158,-162"/>
<polygon fill="midnightblue" stroke="midnightblue" points="123.633,-158.5 113.633,-162 123.633,-165.5 123.633,-158.5"/>
</g>
</g>
</svg>
