<?xml version="1.0" encoding="UTF-8" standalone="no"?>
<!DOCTYPE svg PUBLIC "-//W3C//DTD SVG 1.1//EN"
 "http://www.w3.org/Graphics/SVG/1.1/DTD/svg11.dtd">
<!-- Generated by graphviz version 2.36.0 (20140111.2315)
 -->
<!-- Title: fcl::SaPCollisionManager::SaPAABB Pages: 1 -->
<svg width="988pt" height="131pt"
 viewBox="0.00 0.00 988.00 131.00" xmlns="http://www.w3.org/2000/svg" xmlns:xlink="http://www.w3.org/1999/xlink">
<g id="graph0" class="graph" transform="scale(1 1) rotate(0) translate(4 127)">
<title>fcl::SaPCollisionManager::SaPAABB</title>
<polygon fill="white" stroke="none" points="-4,4 -4,-127 984,-127 984,4 -4,4"/>
<!-- Node1 -->
<g id="node1" class="node"><title>Node1</title>
<polygon fill="#bfbfbf" stroke="black" points="662.5,-39 662.5,-69 789.5,-69 789.5,-39 662.5,-39"/>
<text text-anchor="start" x="670.5" y="-57" font-family="Helvetica,sans-Serif" font-size="10.00">fcl::SaPCollisionManager</text>
<text text-anchor="middle" x="726" y="-46" font-family="Helvetica,sans-Serif" font-size="10.00">::SaPAABB</text>
</g>
<!-- Node8 -->
<g id="node8" class="node"><title>Node8</title>
<g id="a_node8"><a xlink:href="a00066.html" target="_top" xlink:title="End point for an interval. ">
<polygon fill="white" stroke="black" points="852.5,-39 852.5,-69 979.5,-69 979.5,-39 852.5,-39"/>
<text text-anchor="start" x="860.5" y="-57" font-family="Helvetica,sans-Serif" font-size="10.00">fcl::SaPCollisionManager</text>
<text text-anchor="middle" x="916" y="-46" font-family="Helvetica,sans-Serif" font-size="10.00">::EndPoint</text>
</a>
</g>
</g>
<!-- Node1&#45;&gt;Node8 -->
<g id="edge9" class="edge"><title>Node1&#45;&gt;Node8</title>
<path fill="none" stroke="#9a32cd" stroke-dasharray="5,2" d="M799.844,-54.9418C802.597,-54.9639 805.324,-54.9835 808,-55 822.397,-55.0889 837.883,-55.0323 852.48,-54.9102"/>
<polygon fill="#9a32cd" stroke="#9a32cd" points="799.823,-51.4415 789.792,-54.8517 799.76,-58.4413 799.823,-51.4415"/>
<text text-anchor="middle" x="821" y="-58" font-family="Helvetica,sans-Serif" font-size="10.00"> aabb</text>
</g>
<!-- Node2 -->
<g id="node2" class="node"><title>Node2</title>
<g id="a_node2"><a xlink:href="a00033.html" target="_top" xlink:title="the object for collision or distance computation, contains the geometry and the transform information...">
<polygon fill="white" stroke="black" points="510.5,-16.5 510.5,-35.5 609.5,-35.5 609.5,-16.5 510.5,-16.5"/>
<text text-anchor="middle" x="560" y="-23.5" font-family="Helvetica,sans-Serif" font-size="10.00">fcl::CollisionObject</text>
</a>
</g>
</g>
<!-- Node2&#45;&gt;Node1 -->
<g id="edge1" class="edge"><title>Node2&#45;&gt;Node1</title>
<path fill="none" stroke="#9a32cd" stroke-dasharray="5,2" d="M619.666,-36.0161C633.538,-38.3846 648.383,-40.9191 662.422,-43.3159"/>
<polygon fill="#9a32cd" stroke="#9a32cd" points="620.208,-32.5581 609.761,-34.3251 619.03,-39.4582 620.208,-32.5581"/>
<text text-anchor="middle" x="636" y="-43" font-family="Helvetica,sans-Serif" font-size="10.00"> obj</text>
</g>
<!-- Node3 -->
<g id="node3" class="node"><title>Node3</title>
<g id="a_node3"><a xlink:href="a00003.html" target="_top" xlink:title="A class describing the AABB collision structure, which is a box in 3D space determined by two diagona...">
<polygon fill="white" stroke="black" points="375,-51.5 375,-70.5 435,-70.5 435,-51.5 375,-51.5"/>
<text text-anchor="middle" x="405" y="-58.5" font-family="Helvetica,sans-Serif" font-size="10.00">fcl::AABB</text>
</a>
</g>
</g>
<!-- Node3&#45;&gt;Node1 -->
<g id="edge10" class="edge"><title>Node3&#45;&gt;Node1</title>
<path fill="none" stroke="#9a32cd" stroke-dasharray="5,2" d="M445.391,-60.1356C499.622,-58.9456 597.867,-56.7897 662.271,-55.3765"/>
<polygon fill="#9a32cd" stroke="#9a32cd" points="445.076,-56.6416 435.155,-60.3602 445.229,-63.6399 445.076,-56.6416"/>
<text text-anchor="middle" x="560" y="-61" font-family="Helvetica,sans-Serif" font-size="10.00"> cached</text>
</g>
<!-- Node3&#45;&gt;Node2 -->
<g id="edge2" class="edge"><title>Node3&#45;&gt;Node2</title>
<path fill="none" stroke="#9a32cd" stroke-dasharray="5,2" d="M445.205,-51.8097C452.131,-50.1982 459.276,-48.5437 466,-47 482.455,-43.2224 500.562,-39.1213 516.391,-35.5541"/>
<polygon fill="#9a32cd" stroke="#9a32cd" points="444.231,-48.4428 435.287,-54.1222 445.821,-55.2599 444.231,-48.4428"/>
<text text-anchor="middle" x="479" y="-50" font-family="Helvetica,sans-Serif" font-size="10.00"> aabb</text>
</g>
<!-- Node4 -->
<g id="node4" class="node"><title>Node4</title>
<g id="a_node4"><a xlink:href="a00069.html" target="_top" xlink:title="Eigen::FclMatrix\&lt; FCL\l_REAL, 1 \&gt;">
<polygon fill="white" stroke="black" points="182,-46 182,-76 298,-76 298,-46 182,-46"/>
<text text-anchor="start" x="190" y="-64" font-family="Helvetica,sans-Serif" font-size="10.00">Eigen::FclMatrix&lt; FCL</text>
<text text-anchor="middle" x="240" y="-53" font-family="Helvetica,sans-Serif" font-size="10.00">_REAL, 1 &gt;</text>
</a>
</g>
</g>
<!-- Node4&#45;&gt;Node3 -->
<g id="edge3" class="edge"><title>Node4&#45;&gt;Node3</title>
<path fill="none" stroke="#9a32cd" stroke-dasharray="5,2" d="M308.177,-61C331.374,-61 356.168,-61 374.724,-61"/>
<polygon fill="#9a32cd" stroke="#9a32cd" points="308.01,-57.5001 298.009,-61 308.009,-64.5001 308.01,-57.5001"/>
<text text-anchor="middle" x="330" y="-75" font-family="Helvetica,sans-Serif" font-size="10.00"> max_</text>
<text text-anchor="middle" x="330" y="-64" font-family="Helvetica,sans-Serif" font-size="10.00">min_</text>
</g>
<!-- Node5 -->
<g id="node5" class="node"><title>Node5</title>
<polygon fill="white" stroke="#bfbfbf" points="6.5,-71 6.5,-123 137.5,-123 137.5,-71 6.5,-71"/>
<text text-anchor="start" x="14.5" y="-111" font-family="Helvetica,sans-Serif" font-size="10.00">Matrix&lt; FCL_REAL ,</text>
<text text-anchor="start" x="14.5" y="-100" font-family="Helvetica,sans-Serif" font-size="10.00"> 3, Cols, internal::</text>
<text text-anchor="start" x="14.5" y="-89" font-family="Helvetica,sans-Serif" font-size="10.00">traits&lt;Matrix &lt;FCL_REAL</text>
<text text-anchor="middle" x="72" y="-78" font-family="Helvetica,sans-Serif" font-size="10.00"> , 3, Cols&gt; &gt;::Options &gt;</text>
</g>
<!-- Node5&#45;&gt;Node4 -->
<g id="edge4" class="edge"><title>Node5&#45;&gt;Node4</title>
<path fill="none" stroke="midnightblue" d="M147.655,-80.8097C159.123,-78.3228 170.805,-75.7893 181.814,-73.4018"/>
<polygon fill="midnightblue" stroke="midnightblue" points="146.686,-77.4384 137.655,-82.9784 148.17,-84.2794 146.686,-77.4384"/>
</g>
<!-- Node6 -->
<g id="node6" class="node"><title>Node6</title>
<g id="a_node6"><a xlink:href="a00073.html" target="_top" xlink:title="fcl::FclType\&lt; FclMatrix\l\&lt; FCL_REAL, Cols, internal\l::traits\&lt; Matrix\&lt; FCL_REAL,\l 3, Cols \&gt; \&gt;::Options \&gt; \&gt;">
<polygon fill="white" stroke="black" points="0.5,-0 0.5,-52 143.5,-52 143.5,-0 0.5,-0"/>
<text text-anchor="start" x="8.5" y="-40" font-family="Helvetica,sans-Serif" font-size="10.00">fcl::FclType&lt; FclMatrix</text>
<text text-anchor="start" x="8.5" y="-29" font-family="Helvetica,sans-Serif" font-size="10.00">&lt; FCL_REAL, Cols, internal</text>
<text text-anchor="start" x="8.5" y="-18" font-family="Helvetica,sans-Serif" font-size="10.00">::traits&lt; Matrix&lt; FCL_REAL,</text>
<text text-anchor="middle" x="72" y="-7" font-family="Helvetica,sans-Serif" font-size="10.00"> 3, Cols &gt; &gt;::Options &gt; &gt;</text>
</a>
</g>
</g>
<!-- Node6&#45;&gt;Node4 -->
<g id="edge5" class="edge"><title>Node6&#45;&gt;Node4</title>
<path fill="none" stroke="midnightblue" d="M153.751,-43.0258C163.257,-45.03 172.802,-47.0425 181.887,-48.958"/>
<polygon fill="midnightblue" stroke="midnightblue" points="154.387,-39.5831 143.88,-40.9447 152.943,-46.4325 154.387,-39.5831"/>
</g>
<!-- Node7 -->
<g id="node7" class="node"><title>Node7</title>
<g id="a_node7"><a xlink:href="a00242.html" target="_top" xlink:title="Simple transform class used locally by InterpMotion. ">
<polygon fill="white" stroke="black" points="362,-2.5 362,-21.5 448,-21.5 448,-2.5 362,-2.5"/>
<text text-anchor="middle" x="405" y="-9.5" font-family="Helvetica,sans-Serif" font-size="10.00">fcl::Transform3f</text>
</a>
</g>
</g>
<!-- Node7&#45;&gt;Node2 -->
<g id="edge6" class="edge"><title>Node7&#45;&gt;Node2</title>
<path fill="none" stroke="#9a32cd" stroke-dasharray="5,2" d="M458.157,-11.1023C469.344,-11.3299 481.082,-11.8865 492,-13 499.78,-13.7935 508.002,-15.0419 515.92,-16.4579"/>
<polygon fill="#9a32cd" stroke="#9a32cd" points="458.12,-7.60169 448.078,-10.9792 458.034,-14.6012 458.12,-7.60169"/>
<text text-anchor="middle" x="479" y="-16" font-family="Helvetica,sans-Serif" font-size="10.00"> t</text>
</g>
<!-- Node8&#45;&gt;Node1 -->
<g id="edge7" class="edge"><title>Node8&#45;&gt;Node1</title>
<path fill="none" stroke="#9a32cd" stroke-dasharray="5,2" d="M861.686,-36.666C844.615,-32.9647 825.582,-30.758 808,-33 797.768,-34.3048 786.982,-36.5011 776.735,-38.9941"/>
<polygon fill="#9a32cd" stroke="#9a32cd" points="860.947,-40.0877 871.485,-38.9956 862.566,-33.2775 860.947,-40.0877"/>
<text text-anchor="middle" x="821" y="-47" font-family="Helvetica,sans-Serif" font-size="10.00"> hi</text>
<text text-anchor="middle" x="821" y="-36" font-family="Helvetica,sans-Serif" font-size="10.00">lo</text>
</g>
<!-- Node8&#45;&gt;Node8 -->
<g id="edge8" class="edge"><title>Node8&#45;&gt;Node8</title>
<path fill="none" stroke="#9a32cd" stroke-dasharray="5,2" d="M899.546,-79.5975C901.795,-83.9704 907.279,-87 916,-87 930.688,-87 936.195,-78.4062 932.523,-69.2754"/>
<polygon fill="#9a32cd" stroke="#9a32cd" points="903.044,-79.2514 899.477,-69.2754 896.044,-79.2989 903.044,-79.2514"/>
<text text-anchor="middle" x="916" y="-101" font-family="Helvetica,sans-Serif" font-size="10.00"> prev</text>
<text text-anchor="middle" x="916" y="-90" font-family="Helvetica,sans-Serif" font-size="10.00">next</text>
</g>
</g>
</svg>
