<?xml version="1.0" encoding="UTF-8" standalone="no"?>
<!DOCTYPE svg PUBLIC "-//W3C//DTD SVG 1.1//EN"
 "http://www.w3.org/Graphics/SVG/1.1/DTD/svg11.dtd">
<!-- Generated by graphviz version 2.36.0 (20140111.2315)
 -->
<!-- Title: fcl::SamplerSE3Quat_ball Pages: 1 -->
<svg width="136pt" height="154pt"
 viewBox="0.00 0.00 136.00 154.00" xmlns="http://www.w3.org/2000/svg" xmlns:xlink="http://www.w3.org/1999/xlink">
<g id="graph0" class="graph" transform="scale(1 1) rotate(0) translate(4 150)">
<title>fcl::SamplerSE3Quat_ball</title>
<polygon fill="white" stroke="none" points="-4,4 -4,-150 132,-150 132,4 -4,4"/>
<!-- Node1 -->
<g id="node1" class="node"><title>Node1</title>
<polygon fill="#bfbfbf" stroke="black" points="-0.5,-0.5 -0.5,-19.5 128.5,-19.5 128.5,-0.5 -0.5,-0.5"/>
<text text-anchor="middle" x="64" y="-7.5" font-family="Helvetica,sans-Serif" font-size="10.00">fcl::SamplerSE3Quat_ball</text>
</g>
<!-- Node2 -->
<g id="node2" class="node"><title>Node2</title>
<g id="a_node2"><a xlink:href="a00182.html" target="_top" xlink:title="fcl::SamplerBase">
<polygon fill="white" stroke="black" points="18,-58.5 18,-77.5 110,-77.5 110,-58.5 18,-58.5"/>
<text text-anchor="middle" x="64" y="-65.5" font-family="Helvetica,sans-Serif" font-size="10.00">fcl::SamplerBase</text>
</a>
</g>
</g>
<!-- Node2&#45;&gt;Node1 -->
<g id="edge1" class="edge"><title>Node2&#45;&gt;Node1</title>
<path fill="none" stroke="midnightblue" d="M64,-47.953C64,-38.2875 64,-27.0312 64,-19.5052"/>
<polygon fill="midnightblue" stroke="midnightblue" points="60.5001,-48.25 64,-58.25 67.5001,-48.25 60.5001,-48.25"/>
</g>
<!-- Node3 -->
<g id="node3" class="node"><title>Node3</title>
<g id="a_node3"><a xlink:href="a00180.html" target="_top" xlink:title="Random number generation. ">
<polygon fill="white" stroke="black" points="36,-126.5 36,-145.5 92,-145.5 92,-126.5 36,-126.5"/>
<text text-anchor="middle" x="64" y="-133.5" font-family="Helvetica,sans-Serif" font-size="10.00">fcl::RNG</text>
</a>
</g>
</g>
<!-- Node3&#45;&gt;Node2 -->
<g id="edge2" class="edge"><title>Node3&#45;&gt;Node2</title>
<path fill="none" stroke="#9a32cd" stroke-dasharray="5,2" d="M64,-116.041C64,-103.472 64,-87.5631 64,-77.8411"/>
<polygon fill="#9a32cd" stroke="#9a32cd" points="60.5001,-116.372 64,-126.372 67.5001,-116.372 60.5001,-116.372"/>
<text text-anchor="middle" x="72.5" y="-99.5" font-family="Helvetica,sans-Serif" font-size="10.00"> rng</text>
</g>
</g>
</svg>
