<?xml version="1.0" encoding="UTF-8" standalone="no"?>
<!DOCTYPE svg PUBLIC "-//W3C//DTD SVG 1.1//EN"
 "http://www.w3.org/Graphics/SVG/1.1/DTD/svg11.dtd">
<!-- Generated by graphviz version 2.36.0 (20140111.2315)
 -->
<!-- Title: fcl::SaPCollisionManager::EndPoint Pages: 1 -->
<svg width="836pt" height="191pt"
 viewBox="0.00 0.00 836.00 191.00" xmlns="http://www.w3.org/2000/svg" xmlns:xlink="http://www.w3.org/1999/xlink">
<g id="graph0" class="graph" transform="scale(1 1) rotate(0) translate(4 187)">
<title>fcl::SaPCollisionManager::EndPoint</title>
<polygon fill="white" stroke="none" points="-4,4 -4,-187 832,-187 832,4 -4,4"/>
<!-- Node1 -->
<g id="node1" class="node"><title>Node1</title>
<polygon fill="#bfbfbf" stroke="black" points="510.5,-113 510.5,-143 637.5,-143 637.5,-113 510.5,-113"/>
<text text-anchor="start" x="518.5" y="-131" font-family="Helvetica,sans-Serif" font-size="10.00">fcl::SaPCollisionManager</text>
<text text-anchor="middle" x="574" y="-120" font-family="Helvetica,sans-Serif" font-size="10.00">::EndPoint</text>
</g>
<!-- Node1&#45;&gt;Node1 -->
<g id="edge1" class="edge"><title>Node1&#45;&gt;Node1</title>
<path fill="none" stroke="#9a32cd" stroke-dasharray="5,2" d="M557.546,-153.598C559.795,-157.97 565.279,-161 574,-161 588.688,-161 594.195,-152.406 590.523,-143.275"/>
<polygon fill="#9a32cd" stroke="#9a32cd" points="561.044,-153.251 557.477,-143.275 554.044,-153.299 561.044,-153.251"/>
<text text-anchor="middle" x="574" y="-175" font-family="Helvetica,sans-Serif" font-size="10.00"> prev</text>
<text text-anchor="middle" x="574" y="-164" font-family="Helvetica,sans-Serif" font-size="10.00">next</text>
</g>
<!-- Node2 -->
<g id="node2" class="node"><title>Node2</title>
<g id="a_node2"><a xlink:href="a00190.html" target="_top" xlink:title="SAP interval for one object. ">
<polygon fill="white" stroke="black" points="700.5,-73 700.5,-103 827.5,-103 827.5,-73 700.5,-73"/>
<text text-anchor="start" x="708.5" y="-91" font-family="Helvetica,sans-Serif" font-size="10.00">fcl::SaPCollisionManager</text>
<text text-anchor="middle" x="764" y="-80" font-family="Helvetica,sans-Serif" font-size="10.00">::SaPAABB</text>
</a>
</g>
</g>
<!-- Node1&#45;&gt;Node2 -->
<g id="edge9" class="edge"><title>Node1&#45;&gt;Node2</title>
<path fill="none" stroke="#9a32cd" stroke-dasharray="5,2" d="M647.718,-122.914C659.263,-121.422 671.013,-119.493 682,-117 697.003,-113.596 713.046,-108.236 726.863,-103.046"/>
<polygon fill="#9a32cd" stroke="#9a32cd" points="647.165,-119.455 637.651,-124.116 647.995,-126.406 647.165,-119.455"/>
<text text-anchor="middle" x="669" y="-135" font-family="Helvetica,sans-Serif" font-size="10.00"> hi</text>
<text text-anchor="middle" x="669" y="-124" font-family="Helvetica,sans-Serif" font-size="10.00">lo</text>
</g>
<!-- Node2&#45;&gt;Node1 -->
<g id="edge2" class="edge"><title>Node2&#45;&gt;Node1</title>
<path fill="none" stroke="#9a32cd" stroke-dasharray="5,2" d="M690.258,-99.2446C678.76,-101.307 667.029,-103.581 656,-106 646.748,-108.029 636.973,-110.447 627.536,-112.924"/>
<polygon fill="#9a32cd" stroke="#9a32cd" points="691.035,-102.662 700.28,-97.4875 689.826,-95.7671 691.035,-102.662"/>
<text text-anchor="middle" x="669" y="-109" font-family="Helvetica,sans-Serif" font-size="10.00"> aabb</text>
</g>
<!-- Node3 -->
<g id="node3" class="node"><title>Node3</title>
<g id="a_node3"><a xlink:href="a00033.html" target="_top" xlink:title="the object for collision or distance computation, contains the geometry and the transform information...">
<polygon fill="white" stroke="black" points="524.5,-16.5 524.5,-35.5 623.5,-35.5 623.5,-16.5 524.5,-16.5"/>
<text text-anchor="middle" x="574" y="-23.5" font-family="Helvetica,sans-Serif" font-size="10.00">fcl::CollisionObject</text>
</a>
</g>
</g>
<!-- Node3&#45;&gt;Node2 -->
<g id="edge3" class="edge"><title>Node3&#45;&gt;Node2</title>
<path fill="none" stroke="#9a32cd" stroke-dasharray="5,2" d="M633.902,-34.5541C649.751,-37.6649 666.727,-41.7485 682,-47 701.376,-53.6626 721.961,-64.1313 737.531,-72.8224"/>
<polygon fill="#9a32cd" stroke="#9a32cd" points="634.152,-31.0404 623.68,-32.6478 632.869,-37.9218 634.152,-31.0404"/>
<text text-anchor="middle" x="669" y="-50" font-family="Helvetica,sans-Serif" font-size="10.00"> obj</text>
</g>
<!-- Node4 -->
<g id="node4" class="node"><title>Node4</title>
<g id="a_node4"><a xlink:href="a00003.html" target="_top" xlink:title="A class describing the AABB collision structure, which is a box in 3D space determined by two diagona...">
<polygon fill="white" stroke="black" points="375,-51.5 375,-70.5 435,-70.5 435,-51.5 375,-51.5"/>
<text text-anchor="middle" x="405" y="-58.5" font-family="Helvetica,sans-Serif" font-size="10.00">fcl::AABB</text>
</a>
</g>
</g>
<!-- Node4&#45;&gt;Node2 -->
<g id="edge10" class="edge"><title>Node4&#45;&gt;Node2</title>
<path fill="none" stroke="#9a32cd" stroke-dasharray="5,2" d="M445.307,-63.9728C506.95,-68.6349 626.901,-77.7068 700.482,-83.2717"/>
<polygon fill="#9a32cd" stroke="#9a32cd" points="445.45,-60.4737 435.215,-63.2095 444.922,-67.4538 445.45,-60.4737"/>
<text text-anchor="middle" x="574" y="-82" font-family="Helvetica,sans-Serif" font-size="10.00"> cached</text>
</g>
<!-- Node4&#45;&gt;Node3 -->
<g id="edge4" class="edge"><title>Node4&#45;&gt;Node3</title>
<path fill="none" stroke="#9a32cd" stroke-dasharray="5,2" d="M445.169,-51.6499C452.099,-50.0557 459.255,-48.4484 466,-47 485.064,-42.9064 506.109,-38.7074 524.454,-35.1505"/>
<polygon fill="#9a32cd" stroke="#9a32cd" points="444.198,-48.2822 435.25,-53.956 445.783,-55.1004 444.198,-48.2822"/>
<text text-anchor="middle" x="479" y="-50" font-family="Helvetica,sans-Serif" font-size="10.00"> aabb</text>
</g>
<!-- Node5 -->
<g id="node5" class="node"><title>Node5</title>
<g id="a_node5"><a xlink:href="a00069.html" target="_top" xlink:title="Eigen::FclMatrix\&lt; FCL\l_REAL, 1 \&gt;">
<polygon fill="white" stroke="black" points="182,-46 182,-76 298,-76 298,-46 182,-46"/>
<text text-anchor="start" x="190" y="-64" font-family="Helvetica,sans-Serif" font-size="10.00">Eigen::FclMatrix&lt; FCL</text>
<text text-anchor="middle" x="240" y="-53" font-family="Helvetica,sans-Serif" font-size="10.00">_REAL, 1 &gt;</text>
</a>
</g>
</g>
<!-- Node5&#45;&gt;Node4 -->
<g id="edge5" class="edge"><title>Node5&#45;&gt;Node4</title>
<path fill="none" stroke="#9a32cd" stroke-dasharray="5,2" d="M308.177,-61C331.374,-61 356.168,-61 374.724,-61"/>
<polygon fill="#9a32cd" stroke="#9a32cd" points="308.01,-57.5001 298.009,-61 308.009,-64.5001 308.01,-57.5001"/>
<text text-anchor="middle" x="330" y="-75" font-family="Helvetica,sans-Serif" font-size="10.00"> max_</text>
<text text-anchor="middle" x="330" y="-64" font-family="Helvetica,sans-Serif" font-size="10.00">min_</text>
</g>
<!-- Node6 -->
<g id="node6" class="node"><title>Node6</title>
<polygon fill="white" stroke="#bfbfbf" points="6.5,-71 6.5,-123 137.5,-123 137.5,-71 6.5,-71"/>
<text text-anchor="start" x="14.5" y="-111" font-family="Helvetica,sans-Serif" font-size="10.00">Matrix&lt; FCL_REAL ,</text>
<text text-anchor="start" x="14.5" y="-100" font-family="Helvetica,sans-Serif" font-size="10.00"> 3, Cols, internal::</text>
<text text-anchor="start" x="14.5" y="-89" font-family="Helvetica,sans-Serif" font-size="10.00">traits&lt;Matrix &lt;FCL_REAL</text>
<text text-anchor="middle" x="72" y="-78" font-family="Helvetica,sans-Serif" font-size="10.00"> , 3, Cols&gt; &gt;::Options &gt;</text>
</g>
<!-- Node6&#45;&gt;Node5 -->
<g id="edge6" class="edge"><title>Node6&#45;&gt;Node5</title>
<path fill="none" stroke="midnightblue" d="M147.655,-80.8097C159.123,-78.3228 170.805,-75.7893 181.814,-73.4018"/>
<polygon fill="midnightblue" stroke="midnightblue" points="146.686,-77.4384 137.655,-82.9784 148.17,-84.2794 146.686,-77.4384"/>
</g>
<!-- Node7 -->
<g id="node7" class="node"><title>Node7</title>
<g id="a_node7"><a xlink:href="a00073.html" target="_top" xlink:title="fcl::FclType\&lt; FclMatrix\l\&lt; FCL_REAL, Cols, internal\l::traits\&lt; Matrix\&lt; FCL_REAL,\l 3, Cols \&gt; \&gt;::Options \&gt; \&gt;">
<polygon fill="white" stroke="black" points="0.5,-0 0.5,-52 143.5,-52 143.5,-0 0.5,-0"/>
<text text-anchor="start" x="8.5" y="-40" font-family="Helvetica,sans-Serif" font-size="10.00">fcl::FclType&lt; FclMatrix</text>
<text text-anchor="start" x="8.5" y="-29" font-family="Helvetica,sans-Serif" font-size="10.00">&lt; FCL_REAL, Cols, internal</text>
<text text-anchor="start" x="8.5" y="-18" font-family="Helvetica,sans-Serif" font-size="10.00">::traits&lt; Matrix&lt; FCL_REAL,</text>
<text text-anchor="middle" x="72" y="-7" font-family="Helvetica,sans-Serif" font-size="10.00"> 3, Cols &gt; &gt;::Options &gt; &gt;</text>
</a>
</g>
</g>
<!-- Node7&#45;&gt;Node5 -->
<g id="edge7" class="edge"><title>Node7&#45;&gt;Node5</title>
<path fill="none" stroke="midnightblue" d="M153.751,-43.0258C163.257,-45.03 172.802,-47.0425 181.887,-48.958"/>
<polygon fill="midnightblue" stroke="midnightblue" points="154.387,-39.5831 143.88,-40.9447 152.943,-46.4325 154.387,-39.5831"/>
</g>
<!-- Node8 -->
<g id="node8" class="node"><title>Node8</title>
<g id="a_node8"><a xlink:href="a00242.html" target="_top" xlink:title="Simple transform class used locally by InterpMotion. ">
<polygon fill="white" stroke="black" points="362,-2.5 362,-21.5 448,-21.5 448,-2.5 362,-2.5"/>
<text text-anchor="middle" x="405" y="-9.5" font-family="Helvetica,sans-Serif" font-size="10.00">fcl::Transform3f</text>
</a>
</g>
</g>
<!-- Node8&#45;&gt;Node3 -->
<g id="edge8" class="edge"><title>Node8&#45;&gt;Node3</title>
<path fill="none" stroke="#9a32cd" stroke-dasharray="5,2" d="M458.132,-11.3731C469.32,-11.5832 481.065,-12.0641 492,-13 502.501,-13.8988 513.699,-15.3642 524.314,-16.9936"/>
<polygon fill="#9a32cd" stroke="#9a32cd" points="458.094,-7.8725 448.052,-11.2511 458.009,-14.872 458.094,-7.8725"/>
<text text-anchor="middle" x="479" y="-16" font-family="Helvetica,sans-Serif" font-size="10.00"> t</text>
</g>
</g>
</svg>
