<?xml version="1.0" encoding="UTF-8" standalone="no"?>
<!DOCTYPE svg PUBLIC "-//W3C//DTD SVG 1.1//EN"
 "http://www.w3.org/Graphics/SVG/1.1/DTD/svg11.dtd">
<!-- Generated by graphviz version 2.36.0 (20140111.2315)
 -->
<!-- Title: fcl::SpatialHashingCollisionManager&lt; HashTable &gt; Pages: 1 -->
<svg width="144pt" height="108pt"
 viewBox="0.00 0.00 144.00 108.00" xmlns="http://www.w3.org/2000/svg" xmlns:xlink="http://www.w3.org/1999/xlink">
<g id="graph0" class="graph" transform="scale(1 1) rotate(0) translate(4 104)">
<title>fcl::SpatialHashingCollisionManager&lt; HashTable &gt;</title>
<polygon fill="white" stroke="none" points="-4,4 -4,-104 140,-104 140,4 -4,4"/>
<!-- Node1 -->
<g id="node1" class="node"><title>Node1</title>
<polygon fill="#bfbfbf" stroke="black" points="-0.5,-1 -0.5,-31 136.5,-31 136.5,-1 -0.5,-1"/>
<text text-anchor="start" x="7.5" y="-19" font-family="Helvetica,sans-Serif" font-size="10.00">fcl::SpatialHashingCollision</text>
<text text-anchor="middle" x="68" y="-8" font-family="Helvetica,sans-Serif" font-size="10.00">Manager&lt; HashTable &gt;</text>
</g>
<!-- Node2 -->
<g id="node2" class="node"><title>Node2</title>
<g id="a_node2"><a xlink:href="a00010.html" target="_top" xlink:title="Base class for broad phase collision. It helps to accelerate the collision/distance between N objects...">
<polygon fill="white" stroke="black" points="6,-69 6,-99 130,-99 130,-69 6,-69"/>
<text text-anchor="start" x="14" y="-87" font-family="Helvetica,sans-Serif" font-size="10.00">fcl::BroadPhaseCollision</text>
<text text-anchor="middle" x="68" y="-76" font-family="Helvetica,sans-Serif" font-size="10.00">Manager</text>
</a>
</g>
</g>
<!-- Node2&#45;&gt;Node1 -->
<g id="edge1" class="edge"><title>Node2&#45;&gt;Node1</title>
<path fill="none" stroke="midnightblue" d="M68,-58.5322C68,-49.3606 68,-39.2449 68,-31.2931"/>
<polygon fill="midnightblue" stroke="midnightblue" points="64.5001,-58.6789 68,-68.679 71.5001,-58.679 64.5001,-58.6789"/>
</g>
</g>
</svg>
