<?xml version="1.0" encoding="UTF-8" standalone="no"?>
<!DOCTYPE svg PUBLIC "-//W3C//DTD SVG 1.1//EN"
 "http://www.w3.org/Graphics/SVG/1.1/DTD/svg11.dtd">
<!-- Generated by graphviz version 2.36.0 (20140111.2315)
 -->
<!-- Title: fcl::ShapeOcTreeCollisionTraversalNode&lt; S, NarrowPhaseSolver &gt; Pages: 1 -->
<svg width="1166pt" height="239pt"
 viewBox="0.00 0.00 1166.00 239.00" xmlns="http://www.w3.org/2000/svg" xmlns:xlink="http://www.w3.org/1999/xlink">
<g id="graph0" class="graph" transform="scale(1 1) rotate(0) translate(4 235)">
<title>fcl::ShapeOcTreeCollisionTraversalNode&lt; S, NarrowPhaseSolver &gt;</title>
<polygon fill="white" stroke="none" points="-4,4 -4,-235 1162,-235 1162,4 -4,4"/>
<!-- Node1 -->
<g id="node1" class="node"><title>Node1</title>
<polygon fill="#bfbfbf" stroke="black" points="960,-118 960,-148 1158,-148 1158,-118 960,-118"/>
<text text-anchor="start" x="968" y="-136" font-family="Helvetica,sans-Serif" font-size="10.00">fcl::ShapeOcTreeCollision</text>
<text text-anchor="middle" x="1059" y="-125" font-family="Helvetica,sans-Serif" font-size="10.00">TraversalNode&lt; S, NarrowPhaseSolver &gt;</text>
</g>
<!-- Node2 -->
<g id="node2" class="node"><title>Node2</title>
<g id="a_node2"><a xlink:href="a00036.html" target="_top" xlink:title="Node structure encoding the information required for collision traversal. ">
<polygon fill="white" stroke="black" points="626.5,-123.5 626.5,-142.5 783.5,-142.5 783.5,-123.5 626.5,-123.5"/>
<text text-anchor="middle" x="705" y="-130.5" font-family="Helvetica,sans-Serif" font-size="10.00">fcl::CollisionTraversalNodeBase</text>
</a>
</g>
</g>
<!-- Node2&#45;&gt;Node1 -->
<g id="edge1" class="edge"><title>Node2&#45;&gt;Node1</title>
<path fill="none" stroke="midnightblue" d="M793.906,-133C844.3,-133 907.678,-133 959.714,-133"/>
<polygon fill="midnightblue" stroke="midnightblue" points="793.684,-129.5 783.684,-133 793.684,-136.5 793.684,-129.5"/>
</g>
<!-- Node3 -->
<g id="node3" class="node"><title>Node3</title>
<g id="a_node3"><a xlink:href="a00244.html" target="_top" xlink:title="Node structure encoding the information required for traversal. ">
<polygon fill="white" stroke="black" points="420.5,-161.5 420.5,-180.5 539.5,-180.5 539.5,-161.5 420.5,-161.5"/>
<text text-anchor="middle" x="480" y="-168.5" font-family="Helvetica,sans-Serif" font-size="10.00">fcl::TraversalNodeBase</text>
</a>
</g>
</g>
<!-- Node3&#45;&gt;Node2 -->
<g id="edge2" class="edge"><title>Node3&#45;&gt;Node2</title>
<path fill="none" stroke="midnightblue" d="M547.172,-159.724C579.254,-154.257 617.371,-147.762 647.992,-142.544"/>
<polygon fill="midnightblue" stroke="midnightblue" points="546.254,-156.33 536.984,-161.46 547.43,-163.23 546.254,-156.33"/>
</g>
<!-- Node4 -->
<g id="node4" class="node"><title>Node4</title>
<g id="a_node4"><a xlink:href="a00242.html" target="_top" xlink:title="Simple transform class used locally by InterpMotion. ">
<polygon fill="white" stroke="black" points="197,-180.5 197,-199.5 283,-199.5 283,-180.5 197,-180.5"/>
<text text-anchor="middle" x="240" y="-187.5" font-family="Helvetica,sans-Serif" font-size="10.00">fcl::Transform3f</text>
</a>
</g>
</g>
<!-- Node4&#45;&gt;Node1 -->
<g id="edge15" class="edge"><title>Node4&#45;&gt;Node1</title>
<path fill="none" stroke="#9a32cd" stroke-dasharray="5,2" d="M293.229,-196.576C341.385,-202.066 414.895,-209 479,-209 479,-209 479,-209 856,-209 924.569,-209 998.328,-170.164 1034.82,-148.015"/>
<polygon fill="#9a32cd" stroke="#9a32cd" points="293.388,-193.071 283.051,-195.394 292.581,-200.024 293.388,-193.071"/>
<text text-anchor="middle" x="705" y="-223" font-family="Helvetica,sans-Serif" font-size="10.00"> tf1</text>
<text text-anchor="middle" x="705" y="-212" font-family="Helvetica,sans-Serif" font-size="10.00">tf2</text>
</g>
<!-- Node4&#45;&gt;Node3 -->
<g id="edge3" class="edge"><title>Node4&#45;&gt;Node3</title>
<path fill="none" stroke="#9a32cd" stroke-dasharray="5,2" d="M286.154,-178.153C295.93,-176.042 306.258,-174.151 316,-173 350.429,-168.933 389.232,-168.3 420.339,-168.746"/>
<polygon fill="#9a32cd" stroke="#9a32cd" points="285.191,-174.782 276.215,-180.41 286.742,-181.608 285.191,-174.782"/>
<text text-anchor="middle" x="359" y="-187" font-family="Helvetica,sans-Serif" font-size="10.00"> tf1</text>
<text text-anchor="middle" x="359" y="-176" font-family="Helvetica,sans-Serif" font-size="10.00">tf2</text>
</g>
<!-- Node5 -->
<g id="node5" class="node"><title>Node5</title>
<g id="a_node5"><a xlink:href="a00034.html" target="_top" xlink:title="request to the collision algorithm ">
<polygon fill="white" stroke="black" points="426.5,-123.5 426.5,-142.5 533.5,-142.5 533.5,-123.5 426.5,-123.5"/>
<text text-anchor="middle" x="480" y="-130.5" font-family="Helvetica,sans-Serif" font-size="10.00">fcl::CollisionRequest</text>
</a>
</g>
</g>
<!-- Node5&#45;&gt;Node2 -->
<g id="edge4" class="edge"><title>Node5&#45;&gt;Node2</title>
<path fill="none" stroke="#9a32cd" stroke-dasharray="5,2" d="M543.903,-133C569.547,-133 599.455,-133 626.433,-133"/>
<polygon fill="#9a32cd" stroke="#9a32cd" points="543.566,-129.5 533.566,-133 543.565,-136.5 543.566,-129.5"/>
<text text-anchor="middle" x="583" y="-136" font-family="Helvetica,sans-Serif" font-size="10.00"> request</text>
</g>
<!-- Node6 -->
<g id="node6" class="node"><title>Node6</title>
<g id="a_node6"><a xlink:href="a00069.html" target="_top" xlink:title="Eigen::FclMatrix\&lt; FCL\l_REAL, 1 \&gt;">
<polygon fill="white" stroke="black" points="182,-60 182,-90 298,-90 298,-60 182,-60"/>
<text text-anchor="start" x="190" y="-78" font-family="Helvetica,sans-Serif" font-size="10.00">Eigen::FclMatrix&lt; FCL</text>
<text text-anchor="middle" x="240" y="-67" font-family="Helvetica,sans-Serif" font-size="10.00">_REAL, 1 &gt;</text>
</a>
</g>
</g>
<!-- Node6&#45;&gt;Node5 -->
<g id="edge5" class="edge"><title>Node6&#45;&gt;Node5</title>
<path fill="none" stroke="#9a32cd" stroke-dasharray="5,2" d="M287.189,-93.6861C296.623,-97.0927 306.555,-100.389 316,-103 352.332,-113.042 394.163,-120.662 426.351,-125.71"/>
<polygon fill="#9a32cd" stroke="#9a32cd" points="288.173,-90.318 277.58,-90.1203 285.737,-96.8807 288.173,-90.318"/>
<text text-anchor="middle" x="359" y="-125" font-family="Helvetica,sans-Serif" font-size="10.00"> cached_gjk_guess</text>
</g>
<!-- Node9 -->
<g id="node9" class="node"><title>Node9</title>
<g id="a_node9"><a xlink:href="a00035.html" target="_top" xlink:title="collision result ">
<polygon fill="white" stroke="black" points="430.5,-85.5 430.5,-104.5 529.5,-104.5 529.5,-85.5 430.5,-85.5"/>
<text text-anchor="middle" x="480" y="-92.5" font-family="Helvetica,sans-Serif" font-size="10.00">fcl::CollisionResult</text>
</a>
</g>
</g>
<!-- Node6&#45;&gt;Node9 -->
<g id="edge9" class="edge"><title>Node6&#45;&gt;Node9</title>
<path fill="none" stroke="#9a32cd" stroke-dasharray="5,2" d="M308.208,-80.6478C347.141,-83.9194 395.263,-87.9633 430.494,-90.9239"/>
<polygon fill="#9a32cd" stroke="#9a32cd" points="308.265,-77.1403 298.007,-79.7905 307.679,-84.1157 308.265,-77.1403"/>
<text text-anchor="middle" x="359" y="-91" font-family="Helvetica,sans-Serif" font-size="10.00"> cached_gjk_guess</text>
</g>
<!-- Node11 -->
<g id="node11" class="node"><title>Node11</title>
<g id="a_node11"><a xlink:href="a00032.html" target="_top" xlink:title="The geometry for the object for collision or distance computation. ">
<polygon fill="white" stroke="black" points="648.5,-46.5 648.5,-65.5 761.5,-65.5 761.5,-46.5 648.5,-46.5"/>
<text text-anchor="middle" x="705" y="-53.5" font-family="Helvetica,sans-Serif" font-size="10.00">fcl::CollisionGeometry</text>
</a>
</g>
</g>
<!-- Node6&#45;&gt;Node11 -->
<g id="edge14" class="edge"><title>Node6&#45;&gt;Node11</title>
<path fill="none" stroke="#9a32cd" stroke-dasharray="5,2" d="M308.37,-70.8511C341.912,-68.8836 383.084,-66.6159 420,-65 499.346,-61.5269 591.218,-58.8626 648.478,-57.3635"/>
<polygon fill="#9a32cd" stroke="#9a32cd" points="307.995,-67.3671 298.218,-71.4511 308.408,-74.3549 307.995,-67.3671"/>
<text text-anchor="middle" x="480" y="-68" font-family="Helvetica,sans-Serif" font-size="10.00"> aabb_center</text>
</g>
<!-- Node12 -->
<g id="node12" class="node"><title>Node12</title>
<g id="a_node12"><a xlink:href="a00003.html" target="_top" xlink:title="A class describing the AABB collision structure, which is a box in 3D space determined by two diagona...">
<polygon fill="white" stroke="black" points="450,-0.5 450,-19.5 510,-19.5 510,-0.5 450,-0.5"/>
<text text-anchor="middle" x="480" y="-7.5" font-family="Helvetica,sans-Serif" font-size="10.00">fcl::AABB</text>
</a>
</g>
</g>
<!-- Node6&#45;&gt;Node12 -->
<g id="edge13" class="edge"><title>Node6&#45;&gt;Node12</title>
<path fill="none" stroke="#9a32cd" stroke-dasharray="5,2" d="M263.684,-52.9779C277.599,-40.9369 296.453,-27.0692 316,-20 360.525,-3.89765 416.324,-4.54831 449.74,-6.94693"/>
<polygon fill="#9a32cd" stroke="#9a32cd" points="261.198,-50.5065 256.095,-59.7912 265.874,-55.7156 261.198,-50.5065"/>
<text text-anchor="middle" x="359" y="-34" font-family="Helvetica,sans-Serif" font-size="10.00"> max_</text>
<text text-anchor="middle" x="359" y="-23" font-family="Helvetica,sans-Serif" font-size="10.00">min_</text>
</g>
<!-- Node7 -->
<g id="node7" class="node"><title>Node7</title>
<polygon fill="white" stroke="#bfbfbf" points="6.5,-85 6.5,-137 137.5,-137 137.5,-85 6.5,-85"/>
<text text-anchor="start" x="14.5" y="-125" font-family="Helvetica,sans-Serif" font-size="10.00">Matrix&lt; FCL_REAL ,</text>
<text text-anchor="start" x="14.5" y="-114" font-family="Helvetica,sans-Serif" font-size="10.00"> 3, Cols, internal::</text>
<text text-anchor="start" x="14.5" y="-103" font-family="Helvetica,sans-Serif" font-size="10.00">traits&lt;Matrix &lt;FCL_REAL</text>
<text text-anchor="middle" x="72" y="-92" font-family="Helvetica,sans-Serif" font-size="10.00"> , 3, Cols&gt; &gt;::Options &gt;</text>
</g>
<!-- Node7&#45;&gt;Node6 -->
<g id="edge6" class="edge"><title>Node7&#45;&gt;Node6</title>
<path fill="none" stroke="midnightblue" d="M147.655,-94.8097C159.123,-92.3228 170.805,-89.7893 181.814,-87.4018"/>
<polygon fill="midnightblue" stroke="midnightblue" points="146.686,-91.4384 137.655,-96.9784 148.17,-98.2794 146.686,-91.4384"/>
</g>
<!-- Node8 -->
<g id="node8" class="node"><title>Node8</title>
<g id="a_node8"><a xlink:href="a00073.html" target="_top" xlink:title="fcl::FclType\&lt; FclMatrix\l\&lt; FCL_REAL, Cols, internal\l::traits\&lt; Matrix\&lt; FCL_REAL,\l 3, Cols \&gt; \&gt;::Options \&gt; \&gt;">
<polygon fill="white" stroke="black" points="0.5,-14 0.5,-66 143.5,-66 143.5,-14 0.5,-14"/>
<text text-anchor="start" x="8.5" y="-54" font-family="Helvetica,sans-Serif" font-size="10.00">fcl::FclType&lt; FclMatrix</text>
<text text-anchor="start" x="8.5" y="-43" font-family="Helvetica,sans-Serif" font-size="10.00">&lt; FCL_REAL, Cols, internal</text>
<text text-anchor="start" x="8.5" y="-32" font-family="Helvetica,sans-Serif" font-size="10.00">::traits&lt; Matrix&lt; FCL_REAL,</text>
<text text-anchor="middle" x="72" y="-21" font-family="Helvetica,sans-Serif" font-size="10.00"> 3, Cols &gt; &gt;::Options &gt; &gt;</text>
</a>
</g>
</g>
<!-- Node8&#45;&gt;Node6 -->
<g id="edge7" class="edge"><title>Node8&#45;&gt;Node6</title>
<path fill="none" stroke="midnightblue" d="M153.751,-57.0258C163.257,-59.03 172.802,-61.0425 181.887,-62.958"/>
<polygon fill="midnightblue" stroke="midnightblue" points="154.387,-53.5831 143.88,-54.9447 152.943,-60.4325 154.387,-53.5831"/>
</g>
<!-- Node9&#45;&gt;Node2 -->
<g id="edge8" class="edge"><title>Node9&#45;&gt;Node2</title>
<path fill="none" stroke="#9a32cd" stroke-dasharray="5,2" d="M539.769,-105.014C573.245,-110.719 614.96,-117.827 647.971,-123.452"/>
<polygon fill="#9a32cd" stroke="#9a32cd" points="540.109,-101.522 529.663,-103.292 538.933,-108.422 540.109,-101.522"/>
<text text-anchor="middle" x="583" y="-120" font-family="Helvetica,sans-Serif" font-size="10.00"> result</text>
</g>
<!-- Node10 -->
<g id="node10" class="node"><title>Node10</title>
<g id="a_node10"><a xlink:href="a00156.html" target="_top" xlink:title="Octree is one type of collision geometry which can encode uncertainty information in the sensor data...">
<polygon fill="white" stroke="black" points="822.5,-75.5 822.5,-94.5 887.5,-94.5 887.5,-75.5 822.5,-75.5"/>
<text text-anchor="middle" x="855" y="-82.5" font-family="Helvetica,sans-Serif" font-size="10.00">fcl::OcTree</text>
</a>
</g>
</g>
<!-- Node10&#45;&gt;Node1 -->
<g id="edge10" class="edge"><title>Node10&#45;&gt;Node1</title>
<path fill="none" stroke="#9a32cd" stroke-dasharray="5,2" d="M897.405,-94.8389C925.362,-101.482 962.804,-110.379 994.502,-117.911"/>
<polygon fill="#9a32cd" stroke="#9a32cd" points="898.101,-91.4068 887.562,-92.5 896.482,-98.2171 898.101,-91.4068"/>
<text text-anchor="middle" x="924" y="-108" font-family="Helvetica,sans-Serif" font-size="10.00"> model2</text>
</g>
<!-- Node11&#45;&gt;Node10 -->
<g id="edge11" class="edge"><title>Node11&#45;&gt;Node10</title>
<path fill="none" stroke="midnightblue" d="M764.695,-67.5011C784.391,-71.3604 805.599,-75.516 822.403,-78.8088"/>
<polygon fill="midnightblue" stroke="midnightblue" points="765.357,-64.0643 754.871,-65.5761 764.011,-70.9337 765.357,-64.0643"/>
</g>
<!-- Node12&#45;&gt;Node11 -->
<g id="edge12" class="edge"><title>Node12&#45;&gt;Node11</title>
<path fill="none" stroke="#9a32cd" stroke-dasharray="5,2" d="M520.062,-15.5198C545.268,-19.3127 578.7,-24.7759 608,-31 628.89,-35.4375 652.066,-41.4417 670.413,-46.4537"/>
<polygon fill="#9a32cd" stroke="#9a32cd" points="520.549,-12.0539 510.144,-14.0496 519.523,-18.9782 520.549,-12.0539"/>
<text text-anchor="middle" x="583" y="-34" font-family="Helvetica,sans-Serif" font-size="10.00"> aabb_local</text>
</g>
</g>
</svg>
