<?xml version="1.0" encoding="UTF-8" standalone="no"?>
<!DOCTYPE svg PUBLIC "-//W3C//DTD SVG 1.1//EN"
 "http://www.w3.org/Graphics/SVG/1.1/DTD/svg11.dtd">
<!-- Generated by graphviz version 2.36.0 (20140111.2315)
 -->
<!-- Title: fcl::ShapeDistanceTraversalNode&lt; S1, S2, NarrowPhaseSolver &gt; Pages: 1 -->
<svg width="228pt" height="220pt"
 viewBox="0.00 0.00 228.00 220.00" xmlns="http://www.w3.org/2000/svg" xmlns:xlink="http://www.w3.org/1999/xlink">
<g id="graph0" class="graph" transform="scale(1 1) rotate(0) translate(4 216)">
<title>fcl::ShapeDistanceTraversalNode&lt; S1, S2, NarrowPhaseSolver &gt;</title>
<polygon fill="white" stroke="none" points="-4,4 -4,-216 224,-216 224,4 -4,4"/>
<!-- Node1 -->
<g id="node1" class="node"><title>Node1</title>
<polygon fill="#bfbfbf" stroke="black" points="19.5,-69 19.5,-99 200.5,-99 200.5,-69 19.5,-69"/>
<text text-anchor="start" x="27.5" y="-87" font-family="Helvetica,sans-Serif" font-size="10.00">fcl::ShapeDistanceTraversal</text>
<text text-anchor="middle" x="110" y="-76" font-family="Helvetica,sans-Serif" font-size="10.00">Node&lt; S1, S2, NarrowPhaseSolver &gt;</text>
</g>
<!-- Node4 -->
<g id="node4" class="node"><title>Node4</title>
<g id="a_node4"><a xlink:href="a00202.html" target="_top" xlink:title="fcl::ShapeConservativeAdvancement\lTraversalNode\&lt; S1, S2, NarrowPhaseSolver \&gt;">
<polygon fill="white" stroke="black" points="-0.5,-1 -0.5,-31 220.5,-31 220.5,-1 -0.5,-1"/>
<text text-anchor="start" x="7.5" y="-19" font-family="Helvetica,sans-Serif" font-size="10.00">fcl::ShapeConservativeAdvancement</text>
<text text-anchor="middle" x="110" y="-8" font-family="Helvetica,sans-Serif" font-size="10.00">TraversalNode&lt; S1, S2, NarrowPhaseSolver &gt;</text>
</a>
</g>
</g>
<!-- Node1&#45;&gt;Node4 -->
<g id="edge3" class="edge"><title>Node1&#45;&gt;Node4</title>
<path fill="none" stroke="midnightblue" d="M110,-58.5322C110,-49.3606 110,-39.2449 110,-31.2931"/>
<polygon fill="midnightblue" stroke="midnightblue" points="106.5,-58.6789 110,-68.679 113.5,-58.679 106.5,-58.6789"/>
</g>
<!-- Node2 -->
<g id="node2" class="node"><title>Node2</title>
<g id="a_node2"><a xlink:href="a00056.html" target="_top" xlink:title="Node structure encoding the information required for distance traversal. ">
<polygon fill="white" stroke="black" points="31,-136.5 31,-155.5 189,-155.5 189,-136.5 31,-136.5"/>
<text text-anchor="middle" x="110" y="-143.5" font-family="Helvetica,sans-Serif" font-size="10.00">fcl::DistanceTraversalNodeBase</text>
</a>
</g>
</g>
<!-- Node2&#45;&gt;Node1 -->
<g id="edge1" class="edge"><title>Node2&#45;&gt;Node1</title>
<path fill="none" stroke="midnightblue" d="M110,-126.371C110,-117.585 110,-107.272 110,-99.1408"/>
<polygon fill="midnightblue" stroke="midnightblue" points="106.5,-126.403 110,-136.403 113.5,-126.403 106.5,-126.403"/>
</g>
<!-- Node3 -->
<g id="node3" class="node"><title>Node3</title>
<g id="a_node3"><a xlink:href="a00244.html" target="_top" xlink:title="Node structure encoding the information required for traversal. ">
<polygon fill="white" stroke="black" points="50.5,-192.5 50.5,-211.5 169.5,-211.5 169.5,-192.5 50.5,-192.5"/>
<text text-anchor="middle" x="110" y="-199.5" font-family="Helvetica,sans-Serif" font-size="10.00">fcl::TraversalNodeBase</text>
</a>
</g>
</g>
<!-- Node3&#45;&gt;Node2 -->
<g id="edge2" class="edge"><title>Node3&#45;&gt;Node2</title>
<path fill="none" stroke="midnightblue" d="M110,-181.805C110,-172.91 110,-162.78 110,-155.751"/>
<polygon fill="midnightblue" stroke="midnightblue" points="106.5,-182.083 110,-192.083 113.5,-182.083 106.5,-182.083"/>
</g>
</g>
</svg>
