<?xml version="1.0" encoding="UTF-8" standalone="no"?>
<!DOCTYPE svg PUBLIC "-//W3C//DTD SVG 1.1//EN"
 "http://www.w3.org/Graphics/SVG/1.1/DTD/svg11.dtd">
<!-- Generated by graphviz version 2.36.0 (20140111.2315)
 -->
<!-- Title: fcl::ShapeMeshCollisionTraversalNodeOBB&lt; S, NarrowPhaseSolver &gt; Pages: 1 -->
<svg width="1736pt" height="421pt"
 viewBox="0.00 0.00 1736.00 421.00" xmlns="http://www.w3.org/2000/svg" xmlns:xlink="http://www.w3.org/1999/xlink">
<g id="graph0" class="graph" transform="scale(1 1) rotate(0) translate(4 417)">
<title>fcl::ShapeMeshCollisionTraversalNodeOBB&lt; S, NarrowPhaseSolver &gt;</title>
<polygon fill="white" stroke="none" points="-4,4 -4,-417 1732,-417 1732,4 -4,4"/>
<!-- Node1 -->
<g id="node1" class="node"><title>Node1</title>
<polygon fill="#bfbfbf" stroke="black" points="1548.5,-52 1548.5,-82 1727.5,-82 1727.5,-52 1548.5,-52"/>
<text text-anchor="start" x="1556.5" y="-70" font-family="Helvetica,sans-Serif" font-size="10.00">fcl::ShapeMeshCollisionTraversal</text>
<text text-anchor="middle" x="1638" y="-59" font-family="Helvetica,sans-Serif" font-size="10.00">NodeOBB&lt; S, NarrowPhaseSolver &gt;</text>
</g>
<!-- Node2 -->
<g id="node2" class="node"><title>Node2</title>
<g id="a_node2"><a xlink:href="a00204.html" target="_top" xlink:title="fcl::ShapeMeshCollisionTraversal\lNode\&lt; S, OBB, NarrowPhaseSolver \&gt;">
<polygon fill="white" stroke="black" points="1324.5,-52 1324.5,-82 1509.5,-82 1509.5,-52 1324.5,-52"/>
<text text-anchor="start" x="1332.5" y="-70" font-family="Helvetica,sans-Serif" font-size="10.00">fcl::ShapeMeshCollisionTraversal</text>
<text text-anchor="middle" x="1417" y="-59" font-family="Helvetica,sans-Serif" font-size="10.00">Node&lt; S, OBB, NarrowPhaseSolver &gt;</text>
</a>
</g>
</g>
<!-- Node2&#45;&gt;Node1 -->
<g id="edge1" class="edge"><title>Node2&#45;&gt;Node1</title>
<path fill="none" stroke="midnightblue" d="M1519.84,-67C1529.32,-67 1538.87,-67 1548.22,-67"/>
<polygon fill="midnightblue" stroke="midnightblue" points="1519.61,-63.5001 1509.61,-67 1519.61,-70.5001 1519.61,-63.5001"/>
</g>
<!-- Node3 -->
<g id="node3" class="node"><title>Node3</title>
<g id="a_node3"><a xlink:href="a00199.html" target="_top" xlink:title="fcl::ShapeBVHCollisionTraversal\lNode\&lt; S, OBB \&gt;">
<polygon fill="white" stroke="black" points="1092,-210 1092,-240 1252,-240 1252,-210 1092,-210"/>
<text text-anchor="start" x="1100" y="-228" font-family="Helvetica,sans-Serif" font-size="10.00">fcl::ShapeBVHCollisionTraversal</text>
<text text-anchor="middle" x="1172" y="-217" font-family="Helvetica,sans-Serif" font-size="10.00">Node&lt; S, OBB &gt;</text>
</a>
</g>
</g>
<!-- Node3&#45;&gt;Node2 -->
<g id="edge2" class="edge"><title>Node3&#45;&gt;Node2</title>
<path fill="none" stroke="midnightblue" d="M1204.72,-204.374C1254.3,-172.136 1349.01,-110.558 1392.77,-82.1038"/>
<polygon fill="midnightblue" stroke="midnightblue" points="1202.78,-201.465 1196.3,-209.85 1206.59,-207.333 1202.78,-201.465"/>
</g>
<!-- Node4 -->
<g id="node4" class="node"><title>Node4</title>
<g id="a_node4"><a xlink:href="a00036.html" target="_top" xlink:title="Node structure encoding the information required for collision traversal. ">
<polygon fill="white" stroke="black" points="632.5,-329.5 632.5,-348.5 789.5,-348.5 789.5,-329.5 632.5,-329.5"/>
<text text-anchor="middle" x="711" y="-336.5" font-family="Helvetica,sans-Serif" font-size="10.00">fcl::CollisionTraversalNodeBase</text>
</a>
</g>
</g>
<!-- Node4&#45;&gt;Node3 -->
<g id="edge3" class="edge"><title>Node4&#45;&gt;Node3</title>
<path fill="none" stroke="midnightblue" d="M799.993,-331.924C874.538,-324.056 983.432,-308.109 1074,-277 1100.75,-267.813 1128.99,-251.869 1148.05,-240.051"/>
<polygon fill="midnightblue" stroke="midnightblue" points="799.297,-328.477 789.707,-332.981 800.013,-335.44 799.297,-328.477"/>
</g>
<!-- Node5 -->
<g id="node5" class="node"><title>Node5</title>
<g id="a_node5"><a xlink:href="a00244.html" target="_top" xlink:title="Node structure encoding the information required for traversal. ">
<polygon fill="white" stroke="black" points="421.5,-381.5 421.5,-400.5 540.5,-400.5 540.5,-381.5 421.5,-381.5"/>
<text text-anchor="middle" x="481" y="-388.5" font-family="Helvetica,sans-Serif" font-size="10.00">fcl::TraversalNodeBase</text>
</a>
</g>
</g>
<!-- Node5&#45;&gt;Node4 -->
<g id="edge4" class="edge"><title>Node5&#45;&gt;Node4</title>
<path fill="none" stroke="midnightblue" d="M538.898,-379.398C562.216,-374.522 589.444,-368.672 614,-363 633.584,-358.476 655.32,-353.075 673.149,-348.542"/>
<polygon fill="midnightblue" stroke="midnightblue" points="537.901,-376.03 528.824,-381.495 539.328,-382.883 537.901,-376.03"/>
</g>
<!-- Node6 -->
<g id="node6" class="node"><title>Node6</title>
<g id="a_node6"><a xlink:href="a00242.html" target="_top" xlink:title="Simple transform class used locally by InterpMotion. ">
<polygon fill="white" stroke="black" points="197,-381.5 197,-400.5 283,-400.5 283,-381.5 197,-381.5"/>
<text text-anchor="middle" x="240" y="-388.5" font-family="Helvetica,sans-Serif" font-size="10.00">fcl::Transform3f</text>
</a>
</g>
</g>
<!-- Node6&#45;&gt;Node5 -->
<g id="edge5" class="edge"><title>Node6&#45;&gt;Node5</title>
<path fill="none" stroke="#9a32cd" stroke-dasharray="5,2" d="M293.45,-391C331.184,-391 382.104,-391 421.211,-391"/>
<polygon fill="#9a32cd" stroke="#9a32cd" points="293.178,-387.5 283.178,-391 293.178,-394.5 293.178,-387.5"/>
<text text-anchor="middle" x="359" y="-405" font-family="Helvetica,sans-Serif" font-size="10.00"> tf1</text>
<text text-anchor="middle" x="359" y="-394" font-family="Helvetica,sans-Serif" font-size="10.00">tf2</text>
</g>
<!-- Node7 -->
<g id="node7" class="node"><title>Node7</title>
<g id="a_node7"><a xlink:href="a00034.html" target="_top" xlink:title="request to the collision algorithm ">
<polygon fill="white" stroke="black" points="427.5,-343.5 427.5,-362.5 534.5,-362.5 534.5,-343.5 427.5,-343.5"/>
<text text-anchor="middle" x="481" y="-350.5" font-family="Helvetica,sans-Serif" font-size="10.00">fcl::CollisionRequest</text>
</a>
</g>
</g>
<!-- Node7&#45;&gt;Node4 -->
<g id="edge6" class="edge"><title>Node7&#45;&gt;Node4</title>
<path fill="none" stroke="#9a32cd" stroke-dasharray="5,2" d="M544.699,-349.15C571.731,-347.49 603.625,-345.532 632.151,-343.78"/>
<polygon fill="#9a32cd" stroke="#9a32cd" points="544.361,-345.664 534.594,-349.771 544.79,-352.651 544.361,-345.664"/>
<text text-anchor="middle" x="587" y="-351" font-family="Helvetica,sans-Serif" font-size="10.00"> request</text>
</g>
<!-- Node8 -->
<g id="node8" class="node"><title>Node8</title>
<g id="a_node8"><a xlink:href="a00069.html" target="_top" xlink:title="Eigen::FclMatrix\&lt; FCL\l_REAL, 1 \&gt;">
<polygon fill="white" stroke="black" points="182,-248 182,-278 298,-278 298,-248 182,-248"/>
<text text-anchor="start" x="190" y="-266" font-family="Helvetica,sans-Serif" font-size="10.00">Eigen::FclMatrix&lt; FCL</text>
<text text-anchor="middle" x="240" y="-255" font-family="Helvetica,sans-Serif" font-size="10.00">_REAL, 1 &gt;</text>
</a>
</g>
</g>
<!-- Node8&#45;&gt;Node7 -->
<g id="edge7" class="edge"><title>Node8&#45;&gt;Node7</title>
<path fill="none" stroke="#9a32cd" stroke-dasharray="5,2" d="M261.1,-285.63C275.058,-299.843 294.882,-317.268 316,-327 350.952,-343.107 394.05,-349.486 427.292,-351.902"/>
<polygon fill="#9a32cd" stroke="#9a32cd" points="263.404,-282.974 253.979,-278.134 258.329,-287.795 263.404,-282.974"/>
<text text-anchor="middle" x="359" y="-351" font-family="Helvetica,sans-Serif" font-size="10.00"> cached_gjk_guess</text>
</g>
<!-- Node11 -->
<g id="node11" class="node"><title>Node11</title>
<g id="a_node11"><a xlink:href="a00035.html" target="_top" xlink:title="collision result ">
<polygon fill="white" stroke="black" points="431.5,-305.5 431.5,-324.5 530.5,-324.5 530.5,-305.5 431.5,-305.5"/>
<text text-anchor="middle" x="481" y="-312.5" font-family="Helvetica,sans-Serif" font-size="10.00">fcl::CollisionResult</text>
</a>
</g>
</g>
<!-- Node8&#45;&gt;Node11 -->
<g id="edge11" class="edge"><title>Node8&#45;&gt;Node11</title>
<path fill="none" stroke="#9a32cd" stroke-dasharray="5,2" d="M277.86,-282.506C289.741,-288.025 303.162,-293.482 316,-297 353.846,-307.371 398.153,-311.797 431.167,-313.671"/>
<polygon fill="#9a32cd" stroke="#9a32cd" points="279.231,-279.281 268.702,-278.101 276.197,-285.59 279.231,-279.281"/>
<text text-anchor="middle" x="359" y="-315" font-family="Helvetica,sans-Serif" font-size="10.00"> cached_gjk_guess</text>
</g>
<!-- Node12 -->
<g id="node12" class="node"><title>Node12</title>
<g id="a_node12"><a xlink:href="a00154.html" target="_top" xlink:title="Oriented bounding box class. ">
<polygon fill="white" stroke="black" points="560,-253.5 560,-272.5 614,-272.5 614,-253.5 560,-253.5"/>
<text text-anchor="middle" x="587" y="-260.5" font-family="Helvetica,sans-Serif" font-size="10.00">fcl::OBB</text>
</a>
</g>
</g>
<!-- Node8&#45;&gt;Node12 -->
<g id="edge13" class="edge"><title>Node8&#45;&gt;Node12</title>
<path fill="none" stroke="#9a32cd" stroke-dasharray="5,2" d="M308.357,-260.177C310.937,-260.11 313.492,-260.05 316,-260 405.519,-258.21 511.756,-260.761 559.933,-262.172"/>
<polygon fill="#9a32cd" stroke="#9a32cd" points="308.214,-256.68 298.321,-260.471 308.419,-263.677 308.214,-256.68"/>
<text text-anchor="middle" x="359" y="-285" font-family="Helvetica,sans-Serif" font-size="10.00"> extent</text>
<text text-anchor="middle" x="359" y="-274" font-family="Helvetica,sans-Serif" font-size="10.00">To</text>
<text text-anchor="middle" x="359" y="-263" font-family="Helvetica,sans-Serif" font-size="10.00">axis</text>
</g>
<!-- Node15 -->
<g id="node15" class="node"><title>Node15</title>
<g id="a_node15"><a xlink:href="a00032.html" target="_top" xlink:title="The geometry for the object for collision or distance computation. ">
<polygon fill="white" stroke="black" points="654.5,-214.5 654.5,-233.5 767.5,-233.5 767.5,-214.5 654.5,-214.5"/>
<text text-anchor="middle" x="711" y="-221.5" font-family="Helvetica,sans-Serif" font-size="10.00">fcl::CollisionGeometry</text>
</a>
</g>
</g>
<!-- Node8&#45;&gt;Node15 -->
<g id="edge19" class="edge"><title>Node8&#45;&gt;Node15</title>
<path fill="none" stroke="#9a32cd" stroke-dasharray="5,2" d="M308.347,-255.779C341.884,-252.297 383.058,-248.194 420,-245 501.472,-237.955 595.962,-231.417 654.368,-227.565"/>
<polygon fill="#9a32cd" stroke="#9a32cd" points="307.781,-252.319 298.198,-256.837 308.507,-259.281 307.781,-252.319"/>
<text text-anchor="middle" x="481" y="-248" font-family="Helvetica,sans-Serif" font-size="10.00"> aabb_center</text>
</g>
<!-- Node16 -->
<g id="node16" class="node"><title>Node16</title>
<g id="a_node16"><a xlink:href="a00003.html" target="_top" xlink:title="A class describing the AABB collision structure, which is a box in 3D space determined by two diagona...">
<polygon fill="white" stroke="black" points="451,-168.5 451,-187.5 511,-187.5 511,-168.5 451,-168.5"/>
<text text-anchor="middle" x="481" y="-175.5" font-family="Helvetica,sans-Serif" font-size="10.00">fcl::AABB</text>
</a>
</g>
</g>
<!-- Node8&#45;&gt;Node16 -->
<g id="edge18" class="edge"><title>Node8&#45;&gt;Node16</title>
<path fill="none" stroke="#9a32cd" stroke-dasharray="5,2" d="M256.801,-239.817C270.266,-222.18 291.326,-199.112 316,-188 359.825,-168.263 417.009,-170.176 450.979,-173.789"/>
<polygon fill="#9a32cd" stroke="#9a32cd" points="253.917,-237.831 250.819,-247.962 259.559,-241.974 253.917,-237.831"/>
<text text-anchor="middle" x="359" y="-202" font-family="Helvetica,sans-Serif" font-size="10.00"> max_</text>
<text text-anchor="middle" x="359" y="-191" font-family="Helvetica,sans-Serif" font-size="10.00">min_</text>
</g>
<!-- Node9 -->
<g id="node9" class="node"><title>Node9</title>
<polygon fill="white" stroke="#bfbfbf" points="6.5,-273 6.5,-325 137.5,-325 137.5,-273 6.5,-273"/>
<text text-anchor="start" x="14.5" y="-313" font-family="Helvetica,sans-Serif" font-size="10.00">Matrix&lt; FCL_REAL ,</text>
<text text-anchor="start" x="14.5" y="-302" font-family="Helvetica,sans-Serif" font-size="10.00"> 3, Cols, internal::</text>
<text text-anchor="start" x="14.5" y="-291" font-family="Helvetica,sans-Serif" font-size="10.00">traits&lt;Matrix &lt;FCL_REAL</text>
<text text-anchor="middle" x="72" y="-280" font-family="Helvetica,sans-Serif" font-size="10.00"> , 3, Cols&gt; &gt;::Options &gt;</text>
</g>
<!-- Node9&#45;&gt;Node8 -->
<g id="edge8" class="edge"><title>Node9&#45;&gt;Node8</title>
<path fill="none" stroke="midnightblue" d="M147.655,-282.81C159.123,-280.323 170.805,-277.789 181.814,-275.402"/>
<polygon fill="midnightblue" stroke="midnightblue" points="146.686,-279.438 137.655,-284.978 148.17,-286.279 146.686,-279.438"/>
</g>
<!-- Node10 -->
<g id="node10" class="node"><title>Node10</title>
<g id="a_node10"><a xlink:href="a00073.html" target="_top" xlink:title="fcl::FclType\&lt; FclMatrix\l\&lt; FCL_REAL, Cols, internal\l::traits\&lt; Matrix\&lt; FCL_REAL,\l 3, Cols \&gt; \&gt;::Options \&gt; \&gt;">
<polygon fill="white" stroke="black" points="0.5,-202 0.5,-254 143.5,-254 143.5,-202 0.5,-202"/>
<text text-anchor="start" x="8.5" y="-242" font-family="Helvetica,sans-Serif" font-size="10.00">fcl::FclType&lt; FclMatrix</text>
<text text-anchor="start" x="8.5" y="-231" font-family="Helvetica,sans-Serif" font-size="10.00">&lt; FCL_REAL, Cols, internal</text>
<text text-anchor="start" x="8.5" y="-220" font-family="Helvetica,sans-Serif" font-size="10.00">::traits&lt; Matrix&lt; FCL_REAL,</text>
<text text-anchor="middle" x="72" y="-209" font-family="Helvetica,sans-Serif" font-size="10.00"> 3, Cols &gt; &gt;::Options &gt; &gt;</text>
</a>
</g>
</g>
<!-- Node10&#45;&gt;Node8 -->
<g id="edge9" class="edge"><title>Node10&#45;&gt;Node8</title>
<path fill="none" stroke="midnightblue" d="M153.751,-245.026C163.257,-247.03 172.802,-249.043 181.887,-250.958"/>
<polygon fill="midnightblue" stroke="midnightblue" points="154.387,-241.583 143.88,-242.945 152.943,-248.433 154.387,-241.583"/>
</g>
<!-- Node11&#45;&gt;Node4 -->
<g id="edge10" class="edge"><title>Node11&#45;&gt;Node4</title>
<path fill="none" stroke="#9a32cd" stroke-dasharray="5,2" d="M540.63,-321.172C568.535,-324.109 602.286,-327.662 632.291,-330.82"/>
<polygon fill="#9a32cd" stroke="#9a32cd" points="540.944,-317.685 530.632,-320.119 540.211,-324.647 540.944,-317.685"/>
<text text-anchor="middle" x="587" y="-332" font-family="Helvetica,sans-Serif" font-size="10.00"> result</text>
</g>
<!-- Node12&#45;&gt;Node3 -->
<g id="edge12" class="edge"><title>Node12&#45;&gt;Node3</title>
<path fill="none" stroke="#9a32cd" stroke-dasharray="5,2" d="M624.326,-262.76C705.292,-261.902 906.613,-257.975 1074,-240 1079.85,-239.372 1085.88,-238.641 1091.94,-237.846"/>
<polygon fill="#9a32cd" stroke="#9a32cd" points="624.128,-259.262 614.163,-262.858 624.196,-266.262 624.128,-259.262"/>
<text text-anchor="middle" x="839" y="-262" font-family="Helvetica,sans-Serif" font-size="10.00"> model1_bv</text>
</g>
<!-- Node13 -->
<g id="node13" class="node"><title>Node13</title>
<polygon fill="white" stroke="#bfbfbf" points="933.5,-215.5 933.5,-234.5 962.5,-234.5 962.5,-215.5 933.5,-215.5"/>
<text text-anchor="middle" x="948" y="-222.5" font-family="Helvetica,sans-Serif" font-size="10.00">S</text>
</g>
<!-- Node13&#45;&gt;Node3 -->
<g id="edge14" class="edge"><title>Node13&#45;&gt;Node3</title>
<path fill="none" stroke="#9a32cd" stroke-dasharray="5,2" d="M972.666,-225C1000.94,-225 1049.72,-225 1091.82,-225"/>
<polygon fill="#9a32cd" stroke="#9a32cd" points="972.553,-221.5 962.553,-225 972.553,-228.5 972.553,-221.5"/>
<text text-anchor="middle" x="1050" y="-228" font-family="Helvetica,sans-Serif" font-size="10.00"> model1</text>
</g>
<!-- Node14 -->
<g id="node14" class="node"><title>Node14</title>
<g id="a_node14"><a xlink:href="a00022.html" target="_top" xlink:title="fcl::BVHModel\&lt; OBB \&gt;">
<polygon fill="white" stroke="black" points="888.5,-177.5 888.5,-196.5 1007.5,-196.5 1007.5,-177.5 888.5,-177.5"/>
<text text-anchor="middle" x="948" y="-184.5" font-family="Helvetica,sans-Serif" font-size="10.00">fcl::BVHModel&lt; OBB &gt;</text>
</a>
</g>
</g>
<!-- Node14&#45;&gt;Node3 -->
<g id="edge15" class="edge"><title>Node14&#45;&gt;Node3</title>
<path fill="none" stroke="#9a32cd" stroke-dasharray="5,2" d="M1014.85,-198.272C1038.99,-202.404 1066.56,-207.123 1091.75,-211.435"/>
<polygon fill="#9a32cd" stroke="#9a32cd" points="1015.18,-194.777 1004.73,-196.54 1014,-201.677 1015.18,-194.777"/>
<text text-anchor="middle" x="1050" y="-212" font-family="Helvetica,sans-Serif" font-size="10.00"> model2</text>
</g>
<!-- Node15&#45;&gt;Node14 -->
<g id="edge16" class="edge"><title>Node15&#45;&gt;Node14</title>
<path fill="none" stroke="midnightblue" d="M777.854,-214.943C806.239,-210.902 839.789,-205.944 870,-201 878.448,-199.618 887.401,-198.068 896.099,-196.517"/>
<polygon fill="midnightblue" stroke="midnightblue" points="777.057,-211.521 767.646,-216.389 778.038,-218.452 777.057,-211.521"/>
</g>
<!-- Node16&#45;&gt;Node15 -->
<g id="edge17" class="edge"><title>Node16&#45;&gt;Node15</title>
<path fill="none" stroke="#9a32cd" stroke-dasharray="5,2" d="M521.127,-182.513C547.572,-185.98 583.156,-191.46 614,-199 622.192,-201.003 623.896,-202.667 632,-205 643.652,-208.355 656.393,-211.624 668.137,-214.478"/>
<polygon fill="#9a32cd" stroke="#9a32cd" points="521.474,-179.029 511.112,-181.239 520.59,-185.973 521.474,-179.029"/>
<text text-anchor="middle" x="587" y="-202" font-family="Helvetica,sans-Serif" font-size="10.00"> aabb_local</text>
</g>
<!-- Node17 -->
<g id="node17" class="node"><title>Node17</title>
<polygon fill="white" stroke="#bfbfbf" points="660.5,-176.5 660.5,-195.5 761.5,-195.5 761.5,-176.5 660.5,-176.5"/>
<text text-anchor="middle" x="711" y="-183.5" font-family="Helvetica,sans-Serif" font-size="10.00">boost::noncopyable</text>
</g>
<!-- Node17&#45;&gt;Node14 -->
<g id="edge20" class="edge"><title>Node17&#45;&gt;Node14</title>
<path fill="none" stroke="#8b1a1a" d="M771.845,-186.255C807.607,-186.407 852.842,-186.599 888.383,-186.751"/>
<polygon fill="#8b1a1a" stroke="#8b1a1a" points="771.565,-182.754 761.55,-186.211 771.535,-189.753 771.565,-182.754"/>
</g>
<!-- Node18 -->
<g id="node18" class="node"><title>Node18</title>
<g id="a_node18"><a xlink:href="a00245.html" target="_top" xlink:title="Triangle with 3 indices for points. ">
<polygon fill="white" stroke="black" points="677,-129.5 677,-148.5 745,-148.5 745,-129.5 677,-129.5"/>
<text text-anchor="middle" x="711" y="-136.5" font-family="Helvetica,sans-Serif" font-size="10.00">fcl::Triangle</text>
</a>
</g>
</g>
<!-- Node18&#45;&gt;Node2 -->
<g id="edge26" class="edge"><title>Node18&#45;&gt;Node2</title>
<path fill="none" stroke="#9a32cd" stroke-dasharray="5,2" d="M740.061,-125.115C758.811,-116.54 784.296,-106.211 808,-101 832.717,-95.5666 1160.68,-79.2365 1324.37,-71.3527"/>
<polygon fill="#9a32cd" stroke="#9a32cd" points="738.483,-121.989 730.914,-129.403 741.454,-128.327 738.483,-121.989"/>
<text text-anchor="middle" x="1050" y="-90" font-family="Helvetica,sans-Serif" font-size="10.00"> tri_indices</text>
</g>
<!-- Node18&#45;&gt;Node14 -->
<g id="edge21" class="edge"><title>Node18&#45;&gt;Node14</title>
<path fill="none" stroke="#9a32cd" stroke-dasharray="5,2" d="M755.153,-147.814C796.255,-156.21 857.957,-168.812 900.22,-177.445"/>
<polygon fill="#9a32cd" stroke="#9a32cd" points="755.67,-144.348 745.171,-145.775 754.269,-151.206 755.67,-144.348"/>
<text text-anchor="middle" x="839" y="-174" font-family="Helvetica,sans-Serif" font-size="10.00"> tri_indices</text>
</g>
<!-- Node19 -->
<g id="node19" class="node"><title>Node19</title>
<g id="a_node19"><a xlink:href="a00069.html" target="_top" xlink:title="Vector3 class wrapper. The core data is in the template parameter class. ">
<polygon fill="white" stroke="black" points="658,-54 658,-84 764,-84 764,-54 658,-54"/>
<text text-anchor="start" x="666" y="-72" font-family="Helvetica,sans-Serif" font-size="10.00">Eigen::FclMatrix&lt; T,</text>
<text text-anchor="middle" x="711" y="-61" font-family="Helvetica,sans-Serif" font-size="10.00"> Cols, _Options &gt;</text>
</a>
</g>
</g>
<!-- Node19&#45;&gt;Node2 -->
<g id="edge27" class="edge"><title>Node19&#45;&gt;Node2</title>
<path fill="none" stroke="#9a32cd" stroke-dasharray="5,2" d="M774.415,-64.8818C837.753,-60.9235 938.645,-55.2242 1026,-53 1128.1,-50.4003 1245.19,-55.7171 1324.22,-60.5283"/>
<polygon fill="#9a32cd" stroke="#9a32cd" points="773.954,-61.4038 764.194,-65.5258 774.395,-68.3899 773.954,-61.4038"/>
<text text-anchor="middle" x="1050" y="-56" font-family="Helvetica,sans-Serif" font-size="10.00"> vertices</text>
</g>
<!-- Node19&#45;&gt;Node14 -->
<g id="edge22" class="edge"><title>Node19&#45;&gt;Node14</title>
<path fill="none" stroke="#9a32cd" stroke-dasharray="5,2" d="M766.606,-87.6303C797.698,-99.0896 836.923,-115.006 870,-133 894.383,-146.264 920.338,-165.725 935.024,-177.303"/>
<polygon fill="#9a32cd" stroke="#9a32cd" points="767.409,-84.1981 756.815,-84.0694 765.016,-90.7766 767.409,-84.1981"/>
<text text-anchor="middle" x="839" y="-147" font-family="Helvetica,sans-Serif" font-size="10.00"> prev_vertices</text>
<text text-anchor="middle" x="839" y="-136" font-family="Helvetica,sans-Serif" font-size="10.00">vertices</text>
</g>
<!-- Node20 -->
<g id="node20" class="node"><title>Node20</title>
<polygon fill="white" stroke="#bfbfbf" points="429,-98 429,-128 533,-128 533,-98 429,-98"/>
<text text-anchor="start" x="437" y="-116" font-family="Helvetica,sans-Serif" font-size="10.00">Eigen::Matrix&lt; T, 3,</text>
<text text-anchor="middle" x="481" y="-105" font-family="Helvetica,sans-Serif" font-size="10.00"> Cols, _Options &gt;</text>
</g>
<!-- Node20&#45;&gt;Node19 -->
<g id="edge23" class="edge"><title>Node20&#45;&gt;Node19</title>
<path fill="none" stroke="midnightblue" d="M543.018,-101.225C578.842,-94.3113 623.643,-85.6654 657.818,-79.0701"/>
<polygon fill="midnightblue" stroke="midnightblue" points="542.323,-97.794 533.168,-103.126 543.65,-104.667 542.323,-97.794"/>
</g>
<!-- Node21 -->
<g id="node21" class="node"><title>Node21</title>
<g id="a_node21"><a xlink:href="a00073.html" target="_top" xlink:title="fcl::FclType\&lt; FclMatrix\l\&lt; T, Cols, _Options \&gt; \&gt;">
<polygon fill="white" stroke="black" points="420.5,-49 420.5,-79 541.5,-79 541.5,-49 420.5,-49"/>
<text text-anchor="start" x="428.5" y="-67" font-family="Helvetica,sans-Serif" font-size="10.00">fcl::FclType&lt; FclMatrix</text>
<text text-anchor="middle" x="481" y="-56" font-family="Helvetica,sans-Serif" font-size="10.00">&lt; T, Cols, _Options &gt; &gt;</text>
</a>
</g>
</g>
<!-- Node21&#45;&gt;Node19 -->
<g id="edge24" class="edge"><title>Node21&#45;&gt;Node19</title>
<path fill="none" stroke="midnightblue" d="M551.97,-65.5344C586.059,-66.282 626.355,-67.1657 657.724,-67.8536"/>
<polygon fill="midnightblue" stroke="midnightblue" points="551.681,-62.0273 541.607,-65.3072 551.527,-69.0257 551.681,-62.0273"/>
</g>
<!-- Node22 -->
<g id="node22" class="node"><title>Node22</title>
<polygon fill="white" stroke="#bfbfbf" points="1120,-0.5 1120,-19.5 1224,-19.5 1224,-0.5 1120,-0.5"/>
<text text-anchor="middle" x="1172" y="-7.5" font-family="Helvetica,sans-Serif" font-size="10.00">NarrowPhaseSolver</text>
</g>
<!-- Node22&#45;&gt;Node2 -->
<g id="edge25" class="edge"><title>Node22&#45;&gt;Node2</title>
<path fill="none" stroke="#9a32cd" stroke-dasharray="5,2" d="M1234.3,-12.3546C1257.06,-14.1765 1282.93,-17.3806 1306,-23 1333.58,-29.7186 1363.39,-41.9796 1385.01,-51.8553"/>
<polygon fill="#9a32cd" stroke="#9a32cd" points="1234.32,-8.84643 1224.09,-11.6111 1233.81,-15.828 1234.32,-8.84643"/>
<text text-anchor="middle" x="1288" y="-26" font-family="Helvetica,sans-Serif" font-size="10.00"> nsolver</text>
</g>
</g>
</svg>
