<?xml version="1.0" encoding="UTF-8" standalone="no"?>
<!DOCTYPE svg PUBLIC "-//W3C//DTD SVG 1.1//EN"
 "http://www.w3.org/Graphics/SVG/1.1/DTD/svg11.dtd">
<!-- Generated by graphviz version 2.36.0 (20140111.2315)
 -->
<!-- Title: fcl::ShapeConservativeAdvancementTraversalNode&lt; S1, S2, NarrowPhaseSolver &gt; Pages: 1 -->
<svg width="1582pt" height="190pt"
 viewBox="0.00 0.00 1582.00 190.00" xmlns="http://www.w3.org/2000/svg" xmlns:xlink="http://www.w3.org/1999/xlink">
<g id="graph0" class="graph" transform="scale(1 1) rotate(0) translate(4 186)">
<title>fcl::ShapeConservativeAdvancementTraversalNode&lt; S1, S2, NarrowPhaseSolver &gt;</title>
<polygon fill="white" stroke="none" points="-4,4 -4,-186 1578,-186 1578,4 -4,4"/>
<!-- Node1 -->
<g id="node1" class="node"><title>Node1</title>
<polygon fill="#bfbfbf" stroke="black" points="1352.5,-33 1352.5,-63 1573.5,-63 1573.5,-33 1352.5,-33"/>
<text text-anchor="start" x="1360.5" y="-51" font-family="Helvetica,sans-Serif" font-size="10.00">fcl::ShapeConservativeAdvancement</text>
<text text-anchor="middle" x="1463" y="-40" font-family="Helvetica,sans-Serif" font-size="10.00">TraversalNode&lt; S1, S2, NarrowPhaseSolver &gt;</text>
</g>
<!-- Node2 -->
<g id="node2" class="node"><title>Node2</title>
<g id="a_node2"><a xlink:href="a00203.html" target="_top" xlink:title="Traversal node for distance between two shapes. ">
<polygon fill="white" stroke="black" points="1096.5,-99 1096.5,-129 1277.5,-129 1277.5,-99 1096.5,-99"/>
<text text-anchor="start" x="1104.5" y="-117" font-family="Helvetica,sans-Serif" font-size="10.00">fcl::ShapeDistanceTraversal</text>
<text text-anchor="middle" x="1187" y="-106" font-family="Helvetica,sans-Serif" font-size="10.00">Node&lt; S1, S2, NarrowPhaseSolver &gt;</text>
</a>
</g>
</g>
<!-- Node2&#45;&gt;Node1 -->
<g id="edge1" class="edge"><title>Node2&#45;&gt;Node1</title>
<path fill="none" stroke="midnightblue" d="M1260.4,-96.5608C1303.6,-86.1551 1357.91,-73.0722 1399.28,-63.1084"/>
<polygon fill="midnightblue" stroke="midnightblue" points="1259.42,-93.1965 1250.52,-98.941 1261.06,-100.002 1259.42,-93.1965"/>
</g>
<!-- Node3 -->
<g id="node3" class="node"><title>Node3</title>
<g id="a_node3"><a xlink:href="a00056.html" target="_top" xlink:title="Node structure encoding the information required for distance traversal. ">
<polygon fill="white" stroke="black" points="900,-108.5 900,-127.5 1058,-127.5 1058,-108.5 900,-108.5"/>
<text text-anchor="middle" x="979" y="-115.5" font-family="Helvetica,sans-Serif" font-size="10.00">fcl::DistanceTraversalNodeBase</text>
</a>
</g>
</g>
<!-- Node3&#45;&gt;Node2 -->
<g id="edge2" class="edge"><title>Node3&#45;&gt;Node2</title>
<path fill="none" stroke="midnightblue" d="M1068.25,-116.286C1077.6,-116.105 1087.12,-115.92 1096.49,-115.738"/>
<polygon fill="midnightblue" stroke="midnightblue" points="1068.1,-112.788 1058.17,-116.482 1068.24,-119.787 1068.1,-112.788"/>
</g>
<!-- Node4 -->
<g id="node4" class="node"><title>Node4</title>
<g id="a_node4"><a xlink:href="a00244.html" target="_top" xlink:title="Node structure encoding the information required for traversal. ">
<polygon fill="white" stroke="black" points="692.5,-124.5 692.5,-143.5 811.5,-143.5 811.5,-124.5 692.5,-124.5"/>
<text text-anchor="middle" x="752" y="-131.5" font-family="Helvetica,sans-Serif" font-size="10.00">fcl::TraversalNodeBase</text>
</a>
</g>
</g>
<!-- Node4&#45;&gt;Node3 -->
<g id="edge3" class="edge"><title>Node4&#45;&gt;Node3</title>
<path fill="none" stroke="midnightblue" d="M821.543,-129.126C846.272,-127.367 874.363,-125.37 899.852,-123.557"/>
<polygon fill="midnightblue" stroke="midnightblue" points="821.255,-125.637 811.529,-129.838 821.752,-132.62 821.255,-125.637"/>
</g>
<!-- Node5 -->
<g id="node5" class="node"><title>Node5</title>
<g id="a_node5"><a xlink:href="a00242.html" target="_top" xlink:title="Simple transform class used locally by InterpMotion. ">
<polygon fill="white" stroke="black" points="540,-158.5 540,-177.5 626,-177.5 626,-158.5 540,-158.5"/>
<text text-anchor="middle" x="583" y="-165.5" font-family="Helvetica,sans-Serif" font-size="10.00">fcl::Transform3f</text>
</a>
</g>
</g>
<!-- Node5&#45;&gt;Node4 -->
<g id="edge4" class="edge"><title>Node5&#45;&gt;Node4</title>
<path fill="none" stroke="#9a32cd" stroke-dasharray="5,2" d="M636.197,-157.373C657.948,-152.945 683.013,-147.842 704.162,-143.536"/>
<polygon fill="#9a32cd" stroke="#9a32cd" points="635.242,-153.996 626.141,-159.42 636.638,-160.855 635.242,-153.996"/>
<text text-anchor="middle" x="666" y="-167" font-family="Helvetica,sans-Serif" font-size="10.00"> tf1</text>
<text text-anchor="middle" x="666" y="-156" font-family="Helvetica,sans-Serif" font-size="10.00">tf2</text>
</g>
<!-- Node6 -->
<g id="node6" class="node"><title>Node6</title>
<g id="a_node6"><a xlink:href="a00055.html" target="_top" xlink:title="distance result ">
<polygon fill="white" stroke="black" points="701.5,-86.5 701.5,-105.5 802.5,-105.5 802.5,-86.5 701.5,-86.5"/>
<text text-anchor="middle" x="752" y="-93.5" font-family="Helvetica,sans-Serif" font-size="10.00">fcl::DistanceResult</text>
</a>
</g>
</g>
<!-- Node6&#45;&gt;Node3 -->
<g id="edge5" class="edge"><title>Node6&#45;&gt;Node3</title>
<path fill="none" stroke="#9a32cd" stroke-dasharray="5,2" d="M812.618,-101.829C839.316,-104.44 871.156,-107.553 899.738,-110.348"/>
<polygon fill="#9a32cd" stroke="#9a32cd" points="812.949,-98.3451 802.656,-100.855 812.268,-105.312 812.949,-98.3451"/>
<text text-anchor="middle" x="856" y="-112" font-family="Helvetica,sans-Serif" font-size="10.00"> result</text>
</g>
<!-- Node7 -->
<g id="node7" class="node"><title>Node7</title>
<g id="a_node7"><a xlink:href="a00069.html" target="_top" xlink:title="Eigen::FclMatrix\&lt; FCL\l_REAL, 1 \&gt;">
<polygon fill="white" stroke="black" points="182,-57 182,-87 298,-87 298,-57 182,-57"/>
<text text-anchor="start" x="190" y="-75" font-family="Helvetica,sans-Serif" font-size="10.00">Eigen::FclMatrix&lt; FCL</text>
<text text-anchor="middle" x="240" y="-64" font-family="Helvetica,sans-Serif" font-size="10.00">_REAL, 1 &gt;</text>
</a>
</g>
</g>
<!-- Node7&#45;&gt;Node6 -->
<g id="edge6" class="edge"><title>Node7&#45;&gt;Node6</title>
<path fill="none" stroke="#9a32cd" stroke-dasharray="5,2" d="M304.07,-89.4512C308.095,-90.3685 312.096,-91.2283 316,-92 336.226,-95.9981 341.488,-95.9135 362,-98 493.122,-111.338 526.235,-113.007 658,-116 665.109,-116.161 666.946,-116.901 674,-116 689.892,-113.97 707.192,-109.673 721.361,-105.581"/>
<polygon fill="#9a32cd" stroke="#9a32cd" points="304.601,-85.9798 294.062,-87.07 302.98,-92.7897 304.601,-85.9798"/>
<text text-anchor="middle" x="474" y="-114" font-family="Helvetica,sans-Serif" font-size="10.00"> nearest_points</text>
</g>
<!-- Node10 -->
<g id="node10" class="node"><title>Node10</title>
<g id="a_node10"><a xlink:href="a00032.html" target="_top" xlink:title="The geometry for the object for collision or distance computation. ">
<polygon fill="white" stroke="black" points="526.5,-81.5 526.5,-100.5 639.5,-100.5 639.5,-81.5 526.5,-81.5"/>
<text text-anchor="middle" x="583" y="-88.5" font-family="Helvetica,sans-Serif" font-size="10.00">fcl::CollisionGeometry</text>
</a>
</g>
</g>
<!-- Node7&#45;&gt;Node10 -->
<g id="edge12" class="edge"><title>Node7&#45;&gt;Node10</title>
<path fill="none" stroke="#9a32cd" stroke-dasharray="5,2" d="M308.358,-76.5357C310.938,-76.6951 313.492,-76.8504 316,-77 388.706,-81.3366 472.634,-85.6364 526.456,-88.3031"/>
<polygon fill="#9a32cd" stroke="#9a32cd" points="308.523,-73.0392 298.323,-75.9043 308.083,-80.0254 308.523,-73.0392"/>
<text text-anchor="middle" x="392" y="-86" font-family="Helvetica,sans-Serif" font-size="10.00"> aabb_center</text>
</g>
<!-- Node11 -->
<g id="node11" class="node"><title>Node11</title>
<g id="a_node11"><a xlink:href="a00003.html" target="_top" xlink:title="A class describing the AABB collision structure, which is a box in 3D space determined by two diagona...">
<polygon fill="white" stroke="black" points="362,-35.5 362,-54.5 422,-54.5 422,-35.5 362,-35.5"/>
<text text-anchor="middle" x="392" y="-42.5" font-family="Helvetica,sans-Serif" font-size="10.00">fcl::AABB</text>
</a>
</g>
</g>
<!-- Node7&#45;&gt;Node11 -->
<g id="edge11" class="edge"><title>Node7&#45;&gt;Node11</title>
<path fill="none" stroke="#9a32cd" stroke-dasharray="5,2" d="M308.023,-56.4937C310.713,-55.971 313.38,-55.4706 316,-55 330.998,-52.3061 347.803,-50.0003 361.698,-48.284"/>
<polygon fill="#9a32cd" stroke="#9a32cd" points="307.33,-53.0629 298.219,-58.4707 308.714,-59.9248 307.33,-53.0629"/>
<text text-anchor="middle" x="330" y="-69" font-family="Helvetica,sans-Serif" font-size="10.00"> max_</text>
<text text-anchor="middle" x="330" y="-58" font-family="Helvetica,sans-Serif" font-size="10.00">min_</text>
</g>
<!-- Node14 -->
<g id="node14" class="node"><title>Node14</title>
<g id="a_node14"><a xlink:href="a00181.html" target="_top" xlink:title="A class for rectangle sphere&#45;swept bounding volume. ">
<polygon fill="white" stroke="black" points="447,-4.5 447,-23.5 501,-23.5 501,-4.5 447,-4.5"/>
<text text-anchor="middle" x="474" y="-11.5" font-family="Helvetica,sans-Serif" font-size="10.00">fcl::RSS</text>
</a>
</g>
</g>
<!-- Node7&#45;&gt;Node14 -->
<g id="edge16" class="edge"><title>Node7&#45;&gt;Node14</title>
<path fill="none" stroke="#9a32cd" stroke-dasharray="5,2" d="M267.812,-50.6776C281.441,-41.0621 298.741,-30.6214 316,-25 360.297,-10.5722 415.23,-10.4833 446.983,-12.0333"/>
<polygon fill="#9a32cd" stroke="#9a32cd" points="265.426,-48.0872 259.424,-56.8183 269.56,-53.7355 265.426,-48.0872"/>
<text text-anchor="middle" x="330" y="-39" font-family="Helvetica,sans-Serif" font-size="10.00"> Tr</text>
<text text-anchor="middle" x="330" y="-28" font-family="Helvetica,sans-Serif" font-size="10.00">axis</text>
</g>
<!-- Node8 -->
<g id="node8" class="node"><title>Node8</title>
<polygon fill="white" stroke="#bfbfbf" points="6.5,-82 6.5,-134 137.5,-134 137.5,-82 6.5,-82"/>
<text text-anchor="start" x="14.5" y="-122" font-family="Helvetica,sans-Serif" font-size="10.00">Matrix&lt; FCL_REAL ,</text>
<text text-anchor="start" x="14.5" y="-111" font-family="Helvetica,sans-Serif" font-size="10.00"> 3, Cols, internal::</text>
<text text-anchor="start" x="14.5" y="-100" font-family="Helvetica,sans-Serif" font-size="10.00">traits&lt;Matrix &lt;FCL_REAL</text>
<text text-anchor="middle" x="72" y="-89" font-family="Helvetica,sans-Serif" font-size="10.00"> , 3, Cols&gt; &gt;::Options &gt;</text>
</g>
<!-- Node8&#45;&gt;Node7 -->
<g id="edge7" class="edge"><title>Node8&#45;&gt;Node7</title>
<path fill="none" stroke="midnightblue" d="M147.655,-91.8097C159.123,-89.3228 170.805,-86.7893 181.814,-84.4018"/>
<polygon fill="midnightblue" stroke="midnightblue" points="146.686,-88.4384 137.655,-93.9784 148.17,-95.2794 146.686,-88.4384"/>
</g>
<!-- Node9 -->
<g id="node9" class="node"><title>Node9</title>
<g id="a_node9"><a xlink:href="a00073.html" target="_top" xlink:title="fcl::FclType\&lt; FclMatrix\l\&lt; FCL_REAL, Cols, internal\l::traits\&lt; Matrix\&lt; FCL_REAL,\l 3, Cols \&gt; \&gt;::Options \&gt; \&gt;">
<polygon fill="white" stroke="black" points="0.5,-11 0.5,-63 143.5,-63 143.5,-11 0.5,-11"/>
<text text-anchor="start" x="8.5" y="-51" font-family="Helvetica,sans-Serif" font-size="10.00">fcl::FclType&lt; FclMatrix</text>
<text text-anchor="start" x="8.5" y="-40" font-family="Helvetica,sans-Serif" font-size="10.00">&lt; FCL_REAL, Cols, internal</text>
<text text-anchor="start" x="8.5" y="-29" font-family="Helvetica,sans-Serif" font-size="10.00">::traits&lt; Matrix&lt; FCL_REAL,</text>
<text text-anchor="middle" x="72" y="-18" font-family="Helvetica,sans-Serif" font-size="10.00"> 3, Cols &gt; &gt;::Options &gt; &gt;</text>
</a>
</g>
</g>
<!-- Node9&#45;&gt;Node7 -->
<g id="edge8" class="edge"><title>Node9&#45;&gt;Node7</title>
<path fill="none" stroke="midnightblue" d="M153.751,-54.0258C163.257,-56.03 172.802,-58.0425 181.887,-59.958"/>
<polygon fill="midnightblue" stroke="midnightblue" points="154.387,-50.5831 143.88,-51.9447 152.943,-57.4325 154.387,-50.5831"/>
</g>
<!-- Node10&#45;&gt;Node6 -->
<g id="edge9" class="edge"><title>Node10&#45;&gt;Node6</title>
<path fill="none" stroke="#9a32cd" stroke-dasharray="5,2" d="M650.068,-92.9781C667.12,-93.4886 685.188,-94.0296 701.251,-94.5105"/>
<polygon fill="#9a32cd" stroke="#9a32cd" points="649.709,-89.4659 639.609,-92.6649 649.499,-96.4627 649.709,-89.4659"/>
<text text-anchor="middle" x="666" y="-108" font-family="Helvetica,sans-Serif" font-size="10.00"> o1</text>
<text text-anchor="middle" x="666" y="-97" font-family="Helvetica,sans-Serif" font-size="10.00">o2</text>
</g>
<!-- Node11&#45;&gt;Node10 -->
<g id="edge10" class="edge"><title>Node11&#45;&gt;Node10</title>
<path fill="none" stroke="#9a32cd" stroke-dasharray="5,2" d="M432.217,-50.7127C454.593,-54.3323 483.066,-59.548 508,-66 524.41,-70.2464 542.438,-76.3063 556.591,-81.3964"/>
<polygon fill="#9a32cd" stroke="#9a32cd" points="432.506,-47.2151 422.083,-49.1145 431.415,-54.1296 432.506,-47.2151"/>
<text text-anchor="middle" x="474" y="-69" font-family="Helvetica,sans-Serif" font-size="10.00"> aabb_local</text>
</g>
<!-- Node12 -->
<g id="node12" class="node"><title>Node12</title>
<g id="a_node12"><a xlink:href="a00054.html" target="_top" xlink:title="request to the distance computation ">
<polygon fill="white" stroke="black" points="697.5,-162.5 697.5,-181.5 806.5,-181.5 806.5,-162.5 697.5,-162.5"/>
<text text-anchor="middle" x="752" y="-169.5" font-family="Helvetica,sans-Serif" font-size="10.00">fcl::DistanceRequest</text>
</a>
</g>
</g>
<!-- Node12&#45;&gt;Node3 -->
<g id="edge13" class="edge"><title>Node12&#45;&gt;Node3</title>
<path fill="none" stroke="#9a32cd" stroke-dasharray="5,2" d="M802.451,-160.132C843.268,-150.336 900.44,-136.614 938.312,-127.525"/>
<polygon fill="#9a32cd" stroke="#9a32cd" points="801.615,-156.733 792.708,-162.47 803.248,-163.54 801.615,-156.733"/>
<text text-anchor="middle" x="856" y="-156" font-family="Helvetica,sans-Serif" font-size="10.00"> request</text>
</g>
<!-- Node13 -->
<g id="node13" class="node"><title>Node13</title>
<g id="a_node13"><a xlink:href="a00144.html" target="_top" xlink:title="fcl::MotionBase">
<polygon fill="white" stroke="black" points="1144.5,-0.5 1144.5,-19.5 1229.5,-19.5 1229.5,-0.5 1144.5,-0.5"/>
<text text-anchor="middle" x="1187" y="-7.5" font-family="Helvetica,sans-Serif" font-size="10.00">fcl::MotionBase</text>
</a>
</g>
</g>
<!-- Node13&#45;&gt;Node1 -->
<g id="edge14" class="edge"><title>Node13&#45;&gt;Node1</title>
<path fill="none" stroke="#9a32cd" stroke-dasharray="5,2" d="M1240.12,-7.44053C1268.09,-6.88865 1303.08,-7.51843 1334,-12 1363.01,-16.2051 1394.74,-25.0979 1419.35,-32.9924"/>
<polygon fill="#9a32cd" stroke="#9a32cd" points="1239.67,-3.95069 1229.76,-7.70434 1239.85,-10.9484 1239.67,-3.95069"/>
<text text-anchor="middle" x="1315" y="-26" font-family="Helvetica,sans-Serif" font-size="10.00"> motion1</text>
<text text-anchor="middle" x="1315" y="-15" font-family="Helvetica,sans-Serif" font-size="10.00">motion2</text>
</g>
<!-- Node14&#45;&gt;Node1 -->
<g id="edge15" class="edge"><title>Node14&#45;&gt;Node1</title>
<path fill="none" stroke="#9a32cd" stroke-dasharray="5,2" d="M511.229,-24.4249C549.208,-34.4201 610.784,-48 665,-48 665,-48 665,-48 1188,-48 1242.11,-48 1302.23,-48 1352.34,-48"/>
<polygon fill="#9a32cd" stroke="#9a32cd" points="511.735,-20.9365 501.169,-21.7151 509.914,-27.6956 511.735,-20.9365"/>
<text text-anchor="middle" x="856" y="-62" font-family="Helvetica,sans-Serif" font-size="10.00"> model1_bv</text>
<text text-anchor="middle" x="856" y="-51" font-family="Helvetica,sans-Serif" font-size="10.00">model2_bv</text>
</g>
</g>
</svg>
