<?xml version="1.0" encoding="UTF-8" standalone="no"?>
<!DOCTYPE svg PUBLIC "-//W3C//DTD SVG 1.1//EN"
 "http://www.w3.org/Graphics/SVG/1.1/DTD/svg11.dtd">
<!-- Generated by graphviz version 2.36.0 (20140111.2315)
 -->
<!-- Title: fcl::ShapeMeshConservativeAdvancementTraversalNodeRSS&lt; S, NarrowPhaseSolver &gt; Pages: 1 -->
<svg width="2246pt" height="505pt"
 viewBox="0.00 0.00 2246.00 505.00" xmlns="http://www.w3.org/2000/svg" xmlns:xlink="http://www.w3.org/1999/xlink">
<g id="graph0" class="graph" transform="scale(1 1) rotate(0) translate(4 501)">
<title>fcl::ShapeMeshConservativeAdvancementTraversalNodeRSS&lt; S, NarrowPhaseSolver &gt;</title>
<polygon fill="white" stroke="none" points="-4,4 -4,-501 2242,-501 2242,4 -4,4"/>
<!-- Node1 -->
<g id="node1" class="node"><title>Node1</title>
<polygon fill="#bfbfbf" stroke="black" points="2076.5,-47.5 2076.5,-88.5 2237.5,-88.5 2237.5,-47.5 2076.5,-47.5"/>
<text text-anchor="start" x="2084.5" y="-76.5" font-family="Helvetica,sans-Serif" font-size="10.00">fcl::ShapeMeshConservative</text>
<text text-anchor="start" x="2084.5" y="-65.5" font-family="Helvetica,sans-Serif" font-size="10.00">AdvancementTraversalNodeRSS</text>
<text text-anchor="middle" x="2157" y="-54.5" font-family="Helvetica,sans-Serif" font-size="10.00">&lt; S, NarrowPhaseSolver &gt;</text>
</g>
<!-- Node2 -->
<g id="node2" class="node"><title>Node2</title>
<g id="a_node2"><a xlink:href="a00209.html" target="_top" xlink:title="fcl::ShapeMeshConservative\lAdvancementTraversalNode\l\&lt; S, RSS, NarrowPhaseSolver \&gt;">
<polygon fill="white" stroke="black" points="1876.5,-47.5 1876.5,-88.5 2037.5,-88.5 2037.5,-47.5 1876.5,-47.5"/>
<text text-anchor="start" x="1884.5" y="-76.5" font-family="Helvetica,sans-Serif" font-size="10.00">fcl::ShapeMeshConservative</text>
<text text-anchor="start" x="1884.5" y="-65.5" font-family="Helvetica,sans-Serif" font-size="10.00">AdvancementTraversalNode</text>
<text text-anchor="middle" x="1957" y="-54.5" font-family="Helvetica,sans-Serif" font-size="10.00">&lt; S, RSS, NarrowPhaseSolver &gt;</text>
</a>
</g>
</g>
<!-- Node2&#45;&gt;Node1 -->
<g id="edge1" class="edge"><title>Node2&#45;&gt;Node1</title>
<path fill="none" stroke="midnightblue" d="M2047.95,-68C2057.47,-68 2067.1,-68 2076.48,-68"/>
<polygon fill="midnightblue" stroke="midnightblue" points="2047.68,-64.5001 2037.68,-68 2047.68,-71.5001 2047.68,-64.5001"/>
</g>
<!-- Node3 -->
<g id="node3" class="node"><title>Node3</title>
<g id="a_node3"><a xlink:href="a00212.html" target="_top" xlink:title="fcl::ShapeMeshDistanceTraversal\lNode\&lt; S, RSS, NarrowPhaseSolver \&gt;">
<polygon fill="white" stroke="black" points="1616.5,-148 1616.5,-178 1801.5,-178 1801.5,-148 1616.5,-148"/>
<text text-anchor="start" x="1624.5" y="-166" font-family="Helvetica,sans-Serif" font-size="10.00">fcl::ShapeMeshDistanceTraversal</text>
<text text-anchor="middle" x="1709" y="-155" font-family="Helvetica,sans-Serif" font-size="10.00">Node&lt; S, RSS, NarrowPhaseSolver &gt;</text>
</a>
</g>
</g>
<!-- Node3&#45;&gt;Node2 -->
<g id="edge2" class="edge"><title>Node3&#45;&gt;Node2</title>
<path fill="none" stroke="midnightblue" d="M1758.33,-144.335C1799.85,-128.301 1859.63,-105.216 1902.56,-88.6365"/>
<polygon fill="midnightblue" stroke="midnightblue" points="1757.05,-141.079 1748.98,-147.947 1759.57,-147.609 1757.05,-141.079"/>
</g>
<!-- Node4 -->
<g id="node4" class="node"><title>Node4</title>
<g id="a_node4"><a xlink:href="a00200.html" target="_top" xlink:title="fcl::ShapeBVHDistanceTraversal\lNode\&lt; S, RSS \&gt;">
<polygon fill="white" stroke="black" points="1382.5,-269 1382.5,-299 1543.5,-299 1543.5,-269 1382.5,-269"/>
<text text-anchor="start" x="1390.5" y="-287" font-family="Helvetica,sans-Serif" font-size="10.00">fcl::ShapeBVHDistanceTraversal</text>
<text text-anchor="middle" x="1463" y="-276" font-family="Helvetica,sans-Serif" font-size="10.00">Node&lt; S, RSS &gt;</text>
</a>
</g>
</g>
<!-- Node4&#45;&gt;Node3 -->
<g id="edge3" class="edge"><title>Node4&#45;&gt;Node3</title>
<path fill="none" stroke="midnightblue" d="M1507.47,-264.67C1533.84,-252.75 1568.07,-236.933 1598,-222 1626.5,-207.777 1658.54,-190.434 1680.66,-178.244"/>
<polygon fill="midnightblue" stroke="midnightblue" points="1505.81,-261.578 1498.13,-268.877 1508.69,-267.961 1505.81,-261.578"/>
</g>
<!-- Node5 -->
<g id="node5" class="node"><title>Node5</title>
<g id="a_node5"><a xlink:href="a00056.html" target="_top" xlink:title="Node structure encoding the information required for distance traversal. ">
<polygon fill="white" stroke="black" points="1140,-406.5 1140,-425.5 1298,-425.5 1298,-406.5 1140,-406.5"/>
<text text-anchor="middle" x="1219" y="-413.5" font-family="Helvetica,sans-Serif" font-size="10.00">fcl::DistanceTraversalNodeBase</text>
</a>
</g>
</g>
<!-- Node5&#45;&gt;Node4 -->
<g id="edge4" class="edge"><title>Node5&#45;&gt;Node4</title>
<path fill="none" stroke="midnightblue" d="M1246.63,-401.474C1292.87,-376.251 1387.55,-324.609 1434.44,-299.035"/>
<polygon fill="midnightblue" stroke="midnightblue" points="1244.9,-398.433 1237.79,-406.294 1248.25,-404.578 1244.9,-398.433"/>
</g>
<!-- Node6 -->
<g id="node6" class="node"><title>Node6</title>
<g id="a_node6"><a xlink:href="a00244.html" target="_top" xlink:title="Node structure encoding the information required for traversal. ">
<polygon fill="white" stroke="black" points="922.5,-465.5 922.5,-484.5 1041.5,-484.5 1041.5,-465.5 922.5,-465.5"/>
<text text-anchor="middle" x="982" y="-472.5" font-family="Helvetica,sans-Serif" font-size="10.00">fcl::TraversalNodeBase</text>
</a>
</g>
</g>
<!-- Node6&#45;&gt;Node5 -->
<g id="edge5" class="edge"><title>Node6&#45;&gt;Node5</title>
<path fill="none" stroke="midnightblue" d="M1039.03,-463.363C1064.45,-457.865 1094.84,-450.983 1122,-444 1143.86,-438.381 1168.27,-431.248 1187.01,-425.588"/>
<polygon fill="midnightblue" stroke="midnightblue" points="1038.24,-459.955 1029.19,-465.477 1039.71,-466.799 1038.24,-459.955"/>
</g>
<!-- Node7 -->
<g id="node7" class="node"><title>Node7</title>
<g id="a_node7"><a xlink:href="a00242.html" target="_top" xlink:title="Simple transform class used locally by InterpMotion. ">
<polygon fill="white" stroke="black" points="636,-465.5 636,-484.5 722,-484.5 722,-465.5 636,-465.5"/>
<text text-anchor="middle" x="679" y="-472.5" font-family="Helvetica,sans-Serif" font-size="10.00">fcl::Transform3f</text>
</a>
</g>
</g>
<!-- Node7&#45;&gt;Node6 -->
<g id="edge6" class="edge"><title>Node7&#45;&gt;Node6</title>
<path fill="none" stroke="#9a32cd" stroke-dasharray="5,2" d="M732.37,-475C785.373,-475 867.163,-475 922.321,-475"/>
<polygon fill="#9a32cd" stroke="#9a32cd" points="732.17,-471.5 722.17,-475 732.17,-478.5 732.17,-471.5"/>
<text text-anchor="middle" x="831" y="-489" font-family="Helvetica,sans-Serif" font-size="10.00"> tf1</text>
<text text-anchor="middle" x="831" y="-478" font-family="Helvetica,sans-Serif" font-size="10.00">tf2</text>
</g>
<!-- Node8 -->
<g id="node8" class="node"><title>Node8</title>
<g id="a_node8"><a xlink:href="a00055.html" target="_top" xlink:title="distance result ">
<polygon fill="white" stroke="black" points="931.5,-427.5 931.5,-446.5 1032.5,-446.5 1032.5,-427.5 931.5,-427.5"/>
<text text-anchor="middle" x="982" y="-434.5" font-family="Helvetica,sans-Serif" font-size="10.00">fcl::DistanceResult</text>
</a>
</g>
</g>
<!-- Node8&#45;&gt;Node5 -->
<g id="edge7" class="edge"><title>Node8&#45;&gt;Node5</title>
<path fill="none" stroke="#9a32cd" stroke-dasharray="5,2" d="M1042.7,-431.665C1072.2,-429.029 1108.18,-425.814 1139.84,-422.984"/>
<polygon fill="#9a32cd" stroke="#9a32cd" points="1042.2,-428.196 1032.55,-432.572 1042.82,-435.168 1042.2,-428.196"/>
<text text-anchor="middle" x="1091" y="-432" font-family="Helvetica,sans-Serif" font-size="10.00"> result</text>
</g>
<!-- Node9 -->
<g id="node9" class="node"><title>Node9</title>
<g id="a_node9"><a xlink:href="a00069.html" target="_top" xlink:title="Eigen::FclMatrix\&lt; FCL\l_REAL, 1 \&gt;">
<polygon fill="white" stroke="black" points="182,-306 182,-336 298,-336 298,-306 182,-306"/>
<text text-anchor="start" x="190" y="-324" font-family="Helvetica,sans-Serif" font-size="10.00">Eigen::FclMatrix&lt; FCL</text>
<text text-anchor="middle" x="240" y="-313" font-family="Helvetica,sans-Serif" font-size="10.00">_REAL, 1 &gt;</text>
</a>
</g>
</g>
<!-- Node9&#45;&gt;Node2 -->
<g id="edge33" class="edge"><title>Node9&#45;&gt;Node2</title>
<path fill="none" stroke="#9a32cd" stroke-dasharray="5,2" d="M248.539,-296.124C268.509,-235.866 328.794,-87 437,-87 437,-87 437,-87 1710,-87 1765.69,-87 1828.25,-82.1004 1876.35,-77.2774"/>
<polygon fill="#9a32cd" stroke="#9a32cd" points="245.206,-295.055 245.476,-305.647 251.87,-297.198 245.206,-295.055"/>
<text text-anchor="middle" x="1091" y="-101" font-family="Helvetica,sans-Serif" font-size="10.00"> closest_p1</text>
<text text-anchor="middle" x="1091" y="-90" font-family="Helvetica,sans-Serif" font-size="10.00">closest_p2</text>
</g>
<!-- Node9&#45;&gt;Node8 -->
<g id="edge8" class="edge"><title>Node9&#45;&gt;Node8</title>
<path fill="none" stroke="#9a32cd" stroke-dasharray="5,2" d="M265.721,-342.803C288.789,-361.525 325.103,-387.023 362,-397 567.573,-452.588 824.906,-446.165 931.37,-440.364"/>
<polygon fill="#9a32cd" stroke="#9a32cd" points="267.772,-339.957 257.846,-336.254 263.296,-345.339 267.772,-339.957"/>
<text text-anchor="middle" x="566" y="-438" font-family="Helvetica,sans-Serif" font-size="10.00"> nearest_points</text>
</g>
<!-- Node12 -->
<g id="node12" class="node"><title>Node12</title>
<g id="a_node12"><a xlink:href="a00032.html" target="_top" xlink:title="The geometry for the object for collision or distance computation. ">
<polygon fill="white" stroke="black" points="622.5,-369.5 622.5,-388.5 735.5,-388.5 735.5,-369.5 622.5,-369.5"/>
<text text-anchor="middle" x="679" y="-376.5" font-family="Helvetica,sans-Serif" font-size="10.00">fcl::CollisionGeometry</text>
</a>
</g>
</g>
<!-- Node9&#45;&gt;Node12 -->
<g id="edge14" class="edge"><title>Node9&#45;&gt;Node12</title>
<path fill="none" stroke="#9a32cd" stroke-dasharray="5,2" d="M275.508,-340.889C287.892,-347.119 302.211,-353.321 316,-357 421.549,-385.161 550.305,-385.256 622.33,-382.392"/>
<polygon fill="#9a32cd" stroke="#9a32cd" points="276.94,-337.688 266.455,-336.161 273.699,-343.893 276.94,-337.688"/>
<text text-anchor="middle" x="438" y="-385" font-family="Helvetica,sans-Serif" font-size="10.00"> aabb_center</text>
</g>
<!-- Node13 -->
<g id="node13" class="node"><title>Node13</title>
<g id="a_node13"><a xlink:href="a00003.html" target="_top" xlink:title="A class describing the AABB collision structure, which is a box in 3D space determined by two diagona...">
<polygon fill="white" stroke="black" points="408,-331.5 408,-350.5 468,-350.5 468,-331.5 408,-331.5"/>
<text text-anchor="middle" x="438" y="-338.5" font-family="Helvetica,sans-Serif" font-size="10.00">fcl::AABB</text>
</a>
</g>
</g>
<!-- Node9&#45;&gt;Node13 -->
<g id="edge13" class="edge"><title>Node9&#45;&gt;Node13</title>
<path fill="none" stroke="#9a32cd" stroke-dasharray="5,2" d="M308.538,-327.892C342.415,-331.349 381.685,-335.356 407.801,-338.02"/>
<polygon fill="#9a32cd" stroke="#9a32cd" points="308.522,-324.372 298.218,-326.839 307.811,-331.336 308.522,-324.372"/>
<text text-anchor="middle" x="330" y="-345" font-family="Helvetica,sans-Serif" font-size="10.00"> max_</text>
<text text-anchor="middle" x="330" y="-334" font-family="Helvetica,sans-Serif" font-size="10.00">min_</text>
</g>
<!-- Node15 -->
<g id="node15" class="node"><title>Node15</title>
<g id="a_node15"><a xlink:href="a00181.html" target="_top" xlink:title="A class for rectangle sphere&#45;swept bounding volume. ">
<polygon fill="white" stroke="black" points="539,-300.5 539,-319.5 593,-319.5 593,-300.5 539,-300.5"/>
<text text-anchor="middle" x="566" y="-307.5" font-family="Helvetica,sans-Serif" font-size="10.00">fcl::RSS</text>
</a>
</g>
</g>
<!-- Node9&#45;&gt;Node15 -->
<g id="edge17" class="edge"><title>Node9&#45;&gt;Node15</title>
<path fill="none" stroke="#9a32cd" stroke-dasharray="5,2" d="M308.238,-305.007C310.852,-304.625 313.446,-304.286 316,-304 396.79,-294.958 493.207,-302.433 538.728,-307.041"/>
<polygon fill="#9a32cd" stroke="#9a32cd" points="307.401,-301.598 298.104,-306.678 308.54,-308.505 307.401,-301.598"/>
<text text-anchor="middle" x="330" y="-318" font-family="Helvetica,sans-Serif" font-size="10.00"> Tr</text>
<text text-anchor="middle" x="330" y="-307" font-family="Helvetica,sans-Serif" font-size="10.00">axis</text>
</g>
<!-- Node26 -->
<g id="node26" class="node"><title>Node26</title>
<g id="a_node26"><a xlink:href="a00039.html" target="_top" xlink:title="fcl::ConservativeAdvancement\lStackData">
<polygon fill="white" stroke="black" points="362.5,-24 362.5,-54 513.5,-54 513.5,-24 362.5,-24"/>
<text text-anchor="start" x="370.5" y="-42" font-family="Helvetica,sans-Serif" font-size="10.00">fcl::ConservativeAdvancement</text>
<text text-anchor="middle" x="438" y="-31" font-family="Helvetica,sans-Serif" font-size="10.00">StackData</text>
</a>
</g>
</g>
<!-- Node9&#45;&gt;Node26 -->
<g id="edge32" class="edge"><title>Node9&#45;&gt;Node26</title>
<path fill="none" stroke="#9a32cd" stroke-dasharray="5,2" d="M244.356,-295.85C253.005,-235.079 278.069,-82.9065 316,-51 328.924,-40.1289 345.587,-34.8803 362.389,-32.8018"/>
<polygon fill="#9a32cd" stroke="#9a32cd" points="240.888,-295.375 242.976,-305.762 247.821,-296.34 240.888,-295.375"/>
<text text-anchor="middle" x="330" y="-65" font-family="Helvetica,sans-Serif" font-size="10.00"> P1</text>
<text text-anchor="middle" x="330" y="-54" font-family="Helvetica,sans-Serif" font-size="10.00">P2</text>
</g>
<!-- Node10 -->
<g id="node10" class="node"><title>Node10</title>
<polygon fill="white" stroke="#bfbfbf" points="6.5,-331 6.5,-383 137.5,-383 137.5,-331 6.5,-331"/>
<text text-anchor="start" x="14.5" y="-371" font-family="Helvetica,sans-Serif" font-size="10.00">Matrix&lt; FCL_REAL ,</text>
<text text-anchor="start" x="14.5" y="-360" font-family="Helvetica,sans-Serif" font-size="10.00"> 3, Cols, internal::</text>
<text text-anchor="start" x="14.5" y="-349" font-family="Helvetica,sans-Serif" font-size="10.00">traits&lt;Matrix &lt;FCL_REAL</text>
<text text-anchor="middle" x="72" y="-338" font-family="Helvetica,sans-Serif" font-size="10.00"> , 3, Cols&gt; &gt;::Options &gt;</text>
</g>
<!-- Node10&#45;&gt;Node9 -->
<g id="edge9" class="edge"><title>Node10&#45;&gt;Node9</title>
<path fill="none" stroke="midnightblue" d="M147.655,-340.81C159.123,-338.323 170.805,-335.789 181.814,-333.402"/>
<polygon fill="midnightblue" stroke="midnightblue" points="146.686,-337.438 137.655,-342.978 148.17,-344.279 146.686,-337.438"/>
</g>
<!-- Node11 -->
<g id="node11" class="node"><title>Node11</title>
<g id="a_node11"><a xlink:href="a00073.html" target="_top" xlink:title="fcl::FclType\&lt; FclMatrix\l\&lt; FCL_REAL, Cols, internal\l::traits\&lt; Matrix\&lt; FCL_REAL,\l 3, Cols \&gt; \&gt;::Options \&gt; \&gt;">
<polygon fill="white" stroke="black" points="0.5,-260 0.5,-312 143.5,-312 143.5,-260 0.5,-260"/>
<text text-anchor="start" x="8.5" y="-300" font-family="Helvetica,sans-Serif" font-size="10.00">fcl::FclType&lt; FclMatrix</text>
<text text-anchor="start" x="8.5" y="-289" font-family="Helvetica,sans-Serif" font-size="10.00">&lt; FCL_REAL, Cols, internal</text>
<text text-anchor="start" x="8.5" y="-278" font-family="Helvetica,sans-Serif" font-size="10.00">::traits&lt; Matrix&lt; FCL_REAL,</text>
<text text-anchor="middle" x="72" y="-267" font-family="Helvetica,sans-Serif" font-size="10.00"> 3, Cols &gt; &gt;::Options &gt; &gt;</text>
</a>
</g>
</g>
<!-- Node11&#45;&gt;Node9 -->
<g id="edge10" class="edge"><title>Node11&#45;&gt;Node9</title>
<path fill="none" stroke="midnightblue" d="M153.751,-303.026C163.257,-305.03 172.802,-307.043 181.887,-308.958"/>
<polygon fill="midnightblue" stroke="midnightblue" points="154.387,-299.583 143.88,-300.945 152.943,-306.433 154.387,-299.583"/>
</g>
<!-- Node12&#45;&gt;Node8 -->
<g id="edge11" class="edge"><title>Node12&#45;&gt;Node8</title>
<path fill="none" stroke="#9a32cd" stroke-dasharray="5,2" d="M745.872,-379.282C801.804,-380.482 877.144,-384.651 904,-398 914.709,-403.323 911.963,-411.499 922,-418 927.871,-421.803 934.564,-424.899 941.283,-427.403"/>
<polygon fill="#9a32cd" stroke="#9a32cd" points="745.734,-375.779 735.67,-379.091 745.603,-382.778 745.734,-375.779"/>
<text text-anchor="middle" x="831" y="-412" font-family="Helvetica,sans-Serif" font-size="10.00"> o1</text>
<text text-anchor="middle" x="831" y="-401" font-family="Helvetica,sans-Serif" font-size="10.00">o2</text>
</g>
<!-- Node16 -->
<g id="node16" class="node"><title>Node16</title>
<g id="a_node16"><a xlink:href="a00022.html" target="_top" xlink:title="fcl::BVHModel\&lt; RSS \&gt;">
<polygon fill="white" stroke="black" points="1159.5,-274.5 1159.5,-293.5 1278.5,-293.5 1278.5,-274.5 1159.5,-274.5"/>
<text text-anchor="middle" x="1219" y="-281.5" font-family="Helvetica,sans-Serif" font-size="10.00">fcl::BVHModel&lt; RSS &gt;</text>
</a>
</g>
</g>
<!-- Node12&#45;&gt;Node16 -->
<g id="edge19" class="edge"><title>Node12&#45;&gt;Node16</title>
<path fill="none" stroke="midnightblue" d="M746.098,-374.858C819.1,-369.468 939.839,-358.135 1042,-337 1096.06,-325.816 1157.43,-305.544 1191.54,-293.574"/>
<polygon fill="midnightblue" stroke="midnightblue" points="745.404,-371.399 735.682,-375.611 745.908,-378.381 745.404,-371.399"/>
</g>
<!-- Node13&#45;&gt;Node12 -->
<g id="edge12" class="edge"><title>Node13&#45;&gt;Node12</title>
<path fill="none" stroke="#9a32cd" stroke-dasharray="5,2" d="M478.255,-345.177C510.941,-348.881 558.652,-354.811 600,-362 612.153,-364.113 625.283,-366.811 637.242,-369.433"/>
<polygon fill="#9a32cd" stroke="#9a32cd" points="478.524,-341.685 468.198,-344.054 477.747,-348.642 478.524,-341.685"/>
<text text-anchor="middle" x="566" y="-365" font-family="Helvetica,sans-Serif" font-size="10.00"> aabb_local</text>
</g>
<!-- Node14 -->
<g id="node14" class="node"><title>Node14</title>
<g id="a_node14"><a xlink:href="a00054.html" target="_top" xlink:title="request to the distance computation ">
<polygon fill="white" stroke="black" points="927.5,-389.5 927.5,-408.5 1036.5,-408.5 1036.5,-389.5 927.5,-389.5"/>
<text text-anchor="middle" x="982" y="-396.5" font-family="Helvetica,sans-Serif" font-size="10.00">fcl::DistanceRequest</text>
</a>
</g>
</g>
<!-- Node14&#45;&gt;Node5 -->
<g id="edge15" class="edge"><title>Node14&#45;&gt;Node5</title>
<path fill="none" stroke="#9a32cd" stroke-dasharray="5,2" d="M1046.81,-398.73C1070.46,-399.064 1097.48,-399.956 1122,-402 1134.59,-403.05 1148.04,-404.686 1160.77,-406.475"/>
<polygon fill="#9a32cd" stroke="#9a32cd" points="1046.58,-395.228 1036.55,-398.617 1046.51,-402.227 1046.58,-395.228"/>
<text text-anchor="middle" x="1091" y="-405" font-family="Helvetica,sans-Serif" font-size="10.00"> request</text>
</g>
<!-- Node15&#45;&gt;Node4 -->
<g id="edge16" class="edge"><title>Node15&#45;&gt;Node4</title>
<path fill="none" stroke="#9a32cd" stroke-dasharray="5,2" d="M603.237,-312.7C653.933,-316.239 748.923,-322 830,-322 830,-322 830,-322 1220,-322 1282.09,-322 1352.07,-309.64 1400.75,-299.019"/>
<polygon fill="#9a32cd" stroke="#9a32cd" points="603.335,-309.198 593.112,-311.982 602.839,-316.181 603.335,-309.198"/>
<text text-anchor="middle" x="982" y="-325" font-family="Helvetica,sans-Serif" font-size="10.00"> model1_bv</text>
</g>
<!-- Node16&#45;&gt;Node4 -->
<g id="edge18" class="edge"><title>Node16&#45;&gt;Node4</title>
<path fill="none" stroke="#9a32cd" stroke-dasharray="5,2" d="M1288.69,-284C1317.91,-284 1352.16,-284 1382.47,-284"/>
<polygon fill="#9a32cd" stroke="#9a32cd" points="1288.58,-280.5 1278.58,-284 1288.58,-287.5 1288.58,-280.5"/>
<text text-anchor="middle" x="1340" y="-287" font-family="Helvetica,sans-Serif" font-size="10.00"> model2</text>
</g>
<!-- Node17 -->
<g id="node17" class="node"><title>Node17</title>
<polygon fill="white" stroke="#bfbfbf" points="946.5,-266.5 946.5,-285.5 1017.5,-285.5 1017.5,-266.5 946.5,-266.5"/>
<text text-anchor="middle" x="982" y="-273.5" font-family="Helvetica,sans-Serif" font-size="10.00">noncopyable</text>
</g>
<!-- Node17&#45;&gt;Node16 -->
<g id="edge20" class="edge"><title>Node17&#45;&gt;Node16</title>
<path fill="none" stroke="#8b1a1a" d="M1027.76,-277.524C1065.14,-278.796 1118.7,-280.62 1159.48,-282.008"/>
<polygon fill="#8b1a1a" stroke="#8b1a1a" points="1027.79,-274.023 1017.68,-277.18 1027.55,-281.019 1027.79,-274.023"/>
</g>
<!-- Node18 -->
<g id="node18" class="node"><title>Node18</title>
<g id="a_node18"><a xlink:href="a00245.html" target="_top" xlink:title="Triangle with 3 indices for points. ">
<polygon fill="white" stroke="black" points="948,-222.5 948,-241.5 1016,-241.5 1016,-222.5 948,-222.5"/>
<text text-anchor="middle" x="982" y="-229.5" font-family="Helvetica,sans-Serif" font-size="10.00">fcl::Triangle</text>
</a>
</g>
</g>
<!-- Node18&#45;&gt;Node3 -->
<g id="edge27" class="edge"><title>Node18&#45;&gt;Node3</title>
<path fill="none" stroke="#9a32cd" stroke-dasharray="5,2" d="M1026.12,-228.929C1126.54,-221.62 1383.76,-201.999 1598,-178 1603.94,-177.335 1610.05,-176.611 1616.21,-175.852"/>
<polygon fill="#9a32cd" stroke="#9a32cd" points="1025.78,-225.444 1016.06,-229.658 1026.28,-232.426 1025.78,-225.444"/>
<text text-anchor="middle" x="1340" y="-209" font-family="Helvetica,sans-Serif" font-size="10.00"> tri_indices</text>
</g>
<!-- Node18&#45;&gt;Node16 -->
<g id="edge21" class="edge"><title>Node18&#45;&gt;Node16</title>
<path fill="none" stroke="#9a32cd" stroke-dasharray="5,2" d="M1026.18,-241.554C1068.53,-250.927 1132.75,-265.136 1175.03,-274.492"/>
<polygon fill="#9a32cd" stroke="#9a32cd" points="1026.69,-238.083 1016.17,-239.34 1025.18,-244.918 1026.69,-238.083"/>
<text text-anchor="middle" x="1091" y="-266" font-family="Helvetica,sans-Serif" font-size="10.00"> tri_indices</text>
</g>
<!-- Node19 -->
<g id="node19" class="node"><title>Node19</title>
<g id="a_node19"><a xlink:href="a00069.html" target="_top" xlink:title="Vector3 class wrapper. The core data is in the template parameter class. ">
<polygon fill="white" stroke="black" points="929,-152 929,-182 1035,-182 1035,-152 929,-152"/>
<text text-anchor="start" x="937" y="-170" font-family="Helvetica,sans-Serif" font-size="10.00">Eigen::FclMatrix&lt; T,</text>
<text text-anchor="middle" x="982" y="-159" font-family="Helvetica,sans-Serif" font-size="10.00"> Cols, _Options &gt;</text>
</a>
</g>
</g>
<!-- Node19&#45;&gt;Node3 -->
<g id="edge28" class="edge"><title>Node19&#45;&gt;Node3</title>
<path fill="none" stroke="#9a32cd" stroke-dasharray="5,2" d="M1045.17,-166.657C1173.13,-165.951 1466.52,-164.332 1616.33,-163.506"/>
<polygon fill="#9a32cd" stroke="#9a32cd" points="1045.12,-163.157 1035.14,-166.712 1045.16,-170.157 1045.12,-163.157"/>
<text text-anchor="middle" x="1340" y="-169" font-family="Helvetica,sans-Serif" font-size="10.00"> vertices</text>
</g>
<!-- Node19&#45;&gt;Node16 -->
<g id="edge22" class="edge"><title>Node19&#45;&gt;Node16</title>
<path fill="none" stroke="#9a32cd" stroke-dasharray="5,2" d="M1044.76,-181.762C1071.2,-190.655 1100.8,-204.376 1122,-225 1135.97,-238.594 1125.01,-252.539 1140,-265 1145.68,-269.722 1152.35,-273.303 1159.36,-276.013"/>
<polygon fill="#9a32cd" stroke="#9a32cd" points="1045.77,-178.412 1035.18,-178.7 1043.64,-185.079 1045.77,-178.412"/>
<text text-anchor="middle" x="1091" y="-239" font-family="Helvetica,sans-Serif" font-size="10.00"> prev_vertices</text>
<text text-anchor="middle" x="1091" y="-228" font-family="Helvetica,sans-Serif" font-size="10.00">vertices</text>
</g>
<!-- Node20 -->
<g id="node20" class="node"><title>Node20</title>
<polygon fill="white" stroke="#bfbfbf" points="627,-183 627,-213 731,-213 731,-183 627,-183"/>
<text text-anchor="start" x="635" y="-201" font-family="Helvetica,sans-Serif" font-size="10.00">Eigen::Matrix&lt; T, 3,</text>
<text text-anchor="middle" x="679" y="-190" font-family="Helvetica,sans-Serif" font-size="10.00"> Cols, _Options &gt;</text>
</g>
<!-- Node20&#45;&gt;Node19 -->
<g id="edge23" class="edge"><title>Node20&#45;&gt;Node19</title>
<path fill="none" stroke="midnightblue" d="M741.064,-191.711C796.279,-186.024 876.694,-177.742 928.931,-172.363"/>
<polygon fill="midnightblue" stroke="midnightblue" points="740.649,-188.235 731.061,-192.741 741.367,-195.198 740.649,-188.235"/>
</g>
<!-- Node21 -->
<g id="node21" class="node"><title>Node21</title>
<g id="a_node21"><a xlink:href="a00073.html" target="_top" xlink:title="fcl::FclType\&lt; FclMatrix\l\&lt; T, Cols, _Options \&gt; \&gt;">
<polygon fill="white" stroke="black" points="618.5,-134 618.5,-164 739.5,-164 739.5,-134 618.5,-134"/>
<text text-anchor="start" x="626.5" y="-152" font-family="Helvetica,sans-Serif" font-size="10.00">fcl::FclType&lt; FclMatrix</text>
<text text-anchor="middle" x="679" y="-141" font-family="Helvetica,sans-Serif" font-size="10.00">&lt; T, Cols, _Options &gt; &gt;</text>
</a>
</g>
</g>
<!-- Node21&#45;&gt;Node19 -->
<g id="edge24" class="edge"><title>Node21&#45;&gt;Node19</title>
<path fill="none" stroke="midnightblue" d="M750.129,-153.194C804.757,-156.461 879.377,-160.923 928.821,-163.88"/>
<polygon fill="midnightblue" stroke="midnightblue" points="750.019,-149.681 739.828,-152.578 749.601,-156.669 750.019,-149.681"/>
</g>
<!-- Node22 -->
<g id="node22" class="node"><title>Node22</title>
<polygon fill="white" stroke="#bfbfbf" points="1204.5,-236.5 1204.5,-255.5 1233.5,-255.5 1233.5,-236.5 1204.5,-236.5"/>
<text text-anchor="middle" x="1219" y="-243.5" font-family="Helvetica,sans-Serif" font-size="10.00">S</text>
</g>
<!-- Node22&#45;&gt;Node4 -->
<g id="edge25" class="edge"><title>Node22&#45;&gt;Node4</title>
<path fill="none" stroke="#9a32cd" stroke-dasharray="5,2" d="M1243.84,-249.744C1275.77,-254.757 1333.98,-263.898 1382.25,-271.478"/>
<polygon fill="#9a32cd" stroke="#9a32cd" points="1244.13,-246.246 1233.7,-248.152 1243.04,-253.161 1244.13,-246.246"/>
<text text-anchor="middle" x="1340" y="-272" font-family="Helvetica,sans-Serif" font-size="10.00"> model1</text>
</g>
<!-- Node23 -->
<g id="node23" class="node"><title>Node23</title>
<polygon fill="white" stroke="#bfbfbf" points="1411,-115.5 1411,-134.5 1515,-134.5 1515,-115.5 1411,-115.5"/>
<text text-anchor="middle" x="1463" y="-122.5" font-family="Helvetica,sans-Serif" font-size="10.00">NarrowPhaseSolver</text>
</g>
<!-- Node23&#45;&gt;Node3 -->
<g id="edge26" class="edge"><title>Node23&#45;&gt;Node3</title>
<path fill="none" stroke="#9a32cd" stroke-dasharray="5,2" d="M1525.36,-129.308C1548.24,-131.346 1574.39,-134.187 1598,-138 1614.43,-140.654 1632.08,-144.301 1648.33,-147.99"/>
<polygon fill="#9a32cd" stroke="#9a32cd" points="1525.36,-125.795 1515.1,-128.427 1524.76,-132.769 1525.36,-125.795"/>
<text text-anchor="middle" x="1580" y="-141" font-family="Helvetica,sans-Serif" font-size="10.00"> nsolver</text>
</g>
<!-- Node24 -->
<g id="node24" class="node"><title>Node24</title>
<g id="a_node24"><a xlink:href="a00144.html" target="_top" xlink:title="fcl::MotionBase">
<polygon fill="white" stroke="black" points="1666.5,-39.5 1666.5,-58.5 1751.5,-58.5 1751.5,-39.5 1666.5,-39.5"/>
<text text-anchor="middle" x="1709" y="-46.5" font-family="Helvetica,sans-Serif" font-size="10.00">fcl::MotionBase</text>
</a>
</g>
</g>
<!-- Node24&#45;&gt;Node2 -->
<g id="edge29" class="edge"><title>Node24&#45;&gt;Node2</title>
<path fill="none" stroke="#9a32cd" stroke-dasharray="5,2" d="M1761.69,-47.6993C1790.16,-47.485 1826.1,-48.0361 1858,-51 1864.02,-51.5591 1870.22,-52.283 1876.45,-53.1164"/>
<polygon fill="#9a32cd" stroke="#9a32cd" points="1761.52,-44.2009 1751.56,-47.8099 1761.6,-51.2005 1761.52,-44.2009"/>
<text text-anchor="middle" x="1839" y="-65" font-family="Helvetica,sans-Serif" font-size="10.00"> motion1</text>
<text text-anchor="middle" x="1839" y="-54" font-family="Helvetica,sans-Serif" font-size="10.00">motion2</text>
</g>
<!-- Node25 -->
<g id="node25" class="node"><title>Node25</title>
<polygon fill="white" stroke="#bfbfbf" points="758,-0 758,-30 904,-30 904,-0 758,-0"/>
<text text-anchor="start" x="766" y="-18" font-family="Helvetica,sans-Serif" font-size="10.00">std::vector&lt; fcl::Conservative</text>
<text text-anchor="middle" x="831" y="-7" font-family="Helvetica,sans-Serif" font-size="10.00">AdvancementStackData &gt;</text>
</g>
<!-- Node25&#45;&gt;Node2 -->
<g id="edge30" class="edge"><title>Node25&#45;&gt;Node2</title>
<path fill="none" stroke="#9a32cd" stroke-dasharray="5,2" d="M914.248,-13.0752C964.92,-12.0508 1031.22,-11 1090,-11 1090,-11 1090,-11 1710,-11 1776.64,-11 1850.87,-31.0947 1900.18,-47.4217"/>
<polygon fill="#9a32cd" stroke="#9a32cd" points="913.93,-9.58092 904.005,-13.2862 914.075,-16.5794 913.93,-9.58092"/>
<text text-anchor="middle" x="1340" y="-14" font-family="Helvetica,sans-Serif" font-size="10.00"> stack</text>
</g>
<!-- Node26&#45;&gt;Node25 -->
<g id="edge31" class="edge"><title>Node26&#45;&gt;Node25</title>
<path fill="none" stroke="#9a32cd" stroke-dasharray="5,2" d="M524.029,-33.7808C593.931,-29.4902 691.882,-23.4778 757.969,-19.4214"/>
<polygon fill="#9a32cd" stroke="#9a32cd" points="523.693,-30.2948 513.926,-34.401 524.122,-37.2816 523.693,-30.2948"/>
<text text-anchor="middle" x="566" y="-36" font-family="Helvetica,sans-Serif" font-size="10.00"> elements</text>
</g>
</g>
</svg>
