<?xml version="1.0" encoding="UTF-8" standalone="no"?>
<!DOCTYPE svg PUBLIC "-//W3C//DTD SVG 1.1//EN"
 "http://www.w3.org/Graphics/SVG/1.1/DTD/svg11.dtd">
<!-- Generated by graphviz version 2.36.0 (20140111.2315)
 -->
<!-- Title: fcl::SamplerSE2 Pages: 1 -->
<svg width="240pt" height="242pt"
 viewBox="0.00 0.00 240.00 242.00" xmlns="http://www.w3.org/2000/svg" xmlns:xlink="http://www.w3.org/1999/xlink">
<g id="graph0" class="graph" transform="scale(1 1) rotate(0) translate(4 238)">
<title>fcl::SamplerSE2</title>
<polygon fill="white" stroke="none" points="-4,4 -4,-238 236,-238 236,4 -4,4"/>
<!-- Node1 -->
<g id="node1" class="node"><title>Node1</title>
<polygon fill="#bfbfbf" stroke="black" points="64,-0.5 64,-19.5 152,-19.5 152,-0.5 64,-0.5"/>
<text text-anchor="middle" x="108" y="-7.5" font-family="Helvetica,sans-Serif" font-size="10.00">fcl::SamplerSE2</text>
</g>
<!-- Node2 -->
<g id="node2" class="node"><title>Node2</title>
<g id="a_node2"><a xlink:href="a00182.html" target="_top" xlink:title="fcl::SamplerBase">
<polygon fill="white" stroke="black" points="0,-78.5 0,-97.5 92,-97.5 92,-78.5 0,-78.5"/>
<text text-anchor="middle" x="46" y="-85.5" font-family="Helvetica,sans-Serif" font-size="10.00">fcl::SamplerBase</text>
</a>
</g>
</g>
<!-- Node2&#45;&gt;Node1 -->
<g id="edge1" class="edge"><title>Node2&#45;&gt;Node1</title>
<path fill="none" stroke="midnightblue" d="M59.5077,-70.4421C72.2751,-54.7918 90.927,-31.9282 100.971,-19.6165"/>
<polygon fill="midnightblue" stroke="midnightblue" points="56.7215,-68.3207 53.1122,-78.2818 62.1455,-72.7456 56.7215,-68.3207"/>
</g>
<!-- Node3 -->
<g id="node3" class="node"><title>Node3</title>
<g id="a_node3"><a xlink:href="a00180.html" target="_top" xlink:title="Random number generation. ">
<polygon fill="white" stroke="black" points="15,-146.5 15,-165.5 71,-165.5 71,-146.5 15,-146.5"/>
<text text-anchor="middle" x="43" y="-153.5" font-family="Helvetica,sans-Serif" font-size="10.00">fcl::RNG</text>
</a>
</g>
</g>
<!-- Node3&#45;&gt;Node2 -->
<g id="edge2" class="edge"><title>Node3&#45;&gt;Node2</title>
<path fill="none" stroke="#9a32cd" stroke-dasharray="5,2" d="M43.8618,-136.041C44.4331,-123.472 45.1562,-107.563 45.5981,-97.8411"/>
<polygon fill="#9a32cd" stroke="#9a32cd" points="40.35,-136.223 43.3922,-146.372 47.3428,-136.541 40.35,-136.223"/>
<text text-anchor="middle" x="53.5" y="-119.5" font-family="Helvetica,sans-Serif" font-size="10.00"> rng</text>
</g>
<!-- Node4 -->
<g id="node4" class="node"><title>Node4</title>
<g id="a_node4"><a xlink:href="a00256.html" target="_top" xlink:title="fcl::Vecnf\&lt; 2 \&gt;">
<polygon fill="white" stroke="black" points="112,-78.5 112,-97.5 194,-97.5 194,-78.5 112,-78.5"/>
<text text-anchor="middle" x="153" y="-85.5" font-family="Helvetica,sans-Serif" font-size="10.00">fcl::Vecnf&lt; 2 &gt;</text>
</a>
</g>
</g>
<!-- Node4&#45;&gt;Node1 -->
<g id="edge3" class="edge"><title>Node4&#45;&gt;Node1</title>
<path fill="none" stroke="#9a32cd" stroke-dasharray="5,2" d="M142.677,-69.5654C133.43,-53.9486 120.257,-31.7002 113.102,-19.6165"/>
<polygon fill="#9a32cd" stroke="#9a32cd" points="139.731,-71.4603 147.838,-78.2818 145.755,-67.8938 139.731,-71.4603"/>
<text text-anchor="middle" x="164.5" y="-52" font-family="Helvetica,sans-Serif" font-size="10.00"> upper_bound</text>
<text text-anchor="middle" x="164.5" y="-41" font-family="Helvetica,sans-Serif" font-size="10.00">lower_bound</text>
</g>
<!-- Node5 -->
<g id="node5" class="node"><title>Node5</title>
<g id="a_node5"><a xlink:href="a00255.html" target="_top" xlink:title="fcl::Vec_n\&lt; FCL_REAL, N \&gt;">
<polygon fill="white" stroke="black" points="89.5,-146.5 89.5,-165.5 232.5,-165.5 232.5,-146.5 89.5,-146.5"/>
<text text-anchor="middle" x="161" y="-153.5" font-family="Helvetica,sans-Serif" font-size="10.00">fcl::Vec_n&lt; FCL_REAL, N &gt;</text>
</a>
</g>
</g>
<!-- Node5&#45;&gt;Node4 -->
<g id="edge4" class="edge"><title>Node5&#45;&gt;Node4</title>
<path fill="none" stroke="midnightblue" d="M158.748,-136.425C157.218,-123.798 155.262,-107.662 154.072,-97.8411"/>
<polygon fill="midnightblue" stroke="midnightblue" points="155.276,-136.866 159.954,-146.372 162.225,-136.023 155.276,-136.866"/>
</g>
<!-- Node6 -->
<g id="node6" class="node"><title>Node6</title>
<polygon fill="white" stroke="#bfbfbf" points="95.5,-214.5 95.5,-233.5 226.5,-233.5 226.5,-214.5 95.5,-214.5"/>
<text text-anchor="middle" x="161" y="-221.5" font-family="Helvetica,sans-Serif" font-size="10.00">std::vector&lt; FCL_REAL &gt;</text>
</g>
<!-- Node6&#45;&gt;Node5 -->
<g id="edge5" class="edge"><title>Node6&#45;&gt;Node5</title>
<path fill="none" stroke="#9a32cd" stroke-dasharray="5,2" d="M161,-204.041C161,-191.472 161,-175.563 161,-165.841"/>
<polygon fill="#9a32cd" stroke="#9a32cd" points="157.5,-204.372 161,-214.372 164.5,-204.372 157.5,-204.372"/>
<text text-anchor="middle" x="172" y="-187.5" font-family="Helvetica,sans-Serif" font-size="10.00"> data</text>
</g>
</g>
</svg>
