<?xml version="1.0" encoding="UTF-8" standalone="no"?>
<!DOCTYPE svg PUBLIC "-//W3C//DTD SVG 1.1//EN"
 "http://www.w3.org/Graphics/SVG/1.1/DTD/svg11.dtd">
<!-- Generated by graphviz version 2.36.0 (20140111.2315)
 -->
<!-- Title: fcl::ShapeMeshConservativeAdvancementTraversalNode&lt; S, BV, NarrowPhaseSolver &gt; Pages: 1 -->
<svg width="2028pt" height="291pt"
 viewBox="0.00 0.00 2028.00 291.00" xmlns="http://www.w3.org/2000/svg" xmlns:xlink="http://www.w3.org/1999/xlink">
<g id="graph0" class="graph" transform="scale(1 1) rotate(0) translate(4 287)">
<title>fcl::ShapeMeshConservativeAdvancementTraversalNode&lt; S, BV, NarrowPhaseSolver &gt;</title>
<polygon fill="white" stroke="none" points="-4,4 -4,-287 2024,-287 2024,4 -4,4"/>
<!-- Node1 -->
<g id="node1" class="node"><title>Node1</title>
<polygon fill="#bfbfbf" stroke="black" points="1866,-181.5 1866,-222.5 2020,-222.5 2020,-181.5 1866,-181.5"/>
<text text-anchor="start" x="1874" y="-210.5" font-family="Helvetica,sans-Serif" font-size="10.00">fcl::ShapeMeshConservative</text>
<text text-anchor="start" x="1874" y="-199.5" font-family="Helvetica,sans-Serif" font-size="10.00">AdvancementTraversalNode</text>
<text text-anchor="middle" x="1943" y="-188.5" font-family="Helvetica,sans-Serif" font-size="10.00">&lt; S, BV, NarrowPhaseSolver &gt;</text>
</g>
<!-- Node2 -->
<g id="node2" class="node"><title>Node2</title>
<g id="a_node2"><a xlink:href="a00212.html" target="_top" xlink:title="Traversal node for distance between shape and mesh. ">
<polygon fill="white" stroke="black" points="1614.5,-150 1614.5,-180 1791.5,-180 1791.5,-150 1614.5,-150"/>
<text text-anchor="start" x="1622.5" y="-168" font-family="Helvetica,sans-Serif" font-size="10.00">fcl::ShapeMeshDistanceTraversal</text>
<text text-anchor="middle" x="1703" y="-157" font-family="Helvetica,sans-Serif" font-size="10.00">Node&lt; S, BV, NarrowPhaseSolver &gt;</text>
</a>
</g>
</g>
<!-- Node2&#45;&gt;Node1 -->
<g id="edge1" class="edge"><title>Node2&#45;&gt;Node1</title>
<path fill="none" stroke="midnightblue" d="M1801.71,-180.19C1823.13,-183.521 1845.51,-187 1865.94,-190.176"/>
<polygon fill="midnightblue" stroke="midnightblue" points="1802.03,-176.698 1791.61,-178.62 1800.95,-183.615 1802.03,-176.698"/>
</g>
<!-- Node3 -->
<g id="node3" class="node"><title>Node3</title>
<g id="a_node3"><a xlink:href="a00200.html" target="_top" xlink:title="Traversal node for distance computation between shape and BVH. ">
<polygon fill="white" stroke="black" points="1368.5,-71 1368.5,-101 1529.5,-101 1529.5,-71 1368.5,-71"/>
<text text-anchor="start" x="1376.5" y="-89" font-family="Helvetica,sans-Serif" font-size="10.00">fcl::ShapeBVHDistanceTraversal</text>
<text text-anchor="middle" x="1449" y="-78" font-family="Helvetica,sans-Serif" font-size="10.00">Node&lt; S, BV &gt;</text>
</a>
</g>
</g>
<!-- Node3&#45;&gt;Node2 -->
<g id="edge2" class="edge"><title>Node3&#45;&gt;Node2</title>
<path fill="none" stroke="midnightblue" d="M1503.64,-104.281C1535.58,-115.014 1576.99,-128.655 1614,-140 1624.78,-143.305 1636.35,-146.7 1647.44,-149.88"/>
<polygon fill="midnightblue" stroke="midnightblue" points="1504.64,-100.924 1494.04,-101.049 1502.4,-107.558 1504.64,-100.924"/>
</g>
<!-- Node4 -->
<g id="node4" class="node"><title>Node4</title>
<g id="a_node4"><a xlink:href="a00056.html" target="_top" xlink:title="Node structure encoding the information required for distance traversal. ">
<polygon fill="white" stroke="black" points="1122,-38.5 1122,-57.5 1280,-57.5 1280,-38.5 1122,-38.5"/>
<text text-anchor="middle" x="1201" y="-45.5" font-family="Helvetica,sans-Serif" font-size="10.00">fcl::DistanceTraversalNodeBase</text>
</a>
</g>
</g>
<!-- Node4&#45;&gt;Node3 -->
<g id="edge3" class="edge"><title>Node4&#45;&gt;Node3</title>
<path fill="none" stroke="midnightblue" d="M1273.98,-59.1193C1303.49,-63.6774 1337.76,-68.971 1368.04,-73.6492"/>
<polygon fill="midnightblue" stroke="midnightblue" points="1274.18,-55.6077 1263.76,-57.54 1273.11,-62.5256 1274.18,-55.6077"/>
</g>
<!-- Node5 -->
<g id="node5" class="node"><title>Node5</title>
<g id="a_node5"><a xlink:href="a00244.html" target="_top" xlink:title="Node structure encoding the information required for traversal. ">
<polygon fill="white" stroke="black" points="914.5,-135.5 914.5,-154.5 1033.5,-154.5 1033.5,-135.5 914.5,-135.5"/>
<text text-anchor="middle" x="974" y="-142.5" font-family="Helvetica,sans-Serif" font-size="10.00">fcl::TraversalNodeBase</text>
</a>
</g>
</g>
<!-- Node5&#45;&gt;Node4 -->
<g id="edge4" class="edge"><title>Node5&#45;&gt;Node4</title>
<path fill="none" stroke="midnightblue" d="M1016.56,-132.003C1043.16,-122.442 1077.51,-107.685 1104,-88 1113.87,-80.6675 1111.52,-73.431 1122,-67 1128.3,-63.1355 1135.33,-60.0567 1142.52,-57.604"/>
<polygon fill="midnightblue" stroke="midnightblue" points="1015.07,-128.816 1006.78,-135.413 1017.38,-135.426 1015.07,-128.816"/>
</g>
<!-- Node6 -->
<g id="node6" class="node"><title>Node6</title>
<g id="a_node6"><a xlink:href="a00242.html" target="_top" xlink:title="Simple transform class used locally by InterpMotion. ">
<polygon fill="white" stroke="black" points="632,-150.5 632,-169.5 718,-169.5 718,-150.5 632,-150.5"/>
<text text-anchor="middle" x="675" y="-157.5" font-family="Helvetica,sans-Serif" font-size="10.00">fcl::Transform3f</text>
</a>
</g>
</g>
<!-- Node6&#45;&gt;Node5 -->
<g id="edge5" class="edge"><title>Node6&#45;&gt;Node5</title>
<path fill="none" stroke="#9a32cd" stroke-dasharray="5,2" d="M728.262,-157.36C780.314,-154.732 860.075,-150.703 914.283,-147.966"/>
<polygon fill="#9a32cd" stroke="#9a32cd" points="728.048,-153.867 718.237,-157.867 728.401,-160.858 728.048,-153.867"/>
<text text-anchor="middle" x="823" y="-170" font-family="Helvetica,sans-Serif" font-size="10.00"> tf1</text>
<text text-anchor="middle" x="823" y="-159" font-family="Helvetica,sans-Serif" font-size="10.00">tf2</text>
</g>
<!-- Node7 -->
<g id="node7" class="node"><title>Node7</title>
<g id="a_node7"><a xlink:href="a00055.html" target="_top" xlink:title="distance result ">
<polygon fill="white" stroke="black" points="923.5,-38.5 923.5,-57.5 1024.5,-57.5 1024.5,-38.5 923.5,-38.5"/>
<text text-anchor="middle" x="974" y="-45.5" font-family="Helvetica,sans-Serif" font-size="10.00">fcl::DistanceResult</text>
</a>
</g>
</g>
<!-- Node7&#45;&gt;Node4 -->
<g id="edge6" class="edge"><title>Node7&#45;&gt;Node4</title>
<path fill="none" stroke="#9a32cd" stroke-dasharray="5,2" d="M1034.97,-48C1061.6,-48 1093.28,-48 1121.74,-48"/>
<polygon fill="#9a32cd" stroke="#9a32cd" points="1034.66,-44.5001 1024.66,-48 1034.66,-51.5001 1034.66,-44.5001"/>
<text text-anchor="middle" x="1078" y="-51" font-family="Helvetica,sans-Serif" font-size="10.00"> result</text>
</g>
<!-- Node8 -->
<g id="node8" class="node"><title>Node8</title>
<g id="a_node8"><a xlink:href="a00069.html" target="_top" xlink:title="Eigen::FclMatrix\&lt; FCL\l_REAL, 1 \&gt;">
<polygon fill="white" stroke="black" points="182,-107 182,-137 298,-137 298,-107 182,-107"/>
<text text-anchor="start" x="190" y="-125" font-family="Helvetica,sans-Serif" font-size="10.00">Eigen::FclMatrix&lt; FCL</text>
<text text-anchor="middle" x="240" y="-114" font-family="Helvetica,sans-Serif" font-size="10.00">_REAL, 1 &gt;</text>
</a>
</g>
</g>
<!-- Node8&#45;&gt;Node1 -->
<g id="edge26" class="edge"><title>Node8&#45;&gt;Node1</title>
<path fill="none" stroke="#9a32cd" stroke-dasharray="5,2" d="M257.954,-145.459C288.758,-185.083 358.077,-261 437,-261 437,-261 437,-261 1704,-261 1769.56,-261 1842.37,-239.649 1889.98,-222.635"/>
<polygon fill="#9a32cd" stroke="#9a32cd" points="260.472,-142.988 251.638,-137.14 254.897,-147.221 260.472,-142.988"/>
<text text-anchor="middle" x="1078" y="-275" font-family="Helvetica,sans-Serif" font-size="10.00"> closest_p1</text>
<text text-anchor="middle" x="1078" y="-264" font-family="Helvetica,sans-Serif" font-size="10.00">closest_p2</text>
</g>
<!-- Node8&#45;&gt;Node7 -->
<g id="edge7" class="edge"><title>Node8&#45;&gt;Node7</title>
<path fill="none" stroke="#9a32cd" stroke-dasharray="5,2" d="M308.547,-123.939C428.514,-125.867 685.908,-123.154 896,-74 904.358,-72.0445 905.911,-69.8724 914,-67 923.127,-63.7591 933.128,-60.4486 942.262,-57.518"/>
<polygon fill="#9a32cd" stroke="#9a32cd" points="308.472,-120.437 298.412,-123.759 308.348,-127.436 308.472,-120.437"/>
<text text-anchor="middle" x="566" y="-123" font-family="Helvetica,sans-Serif" font-size="10.00"> nearest_points</text>
</g>
<!-- Node11 -->
<g id="node11" class="node"><title>Node11</title>
<g id="a_node11"><a xlink:href="a00032.html" target="_top" xlink:title="The geometry for the object for collision or distance computation. ">
<polygon fill="white" stroke="black" points="618.5,-38.5 618.5,-57.5 731.5,-57.5 731.5,-38.5 618.5,-38.5"/>
<text text-anchor="middle" x="675" y="-45.5" font-family="Helvetica,sans-Serif" font-size="10.00">fcl::CollisionGeometry</text>
</a>
</g>
</g>
<!-- Node8&#45;&gt;Node11 -->
<g id="edge13" class="edge"><title>Node8&#45;&gt;Node11</title>
<path fill="none" stroke="#9a32cd" stroke-dasharray="5,2" d="M308.241,-107.491C325.712,-103.89 344.532,-100.16 362,-97 467.338,-77.942 494.277,-76.79 600,-60 605.913,-59.061 612.09,-58.072 618.246,-57.0813"/>
<polygon fill="#9a32cd" stroke="#9a32cd" points="307.209,-104.13 298.13,-109.591 308.633,-110.984 307.209,-104.13"/>
<text text-anchor="middle" x="438" y="-100" font-family="Helvetica,sans-Serif" font-size="10.00"> aabb_center</text>
</g>
<!-- Node12 -->
<g id="node12" class="node"><title>Node12</title>
<g id="a_node12"><a xlink:href="a00003.html" target="_top" xlink:title="A class describing the AABB collision structure, which is a box in 3D space determined by two diagona...">
<polygon fill="white" stroke="black" points="408,-27.5 408,-46.5 468,-46.5 468,-27.5 408,-27.5"/>
<text text-anchor="middle" x="438" y="-34.5" font-family="Helvetica,sans-Serif" font-size="10.00">fcl::AABB</text>
</a>
</g>
</g>
<!-- Node8&#45;&gt;Node12 -->
<g id="edge12" class="edge"><title>Node8&#45;&gt;Node12</title>
<path fill="none" stroke="#9a32cd" stroke-dasharray="5,2" d="M257.105,-98.6526C270.616,-81.1374 291.591,-58.3106 316,-47 345.07,-33.5294 382.277,-32.5298 407.709,-33.9407"/>
<polygon fill="#9a32cd" stroke="#9a32cd" points="254.243,-96.636 251.089,-106.751 259.862,-100.81 254.243,-96.636"/>
<text text-anchor="middle" x="330" y="-61" font-family="Helvetica,sans-Serif" font-size="10.00"> max_</text>
<text text-anchor="middle" x="330" y="-50" font-family="Helvetica,sans-Serif" font-size="10.00">min_</text>
</g>
<!-- Node23 -->
<g id="node23" class="node"><title>Node23</title>
<g id="a_node23"><a xlink:href="a00039.html" target="_top" xlink:title="fcl::ConservativeAdvancement\lStackData">
<polygon fill="white" stroke="black" points="362.5,-177 362.5,-207 513.5,-207 513.5,-177 362.5,-177"/>
<text text-anchor="start" x="370.5" y="-195" font-family="Helvetica,sans-Serif" font-size="10.00">fcl::ConservativeAdvancement</text>
<text text-anchor="middle" x="438" y="-184" font-family="Helvetica,sans-Serif" font-size="10.00">StackData</text>
</a>
</g>
</g>
<!-- Node8&#45;&gt;Node23 -->
<g id="edge25" class="edge"><title>Node8&#45;&gt;Node23</title>
<path fill="none" stroke="#9a32cd" stroke-dasharray="5,2" d="M292.63,-140.439C324.454,-151.805 364.755,-166.198 394.685,-176.887"/>
<polygon fill="#9a32cd" stroke="#9a32cd" points="293.642,-137.084 283.047,-137.017 291.287,-143.676 293.642,-137.084"/>
<text text-anchor="middle" x="330" y="-171" font-family="Helvetica,sans-Serif" font-size="10.00"> P1</text>
<text text-anchor="middle" x="330" y="-160" font-family="Helvetica,sans-Serif" font-size="10.00">P2</text>
</g>
<!-- Node9 -->
<g id="node9" class="node"><title>Node9</title>
<polygon fill="white" stroke="#bfbfbf" points="6.5,-132 6.5,-184 137.5,-184 137.5,-132 6.5,-132"/>
<text text-anchor="start" x="14.5" y="-172" font-family="Helvetica,sans-Serif" font-size="10.00">Matrix&lt; FCL_REAL ,</text>
<text text-anchor="start" x="14.5" y="-161" font-family="Helvetica,sans-Serif" font-size="10.00"> 3, Cols, internal::</text>
<text text-anchor="start" x="14.5" y="-150" font-family="Helvetica,sans-Serif" font-size="10.00">traits&lt;Matrix &lt;FCL_REAL</text>
<text text-anchor="middle" x="72" y="-139" font-family="Helvetica,sans-Serif" font-size="10.00"> , 3, Cols&gt; &gt;::Options &gt;</text>
</g>
<!-- Node9&#45;&gt;Node8 -->
<g id="edge8" class="edge"><title>Node9&#45;&gt;Node8</title>
<path fill="none" stroke="midnightblue" d="M147.655,-141.81C159.123,-139.323 170.805,-136.789 181.814,-134.402"/>
<polygon fill="midnightblue" stroke="midnightblue" points="146.686,-138.438 137.655,-143.978 148.17,-145.279 146.686,-138.438"/>
</g>
<!-- Node10 -->
<g id="node10" class="node"><title>Node10</title>
<g id="a_node10"><a xlink:href="a00073.html" target="_top" xlink:title="fcl::FclType\&lt; FclMatrix\l\&lt; FCL_REAL, Cols, internal\l::traits\&lt; Matrix\&lt; FCL_REAL,\l 3, Cols \&gt; \&gt;::Options \&gt; \&gt;">
<polygon fill="white" stroke="black" points="0.5,-61 0.5,-113 143.5,-113 143.5,-61 0.5,-61"/>
<text text-anchor="start" x="8.5" y="-101" font-family="Helvetica,sans-Serif" font-size="10.00">fcl::FclType&lt; FclMatrix</text>
<text text-anchor="start" x="8.5" y="-90" font-family="Helvetica,sans-Serif" font-size="10.00">&lt; FCL_REAL, Cols, internal</text>
<text text-anchor="start" x="8.5" y="-79" font-family="Helvetica,sans-Serif" font-size="10.00">::traits&lt; Matrix&lt; FCL_REAL,</text>
<text text-anchor="middle" x="72" y="-68" font-family="Helvetica,sans-Serif" font-size="10.00"> 3, Cols &gt; &gt;::Options &gt; &gt;</text>
</a>
</g>
</g>
<!-- Node10&#45;&gt;Node8 -->
<g id="edge9" class="edge"><title>Node10&#45;&gt;Node8</title>
<path fill="none" stroke="midnightblue" d="M153.751,-104.026C163.257,-106.03 172.802,-108.043 181.887,-109.958"/>
<polygon fill="midnightblue" stroke="midnightblue" points="154.387,-100.583 143.88,-101.945 152.943,-107.433 154.387,-100.583"/>
</g>
<!-- Node11&#45;&gt;Node7 -->
<g id="edge10" class="edge"><title>Node11&#45;&gt;Node7</title>
<path fill="none" stroke="#9a32cd" stroke-dasharray="5,2" d="M741.819,-48C796.598,-48 873.41,-48 923.189,-48"/>
<polygon fill="#9a32cd" stroke="#9a32cd" points="741.515,-44.5001 731.515,-48 741.515,-51.5001 741.515,-44.5001"/>
<text text-anchor="middle" x="823" y="-62" font-family="Helvetica,sans-Serif" font-size="10.00"> o1</text>
<text text-anchor="middle" x="823" y="-51" font-family="Helvetica,sans-Serif" font-size="10.00">o2</text>
</g>
<!-- Node12&#45;&gt;Node11 -->
<g id="edge11" class="edge"><title>Node12&#45;&gt;Node11</title>
<path fill="none" stroke="#9a32cd" stroke-dasharray="5,2" d="M478.524,-38.8501C516.815,-40.6424 575.244,-43.3774 618.252,-45.3905"/>
<polygon fill="#9a32cd" stroke="#9a32cd" points="478.441,-35.3424 468.288,-38.3709 478.113,-42.3348 478.441,-35.3424"/>
<text text-anchor="middle" x="566" y="-48" font-family="Helvetica,sans-Serif" font-size="10.00"> aabb_local</text>
</g>
<!-- Node13 -->
<g id="node13" class="node"><title>Node13</title>
<g id="a_node13"><a xlink:href="a00054.html" target="_top" xlink:title="request to the distance computation ">
<polygon fill="white" stroke="black" points="919.5,-76.5 919.5,-95.5 1028.5,-95.5 1028.5,-76.5 919.5,-76.5"/>
<text text-anchor="middle" x="974" y="-83.5" font-family="Helvetica,sans-Serif" font-size="10.00">fcl::DistanceRequest</text>
</a>
</g>
</g>
<!-- Node13&#45;&gt;Node4 -->
<g id="edge14" class="edge"><title>Node13&#45;&gt;Node4</title>
<path fill="none" stroke="#9a32cd" stroke-dasharray="5,2" d="M1038.63,-75.2543C1071.69,-69.671 1111.73,-62.9072 1143.66,-57.5146"/>
<polygon fill="#9a32cd" stroke="#9a32cd" points="1037.88,-71.8298 1028.61,-76.9463 1039.05,-78.7321 1037.88,-71.8298"/>
<text text-anchor="middle" x="1078" y="-76" font-family="Helvetica,sans-Serif" font-size="10.00"> request</text>
</g>
<!-- Node14 -->
<g id="node14" class="node"><title>Node14</title>
<polygon fill="white" stroke="#bfbfbf" points="1186,-76.5 1186,-95.5 1216,-95.5 1216,-76.5 1186,-76.5"/>
<text text-anchor="middle" x="1201" y="-83.5" font-family="Helvetica,sans-Serif" font-size="10.00">BV</text>
</g>
<!-- Node14&#45;&gt;Node3 -->
<g id="edge15" class="edge"><title>Node14&#45;&gt;Node3</title>
<path fill="none" stroke="#9a32cd" stroke-dasharray="5,2" d="M1226.31,-86C1259.11,-86 1319.09,-86 1368.4,-86"/>
<polygon fill="#9a32cd" stroke="#9a32cd" points="1226.29,-82.5001 1216.29,-86 1226.29,-89.5001 1226.29,-82.5001"/>
<text text-anchor="middle" x="1324" y="-89" font-family="Helvetica,sans-Serif" font-size="10.00"> model1_bv</text>
</g>
<!-- Node15 -->
<g id="node15" class="node"><title>Node15</title>
<polygon fill="white" stroke="#bfbfbf" points="1186.5,-0.5 1186.5,-19.5 1215.5,-19.5 1215.5,-0.5 1186.5,-0.5"/>
<text text-anchor="middle" x="1201" y="-7.5" font-family="Helvetica,sans-Serif" font-size="10.00">S</text>
</g>
<!-- Node15&#45;&gt;Node3 -->
<g id="edge16" class="edge"><title>Node15&#45;&gt;Node3</title>
<path fill="none" stroke="#9a32cd" stroke-dasharray="5,2" d="M1225.38,-15.4404C1240.9,-19.1162 1261.72,-24.1635 1280,-29 1311.28,-37.2749 1320.63,-35.4191 1350,-49 1358.73,-53.0357 1359.32,-56.8574 1368,-61 1375.75,-64.699 1384.17,-68.0209 1392.55,-70.9431"/>
<polygon fill="#9a32cd" stroke="#9a32cd" points="1226.1,-12.0161 1215.57,-13.1342 1224.5,-18.8303 1226.1,-12.0161"/>
<text text-anchor="middle" x="1324" y="-52" font-family="Helvetica,sans-Serif" font-size="10.00"> model1</text>
</g>
<!-- Node16 -->
<g id="node16" class="node"><title>Node16</title>
<polygon fill="white" stroke="#bfbfbf" points="1397,-32.5 1397,-51.5 1501,-51.5 1501,-32.5 1397,-32.5"/>
<text text-anchor="middle" x="1449" y="-39.5" font-family="Helvetica,sans-Serif" font-size="10.00">NarrowPhaseSolver</text>
</g>
<!-- Node16&#45;&gt;Node2 -->
<g id="edge17" class="edge"><title>Node16&#45;&gt;Node2</title>
<path fill="none" stroke="#9a32cd" stroke-dasharray="5,2" d="M1508.92,-54.3368C1516.14,-56.5446 1523.32,-59.0887 1530,-62 1562.09,-75.994 1572.54,-79.0096 1596,-105 1607.72,-117.986 1600.47,-128.916 1614,-140 1618.67,-143.824 1623.89,-147.064 1629.4,-149.809"/>
<polygon fill="#9a32cd" stroke="#9a32cd" points="1509.66,-50.9097 1499.09,-51.5317 1507.74,-57.6411 1509.66,-50.9097"/>
<text text-anchor="middle" x="1572" y="-108" font-family="Helvetica,sans-Serif" font-size="10.00"> nsolver</text>
</g>
<!-- Node17 -->
<g id="node17" class="node"><title>Node17</title>
<g id="a_node17"><a xlink:href="a00245.html" target="_top" xlink:title="Triangle with 3 indices for points. ">
<polygon fill="white" stroke="black" points="1415,-172.5 1415,-191.5 1483,-191.5 1483,-172.5 1415,-172.5"/>
<text text-anchor="middle" x="1449" y="-179.5" font-family="Helvetica,sans-Serif" font-size="10.00">fcl::Triangle</text>
</a>
</g>
</g>
<!-- Node17&#45;&gt;Node2 -->
<g id="edge18" class="edge"><title>Node17&#45;&gt;Node2</title>
<path fill="none" stroke="#9a32cd" stroke-dasharray="5,2" d="M1493.48,-179.067C1526.7,-176.826 1573.57,-173.664 1614.46,-170.906"/>
<polygon fill="#9a32cd" stroke="#9a32cd" points="1492.95,-175.595 1483.2,-179.76 1493.42,-182.579 1492.95,-175.595"/>
<text text-anchor="middle" x="1572" y="-179" font-family="Helvetica,sans-Serif" font-size="10.00"> tri_indices</text>
</g>
<!-- Node18 -->
<g id="node18" class="node"><title>Node18</title>
<g id="a_node18"><a xlink:href="a00069.html" target="_top" xlink:title="Vector3 class wrapper. The core data is in the template parameter class. ">
<polygon fill="white" stroke="black" points="1396,-123 1396,-153 1502,-153 1502,-123 1396,-123"/>
<text text-anchor="start" x="1404" y="-141" font-family="Helvetica,sans-Serif" font-size="10.00">Eigen::FclMatrix&lt; T,</text>
<text text-anchor="middle" x="1449" y="-130" font-family="Helvetica,sans-Serif" font-size="10.00"> Cols, _Options &gt;</text>
</a>
</g>
</g>
<!-- Node18&#45;&gt;Node2 -->
<g id="edge19" class="edge"><title>Node18&#45;&gt;Node2</title>
<path fill="none" stroke="#9a32cd" stroke-dasharray="5,2" d="M1512.35,-144.68C1543.04,-147.969 1580.58,-151.99 1614.13,-155.585"/>
<polygon fill="#9a32cd" stroke="#9a32cd" points="1512.53,-141.18 1502.21,-143.594 1511.78,-148.14 1512.53,-141.18"/>
<text text-anchor="middle" x="1572" y="-157" font-family="Helvetica,sans-Serif" font-size="10.00"> vertices</text>
</g>
<!-- Node19 -->
<g id="node19" class="node"><title>Node19</title>
<polygon fill="white" stroke="#bfbfbf" points="1149,-115 1149,-145 1253,-145 1253,-115 1149,-115"/>
<text text-anchor="start" x="1157" y="-133" font-family="Helvetica,sans-Serif" font-size="10.00">Eigen::Matrix&lt; T, 3,</text>
<text text-anchor="middle" x="1201" y="-122" font-family="Helvetica,sans-Serif" font-size="10.00"> Cols, _Options &gt;</text>
</g>
<!-- Node19&#45;&gt;Node18 -->
<g id="edge20" class="edge"><title>Node19&#45;&gt;Node18</title>
<path fill="none" stroke="midnightblue" d="M1263.37,-131.996C1304.18,-133.323 1357.2,-135.047 1395.95,-136.307"/>
<polygon fill="midnightblue" stroke="midnightblue" points="1263.38,-128.494 1253.27,-131.667 1263.15,-135.491 1263.38,-128.494"/>
</g>
<!-- Node20 -->
<g id="node20" class="node"><title>Node20</title>
<g id="a_node20"><a xlink:href="a00073.html" target="_top" xlink:title="fcl::FclType\&lt; FclMatrix\l\&lt; T, Cols, _Options \&gt; \&gt;">
<polygon fill="white" stroke="black" points="1140.5,-164 1140.5,-194 1261.5,-194 1261.5,-164 1140.5,-164"/>
<text text-anchor="start" x="1148.5" y="-182" font-family="Helvetica,sans-Serif" font-size="10.00">fcl::FclType&lt; FclMatrix</text>
<text text-anchor="middle" x="1201" y="-171" font-family="Helvetica,sans-Serif" font-size="10.00">&lt; T, Cols, _Options &gt; &gt;</text>
</a>
</g>
</g>
<!-- Node20&#45;&gt;Node18 -->
<g id="edge21" class="edge"><title>Node20&#45;&gt;Node18</title>
<path fill="none" stroke="midnightblue" d="M1271.62,-167.396C1311.04,-160.827 1359.52,-152.746 1395.68,-146.72"/>
<polygon fill="midnightblue" stroke="midnightblue" points="1270.84,-163.979 1261.55,-169.075 1271.99,-170.883 1270.84,-163.979"/>
</g>
<!-- Node21 -->
<g id="node21" class="node"><title>Node21</title>
<g id="a_node21"><a xlink:href="a00144.html" target="_top" xlink:title="fcl::MotionBase">
<polygon fill="white" stroke="black" points="1660.5,-111.5 1660.5,-130.5 1745.5,-130.5 1745.5,-111.5 1660.5,-111.5"/>
<text text-anchor="middle" x="1703" y="-118.5" font-family="Helvetica,sans-Serif" font-size="10.00">fcl::MotionBase</text>
</a>
</g>
</g>
<!-- Node21&#45;&gt;Node1 -->
<g id="edge22" class="edge"><title>Node21&#45;&gt;Node1</title>
<path fill="none" stroke="#9a32cd" stroke-dasharray="5,2" d="M1755.61,-132.231C1767.58,-134.975 1780.26,-137.992 1792,-141 1817.07,-147.426 1823.8,-147.824 1848,-157 1866.44,-163.991 1886.22,-173.187 1902.85,-181.443"/>
<polygon fill="#9a32cd" stroke="#9a32cd" points="1756.27,-128.793 1745.74,-129.995 1754.72,-135.62 1756.27,-128.793"/>
<text text-anchor="middle" x="1829" y="-171" font-family="Helvetica,sans-Serif" font-size="10.00"> motion1</text>
<text text-anchor="middle" x="1829" y="-160" font-family="Helvetica,sans-Serif" font-size="10.00">motion2</text>
</g>
<!-- Node22 -->
<g id="node22" class="node"><title>Node22</title>
<polygon fill="white" stroke="#bfbfbf" points="750,-207 750,-237 896,-237 896,-207 750,-207"/>
<text text-anchor="start" x="758" y="-225" font-family="Helvetica,sans-Serif" font-size="10.00">std::vector&lt; fcl::Conservative</text>
<text text-anchor="middle" x="823" y="-214" font-family="Helvetica,sans-Serif" font-size="10.00">AdvancementStackData &gt;</text>
</g>
<!-- Node22&#45;&gt;Node1 -->
<g id="edge23" class="edge"><title>Node22&#45;&gt;Node1</title>
<path fill="none" stroke="#9a32cd" stroke-dasharray="5,2" d="M906.258,-222.489C955.74,-222.743 1019.98,-223 1077,-223 1077,-223 1077,-223 1704,-223 1758.24,-223 1819.15,-217.522 1865.78,-212.162"/>
<polygon fill="#9a32cd" stroke="#9a32cd" points="906.266,-218.99 896.248,-222.437 906.23,-225.989 906.266,-218.99"/>
<text text-anchor="middle" x="1324" y="-226" font-family="Helvetica,sans-Serif" font-size="10.00"> stack</text>
</g>
<!-- Node23&#45;&gt;Node22 -->
<g id="edge24" class="edge"><title>Node23&#45;&gt;Node22</title>
<path fill="none" stroke="#9a32cd" stroke-dasharray="5,2" d="M523.974,-198.656C591.714,-203.962 685.534,-211.311 749.705,-216.337"/>
<polygon fill="#9a32cd" stroke="#9a32cd" points="523.998,-195.147 513.755,-197.856 523.452,-202.126 523.998,-195.147"/>
<text text-anchor="middle" x="566" y="-208" font-family="Helvetica,sans-Serif" font-size="10.00"> elements</text>
</g>
</g>
</svg>
