<?xml version="1.0" encoding="UTF-8" standalone="no"?>
<!DOCTYPE svg PUBLIC "-//W3C//DTD SVG 1.1//EN"
 "http://www.w3.org/Graphics/SVG/1.1/DTD/svg11.dtd">
<!-- Generated by graphviz version 2.36.0 (20140111.2315)
 -->
<!-- Title: fcl::ShapeBVHDistanceTraversalNode&lt; S, BV &gt; Pages: 1 -->
<svg width="1300pt" height="168pt"
 viewBox="0.00 0.00 1300.00 168.00" xmlns="http://www.w3.org/2000/svg" xmlns:xlink="http://www.w3.org/1999/xlink">
<g id="graph0" class="graph" transform="scale(1 1) rotate(0) translate(4 164)">
<title>fcl::ShapeBVHDistanceTraversalNode&lt; S, BV &gt;</title>
<polygon fill="white" stroke="none" points="-4,4 -4,-164 1296,-164 1296,4 -4,4"/>
<!-- Node1 -->
<g id="node1" class="node"><title>Node1</title>
<polygon fill="#bfbfbf" stroke="black" points="1130.5,-47 1130.5,-77 1291.5,-77 1291.5,-47 1130.5,-47"/>
<text text-anchor="start" x="1138.5" y="-65" font-family="Helvetica,sans-Serif" font-size="10.00">fcl::ShapeBVHDistanceTraversal</text>
<text text-anchor="middle" x="1211" y="-54" font-family="Helvetica,sans-Serif" font-size="10.00">Node&lt; S, BV &gt;</text>
</g>
<!-- Node2 -->
<g id="node2" class="node"><title>Node2</title>
<g id="a_node2"><a xlink:href="a00056.html" target="_top" xlink:title="Node structure encoding the information required for distance traversal. ">
<polygon fill="white" stroke="black" points="884,-90.5 884,-109.5 1042,-109.5 1042,-90.5 884,-90.5"/>
<text text-anchor="middle" x="963" y="-97.5" font-family="Helvetica,sans-Serif" font-size="10.00">fcl::DistanceTraversalNodeBase</text>
</a>
</g>
</g>
<!-- Node2&#45;&gt;Node1 -->
<g id="edge1" class="edge"><title>Node2&#45;&gt;Node1</title>
<path fill="none" stroke="midnightblue" d="M1035.98,-88.8807C1065.49,-84.3226 1099.76,-79.029 1130.04,-74.3508"/>
<polygon fill="midnightblue" stroke="midnightblue" points="1035.11,-85.4744 1025.76,-90.46 1036.18,-92.3923 1035.11,-85.4744"/>
</g>
<!-- Node3 -->
<g id="node3" class="node"><title>Node3</title>
<g id="a_node3"><a xlink:href="a00244.html" target="_top" xlink:title="Node structure encoding the information required for traversal. ">
<polygon fill="white" stroke="black" points="692.5,-128.5 692.5,-147.5 811.5,-147.5 811.5,-128.5 692.5,-128.5"/>
<text text-anchor="middle" x="752" y="-135.5" font-family="Helvetica,sans-Serif" font-size="10.00">fcl::TraversalNodeBase</text>
</a>
</g>
</g>
<!-- Node3&#45;&gt;Node2 -->
<g id="edge2" class="edge"><title>Node3&#45;&gt;Node2</title>
<path fill="none" stroke="midnightblue" d="M815.408,-126.653C845.395,-121.201 880.934,-114.739 909.509,-109.544"/>
<polygon fill="midnightblue" stroke="midnightblue" points="814.682,-123.228 805.47,-128.46 815.935,-130.115 814.682,-123.228"/>
</g>
<!-- Node4 -->
<g id="node4" class="node"><title>Node4</title>
<g id="a_node4"><a xlink:href="a00242.html" target="_top" xlink:title="Simple transform class used locally by InterpMotion. ">
<polygon fill="white" stroke="black" points="540,-128.5 540,-147.5 626,-147.5 626,-128.5 540,-128.5"/>
<text text-anchor="middle" x="583" y="-135.5" font-family="Helvetica,sans-Serif" font-size="10.00">fcl::Transform3f</text>
</a>
</g>
</g>
<!-- Node4&#45;&gt;Node3 -->
<g id="edge3" class="edge"><title>Node4&#45;&gt;Node3</title>
<path fill="none" stroke="#9a32cd" stroke-dasharray="5,2" d="M636.349,-138C654.17,-138 674.201,-138 692.474,-138"/>
<polygon fill="#9a32cd" stroke="#9a32cd" points="636.141,-134.5 626.141,-138 636.141,-141.5 636.141,-134.5"/>
<text text-anchor="middle" x="666" y="-152" font-family="Helvetica,sans-Serif" font-size="10.00"> tf1</text>
<text text-anchor="middle" x="666" y="-141" font-family="Helvetica,sans-Serif" font-size="10.00">tf2</text>
</g>
<!-- Node5 -->
<g id="node5" class="node"><title>Node5</title>
<g id="a_node5"><a xlink:href="a00055.html" target="_top" xlink:title="distance result ">
<polygon fill="white" stroke="black" points="701.5,-90.5 701.5,-109.5 802.5,-109.5 802.5,-90.5 701.5,-90.5"/>
<text text-anchor="middle" x="752" y="-97.5" font-family="Helvetica,sans-Serif" font-size="10.00">fcl::DistanceResult</text>
</a>
</g>
</g>
<!-- Node5&#45;&gt;Node2 -->
<g id="edge4" class="edge"><title>Node5&#45;&gt;Node2</title>
<path fill="none" stroke="#9a32cd" stroke-dasharray="5,2" d="M812.771,-100C834.891,-100 860.307,-100 883.821,-100"/>
<polygon fill="#9a32cd" stroke="#9a32cd" points="812.53,-96.5001 802.53,-100 812.53,-103.5 812.53,-96.5001"/>
<text text-anchor="middle" x="848" y="-103" font-family="Helvetica,sans-Serif" font-size="10.00"> result</text>
</g>
<!-- Node6 -->
<g id="node6" class="node"><title>Node6</title>
<g id="a_node6"><a xlink:href="a00069.html" target="_top" xlink:title="Eigen::FclMatrix\&lt; FCL\l_REAL, 1 \&gt;">
<polygon fill="white" stroke="black" points="182,-46 182,-76 298,-76 298,-46 182,-46"/>
<text text-anchor="start" x="190" y="-64" font-family="Helvetica,sans-Serif" font-size="10.00">Eigen::FclMatrix&lt; FCL</text>
<text text-anchor="middle" x="240" y="-53" font-family="Helvetica,sans-Serif" font-size="10.00">_REAL, 1 &gt;</text>
</a>
</g>
</g>
<!-- Node6&#45;&gt;Node5 -->
<g id="edge5" class="edge"><title>Node6&#45;&gt;Node5</title>
<path fill="none" stroke="#9a32cd" stroke-dasharray="5,2" d="M308.297,-73.9849C310.894,-74.3517 313.469,-74.6923 316,-75 454.921,-91.8885 620.229,-97.4237 701.237,-99.1949"/>
<polygon fill="#9a32cd" stroke="#9a32cd" points="308.624,-70.4945 298.212,-72.4544 307.574,-77.4153 308.624,-70.4945"/>
<text text-anchor="middle" x="474" y="-94" font-family="Helvetica,sans-Serif" font-size="10.00"> nearest_points</text>
</g>
<!-- Node9 -->
<g id="node9" class="node"><title>Node9</title>
<g id="a_node9"><a xlink:href="a00032.html" target="_top" xlink:title="The geometry for the object for collision or distance computation. ">
<polygon fill="white" stroke="black" points="526.5,-51.5 526.5,-70.5 639.5,-70.5 639.5,-51.5 526.5,-51.5"/>
<text text-anchor="middle" x="583" y="-58.5" font-family="Helvetica,sans-Serif" font-size="10.00">fcl::CollisionGeometry</text>
</a>
</g>
</g>
<!-- Node6&#45;&gt;Node9 -->
<g id="edge11" class="edge"><title>Node6&#45;&gt;Node9</title>
<path fill="none" stroke="#9a32cd" stroke-dasharray="5,2" d="M308.433,-61C372.235,-61 466.857,-61 526.437,-61"/>
<polygon fill="#9a32cd" stroke="#9a32cd" points="308.076,-57.5001 298.076,-61 308.076,-64.5001 308.076,-57.5001"/>
<text text-anchor="middle" x="392" y="-64" font-family="Helvetica,sans-Serif" font-size="10.00"> aabb_center</text>
</g>
<!-- Node10 -->
<g id="node10" class="node"><title>Node10</title>
<g id="a_node10"><a xlink:href="a00003.html" target="_top" xlink:title="A class describing the AABB collision structure, which is a box in 3D space determined by two diagona...">
<polygon fill="white" stroke="black" points="362,-5.5 362,-24.5 422,-24.5 422,-5.5 362,-5.5"/>
<text text-anchor="middle" x="392" y="-12.5" font-family="Helvetica,sans-Serif" font-size="10.00">fcl::AABB</text>
</a>
</g>
</g>
<!-- Node6&#45;&gt;Node10 -->
<g id="edge10" class="edge"><title>Node6&#45;&gt;Node10</title>
<path fill="none" stroke="#9a32cd" stroke-dasharray="5,2" d="M276.238,-41.2667C288.493,-35.1732 302.545,-29.0157 316,-25 330.727,-20.6046 347.659,-18.1381 361.703,-16.7555"/>
<polygon fill="#9a32cd" stroke="#9a32cd" points="274.554,-38.1968 267.256,-45.8774 277.751,-44.4242 274.554,-38.1968"/>
<text text-anchor="middle" x="330" y="-39" font-family="Helvetica,sans-Serif" font-size="10.00"> max_</text>
<text text-anchor="middle" x="330" y="-28" font-family="Helvetica,sans-Serif" font-size="10.00">min_</text>
</g>
<!-- Node7 -->
<g id="node7" class="node"><title>Node7</title>
<polygon fill="white" stroke="#bfbfbf" points="6.5,-71 6.5,-123 137.5,-123 137.5,-71 6.5,-71"/>
<text text-anchor="start" x="14.5" y="-111" font-family="Helvetica,sans-Serif" font-size="10.00">Matrix&lt; FCL_REAL ,</text>
<text text-anchor="start" x="14.5" y="-100" font-family="Helvetica,sans-Serif" font-size="10.00"> 3, Cols, internal::</text>
<text text-anchor="start" x="14.5" y="-89" font-family="Helvetica,sans-Serif" font-size="10.00">traits&lt;Matrix &lt;FCL_REAL</text>
<text text-anchor="middle" x="72" y="-78" font-family="Helvetica,sans-Serif" font-size="10.00"> , 3, Cols&gt; &gt;::Options &gt;</text>
</g>
<!-- Node7&#45;&gt;Node6 -->
<g id="edge6" class="edge"><title>Node7&#45;&gt;Node6</title>
<path fill="none" stroke="midnightblue" d="M147.655,-80.8097C159.123,-78.3228 170.805,-75.7893 181.814,-73.4018"/>
<polygon fill="midnightblue" stroke="midnightblue" points="146.686,-77.4384 137.655,-82.9784 148.17,-84.2794 146.686,-77.4384"/>
</g>
<!-- Node8 -->
<g id="node8" class="node"><title>Node8</title>
<g id="a_node8"><a xlink:href="a00073.html" target="_top" xlink:title="fcl::FclType\&lt; FclMatrix\l\&lt; FCL_REAL, Cols, internal\l::traits\&lt; Matrix\&lt; FCL_REAL,\l 3, Cols \&gt; \&gt;::Options \&gt; \&gt;">
<polygon fill="white" stroke="black" points="0.5,-0 0.5,-52 143.5,-52 143.5,-0 0.5,-0"/>
<text text-anchor="start" x="8.5" y="-40" font-family="Helvetica,sans-Serif" font-size="10.00">fcl::FclType&lt; FclMatrix</text>
<text text-anchor="start" x="8.5" y="-29" font-family="Helvetica,sans-Serif" font-size="10.00">&lt; FCL_REAL, Cols, internal</text>
<text text-anchor="start" x="8.5" y="-18" font-family="Helvetica,sans-Serif" font-size="10.00">::traits&lt; Matrix&lt; FCL_REAL,</text>
<text text-anchor="middle" x="72" y="-7" font-family="Helvetica,sans-Serif" font-size="10.00"> 3, Cols &gt; &gt;::Options &gt; &gt;</text>
</a>
</g>
</g>
<!-- Node8&#45;&gt;Node6 -->
<g id="edge7" class="edge"><title>Node8&#45;&gt;Node6</title>
<path fill="none" stroke="midnightblue" d="M153.751,-43.0258C163.257,-45.03 172.802,-47.0425 181.887,-48.958"/>
<polygon fill="midnightblue" stroke="midnightblue" points="154.387,-39.5831 143.88,-40.9447 152.943,-46.4325 154.387,-39.5831"/>
</g>
<!-- Node9&#45;&gt;Node5 -->
<g id="edge8" class="edge"><title>Node9&#45;&gt;Node5</title>
<path fill="none" stroke="#9a32cd" stroke-dasharray="5,2" d="M649.784,-57.6775C658.137,-58.8433 666.409,-60.8344 674,-64 684.156,-68.2352 682.529,-75.3974 692,-81 698.391,-84.7805 705.623,-87.9033 712.778,-90.4484"/>
<polygon fill="#9a32cd" stroke="#9a32cd" points="649.899,-54.1712 639.597,-56.6414 649.191,-61.1353 649.899,-54.1712"/>
<text text-anchor="middle" x="666" y="-78" font-family="Helvetica,sans-Serif" font-size="10.00"> o1</text>
<text text-anchor="middle" x="666" y="-67" font-family="Helvetica,sans-Serif" font-size="10.00">o2</text>
</g>
<!-- Node10&#45;&gt;Node9 -->
<g id="edge9" class="edge"><title>Node10&#45;&gt;Node9</title>
<path fill="none" stroke="#9a32cd" stroke-dasharray="5,2" d="M432.217,-20.7127C454.593,-24.3323 483.066,-29.548 508,-36 524.41,-40.2464 542.438,-46.3063 556.591,-51.3964"/>
<polygon fill="#9a32cd" stroke="#9a32cd" points="432.506,-17.2151 422.083,-19.1145 431.415,-24.1296 432.506,-17.2151"/>
<text text-anchor="middle" x="474" y="-40" font-family="Helvetica,sans-Serif" font-size="10.00"> aabb_local</text>
</g>
<!-- Node11 -->
<g id="node11" class="node"><title>Node11</title>
<g id="a_node11"><a xlink:href="a00054.html" target="_top" xlink:title="request to the distance computation ">
<polygon fill="white" stroke="black" points="697.5,-52.5 697.5,-71.5 806.5,-71.5 806.5,-52.5 697.5,-52.5"/>
<text text-anchor="middle" x="752" y="-59.5" font-family="Helvetica,sans-Serif" font-size="10.00">fcl::DistanceRequest</text>
</a>
</g>
</g>
<!-- Node11&#45;&gt;Node2 -->
<g id="edge12" class="edge"><title>Node11&#45;&gt;Node2</title>
<path fill="none" stroke="#9a32cd" stroke-dasharray="5,2" d="M815.408,-73.347C845.395,-78.7991 880.934,-85.2607 909.509,-90.4561"/>
<polygon fill="#9a32cd" stroke="#9a32cd" points="815.935,-69.8853 805.47,-71.54 814.682,-76.7724 815.935,-69.8853"/>
<text text-anchor="middle" x="848" y="-85" font-family="Helvetica,sans-Serif" font-size="10.00"> request</text>
</g>
<!-- Node12 -->
<g id="node12" class="node"><title>Node12</title>
<polygon fill="white" stroke="#bfbfbf" points="948,-52.5 948,-71.5 978,-71.5 978,-52.5 948,-52.5"/>
<text text-anchor="middle" x="963" y="-59.5" font-family="Helvetica,sans-Serif" font-size="10.00">BV</text>
</g>
<!-- Node12&#45;&gt;Node1 -->
<g id="edge13" class="edge"><title>Node12&#45;&gt;Node1</title>
<path fill="none" stroke="#9a32cd" stroke-dasharray="5,2" d="M988.314,-62C1021.11,-62 1081.09,-62 1130.4,-62"/>
<polygon fill="#9a32cd" stroke="#9a32cd" points="988.289,-58.5001 978.289,-62 988.289,-65.5001 988.289,-58.5001"/>
<text text-anchor="middle" x="1086" y="-65" font-family="Helvetica,sans-Serif" font-size="10.00"> model1_bv</text>
</g>
<!-- Node13 -->
<g id="node13" class="node"><title>Node13</title>
<polygon fill="white" stroke="#bfbfbf" points="948.5,-14.5 948.5,-33.5 977.5,-33.5 977.5,-14.5 948.5,-14.5"/>
<text text-anchor="middle" x="963" y="-21.5" font-family="Helvetica,sans-Serif" font-size="10.00">S</text>
</g>
<!-- Node13&#45;&gt;Node1 -->
<g id="edge14" class="edge"><title>Node13&#45;&gt;Node1</title>
<path fill="none" stroke="#9a32cd" stroke-dasharray="5,2" d="M987.507,-27.6311C1020.11,-32.6677 1080.67,-42.0217 1130.38,-49.7008"/>
<polygon fill="#9a32cd" stroke="#9a32cd" points="987.994,-24.1649 977.576,-26.0972 986.925,-31.0828 987.994,-24.1649"/>
<text text-anchor="middle" x="1086" y="-49" font-family="Helvetica,sans-Serif" font-size="10.00"> model1</text>
</g>
</g>
</svg>
