<?xml version="1.0" encoding="UTF-8" standalone="no"?>
<!DOCTYPE svg PUBLIC "-//W3C//DTD SVG 1.1//EN"
 "http://www.w3.org/Graphics/SVG/1.1/DTD/svg11.dtd">
<!-- Generated by graphviz version 2.36.0 (20140111.2315)
 -->
<!-- Title: fcl::details::EPA Pages: 1 -->
<svg width="962pt" height="209pt"
 viewBox="0.00 0.00 962.00 209.00" xmlns="http://www.w3.org/2000/svg" xmlns:xlink="http://www.w3.org/1999/xlink">
<g id="graph0" class="graph" transform="scale(1 1) rotate(0) translate(4 205)">
<title>fcl::details::EPA</title>
<polygon fill="white" stroke="none" points="-4,4 -4,-205 958,-205 958,4 -4,4"/>
<!-- Node1 -->
<g id="node1" class="node"><title>Node1</title>
<polygon fill="#bfbfbf" stroke="black" points="866,-88.5 866,-107.5 954,-107.5 954,-88.5 866,-88.5"/>
<text text-anchor="middle" x="910" y="-95.5" font-family="Helvetica,sans-Serif" font-size="10.00">fcl::details::EPA</text>
</g>
<!-- Node2 -->
<g id="node2" class="node"><title>Node2</title>
<polygon fill="white" stroke="#bfbfbf" points="710,-83 710,-113 804,-113 804,-83 710,-83"/>
<text text-anchor="start" x="718" y="-101" font-family="Helvetica,sans-Serif" font-size="10.00">fcl::details::EPA::</text>
<text text-anchor="middle" x="757" y="-90" font-family="Helvetica,sans-Serif" font-size="10.00">SimplexList</text>
</g>
<!-- Node2&#45;&gt;Node1 -->
<g id="edge1" class="edge"><title>Node2&#45;&gt;Node1</title>
<path fill="none" stroke="#9a32cd" stroke-dasharray="5,2" d="M814.523,-98C831.563,-98 849.981,-98 865.991,-98"/>
<polygon fill="#9a32cd" stroke="#9a32cd" points="814.125,-94.5001 804.125,-98 814.125,-101.5 814.125,-94.5001"/>
<text text-anchor="middle" x="835" y="-112" font-family="Helvetica,sans-Serif" font-size="10.00"> hull</text>
<text text-anchor="middle" x="835" y="-101" font-family="Helvetica,sans-Serif" font-size="10.00">stock</text>
</g>
<!-- Node3 -->
<g id="node3" class="node"><title>Node3</title>
<polygon fill="white" stroke="#bfbfbf" points="486,-83 486,-113 580,-113 580,-83 486,-83"/>
<text text-anchor="start" x="494" y="-101" font-family="Helvetica,sans-Serif" font-size="10.00">fcl::details::EPA::</text>
<text text-anchor="middle" x="533" y="-90" font-family="Helvetica,sans-Serif" font-size="10.00">SimplexF</text>
</g>
<!-- Node3&#45;&gt;Node1 -->
<g id="edge11" class="edge"><title>Node3&#45;&gt;Node1</title>
<path fill="none" stroke="#9a32cd" stroke-dasharray="5,2" d="M590.337,-111.694C592.921,-112.167 595.484,-112.606 598,-113 696.477,-128.408 722.328,-123.11 822,-124 833.555,-124.103 836.678,-126.312 848,-124 863.453,-120.844 879.836,-113.62 891.729,-107.585"/>
<polygon fill="#9a32cd" stroke="#9a32cd" points="590.818,-108.222 580.33,-109.72 589.464,-115.089 590.818,-108.222"/>
<text text-anchor="middle" x="757" y="-128" font-family="Helvetica,sans-Serif" font-size="10.00"> fc_store</text>
</g>
<!-- Node3&#45;&gt;Node2 -->
<g id="edge2" class="edge"><title>Node3&#45;&gt;Node2</title>
<path fill="none" stroke="#9a32cd" stroke-dasharray="5,2" d="M590.389,-98C627.352,-98 675.076,-98 709.791,-98"/>
<polygon fill="#9a32cd" stroke="#9a32cd" points="590.268,-94.5001 580.268,-98 590.268,-101.5 590.268,-94.5001"/>
<text text-anchor="middle" x="645" y="-101" font-family="Helvetica,sans-Serif" font-size="10.00"> root</text>
</g>
<!-- Node3&#45;&gt;Node3 -->
<g id="edge3" class="edge"><title>Node3&#45;&gt;Node3</title>
<path fill="none" stroke="#9a32cd" stroke-dasharray="5,2" d="M520.747,-123.598C522.422,-127.97 526.506,-131 533,-131 543.938,-131 548.039,-122.406 545.305,-113.275"/>
<polygon fill="#9a32cd" stroke="#9a32cd" points="524.246,-123.258 520.695,-113.275 517.246,-123.293 524.246,-123.258"/>
<text text-anchor="middle" x="533" y="-145" font-family="Helvetica,sans-Serif" font-size="10.00"> f</text>
<text text-anchor="middle" x="533" y="-134" font-family="Helvetica,sans-Serif" font-size="10.00">l</text>
</g>
<!-- Node4 -->
<g id="node4" class="node"><title>Node4</title>
<g id="a_node4"><a xlink:href="a00221.html" target="_top" xlink:title="fcl::details::GJK::\lSimplexV">
<polygon fill="white" stroke="black" points="346.5,-42 346.5,-72 439.5,-72 439.5,-42 346.5,-42"/>
<text text-anchor="start" x="354.5" y="-60" font-family="Helvetica,sans-Serif" font-size="10.00">fcl::details::GJK::</text>
<text text-anchor="middle" x="393" y="-49" font-family="Helvetica,sans-Serif" font-size="10.00">SimplexV</text>
</a>
</g>
</g>
<!-- Node4&#45;&gt;Node1 -->
<g id="edge12" class="edge"><title>Node4&#45;&gt;Node1</title>
<path fill="none" stroke="#9a32cd" stroke-dasharray="5,2" d="M449.977,-56.0869C529.177,-55.528 678.305,-57.1737 804,-74 827.723,-77.1758 853.973,-83.1758 874.293,-88.3818"/>
<polygon fill="#9a32cd" stroke="#9a32cd" points="449.71,-52.589 439.741,-56.1744 449.77,-59.5887 449.71,-52.589"/>
<text text-anchor="middle" x="645" y="-66" font-family="Helvetica,sans-Serif" font-size="10.00"> sv_store</text>
</g>
<!-- Node4&#45;&gt;Node3 -->
<g id="edge4" class="edge"><title>Node4&#45;&gt;Node3</title>
<path fill="none" stroke="#9a32cd" stroke-dasharray="5,2" d="M449.454,-73.4756C461.421,-77.031 473.954,-80.7544 485.535,-84.1952"/>
<polygon fill="#9a32cd" stroke="#9a32cd" points="450.152,-70.0316 439.569,-70.5386 448.158,-76.7417 450.152,-70.0316"/>
<text text-anchor="middle" x="463" y="-82" font-family="Helvetica,sans-Serif" font-size="10.00"> c</text>
</g>
<!-- Node8 -->
<g id="node8" class="node"><title>Node8</title>
<g id="a_node8"><a xlink:href="a00220.html" target="_top" xlink:title="fcl::details::GJK::\lSimplex">
<polygon fill="white" stroke="black" points="598.5,-0 598.5,-30 691.5,-30 691.5,-0 598.5,-0"/>
<text text-anchor="start" x="606.5" y="-18" font-family="Helvetica,sans-Serif" font-size="10.00">fcl::details::GJK::</text>
<text text-anchor="middle" x="645" y="-7" font-family="Helvetica,sans-Serif" font-size="10.00">Simplex</text>
</a>
</g>
</g>
<!-- Node4&#45;&gt;Node8 -->
<g id="edge10" class="edge"><title>Node4&#45;&gt;Node8</title>
<path fill="none" stroke="#9a32cd" stroke-dasharray="5,2" d="M432.324,-37.7497C440.612,-34.2963 449.456,-31.125 458,-29 504.824,-17.3541 560.152,-14.5221 598.222,-14.1893"/>
<polygon fill="#9a32cd" stroke="#9a32cd" points="430.65,-34.6619 422.902,-41.8875 433.465,-41.0711 430.65,-34.6619"/>
<text text-anchor="middle" x="463" y="-32" font-family="Helvetica,sans-Serif" font-size="10.00"> c</text>
</g>
<!-- Node5 -->
<g id="node5" class="node"><title>Node5</title>
<g id="a_node5"><a xlink:href="a00069.html" target="_top" xlink:title="Eigen::FclMatrix\&lt; FCL\l_REAL, 1 \&gt;">
<polygon fill="white" stroke="black" points="182,-98 182,-128 298,-128 298,-98 182,-98"/>
<text text-anchor="start" x="190" y="-116" font-family="Helvetica,sans-Serif" font-size="10.00">Eigen::FclMatrix&lt; FCL</text>
<text text-anchor="middle" x="240" y="-105" font-family="Helvetica,sans-Serif" font-size="10.00">_REAL, 1 &gt;</text>
</a>
</g>
</g>
<!-- Node5&#45;&gt;Node1 -->
<g id="edge13" class="edge"><title>Node5&#45;&gt;Node1</title>
<path fill="none" stroke="#9a32cd" stroke-dasharray="5,2" d="M265.468,-134.63C293.832,-157.405 342.987,-190 392,-190 392,-190 392,-190 758,-190 820.623,-190 879.327,-131.579 900.592,-107.846"/>
<polygon fill="#9a32cd" stroke="#9a32cd" points="267.636,-131.881 257.696,-128.213 263.179,-137.279 267.636,-131.881"/>
<text text-anchor="middle" x="533" y="-193" font-family="Helvetica,sans-Serif" font-size="10.00"> normal</text>
</g>
<!-- Node5&#45;&gt;Node3 -->
<g id="edge8" class="edge"><title>Node5&#45;&gt;Node3</title>
<path fill="none" stroke="#9a32cd" stroke-dasharray="5,2" d="M308.411,-109.525C362.915,-106.716 438.194,-102.835 485.988,-100.372"/>
<polygon fill="#9a32cd" stroke="#9a32cd" points="307.952,-106.044 298.145,-110.054 308.312,-113.035 307.952,-106.044"/>
<text text-anchor="middle" x="393" y="-111" font-family="Helvetica,sans-Serif" font-size="10.00"> n</text>
</g>
<!-- Node5&#45;&gt;Node4 -->
<g id="edge5" class="edge"><title>Node5&#45;&gt;Node4</title>
<path fill="none" stroke="#9a32cd" stroke-dasharray="5,2" d="M278.426,-93.3132C290.243,-87.5673 303.486,-81.6025 316,-77 325.604,-73.4679 336.104,-70.2888 346.15,-67.559"/>
<polygon fill="#9a32cd" stroke="#9a32cd" points="276.697,-90.2639 269.295,-97.8443 279.808,-96.5343 276.697,-90.2639"/>
<text text-anchor="middle" x="322" y="-91" font-family="Helvetica,sans-Serif" font-size="10.00"> w</text>
<text text-anchor="middle" x="322" y="-80" font-family="Helvetica,sans-Serif" font-size="10.00">d</text>
</g>
<!-- Node6 -->
<g id="node6" class="node"><title>Node6</title>
<polygon fill="white" stroke="#bfbfbf" points="6.5,-123 6.5,-175 137.5,-175 137.5,-123 6.5,-123"/>
<text text-anchor="start" x="14.5" y="-163" font-family="Helvetica,sans-Serif" font-size="10.00">Matrix&lt; FCL_REAL ,</text>
<text text-anchor="start" x="14.5" y="-152" font-family="Helvetica,sans-Serif" font-size="10.00"> 3, Cols, internal::</text>
<text text-anchor="start" x="14.5" y="-141" font-family="Helvetica,sans-Serif" font-size="10.00">traits&lt;Matrix &lt;FCL_REAL</text>
<text text-anchor="middle" x="72" y="-130" font-family="Helvetica,sans-Serif" font-size="10.00"> , 3, Cols&gt; &gt;::Options &gt;</text>
</g>
<!-- Node6&#45;&gt;Node5 -->
<g id="edge6" class="edge"><title>Node6&#45;&gt;Node5</title>
<path fill="none" stroke="midnightblue" d="M147.655,-132.81C159.123,-130.323 170.805,-127.789 181.814,-125.402"/>
<polygon fill="midnightblue" stroke="midnightblue" points="146.686,-129.438 137.655,-134.978 148.17,-136.279 146.686,-129.438"/>
</g>
<!-- Node7 -->
<g id="node7" class="node"><title>Node7</title>
<g id="a_node7"><a xlink:href="a00073.html" target="_top" xlink:title="fcl::FclType\&lt; FclMatrix\l\&lt; FCL_REAL, Cols, internal\l::traits\&lt; Matrix\&lt; FCL_REAL,\l 3, Cols \&gt; \&gt;::Options \&gt; \&gt;">
<polygon fill="white" stroke="black" points="0.5,-52 0.5,-104 143.5,-104 143.5,-52 0.5,-52"/>
<text text-anchor="start" x="8.5" y="-92" font-family="Helvetica,sans-Serif" font-size="10.00">fcl::FclType&lt; FclMatrix</text>
<text text-anchor="start" x="8.5" y="-81" font-family="Helvetica,sans-Serif" font-size="10.00">&lt; FCL_REAL, Cols, internal</text>
<text text-anchor="start" x="8.5" y="-70" font-family="Helvetica,sans-Serif" font-size="10.00">::traits&lt; Matrix&lt; FCL_REAL,</text>
<text text-anchor="middle" x="72" y="-59" font-family="Helvetica,sans-Serif" font-size="10.00"> 3, Cols &gt; &gt;::Options &gt; &gt;</text>
</a>
</g>
</g>
<!-- Node7&#45;&gt;Node5 -->
<g id="edge7" class="edge"><title>Node7&#45;&gt;Node5</title>
<path fill="none" stroke="midnightblue" d="M153.751,-95.0258C163.257,-97.03 172.802,-99.0425 181.887,-100.958"/>
<polygon fill="midnightblue" stroke="midnightblue" points="154.387,-91.5831 143.88,-92.9447 152.943,-98.4325 154.387,-91.5831"/>
</g>
<!-- Node8&#45;&gt;Node1 -->
<g id="edge9" class="edge"><title>Node8&#45;&gt;Node1</title>
<path fill="none" stroke="#9a32cd" stroke-dasharray="5,2" d="M702.043,-11.0994C744.598,-10.604 803.228,-15.3903 848,-40 870.539,-52.3888 890.919,-75.1571 901.455,-88.1774"/>
<polygon fill="#9a32cd" stroke="#9a32cd" points="701.783,-7.60417 691.861,-11.3215 701.935,-14.6025 701.783,-7.60417"/>
<text text-anchor="middle" x="757" y="-25" font-family="Helvetica,sans-Serif" font-size="10.00"> result</text>
</g>
</g>
</svg>
