<?xml version="1.0" encoding="UTF-8" standalone="no"?>
<!DOCTYPE svg PUBLIC "-//W3C//DTD SVG 1.1//EN"
 "http://www.w3.org/Graphics/SVG/1.1/DTD/svg11.dtd">
<!-- Generated by graphviz version 2.36.0 (20140111.2315)
 -->
<!-- Title: fcl::TriangleP Pages: 1 -->
<svg width="864pt" height="141pt"
 viewBox="0.00 0.00 864.00 141.00" xmlns="http://www.w3.org/2000/svg" xmlns:xlink="http://www.w3.org/1999/xlink">
<g id="graph0" class="graph" transform="scale(1 1) rotate(0) translate(4 137)">
<title>fcl::TriangleP</title>
<polygon fill="white" stroke="none" points="-4,4 -4,-137 860,-137 860,4 -4,4"/>
<!-- Node1 -->
<g id="node1" class="node"><title>Node1</title>
<polygon fill="#bfbfbf" stroke="black" points="782,-74.5 782,-93.5 856,-93.5 856,-74.5 782,-74.5"/>
<text text-anchor="middle" x="819" y="-81.5" font-family="Helvetica,sans-Serif" font-size="10.00">fcl::TriangleP</text>
</g>
<!-- Node2 -->
<g id="node2" class="node"><title>Node2</title>
<g id="a_node2"><a xlink:href="a00198.html" target="_top" xlink:title="Base class for all basic geometric shapes. ">
<polygon fill="white" stroke="black" points="660.5,-50.5 660.5,-69.5 743.5,-69.5 743.5,-50.5 660.5,-50.5"/>
<text text-anchor="middle" x="702" y="-57.5" font-family="Helvetica,sans-Serif" font-size="10.00">fcl::ShapeBase</text>
</a>
</g>
</g>
<!-- Node2&#45;&gt;Node1 -->
<g id="edge1" class="edge"><title>Node2&#45;&gt;Node1</title>
<path fill="none" stroke="midnightblue" d="M753.334,-70.5044C762.863,-72.4932 772.659,-74.5375 781.653,-76.4145"/>
<polygon fill="midnightblue" stroke="midnightblue" points="754.049,-67.0783 743.545,-68.4615 752.619,-73.9307 754.049,-67.0783"/>
</g>
<!-- Node3 -->
<g id="node3" class="node"><title>Node3</title>
<g id="a_node3"><a xlink:href="a00032.html" target="_top" xlink:title="The geometry for the object for collision or distance computation. ">
<polygon fill="white" stroke="black" points="508.5,-44.5 508.5,-63.5 621.5,-63.5 621.5,-44.5 508.5,-44.5"/>
<text text-anchor="middle" x="565" y="-51.5" font-family="Helvetica,sans-Serif" font-size="10.00">fcl::CollisionGeometry</text>
</a>
</g>
</g>
<!-- Node3&#45;&gt;Node2 -->
<g id="edge2" class="edge"><title>Node3&#45;&gt;Node2</title>
<path fill="none" stroke="midnightblue" d="M631.773,-56.9233C641.5,-57.3555 651.273,-57.7899 660.287,-58.1905"/>
<polygon fill="midnightblue" stroke="midnightblue" points="631.835,-53.4226 621.689,-56.4751 631.524,-60.4157 631.835,-53.4226"/>
</g>
<!-- Node4 -->
<g id="node4" class="node"><title>Node4</title>
<g id="a_node4"><a xlink:href="a00003.html" target="_top" xlink:title="A class describing the AABB collision structure, which is a box in 3D space determined by two diagona...">
<polygon fill="white" stroke="black" points="362,-5.5 362,-24.5 422,-24.5 422,-5.5 362,-5.5"/>
<text text-anchor="middle" x="392" y="-12.5" font-family="Helvetica,sans-Serif" font-size="10.00">fcl::AABB</text>
</a>
</g>
</g>
<!-- Node4&#45;&gt;Node3 -->
<g id="edge3" class="edge"><title>Node4&#45;&gt;Node3</title>
<path fill="none" stroke="#9a32cd" stroke-dasharray="5,2" d="M432.293,-23.2697C449.957,-27.0482 471.049,-31.6446 490,-36 501.597,-38.6654 514.186,-41.6814 525.636,-44.4721"/>
<polygon fill="#9a32cd" stroke="#9a32cd" points="432.842,-19.8081 422.332,-21.1476 431.383,-26.6544 432.842,-19.8081"/>
<text text-anchor="middle" x="465" y="-39" font-family="Helvetica,sans-Serif" font-size="10.00"> aabb_local</text>
</g>
<!-- Node5 -->
<g id="node5" class="node"><title>Node5</title>
<g id="a_node5"><a xlink:href="a00069.html" target="_top" xlink:title="Eigen::FclMatrix\&lt; FCL\l_REAL, 1 \&gt;">
<polygon fill="white" stroke="black" points="182,-46 182,-76 298,-76 298,-46 182,-46"/>
<text text-anchor="start" x="190" y="-64" font-family="Helvetica,sans-Serif" font-size="10.00">Eigen::FclMatrix&lt; FCL</text>
<text text-anchor="middle" x="240" y="-53" font-family="Helvetica,sans-Serif" font-size="10.00">_REAL, 1 &gt;</text>
</a>
</g>
</g>
<!-- Node5&#45;&gt;Node1 -->
<g id="edge8" class="edge"><title>Node5&#45;&gt;Node1</title>
<path fill="none" stroke="#9a32cd" stroke-dasharray="5,2" d="M287.141,-79.4676C316.406,-89.5493 355.342,-100 391,-100 391,-100 391,-100 703,-100 729.608,-100 759.351,-95.7461 781.923,-91.6251"/>
<polygon fill="#9a32cd" stroke="#9a32cd" points="288.201,-76.1298 277.606,-76.0784 285.856,-82.7255 288.201,-76.1298"/>
<text text-anchor="middle" x="565" y="-125" font-family="Helvetica,sans-Serif" font-size="10.00"> a</text>
<text text-anchor="middle" x="565" y="-114" font-family="Helvetica,sans-Serif" font-size="10.00">b</text>
<text text-anchor="middle" x="565" y="-103" font-family="Helvetica,sans-Serif" font-size="10.00">c</text>
</g>
<!-- Node5&#45;&gt;Node3 -->
<g id="edge7" class="edge"><title>Node5&#45;&gt;Node3</title>
<path fill="none" stroke="#9a32cd" stroke-dasharray="5,2" d="M308.018,-59.5476C367.307,-58.2627 452.798,-56.41 508.377,-55.2054"/>
<polygon fill="#9a32cd" stroke="#9a32cd" points="307.924,-56.0487 298.002,-59.7647 308.076,-63.0471 307.924,-56.0487"/>
<text text-anchor="middle" x="392" y="-61" font-family="Helvetica,sans-Serif" font-size="10.00"> aabb_center</text>
</g>
<!-- Node5&#45;&gt;Node4 -->
<g id="edge4" class="edge"><title>Node5&#45;&gt;Node4</title>
<path fill="none" stroke="#9a32cd" stroke-dasharray="5,2" d="M276.238,-41.2667C288.493,-35.1732 302.545,-29.0157 316,-25 330.727,-20.6046 347.659,-18.1381 361.703,-16.7555"/>
<polygon fill="#9a32cd" stroke="#9a32cd" points="274.554,-38.1968 267.256,-45.8774 277.751,-44.4242 274.554,-38.1968"/>
<text text-anchor="middle" x="330" y="-39" font-family="Helvetica,sans-Serif" font-size="10.00"> max_</text>
<text text-anchor="middle" x="330" y="-28" font-family="Helvetica,sans-Serif" font-size="10.00">min_</text>
</g>
<!-- Node6 -->
<g id="node6" class="node"><title>Node6</title>
<polygon fill="white" stroke="#bfbfbf" points="6.5,-71 6.5,-123 137.5,-123 137.5,-71 6.5,-71"/>
<text text-anchor="start" x="14.5" y="-111" font-family="Helvetica,sans-Serif" font-size="10.00">Matrix&lt; FCL_REAL ,</text>
<text text-anchor="start" x="14.5" y="-100" font-family="Helvetica,sans-Serif" font-size="10.00"> 3, Cols, internal::</text>
<text text-anchor="start" x="14.5" y="-89" font-family="Helvetica,sans-Serif" font-size="10.00">traits&lt;Matrix &lt;FCL_REAL</text>
<text text-anchor="middle" x="72" y="-78" font-family="Helvetica,sans-Serif" font-size="10.00"> , 3, Cols&gt; &gt;::Options &gt;</text>
</g>
<!-- Node6&#45;&gt;Node5 -->
<g id="edge5" class="edge"><title>Node6&#45;&gt;Node5</title>
<path fill="none" stroke="midnightblue" d="M147.655,-80.8097C159.123,-78.3228 170.805,-75.7893 181.814,-73.4018"/>
<polygon fill="midnightblue" stroke="midnightblue" points="146.686,-77.4384 137.655,-82.9784 148.17,-84.2794 146.686,-77.4384"/>
</g>
<!-- Node7 -->
<g id="node7" class="node"><title>Node7</title>
<g id="a_node7"><a xlink:href="a00073.html" target="_top" xlink:title="fcl::FclType\&lt; FclMatrix\l\&lt; FCL_REAL, Cols, internal\l::traits\&lt; Matrix\&lt; FCL_REAL,\l 3, Cols \&gt; \&gt;::Options \&gt; \&gt;">
<polygon fill="white" stroke="black" points="0.5,-0 0.5,-52 143.5,-52 143.5,-0 0.5,-0"/>
<text text-anchor="start" x="8.5" y="-40" font-family="Helvetica,sans-Serif" font-size="10.00">fcl::FclType&lt; FclMatrix</text>
<text text-anchor="start" x="8.5" y="-29" font-family="Helvetica,sans-Serif" font-size="10.00">&lt; FCL_REAL, Cols, internal</text>
<text text-anchor="start" x="8.5" y="-18" font-family="Helvetica,sans-Serif" font-size="10.00">::traits&lt; Matrix&lt; FCL_REAL,</text>
<text text-anchor="middle" x="72" y="-7" font-family="Helvetica,sans-Serif" font-size="10.00"> 3, Cols &gt; &gt;::Options &gt; &gt;</text>
</a>
</g>
</g>
<!-- Node7&#45;&gt;Node5 -->
<g id="edge6" class="edge"><title>Node7&#45;&gt;Node5</title>
<path fill="none" stroke="midnightblue" d="M153.751,-43.0258C163.257,-45.03 172.802,-47.0425 181.887,-48.958"/>
<polygon fill="midnightblue" stroke="midnightblue" points="154.387,-39.5831 143.88,-40.9447 152.943,-46.4325 154.387,-39.5831"/>
</g>
</g>
</svg>
