<?xml version="1.0" encoding="UTF-8" standalone="no"?>
<!DOCTYPE svg PUBLIC "-//W3C//DTD SVG 1.1//EN"
 "http://www.w3.org/Graphics/SVG/1.1/DTD/svg11.dtd">
<!-- Generated by graphviz version 2.36.0 (20140111.2315)
 -->
<!-- Title: fcl::details::GJK::Simplex Pages: 1 -->
<svg width="588pt" height="131pt"
 viewBox="0.00 0.00 588.00 131.00" xmlns="http://www.w3.org/2000/svg" xmlns:xlink="http://www.w3.org/1999/xlink">
<g id="graph0" class="graph" transform="scale(1 1) rotate(0) translate(4 127)">
<title>fcl::details::GJK::Simplex</title>
<polygon fill="white" stroke="none" points="-4,4 -4,-127 584,-127 584,4 -4,4"/>
<!-- Node1 -->
<g id="node1" class="node"><title>Node1</title>
<polygon fill="#bfbfbf" stroke="black" points="486.5,-46 486.5,-76 579.5,-76 579.5,-46 486.5,-46"/>
<text text-anchor="start" x="494.5" y="-64" font-family="Helvetica,sans-Serif" font-size="10.00">fcl::details::GJK::</text>
<text text-anchor="middle" x="533" y="-53" font-family="Helvetica,sans-Serif" font-size="10.00">Simplex</text>
</g>
<!-- Node2 -->
<g id="node2" class="node"><title>Node2</title>
<g id="a_node2"><a xlink:href="a00221.html" target="_top" xlink:title="fcl::details::GJK::\lSimplexV">
<polygon fill="white" stroke="black" points="346.5,-46 346.5,-76 439.5,-76 439.5,-46 346.5,-46"/>
<text text-anchor="start" x="354.5" y="-64" font-family="Helvetica,sans-Serif" font-size="10.00">fcl::details::GJK::</text>
<text text-anchor="middle" x="393" y="-53" font-family="Helvetica,sans-Serif" font-size="10.00">SimplexV</text>
</a>
</g>
</g>
<!-- Node2&#45;&gt;Node1 -->
<g id="edge1" class="edge"><title>Node2&#45;&gt;Node1</title>
<path fill="none" stroke="#9a32cd" stroke-dasharray="5,2" d="M449.668,-61C461.897,-61 474.706,-61 486.479,-61"/>
<polygon fill="#9a32cd" stroke="#9a32cd" points="449.569,-57.5001 439.569,-61 449.569,-64.5001 449.569,-57.5001"/>
<text text-anchor="middle" x="463" y="-64" font-family="Helvetica,sans-Serif" font-size="10.00"> c</text>
</g>
<!-- Node3 -->
<g id="node3" class="node"><title>Node3</title>
<g id="a_node3"><a xlink:href="a00069.html" target="_top" xlink:title="Eigen::FclMatrix\&lt; FCL\l_REAL, 1 \&gt;">
<polygon fill="white" stroke="black" points="182,-46 182,-76 298,-76 298,-46 182,-46"/>
<text text-anchor="start" x="190" y="-64" font-family="Helvetica,sans-Serif" font-size="10.00">Eigen::FclMatrix&lt; FCL</text>
<text text-anchor="middle" x="240" y="-53" font-family="Helvetica,sans-Serif" font-size="10.00">_REAL, 1 &gt;</text>
</a>
</g>
</g>
<!-- Node3&#45;&gt;Node2 -->
<g id="edge2" class="edge"><title>Node3&#45;&gt;Node2</title>
<path fill="none" stroke="#9a32cd" stroke-dasharray="5,2" d="M308.254,-61C321.053,-61 334.172,-61 346.115,-61"/>
<polygon fill="#9a32cd" stroke="#9a32cd" points="308.087,-57.5001 298.087,-61 308.087,-64.5001 308.087,-57.5001"/>
<text text-anchor="middle" x="322" y="-75" font-family="Helvetica,sans-Serif" font-size="10.00"> w</text>
<text text-anchor="middle" x="322" y="-64" font-family="Helvetica,sans-Serif" font-size="10.00">d</text>
</g>
<!-- Node4 -->
<g id="node4" class="node"><title>Node4</title>
<polygon fill="white" stroke="#bfbfbf" points="6.5,-71 6.5,-123 137.5,-123 137.5,-71 6.5,-71"/>
<text text-anchor="start" x="14.5" y="-111" font-family="Helvetica,sans-Serif" font-size="10.00">Matrix&lt; FCL_REAL ,</text>
<text text-anchor="start" x="14.5" y="-100" font-family="Helvetica,sans-Serif" font-size="10.00"> 3, Cols, internal::</text>
<text text-anchor="start" x="14.5" y="-89" font-family="Helvetica,sans-Serif" font-size="10.00">traits&lt;Matrix &lt;FCL_REAL</text>
<text text-anchor="middle" x="72" y="-78" font-family="Helvetica,sans-Serif" font-size="10.00"> , 3, Cols&gt; &gt;::Options &gt;</text>
</g>
<!-- Node4&#45;&gt;Node3 -->
<g id="edge3" class="edge"><title>Node4&#45;&gt;Node3</title>
<path fill="none" stroke="midnightblue" d="M147.655,-80.8097C159.123,-78.3228 170.805,-75.7893 181.814,-73.4018"/>
<polygon fill="midnightblue" stroke="midnightblue" points="146.686,-77.4384 137.655,-82.9784 148.17,-84.2794 146.686,-77.4384"/>
</g>
<!-- Node5 -->
<g id="node5" class="node"><title>Node5</title>
<g id="a_node5"><a xlink:href="a00073.html" target="_top" xlink:title="fcl::FclType\&lt; FclMatrix\l\&lt; FCL_REAL, Cols, internal\l::traits\&lt; Matrix\&lt; FCL_REAL,\l 3, Cols \&gt; \&gt;::Options \&gt; \&gt;">
<polygon fill="white" stroke="black" points="0.5,-0 0.5,-52 143.5,-52 143.5,-0 0.5,-0"/>
<text text-anchor="start" x="8.5" y="-40" font-family="Helvetica,sans-Serif" font-size="10.00">fcl::FclType&lt; FclMatrix</text>
<text text-anchor="start" x="8.5" y="-29" font-family="Helvetica,sans-Serif" font-size="10.00">&lt; FCL_REAL, Cols, internal</text>
<text text-anchor="start" x="8.5" y="-18" font-family="Helvetica,sans-Serif" font-size="10.00">::traits&lt; Matrix&lt; FCL_REAL,</text>
<text text-anchor="middle" x="72" y="-7" font-family="Helvetica,sans-Serif" font-size="10.00"> 3, Cols &gt; &gt;::Options &gt; &gt;</text>
</a>
</g>
</g>
<!-- Node5&#45;&gt;Node3 -->
<g id="edge4" class="edge"><title>Node5&#45;&gt;Node3</title>
<path fill="none" stroke="midnightblue" d="M153.751,-43.0258C163.257,-45.03 172.802,-47.0425 181.887,-48.958"/>
<polygon fill="midnightblue" stroke="midnightblue" points="154.387,-39.5831 143.88,-40.9447 152.943,-46.4325 154.387,-39.5831"/>
</g>
</g>
</svg>
