<?xml version="1.0" encoding="UTF-8" standalone="no"?>
<!DOCTYPE svg PUBLIC "-//W3C//DTD SVG 1.1//EN"
 "http://www.w3.org/Graphics/SVG/1.1/DTD/svg11.dtd">
<!-- Generated by graphviz version 2.36.0 (20140111.2315)
 -->
<!-- Title: fcl::SplineMotion Pages: 1 -->
<svg width="450pt" height="177pt"
 viewBox="0.00 0.00 450.00 177.00" xmlns="http://www.w3.org/2000/svg" xmlns:xlink="http://www.w3.org/1999/xlink">
<g id="graph0" class="graph" transform="scale(1 1) rotate(0) translate(4 173)">
<title>fcl::SplineMotion</title>
<polygon fill="white" stroke="none" points="-4,4 -4,-173 446,-173 446,4 -4,4"/>
<!-- Node1 -->
<g id="node1" class="node"><title>Node1</title>
<polygon fill="#bfbfbf" stroke="black" points="352.5,-46.5 352.5,-65.5 441.5,-65.5 441.5,-46.5 352.5,-46.5"/>
<text text-anchor="middle" x="397" y="-53.5" font-family="Helvetica,sans-Serif" font-size="10.00">fcl::SplineMotion</text>
</g>
<!-- Node2 -->
<g id="node2" class="node"><title>Node2</title>
<g id="a_node2"><a xlink:href="a00144.html" target="_top" xlink:title="fcl::MotionBase">
<polygon fill="white" stroke="black" points="197.5,-149.5 197.5,-168.5 282.5,-168.5 282.5,-149.5 197.5,-149.5"/>
<text text-anchor="middle" x="240" y="-156.5" font-family="Helvetica,sans-Serif" font-size="10.00">fcl::MotionBase</text>
</a>
</g>
</g>
<!-- Node2&#45;&gt;Node1 -->
<g id="edge1" class="edge"><title>Node2&#45;&gt;Node1</title>
<path fill="none" stroke="midnightblue" d="M292.958,-158.602C307.089,-156.579 321.835,-152.557 334,-145 365.032,-125.722 384.636,-84.5515 392.312,-65.7401"/>
<polygon fill="midnightblue" stroke="midnightblue" points="292.369,-155.146 282.823,-159.743 293.152,-162.102 292.369,-155.146"/>
</g>
<!-- Node3 -->
<g id="node3" class="node"><title>Node3</title>
<g id="a_node3"><a xlink:href="a00069.html" target="_top" xlink:title="Eigen::FclMatrix\&lt; FCL\l_REAL, 1 \&gt;">
<polygon fill="white" stroke="black" points="182,-46 182,-76 298,-76 298,-46 182,-46"/>
<text text-anchor="start" x="190" y="-64" font-family="Helvetica,sans-Serif" font-size="10.00">Eigen::FclMatrix&lt; FCL</text>
<text text-anchor="middle" x="240" y="-53" font-family="Helvetica,sans-Serif" font-size="10.00">_REAL, 1 &gt;</text>
</a>
</g>
</g>
<!-- Node3&#45;&gt;Node1 -->
<g id="edge2" class="edge"><title>Node3&#45;&gt;Node1</title>
<path fill="none" stroke="#9a32cd" stroke-dasharray="5,2" d="M308.355,-57.2762C310.936,-57.1753 313.491,-57.0825 316,-57 327.8,-56.6117 340.584,-56.3711 352.397,-56.2228"/>
<polygon fill="#9a32cd" stroke="#9a32cd" points="308.16,-53.7813 298.317,-57.702 308.457,-60.775 308.16,-53.7813"/>
<text text-anchor="middle" x="325" y="-137" font-family="Helvetica,sans-Serif" font-size="10.00"> RA</text>
<text text-anchor="middle" x="325" y="-126" font-family="Helvetica,sans-Serif" font-size="10.00">TC</text>
<text text-anchor="middle" x="325" y="-115" font-family="Helvetica,sans-Serif" font-size="10.00">RB</text>
<text text-anchor="middle" x="325" y="-104" font-family="Helvetica,sans-Serif" font-size="10.00">Rd</text>
<text text-anchor="middle" x="325" y="-93" font-family="Helvetica,sans-Serif" font-size="10.00">RC</text>
<text text-anchor="middle" x="325" y="-82" font-family="Helvetica,sans-Serif" font-size="10.00">TA</text>
<text text-anchor="middle" x="325" y="-71" font-family="Helvetica,sans-Serif" font-size="10.00">TB</text>
<text text-anchor="middle" x="325" y="-60" font-family="Helvetica,sans-Serif" font-size="10.00">Td</text>
</g>
<!-- Node4 -->
<g id="node4" class="node"><title>Node4</title>
<polygon fill="white" stroke="#bfbfbf" points="6.5,-71 6.5,-123 137.5,-123 137.5,-71 6.5,-71"/>
<text text-anchor="start" x="14.5" y="-111" font-family="Helvetica,sans-Serif" font-size="10.00">Matrix&lt; FCL_REAL ,</text>
<text text-anchor="start" x="14.5" y="-100" font-family="Helvetica,sans-Serif" font-size="10.00"> 3, Cols, internal::</text>
<text text-anchor="start" x="14.5" y="-89" font-family="Helvetica,sans-Serif" font-size="10.00">traits&lt;Matrix &lt;FCL_REAL</text>
<text text-anchor="middle" x="72" y="-78" font-family="Helvetica,sans-Serif" font-size="10.00"> , 3, Cols&gt; &gt;::Options &gt;</text>
</g>
<!-- Node4&#45;&gt;Node3 -->
<g id="edge3" class="edge"><title>Node4&#45;&gt;Node3</title>
<path fill="none" stroke="midnightblue" d="M147.655,-80.8097C159.123,-78.3228 170.805,-75.7893 181.814,-73.4018"/>
<polygon fill="midnightblue" stroke="midnightblue" points="146.686,-77.4384 137.655,-82.9784 148.17,-84.2794 146.686,-77.4384"/>
</g>
<!-- Node5 -->
<g id="node5" class="node"><title>Node5</title>
<g id="a_node5"><a xlink:href="a00073.html" target="_top" xlink:title="fcl::FclType\&lt; FclMatrix\l\&lt; FCL_REAL, Cols, internal\l::traits\&lt; Matrix\&lt; FCL_REAL,\l 3, Cols \&gt; \&gt;::Options \&gt; \&gt;">
<polygon fill="white" stroke="black" points="0.5,-0 0.5,-52 143.5,-52 143.5,-0 0.5,-0"/>
<text text-anchor="start" x="8.5" y="-40" font-family="Helvetica,sans-Serif" font-size="10.00">fcl::FclType&lt; FclMatrix</text>
<text text-anchor="start" x="8.5" y="-29" font-family="Helvetica,sans-Serif" font-size="10.00">&lt; FCL_REAL, Cols, internal</text>
<text text-anchor="start" x="8.5" y="-18" font-family="Helvetica,sans-Serif" font-size="10.00">::traits&lt; Matrix&lt; FCL_REAL,</text>
<text text-anchor="middle" x="72" y="-7" font-family="Helvetica,sans-Serif" font-size="10.00"> 3, Cols &gt; &gt;::Options &gt; &gt;</text>
</a>
</g>
</g>
<!-- Node5&#45;&gt;Node3 -->
<g id="edge4" class="edge"><title>Node5&#45;&gt;Node3</title>
<path fill="none" stroke="midnightblue" d="M153.751,-43.0258C163.257,-45.03 172.802,-47.0425 181.887,-48.958"/>
<polygon fill="midnightblue" stroke="midnightblue" points="154.387,-39.5831 143.88,-40.9447 152.943,-46.4325 154.387,-39.5831"/>
</g>
<!-- Node6 -->
<g id="node6" class="node"><title>Node6</title>
<g id="a_node6"><a xlink:href="a00242.html" target="_top" xlink:title="Simple transform class used locally by InterpMotion. ">
<polygon fill="white" stroke="black" points="197,-7.5 197,-26.5 283,-26.5 283,-7.5 197,-7.5"/>
<text text-anchor="middle" x="240" y="-14.5" font-family="Helvetica,sans-Serif" font-size="10.00">fcl::Transform3f</text>
</a>
</g>
</g>
<!-- Node6&#45;&gt;Node1 -->
<g id="edge5" class="edge"><title>Node6&#45;&gt;Node1</title>
<path fill="none" stroke="#9a32cd" stroke-dasharray="5,2" d="M288.86,-29.0422C311.162,-34.6537 337.32,-41.2353 358.206,-46.4905"/>
<polygon fill="#9a32cd" stroke="#9a32cd" points="289.469,-25.5864 278.917,-26.5405 287.761,-32.3748 289.469,-25.5864"/>
<text text-anchor="middle" x="325" y="-43" font-family="Helvetica,sans-Serif" font-size="10.00"> tf</text>
</g>
</g>
</svg>
