<?xml version="1.0" encoding="UTF-8" standalone="no"?>
<!DOCTYPE svg PUBLIC "-//W3C//DTD SVG 1.1//EN"
 "http://www.w3.org/Graphics/SVG/1.1/DTD/svg11.dtd">
<!-- Generated by graphviz version 2.36.0 (20140111.2315)
 -->
<!-- Title: fcl::TBVMotionBoundVisitor&lt; BV &gt; Pages: 1 -->
<svg width="510pt" height="161pt"
 viewBox="0.00 0.00 510.00 161.00" xmlns="http://www.w3.org/2000/svg" xmlns:xlink="http://www.w3.org/1999/xlink">
<g id="graph0" class="graph" transform="scale(1 1) rotate(0) translate(4 157)">
<title>fcl::TBVMotionBoundVisitor&lt; BV &gt;</title>
<polygon fill="white" stroke="none" points="-4,4 -4,-157 506,-157 506,4 -4,4"/>
<!-- Node1 -->
<g id="node1" class="node"><title>Node1</title>
<polygon fill="#bfbfbf" stroke="black" points="364.5,-90 364.5,-120 501.5,-120 501.5,-90 364.5,-90"/>
<text text-anchor="start" x="372.5" y="-108" font-family="Helvetica,sans-Serif" font-size="10.00">fcl::TBVMotionBoundVisitor</text>
<text text-anchor="middle" x="433" y="-97" font-family="Helvetica,sans-Serif" font-size="10.00">&lt; BV &gt;</text>
</g>
<!-- Node2 -->
<g id="node2" class="node"><title>Node2</title>
<g id="a_node2"><a xlink:href="a00025.html" target="_top" xlink:title="Compute the motion bound for a bounding volume, given the closest direction n between two query objec...">
<polygon fill="white" stroke="black" points="182.5,-133.5 182.5,-152.5 313.5,-152.5 313.5,-133.5 182.5,-133.5"/>
<text text-anchor="middle" x="248" y="-140.5" font-family="Helvetica,sans-Serif" font-size="10.00">fcl::BVMotionBoundVisitor</text>
</a>
</g>
</g>
<!-- Node2&#45;&gt;Node1 -->
<g id="edge1" class="edge"><title>Node2&#45;&gt;Node1</title>
<path fill="none" stroke="midnightblue" d="M305.033,-131.365C323.775,-127.473 344.865,-123.094 364.394,-119.038"/>
<polygon fill="midnightblue" stroke="midnightblue" points="304.258,-127.951 295.179,-133.411 305.681,-134.805 304.258,-127.951"/>
</g>
<!-- Node3 -->
<g id="node3" class="node"><title>Node3</title>
<polygon fill="white" stroke="#bfbfbf" points="233,-95.5 233,-114.5 263,-114.5 263,-95.5 233,-95.5"/>
<text text-anchor="middle" x="248" y="-102.5" font-family="Helvetica,sans-Serif" font-size="10.00">BV</text>
</g>
<!-- Node3&#45;&gt;Node1 -->
<g id="edge2" class="edge"><title>Node3&#45;&gt;Node1</title>
<path fill="none" stroke="#9a32cd" stroke-dasharray="5,2" d="M273.345,-105C296.555,-105 332.594,-105 364.461,-105"/>
<polygon fill="#9a32cd" stroke="#9a32cd" points="273.056,-101.5 263.056,-105 273.056,-108.5 273.056,-101.5"/>
<text text-anchor="middle" x="339" y="-108" font-family="Helvetica,sans-Serif" font-size="10.00"> bv</text>
</g>
<!-- Node4 -->
<g id="node4" class="node"><title>Node4</title>
<g id="a_node4"><a xlink:href="a00069.html" target="_top" xlink:title="Eigen::FclMatrix\&lt; FCL\l_REAL, 1 \&gt;">
<polygon fill="white" stroke="black" points="190,-46 190,-76 306,-76 306,-46 190,-46"/>
<text text-anchor="start" x="198" y="-64" font-family="Helvetica,sans-Serif" font-size="10.00">Eigen::FclMatrix&lt; FCL</text>
<text text-anchor="middle" x="248" y="-53" font-family="Helvetica,sans-Serif" font-size="10.00">_REAL, 1 &gt;</text>
</a>
</g>
</g>
<!-- Node4&#45;&gt;Node1 -->
<g id="edge3" class="edge"><title>Node4&#45;&gt;Node1</title>
<path fill="none" stroke="#9a32cd" stroke-dasharray="5,2" d="M316.249,-77.169C333.685,-81.3614 352.388,-85.8583 369.566,-89.9884"/>
<polygon fill="#9a32cd" stroke="#9a32cd" points="316.691,-73.6757 306.15,-74.7409 315.054,-80.4817 316.691,-73.6757"/>
<text text-anchor="middle" x="339" y="-88" font-family="Helvetica,sans-Serif" font-size="10.00"> n</text>
</g>
<!-- Node5 -->
<g id="node5" class="node"><title>Node5</title>
<polygon fill="white" stroke="#bfbfbf" points="6.5,-71 6.5,-123 137.5,-123 137.5,-71 6.5,-71"/>
<text text-anchor="start" x="14.5" y="-111" font-family="Helvetica,sans-Serif" font-size="10.00">Matrix&lt; FCL_REAL ,</text>
<text text-anchor="start" x="14.5" y="-100" font-family="Helvetica,sans-Serif" font-size="10.00"> 3, Cols, internal::</text>
<text text-anchor="start" x="14.5" y="-89" font-family="Helvetica,sans-Serif" font-size="10.00">traits&lt;Matrix &lt;FCL_REAL</text>
<text text-anchor="middle" x="72" y="-78" font-family="Helvetica,sans-Serif" font-size="10.00"> , 3, Cols&gt; &gt;::Options &gt;</text>
</g>
<!-- Node5&#45;&gt;Node4 -->
<g id="edge4" class="edge"><title>Node5&#45;&gt;Node4</title>
<path fill="none" stroke="midnightblue" d="M147.931,-81.4971C161.99,-78.5883 176.477,-75.5909 189.887,-72.8166"/>
<polygon fill="midnightblue" stroke="midnightblue" points="146.875,-78.1414 137.791,-83.5949 148.293,-84.9962 146.875,-78.1414"/>
</g>
<!-- Node6 -->
<g id="node6" class="node"><title>Node6</title>
<g id="a_node6"><a xlink:href="a00073.html" target="_top" xlink:title="fcl::FclType\&lt; FclMatrix\l\&lt; FCL_REAL, Cols, internal\l::traits\&lt; Matrix\&lt; FCL_REAL,\l 3, Cols \&gt; \&gt;::Options \&gt; \&gt;">
<polygon fill="white" stroke="black" points="0.5,-0 0.5,-52 143.5,-52 143.5,-0 0.5,-0"/>
<text text-anchor="start" x="8.5" y="-40" font-family="Helvetica,sans-Serif" font-size="10.00">fcl::FclType&lt; FclMatrix</text>
<text text-anchor="start" x="8.5" y="-29" font-family="Helvetica,sans-Serif" font-size="10.00">&lt; FCL_REAL, Cols, internal</text>
<text text-anchor="start" x="8.5" y="-18" font-family="Helvetica,sans-Serif" font-size="10.00">::traits&lt; Matrix&lt; FCL_REAL,</text>
<text text-anchor="middle" x="72" y="-7" font-family="Helvetica,sans-Serif" font-size="10.00"> 3, Cols &gt; &gt;::Options &gt; &gt;</text>
</a>
</g>
</g>
<!-- Node6&#45;&gt;Node4 -->
<g id="edge5" class="edge"><title>Node6&#45;&gt;Node4</title>
<path fill="none" stroke="midnightblue" d="M153.375,-42.1674C165.733,-44.6533 178.271,-47.1752 189.983,-49.531"/>
<polygon fill="midnightblue" stroke="midnightblue" points="154.015,-38.7262 143.522,-40.1854 152.635,-45.5887 154.015,-38.7262"/>
</g>
</g>
</svg>
