<?xml version="1.0" encoding="UTF-8" standalone="no"?>
<!DOCTYPE svg PUBLIC "-//W3C//DTD SVG 1.1//EN"
 "http://www.w3.org/Graphics/SVG/1.1/DTD/svg11.dtd">
<!-- Generated by graphviz version 2.36.0 (20140111.2315)
 -->
<!-- Title: fcl::TraversalNodeBase Pages: 1 -->
<svg width="798pt" height="1940pt"
 viewBox="0.00 0.00 798.00 1940.00" xmlns="http://www.w3.org/2000/svg" xmlns:xlink="http://www.w3.org/1999/xlink">
<g id="graph0" class="graph" transform="scale(1 1) rotate(0) translate(4 1936)">
<title>fcl::TraversalNodeBase</title>
<polygon fill="white" stroke="none" points="-4,4 -4,-1936 794,-1936 794,4 -4,4"/>
<!-- Node1 -->
<g id="node1" class="node"><title>Node1</title>
<polygon fill="#bfbfbf" stroke="black" points="0.5,-925.5 0.5,-944.5 119.5,-944.5 119.5,-925.5 0.5,-925.5"/>
<text text-anchor="middle" x="60" y="-932.5" font-family="Helvetica,sans-Serif" font-size="10.00">fcl::TraversalNodeBase</text>
</g>
<!-- Node2 -->
<g id="node2" class="node"><title>Node2</title>
<g id="a_node2"><a xlink:href="a00036.html" target="_top" xlink:title="Node structure encoding the information required for collision traversal. ">
<polygon fill="white" stroke="black" points="156.5,-1385.5 156.5,-1404.5 313.5,-1404.5 313.5,-1385.5 156.5,-1385.5"/>
<text text-anchor="middle" x="235" y="-1392.5" font-family="Helvetica,sans-Serif" font-size="10.00">fcl::CollisionTraversalNodeBase</text>
</a>
</g>
</g>
<!-- Node1&#45;&gt;Node2 -->
<g id="edge1" class="edge"><title>Node1&#45;&gt;Node2</title>
<path fill="none" stroke="midnightblue" d="M68.2248,-954.211C97.7843,-1032.81 208.959,-1328.42 230.407,-1385.45"/>
<polygon fill="midnightblue" stroke="midnightblue" points="71.4095,-952.736 64.6134,-944.608 64.8576,-955.2 71.4095,-952.736"/>
</g>
<!-- Node31 -->
<g id="node31" class="node"><title>Node31</title>
<g id="a_node31"><a xlink:href="a00056.html" target="_top" xlink:title="Node structure encoding the information required for distance traversal. ">
<polygon fill="white" stroke="black" points="156,-466.5 156,-485.5 314,-485.5 314,-466.5 156,-466.5"/>
<text text-anchor="middle" x="235" y="-473.5" font-family="Helvetica,sans-Serif" font-size="10.00">fcl::DistanceTraversalNodeBase</text>
</a>
</g>
</g>
<!-- Node1&#45;&gt;Node31 -->
<g id="edge30" class="edge"><title>Node1&#45;&gt;Node31</title>
<path fill="none" stroke="midnightblue" d="M68.2248,-915.831C97.7843,-837.405 208.959,-542.438 230.407,-485.534"/>
<polygon fill="midnightblue" stroke="midnightblue" points="64.8652,-914.821 64.6134,-925.413 71.4154,-917.29 64.8652,-914.821"/>
</g>
<!-- Node3 -->
<g id="node3" class="node"><title>Node3</title>
<g id="a_node3"><a xlink:href="a00018.html" target="_top" xlink:title="fcl::BVHCollisionTraversal\lNode\&lt; kIOS \&gt;">
<polygon fill="white" stroke="black" points="383,-1902 383,-1932 515,-1932 515,-1902 383,-1902"/>
<text text-anchor="start" x="391" y="-1920" font-family="Helvetica,sans-Serif" font-size="10.00">fcl::BVHCollisionTraversal</text>
<text text-anchor="middle" x="449" y="-1909" font-family="Helvetica,sans-Serif" font-size="10.00">Node&lt; kIOS &gt;</text>
</a>
</g>
</g>
<!-- Node2&#45;&gt;Node3 -->
<g id="edge2" class="edge"><title>Node2&#45;&gt;Node3</title>
<path fill="none" stroke="midnightblue" d="M237.808,-1414.65C245.87,-1498.02 281.202,-1821.51 350,-1892 358.892,-1901.11 370.607,-1907.07 382.833,-1910.92"/>
<polygon fill="midnightblue" stroke="midnightblue" points="241.277,-1414.15 236.851,-1404.53 234.308,-1414.81 241.277,-1414.15"/>
</g>
<!-- Node5 -->
<g id="node5" class="node"><title>Node5</title>
<g id="a_node5"><a xlink:href="a00018.html" target="_top" xlink:title="fcl::BVHCollisionTraversal\lNode\&lt; OBB \&gt;">
<polygon fill="white" stroke="black" points="383,-1853 383,-1883 515,-1883 515,-1853 383,-1853"/>
<text text-anchor="start" x="391" y="-1871" font-family="Helvetica,sans-Serif" font-size="10.00">fcl::BVHCollisionTraversal</text>
<text text-anchor="middle" x="449" y="-1860" font-family="Helvetica,sans-Serif" font-size="10.00">Node&lt; OBB &gt;</text>
</a>
</g>
</g>
<!-- Node2&#45;&gt;Node5 -->
<g id="edge4" class="edge"><title>Node2&#45;&gt;Node5</title>
<path fill="none" stroke="midnightblue" d="M238.341,-1414.69C248.025,-1492.89 287.41,-1780.37 350,-1843 358.999,-1852 370.761,-1857.91 382.999,-1861.76"/>
<polygon fill="midnightblue" stroke="midnightblue" points="241.81,-1414.22 237.128,-1404.72 234.861,-1415.07 241.81,-1414.22"/>
</g>
<!-- Node7 -->
<g id="node7" class="node"><title>Node7</title>
<g id="a_node7"><a xlink:href="a00018.html" target="_top" xlink:title="fcl::BVHCollisionTraversal\lNode\&lt; OBBRSS \&gt;">
<polygon fill="white" stroke="black" points="383,-1804 383,-1834 515,-1834 515,-1804 383,-1804"/>
<text text-anchor="start" x="391" y="-1822" font-family="Helvetica,sans-Serif" font-size="10.00">fcl::BVHCollisionTraversal</text>
<text text-anchor="middle" x="449" y="-1811" font-family="Helvetica,sans-Serif" font-size="10.00">Node&lt; OBBRSS &gt;</text>
</a>
</g>
</g>
<!-- Node2&#45;&gt;Node7 -->
<g id="edge6" class="edge"><title>Node2&#45;&gt;Node7</title>
<path fill="none" stroke="midnightblue" d="M235.273,-1414.89C234.053,-1479.65 239.367,-1686.48 350,-1794 359.066,-1802.81 370.784,-1808.64 382.946,-1812.48"/>
<polygon fill="midnightblue" stroke="midnightblue" points="238.774,-1414.9 235.542,-1404.81 231.777,-1414.72 238.774,-1414.9"/>
</g>
<!-- Node9 -->
<g id="node9" class="node"><title>Node9</title>
<g id="a_node9"><a xlink:href="a00018.html" target="_top" xlink:title="fcl::BVHCollisionTraversal\lNode\&lt; RSS \&gt;">
<polygon fill="white" stroke="black" points="383,-1755 383,-1785 515,-1785 515,-1755 383,-1755"/>
<text text-anchor="start" x="391" y="-1773" font-family="Helvetica,sans-Serif" font-size="10.00">fcl::BVHCollisionTraversal</text>
<text text-anchor="middle" x="449" y="-1762" font-family="Helvetica,sans-Serif" font-size="10.00">Node&lt; RSS &gt;</text>
</a>
</g>
</g>
<!-- Node2&#45;&gt;Node9 -->
<g id="edge8" class="edge"><title>Node2&#45;&gt;Node9</title>
<path fill="none" stroke="midnightblue" d="M236.198,-1414.75C237.91,-1474.13 251.411,-1652.63 350,-1745 359.162,-1753.58 370.85,-1759.32 382.94,-1763.14"/>
<polygon fill="midnightblue" stroke="midnightblue" points="239.692,-1414.45 235.991,-1404.52 232.694,-1414.59 239.692,-1414.45"/>
</g>
<!-- Node11 -->
<g id="node11" class="node"><title>Node11</title>
<g id="a_node11"><a xlink:href="a00023.html" target="_top" xlink:title="fcl::BVHShapeCollisionTraversal\lNode\&lt; kIOS, S \&gt;">
<polygon fill="white" stroke="black" points="369,-1706 369,-1736 529,-1736 529,-1706 369,-1706"/>
<text text-anchor="start" x="377" y="-1724" font-family="Helvetica,sans-Serif" font-size="10.00">fcl::BVHShapeCollisionTraversal</text>
<text text-anchor="middle" x="449" y="-1713" font-family="Helvetica,sans-Serif" font-size="10.00">Node&lt; kIOS, S &gt;</text>
</a>
</g>
</g>
<!-- Node2&#45;&gt;Node11 -->
<g id="edge10" class="edge"><title>Node2&#45;&gt;Node11</title>
<path fill="none" stroke="midnightblue" d="M237.397,-1414.8C242.291,-1468.6 263.434,-1618.65 350,-1696 355.499,-1700.91 361.832,-1704.89 368.576,-1708.1"/>
<polygon fill="midnightblue" stroke="midnightblue" points="240.865,-1414.26 236.563,-1404.58 233.888,-1414.83 240.865,-1414.26"/>
</g>
<!-- Node13 -->
<g id="node13" class="node"><title>Node13</title>
<g id="a_node13"><a xlink:href="a00023.html" target="_top" xlink:title="fcl::BVHShapeCollisionTraversal\lNode\&lt; OBB, S \&gt;">
<polygon fill="white" stroke="black" points="369,-1657 369,-1687 529,-1687 529,-1657 369,-1657"/>
<text text-anchor="start" x="377" y="-1675" font-family="Helvetica,sans-Serif" font-size="10.00">fcl::BVHShapeCollisionTraversal</text>
<text text-anchor="middle" x="449" y="-1664" font-family="Helvetica,sans-Serif" font-size="10.00">Node&lt; OBB, S &gt;</text>
</a>
</g>
</g>
<!-- Node2&#45;&gt;Node13 -->
<g id="edge12" class="edge"><title>Node2&#45;&gt;Node13</title>
<path fill="none" stroke="midnightblue" d="M238.949,-1414.41C247.207,-1461.8 275.064,-1584.15 350,-1647 355.651,-1651.74 362.085,-1655.6 368.894,-1658.73"/>
<polygon fill="midnightblue" stroke="midnightblue" points="242.401,-1413.82 237.327,-1404.52 235.493,-1414.96 242.401,-1413.82"/>
</g>
<!-- Node15 -->
<g id="node15" class="node"><title>Node15</title>
<g id="a_node15"><a xlink:href="a00023.html" target="_top" xlink:title="fcl::BVHShapeCollisionTraversal\lNode\&lt; OBBRSS, S \&gt;">
<polygon fill="white" stroke="black" points="369,-1608 369,-1638 529,-1638 529,-1608 369,-1608"/>
<text text-anchor="start" x="377" y="-1626" font-family="Helvetica,sans-Serif" font-size="10.00">fcl::BVHShapeCollisionTraversal</text>
<text text-anchor="middle" x="449" y="-1615" font-family="Helvetica,sans-Serif" font-size="10.00">Node&lt; OBBRSS, S &gt;</text>
</a>
</g>
</g>
<!-- Node2&#45;&gt;Node15 -->
<g id="edge14" class="edge"><title>Node2&#45;&gt;Node15</title>
<path fill="none" stroke="midnightblue" d="M241.318,-1414.69C253.391,-1455.5 286.843,-1549.54 350,-1598 355.712,-1602.38 362.108,-1606 368.822,-1608.99"/>
<polygon fill="midnightblue" stroke="midnightblue" points="244.631,-1413.54 238.53,-1404.88 237.898,-1415.46 244.631,-1413.54"/>
</g>
<!-- Node17 -->
<g id="node17" class="node"><title>Node17</title>
<g id="a_node17"><a xlink:href="a00023.html" target="_top" xlink:title="fcl::BVHShapeCollisionTraversal\lNode\&lt; RSS, S \&gt;">
<polygon fill="white" stroke="red" points="369,-1559 369,-1589 529,-1589 529,-1559 369,-1559"/>
<text text-anchor="start" x="377" y="-1577" font-family="Helvetica,sans-Serif" font-size="10.00">fcl::BVHShapeCollisionTraversal</text>
<text text-anchor="middle" x="449" y="-1566" font-family="Helvetica,sans-Serif" font-size="10.00">Node&lt; RSS, S &gt;</text>
</a>
</g>
</g>
<!-- Node2&#45;&gt;Node17 -->
<g id="edge16" class="edge"><title>Node2&#45;&gt;Node17</title>
<path fill="none" stroke="midnightblue" d="M244.72,-1414.13C260.711,-1447 297.93,-1514.01 350,-1549 355.83,-1552.92 362.23,-1556.22 368.881,-1559.01"/>
<polygon fill="midnightblue" stroke="midnightblue" points="247.72,-1412.29 240.282,-1404.75 241.392,-1415.28 247.72,-1412.29"/>
</g>
<!-- Node18 -->
<g id="node18" class="node"><title>Node18</title>
<g id="a_node18"><a xlink:href="a00018.html" target="_top" xlink:title="Traversal node for collision between BVH models. ">
<polygon fill="white" stroke="red" points="383,-1510 383,-1540 515,-1540 515,-1510 383,-1510"/>
<text text-anchor="start" x="391" y="-1528" font-family="Helvetica,sans-Serif" font-size="10.00">fcl::BVHCollisionTraversal</text>
<text text-anchor="middle" x="449" y="-1517" font-family="Helvetica,sans-Serif" font-size="10.00">Node&lt; BV &gt;</text>
</a>
</g>
</g>
<!-- Node2&#45;&gt;Node18 -->
<g id="edge17" class="edge"><title>Node2&#45;&gt;Node18</title>
<path fill="none" stroke="midnightblue" d="M249.83,-1412.25C269.564,-1435.68 308.081,-1477.26 350,-1500 360.109,-1505.48 371.461,-1509.8 382.757,-1513.18"/>
<polygon fill="midnightblue" stroke="midnightblue" points="252.503,-1409.99 243.438,-1404.5 247.104,-1414.44 252.503,-1409.99"/>
</g>
<!-- Node19 -->
<g id="node19" class="node"><title>Node19</title>
<g id="a_node19"><a xlink:href="a00023.html" target="_top" xlink:title="Traversal node for collision between BVH and shape. ">
<polygon fill="white" stroke="red" points="369,-1461 369,-1491 529,-1491 529,-1461 369,-1461"/>
<text text-anchor="start" x="377" y="-1479" font-family="Helvetica,sans-Serif" font-size="10.00">fcl::BVHShapeCollisionTraversal</text>
<text text-anchor="middle" x="449" y="-1468" font-family="Helvetica,sans-Serif" font-size="10.00">Node&lt; BV, S &gt;</text>
</a>
</g>
</g>
<!-- Node2&#45;&gt;Node19 -->
<g id="edge18" class="edge"><title>Node2&#45;&gt;Node19</title>
<path fill="none" stroke="midnightblue" d="M261.866,-1409.63C284.541,-1421.98 318.681,-1439.45 350,-1451 359.967,-1454.67 370.697,-1458.01 381.272,-1460.96"/>
<polygon fill="midnightblue" stroke="midnightblue" points="263.339,-1406.45 252.892,-1404.68 259.959,-1412.58 263.339,-1406.45"/>
</g>
<!-- Node20 -->
<g id="node20" class="node"><title>Node20</title>
<g id="a_node20"><a xlink:href="a00122.html" target="_top" xlink:title="Traversal node for mesh&#45;octree collision. ">
<polygon fill="white" stroke="black" points="365,-1401.5 365,-1442.5 533,-1442.5 533,-1401.5 365,-1401.5"/>
<text text-anchor="start" x="373" y="-1430.5" font-family="Helvetica,sans-Serif" font-size="10.00">fcl::MeshOcTreeCollision</text>
<text text-anchor="start" x="373" y="-1419.5" font-family="Helvetica,sans-Serif" font-size="10.00">TraversalNode&lt; BV, NarrowPhase</text>
<text text-anchor="middle" x="449" y="-1408.5" font-family="Helvetica,sans-Serif" font-size="10.00">Solver &gt;</text>
</a>
</g>
</g>
<!-- Node2&#45;&gt;Node20 -->
<g id="edge19" class="edge"><title>Node2&#45;&gt;Node20</title>
<path fill="none" stroke="midnightblue" d="M320.718,-1405.79C335.276,-1407.64 350.393,-1409.57 364.907,-1411.42"/>
<polygon fill="midnightblue" stroke="midnightblue" points="321.105,-1402.31 310.743,-1404.52 320.221,-1409.25 321.105,-1402.31"/>
</g>
<!-- Node21 -->
<g id="node21" class="node"><title>Node21</title>
<g id="a_node21"><a xlink:href="a00157.html" target="_top" xlink:title="Traversal node for octree collision. ">
<polygon fill="white" stroke="black" points="376.5,-1353 376.5,-1383 521.5,-1383 521.5,-1353 376.5,-1353"/>
<text text-anchor="start" x="384.5" y="-1371" font-family="Helvetica,sans-Serif" font-size="10.00">fcl::OcTreeCollisionTraversal</text>
<text text-anchor="middle" x="449" y="-1360" font-family="Helvetica,sans-Serif" font-size="10.00">Node&lt; NarrowPhaseSolver &gt;</text>
</a>
</g>
</g>
<!-- Node2&#45;&gt;Node21 -->
<g id="edge20" class="edge"><title>Node2&#45;&gt;Node21</title>
<path fill="none" stroke="midnightblue" d="M320.867,-1384.19C339.28,-1381.85 358.581,-1379.39 376.422,-1377.12"/>
<polygon fill="midnightblue" stroke="midnightblue" points="320.221,-1380.75 310.743,-1385.48 321.105,-1387.69 320.221,-1380.75"/>
</g>
<!-- Node22 -->
<g id="node22" class="node"><title>Node22</title>
<g id="a_node22"><a xlink:href="a00159.html" target="_top" xlink:title="Traversal node for octree&#45;mesh collision. ">
<polygon fill="white" stroke="black" points="365,-1293.5 365,-1334.5 533,-1334.5 533,-1293.5 365,-1293.5"/>
<text text-anchor="start" x="373" y="-1322.5" font-family="Helvetica,sans-Serif" font-size="10.00">fcl::OcTreeMeshCollision</text>
<text text-anchor="start" x="373" y="-1311.5" font-family="Helvetica,sans-Serif" font-size="10.00">TraversalNode&lt; BV, NarrowPhase</text>
<text text-anchor="middle" x="449" y="-1300.5" font-family="Helvetica,sans-Serif" font-size="10.00">Solver &gt;</text>
</a>
</g>
</g>
<!-- Node2&#45;&gt;Node22 -->
<g id="edge21" class="edge"><title>Node2&#45;&gt;Node22</title>
<path fill="none" stroke="midnightblue" d="M264.58,-1381.03C287.393,-1370.17 320.336,-1355.13 350,-1344 358.746,-1340.72 368.027,-1337.52 377.255,-1334.51"/>
<polygon fill="midnightblue" stroke="midnightblue" points="262.964,-1377.92 255.463,-1385.4 265.993,-1384.23 262.964,-1377.92"/>
</g>
<!-- Node23 -->
<g id="node23" class="node"><title>Node23</title>
<g id="a_node23"><a xlink:href="a00161.html" target="_top" xlink:title="Traversal node for octree&#45;shape collision. ">
<polygon fill="white" stroke="black" points="350,-1245 350,-1275 548,-1275 548,-1245 350,-1245"/>
<text text-anchor="start" x="358" y="-1263" font-family="Helvetica,sans-Serif" font-size="10.00">fcl::OcTreeShapeCollision</text>
<text text-anchor="middle" x="449" y="-1252" font-family="Helvetica,sans-Serif" font-size="10.00">TraversalNode&lt; S, NarrowPhaseSolver &gt;</text>
</a>
</g>
</g>
<!-- Node2&#45;&gt;Node23 -->
<g id="edge22" class="edge"><title>Node2&#45;&gt;Node23</title>
<path fill="none" stroke="midnightblue" d="M249.282,-1377.06C268.625,-1352.25 306.964,-1307.85 350,-1284 356.205,-1280.56 362.899,-1277.61 369.773,-1275.08"/>
<polygon fill="midnightblue" stroke="midnightblue" points="246.326,-1375.16 243.042,-1385.23 251.891,-1379.41 246.326,-1375.16"/>
</g>
<!-- Node24 -->
<g id="node24" class="node"><title>Node24</title>
<g id="a_node24"><a xlink:href="a00199.html" target="_top" xlink:title="Traversal node for collision between shape and BVH. ">
<polygon fill="white" stroke="red" points="369,-1196 369,-1226 529,-1226 529,-1196 369,-1196"/>
<text text-anchor="start" x="377" y="-1214" font-family="Helvetica,sans-Serif" font-size="10.00">fcl::ShapeBVHCollisionTraversal</text>
<text text-anchor="middle" x="449" y="-1203" font-family="Helvetica,sans-Serif" font-size="10.00">Node&lt; S, BV &gt;</text>
</a>
</g>
</g>
<!-- Node2&#45;&gt;Node24 -->
<g id="edge23" class="edge"><title>Node2&#45;&gt;Node24</title>
<path fill="none" stroke="midnightblue" d="M244.122,-1376.17C259.605,-1342.58 296.622,-1272.46 350,-1236 355.8,-1232.04 362.179,-1228.7 368.817,-1225.9"/>
<polygon fill="midnightblue" stroke="midnightblue" points="240.907,-1374.78 240.014,-1385.34 247.296,-1377.64 240.907,-1374.78"/>
</g>
<!-- Node25 -->
<g id="node25" class="node"><title>Node25</title>
<g id="a_node25"><a xlink:href="a00201.html" target="_top" xlink:title="Traversal node for collision between two shapes. ">
<polygon fill="white" stroke="black" points="358.5,-1147 358.5,-1177 539.5,-1177 539.5,-1147 358.5,-1147"/>
<text text-anchor="start" x="366.5" y="-1165" font-family="Helvetica,sans-Serif" font-size="10.00">fcl::ShapeCollisionTraversal</text>
<text text-anchor="middle" x="449" y="-1154" font-family="Helvetica,sans-Serif" font-size="10.00">Node&lt; S1, S2, NarrowPhaseSolver &gt;</text>
</a>
</g>
</g>
<!-- Node2&#45;&gt;Node25 -->
<g id="edge24" class="edge"><title>Node2&#45;&gt;Node25</title>
<path fill="none" stroke="midnightblue" d="M240.932,-1375.68C252.515,-1334.34 285.477,-1237.04 350,-1187 354.995,-1183.13 360.523,-1179.85 366.336,-1177.07"/>
<polygon fill="midnightblue" stroke="midnightblue" points="237.55,-1374.78 238.332,-1385.34 244.309,-1376.6 237.55,-1374.78"/>
</g>
<!-- Node26 -->
<g id="node26" class="node"><title>Node26</title>
<g id="a_node26"><a xlink:href="a00216.html" target="_top" xlink:title="Traversal node for shape&#45;octree collision. ">
<polygon fill="white" stroke="black" points="350,-1098 350,-1128 548,-1128 548,-1098 350,-1098"/>
<text text-anchor="start" x="358" y="-1116" font-family="Helvetica,sans-Serif" font-size="10.00">fcl::ShapeOcTreeCollision</text>
<text text-anchor="middle" x="449" y="-1105" font-family="Helvetica,sans-Serif" font-size="10.00">TraversalNode&lt; S, NarrowPhaseSolver &gt;</text>
</a>
</g>
</g>
<!-- Node2&#45;&gt;Node26 -->
<g id="edge25" class="edge"><title>Node2&#45;&gt;Node26</title>
<path fill="none" stroke="midnightblue" d="M238.824,-1375.22C246.797,-1326.9 274.063,-1202.16 350,-1138 354.56,-1134.15 359.638,-1130.88 365.015,-1128.1"/>
<polygon fill="midnightblue" stroke="midnightblue" points="235.335,-1374.88 237.263,-1385.29 242.253,-1375.95 235.335,-1374.88"/>
</g>
<!-- Node27 -->
<g id="node27" class="node"><title>Node27</title>
<g id="a_node27"><a xlink:href="a00199.html" target="_top" xlink:title="fcl::ShapeBVHCollisionTraversal\lNode\&lt; S, kIOS \&gt;">
<polygon fill="white" stroke="red" points="369,-1049 369,-1079 529,-1079 529,-1049 369,-1049"/>
<text text-anchor="start" x="377" y="-1067" font-family="Helvetica,sans-Serif" font-size="10.00">fcl::ShapeBVHCollisionTraversal</text>
<text text-anchor="middle" x="449" y="-1056" font-family="Helvetica,sans-Serif" font-size="10.00">Node&lt; S, kIOS &gt;</text>
</a>
</g>
</g>
<!-- Node2&#45;&gt;Node27 -->
<g id="edge26" class="edge"><title>Node2&#45;&gt;Node27</title>
<path fill="none" stroke="midnightblue" d="M237.257,-1375.22C241.812,-1320.84 262.204,-1167.88 350,-1089 355.486,-1084.07 361.809,-1080.09 368.548,-1076.87"/>
<polygon fill="midnightblue" stroke="midnightblue" points="233.761,-1375.04 236.507,-1385.27 240.742,-1375.56 233.761,-1375.04"/>
</g>
<!-- Node28 -->
<g id="node28" class="node"><title>Node28</title>
<g id="a_node28"><a xlink:href="a00199.html" target="_top" xlink:title="fcl::ShapeBVHCollisionTraversal\lNode\&lt; S, OBB \&gt;">
<polygon fill="white" stroke="red" points="369,-1000 369,-1030 529,-1030 529,-1000 369,-1000"/>
<text text-anchor="start" x="377" y="-1018" font-family="Helvetica,sans-Serif" font-size="10.00">fcl::ShapeBVHCollisionTraversal</text>
<text text-anchor="middle" x="449" y="-1007" font-family="Helvetica,sans-Serif" font-size="10.00">Node&lt; S, OBB &gt;</text>
</a>
</g>
</g>
<!-- Node2&#45;&gt;Node28 -->
<g id="edge27" class="edge"><title>Node2&#45;&gt;Node28</title>
<path fill="none" stroke="midnightblue" d="M236.099,-1374.97C237.534,-1314.76 250.331,-1133.77 350,-1040 355.499,-1034.83 361.916,-1030.69 368.786,-1027.38"/>
<polygon fill="midnightblue" stroke="midnightblue" points="232.594,-1375.29 235.942,-1385.34 239.593,-1375.4 232.594,-1375.29"/>
</g>
<!-- Node29 -->
<g id="node29" class="node"><title>Node29</title>
<g id="a_node29"><a xlink:href="a00199.html" target="_top" xlink:title="fcl::ShapeBVHCollisionTraversal\lNode\&lt; S, OBBRSS \&gt;">
<polygon fill="white" stroke="red" points="369,-951 369,-981 529,-981 529,-951 369,-951"/>
<text text-anchor="start" x="377" y="-969" font-family="Helvetica,sans-Serif" font-size="10.00">fcl::ShapeBVHCollisionTraversal</text>
<text text-anchor="middle" x="449" y="-958" font-family="Helvetica,sans-Serif" font-size="10.00">Node&lt; S, OBBRSS &gt;</text>
</a>
</g>
</g>
<!-- Node2&#45;&gt;Node29 -->
<g id="edge28" class="edge"><title>Node2&#45;&gt;Node29</title>
<path fill="none" stroke="midnightblue" d="M238.98,-1374.93C250.322,-1301.17 293.041,-1046.54 350,-991 355.406,-985.729 361.761,-981.523 368.593,-978.174"/>
<polygon fill="midnightblue" stroke="midnightblue" points="235.468,-1374.74 237.432,-1385.16 242.39,-1375.79 235.468,-1374.74"/>
</g>
<!-- Node30 -->
<g id="node30" class="node"><title>Node30</title>
<g id="a_node30"><a xlink:href="a00199.html" target="_top" xlink:title="fcl::ShapeBVHCollisionTraversal\lNode\&lt; S, RSS \&gt;">
<polygon fill="white" stroke="red" points="369,-902 369,-932 529,-932 529,-902 369,-902"/>
<text text-anchor="start" x="377" y="-920" font-family="Helvetica,sans-Serif" font-size="10.00">fcl::ShapeBVHCollisionTraversal</text>
<text text-anchor="middle" x="449" y="-909" font-family="Helvetica,sans-Serif" font-size="10.00">Node&lt; S, RSS &gt;</text>
</a>
</g>
</g>
<!-- Node2&#45;&gt;Node30 -->
<g id="edge29" class="edge"><title>Node2&#45;&gt;Node30</title>
<path fill="none" stroke="midnightblue" d="M238.308,-1375.1C247.867,-1296.03 286.837,-1005.37 350,-942 355.454,-936.528 361.928,-932.199 368.911,-928.781"/>
<polygon fill="midnightblue" stroke="midnightblue" points="234.815,-1374.83 237.112,-1385.17 241.766,-1375.66 234.815,-1374.83"/>
</g>
<!-- Node4 -->
<g id="node4" class="node"><title>Node4</title>
<g id="a_node4"><a xlink:href="a00109.html" target="_top" xlink:title="fcl::MeshCollisionTraversal\lNode\&lt; kIOS \&gt;">
<polygon fill="white" stroke="red" points="619.5,-1902 619.5,-1932 754.5,-1932 754.5,-1902 619.5,-1902"/>
<text text-anchor="start" x="627.5" y="-1920" font-family="Helvetica,sans-Serif" font-size="10.00">fcl::MeshCollisionTraversal</text>
<text text-anchor="middle" x="687" y="-1909" font-family="Helvetica,sans-Serif" font-size="10.00">Node&lt; kIOS &gt;</text>
</a>
</g>
</g>
<!-- Node3&#45;&gt;Node4 -->
<g id="edge3" class="edge"><title>Node3&#45;&gt;Node4</title>
<path fill="none" stroke="midnightblue" d="M525.201,-1917C555.481,-1917 590.11,-1917 619.458,-1917"/>
<polygon fill="midnightblue" stroke="midnightblue" points="525.113,-1913.5 515.113,-1917 525.113,-1920.5 525.113,-1913.5"/>
</g>
<!-- Node6 -->
<g id="node6" class="node"><title>Node6</title>
<g id="a_node6"><a xlink:href="a00109.html" target="_top" xlink:title="fcl::MeshCollisionTraversal\lNode\&lt; OBB \&gt;">
<polygon fill="white" stroke="red" points="619.5,-1853 619.5,-1883 754.5,-1883 754.5,-1853 619.5,-1853"/>
<text text-anchor="start" x="627.5" y="-1871" font-family="Helvetica,sans-Serif" font-size="10.00">fcl::MeshCollisionTraversal</text>
<text text-anchor="middle" x="687" y="-1860" font-family="Helvetica,sans-Serif" font-size="10.00">Node&lt; OBB &gt;</text>
</a>
</g>
</g>
<!-- Node5&#45;&gt;Node6 -->
<g id="edge5" class="edge"><title>Node5&#45;&gt;Node6</title>
<path fill="none" stroke="midnightblue" d="M525.201,-1868C555.481,-1868 590.11,-1868 619.458,-1868"/>
<polygon fill="midnightblue" stroke="midnightblue" points="525.113,-1864.5 515.113,-1868 525.113,-1871.5 525.113,-1864.5"/>
</g>
<!-- Node8 -->
<g id="node8" class="node"><title>Node8</title>
<g id="a_node8"><a xlink:href="a00109.html" target="_top" xlink:title="fcl::MeshCollisionTraversal\lNode\&lt; OBBRSS \&gt;">
<polygon fill="white" stroke="red" points="619.5,-1804 619.5,-1834 754.5,-1834 754.5,-1804 619.5,-1804"/>
<text text-anchor="start" x="627.5" y="-1822" font-family="Helvetica,sans-Serif" font-size="10.00">fcl::MeshCollisionTraversal</text>
<text text-anchor="middle" x="687" y="-1811" font-family="Helvetica,sans-Serif" font-size="10.00">Node&lt; OBBRSS &gt;</text>
</a>
</g>
</g>
<!-- Node7&#45;&gt;Node8 -->
<g id="edge7" class="edge"><title>Node7&#45;&gt;Node8</title>
<path fill="none" stroke="midnightblue" d="M525.201,-1819C555.481,-1819 590.11,-1819 619.458,-1819"/>
<polygon fill="midnightblue" stroke="midnightblue" points="525.113,-1815.5 515.113,-1819 525.113,-1822.5 525.113,-1815.5"/>
</g>
<!-- Node10 -->
<g id="node10" class="node"><title>Node10</title>
<g id="a_node10"><a xlink:href="a00109.html" target="_top" xlink:title="fcl::MeshCollisionTraversal\lNode\&lt; RSS \&gt;">
<polygon fill="white" stroke="red" points="619.5,-1755 619.5,-1785 754.5,-1785 754.5,-1755 619.5,-1755"/>
<text text-anchor="start" x="627.5" y="-1773" font-family="Helvetica,sans-Serif" font-size="10.00">fcl::MeshCollisionTraversal</text>
<text text-anchor="middle" x="687" y="-1762" font-family="Helvetica,sans-Serif" font-size="10.00">Node&lt; RSS &gt;</text>
</a>
</g>
</g>
<!-- Node9&#45;&gt;Node10 -->
<g id="edge9" class="edge"><title>Node9&#45;&gt;Node10</title>
<path fill="none" stroke="midnightblue" d="M525.201,-1770C555.481,-1770 590.11,-1770 619.458,-1770"/>
<polygon fill="midnightblue" stroke="midnightblue" points="525.113,-1766.5 515.113,-1770 525.113,-1773.5 525.113,-1766.5"/>
</g>
<!-- Node12 -->
<g id="node12" class="node"><title>Node12</title>
<g id="a_node12"><a xlink:href="a00124.html" target="_top" xlink:title="fcl::MeshShapeCollisionTraversal\lNode\&lt; kIOS, S, NarrowPhaseSolver \&gt;">
<polygon fill="white" stroke="red" points="594,-1706 594,-1736 780,-1736 780,-1706 594,-1706"/>
<text text-anchor="start" x="602" y="-1724" font-family="Helvetica,sans-Serif" font-size="10.00">fcl::MeshShapeCollisionTraversal</text>
<text text-anchor="middle" x="687" y="-1713" font-family="Helvetica,sans-Serif" font-size="10.00">Node&lt; kIOS, S, NarrowPhaseSolver &gt;</text>
</a>
</g>
</g>
<!-- Node11&#45;&gt;Node12 -->
<g id="edge11" class="edge"><title>Node11&#45;&gt;Node12</title>
<path fill="none" stroke="midnightblue" d="M539.589,-1721C557.366,-1721 576.057,-1721 593.915,-1721"/>
<polygon fill="midnightblue" stroke="midnightblue" points="539.241,-1717.5 529.241,-1721 539.241,-1724.5 539.241,-1717.5"/>
</g>
<!-- Node14 -->
<g id="node14" class="node"><title>Node14</title>
<g id="a_node14"><a xlink:href="a00124.html" target="_top" xlink:title="fcl::MeshShapeCollisionTraversal\lNode\&lt; OBB, S, NarrowPhaseSolver \&gt;">
<polygon fill="white" stroke="red" points="594.5,-1657 594.5,-1687 779.5,-1687 779.5,-1657 594.5,-1657"/>
<text text-anchor="start" x="602.5" y="-1675" font-family="Helvetica,sans-Serif" font-size="10.00">fcl::MeshShapeCollisionTraversal</text>
<text text-anchor="middle" x="687" y="-1664" font-family="Helvetica,sans-Serif" font-size="10.00">Node&lt; OBB, S, NarrowPhaseSolver &gt;</text>
</a>
</g>
</g>
<!-- Node13&#45;&gt;Node14 -->
<g id="edge13" class="edge"><title>Node13&#45;&gt;Node14</title>
<path fill="none" stroke="midnightblue" d="M539.406,-1672C557.374,-1672 576.284,-1672 594.329,-1672"/>
<polygon fill="midnightblue" stroke="midnightblue" points="539.241,-1668.5 529.241,-1672 539.241,-1675.5 539.241,-1668.5"/>
</g>
<!-- Node16 -->
<g id="node16" class="node"><title>Node16</title>
<g id="a_node16"><a xlink:href="a00124.html" target="_top" xlink:title="fcl::MeshShapeCollisionTraversal\lNode\&lt; OBBRSS, S, NarrowPhaseSolver \&gt;">
<polygon fill="white" stroke="red" points="584,-1608 584,-1638 790,-1638 790,-1608 584,-1608"/>
<text text-anchor="start" x="592" y="-1626" font-family="Helvetica,sans-Serif" font-size="10.00">fcl::MeshShapeCollisionTraversal</text>
<text text-anchor="middle" x="687" y="-1615" font-family="Helvetica,sans-Serif" font-size="10.00">Node&lt; OBBRSS, S, NarrowPhaseSolver &gt;</text>
</a>
</g>
</g>
<!-- Node15&#45;&gt;Node16 -->
<g id="edge15" class="edge"><title>Node15&#45;&gt;Node16</title>
<path fill="none" stroke="midnightblue" d="M539.653,-1623C554.118,-1623 569.186,-1623 583.917,-1623"/>
<polygon fill="midnightblue" stroke="midnightblue" points="539.241,-1619.5 529.241,-1623 539.241,-1626.5 539.241,-1619.5"/>
</g>
<!-- Node32 -->
<g id="node32" class="node"><title>Node32</title>
<g id="a_node32"><a xlink:href="a00020.html" target="_top" xlink:title="fcl::BVHDistanceTraversal\lNode\&lt; kIOS \&gt;">
<polygon fill="white" stroke="red" points="382,-853 382,-883 516,-883 516,-853 382,-853"/>
<text text-anchor="start" x="390" y="-871" font-family="Helvetica,sans-Serif" font-size="10.00">fcl::BVHDistanceTraversal</text>
<text text-anchor="middle" x="449" y="-860" font-family="Helvetica,sans-Serif" font-size="10.00">Node&lt; kIOS &gt;</text>
</a>
</g>
</g>
<!-- Node31&#45;&gt;Node32 -->
<g id="edge31" class="edge"><title>Node31&#45;&gt;Node32</title>
<path fill="none" stroke="midnightblue" d="M235.854,-495.89C236.535,-557.269 247.294,-745.443 350,-843 358.848,-851.404 370.115,-857.088 381.835,-860.909"/>
<polygon fill="midnightblue" stroke="midnightblue" points="239.353,-495.651 235.826,-485.66 232.353,-495.67 239.353,-495.651"/>
</g>
<!-- Node33 -->
<g id="node33" class="node"><title>Node33</title>
<g id="a_node33"><a xlink:href="a00020.html" target="_top" xlink:title="fcl::BVHDistanceTraversal\lNode\&lt; OBBRSS \&gt;">
<polygon fill="white" stroke="red" points="382,-804 382,-834 516,-834 516,-804 382,-804"/>
<text text-anchor="start" x="390" y="-822" font-family="Helvetica,sans-Serif" font-size="10.00">fcl::BVHDistanceTraversal</text>
<text text-anchor="middle" x="449" y="-811" font-family="Helvetica,sans-Serif" font-size="10.00">Node&lt; OBBRSS &gt;</text>
</a>
</g>
</g>
<!-- Node31&#45;&gt;Node33 -->
<g id="edge32" class="edge"><title>Node31&#45;&gt;Node33</title>
<path fill="none" stroke="midnightblue" d="M236.942,-495.779C240.702,-551.568 259.277,-711.465 350,-794 358.962,-802.153 370.212,-807.727 381.866,-811.521"/>
<polygon fill="midnightblue" stroke="midnightblue" points="240.42,-495.299 236.343,-485.52 233.431,-495.707 240.42,-495.299"/>
</g>
<!-- Node34 -->
<g id="node34" class="node"><title>Node34</title>
<g id="a_node34"><a xlink:href="a00020.html" target="_top" xlink:title="fcl::BVHDistanceTraversal\lNode\&lt; RSS \&gt;">
<polygon fill="white" stroke="red" points="382,-755 382,-785 516,-785 516,-755 382,-755"/>
<text text-anchor="start" x="390" y="-773" font-family="Helvetica,sans-Serif" font-size="10.00">fcl::BVHDistanceTraversal</text>
<text text-anchor="middle" x="449" y="-762" font-family="Helvetica,sans-Serif" font-size="10.00">Node&lt; RSS &gt;</text>
</a>
</g>
</g>
<!-- Node31&#45;&gt;Node34 -->
<g id="edge33" class="edge"><title>Node31&#45;&gt;Node34</title>
<path fill="none" stroke="midnightblue" d="M238.378,-495.685C245.468,-545.465 271.125,-677.223 350,-745 359.122,-752.839 370.38,-758.273 381.976,-762.027"/>
<polygon fill="midnightblue" stroke="midnightblue" points="241.826,-495.066 237.042,-485.613 234.887,-495.986 241.826,-495.066"/>
</g>
<!-- Node35 -->
<g id="node35" class="node"><title>Node35</title>
<g id="a_node35"><a xlink:href="a00024.html" target="_top" xlink:title="fcl::BVHShapeDistanceTraversal\lNode\&lt; kIOS, S \&gt;">
<polygon fill="white" stroke="red" points="368.5,-706 368.5,-736 529.5,-736 529.5,-706 368.5,-706"/>
<text text-anchor="start" x="376.5" y="-724" font-family="Helvetica,sans-Serif" font-size="10.00">fcl::BVHShapeDistanceTraversal</text>
<text text-anchor="middle" x="449" y="-713" font-family="Helvetica,sans-Serif" font-size="10.00">Node&lt; kIOS, S &gt;</text>
</a>
</g>
</g>
<!-- Node31&#45;&gt;Node35 -->
<g id="edge34" class="edge"><title>Node31&#45;&gt;Node35</title>
<path fill="none" stroke="midnightblue" d="M240.368,-495.539C251.065,-538.704 282.757,-642.59 350,-696 355.5,-700.368 361.673,-703.982 368.176,-706.97"/>
<polygon fill="midnightblue" stroke="midnightblue" points="243.753,-494.644 238.042,-485.72 236.941,-496.257 243.753,-494.644"/>
</g>
<!-- Node36 -->
<g id="node36" class="node"><title>Node36</title>
<g id="a_node36"><a xlink:href="a00024.html" target="_top" xlink:title="fcl::BVHShapeDistanceTraversal\lNode\&lt; OBBRSS, S \&gt;">
<polygon fill="white" stroke="red" points="368.5,-657 368.5,-687 529.5,-687 529.5,-657 368.5,-657"/>
<text text-anchor="start" x="376.5" y="-675" font-family="Helvetica,sans-Serif" font-size="10.00">fcl::BVHShapeDistanceTraversal</text>
<text text-anchor="middle" x="449" y="-664" font-family="Helvetica,sans-Serif" font-size="10.00">Node&lt; OBBRSS, S &gt;</text>
</a>
</g>
</g>
<!-- Node31&#45;&gt;Node36 -->
<g id="edge35" class="edge"><title>Node31&#45;&gt;Node36</title>
<path fill="none" stroke="midnightblue" d="M243.302,-495.225C257.877,-530.915 294.061,-607.378 350,-647 355.588,-650.958 361.748,-654.291 368.176,-657.096"/>
<polygon fill="midnightblue" stroke="midnightblue" points="246.406,-493.556 239.475,-485.543 239.897,-496.13 246.406,-493.556"/>
</g>
<!-- Node37 -->
<g id="node37" class="node"><title>Node37</title>
<g id="a_node37"><a xlink:href="a00024.html" target="_top" xlink:title="fcl::BVHShapeDistanceTraversal\lNode\&lt; RSS, S \&gt;">
<polygon fill="white" stroke="red" points="368.5,-608 368.5,-638 529.5,-638 529.5,-608 368.5,-608"/>
<text text-anchor="start" x="376.5" y="-626" font-family="Helvetica,sans-Serif" font-size="10.00">fcl::BVHShapeDistanceTraversal</text>
<text text-anchor="middle" x="449" y="-615" font-family="Helvetica,sans-Serif" font-size="10.00">Node&lt; RSS, S &gt;</text>
</a>
</g>
</g>
<!-- Node31&#45;&gt;Node37 -->
<g id="edge36" class="edge"><title>Node31&#45;&gt;Node37</title>
<path fill="none" stroke="midnightblue" d="M247.814,-494.133C266.308,-521.026 304.703,-571.183 350,-598 356.573,-601.891 363.741,-605.182 371.113,-607.963"/>
<polygon fill="midnightblue" stroke="midnightblue" points="250.608,-492.015 242.124,-485.667 244.798,-495.919 250.608,-492.015"/>
</g>
<!-- Node38 -->
<g id="node38" class="node"><title>Node38</title>
<g id="a_node38"><a xlink:href="a00020.html" target="_top" xlink:title="Traversal node for distance computation between BVH models. ">
<polygon fill="white" stroke="red" points="382,-559 382,-589 516,-589 516,-559 382,-559"/>
<text text-anchor="start" x="390" y="-577" font-family="Helvetica,sans-Serif" font-size="10.00">fcl::BVHDistanceTraversal</text>
<text text-anchor="middle" x="449" y="-566" font-family="Helvetica,sans-Serif" font-size="10.00">Node&lt; BV &gt;</text>
</a>
</g>
</g>
<!-- Node31&#45;&gt;Node38 -->
<g id="edge37" class="edge"><title>Node31&#45;&gt;Node38</title>
<path fill="none" stroke="midnightblue" d="M256.455,-491.983C278.434,-508.444 314.949,-533.779 350,-549 360.066,-553.371 371.058,-557.098 381.925,-560.235"/>
<polygon fill="midnightblue" stroke="midnightblue" points="258.318,-489.003 248.24,-485.735 254.08,-494.574 258.318,-489.003"/>
</g>
<!-- Node39 -->
<g id="node39" class="node"><title>Node39</title>
<g id="a_node39"><a xlink:href="a00024.html" target="_top" xlink:title="Traversal node for distance computation between BVH and shape. ">
<polygon fill="white" stroke="red" points="368.5,-510 368.5,-540 529.5,-540 529.5,-510 368.5,-510"/>
<text text-anchor="start" x="376.5" y="-528" font-family="Helvetica,sans-Serif" font-size="10.00">fcl::BVHShapeDistanceTraversal</text>
<text text-anchor="middle" x="449" y="-517" font-family="Helvetica,sans-Serif" font-size="10.00">Node&lt; BV, S &gt;</text>
</a>
</g>
</g>
<!-- Node31&#45;&gt;Node39 -->
<g id="edge38" class="edge"><title>Node31&#45;&gt;Node39</title>
<path fill="none" stroke="midnightblue" d="M286.968,-487.78C315.732,-494.429 351.977,-502.806 382.794,-509.929"/>
<polygon fill="midnightblue" stroke="midnightblue" points="287.658,-484.348 277.127,-485.506 286.082,-491.168 287.658,-484.348"/>
</g>
<!-- Node40 -->
<g id="node40" class="node"><title>Node40</title>
<g id="a_node40"><a xlink:href="a00123.html" target="_top" xlink:title="Traversal node for mesh&#45;octree distance. ">
<polygon fill="white" stroke="black" points="364.5,-461 364.5,-491 533.5,-491 533.5,-461 364.5,-461"/>
<text text-anchor="start" x="372.5" y="-479" font-family="Helvetica,sans-Serif" font-size="10.00">fcl::MeshOcTreeDistanceTraversal</text>
<text text-anchor="middle" x="449" y="-468" font-family="Helvetica,sans-Serif" font-size="10.00">Node&lt; BV, NarrowPhaseSolver &gt;</text>
</a>
</g>
</g>
<!-- Node31&#45;&gt;Node40 -->
<g id="edge39" class="edge"><title>Node31&#45;&gt;Node40</title>
<path fill="none" stroke="midnightblue" d="M324.143,-476C337.475,-476 351.195,-476 364.427,-476"/>
<polygon fill="midnightblue" stroke="midnightblue" points="324.038,-472.5 314.038,-476 324.038,-479.5 324.038,-472.5"/>
</g>
<!-- Node41 -->
<g id="node41" class="node"><title>Node41</title>
<g id="a_node41"><a xlink:href="a00158.html" target="_top" xlink:title="Traversal node for octree distance. ">
<polygon fill="white" stroke="black" points="376.5,-412 376.5,-442 521.5,-442 521.5,-412 376.5,-412"/>
<text text-anchor="start" x="384.5" y="-430" font-family="Helvetica,sans-Serif" font-size="10.00">fcl::OcTreeDistanceTraversal</text>
<text text-anchor="middle" x="449" y="-419" font-family="Helvetica,sans-Serif" font-size="10.00">Node&lt; NarrowPhaseSolver &gt;</text>
</a>
</g>
</g>
<!-- Node31&#45;&gt;Node41 -->
<g id="edge40" class="edge"><title>Node31&#45;&gt;Node41</title>
<path fill="none" stroke="midnightblue" d="M286.968,-464.22C315.732,-457.571 351.977,-449.194 382.794,-442.071"/>
<polygon fill="midnightblue" stroke="midnightblue" points="286.082,-460.832 277.127,-466.494 287.658,-467.652 286.082,-460.832"/>
</g>
<!-- Node42 -->
<g id="node42" class="node"><title>Node42</title>
<g id="a_node42"><a xlink:href="a00160.html" target="_top" xlink:title="Traversal node for octree&#45;mesh distance. ">
<polygon fill="white" stroke="black" points="364.5,-363 364.5,-393 533.5,-393 533.5,-363 364.5,-363"/>
<text text-anchor="start" x="372.5" y="-381" font-family="Helvetica,sans-Serif" font-size="10.00">fcl::OcTreeMeshDistanceTraversal</text>
<text text-anchor="middle" x="449" y="-370" font-family="Helvetica,sans-Serif" font-size="10.00">Node&lt; BV, NarrowPhaseSolver &gt;</text>
</a>
</g>
</g>
<!-- Node31&#45;&gt;Node42 -->
<g id="edge41" class="edge"><title>Node31&#45;&gt;Node42</title>
<path fill="none" stroke="midnightblue" d="M256.455,-460.017C278.434,-443.556 314.949,-418.221 350,-403 358.697,-399.223 368.086,-395.928 377.487,-393.078"/>
<polygon fill="midnightblue" stroke="midnightblue" points="254.08,-457.426 248.24,-466.265 258.318,-462.997 254.08,-457.426"/>
</g>
<!-- Node43 -->
<g id="node43" class="node"><title>Node43</title>
<g id="a_node43"><a xlink:href="a00162.html" target="_top" xlink:title="Traversal node for octree&#45;shape distance. ">
<polygon fill="white" stroke="black" points="368.5,-303.5 368.5,-344.5 529.5,-344.5 529.5,-303.5 368.5,-303.5"/>
<text text-anchor="start" x="376.5" y="-332.5" font-family="Helvetica,sans-Serif" font-size="10.00">fcl::OcTreeShapeDistance</text>
<text text-anchor="start" x="376.5" y="-321.5" font-family="Helvetica,sans-Serif" font-size="10.00">TraversalNode&lt; S, NarrowPhase</text>
<text text-anchor="middle" x="449" y="-310.5" font-family="Helvetica,sans-Serif" font-size="10.00">Solver &gt;</text>
</a>
</g>
</g>
<!-- Node31&#45;&gt;Node43 -->
<g id="edge42" class="edge"><title>Node31&#45;&gt;Node43</title>
<path fill="none" stroke="midnightblue" d="M247.978,-458.137C266.684,-431.593 305.35,-381.88 350,-354 355.735,-350.419 361.927,-347.24 368.314,-344.423"/>
<polygon fill="midnightblue" stroke="midnightblue" points="245.016,-456.267 242.217,-466.485 250.777,-460.242 245.016,-456.267"/>
</g>
<!-- Node44 -->
<g id="node44" class="node"><title>Node44</title>
<g id="a_node44"><a xlink:href="a00200.html" target="_top" xlink:title="Traversal node for distance computation between shape and BVH. ">
<polygon fill="white" stroke="red" points="368.5,-255 368.5,-285 529.5,-285 529.5,-255 368.5,-255"/>
<text text-anchor="start" x="376.5" y="-273" font-family="Helvetica,sans-Serif" font-size="10.00">fcl::ShapeBVHDistanceTraversal</text>
<text text-anchor="middle" x="449" y="-262" font-family="Helvetica,sans-Serif" font-size="10.00">Node&lt; S, BV &gt;</text>
</a>
</g>
</g>
<!-- Node31&#45;&gt;Node44 -->
<g id="edge43" class="edge"><title>Node31&#45;&gt;Node44</title>
<path fill="none" stroke="midnightblue" d="M242.533,-456.52C256.184,-418.921 291.413,-336.331 350,-294 355.537,-289.999 361.662,-286.66 368.066,-283.874"/>
<polygon fill="midnightblue" stroke="midnightblue" points="239.125,-455.662 239.12,-466.257 245.731,-457.978 239.125,-455.662"/>
</g>
<!-- Node45 -->
<g id="node45" class="node"><title>Node45</title>
<g id="a_node45"><a xlink:href="a00203.html" target="_top" xlink:title="Traversal node for distance between two shapes. ">
<polygon fill="white" stroke="red" points="358.5,-206 358.5,-236 539.5,-236 539.5,-206 358.5,-206"/>
<text text-anchor="start" x="366.5" y="-224" font-family="Helvetica,sans-Serif" font-size="10.00">fcl::ShapeDistanceTraversal</text>
<text text-anchor="middle" x="449" y="-213" font-family="Helvetica,sans-Serif" font-size="10.00">Node&lt; S1, S2, NarrowPhaseSolver &gt;</text>
</a>
</g>
</g>
<!-- Node31&#45;&gt;Node45 -->
<g id="edge44" class="edge"><title>Node31&#45;&gt;Node45</title>
<path fill="none" stroke="midnightblue" d="M239.886,-456.494C249.808,-411.963 280.369,-302.332 350,-246 354.778,-242.135 360.081,-238.859 365.677,-236.084"/>
<polygon fill="midnightblue" stroke="midnightblue" points="236.449,-455.832 237.797,-466.34 243.296,-457.284 236.449,-455.832"/>
</g>
<!-- Node46 -->
<g id="node46" class="node"><title>Node46</title>
<g id="a_node46"><a xlink:href="a00217.html" target="_top" xlink:title="Traversal node for shape&#45;octree distance. ">
<polygon fill="white" stroke="black" points="368.5,-146.5 368.5,-187.5 529.5,-187.5 529.5,-146.5 368.5,-146.5"/>
<text text-anchor="start" x="376.5" y="-175.5" font-family="Helvetica,sans-Serif" font-size="10.00">fcl::ShapeOcTreeDistance</text>
<text text-anchor="start" x="376.5" y="-164.5" font-family="Helvetica,sans-Serif" font-size="10.00">TraversalNode&lt; S, NarrowPhase</text>
<text text-anchor="middle" x="449" y="-153.5" font-family="Helvetica,sans-Serif" font-size="10.00">Solver &gt;</text>
</a>
</g>
</g>
<!-- Node31&#45;&gt;Node46 -->
<g id="edge45" class="edge"><title>Node31&#45;&gt;Node46</title>
<path fill="none" stroke="midnightblue" d="M238.245,-456.491C245.107,-405.951 270.428,-269.653 350,-197 355.387,-192.081 361.563,-187.968 368.136,-184.529"/>
<polygon fill="midnightblue" stroke="midnightblue" points="234.772,-456.062 236.99,-466.422 241.717,-456.94 234.772,-456.062"/>
</g>
<!-- Node47 -->
<g id="node47" class="node"><title>Node47</title>
<g id="a_node47"><a xlink:href="a00200.html" target="_top" xlink:title="fcl::ShapeBVHDistanceTraversal\lNode\&lt; S, kIOS \&gt;">
<polygon fill="white" stroke="red" points="368.5,-98 368.5,-128 529.5,-128 529.5,-98 368.5,-98"/>
<text text-anchor="start" x="376.5" y="-116" font-family="Helvetica,sans-Serif" font-size="10.00">fcl::ShapeBVHDistanceTraversal</text>
<text text-anchor="middle" x="449" y="-105" font-family="Helvetica,sans-Serif" font-size="10.00">Node&lt; S, kIOS &gt;</text>
</a>
</g>
</g>
<!-- Node31&#45;&gt;Node47 -->
<g id="edge46" class="edge"><title>Node31&#45;&gt;Node47</title>
<path fill="none" stroke="midnightblue" d="M236.389,-456.425C238.653,-398.362 253.568,-225.633 350,-137 355.417,-132.021 361.694,-128.031 368.403,-124.837"/>
<polygon fill="midnightblue" stroke="midnightblue" points="232.89,-456.348 236.085,-466.45 239.887,-456.561 232.89,-456.348"/>
</g>
<!-- Node48 -->
<g id="node48" class="node"><title>Node48</title>
<g id="a_node48"><a xlink:href="a00200.html" target="_top" xlink:title="fcl::ShapeBVHDistanceTraversal\lNode\&lt; S, OBBRSS \&gt;">
<polygon fill="white" stroke="red" points="368.5,-49 368.5,-79 529.5,-79 529.5,-49 368.5,-49"/>
<text text-anchor="start" x="376.5" y="-67" font-family="Helvetica,sans-Serif" font-size="10.00">fcl::ShapeBVHDistanceTraversal</text>
<text text-anchor="middle" x="449" y="-56" font-family="Helvetica,sans-Serif" font-size="10.00">Node&lt; S, OBBRSS &gt;</text>
</a>
</g>
</g>
<!-- Node31&#45;&gt;Node48 -->
<g id="edge47" class="edge"><title>Node31&#45;&gt;Node48</title>
<path fill="none" stroke="midnightblue" d="M235.482,-456.301C234.949,-393.002 242.237,-192.879 350,-89 355.309,-83.8819 361.515,-79.7702 368.179,-76.4725"/>
<polygon fill="midnightblue" stroke="midnightblue" points="231.986,-456.534 235.65,-466.475 238.985,-456.418 231.986,-456.534"/>
</g>
<!-- Node49 -->
<g id="node49" class="node"><title>Node49</title>
<g id="a_node49"><a xlink:href="a00200.html" target="_top" xlink:title="fcl::ShapeBVHDistanceTraversal\lNode\&lt; S, RSS \&gt;">
<polygon fill="white" stroke="red" points="368.5,-0 368.5,-30 529.5,-30 529.5,-0 368.5,-0"/>
<text text-anchor="start" x="376.5" y="-18" font-family="Helvetica,sans-Serif" font-size="10.00">fcl::ShapeBVHDistanceTraversal</text>
<text text-anchor="middle" x="449" y="-7" font-family="Helvetica,sans-Serif" font-size="10.00">Node&lt; S, RSS &gt;</text>
</a>
</g>
</g>
<!-- Node31&#45;&gt;Node49 -->
<g id="edge48" class="edge"><title>Node31&#45;&gt;Node49</title>
<path fill="none" stroke="midnightblue" d="M238.547,-455.864C248.744,-378.355 289.04,-100.597 350,-40 355.355,-34.6771 361.676,-30.437 368.487,-27.0662"/>
<polygon fill="midnightblue" stroke="midnightblue" points="235.027,-455.795 237.216,-466.161 241.969,-456.692 235.027,-455.795"/>
</g>
</g>
</svg>
