<?xml version="1.0" encoding="UTF-8" standalone="no"?>
<!DOCTYPE svg PUBLIC "-//W3C//DTD SVG 1.1//EN"
 "http://www.w3.org/Graphics/SVG/1.1/DTD/svg11.dtd">
<!-- Generated by graphviz version 2.36.0 (20140111.2315)
 -->
<!-- Title: fcl::TimeInterval Pages: 1 -->
<svg width="94pt" height="150pt"
 viewBox="0.00 0.00 94.00 150.00" xmlns="http://www.w3.org/2000/svg" xmlns:xlink="http://www.w3.org/1999/xlink">
<g id="graph0" class="graph" transform="scale(1 1) rotate(0) translate(4 146)">
<title>fcl::TimeInterval</title>
<polygon fill="white" stroke="none" points="-4,4 -4,-146 90,-146 90,4 -4,4"/>
<!-- Node1 -->
<g id="node1" class="node"><title>Node1</title>
<polygon fill="#bfbfbf" stroke="black" points="-0.5,-0.5 -0.5,-19.5 86.5,-19.5 86.5,-0.5 -0.5,-0.5"/>
<text text-anchor="middle" x="43" y="-7.5" font-family="Helvetica,sans-Serif" font-size="10.00">fcl::TimeInterval</text>
</g>
<!-- Node2 -->
<g id="node2" class="node"><title>Node2</title>
<g id="a_node2"><a xlink:href="a00094.html" target="_top" xlink:title="Interval class for [a, b]. ">
<polygon fill="white" stroke="black" points="10.5,-122.5 10.5,-141.5 75.5,-141.5 75.5,-122.5 10.5,-122.5"/>
<text text-anchor="middle" x="43" y="-129.5" font-family="Helvetica,sans-Serif" font-size="10.00">fcl::Interval</text>
</a>
</g>
</g>
<!-- Node2&#45;&gt;Node1 -->
<g id="edge1" class="edge"><title>Node2&#45;&gt;Node1</title>
<path fill="none" stroke="#9a32cd" stroke-dasharray="5,2" d="M43,-112.145C43,-85.7231 43,-38.7637 43,-19.5519"/>
<polygon fill="#9a32cd" stroke="#9a32cd" points="39.5001,-112.37 43,-122.37 46.5001,-112.37 39.5001,-112.37"/>
<text text-anchor="middle" x="51.5" y="-96" font-family="Helvetica,sans-Serif" font-size="10.00"> t6_</text>
<text text-anchor="middle" x="51.5" y="-85" font-family="Helvetica,sans-Serif" font-size="10.00">t5_</text>
<text text-anchor="middle" x="51.5" y="-74" font-family="Helvetica,sans-Serif" font-size="10.00">t4_</text>
<text text-anchor="middle" x="51.5" y="-63" font-family="Helvetica,sans-Serif" font-size="10.00">t3_</text>
<text text-anchor="middle" x="51.5" y="-52" font-family="Helvetica,sans-Serif" font-size="10.00">t2_</text>
<text text-anchor="middle" x="51.5" y="-41" font-family="Helvetica,sans-Serif" font-size="10.00">t_</text>
</g>
</g>
</svg>
