<?xml version="1.0" encoding="UTF-8" standalone="no"?>
<!DOCTYPE svg PUBLIC "-//W3C//DTD SVG 1.1//EN"
 "http://www.w3.org/Graphics/SVG/1.1/DTD/svg11.dtd">
<!-- Generated by graphviz version 2.36.0 (20140111.2315)
 -->
<!-- Title: fcl::SpatialHashingCollisionManager&lt; HashTable &gt; Pages: 1 -->
<svg width="1134pt" height="188pt"
 viewBox="0.00 0.00 1134.00 188.00" xmlns="http://www.w3.org/2000/svg" xmlns:xlink="http://www.w3.org/1999/xlink">
<g id="graph0" class="graph" transform="scale(1 1) rotate(0) translate(4 184)">
<title>fcl::SpatialHashingCollisionManager&lt; HashTable &gt;</title>
<polygon fill="white" stroke="none" points="-4,4 -4,-184 1130,-184 1130,4 -4,4"/>
<!-- Node1 -->
<g id="node1" class="node"><title>Node1</title>
<polygon fill="#bfbfbf" stroke="black" points="988.5,-81 988.5,-111 1125.5,-111 1125.5,-81 988.5,-81"/>
<text text-anchor="start" x="996.5" y="-99" font-family="Helvetica,sans-Serif" font-size="10.00">fcl::SpatialHashingCollision</text>
<text text-anchor="middle" x="1057" y="-88" font-family="Helvetica,sans-Serif" font-size="10.00">Manager&lt; HashTable &gt;</text>
</g>
<!-- Node2 -->
<g id="node2" class="node"><title>Node2</title>
<g id="a_node2"><a xlink:href="a00010.html" target="_top" xlink:title="Base class for broad phase collision. It helps to accelerate the collision/distance between N objects...">
<polygon fill="white" stroke="black" points="738,-142 738,-172 862,-172 862,-142 738,-142"/>
<text text-anchor="start" x="746" y="-160" font-family="Helvetica,sans-Serif" font-size="10.00">fcl::BroadPhaseCollision</text>
<text text-anchor="middle" x="800" y="-149" font-family="Helvetica,sans-Serif" font-size="10.00">Manager</text>
</a>
</g>
</g>
<!-- Node2&#45;&gt;Node1 -->
<g id="edge1" class="edge"><title>Node2&#45;&gt;Node1</title>
<path fill="none" stroke="midnightblue" d="M872.152,-145.777C902.515,-140.41 938.207,-133.328 970,-125 984.938,-121.087 1001.04,-115.92 1015.23,-111.033"/>
<polygon fill="midnightblue" stroke="midnightblue" points="871.325,-142.369 862.073,-147.532 872.525,-149.265 871.325,-142.369"/>
</g>
<!-- Node3 -->
<g id="node3" class="node"><title>Node3</title>
<polygon fill="white" stroke="#bfbfbf" points="510.5,-139.5 510.5,-180.5 647.5,-180.5 647.5,-139.5 510.5,-139.5"/>
<text text-anchor="start" x="518.5" y="-168.5" font-family="Helvetica,sans-Serif" font-size="10.00">std::set&lt; std::pair</text>
<text text-anchor="start" x="518.5" y="-157.5" font-family="Helvetica,sans-Serif" font-size="10.00">&lt; fcl::CollisionObject</text>
<text text-anchor="middle" x="579" y="-146.5" font-family="Helvetica,sans-Serif" font-size="10.00"> *, fcl::CollisionObject * &gt; &gt;</text>
</g>
<!-- Node3&#45;&gt;Node2 -->
<g id="edge2" class="edge"><title>Node3&#45;&gt;Node2</title>
<path fill="none" stroke="#9a32cd" stroke-dasharray="5,2" d="M658.077,-158.93C684.289,-158.571 713.125,-158.176 737.847,-157.838"/>
<polygon fill="#9a32cd" stroke="#9a32cd" points="657.744,-155.435 647.793,-159.071 657.84,-162.434 657.744,-155.435"/>
<text text-anchor="middle" x="693" y="-161" font-family="Helvetica,sans-Serif" font-size="10.00"> tested_set</text>
</g>
<!-- Node4 -->
<g id="node4" class="node"><title>Node4</title>
<polygon fill="white" stroke="#bfbfbf" points="744,-0 744,-30 856,-30 856,-0 744,-0"/>
<text text-anchor="start" x="752" y="-18" font-family="Helvetica,sans-Serif" font-size="10.00">std::list&lt; fcl::Collision</text>
<text text-anchor="middle" x="800" y="-7" font-family="Helvetica,sans-Serif" font-size="10.00">Object * &gt;</text>
</g>
<!-- Node4&#45;&gt;Node1 -->
<g id="edge3" class="edge"><title>Node4&#45;&gt;Node1</title>
<path fill="none" stroke="#9a32cd" stroke-dasharray="5,2" d="M866.315,-18.1033C898.378,-21.2548 937.088,-27.5355 970,-40 995.493,-49.6547 1021.23,-67.7718 1037.82,-80.7875"/>
<polygon fill="#9a32cd" stroke="#9a32cd" points="866.429,-14.5994 856.155,-17.1861 865.8,-21.571 866.429,-14.5994"/>
<text text-anchor="start" x="880" y="-65" font-family="Helvetica,sans-Serif" font-size="10.00"> objs_outside_scene</text>
<text text-anchor="middle" x="925" y="-54" font-family="Helvetica,sans-Serif" font-size="10.00">_limit</text>
<text text-anchor="middle" x="925" y="-43" font-family="Helvetica,sans-Serif" font-size="10.00">objs</text>
</g>
<!-- Node5 -->
<g id="node5" class="node"><title>Node5</title>
<g id="a_node5"><a xlink:href="a00033.html" target="_top" xlink:title="the object for collision or distance computation, contains the geometry and the transform information...">
<polygon fill="white" stroke="black" points="529.5,-9.5 529.5,-28.5 628.5,-28.5 628.5,-9.5 529.5,-9.5"/>
<text text-anchor="middle" x="579" y="-16.5" font-family="Helvetica,sans-Serif" font-size="10.00">fcl::CollisionObject</text>
</a>
</g>
</g>
<!-- Node5&#45;&gt;Node4 -->
<g id="edge4" class="edge"><title>Node5&#45;&gt;Node4</title>
<path fill="none" stroke="#9a32cd" stroke-dasharray="5,2" d="M638.792,-14.3512C647.897,-13.7895 657.197,-13.3067 666,-13 689.985,-12.1643 696.002,-12.6963 720,-13 727.682,-13.0972 735.784,-13.2476 743.754,-13.4233"/>
<polygon fill="#9a32cd" stroke="#9a32cd" points="638.385,-10.8702 628.634,-15.0137 638.841,-17.8554 638.385,-10.8702"/>
<text text-anchor="middle" x="693" y="-16" font-family="Helvetica,sans-Serif" font-size="10.00"> elements</text>
</g>
<!-- Node11 -->
<g id="node11" class="node"><title>Node11</title>
<polygon fill="white" stroke="#bfbfbf" points="741,-52 741,-82 859,-82 859,-52 741,-52"/>
<text text-anchor="start" x="749" y="-70" font-family="Helvetica,sans-Serif" font-size="10.00">std::map&lt; fcl::Collision</text>
<text text-anchor="middle" x="800" y="-59" font-family="Helvetica,sans-Serif" font-size="10.00">Object *, fcl::AABB &gt;</text>
</g>
<!-- Node5&#45;&gt;Node11 -->
<g id="edge11" class="edge"><title>Node5&#45;&gt;Node11</title>
<path fill="none" stroke="#9a32cd" stroke-dasharray="5,2" d="M638.814,-30.0765C663.893,-34.9772 693.441,-40.9862 720,-47 726.761,-48.531 733.829,-50.2086 740.837,-51.9206"/>
<polygon fill="#9a32cd" stroke="#9a32cd" points="639.206,-26.5873 628.722,-28.1169 637.871,-33.4589 639.206,-26.5873"/>
<text text-anchor="middle" x="693" y="-50" font-family="Helvetica,sans-Serif" font-size="10.00"> keys</text>
</g>
<!-- Node6 -->
<g id="node6" class="node"><title>Node6</title>
<g id="a_node6"><a xlink:href="a00003.html" target="_top" xlink:title="A class describing the AABB collision structure, which is a box in 3D space determined by two diagona...">
<polygon fill="white" stroke="black" points="375,-62.5 375,-81.5 435,-81.5 435,-62.5 375,-62.5"/>
<text text-anchor="middle" x="405" y="-69.5" font-family="Helvetica,sans-Serif" font-size="10.00">fcl::AABB</text>
</a>
</g>
</g>
<!-- Node6&#45;&gt;Node1 -->
<g id="edge13" class="edge"><title>Node6&#45;&gt;Node1</title>
<path fill="none" stroke="#9a32cd" stroke-dasharray="5,2" d="M445.006,-82.3044C451.954,-83.7947 459.157,-85.12 466,-86 648.562,-109.477 695.951,-94.5553 880,-97 915.747,-97.4748 955.582,-97.3067 988.301,-96.9842"/>
<polygon fill="#9a32cd" stroke="#9a32cd" points="445.609,-78.8521 435.08,-80.0354 444.049,-85.6761 445.609,-78.8521"/>
<text text-anchor="middle" x="693" y="-103" font-family="Helvetica,sans-Serif" font-size="10.00"> scene_limit</text>
</g>
<!-- Node6&#45;&gt;Node5 -->
<g id="edge5" class="edge"><title>Node6&#45;&gt;Node5</title>
<path fill="none" stroke="#9a32cd" stroke-dasharray="5,2" d="M436.179,-58.3891C445.617,-54.4144 456.141,-50.2658 466,-47 487.88,-39.752 512.704,-33.3655 533.411,-28.5292"/>
<polygon fill="#9a32cd" stroke="#9a32cd" points="434.611,-55.2537 426.811,-62.4239 437.38,-61.6827 434.611,-55.2537"/>
<text text-anchor="middle" x="479" y="-50" font-family="Helvetica,sans-Serif" font-size="10.00"> aabb</text>
</g>
<!-- Node6&#45;&gt;Node11 -->
<g id="edge12" class="edge"><title>Node6&#45;&gt;Node11</title>
<path fill="none" stroke="#9a32cd" stroke-dasharray="5,2" d="M445.311,-71.4999C514.844,-70.6152 659.823,-68.7707 740.912,-67.739"/>
<polygon fill="#9a32cd" stroke="#9a32cd" points="445.172,-68.0012 435.218,-71.6283 445.262,-75.0007 445.172,-68.0012"/>
<text text-anchor="middle" x="579" y="-74" font-family="Helvetica,sans-Serif" font-size="10.00"> elements</text>
</g>
<!-- Node7 -->
<g id="node7" class="node"><title>Node7</title>
<g id="a_node7"><a xlink:href="a00069.html" target="_top" xlink:title="Eigen::FclMatrix\&lt; FCL\l_REAL, 1 \&gt;">
<polygon fill="white" stroke="black" points="182,-57 182,-87 298,-87 298,-57 182,-57"/>
<text text-anchor="start" x="190" y="-75" font-family="Helvetica,sans-Serif" font-size="10.00">Eigen::FclMatrix&lt; FCL</text>
<text text-anchor="middle" x="240" y="-64" font-family="Helvetica,sans-Serif" font-size="10.00">_REAL, 1 &gt;</text>
</a>
</g>
</g>
<!-- Node7&#45;&gt;Node6 -->
<g id="edge6" class="edge"><title>Node7&#45;&gt;Node6</title>
<path fill="none" stroke="#9a32cd" stroke-dasharray="5,2" d="M308.177,-72C331.374,-72 356.168,-72 374.724,-72"/>
<polygon fill="#9a32cd" stroke="#9a32cd" points="308.01,-68.5001 298.009,-72 308.009,-75.5001 308.01,-68.5001"/>
<text text-anchor="middle" x="330" y="-86" font-family="Helvetica,sans-Serif" font-size="10.00"> max_</text>
<text text-anchor="middle" x="330" y="-75" font-family="Helvetica,sans-Serif" font-size="10.00">min_</text>
</g>
<!-- Node8 -->
<g id="node8" class="node"><title>Node8</title>
<polygon fill="white" stroke="#bfbfbf" points="6.5,-82 6.5,-134 137.5,-134 137.5,-82 6.5,-82"/>
<text text-anchor="start" x="14.5" y="-122" font-family="Helvetica,sans-Serif" font-size="10.00">Matrix&lt; FCL_REAL ,</text>
<text text-anchor="start" x="14.5" y="-111" font-family="Helvetica,sans-Serif" font-size="10.00"> 3, Cols, internal::</text>
<text text-anchor="start" x="14.5" y="-100" font-family="Helvetica,sans-Serif" font-size="10.00">traits&lt;Matrix &lt;FCL_REAL</text>
<text text-anchor="middle" x="72" y="-89" font-family="Helvetica,sans-Serif" font-size="10.00"> , 3, Cols&gt; &gt;::Options &gt;</text>
</g>
<!-- Node8&#45;&gt;Node7 -->
<g id="edge7" class="edge"><title>Node8&#45;&gt;Node7</title>
<path fill="none" stroke="midnightblue" d="M147.655,-91.8097C159.123,-89.3228 170.805,-86.7893 181.814,-84.4018"/>
<polygon fill="midnightblue" stroke="midnightblue" points="146.686,-88.4384 137.655,-93.9784 148.17,-95.2794 146.686,-88.4384"/>
</g>
<!-- Node9 -->
<g id="node9" class="node"><title>Node9</title>
<g id="a_node9"><a xlink:href="a00073.html" target="_top" xlink:title="fcl::FclType\&lt; FclMatrix\l\&lt; FCL_REAL, Cols, internal\l::traits\&lt; Matrix\&lt; FCL_REAL,\l 3, Cols \&gt; \&gt;::Options \&gt; \&gt;">
<polygon fill="white" stroke="black" points="0.5,-11 0.5,-63 143.5,-63 143.5,-11 0.5,-11"/>
<text text-anchor="start" x="8.5" y="-51" font-family="Helvetica,sans-Serif" font-size="10.00">fcl::FclType&lt; FclMatrix</text>
<text text-anchor="start" x="8.5" y="-40" font-family="Helvetica,sans-Serif" font-size="10.00">&lt; FCL_REAL, Cols, internal</text>
<text text-anchor="start" x="8.5" y="-29" font-family="Helvetica,sans-Serif" font-size="10.00">::traits&lt; Matrix&lt; FCL_REAL,</text>
<text text-anchor="middle" x="72" y="-18" font-family="Helvetica,sans-Serif" font-size="10.00"> 3, Cols &gt; &gt;::Options &gt; &gt;</text>
</a>
</g>
</g>
<!-- Node9&#45;&gt;Node7 -->
<g id="edge8" class="edge"><title>Node9&#45;&gt;Node7</title>
<path fill="none" stroke="midnightblue" d="M153.751,-54.0258C163.257,-56.03 172.802,-58.0425 181.887,-59.958"/>
<polygon fill="midnightblue" stroke="midnightblue" points="154.387,-50.5831 143.88,-51.9447 152.943,-57.4325 154.387,-50.5831"/>
</g>
<!-- Node10 -->
<g id="node10" class="node"><title>Node10</title>
<g id="a_node10"><a xlink:href="a00242.html" target="_top" xlink:title="Simple transform class used locally by InterpMotion. ">
<polygon fill="white" stroke="black" points="362,-2.5 362,-21.5 448,-21.5 448,-2.5 362,-2.5"/>
<text text-anchor="middle" x="405" y="-9.5" font-family="Helvetica,sans-Serif" font-size="10.00">fcl::Transform3f</text>
</a>
</g>
</g>
<!-- Node10&#45;&gt;Node5 -->
<g id="edge9" class="edge"><title>Node10&#45;&gt;Node5</title>
<path fill="none" stroke="#9a32cd" stroke-dasharray="5,2" d="M458.085,-12.1202C469.276,-12.2818 481.034,-12.5541 492,-13 504.113,-13.4926 517.171,-14.2741 529.362,-15.1124"/>
<polygon fill="#9a32cd" stroke="#9a32cd" points="458.046,-8.61959 448.005,-12.0011 457.963,-15.6191 458.046,-8.61959"/>
<text text-anchor="middle" x="479" y="-16" font-family="Helvetica,sans-Serif" font-size="10.00"> t</text>
</g>
<!-- Node11&#45;&gt;Node1 -->
<g id="edge10" class="edge"><title>Node11&#45;&gt;Node1</title>
<path fill="none" stroke="#9a32cd" stroke-dasharray="5,2" d="M869.458,-74.6366C900.201,-78.0814 936.925,-82.2178 970,-86 975.974,-86.6831 982.18,-87.3968 988.401,-88.115"/>
<polygon fill="#9a32cd" stroke="#9a32cd" points="869.603,-71.1311 859.276,-73.4964 868.824,-78.0876 869.603,-71.1311"/>
<text text-anchor="middle" x="925" y="-89" font-family="Helvetica,sans-Serif" font-size="10.00"> obj_aabb_map</text>
</g>
</g>
</svg>
