<?xml version="1.0" encoding="UTF-8" standalone="no"?>
<!DOCTYPE svg PUBLIC "-//W3C//DTD SVG 1.1//EN"
 "http://www.w3.org/Graphics/SVG/1.1/DTD/svg11.dtd">
<!-- Generated by graphviz version 2.36.0 (20140111.2315)
 -->
<!-- Title: fcl::TraversalNodeBase Pages: 1 -->
<svg width="126pt" height="106pt"
 viewBox="0.00 0.00 126.00 106.00" xmlns="http://www.w3.org/2000/svg" xmlns:xlink="http://www.w3.org/1999/xlink">
<g id="graph0" class="graph" transform="scale(1 1) rotate(0) translate(4 102)">
<title>fcl::TraversalNodeBase</title>
<polygon fill="white" stroke="none" points="-4,4 -4,-102 122,-102 122,4 -4,4"/>
<!-- Node1 -->
<g id="node1" class="node"><title>Node1</title>
<polygon fill="#bfbfbf" stroke="black" points="-0.5,-0.5 -0.5,-19.5 118.5,-19.5 118.5,-0.5 -0.5,-0.5"/>
<text text-anchor="middle" x="59" y="-7.5" font-family="Helvetica,sans-Serif" font-size="10.00">fcl::TraversalNodeBase</text>
</g>
<!-- Node2 -->
<g id="node2" class="node"><title>Node2</title>
<g id="a_node2"><a xlink:href="a00242.html" target="_top" xlink:title="Simple transform class used locally by InterpMotion. ">
<polygon fill="white" stroke="black" points="16,-78.5 16,-97.5 102,-97.5 102,-78.5 16,-78.5"/>
<text text-anchor="middle" x="59" y="-85.5" font-family="Helvetica,sans-Serif" font-size="10.00">fcl::Transform3f</text>
</a>
</g>
</g>
<!-- Node2&#45;&gt;Node1 -->
<g id="edge1" class="edge"><title>Node2&#45;&gt;Node1</title>
<path fill="none" stroke="#9a32cd" stroke-dasharray="5,2" d="M59,-68.2239C59,-52.6974 59,-31.3582 59,-19.6165"/>
<polygon fill="#9a32cd" stroke="#9a32cd" points="55.5001,-68.2818 59,-78.2818 62.5001,-68.2819 55.5001,-68.2818"/>
<text text-anchor="middle" x="66.5" y="-52" font-family="Helvetica,sans-Serif" font-size="10.00"> tf1</text>
<text text-anchor="middle" x="66.5" y="-41" font-family="Helvetica,sans-Serif" font-size="10.00">tf2</text>
</g>
</g>
</svg>
