<?xml version="1.0" encoding="UTF-8" standalone="no"?>
<!DOCTYPE svg PUBLIC "-//W3C//DTD SVG 1.1//EN"
 "http://www.w3.org/Graphics/SVG/1.1/DTD/svg11.dtd">
<!-- Generated by graphviz version 2.36.0 (20140111.2315)
 -->
<!-- Title: fcl::Variance3f Pages: 1 -->
<svg width="454pt" height="202pt"
 viewBox="0.00 0.00 454.00 202.00" xmlns="http://www.w3.org/2000/svg" xmlns:xlink="http://www.w3.org/1999/xlink">
<g id="graph0" class="graph" transform="scale(1 1) rotate(0) translate(4 198)">
<title>fcl::Variance3f</title>
<polygon fill="white" stroke="none" points="-4,4 -4,-198 450,-198 450,4 -4,4"/>
<!-- Node1 -->
<g id="node1" class="node"><title>Node1</title>
<polygon fill="#bfbfbf" stroke="black" points="366,-88.5 366,-107.5 446,-107.5 446,-88.5 366,-88.5"/>
<text text-anchor="middle" x="406" y="-95.5" font-family="Helvetica,sans-Serif" font-size="10.00">fcl::Variance3f</text>
</g>
<!-- Node2 -->
<g id="node2" class="node"><title>Node2</title>
<g id="a_node2"><a xlink:href="a00069.html" target="_top" xlink:title="Eigen::FclMatrix\&lt; FCL\l_REAL, 1 \&gt;">
<polygon fill="white" stroke="black" points="182,-106 182,-136 298,-136 298,-106 182,-106"/>
<text text-anchor="start" x="190" y="-124" font-family="Helvetica,sans-Serif" font-size="10.00">Eigen::FclMatrix&lt; FCL</text>
<text text-anchor="middle" x="240" y="-113" font-family="Helvetica,sans-Serif" font-size="10.00">_REAL, 1 &gt;</text>
</a>
</g>
</g>
<!-- Node2&#45;&gt;Node1 -->
<g id="edge1" class="edge"><title>Node2&#45;&gt;Node1</title>
<path fill="none" stroke="#9a32cd" stroke-dasharray="5,2" d="M308.467,-111.538C328.041,-108.793 348.757,-105.888 365.959,-103.475"/>
<polygon fill="#9a32cd" stroke="#9a32cd" points="307.776,-108.101 298.359,-112.956 308.748,-115.033 307.776,-108.101"/>
<text text-anchor="middle" x="332" y="-113" font-family="Helvetica,sans-Serif" font-size="10.00"> axis</text>
</g>
<!-- Node3 -->
<g id="node3" class="node"><title>Node3</title>
<polygon fill="white" stroke="#bfbfbf" points="6.5,-142 6.5,-194 137.5,-194 137.5,-142 6.5,-142"/>
<text text-anchor="start" x="14.5" y="-182" font-family="Helvetica,sans-Serif" font-size="10.00">Matrix&lt; FCL_REAL ,</text>
<text text-anchor="start" x="14.5" y="-171" font-family="Helvetica,sans-Serif" font-size="10.00"> 3, Cols, internal::</text>
<text text-anchor="start" x="14.5" y="-160" font-family="Helvetica,sans-Serif" font-size="10.00">traits&lt;Matrix &lt;FCL_REAL</text>
<text text-anchor="middle" x="72" y="-149" font-family="Helvetica,sans-Serif" font-size="10.00"> , 3, Cols&gt; &gt;::Options &gt;</text>
</g>
<!-- Node3&#45;&gt;Node2 -->
<g id="edge2" class="edge"><title>Node3&#45;&gt;Node2</title>
<path fill="none" stroke="midnightblue" d="M147.46,-146.918C160.38,-143.26 173.579,-139.523 185.786,-136.067"/>
<polygon fill="midnightblue" stroke="midnightblue" points="146.324,-143.602 137.655,-149.694 148.231,-150.337 146.324,-143.602"/>
</g>
<!-- Node4 -->
<g id="node4" class="node"><title>Node4</title>
<g id="a_node4"><a xlink:href="a00073.html" target="_top" xlink:title="fcl::FclType\&lt; FclMatrix\l\&lt; FCL_REAL, Cols, internal\l::traits\&lt; Matrix\&lt; FCL_REAL,\l 3, Cols \&gt; \&gt;::Options \&gt; \&gt;">
<polygon fill="white" stroke="black" points="0.5,-71 0.5,-123 143.5,-123 143.5,-71 0.5,-71"/>
<text text-anchor="start" x="8.5" y="-111" font-family="Helvetica,sans-Serif" font-size="10.00">fcl::FclType&lt; FclMatrix</text>
<text text-anchor="start" x="8.5" y="-100" font-family="Helvetica,sans-Serif" font-size="10.00">&lt; FCL_REAL, Cols, internal</text>
<text text-anchor="start" x="8.5" y="-89" font-family="Helvetica,sans-Serif" font-size="10.00">::traits&lt; Matrix&lt; FCL_REAL,</text>
<text text-anchor="middle" x="72" y="-78" font-family="Helvetica,sans-Serif" font-size="10.00"> 3, Cols &gt; &gt;::Options &gt; &gt;</text>
</a>
</g>
</g>
<!-- Node4&#45;&gt;Node2 -->
<g id="edge3" class="edge"><title>Node4&#45;&gt;Node2</title>
<path fill="none" stroke="midnightblue" d="M154.051,-108.718C163.458,-110.078 172.897,-111.443 181.887,-112.743"/>
<polygon fill="midnightblue" stroke="midnightblue" points="154.278,-105.215 143.88,-107.248 153.277,-112.143 154.278,-105.215"/>
</g>
<!-- Node5 -->
<g id="node5" class="node"><title>Node5</title>
<g id="a_node5"><a xlink:href="a00069.html" target="_top" xlink:title="Eigen::FclMatrix\&lt; FCL\l_REAL, 3 \&gt;">
<polygon fill="white" stroke="black" points="182,-57 182,-87 298,-87 298,-57 182,-57"/>
<text text-anchor="start" x="190" y="-75" font-family="Helvetica,sans-Serif" font-size="10.00">Eigen::FclMatrix&lt; FCL</text>
<text text-anchor="middle" x="240" y="-64" font-family="Helvetica,sans-Serif" font-size="10.00">_REAL, 3 &gt;</text>
</a>
</g>
</g>
<!-- Node4&#45;&gt;Node5 -->
<g id="edge6" class="edge"><title>Node4&#45;&gt;Node5</title>
<path fill="none" stroke="midnightblue" d="M154.051,-84.7935C163.458,-83.3769 172.897,-81.9552 181.887,-80.6014"/>
<polygon fill="midnightblue" stroke="midnightblue" points="153.248,-81.3749 143.88,-86.3252 154.29,-88.2969 153.248,-81.3749"/>
</g>
<!-- Node5&#45;&gt;Node1 -->
<g id="edge4" class="edge"><title>Node5&#45;&gt;Node1</title>
<path fill="none" stroke="#9a32cd" stroke-dasharray="5,2" d="M308.467,-82.696C328.041,-85.7992 348.757,-89.0835 365.959,-91.8105"/>
<polygon fill="#9a32cd" stroke="#9a32cd" points="308.784,-79.2026 298.359,-81.0935 307.688,-86.1163 308.784,-79.2026"/>
<text text-anchor="middle" x="332" y="-91" font-family="Helvetica,sans-Serif" font-size="10.00"> Sigma</text>
</g>
<!-- Node6 -->
<g id="node6" class="node"><title>Node6</title>
<polygon fill="white" stroke="#bfbfbf" points="9,-0 9,-52 135,-52 135,-0 9,-0"/>
<text text-anchor="start" x="17" y="-40" font-family="Helvetica,sans-Serif" font-size="10.00">Matrix&lt; FCL_REAL, 3,</text>
<text text-anchor="start" x="17" y="-29" font-family="Helvetica,sans-Serif" font-size="10.00"> Cols, internal::traits</text>
<text text-anchor="start" x="17" y="-18" font-family="Helvetica,sans-Serif" font-size="10.00">&lt; Matrix&lt; FCL_REAL, 3,</text>
<text text-anchor="middle" x="72" y="-7" font-family="Helvetica,sans-Serif" font-size="10.00"> Cols &gt; &gt;::Options &gt;</text>
</g>
<!-- Node6&#45;&gt;Node5 -->
<g id="edge5" class="edge"><title>Node6&#45;&gt;Node5</title>
<path fill="none" stroke="midnightblue" d="M144.935,-45.9339C158.312,-49.6407 172.079,-53.4557 184.813,-56.9844"/>
<polygon fill="midnightblue" stroke="midnightblue" points="145.856,-42.5572 135.285,-43.2596 143.987,-49.303 145.856,-42.5572"/>
</g>
</g>
</svg>
