<?xml version="1.0" encoding="UTF-8" standalone="no"?>
<!DOCTYPE svg PUBLIC "-//W3C//DTD SVG 1.1//EN"
 "http://www.w3.org/Graphics/SVG/1.1/DTD/svg11.dtd">
<!-- Generated by graphviz version 2.36.0 (20140111.2315)
 -->
<!-- Title: broadphase Pages: 1 -->
<svg width="113pt" height="223pt"
 viewBox="0.00 0.00 113.00 223.00" xmlns="http://www.w3.org/2000/svg" xmlns:xlink="http://www.w3.org/1999/xlink">
<g id="graph0" class="graph" transform="scale(1 1) rotate(0) translate(4 219)">
<title>broadphase</title>
<polygon fill="white" stroke="none" points="-4,4 -4,-219 109,-219 109,4 -4,4"/>
<g id="clust1" class="cluster"><title>clusterdir_20fa1abcad33804f5539e29af8f8ee4c</title>
<g id="a_clust1"><a xlink:href="dir_20fa1abcad33804f5539e29af8f8ee4c.html" target="_top" xlink:title="fcl">
<polygon fill="#ddddee" stroke="black" points="8,-136 8,-207 92,-207 92,-136 8,-136"/>
<text text-anchor="middle" x="50" y="-195" font-family="Helvetica,sans-Serif" font-size="10.00">fcl</text>
</a>
</g>
</g>
<!-- dir_17fe4235f721f08bb92df03f78909770 -->
<g id="node1" class="node"><title>dir_17fe4235f721f08bb92df03f78909770</title>
<g id="a_node1"><a xlink:href="dir_17fe4235f721f08bb92df03f78909770.html" target="_top" xlink:title="broadphase">
<polygon fill="#eeeeff" stroke="black" points="83.25,-180 16.75,-180 16.75,-144 83.25,-144 83.25,-180"/>
<text text-anchor="middle" x="50" y="-159.5" font-family="Helvetica,sans-Serif" font-size="10.00">broadphase</text>
</a>
</g>
</g>
<!-- dir_e45952f7c7fe250496424f0605a41daa -->
<g id="node2" class="node"><title>dir_e45952f7c7fe250496424f0605a41daa</title>
<g id="a_node2"><a xlink:href="dir_e45952f7c7fe250496424f0605a41daa.html" target="_top" xlink:title="BV">
<polygon fill="none" stroke="black" points="77,-36 23,-36 23,-0 77,-0 77,-36"/>
<text text-anchor="middle" x="50" y="-15.5" font-family="Helvetica,sans-Serif" font-size="10.00">BV</text>
</a>
</g>
</g>
<!-- dir_17fe4235f721f08bb92df03f78909770&#45;&gt;dir_e45952f7c7fe250496424f0605a41daa -->
<g id="edge2" class="edge"><title>dir_17fe4235f721f08bb92df03f78909770&#45;&gt;dir_e45952f7c7fe250496424f0605a41daa</title>
<path fill="none" stroke="black" d="M46.7517,-143.888C44.9542,-133.542 42.9053,-120.063 42,-108 40.8026,-92.0449 40.8026,-87.9551 42,-72 42.6366,-63.5179 43.8384,-54.3361 45.1208,-46.0356"/>
<polygon fill="black" stroke="black" points="48.5836,-46.5472 46.7517,-36.1119 41.6763,-45.412 48.5836,-46.5472"/>
<g id="a_edge2&#45;headlabel"><a xlink:href="dir_000004_000003.html" target="_top" xlink:title="5">
<text text-anchor="middle" x="50.8024" y="-48.0546" font-family="Helvetica,sans-Serif" font-size="10.00">5</text>
</a>
</g>
</g>
<!-- dir_f9a2c31520f97314aafbcec6d5f7e1ab -->
<g id="node3" class="node"><title>dir_f9a2c31520f97314aafbcec6d5f7e1ab</title>
<g id="a_node3"><a xlink:href="dir_f9a2c31520f97314aafbcec6d5f7e1ab.html" target="_top" xlink:title="shape">
<polygon fill="none" stroke="black" points="105,-108 51,-108 51,-72 105,-72 105,-108"/>
<text text-anchor="middle" x="78" y="-87.5" font-family="Helvetica,sans-Serif" font-size="10.00">shape</text>
</a>
</g>
</g>
<!-- dir_17fe4235f721f08bb92df03f78909770&#45;&gt;dir_f9a2c31520f97314aafbcec6d5f7e1ab -->
<g id="edge3" class="edge"><title>dir_17fe4235f721f08bb92df03f78909770&#45;&gt;dir_f9a2c31520f97314aafbcec6d5f7e1ab</title>
<path fill="none" stroke="black" d="M56.9214,-143.697C60.0747,-135.813 63.8783,-126.304 67.3814,-117.546"/>
<polygon fill="black" stroke="black" points="70.694,-118.689 71.1583,-108.104 64.1946,-116.089 70.694,-118.689"/>
<g id="a_edge3&#45;headlabel"><a xlink:href="dir_000004_000009.html" target="_top" xlink:title="2">
<text text-anchor="middle" x="71.9952" y="-120.581" font-family="Helvetica,sans-Serif" font-size="10.00">2</text>
</a>
</g>
</g>
<!-- dir_f9a2c31520f97314aafbcec6d5f7e1ab&#45;&gt;dir_e45952f7c7fe250496424f0605a41daa -->
<g id="edge1" class="edge"><title>dir_f9a2c31520f97314aafbcec6d5f7e1ab&#45;&gt;dir_e45952f7c7fe250496424f0605a41daa</title>
<path fill="none" stroke="black" d="M71.0786,-71.6966C67.9253,-63.8132 64.1217,-54.3042 60.6186,-45.5464"/>
<polygon fill="black" stroke="black" points="63.8054,-44.0892 56.8417,-36.1043 57.306,-46.689 63.8054,-44.0892"/>
<g id="a_edge1&#45;headlabel"><a xlink:href="dir_000009_000003.html" target="_top" xlink:title="1">
<text text-anchor="middle" x="67.7765" y="-43.8723" font-family="Helvetica,sans-Serif" font-size="10.00">1</text>
</a>
</g>
</g>
</g>
</svg>
