<?xml version="1.0" encoding="UTF-8" standalone="no"?>
<!DOCTYPE svg PUBLIC "-//W3C//DTD SVG 1.1//EN"
 "http://www.w3.org/Graphics/SVG/1.1/DTD/svg11.dtd">
<!-- Generated by graphviz version 2.36.0 (20140111.2315)
 -->
<!-- Title: ccd Pages: 1 -->
<svg width="198pt" height="303pt"
 viewBox="0.00 0.00 198.00 303.00" xmlns="http://www.w3.org/2000/svg" xmlns:xlink="http://www.w3.org/1999/xlink">
<g id="graph0" class="graph" transform="scale(1 1) rotate(0) translate(4 299)">
<title>ccd</title>
<polygon fill="white" stroke="none" points="-4,4 -4,-299 194,-299 194,4 -4,4"/>
<g id="clust1" class="cluster"><title>clusterdir_20fa1abcad33804f5539e29af8f8ee4c</title>
<g id="a_clust1"><a xlink:href="dir_20fa1abcad33804f5539e29af8f8ee4c.html" target="_top" xlink:title="fcl">
<polygon fill="#ddddee" stroke="black" points="8,-200 8,-287 182,-287 182,-200 8,-200"/>
<text text-anchor="middle" x="95" y="-275" font-family="Helvetica,sans-Serif" font-size="10.00">fcl</text>
</a>
</g>
</g>
<g id="clust2" class="cluster"><title>clusterdir_f10fb266f0f7545c66f7b6baffdaaee3</title>
<g id="a_clust2"><a xlink:href="dir_f10fb266f0f7545c66f7b6baffdaaee3.html" target="_top">
<polygon fill="#eeeeff" stroke="black" points="16,-208 16,-260 174,-260 174,-208 16,-208"/>
</a>
</g>
</g>
<!-- dir_f10fb266f0f7545c66f7b6baffdaaee3 -->
<g id="node1" class="node"><title>dir_f10fb266f0f7545c66f7b6baffdaaee3</title>
<text text-anchor="middle" x="139" y="-231.5" font-family="Helvetica,sans-Serif" font-size="10.00">ccd</text>
</g>
<!-- dir_2a3bc160f6192db30de205e670b0a725 -->
<g id="node3" class="node"><title>dir_2a3bc160f6192db30de205e670b0a725</title>
<g id="a_node3"><a xlink:href="dir_2a3bc160f6192db30de205e670b0a725.html" target="_top" xlink:title="math">
<polygon fill="none" stroke="black" points="166,-108 112,-108 112,-72 166,-72 166,-108"/>
<text text-anchor="middle" x="139" y="-87.5" font-family="Helvetica,sans-Serif" font-size="10.00">math</text>
</a>
</g>
</g>
<!-- dir_f10fb266f0f7545c66f7b6baffdaaee3&#45;&gt;dir_2a3bc160f6192db30de205e670b0a725 -->
<g id="edge1" class="edge"><title>dir_f10fb266f0f7545c66f7b6baffdaaee3&#45;&gt;dir_2a3bc160f6192db30de205e670b0a725</title>
<path fill="none" stroke="black" d="M123.39,-215.774C115.627,-206.03 107.054,-193.184 103,-180 98.2972,-164.707 98.2972,-159.293 103,-144 106.009,-134.215 111.507,-124.616 117.316,-116.334"/>
<polygon fill="black" stroke="black" points="120.195,-118.328 123.39,-108.226 114.593,-114.131 120.195,-118.328"/>
<g id="a_edge1&#45;headlabel"><a xlink:href="dir_000007_000017.html" target="_top" xlink:title="4">
<text text-anchor="middle" x="120.312" y="-120.407" font-family="Helvetica,sans-Serif" font-size="10.00">4</text>
</a>
</g>
</g>
<!-- dir_e45952f7c7fe250496424f0605a41daa -->
<g id="node4" class="node"><title>dir_e45952f7c7fe250496424f0605a41daa</title>
<g id="a_node4"><a xlink:href="dir_e45952f7c7fe250496424f0605a41daa.html" target="_top" xlink:title="BV">
<polygon fill="none" stroke="black" points="166,-180 112,-180 112,-144 166,-144 166,-180"/>
<text text-anchor="middle" x="139" y="-159.5" font-family="Helvetica,sans-Serif" font-size="10.00">BV</text>
</a>
</g>
</g>
<!-- dir_f10fb266f0f7545c66f7b6baffdaaee3&#45;&gt;dir_e45952f7c7fe250496424f0605a41daa -->
<g id="edge2" class="edge"><title>dir_f10fb266f0f7545c66f7b6baffdaaee3&#45;&gt;dir_e45952f7c7fe250496424f0605a41daa</title>
<path fill="none" stroke="black" d="M139,-215.697C139,-207.983 139,-198.712 139,-190.112"/>
<polygon fill="black" stroke="black" points="142.5,-190.104 139,-180.104 135.5,-190.104 142.5,-190.104"/>
<g id="a_edge2&#45;headlabel"><a xlink:href="dir_000007_000003.html" target="_top" xlink:title="1">
<text text-anchor="middle" x="145.339" y="-191.199" font-family="Helvetica,sans-Serif" font-size="10.00">1</text>
</a>
</g>
</g>
<!-- dir_67f3edd06a0bfca203abb5656a034a8e -->
<g id="node5" class="node"><title>dir_67f3edd06a0bfca203abb5656a034a8e</title>
<g id="a_node5"><a xlink:href="dir_67f3edd06a0bfca203abb5656a034a8e.html" target="_top" xlink:title="eigen">
<polygon fill="white" stroke="red" points="166,-36 112,-36 112,-0 166,-0 166,-36"/>
<text text-anchor="middle" x="139" y="-15.5" font-family="Helvetica,sans-Serif" font-size="10.00">eigen</text>
</a>
</g>
</g>
<!-- dir_f10fb266f0f7545c66f7b6baffdaaee3&#45;&gt;dir_67f3edd06a0bfca203abb5656a034a8e -->
<g id="edge3" class="edge"><title>dir_f10fb266f0f7545c66f7b6baffdaaee3&#45;&gt;dir_67f3edd06a0bfca203abb5656a034a8e</title>
<path fill="none" stroke="black" d="M154.61,-215.774C162.373,-206.03 170.946,-193.184 175,-180 189.108,-134.12 189.108,-117.88 175,-72 171.991,-62.2153 166.493,-52.6161 160.684,-44.3336"/>
<polygon fill="black" stroke="black" points="163.407,-42.1306 154.61,-36.2264 157.805,-46.3279 163.407,-42.1306"/>
<g id="a_edge3&#45;headlabel"><a xlink:href="dir_000007_000013.html" target="_top" xlink:title="2">
<text text-anchor="middle" x="167.835" y="-40.8048" font-family="Helvetica,sans-Serif" font-size="10.00">2</text>
</a>
</g>
</g>
<!-- dir_c37a551145f48424b39e9d014747b929 -->
<g id="node2" class="node"><title>dir_c37a551145f48424b39e9d014747b929</title>
<g id="a_node2"><a xlink:href="dir_c37a551145f48424b39e9d014747b929.html" target="_top" xlink:title="interpolation">
<polygon fill="white" stroke="black" points="93.25,-252 24.75,-252 24.75,-216 93.25,-216 93.25,-252"/>
<text text-anchor="middle" x="59" y="-231.5" font-family="Helvetica,sans-Serif" font-size="10.00">interpolation</text>
</a>
</g>
</g>
<!-- dir_2a3bc160f6192db30de205e670b0a725&#45;&gt;dir_67f3edd06a0bfca203abb5656a034a8e -->
<g id="edge4" class="edge"><title>dir_2a3bc160f6192db30de205e670b0a725&#45;&gt;dir_67f3edd06a0bfca203abb5656a034a8e</title>
<path fill="none" stroke="black" d="M133.084,-71.6966C132.289,-63.9827 132.062,-54.7125 132.405,-46.1124"/>
<polygon fill="black" stroke="black" points="135.898,-46.3243 133.105,-36.1043 128.915,-45.8356 135.898,-46.3243"/>
<g id="a_edge4&#45;headlabel"><a xlink:href="dir_000017_000013.html" target="_top" xlink:title="2">
<text text-anchor="middle" x="138.48" y="-47.6083" font-family="Helvetica,sans-Serif" font-size="10.00">2</text>
</a>
</g>
</g>
<!-- dir_e45952f7c7fe250496424f0605a41daa&#45;&gt;dir_2a3bc160f6192db30de205e670b0a725 -->
<g id="edge5" class="edge"><title>dir_e45952f7c7fe250496424f0605a41daa&#45;&gt;dir_2a3bc160f6192db30de205e670b0a725</title>
<path fill="none" stroke="black" d="M139,-143.697C139,-135.983 139,-126.712 139,-118.112"/>
<polygon fill="black" stroke="black" points="142.5,-118.104 139,-108.104 135.5,-118.104 142.5,-118.104"/>
<g id="a_edge5&#45;headlabel"><a xlink:href="dir_000003_000017.html" target="_top" xlink:title="9">
<text text-anchor="middle" x="145.339" y="-119.199" font-family="Helvetica,sans-Serif" font-size="10.00">9</text>
</a>
</g>
</g>
<!-- dir_67f3edd06a0bfca203abb5656a034a8e&#45;&gt;dir_2a3bc160f6192db30de205e670b0a725 -->
<g id="edge6" class="edge"><title>dir_67f3edd06a0bfca203abb5656a034a8e&#45;&gt;dir_2a3bc160f6192db30de205e670b0a725</title>
<path fill="none" stroke="black" d="M144.895,-36.1043C145.701,-43.7913 145.937,-53.0537 145.604,-61.6651"/>
<polygon fill="black" stroke="black" points="142.109,-61.4805 144.916,-71.6966 149.092,-61.9597 142.109,-61.4805"/>
<g id="a_edge6&#45;headlabel"><a xlink:href="dir_000013_000017.html" target="_top" xlink:title="3">
<text text-anchor="middle" x="139.522" y="-55.2" font-family="Helvetica,sans-Serif" font-size="10.00">3</text>
</a>
</g>
</g>
</g>
</svg>
