<?xml version="1.0" encoding="UTF-8" standalone="no"?>
<!DOCTYPE svg PUBLIC "-//W3C//DTD SVG 1.1//EN"
 "http://www.w3.org/Graphics/SVG/1.1/DTD/svg11.dtd">
<!-- Generated by graphviz version 2.36.0 (20140111.2315)
 -->
<!-- Title: fcl Pages: 1 -->
<svg width="433pt" height="615pt"
 viewBox="0.00 0.00 433.00 615.00" xmlns="http://www.w3.org/2000/svg" xmlns:xlink="http://www.w3.org/1999/xlink">
<g id="graph0" class="graph" transform="scale(1 1) rotate(0) translate(4 611)">
<title>fcl</title>
<polygon fill="white" stroke="none" points="-4,4 -4,-611 429,-611 429,4 -4,4"/>
<g id="clust1" class="cluster"><title>clusterdir_6dc4bc67e1ce873d2865f9beb739e105</title>
<g id="a_clust1"><a xlink:href="dir_6dc4bc67e1ce873d2865f9beb739e105.html" target="_top" xlink:title="hpp">
<polygon fill="#ddddee" stroke="black" points="8,-8 8,-599 417,-599 417,-8 8,-8"/>
<text text-anchor="middle" x="212.5" y="-587" font-family="Helvetica,sans-Serif" font-size="10.00">hpp</text>
</a>
</g>
</g>
<g id="clust2" class="cluster"><title>clusterdir_20fa1abcad33804f5539e29af8f8ee4c</title>
<g id="a_clust2"><a xlink:href="dir_20fa1abcad33804f5539e29af8f8ee4c.html" target="_top">
<polygon fill="#eeeeff" stroke="black" points="16,-16 16,-572 409,-572 409,-16 16,-16"/>
</a>
</g>
</g>
<!-- dir_20fa1abcad33804f5539e29af8f8ee4c -->
<g id="node1" class="node"><title>dir_20fa1abcad33804f5539e29af8f8ee4c</title>
<text text-anchor="middle" x="211" y="-543.5" font-family="Helvetica,sans-Serif" font-size="10.00">fcl</text>
</g>
<!-- dir_d23a593dd98e2eeb49dc67ae1d8955d7 -->
<g id="node5" class="node"><title>dir_d23a593dd98e2eeb49dc67ae1d8955d7</title>
<g id="a_node5"><a xlink:href="dir_d23a593dd98e2eeb49dc67ae1d8955d7.html" target="_top" xlink:title="BVH">
<polygon fill="white" stroke="black" points="210,-276 156,-276 156,-240 210,-240 210,-276"/>
<text text-anchor="middle" x="183" y="-255.5" font-family="Helvetica,sans-Serif" font-size="10.00">BVH</text>
</a>
</g>
</g>
<!-- dir_20fa1abcad33804f5539e29af8f8ee4c&#45;&gt;dir_d23a593dd98e2eeb49dc67ae1d8955d7 -->
<g id="edge13" class="edge"><title>dir_20fa1abcad33804f5539e29af8f8ee4c&#45;&gt;dir_d23a593dd98e2eeb49dc67ae1d8955d7</title>
<path fill="none" stroke="black" d="M210.515,-527.538C209.534,-497.91 206.799,-435.948 200,-384 197.885,-367.838 195.468,-364.112 193,-348 189.842,-327.381 187.248,-303.931 185.494,-286.28"/>
<polygon fill="black" stroke="black" points="188.957,-285.733 184.512,-276.116 181.99,-286.406 188.957,-285.733"/>
<g id="a_edge13&#45;headlabel"><a xlink:href="dir_000002_000005.html" target="_top" xlink:title="7">
<text text-anchor="middle" x="192.129" y="-286.538" font-family="Helvetica,sans-Serif" font-size="10.00">7</text>
</a>
</g>
</g>
<!-- dir_f10fb266f0f7545c66f7b6baffdaaee3 -->
<g id="node6" class="node"><title>dir_f10fb266f0f7545c66f7b6baffdaaee3</title>
<g id="a_node6"><a xlink:href="dir_f10fb266f0f7545c66f7b6baffdaaee3.html" target="_top" xlink:title="ccd">
<polygon fill="white" stroke="red" points="78,-276 24,-276 24,-240 78,-240 78,-276"/>
<text text-anchor="middle" x="51" y="-255.5" font-family="Helvetica,sans-Serif" font-size="10.00">ccd</text>
</a>
</g>
</g>
<!-- dir_20fa1abcad33804f5539e29af8f8ee4c&#45;&gt;dir_f10fb266f0f7545c66f7b6baffdaaee3 -->
<g id="edge15" class="edge"><title>dir_20fa1abcad33804f5539e29af8f8ee4c&#45;&gt;dir_f10fb266f0f7545c66f7b6baffdaaee3</title>
<path fill="none" stroke="black" d="M183.96,-543.305C150.966,-539.654 96.2224,-528.158 69,-492 22.9293,-430.807 35.021,-333.149 44.5449,-286.091"/>
<polygon fill="black" stroke="black" points="48.0221,-286.568 46.695,-276.056 41.1774,-285.101 48.0221,-286.568"/>
<g id="a_edge15&#45;headlabel"><a xlink:href="dir_000002_000007.html" target="_top" xlink:title="3">
<text text-anchor="middle" x="50.0452" y="-288.177" font-family="Helvetica,sans-Serif" font-size="10.00">3</text>
</a>
</g>
</g>
<!-- dir_5e386022696992159e19daedb2c782a4 -->
<g id="node8" class="node"><title>dir_5e386022696992159e19daedb2c782a4</title>
<g id="a_node8"><a xlink:href="dir_5e386022696992159e19daedb2c782a4.html" target="_top" xlink:title="knn">
<polygon fill="white" stroke="black" points="348,-348 294,-348 294,-312 348,-312 348,-348"/>
<text text-anchor="middle" x="321" y="-327.5" font-family="Helvetica,sans-Serif" font-size="10.00">knn</text>
</a>
</g>
</g>
<!-- dir_20fa1abcad33804f5539e29af8f8ee4c&#45;&gt;dir_5e386022696992159e19daedb2c782a4 -->
<g id="edge17" class="edge"><title>dir_20fa1abcad33804f5539e29af8f8ee4c&#45;&gt;dir_5e386022696992159e19daedb2c782a4</title>
<path fill="none" stroke="black" d="M236.583,-527.844C265.806,-506.534 312.025,-467.166 331,-420 338.993,-400.132 335.491,-375.88 330.548,-357.713"/>
<polygon fill="black" stroke="black" points="333.874,-356.618 327.634,-348.056 327.173,-358.64 333.874,-356.618"/>
<g id="a_edge17&#45;headlabel"><a xlink:href="dir_000002_000011.html" target="_top" xlink:title="1">
<text text-anchor="middle" x="337.631" y="-356.739" font-family="Helvetica,sans-Serif" font-size="10.00">1</text>
</a>
</g>
</g>
<!-- dir_d226c443dcbd954a535e36ad625e373d -->
<g id="node9" class="node"><title>dir_d226c443dcbd954a535e36ad625e373d</title>
<g id="a_node9"><a xlink:href="dir_d226c443dcbd954a535e36ad625e373d.html" target="_top" xlink:title="learning">
<polygon fill="white" stroke="black" points="401,-492 347,-492 347,-456 401,-456 401,-492"/>
<text text-anchor="middle" x="374" y="-471.5" font-family="Helvetica,sans-Serif" font-size="10.00">learning</text>
</a>
</g>
</g>
<!-- dir_20fa1abcad33804f5539e29af8f8ee4c&#45;&gt;dir_d226c443dcbd954a535e36ad625e373d -->
<g id="edge16" class="edge"><title>dir_20fa1abcad33804f5539e29af8f8ee4c&#45;&gt;dir_d226c443dcbd954a535e36ad625e373d</title>
<path fill="none" stroke="black" d="M238.283,-533.284C265.515,-521.589 307.527,-503.547 337.592,-490.635"/>
<polygon fill="black" stroke="black" points="339.093,-493.8 346.9,-486.638 336.331,-487.368 339.093,-493.8"/>
<g id="a_edge16&#45;headlabel"><a xlink:href="dir_000002_000006.html" target="_top" xlink:title="1">
<text text-anchor="middle" x="336.91" y="-495.327" font-family="Helvetica,sans-Serif" font-size="10.00">1</text>
</a>
</g>
</g>
<!-- dir_35faeb12b5846e0072da59833a7dc403 -->
<g id="node14" class="node"><title>dir_35faeb12b5846e0072da59833a7dc403</title>
<g id="a_node14"><a xlink:href="dir_35faeb12b5846e0072da59833a7dc403.html" target="_top" xlink:title="traversal">
<polygon fill="white" stroke="black" points="132,-492 78,-492 78,-456 132,-456 132,-492"/>
<text text-anchor="middle" x="105" y="-471.5" font-family="Helvetica,sans-Serif" font-size="10.00">traversal</text>
</a>
</g>
</g>
<!-- dir_20fa1abcad33804f5539e29af8f8ee4c&#45;&gt;dir_35faeb12b5846e0072da59833a7dc403 -->
<g id="edge14" class="edge"><title>dir_20fa1abcad33804f5539e29af8f8ee4c&#45;&gt;dir_35faeb12b5846e0072da59833a7dc403</title>
<path fill="none" stroke="black" d="M185.069,-527.876C171.338,-518.808 154.294,-507.552 139.464,-497.759"/>
<polygon fill="black" stroke="black" points="141.304,-494.78 131.03,-492.19 137.446,-500.621 141.304,-494.78"/>
<g id="a_edge14&#45;headlabel"><a xlink:href="dir_000002_000020.html" target="_top" xlink:title="2">
<text text-anchor="middle" x="145.868" y="-491.891" font-family="Helvetica,sans-Serif" font-size="10.00">2</text>
</a>
</g>
</g>
<!-- dir_6c3f771d38c58b91a688f6c21958fe80 -->
<g id="node2" class="node"><title>dir_6c3f771d38c58b91a688f6c21958fe80</title>
<g id="a_node2"><a xlink:href="dir_6c3f771d38c58b91a688f6c21958fe80.html" target="_top" xlink:title="articulated_model">
<polygon fill="white" stroke="black" points="401.25,-204 308.75,-204 308.75,-168 401.25,-168 401.25,-204"/>
<text text-anchor="middle" x="355" y="-183.5" font-family="Helvetica,sans-Serif" font-size="10.00">articulated_model</text>
</a>
</g>
</g>
<!-- dir_2a3bc160f6192db30de205e670b0a725 -->
<g id="node10" class="node"><title>dir_2a3bc160f6192db30de205e670b0a725</title>
<g id="a_node10"><a xlink:href="dir_2a3bc160f6192db30de205e670b0a725.html" target="_top" xlink:title="math">
<polygon fill="white" stroke="black" points="233,-132 179,-132 179,-96 233,-96 233,-132"/>
<text text-anchor="middle" x="206" y="-111.5" font-family="Helvetica,sans-Serif" font-size="10.00">math</text>
</a>
</g>
</g>
<!-- dir_6c3f771d38c58b91a688f6c21958fe80&#45;&gt;dir_2a3bc160f6192db30de205e670b0a725 -->
<g id="edge29" class="edge"><title>dir_6c3f771d38c58b91a688f6c21958fe80&#45;&gt;dir_2a3bc160f6192db30de205e670b0a725</title>
<path fill="none" stroke="black" d="M318.55,-167.876C295.38,-156.99 265.496,-142.951 242.345,-132.075"/>
<polygon fill="black" stroke="black" points="243.734,-128.86 233.195,-127.776 240.758,-135.196 243.734,-128.86"/>
<g id="a_edge29&#45;headlabel"><a xlink:href="dir_000016_000017.html" target="_top" xlink:title="1">
<text text-anchor="middle" x="248.195" y="-125.319" font-family="Helvetica,sans-Serif" font-size="10.00">1</text>
</a>
</g>
</g>
<!-- dir_17fe4235f721f08bb92df03f78909770 -->
<g id="node3" class="node"><title>dir_17fe4235f721f08bb92df03f78909770</title>
<g id="a_node3"><a xlink:href="dir_17fe4235f721f08bb92df03f78909770.html" target="_top" xlink:title="broadphase">
<polygon fill="white" stroke="black" points="191.25,-420 124.75,-420 124.75,-384 191.25,-384 191.25,-420"/>
<text text-anchor="middle" x="158" y="-399.5" font-family="Helvetica,sans-Serif" font-size="10.00">broadphase</text>
</a>
</g>
</g>
<!-- dir_e45952f7c7fe250496424f0605a41daa -->
<g id="node4" class="node"><title>dir_e45952f7c7fe250496424f0605a41daa</title>
<g id="a_node4"><a xlink:href="dir_e45952f7c7fe250496424f0605a41daa.html" target="_top" xlink:title="BV">
<polygon fill="white" stroke="black" points="210,-204 156,-204 156,-168 210,-168 210,-204"/>
<text text-anchor="middle" x="183" y="-183.5" font-family="Helvetica,sans-Serif" font-size="10.00">BV</text>
</a>
</g>
</g>
<!-- dir_17fe4235f721f08bb92df03f78909770&#45;&gt;dir_e45952f7c7fe250496424f0605a41daa -->
<g id="edge27" class="edge"><title>dir_17fe4235f721f08bb92df03f78909770&#45;&gt;dir_e45952f7c7fe250496424f0605a41daa</title>
<path fill="none" stroke="black" d="M152.807,-383.612C144.708,-353.574 131.519,-290.345 147,-240 150.009,-230.215 155.507,-220.616 161.316,-212.334"/>
<polygon fill="black" stroke="black" points="164.195,-214.328 167.39,-204.226 158.593,-210.131 164.195,-214.328"/>
<g id="a_edge27&#45;headlabel"><a xlink:href="dir_000004_000003.html" target="_top" xlink:title="5">
<text text-anchor="middle" x="164.312" y="-216.407" font-family="Helvetica,sans-Serif" font-size="10.00">5</text>
</a>
</g>
</g>
<!-- dir_f9a2c31520f97314aafbcec6d5f7e1ab -->
<g id="node12" class="node"><title>dir_f9a2c31520f97314aafbcec6d5f7e1ab</title>
<g id="a_node12"><a xlink:href="dir_f9a2c31520f97314aafbcec6d5f7e1ab.html" target="_top" xlink:title="shape">
<polygon fill="white" stroke="black" points="256,-348 202,-348 202,-312 256,-312 256,-348"/>
<text text-anchor="middle" x="229" y="-327.5" font-family="Helvetica,sans-Serif" font-size="10.00">shape</text>
</a>
</g>
</g>
<!-- dir_17fe4235f721f08bb92df03f78909770&#45;&gt;dir_f9a2c31520f97314aafbcec6d5f7e1ab -->
<g id="edge28" class="edge"><title>dir_17fe4235f721f08bb92df03f78909770&#45;&gt;dir_f9a2c31520f97314aafbcec6d5f7e1ab</title>
<path fill="none" stroke="black" d="M175.551,-383.697C184.234,-375.135 194.863,-364.656 204.348,-355.304"/>
<polygon fill="black" stroke="black" points="206.988,-357.617 211.651,-348.104 202.073,-352.633 206.988,-357.617"/>
<g id="a_edge28&#45;headlabel"><a xlink:href="dir_000004_000009.html" target="_top" xlink:title="2">
<text text-anchor="middle" x="206.421" y="-359.663" font-family="Helvetica,sans-Serif" font-size="10.00">2</text>
</a>
</g>
</g>
<!-- dir_e45952f7c7fe250496424f0605a41daa&#45;&gt;dir_2a3bc160f6192db30de205e670b0a725 -->
<g id="edge21" class="edge"><title>dir_e45952f7c7fe250496424f0605a41daa&#45;&gt;dir_2a3bc160f6192db30de205e670b0a725</title>
<path fill="none" stroke="black" d="M188.685,-167.697C191.248,-159.898 194.333,-150.509 197.185,-141.829"/>
<polygon fill="black" stroke="black" points="200.584,-142.697 200.38,-132.104 193.933,-140.512 200.584,-142.697"/>
<g id="a_edge21&#45;headlabel"><a xlink:href="dir_000003_000017.html" target="_top" xlink:title="9">
<text text-anchor="middle" x="202.159" y="-144.498" font-family="Helvetica,sans-Serif" font-size="10.00">9</text>
</a>
</g>
</g>
<!-- dir_d23a593dd98e2eeb49dc67ae1d8955d7&#45;&gt;dir_e45952f7c7fe250496424f0605a41daa -->
<g id="edge1" class="edge"><title>dir_d23a593dd98e2eeb49dc67ae1d8955d7&#45;&gt;dir_e45952f7c7fe250496424f0605a41daa</title>
<path fill="none" stroke="black" d="M183,-239.697C183,-231.983 183,-222.712 183,-214.112"/>
<polygon fill="black" stroke="black" points="186.5,-214.104 183,-204.104 179.5,-214.104 186.5,-214.104"/>
<g id="a_edge1&#45;headlabel"><a xlink:href="dir_000005_000003.html" target="_top" xlink:title="5">
<text text-anchor="middle" x="189.339" y="-215.199" font-family="Helvetica,sans-Serif" font-size="10.00">5</text>
</a>
</g>
</g>
<!-- dir_f10fb266f0f7545c66f7b6baffdaaee3&#45;&gt;dir_e45952f7c7fe250496424f0605a41daa -->
<g id="edge9" class="edge"><title>dir_f10fb266f0f7545c66f7b6baffdaaee3&#45;&gt;dir_e45952f7c7fe250496424f0605a41daa</title>
<path fill="none" stroke="black" d="M78.0307,-242.666C97.8301,-232.166 124.919,-217.8 146.619,-206.293"/>
<polygon fill="black" stroke="black" points="148.357,-209.333 155.552,-201.556 145.077,-203.149 148.357,-209.333"/>
<g id="a_edge9&#45;headlabel"><a xlink:href="dir_000007_000003.html" target="_top" xlink:title="1">
<text text-anchor="middle" x="146.511" y="-211.025" font-family="Helvetica,sans-Serif" font-size="10.00">1</text>
</a>
</g>
</g>
<!-- dir_67f3edd06a0bfca203abb5656a034a8e -->
<g id="node7" class="node"><title>dir_67f3edd06a0bfca203abb5656a034a8e</title>
<g id="a_node7"><a xlink:href="dir_67f3edd06a0bfca203abb5656a034a8e.html" target="_top" xlink:title="eigen">
<polygon fill="white" stroke="red" points="233,-60 179,-60 179,-24 233,-24 233,-60"/>
<text text-anchor="middle" x="206" y="-39.5" font-family="Helvetica,sans-Serif" font-size="10.00">eigen</text>
</a>
</g>
</g>
<!-- dir_f10fb266f0f7545c66f7b6baffdaaee3&#45;&gt;dir_67f3edd06a0bfca203abb5656a034a8e -->
<g id="edge10" class="edge"><title>dir_f10fb266f0f7545c66f7b6baffdaaee3&#45;&gt;dir_67f3edd06a0bfca203abb5656a034a8e</title>
<path fill="none" stroke="black" d="M43.4718,-239.972C36.4178,-221.315 28.5337,-190.988 40,-168 66.9084,-114.054 129.417,-77.2739 169.585,-58.2355"/>
<polygon fill="black" stroke="black" points="171.166,-61.3609 178.785,-53.999 168.238,-55.0026 171.166,-61.3609"/>
<g id="a_edge10&#45;headlabel"><a xlink:href="dir_000007_000013.html" target="_top" xlink:title="2">
<text text-anchor="middle" x="169.088" y="-62.9433" font-family="Helvetica,sans-Serif" font-size="10.00">2</text>
</a>
</g>
</g>
<!-- dir_f10fb266f0f7545c66f7b6baffdaaee3&#45;&gt;dir_2a3bc160f6192db30de205e670b0a725 -->
<g id="edge8" class="edge"><title>dir_f10fb266f0f7545c66f7b6baffdaaee3&#45;&gt;dir_2a3bc160f6192db30de205e670b0a725</title>
<path fill="none" stroke="black" d="M46.528,-239.726C42.5856,-220.29 39.5937,-188.732 55,-168 81.3945,-132.481 133.398,-120.644 168.926,-116.769"/>
<polygon fill="black" stroke="black" points="169.292,-120.25 178.925,-115.839 168.644,-113.28 169.292,-120.25"/>
<g id="a_edge8&#45;headlabel"><a xlink:href="dir_000007_000017.html" target="_top" xlink:title="4">
<text text-anchor="middle" x="165.976" y="-120.91" font-family="Helvetica,sans-Serif" font-size="10.00">4</text>
</a>
</g>
</g>
<!-- dir_67f3edd06a0bfca203abb5656a034a8e&#45;&gt;dir_2a3bc160f6192db30de205e670b0a725 -->
<g id="edge26" class="edge"><title>dir_67f3edd06a0bfca203abb5656a034a8e&#45;&gt;dir_2a3bc160f6192db30de205e670b0a725</title>
<path fill="none" stroke="black" d="M211.895,-60.1043C212.701,-67.7913 212.937,-77.0537 212.604,-85.6651"/>
<polygon fill="black" stroke="black" points="209.109,-85.4805 211.916,-95.6966 216.092,-85.9597 209.109,-85.4805"/>
<g id="a_edge26&#45;headlabel"><a xlink:href="dir_000013_000017.html" target="_top" xlink:title="3">
<text text-anchor="middle" x="206.522" y="-79.2" font-family="Helvetica,sans-Serif" font-size="10.00">3</text>
</a>
</g>
</g>
<!-- dir_5e386022696992159e19daedb2c782a4&#45;&gt;dir_2a3bc160f6192db30de205e670b0a725 -->
<g id="edge25" class="edge"><title>dir_5e386022696992159e19daedb2c782a4&#45;&gt;dir_2a3bc160f6192db30de205e670b0a725</title>
<path fill="none" stroke="black" d="M315.931,-311.618C306.559,-281.049 284.643,-216.323 254,-168 247.688,-158.047 239.457,-148.187 231.597,-139.72"/>
<polygon fill="black" stroke="black" points="233.998,-137.167 224.549,-132.373 228.946,-142.012 233.998,-137.167"/>
<g id="a_edge25&#45;headlabel"><a xlink:href="dir_000011_000017.html" target="_top" xlink:title="1">
<text text-anchor="middle" x="238.535" y="-135.295" font-family="Helvetica,sans-Serif" font-size="10.00">1</text>
</a>
</g>
</g>
<!-- dir_d226c443dcbd954a535e36ad625e373d&#45;&gt;dir_2a3bc160f6192db30de205e670b0a725 -->
<g id="edge20" class="edge"><title>dir_d226c443dcbd954a535e36ad625e373d&#45;&gt;dir_2a3bc160f6192db30de205e670b0a725</title>
<path fill="none" stroke="black" d="M374.63,-455.549C375.182,-425.414 373.966,-362.043 357,-312 332.917,-240.967 317.889,-224.882 269,-168 259.794,-157.289 248.309,-146.95 237.675,-138.293"/>
<polygon fill="black" stroke="black" points="239.773,-135.489 229.762,-132.021 235.425,-140.975 239.773,-135.489"/>
<g id="a_edge20&#45;headlabel"><a xlink:href="dir_000006_000017.html" target="_top" xlink:title="1">
<text text-anchor="middle" x="244.354" y="-132.996" font-family="Helvetica,sans-Serif" font-size="10.00">1</text>
</a>
</g>
</g>
<!-- dir_2a3bc160f6192db30de205e670b0a725&#45;&gt;dir_67f3edd06a0bfca203abb5656a034a8e -->
<g id="edge11" class="edge"><title>dir_2a3bc160f6192db30de205e670b0a725&#45;&gt;dir_67f3edd06a0bfca203abb5656a034a8e</title>
<path fill="none" stroke="black" d="M200.084,-95.6966C199.289,-87.9827 199.062,-78.7125 199.405,-70.1124"/>
<polygon fill="black" stroke="black" points="202.898,-70.3243 200.105,-60.1043 195.915,-69.8356 202.898,-70.3243"/>
<g id="a_edge11&#45;headlabel"><a xlink:href="dir_000017_000013.html" target="_top" xlink:title="2">
<text text-anchor="middle" x="205.48" y="-71.6083" font-family="Helvetica,sans-Serif" font-size="10.00">2</text>
</a>
</g>
</g>
<!-- dir_d42f43e4b916db5c03e0753186f67fe2 -->
<g id="node11" class="node"><title>dir_d42f43e4b916db5c03e0753186f67fe2</title>
<g id="a_node11"><a xlink:href="dir_d42f43e4b916db5c03e0753186f67fe2.html" target="_top" xlink:title="narrowphase">
<polygon fill="white" stroke="black" points="322,-420 250,-420 250,-384 322,-384 322,-420"/>
<text text-anchor="middle" x="286" y="-399.5" font-family="Helvetica,sans-Serif" font-size="10.00">narrowphase</text>
</a>
</g>
</g>
<!-- dir_d42f43e4b916db5c03e0753186f67fe2&#45;&gt;dir_2a3bc160f6192db30de205e670b0a725 -->
<g id="edge18" class="edge"><title>dir_d42f43e4b916db5c03e0753186f67fe2&#45;&gt;dir_2a3bc160f6192db30de205e670b0a725</title>
<path fill="none" stroke="black" d="M282.681,-383.781C274.96,-344.807 254.422,-247.074 228,-168 225.095,-159.307 221.437,-150.017 217.942,-141.682"/>
<polygon fill="black" stroke="black" points="221.131,-140.237 213.969,-132.429 214.698,-142.999 221.131,-140.237"/>
<g id="a_edge18&#45;headlabel"><a xlink:href="dir_000010_000017.html" target="_top" xlink:title="2">
<text text-anchor="middle" x="225.158" y="-139.92" font-family="Helvetica,sans-Serif" font-size="10.00">2</text>
</a>
</g>
</g>
<!-- dir_d42f43e4b916db5c03e0753186f67fe2&#45;&gt;dir_f9a2c31520f97314aafbcec6d5f7e1ab -->
<g id="edge19" class="edge"><title>dir_d42f43e4b916db5c03e0753186f67fe2&#45;&gt;dir_f9a2c31520f97314aafbcec6d5f7e1ab</title>
<path fill="none" stroke="black" d="M271.91,-383.697C265.077,-375.305 256.743,-365.07 249.244,-355.861"/>
<polygon fill="black" stroke="black" points="251.956,-353.649 242.928,-348.104 246.528,-358.069 251.956,-353.649"/>
<g id="a_edge19&#45;headlabel"><a xlink:href="dir_000010_000009.html" target="_top" xlink:title="2">
<text text-anchor="middle" x="256.428" y="-352.143" font-family="Helvetica,sans-Serif" font-size="10.00">2</text>
</a>
</g>
</g>
<!-- dir_f9a2c31520f97314aafbcec6d5f7e1ab&#45;&gt;dir_e45952f7c7fe250496424f0605a41daa -->
<g id="edge24" class="edge"><title>dir_f9a2c31520f97314aafbcec6d5f7e1ab&#45;&gt;dir_e45952f7c7fe250496424f0605a41daa</title>
<path fill="none" stroke="black" d="M229.481,-311.708C229.442,-293.352 227.792,-263.77 219,-240 215.449,-230.399 209.798,-220.851 204.017,-212.559"/>
<polygon fill="black" stroke="black" points="206.774,-210.402 198.027,-204.424 201.137,-214.552 206.774,-210.402"/>
<g id="a_edge24&#45;headlabel"><a xlink:href="dir_000009_000003.html" target="_top" xlink:title="1">
<text text-anchor="middle" x="211.192" y="-209.113" font-family="Helvetica,sans-Serif" font-size="10.00">1</text>
</a>
</g>
</g>
<!-- dir_f9a2c31520f97314aafbcec6d5f7e1ab&#45;&gt;dir_d23a593dd98e2eeb49dc67ae1d8955d7 -->
<g id="edge22" class="edge"><title>dir_f9a2c31520f97314aafbcec6d5f7e1ab&#45;&gt;dir_d23a593dd98e2eeb49dc67ae1d8955d7</title>
<path fill="none" stroke="black" d="M217.629,-311.697C212.282,-303.559 205.796,-293.689 199.889,-284.701"/>
<polygon fill="black" stroke="black" points="202.657,-282.539 194.24,-276.104 196.807,-286.384 202.657,-282.539"/>
<g id="a_edge22&#45;headlabel"><a xlink:href="dir_000009_000005.html" target="_top" xlink:title="1">
<text text-anchor="middle" x="207.004" y="-281.484" font-family="Helvetica,sans-Serif" font-size="10.00">1</text>
</a>
</g>
</g>
<!-- dir_f9a2c31520f97314aafbcec6d5f7e1ab&#45;&gt;dir_2a3bc160f6192db30de205e670b0a725 -->
<g id="edge23" class="edge"><title>dir_f9a2c31520f97314aafbcec6d5f7e1ab&#45;&gt;dir_2a3bc160f6192db30de205e670b0a725</title>
<path fill="none" stroke="black" d="M229.698,-311.914C230.267,-293.979 230.726,-264.972 229,-240 226.772,-207.77 225.078,-199.73 219,-168 217.371,-159.495 215.248,-150.306 213.191,-142.007"/>
<polygon fill="black" stroke="black" points="216.524,-140.914 210.664,-132.088 209.741,-142.643 216.524,-140.914"/>
<g id="a_edge23&#45;headlabel"><a xlink:href="dir_000009_000017.html" target="_top" xlink:title="1">
<text text-anchor="middle" x="220.163" y="-141.196" font-family="Helvetica,sans-Serif" font-size="10.00">1</text>
</a>
</g>
</g>
<!-- dir_5b25c1268a9c32407274d44ac456903e -->
<g id="node13" class="node"><title>dir_5b25c1268a9c32407274d44ac456903e</title>
<g id="a_node13"><a xlink:href="dir_5b25c1268a9c32407274d44ac456903e.html" target="_top" xlink:title="simd">
<polygon fill="white" stroke="black" points="118,-204 64,-204 64,-168 118,-168 118,-204"/>
<text text-anchor="middle" x="91" y="-183.5" font-family="Helvetica,sans-Serif" font-size="10.00">simd</text>
</a>
</g>
</g>
<!-- dir_5b25c1268a9c32407274d44ac456903e&#45;&gt;dir_2a3bc160f6192db30de205e670b0a725 -->
<g id="edge12" class="edge"><title>dir_5b25c1268a9c32407274d44ac456903e&#45;&gt;dir_2a3bc160f6192db30de205e670b0a725</title>
<path fill="none" stroke="black" d="M118.253,-168.411C133.721,-158.996 153.271,-147.096 169.989,-136.92"/>
<polygon fill="black" stroke="black" points="172.22,-139.659 178.942,-131.47 168.58,-133.68 172.22,-139.659"/>
<g id="a_edge12&#45;headlabel"><a xlink:href="dir_000018_000017.html" target="_top" xlink:title="1">
<text text-anchor="middle" x="170.626" y="-141.453" font-family="Helvetica,sans-Serif" font-size="10.00">1</text>
</a>
</g>
</g>
<!-- dir_35faeb12b5846e0072da59833a7dc403&#45;&gt;dir_e45952f7c7fe250496424f0605a41daa -->
<g id="edge6" class="edge"><title>dir_35faeb12b5846e0072da59833a7dc403&#45;&gt;dir_e45952f7c7fe250496424f0605a41daa</title>
<path fill="none" stroke="black" d="M104.037,-455.969C102.469,-416.148 102.462,-314.674 137,-240 141.729,-229.776 149.041,-220.025 156.455,-211.737"/>
<polygon fill="black" stroke="black" points="159.186,-213.944 163.513,-204.273 154.099,-209.134 159.186,-213.944"/>
<g id="a_edge6&#45;headlabel"><a xlink:href="dir_000020_000003.html" target="_top" xlink:title="3">
<text text-anchor="middle" x="158.779" y="-216.006" font-family="Helvetica,sans-Serif" font-size="10.00">3</text>
</a>
</g>
</g>
<!-- dir_35faeb12b5846e0072da59833a7dc403&#45;&gt;dir_d23a593dd98e2eeb49dc67ae1d8955d7 -->
<g id="edge2" class="edge"><title>dir_35faeb12b5846e0072da59833a7dc403&#45;&gt;dir_d23a593dd98e2eeb49dc67ae1d8955d7</title>
<path fill="none" stroke="black" d="M104.987,-455.868C105.415,-437.646 107.388,-408.174 115,-384 126.565,-347.273 149.253,-308.933 165.234,-284.558"/>
<polygon fill="black" stroke="black" points="168.146,-286.499 170.785,-276.238 162.323,-282.614 168.146,-286.499"/>
<g id="a_edge2&#45;headlabel"><a xlink:href="dir_000020_000005.html" target="_top" xlink:title="5">
<text text-anchor="middle" x="168.513" y="-288.565" font-family="Helvetica,sans-Serif" font-size="10.00">5</text>
</a>
</g>
</g>
<!-- dir_35faeb12b5846e0072da59833a7dc403&#45;&gt;dir_f10fb266f0f7545c66f7b6baffdaaee3 -->
<g id="edge3" class="edge"><title>dir_35faeb12b5846e0072da59833a7dc403&#45;&gt;dir_f10fb266f0f7545c66f7b6baffdaaee3</title>
<path fill="none" stroke="black" d="M95.4746,-455.803C90.2161,-445.654 83.9661,-432.404 80,-420 65.3896,-374.308 57.4344,-318.823 53.7126,-286.359"/>
<polygon fill="black" stroke="black" points="57.1767,-285.839 52.6092,-276.279 50.2183,-286.601 57.1767,-285.839"/>
<g id="a_edge3&#45;headlabel"><a xlink:href="dir_000020_000007.html" target="_top" xlink:title="2">
<text text-anchor="middle" x="60.3902" y="-286.603" font-family="Helvetica,sans-Serif" font-size="10.00">2</text>
</a>
</g>
</g>
<!-- dir_35faeb12b5846e0072da59833a7dc403&#45;&gt;dir_2a3bc160f6192db30de205e670b0a725 -->
<g id="edge4" class="edge"><title>dir_35faeb12b5846e0072da59833a7dc403&#45;&gt;dir_2a3bc160f6192db30de205e670b0a725</title>
<path fill="none" stroke="black" d="M102.462,-455.66C96.147,-406.003 84.445,-260.878 147,-168 154.271,-157.204 164.217,-147.155 173.871,-138.772"/>
<polygon fill="black" stroke="black" points="176.394,-141.227 181.847,-132.143 171.919,-135.843 176.394,-141.227"/>
<g id="a_edge4&#45;headlabel"><a xlink:href="dir_000020_000017.html" target="_top" xlink:title="1">
<text text-anchor="middle" x="175.444" y="-143.208" font-family="Helvetica,sans-Serif" font-size="10.00">1</text>
</a>
</g>
</g>
<!-- dir_35faeb12b5846e0072da59833a7dc403&#45;&gt;dir_d42f43e4b916db5c03e0753186f67fe2 -->
<g id="edge5" class="edge"><title>dir_35faeb12b5846e0072da59833a7dc403&#45;&gt;dir_d42f43e4b916db5c03e0753186f67fe2</title>
<path fill="none" stroke="black" d="M132.098,-462.52C160.641,-451.481 206.094,-433.903 240.218,-420.706"/>
<polygon fill="black" stroke="black" points="241.9,-423.808 249.965,-416.936 239.375,-417.279 241.9,-423.808"/>
<g id="a_edge5&#45;headlabel"><a xlink:href="dir_000020_000010.html" target="_top" xlink:title="2">
<text text-anchor="middle" x="239.572" y="-425.253" font-family="Helvetica,sans-Serif" font-size="10.00">2</text>
</a>
</g>
</g>
<!-- dir_35faeb12b5846e0072da59833a7dc403&#45;&gt;dir_f9a2c31520f97314aafbcec6d5f7e1ab -->
<g id="edge7" class="edge"><title>dir_35faeb12b5846e0072da59833a7dc403&#45;&gt;dir_f9a2c31520f97314aafbcec6d5f7e1ab</title>
<path fill="none" stroke="black" d="M132.408,-464.017C153.655,-455.732 182.361,-441.439 200,-420 214.548,-402.317 221.867,-377.137 225.508,-358.07"/>
<polygon fill="black" stroke="black" points="228.962,-358.635 227.174,-348.192 222.059,-357.471 228.962,-358.635"/>
<g id="a_edge7&#45;headlabel"><a xlink:href="dir_000020_000009.html" target="_top" xlink:title="4">
<text text-anchor="middle" x="231.163" y="-360.152" font-family="Helvetica,sans-Serif" font-size="10.00">4</text>
</a>
</g>
</g>
</g>
</svg>
