<?xml version="1.0" encoding="UTF-8" standalone="no"?>
<!DOCTYPE svg PUBLIC "-//W3C//DTD SVG 1.1//EN"
 "http://www.w3.org/Graphics/SVG/1.1/DTD/svg11.dtd">
<!-- Generated by graphviz version 2.36.0 (20140111.2315)
 -->
<!-- Title: narrowphase Pages: 1 -->
<svg width="115pt" height="223pt"
 viewBox="0.00 0.00 115.00 223.00" xmlns="http://www.w3.org/2000/svg" xmlns:xlink="http://www.w3.org/1999/xlink">
<g id="graph0" class="graph" transform="scale(1 1) rotate(0) translate(4 219)">
<title>narrowphase</title>
<polygon fill="white" stroke="none" points="-4,4 -4,-219 111,-219 111,4 -4,4"/>
<g id="clust1" class="cluster"><title>clusterdir_20fa1abcad33804f5539e29af8f8ee4c</title>
<g id="a_clust1"><a xlink:href="dir_20fa1abcad33804f5539e29af8f8ee4c.html" target="_top" xlink:title="fcl">
<polygon fill="#ddddee" stroke="black" points="8,-136 8,-207 96,-207 96,-136 8,-136"/>
<text text-anchor="middle" x="52" y="-195" font-family="Helvetica,sans-Serif" font-size="10.00">fcl</text>
</a>
</g>
</g>
<!-- dir_d42f43e4b916db5c03e0753186f67fe2 -->
<g id="node1" class="node"><title>dir_d42f43e4b916db5c03e0753186f67fe2</title>
<g id="a_node1"><a xlink:href="dir_d42f43e4b916db5c03e0753186f67fe2.html" target="_top" xlink:title="narrowphase">
<polygon fill="#eeeeff" stroke="black" points="88,-180 16,-180 16,-144 88,-144 88,-180"/>
<text text-anchor="middle" x="52" y="-159.5" font-family="Helvetica,sans-Serif" font-size="10.00">narrowphase</text>
</a>
</g>
</g>
<!-- dir_2a3bc160f6192db30de205e670b0a725 -->
<g id="node2" class="node"><title>dir_2a3bc160f6192db30de205e670b0a725</title>
<g id="a_node2"><a xlink:href="dir_2a3bc160f6192db30de205e670b0a725.html" target="_top" xlink:title="math">
<polygon fill="none" stroke="black" points="79,-36 25,-36 25,-0 79,-0 79,-36"/>
<text text-anchor="middle" x="52" y="-15.5" font-family="Helvetica,sans-Serif" font-size="10.00">math</text>
</a>
</g>
</g>
<!-- dir_d42f43e4b916db5c03e0753186f67fe2&#45;&gt;dir_2a3bc160f6192db30de205e670b0a725 -->
<g id="edge1" class="edge"><title>dir_d42f43e4b916db5c03e0753186f67fe2&#45;&gt;dir_2a3bc160f6192db30de205e670b0a725</title>
<path fill="none" stroke="black" d="M48.7517,-143.888C46.9542,-133.542 44.9053,-120.063 44,-108 42.8026,-92.0449 42.8026,-87.9551 44,-72 44.6366,-63.5179 45.8384,-54.3361 47.1208,-46.0356"/>
<polygon fill="black" stroke="black" points="50.5836,-46.5472 48.7517,-36.1119 43.6763,-45.412 50.5836,-46.5472"/>
<g id="a_edge1&#45;headlabel"><a xlink:href="dir_000010_000017.html" target="_top" xlink:title="2">
<text text-anchor="middle" x="52.8024" y="-48.0546" font-family="Helvetica,sans-Serif" font-size="10.00">2</text>
</a>
</g>
</g>
<!-- dir_f9a2c31520f97314aafbcec6d5f7e1ab -->
<g id="node3" class="node"><title>dir_f9a2c31520f97314aafbcec6d5f7e1ab</title>
<g id="a_node3"><a xlink:href="dir_f9a2c31520f97314aafbcec6d5f7e1ab.html" target="_top" xlink:title="shape">
<polygon fill="none" stroke="black" points="107,-108 53,-108 53,-72 107,-72 107,-108"/>
<text text-anchor="middle" x="80" y="-87.5" font-family="Helvetica,sans-Serif" font-size="10.00">shape</text>
</a>
</g>
</g>
<!-- dir_d42f43e4b916db5c03e0753186f67fe2&#45;&gt;dir_f9a2c31520f97314aafbcec6d5f7e1ab -->
<g id="edge2" class="edge"><title>dir_d42f43e4b916db5c03e0753186f67fe2&#45;&gt;dir_f9a2c31520f97314aafbcec6d5f7e1ab</title>
<path fill="none" stroke="black" d="M58.9214,-143.697C62.0747,-135.813 65.8783,-126.304 69.3814,-117.546"/>
<polygon fill="black" stroke="black" points="72.694,-118.689 73.1583,-108.104 66.1946,-116.089 72.694,-118.689"/>
<g id="a_edge2&#45;headlabel"><a xlink:href="dir_000010_000009.html" target="_top" xlink:title="2">
<text text-anchor="middle" x="73.9952" y="-120.581" font-family="Helvetica,sans-Serif" font-size="10.00">2</text>
</a>
</g>
</g>
<!-- dir_f9a2c31520f97314aafbcec6d5f7e1ab&#45;&gt;dir_2a3bc160f6192db30de205e670b0a725 -->
<g id="edge3" class="edge"><title>dir_f9a2c31520f97314aafbcec6d5f7e1ab&#45;&gt;dir_2a3bc160f6192db30de205e670b0a725</title>
<path fill="none" stroke="black" d="M73.0786,-71.6966C69.9253,-63.8132 66.1217,-54.3042 62.6186,-45.5464"/>
<polygon fill="black" stroke="black" points="65.8054,-44.0892 58.8417,-36.1043 59.306,-46.689 65.8054,-44.0892"/>
<g id="a_edge3&#45;headlabel"><a xlink:href="dir_000009_000017.html" target="_top" xlink:title="1">
<text text-anchor="middle" x="69.7765" y="-43.8723" font-family="Helvetica,sans-Serif" font-size="10.00">1</text>
</a>
</g>
</g>
</g>
</svg>
