<?xml version="1.0" encoding="UTF-8" standalone="no"?>
<!DOCTYPE svg PUBLIC "-//W3C//DTD SVG 1.1//EN"
 "http://www.w3.org/Graphics/SVG/1.1/DTD/svg11.dtd">
<!-- Generated by graphviz version 2.36.0 (20140111.2315)
 -->
<!-- Title: traversal Pages: 1 -->
<svg width="294pt" height="439pt"
 viewBox="0.00 0.00 294.00 439.00" xmlns="http://www.w3.org/2000/svg" xmlns:xlink="http://www.w3.org/1999/xlink">
<g id="graph0" class="graph" transform="scale(1 1) rotate(0) translate(4 435)">
<title>traversal</title>
<polygon fill="white" stroke="none" points="-4,4 -4,-435 290,-435 290,4 -4,4"/>
<g id="clust1" class="cluster"><title>clusterdir_20fa1abcad33804f5539e29af8f8ee4c</title>
<g id="a_clust1"><a xlink:href="dir_20fa1abcad33804f5539e29af8f8ee4c.html" target="_top" xlink:title="fcl">
<polygon fill="#ddddee" stroke="black" points="94,-352 94,-423 164,-423 164,-352 94,-352"/>
<text text-anchor="middle" x="129" y="-411" font-family="Helvetica,sans-Serif" font-size="10.00">fcl</text>
</a>
</g>
</g>
<!-- dir_35faeb12b5846e0072da59833a7dc403 -->
<g id="node1" class="node"><title>dir_35faeb12b5846e0072da59833a7dc403</title>
<g id="a_node1"><a xlink:href="dir_35faeb12b5846e0072da59833a7dc403.html" target="_top" xlink:title="traversal">
<polygon fill="#eeeeff" stroke="black" points="156,-396 102,-396 102,-360 156,-360 156,-396"/>
<text text-anchor="middle" x="129" y="-375.5" font-family="Helvetica,sans-Serif" font-size="10.00">traversal</text>
</a>
</g>
</g>
<!-- dir_d23a593dd98e2eeb49dc67ae1d8955d7 -->
<g id="node2" class="node"><title>dir_d23a593dd98e2eeb49dc67ae1d8955d7</title>
<g id="a_node2"><a xlink:href="dir_d23a593dd98e2eeb49dc67ae1d8955d7.html" target="_top" xlink:title="BVH">
<polygon fill="none" stroke="black" points="192,-180 138,-180 138,-144 192,-144 192,-180"/>
<text text-anchor="middle" x="165" y="-159.5" font-family="Helvetica,sans-Serif" font-size="10.00">BVH</text>
</a>
</g>
</g>
<!-- dir_35faeb12b5846e0072da59833a7dc403&#45;&gt;dir_d23a593dd98e2eeb49dc67ae1d8955d7 -->
<g id="edge2" class="edge"><title>dir_35faeb12b5846e0072da59833a7dc403&#45;&gt;dir_d23a593dd98e2eeb49dc67ae1d8955d7</title>
<path fill="none" stroke="black" d="M131.885,-359.849C138.126,-322.753 152.92,-234.81 160.441,-190.103"/>
<polygon fill="black" stroke="black" points="163.894,-190.675 162.101,-180.232 156.991,-189.513 163.894,-190.675"/>
<g id="a_edge2&#45;headlabel"><a xlink:href="dir_000020_000005.html" target="_top" xlink:title="5">
<text text-anchor="middle" x="166.097" y="-192.19" font-family="Helvetica,sans-Serif" font-size="10.00">5</text>
</a>
</g>
</g>
<!-- dir_f10fb266f0f7545c66f7b6baffdaaee3 -->
<g id="node3" class="node"><title>dir_f10fb266f0f7545c66f7b6baffdaaee3</title>
<g id="a_node3"><a xlink:href="dir_f10fb266f0f7545c66f7b6baffdaaee3.html" target="_top" xlink:title="ccd">
<polygon fill="white" stroke="red" points="82,-180 28,-180 28,-144 82,-144 82,-180"/>
<text text-anchor="middle" x="55" y="-159.5" font-family="Helvetica,sans-Serif" font-size="10.00">ccd</text>
</a>
</g>
</g>
<!-- dir_35faeb12b5846e0072da59833a7dc403&#45;&gt;dir_f10fb266f0f7545c66f7b6baffdaaee3 -->
<g id="edge3" class="edge"><title>dir_35faeb12b5846e0072da59833a7dc403&#45;&gt;dir_f10fb266f0f7545c66f7b6baffdaaee3</title>
<path fill="none" stroke="black" d="M116.258,-359.598C109.436,-349.598 101.358,-336.563 96,-324 76.7861,-278.949 65.0227,-222.828 59.2795,-190.143"/>
<polygon fill="black" stroke="black" points="62.6834,-189.281 57.5605,-180.007 55.7819,-190.452 62.6834,-189.281"/>
<g id="a_edge3&#45;headlabel"><a xlink:href="dir_000020_000007.html" target="_top" xlink:title="2">
<text text-anchor="middle" x="66.0836" y="-189.851" font-family="Helvetica,sans-Serif" font-size="10.00">2</text>
</a>
</g>
</g>
<!-- dir_2a3bc160f6192db30de205e670b0a725 -->
<g id="node4" class="node"><title>dir_2a3bc160f6192db30de205e670b0a725</title>
<g id="a_node4"><a xlink:href="dir_2a3bc160f6192db30de205e670b0a725.html" target="_top" xlink:title="math">
<polygon fill="none" stroke="black" points="178,-36 124,-36 124,-0 178,-0 178,-36"/>
<text text-anchor="middle" x="151" y="-15.5" font-family="Helvetica,sans-Serif" font-size="10.00">math</text>
</a>
</g>
</g>
<!-- dir_35faeb12b5846e0072da59833a7dc403&#45;&gt;dir_2a3bc160f6192db30de205e670b0a725 -->
<g id="edge4" class="edge"><title>dir_35faeb12b5846e0072da59833a7dc403&#45;&gt;dir_2a3bc160f6192db30de205e670b0a725</title>
<path fill="none" stroke="black" d="M101.957,-362.919C64.1304,-341.054 0,-295.118 0,-235 0,-235 0,-235 0,-161 0,-98.3427 69.8507,-55.2292 114.536,-34.059"/>
<polygon fill="black" stroke="black" points="116.025,-37.2265 123.655,-29.8754 113.106,-30.8641 116.025,-37.2265"/>
<g id="a_edge4&#45;headlabel"><a xlink:href="dir_000020_000017.html" target="_top" xlink:title="1">
<text text-anchor="middle" x="113.942" y="-38.806" font-family="Helvetica,sans-Serif" font-size="10.00">1</text>
</a>
</g>
</g>
<!-- dir_d42f43e4b916db5c03e0753186f67fe2 -->
<g id="node5" class="node"><title>dir_d42f43e4b916db5c03e0753186f67fe2</title>
<g id="a_node5"><a xlink:href="dir_d42f43e4b916db5c03e0753186f67fe2.html" target="_top" xlink:title="narrowphase">
<polygon fill="none" stroke="black" points="286,-324 214,-324 214,-288 286,-288 286,-324"/>
<text text-anchor="middle" x="250" y="-303.5" font-family="Helvetica,sans-Serif" font-size="10.00">narrowphase</text>
</a>
</g>
</g>
<!-- dir_35faeb12b5846e0072da59833a7dc403&#45;&gt;dir_d42f43e4b916db5c03e0753186f67fe2 -->
<g id="edge5" class="edge"><title>dir_35faeb12b5846e0072da59833a7dc403&#45;&gt;dir_d42f43e4b916db5c03e0753186f67fe2</title>
<path fill="none" stroke="black" d="M156.155,-361.291C172.412,-351.885 193.342,-339.777 211.309,-329.383"/>
<polygon fill="black" stroke="black" points="213.491,-332.165 220.394,-324.127 209.985,-326.105 213.491,-332.165"/>
<g id="a_edge5&#45;headlabel"><a xlink:href="dir_000020_000010.html" target="_top" xlink:title="2">
<text text-anchor="middle" x="211.801" y="-333.922" font-family="Helvetica,sans-Serif" font-size="10.00">2</text>
</a>
</g>
</g>
<!-- dir_e45952f7c7fe250496424f0605a41daa -->
<g id="node6" class="node"><title>dir_e45952f7c7fe250496424f0605a41daa</title>
<g id="a_node6"><a xlink:href="dir_e45952f7c7fe250496424f0605a41daa.html" target="_top" xlink:title="BV">
<polygon fill="none" stroke="black" points="178,-108 124,-108 124,-72 178,-72 178,-108"/>
<text text-anchor="middle" x="151" y="-87.5" font-family="Helvetica,sans-Serif" font-size="10.00">BV</text>
</a>
</g>
</g>
<!-- dir_35faeb12b5846e0072da59833a7dc403&#45;&gt;dir_e45952f7c7fe250496424f0605a41daa -->
<g id="edge6" class="edge"><title>dir_35faeb12b5846e0072da59833a7dc403&#45;&gt;dir_e45952f7c7fe250496424f0605a41daa</title>
<path fill="none" stroke="black" d="M126.73,-359.82C122.082,-320.924 113.187,-223.342 129,-144 130.791,-135.011 134.137,-125.638 137.687,-117.318"/>
<polygon fill="black" stroke="black" points="140.916,-118.672 141.869,-108.12 134.544,-115.775 140.916,-118.672"/>
<g id="a_edge6&#45;headlabel"><a xlink:href="dir_000020_000003.html" target="_top" xlink:title="3">
<text text-anchor="middle" x="142.013" y="-120.62" font-family="Helvetica,sans-Serif" font-size="10.00">3</text>
</a>
</g>
</g>
<!-- dir_f9a2c31520f97314aafbcec6d5f7e1ab -->
<g id="node7" class="node"><title>dir_f9a2c31520f97314aafbcec6d5f7e1ab</title>
<g id="a_node7"><a xlink:href="dir_f9a2c31520f97314aafbcec6d5f7e1ab.html" target="_top" xlink:title="shape">
<polygon fill="none" stroke="black" points="247,-252 193,-252 193,-216 247,-216 247,-252"/>
<text text-anchor="middle" x="220" y="-231.5" font-family="Helvetica,sans-Serif" font-size="10.00">shape</text>
</a>
</g>
</g>
<!-- dir_35faeb12b5846e0072da59833a7dc403&#45;&gt;dir_f9a2c31520f97314aafbcec6d5f7e1ab -->
<g id="edge7" class="edge"><title>dir_35faeb12b5846e0072da59833a7dc403&#45;&gt;dir_f9a2c31520f97314aafbcec6d5f7e1ab</title>
<path fill="none" stroke="black" d="M139.977,-359.871C155.759,-335.244 184.986,-289.638 203.412,-260.885"/>
<polygon fill="black" stroke="black" points="206.536,-262.497 208.984,-252.189 200.642,-258.72 206.536,-262.497"/>
<g id="a_edge7&#45;headlabel"><a xlink:href="dir_000020_000009.html" target="_top" xlink:title="4">
<text text-anchor="middle" x="206.987" y="-264.556" font-family="Helvetica,sans-Serif" font-size="10.00">4</text>
</a>
</g>
</g>
<!-- dir_d23a593dd98e2eeb49dc67ae1d8955d7&#45;&gt;dir_e45952f7c7fe250496424f0605a41daa -->
<g id="edge1" class="edge"><title>dir_d23a593dd98e2eeb49dc67ae1d8955d7&#45;&gt;dir_e45952f7c7fe250496424f0605a41daa</title>
<path fill="none" stroke="black" d="M161.539,-143.697C159.997,-135.983 158.142,-126.712 156.422,-118.112"/>
<polygon fill="black" stroke="black" points="159.814,-117.224 154.421,-108.104 152.95,-118.597 159.814,-117.224"/>
<g id="a_edge1&#45;headlabel"><a xlink:href="dir_000005_000003.html" target="_top" xlink:title="5">
<text text-anchor="middle" x="163.303" y="-117.692" font-family="Helvetica,sans-Serif" font-size="10.00">5</text>
</a>
</g>
</g>
<!-- dir_f10fb266f0f7545c66f7b6baffdaaee3&#45;&gt;dir_2a3bc160f6192db30de205e670b0a725 -->
<g id="edge8" class="edge"><title>dir_f10fb266f0f7545c66f7b6baffdaaee3&#45;&gt;dir_2a3bc160f6192db30de205e670b0a725</title>
<path fill="none" stroke="black" d="M66.4847,-143.926C78.5483,-126.001 98.0813,-97.0018 115,-72 121.078,-63.018 127.748,-53.1899 133.678,-44.4631"/>
<polygon fill="black" stroke="black" points="136.584,-46.4133 139.311,-36.1755 130.795,-42.4781 136.584,-46.4133"/>
<g id="a_edge8&#45;headlabel"><a xlink:href="dir_000007_000017.html" target="_top" xlink:title="4">
<text text-anchor="middle" x="136.912" y="-48.4823" font-family="Helvetica,sans-Serif" font-size="10.00">4</text>
</a>
</g>
</g>
<!-- dir_f10fb266f0f7545c66f7b6baffdaaee3&#45;&gt;dir_e45952f7c7fe250496424f0605a41daa -->
<g id="edge9" class="edge"><title>dir_f10fb266f0f7545c66f7b6baffdaaee3&#45;&gt;dir_e45952f7c7fe250496424f0605a41daa</title>
<path fill="none" stroke="black" d="M78.7303,-143.697C90.937,-134.796 105.985,-123.823 119.184,-114.199"/>
<polygon fill="black" stroke="black" points="121.525,-116.824 127.543,-108.104 117.4,-111.168 121.525,-116.824"/>
<g id="a_edge9&#45;headlabel"><a xlink:href="dir_000007_000003.html" target="_top" xlink:title="1">
<text text-anchor="middle" x="120.293" y="-118.736" font-family="Helvetica,sans-Serif" font-size="10.00">1</text>
</a>
</g>
</g>
<!-- dir_d42f43e4b916db5c03e0753186f67fe2&#45;&gt;dir_2a3bc160f6192db30de205e670b0a725 -->
<g id="edge10" class="edge"><title>dir_d42f43e4b916db5c03e0753186f67fe2&#45;&gt;dir_2a3bc160f6192db30de205e670b0a725</title>
<path fill="none" stroke="black" d="M252.437,-287.856C253.785,-277.499 255.322,-264.019 256,-252 260.628,-169.982 260.152,-139.959 214,-72 206.46,-60.8972 195.975,-50.8088 185.721,-42.4845"/>
<polygon fill="black" stroke="black" points="187.656,-39.5565 177.607,-36.201 183.37,-45.091 187.656,-39.5565"/>
<g id="a_edge10&#45;headlabel"><a xlink:href="dir_000010_000017.html" target="_top" xlink:title="2">
<text text-anchor="middle" x="192.237" y="-37.0125" font-family="Helvetica,sans-Serif" font-size="10.00">2</text>
</a>
</g>
</g>
<!-- dir_d42f43e4b916db5c03e0753186f67fe2&#45;&gt;dir_f9a2c31520f97314aafbcec6d5f7e1ab -->
<g id="edge11" class="edge"><title>dir_d42f43e4b916db5c03e0753186f67fe2&#45;&gt;dir_f9a2c31520f97314aafbcec6d5f7e1ab</title>
<path fill="none" stroke="black" d="M242.584,-287.697C239.206,-279.813 235.13,-270.304 231.377,-261.546"/>
<polygon fill="black" stroke="black" points="234.487,-259.917 227.33,-252.104 228.053,-262.675 234.487,-259.917"/>
<g id="a_edge11&#45;headlabel"><a xlink:href="dir_000010_000009.html" target="_top" xlink:title="2">
<text text-anchor="middle" x="238.512" y="-259.603" font-family="Helvetica,sans-Serif" font-size="10.00">2</text>
</a>
</g>
</g>
<!-- dir_e45952f7c7fe250496424f0605a41daa&#45;&gt;dir_2a3bc160f6192db30de205e670b0a725 -->
<g id="edge12" class="edge"><title>dir_e45952f7c7fe250496424f0605a41daa&#45;&gt;dir_2a3bc160f6192db30de205e670b0a725</title>
<path fill="none" stroke="black" d="M151,-71.6966C151,-63.9827 151,-54.7125 151,-46.1124"/>
<polygon fill="black" stroke="black" points="154.5,-46.1043 151,-36.1043 147.5,-46.1044 154.5,-46.1043"/>
<g id="a_edge12&#45;headlabel"><a xlink:href="dir_000003_000017.html" target="_top" xlink:title="9">
<text text-anchor="middle" x="157.339" y="-47.199" font-family="Helvetica,sans-Serif" font-size="10.00">9</text>
</a>
</g>
</g>
<!-- dir_f9a2c31520f97314aafbcec6d5f7e1ab&#45;&gt;dir_d23a593dd98e2eeb49dc67ae1d8955d7 -->
<g id="edge13" class="edge"><title>dir_f9a2c31520f97314aafbcec6d5f7e1ab&#45;&gt;dir_d23a593dd98e2eeb49dc67ae1d8955d7</title>
<path fill="none" stroke="black" d="M206.404,-215.697C199.877,-207.389 191.932,-197.277 184.753,-188.141"/>
<polygon fill="black" stroke="black" points="187.369,-185.805 178.439,-180.104 181.865,-190.13 187.369,-185.805"/>
<g id="a_edge13&#45;headlabel"><a xlink:href="dir_000009_000005.html" target="_top" xlink:title="1">
<text text-anchor="middle" x="191.823" y="-184.377" font-family="Helvetica,sans-Serif" font-size="10.00">1</text>
</a>
</g>
</g>
<!-- dir_f9a2c31520f97314aafbcec6d5f7e1ab&#45;&gt;dir_2a3bc160f6192db30de205e670b0a725 -->
<g id="edge14" class="edge"><title>dir_f9a2c31520f97314aafbcec6d5f7e1ab&#45;&gt;dir_2a3bc160f6192db30de205e670b0a725</title>
<path fill="none" stroke="black" d="M222.883,-215.683C225.324,-197.559 227.616,-168.4 222,-144 213.324,-106.309 189.135,-68.4445 171.393,-44.4284"/>
<polygon fill="black" stroke="black" points="174.015,-42.0936 165.189,-36.2329 168.434,-46.3186 174.015,-42.0936"/>
<g id="a_edge14&#45;headlabel"><a xlink:href="dir_000009_000017.html" target="_top" xlink:title="1">
<text text-anchor="middle" x="178.448" y="-40.7459" font-family="Helvetica,sans-Serif" font-size="10.00">1</text>
</a>
</g>
</g>
<!-- dir_f9a2c31520f97314aafbcec6d5f7e1ab&#45;&gt;dir_e45952f7c7fe250496424f0605a41daa -->
<g id="edge15" class="edge"><title>dir_f9a2c31520f97314aafbcec6d5f7e1ab&#45;&gt;dir_e45952f7c7fe250496424f0605a41daa</title>
<path fill="none" stroke="black" d="M219.067,-215.668C217.452,-197.016 213.041,-166.944 201,-144 195.509,-133.538 187.369,-123.654 179.243,-115.32"/>
<polygon fill="black" stroke="black" points="181.467,-112.6 171.862,-108.13 176.583,-117.615 181.467,-112.6"/>
<g id="a_edge15&#45;headlabel"><a xlink:href="dir_000009_000003.html" target="_top" xlink:title="1">
<text text-anchor="middle" x="186.023" y="-110.575" font-family="Helvetica,sans-Serif" font-size="10.00">1</text>
</a>
</g>
</g>
</g>
</svg>
