<?xml version="1.0" encoding="UTF-8" standalone="no"?>
<!DOCTYPE svg PUBLIC "-//W3C//DTD SVG 1.1//EN"
 "http://www.w3.org/Graphics/SVG/1.1/DTD/svg11.dtd">
<!-- Generated by graphviz version 2.36.0 (20140111.2315)
 -->
<!-- Title: Graphical Class Hierarchy Pages: 1 -->
<svg width="240pt" height="142pt"
 viewBox="0.00 0.00 240.00 142.00" xmlns="http://www.w3.org/2000/svg" xmlns:xlink="http://www.w3.org/1999/xlink">
<g id="graph0" class="graph" transform="scale(1 1) rotate(0) translate(4 138)">
<title>Graphical Class Hierarchy</title>
<polygon fill="white" stroke="none" points="-4,4 -4,-138 236,-138 236,4 -4,4"/>
<!-- Node1 -->
<g id="node1" class="node"><title>Node1</title>
<g id="a_node1"><a xlink:href="a00144.html" target="_top" xlink:title="fcl::MotionBase">
<polygon fill="white" stroke="black" points="0.5,-57.5 0.5,-76.5 85.5,-76.5 85.5,-57.5 0.5,-57.5"/>
<text text-anchor="middle" x="43" y="-64.5" font-family="Helvetica,sans-Serif" font-size="10.00">fcl::MotionBase</text>
</a>
</g>
</g>
<!-- Node2 -->
<g id="node2" class="node"><title>Node2</title>
<g id="a_node2"><a xlink:href="a00089.html" target="_top" xlink:title="Linear interpolation motion Each Motion is assumed to have constant linear velocity and angular veloc...">
<polygon fill="white" stroke="black" points="133.5,-114.5 133.5,-133.5 220.5,-133.5 220.5,-114.5 133.5,-114.5"/>
<text text-anchor="middle" x="177" y="-121.5" font-family="Helvetica,sans-Serif" font-size="10.00">fcl::InterpMotion</text>
</a>
</g>
</g>
<!-- Node1&#45;&gt;Node2 -->
<g id="edge1" class="edge"><title>Node1&#45;&gt;Node2</title>
<path fill="none" stroke="midnightblue" d="M71.1292,-81.1702C85.9674,-88.6771 104.784,-97.8058 122,-105 129.978,-108.334 138.77,-111.596 146.901,-114.45"/>
<polygon fill="midnightblue" stroke="midnightblue" points="72.5069,-77.9437 62.0098,-76.5079 69.3204,-84.1764 72.5069,-77.9437"/>
</g>
<!-- Node3 -->
<g id="node3" class="node"><title>Node3</title>
<g id="a_node3"><a xlink:href="a00197.html" target="_top" xlink:title="fcl::ScrewMotion">
<polygon fill="white" stroke="black" points="132,-76.5 132,-95.5 222,-95.5 222,-76.5 132,-76.5"/>
<text text-anchor="middle" x="177" y="-83.5" font-family="Helvetica,sans-Serif" font-size="10.00">fcl::ScrewMotion</text>
</a>
</g>
</g>
<!-- Node1&#45;&gt;Node3 -->
<g id="edge2" class="edge"><title>Node1&#45;&gt;Node3</title>
<path fill="none" stroke="midnightblue" d="M95.9693,-74.4804C107.812,-76.185 120.286,-77.9806 131.771,-79.6336"/>
<polygon fill="midnightblue" stroke="midnightblue" points="96.1623,-70.9722 85.7656,-73.0117 95.1649,-77.9008 96.1623,-70.9722"/>
</g>
<!-- Node4 -->
<g id="node4" class="node"><title>Node4</title>
<g id="a_node4"><a xlink:href="a00226.html" target="_top" xlink:title="fcl::SplineMotion">
<polygon fill="white" stroke="black" points="132.5,-38.5 132.5,-57.5 221.5,-57.5 221.5,-38.5 132.5,-38.5"/>
<text text-anchor="middle" x="177" y="-45.5" font-family="Helvetica,sans-Serif" font-size="10.00">fcl::SplineMotion</text>
</a>
</g>
</g>
<!-- Node1&#45;&gt;Node4 -->
<g id="edge3" class="edge"><title>Node1&#45;&gt;Node4</title>
<path fill="none" stroke="midnightblue" d="M95.7141,-59.5563C107.79,-57.8181 120.537,-55.9833 132.229,-54.3003"/>
<polygon fill="midnightblue" stroke="midnightblue" points="95.1649,-56.0992 85.7656,-60.9883 96.1623,-63.0278 95.1649,-56.0992"/>
</g>
<!-- Node5 -->
<g id="node5" class="node"><title>Node5</title>
<g id="a_node5"><a xlink:href="a00243.html" target="_top" xlink:title="fcl::TranslationMotion">
<polygon fill="white" stroke="black" points="122,-0.5 122,-19.5 232,-19.5 232,-0.5 122,-0.5"/>
<text text-anchor="middle" x="177" y="-7.5" font-family="Helvetica,sans-Serif" font-size="10.00">fcl::TranslationMotion</text>
</a>
</g>
</g>
<!-- Node1&#45;&gt;Node5 -->
<g id="edge4" class="edge"><title>Node1&#45;&gt;Node5</title>
<path fill="none" stroke="midnightblue" d="M71.1292,-52.8298C85.9674,-45.3229 104.784,-36.1942 122,-29 129.978,-25.6662 138.77,-22.4039 146.901,-19.5496"/>
<polygon fill="midnightblue" stroke="midnightblue" points="69.3204,-49.8236 62.0098,-57.4921 72.5069,-56.0563 69.3204,-49.8236"/>
</g>
</g>
</svg>
