<?xml version="1.0" encoding="UTF-8" standalone="no"?>
<!DOCTYPE svg PUBLIC "-//W3C//DTD SVG 1.1//EN"
 "http://www.w3.org/Graphics/SVG/1.1/DTD/svg11.dtd">
<!-- Generated by graphviz version 2.36.0 (20140111.2315)
 -->
<!-- Title: Graphical Class Hierarchy Pages: 1 -->
<svg width="268pt" height="256pt"
 viewBox="0.00 0.00 268.00 256.00" xmlns="http://www.w3.org/2000/svg" xmlns:xlink="http://www.w3.org/1999/xlink">
<g id="graph0" class="graph" transform="scale(1 1) rotate(0) translate(4 252)">
<title>Graphical Class Hierarchy</title>
<polygon fill="white" stroke="none" points="-4,4 -4,-252 264,-252 264,4 -4,4"/>
<!-- Node1 -->
<g id="node1" class="node"><title>Node1</title>
<g id="a_node1"><a xlink:href="a00182.html" target="_top" xlink:title="fcl::SamplerBase">
<polygon fill="white" stroke="black" points="0,-114.5 0,-133.5 92,-133.5 92,-114.5 0,-114.5"/>
<text text-anchor="middle" x="46" y="-121.5" font-family="Helvetica,sans-Serif" font-size="10.00">fcl::SamplerBase</text>
</a>
</g>
</g>
<!-- Node2 -->
<g id="node2" class="node"><title>Node2</title>
<g id="a_node2"><a xlink:href="a00183.html" target="_top" xlink:title="fcl::SamplerR\&lt; N \&gt;">
<polygon fill="white" stroke="black" points="143,-228.5 143,-247.5 245,-247.5 245,-228.5 143,-228.5"/>
<text text-anchor="middle" x="194" y="-235.5" font-family="Helvetica,sans-Serif" font-size="10.00">fcl::SamplerR&lt; N &gt;</text>
</a>
</g>
</g>
<!-- Node1&#45;&gt;Node2 -->
<g id="edge1" class="edge"><title>Node1&#45;&gt;Node2</title>
<path fill="none" stroke="midnightblue" d="M57.8433,-142.232C71.5411,-163.709 97.0954,-198.991 128,-219 133.921,-222.834 140.638,-225.914 147.451,-228.384"/>
<polygon fill="midnightblue" stroke="midnightblue" points="60.8008,-140.36 52.5622,-133.699 54.8485,-144.044 60.8008,-140.36"/>
</g>
<!-- Node3 -->
<g id="node3" class="node"><title>Node3</title>
<g id="a_node3"><a xlink:href="a00184.html" target="_top" xlink:title="fcl::SamplerSE2">
<polygon fill="white" stroke="black" points="150,-190.5 150,-209.5 238,-209.5 238,-190.5 150,-190.5"/>
<text text-anchor="middle" x="194" y="-197.5" font-family="Helvetica,sans-Serif" font-size="10.00">fcl::SamplerSE2</text>
</a>
</g>
</g>
<!-- Node1&#45;&gt;Node3 -->
<g id="edge2" class="edge"><title>Node1&#45;&gt;Node3</title>
<path fill="none" stroke="midnightblue" d="M65.9523,-140.067C81.6903,-152.713 105.124,-169.984 128,-181 135.733,-184.724 144.341,-187.869 152.696,-190.462"/>
<polygon fill="midnightblue" stroke="midnightblue" points="68.0043,-137.224 58.0531,-133.587 63.5644,-142.635 68.0043,-137.224"/>
</g>
<!-- Node4 -->
<g id="node4" class="node"><title>Node4</title>
<g id="a_node4"><a xlink:href="a00185.html" target="_top" xlink:title="fcl::SamplerSE2_disk">
<polygon fill="white" stroke="black" points="138.5,-152.5 138.5,-171.5 249.5,-171.5 249.5,-152.5 138.5,-152.5"/>
<text text-anchor="middle" x="194" y="-159.5" font-family="Helvetica,sans-Serif" font-size="10.00">fcl::SamplerSE2_disk</text>
</a>
</g>
</g>
<!-- Node1&#45;&gt;Node4 -->
<g id="edge3" class="edge"><title>Node1&#45;&gt;Node4</title>
<path fill="none" stroke="midnightblue" d="M93.536,-136.112C113.87,-141.404 137.371,-147.521 156.423,-152.48"/>
<polygon fill="midnightblue" stroke="midnightblue" points="94.4012,-132.721 83.842,-133.589 92.6379,-139.495 94.4012,-132.721"/>
</g>
<!-- Node5 -->
<g id="node5" class="node"><title>Node5</title>
<g id="a_node5"><a xlink:href="a00186.html" target="_top" xlink:title="fcl::SamplerSE3Euler">
<polygon fill="white" stroke="black" points="139,-114.5 139,-133.5 249,-133.5 249,-114.5 139,-114.5"/>
<text text-anchor="middle" x="194" y="-121.5" font-family="Helvetica,sans-Serif" font-size="10.00">fcl::SamplerSE3Euler</text>
</a>
</g>
</g>
<!-- Node1&#45;&gt;Node5 -->
<g id="edge4" class="edge"><title>Node1&#45;&gt;Node5</title>
<path fill="none" stroke="midnightblue" d="M102.645,-124C114.539,-124 127.086,-124 138.92,-124"/>
<polygon fill="midnightblue" stroke="midnightblue" points="102.395,-120.5 92.395,-124 102.395,-127.5 102.395,-120.5"/>
</g>
<!-- Node6 -->
<g id="node6" class="node"><title>Node6</title>
<g id="a_node6"><a xlink:href="a00187.html" target="_top" xlink:title="fcl::SamplerSE3Euler_ball">
<polygon fill="white" stroke="black" points="128.5,-76.5 128.5,-95.5 259.5,-95.5 259.5,-76.5 128.5,-76.5"/>
<text text-anchor="middle" x="194" y="-83.5" font-family="Helvetica,sans-Serif" font-size="10.00">fcl::SamplerSE3Euler_ball</text>
</a>
</g>
</g>
<!-- Node1&#45;&gt;Node6 -->
<g id="edge5" class="edge"><title>Node1&#45;&gt;Node6</title>
<path fill="none" stroke="midnightblue" d="M93.536,-111.888C113.87,-106.596 137.371,-100.479 156.423,-95.5201"/>
<polygon fill="midnightblue" stroke="midnightblue" points="92.6379,-108.505 83.842,-114.411 94.4012,-115.279 92.6379,-108.505"/>
</g>
<!-- Node7 -->
<g id="node7" class="node"><title>Node7</title>
<g id="a_node7"><a xlink:href="a00188.html" target="_top" xlink:title="fcl::SamplerSE3Quat">
<polygon fill="white" stroke="black" points="139.5,-38.5 139.5,-57.5 248.5,-57.5 248.5,-38.5 139.5,-38.5"/>
<text text-anchor="middle" x="194" y="-45.5" font-family="Helvetica,sans-Serif" font-size="10.00">fcl::SamplerSE3Quat</text>
</a>
</g>
</g>
<!-- Node1&#45;&gt;Node7 -->
<g id="edge6" class="edge"><title>Node1&#45;&gt;Node7</title>
<path fill="none" stroke="midnightblue" d="M65.9523,-107.933C81.6903,-95.2872 105.124,-78.0163 128,-67 135.733,-63.2762 144.341,-60.1311 152.696,-57.5376"/>
<polygon fill="midnightblue" stroke="midnightblue" points="63.5644,-105.365 58.0531,-114.413 68.0043,-110.776 63.5644,-105.365"/>
</g>
<!-- Node8 -->
<g id="node8" class="node"><title>Node8</title>
<g id="a_node8"><a xlink:href="a00189.html" target="_top" xlink:title="fcl::SamplerSE3Quat_ball">
<polygon fill="white" stroke="black" points="129.5,-0.5 129.5,-19.5 258.5,-19.5 258.5,-0.5 129.5,-0.5"/>
<text text-anchor="middle" x="194" y="-7.5" font-family="Helvetica,sans-Serif" font-size="10.00">fcl::SamplerSE3Quat_ball</text>
</a>
</g>
</g>
<!-- Node1&#45;&gt;Node8 -->
<g id="edge7" class="edge"><title>Node1&#45;&gt;Node8</title>
<path fill="none" stroke="midnightblue" d="M57.8433,-105.768C71.5411,-84.2907 97.0954,-49.0092 128,-29 133.921,-25.1662 140.638,-22.0858 147.451,-19.6162"/>
<polygon fill="midnightblue" stroke="midnightblue" points="54.8485,-103.956 52.5622,-114.301 60.8008,-107.64 54.8485,-103.956"/>
</g>
</g>
</svg>
