<?xml version="1.0" encoding="UTF-8" standalone="no"?>
<!DOCTYPE svg PUBLIC "-//W3C//DTD SVG 1.1//EN"
 "http://www.w3.org/Graphics/SVG/1.1/DTD/svg11.dtd">
<!-- Generated by graphviz version 2.36.0 (20140111.2315)
 -->
<!-- Title: Graphical Class Hierarchy Pages: 1 -->
<svg width="462pt" height="87pt"
 viewBox="0.00 0.00 462.00 87.00" xmlns="http://www.w3.org/2000/svg" xmlns:xlink="http://www.w3.org/1999/xlink">
<g id="graph0" class="graph" transform="scale(1 1) rotate(0) translate(4 83)">
<title>Graphical Class Hierarchy</title>
<polygon fill="white" stroke="none" points="-4,4 -4,-83 458,-83 458,4 -4,4"/>
<!-- Node1 -->
<g id="node1" class="node"><title>Node1</title>
<g id="a_node1"><a xlink:href="a00146.html" target="_top" xlink:title="Abstract representation of a container that can perform nearest neighbors queries. ">
<polygon fill="white" stroke="black" points="0,-24 0,-54 112,-54 112,-24 0,-24"/>
<text text-anchor="start" x="8" y="-42" font-family="Helvetica,sans-Serif" font-size="10.00">fcl::NearestNeighbors</text>
<text text-anchor="middle" x="56" y="-31" font-family="Helvetica,sans-Serif" font-size="10.00">&lt; _T &gt;</text>
</a>
</g>
</g>
<!-- Node2 -->
<g id="node2" class="node"><title>Node2</title>
<g id="a_node2"><a xlink:href="a00147.html" target="_top" xlink:title="Geometric Near&#45;neighbor Access Tree (GNAT), a data structure for nearest neighbor search...">
<polygon fill="white" stroke="black" points="148,-49 148,-79 288,-79 288,-49 148,-49"/>
<text text-anchor="start" x="156" y="-67" font-family="Helvetica,sans-Serif" font-size="10.00">fcl::NearestNeighborsGNAT</text>
<text text-anchor="middle" x="218" y="-56" font-family="Helvetica,sans-Serif" font-size="10.00">&lt; _T &gt;</text>
</a>
</g>
</g>
<!-- Node1&#45;&gt;Node2 -->
<g id="edge1" class="edge"><title>Node1&#45;&gt;Node2</title>
<path fill="none" stroke="midnightblue" d="M121.984,-49.1538C130.55,-50.4922 139.354,-51.8679 147.985,-53.2164"/>
<polygon fill="midnightblue" stroke="midnightblue" points="122.483,-45.6894 112.063,-47.6036 121.403,-52.6055 122.483,-45.6894"/>
</g>
<!-- Node3 -->
<g id="node3" class="node"><title>Node3</title>
<g id="a_node3"><a xlink:href="a00148.html" target="_top" xlink:title="A nearest neighbors datastructure that uses linear search. ">
<polygon fill="white" stroke="black" points="149,-0 149,-30 287,-30 287,-0 149,-0"/>
<text text-anchor="start" x="157" y="-18" font-family="Helvetica,sans-Serif" font-size="10.00">fcl::NearestNeighborsLinear</text>
<text text-anchor="middle" x="218" y="-7" font-family="Helvetica,sans-Serif" font-size="10.00">&lt; _T &gt;</text>
</a>
</g>
</g>
<!-- Node1&#45;&gt;Node3 -->
<g id="edge2" class="edge"><title>Node1&#45;&gt;Node3</title>
<path fill="none" stroke="midnightblue" d="M122.22,-29.217C130.991,-27.9013 140.008,-26.5488 148.828,-25.2257"/>
<polygon fill="midnightblue" stroke="midnightblue" points="121.433,-25.7958 112.063,-30.7406 122.472,-32.7184 121.433,-25.7958"/>
</g>
<!-- Node4 -->
<g id="node4" class="node"><title>Node4</title>
<g id="a_node4"><a xlink:href="a00149.html" target="_top" xlink:title="A nearest neighbors datastructure that uses linear search. ">
<polygon fill="white" stroke="black" points="324,-0 324,-30 454,-30 454,-0 324,-0"/>
<text text-anchor="start" x="332" y="-18" font-family="Helvetica,sans-Serif" font-size="10.00">fcl::NearestNeighborsSqrt</text>
<text text-anchor="middle" x="389" y="-7" font-family="Helvetica,sans-Serif" font-size="10.00">Approx&lt; _T &gt;</text>
</a>
</g>
</g>
<!-- Node3&#45;&gt;Node4 -->
<g id="edge3" class="edge"><title>Node3&#45;&gt;Node4</title>
<path fill="none" stroke="midnightblue" d="M297.253,-15C306.166,-15 315.172,-15 323.871,-15"/>
<polygon fill="midnightblue" stroke="midnightblue" points="297.252,-11.5001 287.252,-15 297.252,-18.5001 297.252,-11.5001"/>
</g>
</g>
</svg>
