<?xml version="1.0" encoding="UTF-8" standalone="no"?>
<!DOCTYPE svg PUBLIC "-//W3C//DTD SVG 1.1//EN"
 "http://www.w3.org/Graphics/SVG/1.1/DTD/svg11.dtd">
<!-- Generated by graphviz version 2.36.0 (20140111.2315)
 -->
<!-- Title: Graphical Class Hierarchy Pages: 1 -->
<svg width="358pt" height="66pt"
 viewBox="0.00 0.00 358.00 66.00" xmlns="http://www.w3.org/2000/svg" xmlns:xlink="http://www.w3.org/1999/xlink">
<g id="graph0" class="graph" transform="scale(1 1) rotate(0) translate(4 62)">
<title>Graphical Class Hierarchy</title>
<polygon fill="white" stroke="none" points="-4,4 -4,-62 354,-62 354,4 -4,4"/>
<!-- Node1 -->
<g id="node1" class="node"><title>Node1</title>
<g id="a_node1"><a xlink:title="STL class. ">
<polygon fill="white" stroke="#bfbfbf" points="0,-19.5 0,-38.5 78,-38.5 78,-19.5 0,-19.5"/>
<text text-anchor="middle" x="39" y="-26.5" font-family="Helvetica,sans-Serif" font-size="10.00">std::exception</text>
</a>
</g>
</g>
<!-- Node2 -->
<g id="node2" class="node"><title>Node2</title>
<g id="a_node2"><a xlink:title="STL class. ">
<polygon fill="white" stroke="#bfbfbf" points="114.5,-19.5 114.5,-38.5 207.5,-38.5 207.5,-19.5 114.5,-19.5"/>
<text text-anchor="middle" x="161" y="-26.5" font-family="Helvetica,sans-Serif" font-size="10.00">std::runtime_error</text>
</a>
</g>
</g>
<!-- Node1&#45;&gt;Node2 -->
<g id="edge1" class="edge"><title>Node1&#45;&gt;Node2</title>
<path fill="none" stroke="midnightblue" d="M88.4269,-29C96.8996,-29 105.692,-29 114.094,-29"/>
<polygon fill="midnightblue" stroke="midnightblue" points="88.2987,-25.5001 78.2987,-29 88.2986,-32.5001 88.2987,-25.5001"/>
</g>
<!-- Node3 -->
<g id="node3" class="node"><title>Node3</title>
<g id="a_node3"><a xlink:href="a00068.html" target="_top" xlink:title="fcl::Exception">
<polygon fill="white" stroke="black" points="258.5,-38.5 258.5,-57.5 335.5,-57.5 335.5,-38.5 258.5,-38.5"/>
<text text-anchor="middle" x="297" y="-45.5" font-family="Helvetica,sans-Serif" font-size="10.00">fcl::Exception</text>
</a>
</g>
</g>
<!-- Node2&#45;&gt;Node3 -->
<g id="edge2" class="edge"><title>Node2&#45;&gt;Node3</title>
<path fill="none" stroke="midnightblue" d="M218.012,-36.942C231.654,-38.8763 245.921,-40.8992 258.466,-42.678"/>
<polygon fill="midnightblue" stroke="midnightblue" points="218.133,-33.4242 207.74,-35.4856 217.15,-40.3549 218.133,-33.4242"/>
</g>
<!-- Node4 -->
<g id="node4" class="node"><title>Node4</title>
<g id="a_node4"><a xlink:href="a00139.html" target="_top" xlink:title="fcl::ModelParseError">
<polygon fill="white" stroke="black" points="244,-0.5 244,-19.5 350,-19.5 350,-0.5 244,-0.5"/>
<text text-anchor="middle" x="297" y="-7.5" font-family="Helvetica,sans-Serif" font-size="10.00">fcl::ModelParseError</text>
</a>
</g>
</g>
<!-- Node2&#45;&gt;Node4 -->
<g id="edge3" class="edge"><title>Node2&#45;&gt;Node4</title>
<path fill="none" stroke="midnightblue" d="M217.651,-21.1092C226.224,-19.8937 235.051,-18.642 243.55,-17.4369"/>
<polygon fill="midnightblue" stroke="midnightblue" points="217.15,-17.6451 207.74,-22.5144 218.133,-24.5758 217.15,-17.6451"/>
</g>
</g>
</svg>
