<?xml version="1.0" encoding="UTF-8" standalone="no"?>
<!DOCTYPE svg PUBLIC "-//W3C//DTD SVG 1.1//EN"
 "http://www.w3.org/Graphics/SVG/1.1/DTD/svg11.dtd">
<!-- Generated by graphviz version 2.36.0 (20140111.2315)
 -->
<!-- Title: Graphical Class Hierarchy Pages: 1 -->
<svg width="272pt" height="104pt"
 viewBox="0.00 0.00 272.00 104.00" xmlns="http://www.w3.org/2000/svg" xmlns:xlink="http://www.w3.org/1999/xlink">
<g id="graph0" class="graph" transform="scale(1 1) rotate(0) translate(4 100)">
<title>Graphical Class Hierarchy</title>
<polygon fill="white" stroke="none" points="-4,4 -4,-100 268,-100 268,4 -4,4"/>
<!-- Node1 -->
<g id="node1" class="node"><title>Node1</title>
<g id="a_node1"><a xlink:href="a00255.html" target="_top" xlink:title="fcl::Vec_n\&lt; FCL_REAL, N \&gt;">
<polygon fill="white" stroke="black" points="0.5,-38.5 0.5,-57.5 143.5,-57.5 143.5,-38.5 0.5,-38.5"/>
<text text-anchor="middle" x="72" y="-45.5" font-family="Helvetica,sans-Serif" font-size="10.00">fcl::Vec_n&lt; FCL_REAL, N &gt;</text>
</a>
</g>
</g>
<!-- Node2 -->
<g id="node2" class="node"><title>Node2</title>
<g id="a_node2"><a xlink:href="a00256.html" target="_top" xlink:title="fcl::Vecnf\&lt; N \&gt;">
<polygon fill="white" stroke="black" points="180,-76.5 180,-95.5 264,-95.5 264,-76.5 180,-76.5"/>
<text text-anchor="middle" x="222" y="-83.5" font-family="Helvetica,sans-Serif" font-size="10.00">fcl::Vecnf&lt; N &gt;</text>
</a>
</g>
</g>
<!-- Node1&#45;&gt;Node2 -->
<g id="edge1" class="edge"><title>Node1&#45;&gt;Node2</title>
<path fill="none" stroke="midnightblue" d="M120.173,-60.1121C140.786,-65.4044 164.609,-71.5213 183.922,-76.4799"/>
<polygon fill="midnightblue" stroke="midnightblue" points="120.903,-56.6859 110.347,-57.589 119.162,-63.466 120.903,-56.6859"/>
</g>
<!-- Node3 -->
<g id="node3" class="node"><title>Node3</title>
<g id="a_node3"><a xlink:href="a00256.html" target="_top" xlink:title="fcl::Vecnf\&lt; 2 \&gt;">
<polygon fill="white" stroke="black" points="181,-38.5 181,-57.5 263,-57.5 263,-38.5 181,-38.5"/>
<text text-anchor="middle" x="222" y="-45.5" font-family="Helvetica,sans-Serif" font-size="10.00">fcl::Vecnf&lt; 2 &gt;</text>
</a>
</g>
</g>
<!-- Node1&#45;&gt;Node3 -->
<g id="edge2" class="edge"><title>Node1&#45;&gt;Node3</title>
<path fill="none" stroke="midnightblue" d="M153.737,-48C163.116,-48 172.349,-48 180.827,-48"/>
<polygon fill="midnightblue" stroke="midnightblue" points="153.532,-44.5001 143.532,-48 153.532,-51.5001 153.532,-44.5001"/>
</g>
<!-- Node4 -->
<g id="node4" class="node"><title>Node4</title>
<g id="a_node4"><a xlink:href="a00256.html" target="_top" xlink:title="fcl::Vecnf\&lt; 3 \&gt;">
<polygon fill="white" stroke="black" points="181,-0.5 181,-19.5 263,-19.5 263,-0.5 181,-0.5"/>
<text text-anchor="middle" x="222" y="-7.5" font-family="Helvetica,sans-Serif" font-size="10.00">fcl::Vecnf&lt; 3 &gt;</text>
</a>
</g>
</g>
<!-- Node1&#45;&gt;Node4 -->
<g id="edge3" class="edge"><title>Node1&#45;&gt;Node4</title>
<path fill="none" stroke="midnightblue" d="M120.173,-35.8879C140.786,-30.5956 164.609,-24.4787 183.922,-19.5201"/>
<polygon fill="midnightblue" stroke="midnightblue" points="119.162,-32.534 110.347,-38.411 120.903,-39.3141 119.162,-32.534"/>
</g>
</g>
</svg>
