<?xml version="1.0" encoding="UTF-8" standalone="no"?>
<!DOCTYPE svg PUBLIC "-//W3C//DTD SVG 1.1//EN"
 "http://www.w3.org/Graphics/SVG/1.1/DTD/svg11.dtd">
<!-- Generated by graphviz version 2.36.0 (20140111.2315)
 -->
<!-- Title: hpp::statistics::SuccessStatistics Pages: 1 -->
<svg width="227pt" height="190pt"
 viewBox="0.00 0.00 227.00 190.00" xmlns="http://www.w3.org/2000/svg" xmlns:xlink="http://www.w3.org/1999/xlink">
<g id="graph0" class="graph" transform="scale(1 1) rotate(0) translate(4 186)">
<title>hpp::statistics::SuccessStatistics</title>
<polygon fill="white" stroke="none" points="-4,4 -4,-186 223,-186 223,4 -4,4"/>
<!-- Node1 -->
<g id="node1" class="node"><title>Node1</title>
<polygon fill="#bfbfbf" stroke="black" points="36,-1 36,-31 158,-31 158,-1 36,-1"/>
<text text-anchor="start" x="44" y="-19" font-family="Helvetica,sans-Serif" font-size="10.00">hpp::statistics::Success</text>
<text text-anchor="middle" x="97" y="-8" font-family="Helvetica,sans-Serif" font-size="10.00">Statistics</text>
</g>
<!-- Node2 -->
<g id="node2" class="node"><title>Node2</title>
<g id="a_node2"><a xlink:href="a00005.html" target="_top" xlink:title="hpp::statistics::Statistics\l\&lt; SuccessBin \&gt;">
<polygon fill="white" stroke="black" points="-0.5,-81 -0.5,-111 124.5,-111 124.5,-81 -0.5,-81"/>
<text text-anchor="start" x="7.5" y="-99" font-family="Helvetica,sans-Serif" font-size="10.00">hpp::statistics::Statistics</text>
<text text-anchor="middle" x="62" y="-88" font-family="Helvetica,sans-Serif" font-size="10.00">&lt; SuccessBin &gt;</text>
</a>
</g>
</g>
<!-- Node2&#45;&gt;Node1 -->
<g id="edge1" class="edge"><title>Node2&#45;&gt;Node1</title>
<path fill="none" stroke="midnightblue" d="M72.6177,-71.3377C78.4932,-58.2436 85.6,-42.4057 90.6212,-31.2157"/>
<polygon fill="midnightblue" stroke="midnightblue" points="69.3203,-70.1371 68.4195,-80.6936 75.7068,-73.0029 69.3203,-70.1371"/>
</g>
<!-- Node3 -->
<g id="node3" class="node"><title>Node3</title>
<g id="a_node3"><a xlink:title="STL class. ">
<polygon fill="white" stroke="#bfbfbf" points="142,-86.5 142,-105.5 202,-105.5 202,-86.5 142,-86.5"/>
<text text-anchor="middle" x="172" y="-93.5" font-family="Helvetica,sans-Serif" font-size="10.00">std::string</text>
</a>
</g>
</g>
<!-- Node3&#45;&gt;Node1 -->
<g id="edge2" class="edge"><title>Node3&#45;&gt;Node1</title>
<path fill="none" stroke="#9a32cd" stroke-dasharray="5,2" d="M156.512,-78.8928C143.011,-64.8519 123.618,-44.6827 110.68,-31.227"/>
<polygon fill="#9a32cd" stroke="#9a32cd" points="154.233,-81.5721 163.687,-86.3546 159.279,-76.7204 154.233,-81.5721"/>
<text text-anchor="middle" x="154.5" y="-53.5" font-family="Helvetica,sans-Serif" font-size="10.00"> name_</text>
</g>
<!-- Node4 -->
<g id="node4" class="node"><title>Node4</title>
<g id="a_node4"><a xlink:title="STL class. ">
<polygon fill="white" stroke="#bfbfbf" points="124.5,-151 124.5,-181 219.5,-181 219.5,-151 124.5,-151"/>
<text text-anchor="start" x="132.5" y="-169" font-family="Helvetica,sans-Serif" font-size="10.00">std::basic_string&lt;</text>
<text text-anchor="middle" x="172" y="-158" font-family="Helvetica,sans-Serif" font-size="10.00"> char &gt;</text>
</a>
</g>
</g>
<!-- Node4&#45;&gt;Node3 -->
<g id="edge3" class="edge"><title>Node4&#45;&gt;Node3</title>
<path fill="none" stroke="midnightblue" d="M172,-140.883C172,-128.733 172,-114.739 172,-105.883"/>
<polygon fill="midnightblue" stroke="midnightblue" points="168.5,-140.91 172,-150.91 175.5,-140.91 168.5,-140.91"/>
</g>
</g>
</svg>
