<?xml version="1.0" encoding="UTF-8" standalone="no"?>
<!DOCTYPE svg PUBLIC "-//W3C//DTD SVG 1.1//EN"
 "http://www.w3.org/Graphics/SVG/1.1/DTD/svg11.dtd">
<!-- Generated by graphviz version 2.36.0 (20140111.2315)
 -->
<!-- Title: time&#45;counter.hh Pages: 1 -->
<svg width="453pt" height="96pt"
 viewBox="0.00 0.00 453.00 96.00" xmlns="http://www.w3.org/2000/svg" xmlns:xlink="http://www.w3.org/1999/xlink">
<g id="graph0" class="graph" transform="scale(1 1) rotate(0) translate(4 92)">
<title>time&#45;counter.hh</title>
<polygon fill="white" stroke="none" points="-4,4 -4,-92 449,-92 449,4 -4,4"/>
<!-- Node1 -->
<g id="node1" class="node"><title>Node1</title>
<polygon fill="#bfbfbf" stroke="black" points="152,-68.5 152,-87.5 236,-87.5 236,-68.5 152,-68.5"/>
<text text-anchor="middle" x="194" y="-75.5" font-family="Helvetica,sans-Serif" font-size="10.00">time&#45;counter.hh</text>
</g>
<!-- Node2 -->
<g id="node2" class="node"><title>Node2</title>
<polygon fill="white" stroke="#bfbfbf" points="0,-6.5 0,-25.5 52,-25.5 52,-6.5 0,-6.5"/>
<text text-anchor="middle" x="26" y="-13.5" font-family="Helvetica,sans-Serif" font-size="10.00">ostream</text>
</g>
<!-- Node1&#45;&gt;Node2 -->
<g id="edge1" class="edge"><title>Node1&#45;&gt;Node2</title>
<path fill="none" stroke="midnightblue" d="M166.776,-68.4817C139.736,-59.8589 97.1969,-45.8554 61,-32 58.8931,-31.1935 56.726,-30.3355 54.5522,-29.4541"/>
<polygon fill="midnightblue" stroke="midnightblue" points="55.7211,-26.1494 45.1446,-25.5264 53.0242,-32.609 55.7211,-26.1494"/>
</g>
<!-- Node3 -->
<g id="node3" class="node"><title>Node3</title>
<polygon fill="white" stroke="#bfbfbf" points="70.5,-1 70.5,-31 183.5,-31 183.5,-1 70.5,-1"/>
<text text-anchor="start" x="78.5" y="-19" font-family="Helvetica,sans-Serif" font-size="10.00">boost/date_time/posix</text>
<text text-anchor="middle" x="127" y="-8" font-family="Helvetica,sans-Serif" font-size="10.00">_time/posix_time.hpp</text>
</g>
<!-- Node1&#45;&gt;Node3 -->
<g id="edge2" class="edge"><title>Node1&#45;&gt;Node3</title>
<path fill="none" stroke="midnightblue" d="M184.401,-68.4035C175.581,-60.5051 162.149,-48.4768 150.496,-38.0409"/>
<polygon fill="midnightblue" stroke="midnightblue" points="152.575,-35.2047 142.791,-31.1408 147.905,-40.4194 152.575,-35.2047"/>
</g>
<!-- Node4 -->
<g id="node4" class="node"><title>Node4</title>
<polygon fill="white" stroke="#bfbfbf" points="202,-6.5 202,-25.5 320,-25.5 320,-6.5 202,-6.5"/>
<text text-anchor="middle" x="261" y="-13.5" font-family="Helvetica,sans-Serif" font-size="10.00">hpp/statistics/config.hh</text>
</g>
<!-- Node1&#45;&gt;Node4 -->
<g id="edge3" class="edge"><title>Node1&#45;&gt;Node4</title>
<path fill="none" stroke="midnightblue" d="M203.599,-68.4035C214.048,-59.047 230.968,-43.8948 243.736,-32.4599"/>
<polygon fill="midnightblue" stroke="midnightblue" points="246.304,-34.8592 251.418,-25.5806 241.634,-29.6445 246.304,-34.8592"/>
</g>
<!-- Node5 -->
<g id="node5" class="node"><title>Node5</title>
<g id="a_node5"><a xlink:href="a00011.html" target="_top" xlink:title="hpp/statistics/fwd.hh">
<polygon fill="white" stroke="black" points="338.5,-6.5 338.5,-25.5 445.5,-25.5 445.5,-6.5 338.5,-6.5"/>
<text text-anchor="middle" x="392" y="-13.5" font-family="Helvetica,sans-Serif" font-size="10.00">hpp/statistics/fwd.hh</text>
</a>
</g>
</g>
<!-- Node1&#45;&gt;Node5 -->
<g id="edge4" class="edge"><title>Node1&#45;&gt;Node5</title>
<path fill="none" stroke="midnightblue" d="M222.369,-68.4035C256.921,-57.9331 315.424,-40.2049 353.885,-28.5501"/>
<polygon fill="midnightblue" stroke="midnightblue" points="355.129,-31.8303 363.684,-25.5806 353.099,-25.1311 355.129,-31.8303"/>
</g>
</g>
</svg>
