<?xml version="1.0" encoding="UTF-8" standalone="no"?>
<!DOCTYPE svg PUBLIC "-//W3C//DTD SVG 1.1//EN"
 "http://www.w3.org/Graphics/SVG/1.1/DTD/svg11.dtd">
<!-- Generated by graphviz version 2.36.0 (20140111.2315)
 -->
<!-- Title: hpp::statistics::SuccessStatistics Pages: 1 -->
<svg width="132pt" height="108pt"
 viewBox="0.00 0.00 132.00 108.00" xmlns="http://www.w3.org/2000/svg" xmlns:xlink="http://www.w3.org/1999/xlink">
<g id="graph0" class="graph" transform="scale(1 1) rotate(0) translate(4 104)">
<title>hpp::statistics::SuccessStatistics</title>
<polygon fill="white" stroke="none" points="-4,4 -4,-104 128,-104 128,4 -4,4"/>
<!-- Node1 -->
<g id="node1" class="node"><title>Node1</title>
<polygon fill="#bfbfbf" stroke="black" points="1,-1 1,-31 123,-31 123,-1 1,-1"/>
<text text-anchor="start" x="9" y="-19" font-family="Helvetica,sans-Serif" font-size="10.00">hpp::statistics::Success</text>
<text text-anchor="middle" x="62" y="-8" font-family="Helvetica,sans-Serif" font-size="10.00">Statistics</text>
</g>
<!-- Node2 -->
<g id="node2" class="node"><title>Node2</title>
<g id="a_node2"><a xlink:href="a00005.html" target="_top" xlink:title="hpp::statistics::Statistics\l\&lt; SuccessBin \&gt;">
<polygon fill="white" stroke="black" points="-0.5,-69 -0.5,-99 124.5,-99 124.5,-69 -0.5,-69"/>
<text text-anchor="start" x="7.5" y="-87" font-family="Helvetica,sans-Serif" font-size="10.00">hpp::statistics::Statistics</text>
<text text-anchor="middle" x="62" y="-76" font-family="Helvetica,sans-Serif" font-size="10.00">&lt; SuccessBin &gt;</text>
</a>
</g>
</g>
<!-- Node2&#45;&gt;Node1 -->
<g id="edge1" class="edge"><title>Node2&#45;&gt;Node1</title>
<path fill="none" stroke="midnightblue" d="M62,-58.5322C62,-49.3606 62,-39.2449 62,-31.2931"/>
<polygon fill="midnightblue" stroke="midnightblue" points="58.5001,-58.6789 62,-68.679 65.5001,-58.679 58.5001,-58.6789"/>
</g>
</g>
</svg>
