<?xml version="1.0" encoding="UTF-8" standalone="no"?>
<!DOCTYPE svg PUBLIC "-//W3C//DTD SVG 1.1//EN"
 "http://www.w3.org/Graphics/SVG/1.1/DTD/svg11.dtd">
<!-- Generated by graphviz version 2.36.0 (20140111.2315)
 -->
<!-- Title: success&#45;bin.hh Pages: 1 -->
<svg width="540pt" height="140pt"
 viewBox="0.00 0.00 540.00 140.00" xmlns="http://www.w3.org/2000/svg" xmlns:xlink="http://www.w3.org/1999/xlink">
<g id="graph0" class="graph" transform="scale(1 1) rotate(0) translate(4 136)">
<title>success&#45;bin.hh</title>
<polygon fill="white" stroke="none" points="-4,4 -4,-136 536,-136 536,4 -4,4"/>
<!-- Node1 -->
<g id="node1" class="node"><title>Node1</title>
<polygon fill="#bfbfbf" stroke="black" points="161.5,-112.5 161.5,-131.5 244.5,-131.5 244.5,-112.5 161.5,-112.5"/>
<text text-anchor="middle" x="203" y="-119.5" font-family="Helvetica,sans-Serif" font-size="10.00">success&#45;bin.hh</text>
</g>
<!-- Node2 -->
<g id="node2" class="node"><title>Node2</title>
<polygon fill="white" stroke="#bfbfbf" points="0,-56.5 0,-75.5 54,-75.5 54,-56.5 0,-56.5"/>
<text text-anchor="middle" x="27" y="-63.5" font-family="Helvetica,sans-Serif" font-size="10.00">iostream</text>
</g>
<!-- Node1&#45;&gt;Node2 -->
<g id="edge1" class="edge"><title>Node1&#45;&gt;Node2</title>
<path fill="none" stroke="midnightblue" d="M175.112,-112.444C145.071,-103.226 97.1252,-88.5157 63.9607,-78.3402"/>
<polygon fill="midnightblue" stroke="midnightblue" points="64.7657,-74.9262 54.1789,-75.339 62.7124,-81.6183 64.7657,-74.9262"/>
</g>
<!-- Node3 -->
<g id="node3" class="node"><title>Node3</title>
<polygon fill="white" stroke="#bfbfbf" points="72,-56.5 72,-75.5 102,-75.5 102,-56.5 72,-56.5"/>
<text text-anchor="middle" x="87" y="-63.5" font-family="Helvetica,sans-Serif" font-size="10.00">set</text>
</g>
<!-- Node1&#45;&gt;Node3 -->
<g id="edge2" class="edge"><title>Node1&#45;&gt;Node3</title>
<path fill="none" stroke="midnightblue" d="M184.619,-112.444C164.897,-103.262 133.467,-88.6313 111.619,-78.4605"/>
<polygon fill="midnightblue" stroke="midnightblue" points="112.874,-75.1841 102.331,-74.1368 109.92,-81.5302 112.874,-75.1841"/>
</g>
<!-- Node4 -->
<g id="node4" class="node"><title>Node4</title>
<polygon fill="white" stroke="#bfbfbf" points="120.5,-56.5 120.5,-75.5 211.5,-75.5 211.5,-56.5 120.5,-56.5"/>
<text text-anchor="middle" x="166" y="-63.5" font-family="Helvetica,sans-Serif" font-size="10.00">hpp/util/debug.hh</text>
</g>
<!-- Node1&#45;&gt;Node4 -->
<g id="edge3" class="edge"><title>Node1&#45;&gt;Node4</title>
<path fill="none" stroke="midnightblue" d="M196.89,-112.083C191.718,-104.534 184.154,-93.4948 177.806,-84.2298"/>
<polygon fill="midnightblue" stroke="midnightblue" points="180.536,-82.0221 171.996,-75.7511 174.761,-85.9787 180.536,-82.0221"/>
</g>
<!-- Node5 -->
<g id="node5" class="node"><title>Node5</title>
<polygon fill="white" stroke="#bfbfbf" points="99,-0.5 99,-19.5 217,-19.5 217,-0.5 99,-0.5"/>
<text text-anchor="middle" x="158" y="-7.5" font-family="Helvetica,sans-Serif" font-size="10.00">hpp/statistics/config.hh</text>
</g>
<!-- Node1&#45;&gt;Node5 -->
<g id="edge4" class="edge"><title>Node1&#45;&gt;Node5</title>
<path fill="none" stroke="midnightblue" d="M209.127,-112.161C217.258,-99.2411 229.536,-74.705 220,-56 213,-42.2698 199.634,-31.7496 187.1,-24.3465"/>
<polygon fill="midnightblue" stroke="midnightblue" points="188.678,-21.2204 178.223,-19.5055 185.326,-27.366 188.678,-21.2204"/>
</g>
<!-- Node6 -->
<g id="node6" class="node"><title>Node6</title>
<g id="a_node6"><a xlink:href="a00009.html" target="_top" xlink:title="hpp/statistics/bin.hh">
<polygon fill="white" stroke="black" points="268,-56.5 268,-75.5 372,-75.5 372,-56.5 268,-56.5"/>
<text text-anchor="middle" x="320" y="-63.5" font-family="Helvetica,sans-Serif" font-size="10.00">hpp/statistics/bin.hh</text>
</a>
</g>
</g>
<!-- Node1&#45;&gt;Node6 -->
<g id="edge5" class="edge"><title>Node1&#45;&gt;Node6</title>
<path fill="none" stroke="midnightblue" d="M221.539,-112.444C240.623,-103.636 270.575,-89.8116 292.436,-79.722"/>
<polygon fill="midnightblue" stroke="midnightblue" points="293.935,-82.8849 301.548,-75.5164 291.001,-76.5292 293.935,-82.8849"/>
</g>
<!-- Node10 -->
<g id="node10" class="node"><title>Node10</title>
<g id="a_node10"><a xlink:href="a00011.html" target="_top" xlink:title="hpp/statistics/fwd.hh">
<polygon fill="white" stroke="black" points="425.5,-0.5 425.5,-19.5 532.5,-19.5 532.5,-0.5 425.5,-0.5"/>
<text text-anchor="middle" x="479" y="-7.5" font-family="Helvetica,sans-Serif" font-size="10.00">hpp/statistics/fwd.hh</text>
</a>
</g>
</g>
<!-- Node1&#45;&gt;Node10 -->
<g id="edge11" class="edge"><title>Node1&#45;&gt;Node10</title>
<path fill="none" stroke="midnightblue" d="M244.599,-114.593C281.533,-107.955 336.403,-95.7359 381,-76 410.817,-62.8049 441.572,-40.7758 460.49,-26.0704"/>
<polygon fill="midnightblue" stroke="midnightblue" points="462.87,-28.6506 468.537,-19.6989 458.524,-23.1626 462.87,-28.6506"/>
</g>
<!-- Node6&#45;&gt;Node5 -->
<g id="edge9" class="edge"><title>Node6&#45;&gt;Node5</title>
<path fill="none" stroke="midnightblue" d="M294.331,-56.4435C267.077,-47.3591 223.816,-32.9388 193.349,-22.7831"/>
<polygon fill="midnightblue" stroke="midnightblue" points="194.143,-19.3584 183.549,-19.5164 191.929,-25.9992 194.143,-19.3584"/>
</g>
<!-- Node7 -->
<g id="node7" class="node"><title>Node7</title>
<polygon fill="white" stroke="#bfbfbf" points="235,-0.5 235,-19.5 287,-19.5 287,-0.5 235,-0.5"/>
<text text-anchor="middle" x="261" y="-7.5" font-family="Helvetica,sans-Serif" font-size="10.00">ostream</text>
</g>
<!-- Node6&#45;&gt;Node7 -->
<g id="edge6" class="edge"><title>Node6&#45;&gt;Node7</title>
<path fill="none" stroke="midnightblue" d="M310.521,-56.324C301.799,-48.3414 288.657,-36.3128 278.102,-26.6529"/>
<polygon fill="midnightblue" stroke="midnightblue" points="280.392,-24.0036 270.652,-19.8339 275.666,-29.1674 280.392,-24.0036"/>
</g>
<!-- Node8 -->
<g id="node8" class="node"><title>Node8</title>
<polygon fill="white" stroke="#bfbfbf" points="305.5,-0.5 305.5,-19.5 334.5,-19.5 334.5,-0.5 305.5,-0.5"/>
<text text-anchor="middle" x="320" y="-7.5" font-family="Helvetica,sans-Serif" font-size="10.00">list</text>
</g>
<!-- Node6&#45;&gt;Node8 -->
<g id="edge7" class="edge"><title>Node6&#45;&gt;Node8</title>
<path fill="none" stroke="midnightblue" d="M320,-56.083C320,-49.0059 320,-38.8611 320,-29.9865"/>
<polygon fill="midnightblue" stroke="midnightblue" points="323.5,-29.751 320,-19.7511 316.5,-29.7511 323.5,-29.751"/>
</g>
<!-- Node9 -->
<g id="node9" class="node"><title>Node9</title>
<polygon fill="white" stroke="#bfbfbf" points="352,-0.5 352,-19.5 408,-19.5 408,-0.5 352,-0.5"/>
<text text-anchor="middle" x="380" y="-7.5" font-family="Helvetica,sans-Serif" font-size="10.00">algorithm</text>
</g>
<!-- Node6&#45;&gt;Node9 -->
<g id="edge8" class="edge"><title>Node6&#45;&gt;Node9</title>
<path fill="none" stroke="midnightblue" d="M329.64,-56.324C338.51,-48.3414 351.875,-36.3128 362.608,-26.6529"/>
<polygon fill="midnightblue" stroke="midnightblue" points="365.093,-29.1251 370.185,-19.8339 360.41,-23.922 365.093,-29.1251"/>
</g>
<!-- Node6&#45;&gt;Node10 -->
<g id="edge10" class="edge"><title>Node6&#45;&gt;Node10</title>
<path fill="none" stroke="midnightblue" d="M345.194,-56.4435C371.943,-47.3591 414.403,-32.9388 444.305,-22.7831"/>
<polygon fill="midnightblue" stroke="midnightblue" points="445.581,-26.0464 453.924,-19.5164 443.329,-19.4182 445.581,-26.0464"/>
</g>
</g>
</svg>
