<?xml version="1.0" encoding="UTF-8" standalone="no"?>
<!DOCTYPE svg PUBLIC "-//W3C//DTD SVG 1.1//EN"
 "http://www.w3.org/Graphics/SVG/1.1/DTD/svg11.dtd">
<!-- Generated by graphviz version 2.36.0 (20140111.2315)
 -->
<!-- Title: success&#45;failure&#45;count.hh Pages: 1 -->
<svg width="441pt" height="140pt"
 viewBox="0.00 0.00 441.00 140.00" xmlns="http://www.w3.org/2000/svg" xmlns:xlink="http://www.w3.org/1999/xlink">
<g id="graph0" class="graph" transform="scale(1 1) rotate(0) translate(4 136)">
<title>success&#45;failure&#45;count.hh</title>
<polygon fill="white" stroke="none" points="-4,4 -4,-136 437,-136 437,4 -4,4"/>
<!-- Node1 -->
<g id="node1" class="node"><title>Node1</title>
<polygon fill="#bfbfbf" stroke="black" points="79.5,-112.5 79.5,-131.5 202.5,-131.5 202.5,-112.5 79.5,-112.5"/>
<text text-anchor="middle" x="141" y="-119.5" font-family="Helvetica,sans-Serif" font-size="10.00">success&#45;failure&#45;count.hh</text>
</g>
<!-- Node2 -->
<g id="node2" class="node"><title>Node2</title>
<polygon fill="white" stroke="#bfbfbf" points="11,-56.5 11,-75.5 65,-75.5 65,-56.5 11,-56.5"/>
<text text-anchor="middle" x="38" y="-63.5" font-family="Helvetica,sans-Serif" font-size="10.00">iostream</text>
</g>
<!-- Node1&#45;&gt;Node2 -->
<g id="edge1" class="edge"><title>Node1&#45;&gt;Node2</title>
<path fill="none" stroke="midnightblue" d="M124.451,-112.324C108.008,-103.703 82.5652,-90.3643 63.5316,-80.3855"/>
<polygon fill="midnightblue" stroke="midnightblue" points="64.9895,-77.198 54.5077,-75.6545 61.7391,-83.3977 64.9895,-77.198"/>
</g>
<!-- Node3 -->
<g id="node3" class="node"><title>Node3</title>
<polygon fill="white" stroke="#bfbfbf" points="83,-56.5 83,-75.5 113,-75.5 113,-56.5 83,-56.5"/>
<text text-anchor="middle" x="98" y="-63.5" font-family="Helvetica,sans-Serif" font-size="10.00">set</text>
</g>
<!-- Node1&#45;&gt;Node3 -->
<g id="edge2" class="edge"><title>Node1&#45;&gt;Node3</title>
<path fill="none" stroke="midnightblue" d="M133.899,-112.083C127.763,-104.377 118.73,-93.0333 111.261,-83.6531"/>
<polygon fill="midnightblue" stroke="midnightblue" points="113.936,-81.3936 104.968,-75.7511 108.46,-85.7542 113.936,-81.3936"/>
</g>
<!-- Node4 -->
<g id="node4" class="node"><title>Node4</title>
<polygon fill="white" stroke="#bfbfbf" points="0,-0.5 0,-19.5 118,-19.5 118,-0.5 0,-0.5"/>
<text text-anchor="middle" x="59" y="-7.5" font-family="Helvetica,sans-Serif" font-size="10.00">hpp/statistics/config.hh</text>
</g>
<!-- Node1&#45;&gt;Node4 -->
<g id="edge3" class="edge"><title>Node1&#45;&gt;Node4</title>
<path fill="none" stroke="midnightblue" d="M140.086,-112.228C138.334,-98.9586 133.498,-73.4799 121,-56 111.725,-43.028 97.5378,-32.336 85.0744,-24.6338"/>
<polygon fill="midnightblue" stroke="midnightblue" points="86.7985,-21.5875 76.3987,-19.5639 83.2667,-27.6312 86.7985,-21.5875"/>
</g>
<!-- Node5 -->
<g id="node5" class="node"><title>Node5</title>
<g id="a_node5"><a xlink:href="a00009.html" target="_top" xlink:title="hpp/statistics/bin.hh">
<polygon fill="white" stroke="black" points="169,-56.5 169,-75.5 273,-75.5 273,-56.5 169,-56.5"/>
<text text-anchor="middle" x="221" y="-63.5" font-family="Helvetica,sans-Serif" font-size="10.00">hpp/statistics/bin.hh</text>
</a>
</g>
</g>
<!-- Node1&#45;&gt;Node5 -->
<g id="edge4" class="edge"><title>Node1&#45;&gt;Node5</title>
<path fill="none" stroke="midnightblue" d="M153.853,-112.324C166.216,-103.979 185.13,-91.2122 199.737,-81.3524"/>
<polygon fill="midnightblue" stroke="midnightblue" points="201.848,-84.1503 208.179,-75.6545 197.932,-78.3483 201.848,-84.1503"/>
</g>
<!-- Node9 -->
<g id="node9" class="node"><title>Node9</title>
<g id="a_node9"><a xlink:href="a00011.html" target="_top" xlink:title="hpp/statistics/fwd.hh">
<polygon fill="white" stroke="black" points="326.5,-0.5 326.5,-19.5 433.5,-19.5 433.5,-0.5 326.5,-0.5"/>
<text text-anchor="middle" x="380" y="-7.5" font-family="Helvetica,sans-Serif" font-size="10.00">hpp/statistics/fwd.hh</text>
</a>
</g>
</g>
<!-- Node1&#45;&gt;Node9 -->
<g id="edge10" class="edge"><title>Node1&#45;&gt;Node9</title>
<path fill="none" stroke="midnightblue" d="M177.099,-112.436C206.225,-104.834 247.828,-92.393 282,-76 311.239,-61.9735 341.924,-40.3284 361.003,-25.9194"/>
<polygon fill="midnightblue" stroke="midnightblue" points="363.337,-28.5399 369.142,-19.6769 359.077,-22.9853 363.337,-28.5399"/>
</g>
<!-- Node5&#45;&gt;Node4 -->
<g id="edge8" class="edge"><title>Node5&#45;&gt;Node4</title>
<path fill="none" stroke="midnightblue" d="M195.331,-56.4435C168.077,-47.3591 124.816,-32.9388 94.3494,-22.7831"/>
<polygon fill="midnightblue" stroke="midnightblue" points="95.1429,-19.3584 84.5493,-19.5164 92.9293,-25.9992 95.1429,-19.3584"/>
</g>
<!-- Node6 -->
<g id="node6" class="node"><title>Node6</title>
<polygon fill="white" stroke="#bfbfbf" points="136,-0.5 136,-19.5 188,-19.5 188,-0.5 136,-0.5"/>
<text text-anchor="middle" x="162" y="-7.5" font-family="Helvetica,sans-Serif" font-size="10.00">ostream</text>
</g>
<!-- Node5&#45;&gt;Node6 -->
<g id="edge5" class="edge"><title>Node5&#45;&gt;Node6</title>
<path fill="none" stroke="midnightblue" d="M211.521,-56.324C202.799,-48.3414 189.657,-36.3128 179.102,-26.6529"/>
<polygon fill="midnightblue" stroke="midnightblue" points="181.392,-24.0036 171.652,-19.8339 176.666,-29.1674 181.392,-24.0036"/>
</g>
<!-- Node7 -->
<g id="node7" class="node"><title>Node7</title>
<polygon fill="white" stroke="#bfbfbf" points="206.5,-0.5 206.5,-19.5 235.5,-19.5 235.5,-0.5 206.5,-0.5"/>
<text text-anchor="middle" x="221" y="-7.5" font-family="Helvetica,sans-Serif" font-size="10.00">list</text>
</g>
<!-- Node5&#45;&gt;Node7 -->
<g id="edge6" class="edge"><title>Node5&#45;&gt;Node7</title>
<path fill="none" stroke="midnightblue" d="M221,-56.083C221,-49.0059 221,-38.8611 221,-29.9865"/>
<polygon fill="midnightblue" stroke="midnightblue" points="224.5,-29.751 221,-19.7511 217.5,-29.7511 224.5,-29.751"/>
</g>
<!-- Node8 -->
<g id="node8" class="node"><title>Node8</title>
<polygon fill="white" stroke="#bfbfbf" points="253,-0.5 253,-19.5 309,-19.5 309,-0.5 253,-0.5"/>
<text text-anchor="middle" x="281" y="-7.5" font-family="Helvetica,sans-Serif" font-size="10.00">algorithm</text>
</g>
<!-- Node5&#45;&gt;Node8 -->
<g id="edge7" class="edge"><title>Node5&#45;&gt;Node8</title>
<path fill="none" stroke="midnightblue" d="M230.64,-56.324C239.51,-48.3414 252.875,-36.3128 263.608,-26.6529"/>
<polygon fill="midnightblue" stroke="midnightblue" points="266.093,-29.1251 271.185,-19.8339 261.41,-23.922 266.093,-29.1251"/>
</g>
<!-- Node5&#45;&gt;Node9 -->
<g id="edge9" class="edge"><title>Node5&#45;&gt;Node9</title>
<path fill="none" stroke="midnightblue" d="M246.194,-56.4435C272.943,-47.3591 315.403,-32.9388 345.305,-22.7831"/>
<polygon fill="midnightblue" stroke="midnightblue" points="346.581,-26.0464 354.924,-19.5164 344.329,-19.4182 346.581,-26.0464"/>
</g>
</g>
</svg>
