<?xml version="1.0" encoding="UTF-8" standalone="no"?>
<!DOCTYPE svg PUBLIC "-//W3C//DTD SVG 1.1//EN"
 "http://www.w3.org/Graphics/SVG/1.1/DTD/svg11.dtd">
<!-- Generated by graphviz version 2.36.0 (20140111.2315)
 -->
<!-- Title: hpp::statistics::SuccessBin Pages: 1 -->
<svg width="248pt" height="246pt"
 viewBox="0.00 0.00 248.00 246.00" xmlns="http://www.w3.org/2000/svg" xmlns:xlink="http://www.w3.org/1999/xlink">
<g id="graph0" class="graph" transform="scale(1 1) rotate(0) translate(4 242)">
<title>hpp::statistics::SuccessBin</title>
<polygon fill="white" stroke="none" points="-4,4 -4,-242 244,-242 244,4 -4,4"/>
<!-- Node1 -->
<g id="node1" class="node"><title>Node1</title>
<polygon fill="#bfbfbf" stroke="black" points="19.5,-0.5 19.5,-19.5 156.5,-19.5 156.5,-0.5 19.5,-0.5"/>
<text text-anchor="middle" x="88" y="-7.5" font-family="Helvetica,sans-Serif" font-size="10.00">hpp::statistics::SuccessBin</text>
</g>
<!-- Node2 -->
<g id="node2" class="node"><title>Node2</title>
<g id="a_node2"><a xlink:href="a00001.html" target="_top" xlink:title="Abstract class representing a bin. ">
<polygon fill="white" stroke="black" points="-1,-74.5 -1,-93.5 97,-93.5 97,-74.5 -1,-74.5"/>
<text text-anchor="middle" x="48" y="-81.5" font-family="Helvetica,sans-Serif" font-size="10.00">hpp::statistics::Bin</text>
</a>
</g>
</g>
<!-- Node2&#45;&gt;Node1 -->
<g id="edge1" class="edge"><title>Node2&#45;&gt;Node1</title>
<path fill="none" stroke="midnightblue" d="M57.761,-65.4302C65.8537,-50.8634 77.0089,-30.784 83.2606,-19.531"/>
<polygon fill="midnightblue" stroke="midnightblue" points="54.5425,-64.0166 52.7456,-74.4579 60.6616,-67.4161 54.5425,-64.0166"/>
</g>
<!-- Node3 -->
<g id="node3" class="node"><title>Node3</title>
<g id="a_node3"><a xlink:href="a00004.html" target="_top" xlink:title="In case of failure, you can provide a reason. ">
<polygon fill="white" stroke="black" points="115,-69 115,-99 237,-99 237,-69 115,-69"/>
<text text-anchor="start" x="123" y="-87" font-family="Helvetica,sans-Serif" font-size="10.00">hpp::statistics::Success</text>
<text text-anchor="middle" x="176" y="-76" font-family="Helvetica,sans-Serif" font-size="10.00">Bin::Reason</text>
</a>
</g>
</g>
<!-- Node3&#45;&gt;Node1 -->
<g id="edge2" class="edge"><title>Node3&#45;&gt;Node1</title>
<path fill="none" stroke="#9a32cd" stroke-dasharray="5,2" d="M150.597,-62.2158C133.382,-48.1309 111.513,-30.2378 98.7053,-19.7589"/>
<polygon fill="#9a32cd" stroke="#9a32cd" points="148.658,-65.1516 158.614,-68.7751 153.091,-59.7338 148.658,-65.1516"/>
<text text-anchor="middle" x="187" y="-41.5" font-family="Helvetica,sans-Serif" font-size="10.00"> REASON_UNKNOWN</text>
</g>
<!-- Node4 -->
<g id="node4" class="node"><title>Node4</title>
<g id="a_node4"><a xlink:title="STL class. ">
<polygon fill="white" stroke="#bfbfbf" points="146,-148.5 146,-167.5 206,-167.5 206,-148.5 146,-148.5"/>
<text text-anchor="middle" x="176" y="-155.5" font-family="Helvetica,sans-Serif" font-size="10.00">std::string</text>
</a>
</g>
</g>
<!-- Node4&#45;&gt;Node3 -->
<g id="edge3" class="edge"><title>Node4&#45;&gt;Node3</title>
<path fill="none" stroke="#9a32cd" stroke-dasharray="5,2" d="M176,-138.085C176,-125.915 176,-110.354 176,-99.2316"/>
<polygon fill="#9a32cd" stroke="#9a32cd" points="172.5,-138.458 176,-148.458 179.5,-138.458 172.5,-138.458"/>
<text text-anchor="middle" x="188.5" y="-121.5" font-family="Helvetica,sans-Serif" font-size="10.00"> what</text>
</g>
<!-- Node5 -->
<g id="node5" class="node"><title>Node5</title>
<g id="a_node5"><a xlink:title="STL class. ">
<polygon fill="white" stroke="#bfbfbf" points="128.5,-207 128.5,-237 223.5,-237 223.5,-207 128.5,-207"/>
<text text-anchor="start" x="136.5" y="-225" font-family="Helvetica,sans-Serif" font-size="10.00">std::basic_string&lt;</text>
<text text-anchor="middle" x="176" y="-214" font-family="Helvetica,sans-Serif" font-size="10.00"> char &gt;</text>
</a>
</g>
</g>
<!-- Node5&#45;&gt;Node4 -->
<g id="edge4" class="edge"><title>Node5&#45;&gt;Node4</title>
<path fill="none" stroke="midnightblue" d="M176,-196.871C176,-186.663 176,-175.408 176,-167.842"/>
<polygon fill="midnightblue" stroke="midnightblue" points="172.5,-196.931 176,-206.931 179.5,-196.931 172.5,-196.931"/>
</g>
</g>
</svg>
