<?xml version="1.0" encoding="UTF-8" standalone="no"?>
<!DOCTYPE svg PUBLIC "-//W3C//DTD SVG 1.1//EN"
 "http://www.w3.org/Graphics/SVG/1.1/DTD/svg11.dtd">
<!-- Generated by graphviz version 2.36.0 (20140111.2315)
 -->
<!-- Title: fwd.hh Pages: 1 -->
<svg width="371pt" height="140pt"
 viewBox="0.00 0.00 371.00 140.00" xmlns="http://www.w3.org/2000/svg" xmlns:xlink="http://www.w3.org/1999/xlink">
<g id="graph0" class="graph" transform="scale(1 1) rotate(0) translate(4 136)">
<title>fwd.hh</title>
<polygon fill="white" stroke="none" points="-4,4 -4,-136 367,-136 367,4 -4,4"/>
<!-- Node1 -->
<g id="node1" class="node"><title>Node1</title>
<polygon fill="#bfbfbf" stroke="black" points="133,-112.5 133,-131.5 179,-131.5 179,-112.5 133,-112.5"/>
<text text-anchor="middle" x="156" y="-119.5" font-family="Helvetica,sans-Serif" font-size="10.00">fwd.hh</text>
</g>
<!-- Node2 -->
<g id="node2" class="node"><title>Node2</title>
<g id="a_node2"><a xlink:href="a00009.html" target="_top" xlink:title="bin.hh">
<polygon fill="white" stroke="black" points="84.5,-56.5 84.5,-75.5 127.5,-75.5 127.5,-56.5 84.5,-56.5"/>
<text text-anchor="middle" x="106" y="-63.5" font-family="Helvetica,sans-Serif" font-size="10.00">bin.hh</text>
</a>
</g>
</g>
<!-- Node1&#45;&gt;Node2 -->
<g id="edge1" class="edge"><title>Node1&#45;&gt;Node2</title>
<path fill="none" stroke="midnightblue" d="M140.924,-104.718C132.111,-95.1997 121.334,-83.5608 114.103,-75.7511"/>
<polygon fill="midnightblue" stroke="midnightblue" points="138.381,-107.123 147.744,-112.083 143.518,-102.367 138.381,-107.123"/>
</g>
<!-- Node3 -->
<g id="node3" class="node"><title>Node3</title>
<g id="a_node3"><a xlink:href="a00013.html" target="_top" xlink:title="success&#45;bin.hh">
<polygon fill="white" stroke="black" points="-0.5,-0.5 -0.5,-19.5 82.5,-19.5 82.5,-0.5 -0.5,-0.5"/>
<text text-anchor="middle" x="41" y="-7.5" font-family="Helvetica,sans-Serif" font-size="10.00">success&#45;bin.hh</text>
</a>
</g>
</g>
<!-- Node1&#45;&gt;Node3 -->
<g id="edge5" class="edge"><title>Node1&#45;&gt;Node3</title>
<path fill="none" stroke="midnightblue" d="M123.15,-108.11C107.142,-100.586 88.4862,-89.8298 75,-76 58.6402,-59.2233 48.2331,-32.984 43.6733,-19.5515"/>
<polygon fill="midnightblue" stroke="midnightblue" points="122.148,-111.495 132.706,-112.375 125.001,-105.103 122.148,-111.495"/>
</g>
<!-- Node4 -->
<g id="node4" class="node"><title>Node4</title>
<g id="a_node4"><a xlink:href="a00014.html" target="_top" xlink:title="success&#45;failure&#45;count.hh">
<polygon fill="white" stroke="black" points="100.5,-0.5 100.5,-19.5 223.5,-19.5 223.5,-0.5 100.5,-0.5"/>
<text text-anchor="middle" x="162" y="-7.5" font-family="Helvetica,sans-Serif" font-size="10.00">success&#45;failure&#45;count.hh</text>
</a>
</g>
</g>
<!-- Node1&#45;&gt;Node4 -->
<g id="edge6" class="edge"><title>Node1&#45;&gt;Node4</title>
<path fill="none" stroke="midnightblue" d="M157.017,-102.348C158.332,-78.2538 160.565,-37.3079 161.531,-19.5914"/>
<polygon fill="midnightblue" stroke="midnightblue" points="153.521,-102.193 156.471,-112.368 160.51,-102.574 153.521,-102.193"/>
</g>
<!-- Node5 -->
<g id="node5" class="node"><title>Node5</title>
<g id="a_node5"><a xlink:href="a00010.html" target="_top" xlink:title="distribution.hh">
<polygon fill="white" stroke="black" points="184.5,-56.5 184.5,-75.5 261.5,-75.5 261.5,-56.5 184.5,-56.5"/>
<text text-anchor="middle" x="223" y="-63.5" font-family="Helvetica,sans-Serif" font-size="10.00">distribution.hh</text>
</a>
</g>
</g>
<!-- Node1&#45;&gt;Node5 -->
<g id="edge4" class="edge"><title>Node1&#45;&gt;Node5</title>
<path fill="none" stroke="midnightblue" d="M174.835,-105.82C186.838,-96.1452 201.972,-83.9481 212.039,-75.8339"/>
<polygon fill="midnightblue" stroke="midnightblue" points="172.354,-103.324 166.765,-112.324 176.747,-108.774 172.354,-103.324"/>
</g>
<!-- Node6 -->
<g id="node6" class="node"><title>Node6</title>
<g id="a_node6"><a xlink:href="a00015.html" target="_top" xlink:title="time&#45;counter.hh">
<polygon fill="white" stroke="black" points="280,-56.5 280,-75.5 364,-75.5 364,-56.5 280,-56.5"/>
<text text-anchor="middle" x="322" y="-63.5" font-family="Helvetica,sans-Serif" font-size="10.00">time&#45;counter.hh</text>
</a>
</g>
</g>
<!-- Node1&#45;&gt;Node6 -->
<g id="edge7" class="edge"><title>Node1&#45;&gt;Node6</title>
<path fill="none" stroke="midnightblue" d="M188.685,-110.367C220.062,-100.161 266.846,-84.9417 295.834,-75.5118"/>
<polygon fill="midnightblue" stroke="midnightblue" points="187.508,-107.07 179.082,-113.492 189.674,-113.726 187.508,-107.07"/>
</g>
<!-- Node2&#45;&gt;Node3 -->
<g id="edge2" class="edge"><title>Node2&#45;&gt;Node3</title>
<path fill="none" stroke="midnightblue" d="M87.7274,-49.8197C76.0822,-40.1452 61.4005,-27.9481 51.6334,-19.8339"/>
<polygon fill="midnightblue" stroke="midnightblue" points="85.6281,-52.6259 95.5566,-56.324 90.1013,-47.2416 85.6281,-52.6259"/>
</g>
<!-- Node2&#45;&gt;Node4 -->
<g id="edge3" class="edge"><title>Node2&#45;&gt;Node4</title>
<path fill="none" stroke="midnightblue" d="M122.33,-49.2533C132.265,-39.6731 144.588,-27.7906 152.839,-19.8339"/>
<polygon fill="midnightblue" stroke="midnightblue" points="119.766,-46.8631 114.997,-56.324 124.625,-51.902 119.766,-46.8631"/>
</g>
</g>
</svg>
