<?xml version="1.0" encoding="UTF-8" standalone="no"?>
<!DOCTYPE svg PUBLIC "-//W3C//DTD SVG 1.1//EN"
 "http://www.w3.org/Graphics/SVG/1.1/DTD/svg11.dtd">
<!-- Generated by graphviz version 2.36.0 (20140111.2315)
 -->
<!-- Title: hpp::statistics::Bin Pages: 1 -->
<svg width="281pt" height="84pt"
 viewBox="0.00 0.00 281.00 84.00" xmlns="http://www.w3.org/2000/svg" xmlns:xlink="http://www.w3.org/1999/xlink">
<g id="graph0" class="graph" transform="scale(1 1) rotate(0) translate(4 80)">
<title>hpp::statistics::Bin</title>
<polygon fill="white" stroke="none" points="-4,4 -4,-80 277,-80 277,4 -4,4"/>
<!-- Node1 -->
<g id="node1" class="node"><title>Node1</title>
<polygon fill="#bfbfbf" stroke="black" points="83,-56.5 83,-75.5 181,-75.5 181,-56.5 83,-56.5"/>
<text text-anchor="middle" x="132" y="-63.5" font-family="Helvetica,sans-Serif" font-size="10.00">hpp::statistics::Bin</text>
</g>
<!-- Node2 -->
<g id="node2" class="node"><title>Node2</title>
<g id="a_node2"><a xlink:href="a00003.html" target="_top" xlink:title="hpp::statistics::Reason">
<polygon fill="white" stroke="black" points="0,-0.5 0,-19.5 118,-19.5 118,-0.5 0,-0.5"/>
<text text-anchor="middle" x="59" y="-7.5" font-family="Helvetica,sans-Serif" font-size="10.00">hpp::statistics::Reason</text>
</a>
</g>
</g>
<!-- Node1&#45;&gt;Node2 -->
<g id="edge1" class="edge"><title>Node1&#45;&gt;Node2</title>
<path fill="none" stroke="midnightblue" d="M111.858,-50.1008C98.7207,-40.3824 82.0179,-28.0269 70.9421,-19.8339"/>
<polygon fill="midnightblue" stroke="midnightblue" points="110.15,-53.1907 120.271,-56.324 114.313,-47.5631 110.15,-53.1907"/>
</g>
<!-- Node3 -->
<g id="node3" class="node"><title>Node3</title>
<g id="a_node3"><a xlink:href="a00006.html" target="_top" xlink:title="This class count the number of success and failure. ">
<polygon fill="white" stroke="black" points="136.5,-0.5 136.5,-19.5 273.5,-19.5 273.5,-0.5 136.5,-0.5"/>
<text text-anchor="middle" x="205" y="-7.5" font-family="Helvetica,sans-Serif" font-size="10.00">hpp::statistics::SuccessBin</text>
</a>
</g>
</g>
<!-- Node1&#45;&gt;Node3 -->
<g id="edge2" class="edge"><title>Node1&#45;&gt;Node3</title>
<path fill="none" stroke="midnightblue" d="M152.142,-50.1008C165.279,-40.3824 181.982,-28.0269 193.058,-19.8339"/>
<polygon fill="midnightblue" stroke="midnightblue" points="149.687,-47.5631 143.729,-56.324 153.85,-53.1907 149.687,-47.5631"/>
</g>
</g>
</svg>
