<?xml version="1.0" encoding="UTF-8" standalone="no"?>
<!DOCTYPE svg PUBLIC "-//W3C//DTD SVG 1.1//EN"
 "http://www.w3.org/Graphics/SVG/1.1/DTD/svg11.dtd">
<!-- Generated by graphviz version 2.36.0 (20140111.2315)
 -->
<!-- Title: Graphical Class Hierarchy Pages: 1 -->
<svg width="292pt" height="38pt"
 viewBox="0.00 0.00 292.00 38.00" xmlns="http://www.w3.org/2000/svg" xmlns:xlink="http://www.w3.org/1999/xlink">
<g id="graph0" class="graph" transform="scale(1 1) rotate(0) translate(4 34)">
<title>Graphical Class Hierarchy</title>
<polygon fill="white" stroke="none" points="-4,4 -4,-34 288,-34 288,4 -4,4"/>
<!-- Node1 -->
<g id="node1" class="node"><title>Node1</title>
<g id="a_node1"><a xlink:href="a00005.html" target="_top" xlink:title="hpp::statistics::Statistics\l\&lt; SuccessBin \&gt;">
<polygon fill="white" stroke="black" points="0.5,-0 0.5,-30 125.5,-30 125.5,-0 0.5,-0"/>
<text text-anchor="start" x="8.5" y="-18" font-family="Helvetica,sans-Serif" font-size="10.00">hpp::statistics::Statistics</text>
<text text-anchor="middle" x="63" y="-7" font-family="Helvetica,sans-Serif" font-size="10.00">&lt; SuccessBin &gt;</text>
</a>
</g>
</g>
<!-- Node2 -->
<g id="node2" class="node"><title>Node2</title>
<g id="a_node2"><a xlink:href="a00007.html" target="_top" xlink:title="hpp::statistics::Success\lStatistics">
<polygon fill="white" stroke="black" points="162,-0 162,-30 284,-30 284,-0 162,-0"/>
<text text-anchor="start" x="170" y="-18" font-family="Helvetica,sans-Serif" font-size="10.00">hpp::statistics::Success</text>
<text text-anchor="middle" x="223" y="-7" font-family="Helvetica,sans-Serif" font-size="10.00">Statistics</text>
</a>
</g>
</g>
<!-- Node1&#45;&gt;Node2 -->
<g id="edge1" class="edge"><title>Node1&#45;&gt;Node2</title>
<path fill="none" stroke="midnightblue" d="M135.736,-15C144.491,-15 153.366,-15 161.925,-15"/>
<polygon fill="midnightblue" stroke="midnightblue" points="135.539,-11.5001 125.539,-15 135.539,-18.5001 135.539,-11.5001"/>
</g>
</g>
</svg>
