<?xml version="1.0" encoding="UTF-8" standalone="no"?>
<!DOCTYPE svg PUBLIC "-//W3C//DTD SVG 1.1//EN"
 "http://www.w3.org/Graphics/SVG/1.1/DTD/svg11.dtd">
<!-- Generated by graphviz version 2.36.0 (20140111.2315)
 -->
<!-- Title: util.hh Pages: 1 -->
<svg width="839pt" height="444pt"
 viewBox="0.00 0.00 839.42 444.00" xmlns="http://www.w3.org/2000/svg" xmlns:xlink="http://www.w3.org/1999/xlink">
<g id="graph0" class="graph" transform="scale(1 1) rotate(0) translate(4 440)">
<title>util.hh</title>
<polygon fill="white" stroke="none" points="-4,4 -4,-440 835.42,-440 835.42,4 -4,4"/>
<!-- Node1 -->
<g id="node1" class="node"><title>Node1</title>
<polygon fill="#bfbfbf" stroke="black" points="529.5,-416.5 529.5,-435.5 572.5,-435.5 572.5,-416.5 529.5,-416.5"/>
<text text-anchor="middle" x="551" y="-423.5" font-family="Helvetica,sans-Serif" font-size="10.00">util.hh</text>
</g>
<!-- Node2 -->
<g id="node2" class="node"><title>Node2</title>
<g id="a_node2"><a xlink:href="a00005.html" target="_top" xlink:title="hpp/model/urdf/parser.hh">
<polygon fill="white" stroke="black" points="381.5,-304.5 381.5,-323.5 506.5,-323.5 506.5,-304.5 381.5,-304.5"/>
<text text-anchor="middle" x="444" y="-311.5" font-family="Helvetica,sans-Serif" font-size="10.00">hpp/model/urdf/parser.hh</text>
</a>
</g>
</g>
<!-- Node1&#45;&gt;Node2 -->
<g id="edge1" class="edge"><title>Node1&#45;&gt;Node2</title>
<path fill="none" stroke="midnightblue" d="M542.604,-416.368C524.711,-397.974 482.589,-354.671 459.614,-331.052"/>
<polygon fill="midnightblue" stroke="midnightblue" points="461.839,-328.319 452.357,-323.591 456.821,-333.2 461.839,-328.319"/>
</g>
<!-- Node17 -->
<g id="node17" class="node"><title>Node17</title>
<g id="a_node17"><a xlink:href="a00004.html" target="_top" xlink:title="hpp/model/srdf/parser.hh">
<polygon fill="white" stroke="black" points="542.5,-360.5 542.5,-379.5 667.5,-379.5 667.5,-360.5 542.5,-360.5"/>
<text text-anchor="middle" x="605" y="-367.5" font-family="Helvetica,sans-Serif" font-size="10.00">hpp/model/srdf/parser.hh</text>
</a>
</g>
</g>
<!-- Node1&#45;&gt;Node17 -->
<g id="edge25" class="edge"><title>Node1&#45;&gt;Node17</title>
<path fill="none" stroke="midnightblue" d="M559.917,-416.083C567.78,-408.22 579.431,-396.569 588.919,-387.081"/>
<polygon fill="midnightblue" stroke="midnightblue" points="591.653,-389.297 596.249,-379.751 586.703,-384.347 591.653,-389.297"/>
</g>
<!-- Node3 -->
<g id="node3" class="node"><title>Node3</title>
<polygon fill="white" stroke="#bfbfbf" points="659.5,-248.5 659.5,-267.5 700.5,-267.5 700.5,-248.5 659.5,-248.5"/>
<text text-anchor="middle" x="680" y="-255.5" font-family="Helvetica,sans-Serif" font-size="10.00">string</text>
</g>
<!-- Node2&#45;&gt;Node3 -->
<g id="edge2" class="edge"><title>Node2&#45;&gt;Node3</title>
<path fill="none" stroke="midnightblue" d="M487.632,-304.477C527.361,-296.49 587.831,-283.775 649.497,-267.968"/>
<polygon fill="midnightblue" stroke="midnightblue" points="650.597,-271.299 659.401,-265.405 648.843,-264.522 650.597,-271.299"/>
</g>
<!-- Node4 -->
<g id="node4" class="node"><title>Node4</title>
<polygon fill="white" stroke="#bfbfbf" points="606.5,-248.5 606.5,-267.5 641.5,-267.5 641.5,-248.5 606.5,-248.5"/>
<text text-anchor="middle" x="624" y="-255.5" font-family="Helvetica,sans-Serif" font-size="10.00">map</text>
</g>
<!-- Node2&#45;&gt;Node4 -->
<g id="edge3" class="edge"><title>Node2&#45;&gt;Node4</title>
<path fill="none" stroke="midnightblue" d="M472.522,-304.444C506.66,-294.202 563.404,-277.179 596.9,-267.13"/>
<polygon fill="midnightblue" stroke="midnightblue" points="597.925,-270.477 606.498,-264.251 595.914,-263.772 597.925,-270.477"/>
</g>
<!-- Node5 -->
<g id="node5" class="node"><title>Node5</title>
<polygon fill="white" stroke="#bfbfbf" points="478.5,-248.5 478.5,-267.5 549.5,-267.5 549.5,-248.5 478.5,-248.5"/>
<text text-anchor="middle" x="514" y="-255.5" font-family="Helvetica,sans-Serif" font-size="10.00">urdf/model.h</text>
</g>
<!-- Node2&#45;&gt;Node5 -->
<g id="edge4" class="edge"><title>Node2&#45;&gt;Node5</title>
<path fill="none" stroke="midnightblue" d="M455.247,-304.324C465.797,-296.185 481.801,-283.839 494.442,-274.087"/>
<polygon fill="midnightblue" stroke="midnightblue" points="496.769,-276.713 502.549,-267.834 492.493,-271.171 496.769,-276.713"/>
</g>
<!-- Node6 -->
<g id="node6" class="node"><title>Node6</title>
<polygon fill="white" stroke="#bfbfbf" points="-1,-248.5 -1,-267.5 115,-267.5 115,-248.5 -1,-248.5"/>
<text text-anchor="middle" x="57" y="-255.5" font-family="Helvetica,sans-Serif" font-size="10.00">hpp/fcl/BV/OBBRSS.h</text>
</g>
<!-- Node2&#45;&gt;Node6 -->
<g id="edge5" class="edge"><title>Node2&#45;&gt;Node6</title>
<path fill="none" stroke="midnightblue" d="M382.679,-304.444C312.553,-294.659 198.062,-278.683 125.185,-268.514"/>
<polygon fill="midnightblue" stroke="midnightblue" points="125.575,-265.035 115.187,-267.119 124.608,-271.968 125.575,-265.035"/>
</g>
<!-- Node7 -->
<g id="node7" class="node"><title>Node7</title>
<polygon fill="white" stroke="#bfbfbf" points="133,-248.5 133,-267.5 267,-267.5 267,-248.5 133,-248.5"/>
<text text-anchor="middle" x="200" y="-255.5" font-family="Helvetica,sans-Serif" font-size="10.00">hpp/fcl/BVH/BVH_model.h</text>
</g>
<!-- Node2&#45;&gt;Node7 -->
<g id="edge6" class="edge"><title>Node2&#45;&gt;Node7</title>
<path fill="none" stroke="midnightblue" d="M405.337,-304.444C362.862,-295.043 294.569,-279.929 248.526,-269.739"/>
<polygon fill="midnightblue" stroke="midnightblue" points="249.002,-266.26 238.482,-267.516 247.489,-273.095 249.002,-266.26"/>
</g>
<!-- Node8 -->
<g id="node8" class="node"><title>Node8</title>
<g id="a_node8"><a doxygen="https://jmirabel.github.io/hpp-doc/api/hpp-model/doxygen-html/hpp-model.doxytag:https://jmirabel.github.io/hpp-doc/api/hpp-model/doxygen-html/" xlink:href="https://jmirabel.github.io/hpp-doc/api/hpp-model/doxygen-html/a00027.html" target="_top" xlink:title="hpp/model/body.hh">
<polygon fill="white" stroke="black" points="264.5,-186.5 264.5,-205.5 363.5,-205.5 363.5,-186.5 264.5,-186.5"/>
<text text-anchor="middle" x="314" y="-193.5" font-family="Helvetica,sans-Serif" font-size="10.00">hpp/model/body.hh</text>
</a>
</g>
</g>
<!-- Node2&#45;&gt;Node8 -->
<g id="edge7" class="edge"><title>Node2&#45;&gt;Node8</title>
<path fill="none" stroke="midnightblue" d="M381.265,-306.908C356.099,-301.025 329.446,-289.692 314,-268 303.299,-252.972 305.111,-231.247 308.462,-215.793"/>
<polygon fill="midnightblue" stroke="midnightblue" points="311.922,-216.389 311.017,-205.833 305.142,-214.65 311.922,-216.389"/>
</g>
<!-- Node14 -->
<g id="node14" class="node"><title>Node14</title>
<g id="a_node14"><a doxygen="https://jmirabel.github.io/hpp-doc/api/hpp-model/doxygen-html/hpp-model.doxytag:https://jmirabel.github.io/hpp-doc/api/hpp-model/doxygen-html/" xlink:href="https://jmirabel.github.io/hpp-doc/api/hpp-model/doxygen-html/a00039.html" target="_top" xlink:title="hpp/model/humanoid\l&#45;robot.hh">
<polygon fill="white" stroke="black" points="524.5,-181 524.5,-211 631.5,-211 631.5,-181 524.5,-181"/>
<text text-anchor="start" x="532.5" y="-199" font-family="Helvetica,sans-Serif" font-size="10.00">hpp/model/humanoid</text>
<text text-anchor="middle" x="578" y="-188" font-family="Helvetica,sans-Serif" font-size="10.00">&#45;robot.hh</text>
</a>
</g>
</g>
<!-- Node2&#45;&gt;Node14 -->
<g id="edge17" class="edge"><title>Node2&#45;&gt;Node14</title>
<path fill="none" stroke="midnightblue" d="M491.844,-304.435C514.765,-298.018 540.883,-286.946 558,-268 569.537,-255.23 574.472,-236.303 576.558,-221.201"/>
<polygon fill="midnightblue" stroke="midnightblue" points="580.064,-221.334 577.627,-211.023 573.102,-220.603 580.064,-221.334"/>
</g>
<!-- Node15 -->
<g id="node15" class="node"><title>Node15</title>
<g id="a_node15"><a doxygen="https://jmirabel.github.io/hpp-doc/api/hpp-model/doxygen-html/hpp-model.doxytag:https://jmirabel.github.io/hpp-doc/api/hpp-model/doxygen-html/" xlink:href="https://jmirabel.github.io/hpp-doc/api/hpp-model/doxygen-html/a00043.html" target="_top" xlink:title="hpp/model/object&#45;factory.hh">
<polygon fill="white" stroke="black" points="323.5,-248.5 323.5,-267.5 460.5,-267.5 460.5,-248.5 323.5,-248.5"/>
<text text-anchor="middle" x="392" y="-255.5" font-family="Helvetica,sans-Serif" font-size="10.00">hpp/model/object&#45;factory.hh</text>
</a>
</g>
</g>
<!-- Node2&#45;&gt;Node15 -->
<g id="edge20" class="edge"><title>Node2&#45;&gt;Node15</title>
<path fill="none" stroke="midnightblue" d="M435.413,-304.083C427.841,-296.22 416.622,-284.569 407.486,-275.081"/>
<polygon fill="midnightblue" stroke="midnightblue" points="409.885,-272.527 400.427,-267.751 404.842,-277.382 409.885,-272.527"/>
</g>
<!-- Node9 -->
<g id="node9" class="node"><title>Node9</title>
<g id="a_node9"><a doxygen="https://jmirabel.github.io/hpp-doc/api/hpp-model/doxygen-html/hpp-model.doxytag:https://jmirabel.github.io/hpp-doc/api/hpp-model/doxygen-html/" xlink:href="https://jmirabel.github.io/hpp-doc/api/hpp-model/doxygen-html/a00037.html" target="_top" xlink:title="hpp/model/fwd.hh">
<polygon fill="white" stroke="black" points="422,-0.5 422,-19.5 516,-19.5 516,-0.5 422,-0.5"/>
<text text-anchor="middle" x="469" y="-7.5" font-family="Helvetica,sans-Serif" font-size="10.00">hpp/model/fwd.hh</text>
</a>
</g>
</g>
<!-- Node8&#45;&gt;Node9 -->
<g id="edge8" class="edge"><title>Node8&#45;&gt;Node9</title>
<path fill="none" stroke="midnightblue" d="M315.355,-186.312C317.74,-172.533 323.461,-145.075 334,-124 351.017,-89.9716 357.082,-80.7241 386,-56 401.622,-42.6436 421.853,-31.5754 438.43,-23.7581"/>
<polygon fill="midnightblue" stroke="midnightblue" points="440.053,-26.8651 447.706,-19.5383 437.154,-20.4934 440.053,-26.8651"/>
</g>
<!-- Node10 -->
<g id="node10" class="node"><title>Node10</title>
<g id="a_node10"><a doxygen="https://jmirabel.github.io/hpp-doc/api/hpp-model/doxygen-html/hpp-model.doxytag:https://jmirabel.github.io/hpp-doc/api/hpp-model/doxygen-html/" xlink:href="https://jmirabel.github.io/hpp-doc/api/hpp-model/doxygen-html/a00033.html" target="_top" xlink:title="hpp/model/device.hh">
<polygon fill="white" stroke="black" points="491.5,-124.5 491.5,-143.5 598.5,-143.5 598.5,-124.5 491.5,-124.5"/>
<text text-anchor="middle" x="545" y="-131.5" font-family="Helvetica,sans-Serif" font-size="10.00">hpp/model/device.hh</text>
</a>
</g>
</g>
<!-- Node8&#45;&gt;Node10 -->
<g id="edge9" class="edge"><title>Node8&#45;&gt;Node10</title>
<path fill="none" stroke="midnightblue" d="M347.097,-186.403C387.922,-175.799 457.408,-157.751 502.239,-146.107"/>
<polygon fill="midnightblue" stroke="midnightblue" points="503.166,-149.482 511.965,-143.581 501.406,-142.707 503.166,-149.482"/>
</g>
<!-- Node10&#45;&gt;Node9 -->
<g id="edge10" class="edge"><title>Node10&#45;&gt;Node9</title>
<path fill="none" stroke="midnightblue" d="M491.325,-129.909C461.908,-125.142 427.715,-113.905 409,-88 400.671,-76.4715 402.64,-68.7207 409,-56 415.728,-42.5432 428.606,-32.0665 440.712,-24.6212"/>
<polygon fill="midnightblue" stroke="midnightblue" points="442.733,-27.4985 449.704,-19.5195 439.279,-21.4101 442.733,-27.4985"/>
</g>
<!-- Node11 -->
<g id="node11" class="node"><title>Node11</title>
<g id="a_node11"><a doxygen="https://jmirabel.github.io/hpp-doc/api/hpp-model/doxygen-html/hpp-model.doxytag:https://jmirabel.github.io/hpp-doc/api/hpp-model/doxygen-html/" xlink:href="https://jmirabel.github.io/hpp-doc/api/hpp-model/doxygen-html/a00034.html" target="_top" xlink:title="hpp/model/distance\l&#45;result.hh">
<polygon fill="white" stroke="black" points="418.5,-57 418.5,-87 519.5,-87 519.5,-57 418.5,-57"/>
<text text-anchor="start" x="426.5" y="-75" font-family="Helvetica,sans-Serif" font-size="10.00">hpp/model/distance</text>
<text text-anchor="middle" x="469" y="-64" font-family="Helvetica,sans-Serif" font-size="10.00">&#45;result.hh</text>
</a>
</g>
</g>
<!-- Node10&#45;&gt;Node11 -->
<g id="edge11" class="edge"><title>Node10&#45;&gt;Node11</title>
<path fill="none" stroke="midnightblue" d="M534.111,-124.403C523.914,-116.353 508.283,-104.013 494.891,-93.4406"/>
<polygon fill="midnightblue" stroke="midnightblue" points="496.929,-90.5902 486.912,-87.1408 492.592,-96.0844 496.929,-90.5902"/>
</g>
<!-- Node12 -->
<g id="node12" class="node"><title>Node12</title>
<g id="a_node12"><a doxygen="https://jmirabel.github.io/hpp-doc/api/hpp-model/doxygen-html/hpp-model.doxytag:https://jmirabel.github.io/hpp-doc/api/hpp-model/doxygen-html/" xlink:href="https://jmirabel.github.io/hpp-doc/api/hpp-model/doxygen-html/a00035.html" target="_top" xlink:title="hpp/model/extra&#45;config\l&#45;space.hh">
<polygon fill="white" stroke="black" points="538,-57 538,-87 654,-87 654,-57 538,-57"/>
<text text-anchor="start" x="546" y="-75" font-family="Helvetica,sans-Serif" font-size="10.00">hpp/model/extra&#45;config</text>
<text text-anchor="middle" x="596" y="-64" font-family="Helvetica,sans-Serif" font-size="10.00">&#45;space.hh</text>
</a>
</g>
</g>
<!-- Node10&#45;&gt;Node12 -->
<g id="edge13" class="edge"><title>Node10&#45;&gt;Node12</title>
<path fill="none" stroke="midnightblue" d="M552.307,-124.403C558.827,-116.733 568.658,-105.167 577.344,-94.9478"/>
<polygon fill="midnightblue" stroke="midnightblue" points="580.171,-97.027 583.98,-87.1408 574.837,-92.4934 580.171,-97.027"/>
</g>
<!-- Node13 -->
<g id="node13" class="node"><title>Node13</title>
<g id="a_node13"><a doxygen="https://jmirabel.github.io/hpp-doc/api/hpp-model/doxygen-html/hpp-model.doxytag:https://jmirabel.github.io/hpp-doc/api/hpp-model/doxygen-html/" xlink:href="https://jmirabel.github.io/hpp-doc/api/hpp-model/doxygen-html/a00044.html" target="_top" xlink:title="hpp/model/object&#45;iterator.hh">
<polygon fill="white" stroke="black" points="672.5,-62.5 672.5,-81.5 809.5,-81.5 809.5,-62.5 672.5,-62.5"/>
<text text-anchor="middle" x="741" y="-69.5" font-family="Helvetica,sans-Serif" font-size="10.00">hpp/model/object&#45;iterator.hh</text>
</a>
</g>
</g>
<!-- Node10&#45;&gt;Node13 -->
<g id="edge15" class="edge"><title>Node10&#45;&gt;Node13</title>
<path fill="none" stroke="midnightblue" d="M573.082,-124.403C607.285,-113.933 665.197,-96.2049 703.27,-84.5501"/>
<polygon fill="midnightblue" stroke="midnightblue" points="704.433,-87.8545 712.97,-81.5806 702.384,-81.1611 704.433,-87.8545"/>
</g>
<!-- Node11&#45;&gt;Node9 -->
<g id="edge12" class="edge"><title>Node11&#45;&gt;Node9</title>
<path fill="none" stroke="midnightblue" d="M469,-56.7808C469,-48.7812 469,-38.6887 469,-30.0168"/>
<polygon fill="midnightblue" stroke="midnightblue" points="472.5,-29.7305 469,-19.7305 465.5,-29.7306 472.5,-29.7305"/>
</g>
<!-- Node12&#45;&gt;Node9 -->
<g id="edge14" class="edge"><title>Node12&#45;&gt;Node9</title>
<path fill="none" stroke="midnightblue" d="M566.224,-56.9327C545.085,-46.9455 516.921,-33.6397 496.348,-23.9205"/>
<polygon fill="midnightblue" stroke="midnightblue" points="497.74,-20.7072 487.203,-19.6 494.75,-27.0364 497.74,-20.7072"/>
</g>
<!-- Node13&#45;&gt;Node9 -->
<g id="edge16" class="edge"><title>Node13&#45;&gt;Node9</title>
<path fill="none" stroke="midnightblue" d="M702.318,-62.4672C653.679,-51.7379 570.164,-33.3157 517.358,-21.6673"/>
<polygon fill="midnightblue" stroke="midnightblue" points="518.068,-18.2397 507.549,-19.5034 516.56,-25.0754 518.068,-18.2397"/>
</g>
<!-- Node14&#45;&gt;Node9 -->
<g id="edge19" class="edge"><title>Node14&#45;&gt;Node9</title>
<path fill="none" stroke="midnightblue" d="M631.758,-185.321C719.484,-167.307 877.936,-124.16 818,-56 799.068,-34.4705 620.256,-20.3194 526.208,-14.3018"/>
<polygon fill="midnightblue" stroke="midnightblue" points="526.202,-10.7946 516.002,-13.6594 525.762,-17.7807 526.202,-10.7946"/>
</g>
<!-- Node14&#45;&gt;Node10 -->
<g id="edge18" class="edge"><title>Node14&#45;&gt;Node10</title>
<path fill="none" stroke="midnightblue" d="M570.179,-180.781C565.532,-172.332 559.601,-161.548 554.663,-152.569"/>
<polygon fill="midnightblue" stroke="midnightblue" points="557.688,-150.806 549.802,-143.731 551.554,-154.179 557.688,-150.806"/>
</g>
<!-- Node15&#45;&gt;Node8 -->
<g id="edge21" class="edge"><title>Node15&#45;&gt;Node8</title>
<path fill="none" stroke="midnightblue" d="M380.825,-248.403C368.429,-238.869 348.21,-223.315 333.254,-211.811"/>
<polygon fill="midnightblue" stroke="midnightblue" points="335.215,-208.904 325.155,-205.581 330.947,-214.452 335.215,-208.904"/>
</g>
<!-- Node15&#45;&gt;Node14 -->
<g id="edge22" class="edge"><title>Node15&#45;&gt;Node14</title>
<path fill="none" stroke="midnightblue" d="M418.649,-248.403C446.286,-239.488 490.236,-225.311 524.986,-214.101"/>
<polygon fill="midnightblue" stroke="midnightblue" points="526.079,-217.426 534.522,-211.025 523.93,-210.764 526.079,-217.426"/>
</g>
<!-- Node16 -->
<g id="node16" class="node"><title>Node16</title>
<g id="a_node16"><a doxygen="https://jmirabel.github.io/hpp-doc/api/hpp-model/doxygen-html/hpp-model.doxytag:https://jmirabel.github.io/hpp-doc/api/hpp-model/doxygen-html/" xlink:href="https://jmirabel.github.io/hpp-doc/api/hpp-model/doxygen-html/a00041.html" target="_top" xlink:title="hpp/model/joint.hh">
<polygon fill="white" stroke="black" points="343,-124.5 343,-143.5 439,-143.5 439,-124.5 343,-124.5"/>
<text text-anchor="middle" x="391" y="-131.5" font-family="Helvetica,sans-Serif" font-size="10.00">hpp/model/joint.hh</text>
</a>
</g>
</g>
<!-- Node15&#45;&gt;Node16 -->
<g id="edge23" class="edge"><title>Node15&#45;&gt;Node16</title>
<path fill="none" stroke="midnightblue" d="M391.928,-248.226C391.767,-228.53 391.372,-180.437 391.153,-153.7"/>
<polygon fill="midnightblue" stroke="midnightblue" points="394.653,-153.665 391.071,-143.694 387.653,-153.723 394.653,-153.665"/>
</g>
<!-- Node16&#45;&gt;Node9 -->
<g id="edge24" class="edge"><title>Node16&#45;&gt;Node9</title>
<path fill="none" stroke="midnightblue" d="M389.747,-124.141C388.067,-108.954 386.675,-77.5101 400,-56 408.69,-41.973 423.562,-31.4493 437.278,-24.1202"/>
<polygon fill="midnightblue" stroke="midnightblue" points="439.092,-27.1276 446.5,-19.5528 435.986,-20.8548 439.092,-27.1276"/>
</g>
<!-- Node17&#45;&gt;Node2 -->
<g id="edge30" class="edge"><title>Node17&#45;&gt;Node2</title>
<path fill="none" stroke="midnightblue" d="M579.489,-360.444C552.404,-351.359 509.41,-336.939 479.131,-326.783"/>
<polygon fill="midnightblue" stroke="midnightblue" points="479.986,-323.378 469.392,-323.516 477.76,-330.015 479.986,-323.378"/>
</g>
<!-- Node17&#45;&gt;Node3 -->
<g id="edge26" class="edge"><title>Node17&#45;&gt;Node3</title>
<path fill="none" stroke="midnightblue" d="M611.221,-360.434C617.734,-351.425 628.215,-336.806 637,-324 647.964,-308.019 660.12,-289.573 668.702,-276.423"/>
<polygon fill="midnightblue" stroke="midnightblue" points="671.731,-278.185 674.251,-267.895 665.864,-274.367 671.731,-278.185"/>
</g>
<!-- Node17&#45;&gt;Node4 -->
<g id="edge27" class="edge"><title>Node17&#45;&gt;Node4</title>
<path fill="none" stroke="midnightblue" d="M609.281,-360.291C613.408,-351.408 619.398,-337.106 622,-324 625.061,-308.583 625.384,-290.711 625.042,-277.613"/>
<polygon fill="midnightblue" stroke="midnightblue" points="628.535,-277.36 624.622,-267.514 621.541,-277.651 628.535,-277.36"/>
</g>
<!-- Node17&#45;&gt;Node14 -->
<g id="edge29" class="edge"><title>Node17&#45;&gt;Node14</title>
<path fill="none" stroke="midnightblue" d="M622.799,-360.443C660.012,-341.379 740.114,-293.502 709,-248 693.676,-225.591 666.937,-213.027 641.595,-205.983"/>
<polygon fill="midnightblue" stroke="midnightblue" points="642.16,-202.516 631.607,-203.46 640.445,-209.303 642.16,-202.516"/>
</g>
<!-- Node18 -->
<g id="node18" class="node"><title>Node18</title>
<polygon fill="white" stroke="#bfbfbf" points="524.5,-304.5 524.5,-323.5 613.5,-323.5 613.5,-304.5 524.5,-304.5"/>
<text text-anchor="middle" x="569" y="-311.5" font-family="Helvetica,sans-Serif" font-size="10.00">srdfdom/model.h</text>
</g>
<!-- Node17&#45;&gt;Node18 -->
<g id="edge28" class="edge"><title>Node17&#45;&gt;Node18</title>
<path fill="none" stroke="midnightblue" d="M599.055,-360.083C594.023,-352.534 586.663,-341.495 580.487,-332.23"/>
<polygon fill="midnightblue" stroke="midnightblue" points="583.293,-330.13 574.834,-323.751 577.469,-334.013 583.293,-330.13"/>
</g>
</g>
</svg>
