<?xml version="1.0" encoding="UTF-8" standalone="no"?>
<!DOCTYPE svg PUBLIC "-//W3C//DTD SVG 1.1//EN"
 "http://www.w3.org/Graphics/SVG/1.1/DTD/svg11.dtd">
<!-- Generated by graphviz version 2.36.0 (20140111.2315)
 -->
<!-- Title: parser.hh Pages: 1 -->
<svg width="971pt" height="388pt"
 viewBox="0.00 0.00 971.30 388.00" xmlns="http://www.w3.org/2000/svg" xmlns:xlink="http://www.w3.org/1999/xlink">
<g id="graph0" class="graph" transform="scale(1 1) rotate(0) translate(4 384)">
<title>parser.hh</title>
<polygon fill="white" stroke="none" points="-4,4 -4,-384 967.298,-384 967.298,4 -4,4"/>
<!-- Node1 -->
<g id="node1" class="node"><title>Node1</title>
<polygon fill="#bfbfbf" stroke="black" points="67.0568,-360.5 67.0568,-379.5 124.057,-379.5 124.057,-360.5 67.0568,-360.5"/>
<text text-anchor="middle" x="95.5568" y="-367.5" font-family="Helvetica,sans-Serif" font-size="10.00">parser.hh</text>
</g>
<!-- Node2 -->
<g id="node2" class="node"><title>Node2</title>
<polygon fill="white" stroke="#bfbfbf" points="19.0568,-248.5 19.0568,-267.5 60.0568,-267.5 60.0568,-248.5 19.0568,-248.5"/>
<text text-anchor="middle" x="39.5568" y="-255.5" font-family="Helvetica,sans-Serif" font-size="10.00">string</text>
</g>
<!-- Node1&#45;&gt;Node2 -->
<g id="edge1" class="edge"><title>Node1&#45;&gt;Node2</title>
<path fill="none" stroke="midnightblue" d="M91.1626,-360.368C82.0028,-342.376 60.7097,-300.55 48.5304,-276.627"/>
<polygon fill="midnightblue" stroke="midnightblue" points="51.5866,-274.915 43.9306,-267.591 45.3484,-278.091 51.5866,-274.915"/>
</g>
<!-- Node3 -->
<g id="node3" class="node"><title>Node3</title>
<polygon fill="white" stroke="#bfbfbf" points="78.0568,-248.5 78.0568,-267.5 113.057,-267.5 113.057,-248.5 78.0568,-248.5"/>
<text text-anchor="middle" x="95.5568" y="-255.5" font-family="Helvetica,sans-Serif" font-size="10.00">map</text>
</g>
<!-- Node1&#45;&gt;Node3 -->
<g id="edge2" class="edge"><title>Node1&#45;&gt;Node3</title>
<path fill="none" stroke="midnightblue" d="M95.5568,-360.368C95.5568,-342.617 95.5568,-301.666 95.5568,-277.597"/>
<polygon fill="midnightblue" stroke="midnightblue" points="99.0569,-277.591 95.5568,-267.591 92.0569,-277.591 99.0569,-277.591"/>
</g>
<!-- Node4 -->
<g id="node4" class="node"><title>Node4</title>
<polygon fill="white" stroke="#bfbfbf" points="313.057,-304.5 313.057,-323.5 402.057,-323.5 402.057,-304.5 313.057,-304.5"/>
<text text-anchor="middle" x="357.557" y="-311.5" font-family="Helvetica,sans-Serif" font-size="10.00">srdfdom/model.h</text>
</g>
<!-- Node1&#45;&gt;Node4 -->
<g id="edge3" class="edge"><title>Node1&#45;&gt;Node4</title>
<path fill="none" stroke="midnightblue" d="M124.094,-363.118C167.793,-354.112 251.935,-336.769 306.369,-325.55"/>
<polygon fill="midnightblue" stroke="midnightblue" points="307.083,-328.977 316.171,-323.53 305.67,-322.121 307.083,-328.977"/>
</g>
<!-- Node5 -->
<g id="node5" class="node"><title>Node5</title>
<g id="a_node5"><a doxygen="https://jmirabel.github.io/hpp-doc/api/hpp-model/doxygen-html/hpp-model.doxytag:https://jmirabel.github.io/hpp-doc/api/hpp-model/doxygen-html/" xlink:href="https://jmirabel.github.io/hpp-doc/api/hpp-model/doxygen-html/a00039.html" target="_top" xlink:title="hpp/model/humanoid\l&#45;robot.hh">
<polygon fill="white" stroke="black" points="463.057,-181 463.057,-211 570.057,-211 570.057,-181 463.057,-181"/>
<text text-anchor="start" x="471.057" y="-199" font-family="Helvetica,sans-Serif" font-size="10.00">hpp/model/humanoid</text>
<text text-anchor="middle" x="516.557" y="-188" font-family="Helvetica,sans-Serif" font-size="10.00">&#45;robot.hh</text>
</a>
</g>
</g>
<!-- Node1&#45;&gt;Node5 -->
<g id="edge4" class="edge"><title>Node1&#45;&gt;Node5</title>
<path fill="none" stroke="midnightblue" d="M81.0301,-360.274C48.3697,-339.626 -25.3645,-286.61 9.55682,-248 38.7701,-215.701 323.023,-202.915 452.674,-198.734"/>
<polygon fill="midnightblue" stroke="midnightblue" points="452.974,-202.227 462.859,-198.413 452.754,-195.23 452.974,-202.227"/>
</g>
<!-- Node11 -->
<g id="node11" class="node"><title>Node11</title>
<g id="a_node11"><a xlink:href="a00005.html" target="_top" xlink:title="hpp/model/urdf/parser.hh">
<polygon fill="white" stroke="black" points="170.057,-304.5 170.057,-323.5 295.057,-323.5 295.057,-304.5 170.057,-304.5"/>
<text text-anchor="middle" x="232.557" y="-311.5" font-family="Helvetica,sans-Serif" font-size="10.00">hpp/model/urdf/parser.hh</text>
</a>
</g>
</g>
<!-- Node1&#45;&gt;Node11 -->
<g id="edge14" class="edge"><title>Node1&#45;&gt;Node11</title>
<path fill="none" stroke="midnightblue" d="M117.265,-360.444C139.912,-351.517 175.629,-337.439 201.309,-327.317"/>
<polygon fill="midnightblue" stroke="midnightblue" points="202.93,-330.44 210.95,-323.516 200.363,-323.927 202.93,-330.44"/>
</g>
<!-- Node6 -->
<g id="node6" class="node"><title>Node6</title>
<g id="a_node6"><a doxygen="https://jmirabel.github.io/hpp-doc/api/hpp-model/doxygen-html/hpp-model.doxytag:https://jmirabel.github.io/hpp-doc/api/hpp-model/doxygen-html/" xlink:href="https://jmirabel.github.io/hpp-doc/api/hpp-model/doxygen-html/a00033.html" target="_top" xlink:title="hpp/model/device.hh">
<polygon fill="white" stroke="black" points="657.057,-124.5 657.057,-143.5 764.057,-143.5 764.057,-124.5 657.057,-124.5"/>
<text text-anchor="middle" x="710.557" y="-131.5" font-family="Helvetica,sans-Serif" font-size="10.00">hpp/model/device.hh</text>
</a>
</g>
</g>
<!-- Node5&#45;&gt;Node6 -->
<g id="edge5" class="edge"><title>Node5&#45;&gt;Node6</title>
<path fill="none" stroke="midnightblue" d="M562.041,-180.933C595.895,-170.462 641.543,-156.345 673.258,-146.536"/>
<polygon fill="midnightblue" stroke="midnightblue" points="674.513,-149.811 683.032,-143.513 672.445,-143.124 674.513,-149.811"/>
</g>
<!-- Node7 -->
<g id="node7" class="node"><title>Node7</title>
<g id="a_node7"><a doxygen="https://jmirabel.github.io/hpp-doc/api/hpp-model/doxygen-html/hpp-model.doxytag:https://jmirabel.github.io/hpp-doc/api/hpp-model/doxygen-html/" xlink:href="https://jmirabel.github.io/hpp-doc/api/hpp-model/doxygen-html/a00037.html" target="_top" xlink:title="hpp/model/fwd.hh">
<polygon fill="white" stroke="black" points="663.557,-0.5 663.557,-19.5 757.557,-19.5 757.557,-0.5 663.557,-0.5"/>
<text text-anchor="middle" x="710.557" y="-7.5" font-family="Helvetica,sans-Serif" font-size="10.00">hpp/model/fwd.hh</text>
</a>
</g>
</g>
<!-- Node5&#45;&gt;Node7 -->
<g id="edge13" class="edge"><title>Node5&#45;&gt;Node7</title>
<path fill="none" stroke="midnightblue" d="M510.896,-180.742C500.935,-153.035 484.064,-91.5298 514.557,-56 532.41,-35.1983 602.108,-22.9844 653.33,-16.6497"/>
<polygon fill="midnightblue" stroke="midnightblue" points="653.792,-20.1195 663.308,-15.4603 652.964,-13.1687 653.792,-20.1195"/>
</g>
<!-- Node6&#45;&gt;Node7 -->
<g id="edge6" class="edge"><title>Node6&#45;&gt;Node7</title>
<path fill="none" stroke="midnightblue" d="M764.07,-129.748C822.839,-124.928 911.678,-113.535 932.557,-88 979.483,-30.6079 847.915,-15.8962 767.623,-12.1906"/>
<polygon fill="midnightblue" stroke="midnightblue" points="767.758,-8.69321 757.62,-11.773 767.466,-15.6871 767.758,-8.69321"/>
</g>
<!-- Node8 -->
<g id="node8" class="node"><title>Node8</title>
<g id="a_node8"><a doxygen="https://jmirabel.github.io/hpp-doc/api/hpp-model/doxygen-html/hpp-model.doxytag:https://jmirabel.github.io/hpp-doc/api/hpp-model/doxygen-html/" xlink:href="https://jmirabel.github.io/hpp-doc/api/hpp-model/doxygen-html/a00034.html" target="_top" xlink:title="hpp/model/distance\l&#45;result.hh">
<polygon fill="white" stroke="black" points="533.057,-57 533.057,-87 634.057,-87 634.057,-57 533.057,-57"/>
<text text-anchor="start" x="541.057" y="-75" font-family="Helvetica,sans-Serif" font-size="10.00">hpp/model/distance</text>
<text text-anchor="middle" x="583.557" y="-64" font-family="Helvetica,sans-Serif" font-size="10.00">&#45;result.hh</text>
</a>
</g>
</g>
<!-- Node6&#45;&gt;Node8 -->
<g id="edge7" class="edge"><title>Node6&#45;&gt;Node8</title>
<path fill="none" stroke="midnightblue" d="M692.361,-124.403C674.276,-115.86 645.963,-102.483 622.751,-91.5171"/>
<polygon fill="midnightblue" stroke="midnightblue" points="624.025,-88.2479 613.488,-87.1408 621.035,-94.5772 624.025,-88.2479"/>
</g>
<!-- Node9 -->
<g id="node9" class="node"><title>Node9</title>
<g id="a_node9"><a doxygen="https://jmirabel.github.io/hpp-doc/api/hpp-model/doxygen-html/hpp-model.doxytag:https://jmirabel.github.io/hpp-doc/api/hpp-model/doxygen-html/" xlink:href="https://jmirabel.github.io/hpp-doc/api/hpp-model/doxygen-html/a00035.html" target="_top" xlink:title="hpp/model/extra&#45;config\l&#45;space.hh">
<polygon fill="white" stroke="black" points="652.557,-57 652.557,-87 768.557,-87 768.557,-57 652.557,-57"/>
<text text-anchor="start" x="660.557" y="-75" font-family="Helvetica,sans-Serif" font-size="10.00">hpp/model/extra&#45;config</text>
<text text-anchor="middle" x="710.557" y="-64" font-family="Helvetica,sans-Serif" font-size="10.00">&#45;space.hh</text>
</a>
</g>
</g>
<!-- Node6&#45;&gt;Node9 -->
<g id="edge9" class="edge"><title>Node6&#45;&gt;Node9</title>
<path fill="none" stroke="midnightblue" d="M710.557,-124.403C710.557,-117.341 710.557,-106.975 710.557,-97.399"/>
<polygon fill="midnightblue" stroke="midnightblue" points="714.057,-97.1408 710.557,-87.1408 707.057,-97.1408 714.057,-97.1408"/>
</g>
<!-- Node10 -->
<g id="node10" class="node"><title>Node10</title>
<g id="a_node10"><a doxygen="https://jmirabel.github.io/hpp-doc/api/hpp-model/doxygen-html/hpp-model.doxytag:https://jmirabel.github.io/hpp-doc/api/hpp-model/doxygen-html/" xlink:href="https://jmirabel.github.io/hpp-doc/api/hpp-model/doxygen-html/a00044.html" target="_top" xlink:title="hpp/model/object&#45;iterator.hh">
<polygon fill="white" stroke="black" points="787.057,-62.5 787.057,-81.5 924.057,-81.5 924.057,-62.5 787.057,-62.5"/>
<text text-anchor="middle" x="855.557" y="-69.5" font-family="Helvetica,sans-Serif" font-size="10.00">hpp/model/object&#45;iterator.hh</text>
</a>
</g>
</g>
<!-- Node6&#45;&gt;Node10 -->
<g id="edge11" class="edge"><title>Node6&#45;&gt;Node10</title>
<path fill="none" stroke="midnightblue" d="M731.332,-124.403C755.989,-114.2 797.302,-97.1055 825.459,-85.4544"/>
<polygon fill="midnightblue" stroke="midnightblue" points="826.918,-88.6382 834.82,-81.5806 824.242,-82.1701 826.918,-88.6382"/>
</g>
<!-- Node8&#45;&gt;Node7 -->
<g id="edge8" class="edge"><title>Node8&#45;&gt;Node7</title>
<path fill="none" stroke="midnightblue" d="M613.333,-56.9327C634.472,-46.9455 662.636,-33.6397 683.208,-23.9205"/>
<polygon fill="midnightblue" stroke="midnightblue" points="684.807,-27.0364 692.353,-19.6 681.817,-20.7072 684.807,-27.0364"/>
</g>
<!-- Node9&#45;&gt;Node7 -->
<g id="edge10" class="edge"><title>Node9&#45;&gt;Node7</title>
<path fill="none" stroke="midnightblue" d="M710.557,-56.7808C710.557,-48.7812 710.557,-38.6887 710.557,-30.0168"/>
<polygon fill="midnightblue" stroke="midnightblue" points="714.057,-29.7305 710.557,-19.7305 707.057,-29.7306 714.057,-29.7305"/>
</g>
<!-- Node10&#45;&gt;Node7 -->
<g id="edge12" class="edge"><title>Node10&#45;&gt;Node7</title>
<path fill="none" stroke="midnightblue" d="M834.782,-62.4035C810.125,-52.2004 768.812,-35.1055 740.655,-23.4544"/>
<polygon fill="midnightblue" stroke="midnightblue" points="741.872,-20.1701 731.293,-19.5806 739.195,-26.6382 741.872,-20.1701"/>
</g>
<!-- Node11&#45;&gt;Node2 -->
<g id="edge15" class="edge"><title>Node11&#45;&gt;Node2</title>
<path fill="none" stroke="midnightblue" d="M200.105,-304.435C168.963,-296.141 120.376,-283.007 69.9044,-268.332"/>
<polygon fill="midnightblue" stroke="midnightblue" points="70.7067,-264.92 60.1265,-265.476 68.7442,-271.639 70.7067,-264.92"/>
</g>
<!-- Node11&#45;&gt;Node3 -->
<g id="edge16" class="edge"><title>Node11&#45;&gt;Node3</title>
<path fill="none" stroke="midnightblue" d="M210.849,-304.444C187.003,-295.045 148.666,-279.934 122.814,-269.744"/>
<polygon fill="midnightblue" stroke="midnightblue" points="123.829,-266.382 113.242,-265.971 121.262,-272.894 123.829,-266.382"/>
</g>
<!-- Node11&#45;&gt;Node5 -->
<g id="edge23" class="edge"><title>Node11&#45;&gt;Node5</title>
<path fill="none" stroke="midnightblue" d="M292.442,-304.494C368.254,-293.484 489.988,-274.893 497.557,-268 510.434,-256.271 514.98,-236.865 516.419,-221.302"/>
<polygon fill="midnightblue" stroke="midnightblue" points="519.916,-221.465 516.983,-211.284 512.927,-221.071 519.916,-221.465"/>
</g>
<!-- Node12 -->
<g id="node12" class="node"><title>Node12</title>
<polygon fill="white" stroke="#bfbfbf" points="131.057,-248.5 131.057,-267.5 202.057,-267.5 202.057,-248.5 131.057,-248.5"/>
<text text-anchor="middle" x="166.557" y="-255.5" font-family="Helvetica,sans-Serif" font-size="10.00">urdf/model.h</text>
</g>
<!-- Node11&#45;&gt;Node12 -->
<g id="edge17" class="edge"><title>Node11&#45;&gt;Node12</title>
<path fill="none" stroke="midnightblue" d="M221.953,-304.324C212.101,-296.263 197.206,-284.077 185.342,-274.369"/>
<polygon fill="midnightblue" stroke="midnightblue" points="187.31,-271.457 177.354,-267.834 182.877,-276.875 187.31,-271.457"/>
</g>
<!-- Node13 -->
<g id="node13" class="node"><title>Node13</title>
<polygon fill="white" stroke="#bfbfbf" points="220.557,-248.5 220.557,-267.5 336.557,-267.5 336.557,-248.5 220.557,-248.5"/>
<text text-anchor="middle" x="278.557" y="-255.5" font-family="Helvetica,sans-Serif" font-size="10.00">hpp/fcl/BV/OBBRSS.h</text>
</g>
<!-- Node11&#45;&gt;Node13 -->
<g id="edge18" class="edge"><title>Node11&#45;&gt;Node13</title>
<path fill="none" stroke="midnightblue" d="M240.153,-304.083C246.784,-296.298 256.578,-284.801 264.615,-275.367"/>
<polygon fill="midnightblue" stroke="midnightblue" points="267.282,-277.633 271.102,-267.751 261.953,-273.094 267.282,-277.633"/>
</g>
<!-- Node14 -->
<g id="node14" class="node"><title>Node14</title>
<polygon fill="white" stroke="#bfbfbf" points="354.557,-248.5 354.557,-267.5 488.557,-267.5 488.557,-248.5 354.557,-248.5"/>
<text text-anchor="middle" x="421.557" y="-255.5" font-family="Helvetica,sans-Serif" font-size="10.00">hpp/fcl/BVH/BVH_model.h</text>
</g>
<!-- Node11&#45;&gt;Node14 -->
<g id="edge19" class="edge"><title>Node11&#45;&gt;Node14</title>
<path fill="none" stroke="midnightblue" d="M262.504,-304.444C294.715,-295.241 346.091,-280.562 381.699,-270.388"/>
<polygon fill="midnightblue" stroke="midnightblue" points="383.096,-273.629 391.749,-267.516 381.173,-266.898 383.096,-273.629"/>
</g>
<!-- Node15 -->
<g id="node15" class="node"><title>Node15</title>
<g id="a_node15"><a doxygen="https://jmirabel.github.io/hpp-doc/api/hpp-model/doxygen-html/hpp-model.doxytag:https://jmirabel.github.io/hpp-doc/api/hpp-model/doxygen-html/" xlink:href="https://jmirabel.github.io/hpp-doc/api/hpp-model/doxygen-html/a00027.html" target="_top" xlink:title="hpp/model/body.hh">
<polygon fill="white" stroke="black" points="661.057,-186.5 661.057,-205.5 760.057,-205.5 760.057,-186.5 661.057,-186.5"/>
<text text-anchor="middle" x="710.557" y="-193.5" font-family="Helvetica,sans-Serif" font-size="10.00">hpp/model/body.hh</text>
</a>
</g>
</g>
<!-- Node11&#45;&gt;Node15 -->
<g id="edge20" class="edge"><title>Node11&#45;&gt;Node15</title>
<path fill="none" stroke="midnightblue" d="M295.372,-305.03C298.477,-304.673 301.551,-304.328 304.557,-304 390.199,-294.656 624.367,-323.143 690.557,-268 705.746,-255.346 709.889,-232.135 710.785,-215.701"/>
<polygon fill="midnightblue" stroke="midnightblue" points="714.286,-215.685 710.982,-205.619 707.287,-215.548 714.286,-215.685"/>
</g>
<!-- Node16 -->
<g id="node16" class="node"><title>Node16</title>
<g id="a_node16"><a doxygen="https://jmirabel.github.io/hpp-doc/api/hpp-model/doxygen-html/hpp-model.doxytag:https://jmirabel.github.io/hpp-doc/api/hpp-model/doxygen-html/" xlink:href="https://jmirabel.github.io/hpp-doc/api/hpp-model/doxygen-html/a00043.html" target="_top" xlink:title="hpp/model/object&#45;factory.hh">
<polygon fill="white" stroke="black" points="545.057,-248.5 545.057,-267.5 682.057,-267.5 682.057,-248.5 545.057,-248.5"/>
<text text-anchor="middle" x="613.557" y="-255.5" font-family="Helvetica,sans-Serif" font-size="10.00">hpp/model/object&#45;factory.hh</text>
</a>
</g>
</g>
<!-- Node11&#45;&gt;Node16 -->
<g id="edge24" class="edge"><title>Node11&#45;&gt;Node16</title>
<path fill="none" stroke="midnightblue" d="M292.927,-304.444C360.925,-294.806 471.292,-279.163 543.155,-268.978"/>
<polygon fill="midnightblue" stroke="midnightblue" points="544.059,-272.385 553.469,-267.516 543.076,-265.454 544.059,-272.385"/>
</g>
<!-- Node15&#45;&gt;Node6 -->
<g id="edge22" class="edge"><title>Node15&#45;&gt;Node6</title>
<path fill="none" stroke="midnightblue" d="M710.557,-186.403C710.557,-177.938 710.557,-164.728 710.557,-153.82"/>
<polygon fill="midnightblue" stroke="midnightblue" points="714.057,-153.581 710.557,-143.581 707.057,-153.581 714.057,-153.581"/>
</g>
<!-- Node15&#45;&gt;Node7 -->
<g id="edge21" class="edge"><title>Node15&#45;&gt;Node7</title>
<path fill="none" stroke="midnightblue" d="M759.8,-186.488C845.933,-169.535 1009.44,-126.955 950.557,-56 927.796,-28.5751 831.402,-17.7632 767.918,-13.5721"/>
<polygon fill="midnightblue" stroke="midnightblue" points="767.838,-10.0605 757.64,-12.932 767.403,-17.0469 767.838,-10.0605"/>
</g>
<!-- Node16&#45;&gt;Node5 -->
<g id="edge26" class="edge"><title>Node16&#45;&gt;Node5</title>
<path fill="none" stroke="midnightblue" d="M599.659,-248.403C586.276,-240.125 565.559,-227.311 548.158,-216.547"/>
<polygon fill="midnightblue" stroke="midnightblue" points="549.764,-213.425 539.418,-211.141 546.081,-219.378 549.764,-213.425"/>
</g>
<!-- Node16&#45;&gt;Node15 -->
<g id="edge25" class="edge"><title>Node16&#45;&gt;Node15</title>
<path fill="none" stroke="midnightblue" d="M627.455,-248.403C643.301,-238.601 669.431,-222.439 688.162,-210.853"/>
<polygon fill="midnightblue" stroke="midnightblue" points="690.022,-213.818 696.685,-205.581 686.339,-207.865 690.022,-213.818"/>
</g>
<!-- Node17 -->
<g id="node17" class="node"><title>Node17</title>
<g id="a_node17"><a doxygen="https://jmirabel.github.io/hpp-doc/api/hpp-model/doxygen-html/hpp-model.doxytag:https://jmirabel.github.io/hpp-doc/api/hpp-model/doxygen-html/" xlink:href="https://jmirabel.github.io/hpp-doc/api/hpp-model/doxygen-html/a00041.html" target="_top" xlink:title="hpp/model/joint.hh">
<polygon fill="white" stroke="black" points="518.557,-124.5 518.557,-143.5 614.557,-143.5 614.557,-124.5 518.557,-124.5"/>
<text text-anchor="middle" x="566.557" y="-131.5" font-family="Helvetica,sans-Serif" font-size="10.00">hpp/model/joint.hh</text>
</a>
</g>
</g>
<!-- Node16&#45;&gt;Node17 -->
<g id="edge27" class="edge"><title>Node16&#45;&gt;Node17</title>
<path fill="none" stroke="midnightblue" d="M610.177,-248.226C602.555,-228.442 583.896,-180.007 573.624,-153.344"/>
<polygon fill="midnightblue" stroke="midnightblue" points="576.767,-151.768 569.906,-143.694 570.235,-154.284 576.767,-151.768"/>
</g>
<!-- Node17&#45;&gt;Node7 -->
<g id="edge28" class="edge"><title>Node17&#45;&gt;Node7</title>
<path fill="none" stroke="midnightblue" d="M555.494,-124.35C537.803,-109.478 506.853,-78.4972 524.557,-56 540.381,-35.8906 604.508,-23.6885 653.078,-17.1588"/>
<polygon fill="midnightblue" stroke="midnightblue" points="653.715,-20.6056 663.183,-15.8507 652.817,-13.6635 653.715,-20.6056"/>
</g>
</g>
</svg>
