<?xml version="1.0" encoding="UTF-8" standalone="no"?>
<!DOCTYPE svg PUBLIC "-//W3C//DTD SVG 1.1//EN"
 "http://www.w3.org/Graphics/SVG/1.1/DTD/svg11.dtd">
<!-- Generated by graphviz version 2.36.0 (20140111.2315)
 -->
<!-- Title: model Pages: 1 -->
<svg width="182pt" height="183pt"
 viewBox="0.00 0.00 182.00 183.00" xmlns="http://www.w3.org/2000/svg" xmlns:xlink="http://www.w3.org/1999/xlink">
<g id="graph0" class="graph" transform="scale(1 1) rotate(0) translate(4 179)">
<title>model</title>
<polygon fill="white" stroke="none" points="-4,4 -4,-179 178,-179 178,4 -4,4"/>
<g id="clust1" class="cluster"><title>clusterdir_766a2b2ecef16448f861b8cf84e3a157</title>
<g id="a_clust1"><a xlink:href="dir_766a2b2ecef16448f861b8cf84e3a157.html" target="_top" xlink:title="hpp">
<polygon fill="#ddddee" stroke="black" points="8,-8 8,-167 166,-167 166,-8 8,-8"/>
<text text-anchor="middle" x="87" y="-155" font-family="Helvetica,sans-Serif" font-size="10.00">hpp</text>
</a>
</g>
</g>
<g id="clust2" class="cluster"><title>clusterdir_d127feb157eb0d2279a65da179d25912</title>
<g id="a_clust2"><a xlink:href="dir_d127feb157eb0d2279a65da179d25912.html" target="_top">
<polygon fill="#eeeeff" stroke="black" points="16,-16 16,-140 158,-140 158,-16 16,-16"/>
</a>
</g>
</g>
<!-- dir_d127feb157eb0d2279a65da179d25912 -->
<g id="node1" class="node"><title>dir_d127feb157eb0d2279a65da179d25912</title>
<text text-anchor="middle" x="123" y="-111.5" font-family="Helvetica,sans-Serif" font-size="10.00">model</text>
</g>
<!-- dir_b6d51be97fd6240084d42b6174a13787 -->
<g id="node2" class="node"><title>dir_b6d51be97fd6240084d42b6174a13787</title>
<g id="a_node2"><a xlink:href="dir_b6d51be97fd6240084d42b6174a13787.html" target="_top" xlink:title="srdf">
<polygon fill="white" stroke="black" points="78,-132 24,-132 24,-96 78,-96 78,-132"/>
<text text-anchor="middle" x="51" y="-111.5" font-family="Helvetica,sans-Serif" font-size="10.00">srdf</text>
</a>
</g>
</g>
<!-- dir_9938e0751801fd57e483ed36dbcf1bb9 -->
<g id="node3" class="node"><title>dir_9938e0751801fd57e483ed36dbcf1bb9</title>
<g id="a_node3"><a xlink:href="dir_9938e0751801fd57e483ed36dbcf1bb9.html" target="_top" xlink:title="urdf">
<polygon fill="white" stroke="black" points="78,-60 24,-60 24,-24 78,-24 78,-60"/>
<text text-anchor="middle" x="51" y="-39.5" font-family="Helvetica,sans-Serif" font-size="10.00">urdf</text>
</a>
</g>
</g>
<!-- dir_b6d51be97fd6240084d42b6174a13787&#45;&gt;dir_9938e0751801fd57e483ed36dbcf1bb9 -->
<g id="edge1" class="edge"><title>dir_b6d51be97fd6240084d42b6174a13787&#45;&gt;dir_9938e0751801fd57e483ed36dbcf1bb9</title>
<path fill="none" stroke="black" d="M45.0843,-95.6966C44.2886,-87.9827 44.0621,-78.7125 44.4047,-70.1124"/>
<polygon fill="black" stroke="black" points="47.8984,-70.3243 45.105,-60.1043 40.9154,-69.8356 47.8984,-70.3243"/>
<g id="a_edge1&#45;headlabel"><a xlink:href="dir_000004_000003.html" target="_top" xlink:title="1">
<text text-anchor="middle" x="50.4799" y="-71.6083" font-family="Helvetica,sans-Serif" font-size="10.00">1</text>
</a>
</g>
</g>
<!-- dir_9938e0751801fd57e483ed36dbcf1bb9&#45;&gt;dir_b6d51be97fd6240084d42b6174a13787 -->
<g id="edge2" class="edge"><title>dir_9938e0751801fd57e483ed36dbcf1bb9&#45;&gt;dir_b6d51be97fd6240084d42b6174a13787</title>
<path fill="none" stroke="black" d="M56.895,-60.1043C57.7005,-67.7913 57.9369,-77.0537 57.604,-85.6651"/>
<polygon fill="black" stroke="black" points="54.1085,-85.4805 56.9157,-95.6966 61.0921,-85.9597 54.1085,-85.4805"/>
<g id="a_edge2&#45;headlabel"><a xlink:href="dir_000003_000004.html" target="_top" xlink:title="1">
<text text-anchor="middle" x="51.5219" y="-79.2" font-family="Helvetica,sans-Serif" font-size="10.00">1</text>
</a>
</g>
</g>
</g>
</svg>
