<?xml version="1.0" encoding="UTF-8" standalone="no"?>
<!DOCTYPE svg PUBLIC "-//W3C//DTD SVG 1.1//EN"
 "http://www.w3.org/Graphics/SVG/1.1/DTD/svg11.dtd">
<!-- Generated by graphviz version 2.36.0 (20140111.2315)
 -->
<!-- Title: client.hh Pages: 1 -->
<svg width="723pt" height="84pt"
 viewBox="0.00 0.00 723.00 84.00" xmlns="http://www.w3.org/2000/svg" xmlns:xlink="http://www.w3.org/1999/xlink">
<g id="graph0" class="graph" transform="scale(1 1) rotate(0) translate(4 80)">
<title>client.hh</title>
<polygon fill="white" stroke="none" points="-4,4 -4,-80 719,-80 719,4 -4,4"/>
<!-- Node1 -->
<g id="node1" class="node"><title>Node1</title>
<polygon fill="#bfbfbf" stroke="black" points="314.5,-56.5 314.5,-75.5 367.5,-75.5 367.5,-56.5 314.5,-56.5"/>
<text text-anchor="middle" x="341" y="-63.5" font-family="Helvetica,sans-Serif" font-size="10.00">client.hh</text>
</g>
<!-- Node2 -->
<g id="node2" class="node"><title>Node2</title>
<polygon fill="white" stroke="#bfbfbf" points="-1,-0.5 -1,-19.5 111,-19.5 111,-0.5 -1,-0.5"/>
<text text-anchor="middle" x="55" y="-7.5" font-family="Helvetica,sans-Serif" font-size="10.00">omniORB4/CORBA.h</text>
</g>
<!-- Node1&#45;&gt;Node2 -->
<g id="edge1" class="edge"><title>Node1&#45;&gt;Node2</title>
<path fill="none" stroke="midnightblue" d="M314.351,-59.9683C267.916,-51.2008 171.284,-32.9557 109.977,-21.3804"/>
<polygon fill="midnightblue" stroke="midnightblue" points="110.558,-17.9281 100.082,-19.512 109.259,-24.8066 110.558,-17.9281"/>
</g>
<!-- Node3 -->
<g id="node3" class="node"><title>Node3</title>
<polygon fill="white" stroke="#bfbfbf" points="129.5,-0.5 129.5,-19.5 254.5,-19.5 254.5,-0.5 129.5,-0.5"/>
<text text-anchor="middle" x="192" y="-7.5" font-family="Helvetica,sans-Serif" font-size="10.00">hpp/corbaserver/robot.hh</text>
</g>
<!-- Node1&#45;&gt;Node3 -->
<g id="edge2" class="edge"><title>Node1&#45;&gt;Node3</title>
<path fill="none" stroke="midnightblue" d="M317.391,-56.4435C292.542,-47.4381 253.226,-33.1891 225.246,-23.049"/>
<polygon fill="midnightblue" stroke="midnightblue" points="226.093,-19.6332 215.499,-19.5164 223.708,-26.2144 226.093,-19.6332"/>
</g>
<!-- Node4 -->
<g id="node4" class="node"><title>Node4</title>
<polygon fill="white" stroke="#bfbfbf" points="272.5,-0.5 272.5,-19.5 409.5,-19.5 409.5,-0.5 272.5,-0.5"/>
<text text-anchor="middle" x="341" y="-7.5" font-family="Helvetica,sans-Serif" font-size="10.00">hpp/corbaserver/problem.hh</text>
</g>
<!-- Node1&#45;&gt;Node4 -->
<g id="edge3" class="edge"><title>Node1&#45;&gt;Node4</title>
<path fill="none" stroke="midnightblue" d="M341,-56.083C341,-49.0059 341,-38.8611 341,-29.9865"/>
<polygon fill="midnightblue" stroke="midnightblue" points="344.5,-29.751 341,-19.7511 337.5,-29.7511 344.5,-29.751"/>
</g>
<!-- Node5 -->
<g id="node5" class="node"><title>Node5</title>
<polygon fill="white" stroke="#bfbfbf" points="428,-0.5 428,-19.5 568,-19.5 568,-0.5 428,-0.5"/>
<text text-anchor="middle" x="498" y="-7.5" font-family="Helvetica,sans-Serif" font-size="10.00">hpp/corbaserver/obstacle.hh</text>
</g>
<!-- Node1&#45;&gt;Node5 -->
<g id="edge4" class="edge"><title>Node1&#45;&gt;Node5</title>
<path fill="none" stroke="midnightblue" d="M365.877,-56.4435C392.289,-47.3591 434.215,-32.9388 463.742,-22.7831"/>
<polygon fill="midnightblue" stroke="midnightblue" points="464.921,-26.0787 473.239,-19.5164 462.645,-19.4593 464.921,-26.0787"/>
</g>
<!-- Node6 -->
<g id="node6" class="node"><title>Node6</title>
<polygon fill="white" stroke="#bfbfbf" points="586.5,-0.5 586.5,-19.5 715.5,-19.5 715.5,-0.5 586.5,-0.5"/>
<text text-anchor="middle" x="651" y="-7.5" font-family="Helvetica,sans-Serif" font-size="10.00">hpp/corbaserver/config.hh</text>
</g>
<!-- Node1&#45;&gt;Node6 -->
<g id="edge5" class="edge"><title>Node1&#45;&gt;Node6</title>
<path fill="none" stroke="midnightblue" d="M367.699,-60.3493C417.29,-51.7108 524.691,-33.0023 592.08,-21.2635"/>
<polygon fill="midnightblue" stroke="midnightblue" points="592.878,-24.6773 602.129,-19.5131 591.676,-17.7812 592.878,-24.6773"/>
</g>
</g>
</svg>
