<?xml version="1.0" encoding="UTF-8" standalone="no"?>
<!DOCTYPE svg PUBLIC "-//W3C//DTD SVG 1.1//EN"
 "http://www.w3.org/Graphics/SVG/1.1/DTD/svg11.dtd">
<!-- Generated by graphviz version 2.36.0 (20140111.2315)
 -->
<!-- Title: problem&#45;solver&#45;map.hh Pages: 1 -->
<svg width="365pt" height="140pt"
 viewBox="0.00 0.00 365.00 140.00" xmlns="http://www.w3.org/2000/svg" xmlns:xlink="http://www.w3.org/1999/xlink">
<g id="graph0" class="graph" transform="scale(1 1) rotate(0) translate(4 136)">
<title>problem&#45;solver&#45;map.hh</title>
<polygon fill="white" stroke="none" points="-4,4 -4,-136 361,-136 361,4 -4,4"/>
<!-- Node1 -->
<g id="node1" class="node"><title>Node1</title>
<polygon fill="#bfbfbf" stroke="black" points="98,-112.5 98,-131.5 214,-131.5 214,-112.5 98,-112.5"/>
<text text-anchor="middle" x="156" y="-119.5" font-family="Helvetica,sans-Serif" font-size="10.00">problem&#45;solver&#45;map.hh</text>
</g>
<!-- Node2 -->
<g id="node2" class="node"><title>Node2</title>
<polygon fill="white" stroke="#bfbfbf" points="-0.5,-56.5 -0.5,-75.5 34.5,-75.5 34.5,-56.5 -0.5,-56.5"/>
<text text-anchor="middle" x="17" y="-63.5" font-family="Helvetica,sans-Serif" font-size="10.00">map</text>
</g>
<!-- Node1&#45;&gt;Node2 -->
<g id="edge1" class="edge"><title>Node1&#45;&gt;Node2</title>
<path fill="none" stroke="midnightblue" d="M133.975,-112.444C109.538,-102.95 70.1025,-87.6297 43.8696,-77.4385"/>
<polygon fill="midnightblue" stroke="midnightblue" points="45.1096,-74.1655 34.5208,-73.8067 42.5747,-80.6904 45.1096,-74.1655"/>
</g>
<!-- Node3 -->
<g id="node3" class="node"><title>Node3</title>
<g id="a_node3"><a xlink:href="a00001.html" target="_top" xlink:title="hpp/corbaserver/fwd.hh">
<polygon fill="white" stroke="black" points="52.5,-56.5 52.5,-75.5 171.5,-75.5 171.5,-56.5 52.5,-56.5"/>
<text text-anchor="middle" x="112" y="-63.5" font-family="Helvetica,sans-Serif" font-size="10.00">hpp/corbaserver/fwd.hh</text>
</a>
</g>
</g>
<!-- Node1&#45;&gt;Node3 -->
<g id="edge2" class="edge"><title>Node1&#45;&gt;Node3</title>
<path fill="none" stroke="midnightblue" d="M148.734,-112.083C142.455,-104.377 133.212,-93.0333 125.569,-83.6531"/>
<polygon fill="midnightblue" stroke="midnightblue" points="128.161,-81.2926 119.131,-75.7511 122.734,-85.7143 128.161,-81.2926"/>
</g>
<!-- Node5 -->
<g id="node5" class="node"><title>Node5</title>
<g id="a_node5"><a doxygen="https://jmirabel.github.io/hpp-doc/api/hpp-core/doxygen-html/hpp-core.doxytag:https://jmirabel.github.io/hpp-doc/api/hpp-core/doxygen-html/" xlink:href="https://jmirabel.github.io/hpp-doc/api/hpp-core/doxygen-html/a00001.html" target="_top" xlink:title="hpp/core/fwd.hh">
<polygon fill="white" stroke="black" points="157,-0.5 157,-19.5 243,-19.5 243,-0.5 157,-0.5"/>
<text text-anchor="middle" x="200" y="-7.5" font-family="Helvetica,sans-Serif" font-size="10.00">hpp/core/fwd.hh</text>
</a>
</g>
</g>
<!-- Node1&#45;&gt;Node5 -->
<g id="edge6" class="edge"><title>Node1&#45;&gt;Node5</title>
<path fill="none" stroke="midnightblue" d="M161.298,-112.28C166.544,-103.388 174.559,-89.08 180,-76 186.377,-60.6702 191.783,-42.5686 195.361,-29.3661"/>
<polygon fill="midnightblue" stroke="midnightblue" points="198.771,-30.157 197.917,-19.5967 191.999,-28.385 198.771,-30.157"/>
</g>
<!-- Node6 -->
<g id="node6" class="node"><title>Node6</title>
<polygon fill="white" stroke="#bfbfbf" points="228.5,-56.5 228.5,-75.5 357.5,-75.5 357.5,-56.5 228.5,-56.5"/>
<text text-anchor="middle" x="293" y="-63.5" font-family="Helvetica,sans-Serif" font-size="10.00">hpp/corbaserver/config.hh</text>
</g>
<!-- Node1&#45;&gt;Node6 -->
<g id="edge5" class="edge"><title>Node1&#45;&gt;Node6</title>
<path fill="none" stroke="midnightblue" d="M177.708,-112.444C200.355,-103.517 236.072,-89.4387 261.752,-79.3168"/>
<polygon fill="midnightblue" stroke="midnightblue" points="263.374,-82.4397 271.394,-75.5164 260.807,-75.9273 263.374,-82.4397"/>
</g>
<!-- Node4 -->
<g id="node4" class="node"><title>Node4</title>
<polygon fill="white" stroke="#bfbfbf" points="27,-0.5 27,-19.5 139,-19.5 139,-0.5 27,-0.5"/>
<text text-anchor="middle" x="83" y="-7.5" font-family="Helvetica,sans-Serif" font-size="10.00">omniORB4/CORBA.h</text>
</g>
<!-- Node3&#45;&gt;Node4 -->
<g id="edge3" class="edge"><title>Node3&#45;&gt;Node4</title>
<path fill="none" stroke="midnightblue" d="M107.211,-56.083C103.242,-48.6913 97.4749,-37.9533 92.5652,-28.8111"/>
<polygon fill="midnightblue" stroke="midnightblue" points="95.5145,-26.9051 87.6997,-19.7511 89.3475,-30.217 95.5145,-26.9051"/>
</g>
<!-- Node3&#45;&gt;Node5 -->
<g id="edge4" class="edge"><title>Node3&#45;&gt;Node5</title>
<path fill="none" stroke="midnightblue" d="M126.139,-56.324C139.866,-47.9002 160.936,-34.9709 177.064,-25.0741"/>
<polygon fill="midnightblue" stroke="midnightblue" points="179.204,-27.8678 185.896,-19.6545 175.543,-21.9016 179.204,-27.8678"/>
</g>
</g>
</svg>
