<?xml version="1.0" encoding="UTF-8" standalone="no"?>
<!DOCTYPE svg PUBLIC "-//W3C//DTD SVG 1.1//EN"
 "http://www.w3.org/Graphics/SVG/1.1/DTD/svg11.dtd">
<!-- Generated by graphviz version 2.36.0 (20140111.2315)
 -->
<!-- Title: orb&#45;singleton.hh Pages: 1 -->
<svg width="452pt" height="96pt"
 viewBox="0.00 0.00 452.00 96.00" xmlns="http://www.w3.org/2000/svg" xmlns:xlink="http://www.w3.org/1999/xlink">
<g id="graph0" class="graph" transform="scale(1 1) rotate(0) translate(4 92)">
<title>orb&#45;singleton.hh</title>
<polygon fill="white" stroke="none" points="-4,4 -4,-92 448,-92 448,4 -4,4"/>
<!-- Node1 -->
<g id="node1" class="node"><title>Node1</title>
<polygon fill="#bfbfbf" stroke="black" points="146,-68.5 146,-87.5 232,-87.5 232,-68.5 146,-68.5"/>
<text text-anchor="middle" x="189" y="-75.5" font-family="Helvetica,sans-Serif" font-size="10.00">orb&#45;singleton.hh</text>
</g>
<!-- Node2 -->
<g id="node2" class="node"><title>Node2</title>
<polygon fill="white" stroke="#bfbfbf" points="0,-6.5 0,-25.5 54,-25.5 54,-6.5 0,-6.5"/>
<text text-anchor="middle" x="27" y="-13.5" font-family="Helvetica,sans-Serif" font-size="10.00">iostream</text>
</g>
<!-- Node1&#45;&gt;Node2 -->
<g id="edge1" class="edge"><title>Node1&#45;&gt;Node2</title>
<path fill="none" stroke="midnightblue" d="M163.757,-68.4155C138.217,-59.6294 97.6648,-45.4016 63,-32 60.8962,-31.1867 58.7304,-30.331 56.5542,-29.4578"/>
<polygon fill="midnightblue" stroke="midnightblue" points="57.6891,-26.1406 47.1083,-25.5942 55.039,-32.6196 57.6891,-26.1406"/>
</g>
<!-- Node3 -->
<g id="node3" class="node"><title>Node3</title>
<polygon fill="white" stroke="#bfbfbf" points="72,-6.5 72,-25.5 184,-25.5 184,-6.5 72,-6.5"/>
<text text-anchor="middle" x="128" y="-13.5" font-family="Helvetica,sans-Serif" font-size="10.00">omniORB4/CORBA.h</text>
</g>
<!-- Node1&#45;&gt;Node3 -->
<g id="edge2" class="edge"><title>Node1&#45;&gt;Node3</title>
<path fill="none" stroke="midnightblue" d="M180.26,-68.4035C170.838,-59.1361 155.636,-44.1828 144.051,-32.7876"/>
<polygon fill="midnightblue" stroke="midnightblue" points="146.307,-30.0978 136.724,-25.5806 141.399,-35.0883 146.307,-30.0978"/>
</g>
<!-- Node4 -->
<g id="node4" class="node"><title>Node4</title>
<polygon fill="white" stroke="#bfbfbf" points="202.5,-1 202.5,-31 297.5,-31 297.5,-1 202.5,-1"/>
<text text-anchor="start" x="210.5" y="-19" font-family="Helvetica,sans-Serif" font-size="10.00">boost/serialization</text>
<text text-anchor="middle" x="250" y="-8" font-family="Helvetica,sans-Serif" font-size="10.00">/singleton.hpp</text>
</g>
<!-- Node1&#45;&gt;Node4 -->
<g id="edge3" class="edge"><title>Node1&#45;&gt;Node4</title>
<path fill="none" stroke="midnightblue" d="M197.74,-68.4035C205.693,-60.5811 217.764,-48.7077 228.302,-38.3424"/>
<polygon fill="midnightblue" stroke="midnightblue" points="230.949,-40.6485 235.624,-31.1408 226.04,-35.658 230.949,-40.6485"/>
</g>
<!-- Node5 -->
<g id="node5" class="node"><title>Node5</title>
<polygon fill="white" stroke="#bfbfbf" points="315.5,-6.5 315.5,-25.5 444.5,-25.5 444.5,-6.5 315.5,-6.5"/>
<text text-anchor="middle" x="380" y="-13.5" font-family="Helvetica,sans-Serif" font-size="10.00">hpp/corbaserver/config.hh</text>
</g>
<!-- Node1&#45;&gt;Node5 -->
<g id="edge4" class="edge"><title>Node1&#45;&gt;Node5</title>
<path fill="none" stroke="midnightblue" d="M216.366,-68.4035C249.554,-57.9777 305.651,-40.3557 342.758,-28.6992"/>
<polygon fill="midnightblue" stroke="midnightblue" points="344.194,-31.9167 352.685,-25.5806 342.096,-25.2385 344.194,-31.9167"/>
</g>
</g>
</svg>
