<?xml version="1.0" encoding="UTF-8" standalone="no"?>
<!DOCTYPE svg PUBLIC "-//W3C//DTD SVG 1.1//EN"
 "http://www.w3.org/Graphics/SVG/1.1/DTD/svg11.dtd">
<!-- Generated by graphviz version 2.36.0 (20140111.2315)
 -->
<!-- Title: Graphical Class Hierarchy Pages: 1 -->
<svg width="422pt" height="131pt"
 viewBox="0.00 0.00 422.00 131.00" xmlns="http://www.w3.org/2000/svg" xmlns:xlink="http://www.w3.org/1999/xlink">
<g id="graph0" class="graph" transform="scale(1 1) rotate(0) translate(4 127)">
<title>Graphical Class Hierarchy</title>
<polygon fill="white" stroke="none" points="-4,4 -4,-127 418,-127 418,4 -4,4"/>
<!-- Node1 -->
<g id="node1" class="node"><title>Node1</title>
<polygon fill="white" stroke="#bfbfbf" points="0.5,-49.5 0.5,-68.5 43.5,-68.5 43.5,-49.5 0.5,-49.5"/>
<text text-anchor="middle" x="22" y="-56.5" font-family="Helvetica,sans-Serif" font-size="10.00">object</text>
</g>
<!-- Node2 -->
<g id="node2" class="node"><title>Node2</title>
<g id="a_node2"><a xlink:href="a00002.html" target="_top" xlink:title="class to do benchmarking ">
<polygon fill="white" stroke="black" points="80,-93 80,-123 220,-123 220,-93 80,-93"/>
<text text-anchor="start" x="88" y="-111" font-family="Helvetica,sans-Serif" font-size="10.00">hpp.corbaserver.benchmark.</text>
<text text-anchor="middle" x="150" y="-100" font-family="Helvetica,sans-Serif" font-size="10.00">Benchmark</text>
</a>
</g>
</g>
<!-- Node1&#45;&gt;Node2 -->
<g id="edge1" class="edge"><title>Node1&#45;&gt;Node2</title>
<path fill="none" stroke="midnightblue" d="M53.0818,-72.0032C61.7347,-75.6517 71.2097,-79.5596 80,-83 88.424,-86.2971 97.4828,-89.6883 106.176,-92.8679"/>
<polygon fill="midnightblue" stroke="midnightblue" points="54.3144,-68.7241 43.7422,-68.0329 51.5759,-75.1662 54.3144,-68.7241"/>
</g>
<!-- Node3 -->
<g id="node3" class="node"><title>Node3</title>
<g id="a_node3"><a xlink:href="a00010.html" target="_top" xlink:title="Definition of a path planning problem. ">
<polygon fill="white" stroke="black" points="88,-44 88,-74 212,-74 212,-44 88,-44"/>
<text text-anchor="start" x="96" y="-62" font-family="Helvetica,sans-Serif" font-size="10.00">hpp.corbaserver.problem</text>
<text text-anchor="middle" x="150" y="-51" font-family="Helvetica,sans-Serif" font-size="10.00">_solver.ProblemSolver</text>
</a>
</g>
</g>
<!-- Node1&#45;&gt;Node3 -->
<g id="edge2" class="edge"><title>Node1&#45;&gt;Node3</title>
<path fill="none" stroke="midnightblue" d="M53.6856,-59C64.0614,-59 76.0407,-59 87.9283,-59"/>
<polygon fill="midnightblue" stroke="midnightblue" points="53.5245,-55.5001 43.5245,-59 53.5245,-62.5001 53.5245,-55.5001"/>
</g>
<!-- Node4 -->
<g id="node4" class="node"><title>Node4</title>
<g id="a_node4"><a xlink:href="a00013.html" target="_top" xlink:title="Helper class to load a robot model in hpp::core::ProblemSolver. ">
<polygon fill="white" stroke="black" points="80,-5.5 80,-24.5 220,-24.5 220,-5.5 80,-5.5"/>
<text text-anchor="middle" x="150" y="-12.5" font-family="Helvetica,sans-Serif" font-size="10.00">hpp.corbaserver.robot.Robot</text>
</a>
</g>
</g>
<!-- Node1&#45;&gt;Node4 -->
<g id="edge3" class="edge"><title>Node1&#45;&gt;Node4</title>
<path fill="none" stroke="midnightblue" d="M52.9423,-45.6222C61.593,-41.968 71.1018,-38.1508 80,-35 90.5812,-31.2532 102.251,-27.6689 112.935,-24.596"/>
<polygon fill="midnightblue" stroke="midnightblue" points="51.4204,-42.4668 43.6183,-49.6346 54.1874,-48.8967 51.4204,-42.4668"/>
</g>
<!-- Node5 -->
<g id="node5" class="node"><title>Node5</title>
<g id="a_node5"><a xlink:href="a00006.html" target="_top" xlink:title="Humanoid robot. ">
<polygon fill="white" stroke="black" points="256,-0 256,-30 414,-30 414,-0 256,-0"/>
<text text-anchor="start" x="264" y="-18" font-family="Helvetica,sans-Serif" font-size="10.00">hpp.corbaserver.robot.Humanoid</text>
<text text-anchor="middle" x="335" y="-7" font-family="Helvetica,sans-Serif" font-size="10.00">Robot</text>
</a>
</g>
</g>
<!-- Node4&#45;&gt;Node5 -->
<g id="edge4" class="edge"><title>Node4&#45;&gt;Node5</title>
<path fill="none" stroke="midnightblue" d="M230.387,-15C238.825,-15 247.402,-15 255.825,-15"/>
<polygon fill="midnightblue" stroke="midnightblue" points="230.184,-11.5001 220.184,-15 230.184,-18.5001 230.184,-11.5001"/>
</g>
</g>
</svg>
