<?xml version="1.0" encoding="UTF-8" standalone="no"?>
<!DOCTYPE svg PUBLIC "-//W3C//DTD SVG 1.1//EN"
 "http://www.w3.org/Graphics/SVG/1.1/DTD/svg11.dtd">
<!-- Generated by graphviz version 2.36.0 (20140111.2315)
 -->
<!-- Title: position.hh Pages: 1 -->
<svg width="435pt" height="220pt"
 viewBox="0.00 0.00 435.00 220.00" xmlns="http://www.w3.org/2000/svg" xmlns:xlink="http://www.w3.org/1999/xlink">
<g id="graph0" class="graph" transform="scale(1 1) rotate(0) translate(4 216)">
<title>position.hh</title>
<polygon fill="white" stroke="none" points="-4,4 -4,-216 431,-216 431,4 -4,4"/>
<!-- Node1 -->
<g id="node1" class="node"><title>Node1</title>
<polygon fill="#bfbfbf" stroke="black" points="102,-192.5 102,-211.5 166,-211.5 166,-192.5 102,-192.5"/>
<text text-anchor="middle" x="134" y="-199.5" font-family="Helvetica,sans-Serif" font-size="10.00">position.hh</text>
</g>
<!-- Node2 -->
<g id="node2" class="node"><title>Node2</title>
<g id="a_node2"><a doxygen="https://jmirabel.github.io/hpp-doc/api/hpp-manipulation/doxygen-html/hpp-manipulation.doxytag:https://jmirabel.github.io/hpp-doc/api/hpp-manipulation/doxygen-html/" xlink:href="https://jmirabel.github.io/hpp-doc/api/hpp-manipulation/doxygen-html/a00001.html" target="_top" xlink:title="hpp/manipulation/fwd.hh">
<polygon fill="white" stroke="black" points="0,-0.5 0,-19.5 122,-19.5 122,-0.5 0,-0.5"/>
<text text-anchor="middle" x="61" y="-7.5" font-family="Helvetica,sans-Serif" font-size="10.00">hpp/manipulation/fwd.hh</text>
</a>
</g>
</g>
<!-- Node1&#45;&gt;Node2 -->
<g id="edge1" class="edge"><title>Node1&#45;&gt;Node2</title>
<path fill="none" stroke="midnightblue" d="M130.674,-192.342C119.534,-163.348 83.3789,-69.2463 68.0128,-29.2525"/>
<polygon fill="midnightblue" stroke="midnightblue" points="71.1996,-27.7879 64.3459,-19.7085 64.6653,-30.2985 71.1996,-27.7879"/>
</g>
<!-- Node3 -->
<g id="node3" class="node"><title>Node3</title>
<g id="a_node3"><a xlink:href="a00020.html" target="_top" xlink:title="hpp/manipulation/parser\l/factories/sequence.hh">
<polygon fill="white" stroke="black" points="133,-125 133,-155 253,-155 253,-125 133,-125"/>
<text text-anchor="start" x="141" y="-143" font-family="Helvetica,sans-Serif" font-size="10.00">hpp/manipulation/parser</text>
<text text-anchor="middle" x="193" y="-132" font-family="Helvetica,sans-Serif" font-size="10.00">/factories/sequence.hh</text>
</a>
</g>
</g>
<!-- Node1&#45;&gt;Node3 -->
<g id="edge2" class="edge"><title>Node1&#45;&gt;Node3</title>
<path fill="none" stroke="midnightblue" d="M142.453,-192.403C150.145,-184.581 161.821,-172.708 172.013,-162.342"/>
<polygon fill="midnightblue" stroke="midnightblue" points="174.579,-164.725 179.095,-155.141 169.588,-159.817 174.579,-164.725"/>
</g>
<!-- Node4 -->
<g id="node4" class="node"><title>Node4</title>
<g id="a_node4"><a xlink:href="a00017.html" target="_top" xlink:title="hpp/manipulation/parser\l/parser.hh">
<polygon fill="white" stroke="black" points="148,-57 148,-87 268,-87 268,-57 148,-57"/>
<text text-anchor="start" x="156" y="-75" font-family="Helvetica,sans-Serif" font-size="10.00">hpp/manipulation/parser</text>
<text text-anchor="middle" x="208" y="-64" font-family="Helvetica,sans-Serif" font-size="10.00">/parser.hh</text>
</a>
</g>
</g>
<!-- Node3&#45;&gt;Node4 -->
<g id="edge3" class="edge"><title>Node3&#45;&gt;Node4</title>
<path fill="none" stroke="midnightblue" d="M196.255,-124.679C198.083,-116.636 200.413,-106.385 202.514,-97.1369"/>
<polygon fill="midnightblue" stroke="midnightblue" points="205.948,-97.8201 204.752,-87.2931 199.122,-96.2687 205.948,-97.8201"/>
</g>
<!-- Node4&#45;&gt;Node2 -->
<g id="edge9" class="edge"><title>Node4&#45;&gt;Node2</title>
<path fill="none" stroke="midnightblue" d="M173.535,-56.9327C148.624,-46.7648 115.285,-33.157 91.3709,-23.3963"/>
<polygon fill="midnightblue" stroke="midnightblue" points="92.6512,-20.1386 82.0701,-19.6 90.0059,-26.6195 92.6512,-20.1386"/>
</g>
<!-- Node5 -->
<g id="node5" class="node"><title>Node5</title>
<polygon fill="white" stroke="#bfbfbf" points="140.5,-0.5 140.5,-19.5 175.5,-19.5 175.5,-0.5 140.5,-0.5"/>
<text text-anchor="middle" x="158" y="-7.5" font-family="Helvetica,sans-Serif" font-size="10.00">map</text>
</g>
<!-- Node4&#45;&gt;Node5 -->
<g id="edge4" class="edge"><title>Node4&#45;&gt;Node5</title>
<path fill="none" stroke="midnightblue" d="M196.151,-56.7808C188.81,-47.9722 179.355,-36.6262 171.694,-27.4332"/>
<polygon fill="midnightblue" stroke="midnightblue" points="174.366,-25.1721 165.275,-19.7305 168.989,-29.6534 174.366,-25.1721"/>
</g>
<!-- Node6 -->
<g id="node6" class="node"><title>Node6</title>
<polygon fill="white" stroke="#bfbfbf" points="193.5,-0.5 193.5,-19.5 222.5,-19.5 222.5,-0.5 193.5,-0.5"/>
<text text-anchor="middle" x="208" y="-7.5" font-family="Helvetica,sans-Serif" font-size="10.00">list</text>
</g>
<!-- Node4&#45;&gt;Node6 -->
<g id="edge5" class="edge"><title>Node4&#45;&gt;Node6</title>
<path fill="none" stroke="midnightblue" d="M208,-56.7808C208,-48.7812 208,-38.6887 208,-30.0168"/>
<polygon fill="midnightblue" stroke="midnightblue" points="211.5,-29.7305 208,-19.7305 204.5,-29.7306 211.5,-29.7305"/>
</g>
<!-- Node7 -->
<g id="node7" class="node"><title>Node7</title>
<polygon fill="white" stroke="#bfbfbf" points="240.5,-0.5 240.5,-19.5 281.5,-19.5 281.5,-0.5 240.5,-0.5"/>
<text text-anchor="middle" x="261" y="-7.5" font-family="Helvetica,sans-Serif" font-size="10.00">string</text>
</g>
<!-- Node4&#45;&gt;Node7 -->
<g id="edge6" class="edge"><title>Node4&#45;&gt;Node7</title>
<path fill="none" stroke="midnightblue" d="M220.56,-56.7808C228.341,-47.9722 238.364,-36.6262 246.484,-27.4332"/>
<polygon fill="midnightblue" stroke="midnightblue" points="249.291,-29.5424 253.288,-19.7305 244.044,-24.9082 249.291,-29.5424"/>
</g>
<!-- Node8 -->
<g id="node8" class="node"><title>Node8</title>
<polygon fill="white" stroke="#bfbfbf" points="300,-0.5 300,-19.5 354,-19.5 354,-0.5 300,-0.5"/>
<text text-anchor="middle" x="327" y="-7.5" font-family="Helvetica,sans-Serif" font-size="10.00">iostream</text>
</g>
<!-- Node4&#45;&gt;Node8 -->
<g id="edge7" class="edge"><title>Node4&#45;&gt;Node8</title>
<path fill="none" stroke="midnightblue" d="M235.9,-56.9327C255.529,-47.0359 281.621,-33.8803 300.849,-24.1852"/>
<polygon fill="midnightblue" stroke="midnightblue" points="302.59,-27.2274 309.943,-19.6 299.438,-20.977 302.59,-27.2274"/>
</g>
<!-- Node9 -->
<g id="node9" class="node"><title>Node9</title>
<polygon fill="white" stroke="#bfbfbf" points="372,-0.5 372,-19.5 428,-19.5 428,-0.5 372,-0.5"/>
<text text-anchor="middle" x="400" y="-7.5" font-family="Helvetica,sans-Serif" font-size="10.00">tinyxml.h</text>
</g>
<!-- Node4&#45;&gt;Node9 -->
<g id="edge8" class="edge"><title>Node4&#45;&gt;Node9</title>
<path fill="none" stroke="midnightblue" d="M253.015,-56.9327C286.52,-46.4624 331.697,-32.3445 363.085,-22.5358"/>
<polygon fill="midnightblue" stroke="midnightblue" points="364.259,-25.8362 372.759,-19.5127 362.171,-19.1548 364.259,-25.8362"/>
</g>
</g>
</svg>
