<?xml version="1.0" encoding="UTF-8" standalone="no"?>
<!DOCTYPE svg PUBLIC "-//W3C//DTD SVG 1.1//EN"
 "http://www.w3.org/Graphics/SVG/1.1/DTD/svg11.dtd">
<!-- Generated by graphviz version 2.36.0 (20140111.2315)
 -->
<!-- Title: contact.hh Pages: 1 -->
<svg width="494pt" height="220pt"
 viewBox="0.00 0.00 494.00 220.00" xmlns="http://www.w3.org/2000/svg" xmlns:xlink="http://www.w3.org/1999/xlink">
<g id="graph0" class="graph" transform="scale(1 1) rotate(0) translate(4 216)">
<title>contact.hh</title>
<polygon fill="white" stroke="none" points="-4,4 -4,-216 490,-216 490,4 -4,4"/>
<!-- Node1 -->
<g id="node1" class="node"><title>Node1</title>
<polygon fill="#bfbfbf" stroke="black" points="200,-192.5 200,-211.5 262,-211.5 262,-192.5 200,-192.5"/>
<text text-anchor="middle" x="231" y="-199.5" font-family="Helvetica,sans-Serif" font-size="10.00">contact.hh</text>
</g>
<!-- Node2 -->
<g id="node2" class="node"><title>Node2</title>
<g id="a_node2"><a doxygen="https://jmirabel.github.io/hpp-doc/api/hpp-manipulation/doxygen-html/hpp-manipulation.doxytag:https://jmirabel.github.io/hpp-doc/api/hpp-manipulation/doxygen-html/" xlink:href="https://jmirabel.github.io/hpp-doc/api/hpp-manipulation/doxygen-html/a00001.html" target="_top" xlink:title="hpp/manipulation/fwd.hh">
<polygon fill="white" stroke="black" points="0,-0.5 0,-19.5 122,-19.5 122,-0.5 0,-0.5"/>
<text text-anchor="middle" x="61" y="-7.5" font-family="Helvetica,sans-Serif" font-size="10.00">hpp/manipulation/fwd.hh</text>
</a>
</g>
</g>
<!-- Node1&#45;&gt;Node2 -->
<g id="edge1" class="edge"><title>Node1&#45;&gt;Node2</title>
<path fill="none" stroke="midnightblue" d="M199.782,-199.02C146.662,-194.93 42.2658,-183.515 20,-156 -11.1696,-117.482 26.2272,-56.5867 47.7926,-27.5116"/>
<polygon fill="midnightblue" stroke="midnightblue" points="50.575,-29.6349 53.8836,-19.5699 45.0205,-25.3748 50.575,-29.6349"/>
</g>
<!-- Node3 -->
<g id="node3" class="node"><title>Node3</title>
<polygon fill="white" stroke="#bfbfbf" points="29.5,-130.5 29.5,-149.5 152.5,-149.5 152.5,-130.5 29.5,-130.5"/>
<text text-anchor="middle" x="91" y="-137.5" font-family="Helvetica,sans-Serif" font-size="10.00">hpp/fcl/math/transform.h</text>
</g>
<!-- Node1&#45;&gt;Node3 -->
<g id="edge2" class="edge"><title>Node1&#45;&gt;Node3</title>
<path fill="none" stroke="midnightblue" d="M210.941,-192.403C187.238,-182.245 147.594,-165.255 120.417,-153.607"/>
<polygon fill="midnightblue" stroke="midnightblue" points="121.592,-150.303 111.021,-149.581 118.834,-156.737 121.592,-150.303"/>
</g>
<!-- Node4 -->
<g id="node4" class="node"><title>Node4</title>
<polygon fill="white" stroke="#bfbfbf" points="170.5,-125 170.5,-155 291.5,-155 291.5,-125 170.5,-125"/>
<text text-anchor="start" x="178.5" y="-143" font-family="Helvetica,sans-Serif" font-size="10.00">hpp/fcl/shape/geometric</text>
<text text-anchor="middle" x="231" y="-132" font-family="Helvetica,sans-Serif" font-size="10.00">_shapes.h</text>
</g>
<!-- Node1&#45;&gt;Node4 -->
<g id="edge3" class="edge"><title>Node1&#45;&gt;Node4</title>
<path fill="none" stroke="midnightblue" d="M231,-192.403C231,-185.341 231,-174.975 231,-165.399"/>
<polygon fill="midnightblue" stroke="midnightblue" points="234.5,-165.141 231,-155.141 227.5,-165.141 234.5,-165.141"/>
</g>
<!-- Node5 -->
<g id="node5" class="node"><title>Node5</title>
<g id="a_node5"><a xlink:href="a00017.html" target="_top" xlink:title="hpp/manipulation/parser\l/parser.hh">
<polygon fill="white" stroke="black" points="260,-57 260,-87 380,-87 380,-57 260,-57"/>
<text text-anchor="start" x="268" y="-75" font-family="Helvetica,sans-Serif" font-size="10.00">hpp/manipulation/parser</text>
<text text-anchor="middle" x="320" y="-64" font-family="Helvetica,sans-Serif" font-size="10.00">/parser.hh</text>
</a>
</g>
</g>
<!-- Node1&#45;&gt;Node5 -->
<g id="edge4" class="edge"><title>Node1&#45;&gt;Node5</title>
<path fill="none" stroke="midnightblue" d="M252.245,-192.358C267.776,-184.96 288.123,-172.825 300,-156 312.175,-138.752 316.994,-115.003 318.872,-97.3261"/>
<polygon fill="midnightblue" stroke="midnightblue" points="322.372,-97.4699 319.702,-87.2171 315.396,-96.8973 322.372,-97.4699"/>
</g>
<!-- Node11 -->
<g id="node11" class="node"><title>Node11</title>
<g id="a_node11"><a xlink:href="a00020.html" target="_top" xlink:title="hpp/manipulation/parser\l/factories/sequence.hh">
<polygon fill="white" stroke="black" points="348,-125 348,-155 468,-155 468,-125 348,-125"/>
<text text-anchor="start" x="356" y="-143" font-family="Helvetica,sans-Serif" font-size="10.00">hpp/manipulation/parser</text>
<text text-anchor="middle" x="408" y="-132" font-family="Helvetica,sans-Serif" font-size="10.00">/factories/sequence.hh</text>
</a>
</g>
</g>
<!-- Node1&#45;&gt;Node11 -->
<g id="edge11" class="edge"><title>Node1&#45;&gt;Node11</title>
<path fill="none" stroke="midnightblue" d="M256.36,-192.403C282.547,-183.526 324.125,-169.432 357.126,-158.245"/>
<polygon fill="midnightblue" stroke="midnightblue" points="358.278,-161.551 366.625,-155.025 356.031,-154.921 358.278,-161.551"/>
</g>
<!-- Node5&#45;&gt;Node2 -->
<g id="edge10" class="edge"><title>Node5&#45;&gt;Node2</title>
<path fill="none" stroke="midnightblue" d="M259.929,-57.084C213.584,-46.3476 150.394,-31.7091 107.772,-21.8351"/>
<polygon fill="midnightblue" stroke="midnightblue" points="108.468,-18.4039 97.9364,-19.5567 106.888,-25.2233 108.468,-18.4039"/>
</g>
<!-- Node6 -->
<g id="node6" class="node"><title>Node6</title>
<polygon fill="white" stroke="#bfbfbf" points="199.5,-0.5 199.5,-19.5 234.5,-19.5 234.5,-0.5 199.5,-0.5"/>
<text text-anchor="middle" x="217" y="-7.5" font-family="Helvetica,sans-Serif" font-size="10.00">map</text>
</g>
<!-- Node5&#45;&gt;Node6 -->
<g id="edge5" class="edge"><title>Node5&#45;&gt;Node6</title>
<path fill="none" stroke="midnightblue" d="M295.851,-56.9327C279.25,-47.2619 257.306,-34.4793 240.784,-24.8546"/>
<polygon fill="midnightblue" stroke="midnightblue" points="242.166,-21.6093 231.763,-19.6 238.642,-27.6579 242.166,-21.6093"/>
</g>
<!-- Node7 -->
<g id="node7" class="node"><title>Node7</title>
<polygon fill="white" stroke="#bfbfbf" points="252.5,-0.5 252.5,-19.5 281.5,-19.5 281.5,-0.5 252.5,-0.5"/>
<text text-anchor="middle" x="267" y="-7.5" font-family="Helvetica,sans-Serif" font-size="10.00">list</text>
</g>
<!-- Node5&#45;&gt;Node7 -->
<g id="edge6" class="edge"><title>Node5&#45;&gt;Node7</title>
<path fill="none" stroke="midnightblue" d="M307.44,-56.7808C299.659,-47.9722 289.636,-36.6262 281.516,-27.4332"/>
<polygon fill="midnightblue" stroke="midnightblue" points="283.956,-24.9082 274.712,-19.7305 278.709,-29.5424 283.956,-24.9082"/>
</g>
<!-- Node8 -->
<g id="node8" class="node"><title>Node8</title>
<polygon fill="white" stroke="#bfbfbf" points="299.5,-0.5 299.5,-19.5 340.5,-19.5 340.5,-0.5 299.5,-0.5"/>
<text text-anchor="middle" x="320" y="-7.5" font-family="Helvetica,sans-Serif" font-size="10.00">string</text>
</g>
<!-- Node5&#45;&gt;Node8 -->
<g id="edge7" class="edge"><title>Node5&#45;&gt;Node8</title>
<path fill="none" stroke="midnightblue" d="M320,-56.7808C320,-48.7812 320,-38.6887 320,-30.0168"/>
<polygon fill="midnightblue" stroke="midnightblue" points="323.5,-29.7305 320,-19.7305 316.5,-29.7306 323.5,-29.7305"/>
</g>
<!-- Node9 -->
<g id="node9" class="node"><title>Node9</title>
<polygon fill="white" stroke="#bfbfbf" points="359,-0.5 359,-19.5 413,-19.5 413,-0.5 359,-0.5"/>
<text text-anchor="middle" x="386" y="-7.5" font-family="Helvetica,sans-Serif" font-size="10.00">iostream</text>
</g>
<!-- Node5&#45;&gt;Node9 -->
<g id="edge8" class="edge"><title>Node5&#45;&gt;Node9</title>
<path fill="none" stroke="midnightblue" d="M335.641,-56.7808C345.627,-47.7026 358.578,-35.9291 368.845,-26.5951"/>
<polygon fill="midnightblue" stroke="midnightblue" points="371.351,-29.0471 376.396,-19.7305 366.643,-23.8675 371.351,-29.0471"/>
</g>
<!-- Node10 -->
<g id="node10" class="node"><title>Node10</title>
<polygon fill="white" stroke="#bfbfbf" points="431,-0.5 431,-19.5 487,-19.5 487,-0.5 431,-0.5"/>
<text text-anchor="middle" x="459" y="-7.5" font-family="Helvetica,sans-Serif" font-size="10.00">tinyxml.h</text>
</g>
<!-- Node5&#45;&gt;Node10 -->
<g id="edge9" class="edge"><title>Node5&#45;&gt;Node10</title>
<path fill="none" stroke="midnightblue" d="M352.589,-56.9327C375.936,-46.8552 407.11,-33.3986 429.677,-23.6575"/>
<polygon fill="midnightblue" stroke="midnightblue" points="431.283,-26.7766 439.077,-19.6 428.508,-20.3498 431.283,-26.7766"/>
</g>
<!-- Node11&#45;&gt;Node5 -->
<g id="edge12" class="edge"><title>Node11&#45;&gt;Node5</title>
<path fill="none" stroke="midnightblue" d="M388.905,-124.679C376.598,-115.449 360.414,-103.311 346.824,-93.1181"/>
<polygon fill="midnightblue" stroke="midnightblue" points="348.855,-90.2664 338.755,-87.0663 344.655,-95.8664 348.855,-90.2664"/>
</g>
</g>
</svg>
