<?xml version="1.0" encoding="UTF-8" standalone="no"?>
<!DOCTYPE svg PUBLIC "-//W3C//DTD SVG 1.1//EN"
 "http://www.w3.org/Graphics/SVG/1.1/DTD/svg11.dtd">
<!-- Generated by graphviz version 2.36.0 (20140111.2315)
 -->
<!-- Title: hpp::manipulation::srdf::HandleFactory&lt; HandleType &gt; Pages: 1 -->
<svg width="181pt" height="188pt"
 viewBox="0.00 0.00 181.00 188.00" xmlns="http://www.w3.org/2000/svg" xmlns:xlink="http://www.w3.org/1999/xlink">
<g id="graph0" class="graph" transform="scale(1 1) rotate(0) translate(4 184)">
<title>hpp::manipulation::srdf::HandleFactory&lt; HandleType &gt;</title>
<polygon fill="white" stroke="none" points="-4,4 -4,-184 177,-184 177,4 -4,4"/>
<!-- Node1 -->
<g id="node1" class="node"><title>Node1</title>
<polygon fill="#bfbfbf" stroke="black" points="17.5,-0.5 17.5,-41.5 120.5,-41.5 120.5,-0.5 17.5,-0.5"/>
<text text-anchor="start" x="25.5" y="-29.5" font-family="Helvetica,sans-Serif" font-size="10.00">hpp::manipulation::</text>
<text text-anchor="start" x="25.5" y="-18.5" font-family="Helvetica,sans-Serif" font-size="10.00">srdf::HandleFactory</text>
<text text-anchor="middle" x="69" y="-7.5" font-family="Helvetica,sans-Serif" font-size="10.00">&lt; HandleType &gt;</text>
</g>
<!-- Node2 -->
<g id="node2" class="node"><title>Node2</title>
<polygon fill="white" stroke="#bfbfbf" points="0,-90.5 0,-109.5 78,-109.5 78,-90.5 0,-90.5"/>
<text text-anchor="middle" x="39" y="-97.5" font-family="Helvetica,sans-Serif" font-size="10.00">ObjectFactory</text>
</g>
<!-- Node2&#45;&gt;Node1 -->
<g id="edge1" class="edge"><title>Node2&#45;&gt;Node1</title>
<path fill="none" stroke="midnightblue" d="M46.0628,-80.8722C50.6392,-69.1262 56.6,-53.8267 61.298,-41.7685"/>
<polygon fill="midnightblue" stroke="midnightblue" points="42.6943,-79.877 42.3251,-90.4655 49.2167,-82.4183 42.6943,-79.877"/>
</g>
<!-- Node3 -->
<g id="node3" class="node"><title>Node3</title>
<g id="a_node3"><a xlink:title="STL class. ">
<polygon fill="white" stroke="#bfbfbf" points="96,-90.5 96,-109.5 156,-109.5 156,-90.5 96,-90.5"/>
<text text-anchor="middle" x="126" y="-97.5" font-family="Helvetica,sans-Serif" font-size="10.00">std::string</text>
</a>
</g>
</g>
<!-- Node3&#45;&gt;Node1 -->
<g id="edge2" class="edge"><title>Node3&#45;&gt;Node1</title>
<path fill="none" stroke="#9a32cd" stroke-dasharray="5,2" d="M113.632,-82.2923C104.814,-70.3805 92.9243,-54.3188 83.6338,-41.7685"/>
<polygon fill="#9a32cd" stroke="#9a32cd" points="110.919,-84.5104 119.682,-90.4655 116.546,-80.3456 110.919,-84.5104"/>
<text text-anchor="middle" x="130" y="-63.5" font-family="Helvetica,sans-Serif" font-size="10.00"> linkName_</text>
</g>
<!-- Node4 -->
<g id="node4" class="node"><title>Node4</title>
<g id="a_node4"><a xlink:title="STL class. ">
<polygon fill="white" stroke="#bfbfbf" points="78.5,-149 78.5,-179 173.5,-179 173.5,-149 78.5,-149"/>
<text text-anchor="start" x="86.5" y="-167" font-family="Helvetica,sans-Serif" font-size="10.00">std::basic_string&lt;</text>
<text text-anchor="middle" x="126" y="-156" font-family="Helvetica,sans-Serif" font-size="10.00"> char &gt;</text>
</a>
</g>
</g>
<!-- Node4&#45;&gt;Node3 -->
<g id="edge3" class="edge"><title>Node4&#45;&gt;Node3</title>
<path fill="none" stroke="midnightblue" d="M126,-138.871C126,-128.663 126,-117.408 126,-109.842"/>
<polygon fill="midnightblue" stroke="midnightblue" points="122.5,-138.931 126,-148.931 129.5,-138.931 122.5,-138.931"/>
</g>
</g>
</svg>
