<?xml version="1.0" encoding="UTF-8" standalone="no"?>
<!DOCTYPE svg PUBLIC "-//W3C//DTD SVG 1.1//EN"
 "http://www.w3.org/Graphics/SVG/1.1/DTD/svg11.dtd">
<!-- Generated by graphviz version 2.36.0 (20140111.2315)
 -->
<!-- Title: hpp::manipulation::srdf::PositionFactory Pages: 1 -->
<svg width="134pt" height="186pt"
 viewBox="0.00 0.00 134.00 186.00" xmlns="http://www.w3.org/2000/svg" xmlns:xlink="http://www.w3.org/1999/xlink">
<g id="graph0" class="graph" transform="scale(1 1) rotate(0) translate(4 182)">
<title>hpp::manipulation::srdf::PositionFactory</title>
<polygon fill="white" stroke="none" points="-4,4 -4,-182 130,-182 130,4 -4,4"/>
<!-- Node1 -->
<g id="node1" class="node"><title>Node1</title>
<polygon fill="#bfbfbf" stroke="black" points="9.5,-1 9.5,-31 116.5,-31 116.5,-1 9.5,-1"/>
<text text-anchor="start" x="17.5" y="-19" font-family="Helvetica,sans-Serif" font-size="10.00">hpp::manipulation::</text>
<text text-anchor="middle" x="63" y="-8" font-family="Helvetica,sans-Serif" font-size="10.00">srdf::PositionFactory</text>
</g>
<!-- Node2 -->
<g id="node2" class="node"><title>Node2</title>
<g id="a_node2"><a xlink:href="a00011.html" target="_top" xlink:title="hpp::manipulation::\lparser::SequenceFactory\l\&lt; float \&gt;">
<polygon fill="white" stroke="black" points="0,-68.5 0,-109.5 126,-109.5 126,-68.5 0,-68.5"/>
<text text-anchor="start" x="8" y="-97.5" font-family="Helvetica,sans-Serif" font-size="10.00">hpp::manipulation::</text>
<text text-anchor="start" x="8" y="-86.5" font-family="Helvetica,sans-Serif" font-size="10.00">parser::SequenceFactory</text>
<text text-anchor="middle" x="63" y="-75.5" font-family="Helvetica,sans-Serif" font-size="10.00">&lt; float &gt;</text>
</a>
</g>
</g>
<!-- Node2&#45;&gt;Node1 -->
<g id="edge1" class="edge"><title>Node2&#45;&gt;Node1</title>
<path fill="none" stroke="midnightblue" d="M63,-58.0188C63,-48.6567 63,-38.7696 63,-31.0485"/>
<polygon fill="midnightblue" stroke="midnightblue" points="59.5001,-58.2225 63,-68.2225 66.5001,-58.2226 59.5001,-58.2225"/>
</g>
<!-- Node3 -->
<g id="node3" class="node"><title>Node3</title>
<g id="a_node3"><a xlink:href="a00006.html" target="_top" xlink:title="Class that catch XML Parser events for a specific tag and build the corresponding Object...">
<polygon fill="white" stroke="black" points="7.5,-147 7.5,-177 118.5,-177 118.5,-147 7.5,-147"/>
<text text-anchor="start" x="15.5" y="-165" font-family="Helvetica,sans-Serif" font-size="10.00">hpp::manipulation::</text>
<text text-anchor="middle" x="63" y="-154" font-family="Helvetica,sans-Serif" font-size="10.00">parser::ObjectFactory</text>
</a>
</g>
</g>
<!-- Node3&#45;&gt;Node2 -->
<g id="edge2" class="edge"><title>Node3&#45;&gt;Node2</title>
<path fill="none" stroke="midnightblue" d="M63,-136.853C63,-127.987 63,-118.065 63,-109.642"/>
<polygon fill="midnightblue" stroke="midnightblue" points="59.5001,-136.973 63,-146.973 66.5001,-136.973 59.5001,-136.973"/>
</g>
</g>
</svg>
