<?xml version="1.0" encoding="UTF-8" standalone="no"?>
<!DOCTYPE svg PUBLIC "-//W3C//DTD SVG 1.1//EN"
 "http://www.w3.org/Graphics/SVG/1.1/DTD/svg11.dtd">
<!-- Generated by graphviz version 2.36.0 (20140111.2315)
 -->
<!-- Title: hpp::manipulation::srdf::GripperFactory Pages: 1 -->
<svg width="333pt" height="258pt"
 viewBox="0.00 0.00 333.00 258.00" xmlns="http://www.w3.org/2000/svg" xmlns:xlink="http://www.w3.org/1999/xlink">
<g id="graph0" class="graph" transform="scale(1 1) rotate(0) translate(4 254)">
<title>hpp::manipulation::srdf::GripperFactory</title>
<polygon fill="white" stroke="none" points="-4,4 -4,-254 329,-254 329,4 -4,4"/>
<!-- Node1 -->
<g id="node1" class="node"><title>Node1</title>
<polygon fill="#bfbfbf" stroke="black" points="95,-1 95,-31 199,-31 199,-1 95,-1"/>
<text text-anchor="start" x="103" y="-19" font-family="Helvetica,sans-Serif" font-size="10.00">hpp::manipulation::</text>
<text text-anchor="middle" x="147" y="-8" font-family="Helvetica,sans-Serif" font-size="10.00">srdf::GripperFactory</text>
</g>
<!-- Node2 -->
<g id="node2" class="node"><title>Node2</title>
<g id="a_node2"><a xlink:href="a00006.html" target="_top" xlink:title="Class that catch XML Parser events for a specific tag and build the corresponding Object...">
<polygon fill="white" stroke="black" points="-0.5,-81 -0.5,-111 110.5,-111 110.5,-81 -0.5,-81"/>
<text text-anchor="start" x="7.5" y="-99" font-family="Helvetica,sans-Serif" font-size="10.00">hpp::manipulation::</text>
<text text-anchor="middle" x="55" y="-88" font-family="Helvetica,sans-Serif" font-size="10.00">parser::ObjectFactory</text>
</a>
</g>
</g>
<!-- Node2&#45;&gt;Node1 -->
<g id="edge1" class="edge"><title>Node2&#45;&gt;Node1</title>
<path fill="none" stroke="midnightblue" d="M79.7782,-73.9924C95.7638,-60.4394 116.129,-43.1736 130.233,-31.2157"/>
<polygon fill="midnightblue" stroke="midnightblue" points="77.2384,-71.5571 71.8742,-80.6936 81.7652,-76.8964 77.2384,-71.5571"/>
</g>
<!-- Node3 -->
<g id="node3" class="node"><title>Node3</title>
<g id="a_node3"><a xlink:title="STL class. ">
<polygon fill="white" stroke="#bfbfbf" points="133,-160.5 133,-179.5 193,-179.5 193,-160.5 133,-160.5"/>
<text text-anchor="middle" x="163" y="-167.5" font-family="Helvetica,sans-Serif" font-size="10.00">std::string</text>
</a>
</g>
</g>
<!-- Node3&#45;&gt;Node1 -->
<g id="edge2" class="edge"><title>Node3&#45;&gt;Node1</title>
<path fill="none" stroke="#9a32cd" stroke-dasharray="5,2" d="M160.523,-149.926C159.12,-138.86 157.376,-124.653 156,-112 152.883,-83.3426 149.846,-49.7537 148.219,-31.1761"/>
<polygon fill="#9a32cd" stroke="#9a32cd" points="157.088,-150.65 161.832,-160.123 164.031,-149.759 157.088,-150.65"/>
<text text-anchor="middle" x="181" y="-93.5" font-family="Helvetica,sans-Serif" font-size="10.00"> linkName_</text>
</g>
<!-- Node5 -->
<g id="node5" class="node"><title>Node5</title>
<polygon fill="white" stroke="#bfbfbf" points="215,-86.5 215,-105.5 325,-105.5 325,-86.5 215,-86.5"/>
<text text-anchor="middle" x="270" y="-93.5" font-family="Helvetica,sans-Serif" font-size="10.00">std::list&lt; std::string &gt;</text>
</g>
<!-- Node3&#45;&gt;Node5 -->
<g id="edge5" class="edge"><title>Node3&#45;&gt;Node5</title>
<path fill="none" stroke="#9a32cd" stroke-dasharray="5,2" d="M184.27,-154.687C206.09,-140.005 239.312,-117.65 257.322,-105.531"/>
<polygon fill="#9a32cd" stroke="#9a32cd" points="182.037,-151.971 175.694,-160.458 185.945,-157.779 182.037,-151.971"/>
<text text-anchor="middle" x="240.5" y="-133.5" font-family="Helvetica,sans-Serif" font-size="10.00"> elements</text>
</g>
<!-- Node4 -->
<g id="node4" class="node"><title>Node4</title>
<g id="a_node4"><a xlink:title="STL class. ">
<polygon fill="white" stroke="#bfbfbf" points="115.5,-219 115.5,-249 210.5,-249 210.5,-219 115.5,-219"/>
<text text-anchor="start" x="123.5" y="-237" font-family="Helvetica,sans-Serif" font-size="10.00">std::basic_string&lt;</text>
<text text-anchor="middle" x="163" y="-226" font-family="Helvetica,sans-Serif" font-size="10.00"> char &gt;</text>
</a>
</g>
</g>
<!-- Node4&#45;&gt;Node3 -->
<g id="edge3" class="edge"><title>Node4&#45;&gt;Node3</title>
<path fill="none" stroke="midnightblue" d="M163,-208.871C163,-198.663 163,-187.408 163,-179.842"/>
<polygon fill="midnightblue" stroke="midnightblue" points="159.5,-208.931 163,-218.931 166.5,-208.931 159.5,-208.931"/>
</g>
<!-- Node5&#45;&gt;Node1 -->
<g id="edge4" class="edge"><title>Node5&#45;&gt;Node1</title>
<path fill="none" stroke="#9a32cd" stroke-dasharray="5,2" d="M247.639,-80.8197C225.454,-66.7515 191.645,-45.3115 169.435,-31.227"/>
<polygon fill="#9a32cd" stroke="#9a32cd" points="246.047,-83.9549 256.367,-86.3546 249.796,-78.0434 246.047,-83.9549"/>
<text text-anchor="middle" x="248.5" y="-53.5" font-family="Helvetica,sans-Serif" font-size="10.00"> collisionLinks_</text>
</g>
</g>
</svg>
