<?xml version="1.0" encoding="UTF-8" standalone="no"?>
<!DOCTYPE svg PUBLIC "-//W3C//DTD SVG 1.1//EN"
 "http://www.w3.org/Graphics/SVG/1.1/DTD/svg11.dtd">
<!-- Generated by graphviz version 2.36.0 (20140111.2315)
 -->
<!-- Title: Graphical Class Hierarchy Pages: 1 -->
<svg width="426pt" height="303pt"
 viewBox="0.00 0.00 426.00 303.00" xmlns="http://www.w3.org/2000/svg" xmlns:xlink="http://www.w3.org/1999/xlink">
<g id="graph0" class="graph" transform="scale(1 1) rotate(0) translate(4 299)">
<title>Graphical Class Hierarchy</title>
<polygon fill="white" stroke="none" points="-4,4 -4,-299 422,-299 422,4 -4,4"/>
<!-- Node1 -->
<g id="node1" class="node"><title>Node1</title>
<g id="a_node1"><a xlink:href="a00006.html" target="_top" xlink:title="Class that catch XML Parser events for a specific tag and build the corresponding Object...">
<polygon fill="white" stroke="black" points="0.5,-135 0.5,-165 111.5,-165 111.5,-135 0.5,-135"/>
<text text-anchor="start" x="8.5" y="-153" font-family="Helvetica,sans-Serif" font-size="10.00">hpp::manipulation::</text>
<text text-anchor="middle" x="56" y="-142" font-family="Helvetica,sans-Serif" font-size="10.00">parser::ObjectFactory</text>
</a>
</g>
</g>
<!-- Node2 -->
<g id="node2" class="node"><title>Node2</title>
<g id="a_node2"><a xlink:href="a00005.html" target="_top" xlink:title="Class used to ignore a tag. ">
<polygon fill="white" stroke="black" points="148,-265 148,-295 274,-295 274,-265 148,-265"/>
<text text-anchor="start" x="156" y="-283" font-family="Helvetica,sans-Serif" font-size="10.00">hpp::manipulation::</text>
<text text-anchor="middle" x="211" y="-272" font-family="Helvetica,sans-Serif" font-size="10.00">parser::IgnoreTagFactory</text>
</a>
</g>
</g>
<!-- Node1&#45;&gt;Node2 -->
<g id="edge1" class="edge"><title>Node1&#45;&gt;Node2</title>
<path fill="none" stroke="midnightblue" d="M72.389,-173.545C88.7219,-196.946 116.49,-232.505 148,-255 153.29,-258.776 159.232,-262.097 165.288,-264.98"/>
<polygon fill="midnightblue" stroke="midnightblue" points="75.2358,-171.507 66.7051,-165.224 69.4556,-175.455 75.2358,-171.507"/>
</g>
<!-- Node3 -->
<g id="node3" class="node"><title>Node3</title>
<g id="a_node3"><a xlink:href="a00010.html" target="_top" xlink:title="Represent a XML document. ">
<polygon fill="white" stroke="black" points="159,-216 159,-246 263,-246 263,-216 159,-216"/>
<text text-anchor="start" x="167" y="-234" font-family="Helvetica,sans-Serif" font-size="10.00">hpp::manipulation::</text>
<text text-anchor="middle" x="211" y="-223" font-family="Helvetica,sans-Serif" font-size="10.00">parser::RootFactory</text>
</a>
</g>
</g>
<!-- Node1&#45;&gt;Node3 -->
<g id="edge2" class="edge"><title>Node1&#45;&gt;Node3</title>
<path fill="none" stroke="midnightblue" d="M87.7634,-170.727C105.055,-181.915 127.27,-195.536 148,-206 154.942,-209.504 162.497,-212.886 169.868,-215.971"/>
<polygon fill="midnightblue" stroke="midnightblue" points="89.4885,-167.674 79.2039,-165.128 85.6564,-173.532 89.4885,-167.674"/>
</g>
<!-- Node4 -->
<g id="node4" class="node"><title>Node4</title>
<g id="a_node4"><a xlink:href="a00011.html" target="_top" xlink:title="Factory parsing sequence of values. ">
<polygon fill="white" stroke="black" points="148,-156.5 148,-197.5 274,-197.5 274,-156.5 148,-156.5"/>
<text text-anchor="start" x="156" y="-185.5" font-family="Helvetica,sans-Serif" font-size="10.00">hpp::manipulation::</text>
<text text-anchor="start" x="156" y="-174.5" font-family="Helvetica,sans-Serif" font-size="10.00">parser::SequenceFactory</text>
<text text-anchor="middle" x="211" y="-163.5" font-family="Helvetica,sans-Serif" font-size="10.00">&lt; ValueType &gt;</text>
</a>
</g>
</g>
<!-- Node1&#45;&gt;Node4 -->
<g id="edge3" class="edge"><title>Node1&#45;&gt;Node4</title>
<path fill="none" stroke="midnightblue" d="M121.791,-161.434C130.4,-162.953 139.212,-164.508 147.776,-166.019"/>
<polygon fill="midnightblue" stroke="midnightblue" points="122.26,-157.963 111.804,-159.671 121.044,-164.856 122.26,-157.963"/>
</g>
<!-- Node5 -->
<g id="node5" class="node"><title>Node5</title>
<g id="a_node5"><a xlink:href="a00002.html" target="_top" xlink:title="Factory building contact surfaces. ">
<polygon fill="white" stroke="black" points="157.5,-108 157.5,-138 264.5,-138 264.5,-108 157.5,-108"/>
<text text-anchor="start" x="165.5" y="-126" font-family="Helvetica,sans-Serif" font-size="10.00">hpp::manipulation::</text>
<text text-anchor="middle" x="211" y="-115" font-family="Helvetica,sans-Serif" font-size="10.00">srdf::ContactFactory</text>
</a>
</g>
</g>
<!-- Node1&#45;&gt;Node5 -->
<g id="edge4" class="edge"><title>Node1&#45;&gt;Node5</title>
<path fill="none" stroke="midnightblue" d="M121.683,-138.585C133.585,-136.485 145.877,-134.316 157.37,-132.288"/>
<polygon fill="midnightblue" stroke="midnightblue" points="121.044,-135.144 111.804,-140.329 122.26,-142.037 121.044,-135.144"/>
</g>
<!-- Node6 -->
<g id="node6" class="node"><title>Node6</title>
<g id="a_node6"><a xlink:href="a00003.html" target="_top" xlink:title="Build an object of type hpp::model::Gripper. ">
<polygon fill="white" stroke="black" points="159,-59 159,-89 263,-89 263,-59 159,-59"/>
<text text-anchor="start" x="167" y="-77" font-family="Helvetica,sans-Serif" font-size="10.00">hpp::manipulation::</text>
<text text-anchor="middle" x="211" y="-66" font-family="Helvetica,sans-Serif" font-size="10.00">srdf::GripperFactory</text>
</a>
</g>
</g>
<!-- Node1&#45;&gt;Node6 -->
<g id="edge5" class="edge"><title>Node1&#45;&gt;Node6</title>
<path fill="none" stroke="midnightblue" d="M90.9684,-129.603C107.846,-119.821 128.709,-108.248 148,-99 155.116,-95.5882 162.827,-92.225 170.313,-89.1253"/>
<polygon fill="midnightblue" stroke="midnightblue" points="88.9019,-126.757 82.0374,-134.827 92.4363,-132.799 88.9019,-126.757"/>
</g>
<!-- Node7 -->
<g id="node7" class="node"><title>Node7</title>
<g id="a_node7"><a xlink:href="a00011.html" target="_top" xlink:title="hpp::manipulation::\lparser::SequenceFactory\l\&lt; float \&gt;">
<polygon fill="white" stroke="black" points="148,0.5 148,-40.5 274,-40.5 274,0.5 148,0.5"/>
<text text-anchor="start" x="156" y="-28.5" font-family="Helvetica,sans-Serif" font-size="10.00">hpp::manipulation::</text>
<text text-anchor="start" x="156" y="-17.5" font-family="Helvetica,sans-Serif" font-size="10.00">parser::SequenceFactory</text>
<text text-anchor="middle" x="211" y="-6.5" font-family="Helvetica,sans-Serif" font-size="10.00">&lt; float &gt;</text>
</a>
</g>
</g>
<!-- Node1&#45;&gt;Node7 -->
<g id="edge6" class="edge"><title>Node1&#45;&gt;Node7</title>
<path fill="none" stroke="midnightblue" d="M74.0097,-126.655C90.8883,-104.728 118.448,-72.0749 148,-50 152.503,-46.6366 157.442,-43.497 162.505,-40.6124"/>
<polygon fill="midnightblue" stroke="midnightblue" points="71.1129,-124.683 67.8731,-134.771 76.6963,-128.906 71.1129,-124.683"/>
</g>
<!-- Node8 -->
<g id="node8" class="node"><title>Node8</title>
<g id="a_node8"><a xlink:href="a00008.html" target="_top" xlink:title="Build a fcl::Transform. ">
<polygon fill="white" stroke="black" points="310.5,-5 310.5,-35 417.5,-35 417.5,-5 310.5,-5"/>
<text text-anchor="start" x="318.5" y="-23" font-family="Helvetica,sans-Serif" font-size="10.00">hpp::manipulation::</text>
<text text-anchor="middle" x="364" y="-12" font-family="Helvetica,sans-Serif" font-size="10.00">srdf::PositionFactory</text>
</a>
</g>
</g>
<!-- Node7&#45;&gt;Node8 -->
<g id="edge7" class="edge"><title>Node7&#45;&gt;Node8</title>
<path fill="none" stroke="midnightblue" d="M284.515,-20C293.271,-20 302.081,-20 310.472,-20"/>
<polygon fill="midnightblue" stroke="midnightblue" points="284.289,-16.5001 274.289,-20 284.289,-23.5001 284.289,-16.5001"/>
</g>
</g>
</svg>
