<?xml version="1.0" encoding="UTF-8" standalone="no"?>
<!DOCTYPE svg PUBLIC "-//W3C//DTD SVG 1.1//EN"
 "http://www.w3.org/Graphics/SVG/1.1/DTD/svg11.dtd">
<!-- Generated by graphviz version 2.36.0 (20140111.2315)
 -->
<!-- Title: Graphical Class Hierarchy Pages: 1 -->
<svg width="226pt" height="97pt"
 viewBox="0.00 0.00 226.00 97.00" xmlns="http://www.w3.org/2000/svg" xmlns:xlink="http://www.w3.org/1999/xlink">
<g id="graph0" class="graph" transform="scale(1 1) rotate(0) translate(4 93)">
<title>Graphical Class Hierarchy</title>
<polygon fill="white" stroke="none" points="-4,4 -4,-93 222,-93 222,4 -4,4"/>
<!-- Node1 -->
<g id="node1" class="node"><title>Node1</title>
<polygon fill="white" stroke="#bfbfbf" points="0,-32.5 0,-51.5 78,-51.5 78,-32.5 0,-32.5"/>
<text text-anchor="middle" x="39" y="-39.5" font-family="Helvetica,sans-Serif" font-size="10.00">ObjectFactory</text>
</g>
<!-- Node2 -->
<g id="node2" class="node"><title>Node2</title>
<g id="a_node2"><a xlink:href="a00004.html" target="_top" xlink:title="Build an object of type HandleType. ">
<polygon fill="white" stroke="black" points="114.5,-48.5 114.5,-89.5 217.5,-89.5 217.5,-48.5 114.5,-48.5"/>
<text text-anchor="start" x="122.5" y="-77.5" font-family="Helvetica,sans-Serif" font-size="10.00">hpp::manipulation::</text>
<text text-anchor="start" x="122.5" y="-66.5" font-family="Helvetica,sans-Serif" font-size="10.00">srdf::HandleFactory</text>
<text text-anchor="middle" x="166" y="-55.5" font-family="Helvetica,sans-Serif" font-size="10.00">&lt; HandleType &gt;</text>
</a>
</g>
</g>
<!-- Node1&#45;&gt;Node2 -->
<g id="edge1" class="edge"><title>Node1&#45;&gt;Node2</title>
<path fill="none" stroke="midnightblue" d="M88.0139,-52.371C96.5734,-54.2199 105.517,-56.1516 114.152,-58.0168"/>
<polygon fill="midnightblue" stroke="midnightblue" points="88.6969,-48.9379 78.1833,-50.2476 87.2189,-55.7801 88.6969,-48.9379"/>
</g>
<!-- Node3 -->
<g id="node3" class="node"><title>Node3</title>
<g id="a_node3"><a xlink:href="a00009.html" target="_top" xlink:title="This class only check if the robot name and the attribute &quot;name&quot; of tag &quot;robot&quot; are the same...">
<polygon fill="white" stroke="black" points="116.5,-0 116.5,-30 215.5,-30 215.5,-0 116.5,-0"/>
<text text-anchor="start" x="124.5" y="-18" font-family="Helvetica,sans-Serif" font-size="10.00">hpp::manipulation::</text>
<text text-anchor="middle" x="166" y="-7" font-family="Helvetica,sans-Serif" font-size="10.00">srdf::RobotFactory</text>
</a>
</g>
</g>
<!-- Node1&#45;&gt;Node3 -->
<g id="edge2" class="edge"><title>Node1&#45;&gt;Node3</title>
<path fill="none" stroke="midnightblue" d="M88.0563,-31.6198C97.3568,-29.6109 107.109,-27.5045 116.426,-25.492"/>
<polygon fill="midnightblue" stroke="midnightblue" points="87.2189,-28.2199 78.1833,-33.7524 88.6969,-35.0621 87.2189,-28.2199"/>
</g>
</g>
</svg>
