<?xml version="1.0" encoding="UTF-8" standalone="no"?>
<!DOCTYPE svg PUBLIC "-//W3C//DTD SVG 1.1//EN"
 "http://www.w3.org/Graphics/SVG/1.1/DTD/svg11.dtd">
<!-- Generated by graphviz version 2.36.0 (20140111.2315)
 -->
<!-- Title: server.hh Pages: 1 -->
<svg width="442pt" height="208pt"
 viewBox="0.00 0.00 442.00 208.00" xmlns="http://www.w3.org/2000/svg" xmlns:xlink="http://www.w3.org/1999/xlink">
<g id="graph0" class="graph" transform="scale(1 1) rotate(0) translate(4 204)">
<title>server.hh</title>
<polygon fill="white" stroke="none" points="-4,4 -4,-204 438,-204 438,4 -4,4"/>
<!-- Node1 -->
<g id="node1" class="node"><title>Node1</title>
<polygon fill="#bfbfbf" stroke="black" points="144.5,-180.5 144.5,-199.5 201.5,-199.5 201.5,-180.5 144.5,-180.5"/>
<text text-anchor="middle" x="173" y="-187.5" font-family="Helvetica,sans-Serif" font-size="10.00">server.hh</text>
</g>
<!-- Node2 -->
<g id="node2" class="node"><title>Node2</title>
<polygon fill="white" stroke="#bfbfbf" points="0,-113 0,-143 100,-143 100,-113 0,-113"/>
<text text-anchor="start" x="8" y="-131" font-family="Helvetica,sans-Serif" font-size="10.00">hpp/corba/template</text>
<text text-anchor="middle" x="50" y="-120" font-family="Helvetica,sans-Serif" font-size="10.00">/server.hh</text>
</g>
<!-- Node1&#45;&gt;Node2 -->
<g id="edge1" class="edge"><title>Node1&#45;&gt;Node2</title>
<path fill="none" stroke="midnightblue" d="M155.377,-180.403C137.94,-171.898 110.684,-158.602 88.2602,-147.663"/>
<polygon fill="midnightblue" stroke="midnightblue" points="89.5109,-144.379 78.9887,-143.141 86.4419,-150.671 89.5109,-144.379"/>
</g>
<!-- Node3 -->
<g id="node3" class="node"><title>Node3</title>
<g id="a_node3"><a doxygen="https://jmirabel.github.io/hpp-doc/api/hpp-corbaserver/doxygen-html/hpp-corbaserver.doxytag:https://jmirabel.github.io/hpp-doc/api/hpp-corbaserver/doxygen-html/" xlink:href="https://jmirabel.github.io/hpp-doc/api/hpp-corbaserver/doxygen-html/a00022.html" target="_top" xlink:title="hpp/corbaserver/problem\l&#45;solver&#45;map.hh">
<polygon fill="white" stroke="black" points="156,-113 156,-143 280,-143 280,-113 156,-113"/>
<text text-anchor="start" x="164" y="-131" font-family="Helvetica,sans-Serif" font-size="10.00">hpp/corbaserver/problem</text>
<text text-anchor="middle" x="218" y="-120" font-family="Helvetica,sans-Serif" font-size="10.00">&#45;solver&#45;map.hh</text>
</a>
</g>
</g>
<!-- Node1&#45;&gt;Node3 -->
<g id="edge2" class="edge"><title>Node1&#45;&gt;Node3</title>
<path fill="none" stroke="midnightblue" d="M179.447,-180.403C185.143,-172.809 193.703,-161.396 201.311,-151.252"/>
<polygon fill="midnightblue" stroke="midnightblue" points="204.194,-153.241 207.394,-143.141 198.594,-149.041 204.194,-153.241"/>
</g>
<!-- Node4 -->
<g id="node4" class="node"><title>Node4</title>
<g id="a_node4"><a xlink:href="a00001.html" target="_top" xlink:title="hpp/corbaserver/fwd.hh">
<polygon fill="white" stroke="black" points="69.5,-56.5 69.5,-75.5 188.5,-75.5 188.5,-56.5 69.5,-56.5"/>
<text text-anchor="middle" x="129" y="-63.5" font-family="Helvetica,sans-Serif" font-size="10.00">hpp/corbaserver/fwd.hh</text>
</a>
</g>
</g>
<!-- Node1&#45;&gt;Node4 -->
<g id="edge7" class="edge"><title>Node1&#45;&gt;Node4</title>
<path fill="none" stroke="midnightblue" d="M167.014,-180.425C161.14,-171.646 152.312,-157.424 147,-144 139.44,-124.894 134.567,-101.808 131.824,-85.9276"/>
<polygon fill="midnightblue" stroke="midnightblue" points="135.238,-85.1144 130.194,-75.7972 128.327,-86.2261 135.238,-85.1144"/>
</g>
<!-- Node7 -->
<g id="node7" class="node"><title>Node7</title>
<g id="a_node7"><a xlink:href="a00005.html" target="_top" xlink:title="hpp/corbaserver/wholebody\l&#45;step/config.hh">
<polygon fill="white" stroke="black" points="298,-113 298,-143 434,-143 434,-113 298,-113"/>
<text text-anchor="start" x="306" y="-131" font-family="Helvetica,sans-Serif" font-size="10.00">hpp/corbaserver/wholebody</text>
<text text-anchor="middle" x="366" y="-120" font-family="Helvetica,sans-Serif" font-size="10.00">&#45;step/config.hh</text>
</a>
</g>
</g>
<!-- Node1&#45;&gt;Node7 -->
<g id="edge8" class="edge"><title>Node1&#45;&gt;Node7</title>
<path fill="none" stroke="midnightblue" d="M200.652,-180.403C229.33,-171.488 274.933,-157.311 310.99,-146.101"/>
<polygon fill="midnightblue" stroke="midnightblue" points="312.375,-149.336 320.885,-143.025 310.297,-142.652 312.375,-149.336"/>
</g>
<!-- Node3&#45;&gt;Node4 -->
<g id="edge3" class="edge"><title>Node3&#45;&gt;Node4</title>
<path fill="none" stroke="midnightblue" d="M196.908,-112.781C182.825,-103.286 164.368,-90.8434 150.251,-81.3267"/>
<polygon fill="midnightblue" stroke="midnightblue" points="151.939,-78.2436 141.691,-75.5557 148.026,-84.0478 151.939,-78.2436"/>
</g>
<!-- Node5 -->
<g id="node5" class="node"><title>Node5</title>
<g id="a_node5"><a doxygen="https://jmirabel.github.io/hpp-doc/api/hpp-core/doxygen-html/hpp-core.doxytag:https://jmirabel.github.io/hpp-doc/api/hpp-core/doxygen-html/" xlink:href="https://jmirabel.github.io/hpp-doc/api/hpp-core/doxygen-html/a00001.html" target="_top" xlink:title="hpp/core/fwd.hh">
<polygon fill="white" stroke="black" points="130,-0.5 130,-19.5 216,-19.5 216,-0.5 130,-0.5"/>
<text text-anchor="middle" x="173" y="-7.5" font-family="Helvetica,sans-Serif" font-size="10.00">hpp/core/fwd.hh</text>
</a>
</g>
</g>
<!-- Node3&#45;&gt;Node5 -->
<g id="edge5" class="edge"><title>Node3&#45;&gt;Node5</title>
<path fill="none" stroke="midnightblue" d="M214.711,-112.836C211.128,-98.2958 204.845,-75.151 197,-56 193.182,-46.68 188.019,-36.7578 183.459,-28.6088"/>
<polygon fill="midnightblue" stroke="midnightblue" points="186.355,-26.6233 178.328,-19.7077 180.29,-30.1193 186.355,-26.6233"/>
</g>
<!-- Node6 -->
<g id="node6" class="node"><title>Node6</title>
<g id="a_node6"><a doxygen="https://jmirabel.github.io/hpp-doc/api/hpp-corbaserver/doxygen-html/hpp-corbaserver.doxytag:https://jmirabel.github.io/hpp-doc/api/hpp-corbaserver/doxygen-html/" xlink:href="https://jmirabel.github.io/hpp-doc/api/hpp-corbaserver/doxygen-html/a00001.html" target="_top" xlink:title="hpp/corbaserver/fwd.hh">
<polygon fill="white" stroke="black" points="245.5,-56.5 245.5,-75.5 364.5,-75.5 364.5,-56.5 245.5,-56.5"/>
<text text-anchor="middle" x="305" y="-63.5" font-family="Helvetica,sans-Serif" font-size="10.00">hpp/corbaserver/fwd.hh</text>
</a>
</g>
</g>
<!-- Node3&#45;&gt;Node6 -->
<g id="edge6" class="edge"><title>Node3&#45;&gt;Node6</title>
<path fill="none" stroke="midnightblue" d="M238.618,-112.781C252.385,-103.286 270.427,-90.8434 284.226,-81.3267"/>
<polygon fill="midnightblue" stroke="midnightblue" points="286.349,-84.1143 292.594,-75.5557 282.375,-78.3518 286.349,-84.1143"/>
</g>
<!-- Node4&#45;&gt;Node5 -->
<g id="edge4" class="edge"><title>Node4&#45;&gt;Node5</title>
<path fill="none" stroke="midnightblue" d="M136.266,-56.083C142.545,-48.3768 151.788,-37.0333 159.431,-27.6531"/>
<polygon fill="midnightblue" stroke="midnightblue" points="162.266,-29.7143 165.869,-19.7511 156.839,-25.2926 162.266,-29.7143"/>
</g>
</g>
</svg>
