<?xml version="1.0" encoding="UTF-8" standalone="no"?>
<!DOCTYPE svg PUBLIC "-//W3C//DTD SVG 1.1//EN"
 "http://www.w3.org/Graphics/SVG/1.1/DTD/svg11.dtd">
<!-- Generated by graphviz version 2.36.0 (20140111.2315)
 -->
<!-- Title: corbaserver Pages: 1 -->
<svg width="228pt" height="159pt"
 viewBox="0.00 0.00 228.00 159.00" xmlns="http://www.w3.org/2000/svg" xmlns:xlink="http://www.w3.org/1999/xlink">
<g id="graph0" class="graph" transform="scale(1 1) rotate(0) translate(4 155)">
<title>corbaserver</title>
<polygon fill="white" stroke="none" points="-4,4 -4,-155 224,-155 224,4 -4,4"/>
<g id="clust1" class="cluster"><title>clusterdir_766a2b2ecef16448f861b8cf84e3a157</title>
<g id="a_clust1"><a xlink:href="dir_766a2b2ecef16448f861b8cf84e3a157.html" target="_top" xlink:title="hpp">
<polygon fill="#ddddee" stroke="black" points="8,-56 8,-143 212,-143 212,-56 8,-56"/>
<text text-anchor="middle" x="110" y="-131" font-family="Helvetica,sans-Serif" font-size="10.00">hpp</text>
</a>
</g>
</g>
<g id="clust2" class="cluster"><title>clusterdir_b4d1a845b7d187eff587f84b36cf4f45</title>
<g id="a_clust2"><a xlink:href="dir_b4d1a845b7d187eff587f84b36cf4f45.html" target="_top">
<polygon fill="#eeeeff" stroke="black" points="16,-64 16,-116 204,-116 204,-64 16,-64"/>
</a>
</g>
</g>
<!-- dir_b4d1a845b7d187eff587f84b36cf4f45 -->
<g id="node1" class="node"><title>dir_b4d1a845b7d187eff587f84b36cf4f45</title>
<text text-anchor="middle" x="162" y="-87.5" font-family="Helvetica,sans-Serif" font-size="10.00">corbaserver</text>
</g>
<!-- dir_8b456e0baa22d6d2d0c5fa75c2e77425 -->
<g id="node2" class="node"><title>dir_8b456e0baa22d6d2d0c5fa75c2e77425</title>
<g id="a_node2"><a xlink:href="dir_8b456e0baa22d6d2d0c5fa75c2e77425.html" target="_top" xlink:title="wholebody&#45;step">
<polygon fill="white" stroke="black" points="109.25,-108 24.75,-108 24.75,-72 109.25,-72 109.25,-108"/>
<text text-anchor="middle" x="67" y="-87.5" font-family="Helvetica,sans-Serif" font-size="10.00">wholebody&#45;step</text>
</a>
</g>
</g>
<!-- dir_95dd6a66316a33732dfb9f95216a9394 -->
<g id="node3" class="node"><title>dir_95dd6a66316a33732dfb9f95216a9394</title>
<g id="a_node3"><a xlink:href="dir_95dd6a66316a33732dfb9f95216a9394.html" target="_top" xlink:title="build&#45;rel">
<polygon fill="white" stroke="red" points="94,-36 40,-36 40,-0 94,-0 94,-36"/>
<text text-anchor="middle" x="67" y="-15.5" font-family="Helvetica,sans-Serif" font-size="10.00">build&#45;rel</text>
</a>
</g>
</g>
<!-- dir_8b456e0baa22d6d2d0c5fa75c2e77425&#45;&gt;dir_95dd6a66316a33732dfb9f95216a9394 -->
<g id="edge1" class="edge"><title>dir_8b456e0baa22d6d2d0c5fa75c2e77425&#45;&gt;dir_95dd6a66316a33732dfb9f95216a9394</title>
<path fill="none" stroke="black" d="M67,-71.6966C67,-63.9827 67,-54.7125 67,-46.1124"/>
<polygon fill="black" stroke="black" points="70.5001,-46.1043 67,-36.1043 63.5001,-46.1044 70.5001,-46.1043"/>
<g id="a_edge1&#45;headlabel"><a xlink:href="dir_000008_000000.html" target="_top" xlink:title="1">
<text text-anchor="middle" x="73.3393" y="-47.199" font-family="Helvetica,sans-Serif" font-size="10.00">1</text>
</a>
</g>
</g>
</g>
</svg>
