<?xml version="1.0" encoding="UTF-8" standalone="no"?>
<!DOCTYPE svg PUBLIC "-//W3C//DTD SVG 1.1//EN"
 "http://www.w3.org/Graphics/SVG/1.1/DTD/svg11.dtd">
<!-- Generated by graphviz version 2.36.0 (20140111.2315)
 -->
<!-- Title: convex&#45;shape&#45;contact.hh Pages: 1 -->
<svg width="771pt" height="276pt"
 viewBox="0.00 0.00 770.99 276.00" xmlns="http://www.w3.org/2000/svg" xmlns:xlink="http://www.w3.org/1999/xlink">
<g id="graph0" class="graph" transform="scale(1 1) rotate(0) translate(4 272)">
<title>convex&#45;shape&#45;contact.hh</title>
<polygon fill="white" stroke="none" points="-4,4 -4,-272 766.987,-272 766.987,4 -4,4"/>
<!-- Node1 -->
<g id="node1" class="node"><title>Node1</title>
<polygon fill="#bfbfbf" stroke="black" points="320,-248.5 320,-267.5 446,-267.5 446,-248.5 320,-248.5"/>
<text text-anchor="middle" x="383" y="-255.5" font-family="Helvetica,sans-Serif" font-size="10.00">convex&#45;shape&#45;contact.hh</text>
</g>
<!-- Node2 -->
<g id="node2" class="node"><title>Node2</title>
<polygon fill="white" stroke="#bfbfbf" points="24,-118.5 24,-137.5 68,-137.5 68,-118.5 24,-118.5"/>
<text text-anchor="middle" x="46" y="-125.5" font-family="Helvetica,sans-Serif" font-size="10.00">vector</text>
</g>
<!-- Node1&#45;&gt;Node2 -->
<g id="edge1" class="edge"><title>Node1&#45;&gt;Node2</title>
<path fill="none" stroke="midnightblue" d="M326.474,-248.477C287.039,-241.435 233.685,-229.688 189,-212 142.682,-193.666 93.4478,-162.047 66.5357,-143.581"/>
<polygon fill="midnightblue" stroke="midnightblue" points="68.1979,-140.473 57.9889,-137.64 64.2029,-146.222 68.1979,-140.473"/>
</g>
<!-- Node3 -->
<g id="node3" class="node"><title>Node3</title>
<g id="a_node3"><a xlink:href="a00047.html" target="_top" xlink:title="hpp/constraints/differentiable\l&#45;function.hh">
<polygon fill="white" stroke="black" points="86,-113 86,-143 228,-143 228,-113 86,-113"/>
<text text-anchor="start" x="94" y="-131" font-family="Helvetica,sans-Serif" font-size="10.00">hpp/constraints/differentiable</text>
<text text-anchor="middle" x="157" y="-120" font-family="Helvetica,sans-Serif" font-size="10.00">&#45;function.hh</text>
</a>
</g>
</g>
<!-- Node1&#45;&gt;Node3 -->
<g id="edge2" class="edge"><title>Node1&#45;&gt;Node3</title>
<path fill="none" stroke="midnightblue" d="M323.984,-248.462C293.235,-241.995 256.086,-230.87 227,-212 203.217,-196.571 183.22,-170.626 170.768,-151.844"/>
<polygon fill="midnightblue" stroke="midnightblue" points="173.62,-149.808 165.277,-143.278 167.726,-153.586 173.62,-149.808"/>
</g>
<!-- Node4 -->
<g id="node4" class="node"><title>Node4</title>
<g id="a_node4"><a xlink:href="a00001.html" target="_top" xlink:title="hpp/constraints/fwd.hh">
<polygon fill="white" stroke="black" points="324,-56.5 324,-75.5 440,-75.5 440,-56.5 324,-56.5"/>
<text text-anchor="middle" x="382" y="-63.5" font-family="Helvetica,sans-Serif" font-size="10.00">hpp/constraints/fwd.hh</text>
</a>
</g>
</g>
<!-- Node1&#45;&gt;Node4 -->
<g id="edge20" class="edge"><title>Node1&#45;&gt;Node4</title>
<path fill="none" stroke="midnightblue" d="M446.458,-252.67C568.509,-242.085 816.721,-208.311 732,-112 713.724,-91.2235 546.924,-77.3597 450.339,-70.9995"/>
<polygon fill="midnightblue" stroke="midnightblue" points="450.277,-67.4882 440.071,-70.3341 449.824,-74.4735 450.277,-67.4882"/>
</g>
<!-- Node6 -->
<g id="node6" class="node"><title>Node6</title>
<polygon fill="white" stroke="#bfbfbf" points="551,-0.5 551,-19.5 699,-19.5 699,-0.5 551,-0.5"/>
<text text-anchor="middle" x="625" y="-7.5" font-family="Helvetica,sans-Serif" font-size="10.00">hpp/constraints/deprecated.hh</text>
</g>
<!-- Node1&#45;&gt;Node6 -->
<g id="edge22" class="edge"><title>Node1&#45;&gt;Node6</title>
<path fill="none" stroke="midnightblue" d="M446.006,-255.408C530.883,-252.125 676.256,-242.149 719,-212 757.479,-184.859 774.62,-154.333 754,-112 733.343,-69.5915 685.312,-39.742 654.043,-23.9775"/>
<polygon fill="midnightblue" stroke="midnightblue" points="655.449,-20.7693 644.926,-19.5389 652.385,-27.0631 655.449,-20.7693"/>
</g>
<!-- Node7 -->
<g id="node7" class="node"><title>Node7</title>
<polygon fill="white" stroke="#bfbfbf" points="0,-56.5 0,-75.5 126,-75.5 126,-56.5 0,-56.5"/>
<text text-anchor="middle" x="63" y="-63.5" font-family="Helvetica,sans-Serif" font-size="10.00">hpp/constraints/config.hh</text>
</g>
<!-- Node1&#45;&gt;Node7 -->
<g id="edge21" class="edge"><title>Node1&#45;&gt;Node7</title>
<path fill="none" stroke="midnightblue" d="M319.986,-252.86C266.4,-247.755 188.164,-236.511 124,-212 70.6609,-191.624 42.7002,-193.929 15,-144 8.10038,-131.563 9.34625,-125.05 15,-112 20.2681,-99.8399 30.6195,-89.4594 40.3648,-81.7429"/>
<polygon fill="midnightblue" stroke="midnightblue" points="42.644,-84.4116 48.6299,-75.6698 38.499,-78.7707 42.644,-84.4116"/>
</g>
<!-- Node8 -->
<g id="node8" class="node"><title>Node8</title>
<polygon fill="white" stroke="#bfbfbf" points="461.5,-118.5 461.5,-137.5 584.5,-137.5 584.5,-118.5 461.5,-118.5"/>
<text text-anchor="middle" x="523" y="-125.5" font-family="Helvetica,sans-Serif" font-size="10.00">hpp/fcl/math/transform.h</text>
</g>
<!-- Node1&#45;&gt;Node8 -->
<g id="edge7" class="edge"><title>Node1&#45;&gt;Node8</title>
<path fill="none" stroke="midnightblue" d="M392.623,-248.202C416.114,-226.725 476.624,-171.401 506.21,-144.351"/>
<polygon fill="midnightblue" stroke="midnightblue" points="508.66,-146.853 513.679,-137.522 503.937,-141.687 508.66,-146.853"/>
</g>
<!-- Node9 -->
<g id="node9" class="node"><title>Node9</title>
<polygon fill="white" stroke="#bfbfbf" points="602.5,-113 602.5,-143 723.5,-143 723.5,-113 602.5,-113"/>
<text text-anchor="start" x="610.5" y="-131" font-family="Helvetica,sans-Serif" font-size="10.00">hpp/fcl/shape/geometric</text>
<text text-anchor="middle" x="663" y="-120" font-family="Helvetica,sans-Serif" font-size="10.00">_shapes.h</text>
</g>
<!-- Node1&#45;&gt;Node9 -->
<g id="edge8" class="edge"><title>Node1&#45;&gt;Node9</title>
<path fill="none" stroke="midnightblue" d="M401.806,-248.403C446.733,-227.865 561.12,-175.574 622.545,-147.494"/>
<polygon fill="midnightblue" stroke="midnightblue" points="624.29,-150.544 631.929,-143.204 621.38,-144.178 624.29,-150.544"/>
</g>
<!-- Node10 -->
<g id="node10" class="node"><title>Node10</title>
<g id="a_node10"><a xlink:href="a00064.html" target="_top" xlink:title="hpp/constraints/tools.hh">
<polygon fill="white" stroke="black" points="322.5,-118.5 322.5,-137.5 443.5,-137.5 443.5,-118.5 322.5,-118.5"/>
<text text-anchor="middle" x="383" y="-125.5" font-family="Helvetica,sans-Serif" font-size="10.00">hpp/constraints/tools.hh</text>
</a>
</g>
</g>
<!-- Node1&#45;&gt;Node10 -->
<g id="edge9" class="edge"><title>Node1&#45;&gt;Node10</title>
<path fill="none" stroke="midnightblue" d="M383,-248.202C383,-227.551 383,-175.606 383,-147.594"/>
<polygon fill="midnightblue" stroke="midnightblue" points="386.5,-147.522 383,-137.522 379.5,-147.522 386.5,-147.522"/>
</g>
<!-- Node11 -->
<g id="node11" class="node"><title>Node11</title>
<g id="a_node11"><a xlink:href="a00046.html" target="_top" xlink:title="hpp/constraints/convex\l&#45;shape.hh">
<polygon fill="white" stroke="black" points="236,-181 236,-211 354,-211 354,-181 236,-181"/>
<text text-anchor="start" x="244" y="-199" font-family="Helvetica,sans-Serif" font-size="10.00">hpp/constraints/convex</text>
<text text-anchor="middle" x="295" y="-188" font-family="Helvetica,sans-Serif" font-size="10.00">&#45;shape.hh</text>
</a>
</g>
</g>
<!-- Node1&#45;&gt;Node11 -->
<g id="edge11" class="edge"><title>Node1&#45;&gt;Node11</title>
<path fill="none" stroke="midnightblue" d="M370.392,-248.403C358.362,-240.201 339.8,-227.545 324.105,-216.844"/>
<polygon fill="midnightblue" stroke="midnightblue" points="325.974,-213.882 315.74,-211.141 322.03,-219.666 325.974,-213.882"/>
</g>
<!-- Node3&#45;&gt;Node4 -->
<g id="edge3" class="edge"><title>Node3&#45;&gt;Node4</title>
<path fill="none" stroke="midnightblue" d="M209.753,-112.933C249.526,-102.326 303.335,-87.9772 340.165,-78.1559"/>
<polygon fill="midnightblue" stroke="midnightblue" points="341.317,-81.4712 350.077,-75.5127 339.513,-74.7076 341.317,-81.4712"/>
</g>
<!-- Node3&#45;&gt;Node7 -->
<g id="edge6" class="edge"><title>Node3&#45;&gt;Node7</title>
<path fill="none" stroke="midnightblue" d="M134.723,-112.781C119.707,-103.196 99.983,-90.6062 85.0204,-81.0555"/>
<polygon fill="midnightblue" stroke="midnightblue" points="86.7163,-77.9859 76.4039,-75.5557 82.95,-83.8863 86.7163,-77.9859"/>
</g>
<!-- Node5 -->
<g id="node5" class="node"><title>Node5</title>
<g id="a_node5"><a doxygen="https://jmirabel.github.io/hpp-doc/api/hpp-model/doxygen-html/hpp-model.doxytag:https://jmirabel.github.io/hpp-doc/api/hpp-model/doxygen-html/" xlink:href="https://jmirabel.github.io/hpp-doc/api/hpp-model/doxygen-html/a00037.html" target="_top" xlink:title="hpp/model/fwd.hh">
<polygon fill="white" stroke="black" points="273,-0.5 273,-19.5 367,-19.5 367,-0.5 273,-0.5"/>
<text text-anchor="middle" x="320" y="-7.5" font-family="Helvetica,sans-Serif" font-size="10.00">hpp/model/fwd.hh</text>
</a>
</g>
</g>
<!-- Node4&#45;&gt;Node5 -->
<g id="edge4" class="edge"><title>Node4&#45;&gt;Node5</title>
<path fill="none" stroke="midnightblue" d="M372.039,-56.324C362.873,-48.3414 349.063,-36.3128 337.972,-26.6529"/>
<polygon fill="midnightblue" stroke="midnightblue" points="339.982,-23.7624 330.143,-19.8339 335.385,-29.041 339.982,-23.7624"/>
</g>
<!-- Node4&#45;&gt;Node6 -->
<g id="edge5" class="edge"><title>Node4&#45;&gt;Node6</title>
<path fill="none" stroke="midnightblue" d="M420.504,-56.4435C462.806,-47.0431 530.819,-31.9291 576.673,-21.7393"/>
<polygon fill="midnightblue" stroke="midnightblue" points="577.673,-25.1025 586.676,-19.5164 576.155,-18.2692 577.673,-25.1025"/>
</g>
<!-- Node10&#45;&gt;Node4 -->
<g id="edge10" class="edge"><title>Node10&#45;&gt;Node4</title>
<path fill="none" stroke="midnightblue" d="M382.857,-118.403C382.716,-109.938 382.495,-96.7283 382.314,-85.8199"/>
<polygon fill="midnightblue" stroke="midnightblue" points="385.809,-85.5208 382.143,-75.5806 378.81,-85.6376 385.809,-85.5208"/>
</g>
<!-- Node11&#45;&gt;Node2 -->
<g id="edge12" class="edge"><title>Node11&#45;&gt;Node2</title>
<path fill="none" stroke="midnightblue" d="M235.699,-184.804C191.278,-176.288 129.397,-162.549 77,-144 75.1401,-143.342 73.2445,-142.604 71.3535,-141.818"/>
<polygon fill="midnightblue" stroke="midnightblue" points="72.6741,-138.574 62.1211,-137.633 69.784,-144.949 72.6741,-138.574"/>
</g>
<!-- Node11&#45;&gt;Node3 -->
<g id="edge17" class="edge"><title>Node11&#45;&gt;Node3</title>
<path fill="none" stroke="midnightblue" d="M265.396,-180.841C245.022,-171.098 217.757,-158.058 195.67,-147.494"/>
<polygon fill="midnightblue" stroke="midnightblue" points="197.087,-144.292 186.556,-143.135 194.067,-150.607 197.087,-144.292"/>
</g>
<!-- Node11&#45;&gt;Node4 -->
<g id="edge19" class="edge"><title>Node11&#45;&gt;Node4</title>
<path fill="none" stroke="midnightblue" d="M295.119,-180.808C295.924,-163.186 299.526,-132.904 314,-112 323.494,-98.2881 338.652,-87.6662 352.249,-80.1944"/>
<polygon fill="midnightblue" stroke="midnightblue" points="354.033,-83.2125 361.324,-75.5256 350.831,-76.9879 354.033,-83.2125"/>
</g>
<!-- Node11&#45;&gt;Node8 -->
<g id="edge13" class="edge"><title>Node11&#45;&gt;Node8</title>
<path fill="none" stroke="midnightblue" d="M343.632,-180.922C385.411,-168.828 444.882,-151.613 483.703,-140.375"/>
<polygon fill="midnightblue" stroke="midnightblue" points="484.956,-143.656 493.589,-137.514 483.01,-136.932 484.956,-143.656"/>
</g>
<!-- Node11&#45;&gt;Node9 -->
<g id="edge14" class="edge"><title>Node11&#45;&gt;Node9</title>
<path fill="none" stroke="midnightblue" d="M354.217,-185.61C412.269,-176.237 503.518,-161.056 592.347,-144.08"/>
<polygon fill="midnightblue" stroke="midnightblue" points="593.165,-147.487 602.325,-142.163 591.844,-140.612 593.165,-147.487"/>
</g>
<!-- Node11&#45;&gt;Node10 -->
<g id="edge18" class="edge"><title>Node11&#45;&gt;Node10</title>
<path fill="none" stroke="midnightblue" d="M314.095,-180.679C328.579,-169.816 348.432,-154.926 363.108,-143.919"/>
<polygon fill="midnightblue" stroke="midnightblue" points="365.583,-146.438 371.483,-137.638 361.383,-140.838 365.583,-146.438"/>
</g>
<!-- Node12 -->
<g id="node12" class="node"><title>Node12</title>
<g id="a_node12"><a doxygen="https://jmirabel.github.io/hpp-doc/api/hpp-model/doxygen-html/hpp-model.doxytag:https://jmirabel.github.io/hpp-doc/api/hpp-model/doxygen-html/" xlink:href="https://jmirabel.github.io/hpp-doc/api/hpp-model/doxygen-html/a00041.html" target="_top" xlink:title="hpp/model/joint.hh">
<polygon fill="white" stroke="black" points="209,-56.5 209,-75.5 305,-75.5 305,-56.5 209,-56.5"/>
<text text-anchor="middle" x="257" y="-63.5" font-family="Helvetica,sans-Serif" font-size="10.00">hpp/model/joint.hh</text>
</a>
</g>
</g>
<!-- Node11&#45;&gt;Node12 -->
<g id="edge15" class="edge"><title>Node11&#45;&gt;Node12</title>
<path fill="none" stroke="midnightblue" d="M290.788,-180.813C283.856,-157.461 270.05,-110.957 262.406,-85.2094"/>
<polygon fill="midnightblue" stroke="midnightblue" points="265.747,-84.1642 259.545,-75.5738 259.036,-86.1564 265.747,-84.1642"/>
</g>
<!-- Node12&#45;&gt;Node5 -->
<g id="edge16" class="edge"><title>Node12&#45;&gt;Node5</title>
<path fill="none" stroke="midnightblue" d="M267.122,-56.324C276.526,-48.2631 290.744,-36.0765 302.069,-26.3695"/>
<polygon fill="midnightblue" stroke="midnightblue" points="304.379,-28.9993 309.694,-19.8339 299.823,-23.6844 304.379,-28.9993"/>
</g>
</g>
</svg>
