<?xml version="1.0" encoding="UTF-8" standalone="no"?>
<!DOCTYPE svg PUBLIC "-//W3C//DTD SVG 1.1//EN"
 "http://www.w3.org/Graphics/SVG/1.1/DTD/svg11.dtd">
<!-- Generated by graphviz version 2.36.0 (20140111.2315)
 -->
<!-- Title: qp&#45;static&#45;stability.hh Pages: 1 -->
<svg width="1671pt" height="412pt"
 viewBox="0.00 0.00 1671.45 412.00" xmlns="http://www.w3.org/2000/svg" xmlns:xlink="http://www.w3.org/1999/xlink">
<g id="graph0" class="graph" transform="scale(1 1) rotate(0) translate(4 408)">
<title>qp&#45;static&#45;stability.hh</title>
<polygon fill="white" stroke="none" points="-4,4 -4,-408 1667.45,-408 1667.45,4 -4,4"/>
<!-- Node1 -->
<g id="node1" class="node"><title>Node1</title>
<polygon fill="#bfbfbf" stroke="black" points="794.952,-384.5 794.952,-403.5 898.952,-403.5 898.952,-384.5 794.952,-384.5"/>
<text text-anchor="middle" x="846.952" y="-391.5" font-family="Helvetica,sans-Serif" font-size="10.00">qp&#45;static&#45;stability.hh</text>
</g>
<!-- Node2 -->
<g id="node2" class="node"><title>Node2</title>
<g id="a_node2"><a xlink:href="a00047.html" target="_top" xlink:title="hpp/constraints/differentiable\l&#45;function.hh">
<polygon fill="white" stroke="black" points="423.952,-181 423.952,-211 565.952,-211 565.952,-181 423.952,-181"/>
<text text-anchor="start" x="431.952" y="-199" font-family="Helvetica,sans-Serif" font-size="10.00">hpp/constraints/differentiable</text>
<text text-anchor="middle" x="494.952" y="-188" font-family="Helvetica,sans-Serif" font-size="10.00">&#45;function.hh</text>
</a>
</g>
</g>
<!-- Node1&#45;&gt;Node2 -->
<g id="edge1" class="edge"><title>Node1&#45;&gt;Node2</title>
<path fill="none" stroke="midnightblue" d="M816.976,-384.476C765.991,-369.065 660.481,-333.157 583.952,-280 558.069,-262.022 532.134,-236.818 514.994,-218.91"/>
<polygon fill="midnightblue" stroke="midnightblue" points="517.177,-216.123 507.77,-211.248 512.084,-220.925 517.177,-216.123"/>
</g>
<!-- Node3 -->
<g id="node3" class="node"><title>Node3</title>
<g id="a_node3"><a xlink:href="a00001.html" target="_top" xlink:title="hpp/constraints/fwd.hh">
<polygon fill="white" stroke="black" points="840.952,-124.5 840.952,-143.5 956.952,-143.5 956.952,-124.5 840.952,-124.5"/>
<text text-anchor="middle" x="898.952" y="-131.5" font-family="Helvetica,sans-Serif" font-size="10.00">hpp/constraints/fwd.hh</text>
</a>
</g>
</g>
<!-- Node1&#45;&gt;Node3 -->
<g id="edge55" class="edge"><title>Node1&#45;&gt;Node3</title>
<path fill="none" stroke="midnightblue" d="M856.578,-384.431C882.739,-360.411 954.852,-289.128 979.952,-212 984.353,-198.476 987.164,-192.258 979.952,-180 971.034,-164.844 954.963,-154.426 939.474,-147.464"/>
<polygon fill="midnightblue" stroke="midnightblue" points="940.554,-144.124 929.974,-143.564 937.896,-150.6 940.554,-144.124"/>
</g>
<!-- Node7 -->
<g id="node7" class="node"><title>Node7</title>
<g id="a_node7"><a xlink:href="a00045.html" target="_top" xlink:title="hpp/constraints/convex\l&#45;shape&#45;contact.hh">
<polygon fill="white" stroke="black" points="289.952,-317 289.952,-347 407.952,-347 407.952,-317 289.952,-317"/>
<text text-anchor="start" x="297.952" y="-335" font-family="Helvetica,sans-Serif" font-size="10.00">hpp/constraints/convex</text>
<text text-anchor="middle" x="348.952" y="-324" font-family="Helvetica,sans-Serif" font-size="10.00">&#45;shape&#45;contact.hh</text>
</a>
</g>
</g>
<!-- Node1&#45;&gt;Node7 -->
<g id="edge6" class="edge"><title>Node1&#45;&gt;Node7</title>
<path fill="none" stroke="midnightblue" d="M794.598,-386.692C704.302,-375.813 519.281,-353.522 418.362,-341.363"/>
<polygon fill="midnightblue" stroke="midnightblue" points="418.616,-337.868 408.269,-340.147 417.779,-344.818 418.616,-337.868"/>
</g>
<!-- Node11 -->
<g id="node11" class="node"><title>Node11</title>
<g id="a_node11"><a xlink:href="a00064.html" target="_top" xlink:title="hpp/constraints/tools.hh">
<polygon fill="white" stroke="black" points="850.452,-186.5 850.452,-205.5 971.452,-205.5 971.452,-186.5 850.452,-186.5"/>
<text text-anchor="middle" x="910.952" y="-193.5" font-family="Helvetica,sans-Serif" font-size="10.00">hpp/constraints/tools.hh</text>
</a>
</g>
</g>
<!-- Node1&#45;&gt;Node11 -->
<g id="edge54" class="edge"><title>Node1&#45;&gt;Node11</title>
<path fill="none" stroke="midnightblue" d="M849.784,-384.325C859.49,-354.601 891.545,-256.432 904.963,-215.341"/>
<polygon fill="midnightblue" stroke="midnightblue" points="908.375,-216.167 908.152,-205.575 901.721,-213.994 908.375,-216.167"/>
</g>
<!-- Node14 -->
<g id="node14" class="node"><title>Node14</title>
<g id="a_node14"><a xlink:href="a00060.html" target="_top" xlink:title="hpp/constraints/static\l&#45;stability.hh">
<polygon fill="white" stroke="black" points="728.952,-317 728.952,-347 838.952,-347 838.952,-317 728.952,-317"/>
<text text-anchor="start" x="736.952" y="-335" font-family="Helvetica,sans-Serif" font-size="10.00">hpp/constraints/static</text>
<text text-anchor="middle" x="783.952" y="-324" font-family="Helvetica,sans-Serif" font-size="10.00">&#45;stability.hh</text>
</a>
</g>
</g>
<!-- Node1&#45;&gt;Node14 -->
<g id="edge25" class="edge"><title>Node1&#45;&gt;Node14</title>
<path fill="none" stroke="midnightblue" d="M837.925,-384.403C829.632,-376.505 817.002,-364.477 806.045,-354.041"/>
<polygon fill="midnightblue" stroke="midnightblue" points="808.455,-351.503 798.8,-347.141 803.627,-356.572 808.455,-351.503"/>
</g>
<!-- Node25 -->
<g id="node25" class="node"><title>Node25</title>
<polygon fill="white" stroke="#bfbfbf" points="1027.95,-322.5 1027.95,-341.5 1107.95,-341.5 1107.95,-322.5 1027.95,-322.5"/>
<text text-anchor="middle" x="1067.95" y="-329.5" font-family="Helvetica,sans-Serif" font-size="10.00">qpOASES.hpp</text>
</g>
<!-- Node1&#45;&gt;Node25 -->
<g id="edge56" class="edge"><title>Node1&#45;&gt;Node25</title>
<path fill="none" stroke="midnightblue" d="M878.987,-384.447C912.62,-375.448 967.032,-360.838 1013.95,-348 1018.35,-346.798 1022.94,-345.533 1027.51,-344.269"/>
<polygon fill="midnightblue" stroke="midnightblue" points="1028.7,-347.572 1037.41,-341.529 1026.83,-340.826 1028.7,-347.572"/>
</g>
<!-- Node2&#45;&gt;Node3 -->
<g id="edge2" class="edge"><title>Node2&#45;&gt;Node3</title>
<path fill="none" stroke="midnightblue" d="M566.249,-184.411C641.105,-173.294 757.928,-155.944 831.362,-145.038"/>
<polygon fill="midnightblue" stroke="midnightblue" points="832.05,-148.474 841.427,-143.543 831.021,-141.55 832.05,-148.474"/>
</g>
<!-- Node6 -->
<g id="node6" class="node"><title>Node6</title>
<polygon fill="white" stroke="#bfbfbf" points="431.952,-124.5 431.952,-143.5 557.952,-143.5 557.952,-124.5 431.952,-124.5"/>
<text text-anchor="middle" x="494.952" y="-131.5" font-family="Helvetica,sans-Serif" font-size="10.00">hpp/constraints/config.hh</text>
</g>
<!-- Node2&#45;&gt;Node6 -->
<g id="edge5" class="edge"><title>Node2&#45;&gt;Node6</title>
<path fill="none" stroke="midnightblue" d="M494.952,-180.781C494.952,-172.781 494.952,-162.689 494.952,-154.017"/>
<polygon fill="midnightblue" stroke="midnightblue" points="498.452,-153.73 494.952,-143.731 491.452,-153.731 498.452,-153.73"/>
</g>
<!-- Node4 -->
<g id="node4" class="node"><title>Node4</title>
<g id="a_node4"><a doxygen="https://jmirabel.github.io/hpp-doc/api/hpp-model/doxygen-html/hpp-model.doxytag:https://jmirabel.github.io/hpp-doc/api/hpp-model/doxygen-html/" xlink:href="https://jmirabel.github.io/hpp-doc/api/hpp-model/doxygen-html/a00037.html" target="_top" xlink:title="hpp/model/fwd.hh">
<polygon fill="white" stroke="black" points="1215.95,-0.5 1215.95,-19.5 1309.95,-19.5 1309.95,-0.5 1215.95,-0.5"/>
<text text-anchor="middle" x="1262.95" y="-7.5" font-family="Helvetica,sans-Serif" font-size="10.00">hpp/model/fwd.hh</text>
</a>
</g>
</g>
<!-- Node3&#45;&gt;Node4 -->
<g id="edge3" class="edge"><title>Node3&#45;&gt;Node4</title>
<path fill="none" stroke="midnightblue" d="M924.547,-124.421C988.379,-103.027 1154.71,-47.2791 1227.72,-22.8079"/>
<polygon fill="midnightblue" stroke="midnightblue" points="1229.01,-26.0659 1237.38,-19.5693 1226.79,-19.4287 1229.01,-26.0659"/>
</g>
<!-- Node5 -->
<g id="node5" class="node"><title>Node5</title>
<polygon fill="white" stroke="#bfbfbf" points="709.952,-62.5 709.952,-81.5 857.952,-81.5 857.952,-62.5 709.952,-62.5"/>
<text text-anchor="middle" x="783.952" y="-69.5" font-family="Helvetica,sans-Serif" font-size="10.00">hpp/constraints/deprecated.hh</text>
</g>
<!-- Node3&#45;&gt;Node5 -->
<g id="edge4" class="edge"><title>Node3&#45;&gt;Node5</title>
<path fill="none" stroke="midnightblue" d="M882.475,-124.403C863.346,-114.423 831.578,-97.8487 809.3,-86.2253"/>
<polygon fill="midnightblue" stroke="midnightblue" points="810.883,-83.1033 800.398,-81.5806 807.645,-89.3094 810.883,-83.1033"/>
</g>
<!-- Node7&#45;&gt;Node2 -->
<g id="edge8" class="edge"><title>Node7&#45;&gt;Node2</title>
<path fill="none" stroke="midnightblue" d="M408.262,-320.948C433.568,-313.689 461.28,-301.251 478.952,-280 492.536,-263.664 495.873,-239.261 496.208,-221.138"/>
<polygon fill="midnightblue" stroke="midnightblue" points="499.707,-221.012 496.104,-211.049 492.707,-221.084 499.707,-221.012"/>
</g>
<!-- Node7&#45;&gt;Node3 -->
<g id="edge22" class="edge"><title>Node7&#45;&gt;Node3</title>
<path fill="none" stroke="midnightblue" d="M390.775,-316.997C456.518,-295.002 578.674,-254.214 598.952,-248 655.454,-230.685 671.389,-232.127 726.952,-212 779.866,-192.832 839.33,-164.657 872.65,-148.234"/>
<polygon fill="midnightblue" stroke="midnightblue" points="874.318,-151.314 881.721,-143.734 871.207,-145.043 874.318,-151.314"/>
</g>
<!-- Node7&#45;&gt;Node5 -->
<g id="edge24" class="edge"><title>Node7&#45;&gt;Node5</title>
<path fill="none" stroke="midnightblue" d="M289.807,-328.825C209.471,-324.657 71.6415,-312.813 34.9517,-280 1.23049,-249.842 -13.7485,-214.125 15.9517,-180 60.4011,-128.928 509.258,-92.0481 699.479,-78.5936"/>
<polygon fill="midnightblue" stroke="midnightblue" points="699.982,-82.0671 709.712,-77.8749 699.491,-75.0843 699.982,-82.0671"/>
</g>
<!-- Node7&#45;&gt;Node6 -->
<g id="edge23" class="edge"><title>Node7&#45;&gt;Node6</title>
<path fill="none" stroke="midnightblue" d="M289.609,-324.132C178.23,-309.036 -44.0876,-267.149 34.9517,-180 60.3817,-151.961 298.243,-140.808 421.557,-136.882"/>
<polygon fill="midnightblue" stroke="midnightblue" points="421.791,-140.376 431.678,-136.567 421.574,-133.379 421.791,-140.376"/>
</g>
<!-- Node8 -->
<g id="node8" class="node"><title>Node8</title>
<polygon fill="white" stroke="#bfbfbf" points="323.952,-186.5 323.952,-205.5 367.952,-205.5 367.952,-186.5 323.952,-186.5"/>
<text text-anchor="middle" x="345.952" y="-193.5" font-family="Helvetica,sans-Serif" font-size="10.00">vector</text>
</g>
<!-- Node7&#45;&gt;Node8 -->
<g id="edge7" class="edge"><title>Node7&#45;&gt;Node8</title>
<path fill="none" stroke="midnightblue" d="M334.085,-316.931C325.202,-307.458 314.741,-294.147 309.952,-280 305.391,-266.529 305.649,-261.556 309.952,-248 314.018,-235.188 322.595,-222.819 330.357,-213.471"/>
<polygon fill="midnightblue" stroke="midnightblue" points="333.121,-215.628 337.103,-205.81 327.868,-211.002 333.121,-215.628"/>
</g>
<!-- Node9 -->
<g id="node9" class="node"><title>Node9</title>
<polygon fill="white" stroke="#bfbfbf" points="44.4517,-186.5 44.4517,-205.5 167.452,-205.5 167.452,-186.5 44.4517,-186.5"/>
<text text-anchor="middle" x="105.952" y="-193.5" font-family="Helvetica,sans-Serif" font-size="10.00">hpp/fcl/math/transform.h</text>
</g>
<!-- Node7&#45;&gt;Node9 -->
<g id="edge9" class="edge"><title>Node7&#45;&gt;Node9</title>
<path fill="none" stroke="midnightblue" d="M323.406,-316.913C276.422,-291.004 176.88,-236.113 130.586,-210.584"/>
<polygon fill="midnightblue" stroke="midnightblue" points="132,-207.367 121.553,-205.603 128.62,-213.497 132,-207.367"/>
</g>
<!-- Node10 -->
<g id="node10" class="node"><title>Node10</title>
<polygon fill="white" stroke="#bfbfbf" points="185.452,-181 185.452,-211 306.452,-211 306.452,-181 185.452,-181"/>
<text text-anchor="start" x="193.452" y="-199" font-family="Helvetica,sans-Serif" font-size="10.00">hpp/fcl/shape/geometric</text>
<text text-anchor="middle" x="245.952" y="-188" font-family="Helvetica,sans-Serif" font-size="10.00">_shapes.h</text>
</g>
<!-- Node7&#45;&gt;Node10 -->
<g id="edge10" class="edge"><title>Node7&#45;&gt;Node10</title>
<path fill="none" stroke="midnightblue" d="M335.137,-316.717C325.713,-306.73 313.142,-292.92 302.952,-280 287.515,-260.429 271.591,-236.909 260.511,-219.911"/>
<polygon fill="midnightblue" stroke="midnightblue" points="263.254,-217.707 254.888,-211.206 257.373,-221.505 263.254,-217.707"/>
</g>
<!-- Node7&#45;&gt;Node11 -->
<g id="edge11" class="edge"><title>Node7&#45;&gt;Node11</title>
<path fill="none" stroke="midnightblue" d="M408.012,-319.967C458.806,-310.236 533.942,-295.264 598.952,-280 697.474,-256.867 812.223,-225.078 871.3,-208.35"/>
<polygon fill="midnightblue" stroke="midnightblue" points="872.316,-211.7 880.981,-205.603 870.405,-204.966 872.316,-211.7"/>
</g>
<!-- Node12 -->
<g id="node12" class="node"><title>Node12</title>
<g id="a_node12"><a xlink:href="a00046.html" target="_top" xlink:title="hpp/constraints/convex\l&#45;shape.hh">
<polygon fill="white" stroke="black" points="351.952,-249 351.952,-279 469.952,-279 469.952,-249 351.952,-249"/>
<text text-anchor="start" x="359.952" y="-267" font-family="Helvetica,sans-Serif" font-size="10.00">hpp/constraints/convex</text>
<text text-anchor="middle" x="410.952" y="-256" font-family="Helvetica,sans-Serif" font-size="10.00">&#45;shape.hh</text>
</a>
</g>
</g>
<!-- Node7&#45;&gt;Node12 -->
<g id="edge13" class="edge"><title>Node7&#45;&gt;Node12</title>
<path fill="none" stroke="midnightblue" d="M362.405,-316.679C370.611,-307.944 381.262,-296.605 390.497,-286.775"/>
<polygon fill="midnightblue" stroke="midnightblue" points="393.229,-288.978 397.525,-279.293 388.127,-284.185 393.229,-288.978"/>
</g>
<!-- Node11&#45;&gt;Node3 -->
<g id="edge12" class="edge"><title>Node11&#45;&gt;Node3</title>
<path fill="none" stroke="midnightblue" d="M909.232,-186.403C907.521,-177.849 904.842,-164.45 902.647,-153.476"/>
<polygon fill="midnightblue" stroke="midnightblue" points="906.061,-152.7 900.668,-143.581 899.197,-154.073 906.061,-152.7"/>
</g>
<!-- Node12&#45;&gt;Node2 -->
<g id="edge19" class="edge"><title>Node12&#45;&gt;Node2</title>
<path fill="none" stroke="midnightblue" d="M429.178,-248.679C440.815,-239.536 456.083,-227.54 468.979,-217.407"/>
<polygon fill="midnightblue" stroke="midnightblue" points="471.348,-219.997 477.049,-211.066 467.023,-214.492 471.348,-219.997"/>
</g>
<!-- Node12&#45;&gt;Node3 -->
<g id="edge21" class="edge"><title>Node12&#45;&gt;Node3</title>
<path fill="none" stroke="midnightblue" d="M406.659,-248.81C402.04,-230.332 397.502,-198.245 414.952,-180 443.07,-150.6 703.435,-139.959 830.219,-136.497"/>
<polygon fill="midnightblue" stroke="midnightblue" points="830.683,-139.986 840.587,-136.222 830.497,-132.989 830.683,-139.986"/>
</g>
<!-- Node12&#45;&gt;Node8 -->
<g id="edge14" class="edge"><title>Node12&#45;&gt;Node8</title>
<path fill="none" stroke="midnightblue" d="M396.848,-248.679C386.512,-238.184 372.475,-223.932 361.761,-213.052"/>
<polygon fill="midnightblue" stroke="midnightblue" points="364.157,-210.497 354.646,-205.828 359.169,-215.409 364.157,-210.497"/>
</g>
<!-- Node12&#45;&gt;Node9 -->
<g id="edge15" class="edge"><title>Node12&#45;&gt;Node9</title>
<path fill="none" stroke="midnightblue" d="M351.783,-250.196C294.659,-237.835 209.148,-219.331 155.509,-207.724"/>
<polygon fill="midnightblue" stroke="midnightblue" points="156.065,-204.263 145.551,-205.569 154.584,-211.105 156.065,-204.263"/>
</g>
<!-- Node12&#45;&gt;Node10 -->
<g id="edge16" class="edge"><title>Node12&#45;&gt;Node10</title>
<path fill="none" stroke="midnightblue" d="M375.555,-248.841C350.676,-238.89 317.203,-225.5 290.507,-214.822"/>
<polygon fill="midnightblue" stroke="midnightblue" points="291.591,-211.486 281.006,-211.022 288.991,-217.985 291.591,-211.486"/>
</g>
<!-- Node12&#45;&gt;Node11 -->
<g id="edge20" class="edge"><title>Node12&#45;&gt;Node11</title>
<path fill="none" stroke="midnightblue" d="M470.272,-255.17C562.806,-242.955 741.148,-219.414 840.228,-206.335"/>
<polygon fill="midnightblue" stroke="midnightblue" points="840.694,-209.805 850.15,-205.026 839.777,-202.865 840.694,-209.805"/>
</g>
<!-- Node13 -->
<g id="node13" class="node"><title>Node13</title>
<g id="a_node13"><a doxygen="https://jmirabel.github.io/hpp-doc/api/hpp-model/doxygen-html/hpp-model.doxytag:https://jmirabel.github.io/hpp-doc/api/hpp-model/doxygen-html/" xlink:href="https://jmirabel.github.io/hpp-doc/api/hpp-model/doxygen-html/a00041.html" target="_top" xlink:title="hpp/model/joint.hh">
<polygon fill="white" stroke="black" points="621.952,-186.5 621.952,-205.5 717.952,-205.5 717.952,-186.5 621.952,-186.5"/>
<text text-anchor="middle" x="669.952" y="-193.5" font-family="Helvetica,sans-Serif" font-size="10.00">hpp/model/joint.hh</text>
</a>
</g>
</g>
<!-- Node12&#45;&gt;Node13 -->
<g id="edge17" class="edge"><title>Node12&#45;&gt;Node13</title>
<path fill="none" stroke="midnightblue" d="M466.196,-248.922C514.161,-236.7 582.652,-219.246 626.712,-208.019"/>
<polygon fill="midnightblue" stroke="midnightblue" points="627.716,-211.375 636.542,-205.514 625.987,-204.592 627.716,-211.375"/>
</g>
<!-- Node13&#45;&gt;Node4 -->
<g id="edge18" class="edge"><title>Node13&#45;&gt;Node4</title>
<path fill="none" stroke="midnightblue" d="M668.799,-186.449C666.009,-161.777 661.767,-90.0658 700.952,-56 738.433,-23.4145 1069.74,-14.2125 1205.41,-11.7983"/>
<polygon fill="midnightblue" stroke="midnightblue" points="1205.66,-15.2944 1215.6,-11.6231 1205.54,-8.29547 1205.66,-15.2944"/>
</g>
<!-- Node14&#45;&gt;Node2 -->
<g id="edge27" class="edge"><title>Node14&#45;&gt;Node2</title>
<path fill="none" stroke="midnightblue" d="M741.345,-316.911C713.977,-307.429 677.891,-294.118 646.952,-280 604.314,-260.544 557.247,-234.009 526.951,-216.229"/>
<polygon fill="midnightblue" stroke="midnightblue" points="528.502,-213.08 518.111,-211.01 524.943,-219.108 528.502,-213.08"/>
</g>
<!-- Node14&#45;&gt;Node3 -->
<g id="edge50" class="edge"><title>Node14&#45;&gt;Node3</title>
<path fill="none" stroke="midnightblue" d="M788.36,-316.727C798.746,-283.652 825.136,-202.841 841.952,-180 850.917,-167.822 863.993,-157.178 875.36,-149.303"/>
<polygon fill="midnightblue" stroke="midnightblue" points="877.578,-152.033 883.999,-143.605 873.724,-146.189 877.578,-152.033"/>
</g>
<!-- Node14&#45;&gt;Node5 -->
<g id="edge52" class="edge"><title>Node14&#45;&gt;Node5</title>
<path fill="none" stroke="midnightblue" d="M783.952,-316.761C783.952,-273.046 783.952,-140.755 783.952,-91.6286"/>
<polygon fill="midnightblue" stroke="midnightblue" points="787.452,-91.5054 783.952,-81.5055 780.452,-91.5055 787.452,-91.5054"/>
</g>
<!-- Node14&#45;&gt;Node6 -->
<g id="edge51" class="edge"><title>Node14&#45;&gt;Node6</title>
<path fill="none" stroke="midnightblue" d="M763.505,-316.973C748.63,-306.753 728.016,-292.557 709.952,-280 666.72,-249.95 654.684,-244.099 612.952,-212 595.45,-198.539 593.098,-192.579 574.952,-180 557.924,-168.197 537.557,-156.775 521.635,-148.393"/>
<polygon fill="midnightblue" stroke="midnightblue" points="522.855,-145.083 512.366,-143.59 519.634,-151.298 522.855,-145.083"/>
</g>
<!-- Node14&#45;&gt;Node8 -->
<g id="edge26" class="edge"><title>Node14&#45;&gt;Node8</title>
<path fill="none" stroke="midnightblue" d="M728.929,-328.658C616.37,-323.302 368.236,-308.376 342.952,-280 327.396,-262.541 332.752,-233.894 338.769,-215.24"/>
<polygon fill="midnightblue" stroke="midnightblue" points="342.155,-216.166 342.234,-205.572 335.565,-213.804 342.155,-216.166"/>
</g>
<!-- Node14&#45;&gt;Node11 -->
<g id="edge28" class="edge"><title>Node14&#45;&gt;Node11</title>
<path fill="none" stroke="midnightblue" d="M798.755,-316.942C809.29,-306.827 823.692,-292.771 835.952,-280 857.483,-257.57 881.416,-230.734 896.326,-213.775"/>
<polygon fill="midnightblue" stroke="midnightblue" points="899.283,-215.71 903.24,-205.882 894.018,-211.098 899.283,-215.71"/>
</g>
<!-- Node14&#45;&gt;Node13 -->
<g id="edge53" class="edge"><title>Node14&#45;&gt;Node13</title>
<path fill="none" stroke="midnightblue" d="M771.752,-316.66C750.398,-291.559 706.382,-239.822 683.873,-213.364"/>
<polygon fill="midnightblue" stroke="midnightblue" points="686.522,-211.076 677.377,-205.728 681.191,-215.612 686.522,-211.076"/>
</g>
<!-- Node15 -->
<g id="node15" class="node"><title>Node15</title>
<g id="a_node15"><a xlink:href="a00062.html" target="_top" xlink:title="hpp/constraints/symbolic\l&#45;calculus.hh">
<polygon fill="white" stroke="black" points="1069.45,-249 1069.45,-279 1194.45,-279 1194.45,-249 1069.45,-249"/>
<text text-anchor="start" x="1077.45" y="-267" font-family="Helvetica,sans-Serif" font-size="10.00">hpp/constraints/symbolic</text>
<text text-anchor="middle" x="1131.95" y="-256" font-family="Helvetica,sans-Serif" font-size="10.00">&#45;calculus.hh</text>
</a>
</g>
</g>
<!-- Node14&#45;&gt;Node15 -->
<g id="edge29" class="edge"><title>Node14&#45;&gt;Node15</title>
<path fill="none" stroke="midnightblue" d="M839.093,-320.542C898.704,-309.237 993.966,-291.17 1059.56,-278.729"/>
<polygon fill="midnightblue" stroke="midnightblue" points="1060.25,-282.161 1069.42,-276.859 1058.95,-275.283 1060.25,-282.161"/>
</g>
<!-- Node15&#45;&gt;Node3 -->
<g id="edge31" class="edge"><title>Node15&#45;&gt;Node3</title>
<path fill="none" stroke="midnightblue" d="M1110.77,-248.948C1095.66,-238.836 1074.91,-224.781 1056.95,-212 1037.54,-198.188 1034.78,-191.554 1013.95,-180 989.29,-166.322 959.611,-154.82 936.582,-146.869"/>
<polygon fill="midnightblue" stroke="midnightblue" points="937.427,-143.46 926.832,-143.576 935.187,-150.092 937.427,-143.46"/>
</g>
<!-- Node15&#45;&gt;Node11 -->
<g id="edge48" class="edge"><title>Node15&#45;&gt;Node11</title>
<path fill="none" stroke="midnightblue" d="M1084.81,-248.922C1044.32,-236.828 986.671,-219.613 949.042,-208.375"/>
<polygon fill="midnightblue" stroke="midnightblue" points="950.043,-205.022 939.46,-205.514 948.04,-211.729 950.043,-205.022"/>
</g>
<!-- Node15&#45;&gt;Node13 -->
<g id="edge32" class="edge"><title>Node15&#45;&gt;Node13</title>
<path fill="none" stroke="midnightblue" d="M1069.16,-254.03C979.337,-241.198 815.394,-217.778 728.166,-205.316"/>
<polygon fill="midnightblue" stroke="midnightblue" points="728.569,-201.838 718.175,-203.889 727.579,-208.768 728.569,-201.838"/>
</g>
<!-- Node16 -->
<g id="node16" class="node"><title>Node16</title>
<polygon fill="white" stroke="#bfbfbf" points="1221.45,-124.5 1221.45,-143.5 1286.45,-143.5 1286.45,-124.5 1221.45,-124.5"/>
<text text-anchor="middle" x="1253.95" y="-131.5" font-family="Helvetica,sans-Serif" font-size="10.00">Eigen/SVD</text>
</g>
<!-- Node15&#45;&gt;Node16 -->
<g id="edge30" class="edge"><title>Node15&#45;&gt;Node16</title>
<path fill="none" stroke="midnightblue" d="M1194.7,-256.108C1249.2,-248.676 1322.11,-234.745 1339.95,-212 1348.73,-200.81 1347.32,-192.167 1339.95,-180 1330.32,-164.094 1313.02,-153.539 1296.44,-146.678"/>
<polygon fill="midnightblue" stroke="midnightblue" points="1297.42,-143.307 1286.83,-143.052 1294.95,-149.857 1297.42,-143.307"/>
</g>
<!-- Node17 -->
<g id="node17" class="node"><title>Node17</title>
<g id="a_node17"><a doxygen="https://jmirabel.github.io/hpp-doc/api/hpp-model/doxygen-html/hpp-model.doxytag:https://jmirabel.github.io/hpp-doc/api/hpp-model/doxygen-html/" xlink:href="https://jmirabel.github.io/hpp-doc/api/hpp-model/doxygen-html/a00036.html" target="_top" xlink:title="hpp/model/fcl&#45;to&#45;eigen.hh">
<polygon fill="white" stroke="black" points="1304.95,-124.5 1304.95,-143.5 1430.95,-143.5 1430.95,-124.5 1304.95,-124.5"/>
<text text-anchor="middle" x="1367.95" y="-131.5" font-family="Helvetica,sans-Serif" font-size="10.00">hpp/model/fcl&#45;to&#45;eigen.hh</text>
</a>
</g>
</g>
<!-- Node15&#45;&gt;Node17 -->
<g id="edge33" class="edge"><title>Node15&#45;&gt;Node17</title>
<path fill="none" stroke="midnightblue" d="M1194.59,-256.864C1253.67,-249.716 1336.31,-235.747 1357.95,-212 1372.18,-196.389 1372.74,-171.044 1371.03,-153.728"/>
<polygon fill="midnightblue" stroke="midnightblue" points="1374.48,-153.145 1369.7,-143.691 1367.54,-154.064 1374.48,-153.145"/>
</g>
<!-- Node18 -->
<g id="node18" class="node"><title>Node18</title>
<g id="a_node18"><a doxygen="https://jmirabel.github.io/hpp-doc/api/hpp-model/doxygen-html/hpp-model.doxytag:https://jmirabel.github.io/hpp-doc/api/hpp-model/doxygen-html/" xlink:href="https://jmirabel.github.io/hpp-doc/api/hpp-model/doxygen-html/a00028.html" target="_top" xlink:title="hpp/model/center&#45;of\l&#45;mass&#45;computation.hh">
<polygon fill="white" stroke="black" points="1446.45,-181 1446.45,-211 1559.45,-211 1559.45,-181 1446.45,-181"/>
<text text-anchor="start" x="1454.45" y="-199" font-family="Helvetica,sans-Serif" font-size="10.00">hpp/model/center&#45;of</text>
<text text-anchor="middle" x="1502.95" y="-188" font-family="Helvetica,sans-Serif" font-size="10.00">&#45;mass&#45;computation.hh</text>
</a>
</g>
</g>
<!-- Node15&#45;&gt;Node18 -->
<g id="edge35" class="edge"><title>Node15&#45;&gt;Node18</title>
<path fill="none" stroke="midnightblue" d="M1194.47,-251.879C1261.45,-239.963 1367.36,-221.121 1436.01,-208.91"/>
<polygon fill="midnightblue" stroke="midnightblue" points="1437.04,-212.281 1446.27,-207.083 1435.81,-205.389 1437.04,-212.281"/>
</g>
<!-- Node23 -->
<g id="node23" class="node"><title>Node23</title>
<g id="a_node23"><a xlink:href="a00061.html" target="_top" xlink:title="hpp/constraints/svd.hh">
<polygon fill="white" stroke="black" points="1215.95,-186.5 1215.95,-205.5 1331.95,-205.5 1331.95,-186.5 1215.95,-186.5"/>
<text text-anchor="middle" x="1273.95" y="-193.5" font-family="Helvetica,sans-Serif" font-size="10.00">hpp/constraints/svd.hh</text>
</a>
</g>
</g>
<!-- Node15&#45;&gt;Node23 -->
<g id="edge45" class="edge"><title>Node15&#45;&gt;Node23</title>
<path fill="none" stroke="midnightblue" d="M1162.41,-248.841C1187.2,-237.323 1221.89,-221.199 1245.97,-210.004"/>
<polygon fill="midnightblue" stroke="midnightblue" points="1247.68,-213.071 1255.27,-205.682 1244.73,-206.723 1247.68,-213.071"/>
</g>
<!-- Node24 -->
<g id="node24" class="node"><title>Node24</title>
<g id="a_node24"><a xlink:href="a00051.html" target="_top" xlink:title="hpp/constraints/macros.hh">
<polygon fill="white" stroke="black" points="1065.95,-186.5 1065.95,-205.5 1197.95,-205.5 1197.95,-186.5 1065.95,-186.5"/>
<text text-anchor="middle" x="1131.95" y="-193.5" font-family="Helvetica,sans-Serif" font-size="10.00">hpp/constraints/macros.hh</text>
</a>
</g>
</g>
<!-- Node15&#45;&gt;Node24 -->
<g id="edge49" class="edge"><title>Node15&#45;&gt;Node24</title>
<path fill="none" stroke="midnightblue" d="M1131.95,-248.679C1131.95,-239.101 1131.95,-226.394 1131.95,-215.977"/>
<polygon fill="midnightblue" stroke="midnightblue" points="1135.45,-215.828 1131.95,-205.828 1128.45,-215.828 1135.45,-215.828"/>
</g>
<!-- Node17&#45;&gt;Node4 -->
<g id="edge34" class="edge"><title>Node17&#45;&gt;Node4</title>
<path fill="none" stroke="midnightblue" d="M1312.87,-124.496C1272.46,-117.001 1222.54,-104.674 1209.95,-88 1201.38,-76.6493 1203.98,-68.9071 1209.95,-56 1215.87,-43.2072 1227.42,-32.7216 1238.23,-25.1003"/>
<polygon fill="midnightblue" stroke="midnightblue" points="1240.17,-28.0161 1246.62,-19.613 1236.33,-22.1581 1240.17,-28.0161"/>
</g>
<!-- Node18&#45;&gt;Node4 -->
<g id="edge36" class="edge"><title>Node18&#45;&gt;Node4</title>
<path fill="none" stroke="midnightblue" d="M1539.18,-180.914C1596.17,-156.794 1695.96,-105.393 1651.95,-56 1630.28,-31.6775 1423,-18.5507 1320.2,-13.4891"/>
<polygon fill="midnightblue" stroke="midnightblue" points="1320.14,-9.98256 1309.99,-12.9961 1319.81,-16.9744 1320.14,-9.98256"/>
</g>
<!-- Node19 -->
<g id="node19" class="node"><title>Node19</title>
<g id="a_node19"><a doxygen="https://jmirabel.github.io/hpp-doc/api/hpp-model/doxygen-html/hpp-model.doxytag:https://jmirabel.github.io/hpp-doc/api/hpp-model/doxygen-html/" xlink:href="https://jmirabel.github.io/hpp-doc/api/hpp-model/doxygen-html/a00033.html" target="_top" xlink:title="hpp/model/device.hh">
<polygon fill="white" stroke="black" points="1449.45,-124.5 1449.45,-143.5 1556.45,-143.5 1556.45,-124.5 1449.45,-124.5"/>
<text text-anchor="middle" x="1502.95" y="-131.5" font-family="Helvetica,sans-Serif" font-size="10.00">hpp/model/device.hh</text>
</a>
</g>
</g>
<!-- Node18&#45;&gt;Node19 -->
<g id="edge37" class="edge"><title>Node18&#45;&gt;Node19</title>
<path fill="none" stroke="midnightblue" d="M1502.95,-180.781C1502.95,-172.781 1502.95,-162.689 1502.95,-154.017"/>
<polygon fill="midnightblue" stroke="midnightblue" points="1506.45,-153.73 1502.95,-143.731 1499.45,-153.731 1506.45,-153.73"/>
</g>
<!-- Node19&#45;&gt;Node4 -->
<g id="edge38" class="edge"><title>Node19&#45;&gt;Node4</title>
<path fill="none" stroke="midnightblue" d="M1449.32,-124.598C1374.17,-112.703 1246.28,-91.9536 1242.95,-88 1228.69,-71.0609 1240.14,-45.1413 1250.68,-28.1314"/>
<polygon fill="midnightblue" stroke="midnightblue" points="1253.66,-29.9771 1256.28,-19.7118 1247.83,-26.1014 1253.66,-29.9771"/>
</g>
<!-- Node20 -->
<g id="node20" class="node"><title>Node20</title>
<g id="a_node20"><a doxygen="https://jmirabel.github.io/hpp-doc/api/hpp-model/doxygen-html/hpp-model.doxytag:https://jmirabel.github.io/hpp-doc/api/hpp-model/doxygen-html/" xlink:href="https://jmirabel.github.io/hpp-doc/api/hpp-model/doxygen-html/a00034.html" target="_top" xlink:title="hpp/model/distance\l&#45;result.hh">
<polygon fill="white" stroke="black" points="1252.45,-57 1252.45,-87 1353.45,-87 1353.45,-57 1252.45,-57"/>
<text text-anchor="start" x="1260.45" y="-75" font-family="Helvetica,sans-Serif" font-size="10.00">hpp/model/distance</text>
<text text-anchor="middle" x="1302.95" y="-64" font-family="Helvetica,sans-Serif" font-size="10.00">&#45;result.hh</text>
</a>
</g>
</g>
<!-- Node19&#45;&gt;Node20 -->
<g id="edge39" class="edge"><title>Node19&#45;&gt;Node20</title>
<path fill="none" stroke="midnightblue" d="M1474.3,-124.403C1444.45,-115.45 1396.92,-101.19 1359.48,-89.9579"/>
<polygon fill="midnightblue" stroke="midnightblue" points="1360.29,-86.5465 1349.7,-87.0253 1358.28,-93.2513 1360.29,-86.5465"/>
</g>
<!-- Node21 -->
<g id="node21" class="node"><title>Node21</title>
<g id="a_node21"><a doxygen="https://jmirabel.github.io/hpp-doc/api/hpp-model/doxygen-html/hpp-model.doxytag:https://jmirabel.github.io/hpp-doc/api/hpp-model/doxygen-html/" xlink:href="https://jmirabel.github.io/hpp-doc/api/hpp-model/doxygen-html/a00035.html" target="_top" xlink:title="hpp/model/extra&#45;config\l&#45;space.hh">
<polygon fill="white" stroke="black" points="1371.95,-57 1371.95,-87 1487.95,-87 1487.95,-57 1371.95,-57"/>
<text text-anchor="start" x="1379.95" y="-75" font-family="Helvetica,sans-Serif" font-size="10.00">hpp/model/extra&#45;config</text>
<text text-anchor="middle" x="1429.95" y="-64" font-family="Helvetica,sans-Serif" font-size="10.00">&#45;space.hh</text>
</a>
</g>
</g>
<!-- Node19&#45;&gt;Node21 -->
<g id="edge41" class="edge"><title>Node19&#45;&gt;Node21</title>
<path fill="none" stroke="midnightblue" d="M1492.49,-124.403C1482.79,-116.429 1467.97,-104.245 1455.19,-93.7403"/>
<polygon fill="midnightblue" stroke="midnightblue" points="1457.1,-90.7866 1447.16,-87.1408 1452.66,-96.1944 1457.1,-90.7866"/>
</g>
<!-- Node22 -->
<g id="node22" class="node"><title>Node22</title>
<g id="a_node22"><a doxygen="https://jmirabel.github.io/hpp-doc/api/hpp-model/doxygen-html/hpp-model.doxytag:https://jmirabel.github.io/hpp-doc/api/hpp-model/doxygen-html/" xlink:href="https://jmirabel.github.io/hpp-doc/api/hpp-model/doxygen-html/a00044.html" target="_top" xlink:title="hpp/model/object&#45;iterator.hh">
<polygon fill="white" stroke="black" points="1506.45,-62.5 1506.45,-81.5 1643.45,-81.5 1643.45,-62.5 1506.45,-62.5"/>
<text text-anchor="middle" x="1574.95" y="-69.5" font-family="Helvetica,sans-Serif" font-size="10.00">hpp/model/object&#45;iterator.hh</text>
</a>
</g>
</g>
<!-- Node19&#45;&gt;Node22 -->
<g id="edge43" class="edge"><title>Node19&#45;&gt;Node22</title>
<path fill="none" stroke="midnightblue" d="M1513.27,-124.403C1524.6,-114.958 1543.02,-99.6056 1556.79,-88.1342"/>
<polygon fill="midnightblue" stroke="midnightblue" points="1559.21,-90.6713 1564.65,-81.5806 1554.73,-85.2937 1559.21,-90.6713"/>
</g>
<!-- Node20&#45;&gt;Node4 -->
<g id="edge40" class="edge"><title>Node20&#45;&gt;Node4</title>
<path fill="none" stroke="midnightblue" d="M1293.47,-56.7808C1287.78,-48.2419 1280.5,-37.3184 1274.47,-28.2834"/>
<polygon fill="midnightblue" stroke="midnightblue" points="1277.23,-26.1096 1268.77,-19.7305 1271.41,-29.9925 1277.23,-26.1096"/>
</g>
<!-- Node21&#45;&gt;Node4 -->
<g id="edge42" class="edge"><title>Node21&#45;&gt;Node4</title>
<path fill="none" stroke="midnightblue" d="M1390.8,-56.9327C1362.12,-46.6292 1323.61,-32.7935 1296.37,-23.0079"/>
<polygon fill="midnightblue" stroke="midnightblue" points="1297.48,-19.6874 1286.89,-19.6 1295.12,-26.2752 1297.48,-19.6874"/>
</g>
<!-- Node22&#45;&gt;Node4 -->
<g id="edge44" class="edge"><title>Node22&#45;&gt;Node4</title>
<path fill="none" stroke="midnightblue" d="M1530.58,-62.4672C1474.44,-51.671 1377.8,-33.0856 1317.29,-21.4501"/>
<polygon fill="midnightblue" stroke="midnightblue" points="1317.65,-17.9549 1307.17,-19.5034 1316.33,-24.829 1317.65,-17.9549"/>
</g>
<!-- Node23&#45;&gt;Node3 -->
<g id="edge46" class="edge"><title>Node23&#45;&gt;Node3</title>
<path fill="none" stroke="midnightblue" d="M1238.24,-186.483C1228.15,-184.22 1217.15,-181.884 1206.95,-180 1124.9,-164.843 1029.78,-151.6 967.207,-143.475"/>
<polygon fill="midnightblue" stroke="midnightblue" points="967.433,-139.975 957.067,-142.167 966.537,-146.918 967.433,-139.975"/>
</g>
<!-- Node23&#45;&gt;Node16 -->
<g id="edge47" class="edge"><title>Node23&#45;&gt;Node16</title>
<path fill="none" stroke="midnightblue" d="M1271.09,-186.403C1268.2,-177.76 1263.68,-164.17 1260,-153.134"/>
<polygon fill="midnightblue" stroke="midnightblue" points="1263.29,-151.961 1256.81,-143.581 1256.65,-154.174 1263.29,-151.961"/>
</g>
</g>
</svg>
