<?xml version="1.0" encoding="UTF-8" standalone="no"?>
<!DOCTYPE svg PUBLIC "-//W3C//DTD SVG 1.1//EN"
 "http://www.w3.org/Graphics/SVG/1.1/DTD/svg11.dtd">
<!-- Generated by graphviz version 2.36.0 (20140111.2315)
 -->
<!-- Title: differentiable&#45;function.hh Pages: 1 -->
<svg width="1653pt" height="208pt"
 viewBox="0.00 0.00 1653.00 208.00" xmlns="http://www.w3.org/2000/svg" xmlns:xlink="http://www.w3.org/1999/xlink">
<g id="graph0" class="graph" transform="scale(1 1) rotate(0) translate(4 204)">
<title>differentiable&#45;function.hh</title>
<polygon fill="white" stroke="none" points="-4,4 -4,-204 1649,-204 1649,4 -4,4"/>
<!-- Node1 -->
<g id="node1" class="node"><title>Node1</title>
<polygon fill="#bfbfbf" stroke="black" points="879.5,-180.5 879.5,-199.5 1002.5,-199.5 1002.5,-180.5 879.5,-180.5"/>
<text text-anchor="middle" x="941" y="-187.5" font-family="Helvetica,sans-Serif" font-size="10.00">differentiable&#45;function.hh</text>
</g>
<!-- Node2 -->
<g id="node2" class="node"><title>Node2</title>
<g id="a_node2"><a xlink:href="a00043.html" target="_top" xlink:title="com&#45;between&#45;feet.hh">
<polygon fill="white" stroke="black" points="0,-118.5 0,-137.5 108,-137.5 108,-118.5 0,-118.5"/>
<text text-anchor="middle" x="54" y="-125.5" font-family="Helvetica,sans-Serif" font-size="10.00">com&#45;between&#45;feet.hh</text>
</a>
</g>
</g>
<!-- Node1&#45;&gt;Node2 -->
<g id="edge1" class="edge"><title>Node1&#45;&gt;Node2</title>
<path fill="none" stroke="midnightblue" d="M869.377,-189.388C725.838,-189.22 393.054,-184.071 117,-144 106.43,-142.466 95.0288,-140.004 84.8694,-137.516"/>
<polygon fill="midnightblue" stroke="midnightblue" points="869.38,-192.888 879.381,-189.392 869.383,-185.888 869.38,-192.888"/>
</g>
<!-- Node3 -->
<g id="node3" class="node"><title>Node3</title>
<g id="a_node3"><a xlink:href="a00044.html" target="_top" xlink:title="configuration&#45;constraint.hh">
<polygon fill="white" stroke="black" points="126.5,-118.5 126.5,-137.5 257.5,-137.5 257.5,-118.5 126.5,-118.5"/>
<text text-anchor="middle" x="192" y="-125.5" font-family="Helvetica,sans-Serif" font-size="10.00">configuration&#45;constraint.hh</text>
</a>
</g>
</g>
<!-- Node1&#45;&gt;Node3 -->
<g id="edge2" class="edge"><title>Node1&#45;&gt;Node3</title>
<path fill="none" stroke="midnightblue" d="M869.405,-186.961C746.7,-182.846 488.505,-171.481 272,-144 259.103,-142.363 245.144,-139.965 232.551,-137.565"/>
<polygon fill="midnightblue" stroke="midnightblue" points="869.319,-190.46 879.428,-187.291 869.549,-183.463 869.319,-190.46"/>
</g>
<!-- Node4 -->
<g id="node4" class="node"><title>Node4</title>
<g id="a_node4"><a xlink:href="a00045.html" target="_top" xlink:title="convex&#45;shape&#45;contact.hh">
<polygon fill="white" stroke="black" points="280,-56.5 280,-75.5 406,-75.5 406,-56.5 280,-56.5"/>
<text text-anchor="middle" x="343" y="-63.5" font-family="Helvetica,sans-Serif" font-size="10.00">convex&#45;shape&#45;contact.hh</text>
</a>
</g>
</g>
<!-- Node1&#45;&gt;Node4 -->
<g id="edge3" class="edge"><title>Node1&#45;&gt;Node4</title>
<path fill="none" stroke="midnightblue" d="M869.264,-189.296C710.98,-189.198 342.796,-184.564 305,-144 285.692,-123.277 315.976,-90.9 332.875,-75.5828"/>
<polygon fill="midnightblue" stroke="midnightblue" points="869.381,-192.796 879.381,-189.296 869.381,-185.796 869.381,-192.796"/>
</g>
<!-- Node5 -->
<g id="node5" class="node"><title>Node5</title>
<g id="a_node5"><a xlink:href="a00055.html" target="_top" xlink:title="qp&#45;static&#45;stability.hh">
<polygon fill="white" stroke="black" points="382,-0.5 382,-19.5 486,-19.5 486,-0.5 382,-0.5"/>
<text text-anchor="middle" x="434" y="-7.5" font-family="Helvetica,sans-Serif" font-size="10.00">qp&#45;static&#45;stability.hh</text>
</a>
</g>
</g>
<!-- Node1&#45;&gt;Node5 -->
<g id="edge14" class="edge"><title>Node1&#45;&gt;Node5</title>
<path fill="none" stroke="midnightblue" d="M868.931,-187.205C740.455,-183.306 482.485,-172.048 453,-144 417.849,-110.562 427.275,-43.6599 432.046,-19.7472"/>
<polygon fill="midnightblue" stroke="midnightblue" points="868.977,-190.708 879.077,-187.506 869.185,-183.711 868.977,-190.708"/>
</g>
<!-- Node6 -->
<g id="node6" class="node"><title>Node6</title>
<g id="a_node6"><a xlink:href="a00046.html" target="_top" xlink:title="convex&#45;shape.hh">
<polygon fill="white" stroke="black" points="314.5,-118.5 314.5,-137.5 405.5,-137.5 405.5,-118.5 314.5,-118.5"/>
<text text-anchor="middle" x="360" y="-125.5" font-family="Helvetica,sans-Serif" font-size="10.00">convex&#45;shape.hh</text>
</a>
</g>
</g>
<!-- Node1&#45;&gt;Node6 -->
<g id="edge5" class="edge"><title>Node1&#45;&gt;Node6</title>
<path fill="none" stroke="midnightblue" d="M869.168,-186.404C768.265,-181.941 579.079,-170.582 420,-144 410.257,-142.372 399.768,-139.977 390.327,-137.576"/>
<polygon fill="midnightblue" stroke="midnightblue" points="869.105,-189.905 879.246,-186.84 869.407,-182.911 869.105,-189.905"/>
</g>
<!-- Node7 -->
<g id="node7" class="node"><title>Node7</title>
<g id="a_node7"><a xlink:href="a00048.html" target="_top" xlink:title="distance&#45;between&#45;bodies.hh">
<polygon fill="white" stroke="black" points="462,-118.5 462,-137.5 600,-137.5 600,-118.5 462,-118.5"/>
<text text-anchor="middle" x="531" y="-125.5" font-family="Helvetica,sans-Serif" font-size="10.00">distance&#45;between&#45;bodies.hh</text>
</a>
</g>
</g>
<!-- Node1&#45;&gt;Node7 -->
<g id="edge7" class="edge"><title>Node1&#45;&gt;Node7</title>
<path fill="none" stroke="midnightblue" d="M869.272,-180.44C801.915,-172.126 698.405,-158.644 609,-144 597.297,-142.083 584.654,-139.761 573.024,-137.523"/>
<polygon fill="midnightblue" stroke="midnightblue" points="869.001,-183.933 879.353,-181.679 869.855,-176.985 869.001,-183.933"/>
</g>
<!-- Node8 -->
<g id="node8" class="node"><title>Node8</title>
<g id="a_node8"><a xlink:href="a00049.html" target="_top" xlink:title="distance&#45;between&#45;points\l&#45;in&#45;bodies.hh">
<polygon fill="white" stroke="black" points="618,-113 618,-143 740,-143 740,-113 618,-113"/>
<text text-anchor="start" x="626" y="-131" font-family="Helvetica,sans-Serif" font-size="10.00">distance&#45;between&#45;points</text>
<text text-anchor="middle" x="679" y="-120" font-family="Helvetica,sans-Serif" font-size="10.00">&#45;in&#45;bodies.hh</text>
</a>
</g>
</g>
<!-- Node1&#45;&gt;Node8 -->
<g id="edge8" class="edge"><title>Node1&#45;&gt;Node8</title>
<path fill="none" stroke="midnightblue" d="M893.817,-178.195C850.809,-168.346 787.024,-153.738 740.128,-142.999"/>
<polygon fill="midnightblue" stroke="midnightblue" points="893.211,-181.646 903.74,-180.467 894.774,-174.823 893.211,-181.646"/>
</g>
<!-- Node9 -->
<g id="node9" class="node"><title>Node9</title>
<g id="a_node9"><a xlink:href="a00050.html" target="_top" xlink:title="generic&#45;transformation.hh">
<polygon fill="white" stroke="black" points="758.5,-118.5 758.5,-137.5 885.5,-137.5 885.5,-118.5 758.5,-118.5"/>
<text text-anchor="middle" x="822" y="-125.5" font-family="Helvetica,sans-Serif" font-size="10.00">generic&#45;transformation.hh</text>
</a>
</g>
</g>
<!-- Node1&#45;&gt;Node9 -->
<g id="edge9" class="edge"><title>Node1&#45;&gt;Node9</title>
<path fill="none" stroke="midnightblue" d="M914.733,-175.756C891.669,-164.127 858.798,-147.554 839.018,-137.581"/>
<polygon fill="midnightblue" stroke="midnightblue" points="913.445,-179.027 923.95,-180.403 916.597,-172.776 913.445,-179.027"/>
</g>
<!-- Node10 -->
<g id="node10" class="node"><title>Node10</title>
<g id="a_node10"><a xlink:href="a00053.html" target="_top" xlink:title="orientation.hh">
<polygon fill="white" stroke="black" points="903.5,-118.5 903.5,-137.5 978.5,-137.5 978.5,-118.5 903.5,-118.5"/>
<text text-anchor="middle" x="941" y="-125.5" font-family="Helvetica,sans-Serif" font-size="10.00">orientation.hh</text>
</a>
</g>
</g>
<!-- Node1&#45;&gt;Node10 -->
<g id="edge10" class="edge"><title>Node1&#45;&gt;Node10</title>
<path fill="none" stroke="midnightblue" d="M941,-170.16C941,-159.248 941,-146.04 941,-137.581"/>
<polygon fill="midnightblue" stroke="midnightblue" points="937.5,-170.403 941,-180.403 944.5,-170.403 937.5,-170.403"/>
</g>
<!-- Node11 -->
<g id="node11" class="node"><title>Node11</title>
<g id="a_node11"><a xlink:href="a00065.html" target="_top" xlink:title="transformation.hh">
<polygon fill="white" stroke="black" points="961,-56.5 961,-75.5 1053,-75.5 1053,-56.5 961,-56.5"/>
<text text-anchor="middle" x="1007" y="-63.5" font-family="Helvetica,sans-Serif" font-size="10.00">transformation.hh</text>
</a>
</g>
</g>
<!-- Node1&#45;&gt;Node11 -->
<g id="edge24" class="edge"><title>Node1&#45;&gt;Node11</title>
<path fill="none" stroke="midnightblue" d="M960.949,-173.793C970.116,-165.841 980.395,-155.397 987,-144 1000.02,-121.534 1004.7,-90.5386 1006.27,-75.6571"/>
<polygon fill="midnightblue" stroke="midnightblue" points="958.478,-171.294 952.98,-180.351 962.926,-176.699 958.478,-171.294"/>
</g>
<!-- Node12 -->
<g id="node12" class="node"><title>Node12</title>
<g id="a_node12"><a xlink:href="a00054.html" target="_top" xlink:title="position.hh">
<polygon fill="white" stroke="black" points="1035,-118.5 1035,-137.5 1099,-137.5 1099,-118.5 1035,-118.5"/>
<text text-anchor="middle" x="1067" y="-125.5" font-family="Helvetica,sans-Serif" font-size="10.00">position.hh</text>
</a>
</g>
</g>
<!-- Node1&#45;&gt;Node12 -->
<g id="edge12" class="edge"><title>Node1&#45;&gt;Node12</title>
<path fill="none" stroke="midnightblue" d="M968.16,-176.066C992.61,-164.424 1027.85,-147.643 1048.98,-137.581"/>
<polygon fill="midnightblue" stroke="midnightblue" points="966.577,-172.944 959.053,-180.403 969.586,-179.264 966.577,-172.944"/>
</g>
<!-- Node13 -->
<g id="node13" class="node"><title>Node13</title>
<g id="a_node13"><a xlink:href="a00060.html" target="_top" xlink:title="static&#45;stability.hh">
<polygon fill="white" stroke="black" points="1076.5,-56.5 1076.5,-75.5 1167.5,-75.5 1167.5,-56.5 1076.5,-56.5"/>
<text text-anchor="middle" x="1122" y="-63.5" font-family="Helvetica,sans-Serif" font-size="10.00">static&#45;stability.hh</text>
</a>
</g>
</g>
<!-- Node1&#45;&gt;Node13 -->
<g id="edge15" class="edge"><title>Node1&#45;&gt;Node13</title>
<path fill="none" stroke="midnightblue" d="M1012.74,-186.69C1046.2,-181.815 1083.87,-170.235 1108,-144 1125.57,-124.901 1124.72,-91.4387 1123.15,-75.6775"/>
<polygon fill="midnightblue" stroke="midnightblue" points="1011.99,-183.258 1002.52,-187.997 1012.88,-190.202 1011.99,-183.258"/>
</g>
<!-- Node14 -->
<g id="node14" class="node"><title>Node14</title>
<g id="a_node14"><a xlink:href="a00056.html" target="_top" xlink:title="relative&#45;com.hh">
<polygon fill="white" stroke="black" points="1155.5,-118.5 1155.5,-137.5 1238.5,-137.5 1238.5,-118.5 1155.5,-118.5"/>
<text text-anchor="middle" x="1197" y="-125.5" font-family="Helvetica,sans-Serif" font-size="10.00">relative&#45;com.hh</text>
</a>
</g>
</g>
<!-- Node1&#45;&gt;Node14 -->
<g id="edge17" class="edge"><title>Node1&#45;&gt;Node14</title>
<path fill="none" stroke="midnightblue" d="M991.237,-178.285C1031.76,-169.5 1090.19,-156.516 1141,-144 1149.11,-142.002 1157.85,-139.723 1165.96,-137.555"/>
<polygon fill="midnightblue" stroke="midnightblue" points="990.37,-174.892 981.335,-180.426 991.849,-181.734 990.37,-174.892"/>
</g>
<!-- Node15 -->
<g id="node15" class="node"><title>Node15</title>
<g id="a_node15"><a xlink:href="a00057.html" target="_top" xlink:title="relative&#45;orientation.hh">
<polygon fill="white" stroke="black" points="1257,-118.5 1257,-137.5 1367,-137.5 1367,-118.5 1257,-118.5"/>
<text text-anchor="middle" x="1312" y="-125.5" font-family="Helvetica,sans-Serif" font-size="10.00">relative&#45;orientation.hh</text>
</a>
</g>
</g>
<!-- Node1&#45;&gt;Node15 -->
<g id="edge18" class="edge"><title>Node1&#45;&gt;Node15</title>
<path fill="none" stroke="midnightblue" d="M1012.88,-180.097C1075.07,-171.998 1167.28,-159.036 1247,-144 1256.9,-142.133 1267.58,-139.802 1277.36,-137.539"/>
<polygon fill="midnightblue" stroke="midnightblue" points="1012.25,-176.65 1002.78,-181.404 1013.15,-183.592 1012.25,-176.65"/>
</g>
<!-- Node16 -->
<g id="node16" class="node"><title>Node16</title>
<g id="a_node16"><a xlink:href="a00059.html" target="_top" xlink:title="relative&#45;transformation.hh">
<polygon fill="white" stroke="black" points="1331.5,-56.5 1331.5,-75.5 1458.5,-75.5 1458.5,-56.5 1331.5,-56.5"/>
<text text-anchor="middle" x="1395" y="-63.5" font-family="Helvetica,sans-Serif" font-size="10.00">relative&#45;transformation.hh</text>
</a>
</g>
</g>
<!-- Node1&#45;&gt;Node16 -->
<g id="edge22" class="edge"><title>Node1&#45;&gt;Node16</title>
<path fill="none" stroke="midnightblue" d="M1013.19,-186.02C1129.78,-180.55 1349.24,-167.28 1376,-144 1395.95,-126.648 1396.66,-92.0116 1395.77,-75.7778"/>
<polygon fill="midnightblue" stroke="midnightblue" points="1012.76,-182.536 1002.93,-186.494 1013.08,-189.529 1012.76,-182.536"/>
</g>
<!-- Node17 -->
<g id="node17" class="node"><title>Node17</title>
<g id="a_node17"><a xlink:href="a00058.html" target="_top" xlink:title="relative&#45;position.hh">
<polygon fill="white" stroke="black" points="1423,-118.5 1423,-137.5 1521,-137.5 1521,-118.5 1423,-118.5"/>
<text text-anchor="middle" x="1472" y="-125.5" font-family="Helvetica,sans-Serif" font-size="10.00">relative&#45;position.hh</text>
</a>
</g>
</g>
<!-- Node1&#45;&gt;Node17 -->
<g id="edge20" class="edge"><title>Node1&#45;&gt;Node17</title>
<path fill="none" stroke="midnightblue" d="M1012.73,-185.183C1104.92,-179.575 1269.69,-167.168 1409,-144 1419.09,-142.321 1429.97,-139.941 1439.8,-137.57"/>
<polygon fill="midnightblue" stroke="midnightblue" points="1012.45,-181.694 1002.68,-185.786 1012.87,-188.682 1012.45,-181.694"/>
</g>
<!-- Node18 -->
<g id="node18" class="node"><title>Node18</title>
<g id="a_node18"><a xlink:href="a00063.html" target="_top" xlink:title="symbolic&#45;function.hh">
<polygon fill="white" stroke="black" points="1538.5,-118.5 1538.5,-137.5 1645.5,-137.5 1645.5,-118.5 1538.5,-118.5"/>
<text text-anchor="middle" x="1592" y="-125.5" font-family="Helvetica,sans-Serif" font-size="10.00">symbolic&#45;function.hh</text>
</a>
</g>
</g>
<!-- Node1&#45;&gt;Node18 -->
<g id="edge23" class="edge"><title>Node1&#45;&gt;Node18</title>
<path fill="none" stroke="midnightblue" d="M1012.83,-187.141C1124.04,-183.446 1344.34,-172.865 1529,-144 1539.33,-142.385 1550.47,-139.964 1560.47,-137.535"/>
<polygon fill="midnightblue" stroke="midnightblue" points="1012.62,-183.646 1002.74,-187.467 1012.85,-190.642 1012.62,-183.646"/>
</g>
<!-- Node4&#45;&gt;Node5 -->
<g id="edge4" class="edge"><title>Node4&#45;&gt;Node5</title>
<path fill="none" stroke="midnightblue" d="M366.294,-51.1774C383.039,-41.2407 405.1,-28.1492 419.416,-19.6545"/>
<polygon fill="midnightblue" stroke="midnightblue" points="364.434,-48.2108 357.621,-56.324 368.007,-54.2307 364.434,-48.2108"/>
</g>
<!-- Node6&#45;&gt;Node4 -->
<g id="edge6" class="edge"><title>Node6&#45;&gt;Node4</title>
<path fill="none" stroke="midnightblue" d="M354.759,-108.503C351.649,-97.5268 347.853,-84.1291 345.431,-75.5806"/>
<polygon fill="midnightblue" stroke="midnightblue" points="351.471,-109.736 357.564,-118.403 358.206,-107.828 351.471,-109.736"/>
</g>
<!-- Node10&#45;&gt;Node11 -->
<g id="edge11" class="edge"><title>Node10&#45;&gt;Node11</title>
<path fill="none" stroke="midnightblue" d="M958.027,-111.521C970.61,-100.082 987.276,-84.9305 997.561,-75.5806"/>
<polygon fill="midnightblue" stroke="midnightblue" points="955.501,-109.087 950.456,-118.403 960.21,-114.267 955.501,-109.087"/>
</g>
<!-- Node12&#45;&gt;Node11 -->
<g id="edge13" class="edge"><title>Node12&#45;&gt;Node11</title>
<path fill="none" stroke="midnightblue" d="M1051.19,-111.193C1039.79,-99.7935 1024.84,-84.8414 1015.58,-75.5806"/>
<polygon fill="midnightblue" stroke="midnightblue" points="1048.86,-113.807 1058.4,-118.403 1053.81,-108.857 1048.86,-113.807"/>
</g>
<!-- Node13&#45;&gt;Node5 -->
<g id="edge16" class="edge"><title>Node13&#45;&gt;Node5</title>
<path fill="none" stroke="midnightblue" d="M1065.93,-56.4506C1064.61,-56.2939 1063.3,-56.1434 1062,-56 849.057,-32.4357 594.061,-18.5761 486.229,-13.3738"/>
<polygon fill="midnightblue" stroke="midnightblue" points="1065.82,-59.9655 1076.19,-57.755 1066.71,-53.0215 1065.82,-59.9655"/>
</g>
<!-- Node15&#45;&gt;Node16 -->
<g id="edge19" class="edge"><title>Node15&#45;&gt;Node16</title>
<path fill="none" stroke="midnightblue" d="M1332.07,-112.492C1348.03,-100.952 1369.83,-85.1976 1383.13,-75.5806"/>
<polygon fill="midnightblue" stroke="midnightblue" points="1329.95,-109.708 1323.89,-118.403 1334.05,-115.381 1329.95,-109.708"/>
</g>
<!-- Node17&#45;&gt;Node16 -->
<g id="edge21" class="edge"><title>Node17&#45;&gt;Node16</title>
<path fill="none" stroke="midnightblue" d="M1452.97,-112.17C1438.2,-100.661 1418.24,-85.1086 1406.01,-75.5806"/>
<polygon fill="midnightblue" stroke="midnightblue" points="1450.93,-115.018 1460.97,-118.403 1455.23,-109.496 1450.93,-115.018"/>
</g>
</g>
</svg>
