<?xml version="1.0" encoding="UTF-8" standalone="no"?>
<!DOCTYPE svg PUBLIC "-//W3C//DTD SVG 1.1//EN"
 "http://www.w3.org/Graphics/SVG/1.1/DTD/svg11.dtd">
<!-- Generated by graphviz version 2.36.0 (20140111.2315)
 -->
<!-- Title: com&#45;between&#45;feet.hh Pages: 1 -->
<svg width="1309pt" height="344pt"
 viewBox="0.00 0.00 1309.00 344.00" xmlns="http://www.w3.org/2000/svg" xmlns:xlink="http://www.w3.org/1999/xlink">
<g id="graph0" class="graph" transform="scale(1 1) rotate(0) translate(4 340)">
<title>com&#45;between&#45;feet.hh</title>
<polygon fill="white" stroke="none" points="-4,4 -4,-340 1305,-340 1305,4 -4,4"/>
<!-- Node1 -->
<g id="node1" class="node"><title>Node1</title>
<polygon fill="#bfbfbf" stroke="black" points="272,-316.5 272,-335.5 380,-335.5 380,-316.5 272,-316.5"/>
<text text-anchor="middle" x="326" y="-323.5" font-family="Helvetica,sans-Serif" font-size="10.00">com&#45;between&#45;feet.hh</text>
</g>
<!-- Node2 -->
<g id="node2" class="node"><title>Node2</title>
<polygon fill="white" stroke="#bfbfbf" points="-1,-254.5 -1,-273.5 119,-273.5 119,-254.5 -1,-254.5"/>
<text text-anchor="middle" x="59" y="-261.5" font-family="Helvetica,sans-Serif" font-size="10.00">boost/assign/list_of.hpp</text>
</g>
<!-- Node1&#45;&gt;Node2 -->
<g id="edge1" class="edge"><title>Node1&#45;&gt;Node2</title>
<path fill="none" stroke="midnightblue" d="M288.029,-316.467C240.383,-305.76 158.645,-287.392 106.793,-275.74"/>
<polygon fill="midnightblue" stroke="midnightblue" points="107.364,-272.281 96.8401,-273.503 105.829,-279.111 107.364,-272.281"/>
</g>
<!-- Node3 -->
<g id="node3" class="node"><title>Node3</title>
<g id="a_node3"><a xlink:href="a00047.html" target="_top" xlink:title="hpp/constraints/differentiable\l&#45;function.hh">
<polygon fill="white" stroke="black" points="137,-249 137,-279 279,-279 279,-249 137,-249"/>
<text text-anchor="start" x="145" y="-267" font-family="Helvetica,sans-Serif" font-size="10.00">hpp/constraints/differentiable</text>
<text text-anchor="middle" x="208" y="-256" font-family="Helvetica,sans-Serif" font-size="10.00">&#45;function.hh</text>
</a>
</g>
</g>
<!-- Node1&#45;&gt;Node3 -->
<g id="edge2" class="edge"><title>Node1&#45;&gt;Node3</title>
<path fill="none" stroke="midnightblue" d="M309.093,-316.403C292.44,-307.936 266.45,-294.72 244.993,-283.81"/>
<polygon fill="midnightblue" stroke="midnightblue" points="246.311,-280.553 235.81,-279.141 243.138,-286.793 246.311,-280.553"/>
</g>
<!-- Node4 -->
<g id="node4" class="node"><title>Node4</title>
<g id="a_node4"><a xlink:href="a00001.html" target="_top" xlink:title="hpp/constraints/fwd.hh">
<polygon fill="white" stroke="black" points="376,-124.5 376,-143.5 492,-143.5 492,-124.5 376,-124.5"/>
<text text-anchor="middle" x="434" y="-131.5" font-family="Helvetica,sans-Serif" font-size="10.00">hpp/constraints/fwd.hh</text>
</a>
</g>
</g>
<!-- Node1&#45;&gt;Node4 -->
<g id="edge8" class="edge"><title>Node1&#45;&gt;Node4</title>
<path fill="none" stroke="midnightblue" d="M326.24,-316.247C327.311,-292.179 333.151,-223.882 365,-180 374.897,-166.364 390.298,-155.748 404.041,-148.261"/>
<polygon fill="midnightblue" stroke="midnightblue" points="405.891,-151.246 413.203,-143.578 402.705,-145.013 405.891,-151.246"/>
</g>
<!-- Node7 -->
<g id="node7" class="node"><title>Node7</title>
<polygon fill="white" stroke="#bfbfbf" points="191,-186.5 191,-205.5 317,-205.5 317,-186.5 191,-186.5"/>
<text text-anchor="middle" x="254" y="-193.5" font-family="Helvetica,sans-Serif" font-size="10.00">hpp/constraints/config.hh</text>
</g>
<!-- Node1&#45;&gt;Node7 -->
<g id="edge7" class="edge"><title>Node1&#45;&gt;Node7</title>
<path fill="none" stroke="midnightblue" d="M322.138,-316.264C315.637,-301.783 301.855,-272.018 288,-248 281.311,-236.404 272.986,-223.89 266.248,-214.16"/>
<polygon fill="midnightblue" stroke="midnightblue" points="268.991,-211.976 260.379,-205.805 263.263,-215.999 268.991,-211.976"/>
</g>
<!-- Node8 -->
<g id="node8" class="node"><title>Node8</title>
<g id="a_node8"><a xlink:href="a00064.html" target="_top" xlink:title="hpp/constraints/tools.hh">
<polygon fill="white" stroke="black" points="373.5,-186.5 373.5,-205.5 494.5,-205.5 494.5,-186.5 373.5,-186.5"/>
<text text-anchor="middle" x="434" y="-193.5" font-family="Helvetica,sans-Serif" font-size="10.00">hpp/constraints/tools.hh</text>
</a>
</g>
</g>
<!-- Node1&#45;&gt;Node8 -->
<g id="edge9" class="edge"><title>Node1&#45;&gt;Node8</title>
<path fill="none" stroke="midnightblue" d="M333.423,-316.202C351.312,-295 397.032,-240.814 420.158,-213.405"/>
<polygon fill="midnightblue" stroke="midnightblue" points="423.035,-215.422 426.809,-205.522 417.685,-210.908 423.035,-215.422"/>
</g>
<!-- Node9 -->
<g id="node9" class="node"><title>Node9</title>
<g id="a_node9"><a xlink:href="a00062.html" target="_top" xlink:title="hpp/constraints/symbolic\l&#45;calculus.hh">
<polygon fill="white" stroke="black" points="632.5,-249 632.5,-279 757.5,-279 757.5,-249 632.5,-249"/>
<text text-anchor="start" x="640.5" y="-267" font-family="Helvetica,sans-Serif" font-size="10.00">hpp/constraints/symbolic</text>
<text text-anchor="middle" x="695" y="-256" font-family="Helvetica,sans-Serif" font-size="10.00">&#45;calculus.hh</text>
</a>
</g>
</g>
<!-- Node1&#45;&gt;Node9 -->
<g id="edge11" class="edge"><title>Node1&#45;&gt;Node9</title>
<path fill="none" stroke="midnightblue" d="M378.477,-316.467C442.329,-306.085 550.483,-288.499 622.321,-276.818"/>
<polygon fill="midnightblue" stroke="midnightblue" points="622.9,-280.27 632.208,-275.21 621.776,-273.36 622.9,-280.27"/>
</g>
<!-- Node3&#45;&gt;Node4 -->
<g id="edge3" class="edge"><title>Node3&#45;&gt;Node4</title>
<path fill="none" stroke="midnightblue" d="M196.285,-248.8C182.999,-230.893 165.23,-200.03 182,-180 205.032,-152.49 299.255,-141.781 365.706,-137.623"/>
<polygon fill="midnightblue" stroke="midnightblue" points="365.93,-141.116 375.706,-137.033 365.517,-134.128 365.93,-141.116"/>
</g>
<!-- Node3&#45;&gt;Node7 -->
<g id="edge6" class="edge"><title>Node3&#45;&gt;Node7</title>
<path fill="none" stroke="midnightblue" d="M217.981,-248.679C225.012,-238.592 234.462,-225.033 241.918,-214.335"/>
<polygon fill="midnightblue" stroke="midnightblue" points="245,-216.034 247.847,-205.828 239.258,-212.031 245,-216.034"/>
</g>
<!-- Node5 -->
<g id="node5" class="node"><title>Node5</title>
<g id="a_node5"><a doxygen="https://jmirabel.github.io/hpp-doc/api/hpp-model/doxygen-html/hpp-model.doxytag:https://jmirabel.github.io/hpp-doc/api/hpp-model/doxygen-html/" xlink:href="https://jmirabel.github.io/hpp-doc/api/hpp-model/doxygen-html/a00037.html" target="_top" xlink:title="hpp/model/fwd.hh">
<polygon fill="white" stroke="black" points="816,-0.5 816,-19.5 910,-19.5 910,-0.5 816,-0.5"/>
<text text-anchor="middle" x="863" y="-7.5" font-family="Helvetica,sans-Serif" font-size="10.00">hpp/model/fwd.hh</text>
</a>
</g>
</g>
<!-- Node4&#45;&gt;Node5 -->
<g id="edge4" class="edge"><title>Node4&#45;&gt;Node5</title>
<path fill="none" stroke="midnightblue" d="M433.239,-124.234C432.367,-108.019 433.109,-73.4139 453,-56 479.006,-33.2328 698.99,-19.2112 805.57,-13.6935"/>
<polygon fill="midnightblue" stroke="midnightblue" points="806.02,-17.1752 815.829,-13.1705 805.664,-10.1843 806.02,-17.1752"/>
</g>
<!-- Node6 -->
<g id="node6" class="node"><title>Node6</title>
<polygon fill="white" stroke="#bfbfbf" points="462,-62.5 462,-81.5 610,-81.5 610,-62.5 462,-62.5"/>
<text text-anchor="middle" x="536" y="-69.5" font-family="Helvetica,sans-Serif" font-size="10.00">hpp/constraints/deprecated.hh</text>
</g>
<!-- Node4&#45;&gt;Node6 -->
<g id="edge5" class="edge"><title>Node4&#45;&gt;Node6</title>
<path fill="none" stroke="midnightblue" d="M448.614,-124.403C465.353,-114.557 493.004,-98.2915 512.719,-86.6949"/>
<polygon fill="midnightblue" stroke="midnightblue" points="514.568,-89.6676 521.413,-81.5806 511.019,-83.6341 514.568,-89.6676"/>
</g>
<!-- Node8&#45;&gt;Node4 -->
<g id="edge10" class="edge"><title>Node8&#45;&gt;Node4</title>
<path fill="none" stroke="midnightblue" d="M434,-186.403C434,-177.938 434,-164.728 434,-153.82"/>
<polygon fill="midnightblue" stroke="midnightblue" points="437.5,-153.581 434,-143.581 430.5,-153.581 437.5,-153.581"/>
</g>
<!-- Node9&#45;&gt;Node4 -->
<g id="edge13" class="edge"><title>Node9&#45;&gt;Node4</title>
<path fill="none" stroke="midnightblue" d="M636.609,-248.967C607.166,-240.562 571.537,-228.307 542,-212 522.371,-201.163 521.084,-193.255 503,-180 488.005,-169.009 470.446,-157.576 456.794,-148.985"/>
<polygon fill="midnightblue" stroke="midnightblue" points="458.384,-145.852 448.046,-143.531 454.68,-151.792 458.384,-145.852"/>
</g>
<!-- Node9&#45;&gt;Node8 -->
<g id="edge31" class="edge"><title>Node9&#45;&gt;Node8</title>
<path fill="none" stroke="midnightblue" d="M639.329,-248.922C590.994,-236.7 521.974,-219.246 477.574,-208.019"/>
<polygon fill="midnightblue" stroke="midnightblue" points="478.221,-204.572 467.668,-205.514 476.505,-211.359 478.221,-204.572"/>
</g>
<!-- Node10 -->
<g id="node10" class="node"><title>Node10</title>
<polygon fill="white" stroke="#bfbfbf" points="510.5,-124.5 510.5,-143.5 575.5,-143.5 575.5,-124.5 510.5,-124.5"/>
<text text-anchor="middle" x="543" y="-131.5" font-family="Helvetica,sans-Serif" font-size="10.00">Eigen/SVD</text>
</g>
<!-- Node9&#45;&gt;Node10 -->
<g id="edge12" class="edge"><title>Node9&#45;&gt;Node10</title>
<path fill="none" stroke="midnightblue" d="M695.507,-248.774C695.372,-230.552 692.378,-199.057 675,-180 662.766,-166.584 619.558,-153.442 585.869,-144.858"/>
<polygon fill="midnightblue" stroke="midnightblue" points="586.314,-141.362 575.765,-142.345 584.624,-148.155 586.314,-141.362"/>
</g>
<!-- Node11 -->
<g id="node11" class="node"><title>Node11</title>
<g id="a_node11"><a doxygen="https://jmirabel.github.io/hpp-doc/api/hpp-model/doxygen-html/hpp-model.doxytag:https://jmirabel.github.io/hpp-doc/api/hpp-model/doxygen-html/" xlink:href="https://jmirabel.github.io/hpp-doc/api/hpp-model/doxygen-html/a00041.html" target="_top" xlink:title="hpp/model/joint.hh">
<polygon fill="white" stroke="black" points="594,-124.5 594,-143.5 690,-143.5 690,-124.5 594,-124.5"/>
<text text-anchor="middle" x="642" y="-131.5" font-family="Helvetica,sans-Serif" font-size="10.00">hpp/model/joint.hh</text>
</a>
</g>
</g>
<!-- Node9&#45;&gt;Node11 -->
<g id="edge14" class="edge"><title>Node9&#45;&gt;Node11</title>
<path fill="none" stroke="midnightblue" d="M702.493,-248.919C710.558,-231.677 720.753,-202.052 709,-180 701.45,-165.834 687.239,-155.335 673.842,-148.058"/>
<polygon fill="midnightblue" stroke="midnightblue" points="675.298,-144.872 664.788,-143.529 672.166,-151.133 675.298,-144.872"/>
</g>
<!-- Node12 -->
<g id="node12" class="node"><title>Node12</title>
<g id="a_node12"><a doxygen="https://jmirabel.github.io/hpp-doc/api/hpp-model/doxygen-html/hpp-model.doxytag:https://jmirabel.github.io/hpp-doc/api/hpp-model/doxygen-html/" xlink:href="https://jmirabel.github.io/hpp-doc/api/hpp-model/doxygen-html/a00036.html" target="_top" xlink:title="hpp/model/fcl&#45;to&#45;eigen.hh">
<polygon fill="white" stroke="black" points="708,-124.5 708,-143.5 834,-143.5 834,-124.5 708,-124.5"/>
<text text-anchor="middle" x="771" y="-131.5" font-family="Helvetica,sans-Serif" font-size="10.00">hpp/model/fcl&#45;to&#45;eigen.hh</text>
</a>
</g>
</g>
<!-- Node9&#45;&gt;Node12 -->
<g id="edge16" class="edge"><title>Node9&#45;&gt;Node12</title>
<path fill="none" stroke="midnightblue" d="M703.424,-248.813C717.474,-225.149 745.643,-177.707 760.796,-152.186"/>
<polygon fill="midnightblue" stroke="midnightblue" points="763.813,-153.959 765.909,-143.574 757.794,-150.385 763.813,-153.959"/>
</g>
<!-- Node13 -->
<g id="node13" class="node"><title>Node13</title>
<g id="a_node13"><a doxygen="https://jmirabel.github.io/hpp-doc/api/hpp-model/doxygen-html/hpp-model.doxytag:https://jmirabel.github.io/hpp-doc/api/hpp-model/doxygen-html/" xlink:href="https://jmirabel.github.io/hpp-doc/api/hpp-model/doxygen-html/a00028.html" target="_top" xlink:title="hpp/model/center&#45;of\l&#45;mass&#45;computation.hh">
<polygon fill="white" stroke="black" points="802.5,-181 802.5,-211 915.5,-211 915.5,-181 802.5,-181"/>
<text text-anchor="start" x="810.5" y="-199" font-family="Helvetica,sans-Serif" font-size="10.00">hpp/model/center&#45;of</text>
<text text-anchor="middle" x="859" y="-188" font-family="Helvetica,sans-Serif" font-size="10.00">&#45;mass&#45;computation.hh</text>
</a>
</g>
</g>
<!-- Node9&#45;&gt;Node13 -->
<g id="edge18" class="edge"><title>Node9&#45;&gt;Node13</title>
<path fill="none" stroke="midnightblue" d="M730.182,-248.841C754.91,-238.89 788.181,-225.5 814.715,-214.822"/>
<polygon fill="midnightblue" stroke="midnightblue" points="816.188,-218.002 824.158,-211.022 813.574,-211.508 816.188,-218.002"/>
</g>
<!-- Node18 -->
<g id="node18" class="node"><title>Node18</title>
<g id="a_node18"><a xlink:href="a00061.html" target="_top" xlink:title="hpp/constraints/svd.hh">
<polygon fill="white" stroke="black" points="551,-186.5 551,-205.5 667,-205.5 667,-186.5 551,-186.5"/>
<text text-anchor="middle" x="609" y="-193.5" font-family="Helvetica,sans-Serif" font-size="10.00">hpp/constraints/svd.hh</text>
</a>
</g>
</g>
<!-- Node9&#45;&gt;Node18 -->
<g id="edge28" class="edge"><title>Node9&#45;&gt;Node18</title>
<path fill="none" stroke="midnightblue" d="M676.339,-248.679C662.266,-237.879 643.007,-223.098 628.689,-212.11"/>
<polygon fill="midnightblue" stroke="midnightblue" points="630.568,-209.14 620.504,-205.828 626.306,-214.693 630.568,-209.14"/>
</g>
<!-- Node19 -->
<g id="node19" class="node"><title>Node19</title>
<g id="a_node19"><a xlink:href="a00051.html" target="_top" xlink:title="hpp/constraints/macros.hh">
<polygon fill="white" stroke="black" points="934,-186.5 934,-205.5 1066,-205.5 1066,-186.5 934,-186.5"/>
<text text-anchor="middle" x="1000" y="-193.5" font-family="Helvetica,sans-Serif" font-size="10.00">hpp/constraints/macros.hh</text>
</a>
</g>
</g>
<!-- Node9&#45;&gt;Node19 -->
<g id="edge32" class="edge"><title>Node9&#45;&gt;Node19</title>
<path fill="none" stroke="midnightblue" d="M757.826,-249.405C814.883,-237.058 897.913,-219.091 950.421,-207.729"/>
<polygon fill="midnightblue" stroke="midnightblue" points="951.465,-211.084 960.498,-205.548 949.984,-204.242 951.465,-211.084"/>
</g>
<!-- Node11&#45;&gt;Node5 -->
<g id="edge15" class="edge"><title>Node11&#45;&gt;Node5</title>
<path fill="none" stroke="midnightblue" d="M657.54,-124.421C695.423,-103.508 792.769,-49.7698 838.534,-24.5061"/>
<polygon fill="midnightblue" stroke="midnightblue" points="840.414,-27.4664 847.477,-19.5693 837.031,-21.3381 840.414,-27.4664"/>
</g>
<!-- Node12&#45;&gt;Node5 -->
<g id="edge17" class="edge"><title>Node12&#45;&gt;Node5</title>
<path fill="none" stroke="midnightblue" d="M777.616,-124.226C792.801,-104.09 830.366,-54.2759 850.224,-27.9425"/>
<polygon fill="midnightblue" stroke="midnightblue" points="853.217,-29.7861 856.444,-19.6944 847.628,-25.5714 853.217,-29.7861"/>
</g>
<!-- Node13&#45;&gt;Node5 -->
<g id="edge19" class="edge"><title>Node13&#45;&gt;Node5</title>
<path fill="none" stroke="midnightblue" d="M859.307,-180.867C860.017,-148.216 861.772,-67.4974 862.58,-30.3169"/>
<polygon fill="midnightblue" stroke="midnightblue" points="866.088,-29.9649 862.807,-19.8912 859.09,-29.8127 866.088,-29.9649"/>
</g>
<!-- Node14 -->
<g id="node14" class="node"><title>Node14</title>
<g id="a_node14"><a doxygen="https://jmirabel.github.io/hpp-doc/api/hpp-model/doxygen-html/hpp-model.doxytag:https://jmirabel.github.io/hpp-doc/api/hpp-model/doxygen-html/" xlink:href="https://jmirabel.github.io/hpp-doc/api/hpp-model/doxygen-html/a00033.html" target="_top" xlink:title="hpp/model/device.hh">
<polygon fill="white" stroke="black" points="907.5,-124.5 907.5,-143.5 1014.5,-143.5 1014.5,-124.5 907.5,-124.5"/>
<text text-anchor="middle" x="961" y="-131.5" font-family="Helvetica,sans-Serif" font-size="10.00">hpp/model/device.hh</text>
</a>
</g>
</g>
<!-- Node13&#45;&gt;Node14 -->
<g id="edge20" class="edge"><title>Node13&#45;&gt;Node14</title>
<path fill="none" stroke="midnightblue" d="M882.914,-180.933C899.355,-171.262 921.085,-158.479 937.447,-148.855"/>
<polygon fill="midnightblue" stroke="midnightblue" points="939.535,-151.687 946.38,-143.6 935.986,-145.654 939.535,-151.687"/>
</g>
<!-- Node14&#45;&gt;Node5 -->
<g id="edge21" class="edge"><title>Node14&#45;&gt;Node5</title>
<path fill="none" stroke="midnightblue" d="M946.155,-124.366C933.219,-116.265 914.607,-103.151 902,-88 887.218,-70.2361 876.093,-45.9309 869.583,-29.4123"/>
<polygon fill="midnightblue" stroke="midnightblue" points="872.775,-27.9569 865.979,-19.8286 866.223,-30.4207 872.775,-27.9569"/>
</g>
<!-- Node15 -->
<g id="node15" class="node"><title>Node15</title>
<g id="a_node15"><a doxygen="https://jmirabel.github.io/hpp-doc/api/hpp-model/doxygen-html/hpp-model.doxytag:https://jmirabel.github.io/hpp-doc/api/hpp-model/doxygen-html/" xlink:href="https://jmirabel.github.io/hpp-doc/api/hpp-model/doxygen-html/a00034.html" target="_top" xlink:title="hpp/model/distance\l&#45;result.hh">
<polygon fill="white" stroke="black" points="910.5,-57 910.5,-87 1011.5,-87 1011.5,-57 910.5,-57"/>
<text text-anchor="start" x="918.5" y="-75" font-family="Helvetica,sans-Serif" font-size="10.00">hpp/model/distance</text>
<text text-anchor="middle" x="961" y="-64" font-family="Helvetica,sans-Serif" font-size="10.00">&#45;result.hh</text>
</a>
</g>
</g>
<!-- Node14&#45;&gt;Node15 -->
<g id="edge22" class="edge"><title>Node14&#45;&gt;Node15</title>
<path fill="none" stroke="midnightblue" d="M961,-124.403C961,-117.341 961,-106.975 961,-97.399"/>
<polygon fill="midnightblue" stroke="midnightblue" points="964.5,-97.1408 961,-87.1408 957.5,-97.1408 964.5,-97.1408"/>
</g>
<!-- Node16 -->
<g id="node16" class="node"><title>Node16</title>
<g id="a_node16"><a doxygen="https://jmirabel.github.io/hpp-doc/api/hpp-model/doxygen-html/hpp-model.doxytag:https://jmirabel.github.io/hpp-doc/api/hpp-model/doxygen-html/" xlink:href="https://jmirabel.github.io/hpp-doc/api/hpp-model/doxygen-html/a00035.html" target="_top" xlink:title="hpp/model/extra&#45;config\l&#45;space.hh">
<polygon fill="white" stroke="black" points="1030,-57 1030,-87 1146,-87 1146,-57 1030,-57"/>
<text text-anchor="start" x="1038" y="-75" font-family="Helvetica,sans-Serif" font-size="10.00">hpp/model/extra&#45;config</text>
<text text-anchor="middle" x="1088" y="-64" font-family="Helvetica,sans-Serif" font-size="10.00">&#45;space.hh</text>
</a>
</g>
</g>
<!-- Node14&#45;&gt;Node16 -->
<g id="edge24" class="edge"><title>Node14&#45;&gt;Node16</title>
<path fill="none" stroke="midnightblue" d="M979.196,-124.403C997.281,-115.86 1025.59,-102.483 1048.81,-91.5171"/>
<polygon fill="midnightblue" stroke="midnightblue" points="1050.52,-94.5772 1058.07,-87.1408 1047.53,-88.2479 1050.52,-94.5772"/>
</g>
<!-- Node17 -->
<g id="node17" class="node"><title>Node17</title>
<g id="a_node17"><a doxygen="https://jmirabel.github.io/hpp-doc/api/hpp-model/doxygen-html/hpp-model.doxytag:https://jmirabel.github.io/hpp-doc/api/hpp-model/doxygen-html/" xlink:href="https://jmirabel.github.io/hpp-doc/api/hpp-model/doxygen-html/a00044.html" target="_top" xlink:title="hpp/model/object&#45;iterator.hh">
<polygon fill="white" stroke="black" points="1164.5,-62.5 1164.5,-81.5 1301.5,-81.5 1301.5,-62.5 1164.5,-62.5"/>
<text text-anchor="middle" x="1233" y="-69.5" font-family="Helvetica,sans-Serif" font-size="10.00">hpp/model/object&#45;iterator.hh</text>
</a>
</g>
</g>
<!-- Node14&#45;&gt;Node17 -->
<g id="edge26" class="edge"><title>Node14&#45;&gt;Node17</title>
<path fill="none" stroke="midnightblue" d="M999.682,-124.467C1048.32,-113.738 1131.84,-95.3157 1184.64,-83.6673"/>
<polygon fill="midnightblue" stroke="midnightblue" points="1185.44,-87.0754 1194.45,-81.5034 1183.93,-80.2397 1185.44,-87.0754"/>
</g>
<!-- Node15&#45;&gt;Node5 -->
<g id="edge23" class="edge"><title>Node15&#45;&gt;Node5</title>
<path fill="none" stroke="midnightblue" d="M937.775,-56.7808C921.972,-47.1054 901.168,-34.3684 885.517,-24.7861"/>
<polygon fill="midnightblue" stroke="midnightblue" points="887.33,-21.7923 876.974,-19.5557 883.675,-27.7623 887.33,-21.7923"/>
</g>
<!-- Node16&#45;&gt;Node5 -->
<g id="edge25" class="edge"><title>Node16&#45;&gt;Node5</title>
<path fill="none" stroke="midnightblue" d="M1035.25,-56.9327C995.474,-46.3264 941.665,-31.9772 904.835,-22.1559"/>
<polygon fill="midnightblue" stroke="midnightblue" points="905.487,-18.7076 894.923,-19.5127 903.683,-25.4712 905.487,-18.7076"/>
</g>
<!-- Node17&#45;&gt;Node5 -->
<g id="edge27" class="edge"><title>Node17&#45;&gt;Node5</title>
<path fill="none" stroke="midnightblue" d="M1189.59,-62.4802C1178.03,-60.2892 1165.56,-57.9901 1154,-56 1073.09,-42.0664 979.163,-27.9041 920.4,-19.2843"/>
<polygon fill="midnightblue" stroke="midnightblue" points="920.608,-15.7775 910.206,-17.7928 919.594,-22.7037 920.608,-15.7775"/>
</g>
<!-- Node18&#45;&gt;Node4 -->
<g id="edge29" class="edge"><title>Node18&#45;&gt;Node4</title>
<path fill="none" stroke="midnightblue" d="M583.927,-186.403C553.648,-176.022 502.56,-158.506 468.559,-146.849"/>
<polygon fill="midnightblue" stroke="midnightblue" points="469.621,-143.513 459.027,-143.581 467.351,-150.135 469.621,-143.513"/>
</g>
<!-- Node18&#45;&gt;Node10 -->
<g id="edge30" class="edge"><title>Node18&#45;&gt;Node10</title>
<path fill="none" stroke="midnightblue" d="M599.544,-186.403C589.252,-177.047 572.584,-161.895 560.006,-150.46"/>
<polygon fill="midnightblue" stroke="midnightblue" points="562.192,-147.718 552.439,-143.581 557.484,-152.897 562.192,-147.718"/>
</g>
</g>
</svg>
