<?xml version="1.0" encoding="UTF-8" standalone="no"?>
<!DOCTYPE svg PUBLIC "-//W3C//DTD SVG 1.1//EN"
 "http://www.w3.org/Graphics/SVG/1.1/DTD/svg11.dtd">
<!-- Generated by graphviz version 2.36.0 (20140111.2315)
 -->
<!-- Title: relative&#45;com.hh Pages: 1 -->
<svg width="401pt" height="208pt"
 viewBox="0.00 0.00 401.00 208.00" xmlns="http://www.w3.org/2000/svg" xmlns:xlink="http://www.w3.org/1999/xlink">
<g id="graph0" class="graph" transform="scale(1 1) rotate(0) translate(4 204)">
<title>relative&#45;com.hh</title>
<polygon fill="white" stroke="none" points="-4,4 -4,-204 397,-204 397,4 -4,4"/>
<!-- Node1 -->
<g id="node1" class="node"><title>Node1</title>
<polygon fill="#bfbfbf" stroke="black" points="154.5,-180.5 154.5,-199.5 237.5,-199.5 237.5,-180.5 154.5,-180.5"/>
<text text-anchor="middle" x="196" y="-187.5" font-family="Helvetica,sans-Serif" font-size="10.00">relative&#45;com.hh</text>
</g>
<!-- Node2 -->
<g id="node2" class="node"><title>Node2</title>
<polygon fill="white" stroke="#bfbfbf" points="-1,-118.5 -1,-137.5 119,-137.5 119,-118.5 -1,-118.5"/>
<text text-anchor="middle" x="59" y="-125.5" font-family="Helvetica,sans-Serif" font-size="10.00">boost/assign/list_of.hpp</text>
</g>
<!-- Node1&#45;&gt;Node2 -->
<g id="edge1" class="edge"><title>Node1&#45;&gt;Node2</title>
<path fill="none" stroke="midnightblue" d="M176.371,-180.403C153.176,-170.245 114.381,-153.255 87.7869,-141.607"/>
<polygon fill="midnightblue" stroke="midnightblue" points="89.1565,-138.386 78.5923,-137.581 86.3483,-144.798 89.1565,-138.386"/>
</g>
<!-- Node3 -->
<g id="node3" class="node"><title>Node3</title>
<g id="a_node3"><a xlink:href="a00047.html" target="_top" xlink:title="hpp/constraints/differentiable\l&#45;function.hh">
<polygon fill="white" stroke="black" points="175,-113 175,-143 317,-143 317,-113 175,-113"/>
<text text-anchor="start" x="183" y="-131" font-family="Helvetica,sans-Serif" font-size="10.00">hpp/constraints/differentiable</text>
<text text-anchor="middle" x="246" y="-120" font-family="Helvetica,sans-Serif" font-size="10.00">&#45;function.hh</text>
</a>
</g>
</g>
<!-- Node1&#45;&gt;Node3 -->
<g id="edge2" class="edge"><title>Node1&#45;&gt;Node3</title>
<path fill="none" stroke="midnightblue" d="M203.164,-180.403C209.556,-172.733 219.194,-161.167 227.71,-150.948"/>
<polygon fill="midnightblue" stroke="midnightblue" points="230.503,-153.064 234.216,-143.141 225.125,-148.582 230.503,-153.064"/>
</g>
<!-- Node4 -->
<g id="node4" class="node"><title>Node4</title>
<g id="a_node4"><a xlink:href="a00001.html" target="_top" xlink:title="hpp/constraints/fwd.hh">
<polygon fill="white" stroke="black" points="104,-56.5 104,-75.5 220,-75.5 220,-56.5 104,-56.5"/>
<text text-anchor="middle" x="162" y="-63.5" font-family="Helvetica,sans-Serif" font-size="10.00">hpp/constraints/fwd.hh</text>
</a>
</g>
</g>
<!-- Node1&#45;&gt;Node4 -->
<g id="edge8" class="edge"><title>Node1&#45;&gt;Node4</title>
<path fill="none" stroke="midnightblue" d="M188.228,-180.456C181,-171.923 170.666,-158.082 166,-144 159.699,-124.982 159.398,-101.881 160.236,-85.973"/>
<polygon fill="midnightblue" stroke="midnightblue" points="163.739,-86.0501 160.977,-75.8217 156.758,-85.5401 163.739,-86.0501"/>
</g>
<!-- Node7 -->
<g id="node7" class="node"><title>Node7</title>
<polygon fill="white" stroke="#bfbfbf" points="267,-56.5 267,-75.5 393,-75.5 393,-56.5 267,-56.5"/>
<text text-anchor="middle" x="330" y="-63.5" font-family="Helvetica,sans-Serif" font-size="10.00">hpp/constraints/config.hh</text>
</g>
<!-- Node1&#45;&gt;Node7 -->
<g id="edge7" class="edge"><title>Node1&#45;&gt;Node7</title>
<path fill="none" stroke="midnightblue" d="M237.629,-186.393C267.316,-182.14 305.475,-171.297 326,-144 338.539,-127.325 337.292,-102.413 334.398,-85.4742"/>
<polygon fill="midnightblue" stroke="midnightblue" points="337.824,-84.7551 332.387,-75.6615 330.966,-86.1606 337.824,-84.7551"/>
</g>
<!-- Node3&#45;&gt;Node4 -->
<g id="edge3" class="edge"><title>Node3&#45;&gt;Node4</title>
<path fill="none" stroke="midnightblue" d="M226.093,-112.781C213.006,-103.433 195.918,-91.2273 182.678,-81.77"/>
<polygon fill="midnightblue" stroke="midnightblue" points="184.394,-78.6949 174.223,-75.7305 180.326,-84.391 184.394,-78.6949"/>
</g>
<!-- Node3&#45;&gt;Node7 -->
<g id="edge6" class="edge"><title>Node3&#45;&gt;Node7</title>
<path fill="none" stroke="midnightblue" d="M265.907,-112.781C278.994,-103.433 296.082,-91.2273 309.322,-81.77"/>
<polygon fill="midnightblue" stroke="midnightblue" points="311.674,-84.391 317.777,-75.7305 307.606,-78.6949 311.674,-84.391"/>
</g>
<!-- Node5 -->
<g id="node5" class="node"><title>Node5</title>
<g id="a_node5"><a doxygen="https://jmirabel.github.io/hpp-doc/api/hpp-model/doxygen-html/hpp-model.doxytag:https://jmirabel.github.io/hpp-doc/api/hpp-model/doxygen-html/" xlink:href="https://jmirabel.github.io/hpp-doc/api/hpp-model/doxygen-html/a00037.html" target="_top" xlink:title="hpp/model/fwd.hh">
<polygon fill="white" stroke="black" points="46,-0.5 46,-19.5 140,-19.5 140,-0.5 46,-0.5"/>
<text text-anchor="middle" x="93" y="-7.5" font-family="Helvetica,sans-Serif" font-size="10.00">hpp/model/fwd.hh</text>
</a>
</g>
</g>
<!-- Node4&#45;&gt;Node5 -->
<g id="edge4" class="edge"><title>Node4&#45;&gt;Node5</title>
<path fill="none" stroke="midnightblue" d="M150.914,-56.324C140.514,-48.1849 124.739,-35.8395 112.278,-26.0874"/>
<polygon fill="midnightblue" stroke="midnightblue" points="114.32,-23.2407 104.288,-19.8339 110.006,-28.7533 114.32,-23.2407"/>
</g>
<!-- Node6 -->
<g id="node6" class="node"><title>Node6</title>
<polygon fill="white" stroke="#bfbfbf" points="158,-0.5 158,-19.5 306,-19.5 306,-0.5 158,-0.5"/>
<text text-anchor="middle" x="232" y="-7.5" font-family="Helvetica,sans-Serif" font-size="10.00">hpp/constraints/deprecated.hh</text>
</g>
<!-- Node4&#45;&gt;Node6 -->
<g id="edge5" class="edge"><title>Node4&#45;&gt;Node6</title>
<path fill="none" stroke="midnightblue" d="M173.247,-56.324C183.797,-48.1849 199.801,-35.8395 212.442,-26.0874"/>
<polygon fill="midnightblue" stroke="midnightblue" points="214.769,-28.7132 220.549,-19.8339 210.493,-23.1707 214.769,-28.7132"/>
</g>
</g>
</svg>
