<?xml version="1.0" encoding="UTF-8" standalone="no"?>
<!DOCTYPE svg PUBLIC "-//W3C//DTD SVG 1.1//EN"
 "http://www.w3.org/Graphics/SVG/1.1/DTD/svg11.dtd">
<!-- Generated by graphviz version 2.36.0 (20140111.2315)
 -->
<!-- Title: fwd.hh Pages: 1 -->
<svg width="2005pt" height="264pt"
 viewBox="0.00 0.00 2004.73 264.00" xmlns="http://www.w3.org/2000/svg" xmlns:xlink="http://www.w3.org/1999/xlink">
<g id="graph0" class="graph" transform="scale(1 1) rotate(0) translate(4 260)">
<title>fwd.hh</title>
<polygon fill="white" stroke="none" points="-4,4 -4,-260 2000.73,-260 2000.73,4 -4,4"/>
<!-- Node1 -->
<g id="node1" class="node"><title>Node1</title>
<polygon fill="#bfbfbf" stroke="black" points="1400.04,-236.5 1400.04,-255.5 1446.04,-255.5 1446.04,-236.5 1400.04,-236.5"/>
<text text-anchor="middle" x="1423.04" y="-243.5" font-family="Helvetica,sans-Serif" font-size="10.00">fwd.hh</text>
</g>
<!-- Node2 -->
<g id="node2" class="node"><title>Node2</title>
<g id="a_node2"><a xlink:href="a00047.html" target="_top" xlink:title="differentiable&#45;function.hh">
<polygon fill="white" stroke="black" points="949.541,-180.5 949.541,-199.5 1072.54,-199.5 1072.54,-180.5 949.541,-180.5"/>
<text text-anchor="middle" x="1011.04" y="-187.5" font-family="Helvetica,sans-Serif" font-size="10.00">differentiable&#45;function.hh</text>
</a>
</g>
</g>
<!-- Node1&#45;&gt;Node2 -->
<g id="edge1" class="edge"><title>Node1&#45;&gt;Node2</title>
<path fill="none" stroke="midnightblue" d="M1389.73,-240.634C1320.71,-231.587 1161.14,-210.674 1072.76,-199.089"/>
<polygon fill="midnightblue" stroke="midnightblue" points="1389.64,-244.152 1400.01,-241.981 1390.55,-237.211 1389.64,-244.152"/>
</g>
<!-- Node3 -->
<g id="node3" class="node"><title>Node3</title>
<g id="a_node3"><a xlink:href="a00043.html" target="_top" xlink:title="com&#45;between&#45;feet.hh">
<polygon fill="white" stroke="black" points="1642.04,-56.5 1642.04,-75.5 1750.04,-75.5 1750.04,-56.5 1642.04,-56.5"/>
<text text-anchor="middle" x="1696.04" y="-63.5" font-family="Helvetica,sans-Serif" font-size="10.00">com&#45;between&#45;feet.hh</text>
</a>
</g>
</g>
<!-- Node1&#45;&gt;Node3 -->
<g id="edge26" class="edge"><title>Node1&#45;&gt;Node3</title>
<path fill="none" stroke="midnightblue" d="M1456.52,-243.051C1515.1,-238.956 1632.76,-227.462 1662.04,-200 1698.2,-166.09 1698.05,-99.4828 1696.72,-75.6974"/>
<polygon fill="midnightblue" stroke="midnightblue" points="1456.05,-239.575 1446.31,-243.732 1456.52,-246.559 1456.05,-239.575"/>
</g>
<!-- Node4 -->
<g id="node4" class="node"><title>Node4</title>
<g id="a_node4"><a xlink:href="a00044.html" target="_top" xlink:title="configuration&#45;constraint.hh">
<polygon fill="white" stroke="black" points="16.5409,-118.5 16.5409,-137.5 147.541,-137.5 147.541,-118.5 16.5409,-118.5"/>
<text text-anchor="middle" x="82.0409" y="-125.5" font-family="Helvetica,sans-Serif" font-size="10.00">configuration&#45;constraint.hh</text>
</a>
</g>
</g>
<!-- Node1&#45;&gt;Node4 -->
<g id="edge40" class="edge"><title>Node1&#45;&gt;Node4</title>
<path fill="none" stroke="midnightblue" d="M1389.41,-245.102C1265.17,-245.125 820.485,-242.072 457.041,-200 331.158,-185.428 184.069,-153.002 117.716,-137.532"/>
<polygon fill="midnightblue" stroke="midnightblue" points="1389.77,-248.602 1399.77,-245.092 1389.77,-241.602 1389.77,-248.602"/>
</g>
<!-- Node5 -->
<g id="node5" class="node"><title>Node5</title>
<g id="a_node5"><a xlink:href="a00045.html" target="_top" xlink:title="convex&#45;shape&#45;contact.hh">
<polygon fill="white" stroke="black" points="1453.04,-56.5 1453.04,-75.5 1579.04,-75.5 1579.04,-56.5 1453.04,-56.5"/>
<text text-anchor="middle" x="1516.04" y="-63.5" font-family="Helvetica,sans-Serif" font-size="10.00">convex&#45;shape&#45;contact.hh</text>
</a>
</g>
</g>
<!-- Node1&#45;&gt;Node5 -->
<g id="edge42" class="edge"><title>Node1&#45;&gt;Node5</title>
<path fill="none" stroke="midnightblue" d="M1425.07,-226.086C1428.72,-198.901 1438.36,-148.088 1462.04,-112 1472.22,-96.4908 1489.35,-83.5345 1501.58,-75.5671"/>
<polygon fill="midnightblue" stroke="midnightblue" points="1421.57,-225.83 1423.85,-236.178 1428.52,-226.671 1421.57,-225.83"/>
</g>
<!-- Node6 -->
<g id="node6" class="node"><title>Node6</title>
<g id="a_node6"><a xlink:href="a00055.html" target="_top" xlink:title="qp&#45;static&#45;stability.hh">
<polygon fill="white" stroke="black" points="1562.04,-0.5 1562.04,-19.5 1666.04,-19.5 1666.04,-0.5 1562.04,-0.5"/>
<text text-anchor="middle" x="1614.04" y="-7.5" font-family="Helvetica,sans-Serif" font-size="10.00">qp&#45;static&#45;stability.hh</text>
</a>
</g>
</g>
<!-- Node1&#45;&gt;Node6 -->
<g id="edge47" class="edge"><title>Node1&#45;&gt;Node6</title>
<path fill="none" stroke="midnightblue" d="M1456.22,-245.114C1550.38,-244.928 1817.37,-240.73 1893.04,-200 1955.38,-166.443 1969.47,-142.762 1993.04,-76 1996,-67.618 1998.94,-62.6456 1993.04,-56 1971.7,-31.9738 1765.05,-18.5197 1666.21,-13.4121"/>
<polygon fill="midnightblue" stroke="midnightblue" points="1456.12,-241.614 1446.12,-245.119 1456.12,-248.614 1456.12,-241.614"/>
</g>
<!-- Node7 -->
<g id="node7" class="node"><title>Node7</title>
<g id="a_node7"><a xlink:href="a00046.html" target="_top" xlink:title="convex&#45;shape.hh">
<polygon fill="white" stroke="black" points="1470.54,-118.5 1470.54,-137.5 1561.54,-137.5 1561.54,-118.5 1470.54,-118.5"/>
<text text-anchor="middle" x="1516.04" y="-125.5" font-family="Helvetica,sans-Serif" font-size="10.00">convex&#45;shape.hh</text>
</a>
</g>
</g>
<!-- Node1&#45;&gt;Node7 -->
<g id="edge41" class="edge"><title>Node1&#45;&gt;Node7</title>
<path fill="none" stroke="midnightblue" d="M1436.36,-228.385C1456.48,-203.291 1493.89,-156.625 1509.22,-137.505"/>
<polygon fill="midnightblue" stroke="midnightblue" points="1433.56,-226.29 1430.03,-236.281 1439.02,-230.668 1433.56,-226.29"/>
</g>
<!-- Node10 -->
<g id="node10" class="node"><title>Node10</title>
<g id="a_node10"><a xlink:href="a00050.html" target="_top" xlink:title="generic&#45;transformation.hh">
<polygon fill="white" stroke="black" points="165.541,-118.5 165.541,-137.5 292.541,-137.5 292.541,-118.5 165.541,-118.5"/>
<text text-anchor="middle" x="229.041" y="-125.5" font-family="Helvetica,sans-Serif" font-size="10.00">generic&#45;transformation.hh</text>
</a>
</g>
</g>
<!-- Node1&#45;&gt;Node10 -->
<g id="edge43" class="edge"><title>Node1&#45;&gt;Node10</title>
<path fill="none" stroke="midnightblue" d="M1389.86,-245.004C1276.01,-244.641 890.877,-240.31 576.041,-200 459.544,-185.084 323.723,-152.903 262.261,-137.523"/>
<polygon fill="midnightblue" stroke="midnightblue" points="1390.01,-248.504 1400.02,-245.028 1390.03,-241.504 1390.01,-248.504"/>
</g>
<!-- Node11 -->
<g id="node11" class="node"><title>Node11</title>
<g id="a_node11"><a xlink:href="a00053.html" target="_top" xlink:title="orientation.hh">
<polygon fill="white" stroke="black" points="426.541,-118.5 426.541,-137.5 501.541,-137.5 501.541,-118.5 426.541,-118.5"/>
<text text-anchor="middle" x="464.041" y="-125.5" font-family="Helvetica,sans-Serif" font-size="10.00">orientation.hh</text>
</a>
</g>
</g>
<!-- Node1&#45;&gt;Node11 -->
<g id="edge44" class="edge"><title>Node1&#45;&gt;Node11</title>
<path fill="none" stroke="midnightblue" d="M1389.81,-243.931C1269.89,-239.527 848.744,-219.292 511.041,-144 503.517,-142.323 495.474,-139.971 488.208,-137.626"/>
<polygon fill="midnightblue" stroke="midnightblue" points="1389.71,-247.43 1399.83,-244.288 1389.96,-240.435 1389.71,-247.43"/>
</g>
<!-- Node12 -->
<g id="node12" class="node"><title>Node12</title>
<g id="a_node12"><a xlink:href="a00065.html" target="_top" xlink:title="transformation.hh">
<polygon fill="white" stroke="black" points="1089.04,-56.5 1089.04,-75.5 1181.04,-75.5 1181.04,-56.5 1089.04,-56.5"/>
<text text-anchor="middle" x="1135.04" y="-63.5" font-family="Helvetica,sans-Serif" font-size="10.00">transformation.hh</text>
</a>
</g>
</g>
<!-- Node1&#45;&gt;Node12 -->
<g id="edge52" class="edge"><title>Node1&#45;&gt;Node12</title>
<path fill="none" stroke="midnightblue" d="M1423.33,-226.202C1422.69,-197.129 1416.9,-141.537 1384.04,-112 1354.8,-85.7171 1244.71,-74.1884 1181.13,-69.6309"/>
<polygon fill="midnightblue" stroke="midnightblue" points="1419.83,-226.268 1423.37,-236.255 1426.83,-226.242 1419.83,-226.268"/>
</g>
<!-- Node13 -->
<g id="node13" class="node"><title>Node13</title>
<g id="a_node13"><a xlink:href="a00054.html" target="_top" xlink:title="position.hh">
<polygon fill="white" stroke="black" points="1172.04,-118.5 1172.04,-137.5 1236.04,-137.5 1236.04,-118.5 1172.04,-118.5"/>
<text text-anchor="middle" x="1204.04" y="-125.5" font-family="Helvetica,sans-Serif" font-size="10.00">position.hh</text>
</a>
</g>
</g>
<!-- Node1&#45;&gt;Node13 -->
<g id="edge45" class="edge"><title>Node1&#45;&gt;Node13</title>
<path fill="none" stroke="midnightblue" d="M1398.04,-231.76C1352.68,-207.732 1258,-157.582 1220.17,-137.542"/>
<polygon fill="midnightblue" stroke="midnightblue" points="1396.46,-234.882 1406.94,-236.47 1399.74,-228.697 1396.46,-234.882"/>
</g>
<!-- Node14 -->
<g id="node14" class="node"><title>Node14</title>
<g id="a_node14"><a xlink:href="a00060.html" target="_top" xlink:title="static&#45;stability.hh">
<polygon fill="white" stroke="black" points="1768.54,-56.5 1768.54,-75.5 1859.54,-75.5 1859.54,-56.5 1768.54,-56.5"/>
<text text-anchor="middle" x="1814.04" y="-63.5" font-family="Helvetica,sans-Serif" font-size="10.00">static&#45;stability.hh</text>
</a>
</g>
</g>
<!-- Node1&#45;&gt;Node14 -->
<g id="edge46" class="edge"><title>Node1&#45;&gt;Node14</title>
<path fill="none" stroke="midnightblue" d="M1456.28,-244.623C1543.12,-243.138 1774.69,-235.834 1841.04,-200 1879.87,-179.029 1908.55,-150.534 1887.04,-112 1877.1,-94.1908 1856.89,-82.5554 1840.25,-75.5863"/>
<polygon fill="midnightblue" stroke="midnightblue" points="1456.13,-241.125 1446.19,-244.78 1456.24,-248.124 1456.13,-241.125"/>
</g>
<!-- Node15 -->
<g id="node15" class="node"><title>Node15</title>
<g id="a_node15"><a xlink:href="a00056.html" target="_top" xlink:title="relative&#45;com.hh">
<polygon fill="white" stroke="black" points="1292.54,-118.5 1292.54,-137.5 1375.54,-137.5 1375.54,-118.5 1292.54,-118.5"/>
<text text-anchor="middle" x="1334.04" y="-125.5" font-family="Helvetica,sans-Serif" font-size="10.00">relative&#45;com.hh</text>
</a>
</g>
</g>
<!-- Node1&#45;&gt;Node15 -->
<g id="edge48" class="edge"><title>Node1&#45;&gt;Node15</title>
<path fill="none" stroke="midnightblue" d="M1410.04,-228.055C1390.73,-202.884 1355.17,-156.542 1340.57,-137.505"/>
<polygon fill="midnightblue" stroke="midnightblue" points="1407.49,-230.478 1416.35,-236.281 1413.04,-226.217 1407.49,-230.478"/>
</g>
<!-- Node17 -->
<g id="node17" class="node"><title>Node17</title>
<g id="a_node17"><a xlink:href="a00059.html" target="_top" xlink:title="relative&#45;transformation.hh">
<polygon fill="white" stroke="black" points="403.541,-56.5 403.541,-75.5 530.541,-75.5 530.541,-56.5 403.541,-56.5"/>
<text text-anchor="middle" x="467.041" y="-63.5" font-family="Helvetica,sans-Serif" font-size="10.00">relative&#45;transformation.hh</text>
</a>
</g>
</g>
<!-- Node1&#45;&gt;Node17 -->
<g id="edge50" class="edge"><title>Node1&#45;&gt;Node17</title>
<path fill="none" stroke="midnightblue" d="M1389.86,-245.218C1256.38,-245.76 745.863,-244.624 329.041,-200 184.607,-184.537 100.542,-255.166 7.04093,-144 -2.11369,-133.116 -2.51361,-122.535 7.04093,-112 33.1522,-83.2098 283.228,-72.2225 403.303,-68.5814"/>
<polygon fill="midnightblue" stroke="midnightblue" points="1389.88,-248.718 1399.86,-245.171 1389.85,-241.718 1389.88,-248.718"/>
</g>
<!-- Node18 -->
<g id="node18" class="node"><title>Node18</title>
<g id="a_node18"><a xlink:href="a00058.html" target="_top" xlink:title="relative&#45;position.hh">
<polygon fill="white" stroke="black" points="311.041,-118.5 311.041,-137.5 409.041,-137.5 409.041,-118.5 311.041,-118.5"/>
<text text-anchor="middle" x="360.041" y="-125.5" font-family="Helvetica,sans-Serif" font-size="10.00">relative&#45;position.hh</text>
</a>
</g>
</g>
<!-- Node1&#45;&gt;Node18 -->
<g id="edge49" class="edge"><title>Node1&#45;&gt;Node18</title>
<path fill="none" stroke="midnightblue" d="M1389.97,-244.456C1287.71,-242.447 967.666,-233.706 705.041,-200 576.137,-183.456 544.787,-172.728 418.041,-144 409.419,-142.046 400.128,-139.736 391.564,-137.521"/>
<polygon fill="midnightblue" stroke="midnightblue" points="1389.93,-247.956 1400,-244.645 1390.07,-240.957 1389.93,-247.956"/>
</g>
<!-- Node19 -->
<g id="node19" class="node"><title>Node19</title>
<g id="a_node19"><a xlink:href="a00063.html" target="_top" xlink:title="symbolic&#45;function.hh">
<polygon fill="white" stroke="black" points="1877.54,-56.5 1877.54,-75.5 1984.54,-75.5 1984.54,-56.5 1877.54,-56.5"/>
<text text-anchor="middle" x="1931.04" y="-63.5" font-family="Helvetica,sans-Serif" font-size="10.00">symbolic&#45;function.hh</text>
</a>
</g>
</g>
<!-- Node1&#45;&gt;Node19 -->
<g id="edge51" class="edge"><title>Node1&#45;&gt;Node19</title>
<path fill="none" stroke="midnightblue" d="M1456.3,-245.353C1547.64,-245.75 1800.15,-242.845 1869.04,-200 1914.47,-171.746 1927.09,-100.349 1930.16,-75.6028"/>
<polygon fill="midnightblue" stroke="midnightblue" points="1456.25,-241.852 1446.23,-245.292 1456.21,-248.852 1456.25,-241.852"/>
</g>
<!-- Node20 -->
<g id="node20" class="node"><title>Node20</title>
<g id="a_node20"><a xlink:href="a00064.html" target="_top" xlink:title="tools.hh">
<polygon fill="white" stroke="black" points="1602.54,-180.5 1602.54,-199.5 1653.54,-199.5 1653.54,-180.5 1602.54,-180.5"/>
<text text-anchor="middle" x="1628.04" y="-187.5" font-family="Helvetica,sans-Serif" font-size="10.00">tools.hh</text>
</a>
</g>
</g>
<!-- Node1&#45;&gt;Node20 -->
<g id="edge27" class="edge"><title>Node1&#45;&gt;Node20</title>
<path fill="none" stroke="midnightblue" d="M1455.89,-236.348C1496.67,-225.606 1565.36,-207.512 1602.44,-197.743"/>
<polygon fill="midnightblue" stroke="midnightblue" points="1454.94,-232.979 1446.16,-238.91 1456.72,-239.748 1454.94,-232.979"/>
</g>
<!-- Node21 -->
<g id="node21" class="node"><title>Node21</title>
<g id="a_node21"><a xlink:href="a00062.html" target="_top" xlink:title="symbolic&#45;calculus.hh">
<polygon fill="white" stroke="black" points="1770.04,-118.5 1770.04,-137.5 1878.04,-137.5 1878.04,-118.5 1770.04,-118.5"/>
<text text-anchor="middle" x="1824.04" y="-125.5" font-family="Helvetica,sans-Serif" font-size="10.00">symbolic&#45;calculus.hh</text>
</a>
</g>
</g>
<!-- Node1&#45;&gt;Node21 -->
<g id="edge37" class="edge"><title>Node1&#45;&gt;Node21</title>
<path fill="none" stroke="midnightblue" d="M1456.15,-244.604C1512.02,-242.93 1627.77,-235.094 1718.04,-200 1757.27,-184.751 1796.66,-153.028 1814.36,-137.684"/>
<polygon fill="midnightblue" stroke="midnightblue" points="1456.02,-241.106 1446.11,-244.857 1456.2,-248.104 1456.02,-241.106"/>
</g>
<!-- Node22 -->
<g id="node22" class="node"><title>Node22</title>
<g id="a_node22"><a xlink:href="a00061.html" target="_top" xlink:title="svd.hh">
<polygon fill="white" stroke="black" points="1786.04,-180.5 1786.04,-199.5 1832.04,-199.5 1832.04,-180.5 1786.04,-180.5"/>
<text text-anchor="middle" x="1809.04" y="-187.5" font-family="Helvetica,sans-Serif" font-size="10.00">svd.hh</text>
</a>
</g>
</g>
<!-- Node1&#45;&gt;Node22 -->
<g id="edge38" class="edge"><title>Node1&#45;&gt;Node22</title>
<path fill="none" stroke="midnightblue" d="M1456.49,-241.33C1517.7,-234.449 1651.78,-218.612 1764.04,-200 1771.11,-198.827 1778.78,-197.367 1785.74,-195.966"/>
<polygon fill="midnightblue" stroke="midnightblue" points="1455.82,-237.883 1446.27,-242.472 1456.6,-244.84 1455.82,-237.883"/>
</g>
<!-- Node2&#45;&gt;Node3 -->
<g id="edge2" class="edge"><title>Node2&#45;&gt;Node3</title>
<path fill="none" stroke="midnightblue" d="M1035.9,-175.494C1051.22,-166.922 1071.1,-155.342 1088.04,-144 1107.54,-130.944 1108.12,-120.371 1130.04,-112 1225.42,-75.5814 1486.28,-84.2392 1588.04,-76 1605.58,-74.5803 1624.71,-72.997 1641.93,-71.5591"/>
<polygon fill="midnightblue" stroke="midnightblue" points="1034.07,-172.506 1027.02,-180.413 1037.46,-178.629 1034.07,-172.506"/>
</g>
<!-- Node2&#45;&gt;Node4 -->
<g id="edge3" class="edge"><title>Node2&#45;&gt;Node4</title>
<path fill="none" stroke="midnightblue" d="M939.061,-188.784C791.565,-187.556 444.587,-180.635 156.041,-144 143.817,-142.448 130.593,-140.013 118.751,-137.554"/>
<polygon fill="midnightblue" stroke="midnightblue" points="939.306,-192.286 949.332,-188.863 939.36,-185.286 939.306,-192.286"/>
</g>
<!-- Node2&#45;&gt;Node5 -->
<g id="edge4" class="edge"><title>Node2&#45;&gt;Node5</title>
<path fill="none" stroke="midnightblue" d="M1026.47,-173.286C1047.69,-151.843 1084.16,-115.643 1092.04,-112 1154.62,-83.0805 1350.57,-72.4221 1452.7,-68.7609"/>
<polygon fill="midnightblue" stroke="midnightblue" points="1023.96,-170.854 1019.43,-180.431 1028.94,-175.769 1023.96,-170.854"/>
</g>
<!-- Node2&#45;&gt;Node6 -->
<g id="edge15" class="edge"><title>Node2&#45;&gt;Node6</title>
<path fill="none" stroke="midnightblue" d="M1012.42,-170.096C1014.24,-153.896 1018.43,-130.343 1028.04,-112 1043.81,-81.9183 1049.51,-70.8725 1080.04,-56 1164,-15.1078 1444.66,-10.677 1561.89,-10.6693"/>
<polygon fill="midnightblue" stroke="midnightblue" points="1008.9,-170.134 1011.47,-180.413 1015.87,-170.775 1008.9,-170.134"/>
</g>
<!-- Node2&#45;&gt;Node7 -->
<g id="edge6" class="edge"><title>Node2&#45;&gt;Node7</title>
<path fill="none" stroke="midnightblue" d="M1082.95,-180.456C1188.48,-167.918 1382.3,-144.891 1470.35,-134.428"/>
<polygon fill="midnightblue" stroke="midnightblue" points="1082.23,-177.017 1072.71,-181.673 1083.05,-183.968 1082.23,-177.017"/>
</g>
<!-- Node8 -->
<g id="node8" class="node"><title>Node8</title>
<g id="a_node8"><a xlink:href="a00048.html" target="_top" xlink:title="distance&#45;between&#45;bodies.hh">
<polygon fill="white" stroke="black" points="686.041,-118.5 686.041,-137.5 824.041,-137.5 824.041,-118.5 686.041,-118.5"/>
<text text-anchor="middle" x="755.041" y="-125.5" font-family="Helvetica,sans-Serif" font-size="10.00">distance&#45;between&#45;bodies.hh</text>
</a>
</g>
</g>
<!-- Node2&#45;&gt;Node8 -->
<g id="edge8" class="edge"><title>Node2&#45;&gt;Node8</title>
<path fill="none" stroke="midnightblue" d="M964.769,-178.155C914.985,-166.487 836.85,-148.174 791.322,-137.503"/>
<polygon fill="midnightblue" stroke="midnightblue" points="964.099,-181.593 974.634,-180.467 965.697,-174.778 964.099,-181.593"/>
</g>
<!-- Node9 -->
<g id="node9" class="node"><title>Node9</title>
<g id="a_node9"><a xlink:href="a00049.html" target="_top" xlink:title="distance&#45;between&#45;points\l&#45;in&#45;bodies.hh">
<polygon fill="white" stroke="black" points="842.041,-113 842.041,-143 964.041,-143 964.041,-113 842.041,-113"/>
<text text-anchor="start" x="850.041" y="-131" font-family="Helvetica,sans-Serif" font-size="10.00">distance&#45;between&#45;points</text>
<text text-anchor="middle" x="903.041" y="-120" font-family="Helvetica,sans-Serif" font-size="10.00">&#45;in&#45;bodies.hh</text>
</a>
</g>
</g>
<!-- Node2&#45;&gt;Node9 -->
<g id="edge9" class="edge"><title>Node2&#45;&gt;Node9</title>
<path fill="none" stroke="midnightblue" d="M986.614,-175.429C969.276,-165.797 946.058,-152.898 928.494,-143.141"/>
<polygon fill="midnightblue" stroke="midnightblue" points="985.126,-178.607 995.567,-180.403 988.525,-172.487 985.126,-178.607"/>
</g>
<!-- Node2&#45;&gt;Node10 -->
<g id="edge10" class="edge"><title>Node2&#45;&gt;Node10</title>
<path fill="none" stroke="midnightblue" d="M939.005,-187.737C810.515,-184.749 533.545,-174.978 302.041,-144 290.115,-142.404 277.219,-139.988 265.633,-137.559"/>
<polygon fill="midnightblue" stroke="midnightblue" points="939.037,-191.239 949.114,-187.965 939.195,-184.24 939.037,-191.239"/>
</g>
<!-- Node2&#45;&gt;Node11 -->
<g id="edge11" class="edge"><title>Node2&#45;&gt;Node11</title>
<path fill="none" stroke="midnightblue" d="M939.151,-184.478C821.011,-176.719 590.939,-160.142 511.041,-144 503.149,-142.406 494.716,-139.96 487.203,-137.503"/>
<polygon fill="midnightblue" stroke="midnightblue" points="938.982,-187.974 949.189,-185.134 939.439,-180.989 938.982,-187.974"/>
</g>
<!-- Node2&#45;&gt;Node12 -->
<g id="edge25" class="edge"><title>Node2&#45;&gt;Node12</title>
<path fill="none" stroke="midnightblue" d="M1017.88,-170.609C1024.89,-153.729 1037.15,-128.856 1054.04,-112 1070.67,-95.4105 1094.67,-83.1069 1112.24,-75.5964"/>
<polygon fill="midnightblue" stroke="midnightblue" points="1014.44,-169.795 1014.04,-180.382 1020.95,-172.356 1014.44,-169.795"/>
</g>
<!-- Node2&#45;&gt;Node13 -->
<g id="edge13" class="edge"><title>Node2&#45;&gt;Node13</title>
<path fill="none" stroke="midnightblue" d="M1049.5,-177.435C1079.19,-168.456 1121.28,-155.621 1158.04,-144 1164.45,-141.975 1171.34,-139.75 1177.8,-137.649"/>
<polygon fill="midnightblue" stroke="midnightblue" points="1048.1,-174.2 1039.54,-180.442 1050.13,-180.901 1048.1,-174.2"/>
</g>
<!-- Node2&#45;&gt;Node14 -->
<g id="edge16" class="edge"><title>Node2&#45;&gt;Node14</title>
<path fill="none" stroke="midnightblue" d="M1048.29,-177.129C1070.71,-169.24 1099.39,-157.804 1123.04,-144 1142.7,-132.522 1141.79,-120.18 1163.04,-112 1286.87,-64.3238 1627.18,-90.7327 1759.04,-76 1762.12,-75.6562 1765.29,-75.2578 1768.47,-74.8237"/>
<polygon fill="midnightblue" stroke="midnightblue" points="1047.1,-173.835 1038.78,-180.394 1049.38,-180.455 1047.1,-173.835"/>
</g>
<!-- Node2&#45;&gt;Node15 -->
<g id="edge18" class="edge"><title>Node2&#45;&gt;Node15</title>
<path fill="none" stroke="midnightblue" d="M1081.69,-178.96C1135.72,-170.832 1211.91,-158.395 1278.04,-144 1286.6,-142.137 1295.81,-139.808 1304.23,-137.545"/>
<polygon fill="midnightblue" stroke="midnightblue" points="1080.91,-175.538 1071.53,-180.477 1081.94,-182.462 1080.91,-175.538"/>
</g>
<!-- Node16 -->
<g id="node16" class="node"><title>Node16</title>
<g id="a_node16"><a xlink:href="a00057.html" target="_top" xlink:title="relative&#45;orientation.hh">
<polygon fill="white" stroke="black" points="520.041,-118.5 520.041,-137.5 630.041,-137.5 630.041,-118.5 520.041,-118.5"/>
<text text-anchor="middle" x="575.041" y="-125.5" font-family="Helvetica,sans-Serif" font-size="10.00">relative&#45;orientation.hh</text>
</a>
</g>
</g>
<!-- Node2&#45;&gt;Node16 -->
<g id="edge19" class="edge"><title>Node2&#45;&gt;Node16</title>
<path fill="none" stroke="midnightblue" d="M939.261,-182.173C865.073,-174.655 746.042,-161.303 644.041,-144 633.405,-142.196 621.928,-139.86 611.445,-137.57"/>
<polygon fill="midnightblue" stroke="midnightblue" points="939.126,-185.677 949.426,-183.195 939.826,-178.712 939.126,-185.677"/>
</g>
<!-- Node2&#45;&gt;Node17 -->
<g id="edge23" class="edge"><title>Node2&#45;&gt;Node17</title>
<path fill="none" stroke="midnightblue" d="M939.263,-184.041C855.493,-177.436 722.62,-164.185 677.041,-144 656.853,-135.059 658.647,-122.155 639.041,-112 603.41,-93.5457 559.613,-82.2297 525.131,-75.5611"/>
<polygon fill="midnightblue" stroke="midnightblue" points="939.238,-187.549 949.478,-184.833 939.779,-180.57 939.238,-187.549"/>
</g>
<!-- Node2&#45;&gt;Node18 -->
<g id="edge21" class="edge"><title>Node2&#45;&gt;Node18</title>
<path fill="none" stroke="midnightblue" d="M938.973,-187.643C826.865,-184.609 604.225,-174.889 418.041,-144 408.499,-142.417 398.235,-140.004 389.033,-137.574"/>
<polygon fill="midnightblue" stroke="midnightblue" points="939.057,-191.146 949.145,-187.908 939.24,-184.149 939.057,-191.146"/>
</g>
<!-- Node2&#45;&gt;Node19 -->
<g id="edge24" class="edge"><title>Node2&#45;&gt;Node19</title>
<path fill="none" stroke="midnightblue" d="M1082.7,-184.444C1130.53,-179.225 1193.81,-168.026 1245.04,-144 1265.34,-134.479 1263.17,-120.199 1284.04,-112 1405.06,-64.455 1738.69,-89.2047 1868.04,-76 1871.12,-75.6858 1874.28,-75.3327 1877.46,-74.9529"/>
<polygon fill="midnightblue" stroke="midnightblue" points="1082.32,-180.964 1072.74,-185.469 1083.04,-187.927 1082.32,-180.964"/>
</g>
<!-- Node5&#45;&gt;Node6 -->
<g id="edge5" class="edge"><title>Node5&#45;&gt;Node6</title>
<path fill="none" stroke="midnightblue" d="M1540.63,-51.4526C1558.72,-41.4835 1582.78,-28.2279 1598.33,-19.6545"/>
<polygon fill="midnightblue" stroke="midnightblue" points="1538.86,-48.4324 1531.79,-56.324 1542.23,-54.5633 1538.86,-48.4324"/>
</g>
<!-- Node7&#45;&gt;Node5 -->
<g id="edge7" class="edge"><title>Node7&#45;&gt;Node5</title>
<path fill="none" stroke="midnightblue" d="M1516.04,-108.16C1516.04,-97.2482 1516.04,-84.04 1516.04,-75.5806"/>
<polygon fill="midnightblue" stroke="midnightblue" points="1512.54,-108.403 1516.04,-118.403 1519.54,-108.403 1512.54,-108.403"/>
</g>
<!-- Node11&#45;&gt;Node12 -->
<g id="edge12" class="edge"><title>Node11&#45;&gt;Node12</title>
<path fill="none" stroke="midnightblue" d="M497.078,-115.381C501.722,-114.064 506.47,-112.881 511.041,-112 724.076,-70.9274 984.567,-66.5533 1088.76,-66.6141"/>
<polygon fill="midnightblue" stroke="midnightblue" points="495.722,-112.136 487.186,-118.413 497.773,-118.829 495.722,-112.136"/>
</g>
<!-- Node13&#45;&gt;Node12 -->
<g id="edge14" class="edge"><title>Node13&#45;&gt;Node12</title>
<path fill="none" stroke="midnightblue" d="M1186.24,-111.521C1173.08,-100.082 1155.66,-84.9305 1144.91,-75.5806"/>
<polygon fill="midnightblue" stroke="midnightblue" points="1184.31,-114.483 1194.15,-118.403 1188.91,-109.201 1184.31,-114.483"/>
</g>
<!-- Node14&#45;&gt;Node6 -->
<g id="edge17" class="edge"><title>Node14&#45;&gt;Node6</title>
<path fill="none" stroke="midnightblue" d="M1772.67,-53.8291C1734.91,-43.6333 1679.9,-28.7823 1645.58,-19.5164"/>
<polygon fill="midnightblue" stroke="midnightblue" points="1771.78,-57.2158 1782.35,-56.4435 1773.61,-50.4578 1771.78,-57.2158"/>
</g>
<!-- Node16&#45;&gt;Node17 -->
<g id="edge20" class="edge"><title>Node16&#45;&gt;Node17</title>
<path fill="none" stroke="midnightblue" d="M550.639,-113.443C529.739,-101.832 500.277,-85.4648 482.486,-75.5806"/>
<polygon fill="midnightblue" stroke="midnightblue" points="549.126,-116.607 559.567,-118.403 552.525,-110.487 549.126,-116.607"/>
</g>
<!-- Node18&#45;&gt;Node17 -->
<g id="edge22" class="edge"><title>Node18&#45;&gt;Node17</title>
<path fill="none" stroke="midnightblue" d="M384.217,-113.443C404.924,-101.832 434.112,-85.4648 451.739,-75.5806"/>
<polygon fill="midnightblue" stroke="midnightblue" points="382.382,-110.46 375.371,-118.403 385.806,-116.565 382.382,-110.46"/>
</g>
<!-- Node20&#45;&gt;Node3 -->
<g id="edge28" class="edge"><title>Node20&#45;&gt;Node3</title>
<path fill="none" stroke="midnightblue" d="M1637.93,-171.256C1652.74,-144.69 1680.11,-95.5767 1691.19,-75.6944"/>
<polygon fill="midnightblue" stroke="midnightblue" points="1634.74,-169.787 1632.93,-180.226 1640.86,-173.195 1634.74,-169.787"/>
</g>
<!-- Node20&#45;&gt;Node5 -->
<g id="edge33" class="edge"><title>Node20&#45;&gt;Node5</title>
<path fill="none" stroke="midnightblue" d="M1616.89,-171.947C1605.9,-155.729 1588.18,-131.05 1570.04,-112 1556.75,-98.0349 1539.29,-84.1665 1527.88,-75.5951"/>
<polygon fill="midnightblue" stroke="midnightblue" points="1614.07,-174.031 1622.53,-180.411 1619.9,-170.149 1614.07,-174.031"/>
</g>
<!-- Node20&#45;&gt;Node6 -->
<g id="edge36" class="edge"><title>Node20&#45;&gt;Node6</title>
<path fill="none" stroke="midnightblue" d="M1626.57,-170.247C1623.58,-132.278 1616.92,-47.5703 1614.74,-19.9185"/>
<polygon fill="midnightblue" stroke="midnightblue" points="1623.09,-170.72 1627.37,-180.415 1630.07,-170.171 1623.09,-170.72"/>
</g>
<!-- Node20&#45;&gt;Node7 -->
<g id="edge34" class="edge"><title>Node20&#45;&gt;Node7</title>
<path fill="none" stroke="midnightblue" d="M1603.03,-175.6C1581.34,-163.98 1550.59,-147.509 1532.06,-137.581"/>
<polygon fill="midnightblue" stroke="midnightblue" points="1601.53,-178.766 1611.99,-180.403 1604.83,-172.596 1601.53,-178.766"/>
</g>
<!-- Node20&#45;&gt;Node14 -->
<g id="edge35" class="edge"><title>Node20&#45;&gt;Node14</title>
<path fill="none" stroke="midnightblue" d="M1649.6,-174.857C1688.41,-149.4 1768.95,-96.5784 1800.73,-75.7326"/>
<polygon fill="midnightblue" stroke="midnightblue" points="1647.56,-172.01 1641.12,-180.421 1651.4,-177.863 1647.56,-172.01"/>
</g>
<!-- Node20&#45;&gt;Node21 -->
<g id="edge29" class="edge"><title>Node20&#45;&gt;Node21</title>
<path fill="none" stroke="midnightblue" d="M1663.32,-178.201C1701.4,-166.542 1761.28,-148.211 1796.2,-137.524"/>
<polygon fill="midnightblue" stroke="midnightblue" points="1662.2,-174.882 1653.66,-181.156 1664.25,-181.576 1662.2,-174.882"/>
</g>
<!-- Node21&#45;&gt;Node3 -->
<g id="edge30" class="edge"><title>Node21&#45;&gt;Node3</title>
<path fill="none" stroke="midnightblue" d="M1796.45,-114.066C1771.61,-102.424 1735.81,-85.6429 1714.35,-75.5806"/>
<polygon fill="midnightblue" stroke="midnightblue" points="1795.16,-117.328 1805.7,-118.403 1798.13,-110.99 1795.16,-117.328"/>
</g>
<!-- Node21&#45;&gt;Node14 -->
<g id="edge31" class="edge"><title>Node21&#45;&gt;Node14</title>
<path fill="none" stroke="midnightblue" d="M1820.96,-108.503C1819.13,-97.5268 1816.9,-84.1291 1815.47,-75.5806"/>
<polygon fill="midnightblue" stroke="midnightblue" points="1817.51,-109.115 1822.61,-118.403 1824.42,-107.964 1817.51,-109.115"/>
</g>
<!-- Node21&#45;&gt;Node19 -->
<g id="edge32" class="edge"><title>Node21&#45;&gt;Node19</title>
<path fill="none" stroke="midnightblue" d="M1848.22,-113.443C1868.92,-101.832 1898.11,-85.4648 1915.74,-75.5806"/>
<polygon fill="midnightblue" stroke="midnightblue" points="1846.38,-110.46 1839.37,-118.403 1849.81,-116.565 1846.38,-110.46"/>
</g>
<!-- Node22&#45;&gt;Node21 -->
<g id="edge39" class="edge"><title>Node22&#45;&gt;Node21</title>
<path fill="none" stroke="midnightblue" d="M1813.67,-170.503C1816.41,-159.527 1819.76,-146.129 1821.9,-137.581"/>
<polygon fill="midnightblue" stroke="midnightblue" points="1810.22,-169.853 1811.19,-180.403 1817.01,-171.551 1810.22,-169.853"/>
</g>
</g>
</svg>
