<?xml version="1.0" encoding="UTF-8" standalone="no"?>
<!DOCTYPE svg PUBLIC "-//W3C//DTD SVG 1.1//EN"
 "http://www.w3.org/Graphics/SVG/1.1/DTD/svg11.dtd">
<!-- Generated by graphviz version 2.36.0 (20140111.2315)
 -->
<!-- Title: distance&#45;between&#45;bodies.hh Pages: 1 -->
<svg width="326pt" height="208pt"
 viewBox="0.00 0.00 326.00 208.00" xmlns="http://www.w3.org/2000/svg" xmlns:xlink="http://www.w3.org/1999/xlink">
<g id="graph0" class="graph" transform="scale(1 1) rotate(0) translate(4 204)">
<title>distance&#45;between&#45;bodies.hh</title>
<polygon fill="white" stroke="none" points="-4,4 -4,-204 322,-204 322,4 -4,4"/>
<!-- Node1 -->
<g id="node1" class="node"><title>Node1</title>
<polygon fill="#bfbfbf" stroke="black" points="116,-180.5 116,-199.5 254,-199.5 254,-180.5 116,-180.5"/>
<text text-anchor="middle" x="185" y="-187.5" font-family="Helvetica,sans-Serif" font-size="10.00">distance&#45;between&#45;bodies.hh</text>
</g>
<!-- Node2 -->
<g id="node2" class="node"><title>Node2</title>
<g id="a_node2"><a xlink:href="a00047.html" target="_top" xlink:title="hpp/constraints/differentiable\l&#45;function.hh">
<polygon fill="white" stroke="black" points="114,-113 114,-143 256,-143 256,-113 114,-113"/>
<text text-anchor="start" x="122" y="-131" font-family="Helvetica,sans-Serif" font-size="10.00">hpp/constraints/differentiable</text>
<text text-anchor="middle" x="185" y="-120" font-family="Helvetica,sans-Serif" font-size="10.00">&#45;function.hh</text>
</a>
</g>
</g>
<!-- Node1&#45;&gt;Node2 -->
<g id="edge1" class="edge"><title>Node1&#45;&gt;Node2</title>
<path fill="none" stroke="midnightblue" d="M185,-180.403C185,-173.341 185,-162.975 185,-153.399"/>
<polygon fill="midnightblue" stroke="midnightblue" points="188.5,-153.141 185,-143.141 181.5,-153.141 188.5,-153.141"/>
</g>
<!-- Node3 -->
<g id="node3" class="node"><title>Node3</title>
<g id="a_node3"><a xlink:href="a00001.html" target="_top" xlink:title="hpp/constraints/fwd.hh">
<polygon fill="white" stroke="black" points="58,-56.5 58,-75.5 174,-75.5 174,-56.5 58,-56.5"/>
<text text-anchor="middle" x="116" y="-63.5" font-family="Helvetica,sans-Serif" font-size="10.00">hpp/constraints/fwd.hh</text>
</a>
</g>
</g>
<!-- Node2&#45;&gt;Node3 -->
<g id="edge2" class="edge"><title>Node2&#45;&gt;Node3</title>
<path fill="none" stroke="midnightblue" d="M168.648,-112.781C158.105,-103.613 144.4,-91.6957 133.616,-82.3186"/>
<polygon fill="midnightblue" stroke="midnightblue" points="135.883,-79.6512 126.04,-75.7305 131.29,-84.9335 135.883,-79.6512"/>
</g>
<!-- Node6 -->
<g id="node6" class="node"><title>Node6</title>
<polygon fill="white" stroke="#bfbfbf" points="192,-56.5 192,-75.5 318,-75.5 318,-56.5 192,-56.5"/>
<text text-anchor="middle" x="255" y="-63.5" font-family="Helvetica,sans-Serif" font-size="10.00">hpp/constraints/config.hh</text>
</g>
<!-- Node2&#45;&gt;Node6 -->
<g id="edge5" class="edge"><title>Node2&#45;&gt;Node6</title>
<path fill="none" stroke="midnightblue" d="M201.589,-112.781C212.285,-103.613 226.188,-91.6957 237.128,-82.3186"/>
<polygon fill="midnightblue" stroke="midnightblue" points="239.5,-84.8959 244.814,-75.7305 234.944,-79.5811 239.5,-84.8959"/>
</g>
<!-- Node4 -->
<g id="node4" class="node"><title>Node4</title>
<g id="a_node4"><a doxygen="https://jmirabel.github.io/hpp-doc/api/hpp-model/doxygen-html/hpp-model.doxytag:https://jmirabel.github.io/hpp-doc/api/hpp-model/doxygen-html/" xlink:href="https://jmirabel.github.io/hpp-doc/api/hpp-model/doxygen-html/a00037.html" target="_top" xlink:title="hpp/model/fwd.hh">
<polygon fill="white" stroke="black" points="0,-0.5 0,-19.5 94,-19.5 94,-0.5 0,-0.5"/>
<text text-anchor="middle" x="47" y="-7.5" font-family="Helvetica,sans-Serif" font-size="10.00">hpp/model/fwd.hh</text>
</a>
</g>
</g>
<!-- Node3&#45;&gt;Node4 -->
<g id="edge3" class="edge"><title>Node3&#45;&gt;Node4</title>
<path fill="none" stroke="midnightblue" d="M104.914,-56.324C94.514,-48.1849 78.7394,-35.8395 66.2784,-26.0874"/>
<polygon fill="midnightblue" stroke="midnightblue" points="68.3199,-23.2407 58.2878,-19.8339 64.0057,-28.7533 68.3199,-23.2407"/>
</g>
<!-- Node5 -->
<g id="node5" class="node"><title>Node5</title>
<polygon fill="white" stroke="#bfbfbf" points="112,-0.5 112,-19.5 260,-19.5 260,-0.5 112,-0.5"/>
<text text-anchor="middle" x="186" y="-7.5" font-family="Helvetica,sans-Serif" font-size="10.00">hpp/constraints/deprecated.hh</text>
</g>
<!-- Node3&#45;&gt;Node5 -->
<g id="edge4" class="edge"><title>Node3&#45;&gt;Node5</title>
<path fill="none" stroke="midnightblue" d="M127.247,-56.324C137.797,-48.1849 153.801,-35.8395 166.442,-26.0874"/>
<polygon fill="midnightblue" stroke="midnightblue" points="168.769,-28.7132 174.549,-19.8339 164.493,-23.1707 168.769,-28.7132"/>
</g>
</g>
</svg>
