<?xml version="1.0" encoding="UTF-8" standalone="no"?>
<!DOCTYPE svg PUBLIC "-//W3C//DTD SVG 1.1//EN"
 "http://www.w3.org/Graphics/SVG/1.1/DTD/svg11.dtd">
<!-- Generated by graphviz version 2.36.0 (20140111.2315)
 -->
<!-- Title: static&#45;stability.hh Pages: 1 -->
<svg width="1093pt" height="344pt"
 viewBox="0.00 0.00 1093.00 344.00" xmlns="http://www.w3.org/2000/svg" xmlns:xlink="http://www.w3.org/1999/xlink">
<g id="graph0" class="graph" transform="scale(1 1) rotate(0) translate(4 340)">
<title>static&#45;stability.hh</title>
<polygon fill="white" stroke="none" points="-4,4 -4,-340 1089,-340 1089,4 -4,4"/>
<!-- Node1 -->
<g id="node1" class="node"><title>Node1</title>
<polygon fill="#bfbfbf" stroke="black" points="211.5,-316.5 211.5,-335.5 302.5,-335.5 302.5,-316.5 211.5,-316.5"/>
<text text-anchor="middle" x="257" y="-323.5" font-family="Helvetica,sans-Serif" font-size="10.00">static&#45;stability.hh</text>
</g>
<!-- Node2 -->
<g id="node2" class="node"><title>Node2</title>
<polygon fill="white" stroke="#bfbfbf" points="-1,-254.5 -1,-273.5 43,-273.5 43,-254.5 -1,-254.5"/>
<text text-anchor="middle" x="21" y="-261.5" font-family="Helvetica,sans-Serif" font-size="10.00">vector</text>
</g>
<!-- Node1&#45;&gt;Node2 -->
<g id="edge1" class="edge"><title>Node1&#45;&gt;Node2</title>
<path fill="none" stroke="midnightblue" d="M211.124,-317.026C170.194,-309.359 108.89,-296.51 57,-280 54.4272,-279.181 51.7825,-278.254 49.1507,-277.271"/>
<polygon fill="midnightblue" stroke="midnightblue" points="50.4128,-274.007 39.8271,-273.567 47.8283,-280.512 50.4128,-274.007"/>
</g>
<!-- Node3 -->
<g id="node3" class="node"><title>Node3</title>
<g id="a_node3"><a xlink:href="a00047.html" target="_top" xlink:title="hpp/constraints/differentiable\l&#45;function.hh">
<polygon fill="white" stroke="black" points="137,-249 137,-279 279,-279 279,-249 137,-249"/>
<text text-anchor="start" x="145" y="-267" font-family="Helvetica,sans-Serif" font-size="10.00">hpp/constraints/differentiable</text>
<text text-anchor="middle" x="208" y="-256" font-family="Helvetica,sans-Serif" font-size="10.00">&#45;function.hh</text>
</a>
</g>
</g>
<!-- Node1&#45;&gt;Node3 -->
<g id="edge2" class="edge"><title>Node1&#45;&gt;Node3</title>
<path fill="none" stroke="midnightblue" d="M249.979,-316.403C243.715,-308.733 234.27,-297.167 225.924,-286.948"/>
<polygon fill="midnightblue" stroke="midnightblue" points="228.585,-284.672 219.548,-279.141 223.163,-289.1 228.585,-284.672"/>
</g>
<!-- Node4 -->
<g id="node4" class="node"><title>Node4</title>
<g id="a_node4"><a xlink:href="a00001.html" target="_top" xlink:title="hpp/constraints/fwd.hh">
<polygon fill="white" stroke="black" points="322,-124.5 322,-143.5 438,-143.5 438,-124.5 322,-124.5"/>
<text text-anchor="middle" x="380" y="-131.5" font-family="Helvetica,sans-Serif" font-size="10.00">hpp/constraints/fwd.hh</text>
</a>
</g>
</g>
<!-- Node1&#45;&gt;Node4 -->
<g id="edge31" class="edge"><title>Node1&#45;&gt;Node4</title>
<path fill="none" stroke="midnightblue" d="M264.496,-316.297C271.568,-307.645 281.961,-293.719 288,-280 306.373,-238.26 284.894,-217.393 311,-180 320.579,-166.28 335.814,-155.701 349.535,-148.259"/>
<polygon fill="midnightblue" stroke="midnightblue" points="351.37,-151.253 358.705,-143.607 348.203,-145.01 351.37,-151.253"/>
</g>
<!-- Node6 -->
<g id="node6" class="node"><title>Node6</title>
<polygon fill="white" stroke="#bfbfbf" points="101,-62.5 101,-81.5 249,-81.5 249,-62.5 101,-62.5"/>
<text text-anchor="middle" x="175" y="-69.5" font-family="Helvetica,sans-Serif" font-size="10.00">hpp/constraints/deprecated.hh</text>
</g>
<!-- Node1&#45;&gt;Node6 -->
<g id="edge33" class="edge"><title>Node1&#45;&gt;Node6</title>
<path fill="none" stroke="midnightblue" d="M211.446,-319.924C181.918,-314.482 144.368,-303.231 119,-280 94.7691,-257.811 96.5776,-244.191 90,-212 87.1528,-198.066 85.3154,-193.429 90,-180 103.246,-142.031 136.214,-107.434 156.982,-88.3884"/>
<polygon fill="midnightblue" stroke="midnightblue" points="159.398,-90.9226 164.532,-81.6546 154.739,-85.6984 159.398,-90.9226"/>
</g>
<!-- Node7 -->
<g id="node7" class="node"><title>Node7</title>
<polygon fill="white" stroke="#bfbfbf" points="99,-186.5 99,-205.5 225,-205.5 225,-186.5 99,-186.5"/>
<text text-anchor="middle" x="162" y="-193.5" font-family="Helvetica,sans-Serif" font-size="10.00">hpp/constraints/config.hh</text>
</g>
<!-- Node1&#45;&gt;Node7 -->
<g id="edge32" class="edge"><title>Node1&#45;&gt;Node7</title>
<path fill="none" stroke="midnightblue" d="M211.489,-322.043C182.438,-317.518 146.817,-306.493 128,-280 113.199,-259.162 131.356,-230.924 146.292,-213.342"/>
<polygon fill="midnightblue" stroke="midnightblue" points="149.126,-215.423 153.206,-205.646 143.919,-210.745 149.126,-215.423"/>
</g>
<!-- Node8 -->
<g id="node8" class="node"><title>Node8</title>
<g id="a_node8"><a xlink:href="a00064.html" target="_top" xlink:title="hpp/constraints/tools.hh">
<polygon fill="white" stroke="black" points="319.5,-186.5 319.5,-205.5 440.5,-205.5 440.5,-186.5 319.5,-186.5"/>
<text text-anchor="middle" x="380" y="-193.5" font-family="Helvetica,sans-Serif" font-size="10.00">hpp/constraints/tools.hh</text>
</a>
</g>
</g>
<!-- Node1&#45;&gt;Node8 -->
<g id="edge7" class="edge"><title>Node1&#45;&gt;Node8</title>
<path fill="none" stroke="midnightblue" d="M272.056,-316.447C285.761,-308.213 306.075,-294.849 321,-280 341.198,-259.905 359.347,-232.218 370.023,-214.461"/>
<polygon fill="midnightblue" stroke="midnightblue" points="373.105,-216.125 375.15,-205.729 367.069,-212.58 373.105,-216.125"/>
</g>
<!-- Node9 -->
<g id="node9" class="node"><title>Node9</title>
<g id="a_node9"><a xlink:href="a00062.html" target="_top" xlink:title="hpp/constraints/symbolic\l&#45;calculus.hh">
<polygon fill="white" stroke="black" points="632.5,-249 632.5,-279 757.5,-279 757.5,-249 632.5,-249"/>
<text text-anchor="start" x="640.5" y="-267" font-family="Helvetica,sans-Serif" font-size="10.00">hpp/constraints/symbolic</text>
<text text-anchor="middle" x="695" y="-256" font-family="Helvetica,sans-Serif" font-size="10.00">&#45;calculus.hh</text>
</a>
</g>
</g>
<!-- Node1&#45;&gt;Node9 -->
<g id="edge9" class="edge"><title>Node1&#45;&gt;Node9</title>
<path fill="none" stroke="midnightblue" d="M302.634,-318.749C378.557,-308.348 531.429,-287.407 622.32,-274.956"/>
<polygon fill="midnightblue" stroke="midnightblue" points="622.841,-278.418 632.273,-273.593 621.891,-271.482 622.841,-278.418"/>
</g>
<!-- Node11 -->
<g id="node11" class="node"><title>Node11</title>
<g id="a_node11"><a doxygen="https://jmirabel.github.io/hpp-doc/api/hpp-model/doxygen-html/hpp-model.doxytag:https://jmirabel.github.io/hpp-doc/api/hpp-model/doxygen-html/" xlink:href="https://jmirabel.github.io/hpp-doc/api/hpp-model/doxygen-html/a00041.html" target="_top" xlink:title="hpp/model/joint.hh">
<polygon fill="white" stroke="black" points="989,-186.5 989,-205.5 1085,-205.5 1085,-186.5 989,-186.5"/>
<text text-anchor="middle" x="1037" y="-193.5" font-family="Helvetica,sans-Serif" font-size="10.00">hpp/model/joint.hh</text>
</a>
</g>
</g>
<!-- Node1&#45;&gt;Node11 -->
<g id="edge34" class="edge"><title>Node1&#45;&gt;Node11</title>
<path fill="none" stroke="midnightblue" d="M302.728,-324.15C392.401,-321.784 597.3,-312.915 766,-280 854.332,-262.766 954.775,-227.791 1004.94,-209.222"/>
<polygon fill="midnightblue" stroke="midnightblue" points="1006.42,-212.404 1014.57,-205.629 1003.97,-205.845 1006.42,-212.404"/>
</g>
<!-- Node3&#45;&gt;Node4 -->
<g id="edge3" class="edge"><title>Node3&#45;&gt;Node4</title>
<path fill="none" stroke="midnightblue" d="M216.681,-248.938C228.427,-230.895 250.937,-199.591 277,-180 296.303,-165.49 321.013,-154.493 341.391,-147.003"/>
<polygon fill="midnightblue" stroke="midnightblue" points="342.74,-150.238 351.004,-143.608 340.409,-143.638 342.74,-150.238"/>
</g>
<!-- Node3&#45;&gt;Node7 -->
<g id="edge6" class="edge"><title>Node3&#45;&gt;Node7</title>
<path fill="none" stroke="midnightblue" d="M198.019,-248.679C190.988,-238.592 181.538,-225.033 174.082,-214.335"/>
<polygon fill="midnightblue" stroke="midnightblue" points="176.742,-212.031 168.153,-205.828 171,-216.034 176.742,-212.031"/>
</g>
<!-- Node5 -->
<g id="node5" class="node"><title>Node5</title>
<g id="a_node5"><a doxygen="https://jmirabel.github.io/hpp-doc/api/hpp-model/doxygen-html/hpp-model.doxytag:https://jmirabel.github.io/hpp-doc/api/hpp-model/doxygen-html/" xlink:href="https://jmirabel.github.io/hpp-doc/api/hpp-model/doxygen-html/a00037.html" target="_top" xlink:title="hpp/model/fwd.hh">
<polygon fill="white" stroke="black" points="697,-0.5 697,-19.5 791,-19.5 791,-0.5 697,-0.5"/>
<text text-anchor="middle" x="744" y="-7.5" font-family="Helvetica,sans-Serif" font-size="10.00">hpp/model/fwd.hh</text>
</a>
</g>
</g>
<!-- Node4&#45;&gt;Node5 -->
<g id="edge4" class="edge"><title>Node4&#45;&gt;Node5</title>
<path fill="none" stroke="midnightblue" d="M385.424,-124.046C395.964,-107.518 420.928,-72.411 452,-56 491.69,-35.0371 613.591,-21.7045 686.742,-15.3671"/>
<polygon fill="midnightblue" stroke="midnightblue" points="687.059,-18.8529 696.727,-14.5192 686.466,-11.878 687.059,-18.8529"/>
</g>
<!-- Node4&#45;&gt;Node6 -->
<g id="edge5" class="edge"><title>Node4&#45;&gt;Node6</title>
<path fill="none" stroke="midnightblue" d="M350.628,-124.403C314.703,-113.889 253.768,-96.0539 213.956,-84.4016"/>
<polygon fill="midnightblue" stroke="midnightblue" points="214.898,-81.0306 204.317,-81.5806 212.931,-87.7487 214.898,-81.0306"/>
</g>
<!-- Node8&#45;&gt;Node4 -->
<g id="edge8" class="edge"><title>Node8&#45;&gt;Node4</title>
<path fill="none" stroke="midnightblue" d="M380,-186.403C380,-177.938 380,-164.728 380,-153.82"/>
<polygon fill="midnightblue" stroke="midnightblue" points="383.5,-153.581 380,-143.581 376.5,-153.581 383.5,-153.581"/>
</g>
<!-- Node9&#45;&gt;Node4 -->
<g id="edge11" class="edge"><title>Node9&#45;&gt;Node4</title>
<path fill="none" stroke="midnightblue" d="M632.251,-254.984C589.843,-247.812 533.503,-234.791 488,-212 467.953,-201.959 467.084,-193.255 449,-180 434.005,-169.009 416.446,-157.576 402.794,-148.985"/>
<polygon fill="midnightblue" stroke="midnightblue" points="404.384,-145.852 394.046,-143.531 400.68,-151.792 404.384,-145.852"/>
</g>
<!-- Node9&#45;&gt;Node8 -->
<g id="edge29" class="edge"><title>Node9&#45;&gt;Node8</title>
<path fill="none" stroke="midnightblue" d="M632.39,-249.882C573.272,-237.495 485.718,-219.15 430.811,-207.646"/>
<polygon fill="midnightblue" stroke="midnightblue" points="431.458,-204.206 420.952,-205.58 430.022,-211.057 431.458,-204.206"/>
</g>
<!-- Node10 -->
<g id="node10" class="node"><title>Node10</title>
<polygon fill="white" stroke="#bfbfbf" points="804.5,-124.5 804.5,-143.5 869.5,-143.5 869.5,-124.5 804.5,-124.5"/>
<text text-anchor="middle" x="837" y="-131.5" font-family="Helvetica,sans-Serif" font-size="10.00">Eigen/SVD</text>
</g>
<!-- Node9&#45;&gt;Node10 -->
<g id="edge10" class="edge"><title>Node9&#45;&gt;Node10</title>
<path fill="none" stroke="midnightblue" d="M757.751,-256.108C812.247,-248.676 885.158,-234.745 903,-212 911.778,-200.81 909.645,-192.574 903,-180 895.576,-165.953 881.579,-155.467 868.379,-148.167"/>
<polygon fill="midnightblue" stroke="midnightblue" points="869.957,-145.043 859.459,-143.618 866.777,-151.279 869.957,-145.043"/>
</g>
<!-- Node9&#45;&gt;Node11 -->
<g id="edge12" class="edge"><title>Node9&#45;&gt;Node11</title>
<path fill="none" stroke="midnightblue" d="M757.755,-252.627C814.634,-242.974 900.68,-227.745 975,-212 980.899,-210.75 987.094,-209.353 993.192,-207.929"/>
<polygon fill="midnightblue" stroke="midnightblue" points="994.375,-211.245 1003.29,-205.526 992.754,-204.435 994.375,-211.245"/>
</g>
<!-- Node12 -->
<g id="node12" class="node"><title>Node12</title>
<g id="a_node12"><a doxygen="https://jmirabel.github.io/hpp-doc/api/hpp-model/doxygen-html/hpp-model.doxytag:https://jmirabel.github.io/hpp-doc/api/hpp-model/doxygen-html/" xlink:href="https://jmirabel.github.io/hpp-doc/api/hpp-model/doxygen-html/a00036.html" target="_top" xlink:title="hpp/model/fcl&#45;to&#45;eigen.hh">
<polygon fill="white" stroke="black" points="888,-124.5 888,-143.5 1014,-143.5 1014,-124.5 888,-124.5"/>
<text text-anchor="middle" x="951" y="-131.5" font-family="Helvetica,sans-Serif" font-size="10.00">hpp/model/fcl&#45;to&#45;eigen.hh</text>
</a>
</g>
</g>
<!-- Node9&#45;&gt;Node12 -->
<g id="edge14" class="edge"><title>Node9&#45;&gt;Node12</title>
<path fill="none" stroke="midnightblue" d="M757.755,-255.229C815.229,-246.975 894.909,-232.308 919,-212 936.516,-197.235 944.605,-171.3 948.228,-153.648"/>
<polygon fill="midnightblue" stroke="midnightblue" points="951.697,-154.128 949.985,-143.672 944.803,-152.914 951.697,-154.128"/>
</g>
<!-- Node13 -->
<g id="node13" class="node"><title>Node13</title>
<g id="a_node13"><a doxygen="https://jmirabel.github.io/hpp-doc/api/hpp-model/doxygen-html/hpp-model.doxytag:https://jmirabel.github.io/hpp-doc/api/hpp-model/doxygen-html/" xlink:href="https://jmirabel.github.io/hpp-doc/api/hpp-model/doxygen-html/a00028.html" target="_top" xlink:title="hpp/model/center&#45;of\l&#45;mass&#45;computation.hh">
<polygon fill="white" stroke="black" points="497.5,-181 497.5,-211 610.5,-211 610.5,-181 497.5,-181"/>
<text text-anchor="start" x="505.5" y="-199" font-family="Helvetica,sans-Serif" font-size="10.00">hpp/model/center&#45;of</text>
<text text-anchor="middle" x="554" y="-188" font-family="Helvetica,sans-Serif" font-size="10.00">&#45;mass&#45;computation.hh</text>
</a>
</g>
</g>
<!-- Node9&#45;&gt;Node13 -->
<g id="edge16" class="edge"><title>Node9&#45;&gt;Node13</title>
<path fill="none" stroke="midnightblue" d="M664.752,-248.841C643.936,-239.098 616.078,-226.058 593.51,-215.494"/>
<polygon fill="midnightblue" stroke="midnightblue" points="594.739,-212.205 584.198,-211.135 591.771,-218.545 594.739,-212.205"/>
</g>
<!-- Node18 -->
<g id="node18" class="node"><title>Node18</title>
<g id="a_node18"><a xlink:href="a00061.html" target="_top" xlink:title="hpp/constraints/svd.hh">
<polygon fill="white" stroke="black" points="779,-186.5 779,-205.5 895,-205.5 895,-186.5 779,-186.5"/>
<text text-anchor="middle" x="837" y="-193.5" font-family="Helvetica,sans-Serif" font-size="10.00">hpp/constraints/svd.hh</text>
</a>
</g>
</g>
<!-- Node9&#45;&gt;Node18 -->
<g id="edge26" class="edge"><title>Node9&#45;&gt;Node18</title>
<path fill="none" stroke="midnightblue" d="M725.463,-248.841C750.245,-237.323 784.936,-221.199 809.022,-210.004"/>
<polygon fill="midnightblue" stroke="midnightblue" points="810.728,-213.071 818.321,-205.682 807.777,-206.723 810.728,-213.071"/>
</g>
<!-- Node19 -->
<g id="node19" class="node"><title>Node19</title>
<g id="a_node19"><a xlink:href="a00051.html" target="_top" xlink:title="hpp/constraints/macros.hh">
<polygon fill="white" stroke="black" points="629,-186.5 629,-205.5 761,-205.5 761,-186.5 629,-186.5"/>
<text text-anchor="middle" x="695" y="-193.5" font-family="Helvetica,sans-Serif" font-size="10.00">hpp/constraints/macros.hh</text>
</a>
</g>
</g>
<!-- Node9&#45;&gt;Node19 -->
<g id="edge30" class="edge"><title>Node9&#45;&gt;Node19</title>
<path fill="none" stroke="midnightblue" d="M695,-248.679C695,-239.101 695,-226.394 695,-215.977"/>
<polygon fill="midnightblue" stroke="midnightblue" points="698.5,-215.828 695,-205.828 691.5,-215.828 698.5,-215.828"/>
</g>
<!-- Node11&#45;&gt;Node5 -->
<g id="edge13" class="edge"><title>Node11&#45;&gt;Node5</title>
<path fill="none" stroke="midnightblue" d="M1037.16,-186.451C1037.05,-172.387 1035.18,-143.944 1023,-124 997.605,-82.4138 980.896,-77.1531 937,-56 893.946,-35.2526 840.791,-23.7716 801.173,-17.6094"/>
<polygon fill="midnightblue" stroke="midnightblue" points="801.556,-14.128 791.15,-16.1185 800.526,-21.0518 801.556,-14.128"/>
</g>
<!-- Node12&#45;&gt;Node5 -->
<g id="edge15" class="edge"><title>Node12&#45;&gt;Node5</title>
<path fill="none" stroke="midnightblue" d="M948.976,-124.368C944.768,-108.377 933.536,-74.1293 911,-56 879.91,-30.9898 836.1,-19.8192 801.152,-14.8593"/>
<polygon fill="midnightblue" stroke="midnightblue" points="801.447,-11.3685 791.082,-13.5647 800.555,-18.3114 801.447,-11.3685"/>
</g>
<!-- Node13&#45;&gt;Node5 -->
<g id="edge17" class="edge"><title>Node13&#45;&gt;Node5</title>
<path fill="none" stroke="midnightblue" d="M536.975,-180.703C507.163,-153.98 451.7,-95.5842 485,-56 510.256,-25.978 618.403,-15.9845 686.714,-12.6585"/>
<polygon fill="midnightblue" stroke="midnightblue" points="687.072,-16.146 696.903,-12.1972 686.755,-9.15314 687.072,-16.146"/>
</g>
<!-- Node14 -->
<g id="node14" class="node"><title>Node14</title>
<g id="a_node14"><a doxygen="https://jmirabel.github.io/hpp-doc/api/hpp-model/doxygen-html/hpp-model.doxytag:https://jmirabel.github.io/hpp-doc/api/hpp-model/doxygen-html/" xlink:href="https://jmirabel.github.io/hpp-doc/api/hpp-model/doxygen-html/a00033.html" target="_top" xlink:title="hpp/model/device.hh">
<polygon fill="white" stroke="black" points="618.5,-124.5 618.5,-143.5 725.5,-143.5 725.5,-124.5 618.5,-124.5"/>
<text text-anchor="middle" x="672" y="-131.5" font-family="Helvetica,sans-Serif" font-size="10.00">hpp/model/device.hh</text>
</a>
</g>
</g>
<!-- Node13&#45;&gt;Node14 -->
<g id="edge18" class="edge"><title>Node13&#45;&gt;Node14</title>
<path fill="none" stroke="midnightblue" d="M581.666,-180.933C601.129,-171.036 627.002,-157.88 646.069,-148.185"/>
<polygon fill="midnightblue" stroke="midnightblue" points="647.759,-151.252 655.087,-143.6 644.586,-145.013 647.759,-151.252"/>
</g>
<!-- Node14&#45;&gt;Node5 -->
<g id="edge19" class="edge"><title>Node14&#45;&gt;Node5</title>
<path fill="none" stroke="midnightblue" d="M725.513,-129.748C784.282,-124.928 873.121,-113.535 894,-88 924.177,-51.0925 855.248,-29.9807 801.099,-19.5042"/>
<polygon fill="midnightblue" stroke="midnightblue" points="801.657,-16.0482 791.187,-17.6704 800.384,-22.9314 801.657,-16.0482"/>
</g>
<!-- Node15 -->
<g id="node15" class="node"><title>Node15</title>
<g id="a_node15"><a doxygen="https://jmirabel.github.io/hpp-doc/api/hpp-model/doxygen-html/hpp-model.doxytag:https://jmirabel.github.io/hpp-doc/api/hpp-model/doxygen-html/" xlink:href="https://jmirabel.github.io/hpp-doc/api/hpp-model/doxygen-html/a00034.html" target="_top" xlink:title="hpp/model/distance\l&#45;result.hh">
<polygon fill="white" stroke="black" points="494.5,-57 494.5,-87 595.5,-87 595.5,-57 494.5,-57"/>
<text text-anchor="start" x="502.5" y="-75" font-family="Helvetica,sans-Serif" font-size="10.00">hpp/model/distance</text>
<text text-anchor="middle" x="545" y="-64" font-family="Helvetica,sans-Serif" font-size="10.00">&#45;result.hh</text>
</a>
</g>
</g>
<!-- Node14&#45;&gt;Node15 -->
<g id="edge20" class="edge"><title>Node14&#45;&gt;Node15</title>
<path fill="none" stroke="midnightblue" d="M653.804,-124.403C635.719,-115.86 607.406,-102.483 584.195,-91.5171"/>
<polygon fill="midnightblue" stroke="midnightblue" points="585.468,-88.2479 574.931,-87.1408 582.478,-94.5772 585.468,-88.2479"/>
</g>
<!-- Node16 -->
<g id="node16" class="node"><title>Node16</title>
<g id="a_node16"><a doxygen="https://jmirabel.github.io/hpp-doc/api/hpp-model/doxygen-html/hpp-model.doxytag:https://jmirabel.github.io/hpp-doc/api/hpp-model/doxygen-html/" xlink:href="https://jmirabel.github.io/hpp-doc/api/hpp-model/doxygen-html/a00035.html" target="_top" xlink:title="hpp/model/extra&#45;config\l&#45;space.hh">
<polygon fill="white" stroke="black" points="614,-57 614,-87 730,-87 730,-57 614,-57"/>
<text text-anchor="start" x="622" y="-75" font-family="Helvetica,sans-Serif" font-size="10.00">hpp/model/extra&#45;config</text>
<text text-anchor="middle" x="672" y="-64" font-family="Helvetica,sans-Serif" font-size="10.00">&#45;space.hh</text>
</a>
</g>
</g>
<!-- Node14&#45;&gt;Node16 -->
<g id="edge22" class="edge"><title>Node14&#45;&gt;Node16</title>
<path fill="none" stroke="midnightblue" d="M672,-124.403C672,-117.341 672,-106.975 672,-97.399"/>
<polygon fill="midnightblue" stroke="midnightblue" points="675.5,-97.1408 672,-87.1408 668.5,-97.1408 675.5,-97.1408"/>
</g>
<!-- Node17 -->
<g id="node17" class="node"><title>Node17</title>
<g id="a_node17"><a doxygen="https://jmirabel.github.io/hpp-doc/api/hpp-model/doxygen-html/hpp-model.doxytag:https://jmirabel.github.io/hpp-doc/api/hpp-model/doxygen-html/" xlink:href="https://jmirabel.github.io/hpp-doc/api/hpp-model/doxygen-html/a00044.html" target="_top" xlink:title="hpp/model/object&#45;iterator.hh">
<polygon fill="white" stroke="black" points="748.5,-62.5 748.5,-81.5 885.5,-81.5 885.5,-62.5 748.5,-62.5"/>
<text text-anchor="middle" x="817" y="-69.5" font-family="Helvetica,sans-Serif" font-size="10.00">hpp/model/object&#45;iterator.hh</text>
</a>
</g>
</g>
<!-- Node14&#45;&gt;Node17 -->
<g id="edge24" class="edge"><title>Node14&#45;&gt;Node17</title>
<path fill="none" stroke="midnightblue" d="M692.775,-124.403C717.432,-114.2 758.745,-97.1055 786.902,-85.4544"/>
<polygon fill="midnightblue" stroke="midnightblue" points="788.362,-88.6382 796.264,-81.5806 785.685,-82.1701 788.362,-88.6382"/>
</g>
<!-- Node15&#45;&gt;Node5 -->
<g id="edge21" class="edge"><title>Node15&#45;&gt;Node5</title>
<path fill="none" stroke="midnightblue" d="M591.657,-56.9327C626.533,-46.4171 673.613,-32.2222 706.161,-22.4087"/>
<polygon fill="midnightblue" stroke="midnightblue" points="707.202,-25.7505 715.766,-19.5127 705.182,-19.0485 707.202,-25.7505"/>
</g>
<!-- Node16&#45;&gt;Node5 -->
<g id="edge23" class="edge"><title>Node16&#45;&gt;Node5</title>
<path fill="none" stroke="midnightblue" d="M689.063,-56.7808C700.065,-47.6127 714.365,-35.6957 725.618,-26.3186"/>
<polygon fill="midnightblue" stroke="midnightblue" points="728.082,-28.8212 733.523,-19.7305 723.6,-23.4436 728.082,-28.8212"/>
</g>
<!-- Node17&#45;&gt;Node5 -->
<g id="edge25" class="edge"><title>Node17&#45;&gt;Node5</title>
<path fill="none" stroke="midnightblue" d="M806.541,-62.4035C795.049,-52.9579 776.37,-37.6056 762.413,-26.1342"/>
<polygon fill="midnightblue" stroke="midnightblue" points="764.388,-23.2264 754.44,-19.5806 759.943,-28.6342 764.388,-23.2264"/>
</g>
<!-- Node18&#45;&gt;Node4 -->
<g id="edge27" class="edge"><title>Node18&#45;&gt;Node4</title>
<path fill="none" stroke="midnightblue" d="M802.017,-186.437C791.745,-184.121 780.46,-181.769 770,-180 657.931,-161.044 526.375,-147.689 448.276,-140.682"/>
<polygon fill="midnightblue" stroke="midnightblue" points="448.357,-137.175 438.087,-139.776 447.738,-144.148 448.357,-137.175"/>
</g>
<!-- Node18&#45;&gt;Node10 -->
<g id="edge28" class="edge"><title>Node18&#45;&gt;Node10</title>
<path fill="none" stroke="midnightblue" d="M837,-186.403C837,-177.938 837,-164.728 837,-153.82"/>
<polygon fill="midnightblue" stroke="midnightblue" points="840.5,-153.581 837,-143.581 833.5,-153.581 840.5,-153.581"/>
</g>
</g>
</svg>
