<?xml version="1.0" encoding="UTF-8" standalone="no"?>
<!DOCTYPE svg PUBLIC "-//W3C//DTD SVG 1.1//EN"
 "http://www.w3.org/Graphics/SVG/1.1/DTD/svg11.dtd">
<!-- Generated by graphviz version 2.36.0 (20140111.2315)
 -->
<!-- Title: relative&#45;transformation.hh Pages: 1 -->
<svg width="557pt" height="276pt"
 viewBox="0.00 0.00 556.94 276.00" xmlns="http://www.w3.org/2000/svg" xmlns:xlink="http://www.w3.org/1999/xlink">
<g id="graph0" class="graph" transform="scale(1 1) rotate(0) translate(4 272)">
<title>relative&#45;transformation.hh</title>
<polygon fill="white" stroke="none" points="-4,4 -4,-272 552.936,-272 552.936,4 -4,4"/>
<!-- Node1 -->
<g id="node1" class="node"><title>Node1</title>
<polygon fill="#bfbfbf" stroke="black" points="197.436,-248.5 197.436,-267.5 324.436,-267.5 324.436,-248.5 197.436,-248.5"/>
<text text-anchor="middle" x="260.936" y="-255.5" font-family="Helvetica,sans-Serif" font-size="10.00">relative&#45;transformation.hh</text>
</g>
<!-- Node2 -->
<g id="node2" class="node"><title>Node2</title>
<polygon fill="white" stroke="#bfbfbf" points="13.9359,-118.5 13.9359,-137.5 133.936,-137.5 133.936,-118.5 13.9359,-118.5"/>
<text text-anchor="middle" x="73.9359" y="-125.5" font-family="Helvetica,sans-Serif" font-size="10.00">boost/assign/list_of.hpp</text>
</g>
<!-- Node1&#45;&gt;Node2 -->
<g id="edge1" class="edge"><title>Node1&#45;&gt;Node2</title>
<path fill="none" stroke="midnightblue" d="M197.398,-251.571C144.242,-245.555 74.3704,-233.699 56.9359,-212 42.0114,-193.424 52.7834,-165.121 62.7063,-146.84"/>
<polygon fill="midnightblue" stroke="midnightblue" points="65.9414,-148.241 67.9631,-137.841 59.897,-144.71 65.9414,-148.241"/>
</g>
<!-- Node3 -->
<g id="node3" class="node"><title>Node3</title>
<polygon fill="white" stroke="#bfbfbf" points="426.436,-186.5 426.436,-205.5 549.436,-205.5 549.436,-186.5 426.436,-186.5"/>
<text text-anchor="middle" x="487.936" y="-193.5" font-family="Helvetica,sans-Serif" font-size="10.00">hpp/fcl/math/transform.h</text>
</g>
<!-- Node1&#45;&gt;Node3 -->
<g id="edge2" class="edge"><title>Node1&#45;&gt;Node3</title>
<path fill="none" stroke="midnightblue" d="M293.459,-248.403C333.494,-237.822 401.574,-219.827 445.638,-208.18"/>
<polygon fill="midnightblue" stroke="midnightblue" points="446.699,-211.52 455.473,-205.581 444.91,-204.752 446.699,-211.52"/>
</g>
<!-- Node4 -->
<g id="node4" class="node"><title>Node4</title>
<g id="a_node4"><a xlink:href="a00047.html" target="_top" xlink:title="hpp/constraints/differentiable\l&#45;function.hh">
<polygon fill="white" stroke="black" points="189.936,-113 189.936,-143 331.936,-143 331.936,-113 189.936,-113"/>
<text text-anchor="start" x="197.936" y="-131" font-family="Helvetica,sans-Serif" font-size="10.00">hpp/constraints/differentiable</text>
<text text-anchor="middle" x="260.936" y="-120" font-family="Helvetica,sans-Serif" font-size="10.00">&#45;function.hh</text>
</a>
</g>
</g>
<!-- Node1&#45;&gt;Node4 -->
<g id="edge3" class="edge"><title>Node1&#45;&gt;Node4</title>
<path fill="none" stroke="midnightblue" d="M284.39,-248.408C300.097,-241.28 319.554,-229.458 328.936,-212 335.668,-199.472 335.296,-192.721 328.936,-180 322.457,-167.042 310.947,-156.523 299.218,-148.477"/>
<polygon fill="midnightblue" stroke="midnightblue" points="301.022,-145.476 290.707,-143.056 297.261,-151.38 301.022,-145.476"/>
</g>
<!-- Node5 -->
<g id="node5" class="node"><title>Node5</title>
<g id="a_node5"><a xlink:href="a00001.html" target="_top" xlink:title="hpp/constraints/fwd.hh">
<polygon fill="white" stroke="black" points="103.936,-56.5 103.936,-75.5 219.936,-75.5 219.936,-56.5 103.936,-56.5"/>
<text text-anchor="middle" x="161.936" y="-63.5" font-family="Helvetica,sans-Serif" font-size="10.00">hpp/constraints/fwd.hh</text>
</a>
</g>
</g>
<!-- Node1&#45;&gt;Node5 -->
<g id="edge17" class="edge"><title>Node1&#45;&gt;Node5</title>
<path fill="none" stroke="midnightblue" d="M197.273,-256.823C151.416,-253.761 90.0948,-243.344 45.9359,-212 17.1577,-191.573 14.3929,-178 4.9359,-144 1.12471,-130.298 -3.62388,-123.358 4.9359,-112 16.4109,-96.7739 59.156,-85.1267 97.1507,-77.5001"/>
<polygon fill="midnightblue" stroke="midnightblue" points="98.0462,-80.8917 107.197,-75.5521 96.7136,-74.0197 98.0462,-80.8917"/>
</g>
<!-- Node8 -->
<g id="node8" class="node"><title>Node8</title>
<polygon fill="white" stroke="#bfbfbf" points="296.936,-56.5 296.936,-75.5 422.936,-75.5 422.936,-56.5 296.936,-56.5"/>
<text text-anchor="middle" x="359.936" y="-63.5" font-family="Helvetica,sans-Serif" font-size="10.00">hpp/constraints/config.hh</text>
</g>
<!-- Node1&#45;&gt;Node8 -->
<g id="edge16" class="edge"><title>Node1&#45;&gt;Node8</title>
<path fill="none" stroke="midnightblue" d="M290.309,-248.455C308.936,-241.551 332.058,-229.974 345.936,-212 374.58,-174.901 369.089,-115.527 363.873,-85.57"/>
<polygon fill="midnightblue" stroke="midnightblue" points="367.288,-84.7945 361.96,-75.6371 360.415,-86.1187 367.288,-84.7945"/>
</g>
<!-- Node9 -->
<g id="node9" class="node"><title>Node9</title>
<g id="a_node9"><a xlink:href="a00057.html" target="_top" xlink:title="hpp/constraints/relative\l&#45;orientation.hh">
<polygon fill="white" stroke="black" points="65.9359,-181 65.9359,-211 183.936,-211 183.936,-181 65.9359,-181"/>
<text text-anchor="start" x="73.9359" y="-199" font-family="Helvetica,sans-Serif" font-size="10.00">hpp/constraints/relative</text>
<text text-anchor="middle" x="124.936" y="-188" font-family="Helvetica,sans-Serif" font-size="10.00">&#45;orientation.hh</text>
</a>
</g>
</g>
<!-- Node1&#45;&gt;Node9 -->
<g id="edge8" class="edge"><title>Node1&#45;&gt;Node9</title>
<path fill="none" stroke="midnightblue" d="M241.45,-248.403C221.847,-239.755 191.019,-226.155 165.997,-215.115"/>
<polygon fill="midnightblue" stroke="midnightblue" points="167.289,-211.86 156.727,-211.025 164.463,-218.264 167.289,-211.86"/>
</g>
<!-- Node10 -->
<g id="node10" class="node"><title>Node10</title>
<g id="a_node10"><a xlink:href="a00058.html" target="_top" xlink:title="hpp/constraints/relative\l&#45;position.hh">
<polygon fill="white" stroke="black" points="201.936,-181 201.936,-211 319.936,-211 319.936,-181 201.936,-181"/>
<text text-anchor="start" x="209.936" y="-199" font-family="Helvetica,sans-Serif" font-size="10.00">hpp/constraints/relative</text>
<text text-anchor="middle" x="260.936" y="-188" font-family="Helvetica,sans-Serif" font-size="10.00">&#45;position.hh</text>
</a>
</g>
</g>
<!-- Node1&#45;&gt;Node10 -->
<g id="edge11" class="edge"><title>Node1&#45;&gt;Node10</title>
<path fill="none" stroke="midnightblue" d="M260.936,-248.403C260.936,-241.341 260.936,-230.975 260.936,-221.399"/>
<polygon fill="midnightblue" stroke="midnightblue" points="264.436,-221.141 260.936,-211.141 257.436,-221.141 264.436,-221.141"/>
</g>
<!-- Node4&#45;&gt;Node5 -->
<g id="edge4" class="edge"><title>Node4&#45;&gt;Node5</title>
<path fill="none" stroke="midnightblue" d="M237.725,-112.933C221.768,-103.262 200.677,-90.4793 184.796,-80.8546"/>
<polygon fill="midnightblue" stroke="midnightblue" points="186.492,-77.7899 176.126,-75.6 182.864,-83.7763 186.492,-77.7899"/>
</g>
<!-- Node4&#45;&gt;Node8 -->
<g id="edge7" class="edge"><title>Node4&#45;&gt;Node8</title>
<path fill="none" stroke="midnightblue" d="M284.147,-112.933C300.104,-103.262 321.195,-90.4793 337.076,-80.8546"/>
<polygon fill="midnightblue" stroke="midnightblue" points="339.008,-83.7763 345.746,-75.6 335.38,-77.7899 339.008,-83.7763"/>
</g>
<!-- Node6 -->
<g id="node6" class="node"><title>Node6</title>
<g id="a_node6"><a doxygen="https://jmirabel.github.io/hpp-doc/api/hpp-model/doxygen-html/hpp-model.doxytag:https://jmirabel.github.io/hpp-doc/api/hpp-model/doxygen-html/" xlink:href="https://jmirabel.github.io/hpp-doc/api/hpp-model/doxygen-html/a00037.html" target="_top" xlink:title="hpp/model/fwd.hh">
<polygon fill="white" stroke="black" points="45.9359,-0.5 45.9359,-19.5 139.936,-19.5 139.936,-0.5 45.9359,-0.5"/>
<text text-anchor="middle" x="92.9359" y="-7.5" font-family="Helvetica,sans-Serif" font-size="10.00">hpp/model/fwd.hh</text>
</a>
</g>
</g>
<!-- Node5&#45;&gt;Node6 -->
<g id="edge5" class="edge"><title>Node5&#45;&gt;Node6</title>
<path fill="none" stroke="midnightblue" d="M150.85,-56.324C140.45,-48.1849 124.675,-35.8395 112.214,-26.0874"/>
<polygon fill="midnightblue" stroke="midnightblue" points="114.256,-23.2407 104.224,-19.8339 109.942,-28.7533 114.256,-23.2407"/>
</g>
<!-- Node7 -->
<g id="node7" class="node"><title>Node7</title>
<polygon fill="white" stroke="#bfbfbf" points="157.936,-0.5 157.936,-19.5 305.936,-19.5 305.936,-0.5 157.936,-0.5"/>
<text text-anchor="middle" x="231.936" y="-7.5" font-family="Helvetica,sans-Serif" font-size="10.00">hpp/constraints/deprecated.hh</text>
</g>
<!-- Node5&#45;&gt;Node7 -->
<g id="edge6" class="edge"><title>Node5&#45;&gt;Node7</title>
<path fill="none" stroke="midnightblue" d="M173.183,-56.324C183.733,-48.1849 199.737,-35.8395 212.378,-26.0874"/>
<polygon fill="midnightblue" stroke="midnightblue" points="214.705,-28.7132 220.485,-19.8339 210.429,-23.1707 214.705,-28.7132"/>
</g>
<!-- Node9&#45;&gt;Node2 -->
<g id="edge9" class="edge"><title>Node9&#45;&gt;Node2</title>
<path fill="none" stroke="midnightblue" d="M113.87,-180.679C105.996,-170.49 95.3859,-156.759 87.0809,-146.011"/>
<polygon fill="midnightblue" stroke="midnightblue" points="89.6418,-143.601 80.7578,-137.828 84.1028,-147.881 89.6418,-143.601"/>
</g>
<!-- Node9&#45;&gt;Node4 -->
<g id="edge10" class="edge"><title>Node9&#45;&gt;Node4</title>
<path fill="none" stroke="midnightblue" d="M154.111,-180.841C174.1,-171.141 200.819,-158.174 222.535,-147.636"/>
<polygon fill="midnightblue" stroke="midnightblue" points="224.34,-150.65 231.809,-143.135 221.284,-144.352 224.34,-150.65"/>
</g>
<!-- Node10&#45;&gt;Node2 -->
<g id="edge12" class="edge"><title>Node10&#45;&gt;Node2</title>
<path fill="none" stroke="midnightblue" d="M220.82,-180.841C187.217,-168.982 139.78,-152.239 107.997,-141.022"/>
<polygon fill="midnightblue" stroke="midnightblue" points="108.86,-137.615 98.2652,-137.587 106.53,-144.216 108.86,-137.615"/>
</g>
<!-- Node10&#45;&gt;Node4 -->
<g id="edge13" class="edge"><title>Node10&#45;&gt;Node4</title>
<path fill="none" stroke="midnightblue" d="M260.936,-180.679C260.936,-172.722 260.936,-162.605 260.936,-153.436"/>
<polygon fill="midnightblue" stroke="midnightblue" points="264.436,-153.293 260.936,-143.293 257.436,-153.293 264.436,-153.293"/>
</g>
<!-- Node10&#45;&gt;Node5 -->
<g id="edge14" class="edge"><title>Node10&#45;&gt;Node5</title>
<path fill="none" stroke="midnightblue" d="M227.354,-180.918C211.066,-172.47 192.558,-160.191 180.936,-144 168.671,-126.914 164.278,-102.804 162.73,-86.1347"/>
<polygon fill="midnightblue" stroke="midnightblue" points="166.209,-85.7057 162.05,-75.9612 159.224,-86.1722 166.209,-85.7057"/>
</g>
<!-- Node10&#45;&gt;Node8 -->
<g id="edge15" class="edge"><title>Node10&#45;&gt;Node8</title>
<path fill="none" stroke="midnightblue" d="M294.518,-180.918C310.806,-172.47 329.314,-160.191 340.936,-144 353.201,-126.914 357.594,-102.804 359.142,-86.1347"/>
<polygon fill="midnightblue" stroke="midnightblue" points="362.647,-86.1722 359.822,-75.9612 355.663,-85.7057 362.647,-86.1722"/>
</g>
</g>
</svg>
