<?xml version="1.0" encoding="UTF-8" standalone="no"?>
<!DOCTYPE svg PUBLIC "-//W3C//DTD SVG 1.1//EN"
 "http://www.w3.org/Graphics/SVG/1.1/DTD/svg11.dtd">
<!-- Generated by graphviz version 2.36.0 (20140111.2315)
 -->
<!-- Title: generic&#45;transformation.hh Pages: 1 -->
<svg width="458pt" height="208pt"
 viewBox="0.00 0.00 458.00 208.00" xmlns="http://www.w3.org/2000/svg" xmlns:xlink="http://www.w3.org/1999/xlink">
<g id="graph0" class="graph" transform="scale(1 1) rotate(0) translate(4 204)">
<title>generic&#45;transformation.hh</title>
<polygon fill="white" stroke="none" points="-4,4 -4,-204 454,-204 454,4 -4,4"/>
<!-- Node1 -->
<g id="node1" class="node"><title>Node1</title>
<polygon fill="#bfbfbf" stroke="black" points="125.5,-180.5 125.5,-199.5 252.5,-199.5 252.5,-180.5 125.5,-180.5"/>
<text text-anchor="middle" x="189" y="-187.5" font-family="Helvetica,sans-Serif" font-size="10.00">generic&#45;transformation.hh</text>
</g>
<!-- Node2 -->
<g id="node2" class="node"><title>Node2</title>
<polygon fill="white" stroke="#bfbfbf" points="-0.5,-118.5 -0.5,-137.5 122.5,-137.5 122.5,-118.5 -0.5,-118.5"/>
<text text-anchor="middle" x="61" y="-125.5" font-family="Helvetica,sans-Serif" font-size="10.00">hpp/fcl/math/transform.h</text>
</g>
<!-- Node1&#45;&gt;Node2 -->
<g id="edge1" class="edge"><title>Node1&#45;&gt;Node2</title>
<path fill="none" stroke="midnightblue" d="M170.661,-180.403C149.179,-170.334 113.378,-153.552 88.5523,-141.915"/>
<polygon fill="midnightblue" stroke="midnightblue" points="89.8454,-138.656 79.3053,-137.581 86.8743,-144.994 89.8454,-138.656"/>
</g>
<!-- Node3 -->
<g id="node3" class="node"><title>Node3</title>
<g id="a_node3"><a doxygen="https://jmirabel.github.io/hpp-doc/api/hpp-model/doxygen-html/hpp-model.doxytag:https://jmirabel.github.io/hpp-doc/api/hpp-model/doxygen-html/" xlink:href="https://jmirabel.github.io/hpp-doc/api/hpp-model/doxygen-html/a00041.html" target="_top" xlink:title="hpp/model/joint.hh">
<polygon fill="white" stroke="black" points="76,-56.5 76,-75.5 172,-75.5 172,-56.5 76,-56.5"/>
<text text-anchor="middle" x="124" y="-63.5" font-family="Helvetica,sans-Serif" font-size="10.00">hpp/model/joint.hh</text>
</a>
</g>
</g>
<!-- Node1&#45;&gt;Node3 -->
<g id="edge2" class="edge"><title>Node1&#45;&gt;Node3</title>
<path fill="none" stroke="midnightblue" d="M184.325,-180.226C173.691,-160.266 147.519,-111.144 133.397,-84.6378"/>
<polygon fill="midnightblue" stroke="midnightblue" points="136.423,-82.8742 128.632,-75.6944 130.246,-86.1657 136.423,-82.8742"/>
</g>
<!-- Node5 -->
<g id="node5" class="node"><title>Node5</title>
<g id="a_node5"><a xlink:href="a00047.html" target="_top" xlink:title="hpp/constraints/differentiable\l&#45;function.hh">
<polygon fill="white" stroke="black" points="217,-113 217,-143 359,-143 359,-113 217,-113"/>
<text text-anchor="start" x="225" y="-131" font-family="Helvetica,sans-Serif" font-size="10.00">hpp/constraints/differentiable</text>
<text text-anchor="middle" x="288" y="-120" font-family="Helvetica,sans-Serif" font-size="10.00">&#45;function.hh</text>
</a>
</g>
</g>
<!-- Node1&#45;&gt;Node5 -->
<g id="edge4" class="edge"><title>Node1&#45;&gt;Node5</title>
<path fill="none" stroke="midnightblue" d="M203.184,-180.403C216.843,-172.125 237.987,-159.311 255.747,-148.547"/>
<polygon fill="midnightblue" stroke="midnightblue" points="257.93,-151.317 264.668,-143.141 254.302,-145.331 257.93,-151.317"/>
</g>
<!-- Node6 -->
<g id="node6" class="node"><title>Node6</title>
<g id="a_node6"><a xlink:href="a00001.html" target="_top" xlink:title="hpp/constraints/fwd.hh">
<polygon fill="white" stroke="black" points="190,-56.5 190,-75.5 306,-75.5 306,-56.5 190,-56.5"/>
<text text-anchor="middle" x="248" y="-63.5" font-family="Helvetica,sans-Serif" font-size="10.00">hpp/constraints/fwd.hh</text>
</a>
</g>
</g>
<!-- Node1&#45;&gt;Node6 -->
<g id="edge10" class="edge"><title>Node1&#45;&gt;Node6</title>
<path fill="none" stroke="midnightblue" d="M189.759,-180.437C191.351,-165.697 195.948,-134.909 208,-112 213.694,-101.177 222.538,-90.8469 230.464,-82.8205"/>
<polygon fill="midnightblue" stroke="midnightblue" points="233.157,-85.0862 237.933,-75.6288 228.302,-80.0437 233.157,-85.0862"/>
</g>
<!-- Node8 -->
<g id="node8" class="node"><title>Node8</title>
<polygon fill="white" stroke="#bfbfbf" points="324,-56.5 324,-75.5 450,-75.5 450,-56.5 324,-56.5"/>
<text text-anchor="middle" x="387" y="-63.5" font-family="Helvetica,sans-Serif" font-size="10.00">hpp/constraints/config.hh</text>
</g>
<!-- Node1&#45;&gt;Node8 -->
<g id="edge9" class="edge"><title>Node1&#45;&gt;Node8</title>
<path fill="none" stroke="midnightblue" d="M250.142,-180.473C295.212,-172.966 351.439,-160.633 368,-144 383.301,-128.632 386.966,-103.028 387.522,-85.6007"/>
<polygon fill="midnightblue" stroke="midnightblue" points="391.022,-85.521 387.529,-75.5186 384.022,-85.5161 391.022,-85.521"/>
</g>
<!-- Node4 -->
<g id="node4" class="node"><title>Node4</title>
<g id="a_node4"><a doxygen="https://jmirabel.github.io/hpp-doc/api/hpp-model/doxygen-html/hpp-model.doxytag:https://jmirabel.github.io/hpp-doc/api/hpp-model/doxygen-html/" xlink:href="https://jmirabel.github.io/hpp-doc/api/hpp-model/doxygen-html/a00037.html" target="_top" xlink:title="hpp/model/fwd.hh">
<polygon fill="white" stroke="black" points="77,-0.5 77,-19.5 171,-19.5 171,-0.5 77,-0.5"/>
<text text-anchor="middle" x="124" y="-7.5" font-family="Helvetica,sans-Serif" font-size="10.00">hpp/model/fwd.hh</text>
</a>
</g>
</g>
<!-- Node3&#45;&gt;Node4 -->
<g id="edge3" class="edge"><title>Node3&#45;&gt;Node4</title>
<path fill="none" stroke="midnightblue" d="M124,-56.083C124,-49.0059 124,-38.8611 124,-29.9865"/>
<polygon fill="midnightblue" stroke="midnightblue" points="127.5,-29.751 124,-19.7511 120.5,-29.7511 127.5,-29.751"/>
</g>
<!-- Node5&#45;&gt;Node6 -->
<g id="edge5" class="edge"><title>Node5&#45;&gt;Node6</title>
<path fill="none" stroke="midnightblue" d="M278.521,-112.781C272.828,-104.242 265.546,-93.3184 259.522,-84.2834"/>
<polygon fill="midnightblue" stroke="midnightblue" points="262.28,-82.1096 253.82,-75.7305 256.455,-85.9925 262.28,-82.1096"/>
</g>
<!-- Node5&#45;&gt;Node8 -->
<g id="edge8" class="edge"><title>Node5&#45;&gt;Node8</title>
<path fill="none" stroke="midnightblue" d="M311.211,-112.933C327.168,-103.262 348.259,-90.4793 364.14,-80.8546"/>
<polygon fill="midnightblue" stroke="midnightblue" points="366.072,-83.7763 372.81,-75.6 362.444,-77.7899 366.072,-83.7763"/>
</g>
<!-- Node6&#45;&gt;Node4 -->
<g id="edge6" class="edge"><title>Node6&#45;&gt;Node4</title>
<path fill="none" stroke="midnightblue" d="M228.352,-56.4435C208.035,-47.5961 176.097,-33.6875 152.902,-23.5865"/>
<polygon fill="midnightblue" stroke="midnightblue" points="154.122,-20.3002 143.556,-19.5164 151.327,-26.7181 154.122,-20.3002"/>
</g>
<!-- Node7 -->
<g id="node7" class="node"><title>Node7</title>
<polygon fill="white" stroke="#bfbfbf" points="189,-0.5 189,-19.5 337,-19.5 337,-0.5 189,-0.5"/>
<text text-anchor="middle" x="263" y="-7.5" font-family="Helvetica,sans-Serif" font-size="10.00">hpp/constraints/deprecated.hh</text>
</g>
<!-- Node6&#45;&gt;Node7 -->
<g id="edge7" class="edge"><title>Node6&#45;&gt;Node7</title>
<path fill="none" stroke="midnightblue" d="M250.477,-56.083C252.486,-48.8486 255.386,-38.4087 257.89,-29.3968"/>
<polygon fill="midnightblue" stroke="midnightblue" points="261.265,-30.323 260.569,-19.7511 254.52,-28.4495 261.265,-30.323"/>
</g>
</g>
</svg>
