<?xml version="1.0" encoding="UTF-8" standalone="no"?>
<!DOCTYPE svg PUBLIC "-//W3C//DTD SVG 1.1//EN"
 "http://www.w3.org/Graphics/SVG/1.1/DTD/svg11.dtd">
<!-- Generated by graphviz version 2.36.0 (20140111.2315)
 -->
<!-- Title: com&#45;between&#45;feet.hh Pages: 1 -->
<svg width="1267pt" height="344pt"
 viewBox="0.00 0.00 1267.00 344.00" xmlns="http://www.w3.org/2000/svg" xmlns:xlink="http://www.w3.org/1999/xlink">
<g id="graph0" class="graph" transform="scale(1 1) rotate(0) translate(4 340)">
<title>com&#45;between&#45;feet.hh</title>
<polygon fill="white" stroke="none" points="-4,4 -4,-340 1263,-340 1263,4 -4,4"/>
<!-- Node1 -->
<g id="node1" class="node"><title>Node1</title>
<polygon fill="#bfbfbf" stroke="black" points="272,-316.5 272,-335.5 380,-335.5 380,-316.5 272,-316.5"/>
<text text-anchor="middle" x="326" y="-323.5" font-family="Helvetica,sans-Serif" font-size="10.00">com&#45;between&#45;feet.hh</text>
</g>
<!-- Node2 -->
<g id="node2" class="node"><title>Node2</title>
<polygon fill="white" stroke="#bfbfbf" points="-1,-254.5 -1,-273.5 119,-273.5 119,-254.5 -1,-254.5"/>
<text text-anchor="middle" x="59" y="-261.5" font-family="Helvetica,sans-Serif" font-size="10.00">boost/assign/list_of.hpp</text>
</g>
<!-- Node1&#45;&gt;Node2 -->
<g id="edge1" class="edge"><title>Node1&#45;&gt;Node2</title>
<path fill="none" stroke="midnightblue" d="M288.029,-316.467C240.383,-305.76 158.645,-287.392 106.793,-275.74"/>
<polygon fill="midnightblue" stroke="midnightblue" points="107.364,-272.281 96.8401,-273.503 105.829,-279.111 107.364,-272.281"/>
</g>
<!-- Node3 -->
<g id="node3" class="node"><title>Node3</title>
<g id="a_node3"><a xlink:href="a00047.html" target="_top" xlink:title="hpp/constraints/differentiable\l&#45;function.hh">
<polygon fill="white" stroke="black" points="137,-249 137,-279 279,-279 279,-249 137,-249"/>
<text text-anchor="start" x="145" y="-267" font-family="Helvetica,sans-Serif" font-size="10.00">hpp/constraints/differentiable</text>
<text text-anchor="middle" x="208" y="-256" font-family="Helvetica,sans-Serif" font-size="10.00">&#45;function.hh</text>
</a>
</g>
</g>
<!-- Node1&#45;&gt;Node3 -->
<g id="edge2" class="edge"><title>Node1&#45;&gt;Node3</title>
<path fill="none" stroke="midnightblue" d="M309.093,-316.403C292.44,-307.936 266.45,-294.72 244.993,-283.81"/>
<polygon fill="midnightblue" stroke="midnightblue" points="246.311,-280.553 235.81,-279.141 243.138,-286.793 246.311,-280.553"/>
</g>
<!-- Node4 -->
<g id="node4" class="node"><title>Node4</title>
<g id="a_node4"><a xlink:href="a00001.html" target="_top" xlink:title="hpp/constraints/fwd.hh">
<polygon fill="white" stroke="black" points="412,-124.5 412,-143.5 528,-143.5 528,-124.5 412,-124.5"/>
<text text-anchor="middle" x="470" y="-131.5" font-family="Helvetica,sans-Serif" font-size="10.00">hpp/constraints/fwd.hh</text>
</a>
</g>
</g>
<!-- Node1&#45;&gt;Node4 -->
<g id="edge8" class="edge"><title>Node1&#45;&gt;Node4</title>
<path fill="none" stroke="midnightblue" d="M325.852,-316.295C325.9,-291.76 329.308,-221.164 365,-180 378.893,-163.977 399.501,-153.488 418.788,-146.706"/>
<polygon fill="midnightblue" stroke="midnightblue" points="419.985,-149.997 428.413,-143.577 417.821,-143.34 419.985,-149.997"/>
</g>
<!-- Node7 -->
<g id="node7" class="node"><title>Node7</title>
<polygon fill="white" stroke="#bfbfbf" points="191,-186.5 191,-205.5 317,-205.5 317,-186.5 191,-186.5"/>
<text text-anchor="middle" x="254" y="-193.5" font-family="Helvetica,sans-Serif" font-size="10.00">hpp/constraints/config.hh</text>
</g>
<!-- Node1&#45;&gt;Node7 -->
<g id="edge7" class="edge"><title>Node1&#45;&gt;Node7</title>
<path fill="none" stroke="midnightblue" d="M322.138,-316.264C315.637,-301.783 301.855,-272.018 288,-248 281.311,-236.404 272.986,-223.89 266.248,-214.16"/>
<polygon fill="midnightblue" stroke="midnightblue" points="268.991,-211.976 260.379,-205.805 263.263,-215.999 268.991,-211.976"/>
</g>
<!-- Node8 -->
<g id="node8" class="node"><title>Node8</title>
<g id="a_node8"><a xlink:href="a00062.html" target="_top" xlink:title="hpp/constraints/tools.hh">
<polygon fill="white" stroke="black" points="373.5,-186.5 373.5,-205.5 494.5,-205.5 494.5,-186.5 373.5,-186.5"/>
<text text-anchor="middle" x="434" y="-193.5" font-family="Helvetica,sans-Serif" font-size="10.00">hpp/constraints/tools.hh</text>
</a>
</g>
</g>
<!-- Node1&#45;&gt;Node8 -->
<g id="edge9" class="edge"><title>Node1&#45;&gt;Node8</title>
<path fill="none" stroke="midnightblue" d="M333.423,-316.202C351.312,-295 397.032,-240.814 420.158,-213.405"/>
<polygon fill="midnightblue" stroke="midnightblue" points="423.035,-215.422 426.809,-205.522 417.685,-210.908 423.035,-215.422"/>
</g>
<!-- Node9 -->
<g id="node9" class="node"><title>Node9</title>
<g id="a_node9"><a xlink:href="a00060.html" target="_top" xlink:title="hpp/constraints/symbolic\l&#45;calculus.hh">
<polygon fill="white" stroke="black" points="546.5,-249 546.5,-279 671.5,-279 671.5,-249 546.5,-249"/>
<text text-anchor="start" x="554.5" y="-267" font-family="Helvetica,sans-Serif" font-size="10.00">hpp/constraints/symbolic</text>
<text text-anchor="middle" x="609" y="-256" font-family="Helvetica,sans-Serif" font-size="10.00">&#45;calculus.hh</text>
</a>
</g>
</g>
<!-- Node1&#45;&gt;Node9 -->
<g id="edge11" class="edge"><title>Node1&#45;&gt;Node9</title>
<path fill="none" stroke="midnightblue" d="M366.246,-316.467C410.493,-307.086 482.479,-291.824 536.595,-280.351"/>
<polygon fill="midnightblue" stroke="midnightblue" points="537.424,-283.753 546.481,-278.255 535.973,-276.905 537.424,-283.753"/>
</g>
<!-- Node3&#45;&gt;Node4 -->
<g id="edge3" class="edge"><title>Node3&#45;&gt;Node4</title>
<path fill="none" stroke="midnightblue" d="M196.216,-248.742C182.859,-230.774 165.014,-199.847 182,-180 209.657,-147.686 325.164,-138.406 401.229,-135.844"/>
<polygon fill="midnightblue" stroke="midnightblue" points="401.798,-139.328 411.687,-135.525 401.585,-132.331 401.798,-139.328"/>
</g>
<!-- Node3&#45;&gt;Node7 -->
<g id="edge6" class="edge"><title>Node3&#45;&gt;Node7</title>
<path fill="none" stroke="midnightblue" d="M217.981,-248.679C225.012,-238.592 234.462,-225.033 241.918,-214.335"/>
<polygon fill="midnightblue" stroke="midnightblue" points="245,-216.034 247.847,-205.828 239.258,-212.031 245,-216.034"/>
</g>
<!-- Node5 -->
<g id="node5" class="node"><title>Node5</title>
<g id="a_node5"><a doxygen="https://jmirabel.github.io/hpp-doc/api/hpp-model/doxygen-html/hpp-model.doxytag:https://jmirabel.github.io/hpp-doc/api/hpp-model/doxygen-html/" xlink:href="https://jmirabel.github.io/hpp-doc/api/hpp-model/doxygen-html/a00037.html" target="_top" xlink:title="hpp/model/fwd.hh">
<polygon fill="white" stroke="black" points="793,-0.5 793,-19.5 887,-19.5 887,-0.5 793,-0.5"/>
<text text-anchor="middle" x="840" y="-7.5" font-family="Helvetica,sans-Serif" font-size="10.00">hpp/model/fwd.hh</text>
</a>
</g>
</g>
<!-- Node4&#45;&gt;Node5 -->
<g id="edge4" class="edge"><title>Node4&#45;&gt;Node5</title>
<path fill="none" stroke="midnightblue" d="M469.269,-124.268C468.447,-108.11 469.268,-73.5941 489,-56 531.234,-18.3416 694.423,-11.5786 782.632,-10.7471"/>
<polygon fill="midnightblue" stroke="midnightblue" points="782.77,-14.2463 792.744,-10.6747 782.72,-7.24651 782.77,-14.2463"/>
</g>
<!-- Node6 -->
<g id="node6" class="node"><title>Node6</title>
<polygon fill="white" stroke="#bfbfbf" points="498,-62.5 498,-81.5 646,-81.5 646,-62.5 498,-62.5"/>
<text text-anchor="middle" x="572" y="-69.5" font-family="Helvetica,sans-Serif" font-size="10.00">hpp/constraints/deprecated.hh</text>
</g>
<!-- Node4&#45;&gt;Node6 -->
<g id="edge5" class="edge"><title>Node4&#45;&gt;Node6</title>
<path fill="none" stroke="midnightblue" d="M484.614,-124.403C501.353,-114.557 529.004,-98.2915 548.719,-86.6949"/>
<polygon fill="midnightblue" stroke="midnightblue" points="550.568,-89.6676 557.413,-81.5806 547.019,-83.6341 550.568,-89.6676"/>
</g>
<!-- Node8&#45;&gt;Node4 -->
<g id="edge10" class="edge"><title>Node8&#45;&gt;Node4</title>
<path fill="none" stroke="midnightblue" d="M439.158,-186.403C444.451,-177.582 452.835,-163.608 459.527,-152.455"/>
<polygon fill="midnightblue" stroke="midnightblue" points="462.708,-153.956 464.852,-143.581 456.705,-150.355 462.708,-153.956"/>
</g>
<!-- Node9&#45;&gt;Node4 -->
<g id="edge13" class="edge"><title>Node9&#45;&gt;Node4</title>
<path fill="none" stroke="midnightblue" d="M588.66,-248.889C575.003,-239.089 556.86,-225.427 542,-212 520.46,-192.537 497.97,-167.63 483.977,-151.499"/>
<polygon fill="midnightblue" stroke="midnightblue" points="486.306,-148.839 477.138,-143.53 480.995,-153.398 486.306,-148.839"/>
</g>
<!-- Node9&#45;&gt;Node8 -->
<g id="edge29" class="edge"><title>Node9&#45;&gt;Node8</title>
<path fill="none" stroke="midnightblue" d="M571.458,-248.841C540.148,-237.033 496.003,-220.384 466.263,-209.168"/>
<polygon fill="midnightblue" stroke="midnightblue" points="467.36,-205.841 456.768,-205.587 464.89,-212.391 467.36,-205.841"/>
</g>
<!-- Node10 -->
<g id="node10" class="node"><title>Node10</title>
<polygon fill="white" stroke="#bfbfbf" points="582.5,-124.5 582.5,-143.5 647.5,-143.5 647.5,-124.5 582.5,-124.5"/>
<text text-anchor="middle" x="615" y="-131.5" font-family="Helvetica,sans-Serif" font-size="10.00">Eigen/SVD</text>
</g>
<!-- Node9&#45;&gt;Node10 -->
<g id="edge12" class="edge"><title>Node9&#45;&gt;Node10</title>
<path fill="none" stroke="midnightblue" d="M637.576,-248.952C651.607,-240.386 667.149,-227.988 675,-212 681.269,-199.234 681.36,-192.721 675,-180 668.272,-166.543 655.394,-156.067 643.288,-148.621"/>
<polygon fill="midnightblue" stroke="midnightblue" points="644.721,-145.41 634.296,-143.52 641.267,-151.498 644.721,-145.41"/>
</g>
<!-- Node11 -->
<g id="node11" class="node"><title>Node11</title>
<g id="a_node11"><a doxygen="https://jmirabel.github.io/hpp-doc/api/hpp-model/doxygen-html/hpp-model.doxytag:https://jmirabel.github.io/hpp-doc/api/hpp-model/doxygen-html/" xlink:href="https://jmirabel.github.io/hpp-doc/api/hpp-model/doxygen-html/a00041.html" target="_top" xlink:title="hpp/model/joint.hh">
<polygon fill="white" stroke="black" points="678,-124.5 678,-143.5 774,-143.5 774,-124.5 678,-124.5"/>
<text text-anchor="middle" x="726" y="-131.5" font-family="Helvetica,sans-Serif" font-size="10.00">hpp/model/joint.hh</text>
</a>
</g>
</g>
<!-- Node9&#45;&gt;Node11 -->
<g id="edge14" class="edge"><title>Node9&#45;&gt;Node11</title>
<path fill="none" stroke="midnightblue" d="M640.58,-248.975C657.299,-240.276 677.174,-227.748 691,-212 706.1,-194.801 715.787,-170.003 721.055,-153.234"/>
<polygon fill="midnightblue" stroke="midnightblue" points="724.444,-154.115 723.891,-143.534 717.725,-152.15 724.444,-154.115"/>
</g>
<!-- Node12 -->
<g id="node12" class="node"><title>Node12</title>
<g id="a_node12"><a doxygen="https://jmirabel.github.io/hpp-doc/api/hpp-model/doxygen-html/hpp-model.doxytag:https://jmirabel.github.io/hpp-doc/api/hpp-model/doxygen-html/" xlink:href="https://jmirabel.github.io/hpp-doc/api/hpp-model/doxygen-html/a00028.html" target="_top" xlink:title="hpp/model/center&#45;of\l&#45;mass&#45;computation.hh">
<polygon fill="white" stroke="black" points="761.5,-181 761.5,-211 874.5,-211 874.5,-181 761.5,-181"/>
<text text-anchor="start" x="769.5" y="-199" font-family="Helvetica,sans-Serif" font-size="10.00">hpp/model/center&#45;of</text>
<text text-anchor="middle" x="818" y="-188" font-family="Helvetica,sans-Serif" font-size="10.00">&#45;mass&#45;computation.hh</text>
</a>
</g>
</g>
<!-- Node9&#45;&gt;Node12 -->
<g id="edge16" class="edge"><title>Node9&#45;&gt;Node12</title>
<path fill="none" stroke="midnightblue" d="M653.579,-248.922C685.768,-238.757 729.413,-224.975 763.646,-214.164"/>
<polygon fill="midnightblue" stroke="midnightblue" points="765.007,-217.405 773.489,-211.056 762.899,-210.73 765.007,-217.405"/>
</g>
<!-- Node17 -->
<g id="node17" class="node"><title>Node17</title>
<g id="a_node17"><a xlink:href="a00059.html" target="_top" xlink:title="hpp/constraints/svd.hh">
<polygon fill="white" stroke="black" points="551,-186.5 551,-205.5 667,-205.5 667,-186.5 551,-186.5"/>
<text text-anchor="middle" x="609" y="-193.5" font-family="Helvetica,sans-Serif" font-size="10.00">hpp/constraints/svd.hh</text>
</a>
</g>
</g>
<!-- Node9&#45;&gt;Node17 -->
<g id="edge26" class="edge"><title>Node9&#45;&gt;Node17</title>
<path fill="none" stroke="midnightblue" d="M609,-248.679C609,-239.101 609,-226.394 609,-215.977"/>
<polygon fill="midnightblue" stroke="midnightblue" points="612.5,-215.828 609,-205.828 605.5,-215.828 612.5,-215.828"/>
</g>
<!-- Node11&#45;&gt;Node5 -->
<g id="edge15" class="edge"><title>Node11&#45;&gt;Node5</title>
<path fill="none" stroke="midnightblue" d="M732.399,-124.029C743.147,-109.209 765.831,-78.9696 788,-56 798.234,-45.3963 810.689,-34.556 820.843,-26.1726"/>
<polygon fill="midnightblue" stroke="midnightblue" points="823.175,-28.7878 828.732,-19.7676 818.763,-23.3533 823.175,-28.7878"/>
</g>
<!-- Node12&#45;&gt;Node5 -->
<g id="edge17" class="edge"><title>Node12&#45;&gt;Node5</title>
<path fill="none" stroke="midnightblue" d="M819.69,-180.867C823.611,-148.074 833.329,-66.7976 837.748,-29.8364"/>
<polygon fill="midnightblue" stroke="midnightblue" points="841.225,-30.236 838.937,-19.8912 834.274,-29.4049 841.225,-30.236"/>
</g>
<!-- Node13 -->
<g id="node13" class="node"><title>Node13</title>
<g id="a_node13"><a doxygen="https://jmirabel.github.io/hpp-doc/api/hpp-model/doxygen-html/hpp-model.doxytag:https://jmirabel.github.io/hpp-doc/api/hpp-model/doxygen-html/" xlink:href="https://jmirabel.github.io/hpp-doc/api/hpp-model/doxygen-html/a00033.html" target="_top" xlink:title="hpp/model/device.hh">
<polygon fill="white" stroke="black" points="865.5,-124.5 865.5,-143.5 972.5,-143.5 972.5,-124.5 865.5,-124.5"/>
<text text-anchor="middle" x="919" y="-131.5" font-family="Helvetica,sans-Serif" font-size="10.00">hpp/model/device.hh</text>
</a>
</g>
</g>
<!-- Node12&#45;&gt;Node13 -->
<g id="edge18" class="edge"><title>Node12&#45;&gt;Node13</title>
<path fill="none" stroke="midnightblue" d="M841.68,-180.933C857.959,-171.262 879.477,-158.479 895.678,-148.855"/>
<polygon fill="midnightblue" stroke="midnightblue" points="897.713,-151.717 904.523,-143.6 894.138,-145.698 897.713,-151.717"/>
</g>
<!-- Node13&#45;&gt;Node5 -->
<g id="edge19" class="edge"><title>Node13&#45;&gt;Node5</title>
<path fill="none" stroke="midnightblue" d="M902.264,-124.365C888.87,-116.607 870.626,-103.985 860,-88 848.321,-70.4304 843.459,-46.4136 841.436,-29.8987"/>
<polygon fill="midnightblue" stroke="midnightblue" points="844.908,-29.4422 840.441,-19.8352 837.942,-30.1311 844.908,-29.4422"/>
</g>
<!-- Node14 -->
<g id="node14" class="node"><title>Node14</title>
<g id="a_node14"><a doxygen="https://jmirabel.github.io/hpp-doc/api/hpp-model/doxygen-html/hpp-model.doxytag:https://jmirabel.github.io/hpp-doc/api/hpp-model/doxygen-html/" xlink:href="https://jmirabel.github.io/hpp-doc/api/hpp-model/doxygen-html/a00034.html" target="_top" xlink:title="hpp/model/distance\l&#45;result.hh">
<polygon fill="white" stroke="black" points="868.5,-57 868.5,-87 969.5,-87 969.5,-57 868.5,-57"/>
<text text-anchor="start" x="876.5" y="-75" font-family="Helvetica,sans-Serif" font-size="10.00">hpp/model/distance</text>
<text text-anchor="middle" x="919" y="-64" font-family="Helvetica,sans-Serif" font-size="10.00">&#45;result.hh</text>
</a>
</g>
</g>
<!-- Node13&#45;&gt;Node14 -->
<g id="edge20" class="edge"><title>Node13&#45;&gt;Node14</title>
<path fill="none" stroke="midnightblue" d="M919,-124.403C919,-117.341 919,-106.975 919,-97.399"/>
<polygon fill="midnightblue" stroke="midnightblue" points="922.5,-97.1408 919,-87.1408 915.5,-97.1408 922.5,-97.1408"/>
</g>
<!-- Node15 -->
<g id="node15" class="node"><title>Node15</title>
<g id="a_node15"><a doxygen="https://jmirabel.github.io/hpp-doc/api/hpp-model/doxygen-html/hpp-model.doxytag:https://jmirabel.github.io/hpp-doc/api/hpp-model/doxygen-html/" xlink:href="https://jmirabel.github.io/hpp-doc/api/hpp-model/doxygen-html/a00035.html" target="_top" xlink:title="hpp/model/extra&#45;config\l&#45;space.hh">
<polygon fill="white" stroke="black" points="988,-57 988,-87 1104,-87 1104,-57 988,-57"/>
<text text-anchor="start" x="996" y="-75" font-family="Helvetica,sans-Serif" font-size="10.00">hpp/model/extra&#45;config</text>
<text text-anchor="middle" x="1046" y="-64" font-family="Helvetica,sans-Serif" font-size="10.00">&#45;space.hh</text>
</a>
</g>
</g>
<!-- Node13&#45;&gt;Node15 -->
<g id="edge22" class="edge"><title>Node13&#45;&gt;Node15</title>
<path fill="none" stroke="midnightblue" d="M937.196,-124.403C955.281,-115.86 983.594,-102.483 1006.81,-91.5171"/>
<polygon fill="midnightblue" stroke="midnightblue" points="1008.52,-94.5772 1016.07,-87.1408 1005.53,-88.2479 1008.52,-94.5772"/>
</g>
<!-- Node16 -->
<g id="node16" class="node"><title>Node16</title>
<g id="a_node16"><a doxygen="https://jmirabel.github.io/hpp-doc/api/hpp-model/doxygen-html/hpp-model.doxytag:https://jmirabel.github.io/hpp-doc/api/hpp-model/doxygen-html/" xlink:href="https://jmirabel.github.io/hpp-doc/api/hpp-model/doxygen-html/a00044.html" target="_top" xlink:title="hpp/model/object&#45;iterator.hh">
<polygon fill="white" stroke="black" points="1122.5,-62.5 1122.5,-81.5 1259.5,-81.5 1259.5,-62.5 1122.5,-62.5"/>
<text text-anchor="middle" x="1191" y="-69.5" font-family="Helvetica,sans-Serif" font-size="10.00">hpp/model/object&#45;iterator.hh</text>
</a>
</g>
</g>
<!-- Node13&#45;&gt;Node16 -->
<g id="edge24" class="edge"><title>Node13&#45;&gt;Node16</title>
<path fill="none" stroke="midnightblue" d="M957.682,-124.467C1006.32,-113.738 1089.84,-95.3157 1142.64,-83.6673"/>
<polygon fill="midnightblue" stroke="midnightblue" points="1143.44,-87.0754 1152.45,-81.5034 1141.93,-80.2397 1143.44,-87.0754"/>
</g>
<!-- Node14&#45;&gt;Node5 -->
<g id="edge21" class="edge"><title>Node14&#45;&gt;Node5</title>
<path fill="none" stroke="midnightblue" d="M900.278,-56.7808C888.088,-47.5228 872.208,-35.4618 859.807,-26.0435"/>
<polygon fill="midnightblue" stroke="midnightblue" points="861.576,-22.9916 851.495,-19.7305 857.342,-28.5661 861.576,-22.9916"/>
</g>
<!-- Node15&#45;&gt;Node5 -->
<g id="edge23" class="edge"><title>Node15&#45;&gt;Node5</title>
<path fill="none" stroke="midnightblue" d="M997.702,-56.9327C961.599,-46.4171 912.863,-32.2222 879.17,-22.4087"/>
<polygon fill="midnightblue" stroke="midnightblue" points="879.807,-18.9488 869.227,-19.5127 877.849,-25.6695 879.807,-18.9488"/>
</g>
<!-- Node16&#45;&gt;Node5 -->
<g id="edge25" class="edge"><title>Node16&#45;&gt;Node5</title>
<path fill="none" stroke="midnightblue" d="M1147.16,-62.4843C1135.72,-60.3157 1123.41,-58.0265 1112,-56 1037.91,-42.8393 952.237,-28.8717 897.151,-20.0516"/>
<polygon fill="midnightblue" stroke="midnightblue" points="897.658,-16.5883 887.231,-18.466 896.553,-23.5006 897.658,-16.5883"/>
</g>
<!-- Node17&#45;&gt;Node4 -->
<g id="edge27" class="edge"><title>Node17&#45;&gt;Node4</title>
<path fill="none" stroke="midnightblue" d="M589.085,-186.403C565.551,-176.245 526.19,-159.255 499.207,-147.607"/>
<polygon fill="midnightblue" stroke="midnightblue" points="500.447,-144.33 489.878,-143.581 497.672,-150.757 500.447,-144.33"/>
</g>
<!-- Node17&#45;&gt;Node10 -->
<g id="edge28" class="edge"><title>Node17&#45;&gt;Node10</title>
<path fill="none" stroke="midnightblue" d="M609.86,-186.403C610.706,-177.938 612.027,-164.728 613.118,-153.82"/>
<polygon fill="midnightblue" stroke="midnightblue" points="616.629,-153.879 614.142,-143.581 609.664,-153.183 616.629,-153.879"/>
</g>
</g>
</svg>
