<?xml version="1.0" encoding="UTF-8" standalone="no"?>
<!DOCTYPE svg PUBLIC "-//W3C//DTD SVG 1.1//EN"
 "http://www.w3.org/Graphics/SVG/1.1/DTD/svg11.dtd">
<!-- Generated by graphviz version 2.36.0 (20140111.2315)
 -->
<!-- Title: hpp::constraints::Expression&lt; LhsValue, RhsValue &gt; Pages: 1 -->
<svg width="372pt" height="136pt"
 viewBox="0.00 0.00 372.00 136.00" xmlns="http://www.w3.org/2000/svg" xmlns:xlink="http://www.w3.org/1999/xlink">
<g id="graph0" class="graph" transform="scale(1 1) rotate(0) translate(4 132)">
<title>hpp::constraints::Expression&lt; LhsValue, RhsValue &gt;</title>
<polygon fill="white" stroke="none" points="-4,4 -4,-132 368,-132 368,4 -4,4"/>
<!-- Node1 -->
<g id="node1" class="node"><title>Node1</title>
<polygon fill="#bfbfbf" stroke="black" points="222.5,-49 222.5,-79 363.5,-79 363.5,-49 222.5,-49"/>
<text text-anchor="start" x="230.5" y="-67" font-family="Helvetica,sans-Serif" font-size="10.00">hpp::constraints::Expression</text>
<text text-anchor="middle" x="293" y="-56" font-family="Helvetica,sans-Serif" font-size="10.00">&lt; LhsValue, RhsValue &gt;</text>
</g>
<!-- Node2 -->
<g id="node2" class="node"><title>Node2</title>
<g id="a_node2"><a xlink:href="a00037.html" target="_top" xlink:title="hpp::constraints::Traits\l\&lt; RhsValue \&gt;">
<polygon fill="white" stroke="black" points="21.5,-98 21.5,-128 138.5,-128 138.5,-98 21.5,-98"/>
<text text-anchor="start" x="29.5" y="-116" font-family="Helvetica,sans-Serif" font-size="10.00">hpp::constraints::Traits</text>
<text text-anchor="middle" x="80" y="-105" font-family="Helvetica,sans-Serif" font-size="10.00">&lt; RhsValue &gt;</text>
</a>
</g>
</g>
<!-- Node2&#45;&gt;Node1 -->
<g id="edge1" class="edge"><title>Node2&#45;&gt;Node1</title>
<path fill="none" stroke="#9a32cd" stroke-dasharray="5,2" d="M148.518,-97.3204C173.767,-91.457 202.365,-84.8157 227.349,-79.0137"/>
<polygon fill="#9a32cd" stroke="#9a32cd" points="147.606,-93.9391 138.657,-99.6105 149.189,-100.758 147.606,-93.9391"/>
<text text-anchor="middle" x="191" y="-92" font-family="Helvetica,sans-Serif" font-size="10.00"> rhs_</text>
</g>
<!-- Node3 -->
<g id="node3" class="node"><title>Node3</title>
<g id="a_node3"><a xlink:href="a00037.html" target="_top" xlink:title="hpp::constraints::Traits\l\&lt; hpp::constraints::Expression \&gt;">
<polygon fill="white" stroke="black" points="0.5,-49 0.5,-79 159.5,-79 159.5,-49 0.5,-49"/>
<text text-anchor="start" x="8.5" y="-67" font-family="Helvetica,sans-Serif" font-size="10.00">hpp::constraints::Traits</text>
<text text-anchor="middle" x="80" y="-56" font-family="Helvetica,sans-Serif" font-size="10.00">&lt; hpp::constraints::Expression &gt;</text>
</a>
</g>
</g>
<!-- Node3&#45;&gt;Node1 -->
<g id="edge2" class="edge"><title>Node3&#45;&gt;Node1</title>
<path fill="none" stroke="#9a32cd" stroke-dasharray="5,2" d="M169.822,-64C187.386,-64 205.583,-64 222.399,-64"/>
<polygon fill="#9a32cd" stroke="#9a32cd" points="169.569,-60.5001 159.569,-64 169.569,-67.5001 169.569,-60.5001"/>
<text text-anchor="middle" x="191" y="-67" font-family="Helvetica,sans-Serif" font-size="10.00"> self_</text>
</g>
<!-- Node4 -->
<g id="node4" class="node"><title>Node4</title>
<g id="a_node4"><a xlink:href="a00037.html" target="_top" xlink:title="hpp::constraints::Traits\l\&lt; LhsValue \&gt;">
<polygon fill="white" stroke="black" points="21.5,-0 21.5,-30 138.5,-30 138.5,-0 21.5,-0"/>
<text text-anchor="start" x="29.5" y="-18" font-family="Helvetica,sans-Serif" font-size="10.00">hpp::constraints::Traits</text>
<text text-anchor="middle" x="80" y="-7" font-family="Helvetica,sans-Serif" font-size="10.00">&lt; LhsValue &gt;</text>
</a>
</g>
</g>
<!-- Node4&#45;&gt;Node1 -->
<g id="edge3" class="edge"><title>Node4&#45;&gt;Node1</title>
<path fill="none" stroke="#9a32cd" stroke-dasharray="5,2" d="M148.518,-30.6796C173.767,-36.543 202.365,-43.1843 227.349,-48.9863"/>
<polygon fill="#9a32cd" stroke="#9a32cd" points="149.189,-27.2423 138.657,-28.3895 147.606,-34.0609 149.189,-27.2423"/>
<text text-anchor="middle" x="191" y="-45" font-family="Helvetica,sans-Serif" font-size="10.00"> lhs_</text>
</g>
</g>
</svg>
