<?xml version="1.0" encoding="UTF-8" standalone="no"?>
<!DOCTYPE svg PUBLIC "-//W3C//DTD SVG 1.1//EN"
 "http://www.w3.org/Graphics/SVG/1.1/DTD/svg11.dtd">
<!-- Generated by graphviz version 2.36.0 (20140111.2315)
 -->
<!-- Title: transformation.hh Pages: 1 -->
<svg width="637pt" height="264pt"
 viewBox="0.00 0.00 636.92 264.00" xmlns="http://www.w3.org/2000/svg" xmlns:xlink="http://www.w3.org/1999/xlink">
<g id="graph0" class="graph" transform="scale(1 1) rotate(0) translate(4 260)">
<title>transformation.hh</title>
<polygon fill="white" stroke="none" points="-4,4 -4,-260 632.918,-260 632.918,4 -4,4"/>
<!-- Node1 -->
<g id="node1" class="node"><title>Node1</title>
<polygon fill="#bfbfbf" stroke="black" points="240.918,-236.5 240.918,-255.5 332.918,-255.5 332.918,-236.5 240.918,-236.5"/>
<text text-anchor="middle" x="286.918" y="-243.5" font-family="Helvetica,sans-Serif" font-size="10.00">transformation.hh</text>
</g>
<!-- Node2 -->
<g id="node2" class="node"><title>Node2</title>
<polygon fill="white" stroke="#bfbfbf" points="93.9183,-118.5 93.9183,-137.5 213.918,-137.5 213.918,-118.5 93.9183,-118.5"/>
<text text-anchor="middle" x="153.918" y="-125.5" font-family="Helvetica,sans-Serif" font-size="10.00">boost/assign/list_of.hpp</text>
</g>
<!-- Node1&#45;&gt;Node2 -->
<g id="edge1" class="edge"><title>Node1&#45;&gt;Node2</title>
<path fill="none" stroke="midnightblue" d="M268.517,-236.473C252.327,-228.443 228.642,-215.372 210.918,-200 192.525,-184.047 175.63,-161.587 165.089,-146.227"/>
<polygon fill="midnightblue" stroke="midnightblue" points="167.858,-144.07 159.391,-137.701 162.038,-147.96 167.858,-144.07"/>
</g>
<!-- Node3 -->
<g id="node3" class="node"><title>Node3</title>
<polygon fill="white" stroke="#bfbfbf" points="506.418,-180.5 506.418,-199.5 629.418,-199.5 629.418,-180.5 506.418,-180.5"/>
<text text-anchor="middle" x="567.918" y="-187.5" font-family="Helvetica,sans-Serif" font-size="10.00">hpp/fcl/math/transform.h</text>
</g>
<!-- Node1&#45;&gt;Node3 -->
<g id="edge2" class="edge"><title>Node1&#45;&gt;Node3</title>
<path fill="none" stroke="midnightblue" d="M331.444,-236.444C380.874,-226.944 460.665,-211.611 513.696,-201.42"/>
<polygon fill="midnightblue" stroke="midnightblue" points="514.442,-204.841 523.601,-199.516 513.12,-197.967 514.442,-204.841"/>
</g>
<!-- Node4 -->
<g id="node4" class="node"><title>Node4</title>
<g id="a_node4"><a xlink:href="a00047.html" target="_top" xlink:title="hpp/constraints/differentiable\l&#45;function.hh">
<polygon fill="white" stroke="black" points="269.918,-113 269.918,-143 411.918,-143 411.918,-113 269.918,-113"/>
<text text-anchor="start" x="277.918" y="-131" font-family="Helvetica,sans-Serif" font-size="10.00">hpp/constraints/differentiable</text>
<text text-anchor="middle" x="340.918" y="-120" font-family="Helvetica,sans-Serif" font-size="10.00">&#45;function.hh</text>
</a>
</g>
</g>
<!-- Node1&#45;&gt;Node4 -->
<g id="edge3" class="edge"><title>Node1&#45;&gt;Node4</title>
<path fill="none" stroke="midnightblue" d="M314.933,-236.397C332.092,-229.515 352.667,-217.984 362.918,-200 371.463,-185.01 365.08,-166.309 357.032,-151.864"/>
<polygon fill="midnightblue" stroke="midnightblue" points="359.852,-149.766 351.643,-143.067 353.883,-153.423 359.852,-149.766"/>
</g>
<!-- Node5 -->
<g id="node5" class="node"><title>Node5</title>
<g id="a_node5"><a xlink:href="a00001.html" target="_top" xlink:title="hpp/constraints/fwd.hh">
<polygon fill="white" stroke="black" points="76.9183,-56.5 76.9183,-75.5 192.918,-75.5 192.918,-56.5 76.9183,-56.5"/>
<text text-anchor="middle" x="134.918" y="-63.5" font-family="Helvetica,sans-Serif" font-size="10.00">hpp/constraints/fwd.hh</text>
</a>
</g>
</g>
<!-- Node1&#45;&gt;Node5 -->
<g id="edge19" class="edge"><title>Node1&#45;&gt;Node5</title>
<path fill="none" stroke="midnightblue" d="M240.816,-244.468C169.645,-242.559 38.152,-234.346 8.91827,-200 -13.2854,-173.913 9.74742,-145.625 43.9183,-112 58.8637,-97.2933 79.5711,-86.5371 97.4574,-79.2359"/>
<polygon fill="midnightblue" stroke="midnightblue" points="98.9816,-82.3993 107.049,-75.5319 96.46,-75.8692 98.9816,-82.3993"/>
</g>
<!-- Node8 -->
<g id="node8" class="node"><title>Node8</title>
<polygon fill="white" stroke="#bfbfbf" points="326.918,-56.5 326.918,-75.5 452.918,-75.5 452.918,-56.5 326.918,-56.5"/>
<text text-anchor="middle" x="389.918" y="-63.5" font-family="Helvetica,sans-Serif" font-size="10.00">hpp/constraints/config.hh</text>
</g>
<!-- Node1&#45;&gt;Node8 -->
<g id="edge18" class="edge"><title>Node1&#45;&gt;Node8</title>
<path fill="none" stroke="midnightblue" d="M315.765,-236.392C353.02,-223.422 415.608,-194.81 436.918,-144 442.419,-130.885 442.503,-125.08 436.918,-112 431.772,-99.9469 421.637,-89.5764 412.092,-81.8389"/>
<polygon fill="midnightblue" stroke="midnightblue" points="414.09,-78.9619 403.997,-75.7409 409.878,-84.5532 414.09,-78.9619"/>
</g>
<!-- Node9 -->
<g id="node9" class="node"><title>Node9</title>
<g id="a_node9"><a xlink:href="a00053.html" target="_top" xlink:title="hpp/constraints/orientation.hh">
<polygon fill="white" stroke="black" points="18.4183,-180.5 18.4183,-199.5 163.418,-199.5 163.418,-180.5 18.4183,-180.5"/>
<text text-anchor="middle" x="90.9183" y="-187.5" font-family="Helvetica,sans-Serif" font-size="10.00">hpp/constraints/orientation.hh</text>
</a>
</g>
</g>
<!-- Node1&#45;&gt;Node9 -->
<g id="edge8" class="edge"><title>Node1&#45;&gt;Node9</title>
<path fill="none" stroke="midnightblue" d="M255.861,-236.444C222.315,-227.201 168.721,-212.436 131.778,-202.257"/>
<polygon fill="midnightblue" stroke="midnightblue" points="132.4,-198.798 121.83,-199.516 130.541,-205.547 132.4,-198.798"/>
</g>
<!-- Node10 -->
<g id="node10" class="node"><title>Node10</title>
<g id="a_node10"><a xlink:href="a00054.html" target="_top" xlink:title="hpp/constraints/position.hh">
<polygon fill="white" stroke="black" points="219.918,-180.5 219.918,-199.5 353.918,-199.5 353.918,-180.5 219.918,-180.5"/>
<text text-anchor="middle" x="286.918" y="-187.5" font-family="Helvetica,sans-Serif" font-size="10.00">hpp/constraints/position.hh</text>
</a>
</g>
</g>
<!-- Node1&#45;&gt;Node10 -->
<g id="edge13" class="edge"><title>Node1&#45;&gt;Node10</title>
<path fill="none" stroke="midnightblue" d="M286.918,-236.083C286.918,-229.006 286.918,-218.861 286.918,-209.986"/>
<polygon fill="midnightblue" stroke="midnightblue" points="290.418,-209.751 286.918,-199.751 283.418,-209.751 290.418,-209.751"/>
</g>
<!-- Node4&#45;&gt;Node5 -->
<g id="edge4" class="edge"><title>Node4&#45;&gt;Node5</title>
<path fill="none" stroke="midnightblue" d="M292.62,-112.933C256.517,-102.417 207.781,-88.2222 174.088,-78.4087"/>
<polygon fill="midnightblue" stroke="midnightblue" points="174.725,-74.9488 164.145,-75.5127 172.767,-81.6695 174.725,-74.9488"/>
</g>
<!-- Node4&#45;&gt;Node8 -->
<g id="edge7" class="edge"><title>Node4&#45;&gt;Node8</title>
<path fill="none" stroke="midnightblue" d="M352.531,-112.781C359.651,-104.062 368.801,-92.8574 376.267,-83.7153"/>
<polygon fill="midnightblue" stroke="midnightblue" points="379.174,-85.6898 382.788,-75.7305 373.752,-81.262 379.174,-85.6898"/>
</g>
<!-- Node6 -->
<g id="node6" class="node"><title>Node6</title>
<g id="a_node6"><a doxygen="https://jmirabel.github.io/hpp-doc/api/hpp-model/doxygen-html/hpp-model.doxytag:https://jmirabel.github.io/hpp-doc/api/hpp-model/doxygen-html/" xlink:href="https://jmirabel.github.io/hpp-doc/api/hpp-model/doxygen-html/a00037.html" target="_top" xlink:title="hpp/model/fwd.hh">
<polygon fill="white" stroke="black" points="18.9183,-0.5 18.9183,-19.5 112.918,-19.5 112.918,-0.5 18.9183,-0.5"/>
<text text-anchor="middle" x="65.9183" y="-7.5" font-family="Helvetica,sans-Serif" font-size="10.00">hpp/model/fwd.hh</text>
</a>
</g>
</g>
<!-- Node5&#45;&gt;Node6 -->
<g id="edge5" class="edge"><title>Node5&#45;&gt;Node6</title>
<path fill="none" stroke="midnightblue" d="M123.832,-56.324C113.432,-48.1849 97.6576,-35.8395 85.1967,-26.0874"/>
<polygon fill="midnightblue" stroke="midnightblue" points="87.2382,-23.2407 77.206,-19.8339 82.924,-28.7533 87.2382,-23.2407"/>
</g>
<!-- Node7 -->
<g id="node7" class="node"><title>Node7</title>
<polygon fill="white" stroke="#bfbfbf" points="130.918,-0.5 130.918,-19.5 278.918,-19.5 278.918,-0.5 130.918,-0.5"/>
<text text-anchor="middle" x="204.918" y="-7.5" font-family="Helvetica,sans-Serif" font-size="10.00">hpp/constraints/deprecated.hh</text>
</g>
<!-- Node5&#45;&gt;Node7 -->
<g id="edge6" class="edge"><title>Node5&#45;&gt;Node7</title>
<path fill="none" stroke="midnightblue" d="M146.165,-56.324C156.716,-48.1849 172.719,-35.8395 185.36,-26.0874"/>
<polygon fill="midnightblue" stroke="midnightblue" points="187.687,-28.7132 193.467,-19.8339 183.411,-23.1707 187.687,-28.7132"/>
</g>
<!-- Node9&#45;&gt;Node2 -->
<g id="edge9" class="edge"><title>Node9&#45;&gt;Node2</title>
<path fill="none" stroke="midnightblue" d="M99.9446,-180.403C109.675,-171.136 125.376,-156.183 137.341,-144.788"/>
<polygon fill="midnightblue" stroke="midnightblue" points="140.081,-147.012 144.909,-137.581 135.253,-141.943 140.081,-147.012"/>
</g>
<!-- Node9&#45;&gt;Node4 -->
<g id="edge10" class="edge"><title>Node9&#45;&gt;Node4</title>
<path fill="none" stroke="midnightblue" d="M126.472,-180.467C164.354,-171.376 225.252,-156.76 272.49,-145.423"/>
<polygon fill="midnightblue" stroke="midnightblue" points="273.442,-148.794 282.349,-143.057 271.809,-141.987 273.442,-148.794"/>
</g>
<!-- Node9&#45;&gt;Node5 -->
<g id="edge12" class="edge"><title>Node9&#45;&gt;Node5</title>
<path fill="none" stroke="midnightblue" d="M79.9281,-180.365C70.4657,-172.171 57.4827,-158.917 51.9183,-144 46.9475,-130.675 44.6428,-124.22 51.9183,-112 61.0147,-96.7208 77.3067,-86.3102 93.0621,-79.3857"/>
<polygon fill="midnightblue" stroke="midnightblue" points="94.7517,-82.4794 102.734,-75.5124 92.1492,-75.9811 94.7517,-82.4794"/>
</g>
<!-- Node9&#45;&gt;Node8 -->
<g id="edge11" class="edge"><title>Node9&#45;&gt;Node8</title>
<path fill="none" stroke="midnightblue" d="M86.7175,-180.378C79.7597,-164.707 68.1827,-131.386 84.9183,-112 99.8749,-94.6748 231.005,-80.4121 316.389,-72.8539"/>
<polygon fill="midnightblue" stroke="midnightblue" points="316.906,-76.3222 326.564,-71.9657 316.297,-69.3487 316.906,-76.3222"/>
</g>
<!-- Node10&#45;&gt;Node2 -->
<g id="edge14" class="edge"><title>Node10&#45;&gt;Node2</title>
<path fill="none" stroke="midnightblue" d="M267.863,-180.403C245.443,-170.29 208.013,-153.404 182.205,-141.761"/>
<polygon fill="midnightblue" stroke="midnightblue" points="183.493,-138.502 172.939,-137.581 180.615,-144.883 183.493,-138.502"/>
</g>
<!-- Node10&#45;&gt;Node4 -->
<g id="edge15" class="edge"><title>Node10&#45;&gt;Node4</title>
<path fill="none" stroke="midnightblue" d="M294.655,-180.403C301.627,-172.657 312.174,-160.938 321.438,-150.645"/>
<polygon fill="midnightblue" stroke="midnightblue" points="324.103,-152.915 328.192,-143.141 318.9,-148.232 324.103,-152.915"/>
</g>
<!-- Node10&#45;&gt;Node5 -->
<g id="edge17" class="edge"><title>Node10&#45;&gt;Node5</title>
<path fill="none" stroke="midnightblue" d="M281.365,-180.419C271.119,-165.105 247.899,-132.733 221.918,-112 205.096,-98.5758 183.643,-87.4263 166.249,-79.5834"/>
<polygon fill="midnightblue" stroke="midnightblue" points="167.624,-76.3648 157.059,-75.573 164.825,-82.7805 167.624,-76.3648"/>
</g>
<!-- Node10&#45;&gt;Node8 -->
<g id="edge16" class="edge"><title>Node10&#45;&gt;Node8</title>
<path fill="none" stroke="midnightblue" d="M353.979,-182.846C379.178,-176.89 405.445,-165.518 420.918,-144 434.387,-125.269 418.886,-99.8521 405.382,-83.4369"/>
<polygon fill="midnightblue" stroke="midnightblue" points="407.883,-80.9805 398.666,-75.7565 402.614,-85.5883 407.883,-80.9805"/>
</g>
</g>
</svg>
