<?xml version="1.0" encoding="UTF-8" standalone="no"?>
<!DOCTYPE svg PUBLIC "-//W3C//DTD SVG 1.1//EN"
 "http://www.w3.org/Graphics/SVG/1.1/DTD/svg11.dtd">
<!-- Generated by graphviz version 2.36.0 (20140111.2315)
 -->
<!-- Title: hpp::constraints::ConvexShapeContact::ForceData Pages: 1 -->
<svg width="268pt" height="186pt"
 viewBox="0.00 0.00 268.00 186.00" xmlns="http://www.w3.org/2000/svg" xmlns:xlink="http://www.w3.org/1999/xlink">
<g id="graph0" class="graph" transform="scale(1 1) rotate(0) translate(4 182)">
<title>hpp::constraints::ConvexShapeContact::ForceData</title>
<polygon fill="white" stroke="none" points="-4,4 -4,-182 264,-182 264,4 -4,4"/>
<!-- Node1 -->
<g id="node1" class="node"><title>Node1</title>
<polygon fill="#bfbfbf" stroke="black" points="39.5,-1 39.5,-31 170.5,-31 170.5,-1 39.5,-1"/>
<text text-anchor="start" x="47.5" y="-19" font-family="Helvetica,sans-Serif" font-size="10.00">hpp::constraints::Convex</text>
<text text-anchor="middle" x="105" y="-8" font-family="Helvetica,sans-Serif" font-size="10.00">ShapeContact::ForceData</text>
</g>
<!-- Node2 -->
<g id="node2" class="node"><title>Node2</title>
<polygon fill="white" stroke="#bfbfbf" points="0,-90.5 0,-109.5 122,-109.5 122,-90.5 0,-90.5"/>
<text text-anchor="middle" x="61" y="-97.5" font-family="Helvetica,sans-Serif" font-size="10.00">std::vector&lt; vector3_t &gt;</text>
</g>
<!-- Node2&#45;&gt;Node1 -->
<g id="edge1" class="edge"><title>Node2&#45;&gt;Node1</title>
<path fill="none" stroke="#9a32cd" stroke-dasharray="5,2" d="M70.6668,-80.9845C78.7034,-66.0073 89.9837,-44.985 97.3892,-31.1839"/>
<polygon fill="#9a32cd" stroke="#9a32cd" points="67.3529,-79.7581 65.7088,-90.2246 73.5211,-83.0678 67.3529,-79.7581"/>
<text text-anchor="middle" x="101" y="-58.5" font-family="Helvetica,sans-Serif" font-size="10.00"> points</text>
</g>
<!-- Node3 -->
<g id="node3" class="node"><title>Node3</title>
<g id="a_node3"><a doxygen="https://jmirabel.github.io/hpp-doc/api/hpp-model/doxygen-html/hpp-model.doxytag:https://jmirabel.github.io/hpp-doc/api/hpp-model/doxygen-html/" xlink:href="https://jmirabel.github.io/hpp-doc/api/hpp-model/doxygen-html/a00013.html" target="_top" xlink:title="hpp::model::Joint">
<polygon fill="white" stroke="black" points="140,-90.5 140,-109.5 232,-109.5 232,-90.5 140,-90.5"/>
<text text-anchor="middle" x="186" y="-97.5" font-family="Helvetica,sans-Serif" font-size="10.00">hpp::model::Joint</text>
</a>
</g>
</g>
<!-- Node3&#45;&gt;Node1 -->
<g id="edge2" class="edge"><title>Node3&#45;&gt;Node1</title>
<path fill="none" stroke="#9a32cd" stroke-dasharray="5,2" d="M170.295,-83.1013C155.423,-68.0454 133.299,-45.6485 119.011,-31.1839"/>
<polygon fill="#9a32cd" stroke="#9a32cd" points="167.814,-85.5699 177.332,-90.2246 172.794,-80.6506 167.814,-85.5699"/>
<text text-anchor="middle" x="184" y="-64" font-family="Helvetica,sans-Serif" font-size="10.00"> joint</text>
<text text-anchor="middle" x="184" y="-53" font-family="Helvetica,sans-Serif" font-size="10.00">supportJoint</text>
</g>
<!-- Node4 -->
<g id="node4" class="node"><title>Node4</title>
<g id="a_node4"><a doxygen="https://jmirabel.github.io/hpp-doc/api/hpp-model/doxygen-html/hpp-model.doxytag:https://jmirabel.github.io/hpp-doc/api/hpp-model/doxygen-html/" xlink:href="https://jmirabel.github.io/hpp-doc/api/hpp-model/doxygen-html/a00015.html" target="_top" xlink:title="hpp::model::JointConfiguration">
<polygon fill="white" stroke="black" points="111.5,-158.5 111.5,-177.5 260.5,-177.5 260.5,-158.5 111.5,-158.5"/>
<text text-anchor="middle" x="186" y="-165.5" font-family="Helvetica,sans-Serif" font-size="10.00">hpp::model::JointConfiguration</text>
</a>
</g>
</g>
<!-- Node4&#45;&gt;Node3 -->
<g id="edge3" class="edge"><title>Node4&#45;&gt;Node3</title>
<path fill="none" stroke="#9a32cd" stroke-dasharray="5,2" d="M186,-148.041C186,-135.472 186,-119.563 186,-109.841"/>
<polygon fill="#9a32cd" stroke="#9a32cd" points="182.5,-148.372 186,-158.372 189.5,-148.372 182.5,-148.372"/>
<text text-anchor="middle" x="218" y="-131.5" font-family="Helvetica,sans-Serif" font-size="10.00"> configuration_</text>
</g>
</g>
</svg>
