<?xml version="1.0" encoding="UTF-8" standalone="no"?>
<!DOCTYPE svg PUBLIC "-//W3C//DTD SVG 1.1//EN"
 "http://www.w3.org/Graphics/SVG/1.1/DTD/svg11.dtd">
<!-- Generated by graphviz version 2.36.0 (20140111.2315)
 -->
<!-- Title: hpp::constraints::MatrixOfExpressions&lt; ValueType, JacobianType &gt; Pages: 1 -->
<svg width="636pt" height="143pt"
 viewBox="0.00 0.00 636.00 143.00" xmlns="http://www.w3.org/2000/svg" xmlns:xlink="http://www.w3.org/1999/xlink">
<g id="graph0" class="graph" transform="scale(1 1) rotate(0) translate(4 139)">
<title>hpp::constraints::MatrixOfExpressions&lt; ValueType, JacobianType &gt;</title>
<polygon fill="white" stroke="none" points="-4,4 -4,-139 632,-139 632,4 -4,4"/>
<!-- Node1 -->
<g id="node1" class="node"><title>Node1</title>
<polygon fill="#bfbfbf" stroke="black" points="488,-19.5 488,-60.5 628,-60.5 628,-19.5 488,-19.5"/>
<text text-anchor="start" x="496" y="-48.5" font-family="Helvetica,sans-Serif" font-size="10.00">hpp::constraints::Matrix</text>
<text text-anchor="start" x="496" y="-37.5" font-family="Helvetica,sans-Serif" font-size="10.00">OfExpressions&lt; ValueType,</text>
<text text-anchor="middle" x="558" y="-26.5" font-family="Helvetica,sans-Serif" font-size="10.00"> JacobianType &gt;</text>
</g>
<!-- Node2 -->
<g id="node2" class="node"><title>Node2</title>
<g id="a_node2"><a xlink:href="a00002.html" target="_top" xlink:title="hpp::constraints::Calculus\lBase\&lt; MatrixOfExpressions\l\&lt; ValueType, JacobianType\l \&gt;, Eigen::Matrix\&lt; value_type,\l Eigen::Dynamic, Eigen::Dynamic\l \&gt;, Eigen::Matrix\&lt; value_type,\l Eigen::Dynamic, Eigen::Dynamic \&gt; \&gt;">
<polygon fill="white" stroke="black" points="218.5,-49.5 218.5,-134.5 401.5,-134.5 401.5,-49.5 218.5,-49.5"/>
<text text-anchor="start" x="226.5" y="-122.5" font-family="Helvetica,sans-Serif" font-size="10.00">hpp::constraints::Calculus</text>
<text text-anchor="start" x="226.5" y="-111.5" font-family="Helvetica,sans-Serif" font-size="10.00">Base&lt; MatrixOfExpressions</text>
<text text-anchor="start" x="226.5" y="-100.5" font-family="Helvetica,sans-Serif" font-size="10.00">&lt; ValueType, JacobianType</text>
<text text-anchor="start" x="226.5" y="-89.5" font-family="Helvetica,sans-Serif" font-size="10.00"> &gt;, Eigen::Matrix&lt; value_type,</text>
<text text-anchor="start" x="226.5" y="-78.5" font-family="Helvetica,sans-Serif" font-size="10.00"> Eigen::Dynamic, Eigen::Dynamic</text>
<text text-anchor="start" x="226.5" y="-67.5" font-family="Helvetica,sans-Serif" font-size="10.00"> &gt;, Eigen::Matrix&lt; value_type,</text>
<text text-anchor="middle" x="310" y="-56.5" font-family="Helvetica,sans-Serif" font-size="10.00"> Eigen::Dynamic, Eigen::Dynamic &gt; &gt;</text>
</a>
</g>
</g>
<!-- Node2&#45;&gt;Node1 -->
<g id="edge1" class="edge"><title>Node2&#45;&gt;Node1</title>
<path fill="none" stroke="midnightblue" d="M411.663,-70.7215C437.256,-65.3118 464.183,-59.6199 487.81,-54.6254"/>
<polygon fill="midnightblue" stroke="midnightblue" points="410.613,-67.3661 401.553,-72.8587 412.061,-74.2148 410.613,-67.3661"/>
</g>
<!-- Node3 -->
<g id="node3" class="node"><title>Node3</title>
<g id="a_node3"><a xlink:href="a00003.html" target="_top" xlink:title="hpp::constraints::Calculus\lBaseAbstract\&lt; Eigen::Matrix\l\&lt; value_type, Eigen::Dynamic,\l Eigen::Dynamic \&gt;, Eigen::Matrix\l\&lt; value_type, Eigen::Dynamic, Eigen\l::Dynamic \&gt; \&gt;">
<polygon fill="white" stroke="black" points="0.5,-55 0.5,-129 179.5,-129 179.5,-55 0.5,-55"/>
<text text-anchor="start" x="8.5" y="-117" font-family="Helvetica,sans-Serif" font-size="10.00">hpp::constraints::Calculus</text>
<text text-anchor="start" x="8.5" y="-106" font-family="Helvetica,sans-Serif" font-size="10.00">BaseAbstract&lt; Eigen::Matrix</text>
<text text-anchor="start" x="8.5" y="-95" font-family="Helvetica,sans-Serif" font-size="10.00">&lt; value_type, Eigen::Dynamic,</text>
<text text-anchor="start" x="8.5" y="-84" font-family="Helvetica,sans-Serif" font-size="10.00"> Eigen::Dynamic &gt;, Eigen::Matrix</text>
<text text-anchor="start" x="8.5" y="-73" font-family="Helvetica,sans-Serif" font-size="10.00">&lt; value_type, Eigen::Dynamic, Eigen</text>
<text text-anchor="middle" x="90" y="-62" font-family="Helvetica,sans-Serif" font-size="10.00">::Dynamic &gt; &gt;</text>
</a>
</g>
</g>
<!-- Node3&#45;&gt;Node2 -->
<g id="edge2" class="edge"><title>Node3&#45;&gt;Node2</title>
<path fill="none" stroke="midnightblue" d="M189.882,-92C199.343,-92 208.907,-92 218.285,-92"/>
<polygon fill="midnightblue" stroke="midnightblue" points="189.669,-88.5001 179.669,-92 189.669,-95.5001 189.669,-88.5001"/>
</g>
<!-- Node4 -->
<g id="node4" class="node"><title>Node4</title>
<polygon fill="white" stroke="#bfbfbf" points="250.5,-0 250.5,-30 369.5,-30 369.5,-0 250.5,-0"/>
<text text-anchor="start" x="258.5" y="-18" font-family="Helvetica,sans-Serif" font-size="10.00">std::vector&lt; std::vector</text>
<text text-anchor="middle" x="310" y="-7" font-family="Helvetica,sans-Serif" font-size="10.00">&lt; ElementPtr_t &gt; &gt;</text>
</g>
<!-- Node4&#45;&gt;Node1 -->
<g id="edge3" class="edge"><title>Node4&#45;&gt;Node1</title>
<path fill="none" stroke="#9a32cd" stroke-dasharray="5,2" d="M379.851,-21.9971C413.599,-25.4268 454.143,-29.547 487.922,-32.9799"/>
<polygon fill="#9a32cd" stroke="#9a32cd" points="379.913,-18.4854 369.611,-20.9564 379.205,-25.4496 379.913,-18.4854"/>
<text text-anchor="middle" x="445" y="-34" font-family="Helvetica,sans-Serif" font-size="10.00"> elements_</text>
</g>
</g>
</svg>
