<?xml version="1.0" encoding="UTF-8" standalone="no"?>
<!DOCTYPE svg PUBLIC "-//W3C//DTD SVG 1.1//EN"
 "http://www.w3.org/Graphics/SVG/1.1/DTD/svg11.dtd">
<!-- Generated by graphviz version 2.36.0 (20140111.2315)
 -->
<!-- Title: hpp::constraints::ScalarProduct&lt; LhsValue, RhsValue &gt; Pages: 1 -->
<svg width="564pt" height="60pt"
 viewBox="0.00 0.00 564.00 60.00" xmlns="http://www.w3.org/2000/svg" xmlns:xlink="http://www.w3.org/1999/xlink">
<g id="graph0" class="graph" transform="scale(1 1) rotate(0) translate(4 56)">
<title>hpp::constraints::ScalarProduct&lt; LhsValue, RhsValue &gt;</title>
<polygon fill="white" stroke="none" points="-4,4 -4,-56 560,-56 560,4 -4,4"/>
<!-- Node1 -->
<g id="node1" class="node"><title>Node1</title>
<polygon fill="#bfbfbf" stroke="black" points="398,-11 398,-41 556,-41 556,-11 398,-11"/>
<text text-anchor="start" x="406" y="-29" font-family="Helvetica,sans-Serif" font-size="10.00">hpp::constraints::Scalar</text>
<text text-anchor="middle" x="477" y="-18" font-family="Helvetica,sans-Serif" font-size="10.00">Product&lt; LhsValue, RhsValue &gt;</text>
</g>
<!-- Node2 -->
<g id="node2" class="node"><title>Node2</title>
<g id="a_node2"><a xlink:href="a00002.html" target="_top" xlink:title="hpp::constraints::Calculus\lBase\&lt; ScalarProduct\&lt; LhsValue,\l RhsValue \&gt;, value_type, RowJacobian\lMatrix \&gt;">
<polygon fill="white" stroke="black" points="172,-0 172,-52 362,-52 362,-0 172,-0"/>
<text text-anchor="start" x="180" y="-40" font-family="Helvetica,sans-Serif" font-size="10.00">hpp::constraints::Calculus</text>
<text text-anchor="start" x="180" y="-29" font-family="Helvetica,sans-Serif" font-size="10.00">Base&lt; ScalarProduct&lt; LhsValue,</text>
<text text-anchor="start" x="180" y="-18" font-family="Helvetica,sans-Serif" font-size="10.00"> RhsValue &gt;, value_type, RowJacobian</text>
<text text-anchor="middle" x="267" y="-7" font-family="Helvetica,sans-Serif" font-size="10.00">Matrix &gt;</text>
</a>
</g>
</g>
<!-- Node2&#45;&gt;Node1 -->
<g id="edge1" class="edge"><title>Node2&#45;&gt;Node1</title>
<path fill="none" stroke="midnightblue" d="M372.356,-26C380.966,-26 389.572,-26 397.938,-26"/>
<polygon fill="midnightblue" stroke="midnightblue" points="372.263,-22.5001 362.263,-26 372.263,-29.5001 372.263,-22.5001"/>
</g>
<!-- Node3 -->
<g id="node3" class="node"><title>Node3</title>
<g id="a_node3"><a xlink:href="a00003.html" target="_top" xlink:title="hpp::constraints::Calculus\lBaseAbstract\&lt; value_type,\l RowJacobianMatrix \&gt;">
<polygon fill="white" stroke="black" points="0.5,-5.5 0.5,-46.5 135.5,-46.5 135.5,-5.5 0.5,-5.5"/>
<text text-anchor="start" x="8.5" y="-34.5" font-family="Helvetica,sans-Serif" font-size="10.00">hpp::constraints::Calculus</text>
<text text-anchor="start" x="8.5" y="-23.5" font-family="Helvetica,sans-Serif" font-size="10.00">BaseAbstract&lt; value_type,</text>
<text text-anchor="middle" x="68" y="-12.5" font-family="Helvetica,sans-Serif" font-size="10.00"> RowJacobianMatrix &gt;</text>
</a>
</g>
</g>
<!-- Node3&#45;&gt;Node2 -->
<g id="edge2" class="edge"><title>Node3&#45;&gt;Node2</title>
<path fill="none" stroke="midnightblue" d="M145.91,-26C154.39,-26 163.095,-26 171.755,-26"/>
<polygon fill="midnightblue" stroke="midnightblue" points="145.695,-22.5001 135.695,-26 145.695,-29.5001 145.695,-22.5001"/>
</g>
</g>
</svg>
