<?xml version="1.0" encoding="UTF-8" standalone="no"?>
<!DOCTYPE svg PUBLIC "-//W3C//DTD SVG 1.1//EN"
 "http://www.w3.org/Graphics/SVG/1.1/DTD/svg11.dtd">
<!-- Generated by graphviz version 2.36.0 (20140111.2315)
 -->
<!-- Title: symbolic&#45;function.hh Pages: 1 -->
<svg width="1194pt" height="344pt"
 viewBox="0.00 0.00 1193.91 344.00" xmlns="http://www.w3.org/2000/svg" xmlns:xlink="http://www.w3.org/1999/xlink">
<g id="graph0" class="graph" transform="scale(1 1) rotate(0) translate(4 340)">
<title>symbolic&#45;function.hh</title>
<polygon fill="white" stroke="none" points="-4,4 -4,-340 1189.91,-340 1189.91,4 -4,4"/>
<!-- Node1 -->
<g id="node1" class="node"><title>Node1</title>
<polygon fill="#bfbfbf" stroke="black" points="714.41,-316.5 714.41,-335.5 821.41,-335.5 821.41,-316.5 714.41,-316.5"/>
<text text-anchor="middle" x="767.91" y="-323.5" font-family="Helvetica,sans-Serif" font-size="10.00">symbolic&#45;function.hh</text>
</g>
<!-- Node2 -->
<g id="node2" class="node"><title>Node2</title>
<polygon fill="white" stroke="#bfbfbf" points="48.9095,-254.5 48.9095,-273.5 168.91,-273.5 168.91,-254.5 48.9095,-254.5"/>
<text text-anchor="middle" x="108.91" y="-261.5" font-family="Helvetica,sans-Serif" font-size="10.00">boost/assign/list_of.hpp</text>
</g>
<!-- Node1&#45;&gt;Node2 -->
<g id="edge1" class="edge"><title>Node1&#45;&gt;Node2</title>
<path fill="none" stroke="midnightblue" d="M714.036,-323.076C610.64,-318.894 377.373,-307.083 182.91,-280 174.324,-278.804 165.237,-277.226 156.48,-275.541"/>
<polygon fill="midnightblue" stroke="midnightblue" points="156.892,-272.055 146.401,-273.532 155.524,-278.92 156.892,-272.055"/>
</g>
<!-- Node3 -->
<g id="node3" class="node"><title>Node3</title>
<g id="a_node3"><a xlink:href="a00001.html" target="_top" xlink:title="hpp/constraints/fwd.hh">
<polygon fill="white" stroke="black" points="820.91,-124.5 820.91,-143.5 936.91,-143.5 936.91,-124.5 820.91,-124.5"/>
<text text-anchor="middle" x="878.91" y="-131.5" font-family="Helvetica,sans-Serif" font-size="10.00">hpp/constraints/fwd.hh</text>
</a>
</g>
</g>
<!-- Node1&#45;&gt;Node3 -->
<g id="edge2" class="edge"><title>Node1&#45;&gt;Node3</title>
<path fill="none" stroke="midnightblue" d="M786.278,-316.337C817.185,-300.6 878.594,-264.063 902.91,-212 912.123,-192.274 901.291,-168.105 891.365,-152.167"/>
<polygon fill="midnightblue" stroke="midnightblue" points="894.255,-150.193 885.784,-143.83 888.438,-154.087 894.255,-150.193"/>
</g>
<!-- Node6 -->
<g id="node6" class="node"><title>Node6</title>
<polygon fill="white" stroke="#bfbfbf" points="1059.91,-186.5 1059.91,-205.5 1185.91,-205.5 1185.91,-186.5 1059.91,-186.5"/>
<text text-anchor="middle" x="1122.91" y="-193.5" font-family="Helvetica,sans-Serif" font-size="10.00">hpp/constraints/config.hh</text>
</g>
<!-- Node1&#45;&gt;Node6 -->
<g id="edge5" class="edge"><title>Node1&#45;&gt;Node6</title>
<path fill="none" stroke="midnightblue" d="M821.623,-325.7C908.287,-325.614 1073.28,-320.023 1112.91,-280 1129.39,-263.353 1129.07,-234.701 1126.57,-215.801"/>
<polygon fill="midnightblue" stroke="midnightblue" points="1129.99,-215.027 1124.92,-205.726 1123.09,-216.161 1129.99,-215.027"/>
</g>
<!-- Node7 -->
<g id="node7" class="node"><title>Node7</title>
<g id="a_node7"><a xlink:href="a00062.html" target="_top" xlink:title="hpp/constraints/symbolic\l&#45;calculus.hh">
<polygon fill="white" stroke="black" points="530.41,-249 530.41,-279 655.41,-279 655.41,-249 530.41,-249"/>
<text text-anchor="start" x="538.41" y="-267" font-family="Helvetica,sans-Serif" font-size="10.00">hpp/constraints/symbolic</text>
<text text-anchor="middle" x="592.91" y="-256" font-family="Helvetica,sans-Serif" font-size="10.00">&#45;calculus.hh</text>
</a>
</g>
</g>
<!-- Node1&#45;&gt;Node7 -->
<g id="edge6" class="edge"><title>Node1&#45;&gt;Node7</title>
<path fill="none" stroke="midnightblue" d="M742.836,-316.403C717.056,-307.564 676.189,-293.553 643.629,-282.39"/>
<polygon fill="midnightblue" stroke="midnightblue" points="644.411,-278.958 633.817,-279.025 642.141,-285.579 644.411,-278.958"/>
</g>
<!-- Node12 -->
<g id="node12" class="node"><title>Node12</title>
<g id="a_node12"><a doxygen="https://jmirabel.github.io/hpp-doc/api/hpp-model/doxygen-html/hpp-model.doxytag:https://jmirabel.github.io/hpp-doc/api/hpp-model/doxygen-html/" xlink:href="https://jmirabel.github.io/hpp-doc/api/hpp-model/doxygen-html/a00033.html" target="_top" xlink:title="hpp/model/device.hh">
<polygon fill="white" stroke="black" points="143.41,-124.5 143.41,-143.5 250.41,-143.5 250.41,-124.5 143.41,-124.5"/>
<text text-anchor="middle" x="196.91" y="-131.5" font-family="Helvetica,sans-Serif" font-size="10.00">hpp/model/device.hh</text>
</a>
</g>
</g>
<!-- Node1&#45;&gt;Node12 -->
<g id="edge32" class="edge"><title>Node1&#45;&gt;Node12</title>
<path fill="none" stroke="midnightblue" d="M714.021,-321.254C589.409,-311.484 286.578,-281.045 215.91,-212 200.398,-196.845 196.781,-171.192 196.294,-153.695"/>
<polygon fill="midnightblue" stroke="midnightblue" points="199.795,-153.58 196.333,-143.567 192.795,-153.554 199.795,-153.58"/>
</g>
<!-- Node19 -->
<g id="node19" class="node"><title>Node19</title>
<g id="a_node19"><a xlink:href="a00047.html" target="_top" xlink:title="hpp/constraints/differentiable\l&#45;function.hh">
<polygon fill="white" stroke="black" points="961.91,-249 961.91,-279 1103.91,-279 1103.91,-249 961.91,-249"/>
<text text-anchor="start" x="969.91" y="-267" font-family="Helvetica,sans-Serif" font-size="10.00">hpp/constraints/differentiable</text>
<text text-anchor="middle" x="1032.91" y="-256" font-family="Helvetica,sans-Serif" font-size="10.00">&#45;function.hh</text>
</a>
</g>
</g>
<!-- Node1&#45;&gt;Node19 -->
<g id="edge29" class="edge"><title>Node1&#45;&gt;Node19</title>
<path fill="none" stroke="midnightblue" d="M805.596,-316.467C845.919,-307.337 910.844,-292.638 961.003,-281.281"/>
<polygon fill="midnightblue" stroke="midnightblue" points="961.846,-284.678 970.827,-279.057 960.3,-277.851 961.846,-284.678"/>
</g>
<!-- Node4 -->
<g id="node4" class="node"><title>Node4</title>
<g id="a_node4"><a doxygen="https://jmirabel.github.io/hpp-doc/api/hpp-model/doxygen-html/hpp-model.doxytag:https://jmirabel.github.io/hpp-doc/api/hpp-model/doxygen-html/" xlink:href="https://jmirabel.github.io/hpp-doc/api/hpp-model/doxygen-html/a00037.html" target="_top" xlink:title="hpp/model/fwd.hh">
<polygon fill="white" stroke="black" points="342.91,-0.5 342.91,-19.5 436.91,-19.5 436.91,-0.5 342.91,-0.5"/>
<text text-anchor="middle" x="389.91" y="-7.5" font-family="Helvetica,sans-Serif" font-size="10.00">hpp/model/fwd.hh</text>
</a>
</g>
</g>
<!-- Node3&#45;&gt;Node4 -->
<g id="edge3" class="edge"><title>Node3&#45;&gt;Node4</title>
<path fill="none" stroke="midnightblue" d="M844.524,-124.421C757.808,-102.787 530.28,-46.0207 433.976,-21.9942"/>
<polygon fill="midnightblue" stroke="midnightblue" points="434.807,-18.5942 424.257,-19.5693 433.112,-25.386 434.807,-18.5942"/>
</g>
<!-- Node5 -->
<g id="node5" class="node"><title>Node5</title>
<polygon fill="white" stroke="#bfbfbf" points="804.91,-62.5 804.91,-81.5 952.91,-81.5 952.91,-62.5 804.91,-62.5"/>
<text text-anchor="middle" x="878.91" y="-69.5" font-family="Helvetica,sans-Serif" font-size="10.00">hpp/constraints/deprecated.hh</text>
</g>
<!-- Node3&#45;&gt;Node5 -->
<g id="edge4" class="edge"><title>Node3&#45;&gt;Node5</title>
<path fill="none" stroke="midnightblue" d="M878.91,-124.403C878.91,-115.938 878.91,-102.728 878.91,-91.8199"/>
<polygon fill="midnightblue" stroke="midnightblue" points="882.41,-91.5806 878.91,-81.5806 875.41,-91.5806 882.41,-91.5806"/>
</g>
<!-- Node7&#45;&gt;Node3 -->
<g id="edge8" class="edge"><title>Node7&#45;&gt;Node3</title>
<path fill="none" stroke="midnightblue" d="M655.724,-261.156C732.63,-257.42 856.227,-246.126 884.91,-212 898.555,-195.764 893.048,-170.197 886.847,-153.027"/>
<polygon fill="midnightblue" stroke="midnightblue" points="890.029,-151.56 883.06,-143.58 883.532,-154.164 890.029,-151.56"/>
</g>
<!-- Node8 -->
<g id="node8" class="node"><title>Node8</title>
<polygon fill="white" stroke="#bfbfbf" points="712.41,-124.5 712.41,-143.5 777.41,-143.5 777.41,-124.5 712.41,-124.5"/>
<text text-anchor="middle" x="744.91" y="-131.5" font-family="Helvetica,sans-Serif" font-size="10.00">Eigen/SVD</text>
</g>
<!-- Node7&#45;&gt;Node8 -->
<g id="edge7" class="edge"><title>Node7&#45;&gt;Node8</title>
<path fill="none" stroke="midnightblue" d="M592.201,-248.782C592.085,-230.57 594.665,-199.085 611.91,-180 624.255,-166.337 668.354,-153.127 702.426,-144.595"/>
<polygon fill="midnightblue" stroke="midnightblue" points="703.3,-147.984 712.182,-142.209 701.637,-141.184 703.3,-147.984"/>
</g>
<!-- Node9 -->
<g id="node9" class="node"><title>Node9</title>
<g id="a_node9"><a doxygen="https://jmirabel.github.io/hpp-doc/api/hpp-model/doxygen-html/hpp-model.doxytag:https://jmirabel.github.io/hpp-doc/api/hpp-model/doxygen-html/" xlink:href="https://jmirabel.github.io/hpp-doc/api/hpp-model/doxygen-html/a00041.html" target="_top" xlink:title="hpp/model/joint.hh">
<polygon fill="white" stroke="black" points="597.91,-124.5 597.91,-143.5 693.91,-143.5 693.91,-124.5 597.91,-124.5"/>
<text text-anchor="middle" x="645.91" y="-131.5" font-family="Helvetica,sans-Serif" font-size="10.00">hpp/model/joint.hh</text>
</a>
</g>
</g>
<!-- Node7&#45;&gt;Node9 -->
<g id="edge9" class="edge"><title>Node7&#45;&gt;Node9</title>
<path fill="none" stroke="midnightblue" d="M585.417,-248.919C577.351,-231.677 567.156,-202.052 578.91,-180 586.46,-165.834 600.67,-155.335 614.068,-148.058"/>
<polygon fill="midnightblue" stroke="midnightblue" points="615.743,-151.133 623.121,-143.529 612.612,-144.872 615.743,-151.133"/>
</g>
<!-- Node10 -->
<g id="node10" class="node"><title>Node10</title>
<g id="a_node10"><a doxygen="https://jmirabel.github.io/hpp-doc/api/hpp-model/doxygen-html/hpp-model.doxytag:https://jmirabel.github.io/hpp-doc/api/hpp-model/doxygen-html/" xlink:href="https://jmirabel.github.io/hpp-doc/api/hpp-model/doxygen-html/a00036.html" target="_top" xlink:title="hpp/model/fcl&#45;to&#45;eigen.hh">
<polygon fill="white" stroke="black" points="453.91,-124.5 453.91,-143.5 579.91,-143.5 579.91,-124.5 453.91,-124.5"/>
<text text-anchor="middle" x="516.91" y="-131.5" font-family="Helvetica,sans-Serif" font-size="10.00">hpp/model/fcl&#45;to&#45;eigen.hh</text>
</a>
</g>
</g>
<!-- Node7&#45;&gt;Node10 -->
<g id="edge11" class="edge"><title>Node7&#45;&gt;Node10</title>
<path fill="none" stroke="midnightblue" d="M584.486,-248.813C570.435,-225.149 542.267,-177.707 527.114,-152.186"/>
<polygon fill="midnightblue" stroke="midnightblue" points="530.115,-150.385 522,-143.574 524.096,-153.959 530.115,-150.385"/>
</g>
<!-- Node11 -->
<g id="node11" class="node"><title>Node11</title>
<g id="a_node11"><a doxygen="https://jmirabel.github.io/hpp-doc/api/hpp-model/doxygen-html/hpp-model.doxytag:https://jmirabel.github.io/hpp-doc/api/hpp-model/doxygen-html/" xlink:href="https://jmirabel.github.io/hpp-doc/api/hpp-model/doxygen-html/a00028.html" target="_top" xlink:title="hpp/model/center&#45;of\l&#45;mass&#45;computation.hh">
<polygon fill="white" stroke="black" points="375.41,-181 375.41,-211 488.41,-211 488.41,-181 375.41,-181"/>
<text text-anchor="start" x="383.41" y="-199" font-family="Helvetica,sans-Serif" font-size="10.00">hpp/model/center&#45;of</text>
<text text-anchor="middle" x="431.91" y="-188" font-family="Helvetica,sans-Serif" font-size="10.00">&#45;mass&#45;computation.hh</text>
</a>
</g>
</g>
<!-- Node7&#45;&gt;Node11 -->
<g id="edge13" class="edge"><title>Node7&#45;&gt;Node11</title>
<path fill="none" stroke="midnightblue" d="M558.371,-248.841C534.095,-238.89 501.433,-225.5 475.384,-214.822"/>
<polygon fill="midnightblue" stroke="midnightblue" points="476.695,-211.576 466.114,-211.022 474.039,-218.053 476.695,-211.576"/>
</g>
<!-- Node16 -->
<g id="node16" class="node"><title>Node16</title>
<g id="a_node16"><a xlink:href="a00061.html" target="_top" xlink:title="hpp/constraints/svd.hh">
<polygon fill="white" stroke="black" points="620.91,-186.5 620.91,-205.5 736.91,-205.5 736.91,-186.5 620.91,-186.5"/>
<text text-anchor="middle" x="678.91" y="-193.5" font-family="Helvetica,sans-Serif" font-size="10.00">hpp/constraints/svd.hh</text>
</a>
</g>
</g>
<!-- Node7&#45;&gt;Node16 -->
<g id="edge23" class="edge"><title>Node7&#45;&gt;Node16</title>
<path fill="none" stroke="midnightblue" d="M611.57,-248.679C625.643,-237.879 644.903,-223.098 659.22,-212.11"/>
<polygon fill="midnightblue" stroke="midnightblue" points="661.604,-214.693 667.406,-205.828 657.342,-209.14 661.604,-214.693"/>
</g>
<!-- Node17 -->
<g id="node17" class="node"><title>Node17</title>
<g id="a_node17"><a xlink:href="a00064.html" target="_top" xlink:title="hpp/constraints/tools.hh">
<polygon fill="white" stroke="black" points="755.41,-186.5 755.41,-205.5 876.41,-205.5 876.41,-186.5 755.41,-186.5"/>
<text text-anchor="middle" x="815.91" y="-193.5" font-family="Helvetica,sans-Serif" font-size="10.00">hpp/constraints/tools.hh</text>
</a>
</g>
</g>
<!-- Node7&#45;&gt;Node17 -->
<g id="edge26" class="edge"><title>Node7&#45;&gt;Node17</title>
<path fill="none" stroke="midnightblue" d="M640.475,-248.922C681.338,-236.828 739.505,-219.613 777.475,-208.375"/>
<polygon fill="midnightblue" stroke="midnightblue" points="778.548,-211.708 787.143,-205.514 776.561,-204.996 778.548,-211.708"/>
</g>
<!-- Node18 -->
<g id="node18" class="node"><title>Node18</title>
<g id="a_node18"><a xlink:href="a00051.html" target="_top" xlink:title="hpp/constraints/macros.hh">
<polygon fill="white" stroke="black" points="224.91,-186.5 224.91,-205.5 356.91,-205.5 356.91,-186.5 224.91,-186.5"/>
<text text-anchor="middle" x="290.91" y="-193.5" font-family="Helvetica,sans-Serif" font-size="10.00">hpp/constraints/macros.hh</text>
</a>
</g>
</g>
<!-- Node7&#45;&gt;Node18 -->
<g id="edge28" class="edge"><title>Node7&#45;&gt;Node18</title>
<path fill="none" stroke="midnightblue" d="M530.335,-249.325C473.807,-236.971 391.752,-219.038 339.88,-207.702"/>
<polygon fill="midnightblue" stroke="midnightblue" points="340.441,-204.242 329.924,-205.526 338.946,-211.081 340.441,-204.242"/>
</g>
<!-- Node9&#45;&gt;Node4 -->
<g id="edge10" class="edge"><title>Node9&#45;&gt;Node4</title>
<path fill="none" stroke="midnightblue" d="M627.908,-124.421C583.658,-103.333 469.371,-48.8682 416.932,-23.8779"/>
<polygon fill="midnightblue" stroke="midnightblue" points="418.424,-20.7119 407.891,-19.5693 415.413,-27.031 418.424,-20.7119"/>
</g>
<!-- Node10&#45;&gt;Node4 -->
<g id="edge12" class="edge"><title>Node10&#45;&gt;Node4</title>
<path fill="none" stroke="midnightblue" d="M510.829,-124.297C500.142,-109.345 476.848,-78.2469 452.91,-56 440.471,-44.4401 424.966,-33.3304 412.451,-25.0419"/>
<polygon fill="midnightblue" stroke="midnightblue" points="414.249,-22.0366 403.952,-19.5391 410.444,-27.9123 414.249,-22.0366"/>
</g>
<!-- Node11&#45;&gt;Node4 -->
<g id="edge14" class="edge"><title>Node11&#45;&gt;Node4</title>
<path fill="none" stroke="midnightblue" d="M432.763,-180.726C433.829,-155.009 433.956,-99.5232 418.91,-56 415.423,-45.9161 409.232,-35.8271 403.463,-27.7653"/>
<polygon fill="midnightblue" stroke="midnightblue" points="406.127,-25.4859 397.296,-19.633 400.55,-29.7158 406.127,-25.4859"/>
</g>
<!-- Node11&#45;&gt;Node12 -->
<g id="edge15" class="edge"><title>Node11&#45;&gt;Node12</title>
<path fill="none" stroke="midnightblue" d="M376.812,-180.933C335.094,-170.281 278.59,-155.855 240.111,-146.03"/>
<polygon fill="midnightblue" stroke="midnightblue" points="240.806,-142.595 230.251,-143.513 239.074,-149.378 240.806,-142.595"/>
</g>
<!-- Node12&#45;&gt;Node4 -->
<g id="edge16" class="edge"><title>Node12&#45;&gt;Node4</title>
<path fill="none" stroke="midnightblue" d="M143.266,-128.861C74.4227,-121.588 -31.4852,-102.586 9.90953,-56 30.9737,-32.2941 232.017,-18.9168 332.84,-13.6486"/>
<polygon fill="midnightblue" stroke="midnightblue" points="333.054,-17.1423 342.862,-13.1344 332.695,-10.1515 333.054,-17.1423"/>
</g>
<!-- Node13 -->
<g id="node13" class="node"><title>Node13</title>
<g id="a_node13"><a doxygen="https://jmirabel.github.io/hpp-doc/api/hpp-model/doxygen-html/hpp-model.doxytag:https://jmirabel.github.io/hpp-doc/api/hpp-model/doxygen-html/" xlink:href="https://jmirabel.github.io/hpp-doc/api/hpp-model/doxygen-html/a00034.html" target="_top" xlink:title="hpp/model/distance\l&#45;result.hh">
<polygon fill="white" stroke="black" points="19.4095,-57 19.4095,-87 120.41,-87 120.41,-57 19.4095,-57"/>
<text text-anchor="start" x="27.4095" y="-75" font-family="Helvetica,sans-Serif" font-size="10.00">hpp/model/distance</text>
<text text-anchor="middle" x="69.9095" y="-64" font-family="Helvetica,sans-Serif" font-size="10.00">&#45;result.hh</text>
</a>
</g>
</g>
<!-- Node12&#45;&gt;Node13 -->
<g id="edge17" class="edge"><title>Node12&#45;&gt;Node13</title>
<path fill="none" stroke="midnightblue" d="M178.714,-124.403C160.629,-115.86 132.315,-102.483 109.104,-91.5171"/>
<polygon fill="midnightblue" stroke="midnightblue" points="110.378,-88.2479 99.8409,-87.1408 107.388,-94.5772 110.378,-88.2479"/>
</g>
<!-- Node14 -->
<g id="node14" class="node"><title>Node14</title>
<g id="a_node14"><a doxygen="https://jmirabel.github.io/hpp-doc/api/hpp-model/doxygen-html/hpp-model.doxytag:https://jmirabel.github.io/hpp-doc/api/hpp-model/doxygen-html/" xlink:href="https://jmirabel.github.io/hpp-doc/api/hpp-model/doxygen-html/a00035.html" target="_top" xlink:title="hpp/model/extra&#45;config\l&#45;space.hh">
<polygon fill="white" stroke="black" points="138.91,-57 138.91,-87 254.91,-87 254.91,-57 138.91,-57"/>
<text text-anchor="start" x="146.91" y="-75" font-family="Helvetica,sans-Serif" font-size="10.00">hpp/model/extra&#45;config</text>
<text text-anchor="middle" x="196.91" y="-64" font-family="Helvetica,sans-Serif" font-size="10.00">&#45;space.hh</text>
</a>
</g>
</g>
<!-- Node12&#45;&gt;Node14 -->
<g id="edge19" class="edge"><title>Node12&#45;&gt;Node14</title>
<path fill="none" stroke="midnightblue" d="M196.91,-124.403C196.91,-117.341 196.91,-106.975 196.91,-97.399"/>
<polygon fill="midnightblue" stroke="midnightblue" points="200.41,-97.1408 196.91,-87.1408 193.41,-97.1408 200.41,-97.1408"/>
</g>
<!-- Node15 -->
<g id="node15" class="node"><title>Node15</title>
<g id="a_node15"><a doxygen="https://jmirabel.github.io/hpp-doc/api/hpp-model/doxygen-html/hpp-model.doxytag:https://jmirabel.github.io/hpp-doc/api/hpp-model/doxygen-html/" xlink:href="https://jmirabel.github.io/hpp-doc/api/hpp-model/doxygen-html/a00044.html" target="_top" xlink:title="hpp/model/object&#45;iterator.hh">
<polygon fill="white" stroke="black" points="273.41,-62.5 273.41,-81.5 410.41,-81.5 410.41,-62.5 273.41,-62.5"/>
<text text-anchor="middle" x="341.91" y="-69.5" font-family="Helvetica,sans-Serif" font-size="10.00">hpp/model/object&#45;iterator.hh</text>
</a>
</g>
</g>
<!-- Node12&#45;&gt;Node15 -->
<g id="edge21" class="edge"><title>Node12&#45;&gt;Node15</title>
<path fill="none" stroke="midnightblue" d="M217.684,-124.403C242.342,-114.2 283.655,-97.1055 311.811,-85.4544"/>
<polygon fill="midnightblue" stroke="midnightblue" points="313.271,-88.6382 321.173,-81.5806 310.595,-82.1701 313.271,-88.6382"/>
</g>
<!-- Node13&#45;&gt;Node4 -->
<g id="edge18" class="edge"><title>Node13&#45;&gt;Node4</title>
<path fill="none" stroke="midnightblue" d="M120.588,-58.0519C123.737,-57.3338 126.863,-56.6436 129.91,-56 199.242,-41.3543 279.716,-27.9777 332.554,-19.6838"/>
<polygon fill="midnightblue" stroke="midnightblue" points="333.4,-23.0941 342.741,-18.0939 332.321,-16.1778 333.4,-23.0941"/>
</g>
<!-- Node14&#45;&gt;Node4 -->
<g id="edge20" class="edge"><title>Node14&#45;&gt;Node4</title>
<path fill="none" stroke="midnightblue" d="M242.159,-56.9327C275.839,-46.4624 321.251,-32.3445 352.803,-22.5358"/>
<polygon fill="midnightblue" stroke="midnightblue" points="354.017,-25.8236 362.527,-19.5127 351.939,-19.1392 354.017,-25.8236"/>
</g>
<!-- Node15&#45;&gt;Node4 -->
<g id="edge22" class="edge"><title>Node15&#45;&gt;Node4</title>
<path fill="none" stroke="midnightblue" d="M348.787,-62.4035C356.058,-53.3143 367.705,-38.7559 376.75,-27.4489"/>
<polygon fill="midnightblue" stroke="midnightblue" points="379.531,-29.5757 383.045,-19.5806 374.065,-25.2029 379.531,-29.5757"/>
</g>
<!-- Node16&#45;&gt;Node3 -->
<g id="edge24" class="edge"><title>Node16&#45;&gt;Node3</title>
<path fill="none" stroke="midnightblue" d="M707.565,-186.403C742.466,-175.933 801.56,-158.205 840.409,-146.55"/>
<polygon fill="midnightblue" stroke="midnightblue" points="841.735,-149.807 850.308,-143.581 839.724,-143.102 841.735,-149.807"/>
</g>
<!-- Node16&#45;&gt;Node8 -->
<g id="edge25" class="edge"><title>Node16&#45;&gt;Node8</title>
<path fill="none" stroke="midnightblue" d="M688.366,-186.403C698.658,-177.047 715.325,-161.895 727.904,-150.46"/>
<polygon fill="midnightblue" stroke="midnightblue" points="730.426,-152.897 735.471,-143.581 725.717,-147.718 730.426,-152.897"/>
</g>
<!-- Node17&#45;&gt;Node3 -->
<g id="edge27" class="edge"><title>Node17&#45;&gt;Node3</title>
<path fill="none" stroke="midnightblue" d="M824.936,-186.403C834.667,-177.136 850.368,-162.183 862.333,-150.788"/>
<polygon fill="midnightblue" stroke="midnightblue" points="865.072,-153.012 869.9,-143.581 860.245,-147.943 865.072,-153.012"/>
</g>
<!-- Node19&#45;&gt;Node3 -->
<g id="edge30" class="edge"><title>Node19&#45;&gt;Node3</title>
<path fill="none" stroke="midnightblue" d="M1022.2,-248.85C1008.42,-231.272 983.117,-201.035 956.91,-180 941.361,-167.52 921.946,-156.307 906.376,-148.195"/>
<polygon fill="midnightblue" stroke="midnightblue" points="907.749,-144.967 897.248,-143.562 904.581,-151.209 907.749,-144.967"/>
</g>
<!-- Node19&#45;&gt;Node6 -->
<g id="edge31" class="edge"><title>Node19&#45;&gt;Node6</title>
<path fill="none" stroke="midnightblue" d="M1052.44,-248.679C1067.39,-237.713 1087.94,-222.645 1102.99,-211.609"/>
<polygon fill="midnightblue" stroke="midnightblue" points="1105.14,-214.374 1111.13,-205.638 1101,-208.729 1105.14,-214.374"/>
</g>
</g>
</svg>
