<?xml version="1.0" encoding="UTF-8" standalone="no"?>
<!DOCTYPE svg PUBLIC "-//W3C//DTD SVG 1.1//EN"
 "http://www.w3.org/Graphics/SVG/1.1/DTD/svg11.dtd">
<!-- Generated by graphviz version 2.36.0 (20140111.2315)
 -->
<!-- Title: tools.hh Pages: 1 -->
<svg width="536pt" height="196pt"
 viewBox="0.00 0.00 536.00 196.00" xmlns="http://www.w3.org/2000/svg" xmlns:xlink="http://www.w3.org/1999/xlink">
<g id="graph0" class="graph" transform="scale(1 1) rotate(0) translate(4 192)">
<title>tools.hh</title>
<polygon fill="white" stroke="none" points="-4,4 -4,-192 532,-192 532,4 -4,4"/>
<!-- Node1 -->
<g id="node1" class="node"><title>Node1</title>
<polygon fill="#bfbfbf" stroke="black" points="317.5,-168.5 317.5,-187.5 368.5,-187.5 368.5,-168.5 317.5,-168.5"/>
<text text-anchor="middle" x="343" y="-175.5" font-family="Helvetica,sans-Serif" font-size="10.00">tools.hh</text>
</g>
<!-- Node2 -->
<g id="node2" class="node"><title>Node2</title>
<g id="a_node2"><a xlink:href="a00043.html" target="_top" xlink:title="com&#45;between&#45;feet.hh">
<polygon fill="white" stroke="black" points="0,-56.5 0,-75.5 108,-75.5 108,-56.5 0,-56.5"/>
<text text-anchor="middle" x="54" y="-63.5" font-family="Helvetica,sans-Serif" font-size="10.00">com&#45;between&#45;feet.hh</text>
</a>
</g>
</g>
<!-- Node1&#45;&gt;Node2 -->
<g id="edge1" class="edge"><title>Node1&#45;&gt;Node2</title>
<path fill="none" stroke="midnightblue" d="M307.43,-173.328C266.522,-168.128 198.054,-156.395 144,-132 111.324,-117.253 78.6199,-89.6223 63.178,-75.6142"/>
<polygon fill="midnightblue" stroke="midnightblue" points="307.111,-176.815 317.459,-174.541 307.951,-169.865 307.111,-176.815"/>
</g>
<!-- Node3 -->
<g id="node3" class="node"><title>Node3</title>
<g id="a_node3"><a xlink:href="a00062.html" target="_top" xlink:title="symbolic&#45;calculus.hh">
<polygon fill="white" stroke="black" points="153,-112.5 153,-131.5 261,-131.5 261,-112.5 153,-112.5"/>
<text text-anchor="middle" x="207" y="-119.5" font-family="Helvetica,sans-Serif" font-size="10.00">symbolic&#45;calculus.hh</text>
</a>
</g>
</g>
<!-- Node1&#45;&gt;Node3 -->
<g id="edge2" class="edge"><title>Node1&#45;&gt;Node3</title>
<path fill="none" stroke="midnightblue" d="M311.865,-164.638C286.343,-154.504 250.891,-140.427 228.449,-131.516"/>
<polygon fill="midnightblue" stroke="midnightblue" points="310.865,-168.006 321.45,-168.444 313.448,-161.5 310.865,-168.006"/>
</g>
<!-- Node4 -->
<g id="node4" class="node"><title>Node4</title>
<g id="a_node4"><a xlink:href="a00060.html" target="_top" xlink:title="static&#45;stability.hh">
<polygon fill="white" stroke="black" points="251.5,-56.5 251.5,-75.5 342.5,-75.5 342.5,-56.5 251.5,-56.5"/>
<text text-anchor="middle" x="297" y="-63.5" font-family="Helvetica,sans-Serif" font-size="10.00">static&#45;stability.hh</text>
</a>
</g>
</g>
<!-- Node1&#45;&gt;Node4 -->
<g id="edge11" class="edge"><title>Node1&#45;&gt;Node4</title>
<path fill="none" stroke="midnightblue" d="M335.472,-158.998C325.435,-134.997 308.069,-93.4683 300.593,-75.5914"/>
<polygon fill="midnightblue" stroke="midnightblue" points="332.303,-160.493 339.39,-168.368 338.761,-157.792 332.303,-160.493"/>
</g>
<!-- Node5 -->
<g id="node5" class="node"><title>Node5</title>
<g id="a_node5"><a xlink:href="a00055.html" target="_top" xlink:title="qp&#45;static&#45;stability.hh">
<polygon fill="white" stroke="black" points="319,-0.5 319,-19.5 423,-19.5 423,-0.5 319,-0.5"/>
<text text-anchor="middle" x="371" y="-7.5" font-family="Helvetica,sans-Serif" font-size="10.00">qp&#45;static&#45;stability.hh</text>
</a>
</g>
</g>
<!-- Node1&#45;&gt;Node5 -->
<g id="edge12" class="edge"><title>Node1&#45;&gt;Node5</title>
<path fill="none" stroke="midnightblue" d="M346.217,-157.93C352.291,-121.92 365.226,-45.2312 369.555,-19.5681"/>
<polygon fill="midnightblue" stroke="midnightblue" points="342.717,-157.632 344.505,-168.075 349.62,-158.797 342.717,-157.632"/>
</g>
<!-- Node7 -->
<g id="node7" class="node"><title>Node7</title>
<g id="a_node7"><a xlink:href="a00045.html" target="_top" xlink:title="convex&#45;shape&#45;contact.hh">
<polygon fill="white" stroke="black" points="399,-56.5 399,-75.5 525,-75.5 525,-56.5 399,-56.5"/>
<text text-anchor="middle" x="462" y="-63.5" font-family="Helvetica,sans-Serif" font-size="10.00">convex&#45;shape&#45;contact.hh</text>
</a>
</g>
</g>
<!-- Node1&#45;&gt;Node7 -->
<g id="edge7" class="edge"><title>Node1&#45;&gt;Node7</title>
<path fill="none" stroke="midnightblue" d="M359.756,-161.512C385.184,-138.007 432.672,-94.1096 452.706,-75.5914"/>
<polygon fill="midnightblue" stroke="midnightblue" points="357.305,-159.01 352.338,-168.368 362.057,-164.151 357.305,-159.01"/>
</g>
<!-- Node8 -->
<g id="node8" class="node"><title>Node8</title>
<g id="a_node8"><a xlink:href="a00046.html" target="_top" xlink:title="convex&#45;shape.hh">
<polygon fill="white" stroke="black" points="437.5,-112.5 437.5,-131.5 528.5,-131.5 528.5,-112.5 437.5,-112.5"/>
<text text-anchor="middle" x="483" y="-119.5" font-family="Helvetica,sans-Serif" font-size="10.00">convex&#45;shape.hh</text>
</a>
</g>
</g>
<!-- Node1&#45;&gt;Node8 -->
<g id="edge9" class="edge"><title>Node1&#45;&gt;Node8</title>
<path fill="none" stroke="midnightblue" d="M374.702,-164.772C401,-154.629 437.716,-140.467 460.92,-131.516"/>
<polygon fill="midnightblue" stroke="midnightblue" points="373.254,-161.579 365.183,-168.444 375.773,-168.11 373.254,-161.579"/>
</g>
<!-- Node3&#45;&gt;Node2 -->
<g id="edge3" class="edge"><title>Node3&#45;&gt;Node2</title>
<path fill="none" stroke="midnightblue" d="M173.111,-109.039C144.323,-98.8786 103.713,-84.5457 78.1299,-75.5164"/>
<polygon fill="midnightblue" stroke="midnightblue" points="172.162,-112.416 182.757,-112.444 174.492,-105.815 172.162,-112.416"/>
</g>
<!-- Node3&#45;&gt;Node4 -->
<g id="edge4" class="edge"><title>Node3&#45;&gt;Node4</title>
<path fill="none" stroke="midnightblue" d="M230.038,-107.177C246.599,-97.2407 268.418,-84.1492 282.576,-75.6545"/>
<polygon fill="midnightblue" stroke="midnightblue" points="228.234,-104.178 221.46,-112.324 231.836,-110.18 228.234,-104.178"/>
</g>
<!-- Node6 -->
<g id="node6" class="node"><title>Node6</title>
<g id="a_node6"><a xlink:href="a00063.html" target="_top" xlink:title="symbolic&#45;function.hh">
<polygon fill="white" stroke="black" points="126.5,-56.5 126.5,-75.5 233.5,-75.5 233.5,-56.5 126.5,-56.5"/>
<text text-anchor="middle" x="180" y="-63.5" font-family="Helvetica,sans-Serif" font-size="10.00">symbolic&#45;function.hh</text>
</a>
</g>
</g>
<!-- Node3&#45;&gt;Node6 -->
<g id="edge6" class="edge"><title>Node3&#45;&gt;Node6</title>
<path fill="none" stroke="midnightblue" d="M197.991,-102.983C193.408,-93.8168 188.046,-83.0922 184.376,-75.7511"/>
<polygon fill="midnightblue" stroke="midnightblue" points="194.939,-104.704 202.541,-112.083 201.2,-101.573 194.939,-104.704"/>
</g>
<!-- Node4&#45;&gt;Node5 -->
<g id="edge5" class="edge"><title>Node4&#45;&gt;Node5</title>
<path fill="none" stroke="midnightblue" d="M317.034,-50.3804C330.409,-40.6204 347.559,-28.1057 358.894,-19.8339"/>
<polygon fill="midnightblue" stroke="midnightblue" points="314.904,-47.602 308.889,-56.324 319.03,-53.2565 314.904,-47.602"/>
</g>
<!-- Node7&#45;&gt;Node5 -->
<g id="edge8" class="edge"><title>Node7&#45;&gt;Node5</title>
<path fill="none" stroke="midnightblue" d="M438.706,-51.1774C421.961,-41.2407 399.9,-28.1492 385.584,-19.6545"/>
<polygon fill="midnightblue" stroke="midnightblue" points="436.993,-54.2307 447.379,-56.324 440.566,-48.2108 436.993,-54.2307"/>
</g>
<!-- Node8&#45;&gt;Node7 -->
<g id="edge10" class="edge"><title>Node8&#45;&gt;Node7</title>
<path fill="none" stroke="midnightblue" d="M475.879,-102.69C472.34,-93.589 468.228,-83.0141 465.403,-75.7511"/>
<polygon fill="midnightblue" stroke="midnightblue" points="472.646,-104.032 479.532,-112.083 479.17,-101.494 472.646,-104.032"/>
</g>
</g>
</svg>
