<?xml version="1.0" encoding="UTF-8" standalone="no"?>
<!DOCTYPE svg PUBLIC "-//W3C//DTD SVG 1.1//EN"
 "http://www.w3.org/Graphics/SVG/1.1/DTD/svg11.dtd">
<!-- Generated by graphviz version 2.36.0 (20140111.2315)
 -->
<!-- Title: hpp::constraints::RotationMultiply&lt; RhsValue &gt; Pages: 1 -->
<svg width="154pt" height="196pt"
 viewBox="0.00 0.00 154.00 196.00" xmlns="http://www.w3.org/2000/svg" xmlns:xlink="http://www.w3.org/1999/xlink">
<g id="graph0" class="graph" transform="scale(1 1) rotate(0) translate(4 192)">
<title>hpp::constraints::RotationMultiply&lt; RhsValue &gt;</title>
<polygon fill="white" stroke="none" points="-4,4 -4,-192 150,-192 150,4 -4,4"/>
<!-- Node1 -->
<g id="node1" class="node"><title>Node1</title>
<polygon fill="#bfbfbf" stroke="black" points="8.5,-1 8.5,-31 137.5,-31 137.5,-1 8.5,-1"/>
<text text-anchor="start" x="16.5" y="-19" font-family="Helvetica,sans-Serif" font-size="10.00">hpp::constraints::Rotation</text>
<text text-anchor="middle" x="73" y="-8" font-family="Helvetica,sans-Serif" font-size="10.00">Multiply&lt; RhsValue &gt;</text>
</g>
<!-- Node2 -->
<g id="node2" class="node"><title>Node2</title>
<g id="a_node2"><a xlink:href="a00002.html" target="_top" xlink:title="hpp::constraints::Calculus\lBase\&lt; RotationMultiply\l\&lt; RhsValue \&gt; \&gt;">
<polygon fill="white" stroke="black" points="7.5,-68.5 7.5,-109.5 138.5,-109.5 138.5,-68.5 7.5,-68.5"/>
<text text-anchor="start" x="15.5" y="-97.5" font-family="Helvetica,sans-Serif" font-size="10.00">hpp::constraints::Calculus</text>
<text text-anchor="start" x="15.5" y="-86.5" font-family="Helvetica,sans-Serif" font-size="10.00">Base&lt; RotationMultiply</text>
<text text-anchor="middle" x="73" y="-75.5" font-family="Helvetica,sans-Serif" font-size="10.00">&lt; RhsValue &gt; &gt;</text>
</a>
</g>
</g>
<!-- Node2&#45;&gt;Node1 -->
<g id="edge1" class="edge"><title>Node2&#45;&gt;Node1</title>
<path fill="none" stroke="midnightblue" d="M73,-58.0188C73,-48.6567 73,-38.7696 73,-31.0485"/>
<polygon fill="midnightblue" stroke="midnightblue" points="69.5001,-58.2225 73,-68.2225 76.5001,-58.2226 69.5001,-58.2225"/>
</g>
<!-- Node3 -->
<g id="node3" class="node"><title>Node3</title>
<g id="a_node3"><a xlink:href="a00003.html" target="_top" xlink:title="hpp::constraints::Calculus\lBaseAbstract\&lt; eigen::vector3\l_t, JacobianMatrix \&gt;">
<polygon fill="white" stroke="black" points="0,-146.5 0,-187.5 146,-187.5 146,-146.5 0,-146.5"/>
<text text-anchor="start" x="8" y="-175.5" font-family="Helvetica,sans-Serif" font-size="10.00">hpp::constraints::Calculus</text>
<text text-anchor="start" x="8" y="-164.5" font-family="Helvetica,sans-Serif" font-size="10.00">BaseAbstract&lt; eigen::vector3</text>
<text text-anchor="middle" x="73" y="-153.5" font-family="Helvetica,sans-Serif" font-size="10.00">_t, JacobianMatrix &gt;</text>
</a>
</g>
</g>
<!-- Node3&#45;&gt;Node2 -->
<g id="edge2" class="edge"><title>Node3&#45;&gt;Node2</title>
<path fill="none" stroke="midnightblue" d="M73,-136.297C73,-127.301 73,-117.653 73,-109.506"/>
<polygon fill="midnightblue" stroke="midnightblue" points="69.5001,-136.428 73,-146.428 76.5001,-136.428 69.5001,-136.428"/>
</g>
</g>
</svg>
