<?xml version="1.0" encoding="UTF-8" standalone="no"?>
<!DOCTYPE svg PUBLIC "-//W3C//DTD SVG 1.1//EN"
 "http://www.w3.org/Graphics/SVG/1.1/DTD/svg11.dtd">
<!-- Generated by graphviz version 2.36.0 (20140111.2315)
 -->
<!-- Title: hpp::constraints::CalculusBaseAbstract&lt; ValueType, JacobianType &gt; Pages: 1 -->
<svg width="178pt" height="118pt"
 viewBox="0.00 0.00 178.00 118.00" xmlns="http://www.w3.org/2000/svg" xmlns:xlink="http://www.w3.org/1999/xlink">
<g id="graph0" class="graph" transform="scale(1 1) rotate(0) translate(4 114)">
<title>hpp::constraints::CalculusBaseAbstract&lt; ValueType, JacobianType &gt;</title>
<polygon fill="white" stroke="none" points="-4,4 -4,-114 174,-114 174,4 -4,4"/>
<!-- Node1 -->
<g id="node1" class="node"><title>Node1</title>
<polygon fill="#bfbfbf" stroke="black" points="18,-68.5 18,-109.5 152,-109.5 152,-68.5 18,-68.5"/>
<text text-anchor="start" x="26" y="-97.5" font-family="Helvetica,sans-Serif" font-size="10.00">hpp::constraints::Calculus</text>
<text text-anchor="start" x="26" y="-86.5" font-family="Helvetica,sans-Serif" font-size="10.00">BaseAbstract&lt; ValueType,</text>
<text text-anchor="middle" x="85" y="-75.5" font-family="Helvetica,sans-Serif" font-size="10.00"> JacobianType &gt;</text>
</g>
<!-- Node2 -->
<g id="node2" class="node"><title>Node2</title>
<g id="a_node2"><a xlink:href="a00002.html" target="_top" xlink:title="Main abstract class. ">
<polygon fill="white" stroke="black" points="0,-1 0,-31 170,-31 170,-1 0,-1"/>
<text text-anchor="start" x="8" y="-19" font-family="Helvetica,sans-Serif" font-size="10.00">hpp::constraints::Calculus</text>
<text text-anchor="middle" x="85" y="-8" font-family="Helvetica,sans-Serif" font-size="10.00">Base&lt; ValueType, JacobianType &gt;</text>
</a>
</g>
</g>
<!-- Node1&#45;&gt;Node2 -->
<g id="edge1" class="edge"><title>Node1&#45;&gt;Node2</title>
<path fill="none" stroke="midnightblue" d="M85,-58.0188C85,-48.6567 85,-38.7696 85,-31.0485"/>
<polygon fill="midnightblue" stroke="midnightblue" points="81.5001,-58.2225 85,-68.2225 88.5001,-58.2226 81.5001,-58.2225"/>
</g>
</g>
</svg>
