<?xml version="1.0" encoding="UTF-8" standalone="no"?>
<!DOCTYPE svg PUBLIC "-//W3C//DTD SVG 1.1//EN"
 "http://www.w3.org/Graphics/SVG/1.1/DTD/svg11.dtd">
<!-- Generated by graphviz version 2.36.0 (20140111.2315)
 -->
<!-- Title: hpp::constraints::DifferentiableFunction Pages: 1 -->
<svg width="366pt" height="771pt"
 viewBox="0.00 0.00 366.00 771.00" xmlns="http://www.w3.org/2000/svg" xmlns:xlink="http://www.w3.org/1999/xlink">
<g id="graph0" class="graph" transform="scale(1 1) rotate(0) translate(4 767)">
<title>hpp::constraints::DifferentiableFunction</title>
<polygon fill="white" stroke="none" points="-4,4 -4,-767 362,-767 362,4 -4,4"/>
<!-- Node1 -->
<g id="node1" class="node"><title>Node1</title>
<polygon fill="#bfbfbf" stroke="black" points="0,-367 0,-397 150,-397 150,-367 0,-367"/>
<text text-anchor="start" x="8" y="-385" font-family="Helvetica,sans-Serif" font-size="10.00">hpp::constraints::Differentiable</text>
<text text-anchor="middle" x="75" y="-374" font-family="Helvetica,sans-Serif" font-size="10.00">Function</text>
</g>
<!-- Node2 -->
<g id="node2" class="node"><title>Node2</title>
<g id="a_node2"><a xlink:href="a00004.html" target="_top" xlink:title="Constraint on the relative position of the center of mass. ">
<polygon fill="white" stroke="black" points="186.5,-743.5 186.5,-762.5 357.5,-762.5 357.5,-743.5 186.5,-743.5"/>
<text text-anchor="middle" x="272" y="-750.5" font-family="Helvetica,sans-Serif" font-size="10.00">hpp::constraints::ComBetweenFeet</text>
</a>
</g>
</g>
<!-- Node1&#45;&gt;Node2 -->
<g id="edge1" class="edge"><title>Node1&#45;&gt;Node2</title>
<path fill="none" stroke="midnightblue" d="M75.9317,-407.056C77.1897,-471.387 89.8488,-643.588 186,-733 190.552,-737.233 195.826,-740.623 201.474,-743.331"/>
<polygon fill="midnightblue" stroke="midnightblue" points="79.4311,-406.969 75.8139,-397.011 72.4315,-407.051 79.4311,-406.969"/>
</g>
<!-- Node3 -->
<g id="node3" class="node"><title>Node3</title>
<g id="a_node3"><a xlink:href="a00005.html" target="_top" xlink:title="hpp::constraints::Configuration\lConstraint">
<polygon fill="white" stroke="black" points="197,-694 197,-724 347,-724 347,-694 197,-694"/>
<text text-anchor="start" x="205" y="-712" font-family="Helvetica,sans-Serif" font-size="10.00">hpp::constraints::Configuration</text>
<text text-anchor="middle" x="272" y="-701" font-family="Helvetica,sans-Serif" font-size="10.00">Constraint</text>
</a>
</g>
</g>
<!-- Node1&#45;&gt;Node3 -->
<g id="edge2" class="edge"><title>Node1&#45;&gt;Node3</title>
<path fill="none" stroke="midnightblue" d="M77.7232,-407.163C83.041,-464.782 104.206,-607.223 186,-684 190.15,-687.895 194.875,-691.187 199.924,-693.967"/>
<polygon fill="midnightblue" stroke="midnightblue" points="81.2044,-406.792 76.8805,-397.12 74.229,-407.377 81.2044,-406.792"/>
</g>
<!-- Node4 -->
<g id="node4" class="node"><title>Node4</title>
<g id="a_node4"><a xlink:href="a00008.html" target="_top" xlink:title="The function returns a relative transformation between the two &quot;closest&quot; convex shapes it contains...">
<polygon fill="white" stroke="black" points="209,-645 209,-675 335,-675 335,-645 209,-645"/>
<text text-anchor="start" x="217" y="-663" font-family="Helvetica,sans-Serif" font-size="10.00">hpp::constraints::Convex</text>
<text text-anchor="middle" x="272" y="-652" font-family="Helvetica,sans-Serif" font-size="10.00">ShapeContact</text>
</a>
</g>
</g>
<!-- Node1&#45;&gt;Node4 -->
<g id="edge3" class="edge"><title>Node1&#45;&gt;Node4</title>
<path fill="none" stroke="midnightblue" d="M79.7471,-407.215C88.6336,-457.987 115.76,-572.976 186,-635 192.572,-640.803 200.432,-645.262 208.679,-648.687"/>
<polygon fill="midnightblue" stroke="midnightblue" points="83.1625,-406.416 78.0757,-397.122 76.2565,-407.559 83.1625,-406.416"/>
</g>
<!-- Node5 -->
<g id="node5" class="node"><title>Node5</title>
<g id="a_node5"><a xlink:href="a00009.html" target="_top" xlink:title="Complement to full transformation constraint of ConvexShapeContact. ">
<polygon fill="white" stroke="black" points="205,-596 205,-626 339,-626 339,-596 205,-596"/>
<text text-anchor="start" x="213" y="-614" font-family="Helvetica,sans-Serif" font-size="10.00">hpp::constraints::Convex</text>
<text text-anchor="middle" x="272" y="-603" font-family="Helvetica,sans-Serif" font-size="10.00">ShapeContactComplement</text>
</a>
</g>
</g>
<!-- Node1&#45;&gt;Node5 -->
<g id="edge4" class="edge"><title>Node1&#45;&gt;Node5</title>
<path fill="none" stroke="midnightblue" d="M82.5355,-406.818C95.1459,-449.814 126.946,-538.132 186,-586 191.616,-590.552 198.035,-594.276 204.773,-597.321"/>
<polygon fill="midnightblue" stroke="midnightblue" points="85.8922,-405.825 79.8031,-397.155 79.1563,-407.73 85.8922,-405.825"/>
</g>
<!-- Node6 -->
<g id="node6" class="node"><title>Node6</title>
<g id="a_node6"><a xlink:href="a00013.html" target="_top" xlink:title="Distance between two sets of objects. ">
<polygon fill="white" stroke="black" points="206.5,-547 206.5,-577 337.5,-577 337.5,-547 206.5,-547"/>
<text text-anchor="start" x="214.5" y="-565" font-family="Helvetica,sans-Serif" font-size="10.00">hpp::constraints::Distance</text>
<text text-anchor="middle" x="272" y="-554" font-family="Helvetica,sans-Serif" font-size="10.00">BetweenBodies</text>
</a>
</g>
</g>
<!-- Node1&#45;&gt;Node6 -->
<g id="edge5" class="edge"><title>Node1&#45;&gt;Node6</title>
<path fill="none" stroke="midnightblue" d="M86.9885,-406.671C103.534,-441.002 138.086,-502.806 186,-537 192.135,-541.378 199.036,-544.996 206.184,-547.985"/>
<polygon fill="midnightblue" stroke="midnightblue" points="90.0362,-404.927 82.6195,-397.361 83.6992,-407.901 90.0362,-404.927"/>
</g>
<!-- Node7 -->
<g id="node7" class="node"><title>Node7</title>
<g id="a_node7"><a xlink:href="a00014.html" target="_top" xlink:title="Distance between two sets of objects. ">
<polygon fill="white" stroke="black" points="206.5,-498 206.5,-528 337.5,-528 337.5,-498 206.5,-498"/>
<text text-anchor="start" x="214.5" y="-516" font-family="Helvetica,sans-Serif" font-size="10.00">hpp::constraints::Distance</text>
<text text-anchor="middle" x="272" y="-505" font-family="Helvetica,sans-Serif" font-size="10.00">BetweenPointsInBodies</text>
</a>
</g>
</g>
<!-- Node1&#45;&gt;Node7 -->
<g id="edge6" class="edge"><title>Node1&#45;&gt;Node7</title>
<path fill="none" stroke="midnightblue" d="M94.278,-405.29C114.332,-429.333 148.669,-466.304 186,-488 192.65,-491.865 199.944,-495.173 207.378,-497.996"/>
<polygon fill="midnightblue" stroke="midnightblue" points="96.8403,-402.894 87.7991,-397.371 91.4225,-407.327 96.8403,-402.894"/>
</g>
<!-- Node8 -->
<g id="node8" class="node"><title>Node8</title>
<g id="a_node8"><a xlink:href="a00017.html" target="_top" xlink:title="GenericTransformation class encapsulates 6 possible differentiable functions: Position2, Orientation2, Transformation2 and their relative versions RelativePosition2, RelativeOrientation2, RelativeTransformation2. ">
<polygon fill="white" stroke="black" points="202.5,-449 202.5,-479 341.5,-479 341.5,-449 202.5,-449"/>
<text text-anchor="start" x="210.5" y="-467" font-family="Helvetica,sans-Serif" font-size="10.00">hpp::constraints::Generic</text>
<text text-anchor="middle" x="272" y="-456" font-family="Helvetica,sans-Serif" font-size="10.00">Transformation&lt; _Options &gt;</text>
</a>
</g>
</g>
<!-- Node1&#45;&gt;Node8 -->
<g id="edge7" class="edge"><title>Node1&#45;&gt;Node8</title>
<path fill="none" stroke="midnightblue" d="M110.53,-402.075C131.808,-413.89 159.922,-428.522 186,-439 194.992,-442.613 204.706,-445.962 214.242,-448.958"/>
<polygon fill="midnightblue" stroke="midnightblue" points="111.995,-398.884 101.562,-397.038 108.567,-404.987 111.995,-398.884"/>
</g>
<!-- Node9 -->
<g id="node9" class="node"><title>Node9</title>
<g id="a_node9"><a xlink:href="a00021.html" target="_top" xlink:title="Constraint on the orientation of a robot joint. ">
<polygon fill="white" stroke="black" points="202,-410.5 202,-429.5 342,-429.5 342,-410.5 202,-410.5"/>
<text text-anchor="middle" x="272" y="-417.5" font-family="Helvetica,sans-Serif" font-size="10.00">hpp::constraints::Orientation</text>
</a>
</g>
</g>
<!-- Node1&#45;&gt;Node9 -->
<g id="edge8" class="edge"><title>Node1&#45;&gt;Node9</title>
<path fill="none" stroke="midnightblue" d="M160.218,-398.412C181.307,-402.521 203.241,-406.796 221.973,-410.446"/>
<polygon fill="midnightblue" stroke="midnightblue" points="160.762,-394.952 150.277,-396.475 159.423,-401.823 160.762,-394.952"/>
</g>
<!-- Node10 -->
<g id="node10" class="node"><title>Node10</title>
<g id="a_node10"><a xlink:href="a00025.html" target="_top" xlink:title="Constraint on the position of a robot point. ">
<polygon fill="white" stroke="black" points="208,-372.5 208,-391.5 336,-391.5 336,-372.5 208,-372.5"/>
<text text-anchor="middle" x="272" y="-379.5" font-family="Helvetica,sans-Serif" font-size="10.00">hpp::constraints::Position</text>
</a>
</g>
</g>
<!-- Node1&#45;&gt;Node10 -->
<g id="edge9" class="edge"><title>Node1&#45;&gt;Node10</title>
<path fill="none" stroke="midnightblue" d="M160.591,-382C176.415,-382 192.7,-382 207.74,-382"/>
<polygon fill="midnightblue" stroke="midnightblue" points="160.277,-378.5 150.277,-382 160.277,-385.5 160.277,-378.5"/>
</g>
<!-- Node11 -->
<g id="node11" class="node"><title>Node11</title>
<g id="a_node11"><a xlink:href="a00026.html" target="_top" xlink:title="hpp::constraints::QPStatic\lStability">
<polygon fill="white" stroke="black" points="206,-323 206,-353 338,-353 338,-323 206,-323"/>
<text text-anchor="start" x="214" y="-341" font-family="Helvetica,sans-Serif" font-size="10.00">hpp::constraints::QPStatic</text>
<text text-anchor="middle" x="272" y="-330" font-family="Helvetica,sans-Serif" font-size="10.00">Stability</text>
</a>
</g>
</g>
<!-- Node1&#45;&gt;Node11 -->
<g id="edge10" class="edge"><title>Node1&#45;&gt;Node11</title>
<path fill="none" stroke="midnightblue" d="M152.754,-364.681C170.277,-360.727 188.738,-356.562 205.728,-352.728"/>
<polygon fill="midnightblue" stroke="midnightblue" points="151.547,-361.365 142.563,-366.981 153.088,-368.194 151.547,-361.365"/>
</g>
<!-- Node12 -->
<g id="node12" class="node"><title>Node12</title>
<g id="a_node12"><a xlink:href="a00027.html" target="_top" xlink:title="Constraint on the relative position of the center of mass. ">
<polygon fill="white" stroke="black" points="197.5,-284.5 197.5,-303.5 346.5,-303.5 346.5,-284.5 197.5,-284.5"/>
<text text-anchor="middle" x="272" y="-291.5" font-family="Helvetica,sans-Serif" font-size="10.00">hpp::constraints::RelativeCom</text>
</a>
</g>
</g>
<!-- Node1&#45;&gt;Node12 -->
<g id="edge11" class="edge"><title>Node1&#45;&gt;Node12</title>
<path fill="none" stroke="midnightblue" d="M104.314,-360.93C125.754,-345.886 156.462,-326.224 186,-314 196.226,-309.768 207.531,-306.323 218.469,-303.561"/>
<polygon fill="midnightblue" stroke="midnightblue" points="102.117,-358.198 96.0078,-366.854 106.182,-363.897 102.117,-358.198"/>
</g>
<!-- Node13 -->
<g id="node13" class="node"><title>Node13</title>
<g id="a_node13"><a xlink:href="a00028.html" target="_top" xlink:title="Constraint on the relative orientation of two robot joints. ">
<polygon fill="white" stroke="black" points="208,-235 208,-265 336,-265 336,-235 208,-235"/>
<text text-anchor="start" x="216" y="-253" font-family="Helvetica,sans-Serif" font-size="10.00">hpp::constraints::Relative</text>
<text text-anchor="middle" x="272" y="-242" font-family="Helvetica,sans-Serif" font-size="10.00">Orientation</text>
</a>
</g>
</g>
<!-- Node1&#45;&gt;Node13 -->
<g id="edge12" class="edge"><title>Node1&#45;&gt;Node13</title>
<path fill="none" stroke="midnightblue" d="M93.9022,-358.882C113.868,-334.618 148.345,-297.003 186,-275 192.773,-271.042 200.221,-267.669 207.806,-264.805"/>
<polygon fill="midnightblue" stroke="midnightblue" points="91.0202,-356.88 87.4637,-366.861 96.4676,-361.277 91.0202,-356.88"/>
</g>
<!-- Node14 -->
<g id="node14" class="node"><title>Node14</title>
<g id="a_node14"><a xlink:href="a00029.html" target="_top" xlink:title="Constraint on the relative position of two robot joints. ">
<polygon fill="white" stroke="black" points="208,-186 208,-216 336,-216 336,-186 208,-186"/>
<text text-anchor="start" x="216" y="-204" font-family="Helvetica,sans-Serif" font-size="10.00">hpp::constraints::Relative</text>
<text text-anchor="middle" x="272" y="-193" font-family="Helvetica,sans-Serif" font-size="10.00">Position</text>
</a>
</g>
</g>
<!-- Node1&#45;&gt;Node14 -->
<g id="edge13" class="edge"><title>Node1&#45;&gt;Node14</title>
<path fill="none" stroke="midnightblue" d="M86.9461,-357.169C103.441,-322.617 137.932,-260.414 186,-226 192.629,-221.254 200.156,-217.402 207.926,-214.277"/>
<polygon fill="midnightblue" stroke="midnightblue" points="83.6318,-355.996 82.5917,-366.54 89.9799,-358.946 83.6318,-355.996"/>
</g>
<!-- Node15 -->
<g id="node15" class="node"><title>Node15</title>
<g id="a_node15"><a xlink:href="a00030.html" target="_top" xlink:title="Relative transformation of two fixed frames in robot joints. ">
<polygon fill="white" stroke="black" points="208,-137 208,-167 336,-167 336,-137 208,-137"/>
<text text-anchor="start" x="216" y="-155" font-family="Helvetica,sans-Serif" font-size="10.00">hpp::constraints::Relative</text>
<text text-anchor="middle" x="272" y="-144" font-family="Helvetica,sans-Serif" font-size="10.00">Transformation</text>
</a>
</g>
</g>
<!-- Node1&#45;&gt;Node15 -->
<g id="edge14" class="edge"><title>Node1&#45;&gt;Node15</title>
<path fill="none" stroke="midnightblue" d="M82.4994,-357.062C95.0541,-313.858 126.771,-225.11 186,-177 192.447,-171.763 199.957,-167.623 207.793,-164.35"/>
<polygon fill="midnightblue" stroke="midnightblue" points="79.1067,-356.198 79.7801,-366.772 85.8474,-358.086 79.1067,-356.198"/>
</g>
<!-- Node16 -->
<g id="node16" class="node"><title>Node16</title>
<g id="a_node16"><a xlink:href="a00034.html" target="_top" xlink:title="hpp::constraints::Static\lStability">
<polygon fill="white" stroke="black" points="213,-88 213,-118 331,-118 331,-88 213,-88"/>
<text text-anchor="start" x="221" y="-106" font-family="Helvetica,sans-Serif" font-size="10.00">hpp::constraints::Static</text>
<text text-anchor="middle" x="272" y="-95" font-family="Helvetica,sans-Serif" font-size="10.00">Stability</text>
</a>
</g>
</g>
<!-- Node1&#45;&gt;Node16 -->
<g id="edge15" class="edge"><title>Node1&#45;&gt;Node16</title>
<path fill="none" stroke="midnightblue" d="M79.7156,-356.687C88.5446,-305.718 115.571,-190.281 186,-128 193.605,-121.275 202.938,-116.356 212.604,-112.758"/>
<polygon fill="midnightblue" stroke="midnightblue" points="76.2185,-356.385 78.0561,-366.819 83.1265,-357.517 76.2185,-356.385"/>
</g>
<!-- Node17 -->
<g id="node17" class="node"><title>Node17</title>
<g id="a_node17"><a xlink:href="a00036.html" target="_top" xlink:title="hpp::constraints::Symbolic\lFunction\&lt; Expression \&gt;">
<polygon fill="white" stroke="black" points="205.5,-39 205.5,-69 338.5,-69 338.5,-39 205.5,-39"/>
<text text-anchor="start" x="213.5" y="-57" font-family="Helvetica,sans-Serif" font-size="10.00">hpp::constraints::Symbolic</text>
<text text-anchor="middle" x="272" y="-46" font-family="Helvetica,sans-Serif" font-size="10.00">Function&lt; Expression &gt;</text>
</a>
</g>
</g>
<!-- Node1&#45;&gt;Node17 -->
<g id="edge16" class="edge"><title>Node1&#45;&gt;Node17</title>
<path fill="none" stroke="midnightblue" d="M77.6958,-356.756C82.9559,-298.95 104.008,-156.045 186,-79 191.605,-73.7334 198.263,-69.5703 205.349,-66.2807"/>
<polygon fill="midnightblue" stroke="midnightblue" points="74.1987,-356.577 76.8634,-366.831 81.1749,-357.153 74.1987,-356.577"/>
</g>
<!-- Node18 -->
<g id="node18" class="node"><title>Node18</title>
<g id="a_node18"><a xlink:href="a00041.html" target="_top" xlink:title="Constraint on the transformation of one robot joint. ">
<polygon fill="white" stroke="black" points="193,-0.5 193,-19.5 351,-19.5 351,-0.5 193,-0.5"/>
<text text-anchor="middle" x="272" y="-7.5" font-family="Helvetica,sans-Serif" font-size="10.00">hpp::constraints::Transformation</text>
</a>
</g>
</g>
<!-- Node1&#45;&gt;Node18 -->
<g id="edge17" class="edge"><title>Node1&#45;&gt;Node18</title>
<path fill="none" stroke="midnightblue" d="M75.907,-356.875C77.1058,-292.364 89.6357,-119.683 186,-30 190.55,-25.7655 195.823,-22.3744 201.47,-19.665"/>
<polygon fill="midnightblue" stroke="midnightblue" points="72.4065,-356.911 75.7986,-366.948 79.4061,-356.986 72.4065,-356.911"/>
</g>
</g>
</svg>
