<?xml version="1.0" encoding="UTF-8" standalone="no"?>
<!DOCTYPE svg PUBLIC "-//W3C//DTD SVG 1.1//EN"
 "http://www.w3.org/Graphics/SVG/1.1/DTD/svg11.dtd">
<!-- Generated by graphviz version 2.36.0 (20140111.2315)
 -->
<!-- Title: symbolic&#45;calculus.hh Pages: 1 -->
<svg width="945pt" height="276pt"
 viewBox="0.00 0.00 945.00 276.00" xmlns="http://www.w3.org/2000/svg" xmlns:xlink="http://www.w3.org/1999/xlink">
<g id="graph0" class="graph" transform="scale(1 1) rotate(0) translate(4 272)">
<title>symbolic&#45;calculus.hh</title>
<polygon fill="white" stroke="none" points="-4,4 -4,-272 941,-272 941,4 -4,4"/>
<!-- Node1 -->
<g id="node1" class="node"><title>Node1</title>
<polygon fill="#bfbfbf" stroke="black" points="270,-248.5 270,-267.5 378,-267.5 378,-248.5 270,-248.5"/>
<text text-anchor="middle" x="324" y="-255.5" font-family="Helvetica,sans-Serif" font-size="10.00">symbolic&#45;calculus.hh</text>
</g>
<!-- Node2 -->
<g id="node2" class="node"><title>Node2</title>
<polygon fill="white" stroke="#bfbfbf" points="-0.5,-124.5 -0.5,-143.5 64.5,-143.5 64.5,-124.5 -0.5,-124.5"/>
<text text-anchor="middle" x="32" y="-131.5" font-family="Helvetica,sans-Serif" font-size="10.00">Eigen/SVD</text>
</g>
<!-- Node1&#45;&gt;Node2 -->
<g id="edge1" class="edge"><title>Node1&#45;&gt;Node2</title>
<path fill="none" stroke="midnightblue" d="M269.921,-256.191C195.843,-253.846 68.4978,-244.984 38,-212 23.7375,-196.575 24.6857,-171.188 27.5682,-153.812"/>
<polygon fill="midnightblue" stroke="midnightblue" points="31.0544,-154.229 29.6013,-143.735 24.1927,-152.845 31.0544,-154.229"/>
</g>
<!-- Node3 -->
<g id="node3" class="node"><title>Node3</title>
<g id="a_node3"><a xlink:href="a00001.html" target="_top" xlink:title="hpp/constraints/fwd.hh">
<polygon fill="white" stroke="black" points="96,-124.5 96,-143.5 212,-143.5 212,-124.5 96,-124.5"/>
<text text-anchor="middle" x="154" y="-131.5" font-family="Helvetica,sans-Serif" font-size="10.00">hpp/constraints/fwd.hh</text>
</a>
</g>
</g>
<!-- Node1&#45;&gt;Node3 -->
<g id="edge2" class="edge"><title>Node1&#45;&gt;Node3</title>
<path fill="none" stroke="midnightblue" d="M288.823,-248.465C265.12,-241.468 234.087,-229.781 211,-212 189.961,-195.797 172.993,-169.853 163.202,-152.622"/>
<polygon fill="midnightblue" stroke="midnightblue" points="166.153,-150.723 158.29,-143.623 160.009,-154.077 166.153,-150.723"/>
</g>
<!-- Node6 -->
<g id="node6" class="node"><title>Node6</title>
<g id="a_node6"><a doxygen="https://jmirabel.github.io/hpp-doc/api/hpp-model/doxygen-html/hpp-model.doxytag:https://jmirabel.github.io/hpp-doc/api/hpp-model/doxygen-html/" xlink:href="https://jmirabel.github.io/hpp-doc/api/hpp-model/doxygen-html/a00041.html" target="_top" xlink:title="hpp/model/joint.hh">
<polygon fill="white" stroke="black" points="230,-124.5 230,-143.5 326,-143.5 326,-124.5 230,-124.5"/>
<text text-anchor="middle" x="278" y="-131.5" font-family="Helvetica,sans-Serif" font-size="10.00">hpp/model/joint.hh</text>
</a>
</g>
</g>
<!-- Node1&#45;&gt;Node6 -->
<g id="edge5" class="edge"><title>Node1&#45;&gt;Node6</title>
<path fill="none" stroke="midnightblue" d="M331.051,-248.488C342.283,-233.826 361.736,-203.151 349,-180 341.113,-165.663 326.514,-155.253 312.597,-148.079"/>
<polygon fill="midnightblue" stroke="midnightblue" points="313.698,-144.728 303.161,-143.622 310.708,-151.058 313.698,-144.728"/>
</g>
<!-- Node7 -->
<g id="node7" class="node"><title>Node7</title>
<g id="a_node7"><a doxygen="https://jmirabel.github.io/hpp-doc/api/hpp-model/doxygen-html/hpp-model.doxytag:https://jmirabel.github.io/hpp-doc/api/hpp-model/doxygen-html/" xlink:href="https://jmirabel.github.io/hpp-doc/api/hpp-model/doxygen-html/a00036.html" target="_top" xlink:title="hpp/model/fcl&#45;to&#45;eigen.hh">
<polygon fill="white" stroke="black" points="344,-124.5 344,-143.5 470,-143.5 470,-124.5 344,-124.5"/>
<text text-anchor="middle" x="407" y="-131.5" font-family="Helvetica,sans-Serif" font-size="10.00">hpp/model/fcl&#45;to&#45;eigen.hh</text>
</a>
</g>
</g>
<!-- Node1&#45;&gt;Node7 -->
<g id="edge7" class="edge"><title>Node1&#45;&gt;Node7</title>
<path fill="none" stroke="midnightblue" d="M333.439,-248.306C342.489,-239.662 356.188,-225.741 366,-212 379.573,-192.992 391.672,-168.942 399.147,-152.822"/>
<polygon fill="midnightblue" stroke="midnightblue" points="402.428,-154.061 403.361,-143.508 396.05,-151.176 402.428,-154.061"/>
</g>
<!-- Node8 -->
<g id="node8" class="node"><title>Node8</title>
<g id="a_node8"><a doxygen="https://jmirabel.github.io/hpp-doc/api/hpp-model/doxygen-html/hpp-model.doxytag:https://jmirabel.github.io/hpp-doc/api/hpp-model/doxygen-html/" xlink:href="https://jmirabel.github.io/hpp-doc/api/hpp-model/doxygen-html/a00028.html" target="_top" xlink:title="hpp/model/center&#45;of\l&#45;mass&#45;computation.hh">
<polygon fill="white" stroke="black" points="438.5,-181 438.5,-211 551.5,-211 551.5,-181 438.5,-181"/>
<text text-anchor="start" x="446.5" y="-199" font-family="Helvetica,sans-Serif" font-size="10.00">hpp/model/center&#45;of</text>
<text text-anchor="middle" x="495" y="-188" font-family="Helvetica,sans-Serif" font-size="10.00">&#45;mass&#45;computation.hh</text>
</a>
</g>
</g>
<!-- Node1&#45;&gt;Node8 -->
<g id="edge9" class="edge"><title>Node1&#45;&gt;Node8</title>
<path fill="none" stroke="midnightblue" d="M348.5,-248.403C373.691,-239.564 413.624,-225.553 445.44,-214.39"/>
<polygon fill="midnightblue" stroke="midnightblue" points="446.751,-217.639 455.028,-211.025 444.433,-211.034 446.751,-217.639"/>
</g>
<!-- Node13 -->
<g id="node13" class="node"><title>Node13</title>
<g id="a_node13"><a xlink:href="a00061.html" target="_top" xlink:title="hpp/constraints/svd.hh">
<polygon fill="white" stroke="black" points="47,-186.5 47,-205.5 163,-205.5 163,-186.5 47,-186.5"/>
<text text-anchor="middle" x="105" y="-193.5" font-family="Helvetica,sans-Serif" font-size="10.00">hpp/constraints/svd.hh</text>
</a>
</g>
</g>
<!-- Node1&#45;&gt;Node13 -->
<g id="edge19" class="edge"><title>Node1&#45;&gt;Node13</title>
<path fill="none" stroke="midnightblue" d="M292.623,-248.403C254.081,-237.844 188.595,-219.903 146.076,-208.254"/>
<polygon fill="midnightblue" stroke="midnightblue" points="146.889,-204.847 136.319,-205.581 145.039,-211.599 146.889,-204.847"/>
</g>
<!-- Node14 -->
<g id="node14" class="node"><title>Node14</title>
<g id="a_node14"><a xlink:href="a00064.html" target="_top" xlink:title="hpp/constraints/tools.hh">
<polygon fill="white" stroke="black" points="219.5,-186.5 219.5,-205.5 340.5,-205.5 340.5,-186.5 219.5,-186.5"/>
<text text-anchor="middle" x="280" y="-193.5" font-family="Helvetica,sans-Serif" font-size="10.00">hpp/constraints/tools.hh</text>
</a>
</g>
</g>
<!-- Node1&#45;&gt;Node14 -->
<g id="edge22" class="edge"><title>Node1&#45;&gt;Node14</title>
<path fill="none" stroke="midnightblue" d="M317.696,-248.403C311.096,-239.403 300.563,-225.041 292.307,-213.782"/>
<polygon fill="midnightblue" stroke="midnightblue" points="295.029,-211.575 286.292,-205.581 289.384,-215.714 295.029,-211.575"/>
</g>
<!-- Node15 -->
<g id="node15" class="node"><title>Node15</title>
<g id="a_node15"><a xlink:href="a00051.html" target="_top" xlink:title="hpp/constraints/macros.hh">
<polygon fill="white" stroke="black" points="570,-186.5 570,-205.5 702,-205.5 702,-186.5 570,-186.5"/>
<text text-anchor="middle" x="636" y="-193.5" font-family="Helvetica,sans-Serif" font-size="10.00">hpp/constraints/macros.hh</text>
</a>
</g>
</g>
<!-- Node1&#45;&gt;Node15 -->
<g id="edge24" class="edge"><title>Node1&#45;&gt;Node15</title>
<path fill="none" stroke="midnightblue" d="M369.259,-248.46C416.779,-239.472 493.666,-224.87 560,-212 567.436,-210.557 575.278,-209.023 582.989,-207.508"/>
<polygon fill="midnightblue" stroke="midnightblue" points="583.868,-210.902 593.003,-205.536 582.515,-204.034 583.868,-210.902"/>
</g>
<!-- Node4 -->
<g id="node4" class="node"><title>Node4</title>
<g id="a_node4"><a doxygen="https://jmirabel.github.io/hpp-doc/api/hpp-model/doxygen-html/hpp-model.doxytag:https://jmirabel.github.io/hpp-doc/api/hpp-model/doxygen-html/" xlink:href="https://jmirabel.github.io/hpp-doc/api/hpp-model/doxygen-html/a00037.html" target="_top" xlink:title="hpp/model/fwd.hh">
<polygon fill="white" stroke="black" points="452,-0.5 452,-19.5 546,-19.5 546,-0.5 452,-0.5"/>
<text text-anchor="middle" x="499" y="-7.5" font-family="Helvetica,sans-Serif" font-size="10.00">hpp/model/fwd.hh</text>
</a>
</g>
</g>
<!-- Node3&#45;&gt;Node4 -->
<g id="edge3" class="edge"><title>Node3&#45;&gt;Node4</title>
<path fill="none" stroke="midnightblue" d="M153.285,-124.285C152.489,-108.157 153.354,-73.6892 173,-56 211.518,-21.3197 359.184,-13.1939 441.94,-11.4025"/>
<polygon fill="midnightblue" stroke="midnightblue" points="442.013,-14.9018 451.944,-11.2099 441.878,-7.90314 442.013,-14.9018"/>
</g>
<!-- Node5 -->
<g id="node5" class="node"><title>Node5</title>
<polygon fill="white" stroke="#bfbfbf" points="182,-62.5 182,-81.5 330,-81.5 330,-62.5 182,-62.5"/>
<text text-anchor="middle" x="256" y="-69.5" font-family="Helvetica,sans-Serif" font-size="10.00">hpp/constraints/deprecated.hh</text>
</g>
<!-- Node3&#45;&gt;Node5 -->
<g id="edge4" class="edge"><title>Node3&#45;&gt;Node5</title>
<path fill="none" stroke="midnightblue" d="M168.614,-124.403C185.353,-114.557 213.004,-98.2915 232.719,-86.6949"/>
<polygon fill="midnightblue" stroke="midnightblue" points="234.568,-89.6676 241.413,-81.5806 231.019,-83.6341 234.568,-89.6676"/>
</g>
<!-- Node6&#45;&gt;Node4 -->
<g id="edge6" class="edge"><title>Node6&#45;&gt;Node4</title>
<path fill="none" stroke="midnightblue" d="M293.54,-124.421C331.423,-103.508 428.769,-49.7698 474.534,-24.5061"/>
<polygon fill="midnightblue" stroke="midnightblue" points="476.414,-27.4664 483.477,-19.5693 473.031,-21.3381 476.414,-27.4664"/>
</g>
<!-- Node7&#45;&gt;Node4 -->
<g id="edge8" class="edge"><title>Node7&#45;&gt;Node4</title>
<path fill="none" stroke="midnightblue" d="M413.616,-124.226C428.801,-104.09 466.366,-54.2759 486.224,-27.9425"/>
<polygon fill="midnightblue" stroke="midnightblue" points="489.217,-29.7861 492.444,-19.6944 483.628,-25.5714 489.217,-29.7861"/>
</g>
<!-- Node8&#45;&gt;Node4 -->
<g id="edge10" class="edge"><title>Node8&#45;&gt;Node4</title>
<path fill="none" stroke="midnightblue" d="M495.307,-180.867C496.017,-148.216 497.772,-67.4974 498.58,-30.3169"/>
<polygon fill="midnightblue" stroke="midnightblue" points="502.088,-29.9649 498.807,-19.8912 495.09,-29.8127 502.088,-29.9649"/>
</g>
<!-- Node9 -->
<g id="node9" class="node"><title>Node9</title>
<g id="a_node9"><a doxygen="https://jmirabel.github.io/hpp-doc/api/hpp-model/doxygen-html/hpp-model.doxytag:https://jmirabel.github.io/hpp-doc/api/hpp-model/doxygen-html/" xlink:href="https://jmirabel.github.io/hpp-doc/api/hpp-model/doxygen-html/a00033.html" target="_top" xlink:title="hpp/model/device.hh">
<polygon fill="white" stroke="black" points="543.5,-124.5 543.5,-143.5 650.5,-143.5 650.5,-124.5 543.5,-124.5"/>
<text text-anchor="middle" x="597" y="-131.5" font-family="Helvetica,sans-Serif" font-size="10.00">hpp/model/device.hh</text>
</a>
</g>
</g>
<!-- Node8&#45;&gt;Node9 -->
<g id="edge11" class="edge"><title>Node8&#45;&gt;Node9</title>
<path fill="none" stroke="midnightblue" d="M518.914,-180.933C535.355,-171.262 557.085,-158.479 573.447,-148.855"/>
<polygon fill="midnightblue" stroke="midnightblue" points="575.535,-151.687 582.38,-143.6 571.986,-145.654 575.535,-151.687"/>
</g>
<!-- Node9&#45;&gt;Node4 -->
<g id="edge12" class="edge"><title>Node9&#45;&gt;Node4</title>
<path fill="none" stroke="midnightblue" d="M582.155,-124.366C569.219,-116.265 550.607,-103.151 538,-88 523.218,-70.2361 512.093,-45.9309 505.583,-29.4123"/>
<polygon fill="midnightblue" stroke="midnightblue" points="508.775,-27.9569 501.979,-19.8286 502.223,-30.4207 508.775,-27.9569"/>
</g>
<!-- Node10 -->
<g id="node10" class="node"><title>Node10</title>
<g id="a_node10"><a doxygen="https://jmirabel.github.io/hpp-doc/api/hpp-model/doxygen-html/hpp-model.doxytag:https://jmirabel.github.io/hpp-doc/api/hpp-model/doxygen-html/" xlink:href="https://jmirabel.github.io/hpp-doc/api/hpp-model/doxygen-html/a00034.html" target="_top" xlink:title="hpp/model/distance\l&#45;result.hh">
<polygon fill="white" stroke="black" points="546.5,-57 546.5,-87 647.5,-87 647.5,-57 546.5,-57"/>
<text text-anchor="start" x="554.5" y="-75" font-family="Helvetica,sans-Serif" font-size="10.00">hpp/model/distance</text>
<text text-anchor="middle" x="597" y="-64" font-family="Helvetica,sans-Serif" font-size="10.00">&#45;result.hh</text>
</a>
</g>
</g>
<!-- Node9&#45;&gt;Node10 -->
<g id="edge13" class="edge"><title>Node9&#45;&gt;Node10</title>
<path fill="none" stroke="midnightblue" d="M597,-124.403C597,-117.341 597,-106.975 597,-97.399"/>
<polygon fill="midnightblue" stroke="midnightblue" points="600.5,-97.1408 597,-87.1408 593.5,-97.1408 600.5,-97.1408"/>
</g>
<!-- Node11 -->
<g id="node11" class="node"><title>Node11</title>
<g id="a_node11"><a doxygen="https://jmirabel.github.io/hpp-doc/api/hpp-model/doxygen-html/hpp-model.doxytag:https://jmirabel.github.io/hpp-doc/api/hpp-model/doxygen-html/" xlink:href="https://jmirabel.github.io/hpp-doc/api/hpp-model/doxygen-html/a00035.html" target="_top" xlink:title="hpp/model/extra&#45;config\l&#45;space.hh">
<polygon fill="white" stroke="black" points="666,-57 666,-87 782,-87 782,-57 666,-57"/>
<text text-anchor="start" x="674" y="-75" font-family="Helvetica,sans-Serif" font-size="10.00">hpp/model/extra&#45;config</text>
<text text-anchor="middle" x="724" y="-64" font-family="Helvetica,sans-Serif" font-size="10.00">&#45;space.hh</text>
</a>
</g>
</g>
<!-- Node9&#45;&gt;Node11 -->
<g id="edge15" class="edge"><title>Node9&#45;&gt;Node11</title>
<path fill="none" stroke="midnightblue" d="M615.196,-124.403C633.281,-115.86 661.594,-102.483 684.805,-91.5171"/>
<polygon fill="midnightblue" stroke="midnightblue" points="686.522,-94.5772 694.069,-87.1408 683.532,-88.2479 686.522,-94.5772"/>
</g>
<!-- Node12 -->
<g id="node12" class="node"><title>Node12</title>
<g id="a_node12"><a doxygen="https://jmirabel.github.io/hpp-doc/api/hpp-model/doxygen-html/hpp-model.doxytag:https://jmirabel.github.io/hpp-doc/api/hpp-model/doxygen-html/" xlink:href="https://jmirabel.github.io/hpp-doc/api/hpp-model/doxygen-html/a00044.html" target="_top" xlink:title="hpp/model/object&#45;iterator.hh">
<polygon fill="white" stroke="black" points="800.5,-62.5 800.5,-81.5 937.5,-81.5 937.5,-62.5 800.5,-62.5"/>
<text text-anchor="middle" x="869" y="-69.5" font-family="Helvetica,sans-Serif" font-size="10.00">hpp/model/object&#45;iterator.hh</text>
</a>
</g>
</g>
<!-- Node9&#45;&gt;Node12 -->
<g id="edge17" class="edge"><title>Node9&#45;&gt;Node12</title>
<path fill="none" stroke="midnightblue" d="M635.682,-124.467C684.321,-113.738 767.836,-95.3157 820.642,-83.6673"/>
<polygon fill="midnightblue" stroke="midnightblue" points="821.44,-87.0754 830.451,-81.5034 819.932,-80.2397 821.44,-87.0754"/>
</g>
<!-- Node10&#45;&gt;Node4 -->
<g id="edge14" class="edge"><title>Node10&#45;&gt;Node4</title>
<path fill="none" stroke="midnightblue" d="M573.775,-56.7808C557.972,-47.1054 537.168,-34.3684 521.517,-24.7861"/>
<polygon fill="midnightblue" stroke="midnightblue" points="523.33,-21.7923 512.974,-19.5557 519.675,-27.7623 523.33,-21.7923"/>
</g>
<!-- Node11&#45;&gt;Node4 -->
<g id="edge16" class="edge"><title>Node11&#45;&gt;Node4</title>
<path fill="none" stroke="midnightblue" d="M671.247,-56.9327C631.474,-46.3264 577.665,-31.9772 540.835,-22.1559"/>
<polygon fill="midnightblue" stroke="midnightblue" points="541.487,-18.7076 530.923,-19.5127 539.683,-25.4712 541.487,-18.7076"/>
</g>
<!-- Node12&#45;&gt;Node4 -->
<g id="edge18" class="edge"><title>Node12&#45;&gt;Node4</title>
<path fill="none" stroke="midnightblue" d="M825.585,-62.4802C814.035,-60.2892 801.557,-57.9901 790,-56 709.087,-42.0664 615.163,-27.9041 556.4,-19.2843"/>
<polygon fill="midnightblue" stroke="midnightblue" points="556.608,-15.7775 546.206,-17.7928 555.594,-22.7037 556.608,-15.7775"/>
</g>
<!-- Node13&#45;&gt;Node2 -->
<g id="edge21" class="edge"><title>Node13&#45;&gt;Node2</title>
<path fill="none" stroke="midnightblue" d="M94.5409,-186.403C83.0487,-176.958 64.3702,-161.606 50.4132,-150.134"/>
<polygon fill="midnightblue" stroke="midnightblue" points="52.3875,-147.226 42.4397,-143.581 47.9428,-152.634 52.3875,-147.226"/>
</g>
<!-- Node13&#45;&gt;Node3 -->
<g id="edge20" class="edge"><title>Node13&#45;&gt;Node3</title>
<path fill="none" stroke="midnightblue" d="M112.021,-186.403C119.443,-177.314 131.333,-162.756 140.567,-151.449"/>
<polygon fill="midnightblue" stroke="midnightblue" points="143.378,-153.54 146.993,-143.581 137.956,-149.112 143.378,-153.54"/>
</g>
<!-- Node14&#45;&gt;Node3 -->
<g id="edge23" class="edge"><title>Node14&#45;&gt;Node3</title>
<path fill="none" stroke="midnightblue" d="M261.947,-186.403C240.802,-176.334 205.56,-159.552 181.122,-147.915"/>
<polygon fill="midnightblue" stroke="midnightblue" points="182.553,-144.72 172.019,-143.581 179.543,-151.04 182.553,-144.72"/>
</g>
</g>
</svg>
