<?xml version="1.0" encoding="UTF-8" standalone="no"?>
<!DOCTYPE svg PUBLIC "-//W3C//DTD SVG 1.1//EN"
 "http://www.w3.org/Graphics/SVG/1.1/DTD/svg11.dtd">
<!-- Generated by graphviz version 2.36.0 (20140111.2315)
 -->
<!-- Title: hpp::constraints::Point Pages: 1 -->
<svg width="154pt" height="184pt"
 viewBox="0.00 0.00 154.00 184.00" xmlns="http://www.w3.org/2000/svg" xmlns:xlink="http://www.w3.org/1999/xlink">
<g id="graph0" class="graph" transform="scale(1 1) rotate(0) translate(4 180)">
<title>hpp::constraints::Point</title>
<polygon fill="white" stroke="none" points="-4,4 -4,-180 150,-180 150,4 -4,4"/>
<!-- Node1 -->
<g id="node1" class="node"><title>Node1</title>
<polygon fill="#bfbfbf" stroke="black" points="15.5,-0.5 15.5,-19.5 130.5,-19.5 130.5,-0.5 15.5,-0.5"/>
<text text-anchor="middle" x="73" y="-7.5" font-family="Helvetica,sans-Serif" font-size="10.00">hpp::constraints::Point</text>
</g>
<!-- Node2 -->
<g id="node2" class="node"><title>Node2</title>
<g id="a_node2"><a xlink:href="a00002.html" target="_top" xlink:title="hpp::constraints::Calculus\lBase\&lt; Point, eigen::vector3\l_t, JacobianMatrix \&gt;">
<polygon fill="white" stroke="black" points="4,-56.5 4,-97.5 142,-97.5 142,-56.5 4,-56.5"/>
<text text-anchor="start" x="12" y="-85.5" font-family="Helvetica,sans-Serif" font-size="10.00">hpp::constraints::Calculus</text>
<text text-anchor="start" x="12" y="-74.5" font-family="Helvetica,sans-Serif" font-size="10.00">Base&lt; Point, eigen::vector3</text>
<text text-anchor="middle" x="73" y="-63.5" font-family="Helvetica,sans-Serif" font-size="10.00">_t, JacobianMatrix &gt;</text>
</a>
</g>
</g>
<!-- Node2&#45;&gt;Node1 -->
<g id="edge1" class="edge"><title>Node2&#45;&gt;Node1</title>
<path fill="none" stroke="midnightblue" d="M73,-46.2632C73,-36.5592 73,-26.5242 73,-19.6525"/>
<polygon fill="midnightblue" stroke="midnightblue" points="69.5001,-46.4978 73,-56.4979 76.5001,-46.4979 69.5001,-46.4978"/>
</g>
<!-- Node3 -->
<g id="node3" class="node"><title>Node3</title>
<g id="a_node3"><a xlink:href="a00003.html" target="_top" xlink:title="hpp::constraints::Calculus\lBaseAbstract\&lt; eigen::vector3\l_t, JacobianMatrix \&gt;">
<polygon fill="white" stroke="black" points="0,-134.5 0,-175.5 146,-175.5 146,-134.5 0,-134.5"/>
<text text-anchor="start" x="8" y="-163.5" font-family="Helvetica,sans-Serif" font-size="10.00">hpp::constraints::Calculus</text>
<text text-anchor="start" x="8" y="-152.5" font-family="Helvetica,sans-Serif" font-size="10.00">BaseAbstract&lt; eigen::vector3</text>
<text text-anchor="middle" x="73" y="-141.5" font-family="Helvetica,sans-Serif" font-size="10.00">_t, JacobianMatrix &gt;</text>
</a>
</g>
</g>
<!-- Node3&#45;&gt;Node2 -->
<g id="edge2" class="edge"><title>Node3&#45;&gt;Node2</title>
<path fill="none" stroke="midnightblue" d="M73,-124.297C73,-115.301 73,-105.653 73,-97.5056"/>
<polygon fill="midnightblue" stroke="midnightblue" points="69.5001,-124.428 73,-134.428 76.5001,-124.428 69.5001,-124.428"/>
</g>
</g>
</svg>
