<?xml version="1.0" encoding="UTF-8" standalone="no"?>
<!DOCTYPE svg PUBLIC "-//W3C//DTD SVG 1.1//EN"
 "http://www.w3.org/Graphics/SVG/1.1/DTD/svg11.dtd">
<!-- Generated by graphviz version 2.36.0 (20140111.2315)
 -->
<!-- Title: symbolic&#45;calculus.hh Pages: 1 -->
<svg width="350pt" height="140pt"
 viewBox="0.00 0.00 350.00 140.00" xmlns="http://www.w3.org/2000/svg" xmlns:xlink="http://www.w3.org/1999/xlink">
<g id="graph0" class="graph" transform="scale(1 1) rotate(0) translate(4 136)">
<title>symbolic&#45;calculus.hh</title>
<polygon fill="white" stroke="none" points="-4,4 -4,-136 346,-136 346,4 -4,4"/>
<!-- Node1 -->
<g id="node1" class="node"><title>Node1</title>
<polygon fill="#bfbfbf" stroke="black" points="118,-112.5 118,-131.5 226,-131.5 226,-112.5 118,-112.5"/>
<text text-anchor="middle" x="172" y="-119.5" font-family="Helvetica,sans-Serif" font-size="10.00">symbolic&#45;calculus.hh</text>
</g>
<!-- Node2 -->
<g id="node2" class="node"><title>Node2</title>
<g id="a_node2"><a xlink:href="a00043.html" target="_top" xlink:title="com&#45;between&#45;feet.hh">
<polygon fill="white" stroke="black" points="0,-56.5 0,-75.5 108,-75.5 108,-56.5 0,-56.5"/>
<text text-anchor="middle" x="54" y="-63.5" font-family="Helvetica,sans-Serif" font-size="10.00">com&#45;between&#45;feet.hh</text>
</a>
</g>
</g>
<!-- Node1&#45;&gt;Node2 -->
<g id="edge1" class="edge"><title>Node1&#45;&gt;Node2</title>
<path fill="none" stroke="midnightblue" d="M144.1,-108.232C122.027,-98.1312 91.8237,-84.3091 72.61,-75.5164"/>
<polygon fill="midnightblue" stroke="midnightblue" points="142.753,-111.465 153.303,-112.444 145.666,-105.1 142.753,-111.465"/>
</g>
<!-- Node3 -->
<g id="node3" class="node"><title>Node3</title>
<g id="a_node3"><a xlink:href="a00060.html" target="_top" xlink:title="static&#45;stability.hh">
<polygon fill="white" stroke="black" points="126.5,-56.5 126.5,-75.5 217.5,-75.5 217.5,-56.5 126.5,-56.5"/>
<text text-anchor="middle" x="172" y="-63.5" font-family="Helvetica,sans-Serif" font-size="10.00">static&#45;stability.hh</text>
</a>
</g>
</g>
<!-- Node1&#45;&gt;Node3 -->
<g id="edge2" class="edge"><title>Node1&#45;&gt;Node3</title>
<path fill="none" stroke="midnightblue" d="M172,-101.805C172,-92.9102 172,-82.7798 172,-75.7511"/>
<polygon fill="midnightblue" stroke="midnightblue" points="168.5,-102.083 172,-112.083 175.5,-102.083 168.5,-102.083"/>
</g>
<!-- Node5 -->
<g id="node5" class="node"><title>Node5</title>
<g id="a_node5"><a xlink:href="a00063.html" target="_top" xlink:title="symbolic&#45;function.hh">
<polygon fill="white" stroke="black" points="235.5,-56.5 235.5,-75.5 342.5,-75.5 342.5,-56.5 235.5,-56.5"/>
<text text-anchor="middle" x="289" y="-63.5" font-family="Helvetica,sans-Serif" font-size="10.00">symbolic&#45;function.hh</text>
</a>
</g>
</g>
<!-- Node1&#45;&gt;Node5 -->
<g id="edge4" class="edge"><title>Node1&#45;&gt;Node5</title>
<path fill="none" stroke="midnightblue" d="M199.664,-108.232C221.549,-98.1312 251.497,-84.3091 270.548,-75.5164"/>
<polygon fill="midnightblue" stroke="midnightblue" points="198.152,-105.075 190.539,-112.444 201.085,-111.431 198.152,-105.075"/>
</g>
<!-- Node4 -->
<g id="node4" class="node"><title>Node4</title>
<g id="a_node4"><a xlink:href="a00055.html" target="_top" xlink:title="qp&#45;static&#45;stability.hh">
<polygon fill="white" stroke="black" points="120,-0.5 120,-19.5 224,-19.5 224,-0.5 120,-0.5"/>
<text text-anchor="middle" x="172" y="-7.5" font-family="Helvetica,sans-Serif" font-size="10.00">qp&#45;static&#45;stability.hh</text>
</a>
</g>
</g>
<!-- Node3&#45;&gt;Node4 -->
<g id="edge3" class="edge"><title>Node3&#45;&gt;Node4</title>
<path fill="none" stroke="midnightblue" d="M172,-45.8045C172,-36.9102 172,-26.7798 172,-19.7511"/>
<polygon fill="midnightblue" stroke="midnightblue" points="168.5,-46.083 172,-56.083 175.5,-46.083 168.5,-46.083"/>
</g>
</g>
</svg>
