<?xml version="1.0" encoding="UTF-8" standalone="no"?>
<!DOCTYPE svg PUBLIC "-//W3C//DTD SVG 1.1//EN"
 "http://www.w3.org/Graphics/SVG/1.1/DTD/svg11.dtd">
<!-- Generated by graphviz version 2.36.0 (20140111.2315)
 -->
<!-- Title: hpp::constraints::JointTranspose Pages: 1 -->
<svg width="166pt" height="164pt"
 viewBox="0.00 0.00 166.00 164.00" xmlns="http://www.w3.org/2000/svg" xmlns:xlink="http://www.w3.org/1999/xlink">
<g id="graph0" class="graph" transform="scale(1 1) rotate(0) translate(4 160)">
<title>hpp::constraints::JointTranspose</title>
<polygon fill="white" stroke="none" points="-4,4 -4,-160 162,-160 162,4 -4,4"/>
<!-- Node1 -->
<g id="node1" class="node"><title>Node1</title>
<polygon fill="#bfbfbf" stroke="black" points="-0.5,-0.5 -0.5,-19.5 158.5,-19.5 158.5,-0.5 -0.5,-0.5"/>
<text text-anchor="middle" x="79" y="-7.5" font-family="Helvetica,sans-Serif" font-size="10.00">hpp::constraints::JointTranspose</text>
</g>
<!-- Node2 -->
<g id="node2" class="node"><title>Node2</title>
<g id="a_node2"><a doxygen="https://jmirabel.github.io/hpp-doc/api/hpp-model/doxygen-html/hpp-model.doxytag:https://jmirabel.github.io/hpp-doc/api/hpp-model/doxygen-html/" xlink:href="https://jmirabel.github.io/hpp-doc/api/hpp-model/doxygen-html/a00013.html" target="_top" xlink:title="hpp::model::Joint">
<polygon fill="white" stroke="black" points="33,-68.5 33,-87.5 125,-87.5 125,-68.5 33,-68.5"/>
<text text-anchor="middle" x="79" y="-75.5" font-family="Helvetica,sans-Serif" font-size="10.00">hpp::model::Joint</text>
</a>
</g>
</g>
<!-- Node2&#45;&gt;Node1 -->
<g id="edge1" class="edge"><title>Node2&#45;&gt;Node1</title>
<path fill="none" stroke="#9a32cd" stroke-dasharray="5,2" d="M79,-58.0413C79,-45.4724 79,-29.5631 79,-19.8411"/>
<polygon fill="#9a32cd" stroke="#9a32cd" points="75.5001,-58.3716 79,-68.3717 82.5001,-58.3717 75.5001,-58.3716"/>
<text text-anchor="middle" x="84.5" y="-41.5" font-family="Helvetica,sans-Serif" font-size="10.00"> j_</text>
</g>
<!-- Node3 -->
<g id="node3" class="node"><title>Node3</title>
<g id="a_node3"><a doxygen="https://jmirabel.github.io/hpp-doc/api/hpp-model/doxygen-html/hpp-model.doxytag:https://jmirabel.github.io/hpp-doc/api/hpp-model/doxygen-html/" xlink:href="https://jmirabel.github.io/hpp-doc/api/hpp-model/doxygen-html/a00015.html" target="_top" xlink:title="hpp::model::JointConfiguration">
<polygon fill="white" stroke="black" points="4.5,-136.5 4.5,-155.5 153.5,-155.5 153.5,-136.5 4.5,-136.5"/>
<text text-anchor="middle" x="79" y="-143.5" font-family="Helvetica,sans-Serif" font-size="10.00">hpp::model::JointConfiguration</text>
</a>
</g>
</g>
<!-- Node3&#45;&gt;Node2 -->
<g id="edge2" class="edge"><title>Node3&#45;&gt;Node2</title>
<path fill="none" stroke="#9a32cd" stroke-dasharray="5,2" d="M79,-126.041C79,-113.472 79,-97.5631 79,-87.8411"/>
<polygon fill="#9a32cd" stroke="#9a32cd" points="75.5001,-126.372 79,-136.372 82.5001,-126.372 75.5001,-126.372"/>
<text text-anchor="middle" x="111" y="-109.5" font-family="Helvetica,sans-Serif" font-size="10.00"> configuration_</text>
</g>
</g>
</svg>
