<?xml version="1.0" encoding="UTF-8" standalone="no"?>
<!DOCTYPE svg PUBLIC "-//W3C//DTD SVG 1.1//EN"
 "http://www.w3.org/Graphics/SVG/1.1/DTD/svg11.dtd">
<!-- Generated by graphviz version 2.36.0 (20140111.2315)
 -->
<!-- Title: hpp::constraints::Sum&lt; LhsValue, RhsValue &gt; Pages: 1 -->
<svg width="192pt" height="186pt"
 viewBox="0.00 0.00 192.00 186.00" xmlns="http://www.w3.org/2000/svg" xmlns:xlink="http://www.w3.org/1999/xlink">
<g id="graph0" class="graph" transform="scale(1 1) rotate(0) translate(4 182)">
<title>hpp::constraints::Sum&lt; LhsValue, RhsValue &gt;</title>
<polygon fill="white" stroke="none" points="-4,4 -4,-182 188,-182 188,4 -4,4"/>
<!-- Node1 -->
<g id="node1" class="node"><title>Node1</title>
<polygon fill="#bfbfbf" stroke="black" points="30,-1 30,-31 154,-31 154,-1 30,-1"/>
<text text-anchor="start" x="38" y="-19" font-family="Helvetica,sans-Serif" font-size="10.00">hpp::constraints::Sum</text>
<text text-anchor="middle" x="92" y="-8" font-family="Helvetica,sans-Serif" font-size="10.00">&lt; LhsValue, RhsValue &gt;</text>
</g>
<!-- Node2 -->
<g id="node2" class="node"><title>Node2</title>
<g id="a_node2"><a xlink:href="a00002.html" target="_top" xlink:title="hpp::constraints::Calculus\lBase\&lt; Sum\&lt; LhsValue, RhsValue \&gt; \&gt;">
<polygon fill="white" stroke="black" points="-0.5,-69 -0.5,-99 184.5,-99 184.5,-69 -0.5,-69"/>
<text text-anchor="start" x="7.5" y="-87" font-family="Helvetica,sans-Serif" font-size="10.00">hpp::constraints::Calculus</text>
<text text-anchor="middle" x="92" y="-76" font-family="Helvetica,sans-Serif" font-size="10.00">Base&lt; Sum&lt; LhsValue, RhsValue &gt; &gt;</text>
</a>
</g>
</g>
<!-- Node2&#45;&gt;Node1 -->
<g id="edge1" class="edge"><title>Node2&#45;&gt;Node1</title>
<path fill="none" stroke="midnightblue" d="M92,-58.5322C92,-49.3606 92,-39.2449 92,-31.2931"/>
<polygon fill="midnightblue" stroke="midnightblue" points="88.5001,-58.6789 92,-68.679 95.5001,-58.679 88.5001,-58.6789"/>
</g>
<!-- Node3 -->
<g id="node3" class="node"><title>Node3</title>
<g id="a_node3"><a xlink:href="a00003.html" target="_top" xlink:title="hpp::constraints::Calculus\lBaseAbstract\&lt; eigen::vector3\l_t, JacobianMatrix \&gt;">
<polygon fill="white" stroke="black" points="19,-136.5 19,-177.5 165,-177.5 165,-136.5 19,-136.5"/>
<text text-anchor="start" x="27" y="-165.5" font-family="Helvetica,sans-Serif" font-size="10.00">hpp::constraints::Calculus</text>
<text text-anchor="start" x="27" y="-154.5" font-family="Helvetica,sans-Serif" font-size="10.00">BaseAbstract&lt; eigen::vector3</text>
<text text-anchor="middle" x="92" y="-143.5" font-family="Helvetica,sans-Serif" font-size="10.00">_t, JacobianMatrix &gt;</text>
</a>
</g>
</g>
<!-- Node3&#45;&gt;Node2 -->
<g id="edge2" class="edge"><title>Node3&#45;&gt;Node2</title>
<path fill="none" stroke="midnightblue" d="M92,-126.019C92,-116.657 92,-106.77 92,-99.0485"/>
<polygon fill="midnightblue" stroke="midnightblue" points="88.5001,-126.223 92,-136.223 95.5001,-126.223 88.5001,-126.223"/>
</g>
</g>
</svg>
