<?xml version="1.0" encoding="UTF-8" standalone="no"?>
<!DOCTYPE svg PUBLIC "-//W3C//DTD SVG 1.1//EN"
 "http://www.w3.org/Graphics/SVG/1.1/DTD/svg11.dtd">
<!-- Generated by graphviz version 2.36.0 (20140111.2315)
 -->
<!-- Title: hpp::constraints::VectorInJoint Pages: 1 -->
<svg width="257pt" height="200pt"
 viewBox="0.00 0.00 257.00 200.00" xmlns="http://www.w3.org/2000/svg" xmlns:xlink="http://www.w3.org/1999/xlink">
<g id="graph0" class="graph" transform="scale(1 1) rotate(0) translate(4 196)">
<title>hpp::constraints::VectorInJoint</title>
<polygon fill="white" stroke="none" points="-4,4 -4,-196 253,-196 253,4 -4,4"/>
<!-- Node1 -->
<g id="node1" class="node"><title>Node1</title>
<polygon fill="#bfbfbf" stroke="black" points="109.5,-1 109.5,-31 230.5,-31 230.5,-1 109.5,-1"/>
<text text-anchor="start" x="117.5" y="-19" font-family="Helvetica,sans-Serif" font-size="10.00">hpp::constraints::Vector</text>
<text text-anchor="middle" x="170" y="-8" font-family="Helvetica,sans-Serif" font-size="10.00">InJoint</text>
</g>
<!-- Node2 -->
<g id="node2" class="node"><title>Node2</title>
<g id="a_node2"><a xlink:href="a00002.html" target="_top" xlink:title="hpp::constraints::Calculus\lBase\&lt; VectorInJoint \&gt;">
<polygon fill="white" stroke="black" points="7.5,-81 7.5,-111 138.5,-111 138.5,-81 7.5,-81"/>
<text text-anchor="start" x="15.5" y="-99" font-family="Helvetica,sans-Serif" font-size="10.00">hpp::constraints::Calculus</text>
<text text-anchor="middle" x="73" y="-88" font-family="Helvetica,sans-Serif" font-size="10.00">Base&lt; VectorInJoint &gt;</text>
</a>
</g>
</g>
<!-- Node2&#45;&gt;Node1 -->
<g id="edge1" class="edge"><title>Node2&#45;&gt;Node1</title>
<path fill="none" stroke="midnightblue" d="M98.6621,-74.3645C115.585,-60.7566 137.314,-43.2833 152.321,-31.2157"/>
<polygon fill="midnightblue" stroke="midnightblue" points="96.391,-71.6995 90.7913,-80.6936 100.778,-77.1546 96.391,-71.6995"/>
</g>
<!-- Node3 -->
<g id="node3" class="node"><title>Node3</title>
<g id="a_node3"><a xlink:href="a00003.html" target="_top" xlink:title="hpp::constraints::Calculus\lBaseAbstract\&lt; eigen::vector3\l_t, JacobianMatrix \&gt;">
<polygon fill="white" stroke="black" points="0,-150.5 0,-191.5 146,-191.5 146,-150.5 0,-150.5"/>
<text text-anchor="start" x="8" y="-179.5" font-family="Helvetica,sans-Serif" font-size="10.00">hpp::constraints::Calculus</text>
<text text-anchor="start" x="8" y="-168.5" font-family="Helvetica,sans-Serif" font-size="10.00">BaseAbstract&lt; eigen::vector3</text>
<text text-anchor="middle" x="73" y="-157.5" font-family="Helvetica,sans-Serif" font-size="10.00">_t, JacobianMatrix &gt;</text>
</a>
</g>
</g>
<!-- Node3&#45;&gt;Node2 -->
<g id="edge2" class="edge"><title>Node3&#45;&gt;Node2</title>
<path fill="none" stroke="midnightblue" d="M73,-140.372C73,-130.335 73,-119.579 73,-111.289"/>
<polygon fill="midnightblue" stroke="midnightblue" points="69.5001,-140.437 73,-150.437 76.5001,-140.437 69.5001,-140.437"/>
</g>
<!-- Node4 -->
<g id="node4" class="node"><title>Node4</title>
<g id="a_node4"><a doxygen="https://jmirabel.github.io/hpp-doc/api/hpp-model/doxygen-html/hpp-model.doxytag:https://jmirabel.github.io/hpp-doc/api/hpp-model/doxygen-html/" xlink:href="https://jmirabel.github.io/hpp-doc/api/hpp-model/doxygen-html/a00013.html" target="_top" xlink:title="hpp::model::Joint">
<polygon fill="white" stroke="black" points="157,-86.5 157,-105.5 249,-105.5 249,-86.5 157,-86.5"/>
<text text-anchor="middle" x="203" y="-93.5" font-family="Helvetica,sans-Serif" font-size="10.00">hpp::model::Joint</text>
</a>
</g>
</g>
<!-- Node4&#45;&gt;Node1 -->
<g id="edge3" class="edge"><title>Node4&#45;&gt;Node1</title>
<path fill="none" stroke="#9a32cd" stroke-dasharray="5,2" d="M195.336,-76.8856C189.454,-62.9816 181.446,-44.054 176.019,-31.227"/>
<polygon fill="#9a32cd" stroke="#9a32cd" points="192.222,-78.5087 199.342,-86.3546 198.669,-75.7812 192.222,-78.5087"/>
<text text-anchor="middle" x="202.5" y="-53.5" font-family="Helvetica,sans-Serif" font-size="10.00"> joint_</text>
</g>
</g>
</svg>
