<?xml version="1.0" encoding="UTF-8" standalone="no"?>
<!DOCTYPE svg PUBLIC "-//W3C//DTD SVG 1.1//EN"
 "http://www.w3.org/Graphics/SVG/1.1/DTD/svg11.dtd">
<!-- Generated by graphviz version 2.36.0 (20140111.2315)
 -->
<!-- Title: hpp::constraints::VectorInJoint Pages: 1 -->
<svg width="154pt" height="186pt"
 viewBox="0.00 0.00 154.00 186.00" xmlns="http://www.w3.org/2000/svg" xmlns:xlink="http://www.w3.org/1999/xlink">
<g id="graph0" class="graph" transform="scale(1 1) rotate(0) translate(4 182)">
<title>hpp::constraints::VectorInJoint</title>
<polygon fill="white" stroke="none" points="-4,4 -4,-182 150,-182 150,4 -4,4"/>
<!-- Node1 -->
<g id="node1" class="node"><title>Node1</title>
<polygon fill="#bfbfbf" stroke="black" points="12.5,-1 12.5,-31 133.5,-31 133.5,-1 12.5,-1"/>
<text text-anchor="start" x="20.5" y="-19" font-family="Helvetica,sans-Serif" font-size="10.00">hpp::constraints::Vector</text>
<text text-anchor="middle" x="73" y="-8" font-family="Helvetica,sans-Serif" font-size="10.00">InJoint</text>
</g>
<!-- Node2 -->
<g id="node2" class="node"><title>Node2</title>
<g id="a_node2"><a xlink:href="a00002.html" target="_top" xlink:title="hpp::constraints::Calculus\lBase\&lt; VectorInJoint \&gt;">
<polygon fill="white" stroke="black" points="7.5,-69 7.5,-99 138.5,-99 138.5,-69 7.5,-69"/>
<text text-anchor="start" x="15.5" y="-87" font-family="Helvetica,sans-Serif" font-size="10.00">hpp::constraints::Calculus</text>
<text text-anchor="middle" x="73" y="-76" font-family="Helvetica,sans-Serif" font-size="10.00">Base&lt; VectorInJoint &gt;</text>
</a>
</g>
</g>
<!-- Node2&#45;&gt;Node1 -->
<g id="edge1" class="edge"><title>Node2&#45;&gt;Node1</title>
<path fill="none" stroke="midnightblue" d="M73,-58.5322C73,-49.3606 73,-39.2449 73,-31.2931"/>
<polygon fill="midnightblue" stroke="midnightblue" points="69.5001,-58.6789 73,-68.679 76.5001,-58.679 69.5001,-58.6789"/>
</g>
<!-- Node3 -->
<g id="node3" class="node"><title>Node3</title>
<g id="a_node3"><a xlink:href="a00003.html" target="_top" xlink:title="hpp::constraints::Calculus\lBaseAbstract\&lt; eigen::vector3\l_t, JacobianMatrix \&gt;">
<polygon fill="white" stroke="black" points="0,-136.5 0,-177.5 146,-177.5 146,-136.5 0,-136.5"/>
<text text-anchor="start" x="8" y="-165.5" font-family="Helvetica,sans-Serif" font-size="10.00">hpp::constraints::Calculus</text>
<text text-anchor="start" x="8" y="-154.5" font-family="Helvetica,sans-Serif" font-size="10.00">BaseAbstract&lt; eigen::vector3</text>
<text text-anchor="middle" x="73" y="-143.5" font-family="Helvetica,sans-Serif" font-size="10.00">_t, JacobianMatrix &gt;</text>
</a>
</g>
</g>
<!-- Node3&#45;&gt;Node2 -->
<g id="edge2" class="edge"><title>Node3&#45;&gt;Node2</title>
<path fill="none" stroke="midnightblue" d="M73,-126.019C73,-116.657 73,-106.77 73,-99.0485"/>
<polygon fill="midnightblue" stroke="midnightblue" points="69.5001,-126.223 73,-136.223 76.5001,-126.223 69.5001,-126.223"/>
</g>
</g>
</svg>
