<?xml version="1.0" encoding="UTF-8" standalone="no"?>
<!DOCTYPE svg PUBLIC "-//W3C//DTD SVG 1.1//EN"
 "http://www.w3.org/Graphics/SVG/1.1/DTD/svg11.dtd">
<!-- Generated by graphviz version 2.36.0 (20140111.2315)
 -->
<!-- Title: Graphical Class Hierarchy Pages: 1 -->
<svg width="564pt" height="472pt"
 viewBox="0.00 0.00 564.00 472.00" xmlns="http://www.w3.org/2000/svg" xmlns:xlink="http://www.w3.org/1999/xlink">
<g id="graph0" class="graph" transform="scale(1 1) rotate(0) translate(4 468)">
<title>Graphical Class Hierarchy</title>
<polygon fill="white" stroke="none" points="-4,4 -4,-468 560,-468 560,4 -4,4"/>
<!-- Node1 -->
<g id="node1" class="node"><title>Node1</title>
<g id="a_node1"><a xlink:href="a00003.html" target="_top" xlink:title="hpp::constraints::Calculus\lBaseAbstract\&lt; eigen::vector3\l_t, JacobianMatrix \&gt;">
<polygon fill="white" stroke="black" points="0,-200.5 0,-241.5 146,-241.5 146,-200.5 0,-200.5"/>
<text text-anchor="start" x="8" y="-229.5" font-family="Helvetica,sans-Serif" font-size="10.00">hpp::constraints::Calculus</text>
<text text-anchor="start" x="8" y="-218.5" font-family="Helvetica,sans-Serif" font-size="10.00">BaseAbstract&lt; eigen::vector3</text>
<text text-anchor="middle" x="73" y="-207.5" font-family="Helvetica,sans-Serif" font-size="10.00">_t, JacobianMatrix &gt;</text>
</a>
</g>
</g>
<!-- Node2 -->
<g id="node2" class="node"><title>Node2</title>
<g id="a_node2"><a xlink:href="a00002.html" target="_top" xlink:title="hpp::constraints::Calculus\lBase\&lt; CrossProduct\&lt; LhsValue,\l RhsValue \&gt; \&gt;">
<polygon fill="white" stroke="black" points="194.5,-423.5 194.5,-464.5 355.5,-464.5 355.5,-423.5 194.5,-423.5"/>
<text text-anchor="start" x="202.5" y="-452.5" font-family="Helvetica,sans-Serif" font-size="10.00">hpp::constraints::Calculus</text>
<text text-anchor="start" x="202.5" y="-441.5" font-family="Helvetica,sans-Serif" font-size="10.00">Base&lt; CrossProduct&lt; LhsValue,</text>
<text text-anchor="middle" x="275" y="-430.5" font-family="Helvetica,sans-Serif" font-size="10.00"> RhsValue &gt; &gt;</text>
</a>
</g>
</g>
<!-- Node1&#45;&gt;Node2 -->
<g id="edge1" class="edge"><title>Node1&#45;&gt;Node2</title>
<path fill="none" stroke="midnightblue" d="M83.2942,-251.305C97.7308,-293.46 129.483,-369.505 182,-413 186.803,-416.978 192.139,-420.453 197.754,-423.489"/>
<polygon fill="midnightblue" stroke="midnightblue" points="86.5469,-249.995 80.0745,-241.607 79.9034,-252.2 86.5469,-249.995"/>
</g>
<!-- Node4 -->
<g id="node4" class="node"><title>Node4</title>
<g id="a_node4"><a xlink:href="a00002.html" target="_top" xlink:title="hpp::constraints::Calculus\lBase\&lt; Difference\&lt; LhsValue,\l RhsValue \&gt; \&gt;">
<polygon fill="white" stroke="black" points="202,-363.5 202,-404.5 348,-404.5 348,-363.5 202,-363.5"/>
<text text-anchor="start" x="210" y="-392.5" font-family="Helvetica,sans-Serif" font-size="10.00">hpp::constraints::Calculus</text>
<text text-anchor="start" x="210" y="-381.5" font-family="Helvetica,sans-Serif" font-size="10.00">Base&lt; Difference&lt; LhsValue,</text>
<text text-anchor="middle" x="275" y="-370.5" font-family="Helvetica,sans-Serif" font-size="10.00"> RhsValue &gt; &gt;</text>
</a>
</g>
</g>
<!-- Node1&#45;&gt;Node4 -->
<g id="edge3" class="edge"><title>Node1&#45;&gt;Node4</title>
<path fill="none" stroke="midnightblue" d="M91.272,-250.666C110.056,-280.491 142.715,-325.832 182,-353 188.1,-357.218 194.82,-360.902 201.768,-364.111"/>
<polygon fill="midnightblue" stroke="midnightblue" points="94.1231,-248.622 85.8958,-241.946 88.1645,-252.295 94.1231,-248.622"/>
</g>
<!-- Node6 -->
<g id="node6" class="node"><title>Node6</title>
<g id="a_node6"><a xlink:href="a00002.html" target="_top" xlink:title="hpp::constraints::Calculus\lBase\&lt; Point, eigen::vector3\l_t, JacobianMatrix \&gt;">
<polygon fill="white" stroke="black" points="206,-303.5 206,-344.5 344,-344.5 344,-303.5 206,-303.5"/>
<text text-anchor="start" x="214" y="-332.5" font-family="Helvetica,sans-Serif" font-size="10.00">hpp::constraints::Calculus</text>
<text text-anchor="start" x="214" y="-321.5" font-family="Helvetica,sans-Serif" font-size="10.00">Base&lt; Point, eigen::vector3</text>
<text text-anchor="middle" x="275" y="-310.5" font-family="Helvetica,sans-Serif" font-size="10.00">_t, JacobianMatrix &gt;</text>
</a>
</g>
</g>
<!-- Node1&#45;&gt;Node6 -->
<g id="edge5" class="edge"><title>Node1&#45;&gt;Node6</title>
<path fill="none" stroke="midnightblue" d="M108.329,-247.843C128.841,-262.933 155.911,-281.243 182,-294 189.546,-297.69 197.654,-301.083 205.816,-304.154"/>
<polygon fill="midnightblue" stroke="midnightblue" points="110.351,-244.985 100.243,-241.812 106.166,-250.596 110.351,-244.985"/>
</g>
<!-- Node8 -->
<g id="node8" class="node"><title>Node8</title>
<g id="a_node8"><a xlink:href="a00002.html" target="_top" xlink:title="hpp::constraints::Calculus\lBase\&lt; PointCom \&gt;">
<polygon fill="white" stroke="black" points="209.5,-255 209.5,-285 340.5,-285 340.5,-255 209.5,-255"/>
<text text-anchor="start" x="217.5" y="-273" font-family="Helvetica,sans-Serif" font-size="10.00">hpp::constraints::Calculus</text>
<text text-anchor="middle" x="275" y="-262" font-family="Helvetica,sans-Serif" font-size="10.00">Base&lt; PointCom &gt;</text>
</a>
</g>
</g>
<!-- Node1&#45;&gt;Node8 -->
<g id="edge7" class="edge"><title>Node1&#45;&gt;Node8</title>
<path fill="none" stroke="midnightblue" d="M155.981,-241.085C174.86,-245.711 194.625,-250.553 212.464,-254.924"/>
<polygon fill="midnightblue" stroke="midnightblue" points="156.75,-237.67 146.205,-238.69 155.084,-244.469 156.75,-237.67"/>
</g>
<!-- Node10 -->
<g id="node10" class="node"><title>Node10</title>
<g id="a_node10"><a xlink:href="a00002.html" target="_top" xlink:title="hpp::constraints::Calculus\lBase\&lt; PointInJoint \&gt;">
<polygon fill="white" stroke="black" points="209.5,-206 209.5,-236 340.5,-236 340.5,-206 209.5,-206"/>
<text text-anchor="start" x="217.5" y="-224" font-family="Helvetica,sans-Serif" font-size="10.00">hpp::constraints::Calculus</text>
<text text-anchor="middle" x="275" y="-213" font-family="Helvetica,sans-Serif" font-size="10.00">Base&lt; PointInJoint &gt;</text>
</a>
</g>
</g>
<!-- Node1&#45;&gt;Node10 -->
<g id="edge9" class="edge"><title>Node1&#45;&gt;Node10</title>
<path fill="none" stroke="midnightblue" d="M156.458,-221C174.049,-221 192.388,-221 209.204,-221"/>
<polygon fill="midnightblue" stroke="midnightblue" points="156.205,-217.5 146.205,-221 156.205,-224.5 156.205,-217.5"/>
</g>
<!-- Node12 -->
<g id="node12" class="node"><title>Node12</title>
<g id="a_node12"><a xlink:href="a00002.html" target="_top" xlink:title="hpp::constraints::Calculus\lBase\&lt; RotationMultiply\l\&lt; RhsValue \&gt; \&gt;">
<polygon fill="white" stroke="black" points="209.5,-146.5 209.5,-187.5 340.5,-187.5 340.5,-146.5 209.5,-146.5"/>
<text text-anchor="start" x="217.5" y="-175.5" font-family="Helvetica,sans-Serif" font-size="10.00">hpp::constraints::Calculus</text>
<text text-anchor="start" x="217.5" y="-164.5" font-family="Helvetica,sans-Serif" font-size="10.00">Base&lt; RotationMultiply</text>
<text text-anchor="middle" x="275" y="-153.5" font-family="Helvetica,sans-Serif" font-size="10.00">&lt; RhsValue &gt; &gt;</text>
</a>
</g>
</g>
<!-- Node1&#45;&gt;Node12 -->
<g id="edge11" class="edge"><title>Node1&#45;&gt;Node12</title>
<path fill="none" stroke="midnightblue" d="M155.965,-198.869C173.706,-194.079 192.231,-189.078 209.204,-184.495"/>
<polygon fill="midnightblue" stroke="midnightblue" points="154.947,-195.519 146.205,-201.505 156.771,-202.277 154.947,-195.519"/>
</g>
<!-- Node14 -->
<g id="node14" class="node"><title>Node14</title>
<g id="a_node14"><a xlink:href="a00002.html" target="_top" xlink:title="hpp::constraints::Calculus\lBase\&lt; ScalarMultiply\&lt; RhsValue \&gt; \&gt;">
<polygon fill="white" stroke="black" points="185.5,-98 185.5,-128 364.5,-128 364.5,-98 185.5,-98"/>
<text text-anchor="start" x="193.5" y="-116" font-family="Helvetica,sans-Serif" font-size="10.00">hpp::constraints::Calculus</text>
<text text-anchor="middle" x="275" y="-105" font-family="Helvetica,sans-Serif" font-size="10.00">Base&lt; ScalarMultiply&lt; RhsValue &gt; &gt;</text>
</a>
</g>
</g>
<!-- Node1&#45;&gt;Node14 -->
<g id="edge13" class="edge"><title>Node1&#45;&gt;Node14</title>
<path fill="none" stroke="midnightblue" d="M102.404,-193.636C123.001,-175.185 152.341,-151.625 182,-137 188.958,-133.569 196.462,-130.589 204.078,-128.009"/>
<polygon fill="midnightblue" stroke="midnightblue" points="99.9864,-191.105 94.9559,-200.429 104.703,-196.277 99.9864,-191.105"/>
</g>
<!-- Node16 -->
<g id="node16" class="node"><title>Node16</title>
<g id="a_node16"><a xlink:href="a00002.html" target="_top" xlink:title="hpp::constraints::Calculus\lBase\&lt; Sum\&lt; LhsValue, RhsValue \&gt; \&gt;">
<polygon fill="white" stroke="black" points="182.5,-49 182.5,-79 367.5,-79 367.5,-49 182.5,-49"/>
<text text-anchor="start" x="190.5" y="-67" font-family="Helvetica,sans-Serif" font-size="10.00">hpp::constraints::Calculus</text>
<text text-anchor="middle" x="275" y="-56" font-family="Helvetica,sans-Serif" font-size="10.00">Base&lt; Sum&lt; LhsValue, RhsValue &gt; &gt;</text>
</a>
</g>
</g>
<!-- Node1&#45;&gt;Node16 -->
<g id="edge15" class="edge"><title>Node1&#45;&gt;Node16</title>
<path fill="none" stroke="midnightblue" d="M90.6357,-191.355C109.105,-161.147 141.697,-115.13 182,-89 187.972,-85.1283 194.533,-81.8519 201.317,-79.08"/>
<polygon fill="midnightblue" stroke="midnightblue" points="87.4861,-189.803 85.3642,-200.183 93.4961,-193.392 87.4861,-189.803"/>
</g>
<!-- Node18 -->
<g id="node18" class="node"><title>Node18</title>
<g id="a_node18"><a xlink:href="a00002.html" target="_top" xlink:title="hpp::constraints::Calculus\lBase\&lt; VectorInJoint \&gt;">
<polygon fill="white" stroke="black" points="209.5,-0 209.5,-30 340.5,-30 340.5,-0 209.5,-0"/>
<text text-anchor="start" x="217.5" y="-18" font-family="Helvetica,sans-Serif" font-size="10.00">hpp::constraints::Calculus</text>
<text text-anchor="middle" x="275" y="-7" font-family="Helvetica,sans-Serif" font-size="10.00">Base&lt; VectorInJoint &gt;</text>
</a>
</g>
</g>
<!-- Node1&#45;&gt;Node18 -->
<g id="edge17" class="edge"><title>Node1&#45;&gt;Node18</title>
<path fill="none" stroke="midnightblue" d="M83.8816,-190.796C98.6922,-150.316 130.537,-79.0474 182,-40 190.043,-33.8972 199.477,-29.2834 209.182,-25.7954"/>
<polygon fill="midnightblue" stroke="midnightblue" points="80.5245,-189.792 80.4817,-200.386 87.1221,-192.131 80.5245,-189.792"/>
</g>
<!-- Node3 -->
<g id="node3" class="node"><title>Node3</title>
<g id="a_node3"><a xlink:href="a00010.html" target="_top" xlink:title="Cross product of two expressions. ">
<polygon fill="white" stroke="black" points="404,-429 404,-459 556,-459 556,-429 404,-429"/>
<text text-anchor="start" x="412" y="-447" font-family="Helvetica,sans-Serif" font-size="10.00">hpp::constraints::CrossProduct</text>
<text text-anchor="middle" x="480" y="-436" font-family="Helvetica,sans-Serif" font-size="10.00">&lt; LhsValue, RhsValue &gt;</text>
</a>
</g>
</g>
<!-- Node2&#45;&gt;Node3 -->
<g id="edge2" class="edge"><title>Node2&#45;&gt;Node3</title>
<path fill="none" stroke="midnightblue" d="M365.784,-444C378.509,-444 391.483,-444 403.891,-444"/>
<polygon fill="midnightblue" stroke="midnightblue" points="365.648,-440.5 355.648,-444 365.648,-447.5 365.648,-440.5"/>
</g>
<!-- Node5 -->
<g id="node5" class="node"><title>Node5</title>
<g id="a_node5"><a xlink:href="a00011.html" target="_top" xlink:title="Difference of two expressions. ">
<polygon fill="white" stroke="black" points="411.5,-369 411.5,-399 548.5,-399 548.5,-369 411.5,-369"/>
<text text-anchor="start" x="419.5" y="-387" font-family="Helvetica,sans-Serif" font-size="10.00">hpp::constraints::Difference</text>
<text text-anchor="middle" x="480" y="-376" font-family="Helvetica,sans-Serif" font-size="10.00">&lt; LhsValue, RhsValue &gt;</text>
</a>
</g>
</g>
<!-- Node4&#45;&gt;Node5 -->
<g id="edge4" class="edge"><title>Node4&#45;&gt;Node5</title>
<path fill="none" stroke="midnightblue" d="M358.363,-384C375.906,-384 394.24,-384 411.166,-384"/>
<polygon fill="midnightblue" stroke="midnightblue" points="358.142,-380.5 348.142,-384 358.142,-387.5 358.142,-380.5"/>
</g>
<!-- Node7 -->
<g id="node7" class="node"><title>Node7</title>
<g id="a_node7"><a xlink:href="a00022.html" target="_top" xlink:title="Basic expression representing a static point. ">
<polygon fill="white" stroke="black" points="422.5,-314.5 422.5,-333.5 537.5,-333.5 537.5,-314.5 422.5,-314.5"/>
<text text-anchor="middle" x="480" y="-321.5" font-family="Helvetica,sans-Serif" font-size="10.00">hpp::constraints::Point</text>
</a>
</g>
</g>
<!-- Node6&#45;&gt;Node7 -->
<g id="edge6" class="edge"><title>Node6&#45;&gt;Node7</title>
<path fill="none" stroke="midnightblue" d="M354.405,-324C376.986,-324 401.177,-324 422.179,-324"/>
<polygon fill="midnightblue" stroke="midnightblue" points="354.161,-320.5 344.161,-324 354.161,-327.5 354.161,-320.5"/>
</g>
<!-- Node9 -->
<g id="node9" class="node"><title>Node9</title>
<g id="a_node9"><a xlink:href="a00023.html" target="_top" xlink:title="Basic expression representing a COM. ">
<polygon fill="white" stroke="black" points="412,-260.5 412,-279.5 548,-279.5 548,-260.5 412,-260.5"/>
<text text-anchor="middle" x="480" y="-267.5" font-family="Helvetica,sans-Serif" font-size="10.00">hpp::constraints::PointCom</text>
</a>
</g>
</g>
<!-- Node8&#45;&gt;Node9 -->
<g id="edge8" class="edge"><title>Node8&#45;&gt;Node9</title>
<path fill="none" stroke="midnightblue" d="M350.539,-270C370.617,-270 392.212,-270 411.86,-270"/>
<polygon fill="midnightblue" stroke="midnightblue" points="350.509,-266.5 340.509,-270 350.509,-273.5 350.509,-266.5"/>
</g>
<!-- Node11 -->
<g id="node11" class="node"><title>Node11</title>
<g id="a_node11"><a xlink:href="a00024.html" target="_top" xlink:title="Basic expression representing a point in a joint frame. ">
<polygon fill="white" stroke="black" points="418.5,-206 418.5,-236 541.5,-236 541.5,-206 418.5,-206"/>
<text text-anchor="start" x="426.5" y="-224" font-family="Helvetica,sans-Serif" font-size="10.00">hpp::constraints::PointIn</text>
<text text-anchor="middle" x="480" y="-213" font-family="Helvetica,sans-Serif" font-size="10.00">Joint</text>
</a>
</g>
</g>
<!-- Node10&#45;&gt;Node11 -->
<g id="edge10" class="edge"><title>Node10&#45;&gt;Node11</title>
<path fill="none" stroke="midnightblue" d="M350.621,-221C372.951,-221 397.152,-221 418.459,-221"/>
<polygon fill="midnightblue" stroke="midnightblue" points="350.509,-217.5 340.509,-221 350.509,-224.5 350.509,-217.5"/>
</g>
<!-- Node13 -->
<g id="node13" class="node"><title>Node13</title>
<g id="a_node13"><a xlink:href="a00031.html" target="_top" xlink:title="Multiplication of an expression by a rotation matrix. ">
<polygon fill="white" stroke="black" points="415.5,-152 415.5,-182 544.5,-182 544.5,-152 415.5,-152"/>
<text text-anchor="start" x="423.5" y="-170" font-family="Helvetica,sans-Serif" font-size="10.00">hpp::constraints::Rotation</text>
<text text-anchor="middle" x="480" y="-159" font-family="Helvetica,sans-Serif" font-size="10.00">Multiply&lt; RhsValue &gt;</text>
</a>
</g>
</g>
<!-- Node12&#45;&gt;Node13 -->
<g id="edge12" class="edge"><title>Node12&#45;&gt;Node13</title>
<path fill="none" stroke="midnightblue" d="M350.769,-167C371.98,-167 394.868,-167 415.354,-167"/>
<polygon fill="midnightblue" stroke="midnightblue" points="350.509,-163.5 340.509,-167 350.509,-170.5 350.509,-163.5"/>
</g>
<!-- Node15 -->
<g id="node15" class="node"><title>Node15</title>
<g id="a_node15"><a xlink:href="a00032.html" target="_top" xlink:title="Multiplication of an expression by a scalar. ">
<polygon fill="white" stroke="black" points="420,-98 420,-128 540,-128 540,-98 420,-98"/>
<text text-anchor="start" x="428" y="-116" font-family="Helvetica,sans-Serif" font-size="10.00">hpp::constraints::Scalar</text>
<text text-anchor="middle" x="480" y="-105" font-family="Helvetica,sans-Serif" font-size="10.00">Multiply&lt; RhsValue &gt;</text>
</a>
</g>
</g>
<!-- Node14&#45;&gt;Node15 -->
<g id="edge14" class="edge"><title>Node14&#45;&gt;Node15</title>
<path fill="none" stroke="midnightblue" d="M374.85,-113C390.269,-113 405.771,-113 419.929,-113"/>
<polygon fill="midnightblue" stroke="midnightblue" points="374.743,-109.5 364.743,-113 374.743,-116.5 374.743,-109.5"/>
</g>
<!-- Node17 -->
<g id="node17" class="node"><title>Node17</title>
<g id="a_node17"><a xlink:href="a00035.html" target="_top" xlink:title="Sum of two expressions. ">
<polygon fill="white" stroke="black" points="418,-49 418,-79 542,-79 542,-49 418,-49"/>
<text text-anchor="start" x="426" y="-67" font-family="Helvetica,sans-Serif" font-size="10.00">hpp::constraints::Sum</text>
<text text-anchor="middle" x="480" y="-56" font-family="Helvetica,sans-Serif" font-size="10.00">&lt; LhsValue, RhsValue &gt;</text>
</a>
</g>
</g>
<!-- Node16&#45;&gt;Node17 -->
<g id="edge16" class="edge"><title>Node16&#45;&gt;Node17</title>
<path fill="none" stroke="midnightblue" d="M377.702,-64C391.456,-64 405.206,-64 417.94,-64"/>
<polygon fill="midnightblue" stroke="midnightblue" points="377.701,-60.5001 367.701,-64 377.701,-67.5001 377.701,-60.5001"/>
</g>
<!-- Node19 -->
<g id="node19" class="node"><title>Node19</title>
<g id="a_node19"><a xlink:href="a00042.html" target="_top" xlink:title="Basic expression representing a vector in a joint frame. ">
<polygon fill="white" stroke="black" points="419.5,-0 419.5,-30 540.5,-30 540.5,-0 419.5,-0"/>
<text text-anchor="start" x="427.5" y="-18" font-family="Helvetica,sans-Serif" font-size="10.00">hpp::constraints::Vector</text>
<text text-anchor="middle" x="480" y="-7" font-family="Helvetica,sans-Serif" font-size="10.00">InJoint</text>
</a>
</g>
</g>
<!-- Node18&#45;&gt;Node19 -->
<g id="edge18" class="edge"><title>Node18&#45;&gt;Node19</title>
<path fill="none" stroke="midnightblue" d="M350.764,-15C373.414,-15 397.976,-15 419.485,-15"/>
<polygon fill="midnightblue" stroke="midnightblue" points="350.509,-11.5001 340.509,-15 350.509,-18.5001 350.509,-11.5001"/>
</g>
</g>
</svg>
