<?xml version="1.0" encoding="UTF-8" standalone="no"?>
<!DOCTYPE svg PUBLIC "-//W3C//DTD SVG 1.1//EN"
 "http://www.w3.org/Graphics/SVG/1.1/DTD/svg11.dtd">
<!-- Generated by graphviz version 2.36.0 (20140111.2315)
 -->
<!-- Title: Graphical Class Hierarchy Pages: 1 -->
<svg width="354pt" height="48pt"
 viewBox="0.00 0.00 354.00 48.00" xmlns="http://www.w3.org/2000/svg" xmlns:xlink="http://www.w3.org/1999/xlink">
<g id="graph0" class="graph" transform="scale(1 1) rotate(0) translate(4 44)">
<title>Graphical Class Hierarchy</title>
<polygon fill="white" stroke="none" points="-4,4 -4,-44 350,-44 350,4 -4,4"/>
<!-- Node1 -->
<g id="node1" class="node"><title>Node1</title>
<g id="a_node1"><a xlink:href="a00003.html" target="_top" xlink:title="Abstract class defining a basic common interface. ">
<polygon fill="white" stroke="black" points="0,0.5 0,-40.5 134,-40.5 134,0.5 0,0.5"/>
<text text-anchor="start" x="8" y="-28.5" font-family="Helvetica,sans-Serif" font-size="10.00">hpp::constraints::Calculus</text>
<text text-anchor="start" x="8" y="-17.5" font-family="Helvetica,sans-Serif" font-size="10.00">BaseAbstract&lt; ValueType,</text>
<text text-anchor="middle" x="67" y="-6.5" font-family="Helvetica,sans-Serif" font-size="10.00"> JacobianType &gt;</text>
</a>
</g>
</g>
<!-- Node2 -->
<g id="node2" class="node"><title>Node2</title>
<g id="a_node2"><a xlink:href="a00002.html" target="_top" xlink:title="Main abstract class. ">
<polygon fill="white" stroke="black" points="170,0.5 170,-40.5 346,-40.5 346,0.5 170,0.5"/>
<text text-anchor="start" x="178" y="-28.5" font-family="Helvetica,sans-Serif" font-size="10.00">hpp::constraints::Calculus</text>
<text text-anchor="start" x="178" y="-17.5" font-family="Helvetica,sans-Serif" font-size="10.00">Base&lt; T, ValueType, JacobianType,</text>
<text text-anchor="middle" x="258" y="-6.5" font-family="Helvetica,sans-Serif" font-size="10.00"> CrossType &gt;</text>
</a>
</g>
</g>
<!-- Node1&#45;&gt;Node2 -->
<g id="edge1" class="edge"><title>Node1&#45;&gt;Node2</title>
<path fill="none" stroke="midnightblue" d="M144.209,-20C152.59,-20 161.172,-20 169.675,-20"/>
<polygon fill="midnightblue" stroke="midnightblue" points="144.103,-16.5001 134.103,-20 144.103,-23.5001 144.103,-16.5001"/>
</g>
</g>
</svg>
