<?xml version="1.0" encoding="UTF-8" standalone="no"?>
<!DOCTYPE svg PUBLIC "-//W3C//DTD SVG 1.1//EN"
 "http://www.w3.org/Graphics/SVG/1.1/DTD/svg11.dtd">
<!-- Generated by graphviz version 2.36.0 (20140111.2315)
 -->
<!-- Title: hpp::model::Joint Pages: 1 -->
<svg width="309pt" height="150pt"
 viewBox="0.00 0.00 309.00 150.00" xmlns="http://www.w3.org/2000/svg" xmlns:xlink="http://www.w3.org/1999/xlink">
<g id="graph0" class="graph" transform="scale(1 1) rotate(0) translate(4 146)">
<title>hpp::model::Joint</title>
<polygon fill="white" stroke="none" points="-4,4 -4,-146 305,-146 305,4 -4,4"/>
<!-- Node1 -->
<g id="node1" class="node"><title>Node1</title>
<polygon fill="#bfbfbf" stroke="black" points="91,-0.5 91,-19.5 183,-19.5 183,-0.5 91,-0.5"/>
<text text-anchor="middle" x="137" y="-7.5" font-family="Helvetica,sans-Serif" font-size="10.00">hpp::model::Joint</text>
</g>
<!-- Node2 -->
<g id="node2" class="node"><title>Node2</title>
<g id="a_node2"><a xlink:href="a00015.html" target="_top" xlink:title="Configuration of a Joint. ">
<polygon fill="white" stroke="black" points="-0.5,-122.5 -0.5,-141.5 148.5,-141.5 148.5,-122.5 -0.5,-122.5"/>
<text text-anchor="middle" x="74" y="-129.5" font-family="Helvetica,sans-Serif" font-size="10.00">hpp::model::JointConfiguration</text>
</a>
</g>
</g>
<!-- Node2&#45;&gt;Node1 -->
<g id="edge1" class="edge"><title>Node2&#45;&gt;Node1</title>
<path fill="none" stroke="#9a32cd" stroke-dasharray="5,2" d="M80.3637,-112.783C87.4757,-93.4976 99.9861,-62.5175 115,-38 119.042,-31.3997 124.542,-24.6497 129.031,-19.5497"/>
<polygon fill="#9a32cd" stroke="#9a32cd" points="76.9908,-111.82 76.904,-122.414 83.5786,-114.186 76.9908,-111.82"/>
<text text-anchor="middle" x="147" y="-68.5" font-family="Helvetica,sans-Serif" font-size="10.00"> configuration_</text>
</g>
<!-- Node3 -->
<g id="node3" class="node"><title>Node3</title>
<polygon fill="white" stroke="#bfbfbf" points="166.5,-122.5 166.5,-141.5 235.5,-141.5 235.5,-122.5 166.5,-122.5"/>
<text text-anchor="middle" x="201" y="-129.5" font-family="Helvetica,sans-Serif" font-size="10.00">Transform3f</text>
</g>
<!-- Node3&#45;&gt;Node1 -->
<g id="edge2" class="edge"><title>Node3&#45;&gt;Node1</title>
<path fill="none" stroke="#9a32cd" stroke-dasharray="5,2" d="M200.623,-112.429C199.361,-92.3685 194.777,-60.2932 179,-38 173.492,-30.2167 164.963,-24.1371 157.026,-19.7342"/>
<polygon fill="#9a32cd" stroke="#9a32cd" points="197.126,-112.596 201.037,-122.443 204.12,-112.307 197.126,-112.596"/>
<text text-anchor="middle" x="250.5" y="-96" font-family="Helvetica,sans-Serif" font-size="10.00"> T3f_</text>
<text text-anchor="start" x="200" y="-85" font-family="Helvetica,sans-Serif" font-size="10.00">linkInJointFrame</text>
<text text-anchor="middle" x="250.5" y="-74" font-family="Helvetica,sans-Serif" font-size="10.00">_</text>
<text text-anchor="start" x="200" y="-63" font-family="Helvetica,sans-Serif" font-size="10.00">positionInParentFrame</text>
<text text-anchor="middle" x="250.5" y="-52" font-family="Helvetica,sans-Serif" font-size="10.00">_</text>
<text text-anchor="middle" x="250.5" y="-41" font-family="Helvetica,sans-Serif" font-size="10.00">currentTransformation_</text>
</g>
</g>
</svg>
