<?xml version="1.0" encoding="UTF-8" standalone="no"?>
<!DOCTYPE svg PUBLIC "-//W3C//DTD SVG 1.1//EN"
 "http://www.w3.org/Graphics/SVG/1.1/DTD/svg11.dtd">
<!-- Generated by graphviz version 2.36.0 (20140111.2315)
 -->
<!-- Title: fcl&#45;to&#45;eigen.hh Pages: 1 -->
<svg width="697pt" height="140pt"
 viewBox="0.00 0.00 697.00 140.00" xmlns="http://www.w3.org/2000/svg" xmlns:xlink="http://www.w3.org/1999/xlink">
<g id="graph0" class="graph" transform="scale(1 1) rotate(0) translate(4 136)">
<title>fcl&#45;to&#45;eigen.hh</title>
<polygon fill="white" stroke="none" points="-4,4 -4,-136 693,-136 693,4 -4,4"/>
<!-- Node1 -->
<g id="node1" class="node"><title>Node1</title>
<polygon fill="#bfbfbf" stroke="black" points="142,-112.5 142,-131.5 220,-131.5 220,-112.5 142,-112.5"/>
<text text-anchor="middle" x="181" y="-119.5" font-family="Helvetica,sans-Serif" font-size="10.00">fcl&#45;to&#45;eigen.hh</text>
</g>
<!-- Node2 -->
<g id="node2" class="node"><title>Node2</title>
<polygon fill="white" stroke="#bfbfbf" points="-1,-56.5 -1,-75.5 101,-75.5 101,-56.5 -1,-56.5"/>
<text text-anchor="middle" x="50" y="-63.5" font-family="Helvetica,sans-Serif" font-size="10.00">hpp/fcl/config&#45;fcl.hh</text>
</g>
<!-- Node1&#45;&gt;Node2 -->
<g id="edge1" class="edge"><title>Node1&#45;&gt;Node2</title>
<path fill="none" stroke="midnightblue" d="M160.243,-112.444C138.684,-103.557 104.737,-89.5632 80.2062,-79.4514"/>
<polygon fill="midnightblue" stroke="midnightblue" points="81.2394,-76.0917 70.6602,-75.5164 78.5717,-82.5634 81.2394,-76.0917"/>
</g>
<!-- Node3 -->
<g id="node3" class="node"><title>Node3</title>
<polygon fill="white" stroke="#bfbfbf" points="119.5,-56.5 119.5,-75.5 242.5,-75.5 242.5,-56.5 119.5,-56.5"/>
<text text-anchor="middle" x="181" y="-63.5" font-family="Helvetica,sans-Serif" font-size="10.00">hpp/fcl/math/transform.h</text>
</g>
<!-- Node1&#45;&gt;Node3 -->
<g id="edge2" class="edge"><title>Node1&#45;&gt;Node3</title>
<path fill="none" stroke="midnightblue" d="M181,-112.083C181,-105.006 181,-94.8611 181,-85.9865"/>
<polygon fill="midnightblue" stroke="midnightblue" points="184.5,-85.751 181,-75.7511 177.5,-85.7511 184.5,-85.751"/>
</g>
<!-- Node4 -->
<g id="node4" class="node"><title>Node4</title>
<g id="a_node4"><a xlink:href="a00037.html" target="_top" xlink:title="hpp/model/fwd.hh">
<polygon fill="white" stroke="black" points="261,-56.5 261,-75.5 355,-75.5 355,-56.5 261,-56.5"/>
<text text-anchor="middle" x="308" y="-63.5" font-family="Helvetica,sans-Serif" font-size="10.00">hpp/model/fwd.hh</text>
</a>
</g>
</g>
<!-- Node1&#45;&gt;Node4 -->
<g id="edge3" class="edge"><title>Node1&#45;&gt;Node4</title>
<path fill="none" stroke="midnightblue" d="M201.124,-112.444C222.024,-103.557 254.935,-89.5632 278.716,-79.4514"/>
<polygon fill="midnightblue" stroke="midnightblue" points="280.138,-82.6504 287.971,-75.5164 277.398,-76.2085 280.138,-82.6504"/>
</g>
<!-- Node5 -->
<g id="node5" class="node"><title>Node5</title>
<polygon fill="white" stroke="#bfbfbf" points="114,-0.5 114,-19.5 158,-19.5 158,-0.5 114,-0.5"/>
<text text-anchor="middle" x="136" y="-7.5" font-family="Helvetica,sans-Serif" font-size="10.00">vector</text>
</g>
<!-- Node4&#45;&gt;Node5 -->
<g id="edge4" class="edge"><title>Node4&#45;&gt;Node5</title>
<path fill="none" stroke="midnightblue" d="M280.746,-56.4435C250.146,-46.8366 200.539,-31.2622 168.09,-21.0749"/>
<polygon fill="midnightblue" stroke="midnightblue" points="168.793,-17.6271 158.204,-17.971 166.696,-24.3057 168.793,-17.6271"/>
</g>
<!-- Node6 -->
<g id="node6" class="node"><title>Node6</title>
<polygon fill="white" stroke="#bfbfbf" points="175.5,-0.5 175.5,-19.5 204.5,-19.5 204.5,-0.5 175.5,-0.5"/>
<text text-anchor="middle" x="190" y="-7.5" font-family="Helvetica,sans-Serif" font-size="10.00">list</text>
</g>
<!-- Node4&#45;&gt;Node6 -->
<g id="edge5" class="edge"><title>Node4&#45;&gt;Node6</title>
<path fill="none" stroke="midnightblue" d="M289.303,-56.4435C268.81,-47.0657 235.892,-32.0016 213.628,-21.8127"/>
<polygon fill="midnightblue" stroke="midnightblue" points="215.068,-18.6226 204.518,-17.6439 212.155,-24.9877 215.068,-18.6226"/>
</g>
<!-- Node7 -->
<g id="node7" class="node"><title>Node7</title>
<polygon fill="white" stroke="#bfbfbf" points="222.5,-0.5 222.5,-19.5 257.5,-19.5 257.5,-0.5 222.5,-0.5"/>
<text text-anchor="middle" x="240" y="-7.5" font-family="Helvetica,sans-Serif" font-size="10.00">map</text>
</g>
<!-- Node4&#45;&gt;Node7 -->
<g id="edge6" class="edge"><title>Node4&#45;&gt;Node7</title>
<path fill="none" stroke="midnightblue" d="M297.075,-56.324C286.825,-48.1849 271.279,-35.8395 258.999,-26.0874"/>
<polygon fill="midnightblue" stroke="midnightblue" points="261.132,-23.3119 251.124,-19.8339 256.779,-28.7937 261.132,-23.3119"/>
</g>
<!-- Node8 -->
<g id="node8" class="node"><title>Node8</title>
<polygon fill="white" stroke="#bfbfbf" points="275.5,-0.5 275.5,-19.5 340.5,-19.5 340.5,-0.5 275.5,-0.5"/>
<text text-anchor="middle" x="308" y="-7.5" font-family="Helvetica,sans-Serif" font-size="10.00">Eigen/Core</text>
</g>
<!-- Node4&#45;&gt;Node8 -->
<g id="edge7" class="edge"><title>Node4&#45;&gt;Node8</title>
<path fill="none" stroke="midnightblue" d="M308,-56.083C308,-49.0059 308,-38.8611 308,-29.9865"/>
<polygon fill="midnightblue" stroke="midnightblue" points="311.5,-29.751 308,-19.7511 304.5,-29.7511 311.5,-29.751"/>
</g>
<!-- Node9 -->
<g id="node9" class="node"><title>Node9</title>
<polygon fill="white" stroke="#bfbfbf" points="359,-0.5 359,-19.5 453,-19.5 453,-0.5 359,-0.5"/>
<text text-anchor="middle" x="406" y="-7.5" font-family="Helvetica,sans-Serif" font-size="10.00">hpp/util/pointer.hh</text>
</g>
<!-- Node4&#45;&gt;Node9 -->
<g id="edge8" class="edge"><title>Node4&#45;&gt;Node9</title>
<path fill="none" stroke="midnightblue" d="M323.745,-56.324C339.319,-47.7428 363.377,-34.486 381.459,-24.5224"/>
<polygon fill="midnightblue" stroke="midnightblue" points="383.224,-27.546 390.294,-19.6545 379.846,-21.4152 383.224,-27.546"/>
</g>
<!-- Node10 -->
<g id="node10" class="node"><title>Node10</title>
<polygon fill="white" stroke="#bfbfbf" points="471,-0.5 471,-19.5 549,-19.5 549,-0.5 471,-0.5"/>
<text text-anchor="middle" x="510" y="-7.5" font-family="Helvetica,sans-Serif" font-size="10.00">hpp/fcl/fwd.hh</text>
</g>
<!-- Node4&#45;&gt;Node10 -->
<g id="edge9" class="edge"><title>Node4&#45;&gt;Node10</title>
<path fill="none" stroke="midnightblue" d="M340.008,-56.4435C374.729,-47.1616 430.288,-32.3093 468.377,-22.127"/>
<polygon fill="midnightblue" stroke="midnightblue" points="469.385,-25.4803 478.142,-19.5164 467.578,-18.7178 469.385,-25.4803"/>
</g>
<!-- Node11 -->
<g id="node11" class="node"><title>Node11</title>
<polygon fill="white" stroke="#bfbfbf" points="567,-0.5 567,-19.5 689,-19.5 689,-0.5 567,-0.5"/>
<text text-anchor="middle" x="628" y="-7.5" font-family="Helvetica,sans-Serif" font-size="10.00">hpp/fcl/math/matrix_3f.h</text>
</g>
<!-- Node4&#45;&gt;Node11 -->
<g id="edge10" class="edge"><title>Node4&#45;&gt;Node11</title>
<path fill="none" stroke="midnightblue" d="M355.217,-57.0321C411.54,-47.5277 505.799,-31.6213 567.438,-21.2199"/>
<polygon fill="midnightblue" stroke="midnightblue" points="568.138,-24.6512 577.416,-19.536 566.973,-17.7488 568.138,-24.6512"/>
</g>
</g>
</svg>
