<?xml version="1.0" encoding="UTF-8" standalone="no"?>
<!DOCTYPE svg PUBLIC "-//W3C//DTD SVG 1.1//EN"
 "http://www.w3.org/Graphics/SVG/1.1/DTD/svg11.dtd">
<!-- Generated by graphviz version 2.36.0 (20140111.2315)
 -->
<!-- Title: collision&#45;object.hh Pages: 1 -->
<svg width="691pt" height="140pt"
 viewBox="0.00 0.00 691.00 140.00" xmlns="http://www.w3.org/2000/svg" xmlns:xlink="http://www.w3.org/1999/xlink">
<g id="graph0" class="graph" transform="scale(1 1) rotate(0) translate(4 136)">
<title>collision&#45;object.hh</title>
<polygon fill="white" stroke="none" points="-4,4 -4,-136 687,-136 687,4 -4,4"/>
<!-- Node1 -->
<g id="node1" class="node"><title>Node1</title>
<polygon fill="#bfbfbf" stroke="black" points="143.5,-112.5 143.5,-131.5 238.5,-131.5 238.5,-112.5 143.5,-112.5"/>
<text text-anchor="middle" x="191" y="-119.5" font-family="Helvetica,sans-Serif" font-size="10.00">collision&#45;object.hh</text>
</g>
<!-- Node2 -->
<g id="node2" class="node"><title>Node2</title>
<polygon fill="white" stroke="#bfbfbf" points="-1,-56.5 -1,-75.5 123,-75.5 123,-56.5 -1,-56.5"/>
<text text-anchor="middle" x="61" y="-63.5" font-family="Helvetica,sans-Serif" font-size="10.00">hpp/fcl/collision_object.h</text>
</g>
<!-- Node1&#45;&gt;Node2 -->
<g id="edge1" class="edge"><title>Node1&#45;&gt;Node2</title>
<path fill="none" stroke="midnightblue" d="M170.401,-112.444C149.007,-103.557 115.319,-89.5632 90.9756,-79.4514"/>
<polygon fill="midnightblue" stroke="midnightblue" points="92.0801,-76.1203 81.5025,-75.5164 89.3948,-82.5848 92.0801,-76.1203"/>
</g>
<!-- Node3 -->
<g id="node3" class="node"><title>Node3</title>
<polygon fill="white" stroke="#bfbfbf" points="105,-0.5 105,-19.5 199,-19.5 199,-0.5 105,-0.5"/>
<text text-anchor="middle" x="152" y="-7.5" font-family="Helvetica,sans-Serif" font-size="10.00">hpp/util/pointer.hh</text>
</g>
<!-- Node1&#45;&gt;Node3 -->
<g id="edge2" class="edge"><title>Node1&#45;&gt;Node3</title>
<path fill="none" stroke="midnightblue" d="M186.369,-112.222C181.784,-103.284 174.774,-88.9417 170,-76 164.301,-60.5512 159.432,-42.4613 156.2,-29.2935"/>
<polygon fill="midnightblue" stroke="midnightblue" points="159.604,-28.4775 153.889,-19.5564 152.793,-30.0944 159.604,-28.4775"/>
</g>
<!-- Node4 -->
<g id="node4" class="node"><title>Node4</title>
<polygon fill="white" stroke="#bfbfbf" points="179,-56.5 179,-75.5 283,-75.5 283,-56.5 179,-56.5"/>
<text text-anchor="middle" x="231" y="-63.5" font-family="Helvetica,sans-Serif" font-size="10.00">hpp/model/config.hh</text>
</g>
<!-- Node1&#45;&gt;Node4 -->
<g id="edge3" class="edge"><title>Node1&#45;&gt;Node4</title>
<path fill="none" stroke="midnightblue" d="M197.605,-112.083C203.255,-104.455 211.545,-93.2645 218.451,-83.9408"/>
<polygon fill="midnightblue" stroke="midnightblue" points="221.378,-85.87 224.518,-75.7511 215.753,-81.7034 221.378,-85.87"/>
</g>
<!-- Node5 -->
<g id="node5" class="node"><title>Node5</title>
<g id="a_node5"><a xlink:href="a00037.html" target="_top" xlink:title="hpp/model/fwd.hh">
<polygon fill="white" stroke="black" points="301,-56.5 301,-75.5 395,-75.5 395,-56.5 301,-56.5"/>
<text text-anchor="middle" x="348" y="-63.5" font-family="Helvetica,sans-Serif" font-size="10.00">hpp/model/fwd.hh</text>
</a>
</g>
</g>
<!-- Node1&#45;&gt;Node5 -->
<g id="edge4" class="edge"><title>Node1&#45;&gt;Node5</title>
<path fill="none" stroke="midnightblue" d="M215.877,-112.444C242.289,-103.359 284.215,-88.9388 313.742,-78.7831"/>
<polygon fill="midnightblue" stroke="midnightblue" points="314.921,-82.0787 323.239,-75.5164 312.645,-75.4593 314.921,-82.0787"/>
</g>
<!-- Node5&#45;&gt;Node3 -->
<g id="edge9" class="edge"><title>Node5&#45;&gt;Node3</title>
<path fill="none" stroke="midnightblue" d="M316.943,-56.4435C283.397,-47.2011 229.803,-32.4356 192.859,-22.2572"/>
<polygon fill="midnightblue" stroke="midnightblue" points="193.482,-18.7984 182.911,-19.5164 191.623,-25.5469 193.482,-18.7984"/>
</g>
<!-- Node6 -->
<g id="node6" class="node"><title>Node6</title>
<polygon fill="white" stroke="#bfbfbf" points="220,-0.5 220,-19.5 264,-19.5 264,-0.5 220,-0.5"/>
<text text-anchor="middle" x="242" y="-7.5" font-family="Helvetica,sans-Serif" font-size="10.00">vector</text>
</g>
<!-- Node5&#45;&gt;Node6 -->
<g id="edge5" class="edge"><title>Node5&#45;&gt;Node6</title>
<path fill="none" stroke="midnightblue" d="M330.969,-56.324C313.97,-47.6641 287.624,-34.2424 268.007,-24.249"/>
<polygon fill="midnightblue" stroke="midnightblue" points="269.488,-21.0752 258.988,-19.6545 266.31,-27.3125 269.488,-21.0752"/>
</g>
<!-- Node7 -->
<g id="node7" class="node"><title>Node7</title>
<polygon fill="white" stroke="#bfbfbf" points="281.5,-0.5 281.5,-19.5 310.5,-19.5 310.5,-0.5 281.5,-0.5"/>
<text text-anchor="middle" x="296" y="-7.5" font-family="Helvetica,sans-Serif" font-size="10.00">list</text>
</g>
<!-- Node5&#45;&gt;Node7 -->
<g id="edge6" class="edge"><title>Node5&#45;&gt;Node7</title>
<path fill="none" stroke="midnightblue" d="M339.413,-56.083C331.841,-48.2195 320.622,-36.5688 311.486,-27.0813"/>
<polygon fill="midnightblue" stroke="midnightblue" points="313.885,-24.5266 304.427,-19.7511 308.842,-29.3821 313.885,-24.5266"/>
</g>
<!-- Node8 -->
<g id="node8" class="node"><title>Node8</title>
<polygon fill="white" stroke="#bfbfbf" points="328.5,-0.5 328.5,-19.5 363.5,-19.5 363.5,-0.5 328.5,-0.5"/>
<text text-anchor="middle" x="346" y="-7.5" font-family="Helvetica,sans-Serif" font-size="10.00">map</text>
</g>
<!-- Node5&#45;&gt;Node8 -->
<g id="edge7" class="edge"><title>Node5&#45;&gt;Node8</title>
<path fill="none" stroke="midnightblue" d="M347.67,-56.083C347.408,-49.0059 347.032,-38.8611 346.703,-29.9865"/>
<polygon fill="midnightblue" stroke="midnightblue" points="350.192,-29.6147 346.324,-19.7511 343.197,-29.8738 350.192,-29.6147"/>
</g>
<!-- Node9 -->
<g id="node9" class="node"><title>Node9</title>
<polygon fill="white" stroke="#bfbfbf" points="381.5,-0.5 381.5,-19.5 446.5,-19.5 446.5,-0.5 381.5,-0.5"/>
<text text-anchor="middle" x="414" y="-7.5" font-family="Helvetica,sans-Serif" font-size="10.00">Eigen/Core</text>
</g>
<!-- Node5&#45;&gt;Node9 -->
<g id="edge8" class="edge"><title>Node5&#45;&gt;Node9</title>
<path fill="none" stroke="midnightblue" d="M358.604,-56.324C368.456,-48.2631 383.351,-36.0765 395.215,-26.3695"/>
<polygon fill="midnightblue" stroke="midnightblue" points="397.68,-28.8752 403.203,-19.8339 393.247,-23.4575 397.68,-28.8752"/>
</g>
<!-- Node10 -->
<g id="node10" class="node"><title>Node10</title>
<polygon fill="white" stroke="#bfbfbf" points="465,-0.5 465,-19.5 543,-19.5 543,-0.5 465,-0.5"/>
<text text-anchor="middle" x="504" y="-7.5" font-family="Helvetica,sans-Serif" font-size="10.00">hpp/fcl/fwd.hh</text>
</g>
<!-- Node5&#45;&gt;Node10 -->
<g id="edge10" class="edge"><title>Node5&#45;&gt;Node10</title>
<path fill="none" stroke="midnightblue" d="M372.719,-56.4435C398.848,-47.3986 440.259,-33.064 469.576,-22.9158"/>
<polygon fill="midnightblue" stroke="midnightblue" points="471.092,-26.0951 479.397,-19.5164 468.802,-19.4801 471.092,-26.0951"/>
</g>
<!-- Node11 -->
<g id="node11" class="node"><title>Node11</title>
<polygon fill="white" stroke="#bfbfbf" points="561,-0.5 561,-19.5 683,-19.5 683,-0.5 561,-0.5"/>
<text text-anchor="middle" x="622" y="-7.5" font-family="Helvetica,sans-Serif" font-size="10.00">hpp/fcl/math/matrix_3f.h</text>
</g>
<!-- Node5&#45;&gt;Node11 -->
<g id="edge11" class="edge"><title>Node5&#45;&gt;Node11</title>
<path fill="none" stroke="midnightblue" d="M391.416,-56.4435C439.515,-46.9641 517.095,-31.6747 568.806,-21.4835"/>
<polygon fill="midnightblue" stroke="midnightblue" points="569.653,-24.8841 578.787,-19.5164 568.299,-18.0162 569.653,-24.8841"/>
</g>
</g>
</svg>
