<?xml version="1.0" encoding="UTF-8" standalone="no"?>
<!DOCTYPE svg PUBLIC "-//W3C//DTD SVG 1.1//EN"
 "http://www.w3.org/Graphics/SVG/1.1/DTD/svg11.dtd">
<!-- Generated by graphviz version 2.36.0 (20140111.2315)
 -->
<!-- Title: hpp::model::JointConfiguration Pages: 1 -->
<svg width="346pt" height="263pt"
 viewBox="0.00 0.00 346.00 263.00" xmlns="http://www.w3.org/2000/svg" xmlns:xlink="http://www.w3.org/1999/xlink">
<g id="graph0" class="graph" transform="scale(1 1) rotate(0) translate(4 259)">
<title>hpp::model::JointConfiguration</title>
<polygon fill="white" stroke="none" points="-4,4 -4,-259 342,-259 342,4 -4,4"/>
<!-- Node1 -->
<g id="node1" class="node"><title>Node1</title>
<polygon fill="#bfbfbf" stroke="black" points="0.5,-117.5 0.5,-136.5 149.5,-136.5 149.5,-117.5 0.5,-117.5"/>
<text text-anchor="middle" x="75" y="-124.5" font-family="Helvetica,sans-Serif" font-size="10.00">hpp::model::JointConfiguration</text>
</g>
<!-- Node2 -->
<g id="node2" class="node"><title>Node2</title>
<g id="a_node2"><a xlink:href="a00001.html" target="_top" xlink:title="Configuration of a JointAnchor. ">
<polygon fill="white" stroke="black" points="186.5,-235.5 186.5,-254.5 337.5,-254.5 337.5,-235.5 186.5,-235.5"/>
<text text-anchor="middle" x="262" y="-242.5" font-family="Helvetica,sans-Serif" font-size="10.00">hpp::model::AnchorJointConfig</text>
</a>
</g>
</g>
<!-- Node1&#45;&gt;Node2 -->
<g id="edge1" class="edge"><title>Node1&#45;&gt;Node2</title>
<path fill="none" stroke="midnightblue" d="M90.637,-144.303C110.169,-166.292 146.867,-203.916 186,-225 193.949,-229.283 202.874,-232.693 211.72,-235.395"/>
<polygon fill="midnightblue" stroke="midnightblue" points="93.2293,-141.95 84.0222,-136.708 87.9507,-146.548 93.2293,-141.95"/>
</g>
<!-- Node3 -->
<g id="node3" class="node"><title>Node3</title>
<g id="a_node3"><a xlink:href="a00021.html" target="_top" xlink:title="Configuration of a JointRotation. ">
<polygon fill="white" stroke="black" points="198,-186 198,-216 326,-216 326,-186 198,-186"/>
<text text-anchor="start" x="206" y="-204" font-family="Helvetica,sans-Serif" font-size="10.00">hpp::model::RotationJoint</text>
<text text-anchor="middle" x="262" y="-193" font-family="Helvetica,sans-Serif" font-size="10.00">Config</text>
</a>
</g>
</g>
<!-- Node1&#45;&gt;Node3 -->
<g id="edge2" class="edge"><title>Node1&#45;&gt;Node3</title>
<path fill="none" stroke="midnightblue" d="M105.152,-140.918C127.136,-151.184 158.159,-165.188 186,-176 194.828,-179.428 204.346,-182.825 213.54,-185.957"/>
<polygon fill="midnightblue" stroke="midnightblue" points="106.564,-137.714 96.0254,-136.628 103.586,-144.049 106.564,-137.714"/>
</g>
<!-- Node4 -->
<g id="node4" class="node"><title>Node4</title>
<g id="a_node4"><a xlink:href="a00003.html" target="_top" xlink:title="hpp::model::rotationJoint\lConfig::Bounded">
<polygon fill="white" stroke="black" points="200,-137 200,-167 324,-167 324,-137 200,-137"/>
<text text-anchor="start" x="208" y="-155" font-family="Helvetica,sans-Serif" font-size="10.00">hpp::model::rotationJoint</text>
<text text-anchor="middle" x="262" y="-144" font-family="Helvetica,sans-Serif" font-size="10.00">Config::Bounded</text>
</a>
</g>
</g>
<!-- Node1&#45;&gt;Node4 -->
<g id="edge3" class="edge"><title>Node1&#45;&gt;Node4</title>
<path fill="none" stroke="midnightblue" d="M156.448,-137.871C170.983,-139.836 185.921,-141.854 199.795,-143.729"/>
<polygon fill="midnightblue" stroke="midnightblue" points="156.847,-134.394 146.468,-136.523 155.909,-141.33 156.847,-134.394"/>
</g>
<!-- Node5 -->
<g id="node5" class="node"><title>Node5</title>
<g id="a_node5"><a xlink:href="a00026.html" target="_top" xlink:title="hpp::model::rotationJoint\lConfig::UnBounded">
<polygon fill="white" stroke="black" points="200,-88 200,-118 324,-118 324,-88 200,-88"/>
<text text-anchor="start" x="208" y="-106" font-family="Helvetica,sans-Serif" font-size="10.00">hpp::model::rotationJoint</text>
<text text-anchor="middle" x="262" y="-95" font-family="Helvetica,sans-Serif" font-size="10.00">Config::UnBounded</text>
</a>
</g>
</g>
<!-- Node1&#45;&gt;Node5 -->
<g id="edge4" class="edge"><title>Node1&#45;&gt;Node5</title>
<path fill="none" stroke="midnightblue" d="M159.676,-116.145C173.227,-114.387 187.033,-112.596 199.916,-110.924"/>
<polygon fill="midnightblue" stroke="midnightblue" points="158.849,-112.723 149.383,-117.48 159.75,-119.664 158.849,-112.723"/>
</g>
<!-- Node6 -->
<g id="node6" class="node"><title>Node6</title>
<g id="a_node6"><a xlink:href="a00022.html" target="_top" xlink:title="Configuration of a JointSO3. ">
<polygon fill="white" stroke="black" points="192,-49.5 192,-68.5 332,-68.5 332,-49.5 192,-49.5"/>
<text text-anchor="middle" x="262" y="-56.5" font-family="Helvetica,sans-Serif" font-size="10.00">hpp::model::SO3JointConfig</text>
</a>
</g>
</g>
<!-- Node1&#45;&gt;Node6 -->
<g id="edge5" class="edge"><title>Node1&#45;&gt;Node6</title>
<path fill="none" stroke="midnightblue" d="M104.599,-113.1C126.527,-102.792 157.727,-88.8751 186,-79 197.068,-75.1341 209.276,-71.586 220.57,-68.586"/>
<polygon fill="midnightblue" stroke="midnightblue" points="103.045,-109.963 95.513,-117.414 106.048,-116.286 103.045,-109.963"/>
</g>
<!-- Node7 -->
<g id="node7" class="node"><title>Node7</title>
<g id="a_node7"><a xlink:href="a00024.html" target="_top" xlink:title="Configuration of a JointTranslation. ">
<polygon fill="white" stroke="black" points="192,-0 192,-30 332,-30 332,-0 192,-0"/>
<text text-anchor="start" x="200" y="-18" font-family="Helvetica,sans-Serif" font-size="10.00">hpp::model::TranslationJoint</text>
<text text-anchor="middle" x="262" y="-7" font-family="Helvetica,sans-Serif" font-size="10.00">Config&lt; dimension &gt;</text>
</a>
</g>
</g>
<!-- Node1&#45;&gt;Node7 -->
<g id="edge6" class="edge"><title>Node1&#45;&gt;Node7</title>
<path fill="none" stroke="midnightblue" d="M93.0749,-110.333C113.621,-91.069 149.882,-59.5193 186,-40 192.883,-36.2805 200.418,-32.9779 207.975,-30.091"/>
<polygon fill="midnightblue" stroke="midnightblue" points="90.5887,-107.867 85.7606,-117.298 95.4161,-112.937 90.5887,-107.867"/>
</g>
</g>
</svg>
