<?xml version="1.0" encoding="UTF-8" standalone="no"?>
<!DOCTYPE svg PUBLIC "-//W3C//DTD SVG 1.1//EN"
 "http://www.w3.org/Graphics/SVG/1.1/DTD/svg11.dtd">
<!-- Generated by graphviz version 2.36.0 (20140111.2315)
 -->
<!-- Title: configuration.hh Pages: 1 -->
<svg width="985pt" height="264pt"
 viewBox="0.00 0.00 984.55 264.00" xmlns="http://www.w3.org/2000/svg" xmlns:xlink="http://www.w3.org/1999/xlink">
<g id="graph0" class="graph" transform="scale(1 1) rotate(0) translate(4 260)">
<title>configuration.hh</title>
<polygon fill="white" stroke="none" points="-4,4 -4,-260 980.55,-260 980.55,4 -4,4"/>
<!-- Node1 -->
<g id="node1" class="node"><title>Node1</title>
<polygon fill="#bfbfbf" stroke="black" points="725.148,-236.5 725.148,-255.5 811.148,-255.5 811.148,-236.5 725.148,-236.5"/>
<text text-anchor="middle" x="768.148" y="-243.5" font-family="Helvetica,sans-Serif" font-size="10.00">configuration.hh</text>
</g>
<!-- Node2 -->
<g id="node2" class="node"><title>Node2</title>
<g id="a_node2"><a xlink:href="a00033.html" target="_top" xlink:title="hpp/model/device.hh">
<polygon fill="white" stroke="black" points="386.648,-180.5 386.648,-199.5 493.648,-199.5 493.648,-180.5 386.648,-180.5"/>
<text text-anchor="middle" x="440.148" y="-187.5" font-family="Helvetica,sans-Serif" font-size="10.00">hpp/model/device.hh</text>
</a>
</g>
</g>
<!-- Node1&#45;&gt;Node2 -->
<g id="edge1" class="edge"><title>Node1&#45;&gt;Node2</title>
<path fill="none" stroke="midnightblue" d="M724.93,-237.885C667.88,-228.493 567.073,-211.896 501.971,-201.178"/>
<polygon fill="midnightblue" stroke="midnightblue" points="502.277,-197.682 491.842,-199.511 501.14,-204.589 502.277,-197.682"/>
</g>
<!-- Node18 -->
<g id="node18" class="node"><title>Node18</title>
<g id="a_node18"><a xlink:href="a00041.html" target="_top" xlink:title="hpp/model/joint.hh">
<polygon fill="white" stroke="black" points="864.148,-118.5 864.148,-137.5 960.148,-137.5 960.148,-118.5 864.148,-118.5"/>
<text text-anchor="middle" x="912.148" y="-125.5" font-family="Helvetica,sans-Serif" font-size="10.00">hpp/model/joint.hh</text>
</a>
</g>
</g>
<!-- Node1&#45;&gt;Node18 -->
<g id="edge25" class="edge"><title>Node1&#45;&gt;Node18</title>
<path fill="none" stroke="midnightblue" d="M778.971,-236.281C803.379,-216.619 862.952,-168.63 893.465,-144.05"/>
<polygon fill="midnightblue" stroke="midnightblue" points="895.998,-146.504 901.59,-137.505 891.607,-141.052 895.998,-146.504"/>
</g>
<!-- Node21 -->
<g id="node21" class="node"><title>Node21</title>
<g id="a_node21"><a xlink:href="a00040.html" target="_top" xlink:title="hpp/model/joint&#45;configuration.hh">
<polygon fill="white" stroke="black" points="690.648,-118.5 690.648,-137.5 845.648,-137.5 845.648,-118.5 690.648,-118.5"/>
<text text-anchor="middle" x="768.148" y="-125.5" font-family="Helvetica,sans-Serif" font-size="10.00">hpp/model/joint&#45;configuration.hh</text>
</a>
</g>
</g>
<!-- Node1&#45;&gt;Node21 -->
<g id="edge30" class="edge"><title>Node1&#45;&gt;Node21</title>
<path fill="none" stroke="midnightblue" d="M768.148,-236.281C768.148,-217.547 768.148,-173.098 768.148,-147.682"/>
<polygon fill="midnightblue" stroke="midnightblue" points="771.648,-147.505 768.148,-137.505 764.648,-147.505 771.648,-147.505"/>
</g>
<!-- Node3 -->
<g id="node3" class="node"><title>Node3</title>
<polygon fill="white" stroke="#bfbfbf" points="470.148,-118.5 470.148,-137.5 524.148,-137.5 524.148,-118.5 470.148,-118.5"/>
<text text-anchor="middle" x="497.148" y="-125.5" font-family="Helvetica,sans-Serif" font-size="10.00">iostream</text>
</g>
<!-- Node2&#45;&gt;Node3 -->
<g id="edge2" class="edge"><title>Node2&#45;&gt;Node3</title>
<path fill="none" stroke="midnightblue" d="M448.315,-180.403C457.034,-171.225 471.052,-156.47 481.837,-145.117"/>
<polygon fill="midnightblue" stroke="midnightblue" points="484.646,-147.241 488.996,-137.581 479.571,-142.42 484.646,-147.241"/>
</g>
<!-- Node4 -->
<g id="node4" class="node"><title>Node4</title>
<polygon fill="white" stroke="#bfbfbf" points="578.148,-0.5 578.148,-19.5 622.148,-19.5 622.148,-0.5 578.148,-0.5"/>
<text text-anchor="middle" x="600.148" y="-7.5" font-family="Helvetica,sans-Serif" font-size="10.00">vector</text>
</g>
<!-- Node2&#45;&gt;Node4 -->
<g id="edge3" class="edge"><title>Node2&#45;&gt;Node4</title>
<path fill="none" stroke="midnightblue" d="M493.765,-188.456C621.862,-186.6 937.426,-178.535 969.148,-144 977.237,-135.194 980.718,-69.9483 968.148,-56 945.808,-31.2113 718.17,-17.0539 632.51,-12.5705"/>
<polygon fill="midnightblue" stroke="midnightblue" points="632.491,-9.06505 622.325,-12.0483 632.133,-16.0559 632.491,-9.06505"/>
</g>
<!-- Node5 -->
<g id="node5" class="node"><title>Node5</title>
<polygon fill="white" stroke="#bfbfbf" points="24.648,-0.5 24.648,-19.5 53.648,-19.5 53.648,-0.5 24.648,-0.5"/>
<text text-anchor="middle" x="39.148" y="-7.5" font-family="Helvetica,sans-Serif" font-size="10.00">list</text>
</g>
<!-- Node2&#45;&gt;Node5 -->
<g id="edge4" class="edge"><title>Node2&#45;&gt;Node5</title>
<path fill="none" stroke="midnightblue" d="M386.475,-187.279C277.329,-183.225 37.7094,-171.286 13.148,-144 -15.9983,-111.621 10.6219,-56.4991 27.5841,-28.4749"/>
<polygon fill="midnightblue" stroke="midnightblue" points="30.6977,-30.0992 33.0738,-19.7742 24.7776,-26.3639 30.6977,-30.0992"/>
</g>
<!-- Node6 -->
<g id="node6" class="node"><title>Node6</title>
<polygon fill="white" stroke="#bfbfbf" points="542.648,-118.5 542.648,-137.5 633.648,-137.5 633.648,-118.5 542.648,-118.5"/>
<text text-anchor="middle" x="588.148" y="-125.5" font-family="Helvetica,sans-Serif" font-size="10.00">hpp/util/debug.hh</text>
</g>
<!-- Node2&#45;&gt;Node6 -->
<g id="edge5" class="edge"><title>Node2&#45;&gt;Node6</title>
<path fill="none" stroke="midnightblue" d="M461.353,-180.403C486.52,-170.2 528.688,-153.105 557.427,-141.454"/>
<polygon fill="midnightblue" stroke="midnightblue" points="559.03,-144.581 566.983,-137.581 556.4,-138.094 559.03,-144.581"/>
</g>
<!-- Node7 -->
<g id="node7" class="node"><title>Node7</title>
<g id="a_node7"><a xlink:href="a00037.html" target="_top" xlink:title="hpp/model/fwd.hh">
<polygon fill="white" stroke="black" points="253.148,-56.5 253.148,-75.5 347.148,-75.5 347.148,-56.5 253.148,-56.5"/>
<text text-anchor="middle" x="300.148" y="-63.5" font-family="Helvetica,sans-Serif" font-size="10.00">hpp/model/fwd.hh</text>
</a>
</g>
</g>
<!-- Node2&#45;&gt;Node7 -->
<g id="edge6" class="edge"><title>Node2&#45;&gt;Node7</title>
<path fill="none" stroke="midnightblue" d="M386.453,-185.163C357.684,-180.114 324.309,-168.845 305.148,-144 292.397,-127.467 293.319,-102.524 295.991,-85.5394"/>
<polygon fill="midnightblue" stroke="midnightblue" points="299.433,-86.1755 297.874,-75.696 292.558,-84.8604 299.433,-86.1755"/>
</g>
<!-- Node13 -->
<g id="node13" class="node"><title>Node13</title>
<polygon fill="white" stroke="#bfbfbf" points="610.148,-56.5 610.148,-75.5 714.148,-75.5 714.148,-56.5 610.148,-56.5"/>
<text text-anchor="middle" x="662.148" y="-63.5" font-family="Helvetica,sans-Serif" font-size="10.00">hpp/model/config.hh</text>
</g>
<!-- Node2&#45;&gt;Node13 -->
<g id="edge14" class="edge"><title>Node2&#45;&gt;Node13</title>
<path fill="none" stroke="midnightblue" d="M493.871,-183.37C546.347,-176.788 621.278,-164.154 642.148,-144 657.796,-128.889 661.76,-103.226 662.494,-85.7148"/>
<polygon fill="midnightblue" stroke="midnightblue" points="665.995,-85.6134 662.6,-75.5773 658.995,-85.5401 665.995,-85.6134"/>
</g>
<!-- Node14 -->
<g id="node14" class="node"><title>Node14</title>
<g id="a_node14"><a xlink:href="a00034.html" target="_top" xlink:title="hpp/model/distance\l&#45;result.hh">
<polygon fill="white" stroke="black" points="156.648,-113 156.648,-143 257.648,-143 257.648,-113 156.648,-113"/>
<text text-anchor="start" x="164.648" y="-131" font-family="Helvetica,sans-Serif" font-size="10.00">hpp/model/distance</text>
<text text-anchor="middle" x="207.148" y="-120" font-family="Helvetica,sans-Serif" font-size="10.00">&#45;result.hh</text>
</a>
</g>
</g>
<!-- Node2&#45;&gt;Node14 -->
<g id="edge15" class="edge"><title>Node2&#45;&gt;Node14</title>
<path fill="none" stroke="midnightblue" d="M406.765,-180.403C370.616,-171.095 312.19,-156.05 267.866,-144.636"/>
<polygon fill="midnightblue" stroke="midnightblue" points="268.624,-141.217 258.067,-142.112 266.878,-147.995 268.624,-141.217"/>
</g>
<!-- Node16 -->
<g id="node16" class="node"><title>Node16</title>
<g id="a_node16"><a xlink:href="a00035.html" target="_top" xlink:title="hpp/model/extra&#45;config\l&#45;space.hh">
<polygon fill="white" stroke="black" points="22.148,-113 22.148,-143 138.148,-143 138.148,-113 22.148,-113"/>
<text text-anchor="start" x="30.148" y="-131" font-family="Helvetica,sans-Serif" font-size="10.00">hpp/model/extra&#45;config</text>
<text text-anchor="middle" x="80.148" y="-120" font-family="Helvetica,sans-Serif" font-size="10.00">&#45;space.hh</text>
</a>
</g>
</g>
<!-- Node2&#45;&gt;Node16 -->
<g id="edge19" class="edge"><title>Node2&#45;&gt;Node16</title>
<path fill="none" stroke="midnightblue" d="M386.497,-181.874C329.728,-174.083 237.32,-160.694 148.208,-144.127"/>
<polygon fill="midnightblue" stroke="midnightblue" points="148.677,-140.654 138.203,-142.25 147.386,-147.534 148.677,-140.654"/>
</g>
<!-- Node17 -->
<g id="node17" class="node"><title>Node17</title>
<g id="a_node17"><a xlink:href="a00044.html" target="_top" xlink:title="hpp/model/object&#45;iterator.hh">
<polygon fill="white" stroke="black" points="314.648,-118.5 314.648,-137.5 451.648,-137.5 451.648,-118.5 314.648,-118.5"/>
<text text-anchor="middle" x="383.148" y="-125.5" font-family="Helvetica,sans-Serif" font-size="10.00">hpp/model/object&#45;iterator.hh</text>
</a>
</g>
</g>
<!-- Node2&#45;&gt;Node17 -->
<g id="edge21" class="edge"><title>Node2&#45;&gt;Node17</title>
<path fill="none" stroke="midnightblue" d="M431.981,-180.403C423.262,-171.225 409.244,-156.47 398.459,-145.117"/>
<polygon fill="midnightblue" stroke="midnightblue" points="400.725,-142.42 391.3,-137.581 395.65,-147.241 400.725,-142.42"/>
</g>
<!-- Node7&#45;&gt;Node4 -->
<g id="edge7" class="edge"><title>Node7&#45;&gt;Node4</title>
<path fill="none" stroke="midnightblue" d="M347.61,-58.771C399.556,-51.5736 485.429,-38.5636 568.078,-20.0302"/>
<polygon fill="midnightblue" stroke="midnightblue" points="568.903,-23.4322 577.878,-17.8028 567.351,-16.6063 568.903,-23.4322"/>
</g>
<!-- Node7&#45;&gt;Node5 -->
<g id="edge8" class="edge"><title>Node7&#45;&gt;Node5</title>
<path fill="none" stroke="midnightblue" d="M258.792,-56.4435C203.816,-45.0693 108.411,-25.3302 63.6545,-16.0703"/>
<polygon fill="midnightblue" stroke="midnightblue" points="64.1696,-12.6028 53.6678,-14.0041 62.7513,-19.4577 64.1696,-12.6028"/>
</g>
<!-- Node8 -->
<g id="node8" class="node"><title>Node8</title>
<polygon fill="white" stroke="#bfbfbf" points="93.648,-0.5 93.648,-19.5 128.648,-19.5 128.648,-0.5 93.648,-0.5"/>
<text text-anchor="middle" x="111.148" y="-7.5" font-family="Helvetica,sans-Serif" font-size="10.00">map</text>
</g>
<!-- Node7&#45;&gt;Node8 -->
<g id="edge9" class="edge"><title>Node7&#45;&gt;Node8</title>
<path fill="none" stroke="midnightblue" d="M266.875,-56.4804C235.808,-48.3788 187.96,-35.5285 138.333,-20.2389"/>
<polygon fill="midnightblue" stroke="midnightblue" points="139.308,-16.8768 128.72,-17.2529 137.232,-23.5617 139.308,-16.8768"/>
</g>
<!-- Node9 -->
<g id="node9" class="node"><title>Node9</title>
<polygon fill="white" stroke="#bfbfbf" points="146.648,-0.5 146.648,-19.5 211.648,-19.5 211.648,-0.5 146.648,-0.5"/>
<text text-anchor="middle" x="179.148" y="-7.5" font-family="Helvetica,sans-Serif" font-size="10.00">Eigen/Core</text>
</g>
<!-- Node7&#45;&gt;Node9 -->
<g id="edge10" class="edge"><title>Node7&#45;&gt;Node9</title>
<path fill="none" stroke="midnightblue" d="M280.975,-56.4435C261.239,-47.6356 230.263,-33.8116 207.655,-23.722"/>
<polygon fill="midnightblue" stroke="midnightblue" points="208.789,-20.3957 198.231,-19.5164 205.937,-26.788 208.789,-20.3957"/>
</g>
<!-- Node10 -->
<g id="node10" class="node"><title>Node10</title>
<polygon fill="white" stroke="#bfbfbf" points="230.148,-0.5 230.148,-19.5 324.148,-19.5 324.148,-0.5 230.148,-0.5"/>
<text text-anchor="middle" x="277.148" y="-7.5" font-family="Helvetica,sans-Serif" font-size="10.00">hpp/util/pointer.hh</text>
</g>
<!-- Node7&#45;&gt;Node10 -->
<g id="edge11" class="edge"><title>Node7&#45;&gt;Node10</title>
<path fill="none" stroke="midnightblue" d="M296.35,-56.083C293.235,-48.77 288.725,-38.1814 284.859,-29.1034"/>
<polygon fill="midnightblue" stroke="midnightblue" points="288.014,-27.5798 280.875,-19.7511 281.574,-30.3229 288.014,-27.5798"/>
</g>
<!-- Node11 -->
<g id="node11" class="node"><title>Node11</title>
<polygon fill="white" stroke="#bfbfbf" points="342.148,-0.5 342.148,-19.5 420.148,-19.5 420.148,-0.5 342.148,-0.5"/>
<text text-anchor="middle" x="381.148" y="-7.5" font-family="Helvetica,sans-Serif" font-size="10.00">hpp/fcl/fwd.hh</text>
</g>
<!-- Node7&#45;&gt;Node11 -->
<g id="edge12" class="edge"><title>Node7&#45;&gt;Node11</title>
<path fill="none" stroke="midnightblue" d="M313.162,-56.324C325.68,-47.979 344.83,-35.2122 359.619,-25.3524"/>
<polygon fill="midnightblue" stroke="midnightblue" points="361.787,-28.1137 368.166,-19.6545 357.904,-22.2894 361.787,-28.1137"/>
</g>
<!-- Node12 -->
<g id="node12" class="node"><title>Node12</title>
<polygon fill="white" stroke="#bfbfbf" points="438.148,-0.5 438.148,-19.5 560.148,-19.5 560.148,-0.5 438.148,-0.5"/>
<text text-anchor="middle" x="499.148" y="-7.5" font-family="Helvetica,sans-Serif" font-size="10.00">hpp/fcl/math/matrix_3f.h</text>
</g>
<!-- Node7&#45;&gt;Node12 -->
<g id="edge13" class="edge"><title>Node7&#45;&gt;Node12</title>
<path fill="none" stroke="midnightblue" d="M331.68,-56.4435C365.74,-47.2011 420.154,-32.4356 457.663,-22.2572"/>
<polygon fill="midnightblue" stroke="midnightblue" points="459.029,-25.5132 467.763,-19.5164 457.196,-18.7575 459.029,-25.5132"/>
</g>
<!-- Node14&#45;&gt;Node7 -->
<g id="edge18" class="edge"><title>Node14&#45;&gt;Node7</title>
<path fill="none" stroke="midnightblue" d="M229.188,-112.781C244.045,-103.196 263.558,-90.6062 278.362,-81.0555"/>
<polygon fill="midnightblue" stroke="midnightblue" points="280.381,-83.9181 286.887,-75.5557 276.586,-78.036 280.381,-83.9181"/>
</g>
<!-- Node14&#45;&gt;Node13 -->
<g id="edge17" class="edge"><title>Node14&#45;&gt;Node13</title>
<path fill="none" stroke="midnightblue" d="M257.722,-118.997C272.953,-116.658 289.721,-114.153 305.148,-112 408.346,-97.6007 528.619,-82.8619 599.908,-74.3387"/>
<polygon fill="midnightblue" stroke="midnightblue" points="600.548,-77.7872 610.063,-73.127 599.718,-70.8365 600.548,-77.7872"/>
</g>
<!-- Node15 -->
<g id="node15" class="node"><title>Node15</title>
<polygon fill="white" stroke="#bfbfbf" points="119.148,-56.5 119.148,-75.5 235.148,-75.5 235.148,-56.5 119.148,-56.5"/>
<text text-anchor="middle" x="177.148" y="-63.5" font-family="Helvetica,sans-Serif" font-size="10.00">hpp/fcl/collision_data.h</text>
</g>
<!-- Node14&#45;&gt;Node15 -->
<g id="edge16" class="edge"><title>Node14&#45;&gt;Node15</title>
<path fill="none" stroke="midnightblue" d="M200.038,-112.781C195.859,-104.422 190.537,-93.7773 186.076,-84.8565"/>
<polygon fill="midnightblue" stroke="midnightblue" points="189.116,-83.1095 181.513,-75.7305 182.855,-86.2401 189.116,-83.1095"/>
</g>
<!-- Node16&#45;&gt;Node7 -->
<g id="edge20" class="edge"><title>Node16&#45;&gt;Node7</title>
<path fill="none" stroke="midnightblue" d="M131.728,-112.933C170.618,-102.326 223.231,-87.9772 259.243,-78.1559"/>
<polygon fill="midnightblue" stroke="midnightblue" points="260.208,-81.5206 268.935,-75.5127 258.366,-74.7673 260.208,-81.5206"/>
</g>
<!-- Node17&#45;&gt;Node4 -->
<g id="edge22" class="edge"><title>Node17&#45;&gt;Node4</title>
<path fill="none" stroke="midnightblue" d="M399.104,-118.47C436.491,-98.4847 529.99,-48.5038 575.068,-24.4066"/>
<polygon fill="midnightblue" stroke="midnightblue" points="576.999,-27.3433 584.168,-19.5423 573.699,-21.17 576.999,-27.3433"/>
</g>
<!-- Node17&#45;&gt;Node7 -->
<g id="edge24" class="edge"><title>Node17&#45;&gt;Node7</title>
<path fill="none" stroke="midnightblue" d="M371.256,-118.403C357.943,-108.78 336.148,-93.0242 320.191,-81.4891"/>
<polygon fill="midnightblue" stroke="midnightblue" points="322.172,-78.6026 312.018,-75.5806 318.072,-84.2756 322.172,-78.6026"/>
</g>
<!-- Node17&#45;&gt;Node13 -->
<g id="edge23" class="edge"><title>Node17&#45;&gt;Node13</title>
<path fill="none" stroke="midnightblue" d="M422.826,-118.467C472.717,-107.738 558.38,-89.3157 612.545,-77.6673"/>
<polygon fill="midnightblue" stroke="midnightblue" points="613.567,-81.0277 622.607,-75.5034 612.095,-74.1842 613.567,-81.0277"/>
</g>
<!-- Node18&#45;&gt;Node7 -->
<g id="edge29" class="edge"><title>Node18&#45;&gt;Node7</title>
<path fill="none" stroke="midnightblue" d="M883.15,-118.457C873.948,-116.028 863.686,-113.608 854.148,-112 674.481,-81.7019 458.467,-71.6173 357.463,-68.4109"/>
<polygon fill="midnightblue" stroke="midnightblue" points="357.281,-64.9038 347.178,-68.0958 357.067,-71.9005 357.281,-64.9038"/>
</g>
<!-- Node18&#45;&gt;Node13 -->
<g id="edge28" class="edge"><title>Node18&#45;&gt;Node13</title>
<path fill="none" stroke="midnightblue" d="M879.665,-118.46C871.355,-116.313 862.429,-114.041 854.148,-112 805.019,-99.8914 748.623,-86.7656 709.726,-77.8327"/>
<polygon fill="midnightblue" stroke="midnightblue" points="710.264,-74.3654 699.735,-75.5422 708.7,-81.1884 710.264,-74.3654"/>
</g>
<!-- Node19 -->
<g id="node19" class="node"><title>Node19</title>
<polygon fill="white" stroke="#bfbfbf" points="756.648,-56.5 756.648,-75.5 805.648,-75.5 805.648,-56.5 756.648,-56.5"/>
<text text-anchor="middle" x="781.148" y="-63.5" font-family="Helvetica,sans-Serif" font-size="10.00">cstddef</text>
</g>
<!-- Node18&#45;&gt;Node19 -->
<g id="edge26" class="edge"><title>Node18&#45;&gt;Node19</title>
<path fill="none" stroke="midnightblue" d="M893.379,-118.403C871.297,-108.29 834.429,-91.4036 809.009,-79.761"/>
<polygon fill="midnightblue" stroke="midnightblue" points="810.431,-76.5627 799.882,-75.5806 807.517,-82.9269 810.431,-76.5627"/>
</g>
<!-- Node20 -->
<g id="node20" class="node"><title>Node20</title>
<polygon fill="white" stroke="#bfbfbf" points="836.648,-56.5 836.648,-75.5 959.648,-75.5 959.648,-56.5 836.648,-56.5"/>
<text text-anchor="middle" x="898.148" y="-63.5" font-family="Helvetica,sans-Serif" font-size="10.00">hpp/fcl/math/transform.h</text>
</g>
<!-- Node18&#45;&gt;Node20 -->
<g id="edge27" class="edge"><title>Node18&#45;&gt;Node20</title>
<path fill="none" stroke="midnightblue" d="M910.142,-118.403C908.146,-109.849 905.02,-96.4497 902.459,-85.4762"/>
<polygon fill="midnightblue" stroke="midnightblue" points="905.831,-84.5237 900.15,-75.5806 899.014,-86.1143 905.831,-84.5237"/>
</g>
<!-- Node21&#45;&gt;Node7 -->
<g id="edge33" class="edge"><title>Node21&#45;&gt;Node7</title>
<path fill="none" stroke="midnightblue" d="M701.592,-118.467C609.349,-106.641 444.205,-85.4689 357.266,-74.3228"/>
<polygon fill="midnightblue" stroke="midnightblue" points="357.68,-70.8474 347.317,-73.0473 356.79,-77.7906 357.68,-70.8474"/>
</g>
<!-- Node21&#45;&gt;Node13 -->
<g id="edge32" class="edge"><title>Node21&#45;&gt;Node13</title>
<path fill="none" stroke="midnightblue" d="M752.961,-118.403C735.486,-108.512 706.569,-92.1442 686.065,-80.5378"/>
<polygon fill="midnightblue" stroke="midnightblue" points="687.734,-77.4607 677.307,-75.5806 684.285,-83.5525 687.734,-77.4607"/>
</g>
<!-- Node21&#45;&gt;Node19 -->
<g id="edge31" class="edge"><title>Node21&#45;&gt;Node19</title>
<path fill="none" stroke="midnightblue" d="M770.011,-118.403C771.864,-109.849 774.767,-96.4497 777.145,-85.4762"/>
<polygon fill="midnightblue" stroke="midnightblue" points="780.592,-86.095 779.289,-75.5806 773.751,-84.6127 780.592,-86.095"/>
</g>
</g>
</svg>
