<?xml version="1.0" encoding="UTF-8" standalone="no"?>
<!DOCTYPE svg PUBLIC "-//W3C//DTD SVG 1.1//EN"
 "http://www.w3.org/Graphics/SVG/1.1/DTD/svg11.dtd">
<!-- Generated by graphviz version 2.36.0 (20140111.2315)
 -->
<!-- Title: joint.hh Pages: 1 -->
<svg width="393pt" height="84pt"
 viewBox="0.00 0.00 393.00 84.00" xmlns="http://www.w3.org/2000/svg" xmlns:xlink="http://www.w3.org/1999/xlink">
<g id="graph0" class="graph" transform="scale(1 1) rotate(0) translate(4 80)">
<title>joint.hh</title>
<polygon fill="white" stroke="none" points="-4,4 -4,-80 389,-80 389,4 -4,4"/>
<!-- Node1 -->
<g id="node1" class="node"><title>Node1</title>
<polygon fill="#bfbfbf" stroke="black" points="179,-56.5 179,-75.5 227,-75.5 227,-56.5 179,-56.5"/>
<text text-anchor="middle" x="203" y="-63.5" font-family="Helvetica,sans-Serif" font-size="10.00">joint.hh</text>
</g>
<!-- Node2 -->
<g id="node2" class="node"><title>Node2</title>
<g id="a_node2"><a xlink:href="a00029.html" target="_top" xlink:title="children&#45;iterator.hh">
<polygon fill="white" stroke="black" points="-0.5,-0.5 -0.5,-19.5 96.5,-19.5 96.5,-0.5 -0.5,-0.5"/>
<text text-anchor="middle" x="48" y="-7.5" font-family="Helvetica,sans-Serif" font-size="10.00">children&#45;iterator.hh</text>
</a>
</g>
</g>
<!-- Node1&#45;&gt;Node2 -->
<g id="edge1" class="edge"><title>Node1&#45;&gt;Node2</title>
<path fill="none" stroke="midnightblue" d="M169.025,-53.1636C139.883,-43.0108 98.5903,-28.625 72.5602,-19.5565"/>
<polygon fill="midnightblue" stroke="midnightblue" points="168.186,-56.5777 178.781,-56.5625 170.489,-49.9673 168.186,-56.5777"/>
</g>
<!-- Node3 -->
<g id="node3" class="node"><title>Node3</title>
<g id="a_node3"><a xlink:href="a00031.html" target="_top" xlink:title="configuration.hh">
<polygon fill="white" stroke="black" points="115,-0.5 115,-19.5 201,-19.5 201,-0.5 115,-0.5"/>
<text text-anchor="middle" x="158" y="-7.5" font-family="Helvetica,sans-Serif" font-size="10.00">configuration.hh</text>
</a>
</g>
</g>
<!-- Node1&#45;&gt;Node3 -->
<g id="edge2" class="edge"><title>Node1&#45;&gt;Node3</title>
<path fill="none" stroke="midnightblue" d="M188.953,-48.144C181.113,-38.7357 171.671,-27.4046 165.293,-19.7511"/>
<polygon fill="midnightblue" stroke="midnightblue" points="186.479,-50.6414 195.569,-56.083 191.856,-46.1601 186.479,-50.6414"/>
</g>
<!-- Node4 -->
<g id="node4" class="node"><title>Node4</title>
<g id="a_node4"><a xlink:href="a00038.html" target="_top" xlink:title="gripper.hh">
<polygon fill="white" stroke="black" points="219.5,-0.5 219.5,-19.5 278.5,-19.5 278.5,-0.5 219.5,-0.5"/>
<text text-anchor="middle" x="249" y="-7.5" font-family="Helvetica,sans-Serif" font-size="10.00">gripper.hh</text>
</a>
</g>
</g>
<!-- Node1&#45;&gt;Node4 -->
<g id="edge3" class="edge"><title>Node1&#45;&gt;Node4</title>
<path fill="none" stroke="midnightblue" d="M217.114,-48.4314C225.176,-38.9673 234.959,-27.4827 241.545,-19.7511"/>
<polygon fill="midnightblue" stroke="midnightblue" points="214.416,-46.2009 210.596,-56.083 219.745,-50.7402 214.416,-46.2009"/>
</g>
<!-- Node5 -->
<g id="node5" class="node"><title>Node5</title>
<g id="a_node5"><a xlink:href="a00043.html" target="_top" xlink:title="object&#45;factory.hh">
<polygon fill="white" stroke="black" points="296.5,-0.5 296.5,-19.5 385.5,-19.5 385.5,-0.5 296.5,-0.5"/>
<text text-anchor="middle" x="341" y="-7.5" font-family="Helvetica,sans-Serif" font-size="10.00">object&#45;factory.hh</text>
</a>
</g>
</g>
<!-- Node1&#45;&gt;Node5 -->
<g id="edge4" class="edge"><title>Node1&#45;&gt;Node5</title>
<path fill="none" stroke="midnightblue" d="M234.249,-52.772C260.171,-42.6287 296.362,-28.4669 319.236,-19.5164"/>
<polygon fill="midnightblue" stroke="midnightblue" points="232.904,-49.5401 224.867,-56.4435 235.454,-56.0588 232.904,-49.5401"/>
</g>
</g>
</svg>
