<?xml version="1.0" encoding="UTF-8" standalone="no"?>
<!DOCTYPE svg PUBLIC "-//W3C//DTD SVG 1.1//EN"
 "http://www.w3.org/Graphics/SVG/1.1/DTD/svg11.dtd">
<!-- Generated by graphviz version 2.36.0 (20140111.2315)
 -->
<!-- Title: object&#45;factory.hh Pages: 1 -->
<svg width="1164pt" height="332pt"
 viewBox="0.00 0.00 1163.94 332.00" xmlns="http://www.w3.org/2000/svg" xmlns:xlink="http://www.w3.org/1999/xlink">
<g id="graph0" class="graph" transform="scale(1 1) rotate(0) translate(4 328)">
<title>object&#45;factory.hh</title>
<polygon fill="white" stroke="none" points="-4,4 -4,-328 1159.94,-328 1159.94,4 -4,4"/>
<!-- Node1 -->
<g id="node1" class="node"><title>Node1</title>
<polygon fill="#bfbfbf" stroke="black" points="250.5,-304.5 250.5,-323.5 339.5,-323.5 339.5,-304.5 250.5,-304.5"/>
<text text-anchor="middle" x="295" y="-311.5" font-family="Helvetica,sans-Serif" font-size="10.00">object&#45;factory.hh</text>
</g>
<!-- Node2 -->
<g id="node2" class="node"><title>Node2</title>
<polygon fill="white" stroke="#bfbfbf" points="276,-56.5 276,-75.5 380,-75.5 380,-56.5 276,-56.5"/>
<text text-anchor="middle" x="328" y="-63.5" font-family="Helvetica,sans-Serif" font-size="10.00">hpp/model/config.hh</text>
</g>
<!-- Node1&#45;&gt;Node2 -->
<g id="edge1" class="edge"><title>Node1&#45;&gt;Node2</title>
<path fill="none" stroke="midnightblue" d="M289.87,-304.407C284.942,-295.614 277.84,-281.381 275,-268 272.048,-254.088 272.893,-250.065 275,-236 283.516,-179.146 307.861,-115.199 320.372,-84.8411"/>
<polygon fill="midnightblue" stroke="midnightblue" points="323.62,-86.1463 324.259,-75.5707 317.165,-83.4396 323.62,-86.1463"/>
</g>
<!-- Node3 -->
<g id="node3" class="node"><title>Node3</title>
<g id="a_node3"><a xlink:href="a00027.html" target="_top" xlink:title="hpp/model/body.hh">
<polygon fill="white" stroke="black" points="284.5,-242.5 284.5,-261.5 383.5,-261.5 383.5,-242.5 284.5,-242.5"/>
<text text-anchor="middle" x="334" y="-249.5" font-family="Helvetica,sans-Serif" font-size="10.00">hpp/model/body.hh</text>
</a>
</g>
</g>
<!-- Node1&#45;&gt;Node3 -->
<g id="edge2" class="edge"><title>Node1&#45;&gt;Node3</title>
<path fill="none" stroke="midnightblue" d="M300.588,-304.403C306.38,-295.493 315.589,-281.325 322.874,-270.118"/>
<polygon fill="midnightblue" stroke="midnightblue" points="325.907,-271.873 328.423,-261.581 320.038,-268.058 325.907,-271.873"/>
</g>
<!-- Node19 -->
<g id="node19" class="node"><title>Node19</title>
<g id="a_node19"><a xlink:href="a00039.html" target="_top" xlink:title="hpp/model/humanoid\l&#45;robot.hh">
<polygon fill="white" stroke="black" points="875.5,-237 875.5,-267 982.5,-267 982.5,-237 875.5,-237"/>
<text text-anchor="start" x="883.5" y="-255" font-family="Helvetica,sans-Serif" font-size="10.00">hpp/model/humanoid</text>
<text text-anchor="middle" x="929" y="-244" font-family="Helvetica,sans-Serif" font-size="10.00">&#45;robot.hh</text>
</a>
</g>
</g>
<!-- Node1&#45;&gt;Node19 -->
<g id="edge30" class="edge"><title>Node1&#45;&gt;Node19</title>
<path fill="none" stroke="midnightblue" d="M339.582,-308.781C450.039,-298.328 736.714,-271.197 865.141,-259.043"/>
<polygon fill="midnightblue" stroke="midnightblue" points="865.594,-262.516 875.22,-258.09 864.935,-255.547 865.594,-262.516"/>
</g>
<!-- Node20 -->
<g id="node20" class="node"><title>Node20</title>
<g id="a_node20"><a xlink:href="a00041.html" target="_top" xlink:title="hpp/model/joint.hh">
<polygon fill="white" stroke="black" points="94,-118.5 94,-137.5 190,-137.5 190,-118.5 94,-118.5"/>
<text text-anchor="middle" x="142" y="-125.5" font-family="Helvetica,sans-Serif" font-size="10.00">hpp/model/joint.hh</text>
</a>
</g>
</g>
<!-- Node1&#45;&gt;Node20 -->
<g id="edge36" class="edge"><title>Node1&#45;&gt;Node20</title>
<path fill="none" stroke="midnightblue" d="M283.332,-304.427C272.091,-295.873 254.933,-282.016 242,-268 205.012,-227.916 169.679,-173.893 152.626,-146.498"/>
<polygon fill="midnightblue" stroke="midnightblue" points="155.424,-144.367 147.201,-137.685 149.463,-148.036 155.424,-144.367"/>
</g>
<!-- Node3&#45;&gt;Node2 -->
<g id="edge4" class="edge"><title>Node3&#45;&gt;Node2</title>
<path fill="none" stroke="midnightblue" d="M331.618,-242.222C325.963,-220.278 312.593,-161.258 318,-112 318.973,-103.14 320.992,-93.4716 322.963,-85.3755"/>
<polygon fill="midnightblue" stroke="midnightblue" points="326.393,-86.0919 325.518,-75.5332 319.617,-84.333 326.393,-86.0919"/>
</g>
<!-- Node4 -->
<g id="node4" class="node"><title>Node4</title>
<polygon fill="white" stroke="#bfbfbf" points="280,-0.5 280,-19.5 374,-19.5 374,-0.5 280,-0.5"/>
<text text-anchor="middle" x="327" y="-7.5" font-family="Helvetica,sans-Serif" font-size="10.00">hpp/util/pointer.hh</text>
</g>
<!-- Node3&#45;&gt;Node4 -->
<g id="edge3" class="edge"><title>Node3&#45;&gt;Node4</title>
<path fill="none" stroke="midnightblue" d="M329.304,-242.231C316.196,-217.191 279.361,-142.86 267,-76 265.384,-67.2592 263.025,-63.9505 267,-56 273.728,-42.5432 286.606,-32.0665 298.712,-24.6212"/>
<polygon fill="midnightblue" stroke="midnightblue" points="300.733,-27.4985 307.704,-19.5195 297.279,-21.4101 300.733,-27.4985"/>
</g>
<!-- Node5 -->
<g id="node5" class="node"><title>Node5</title>
<g id="a_node5"><a xlink:href="a00037.html" target="_top" xlink:title="hpp/model/fwd.hh">
<polygon fill="white" stroke="black" points="710,-56.5 710,-75.5 804,-75.5 804,-56.5 710,-56.5"/>
<text text-anchor="middle" x="757" y="-63.5" font-family="Helvetica,sans-Serif" font-size="10.00">hpp/model/fwd.hh</text>
</a>
</g>
</g>
<!-- Node3&#45;&gt;Node5 -->
<g id="edge5" class="edge"><title>Node3&#45;&gt;Node5</title>
<path fill="none" stroke="midnightblue" d="M354.688,-242.381C393.585,-225.787 479.67,-187.199 546,-144 564.788,-131.764 565.025,-122.184 585,-112 621.04,-93.6246 665.26,-82.2694 699.838,-75.5627"/>
<polygon fill="midnightblue" stroke="midnightblue" points="700.589,-78.983 709.779,-73.7101 699.307,-72.1015 700.589,-78.983"/>
</g>
<!-- Node12 -->
<g id="node12" class="node"><title>Node12</title>
<g id="a_node12"><a xlink:href="a00033.html" target="_top" xlink:title="hpp/model/device.hh">
<polygon fill="white" stroke="black" points="708.5,-180.5 708.5,-199.5 815.5,-199.5 815.5,-180.5 708.5,-180.5"/>
<text text-anchor="middle" x="762" y="-187.5" font-family="Helvetica,sans-Serif" font-size="10.00">hpp/model/device.hh</text>
</a>
</g>
</g>
<!-- Node3&#45;&gt;Node12 -->
<g id="edge13" class="edge"><title>Node3&#45;&gt;Node12</title>
<path fill="none" stroke="midnightblue" d="M383.515,-244.059C461.328,-233.15 612.203,-212 698.097,-199.958"/>
<polygon fill="midnightblue" stroke="midnightblue" points="698.823,-203.391 708.24,-198.536 697.851,-196.459 698.823,-203.391"/>
</g>
<!-- Node5&#45;&gt;Node4 -->
<g id="edge10" class="edge"><title>Node5&#45;&gt;Node4</title>
<path fill="none" stroke="midnightblue" d="M709.752,-59.0666C630.296,-49.0884 470.215,-28.9851 384.411,-18.2097"/>
<polygon fill="midnightblue" stroke="midnightblue" points="384.684,-14.7166 374.326,-16.9432 383.812,-21.6621 384.684,-14.7166"/>
</g>
<!-- Node6 -->
<g id="node6" class="node"><title>Node6</title>
<polygon fill="white" stroke="#bfbfbf" points="987,-0.5 987,-19.5 1031,-19.5 1031,-0.5 987,-0.5"/>
<text text-anchor="middle" x="1009" y="-7.5" font-family="Helvetica,sans-Serif" font-size="10.00">vector</text>
</g>
<!-- Node5&#45;&gt;Node6 -->
<g id="edge6" class="edge"><title>Node5&#45;&gt;Node6</title>
<path fill="none" stroke="midnightblue" d="M796.93,-56.4435C846.758,-45.7661 930.985,-27.7174 976.866,-17.8859"/>
<polygon fill="midnightblue" stroke="midnightblue" points="977.81,-21.263 986.855,-15.7454 976.344,-14.4184 977.81,-21.263"/>
</g>
<!-- Node7 -->
<g id="node7" class="node"><title>Node7</title>
<polygon fill="white" stroke="#bfbfbf" points="447.5,-0.5 447.5,-19.5 476.5,-19.5 476.5,-0.5 447.5,-0.5"/>
<text text-anchor="middle" x="462" y="-7.5" font-family="Helvetica,sans-Serif" font-size="10.00">list</text>
</g>
<!-- Node5&#45;&gt;Node7 -->
<g id="edge7" class="edge"><title>Node5&#45;&gt;Node7</title>
<path fill="none" stroke="midnightblue" d="M710.256,-56.4435C646.819,-44.8313 535.752,-24.5004 486.599,-15.5029"/>
<polygon fill="midnightblue" stroke="midnightblue" points="487.024,-12.0225 476.557,-13.6646 485.763,-18.9081 487.024,-12.0225"/>
</g>
<!-- Node8 -->
<g id="node8" class="node"><title>Node8</title>
<polygon fill="white" stroke="#bfbfbf" points="868.5,-0.5 868.5,-19.5 903.5,-19.5 903.5,-0.5 868.5,-0.5"/>
<text text-anchor="middle" x="886" y="-7.5" font-family="Helvetica,sans-Serif" font-size="10.00">map</text>
</g>
<!-- Node5&#45;&gt;Node8 -->
<g id="edge8" class="edge"><title>Node5&#45;&gt;Node8</title>
<path fill="none" stroke="midnightblue" d="M777.44,-56.4435C799.42,-47.2429 834.474,-32.5691 858.777,-22.3957"/>
<polygon fill="midnightblue" stroke="midnightblue" points="860.275,-25.563 868.148,-18.473 857.572,-19.1059 860.275,-25.563"/>
</g>
<!-- Node9 -->
<g id="node9" class="node"><title>Node9</title>
<polygon fill="white" stroke="#bfbfbf" points="548.5,-0.5 548.5,-19.5 613.5,-19.5 613.5,-0.5 548.5,-0.5"/>
<text text-anchor="middle" x="581" y="-7.5" font-family="Helvetica,sans-Serif" font-size="10.00">Eigen/Core</text>
</g>
<!-- Node5&#45;&gt;Node9 -->
<g id="edge9" class="edge"><title>Node5&#45;&gt;Node9</title>
<path fill="none" stroke="midnightblue" d="M729.112,-56.4435C699.246,-47.2801 651.685,-32.6876 618.544,-22.5192"/>
<polygon fill="midnightblue" stroke="midnightblue" points="619.344,-19.1037 608.757,-19.5164 617.291,-25.7958 619.344,-19.1037"/>
</g>
<!-- Node10 -->
<g id="node10" class="node"><title>Node10</title>
<polygon fill="white" stroke="#bfbfbf" points="632,-0.5 632,-19.5 710,-19.5 710,-0.5 632,-0.5"/>
<text text-anchor="middle" x="671" y="-7.5" font-family="Helvetica,sans-Serif" font-size="10.00">hpp/fcl/fwd.hh</text>
</g>
<!-- Node5&#45;&gt;Node10 -->
<g id="edge11" class="edge"><title>Node5&#45;&gt;Node10</title>
<path fill="none" stroke="midnightblue" d="M743.183,-56.324C729.767,-47.9002 709.176,-34.9709 693.414,-25.0741"/>
<polygon fill="midnightblue" stroke="midnightblue" points="695.113,-22.0081 684.783,-19.6545 691.391,-27.9364 695.113,-22.0081"/>
</g>
<!-- Node11 -->
<g id="node11" class="node"><title>Node11</title>
<polygon fill="white" stroke="#bfbfbf" points="728,-0.5 728,-19.5 850,-19.5 850,-0.5 728,-0.5"/>
<text text-anchor="middle" x="789" y="-7.5" font-family="Helvetica,sans-Serif" font-size="10.00">hpp/fcl/math/matrix_3f.h</text>
</g>
<!-- Node5&#45;&gt;Node11 -->
<g id="edge12" class="edge"><title>Node5&#45;&gt;Node11</title>
<path fill="none" stroke="midnightblue" d="M762.284,-56.083C766.711,-48.6127 773.163,-37.7244 778.618,-28.5199"/>
<polygon fill="midnightblue" stroke="midnightblue" points="781.727,-30.1383 783.814,-19.7511 775.705,-26.5697 781.727,-30.1383"/>
</g>
<!-- Node12&#45;&gt;Node2 -->
<g id="edge19" class="edge"><title>Node12&#45;&gt;Node2</title>
<path fill="none" stroke="midnightblue" d="M708.48,-187.18C619.874,-183.392 447.187,-172.501 394,-144 368.597,-130.388 348.696,-102.702 337.647,-84.506"/>
<polygon fill="midnightblue" stroke="midnightblue" points="340.483,-82.4196 332.441,-75.5227 334.427,-85.9297 340.483,-82.4196"/>
</g>
<!-- Node12&#45;&gt;Node5 -->
<g id="edge18" class="edge"><title>Node12&#45;&gt;Node5</title>
<path fill="none" stroke="midnightblue" d="M815.783,-187.933C895.742,-184.447 1031.7,-170.087 984,-112 962.909,-86.3181 874.285,-75.0366 814.215,-70.2685"/>
<polygon fill="midnightblue" stroke="midnightblue" points="814.33,-66.7674 804.095,-69.5049 813.803,-73.7475 814.33,-66.7674"/>
</g>
<!-- Node12&#45;&gt;Node6 -->
<g id="edge15" class="edge"><title>Node12&#45;&gt;Node6</title>
<path fill="none" stroke="midnightblue" d="M815.634,-186.45C878.773,-182.221 978.092,-171.313 1002,-144 1029.83,-112.206 1021.5,-58.0314 1014.45,-29.6297"/>
<polygon fill="midnightblue" stroke="midnightblue" points="1017.78,-28.5383 1011.79,-19.7943 1011.02,-30.3606 1017.78,-28.5383"/>
</g>
<!-- Node12&#45;&gt;Node7 -->
<g id="edge16" class="edge"><title>Node12&#45;&gt;Node7</title>
<path fill="none" stroke="midnightblue" d="M708.271,-189.961C623.062,-190.206 462.881,-185.023 427,-144 401.251,-114.561 414.307,-92.9942 427,-56 430.719,-45.161 438.233,-34.9216 445.349,-26.9566"/>
<polygon fill="midnightblue" stroke="midnightblue" points="448.054,-29.1922 452.444,-19.5497 442.999,-24.3498 448.054,-29.1922"/>
</g>
<!-- Node13 -->
<g id="node13" class="node"><title>Node13</title>
<polygon fill="white" stroke="#bfbfbf" points="1070,-118.5 1070,-137.5 1124,-137.5 1124,-118.5 1070,-118.5"/>
<text text-anchor="middle" x="1097" y="-125.5" font-family="Helvetica,sans-Serif" font-size="10.00">iostream</text>
</g>
<!-- Node12&#45;&gt;Node13 -->
<g id="edge14" class="edge"><title>Node12&#45;&gt;Node13</title>
<path fill="none" stroke="midnightblue" d="M815.755,-184.015C875.197,-177.756 973.477,-165.186 1056,-144 1059.41,-143.125 1062.93,-142.075 1066.4,-140.941"/>
<polygon fill="midnightblue" stroke="midnightblue" points="1067.69,-144.201 1075.97,-137.602 1065.38,-137.592 1067.69,-144.201"/>
</g>
<!-- Node14 -->
<g id="node14" class="node"><title>Node14</title>
<polygon fill="white" stroke="#bfbfbf" points="594.5,-118.5 594.5,-137.5 685.5,-137.5 685.5,-118.5 594.5,-118.5"/>
<text text-anchor="middle" x="640" y="-125.5" font-family="Helvetica,sans-Serif" font-size="10.00">hpp/util/debug.hh</text>
</g>
<!-- Node12&#45;&gt;Node14 -->
<g id="edge17" class="edge"><title>Node12&#45;&gt;Node14</title>
<path fill="none" stroke="midnightblue" d="M744.52,-180.403C724.137,-170.379 690.225,-153.701 666.575,-142.07"/>
<polygon fill="midnightblue" stroke="midnightblue" points="667.965,-138.853 657.447,-137.581 664.876,-145.135 667.965,-138.853"/>
</g>
<!-- Node15 -->
<g id="node15" class="node"><title>Node15</title>
<g id="a_node15"><a xlink:href="a00034.html" target="_top" xlink:title="hpp/model/distance\l&#45;result.hh">
<polygon fill="white" stroke="black" points="436.5,-113 436.5,-143 537.5,-143 537.5,-113 436.5,-113"/>
<text text-anchor="start" x="444.5" y="-131" font-family="Helvetica,sans-Serif" font-size="10.00">hpp/model/distance</text>
<text text-anchor="middle" x="487" y="-120" font-family="Helvetica,sans-Serif" font-size="10.00">&#45;result.hh</text>
</a>
</g>
</g>
<!-- Node12&#45;&gt;Node15 -->
<g id="edge20" class="edge"><title>Node12&#45;&gt;Node15</title>
<path fill="none" stroke="midnightblue" d="M722.891,-180.467C677.198,-170.498 601.063,-153.886 547.678,-142.239"/>
<polygon fill="midnightblue" stroke="midnightblue" points="548.171,-138.764 537.654,-140.052 546.679,-145.603 548.171,-138.764"/>
</g>
<!-- Node17 -->
<g id="node17" class="node"><title>Node17</title>
<g id="a_node17"><a xlink:href="a00035.html" target="_top" xlink:title="hpp/model/extra&#45;config\l&#45;space.hh">
<polygon fill="white" stroke="black" points="704,-113 704,-143 820,-143 820,-113 704,-113"/>
<text text-anchor="start" x="712" y="-131" font-family="Helvetica,sans-Serif" font-size="10.00">hpp/model/extra&#45;config</text>
<text text-anchor="middle" x="762" y="-120" font-family="Helvetica,sans-Serif" font-size="10.00">&#45;space.hh</text>
</a>
</g>
</g>
<!-- Node12&#45;&gt;Node17 -->
<g id="edge24" class="edge"><title>Node12&#45;&gt;Node17</title>
<path fill="none" stroke="midnightblue" d="M762,-180.403C762,-173.341 762,-162.975 762,-153.399"/>
<polygon fill="midnightblue" stroke="midnightblue" points="765.5,-153.141 762,-143.141 758.5,-153.141 765.5,-153.141"/>
</g>
<!-- Node18 -->
<g id="node18" class="node"><title>Node18</title>
<g id="a_node18"><a xlink:href="a00044.html" target="_top" xlink:title="hpp/model/object&#45;iterator.hh">
<polygon fill="white" stroke="black" points="838.5,-118.5 838.5,-137.5 975.5,-137.5 975.5,-118.5 838.5,-118.5"/>
<text text-anchor="middle" x="907" y="-125.5" font-family="Helvetica,sans-Serif" font-size="10.00">hpp/model/object&#45;iterator.hh</text>
</a>
</g>
</g>
<!-- Node12&#45;&gt;Node18 -->
<g id="edge26" class="edge"><title>Node12&#45;&gt;Node18</title>
<path fill="none" stroke="midnightblue" d="M782.775,-180.403C807.432,-170.2 848.745,-153.105 876.902,-141.454"/>
<polygon fill="midnightblue" stroke="midnightblue" points="878.362,-144.638 886.264,-137.581 875.685,-138.17 878.362,-144.638"/>
</g>
<!-- Node15&#45;&gt;Node2 -->
<g id="edge22" class="edge"><title>Node15&#45;&gt;Node2</title>
<path fill="none" stroke="midnightblue" d="M449.722,-112.933C422.537,-102.674 386.074,-88.9148 360.163,-79.1369"/>
<polygon fill="midnightblue" stroke="midnightblue" points="361.382,-75.8561 350.79,-75.6 358.91,-82.4053 361.382,-75.8561"/>
</g>
<!-- Node15&#45;&gt;Node5 -->
<g id="edge23" class="edge"><title>Node15&#45;&gt;Node5</title>
<path fill="none" stroke="midnightblue" d="M537.73,-115.238C542.552,-114.137 547.368,-113.043 552,-112 605.201,-100.023 666.261,-86.6698 707.809,-77.6433"/>
<polygon fill="midnightblue" stroke="midnightblue" points="708.643,-81.0439 717.672,-75.5019 707.157,-74.2032 708.643,-81.0439"/>
</g>
<!-- Node16 -->
<g id="node16" class="node"><title>Node16</title>
<polygon fill="white" stroke="#bfbfbf" points="436,-56.5 436,-75.5 552,-75.5 552,-56.5 436,-56.5"/>
<text text-anchor="middle" x="494" y="-63.5" font-family="Helvetica,sans-Serif" font-size="10.00">hpp/fcl/collision_data.h</text>
</g>
<!-- Node15&#45;&gt;Node16 -->
<g id="edge21" class="edge"><title>Node15&#45;&gt;Node16</title>
<path fill="none" stroke="midnightblue" d="M488.659,-112.781C489.603,-104.691 490.796,-94.4617 491.815,-85.725"/>
<polygon fill="midnightblue" stroke="midnightblue" points="495.299,-86.0688 492.981,-75.7305 488.346,-85.2576 495.299,-86.0688"/>
</g>
<!-- Node17&#45;&gt;Node5 -->
<g id="edge25" class="edge"><title>Node17&#45;&gt;Node5</title>
<path fill="none" stroke="midnightblue" d="M760.815,-112.781C760.141,-104.691 759.288,-94.4617 758.56,-85.725"/>
<polygon fill="midnightblue" stroke="midnightblue" points="762.046,-85.4053 757.728,-75.7305 755.07,-85.9867 762.046,-85.4053"/>
</g>
<!-- Node18&#45;&gt;Node2 -->
<g id="edge28" class="edge"><title>Node18&#45;&gt;Node2</title>
<path fill="none" stroke="midnightblue" d="M866.124,-118.448C853.902,-116.105 840.444,-113.736 828,-112 650.777,-87.2806 605.213,-92.1002 427,-76 415.116,-74.9264 402.43,-73.7762 390.242,-72.6691"/>
<polygon fill="midnightblue" stroke="midnightblue" points="390.425,-69.1714 380.149,-71.7519 389.791,-76.1427 390.425,-69.1714"/>
</g>
<!-- Node18&#45;&gt;Node5 -->
<g id="edge29" class="edge"><title>Node18&#45;&gt;Node5</title>
<path fill="none" stroke="midnightblue" d="M885.509,-118.403C859.89,-108.156 816.89,-90.9561 787.755,-79.3021"/>
<polygon fill="midnightblue" stroke="midnightblue" points="789.036,-76.0449 778.451,-75.5806 786.436,-82.5442 789.036,-76.0449"/>
</g>
<!-- Node18&#45;&gt;Node6 -->
<g id="edge27" class="edge"><title>Node18&#45;&gt;Node6</title>
<path fill="none" stroke="midnightblue" d="M914.667,-118.281C931.659,-98.9568 972.711,-52.2693 994.635,-27.3362"/>
<polygon fill="midnightblue" stroke="midnightblue" points="997.547,-29.3257 1001.52,-19.5048 992.29,-24.7033 997.547,-29.3257"/>
</g>
<!-- Node19&#45;&gt;Node2 -->
<g id="edge35" class="edge"><title>Node19&#45;&gt;Node2</title>
<path fill="none" stroke="midnightblue" d="M875.421,-247.753C748.269,-239.017 433.1,-210.983 355,-144 337.983,-129.406 331.687,-103.431 329.36,-85.7226"/>
<polygon fill="midnightblue" stroke="midnightblue" points="332.836,-85.3081 328.348,-75.7112 325.872,-86.0127 332.836,-85.3081"/>
</g>
<!-- Node19&#45;&gt;Node5 -->
<g id="edge34" class="edge"><title>Node19&#45;&gt;Node5</title>
<path fill="none" stroke="midnightblue" d="M982.631,-237.672C1059.14,-216.233 1184.92,-170.499 1133,-112 1112.24,-88.6103 914.642,-75.1309 814.534,-69.7508"/>
<polygon fill="midnightblue" stroke="midnightblue" points="814.455,-66.2418 804.284,-69.2099 814.086,-73.2321 814.455,-66.2418"/>
</g>
<!-- Node19&#45;&gt;Node6 -->
<g id="edge32" class="edge"><title>Node19&#45;&gt;Node6</title>
<path fill="none" stroke="midnightblue" d="M982.521,-246.573C1022.49,-241 1076.75,-228.415 1116,-200 1140.16,-182.508 1144.41,-172.569 1153,-144 1171.06,-83.9056 1088.4,-41.3819 1040.74,-22.293"/>
<polygon fill="midnightblue" stroke="midnightblue" points="1041.74,-18.9266 1031.15,-18.5775 1039.21,-25.4539 1041.74,-18.9266"/>
</g>
<!-- Node19&#45;&gt;Node12 -->
<g id="edge33" class="edge"><title>Node19&#45;&gt;Node12</title>
<path fill="none" stroke="midnightblue" d="M889.846,-236.933C861.168,-226.629 822.659,-212.794 795.422,-203.008"/>
<polygon fill="midnightblue" stroke="midnightblue" points="796.531,-199.687 785.937,-199.6 794.164,-206.275 796.531,-199.687"/>
</g>
<!-- Node19&#45;&gt;Node13 -->
<g id="edge31" class="edge"><title>Node19&#45;&gt;Node13</title>
<path fill="none" stroke="midnightblue" d="M948.601,-236.766C980.722,-213.44 1044.24,-167.311 1076.77,-143.691"/>
<polygon fill="midnightblue" stroke="midnightblue" points="1079.04,-146.371 1085.07,-137.663 1074.92,-140.707 1079.04,-146.371"/>
</g>
<!-- Node20&#45;&gt;Node2 -->
<g id="edge39" class="edge"><title>Node20&#45;&gt;Node2</title>
<path fill="none" stroke="midnightblue" d="M168.649,-118.403C200.969,-107.978 255.597,-90.3557 291.733,-78.6992"/>
<polygon fill="midnightblue" stroke="midnightblue" points="292.958,-81.9817 301.4,-75.5806 290.809,-75.3197 292.958,-81.9817"/>
</g>
<!-- Node20&#45;&gt;Node5 -->
<g id="edge40" class="edge"><title>Node20&#45;&gt;Node5</title>
<path fill="none" stroke="midnightblue" d="M190.002,-122.317C301.8,-111.41 579.171,-84.3492 699.634,-72.5967"/>
<polygon fill="midnightblue" stroke="midnightblue" points="700.146,-76.0635 709.759,-71.6089 699.466,-69.0965 700.146,-76.0635"/>
</g>
<!-- Node21 -->
<g id="node21" class="node"><title>Node21</title>
<polygon fill="white" stroke="#bfbfbf" points="-0.5,-56.5 -0.5,-75.5 48.5,-75.5 48.5,-56.5 -0.5,-56.5"/>
<text text-anchor="middle" x="24" y="-63.5" font-family="Helvetica,sans-Serif" font-size="10.00">cstddef</text>
</g>
<!-- Node20&#45;&gt;Node21 -->
<g id="edge37" class="edge"><title>Node20&#45;&gt;Node21</title>
<path fill="none" stroke="midnightblue" d="M125.093,-118.403C105.466,-108.423 72.8691,-91.8487 50.0097,-80.2253"/>
<polygon fill="midnightblue" stroke="midnightblue" points="51.3754,-76.9933 40.8752,-75.5806 48.2026,-83.233 51.3754,-76.9933"/>
</g>
<!-- Node22 -->
<g id="node22" class="node"><title>Node22</title>
<polygon fill="white" stroke="#bfbfbf" points="66.5,-56.5 66.5,-75.5 189.5,-75.5 189.5,-56.5 66.5,-56.5"/>
<text text-anchor="middle" x="128" y="-63.5" font-family="Helvetica,sans-Serif" font-size="10.00">hpp/fcl/math/transform.h</text>
</g>
<!-- Node20&#45;&gt;Node22 -->
<g id="edge38" class="edge"><title>Node20&#45;&gt;Node22</title>
<path fill="none" stroke="midnightblue" d="M139.994,-118.403C137.998,-109.849 134.872,-96.4497 132.311,-85.4762"/>
<polygon fill="midnightblue" stroke="midnightblue" points="135.683,-84.5237 130.002,-75.5806 128.866,-86.1143 135.683,-84.5237"/>
</g>
</g>
</svg>
