<?xml version="1.0" encoding="UTF-8" standalone="no"?>
<!DOCTYPE svg PUBLIC "-//W3C//DTD SVG 1.1//EN"
 "http://www.w3.org/Graphics/SVG/1.1/DTD/svg11.dtd">
<!-- Generated by graphviz version 2.36.0 (20140111.2315)
 -->
<!-- Title: object&#45;iterator.hh Pages: 1 -->
<svg width="588pt" height="140pt"
 viewBox="0.00 0.00 588.00 140.00" xmlns="http://www.w3.org/2000/svg" xmlns:xlink="http://www.w3.org/1999/xlink">
<g id="graph0" class="graph" transform="scale(1 1) rotate(0) translate(4 136)">
<title>object&#45;iterator.hh</title>
<polygon fill="white" stroke="none" points="-4,4 -4,-136 584,-136 584,4 -4,4"/>
<!-- Node1 -->
<g id="node1" class="node"><title>Node1</title>
<polygon fill="#bfbfbf" stroke="black" points="44.5,-112.5 44.5,-131.5 133.5,-131.5 133.5,-112.5 44.5,-112.5"/>
<text text-anchor="middle" x="89" y="-119.5" font-family="Helvetica,sans-Serif" font-size="10.00">object&#45;iterator.hh</text>
</g>
<!-- Node2 -->
<g id="node2" class="node"><title>Node2</title>
<polygon fill="white" stroke="#bfbfbf" points="-1,-0.5 -1,-19.5 43,-19.5 43,-0.5 -1,-0.5"/>
<text text-anchor="middle" x="21" y="-7.5" font-family="Helvetica,sans-Serif" font-size="10.00">vector</text>
</g>
<!-- Node1&#45;&gt;Node2 -->
<g id="edge1" class="edge"><title>Node1&#45;&gt;Node2</title>
<path fill="none" stroke="midnightblue" d="M70.1907,-112.444C56.0629,-104.956 37.5677,-92.6622 28,-76 19.9638,-62.0049 18.6951,-43.5042 19.1554,-29.8202"/>
<polygon fill="midnightblue" stroke="midnightblue" points="22.6595,-29.8755 19.8381,-19.6633 15.6752,-29.406 22.6595,-29.8755"/>
</g>
<!-- Node3 -->
<g id="node3" class="node"><title>Node3</title>
<polygon fill="white" stroke="#bfbfbf" points="37,-56.5 37,-75.5 141,-75.5 141,-56.5 37,-56.5"/>
<text text-anchor="middle" x="89" y="-63.5" font-family="Helvetica,sans-Serif" font-size="10.00">hpp/model/config.hh</text>
</g>
<!-- Node1&#45;&gt;Node3 -->
<g id="edge2" class="edge"><title>Node1&#45;&gt;Node3</title>
<path fill="none" stroke="midnightblue" d="M89,-112.083C89,-105.006 89,-94.8611 89,-85.9865"/>
<polygon fill="midnightblue" stroke="midnightblue" points="92.5001,-85.751 89,-75.7511 85.5001,-85.7511 92.5001,-85.751"/>
</g>
<!-- Node4 -->
<g id="node4" class="node"><title>Node4</title>
<g id="a_node4"><a xlink:href="a00040.html" target="_top" xlink:title="hpp/model/fwd.hh">
<polygon fill="white" stroke="black" points="159,-56.5 159,-75.5 253,-75.5 253,-56.5 159,-56.5"/>
<text text-anchor="middle" x="206" y="-63.5" font-family="Helvetica,sans-Serif" font-size="10.00">hpp/model/fwd.hh</text>
</a>
</g>
</g>
<!-- Node1&#45;&gt;Node4 -->
<g id="edge3" class="edge"><title>Node1&#45;&gt;Node4</title>
<path fill="none" stroke="midnightblue" d="M107.539,-112.444C126.623,-103.636 156.575,-89.8116 178.436,-79.722"/>
<polygon fill="midnightblue" stroke="midnightblue" points="179.935,-82.8849 187.548,-75.5164 177.001,-76.5292 179.935,-82.8849"/>
</g>
<!-- Node4&#45;&gt;Node2 -->
<g id="edge4" class="edge"><title>Node4&#45;&gt;Node2</title>
<path fill="none" stroke="midnightblue" d="M176.686,-56.4435C142.932,-46.591 87.6756,-30.4621 52.8761,-20.3044"/>
<polygon fill="midnightblue" stroke="midnightblue" points="53.7892,-16.9249 43.209,-17.4826 51.8277,-23.6445 53.7892,-16.9249"/>
</g>
<!-- Node5 -->
<g id="node5" class="node"><title>Node5</title>
<polygon fill="white" stroke="#bfbfbf" points="66.5,-0.5 66.5,-19.5 95.5,-19.5 95.5,-0.5 66.5,-0.5"/>
<text text-anchor="middle" x="81" y="-7.5" font-family="Helvetica,sans-Serif" font-size="10.00">list</text>
</g>
<!-- Node4&#45;&gt;Node5 -->
<g id="edge5" class="edge"><title>Node4&#45;&gt;Node5</title>
<path fill="none" stroke="midnightblue" d="M186.193,-56.4435C164.147,-46.9195 128.525,-31.5307 104.935,-21.3399"/>
<polygon fill="midnightblue" stroke="midnightblue" points="106.205,-18.0758 95.6365,-17.323 103.428,-24.5018 106.205,-18.0758"/>
</g>
<!-- Node6 -->
<g id="node6" class="node"><title>Node6</title>
<polygon fill="white" stroke="#bfbfbf" points="113.5,-0.5 113.5,-19.5 148.5,-19.5 148.5,-0.5 113.5,-0.5"/>
<text text-anchor="middle" x="131" y="-7.5" font-family="Helvetica,sans-Serif" font-size="10.00">map</text>
</g>
<!-- Node4&#45;&gt;Node6 -->
<g id="edge6" class="edge"><title>Node4&#45;&gt;Node6</title>
<path fill="none" stroke="midnightblue" d="M193.95,-56.324C182.537,-48.1066 165.169,-35.6017 151.565,-25.8069"/>
<polygon fill="midnightblue" stroke="midnightblue" points="153.43,-22.8366 143.269,-19.8339 149.34,-28.5174 153.43,-22.8366"/>
</g>
<!-- Node7 -->
<g id="node7" class="node"><title>Node7</title>
<polygon fill="white" stroke="#bfbfbf" points="166.5,-0.5 166.5,-19.5 231.5,-19.5 231.5,-0.5 166.5,-0.5"/>
<text text-anchor="middle" x="199" y="-7.5" font-family="Helvetica,sans-Serif" font-size="10.00">Eigen/Core</text>
</g>
<!-- Node4&#45;&gt;Node7 -->
<g id="edge7" class="edge"><title>Node4&#45;&gt;Node7</title>
<path fill="none" stroke="midnightblue" d="M204.844,-56.083C203.916,-48.9272 202.582,-38.6353 201.423,-29.6911"/>
<polygon fill="midnightblue" stroke="midnightblue" points="204.891,-29.2181 200.134,-19.7511 197.949,-30.1181 204.891,-29.2181"/>
</g>
<!-- Node8 -->
<g id="node8" class="node"><title>Node8</title>
<polygon fill="white" stroke="#bfbfbf" points="250,-0.5 250,-19.5 344,-19.5 344,-0.5 250,-0.5"/>
<text text-anchor="middle" x="297" y="-7.5" font-family="Helvetica,sans-Serif" font-size="10.00">hpp/util/pointer.hh</text>
</g>
<!-- Node4&#45;&gt;Node8 -->
<g id="edge8" class="edge"><title>Node4&#45;&gt;Node8</title>
<path fill="none" stroke="midnightblue" d="M220.621,-56.324C234.949,-47.8215 257.013,-34.7288 273.749,-24.7975"/>
<polygon fill="midnightblue" stroke="midnightblue" points="275.602,-27.7677 282.416,-19.6545 272.03,-21.7478 275.602,-27.7677"/>
</g>
<!-- Node9 -->
<g id="node9" class="node"><title>Node9</title>
<polygon fill="white" stroke="#bfbfbf" points="362,-0.5 362,-19.5 440,-19.5 440,-0.5 362,-0.5"/>
<text text-anchor="middle" x="401" y="-7.5" font-family="Helvetica,sans-Serif" font-size="10.00">hpp/fcl/fwd.hh</text>
</g>
<!-- Node4&#45;&gt;Node9 -->
<g id="edge9" class="edge"><title>Node4&#45;&gt;Node9</title>
<path fill="none" stroke="midnightblue" d="M236.898,-56.4435C270.274,-47.2011 323.594,-32.4356 360.349,-22.2572"/>
<polygon fill="midnightblue" stroke="midnightblue" points="361.543,-25.5583 370.246,-19.5164 359.675,-18.8122 361.543,-25.5583"/>
</g>
<!-- Node10 -->
<g id="node10" class="node"><title>Node10</title>
<polygon fill="white" stroke="#bfbfbf" points="458,-0.5 458,-19.5 580,-19.5 580,-0.5 458,-0.5"/>
<text text-anchor="middle" x="519" y="-7.5" font-family="Helvetica,sans-Serif" font-size="10.00">hpp/fcl/math/matrix_3f.h</text>
</g>
<!-- Node4&#45;&gt;Node10 -->
<g id="edge10" class="edge"><title>Node4&#45;&gt;Node10</title>
<path fill="none" stroke="midnightblue" d="M253.198,-56.8572C308.33,-47.3456 399.609,-31.5979 459.534,-21.2593"/>
<polygon fill="midnightblue" stroke="midnightblue" points="460.347,-24.6709 469.606,-19.5216 459.157,-17.7728 460.347,-24.6709"/>
</g>
</g>
</svg>
