<?xml version="1.0" encoding="UTF-8" standalone="no"?>
<!DOCTYPE svg PUBLIC "-//W3C//DTD SVG 1.1//EN"
 "http://www.w3.org/Graphics/SVG/1.1/DTD/svg11.dtd">
<!-- Generated by graphviz version 2.36.0 (20140111.2315)
 -->
<!-- Title: fwd.hh Pages: 1 -->
<svg width="805pt" height="252pt"
 viewBox="0.00 0.00 804.87 252.00" xmlns="http://www.w3.org/2000/svg" xmlns:xlink="http://www.w3.org/1999/xlink">
<g id="graph0" class="graph" transform="scale(1 1) rotate(0) translate(4 248)">
<title>fwd.hh</title>
<polygon fill="white" stroke="none" points="-4,4 -4,-248 800.872,-248 800.872,4 -4,4"/>
<!-- Node1 -->
<g id="node1" class="node"><title>Node1</title>
<polygon fill="#bfbfbf" stroke="black" points="384.872,-224.5 384.872,-243.5 430.872,-243.5 430.872,-224.5 384.872,-224.5"/>
<text text-anchor="middle" x="407.872" y="-231.5" font-family="Helvetica,sans-Serif" font-size="10.00">fwd.hh</text>
</g>
<!-- Node2 -->
<g id="node2" class="node"><title>Node2</title>
<g id="a_node2"><a xlink:href="a00027.html" target="_top" xlink:title="body.hh">
<polygon fill="white" stroke="black" points="354.372,-56.5 354.372,-75.5 405.372,-75.5 405.372,-56.5 354.372,-56.5"/>
<text text-anchor="middle" x="379.872" y="-63.5" font-family="Helvetica,sans-Serif" font-size="10.00">body.hh</text>
</a>
</g>
</g>
<!-- Node1&#45;&gt;Node2 -->
<g id="edge1" class="edge"><title>Node1&#45;&gt;Node2</title>
<path fill="none" stroke="midnightblue" d="M404.655,-213.93C398.581,-177.92 385.646,-101.231 381.317,-75.5681"/>
<polygon fill="midnightblue" stroke="midnightblue" points="401.252,-214.797 406.366,-224.075 408.154,-213.632 401.252,-214.797"/>
</g>
<!-- Node4 -->
<g id="node4" class="node"><title>Node4</title>
<g id="a_node4"><a xlink:href="a00033.html" target="_top" xlink:title="device.hh">
<polygon fill="white" stroke="black" points="267.372,-112.5 267.372,-131.5 326.372,-131.5 326.372,-112.5 267.372,-112.5"/>
<text text-anchor="middle" x="296.872" y="-119.5" font-family="Helvetica,sans-Serif" font-size="10.00">device.hh</text>
</a>
</g>
</g>
<!-- Node1&#45;&gt;Node4 -->
<g id="edge3" class="edge"><title>Node1&#45;&gt;Node4</title>
<path fill="none" stroke="midnightblue" d="M399.977,-215.034C393.193,-201.042 382.376,-181.752 368.872,-168 353.38,-152.224 331.323,-139.486 315.714,-131.642"/>
<polygon fill="midnightblue" stroke="midnightblue" points="396.811,-216.524 404.186,-224.13 403.164,-213.585 396.811,-216.524"/>
</g>
<!-- Node5 -->
<g id="node5" class="node"><title>Node5</title>
<g id="a_node5"><a xlink:href="a00028.html" target="_top" xlink:title="center&#45;of&#45;mass&#45;computation.hh">
<polygon fill="white" stroke="black" points="183.872,-56.5 183.872,-75.5 335.872,-75.5 335.872,-56.5 183.872,-56.5"/>
<text text-anchor="middle" x="259.872" y="-63.5" font-family="Helvetica,sans-Serif" font-size="10.00">center&#45;of&#45;mass&#45;computation.hh</text>
</a>
</g>
</g>
<!-- Node1&#45;&gt;Node5 -->
<g id="edge15" class="edge"><title>Node1&#45;&gt;Node5</title>
<path fill="none" stroke="midnightblue" d="M374.455,-231.599C284.984,-227.508 45.1766,-214.18 21.8716,-188 -34.4526,-124.728 110.926,-90.1293 198.732,-75.5098"/>
<polygon fill="midnightblue" stroke="midnightblue" points="374.45,-235.102 384.597,-232.053 374.763,-228.109 374.45,-235.102"/>
</g>
<!-- Node7 -->
<g id="node7" class="node"><title>Node7</title>
<g id="a_node7"><a xlink:href="a00039.html" target="_top" xlink:title="humanoid&#45;robot.hh">
<polygon fill="white" stroke="black" points="68.3716,-56.5 68.3716,-75.5 165.372,-75.5 165.372,-56.5 68.3716,-56.5"/>
<text text-anchor="middle" x="116.872" y="-63.5" font-family="Helvetica,sans-Serif" font-size="10.00">humanoid&#45;robot.hh</text>
</a>
</g>
</g>
<!-- Node1&#45;&gt;Node7 -->
<g id="edge26" class="edge"><title>Node1&#45;&gt;Node7</title>
<path fill="none" stroke="midnightblue" d="M374.721,-231.765C283.046,-228.01 31.2657,-215.285 6.87163,-188 -8.13922,-171.21 5.196,-133.841 23.8716,-112 39.3751,-93.8689 63.8714,-82.431 83.8318,-75.6256"/>
<polygon fill="midnightblue" stroke="midnightblue" points="374.701,-235.267 384.833,-232.169 374.981,-228.272 374.701,-235.267"/>
</g>
<!-- Node8 -->
<g id="node8" class="node"><title>Node8</title>
<g id="a_node8"><a xlink:href="a00034.html" target="_top" xlink:title="distance&#45;result.hh">
<polygon fill="white" stroke="black" points="30.8716,-168.5 30.8716,-187.5 124.872,-187.5 124.872,-168.5 30.8716,-168.5"/>
<text text-anchor="middle" x="77.8716" y="-175.5" font-family="Helvetica,sans-Serif" font-size="10.00">distance&#45;result.hh</text>
</a>
</g>
</g>
<!-- Node1&#45;&gt;Node8 -->
<g id="edge9" class="edge"><title>Node1&#45;&gt;Node8</title>
<path fill="none" stroke="midnightblue" d="M374.784,-227.586C315.918,-217.953 192.838,-197.813 125.092,-186.727"/>
<polygon fill="midnightblue" stroke="midnightblue" points="374.233,-231.042 384.667,-229.203 375.363,-224.134 374.233,-231.042"/>
</g>
<!-- Node9 -->
<g id="node9" class="node"><title>Node9</title>
<g id="a_node9"><a xlink:href="a00035.html" target="_top" xlink:title="extra&#45;config&#45;space.hh">
<polygon fill="white" stroke="black" points="142.872,-168.5 142.872,-187.5 252.872,-187.5 252.872,-168.5 142.872,-168.5"/>
<text text-anchor="middle" x="197.872" y="-175.5" font-family="Helvetica,sans-Serif" font-size="10.00">extra&#45;config&#45;space.hh</text>
</a>
</g>
</g>
<!-- Node1&#45;&gt;Node9 -->
<g id="edge11" class="edge"><title>Node1&#45;&gt;Node9</title>
<path fill="none" stroke="midnightblue" d="M374.735,-224.479C335.518,-214.395 270.593,-197.7 231.265,-187.587"/>
<polygon fill="midnightblue" stroke="midnightblue" points="374.039,-227.914 384.596,-227.015 375.782,-221.135 374.039,-227.914"/>
</g>
<!-- Node10 -->
<g id="node10" class="node"><title>Node10</title>
<g id="a_node10"><a xlink:href="a00044.html" target="_top" xlink:title="object&#45;iterator.hh">
<polygon fill="white" stroke="black" points="271.372,-168.5 271.372,-187.5 360.372,-187.5 360.372,-168.5 271.372,-168.5"/>
<text text-anchor="middle" x="315.872" y="-175.5" font-family="Helvetica,sans-Serif" font-size="10.00">object&#45;iterator.hh</text>
</a>
</g>
</g>
<!-- Node1&#45;&gt;Node10 -->
<g id="edge13" class="edge"><title>Node1&#45;&gt;Node10</title>
<path fill="none" stroke="midnightblue" d="M384.322,-219.177C367.393,-209.241 345.089,-196.149 330.616,-187.655"/>
<polygon fill="midnightblue" stroke="midnightblue" points="382.694,-222.28 393.09,-224.324 386.238,-216.243 382.694,-222.28"/>
</g>
<!-- Node11 -->
<g id="node11" class="node"><title>Node11</title>
<g id="a_node11"><a xlink:href="a00041.html" target="_top" xlink:title="joint.hh">
<polygon fill="white" stroke="black" points="555.872,-112.5 555.872,-131.5 603.872,-131.5 603.872,-112.5 555.872,-112.5"/>
<text text-anchor="middle" x="579.872" y="-119.5" font-family="Helvetica,sans-Serif" font-size="10.00">joint.hh</text>
</a>
</g>
</g>
<!-- Node1&#45;&gt;Node11 -->
<g id="edge16" class="edge"><title>Node1&#45;&gt;Node11</title>
<path fill="none" stroke="midnightblue" d="M430.21,-218.714C466.454,-195.535 536.981,-150.43 566.438,-131.591"/>
<polygon fill="midnightblue" stroke="midnightblue" points="427.907,-216.032 421.368,-224.368 431.678,-221.929 427.907,-216.032"/>
</g>
<!-- Node14 -->
<g id="node14" class="node"><title>Node14</title>
<g id="a_node14"><a xlink:href="a00030.html" target="_top" xlink:title="collision&#45;object.hh">
<polygon fill="white" stroke="black" points="531.372,-168.5 531.372,-187.5 626.372,-187.5 626.372,-168.5 531.372,-168.5"/>
<text text-anchor="middle" x="578.872" y="-175.5" font-family="Helvetica,sans-Serif" font-size="10.00">collision&#45;object.hh</text>
</a>
</g>
</g>
<!-- Node1&#45;&gt;Node14 -->
<g id="edge21" class="edge"><title>Node1&#45;&gt;Node14</title>
<path fill="none" stroke="midnightblue" d="M440.782,-222.607C473.016,-212.428 521.554,-197.1 551.67,-187.59"/>
<polygon fill="midnightblue" stroke="midnightblue" points="439.415,-219.368 430.933,-225.717 441.523,-226.043 439.415,-219.368"/>
</g>
<!-- Node15 -->
<g id="node15" class="node"><title>Node15</title>
<g id="a_node15"><a xlink:href="a00040.html" target="_top" xlink:title="joint&#45;configuration.hh">
<polygon fill="white" stroke="black" points="430.372,-112.5 430.372,-131.5 537.372,-131.5 537.372,-112.5 430.372,-112.5"/>
<text text-anchor="middle" x="483.872" y="-119.5" font-family="Helvetica,sans-Serif" font-size="10.00">joint&#45;configuration.hh</text>
</a>
</g>
</g>
<!-- Node1&#45;&gt;Node15 -->
<g id="edge22" class="edge"><title>Node1&#45;&gt;Node15</title>
<path fill="none" stroke="midnightblue" d="M420.451,-216.251C426.69,-207.842 434.282,-197.456 440.872,-188 454.796,-168.018 470.398,-144.001 478.434,-131.501"/>
<polygon fill="midnightblue" stroke="midnightblue" points="417.499,-214.355 414.323,-224.462 423.109,-218.542 417.499,-214.355"/>
</g>
<!-- Node16 -->
<g id="node16" class="node"><title>Node16</title>
<g id="a_node16"><a xlink:href="a00032.html" target="_top" xlink:title="debug.hh">
<polygon fill="white" stroke="black" points="644.872,-168.5 644.872,-187.5 700.872,-187.5 700.872,-168.5 644.872,-168.5"/>
<text text-anchor="middle" x="672.872" y="-175.5" font-family="Helvetica,sans-Serif" font-size="10.00">debug.hh</text>
</a>
</g>
</g>
<!-- Node1&#45;&gt;Node16 -->
<g id="edge24" class="edge"><title>Node1&#45;&gt;Node16</title>
<path fill="none" stroke="midnightblue" d="M441.054,-226.819C485.343,-218.478 566.179,-202.938 634.872,-188 638.052,-187.308 641.375,-186.56 644.676,-185.8"/>
<polygon fill="midnightblue" stroke="midnightblue" points="440.314,-223.397 431.132,-228.682 441.606,-230.276 440.314,-223.397"/>
</g>
<!-- Node17 -->
<g id="node17" class="node"><title>Node17</title>
<g id="a_node17"><a xlink:href="a00036.html" target="_top" xlink:title="fcl&#45;to&#45;eigen.hh">
<polygon fill="white" stroke="black" points="718.872,-168.5 718.872,-187.5 796.872,-187.5 796.872,-168.5 718.872,-168.5"/>
<text text-anchor="middle" x="757.872" y="-175.5" font-family="Helvetica,sans-Serif" font-size="10.00">fcl&#45;to&#45;eigen.hh</text>
</a>
</g>
</g>
<!-- Node1&#45;&gt;Node17 -->
<g id="edge25" class="edge"><title>Node1&#45;&gt;Node17</title>
<path fill="none" stroke="midnightblue" d="M440.904,-228.428C496.365,-220.67 611.678,-204.187 708.872,-188 712.114,-187.46 715.473,-186.882 718.843,-186.289"/>
<polygon fill="midnightblue" stroke="midnightblue" points="440.368,-224.969 430.948,-229.817 441.335,-231.902 440.368,-224.969"/>
</g>
<!-- Node3 -->
<g id="node3" class="node"><title>Node3</title>
<g id="a_node3"><a xlink:href="a00043.html" target="_top" xlink:title="object&#45;factory.hh">
<polygon fill="white" stroke="black" points="335.372,-0.5 335.372,-19.5 424.372,-19.5 424.372,-0.5 335.372,-0.5"/>
<text text-anchor="middle" x="379.872" y="-7.5" font-family="Helvetica,sans-Serif" font-size="10.00">object&#45;factory.hh</text>
</a>
</g>
</g>
<!-- Node2&#45;&gt;Node3 -->
<g id="edge2" class="edge"><title>Node2&#45;&gt;Node3</title>
<path fill="none" stroke="midnightblue" d="M379.872,-45.8045C379.872,-36.9102 379.872,-26.7798 379.872,-19.7511"/>
<polygon fill="midnightblue" stroke="midnightblue" points="376.372,-46.083 379.872,-56.083 383.372,-46.083 376.372,-46.083"/>
</g>
<!-- Node4&#45;&gt;Node2 -->
<g id="edge4" class="edge"><title>Node4&#45;&gt;Node2</title>
<path fill="none" stroke="midnightblue" d="M318.971,-106.622C334.133,-96.7574 353.754,-83.9919 366.569,-75.6545"/>
<polygon fill="midnightblue" stroke="midnightblue" points="316.68,-103.937 310.207,-112.324 320.498,-109.804 316.68,-103.937"/>
</g>
<!-- Node4&#45;&gt;Node5 -->
<g id="edge5" class="edge"><title>Node4&#45;&gt;Node5</title>
<path fill="none" stroke="midnightblue" d="M284.926,-103.566C278.56,-94.2747 271.005,-83.2484 265.868,-75.7511"/>
<polygon fill="midnightblue" stroke="midnightblue" points="282.222,-105.812 290.762,-112.083 287.997,-101.855 282.222,-105.812"/>
</g>
<!-- Node6 -->
<g id="node6" class="node"><title>Node6</title>
<g id="a_node6"><a xlink:href="a00031.html" target="_top" xlink:title="configuration.hh">
<polygon fill="white" stroke="black" points="423.872,-56.5 423.872,-75.5 509.872,-75.5 509.872,-56.5 423.872,-56.5"/>
<text text-anchor="middle" x="466.872" y="-63.5" font-family="Helvetica,sans-Serif" font-size="10.00">configuration.hh</text>
</a>
</g>
</g>
<!-- Node4&#45;&gt;Node6 -->
<g id="edge6" class="edge"><title>Node4&#45;&gt;Node6</title>
<path fill="none" stroke="midnightblue" d="M333.691,-109.304C365.724,-99.1294 411.387,-84.6246 440.061,-75.5164"/>
<polygon fill="midnightblue" stroke="midnightblue" points="332.28,-106.08 323.809,-112.444 334.399,-112.752 332.28,-106.08"/>
</g>
<!-- Node4&#45;&gt;Node7 -->
<g id="edge7" class="edge"><title>Node4&#45;&gt;Node7</title>
<path fill="none" stroke="midnightblue" d="M258.764,-109.568C224.808,-99.381 175.883,-84.7034 145.26,-75.5164"/>
<polygon fill="midnightblue" stroke="midnightblue" points="257.766,-112.922 268.35,-112.444 259.778,-106.218 257.766,-112.922"/>
</g>
<!-- Node7&#45;&gt;Node3 -->
<g id="edge8" class="edge"><title>Node7&#45;&gt;Node3</title>
<path fill="none" stroke="midnightblue" d="M168.451,-54.4096C218.155,-44.2042 292.401,-28.9597 338.393,-19.5164"/>
<polygon fill="midnightblue" stroke="midnightblue" points="167.636,-51.0037 158.545,-56.4435 169.044,-57.8607 167.636,-51.0037"/>
</g>
<!-- Node8&#45;&gt;Node4 -->
<g id="edge10" class="edge"><title>Node8&#45;&gt;Node4</title>
<path fill="none" stroke="midnightblue" d="M122.535,-165.987C165.746,-155.332 230.012,-139.486 267.249,-130.304"/>
<polygon fill="midnightblue" stroke="midnightblue" points="121.444,-162.651 112.573,-168.444 123.12,-169.448 121.444,-162.651"/>
</g>
<!-- Node9&#45;&gt;Node4 -->
<g id="edge12" class="edge"><title>Node9&#45;&gt;Node4</title>
<path fill="none" stroke="midnightblue" d="M222.709,-163.453C240.985,-153.483 265.287,-140.228 281.005,-131.655"/>
<polygon fill="midnightblue" stroke="midnightblue" points="220.881,-160.463 213.778,-168.324 224.233,-166.608 220.881,-160.463"/>
</g>
<!-- Node10&#45;&gt;Node4 -->
<g id="edge14" class="edge"><title>Node10&#45;&gt;Node4</title>
<path fill="none" stroke="midnightblue" d="M309.326,-158.396C306.147,-149.362 302.479,-138.936 299.951,-131.751"/>
<polygon fill="midnightblue" stroke="midnightblue" points="306.113,-159.812 312.734,-168.083 312.717,-157.488 306.113,-159.812"/>
</g>
<!-- Node11&#45;&gt;Node3 -->
<g id="edge20" class="edge"><title>Node11&#45;&gt;Node3</title>
<path fill="none" stroke="midnightblue" d="M567.768,-103.879C556.605,-89.2515 538.787,-68.628 518.872,-56 490.06,-37.7305 453.154,-26.2367 424.612,-19.4418"/>
<polygon fill="midnightblue" stroke="midnightblue" points="565.066,-106.113 573.817,-112.086 570.701,-101.96 565.066,-106.113"/>
</g>
<!-- Node11&#45;&gt;Node6 -->
<g id="edge18" class="edge"><title>Node11&#45;&gt;Node6</title>
<path fill="none" stroke="midnightblue" d="M552.869,-108.096C531.757,-98.0073 503.01,-84.2697 484.693,-75.5164"/>
<polygon fill="midnightblue" stroke="midnightblue" points="551.435,-111.29 561.966,-112.444 554.453,-104.974 551.435,-111.29"/>
</g>
<!-- Node12 -->
<g id="node12" class="node"><title>Node12</title>
<g id="a_node12"><a xlink:href="a00029.html" target="_top" xlink:title="children&#45;iterator.hh">
<polygon fill="white" stroke="black" points="643.372,-56.5 643.372,-75.5 740.372,-75.5 740.372,-56.5 643.372,-56.5"/>
<text text-anchor="middle" x="691.872" y="-63.5" font-family="Helvetica,sans-Serif" font-size="10.00">children&#45;iterator.hh</text>
</a>
</g>
</g>
<!-- Node11&#45;&gt;Node12 -->
<g id="edge17" class="edge"><title>Node11&#45;&gt;Node12</title>
<path fill="none" stroke="midnightblue" d="M607.12,-107.862C627.888,-97.8492 655.895,-84.3458 673.922,-75.6545"/>
<polygon fill="midnightblue" stroke="midnightblue" points="605.354,-104.828 597.866,-112.324 608.394,-111.134 605.354,-104.828"/>
</g>
<!-- Node13 -->
<g id="node13" class="node"><title>Node13</title>
<g id="a_node13"><a xlink:href="a00038.html" target="_top" xlink:title="gripper.hh">
<polygon fill="white" stroke="black" points="566.372,-56.5 566.372,-75.5 625.372,-75.5 625.372,-56.5 566.372,-56.5"/>
<text text-anchor="middle" x="595.872" y="-63.5" font-family="Helvetica,sans-Serif" font-size="10.00">gripper.hh</text>
</a>
</g>
</g>
<!-- Node11&#45;&gt;Node13 -->
<g id="edge19" class="edge"><title>Node11&#45;&gt;Node13</title>
<path fill="none" stroke="midnightblue" d="M585.384,-102.396C588.061,-93.362 591.15,-82.936 593.279,-75.7511"/>
<polygon fill="midnightblue" stroke="midnightblue" points="581.999,-101.501 582.514,-112.083 588.71,-103.489 581.999,-101.501"/>
</g>
<!-- Node15&#45;&gt;Node6 -->
<g id="edge23" class="edge"><title>Node15&#45;&gt;Node6</title>
<path fill="none" stroke="midnightblue" d="M478.015,-102.396C475.171,-93.362 471.889,-82.936 469.627,-75.7511"/>
<polygon fill="midnightblue" stroke="midnightblue" points="474.723,-103.596 481.064,-112.083 481.4,-101.493 474.723,-103.596"/>
</g>
</g>
</svg>
