<?xml version="1.0" encoding="UTF-8" standalone="no"?>
<!DOCTYPE svg PUBLIC "-//W3C//DTD SVG 1.1//EN"
 "http://www.w3.org/Graphics/SVG/1.1/DTD/svg11.dtd">
<!-- Generated by graphviz version 2.36.0 (20140111.2315)
 -->
<!-- Title: hpp::model::Joint Pages: 1 -->
<svg width="438pt" height="153pt"
 viewBox="0.00 0.00 438.00 153.00" xmlns="http://www.w3.org/2000/svg" xmlns:xlink="http://www.w3.org/1999/xlink">
<g id="graph0" class="graph" transform="scale(1 1) rotate(0) translate(4 149)">
<title>hpp::model::Joint</title>
<polygon fill="white" stroke="none" points="-4,4 -4,-149 434,-149 434,4 -4,4"/>
<!-- Node1 -->
<g id="node1" class="node"><title>Node1</title>
<polygon fill="#bfbfbf" stroke="black" points="0,-68.5 0,-87.5 92,-87.5 92,-68.5 0,-68.5"/>
<text text-anchor="middle" x="46" y="-75.5" font-family="Helvetica,sans-Serif" font-size="10.00">hpp::model::Joint</text>
</g>
<!-- Node2 -->
<g id="node2" class="node"><title>Node2</title>
<g id="a_node2"><a xlink:href="a00014.html" target="_top" xlink:title="Anchor Joint. ">
<polygon fill="white" stroke="black" points="137,-125.5 137,-144.5 259,-144.5 259,-125.5 137,-125.5"/>
<text text-anchor="middle" x="198" y="-132.5" font-family="Helvetica,sans-Serif" font-size="10.00">hpp::model::JointAnchor</text>
</a>
</g>
</g>
<!-- Node1&#45;&gt;Node2 -->
<g id="edge1" class="edge"><title>Node1&#45;&gt;Node2</title>
<path fill="none" stroke="midnightblue" d="M73.9864,-92.0723C89.5084,-99.806 109.537,-109.184 128,-116 137.558,-119.529 148.072,-122.746 157.95,-125.49"/>
<polygon fill="midnightblue" stroke="midnightblue" points="75.4618,-88.8963 64.9584,-87.5069 72.3029,-95.143 75.4618,-88.8963"/>
</g>
<!-- Node3 -->
<g id="node3" class="node"><title>Node3</title>
<g id="a_node3"><a xlink:href="a00016.html" target="_top" xlink:title="Rotation Joint. ">
<polygon fill="white" stroke="black" points="134,-87.5 134,-106.5 262,-106.5 262,-87.5 134,-87.5"/>
<text text-anchor="middle" x="198" y="-94.5" font-family="Helvetica,sans-Serif" font-size="10.00">hpp::model::JointRotation</text>
</a>
</g>
</g>
<!-- Node1&#45;&gt;Node3 -->
<g id="edge2" class="edge"><title>Node1&#45;&gt;Node3</title>
<path fill="none" stroke="midnightblue" d="M102.086,-84.9775C112.378,-86.2812 123.21,-87.6532 133.726,-88.9853"/>
<polygon fill="midnightblue" stroke="midnightblue" points="102.366,-81.4851 92.0049,-83.7006 101.486,-88.4296 102.366,-81.4851"/>
</g>
<!-- Node6 -->
<g id="node6" class="node"><title>Node6</title>
<g id="a_node6"><a xlink:href="a00017.html" target="_top" xlink:title="Spherical Joint. ">
<polygon fill="white" stroke="black" points="142.5,-49.5 142.5,-68.5 253.5,-68.5 253.5,-49.5 142.5,-49.5"/>
<text text-anchor="middle" x="198" y="-56.5" font-family="Helvetica,sans-Serif" font-size="10.00">hpp::model::JointSO3</text>
</a>
</g>
</g>
<!-- Node1&#45;&gt;Node6 -->
<g id="edge5" class="edge"><title>Node1&#45;&gt;Node6</title>
<path fill="none" stroke="midnightblue" d="M102.306,-70.9946C115.424,-69.333 129.407,-67.5618 142.489,-65.9048"/>
<polygon fill="midnightblue" stroke="midnightblue" points="101.486,-67.5704 92.0049,-72.2994 102.366,-74.5149 101.486,-67.5704"/>
</g>
<!-- Node7 -->
<g id="node7" class="node"><title>Node7</title>
<g id="a_node7"><a xlink:href="a00018.html" target="_top" xlink:title="Translation Joint. ">
<polygon fill="white" stroke="black" points="128,-0 128,-30 268,-30 268,-0 128,-0"/>
<text text-anchor="start" x="136" y="-18" font-family="Helvetica,sans-Serif" font-size="10.00">hpp::model::JointTranslation</text>
<text text-anchor="middle" x="198" y="-7" font-family="Helvetica,sans-Serif" font-size="10.00">&lt; dimension &gt;</text>
</a>
</g>
</g>
<!-- Node1&#45;&gt;Node7 -->
<g id="edge6" class="edge"><title>Node1&#45;&gt;Node7</title>
<path fill="none" stroke="midnightblue" d="M75.1253,-64.0344C90.5791,-56.5569 110.177,-47.3916 128,-40 136.238,-36.5834 145.131,-33.166 153.703,-30.0037"/>
<polygon fill="midnightblue" stroke="midnightblue" points="73.5448,-60.9111 66.0916,-68.4411 76.6138,-67.2025 73.5448,-60.9111"/>
</g>
<!-- Node4 -->
<g id="node4" class="node"><title>Node4</title>
<g id="a_node4"><a xlink:href="a00004.html" target="_top" xlink:title="Rotation about an axis with bound. ">
<polygon fill="white" stroke="black" points="304.5,-106 304.5,-136 429.5,-136 429.5,-106 304.5,-106"/>
<text text-anchor="start" x="312.5" y="-124" font-family="Helvetica,sans-Serif" font-size="10.00">hpp::model::jointRotation</text>
<text text-anchor="middle" x="367" y="-113" font-family="Helvetica,sans-Serif" font-size="10.00">::Bounded</text>
</a>
</g>
</g>
<!-- Node3&#45;&gt;Node4 -->
<g id="edge3" class="edge"><title>Node3&#45;&gt;Node4</title>
<path fill="none" stroke="midnightblue" d="M272.319,-107.537C283.037,-109.077 293.982,-110.65 304.434,-112.152"/>
<polygon fill="midnightblue" stroke="midnightblue" points="272.532,-104.032 262.136,-106.073 271.536,-110.96 272.532,-104.032"/>
</g>
<!-- Node5 -->
<g id="node5" class="node"><title>Node5</title>
<g id="a_node5"><a xlink:href="a00025.html" target="_top" xlink:title="Rotation about an axis without bound. ">
<polygon fill="white" stroke="black" points="304.5,-57 304.5,-87 429.5,-87 429.5,-57 304.5,-57"/>
<text text-anchor="start" x="312.5" y="-75" font-family="Helvetica,sans-Serif" font-size="10.00">hpp::model::jointRotation</text>
<text text-anchor="middle" x="367" y="-64" font-family="Helvetica,sans-Serif" font-size="10.00">::UnBounded</text>
</a>
</g>
</g>
<!-- Node3&#45;&gt;Node5 -->
<g id="edge4" class="edge"><title>Node3&#45;&gt;Node5</title>
<path fill="none" stroke="midnightblue" d="M272.319,-86.0242C283.037,-84.4196 293.982,-82.7811 304.434,-81.2164"/>
<polygon fill="midnightblue" stroke="midnightblue" points="271.507,-82.6066 262.136,-87.5486 272.544,-89.5294 271.507,-82.6066"/>
</g>
</g>
</svg>
