<?xml version="1.0" encoding="UTF-8" standalone="no"?>
<!DOCTYPE svg PUBLIC "-//W3C//DTD SVG 1.1//EN"
 "http://www.w3.org/Graphics/SVG/1.1/DTD/svg11.dtd">
<!-- Generated by graphviz version 2.36.0 (20140111.2315)
 -->
<!-- Title: object&#45;iterator.hh Pages: 1 -->
<svg width="448pt" height="196pt"
 viewBox="0.00 0.00 448.00 196.00" xmlns="http://www.w3.org/2000/svg" xmlns:xlink="http://www.w3.org/1999/xlink">
<g id="graph0" class="graph" transform="scale(1 1) rotate(0) translate(4 192)">
<title>object&#45;iterator.hh</title>
<polygon fill="white" stroke="none" points="-4,4 -4,-192 444,-192 444,4 -4,4"/>
<!-- Node1 -->
<g id="node1" class="node"><title>Node1</title>
<polygon fill="#bfbfbf" stroke="black" points="168.5,-168.5 168.5,-187.5 257.5,-187.5 257.5,-168.5 168.5,-168.5"/>
<text text-anchor="middle" x="213" y="-175.5" font-family="Helvetica,sans-Serif" font-size="10.00">object&#45;iterator.hh</text>
</g>
<!-- Node2 -->
<g id="node2" class="node"><title>Node2</title>
<g id="a_node2"><a xlink:href="a00033.html" target="_top" xlink:title="device.hh">
<polygon fill="white" stroke="black" points="183.5,-112.5 183.5,-131.5 242.5,-131.5 242.5,-112.5 183.5,-112.5"/>
<text text-anchor="middle" x="213" y="-119.5" font-family="Helvetica,sans-Serif" font-size="10.00">device.hh</text>
</a>
</g>
</g>
<!-- Node1&#45;&gt;Node2 -->
<g id="edge1" class="edge"><title>Node1&#45;&gt;Node2</title>
<path fill="none" stroke="midnightblue" d="M213,-157.805C213,-148.91 213,-138.78 213,-131.751"/>
<polygon fill="midnightblue" stroke="midnightblue" points="209.5,-158.083 213,-168.083 216.5,-158.083 209.5,-158.083"/>
</g>
<!-- Node3 -->
<g id="node3" class="node"><title>Node3</title>
<g id="a_node3"><a xlink:href="a00027.html" target="_top" xlink:title="body.hh">
<polygon fill="white" stroke="black" points="-0.5,-56.5 -0.5,-75.5 50.5,-75.5 50.5,-56.5 -0.5,-56.5"/>
<text text-anchor="middle" x="25" y="-63.5" font-family="Helvetica,sans-Serif" font-size="10.00">body.hh</text>
</a>
</g>
</g>
<!-- Node2&#45;&gt;Node3 -->
<g id="edge2" class="edge"><title>Node2&#45;&gt;Node3</title>
<path fill="none" stroke="midnightblue" d="M173.271,-109.589C136.314,-98.9733 82.3339,-83.4683 50.7226,-74.3884"/>
<polygon fill="midnightblue" stroke="midnightblue" points="172.633,-113.047 183.211,-112.444 174.566,-106.319 172.633,-113.047"/>
</g>
<!-- Node5 -->
<g id="node5" class="node"><title>Node5</title>
<g id="a_node5"><a xlink:href="a00028.html" target="_top" xlink:title="center&#45;of&#45;mass&#45;computation.hh">
<polygon fill="white" stroke="black" points="69,-56.5 69,-75.5 221,-75.5 221,-56.5 69,-56.5"/>
<text text-anchor="middle" x="145" y="-63.5" font-family="Helvetica,sans-Serif" font-size="10.00">center&#45;of&#45;mass&#45;computation.hh</text>
</a>
</g>
</g>
<!-- Node2&#45;&gt;Node5 -->
<g id="edge4" class="edge"><title>Node2&#45;&gt;Node5</title>
<path fill="none" stroke="midnightblue" d="M194.238,-106.101C182,-96.3824 166.441,-84.0269 156.124,-75.8339"/>
<polygon fill="midnightblue" stroke="midnightblue" points="192.067,-108.846 202.075,-112.324 196.42,-103.364 192.067,-108.846"/>
</g>
<!-- Node6 -->
<g id="node6" class="node"><title>Node6</title>
<g id="a_node6"><a xlink:href="a00031.html" target="_top" xlink:title="configuration.hh">
<polygon fill="white" stroke="black" points="239,-56.5 239,-75.5 325,-75.5 325,-56.5 239,-56.5"/>
<text text-anchor="middle" x="282" y="-63.5" font-family="Helvetica,sans-Serif" font-size="10.00">configuration.hh</text>
</a>
</g>
</g>
<!-- Node2&#45;&gt;Node6 -->
<g id="edge5" class="edge"><title>Node2&#45;&gt;Node6</title>
<path fill="none" stroke="midnightblue" d="M232.038,-106.101C244.456,-96.3824 260.243,-84.0269 270.712,-75.8339"/>
<polygon fill="midnightblue" stroke="midnightblue" points="229.804,-103.405 224.086,-112.324 234.118,-108.917 229.804,-103.405"/>
</g>
<!-- Node7 -->
<g id="node7" class="node"><title>Node7</title>
<g id="a_node7"><a xlink:href="a00039.html" target="_top" xlink:title="humanoid&#45;robot.hh">
<polygon fill="white" stroke="black" points="343.5,-56.5 343.5,-75.5 440.5,-75.5 440.5,-56.5 343.5,-56.5"/>
<text text-anchor="middle" x="392" y="-63.5" font-family="Helvetica,sans-Serif" font-size="10.00">humanoid&#45;robot.hh</text>
</a>
</g>
</g>
<!-- Node2&#45;&gt;Node7 -->
<g id="edge6" class="edge"><title>Node2&#45;&gt;Node7</title>
<path fill="none" stroke="midnightblue" d="M251.331,-109.436C285.08,-99.2551 333.447,-84.664 363.77,-75.5164"/>
<polygon fill="midnightblue" stroke="midnightblue" points="249.926,-106.204 241.363,-112.444 251.948,-112.906 249.926,-106.204"/>
</g>
<!-- Node4 -->
<g id="node4" class="node"><title>Node4</title>
<g id="a_node4"><a xlink:href="a00043.html" target="_top" xlink:title="object&#45;factory.hh">
<polygon fill="white" stroke="black" points="163.5,-0.5 163.5,-19.5 252.5,-19.5 252.5,-0.5 163.5,-0.5"/>
<text text-anchor="middle" x="208" y="-7.5" font-family="Helvetica,sans-Serif" font-size="10.00">object&#45;factory.hh</text>
</a>
</g>
</g>
<!-- Node3&#45;&gt;Node4 -->
<g id="edge3" class="edge"><title>Node3&#45;&gt;Node4</title>
<path fill="none" stroke="midnightblue" d="M60.5158,-54.5199C95.0441,-44.3313 146.849,-29.0447 178.979,-19.5637"/>
<polygon fill="midnightblue" stroke="midnightblue" points="59.4319,-51.1905 50.8313,-57.3776 61.413,-57.9043 59.4319,-51.1905"/>
</g>
<!-- Node7&#45;&gt;Node4 -->
<g id="edge7" class="edge"><title>Node7&#45;&gt;Node4</title>
<path fill="none" stroke="midnightblue" d="M353.046,-53.5677C318.335,-43.381 268.323,-28.7034 237.019,-19.5164"/>
<polygon fill="midnightblue" stroke="midnightblue" points="352.264,-56.9858 362.845,-56.4435 354.235,-50.2691 352.264,-56.9858"/>
</g>
</g>
</svg>
