<?xml version="1.0" encoding="UTF-8" standalone="no"?>
<!DOCTYPE svg PUBLIC "-//W3C//DTD SVG 1.1//EN"
 "http://www.w3.org/Graphics/SVG/1.1/DTD/svg11.dtd">
<!-- Generated by graphviz version 2.36.0 (20140111.2315)
 -->
<!-- Title: gripper.hh Pages: 1 -->
<svg width="766pt" height="196pt"
 viewBox="0.00 0.00 766.00 196.00" xmlns="http://www.w3.org/2000/svg" xmlns:xlink="http://www.w3.org/1999/xlink">
<g id="graph0" class="graph" transform="scale(1 1) rotate(0) translate(4 192)">
<title>gripper.hh</title>
<polygon fill="white" stroke="none" points="-4,4 -4,-192 762,-192 762,4 -4,4"/>
<!-- Node1 -->
<g id="node1" class="node"><title>Node1</title>
<polygon fill="#bfbfbf" stroke="black" points="90.5,-168.5 90.5,-187.5 149.5,-187.5 149.5,-168.5 90.5,-168.5"/>
<text text-anchor="middle" x="120" y="-175.5" font-family="Helvetica,sans-Serif" font-size="10.00">gripper.hh</text>
</g>
<!-- Node2 -->
<g id="node2" class="node"><title>Node2</title>
<polygon fill="white" stroke="#bfbfbf" points="-0.5,-56.5 -0.5,-75.5 122.5,-75.5 122.5,-56.5 -0.5,-56.5"/>
<text text-anchor="middle" x="61" y="-63.5" font-family="Helvetica,sans-Serif" font-size="10.00">hpp/fcl/math/transform.h</text>
</g>
<!-- Node1&#45;&gt;Node2 -->
<g id="edge1" class="edge"><title>Node1&#45;&gt;Node2</title>
<path fill="none" stroke="midnightblue" d="M115.37,-168.368C105.72,-150.376 83.2861,-108.55 70.4543,-84.6267"/>
<polygon fill="midnightblue" stroke="midnightblue" points="73.4192,-82.7495 65.6081,-75.5914 67.2505,-86.0582 73.4192,-82.7495"/>
</g>
<!-- Node3 -->
<g id="node3" class="node"><title>Node3</title>
<g id="a_node3"><a xlink:href="a00041.html" target="_top" xlink:title="hpp/model/joint.hh">
<polygon fill="white" stroke="black" points="117,-112.5 117,-131.5 213,-131.5 213,-112.5 117,-112.5"/>
<text text-anchor="middle" x="165" y="-119.5" font-family="Helvetica,sans-Serif" font-size="10.00">hpp/model/joint.hh</text>
</a>
</g>
</g>
<!-- Node1&#45;&gt;Node3 -->
<g id="edge2" class="edge"><title>Node1&#45;&gt;Node3</title>
<path fill="none" stroke="midnightblue" d="M127.431,-168.083C133.853,-160.377 143.306,-149.033 151.122,-139.653"/>
<polygon fill="midnightblue" stroke="midnightblue" points="153.994,-141.674 157.707,-131.751 148.617,-137.193 153.994,-141.674"/>
</g>
<!-- Node3&#45;&gt;Node2 -->
<g id="edge4" class="edge"><title>Node3&#45;&gt;Node2</title>
<path fill="none" stroke="midnightblue" d="M148.291,-112.324C131.688,-103.703 105.998,-90.3643 86.7795,-80.3855"/>
<polygon fill="midnightblue" stroke="midnightblue" points="88.1558,-77.1565 77.6679,-75.6545 84.93,-83.3689 88.1558,-77.1565"/>
</g>
<!-- Node4 -->
<g id="node4" class="node"><title>Node4</title>
<polygon fill="white" stroke="#bfbfbf" points="140.5,-56.5 140.5,-75.5 189.5,-75.5 189.5,-56.5 140.5,-56.5"/>
<text text-anchor="middle" x="165" y="-63.5" font-family="Helvetica,sans-Serif" font-size="10.00">cstddef</text>
</g>
<!-- Node3&#45;&gt;Node4 -->
<g id="edge3" class="edge"><title>Node3&#45;&gt;Node4</title>
<path fill="none" stroke="midnightblue" d="M165,-112.083C165,-105.006 165,-94.8611 165,-85.9865"/>
<polygon fill="midnightblue" stroke="midnightblue" points="168.5,-85.751 165,-75.7511 161.5,-85.7511 168.5,-85.751"/>
</g>
<!-- Node5 -->
<g id="node5" class="node"><title>Node5</title>
<polygon fill="white" stroke="#bfbfbf" points="208,-56.5 208,-75.5 312,-75.5 312,-56.5 208,-56.5"/>
<text text-anchor="middle" x="260" y="-63.5" font-family="Helvetica,sans-Serif" font-size="10.00">hpp/model/config.hh</text>
</g>
<!-- Node3&#45;&gt;Node5 -->
<g id="edge5" class="edge"><title>Node3&#45;&gt;Node5</title>
<path fill="none" stroke="midnightblue" d="M180.263,-112.324C195.221,-103.822 218.255,-90.7288 235.727,-80.7975"/>
<polygon fill="midnightblue" stroke="midnightblue" points="237.81,-83.639 244.774,-75.6545 234.351,-77.5534 237.81,-83.639"/>
</g>
<!-- Node6 -->
<g id="node6" class="node"><title>Node6</title>
<g id="a_node6"><a xlink:href="a00037.html" target="_top" xlink:title="hpp/model/fwd.hh">
<polygon fill="white" stroke="black" points="330,-56.5 330,-75.5 424,-75.5 424,-56.5 330,-56.5"/>
<text text-anchor="middle" x="377" y="-63.5" font-family="Helvetica,sans-Serif" font-size="10.00">hpp/model/fwd.hh</text>
</a>
</g>
</g>
<!-- Node3&#45;&gt;Node6 -->
<g id="edge6" class="edge"><title>Node3&#45;&gt;Node6</title>
<path fill="none" stroke="midnightblue" d="M198.592,-112.444C235.187,-103.122 293.838,-88.1828 333.826,-77.9972"/>
<polygon fill="midnightblue" stroke="midnightblue" points="334.739,-81.3766 343.565,-75.5164 333.011,-74.5932 334.739,-81.3766"/>
</g>
<!-- Node7 -->
<g id="node7" class="node"><title>Node7</title>
<polygon fill="white" stroke="#bfbfbf" points="183,-0.5 183,-19.5 227,-19.5 227,-0.5 183,-0.5"/>
<text text-anchor="middle" x="205" y="-7.5" font-family="Helvetica,sans-Serif" font-size="10.00">vector</text>
</g>
<!-- Node6&#45;&gt;Node7 -->
<g id="edge7" class="edge"><title>Node6&#45;&gt;Node7</title>
<path fill="none" stroke="midnightblue" d="M349.746,-56.4435C319.146,-46.8366 269.539,-31.2622 237.09,-21.0749"/>
<polygon fill="midnightblue" stroke="midnightblue" points="237.793,-17.6271 227.204,-17.971 235.696,-24.3057 237.793,-17.6271"/>
</g>
<!-- Node8 -->
<g id="node8" class="node"><title>Node8</title>
<polygon fill="white" stroke="#bfbfbf" points="244.5,-0.5 244.5,-19.5 273.5,-19.5 273.5,-0.5 244.5,-0.5"/>
<text text-anchor="middle" x="259" y="-7.5" font-family="Helvetica,sans-Serif" font-size="10.00">list</text>
</g>
<!-- Node6&#45;&gt;Node8 -->
<g id="edge8" class="edge"><title>Node6&#45;&gt;Node8</title>
<path fill="none" stroke="midnightblue" d="M358.303,-56.4435C337.81,-47.0657 304.892,-32.0016 282.628,-21.8127"/>
<polygon fill="midnightblue" stroke="midnightblue" points="284.068,-18.6226 273.518,-17.6439 281.155,-24.9877 284.068,-18.6226"/>
</g>
<!-- Node9 -->
<g id="node9" class="node"><title>Node9</title>
<polygon fill="white" stroke="#bfbfbf" points="291.5,-0.5 291.5,-19.5 326.5,-19.5 326.5,-0.5 291.5,-0.5"/>
<text text-anchor="middle" x="309" y="-7.5" font-family="Helvetica,sans-Serif" font-size="10.00">map</text>
</g>
<!-- Node6&#45;&gt;Node9 -->
<g id="edge9" class="edge"><title>Node6&#45;&gt;Node9</title>
<path fill="none" stroke="midnightblue" d="M366.075,-56.324C355.825,-48.1849 340.279,-35.8395 327.999,-26.0874"/>
<polygon fill="midnightblue" stroke="midnightblue" points="330.132,-23.3119 320.124,-19.8339 325.779,-28.7937 330.132,-23.3119"/>
</g>
<!-- Node10 -->
<g id="node10" class="node"><title>Node10</title>
<polygon fill="white" stroke="#bfbfbf" points="344.5,-0.5 344.5,-19.5 409.5,-19.5 409.5,-0.5 344.5,-0.5"/>
<text text-anchor="middle" x="377" y="-7.5" font-family="Helvetica,sans-Serif" font-size="10.00">Eigen/Core</text>
</g>
<!-- Node6&#45;&gt;Node10 -->
<g id="edge10" class="edge"><title>Node6&#45;&gt;Node10</title>
<path fill="none" stroke="midnightblue" d="M377,-56.083C377,-49.0059 377,-38.8611 377,-29.9865"/>
<polygon fill="midnightblue" stroke="midnightblue" points="380.5,-29.751 377,-19.7511 373.5,-29.7511 380.5,-29.751"/>
</g>
<!-- Node11 -->
<g id="node11" class="node"><title>Node11</title>
<polygon fill="white" stroke="#bfbfbf" points="428,-0.5 428,-19.5 522,-19.5 522,-0.5 428,-0.5"/>
<text text-anchor="middle" x="475" y="-7.5" font-family="Helvetica,sans-Serif" font-size="10.00">hpp/util/pointer.hh</text>
</g>
<!-- Node6&#45;&gt;Node11 -->
<g id="edge11" class="edge"><title>Node6&#45;&gt;Node11</title>
<path fill="none" stroke="midnightblue" d="M392.745,-56.324C408.319,-47.7428 432.377,-34.486 450.459,-24.5224"/>
<polygon fill="midnightblue" stroke="midnightblue" points="452.224,-27.546 459.294,-19.6545 448.846,-21.4152 452.224,-27.546"/>
</g>
<!-- Node12 -->
<g id="node12" class="node"><title>Node12</title>
<polygon fill="white" stroke="#bfbfbf" points="540,-0.5 540,-19.5 618,-19.5 618,-0.5 540,-0.5"/>
<text text-anchor="middle" x="579" y="-7.5" font-family="Helvetica,sans-Serif" font-size="10.00">hpp/fcl/fwd.hh</text>
</g>
<!-- Node6&#45;&gt;Node12 -->
<g id="edge12" class="edge"><title>Node6&#45;&gt;Node12</title>
<path fill="none" stroke="midnightblue" d="M409.008,-56.4435C443.729,-47.1616 499.288,-32.3093 537.377,-22.127"/>
<polygon fill="midnightblue" stroke="midnightblue" points="538.385,-25.4803 547.142,-19.5164 536.578,-18.7178 538.385,-25.4803"/>
</g>
<!-- Node13 -->
<g id="node13" class="node"><title>Node13</title>
<polygon fill="white" stroke="#bfbfbf" points="636,-0.5 636,-19.5 758,-19.5 758,-0.5 636,-0.5"/>
<text text-anchor="middle" x="697" y="-7.5" font-family="Helvetica,sans-Serif" font-size="10.00">hpp/fcl/math/matrix_3f.h</text>
</g>
<!-- Node6&#45;&gt;Node13 -->
<g id="edge13" class="edge"><title>Node6&#45;&gt;Node13</title>
<path fill="none" stroke="midnightblue" d="M424.217,-57.0321C480.54,-47.5277 574.799,-31.6213 636.438,-21.2199"/>
<polygon fill="midnightblue" stroke="midnightblue" points="637.138,-24.6512 646.416,-19.536 635.973,-17.7488 637.138,-24.6512"/>
</g>
</g>
</svg>
