<?xml version="1.0" encoding="UTF-8" standalone="no"?>
<!DOCTYPE svg PUBLIC "-//W3C//DTD SVG 1.1//EN"
 "http://www.w3.org/Graphics/SVG/1.1/DTD/svg11.dtd">
<!-- Generated by graphviz version 2.36.0 (20140111.2315)
 -->
<!-- Title: joint&#45;configuration.hh Pages: 1 -->
<svg width="625pt" height="140pt"
 viewBox="0.00 0.00 625.00 140.00" xmlns="http://www.w3.org/2000/svg" xmlns:xlink="http://www.w3.org/1999/xlink">
<g id="graph0" class="graph" transform="scale(1 1) rotate(0) translate(4 136)">
<title>joint&#45;configuration.hh</title>
<polygon fill="white" stroke="none" points="-4,4 -4,-136 621,-136 621,4 -4,4"/>
<!-- Node1 -->
<g id="node1" class="node"><title>Node1</title>
<polygon fill="#bfbfbf" stroke="black" points="65.5,-112.5 65.5,-131.5 172.5,-131.5 172.5,-112.5 65.5,-112.5"/>
<text text-anchor="middle" x="119" y="-119.5" font-family="Helvetica,sans-Serif" font-size="10.00">joint&#45;configuration.hh</text>
</g>
<!-- Node2 -->
<g id="node2" class="node"><title>Node2</title>
<polygon fill="white" stroke="#bfbfbf" points="-0.5,-56.5 -0.5,-75.5 48.5,-75.5 48.5,-56.5 -0.5,-56.5"/>
<text text-anchor="middle" x="24" y="-63.5" font-family="Helvetica,sans-Serif" font-size="10.00">cstddef</text>
</g>
<!-- Node1&#45;&gt;Node2 -->
<g id="edge1" class="edge"><title>Node1&#45;&gt;Node2</title>
<path fill="none" stroke="midnightblue" d="M103.737,-112.324C88.7786,-103.822 65.7452,-90.7288 48.2733,-80.7975"/>
<polygon fill="midnightblue" stroke="midnightblue" points="49.6488,-77.5534 39.2255,-75.6545 46.1896,-83.639 49.6488,-77.5534"/>
</g>
<!-- Node3 -->
<g id="node3" class="node"><title>Node3</title>
<polygon fill="white" stroke="#bfbfbf" points="67,-56.5 67,-75.5 171,-75.5 171,-56.5 67,-56.5"/>
<text text-anchor="middle" x="119" y="-63.5" font-family="Helvetica,sans-Serif" font-size="10.00">hpp/model/config.hh</text>
</g>
<!-- Node1&#45;&gt;Node3 -->
<g id="edge2" class="edge"><title>Node1&#45;&gt;Node3</title>
<path fill="none" stroke="midnightblue" d="M119,-112.083C119,-105.006 119,-94.8611 119,-85.9865"/>
<polygon fill="midnightblue" stroke="midnightblue" points="122.5,-85.751 119,-75.7511 115.5,-85.7511 122.5,-85.751"/>
</g>
<!-- Node4 -->
<g id="node4" class="node"><title>Node4</title>
<g id="a_node4"><a xlink:href="a00037.html" target="_top" xlink:title="hpp/model/fwd.hh">
<polygon fill="white" stroke="black" points="189,-56.5 189,-75.5 283,-75.5 283,-56.5 189,-56.5"/>
<text text-anchor="middle" x="236" y="-63.5" font-family="Helvetica,sans-Serif" font-size="10.00">hpp/model/fwd.hh</text>
</a>
</g>
</g>
<!-- Node1&#45;&gt;Node4 -->
<g id="edge3" class="edge"><title>Node1&#45;&gt;Node4</title>
<path fill="none" stroke="midnightblue" d="M137.539,-112.444C156.623,-103.636 186.575,-89.8116 208.436,-79.722"/>
<polygon fill="midnightblue" stroke="midnightblue" points="209.935,-82.8849 217.548,-75.5164 207.001,-76.5292 209.935,-82.8849"/>
</g>
<!-- Node5 -->
<g id="node5" class="node"><title>Node5</title>
<polygon fill="white" stroke="#bfbfbf" points="42,-0.5 42,-19.5 86,-19.5 86,-0.5 42,-0.5"/>
<text text-anchor="middle" x="64" y="-7.5" font-family="Helvetica,sans-Serif" font-size="10.00">vector</text>
</g>
<!-- Node4&#45;&gt;Node5 -->
<g id="edge4" class="edge"><title>Node4&#45;&gt;Node5</title>
<path fill="none" stroke="midnightblue" d="M208.746,-56.4435C178.146,-46.8366 128.539,-31.2622 96.0903,-21.0749"/>
<polygon fill="midnightblue" stroke="midnightblue" points="96.7931,-17.6271 86.2039,-17.971 94.6963,-24.3057 96.7931,-17.6271"/>
</g>
<!-- Node6 -->
<g id="node6" class="node"><title>Node6</title>
<polygon fill="white" stroke="#bfbfbf" points="103.5,-0.5 103.5,-19.5 132.5,-19.5 132.5,-0.5 103.5,-0.5"/>
<text text-anchor="middle" x="118" y="-7.5" font-family="Helvetica,sans-Serif" font-size="10.00">list</text>
</g>
<!-- Node4&#45;&gt;Node6 -->
<g id="edge5" class="edge"><title>Node4&#45;&gt;Node6</title>
<path fill="none" stroke="midnightblue" d="M217.303,-56.4435C196.81,-47.0657 163.892,-32.0016 141.628,-21.8127"/>
<polygon fill="midnightblue" stroke="midnightblue" points="143.068,-18.6226 132.518,-17.6439 140.155,-24.9877 143.068,-18.6226"/>
</g>
<!-- Node7 -->
<g id="node7" class="node"><title>Node7</title>
<polygon fill="white" stroke="#bfbfbf" points="150.5,-0.5 150.5,-19.5 185.5,-19.5 185.5,-0.5 150.5,-0.5"/>
<text text-anchor="middle" x="168" y="-7.5" font-family="Helvetica,sans-Serif" font-size="10.00">map</text>
</g>
<!-- Node4&#45;&gt;Node7 -->
<g id="edge6" class="edge"><title>Node4&#45;&gt;Node7</title>
<path fill="none" stroke="midnightblue" d="M225.075,-56.324C214.825,-48.1849 199.279,-35.8395 186.999,-26.0874"/>
<polygon fill="midnightblue" stroke="midnightblue" points="189.132,-23.3119 179.124,-19.8339 184.779,-28.7937 189.132,-23.3119"/>
</g>
<!-- Node8 -->
<g id="node8" class="node"><title>Node8</title>
<polygon fill="white" stroke="#bfbfbf" points="203.5,-0.5 203.5,-19.5 268.5,-19.5 268.5,-0.5 203.5,-0.5"/>
<text text-anchor="middle" x="236" y="-7.5" font-family="Helvetica,sans-Serif" font-size="10.00">Eigen/Core</text>
</g>
<!-- Node4&#45;&gt;Node8 -->
<g id="edge7" class="edge"><title>Node4&#45;&gt;Node8</title>
<path fill="none" stroke="midnightblue" d="M236,-56.083C236,-49.0059 236,-38.8611 236,-29.9865"/>
<polygon fill="midnightblue" stroke="midnightblue" points="239.5,-29.751 236,-19.7511 232.5,-29.7511 239.5,-29.751"/>
</g>
<!-- Node9 -->
<g id="node9" class="node"><title>Node9</title>
<polygon fill="white" stroke="#bfbfbf" points="287,-0.5 287,-19.5 381,-19.5 381,-0.5 287,-0.5"/>
<text text-anchor="middle" x="334" y="-7.5" font-family="Helvetica,sans-Serif" font-size="10.00">hpp/util/pointer.hh</text>
</g>
<!-- Node4&#45;&gt;Node9 -->
<g id="edge8" class="edge"><title>Node4&#45;&gt;Node9</title>
<path fill="none" stroke="midnightblue" d="M251.745,-56.324C267.319,-47.7428 291.377,-34.486 309.459,-24.5224"/>
<polygon fill="midnightblue" stroke="midnightblue" points="311.224,-27.546 318.294,-19.6545 307.846,-21.4152 311.224,-27.546"/>
</g>
<!-- Node10 -->
<g id="node10" class="node"><title>Node10</title>
<polygon fill="white" stroke="#bfbfbf" points="399,-0.5 399,-19.5 477,-19.5 477,-0.5 399,-0.5"/>
<text text-anchor="middle" x="438" y="-7.5" font-family="Helvetica,sans-Serif" font-size="10.00">hpp/fcl/fwd.hh</text>
</g>
<!-- Node4&#45;&gt;Node10 -->
<g id="edge9" class="edge"><title>Node4&#45;&gt;Node10</title>
<path fill="none" stroke="midnightblue" d="M268.008,-56.4435C302.729,-47.1616 358.288,-32.3093 396.377,-22.127"/>
<polygon fill="midnightblue" stroke="midnightblue" points="397.385,-25.4803 406.142,-19.5164 395.578,-18.7178 397.385,-25.4803"/>
</g>
<!-- Node11 -->
<g id="node11" class="node"><title>Node11</title>
<polygon fill="white" stroke="#bfbfbf" points="495,-0.5 495,-19.5 617,-19.5 617,-0.5 495,-0.5"/>
<text text-anchor="middle" x="556" y="-7.5" font-family="Helvetica,sans-Serif" font-size="10.00">hpp/fcl/math/matrix_3f.h</text>
</g>
<!-- Node4&#45;&gt;Node11 -->
<g id="edge10" class="edge"><title>Node4&#45;&gt;Node11</title>
<path fill="none" stroke="midnightblue" d="M283.217,-57.0321C339.54,-47.5277 433.799,-31.6213 495.438,-21.2199"/>
<polygon fill="midnightblue" stroke="midnightblue" points="496.138,-24.6512 505.416,-19.536 494.973,-17.7488 496.138,-24.6512"/>
</g>
</g>
</svg>
