<?xml version="1.0" encoding="UTF-8" standalone="no"?>
<!DOCTYPE svg PUBLIC "-//W3C//DTD SVG 1.1//EN"
 "http://www.w3.org/Graphics/SVG/1.1/DTD/svg11.dtd">
<!-- Generated by graphviz version 2.36.0 (20140111.2315)
 -->
<!-- Title: body.hh Pages: 1 -->
<svg width="774pt" height="264pt"
 viewBox="0.00 0.00 774.45 264.00" xmlns="http://www.w3.org/2000/svg" xmlns:xlink="http://www.w3.org/1999/xlink">
<g id="graph0" class="graph" transform="scale(1 1) rotate(0) translate(4 260)">
<title>body.hh</title>
<polygon fill="white" stroke="none" points="-4,4 -4,-260 770.446,-260 770.446,4 -4,4"/>
<!-- Node1 -->
<g id="node1" class="node"><title>Node1</title>
<polygon fill="#bfbfbf" stroke="black" points="215.5,-236.5 215.5,-255.5 266.5,-255.5 266.5,-236.5 215.5,-236.5"/>
<text text-anchor="middle" x="241" y="-243.5" font-family="Helvetica,sans-Serif" font-size="10.00">body.hh</text>
</g>
<!-- Node2 -->
<g id="node2" class="node"><title>Node2</title>
<polygon fill="white" stroke="#bfbfbf" points="0,-0.5 0,-19.5 94,-19.5 94,-0.5 0,-0.5"/>
<text text-anchor="middle" x="47" y="-7.5" font-family="Helvetica,sans-Serif" font-size="10.00">hpp/util/pointer.hh</text>
</g>
<!-- Node1&#45;&gt;Node2 -->
<g id="edge1" class="edge"><title>Node1&#45;&gt;Node2</title>
<path fill="none" stroke="midnightblue" d="M215.404,-243.54C182.495,-240.423 125.171,-230.648 88,-200 37.055,-157.995 40.1861,-68.9942 44.3753,-29.9884"/>
<polygon fill="midnightblue" stroke="midnightblue" points="47.9065,-29.9475 45.6507,-19.5956 40.9586,-29.0948 47.9065,-29.9475"/>
</g>
<!-- Node3 -->
<g id="node3" class="node"><title>Node3</title>
<polygon fill="white" stroke="#bfbfbf" points="626,-56.5 626,-75.5 730,-75.5 730,-56.5 626,-56.5"/>
<text text-anchor="middle" x="678" y="-63.5" font-family="Helvetica,sans-Serif" font-size="10.00">hpp/model/config.hh</text>
</g>
<!-- Node1&#45;&gt;Node3 -->
<g id="edge2" class="edge"><title>Node1&#45;&gt;Node3</title>
<path fill="none" stroke="midnightblue" d="M266.53,-243.726C357.076,-238.617 660.451,-216.271 717,-144 731.919,-124.933 712.474,-99.2641 696.097,-82.9204"/>
<polygon fill="midnightblue" stroke="midnightblue" points="698.142,-80.0372 688.468,-75.716 693.335,-85.1266 698.142,-80.0372"/>
</g>
<!-- Node4 -->
<g id="node4" class="node"><title>Node4</title>
<g id="a_node4"><a xlink:href="a00035.html" target="_top" xlink:title="hpp/model/fwd.hh">
<polygon fill="white" stroke="black" points="267,-56.5 267,-75.5 361,-75.5 361,-56.5 267,-56.5"/>
<text text-anchor="middle" x="314" y="-63.5" font-family="Helvetica,sans-Serif" font-size="10.00">hpp/model/fwd.hh</text>
</a>
</g>
</g>
<!-- Node1&#45;&gt;Node4 -->
<g id="edge3" class="edge"><title>Node1&#45;&gt;Node4</title>
<path fill="none" stroke="midnightblue" d="M215.319,-237.459C157.345,-219.195 24.9884,-169.806 73,-112 95.8948,-84.4345 192.929,-73.6629 256.672,-69.5186"/>
<polygon fill="midnightblue" stroke="midnightblue" points="257.222,-72.9916 266.989,-68.8864 256.794,-66.0047 257.222,-72.9916"/>
</g>
<!-- Node11 -->
<g id="node11" class="node"><title>Node11</title>
<g id="a_node11"><a xlink:href="a00031.html" target="_top" xlink:title="hpp/model/device.hh">
<polygon fill="white" stroke="black" points="375.5,-180.5 375.5,-199.5 482.5,-199.5 482.5,-180.5 375.5,-180.5"/>
<text text-anchor="middle" x="429" y="-187.5" font-family="Helvetica,sans-Serif" font-size="10.00">hpp/model/device.hh</text>
</a>
</g>
</g>
<!-- Node1&#45;&gt;Node11 -->
<g id="edge11" class="edge"><title>Node1&#45;&gt;Node11</title>
<path fill="none" stroke="midnightblue" d="M266.746,-237.605C298.367,-228.522 352.345,-213.018 389.293,-202.405"/>
<polygon fill="midnightblue" stroke="midnightblue" points="390.585,-205.676 399.23,-199.551 388.653,-198.948 390.585,-205.676"/>
</g>
<!-- Node4&#45;&gt;Node2 -->
<g id="edge8" class="edge"><title>Node4&#45;&gt;Node2</title>
<path fill="none" stroke="midnightblue" d="M271.693,-56.4435C224.92,-46.9839 149.54,-31.7384 99.1502,-21.5472"/>
<polygon fill="midnightblue" stroke="midnightblue" points="99.6044,-18.0683 89.109,-19.5164 98.2167,-24.9294 99.6044,-18.0683"/>
</g>
<!-- Node5 -->
<g id="node5" class="node"><title>Node5</title>
<polygon fill="white" stroke="#bfbfbf" points="576,-0.5 576,-19.5 620,-19.5 620,-0.5 576,-0.5"/>
<text text-anchor="middle" x="598" y="-7.5" font-family="Helvetica,sans-Serif" font-size="10.00">vector</text>
</g>
<!-- Node4&#45;&gt;Node5 -->
<g id="edge4" class="edge"><title>Node4&#45;&gt;Node5</title>
<path fill="none" stroke="midnightblue" d="M359.001,-56.4435C416.679,-45.4766 515.256,-26.7331 565.895,-17.1045"/>
<polygon fill="midnightblue" stroke="midnightblue" points="566.771,-20.5007 575.941,-15.1943 565.463,-13.6239 566.771,-20.5007"/>
</g>
<!-- Node6 -->
<g id="node6" class="node"><title>Node6</title>
<polygon fill="white" stroke="#bfbfbf" points="709.5,-0.5 709.5,-19.5 738.5,-19.5 738.5,-0.5 709.5,-0.5"/>
<text text-anchor="middle" x="724" y="-7.5" font-family="Helvetica,sans-Serif" font-size="10.00">list</text>
</g>
<!-- Node4&#45;&gt;Node6 -->
<g id="edge5" class="edge"><title>Node4&#45;&gt;Node6</title>
<path fill="none" stroke="midnightblue" d="M361.032,-58.8055C448.302,-47.3114 632.485,-23.0531 699.205,-14.2657"/>
<polygon fill="midnightblue" stroke="midnightblue" points="699.761,-17.7227 709.219,-12.9468 698.847,-10.7826 699.761,-17.7227"/>
</g>
<!-- Node7 -->
<g id="node7" class="node"><title>Node7</title>
<polygon fill="white" stroke="#bfbfbf" points="492.5,-0.5 492.5,-19.5 527.5,-19.5 527.5,-0.5 492.5,-0.5"/>
<text text-anchor="middle" x="510" y="-7.5" font-family="Helvetica,sans-Serif" font-size="10.00">map</text>
</g>
<!-- Node4&#45;&gt;Node7 -->
<g id="edge6" class="edge"><title>Node4&#45;&gt;Node7</title>
<path fill="none" stroke="midnightblue" d="M348.484,-56.4796C380.752,-48.3606 430.493,-35.4734 482.581,-19.9846"/>
<polygon fill="midnightblue" stroke="midnightblue" points="483.756,-23.2862 492.331,-17.0627 481.747,-16.5809 483.756,-23.2862"/>
</g>
<!-- Node8 -->
<g id="node8" class="node"><title>Node8</title>
<polygon fill="white" stroke="#bfbfbf" points="172.5,-0.5 172.5,-19.5 237.5,-19.5 237.5,-0.5 172.5,-0.5"/>
<text text-anchor="middle" x="205" y="-7.5" font-family="Helvetica,sans-Serif" font-size="10.00">Eigen/Core</text>
</g>
<!-- Node4&#45;&gt;Node8 -->
<g id="edge7" class="edge"><title>Node4&#45;&gt;Node8</title>
<path fill="none" stroke="midnightblue" d="M296.487,-56.324C278.928,-47.6247 251.669,-34.1202 231.469,-24.113"/>
<polygon fill="midnightblue" stroke="midnightblue" points="232.984,-20.9575 222.469,-19.6545 229.876,-27.23 232.984,-20.9575"/>
</g>
<!-- Node9 -->
<g id="node9" class="node"><title>Node9</title>
<polygon fill="white" stroke="#bfbfbf" points="256,-0.5 256,-19.5 334,-19.5 334,-0.5 256,-0.5"/>
<text text-anchor="middle" x="295" y="-7.5" font-family="Helvetica,sans-Serif" font-size="10.00">hpp/fcl/fwd.hh</text>
</g>
<!-- Node4&#45;&gt;Node9 -->
<g id="edge9" class="edge"><title>Node4&#45;&gt;Node9</title>
<path fill="none" stroke="midnightblue" d="M310.863,-56.083C308.317,-48.8486 304.644,-38.4087 301.473,-29.3968"/>
<polygon fill="midnightblue" stroke="midnightblue" points="304.7,-28.0225 298.079,-19.7511 298.097,-30.3459 304.7,-28.0225"/>
</g>
<!-- Node10 -->
<g id="node10" class="node"><title>Node10</title>
<polygon fill="white" stroke="#bfbfbf" points="352,-0.5 352,-19.5 474,-19.5 474,-0.5 352,-0.5"/>
<text text-anchor="middle" x="413" y="-7.5" font-family="Helvetica,sans-Serif" font-size="10.00">hpp/fcl/math/matrix_3f.h</text>
</g>
<!-- Node4&#45;&gt;Node10 -->
<g id="edge10" class="edge"><title>Node4&#45;&gt;Node10</title>
<path fill="none" stroke="midnightblue" d="M329.906,-56.324C345.638,-47.7428 369.942,-34.486 388.209,-24.5224"/>
<polygon fill="midnightblue" stroke="midnightblue" points="390.03,-27.5157 397.133,-19.6545 386.678,-21.3704 390.03,-27.5157"/>
</g>
<!-- Node11&#45;&gt;Node3 -->
<g id="edge17" class="edge"><title>Node11&#45;&gt;Node3</title>
<path fill="none" stroke="midnightblue" d="M482.697,-187.987C553.606,-185.384 672.708,-176.198 700,-144 714.412,-126.998 702.146,-101.094 690.964,-84.1051"/>
<polygon fill="midnightblue" stroke="midnightblue" points="693.66,-81.8553 685.039,-75.6969 687.938,-85.8874 693.66,-81.8553"/>
</g>
<!-- Node11&#45;&gt;Node4 -->
<g id="edge16" class="edge"><title>Node11&#45;&gt;Node4</title>
<path fill="none" stroke="midnightblue" d="M375.343,-183.188C326.951,-176.71 260.99,-164.372 245,-144 236.219,-132.812 238.226,-124.505 245,-112 252.749,-97.6958 267.234,-87.2188 280.94,-79.992"/>
<polygon fill="midnightblue" stroke="midnightblue" points="282.738,-83.0103 290.212,-75.501 279.686,-76.7104 282.738,-83.0103"/>
</g>
<!-- Node11&#45;&gt;Node5 -->
<g id="edge13" class="edge"><title>Node11&#45;&gt;Node5</title>
<path fill="none" stroke="midnightblue" d="M482.757,-187.186C556.178,-183.63 682.643,-173.319 717,-144 747.666,-117.83 762.782,-88.5533 739,-56 714.244,-22.1125 663.685,-13.1483 630.324,-11.0991"/>
<polygon fill="midnightblue" stroke="midnightblue" points="630.294,-7.59454 620.151,-10.6539 629.988,-14.5878 630.294,-7.59454"/>
</g>
<!-- Node11&#45;&gt;Node6 -->
<g id="edge14" class="edge"><title>Node11&#45;&gt;Node6</title>
<path fill="none" stroke="midnightblue" d="M482.64,-188.614C562.574,-186.873 707.478,-178.845 744,-144 772.605,-116.709 769.3,-93.5734 757,-56 753.51,-45.3397 746.427,-35.1174 739.714,-27.1175"/>
<polygon fill="midnightblue" stroke="midnightblue" points="742.305,-24.7633 733.02,-19.66 737.096,-29.4395 742.305,-24.7633"/>
</g>
<!-- Node12 -->
<g id="node12" class="node"><title>Node12</title>
<polygon fill="white" stroke="#bfbfbf" points="254,-118.5 254,-137.5 308,-137.5 308,-118.5 254,-118.5"/>
<text text-anchor="middle" x="281" y="-125.5" font-family="Helvetica,sans-Serif" font-size="10.00">iostream</text>
</g>
<!-- Node11&#45;&gt;Node12 -->
<g id="edge12" class="edge"><title>Node11&#45;&gt;Node12</title>
<path fill="none" stroke="midnightblue" d="M407.496,-180.454C384.924,-171.462 348.419,-156.857 317,-144 315.12,-143.231 313.186,-142.436 311.237,-141.632"/>
<polygon fill="midnightblue" stroke="midnightblue" points="312.12,-138.209 301.542,-137.612 309.439,-144.675 312.12,-138.209"/>
</g>
<!-- Node13 -->
<g id="node13" class="node"><title>Node13</title>
<polygon fill="white" stroke="#bfbfbf" points="326.5,-118.5 326.5,-137.5 417.5,-137.5 417.5,-118.5 326.5,-118.5"/>
<text text-anchor="middle" x="372" y="-125.5" font-family="Helvetica,sans-Serif" font-size="10.00">hpp/util/debug.hh</text>
</g>
<!-- Node11&#45;&gt;Node13 -->
<g id="edge15" class="edge"><title>Node11&#45;&gt;Node13</title>
<path fill="none" stroke="midnightblue" d="M420.833,-180.403C412.114,-171.225 398.096,-156.47 387.311,-145.117"/>
<polygon fill="midnightblue" stroke="midnightblue" points="389.577,-142.42 380.152,-137.581 384.502,-147.241 389.577,-142.42"/>
</g>
<!-- Node14 -->
<g id="node14" class="node"><title>Node14</title>
<g id="a_node14"><a xlink:href="a00032.html" target="_top" xlink:title="hpp/model/distance\l&#45;result.hh">
<polygon fill="white" stroke="black" points="435.5,-113 435.5,-143 536.5,-143 536.5,-113 435.5,-113"/>
<text text-anchor="start" x="443.5" y="-131" font-family="Helvetica,sans-Serif" font-size="10.00">hpp/model/distance</text>
<text text-anchor="middle" x="486" y="-120" font-family="Helvetica,sans-Serif" font-size="10.00">&#45;result.hh</text>
</a>
</g>
</g>
<!-- Node11&#45;&gt;Node14 -->
<g id="edge18" class="edge"><title>Node11&#45;&gt;Node14</title>
<path fill="none" stroke="midnightblue" d="M437.167,-180.403C444.526,-172.657 455.659,-160.938 465.438,-150.645"/>
<polygon fill="midnightblue" stroke="midnightblue" points="468.216,-152.801 472.566,-143.141 463.141,-147.98 468.216,-152.801"/>
</g>
<!-- Node16 -->
<g id="node16" class="node"><title>Node16</title>
<g id="a_node16"><a xlink:href="a00033.html" target="_top" xlink:title="hpp/model/extra&#45;config\l&#45;space.hh">
<polygon fill="white" stroke="black" points="82,-113 82,-143 198,-143 198,-113 82,-113"/>
<text text-anchor="start" x="90" y="-131" font-family="Helvetica,sans-Serif" font-size="10.00">hpp/model/extra&#45;config</text>
<text text-anchor="middle" x="140" y="-120" font-family="Helvetica,sans-Serif" font-size="10.00">&#45;space.hh</text>
</a>
</g>
</g>
<!-- Node11&#45;&gt;Node16 -->
<g id="edge22" class="edge"><title>Node11&#45;&gt;Node16</title>
<path fill="none" stroke="midnightblue" d="M387.801,-180.468C344.15,-171.426 273.214,-156.723 212,-144 210.734,-143.737 209.456,-143.471 208.168,-143.203"/>
<polygon fill="midnightblue" stroke="midnightblue" points="208.661,-139.731 198.158,-141.121 207.235,-146.584 208.661,-139.731"/>
</g>
<!-- Node17 -->
<g id="node17" class="node"><title>Node17</title>
<g id="a_node17"><a xlink:href="a00042.html" target="_top" xlink:title="hpp/model/object&#45;iterator.hh">
<polygon fill="white" stroke="black" points="554.5,-118.5 554.5,-137.5 691.5,-137.5 691.5,-118.5 554.5,-118.5"/>
<text text-anchor="middle" x="623" y="-125.5" font-family="Helvetica,sans-Serif" font-size="10.00">hpp/model/object&#45;iterator.hh</text>
</a>
</g>
</g>
<!-- Node11&#45;&gt;Node17 -->
<g id="edge24" class="edge"><title>Node11&#45;&gt;Node17</title>
<path fill="none" stroke="midnightblue" d="M456.795,-180.403C490.65,-169.933 547.971,-152.205 585.655,-140.55"/>
<polygon fill="midnightblue" stroke="midnightblue" points="586.737,-143.879 595.256,-137.581 584.668,-137.192 586.737,-143.879"/>
</g>
<!-- Node14&#45;&gt;Node3 -->
<g id="edge20" class="edge"><title>Node14&#45;&gt;Node3</title>
<path fill="none" stroke="midnightblue" d="M531.015,-112.933C564.52,-102.462 609.697,-88.3445 641.085,-78.5358"/>
<polygon fill="midnightblue" stroke="midnightblue" points="642.259,-81.8362 650.759,-75.5127 640.171,-75.1548 642.259,-81.8362"/>
</g>
<!-- Node14&#45;&gt;Node4 -->
<g id="edge21" class="edge"><title>Node14&#45;&gt;Node4</title>
<path fill="none" stroke="midnightblue" d="M445.674,-112.933C416.049,-102.598 376.237,-88.7106 348.171,-78.9202"/>
<polygon fill="midnightblue" stroke="midnightblue" points="348.998,-75.5018 338.403,-75.5127 346.692,-82.1112 348.998,-75.5018"/>
</g>
<!-- Node15 -->
<g id="node15" class="node"><title>Node15</title>
<polygon fill="white" stroke="#bfbfbf" points="428,-56.5 428,-75.5 544,-75.5 544,-56.5 428,-56.5"/>
<text text-anchor="middle" x="486" y="-63.5" font-family="Helvetica,sans-Serif" font-size="10.00">hpp/fcl/collision_data.h</text>
</g>
<!-- Node14&#45;&gt;Node15 -->
<g id="edge19" class="edge"><title>Node14&#45;&gt;Node15</title>
<path fill="none" stroke="midnightblue" d="M486,-112.781C486,-104.781 486,-94.6887 486,-86.0168"/>
<polygon fill="midnightblue" stroke="midnightblue" points="489.5,-85.7305 486,-75.7305 482.5,-85.7306 489.5,-85.7305"/>
</g>
<!-- Node16&#45;&gt;Node4 -->
<g id="edge23" class="edge"><title>Node16&#45;&gt;Node4</title>
<path fill="none" stroke="midnightblue" d="M180.795,-112.933C210.896,-102.553 251.393,-88.5887 279.804,-78.7916"/>
<polygon fill="midnightblue" stroke="midnightblue" points="281,-82.0815 289.313,-75.5127 278.718,-75.4639 281,-82.0815"/>
</g>
<!-- Node17&#45;&gt;Node3 -->
<g id="edge26" class="edge"><title>Node17&#45;&gt;Node3</title>
<path fill="none" stroke="midnightblue" d="M630.88,-118.403C639.294,-109.225 652.819,-94.4699 663.226,-83.1173"/>
<polygon fill="midnightblue" stroke="midnightblue" points="665.957,-85.3172 670.134,-75.5806 660.797,-80.5871 665.957,-85.3172"/>
</g>
<!-- Node17&#45;&gt;Node4 -->
<g id="edge27" class="edge"><title>Node17&#45;&gt;Node4</title>
<path fill="none" stroke="midnightblue" d="M579.056,-118.467C523.456,-107.671 427.741,-89.0856 367.818,-77.4501"/>
<polygon fill="midnightblue" stroke="midnightblue" points="368.276,-73.9738 357.792,-75.5034 366.942,-80.8454 368.276,-73.9738"/>
</g>
<!-- Node17&#45;&gt;Node5 -->
<g id="edge25" class="edge"><title>Node17&#45;&gt;Node5</title>
<path fill="none" stroke="midnightblue" d="M621.121,-118.281C617.065,-99.4631 607.417,-54.6971 601.953,-29.3399"/>
<polygon fill="midnightblue" stroke="midnightblue" points="605.361,-28.5429 599.833,-19.5048 598.518,-30.0177 605.361,-28.5429"/>
</g>
</g>
</svg>
