<?xml version="1.0" encoding="UTF-8" standalone="no"?>
<!DOCTYPE svg PUBLIC "-//W3C//DTD SVG 1.1//EN"
 "http://www.w3.org/Graphics/SVG/1.1/DTD/svg11.dtd">
<!-- Generated by graphviz version 2.36.0 (20140111.2315)
 -->
<!-- Title: hpp::model::JointRotation Pages: 1 -->
<svg width="309pt" height="208pt"
 viewBox="0.00 0.00 309.00 208.00" xmlns="http://www.w3.org/2000/svg" xmlns:xlink="http://www.w3.org/1999/xlink">
<g id="graph0" class="graph" transform="scale(1 1) rotate(0) translate(4 204)">
<title>hpp::model::JointRotation</title>
<polygon fill="white" stroke="none" points="-4,4 -4,-204 305,-204 305,4 -4,4"/>
<!-- Node1 -->
<g id="node1" class="node"><title>Node1</title>
<polygon fill="#bfbfbf" stroke="black" points="73,-0.5 73,-19.5 201,-19.5 201,-0.5 73,-0.5"/>
<text text-anchor="middle" x="137" y="-7.5" font-family="Helvetica,sans-Serif" font-size="10.00">hpp::model::JointRotation</text>
</g>
<!-- Node2 -->
<g id="node2" class="node"><title>Node2</title>
<g id="a_node2"><a xlink:href="a00013.html" target="_top" xlink:title="Robot joint. ">
<polygon fill="white" stroke="black" points="91,-58.5 91,-77.5 183,-77.5 183,-58.5 91,-58.5"/>
<text text-anchor="middle" x="137" y="-65.5" font-family="Helvetica,sans-Serif" font-size="10.00">hpp::model::Joint</text>
</a>
</g>
</g>
<!-- Node2&#45;&gt;Node1 -->
<g id="edge1" class="edge"><title>Node2&#45;&gt;Node1</title>
<path fill="none" stroke="midnightblue" d="M137,-47.953C137,-38.2875 137,-27.0312 137,-19.5052"/>
<polygon fill="midnightblue" stroke="midnightblue" points="133.5,-48.25 137,-58.25 140.5,-48.25 133.5,-48.25"/>
</g>
<!-- Node3 -->
<g id="node3" class="node"><title>Node3</title>
<g id="a_node3"><a xlink:href="a00015.html" target="_top" xlink:title="Configuration of a Joint. ">
<polygon fill="white" stroke="black" points="-0.5,-180.5 -0.5,-199.5 148.5,-199.5 148.5,-180.5 -0.5,-180.5"/>
<text text-anchor="middle" x="74" y="-187.5" font-family="Helvetica,sans-Serif" font-size="10.00">hpp::model::JointConfiguration</text>
</a>
</g>
</g>
<!-- Node3&#45;&gt;Node2 -->
<g id="edge2" class="edge"><title>Node3&#45;&gt;Node2</title>
<path fill="none" stroke="#9a32cd" stroke-dasharray="5,2" d="M80.3637,-170.783C87.4757,-151.498 99.9861,-120.518 115,-96 119.042,-89.3997 124.542,-82.6497 129.031,-77.5497"/>
<polygon fill="#9a32cd" stroke="#9a32cd" points="76.9908,-169.82 76.904,-180.414 83.5786,-172.186 76.9908,-169.82"/>
<text text-anchor="middle" x="147" y="-126.5" font-family="Helvetica,sans-Serif" font-size="10.00"> configuration_</text>
</g>
<!-- Node4 -->
<g id="node4" class="node"><title>Node4</title>
<polygon fill="white" stroke="#bfbfbf" points="166.5,-180.5 166.5,-199.5 235.5,-199.5 235.5,-180.5 166.5,-180.5"/>
<text text-anchor="middle" x="201" y="-187.5" font-family="Helvetica,sans-Serif" font-size="10.00">Transform3f</text>
</g>
<!-- Node4&#45;&gt;Node2 -->
<g id="edge3" class="edge"><title>Node4&#45;&gt;Node2</title>
<path fill="none" stroke="#9a32cd" stroke-dasharray="5,2" d="M200.623,-170.429C199.361,-150.368 194.777,-118.293 179,-96 173.492,-88.2167 164.963,-82.1371 157.026,-77.7342"/>
<polygon fill="#9a32cd" stroke="#9a32cd" points="197.126,-170.596 201.037,-180.443 204.12,-170.307 197.126,-170.596"/>
<text text-anchor="middle" x="250.5" y="-154" font-family="Helvetica,sans-Serif" font-size="10.00"> T3f_</text>
<text text-anchor="start" x="200" y="-143" font-family="Helvetica,sans-Serif" font-size="10.00">linkInJointFrame</text>
<text text-anchor="middle" x="250.5" y="-132" font-family="Helvetica,sans-Serif" font-size="10.00">_</text>
<text text-anchor="start" x="200" y="-121" font-family="Helvetica,sans-Serif" font-size="10.00">positionInParentFrame</text>
<text text-anchor="middle" x="250.5" y="-110" font-family="Helvetica,sans-Serif" font-size="10.00">_</text>
<text text-anchor="middle" x="250.5" y="-99" font-family="Helvetica,sans-Serif" font-size="10.00">currentTransformation_</text>
</g>
</g>
</svg>
