<?xml version="1.0" encoding="UTF-8" standalone="no"?>
<!DOCTYPE svg PUBLIC "-//W3C//DTD SVG 1.1//EN"
 "http://www.w3.org/Graphics/SVG/1.1/DTD/svg11.dtd">
<!-- Generated by graphviz version 2.36.0 (20140111.2315)
 -->
<!-- Title: hpp::model::jointRotation::UnBounded Pages: 1 -->
<svg width="309pt" height="278pt"
 viewBox="0.00 0.00 309.00 278.00" xmlns="http://www.w3.org/2000/svg" xmlns:xlink="http://www.w3.org/1999/xlink">
<g id="graph0" class="graph" transform="scale(1 1) rotate(0) translate(4 274)">
<title>hpp::model::jointRotation::UnBounded</title>
<polygon fill="white" stroke="none" points="-4,4 -4,-274 305,-274 305,4 -4,4"/>
<!-- Node1 -->
<g id="node1" class="node"><title>Node1</title>
<polygon fill="#bfbfbf" stroke="black" points="74.5,-1 74.5,-31 199.5,-31 199.5,-1 74.5,-1"/>
<text text-anchor="start" x="82.5" y="-19" font-family="Helvetica,sans-Serif" font-size="10.00">hpp::model::jointRotation</text>
<text text-anchor="middle" x="137" y="-8" font-family="Helvetica,sans-Serif" font-size="10.00">::UnBounded</text>
</g>
<!-- Node2 -->
<g id="node2" class="node"><title>Node2</title>
<g id="a_node2"><a xlink:href="a00016.html" target="_top" xlink:title="Rotation Joint. ">
<polygon fill="white" stroke="black" points="73,-70.5 73,-89.5 201,-89.5 201,-70.5 73,-70.5"/>
<text text-anchor="middle" x="137" y="-77.5" font-family="Helvetica,sans-Serif" font-size="10.00">hpp::model::JointRotation</text>
</a>
</g>
</g>
<!-- Node2&#45;&gt;Node1 -->
<g id="edge1" class="edge"><title>Node2&#45;&gt;Node1</title>
<path fill="none" stroke="midnightblue" d="M137,-60.1826C137,-50.8859 137,-39.8507 137,-31.263"/>
<polygon fill="midnightblue" stroke="midnightblue" points="133.5,-60.3791 137,-70.3792 140.5,-60.3792 133.5,-60.3791"/>
</g>
<!-- Node3 -->
<g id="node3" class="node"><title>Node3</title>
<g id="a_node3"><a xlink:href="a00013.html" target="_top" xlink:title="Robot joint. ">
<polygon fill="white" stroke="black" points="91,-128.5 91,-147.5 183,-147.5 183,-128.5 91,-128.5"/>
<text text-anchor="middle" x="137" y="-135.5" font-family="Helvetica,sans-Serif" font-size="10.00">hpp::model::Joint</text>
</a>
</g>
</g>
<!-- Node3&#45;&gt;Node2 -->
<g id="edge2" class="edge"><title>Node3&#45;&gt;Node2</title>
<path fill="none" stroke="midnightblue" d="M137,-117.953C137,-108.287 137,-97.0312 137,-89.5052"/>
<polygon fill="midnightblue" stroke="midnightblue" points="133.5,-118.25 137,-128.25 140.5,-118.25 133.5,-118.25"/>
</g>
<!-- Node4 -->
<g id="node4" class="node"><title>Node4</title>
<g id="a_node4"><a xlink:href="a00015.html" target="_top" xlink:title="Configuration of a Joint. ">
<polygon fill="white" stroke="black" points="-0.5,-250.5 -0.5,-269.5 148.5,-269.5 148.5,-250.5 -0.5,-250.5"/>
<text text-anchor="middle" x="74" y="-257.5" font-family="Helvetica,sans-Serif" font-size="10.00">hpp::model::JointConfiguration</text>
</a>
</g>
</g>
<!-- Node4&#45;&gt;Node3 -->
<g id="edge3" class="edge"><title>Node4&#45;&gt;Node3</title>
<path fill="none" stroke="#9a32cd" stroke-dasharray="5,2" d="M80.3637,-240.783C87.4757,-221.498 99.9861,-190.518 115,-166 119.042,-159.4 124.542,-152.65 129.031,-147.55"/>
<polygon fill="#9a32cd" stroke="#9a32cd" points="76.9908,-239.82 76.904,-250.414 83.5786,-242.186 76.9908,-239.82"/>
<text text-anchor="middle" x="147" y="-196.5" font-family="Helvetica,sans-Serif" font-size="10.00"> configuration_</text>
</g>
<!-- Node5 -->
<g id="node5" class="node"><title>Node5</title>
<polygon fill="white" stroke="#bfbfbf" points="166.5,-250.5 166.5,-269.5 235.5,-269.5 235.5,-250.5 166.5,-250.5"/>
<text text-anchor="middle" x="201" y="-257.5" font-family="Helvetica,sans-Serif" font-size="10.00">Transform3f</text>
</g>
<!-- Node5&#45;&gt;Node3 -->
<g id="edge4" class="edge"><title>Node5&#45;&gt;Node3</title>
<path fill="none" stroke="#9a32cd" stroke-dasharray="5,2" d="M200.623,-240.429C199.361,-220.368 194.777,-188.293 179,-166 173.492,-158.217 164.963,-152.137 157.026,-147.734"/>
<polygon fill="#9a32cd" stroke="#9a32cd" points="197.126,-240.596 201.037,-250.443 204.12,-240.307 197.126,-240.596"/>
<text text-anchor="middle" x="250.5" y="-224" font-family="Helvetica,sans-Serif" font-size="10.00"> T3f_</text>
<text text-anchor="start" x="200" y="-213" font-family="Helvetica,sans-Serif" font-size="10.00">linkInJointFrame</text>
<text text-anchor="middle" x="250.5" y="-202" font-family="Helvetica,sans-Serif" font-size="10.00">_</text>
<text text-anchor="start" x="200" y="-191" font-family="Helvetica,sans-Serif" font-size="10.00">positionInParentFrame</text>
<text text-anchor="middle" x="250.5" y="-180" font-family="Helvetica,sans-Serif" font-size="10.00">_</text>
<text text-anchor="middle" x="250.5" y="-169" font-family="Helvetica,sans-Serif" font-size="10.00">currentTransformation_</text>
</g>
</g>
</svg>
