<?xml version="1.0" encoding="UTF-8" standalone="no"?>
<!DOCTYPE svg PUBLIC "-//W3C//DTD SVG 1.1//EN"
 "http://www.w3.org/Graphics/SVG/1.1/DTD/svg11.dtd">
<!-- Generated by graphviz version 2.36.0 (20140111.2315)
 -->
<!-- Title: client.hh Pages: 1 -->
<svg width="447pt" height="96pt"
 viewBox="0.00 0.00 447.00 96.00" xmlns="http://www.w3.org/2000/svg" xmlns:xlink="http://www.w3.org/1999/xlink">
<g id="graph0" class="graph" transform="scale(1 1) rotate(0) translate(4 92)">
<title>client.hh</title>
<polygon fill="white" stroke="none" points="-4,4 -4,-92 443,-92 443,4 -4,4"/>
<!-- Node1 -->
<g id="node1" class="node"><title>Node1</title>
<polygon fill="#bfbfbf" stroke="black" points="164.5,-68.5 164.5,-87.5 217.5,-87.5 217.5,-68.5 164.5,-68.5"/>
<text text-anchor="middle" x="191" y="-75.5" font-family="Helvetica,sans-Serif" font-size="10.00">client.hh</text>
</g>
<!-- Node2 -->
<g id="node2" class="node"><title>Node2</title>
<polygon fill="white" stroke="#bfbfbf" points="0,-6.5 0,-25.5 54,-25.5 54,-6.5 0,-6.5"/>
<text text-anchor="middle" x="27" y="-13.5" font-family="Helvetica,sans-Serif" font-size="10.00">iostream</text>
</g>
<!-- Node1&#45;&gt;Node2 -->
<g id="edge1" class="edge"><title>Node1&#45;&gt;Node2</title>
<path fill="none" stroke="midnightblue" d="M165.344,-68.4584C139.39,-59.7056 98.1868,-45.5033 63,-32 60.8942,-31.1919 58.7269,-30.3401 56.5496,-29.4697"/>
<polygon fill="midnightblue" stroke="midnightblue" points="57.6825,-26.1518 47.1015,-25.612 55.0365,-32.6324 57.6825,-26.1518"/>
</g>
<!-- Node3 -->
<g id="node3" class="node"><title>Node3</title>
<polygon fill="white" stroke="#bfbfbf" points="72,-6.5 72,-25.5 184,-25.5 184,-6.5 72,-6.5"/>
<text text-anchor="middle" x="128" y="-13.5" font-family="Helvetica,sans-Serif" font-size="10.00">omniORB4/CORBA.h</text>
</g>
<!-- Node1&#45;&gt;Node3 -->
<g id="edge2" class="edge"><title>Node1&#45;&gt;Node3</title>
<path fill="none" stroke="midnightblue" d="M181.974,-68.4035C172.243,-59.1361 156.542,-44.1828 144.577,-32.7876"/>
<polygon fill="midnightblue" stroke="midnightblue" points="146.665,-29.9427 137.01,-25.5806 141.837,-35.0117 146.665,-29.9427"/>
</g>
<!-- Node4 -->
<g id="node4" class="node"><title>Node4</title>
<polygon fill="white" stroke="#bfbfbf" points="201.5,-1 201.5,-31 308.5,-31 308.5,-1 201.5,-1"/>
<text text-anchor="start" x="209.5" y="-19" font-family="Helvetica,sans-Serif" font-size="10.00">gepetto/viewer/corba</text>
<text text-anchor="middle" x="255" y="-8" font-family="Helvetica,sans-Serif" font-size="10.00">/deprecated.hh</text>
</g>
<!-- Node1&#45;&gt;Node4 -->
<g id="edge3" class="edge"><title>Node1&#45;&gt;Node4</title>
<path fill="none" stroke="midnightblue" d="M200.17,-68.4035C208.595,-60.5051 221.425,-48.4768 232.556,-38.0409"/>
<polygon fill="midnightblue" stroke="midnightblue" points="235.015,-40.5336 239.916,-31.1408 230.227,-35.4269 235.015,-40.5336"/>
</g>
<!-- Node5 -->
<g id="node5" class="node"><title>Node5</title>
<polygon fill="white" stroke="#bfbfbf" points="326.5,-1 326.5,-31 439.5,-31 439.5,-1 326.5,-1"/>
<text text-anchor="start" x="334.5" y="-19" font-family="Helvetica,sans-Serif" font-size="10.00">gepetto/viewer/corba</text>
<text text-anchor="middle" x="383" y="-8" font-family="Helvetica,sans-Serif" font-size="10.00">/graphical&#45;interface.hh</text>
</g>
<!-- Node1&#45;&gt;Node5 -->
<g id="edge4" class="edge"><title>Node1&#45;&gt;Node5</title>
<path fill="none" stroke="midnightblue" d="M217.697,-68.6573C246.141,-59.7686 291.965,-45.4485 328.16,-34.1376"/>
<polygon fill="midnightblue" stroke="midnightblue" points="329.59,-37.3577 338.091,-31.0342 327.502,-30.6763 329.59,-37.3577"/>
</g>
</g>
</svg>
