<?xml version="1.0" encoding="UTF-8" standalone="no"?>
<!DOCTYPE svg PUBLIC "-//W3C//DTD SVG 1.1//EN"
 "http://www.w3.org/Graphics/SVG/1.1/DTD/svg11.dtd">
<!-- Generated by graphviz version 2.36.0 (20140111.2315)
 -->
<!-- Title: client.hh Pages: 1 -->
<svg width="572pt" height="152pt"
 viewBox="0.00 0.00 572.00 152.00" xmlns="http://www.w3.org/2000/svg" xmlns:xlink="http://www.w3.org/1999/xlink">
<g id="graph0" class="graph" transform="scale(1 1) rotate(0) translate(4 148)">
<title>client.hh</title>
<polygon fill="white" stroke="none" points="-4,4 -4,-148 568,-148 568,4 -4,4"/>
<!-- Node1 -->
<g id="node1" class="node"><title>Node1</title>
<polygon fill="#bfbfbf" stroke="black" points="228.5,-124.5 228.5,-143.5 281.5,-143.5 281.5,-124.5 228.5,-124.5"/>
<text text-anchor="middle" x="255" y="-131.5" font-family="Helvetica,sans-Serif" font-size="10.00">client.hh</text>
</g>
<!-- Node2 -->
<g id="node2" class="node"><title>Node2</title>
<polygon fill="white" stroke="#bfbfbf" points="0,-62.5 0,-81.5 54,-81.5 54,-62.5 0,-62.5"/>
<text text-anchor="middle" x="27" y="-69.5" font-family="Helvetica,sans-Serif" font-size="10.00">iostream</text>
</g>
<!-- Node1&#45;&gt;Node2 -->
<g id="edge1" class="edge"><title>Node1&#45;&gt;Node2</title>
<path fill="none" stroke="midnightblue" d="M228.224,-128.171C190.767,-121.092 120.827,-106.683 63,-88 60.4309,-87.1699 57.7887,-86.2345 55.1585,-85.2468"/>
<polygon fill="midnightblue" stroke="midnightblue" points="56.4229,-81.983 45.8376,-81.5344 53.8328,-88.4862 56.4229,-81.983"/>
</g>
<!-- Node3 -->
<g id="node3" class="node"><title>Node3</title>
<polygon fill="white" stroke="#bfbfbf" points="72,-62.5 72,-81.5 184,-81.5 184,-62.5 72,-62.5"/>
<text text-anchor="middle" x="128" y="-69.5" font-family="Helvetica,sans-Serif" font-size="10.00">omniORB4/CORBA.h</text>
</g>
<!-- Node1&#45;&gt;Node3 -->
<g id="edge2" class="edge"><title>Node1&#45;&gt;Node3</title>
<path fill="none" stroke="midnightblue" d="M236.804,-124.403C215.491,-114.334 179.969,-97.5522 155.337,-85.9151"/>
<polygon fill="midnightblue" stroke="midnightblue" points="156.699,-82.6877 146.162,-81.5806 153.709,-89.0169 156.699,-82.6877"/>
</g>
<!-- Node4 -->
<g id="node4" class="node"><title>Node4</title>
<polygon fill="white" stroke="#bfbfbf" points="201.5,-57 201.5,-87 308.5,-87 308.5,-57 201.5,-57"/>
<text text-anchor="start" x="209.5" y="-75" font-family="Helvetica,sans-Serif" font-size="10.00">gepetto/viewer/corba</text>
<text text-anchor="middle" x="255" y="-64" font-family="Helvetica,sans-Serif" font-size="10.00">/deprecated.hh</text>
</g>
<!-- Node1&#45;&gt;Node4 -->
<g id="edge3" class="edge"><title>Node1&#45;&gt;Node4</title>
<path fill="none" stroke="midnightblue" d="M255,-124.403C255,-117.341 255,-106.975 255,-97.399"/>
<polygon fill="midnightblue" stroke="midnightblue" points="258.5,-97.1408 255,-87.1408 251.5,-97.1408 258.5,-97.1408"/>
</g>
<!-- Node5 -->
<g id="node5" class="node"><title>Node5</title>
<g id="a_node5"><a xlink:href="a00015.html" target="_top" xlink:title="gepetto/viewer/corba\l/se3.hh">
<polygon fill="white" stroke="black" points="326.5,-57 326.5,-87 433.5,-87 433.5,-57 326.5,-57"/>
<text text-anchor="start" x="334.5" y="-75" font-family="Helvetica,sans-Serif" font-size="10.00">gepetto/viewer/corba</text>
<text text-anchor="middle" x="380" y="-64" font-family="Helvetica,sans-Serif" font-size="10.00">/se3.hh</text>
</a>
</g>
</g>
<!-- Node1&#45;&gt;Node5 -->
<g id="edge4" class="edge"><title>Node1&#45;&gt;Node5</title>
<path fill="none" stroke="midnightblue" d="M272.909,-124.403C290.709,-115.86 318.577,-102.483 341.423,-91.5171"/>
<polygon fill="midnightblue" stroke="midnightblue" points="343.039,-94.6235 350.54,-87.1408 340.01,-88.3128 343.039,-94.6235"/>
</g>
<!-- Node7 -->
<g id="node7" class="node"><title>Node7</title>
<polygon fill="white" stroke="#bfbfbf" points="451.5,-57 451.5,-87 564.5,-87 564.5,-57 451.5,-57"/>
<text text-anchor="start" x="459.5" y="-75" font-family="Helvetica,sans-Serif" font-size="10.00">gepetto/viewer/corba</text>
<text text-anchor="middle" x="508" y="-64" font-family="Helvetica,sans-Serif" font-size="10.00">/graphical&#45;interface.hh</text>
</g>
<!-- Node1&#45;&gt;Node7 -->
<g id="edge6" class="edge"><title>Node1&#45;&gt;Node7</title>
<path fill="none" stroke="midnightblue" d="M281.597,-126.692C319.26,-117.76 389.362,-101.135 441.624,-88.7414"/>
<polygon fill="midnightblue" stroke="midnightblue" points="442.57,-92.1141 451.493,-86.401 440.955,-85.3031 442.57,-92.1141"/>
</g>
<!-- Node6 -->
<g id="node6" class="node"><title>Node6</title>
<polygon fill="white" stroke="#bfbfbf" points="336.5,-0.5 336.5,-19.5 423.5,-19.5 423.5,-0.5 336.5,-0.5"/>
<text text-anchor="middle" x="380" y="-7.5" font-family="Helvetica,sans-Serif" font-size="10.00">Eigen/Geometry</text>
</g>
<!-- Node5&#45;&gt;Node6 -->
<g id="edge5" class="edge"><title>Node5&#45;&gt;Node6</title>
<path fill="none" stroke="midnightblue" d="M380,-56.7808C380,-48.7812 380,-38.6887 380,-30.0168"/>
<polygon fill="midnightblue" stroke="midnightblue" points="383.5,-29.7305 380,-19.7305 376.5,-29.7306 383.5,-29.7305"/>
</g>
</g>
</svg>
