<?xml version="1.0" encoding="UTF-8" standalone="no"?>
<!DOCTYPE svg PUBLIC "-//W3C//DTD SVG 1.1//EN"
 "http://www.w3.org/Graphics/SVG/1.1/DTD/svg11.dtd">
<!-- Generated by graphviz version 2.36.0 (20140111.2315)
 -->
<!-- Title: graphics::WindowsManager Pages: 1 -->
<svg width="237pt" height="334pt"
 viewBox="0.00 0.00 236.70 334.00" xmlns="http://www.w3.org/2000/svg" xmlns:xlink="http://www.w3.org/1999/xlink">
<g id="graph0" class="graph" transform="scale(1 1) rotate(0) translate(4 330)">
<title>graphics::WindowsManager</title>
<polygon fill="white" stroke="none" points="-4,4 -4,-330 232.703,-330 232.703,4 -4,4"/>
<!-- Node1 -->
<g id="node1" class="node"><title>Node1</title>
<polygon fill="#bfbfbf" stroke="black" points="43.203,-0.5 43.203,-19.5 180.203,-19.5 180.203,-0.5 43.203,-0.5"/>
<text text-anchor="middle" x="111.703" y="-7.5" font-family="Helvetica,sans-Serif" font-size="10.00">graphics::WindowsManager</text>
</g>
<!-- Node2 -->
<g id="node2" class="node"><title>Node2</title>
<polygon fill="white" stroke="#bfbfbf" points="2.70298,-69 2.70298,-99 112.703,-99 112.703,-69 2.70298,-69"/>
<text text-anchor="start" x="10.703" y="-87" font-family="Helvetica,sans-Serif" font-size="10.00">std::map&lt; std::string,</text>
<text text-anchor="middle" x="57.703" y="-76" font-family="Helvetica,sans-Serif" font-size="10.00"> UrdfFile &gt;</text>
</g>
<!-- Node2&#45;&gt;Node1 -->
<g id="edge1" class="edge"><title>Node2&#45;&gt;Node1</title>
<path fill="none" stroke="#9a32cd" stroke-dasharray="5,2" d="M67.6336,-59.4368C71.2218,-52.2087 75.6514,-44.4637 80.703,-38 86.1526,-31.0269 93.5961,-24.4743 99.8233,-19.5708"/>
<polygon fill="#9a32cd" stroke="#9a32cd" points="64.321,-58.2602 63.2828,-68.8041 70.6696,-61.209 64.321,-58.2602"/>
<text text-anchor="middle" x="111.703" y="-41.5" font-family="Helvetica,sans-Serif" font-size="10.00"> urdfFileMap_</text>
</g>
<!-- Node3 -->
<g id="node3" class="node"><title>Node3</title>
<g id="a_node3"><a xlink:title="STL class. ">
<polygon fill="white" stroke="#bfbfbf" points="55.703,-236.5 55.703,-255.5 115.703,-255.5 115.703,-236.5 55.703,-236.5"/>
<text text-anchor="middle" x="85.703" y="-243.5" font-family="Helvetica,sans-Serif" font-size="10.00">std::string</text>
</a>
</g>
</g>
<!-- Node3&#45;&gt;Node2 -->
<g id="edge2" class="edge"><title>Node3&#45;&gt;Node2</title>
<path fill="none" stroke="#9a32cd" stroke-dasharray="5,2" d="M54.4579,-232.013C36.3662,-222.669 15.1595,-208.144 4.70298,-188 -11.7888,-156.229 20.2766,-118.843 41.3475,-99.0106"/>
<polygon fill="#9a32cd" stroke="#9a32cd" points="53.0365,-235.214 63.5613,-236.43 56.0922,-228.916 53.0365,-235.214"/>
<text text-anchor="middle" x="17.203" y="-175.5" font-family="Helvetica,sans-Serif" font-size="10.00"> keys</text>
</g>
<!-- Node5 -->
<g id="node5" class="node"><title>Node5</title>
<g id="a_node5"><a xlink:href="a00011.html" target="_top" xlink:title="graphics::UrdfFile">
<polygon fill="white" stroke="black" points="38.703,-168.5 38.703,-187.5 132.703,-187.5 132.703,-168.5 38.703,-168.5"/>
<text text-anchor="middle" x="85.703" y="-175.5" font-family="Helvetica,sans-Serif" font-size="10.00">graphics::UrdfFile</text>
</a>
</g>
</g>
<!-- Node3&#45;&gt;Node5 -->
<g id="edge5" class="edge"><title>Node3&#45;&gt;Node5</title>
<path fill="none" stroke="#9a32cd" stroke-dasharray="5,2" d="M85.703,-226.041C85.703,-213.472 85.703,-197.563 85.703,-187.841"/>
<polygon fill="#9a32cd" stroke="#9a32cd" points="82.2031,-226.372 85.703,-236.372 89.2031,-226.372 82.2031,-226.372"/>
<text text-anchor="middle" x="105.703" y="-209.5" font-family="Helvetica,sans-Serif" font-size="10.00"> filename</text>
</g>
<!-- Node6 -->
<g id="node6" class="node"><title>Node6</title>
<polygon fill="white" stroke="#bfbfbf" points="105.703,-119 105.703,-149 215.703,-149 215.703,-119 105.703,-119"/>
<text text-anchor="start" x="113.703" y="-137" font-family="Helvetica,sans-Serif" font-size="10.00">std::map&lt; std::string,</text>
<text text-anchor="middle" x="160.703" y="-126" font-family="Helvetica,sans-Serif" font-size="10.00"> WindowID &gt;</text>
</g>
<!-- Node3&#45;&gt;Node6 -->
<g id="edge7" class="edge"><title>Node3&#45;&gt;Node6</title>
<path fill="none" stroke="#9a32cd" stroke-dasharray="5,2" d="M114.431,-231.078C120.022,-227.406 125.457,-223.036 129.703,-218 146.855,-197.655 154.982,-166.903 158.449,-149.101"/>
<polygon fill="#9a32cd" stroke="#9a32cd" points="112.487,-228.161 105.665,-236.267 116.053,-234.185 112.487,-228.161"/>
<text text-anchor="middle" x="149.203" y="-209.5" font-family="Helvetica,sans-Serif" font-size="10.00"> keys</text>
</g>
<!-- Node4 -->
<g id="node4" class="node"><title>Node4</title>
<g id="a_node4"><a xlink:title="STL class. ">
<polygon fill="white" stroke="#bfbfbf" points="38.203,-295 38.203,-325 133.203,-325 133.203,-295 38.203,-295"/>
<text text-anchor="start" x="46.203" y="-313" font-family="Helvetica,sans-Serif" font-size="10.00">std::basic_string&lt;</text>
<text text-anchor="middle" x="85.703" y="-302" font-family="Helvetica,sans-Serif" font-size="10.00"> char &gt;</text>
</a>
</g>
</g>
<!-- Node4&#45;&gt;Node3 -->
<g id="edge3" class="edge"><title>Node4&#45;&gt;Node3</title>
<path fill="none" stroke="midnightblue" d="M85.703,-284.871C85.703,-274.663 85.703,-263.408 85.703,-255.842"/>
<polygon fill="midnightblue" stroke="midnightblue" points="82.2031,-284.931 85.703,-294.931 89.2031,-284.931 82.2031,-284.931"/>
</g>
<!-- Node5&#45;&gt;Node2 -->
<g id="edge4" class="edge"><title>Node5&#45;&gt;Node2</title>
<path fill="none" stroke="#9a32cd" stroke-dasharray="5,2" d="M62.787,-162.089C59.1034,-158.592 55.8126,-154.54 53.703,-150 46.1755,-133.8 49.4635,-112.837 53.0839,-99.1612"/>
<polygon fill="#9a32cd" stroke="#9a32cd" points="60.6771,-164.884 70.6474,-168.468 65.088,-159.449 60.6771,-164.884"/>
<text text-anchor="middle" x="75.203" y="-131.5" font-family="Helvetica,sans-Serif" font-size="10.00"> elements</text>
</g>
<!-- Node6&#45;&gt;Node1 -->
<g id="edge6" class="edge"><title>Node6&#45;&gt;Node1</title>
<path fill="none" stroke="#9a32cd" stroke-dasharray="5,2" d="M159.629,-108.683C157.827,-88.5917 153.085,-59.9151 140.703,-38 136.642,-30.813 130.016,-24.4312 124.122,-19.6789"/>
<polygon fill="#9a32cd" stroke="#9a32cd" points="156.152,-109.139 160.357,-118.863 163.135,-108.639 156.152,-109.139"/>
<text text-anchor="middle" x="193.203" y="-81.5" font-family="Helvetica,sans-Serif" font-size="10.00"> windowIDmap_</text>
</g>
</g>
</svg>
