<?xml version="1.0" encoding="UTF-8" standalone="no"?>
<!DOCTYPE svg PUBLIC "-//W3C//DTD SVG 1.1//EN"
 "http://www.w3.org/Graphics/SVG/1.1/DTD/svg11.dtd">
<!-- Generated by graphviz version 2.36.0 (20140111.2315)
 -->
<!-- Title: windows&#45;manager.hh Pages: 1 -->
<svg width="793pt" height="344pt"
 viewBox="0.00 0.00 793.23 344.00" xmlns="http://www.w3.org/2000/svg" xmlns:xlink="http://www.w3.org/1999/xlink">
<g id="graph0" class="graph" transform="scale(1 1) rotate(0) translate(4 340)">
<title>windows&#45;manager.hh</title>
<polygon fill="white" stroke="none" points="-4,4 -4,-340 789.227,-340 789.227,4 -4,4"/>
<!-- Node1 -->
<g id="node1" class="node"><title>Node1</title>
<polygon fill="#bfbfbf" stroke="black" points="400.727,-316.5 400.727,-335.5 509.727,-335.5 509.727,-316.5 400.727,-316.5"/>
<text text-anchor="middle" x="455.227" y="-323.5" font-family="Helvetica,sans-Serif" font-size="10.00">windows&#45;manager.hh</text>
</g>
<!-- Node2 -->
<g id="node2" class="node"><title>Node2</title>
<g id="a_node2"><a doxygen="https://jmirabel.github.io/hpp-doc/api/gepetto-viewer/doxygen-html/gepetto-viewer.doxytag:https://jmirabel.github.io/hpp-doc/api/gepetto-viewer/doxygen-html/" xlink:href="https://jmirabel.github.io/hpp-doc/api/gepetto-viewer/doxygen-html/a00049.html" target="_top" xlink:title="gepetto/viewer/window\l&#45;manager.h">
<polygon fill="white" stroke="black" points="10.2274,-249 10.2274,-279 126.227,-279 126.227,-249 10.2274,-249"/>
<text text-anchor="start" x="18.2274" y="-267" font-family="Helvetica,sans-Serif" font-size="10.00">gepetto/viewer/window</text>
<text text-anchor="middle" x="68.2274" y="-256" font-family="Helvetica,sans-Serif" font-size="10.00">&#45;manager.h</text>
</a>
</g>
</g>
<!-- Node1&#45;&gt;Node2 -->
<g id="edge1" class="edge"><title>Node1&#45;&gt;Node2</title>
<path fill="none" stroke="midnightblue" d="M400.601,-316.531C331.351,-305.794 211.946,-287.282 136.685,-275.614"/>
<polygon fill="midnightblue" stroke="midnightblue" points="136.786,-272.088 126.368,-274.014 135.714,-279.005 136.786,-272.088"/>
</g>
<!-- Node7 -->
<g id="node7" class="node"><title>Node7</title>
<g id="a_node7"><a doxygen="https://jmirabel.github.io/hpp-doc/api/gepetto-viewer/doxygen-html/gepetto-viewer.doxytag:https://jmirabel.github.io/hpp-doc/api/gepetto-viewer/doxygen-html/" xlink:href="https://jmirabel.github.io/hpp-doc/api/gepetto-viewer/doxygen-html/a00046.html" target="_top" xlink:title="gepetto/viewer/roadmap\l&#45;viewer.h">
<polygon fill="white" stroke="black" points="245.727,-249 245.727,-279 366.727,-279 366.727,-249 245.727,-249"/>
<text text-anchor="start" x="253.727" y="-267" font-family="Helvetica,sans-Serif" font-size="10.00">gepetto/viewer/roadmap</text>
<text text-anchor="middle" x="306.227" y="-256" font-family="Helvetica,sans-Serif" font-size="10.00">&#45;viewer.h</text>
</a>
</g>
</g>
<!-- Node1&#45;&gt;Node7 -->
<g id="edge7" class="edge"><title>Node1&#45;&gt;Node7</title>
<path fill="none" stroke="midnightblue" d="M433.879,-316.403C412.213,-307.679 378.032,-293.914 350.49,-282.824"/>
<polygon fill="midnightblue" stroke="midnightblue" points="351.64,-279.514 341.057,-279.025 349.026,-286.007 351.64,-279.514"/>
</g>
<!-- Node10 -->
<g id="node10" class="node"><title>Node10</title>
<g id="a_node10"><a doxygen="https://jmirabel.github.io/hpp-doc/api/gepetto-viewer/doxygen-html/gepetto-viewer.doxytag:https://jmirabel.github.io/hpp-doc/api/gepetto-viewer/doxygen-html/" xlink:href="https://jmirabel.github.io/hpp-doc/api/gepetto-viewer/doxygen-html/a00047.html" target="_top" xlink:title="gepetto/viewer/transform\l&#45;writer.h">
<polygon fill="white" stroke="black" points="392.727,-249 392.727,-279 517.727,-279 517.727,-249 392.727,-249"/>
<text text-anchor="start" x="400.727" y="-267" font-family="Helvetica,sans-Serif" font-size="10.00">gepetto/viewer/transform</text>
<text text-anchor="middle" x="455.227" y="-256" font-family="Helvetica,sans-Serif" font-size="10.00">&#45;writer.h</text>
</a>
</g>
</g>
<!-- Node1&#45;&gt;Node10 -->
<g id="edge14" class="edge"><title>Node1&#45;&gt;Node10</title>
<path fill="none" stroke="midnightblue" d="M455.227,-316.403C455.227,-309.341 455.227,-298.975 455.227,-289.399"/>
<polygon fill="midnightblue" stroke="midnightblue" points="458.727,-289.141 455.227,-279.141 451.727,-289.141 458.727,-289.141"/>
</g>
<!-- Node12 -->
<g id="node12" class="node"><title>Node12</title>
<polygon fill="white" stroke="#bfbfbf" points="535.727,-249 535.727,-279 648.727,-279 648.727,-249 535.727,-249"/>
<text text-anchor="start" x="543.727" y="-267" font-family="Helvetica,sans-Serif" font-size="10.00">gepetto/viewer/corba</text>
<text text-anchor="middle" x="592.227" y="-256" font-family="Helvetica,sans-Serif" font-size="10.00">/graphical&#45;interface.hh</text>
</g>
<!-- Node1&#45;&gt;Node12 -->
<g id="edge19" class="edge"><title>Node1&#45;&gt;Node12</title>
<path fill="none" stroke="midnightblue" d="M474.856,-316.403C494.604,-307.755 525.658,-294.155 550.864,-283.115"/>
<polygon fill="midnightblue" stroke="midnightblue" points="552.447,-286.243 560.203,-279.025 549.639,-279.831 552.447,-286.243"/>
</g>
<!-- Node13 -->
<g id="node13" class="node"><title>Node13</title>
<polygon fill="white" stroke="#bfbfbf" points="666.727,-254.5 666.727,-273.5 785.727,-273.5 785.727,-254.5 666.727,-254.5"/>
<text text-anchor="middle" x="726.227" y="-261.5" font-family="Helvetica,sans-Serif" font-size="10.00">boost/thread/mutex.hpp</text>
</g>
<!-- Node1&#45;&gt;Node13 -->
<g id="edge20" class="edge"><title>Node1&#45;&gt;Node13</title>
<path fill="none" stroke="midnightblue" d="M493.767,-316.467C542.228,-305.738 625.435,-287.316 678.047,-275.667"/>
<polygon fill="midnightblue" stroke="midnightblue" points="678.813,-279.082 687.82,-273.503 677.3,-272.248 678.813,-279.082"/>
</g>
<!-- Node3 -->
<g id="node3" class="node"><title>Node3</title>
<g id="a_node3"><a doxygen="https://jmirabel.github.io/hpp-doc/api/gepetto-viewer/doxygen-html/gepetto-viewer.doxytag:https://jmirabel.github.io/hpp-doc/api/gepetto-viewer/doxygen-html/" xlink:href="https://jmirabel.github.io/hpp-doc/api/gepetto-viewer/doxygen-html/a00027.html" target="_top" xlink:title="gepetto/viewer/group\l&#45;node.h">
<polygon fill="white" stroke="black" points="14.7274,-181 14.7274,-211 121.727,-211 121.727,-181 14.7274,-181"/>
<text text-anchor="start" x="22.7274" y="-199" font-family="Helvetica,sans-Serif" font-size="10.00">gepetto/viewer/group</text>
<text text-anchor="middle" x="68.2274" y="-188" font-family="Helvetica,sans-Serif" font-size="10.00">&#45;node.h</text>
</a>
</g>
</g>
<!-- Node2&#45;&gt;Node3 -->
<g id="edge2" class="edge"><title>Node2&#45;&gt;Node3</title>
<path fill="none" stroke="midnightblue" d="M68.2274,-248.679C68.2274,-240.722 68.2274,-230.605 68.2274,-221.436"/>
<polygon fill="midnightblue" stroke="midnightblue" points="71.7275,-221.293 68.2274,-211.293 64.7275,-221.293 71.7275,-221.293"/>
</g>
<!-- Node4 -->
<g id="node4" class="node"><title>Node4</title>
<g id="a_node4"><a doxygen="https://jmirabel.github.io/hpp-doc/api/gepetto-viewer/doxygen-html/gepetto-viewer.doxytag:https://jmirabel.github.io/hpp-doc/api/gepetto-viewer/doxygen-html/" xlink:href="https://jmirabel.github.io/hpp-doc/api/gepetto-viewer/doxygen-html/a00044.html" target="_top" xlink:title="gepetto/viewer/node.h">
<polygon fill="white" stroke="black" points="249.727,-124.5 249.727,-143.5 362.727,-143.5 362.727,-124.5 249.727,-124.5"/>
<text text-anchor="middle" x="306.227" y="-131.5" font-family="Helvetica,sans-Serif" font-size="10.00">gepetto/viewer/node.h</text>
</a>
</g>
</g>
<!-- Node2&#45;&gt;Node4 -->
<g id="edge6" class="edge"><title>Node2&#45;&gt;Node4</title>
<path fill="none" stroke="midnightblue" d="M44.7399,-248.738C19.7654,-231.827 -13.6081,-203.033 6.22736,-180 35.6646,-145.818 160.043,-137.233 239.116,-135.293"/>
<polygon fill="midnightblue" stroke="midnightblue" points="239.558,-138.785 249.48,-135.07 239.407,-131.786 239.558,-138.785"/>
</g>
<!-- Node3&#45;&gt;Node4 -->
<g id="edge3" class="edge"><title>Node3&#45;&gt;Node4</title>
<path fill="none" stroke="midnightblue" d="M121.936,-181.46C164.313,-170.777 222.689,-156.06 262.303,-146.073"/>
<polygon fill="midnightblue" stroke="midnightblue" points="263.358,-149.417 272.199,-143.579 261.647,-142.629 263.358,-149.417"/>
</g>
<!-- Node5 -->
<g id="node5" class="node"><title>Node5</title>
<g id="a_node5"><a doxygen="https://jmirabel.github.io/hpp-doc/api/gepetto-viewer/doxygen-html/gepetto-viewer.doxytag:https://jmirabel.github.io/hpp-doc/api/gepetto-viewer/doxygen-html/" xlink:href="https://jmirabel.github.io/hpp-doc/api/gepetto-viewer/doxygen-html/a00025.html" target="_top" xlink:title="gepetto/viewer/config\l&#45;osg.h">
<polygon fill="white" stroke="black" points="409.227,-57 409.227,-87 519.227,-87 519.227,-57 409.227,-57"/>
<text text-anchor="start" x="417.227" y="-75" font-family="Helvetica,sans-Serif" font-size="10.00">gepetto/viewer/config</text>
<text text-anchor="middle" x="464.227" y="-64" font-family="Helvetica,sans-Serif" font-size="10.00">&#45;osg.h</text>
</a>
</g>
</g>
<!-- Node4&#45;&gt;Node5 -->
<g id="edge4" class="edge"><title>Node4&#45;&gt;Node5</title>
<path fill="none" stroke="midnightblue" d="M328.865,-124.403C351.94,-115.641 388.403,-101.794 417.673,-90.6789"/>
<polygon fill="midnightblue" stroke="midnightblue" points="419.188,-93.8475 427.294,-87.0253 416.703,-87.3035 419.188,-93.8475"/>
</g>
<!-- Node6 -->
<g id="node6" class="node"><title>Node6</title>
<g id="a_node6"><a doxygen="https://jmirabel.github.io/hpp-doc/api/gepetto-viewer/doxygen-html/gepetto-viewer.doxytag:https://jmirabel.github.io/hpp-doc/api/gepetto-viewer/doxygen-html/" xlink:href="https://jmirabel.github.io/hpp-doc/api/gepetto-viewer/doxygen-html/a00041.html" target="_top" xlink:title="gepetto/viewer/macros.h">
<polygon fill="white" stroke="black" points="402.227,-0.5 402.227,-19.5 526.227,-19.5 526.227,-0.5 402.227,-0.5"/>
<text text-anchor="middle" x="464.227" y="-7.5" font-family="Helvetica,sans-Serif" font-size="10.00">gepetto/viewer/macros.h</text>
</a>
</g>
</g>
<!-- Node5&#45;&gt;Node6 -->
<g id="edge5" class="edge"><title>Node5&#45;&gt;Node6</title>
<path fill="none" stroke="midnightblue" d="M464.227,-56.7808C464.227,-48.7812 464.227,-38.6887 464.227,-30.0168"/>
<polygon fill="midnightblue" stroke="midnightblue" points="467.727,-29.7305 464.227,-19.7305 460.727,-29.7306 467.727,-29.7305"/>
</g>
<!-- Node7&#45;&gt;Node3 -->
<g id="edge9" class="edge"><title>Node7&#45;&gt;Node3</title>
<path fill="none" stroke="midnightblue" d="M255.462,-248.922C218.335,-238.627 167.825,-224.619 128.622,-213.748"/>
<polygon fill="midnightblue" stroke="midnightblue" points="129.486,-210.356 118.914,-211.056 127.615,-217.101 129.486,-210.356"/>
</g>
<!-- Node7&#45;&gt;Node4 -->
<g id="edge8" class="edge"><title>Node7&#45;&gt;Node4</title>
<path fill="none" stroke="midnightblue" d="M330.521,-248.811C343.106,-239.989 357.265,-227.393 364.227,-212 370.088,-199.042 370.484,-192.772 364.227,-180 357.705,-166.684 345.131,-156.177 333.354,-148.676"/>
<polygon fill="midnightblue" stroke="midnightblue" points="335.01,-145.589 324.617,-143.529 331.457,-151.621 335.01,-145.589"/>
</g>
<!-- Node8 -->
<g id="node8" class="node"><title>Node8</title>
<g id="a_node8"><a doxygen="https://jmirabel.github.io/hpp-doc/api/gepetto-viewer/doxygen-html/gepetto-viewer.doxytag:https://jmirabel.github.io/hpp-doc/api/gepetto-viewer/doxygen-html/" xlink:href="https://jmirabel.github.io/hpp-doc/api/gepetto-viewer/doxygen-html/a00040.html" target="_top" xlink:title="gepetto/viewer/leaf\l&#45;node&#45;xyzaxis.h">
<polygon fill="white" stroke="black" points="139.727,-181 139.727,-211 238.727,-211 238.727,-181 139.727,-181"/>
<text text-anchor="start" x="147.727" y="-199" font-family="Helvetica,sans-Serif" font-size="10.00">gepetto/viewer/leaf</text>
<text text-anchor="middle" x="189.227" y="-188" font-family="Helvetica,sans-Serif" font-size="10.00">&#45;node&#45;xyzaxis.h</text>
</a>
</g>
</g>
<!-- Node7&#45;&gt;Node8 -->
<g id="edge10" class="edge"><title>Node7&#45;&gt;Node8</title>
<path fill="none" stroke="midnightblue" d="M281.128,-248.841C264.163,-239.272 241.563,-226.523 223.02,-216.062"/>
<polygon fill="midnightblue" stroke="midnightblue" points="224.715,-213 214.285,-211.135 221.275,-219.097 224.715,-213"/>
</g>
<!-- Node9 -->
<g id="node9" class="node"><title>Node9</title>
<g id="a_node9"><a doxygen="https://jmirabel.github.io/hpp-doc/api/gepetto-viewer/doxygen-html/gepetto-viewer.doxytag:https://jmirabel.github.io/hpp-doc/api/gepetto-viewer/doxygen-html/" xlink:href="https://jmirabel.github.io/hpp-doc/api/gepetto-viewer/doxygen-html/a00038.html" target="_top" xlink:title="gepetto/viewer/leaf\l&#45;node&#45;line.h">
<polygon fill="white" stroke="black" points="256.727,-181 256.727,-211 355.727,-211 355.727,-181 256.727,-181"/>
<text text-anchor="start" x="264.727" y="-199" font-family="Helvetica,sans-Serif" font-size="10.00">gepetto/viewer/leaf</text>
<text text-anchor="middle" x="306.227" y="-188" font-family="Helvetica,sans-Serif" font-size="10.00">&#45;node&#45;line.h</text>
</a>
</g>
</g>
<!-- Node7&#45;&gt;Node9 -->
<g id="edge12" class="edge"><title>Node7&#45;&gt;Node9</title>
<path fill="none" stroke="midnightblue" d="M306.227,-248.679C306.227,-240.722 306.227,-230.605 306.227,-221.436"/>
<polygon fill="midnightblue" stroke="midnightblue" points="309.727,-221.293 306.227,-211.293 302.727,-221.293 309.727,-221.293"/>
</g>
<!-- Node8&#45;&gt;Node4 -->
<g id="edge11" class="edge"><title>Node8&#45;&gt;Node4</title>
<path fill="none" stroke="midnightblue" d="M216.659,-180.933C235.957,-171.036 261.611,-157.88 280.516,-148.185"/>
<polygon fill="midnightblue" stroke="midnightblue" points="282.156,-151.278 289.457,-143.6 278.962,-145.049 282.156,-151.278"/>
</g>
<!-- Node9&#45;&gt;Node4 -->
<g id="edge13" class="edge"><title>Node9&#45;&gt;Node4</title>
<path fill="none" stroke="midnightblue" d="M306.227,-180.781C306.227,-172.781 306.227,-162.689 306.227,-154.017"/>
<polygon fill="midnightblue" stroke="midnightblue" points="309.727,-153.73 306.227,-143.731 302.727,-153.731 309.727,-153.73"/>
</g>
<!-- Node10&#45;&gt;Node5 -->
<g id="edge15" class="edge"><title>Node10&#45;&gt;Node5</title>
<path fill="none" stroke="midnightblue" d="M486.214,-248.939C500.889,-240.497 516.978,-228.216 525.227,-212 545.89,-171.38 510.802,-122.211 485.855,-94.5785"/>
<polygon fill="midnightblue" stroke="midnightblue" points="488.211,-91.973 478.827,-87.0539 483.095,-96.7511 488.211,-91.973"/>
</g>
<!-- Node11 -->
<g id="node11" class="node"><title>Node11</title>
<g id="a_node11"><a doxygen="https://jmirabel.github.io/hpp-doc/api/gepetto-viewer/doxygen-html/gepetto-viewer.doxytag:https://jmirabel.github.io/hpp-doc/api/gepetto-viewer/doxygen-html/" xlink:href="https://jmirabel.github.io/hpp-doc/api/gepetto-viewer/doxygen-html/a00043.html" target="_top" xlink:title="gepetto/viewer/node\l&#45;visitor.h">
<polygon fill="white" stroke="black" points="412.227,-181 412.227,-211 516.227,-211 516.227,-181 412.227,-181"/>
<text text-anchor="start" x="420.227" y="-199" font-family="Helvetica,sans-Serif" font-size="10.00">gepetto/viewer/node</text>
<text text-anchor="middle" x="464.227" y="-188" font-family="Helvetica,sans-Serif" font-size="10.00">&#45;visitor.h</text>
</a>
</g>
</g>
<!-- Node10&#45;&gt;Node11 -->
<g id="edge16" class="edge"><title>Node10&#45;&gt;Node11</title>
<path fill="none" stroke="midnightblue" d="M457.18,-248.679C458.265,-240.722 459.645,-230.605 460.895,-221.436"/>
<polygon fill="midnightblue" stroke="midnightblue" points="464.395,-221.674 462.278,-211.293 457.459,-220.728 464.395,-221.674"/>
</g>
<!-- Node11&#45;&gt;Node4 -->
<g id="edge18" class="edge"><title>Node11&#45;&gt;Node4</title>
<path fill="none" stroke="midnightblue" d="M427.183,-180.933C400.289,-170.72 364.255,-157.036 338.529,-147.266"/>
<polygon fill="midnightblue" stroke="midnightblue" points="339.465,-143.878 328.874,-143.6 336.98,-150.422 339.465,-143.878"/>
</g>
<!-- Node11&#45;&gt;Node5 -->
<g id="edge17" class="edge"><title>Node11&#45;&gt;Node5</title>
<path fill="none" stroke="midnightblue" d="M464.227,-180.526C464.227,-159.963 464.227,-122.033 464.227,-97.1629"/>
<polygon fill="midnightblue" stroke="midnightblue" points="467.727,-97.0787 464.227,-87.0787 460.727,-97.0787 467.727,-97.0787"/>
</g>
</g>
</svg>
